<svg width="500" height="500" viewBox="0 0 500 500" fill="none" xmlns="http://www.w3.org/2000/svg">
<path d="M83.8646 286.684C84.2632 285.869 84.6442 285.019 84.9758 284.158C85.5262 282.73 86.2882 281.375 87.0114 280.017C87.9533 278.249 88.9058 276.489 89.9218 274.767C90.6767 273.483 91.5057 272.238 92.3665 271.017C93.6118 269.25 94.9136 267.521 96.1977 265.782C97.6688 263.789 99.3163 261.944 100.996 260.134C103.412 257.527 105.885 254.969 108.661 252.733C110.626 251.149 112.468 249.424 114.546 247.974C115.682 247.18 116.684 246.192 117.714 245.261C118.363 244.675 118.811 243.963 119.22 243.155C120.307 241.003 120.945 238.65 122.243 236.604C122.628 235.052 123.679 233.778 124.081 232.226C124.219 231.693 124.635 231.256 124.865 230.73C125.803 228.568 126.84 226.451 127.761 224.281C128.322 222.962 128.985 221.692 129.525 220.369C129.782 219.741 130.262 219.226 130.407 218.577C130.558 217.9 130.879 217.339 131.215 216.753C131.49 216.273 131.581 215.712 131.85 215.197C132.534 213.885 133.056 212.491 133.673 211.144C134.379 209.609 135.095 208.082 135.846 206.572C136.213 205.834 136.277 204.967 136.845 204.325C137.557 202.176 138.718 200.225 139.579 198.137C139.921 197.304 140.182 196.373 140.828 195.671C140.986 194.581 141.823 193.773 142.027 192.683C142.137 192.097 142.549 191.582 142.796 191.014C143.424 189.561 144.207 188.178 144.821 186.721C145.379 185.398 146.014 184.117 146.617 182.819C147.372 181.196 148.158 179.588 148.91 177.965C150.226 175.125 151.75 172.391 153.221 169.632C154.399 167.427 155.535 165.187 156.946 163.106C157.747 161.924 158.371 160.622 159.077 159.374C159.155 159.239 159.232 159.105 159.317 158.978C161.07 156.262 162.813 153.542 164.577 150.836C165.194 149.887 165.797 148.917 166.524 148.056C167.032 147.457 167.216 146.695 167.769 146.116C168.256 145.608 168.69 145.023 169.057 144.388C169.442 143.724 169.971 143.146 170.447 142.535C170.574 142.373 170.765 142.253 170.86 142.077C171.844 140.246 173.28 138.747 174.536 137.124C175.859 135.416 177.118 133.645 178.695 132.143C180.381 130.534 182.339 129.278 184.216 127.92C185.736 127.44 186.961 126.279 188.569 126.001C189.92 125.175 191.547 125.235 192.965 124.632C193.247 124.512 193.568 124.42 193.868 124.427C195.886 124.47 197.861 123.916 199.883 124.011C200.655 124.046 201.421 124.022 202.186 124.24C202.67 124.378 203.213 124.336 203.728 124.346C204.822 124.367 205.887 124.519 206.893 124.988C207.08 125.076 207.274 125.154 207.471 125.207C209.874 125.814 211.101 126.35 213.317 127.511C214.64 128.206 215.941 128.925 217.176 129.761C217.359 129.885 217.557 129.902 217.765 129.842C220.873 132.009 223.558 134.64 226.066 137.462C226.856 138.348 227.657 139.223 228.31 140.221C229.58 142.165 230.793 144.141 231.873 146.201C232.783 147.94 233.612 149.711 234.36 151.521C235.168 153.475 235.947 155.437 236.738 157.398C236.815 157.589 236.914 157.79 236.918 157.987C236.939 158.851 237.366 159.561 237.725 160.301C238.018 160.898 238.406 161.462 238.406 162.168C237.468 162.418 236.791 163.011 236.198 163.762C235.626 164.489 235.005 165.18 234.374 165.858C230.744 169.728 227.103 173.587 223.473 177.453C220.475 180.646 217.458 183.818 214.502 187.045C213.006 188.682 211.458 190.256 209.796 191.727C209.221 192.235 208.72 192.831 208.184 193.385C207.658 193.526 207.316 193.925 206.938 194.277C205.577 195.547 204.391 196.976 203.199 198.405C202.045 199.788 200.835 201.125 199.675 202.504C197.784 204.748 195.918 207.013 194.03 209.26C193.169 210.287 192.266 211.274 191.399 212.297C189.867 214.104 188.365 215.935 186.83 217.734C185.327 219.498 183.782 221.226 182.279 222.994C180.91 224.599 179.591 226.246 178.222 227.848C176.515 229.845 174.79 231.824 173.051 233.796C172.063 234.918 171.205 236.142 170.225 237.271C168.404 239.366 166.708 241.571 164.937 243.712C163.229 245.776 161.479 247.805 159.779 249.872C158.213 251.78 156.699 253.735 155.14 255.65C154.392 256.568 153.602 257.453 152.819 258.342C152.445 258.769 152.043 259.168 151.76 259.668C151.584 259.982 151.386 260.296 151.136 260.547C149.711 261.972 148.504 263.581 147.241 265.14C145.654 267.098 144.027 269.024 142.422 270.972C141.181 272.481 139.953 274.002 138.711 275.515C137.699 276.75 136.654 277.957 135.663 279.205C134.732 280.38 134.061 281.721 133.384 283.047C133.148 283.509 132.841 283.915 132.612 284.377C131.761 286.12 130.893 287.852 129.99 289.566C129.13 291.2 128.156 292.773 127.345 294.428C126.374 296.41 125.171 298.266 124.279 300.287C123.803 301.363 123.101 302.326 122.596 303.399C121.961 304.747 121.21 306.038 120.494 307.343C119.46 309.234 118.447 311.139 117.46 313.047C116.497 314.914 115.452 316.741 114.514 318.621C113.879 319.895 113.265 321.193 112.45 322.393C111.738 323.444 111.279 324.664 110.693 325.804C109.988 327.173 109.265 328.531 108.549 329.893C107.592 331.706 106.643 333.523 105.684 335.332C105.539 335.604 105.335 335.844 105.204 336.119C104.054 338.518 102.706 340.811 101.482 343.171C100.847 344.392 100.364 345.711 99.4786 346.798C99.0658 347.306 99.2457 347.877 99.3269 348.435C98.8154 348.505 98.3073 348.632 97.7958 348.632C94.7513 348.646 91.6928 348.791 88.6589 348.586C85.3533 348.364 82.0548 348.389 78.7599 348.463C76.6997 348.509 74.6394 348.66 72.5757 348.646C71.8525 348.643 71.1293 348.607 70.4096 348.59C70.2544 347.641 70.78 343.993 71.1116 342.18C71.2139 341.622 71.2951 341.238 71.3374 341.16C71.3374 341.16 73.2742 322.467 77.9061 306.74C82.5381 291.009 83.8716 286.695 83.8716 286.695L83.8646 286.684Z" fill="#6A6D66"/>
<path d="M318.251 256.892C317.566 256.169 317.118 255.287 316.713 254.405C314.437 249.456 311.315 245.018 308.327 240.502C307.103 238.65 305.653 236.971 304.087 235.387C300.774 232.035 297.232 228.977 293.242 226.454C292.808 226.179 292.399 225.855 291.877 225.756C291.559 226.2 291.087 226.401 290.593 226.574C290.155 226.726 289.736 226.902 289.341 227.167C288.656 227.626 287.936 228.035 287.22 228.444C284.638 229.922 282.292 231.735 280.436 234.032C277.791 237.309 275.773 240.975 274.81 245.134C274.541 246.288 274.393 247.469 274.157 248.634C273.804 250.369 273.797 252.123 273.878 253.879C273.935 255.114 274.079 256.349 274.143 257.584C274.196 258.677 274.436 259.725 274.76 260.766C276.055 264.95 278.129 268.753 280.521 272.383C281.996 274.623 283.495 276.859 285.654 278.542C286.06 278.856 286.37 279.286 286.748 279.639C287.076 279.943 287.196 280.32 287.259 280.736C287.591 280.793 287.778 281.029 287.972 281.28C289.358 283.065 290.748 284.846 292.156 286.614C294.657 289.753 296.841 293.112 299.095 296.424C300.252 298.125 301.413 299.818 302.587 301.504C302.859 301.893 303.134 302.259 303.011 302.771C304.432 303.018 305.607 303.678 306.404 304.902C307.36 306.366 308.295 307.844 309.234 309.318C311.364 312.656 313.499 315.993 315.623 319.337C317.58 322.421 319.56 325.49 321.472 328.601C322.174 329.744 322.911 330.856 323.634 331.981C324.925 333.985 324.911 333.995 324.435 336.288C324.414 336.387 324.428 336.493 324.424 336.599C324.925 337.05 325.338 337.576 325.663 338.165C326.312 339.344 327.045 340.462 327.822 341.562C328.562 342.617 329.261 343.707 329.91 344.822C330.982 346.653 332.203 348.378 333.41 350.117C334.203 351.26 334.916 352.463 335.583 353.684C336.108 354.64 336.645 355.571 337.403 356.365C338.112 357.106 338.825 357.836 339.343 358.743C339.629 359.244 340.13 359.544 340.747 359.604C341.104 359.639 341.453 359.791 341.809 359.805C343.513 359.879 345.185 360.217 346.872 360.401C347.997 360.521 349.144 360.493 350.279 360.493C352.297 360.489 354.287 360.785 356.284 361.004C356.439 361.022 356.591 361.064 356.742 361.064C358.912 361.053 361.071 361.212 363.233 361.413C365.495 361.625 367.777 361.59 370.032 361.805C372.459 362.034 374.886 361.925 377.299 362.119C379.878 362.327 382.471 362.196 385.032 362.433C388.133 362.719 391.223 362.641 394.32 362.687C395.35 362.701 396.374 362.729 397.407 362.867C398.681 363.036 399.982 362.997 401.274 362.839C401.835 362.768 402.402 362.712 402.967 362.704C405.189 362.676 407.412 362.669 409.634 362.655C409.79 362.655 409.955 362.616 410.097 362.659C411.448 363.057 412.869 362.881 414.238 363.149C414.739 363.248 415.265 363.265 415.78 363.265C419.759 363.272 423.742 363.265 427.721 363.258C429.267 363.258 430.716 362.796 431.941 361.907C433.549 360.739 434.435 358.725 433.786 356.549C433.398 355.254 432.727 354.104 431.74 353.13C429.609 351.02 427.422 348.985 425.019 347.182C424.031 346.441 423.146 345.57 422.035 344.988C421.431 344.67 420.856 344.406 420.165 344.328C417.604 344.043 415.05 343.721 412.495 343.383C409.74 343.016 406.989 342.596 404.23 342.236C402.187 341.972 400.131 341.788 398.088 341.531C396.197 341.291 394.313 340.998 392.429 340.726C391.512 340.592 390.588 340.543 389.667 340.395C387.632 340.074 385.571 339.926 383.529 339.668C381.638 339.428 379.754 339.142 377.87 338.864C376.953 338.73 376.029 338.687 375.108 338.536C373.178 338.215 371.22 338.073 369.28 337.819C367.238 337.555 365.202 337.244 363.163 336.962C361.53 336.736 359.9 336.465 358.259 336.334C357.437 336.271 357.028 335.886 356.813 335.195C356.707 334.856 356.707 334.486 356.658 334.129C356.114 333.932 355.927 333.438 355.702 332.972C354.689 330.88 353.68 328.788 352.661 326.7C350.107 321.454 347.549 316.208 344.995 310.962C344.815 310.592 344.649 310.211 344.476 309.837C344.254 309.347 344.261 308.863 344.37 308.331C344.744 306.524 345.041 304.704 345.418 302.901C345.538 302.333 345.355 302.037 344.896 301.769C344.363 301.455 343.869 301.074 343.347 300.742C342.822 300.414 342.3 300.051 341.679 299.945C339.996 299.659 338.885 298.71 338.26 297.144C338.109 296.763 337.897 296.403 337.717 296.029C335.96 292.406 334.27 288.748 332.298 285.231C332.097 284.871 331.903 284.501 331.755 284.116C331.519 283.495 331.367 282.892 331.441 282.172C331.596 280.641 331.565 279.092 331.61 277.551C331.663 275.805 331.716 274.058 331.78 272.312C331.812 271.487 331.783 271.423 330.968 271.395C330.143 271.367 329.314 271.388 328.488 271.367C327.663 271.342 326.841 271.282 326.015 271.257C325.394 271.236 325.013 270.961 324.675 270.404C322.251 266.421 320.35 262.18 318.455 257.936C318.304 257.601 318.173 257.273 318.247 256.896L318.251 256.892Z" fill="#F7BB92"/>
<path d="M238.41 162.16C237.471 162.411 236.794 163.004 236.201 163.755C235.63 164.482 235.009 165.173 234.377 165.85C230.747 169.72 227.107 173.58 223.477 177.446C220.478 180.639 217.462 183.81 214.505 187.038C213.01 188.675 211.461 190.249 209.799 191.72C209.224 192.228 208.723 192.824 208.187 193.378C208.247 193.515 208.307 193.653 208.367 193.79C208.448 193.921 208.508 194.076 208.618 194.179C210.635 196.115 211.807 198.599 213.045 201.033C213.419 201.767 213.659 202.568 214.043 203.298C215.172 205.443 216.347 207.563 217.497 209.697C217.864 210.378 218.259 211.052 218.555 211.765C219.547 214.153 220.841 216.393 221.9 218.746C222.828 220.813 223.702 222.909 224.606 224.987C224.81 225.459 225.043 225.922 225.269 226.384C225.498 226.846 225.685 227.315 225.805 227.827C225.943 228.423 226.207 228.994 226.408 229.576C226.609 230.158 226.807 230.744 226.994 231.333C227.057 231.527 227.05 231.753 227.138 231.933C227.953 233.612 228.179 235.492 228.959 237.182C229.001 237.277 229.065 237.369 229.079 237.468C229.382 239.518 230.402 241.366 230.772 243.398C230.966 244.464 231.619 245.388 231.778 246.474C231.986 247.914 232.695 249.198 233.062 250.595C233.57 252.532 234.187 254.444 234.751 256.366C234.914 256.92 235.175 257.418 235.524 257.873C235.563 257.841 235.616 257.816 235.644 257.774C238.628 253.509 241.613 249.24 244.59 244.972C247.099 241.377 249.589 237.771 252.105 234.177C256.334 228.133 260.571 222.097 264.808 216.061C266.406 213.782 267.923 211.444 269.677 209.277C270.326 208.477 270.957 207.665 271.395 206.72C271.352 206.198 270.932 205.93 270.608 205.616C269.352 204.388 268.216 203.058 267.14 201.668C266.509 200.853 265.814 200.095 265.136 199.315C263.549 197.488 261.933 195.685 260.381 193.829C259.393 192.644 258.508 191.374 257.566 190.153C256.024 188.157 254.475 186.167 252.923 184.174C251.78 182.706 250.753 181.157 249.833 179.545C248.647 177.478 247.113 175.661 245.772 173.71C245.628 173.499 245.451 173.308 245.31 173.089C243.437 170.193 241.461 167.357 239.944 164.242C239.567 163.466 239.211 162.64 238.417 162.153L238.41 162.16Z" fill="#F7BB92"/>
<path d="M318.25 256.892C318.173 257.269 318.307 257.597 318.459 257.933C320.353 262.176 322.251 266.417 324.678 270.4C325.017 270.954 325.398 271.232 326.019 271.253C326.844 271.282 327.666 271.342 328.492 271.363C329.317 271.388 330.146 271.363 330.972 271.391C331.79 271.419 331.815 271.483 331.783 272.308C331.716 274.055 331.667 275.801 331.614 277.547C331.568 279.089 331.6 280.637 331.444 282.168C331.37 282.888 331.522 283.491 331.758 284.112C331.907 284.497 332.101 284.867 332.302 285.227C334.274 288.744 335.963 292.403 337.72 296.026C337.9 296.396 338.108 296.756 338.264 297.14C338.888 298.707 339.999 299.656 341.682 299.941C342.299 300.047 342.825 300.411 343.351 300.739C343.876 301.067 344.367 301.451 344.899 301.765C345.358 302.033 345.541 302.33 345.421 302.898C345.044 304.7 344.748 306.521 344.374 308.327C344.264 308.86 344.257 309.343 344.48 309.833C344.649 310.211 344.815 310.588 344.998 310.959C347.552 316.204 350.11 321.45 352.664 326.696C353.68 328.785 354.693 330.877 355.705 332.968C355.931 333.434 356.118 333.925 356.661 334.126C357.151 333.932 357.638 333.738 358.129 333.54C358.291 333.212 358.524 333.088 358.869 333.279C359.247 333.067 359.621 332.856 359.995 332.644C360.118 332.309 360.351 332.192 360.697 332.284C360.983 332.097 361.268 331.91 361.554 331.727C361.678 331.381 361.91 331.258 362.263 331.381C362.708 330.958 363.075 330.45 363.699 330.245C363.886 330.182 364.069 330.058 364.218 329.92C366.144 328.146 368.091 326.389 369.495 324.138C369.985 323.355 370.501 322.586 371.001 321.81C371.337 321.292 371.608 320.745 371.788 320.145C371.936 319.658 372.144 319.182 372.363 318.72C372.649 318.117 372.945 317.531 373.009 316.839C373.062 316.268 373.344 315.771 373.665 315.294C373.951 314.871 374.205 314.426 374.473 313.993C373.989 313.918 373.704 313.657 373.803 313.149C373.912 312.596 374.092 312.066 374.081 311.481C374.053 309.724 374.074 307.967 374.071 306.21C374.071 305.9 374.078 305.586 374.021 305.282C373.584 303.014 373.026 300.774 372.134 298.636C371.696 297.592 371.326 296.481 370.677 295.574C369.541 293.99 368.751 292.177 367.333 290.776C366.239 289.697 365.361 288.406 364.299 287.291C363.628 286.589 362.828 286 362.034 285.439C360.266 284.193 358.45 283.019 356.686 281.773C355.666 281.054 354.618 280.44 353.405 280.098C352.816 279.932 352.272 279.6 351.715 279.336C351.249 279.113 350.801 278.87 350.255 278.87C350.008 278.87 349.732 278.803 349.514 278.686C348.551 278.168 347.39 278.274 346.441 277.702C346.282 277.607 346.035 277.649 345.831 277.649C345.365 277.649 344.917 277.551 344.462 277.459C343.005 277.166 341.53 276.958 340.063 276.707C338.902 276.51 337.734 276.326 336.581 276.09C335.822 275.935 335.082 275.716 334.295 275.776C333.928 275.804 333.586 275.691 333.251 275.536C332.788 275.321 332.496 275.007 332.499 274.474C332.499 273.698 332.478 272.922 332.51 272.149C332.542 271.416 332.813 271.151 333.589 271.137C334.933 271.109 336.277 271.137 337.618 271.126C338.084 271.126 338.571 271.176 339.004 271.056C340.687 270.594 342.395 270.901 344.088 270.841C345.623 271.38 347.249 271.063 348.826 271.38C350.427 271.701 352.054 271.955 353.662 272.262C355.066 272.53 356.52 272.707 357.772 273.504C357.815 273.532 357.868 273.55 357.917 273.554C359.381 273.691 360.478 274.637 361.628 275.37C363.53 276.587 365.325 277.974 367.142 279.321C367.925 279.904 368.814 280.45 369.354 281.223C370.222 282.458 371.358 283.428 372.275 284.613C373.668 286.419 374.889 288.314 375.905 290.342C376.685 291.898 377.366 293.5 377.817 295.204C378.332 297.151 378.77 299.095 378.724 301.123C378.706 301.899 378.692 302.675 378.727 303.448C378.801 304.954 378.516 306.418 378.191 307.872C378.078 308.373 378.177 308.913 377.888 309.378C377.394 310.179 377.429 311.05 377.542 311.932C380.706 311.188 383.007 309.325 384.481 306.464C386.012 303.494 386.901 300.34 387.134 296.989C387.332 294.142 387.395 291.302 386.788 288.504C386.284 286.187 385.677 283.474 384.58 281.35C383.606 279.47 383.13 278.327 382.156 276.45C381.426 275.039 379.641 272.933 378.36 272.033C375.669 269.394 373.245 269.161 370.239 267.941C366.429 266.396 353.68 263.475 352.29 263.305C351.574 263.217 350.875 263.013 350.166 262.875C349.203 262.688 341.4 261.273 339.678 260.931C338.768 260.751 325.878 258.465 321.729 257.633C320.565 257.4 319.408 257.135 318.247 256.885L318.25 256.892Z" fill="#7A4821"/>
<path d="M271.387 206.727C270.95 207.669 270.319 208.48 269.669 209.284C267.916 211.45 266.399 213.789 264.801 216.068C260.564 222.104 256.327 228.14 252.097 234.184C249.586 237.775 247.092 241.38 244.583 244.979C241.606 249.247 238.621 253.516 235.637 257.781C235.609 257.82 235.559 257.848 235.517 257.88C235.425 259.121 235.662 260.346 235.75 261.577C235.806 262.346 235.986 263.108 236.124 263.866C236.459 265.711 237.189 267.415 238.008 269.087C239.126 271.37 240.562 273.437 242.287 275.296C243.765 276.891 245.398 278.323 247.123 279.632C249.794 281.653 252.778 283.019 256.119 283.555C257.904 283.841 259.672 284.218 261.485 284.278C262.102 284.299 262.727 284.363 263.341 284.313C265.249 284.162 267.165 284.13 269.073 284.19C271.881 284.278 274.637 283.939 277.378 283.375C279.805 282.874 282.242 282.44 284.67 281.939C285.615 281.745 286.649 281.682 287.248 280.729C287.185 280.313 287.061 279.935 286.737 279.632C286.359 279.283 286.045 278.852 285.643 278.535C283.484 276.852 281.985 274.615 280.51 272.375C278.118 268.742 276.044 264.942 274.749 260.758C274.428 259.718 274.188 258.67 274.132 257.576C274.072 256.342 273.927 255.107 273.867 253.872C273.786 252.115 273.793 250.362 274.146 248.626C274.382 247.462 274.534 246.284 274.799 245.127C275.762 240.967 277.776 237.302 280.426 234.025C282.281 231.728 284.627 229.911 287.21 228.437C287.926 228.028 288.645 227.618 289.33 227.16C289.725 226.895 290.145 226.719 290.582 226.567C291.076 226.394 291.549 226.193 291.866 225.749C290.261 224.362 288.547 223.124 286.811 221.917C283.964 219.938 281.219 217.836 278.768 215.37C277.78 214.379 276.88 213.317 276.058 212.184C275.056 210.805 274.033 209.44 272.978 208.103C272.545 207.549 272.185 206.864 271.38 206.72L271.387 206.727Z" fill="#8A8AD9"/>
<path d="M98.9282 348.29C98.4414 348.357 97.9546 348.48 97.4677 348.48C94.5644 348.494 91.6504 348.636 88.7611 348.438C85.6108 348.223 82.4676 348.247 79.3279 348.318C77.3664 348.364 75.4014 348.508 73.4365 348.494C72.7486 348.491 72.0606 348.459 71.3692 348.441C71.0129 348.473 70.6601 348.505 70.3038 348.537C69.9757 349.57 69.5876 350.576 69.1396 351.564C68.7127 352.502 68.3882 353.493 68.0107 354.453C67.6121 355.462 67.2099 356.471 66.7972 357.476C65.9893 359.445 65.1814 361.413 64.8639 363.544C64.684 364.754 64.9768 365.922 65.2202 367.089C65.693 369.34 66.9524 371.167 68.3282 372.931C68.7657 373.492 69.3724 373.849 69.9298 374.237C71.0587 375.027 72.3005 375.708 73.6269 376.001C74.7594 376.247 75.9377 376.42 77.1265 376.417C82.1995 376.396 87.2689 376.417 92.3419 376.424C92.9804 376.424 93.6119 376.413 94.2433 376.597C94.6596 376.717 95.1218 376.685 95.5627 376.685C102.851 376.695 110.136 376.695 117.424 376.713C118.416 376.713 119.358 376.498 120.324 376.322C122.138 375.993 123.365 374.822 124.667 373.7C125.26 373.189 125.485 372.466 125.838 371.831C126.699 370.278 127.154 368.55 126.801 366.793C126.491 365.251 125.986 363.738 124.85 362.521C123.654 361.237 122.335 360.189 120.716 359.49C119.598 359.007 118.564 358.319 117.484 357.734C115.678 356.753 113.826 355.846 112.073 354.781C110.559 353.86 108.901 353.211 107.469 352.156C107.271 352.012 107.06 351.878 106.841 351.772C104.887 350.862 102.961 349.895 101.126 348.752C100.925 348.628 100.664 348.604 100.431 348.533C99.9407 348.392 99.4609 348.184 98.9318 348.293L98.9282 348.29Z" fill="#F7BC94"/>
<path d="M377.545 311.936C377.432 311.055 377.397 310.183 377.891 309.382C378.177 308.917 378.081 308.377 378.194 307.876C378.519 306.423 378.804 304.962 378.73 303.452C378.692 302.68 378.709 301.903 378.727 301.127C378.773 299.099 378.335 297.155 377.82 295.208C377.372 293.507 376.688 291.906 375.908 290.346C374.892 288.318 373.672 286.424 372.278 284.617C371.361 283.432 370.225 282.458 369.357 281.227C368.814 280.454 367.928 279.908 367.145 279.326C365.328 277.978 363.533 276.592 361.631 275.374C360.481 274.637 359.384 273.692 357.92 273.558C357.871 273.554 357.818 273.533 357.775 273.508C356.523 272.711 355.07 272.535 353.665 272.267C352.057 271.96 350.43 271.706 348.829 271.385C347.248 271.071 345.622 271.385 344.091 270.845C342.398 270.905 340.694 270.598 339.008 271.06C338.57 271.18 338.083 271.127 337.621 271.131C336.277 271.138 334.933 271.116 333.592 271.141C332.816 271.155 332.545 271.42 332.513 272.154C332.478 272.926 332.502 273.702 332.502 274.478C332.502 275.015 332.795 275.325 333.254 275.54C333.589 275.699 333.928 275.808 334.298 275.78C335.085 275.72 335.825 275.939 336.584 276.094C337.738 276.331 338.905 276.514 340.066 276.712C341.533 276.958 343.004 277.17 344.465 277.463C344.924 277.555 345.368 277.65 345.834 277.653C346.038 277.653 346.289 277.611 346.444 277.706C347.393 278.278 348.554 278.168 349.517 278.691C349.736 278.807 350.007 278.874 350.258 278.874C350.801 278.874 351.252 279.117 351.718 279.34C352.276 279.604 352.819 279.936 353.408 280.102C354.621 280.444 355.669 281.058 356.689 281.777C358.453 283.026 360.269 284.197 362.037 285.443C362.834 286.004 363.635 286.593 364.302 287.295C365.364 288.41 366.242 289.701 367.336 290.78C368.757 292.184 369.544 293.994 370.68 295.578C371.329 296.481 371.699 297.596 372.137 298.64C373.029 300.778 373.587 303.018 374.024 305.287C374.081 305.586 374.074 305.904 374.074 306.214C374.077 307.971 374.056 309.728 374.084 311.485C374.095 312.07 373.915 312.6 373.806 313.154C373.703 313.662 373.993 313.919 374.476 313.997C375.502 313.312 376.533 312.624 377.559 311.94L377.545 311.936Z" fill="#5C3717"/>
<path d="M324.421 336.592C324.421 336.489 324.41 336.383 324.432 336.281C324.908 333.985 324.925 333.978 323.631 331.974C322.908 330.848 322.167 329.737 321.468 328.594C319.56 325.483 317.581 322.413 315.619 319.33C313.495 315.989 311.361 312.652 309.23 309.311C308.288 307.837 307.354 306.358 306.401 304.894C305.6 303.667 304.429 303.011 303.007 302.764C302.609 303.074 302.499 303.533 302.379 303.984C302.468 305.141 302.933 306.168 303.537 307.135C303.861 307.657 304.235 308.151 304.563 308.669C306.32 311.446 308.063 314.229 309.823 317.002C310.867 318.649 311.933 320.283 312.998 321.916C313.143 322.138 313.238 322.364 313.256 322.629C313.439 322.861 313.637 323.087 313.799 323.334C314.173 323.906 314.72 324.382 314.811 325.116C314.974 325.416 315.136 325.715 315.298 326.015C315.845 326.28 316.057 326.83 316.356 327.292C317.831 329.578 319.274 331.886 320.742 334.175C321.235 334.948 321.775 335.696 322.29 336.454C322.992 336.655 323.705 336.726 324.428 336.595L324.421 336.592Z" fill="#DEA881"/>
<path d="M313.252 322.629C313.238 322.368 313.142 322.138 312.994 321.916C311.929 320.283 310.864 318.649 309.819 317.002C308.059 314.229 306.316 311.446 304.559 308.669C304.231 308.147 303.857 307.657 303.533 307.135C302.933 306.168 302.467 305.141 302.376 303.984C302.093 304.14 301.91 304.39 301.79 304.676C301.226 305.995 300.654 307.308 300.372 308.726C300.298 309.086 300.259 309.428 300.361 309.784C301.197 312.627 302.573 315.178 304.528 317.408C304.623 317.517 304.782 317.573 304.912 317.651C305.769 317.609 306.313 318.219 306.937 318.649C308.669 319.845 310.394 321.048 312.105 322.276C312.465 322.533 312.829 322.646 313.255 322.625L313.252 322.629Z" fill="#F7BD96"/>
<path d="M322.283 336.45C321.764 335.692 321.228 334.944 320.734 334.171C319.266 331.882 317.824 329.575 316.349 327.289C316.049 326.827 315.837 326.276 315.291 326.012C315.097 326.361 315.188 326.693 315.319 327.042C315.77 328.245 315.972 329.501 316.081 330.778C316.155 331.642 316.285 332.499 316.42 333.357C316.642 334.764 317.481 335.72 318.825 336.055C319.944 336.334 321.087 336.708 322.283 336.454V336.45Z" fill="#F6BE97"/>
<path d="M313.252 322.629C312.829 322.65 312.465 322.537 312.102 322.279C310.391 321.052 308.666 319.849 306.934 318.653C306.313 318.222 305.77 317.612 304.909 317.654C305.918 319.126 307.308 320.191 308.722 321.217C310.264 322.336 311.855 323.384 313.421 324.467C313.845 324.759 314.261 325.07 314.801 325.116C314.709 324.382 314.162 323.909 313.788 323.334C313.626 323.087 313.428 322.865 313.245 322.629H313.252Z" fill="#F6BE97"/>
<path d="M362.253 331.378C361.9 331.254 361.667 331.378 361.544 331.724C362.059 331.942 362.101 331.921 362.253 331.378Z" fill="#F7BB92"/>
<path d="M360.687 332.281C360.344 332.185 360.108 332.305 359.984 332.64C360.531 332.866 360.542 332.863 360.687 332.281Z" fill="#F7BB92"/>
<path d="M358.858 333.275C358.513 333.088 358.28 333.212 358.118 333.536C358.615 333.801 358.661 333.783 358.858 333.275Z" fill="#F7BB92"/>
</svg>
