<svg width="500" height="500" viewBox="0 0 500 500" fill="none" xmlns="http://www.w3.org/2000/svg">
<path d="M276.042 104.779C275.702 105.422 275.361 106.064 275.011 106.727C274.068 109.679 273.945 111.268 274.091 114.285C274.523 124.306 274.523 124.306 272.996 129.145C269.397 132.681 265.368 134.342 260.808 136.279C241.683 145.614 222.78 165.666 220.203 187.014C219.967 191.208 219.961 195.379 220.013 199.578C220.023 201.239 220.023 201.239 220.033 202.934C220.105 210.522 220.308 219.772 221.148 227.318C241.82 227.057 260.392 226.864 281.047 227.318C289.487 247.402 288.207 277.659 284.666 298.694C283.124 308.173 282.908 317.396 282.852 326.979C282.713 344.589 281.135 361.09 277.727 378.385C276.572 384.514 275.683 390.683 274.773 396.852C274.453 399.014 274.131 401.175 273.805 403.336C273.673 404.232 273.54 405.128 273.404 406.051C272.996 408.337 272.996 408.337 271.981 411.383C263.605 411.383 255.229 411.383 246.6 411.383C245.757 398.373 245.395 385.438 245.396 372.403C245.394 369.321 245.376 366.239 245.357 363.157C245.323 351.328 245.966 339.807 247.39 328.068C247.87 323.87 248.081 319.662 248.25 315.442C248.286 314.57 248.322 313.698 248.36 312.8C248.462 310.127 248.549 307.455 248.63 304.782C248.659 303.906 248.689 303.03 248.719 302.128C248.901 296.022 248.837 266.868 239.287 267.325C220.186 267.84 205.806 260.129 192.222 247.309C182.705 238.115 178.346 225.974 178.015 212.899C178.012 211.916 178.01 210.933 178.007 209.92C178.005 209.015 178.003 208.11 178 207.178C178.368 191.945 182.123 178.069 187.592 163.962C188.55 161.48 189.476 158.988 190.399 156.493C191.011 154.882 191.625 153.272 192.241 151.663C192.646 150.567 192.646 150.567 193.059 149.448C196.232 141.396 200.592 136.342 208.549 132.817C209.382 132.47 210.216 132.124 211.074 131.767C211.959 131.381 212.843 130.995 213.755 130.598C216.616 129.355 219.488 128.14 222.361 126.924C224.332 126.075 226.303 125.224 228.274 124.371C232.198 122.676 236.127 120.992 240.061 119.318C244.957 117.234 249.84 115.121 254.718 112.996C264.496 108.75 264.496 108.75 269.129 106.766C270.483 106.185 270.483 106.185 271.864 105.592C274.011 104.779 274.011 104.779 276.042 104.779Z" fill="#686C64"/>
<path d="M306.499 91.5816C306.978 106.668 306.978 106.668 302.121 112.838C299.392 114.932 299.392 114.932 296.91 115.733C293.497 117.351 292.559 119.233 290.699 122.483C286.857 129.148 286.857 129.148 283.148 131.176C280.789 131.287 280.789 131.287 278.389 130.922C277.59 130.812 276.79 130.702 275.966 130.589C274.011 130.161 274.011 130.161 272.996 129.146C272.712 126.045 272.76 122.929 272.742 119.818C272.721 118.954 272.7 118.089 272.679 117.199C272.646 112.004 272.841 108.082 276.042 103.764C278.459 102.047 281.016 100.845 283.719 99.64C285.186 98.953 286.652 98.2656 288.117 97.5778C289.187 97.0871 289.187 97.0871 290.277 96.5864C293.723 94.9667 297.052 93.1194 300.392 91.2921C302.843 90.4226 304.085 90.7173 306.499 91.5816Z" fill="#F6BB92"/>
<path d="M246.6 411.383C254.976 411.383 263.351 411.383 271.981 411.383C272.651 414.084 273.321 416.785 274.011 419.568C274.223 420.405 274.435 421.241 274.654 422.103C275.763 426.698 276.705 431.009 276.042 435.749C273.064 438.86 269.988 438.998 265.878 439.199C263.957 439.207 262.036 439.199 260.115 439.175C258.65 439.193 258.65 439.193 257.155 439.211C255.756 439.205 255.756 439.205 254.329 439.199C253.054 439.194 253.054 439.194 251.753 439.188C251.057 439.058 250.362 438.928 249.646 438.794C245.837 433.081 246.463 426.219 246.536 419.568C246.557 416.867 246.578 414.166 246.6 411.383Z" fill="#F6BB92"/>
<path d="M277.718 198.833C272.554 196.982 267.421 195.04 262.214 193.31C258.56 192.096 255.624 190.195 253.937 185.775C251.229 192.866 244.703 193.268 239.338 195.545C235.395 197.222 230.997 197.744 227.372 200.234C219.367 201.895 211.886 205.176 204.232 207.88C195.482 210.971 187.101 205.599 185.375 197.594C184.515 193.611 185.873 190.076 187.395 186.559C193.337 172.817 199.364 159.114 205.213 145.332C207.724 139.419 211.946 135.655 218.139 134.311C221.344 133.617 224.682 133.914 227.96 134.211C226.559 143.434 225.284 152.678 223.028 161.746C219.715 168.172 216.968 174.83 214.081 182.243C218.458 180.979 221.957 179.966 225.456 178.956C230.438 178.315 234.36 176.488 235.567 170.922C236.029 168.788 237.121 166.739 238.188 164.798C242.225 157.463 249.399 156.216 254.091 161.943C258.342 156.993 264.169 157.226 268.173 162.498C270.19 165.152 271.465 168.265 272.321 171.352C273.707 176.352 276.923 178.246 281.665 178.486C285.243 180.073 288.946 181.122 293.627 181.556C290.372 174.851 288.413 168.336 284.874 162.502C282.611 153.147 281.343 143.613 279.903 134.114C286.045 133.642 292.034 133.943 297.352 137.599C302.965 143.333 304.662 151.13 307.936 158.068C312.305 167.33 316.152 176.835 320.199 186.248C321.234 188.658 322.373 191.065 322.556 193.73C323.229 203.6 313.981 211.433 303.387 207.748C294.834 204.771 286.274 201.806 277.718 198.837V198.833Z" fill="#F7BB92"/>
<path d="M279.729 134.051C281.169 143.553 282.437 153.084 284.7 162.442C283.629 167.772 282.562 173.097 281.491 178.427C276.746 178.187 273.529 176.292 272.147 171.292C271.291 168.205 270.016 165.096 267.999 162.439C263.995 157.167 258.168 156.934 253.917 161.883C249.225 156.157 242.051 157.403 238.015 164.738C236.947 166.679 235.855 168.728 235.393 170.862C234.186 176.428 230.268 178.255 225.282 178.896C224.473 173.162 223.663 167.424 222.857 161.686C225.114 152.618 226.389 143.374 227.789 134.151C232.456 134.08 237.123 134.008 241.79 133.937C245.629 141.888 249.465 149.835 253.702 158.61C257.996 149.728 261.814 141.83 265.632 133.933C267.699 133.908 269.769 133.886 271.835 133.861C274.468 133.926 277.097 133.99 279.729 134.055V134.051Z" fill="#8A8AD9"/>
<path d="M241.941 127.654C235.656 120.938 234.56 112.504 234.076 103.869C234.714 103.263 234.832 102.44 234.699 101.684C234.144 98.5394 235.874 97.4577 238.413 95.8926C248.578 89.6213 258.442 88.8369 268.513 95.821C269.355 96.4048 270.422 96.6698 271.392 97.053C272.395 97.447 272.646 98.303 272.796 99.2342C272.718 100.796 272.585 102.354 272.564 103.915C272.453 112.235 271.654 120.347 265.791 126.977C257.911 129.699 249.957 129.871 241.938 127.657L241.941 127.654Z" fill="#F7BB92"/>
<path d="M242.354 67.7254C241.996 67.1881 241.96 66.5434 241.96 65.8988C242.032 63.0335 242.927 60.5263 245.148 58.6281C248.084 56.121 251.451 54.939 255.248 55.2972C259.438 55.6912 262.483 57.8401 264.202 61.7441C265.026 63.5707 265.24 65.469 264.99 67.4388C264.882 67.4388 264.811 67.4388 264.739 67.4747C262.984 67.403 261.265 66.9016 259.474 67.0449C259.295 67.0449 259.116 67.0449 258.973 66.9374C258.328 66.6509 257.612 66.6867 256.931 66.7225C253.636 66.83 250.341 66.5076 247.046 67.0091C245.47 67.2598 243.894 67.403 242.354 67.7254Z" fill="#7A4821"/>
<path d="M242.354 67.7259C243.895 67.4036 245.506 67.2603 247.046 67.0096C250.341 66.4723 253.637 66.8305 256.932 66.723C257.612 66.723 258.293 66.6514 258.973 66.9379C259.116 67.0096 259.296 67.0454 259.475 67.0454C261.265 66.9021 262.985 67.4036 264.74 67.4752C264.704 67.7259 264.74 67.9408 264.954 68.0841C264.954 68.9795 264.596 69.7316 264.417 70.5554C264.274 71.2001 263.916 71.8447 264.238 72.5611C261.838 72.0955 259.367 72.2387 256.932 72.2029C256.753 72.2029 256.573 72.2029 256.43 72.2029C254.604 71.6657 252.705 71.9522 250.843 71.8806C250.234 71.8806 249.589 71.8447 248.98 72.0955C248.873 72.1313 248.766 72.1671 248.658 72.1671C246.903 72.0238 245.184 72.6327 243.429 72.5611C243.501 72.0596 243.393 71.594 243.214 71.0926C242.82 69.9823 242.355 68.9078 242.39 67.7259H242.354Z" fill="#62350F"/>
<path d="M264.956 68.0841C264.741 67.9409 264.705 67.726 264.741 67.4753C264.812 67.4753 264.92 67.4395 264.991 67.4395C265.135 67.6543 265.099 67.8693 264.92 68.0841H264.956Z" fill="#6A6C64"/>
<path d="M272.799 99.2266C272.294 98.5103 271.775 98.034 270.937 97.4681C270.098 96.9022 269.354 96.3972 268.512 95.8134C258.444 88.8329 248.577 89.6173 238.412 95.885C235.873 97.4502 234.143 98.5318 234.698 101.676C234.831 102.432 234.713 103.256 234.075 103.861C233.635 101.01 233.251 98.1521 232.739 95.312C229.91 79.6427 242.055 67.1394 257.771 69.6286C266.474 71.0029 272.922 78.3057 274.593 86.752C275.428 90.9711 275.85 95.4302 272.795 99.2266H272.799Z" fill="#7A4821"/>
<path d="M265.426 131.607C265.494 132.381 265.565 133.154 265.633 133.928C261.816 141.825 257.998 149.723 253.703 158.605C249.47 149.834 245.63 141.883 241.791 133.932C241.852 133.136 241.916 132.345 241.977 131.55C249.789 133.842 257.604 133.713 265.422 131.604L265.426 131.607Z" fill="#F7BB92"/>
<path d="M265.425 131.607C257.603 133.713 249.788 133.846 241.98 131.553C241.969 130.253 241.955 128.953 241.944 127.653C249.963 129.867 257.918 129.695 265.798 126.973C265.676 128.52 265.55 130.064 265.429 131.611L265.425 131.607Z" fill="#DEA882"/>
<path d="M277.195 205.49C277.235 213.018 278.666 220.434 280.776 227.499L220.404 227.518C222.625 220.724 224.33 212.802 225.975 205.49H277.195Z" fill="#F7BB92"/>
<path d="M253.764 185.706C255.454 190.126 258.388 192.028 262.041 193.242C267.245 194.972 272.381 196.913 277.545 198.765C277.292 201.012 277.184 203.256 277.195 205.49H225.967C226.371 203.713 226.777 201.936 227.199 200.165C230.824 197.676 235.222 197.153 239.165 195.477C244.53 193.199 251.052 192.798 253.764 185.706Z" fill="#8A8AD9"/>
</svg>
