<svg width="500" height="500" viewBox="0 0 500 500" fill="none" xmlns="http://www.w3.org/2000/svg">
<path d="M204.15 247.717C203.221 247.795 202.291 247.906 201.362 247.945C196.7 248.125 192.034 248.228 187.372 248.456C179.917 248.826 172.463 249.274 165.008 249.683C161.826 249.858 158.639 250.033 155.456 250.193C147.612 250.578 139.764 250.938 131.92 251.332C123.064 251.78 114.213 252.257 105.356 252.729C103.337 252.836 101.323 252.987 99.2983 253.069C98.3495 253.108 97.4492 253.327 96.5588 253.604C92.087 255.011 87.8244 256.855 84.0095 259.648C82.1167 261.035 80.36 262.558 78.837 264.339C76.7057 266.83 74.8615 269.516 73.2168 272.348C72.3069 273.91 71.6694 275.589 71.2996 277.336C70.6719 280.304 70.2486 283.297 70.2388 286.352C70.2291 290.328 70.4432 294.274 71.0417 298.206C71.796 303.184 73.8153 307.563 76.9684 311.446C77.7518 312.41 78.5888 313.334 79.4063 314.273C80.9537 316.04 82.7249 317.538 84.7297 318.774C86.0532 319.592 87.328 320.487 88.5835 321.407C91.9896 323.888 95.6927 325.874 99.4005 327.849C109.853 333.416 120.65 338.185 132.022 341.557C136.265 342.817 140.586 343.814 144.863 344.977C147.335 345.649 149.783 346.423 152.25 347.123C157.043 348.481 161.933 349.386 166.843 350.194C172.443 351.113 178.078 351.804 183.728 352.354C194.423 353.395 205.152 353.95 215.882 353.308C221.56 352.967 227.224 352.958 232.903 352.972C239.516 352.987 246.129 352.962 252.737 352.919C254.595 352.904 256.469 352.88 258.284 352.378C258.201 350.053 258.045 347.731 258.04 345.406C258.006 330.574 258.026 315.743 257.977 300.911C257.963 296.328 258.347 291.768 258.43 287.189C257.967 286.79 257.461 286.435 257.057 285.987C255.826 284.62 254.26 283.778 252.634 283.009C251.72 282.576 250.776 282.211 249.87 281.764C246.08 279.895 242.095 278.62 237.968 277.73C236.762 277.467 235.482 277.511 234.343 276.942C233.088 277.054 231.949 277.511 230.825 278.041C227.672 279.53 224.636 281.233 221.633 283.005C219.585 284.211 217.38 284.8 214.996 284.786C212.043 284.766 209.386 283.788 206.865 282.353C206.335 282.051 205.897 281.564 205.225 281.545C201.298 283.525 198.272 286.411 196.384 290.42C195.863 291.53 194.973 292.002 193.815 292.109C191.503 292.318 189.192 292.537 186.881 292.751C183.105 293.097 179.314 293.345 175.553 293.817C173.548 294.07 171.563 294.274 169.543 294.177C168.38 294.196 167.174 294.041 166.059 294.279C164.901 294.527 163.763 294.61 162.6 294.644C162.288 294.654 161.972 294.663 161.675 294.732C159.792 295.179 157.855 295.286 155.953 295.598C154.42 295.846 152.882 295.987 151.345 296.157C149.505 296.362 147.685 296.804 145.846 296.921C143.909 297.043 142.007 297.383 140.075 297.539C137.545 297.744 135.034 298.293 132.479 298.391C132.173 298.4 131.871 298.493 131.564 298.537C129.808 298.79 128.056 299.091 126.29 299.267C125.287 299.369 124.3 299.442 123.307 299.666C121.779 300.011 120.008 298.975 119.76 297.719C119.497 296.371 119.818 294.308 121.94 293.963C122.397 293.89 122.854 293.685 123.302 293.71C125.487 293.822 127.594 292.985 129.784 293.189C130.08 293.218 130.416 293.16 130.698 293.048C131.521 292.722 132.382 292.809 133.229 292.746C135.389 292.586 137.593 292.605 139.691 292.153C141.832 291.69 144.051 292.114 146.133 291.364C148.24 291.52 150.269 290.678 152.381 290.848C152.605 290.868 152.838 290.771 153.067 290.741C155.291 290.479 157.51 290.114 159.738 289.982C161.904 289.856 164.03 289.282 166.215 289.418C166.434 289.432 166.667 289.321 166.886 289.243C168.093 288.8 169.173 289.092 170.19 289.793C170.57 290.055 170.974 290.279 171.368 290.522C171.597 290.503 171.84 290.532 172.054 290.459C177.032 288.746 182.073 287.194 186.959 285.248C192.355 283.097 197.751 280.98 203.303 279.258C203.697 278.061 203.775 276.825 203.795 275.579C203.804 274.801 203.843 274.027 203.902 273.253C204.15 269.93 204.447 266.606 204.656 263.283C204.894 259.487 205.06 255.687 205.264 251.892C205.279 251.58 205.303 251.269 205.371 250.967C205.605 249.97 205.595 248.962 205.522 247.955C205.269 247.863 205.016 247.77 204.763 247.678C204.564 247.687 204.364 247.697 204.165 247.712L204.15 247.717Z" fill="#696D65"/>
<path d="M349.273 222.697C348.557 222.687 348.168 222.171 347.779 221.695C344.932 218.201 342.105 214.693 339.263 211.194C336.714 208.06 334.159 204.931 331.604 201.803C330.87 200.898 330.115 200.007 329.39 199.097C326.373 195.307 322.792 192.076 319.22 188.84C318.067 187.798 316.88 186.796 315.697 185.794C313.046 183.55 309.883 182.524 306.642 181.696C303.834 180.976 300.978 181.015 298.088 181.463C296.093 181.769 294.088 181.959 292.151 182.558C289.991 183.229 287.923 184.066 286.025 185.336C283.679 186.908 281.587 188.723 279.86 190.971C278.536 192.694 277.086 194.324 275.733 196.027C273.213 199.199 271.145 202.683 268.902 206.046C262.469 215.68 256.094 225.354 249.705 235.022C249.107 235.928 248.513 236.828 248.1 237.854C247.073 240.395 246.956 242.983 247.428 245.64C247.535 246.253 247.598 246.871 247.686 247.484C249.501 246.599 251.141 247.114 252.688 248.161C253.068 248.418 253.384 248.774 253.715 249.1C258.318 253.698 262.916 258.296 267.515 262.895C267.734 263.114 267.962 263.328 268.162 263.561C269.091 264.656 269.412 265.795 268.649 267.172C267.709 268.86 266.907 270.627 266.021 272.344C265.773 272.821 265.422 273.245 265.155 273.712C264.693 274.519 263.997 274.928 263.087 275.006C263.967 276.427 265.228 277.444 266.619 278.31C267.807 279.045 268.936 278.982 270.065 278.12C272.361 276.369 274.371 274.315 276.361 272.237C277.826 270.714 278.453 269.006 277.636 266.933C277.466 266.505 277.436 266.023 277.305 265.581C276.269 262.165 275.266 258.739 274.162 255.348C273.816 254.292 273.845 253.489 274.478 252.525C277.008 248.706 279.456 244.832 281.913 240.964C286.448 233.811 291.587 227.076 296.302 220.05C297.616 218.094 297.723 218.186 299.255 219.953C299.508 220.245 299.718 220.575 299.961 220.877C302.54 224.079 305.065 227.329 307.819 230.39C309.167 231.889 310.491 233.417 311.819 234.94C313.654 237.047 315.479 239.163 317.318 241.266C318.695 242.842 320.13 244.38 321.468 245.99C324.991 250.224 328.48 254.496 331.984 258.749C332.48 259.347 332.991 259.936 333.137 260.739C334.597 261.532 335.259 263.021 336.207 264.252C337.677 264.101 338.499 265.016 339.142 266.121C339.726 267.123 340.139 268.223 340.747 269.206C342.874 272.636 344.416 276.359 346.29 279.916C346.591 280.49 346.703 281.084 346.625 281.711C346.441 283.195 344.864 283.911 343.686 282.981C342.426 281.989 340.976 281.181 340.222 279.638C340.027 279.239 339.599 278.957 339.278 278.621C338.1 277.4 336.801 276.291 335.901 274.816C335.716 274.51 335.317 274.33 335.015 274.091C334.869 275.867 334.597 277.648 334.611 279.424C334.636 282.835 334.947 286.232 335.375 289.623C335.745 292.567 336.358 295.438 337.341 298.226C338.499 301.521 340.553 304.051 343.745 305.589C344.514 305.958 345.258 306.396 346.051 306.713C349.929 308.245 353.885 308.693 357.861 307.175C363.598 304.985 367.68 301.005 370.016 295.326C371.495 291.73 372.517 287.979 373.218 284.154C373.651 281.794 374.035 279.405 374.186 277.016C374.464 272.588 374.293 268.155 374.215 263.722C374.211 263.333 374.201 262.938 374.138 262.559C373.554 258.953 372.765 255.396 371.447 251.971C371.116 251.104 370.8 250.229 370.478 249.362C370.415 249.319 370.337 249.289 370.289 249.231C368.07 246.565 365.865 243.883 363.627 241.236C363.082 240.594 362.863 239.913 362.96 239.105C362.206 239.402 361.817 238.886 361.423 238.404C357.71 233.85 354.002 229.29 350.275 224.746C349.774 224.132 349.35 223.514 349.287 222.707L349.273 222.697Z" fill="#FFB68A"/>
<path d="M336.207 264.252C335.254 263.016 334.592 261.527 333.132 260.739C332.801 260.948 332.466 261.138 332.149 261.362C327.828 264.388 323.546 267.473 319.186 270.437C312.452 275.02 305.751 279.653 298.895 284.061C296.71 285.468 294.423 286.12 291.903 286.207C289.115 286.305 286.351 286.811 283.548 286.762C283.266 286.762 282.974 286.957 282.692 287.059C282.862 287.317 283.071 287.555 283.198 287.837C284.677 291.093 286.151 294.343 287.611 297.608C290.088 303.141 292.545 308.678 295.022 314.206C296.608 317.753 298.234 321.281 299.815 324.828C302.092 329.938 304.374 335.042 306.593 340.176C307.732 342.808 309.153 345.329 309.912 348.122C311.464 348.102 312.997 347.942 314.515 347.621C318.763 346.715 323.001 345.786 327.254 344.896C328.694 344.594 330.154 344.365 331.614 344.171C332.217 344.093 332.865 344.112 333.468 344.229C338.752 345.265 343.813 344.55 348.698 342.37C351.983 340.905 354.937 338.93 357.705 336.633C363.238 332.045 367.335 326.327 370.785 320.113C374.42 313.564 377.067 306.615 378.969 299.37C379.719 296.518 380.575 293.706 381.008 290.776C381.213 289.399 381.159 287.974 381.67 286.645C381.69 285.098 381.665 283.55 381.981 282.013C382.152 281.19 382.166 280.285 382.006 279.463C381.597 277.38 381.748 275.288 381.69 273.196C381.66 272.111 381.714 271.006 381.548 269.94C380.838 265.42 379.763 260.977 378.288 256.642C377.51 254.36 376.532 252.165 375.004 250.262C374.342 250.058 373.68 249.854 373.018 249.649C372.172 249.552 371.325 249.455 370.478 249.357C370.8 250.228 371.116 251.099 371.447 251.966C372.765 255.386 373.549 258.943 374.138 262.554C374.201 262.933 374.206 263.328 374.215 263.717C374.298 268.15 374.468 272.587 374.186 277.011C374.035 279.4 373.651 281.789 373.218 284.149C372.517 287.974 371.495 291.725 370.016 295.321C367.68 301.005 363.598 304.98 357.861 307.17C353.885 308.688 349.929 308.24 346.051 306.708C345.258 306.396 344.514 305.953 343.745 305.584C340.553 304.051 338.499 301.52 337.341 298.221C336.358 295.428 335.745 292.562 335.375 289.618C334.947 286.227 334.631 282.83 334.611 279.419C334.602 277.643 334.874 275.862 335.015 274.086C334.937 270.748 335.614 267.503 336.217 264.247L336.207 264.252Z" fill="#8A8ADE"/>
<path d="M373.009 249.65C373.671 249.854 374.333 250.058 374.994 250.263C377.622 249.324 380.245 248.375 382.877 247.45C389.466 245.139 396.054 242.828 402.648 240.536C403.631 240.195 404.38 239.679 405.037 238.823C407.441 235.68 410.029 232.682 412.37 229.495C413.791 227.563 415.499 226.59 417.849 226.064C424.199 224.644 430.486 222.936 436.797 221.34C437.142 220.872 437.167 220.337 437.128 219.787C436.855 216.138 436.271 212.547 435.138 209.063C434.529 207.199 433.542 205.52 432.388 203.958C425.182 194.183 415.504 189.691 403.378 190.572C401.446 190.713 399.543 191.137 397.67 191.643C397.135 191.789 396.619 191.944 396.142 191.506C396.059 191.905 395.894 192.188 395.466 192.353C394.093 192.888 392.726 193.433 391.393 194.046C388.142 195.55 385.13 197.487 382.279 199.613C379.568 201.632 376.722 203.564 374.775 206.464C373.997 207.627 373.286 208.819 372.561 210.007C369.749 214.615 367.676 219.5 366.727 224.833C366.547 225.85 366.435 225.923 365.345 225.967C364.878 225.987 364.411 225.987 363.949 225.967C362.406 225.909 362.153 225.602 362.061 223.982C361.988 222.722 362.333 221.529 362.494 220.308C363.151 215.223 365.073 210.605 367.608 206.211C368.732 204.265 370.138 202.523 371.525 200.757C374.143 197.428 377.257 194.684 380.663 192.231C382.819 190.679 385.247 189.628 387.612 188.46C389.845 187.356 392.215 186.65 394.682 186.29C394.371 184.071 393.101 182.441 391.368 181.161C388.074 178.724 384.327 177.565 380.245 177.692C376.62 177.804 373.257 178.85 370.138 180.777C365.053 183.925 361.375 188.378 358.197 193.321C355.185 198.012 353.39 203.219 351.818 208.508C350.441 213.136 349.638 217.875 349.278 222.692C349.341 223.5 349.764 224.118 350.266 224.731C353.993 229.276 357.701 233.835 361.414 238.39C361.808 238.876 362.197 239.387 362.951 239.091C363.521 238.161 364.061 237.217 364.664 236.317C365.253 235.436 365.584 234.375 366.547 233.48C366.781 234.565 366.97 235.441 367.155 236.322C368.09 240.784 369.734 244.939 372.396 248.667C372.62 248.983 372.805 249.324 373.009 249.65Z" fill="#894100"/>
<path d="M309.912 348.116C309.148 345.323 307.727 342.807 306.594 340.17C304.375 335.036 302.093 329.932 299.815 324.822C298.234 321.275 296.613 317.742 295.022 314.2C292.546 308.672 290.088 303.13 287.611 297.602C286.152 294.342 284.677 291.087 283.198 287.831C283.072 287.554 282.862 287.311 282.692 287.058C274.605 287.101 266.513 287.15 258.425 287.194C258.343 291.768 257.958 296.332 257.973 300.916C258.026 315.747 258.002 330.579 258.036 345.41C258.041 347.736 258.197 350.057 258.279 352.383C260.202 352.091 262.143 352.164 264.075 352.028C266.853 351.838 269.622 351.527 272.396 351.264C272.629 351.244 272.858 351.21 273.091 351.196C275.797 351.011 278.536 351.021 281.203 350.588C283.972 350.135 286.77 350.32 289.538 349.863C292.127 349.434 294.803 349.566 297.411 349.22C300.18 348.855 302.983 348.977 305.737 348.451C307.104 348.193 308.535 348.481 309.907 348.12L309.912 348.116Z" fill="#FFB68A"/>
<path d="M436.796 221.335C430.485 222.931 424.198 224.644 417.848 226.06C415.503 226.585 413.79 227.559 412.369 229.49C410.029 232.678 407.435 235.675 405.036 238.818C404.379 239.675 403.635 240.191 402.647 240.531C396.049 242.818 389.465 245.129 382.877 247.446C380.244 248.37 377.621 249.319 374.994 250.258C376.522 252.161 377.5 254.355 378.278 256.637C379.758 260.973 380.828 265.416 381.538 269.936C381.704 271.002 381.65 272.101 381.68 273.191C381.733 275.284 381.587 277.376 381.996 279.459C382.156 280.281 382.142 281.186 381.972 282.009C381.655 283.551 381.684 285.094 381.66 286.641C384.531 284.943 387.421 283.274 390.273 281.546C394.253 279.128 398.219 276.685 402.17 274.213C402.861 273.78 403.533 273.527 404.345 273.586C405.815 273.693 407.279 273.732 408.749 273.902C411.683 274.238 414.656 274.257 417.595 274.004C420.442 273.761 422.485 272.267 423.595 269.532C424.729 266.729 425.984 263.97 427.147 261.177C427.512 260.302 428.111 259.834 429.025 259.64C430.388 259.348 431.741 258.988 433.093 258.647C434.529 258.287 435.891 257.732 437.229 257.095C438.441 256.521 439.132 255.577 439.565 254.341C440.183 252.57 440.144 250.847 439.438 249.115C437.765 245.013 436.548 240.755 435.064 236.585C434.524 235.067 434.422 233.622 434.855 232.045C435.448 229.88 436.018 227.704 436.451 225.495C436.723 224.104 436.869 222.741 436.796 221.34V221.335Z" fill="#FFB68A"/>
<path d="M205.508 247.962C205.581 248.974 205.591 249.976 205.357 250.974C205.284 251.276 205.265 251.587 205.25 251.898C205.046 255.694 204.88 259.494 204.642 263.29C204.433 266.618 204.136 269.937 203.888 273.26C203.829 274.034 203.79 274.812 203.781 275.586C203.761 276.832 203.683 278.068 203.289 279.265C203.532 279.751 203.99 280.004 204.418 280.291C204.861 280.593 205.172 280.987 205.226 281.547C205.897 281.561 206.335 282.053 206.866 282.354C209.391 283.79 212.043 284.768 214.997 284.787C217.381 284.802 219.585 284.213 221.634 283.006C224.636 281.235 227.672 279.532 230.826 278.043C231.95 277.513 233.093 277.051 234.348 276.943C234.684 276.759 235.001 276.525 235.356 276.389C238.738 275.119 242.29 274.759 245.852 274.608C249.029 274.476 252.221 274.627 255.403 274.608C257.656 274.593 259.905 274.506 262.153 274.452C261.51 273.075 261.646 271.781 262.503 270.525C262.936 269.888 263.267 269.187 263.671 268.53C264.586 267.041 264.644 266.934 263.398 265.791C261.53 264.073 260.206 261.835 258.055 260.389C257.496 260.015 257.014 259.436 256.664 258.852C256.211 258.103 255.608 257.523 255.014 256.92C253.764 255.655 252.508 254.395 251.238 253.144C250.688 252.604 250.197 252.001 249.491 251.631C248.129 250.911 247.516 249.743 247.54 248.22C246.854 248.463 246.178 248.414 245.482 248.229C242.552 247.461 239.545 247.12 236.572 246.599C236.494 246.585 236.417 246.585 236.339 246.58C232.154 246.414 227.969 245.743 223.784 246.147C221.322 246.385 218.836 246.39 216.383 246.862C214.714 247.183 213.002 247.334 211.298 247.393C209.352 247.461 207.43 247.655 205.513 247.947L205.508 247.962Z" fill="#FFB68A"/>
<path d="M394.677 186.289C392.21 186.654 389.845 187.355 387.607 188.459C385.242 189.627 382.814 190.678 380.658 192.23C377.252 194.688 374.138 197.427 371.52 200.756C370.128 202.522 368.727 204.264 367.603 206.21C365.068 210.604 363.15 215.217 362.489 220.307C362.328 221.528 361.983 222.72 362.056 223.981C362.153 225.601 362.406 225.908 363.944 225.966C364.411 225.986 364.878 225.981 365.34 225.966C366.43 225.922 366.537 225.849 366.722 224.832C367.676 219.499 369.749 214.614 372.556 210.006C373.281 208.814 373.997 207.621 374.77 206.463C376.717 203.558 379.558 201.631 382.274 199.612C385.125 197.486 388.137 195.549 391.388 194.045C392.721 193.427 394.093 192.882 395.46 192.352C395.889 192.187 396.054 191.9 396.137 191.505C396.015 189.666 395.606 187.905 394.667 186.289H394.677Z" fill="#5D3717"/>
<path d="M247.535 248.232C247.511 249.755 248.124 250.918 249.486 251.643C250.187 252.013 250.684 252.616 251.233 253.156C252.499 254.407 253.759 255.667 255.009 256.932C255.603 257.536 256.211 258.12 256.659 258.864C257.009 259.448 257.491 260.022 258.051 260.402C260.201 261.847 261.525 264.09 263.393 265.803C264.639 266.946 264.581 267.053 263.666 268.542C263.262 269.199 262.931 269.9 262.498 270.537C261.642 271.793 261.505 273.087 262.148 274.464C262.459 274.644 262.771 274.824 263.087 275.004C263.997 274.922 264.693 274.518 265.155 273.71C265.422 273.243 265.773 272.82 266.021 272.343C266.907 270.625 267.709 268.859 268.649 267.17C269.413 265.793 269.091 264.659 268.162 263.56C267.963 263.326 267.734 263.112 267.515 262.893C262.917 258.295 258.318 253.696 253.715 249.098C253.389 248.772 253.068 248.417 252.688 248.159C251.141 247.113 249.506 246.597 247.686 247.483C247.637 247.736 247.584 247.984 247.535 248.237V248.232Z" fill="#E7A47C"/>
<path d="M204.151 247.717C204.35 247.707 204.55 247.698 204.749 247.683C204.535 247.464 204.34 247.474 204.151 247.717Z" fill="#CEBCB8"/>
<path d="M171.353 290.527C170.959 290.284 170.555 290.06 170.175 289.797C169.158 289.097 168.078 288.8 166.871 289.247C166.653 289.325 166.419 289.437 166.2 289.423C164.015 289.286 161.889 289.861 159.723 289.987C157.49 290.118 155.276 290.483 153.052 290.746C152.823 290.775 152.59 290.873 152.366 290.853C150.254 290.683 148.23 291.53 146.118 291.369C144.036 292.118 141.817 291.695 139.676 292.157C137.574 292.61 135.374 292.595 133.214 292.751C132.362 292.814 131.506 292.727 130.683 293.053C130.401 293.165 130.07 293.223 129.769 293.194C127.579 292.989 125.472 293.826 123.287 293.714C122.839 293.69 122.382 293.894 121.925 293.967C119.808 294.313 119.482 296.376 119.745 297.724C119.993 298.974 121.764 300.011 123.292 299.67C124.289 299.446 125.272 299.369 126.275 299.271C128.041 299.096 129.793 298.794 131.55 298.541C131.856 298.498 132.158 298.41 132.464 298.395C135.019 298.298 137.53 297.748 140.06 297.544C141.992 297.388 143.894 297.048 145.831 296.926C147.675 296.809 149.49 296.366 151.33 296.162C152.867 295.992 154.405 295.851 155.938 295.602C157.84 295.296 159.777 295.184 161.66 294.736C161.962 294.663 162.278 294.653 162.585 294.649C163.748 294.615 164.886 294.532 166.044 294.284C167.163 294.045 168.365 294.201 169.528 294.182C170.365 293.082 171.037 291.899 171.338 290.532L171.353 290.527Z" fill="#494A45"/>
<path d="M336.207 264.252C335.604 267.507 334.928 270.753 335.006 274.091C335.307 274.329 335.706 274.509 335.891 274.816C336.791 276.29 338.091 277.399 339.268 278.621C339.589 278.957 340.017 279.239 340.212 279.638C340.971 281.18 342.416 281.993 343.677 282.981C344.859 283.91 346.431 283.195 346.616 281.711C346.694 281.083 346.582 280.489 346.28 279.915C344.407 276.358 342.864 272.636 340.738 269.205C340.129 268.222 339.716 267.118 339.132 266.12C338.49 265.016 337.667 264.101 336.198 264.252H336.207Z" fill="#E6A37C"/>
</svg>
