<svg width="500" height="500" viewBox="0 0 500 500" fill="none" xmlns="http://www.w3.org/2000/svg">
<path d="M425.108 268.934C420.642 270.818 416.206 272.771 411.711 274.579C396.257 280.793 380.791 286.977 365.317 293.131C358.086 296.007 350.817 298.78 343.569 301.618C340.962 302.639 338.295 303.485 335.628 304.332C331.598 305.614 327.581 306.93 323.551 308.216C322.188 308.652 320.833 309.135 319.397 309.302C318.932 309.357 318.474 309.541 318.021 309.699C312.282 311.691 306.543 313.678 300.812 315.695C299.333 316.216 297.893 316.84 296.418 317.383C295.077 317.879 293.718 318.336 292.359 318.798C286.35 320.845 280.354 322.93 274.328 324.917C268.102 326.969 261.76 328.614 255.371 330.067C249.914 331.306 244.435 332.447 238.956 333.588C236.888 334.02 234.794 334.336 232.713 334.708C232.251 334.597 231.824 334.661 231.448 334.973C230.08 334.033 228.584 333.409 226.965 333.046C225.17 332.644 223.388 332.178 221.593 331.755C217.546 330.802 213.503 329.832 209.443 328.93C208.02 328.614 206.755 328.093 205.571 327.217C201.892 324.503 198.157 321.866 194.434 319.208C194.084 318.96 193.81 318.687 193.699 318.268C193.913 317.302 193.815 316.332 193.733 315.362C193.759 314.678 193.798 313.998 193.815 313.315C194.02 304.844 193.524 296.366 194.156 287.904C194.857 287.242 195.652 286.716 196.477 286.229C203.426 282.148 210.366 278.045 217.332 273.989C221.054 271.823 224.973 270.036 228.948 268.378C231.037 267.506 233.281 267.16 235.478 266.664C240.187 265.596 244.939 265.468 249.734 266.028C253.328 266.447 256.944 266.673 260.551 267.006C264.358 267.357 268.166 267.733 271.974 268.088C275.444 268.408 278.914 268.707 282.38 269.024C286.393 269.391 290.406 269.771 294.418 270.139C297.957 270.464 301.495 270.767 305.03 271.088C307.41 271.301 309.795 271.485 312.167 271.771C313.56 271.938 314.902 271.848 316.192 271.335C318.222 270.532 320.244 269.703 322.256 268.848C324.457 267.912 326.628 266.912 328.829 265.981C331.222 264.968 333.684 264.164 336.201 263.506C340.03 262.506 343.821 261.331 347.68 260.472C352.607 259.37 357.573 258.417 362.552 257.562C369.954 256.293 377.372 255.134 384.796 253.985C388.911 253.348 393.044 252.827 397.172 252.263C400.826 251.763 404.45 251.096 408.069 250.382C408.27 250.344 408.467 250.275 408.668 250.245C411.313 249.882 413.907 249.331 416.399 248.344C417.082 249.745 417.813 251.122 418.433 252.553C419.266 254.481 420.001 256.451 420.809 258.391C422.266 261.891 423.916 265.314 425.108 268.925V268.934Z" fill="#696D65"/>
<path d="M193.703 318.281C193.819 318.695 194.092 318.969 194.438 319.221C198.161 321.875 201.896 324.516 205.575 327.23C206.763 328.106 208.024 328.627 209.447 328.943C213.507 329.845 217.55 330.82 221.597 331.768C223.388 332.191 225.17 332.653 226.969 333.059C228.588 333.422 230.084 334.046 231.452 334.986C231.584 335.029 231.717 335.076 231.849 335.119C232.802 336.337 233.165 337.798 233.507 339.26C233.661 339.922 233.798 340.589 233.909 341.26C234.165 342.803 233.567 343.875 232.106 344.521C230.606 345.183 229.063 345.623 227.422 345.888C223.93 346.452 220.473 347.234 216.999 347.909C213.725 348.546 210.451 349.157 207.127 349.486C204.49 349.747 201.866 350.17 199.238 350.533C197.037 350.841 194.998 350.401 193.246 349.046C191.524 347.713 189.853 346.303 188.242 344.837C185.622 342.448 183.049 340.008 180.507 337.533C179.737 336.785 178.772 336.486 177.883 336.008C177.802 335.593 177.631 335.273 177.259 335.008C174.626 333.093 172.015 331.14 169.387 329.221C166.754 327.298 164.122 325.384 161.464 323.495C159.25 321.922 157.139 320.204 154.81 318.798C154.229 318.448 153.703 318.012 153.16 317.606C150.921 315.952 148.694 314.285 146.446 312.644C144.639 311.324 142.844 309.973 140.963 308.768C140.126 308.229 139.545 307.247 138.408 307.187C138.096 306.926 137.801 306.648 137.472 306.413C133.827 303.794 130.186 301.161 126.519 298.571C124.63 297.238 122.668 296.007 120.784 294.665C118.284 292.892 115.959 290.896 113.621 288.917C110.348 286.152 107.019 283.451 103.984 280.409C101.869 278.289 99.6723 276.25 97.497 274.191C97.1082 273.823 96.6295 273.541 96.1936 273.225C96.1039 273.045 96.044 272.832 95.9116 272.686C94.6252 271.289 93.2491 269.981 92.0739 268.464C90.9542 267.02 89.7235 265.652 88.6807 264.148C87.6764 262.699 86.732 261.208 85.7704 259.729C83.796 256.678 82.4157 253.366 81.4114 249.878C81.0268 248.541 81.0439 247.199 80.9926 245.84C80.9584 244.925 81.3088 244.105 81.4541 243.237C81.89 240.669 82.8345 238.254 84.2661 236.079C85.5781 234.079 87.2491 232.459 89.3346 231.16C91.3816 229.887 93.4372 228.793 95.809 228.323C95.9799 228.288 96.1124 228.066 96.262 227.934C96.8347 228.429 97.5355 228.369 98.215 228.361C100.993 228.335 103.395 229.442 105.685 230.852C106.613 231.425 107.484 232.087 108.365 232.737C109.514 233.592 110.647 234.459 111.672 235.481C113.027 236.827 114.484 238.07 115.861 239.395C118.326 241.767 120.455 244.438 122.591 247.101C124.856 249.921 127.203 252.673 129.519 255.451C131.75 258.126 133.98 260.793 136.22 263.46C136.523 263.823 136.869 264.156 137.194 264.502C137.254 264.729 137.386 264.883 137.617 264.943L137.596 264.917C137.651 265.109 137.656 265.344 137.771 265.49C139.258 267.332 140.66 269.263 142.284 270.977C144.891 273.733 147.652 276.344 150.348 279.015C150.686 279.349 151.015 279.699 151.536 279.725C151.583 280.665 152.297 281.204 152.929 281.648C154.682 282.874 156.045 284.494 157.575 285.939C157.921 286.268 158.263 286.601 158.626 286.909C160.032 288.084 161.489 289.199 162.848 290.426C164.412 291.84 165.964 293.276 167.481 294.725C169.84 296.986 172.37 299.067 174.665 301.392C176.626 303.379 178.93 304.999 180.789 307.093C180.878 307.195 180.985 307.281 181.096 307.362C183.34 309.029 185.327 310.994 187.336 312.913C189.161 314.653 191.178 316.174 192.934 317.982C193.105 318.157 193.426 318.187 193.678 318.285L193.703 318.281Z" fill="#FFB88B"/>
<path d="M46.0898 180.46C46.2693 175.506 47.9018 171.139 51.3079 167.485C51.6326 167.135 51.966 166.788 52.325 166.476C57.1114 162.34 62.5858 159.566 68.7525 158.147C69.7611 157.917 70.7782 157.865 71.8038 157.865C75.227 157.865 78.6116 158.301 81.9664 158.929C85.4664 159.583 88.7998 160.797 92.0477 162.233C92.6032 162.481 93.1887 162.669 93.7571 162.887C93.8554 163.746 94.287 164.421 94.9024 164.998C95.4965 165.558 96.0648 166.126 96.7529 166.6C97.8811 167.374 98.9367 168.323 99.6546 169.459C101.18 171.874 102.497 174.417 103.172 177.229C103.599 179.011 103.992 180.784 104.031 182.648C104.056 183.891 104.642 185.007 106.035 185.391C106.035 185.524 106.031 185.656 106.022 185.789C105.851 185.9 105.702 186.015 105.697 186.254C105.693 186.801 105.633 187.349 105.668 187.887C105.817 190.178 105.291 192.349 104.544 194.49C103.753 196.746 102.749 198.904 101.655 201.024C98.7444 206.669 95.2785 211.968 91.6118 217.139C91.1802 217.751 90.7528 218.366 90.3212 218.977C90.0776 219.084 89.8425 219.259 89.5904 219.285C89.2143 219.323 88.9536 219.037 88.7912 218.742C88.3938 218.028 87.9921 217.315 87.6716 216.563C86.5476 213.93 85.4579 211.285 84.3553 208.644C84.1972 208.268 84.0647 207.874 83.8766 207.515C83.5134 206.819 82.992 206.319 82.163 206.212C81.757 206.161 81.3638 206.028 80.9621 205.964C78.8082 205.639 76.6501 205.34 74.4962 205.007C72.8124 204.746 71.1372 204.447 69.4619 204.161C68.6542 204.024 68.0816 203.614 67.8978 202.763C67.8551 202.562 67.7824 202.37 67.7226 202.178C66.432 197.802 65.1157 193.43 63.8678 189.041C63.6798 188.374 63.402 187.943 62.7738 187.712C62.4533 187.596 62.1413 187.46 61.8294 187.323C56.5857 185.037 51.3378 182.746 46.0941 180.46H46.0898Z" fill="#8A4101"/>
<path d="M46.0907 180.457C51.3343 182.743 56.5823 185.034 61.8259 187.32C62.1379 187.457 62.4499 187.59 62.7704 187.709C63.3986 187.94 63.6764 188.372 63.8644 189.038C65.1123 193.427 66.4243 197.799 67.7192 202.175C67.779 202.372 67.8516 202.564 67.8944 202.761C68.0781 203.611 68.6508 204.021 69.4585 204.158C71.138 204.444 72.8132 204.744 74.4928 205.004C76.6466 205.338 78.8048 205.637 80.9587 205.962C81.3604 206.021 81.7535 206.158 82.1595 206.209C82.9886 206.316 83.51 206.816 83.8732 207.513C84.0613 207.872 84.1937 208.265 84.3519 208.641C85.4544 211.282 86.5442 213.928 87.6681 216.56C87.9886 217.308 88.3904 218.026 88.7878 218.74C88.9545 219.034 89.2109 219.321 89.587 219.282C89.8391 219.257 90.0741 219.081 90.3177 218.975C90.6383 219.411 91.0015 219.825 91.2793 220.291C92.5229 222.398 93.9503 224.381 95.3648 226.376C93.6297 226.979 91.8947 227.573 90.1639 228.184C89.9075 228.274 89.6553 228.394 89.4331 228.547C87.9245 229.594 86.3519 230.539 85.0784 231.915C84.1895 232.881 83.51 233.966 82.7792 235.03C80.4031 238.492 79.2962 242.381 78.9928 246.513C78.9073 247.65 78.9544 248.795 79.2236 249.962C80.5313 255.595 83.3262 260.488 86.7451 265.031C88.6596 267.578 90.6725 270.086 93.0486 272.257C93.3434 272.527 93.54 272.903 93.7836 273.227C90.6468 273.364 87.5485 273.065 84.51 272.27C81.8091 271.561 79.2279 270.535 76.762 269.223C75.7449 268.68 74.6979 268.202 73.6637 267.693C73.4543 266.971 73.3047 266.249 73.2321 265.492C73.044 263.531 72.7577 261.578 72.5269 259.616C72.3389 257.992 72.1936 256.364 72.0013 254.744C71.7278 252.445 71.45 250.15 71.1337 247.86C71.0611 247.33 70.8303 246.813 70.6423 246.304C68.6081 240.804 66.5525 235.312 64.5482 229.804C64.202 228.855 64.0524 227.834 63.8046 226.847C63.7234 226.517 63.6465 226.184 63.5439 225.859C63.343 225.223 62.9456 224.825 62.2533 224.71C60.7746 224.47 59.3088 224.171 57.8302 223.936C55.0737 223.5 52.313 223.124 49.5608 222.658C48.4241 222.466 47.2916 222.18 46.1933 221.821C44.4496 221.248 43.3214 220.043 42.877 218.24C42.6291 217.244 42.4667 216.244 42.5094 215.205C42.5565 214.116 42.4624 213.013 42.5735 211.932C42.7274 210.445 42.1077 209.487 40.8769 208.735C39.7744 208.06 38.753 207.252 37.706 206.492C37.1547 206.09 36.6034 205.684 36.0777 205.256C34.8427 204.256 34.7273 203.427 35.6076 202.073C35.7188 201.902 35.847 201.739 35.9752 201.581C38.2658 198.701 40.518 195.786 42.8684 192.953C43.783 191.85 44.2573 190.637 44.4838 189.273C44.9582 186.457 45.424 183.637 45.9027 180.82C45.924 180.696 46.0351 180.585 46.1035 180.47L46.0907 180.457Z" fill="#FFB88B"/>
<path d="M73.655 267.691C74.6892 268.2 75.7363 268.679 76.7534 269.221C79.2235 270.533 81.8004 271.563 84.5013 272.268C87.5398 273.068 90.6382 273.362 93.7749 273.226C94.5827 273.529 95.3861 273.64 96.1938 273.226C96.6297 273.546 97.1083 273.824 97.4972 274.191C99.6767 276.247 101.873 278.286 103.984 280.41C107.019 283.452 110.348 286.149 113.621 288.918C115.963 290.897 118.288 292.893 120.784 294.666C122.668 296.004 124.63 297.235 126.519 298.572C130.186 301.166 133.827 303.794 137.472 306.414C137.801 306.649 138.096 306.927 138.408 307.188C138.22 307.559 137.976 307.914 137.981 308.354C136.438 310.91 135.271 313.662 133.946 316.329C132.562 319.124 131.173 321.919 129.784 324.713C124.416 323.154 119.057 321.564 113.677 320.038C109.613 318.88 105.54 317.739 101.446 316.696C94.7365 314.987 88.9116 311.76 84.0398 306.829C82.8902 305.662 81.7492 304.482 80.668 303.256C78.0568 300.294 76.7448 296.739 76.1038 292.905C75.6892 290.418 75.4414 287.91 75.2106 285.397C74.9286 282.345 74.5055 279.307 74.1422 276.264C74.1337 276.196 74.1209 276.127 74.1166 276.059C73.9585 273.268 73.8003 270.482 73.6465 267.691H73.655Z" fill="#8B8ADF"/>
<path d="M425.108 268.934C423.92 265.323 422.266 261.9 420.809 258.4C420.001 256.46 419.27 254.49 418.433 252.562C417.813 251.135 417.082 249.755 416.398 248.353C416.621 246.943 417.612 245.925 418.27 244.746C419.134 243.199 420.142 241.733 421.074 240.224C423.283 236.639 426.339 234.19 430.471 233.152C431.146 232.981 431.817 232.959 432.497 232.908C435.176 232.707 437.8 233.199 440.437 233.511C443.006 233.814 445.561 234.22 448.117 234.613C450.134 234.921 452.147 235.284 454.164 235.605C455.775 235.861 457.378 236.16 459.019 236.276C460.643 236.391 462.258 236.682 463.878 236.895C465.296 237.083 466.715 237.259 468.13 237.464C470.976 237.883 473.472 238.947 475.472 241.135C478.066 243.972 478.724 247.695 477.164 251.19C475.698 254.473 473.228 256.485 469.775 257.391C466.942 258.135 464.134 258.985 461.301 259.733C459.066 260.323 456.796 260.78 454.566 261.37C451.732 262.122 448.92 262.938 446.104 263.755C444.924 264.097 443.736 264.366 442.523 264.562C441.318 264.755 440.142 265.135 438.959 265.464C437.053 265.99 435.147 266.507 433.258 267.097C432.014 267.486 430.775 267.763 429.471 267.909C428.334 268.037 427.232 268.477 426.108 268.763C425.783 268.849 425.441 268.883 425.112 268.939L425.108 268.934Z" fill="#FFB88C"/>
<path d="M106.022 185.787C106.031 185.655 106.031 185.522 106.035 185.39C106.612 184.446 106.779 183.394 106.856 182.313C106.997 180.262 106.638 178.257 106.198 176.279C106.039 175.552 106.01 174.817 105.779 174.086C104.997 171.612 103.975 169.266 102.616 167.061C101.386 165.065 99.6761 163.492 97.9453 161.975C97.112 161.249 96.1034 160.595 94.9538 160.33C94.8042 158.599 95.4239 157.103 96.4325 155.757C100.035 150.937 104.86 149.219 110.693 150.321C115.121 151.159 118.629 153.462 121.206 157.206C123.86 161.056 125.326 165.347 126.117 169.903C126.629 172.868 126.882 175.869 126.92 178.877C126.984 183.8 126.984 188.719 126.681 193.634C126.437 197.523 126.283 201.416 126.817 205.301C126.882 205.762 126.847 206.266 126.732 206.719C126.424 207.924 125.27 208.433 124.168 207.873C123.869 207.719 123.599 207.497 123.33 207.292C122.125 206.377 121.087 205.301 120.117 204.147C115.805 199.018 111.847 193.612 107.783 188.292C107.168 187.484 106.407 186.766 106.031 185.787H106.022Z" fill="#8A4102"/>
<path d="M194.16 287.919C193.528 296.38 194.024 304.859 193.819 313.329C193.802 314.013 193.763 314.692 193.737 315.376C193.024 315.316 192.404 315.009 191.934 314.509C190.203 312.671 188.195 311.141 186.4 309.38C184.113 307.141 181.524 305.231 179.391 302.833C179.301 302.731 179.194 302.641 179.088 302.56C176.673 300.782 174.613 298.598 172.408 296.585C170.199 294.568 167.814 292.735 165.818 290.491C165.771 290.44 165.724 290.389 165.669 290.354C163.553 289.072 162.228 286.863 160.109 285.581C158.314 283.517 156.032 281.978 154.13 280.025C153.545 279.423 152.865 278.995 152.015 278.888C152.673 277.23 153.331 275.572 153.989 273.914C154.963 273.961 155.848 274.329 156.703 274.743C164.686 278.589 173.002 281.581 181.425 284.299C185.306 285.551 189.19 286.79 193.152 287.765C193.481 287.846 193.823 287.871 194.156 287.923L194.16 287.919Z" fill="#FFB88B"/>
<path d="M129.793 324.713C131.182 321.918 132.571 319.123 133.955 316.328C135.276 313.657 136.443 310.909 137.99 308.354C138.374 309.242 138.891 310.042 139.682 310.627C140.938 311.554 142.199 312.478 143.468 313.388C145.511 314.854 147.571 316.302 149.609 317.777C152.695 320.008 155.759 322.264 158.845 324.49C161.657 326.52 164.486 328.52 167.306 330.538C169.076 331.803 170.841 333.072 172.618 334.324C172.969 334.572 173.238 334.85 173.328 335.277C171.9 335.226 170.511 334.918 169.11 334.674C165.097 333.969 161.071 333.32 157.058 332.597C151.909 331.67 146.75 330.743 141.712 329.307C138.703 328.448 135.673 327.644 132.789 326.401C131.737 325.948 130.622 325.585 129.797 324.717L129.793 324.713Z" fill="#FFB88C"/>
<path d="M96.1973 273.224C95.3896 273.639 94.5862 273.527 93.7785 273.224C93.5349 272.899 93.3383 272.523 93.0477 272.254C90.6716 270.083 88.663 267.574 86.7442 265.027C83.3253 260.489 80.5304 255.596 79.2227 249.959C78.9535 248.792 78.9108 247.651 78.992 246.51C79.2954 242.378 80.4065 238.489 82.7783 235.027C83.5091 233.963 84.1886 232.873 85.0775 231.912C86.3467 230.531 87.9237 229.591 89.4323 228.544C89.6545 228.39 89.9066 228.27 90.163 228.181C91.8938 227.57 93.6289 226.976 95.364 226.373C95.8682 226.775 96.1247 227.322 96.2785 227.929C96.1289 228.061 95.9964 228.283 95.8255 228.318C93.4537 228.788 91.3981 229.882 89.3511 231.155C87.2656 232.454 85.5946 234.074 84.2826 236.074C82.8553 238.249 81.9065 240.664 81.4706 243.232C81.3253 244.095 80.9749 244.92 81.0091 245.835C81.0604 247.194 81.0433 248.536 81.4279 249.873C82.4322 253.361 83.8125 256.673 85.7869 259.724C86.7442 261.203 87.6929 262.694 88.6972 264.143C89.7399 265.647 90.9707 267.015 92.0904 268.459C93.2656 269.976 94.6417 271.284 95.9281 272.681C96.0605 272.827 96.1161 273.036 96.2101 273.22L96.1973 273.224Z" fill="#EAA67C"/>
<path d="M173.323 335.272C173.238 334.844 172.964 334.567 172.614 334.319C170.836 333.067 169.071 331.797 167.302 330.532C164.481 328.52 161.652 326.515 158.84 324.485C155.755 322.259 152.691 320.002 149.605 317.772C147.567 316.297 145.507 314.853 143.464 313.383C142.195 312.472 140.934 311.549 139.678 310.622C138.887 310.036 138.37 309.242 137.985 308.348C137.981 307.904 138.225 307.553 138.413 307.182C139.545 307.241 140.126 308.224 140.968 308.763C142.849 309.972 144.644 311.323 146.451 312.639C148.699 314.28 150.926 315.947 153.165 317.601C153.712 318.002 154.238 318.442 154.815 318.793C157.148 320.199 159.255 321.917 161.469 323.49C164.122 325.378 166.759 327.293 169.392 329.216C172.02 331.135 174.631 333.088 177.264 335.003C177.631 335.272 177.806 335.592 177.888 336.003C176.332 335.994 174.823 335.682 173.328 335.272H173.323Z" fill="#EBA57A"/>
<path d="M94.9505 160.336C96.1044 160.601 97.1129 161.25 97.942 161.981C99.6728 163.494 101.382 165.067 102.613 167.067C103.972 169.272 104.993 171.618 105.775 174.093C106.006 174.819 106.032 175.558 106.194 176.285C106.63 178.268 106.993 180.268 106.852 182.319C106.78 183.4 106.609 184.452 106.032 185.396C104.639 185.011 104.053 183.896 104.028 182.652C103.989 180.789 103.596 179.016 103.169 177.234C102.493 174.426 101.177 171.879 99.6514 169.464C98.9335 168.327 97.8779 167.379 96.7497 166.605C96.0616 166.135 95.4932 165.562 94.8992 165.003C94.2838 164.426 93.8522 163.751 93.7539 162.892C94.1043 162.02 94.2368 161.045 94.942 160.336H94.9505Z" fill="#643407"/>
<path d="M153.993 273.914C153.335 275.572 152.677 277.23 152.019 278.888C151.865 279.166 151.711 279.448 151.558 279.726C151.036 279.696 150.707 279.35 150.369 279.016C147.673 276.345 144.916 273.734 142.305 270.978C140.681 269.264 139.28 267.337 137.792 265.491C137.677 265.345 137.673 265.11 137.617 264.918C138.468 264.995 139.117 265.533 139.814 265.935C142.763 267.627 145.681 269.38 148.634 271.063C149.575 271.602 150.613 271.965 151.583 272.461C152.417 272.888 153.412 273.068 153.998 273.914H153.993Z" fill="#8F8DDD"/>
<path d="M231.85 335.116C231.717 335.073 231.585 335.026 231.452 334.984C231.828 334.672 232.251 334.603 232.717 334.719C232.427 334.851 232.14 334.984 231.85 335.12V335.116Z" fill="#C9A689"/>
<path d="M137.634 264.938C137.403 264.878 137.271 264.725 137.211 264.498C137.442 264.558 137.613 264.673 137.634 264.938Z" fill="#8F8DDD"/>
<path d="M151.558 279.724C151.711 279.447 151.865 279.165 152.019 278.887C152.874 278.989 153.549 279.421 154.135 280.023C156.032 281.976 158.318 283.515 160.113 285.579C162.233 286.857 163.558 289.066 165.673 290.353C165.729 290.387 165.78 290.442 165.823 290.489C167.819 292.737 170.203 294.571 172.413 296.584C174.613 298.596 176.673 300.78 179.092 302.558C179.203 302.639 179.306 302.729 179.396 302.831C181.528 305.229 184.118 307.139 186.404 309.379C188.199 311.139 190.208 312.669 191.938 314.507C192.409 315.007 193.033 315.315 193.742 315.374C193.819 316.344 193.917 317.315 193.708 318.28C193.456 318.182 193.135 318.152 192.964 317.981C191.203 316.174 189.186 314.656 187.366 312.913C185.357 310.994 183.37 309.028 181.126 307.361C181.015 307.28 180.908 307.195 180.819 307.092C178.955 304.998 176.656 303.378 174.695 301.391C172.395 299.066 169.87 296.985 167.511 294.725C165.994 293.272 164.442 291.836 162.878 290.425C161.519 289.199 160.062 288.083 158.656 286.908C158.288 286.605 157.951 286.267 157.605 285.938C156.075 284.489 154.707 282.87 152.959 281.647C152.327 281.203 151.609 280.669 151.566 279.724H151.558Z" fill="#EBA57A"/>
</svg>
