<svg width="500" height="500" viewBox="0 0 500 500" fill="none" xmlns="http://www.w3.org/2000/svg">
<path d="M98.5832 283.415C102.767 285.181 106.922 287.011 111.134 288.704C125.61 294.525 140.099 300.318 154.595 306.083C161.369 308.777 168.179 311.375 174.969 314.034C177.411 314.99 179.909 315.783 182.407 316.576C186.182 317.777 189.945 319.01 193.721 320.215C194.998 320.623 196.267 321.076 197.612 321.232C198.048 321.284 198.477 321.456 198.901 321.604C204.278 323.47 209.654 325.331 215.023 327.221C216.408 327.709 217.757 328.294 219.138 328.802C220.395 329.267 221.669 329.695 222.942 330.127C228.57 332.045 234.187 333.999 239.832 335.86C245.665 337.782 251.606 339.323 257.591 340.684C262.704 341.845 267.836 342.914 272.968 343.983C274.906 344.388 276.868 344.684 278.817 345.032C279.25 344.928 279.65 344.988 280.002 345.28C281.284 344.4 282.685 343.815 284.202 343.475C285.884 343.099 287.553 342.662 289.234 342.266C293.026 341.373 296.813 340.464 300.616 339.62C301.949 339.323 303.134 338.835 304.243 338.014C307.69 335.472 311.189 333.002 314.676 330.512C315.004 330.28 315.261 330.023 315.365 329.631C315.165 328.726 315.257 327.817 315.333 326.909C315.309 326.268 315.273 325.632 315.257 324.991C315.064 317.056 315.529 309.113 314.936 301.187C314.28 300.566 313.535 300.074 312.763 299.617C306.253 295.794 299.751 291.951 293.226 288.152C289.739 286.122 286.068 284.448 282.344 282.895C280.387 282.078 278.285 281.754 276.227 281.29C271.815 280.289 267.364 280.169 262.872 280.693C259.505 281.085 256.118 281.298 252.739 281.61C249.172 281.938 245.605 282.29 242.038 282.623C238.787 282.923 235.536 283.203 232.29 283.5C228.53 283.844 224.771 284.2 221.012 284.544C217.697 284.849 214.382 285.133 211.072 285.433C208.842 285.633 206.608 285.806 204.386 286.074C203.081 286.23 201.824 286.146 200.615 285.665C198.713 284.913 196.819 284.136 194.934 283.335C192.872 282.459 190.838 281.522 188.776 280.649C186.535 279.7 184.229 278.948 181.871 278.331C178.283 277.394 174.732 276.293 171.117 275.489C166.501 274.456 161.849 273.563 157.185 272.762C150.251 271.573 143.302 270.488 136.348 269.411C132.492 268.815 128.621 268.327 124.754 267.798C121.331 267.33 117.936 266.705 114.545 266.037C114.357 266.001 114.173 265.937 113.984 265.908C111.506 265.568 109.076 265.052 106.742 264.127C106.102 265.44 105.417 266.729 104.837 268.07C104.056 269.876 103.367 271.721 102.611 273.539C101.246 276.818 99.7002 280.025 98.5832 283.407V283.415Z" fill="#696D65"/>
<path d="M315.36 329.645C315.252 330.034 314.996 330.29 314.672 330.526C311.185 333.012 307.686 335.486 304.239 338.028C303.126 338.849 301.945 339.338 300.612 339.634C296.808 340.478 293.021 341.391 289.23 342.28C287.552 342.676 285.883 343.109 284.198 343.489C282.68 343.829 281.279 344.414 279.998 345.295C279.874 345.335 279.75 345.379 279.626 345.419C278.733 346.56 278.393 347.929 278.072 349.298C277.928 349.919 277.8 350.543 277.696 351.172C277.456 352.617 278.016 353.622 279.385 354.226C280.791 354.847 282.236 355.259 283.773 355.507C287.044 356.036 290.283 356.768 293.538 357.401C296.604 357.997 299.671 358.57 302.785 358.878C305.256 359.122 307.714 359.519 310.176 359.859C312.238 360.147 314.147 359.735 315.789 358.466C317.402 357.217 318.967 355.896 320.477 354.522C322.931 352.285 325.341 349.999 327.723 347.681C328.443 346.98 329.348 346.7 330.181 346.251C330.257 345.863 330.417 345.563 330.765 345.315C333.231 343.521 335.678 341.692 338.14 339.894C340.606 338.092 343.072 336.299 345.562 334.529C347.636 333.056 349.614 331.447 351.795 330.13C352.34 329.801 352.832 329.393 353.341 329.013C355.438 327.463 357.524 325.902 359.63 324.365C361.324 323.128 363.005 321.863 364.766 320.734C365.551 320.229 366.096 319.308 367.161 319.252C367.453 319.008 367.729 318.748 368.037 318.528C371.452 316.074 374.863 313.607 378.298 311.181C380.068 309.932 381.905 308.779 383.671 307.522C386.013 305.861 388.191 303.991 390.38 302.138C393.447 299.547 396.566 297.017 399.408 294.167C401.39 292.181 403.448 290.272 405.485 288.342C405.85 287.998 406.298 287.733 406.706 287.437C406.79 287.269 406.846 287.069 406.971 286.933C408.176 285.624 409.465 284.399 410.566 282.977C411.615 281.624 412.768 280.343 413.744 278.934C414.685 277.577 415.57 276.179 416.471 274.794C418.32 271.936 419.613 268.833 420.554 265.566C420.915 264.313 420.899 263.056 420.947 261.783C420.979 260.926 420.65 260.158 420.514 259.345C420.106 256.939 419.221 254.677 417.88 252.639C416.651 250.766 415.086 249.248 413.132 248.031C411.214 246.838 409.289 245.813 407.067 245.373C406.907 245.341 406.782 245.133 406.642 245.009C406.106 245.473 405.449 245.417 404.813 245.409C402.211 245.385 399.961 246.422 397.815 247.743C396.946 248.28 396.129 248.9 395.305 249.509C394.228 250.309 393.167 251.122 392.206 252.079C390.937 253.34 389.572 254.505 388.283 255.746C385.973 257.968 383.979 260.47 381.977 262.964C379.855 265.606 377.657 268.185 375.488 270.787C373.398 273.293 371.308 275.791 369.21 278.289C368.926 278.63 368.602 278.942 368.297 279.266C368.241 279.478 368.117 279.622 367.901 279.678L367.921 279.654C367.869 279.835 367.865 280.055 367.757 280.191C366.364 281.916 365.051 283.726 363.529 285.331C361.087 287.914 358.501 290.36 355.975 292.862C355.659 293.174 355.35 293.502 354.862 293.526C354.818 294.407 354.149 294.911 353.557 295.328C351.915 296.477 350.638 297.994 349.205 299.347C348.881 299.656 348.561 299.968 348.22 300.256C346.903 301.357 345.538 302.402 344.265 303.551C342.8 304.876 341.346 306.221 339.925 307.578C337.715 309.696 335.345 311.646 333.195 313.824C331.358 315.685 329.2 317.203 327.459 319.164C327.374 319.26 327.274 319.34 327.17 319.416C325.069 320.978 323.207 322.819 321.325 324.617C319.616 326.246 317.726 327.672 316.081 329.365C315.921 329.529 315.62 329.557 315.384 329.649L315.36 329.645Z" fill="#FFB88B"/>
<path d="M453.643 200.534C453.474 195.894 451.945 191.803 448.754 188.38C448.45 188.052 448.138 187.727 447.802 187.435C443.318 183.56 438.189 180.962 432.412 179.632C431.468 179.416 430.515 179.368 429.554 179.368C426.347 179.368 423.177 179.777 420.034 180.365C416.755 180.978 413.632 182.115 410.59 183.46C410.069 183.692 409.521 183.868 408.988 184.072C408.896 184.877 408.492 185.509 407.915 186.05C407.359 186.574 406.827 187.107 406.182 187.551C405.125 188.276 404.136 189.165 403.464 190.229C402.034 192.491 400.801 194.873 400.169 197.508C399.768 199.177 399.4 200.839 399.364 202.584C399.34 203.749 398.792 204.794 397.487 205.154C397.487 205.278 397.491 205.402 397.499 205.527C397.659 205.631 397.799 205.739 397.803 205.963C397.807 206.475 397.863 206.988 397.831 207.492C397.691 209.638 398.183 211.672 398.884 213.678C399.624 215.791 400.565 217.813 401.59 219.799C404.316 225.087 407.563 230.052 410.998 234.896C411.402 235.468 411.803 236.045 412.207 236.617C412.435 236.717 412.656 236.881 412.892 236.905C413.244 236.941 413.488 236.673 413.64 236.397C414.013 235.728 414.389 235.06 414.689 234.355C415.742 231.889 416.763 229.411 417.796 226.937C417.944 226.585 418.068 226.216 418.244 225.88C418.585 225.227 419.073 224.759 419.85 224.659C420.23 224.611 420.598 224.487 420.975 224.427C422.992 224.122 425.014 223.842 427.032 223.53C428.609 223.286 430.178 223.005 431.748 222.737C432.504 222.609 433.041 222.225 433.213 221.428C433.253 221.24 433.321 221.06 433.377 220.88C434.586 216.78 435.819 212.685 436.988 208.573C437.164 207.949 437.425 207.544 438.013 207.328C438.313 207.22 438.606 207.092 438.898 206.964C443.81 204.822 448.726 202.676 453.639 200.534H453.643Z" fill="#8A4101"/>
<path d="M453.643 200.533C448.731 202.675 443.814 204.821 438.902 206.963C438.61 207.091 438.318 207.215 438.017 207.327C437.429 207.543 437.169 207.948 436.993 208.572C435.824 212.684 434.595 216.779 433.382 220.879C433.325 221.063 433.257 221.243 433.217 221.427C433.045 222.224 432.509 222.608 431.752 222.736C430.179 223.004 428.609 223.285 427.036 223.529C425.018 223.841 422.997 224.121 420.979 224.426C420.603 224.482 420.234 224.61 419.854 224.658C419.077 224.758 418.589 225.226 418.249 225.879C418.072 226.215 417.948 226.583 417.8 226.936C416.767 229.41 415.746 231.888 414.694 234.354C414.393 235.055 414.017 235.727 413.645 236.396C413.489 236.672 413.248 236.94 412.896 236.904C412.66 236.88 412.44 236.716 412.211 236.616C411.911 237.024 411.571 237.413 411.311 237.849C410.146 239.823 408.809 241.68 407.483 243.55C409.109 244.114 410.734 244.671 412.356 245.243C412.596 245.328 412.832 245.44 413.04 245.584C414.453 246.565 415.927 247.449 417.12 248.738C417.952 249.643 418.589 250.66 419.273 251.657C421.499 254.9 422.536 258.543 422.82 262.414C422.901 263.479 422.857 264.552 422.604 265.645C421.379 270.921 418.761 275.505 415.558 279.761C413.765 282.147 411.879 284.497 409.653 286.531C409.377 286.783 409.193 287.135 408.965 287.44C411.903 287.568 414.806 287.287 417.652 286.543C420.182 285.878 422.6 284.917 424.91 283.688C425.863 283.18 426.844 282.732 427.813 282.255C428.009 281.579 428.149 280.902 428.217 280.193C428.393 278.356 428.661 276.526 428.878 274.689C429.054 273.167 429.19 271.642 429.37 270.125C429.626 267.971 429.887 265.821 430.183 263.675C430.251 263.179 430.467 262.694 430.643 262.218C432.549 257.066 434.474 251.921 436.352 246.761C436.676 245.872 436.816 244.915 437.049 243.99C437.125 243.682 437.197 243.37 437.293 243.066C437.481 242.469 437.853 242.097 438.502 241.989C439.887 241.764 441.26 241.484 442.645 241.264C445.228 240.856 447.814 240.503 450.392 240.067C451.457 239.887 452.518 239.619 453.547 239.282C455.18 238.746 456.237 237.617 456.653 235.927C456.886 234.995 457.038 234.058 456.998 233.085C456.954 232.064 457.042 231.031 456.938 230.018C456.794 228.625 457.374 227.728 458.527 227.024C459.56 226.391 460.517 225.635 461.498 224.922C462.014 224.546 462.53 224.165 463.023 223.765C464.18 222.828 464.288 222.052 463.463 220.783C463.359 220.622 463.239 220.47 463.119 220.322C460.973 217.624 458.863 214.893 456.661 212.239C455.805 211.206 455.36 210.069 455.148 208.792C454.704 206.154 454.267 203.512 453.819 200.873C453.799 200.757 453.695 200.653 453.631 200.545L453.643 200.533Z" fill="#FFB88B"/>
<path d="M427.821 282.251C426.852 282.727 425.871 283.176 424.918 283.684C422.604 284.913 420.19 285.878 417.66 286.539C414.813 287.287 411.911 287.564 408.972 287.435C408.216 287.72 407.463 287.824 406.707 287.435C406.298 287.736 405.85 287.996 405.485 288.34C403.444 290.266 401.386 292.175 399.408 294.165C396.566 297.016 393.447 299.542 390.381 302.136C388.187 303.99 386.009 305.859 383.671 307.521C381.905 308.774 380.068 309.927 378.298 311.18C374.863 313.61 371.452 316.072 368.037 318.526C367.729 318.746 367.453 319.006 367.161 319.251C367.337 319.599 367.565 319.931 367.561 320.344C369.006 322.738 370.099 325.316 371.34 327.814C372.637 330.432 373.938 333.05 375.24 335.669C380.268 334.207 385.288 332.718 390.329 331.289C394.136 330.204 397.951 329.135 401.786 328.158C408.072 326.557 413.528 323.534 418.092 318.914C419.169 317.821 420.238 316.716 421.251 315.567C423.697 312.793 424.926 309.462 425.527 305.871C425.915 303.541 426.147 301.191 426.363 298.837C426.628 295.979 427.024 293.132 427.364 290.282C427.372 290.218 427.384 290.154 427.388 290.09C427.536 287.475 427.684 284.865 427.829 282.251H427.821Z" fill="#8B8ADF"/>
<path d="M98.5822 283.416C99.6952 280.033 101.245 276.826 102.61 273.547C103.366 271.73 104.051 269.884 104.836 268.079C105.416 266.742 106.101 265.448 106.741 264.135C106.533 262.814 105.604 261.861 104.988 260.756C104.179 259.307 103.234 257.934 102.361 256.521C100.292 253.162 97.4293 250.868 93.558 249.895C92.9254 249.735 92.2969 249.715 91.6603 249.667C89.1502 249.479 86.6921 249.939 84.2219 250.231C81.8159 250.516 79.4218 250.896 77.0278 251.264C75.1382 251.553 73.2526 251.893 71.3629 252.193C69.8536 252.433 68.3524 252.714 66.8151 252.822C65.2938 252.93 63.7805 253.202 62.2632 253.402C60.934 253.578 59.6049 253.742 58.2798 253.935C55.6135 254.327 53.2755 255.324 51.4019 257.373C48.9718 260.032 48.3553 263.519 49.8165 266.794C51.1897 269.868 53.5036 271.754 56.7384 272.603C59.3927 273.299 62.023 274.096 64.6772 274.796C66.771 275.349 68.8969 275.777 70.9866 276.33C73.6409 277.034 76.2751 277.799 78.9134 278.564C80.0183 278.884 81.1313 279.136 82.2683 279.32C83.3972 279.5 84.4982 279.857 85.6071 280.165C87.3926 280.657 89.1782 281.142 90.9477 281.694C92.1127 282.059 93.2737 282.319 94.4947 282.455C95.5597 282.575 96.5925 282.987 97.6454 283.256C97.9497 283.336 98.27 283.368 98.5782 283.42L98.5822 283.416Z" fill="#FFB88C"/>
<path d="M397.499 205.525C397.491 205.401 397.491 205.277 397.487 205.153C396.947 204.268 396.79 203.283 396.718 202.271C396.586 200.349 396.923 198.471 397.335 196.618C397.483 195.937 397.511 195.249 397.727 194.564C398.46 192.246 399.417 190.048 400.69 187.982C401.843 186.113 403.444 184.639 405.065 183.218C405.846 182.538 406.791 181.925 407.868 181.677C408.008 180.056 407.428 178.654 406.483 177.393C403.108 172.877 398.588 171.268 393.123 172.301C388.976 173.086 385.689 175.243 383.275 178.75C380.789 182.357 379.416 186.377 378.675 190.645C378.195 193.423 377.958 196.233 377.922 199.052C377.862 203.664 377.862 208.272 378.146 212.876C378.375 216.519 378.519 220.166 378.018 223.805C377.958 224.237 377.99 224.71 378.098 225.134C378.387 226.263 379.468 226.739 380.5 226.215C380.781 226.071 381.033 225.863 381.285 225.671C382.414 224.814 383.387 223.805 384.296 222.724C388.335 217.92 392.042 212.856 395.85 207.871C396.426 207.115 397.139 206.442 397.491 205.525H397.499Z" fill="#8A4102"/>
<path d="M314.933 301.199C315.525 309.126 315.061 317.069 315.253 325.004C315.269 325.644 315.305 326.281 315.329 326.921C315.998 326.865 316.578 326.577 317.019 326.109C318.64 324.387 320.522 322.954 322.203 321.305C324.345 319.207 326.771 317.417 328.769 315.171C328.853 315.075 328.953 314.991 329.053 314.915C331.315 313.25 333.244 311.204 335.31 309.318C337.38 307.429 339.614 305.711 341.483 303.609C341.528 303.561 341.572 303.513 341.624 303.481C343.605 302.28 344.846 300.21 346.832 299.009C348.514 297.076 350.651 295.635 352.433 293.805C352.981 293.24 353.618 292.84 354.415 292.74C353.798 291.187 353.181 289.633 352.565 288.08C351.652 288.124 350.823 288.468 350.023 288.857C342.544 292.46 334.754 295.262 326.863 297.808C323.228 298.981 319.589 300.142 315.878 301.055C315.569 301.131 315.249 301.155 314.937 301.203L314.933 301.199Z" fill="#FFB88B"/>
<path d="M375.231 335.668C373.93 333.05 372.629 330.431 371.332 327.813C370.095 325.311 369.002 322.737 367.552 320.343C367.192 321.175 366.708 321.924 365.967 322.473C364.79 323.341 363.609 324.206 362.42 325.059C360.506 326.432 358.577 327.789 356.667 329.17C353.777 331.26 350.906 333.374 348.016 335.46C345.381 337.361 342.731 339.235 340.089 341.125C338.431 342.31 336.778 343.499 335.113 344.672C334.784 344.904 334.532 345.164 334.448 345.564C335.785 345.516 337.086 345.228 338.399 345C342.159 344.339 345.93 343.731 349.689 343.054C354.513 342.185 359.345 341.317 364.065 339.972C366.884 339.167 369.722 338.414 372.425 337.249C373.409 336.825 374.454 336.485 375.227 335.672L375.231 335.668Z" fill="#FFB88C"/>
<path d="M406.703 287.435C407.459 287.824 408.212 287.72 408.969 287.435C409.197 287.131 409.381 286.779 409.653 286.527C411.879 284.493 413.761 282.143 415.558 279.757C418.761 275.505 421.379 270.921 422.604 265.641C422.856 264.548 422.897 263.479 422.82 262.41C422.536 258.539 421.495 254.896 419.273 251.653C418.589 250.656 417.952 249.635 417.12 248.734C415.931 247.441 414.453 246.56 413.04 245.58C412.832 245.435 412.596 245.323 412.355 245.239C410.734 244.667 409.109 244.11 407.483 243.546C407.011 243.922 406.771 244.435 406.627 245.003C406.767 245.127 406.891 245.335 407.051 245.367C409.273 245.808 411.198 246.833 413.116 248.026C415.07 249.243 416.635 250.76 417.864 252.634C419.201 254.671 420.09 256.933 420.498 259.339C420.635 260.148 420.963 260.921 420.931 261.777C420.883 263.051 420.899 264.308 420.538 265.561C419.598 268.828 418.305 271.93 416.455 274.789C415.558 276.174 414.669 277.571 413.729 278.928C412.752 280.337 411.599 281.618 410.55 282.972C409.449 284.393 408.16 285.618 406.955 286.927C406.831 287.063 406.779 287.259 406.691 287.431L406.703 287.435Z" fill="#EAA67C"/>
<path d="M334.452 345.561C334.532 345.16 334.789 344.9 335.117 344.668C336.782 343.495 338.436 342.306 340.093 341.121C342.735 339.235 345.386 337.358 348.02 335.456C350.91 333.37 353.781 331.256 356.671 329.167C358.581 327.785 360.511 326.432 362.424 325.055C363.613 324.202 364.794 323.338 365.971 322.469C366.712 321.92 367.196 321.176 367.557 320.339C367.561 319.923 367.332 319.594 367.156 319.246C366.095 319.302 365.551 320.223 364.762 320.727C363.001 321.86 361.319 323.125 359.626 324.358C357.52 325.896 355.434 327.457 353.336 329.006C352.824 329.383 352.332 329.795 351.791 330.123C349.605 331.441 347.632 333.05 345.558 334.523C343.072 336.293 340.602 338.086 338.135 339.888C335.673 341.685 333.227 343.515 330.761 345.308C330.417 345.561 330.253 345.861 330.177 346.245C331.634 346.237 333.047 345.945 334.448 345.561H334.452Z" fill="#EBA57A"/>
<path d="M407.871 181.682C406.79 181.93 405.845 182.538 405.069 183.223C403.447 184.64 401.846 186.113 400.693 187.987C399.42 190.053 398.463 192.251 397.731 194.569C397.514 195.249 397.49 195.942 397.338 196.622C396.93 198.48 396.59 200.354 396.722 202.275C396.79 203.288 396.95 204.273 397.49 205.158C398.795 204.797 399.344 203.753 399.368 202.588C399.404 200.842 399.772 199.181 400.173 197.511C400.805 194.881 402.038 192.495 403.467 190.233C404.14 189.168 405.129 188.279 406.186 187.555C406.83 187.114 407.363 186.578 407.919 186.053C408.496 185.513 408.9 184.88 408.992 184.076C408.664 183.259 408.54 182.346 407.879 181.682H407.871Z" fill="#643407"/>
<path d="M352.56 288.082C353.177 289.635 353.793 291.188 354.41 292.741C354.554 293.002 354.698 293.266 354.842 293.526C355.331 293.498 355.639 293.174 355.955 292.862C358.481 290.359 361.064 287.913 363.51 285.331C365.031 283.726 366.344 281.92 367.737 280.191C367.845 280.055 367.849 279.834 367.901 279.654C367.105 279.726 366.496 280.231 365.844 280.607C363.081 282.192 360.347 283.834 357.581 285.411C356.7 285.916 355.727 286.256 354.818 286.72C354.038 287.121 353.105 287.289 352.556 288.082H352.56Z" fill="#8F8DDD"/>
<path d="M279.625 345.414C279.749 345.374 279.873 345.33 279.998 345.29C279.645 344.997 279.249 344.933 278.813 345.041C279.085 345.166 279.353 345.29 279.625 345.418V345.414Z" fill="#C9A689"/>
<path d="M367.885 279.674C368.101 279.618 368.225 279.474 368.281 279.262C368.065 279.318 367.905 279.426 367.885 279.674Z" fill="#8F8DDD"/>
<path d="M354.842 293.525C354.698 293.265 354.554 293 354.41 292.74C353.609 292.836 352.977 293.241 352.428 293.805C350.651 295.635 348.509 297.076 346.827 299.01C344.842 300.207 343.601 302.276 341.619 303.481C341.567 303.513 341.519 303.565 341.479 303.61C339.609 305.715 337.375 307.433 335.306 309.318C333.244 311.204 331.314 313.25 329.048 314.915C328.944 314.991 328.848 315.075 328.764 315.171C326.766 317.417 324.34 319.207 322.198 321.305C320.517 322.954 318.635 324.387 317.014 326.109C316.574 326.577 315.989 326.865 315.324 326.921C315.252 327.83 315.16 328.739 315.356 329.644C315.593 329.552 315.893 329.524 316.053 329.364C317.702 327.67 319.592 326.249 321.298 324.616C323.179 322.818 325.041 320.976 327.143 319.415C327.247 319.339 327.347 319.259 327.431 319.163C329.176 317.201 331.33 315.684 333.168 313.822C335.322 311.644 337.688 309.695 339.897 307.577C341.319 306.216 342.772 304.871 344.237 303.549C345.51 302.401 346.875 301.356 348.193 300.255C348.537 299.97 348.853 299.654 349.177 299.346C350.611 297.989 351.892 296.471 353.529 295.326C354.122 294.91 354.794 294.41 354.834 293.525H354.842Z" fill="#EBA57A"/>
</svg>
