<svg width="500" height="501" viewBox="0 0 500 501" fill="none" xmlns="http://www.w3.org/2000/svg">
<path d="M314.233 283.152C314.233 283.152 303.683 279.002 293.836 279.002C274.002 279.002 261.201 293.114 261.201 293.114C261.201 293.114 252.902 332.958 263.03 333.927C282.161 336.002 297.212 334.618 306.355 336.002L320 321.614L314.233 283.152Z" fill="#3D3C3C"/>
<path d="M420.731 334.767C420.731 329.999 397.245 327.615 396.55 323.969C390.435 285.545 389.74 264.791 389.74 264.791C425.039 258.2 436.852 266.894 444.912 252.45C446.302 241.512 430.876 236.463 417.813 240.25C398.773 240.67 366.81 244.737 365.003 254.273C364.725 255.535 384.737 326.914 384.737 331.542C384.737 337.151 420.731 341.078 420.731 334.767Z" fill="#ECAD83"/>
<path d="M414.412 314.837C424.507 314.141 431.144 303.558 437.09 293.811C441.1 287.267 444.281 280.583 446.493 275.431C450.365 265.963 448.844 256.216 447.876 250.785C446.77 244.798 444.004 236.443 428.517 238.253C421.188 239.228 414.827 242.291 387.447 259.418C375.555 271.254 335.869 286.431 313.744 282.672C313.744 282.672 316.233 306.482 313.882 317.761C311.531 329.04 306 336.002 306 336.002C353.845 328.761 384.129 313.166 401.137 312.191C401.137 312.052 407.36 315.255 414.412 314.837Z" fill="#FF8AA0"/>
<path d="M403.627 338.436C403.627 334 381.048 332.336 380.908 328.731C378.121 290.328 375.473 266.066 375.473 266.066C411.293 262.6 435.406 267.869 444.744 254.42C447.113 243.745 432.618 240.002 418.68 240.002C404.742 240.002 356.796 248.182 354.008 257.332C353.59 258.58 369.061 332.475 369.061 337.05C368.922 341.764 403.627 344.675 403.627 338.436Z" fill="#F6BB92"/>
<path d="M450.301 252.655C450.301 252.655 453.563 242.939 459 234.728L440.922 222.002C436.165 232.402 431 238.697 431 238.697C449.893 240.886 447.854 257.034 448.398 261.002L450.301 252.655Z" fill="#ECAD83"/>
<path d="M468.452 197.877C471.416 189.536 465.911 183.698 462.382 180.501C451.089 170.771 442.619 172.161 432.314 175.497C418.622 179.806 425.256 216.92 428.362 222.481C436.549 236.937 460.264 236.103 469.299 233.462C479.18 230.543 475.651 228.041 474.098 224.288C474.098 224.149 474.381 223.454 474.381 223.454C473.957 222.064 473.251 220.396 473.534 218.311C473.534 218.311 472.828 217.198 472.546 216.642C472.404 216.225 472.263 215.947 472.828 215.669C474.098 214.696 475.228 213.862 475.651 213.028C476.78 210.526 467.181 201.769 468.452 197.877Z" fill="#F6BB92"/>
<path d="M468 221.982C468 221.982 469.073 222.222 473.363 221.022C473.765 220.662 474.569 219.941 473.363 219.101C472.424 218.5 470.815 220.782 468 221.982Z" fill="#D6876B"/>
<path d="M468 222.19C468 222.19 469.712 224.27 474.135 223.973C474.705 223.676 474.991 223.082 474.991 222.785C475.134 221.15 473.564 221.002 473.564 221.002C469.141 222.487 468 222.19 468 222.19Z" fill="#CC785E"/>
<path d="M431.079 173.607C414.466 178.861 400.106 209.416 431.923 229.877C434.035 231.26 438.259 232.366 442.06 226.836C444.876 222.964 446.143 218.679 446.143 218.679C446.565 217.434 446.847 215.913 447.269 214.393C447.691 212.734 444.031 204.991 445.579 204.162C461.066 196.42 465.148 185.774 463.741 181.488C458.532 171.948 448.817 167.939 431.079 173.607Z" fill="#602F0F"/>
<path d="M442.321 215.578C446.966 222.295 449.886 221.581 454 219.723L448.16 208.861L444.577 205.002C440.595 206.86 437.808 208.861 442.321 215.578Z" fill="#F6BB92"/>
<path d="M414.08 206.633C409.422 204.572 408.624 196.192 412.35 187.949C416.076 179.568 422.864 174.485 427.521 176.408C432.179 178.469 431.913 185.063 428.187 193.444C424.594 201.824 418.738 208.694 414.08 206.633Z" fill="#4C230C"/>
<path d="M447.674 205.655C446.982 204.409 446.567 203.163 446.29 202.194C445.874 200.809 445.736 199.84 445.736 199.84L441.582 203.025C441.859 203.717 441.997 204.409 442.274 205.101C442.274 205.101 442.69 204.825 443.521 204.132C443.521 204.132 443.382 204.132 443.382 204.271C444.351 205.101 445.736 206.486 447.259 208.702C447.398 208.84 449.751 209.532 447.674 205.655Z" fill="#602F0F"/>
<path d="M410.844 207.316C405.721 205.239 405.029 195.962 409.183 186.824C413.475 177.685 421.09 171.869 426.214 173.946C431.337 176.023 430.921 183.362 426.629 192.501C422.475 201.778 415.967 209.532 410.844 207.316Z" fill="#602F0F"/>
<path d="M409.207 191.979C408.667 191.683 409.207 189.014 410.556 186.049C411.77 183.084 413.254 180.861 413.793 181.009C414.333 181.305 413.793 183.381 412.444 186.494C411.23 189.607 409.746 192.276 409.207 191.979Z" fill="#4C230C"/>
<path d="M21.6733 332.566C27.5065 329.473 42.9227 327.224 50.0058 322.303C54.1724 319.351 62.3666 314.149 67.2275 314.289C75.2829 314.571 78.4772 319.351 80.6994 319.913C94.3101 323.006 131.948 313.727 140.281 314.008C154.031 314.571 148.614 341.142 143.614 341.001C102.921 339.596 82.5049 337.346 75.2829 336.362C75.2829 336.362 32.923 339.877 27.6453 339.596C24.5899 339.174 16.5345 335.237 21.6733 332.566Z" fill="#F6BB92"/>
<path d="M185.702 309.776C169.727 308.388 153.752 313.382 140 314.353C141.945 318.793 144.445 336.688 143.334 340.988C148.335 341.127 186.397 340.156 186.397 340.156C198.621 341.127 284.191 336.965 289.331 336.688C294.47 336.411 299.888 336.272 306 335.439L294.609 283.002C270.161 285.499 229.321 307.972 218.208 309.914C207.095 311.718 185.702 309.776 185.702 309.776Z" fill="#3D3C3C"/>
</svg>
