<svg width="500" height="500" viewBox="0 0 500 500" fill="none" xmlns="http://www.w3.org/2000/svg">
<path d="M234.469 325.322C234.579 325.329 234.695 325.365 234.794 325.41L234.469 325.322Z" fill="#6A6D66"/>
<path d="M402.236 278.417C402.547 276.992 402.755 275.553 403.034 274.124C403.323 272.635 404.166 271.327 404.808 269.961C405.45 268.596 406.188 267.28 406.861 265.929C407.532 264.578 408.17 263.209 408.83 261.854C409.613 260.242 410.389 258.627 411.204 257.032C411.716 256.03 412.224 255.028 412.785 254.047C413.472 252.844 413.861 251.539 414.418 250.206C414.665 249.613 414.781 249.37 415.321 249.384C416.849 249.426 418.323 249.013 419.854 249.01C422.384 249.003 424.913 248.84 427.439 248.685C428.215 248.636 429.005 248.474 429.746 248.23C430.857 247.867 431.718 247.158 432.127 246.004C432.6 244.678 433.105 243.358 432.956 241.905C432.921 241.57 432.949 241.227 432.949 240.892C432.956 239.178 432.829 239.231 434.484 238.229C435.736 237.47 437.02 236.768 438.283 236.028C438.721 235.77 439.151 235.502 439.55 235.188C440.135 234.726 440.224 234.211 439.892 233.544C439.843 233.445 439.772 233.353 439.712 233.258C437.687 230.143 435.962 226.841 433.715 223.871C433.496 223.581 433.426 223.306 433.475 222.939C433.778 220.586 433.651 218.216 433.662 215.852C433.662 215.27 433.581 214.713 432.904 214.501C430.914 215.058 428.935 215.658 426.931 216.166C424.546 216.773 422.14 217.299 419.745 217.87C419.255 217.986 418.768 218.124 418.291 218.283C417.872 218.424 417.706 218.773 417.667 219.193C417.374 219.853 417.346 220.371 417.205 220.752C416.704 222.114 416.446 223.017 415.938 224.382C415.187 226.407 414.298 228.386 413.614 230.443C413.176 231.755 412.566 232.112 411.084 232.136C410.297 232.15 409.5 232.179 408.735 232.218C407.503 232.277 406.505 232.433 405.387 232.447C404.096 232.464 402.801 232.482 401.51 232.457C400.815 232.443 400.37 232.697 400.021 233.315C399.03 235.064 397.968 236.772 396.962 238.511C396.32 239.622 395.724 240.758 395.103 241.88C394.765 242.494 394.362 243.023 393.541 242.914C393.424 243.644 393.149 244.293 392.74 244.928C391.427 246.964 390.189 249.045 388.732 250.989C388.259 251.62 387.829 251.888 387.039 251.638C384.051 250.7 381.031 250.947 378.018 251.514C377.023 251.701 376.036 251.92 375.044 252.118C373.873 252.351 372.794 252.848 371.707 253.307C366.623 255.462 361.416 257.304 356.245 259.233C350.071 261.54 343.905 263.865 337.731 266.169C333.349 267.802 328.961 269.411 324.576 271.034C323.941 271.267 323.306 271.499 322.681 271.757C321.937 272.06 321.313 272.544 320.798 273.15C319.094 275.158 317.891 277.419 317.231 279.984C316.67 282.16 316 284.312 315.407 286.482C315.213 287.198 314.702 287.597 314.141 287.974C314.444 288.475 314.483 289.022 314.5 289.593C314.543 291.17 314.402 292.723 314.162 294.278C313.968 295.548 314.021 296.868 313.71 298.102C313.47 299.055 313.555 300 313.396 300.939C313.163 302.315 312.98 303.697 312.797 305.077C312.638 306.294 312.521 307.522 312.359 308.739C312.183 310.065 311.883 311.385 311.812 312.714C311.766 313.568 311.396 314.344 311.431 315.202C311.484 316.493 311.121 317.749 311.011 319.033C310.849 320.973 310.345 322.882 310.133 324.818C310.038 325.711 309.734 326.586 309.773 327.471C309.823 328.618 309.378 329.673 309.357 330.801C309.346 331.348 309.099 331.916 308.387 331.997C308.38 332.237 308.373 332.477 308.366 332.714C308.059 334.65 307.734 336.587 307.448 338.531C307.367 339.085 307.399 339.656 307.371 340.217C307.321 341.17 307.371 342.115 307.159 343.071C306.88 344.306 307.875 346.232 309.001 346.786C310.207 347.382 311.438 347.932 312.677 348.469C313.4 348.783 314.162 348.917 314.97 348.938C318.183 349.022 321.376 348.624 324.579 348.486C326.029 348.423 327.493 348.306 328.95 348.186C330.57 348.052 332.182 347.791 333.801 347.636C335.032 347.52 336.26 347.431 337.488 347.244C339.428 346.948 341.386 346.747 343.333 346.493C343.665 346.451 343.993 346.352 344.314 346.246C346.24 345.608 346.78 344.369 346.621 342.468C346.572 341.872 346.173 341.438 345.764 341.053C345.481 340.789 345.15 340.535 344.794 340.394C343.174 339.755 341.71 338.771 340.017 338.298C339.587 338.178 339.163 338.009 338.758 337.818C336.253 336.658 333.663 335.73 331.018 334.94C330.266 334.714 329.557 334.336 328.806 334.107C328.097 333.892 327.899 333.61 328.008 332.872C328.033 332.706 328.051 332.537 328.072 332.368C327.955 332.181 327.744 332.001 327.737 331.81C327.705 331.08 327.589 330.308 327.779 329.627C328.135 328.367 328.044 327.069 328.294 325.799C328.463 324.938 328.647 324.046 328.71 323.15C328.799 321.922 328.844 320.67 329.137 319.484C329.345 318.645 329.314 317.812 329.455 316.983C329.681 315.66 329.942 314.337 330.023 313.004C330.072 312.206 330.439 311.476 330.386 310.683C330.305 309.434 330.693 308.234 330.838 307.014C330.943 306.135 331.007 305.232 331.18 304.354C331.409 303.204 331.642 302.043 331.72 300.875C331.794 299.753 332.115 298.674 332.164 297.542C332.199 296.723 332.549 295.908 332.813 295.111C333 294.546 333.402 294.169 334.03 294.077C335.194 293.904 336.337 293.569 337.533 293.742C339.407 292.973 341.259 292.155 343.153 291.442C347.048 289.974 350.957 288.539 354.876 287.135C358.425 285.865 361.992 284.651 365.555 283.42C366.408 283.127 367.269 282.862 368.193 282.993C368.409 282.739 368.627 282.485 368.842 282.231C369.139 281.878 369.477 281.642 369.95 281.529C373.09 280.777 376.022 279.497 378.847 277.962C380.777 276.915 382.576 275.652 384.224 274.216C386.704 272.053 388.729 269.517 390.076 266.469C390.838 264.751 391.41 263.015 391.339 261.114C391.314 260.383 391.329 259.65 391.332 258.916C391.339 257.769 391.029 256.697 390.577 255.663C390.351 255.148 390.062 254.661 389.84 254.143C389.73 253.892 389.674 253.606 389.663 253.331C389.649 252.968 389.847 252.679 390.179 252.527C390.45 252.403 390.736 252.439 390.976 252.626C391.378 252.94 391.748 253.285 391.988 253.744C392.535 254.792 393.022 255.857 393.361 257.004C393.72 258.221 393.65 259.448 393.713 260.68C393.854 263.347 393.107 265.795 391.935 268.134C390.746 270.512 389.237 272.667 387.328 274.533C386.485 275.359 385.621 276.149 384.689 276.886C382.961 278.252 381.154 279.465 379.214 280.495C377.119 281.606 374.946 282.513 372.677 283.198C371.979 283.409 371.291 283.663 370.596 283.878C370.314 283.963 370.077 284.087 369.918 284.337C370.261 285.141 370.878 285.734 371.552 286.231C373.499 287.66 375.425 289.11 377.655 290.105C378.995 290.705 380.396 291.107 381.772 291.597C383.317 292.148 384.915 292.38 386.566 292.373C387.868 292.366 389.145 292.193 390.418 292.01C392.694 291.682 394.966 291.326 397.139 290.507C398.021 290.175 398.871 289.685 399.852 289.643C400.173 289.618 400.388 289.452 400.409 289.131" fill="#F6BB92"/>
<path d="M400.311 289.452C399.33 289.494 398.032 290.189 397.146 290.521C394.969 291.339 392.698 291.696 390.426 292.024C389.152 292.207 387.875 292.38 386.573 292.387C384.922 292.398 383.324 292.161 381.779 291.611C380.407 291.124 379.003 290.719 377.662 290.119C375.433 289.12 373.503 287.671 371.559 286.245C370.882 285.748 370.268 285.159 369.926 284.351C369.351 283.899 368.776 283.451 368.197 283.003C367.273 282.873 366.409 283.134 365.558 283.43C361.995 284.661 358.429 285.875 354.88 287.145C350.96 288.549 347.052 289.985 343.157 291.452C341.262 292.165 339.41 292.983 337.537 293.752C337.509 294.088 337.484 294.426 337.456 294.761C337.555 294.962 337.671 295.16 337.749 295.372C339.368 299.87 340.977 304.371 342.6 308.869C344.582 314.369 346.593 319.862 348.547 325.372C348.995 326.635 349.563 327.873 349.715 329.231C350.819 329.023 351.927 328.812 353.031 328.61C357.3 327.827 361.568 327.044 365.837 326.272C368.165 325.852 370.501 325.453 372.829 325.044C373.944 324.846 375.073 324.811 376.202 324.808C377.161 324.804 378.121 324.793 379.077 324.786C381.79 324.765 384.291 323.929 386.662 322.712C389.995 321.005 392.666 318.549 394.536 315.282C395.513 313.575 396.275 311.786 396.705 309.829" fill="#8A8AD9"/>
<path d="M417.67 219.193C417.709 218.773 417.875 218.423 418.295 218.282C418.771 218.124 419.258 217.986 419.748 217.87C422.144 217.298 424.55 216.772 426.934 216.166C428.935 215.658 430.917 215.058 432.907 214.501C433.122 213.298 432.882 212.112 432.752 210.927C432.106 210.454 431.969 209.812 432.141 209.071C432.085 208.846 432.032 208.62 431.976 208.397C431.651 208.302 431.542 208.094 431.662 207.773C431.252 206.898 430.843 206.023 430.434 205.152C430.092 205.021 429.855 204.82 429.947 204.404C429.058 203.063 428.106 201.779 426.924 200.675C426.437 200.224 425.989 199.73 425.523 199.257C425.068 199.338 424.842 199.137 424.825 198.682C424.271 198.297 423.717 197.916 423.163 197.532C422.705 197.655 422.493 197.444 422.44 197.006C421.66 196.622 420.884 196.237 420.105 195.853C419.674 195.976 419.448 195.775 419.346 195.376C418.38 195.031 417.413 194.685 416.446 194.343C415.783 194.583 415.293 194.325 414.894 193.8C413.818 193.676 412.742 193.556 411.666 193.433C410.534 193.704 409.398 193.697 408.265 193.44C407.017 193.584 405.771 193.729 404.522 193.874C403.947 194.498 403.249 194.6 402.469 194.346C401.912 194.41 401.351 194.473 400.794 194.537C399.968 195.059 399.453 195.186 398.437 195.122C398.208 195.158 397.978 195.197 397.749 195.232C397.259 195.616 396.74 195.92 396.08 195.824C395.851 195.86 395.622 195.891 395.389 195.927C394.966 197.017 394.147 197.793 393.244 198.46C392.747 198.827 392.288 199.229 391.833 199.638C390.147 201.151 388.884 203.004 387.723 204.912C386.767 206.485 386.037 208.189 385.903 210.087C385.857 210.754 385.649 211.407 385.247 211.964C385.046 212.246 384.883 212.529 384.887 212.881C384.894 214.966 384.887 217.048 384.915 219.129C384.919 219.517 385 219.919 385.13 220.283C385.395 221.03 385.518 221.803 385.67 222.576C385.871 223.616 385.903 224.692 386.439 225.662C386.615 225.984 386.644 226.439 386.22 226.717C386.259 226.925 386.294 227.134 386.333 227.342C387.243 227.836 387.275 227.903 386.996 228.749C386.989 228.964 386.982 229.176 386.975 229.391L387.053 229.353C387.79 229.614 387.959 230.28 388.189 230.915C388.563 231.956 388.923 232.997 389.466 233.977C390.686 236.175 391.854 238.401 393.025 240.624C393.216 240.984 393.449 241.28 393.773 241.513C393.988 241.668 394.211 241.601 394.394 241.467C394.525 241.372 394.641 241.231 394.722 241.089C395.886 238.987 397.188 236.962 398.254 234.803C398.624 234.052 399.104 233.353 399.576 232.662C399.866 232.238 400.25 231.907 400.822 231.896C402.448 231.868 404.067 231.677 405.687 231.579C407.701 231.459 409.701 231.042 411.733 231.198C411.79 231.201 411.846 231.194 411.903 231.191C412.262 231.166 412.506 231.021 412.693 230.675C413.116 229.882 413.261 228.979 413.621 228.188C414.478 226.315 415.095 224.361 415.854 222.456C416.203 221.577 416.598 220.713 416.908 219.813C417.021 219.482 417.346 219.312 417.67 219.193Z" fill="#7A4821"/>
<path d="M101.465 265.636C101.934 264.246 102.724 263.015 103.401 261.731C104.58 259.505 105.814 257.307 107.024 255.098C107.698 253.871 108.344 252.629 109.056 251.426C109.54 250.615 110.122 249.86 110.662 249.08C110.016 247.595 109.438 246.078 108.7 244.639C108.291 243.841 108.231 242.899 107.628 242.197C106.89 239.837 105.275 238.084 103.391 236.662C101.786 235.449 99.8701 234.634 97.8029 234.556C95.4392 234.468 93.0545 234.39 90.705 234.598C88.68 234.778 86.6445 234.666 84.6477 234.916C82.4005 235.198 80.1428 235.018 77.9167 235.265C74.9358 235.593 71.9512 235.378 68.9773 235.569C66.529 235.724 64.2148 236.387 62.4438 238.253C60.5635 240.236 59.6569 242.596 59.9779 245.327C60.1437 246.745 60.7999 248.018 61.6183 249.179C62.7896 250.837 64.4229 251.821 66.3385 252.481C68.621 253.264 70.8435 254.227 73.0978 255.098C75.7189 256.114 78.3436 257.113 80.9647 258.122C81.3316 258.263 81.6915 258.425 82.0584 258.563C84.4749 259.462 86.909 260.316 89.3009 261.276C90.7543 261.858 92.2078 262.443 93.6647 263.011C95.3898 263.682 97.129 264.324 98.8541 264.99C99.6338 265.294 100.399 265.632 101.168 265.953C101.267 265.848 101.366 265.738 101.465 265.632V265.636Z" fill="#F6BB92"/>
<path d="M394.631 193.538C394.874 192.314 394.581 191.171 393.992 190.116C391.879 186.345 388.771 184.172 384.337 184.01C381.663 183.915 379.204 184.514 376.876 185.795C375.26 186.684 373.997 187.971 372.861 189.376C371.51 191.044 370.455 192.889 369.591 194.879C368.18 198.121 367.439 201.504 366.931 204.979C366.352 208.948 366.049 212.938 365.707 216.928C365.544 218.836 365.326 220.812 365.107 222.717C364.923 224.318 364.916 225.525 364.687 227.006C364.616 227.451 364.486 227.888 364.426 228.333C364.338 228.996 364.525 229.589 365.096 229.963C365.664 230.333 366.267 230.298 366.843 229.913C367.922 229.194 368.987 228.467 369.933 227.564C372.222 225.387 374.41 223.108 376.583 220.815C378.795 218.483 380.989 216.13 383.19 213.788C383.314 213.583 383.437 213.382 383.561 213.178C383.275 213.132 383.024 213.033 382.866 212.761C382.629 212.363 382.566 211.932 382.531 211.47C382.404 209.77 382.591 208.083 382.95 206.446C383.607 203.49 384.965 200.862 387.067 198.636C388.464 197.154 390.108 195.965 391.72 194.759C392.549 194.138 393.498 193.549 394.631 193.535V193.538Z" fill="#7A4821"/>
<path d="M293.295 292.7C293.245 293.713 293.196 294.722 293.154 295.734C293.094 297.138 293.175 298.546 292.938 299.943C292.847 300.49 292.871 301.068 292.924 301.626C293.143 303.926 293.171 306.226 292.924 308.526C292.871 309.027 292.907 309.539 292.903 310.043C292.871 317.247 292.84 324.447 292.804 331.651C297.772 331.651 302.742 331.651 307.709 331.654C307.752 330.31 307.649 328.966 308.009 327.629C308.196 326.945 308.26 326.183 308.298 325.477C308.369 324.182 308.69 322.93 308.754 321.635C308.814 320.408 309.008 319.187 309.18 317.966C309.343 316.806 309.639 315.656 309.724 314.488C309.812 313.257 310.066 312.05 310.168 310.816C310.327 308.872 310.821 306.96 311.068 305.02C311.389 302.522 311.706 300.028 312.073 297.537C312.433 295.103 312.74 292.662 313.117 290.228C313.23 289.508 313.594 288.834 313.502 288.079C312.377 288.15 311.322 288.534 310.246 288.809C306.348 289.804 302.467 290.855 298.572 291.854C297.331 292.171 296.068 292.418 294.805 292.644C294.318 292.732 293.803 292.679 293.298 292.69L293.295 292.7Z" fill="#F6BB92"/>
<path d="M394.63 193.538C393.494 193.552 392.549 194.141 391.72 194.762C390.104 195.969 388.464 197.158 387.067 198.639C384.968 200.865 383.606 203.493 382.95 206.45C382.586 208.083 382.403 209.773 382.53 211.473C382.565 211.932 382.629 212.362 382.865 212.765C383.024 213.033 383.274 213.131 383.56 213.181C384.001 213.068 384.386 212.715 384.886 212.881C384.886 212.525 385.045 212.246 385.246 211.964C385.648 211.406 385.853 210.754 385.902 210.087C386.037 208.189 386.767 206.485 387.723 204.912C388.883 203.003 390.146 201.151 391.833 199.638C392.291 199.228 392.746 198.826 393.244 198.459C394.143 197.796 394.965 197.016 395.389 195.926C395.135 195.133 395.135 194.258 394.63 193.542V193.538Z" fill="#5C3717"/>
<path d="M313.498 288.09C313.59 288.845 313.223 289.515 313.114 290.238C312.736 292.669 312.429 295.114 312.07 297.548C311.703 300.039 311.385 302.533 311.064 305.03C310.817 306.971 310.323 308.883 310.165 310.827C310.062 312.058 309.808 313.264 309.72 314.499C309.635 315.667 309.343 316.813 309.177 317.977C309.004 319.198 308.81 320.419 308.75 321.646C308.686 322.937 308.365 324.193 308.295 325.488C308.256 326.194 308.189 326.956 308.006 327.64C307.642 328.977 307.745 330.321 307.706 331.665C307.857 331.93 308.115 331.997 308.39 332.014C309.103 331.933 309.35 331.365 309.36 330.819C309.381 329.69 309.829 328.631 309.777 327.488C309.738 326.603 310.041 325.728 310.136 324.835C310.345 322.899 310.849 320.987 311.015 319.05C311.124 317.766 311.488 316.51 311.435 315.219C311.399 314.361 311.766 313.585 311.816 312.732C311.886 311.402 312.186 310.082 312.362 308.756C312.525 307.539 312.638 306.315 312.8 305.094C312.983 303.711 313.167 302.328 313.4 300.956C313.558 300.017 313.474 299.072 313.714 298.119C314.024 296.885 313.971 295.565 314.165 294.295C314.405 292.74 314.546 291.184 314.504 289.61C314.49 289.039 314.447 288.489 314.144 287.991C313.929 288.026 313.714 288.062 313.498 288.097V288.09Z" fill="#DEA882"/>
<path d="M329.374 331.651C329.522 330.374 329.624 329.086 329.829 327.816C330.037 326.546 330.316 325.297 330.428 324.006C330.531 322.842 330.866 321.699 330.989 320.535C331.106 319.42 331.226 318.309 331.395 317.201C331.603 315.822 331.755 314.435 332.012 313.056C332.238 311.849 332.295 310.611 332.439 309.387C332.563 308.332 332.647 307.263 332.856 306.226C333.131 304.854 333.205 303.446 333.487 302.084C333.759 300.762 333.695 299.41 334.044 298.095C334.228 297.407 334.122 296.638 334.14 295.907C334.15 295.456 334.341 295.219 334.803 295.082C335.678 294.821 336.553 294.683 337.463 294.757C337.491 294.422 337.516 294.083 337.544 293.748C336.348 293.575 335.201 293.911 334.041 294.083C333.413 294.175 333.011 294.553 332.824 295.117C332.559 295.914 332.21 296.729 332.175 297.548C332.125 298.68 331.808 299.756 331.73 300.882C331.653 302.049 331.42 303.21 331.19 304.36C331.014 305.242 330.954 306.141 330.848 307.02C330.7 308.24 330.316 309.436 330.397 310.689C330.45 311.483 330.083 312.213 330.033 313.01C329.952 314.344 329.691 315.666 329.465 316.989C329.324 317.818 329.356 318.651 329.148 319.491C328.851 320.676 328.809 321.928 328.721 323.156C328.657 324.052 328.474 324.945 328.305 325.805C328.054 327.075 328.146 328.374 327.79 329.633C327.599 330.314 327.716 331.086 327.747 331.817C327.754 332.007 327.966 332.187 328.082 332.374C328.407 332.335 329.056 332.413 329.381 332.374C329.381 332.113 329.409 331.831 329.381 331.647L329.374 331.651Z" fill="#DEA882"/>
<path d="M417.67 219.192C417.342 219.312 417.021 219.482 416.908 219.813C416.598 220.713 416.203 221.574 415.853 222.456C415.095 224.361 414.474 226.315 413.62 228.188C413.26 228.978 413.116 229.882 412.692 230.675C412.509 231.021 412.262 231.169 411.902 231.19C411.846 231.194 411.789 231.201 411.733 231.197C409.701 231.042 407.701 231.458 405.686 231.578C404.071 231.674 402.451 231.868 400.821 231.896C400.25 231.907 399.865 232.238 399.576 232.661C399.103 233.356 398.624 234.055 398.253 234.803C397.188 236.965 395.886 238.987 394.722 241.089C394.641 241.234 394.528 241.372 394.394 241.467C394.21 241.601 393.988 241.671 393.773 241.513C393.448 241.28 393.216 240.984 393.025 240.624C391.854 238.401 390.683 236.175 389.465 233.977C388.922 233 388.562 231.956 388.188 230.915C387.959 230.277 387.786 229.613 387.052 229.352C386.915 229.589 386.943 229.843 386.985 230.097C387.37 230.471 387.606 230.915 387.599 231.466C387.705 231.797 387.811 232.129 387.917 232.46C388.22 232.58 388.312 232.824 388.305 233.124C388.566 233.416 388.569 233.804 388.672 234.154C389.473 234.736 389.723 235.628 389.998 236.507C390.062 236.708 390.125 236.909 390.189 237.11C390.503 237.251 390.679 237.484 390.693 237.833C390.841 238.161 390.986 238.489 391.134 238.817C391.512 238.92 391.702 239.163 391.681 239.562C391.748 239.759 391.815 239.957 391.878 240.154C392.394 240.37 392.718 240.708 392.633 241.315C392.813 241.918 393.424 242.278 393.54 242.92C394.362 243.03 394.764 242.5 395.103 241.887C395.724 240.765 396.32 239.625 396.962 238.518C397.971 236.778 399.033 235.071 400.021 233.321C400.37 232.704 400.811 232.45 401.509 232.464C402.801 232.492 404.095 232.475 405.386 232.453C406.505 232.439 407.588 232.213 408.734 232.224C409.972 232.235 410.301 232.157 411.084 232.143C412.565 232.118 413.176 231.762 413.613 230.45C414.298 228.393 415.187 226.414 415.938 224.389C416.446 223.024 416.802 221.789 417.303 220.424C417.444 220.039 417.787 219.595 417.663 219.196L417.67 219.192Z" fill="#7A4822"/>
<path d="M308.394 332.011C308.115 331.99 307.861 331.926 307.71 331.662C302.742 331.662 297.772 331.662 292.805 331.658C292.692 331.859 292.575 332.057 292.462 332.258C292.473 332.378 292.484 332.501 292.494 332.621C297.112 332.635 301.733 332.646 306.351 332.664C307.025 332.664 307.699 332.709 308.376 332.734C308.383 332.494 308.39 332.258 308.397 332.018L308.394 332.011Z" fill="#F7BE97"/>
<path d="M368.2 283.007C368.775 283.455 369.35 283.906 369.929 284.354C370.088 284.104 370.324 283.98 370.606 283.896C371.305 283.68 371.989 283.426 372.688 283.215C374.956 282.53 377.129 281.624 379.225 280.512C381.169 279.482 382.975 278.265 384.7 276.903C385.631 276.166 386.495 275.376 387.339 274.55C389.244 272.684 390.754 270.525 391.946 268.151C393.117 265.812 393.861 263.364 393.724 260.697C393.66 259.466 393.731 258.234 393.371 257.021C393.032 255.874 392.546 254.809 391.999 253.761C391.759 253.303 391.385 252.957 390.986 252.643C390.746 252.456 390.464 252.421 390.189 252.544C389.854 252.696 389.66 252.982 389.674 253.348C389.685 253.62 389.741 253.909 389.85 254.16C390.073 254.675 390.362 255.165 390.588 255.68C391.039 256.714 391.35 257.79 391.343 258.933C391.339 259.667 391.321 260.401 391.35 261.131C391.417 263.036 390.845 264.768 390.087 266.486C388.736 269.534 386.711 272.07 384.234 274.233C382.587 275.669 380.791 276.928 378.858 277.979C376.032 279.514 373.097 280.795 369.961 281.546C369.485 281.659 369.146 281.895 368.853 282.248C368.638 282.502 368.419 282.756 368.204 283.01L368.2 283.007Z" fill="#DEA882"/>
<path d="M103.401 261.731C104.579 259.505 105.814 257.307 107.024 255.098C107.698 253.871 108.344 252.629 109.056 251.426C109.54 250.615 110.122 249.86 110.661 249.08C111.755 249.645 112.792 250.308 114.002 250.65C117.198 251.557 120.366 252.566 123.573 253.437C131.288 255.539 139.12 257.205 146.772 259.551C147.149 259.667 147.537 259.741 147.918 259.847C151.718 260.902 155.535 261.897 159.31 263.032C164.435 264.578 169.452 266.44 174.416 268.455C178.19 269.986 181.782 271.841 185.228 273.997C186.9 275.041 188.625 275.994 190.375 276.907C191.786 277.645 193.212 277.937 194.778 277.645C195.438 277.521 196.122 277.486 196.796 277.465C202.603 277.281 208.392 276.847 214.181 276.399C220.305 275.923 226.426 275.38 232.546 274.854C238.78 274.321 245.01 273.775 251.244 273.238C251.692 273.2 252.147 273.171 252.595 273.214C255.512 273.485 258.412 273.873 261.255 274.621C262.349 274.907 263.436 275.193 264.476 275.627C268.124 277.144 271.645 278.922 275.039 280.943C278.669 283.106 282.288 285.286 285.904 287.469C287.545 288.457 289.192 289.441 290.801 290.479C291.739 291.085 292.748 291.639 293.298 292.698V332.611L289.958 332.018C257.385 329.722 198.905 313.568 198.905 313.568C196.514 313.127 195.215 312.27 193.36 311.649C192.351 311.314 191.359 310.897 190.379 310.509C189.342 310.1 188.28 309.744 187.239 309.335C184.59 308.283 181.916 307.303 179.287 306.181C177.139 305.264 175.008 304.276 172.821 303.436C172.211 303.2 171.597 302.889 170.99 302.597C167.515 300.917 164.058 299.203 160.654 297.379C158.629 296.296 156.618 295.174 154.579 294.126C151.044 292.31 147.558 290.405 144.077 288.496C141.618 287.148 139.162 285.804 136.686 284.485C133.476 282.777 130.195 281.197 127.055 279.37C124.875 278.1 122.61 276.995 120.416 275.757C117.646 274.194 114.863 272.624 111.949 271.309C110.577 270.688 109.321 269.813 107.998 269.083C106.428 268.222 104.851 267.368 103.253 266.564C102.653 266.264 102.198 265.685 101.475 265.636C101.944 264.246 102.734 263.015 103.412 261.731H103.401Z" fill="#6A6D66"/>
<path d="M393.544 242.921C393.544 242.921 387.832 236.105 386.315 228.711C384.798 221.316 384.259 218.441 384.886 212.882C385.514 207.322 395.389 195.931 395.389 195.931C395.389 195.931 401.351 193.115 408.939 192.974C418.489 192.794 426.599 197.991 430.43 205.152C434.261 212.314 433.521 215.002 433.521 215.002L401.647 220.332L391.575 232.097L393.544 242.921Z" fill="#7A4821"/>
<path d="M329.373 331.651C329.522 330.374 329.624 329.086 329.829 327.816C330.037 326.546 330.315 325.297 330.428 324.006C330.531 322.842 330.866 321.699 330.989 320.535C331.106 319.42 331.226 318.309 331.395 317.201C331.603 315.822 331.755 314.435 332.012 313.056C332.238 311.849 332.294 310.611 332.439 309.387C332.563 308.332 332.647 307.263 332.855 306.226C333.131 304.854 333.205 303.446 333.487 302.084C333.758 300.762 333.695 299.41 334.044 298.095C334.228 297.407 334.122 296.638 334.139 295.907C334.15 295.456 334.341 295.219 334.803 295.082C335.678 294.821 336.552 294.683 337.463 294.757C337.561 294.958 337.678 295.156 337.755 295.368C339.375 299.865 340.983 304.367 342.606 308.865C344.589 314.365 346.6 319.857 348.554 325.368C349.002 326.631 349.57 327.869 349.722 329.227C349.492 329.255 349.267 329.284 349.037 329.312L329.377 332.374L329.416 331.637C329.416 331.637 329.391 331.644 329.377 331.647L329.373 331.651Z" fill="#F7BE97"/>
</svg>
