<svg width="500" height="500" viewBox="0 0 500 500" fill="none" xmlns="http://www.w3.org/2000/svg">
<path d="M234.469 352.06C234.578 352.067 234.695 352.102 234.793 352.148Z" fill="#6A6D66"/>
<path d="M402.236 305.155C402.546 303.729 402.755 302.29 403.033 300.861C403.323 299.373 404.166 298.064 404.808 296.699C405.45 295.333 406.187 294.017 406.861 292.666C407.531 291.315 408.17 289.946 408.829 288.592C409.613 286.98 410.389 285.364 411.204 283.769C411.715 282.767 412.223 281.765 412.784 280.785C413.472 279.582 413.86 278.276 414.417 276.943C414.664 276.35 414.781 276.107 415.321 276.121C416.848 276.163 418.323 275.751 419.854 275.747C422.383 275.74 424.913 275.578 427.438 275.423C428.215 275.373 429.005 275.211 429.746 274.967C430.857 274.604 431.718 273.895 432.127 272.741C432.6 271.415 433.104 270.096 432.956 268.642C432.921 268.307 432.949 267.965 432.949 267.63C432.956 265.915 432.829 265.968 434.483 264.966C435.736 264.208 437.02 263.506 438.283 262.765C438.72 262.507 439.151 262.239 439.549 261.925C440.135 261.463 440.223 260.948 439.892 260.281C439.842 260.182 439.772 260.091 439.712 259.996C437.687 256.88 435.962 253.578 433.714 250.608C433.496 250.319 433.425 250.044 433.475 249.677C433.778 247.324 433.651 244.953 433.662 242.589C433.662 242.007 433.58 241.45 432.903 241.238C430.913 241.796 428.934 242.395 426.93 242.903C424.546 243.51 422.14 244.036 419.744 244.607C419.254 244.724 418.767 244.861 418.291 245.02C417.871 245.161 417.705 245.51 417.667 245.93C417.374 246.59 417.345 247.109 417.204 247.49C416.703 248.851 416.446 249.754 415.938 251.12C415.186 253.145 414.297 255.124 413.613 257.18C413.176 258.493 412.565 258.849 411.084 258.874C410.297 258.888 409.5 258.916 408.734 258.955C407.503 259.015 406.505 259.17 405.386 259.184C404.095 259.202 402.8 259.219 401.509 259.195C400.814 259.181 400.37 259.435 400.021 260.052C399.029 261.802 397.967 263.509 396.962 265.248C396.32 266.36 395.724 267.496 395.103 268.617C394.764 269.231 394.362 269.76 393.54 269.651C393.424 270.381 393.148 271.03 392.739 271.665C391.427 273.701 390.189 275.782 388.732 277.726C388.259 278.358 387.829 278.626 387.038 278.375C384.05 277.437 381.03 277.684 378.018 278.252C377.023 278.439 376.035 278.657 375.044 278.855C373.873 279.088 372.793 279.585 371.707 280.044C366.623 282.199 361.416 284.041 356.244 285.971C350.071 288.278 343.904 290.603 337.73 292.906C333.349 294.54 328.96 296.148 324.575 297.771C323.94 298.004 323.305 298.237 322.681 298.494C321.937 298.798 321.312 299.281 320.797 299.888C319.093 301.895 317.89 304.156 317.23 306.721C316.67 308.898 315.999 311.05 315.407 313.219C315.213 313.935 314.701 314.334 314.14 314.711C314.444 315.212 314.482 315.759 314.5 316.331C314.542 317.908 314.401 319.46 314.161 321.016C313.967 322.286 314.02 323.605 313.71 324.84C313.47 325.792 313.555 326.738 313.396 327.676C313.163 329.052 312.979 330.435 312.796 331.814C312.637 333.031 312.521 334.259 312.359 335.476C312.182 336.802 311.882 338.122 311.812 339.452C311.766 340.306 311.396 341.082 311.431 341.939C311.484 343.23 311.12 344.486 311.011 345.77C310.849 347.71 310.344 349.619 310.133 351.556C310.037 352.448 309.734 353.323 309.773 354.209C309.822 355.355 309.378 356.41 309.356 357.539C309.346 358.086 309.099 358.654 308.386 358.735C308.379 358.975 308.372 359.214 308.365 359.451C308.058 361.388 307.734 363.324 307.448 365.268C307.367 365.822 307.399 366.394 307.37 366.954C307.321 367.907 307.37 368.852 307.159 369.808C306.88 371.043 307.875 372.969 309 373.523C310.207 374.119 311.438 374.67 312.676 375.206C313.399 375.52 314.161 375.654 314.969 375.675C318.183 375.76 321.376 375.361 324.579 375.224C326.029 375.16 327.493 375.044 328.95 374.924C330.569 374.79 332.181 374.529 333.8 374.373C335.032 374.257 336.259 374.169 337.487 373.982C339.427 373.685 341.385 373.484 343.333 373.23C343.664 373.188 343.992 373.089 344.313 372.983C346.239 372.345 346.779 371.107 346.62 369.205C346.571 368.609 346.172 368.175 345.763 367.791C345.481 367.526 345.149 367.272 344.793 367.131C343.174 366.492 341.71 365.508 340.016 365.035C339.586 364.915 339.163 364.746 338.757 364.556C336.252 363.395 333.663 362.467 331.017 361.677C330.266 361.451 329.557 361.074 328.805 360.844C328.096 360.629 327.899 360.347 328.008 359.61C328.033 359.444 328.05 359.274 328.071 359.105C327.955 358.918 327.743 358.738 327.736 358.548C327.704 357.817 327.588 357.045 327.779 356.364C328.135 355.105 328.043 353.806 328.294 352.536C328.463 351.676 328.646 350.783 328.71 349.887C328.798 348.659 328.844 347.407 329.137 346.222C329.345 345.382 329.313 344.549 329.454 343.72C329.68 342.398 329.941 341.075 330.022 339.741C330.072 338.944 330.439 338.214 330.386 337.42C330.304 336.171 330.693 334.972 330.837 333.751C330.943 332.872 331.006 331.969 331.179 331.091C331.409 329.941 331.641 328.78 331.719 327.613C331.793 326.491 332.114 325.411 332.164 324.279C332.199 323.46 332.548 322.645 332.813 321.848C333 321.284 333.402 320.906 334.03 320.815C335.194 320.642 336.337 320.307 337.533 320.479C339.406 319.71 341.258 318.892 343.153 318.179C347.047 316.712 350.956 315.276 354.875 313.872C358.424 312.602 361.991 311.388 365.554 310.157C366.408 309.864 367.269 309.6 368.193 309.73C368.408 309.476 368.627 309.222 368.842 308.968C369.138 308.615 369.477 308.379 369.95 308.266C373.089 307.515 376.021 306.234 378.847 304.7C380.776 303.652 382.576 302.389 384.223 300.953C386.703 298.791 388.728 296.254 390.076 293.206C390.838 291.488 391.409 289.752 391.339 287.851C391.314 287.121 391.328 286.387 391.332 285.653C391.339 284.507 391.028 283.434 390.577 282.4C390.351 281.885 390.062 281.399 389.839 280.88C389.73 280.63 389.674 280.344 389.663 280.069C389.649 279.705 389.846 279.416 390.178 279.264C390.45 279.141 390.735 279.176 390.975 279.363C391.377 279.677 391.748 280.023 391.988 280.481C392.535 281.529 393.021 282.594 393.36 283.741C393.72 284.958 393.649 286.186 393.713 287.417C393.854 290.084 393.106 292.532 391.935 294.871C390.746 297.249 389.236 299.404 387.328 301.271C386.484 302.096 385.62 302.886 384.689 303.624C382.96 304.989 381.154 306.202 379.214 307.233C377.118 308.344 374.945 309.25 372.677 309.935C371.978 310.146 371.29 310.4 370.595 310.616C370.313 310.7 370.077 310.824 369.918 311.074C370.26 311.879 370.878 312.471 371.551 312.969C373.499 314.397 375.425 315.847 377.654 316.842C378.995 317.442 380.395 317.844 381.771 318.334C383.316 318.885 384.915 319.118 386.566 319.111C387.867 319.104 389.144 318.931 390.418 318.747C392.693 318.419 394.965 318.063 397.138 317.244C398.02 316.913 398.87 316.422 399.851 316.38C400.172 316.355 400.387 316.19 400.409 315.869" fill="#F6BB92"/>
<path d="M400.31 316.189C399.329 316.232 398.031 316.927 397.145 317.258C394.969 318.077 392.697 318.433 390.425 318.761C389.151 318.945 387.874 319.117 386.572 319.124C384.921 319.135 383.323 318.899 381.778 318.348C380.406 317.862 379.002 317.456 377.661 316.856C375.432 315.858 373.502 314.408 371.558 312.983C370.881 312.485 370.267 311.896 369.925 311.088C369.35 310.637 368.775 310.189 368.196 309.741C367.272 309.61 366.408 309.871 365.557 310.167C361.994 311.399 358.428 312.612 354.879 313.882C350.959 315.286 347.051 316.722 343.156 318.19C341.262 318.902 339.409 319.721 337.536 320.49C337.508 320.825 337.483 321.164 337.455 321.499C337.554 321.7 337.67 321.897 337.748 322.109C339.367 326.607 340.976 331.108 342.599 335.606C344.581 341.106 346.592 346.599 348.546 352.109C348.994 353.372 349.562 354.61 349.714 355.969C350.818 355.761 351.926 355.549 353.03 355.348C357.299 354.565 361.567 353.781 365.836 353.009C368.164 352.589 370.5 352.19 372.828 351.781C373.943 351.584 375.072 351.548 376.201 351.545C377.16 351.541 378.12 351.531 379.076 351.524C381.789 351.502 384.29 350.666 386.661 349.449C389.994 347.742 392.665 345.287 394.535 342.02C395.512 340.312 396.274 338.524 396.704 336.566" fill="#8A8AD9"/>
<path d="M417.67 245.93C417.709 245.51 417.875 245.161 418.294 245.02C418.771 244.861 419.258 244.723 419.748 244.607C422.143 244.035 424.549 243.51 426.934 242.903C428.934 242.395 430.917 241.795 432.907 241.238C433.122 240.035 432.882 238.85 432.751 237.664C432.106 237.191 431.968 236.549 432.141 235.809C432.085 235.583 432.032 235.357 431.975 235.135C431.651 235.04 431.541 234.831 431.661 234.51C431.252 233.635 430.843 232.761 430.434 231.889C430.091 231.759 429.855 231.558 429.947 231.141C429.058 229.801 428.105 228.517 426.923 227.412C426.437 226.961 425.989 226.467 425.523 225.994C425.068 226.075 424.842 225.874 424.824 225.419C424.27 225.035 423.717 224.654 423.163 224.269C422.704 224.393 422.492 224.181 422.44 223.744C421.66 223.359 420.884 222.975 420.104 222.59C419.674 222.713 419.448 222.512 419.346 222.114C418.379 221.768 417.412 221.422 416.446 221.08C415.783 221.32 415.292 221.062 414.894 220.537C413.818 220.413 412.742 220.293 411.666 220.17C410.533 220.442 409.397 220.435 408.265 220.177C407.016 220.322 405.771 220.466 404.522 220.611C403.947 221.235 403.248 221.338 402.469 221.084C401.911 221.147 401.35 221.211 400.793 221.274C399.968 221.796 399.453 221.923 398.437 221.86C398.207 221.895 397.978 221.934 397.749 221.969C397.258 222.354 396.74 222.657 396.08 222.562C395.851 222.597 395.621 222.629 395.389 222.664C394.965 223.754 394.147 224.53 393.244 225.197C392.746 225.564 392.288 225.966 391.833 226.375C390.146 227.889 388.883 229.741 387.723 231.649C386.767 233.223 386.036 234.927 385.902 236.825C385.856 237.491 385.648 238.144 385.246 238.701C385.045 238.984 384.883 239.266 384.886 239.619C384.893 241.704 384.886 243.785 384.915 245.866C384.918 246.254 384.999 246.657 385.13 247.02C385.394 247.768 385.518 248.54 385.669 249.313C385.871 250.354 385.902 251.43 386.439 252.4C386.615 252.721 386.643 253.176 386.22 253.455C386.259 253.663 386.294 253.871 386.333 254.079C387.243 254.573 387.275 254.64 386.996 255.487C386.989 255.702 386.982 255.913 386.975 256.129L387.052 256.09C387.79 256.351 387.959 257.018 388.188 257.653C388.562 258.693 388.922 259.734 389.465 260.715C390.686 262.913 391.854 265.139 393.025 267.361C393.215 267.721 393.448 268.017 393.773 268.25C393.988 268.405 394.21 268.338 394.394 268.204C394.524 268.109 394.641 267.968 394.722 267.827C395.886 265.724 397.188 263.699 398.253 261.54C398.623 260.789 399.103 260.09 399.576 259.399C399.865 258.976 400.25 258.644 400.821 258.633C402.448 258.605 404.067 258.415 405.686 258.316C407.7 258.196 409.701 257.78 411.733 257.935C411.789 257.938 411.846 257.931 411.902 257.928C412.262 257.903 412.505 257.758 412.692 257.413C413.116 256.619 413.26 255.716 413.62 254.926C414.477 253.052 415.095 251.098 415.853 249.193C416.202 248.315 416.598 247.45 416.908 246.551C417.021 246.219 417.345 246.05 417.67 245.93Z" fill="#7A4821"/>
<path d="M101.464 292.373C101.933 290.983 102.724 289.752 103.401 288.468C104.579 286.242 105.814 284.044 107.024 281.836C107.698 280.608 108.343 279.366 109.056 278.163C109.539 277.352 110.121 276.597 110.661 275.817C110.016 274.332 109.437 272.815 108.7 271.376C108.29 270.579 108.23 269.637 107.627 268.935C106.89 266.575 105.274 264.821 103.39 263.4C101.785 262.186 99.8697 261.371 97.8024 261.293C95.4388 261.205 93.054 261.128 90.7045 261.336C88.6795 261.516 86.644 261.403 84.6473 261.653C82.4001 261.936 80.1423 261.756 77.9163 262.003C74.9353 262.331 71.9507 262.115 68.9768 262.306C66.5285 262.461 64.2143 263.124 62.4433 264.991C60.563 266.973 59.6564 269.333 59.9774 272.064C60.1432 273.482 60.7994 274.756 61.6179 275.916C62.7891 277.574 64.4225 278.558 66.338 279.218C68.6205 280.001 70.843 280.964 73.0973 281.836C75.7184 282.852 78.3431 283.85 80.9642 284.859C81.3311 285 81.691 285.162 82.0579 285.3C84.4744 286.2 86.9085 287.053 89.3004 288.013C90.7538 288.595 92.2073 289.181 93.6642 289.749C95.3893 290.419 97.1286 291.061 98.8536 291.728C99.6333 292.031 100.399 292.37 101.168 292.691C101.267 292.585 101.365 292.476 101.464 292.37V292.373Z" fill="#F6BB92"/>
<path d="M394.63 220.276C394.873 219.052 394.581 217.909 393.991 216.854C391.878 213.082 388.77 210.909 384.336 210.747C381.662 210.652 379.203 211.252 376.875 212.532C375.259 213.421 373.996 214.709 372.86 216.113C371.509 217.781 370.454 219.627 369.59 221.616C368.179 224.858 367.438 228.241 366.93 231.716C366.351 235.685 366.048 239.675 365.706 243.665C365.543 245.573 365.325 247.549 365.106 249.454C364.922 251.056 364.915 252.262 364.686 253.744C364.616 254.188 364.485 254.626 364.425 255.07C364.337 255.733 364.524 256.326 365.095 256.7C365.663 257.07 366.267 257.035 366.842 256.651C367.921 255.931 368.986 255.204 369.932 254.301C372.221 252.124 374.409 249.846 376.582 247.552C378.794 245.221 380.988 242.868 383.189 240.525C383.313 240.321 383.436 240.119 383.56 239.915C383.274 239.869 383.023 239.77 382.865 239.499C382.628 239.1 382.565 238.67 382.53 238.207C382.403 236.507 382.59 234.821 382.949 233.184C383.606 230.228 384.964 227.599 387.066 225.373C388.463 223.892 390.107 222.703 391.719 221.496C392.549 220.875 393.497 220.286 394.63 220.272V220.276Z" fill="#7A4821"/>
<path d="M293.294 319.438C293.245 320.45 293.195 321.459 293.153 322.472C293.093 323.876 293.174 325.283 292.938 326.68C292.846 327.227 292.871 327.806 292.924 328.363C293.143 330.663 293.171 332.963 292.924 335.263C292.871 335.764 292.906 336.276 292.903 336.78C292.871 343.984 292.839 351.184 292.804 358.388C297.771 358.388 302.742 358.388 307.709 358.392C307.751 357.048 307.649 355.703 308.009 354.366C308.196 353.682 308.259 352.92 308.298 352.214C308.368 350.92 308.69 349.667 308.753 348.373C308.813 347.145 309.007 345.924 309.18 344.704C309.342 343.543 309.639 342.393 309.723 341.225C309.811 339.994 310.065 338.788 310.168 337.553C310.326 335.609 310.82 333.697 311.067 331.757C311.388 329.259 311.706 326.765 312.073 324.274C312.433 321.84 312.739 319.399 313.117 316.965C313.23 316.245 313.593 315.571 313.501 314.816C312.376 314.887 311.321 315.271 310.245 315.547C306.347 316.541 302.467 317.593 298.572 318.591C297.33 318.909 296.067 319.156 294.804 319.381C294.317 319.47 293.802 319.417 293.298 319.427L293.294 319.438Z" fill="#F6BB92"/>
<path d="M394.63 220.275C393.494 220.29 392.549 220.879 391.72 221.5C390.104 222.706 388.464 223.895 387.067 225.377C384.968 227.603 383.606 230.231 382.95 233.187C382.586 234.82 382.403 236.51 382.53 238.211C382.565 238.669 382.629 239.1 382.865 239.502C383.024 239.77 383.274 239.869 383.56 239.918C384.001 239.805 384.386 239.452 384.886 239.618C384.886 239.262 385.045 238.983 385.246 238.701C385.648 238.144 385.853 237.491 385.902 236.824C386.037 234.926 386.767 233.222 387.723 231.649C388.883 229.74 390.146 227.888 391.833 226.375C392.291 225.966 392.746 225.564 393.244 225.197C394.143 224.533 394.965 223.754 395.389 222.664C395.135 221.87 395.135 220.995 394.63 220.279V220.275Z" fill="#5C3717"/>
<path d="M313.498 314.827C313.59 315.582 313.223 316.253 313.113 316.976C312.736 319.406 312.429 321.851 312.069 324.285C311.702 326.776 311.385 329.27 311.064 331.768C310.817 333.708 310.323 335.62 310.164 337.564C310.062 338.795 309.808 340.002 309.72 341.236C309.635 342.404 309.342 343.551 309.176 344.715C309.003 345.935 308.809 347.156 308.749 348.384C308.686 349.675 308.365 350.931 308.294 352.225C308.256 352.931 308.189 353.693 308.005 354.377C307.642 355.714 307.744 357.058 307.705 358.402C307.857 358.667 308.114 358.734 308.39 358.752C309.102 358.671 309.349 358.103 309.36 357.556C309.381 356.427 309.829 355.369 309.776 354.226C309.737 353.34 310.041 352.465 310.136 351.573C310.344 349.636 310.848 347.724 311.014 345.787C311.124 344.503 311.487 343.247 311.434 341.956C311.399 341.099 311.766 340.323 311.815 339.469C311.886 338.139 312.186 336.819 312.362 335.493C312.524 334.276 312.637 333.052 312.799 331.831C312.983 330.448 313.166 329.065 313.399 327.693C313.558 326.755 313.473 325.809 313.713 324.857C314.024 323.622 313.971 322.303 314.165 321.033C314.404 319.477 314.546 317.921 314.503 316.348C314.489 315.776 314.447 315.226 314.143 314.729C313.928 314.764 313.713 314.799 313.498 314.834V314.827Z" fill="#DEA882"/>
<path d="M329.373 358.388C329.521 357.111 329.624 355.823 329.828 354.553C330.036 353.283 330.315 352.035 330.428 350.743C330.53 349.579 330.865 348.436 330.989 347.272C331.105 346.157 331.225 345.046 331.395 343.938C331.603 342.559 331.754 341.173 332.012 339.793C332.238 338.587 332.294 337.348 332.439 336.124C332.562 335.069 332.647 334.001 332.855 332.963C333.13 331.591 333.204 330.184 333.487 328.822C333.758 327.499 333.695 326.148 334.044 324.832C334.227 324.144 334.122 323.375 334.139 322.645C334.15 322.193 334.34 321.957 334.802 321.819C335.677 321.558 336.552 321.421 337.462 321.495C337.491 321.159 337.515 320.821 337.543 320.486C336.348 320.313 335.201 320.648 334.04 320.821C333.412 320.912 333.01 321.29 332.823 321.854C332.559 322.652 332.209 323.467 332.174 324.285C332.125 325.417 331.807 326.493 331.73 327.619C331.652 328.787 331.419 329.947 331.19 331.097C331.014 331.979 330.954 332.879 330.848 333.757C330.7 334.978 330.315 336.174 330.396 337.426C330.449 338.22 330.082 338.95 330.033 339.747C329.952 341.081 329.691 342.404 329.465 343.727C329.324 344.556 329.355 345.388 329.147 346.228C328.851 347.413 328.809 348.666 328.72 349.893C328.657 350.789 328.474 351.682 328.304 352.543C328.054 353.813 328.145 355.111 327.789 356.37C327.599 357.051 327.715 357.824 327.747 358.554C327.754 358.744 327.966 358.924 328.082 359.111C328.406 359.073 329.056 359.15 329.38 359.111C329.38 358.85 329.408 358.568 329.38 358.385L329.373 358.388Z" fill="#DEA882"/>
<path d="M417.67 245.93C417.342 246.05 417.021 246.219 416.908 246.551C416.598 247.45 416.203 248.311 415.853 249.193C415.095 251.098 414.474 253.052 413.62 254.926C413.26 255.716 413.116 256.619 412.692 257.413C412.509 257.758 412.262 257.907 411.902 257.928C411.846 257.931 411.789 257.938 411.733 257.935C409.701 257.78 407.701 258.196 405.686 258.316C404.071 258.411 402.451 258.605 400.821 258.633C400.25 258.644 399.865 258.975 399.576 259.399C399.103 260.094 398.624 260.792 398.253 261.54C397.188 263.703 395.886 265.724 394.722 267.827C394.641 267.971 394.528 268.109 394.394 268.204C394.21 268.338 393.988 268.409 393.773 268.25C393.448 268.017 393.216 267.721 393.025 267.361C391.854 265.138 390.683 262.912 389.465 260.715C388.922 259.737 388.562 258.693 388.188 257.653C387.959 257.014 387.786 256.351 387.052 256.09C386.915 256.326 386.943 256.58 386.985 256.834C387.37 257.208 387.606 257.653 387.599 258.203C387.705 258.534 387.811 258.866 387.917 259.198C388.22 259.318 388.312 259.561 388.305 259.861C388.566 260.154 388.569 260.542 388.672 260.891C389.473 261.473 389.723 262.366 389.998 263.244C390.062 263.445 390.125 263.646 390.189 263.847C390.503 263.988 390.679 264.221 390.693 264.571C390.841 264.899 390.986 265.227 391.134 265.555C391.512 265.657 391.702 265.9 391.681 266.299C391.748 266.497 391.815 266.694 391.878 266.892C392.394 267.107 392.718 267.446 392.633 268.052C392.813 268.656 393.424 269.016 393.54 269.658C394.362 269.767 394.764 269.238 395.103 268.624C395.724 267.502 396.32 266.363 396.962 265.255C397.971 263.516 399.033 261.808 400.021 260.058C400.37 259.441 400.811 259.187 401.509 259.201C402.801 259.229 404.095 259.212 405.386 259.191C406.505 259.177 407.588 258.951 408.734 258.961C409.972 258.972 410.301 258.894 411.084 258.88C412.565 258.855 413.176 258.499 413.613 257.187C414.298 255.13 415.187 253.151 415.938 251.126C416.446 249.761 416.802 248.526 417.303 247.161C417.444 246.776 417.787 246.332 417.663 245.933L417.67 245.93Z" fill="#7A4822"/>
<path d="M308.393 358.748C308.115 358.727 307.861 358.664 307.709 358.399C302.742 358.399 297.771 358.399 292.804 358.396C292.691 358.597 292.575 358.794 292.462 358.995C292.473 359.115 292.483 359.239 292.494 359.359C297.112 359.373 301.733 359.383 306.351 359.401C307.025 359.401 307.698 359.447 308.376 359.471C308.383 359.232 308.39 358.995 308.397 358.755L308.393 358.748Z" fill="#F7BE97"/>
<path d="M368.2 309.744C368.775 310.192 369.35 310.643 369.929 311.091C370.087 310.841 370.324 310.718 370.606 310.633C371.304 310.418 371.989 310.164 372.687 309.952C374.956 309.268 377.129 308.361 379.224 307.25C381.168 306.22 382.974 305.003 384.699 303.641C385.631 302.903 386.495 302.113 387.338 301.288C389.243 299.422 390.753 297.263 391.945 294.888C393.117 292.549 393.861 290.101 393.723 287.434C393.66 286.203 393.73 284.972 393.371 283.758C393.032 282.612 392.545 281.546 391.998 280.499C391.758 280.04 391.385 279.694 390.986 279.38C390.746 279.193 390.464 279.158 390.189 279.281C389.853 279.433 389.659 279.719 389.674 280.086C389.684 280.357 389.741 280.647 389.85 280.897C390.072 281.412 390.361 281.903 390.587 282.418C391.039 283.451 391.349 284.527 391.342 285.67C391.339 286.404 391.321 287.138 391.349 287.868C391.416 289.773 390.845 291.505 390.086 293.223C388.735 296.271 386.71 298.808 384.234 300.97C382.586 302.406 380.791 303.665 378.857 304.717C376.032 306.251 373.096 307.532 369.96 308.283C369.484 308.396 369.145 308.633 368.853 308.985C368.637 309.239 368.419 309.493 368.203 309.747L368.2 309.744Z" fill="#DEA882"/>
<path d="M103.401 288.468C104.579 286.242 105.814 284.044 107.024 281.836C107.698 280.608 108.343 279.366 109.056 278.163C109.539 277.352 110.121 276.597 110.661 275.817C111.755 276.382 112.792 277.045 114.002 277.387C117.198 278.294 120.366 279.303 123.573 280.174C131.288 282.277 139.12 283.942 146.771 286.288C147.149 286.404 147.537 286.478 147.918 286.584C151.717 287.639 155.534 288.634 159.309 289.77C164.435 291.315 169.451 293.178 174.415 295.192C178.19 296.723 181.781 298.579 185.228 300.734C186.9 301.778 188.625 302.731 190.375 303.645C191.786 304.382 193.211 304.675 194.777 304.382C195.437 304.258 196.121 304.223 196.795 304.202C202.602 304.018 208.391 303.585 214.18 303.137C220.304 302.66 226.425 302.117 232.546 301.591C238.779 301.059 245.01 300.512 251.243 299.976C251.691 299.937 252.146 299.909 252.594 299.951C255.512 300.223 258.412 300.611 261.255 301.359C262.349 301.644 263.435 301.93 264.476 302.364C268.124 303.881 271.644 305.659 275.038 307.68C278.668 309.843 282.288 312.023 285.904 314.207C287.544 315.194 289.192 316.179 290.8 317.216C291.739 317.823 292.748 318.377 293.298 319.435V359.348L289.957 358.756C257.385 356.459 198.905 340.305 198.905 340.305C196.513 339.864 195.215 339.007 193.359 338.386C192.35 338.051 191.359 337.635 190.378 337.247C189.341 336.837 188.279 336.481 187.239 336.072C184.589 335.021 181.915 334.04 179.287 332.918C177.138 332.001 175.008 331.013 172.82 330.173C172.21 329.937 171.596 329.627 170.99 329.334C167.515 327.655 164.057 325.94 160.653 324.116C158.628 323.033 156.617 321.911 154.578 320.864C151.043 319.047 147.558 317.142 144.076 315.233C141.617 313.886 139.162 312.542 136.685 311.222C133.475 309.515 130.194 307.934 127.054 306.107C124.874 304.837 122.61 303.733 120.415 302.494C117.646 300.932 114.862 299.362 111.949 298.046C110.576 297.425 109.32 296.55 107.997 295.82C106.428 294.959 104.851 294.105 103.253 293.301C102.653 293.001 102.198 292.423 101.475 292.373C101.944 290.983 102.734 289.752 103.411 288.468H103.401Z" fill="#6A6D66"/>
<path d="M393.544 269.658C393.544 269.658 387.832 262.842 386.315 255.448C384.798 248.054 384.259 245.179 384.886 239.619C385.514 234.059 395.389 222.668 395.389 222.668C395.389 222.668 401.351 219.853 408.939 219.712C418.489 219.532 426.599 224.728 430.43 231.889C434.261 239.051 433.521 241.739 433.521 241.739L401.647 247.07L391.575 258.835L393.544 269.658Z" fill="#7A4821"/>
<path d="M329.373 358.388C329.521 357.111 329.623 355.823 329.828 354.553C330.036 353.283 330.315 352.035 330.428 350.743C330.53 349.579 330.865 348.436 330.989 347.272C331.105 346.157 331.225 345.046 331.394 343.938C331.602 342.559 331.754 341.173 332.012 339.793C332.237 338.587 332.294 337.348 332.439 336.124C332.562 335.069 332.647 334.001 332.855 332.963C333.13 331.591 333.204 330.183 333.486 328.822C333.758 327.499 333.694 326.148 334.044 324.832C334.227 324.144 334.121 323.375 334.139 322.645C334.15 322.193 334.34 321.957 334.802 321.819C335.677 321.558 336.552 321.42 337.462 321.495C337.561 321.696 337.677 321.893 337.755 322.105C339.374 326.603 340.983 331.104 342.606 335.602C344.588 341.102 346.599 346.595 348.553 352.105C349.002 353.368 349.569 354.606 349.721 355.965C349.492 355.993 349.266 356.021 349.037 356.049L329.376 359.111L329.415 358.374C329.415 358.374 329.391 358.381 329.376 358.385L329.373 358.388Z" fill="#F7BE97"/>
</svg>
