<svg width="500" height="500" viewBox="0 0 500 500" fill="none" xmlns="http://www.w3.org/2000/svg">
<path d="M297.662 268.843C297.662 268.843 290.105 265.82 283.051 265.82C268.843 265.82 259.673 276.098 259.673 276.098C259.673 276.098 253.728 305.119 260.983 305.824C274.688 307.336 285.47 306.328 292.019 307.336L301.794 296.856L297.662 268.843Z" fill="#3D3C3C"/>
<path d="M375.554 306.53C375.554 303.103 358.525 301.39 358.021 298.771C353.587 271.161 353.083 256.247 353.083 256.247C378.678 251.511 387.243 257.759 393.087 247.38C394.095 239.52 382.91 235.893 373.438 238.613C359.633 238.916 336.457 241.838 335.147 248.69C334.946 249.597 349.456 300.887 349.456 304.212C349.456 308.243 375.554 311.064 375.554 306.53Z" fill="#ECAD83"/>
<path d="M371.02 292.12C378.376 291.616 383.212 283.958 387.545 276.905C390.468 272.169 392.785 267.332 394.397 263.604C397.219 256.751 396.11 249.698 395.405 245.768C394.599 241.435 392.584 235.389 381.298 236.699C375.957 237.404 371.322 239.621 351.37 252.015C342.705 260.581 313.785 271.564 297.662 268.843C297.662 268.843 299.476 286.074 297.763 294.236C296.05 302.398 292.019 307.437 292.019 307.437C326.884 302.197 348.952 290.911 361.346 290.206C361.346 290.105 365.881 292.423 371.02 292.12Z" fill="#FF8AA0"/>
<path d="M363.16 309.553C363.16 306.328 346.836 305.119 346.735 302.499C344.72 274.587 342.805 256.953 342.805 256.953C368.702 254.434 386.135 258.263 392.886 248.488C394.599 240.729 384.119 238.009 374.043 238.009C363.966 238.009 329.303 243.954 327.287 250.605C326.985 251.511 338.17 305.22 338.17 308.545C338.069 311.971 363.16 314.087 363.16 309.553Z" fill="#F6BB92"/>
<path d="M397.723 246.876C397.723 246.876 400.141 239.722 404.172 233.676L390.77 224.305C387.243 231.963 383.414 236.598 383.414 236.598C397.421 238.21 395.909 250.101 396.312 253.023L397.723 246.876Z" fill="#ECAD83"/>
<path d="M410.218 207.376C412.334 201.33 408.404 197.098 405.885 194.78C397.823 187.727 391.778 188.734 384.422 191.153C374.647 194.277 379.383 221.181 381.6 225.212C387.445 235.691 404.373 235.087 410.822 233.172C417.876 231.056 415.357 229.242 414.248 226.522C414.248 226.421 414.45 225.917 414.45 225.917C414.148 224.909 413.644 223.7 413.845 222.189C413.845 222.189 413.341 221.383 413.14 220.979C413.039 220.677 412.938 220.476 413.341 220.274C414.248 219.569 415.054 218.964 415.357 218.36C416.163 216.546 409.311 210.198 410.218 207.376Z" fill="#F6BB92"/>
<path d="M410.117 224.708C410.117 224.708 410.923 224.909 414.148 223.902C414.45 223.599 415.054 222.995 414.148 222.289C413.442 221.786 412.233 223.7 410.117 224.708Z" fill="#D6876B"/>
<path d="M410.117 224.708C410.117 224.708 411.326 226.119 414.45 225.917C414.853 225.716 415.054 225.313 415.054 225.111C415.155 224.003 414.047 223.902 414.047 223.902C410.923 224.91 410.117 224.708 410.117 224.708Z" fill="#CC785E"/>
<path d="M383.212 189.742C371.322 193.571 361.044 215.841 383.817 230.754C385.328 231.762 388.351 232.568 391.072 228.537C393.087 225.716 393.994 222.592 393.994 222.592C394.297 221.685 394.498 220.577 394.8 219.468C395.103 218.259 392.483 212.616 393.591 212.011C404.675 206.369 407.598 198.61 406.59 195.486C402.862 188.533 395.909 185.611 383.212 189.742Z" fill="#602F0F"/>
<path d="M390.971 219.871C394.498 224.607 396.715 224.103 399.839 222.793L395.405 215.135L392.684 212.415C389.661 213.725 387.545 215.135 390.971 219.871Z" fill="#F6BB92"/>
<path d="M370.516 213.825C366.989 212.314 366.385 206.167 369.206 200.121C372.027 193.974 377.167 190.246 380.693 191.657C384.22 193.168 384.019 198.005 381.197 204.152C378.476 210.298 374.043 215.337 370.516 213.825Z" fill="#4C230C"/>
<path d="M395.304 212.918C394.8 212.011 394.498 211.104 394.297 210.399C393.994 209.391 393.894 208.686 393.894 208.686L390.871 211.004C391.072 211.507 391.173 212.011 391.374 212.515C391.374 212.515 391.677 212.314 392.281 211.81C392.281 211.81 392.181 211.81 392.181 211.911C392.886 212.515 393.894 213.523 395.002 215.135C395.103 215.236 396.816 215.74 395.304 212.918Z" fill="#602F0F"/>
<path d="M368.501 214.128C364.772 212.616 364.269 205.865 367.292 199.214C370.415 192.564 375.957 188.331 379.686 189.843C383.414 191.354 383.112 196.695 379.988 203.346C376.965 210.097 372.229 215.74 368.501 214.128Z" fill="#602F0F"/>
<path d="M366.989 202.942C366.586 202.741 366.989 200.927 367.997 198.912C368.904 196.896 370.012 195.385 370.415 195.486C370.818 195.687 370.415 197.098 369.408 199.214C368.501 201.33 367.392 203.144 366.989 202.942Z" fill="#4C230C"/>
<path d="M85.5502 305.421C89.7824 303.204 100.967 301.592 106.106 298.065C109.129 295.949 115.075 292.221 118.601 292.322C124.446 292.523 126.763 295.949 128.376 296.352C138.251 298.569 165.558 291.919 171.604 292.12C181.58 292.523 177.65 311.568 174.023 311.467C144.498 310.46 129.686 308.847 124.446 308.142C124.446 308.142 93.7122 310.661 89.8831 310.46C87.6663 310.157 81.8219 307.336 85.5502 305.421Z" fill="#F6BB92"/>
<path d="M204.756 288.795C193.168 287.787 181.58 291.415 171.604 292.12C173.015 295.345 174.829 308.344 174.023 311.467C177.65 311.568 205.26 310.863 205.26 310.863C214.127 311.568 276.199 308.545 279.927 308.344C283.656 308.142 287.586 308.041 292.019 307.437L283.757 269.347C266.022 271.161 236.397 287.485 228.335 288.896C220.274 290.206 204.756 288.795 204.756 288.795Z" fill="#3D3C3C"/>
</svg>
