<svg width="500" height="500" viewBox="0 0 500 500" fill="none" xmlns="http://www.w3.org/2000/svg">
<path d="M300.786 271.967C300.786 271.967 293.027 266.727 286.276 265.82C272.168 264.007 263.503 273.68 263.503 273.68C263.503 273.68 257.054 302.902 264.107 304.514C277.509 307.537 288.593 308.646 295.244 309.553C299.778 310.157 308.746 288.996 308.746 288.996L300.786 271.967Z" fill="#3D3C3C"/>
<path d="M247.582 206.57C246.07 209.996 261.487 214.631 265.518 217.453L271.765 217.352C302.902 233.374 319.428 237.303 319.428 237.303C337.566 247.682 373.539 262.293 381.298 264.208C389.057 266.122 394.599 250.907 387.445 247.178C380.391 243.45 373.64 240.931 366.385 237.807C359.029 234.683 331.318 227.63 324.668 225.514C323.761 225.211 275.192 209.492 275.192 209.492C275.192 209.492 273.378 208.585 270.758 206.267C267.13 202.942 260.58 200.524 256.449 200.625C252.922 200.625 248.992 203.144 247.582 206.57Z" fill="#ECAD83"/>
<path d="M261.588 214.026C261.588 214.026 257.154 211.608 255.643 213.825C254.333 215.739 254.131 216.445 265.417 217.352C265.417 217.452 265.921 215.941 261.588 214.026Z" fill="#ECAD83"/>
<path d="M386.538 287.384C395.607 279.021 390.367 266.425 391.576 250.907C391.475 249.093 386.739 242.04 383.112 240.427C379.081 238.614 374.345 237.707 370.415 240.024C366.888 241.536 360.842 245.667 345.627 263.402C343.813 265.417 341.395 269.146 337.263 272.572C326.884 281.036 311.366 275.897 300.786 272.068C300.786 272.068 304.313 282.749 303.607 291.012C302.902 298.972 295.244 309.653 295.244 309.653C344.317 311.669 364.772 298.569 373.64 289.702C373.64 289.702 383.515 290.206 386.538 287.384Z" fill="#FF8AA0"/>
<path d="M391.374 244.962C391.374 244.962 392.382 236.094 396.11 228.738L384.119 222.491C383.414 230.854 374.446 238.613 374.446 238.613C386.538 242.342 389.057 248.287 391.576 250.806L391.374 244.962Z" fill="#ECAD83"/>
<path d="M401.753 210.198C404.071 204.152 400.242 199.819 397.723 197.501C389.863 190.246 383.817 191.052 376.36 193.269C366.586 196.191 370.415 223.096 372.632 227.227C378.174 237.908 395.204 237.707 401.653 235.994C408.807 234.079 406.288 232.165 405.179 229.444C405.179 229.343 405.381 228.839 405.381 228.839C405.079 227.832 404.676 226.522 404.978 225.111C404.978 225.111 404.474 224.305 404.273 223.902C404.172 223.599 404.172 223.398 404.474 223.196C405.381 222.491 406.288 221.886 406.489 221.383C407.396 219.569 400.746 213.019 401.753 210.198Z" fill="#F6BB92"/>
<path d="M401.149 227.529C401.149 227.529 401.955 227.731 405.179 226.824C405.482 226.521 406.086 225.917 405.28 225.212C404.575 224.708 403.366 226.622 401.149 227.529Z" fill="#D6876B"/>
<path d="M401.149 227.529C401.149 227.529 402.257 228.94 405.482 228.839C405.885 228.638 406.086 228.234 406.086 228.033C406.187 226.924 405.179 226.824 405.179 226.824C401.955 227.731 401.149 227.529 401.149 227.529Z" fill="#CC785E"/>
<path d="M375.252 191.758C363.261 195.284 352.378 217.251 374.748 232.769C376.26 233.777 379.182 234.684 382.104 230.754C384.119 228.033 385.228 224.809 385.228 224.809C385.53 223.902 385.832 222.793 386.135 221.685C386.437 220.476 384.019 214.833 385.127 214.228C396.312 208.888 399.537 201.23 398.529 198.106C394.901 191.153 388.049 188.029 375.252 191.758Z" fill="#602F0F"/>
<path d="M382.205 222.088C385.53 226.925 387.848 226.421 390.971 225.212L386.739 217.453L384.119 214.631C380.996 215.941 378.779 217.352 382.205 222.088Z" fill="#F6BB92"/>
<path d="M361.951 215.538C358.424 213.926 358.021 207.779 361.044 201.733C364.067 195.687 369.307 192.06 372.833 193.672C376.36 195.284 375.957 200.121 373.035 206.167C369.911 212.213 365.377 217.151 361.951 215.538Z" fill="#4C230C"/>
<path d="M386.739 215.337C386.336 214.43 386.034 213.523 385.832 212.818C385.53 211.81 385.53 211.104 385.53 211.104L382.406 213.422C382.507 213.926 382.709 214.43 382.809 214.934C382.809 214.934 383.112 214.732 383.716 214.329C383.716 214.329 383.615 214.329 383.615 214.43C384.321 215.034 385.228 216.042 386.336 217.654C386.437 217.654 388.049 218.158 386.739 215.337Z" fill="#602F0F"/>
<path d="M359.835 215.74C356.106 214.127 355.804 207.376 359.129 200.826C362.455 194.176 368.098 190.246 371.725 191.858C375.453 193.47 374.95 198.811 371.725 205.361C368.4 212.011 363.563 217.453 359.835 215.74Z" fill="#602F0F"/>
<path d="M358.625 204.555C358.222 204.353 358.726 202.539 359.734 200.524C360.742 198.509 361.85 196.997 362.253 197.199C362.656 197.4 362.152 198.811 361.145 200.826C360.238 202.942 359.129 204.756 358.625 204.555Z" fill="#4C230C"/>
<path d="M238.009 226.925C237.001 230.552 252.822 233.172 257.154 235.49L263.402 234.583C296.252 246.574 312.676 248.791 312.676 248.791C332.023 256.852 370.012 266.425 377.872 267.332C385.832 268.239 389.359 252.519 381.903 249.698C374.446 246.876 367.493 245.264 359.835 243.047C352.177 240.83 323.358 237.707 316.405 236.397C315.498 236.195 265.82 226.32 265.82 226.32C265.82 226.32 263.906 225.716 260.984 223.599C256.953 220.778 250.202 219.166 246.07 219.77C242.644 220.375 239.117 223.297 238.009 226.925Z" fill="#F6BB92"/>
<path d="M252.922 232.568C252.922 232.568 248.186 230.754 246.977 233.172C245.97 235.187 245.768 235.994 257.155 235.49C257.155 235.389 257.457 233.877 252.922 232.568Z" fill="#F6BB92"/>
<path d="M93.6115 244.357C95.4253 240.629 112.253 245.97 115.377 245.365C116.888 245.063 118.803 243.249 122.229 243.854C126.763 244.66 128.476 248.791 130.189 248.993C138.553 250.101 160.621 255.643 170.697 257.054C173.015 257.356 175.433 257.759 177.852 258.263C187.727 260.178 179.061 279.122 175.534 278.114C161.628 273.882 128.174 259.472 123.337 257.356C123.337 257.356 107.719 253.527 104.091 252.318C101.874 251.612 91.7977 248.086 93.6115 244.357Z" fill="#F6BB92"/>
<path d="M206.268 266.727C194.982 263.704 187.928 260.883 175.937 257.86C176.743 261.286 175.232 274.889 173.821 277.711C177.348 278.416 202.842 288.392 202.842 288.392C207.578 290.306 271.967 308.847 283.152 306.731C287.283 306.127 291.012 305.22 293.934 304.313C299.778 302.499 295.042 269.851 286.88 268.944C269.146 270.859 237.102 268.44 228.235 267.936C220.073 267.533 206.268 266.727 206.268 266.727Z" fill="#3D3C3C"/>
</svg>
