<svg width="500" height="500" viewBox="0 0 500 500" fill="none" xmlns="http://www.w3.org/2000/svg">
<path d="M375.733 214.587C375.786 213.91 375.649 214.115 375.744 212.224C375.765 211.8 376.22 211.603 376.64 211.338C377.339 210.46 377.681 209.419 377.702 208.156C377.734 206.406 378.404 204.763 379.102 203.164C379.917 201.302 380.958 199.566 382.239 197.993C382.874 197.21 383.625 196.515 384.348 195.809C384.422 195.738 384.493 195.664 384.56 195.59C385.138 194.472 385.495 193.795 385.495 193.795C385.495 193.795 386.031 193.516 386.938 193.11C386.941 193.1 386.948 193.089 386.952 193.079C387.019 193.057 387.082 193.036 387.149 193.015C389.358 192.041 393.471 190.443 397.602 189.985C403.31 189.35 405.811 188.768 412.249 191.798C412.419 191.865 412.585 191.932 412.754 192.003C412.758 192.02 412.765 192.031 412.768 192.048C413.022 192.172 413.28 192.299 413.548 192.433C420.97 196.176 424.12 200.646 424.861 207.056C424.755 207.899 424.382 208.431 423.5 208.735C423.235 208.827 422.97 208.929 422.706 209.024L408.013 222.454C407.935 222.737 407.857 223.022 407.78 223.305C407.48 224.388 407.145 225.46 406.803 226.532C406.598 227.175 406.157 227.556 405.462 227.658C404.189 227.848 402.922 228.074 401.649 228.272L390.197 238.742C390.053 239.042 389.901 239.342 389.76 239.645C389.531 240.125 389.139 240.259 388.642 240.167C388.642 240.167 387.978 239.289 386.952 237.839C386.938 237.839 386.924 237.836 386.906 237.836C386.86 237.751 386.814 237.67 386.772 237.585C386.532 237.243 386.271 236.869 385.996 236.47C385.971 236.463 385.95 236.456 385.925 236.449C385.84 236.301 385.759 236.149 385.675 235.998C385.17 235.26 384.627 234.452 384.062 233.588C383.95 233.422 383.837 233.26 383.724 233.094C383.724 233.084 383.724 233.077 383.724 233.066C383.516 232.745 383.304 232.417 383.092 232.082C383.043 232.053 382.997 232.029 382.948 232.004C382.909 231.895 382.874 231.782 382.835 231.676C382.715 231.486 382.595 231.291 382.475 231.097C382.45 231.076 382.429 231.055 382.404 231.037C382.408 231.02 382.408 231.009 382.411 230.992C382.274 230.769 382.14 230.551 382.002 230.325C381.988 230.318 381.974 230.311 381.956 230.304C381.935 230.251 381.911 230.198 381.889 230.141C378.612 224.733 375.434 218.404 375.73 214.591L375.733 214.587Z" fill="#7A4821"/>
<path d="M202.759 315.373C201.877 315.793 200.935 315.892 199.954 315.85C197.301 315.74 194.687 315.299 192.063 314.943C188.764 314.495 185.459 314.149 182.118 314.301C180.428 314.378 178.735 314.347 177.041 314.375C173.655 314.431 170.279 314.625 166.913 314.996C163.272 315.398 159.614 315.687 155.988 316.174C149.789 317.01 143.573 317.73 137.393 318.7C132.771 319.423 128.139 320.101 123.479 320.534C122.244 320.647 121.006 320.753 119.778 320.919C118.261 321.124 116.751 321.184 115.245 320.855C114.973 321.593 114.727 322.327 114.649 323.12C114.409 325.629 114.159 328.133 113.883 330.634C113.732 332.024 113.499 333.404 113.354 334.794C113.199 336.297 113.1 337.803 112.977 339.309C114.991 339.542 117.002 339.789 119.016 340.004C121.98 340.322 124.947 340.632 127.913 340.911C130.997 341.2 134.083 341.437 137.163 341.722C140.243 342.008 143.323 342.333 146.403 342.636C147.634 342.756 148.868 342.862 150.1 342.982C154.464 343.402 158.824 343.843 163.188 344.245C166.433 344.545 169.682 344.799 172.931 345.081C177.585 345.483 182.231 345.934 186.887 346.284C189.071 346.446 191.269 346.414 193.46 346.481C194.416 346.51 195.375 346.531 196.324 346.629C197.114 346.711 197.869 346.492 198.674 346.562C200.572 346.728 202.487 346.689 204.396 346.753C205.345 346.785 206.258 346.499 207.236 346.594C209.412 346.809 211.607 346.838 213.794 346.947C215.582 347.039 217.382 347.095 219.174 347.187C222.253 347.346 225.34 347.384 228.416 347.66C230.205 347.818 232.015 347.723 233.803 347.868C237.289 348.15 240.781 348.065 244.267 348.231C246.059 348.316 247.84 348.256 249.629 348.224C249.964 348.217 250.303 348.252 250.638 348.277C250.917 348.298 251.206 348.393 251.474 348.358C253.605 348.058 255.76 348.266 257.881 348.044C259.673 347.854 261.489 347.966 263.264 347.578C263.698 347.483 264.164 347.526 264.612 347.522C265.289 347.518 265.966 347.504 266.626 347.321C266.788 347.275 266.958 347.222 267.123 347.219C269.215 347.176 271.261 346.732 273.332 346.524C274.288 346.428 275.248 346.383 276.172 346.125C277.65 345.712 279.188 345.765 280.684 345.472C287.323 344.174 293.924 342.714 300.45 340.943C300.666 340.883 300.867 340.77 301.071 340.682C301.099 340.064 301.152 339.447 301.152 338.83C301.149 333.658 301.163 328.483 301.11 323.311C301.078 320.108 300.898 316.908 300.863 313.708C300.814 309.436 300.842 305.164 300.838 300.892C300.133 300.281 299.261 300.02 298.39 299.795C295.61 299.071 292.82 298.369 290.033 297.674C286.371 296.761 282.706 295.858 279.04 294.958C275.53 294.097 271.963 293.579 268.376 293.166C267.871 293.109 267.36 293.071 266.855 293.092C264.04 293.198 261.239 293.374 258.445 293.857C256.251 294.238 254.208 294.993 252.158 295.784" fill="#6A6D66"/>
<path d="M400.093 286.593C399.507 286.558 399.002 286.784 398.498 287.052C394.826 288.992 390.857 289.987 386.786 290.601C385.512 290.795 384.214 290.777 382.933 290.474C380.806 289.966 378.658 289.585 376.608 288.749C372.731 287.168 369.355 284.953 366.826 281.559C366.974 281.379 367.15 281.256 367.39 281.235C371.944 280.772 375.91 278.927 379.519 276.172C382.849 273.632 385.421 270.492 387.273 266.746C388.052 265.169 388.486 263.486 388.842 261.775C389.051 260.784 389.28 259.793 389.171 258.773C389.001 257.214 388.888 255.648 388.066 254.236C387.562 253.365 386.945 252.561 386.641 251.566C386.525 251.181 386.087 250.867 385.738 250.592C385.262 250.218 384.556 250.578 384.475 251.199C384.429 251.548 384.503 251.866 384.655 252.18C385.77 254.483 385.971 256.953 385.745 259.433C385.597 261.042 385.198 262.64 384.644 264.178C383.279 267.995 380.887 271.127 377.836 273.678C375.465 275.657 372.812 277.305 369.655 277.873C368.72 278.042 367.806 278.338 366.868 278.504C366.028 278.652 365.552 279.079 365.453 279.926C364.966 279.552 364.406 279.552 363.841 279.622C361.947 279.866 360.052 280.084 358.165 280.384C355.893 280.744 353.603 281.023 351.286 280.899C350.111 280.836 348.926 280.917 347.747 280.931C347.183 280.914 346.622 280.878 346.057 280.885C343.525 280.924 340.992 281.002 338.459 281.104C335.315 281.235 332.162 281.298 329.004 280.949C326.439 280.663 323.832 280.846 321.243 280.6C318.95 280.381 316.636 280.497 314.325 280.271C311.863 280.032 309.379 280.141 306.903 279.94C303.65 279.679 300.376 279.876 297.109 279.587C294.196 279.333 291.26 279.46 288.329 279.27C284.286 279.009 280.222 279.076 276.165 278.896C272.334 278.726 268.496 278.825 264.657 278.804C264.149 278.804 263.624 278.874 263.14 278.762C261.86 278.462 260.565 278.501 259.27 278.465C258.706 278.448 258.156 278.395 257.598 278.275C255.4 277.806 253.189 277.386 250.984 276.948C249.752 276.705 248.511 276.655 247.283 276.892C246.676 277.008 246.073 277.128 245.459 277.22C244.517 277.361 243.575 277.562 242.662 277.841C239.162 278.913 235.673 280.017 232.188 281.136C231.422 281.379 230.71 281.489 229.891 281.263C228.977 281.009 228.004 280.984 227.058 280.836C225.781 280.635 224.511 280.398 223.231 280.208C222.624 280.116 222.359 279.771 222.285 279.203C222.105 277.749 221.865 276.31 221.89 274.835C221.936 272.016 221.925 269.194 221.939 266.372C221.939 266.146 221.95 265.92 221.954 265.695C221.968 264.509 222.338 263.504 223.315 262.745C224.158 262.089 224.956 261.373 225.757 260.661C226.109 260.347 226.533 260.209 226.959 260.068C231.461 258.604 235.966 257.157 240.46 255.683C241.243 255.425 242.005 255.425 242.785 255.644C243.11 255.736 243.434 255.835 243.755 255.94C244.877 256.314 245.978 256.734 247.064 257.214C248.038 257.644 249.163 257.775 250.081 258.286C251.372 259.01 252.719 259.154 254.13 259.2C256.551 259.278 258.967 259.281 261.391 259.461C264.756 259.712 268.146 259.553 271.522 259.846C272.867 259.962 274.214 259.75 275.562 259.63C278.419 259.38 281.28 259.161 284.138 258.942C287.055 258.72 289.973 258.53 292.883 258.251C295.01 258.05 297.152 257.969 299.286 257.838C299.512 257.824 299.745 257.845 299.96 257.796C301.84 257.376 303.77 257.5 305.668 257.256C307.897 256.967 310.159 256.949 312.406 256.812C312.519 256.805 312.635 256.815 312.745 256.791C314.618 256.328 316.555 256.551 318.453 256.244C320.111 255.976 321.793 255.82 323.466 255.588C324.859 255.394 326.263 255.302 327.66 255.136C328.722 255.013 329.798 254.928 330.828 254.677C335.859 253.464 340.914 252.353 345.98 251.291C351.483 250.137 356.948 248.786 362.437 247.555C364.963 246.987 367.51 246.553 370.128 246.659C372.153 246.74 374.177 246.669 376.199 246.966C377.035 247.089 377.871 247.156 378.686 247.403C379.882 247.77 380.99 248.292 382.009 249.029C382.768 249.58 382.919 249.52 383.452 248.677C384.81 246.535 386.161 244.39 387.495 242.235C387.908 241.568 388.257 240.863 388.638 240.175C389.135 240.266 389.527 240.136 389.756 239.653C390.07 238.993 390.405 238.347 390.691 237.677C391.658 235.398 392.649 233.13 393.541 230.819C393.961 229.729 394.667 229.239 395.782 229.108C397.57 228.9 399.352 228.632 401.133 228.364C402.58 228.148 404.015 227.88 405.462 227.665C406.157 227.563 406.598 227.182 406.802 226.54C407.145 225.471 407.48 224.395 407.78 223.312C408.485 220.768 409.17 218.218 409.861 215.671C409.963 215.293 410.111 214.916 410.136 214.531C410.182 213.861 410.57 213.519 411.138 213.318C412.838 212.718 414.542 212.125 416.246 211.529C416.938 211.286 417.633 211.056 418.31 210.792C420.039 210.111 421.743 209.349 423.496 208.746C424.378 208.442 424.752 207.91 424.858 207.066C424.96 207.105 425.15 207.148 425.147 207.179C425.083 208.1 425.644 208.859 425.803 209.726C426.181 211.783 426.114 213.872 426.346 215.935C426.424 216.627 426.495 217.223 427.017 217.766C427.676 218.454 428.223 219.251 428.816 219.999C430.315 221.897 431.818 223.792 433.31 225.697C433.554 226.004 433.769 226.335 433.973 226.67C434.245 227.111 434.192 227.538 433.836 227.905C433.564 228.187 433.282 228.473 432.972 228.709C431.896 229.528 430.82 230.343 429.719 231.126C427.394 232.78 427.659 232.103 427.761 235.426C427.786 236.76 427.849 237.543 427.708 238.584C427.443 240.535 426.47 241.942 424.438 242.415C423.672 242.591 422.917 242.824 422.145 242.958C420.928 243.17 419.7 243.311 418.483 243.505C416.155 243.875 413.83 244.27 411.501 244.637C410.937 244.726 410.556 244.958 410.461 245.555C410.21 247.128 409.54 248.578 408.919 250.007C407.709 252.794 406.827 255.697 405.723 258.523C404.516 261.61 403.398 264.728 402.29 267.854L400.086 286.611" fill="#F6BB92"/>
<path d="M400.085 288.773C400.008 288.046 399.99 287.319 400.096 286.589C399.51 286.554 399.006 286.78 398.501 287.048C394.829 288.988 390.86 289.983 386.789 290.597C385.515 290.791 384.217 290.773 382.937 290.47C380.809 289.962 378.661 289.581 376.611 288.745C372.734 287.164 369.358 284.949 366.829 281.555C366.24 281.121 365.559 280.758 365.463 279.911C364.977 279.537 364.416 279.537 363.851 279.608C361.957 279.851 360.062 280.07 358.175 280.37C355.903 280.729 353.614 281.008 351.296 280.885C350.121 280.821 348.936 280.902 347.757 280.916C347.666 281.555 347.172 281.848 346.689 282.13C343.891 283.767 341.094 285.411 338.275 287.009C337.354 287.531 336.352 287.912 335.396 288.374C334.899 288.618 334.331 288.748 333.974 289.231C334.514 289.69 334.705 290.357 334.997 290.956C336.684 294.392 338.352 297.836 340.021 301.279C341.492 304.316 342.953 307.361 344.431 310.395C347.14 315.958 349.867 321.507 352.562 327.077C353.197 328.386 353.966 329.646 354.284 331.096C355.473 330.75 356.662 330.408 357.85 330.058C361.526 328.982 365.195 327.882 368.882 326.838C371.75 326.023 374.632 325.257 377.521 324.513C384.926 322.604 390.736 318.367 395.337 312.367C396.698 310.592 397.429 308.511 397.958 306.366C398.173 305.491 398.311 304.598 398.462 303.709" fill="#8A8AD9"/>
<path d="M354.277 331.096C353.96 329.646 353.187 328.39 352.556 327.078C349.861 321.507 347.134 315.958 344.424 310.395C342.946 307.361 341.489 304.316 340.015 301.279C338.346 297.836 336.677 294.393 334.991 290.957C334.698 290.357 334.504 289.69 333.968 289.231C333.061 289.351 332.25 289.743 331.435 290.124C326.136 292.593 320.721 294.752 315.172 296.601C311.817 297.719 308.462 298.827 305.068 299.811C303.671 300.217 302.246 300.531 300.838 300.891C300.842 305.163 300.814 309.435 300.863 313.707C300.898 316.91 301.078 320.11 301.11 323.31C301.163 328.482 301.149 333.657 301.152 338.829C301.152 339.446 301.1 340.063 301.071 340.681C302.179 341.249 303.354 341.192 304.539 341.044C304.984 340.988 305.421 340.857 305.866 340.836C308.448 340.698 310.995 340.286 313.546 339.897C314.6 339.739 315.662 339.626 316.717 339.509C320.344 339.111 323.924 338.437 327.519 337.834C329.897 337.435 332.289 337.128 334.666 336.726C338.815 336.024 342.971 335.364 346.985 334.038C348.266 333.615 349.557 333.248 350.831 332.793C352.055 332.355 353.198 331.801 354.277 331.092V331.096Z" fill="#F6BB92"/>
<path d="M112.977 339.312C113.1 337.806 113.199 336.3 113.354 334.797C113.499 333.407 113.732 332.027 113.883 330.637C114.159 328.136 114.409 325.628 114.649 323.123C114.723 322.33 114.973 321.592 115.245 320.858C114.384 320.061 113.569 319.204 112.649 318.477C111.015 317.19 109.668 315.581 107.953 314.381C106.002 313.016 103.787 312.342 101.487 312.236C99.5994 312.152 97.7226 312.614 95.934 313.408C91.3514 315.436 86.7759 317.468 82.2921 319.708C80.1331 320.788 77.8577 321.638 75.6422 322.608C74.1464 323.264 72.6471 323.906 71.1866 324.633C69.8707 325.289 68.6678 326.147 67.74 327.297C66.216 329.18 65.588 331.371 65.9726 333.767C66.3289 335.993 67.6342 337.658 69.4051 338.995C70.5657 339.87 71.8746 340.247 73.2892 340.48C74.4181 340.663 75.5082 340.491 76.6159 340.469C78.6444 340.434 80.6728 340.434 82.7013 340.42C83.3187 340.416 83.9431 340.487 84.5393 340.247C84.6416 340.205 84.7651 340.166 84.8674 340.184C86.7124 340.466 88.5469 340.004 90.3954 340.095C92.1946 340.184 94.0008 340.05 95.8035 340.085C97.2181 340.113 98.5799 339.7 100.002 339.764C101.631 339.838 103.268 339.774 104.905 339.746C106.419 339.721 107.936 339.827 109.445 339.492C110.144 339.337 110.906 339.464 111.636 339.436C112.084 339.422 112.529 339.362 112.977 339.319V339.312Z" fill="#F6BB92"/>
<path d="M384.605 191.498C384.655 189.692 383.879 188.228 382.686 186.951C382.072 186.291 381.473 185.621 380.739 185.081C378.908 183.74 376.865 183.077 374.6 183.007C371.313 182.908 368.399 183.903 365.774 185.847C364.437 186.838 363.442 188.14 362.546 189.501C361.364 191.293 360.489 193.234 359.847 195.301C358.852 198.504 358.422 201.767 358.274 205.108C358.027 210.693 358.221 216.263 358.542 221.834C358.665 223.982 358.563 226.113 358.337 228.244C358.292 228.688 358.232 229.15 358.288 229.588C358.443 230.815 359.696 231.38 360.676 230.628C361.657 229.877 362.624 229.097 363.414 228.127C364.55 226.727 365.735 225.365 366.836 223.94C369.457 220.553 372.043 217.142 374.636 213.73C374.904 213.377 375.264 213.074 375.345 212.601C374.71 211.656 374.308 210.601 374.304 209.472C374.297 207.631 374.198 205.793 374.586 203.948C375.19 201.065 376.495 198.568 378.389 196.381C379.49 195.111 380.746 193.971 381.952 192.796C382.69 192.08 383.554 191.583 384.612 191.498H384.605Z" fill="#7A4821"/>
<path d="M384.606 191.498C383.551 191.582 382.683 192.08 381.946 192.796C380.739 193.971 379.483 195.11 378.383 196.38C376.485 198.567 375.179 201.065 374.58 203.947C374.195 205.792 374.294 207.63 374.297 209.472C374.297 210.601 374.703 211.652 375.338 212.601C375.472 212.474 375.61 212.35 375.744 212.223C377.056 211.183 377.67 209.874 377.702 208.156C377.733 206.406 378.404 204.762 379.102 203.164C379.917 201.301 380.958 199.566 382.238 197.992C382.873 197.209 383.625 196.514 384.348 195.809C384.93 195.241 385.357 194.606 385.498 193.794C385.484 193.604 385.47 193.413 385.456 193.223C385.117 192.672 385.099 191.967 384.606 191.494V191.498Z" fill="#5C3717"/>
<path d="M365.457 279.911C365.552 280.758 366.233 281.118 366.822 281.555C366.97 281.375 367.147 281.252 367.387 281.231C371.941 280.769 375.906 278.924 379.515 276.168C382.845 273.628 385.417 270.489 387.269 266.742C388.049 265.165 388.483 263.482 388.839 261.772C389.047 260.78 389.276 259.789 389.167 258.769C388.998 257.21 388.885 255.644 388.063 254.233C387.558 253.361 386.941 252.557 386.638 251.562C386.521 251.178 386.084 250.864 385.735 250.588C385.258 250.214 384.553 250.574 384.472 251.195C384.426 251.544 384.5 251.862 384.652 252.176C385.766 254.48 385.967 256.949 385.742 259.429C385.593 261.038 385.195 262.636 384.641 264.174C383.276 267.991 380.884 271.124 377.832 273.674C375.462 275.653 372.809 277.301 369.651 277.869C368.717 278.038 367.803 278.334 366.864 278.5C366.025 278.648 365.549 279.075 365.45 279.922L365.457 279.911Z" fill="#DEA882"/>
</svg>
