<svg width="500" height="500" viewBox="0 0 500 500" fill="none" xmlns="http://www.w3.org/2000/svg">
<path d="M375.734 228.587C375.787 227.91 375.649 228.115 375.744 226.224C375.766 225.8 376.221 225.603 376.641 225.338C377.339 224.46 377.681 223.419 377.702 222.156C377.734 220.406 378.404 218.763 379.103 217.164C379.918 215.302 380.959 213.566 382.239 211.993C382.874 211.21 383.626 210.515 384.349 209.809C384.423 209.738 384.493 209.664 384.56 209.59C385.139 208.472 385.495 207.795 385.495 207.795C385.495 207.795 386.031 207.516 386.938 207.11C386.942 207.1 386.949 207.089 386.952 207.079C387.019 207.057 387.083 207.036 387.15 207.015C389.358 206.041 393.472 204.443 397.603 203.985C403.311 203.35 405.812 202.768 412.25 205.798C412.419 205.865 412.585 205.932 412.754 206.003C412.758 206.02 412.765 206.031 412.769 206.048C413.023 206.172 413.28 206.299 413.548 206.433C420.971 210.176 424.121 214.646 424.862 221.056C424.756 221.899 424.382 222.431 423.5 222.735C423.236 222.827 422.971 222.929 422.706 223.024L408.013 236.454C407.936 236.737 407.858 237.022 407.78 237.305C407.48 238.388 407.145 239.46 406.803 240.532C406.598 241.175 406.157 241.556 405.463 241.658C404.189 241.848 402.923 242.074 401.649 242.272L390.198 252.742C390.053 253.042 389.901 253.342 389.76 253.645C389.531 254.125 389.139 254.259 388.642 254.167C388.642 254.167 387.979 253.289 386.952 251.839C386.938 251.839 386.924 251.836 386.906 251.836C386.861 251.751 386.815 251.67 386.772 251.585C386.532 251.243 386.271 250.869 385.996 250.47C385.972 250.463 385.95 250.456 385.926 250.449C385.841 250.301 385.76 250.149 385.675 249.998C385.171 249.26 384.627 248.452 384.063 247.588C383.95 247.422 383.837 247.26 383.724 247.094C383.724 247.084 383.724 247.077 383.724 247.066C383.516 246.745 383.305 246.417 383.093 246.082C383.043 246.053 382.998 246.029 382.948 246.004C382.909 245.895 382.874 245.782 382.835 245.676C382.715 245.486 382.595 245.291 382.475 245.097C382.451 245.076 382.43 245.055 382.405 245.037C382.408 245.02 382.408 245.009 382.412 244.992C382.274 244.769 382.14 244.551 382.003 244.325C381.989 244.318 381.975 244.311 381.957 244.304C381.936 244.251 381.911 244.198 381.89 244.141C378.613 238.733 375.434 232.404 375.73 228.591L375.734 228.587Z" fill="#7A4821"/>
<path d="M202.759 329.373C201.877 329.793 200.936 329.892 199.955 329.85C197.302 329.74 194.688 329.299 192.063 328.943C188.765 328.495 185.459 328.149 182.118 328.301C180.429 328.378 178.735 328.347 177.042 328.375C173.655 328.431 170.279 328.625 166.914 328.996C163.273 329.398 159.615 329.687 155.988 330.174C149.79 331.01 143.574 331.73 137.393 332.7C132.772 333.423 128.14 334.101 123.479 334.534C122.245 334.647 121.007 334.753 119.779 334.919C118.262 335.124 116.752 335.184 115.246 334.855C114.974 335.593 114.727 336.327 114.649 337.12C114.41 339.629 114.159 342.133 113.884 344.634C113.732 346.024 113.499 347.404 113.355 348.794C113.199 350.297 113.101 351.803 112.977 353.309C114.992 353.542 117.002 353.789 119.017 354.004C121.98 354.322 124.947 354.632 127.914 354.911C130.997 355.2 134.084 355.437 137.164 355.722C140.243 356.008 143.323 356.333 146.403 356.636C147.634 356.756 148.869 356.862 150.1 356.982C154.464 357.402 158.824 357.843 163.188 358.245C166.434 358.545 169.683 358.799 172.932 359.081C177.585 359.483 182.231 359.934 186.888 360.284C189.072 360.446 191.269 360.414 193.46 360.481C194.416 360.51 195.376 360.531 196.325 360.629C197.115 360.711 197.87 360.492 198.674 360.562C200.572 360.728 202.488 360.689 204.396 360.753C205.345 360.785 206.259 360.499 207.236 360.594C209.413 360.809 211.607 360.838 213.794 360.947C215.583 361.039 217.382 361.095 219.174 361.187C222.254 361.346 225.341 361.384 228.417 361.66C230.206 361.818 232.015 361.723 233.804 361.868C237.289 362.15 240.782 362.065 244.267 362.231C246.059 362.316 247.841 362.256 249.63 362.224C249.965 362.217 250.303 362.252 250.638 362.277C250.917 362.298 251.206 362.393 251.475 362.358C253.605 362.058 255.761 362.266 257.881 362.044C259.673 361.854 261.49 361.966 263.264 361.578C263.698 361.483 264.164 361.526 264.612 361.522C265.289 361.518 265.967 361.504 266.626 361.321C266.789 361.275 266.958 361.222 267.124 361.219C269.216 361.176 271.262 360.732 273.333 360.524C274.289 360.428 275.248 360.383 276.173 360.125C277.651 359.712 279.189 359.765 280.685 359.472C287.324 358.174 293.924 356.714 300.451 354.943C300.666 354.883 300.867 354.77 301.072 354.682C301.1 354.064 301.153 353.447 301.153 352.83C301.149 347.658 301.163 342.483 301.111 337.311C301.079 334.108 300.899 330.908 300.864 327.708C300.814 323.436 300.842 319.164 300.839 314.892C300.133 314.281 299.262 314.02 298.391 313.795C295.611 313.071 292.82 312.369 290.033 311.674C286.371 310.761 282.706 309.858 279.041 308.958C275.531 308.097 271.964 307.579 268.376 307.166C267.872 307.109 267.36 307.071 266.856 307.092C264.041 307.198 261.239 307.374 258.445 307.857C256.251 308.238 254.209 308.993 252.159 309.784" fill="#6A6D66"/>
<path d="M400.093 300.593C399.507 300.558 399.003 300.784 398.498 301.052C394.826 302.992 390.857 303.987 386.786 304.601C385.513 304.795 384.214 304.777 382.934 304.474C380.807 303.966 378.658 303.585 376.609 302.749C372.732 301.168 369.355 298.953 366.826 295.559C366.974 295.379 367.151 295.256 367.39 295.235C371.945 294.772 375.91 292.927 379.519 290.172C382.849 287.632 385.421 284.492 387.273 280.746C388.053 279.169 388.487 277.486 388.843 275.775C389.051 274.784 389.28 273.793 389.171 272.773C389.002 271.214 388.889 269.648 388.067 268.236C387.562 267.365 386.945 266.561 386.642 265.566C386.525 265.181 386.088 264.867 385.738 264.592C385.262 264.218 384.557 264.578 384.476 265.199C384.43 265.548 384.504 265.866 384.655 266.18C385.77 268.483 385.971 270.953 385.746 273.433C385.597 275.042 385.199 276.64 384.645 278.178C383.28 281.995 380.888 285.127 377.836 287.678C375.466 289.657 372.813 291.305 369.655 291.873C368.72 292.042 367.807 292.338 366.868 292.504C366.029 292.652 365.553 293.079 365.454 293.926C364.967 293.552 364.406 293.552 363.842 293.622C361.947 293.866 360.053 294.084 358.165 294.384C355.893 294.744 353.604 295.023 351.286 294.899C350.111 294.836 348.926 294.917 347.748 294.931C347.183 294.914 346.622 294.878 346.058 294.885C343.525 294.924 340.992 295.002 338.459 295.104C335.316 295.235 332.162 295.298 329.005 294.949C326.44 294.663 323.833 294.846 321.244 294.6C318.95 294.381 316.636 294.497 314.326 294.271C311.863 294.032 309.38 294.141 306.903 293.94C303.65 293.679 300.377 293.876 297.11 293.587C294.196 293.333 291.261 293.46 288.329 293.27C284.286 293.009 280.222 293.076 276.166 292.896C272.334 292.726 268.496 292.825 264.658 292.804C264.15 292.804 263.624 292.874 263.141 292.762C261.86 292.462 260.566 292.501 259.271 292.465C258.707 292.448 258.156 292.395 257.599 292.275C255.401 291.806 253.189 291.386 250.984 290.948C249.753 290.705 248.511 290.655 247.284 290.892C246.677 291.008 246.074 291.128 245.46 291.22C244.518 291.361 243.576 291.562 242.662 291.841C239.163 292.913 235.674 294.017 232.188 295.136C231.423 295.379 230.71 295.489 229.892 295.263C228.978 295.009 228.004 294.984 227.059 294.836C225.782 294.635 224.512 294.398 223.231 294.208C222.624 294.116 222.36 293.771 222.286 293.203C222.106 291.749 221.866 290.31 221.891 288.835C221.936 286.016 221.926 283.194 221.94 280.372C221.94 280.146 221.951 279.92 221.954 279.695C221.968 278.509 222.339 277.504 223.316 276.745C224.159 276.089 224.956 275.373 225.757 274.661C226.11 274.347 226.533 274.209 226.96 274.068C231.461 272.604 235.966 271.157 240.461 269.683C241.244 269.425 242.006 269.425 242.786 269.644C243.11 269.736 243.435 269.835 243.756 269.94C244.878 270.314 245.978 270.734 247.065 271.214C248.038 271.644 249.164 271.775 250.081 272.286C251.372 273.01 252.72 273.154 254.131 273.2C256.551 273.278 258.968 273.281 261.391 273.461C264.757 273.712 268.147 273.553 271.523 273.846C272.867 273.962 274.215 273.75 275.562 273.63C278.42 273.38 281.281 273.161 284.138 272.942C287.056 272.72 289.973 272.53 292.884 272.251C295.011 272.05 297.152 271.969 299.287 271.838C299.512 271.824 299.745 271.845 299.96 271.796C301.841 271.376 303.77 271.5 305.668 271.256C307.898 270.967 310.159 270.949 312.406 270.812C312.519 270.805 312.636 270.815 312.745 270.791C314.618 270.328 316.555 270.551 318.453 270.244C320.111 269.976 321.794 269.82 323.466 269.588C324.86 269.394 326.264 269.302 327.661 269.136C328.722 269.013 329.798 268.928 330.829 268.677C335.859 267.464 340.914 266.353 345.98 265.291C351.484 264.137 356.948 262.786 362.437 261.555C364.963 260.987 367.51 260.553 370.128 260.659C372.153 260.74 374.178 260.669 376.199 260.966C377.035 261.089 377.872 261.156 378.686 261.403C379.882 261.77 380.99 262.292 382.01 263.029C382.768 263.58 382.92 263.52 383.452 262.677C384.811 260.535 386.162 258.39 387.495 256.235C387.908 255.568 388.257 254.863 388.638 254.175C389.136 254.266 389.527 254.136 389.757 253.653C390.071 252.993 390.406 252.347 390.692 251.677C391.658 249.398 392.649 247.13 393.542 244.819C393.962 243.729 394.667 243.239 395.782 243.108C397.571 242.9 399.352 242.632 401.134 242.364C402.58 242.148 404.016 241.88 405.462 241.665C406.157 241.563 406.598 241.182 406.803 240.54C407.145 239.471 407.48 238.395 407.78 237.312C408.486 234.768 409.17 232.218 409.861 229.671C409.964 229.293 410.112 228.916 410.137 228.531C410.183 227.861 410.571 227.519 411.139 227.318C412.839 226.718 414.543 226.125 416.247 225.529C416.938 225.286 417.633 225.056 418.311 224.792C420.039 224.111 421.743 223.349 423.496 222.746C424.378 222.442 424.752 221.91 424.858 221.066C424.96 221.105 425.151 221.148 425.147 221.179C425.084 222.1 425.645 222.859 425.804 223.726C426.181 225.783 426.114 227.872 426.347 229.935C426.424 230.627 426.495 231.223 427.017 231.766C427.677 232.454 428.224 233.251 428.816 233.999C430.316 235.897 431.818 237.792 433.311 239.697C433.554 240.004 433.769 240.335 433.974 240.67C434.246 241.111 434.193 241.538 433.836 241.905C433.565 242.187 433.282 242.473 432.972 242.709C431.896 243.528 430.82 244.343 429.719 245.126C427.395 246.78 427.659 246.103 427.761 249.426C427.786 250.76 427.85 251.543 427.709 252.584C427.444 254.535 426.47 255.942 424.438 256.415C423.673 256.591 422.918 256.824 422.145 256.958C420.928 257.17 419.7 257.311 418.483 257.505C416.155 257.875 413.83 258.27 411.502 258.637C410.937 258.726 410.556 258.958 410.461 259.555C410.211 261.128 409.54 262.578 408.92 264.007C407.71 266.794 406.828 269.697 405.723 272.523C404.517 275.61 403.399 278.728 402.291 281.854L400.086 300.611" fill="#F6BB92"/>
<path d="M400.086 302.773C400.008 302.046 399.991 301.319 400.097 300.589C399.511 300.554 399.007 300.78 398.502 301.048C394.83 302.988 390.861 303.983 386.79 304.597C385.516 304.791 384.218 304.773 382.938 304.47C380.81 303.962 378.662 303.581 376.612 302.745C372.735 301.164 369.359 298.949 366.83 295.555C366.241 295.121 365.56 294.758 365.464 293.911C364.978 293.537 364.417 293.537 363.852 293.608C361.958 293.851 360.063 294.07 358.176 294.37C355.904 294.729 353.615 295.008 351.297 294.885C350.122 294.821 348.937 294.902 347.758 294.916C347.667 295.555 347.173 295.848 346.69 296.13C343.892 297.767 341.094 299.411 338.276 301.009C337.355 301.531 336.353 301.912 335.397 302.374C334.9 302.618 334.332 302.748 333.975 303.231C334.515 303.69 334.706 304.357 334.998 304.956C336.685 308.392 338.353 311.836 340.022 315.279C341.493 318.316 342.954 321.361 344.432 324.395C347.141 329.958 349.868 335.507 352.563 341.077C353.198 342.386 353.967 343.646 354.285 345.096C355.474 344.75 356.663 344.408 357.851 344.058C361.527 342.982 365.196 341.882 368.883 340.838C371.751 340.023 374.633 339.257 377.522 338.513C384.927 336.604 390.737 332.367 395.338 326.367C396.699 324.592 397.43 322.511 397.959 320.366C398.174 319.491 398.312 318.598 398.463 317.709" fill="#8A8AD9"/>
<path d="M354.278 345.096C353.96 343.646 353.188 342.39 352.556 341.078C349.861 335.507 347.134 329.958 344.425 324.395C342.947 321.361 341.49 318.316 340.015 315.279C338.346 311.836 336.678 308.393 334.991 304.957C334.699 304.357 334.505 303.69 333.968 303.231C333.062 303.351 332.25 303.743 331.435 304.124C326.137 306.593 320.722 308.752 315.172 310.601C311.817 311.719 308.462 312.827 305.069 313.811C303.672 314.217 302.247 314.531 300.839 314.891C300.842 319.163 300.814 323.435 300.864 327.707C300.899 330.91 301.079 334.11 301.111 337.31C301.164 342.482 301.149 347.657 301.153 352.829C301.153 353.446 301.1 354.063 301.072 354.681C302.18 355.249 303.354 355.192 304.54 355.044C304.984 354.988 305.422 354.857 305.866 354.836C308.448 354.698 310.995 354.286 313.546 353.897C314.601 353.739 315.663 353.626 316.718 353.509C320.344 353.111 323.925 352.437 327.52 351.834C329.897 351.435 332.289 351.128 334.667 350.726C338.816 350.024 342.971 349.364 346.986 348.038C348.266 347.615 349.558 347.248 350.831 346.793C352.055 346.355 353.198 345.801 354.278 345.092V345.096Z" fill="#F6BB92"/>
<path d="M112.977 353.312C113.101 351.806 113.199 350.3 113.355 348.797C113.499 347.407 113.732 346.027 113.884 344.637C114.159 342.136 114.41 339.628 114.649 337.123C114.724 336.33 114.974 335.592 115.246 334.858C114.385 334.061 113.57 333.204 112.649 332.477C111.016 331.19 109.668 329.581 107.954 328.381C106.003 327.016 103.787 326.342 101.487 326.236C99.5999 326.152 97.7231 326.614 95.9345 327.408C91.3519 329.436 86.7764 331.468 82.2926 333.708C80.1336 334.788 77.8581 335.638 75.6427 336.608C74.1469 337.264 72.6476 337.906 71.1871 338.633C69.8712 339.289 68.6683 340.147 67.7405 341.297C66.2165 343.18 65.5885 345.371 65.9731 347.767C66.3294 349.993 67.6346 351.658 69.4056 352.995C70.5662 353.87 71.875 354.247 73.2897 354.48C74.4186 354.663 75.5086 354.491 76.6164 354.469C78.6448 354.434 80.6733 354.434 82.7018 354.42C83.3192 354.416 83.9436 354.487 84.5398 354.247C84.6421 354.205 84.7656 354.166 84.8679 354.184C86.7129 354.466 88.5474 354.004 90.3959 354.095C92.1951 354.184 94.0013 354.05 95.804 354.085C97.2186 354.113 98.5804 353.7 100.002 353.764C101.632 353.838 103.269 353.774 104.906 353.746C106.419 353.721 107.936 353.827 109.446 353.492C110.144 353.337 110.906 353.464 111.637 353.436C112.085 353.422 112.529 353.362 112.977 353.319V353.312Z" fill="#F6BB92"/>
<path d="M384.606 205.498C384.655 203.692 383.879 202.228 382.687 200.951C382.073 200.291 381.473 199.621 380.739 199.081C378.908 197.74 376.866 197.077 374.601 197.007C371.313 196.908 368.399 197.903 365.774 199.847C364.437 200.838 363.443 202.14 362.546 203.501C361.365 205.293 360.49 207.234 359.848 209.301C358.853 212.504 358.423 215.767 358.274 219.108C358.027 224.693 358.221 230.263 358.542 235.834C358.666 237.982 358.564 240.113 358.338 242.244C358.292 242.688 358.232 243.15 358.288 243.588C358.444 244.815 359.696 245.38 360.677 244.628C361.657 243.877 362.624 243.097 363.414 242.127C364.55 240.727 365.736 239.365 366.836 237.94C369.457 234.553 372.043 231.142 374.636 227.73C374.904 227.377 375.264 227.074 375.345 226.601C374.71 225.656 374.308 224.601 374.305 223.472C374.298 221.631 374.199 219.793 374.587 217.948C375.19 215.065 376.495 212.568 378.39 210.381C379.49 209.111 380.746 207.971 381.953 206.796C382.69 206.08 383.554 205.583 384.613 205.498H384.606Z" fill="#7A4821"/>
<path d="M384.606 205.498C383.551 205.582 382.683 206.08 381.946 206.796C380.74 207.971 379.484 209.11 378.383 210.38C376.485 212.567 375.18 215.065 374.58 217.947C374.196 219.792 374.294 221.63 374.298 223.472C374.298 224.601 374.704 225.652 375.339 226.601C375.473 226.474 375.61 226.35 375.744 226.223C377.057 225.183 377.67 223.874 377.702 222.156C377.734 220.406 378.404 218.762 379.103 217.164C379.918 215.301 380.958 213.566 382.239 211.992C382.874 211.209 383.625 210.514 384.348 209.809C384.931 209.241 385.357 208.606 385.499 207.794C385.484 207.604 385.47 207.413 385.456 207.223C385.118 206.672 385.1 205.967 384.606 205.494V205.498Z" fill="#5C3717"/>
<path d="M365.457 293.911C365.553 294.758 366.233 295.118 366.823 295.555C366.971 295.375 367.147 295.252 367.387 295.231C371.941 294.769 375.907 292.924 379.516 290.168C382.846 287.628 385.418 284.489 387.27 280.742C388.049 279.165 388.483 277.482 388.839 275.772C389.048 274.78 389.277 273.789 389.168 272.769C388.998 271.21 388.885 269.644 388.063 268.233C387.559 267.361 386.942 266.557 386.638 265.562C386.522 265.178 386.084 264.864 385.735 264.588C385.259 264.214 384.553 264.574 384.472 265.195C384.426 265.544 384.5 265.862 384.652 266.176C385.767 268.48 385.968 270.949 385.742 273.429C385.594 275.038 385.195 276.636 384.641 278.174C383.276 281.991 380.884 285.124 377.833 287.674C375.462 289.653 372.809 291.301 369.652 291.869C368.717 292.038 367.803 292.334 366.865 292.5C366.025 292.648 365.549 293.075 365.45 293.922L365.457 293.911Z" fill="#DEA882"/>
</svg>
