<svg width="500" height="500" viewBox="0 0 500 500" fill="none" xmlns="http://www.w3.org/2000/svg">
<path d="M375.733 217.043C375.786 216.366 375.649 216.571 375.744 214.68C375.765 214.257 376.22 214.059 376.64 213.794C377.339 212.916 377.681 211.875 377.702 210.612C377.734 208.863 378.404 207.219 379.102 205.62C379.917 203.758 380.958 202.022 382.239 200.449C382.874 199.666 383.625 198.971 384.348 198.265C384.422 198.195 384.493 198.12 384.56 198.046C385.138 196.928 385.495 196.251 385.495 196.251C385.495 196.251 386.031 195.972 386.938 195.566C386.941 195.556 386.948 195.545 386.952 195.535C387.019 195.513 387.082 195.492 387.149 195.471C389.358 194.497 393.471 192.899 397.602 192.441C403.31 191.806 405.811 191.224 412.249 194.254C412.419 194.321 412.585 194.388 412.754 194.459C412.758 194.476 412.765 194.487 412.768 194.504C413.022 194.628 413.28 194.755 413.548 194.889C420.97 198.632 424.12 203.102 424.861 209.512C424.755 210.355 424.382 210.887 423.5 211.191C423.235 211.283 422.97 211.385 422.706 211.48L408.013 224.91C407.935 225.193 407.857 225.478 407.78 225.761C407.48 226.844 407.145 227.916 406.803 228.989C406.598 229.631 406.157 230.012 405.462 230.114C404.189 230.304 402.922 230.53 401.649 230.728L390.197 241.198C390.053 241.498 389.901 241.798 389.76 242.101C389.531 242.581 389.139 242.715 388.642 242.623C388.642 242.623 387.978 241.745 386.952 240.295C386.938 240.295 386.924 240.292 386.906 240.292C386.86 240.207 386.814 240.126 386.772 240.041C386.532 239.699 386.271 239.325 385.996 238.926C385.971 238.919 385.95 238.912 385.925 238.905C385.84 238.757 385.759 238.605 385.675 238.454C385.17 237.716 384.627 236.908 384.062 236.044C383.95 235.878 383.837 235.716 383.724 235.55C383.724 235.54 383.724 235.533 383.724 235.522C383.516 235.201 383.304 234.873 383.092 234.538C383.043 234.51 382.997 234.485 382.948 234.46C382.909 234.351 382.874 234.238 382.835 234.132C382.715 233.942 382.595 233.748 382.475 233.553C382.45 233.532 382.429 233.511 382.404 233.494C382.408 233.476 382.408 233.465 382.411 233.448C382.274 233.225 382.14 233.007 382.002 232.781C381.988 232.774 381.974 232.767 381.956 232.76C381.935 232.707 381.911 232.654 381.889 232.597C378.612 227.189 375.434 220.861 375.73 217.047L375.733 217.043Z" fill="#7A4821"/>
<path d="M202.759 317.829C201.877 318.249 200.935 318.348 199.954 318.306C197.301 318.196 194.687 317.755 192.063 317.399C188.764 316.951 185.459 316.605 182.118 316.757C180.428 316.835 178.735 316.803 177.041 316.831C173.655 316.887 170.279 317.081 166.913 317.452C163.272 317.854 159.614 318.143 155.988 318.63C149.789 319.466 143.573 320.186 137.393 321.156C132.771 321.879 128.139 322.557 123.479 322.99C122.244 323.103 121.006 323.209 119.778 323.375C118.261 323.58 116.751 323.64 115.245 323.312C114.973 324.049 114.727 324.783 114.649 325.576C114.409 328.085 114.159 330.589 113.883 333.091C113.732 334.48 113.499 335.86 113.354 337.25C113.199 338.753 113.1 340.259 112.977 341.765C114.991 341.998 117.002 342.245 119.016 342.46C121.98 342.778 124.947 343.088 127.913 343.367C130.997 343.656 134.083 343.893 137.163 344.178C140.243 344.464 143.323 344.789 146.403 345.092C147.634 345.212 148.868 345.318 150.1 345.438C154.464 345.858 158.824 346.299 163.188 346.701C166.433 347.001 169.682 347.255 172.931 347.537C177.585 347.939 182.231 348.391 186.887 348.74C189.071 348.902 191.269 348.87 193.46 348.937C194.416 348.966 195.375 348.987 196.324 349.086C197.114 349.167 197.869 348.948 198.674 349.018C200.572 349.184 202.487 349.145 204.396 349.209C205.345 349.241 206.258 348.955 207.236 349.05C209.412 349.265 211.607 349.294 213.794 349.403C215.582 349.495 217.382 349.551 219.174 349.643C222.253 349.802 225.34 349.84 228.416 350.116C230.205 350.274 232.015 350.179 233.803 350.324C237.289 350.606 240.781 350.521 244.267 350.687C246.059 350.772 247.84 350.712 249.629 350.68C249.964 350.673 250.303 350.708 250.638 350.733C250.917 350.754 251.206 350.849 251.474 350.814C253.605 350.514 255.76 350.722 257.881 350.5C259.673 350.31 261.489 350.423 263.264 350.034C263.698 349.939 264.164 349.982 264.612 349.978C265.289 349.975 265.966 349.96 266.626 349.777C266.788 349.731 266.958 349.678 267.123 349.675C269.215 349.632 271.261 349.188 273.332 348.98C274.288 348.884 275.248 348.839 276.172 348.581C277.65 348.168 279.188 348.221 280.684 347.928C287.323 346.63 293.924 345.17 300.45 343.399C300.666 343.339 300.867 343.226 301.071 343.138C301.099 342.52 301.152 341.903 301.152 341.286C301.149 336.114 301.163 330.939 301.11 325.767C301.078 322.564 300.898 319.364 300.863 316.164C300.814 311.892 300.842 307.62 300.838 303.348C300.133 302.737 299.261 302.476 298.39 302.251C295.61 301.527 292.82 300.825 290.033 300.13C286.371 299.217 282.706 298.314 279.04 297.414C275.53 296.553 271.963 296.035 268.376 295.622C267.871 295.565 267.36 295.527 266.855 295.548C264.04 295.654 261.239 295.83 258.445 296.313C256.251 296.694 254.208 297.449 252.158 298.24" fill="#6A6D66"/>
<path d="M400.093 289.049C399.507 289.014 399.002 289.24 398.498 289.508C394.826 291.448 390.857 292.443 386.786 293.057C385.512 293.251 384.214 293.233 382.933 292.93C380.806 292.422 378.658 292.041 376.608 291.205C372.731 289.624 369.355 287.409 366.826 284.015C366.974 283.835 367.15 283.712 367.39 283.691C371.944 283.228 375.91 281.383 379.519 278.628C382.849 276.088 385.421 272.949 387.273 269.202C388.052 267.625 388.486 265.942 388.842 264.231C389.051 263.24 389.28 262.249 389.171 261.229C389.001 259.67 388.888 258.104 388.066 256.692C387.562 255.821 386.945 255.017 386.641 254.022C386.525 253.637 386.087 253.323 385.738 253.048C385.262 252.674 384.556 253.034 384.475 253.655C384.429 254.004 384.503 254.322 384.655 254.636C385.77 256.939 385.971 259.409 385.745 261.889C385.597 263.498 385.198 265.096 384.644 266.634C383.279 270.451 380.887 273.584 377.836 276.134C375.465 278.113 372.812 279.761 369.655 280.329C368.72 280.498 367.806 280.794 366.868 280.96C366.028 281.108 365.552 281.535 365.453 282.382C364.966 282.008 364.405 282.008 363.841 282.078C361.947 282.322 360.052 282.541 358.165 282.84C355.893 283.2 353.603 283.479 351.286 283.355C350.111 283.292 348.926 283.373 347.747 283.387C347.183 283.37 346.622 283.334 346.057 283.341C343.525 283.38 340.992 283.458 338.459 283.56C335.315 283.691 332.162 283.754 329.004 283.405C326.439 283.119 323.832 283.303 321.243 283.056C318.95 282.837 316.636 282.953 314.325 282.728C311.863 282.488 309.379 282.597 306.903 282.396C303.65 282.135 300.376 282.332 297.109 282.043C294.196 281.789 291.26 281.916 288.329 281.726C284.286 281.465 280.222 281.532 276.165 281.352C272.334 281.182 268.496 281.281 264.657 281.26C264.149 281.26 263.624 281.331 263.14 281.218C261.86 280.918 260.565 280.957 259.27 280.921C258.706 280.904 258.156 280.851 257.598 280.731C255.4 280.262 253.189 279.842 250.984 279.404C249.752 279.161 248.511 279.112 247.283 279.348C246.676 279.464 246.073 279.584 245.459 279.676C244.517 279.817 243.575 280.018 242.662 280.297C239.162 281.369 235.673 282.474 232.188 283.592C231.422 283.835 230.71 283.945 229.891 283.719C228.977 283.465 228.004 283.44 227.058 283.292C225.781 283.091 224.511 282.855 223.231 282.664C222.624 282.572 222.359 282.227 222.285 281.659C222.105 280.205 221.865 278.766 221.89 277.291C221.936 274.473 221.925 271.65 221.939 268.828C221.939 268.602 221.95 268.376 221.954 268.151C221.968 266.965 222.338 265.96 223.315 265.201C224.158 264.545 224.956 263.829 225.757 263.117C226.109 262.803 226.533 262.665 226.959 262.524C231.461 261.06 235.966 259.613 240.46 258.139C241.243 257.881 242.005 257.881 242.785 258.1C243.11 258.192 243.434 258.291 243.755 258.396C244.877 258.77 245.978 259.19 247.064 259.67C248.038 260.1 249.163 260.231 250.081 260.742C251.372 261.466 252.719 261.61 254.13 261.656C256.551 261.734 258.967 261.737 261.391 261.917C264.756 262.168 268.146 262.009 271.522 262.302C272.867 262.418 274.214 262.206 275.562 262.086C278.419 261.836 281.28 261.617 284.138 261.399C287.055 261.176 289.973 260.986 292.883 260.707C295.01 260.506 297.152 260.425 299.286 260.294C299.512 260.28 299.745 260.301 299.96 260.252C301.84 259.832 303.77 259.956 305.668 259.712C307.897 259.423 310.159 259.405 312.406 259.268C312.519 259.261 312.635 259.271 312.745 259.247C314.618 258.784 316.555 259.007 318.453 258.7C320.111 258.432 321.793 258.276 323.466 258.044C324.859 257.85 326.263 257.758 327.66 257.592C328.722 257.469 329.798 257.384 330.828 257.133C335.859 255.92 340.914 254.809 345.98 253.747C351.483 252.593 356.948 251.242 362.437 250.011C364.963 249.443 367.51 249.009 370.128 249.115C372.153 249.196 374.177 249.125 376.199 249.422C377.035 249.545 377.871 249.612 378.686 249.859C379.882 250.226 380.99 250.748 382.009 251.485C382.768 252.036 382.919 251.976 383.452 251.133C384.81 248.991 386.161 246.846 387.495 244.691C387.908 244.024 388.257 243.319 388.638 242.631C389.135 242.722 389.527 242.592 389.756 242.109C390.07 241.449 390.405 240.803 390.691 240.133C391.658 237.854 392.649 235.586 393.541 233.275C393.961 232.185 394.667 231.695 395.782 231.564C397.57 231.356 399.352 231.088 401.133 230.82C402.58 230.605 404.015 230.336 405.462 230.121C406.157 230.019 406.598 229.638 406.802 228.996C407.145 227.927 407.48 226.851 407.78 225.768C408.485 223.224 409.17 220.674 409.861 218.127C409.963 217.749 410.111 217.372 410.136 216.987C410.182 216.317 410.57 215.975 411.138 215.774C412.838 215.174 414.542 214.581 416.246 213.985C416.938 213.742 417.633 213.512 418.31 213.248C420.039 212.567 421.743 211.805 423.496 211.202C424.378 210.898 424.752 210.366 424.858 209.522C424.96 209.561 425.15 209.604 425.147 209.635C425.083 210.556 425.644 211.315 425.803 212.182C426.181 214.239 426.114 216.328 426.346 218.391C426.424 219.083 426.495 219.679 427.017 220.222C427.676 220.91 428.223 221.707 428.816 222.455C430.315 224.353 431.818 226.248 433.31 228.153C433.554 228.46 433.769 228.791 433.973 229.126C434.245 229.567 434.192 229.994 433.836 230.361C433.564 230.643 433.282 230.929 432.972 231.165C431.896 231.984 430.82 232.799 429.719 233.582C427.394 235.236 427.659 234.559 427.761 237.882C427.786 239.216 427.849 239.999 427.708 241.04C427.443 242.991 426.47 244.398 424.438 244.871C423.672 245.047 422.917 245.28 422.145 245.414C420.928 245.626 419.7 245.767 418.483 245.961C416.155 246.331 413.83 246.726 411.501 247.093C410.937 247.182 410.556 247.414 410.461 248.011C410.21 249.584 409.54 251.034 408.919 252.463C407.709 255.25 406.827 258.153 405.723 260.979C404.516 264.066 403.398 267.184 402.29 270.31L400.086 289.067" fill="#F6BB92"/>
<path d="M400.085 291.229C400.008 290.502 399.99 289.775 400.096 289.045C399.51 289.01 399.006 289.236 398.501 289.504C394.829 291.444 390.86 292.439 386.789 293.053C385.515 293.247 384.217 293.229 382.937 292.926C380.809 292.418 378.661 292.037 376.611 291.201C372.734 289.62 369.358 287.405 366.829 284.011C366.24 283.577 365.559 283.214 365.463 282.367C364.977 281.993 364.416 281.993 363.851 282.064C361.957 282.307 360.062 282.526 358.175 282.826C355.903 283.185 353.614 283.464 351.296 283.341C350.121 283.277 348.936 283.358 347.757 283.372C347.666 284.011 347.172 284.304 346.689 284.586C343.891 286.223 341.094 287.867 338.275 289.465C337.354 289.987 336.352 290.368 335.396 290.83C334.899 291.074 334.331 291.204 333.974 291.687C334.514 292.146 334.705 292.813 334.997 293.412C336.684 296.849 338.352 300.292 340.021 303.735C341.492 306.772 342.953 309.817 344.431 312.851C347.14 318.414 349.867 323.963 352.562 329.533C353.197 330.842 353.966 332.102 354.284 333.552C355.473 333.206 356.662 332.864 357.85 332.514C361.526 331.438 365.195 330.338 368.882 329.294C371.75 328.479 374.632 327.713 377.521 326.969C384.926 325.06 390.736 320.823 395.337 314.823C396.698 313.048 397.429 310.967 397.958 308.822C398.173 307.947 398.311 307.054 398.462 306.165" fill="#8A8AD9"/>
<path d="M354.277 333.552C353.96 332.102 353.187 330.846 352.556 329.534C349.861 323.963 347.134 318.414 344.424 312.851C342.946 309.817 341.489 306.772 340.015 303.735C338.346 300.292 336.677 296.849 334.991 293.413C334.698 292.813 334.504 292.146 333.968 291.688C333.061 291.807 332.25 292.199 331.435 292.58C326.136 295.049 320.721 297.208 315.172 299.057C311.817 300.175 308.462 301.283 305.068 302.267C303.671 302.673 302.246 302.987 300.838 303.347C300.842 307.619 300.814 311.891 300.863 316.163C300.898 319.367 301.078 322.566 301.11 325.766C301.163 330.938 301.149 336.113 301.152 341.285C301.152 341.902 301.1 342.519 301.071 343.137C302.179 343.705 303.354 343.648 304.539 343.5C304.984 343.444 305.421 343.313 305.866 343.292C308.448 343.154 310.995 342.742 313.546 342.354C314.6 342.195 315.662 342.082 316.717 341.965C320.344 341.567 323.924 340.893 327.519 340.29C329.897 339.891 332.289 339.584 334.666 339.182C338.815 338.48 342.971 337.82 346.985 336.494C348.266 336.071 349.557 335.704 350.831 335.249C352.055 334.811 353.198 334.257 354.277 333.548V333.552Z" fill="#F6BB92"/>
<path d="M112.977 341.768C113.1 340.262 113.199 338.756 113.354 337.253C113.499 335.863 113.732 334.483 113.883 333.093C114.159 330.592 114.409 328.084 114.649 325.579C114.723 324.786 114.973 324.048 115.245 323.314C114.384 322.517 113.569 321.66 112.649 320.933C111.015 319.646 109.668 318.037 107.953 316.837C106.002 315.472 103.787 314.798 101.487 314.693C99.5994 314.608 97.7226 315.07 95.934 315.864C91.3514 317.892 86.7759 319.924 82.2921 322.164C80.1331 323.244 77.8577 324.094 75.6422 325.064C74.1464 325.72 72.6471 326.362 71.1866 327.089C69.8707 327.745 68.6678 328.603 67.74 329.753C66.216 331.637 65.588 333.827 65.9726 336.223C66.3289 338.449 67.6342 340.114 69.4051 341.451C70.5657 342.326 71.8746 342.703 73.2892 342.936C74.4181 343.119 75.5082 342.947 76.6159 342.925C78.6444 342.89 80.6728 342.89 82.7013 342.876C83.3187 342.873 83.9431 342.943 84.5393 342.703C84.6416 342.661 84.7651 342.622 84.8674 342.64C86.7124 342.922 88.5469 342.46 90.3954 342.551C92.1946 342.64 94.0008 342.506 95.8035 342.541C97.2181 342.569 98.5799 342.156 100.002 342.22C101.631 342.294 103.268 342.23 104.905 342.202C106.419 342.178 107.936 342.283 109.445 341.948C110.144 341.793 110.906 341.92 111.636 341.892C112.084 341.878 112.529 341.818 112.977 341.775V341.768Z" fill="#F6BB92"/>
<path d="M384.605 193.954C384.655 192.148 383.879 190.684 382.686 189.407C382.072 188.747 381.473 188.077 380.739 187.537C378.908 186.197 376.865 185.533 374.6 185.463C371.313 185.364 368.399 186.359 365.774 188.303C364.437 189.294 363.442 190.596 362.546 191.957C361.364 193.75 360.489 195.69 359.847 197.757C358.852 200.96 358.422 204.224 358.274 207.564C358.027 213.149 358.221 218.719 358.542 224.29C358.665 226.438 358.563 228.569 358.337 230.7C358.291 231.144 358.232 231.606 358.288 232.044C358.443 233.271 359.696 233.836 360.676 233.084C361.657 232.333 362.624 231.553 363.414 230.583C364.55 229.183 365.735 227.821 366.836 226.396C369.457 223.009 372.043 219.598 374.636 216.186C374.904 215.833 375.264 215.53 375.345 215.057C374.71 214.112 374.308 213.057 374.304 211.928C374.297 210.087 374.198 208.249 374.586 206.404C375.19 203.522 376.495 201.024 378.389 198.837C379.49 197.567 380.746 196.427 381.952 195.252C382.69 194.536 383.554 194.039 384.612 193.954H384.605Z" fill="#7A4821"/>
<path d="M384.606 193.954C383.551 194.038 382.683 194.536 381.946 195.252C380.739 196.427 379.483 197.566 378.383 198.836C376.485 201.023 375.179 203.521 374.58 206.403C374.195 208.248 374.294 210.086 374.297 211.928C374.297 213.057 374.703 214.108 375.338 215.057C375.472 214.93 375.61 214.806 375.744 214.679C377.056 213.639 377.67 212.33 377.702 210.612C377.733 208.862 378.404 207.218 379.102 205.62C379.917 203.757 380.958 202.022 382.238 200.448C382.873 199.665 383.625 198.97 384.348 198.265C384.93 197.697 385.357 197.062 385.498 196.25C385.484 196.06 385.47 195.869 385.456 195.679C385.117 195.128 385.099 194.423 384.606 193.95V193.954Z" fill="#5C3717"/>
<path d="M365.457 282.367C365.552 283.214 366.233 283.574 366.822 284.011C366.97 283.831 367.147 283.708 367.387 283.687C371.941 283.225 375.906 281.38 379.515 278.624C382.845 276.084 385.417 272.945 387.269 269.198C388.049 267.621 388.483 265.939 388.839 264.228C389.047 263.236 389.276 262.245 389.167 261.225C388.998 259.666 388.885 258.1 388.063 256.689C387.558 255.817 386.941 255.013 386.638 254.018C386.521 253.634 386.084 253.32 385.735 253.044C385.258 252.671 384.553 253.03 384.472 253.651C384.426 254.001 384.5 254.318 384.652 254.632C385.766 256.936 385.967 259.405 385.742 261.885C385.593 263.494 385.195 265.092 384.641 266.63C383.276 270.447 380.884 273.58 377.832 276.13C375.462 278.109 372.809 279.757 369.651 280.325C368.717 280.494 367.803 280.791 366.864 280.956C366.025 281.104 365.549 281.531 365.45 282.378L365.457 282.367Z" fill="#DEA882"/>
</svg>
