<svg width="500" height="501" viewBox="0 0 500 501" fill="none" xmlns="http://www.w3.org/2000/svg">
<path d="M311.874 290.988C311.874 290.988 301.03 283.6 291.595 282.321C271.878 279.764 259.767 293.404 259.767 293.404C259.767 293.404 250.754 334.607 260.612 336.88C279.342 341.142 294.834 342.705 304.129 343.984C310.466 344.837 323 315 323 315L311.874 290.988Z" fill="#3D3C3C"/>
<path d="M237.637 200.087C235.531 204.86 257.012 211.318 262.628 215.25L271.333 215.109C314.716 237.433 337.741 242.908 337.741 242.908C363.013 257.369 413.135 277.727 423.946 280.394C434.756 283.062 442.478 261.862 432.51 256.667C422.682 251.472 413.275 247.962 403.167 243.61C392.918 239.258 354.308 229.43 345.042 226.481C343.778 226.06 276.106 204.158 276.106 204.158C276.106 204.158 273.579 202.895 269.929 199.665C264.874 195.032 255.748 191.663 249.992 191.803C245.078 191.803 239.603 195.313 237.637 200.087Z" fill="#ECAD83"/>
<path d="M257.152 210.475C257.152 210.475 250.974 207.105 248.868 210.194C247.043 212.862 246.762 213.845 262.487 215.108C262.487 215.249 263.189 213.143 257.152 210.475Z" fill="#ECAD83"/>
<path d="M431.372 312.759C444.025 301.133 436.715 283.625 438.402 262.055C438.261 259.534 431.654 249.729 426.592 247.488C420.969 244.967 414.361 243.706 408.878 246.928C403.958 249.029 395.523 254.772 374.294 279.423C371.763 282.224 368.389 287.407 362.625 292.169C348.145 303.935 326.494 296.791 311.732 291.469C311.732 291.469 316.653 306.316 315.669 317.801C314.685 328.866 304 343.713 304 343.713C372.466 346.515 401.005 328.306 413.377 315.98C413.377 315.98 427.155 316.681 431.372 312.759Z" fill="#FF8AA0"/>
<path d="M438.223 253.746C438.223 253.746 439.665 241.219 445 230.828L427.842 222.002C426.833 233.817 414 244.778 414 244.778C431.302 250.045 434.907 258.443 438.512 262.002L438.223 253.746Z" fill="#ECAD83"/>
<path d="M452.277 204.789C455.509 196.355 450.17 190.311 446.657 187.078C435.698 176.958 427.267 178.082 416.87 181.175C403.24 185.251 408.58 222.781 411.671 228.544C419.399 243.444 443.144 243.163 452.137 240.773C462.113 238.103 458.6 235.432 457.055 231.637C457.055 231.496 457.336 230.793 457.336 230.793C456.914 229.388 456.352 227.56 456.774 225.592C456.774 225.592 456.071 224.468 455.79 223.906C455.65 223.484 455.649 223.203 456.071 222.922C457.336 221.938 458.6 221.094 458.881 220.392C460.146 217.862 450.872 208.725 452.277 204.789Z" fill="#F6BB92"/>
<path d="M452 228.978C452 228.978 453.067 229.228 457.334 228.104C457.734 227.729 458.535 226.979 457.468 226.105C456.534 225.48 454.934 227.854 452 228.978Z" fill="#D6876B"/>
<path d="M452 229.049C452 229.049 453.345 231.144 457.258 230.994C457.747 230.695 457.991 230.097 457.991 229.797C458.114 228.152 456.891 228.002 456.891 228.002C452.978 229.349 452 229.049 452 229.049Z" fill="#CC785E"/>
<path d="M415.611 179.231C399.049 184.18 384.018 215.007 414.915 236.784C417.002 238.198 421.038 239.47 425.074 233.956C427.858 230.138 429.389 225.613 429.389 225.613C429.806 224.34 430.224 222.784 430.641 221.229C431.059 219.532 427.719 211.613 429.25 210.765C444.698 203.27 449.151 192.523 447.76 188.14C442.749 178.383 433.286 173.999 415.611 179.231Z" fill="#602F0F"/>
<path d="M425.304 221.468C429.741 228.257 432.833 227.55 437 225.853L431.354 214.962L427.859 211.002C423.691 212.841 420.734 214.821 425.304 221.468Z" fill="#F6BB92"/>
<path d="M397.131 212.578C392.166 210.362 391.598 201.915 395.854 193.606C400.11 185.298 407.487 180.313 412.452 182.528C417.418 184.744 416.85 191.391 412.736 199.699C408.338 208.008 401.954 214.793 397.131 212.578Z" fill="#4C230C"/>
<path d="M431.529 212.299C430.968 211.035 430.547 209.772 430.266 208.789C429.845 207.385 429.845 206.402 429.845 206.402L425.492 209.632C425.633 210.334 425.913 211.035 426.054 211.737C426.054 211.737 426.475 211.457 427.317 210.895C427.317 210.895 427.177 210.895 427.177 211.035C428.16 211.878 429.423 213.282 430.968 215.528C431.108 215.528 433.354 216.23 431.529 212.299Z" fill="#602F0F"/>
<path d="M394.041 212.861C388.847 210.615 388.425 201.208 393.059 192.082C397.692 182.816 405.554 177.341 410.608 179.587C415.803 181.833 415.101 189.274 410.608 198.4C405.975 207.667 399.236 215.248 394.041 212.861Z" fill="#602F0F"/>
<path d="M392.214 196.981C391.595 196.708 392.369 194.254 393.916 191.526C395.464 188.799 397.167 186.754 397.786 187.026C398.405 187.299 397.631 189.208 396.084 191.936C394.69 194.799 392.988 197.254 392.214 196.981Z" fill="#4C230C"/>
<path d="M224.3 228.443C222.896 233.497 244.939 237.148 250.976 240.377L259.681 239.113C305.451 255.821 328.336 258.91 328.336 258.91C355.292 270.141 408.222 283.479 419.174 284.743C430.265 286.006 435.179 264.104 424.789 260.173C414.4 256.242 404.712 253.996 394.042 250.907C383.372 247.818 343.218 243.466 333.53 241.641C332.267 241.36 263.05 227.601 263.05 227.601C263.05 227.601 260.383 226.758 256.311 223.81C250.695 219.879 241.289 217.632 235.532 218.475C230.759 219.317 225.845 223.389 224.3 228.443Z" fill="#F6BB92"/>
<path d="M245.08 236.306C245.08 236.306 238.481 233.779 236.797 237.149C235.393 239.957 235.112 241.08 250.977 240.378C250.977 240.237 251.398 238.131 245.08 236.306Z" fill="#F6BB92"/>
<path d="M23.1093 252.73C25.6365 247.535 49.083 254.977 53.4354 254.134C55.5413 253.713 58.2089 251.186 62.9825 252.028C69.3004 253.151 71.6872 258.908 74.0739 259.189C85.727 260.733 116.474 268.455 130.514 270.42C133.743 270.842 137.113 271.403 140.482 272.105C154.241 274.773 142.167 301.168 137.253 299.764C117.878 293.867 71.266 273.79 64.5268 270.842C64.5268 270.842 42.7651 265.506 37.7107 263.822C34.622 262.839 20.5821 257.925 23.1093 252.73Z" fill="#F6BB92"/>
<path d="M180.215 284.298C164.488 280.106 154.659 276.194 137.949 272.002C139.072 276.753 136.966 295.616 135 299.528C139.915 300.506 175.441 314.339 175.441 314.339C182.04 316.994 271.768 342.703 287.355 339.769C293.112 338.931 298.307 337.673 302.379 336.416C310.524 333.901 303.924 288.629 292.55 287.372C267.836 290.027 223.183 286.673 210.826 285.975C199.452 285.416 180.215 284.298 180.215 284.298Z" fill="#3D3C3C"/>
</svg>
