<svg width="500" height="500" viewBox="0 0 500 500" fill="none" xmlns="http://www.w3.org/2000/svg">
<path d="M98.8757 356.634C98.8757 356.575 98.8757 355.343 98.8757 355.284C99.0501 353.766 99.2097 352.245 99.4137 350.731C99.577 349.507 99.603 348.271 99.7996 347.043C100.059 345.418 100.1 343.763 100.293 342.127C100.49 340.435 100.753 338.755 100.987 337.07C101.28 337.048 101.584 336.959 101.863 337.014C102.987 337.241 104.107 337.174 105.231 337.059C107.472 336.829 109.713 336.566 111.954 336.35C116.206 335.938 120.421 335.234 124.647 334.64C128.172 334.143 131.685 333.579 135.21 333.108C138.676 332.644 142.156 332.254 145.628 331.842C146.805 331.701 147.992 331.616 149.168 331.464C153.698 330.874 158.243 330.421 162.811 330.251C165.656 330.143 168.506 330.11 171.352 330.013C175.221 329.887 179.05 330.288 182.872 330.859C185.395 331.238 187.918 331.59 190.474 331.701C191.446 331.742 192.374 331.59 193.242 331.175C194.685 330.484 196.114 329.761 197.546 329.045C197.702 328.967 198.355 328.629 198.507 328.577C199.701 328.143 201.067 327.427 201.672 327.208C202.228 327.004 205.53 325.639 206.087 325.439C220.638 320.159 230.289 316.337 244.725 310.761C247.27 309.778 249.812 308.835 252.543 308.427C255.9 307.926 259.266 307.607 262.646 307.893C265.362 308.123 268.066 308.531 270.73 309.128C273.91 309.844 277.075 310.635 280.243 311.41C284.506 312.453 288.766 313.506 293.021 314.56C294.175 314.846 295.311 315.195 296.324 315.848C296.353 316.556 296.405 317.265 296.413 317.974C296.45 323.784 296.309 329.598 296.55 335.4C296.832 342.097 296.75 348.791 296.772 355.484C296.772 356.252 296.698 357.02 296.657 357.788C296.327 357.914 296.008 358.089 295.667 358.167C290.602 359.335 285.631 360.89 280.488 361.728C278.566 362.04 100.571 356.753 99.9703 356.716" fill="#6A6D66"/>
<path d="M364.106 344.402C364.343 345.86 364.577 347.318 364.818 348.776C364.944 349.537 365.048 350.298 365.211 351.051C365.95 354.472 367.849 357.106 370.784 358.965C372.109 359.803 373.589 360.2 375.188 359.937C375.418 359.9 375.667 359.844 375.889 359.885C378.008 360.256 380.149 360.085 382.279 360.111C387.024 360.167 391.78 359.989 396.515 360.223C401.138 360.453 405.757 360.467 410.38 360.475C421.652 360.493 432.927 360.46 444.199 360.423C445.379 360.419 446.555 360.2 447.738 360.178C449.812 360.137 451.901 360.033 453.964 360.2C456.743 360.423 459.541 360.282 462.301 360.579C464.256 360.786 466.2 360.79 468.152 360.831C468.508 360.838 468.864 360.831 469.217 360.805C469.547 360.779 469.766 360.579 469.814 360.252C469.944 359.373 470.126 358.497 470.155 357.614C470.204 356.186 470.53 354.802 470.712 353.392C470.742 353.158 470.838 352.928 470.849 352.698C470.935 350.721 470.905 350.784 469.347 350.142C466.772 349.084 464.163 348.112 461.566 347.103C461.013 346.888 460.446 346.706 459.923 346.435C456.097 344.458 451.979 343.382 447.82 342.417C447.649 342.376 447.467 342.335 447.293 342.343C445.39 342.439 443.52 342.031 441.627 341.946C439.268 341.842 436.915 341.56 434.559 341.352C434.441 341.341 434.322 341.311 434.207 341.315C431.947 341.397 429.721 340.966 427.473 340.87C425.173 340.77 422.88 340.48 420.583 340.273C420.464 340.261 420.346 340.25 420.227 340.243C417.863 340.102 415.481 340.083 413.14 339.783C410.729 339.471 408.28 339.679 405.89 339.197C405.831 339.185 405.772 339.182 405.712 339.182C403.1 339.263 400.514 338.818 397.906 338.759C394.886 338.688 391.881 338.299 388.853 338.395C388.679 338.403 388.497 338.38 388.322 338.34C387.948 338.25 387.666 338.028 387.636 337.627C387.592 337.037 387.599 336.444 387.584 335.85C387.503 335.446 387.365 335.049 387.347 334.64C387.235 332.166 387.154 329.691 386.983 327.213C386.723 323.447 386.631 319.666 386.471 315.893C386.467 315.774 386.471 315.655 386.46 315.54C386.145 312.127 386.185 308.698 386.133 305.274C385.896 305.059 385.829 304.777 385.825 304.472C385.825 303.819 385.825 303.166 385.818 302.517C385.807 301.452 385.941 300.35 385.725 299.326C385.499 298.262 385.488 297.215 385.466 296.154C385.443 295.089 385.599 293.984 385.373 292.963C385.109 291.78 385.135 290.615 385.109 289.439C385.091 288.607 385.228 287.743 385.035 286.96C384.757 285.843 384.772 284.734 384.75 283.613C384.742 283.257 384.798 282.871 384.679 282.556C384.312 281.577 384.419 280.567 384.397 279.566C384.39 279.209 384.479 278.816 384.356 278.505C383.777 277.035 384.319 275.414 383.7 273.963C383.418 271.199 382.872 268.505 381.911 265.882C381.177 263.886 380.038 262.217 378.501 260.784C378.286 260.584 378.015 260.439 377.823 260.22C377.73 260.113 377.696 259.875 377.748 259.738C377.797 259.601 377.971 259.452 378.116 259.419C378.654 259.3 379.169 259.337 379.607 259.749C380.861 260.929 382.048 262.153 382.846 263.715C384.486 266.932 384.998 270.431 385.458 273.945C385.518 274.412 385.395 274.928 385.547 275.355C385.874 276.282 385.8 277.224 385.822 278.167C385.833 278.642 385.751 279.15 385.896 279.58C386.23 280.567 386.156 281.569 386.178 282.571C386.185 282.986 386.111 283.435 386.241 283.806C386.627 284.905 386.501 286.033 386.534 287.149C386.549 287.624 386.471 288.133 386.619 288.559C386.924 289.431 386.853 290.31 386.887 291.197C386.965 293.319 386.645 295.464 387.221 297.56C387.265 297.727 387.235 297.913 387.235 298.091C387.235 299.809 387.224 301.53 387.247 303.248C387.254 303.857 387.176 304.428 386.875 304.958C387.462 304.907 388.059 304.91 388.634 304.795C392.352 304.064 395.988 303.07 399.338 301.233C399.809 300.974 400.284 300.751 400.837 300.777C401.208 300.18 401.104 299.516 401.115 298.87C401.134 297.75 401.004 296.618 401.416 295.527C401.516 295.264 401.472 294.941 401.475 294.644C401.494 293.345 401.39 292.047 401.787 290.763C401.939 290.273 401.824 289.702 401.846 289.168C401.865 288.693 401.805 288.192 401.946 287.758C402.232 286.886 402.195 285.999 402.195 285.116C402.195 284.222 402.318 283.391 402.655 282.526C403.646 280 404.477 277.41 405.393 274.857C406.228 272.531 407.096 270.212 407.95 267.893C408.031 267.671 408.12 267.452 408.228 267.237C409.771 264.101 411.237 260.929 413.022 257.913C413.675 256.811 414.543 256.328 415.715 256.169C418.468 255.794 421.225 255.449 423.97 255.026C424.957 254.874 425.944 254.596 426.883 254.247C428.297 253.724 429.243 252.733 429.625 251.216C430.052 249.516 430.107 247.825 429.766 246.11C429.71 245.821 429.677 245.528 429.64 245.235C429.551 244.515 429.829 244.029 430.441 243.599C432.137 242.404 433.78 241.139 435.446 239.903C435.635 239.762 435.851 239.651 436.021 239.488C436.671 238.883 436.763 238.356 436.237 237.636C435.187 236.204 434.096 234.802 433.005 233.403C431.691 231.722 430.385 230.038 429.02 228.398C428.49 227.763 428.241 227.095 428.237 226.29C428.234 225.4 428.159 224.509 428.196 223.623C428.252 222.305 427.929 221.033 427.792 219.738C427.729 219.159 427.584 218.543 426.842 218.402C425.466 218.937 424.056 219.4 422.72 220.024C420.03 221.285 417.21 222.183 414.402 223.114C413.671 223.355 412.944 223.615 412.228 223.897C411.76 224.083 411.523 224.446 411.404 224.962C411.007 226.684 410.58 228.398 410.116 230.104C409.53 232.264 408.899 234.408 408.276 236.56C408.128 237.069 407.968 237.581 407.76 238.067C407.534 238.59 407.111 238.875 406.529 238.964C404.952 239.198 403.382 239.476 401.805 239.703C399.817 239.992 397.821 240.245 395.828 240.523C395.079 240.627 394.519 240.968 394.214 241.725C393.658 243.094 393.038 244.437 392.456 245.799C391.736 247.483 391.038 249.179 390.307 250.86C389.87 251.865 389.48 251.984 388.386 251.538C388.308 251.991 388.334 252.451 387.784 252.715C384.475 254.299 381.381 256.276 378.168 258.039C377.908 258.18 377.644 258.317 377.385 258.454C376.832 258.751 376.246 258.803 375.671 258.566C374.676 258.158 373.604 258.083 372.587 257.812C371.114 257.419 369.745 257.749 368.417 258.176C366.896 258.662 365.56 259.527 364.358 260.643C361.045 263.715 359.42 267.637 358.425 271.915C358.099 273.31 358.155 274.735 357.988 276.137C357.613 279.324 357.769 282.515 357.769 285.706C358.284 285.936 358.333 286.404 358.403 286.886C358.934 290.451 359.694 293.976 359.913 297.59C360.065 300.068 360.314 302.539 360.581 305.007C360.778 306.832 360.781 308.676 361.011 310.49C361.483 314.193 361.612 317.918 361.876 321.632C362.028 323.755 362.343 325.866 362.421 327.995C362.466 329.235 362.633 330.47 362.792 331.702C363.045 333.635 363.334 335.564 363.405 337.52C363.427 338.109 363.531 338.696 363.594 339.282C363.768 340.985 363.939 342.692 364.113 344.395L364.106 344.402Z" fill="#F5BA92"/>
<path d="M296.32 315.84C296.349 316.549 296.401 317.257 296.409 317.966C296.446 323.776 296.305 329.59 296.546 335.393C296.828 342.09 296.746 348.783 296.769 355.477C296.769 356.245 296.695 357.013 296.654 357.781C297.685 358.367 298.776 358.467 299.919 358.193C300.264 358.111 300.616 358.04 300.969 358.029C303.751 357.925 306.49 357.436 309.239 357.031C310.348 356.868 311.469 356.749 312.585 356.634C315.591 356.326 318.552 355.77 321.523 355.284C324.091 354.864 326.662 354.49 329.23 354.074C333.663 353.354 338.123 352.738 342.464 351.547C345.087 350.828 347.662 349.926 350.233 349.028C351.046 348.746 351.921 348.446 352.433 347.633C352.463 347.207 352.326 346.817 352.151 346.438C351.71 345.47 351.291 344.491 350.827 343.533C349.131 340.016 347.428 336.502 345.718 332.993C343.232 327.887 340.739 322.782 338.249 317.677C336.279 313.633 334.331 309.581 332.339 305.548C331.871 304.602 331.537 303.567 330.788 302.776C330.098 302.698 329.497 302.962 328.966 303.344C326.005 305.47 322.629 306.743 319.282 308.082C313.305 310.475 307.187 312.471 301.084 314.501C299.518 315.02 297.908 315.399 296.316 315.84H296.32Z" fill="#F5BA92"/>
<path d="M388.379 251.55C389.474 251.995 389.863 251.873 390.301 250.871C391.032 249.19 391.726 247.495 392.449 245.81C393.032 244.452 393.652 243.109 394.208 241.736C394.516 240.979 395.076 240.638 395.822 240.534C397.814 240.256 399.811 240.004 401.799 239.714C403.376 239.484 404.946 239.21 406.522 238.976C407.105 238.89 407.528 238.601 407.754 238.078C407.966 237.592 408.125 237.084 408.27 236.572C408.893 234.423 409.524 232.275 410.11 230.116C410.574 228.413 411.001 226.695 411.398 224.973C411.516 224.458 411.754 224.094 412.221 223.909C412.937 223.627 413.665 223.367 414.396 223.126C417.204 222.194 420.024 221.297 422.714 220.035C424.05 219.408 425.459 218.948 426.836 218.414C426.806 216.796 426.454 215.267 425.779 213.783C425.07 212.225 424.291 210.73 423.341 209.29C420.981 205.721 417.764 203.224 413.976 201.384C411.353 200.111 408.578 199.206 405.702 198.861C403.246 198.568 400.738 198.62 398.289 199.243C396.572 199.681 394.794 199.9 393.162 200.656C392.898 200.779 392.594 200.823 392.305 200.879C390.145 201.313 388.105 202.07 386.123 203.012C385.923 203.109 385.663 203.076 385.433 203.102C385.445 203.576 385.445 204.04 385.048 204.408C384.183 205.213 383.5 206.177 382.714 207.046C381.838 208.01 381.007 208.986 380.339 210.103C378.696 212.845 377.219 215.631 377.249 218.97C377.256 219.92 376.926 220.818 376.162 221.493C375.857 221.764 375.531 222.039 375.494 222.495C375.82 222.744 375.987 223.029 375.705 223.415C375.776 223.894 375.846 224.372 375.913 224.851C376.629 226.053 376.744 227.389 376.777 228.743C376.955 229.582 377.134 230.42 377.312 231.262C377.842 231.707 378.002 232.294 377.972 232.958C379.089 236.779 380.911 240.282 382.903 243.699C383.523 244.764 384.387 245.68 384.903 246.816C385.318 246.856 385.541 247.068 385.5 247.506C386.457 248.849 387.418 250.196 388.376 251.539L388.379 251.55Z" fill="#804414"/>
<path d="M98.8796 355.462C98.8796 355.402 98.8759 355.343 98.8796 355.283C99.054 353.766 99.2135 352.245 99.4176 350.731C99.5808 349.507 99.6068 348.271 99.8035 347.043C100.063 345.418 100.104 343.763 100.297 342.127C100.494 340.435 100.757 338.754 100.991 337.07C100.045 335.771 98.8537 334.692 97.6478 333.664C97.0208 333.126 96.3715 332.61 95.7964 332.017C94.4162 330.599 92.8282 329.505 91.0102 328.74C90.6874 328.607 90.3387 328.533 89.9936 328.458C89.0698 328.258 88.1533 328.035 87.2183 327.891C86.1015 327.716 84.9959 327.735 83.8828 328.058C81.883 328.64 80.0019 329.512 78.0949 330.317C74.1101 332.002 70.2218 333.898 66.3371 335.801C64.0553 336.918 61.6474 337.79 59.347 338.869C57.2619 339.849 55.0654 340.584 53.1472 341.934C51.8412 342.854 50.8765 344.004 50.1753 345.377C48.7654 348.141 48.9287 350.98 50.5871 353.491C52.2419 356 54.6424 357.621 57.8407 357.617C60.3302 357.617 62.8272 357.673 65.3131 357.562C66.8269 357.495 68.3481 357.45 69.8619 357.306C71.3311 357.165 72.8263 357.257 74.3067 357.25C75.8502 357.242 77.4085 357.376 78.9297 357.194C82.9478 356.723 86.9846 357.094 90.9954 356.82C92.8839 356.69 96.98 356.656 98.8722 356.634" fill="#F5BA92"/>
<path d="M330.788 302.777C331.537 303.571 331.871 304.603 332.339 305.549C334.327 309.582 336.279 313.633 338.249 317.678C340.735 322.783 343.232 327.888 345.718 332.993C347.428 336.503 349.131 340.017 350.827 343.534C351.287 344.491 351.71 345.471 352.151 346.439C352.326 346.821 352.463 347.207 352.433 347.634C352.789 347.705 353.131 347.645 353.472 347.53C356.971 346.332 360.536 345.356 364.109 344.402C363.935 342.699 363.764 340.993 363.59 339.29C363.531 338.703 363.423 338.117 363.401 337.527C363.33 335.572 363.045 333.646 362.789 331.71C362.625 330.478 362.462 329.242 362.418 328.003C362.34 325.873 362.024 323.766 361.872 321.64C361.605 317.926 361.479 314.201 361.008 310.498C360.778 308.684 360.778 306.84 360.577 305.015C360.31 302.547 360.062 300.072 359.909 297.598C359.69 293.988 358.93 290.459 358.399 286.894C358.329 286.411 358.281 285.944 357.765 285.714C356.322 287.127 354.663 288.252 352.971 289.335C350.333 291.023 347.718 292.741 345.091 294.444C343.302 295.602 341.436 296.615 339.514 297.527C337.436 298.518 335.348 299.486 333.266 300.477C332.788 300.703 332.32 300.959 331.864 301.23C331.277 301.575 330.88 302.072 330.795 302.774L330.788 302.777Z" fill="#8A8AD9"/>
<path d="M384.472 200.946C384.561 199.039 383.711 197.529 382.502 196.145C380.688 194.071 378.539 192.538 375.764 192.167C370.444 191.451 365.932 193.013 362.467 197.213C360.597 199.48 359.343 202.074 358.452 204.875C357.365 208.3 356.924 211.798 356.775 215.368C356.556 220.588 356.686 225.797 356.964 231.01C357.124 234.03 357.257 237.05 356.775 240.059C356.719 240.401 356.734 240.775 356.816 241.113C357.094 242.293 358.352 242.794 359.309 242.055C360.292 241.298 361.272 240.527 362.07 239.555C363.194 238.178 364.37 236.842 365.461 235.436C368.581 231.407 371.668 227.352 374.77 223.307C374.87 223.103 374.974 222.899 375.074 222.695C374.633 222.643 374.269 222.462 374.135 222.013C373.931 221.341 373.679 220.688 373.701 219.953C373.746 218.48 373.712 217.004 373.716 215.527C373.716 215.056 373.79 214.6 373.887 214.132C374.402 211.609 375.456 209.342 376.97 207.268C378.543 205.112 380.369 203.217 382.517 201.632C383.103 201.198 383.737 200.924 384.479 200.942L384.472 200.946Z" fill="#804414"/>
<path d="M400.838 300.796C400.281 300.766 399.806 300.992 399.339 301.252C395.989 303.089 392.353 304.083 388.635 304.814C388.06 304.925 387.462 304.925 386.876 304.977C386.628 305.081 386.375 305.185 386.127 305.289C386.179 308.713 386.138 312.138 386.453 315.555C386.464 315.674 386.461 315.792 386.464 315.907C386.628 319.681 386.72 323.461 386.976 327.227C387.147 329.702 387.229 332.177 387.34 334.655C387.359 335.06 387.496 335.46 387.577 335.865C391.047 333.602 393.929 330.719 396.237 327.305C397.781 325.02 398.512 322.374 398.949 319.658C399.432 316.679 399.903 313.7 400.378 310.72C400.441 310.312 400.511 309.901 400.523 309.489C400.597 307.122 400.652 304.754 400.723 302.387C400.738 301.857 400.793 301.33 400.83 300.799L400.838 300.796Z" fill="#8A8AD9"/>
<path d="M384.471 200.945C383.729 200.927 383.095 201.201 382.509 201.635C380.364 203.223 378.535 205.116 376.962 207.271C375.448 209.345 374.398 211.612 373.879 214.135C373.782 214.603 373.708 215.059 373.708 215.53C373.708 217.007 373.738 218.48 373.693 219.957C373.671 220.695 373.923 221.344 374.127 222.016C374.264 222.465 374.624 222.646 375.066 222.698C375.207 222.635 375.344 222.572 375.485 222.509C375.522 222.049 375.849 221.775 376.153 221.507C376.917 220.836 377.247 219.934 377.24 218.984C377.21 215.645 378.687 212.859 380.331 210.117C381.002 209 381.833 208.024 382.705 207.06C383.492 206.192 384.174 205.223 385.039 204.422C385.436 204.054 385.436 203.591 385.425 203.116C385.15 202.374 385.061 201.55 384.464 200.949L384.471 200.945Z" fill="#62350E"/>
<path d="M386.126 305.285C386.375 305.182 386.627 305.078 386.876 304.974C387.18 304.443 387.254 303.872 387.247 303.263C387.228 301.545 387.239 299.824 387.235 298.106C387.235 297.928 387.265 297.739 387.221 297.576C386.642 295.479 386.965 293.335 386.887 291.212C386.853 290.329 386.924 289.446 386.62 288.575C386.471 288.148 386.549 287.636 386.534 287.165C386.501 286.044 386.627 284.92 386.241 283.822C386.111 283.447 386.185 282.998 386.178 282.586C386.156 281.584 386.23 280.583 385.896 279.596C385.751 279.165 385.833 278.657 385.822 278.182C385.8 277.24 385.874 276.297 385.547 275.37C385.395 274.943 385.521 274.427 385.458 273.96C384.998 270.446 384.486 266.948 382.846 263.731C382.049 262.169 380.861 260.944 379.607 259.764C379.169 259.353 378.654 259.319 378.116 259.434C377.971 259.468 377.797 259.616 377.748 259.753C377.696 259.891 377.73 260.128 377.823 260.236C378.016 260.455 378.286 260.599 378.502 260.8C380.038 262.232 381.177 263.901 381.911 265.898C382.876 268.521 383.418 271.218 383.7 273.978C384.319 275.433 383.778 277.054 384.356 278.52C384.479 278.831 384.386 279.225 384.397 279.581C384.419 280.583 384.312 281.592 384.679 282.571C384.798 282.887 384.742 283.276 384.75 283.629C384.772 284.749 384.757 285.859 385.035 286.975C385.232 287.758 385.091 288.626 385.109 289.454C385.139 290.634 385.109 291.799 385.373 292.979C385.599 293.999 385.443 295.101 385.466 296.169C385.488 297.23 385.499 298.277 385.725 299.342C385.941 300.366 385.807 301.464 385.818 302.532C385.826 303.185 385.822 303.838 385.826 304.488C385.826 304.792 385.896 305.074 386.134 305.289L386.126 305.285Z" fill="#DAA580"/>
<path d="M278.562 362.033C278.562 362.033 121.026 360.019 99.9665 356.635L278.562 362.033Z" fill="#696D65"/>
</svg>
