<svg width="497" height="497" viewBox="0 0 497 497" fill="none" xmlns="http://www.w3.org/2000/svg">
<path d="M302.786 277.394C285.538 267.41 265.27 269.65 249.024 280.493C239.67 283.749 229.6 285.223 220.153 288.394C208.115 292.509 195.591 295.05 182.816 293.597C164.444 292.809 145.851 291.865 127.515 293.568C127.028 293.962 126.363 294.112 126.635 295.085C128.352 303.573 130.048 312.67 128.624 321.272C149.572 323.176 171.279 323.577 192.47 325.387C207.793 326.031 223.023 328.536 238.374 328.157C257.426 328.379 276.52 325.76 295.45 329.374C304.367 313.636 304.611 294.921 302.786 277.394Z" fill="#3D3C3C"/>
<path d="M302.786 277.395C304.611 294.922 304.367 313.644 295.457 329.389C310.243 330.534 325.652 330.57 339.729 325.367C354.1 321.202 368.328 315.483 378.612 304.175C375.778 286.019 369.838 267.683 370.382 249.268C369.294 238.562 383.178 231.713 389.641 241.024C395.395 251.444 394.429 264.269 396.762 275.62C400.892 263.396 400.856 249.032 395.732 237.188C394.493 236.994 393.799 236.028 393.005 235.219C387.129 229.888 378.348 230.567 371.033 231.312L371.055 231.305C357.349 235.871 353.95 251.945 346.178 262.623C341.612 268.864 337.904 276.765 329.617 278.533C320.792 280.429 311.403 279.513 302.786 277.395Z" fill="#EF8FA0"/>
<path d="M396.769 275.618C394.428 264.274 395.402 251.449 389.648 241.022C383.199 231.746 369.294 238.538 370.389 249.266C369.53 259.121 372.07 269.026 373.838 278.745C375.434 286.875 376.45 295.113 378.562 303.143C385.024 341.36 386.742 333.517 422.347 332.565C429.003 332.293 435.544 330.546 442.25 330.883C444.039 331.076 444.991 332.901 446.931 332.622C450.753 333.13 483.731 329.337 477.648 323.196C460.851 319.697 443.159 319.267 426.162 316.075C418.218 314.801 409.2 315.803 401.993 312.089C398.214 300.452 396.776 287.813 396.769 275.618Z" fill="#ECBC97"/>
<path d="M391.638 215.444C393.455 213.977 394.915 212.152 396.454 210.391C395.051 206.805 393.305 203.249 393.341 199.305C393.355 196.399 394.872 195.14 397.728 195.576C399.968 196.113 400.326 198.453 401.707 200.207C403.088 198.389 401.163 195.562 403.031 194.574C412.514 192.971 421.181 187.632 424.072 178.092C421.453 161.524 404.083 161.038 391.158 160.88C381.289 151.898 365.429 169.046 363.339 178.758C360.906 189.586 369.108 188.169 368.356 191.476C368.142 200.443 372.772 208.709 378.047 215.637C380.659 219.394 383.464 220.081 387.544 218.464M372.436 189.414C368.285 189.307 376.587 186.795 377.081 185.571C382.033 182.73 385.597 177.777 389.032 173.312C390.235 171.408 391.587 169.518 391.96 167.185C392.031 166.863 392.181 166.441 392.575 166.498C394.557 174.671 380.487 188.183 372.436 189.414Z" fill="#5A3217"/>
<path d="M128.631 321.278C130.056 312.669 128.36 303.579 126.642 295.091C126.37 294.111 127.036 293.961 127.522 293.574C111.698 295.356 94.4433 296.888 78.0542 297.918C72.3931 298.627 66.682 298.77 61.0138 299.285C58.4874 298.283 56.0183 296.802 53.0983 296.895C42.5205 299.615 32.8517 317.585 23.6337 324.857C18.7527 330.904 23.3689 337.124 30.5114 332.25C41.1751 327.791 49.9994 319.582 61.2857 316.684C71.4699 314.222 81.74 318.165 91.9742 318.587C104.112 320.126 116.365 321.35 128.631 321.278Z" fill="#ECBC97"/>
<path d="M386.227 219.467C389.755 224.119 395.373 225.958 400.734 227.661C401.378 227.926 402.222 228.041 402.351 228.978C407.06 229.221 422.14 234.718 422.791 226.845C422.777 225.285 421.954 223.596 422.648 222.158C420.801 222.587 415.82 221.005 417.431 218.765C419.377 218.314 421.009 217.019 423.013 216.769C423.127 208.867 430.792 219.796 424.502 200.895C422.805 193.43 431.63 190.968 424.079 178.086C421.188 187.633 412.521 192.965 403.038 194.568C401.163 195.556 403.095 198.383 401.714 200.201C400.333 198.447 399.975 196.107 397.735 195.57C394.872 195.133 393.362 196.393 393.348 199.299C393.312 203.242 395.058 206.799 396.461 210.385C394.922 212.152 393.462 213.97 391.645 215.437" fill="#ECBC97"/>
<path d="M398.208 294.154C398.716 300.238 399.99 306.378 402.001 312.104C412.908 312.354 423.801 313.75 434.679 314.716C436.404 314.902 438.007 315.525 439.51 316.362C444.09 318.695 449.537 317.829 454.511 317.815C460.1 317.357 467.193 317.987 471.1 313.349C473.913 309.971 451.297 306.793 448.456 304.847C431.652 301.647 414.647 299.064 398.208 294.154Z" fill="#CE9E7B"/>
<path d="M402.352 228.976C402.223 228.039 401.378 227.924 400.734 227.659C395.374 225.956 390.385 223.924 386.857 219.279C387.165 218.57 386.521 219.501 387.344 218.527C385.64 218.821 384.223 219.286 382.563 219.007C382.255 218.957 381.969 218.864 381.668 218.735C381.446 218.642 381.31 218.642 381.139 218.534C378.319 223.072 374.018 226.822 371.04 231.317C378.348 230.572 387.136 229.892 393.012 235.224C393.806 236.026 394.493 236.999 395.739 237.192C397.857 234.408 400.562 231.946 402.352 228.976Z" fill="#E1AF88"/>
<path d="M423.012 216.768C421.008 217.018 419.377 218.313 417.43 218.764C415.827 221.012 420.794 222.586 422.647 222.157C423.914 221.298 423.964 221.276 423.57 220.067C423.098 218.822 424.873 217.405 423.012 216.768Z" fill="#BF7C63"/>
<path d="M370.647 231.632C370.848 231.603 370.991 231.496 371.062 231.303C370.927 231.41 370.791 231.525 370.647 231.632Z" fill="#ECAE82"/>
<path d="M372.436 189.414C380.466 188.19 394.565 174.678 392.568 166.505C392.175 166.448 392.024 166.87 391.953 167.192C391.581 169.518 390.228 171.408 389.026 173.319C385.598 177.784 382.033 182.737 377.081 185.578C376.551 186.823 368.314 189.285 372.436 189.414Z" fill="#4F2307"/>
</svg>
