<svg width="500" height="500" viewBox="0 0 500 500" fill="none" xmlns="http://www.w3.org/2000/svg">
<path d="M110.802 337.686C110.802 337.63 110.802 336.458 110.802 336.402C110.968 334.959 111.119 333.513 111.313 332.073C111.469 330.909 111.493 329.734 111.68 328.567C111.927 327.022 111.966 325.448 112.149 323.892C112.336 322.284 112.587 320.686 112.809 319.084C113.088 319.063 113.377 318.978 113.642 319.031C114.711 319.246 115.776 319.183 116.845 319.074C118.976 318.855 121.106 318.604 123.237 318.4C127.28 318.008 131.288 317.338 135.306 316.773C138.657 316.301 141.998 315.764 145.349 315.316C148.644 314.875 151.953 314.505 155.255 314.113C156.374 313.979 157.503 313.898 158.621 313.754C162.928 313.193 167.25 312.762 171.593 312.6C174.298 312.498 177.008 312.466 179.714 312.374C183.393 312.254 187.034 312.635 190.667 313.179C193.066 313.538 195.465 313.874 197.896 313.979C198.82 314.018 199.702 313.874 200.527 313.478C201.9 312.822 203.258 312.134 204.62 311.453C204.768 311.379 205.389 311.058 205.533 311.009C206.669 310.596 207.968 309.915 208.543 309.707C209.072 309.513 212.212 308.215 212.741 308.024C226.577 303.004 235.752 299.371 249.479 294.069C251.899 293.134 254.316 292.238 256.912 291.85C260.105 291.373 263.304 291.07 266.518 291.342C269.101 291.56 271.672 291.948 274.205 292.516C277.229 293.197 280.238 293.949 283.251 294.686C287.304 295.677 291.354 296.679 295.4 297.681C296.497 297.953 297.577 298.284 298.54 298.905C298.568 299.579 298.618 300.253 298.625 300.927C298.66 306.451 298.526 311.979 298.755 317.497C299.023 323.864 298.946 330.228 298.967 336.592C298.967 337.323 298.896 338.053 298.857 338.783C298.543 338.903 298.24 339.069 297.916 339.143C293.1 340.254 288.373 341.732 283.483 342.53C281.656 342.826 112.414 337.799 111.842 337.764" fill="#6A6D66"/>
<path d="M362.989 326.056C363.215 327.442 363.437 328.828 363.666 330.215C363.786 330.938 363.885 331.661 364.04 332.377C364.742 335.63 366.549 338.135 369.339 339.902C370.599 340.699 372.006 341.077 373.527 340.826C373.745 340.791 373.982 340.738 374.193 340.777C376.208 341.13 378.243 340.967 380.268 340.992C384.78 341.045 389.303 340.876 393.804 341.098C398.2 341.317 402.592 341.331 406.988 341.338C417.705 341.356 428.426 341.324 439.143 341.289C440.265 341.285 441.384 341.077 442.509 341.056C444.481 341.017 446.467 340.918 448.428 341.077C451.071 341.289 453.731 341.154 456.355 341.437C458.215 341.634 460.063 341.638 461.919 341.677C462.257 341.684 462.596 341.677 462.931 341.652C463.245 341.627 463.453 341.437 463.499 341.126C463.623 340.29 463.796 339.458 463.824 338.618C463.87 337.26 464.18 335.944 464.353 334.603C464.381 334.381 464.473 334.162 464.483 333.944C464.565 332.063 464.536 332.123 463.055 331.513C460.606 330.508 458.126 329.583 455.657 328.624C455.131 328.419 454.592 328.246 454.094 327.989C450.457 326.108 446.541 325.085 442.586 324.168C442.424 324.129 442.251 324.091 442.086 324.098C440.276 324.189 438.498 323.801 436.699 323.72C434.455 323.621 432.218 323.353 429.978 323.156C429.865 323.145 429.752 323.117 429.643 323.12C427.495 323.198 425.378 322.789 423.24 322.697C421.053 322.602 418.873 322.327 416.689 322.129C416.576 322.119 416.463 322.108 416.35 322.101C414.103 321.967 411.838 321.949 409.612 321.663C407.319 321.367 404.991 321.565 402.719 321.106C402.663 321.095 402.606 321.092 402.55 321.092C400.066 321.17 397.607 320.746 395.127 320.69C392.256 320.623 389.398 320.252 386.519 320.344C386.354 320.351 386.181 320.33 386.015 320.291C385.659 320.206 385.39 319.995 385.362 319.614C385.32 319.053 385.327 318.488 385.313 317.924C385.235 317.539 385.105 317.162 385.087 316.774C384.981 314.421 384.904 312.068 384.741 309.711C384.494 306.131 384.406 302.536 384.255 298.948C384.251 298.835 384.255 298.722 384.244 298.613C383.944 295.367 383.983 292.108 383.934 288.852C383.708 288.647 383.644 288.379 383.641 288.09C383.641 287.469 383.641 286.848 383.634 286.23C383.623 285.218 383.75 284.17 383.545 283.196C383.33 282.184 383.32 281.189 383.299 280.18C383.277 279.168 383.426 278.116 383.21 277.146C382.96 276.021 382.985 274.913 382.96 273.795C382.942 273.005 383.073 272.183 382.889 271.438C382.625 270.376 382.639 269.322 382.618 268.256C382.611 267.918 382.664 267.551 382.551 267.251C382.201 266.32 382.304 265.36 382.283 264.407C382.275 264.069 382.36 263.695 382.244 263.399C381.693 262.002 382.208 260.46 381.619 259.081C381.351 256.452 380.833 253.891 379.919 251.397C379.22 249.499 378.137 247.912 376.677 246.55C376.472 246.359 376.215 246.222 376.031 246.014C375.943 245.911 375.911 245.686 375.961 245.555C376.007 245.424 376.172 245.283 376.31 245.252C376.822 245.139 377.312 245.174 377.728 245.566C378.921 246.687 380.049 247.852 380.808 249.337C382.367 252.395 382.854 255.722 383.291 259.063C383.348 259.507 383.231 259.998 383.376 260.403C383.687 261.285 383.616 262.181 383.637 263.078C383.648 263.529 383.57 264.012 383.708 264.422C384.025 265.36 383.955 266.312 383.976 267.265C383.983 267.66 383.912 268.087 384.036 268.44C384.403 269.484 384.283 270.556 384.315 271.618C384.329 272.07 384.255 272.553 384.396 272.959C384.685 273.788 384.618 274.624 384.65 275.467C384.724 277.485 384.42 279.524 384.967 281.517C385.009 281.676 384.981 281.852 384.981 282.022C384.981 283.655 384.971 285.292 384.992 286.925C384.999 287.504 384.925 288.047 384.639 288.552C385.196 288.502 385.764 288.506 386.311 288.396C389.846 287.701 393.303 286.756 396.489 285.01C396.937 284.763 397.388 284.551 397.914 284.576C398.267 284.008 398.168 283.376 398.179 282.763C398.196 281.697 398.073 280.621 398.464 279.584C398.56 279.334 398.517 279.027 398.521 278.744C398.539 277.51 398.44 276.275 398.817 275.054C398.962 274.589 398.853 274.045 398.874 273.537C398.891 273.086 398.835 272.61 398.969 272.197C399.241 271.368 399.205 270.525 399.205 269.685C399.205 268.835 399.322 268.045 399.643 267.223C400.585 264.82 401.375 262.358 402.246 259.931C403.04 257.719 403.866 255.514 404.677 253.309C404.755 253.097 404.839 252.889 404.941 252.685C406.409 249.704 407.803 246.687 409.499 243.819C410.12 242.772 410.946 242.313 412.061 242.161C414.678 241.805 417.299 241.477 419.91 241.075C420.848 240.93 421.787 240.665 422.679 240.334C424.023 239.836 424.923 238.895 425.286 237.452C425.692 235.836 425.745 234.227 425.42 232.597C425.367 232.322 425.336 232.044 425.3 231.765C425.216 231.08 425.48 230.618 426.062 230.209C427.675 229.073 429.237 227.87 430.821 226.695C431.001 226.561 431.206 226.456 431.368 226.3C431.985 225.725 432.074 225.224 431.573 224.54C430.574 223.178 429.537 221.845 428.5 220.515C427.251 218.917 426.009 217.315 424.711 215.756C424.207 215.153 423.97 214.518 423.967 213.752C423.963 212.905 423.893 212.059 423.928 211.216C423.981 209.963 423.674 208.753 423.543 207.522C423.484 206.972 423.346 206.386 422.64 206.252C421.332 206.76 419.991 207.201 418.721 207.794C416.163 208.993 413.482 209.847 410.812 210.732C410.117 210.962 409.425 211.208 408.744 211.477C408.3 211.653 408.074 211.999 407.961 212.489C407.584 214.126 407.178 215.756 406.737 217.379C406.18 219.432 405.58 221.471 404.987 223.517C404.846 224 404.695 224.487 404.497 224.949C404.282 225.447 403.88 225.718 403.326 225.803C401.826 226.025 400.334 226.29 398.835 226.505C396.944 226.78 395.046 227.02 393.152 227.285C392.439 227.383 391.906 227.708 391.617 228.428C391.088 229.729 390.499 231.006 389.945 232.301C389.26 233.903 388.597 235.515 387.902 237.113C387.486 238.069 387.116 238.182 386.075 237.759C386.001 238.189 386.025 238.626 385.503 238.877C382.357 240.383 379.414 242.264 376.359 243.939C376.112 244.073 375.862 244.204 375.615 244.334C375.089 244.617 374.532 244.666 373.985 244.44C373.04 244.052 372.02 243.982 371.054 243.724C369.653 243.35 368.351 243.664 367.088 244.07C365.642 244.532 364.372 245.354 363.229 246.416C360.079 249.337 358.533 253.066 357.588 257.133C357.278 258.46 357.33 259.814 357.172 261.148C356.815 264.178 356.964 267.212 356.964 270.246C357.454 270.465 357.5 270.909 357.567 271.368C358.071 274.758 358.795 278.109 359.003 281.545C359.147 283.902 359.384 286.252 359.638 288.598C359.825 290.333 359.828 292.086 360.047 293.812C360.495 297.332 360.618 300.874 360.869 304.406C361.014 306.423 361.313 308.431 361.387 310.456C361.43 311.634 361.589 312.809 361.74 313.98C361.98 315.818 362.255 317.652 362.322 319.511C362.343 320.072 362.442 320.63 362.502 321.187C362.668 322.806 362.83 324.429 362.996 326.048L362.989 326.056Z" fill="#F5BA92"/>
<path d="M298.536 298.898C298.565 299.572 298.614 300.246 298.621 300.92C298.656 306.444 298.522 311.972 298.752 317.49C299.02 323.857 298.942 330.221 298.963 336.586C298.963 337.316 298.893 338.046 298.854 338.776C299.835 339.334 300.872 339.429 301.958 339.168C302.286 339.09 302.622 339.023 302.957 339.013C305.603 338.914 308.206 338.448 310.82 338.064C311.875 337.908 312.94 337.796 314.002 337.686C316.86 337.393 319.675 336.864 322.501 336.402C324.942 336.003 327.387 335.647 329.828 335.252C334.044 334.568 338.284 333.982 342.412 332.85C344.906 332.165 347.354 331.308 349.799 330.454C350.571 330.186 351.404 329.9 351.891 329.128C351.919 328.722 351.788 328.352 351.623 327.992C351.203 327.071 350.804 326.14 350.363 325.23C348.751 321.885 347.132 318.544 345.505 315.207C343.142 310.353 340.771 305.499 338.404 300.644C336.531 296.799 334.679 292.947 332.784 289.112C332.34 288.213 332.022 287.228 331.31 286.477C330.653 286.403 330.082 286.653 329.577 287.017C326.762 289.038 323.552 290.248 320.37 291.522C314.687 293.797 308.869 295.695 303.066 297.625C301.577 298.119 300.046 298.478 298.533 298.898H298.536Z" fill="#F5BA92"/>
<path d="M386.068 237.769C387.109 238.192 387.479 238.076 387.896 237.123C388.591 235.525 389.25 233.913 389.938 232.311C390.492 231.02 391.081 229.743 391.61 228.438C391.903 227.718 392.436 227.393 393.145 227.295C395.039 227.03 396.937 226.79 398.828 226.515C400.328 226.296 401.82 226.035 403.319 225.813C403.873 225.732 404.275 225.457 404.49 224.959C404.691 224.497 404.843 224.014 404.981 223.527C405.573 221.484 406.173 219.442 406.731 217.389C407.172 215.769 407.577 214.136 407.955 212.499C408.068 212.009 408.293 211.663 408.738 211.487C409.419 211.219 410.11 210.972 410.805 210.742C413.476 209.857 416.157 209.003 418.714 207.804C419.984 207.207 421.325 206.77 422.634 206.262C422.606 204.724 422.27 203.27 421.628 201.859C420.955 200.378 420.214 198.956 419.311 197.587C417.067 194.194 414.008 191.819 410.406 190.07C407.912 188.859 405.274 187.999 402.54 187.671C400.204 187.392 397.819 187.441 395.491 188.034C393.858 188.45 392.168 188.658 390.616 189.378C390.365 189.494 390.076 189.537 389.801 189.59C387.748 190.002 385.807 190.722 383.923 191.618C383.733 191.71 383.486 191.678 383.267 191.703C383.278 192.154 383.278 192.595 382.9 192.945C382.078 193.71 381.429 194.627 380.681 195.453C379.849 196.37 379.059 197.298 378.424 198.36C376.861 200.967 375.457 203.616 375.485 206.791C375.492 207.694 375.178 208.548 374.451 209.19C374.162 209.448 373.852 209.709 373.816 210.143C374.127 210.379 374.285 210.651 374.017 211.017C374.084 211.473 374.151 211.928 374.215 212.383C374.896 213.526 375.005 214.796 375.037 216.083C375.206 216.881 375.376 217.678 375.545 218.479C376.049 218.902 376.201 219.459 376.173 220.091C377.235 223.725 378.967 227.055 380.861 230.304C381.45 231.316 382.272 232.188 382.763 233.267C383.158 233.306 383.37 233.507 383.331 233.923C384.241 235.2 385.155 236.481 386.065 237.758L386.068 237.769Z" fill="#804414"/>
<path d="M110.805 336.571C110.805 336.515 110.802 336.458 110.805 336.402C110.971 334.959 111.123 333.512 111.317 332.073C111.472 330.909 111.497 329.734 111.684 328.567C111.931 327.021 111.969 325.448 112.153 323.892C112.34 322.284 112.59 320.685 112.812 319.084C111.913 317.849 110.781 316.823 109.634 315.845C109.038 315.334 108.42 314.843 107.874 314.279C106.561 312.931 105.051 311.891 103.323 311.164C103.016 311.037 102.684 310.966 102.356 310.896C101.478 310.705 100.606 310.494 99.7174 310.356C98.6555 310.19 97.6042 310.208 96.5459 310.515C94.6444 311.069 92.8558 311.898 91.0426 312.663C87.2537 314.265 83.5566 316.068 79.863 317.877C77.6934 318.939 75.4039 319.768 73.2166 320.795C71.234 321.726 69.1456 322.425 67.3217 323.709C66.08 324.584 65.1627 325.677 64.496 326.983C63.1554 329.611 63.3106 332.31 64.8876 334.698C66.4609 337.083 68.7434 338.624 71.7844 338.621C74.1515 338.621 76.5257 338.674 78.8894 338.568C80.3287 338.504 81.7751 338.462 83.2144 338.324C84.6114 338.19 86.0331 338.279 87.4407 338.271C88.9083 338.264 90.3899 338.391 91.8363 338.219C95.6569 337.771 99.4951 338.123 103.309 337.862C105.104 337.739 108.999 337.707 110.798 337.686" fill="#F5BA92"/>
<path d="M331.309 286.477C332.022 287.232 332.339 288.213 332.784 289.112C334.675 292.947 336.53 296.799 338.404 300.645C340.767 305.499 343.141 310.353 345.505 315.207C347.131 318.545 348.751 321.886 350.363 325.23C350.8 326.14 351.202 327.071 351.622 327.992C351.788 328.356 351.918 328.722 351.89 329.128C352.229 329.195 352.553 329.139 352.878 329.029C356.205 327.89 359.595 326.962 362.992 326.055C362.826 324.436 362.664 322.813 362.498 321.194C362.442 320.637 362.34 320.079 362.318 319.518C362.251 317.659 361.98 315.828 361.736 313.987C361.581 312.816 361.426 311.641 361.384 310.463C361.309 308.438 361.01 306.434 360.865 304.412C360.611 300.881 360.491 297.339 360.043 293.819C359.824 292.093 359.824 290.34 359.634 288.604C359.38 286.258 359.143 283.905 358.999 281.552C358.791 278.12 358.067 274.765 357.563 271.375C357.496 270.916 357.45 270.472 356.96 270.253C355.587 271.597 354.01 272.666 352.402 273.696C349.894 275.301 347.406 276.935 344.909 278.554C343.208 279.654 341.434 280.618 339.607 281.485C337.631 282.427 335.645 283.348 333.666 284.29C333.211 284.505 332.766 284.749 332.332 285.006C331.775 285.334 331.397 285.807 331.316 286.474L331.309 286.477Z" fill="#8A8AD9"/>
<path d="M382.353 189.653C382.438 187.84 381.63 186.404 380.48 185.088C378.755 183.116 376.712 181.659 374.074 181.307C369.015 180.626 364.725 182.111 361.43 186.104C359.652 188.26 358.46 190.726 357.613 193.389C356.579 196.645 356.159 199.972 356.018 203.366C355.81 208.329 355.934 213.283 356.198 218.239C356.35 221.111 356.477 223.982 356.018 226.843C355.965 227.168 355.98 227.524 356.057 227.845C356.322 228.967 357.518 229.443 358.428 228.741C359.363 228.022 360.294 227.288 361.053 226.364C362.121 225.055 363.24 223.785 364.277 222.448C367.244 218.617 370.179 214.761 373.128 210.915C373.223 210.721 373.322 210.527 373.417 210.333C372.998 210.284 372.652 210.111 372.525 209.684C372.331 209.046 372.091 208.425 372.112 207.726C372.154 206.326 372.123 204.922 372.126 203.518C372.126 203.07 372.197 202.636 372.289 202.191C372.779 199.792 373.781 197.637 375.22 195.665C376.716 193.615 378.452 191.812 380.494 190.306C381.052 189.893 381.655 189.632 382.36 189.65L382.353 189.653Z" fill="#804414"/>
<path d="M397.914 284.593C397.385 284.565 396.933 284.78 396.489 285.027C393.303 286.774 389.846 287.719 386.311 288.414C385.764 288.52 385.196 288.52 384.639 288.569C384.403 288.668 384.163 288.767 383.926 288.865C383.976 292.122 383.937 295.378 384.237 298.627C384.247 298.74 384.244 298.853 384.247 298.962C384.403 302.55 384.491 306.145 384.734 309.725C384.897 312.078 384.974 314.431 385.08 316.788C385.098 317.172 385.228 317.553 385.306 317.938C388.604 315.786 391.345 313.045 393.54 309.799C395.007 307.626 395.702 305.111 396.118 302.529C396.577 299.696 397.025 296.863 397.477 294.03C397.537 293.642 397.604 293.251 397.614 292.859C397.685 290.608 397.738 288.357 397.805 286.107C397.819 285.602 397.872 285.101 397.907 284.597L397.914 284.593Z" fill="#8A8AD9"/>
<path d="M382.352 189.653C381.647 189.636 381.043 189.897 380.486 190.309C378.447 191.819 376.708 193.618 375.212 195.668C373.773 197.64 372.774 199.796 372.28 202.194C372.189 202.639 372.118 203.073 372.118 203.521C372.118 204.925 372.146 206.326 372.104 207.73C372.083 208.432 372.323 209.049 372.517 209.687C372.647 210.114 372.99 210.287 373.409 210.337C373.543 210.277 373.674 210.217 373.808 210.157C373.843 209.719 374.154 209.458 374.443 209.204C375.17 208.566 375.484 207.708 375.477 206.805C375.448 203.63 376.852 200.981 378.415 198.374C379.054 197.312 379.844 196.384 380.673 195.467C381.421 194.641 382.07 193.721 382.892 192.959C383.269 192.609 383.269 192.169 383.259 191.717C382.998 191.011 382.913 190.228 382.345 189.657L382.352 189.653Z" fill="#62350E"/>
<path d="M383.926 288.862C384.163 288.763 384.403 288.664 384.639 288.565C384.928 288.061 384.999 287.518 384.992 286.939C384.974 285.306 384.985 283.669 384.981 282.036C384.981 281.866 385.009 281.686 384.967 281.531C384.417 279.538 384.724 277.499 384.65 275.481C384.618 274.641 384.685 273.802 384.396 272.973C384.254 272.567 384.328 272.08 384.314 271.632C384.283 270.567 384.403 269.498 384.036 268.454C383.912 268.097 383.983 267.67 383.976 267.279C383.955 266.326 384.025 265.374 383.708 264.435C383.57 264.026 383.648 263.543 383.637 263.091C383.616 262.195 383.686 261.299 383.376 260.417C383.231 260.012 383.351 259.521 383.291 259.077C382.854 255.736 382.367 252.409 380.808 249.351C380.049 247.865 378.92 246.701 377.728 245.579C377.312 245.188 376.821 245.156 376.31 245.265C376.172 245.297 376.006 245.438 375.961 245.569C375.911 245.699 375.943 245.925 376.031 246.027C376.215 246.236 376.472 246.373 376.677 246.564C378.137 247.925 379.22 249.513 379.919 251.411C380.836 253.905 381.351 256.47 381.619 259.094C382.208 260.477 381.693 262.019 382.244 263.412C382.36 263.709 382.272 264.083 382.282 264.421C382.304 265.374 382.201 266.333 382.55 267.265C382.663 267.565 382.61 267.935 382.618 268.27C382.639 269.336 382.625 270.39 382.889 271.452C383.076 272.197 382.942 273.022 382.96 273.809C382.988 274.931 382.96 276.038 383.21 277.16C383.425 278.13 383.277 279.178 383.298 280.194C383.32 281.203 383.33 282.198 383.545 283.21C383.75 284.184 383.623 285.228 383.634 286.244C383.641 286.865 383.637 287.486 383.641 288.103C383.641 288.393 383.708 288.661 383.933 288.865L383.926 288.862Z" fill="#DAA580"/>
<path d="M281.652 342.819C281.652 342.819 131.863 340.904 111.839 337.687Z" fill="#696D65"/>
</svg>
