<?xml version="1.0" encoding="UTF-8"?>
<svg xmlns="http://www.w3.org/2000/svg" version="1.1" viewBox="0 0 1417.3 1417.3">
  <defs>
    <style>
      .cls-1 {
        fill: #ffb58a;
      }

      .cls-2 {
        fill: #5d3718;
      }

      .cls-3 {
        fill: #696d65;
      }

      .cls-4 {
        fill: #ffb68b;
      }

      .cls-5 {
        fill: #824414;
      }

      .cls-6 {
        fill: #8989de;
      }

      .cls-7 {
        fill: #ffb68a;
      }

      .cls-8 {
        fill: #e6a37c;
      }
    </style>
  </defs>
  <!-- Generator: Adobe Illustrator 28.7.1, SVG Export Plug-In . SVG Version: 1.2.0 Build 142)  -->
  <g>
    <g id="_레이어_1" data-name="레이어_1">
      <g>
        <path class="cls-3" d="M1028.8,679.3c1.5-.2,2.8.3,4.1,1,6.6,4,12.8,8.4,18,14,3.3,3.5,6.7,6.8,10.1,10.1,1,2.7,3.2,4.7,4.7,7.1,6.8,10.7,12.8,21.7,17.1,33.6,4,11,6.8,22.2,8.3,33.8.5,4,.6,7.9,1.1,11.9,0,4.8,0,9.6-.2,14.4-1.2,22.2-7.7,42.8-20.7,60.9-16.2,22.8-38.4,36.1-66,40.5-1.6.3-3.2.4-4.8.5-4.4.2-8.5-1-12.6-2.4-2.4-.9-4.8-1.8-7.3-2.4-13.2-3-26.5-5.9-39.7-8.7-16.7-3.5-33.3-7.4-50.1-10.5-11.9-2.2-23.8-4.7-35.7-6.8-14-2.5-27.9-5.5-41.7-8.4-12.5-2.7-25-5.3-37.4-8-13.1-2.8-26.2-5.5-39.3-8.3-7.3-1.6-14.7-3.1-22-4.8-1.7-.4-3.1-.3-4.5.8-6.1,4.9-13,8.7-20,12.2-14.8,7.3-29.6,14.4-45.4,19.3-1.1.3-2.2.6-3,1.5-2.7.3-5.2,1.5-7.7,2.5-17.6,7.1-35.9,11.6-54.5,14.9-12.9,2.3-25.9,4.1-38.9,5.7-8.4,1.1-16.9,1.6-25.3,2.2-8,.5-16,.7-23.9,1.1-8,.4-15.9,1-23.9,1.5-6.1.4-12.1.6-18.2,1.1-8.8.7-17.6.9-26.3,1.4-8.3.4-16.6,1.1-24.9,1.4-10.9.3-21.7,1.5-32.6,1.4-3,0-6.1-.2-9-.9.1-2.1,1.3-3.9,1.3-6.1,0-7.7.5-15.3.7-23,.4-17.1.6-34.2.1-51.3,0-1,.1-1.9.2-2.9,1.4-.8,2.7-1.7,4.3-2,13.8-2.3,27.3-6.5,40.9-9.8,3.6-.9,7.1-1.9,10.6-2.8,1.5-.3,3.1-.6,4.6-1,29.4-7.4,58.7-14.8,88.1-22.2,1.1-.3,2.1-.8,3.1-1.2,4.8-.4,9.3-1.8,13.9-3,2.4-.7,5-.8,7.2-2.3,3.7-.2,7.2-1.1,10.5-2.8,4.3-.6,8.6-1.3,12.6-3,1.3-.2,2.5-.2,3.8-.5,12.6-3,25.1-6,37.7-9.1,16.9-4.1,34-7.5,50.6-12.5,4.6-1.4,9-3,13.5-4.6,1.1-.2,2.2-.4,3.2-.8,4.2-1.5,8.5-2.7,12.9-3.5,3.4-.7,6.9-1.2,10.3-1.9,5.8-1.2,11.7-1.6,17.5-2.6,1.6-.3,3.1-.8,4.7-.9,5.3-.2,10.5-.4,15.8-.9,6.2-.6,12.4-.3,18.6-1,5.9-.6,11.8-.3,17.7-.9,6.2-.7,12.4-.3,18.6-1,6.3-.6,12.7-.3,19.1-1,6-.6,12.1-.3,18.1-1,6-.6,12.1-.3,18.1-.9,6.2-.6,12.4-.4,18.6-1,6.2-.6,12.4,0,18.6-1.1.6.6,1.4.7,2.2.9,12.5,3.2,25,6.3,37.5,9.5,17,4.3,34,8.7,50.9,13.1,1.8.5,2.6-.3,3.6-1.5,5-6.4,9.9-12.9,15-19.2,8-10.1,16.1-20.2,24.1-30.3,7.1-8.8,13.7-18,22.2-25.7.6-.5.9-1.3,1.4-1.9Z"/>
        <path class="cls-6" d="M554.5,779.4c-4,1.8-8.3,2.4-12.6,3-.5-.7-.7-1.4-.6-2.2.2-.9.6-2,.4-2.8-.9-3.1.5-6.3-.5-9.5-.3-1-.2-2.3,0-3.3,1.2-5.5.1-11.2,1.6-16.6.2-8.8,1.8-17.4,3.8-25.9,1-4,2-8,3.9-11.8,3.6-6.8,7.9-13.1,13.3-18.6,2.6-2.6,5.1-5.3,7.7-7.9,8.2-5.6,16.2-11.5,24.9-16.1,10.2-5.4,20.7-10,31.6-13.7,12.4-4.2,24.9-8,37.8-10.3,3.9-.7,7.8-1.3,11.9-1.4,10.7-.3,21.4-.5,32.1-1.2,6.4-.4,12.8-.3,19.1-1,7.5-.8,15-.7,22.5-1.3,7.3-.6,14.7-.6,22,.4.8.1,1.6.1,2.4.2,8.5.3,16.9.9,25.3,1.8.3,0,.6,0,1,0,7.8.4,15.7.5,23.4,1.3,7.8.8,15.6.4,23.4,1.5,1.4.2,2.9,0,4.3.2,6.2.4,12.4.7,18.6,1.2.9,0,1.8.5,2.7.8-.2.9-.4,1.9-.4,2.8-.2,12-.5,23.9-.8,35.8-.4,16.3-1.3,32.5-1.3,48.8,0,.3,0,.6,0,1-6.2,1-12.4.5-18.6,1.1-6.2.6-12.5.3-18.6,1-6.1.6-12.1.3-18.1.9-6.1.6-12.1.3-18.1,1-6.4.7-12.8.3-19.1,1-6.2.6-12.5.3-18.6,1-5.9.6-11.8.3-17.7.9-6.2.6-12.4.4-18.6,1-5.3.5-10.5.6-15.8.9-1.6,0-3.1.6-4.7.9-5.8,1-11.7,1.4-17.5,2.6-3.4.7-6.9,1.2-10.3,1.9-4.4.9-8.7,2.1-12.9,3.5-1,.4-2.2.5-3.2.8-.4-2.2-.6-4.5-1.2-6.6-2.4-8.8-7.3-15.8-15.5-20.3-8.6-4.7-17.8-5-27-3.4-9.2,1.5-17.6,5.5-25.6,10.5-8.3,5.1-15.2,11.7-21.4,19-6.9,8.1-12.1,17.2-14.9,27.6Z"/>
        <path class="cls-7" d="M641.8,880.7c.8-.9,1.9-1.2,3-1.5,15.7-5,30.6-12.1,45.4-19.3,7-3.5,13.9-7.2,20-12.2,1.4-1.1,2.8-1.2,4.5-.8,7.3,1.7,14.6,3.2,22,4.8,13.1,2.8,26.2,5.6,39.3,8.3,12.5,2.7,25,5.3,37.4,8,13.9,3,27.8,6,41.7,8.4,11.9,2.1,23.8,4.6,35.7,6.8,16.8,3.1,33.4,7,50.1,10.5,13.3,2.8,26.5,5.7,39.7,8.7,2.5.6,4.9,1.5,7.3,2.4,4.1,1.5,8.2,2.7,12.6,2.4.4.7.7,1.3,1.6,1.6,6.3,1.8,12.6,3.6,18.9,5.4,2,.6,4,.9,6,1.4,12.1,2.9,22.8,9.2,33.6,15,1,.5,2,1.1,3,1.6,4.5,2.3,8.1,5.6,11.5,9.3,2.4,2.7,3.1,5.7,1.8,9.3-1.6,4.2-3.5,8.2-6.2,11.9-2.3,3.1-4.7,6-7.3,8.9-6.5,7.1-13.6,13.5-21.7,18.8-4,2.6-8.3,4.7-12.9,6.3-1.6.5-3.1.7-4.7.3-5.6-1.4-11-3.1-16.3-5.5-8.5-3.8-16.4-8.5-24.1-13.7-1.9-1.3-3.8-2.4-5.7-3.6-5.6-3.5-10.2-8.1-15.2-12.4-4-3.5-7.8-7.1-12.7-9.3-1-.4-2.1-.9-3.1-1.1-20.9-4.2-41.9-8.4-62.8-12.7-14.8-3-29.6-6.2-44.5-9.2-16.6-3.4-33.1-6.6-49.7-10-11.5-2.4-23-5.2-34.5-7.8-5.7-1.3-11.4-3.1-17.2-4.1-16.2-2.8-31.8-8.3-47.6-12.5-13.6-3.6-27.1-7.4-40.6-11.1-2.5-.7-4.9-1.4-7.4-2.1-.4-.1-.6-.7-1-1Z"/>
        <path class="cls-5" d="M371.3,619.1c1-5.9,3.5-11.3,6.5-16.4,2.2-3.8,5.2-6.9,8.7-9.5,6.2-4.6,13.1-7.9,20.7-9.7,12.7-3,25.3-2.8,38.1-.5,6.5,1.2,12.6,3.3,18.7,5.7,1.6.6,3.2,1.4,5,1.6,1.2.2,2.5.6,3.6,1.1,8.9,3.9,18.2,7,27,11.2,14.8,7.1,28.6,15.7,40.7,26.7,5.7,5.2,10.9,10.8,15.4,17,1.5,2.1,3.2,4,4.6,6.1,3.5,5.2,5.4,10.8,4.8,17.2-.4,4.4-1.9,8.4-5.1,11.6-.7.7-1.2,1.5-1.9,2.2-7.7,7.2-17,11.2-27.2,13.1-11.3,2.1-22.6,1.8-33.8-.2-6.5-1.1-12.8-3-18.9-5.3-2.2-.8-4.3-1-6.5-.5-3.1.7-6.3,1.1-9.4,1.6-6.3,1-12.6,2.3-18.6,4.6-2.3.9-4.3,2.1-6.1,3.7-2.5,2.4-4.2,5.2-5.2,8.5-1.7,5.7-2.8,11.5-3.8,17.3-1.1,5.7-2.9,11.1-6.5,15.8-1.3,1.8-2.7,3.6-3.9,5.5-1.9,2.9-4.4,5-7.4,6.7-10.2,5.9-20.1,12.4-29.8,19.2-2.9,2-5.7,4.1-7.3,7.3-2.1.4-3.7-.7-5.4-1.6-7.9-4.1-14.6-9.8-20-16.8-13.8-17.8-20.2-37.9-18.4-60.4,1.1-13.1,5.8-25.1,12.6-36.3,5-8.3,11.2-15.5,18.3-22,3-2.7,5.8-5.5,7.6-9.1.5,0,1,0,1.4.1,2.2,1.1,4.3.8,6.4-.1,3.3-1.3,6.5-2.5,9.8-3.7,9.3-3.5,18.7-6,28.8-6,5.1,0,10.2.7,15.2,1.5,6.3,1,12.3,3.1,18.3,5.4,3.9,1.5,7.7,3.2,11.1,5.6,4,2.9,8.2,5.6,11.5,9.3.4.5,1,.9,1.5,1.2,3.5,2.3,6.2,5.5,9,8.5,3.2,3.5,6.1,7.3,9.2,11,1,1.1,1.8,2.3,2.1,3.7.7,2.7,2.8,4.2,4.8,5.7,1.5,1.1,3.3,1.5,5,.8,4.7-1.9,8-5,6.3-10.6-1.8-6-4.6-11.5-8.9-16.2-2.8-3-5.9-5.9-8.2-9.3-3.2-4.8-7.8-8-12.1-11.4-5.3-4-10.9-7.7-16.2-11.8-1.1-.9-2.4-1.8-3.9-1.7-3.1,0-5.9-1.3-8.8-2.1-2.9-.9-5.7-2.1-8.6-2.7-6.4-1.2-12.8-2.1-19.3-2.9-2.4-.3-4.9-.6-7.1,0-4,1.2-8.2.7-12.3,1.5-7.3,1.5-14.6,3-21.3,6.6-2.9,1.5-5.8,2.6-9.1,2.2-.6,0-1.3,0-1.9,0Z"/>
        <path class="cls-7" d="M373.8,780.7c1.6-3.3,4.5-5.3,7.3-7.3,9.7-6.8,19.6-13.3,29.8-19.2,3-1.7,5.5-3.9,7.4-6.7,1.2-1.9,2.6-3.7,3.9-5.5,3.5-4.7,5.4-10.1,6.5-15.8,1.1-5.8,2.1-11.6,3.8-17.3,1-3.3,2.6-6.1,5.2-8.5,1.8-1.7,3.8-2.8,6.1-3.7,6-2.3,12.2-3.6,18.6-4.6,3.2-.5,6.3-.9,9.4-1.6,2.3-.5,4.4-.3,6.5.5,6.1,2.4,12.4,4.2,18.9,5.3,11.3,2,22.6,2.3,33.8.2,10.2-1.9,19.5-5.9,27.2-13.1,3,1.5,6.1.7,9.1.5,1.4-.1,2.7-.5,4.2-.2-2.6,2.6-5.1,5.3-7.7,7.9-5.4,5.5-9.7,11.8-13.3,18.6-2,3.7-2.9,7.7-3.9,11.8-2,8.5-3.6,17.1-3.8,25.9-1.4,5.5-.4,11.1-1.6,16.6-.2,1.1-.3,2.3,0,3.3.9,3.1-.4,6.3.5,9.5.2.8-.2,1.9-.4,2.8-.1.8,0,1.6.6,2.2-3.3,1.7-6.8,2.6-10.5,2.8-3.8-.9-7.7-1.8-11.7-2-5.4-.3-7.8,1.7-9.4,7.3-1,.4-2,.9-3.1,1.2-29.4,7.4-58.7,14.8-88.1,22.2-1.5.4-3.1.7-4.6,1-.1-.8,0-1.6-.4-2.3-3.1-7-7-13.6-12.8-18.8-4.2-3.8-9-6.5-14.5-7.8-3.9-.9-7.7-2-11.3-3.7-.7-.4-1.4-.7-1.7-1.5Z"/>
        <path class="cls-7" d="M871.9,734.3c0-.3.1-.6,0-1,0-16.3.9-32.5,1.3-48.8.3-11.9.6-23.9.8-35.8,0-.9.3-1.9.4-2.8,3.9-.9,7.8-1.1,11.8-.3,2.9.6,6.1.2,9.1.4,5.7.3,11.4.8,17.1,1.6,5.5.8,11.1,1.4,16.6,2.2,4.1.6,8.2,1.4,12.3,2.1,5.3.9,10.6,1.9,16,2.8,6,1,11.8,2.5,17.7,4,9.9,2.5,19.6,5.7,29.2,9.1,7.4,2.6,14.5,5.8,21.6,9.1,1.1.5,2.5.9,2.8,2.4-.5.6-.8,1.4-1.4,1.9-8.4,7.7-15.1,16.9-22.2,25.7-8.1,10.1-16.1,20.2-24.1,30.3-5,6.4-10,12.8-15,19.2-.9,1.2-1.8,2-3.6,1.5-17-4.4-33.9-8.8-50.9-13.1-12.5-3.2-25-6.4-37.5-9.5-.8-.2-1.6-.3-2.2-.9Z"/>
        <path class="cls-4" d="M358.8,829.5c0,1-.2,1.9-.2,2.9.5,17.1.3,34.2-.1,51.3-.2,7.7-.6,15.3-.7,23,0,2.2-1.2,4-1.3,6.1-8.7,2.9-17.5,4.6-26.5,5.9-3.8.6-7.6.8-11.4,1.3-3.2.4-6.7-.1-9.8-1.5-3.5-1.6-6.8-3.5-10-5.6-1.5-1-2.7-2.3-3.6-3.8-1.7-2.9-3.4-5.8-5-8.7-1-1.7-1.4-3.5-1.6-5.5-.7-6.2-1.7-12.3-2.5-18.4-.8-6-1.5-12-2.2-18-.7-5.5-1.5-11-2.3-16.6-.5-3.8-1-7.6-1.5-11.4-.3-2.2-.7-4.4-.9-6.6-.7-6.8-1.1-13.7-2.1-20.4-1-6.5-1.1-13-2.4-19.4-.7-3.3.6-6.6,1-9.9.3-2.5,1.3-4.9,2.4-7.2,2.9-5.5,5.6-11.1,9-16.3,4.6-6.8,10.7-8.9,18.7-6.6,5.7,1.6,9.9,4.9,13.1,9.8,1.3,2,2.1,4.2,2.5,6.7.6,3.8.6,7.5.1,11.4-.6,4.7-.2,9.6-.3,14.4,0,2,.7,3.7,2.1,5.2,6.8,7.2,12.2,15.6,18.5,23.2,3.5,4.3,7.1,8.6,11.1,12.6,1.7,1.7,3.6,2.6,5.9,2.5Z"/>
        <path class="cls-8" d="M1092.2,790.9c-.5-3.9-.6-7.9-1.1-11.9-1.5-11.6-4.3-22.9-8.3-33.8-4.3-11.9-10.4-22.9-17.1-33.6-1.5-2.4-3.7-4.4-4.7-7.1.8,0,1.6-.1,2.4.1,6.2,1.7,12.3,3.5,18.4,5.1,9,2.3,17.7,5.3,26.5,8.2,5.6,1.9,11.2,3.8,16.9,5.4,4.7,1.3,8.8,3.7,12.2,7.2,3.2,3.2,4.9,7.1,5.2,11.5.2,3.6.3,7.3.2,11-.2,6.5-.7,13.1-1.1,19.6-.6,9.8-5,17.7-12.6,23.8-4.3,3.5-9.4,3.7-14.6,2.9-5.7-1-11.1-2.9-16.2-5.6-2-1-3.8-2.4-6.1-2.6Z"/>
        <path class="cls-2" d="M371.3,619.1c.6,0,1.3,0,1.9,0,3.3.4,6.3-.7,9.1-2.2,6.7-3.6,14-5.1,21.3-6.6,4.1-.9,8.2-.3,12.3-1.5,2.2-.7,4.8-.4,7.1,0,6.4.8,12.9,1.7,19.3,2.9,2.9.5,5.7,1.8,8.6,2.7,2.9.9,5.6,2.2,8.8,2.1,1.5,0,2.7.8,3.9,1.7,5.3,4.1,10.8,7.8,16.2,11.8,4.4,3.3,8.9,6.6,12.1,11.4,2.3,3.4,5.3,6.3,8.2,9.3,4.3,4.7,7.1,10.2,8.9,16.2,1.7,5.7-1.6,8.7-6.3,10.6-1.7.7-3.5.2-5-.8-2.1-1.5-4.1-3-4.8-5.7-.4-1.4-1.2-2.6-2.1-3.7-3.1-3.6-6-7.5-9.2-11-2.8-3-5.5-6.3-9-8.5-.5-.3-1.1-.7-1.5-1.2-3.3-3.7-7.5-6.4-11.5-9.3-3.3-2.4-7.2-4.1-11.1-5.6-5.9-2.3-12-4.4-18.3-5.4-5-.8-10-1.4-15.2-1.5-10.1,0-19.5,2.5-28.8,6-3.3,1.2-6.6,2.4-9.8,3.7-2.2.9-4.3,1.2-6.4.1-.4-.2-.9-.1-1.4-.1-.4-3-.6-5.9,0-8.9.4-2.3,1-4.6,2.7-6.4Z"/>
        <path class="cls-1" d="M554.5,779.4c2.8-10.4,8-19.5,14.9-27.6,6.2-7.3,13.2-13.9,21.4-19,8-4.9,16.3-8.9,25.6-10.5,9.2-1.5,18.4-1.3,27,3.4,8.2,4.5,13.1,11.5,15.5,20.3.6,2.1.8,4.4,1.2,6.6-4.5,1.5-9,3.2-13.5,4.6-16.6,5-33.7,8.4-50.6,12.5-12.5,3.1-25.1,6.1-37.7,9.1-1.2.3-2.5.4-3.8.5Z"/>
      </g>
    </g>
  </g>
</svg>