<svg width="500" height="500" viewBox="0 0 500 500" fill="none" xmlns="http://www.w3.org/2000/svg">
<path d="M103.28 244.183C102.593 244.091 101.997 244.32 101.401 244.641C98.376 246.474 95.5344 248.491 93.151 251.057C91.6386 252.662 90.0802 254.174 88.5219 255.687C88.0636 256.924 87.0553 257.841 86.3678 258.941C83.2511 263.845 80.5011 268.887 78.5303 274.341C76.697 279.382 75.4137 284.516 74.7262 289.832C74.497 291.666 74.4512 293.453 74.222 295.286C74.222 297.486 74.222 299.686 74.3137 301.886C74.8637 312.061 77.8428 321.503 83.8011 329.799C91.226 340.249 101.401 346.344 114.051 348.361C114.784 348.498 115.518 348.544 116.251 348.59C118.268 348.682 120.147 348.132 122.026 347.49C123.126 347.078 124.226 346.665 125.372 346.39C131.422 345.015 137.517 343.686 143.567 342.403C151.221 340.799 158.83 339.011 166.53 337.59C171.984 336.582 177.438 335.436 182.892 334.474C189.309 333.328 195.679 331.953 202.004 330.624C207.734 329.386 213.463 328.194 219.146 326.957C225.15 325.674 231.154 324.436 237.158 323.153C240.504 322.419 243.896 321.732 247.242 320.953C248.021 320.769 248.662 320.815 249.304 321.319C252.1 323.565 255.262 325.307 258.471 326.911C265.254 330.257 272.037 333.511 279.279 335.757C279.783 335.894 280.287 336.032 280.654 336.444C281.891 336.582 283.037 337.132 284.183 337.59C292.25 340.844 300.637 342.907 309.162 344.419C315.074 345.473 321.033 346.298 326.991 347.032C330.841 347.536 334.737 347.765 338.587 348.04C342.253 348.269 345.92 348.361 349.541 348.544C353.208 348.728 356.828 349.003 360.495 349.232C363.291 349.415 366.041 349.507 368.837 349.736C372.87 350.057 376.903 350.148 380.891 350.378C384.695 350.561 388.499 350.882 392.303 351.019C397.299 351.157 402.249 351.707 407.245 351.661C408.62 351.661 410.04 351.569 411.37 351.248C411.324 350.286 410.774 349.461 410.774 348.453C410.774 344.923 410.545 341.44 410.453 337.911C410.27 330.074 410.178 322.236 410.407 314.399C410.407 313.94 410.361 313.528 410.315 313.07C409.674 312.703 409.078 312.29 408.345 312.153C402.02 311.099 395.832 309.174 389.599 307.661C387.949 307.249 386.345 306.79 384.741 306.378C384.053 306.24 383.32 306.103 382.632 305.92C369.157 302.528 355.728 299.136 342.253 295.745C341.749 295.607 341.291 295.378 340.833 295.195C338.633 295.011 336.57 294.37 334.462 293.82C333.362 293.499 332.17 293.453 331.162 292.766C329.466 292.674 327.862 292.261 326.349 291.482C324.379 291.207 322.408 290.886 320.574 290.107C319.979 290.016 319.429 290.016 318.833 289.878C313.058 288.503 307.329 287.128 301.554 285.707C293.808 283.828 285.971 282.27 278.362 279.978C276.254 279.336 274.237 278.603 272.175 277.87C271.671 277.778 271.166 277.686 270.708 277.503C268.783 276.816 266.812 276.266 264.796 275.899C263.237 275.578 261.633 275.349 260.075 275.028C257.417 274.478 254.712 274.295 252.054 273.836C251.321 273.699 250.633 273.47 249.9 273.424C247.471 273.332 245.087 273.241 242.658 273.012C239.817 272.737 236.975 272.874 234.133 272.553C231.429 272.278 228.725 272.416 226.021 272.141C223.179 271.82 220.338 272.003 217.496 271.682C214.609 271.407 211.675 271.545 208.742 271.224C205.992 270.949 203.196 271.087 200.446 270.766C197.696 270.491 194.9 270.628 192.15 270.353C189.309 270.078 186.467 270.17 183.625 269.895C180.784 269.62 177.942 269.895 175.1 269.391C174.825 269.666 174.459 269.712 174.092 269.803C168.363 271.27 162.634 272.691 156.905 274.157C149.113 276.128 141.322 278.145 133.576 280.161C132.751 280.391 132.384 280.024 131.926 279.474C129.634 276.541 127.388 273.561 125.051 270.674C121.384 266.045 117.672 261.416 114.005 256.787C110.751 252.753 107.726 248.537 103.83 245.008C103.555 244.778 103.418 244.412 103.188 244.137L103.28 244.183Z" fill="#696D65"/>
<path d="M320.666 290.061C322.499 290.886 324.47 291.161 326.441 291.436C326.67 291.115 326.762 290.794 326.716 290.427C326.624 290.015 326.441 289.511 326.533 289.144C326.945 287.723 326.304 286.256 326.762 284.79C326.899 284.331 326.854 283.736 326.762 283.277C326.212 280.756 326.716 278.144 326.029 275.669C325.937 271.636 325.204 267.694 324.287 263.798C323.829 261.965 323.37 260.132 322.499 258.39C320.849 255.273 318.879 252.386 316.404 249.865C315.212 248.673 314.066 247.436 312.874 246.244C309.116 243.678 305.45 240.973 301.462 238.865C296.787 236.39 291.975 234.282 286.979 232.586C281.296 230.661 275.566 228.919 269.654 227.865C267.866 227.544 266.079 227.269 264.2 227.223C259.296 227.086 254.392 226.994 249.487 226.673C246.554 226.49 243.621 226.536 240.733 226.215C237.296 225.848 233.858 225.894 230.421 225.619C227.075 225.344 223.683 225.344 220.338 225.803C219.971 225.848 219.604 225.848 219.238 225.894C215.342 226.032 211.492 226.307 207.642 226.719C207.504 226.719 207.367 226.719 207.184 226.719C203.609 226.903 199.988 226.948 196.459 227.315C192.884 227.682 189.309 227.498 185.734 228.003C185.092 228.094 184.405 228.003 183.763 228.094C180.921 228.278 178.08 228.415 175.238 228.644C174.825 228.644 174.413 228.873 174 229.011C174.092 229.423 174.184 229.882 174.184 230.294C174.275 235.794 174.413 241.248 174.55 246.702C174.734 254.173 175.146 261.598 175.146 269.069C175.146 269.206 175.146 269.344 175.146 269.527C177.988 269.986 180.83 269.757 183.671 270.032C186.513 270.306 189.4 270.169 192.196 270.49C194.992 270.765 197.742 270.627 200.492 270.902C203.288 271.177 206.038 271.04 208.788 271.361C211.721 271.681 214.654 271.498 217.542 271.819C220.383 272.094 223.271 271.956 226.067 272.277C228.771 272.552 231.475 272.415 234.179 272.69C237.021 272.965 239.862 272.873 242.704 273.148C245.133 273.377 247.517 273.423 249.946 273.561C250.679 273.561 251.367 273.836 252.1 273.973C254.758 274.431 257.462 274.615 260.121 275.165C261.679 275.486 263.283 275.715 264.841 276.036C266.858 276.448 268.829 276.998 270.754 277.64C271.212 277.823 271.762 277.869 272.221 278.006C272.404 276.998 272.496 275.944 272.771 274.981C273.871 270.948 276.116 267.74 279.875 265.677C283.816 263.523 288.033 263.386 292.25 264.119C296.466 264.807 300.316 266.64 303.983 268.931C307.787 271.269 310.949 274.294 313.791 277.64C316.954 281.352 319.337 285.523 320.62 290.29L320.666 290.061Z" fill="#8989DE"/>
<path d="M280.654 336.489C280.287 336.076 279.783 335.939 279.279 335.801C272.083 333.509 265.254 330.255 258.471 326.955C255.263 325.351 252.1 323.655 249.304 321.364C248.663 320.859 248.021 320.814 247.242 320.997C243.896 321.776 240.55 322.464 237.159 323.197C231.154 324.48 225.15 325.764 219.146 327.001C213.417 328.239 207.688 329.43 202.005 330.668C195.634 332.043 189.263 333.418 182.892 334.518C177.438 335.48 171.984 336.626 166.53 337.634C158.83 339.055 151.222 340.843 143.568 342.447C137.472 343.73 131.422 345.059 125.372 346.434C124.226 346.709 123.126 347.122 122.026 347.534C120.147 348.222 118.268 348.772 116.251 348.634C116.068 348.955 115.93 349.23 115.518 349.368C112.63 350.193 109.743 351.018 106.855 351.843C105.939 352.118 105.022 352.255 104.105 352.484C98.5596 353.813 93.6555 356.701 88.7055 359.359C88.2472 359.588 87.7888 359.863 87.3305 360.093C85.268 361.147 83.618 362.659 82.0597 364.355C80.9597 365.592 80.6389 366.967 81.2347 368.617C81.968 370.542 82.8389 372.376 84.0764 374.072C85.1305 375.492 86.2305 376.822 87.4222 378.151C90.4013 381.405 93.6555 384.338 97.368 386.767C99.2013 387.959 101.172 388.921 103.28 389.655C104.014 389.884 104.701 389.976 105.435 389.792C108.001 389.151 110.476 388.371 112.905 387.271C116.801 385.53 120.422 383.376 123.951 380.992C124.822 380.397 125.693 379.892 126.564 379.342C129.13 377.738 131.239 375.63 133.53 373.659C135.363 372.055 137.105 370.405 139.351 369.397C139.809 369.213 140.313 368.984 140.772 368.892C150.351 366.967 159.976 365.042 169.555 363.072C176.338 361.697 183.121 360.23 189.951 358.855C197.559 357.297 205.121 355.83 212.73 354.272C218 353.172 223.271 351.888 228.542 350.697C231.154 350.101 233.767 349.276 236.425 348.818C243.85 347.534 251 345.013 258.242 343.088C264.475 341.438 270.663 339.697 276.85 338.001C277.996 337.68 279.096 337.359 280.242 337.039C280.425 336.993 280.517 336.718 280.7 336.58L280.654 336.489Z" fill="#FFB68A"/>
<path d="M404.632 216.591C404.174 213.887 403.028 211.412 401.653 209.074C400.645 207.333 399.27 205.912 397.666 204.72C394.824 202.612 391.661 201.099 388.178 200.274C382.357 198.899 376.582 198.991 370.716 200.045C367.737 200.595 364.941 201.558 362.145 202.658C361.412 202.933 360.678 203.299 359.853 203.391C359.303 203.483 358.708 203.666 358.203 203.895C354.124 205.683 349.862 207.103 345.828 209.028C339.045 212.283 332.72 216.224 327.174 221.266C324.562 223.649 322.179 226.216 320.116 229.057C319.429 230.02 318.65 230.891 318.008 231.853C316.404 234.237 315.533 236.803 315.808 239.736C315.991 241.753 316.679 243.586 318.145 245.053C318.466 245.374 318.695 245.741 319.016 246.061C322.545 249.361 326.808 251.195 331.483 252.066C336.662 253.028 341.841 252.891 346.974 251.974C349.953 251.47 352.841 250.599 355.637 249.545C356.645 249.178 357.608 249.086 358.616 249.316C360.037 249.636 361.503 249.82 362.924 250.049C365.812 250.507 368.699 251.103 371.449 252.157C372.503 252.57 373.42 253.12 374.245 253.853C375.391 254.953 376.17 256.236 376.628 257.749C377.407 260.361 377.912 263.02 378.37 265.678C378.874 268.29 379.699 270.765 381.349 272.92C381.945 273.745 382.587 274.57 383.137 275.44C384.007 276.77 385.153 277.732 386.528 278.511C391.203 281.215 395.741 284.195 400.186 287.311C401.516 288.228 402.799 289.19 403.532 290.657C404.495 290.84 405.228 290.336 406.007 289.924C409.628 288.044 412.699 285.432 415.174 282.224C421.499 274.065 424.432 264.853 423.607 254.541C423.103 248.536 420.949 243.036 417.832 237.903C415.54 234.099 412.699 230.799 409.445 227.82C408.07 226.582 406.786 225.299 405.961 223.649C405.732 223.649 405.503 223.649 405.32 223.695C404.311 224.199 403.349 224.062 402.386 223.649C400.874 223.053 399.407 222.503 397.895 221.953C393.632 220.349 389.324 219.203 384.695 219.203C382.357 219.203 380.02 219.524 377.728 219.891C374.841 220.349 372.091 221.312 369.341 222.366C367.553 223.053 365.812 223.832 364.253 224.932C362.42 226.262 360.495 227.499 358.983 229.195C358.799 229.424 358.524 229.607 358.295 229.745C356.691 230.799 355.453 232.266 354.17 233.641C352.703 235.245 351.374 236.987 349.953 238.682C349.495 239.187 349.128 239.737 348.991 240.378C348.67 241.616 347.708 242.303 346.791 242.991C346.103 243.495 345.278 243.678 344.499 243.357C342.345 242.486 340.833 241.066 341.612 238.499C342.437 235.749 343.72 233.228 345.691 231.074C346.974 229.699 348.395 228.37 349.449 226.812C350.916 224.612 353.024 223.145 354.995 221.587C357.424 219.753 359.991 218.058 362.42 216.178C362.924 215.766 363.52 215.353 364.208 215.399C365.628 215.399 366.912 214.803 368.241 214.437C369.57 214.024 370.853 213.474 372.182 213.199C375.116 212.649 378.049 212.237 381.028 211.87C382.128 211.733 383.274 211.595 384.282 211.87C386.116 212.42 388.041 212.191 389.92 212.558C393.266 213.245 396.611 213.933 399.682 215.583C401.011 216.27 402.341 216.774 403.853 216.591C404.128 216.591 404.449 216.591 404.724 216.591H404.632Z" fill="#824414"/>
<path d="M403.486 290.656C402.753 289.144 401.424 288.227 400.141 287.31C395.695 284.194 391.157 281.214 386.482 278.51C385.107 277.731 383.961 276.723 383.091 275.439C382.541 274.569 381.899 273.744 381.303 272.919C379.699 270.765 378.828 268.29 378.324 265.677C377.82 263.019 377.362 260.36 376.582 257.748C376.124 256.235 375.391 254.952 374.199 253.852C373.374 253.073 372.457 252.569 371.403 252.156C368.653 251.102 365.812 250.506 362.878 250.048C361.412 249.819 359.991 249.636 358.57 249.315C357.516 249.086 356.553 249.177 355.591 249.544C352.795 250.644 349.908 251.469 346.928 251.973C341.749 252.89 336.57 253.027 331.437 252.065C326.762 251.194 322.499 249.361 318.97 246.061C317.595 246.748 316.174 246.381 314.799 246.29C314.158 246.244 313.562 246.061 312.874 246.198C314.066 247.39 315.212 248.627 316.404 249.819C318.879 252.34 320.849 255.227 322.499 258.344C323.416 260.04 323.829 261.873 324.287 263.752C325.204 267.648 325.937 271.59 326.029 275.623C326.67 278.144 326.212 280.71 326.762 283.231C326.854 283.735 326.899 284.285 326.762 284.744C326.349 286.164 326.945 287.631 326.533 289.098C326.441 289.464 326.624 289.969 326.716 290.381C326.762 290.748 326.716 291.114 326.441 291.389C327.954 292.169 329.558 292.581 331.253 292.673C332.995 292.26 334.783 291.848 336.616 291.756C339.091 291.619 340.191 292.535 340.924 295.102C341.383 295.285 341.841 295.514 342.345 295.652C355.82 299.043 369.249 302.435 382.724 305.827C383.411 306.01 384.145 306.148 384.832 306.285C384.878 305.918 384.832 305.552 385.016 305.231C386.436 302.023 388.224 298.998 390.882 296.614C392.807 294.873 395.007 293.635 397.528 293.039C399.316 292.627 401.057 292.123 402.707 291.344C403.028 291.16 403.349 291.023 403.486 290.656Z" fill="#FFB68A"/>
<path d="M175.192 269.391C175.192 269.254 175.146 269.116 175.192 268.933C175.192 261.462 174.78 254.037 174.596 246.567C174.459 241.112 174.321 235.612 174.23 230.158C174.23 229.746 174.092 229.288 174.046 228.875C172.259 228.463 170.471 228.371 168.638 228.738C167.309 229.013 165.842 228.829 164.467 228.921C161.855 229.058 159.242 229.288 156.63 229.654C154.109 230.021 151.542 230.296 149.021 230.662C147.142 230.937 145.263 231.304 143.384 231.625C140.955 232.038 138.526 232.496 136.051 232.908C133.301 233.367 130.642 234.054 127.938 234.742C123.401 235.887 118.955 237.354 114.555 238.912C111.163 240.104 107.909 241.571 104.655 243.083C104.151 243.312 103.509 243.496 103.372 244.183C103.601 244.458 103.738 244.825 104.013 245.054C107.863 248.583 110.934 252.8 114.188 256.833C117.901 261.462 121.567 266.091 125.234 270.721C127.526 273.654 129.817 276.587 132.109 279.52C132.521 280.07 132.934 280.437 133.759 280.208C141.551 278.191 149.296 276.175 157.088 274.204C162.817 272.737 168.546 271.271 174.275 269.85C174.642 269.758 175.009 269.712 175.284 269.437L175.192 269.391Z" fill="#FFB68A"/>
<path d="M410.361 313.023C410.361 313.481 410.453 313.894 410.453 314.352C410.224 322.19 410.315 330.027 410.499 337.864C410.59 341.394 410.774 344.877 410.82 348.406C410.82 349.414 411.37 350.239 411.415 351.202C415.403 352.531 419.436 353.31 423.561 353.906C425.303 354.181 427.044 354.273 428.786 354.502C430.253 354.685 431.857 354.456 433.278 353.814C434.882 353.081 436.394 352.21 437.861 351.248C438.549 350.789 439.099 350.194 439.511 349.506C440.29 348.177 441.069 346.848 441.803 345.519C442.261 344.739 442.444 343.914 442.536 342.998C442.857 340.156 443.315 337.36 443.682 334.564C444.049 331.814 444.369 329.065 444.69 326.315C445.011 323.794 445.378 321.273 445.744 318.706C445.973 316.965 446.203 315.223 446.432 313.481C446.569 312.473 446.753 311.465 446.844 310.456C447.165 307.34 447.348 304.177 447.807 301.106C448.265 298.127 448.311 295.148 448.907 292.215C449.228 290.702 448.632 289.19 448.448 287.677C448.311 286.531 447.853 285.431 447.348 284.377C446.019 281.857 444.782 279.29 443.224 276.907C441.115 273.79 438.319 272.827 434.653 273.882C432.04 274.615 430.115 276.127 428.649 278.373C428.053 279.29 427.686 280.298 427.503 281.444C427.228 283.186 427.228 284.881 427.457 286.669C427.732 288.823 427.549 291.069 427.594 293.269C427.594 294.186 427.274 294.965 426.632 295.652C423.515 298.952 421.04 302.802 418.153 306.285C416.549 308.256 414.899 310.227 413.065 312.06C412.286 312.84 411.415 313.252 410.361 313.206V313.023Z" fill="#FFB68B"/>
<path d="M74.2221 295.334C74.4513 293.546 74.4971 291.713 74.7262 289.88C75.4137 284.563 76.697 279.384 78.5304 274.388C80.5012 268.934 83.297 263.892 86.3678 258.988C87.0553 257.888 88.0636 256.972 88.522 255.734C88.1553 255.734 87.7886 255.688 87.422 255.78C84.5803 256.559 81.7845 257.384 78.9887 258.117C74.8637 259.172 70.8762 260.547 66.8429 261.876C64.2763 262.747 61.7097 263.617 59.0972 264.351C56.9431 264.947 55.0639 266.047 53.5055 267.651C52.0389 269.117 51.2597 270.905 51.1223 272.921C51.0306 274.571 50.9847 276.267 51.0306 277.963C51.1222 280.942 51.3514 283.967 51.5348 286.946C51.8098 291.438 53.8264 295.059 57.3097 297.855C59.2805 299.459 61.618 299.55 64.0013 299.184C66.6138 298.725 69.0888 297.855 71.4262 296.617C72.3429 296.159 73.1679 295.517 74.2221 295.425V295.334Z" fill="#E6A37C"/>
<path d="M404.632 216.589C404.357 216.589 404.037 216.589 403.762 216.589C402.249 216.772 400.874 216.268 399.591 215.581C396.52 213.931 393.174 213.243 389.828 212.556C387.949 212.143 386.07 212.418 384.191 211.868C383.183 211.547 381.991 211.685 380.937 211.868C378.003 212.235 375.024 212.647 372.091 213.197C370.762 213.427 369.478 214.022 368.149 214.435C366.82 214.847 365.583 215.443 364.116 215.397C363.429 215.397 362.879 215.764 362.329 216.177C359.899 218.056 357.379 219.752 354.904 221.585C352.887 223.097 350.824 224.61 349.358 226.81C348.304 228.368 346.929 229.697 345.599 231.072C343.629 233.226 342.345 235.747 341.52 238.497C340.741 241.11 342.254 242.485 344.408 243.356C345.187 243.676 346.012 243.447 346.699 242.989C347.662 242.301 348.579 241.614 348.899 240.376C349.083 239.735 349.449 239.185 349.862 238.681C351.283 237.031 352.612 235.243 354.079 233.639C355.362 232.264 356.599 230.751 358.204 229.743C358.433 229.606 358.708 229.422 358.891 229.193C360.404 227.497 362.329 226.26 364.162 224.931C365.674 223.831 367.462 223.052 369.249 222.364C371.953 221.31 374.749 220.347 377.637 219.889C379.928 219.522 382.22 219.247 384.603 219.202C389.233 219.202 393.541 220.347 397.803 221.951C399.316 222.501 400.828 223.051 402.295 223.647C403.303 224.06 404.266 224.197 405.228 223.693C405.412 223.601 405.641 223.647 405.87 223.647C406.053 222.272 406.145 220.943 405.87 219.568C405.687 218.514 405.412 217.46 404.632 216.635V216.589Z" fill="#5D3718"/>
<path d="M320.666 290.061C319.383 285.294 316.999 281.124 313.837 277.411C310.995 274.065 307.787 271.04 304.029 268.703C300.362 266.457 296.558 264.624 292.295 263.89C288.079 263.203 283.862 263.295 279.92 265.449C276.162 267.511 273.916 270.72 272.816 274.753C272.541 275.715 272.45 276.769 272.266 277.778C274.329 278.465 276.391 279.244 278.454 279.886C286.062 282.178 293.9 283.736 301.645 285.615C307.374 287.036 313.149 288.411 318.924 289.786C319.474 289.924 320.07 289.969 320.666 290.015V290.061Z" fill="#FFB58A"/>
</svg>
