<svg width="500" height="500" viewBox="0 0 500 500" fill="none" xmlns="http://www.w3.org/2000/svg">
<path d="M94.333 356.347C94.333 356.453 94.3683 356.559 94.4036 356.665C94.0508 358.534 94.0508 360.439 94.0508 362.38V370.282C94.0508 374.833 94.4741 379.349 94.3683 383.899C93.9097 383.899 93.4863 383.97 93.0277 383.97H57.326C56.1266 383.97 54.9624 383.864 53.904 383.264C52.7398 382.629 51.5404 381.994 50.6937 380.866C48.9298 378.502 48.6123 375.927 49.4237 373.175C49.847 371.764 50.6231 370.458 51.8226 369.576C52.7751 368.871 53.7276 368.165 54.6449 367.46C56.6205 365.978 58.7019 364.602 60.6775 363.121C63.2528 361.145 65.9692 359.31 68.6151 357.441C69.0737 357.123 69.4971 356.77 69.9557 356.418C71.8607 355.042 73.6246 353.454 75.9177 352.678C76.7291 351.973 77.8227 352.078 78.7753 351.761C80.4686 351.196 82.2678 351.232 83.9612 351.62C86.0779 352.078 88.1593 352.819 90.029 354.019C91.4049 354.901 92.8866 355.571 94.333 356.347Z" fill="#FFB88C"/>
<path d="M302.898 201.191L300.605 258.413C300.605 258.413 282.437 255.943 265.644 255.202C248.852 254.462 222.217 253.121 222.217 253.121C218.16 234.318 218.019 204.296 218.019 204.296C218.019 204.296 224.616 193.748 245.006 197.734C265.397 201.72 302.863 201.227 302.863 201.227L302.898 201.191Z" fill="#FFB88B"/>
<path d="M237.986 197.311L234.917 256.508L244.619 350.595C242.431 384.145 211.563 383.863 211.563 383.863H93.8037V355.64C93.8037 355.64 124.566 347.808 142.17 343.575C159.774 339.341 202.355 342.728 202.355 342.728C202.355 342.728 203.414 341.952 194.629 315.846C185.845 289.74 179.071 240.033 179.071 240.033C179.071 240.033 177.343 214.491 197.346 201.05C217.384 187.609 238.022 197.276 238.022 197.276L237.986 197.311Z" fill="#696D65"/>
<path d="M334.649 206.484C334.649 206.342 334.649 206.166 334.719 205.99C337.824 204.261 340.646 202.144 343.504 200.063C346.784 197.629 368.798 200.169 372.079 197.699C372.538 197.346 372.961 197.029 373.314 196.57C373.984 196.57 374.443 196.782 374.831 197.382C377.018 200.592 379.241 203.767 381.463 206.942C383.121 209.271 384.779 211.599 386.437 213.927C386.578 214.104 386.684 214.28 386.861 214.456C387.037 214.633 387.355 214.774 387.637 214.668C388.836 214.104 390.177 214.245 391.412 213.963C392.999 213.61 394.551 213.151 396.209 213.116C396.492 213.116 396.739 212.975 397.021 212.869C398.291 212.304 399.667 212.446 401.007 212.375C401.289 212.375 401.572 212.481 401.713 212.763C401.995 213.257 402.277 213.716 402.524 214.245C403.23 215.762 403.935 217.279 404.641 218.796C405.452 220.63 406.264 222.465 407.075 224.299C407.816 225.922 408.592 227.545 409.262 229.203C409.615 230.049 410.18 230.579 410.956 231.002C413.496 232.307 416.001 233.648 418.505 235.024C419.246 235.412 420.022 235.765 420.587 236.435C420.41 236.752 420.093 236.893 419.775 236.999C416.988 237.74 414.378 238.975 411.626 239.751C410.709 239.998 410.039 240.562 409.439 241.268C407.851 243.102 406.264 244.902 404.641 246.736C404.465 246.948 404.253 247.159 404.112 247.371C403.441 248.429 402.524 249.276 401.713 250.193C401.148 250.864 400.408 251.252 399.631 251.64C398.961 251.993 398.326 251.922 397.691 251.569C396.915 251.146 396.351 250.546 395.786 249.911C394.939 248.923 394.128 247.936 393.387 246.877C392.752 245.96 391.941 245.572 390.812 245.642C386.861 245.819 382.909 245.889 378.958 246.031C377.688 246.031 376.489 245.889 375.289 245.572C372.714 244.866 370.703 242.503 370.527 239.857C370.421 238.058 370.245 236.258 370.527 234.459C370.597 234.142 370.597 233.754 370.527 233.471C370.28 232.66 370.315 231.813 370.245 230.967C370.174 229.803 351.018 223.77 350.101 222.994C349.219 222.218 348.337 221.406 347.561 220.524C345.726 218.478 343.856 216.467 341.845 214.527C341.563 214.245 341.246 213.998 340.999 213.716C339.2 211.634 337.295 209.623 335.319 207.718C335.001 207.401 334.649 207.119 334.578 206.625V206.484H334.649Z" fill="#FFB88B"/>
<path d="M373.349 195.653C373.984 195.583 374.513 195.724 374.937 196.324C375.501 197.1 376.136 197.77 376.524 198.652C376.806 199.322 377.335 199.887 378.182 199.922C378.182 200.204 378.182 200.557 378.323 200.733C379.099 201.686 379.523 202.885 380.334 203.803C380.863 204.402 381.216 205.108 381.639 205.743C382.169 206.554 382.768 207.295 383.403 208.001C384.003 208.671 384.462 209.447 384.85 210.259C385.097 210.788 385.485 211.176 385.732 211.705C386.402 213.151 387.672 213.434 389.083 213.469C390.071 213.469 391.094 213.575 391.976 212.869C392.188 212.693 392.611 212.728 392.964 212.693C393.599 212.693 394.199 212.693 394.834 212.622C395.116 212.622 395.469 212.622 395.645 212.446C396.35 211.811 397.197 211.881 398.044 211.846C398.996 211.846 399.949 211.917 400.76 211.211C401.113 210.894 401.607 211.105 401.924 211.529C402.736 212.552 403.124 213.786 403.653 214.951C404.112 215.903 404.5 216.856 404.923 217.808C405.876 219.889 407.005 221.865 407.745 224.052C408.204 225.463 409.192 226.698 409.58 228.145C410.038 229.838 411.45 230.226 412.614 231.002C412.755 231.108 412.967 231.073 413.108 231.143C414.977 232.484 417.165 233.26 419.14 234.459C419.634 234.742 420.163 234.918 420.693 235.094C421.292 235.306 421.786 235.094 422.21 234.671C422.456 234.389 422.809 234.107 422.845 233.719C422.915 233.225 423.233 232.907 423.515 232.59C423.691 232.378 423.938 232.166 424.044 231.919C424.432 230.861 425.138 230.085 425.914 229.344C426.372 228.921 426.337 228.321 426.655 227.862C427.219 227.086 427.713 226.24 427.995 225.358C428.313 224.37 428.983 223.453 428.948 222.359V222.183C429.935 220.736 429.265 218.972 429.759 217.455C429.9 217.032 429.865 216.573 429.971 216.15C430.147 215.48 430.112 214.809 429.971 214.139C429.618 212.834 429.23 211.529 429.265 210.188C429.265 209.906 429.265 209.553 429.089 209.377C428.383 208.671 428.595 207.648 428.242 206.836C427.995 206.272 428.454 205.743 428.489 205.178C429.583 203.838 429.689 202.356 429.089 200.769C428.807 199.992 428.348 199.252 428.066 198.476C427.783 197.664 427.36 196.959 426.866 196.288C426.478 195.794 426.337 195.195 425.984 194.665C423.621 191.349 420.622 188.809 416.918 187.081C415.895 186.587 414.907 186.163 413.813 185.881C413.072 185.705 412.367 185.352 411.626 185.105C409.65 184.47 407.569 184.294 405.558 183.835H405.064C402.771 183.906 400.443 183.976 398.15 184.047C397.515 184.047 396.95 184.329 396.35 184.435C394.057 184.823 391.941 185.634 389.789 186.41C388.272 186.975 386.896 187.786 385.449 188.527C384.744 188.88 384.003 189.091 383.333 189.48C381.534 190.503 379.699 191.455 377.865 192.408C376.736 192.972 375.536 193.431 374.443 194.101C374.16 194.277 373.666 194.207 373.278 194.277C373.031 194.101 372.996 193.819 372.89 193.537C372.291 191.314 371.585 189.127 371.056 186.904C370.633 185.176 370.174 183.447 369.715 181.718C369.292 180.166 369.01 178.543 368.551 176.991C368.234 175.862 367.81 174.733 367.704 173.569C367.563 171.911 366.928 170.429 366.611 168.842C366.082 166.196 365.27 163.656 364.6 161.045C364.529 160.728 364.529 160.375 364.494 160.057C364.776 159.916 365.023 160.057 365.306 160.163C368.198 161.504 371.126 162.809 374.019 164.22C378.112 166.231 382.345 167.96 386.79 169.018C388.519 169.441 390.283 169.935 392.082 170.006C392.823 170.006 393.528 170.182 394.269 170.323C395.01 170.465 395.715 170.5 396.456 170.535C397.374 170.535 398.255 170.535 399.173 170.57C401.889 170.57 404.606 170.5 407.287 170.076C410.109 169.618 412.896 168.877 415.683 168.207C416.389 168.03 417.094 167.889 417.835 167.854C419.423 167.783 420.975 167.854 422.527 168.207C424.361 168.595 426.125 169.195 427.713 170.112C432.475 172.863 435.368 176.92 436.427 182.353C437.097 185.74 436.638 188.986 435.368 192.125C433.569 196.5 431.311 200.628 429.477 205.002C429.018 206.096 429.018 206.978 429.406 208.071C429.865 209.377 430.359 210.752 430.535 212.128C430.853 215.021 431.029 217.949 430.359 220.877C429.724 223.77 428.771 226.487 427.113 228.956C425.632 231.214 423.726 232.942 422.245 235.2C421.998 235.553 421.927 235.412 421.504 235.447C421.186 235.447 420.975 236.329 420.622 236.364C420.058 235.694 419.246 235.377 418.541 234.953C416.036 233.577 413.531 232.237 410.991 230.932C410.215 230.508 409.65 229.979 409.298 229.132C408.627 227.474 407.816 225.887 407.11 224.229C406.299 222.394 405.488 220.56 404.676 218.725C404.006 217.208 403.3 215.691 402.559 214.174C402.313 213.68 402.03 213.187 401.748 212.693C401.466 212.199 401.325 212.305 401.042 212.305C399.702 212.375 398.326 212.234 397.056 212.799C396.809 212.904 396.527 213.045 396.245 213.045C394.587 213.045 393.034 213.539 391.447 213.892C390.212 214.174 388.871 214.033 387.672 214.598C387.39 214.704 387.108 214.598 386.896 214.386C386.755 214.21 386.614 214.033 386.473 213.857C384.814 211.529 383.121 209.2 381.498 206.872C379.276 203.697 377.053 200.522 374.866 197.311C374.478 196.712 374.019 196.465 373.349 196.5C373.349 196.218 373.349 195.9 373.349 195.618V195.653Z" fill="#8A4101"/>
<path d="M428.418 205.248L428.101 205.142C428.101 204.754 427.819 204.542 427.431 204.542C427.431 204.084 427.36 203.731 426.972 203.414C426.831 203.308 426.796 203.061 426.725 202.849C426.725 202.426 426.478 202.179 426.02 202.179C426.161 201.297 425.455 200.979 424.961 200.521C424.961 200.203 424.855 199.921 424.573 199.709C423.621 199.004 422.739 198.228 421.998 197.275C421.786 196.993 421.469 196.922 421.151 196.922C420.975 196.57 420.693 196.358 420.34 196.217C420.022 196.076 419.634 195.97 419.423 195.617C419.211 195.123 418.787 194.911 418.188 195.017L416.671 194.135C416.6 193.818 416.353 193.677 415.93 193.712L415.119 193.395C414.907 193.148 414.66 193.042 414.272 193.077L413.072 192.583C412.931 192.477 412.755 192.407 412.508 192.442L410.92 191.913C410.779 191.842 410.603 191.842 410.18 191.807C409.509 191.807 408.839 191.913 408.204 191.56C407.604 191.207 406.934 191.243 406.228 191.243C405.099 191.243 404.006 191.313 402.877 191.066C402.03 190.89 401.078 190.925 400.196 191.207C399.49 191.454 398.749 191.454 398.044 191.489C397.091 191.489 396.104 191.49 395.257 192.054C395.08 192.195 394.834 192.266 394.622 192.23C393.105 192.125 391.835 192.865 390.565 193.5C390.459 193.5 390.388 193.641 390.283 193.641C388.554 193.853 387.249 194.982 385.802 195.758C384.956 196.182 384.109 196.57 383.262 196.993C382.98 196.993 382.804 197.099 382.698 197.275L381.886 197.734C381.639 197.734 381.428 197.84 381.357 198.016L380.581 198.439C380.299 198.439 380.122 198.545 380.017 198.722L379.24 199.18C378.817 199.18 378.605 199.427 378.57 199.85C378.464 199.85 377.406 200.45 377.3 200.485C376.453 200.485 376.242 199.18 375.783 198.616C375.148 197.769 375.113 197.275 374.266 196.887C373.843 196.675 374.16 196.781 373.42 196.499C373.42 196.499 373.349 196.499 373.349 196.428C373.349 195.935 373.349 194.7 373.243 194.276C373.631 194.276 374.09 194.276 374.407 194.1C375.501 193.395 376.7 192.971 377.829 192.407C379.664 191.49 381.498 190.537 383.297 189.479C383.968 189.091 384.744 188.879 385.414 188.526C386.825 187.785 388.201 186.939 389.753 186.409C391.905 185.633 394.057 184.822 396.315 184.434C396.915 184.328 397.479 184.046 398.114 184.046C400.407 184.046 402.736 183.905 405.029 183.834C407.322 183.764 405.382 183.834 405.523 183.834C407.534 184.293 409.615 184.469 411.591 185.104C412.332 185.351 413.037 185.669 413.778 185.88C414.872 186.162 415.895 186.586 416.882 187.08C420.551 188.808 423.55 191.348 425.949 194.665C426.302 195.194 426.478 195.758 426.831 196.287C427.325 196.958 427.748 197.663 428.03 198.475C428.313 199.251 428.736 199.992 429.054 200.768C429.653 202.391 429.547 203.872 428.418 205.248Z" fill="#5C3717"/>
<path d="M415.93 193.714C415.93 194.137 416.177 194.349 416.635 194.349C417.2 194.56 417.764 194.772 418.364 194.984C418.505 195.407 418.858 195.619 419.387 195.619C419.599 195.971 419.987 196.042 420.304 196.218C420.657 196.395 420.974 196.571 421.116 196.924C421.116 197.206 421.221 197.453 421.433 197.665C422.35 198.547 423.267 199.393 424.185 200.275C424.396 200.487 424.679 200.522 424.961 200.522C425.49 200.981 426.16 201.298 426.019 202.18C426.019 202.604 426.266 202.851 426.725 202.851C426.795 203.027 426.831 203.309 426.972 203.415C427.36 203.697 427.466 204.085 427.43 204.544C427.43 204.967 427.677 205.214 428.101 205.214H428.453C428.453 205.779 427.96 206.308 428.206 206.872C428.595 207.684 428.383 208.672 429.053 209.413C429.23 209.589 429.23 209.942 429.23 210.224C429.23 211.6 429.582 212.87 429.935 214.175C430.112 214.845 430.147 215.516 429.935 216.186C429.829 216.645 429.865 217.103 429.723 217.491C429.23 219.044 429.9 220.772 428.912 222.219V222.395C428.912 223.489 428.242 224.371 427.96 225.394C427.677 226.311 427.183 227.122 426.619 227.898C426.301 228.357 426.301 228.957 425.878 229.38C425.102 230.121 424.396 230.897 424.008 231.955C423.902 232.202 423.691 232.414 423.479 232.626C423.162 232.943 422.844 233.296 422.809 233.755C422.738 234.178 422.421 234.425 422.174 234.707C421.751 235.166 421.257 235.342 420.657 235.13C420.128 234.954 419.599 234.778 419.105 234.495C417.129 233.331 414.942 232.555 413.072 231.179C412.931 231.073 412.719 231.109 412.578 231.038C411.414 230.262 410.003 229.874 409.544 228.181C409.156 226.769 408.204 225.499 407.71 224.088C406.969 221.901 405.84 219.925 404.887 217.844C404.429 216.892 404.041 215.904 403.617 214.987C403.088 213.822 402.7 212.588 401.889 211.564C401.571 211.176 401.077 210.965 400.725 211.247C399.913 211.953 398.925 211.847 398.008 211.882C397.162 211.882 396.315 211.882 395.609 212.482C395.433 212.623 395.08 212.623 394.798 212.658C394.163 212.658 393.563 212.658 392.928 212.729C392.611 212.729 392.187 212.729 391.94 212.905C391.058 213.611 390.035 213.54 389.048 213.505C387.672 213.505 386.366 213.187 385.696 211.741C385.449 211.212 385.061 210.824 384.814 210.294C384.426 209.483 383.967 208.707 383.368 208.037C382.733 207.331 382.133 206.59 381.604 205.779C381.18 205.109 380.792 204.403 380.298 203.839C379.487 202.886 379.064 201.722 378.288 200.769C378.146 200.593 378.182 200.24 378.146 199.958H378.464C378.887 199.958 379.134 199.711 379.134 199.288H379.805C380.228 199.288 380.475 199.041 380.475 198.617H381.145C381.568 198.617 381.815 198.37 381.815 197.947H382.486C382.909 197.947 383.156 197.7 383.156 197.277C384.003 196.853 384.885 196.465 385.696 196.042C387.178 195.266 388.483 194.172 390.176 193.925C390.282 193.925 390.388 193.819 390.459 193.784C391.729 193.114 392.999 192.408 394.516 192.514C394.727 192.514 394.974 192.444 395.151 192.338C395.997 191.738 396.95 191.809 397.902 191.773C398.643 191.773 399.349 191.773 400.054 191.491C400.901 191.209 401.854 191.174 402.736 191.35C403.864 191.597 404.958 191.526 406.087 191.526C407.216 191.526 407.428 191.526 408.063 191.844C408.698 192.197 409.368 192.091 410.038 192.091C410.179 192.514 410.532 192.726 411.061 192.726H412.402C412.402 193.149 412.649 193.361 413.107 193.361H414.13C414.13 193.643 414.236 193.925 414.448 194.102C414.695 194.313 414.942 194.313 415.153 193.996H415.824L415.894 193.714H415.93Z" fill="#794720"/>
<path d="M421.857 197.206C422.774 198.088 423.692 198.935 424.609 199.817C424.821 200.028 424.891 200.275 424.926 200.557C424.644 200.557 424.362 200.487 424.15 200.31C423.233 199.428 422.316 198.582 421.399 197.7C421.187 197.488 421.116 197.241 421.081 196.959C421.363 196.959 421.645 197.03 421.857 197.206Z" fill="#7B4A24"/>
<path d="M414.201 193.078C414.695 193.078 415.013 193.29 415.224 193.713C415.048 193.995 414.801 194.031 414.519 193.819C414.272 193.643 414.201 193.36 414.201 193.078Z" fill="#7B4A24"/>
<path d="M411.132 192.479C410.603 192.479 410.25 192.267 410.109 191.844C410.639 191.844 410.991 192.055 411.132 192.479Z" fill="#7B4A24"/>
<path d="M419.352 195.653C418.823 195.653 418.47 195.441 418.329 195.018C418.823 195.018 419.141 195.229 419.352 195.653Z" fill="#7B4A24"/>
<path d="M426.69 202.885C426.231 202.885 426.02 202.673 425.984 202.215C426.408 202.215 426.655 202.427 426.69 202.885Z" fill="#7B4A24"/>
<path d="M428.101 205.213C427.678 205.213 427.431 205.002 427.431 204.543C427.854 204.543 428.101 204.755 428.101 205.213Z" fill="#7B4A24"/>
<path d="M383.157 197.064C383.157 197.488 382.945 197.735 382.486 197.735C382.486 197.311 382.698 197.064 383.157 197.064Z" fill="#7B4A24"/>
<path d="M413.178 193.114C412.755 193.114 412.508 192.902 412.473 192.479C412.896 192.479 413.143 192.69 413.178 193.114Z" fill="#7B4A24"/>
<path d="M379.17 199.217C379.17 199.675 378.959 199.887 378.5 199.887C378.5 199.464 378.712 199.217 379.17 199.217Z" fill="#7B4A24"/>
<path d="M380.51 198.512C380.51 198.97 380.298 199.182 379.84 199.182C379.84 198.759 380.052 198.512 380.51 198.512Z" fill="#7B4A24"/>
<path d="M416.6 194.348C416.177 194.348 415.93 194.136 415.895 193.713C416.353 193.713 416.565 193.925 416.6 194.348Z" fill="#7B4A24"/>
<path d="M381.816 197.77C381.816 198.193 381.604 198.44 381.146 198.44C381.146 198.016 381.357 197.77 381.816 197.77Z" fill="#7B4A24"/>
<path d="M420.622 236.365C426.972 235.024 430.323 222.289 430.323 222.289C432.793 208.318 426.725 199.499 417.835 194.031C409.403 188.809 396.174 190.82 390.741 192.478C385.308 194.136 377.229 200.875 377.229 200.875C377.229 200.875 383.756 210.153 385.555 212.693L387.354 215.233C387.354 215.233 392.47 214.033 397.867 213.575C401.289 213.293 401.783 213.928 401.783 213.928C401.783 213.928 407.463 223.347 408.345 227.086C409.227 230.826 410.991 231.038 410.991 231.038L420.622 236.47V236.365Z" fill="#8A4101"/>
<path d="M319.197 262.894C319.585 262.506 319.727 262.082 319.656 261.518C319.55 260.636 319.585 259.719 319.48 258.837C318.95 253.439 319.092 248.041 319.021 242.609C319.021 241.092 318.915 239.575 318.845 238.058C318.704 235.518 318.986 232.978 319.197 230.473C319.339 228.85 319.832 227.262 320.467 225.781C321.667 222.959 323.113 220.277 325.371 218.196C327.417 216.291 329.64 214.633 332.427 214.104C335.284 213.539 338.142 213.61 340.929 214.527C342.093 214.915 343.257 215.303 344.386 215.903C346.08 216.785 347.35 218.125 348.443 219.642C349.537 221.159 349.89 222.923 349.995 224.722C350.172 227.474 350.172 230.226 350.348 232.978C350.489 235.412 350.736 237.811 350.913 240.21C351.018 241.832 350.983 243.491 351.018 245.113C351.018 246.101 351.23 247.018 351.23 248.253C351.336 248.606 351.23 249.029 351.301 249.417V301.206C351.301 303.393 351.795 305.58 351.689 307.768C351.689 307.874 351.689 308.015 351.689 308.12C352.006 309.002 351.971 309.92 351.936 310.802C351.83 314.012 352.253 317.222 352.324 320.433C352.324 320.609 352.324 320.785 352.324 320.926C352.641 321.844 352.606 322.832 352.571 323.784C352.465 326.818 352.959 329.852 352.959 332.886C352.959 335.92 352.959 333.344 353.029 333.556C353.347 334.368 353.276 335.214 353.276 336.061C353.276 337.543 353.17 339.024 353.382 340.471C353.77 342.87 353.559 345.304 353.876 347.703C354.158 349.855 354.088 352.077 354.264 354.265C354.264 354.829 354.511 355.217 354.97 355.499C355.781 356.028 356.557 356.558 357.333 357.122C362.696 360.932 367.987 364.883 373.455 368.552C373.808 368.799 374.196 369.117 374.408 369.505C376.031 371.974 375.008 374.655 373.314 375.82C372.185 376.596 370.986 377.195 369.645 377.513C367.635 378.007 365.518 378.148 363.542 378.818C363.225 378.924 362.872 378.889 362.519 378.889C362.166 378.889 361.708 378.889 361.32 378.959C358.921 379.312 356.522 379.559 354.088 379.559C351.653 379.559 350.137 379.489 348.161 379.559C345.868 379.63 343.681 379.136 341.458 378.783C339.8 378.501 338.601 377.584 337.613 376.278C337.436 376.067 337.295 375.82 337.154 375.573C336.166 373.985 335.32 372.362 334.896 370.493C334.614 369.293 334.191 368.129 333.944 366.929C333.309 364.178 332.78 361.426 332.074 358.71C331.792 357.687 331.651 356.628 331.404 355.57C331.051 354.088 330.557 352.642 330.31 351.16C330.134 350.102 329.746 349.114 329.534 348.056C329.252 346.574 329.04 345.057 328.617 343.61C328.193 342.093 327.982 340.541 327.523 339.024C326.959 337.155 326.641 335.179 326.183 333.274C325.618 330.875 325.195 328.441 324.489 326.042C324.489 325.865 324.419 325.689 324.419 325.548C324.419 324.983 324.277 324.419 324.031 323.925C323.854 323.572 323.748 323.184 323.748 322.796C323.748 322.232 323.572 321.703 323.396 321.138C323.254 320.715 323.149 320.256 323.043 319.833C322.725 318.351 322.443 316.869 322.09 315.388C321.667 313.589 321.208 311.789 320.785 309.99C320.714 309.708 320.714 309.426 320.679 309.144C320.573 306.286 320.82 303.393 320.326 300.536C320.326 295.632 319.797 290.728 319.974 285.825V283.778C319.974 283.39 319.974 282.967 319.868 282.614C319.656 281.909 319.656 281.168 319.656 280.427C319.656 279.122 319.762 277.816 319.55 276.546C319.339 275.135 319.339 273.724 319.339 272.348C319.339 270.972 319.339 269.067 319.339 267.445C319.339 266.986 319.339 266.527 319.233 266.104C318.915 265.046 318.986 263.987 319.021 262.929H319.162L319.197 262.894Z" fill="#F6BB92"/>
<path d="M359.837 226.381L349.007 198.828L287.446 201.192L287.199 256.826L319.197 262.894L351.124 246.172L359.837 226.381Z" fill="#8B8ADF"/>
<path d="M319.197 262.894C319.585 262.506 319.727 262.082 319.656 261.518C319.55 260.636 319.585 259.719 319.48 258.837C318.95 253.439 319.092 248.041 319.021 242.609C319.021 241.092 318.915 239.575 318.845 238.058C318.704 235.518 318.986 232.978 319.197 230.473C319.339 228.85 319.832 227.262 320.467 225.781C321.667 222.959 323.113 220.277 325.371 218.196C327.417 216.291 329.64 214.633 332.427 214.104C335.284 213.539 338.142 213.61 340.929 214.527C342.093 214.915 343.257 215.303 344.386 215.903C346.08 216.785 347.35 218.125 348.443 219.642C349.537 221.159 349.89 222.923 349.995 224.722C350.172 227.474 350.172 230.226 350.348 232.978C350.489 235.412 350.736 237.811 350.913 240.21C351.018 241.832 350.983 243.491 351.018 245.113C351.018 246.101 351.23 247.018 351.23 248.253C351.336 248.606 351.23 249.029 351.301 249.417V301.206C351.301 303.393 351.795 305.58 351.689 307.768C351.689 307.874 351.689 308.015 351.689 308.12C352.006 309.002 351.971 309.92 351.936 310.802C351.83 314.012 352.253 317.222 352.324 320.433C352.324 320.609 352.324 320.785 352.324 320.926C352.641 321.844 352.606 322.832 352.571 323.784C352.465 326.818 352.959 329.852 352.959 332.886C352.959 335.92 352.959 333.344 353.029 333.556C353.347 334.368 353.276 335.214 353.276 336.061C353.276 337.543 353.17 339.024 353.382 340.471C353.77 342.87 353.559 345.304 353.876 347.703C354.158 349.855 354.088 352.077 354.264 354.265C354.264 354.829 354.511 355.217 354.97 355.499C355.781 356.028 356.557 356.558 357.333 357.122C362.696 360.932 367.987 364.883 373.455 368.552C373.808 368.799 374.196 369.117 374.408 369.505C376.031 371.974 375.008 374.655 373.314 375.82C372.185 376.596 370.986 377.195 369.645 377.513C367.635 378.007 365.518 378.148 363.542 378.818C363.225 378.924 362.872 378.889 362.519 378.889C362.166 378.889 361.708 378.889 361.32 378.959C358.921 379.312 356.522 379.559 354.088 379.559C351.653 379.559 350.137 379.489 348.161 379.559C345.868 379.63 343.681 379.136 341.458 378.783C339.8 378.501 338.601 377.584 337.613 376.278C337.436 376.067 337.295 375.82 337.154 375.573C336.166 373.985 335.32 372.362 334.896 370.493C334.614 369.293 334.191 368.129 333.944 366.929C333.309 364.178 332.78 361.426 332.074 358.71C331.792 357.687 331.651 356.628 331.404 355.57C331.051 354.088 330.557 352.642 330.31 351.16C330.134 350.102 329.746 349.114 329.534 348.056C329.252 346.574 329.04 345.057 328.617 343.61C328.193 342.093 327.982 340.541 327.523 339.024C326.959 337.155 326.641 335.179 326.183 333.274C325.618 330.875 325.195 328.441 324.489 326.042C324.489 325.865 324.419 325.689 324.419 325.548C324.419 324.983 324.277 324.419 324.031 323.925C323.854 323.572 323.748 323.184 323.748 322.796C323.748 322.232 323.572 321.703 323.396 321.138C323.254 320.715 323.149 320.256 323.043 319.833C322.725 318.351 322.443 316.869 322.09 315.388C321.667 313.589 321.208 311.789 320.785 309.99C320.714 309.708 320.714 309.426 320.679 309.144C320.573 306.286 320.82 303.393 320.326 300.536C320.326 295.632 319.797 290.728 319.974 285.825V283.778C319.974 283.39 319.974 282.967 319.868 282.614C319.656 281.909 319.656 281.168 319.656 280.427C319.656 279.122 319.762 277.816 319.55 276.546C319.339 275.135 319.339 273.724 319.339 272.348C319.339 270.972 319.339 269.067 319.339 267.445C319.339 266.986 319.339 266.527 319.233 266.104C318.915 265.046 318.986 263.987 319.021 262.929H319.162L319.197 262.894Z" fill="#FFB88C"/>
</svg>
