<svg width="500" height="500" viewBox="0 0 500 500" fill="none" xmlns="http://www.w3.org/2000/svg">
<path d="M114.393 356.338C112.957 355.565 111.472 354.87 110.092 354.006C108.205 352.824 106.145 352.073 104.017 351.621C102.328 351.261 100.528 351.208 98.8385 351.776C97.8896 352.094 96.796 351.97 95.981 352.69C93.6845 353.452 91.9135 355.05 90.0085 356.429C89.5534 356.757 89.116 357.114 88.6609 357.438C86.008 359.333 83.3092 361.16 80.7163 363.132C78.7443 364.631 76.6911 366.007 74.7014 367.471C73.7524 368.17 72.8141 368.886 71.8651 369.588C70.6586 370.484 69.8789 371.775 69.4591 373.186C68.6442 375.924 68.9794 378.517 70.7327 380.87C71.5723 381.999 72.7612 382.616 73.943 383.255C75.0084 383.83 76.1619 383.957 77.3684 383.953C89.2677 383.932 101.163 383.943 113.063 383.939C113.514 383.939 113.962 383.9 114.414 383.883C114.52 379.339 114.075 374.806 114.093 370.262C114.103 367.623 114.117 364.984 114.1 362.345C114.089 360.437 114.114 358.532 114.456 356.648C114.428 356.549 114.407 356.447 114.393 356.348V356.338Z" fill="#F6BB92"/>
<path d="M329.361 210.072C329.361 210.072 302.952 210.806 282.544 207.514C262.136 204.223 258.308 203.877 258.308 203.877C258.308 203.877 251.179 245.48 255.232 260.992C255.232 260.992 275.316 253.982 292.101 254.592C308.886 255.203 327.054 257.252 327.054 257.252L329.361 210.072Z" fill="#F6BB92"/>
<path d="M345.653 262.9C345.628 263.969 345.551 265.035 345.875 266.086C346.006 266.502 345.96 266.978 345.967 267.43C345.985 269.067 345.978 270.704 346.006 272.337C346.03 273.741 346.013 275.138 346.235 276.546C346.436 277.816 346.306 279.135 346.327 280.433C346.337 281.164 346.316 281.894 346.538 282.613C346.651 282.98 346.62 283.393 346.63 283.788C346.648 284.466 346.665 285.143 346.648 285.82C346.503 290.727 347.061 295.617 347.018 300.52C347.523 303.371 347.272 306.253 347.375 309.121C347.385 309.4 347.403 309.686 347.47 309.957C347.9 311.76 348.366 313.559 348.782 315.365C349.121 316.84 349.403 318.329 349.721 319.807C349.816 320.244 349.929 320.682 350.056 321.112C350.211 321.652 350.415 322.181 350.398 322.76C350.387 323.162 350.493 323.539 350.677 323.899C350.938 324.411 351.079 324.947 351.075 325.525C351.075 325.695 351.082 325.868 351.132 326.03C351.837 328.401 352.275 330.835 352.828 333.244C353.269 335.16 353.598 337.107 354.155 338.991C354.603 340.504 354.801 342.067 355.234 343.581C355.651 345.031 355.884 346.533 356.159 348.022C356.349 349.073 356.758 350.061 356.928 351.13C357.161 352.622 357.644 354.076 358.007 355.547C358.261 356.581 358.417 357.635 358.685 358.673C359.387 361.392 359.916 364.155 360.551 366.892C360.83 368.095 361.253 369.266 361.521 370.469C361.937 372.314 362.777 373.958 363.775 375.535C363.927 375.772 364.064 376.022 364.234 376.244C365.225 377.536 366.418 378.481 368.093 378.753C370.312 379.112 372.506 379.606 374.785 379.532C376.757 379.469 378.733 379.532 380.709 379.539C383.136 379.55 385.538 379.285 387.937 378.95C388.325 378.897 388.724 378.904 389.119 378.883C389.457 378.862 389.817 378.911 390.128 378.806C392.114 378.142 394.209 378.001 396.227 377.49C397.557 377.155 398.753 376.551 399.882 375.779C401.572 374.625 402.609 371.951 400.972 369.471C400.732 369.104 400.372 368.783 400.006 368.536C394.537 364.853 389.242 360.927 383.873 357.106C383.093 356.552 382.303 356.002 381.495 355.49C381.015 355.187 380.832 354.799 380.786 354.242C380.606 352.051 380.68 349.832 380.409 347.673C380.102 345.263 380.306 342.84 379.922 340.437C379.693 339.005 379.841 337.509 379.809 336.045C379.791 335.202 379.865 334.352 379.562 333.534C379.488 333.329 379.495 333.089 379.495 332.863C379.509 329.819 379.001 326.799 379.121 323.751C379.16 322.798 379.188 321.832 378.864 320.901C378.811 320.745 378.818 320.565 378.814 320.396C378.758 317.186 378.313 313.993 378.433 310.776C378.465 309.88 378.511 308.97 378.19 308.095C378.151 307.992 378.144 307.872 378.147 307.76C378.257 305.558 377.766 303.392 377.77 301.187C377.802 283.922 377.788 266.657 377.788 249.392C377.77 249.004 377.837 248.592 377.721 248.232C377.71 246.986 377.519 246.09 377.495 245.095C377.463 243.462 377.488 241.825 377.389 240.192C377.244 237.775 376.976 235.369 376.839 232.953C376.68 230.198 376.648 227.439 376.486 224.684C376.38 222.877 376.024 221.131 374.919 219.604C373.815 218.076 372.545 216.757 370.859 215.861C369.755 215.275 368.591 214.876 367.412 214.485C364.615 213.554 361.768 213.487 358.91 214.047C356.099 214.598 353.873 216.252 351.841 218.15C349.579 220.263 348.129 222.934 346.927 225.753C346.281 227.266 345.791 228.839 345.656 230.459C345.448 232.981 345.166 235.507 345.307 238.05C345.392 239.567 345.48 241.088 345.501 242.605C345.582 248.013 345.413 253.425 345.956 258.819C346.048 259.715 346.03 260.621 346.126 261.514C346.186 262.071 346.038 262.509 345.653 262.886V262.9Z" fill="#F6BB92"/>
<path d="M389.302 219.442C389.789 219.389 390.107 219.061 390.424 218.74C392.379 216.792 394.449 214.972 396.587 213.226C396.891 212.979 397.159 212.679 397.441 212.404C399.413 210.474 401.491 208.661 403.593 206.876C404.496 206.11 405.333 205.263 406.144 204.403C406.973 203.517 407.989 203.15 409.157 203.104C410 203.069 410.843 203.136 411.679 202.9C411.989 202.812 412.36 202.833 412.684 202.9C414.473 203.281 416.283 203.15 418.078 203.101C420.738 203.03 423.151 201.079 423.949 198.525C424.319 197.333 424.527 196.133 424.517 194.874C424.485 190.926 424.541 186.975 424.485 183.028C424.467 181.881 424.873 181.116 425.797 180.491C426.866 179.768 427.9 178.985 428.905 178.174C429.561 177.648 430.193 177.076 430.627 176.325C430.994 175.693 431.075 175.062 430.754 174.392C430.387 173.626 430.031 172.868 429.381 172.282C428.461 171.453 427.667 170.486 426.619 169.795C426.386 169.643 426.192 169.428 425.988 169.234C424.213 167.583 422.456 165.914 420.661 164.288C419.969 163.664 419.458 162.976 419.221 162.059C418.512 159.275 417.348 156.629 416.699 153.825C416.621 153.49 416.477 153.186 416.17 152.992C415.482 153.528 415.136 154.322 414.713 155.038C413.259 157.497 411.848 159.977 410.455 162.471C410.021 163.244 409.471 163.78 408.624 164.105C406.952 164.743 405.322 165.481 403.667 166.161C401.808 166.927 399.939 167.671 398.083 168.44C396.534 169.082 394.996 169.739 393.458 170.409C392.943 170.631 392.449 170.903 391.959 171.174C391.701 171.319 391.56 171.577 391.567 171.876C391.595 173.221 391.412 174.586 391.955 175.884C392.065 176.142 392.192 176.42 392.192 176.692C392.184 178.336 392.601 179.906 392.901 181.507C393.137 182.76 392.982 184.086 393.493 185.317C393.606 185.589 393.486 185.878 393.257 186.076C393.088 186.224 392.901 186.347 392.714 186.474C390.332 188.069 387.958 189.674 385.566 191.251C382.328 193.385 379.086 195.516 375.819 197.601C375.216 197.986 374.934 198.419 374.965 199.1C375.41 199.457 375.731 199.912 376.059 200.374C378.416 203.722 380.804 207.048 383.143 210.407C385.161 213.307 387.196 216.2 388.823 219.353C388.988 219.382 389.151 219.406 389.316 219.435L389.302 219.442Z" fill="#F6BB92"/>
<path d="M374.07 199.044C374.366 199.065 374.659 199.086 374.955 199.107C374.923 198.427 375.206 197.993 375.809 197.608C379.079 195.523 382.318 193.392 385.556 191.258C387.948 189.681 390.322 188.076 392.703 186.482C392.89 186.358 393.077 186.231 393.247 186.083C393.476 185.882 393.596 185.596 393.483 185.324C392.972 184.093 393.127 182.77 392.89 181.514C392.587 179.913 392.174 178.346 392.181 176.699C392.181 176.431 392.054 176.149 391.945 175.891C391.398 174.593 391.585 173.231 391.557 171.884C391.55 171.58 391.691 171.326 391.948 171.182C392.439 170.906 392.933 170.638 393.448 170.416C394.982 169.746 396.524 169.09 398.073 168.447C399.928 167.678 401.798 166.938 403.657 166.169C405.312 165.488 406.942 164.75 408.614 164.112C409.464 163.787 410.014 163.251 410.445 162.478C411.838 159.984 413.253 157.504 414.703 155.045C415.126 154.329 415.472 153.536 416.16 152.999C416.142 152.661 415.299 152.435 415.264 152.1C415.221 151.691 415.38 151.609 415.024 151.359C412.815 149.8 411.126 147.863 408.914 146.311C406.49 144.607 403.791 143.566 400.923 142.839C398.016 142.098 395.099 142.176 392.181 142.42C390.798 142.536 389.426 142.977 388.093 143.411C387.013 143.764 386.124 143.753 385.038 143.256C380.737 141.291 376.659 138.888 372.345 136.969C369.254 135.597 366.044 135.068 362.626 135.625C357.161 136.521 353.026 139.297 350.134 143.968C349.153 145.556 348.5 147.274 348.059 149.108C347.682 150.667 347.548 152.216 347.576 153.8C347.587 154.537 347.728 155.25 347.876 155.973C348.451 158.788 349.125 161.593 349.492 164.436C349.837 167.114 349.848 169.837 349.753 172.547C349.721 173.45 349.661 174.349 349.633 175.253C349.608 175.986 349.541 176.71 349.372 177.433C349.206 178.145 349.054 178.872 349.001 179.599C348.871 181.416 348.313 183.137 347.848 184.869C346.655 189.286 344.789 193.435 342.665 197.481C341.177 200.318 339.79 203.207 338.354 206.071C338.227 206.325 338.097 206.576 338.238 206.869C338.573 206.851 338.919 206.879 339.243 206.805C341.865 206.209 344.457 205.468 347.103 205.034C348.705 204.77 350.225 204.184 351.873 204.089C353.016 204.022 354.173 203.627 355.302 203.337C356.875 202.932 358.48 202.674 360.061 202.311C361.8 201.912 363.543 201.482 365.296 201.125C367.543 200.67 369.759 200.053 371.988 199.503C372.26 199.436 372.539 199.379 372.733 199.15C372.694 198.758 372.775 198.296 372.595 197.993C371.935 196.885 371.53 195.675 370.993 194.518C370.122 192.645 369.222 190.778 368.245 188.962C367.871 188.267 367.684 187.515 367.346 186.817C366.647 185.367 365.857 183.97 365.345 182.421C364.629 180.241 363.874 178.078 363.567 175.792C363.486 175.179 363.215 174.618 363.225 173.976C363.253 171.665 363.236 169.358 363.236 167.047C363.236 166.878 363.215 166.701 363.253 166.542C363.776 164.542 364.005 162.478 364.71 160.517C364.975 159.783 365.321 159.078 365.536 158.344C365.853 157.257 366.316 156.259 366.824 155.261C368.672 151.631 371.286 148.706 374.669 146.438C375.192 146.088 375.791 145.951 376.303 145.591C376.98 145.115 377.689 144.723 378.522 144.459C379.298 144.212 380.049 143.795 380.843 143.52C382.455 142.966 383.93 143.104 385.249 144.254C385.81 144.272 386.322 144.78 386.883 144.533C387.705 144.173 388.696 144.423 389.43 143.746C389.603 143.587 389.966 143.573 390.238 143.587C391.606 143.661 392.908 143.309 394.22 143.005C394.891 142.85 395.568 142.822 396.224 143.016C396.662 143.146 397.138 143.122 397.54 143.263C399.071 143.802 400.831 143.174 402.257 144.208C402.299 144.236 402.366 144.236 402.422 144.236C403.523 144.261 404.391 144.952 405.382 145.291C406.282 145.598 407.097 146.11 407.859 146.695C408.3 147.034 408.914 147.037 409.319 147.496C410.032 148.297 410.801 149.041 411.831 149.45C412.078 149.549 412.269 149.796 412.473 149.99C412.798 150.304 413.108 150.629 413.588 150.71C414.004 150.78 414.251 151.112 414.537 151.38C414.996 151.81 415.144 152.322 414.911 152.911C414.703 153.43 414.537 153.948 414.223 154.439C412.985 156.368 412.145 158.534 410.734 160.365C410.639 160.489 410.67 160.711 410.575 160.842C409.764 161.988 409.323 163.392 407.619 163.794C406.187 164.133 404.906 165.061 403.488 165.495C401.279 166.169 399.258 167.241 397.152 168.137C396.185 168.546 395.205 168.924 394.242 169.337C393.067 169.834 391.821 170.19 390.77 170.956C390.365 171.252 390.132 171.735 390.432 172.113C391.105 172.956 390.985 173.909 390.989 174.857C390.992 175.701 390.918 176.544 391.522 177.274C391.673 177.461 391.656 177.81 391.663 178.089C391.684 178.71 391.656 179.331 391.677 179.952C391.687 180.287 391.635 180.707 391.811 180.936C392.502 181.835 392.375 182.858 392.337 183.857C392.28 185.247 391.952 186.531 390.492 187.152C389.976 187.374 389.564 187.759 389.035 187.984C388.22 188.334 387.412 188.792 386.734 189.36C385.997 189.981 385.239 190.546 384.424 191.046C383.753 191.459 383.03 191.808 382.431 192.306C381.471 193.103 380.268 193.481 379.287 194.236C379.097 194.384 378.748 194.324 378.469 194.363C378.402 195.199 377.816 195.693 377.153 195.971C376.257 196.349 375.548 196.956 374.768 197.488C374.161 197.901 374.003 198.398 374.066 199.051V199.044H374.07Z" fill="#7A4821"/>
<path d="M385.288 144.283C383.962 143.101 382.469 142.956 380.843 143.514C380.046 143.789 379.294 144.205 378.522 144.452C377.693 144.717 376.984 145.108 376.303 145.584C375.791 145.944 375.195 146.082 374.669 146.431C371.286 148.699 368.672 151.624 366.824 155.254C366.316 156.252 365.854 157.251 365.536 158.337C365.321 159.071 364.975 159.777 364.711 160.511C364.005 162.472 363.776 164.539 363.254 166.536C363.211 166.695 363.236 166.871 363.236 167.04C363.236 169.351 363.254 171.658 363.225 173.969C363.218 174.611 363.486 175.172 363.568 175.786C363.874 178.068 364.626 180.231 365.346 182.415C365.857 183.967 366.644 185.364 367.346 186.81C367.681 187.509 367.871 188.257 368.245 188.955C369.223 190.775 370.119 192.638 370.994 194.511C371.533 195.665 371.939 196.878 372.595 197.986C372.775 198.29 372.694 198.752 372.733 199.143C373.156 199.112 374.377 199.136 374.881 199.112C374.923 199.112 374.931 199.066 374.945 199.027C375.237 198.314 375.128 198.642 375.354 198.208C375.791 197.372 376.275 197.369 377.139 196.751C377.725 196.335 378.984 196.141 379.051 195.305C379.047 195.192 378.465 194.13 378.465 194.017C378.031 194 377.802 193.781 377.799 193.34L377.375 192.546C377.209 192.437 377.125 192.25 377.121 191.982L376.719 191.202C376.546 191.1 376.455 190.92 376.444 190.655L376.021 189.833C375.858 189.724 375.77 189.541 375.767 189.273C375.382 188.408 375.022 187.533 374.609 186.687C373.886 185.198 372.817 183.857 372.641 182.132C372.63 182.026 372.542 181.931 372.493 181.832C371.872 180.531 371.191 179.247 371.329 177.726C371.35 177.504 371.286 177.278 371.163 177.088C370.602 176.223 370.676 175.26 370.669 174.301C370.665 173.574 370.669 172.858 370.457 172.131C370.2 171.267 370.2 170.311 370.408 169.457C370.683 168.339 370.658 167.231 370.669 166.113C370.676 165.432 370.665 164.758 371.043 164.155C371.427 163.541 371.336 162.853 371.364 162.183C371.382 161.773 371.389 161.569 371.477 161.445L372.045 159.865C372.034 159.622 372.091 159.442 372.207 159.318L372.722 158.126C372.712 157.766 372.831 157.494 373.068 157.3L373.407 156.51C373.378 156.094 373.534 155.857 373.847 155.78L374.772 154.273C374.687 153.67 374.906 153.268 375.417 153.056C375.763 152.848 375.869 152.471 376.035 152.146C376.211 151.804 376.405 151.501 376.776 151.352C376.793 151.028 376.867 150.717 377.164 150.502C378.127 149.804 378.935 148.943 379.661 148.001C379.876 147.722 380.176 147.648 380.494 147.631C380.959 147.13 381.312 146.442 382.184 146.608C382.201 146.174 382.424 145.944 382.864 145.937C383.055 145.86 383.313 145.831 383.429 145.69C383.736 145.309 384.117 145.225 384.558 145.253C384.572 144.833 384.777 144.607 385.182 144.586L385.285 144.269V144.283H385.288Z" fill="#5C3717"/>
<path d="M373.406 156.435C373.406 156.664 373.399 156.894 373.396 157.12C373.692 157.321 373.696 157.564 373.48 157.822C373.286 158.051 373.011 158.114 372.726 158.128C372.722 158.467 372.715 158.806 372.711 159.145C372.701 159.578 372.489 159.811 372.048 159.822C372.045 160.273 372.041 160.725 372.034 161.177C372.006 161.72 371.784 162.058 371.367 162.193C371.339 162.863 371.431 163.551 371.046 164.165C370.669 164.768 370.679 165.445 370.672 166.122C370.662 167.241 370.686 168.348 370.411 169.467C370.2 170.321 370.203 171.277 370.461 172.141C370.676 172.868 370.669 173.58 370.672 174.31C370.676 175.266 370.602 176.226 371.163 177.09C371.279 177.27 371.35 177.524 371.332 177.732C371.198 179.253 371.875 180.537 372.496 181.839C372.546 181.941 372.634 182.036 372.644 182.139C372.821 183.867 373.89 185.204 374.613 186.693C375.026 187.543 375.385 188.418 375.77 189.279C376.211 189.289 376.426 189.519 376.437 189.956C376.437 190.182 376.444 190.408 376.447 190.634C376.888 190.644 377.103 190.877 377.114 191.311C377.114 191.537 377.121 191.762 377.125 191.988C377.566 191.999 377.784 192.232 377.791 192.669C377.791 192.895 377.798 193.121 377.802 193.343C378.243 193.353 378.462 193.586 378.469 194.02C378.469 194.133 378.469 194.242 378.472 194.355C378.747 194.32 379.1 194.376 379.291 194.228C380.271 193.473 381.471 193.096 382.434 192.299C383.034 191.801 383.757 191.452 384.427 191.039C385.242 190.538 386.001 189.974 386.738 189.353C387.415 188.785 388.223 188.326 389.038 187.977C389.567 187.751 389.976 187.363 390.495 187.145C391.952 186.52 392.284 185.24 392.34 183.85C392.379 182.851 392.506 181.828 391.814 180.929C391.638 180.699 391.691 180.279 391.68 179.944C391.663 179.323 391.687 178.703 391.666 178.082C391.659 177.806 391.677 177.454 391.525 177.267C390.925 176.536 390.999 175.693 390.992 174.85C390.985 173.905 391.109 172.952 390.435 172.106C390.135 171.728 390.368 171.245 390.774 170.948C391.825 170.183 393.07 169.827 394.245 169.329C395.208 168.92 396.189 168.543 397.155 168.13C399.262 167.234 401.286 166.161 403.491 165.487C404.909 165.054 406.194 164.126 407.622 163.787C409.326 163.385 409.767 161.977 410.579 160.834C410.67 160.704 410.639 160.485 410.737 160.358C412.149 158.527 412.988 156.361 414.226 154.431C414.54 153.941 414.706 153.422 414.914 152.904C415.151 152.315 415.002 151.803 414.54 151.373C414.255 151.105 414.008 150.773 413.591 150.703C413.112 150.621 412.801 150.297 412.477 149.983C412.276 149.789 412.081 149.542 411.835 149.443C410.804 149.03 410.035 148.286 409.323 147.489C408.914 147.03 408.303 147.03 407.862 146.688C407.1 146.102 406.285 145.591 405.386 145.284C404.394 144.945 403.53 144.25 402.426 144.229C402.369 144.229 402.302 144.229 402.26 144.201C400.835 143.167 399.075 143.799 397.543 143.255C397.141 143.114 396.665 143.135 396.228 143.008C395.571 142.814 394.891 142.843 394.224 142.998C392.911 143.301 391.61 143.654 390.241 143.58C389.969 143.566 389.606 143.58 389.433 143.739C388.699 144.416 387.704 144.166 386.886 144.525C386.325 144.772 385.814 144.264 385.253 144.247C385.253 144.363 385.246 144.48 385.242 144.596C385.228 145.033 384.999 145.252 384.561 145.263C384.117 145.234 383.736 145.323 383.432 145.7C383.319 145.841 383.062 145.869 382.868 145.947C382.857 146.388 382.624 146.607 382.187 146.617C381.316 146.448 380.963 147.139 380.497 147.64C380.48 147.919 380.423 148.191 380.219 148.395C379.326 149.291 378.43 150.187 377.534 151.08C377.326 151.285 377.058 151.341 376.779 151.359C376.405 151.507 376.214 151.81 376.038 152.152C375.869 152.477 375.763 152.854 375.421 153.059C375.393 153.595 375.17 153.93 374.758 154.061C374.528 154.625 374.299 155.19 374.066 155.754C374.055 156.185 373.844 156.418 373.406 156.428V156.435Z" fill="#794720"/>
<path d="M376.779 151.359C377.057 151.341 377.329 151.285 377.534 151.08C378.43 150.188 379.326 149.292 380.218 148.396C380.423 148.187 380.479 147.919 380.497 147.641C380.215 147.655 379.947 147.715 379.742 147.919C378.846 148.812 377.95 149.708 377.057 150.604C376.853 150.809 376.793 151.08 376.779 151.359Z" fill="#7B4A24"/>
<path d="M372.725 158.129C373.014 158.115 373.286 158.051 373.48 157.822C373.695 157.565 373.688 157.321 373.395 157.12C372.944 157.307 372.715 157.635 372.725 158.129Z" fill="#7B4A24"/>
<path d="M371.367 162.189C371.783 162.055 372.005 161.716 372.034 161.173C371.614 161.31 371.392 161.649 371.367 162.189Z" fill="#7B4A24"/>
<path d="M374.757 154.064C375.17 153.934 375.392 153.599 375.42 153.062C374.976 153.249 374.75 153.581 374.757 154.064Z" fill="#7B4A24"/>
<path d="M382.186 146.618C382.624 146.607 382.853 146.388 382.867 145.947C382.426 145.954 382.204 146.18 382.186 146.618Z" fill="#7B4A24"/>
<path d="M384.561 145.266C384.995 145.256 385.224 145.037 385.242 144.6C384.801 144.6 384.578 144.832 384.561 145.266Z" fill="#7B4A24"/>
<path d="M376.437 189.957C376.426 189.523 376.207 189.293 375.77 189.279C375.773 189.72 376.003 189.939 376.437 189.957Z" fill="#7B4A24"/>
<path d="M372.048 159.819C372.489 159.808 372.704 159.576 372.711 159.142C372.278 159.159 372.048 159.378 372.048 159.819Z" fill="#7B4A24"/>
<path d="M378.469 194.02C378.462 193.583 378.243 193.353 377.802 193.343C377.802 193.784 378.035 194.006 378.469 194.02Z" fill="#7B4A24"/>
<path d="M377.792 192.665C377.784 192.228 377.566 191.998 377.125 191.984C377.128 192.425 377.358 192.644 377.792 192.665Z" fill="#7B4A24"/>
<path d="M373.406 156.436C373.844 156.425 374.055 156.192 374.066 155.762C373.632 155.779 373.403 155.991 373.406 156.436Z" fill="#7B4A24"/>
<path d="M377.114 191.311C377.104 190.877 376.885 190.644 376.448 190.634C376.451 191.075 376.68 191.293 377.114 191.311Z" fill="#7B4A24"/>
<path d="M258.308 203.88C258.308 203.88 237.664 194.581 217.636 207.535C197.609 220.489 199.355 245.138 199.355 245.138C199.355 245.138 206.132 293.08 214.916 318.262C223.701 343.443 222.646 344.202 222.646 344.202C222.646 344.202 180.066 340.945 162.472 345.013C144.879 349.081 114.107 356.637 114.107 356.637V383.872H231.875C231.875 383.872 262.722 384.122 264.923 351.772L255.232 260.995L258.308 203.88Z" fill="#6A6D66"/>
<path d="M416.16 153.003L410.441 162.482C410.441 162.482 410.194 164.229 406.43 164.998C402.666 165.767 393.099 171.175 393.099 171.175C393.099 171.175 392.449 171.637 392.64 175.062C392.943 180.446 393.995 185.61 393.995 185.61L391.416 187.343C388.837 189.075 379.372 195.312 379.372 195.312C379.372 195.312 372.849 187.029 371.364 181.546C369.879 176.064 368.274 162.782 373.731 154.52C379.492 145.796 388.477 139.982 402.363 142.878C402.363 142.878 415.017 146.621 416.156 153.003H416.16Z" fill="#7B4A24"/>
<path d="M326.55 257.195L328.695 223.138C328.681 222.764 328.67 222.39 328.673 222.012C328.705 218.015 328.987 214.04 329.361 210.067C329.658 209.704 330.046 209.485 330.494 209.401C331.101 209.284 331.669 209.065 332.251 208.868C333.302 208.512 334.371 208.194 335.454 207.954C336.449 207.735 337.373 207.39 338.237 206.861C338.572 206.843 338.918 206.871 339.243 206.797C341.864 206.201 344.457 205.46 347.103 205.026C348.701 204.762 350.221 204.176 351.872 204.081C353.015 204.014 354.172 203.619 355.301 203.329C356.878 202.924 358.483 202.662 360.06 202.303C361.799 201.908 363.542 201.474 365.295 201.117C367.543 200.659 369.758 200.041 371.988 199.495C372.259 199.428 372.534 199.371 372.732 199.142C373.176 199.11 373.625 199.078 374.069 199.043C374.365 199.064 374.658 199.085 374.954 199.106C375.395 199.463 375.72 199.918 376.045 200.38C378.401 203.724 380.789 207.051 383.128 210.413C385.146 213.313 387.185 216.206 388.808 219.359C388.544 220.393 388.29 221.427 388.014 222.453C387.415 224.69 386.272 226.704 385.404 228.832C384.603 230.8 383.629 232.705 382.737 234.638C381.848 236.568 380.952 238.498 380.077 240.434C379.456 241.814 378.86 243.204 378.264 244.59C378.115 244.936 377.759 245.751 377.572 246.164C377.487 244.498 377.487 241.828 377.392 240.198C377.251 237.782 376.979 235.376 376.842 232.959C376.687 230.204 376.651 227.442 376.489 224.69C376.383 222.887 376.027 221.138 374.923 219.61C373.819 218.082 372.549 216.76 370.862 215.867C369.758 215.285 368.594 214.883 367.416 214.491C364.618 213.56 361.771 213.493 358.914 214.054C356.102 214.604 353.876 216.259 351.844 218.157C349.583 220.27 348.133 222.937 346.93 225.759C346.284 227.272 345.794 228.846 345.66 230.465C345.452 232.987 345.169 235.513 345.311 238.057C345.395 239.574 345.48 241.091 345.505 242.611C345.586 248.016 345.416 253.431 345.96 258.825C346.048 259.721 346.034 260.628 346.129 261.52C346.189 262.077 346.037 262.511 345.653 262.892C345.212 262.416 344.626 262.18 344.019 262.074C342.788 261.862 341.684 261.298 340.541 260.857C339.183 260.335 337.906 259.552 336.516 259.163C334.985 258.737 333.425 258.394 331.859 258.08L326.55 257.195Z" fill="#8A8AD9"/>
</svg>
