<svg width="497" height="497" viewBox="0 0 497 497" fill="none" xmlns="http://www.w3.org/2000/svg">
<path d="M352.966 337.392C346.106 335.042 335.646 335.154 335.533 332.245C334.633 308.974 332.721 274.066 332.721 274.066C334.408 250.907 346.556 217.342 344.643 208.615C342.731 200 324.848 201.791 324.511 210.629C323.386 221.034 322.036 225.957 320.912 236.698C319.225 250.012 317.2 266.794 318.325 274.514C318.437 275.521 325.973 327.098 325.973 327.098C325.973 327.098 326.198 333.476 327.098 336.944C328.11 340.86 330.697 339.965 338.57 340.86C344.419 341.643 357.803 338.958 352.966 337.392Z" fill="#ECAD83"/>
<path d="M234.549 211C234.549 211 225.286 213.707 219.036 218.107C206.202 227.245 208.099 239.09 208.099 239.09C208.099 239.09 223.165 271.354 229.75 266.503C237.674 260.524 245.375 255.673 250.174 250.71C250.174 250.71 250.285 248.679 251.736 248.228C253.522 247.551 256.87 247.1 258.098 246.31C262.227 243.377 250.843 222.055 250.843 222.055L234.549 211Z" fill="#3D3C3C"/>
<path d="M323.503 241.457C335.683 240.681 338.253 240.127 349.092 227.822C350.433 226.27 351.886 216.625 350.322 212.523C348.646 207.978 345.74 204.098 340.823 201.549C331.325 196.782 308.417 204.542 292.773 204.542C280.816 205.096 252.768 209.309 235 211.193C235 211.193 243.269 220.727 247.851 231.258C251.538 239.683 255.003 247 255.003 247C255.896 246.889 299.142 241.79 312.328 240.57C312.328 240.681 319.592 241.679 323.503 241.457Z" fill="#FF8AA0"/>
<path d="M342 340.039C337.299 337.119 324.317 335.659 324.541 332.739C326.22 309.379 332.935 274.338 332.935 274.338C334.613 251.09 346.7 217.397 344.797 208.637C342.895 199.989 325.101 201.786 324.765 210.658C323.646 221.103 322.303 226.045 321.184 236.827C319.505 250.191 317.491 267.038 318.61 274.787C318.722 275.798 315.252 333.975 316.148 337.456C317.155 341.387 319.729 340.489 327.563 341.387C333.27 342.173 346.252 342.622 342 340.039Z" fill="#F6BB92"/>
<path d="M353.778 215.621C353.778 215.621 357.667 212.935 365 209.018L360.111 191C354.889 198.722 345 202.751 345 202.751C353.222 211.928 350.333 218.195 351.333 222L353.778 215.621Z" fill="#ECAD83"/>
<path d="M384.092 184.991C388.906 179.69 386.667 173.6 384.988 170.103C379.725 159.389 373.119 157.697 364.61 157.02C353.302 156.118 346.472 185.781 347.032 190.969C348.487 204.391 366.178 211.045 373.567 211.835C381.629 212.737 379.837 209.805 379.949 206.421C379.949 206.308 380.397 205.857 380.397 205.857C380.509 204.729 380.509 203.15 381.405 201.797C381.405 201.797 381.181 200.782 381.181 200.218C381.181 199.879 381.181 199.654 381.629 199.541C382.86 199.203 383.98 198.977 384.54 198.526C386.219 197.06 381.853 187.473 384.092 184.991Z" fill="#F6BB92"/>
<path d="M376 203.062C376 203.062 376.872 203.648 380.984 204C381.482 203.766 382.479 203.414 381.731 202.242C381.233 201.421 378.866 202.945 376 203.062Z" fill="#D6876B"/>
<path d="M376 203C376 203 376.549 204.889 379.845 206C380.285 206 380.724 205.667 380.834 205.444C381.383 204.333 380.394 203.889 380.394 203.889C376.659 203.556 376 203 376 203Z" fill="#CC785E"/>
<path d="M363.492 156.048C349.602 154.946 329.551 173.017 346.466 197.7C347.586 199.353 350.274 201.447 354.867 198.582C358.116 196.598 360.468 193.733 360.468 193.733C361.14 192.852 361.924 191.97 362.708 190.979C363.604 189.877 363.268 183.045 364.613 182.935C378.391 181.943 384.776 175.331 385 171.805C384.216 163.1 378.279 157.26 363.492 156.048Z" fill="#602F0F"/>
<path d="M358.435 190.057C359.97 196.431 362.492 197 366 197L364.794 187.098L363.259 183C359.641 183 356.9 183.569 358.435 190.057Z" fill="#F6BB92"/>
<path d="M340.395 174.854C337.339 171.833 339.49 165.232 345.036 160.197C350.582 155.162 357.599 153.484 360.655 156.505C363.711 159.526 361.334 164.449 355.788 169.484C350.242 174.519 343.338 177.875 340.395 174.854Z" fill="#4C230C"/>
<path d="M366.047 184.475C365.935 183.355 366.047 182.346 366.159 181.562C366.271 180.442 366.495 179.657 366.495 179.657L362.349 180.778C362.237 181.338 362.237 182.01 362.237 182.571C362.237 182.571 362.685 182.458 363.47 182.234H363.358C363.806 183.131 364.366 184.587 364.926 186.716C364.814 186.828 366.271 188.061 366.047 184.475Z" fill="#602F0F"/>
<path d="M338.034 174.167C334.897 170.917 337.25 163.858 343.3 158.368C349.351 152.877 356.858 150.972 359.996 154.11C363.133 157.359 360.556 162.626 354.505 168.116C348.343 173.718 341.172 177.416 338.034 174.167Z" fill="#602F0F"/>
<path d="M341.057 161.922C340.713 161.602 341.974 160.003 343.81 158.403C345.76 156.803 347.48 155.737 347.939 156.057C348.283 156.377 347.136 157.656 345.301 159.256C343.351 160.962 341.401 162.349 341.057 161.922Z" fill="#4C230C"/>
<path d="M110.012 342.825C110.46 338.258 129.921 337.144 132.941 335.25C134.395 334.358 135.625 331.685 139.428 331.016C144.461 330.125 147.928 333.69 149.717 333.244C158.777 331.128 178.574 328.12 189.646 325.669C192.219 325.112 194.791 324.555 197.476 324.109C208.436 322.215 205.305 345.611 201.278 345.945C185.173 347.059 151.731 344.831 145.915 344.608C145.915 344.608 128.243 346.836 123.993 346.947C121.532 347.059 109.565 347.393 110.012 342.825Z" fill="#F6BB92"/>
<path d="M237.666 321.143C224.741 321.256 208.919 322.267 198 324.177C199.894 327.66 202.345 342.603 201.788 346.086C205.8 345.861 259.171 350.355 267.305 341.255C275.884 331.929 249.031 252.271 250.591 249.237C250.591 249.237 240.452 213.958 231.538 216.093C224.964 219.239 218.947 213.284 210.479 227.778C197.889 249.462 237.666 321.143 237.666 321.143Z" fill="#3D3C3C"/>
</svg>
