<svg width="497" height="497" viewBox="0 0 497 497" fill="none" xmlns="http://www.w3.org/2000/svg">
<path d="M360.507 389.746C350.597 386.324 335.488 386.487 335.326 382.25C334.026 348.355 331.264 297.512 331.264 297.512C333.701 263.779 351.247 214.892 348.485 202.181C345.723 189.633 319.892 192.24 319.405 205.114C317.78 220.269 315.83 227.439 314.206 243.083C311.769 262.476 308.845 286.919 310.469 298.163C310.632 299.63 321.517 374.754 321.517 374.754C321.517 374.754 321.841 384.043 323.141 389.094C324.603 394.798 328.34 393.494 339.712 394.798C348.16 395.939 367.493 392.028 360.507 389.746Z" fill="#ECAD83"/>
<path d="M188.522 206.002C188.522 206.002 175.082 209.918 166.013 216.282C147.39 229.499 150.143 246.632 150.143 246.632C150.143 246.632 172.005 293.3 181.559 286.283C193.056 277.635 204.23 270.619 211.193 263.439C211.193 263.439 211.355 260.502 213.46 259.849C216.051 258.87 220.909 258.217 222.691 257.075C228.682 252.833 212.165 221.993 212.165 221.993L188.522 206.002Z" fill="#3D3C3C"/>
<path d="M317.939 249.982C335.685 248.86 339.429 248.058 355.221 230.255C357.175 228.009 359.291 214.055 357.012 208.121C354.57 201.545 350.337 195.931 343.174 192.242C329.335 185.346 295.961 196.573 273.169 196.573C255.749 197.375 214.886 203.47 189 206.196C189 206.196 201.047 219.99 207.722 235.227C213.095 247.416 218.142 258.002 218.142 258.002C219.444 257.842 282.448 250.464 301.659 248.699C301.659 248.86 312.241 250.303 317.939 249.982Z" fill="#FF8AA0"/>
<path d="M344.655 394.139C337.847 389.874 319.046 387.742 319.37 383.477C321.801 349.361 331.526 298.186 331.526 298.186C333.957 264.234 351.462 215.028 348.707 202.234C345.951 189.605 320.181 192.229 319.694 205.187C318.073 220.44 316.128 227.657 314.508 243.403C312.076 262.922 309.159 287.525 310.78 298.842C310.942 300.319 305.917 385.281 307.214 390.366C308.673 396.107 312.401 394.795 323.746 396.107C332.012 397.255 350.814 397.911 344.655 394.139Z" fill="#F6BB92"/>
<path d="M361.728 212.742C361.728 212.742 367.367 208.843 378 203.157L370.911 177.002C363.339 188.211 349 194.06 349 194.06C360.922 207.381 356.733 216.478 358.183 222.002L361.728 212.742Z" fill="#ECAD83"/>
<path d="M405.783 167.717C412.764 160.006 409.517 151.147 407.082 146.062C399.452 130.476 389.873 128.016 377.535 127.031C361.138 125.719 351.235 168.865 352.046 176.412C354.157 195.934 379.808 205.613 390.523 206.762C402.212 208.074 399.614 203.809 399.776 198.887C399.776 198.723 400.426 198.067 400.426 198.067C400.588 196.426 400.588 194.129 401.887 192.161C401.887 192.161 401.562 190.684 401.562 189.864C401.562 189.372 401.562 189.044 402.212 188.88C403.997 188.388 405.621 188.059 406.433 187.403C408.868 185.271 402.536 171.326 405.783 167.717Z" fill="#F6BB92"/>
<path d="M394 194.595C394 194.595 395.308 195.474 401.475 196.002C402.223 195.65 403.718 195.123 402.597 193.364C401.849 192.133 398.298 194.419 394 194.595Z" fill="#D6876B"/>
<path d="M394 194.002C394 194.002 394.879 197.15 400.152 199.002C400.855 199.002 401.558 198.446 401.734 198.076C402.613 196.224 401.031 195.483 401.031 195.483C395.055 194.928 394 194.002 394 194.002Z" fill="#CC785E"/>
<path d="M375.934 126.071C355.87 124.469 326.907 150.754 351.339 186.657C352.957 189.061 356.841 192.106 363.475 187.939C368.167 185.054 371.565 180.887 371.565 180.887C372.536 179.605 373.668 178.322 374.801 176.88C376.095 175.277 375.61 165.34 377.552 165.18C397.454 163.737 406.676 154.12 407 148.991C405.867 136.329 397.292 127.835 375.934 126.071Z" fill="#602F0F"/>
<path d="M368.653 175.083C370.955 184.189 374.738 185.002 380 185.002L378.191 170.856L375.889 165.002C370.462 165.002 366.351 165.815 368.653 175.083Z" fill="#F6BB92"/>
<path d="M342.062 153.311C337.545 148.851 340.724 139.106 348.922 131.674C357.121 124.241 367.495 121.763 372.012 126.223C376.53 130.683 373.016 137.95 364.818 145.383C356.619 152.815 346.412 157.77 342.062 153.311Z" fill="#4C230C"/>
<path d="M379.741 167.24C379.578 165.607 379.741 164.138 379.905 162.996C380.068 161.363 380.394 160.221 380.394 160.221L374.355 161.853C374.191 162.669 374.191 163.649 374.191 164.465C374.191 164.465 374.844 164.301 375.987 163.975H375.824C376.477 165.281 377.293 167.403 378.109 170.504C377.946 170.668 380.068 172.463 379.741 167.24Z" fill="#602F0F"/>
<path d="M338.933 152.223C334.362 147.489 337.79 137.205 346.604 129.207C355.419 121.209 366.355 118.434 370.926 123.004C375.496 127.738 371.742 135.41 362.928 143.408C353.95 151.57 343.503 156.956 338.933 152.223Z" fill="#602F0F"/>
<path d="M343.081 133.898C342.589 133.472 344.392 131.339 347.014 129.206C349.8 127.073 352.258 125.651 352.913 126.078C353.405 126.504 351.766 128.21 349.144 130.343C346.358 132.618 343.573 134.467 343.081 133.898Z" fill="#4C230C"/>
<path d="M7.01776 397.831C7.66764 391.079 35.9375 389.432 40.3242 386.632C42.4363 385.314 44.2235 381.362 49.7475 380.374C57.0587 379.056 62.0953 384.326 64.6948 383.668C77.8549 380.539 106.612 376.092 122.697 372.469C126.434 371.645 130.17 370.822 134.07 370.163C149.992 367.363 145.443 401.948 139.594 402.442C116.198 404.089 67.6193 400.795 59.1708 400.466C59.1708 400.466 33.5005 403.76 27.3266 403.924C23.7522 404.089 6.36787 404.583 7.01776 397.831Z" fill="#F6BB92"/>
<path d="M192.544 366.303C173.794 366.467 150.841 367.941 135 370.726C137.748 375.804 141.304 397.591 140.496 402.669C146.315 402.342 223.741 408.894 235.54 395.625C247.987 382.029 209.031 265.885 211.294 261.463C211.294 261.463 196.585 210.025 183.654 213.138C174.117 217.724 165.388 209.042 153.104 230.174C134.838 261.79 192.544 366.303 192.544 366.303Z" fill="#3D3C3C"/>
</svg>
