<svg width="501" height="501" viewBox="0 0 501 501" fill="none" xmlns="http://www.w3.org/2000/svg">
<path d="M158.921 429.764C166.192 431.985 171.443 400.074 176.088 391.39L174.271 378.868C198.305 313.027 202.142 279.097 202.142 279.097C218.299 240.319 238.294 165.188 240.112 149.232C241.929 133.277 210.423 126.208 204.768 141.154C199.112 156.099 195.881 170.035 191.438 185.384C186.994 200.734 179.926 257.688 177.502 271.422C177.098 273.24 157.911 373.819 157.911 373.819C157.911 373.819 156.7 377.656 152.458 383.513C146.803 391.39 143.572 405.124 144.784 413.404C145.793 420.675 151.65 427.744 158.921 429.764Z" fill="#ECAD83"/>
<path d="M170.232 399.872C170.232 399.872 166.596 409.365 171.443 411.788C175.483 413.808 177.098 414.212 176.089 391.39C176.089 391.39 173.059 390.986 170.232 399.872Z" fill="#ECAD83"/>
<path d="M79.023 422.379C79.8283 414.038 114.858 412.003 120.294 408.545C122.911 406.917 125.126 402.035 131.971 400.814C141.03 399.187 147.271 405.697 150.492 404.883C166.799 401.018 202.433 395.525 222.364 391.049C226.995 390.032 231.625 389.015 236.457 388.201C256.187 384.743 250.549 427.465 243.302 428.075C214.312 430.109 154.116 426.041 143.647 425.634C143.647 425.634 111.838 429.702 104.188 429.906C99.7592 430.109 78.2177 430.72 79.023 422.379Z" fill="#D89D75"/>
<path d="M309.938 382.719C286.498 382.92 257.804 384.733 238.001 388.157C241.436 394.402 245.882 421.192 244.871 427.437C252.146 427.034 339.239 434.89 353.99 418.775C369.55 402.056 407.943 268.103 408.751 261.858C411.58 238.693 389.757 197.601 373.591 201.227C373.591 201.227 349.342 217.14 340.451 242.319C324.892 287.239 309.938 382.719 309.938 382.719Z" fill="#333333"/>
<path d="M403.668 198.014C403.668 198.014 338.985 196.998 334.336 213.865C333.729 215.897 331.708 219.555 331.101 220.774C316.143 250.038 333.527 267.921 332.516 274.627C331.506 281.537 402.253 291.901 406.093 278.489C413.37 252.273 413.572 245.567 412.562 226.464C411.753 215.694 403.668 198.014 403.668 198.014Z" fill="#3D3C3C"/>
<path d="M79.023 429.742C79.8283 421.798 114.858 419.86 120.294 416.567C122.911 415.017 125.126 410.367 131.971 409.204C141.03 407.654 147.271 413.854 150.492 413.079C166.799 409.398 202.433 404.167 222.364 399.904C226.995 398.935 231.625 397.967 236.457 397.192C256.187 393.898 250.549 434.585 243.302 435.167C214.312 437.104 154.116 433.229 143.647 432.842C143.647 432.842 111.838 436.717 104.188 436.91C99.7592 437.104 78.2177 437.686 79.023 429.742Z" fill="#ECAD83"/>
<path d="M309.938 390.719C286.498 390.92 257.804 392.733 238.001 396.157C241.436 402.402 245.882 429.192 244.871 435.437C252.146 435.034 339.239 442.89 353.99 426.775C369.55 410.056 407.943 276.103 408.751 269.858C411.58 246.693 389.757 205.601 373.591 209.227C373.591 209.227 349.342 225.14 340.451 250.319C324.892 295.239 309.938 390.719 309.938 390.719Z" fill="#3D3C3C"/>
<path d="M249.662 102.433C224.889 99.9862 218.797 108.143 192.197 122.01C188.948 123.846 180.014 139.344 180.014 147.502C179.81 156.474 182.044 165.039 188.745 172.585C201.741 187.268 257.581 173.604 284.182 184.005C302.863 189.103 339.007 205.417 335.352 215.002L405.001 199.096C350.176 111.406 293.116 115.281 268.14 111.814C268.14 111.202 256.769 103.045 249.662 102.433Z" fill="#FF8AA0"/>
<path d="M177.257 142.002C177.257 142.002 169.309 145.002 155.001 148.802L156.193 182.002C168.514 170.802 186.001 168.202 186.001 168.202C175.469 148.802 184.61 139.002 184.411 132.002L177.257 142.002Z" fill="#ECAD83"/>
<path d="M114.635 192.044C106.417 202.118 110.937 212.595 114.43 218.64C125.113 237.378 137.235 239.594 153.055 239.997C174.011 240.601 183.462 186.806 181.819 177.739C177.709 153.964 144.837 143.89 131.071 143.084C116.073 142.278 119.771 147.517 119.977 153.36C119.977 153.561 119.155 154.367 119.155 154.367C118.95 156.382 119.155 159.203 117.717 161.822C117.717 161.822 118.128 163.635 118.333 164.643C118.333 165.247 118.333 165.65 117.511 165.852C115.251 166.658 113.197 167.262 112.375 168.068C109.704 170.687 118.539 187.41 114.635 192.044Z" fill="#F6BB92"/>
<path d="M127.001 158.387C127.001 158.387 125.535 157.464 118.621 157.002C117.783 157.464 116.317 158.387 117.364 160.464C118.412 162.31 121.973 158.848 127.001 158.387Z" fill="#D6876B"/>
<path d="M127.001 158.002C127.001 158.002 125.725 155.282 119.133 154.002C118.282 154.002 117.432 154.642 117.219 154.962C116.368 156.562 118.282 157.202 118.282 157.202C125.512 157.362 127.001 158.002 127.001 158.002Z" fill="#CC785E"/>
<path d="M154.097 242.994C179.081 243.602 213.334 208.555 180.492 164.798C178.275 161.962 173.238 158.315 165.179 163.988C159.537 168.039 155.709 173.306 155.709 173.306C154.5 174.927 153.291 176.75 152.082 178.573C150.672 180.599 151.881 193.159 149.463 193.362C124.881 196.603 114.001 209.366 114.001 215.848C116.419 231.852 127.501 242.184 154.097 242.994Z" fill="#602F0F"/>
<path d="M159.883 181.352C156.417 170.283 151.728 169.69 145.001 170.085L148.263 187.084L151.525 194.002C158.252 193.607 163.349 192.223 159.883 181.352Z" fill="#F6BB92"/>
<path d="M194.219 206.838C199.751 212.063 196.788 223.921 187.501 233.569C178.215 243.216 166.163 246.833 160.63 241.608C155.098 236.382 158.654 227.539 167.941 217.892C177.227 208.245 188.687 201.612 194.219 206.838Z" fill="#4C230C"/>
<path d="M147.205 191.241C147.406 193.261 147.406 195.079 147.406 196.492C147.205 198.512 147.003 199.926 147.003 199.926L154.273 197.502C154.273 196.492 154.273 195.281 154.475 194.271C154.475 194.271 153.667 194.473 152.254 194.877H152.456C151.446 193.261 150.234 190.635 149.224 187C149.022 187 146.195 184.98 147.205 191.241Z" fill="#602F0F"/>
<path d="M198.707 206.996C204.766 212.449 201.13 225.375 190.83 235.877C180.53 246.38 167.2 250.621 161.141 245.168C155.082 239.715 159.323 230.02 169.623 219.316C179.924 208.814 192.648 201.543 198.707 206.996Z" fill="#602F0F"/>
<path d="M193.898 229.085C194.476 229.696 192.55 232.752 189.661 236.012C186.579 239.271 183.69 241.513 183.112 240.901C182.534 240.29 184.267 237.845 187.157 234.586C190.239 231.326 193.321 228.474 193.898 229.085Z" fill="#4C230C"/>
<path d="M139.328 438.649C146.397 441.274 153.668 409.768 158.919 401.487L157.909 388.965C186.184 324.74 192.849 292.223 192.849 292.223C211.43 254.658 235.666 179.93 238.494 164.177C241.321 148.423 210.42 139.133 203.755 153.876C197.091 168.418 192.849 182.152 187.598 197.097C182.145 212.043 172.047 269.401 168.613 282.933C168.209 284.751 141.954 382.704 141.954 382.704C141.954 382.704 140.54 386.542 135.895 391.995C129.634 399.669 125.594 412.999 126.402 421.28C126.806 428.752 132.259 436.225 139.328 438.649Z" fill="#F6BB92"/>
<path d="M152.659 409.566C152.659 409.566 148.417 418.857 153.062 421.482C156.9 423.704 158.516 424.108 158.919 401.488C158.919 401.488 155.89 400.882 152.659 409.566Z" fill="#F6BB92"/>
</svg>
