<svg width="500" height="500" viewBox="0 0 500 500" fill="none" xmlns="http://www.w3.org/2000/svg">
<path d="M187.731 363.549C192.918 365.134 196.664 342.368 199.978 336.172L198.682 327.239C215.828 280.266 218.566 256.059 218.566 256.059C230.093 228.394 244.358 174.793 245.654 163.41C246.951 152.027 224.473 146.984 220.439 157.646C216.404 168.309 214.099 178.251 210.929 189.202C207.759 200.152 202.716 240.785 200.987 250.583C200.699 251.88 187.01 323.636 187.01 323.636C187.01 323.636 186.146 326.374 183.12 330.553C179.085 336.172 176.78 345.97 177.645 351.878C178.365 357.065 182.544 362.108 187.731 363.549Z" fill="#ECAD83"/>
<path d="M195.8 342.224C195.8 342.224 193.206 348.996 196.664 350.725C199.546 352.166 200.699 352.454 199.978 336.172C199.978 336.172 197.817 335.884 195.8 342.224Z" fill="#ECAD83"/>
<path d="M131.016 358.555C131.59 352.597 156.582 351.144 160.461 348.674C162.328 347.511 163.908 344.024 168.791 343.152C175.255 341.989 179.707 346.639 182.006 346.058C193.64 343.297 219.063 339.374 233.283 336.177C236.586 335.45 239.89 334.724 243.337 334.142C257.413 331.672 253.391 362.188 248.221 362.624C227.537 364.077 184.591 361.17 177.122 360.88C177.122 360.88 154.428 363.786 148.97 363.931C145.81 364.077 130.441 364.513 131.016 358.555Z" fill="#D89D75"/>
<path d="M295.324 329.911C278.6 330.055 258.128 331.352 244 333.8C246.451 338.264 249.623 357.417 248.902 361.881C254.092 361.593 316.228 367.209 326.752 355.689C337.853 343.736 365.245 247.971 365.822 243.507C367.84 226.946 352.27 197.569 340.737 200.161C340.737 200.161 323.437 211.537 317.093 229.538C305.992 261.652 295.324 329.911 295.324 329.911Z" fill="#333333"/>
<path d="M362.318 198.008C362.318 198.008 316.011 197.284 312.683 209.305C312.249 210.753 310.801 213.36 310.367 214.229C299.659 235.083 312.104 247.828 311.38 252.607C310.657 257.531 361.305 264.917 364.055 255.358C369.264 236.676 369.409 231.897 368.685 218.284C368.107 210.608 362.318 198.008 362.318 198.008Z" fill="#3D3C3C"/>
<path d="M131.016 363.736C131.59 357.977 156.582 356.572 160.461 354.184C162.328 353.061 163.908 349.689 168.791 348.847C175.255 347.723 179.707 352.218 182.006 351.656C193.64 348.987 219.063 345.194 233.283 342.104C236.586 341.402 239.89 340.699 243.337 340.138C257.413 337.75 253.391 367.248 248.221 367.669C227.537 369.074 184.591 366.265 177.122 365.984C177.122 365.984 154.428 368.793 148.97 368.934C145.81 369.074 130.441 369.496 131.016 363.736Z" fill="#ECAD83"/>
<path d="M295.324 335.911C278.6 336.055 258.128 337.352 244 339.8C246.451 344.264 249.623 363.417 248.902 367.881C254.092 367.593 316.228 373.209 326.752 361.689C337.853 349.736 365.245 253.971 365.822 249.507C367.84 232.946 352.27 203.569 340.737 206.161C340.737 206.161 323.437 217.537 317.093 235.538C305.992 267.652 295.324 335.911 295.324 335.911Z" fill="#3D3C3C"/>
<path d="M252.537 130.305C234.921 128.573 230.589 134.348 211.673 144.165C209.362 145.465 203.009 156.437 203.009 162.212C202.865 168.565 204.453 174.628 209.218 179.97C218.459 190.365 258.168 180.692 277.084 188.055C290.369 191.664 316.071 203.214 313.472 210L363 198.739C324.013 136.658 283.438 139.401 265.677 136.947C265.677 136.514 257.591 130.739 252.537 130.305Z" fill="#FF8AA0"/>
<path d="M200.795 158.2C200.795 158.2 195.154 160.36 185 163.096L185.846 187C194.59 178.936 207 177.064 207 177.064C199.526 163.096 206.013 156.04 205.872 151L200.795 158.2Z" fill="#ECAD83"/>
<path d="M156.282 193.886C150.461 201.052 153.663 208.505 156.137 212.804C163.704 226.133 172.291 227.71 183.497 227.996C198.341 228.426 205.035 190.159 203.871 183.71C200.96 166.798 177.675 159.632 167.925 159.059C157.301 158.485 159.921 162.212 160.066 166.368C160.066 166.511 159.484 167.085 159.484 167.085C159.339 168.518 159.484 170.524 158.465 172.387C158.465 172.387 158.756 173.677 158.902 174.394C158.902 174.824 158.902 175.111 158.32 175.254C156.719 175.827 155.264 176.257 154.682 176.83C152.79 178.694 159.047 190.589 156.282 193.886Z" fill="#F6BB92"/>
<path d="M165 170.039C165 170.039 163.973 169.346 159.134 169C158.548 169.346 157.521 170.039 158.254 171.597C158.988 172.981 161.481 170.385 165 170.039Z" fill="#D6876B"/>
<path d="M165 170C165 170 164.107 167.96 159.492 167C158.897 167 158.301 167.48 158.153 167.72C157.557 168.92 158.897 169.4 158.897 169.4C163.958 169.52 165 170 165 170Z" fill="#CC785E"/>
<path d="M184.568 229.994C202.37 230.424 226.775 205.635 203.375 174.685C201.796 172.679 198.207 170.1 192.464 174.112C188.444 176.978 185.717 180.703 185.717 180.703C184.855 181.849 183.994 183.139 183.133 184.429C182.128 185.862 182.989 194.745 181.266 194.889C163.752 197.181 156 206.209 156 210.794C157.723 222.114 165.619 229.421 184.568 229.994Z" fill="#602F0F"/>
<path d="M188.231 186.04C185.849 178.199 182.625 177.779 178 178.059L180.242 190.1L182.485 195C187.11 194.72 190.614 193.74 188.231 186.04Z" fill="#F6BB92"/>
<path d="M213.003 204.318C216.975 208.07 214.847 216.583 208.18 223.509C201.513 230.436 192.86 233.033 188.888 229.281C184.916 225.529 187.469 219.18 194.136 212.254C200.803 205.328 209.031 200.566 213.003 204.318Z" fill="#4C230C"/>
<path d="M179.373 193.381C179.518 194.822 179.518 196.118 179.518 197.127C179.373 198.568 179.229 199.577 179.229 199.577L184.417 197.847C184.417 197.127 184.417 196.263 184.561 195.542C184.561 195.542 183.984 195.686 182.976 195.974H183.12C182.399 194.822 181.535 192.948 180.814 190.355C180.67 190.355 178.653 188.914 179.373 193.381Z" fill="#602F0F"/>
<path d="M216.116 204.62C220.439 208.51 217.845 217.732 210.497 225.224C203.148 232.717 193.638 235.743 189.316 231.852C184.993 227.962 188.019 221.046 195.367 213.409C202.716 205.916 211.794 200.729 216.116 204.62Z" fill="#602F0F"/>
<path d="M212.925 220.062C213.346 220.521 211.945 222.813 209.844 225.257C207.602 227.702 205.501 229.383 205.081 228.925C204.66 228.466 205.921 226.633 208.022 224.188C210.264 221.743 212.505 219.604 212.925 220.062Z" fill="#4C230C"/>
<path d="M173.754 369.89C178.797 371.763 183.984 349.285 187.731 343.377L187.01 334.444C207.183 288.624 211.938 265.425 211.938 265.425C225.194 238.625 242.484 185.312 244.502 174.073C246.519 162.834 224.473 156.206 219.718 166.725C214.963 177.099 211.938 186.897 208.191 197.56C204.301 208.222 197.096 249.143 194.647 258.797C194.359 260.094 175.627 329.977 175.627 329.977C175.627 329.977 174.619 332.715 171.305 336.605C166.838 342.081 163.956 351.59 164.532 357.498C164.821 362.829 168.711 368.161 173.754 369.89Z" fill="#F6BB92"/>
<path d="M183.264 349.141C183.264 349.141 180.238 355.769 183.552 357.642C186.29 359.227 187.443 359.516 187.731 343.378C187.731 343.378 185.569 342.945 183.264 349.141Z" fill="#F6BB92"/>
</svg>
