<svg width="501" height="501" viewBox="0 0 501 501" fill="none" xmlns="http://www.w3.org/2000/svg">
<path d="M173 403.998C179.095 405.86 183.497 379.109 187.392 371.828L185.868 361.331C206.016 306.135 209.233 277.691 209.233 277.691C222.778 245.183 239.54 182.199 241.064 168.823C242.587 155.448 216.175 149.522 211.434 162.051C206.693 174.58 203.984 186.263 200.259 199.13C196.535 211.998 190.609 259.744 188.577 271.257C188.238 272.781 172.154 357.098 172.154 357.098C172.154 357.098 171.138 360.315 167.582 365.225C162.841 371.828 160.132 383.342 161.148 390.283C161.995 396.379 166.905 402.304 173 403.998Z" fill="#ECAD83"/>
<path d="M182.482 378.939C182.482 378.939 179.434 386.896 183.498 388.928C186.884 390.621 188.238 390.96 187.392 371.828C187.392 371.828 184.852 371.489 182.482 378.939Z" fill="#ECAD83"/>
<path d="M106.02 397.807C106.695 390.815 136.062 389.109 140.619 386.21C142.813 384.845 144.669 380.752 150.407 379.729C158.002 378.365 163.234 383.822 165.934 383.14C179.605 379.9 209.478 375.295 226.186 371.543C230.068 370.69 233.95 369.837 238 369.155C254.54 366.256 249.814 402.071 243.738 402.582C219.435 404.288 168.972 400.877 160.196 400.536C160.196 400.536 133.53 403.947 127.117 404.117C123.404 404.288 105.345 404.799 106.02 397.807Z" fill="#D89D75"/>
<path d="M299.601 364.559C279.95 364.728 255.896 366.248 239.294 369.118C242.174 374.353 245.901 396.812 245.054 402.047C251.152 401.709 324.164 408.295 336.53 394.786C349.574 380.77 381.76 268.474 382.438 263.24C384.809 243.82 366.514 209.372 352.962 212.411C352.962 212.411 332.634 225.752 325.18 246.86C312.136 284.517 299.601 364.559 299.601 364.559Z" fill="#333333"/>
<path d="M378.176 209.718C378.176 209.718 323.951 208.866 320.053 223.006C319.545 224.71 317.85 227.776 317.342 228.798C304.803 253.331 319.376 268.323 318.528 273.945C317.681 279.737 376.989 288.425 380.209 277.181C386.309 255.205 386.479 249.583 385.632 233.569C384.954 224.539 378.176 209.718 378.176 209.718Z" fill="#3D3C3C"/>
<path d="M106.02 403.98C106.695 397.32 136.062 395.696 140.619 392.935C142.813 391.635 144.669 387.737 150.407 386.763C158.002 385.463 163.234 390.661 165.934 390.011C179.605 386.925 209.478 382.539 226.186 378.966C230.068 378.154 233.95 377.342 238 376.692C254.54 373.931 249.814 408.04 243.738 408.527C219.435 410.152 168.972 406.903 160.196 406.578C160.196 406.578 133.53 409.827 127.117 409.989C123.404 410.152 105.345 410.639 106.02 403.98Z" fill="#ECAD83"/>
<path d="M299.601 371.266C279.95 371.435 255.896 372.955 239.294 375.825C242.174 381.06 245.901 403.519 245.054 408.754C251.152 408.416 324.164 415.002 336.53 401.493C349.574 387.477 381.76 275.181 382.438 269.947C384.809 250.527 366.514 216.079 352.962 219.118C352.962 219.118 332.634 232.459 325.18 253.567C312.136 291.224 299.601 371.266 299.601 371.266Z" fill="#3D3C3C"/>
<path d="M249.07 129.591C228.302 127.54 223.196 134.378 200.896 146.003C198.172 147.542 190.682 160.534 190.682 167.373C190.512 174.895 192.385 182.075 198.002 188.4C208.897 200.709 255.709 189.255 278.009 197.974C293.669 202.248 323.97 215.924 320.906 223.959L379.293 210.625C333.332 137.113 285.499 140.361 264.561 137.455C264.561 136.942 255.028 130.104 249.07 129.591Z" fill="#FF8AA0"/>
<path d="M188.372 162.762C188.372 162.762 181.709 165.277 169.714 168.463L170.714 196.295C181.042 186.906 195.702 184.726 195.702 184.726C186.873 168.463 194.536 160.247 194.369 154.379L188.372 162.762Z" fill="#ECAD83"/>
<path d="M135.875 204.714C128.985 213.159 132.774 221.942 135.702 227.009C144.659 242.717 154.82 244.575 168.083 244.913C185.651 245.42 193.574 200.322 192.196 192.721C188.751 172.79 161.193 164.345 149.653 163.67C137.08 162.994 140.18 167.385 140.353 172.284C140.353 172.453 139.664 173.128 139.664 173.128C139.491 174.817 139.664 177.182 138.458 179.378C138.458 179.378 138.803 180.898 138.975 181.742C138.975 182.249 138.975 182.587 138.286 182.756C136.391 183.432 134.669 183.938 133.98 184.614C131.741 186.81 139.147 200.829 135.875 204.714Z" fill="#F6BB92"/>
<path d="M146.241 176.498C146.241 176.498 145.012 175.724 139.216 175.337C138.514 175.724 137.284 176.498 138.163 178.239C139.041 179.787 142.026 176.885 146.241 176.498Z" fill="#D6876B"/>
<path d="M146.241 176.176C146.241 176.176 145.171 173.895 139.645 172.822C138.932 172.822 138.219 173.359 138.041 173.627C137.328 174.968 138.932 175.505 138.932 175.505C144.993 175.639 146.241 176.176 146.241 176.176Z" fill="#CC785E"/>
<path d="M168.956 247.426C189.901 247.935 218.616 218.555 191.084 181.873C189.226 179.495 185.003 176.438 178.246 181.193C173.517 184.59 170.308 189.005 170.308 189.005C169.294 190.364 168.281 191.892 167.267 193.421C166.085 195.119 167.098 205.648 165.071 205.818C144.464 208.536 135.343 219.235 135.343 224.669C137.37 238.085 146.66 246.747 168.956 247.426Z" fill="#602F0F"/>
<path d="M173.807 195.75C170.902 186.471 166.971 185.974 161.331 186.305L164.065 200.555L166.8 206.355C172.44 206.024 176.712 204.864 173.807 195.75Z" fill="#F6BB92"/>
<path d="M202.591 217.115C207.229 221.496 204.745 231.437 196.96 239.524C189.175 247.611 179.071 250.644 174.433 246.264C169.795 241.883 172.777 234.469 180.562 226.382C188.347 218.295 197.953 212.734 202.591 217.115Z" fill="#4C230C"/>
<path d="M163.178 204.041C163.348 205.734 163.347 207.257 163.347 208.443C163.178 210.136 163.009 211.321 163.009 211.321L169.104 209.289C169.104 208.443 169.104 207.427 169.273 206.58C169.273 206.58 168.596 206.75 167.411 207.088H167.58C166.734 205.734 165.718 203.533 164.871 200.485C164.702 200.485 162.332 198.792 163.178 204.041Z" fill="#602F0F"/>
<path d="M206.353 217.247C211.433 221.819 208.385 232.655 199.75 241.459C191.115 250.263 179.941 253.819 174.861 249.247C169.782 244.676 173.337 236.549 181.972 227.575C190.607 218.771 201.274 212.676 206.353 217.247Z" fill="#602F0F"/>
<path d="M202.323 235.765C202.807 236.277 201.192 238.839 198.77 241.572C196.186 244.304 193.764 246.183 193.28 245.671C192.795 245.158 194.249 243.109 196.671 240.376C199.254 237.644 201.838 235.253 202.323 235.765Z" fill="#4C230C"/>
<path d="M156.575 411.447C162.501 413.648 168.596 387.236 172.998 380.294L172.152 369.797C195.856 315.956 201.443 288.696 201.443 288.696C217.02 257.204 237.337 194.559 239.707 181.353C242.078 168.146 216.173 160.358 210.586 172.718C204.998 184.908 201.443 196.421 197.041 208.95C192.469 221.48 184.004 269.564 181.125 280.908C180.787 282.432 158.776 364.548 158.776 364.548C158.776 364.548 157.591 367.765 153.697 372.336C148.448 378.77 145.062 389.945 145.739 396.887C146.078 403.151 150.649 409.416 156.575 411.447Z" fill="#F6BB92"/>
<path d="M167.75 387.067C167.75 387.067 164.195 394.856 168.089 397.057C171.306 398.919 172.66 399.258 172.999 380.295C172.999 380.295 170.459 379.787 167.75 387.067Z" fill="#F6BB92"/>
</svg>
