<svg width="500" height="500" viewBox="0 0 500 500" fill="none" xmlns="http://www.w3.org/2000/svg">
<path d="M221.426 372.152C227.529 371.623 233.632 371.27 239.735 370.565C258.715 368.448 277.695 370.036 296.675 370.388C304.577 370.529 312.479 370.882 320.382 370.882C327.579 370.882 333.964 368.307 339.644 363.897C340.385 363.333 340.773 362.556 341.302 361.851C348.428 351.867 352.132 340.366 355.731 328.866C363.245 304.841 366.244 280.182 365.15 255.063C364.515 240.458 361.904 226.241 356.542 212.624C355.978 211.177 356.013 209.554 355.025 208.249C347.864 208.884 340.737 210.154 333.823 211.847C325.25 213.964 317.242 217.845 309.022 221.02C308.81 221.725 308.634 222.466 308.387 223.172C304.542 234.531 304.118 245.997 307.505 257.533C309.481 264.271 312.515 270.621 315.055 277.148C315.972 279.441 316.678 281.699 316.536 284.239C316.078 292.211 315.796 300.149 315.443 308.122C315.125 315.354 314.808 322.551 314.561 329.783C314.526 331.37 314.032 331.759 312.479 331.441C309.481 330.806 306.376 330.806 303.342 330.63C288.631 329.642 274.238 332.005 260.091 335.745C249.543 338.532 239.206 341.989 228.905 345.482C224.989 346.822 221.038 348.022 217.263 349.821C217.263 350.068 217.228 350.315 217.228 350.562C217.969 351.867 217.651 353.314 217.898 354.689C218.674 360.616 220.297 366.331 221.426 372.152Z" fill="#696D66"/>
<path d="M217.157 350.597C217.157 350.35 217.192 350.103 217.192 349.856C216.557 349.221 216.734 348.445 216.804 347.739C218.004 337.121 221.143 327.031 225.624 317.365C229.857 308.228 233.667 298.879 235.784 289.001C237.442 281.204 239.488 273.514 242.275 266.07C244.85 259.261 245.768 252.135 247.249 245.15C248.978 236.965 250.495 228.71 251.941 220.455C252.541 217.068 254.164 213.893 253.987 210.365C253.741 208.778 254.234 207.261 254.129 205.638C254.058 204.545 254.27 202.992 255.504 202.146C255.751 200.523 255.998 198.9 256.245 197.277C255.892 197.171 255.575 196.995 255.646 196.607C256.281 192.585 257.868 188.846 259.244 185.071C259.526 184.33 260.161 184.154 260.902 184.224C261.784 184.33 261.572 185.036 261.713 185.6C262.348 187.823 262.595 190.222 264.218 192.056C268.769 188.81 270.674 179.956 265.065 174.558C263.442 173.006 261.749 171.524 260.091 170.042C254.023 164.468 246.72 162.704 238.783 163.163C233.314 163.481 229.293 166.515 226.047 170.748C224.177 173.182 222.484 175.828 222.378 179.003C222.308 182.108 222.343 185.247 221.99 188.352C222.519 189.128 222.696 189.833 221.778 190.433C221.743 190.821 221.708 191.245 221.673 191.633C222.025 192.762 222.378 193.891 221.426 194.914C221.179 198.583 220.685 202.251 220.826 205.92C221.426 206.979 221.32 207.967 220.72 208.99C220.72 211.777 220.72 214.564 220.755 217.351C220.755 217.915 221.002 218.55 220.438 219.009C220.367 220.914 220.297 222.783 220.261 224.689C220.297 225.535 220.332 226.382 220.367 227.229C219.697 232.591 220.191 237.953 219.944 243.315C219.697 248.29 220.649 253.335 219.027 258.168C215.075 269.915 212.183 281.981 209.219 294.01C207.526 300.89 205.55 307.628 203.046 314.19C201.176 319.058 198.565 323.609 196.625 328.442C195.143 332.111 192.533 335.216 191.686 339.131C190.381 345.27 189.216 351.444 188.017 357.582C189.534 357.617 190.169 358.393 190.169 359.91C190.204 361.533 190.381 363.156 190.592 364.744C191.192 368.977 192.956 370.494 196.59 369.788C197.613 369.612 198.6 369.506 199.624 369.471C205.691 369.118 210.031 366.472 211.936 360.404C212.747 357.829 213.805 355.289 214.758 352.749C215.217 351.549 215.675 350.491 217.157 350.597Z" fill="#F7BA92"/>
<path d="M220.932 205.85C220.791 202.146 221.285 198.512 221.532 194.843C221.355 193.714 221.038 192.585 221.779 191.562C221.814 191.174 221.849 190.751 221.884 190.363C221.708 189.657 221.567 188.916 222.096 188.281C222.449 185.177 222.378 182.037 222.484 178.933C222.59 175.758 224.248 173.112 226.153 170.677C229.399 166.479 233.42 163.41 238.889 163.093C246.826 162.669 254.093 164.433 260.197 169.972C261.855 171.489 263.548 172.935 265.171 174.488C270.78 179.885 268.875 188.74 264.324 191.986C263.372 193.22 262.102 194.032 260.832 194.949C259.42 195.972 257.515 195.937 256.281 197.277C256.034 198.9 255.787 200.523 255.54 202.146C255.293 204.686 254.87 207.226 255.222 209.801C256.598 209.836 257.974 209.872 259.35 209.907C261.502 209.448 263.654 209.307 265.771 210.048C268.946 210.119 272.121 210.224 275.296 210.295C277.307 209.801 279.317 209.731 281.293 210.436C283.516 210.542 285.738 210.613 287.961 210.718C288.243 210.33 288.455 210.401 288.666 210.754C289.76 210.86 290.854 210.93 291.912 211.036C295.052 199.994 298.262 188.952 301.331 177.91C303.06 171.701 305.035 165.527 306.376 159.212C304.824 157.766 303.06 156.531 301.155 155.649C294.381 152.439 288.031 148.452 281.505 144.748C272.72 139.774 263.513 139.033 253.882 141.785C245.556 144.148 238.642 148.77 232.186 154.344C225.624 159.988 220.508 166.903 214.617 173.112C214.017 173.747 213.594 174.558 213.1 175.264C212.783 176.146 212.43 177.028 212.112 177.945C208.69 187.858 209.396 197.348 214.899 206.379C216.663 207.543 218.427 208.708 220.614 208.919C220.579 207.861 220.297 206.803 220.932 205.85Z" fill="#8A8AD9"/>
<path d="M214.97 206.38C209.432 197.348 208.761 187.858 212.183 177.945C212.501 177.063 212.854 176.146 213.171 175.264C207.632 175.793 202.129 176.358 196.59 176.781C192.251 177.134 188.617 175.687 185.795 172.265C184.384 170.537 182.867 168.914 180.503 168.279C176.834 167.256 173.553 168.244 170.731 170.431C166.604 173.606 162.441 174.135 157.855 171.701C156.232 170.819 154.68 171.383 153.727 172.971C153.092 174.065 152.951 175.264 152.633 176.463C151.293 181.402 149.882 186.306 146.142 190.081C144.555 191.704 142.367 192.48 140.603 193.891C140.039 194.35 139.263 194.597 139.087 195.443C145.613 198.371 151.751 202.005 157.713 205.956C161.03 208.179 164.205 209.272 167.944 207.191C168.579 206.838 169.355 206.662 170.061 206.485C174.435 205.427 178.951 204.086 183.326 205.427C189.852 207.473 196.273 209.872 202.976 211.424C205.586 208.249 209.043 206.909 213.03 206.626C213.665 206.556 214.335 206.45 214.97 206.38Z" fill="#F5B992"/>
<path d="M306.447 159.212C305.071 165.527 303.131 171.665 301.402 177.909C298.333 188.987 295.122 199.994 291.983 211.036C295.193 212.271 298.333 213.752 301.19 215.657C303.836 217.421 306.376 219.256 308.987 221.055C317.207 217.88 325.215 213.999 333.787 211.882C340.737 210.154 347.828 208.919 354.99 208.284C353.861 205.462 351.638 203.38 349.874 201.017C345.394 194.914 340.526 189.128 335.022 183.942C326.908 176.287 319.747 167.643 310.327 161.434C309.093 160.588 307.964 159.565 306.447 159.212Z" fill="#F5BA91"/>
<path d="M202.94 211.388C196.237 209.836 189.816 207.437 183.29 205.391C178.915 204.015 174.4 205.356 170.025 206.449C169.284 206.626 168.544 206.802 167.909 207.155C164.169 209.272 160.994 208.143 157.678 205.92C151.751 201.969 145.577 198.335 139.051 195.407C133.724 204.156 133.124 213.188 137.64 222.43C140.003 227.264 143.567 231.003 148.294 233.649C150.34 234.813 152.316 236.118 154.362 237.318C157.854 239.329 161.947 238.658 165.615 239.823C166.145 239.188 166.85 239.364 167.521 239.399C171.719 239.682 175.493 238.341 179.233 236.718C181.808 235.589 184.489 234.672 187.135 233.649C189.217 232.026 191.263 230.439 193.45 228.957C195.143 227.793 196.237 225.711 197.542 223.983C199.624 221.302 201.282 218.338 202.517 215.163C203.011 213.928 203.469 212.694 202.94 211.388Z" fill="#804311"/>
<path d="M165.792 244.268C165.157 247.09 165.615 249.913 166.674 252.488C169.602 259.65 172.142 267.023 177.222 273.055C179.48 275.701 181.738 278.347 184.524 280.429C187.594 282.686 189.428 282.087 190.628 278.453C193.132 270.833 193.591 263.001 193.027 255.063C192.568 249.031 192.145 242.963 188.582 237.706C188.37 237.389 188.088 237.071 187.876 236.754C187.77 237.812 186.994 238.271 186.112 238.483C183.889 238.976 181.914 239.964 179.868 240.846C175.352 242.787 170.801 244.515 165.792 244.268Z" fill="#814311"/>
<path d="M221.426 372.152C220.297 366.331 218.675 360.616 217.828 354.76C216.981 354.936 216.946 355.677 216.77 356.312C216.381 357.758 216.029 359.205 215.535 360.616C214.159 364.391 212.677 368.307 208.973 370.353C204.457 372.858 199.413 373.74 194.297 373.14C189.464 372.575 187.841 370.67 187.347 366.507C187.03 363.932 186.889 361.392 186.924 358.817C182.902 363.509 177.928 367.601 176.623 374.128C175.635 378.961 178.704 382.136 183.396 381.077C196.061 378.079 208.761 375.08 221.426 372.152Z" fill="#F6BC94"/>
<path d="M186.924 358.746C186.889 361.322 187.03 363.897 187.347 366.437C187.876 370.635 189.499 372.505 194.297 373.069C199.412 373.669 204.457 372.787 208.973 370.282C212.677 368.236 214.159 364.32 215.535 360.546C216.028 359.134 216.381 357.688 216.769 356.242C216.946 355.607 216.981 354.866 217.828 354.689C217.581 353.314 217.898 351.832 217.157 350.562C215.676 350.456 215.182 351.55 214.758 352.643C213.806 355.183 212.748 357.688 211.936 360.299C210.031 366.402 205.692 369.012 199.624 369.365C198.601 369.436 197.613 369.506 196.59 369.683C192.956 370.388 191.192 368.871 190.593 364.638C190.381 363.05 190.205 361.392 190.169 359.805C190.134 358.288 189.534 357.512 188.017 357.476C187.524 357.759 187.206 358.217 186.924 358.746Z" fill="#E2AB83"/>
<path d="M165.792 244.268C170.837 244.551 175.352 242.787 179.868 240.846C181.914 239.964 183.89 238.941 186.112 238.483C186.994 238.271 187.77 237.848 187.876 236.754C187.523 235.731 186.712 234.814 187.206 233.614C184.56 234.637 181.879 235.555 179.303 236.683C175.564 238.342 171.789 239.682 167.591 239.365C166.956 239.329 166.215 239.153 165.686 239.788C167.309 241.234 165.615 242.787 165.792 244.268Z" fill="#643403"/>
<path d="M220.932 205.85C220.297 206.837 220.579 207.86 220.72 208.884H220.826C221.426 207.896 221.532 206.873 220.932 205.85Z" fill="#CFB184"/>
<path d="M220.438 227.123C220.403 226.276 220.368 225.43 220.333 224.583C219.345 225.465 219.168 226.312 220.438 227.123Z" fill="#FBE5D6"/>
<path d="M220.509 218.903C221.073 218.445 220.862 217.81 220.827 217.245C219.768 217.633 219.874 218.233 220.509 218.903Z" fill="#FBE5D6"/>
<path d="M256.281 197.277C257.481 195.937 259.386 196.007 260.832 194.949C262.067 194.032 263.372 193.22 264.325 191.986C262.667 190.151 262.455 187.752 261.82 185.53C261.679 184.965 261.89 184.26 261.009 184.154C260.268 184.083 259.633 184.26 259.35 185.001C257.939 188.775 256.387 192.515 255.752 196.537C255.646 196.995 255.928 197.172 256.281 197.277Z" fill="#E1AB83"/>
<path d="M254.058 210.33C254.446 210.154 254.87 209.977 255.258 209.766C254.905 207.19 255.328 204.65 255.575 202.11C254.34 202.957 254.129 204.545 254.199 205.603C254.27 207.226 253.811 208.778 254.058 210.33Z" fill="#C7B488"/>
<path d="M221.779 191.527C221.038 192.586 221.355 193.715 221.532 194.808C222.484 193.785 222.167 192.656 221.779 191.527Z" fill="#CFB184"/>
<path d="M222.131 188.246C221.602 188.881 221.708 189.587 221.92 190.328C222.837 189.728 222.66 189.022 222.131 188.246Z" fill="#CFB184"/>
<path d="M259.385 209.907C261.502 210.542 263.654 210.401 265.806 210.048C263.654 209.307 261.537 209.413 259.385 209.907Z" fill="#C7B488"/>
<path d="M275.331 210.295C277.307 210.894 279.318 210.824 281.329 210.436C279.353 209.73 277.342 209.801 275.331 210.295Z" fill="#C7B488"/>
<path d="M287.996 210.718C288.208 211.106 288.455 211.142 288.702 210.754C288.49 210.366 288.243 210.33 287.996 210.718Z" fill="#C7B488"/>
</svg>
