<svg width="501" height="501" viewBox="0 0 501 501" fill="none" xmlns="http://www.w3.org/2000/svg">
<path d="M407.237 402.025C396.073 398.184 379.052 398.367 378.869 393.612C377.405 355.571 374.294 298.51 374.294 298.51C377.039 260.651 396.805 205.784 393.694 191.519C390.582 177.437 361.482 180.363 360.933 194.811C359.103 211.82 356.907 219.867 355.077 237.424C352.332 259.188 349.037 286.622 350.867 299.241C351.05 300.887 363.313 385.199 363.313 385.199C363.313 385.199 363.679 395.624 365.143 401.293C366.79 407.695 370.999 406.232 383.811 407.695C393.145 408.792 414.924 404.585 407.237 402.025Z" fill="#ECAD83"/>
<path d="M228.513 187.66C228.513 187.66 209.732 195.687 200.433 204.625C179.099 225.238 178.005 247.128 178.005 247.128C178.005 247.128 177.275 278.687 190.039 275.768C210.826 270.843 241.46 278.687 242.918 266.465C243.83 259.533 247.295 256.979 248.753 256.249C256.412 253.148 249.847 223.049 249.847 223.049L228.513 187.66Z" fill="#3D3C3C"/>
<path d="M386.569 229.924C386.569 229.924 396.361 235.2 397.993 248.298L423.743 232.653C411.956 227.559 403.796 199.361 403.796 199.361C398.9 213.915 381.31 225.74 375.87 229.014L386.569 229.924Z" fill="#ECAD83"/>
<path d="M353.195 239.481C371.628 235.618 381.483 238.193 396.996 223.847C399.004 222.008 401.011 218.881 402.106 215.754C403.931 210.604 405.939 204.535 403.384 197.729C400.646 190.188 395.536 178.049 387.871 173.267C378.563 167.749 361.773 156.714 331.295 160.944C276.543 168.669 252.27 177.498 227.997 188.533C227.997 188.533 243.327 219.8 245.335 234.882C247.343 249.964 248.255 257.873 248.255 257.873C282.566 240.4 301.181 227.525 323.994 226.606C323.994 226.606 331.295 243.895 353.195 239.481Z" fill="#FF8AA0"/>
<path d="M397.815 281.003C396.91 292.664 405.592 298.13 411.017 301.046C428.199 309.61 438.146 305.237 449.902 297.766C465.456 287.744 445.2 242.921 439.412 236.908C424.401 221.237 395.283 229.984 384.974 236.179C373.58 243.103 378.825 245.107 382.08 249.298C382.261 249.48 382.08 250.391 382.08 250.391C382.984 252.031 384.431 254.035 384.793 256.769C384.793 256.769 386.059 257.862 386.601 258.591C386.963 259.137 387.144 259.319 386.601 260.048C385.335 261.688 384.069 263.146 383.889 264.239C383.527 267.519 398.357 275.536 397.815 281.003Z" fill="#F6BB92"/>
<path d="M389.7 250.426C389.7 250.426 388.374 250.426 383.732 254.336C383.4 255.205 382.737 256.726 384.395 257.812C385.721 258.464 386.716 253.685 389.7 250.426Z" fill="#D6876B"/>
<path d="M389.702 250.451C389.702 250.451 387.422 248.004 382.863 250.451C382.407 251.118 382.255 252.23 382.255 252.675C382.559 254.899 384.079 254.676 384.079 254.676C388.486 250.451 389.702 250.451 389.702 250.451Z" fill="#CC785E"/>
<path d="M453.592 299.842C472.462 287.514 480.265 243.54 433.996 227.533C430.911 226.429 425.286 226.429 422.202 234.709C420.024 240.596 419.843 246.668 419.843 246.668C419.843 248.508 419.843 250.348 419.843 252.556C419.843 254.764 427.101 263.595 425.286 265.067C408.593 280.155 406.96 295.242 410.226 300.21C419.843 310.881 433.27 312.905 453.592 299.842Z" fill="#602F0F"/>
<path d="M426.169 251.323C418.218 245.197 414.507 246.899 409.913 250.302L420.868 260.852L426.699 264.256C431.117 260.852 434.297 257.619 426.169 251.323Z" fill="#F6BB92"/>
<path d="M464.558 252.628C471.488 253.516 475.317 263.81 473.129 275.523C470.941 287.237 463.646 295.933 456.716 295.046C449.786 294.159 447.962 285.64 450.151 274.103C452.339 262.212 457.628 251.563 464.558 252.628Z" fill="#4C230C"/>
<path d="M421.736 264.721C423.01 265.995 423.92 267.452 424.648 268.544C425.558 270.182 426.104 271.456 426.104 271.456L430.291 265.995C429.745 265.267 429.199 264.357 428.653 263.629C428.653 263.629 428.107 264.175 427.379 265.267C427.379 265.267 427.379 265.085 427.561 265.085C425.922 264.357 423.92 263.083 421.19 260.899C421.008 260.717 417.913 260.534 421.736 264.721Z" fill="#602F0F"/>
<path d="M468.153 250.521C475.434 251.613 479.257 262.899 476.89 276.188C474.524 289.294 466.697 299.124 459.415 298.031C452.134 296.939 450.314 287.656 452.68 274.549C455.047 261.261 460.872 249.429 468.153 250.521Z" fill="#602F0F"/>
<path d="M476.202 269.576C477.03 269.749 477.237 272.861 476.409 276.664C475.58 280.467 474.13 283.406 473.302 283.406C472.474 283.233 472.474 280.64 473.302 276.837C473.923 273.034 475.166 269.576 476.202 269.576Z" fill="#4C230C"/>
<path d="M389.334 404.702C381.688 399.969 360.573 397.603 360.937 392.87C363.667 355.008 374.589 298.214 374.589 298.214C377.319 260.534 396.979 205.924 393.884 191.726C390.79 177.71 361.847 180.622 361.301 195.003C359.48 211.931 357.296 219.941 355.476 237.416C352.745 259.077 349.469 286.382 351.289 298.942C351.471 300.58 345.828 394.872 347.284 400.515C348.923 406.887 353.109 405.43 365.852 406.887C375.135 407.979 396.251 408.889 389.334 404.702Z" fill="#F6BB92"/>
<path d="M11.4369 403.246C12.165 395.782 43.8384 393.962 48.7532 390.868C51.1196 389.411 53.122 385.043 59.311 383.95C67.5024 382.494 73.1454 388.319 76.0579 387.591C90.8024 384.132 123.022 379.218 141.043 375.213C145.23 374.303 149.416 373.393 153.785 372.665C171.624 369.57 166.527 407.796 159.974 408.343C133.762 410.163 79.3344 406.522 69.8688 406.158C69.8688 406.158 41.1079 409.799 34.1907 409.981C30.1861 409.981 10.7088 410.709 11.4369 403.246Z" fill="#F6BB92"/>
<path d="M218.898 368.155C197.598 368.337 171.523 369.976 153.528 373.072C156.65 378.718 160.69 402.94 159.772 408.586C166.382 408.222 254.337 415.325 267.741 400.755C281.88 385.639 237.811 264.527 242.402 261.067C251.399 254.51 225.141 196.049 210.451 199.509C210.451 199.509 190.62 214.807 180.337 236.662C162.893 273.815 218.898 368.155 218.898 368.155Z" fill="#3D3C3C"/>
</svg>
