<svg width="500" height="500" viewBox="0 0 500 500" fill="none" xmlns="http://www.w3.org/2000/svg">
<path d="M291.797 199.042C289.609 198.301 287.775 199.536 285.905 200.206C278.038 203.099 270.912 207.262 264.491 212.659C258.388 217.81 255.001 224.618 252.743 232.133C249.18 243.916 249.286 255.805 251.473 267.799C252.955 275.772 253.59 283.851 254.19 291.93C255.001 302.584 255.354 313.273 256.024 323.962C256.165 326.079 255.425 326.326 253.625 326.185C244.065 325.444 234.505 325.515 224.944 325.373C212.597 325.232 200.673 327.808 188.819 330.771C178.659 333.311 168.428 335.71 158.233 338.144C158.198 346.682 158.198 355.254 158.162 363.792C158.691 363.827 159.221 363.862 159.75 363.862C195.945 363.862 232.176 363.933 268.372 363.827C278.567 363.792 287.422 360.264 293.772 351.938C298.429 345.835 300.687 338.744 299.734 331.018C298.676 322.445 299.135 313.908 299.24 305.335C299.452 287.59 299.875 269.845 299.417 252.136C299.346 249.737 300.158 248.255 302.274 247.055C305.273 245.327 307.989 243.21 310.847 241.305C311.27 241.023 311.411 240.6 311.623 240.176C310.424 236.437 308.589 232.944 306.896 229.452C301.992 219.291 297.829 208.708 291.797 199.042Z" fill="#696D66"/>
<path d="M366.339 233.684C367.433 244.832 368.527 255.98 369.55 267.128C370.079 272.879 370.22 278.664 370.89 284.379C371.666 291.153 372.654 297.926 373.748 304.629C374.665 310.274 374.912 315.953 375.618 321.633C376.641 329.641 377.558 337.685 378.616 345.693C379.004 348.656 379.533 351.585 379.992 354.513C380.31 356.453 381.262 358.146 382.32 359.769C384.155 362.627 387.295 362.732 390.152 362.874C395.973 363.156 401.794 363.015 407.65 362.274C410.72 361.886 413.859 361.956 416.928 361.392C418.481 361.11 419.292 360.298 419.61 358.675C419.892 357.229 419.962 355.783 419.857 354.336C419.68 351.902 418.763 350.103 416.293 348.903C410.367 346.046 404.757 342.624 399.113 339.237C398.337 338.778 397.949 338.285 397.949 337.367C397.913 332.076 397.349 326.784 397.102 321.492C396.714 313.413 396.432 305.335 395.832 297.256C394.668 280.781 395.444 264.341 395.126 247.866C395.126 247.549 395.197 247.196 395.232 246.878C394.562 243.633 394.703 240.387 394.985 237.142C393.856 235.237 394.103 233.014 394.033 231.003C393.856 223.277 393.962 215.516 393.998 207.79C393.398 204.368 391.14 201.828 389.164 199.253C384.614 193.326 375.476 193.114 370.149 198.476C367.75 200.875 366.198 203.592 365.105 206.696C364.011 209.836 362.917 212.976 361.824 216.08C360.73 219.15 361.048 221.972 362.67 224.865C364.187 227.616 366.128 230.298 366.339 233.684Z" fill="#F6BB92"/>
<path d="M291.796 199.041C297.829 208.672 301.992 219.291 306.966 229.451C308.695 232.944 310.494 236.436 311.693 240.176C317.126 237.283 322.7 234.567 328.345 232.097C330.85 231.004 333.601 230.898 336.282 230.58C341.398 229.98 346.548 229.557 351.734 229.663C351.629 229.204 351.558 228.746 351.452 228.322C347.995 215.375 343.515 202.746 339.74 189.904C338.822 186.729 337.588 183.625 337.27 180.309C328.839 182.637 320.901 186.271 312.752 189.269C306.225 191.668 300.087 194.914 293.772 197.771C293.066 198.054 292.431 198.618 291.796 199.041Z" fill="#F6BA91"/>
<path d="M337.27 180.273C337.588 183.624 338.787 186.729 339.74 189.869C343.515 202.71 347.995 215.34 351.452 228.287C351.558 228.745 351.629 229.204 351.735 229.627C356.674 230.756 361.577 231.991 366.34 233.649C366.128 230.262 364.223 227.546 362.671 224.759C361.083 221.866 360.731 219.044 361.824 215.975C362.953 212.835 364.047 209.73 365.105 206.591C366.199 203.486 367.751 200.77 370.15 198.371C375.477 193.044 384.649 193.22 389.165 199.147C391.141 201.757 393.398 204.262 393.998 207.684C395.268 207.614 395.339 206.132 396.256 205.673C396.609 204.686 396.891 203.662 397.279 202.675C399.572 196.924 400.525 191.139 397.949 185.177C397.208 183.483 396.432 181.825 395.656 180.132C393.963 176.357 390.435 175.016 386.942 173.711C376.077 169.619 365.211 170.536 354.38 173.958C349.583 175.475 344.855 177.239 340.128 178.897C339.14 179.32 338.082 179.567 337.27 180.273Z" fill="#8A8AD9"/>
<path d="M394.986 237.106C394.704 240.351 394.563 243.632 395.233 246.843C402.183 251.005 409.627 252.417 417.317 249.63C423.914 247.266 429.1 242.962 432.24 236.471C431.817 236.153 431.993 235.8 432.134 235.412C433.969 230.579 433.686 225.64 433.122 220.595C432.134 211.882 427.513 205.285 421.586 199.252C419.046 196.641 415.306 194.666 416.188 190.044C415.694 190.785 415.236 190.256 414.707 190.044C413.437 189.48 412.308 188.422 410.755 188.669C410.65 189.586 410.826 190.503 410.897 191.42C411.108 194.419 412.061 197.276 412.907 200.099C414.001 203.768 413.437 206.484 410.12 208.53C408.85 209.306 408.674 210.329 409.203 211.776C410.297 214.775 411.143 217.844 411.602 221.019C411.779 222.359 411.426 223.347 410.226 224.229C406.381 227.087 402.289 229.521 398.02 231.708C397.491 232.52 396.997 233.331 396.609 234.248C396.185 235.271 396.15 236.541 394.986 237.106Z" fill="#7A4922"/>
<path d="M158.197 363.826C158.232 355.289 158.232 346.716 158.268 338.179C153.611 335.004 148.813 332.217 142.78 333.875C140.875 334.404 139.217 335.286 137.665 336.415C131.385 340.966 125.141 345.552 118.862 350.138C116.145 352.149 115.052 355.36 115.969 358.535C116.816 361.498 119.849 364.073 123.025 364.073C134.49 364.144 145.991 364.109 157.456 364.073C157.703 364.073 157.95 363.897 158.197 363.826Z" fill="#F4BB94"/>
<path d="M436.614 237.318C439.789 240.281 443.282 242.786 447.127 244.797C448.397 245.467 448.997 245.467 448.821 243.703C448.327 238.306 449.244 232.979 449.491 227.616C449.985 217.844 449.808 208.107 446.386 198.723C444.905 194.631 442.612 190.997 440.071 187.505C436.438 182.531 431.534 181.578 425.925 182.919C422.256 183.801 419.293 185.811 417.035 188.881C417.176 189.657 417.881 189.868 418.411 190.221C423.385 193.573 427.759 197.594 431.322 202.392C435.027 207.367 438.202 212.623 439.331 219.008C440.248 224.406 439.507 229.521 438.096 234.637C437.849 235.554 437.673 236.753 436.614 237.318Z" fill="#7A4721"/>
<path d="M397.984 231.744C402.253 229.592 406.345 227.122 410.191 224.265C411.39 223.383 411.778 222.395 411.567 221.054C411.143 217.879 410.297 214.81 409.168 211.812C408.638 210.365 408.815 209.342 410.085 208.566C413.401 206.52 413.965 203.803 412.872 200.134C412.025 197.312 411.073 194.455 410.861 191.456C410.79 190.539 410.649 189.621 410.72 188.704C409.168 187.081 407.051 186.411 405.181 185.388C402.006 183.624 398.69 182.178 395.621 180.202C396.397 181.896 397.173 183.554 397.914 185.247C400.524 191.174 399.537 196.995 397.244 202.745C396.855 203.733 396.538 204.721 396.22 205.744C396.538 206.308 397.102 206.731 397.138 207.472C397.244 209.589 397.49 211.67 397.526 213.787C397.596 219.079 397.526 224.406 397.561 229.698C397.561 230.403 397.314 231.179 397.984 231.744Z" fill="#F5B990"/>
<path d="M436.614 237.318C437.673 236.718 437.814 235.554 438.096 234.602C439.507 229.486 440.248 224.371 439.331 218.973C438.237 212.588 435.062 207.367 431.323 202.357C427.759 197.559 423.385 193.538 418.411 190.186C417.882 189.833 417.176 189.622 417.035 188.846C416.4 189.022 416.223 189.516 416.188 190.08C415.342 194.702 419.046 196.713 421.586 199.288C427.477 205.321 432.099 211.882 433.122 220.632C433.686 225.676 433.968 230.615 432.134 235.448C431.993 235.836 431.781 236.189 432.24 236.507C433.968 235.343 435.168 237.036 436.614 237.318Z" fill="#5D3614"/>
<path d="M397.984 231.744C397.314 231.18 397.596 230.368 397.561 229.698C397.526 224.406 397.596 219.079 397.526 213.788C397.49 211.671 397.244 209.589 397.138 207.473C397.102 206.732 396.538 206.309 396.22 205.744C395.303 206.238 395.233 207.684 393.963 207.755C393.963 215.481 393.822 223.242 393.998 230.968C394.033 232.979 393.786 235.202 394.95 237.107C396.115 236.542 396.15 235.272 396.538 234.32C396.961 233.367 397.42 232.556 397.984 231.744Z" fill="#D59E79"/>
</svg>
