<svg width="500" height="500" viewBox="0 0 500 500" fill="none" xmlns="http://www.w3.org/2000/svg">
<path d="M260.403 199.042C257.915 198.301 255.828 199.536 253.7 200.206C244.75 203.099 236.642 207.262 229.338 212.659C222.394 217.81 218.541 224.618 215.972 232.133C211.918 243.916 212.039 255.805 214.527 267.799C216.213 275.772 216.935 283.851 217.618 291.93C218.541 302.584 218.942 313.273 219.705 323.962C219.865 326.079 219.023 326.326 216.976 326.185C206.099 325.444 195.222 325.515 184.345 325.373C170.297 325.232 156.731 327.808 143.245 330.771C131.686 333.311 120.046 335.71 108.447 338.144C108.406 346.682 108.406 355.254 108.366 363.792C108.968 363.827 109.57 363.862 110.172 363.862C151.353 363.862 192.573 363.933 233.753 363.827C245.352 363.792 255.426 360.264 262.651 351.938C267.949 345.835 270.518 338.744 269.434 331.018C268.23 322.445 268.752 313.908 268.872 305.335C269.113 287.59 269.595 269.845 269.073 252.136C268.992 249.737 269.916 248.255 272.324 247.055C275.735 245.327 278.826 243.21 282.077 241.305C282.559 241.023 282.719 240.6 282.96 240.176C281.595 236.437 279.508 232.944 277.582 229.452C272.003 219.291 267.267 208.708 260.403 199.042Z" fill="#696D66"/>
<path d="M345.211 233.684C346.455 244.832 347.7 255.98 348.864 267.128C349.466 272.879 349.626 278.664 350.389 284.379C351.272 291.153 352.396 297.926 353.64 304.629C354.683 310.274 354.964 315.953 355.767 321.633C356.931 329.641 357.975 337.685 359.179 345.693C359.62 348.656 360.222 351.585 360.744 354.513C361.105 356.453 362.189 358.146 363.393 359.769C365.48 362.627 369.052 362.732 372.303 362.874C378.926 363.156 385.548 363.015 392.211 362.274C395.703 361.886 399.275 361.956 402.767 361.392C404.533 361.11 405.456 360.298 405.817 358.675C406.138 357.229 406.219 355.783 406.098 354.336C405.898 351.902 404.854 350.103 402.044 348.903C395.302 346.046 388.92 342.624 382.498 339.237C381.615 338.778 381.173 338.285 381.173 337.367C381.133 332.076 380.491 326.784 380.21 321.492C379.769 313.413 379.448 305.335 378.765 297.256C377.441 280.781 378.324 264.341 377.963 247.866C377.963 247.549 378.043 247.196 378.083 246.878C377.32 243.633 377.481 240.387 377.802 237.142C376.518 235.237 376.799 233.014 376.718 231.003C376.518 223.277 376.638 215.516 376.678 207.79C375.996 204.368 373.427 201.828 371.179 199.253C366.002 193.326 355.607 193.114 349.546 198.476C346.817 200.875 345.051 203.592 343.806 206.696C342.562 209.836 341.318 212.976 340.074 216.08C338.829 219.15 339.191 221.972 341.037 224.865C342.763 227.616 344.97 230.298 345.211 233.684Z" fill="#F6BB92"/>
<path d="M260.404 199.041C267.267 208.672 272.003 219.291 277.663 229.451C279.629 232.944 281.676 236.436 283.041 240.176C289.222 237.283 295.563 234.567 301.985 232.097C304.835 231.004 307.966 230.898 311.016 230.58C316.836 229.98 322.696 229.557 328.596 229.663C328.475 229.204 328.395 228.746 328.275 228.322C324.341 215.375 319.244 202.746 314.949 189.904C313.906 186.729 312.501 183.625 312.14 180.309C302.547 182.637 293.516 186.271 284.245 189.269C276.82 191.668 269.836 194.914 262.651 197.771C261.849 198.054 261.126 198.618 260.404 199.041Z" fill="#F6BA91"/>
<path d="M312.14 180.273C312.501 183.624 313.866 186.729 314.949 189.869C319.244 202.71 324.341 215.34 328.275 228.287C328.395 228.745 328.475 229.204 328.596 229.627C334.215 230.756 339.794 231.991 345.212 233.649C344.972 230.262 342.804 227.546 341.038 224.759C339.232 221.866 338.831 219.044 340.075 215.975C341.359 212.835 342.604 209.73 343.808 206.591C345.052 203.486 346.818 200.77 349.547 198.371C355.608 193.044 366.043 193.22 371.181 199.147C373.428 201.757 375.997 204.262 376.679 207.684C378.124 207.614 378.205 206.132 379.248 205.673C379.649 204.686 379.971 203.662 380.412 202.675C383.021 196.924 384.105 191.139 381.175 185.177C380.332 183.483 379.449 181.825 378.566 180.132C376.639 176.357 372.626 175.016 368.652 173.711C356.29 169.619 343.928 170.536 331.606 173.958C326.148 175.475 320.769 177.239 315.391 178.897C314.267 179.32 313.063 179.567 312.14 180.273Z" fill="#8A8AD9"/>
<path d="M377.803 237.106C377.482 240.351 377.321 243.632 378.084 246.843C385.991 251.005 394.459 252.417 403.209 249.63C410.715 247.266 416.615 242.962 420.187 236.471C419.705 236.153 419.906 235.8 420.066 235.412C422.153 230.579 421.832 225.64 421.19 220.595C420.066 211.882 414.808 205.285 408.066 199.252C405.176 196.641 400.921 194.666 401.925 190.044C401.363 190.785 400.841 190.256 400.239 190.044C398.794 189.48 397.51 188.422 395.744 188.669C395.623 189.586 395.824 190.503 395.904 191.42C396.145 194.419 397.229 197.276 398.192 200.099C399.436 203.768 398.794 206.484 395.021 208.53C393.576 209.306 393.376 210.329 393.978 211.776C395.222 214.775 396.185 217.844 396.707 221.019C396.908 222.359 396.506 223.347 395.142 224.229C390.767 227.087 386.111 229.521 381.254 231.708C380.652 232.52 380.09 233.331 379.649 234.248C379.167 235.271 379.127 236.541 377.803 237.106Z" fill="#7A4922"/>
<path d="M108.406 363.826C108.446 355.289 108.446 346.716 108.486 338.179C103.188 335.004 97.7297 332.217 90.8664 333.875C88.699 334.404 86.8126 335.286 85.0466 336.415C77.9023 340.966 70.7982 345.552 63.6539 350.138C60.5634 352.149 59.3191 355.36 60.3627 358.535C61.326 361.498 64.7777 364.073 68.39 364.073C81.4343 364.144 94.5189 364.109 107.563 364.073C107.844 364.073 108.125 363.897 108.406 363.826Z" fill="#F4BB94"/>
<path d="M425.163 237.318C428.776 240.281 432.749 242.786 437.124 244.797C438.569 245.467 439.251 245.467 439.051 243.703C438.489 238.306 439.532 232.979 439.813 227.616C440.375 217.844 440.174 208.107 436.281 198.723C434.595 194.631 431.987 190.997 429.097 187.505C424.963 182.531 419.384 181.578 413.002 182.919C408.828 183.801 405.456 185.811 402.888 188.881C403.048 189.657 403.851 189.868 404.453 190.221C410.112 193.573 415.089 197.594 419.143 202.392C423.357 207.367 426.97 212.623 428.254 219.008C429.297 224.406 428.455 229.521 426.849 234.637C426.568 235.554 426.368 236.753 425.163 237.318Z" fill="#7A4721"/>
<path d="M381.214 231.744C386.071 229.592 390.726 227.122 395.101 224.265C396.466 223.383 396.907 222.395 396.667 221.054C396.185 217.879 395.222 214.81 393.937 211.812C393.335 210.365 393.536 209.342 394.981 208.566C398.754 206.52 399.396 203.803 398.152 200.134C397.188 197.312 396.105 194.455 395.864 191.456C395.784 190.539 395.623 189.621 395.703 188.704C393.937 187.081 391.529 186.411 389.402 185.388C385.79 183.624 382.017 182.178 378.525 180.202C379.408 181.896 380.291 183.554 381.134 185.247C384.104 191.174 382.98 196.995 380.371 202.745C379.93 203.733 379.568 204.721 379.207 205.744C379.568 206.308 380.211 206.731 380.251 207.472C380.371 209.589 380.652 211.67 380.692 213.787C380.773 219.079 380.692 224.406 380.732 229.698C380.732 230.403 380.451 231.179 381.214 231.744Z" fill="#F5B990"/>
<path d="M425.164 237.318C426.368 236.718 426.529 235.554 426.85 234.602C428.455 229.486 429.298 224.371 428.255 218.973C427.01 212.588 423.398 207.367 419.144 202.357C415.09 197.559 410.113 193.538 404.454 190.186C403.852 189.833 403.049 189.622 402.888 188.846C402.166 189.022 401.965 189.516 401.925 190.08C400.962 194.702 405.176 196.713 408.066 199.288C414.769 205.321 420.027 211.882 421.191 220.632C421.833 225.676 422.154 230.615 420.067 235.448C419.906 235.836 419.665 236.189 420.187 236.507C422.154 235.343 423.518 237.036 425.164 237.318Z" fill="#5D3614"/>
<path d="M381.214 231.744C380.451 231.18 380.772 230.368 380.732 229.698C380.692 224.406 380.772 219.079 380.692 213.788C380.652 211.671 380.371 209.589 380.251 207.473C380.21 206.732 379.568 206.309 379.207 205.744C378.163 206.238 378.083 207.684 376.638 207.755C376.638 215.481 376.478 223.242 376.678 230.968C376.719 232.979 376.438 235.202 377.762 237.107C379.087 236.542 379.127 235.272 379.568 234.32C380.05 233.367 380.572 232.556 381.214 231.744Z" fill="#D59E79"/>
</svg>
