<svg width="500" height="500" viewBox="0 0 500 500" fill="none" xmlns="http://www.w3.org/2000/svg">
<path d="M370.787 348.566C362.392 345.654 349.592 345.792 349.455 342.187C348.354 313.344 346.014 270.08 346.014 270.08C348.078 241.376 362.942 199.776 360.603 188.96C358.263 178.282 336.38 180.501 335.967 191.456C334.591 204.352 332.939 210.453 331.563 223.765C329.498 240.267 327.021 261.067 328.397 270.635C328.535 271.883 337.756 335.808 337.756 335.808C337.756 335.808 338.031 343.712 339.132 348.011C340.371 352.864 343.537 351.755 353.171 352.864C360.19 353.696 376.567 350.507 370.787 348.566Z" fill="#ECAD83"/>
<path d="M234.988 186C234.988 186 220.865 192.09 213.872 198.873C197.828 214.514 197.006 231.124 197.006 231.124C197.006 231.124 196.457 255.07 206.056 252.855C221.687 249.118 244.723 255.07 245.82 245.796C246.506 240.536 249.111 238.598 250.208 238.045C255.967 235.692 251.031 212.853 251.031 212.853L234.988 186Z" fill="#3D3C3C"/>
<path d="M355.269 218.108C355.269 218.108 362.837 222.097 364.099 232L384 220.171C374.89 216.32 368.583 195 368.583 195C364.799 206.004 351.205 214.944 347 217.42L355.269 218.108Z" fill="#ECAD83"/>
<path d="M329.999 225.094C343.986 222.173 351.464 224.12 363.235 213.273C364.758 211.883 366.281 209.519 367.112 207.155C368.497 203.261 370.02 198.672 368.082 193.526C366.004 187.825 362.127 178.647 356.311 175.031C349.248 170.859 336.508 162.515 313.381 165.714C271.836 171.555 253.418 178.23 235 186.573C235 186.573 246.633 210.214 248.156 221.617C249.679 233.02 250.372 239 250.372 239C276.406 225.789 290.531 216.055 307.842 215.359C307.842 215.359 313.381 228.431 329.999 225.094Z" fill="#FF8AA0"/>
<path d="M364.054 257.202C363.367 266.061 369.963 270.214 374.085 272.429C387.138 278.935 394.695 275.613 403.626 269.937C415.443 262.324 400.054 228.27 395.657 223.702C384.252 211.797 362.131 218.442 354.299 223.148C345.642 228.409 349.627 229.931 352.1 233.115C352.238 233.254 352.1 233.946 352.1 233.946C352.787 235.192 353.887 236.714 354.161 238.791C354.161 238.791 355.123 239.621 355.535 240.175C355.81 240.59 355.948 240.729 355.535 241.282C354.574 242.528 353.612 243.636 353.474 244.466C353.2 246.958 364.467 253.049 364.054 257.202Z" fill="#F6BB92"/>
<path d="M358 234C358 234 356.961 234 353.325 236.626C353.065 237.209 352.545 238.23 353.844 238.96C354.883 239.397 355.662 236.188 358 234Z" fill="#D6876B"/>
<path d="M358 233.818C358 233.818 356.163 231.978 352.49 233.818C352.122 234.319 352 235.156 352 235.49C352.245 237.163 353.469 236.995 353.469 236.995C357.02 233.818 358 233.818 358 233.818Z" fill="#CC785E"/>
<path d="M406.546 271.116C421.117 261.786 427.141 228.503 391.415 216.387C389.034 215.552 384.691 215.552 382.309 221.818C380.628 226.275 380.487 230.87 380.487 230.87C380.487 232.263 380.487 233.655 380.487 235.326C380.487 236.998 386.092 243.682 384.691 244.796C371.801 256.215 370.54 267.634 373.062 271.394C380.487 279.471 390.855 281.003 406.546 271.116Z" fill="#602F0F"/>
<path d="M385.224 234.123C379.245 229.444 376.455 230.744 373 233.343L381.238 241.401L385.623 244C388.945 241.401 391.337 238.931 385.224 234.123Z" fill="#F6BB92"/>
<path d="M414.866 235.057C420.247 235.745 423.221 243.728 421.522 252.812C419.823 261.896 414.158 268.64 408.777 267.952C403.396 267.264 401.98 260.657 403.679 251.711C405.378 242.489 409.485 234.231 414.866 235.057Z" fill="#4C230C"/>
<path d="M382.127 244.493C383.097 245.462 383.789 246.57 384.343 247.401C385.035 248.647 385.451 249.616 385.451 249.616L388.635 245.462C388.22 244.908 387.804 244.216 387.389 243.662C387.389 243.662 386.974 244.078 386.42 244.908C386.42 244.908 386.42 244.77 386.558 244.77C385.312 244.216 383.789 243.247 381.712 241.585C381.574 241.447 379.22 241.308 382.127 244.493Z" fill="#602F0F"/>
<path d="M417.436 233.693C422.974 234.524 425.882 243.108 424.082 253.216C422.282 263.185 416.328 270.662 410.789 269.832C405.251 269.001 403.866 261.939 405.666 251.97C407.466 241.862 411.897 232.862 417.436 233.693Z" fill="#602F0F"/>
<path d="M423.482 248C424.066 248.138 424.212 250.613 423.628 253.638C423.044 256.663 422.022 259 421.438 259C420.854 258.862 420.854 256.8 421.438 253.775C421.876 250.75 422.752 248 423.482 248Z" fill="#4C230C"/>
<path d="M357.482 350.97C351.666 347.37 335.605 345.57 335.881 341.97C337.958 313.17 346.266 269.97 346.266 269.97C348.343 241.308 363.297 199.769 360.943 188.969C358.589 178.308 336.574 180.523 336.158 191.462C334.774 204.339 333.112 210.431 331.728 223.723C329.651 240.2 327.158 260.97 328.543 270.524C328.681 271.77 324.389 343.493 325.497 347.785C326.743 352.632 329.928 351.524 339.62 352.632C346.682 353.462 362.743 354.155 357.482 350.97Z" fill="#F6BB92"/>
<path d="M70.0342 349.862C70.588 344.186 94.6804 342.801 98.4189 340.447C100.219 339.339 101.742 336.016 106.45 335.186C112.68 334.078 116.973 338.509 119.188 337.955C130.404 335.324 154.911 331.586 168.619 328.539C171.804 327.847 174.988 327.155 178.312 326.601C191.881 324.247 188.004 353.324 183.019 353.739C163.081 355.124 121.681 352.355 114.48 352.078C114.48 352.078 92.6035 354.847 87.3419 354.986C84.2958 354.986 69.4803 355.539 70.0342 349.862Z" fill="#F6BB92"/>
<path d="M227.716 323.214C211.517 323.352 191.686 324.597 178 326.949C180.374 331.238 183.446 349.637 182.748 353.925C187.776 353.649 254.669 359.044 264.864 347.977C275.617 336.494 242.1 244.499 245.592 241.871C252.435 236.89 232.464 192.484 221.292 195.112C221.292 195.112 206.21 206.733 198.389 223.333C185.122 251.554 227.716 323.214 227.716 323.214Z" fill="#3D3C3C"/>
</svg>
