<svg width="500" height="500" viewBox="0 0 500 500" fill="none" xmlns="http://www.w3.org/2000/svg">
<path d="M251.528 249.688C258.971 277.451 266.415 305.215 273.855 332.982C279.207 352.957 268.673 371.865 249.372 376.907C246.627 377.623 243.83 378.021 240.976 378.021C203.43 378.014 165.88 378.021 128.334 378.011C127.745 378.011 127.159 377.926 126.57 377.88C126.598 369.04 126.623 360.199 126.651 351.355C141.919 347.785 156.958 343.262 172.357 340.218C180.383 338.63 188.5 338.062 196.667 338.076C208.82 338.094 220.97 338.08 233.155 338.08C233.409 336.457 232.41 335.476 231.828 334.39C217.089 306.841 205.374 278.051 196.332 248.164C188.07 220.841 208.739 194.016 237.244 196.009C240.422 196.231 243.195 196.503 247.093 197.427C248.568 214.847 250.046 232.267 251.52 249.688H251.528Z" fill="#6A6D66"/>
<path d="M364.632 244.657C364.621 264.258 364.349 283.862 364.688 303.455C364.91 316.282 366 329.095 366.72 341.915C366.896 345.09 367.218 348.254 367.323 351.429C367.373 352.872 367.934 353.835 368.988 354.742C373.19 358.354 377.342 362.027 381.498 365.688C382.69 366.74 383.523 374.536 382.588 375.736C381.981 376.515 381.096 376.318 380.299 376.321C371.207 376.335 362.113 376.244 353.022 376.395C350.799 376.431 350.164 375.4 349.762 373.63C346.894 361.007 344.008 348.392 341.126 335.773C339.842 330.153 338.791 324.463 337.203 318.928C334.836 310.68 334.458 302.234 334.099 293.775C333.64 282.937 333.358 272.093 332.998 261.252C332.705 253.127 332.462 245.003 332.102 236.882C331.732 228.549 334.183 221.356 340.315 215.535C344.904 211.179 350.178 209.446 356.161 212.018C362.145 214.586 364.519 219.571 364.487 225.928C364.459 232.169 364.575 238.413 364.632 244.654V244.657Z" fill="#F6BB92"/>
<path d="M251.397 250.235C249.922 232.815 248.483 214.798 247.008 197.378C264.46 206.723 283.101 217.828 316.707 214.855C316.072 230.186 315.655 245.92 315.024 261.256C310.074 260.973 302.733 259.947 297.907 258.627C280.423 253.851 262.76 251.071 251.397 250.235Z" fill="#F6BB92"/>
<path d="M402.615 152.9C404.164 157.222 404.623 162.496 406.916 166.02C409.308 169.693 414.257 172.37 417.693 174.998C419.729 176.554 416.995 178.826 415.838 179.429C410.768 182.068 410.546 183.91 409.985 189.367C409.625 192.87 409.717 193.678 409.431 197.777C409.283 199.898 408.683 200.836 406.535 200.705C405.004 200.614 401.723 201.086 400.153 201.178C392.776 201.598 390.49 204.939 385.739 210.036C382.613 213.388 379.11 216.393 375.392 219.113C371.07 212.844 366.752 206.576 362.43 200.31C360.328 196.969 364.127 196.931 365.2 195.368C369.564 192.591 373.91 189.787 378.302 187.056C379.576 186.263 379.914 185.441 379.554 183.892C378.873 180.936 378.556 177.891 378.076 174.889C377.734 172.748 377.889 171.118 380.503 170.303C383.625 169.329 386.504 167.576 389.626 166.609C394.152 165.209 397.461 162.739 399.317 158.259C400.107 156.347 401.497 154.685 402.612 152.907L402.615 152.9Z" fill="#F6BB92"/>
<path d="M359.573 199.576C348.22 201.957 336.871 204.342 325.519 206.723C328.052 200.377 331.862 194.63 334.092 188.132C337.351 178.617 337.891 169.001 335.707 159.19C333.34 148.564 337.711 140.062 347.021 137.106C351.381 135.723 355.664 136.055 359.753 138.058C363.337 139.815 366.843 141.734 370.382 143.583C362.222 144.976 356.486 149.541 353.124 157.027C348.637 167.022 349.286 176.91 354.062 186.64C356.13 190.852 358.405 194.976 359.573 199.572V199.576Z" fill="#7A4821"/>
<path d="M402.616 152.9C401.501 154.674 400.111 156.34 399.321 158.252C397.465 162.732 394.156 165.201 389.63 166.602C386.508 167.568 383.629 169.318 380.507 170.295C377.893 171.11 377.738 172.74 378.08 174.882C378.56 177.887 378.874 180.928 379.558 183.884C379.914 185.433 379.579 186.255 378.306 187.049C373.914 189.783 369.567 192.584 365.204 195.36C363.5 191.501 361.743 187.659 360.099 183.775C355.626 173.206 356.374 163.071 362.364 153.2C364.812 149.164 368.975 147.375 372.298 144.5C377.35 143.463 382.359 142.172 387.58 143.643C393.489 145.308 398.319 148.653 402.616 152.9Z" fill="#7A4821"/>
<path d="M126.651 351.355C126.623 360.196 126.598 369.04 126.57 377.881C114.071 377.923 101.569 378.018 89.0699 377.976C85.4575 377.965 83.1467 375.739 82.0073 372.501C80.829 369.153 82.106 365.54 85.0412 363.403C91.6099 358.619 98.2139 353.881 104.832 349.161C109.912 345.538 115.225 345.079 120.753 348.145C122.711 349.231 124.686 350.29 126.651 351.359V351.355Z" fill="#F6BB92"/>
<path d="M372.297 144.5C368.974 147.378 364.811 149.163 362.363 153.199C356.373 163.07 355.621 173.205 360.098 183.774C361.742 187.659 363.499 191.5 365.203 195.36C364.13 196.923 360.335 196.961 362.434 200.302C360.97 202.08 360.543 199.766 359.576 199.575C358.412 194.979 356.136 190.855 354.066 186.643C349.289 176.916 348.64 167.025 353.127 157.03C356.489 149.544 362.225 144.979 370.385 143.586C371.024 143.889 371.662 144.193 372.301 144.496L372.297 144.5Z" fill="#5C3717"/>
<path d="M375.392 219.105C374.968 223.691 372.481 227.519 370.724 231.601C368.826 236.011 366.671 240.311 364.632 244.657C364.579 238.413 364.459 232.172 364.487 225.928C364.515 219.568 362.141 214.586 356.162 212.018C350.179 209.45 344.908 211.178 340.318 215.535C334.187 221.356 331.735 228.546 332.106 236.882C332.466 245.003 332.709 253.127 333.002 261.252C327.34 261.252 322.013 262.042 315.024 261.252C315.656 245.92 316.075 230.186 316.707 214.851C319.571 213.877 325.399 213.154 328.264 212.18C339.482 209.827 352.016 205.255 361.972 197.886" fill="#8A8AD9"/>
<path d="M325.519 206.723C336.738 204.37 349.925 201.266 361.143 198.909Z" fill="#3579EB"/>
</svg>
