<svg width="500" height="500" viewBox="0 0 500 500" fill="none" xmlns="http://www.w3.org/2000/svg">
<path d="M354.88 358.052C347.448 355.481 336.116 355.603 335.994 352.42C335.02 326.957 332.948 288.761 332.948 288.761C334.776 263.42 347.935 226.693 345.864 217.144C343.792 207.718 324.419 209.677 324.053 219.348C322.835 230.733 321.373 236.12 320.154 247.872C318.327 262.44 316.133 280.804 317.352 289.251C317.474 290.352 325.637 346.789 325.637 346.789C325.637 346.789 325.881 353.767 326.856 357.562C327.952 361.847 330.755 360.867 339.284 361.847C345.62 362.704 360.12 359.766 354.88 358.052Z" fill="#ECAD83"/>
<path d="M237.023 211.503C237.023 211.503 226.675 210.156 218.613 211.871C202.008 215.424 199 228.168 199 228.168C199 228.168 200.564 266.889 208.987 264.928C224.991 261.129 237.745 258.556 245.566 256.963C250.861 255.861 248.454 229.638 248.454 229.638L237.023 211.503Z" fill="#3D3C3C"/>
<path d="M322.861 261.301C337.069 256.278 339.028 251.378 350.909 237.903C352.379 236.188 353.971 225.53 352.257 220.997C350.419 215.975 347.235 211.687 341.845 208.869C331.312 203.479 306.203 224.917 289.055 224.917C277.419 226.142 253.29 213.034 237 211.809C237 211.809 244.716 226.877 246.064 236.8C247.411 246.846 245.819 257.136 245.819 257.136C284.768 261.301 295.792 263.874 310.49 260.321C310.612 260.321 318.819 262.649 322.861 261.301Z" fill="#FF8AA0"/>
<path d="M342.793 360.856C337.768 357.663 323.891 356.066 324.13 352.873C325.925 327.328 333.103 289.01 333.103 289.01C334.897 263.588 347.817 226.743 345.784 217.164C343.75 207.707 324.728 209.672 324.37 219.375C323.173 230.796 321.738 236.2 320.541 247.99C318.747 262.605 316.594 281.027 317.79 289.501C317.91 290.607 314.201 354.224 315.158 358.031C316.235 362.33 318.986 361.347 327.36 362.33C333.462 363.189 347.339 363.681 342.793 360.856Z" fill="#F6BB92"/>
<path d="M354.93 221.657C354.93 221.657 358.743 218.108 366 212.601L357.513 194C353.086 203.301 343 209.297 343 209.297C353.578 217.741 351.487 224.962 353.209 229L354.93 221.657Z" fill="#ECAD83"/>
<path d="M382.52 181.88C385.451 174.678 381.055 169.307 378.001 166.378C368.72 157.345 361.392 158.199 352.233 160.64C340.264 163.814 344.172 196.65 346.615 201.655C353.087 214.716 373.605 215.082 381.543 213.129C390.214 211.054 387.283 208.735 386.062 205.317C386.062 205.195 386.306 204.584 386.306 204.584C386.062 203.364 385.451 201.777 385.818 200.068C385.818 200.068 385.207 199.091 385.085 198.481C384.963 198.115 384.963 197.871 385.329 197.627C386.428 196.894 387.527 196.162 387.894 195.429C388.993 193.354 381.177 185.298 382.52 181.88Z" fill="#F6BB92"/>
<path d="M381 202.971C381 202.971 382.067 203.231 386.334 202.19C386.734 201.8 387.535 201.019 386.468 200.108C385.668 199.457 383.934 201.93 381 202.971Z" fill="#D6876B"/>
<path d="M381 202.599C381 202.599 382.345 204.095 386.136 203.995C386.625 203.796 386.869 203.397 386.991 203.197C387.114 202.1 385.891 202 385.891 202C381.978 202.898 381 202.599 381 202.599Z" fill="#CC785E"/>
<path d="M350.9 158.697C336.263 162.561 322.48 188.647 349.07 207.849C350.9 209.177 354.437 210.264 357.974 205.675C360.536 202.414 361.878 198.67 361.878 198.67C362.244 197.583 362.61 196.376 363.097 195.047C363.585 193.598 360.658 186.715 362.122 186.111C375.783 180.072 379.93 170.894 378.832 167.15C374.685 158.455 366.513 154.47 350.9 158.697Z" fill="#602F0F"/>
<path d="M358.851 194.983C362.627 200.89 365.342 200.521 369 199.167L364.28 189.569L361.329 186C357.671 187.354 355.075 188.953 358.851 194.983Z" fill="#F6BB92"/>
<path d="M334.344 186.621C330.208 184.675 329.843 177.134 333.615 169.958C337.386 162.782 343.833 158.525 348.091 160.471C352.227 162.417 351.741 168.256 347.97 175.553C344.077 182.729 338.481 188.567 334.344 186.621Z" fill="#4C230C"/>
<path d="M364.275 187.349C363.786 186.247 363.419 185.146 363.296 184.289C363.051 183.066 362.929 182.209 362.929 182.209L359.135 184.901C359.258 185.513 359.502 186.125 359.625 186.737C359.625 186.737 359.992 186.492 360.726 186.003C360.726 186.003 360.604 186.003 360.604 186.125C361.46 186.982 362.562 188.206 363.908 190.164C363.908 190.041 365.866 190.776 364.275 187.349Z" fill="#602F0F"/>
<path d="M331.6 187.104C327.194 185.024 326.949 176.824 331.11 168.869C335.271 160.915 342.247 156.264 346.652 158.345C351.058 160.425 350.324 166.911 346.163 174.744C342.124 182.698 336.005 189.184 331.6 187.104Z" fill="#602F0F"/>
<path d="M330.168 172.983C329.677 172.759 330.291 170.74 331.641 168.61C332.868 166.367 334.341 164.797 334.832 165.021C335.323 165.246 334.709 166.815 333.359 169.058C332.132 171.189 330.659 173.207 330.168 172.983Z" fill="#4C230C"/>
<path d="M89.0134 359.462C89.5031 354.497 110.808 353.287 114.114 351.228C115.706 350.259 117.052 347.353 121.216 346.626C126.725 345.658 130.521 349.533 132.48 349.048C142.398 346.747 164.07 343.478 176.192 340.814C179.008 340.208 181.824 339.603 184.763 339.119C196.762 337.06 193.334 362.49 188.926 362.853C171.294 364.064 134.684 361.642 128.317 361.4C128.317 361.4 108.971 363.822 104.319 363.943C101.625 364.064 88.5236 364.427 89.0134 359.462Z" fill="#F6BB92"/>
<path d="M228.613 335.819C214.402 335.941 197.006 337.043 185 339.125C187.083 342.921 189.778 359.208 189.165 363.004C193.576 362.759 252.257 367.657 261.2 357.738C270.634 347.574 239.761 254.019 242.824 251.815C248.827 247.406 230.206 211.894 220.405 214.098C213.177 217.527 209.992 209.2 198.721 228.303C185 252.059 228.613 335.819 228.613 335.819Z" fill="#3D3C3C"/>
</svg>
