<svg width="500" height="501" viewBox="0 0 500 501" fill="none" xmlns="http://www.w3.org/2000/svg">
<path d="M396.478 393.642C386.378 390.151 370.978 390.318 370.813 385.996C369.488 351.426 366.673 299.572 366.673 299.572C369.157 265.168 387.04 215.307 384.225 202.344C381.41 189.546 355.082 192.205 354.585 205.335C352.93 220.792 350.943 228.105 349.287 244.06C346.803 263.838 343.822 288.768 345.478 300.236C345.644 301.732 356.738 378.351 356.738 378.351C356.738 378.351 357.069 387.825 358.394 392.977C359.884 398.794 363.693 397.464 375.284 398.794C383.894 399.957 403.599 395.968 396.478 393.642Z" fill="#ECAD83"/>
<path d="M236.712 194.682C236.712 194.682 222.638 192.86 211.674 195.179C189.091 199.983 185 217.21 185 217.21C185 217.21 187.127 269.555 198.582 266.905C220.347 261.77 237.693 258.291 248.33 256.138C255.531 254.647 252.258 219.198 252.258 219.198L236.712 194.682Z" fill="#3D3C3C"/>
<path d="M352.948 262.057C372.3 255.267 374.97 248.643 391.152 230.426C393.154 228.108 395.323 213.7 392.987 207.572C390.485 200.782 386.147 194.986 378.807 191.177C364.459 183.89 330.259 212.872 306.903 212.872C291.054 214.528 258.188 196.808 236 195.152C236 195.152 246.51 215.521 248.345 228.936C250.181 242.516 248.012 256.427 248.012 256.427C301.064 262.057 316.079 265.535 336.098 260.732C336.265 260.732 347.443 263.879 352.948 262.057Z" fill="#FF8AA0"/>
<path d="M380.655 398.082C373.847 393.734 355.046 391.559 355.37 387.211C357.801 352.422 367.526 300.239 367.526 300.239C369.957 265.618 387.462 215.442 384.707 202.396C381.951 189.518 356.181 192.194 355.694 205.407C354.073 220.961 352.128 228.321 350.508 244.377C348.076 264.28 345.159 289.368 346.78 300.908C346.942 302.414 341.917 389.05 343.214 394.235C344.673 400.089 348.401 398.751 359.746 400.089C368.012 401.26 386.814 401.929 380.655 398.082Z" fill="#F6BB92"/>
<path d="M397.08 208.142C397.08 208.142 402.219 203.376 412 195.981L400.561 171.002C394.594 183.491 381 191.544 381 191.544C395.257 202.883 392.438 212.579 394.759 218.002L397.08 208.142Z" fill="#ECAD83"/>
<path d="M434.527 154.202C438.524 144.381 432.529 137.057 428.365 133.062C415.709 120.745 405.716 121.91 393.226 125.239C376.906 129.567 382.235 174.343 385.565 181.168C394.392 198.978 422.37 199.478 433.195 196.814C445.019 193.985 441.022 190.822 439.357 186.161C439.357 185.995 439.69 185.162 439.69 185.162C439.357 183.498 438.524 181.334 439.024 179.004C439.024 179.004 438.191 177.672 438.025 176.84C437.858 176.34 437.858 176.007 438.358 175.675C439.857 174.676 441.355 173.677 441.855 172.678C443.354 169.849 432.695 158.863 434.527 154.202Z" fill="#F6BB92"/>
<path d="M432 182.963C432 182.963 433.6 183.31 440.002 181.922C440.602 181.401 441.802 180.36 440.202 179.145C439.001 178.278 436.401 181.575 432 182.963Z" fill="#D6876B"/>
<path d="M432 181.9C432 181.9 434.018 184.144 439.703 183.995C440.437 183.696 440.804 183.097 440.987 182.798C441.171 181.152 439.336 181.002 439.336 181.002C433.467 182.349 432 181.9 432 181.9Z" fill="#CC785E"/>
<path d="M391.909 122.319C372.067 127.595 353.383 163.212 389.429 189.43C391.909 191.244 396.704 192.728 401.499 186.462C404.971 182.01 406.79 176.898 406.79 176.898C407.286 175.414 407.782 173.765 408.443 171.951C409.105 169.973 405.136 160.574 407.12 159.749C425.639 151.505 431.261 138.973 429.773 133.861C424.151 121.989 413.073 116.548 391.909 122.319Z" fill="#602F0F"/>
<path d="M402.468 172.194C407.503 180.21 411.122 179.709 416 177.872L409.706 164.845L405.772 160.002C400.895 161.839 397.433 164.01 402.468 172.194Z" fill="#F6BB92"/>
<path d="M368.682 160.483C362.892 157.816 362.381 147.483 367.66 137.649C372.94 127.815 381.967 121.981 387.928 124.648C393.718 127.315 393.037 135.315 387.757 145.316C382.307 155.15 374.473 163.15 368.682 160.483Z" fill="#4C230C"/>
<path d="M409.724 161.517C409.057 160.017 408.558 158.518 408.391 157.352C408.058 155.686 407.891 154.52 407.891 154.52L402.727 158.185C402.893 159.018 403.226 159.851 403.393 160.684C403.393 160.684 403.893 160.351 404.892 159.684C404.892 159.684 404.726 159.684 404.726 159.851C405.892 161.017 407.391 162.683 409.224 165.349C409.224 165.182 411.89 166.182 409.724 161.517Z" fill="#602F0F"/>
<path d="M365.24 161.183C359.242 158.351 358.909 147.189 364.573 136.36C370.238 125.531 379.734 119.2 385.732 122.032C391.729 124.865 390.73 133.694 385.065 144.357C379.568 155.186 371.238 164.016 365.24 161.183Z" fill="#602F0F"/>
<path d="M363.235 141.978C362.548 141.67 363.407 138.895 365.297 135.965C367.016 132.881 369.078 130.723 369.765 131.031C370.452 131.34 369.593 133.498 367.703 136.582C365.984 139.511 363.922 142.287 363.235 141.978Z" fill="#4C230C"/>
<path d="M35.0183 395.831C35.687 389.079 64.7763 387.432 69.2901 384.632C71.4635 383.314 73.3024 379.362 78.9866 378.374C86.5097 377.056 91.6922 382.326 94.3671 381.668C107.909 378.538 137.5 374.092 154.05 370.469C157.895 369.645 161.741 368.822 165.753 368.163C182.137 365.363 177.455 399.948 171.437 400.442C147.363 402.089 97.3764 398.795 88.683 398.466C88.683 398.466 62.2686 401.76 55.9157 401.924C52.2378 402.089 34.3496 402.583 35.0183 395.831Z" fill="#F6BB92"/>
<path d="M225.269 363.675C205.957 363.842 182.316 365.341 166 368.172C168.83 373.335 172.493 395.484 171.661 400.647C177.654 400.314 257.401 406.975 269.554 393.486C282.374 379.663 240.419 252.427 244.581 249.43C252.739 243.434 227.433 195.138 214.114 198.136C204.292 202.799 199.963 191.474 184.646 217.454C166 249.763 225.269 363.675 225.269 363.675Z" fill="#3D3C3C"/>
</svg>
