<svg width="497" height="497" viewBox="0 0 497 497" fill="none" xmlns="http://www.w3.org/2000/svg">
<path d="M208.385 187.305C221.364 190.101 221.564 206.973 223.561 217.656C225.757 259.489 230.749 285.048 276.076 296.03C273.48 286.845 268.588 276.262 272.781 266.877C277.074 259.788 284.562 255.196 292.949 256.294C309.023 257.891 306.627 276.961 312.617 287.743C313.516 287.643 313.815 287.144 313.915 286.346C314.814 280.755 316.611 274.465 320.305 270.271C320.105 258.291 310.221 248.906 304.53 239.022C295.744 226.242 286.26 213.862 278.372 200.384C270.285 186.506 265.194 171.131 256.508 157.553C248.221 145.572 238.437 132.793 226.256 125.105C212.978 138.584 201.496 169.334 208.385 187.305Z" fill="#FF8AA0"/>
<path d="M208.384 187.305C201.496 169.334 212.977 138.584 226.355 125.105C209.283 113.424 185.022 120.912 173.141 136.687C165.953 145.672 162.259 156.555 158.165 167.237C154.172 175.424 148.181 182.413 143.389 190.2C134.603 202.98 126.716 216.258 119.428 229.836C105.55 245.811 88.8771 261.585 80.9898 281.254C91.1734 284.848 99.1605 292.835 106.549 300.323C139.995 262.284 176.735 226.841 208.384 187.305Z" fill="#3D3C3C"/>
<path d="M312.717 287.743C306.726 277.061 309.222 257.991 293.048 256.294C284.662 255.096 277.174 259.788 272.881 266.877C268.688 276.262 273.58 286.845 276.176 296.03C287.258 317.995 300.137 339.16 313.216 360.027C318.308 368.114 323.399 376.201 329.19 383.788C333.982 390.677 343.168 386.484 350.156 386.883C382.903 384.887 415.95 387.582 448.598 388.88C455.686 386.983 463.673 386.983 469.763 382.59C475.854 377.798 468.865 375.202 464.172 374.503C452.192 372.207 440.011 373.106 428.63 369.711C410.659 368.014 392.089 365.218 373.818 363.421C366.63 362.423 359.341 362.024 352.053 361.325C349.158 361.025 348.659 360.726 347.86 357.73C334.581 335.267 322.301 311.904 312.717 287.743Z" fill="#F6BB92"/>
<path d="M106.549 300.323C99.0609 292.835 91.1736 284.848 80.99 281.254C68.2106 300.523 56.7291 320.99 47.4441 342.056C45.647 349.644 36.4618 353.537 36.6615 361.524C37.0609 373.106 50.5391 370.21 58.5262 371.608C67.0126 372.207 74.8 375.302 82.887 377.199C87.18 377.299 93.8693 378.497 96.5649 374.603C97.9627 371.708 98.0625 368.513 94.8676 366.916C89.5762 364.02 65.6148 359.029 69.3088 350.642C80.1913 332.871 92.6712 315.499 106.549 300.323Z" fill="#F6BB92"/>
<path d="M366.629 331.174C380.806 342.456 390.69 305.416 387.296 294.234C384.7 285.647 378.71 278.759 371.222 274.266C370.423 273.866 370.323 273.267 370.822 272.469C372.819 269.174 374.117 265.18 372.32 261.486C366.829 253.799 354.549 252.201 345.663 253.3C337.077 255.197 328.291 264.082 335.28 272.968C317.808 283.251 317.908 289.142 336.677 294.932C337.776 295.432 340.771 295.831 341.869 295.032C345.863 292.736 351.154 291.837 355.347 293.934C358.642 296.23 354.049 299.725 351.354 299.425C350.156 299.625 347.859 298.726 347.46 300.324C348.558 303.219 353.45 299.725 353.85 303.718C357.244 313.203 361.038 322.788 366.629 331.174Z" fill="#602F0F"/>
<path d="M428.63 369.611C431.126 370.41 434.021 371.408 436.517 370.909C437.016 370.809 437.516 370.71 437.915 371.209C451.393 370.31 492.427 367.115 453.889 358.23C437.516 354.735 421.342 350.243 404.768 347.846C395.184 346.549 385.799 344.652 376.514 342.255C366.63 339.66 355.248 341.656 351.355 331.573C349.458 326.78 341.57 327.978 336.478 330.774C335.081 331.373 334.681 331.173 334.182 329.776C328.791 318.194 321.702 307.012 317.409 295.032C315.313 294.433 316.011 291.338 313.915 290.639C323.2 313.801 335.081 335.966 347.86 357.431C360.34 361.724 374.517 361.524 387.696 363.222C401.374 365.518 415.251 366.117 428.63 369.611Z" fill="#D89D75"/>
<path d="M317.508 295.131C317.508 297.227 318.706 299.024 319.505 300.722C323.798 309.507 327.192 318.493 332.184 326.78C333.482 328.177 333.882 332.271 336.478 330.873C341.569 328.078 346.162 332.071 351.354 331.672C355.447 333.169 359.64 332.67 363.833 331.871C364.732 331.672 366.03 332.371 366.629 331.073C360.938 322.686 357.244 313.202 353.949 303.617C353.55 299.623 348.658 303.118 347.56 300.222C348.558 297.926 353.55 300.821 355.846 297.327C359.141 290.738 344.864 292.335 341.969 294.931C337.875 296.828 327.592 291.137 323.998 288.441C320.803 289.54 319.405 292.734 317.508 295.131Z" fill="#F6BB92"/>
<path d="M317.509 295.131C319.406 292.735 320.804 289.54 324.098 288.642C322.401 285.447 323.399 282.651 325.496 280.155C322.701 277.859 322.301 273.566 320.504 270.371C316.81 274.564 315.013 280.854 314.114 286.445C314.015 287.244 313.715 287.743 312.817 287.843C312.916 288.941 313.715 289.84 314.114 290.838C316.111 291.437 315.412 294.532 317.509 295.131Z" fill="#ECAD83"/>
<path d="M402.273 365.618C384.502 361.425 365.133 363.322 347.861 357.631C348.66 360.626 349.159 360.926 352.054 361.225C368.827 362.223 385.401 365.219 402.174 366.117C402.273 365.917 402.273 365.818 402.273 365.618Z" fill="#FDF7F4"/>
<path d="M402.271 365.617C402.271 365.817 402.271 365.917 402.271 366.116C409.959 367.913 418.146 368.013 425.933 369.711C426.832 369.91 427.73 370.21 428.629 369.611C420.043 367.115 411.157 366.416 402.271 365.617Z" fill="#FBF1EA"/>
<path d="M350.754 279.657C358.841 280.355 366.828 278.558 367.527 273.566C367.527 273.467 367.527 273.467 367.527 273.367C367.527 273.766 367.527 274.165 367.527 274.565C366.928 279.557 358.941 281.354 350.754 280.655C342.667 279.856 337.376 276.961 337.775 271.869C338.175 276.362 343.266 278.858 350.754 279.657Z" fill="#4C230C"/>
<path d="M359.541 255.495C359.741 254.796 356.746 253.898 353.152 253.698C349.557 253.398 346.462 253.698 346.462 254.497C346.263 255.196 348.759 255.795 352.453 256.094C356.047 256.194 359.442 256.194 359.541 255.495Z" fill="#4C230C"/>
</svg>
