<svg width="500" height="500" viewBox="0 0 500 500" fill="none" xmlns="http://www.w3.org/2000/svg">
<path d="M83.8646 308.684C84.2632 307.869 84.6442 307.019 84.9758 306.158C85.5262 304.73 86.2882 303.375 87.0114 302.017C87.9533 300.249 88.9058 298.489 89.9218 296.767C90.6767 295.483 91.5058 294.238 92.3665 293.017C93.6118 291.25 94.9136 289.521 96.1977 287.782C97.6688 285.789 99.3163 283.944 100.996 282.134C103.412 279.527 105.885 276.969 108.661 274.733C110.626 273.149 112.468 271.424 114.546 269.974C115.682 269.18 116.684 268.192 117.714 267.261C118.363 266.675 118.811 265.963 119.22 265.155C120.307 263.003 120.945 260.65 122.243 258.604C122.628 257.052 123.679 255.778 124.081 254.226C124.219 253.693 124.635 253.256 124.865 252.73C125.803 250.568 126.84 248.451 127.761 246.281C128.322 244.962 128.985 243.692 129.525 242.369C129.782 241.741 130.262 241.226 130.407 240.577C130.558 239.9 130.879 239.339 131.215 238.753C131.49 238.273 131.581 237.712 131.85 237.197C132.534 235.885 133.056 234.491 133.673 233.144C134.379 231.609 135.095 230.082 135.846 228.572C136.213 227.834 136.277 226.967 136.845 226.325C137.557 224.176 138.718 222.225 139.579 220.137C139.921 219.304 140.182 218.373 140.828 217.671C140.986 216.581 141.823 215.773 142.027 214.683C142.137 214.097 142.549 213.582 142.796 213.014C143.424 211.561 144.207 210.178 144.821 208.721C145.379 207.398 146.014 206.117 146.617 204.819C147.372 203.196 148.158 201.588 148.91 199.965C150.226 197.125 151.75 194.391 153.221 191.632C154.399 189.427 155.535 187.187 156.946 185.106C157.747 183.924 158.371 182.622 159.077 181.374C159.155 181.239 159.232 181.105 159.317 180.978C161.07 178.262 162.813 175.542 164.577 172.836C165.194 171.887 165.797 170.917 166.524 170.056C167.032 169.457 167.216 168.695 167.769 168.116C168.256 167.608 168.69 167.023 169.057 166.388C169.442 165.724 169.971 165.146 170.447 164.535C170.574 164.373 170.765 164.253 170.86 164.077C171.844 162.246 173.28 160.747 174.536 159.124C175.859 157.416 177.118 155.645 178.695 154.143C180.381 152.534 182.339 151.278 184.216 149.92C185.736 149.44 186.961 148.279 188.569 148.001C189.92 147.175 191.547 147.235 192.965 146.632C193.247 146.512 193.568 146.42 193.868 146.427C195.886 146.47 197.861 145.916 199.883 146.011C200.655 146.046 201.421 146.022 202.186 146.24C202.67 146.378 203.213 146.336 203.728 146.346C204.822 146.367 205.887 146.519 206.893 146.988C207.08 147.076 207.274 147.154 207.471 147.207C209.874 147.814 211.101 148.35 213.317 149.511C214.64 150.206 215.941 150.925 217.176 151.761C217.359 151.885 217.557 151.902 217.765 151.842C220.873 154.009 223.558 156.64 226.066 159.462C226.856 160.348 227.657 161.223 228.31 162.221C229.58 164.165 230.793 166.141 231.873 168.201C232.783 169.94 233.612 171.711 234.36 173.521C235.168 175.475 235.947 177.437 236.738 179.398C236.815 179.589 236.914 179.79 236.918 179.987C236.939 180.851 237.366 181.561 237.725 182.301C238.018 182.898 238.406 183.462 238.406 184.168C237.468 184.418 236.791 185.011 236.198 185.762C235.626 186.489 235.005 187.18 234.374 187.858C230.744 191.728 227.103 195.587 223.473 199.453C220.475 202.646 217.458 205.818 214.502 209.045C213.006 210.682 211.458 212.256 209.796 213.727C209.221 214.235 208.72 214.831 208.184 215.385C207.658 215.526 207.316 215.925 206.938 216.277C205.577 217.547 204.391 218.976 203.199 220.405C202.045 221.788 200.835 223.125 199.675 224.504C197.784 226.748 195.918 229.013 194.03 231.26C193.169 232.287 192.266 233.274 191.399 234.297C189.867 236.104 188.365 237.935 186.83 239.734C185.327 241.498 183.782 243.226 182.279 244.994C180.91 246.599 179.591 248.246 178.222 249.848C176.515 251.845 174.79 253.824 173.051 255.796C172.063 256.918 171.205 258.142 170.225 259.271C168.404 261.366 166.708 263.571 164.937 265.712C163.229 267.776 161.479 269.805 159.779 271.872C158.213 273.78 156.699 275.735 155.14 277.65C154.392 278.568 153.602 279.453 152.819 280.342C152.445 280.769 152.043 281.168 151.76 281.668C151.584 281.982 151.386 282.296 151.136 282.547C149.711 283.972 148.504 285.581 147.241 287.14C145.654 289.098 144.027 291.024 142.422 292.972C141.181 294.481 139.953 296.002 138.711 297.515C137.699 298.75 136.654 299.957 135.663 301.205C134.732 302.38 134.061 303.721 133.384 305.047C133.148 305.509 132.841 305.915 132.612 306.377C131.761 308.12 130.893 309.852 129.99 311.566C129.13 313.2 128.156 314.773 127.345 316.428C126.374 318.41 125.171 320.266 124.279 322.287C123.803 323.363 123.101 324.326 122.596 325.399C121.961 326.747 121.21 328.038 120.494 329.343C119.46 331.234 118.447 333.139 117.46 335.047C116.497 336.914 115.452 338.741 114.514 340.621C113.879 341.895 113.265 343.193 112.45 344.393C111.738 345.444 111.279 346.664 110.693 347.804C109.988 349.173 109.265 350.531 108.549 351.893C107.592 353.706 106.643 355.523 105.684 357.332C105.539 357.604 105.335 357.844 105.204 358.119C104.054 360.518 102.706 362.811 101.482 365.171C100.847 366.392 100.364 367.711 99.4785 368.798C99.0658 369.306 99.2457 369.877 99.3269 370.435C98.8154 370.505 98.3073 370.632 97.7958 370.632C94.7513 370.646 91.6928 370.791 88.6589 370.586C85.3533 370.364 82.0548 370.389 78.7599 370.463C76.6996 370.509 74.6394 370.66 72.5757 370.646C71.8525 370.643 71.1293 370.607 70.4096 370.59C70.2544 369.641 70.78 365.993 71.1116 364.18C71.2139 363.622 71.2951 363.238 71.3374 363.16C71.3374 363.16 73.2742 344.467 77.9061 328.74C82.5381 313.009 83.8716 308.695 83.8716 308.695L83.8646 308.684Z" fill="#6A6D66"/>
<path d="M318.251 278.892C317.566 278.169 317.118 277.287 316.713 276.405C314.437 271.456 311.315 267.018 308.327 262.502C307.103 260.65 305.653 258.971 304.087 257.387C300.774 254.035 297.232 250.977 293.242 248.454C292.808 248.179 292.399 247.855 291.877 247.756C291.559 248.2 291.087 248.401 290.593 248.574C290.155 248.726 289.736 248.902 289.341 249.167C288.656 249.626 287.936 250.035 287.22 250.444C284.638 251.922 282.292 253.735 280.436 256.032C277.791 259.309 275.773 262.975 274.81 267.134C274.541 268.288 274.393 269.469 274.157 270.634C273.804 272.369 273.797 274.123 273.878 275.879C273.935 277.114 274.079 278.349 274.143 279.584C274.196 280.677 274.436 281.725 274.76 282.766C276.055 286.95 278.129 290.753 280.521 294.383C281.996 296.623 283.495 298.859 285.654 300.542C286.06 300.856 286.37 301.286 286.748 301.639C287.076 301.943 287.196 302.32 287.259 302.736C287.591 302.793 287.778 303.029 287.972 303.28C289.358 305.065 290.748 306.846 292.156 308.614C294.657 311.753 296.841 315.112 299.095 318.424C300.252 320.125 301.413 321.818 302.587 323.504C302.859 323.893 303.134 324.259 303.011 324.771C304.432 325.018 305.607 325.678 306.404 326.902C307.36 328.366 308.295 329.844 309.234 331.318C311.364 334.656 313.499 337.993 315.623 341.337C317.58 344.421 319.56 347.49 321.472 350.601C322.174 351.744 322.911 352.856 323.634 353.981C324.925 355.985 324.911 355.995 324.435 358.288C324.414 358.387 324.428 358.493 324.424 358.599C324.925 359.05 325.338 359.576 325.663 360.165C326.312 361.344 327.045 362.462 327.822 363.562C328.562 364.617 329.261 365.707 329.91 366.822C330.982 368.653 332.203 370.378 333.41 372.117C334.203 373.26 334.916 374.463 335.583 375.684C336.108 376.64 336.645 377.571 337.403 378.365C338.112 379.106 338.825 379.836 339.343 380.743C339.629 381.244 340.13 381.544 340.747 381.604C341.104 381.639 341.453 381.791 341.809 381.805C343.513 381.879 345.185 382.217 346.872 382.401C347.997 382.521 349.144 382.493 350.279 382.493C352.297 382.489 354.287 382.785 356.284 383.004C356.439 383.022 356.591 383.064 356.742 383.064C358.912 383.053 361.071 383.212 363.233 383.413C365.495 383.625 367.777 383.59 370.032 383.805C372.459 384.034 374.886 383.925 377.299 384.119C379.878 384.327 382.471 384.196 385.032 384.433C388.133 384.719 391.223 384.641 394.32 384.687C395.35 384.701 396.374 384.729 397.407 384.867C398.681 385.036 399.982 384.997 401.274 384.839C401.835 384.768 402.402 384.712 402.967 384.704C405.189 384.676 407.412 384.669 409.634 384.655C409.79 384.655 409.955 384.616 410.097 384.659C411.448 385.057 412.869 384.881 414.238 385.149C414.739 385.248 415.265 385.265 415.78 385.265C419.759 385.272 423.742 385.265 427.721 385.258C429.267 385.258 430.716 384.796 431.941 383.907C433.549 382.74 434.435 380.725 433.786 378.549C433.398 377.254 432.727 376.104 431.74 375.13C429.609 373.02 427.422 370.985 425.019 369.182C424.031 368.441 423.146 367.57 422.035 366.988C421.431 366.67 420.856 366.406 420.165 366.328C417.604 366.043 415.05 365.721 412.495 365.383C409.74 365.016 406.989 364.596 404.23 364.236C402.187 363.972 400.131 363.788 398.088 363.531C396.197 363.291 394.313 362.998 392.429 362.726C391.512 362.592 390.588 362.543 389.667 362.395C387.632 362.074 385.571 361.926 383.529 361.668C381.638 361.428 379.754 361.142 377.87 360.864C376.953 360.73 376.029 360.687 375.108 360.536C373.178 360.215 371.22 360.073 369.28 359.819C367.238 359.555 365.202 359.244 363.163 358.962C361.53 358.736 359.9 358.465 358.259 358.334C357.437 358.271 357.028 357.886 356.813 357.195C356.707 356.856 356.707 356.486 356.658 356.129C356.114 355.932 355.927 355.438 355.702 354.972C354.689 352.88 353.68 350.788 352.661 348.7C350.107 343.454 347.549 338.208 344.995 332.962C344.815 332.592 344.649 332.211 344.476 331.837C344.254 331.347 344.261 330.863 344.37 330.331C344.744 328.524 345.041 326.704 345.418 324.901C345.538 324.333 345.355 324.037 344.896 323.769C344.363 323.455 343.869 323.074 343.347 322.742C342.822 322.414 342.3 322.051 341.679 321.945C339.996 321.659 338.885 320.71 338.26 319.144C338.109 318.763 337.897 318.403 337.717 318.029C335.96 314.406 334.27 310.748 332.298 307.231C332.097 306.871 331.903 306.501 331.755 306.116C331.519 305.495 331.367 304.892 331.441 304.172C331.596 302.641 331.565 301.092 331.61 299.551C331.663 297.805 331.716 296.058 331.78 294.312C331.812 293.487 331.783 293.423 330.968 293.395C330.143 293.367 329.314 293.388 328.488 293.367C327.663 293.342 326.841 293.282 326.015 293.257C325.394 293.236 325.013 292.961 324.675 292.404C322.251 288.421 320.35 284.18 318.455 279.936C318.304 279.601 318.173 279.273 318.247 278.896L318.251 278.892Z" fill="#F7BB92"/>
<path d="M238.41 184.161C237.471 184.412 236.794 185.004 236.201 185.756C235.63 186.483 235.009 187.174 234.377 187.851C230.747 191.721 227.107 195.581 223.477 199.447C220.478 202.64 217.462 205.811 214.505 209.039C213.01 210.676 211.461 212.25 209.799 213.721C209.224 214.229 208.723 214.825 208.187 215.379C208.247 215.516 208.307 215.654 208.367 215.791C208.448 215.922 208.508 216.077 208.618 216.18C210.635 218.116 211.807 220.6 213.045 223.034C213.419 223.768 213.659 224.569 214.043 225.299C215.172 227.444 216.347 229.564 217.497 231.698C217.864 232.379 218.259 233.053 218.555 233.766C219.547 236.154 220.841 238.394 221.9 240.747C222.828 242.814 223.702 244.91 224.606 246.988C224.81 247.46 225.043 247.923 225.269 248.385C225.498 248.847 225.685 249.316 225.805 249.828C225.943 250.424 226.207 250.995 226.408 251.577C226.609 252.159 226.807 252.745 226.994 253.334C227.057 253.528 227.05 253.754 227.138 253.934C227.953 255.613 228.179 257.493 228.959 259.183C229.001 259.278 229.065 259.37 229.079 259.469C229.382 261.519 230.402 263.367 230.772 265.399C230.966 266.465 231.619 267.389 231.778 268.475C231.986 269.915 232.695 271.199 233.062 272.596C233.57 274.533 234.187 276.445 234.751 278.367C234.914 278.921 235.175 279.419 235.524 279.874C235.563 279.842 235.616 279.817 235.644 279.775C238.628 275.51 241.613 271.241 244.59 266.973C247.099 263.378 249.589 259.772 252.105 256.178C256.334 250.134 260.571 244.098 264.808 238.062C266.406 235.783 267.923 233.445 269.677 231.278C270.326 230.478 270.957 229.666 271.395 228.721C271.352 228.199 270.932 227.931 270.608 227.617C269.352 226.389 268.216 225.059 267.14 223.669C266.509 222.854 265.814 222.096 265.136 221.316C263.549 219.489 261.933 217.686 260.381 215.83C259.393 214.645 258.508 213.375 257.566 212.154C256.024 210.158 254.475 208.168 252.923 206.175C251.78 204.707 250.753 203.158 249.833 201.546C248.647 199.479 247.113 197.662 245.772 195.711C245.628 195.5 245.451 195.309 245.31 195.09C243.437 192.194 241.461 189.358 239.944 186.243C239.567 185.467 239.211 184.641 238.417 184.154L238.41 184.161Z" fill="#F7BB92"/>
<path d="M318.25 278.892C318.173 279.269 318.307 279.597 318.459 279.933C320.353 284.176 322.251 288.417 324.678 292.4C325.017 292.954 325.398 293.232 326.019 293.253C326.844 293.282 327.666 293.342 328.492 293.363C329.317 293.388 330.146 293.363 330.972 293.391C331.79 293.419 331.815 293.483 331.783 294.308C331.716 296.055 331.667 297.801 331.614 299.547C331.568 301.089 331.6 302.637 331.444 304.168C331.37 304.888 331.522 305.491 331.758 306.112C331.907 306.497 332.101 306.867 332.302 307.227C334.274 310.744 335.963 314.403 337.72 318.026C337.9 318.396 338.108 318.756 338.264 319.14C338.888 320.707 339.999 321.656 341.682 321.941C342.299 322.047 342.825 322.411 343.351 322.739C343.876 323.067 344.367 323.451 344.899 323.765C345.358 324.033 345.541 324.33 345.421 324.898C345.044 326.7 344.748 328.521 344.374 330.327C344.264 330.86 344.257 331.343 344.48 331.833C344.649 332.211 344.815 332.588 344.998 332.959C347.552 338.204 350.11 343.45 352.664 348.696C353.68 350.785 354.693 352.877 355.705 354.968C355.931 355.434 356.118 355.925 356.661 356.126C357.151 355.932 357.638 355.738 358.129 355.54C358.291 355.212 358.524 355.088 358.869 355.279C359.247 355.067 359.621 354.856 359.995 354.644C360.118 354.309 360.351 354.192 360.697 354.284C360.983 354.097 361.268 353.91 361.554 353.727C361.678 353.381 361.91 353.258 362.263 353.381C362.708 352.958 363.075 352.45 363.699 352.245C363.886 352.182 364.069 352.058 364.218 351.92C366.144 350.146 368.091 348.389 369.495 346.138C369.985 345.355 370.501 344.586 371.001 343.81C371.337 343.292 371.608 342.745 371.788 342.145C371.936 341.658 372.144 341.182 372.363 340.72C372.649 340.117 372.945 339.531 373.009 338.839C373.062 338.268 373.344 337.771 373.665 337.294C373.951 336.871 374.205 336.426 374.473 335.993C373.989 335.918 373.704 335.657 373.803 335.149C373.912 334.596 374.092 334.066 374.081 333.481C374.053 331.724 374.074 329.967 374.071 328.21C374.071 327.9 374.078 327.586 374.021 327.282C373.584 325.014 373.026 322.774 372.134 320.636C371.696 319.592 371.326 318.481 370.677 317.574C369.541 315.99 368.751 314.177 367.333 312.776C366.239 311.697 365.361 310.406 364.299 309.291C363.628 308.589 362.828 308 362.034 307.439C360.266 306.193 358.45 305.019 356.686 303.773C355.666 303.054 354.618 302.44 353.405 302.098C352.816 301.932 352.272 301.6 351.715 301.336C351.249 301.113 350.801 300.87 350.255 300.87C350.008 300.87 349.732 300.803 349.514 300.686C348.551 300.168 347.39 300.274 346.441 299.702C346.282 299.607 346.035 299.649 345.831 299.649C345.365 299.649 344.917 299.551 344.462 299.459C343.005 299.166 341.53 298.958 340.063 298.707C338.902 298.51 337.734 298.326 336.581 298.09C335.822 297.935 335.082 297.716 334.295 297.776C333.928 297.804 333.586 297.691 333.251 297.536C332.788 297.321 332.496 297.007 332.499 296.474C332.499 295.698 332.478 294.922 332.51 294.149C332.542 293.416 332.813 293.151 333.589 293.137C334.933 293.109 336.277 293.137 337.618 293.126C338.084 293.126 338.571 293.176 339.004 293.056C340.687 292.594 342.395 292.901 344.088 292.841C345.623 293.38 347.249 293.063 348.826 293.38C350.427 293.701 352.054 293.955 353.662 294.262C355.066 294.531 356.52 294.707 357.772 295.504C357.815 295.532 357.868 295.55 357.917 295.554C359.381 295.691 360.478 296.637 361.628 297.37C363.53 298.587 365.325 299.974 367.142 301.321C367.925 301.904 368.814 302.45 369.354 303.223C370.222 304.458 371.358 305.428 372.275 306.613C373.668 308.419 374.889 310.314 375.905 312.342C376.685 313.898 377.366 315.5 377.817 317.204C378.332 319.151 378.77 321.095 378.724 323.123C378.706 323.899 378.692 324.675 378.727 325.448C378.801 326.954 378.516 328.418 378.191 329.872C378.078 330.373 378.177 330.913 377.888 331.378C377.394 332.179 377.429 333.05 377.542 333.932C380.706 333.188 383.007 331.325 384.481 328.464C386.012 325.494 386.901 322.34 387.134 318.989C387.332 316.142 387.395 313.302 386.788 310.504C386.284 308.187 385.677 305.474 384.58 303.35C383.606 301.47 383.13 300.327 382.156 298.45C381.426 297.039 379.641 294.933 378.36 294.033C375.669 291.394 373.245 291.161 370.239 289.941C366.429 288.396 353.68 285.475 352.29 285.305C351.574 285.217 350.875 285.013 350.166 284.875C349.203 284.688 341.4 283.273 339.678 282.931C338.768 282.751 325.878 280.465 321.729 279.633C320.565 279.4 319.408 279.135 318.247 278.885L318.25 278.892Z" fill="#7A4821"/>
<path d="M271.387 228.728C270.95 229.67 270.319 230.481 269.669 231.285C267.916 233.451 266.399 235.79 264.801 238.069C260.564 244.105 256.327 250.141 252.097 256.184C249.586 259.776 247.092 263.381 244.583 266.98C241.606 271.248 238.621 275.517 235.637 279.782C235.609 279.821 235.559 279.849 235.517 279.881C235.425 281.122 235.662 282.347 235.75 283.578C235.806 284.347 235.986 285.109 236.124 285.867C236.459 287.712 237.189 289.416 238.008 291.088C239.126 293.371 240.562 295.438 242.287 297.297C243.765 298.892 245.398 300.324 247.123 301.633C249.794 303.654 252.778 305.02 256.119 305.556C257.904 305.842 259.672 306.219 261.485 306.279C262.102 306.3 262.727 306.364 263.341 306.314C265.249 306.163 267.165 306.131 269.073 306.191C271.881 306.279 274.637 305.94 277.378 305.376C279.805 304.875 282.242 304.441 284.67 303.94C285.615 303.746 286.649 303.683 287.248 302.73C287.185 302.314 287.061 301.936 286.737 301.633C286.359 301.284 286.045 300.853 285.643 300.536C283.484 298.853 281.985 296.616 280.51 294.376C278.118 290.743 276.044 286.943 274.749 282.759C274.428 281.719 274.188 280.671 274.132 279.577C274.072 278.343 273.927 277.108 273.867 275.873C273.786 274.116 273.793 272.363 274.146 270.627C274.382 269.463 274.534 268.285 274.799 267.128C275.762 262.968 277.776 259.303 280.426 256.026C282.281 253.729 284.627 251.912 287.21 250.438C287.926 250.029 288.645 249.619 289.33 249.161C289.725 248.896 290.145 248.72 290.582 248.568C291.076 248.395 291.549 248.194 291.866 247.75C290.261 246.363 288.547 245.125 286.811 243.918C283.964 241.939 281.219 239.837 278.768 237.371C277.78 236.38 276.88 235.318 276.058 234.185C275.056 232.806 274.033 231.441 272.978 230.104C272.545 229.55 272.185 228.865 271.38 228.721L271.387 228.728Z" fill="#8A8AD9"/>
<path d="M98.9282 370.291C98.4414 370.358 97.9546 370.481 97.4677 370.481C94.5644 370.495 91.6504 370.636 88.7612 370.439C85.6108 370.224 82.4676 370.248 79.3279 370.319C77.3664 370.365 75.4014 370.509 73.4365 370.495C72.7486 370.492 72.0606 370.46 71.3692 370.442C71.0129 370.474 70.6601 370.506 70.3038 370.538C69.9757 371.571 69.5876 372.577 69.1396 373.565C68.7127 374.503 68.3882 375.494 68.0107 376.454C67.6121 377.463 67.2099 378.472 66.7972 379.477C65.9893 381.446 65.1814 383.414 64.8639 385.545C64.684 386.755 64.9768 387.923 65.2202 389.09C65.693 391.341 66.9524 393.168 68.3282 394.932C68.7657 395.493 69.3724 395.85 69.9298 396.238C71.0587 397.028 72.3005 397.709 73.6269 398.002C74.7594 398.248 75.9377 398.421 77.1265 398.418C82.1995 398.397 87.2689 398.418 92.3419 398.425C92.9804 398.425 93.6119 398.414 94.2433 398.598C94.6596 398.718 95.1218 398.686 95.5627 398.686C102.851 398.696 110.136 398.696 117.424 398.714C118.416 398.714 119.358 398.499 120.324 398.323C122.138 397.994 123.365 396.823 124.667 395.701C125.26 395.19 125.485 394.467 125.838 393.832C126.699 392.279 127.154 390.551 126.801 388.794C126.491 387.252 125.986 385.739 124.85 384.522C123.654 383.238 122.335 382.19 120.716 381.491C119.598 381.008 118.564 380.32 117.484 379.735C115.678 378.754 113.826 377.847 112.073 376.782C110.559 375.861 108.901 375.212 107.469 374.157C107.271 374.013 107.06 373.879 106.841 373.773C104.887 372.863 102.961 371.896 101.126 370.753C100.925 370.629 100.664 370.605 100.431 370.534C99.9407 370.393 99.4609 370.185 98.9318 370.294L98.9282 370.291Z" fill="#F7BC94"/>
<path d="M377.545 333.935C377.432 333.054 377.397 332.182 377.891 331.381C378.177 330.916 378.081 330.376 378.194 329.875C378.519 328.422 378.804 326.961 378.73 325.451C378.692 324.679 378.709 323.902 378.727 323.126C378.773 321.098 378.335 319.154 377.82 317.207C377.372 315.506 376.688 313.905 375.908 312.345C374.892 310.317 373.672 308.423 372.278 306.616C371.361 305.431 370.225 304.457 369.357 303.226C368.814 302.454 367.928 301.907 367.145 301.325C365.328 299.977 363.533 298.591 361.631 297.374C360.481 296.636 359.384 295.691 357.92 295.557C357.871 295.553 357.818 295.532 357.775 295.507C356.523 294.71 355.07 294.534 353.665 294.266C352.057 293.959 350.43 293.705 348.829 293.384C347.248 293.07 345.622 293.384 344.091 292.844C342.398 292.904 340.694 292.597 339.008 293.059C338.57 293.179 338.083 293.126 337.621 293.13C336.277 293.137 334.933 293.115 333.592 293.14C332.816 293.154 332.545 293.419 332.513 294.153C332.478 294.925 332.502 295.701 332.502 296.477C332.502 297.014 332.795 297.324 333.254 297.539C333.589 297.698 333.928 297.807 334.298 297.779C335.085 297.719 335.825 297.938 336.584 298.093C337.738 298.33 338.905 298.513 340.066 298.711C341.533 298.957 343.004 299.169 344.465 299.462C344.924 299.554 345.368 299.649 345.834 299.652C346.038 299.652 346.289 299.61 346.444 299.705C347.393 300.277 348.554 300.168 349.517 300.69C349.736 300.806 350.007 300.873 350.258 300.873C350.801 300.873 351.252 301.116 351.718 301.339C352.276 301.603 352.819 301.935 353.408 302.101C354.621 302.443 355.669 303.057 356.689 303.776C358.453 305.025 360.269 306.196 362.037 307.442C362.834 308.003 363.635 308.592 364.302 309.294C365.364 310.409 366.242 311.7 367.336 312.779C368.757 314.183 369.544 315.993 370.68 317.577C371.329 318.48 371.699 319.595 372.137 320.639C373.029 322.777 373.587 325.017 374.024 327.286C374.081 327.585 374.074 327.903 374.074 328.213C374.077 329.97 374.056 331.727 374.084 333.484C374.095 334.07 373.915 334.599 373.806 335.153C373.703 335.661 373.993 335.918 374.476 335.996C375.502 335.311 376.533 334.623 377.559 333.939L377.545 333.935Z" fill="#5C3717"/>
<path d="M324.421 358.592C324.421 358.489 324.41 358.383 324.431 358.281C324.907 355.985 324.925 355.978 323.63 353.974C322.907 352.848 322.166 351.737 321.468 350.594C319.559 347.483 317.58 344.413 315.619 341.33C313.495 337.989 311.361 334.652 309.23 331.311C308.288 329.837 307.353 328.358 306.401 326.894C305.6 325.667 304.429 325.011 303.007 324.764C302.608 325.074 302.499 325.533 302.379 325.984C302.467 327.141 302.933 328.168 303.536 329.135C303.861 329.657 304.235 330.151 304.563 330.669C306.319 333.446 308.062 336.229 309.823 339.002C310.867 340.649 311.932 342.283 312.998 343.916C313.142 344.138 313.237 344.364 313.255 344.629C313.439 344.861 313.636 345.087 313.798 345.334C314.172 345.906 314.719 346.382 314.811 347.116C314.973 347.416 315.135 347.715 315.298 348.015C315.844 348.28 316.056 348.83 316.356 349.292C317.831 351.578 319.273 353.886 320.741 356.175C321.235 356.948 321.775 357.696 322.29 358.454C322.992 358.655 323.704 358.726 324.428 358.595L324.421 358.592Z" fill="#DEA881"/>
<path d="M313.251 344.629C313.237 344.368 313.142 344.138 312.994 343.916C311.928 342.283 310.863 340.649 309.819 339.002C308.058 336.229 306.316 333.446 304.559 330.669C304.231 330.147 303.857 329.657 303.532 329.135C302.933 328.168 302.467 327.141 302.375 325.984C302.093 326.14 301.91 326.39 301.79 326.676C301.225 327.995 300.654 329.308 300.371 330.726C300.297 331.086 300.259 331.428 300.361 331.784C301.197 334.627 302.573 337.178 304.527 339.408C304.622 339.517 304.781 339.573 304.912 339.651C305.769 339.609 306.312 340.219 306.937 340.649C308.669 341.845 310.394 343.048 312.105 344.276C312.465 344.533 312.828 344.646 313.255 344.625L313.251 344.629Z" fill="#F7BD96"/>
<path d="M322.283 358.45C321.765 357.692 321.228 356.944 320.735 356.171C319.267 353.882 317.824 351.575 316.349 349.289C316.05 348.827 315.838 348.276 315.291 348.012C315.097 348.361 315.189 348.693 315.319 349.042C315.771 350.245 315.972 351.501 316.081 352.778C316.155 353.642 316.286 354.499 316.42 355.357C316.642 356.764 317.482 357.72 318.826 358.055C319.944 358.334 321.087 358.708 322.283 358.454V358.45Z" fill="#F6BE97"/>
<path d="M313.252 344.629C312.829 344.65 312.465 344.537 312.102 344.279C310.391 343.052 308.666 341.849 306.934 340.653C306.313 340.222 305.77 339.612 304.909 339.654C305.918 341.126 307.308 342.191 308.722 343.217C310.264 344.336 311.855 345.384 313.421 346.467C313.845 346.759 314.261 347.07 314.801 347.116C314.709 346.382 314.162 345.909 313.788 345.334C313.626 345.087 313.428 344.865 313.245 344.629H313.252Z" fill="#F6BE97"/>
<path d="M362.253 353.379C361.9 353.255 361.667 353.379 361.544 353.724C362.059 353.943 362.101 353.922 362.253 353.379Z" fill="#F7BB92"/>
<path d="M360.687 354.282C360.344 354.186 360.108 354.306 359.984 354.641C360.531 354.867 360.542 354.864 360.687 354.282Z" fill="#F7BB92"/>
<path d="M358.858 355.275C358.513 355.088 358.28 355.212 358.118 355.536C358.615 355.801 358.661 355.783 358.858 355.275Z" fill="#F7BB92"/>
</svg>
