<svg width="501" height="501" viewBox="0 0 501 501" fill="none" xmlns="http://www.w3.org/2000/svg">
<path d="M94.4339 354.399C89.603 354.257 86.193 352.267 80.2255 351.557C72.8371 350.562 60.4758 351.699 59.3392 350.136C56.4975 345.874 59.9075 338.912 63.7438 335.928C66.7275 333.654 70.1375 332.234 71.4163 330.244C78.0942 320.441 101.396 293.871 109.637 282.22C111.484 279.521 113.615 276.821 115.746 274.121C124.556 263.039 135.212 285.914 131.66 289.608C117.451 304.385 86.193 334.081 80.5097 338.912C80.5097 338.912 114.752 347.579 110.774 351.273C108.642 353.404 100.259 354.541 94.4339 354.399Z" fill="#ECAD83"/>
<path d="M442.825 343.602C443.251 339.34 428.19 336.924 413.982 334.651C408.725 333.798 399.347 331.383 399.347 331.383C382.865 319.022 372.919 309.786 372.919 309.786C354.022 287.053 324.753 243.007 315.376 236.755C305.998 230.504 291.363 247.838 298.894 256.221C306.424 264.604 313.671 272.987 321.769 280.659C332.71 295.294 353.312 315.612 360.132 322.858C371.214 334.651 385.565 339.908 385.565 339.908C385.565 339.908 397.926 347.581 402.615 349.428C407.446 351.275 413.982 352.696 420.233 351.275C425.064 349.996 442.256 348.859 442.825 343.602Z" fill="#ECAD83"/>
<path d="M264.643 268.822C276.79 281.329 289.925 273.796 309.84 279.908C312.382 280.618 324.246 277.207 328.201 273.228C332.579 268.822 336.392 263.421 335.969 256.457C335.686 251.056 331.873 237.127 304.19 218.935C292.043 209.696 272.694 191.93 248.259 171.89C239.361 170.327 216.057 157.109 216.057 157.109C204.617 154.693 196.001 193.92 196.001 193.92C231.311 233.432 248.966 241.533 259.7 255.462C259.7 255.462 261.112 265.268 264.643 268.822Z" fill="#FF8AA0"/>
<path d="M319.518 281.611C319.518 281.611 331.727 287.09 341.947 293.002L356.001 279.881C345.212 274.69 335.985 262.002 335.985 262.002C325.055 276.421 315.544 277.43 311.001 279.593L319.518 281.611Z" fill="#ECAD83"/>
<path d="M374.606 316.049C382.225 320.933 389.139 316.768 393.09 313.895C405.224 304.845 405.648 296.227 404.66 285.166C403.249 270.659 365.153 268.648 358.944 270.659C342.718 275.542 338.485 299.243 339.049 308.867C339.755 319.353 343 316.337 347.092 315.619C347.233 315.619 347.939 316.049 347.939 316.049C349.35 315.906 351.325 315.619 353.159 316.48C353.159 316.48 354.429 316.049 355.135 315.906C355.558 315.762 355.84 315.906 356.122 316.337C356.828 317.773 357.392 319.21 358.098 319.784C360.214 321.364 371.079 313.751 374.606 316.049Z" fill="#F6BB92"/>
<path d="M351.226 310.002C351.226 310.002 350.8 310.896 351.12 315.11C351.333 315.621 351.865 316.515 352.824 315.621C353.569 314.983 351.759 312.939 351.226 310.002Z" fill="#D6876B"/>
<path d="M351.001 310.002C351.001 310.002 348.715 311.348 348.001 316.562C348.144 317.235 348.715 317.739 349.001 317.908C350.43 318.412 350.858 316.73 350.858 316.73C350.572 311.348 351.001 310.002 351.001 310.002Z" fill="#CC785E"/>
<path d="M407.718 283.981C405.985 266.163 378.115 244.723 350.1 271.957C348.223 273.84 346.201 277.752 350.822 282.822C354.144 286.444 358.331 288.761 358.331 288.761C359.631 289.486 360.931 290.21 362.375 290.934C363.963 291.804 372.628 289.776 373.061 291.514C377.393 308.753 387.357 315.417 392.122 314.982C403.097 311.795 409.451 302.958 407.718 283.981Z" fill="#602F0F"/>
<path d="M363.211 285.427C355.58 288.944 355.58 292.313 356.3 297.002L368.25 293.193L373.001 290.262C372.137 285.427 370.841 281.911 363.211 285.427Z" fill="#F6BB92"/>
<path d="M377.881 259.691C380.975 255.291 389.552 256.426 397.004 262.105C404.456 267.925 407.971 276.158 404.878 280.559C401.785 284.959 395.176 283.114 387.724 277.436C380.272 271.616 374.788 264.092 377.881 259.691Z" fill="#4C230C"/>
<path d="M371.499 293.59C372.919 293.164 374.198 293.022 375.193 293.022C376.614 292.88 377.608 293.022 377.608 293.022L375.335 288.049C374.624 288.049 373.772 288.191 373.062 288.191C373.062 288.191 373.346 288.759 373.63 289.612V289.47C372.493 290.322 370.93 291.317 368.373 292.453C368.373 292.595 367.094 294.727 371.499 293.59Z" fill="#602F0F"/>
<path d="M378.178 256.223C381.445 251.534 390.823 252.955 399.064 259.207C407.305 265.601 411.425 274.41 408.015 279.099C404.747 283.787 397.501 281.656 389.26 275.404C381.019 269.153 374.768 260.912 378.178 256.223Z" fill="#602F0F"/>
<path d="M393.062 258.143C393.565 257.595 396.249 258.691 399.268 260.611C402.287 262.53 404.3 264.449 403.965 264.86C403.461 265.408 401.281 264.312 398.262 262.53C395.243 260.748 392.559 258.691 393.062 258.143Z" fill="#4C230C"/>
<path d="M470.96 368.609C471.386 364.346 456.751 361.931 442.117 359.658C436.86 358.805 427.482 356.39 427.482 356.39C389.972 333.514 373.774 316.038 373.774 316.038C354.877 293.305 324.898 243.007 315.52 236.755C306.143 230.504 291.508 247.838 299.038 256.221C305.29 266.877 310.547 273.981 320.919 284.922C339.39 307.655 354.309 321.863 360.987 329.11C372.069 340.903 413.7 365.057 413.7 365.057C413.7 365.057 426.061 372.729 430.75 374.576C435.581 376.424 442.117 377.844 448.368 376.424C453.199 375.145 470.391 374.008 470.96 368.609Z" fill="#F6BB92"/>
<path d="M67.8675 375.285C63.0366 375.143 59.6266 373.154 53.6591 372.443C46.2707 371.449 33.9094 372.585 32.7728 371.023C29.9311 366.76 33.3411 359.798 37.1774 356.814C40.1611 354.541 43.5711 353.12 44.8499 351.131C51.5278 341.327 74.8296 314.757 83.0704 303.106C84.9175 300.407 87.0488 297.707 89.1801 295.008C97.9892 283.925 114.897 308.648 111.345 312.342C97.1367 327.119 59.6266 354.967 53.9433 359.656C53.9433 359.656 88.1855 368.323 84.2071 372.017C82.0759 374.29 73.6929 375.427 67.8675 375.285Z" fill="#F6BB92"/>
<path d="M120.862 261.334C108.785 272.559 98.129 283.925 89.4619 295.008C94.1507 296.571 109.212 308.648 111.627 312.342C115.179 308.648 144.306 281.652 144.306 281.652C153.542 273.127 208.386 223.398 220.463 203.79C223.731 198.817 226.289 194.271 228.136 190.15C231.83 182.336 193.325 156.192 184.516 163.865C169.597 184.041 149.279 226.95 143.028 236.612C136.918 246.415 120.862 261.334 120.862 261.334Z" fill="#3D3C3C"/>
<path d="M248.596 171.822C225.578 150.225 213.927 151.362 201.282 153.919C201.282 153.919 189.347 156.761 181.959 163.013C166.756 175.942 167.182 192.85 167.182 192.85C167.182 192.85 193.467 229.366 201.14 222.546C207.392 217.005 213.217 211.89 218.474 207.485C224.442 202.37 248.596 171.822 248.596 171.822Z" fill="#3D3C3C"/>
</svg>
