<svg width="500" height="500" viewBox="0 0 500 500" fill="none" xmlns="http://www.w3.org/2000/svg">
<path d="M102.307 350.859C114.53 327.763 126.338 304.425 139.202 281.69C143.836 273.494 150.914 266.657 157.036 259.334C175.869 236.807 194.771 214.342 213.67 191.877C214.647 190.718 215.474 189.338 217.007 188.748C217.269 188.116 217.369 187.318 217.814 186.869C227.373 177.368 236.97 167.908 246.559 158.44C243.45 141.491 234.809 128.59 219.002 121.009C205.918 114.733 190.544 118.565 181.438 129.812C165.457 149.541 153.874 171.761 143.687 194.841C136.829 210.381 129.692 225.801 122.776 241.32C121.351 244.521 118.479 246.096 115.985 248.058C95.2617 264.371 83.1919 285.693 78.7363 311.561C76.6665 323.573 74.26 335.527 72.0364 347.513C71.8328 348.611 71.8494 349.749 71.7621 350.867C81.9408 350.867 92.1154 350.863 102.294 350.859H102.307Z" fill="#6A6D66"/>
<path d="M282.049 280.584C285.183 288.165 285.49 286.203 279.356 291.943C275.977 295.102 272.627 298.298 269.41 301.615C265.258 305.9 264.672 311.133 268.022 316.166C270.303 319.595 272.377 322.7 269.002 326.598C268.088 327.654 265.104 330.779 268.096 332.039C272.099 333.726 278.18 332.924 282.116 334.873C286.796 337.193 289.676 340.858 293.695 345.123C293.238 340.326 291.409 335.792 292.706 330.671C295.482 319.695 297.573 308.543 300.012 297.479C301.164 292.251 302.465 287.055 303.707 281.806C305.262 282.325 305.545 283.331 306.01 284.175C313.845 298.439 321.737 312.671 329.456 326.997C331.018 329.894 333.321 332.558 333.358 336.137C339.672 339.154 344.227 344.449 349.505 348.78C361.766 358.843 373.836 369.142 385.914 379.429C387.531 380.804 389.14 381.378 391.235 381.366C403.047 381.291 414.863 381.287 426.675 381.357C430.27 381.378 433.184 380.567 433.907 376.548C434.493 373.294 432.282 370.784 428.018 369.649C420.158 367.558 412.294 365.488 404.431 363.427C402.215 362.845 400.358 361.831 398.72 360.119C378.915 339.383 358.982 318.772 339.269 297.949C335.279 293.734 333.52 287.982 331.264 282.729C321.658 260.376 308.051 241.087 288.861 225.925C283.259 229.894 277.876 233.921 274.177 240.056C267.348 251.386 268.333 263.435 277.706 272.608C280.05 274.902 281.268 277.567 282.062 280.584H282.049Z" fill="#F6BB92"/>
<path d="M246.563 158.44C236.974 167.908 227.377 177.368 217.818 186.869C217.369 187.314 217.269 188.112 217.011 188.748C224.642 208.611 228.89 229.326 232.444 250.211C232.506 250.581 232.888 250.901 233.121 251.242C233.47 251.013 233.894 250.851 234.156 250.552C245.598 237.439 257.153 224.421 268.35 211.105C270.524 208.519 273.745 206.549 274.563 202.888C272.257 196.84 268.117 191.878 264.734 186.479C258.824 177.044 252.635 167.775 246.567 158.44H246.563Z" fill="#F6BB92"/>
<path d="M274.559 202.887C273.744 206.553 270.523 208.518 268.345 211.104C257.148 224.42 245.593 237.442 234.151 250.551C233.889 250.854 233.465 251.016 233.116 251.241C231.009 265.177 241.886 280.622 260.631 280.692C267.767 280.721 274.908 280.622 282.044 280.58C281.25 277.563 280.032 274.898 277.688 272.604C268.316 263.427 267.331 251.378 274.16 240.052C277.859 233.913 283.241 229.89 288.844 225.921C284.251 218.136 280.174 210.031 274.554 202.887H274.559Z" fill="#8A8AD9"/>
<path d="M102.307 350.859C92.1283 350.859 81.9537 350.864 71.775 350.868C69.0859 355.652 67.0992 360.776 65.4866 365.963C63.2131 373.266 69.1815 380.922 76.8997 381.354C91.7833 382.185 106.679 381.965 121.571 381.994C127.353 382.007 130.994 379.292 132.241 374.334C133.309 370.086 131.434 366.558 126.434 363.831C118.421 359.459 110.354 355.178 102.307 350.859Z" fill="#F6BB92"/>
<path d="M333.346 336.142C333.308 332.564 331.006 329.9 329.443 327.003C321.725 312.676 313.832 298.445 305.997 284.181C305.532 283.333 305.249 282.331 303.695 281.812C302.452 287.061 301.151 292.256 300 297.485C297.564 308.549 295.474 319.7 292.693 330.677C291.396 335.797 293.225 340.332 293.682 345.128C300.819 350.893 312.14 350.972 320.715 345.174C325 342.277 329.14 339.16 333.342 336.142H333.346Z" fill="#7A4821"/>
<path d="M302.29 282.63C295.029 280.061 287.773 277.493 280.512 274.924C279.007 274.392 279.655 271.982 281.177 272.518C288.438 275.086 295.694 277.655 302.955 280.223C304.46 280.755 303.812 283.166 302.29 282.63Z" fill="#D3A886"/>
</svg>
