<svg width="500" height="500" viewBox="0 0 500 500" fill="none" xmlns="http://www.w3.org/2000/svg">
<path d="M129.75 333.514C126.013 333.405 123.374 331.866 118.758 331.316C113.042 330.547 103.478 331.426 102.599 330.217C100.4 326.919 103.039 321.533 106.006 319.224C108.315 317.466 110.953 316.366 111.942 314.827C117.109 307.243 135.136 286.687 141.512 277.673C142.941 275.585 144.59 273.496 146.238 271.408C153.054 262.834 161.298 280.531 158.55 283.389C147.558 294.821 123.374 317.795 118.977 321.533C118.977 321.533 145.469 328.238 142.391 331.096C140.742 332.745 134.257 333.624 129.75 333.514Z" fill="#ECAD83"/>
<path d="M399.282 325.16C399.612 321.863 387.96 319.994 376.968 318.235C372.901 317.576 365.646 315.707 365.646 315.707C352.895 306.144 345.2 298.998 345.2 298.998C330.58 281.411 307.936 247.334 300.681 242.498C293.426 237.661 282.104 251.072 287.93 257.557C293.756 264.043 299.362 270.528 305.627 276.464C314.092 287.786 330.031 303.505 335.307 309.111C343.881 318.235 354.983 322.302 354.983 322.302C354.983 322.302 364.547 328.238 368.174 329.667C371.911 331.096 376.968 332.195 381.805 331.096C385.542 330.107 398.843 329.227 399.282 325.16Z" fill="#ECAD83"/>
<path d="M261.443 267.365C270.9 277.025 281.126 271.207 296.631 275.927C298.611 276.476 307.848 273.841 310.927 270.768C314.336 267.365 317.305 263.193 316.975 257.815C316.755 253.643 313.786 242.885 292.233 228.834C282.776 221.699 267.711 207.977 248.687 192.499C241.759 191.292 223.615 181.083 223.615 181.083C214.708 179.217 208 209.514 208 209.514C235.491 240.031 249.237 246.288 257.594 257.046C257.594 257.046 258.694 264.62 261.443 267.365Z" fill="#FF8AA0"/>
<path d="M303.625 277.181C303.625 277.181 313.12 281.423 321.069 286L332 275.842C323.609 271.823 316.432 262 316.432 262C307.931 273.163 300.533 273.944 297 275.619L303.625 277.181Z" fill="#ECAD83"/>
<path d="M346.513 303.917C352.401 307.726 357.743 304.477 360.796 302.236C370.173 295.178 370.5 288.455 369.737 279.828C368.646 268.512 339.208 266.944 334.411 268.512C321.872 272.322 318.601 290.808 319.037 298.315C319.583 306.494 322.09 304.141 325.252 303.581C325.361 303.581 325.906 303.917 325.906 303.917C326.997 303.805 328.523 303.581 329.94 304.253C329.94 304.253 330.922 303.917 331.467 303.805C331.794 303.693 332.012 303.805 332.23 304.141C332.775 305.262 333.211 306.382 333.757 306.83C335.392 308.063 343.787 302.124 346.513 303.917Z" fill="#F6BB92"/>
<path d="M328.225 299C328.225 299 327.799 299.745 328.119 303.257C328.332 303.683 328.864 304.428 329.823 303.683C330.568 303.151 328.758 301.448 328.225 299Z" fill="#D6876B"/>
<path d="M328 299C328 299 326.476 300.009 326 303.92C326.095 304.425 326.476 304.803 326.667 304.929C327.619 305.308 327.905 304.046 327.905 304.046C327.714 300.009 328 299 328 299Z" fill="#CC785E"/>
<path d="M371.783 279.18C370.455 265.498 349.087 249.035 327.61 269.948C326.17 271.394 324.62 274.397 328.163 278.29C330.709 281.071 333.92 282.851 333.92 282.851C334.916 283.407 335.913 283.963 337.02 284.52C338.238 285.187 344.88 283.63 345.213 284.965C348.534 298.202 356.173 303.318 359.826 302.985C368.24 300.538 373.112 293.752 371.783 279.18Z" fill="#602F0F"/>
<path d="M337.513 280.096C331.678 282.801 331.678 285.393 332.228 289L341.367 286.07L345 283.816C344.339 280.096 343.349 277.391 337.513 280.096Z" fill="#F6BB92"/>
<path d="M348.698 260.069C351.151 256.684 357.954 257.557 363.864 261.925C369.775 266.402 372.563 272.735 370.109 276.121C367.656 279.506 362.415 278.086 356.504 273.718C350.594 269.241 346.245 263.454 348.698 260.069Z" fill="#4C230C"/>
<path d="M344.101 286.468C345.2 286.138 346.189 286.028 346.959 286.028C348.058 285.918 348.827 286.028 348.827 286.028L347.069 282.181C346.519 282.181 345.859 282.291 345.31 282.291C345.31 282.291 345.53 282.73 345.749 283.39V283.28C344.87 283.939 343.661 284.709 341.682 285.588C341.682 285.698 340.693 287.347 344.101 286.468Z" fill="#602F0F"/>
<path d="M349.267 257.558C351.795 253.93 359.05 255.029 365.425 259.866C371.801 264.813 374.989 271.628 372.351 275.255C369.822 278.883 364.216 277.234 357.841 272.397C351.465 267.561 346.629 261.185 349.267 257.558Z" fill="#602F0F"/>
<path d="M361.044 259.101C361.41 258.709 363.362 259.492 365.558 260.863C367.754 262.234 369.217 263.605 368.973 263.899C368.608 264.29 367.022 263.507 364.826 262.234C362.63 260.961 360.678 259.492 361.044 259.101Z" fill="#4C230C"/>
<path d="M421.047 344.507C421.377 341.209 410.055 339.34 398.733 337.582C394.666 336.922 387.411 335.053 387.411 335.053C358.391 317.356 345.859 303.835 345.859 303.835C331.24 286.247 308.046 247.334 300.791 242.498C293.536 237.661 282.214 251.072 288.04 257.557C292.876 265.802 296.944 271.298 304.968 279.762C319.258 297.35 330.8 308.342 335.966 313.948C344.54 323.072 376.748 341.759 376.748 341.759C376.748 341.759 386.311 347.695 389.939 349.124C393.676 350.553 398.733 351.652 403.569 350.553C407.307 349.563 420.607 348.684 421.047 344.507Z" fill="#F6BB92"/>
<path d="M109.194 349.673C105.457 349.563 102.819 348.024 98.2019 347.475C92.4859 346.705 82.9225 347.585 82.0432 346.376C79.8447 343.078 82.4829 337.692 85.4508 335.383C87.7592 333.624 90.3973 332.525 91.3867 330.986C96.5531 323.402 114.581 302.846 120.956 293.832C122.385 291.744 124.034 289.655 125.683 287.566C132.498 278.992 145.579 298.119 142.831 300.977C131.839 312.409 102.819 333.954 98.4218 337.582C98.4218 337.582 124.913 344.287 121.835 347.145C120.187 348.904 113.701 349.783 109.194 349.673Z" fill="#F6BB92"/>
<path d="M150.195 261.515C140.852 270.199 132.608 278.993 125.902 287.567C129.53 288.776 141.182 298.12 143.05 300.978C145.798 298.12 168.333 277.234 168.333 277.234C175.478 270.639 217.908 232.166 227.252 216.996C229.78 213.149 231.759 209.631 233.188 206.444C236.046 200.398 206.256 180.172 199.441 186.108C187.899 201.717 172.18 234.914 167.344 242.389C162.617 249.973 150.195 261.515 150.195 261.515Z" fill="#3D3C3C"/>
<path d="M249.017 192.263C231.209 175.555 222.196 176.434 212.412 178.413C212.412 178.413 203.179 180.611 197.463 185.448C185.701 195.451 186.031 208.532 186.031 208.532C186.031 208.532 206.367 236.782 212.302 231.506C217.139 227.219 221.646 223.262 225.713 219.854C230.33 215.897 249.017 192.263 249.017 192.263Z" fill="#3D3C3C"/>
</svg>
