<svg width="500" height="500" viewBox="0 0 500 500" fill="none" xmlns="http://www.w3.org/2000/svg">
<path d="M75.2217 282.262C76.527 283.391 78.0793 283.814 79.7021 284.132C106.337 289.353 132.972 294.645 159.608 299.795C165.111 300.854 170.72 301.524 176.259 302.335C177.6 302.547 178.834 302.018 180.104 301.665C198.378 296.444 216.617 291.152 234.892 286.107C244.134 283.567 253.519 281.451 262.338 277.535C263.502 277.041 264.631 276.476 265.76 275.947C266.713 275.03 267.524 274.007 268.23 272.878C271.652 267.375 275.144 261.871 278.531 256.368C282.87 249.347 287.209 242.292 291.196 235.06C290.208 232.766 288.268 231.355 286.257 230.156C279.554 226.099 272.145 224.123 264.384 223.559C259.304 223.171 254.542 224.794 249.991 226.663C238.949 231.179 228.788 237.494 218.17 242.891C208.151 248.007 198.096 253.122 188.112 258.308C183.209 260.848 177.846 262.189 172.943 264.729C172.061 265.187 171.179 264.87 170.262 264.623C164.3 263.071 158.479 260.989 152.376 260.037C141.721 258.379 131.032 258.167 120.307 259.19C107.643 260.389 95.0129 261.659 82.348 262.859C80.9016 263 79.4199 262.965 78.0087 262.683C77.7265 264.376 77.4443 266.069 77.162 267.727C76.527 271.502 76.2801 275.312 75.2217 278.981C74.9748 280.181 74.7631 281.168 75.2217 282.262Z" fill="#696D66"/>
<path d="M368.737 297.608C372.406 296.444 376.075 295.068 377.486 291.152C378.298 288.929 379.285 288.753 381.12 289.494C381.684 289.705 382.249 289.917 382.849 289.952C386.447 290.199 388.528 292.246 390.222 295.315C392.303 299.054 394.949 302.441 397.418 305.969C400.1 309.814 403.028 309.426 406.026 307.486C408.849 305.651 410.824 306.322 413.364 307.768C418.092 310.449 417.739 311.084 420.314 306.004C421.655 303.429 423.101 300.889 424.23 298.208C424.583 297.396 425.183 297.008 425.888 296.62C428.569 295.174 431.215 293.692 433.896 292.246C434.461 291.928 435.166 291.681 435.025 290.799C434.39 290.129 433.755 289.494 433.12 288.824C429.98 285.402 426.841 281.98 423.771 278.522C422.466 277.041 420.984 276.511 419.009 276.935C416.151 277.534 413.258 277.887 410.401 278.416C408.919 278.699 407.826 278.593 406.908 277.111C405.638 275.03 404.086 273.089 402.604 271.149C401.864 270.161 401.158 269.138 399.676 268.997C394.843 268.538 390.292 266.951 385.636 265.787C383.095 265.54 380.697 264.446 378.086 264.552C378.615 270.585 378.968 276.582 377.521 282.897C373.676 277.676 368.42 275.382 362.846 273.548C356.989 271.608 351.027 270.161 345.101 268.503C337.198 266.281 329.296 264.129 321.253 262.506C319.771 263.564 318.007 263.494 316.349 263.811C311.727 264.658 308.376 267.833 308.023 271.89C307.529 277.217 309.152 282.015 311.516 286.707C312.645 288.965 314.867 290.729 314.797 293.551C317.831 298.948 320.9 304.381 323.934 309.779C327.955 316.305 332.612 322.444 335.858 329.464C338.363 334.897 342.702 337.296 348.487 337.508C353.391 337.684 358.26 337.437 363.163 337.755C366.127 337.966 369.196 337.684 371.559 335.461C375.37 331.934 374.735 328.406 370.325 326.113C366.056 323.89 361.47 322.267 357.025 320.433C355.402 319.763 354.061 318.916 353.144 317.293C351.627 314.506 349.863 311.896 348.205 309.179C344.607 304.205 341.538 298.913 338.363 293.692C333.917 293.41 330.107 291.152 326.121 289.564C325.521 289.317 324.921 288.753 325.274 287.977C325.662 287.13 326.403 287.271 327.144 287.518C330.566 288.682 333.953 289.952 337.198 291.575C337.939 291.928 338.609 292.351 338.645 293.269C338.962 293.339 339.28 293.445 339.597 293.516C347.747 295.985 355.896 298.349 364.539 297.996C365.985 297.925 367.361 297.714 368.737 297.608Z" fill="#F6BA92"/>
<path d="M291.266 235.06C287.28 242.292 282.976 249.347 278.601 256.368C275.179 261.871 271.722 267.375 268.3 272.878C267.594 274.007 266.783 275.03 265.83 275.947C281 284.661 296.135 293.375 311.304 302.088C311.516 302.23 311.798 302.265 312.045 302.371C312.257 299.513 313.209 296.832 313.809 294.045C312.856 294.01 312.221 293.481 311.728 292.704C307.847 286.919 304.813 280.851 304.884 273.619C304.954 267.233 308.482 262.506 314.656 261.13C316.525 260.707 318.536 259.896 320.371 261.342C320.97 258.59 320.97 255.733 322.029 253.087C321.782 252.417 321.217 252.346 320.618 252.205C314.797 250.758 309.434 248.36 304.566 244.796C300.438 241.762 295.888 239.293 292.254 235.553C292.078 235.307 291.619 235.236 291.266 235.06Z" fill="#F6BB92"/>
<path d="M385.706 265.752C390.363 266.916 394.949 268.503 399.747 268.962C401.229 269.103 401.934 270.126 402.675 271.114C404.157 273.054 405.709 274.995 406.979 277.076C407.896 278.558 408.99 278.664 410.472 278.381C413.329 277.852 416.222 277.499 419.08 276.9C421.055 276.476 422.537 277.006 423.842 278.487C426.947 281.945 430.087 285.367 433.191 288.789C433.791 289.459 434.461 290.094 435.096 290.764C435.202 290.623 435.343 290.517 435.449 290.376C435.484 289.494 435.661 288.789 436.789 288.93L436.754 288.965C436.613 288.083 437.177 287.483 437.636 286.848C438.977 284.978 440.529 283.179 441.305 280.992C442.893 276.582 443.81 272.102 443.14 267.304C442.61 263.6 441.481 260.178 439.576 257.144C437.107 253.122 434.073 249.418 430.122 246.631C429.593 246.243 429.099 245.784 429.099 245.008C428.57 244.938 428.04 244.973 427.547 244.832C421.902 243.103 416.187 242.221 410.366 243.844C409.484 244.091 408.602 244.373 407.65 244.197C407.72 244.973 407.297 245.361 406.662 245.714C405.074 246.596 403.451 247.442 401.97 248.501C397.031 252.064 392.374 255.98 388.917 261.095C388.599 261.554 388.176 262.048 387.541 262.118C386.447 263.141 385.812 264.305 385.706 265.752Z" fill="#7A461F"/>
<path d="M387.47 262.188C388.14 262.118 388.529 261.624 388.846 261.165C392.303 256.05 396.96 252.134 401.899 248.571C403.381 247.512 405.004 246.666 406.591 245.784C407.226 245.431 407.649 245.043 407.579 244.267C406.027 242.997 406.485 242.115 408.073 241.233C415.905 236.823 422.184 237.917 429.698 241.762C430.827 242.362 430.616 243.032 430.051 243.808C429.734 244.232 429.381 244.62 429.063 245.043C429.063 245.784 429.557 246.278 430.086 246.666C434.038 249.453 437.036 253.157 439.541 257.179C441.411 260.213 442.575 263.635 443.104 267.339C443.774 272.172 442.857 276.617 441.27 281.027C440.494 283.214 438.941 285.013 437.601 286.883C437.142 287.518 436.578 288.118 436.719 289C441.622 283.884 444.127 277.781 444.057 270.726C443.986 260.636 438.835 253.192 431.568 246.877C429.557 245.149 429.522 244.69 431.709 243.067C435.731 240.069 437.248 234.601 435.378 229.732C432.944 223.312 426.911 219.572 419.538 219.643C412.871 219.713 406.803 221.971 400.876 224.687C394.244 227.721 387.788 231.073 381.05 233.86C380.238 234.213 379.709 234.742 379.638 235.624C379.603 236.541 380.238 237.035 380.979 237.423C384.683 239.293 388.775 239.998 392.762 240.951C396.89 241.939 401.052 242.82 405.18 243.738C405.709 243.844 406.379 243.844 406.52 244.408C406.697 245.184 405.885 245.29 405.392 245.572C398.759 249.276 393.15 254.145 388.529 260.142C388.105 260.707 387.647 261.377 387.47 262.188Z" fill="#7D4B25"/>
<path d="M75.2215 282.262C74.7276 281.168 74.9393 280.18 75.2921 279.051C76.3505 275.382 76.5974 271.537 77.2324 267.797C77.5146 266.104 77.7969 264.411 78.0791 262.753C73.1401 261.412 68.0248 261.553 63.4739 263.282C58.1115 265.363 56.4534 270.62 56.1712 276.017C55.7832 283.426 56.2065 290.834 56.8768 298.243C57.1237 300.924 58.3938 303.005 60.5457 304.769C63.7561 307.38 67.1781 309.144 71.3409 309.144C76.2093 309.179 78.9963 305.298 77.4793 300.712C76.6679 298.243 75.5391 295.914 74.2338 293.692C73.634 292.669 73.5282 291.61 73.7751 290.446C74.4101 287.73 74.4101 284.907 75.2215 282.262Z" fill="#F6BB92"/>
<path d="M322.064 253.086C320.971 255.732 320.971 258.59 320.406 261.342C320.724 261.694 321.041 262.082 321.359 262.435C329.402 264.093 337.304 266.21 345.207 268.433C351.134 270.091 357.096 271.537 362.952 273.477C368.561 275.312 373.818 277.605 377.628 282.826C379.039 276.511 378.686 270.514 378.192 264.481C372.865 260.812 367.044 258.167 360.659 256.932C353.885 255.626 346.971 255.697 340.127 255.027C334.623 254.498 329.049 254.427 323.652 252.981C323.087 252.875 322.558 252.804 322.064 253.086Z" fill="#8A8AD9"/>
<path d="M368.737 297.608C367.361 297.749 365.986 297.925 364.61 297.961C355.967 298.313 347.817 295.915 339.668 293.48C339.35 293.375 339.033 293.304 338.715 293.233C338.61 293.375 338.504 293.516 338.398 293.657C341.538 298.913 344.607 304.205 348.241 309.144C351.098 308.685 353.391 306.921 355.861 305.616C360.306 303.217 364.68 300.607 368.737 297.608Z" fill="#8A8AD9"/>
<path d="M313.809 294.045C313.209 296.832 312.257 299.513 312.045 302.371C316.031 304.805 320.018 307.239 324.004 309.709C320.97 304.311 317.901 298.878 314.867 293.48C314.515 293.657 314.162 293.869 313.809 294.045Z" fill="#8A8AD9"/>
<path d="M436.789 288.929C435.66 288.753 435.484 289.494 435.448 290.376C436.119 290.094 436.542 289.6 436.789 288.929Z" fill="#7D4B25"/>
<path d="M313.809 294.044C314.162 293.868 314.515 293.656 314.867 293.48C314.938 290.658 312.715 288.894 311.586 286.636C309.223 281.944 307.6 277.146 308.094 271.819C308.447 267.797 311.798 264.622 316.42 263.74C318.078 263.423 319.842 263.493 321.323 262.435C321.006 262.082 320.688 261.694 320.371 261.341C318.536 259.895 316.49 260.706 314.656 261.13C308.482 262.541 304.954 267.233 304.884 273.618C304.813 280.85 307.847 286.918 311.728 292.704C312.257 293.48 312.856 294.009 313.809 294.044Z" fill="#E2AB83"/>
<path d="M338.433 293.621C338.539 293.48 338.645 293.339 338.751 293.198C338.68 292.245 338.01 291.857 337.305 291.505C334.059 289.917 330.672 288.647 327.25 287.448C326.509 287.201 325.733 287.06 325.38 287.906C325.028 288.682 325.627 289.247 326.227 289.494C330.178 291.117 333.953 293.374 338.433 293.621Z" fill="#E2AB83"/>
<path d="M429.063 245.043C429.381 244.62 429.769 244.232 430.051 243.808C430.615 242.997 430.827 242.327 429.698 241.762C422.184 237.881 415.94 236.823 408.073 241.233C406.52 242.115 406.026 242.962 407.579 244.267C408.531 244.408 409.413 244.161 410.295 243.914C416.151 242.256 421.831 243.138 427.476 244.902C428.005 245.008 428.569 244.972 429.063 245.043Z" fill="#5D3614"/>
</svg>
