<svg width="497" height="497" viewBox="0 0 497 497" fill="none" xmlns="http://www.w3.org/2000/svg">
<path d="M101.108 330.566C108.786 333.203 116.619 335.142 124.375 337.469C136.241 340.649 147.564 346.62 160.206 345.612C171.063 345.38 179.595 337.779 188.746 332.66C206.196 322.578 221.552 309.549 237.762 297.76C242.337 294.58 246.448 290.858 250.326 286.902C252.497 284.808 254.591 288.686 257.151 288.298C261.183 267.824 269.637 248.202 283.52 232.381C275.764 221.911 262.424 215.551 249.55 214.775C228.455 215.861 214.805 234.087 204.257 250.374C189.212 271.391 171.684 290.625 153.613 309.006C152.605 310.634 151.364 310.402 149.813 309.936C138.102 306.136 126.314 301.793 113.905 301.173C111.578 311.72 106.149 321.182 101.108 330.566Z" fill="#3D3C3C"/>
<path d="M283.441 232.457C269.558 248.278 261.182 267.823 257.072 288.375C257.615 289.461 258.701 289.926 259.709 290.314C267.62 293.338 274.755 297.992 282.045 302.102C292.67 308.307 303.993 313.736 313.455 321.724C324.623 334.831 333.542 349.024 353.396 344.37C339.049 331.884 324.003 319.63 311.904 304.817C303.528 288.452 329.199 285.583 340.289 287.444C356.499 288.918 402.489 293.028 410.478 307.298C410.788 307.454 411.098 307.609 411.408 307.764C411.098 301.559 407.22 295.665 402.489 291.71C386.047 274.725 362.238 272.088 340.522 266.427C319.039 260.067 298.409 249.442 283.441 232.457Z" fill="#FF8AA0"/>
<path d="M410.478 307.222C402.878 294.115 385.117 293.65 372.01 290.625C353.94 287.833 333.931 283.335 316.17 290.237C307.484 294.348 309.5 304.12 315.472 309.161C329.2 323.431 343.78 336.926 359.524 348.714C360.377 349.567 360.842 350.653 361.075 351.894C361.385 356.935 367.202 356.16 370.925 356.547C376.509 355.927 415.287 364.458 409.005 352.902C402.8 347.241 393.106 347.551 385.35 345.069C383.023 344.371 380.464 344.294 378.137 343.751C376.509 342.122 373.251 341.114 372.553 338.942C364.255 334.289 347.658 317.227 340.523 310.789C356.422 313.039 382.17 331.574 398.379 329.17C402.567 328.55 403.963 328.24 407.609 326.068C410.556 319.941 412.495 314.28 410.478 307.222Z" fill="#F6BB92"/>
<path d="M101.108 330.565C106.149 321.18 111.5 311.719 113.904 301.171C87.8455 294.734 60.7785 292.873 34.4871 287.754C26.8866 288.219 29.1357 298.767 28.6704 304.041C29.4459 316.837 19.2861 328.316 25.0253 341.112C26.111 344.137 29.9888 348.868 32.936 345.145C36.1158 340.104 33.9442 333.202 36.1933 327.618C37.2015 323.973 43.406 313.813 47.5165 314.511C66.0523 317.535 83.5024 324.748 101.108 330.565Z" fill="#F6BB92"/>
<path d="M411.409 306.912C411.409 307.144 411.409 307.455 411.409 307.687C412.107 311.022 419.63 312.884 422.809 313.582C431.03 316.141 429.479 301.871 436.537 305.671C440.802 307.3 435.218 313.892 438.863 313.349C440.57 312.961 441.966 310.014 443.672 311.488C450.807 317.459 460.889 320.639 469.963 318.157C482.372 306.214 478.727 292.099 467.326 281.086C466.784 280.543 466.163 280.077 466.241 279.147C466.706 272.089 458.64 268.677 453.056 266.815C444.06 264.101 425.912 264.023 426.144 276.898C426.299 278.061 425.912 278.759 424.981 279.535C416.76 285.972 409.159 295.201 411.253 305.593C411.331 305.748 411.409 306.291 411.409 306.912Z" fill="#602F0F"/>
<path d="M469.963 318.158C460.889 320.562 450.729 317.382 443.671 311.488C441.965 310.014 440.569 312.962 438.863 313.349C435.218 313.892 440.802 307.067 436.536 305.439C426.144 301.871 435.373 321.803 412.184 309.316C413.27 319.476 414.666 330.334 419.164 339.641C422.266 345.458 428.238 350.964 432.426 342.588C432.814 340.184 430.797 338.4 431.883 335.996C434.21 337.314 436.304 338.633 438.475 339.873C439.173 339.641 439.949 339.331 440.569 340.106C445.378 343.751 447.317 336.461 449.721 333.514C451.117 331.42 453.056 329.791 455.615 329.403C461.664 328.163 468.179 324.207 469.963 318.158Z" fill="#EEBC99"/>
<path d="M398.301 329.249C382.014 330.8 355.567 312.73 339.669 310.48C345.64 316.607 362.858 331.576 369.295 337.237C372.552 341.115 377.128 336.927 380.928 336.384C386.202 332.894 392.872 332.274 398.301 329.249Z" fill="#EF929E"/>
<path d="M397.836 329.637C392.329 332.119 386.125 333.127 381.006 336.307C391.166 338.633 402.024 340.96 412.494 339.797C422.654 334.988 400.706 331.188 397.836 329.637Z" fill="#D89D75"/>
<path d="M415.054 327.62C415.286 321.493 412.262 315.599 412.572 309.472C412.029 308.929 411.874 308.308 411.486 307.688C411.176 307.533 410.866 307.378 410.555 307.223C412.572 314.28 410.633 319.942 407.608 326.146C409.857 326.922 412.494 327.697 415.054 327.62Z" fill="#ECAD83"/>
<path d="M438.476 339.796C436.305 338.555 434.211 337.314 431.884 335.918C430.798 338.322 432.815 340.184 432.427 342.51C433.28 342.82 434.055 344.139 434.986 343.208C436.149 342.045 438.864 342.433 438.476 339.796Z" fill="#CC785E"/>
<path d="M463.294 280.697C463.992 275.113 456.701 270.072 446.929 269.141C437.157 268.288 428.704 272.088 428.083 277.595C427.385 283.179 433.667 286.359 443.439 287.212C453.056 287.987 462.518 286.048 463.294 280.697Z" fill="#4C230C"/>
<path d="M465.155 278.216C465.853 272.4 457.865 266.971 447.162 266.118C436.537 265.265 427.308 269.22 426.532 275.037C425.834 280.853 432.659 284.266 443.362 285.274C453.909 285.972 464.457 284.033 465.155 278.216Z" fill="#602F0F"/>
<path d="M452.126 268.289C452.281 267.591 449.023 266.505 444.99 266.272C440.957 265.885 437.545 266.272 437.545 267.203C437.39 267.901 440.104 268.677 444.292 268.987C448.17 268.987 451.97 268.987 452.126 268.289Z" fill="#4C230C"/>
</svg>
