<svg width="500" height="500" viewBox="0 0 500 500" fill="none" xmlns="http://www.w3.org/2000/svg">
<path d="M75.2222 312.263C76.5275 313.392 78.0798 313.815 79.7026 314.133C106.338 319.354 132.973 324.646 159.608 329.796C165.111 330.855 170.721 331.525 176.259 332.336C177.6 332.548 178.835 332.019 180.105 331.666C198.379 326.445 216.618 321.153 234.892 316.108C244.135 313.568 253.519 311.452 262.339 307.536C263.503 307.042 264.632 306.477 265.761 305.948C266.713 305.031 267.525 304.008 268.23 302.879C271.652 297.376 275.145 291.872 278.531 286.369C282.871 279.348 287.21 272.293 291.196 265.061C290.208 262.767 288.268 261.356 286.257 260.157C279.554 256.1 272.146 254.124 264.385 253.56C259.305 253.172 254.542 254.795 249.991 256.664C238.949 261.18 228.789 267.495 218.17 272.892C208.151 278.008 198.097 283.123 188.113 288.309C183.209 290.849 177.847 292.19 172.943 294.73C172.061 295.188 171.179 294.871 170.262 294.624C164.3 293.072 158.479 290.99 152.376 290.038C141.722 288.38 131.033 288.168 120.308 289.191C107.643 290.39 95.0134 291.66 82.3485 292.86C80.9021 293.001 79.4203 292.966 78.0092 292.683C77.727 294.377 77.4448 296.07 77.1625 297.728C76.5275 301.503 76.2806 305.313 75.2222 308.982C74.9753 310.182 74.7636 311.169 75.2222 312.263Z" fill="#696D66"/>
<path d="M368.738 327.608C372.407 326.444 376.076 325.068 377.487 321.152C378.298 318.929 379.286 318.753 381.12 319.494C381.685 319.705 382.249 319.917 382.849 319.952C386.447 320.199 388.529 322.246 390.222 325.315C392.304 329.054 394.949 332.441 397.419 335.969C400.1 339.814 403.028 339.426 406.027 337.486C408.849 335.651 410.825 336.322 413.365 337.768C418.092 340.449 417.739 341.084 420.315 336.004C421.655 333.429 423.102 330.889 424.231 328.208C424.583 327.396 425.183 327.008 425.889 326.62C428.57 325.174 431.216 323.692 433.897 322.246C434.461 321.928 435.167 321.681 435.026 320.799C434.391 320.129 433.756 319.494 433.121 318.824C429.981 315.402 426.841 311.98 423.772 308.522C422.467 307.041 420.985 306.511 419.009 306.935C416.152 307.534 413.259 307.887 410.401 308.416C408.92 308.699 407.826 308.593 406.909 307.111C405.639 305.03 404.087 303.089 402.605 301.149C401.864 300.161 401.158 299.138 399.677 298.997C394.844 298.538 390.293 296.951 385.636 295.787C383.096 295.54 380.697 294.446 378.086 294.552C378.616 300.585 378.968 306.582 377.522 312.897C373.677 307.676 368.42 305.382 362.846 303.548C356.99 301.608 351.028 300.161 345.101 298.503C337.199 296.281 329.296 294.129 321.253 292.506C319.771 293.564 318.007 293.494 316.349 293.811C311.728 294.658 308.376 297.833 308.024 301.89C307.53 307.217 309.153 312.015 311.516 316.707C312.645 318.965 314.868 320.729 314.797 323.551C317.831 328.948 320.9 334.381 323.934 339.779C327.956 346.305 332.613 352.444 335.858 359.464C338.363 364.897 342.702 367.296 348.488 367.508C353.392 367.684 358.26 367.437 363.164 367.755C366.127 367.966 369.196 367.684 371.56 365.462C375.37 361.934 374.735 358.406 370.325 356.113C366.057 353.89 361.47 352.267 357.025 350.433C355.402 349.763 354.062 348.916 353.145 347.293C351.628 344.506 349.864 341.896 348.206 339.179C344.607 334.205 341.538 328.913 338.363 323.692C333.918 323.41 330.108 321.152 326.121 319.564C325.522 319.317 324.922 318.753 325.275 317.977C325.663 317.13 326.404 317.271 327.144 317.518C330.566 318.682 333.953 319.952 337.199 321.575C337.94 321.928 338.61 322.351 338.645 323.269C338.963 323.339 339.28 323.445 339.598 323.516C347.747 325.985 355.896 328.349 364.54 327.996C365.986 327.925 367.362 327.714 368.738 327.608Z" fill="#F6BA92"/>
<path d="M291.267 265.061C287.28 272.293 282.976 279.348 278.602 286.369C275.18 291.872 271.722 297.376 268.3 302.879C267.595 304.008 266.783 305.031 265.831 305.948C281.001 314.662 296.135 323.376 311.305 332.089C311.516 332.231 311.799 332.266 312.046 332.372C312.257 329.514 313.21 326.833 313.809 324.046C312.857 324.011 312.222 323.481 311.728 322.705C307.847 316.92 304.813 310.852 304.884 303.62C304.955 297.234 308.482 292.507 314.656 291.131C316.526 290.708 318.537 289.897 320.371 291.343C320.971 288.591 320.971 285.734 322.029 283.088C321.782 282.418 321.218 282.347 320.618 282.206C314.797 280.759 309.435 278.36 304.567 274.797C300.439 271.763 295.888 269.294 292.254 265.554C292.078 265.308 291.619 265.237 291.267 265.061Z" fill="#F6BB92"/>
<path d="M385.706 295.753C390.363 296.917 394.949 298.504 399.747 298.963C401.229 299.104 401.934 300.127 402.675 301.115C404.157 303.055 405.709 304.996 406.979 307.077C407.896 308.559 408.99 308.665 410.472 308.382C413.329 307.853 416.222 307.5 419.08 306.901C421.055 306.477 422.537 307.007 423.842 308.488C426.947 311.945 430.087 315.367 433.191 318.789C433.791 319.46 434.461 320.095 435.096 320.765C435.202 320.624 435.343 320.518 435.449 320.377C435.484 319.495 435.661 318.789 436.789 318.931L436.754 318.966C436.613 318.084 437.177 317.484 437.636 316.849C438.977 314.979 440.529 313.18 441.305 310.993C442.893 306.583 443.81 302.103 443.14 297.305C442.61 293.601 441.481 290.179 439.576 287.145C437.107 283.123 434.073 279.419 430.122 276.632C429.593 276.244 429.099 275.785 429.099 275.009C428.57 274.939 428.04 274.974 427.547 274.833C421.902 273.104 416.187 272.222 410.366 273.845C409.484 274.092 408.602 274.374 407.65 274.198C407.72 274.974 407.297 275.362 406.662 275.715C405.074 276.597 403.451 277.443 401.97 278.502C397.031 282.065 392.374 285.981 388.917 291.096C388.599 291.555 388.176 292.049 387.541 292.119C386.447 293.142 385.812 294.306 385.706 295.753Z" fill="#7A461F"/>
<path d="M387.471 292.189C388.141 292.119 388.529 291.625 388.847 291.166C392.304 286.051 396.961 282.135 401.9 278.572C403.381 277.513 405.004 276.667 406.592 275.785C407.227 275.432 407.65 275.044 407.579 274.268C406.027 272.998 406.486 272.116 408.073 271.234C415.905 266.824 422.185 267.918 429.699 271.763C430.828 272.363 430.616 273.033 430.052 273.809C429.734 274.233 429.381 274.621 429.064 275.044C429.064 275.785 429.558 276.279 430.087 276.667C434.038 279.454 437.037 283.158 439.542 287.18C441.411 290.214 442.575 293.636 443.105 297.34C443.775 302.173 442.858 306.618 441.27 311.028C440.494 313.215 438.942 315.014 437.601 316.884C437.143 317.519 436.578 318.119 436.719 319.001C441.623 313.885 444.128 307.782 444.057 300.727C443.987 290.637 438.836 283.193 431.569 276.878C429.558 275.15 429.522 274.691 431.71 273.068C435.731 270.07 437.248 264.602 435.379 259.733C432.944 253.313 426.912 249.573 419.539 249.644C412.871 249.714 406.803 251.972 400.876 254.688C394.244 257.722 387.788 261.074 381.05 263.861C380.239 264.214 379.709 264.743 379.639 265.625C379.604 266.542 380.239 267.036 380.979 267.424C384.684 269.294 388.776 269.999 392.762 270.952C396.89 271.939 401.053 272.821 405.18 273.739C405.71 273.845 406.38 273.845 406.521 274.409C406.697 275.185 405.886 275.291 405.392 275.573C398.76 279.277 393.15 284.146 388.529 290.143C388.106 290.708 387.647 291.378 387.471 292.189Z" fill="#7D4B25"/>
<path d="M75.2215 312.263C74.7276 311.169 74.9393 310.181 75.2921 309.052C76.3505 305.383 76.5974 301.538 77.2324 297.798C77.5146 296.105 77.7969 294.412 78.0791 292.754C73.1401 291.413 68.0248 291.554 63.4739 293.283C58.1115 295.364 56.4534 300.621 56.1712 306.018C55.7832 313.427 56.2065 320.835 56.8768 328.244C57.1237 330.925 58.3938 333.006 60.5457 334.77C63.7561 337.381 67.1781 339.145 71.3409 339.145C76.2093 339.18 78.9963 335.299 77.4793 330.713C76.6679 328.244 75.5391 325.915 74.2338 323.693C73.634 322.67 73.5282 321.611 73.7751 320.447C74.4101 317.731 74.4101 314.908 75.2215 312.263Z" fill="#F6BB92"/>
<path d="M322.065 283.087C320.971 285.733 320.971 288.591 320.407 291.343C320.724 291.695 321.042 292.083 321.359 292.436C329.403 294.094 337.305 296.211 345.207 298.434C351.134 300.092 357.096 301.538 362.952 303.478C368.562 305.313 373.818 307.606 377.628 312.827C379.039 306.512 378.686 300.515 378.193 294.482C372.866 290.813 367.045 288.167 360.659 286.933C353.886 285.627 346.971 285.698 340.127 285.028C334.624 284.499 329.05 284.428 323.652 282.982C323.088 282.876 322.559 282.805 322.065 283.087Z" fill="#8A8AD9"/>
<path d="M368.738 327.609C367.362 327.75 365.987 327.926 364.611 327.962C355.968 328.314 347.818 325.916 339.669 323.481C339.351 323.375 339.034 323.305 338.716 323.234C338.611 323.375 338.505 323.517 338.399 323.658C341.539 328.914 344.608 334.206 348.242 339.145C351.099 338.686 353.392 336.922 355.862 335.617C360.307 333.218 364.681 330.608 368.738 327.609Z" fill="#8A8AD9"/>
<path d="M313.809 324.045C313.21 326.832 312.257 329.513 312.046 332.371C316.032 334.805 320.018 337.239 324.005 339.709C320.971 334.311 317.902 328.878 314.868 323.48C314.515 323.657 314.162 323.869 313.809 324.045Z" fill="#8A8AD9"/>
<path d="M436.79 318.93C435.661 318.754 435.485 319.495 435.449 320.377C436.12 320.095 436.543 319.601 436.79 318.93Z" fill="#7D4B25"/>
<path d="M313.809 324.046C314.162 323.87 314.515 323.658 314.867 323.482C314.938 320.66 312.715 318.896 311.586 316.638C309.223 311.946 307.6 307.148 308.094 301.821C308.447 297.799 311.798 294.624 316.42 293.742C318.078 293.425 319.842 293.495 321.323 292.437C321.006 292.084 320.688 291.696 320.371 291.343C318.536 289.897 316.49 290.708 314.656 291.132C308.482 292.543 304.954 297.235 304.884 303.62C304.813 310.852 307.847 316.92 311.728 322.706C312.257 323.482 312.856 324.011 313.809 324.046Z" fill="#E2AB83"/>
<path d="M338.433 323.623C338.539 323.482 338.645 323.341 338.751 323.2C338.68 322.247 338.01 321.859 337.305 321.507C334.059 319.919 330.672 318.649 327.25 317.45C326.509 317.203 325.733 317.062 325.38 317.908C325.028 318.684 325.627 319.249 326.227 319.496C330.178 321.119 333.953 323.376 338.433 323.623Z" fill="#E2AB83"/>
<path d="M429.063 275.044C429.381 274.621 429.769 274.233 430.051 273.809C430.615 272.998 430.827 272.327 429.698 271.763C422.184 267.882 415.94 266.824 408.073 271.234C406.52 272.116 406.026 272.963 407.579 274.268C408.531 274.409 409.413 274.162 410.295 273.915C416.151 272.257 421.831 273.139 427.476 274.903C428.005 275.009 428.569 274.973 429.063 275.044Z" fill="#5D3614"/>
</svg>
