<svg width="500" height="500" viewBox="0 0 500 500" fill="none" xmlns="http://www.w3.org/2000/svg">
<path d="M141.022 315.513C141.4 314.34 141.861 313.208 142.196 312.034C143.034 309.017 144.292 306.166 145.256 303.233C146.346 299.921 147.854 296.736 149.196 293.509C149.95 291.706 150.83 289.988 151.669 288.227C152.423 286.635 153.219 285.042 153.974 283.449C154.603 283.659 155.231 283.868 155.86 284.12C158.584 285.168 161.351 286.257 164.075 287.347C169.189 289.359 174.302 291.413 179.415 293.383C185.325 295.688 191.235 297.909 197.145 300.215C199.618 301.179 202.133 302.059 204.396 303.526C207.079 305.119 209.719 306.753 212.402 308.346C215.545 310.232 218.689 312.118 221.832 314.004C226.443 316.729 231.053 319.453 235.622 322.178C240.316 324.944 244.969 327.794 249.663 330.56C254.525 333.452 259.429 336.344 264.291 339.236C266.889 340.745 269.446 342.296 272.129 343.679C274.727 344.979 277.284 346.32 279.883 347.619C283.697 349.547 287.511 351.517 291.241 353.697C293.672 355.122 296.019 356.756 298.492 358.181C301.133 359.732 303.815 361.157 306.498 362.666C307.504 364.72 308.133 366.899 308.803 369.079C309.474 371.133 309.977 373.228 310.522 375.324C310.983 376.917 311.905 378.174 313.288 379.138C316.431 381.444 319.826 383.372 323.221 385.216C325.15 386.222 327.036 387.228 328.964 388.234C330.431 388.988 332.023 389.533 333.658 389.952C334.287 390.12 334.748 389.868 335.083 389.365C335.293 389.03 335.46 388.653 335.502 388.275C335.921 386.054 336.34 383.791 336.76 381.569C336.843 381.108 336.843 380.689 336.634 380.27C336.843 380.27 337.053 380.228 337.263 380.186C343.256 383.581 349.292 386.934 355.285 390.371C356.836 391.251 358.429 392.048 360.064 392.76C361.028 393.179 361.95 393.64 362.746 394.353C362.537 394.856 362.369 395.401 362.159 395.904C361.279 398.167 360.399 400.472 359.477 402.694C358.68 404.622 357.758 406.55 356.878 408.436C356.082 410.196 355.244 411.957 354.447 413.717C354.238 414.136 354.028 414.513 353.525 414.555C352.519 414.22 351.555 413.801 350.549 413.508C346.861 412.376 343.298 410.993 339.694 409.693C336.592 408.604 333.49 407.472 330.347 406.55C324.73 404.915 319.24 402.903 313.707 401.017C311.36 400.179 308.971 399.425 306.624 398.502C301.007 396.323 295.516 393.976 290.152 391.251C285.876 389.072 281.769 386.599 278.08 383.497C277.284 382.827 276.446 382.156 275.733 381.402C274.853 380.48 273.847 379.851 272.715 379.39C269.53 378.048 266.345 376.707 263.159 375.366C254.231 371.594 245.304 367.822 236.376 364.091C228.832 360.906 221.287 357.804 213.743 354.577C209.971 352.942 206.115 351.475 202.258 350.05C197.858 348.416 193.624 346.404 189.349 344.559C186.583 343.386 183.816 342.17 181.092 340.997C180.673 340.829 180.254 340.661 179.835 340.536C178.829 340.2 178.577 340.284 178.032 341.123C177.487 341.919 177.278 342.841 177.068 343.763C176.356 347.074 175.811 350.427 174.973 353.739C173.841 358.181 173.254 362.708 172.332 367.151C171.787 369.833 171.117 372.474 170.488 375.115C170.404 375.45 170.362 375.785 170.32 376.079C170.236 376.162 170.153 376.246 170.153 376.33C169.524 378.677 168.895 381.066 168.308 383.413C167.68 385.886 167.135 388.401 166.506 390.832C165.123 396.03 163.363 401.143 161.476 406.173C161.267 406.676 160.973 407.179 161.015 407.765C160.387 408.687 160.135 409.777 159.758 410.825C158.836 413.34 157.956 415.813 156.782 418.202C155.064 421.639 153.136 424.908 150.83 427.968C149.741 429.393 148.399 430.566 146.723 431.237C146.555 431.237 146.387 431.237 146.304 431.405C146.094 431.405 145.884 431.489 145.717 431.53C145.423 431.447 145.172 431.53 145.004 431.74C144.711 431.782 144.376 431.866 144.082 431.908C143.915 431.824 143.747 431.908 143.663 432.033C143.118 432.117 142.615 432.159 142.07 432.243C141.819 432.243 141.609 432.243 141.358 432.243C140.939 432.201 140.52 432.117 140.1 432.075C139.891 431.866 139.639 431.824 139.346 431.908C138.927 431.824 138.508 431.782 138.089 431.698C137.963 431.572 137.837 431.53 137.669 431.572C135.616 430.902 133.855 429.77 132.304 428.303C131.34 427.381 130.46 426.375 129.58 425.369C128.113 423.609 127.065 421.597 126.478 419.334C125.975 417.489 125.598 415.645 125.389 413.759C125.64 413.508 125.598 413.298 125.347 413.088C125.053 410.993 125.011 408.939 125.095 406.843C125.137 405.376 125.263 403.867 125.347 402.4C125.682 401.981 125.682 401.52 125.347 401.059C125.556 398.586 125.808 396.071 126.185 393.598C126.52 391.503 126.688 389.407 126.898 387.311C127.023 386.222 127.149 385.09 127.275 384C127.526 383.791 127.61 383.581 127.359 383.33C127.442 382.449 127.526 381.527 127.61 380.647C127.862 380.438 127.903 380.228 127.652 379.977C127.987 378.09 128.281 376.204 128.616 374.276C128.868 374.067 128.951 373.857 128.7 373.606C128.993 371.72 129.329 369.833 129.622 367.905C129.832 367.654 129.915 367.402 129.706 367.151C130.251 363.798 130.796 360.445 131.34 357.134C131.801 354.325 132.388 351.559 132.849 348.751C133.185 346.655 133.478 344.559 133.939 342.506C134.274 341.164 134.442 339.781 134.777 338.398C135.741 334.5 136.622 330.602 137.753 326.746C138.801 323.225 139.807 319.705 140.939 316.184C141.148 315.932 141.358 315.723 141.064 315.387L141.022 315.513Z" fill="#696D65"/>
<path d="M162.147 255.538C162.231 253.861 162.818 252.269 163.237 250.676C164.746 244.724 166.339 238.772 167.847 232.779C168.686 229.384 169.356 225.947 170.069 222.552C170.991 218.319 171.871 214.085 173.129 209.936C174.009 206.96 174.679 203.9 175.182 200.841C175.476 200.547 175.434 200.212 175.476 199.835C176.021 199.457 176.649 199.164 177.152 198.745C179.416 196.733 182.014 195.266 184.445 193.506C185.912 192.5 187.337 191.452 188.762 190.404C190.439 189.147 192.074 187.805 193.708 186.506C194.127 186.171 194.588 185.835 195.091 185.542C197.732 184.117 200.205 182.399 202.72 180.764C203.642 180.135 204.606 179.59 205.528 179.003C207.079 178.039 208.63 177.034 210.138 176.028C210.599 175.734 211.061 175.65 211.563 175.65C213.03 176.992 214.539 178.333 216.006 179.674C216.467 180.093 216.97 180.429 216.97 181.141C216.719 182.231 216.593 183.321 216.593 184.452C216.593 184.955 216.509 185.458 216.467 185.961C216.3 187.68 216.09 189.398 215.964 191.075C215.797 192.919 215.797 194.721 215.503 196.565C215.336 197.823 215.42 199.122 215.168 200.379C214.833 202.098 214.959 203.816 214.665 205.493C214.456 206.667 214.456 207.924 214.33 209.139C214.246 209.978 215 210.9 215.839 211.067C216.006 211.067 216.174 211.068 216.3 210.984C216.509 210.9 216.677 210.774 216.887 210.648C220.365 208.427 223.802 206.247 227.281 204.026C230.215 202.14 233.191 200.254 236.167 198.41C236.837 197.99 237.424 197.529 237.885 196.901C238.556 196.817 239.059 197.278 239.52 197.613C241.699 199.332 243.921 201.05 246.1 202.727C247.4 203.775 248.699 204.78 250.04 205.786C250.753 206.331 251.382 206.96 251.675 207.84C251.507 209.349 251.172 210.774 250.711 212.199C248.825 217.899 247.106 223.642 245.849 229.51C245.388 231.689 244.717 233.785 244.172 235.964C243.628 238.102 243.125 240.281 242.663 242.461C242.454 243.341 242.161 244.221 241.364 244.682C240.107 245.395 239.394 246.61 238.682 247.784C238.388 247.952 238.095 248.119 237.843 248.329C236.083 250.005 234.281 251.682 232.939 253.778C231.305 256.251 229.67 258.681 227.784 260.945C226.149 262.915 224.683 265.01 223.341 267.19C222.754 268.196 222.084 269.16 221.497 270.166C219.779 272.974 218.06 275.782 216.384 278.591C216.132 279.01 215.881 279.471 215.461 279.764C214.539 279.01 213.45 278.591 212.36 278.129C209.594 276.956 206.827 275.782 204.061 274.609C200.373 273.016 196.726 271.423 193.038 269.831C188.595 267.903 184.152 266.016 179.667 264.088C176.649 262.789 173.632 261.49 170.614 260.19C168.686 259.352 166.758 258.514 164.788 257.634C164.327 257.424 163.95 257.173 163.74 256.628C163.53 255.915 162.902 255.622 162.189 255.496L162.147 255.538Z" fill="#8989DE"/>
<path d="M238.598 247.825C239.352 246.651 240.023 245.477 241.28 244.723C242.118 244.262 242.37 243.382 242.579 242.502C243.082 240.322 243.585 238.184 244.088 236.005C244.633 233.867 245.304 231.73 245.765 229.55C247.022 223.682 248.741 217.94 250.627 212.24C251.088 210.815 251.423 209.348 251.591 207.881C252.136 208.258 252.261 208.887 252.387 209.474C252.597 210.354 252.932 211.15 253.225 211.988C254.776 215.97 256.034 220.078 257.165 224.185C257.794 226.365 258.548 228.502 259.429 230.64C260.057 232.149 260.602 233.658 261.147 235.167C263.41 241.873 265.632 248.579 267.895 255.243C269.739 260.692 271.584 266.099 273.428 271.506C275.565 277.793 277.703 284.038 279.799 290.325C280.176 291.499 280.805 292.547 281.601 293.511C283.529 295.9 285.415 298.289 287.301 300.678C288.852 302.648 290.403 304.576 291.954 306.546C294.007 309.103 296.061 311.659 298.073 314.258C299.331 315.809 300.588 317.401 301.762 318.994C302.977 320.629 304.193 322.347 305.324 324.024C306.917 326.371 308.719 328.55 310.438 330.814C314 335.466 317.605 340.035 320.916 344.855C321.754 346.07 322.551 347.244 323.054 348.585C323.599 349.926 324.311 351.184 324.856 352.525C327.245 358.058 329.634 363.548 331.856 369.123C332.275 370.213 332.778 371.261 333.281 372.308C334.496 374.698 335.418 377.212 336.424 379.685C336.424 379.895 336.508 380.062 336.508 380.272C336.718 380.691 336.718 381.11 336.634 381.571C336.215 383.793 335.795 386.056 335.376 388.278C335.293 388.655 335.167 389.032 334.957 389.367C334.622 389.87 334.161 390.122 333.532 389.954C331.897 389.577 330.347 388.99 328.838 388.236C326.91 387.23 324.982 386.224 323.096 385.218C319.659 383.374 316.306 381.446 313.162 379.14C311.779 378.134 310.857 376.919 310.396 375.326C309.809 373.231 309.348 371.135 308.677 369.081C307.965 366.902 307.336 364.722 306.372 362.668C306.33 361.537 305.953 360.489 305.618 359.441C304.947 357.136 304.067 354.914 302.39 353.112C301.217 351.855 300.253 350.429 299.163 349.046C297.361 346.783 295.6 344.52 293.798 342.256C292.708 340.873 291.535 339.532 290.445 338.107C288.265 335.299 286.086 332.49 283.864 329.682C279.841 324.611 275.817 319.623 271.835 314.509C269.111 311.031 266.219 307.636 263.662 303.989C263.578 303.863 263.494 303.654 263.327 303.612C262.488 303.402 262.321 302.648 261.985 302.019C261.65 301.265 261.357 300.468 261.021 299.714C260.225 297.953 259.387 296.193 258.59 294.391C256.956 290.619 255.321 286.846 253.686 283.032C252.513 280.266 251.339 277.5 250.124 274.733C248.95 272.009 247.777 269.326 246.603 266.602C245.304 263.584 243.921 260.608 242.621 257.591C241.196 254.321 239.813 251.052 238.388 247.783L238.598 247.825Z" fill="#FFB68B"/>
<path d="M211.479 175.69C210.976 175.69 210.515 175.774 210.054 176.067C208.545 177.073 206.995 178.037 205.444 179.043C204.522 179.63 203.558 180.217 202.636 180.804C200.121 182.438 197.648 184.157 195.007 185.582C194.504 185.833 194.085 186.168 193.624 186.546C191.948 187.845 190.355 189.186 188.678 190.444C187.253 191.533 185.828 192.539 184.361 193.545C181.93 195.264 179.332 196.773 177.068 198.785C176.565 199.204 175.978 199.497 175.392 199.874C175.392 199.665 175.35 199.413 175.392 199.204C175.643 197.15 175.937 195.138 176.188 193.084C176.23 192.749 176.314 192.414 176.481 192.12C177.11 190.779 177.445 189.396 177.781 187.971C178.451 185.372 179.541 182.941 180.882 180.636C182.643 177.66 184.445 174.726 186.205 171.75C186.415 171.373 186.666 170.996 186.834 170.577C188.846 166.595 191.067 162.739 193.289 158.883C194.965 155.991 196.558 153.057 198.193 150.165C199.744 147.44 201.294 144.758 202.845 142.033C204.061 139.896 205.234 137.758 206.45 135.621C208.042 132.812 209.677 130.046 211.27 127.196C213.114 123.885 215.126 120.657 216.802 117.262C217.305 116.214 218.018 115.292 218.772 114.37C220.197 112.736 221.539 111.017 222.922 109.341C224.179 107.79 225.479 106.281 226.778 104.73C228.664 102.425 230.592 100.078 232.478 97.7724C233.652 96.3474 234.825 94.9642 235.999 93.5391C237.382 91.8626 238.849 90.2699 240.19 88.5514C241.909 86.4138 243.753 84.4019 245.681 82.4739C247.609 80.5459 248.196 79.6657 249.411 78.1987C250.375 77.0251 251.381 75.9354 252.345 74.8037C254.357 72.4984 256.327 70.1513 258.381 67.8879C260.183 65.918 262.027 63.99 263.872 62.02C264.249 61.6009 264.71 61.2656 265.129 60.9303C265.925 60.2596 266.722 59.5471 267.35 58.6669C267.77 58.122 268.231 57.7029 268.775 57.2419C269.739 56.4036 270.704 55.5653 271.458 54.5175C271.626 54.3079 271.793 54.0983 272.003 53.8888C273.512 52.2541 275.104 50.6614 276.53 48.9848C277.913 47.3502 279.925 47.0568 281.811 47.9789C282.23 48.1885 282.565 48.44 282.984 48.6495C284.2 49.3621 285.415 50.0327 286.589 50.7452C288.517 51.8769 290.319 53.1343 292.205 54.3917C292.792 54.7689 293.085 55.3976 293.085 56.1102C293.085 56.6551 293.169 57.2418 293.085 57.7867C292.75 59.3794 292.834 61.0141 292.834 62.6068C292.834 63.8642 292.457 65.0378 292.373 66.2533C292.373 66.882 291.996 67.385 291.535 67.846C290.822 68.5586 290.068 69.2292 289.229 69.7741C286.631 71.3668 283.948 72.8338 281.098 74.0073C280.134 74.4265 279.17 74.8875 278.206 75.3067C277.787 75.4743 277.452 75.8096 277.158 76.103C273.26 79.9172 269.237 83.6056 265.38 87.5036C263.662 89.2639 262.027 91.0662 260.518 92.9943C259.177 94.7127 257.71 96.3054 256.327 97.982C254.567 100.12 252.764 102.257 251.004 104.395C250.124 105.485 249.202 106.532 248.322 107.58C246.897 109.299 245.513 111.017 244.088 112.736C242.705 114.412 241.28 116.047 239.897 117.723C238.43 119.484 236.963 121.202 235.58 123.004C234.28 124.681 233.191 126.483 232.394 128.453C231.43 130.842 230.299 133.148 229.293 135.453C227.239 140.021 225.227 144.59 223.173 149.201C222 151.841 220.784 154.482 219.611 157.122C217.515 161.817 215.461 166.469 213.407 171.163C212.737 172.63 211.94 174.055 211.479 175.606V175.69Z" fill="#FFB78B"/>
<path d="M236.125 149.495C235.748 149.118 235.873 148.657 235.957 148.238C236.46 146.184 237.131 144.172 238.011 142.286C240.107 137.927 242.957 134.155 246.436 130.802C248.783 128.538 251.465 127.029 254.525 126.023C254.86 126.149 255.154 126.023 255.405 125.814C255.573 125.772 255.782 125.688 255.95 125.646C256.243 125.856 256.495 125.73 256.746 125.52C257.04 125.437 257.333 125.395 257.627 125.311C257.878 125.52 258.088 125.437 258.297 125.227C260.519 124.934 262.74 124.85 265.003 125.227C265.213 125.479 265.422 125.479 265.674 125.311C265.967 125.353 266.261 125.437 266.554 125.479C266.764 125.73 267.015 125.898 267.35 125.646C268.985 126.065 270.452 126.904 271.919 127.658C275.272 129.377 278.164 131.682 280.805 134.322C282.314 135.831 283.487 137.592 284.745 139.268C284.829 139.52 284.912 139.52 285.08 139.31C285.625 139.142 286.128 138.975 286.673 138.807C286.84 138.891 287.008 138.807 287.092 138.681C287.637 138.556 288.182 138.43 288.726 138.346C289.062 138.556 289.397 138.556 289.732 138.262C289.942 138.262 290.193 138.262 290.403 138.304C290.822 138.556 291.283 138.514 291.744 138.304C292.499 138.43 293.295 138.556 294.05 138.681C294.175 138.849 294.301 138.891 294.469 138.807C294.678 138.849 294.846 138.933 295.055 138.975C295.139 139.142 295.265 139.226 295.475 139.184C297.57 140.023 299.331 141.364 300.881 142.999C302.223 144.424 303.438 145.891 304.612 147.483C305.995 149.327 306.833 151.465 307.462 153.645C307.672 154.441 307.881 155.237 308.091 156.076C307.923 156.327 307.965 156.537 308.174 156.704C308.929 160.015 308.971 163.41 308.887 166.764C308.887 167.225 308.887 167.644 308.845 168.105C308.636 168.314 308.594 168.524 308.845 168.734C308.384 171.416 307.965 174.098 307.378 176.781C306.833 179.296 305.869 181.685 304.779 183.99C303.229 187.301 301.594 190.613 300.001 193.924C299.666 194.636 299.247 195.307 298.87 195.977C296.019 200.881 293.127 205.785 290.277 210.689C289.146 212.617 287.762 214.336 286.212 215.97C286.044 216.138 285.918 216.306 285.751 216.431C284.787 217.102 283.697 217.144 283.026 216.054C282.272 214.839 281.434 213.623 280.763 212.366C278.919 209.013 277.2 205.576 275.649 202.055C274.518 199.498 273.638 196.858 272.757 194.217C271.793 191.325 270.746 188.433 269.74 185.541C269.446 184.661 269.153 183.781 268.943 182.817C268.734 181.894 268.356 180.889 267.35 180.427C267.35 180.008 267.56 179.673 267.812 179.38C268.315 178.709 268.734 177.996 269.153 177.284C270.284 175.23 269.949 173.344 268.776 171.458C268.021 170.242 267.183 169.027 266.386 167.853C265.884 167.099 265.632 166.303 265.674 165.339C265.716 162.656 265.716 160.015 265.758 157.333C265.758 154.818 265.758 152.345 265.842 149.83C265.842 149.118 265.674 148.531 265.129 148.07C264.71 147.735 264.333 147.316 263.914 146.938C261.734 144.843 259.555 142.789 257.417 140.693C256.914 140.19 256.369 139.939 255.657 139.981C253.812 140.148 252.01 140.232 250.166 140.316C249.705 140.316 249.328 140.609 248.992 140.861C247.274 142.16 245.513 143.46 243.795 144.759C241.993 146.142 240.148 147.483 238.346 148.866C237.717 149.327 237.089 149.789 236.209 149.495H236.125ZM294.427 152.639C294.636 151.214 294.427 149.537 294.091 147.902C293.714 146.016 292.876 144.34 291.367 143.04C290.99 142.747 290.613 142.537 290.152 142.663C288.643 143.04 287.092 143.292 285.667 143.879C285.164 144.088 285.122 144.298 285.331 144.801C285.876 145.974 286.421 147.106 286.757 148.363C287.218 150.124 287.511 151.926 287.427 153.77C287.427 154.483 287.427 155.237 287.427 155.95C287.427 156.327 287.427 156.746 287.343 157.123C287.092 158.255 286.882 159.387 286.715 160.56C286.589 161.608 286.337 162.656 285.96 163.62C284.745 166.68 283.026 169.446 280.637 171.751C279.925 172.464 279.086 173.009 278.374 173.679C276.949 175.021 275.356 176.152 273.679 177.074C272.757 177.577 272.506 178.08 272.715 179.128C272.967 180.386 273.218 181.643 273.679 182.817C273.889 183.361 274.224 183.487 274.727 183.236C275.44 182.9 276.152 182.565 276.823 182.188C278.206 181.35 279.547 180.511 280.931 179.673C282.146 178.96 283.152 178.038 284.032 176.949C284.787 175.985 285.499 174.979 286.337 174.098C287.846 172.506 289.062 170.745 290.403 169.069C291.283 167.937 291.87 166.722 292.331 165.422C292.876 163.788 293.421 162.195 293.672 160.477C294.091 157.962 294.636 155.489 294.469 152.681L294.427 152.639Z" fill="#894100"/>
<path d="M162.147 255.537C162.818 255.663 163.446 255.998 163.698 256.669C163.865 257.214 164.243 257.465 164.746 257.675C166.674 258.513 168.602 259.393 170.572 260.231C173.589 261.531 176.607 262.83 179.625 264.129C184.068 266.016 188.511 267.944 192.995 269.872C196.684 271.464 200.33 273.057 204.019 274.65C206.785 275.823 209.551 276.997 212.318 278.171C213.407 278.632 214.497 279.051 215.419 279.805C215.377 280.308 215.168 280.769 214.916 281.188C214.455 282.069 213.952 282.949 213.491 283.787C211.94 286.595 210.348 289.403 208.797 292.212C208.462 292.84 208.168 293.511 207.917 294.182C207.498 295.271 207.037 296.361 206.659 297.451C205.905 299.463 205.192 301.516 204.48 303.57C202.258 302.061 199.702 301.223 197.229 300.259C191.319 297.954 185.409 295.732 179.499 293.427C174.386 291.415 169.272 289.403 164.159 287.392C161.434 286.302 158.668 285.254 155.944 284.164C155.315 283.913 154.686 283.745 154.058 283.494C154.309 281.775 155.022 280.182 155.608 278.59C157.411 273.644 158.878 268.572 160.135 263.459C160.68 261.154 161.267 258.806 161.854 256.501C161.937 256.166 162.105 255.872 162.231 255.579L162.147 255.537Z" fill="#FFB78A"/>
<path d="M236.125 149.494C236.963 149.787 237.634 149.326 238.262 148.865C240.065 147.482 241.909 146.14 243.711 144.757C245.43 143.458 247.19 142.159 248.909 140.859C249.286 140.608 249.621 140.356 250.082 140.314C251.926 140.231 253.729 140.105 255.573 139.979C256.327 139.937 256.83 140.189 257.333 140.692C259.471 142.787 261.65 144.841 263.83 146.937C264.249 147.314 264.626 147.733 265.045 148.068C265.632 148.53 265.8 149.116 265.758 149.829C265.716 152.344 265.716 154.817 265.674 157.331C265.674 160.014 265.674 162.654 265.59 165.337C265.59 166.259 265.8 167.097 266.303 167.852C267.099 169.025 267.937 170.241 268.692 171.456C269.865 173.301 270.201 175.229 269.069 177.282C268.65 177.995 268.231 178.707 267.728 179.378C267.518 179.671 267.267 180.007 267.267 180.426C265.464 181.138 263.83 182.186 262.153 183.15C258.423 185.204 254.483 186.671 250.292 187.384C249.118 187.593 247.861 187.719 246.645 187.3C245.597 186.923 244.717 187.132 243.879 187.803C243.879 187.174 243.334 187.006 242.873 186.881C241.699 186.503 240.568 186 239.604 185.288C237.34 183.611 235.077 181.935 233.107 179.923C232.646 179.462 232.143 179.001 231.724 178.498C230.299 176.821 228.706 175.27 227.994 173.133C227.868 172.756 227.574 172.462 227.155 172.462C227.868 171.75 227.994 170.953 227.658 170.031C227.449 169.486 227.449 168.942 227.574 168.397C227.826 167.223 228.035 166.008 228.413 164.834C229.963 160.14 232.017 155.655 234.825 151.547C235.245 150.919 235.831 150.374 236.083 149.619L236.125 149.494Z" fill="#FFB78A"/>
<path d="M353.567 414.599C354.07 414.515 354.28 414.18 354.489 413.761C355.286 412 356.124 410.24 356.92 408.479C357.801 406.551 358.723 404.665 359.519 402.737C360.483 400.474 361.321 398.211 362.201 395.947C362.411 395.444 362.579 394.899 362.788 394.396C363.627 394.48 364.423 394.774 365.177 395.109C366.938 395.822 368.698 396.492 370.417 397.289C371.925 398.001 373.392 398.797 374.817 399.636C378.254 401.648 381.691 403.743 385.128 405.755C386.931 406.845 388.775 407.893 390.577 408.982C391.918 409.821 393.05 410.869 393.888 412.21C395.607 414.934 395.229 418.539 393.469 421.012C392.463 422.437 391.08 423.317 389.487 423.862C388.272 424.281 387.014 424.491 385.715 424.532C381.817 424.658 378.087 423.82 374.482 422.437C371.339 421.221 368.153 419.964 364.968 418.79C362.788 417.994 360.525 417.449 358.178 417.114C356.711 416.862 355.286 416.317 354.07 415.395C353.777 415.186 353.567 414.934 353.483 414.599H353.567Z" fill="#FFB78B"/>
<path d="M161.015 407.809C161.015 407.222 161.267 406.719 161.476 406.216C163.363 401.144 165.123 396.073 166.506 390.876C167.177 388.403 167.722 385.93 168.308 383.457C168.895 381.11 169.524 378.721 170.153 376.373C170.153 376.29 170.278 376.206 170.32 376.122C172.081 376.038 173.883 376.206 175.643 375.828C176.062 375.745 176.523 375.745 176.985 375.828C178.703 376.038 180.38 376.248 182.098 376.541C184.361 376.918 186.289 377.966 187.924 379.517C188.217 379.768 188.427 380.104 188.637 380.439C189.223 381.403 189.517 382.493 189.684 383.583C189.852 384.63 189.559 385.72 189.139 386.642C187.924 389.325 186.583 391.923 184.403 394.019C182.349 396.031 180.296 398.085 178.074 399.929C176.565 401.144 174.973 402.276 173.254 403.198C171.2 404.288 169.147 405.378 166.967 406.216C166.171 406.509 165.458 406.97 164.788 407.431C163.824 408.102 162.776 408.312 161.602 408.102C161.393 408.102 161.225 407.893 161.015 407.809Z" fill="#FFB68B"/>
<path d="M237.843 196.898C237.382 197.527 236.796 197.988 236.125 198.407C233.149 200.252 230.215 202.138 227.239 204.024C223.76 206.245 220.323 208.425 216.845 210.646C216.677 210.772 216.467 210.898 216.258 210.981C216.09 211.023 215.923 211.107 215.797 211.065C214.959 210.94 214.204 209.976 214.288 209.137C214.414 207.922 214.456 206.706 214.623 205.491C214.917 203.772 214.791 202.054 215.126 200.377C215.378 199.12 215.294 197.821 215.461 196.563C215.713 194.761 215.755 192.917 215.923 191.072C216.09 189.354 216.258 187.635 216.425 185.959C216.467 185.456 216.551 184.953 216.551 184.45C216.551 183.318 216.677 182.229 216.928 181.139C218.144 180.929 219.15 180.301 220.03 179.42C221.204 178.247 222.419 177.157 223.593 176.025C223.76 176.57 223.802 177.157 224.096 177.576C225.437 179.714 226.904 181.809 228.539 183.779C230.006 185.54 231.892 186.839 233.526 188.432C233.694 188.599 233.904 188.683 234.071 188.767C234.616 189.019 235.119 189.396 235.58 189.773C236.083 190.192 236.67 190.528 237.257 190.863C238.179 191.408 239.059 191.911 239.981 192.414C239.73 192.833 239.52 193.294 239.185 193.629C238.263 194.509 237.885 195.599 237.885 196.857L237.843 196.898Z" fill="#FFB68B"/>
<path d="M239.981 192.499C239.059 191.996 238.137 191.493 237.256 190.948C236.67 190.612 236.083 190.277 235.58 189.858C235.119 189.481 234.616 189.104 234.071 188.852C233.861 188.768 233.652 188.642 233.526 188.517C231.891 186.924 230.005 185.625 228.538 183.864C226.904 181.894 225.437 179.841 224.095 177.661C223.802 177.2 223.76 176.613 223.593 176.11C224.682 174.727 225.898 173.512 227.239 172.422C227.7 172.422 227.952 172.715 228.077 173.092C228.79 175.23 230.383 176.823 231.808 178.457C232.227 178.96 232.73 179.38 233.191 179.883C235.161 181.936 237.424 183.613 239.687 185.247C240.651 185.96 241.783 186.463 242.957 186.84C243.418 186.966 243.921 187.134 243.963 187.762C243.711 188.056 243.502 188.349 243.25 188.642C242.286 189.606 241.364 190.612 240.651 191.786C240.484 192.079 240.316 192.331 239.981 192.499Z" fill="#E7A47C"/>
<path d="M291.786 138.304C291.325 138.472 290.906 138.514 290.445 138.304C290.906 138.053 291.325 138.011 291.786 138.304Z" fill="#E7A47C"/>
<path d="M125.305 401.104C125.598 401.565 125.598 402.026 125.305 402.445C124.97 401.984 125.011 401.523 125.305 401.104Z" fill="#696D65"/>
<path d="M289.774 138.22C289.481 138.514 289.146 138.514 288.768 138.304C289.062 138.052 289.397 138.011 289.774 138.22Z" fill="#E7A47C"/>
<path d="M258.339 125.228C258.13 125.437 257.92 125.479 257.668 125.312C257.878 125.06 258.088 125.018 258.339 125.228Z" fill="#E7A47C"/>
<path d="M265.674 125.269C265.423 125.478 265.213 125.437 265.003 125.185C265.255 124.934 265.464 125.017 265.674 125.269Z" fill="#E7A47C"/>
<path d="M267.35 125.646C267.015 125.897 266.805 125.729 266.554 125.478C266.847 125.31 267.099 125.394 267.35 125.646Z" fill="#E7A47C"/>
<path d="M255.447 125.813C255.195 126.064 254.902 126.148 254.567 126.022C254.818 125.771 255.112 125.645 255.447 125.813Z" fill="#E7A47C"/>
<path d="M256.788 125.521C256.579 125.73 256.327 125.856 255.992 125.646C256.201 125.395 256.495 125.353 256.788 125.521Z" fill="#E7A47C"/>
<path d="M308.803 168.732C308.593 168.523 308.635 168.313 308.803 168.104C309.013 168.313 308.971 168.523 308.803 168.732Z" fill="#E7A47C"/>
<path d="M308.217 156.662C308.007 156.452 307.965 156.243 308.133 156.033C308.384 156.201 308.426 156.41 308.217 156.662Z" fill="#E7A47C"/>
<path d="M141.022 315.514C141.316 315.807 141.148 316.059 140.897 316.31C140.729 316.017 140.771 315.765 141.022 315.514Z" fill="#696D65"/>
<path d="M129.706 367.236C129.874 367.53 129.832 367.781 129.622 367.991C129.329 367.697 129.496 367.446 129.706 367.236Z" fill="#696D65"/>
<path d="M128.658 373.691C128.91 373.943 128.868 374.152 128.574 374.362C128.323 374.111 128.365 373.901 128.658 373.691Z" fill="#696D65"/>
<path d="M336.676 380.272C336.676 380.063 336.592 379.895 336.592 379.686C336.885 379.727 337.179 379.895 337.346 380.188C337.137 380.188 336.927 380.23 336.718 380.272H336.676Z" fill="#E7A47C"/>
<path d="M127.652 380.062C127.904 380.314 127.862 380.524 127.61 380.733C127.359 380.482 127.401 380.272 127.652 380.062Z" fill="#696D65"/>
<path d="M127.317 383.416C127.568 383.667 127.484 383.877 127.233 384.087C126.982 383.835 127.023 383.626 127.317 383.416Z" fill="#696D65"/>
<path d="M125.263 413.174C125.514 413.383 125.556 413.593 125.305 413.844C125.053 413.635 125.011 413.425 125.263 413.174Z" fill="#696D65"/>
<path d="M175.434 199.793C175.434 200.17 175.434 200.505 175.14 200.799C175.14 200.422 175.015 200.044 175.434 199.793Z" fill="#FFB78B"/>
<path d="M141.274 432.285C141.526 432.285 141.735 432.285 141.987 432.285C141.735 432.537 141.526 432.537 141.274 432.285Z" fill="#696D65"/>
<path d="M144.963 431.782C145.172 431.531 145.424 431.489 145.675 431.572C145.466 431.782 145.256 431.866 144.963 431.782Z" fill="#696D65"/>
<path d="M139.262 431.951C139.556 431.867 139.807 431.909 140.017 432.118C139.723 432.244 139.472 432.16 139.262 431.951Z" fill="#696D65"/>
<path d="M287.134 138.681C287.008 138.848 286.882 138.89 286.715 138.806C286.798 138.639 286.966 138.597 287.134 138.681Z" fill="#E7A47C"/>
<path d="M285.122 139.351C284.996 139.56 284.87 139.56 284.787 139.309C284.912 139.309 284.996 139.309 285.122 139.351Z" fill="#E7A47C"/>
<path d="M295.517 139.185C295.307 139.227 295.223 139.185 295.097 138.976C295.265 138.934 295.433 138.976 295.517 139.185Z" fill="#E7A47C"/>
<path d="M294.511 138.849C294.343 138.933 294.175 138.849 294.092 138.723C294.259 138.639 294.427 138.723 294.511 138.849Z" fill="#E7A47C"/>
<path d="M137.586 431.616C137.753 431.532 137.921 431.616 138.005 431.741C137.837 431.825 137.67 431.742 137.586 431.616Z" fill="#696D65"/>
<path d="M143.579 432.077C143.705 431.909 143.831 431.909 143.998 431.951C143.873 432.119 143.747 432.161 143.579 432.077Z" fill="#696D65"/>
<path d="M146.304 431.448C146.388 431.281 146.555 431.239 146.723 431.281C146.639 431.448 146.471 431.532 146.304 431.448Z" fill="#696D65"/>
<path d="M294.427 152.637C294.594 155.445 294.008 157.918 293.63 160.433C293.337 162.151 292.834 163.786 292.289 165.378C291.828 166.72 291.241 167.935 290.361 169.025C289.02 170.743 287.763 172.504 286.296 174.055C285.457 174.935 284.787 175.941 283.99 176.905C283.11 177.994 282.062 178.917 280.889 179.629C279.506 180.467 278.164 181.348 276.781 182.144C276.111 182.521 275.398 182.898 274.685 183.192C274.183 183.443 273.847 183.317 273.638 182.773C273.177 181.599 272.925 180.342 272.674 179.084C272.464 177.994 272.674 177.533 273.638 177.03C275.314 176.108 276.907 174.935 278.332 173.635C279.045 172.965 279.883 172.378 280.595 171.707C283.026 169.402 284.703 166.636 285.918 163.576C286.296 162.612 286.547 161.564 286.673 160.516C286.84 159.343 287.05 158.211 287.301 157.079C287.385 156.702 287.385 156.325 287.385 155.906C287.385 155.193 287.385 154.439 287.385 153.726C287.469 151.882 287.134 150.08 286.715 148.32C286.421 147.062 285.835 145.93 285.29 144.757C285.038 144.254 285.122 144.044 285.625 143.835C287.05 143.248 288.601 142.955 290.11 142.619C290.571 142.494 290.948 142.703 291.325 142.996C292.834 144.296 293.63 145.972 294.05 147.858C294.385 149.493 294.594 151.128 294.385 152.595L294.427 152.637Z" fill="#62340E"/>
</svg>
