<svg width="500" height="500" viewBox="0 0 500 500" fill="none" xmlns="http://www.w3.org/2000/svg">
<path d="M74.3233 332.798C80.0967 331.959 85.9751 331.224 91.8536 330.594C94.8978 330.279 97.837 329.859 100.881 329.439C104.03 329.019 107.179 328.495 110.329 328.075C114.423 327.445 118.516 326.815 122.61 326.29C124.71 325.975 126.809 325.765 128.909 325.66C132.688 325.345 136.572 325.24 140.351 324.82C146.439 324.191 152.632 323.876 158.721 323.561C160.085 323.561 161.345 323.351 162.71 323.351C164.179 323.351 165.754 323.351 167.223 323.561C168.063 323.666 168.903 323.771 169.743 323.666C172.472 323.456 175.096 323.246 177.826 323.036C180.45 322.826 183.074 322.091 185.593 321.566C191.682 320.307 197.77 319.047 203.754 317.682C208.897 316.528 214.041 315.478 219.184 314.323C224.433 313.169 229.787 312.119 235.035 310.964C242.593 309.285 250.256 307.71 257.814 306.031C261.068 305.296 264.427 304.561 267.681 303.931C269.676 303.511 271.775 303.406 273.77 303.091C275.449 302.881 277.129 302.566 278.808 302.042C279.333 301.832 279.858 301.727 280.068 301.202C280.068 298.578 279.543 295.953 279.018 293.329C278.494 290.495 277.969 287.66 277.549 284.826C276.814 280.522 276.079 276.114 275.344 271.81C274.715 268.346 274.19 264.987 273.56 261.522C273.035 258.373 272.51 255.119 271.985 251.97C271.88 251.34 271.565 250.71 271.146 250.186C268.626 249.766 266.212 249.451 263.693 249.241C252.88 248.506 243.118 251.55 234.195 257.534C229.472 260.788 225.378 264.672 222.229 269.5C221.704 270.34 220.969 270.76 220.129 271.18C217.82 272.23 215.3 272.545 212.991 273.489C210.472 274.434 208.057 275.379 205.538 276.219C201.234 277.688 196.93 279.053 192.522 280.417C189.058 281.572 185.488 282.622 182.024 283.881C180.555 284.406 179.085 285.036 177.616 285.771C174.256 287.451 170.792 288.605 167.328 289.97C165.124 290.81 162.71 291.23 160.4 291.334C155.886 291.544 151.268 291.859 146.754 292.069C144.025 292.069 141.19 292.594 138.461 292.804C133.107 293.224 127.859 294.274 122.61 295.218C119.251 295.848 115.997 296.163 112.638 297.003C104.975 298.787 97.4171 300.782 89.8591 302.881C86.395 303.826 82.931 304.666 79.5719 305.611C77.8923 306.031 76.3177 306.555 74.6382 307.08C72.9586 307.5 71.384 308.025 69.7045 308.445C69.2846 308.55 68.7598 308.655 68.5498 309.075C68.9697 309.914 68.9697 310.859 69.1796 311.804C70.5443 318.312 72.0139 324.821 73.3785 331.329C73.4835 331.959 73.5885 332.588 74.1133 333.113L74.3233 332.798Z" fill="#696F6A"/>
<path d="M348.93 288.709C348.93 289.024 348.93 289.233 348.93 289.443C348.51 291.648 348.72 293.747 348.51 295.952C348.195 298.786 348.3 301.62 348.09 304.454C347.88 306.659 348.09 308.863 347.67 310.963C347.25 314.112 347.67 317.261 347.04 320.41C347.04 320.515 347.04 320.725 347.04 320.83C347.145 324.819 346.515 328.703 346.515 332.692C345.885 335.946 346.41 339.305 345.885 342.559C345.675 343.504 345.885 344.554 345.885 345.498C345.885 346.968 345.885 348.543 345.57 350.012C345.256 351.797 345.885 353.581 346.62 355.156C348.09 358.935 351.134 361.244 354.808 362.819C358.167 364.183 361.736 364.813 365.41 364.813C371.499 364.813 377.587 365.023 383.675 364.813C393.228 364.393 402.78 364.603 412.333 364.498C421.885 364.498 431.437 364.498 441.095 364.498C443.509 364.498 445.819 364.498 448.233 364.498C448.653 364.498 449.178 364.498 449.598 364.498C450.122 364.498 450.542 364.183 450.542 363.659C450.647 361.664 451.277 359.775 450.857 357.78C450.647 356.94 450.647 356.101 450.752 355.261C450.752 354.001 450.122 353.161 449.073 352.636C448.863 352.532 448.548 352.427 448.338 352.322C443.614 350.852 438.785 349.277 433.957 347.808C432.172 347.283 430.283 346.758 428.393 346.653C427.134 346.653 425.769 346.128 424.509 345.813C423.67 345.603 422.83 345.498 421.99 345.498C418.736 345.498 415.377 345.183 412.123 344.869C411.493 344.869 410.968 344.869 410.338 344.869C408.659 344.869 407.084 344.869 405.404 344.449C403.2 344.344 400.891 344.764 398.686 344.029C398.476 344.029 398.161 344.029 397.846 344.029C396.272 344.029 394.697 344.029 393.123 343.714C391.023 343.399 388.924 343.609 386.824 343.294C385.25 343.084 383.57 343.399 381.891 342.874C379.476 343.084 377.167 342.559 374.858 342.139C373.703 341.929 372.548 341.614 371.499 341.09C368.979 339.935 368.034 336.891 368.454 334.791C368.769 333.217 368.979 331.747 369.189 330.172C369.609 327.023 370.029 323.769 370.554 320.62C370.974 317.471 371.603 314.427 371.918 311.278C372.233 307.709 372.653 304.244 373.073 300.675C373.178 299.416 373.388 298.156 373.493 297.001C373.703 294.062 374.228 291.123 374.543 288.184C374.858 285.664 375.173 283.25 375.487 280.731C375.697 279.156 375.907 277.582 376.012 276.007C375.802 275.062 376.222 274.222 376.222 273.278C376.222 269.079 376.432 264.985 376.222 260.786C376.222 258.372 375.592 255.957 374.858 253.648C374.543 252.808 374.123 251.968 373.493 251.234C371.603 249.134 369.399 247.245 366.775 246.195C364.465 245.145 361.946 244.725 359.427 245.145C355.333 245.775 351.869 247.665 349.035 250.709C347.145 252.808 345.57 255.223 344.521 257.847C343.471 260.366 342.736 262.991 342.631 265.72C342.526 268.239 342.526 270.863 343.051 273.383C343.786 277.162 345.361 280.521 347.67 283.565C348.93 284.51 349.14 285.769 349.035 287.239C349.035 287.869 349.035 288.394 348.93 289.024V288.709Z" fill="#FFB68A"/>
<path d="M348.93 288.711C348.93 288.081 348.93 287.556 349.035 286.926C349.14 285.457 349.035 284.197 347.67 283.252C345.361 280.208 343.786 276.849 343.051 273.07C342.526 270.551 342.526 267.927 342.631 265.407C342.841 262.678 343.471 260.054 344.521 257.534C345.571 254.91 347.145 252.496 349.035 250.396C351.869 247.352 355.333 245.358 359.427 244.833C361.946 244.413 364.361 244.833 366.775 245.882C369.399 247.037 371.604 248.822 373.493 250.921C374.123 251.656 374.543 252.391 374.858 253.335C375.698 255.645 376.117 258.059 376.222 260.474C376.432 264.672 376.222 268.766 376.222 272.965C376.222 273.91 375.698 274.75 376.012 275.694C377.167 274.75 377.797 273.49 378.742 272.335C379.057 271.915 379.372 271.286 380.001 271.286C380.106 270.761 380.211 270.236 380.526 269.816C381.891 267.822 383.046 265.722 384.095 263.518C384.095 263.098 384.095 262.678 384.2 262.363C384.725 260.683 384.83 259.004 384.83 257.324C384.83 255.855 384.83 254.385 384.83 253.021C384.83 252.601 384.83 252.076 384.83 251.656C384.41 249.242 383.99 246.827 383.256 244.518C382.521 241.998 381.576 239.479 379.791 237.485C379.372 237.065 379.057 236.54 378.952 235.91C378.112 235.28 377.377 234.65 376.537 234.126C376.222 233.916 376.117 233.706 376.117 233.286C375.698 233.391 375.278 233.286 374.963 233.076C374.018 232.341 372.968 232.026 371.919 231.711C369.294 230.871 366.565 230.347 363.836 230.032C360.372 229.612 357.013 229.612 353.548 230.032C350.819 230.242 347.985 230.032 345.256 230.662C343.681 230.976 342.002 230.976 340.322 231.186C338.013 231.501 335.808 231.921 333.499 232.236C329.615 232.866 325.731 233.601 321.847 234.545C318.068 235.385 314.289 236.33 310.615 237.59C308.83 238.115 306.941 238.534 305.261 239.584C305.366 239.899 305.471 240.214 305.576 240.529C307.991 248.297 310.51 255.96 312.924 263.728C313.869 266.772 314.919 269.711 315.864 272.755C317.858 279.054 319.852 285.352 321.847 291.65C323.841 291.44 325.731 290.915 327.62 290.496C330.35 289.866 333.079 289.236 335.808 288.606C336.648 288.396 337.488 288.396 338.328 288.606C340.112 288.921 341.792 289.341 343.576 289.551C344.521 289.656 345.571 289.551 346.515 289.551C347.145 289.551 347.67 289.341 348.3 289.236L348.93 288.711Z" fill="#8A89DE"/>
<path d="M322.477 291.23C320.482 284.932 318.488 278.633 316.493 272.335C315.548 269.291 314.499 266.352 313.554 263.308C311.035 255.54 308.62 247.877 306.206 240.109C306.206 239.794 305.996 239.479 305.891 239.164C305.681 239.164 305.366 239.164 305.156 239.269C299.803 241.054 294.449 242.838 289.096 244.518C286.996 245.252 284.897 245.882 282.692 246.617C282.587 246.617 282.377 246.617 282.272 246.617C282.167 247.037 281.747 247.037 281.433 247.037C278.808 247.877 276.184 248.717 273.56 249.451C272.825 249.661 272.195 249.766 271.46 249.976C271.88 250.501 272.195 251.131 272.3 251.761C272.825 254.91 273.35 258.164 273.875 261.313C274.504 264.777 275.029 268.136 275.659 271.6C276.394 275.904 277.129 280.313 277.864 284.617C278.388 287.451 278.913 290.285 279.333 293.12C279.753 295.744 280.278 298.263 280.383 300.993C281.538 300.783 282.692 300.573 283.847 300.258C288.991 299.103 294.029 297.843 299.173 296.689C301.062 296.269 302.847 295.849 304.736 295.429C309.88 294.274 315.024 293.015 320.062 291.86C320.902 291.65 321.742 291.545 322.477 291.125V291.23Z" fill="#FFB78C"/>
<path d="M442.984 262.676C445.819 259.212 447.288 255.118 448.128 250.814C449.073 246.615 449.283 242.312 448.968 238.008C448.653 234.859 448.023 231.709 446.448 228.875C446.134 228.35 446.029 227.825 446.238 227.196C447.288 223.207 446.238 219.428 444.244 215.964C440.57 209.665 435.111 205.676 428.078 203.892C420.835 202.002 414.117 203.577 407.819 207.461C405.824 208.721 404.355 210.505 402.99 212.395C401.625 214.284 400.261 216.279 399.001 218.273C397.427 220.687 396.587 223.417 395.537 226.041C395.537 226.251 395.432 226.461 395.432 226.566C395.117 228.035 395.432 228.56 396.902 229.085C397.112 229.085 397.427 229.085 397.637 229.295C398.161 229.4 398.266 229.715 397.951 230.135C397.637 230.66 397.217 231.185 397.112 231.919C397.322 232.444 397.532 233.074 397.741 233.599C398.581 235.908 399.526 238.218 400.786 240.422C401.94 242.522 403.41 244.411 405.194 245.986C407.084 247.56 409.078 248.61 411.598 248.61C414.747 248.61 417.791 248.61 420.94 248.715C422.305 248.715 423.46 249.135 424.614 249.975C429.863 253.964 435.216 257.847 440.465 261.731C440.78 261.941 441.2 262.151 441.305 262.571C441.725 262.571 442.145 262.676 442.564 262.781C442.564 262.676 442.669 262.571 442.879 262.571L442.984 262.676ZM424.299 219.323C422.83 219.113 420.73 219.638 418.631 220.477C418.001 220.687 417.371 221.002 416.846 221.212C416.321 221.422 415.902 221.317 415.587 221.002C415.272 220.582 415.272 220.163 415.482 219.743C415.692 219.323 416.007 219.008 416.426 218.798C418.736 217.118 421.465 216.594 424.194 216.384C426.189 216.174 428.288 216.279 430.283 216.698C432.907 217.223 435.426 218.063 437.736 219.218C440.045 220.372 442.145 222.157 444.244 223.627C444.769 224.047 445.189 224.571 445.399 225.201C445.399 225.411 445.399 225.726 445.399 225.936C444.979 226.671 444.454 227.196 443.719 227.616C443.089 227.93 442.459 227.93 441.83 227.406C441.2 226.881 440.675 226.356 440.15 225.726C439.1 224.676 437.946 223.732 436.686 222.892C433.117 220.687 429.338 219.428 424.404 219.428L424.299 219.323Z" fill="#894101"/>
<path d="M441.41 262.572C441.305 262.152 440.885 261.942 440.57 261.732C435.321 257.848 429.968 253.964 424.719 249.975C423.564 249.135 422.41 248.715 421.045 248.715C417.896 248.715 414.852 248.61 411.703 248.61C409.183 248.61 407.084 247.666 405.299 245.986C403.515 244.412 402.045 242.522 400.891 240.423C399.631 238.218 398.686 235.909 397.846 233.599C397.636 233.075 397.426 232.445 397.217 231.92C395.222 233.285 392.808 233.809 390.498 234.439C389.134 234.754 387.874 235.174 386.509 235.384C385.775 235.489 385.04 235.594 384.305 235.594C383.255 235.594 382.206 235.594 381.156 235.909C380.526 236.119 379.896 236.014 379.161 235.909C379.161 236.539 379.581 236.959 380.001 237.483C381.786 239.583 382.73 241.997 383.465 244.517C384.2 246.826 384.62 249.24 385.04 251.655C385.04 252.075 385.04 252.599 385.04 253.019C385.04 254.489 385.04 255.958 385.04 257.323C385.04 259.003 384.935 260.787 384.41 262.362C384.305 262.782 384.305 263.097 384.305 263.516C385.355 263.621 386.404 263.936 387.349 264.356C387.874 264.671 388.504 264.776 389.029 264.881C392.073 265.616 394.907 266.876 397.636 268.345C399.631 269.395 400.786 270.969 401.1 273.384C401.205 274.643 401.52 275.798 401.52 277.058C401.52 278.108 401.94 279.052 402.465 279.997C402.99 280.942 403.725 281.362 404.67 281.467C405.509 281.467 406.349 281.467 407.189 281.467C410.023 280.942 412.857 280.312 415.692 279.787C418.421 279.262 420.94 279.787 423.25 281.152C423.774 281.467 424.194 281.782 424.719 282.201C425.454 282.726 426.294 282.936 427.133 282.936C428.603 282.936 429.443 282.306 429.758 280.837C429.968 279.997 430.073 279.157 430.178 278.318C430.178 276.218 430.703 274.119 431.017 272.019C431.017 271.494 431.227 270.969 431.437 270.55C432.592 268.135 434.272 266.141 436.791 264.986C437.736 264.566 438.68 264.146 439.73 263.726C440.36 263.412 440.99 263.411 441.41 262.782V262.572Z" fill="#FFB78E"/>
<path d="M74.3232 332.798C73.7983 332.273 73.6933 331.644 73.5883 331.014C72.2237 324.506 70.7541 317.997 69.3895 311.489C69.1795 310.544 69.0746 309.705 68.7596 308.76C67.0801 308.76 65.5055 309.495 64.0359 310.124C61.8315 311.174 59.6271 312.329 57.4227 313.379C55.7431 314.113 54.4835 315.373 53.3288 316.738C52.0691 318.312 50.9144 320.097 50.1796 321.986C49.0249 324.82 48.605 327.865 49.2349 330.909C50.1796 335.528 51.8592 340.041 54.2735 344.135C55.4282 346.235 56.5829 348.334 57.6326 350.434C59.2072 353.478 61.0967 356.312 63.721 358.621C66.5552 361.141 69.4944 363.45 73.0635 364.71C75.5828 365.55 78.2071 365.759 80.8314 364.92C83.1408 364.185 85.0303 362.295 85.0303 359.356C85.0303 356.942 84.4004 354.737 83.4557 352.638C82.6159 350.748 81.4612 349.069 79.9916 347.599C78.627 346.34 77.3673 344.975 76.0027 343.82C75.5828 343.4 75.1629 342.981 75.1629 342.351C75.058 339.936 74.6381 337.522 74.3232 335.108C74.3232 334.373 74.3232 333.533 74.3232 332.693V332.798Z" fill="#FFB68B"/>
<path d="M282.482 246.722C284.582 245.987 286.786 245.357 288.886 244.622C294.239 242.838 299.593 241.053 304.946 239.374C305.156 239.374 305.471 239.374 305.681 239.269C307.361 238.324 309.25 237.904 311.035 237.274C314.709 236.119 318.488 235.175 322.267 234.23C326.151 233.39 329.93 232.55 333.919 231.921C336.228 231.606 338.432 231.186 340.742 230.871C342.316 230.661 343.996 230.661 345.675 230.346C348.405 229.821 351.239 229.926 353.968 229.716C357.327 229.401 360.791 229.401 364.255 229.716C366.985 230.031 369.714 230.556 372.338 231.396C373.388 231.711 374.438 232.131 375.382 232.76C375.697 232.97 376.117 233.075 376.537 232.97C376.222 230.031 375.487 227.302 374.018 224.678C372.653 222.368 371.079 220.164 368.979 218.379C368.349 217.854 367.824 217.329 367.3 216.7C365.83 215.125 363.94 214.075 361.946 213.446C359.952 212.816 358.062 212.081 356.068 211.871C352.918 211.451 349.874 211.976 346.83 212.921C343.681 213.865 340.742 215.02 337.907 216.595C330.035 220.794 322.162 224.992 314.289 229.191C304.107 234.545 294.029 240.003 283.847 245.357C283.427 245.567 283.007 245.882 282.692 246.092C282.692 246.197 282.692 246.302 282.692 246.407L282.482 246.722Z" fill="#6A6F6A"/>
<path d="M380.211 271.283C379.582 271.283 379.267 271.913 378.952 272.332C378.112 273.487 377.377 274.747 376.222 275.692C376.012 277.266 375.907 278.841 375.698 280.415C375.383 282.935 375.068 285.349 374.753 287.868C374.333 290.807 373.808 293.747 373.703 296.686C373.703 297.946 373.388 299.205 373.283 300.36C372.863 303.929 372.443 307.393 372.128 310.962C371.814 314.111 371.184 317.155 370.764 320.305C370.344 323.454 369.924 326.708 369.399 329.857C370.029 329.857 370.764 329.857 371.394 329.857C373.283 329.857 375.068 329.647 376.957 329.542C379.686 329.332 382.416 329.437 385.04 329.017C384.62 328.387 384.305 327.758 384.305 327.023C384.095 324.294 383.885 321.669 383.675 318.94C383.151 311.907 382.626 304.874 382.206 297.841C381.891 292.907 381.576 287.973 381.156 283.04C380.841 279.051 380.526 275.167 380.316 271.178L380.211 271.283Z" fill="#6A7069"/>
<path d="M384.935 329.125C382.206 329.545 379.581 329.44 376.852 329.65C374.963 329.755 373.178 329.965 371.289 329.965C370.659 329.965 369.924 329.965 369.294 329.965C369.084 331.539 368.874 333.114 368.559 334.584C368.14 336.683 369.084 339.727 371.604 340.882C372.653 341.407 373.808 341.722 374.963 341.932C377.272 342.351 379.581 342.876 381.996 342.666C383.57 343.191 385.25 342.876 386.93 343.086C389.029 343.401 391.128 343.191 393.228 343.506C394.802 343.716 396.377 343.821 397.952 343.821C398.266 343.821 398.476 343.821 398.791 343.821C400.996 344.451 403.2 344.031 405.51 344.241C405.195 341.302 403.515 339.202 401.416 337.313C399.526 335.738 397.427 334.584 395.327 333.429C392.178 331.644 388.819 329.965 385.25 329.125H384.935Z" fill="#E6A37C"/>
<path d="M376.432 233.283C376.432 233.598 376.537 233.913 376.852 234.123C376.852 233.808 376.852 233.493 376.432 233.283Z" fill="#6A6F6A"/>
<path d="M281.328 247.141C281.643 247.141 281.958 247.141 282.167 246.721C281.853 246.721 281.538 246.721 281.328 247.141Z" fill="#A2907D"/>
<path d="M282.482 246.721C282.482 246.616 282.482 246.511 282.482 246.406C282.272 246.406 282.063 246.406 282.063 246.721C282.168 246.721 282.377 246.721 282.482 246.721Z" fill="#A2907D"/>
<path d="M442.984 262.676C442.879 262.676 442.774 262.676 442.669 262.886C442.879 262.991 442.984 262.886 442.984 262.676Z" fill="#FFB78E"/>
<path d="M424.299 219.325C429.233 219.325 433.012 220.585 436.581 222.789C437.841 223.629 438.995 224.574 440.045 225.623C440.57 226.148 441.2 226.778 441.725 227.303C442.249 227.828 442.984 227.828 443.614 227.513C444.349 227.198 444.874 226.568 445.294 225.833C445.399 225.623 445.294 225.308 445.294 225.098C445.084 224.469 444.769 223.944 444.139 223.524C442.04 221.949 439.94 220.27 437.631 219.115C435.321 217.96 432.802 217.121 430.178 216.596C428.183 216.176 426.084 216.071 424.089 216.281C421.36 216.491 418.631 217.016 416.321 218.695C415.902 219.01 415.587 219.22 415.377 219.64C415.167 220.06 415.272 220.585 415.482 220.9C415.797 221.214 416.216 221.319 416.741 221.109C417.371 220.9 418.001 220.585 418.526 220.375C420.625 219.64 422.62 219.115 424.194 219.22L424.299 219.325Z" fill="#5D3717"/>
</svg>
