<svg width="500" height="500" viewBox="0 0 500 500" fill="none" xmlns="http://www.w3.org/2000/svg">
<path d="M321.933 273.912C321.559 274.032 321.196 274.18 320.815 274.265C319.774 274.494 318.712 274.653 317.682 274.924C316.204 275.316 314.68 275.471 313.181 275.566C309.138 275.828 305.084 276.043 301.027 275.986C298.551 275.951 296.089 275.679 293.633 275.365C293.411 275.337 293.185 275.309 292.959 275.312C291.605 275.327 290.268 275.178 288.934 274.946C288.282 274.833 287.555 272.952 286.853 273.079C286.059 273.224 285.428 274.438 284.673 274.233C284.817 275.252 284.39 276.036 283.519 276.47C282.316 277.066 281.067 277.584 279.808 278.05C275.86 279.514 271.782 280.548 267.725 281.648C266.815 281.895 265.88 282.065 264.91 282.096C263.742 282.132 262.578 282.357 261.417 282.527C260.313 282.686 259.216 283 258.108 283.031C256.034 283.095 253.949 283.194 251.871 282.978C251.825 283.024 251.78 283.074 251.737 283.123C251.727 283.769 252.072 284.164 252.633 284.425C253.307 284.742 254.027 284.89 254.75 285.007C257.368 285.43 259.982 285.868 262.61 286.22C265.125 286.559 267.609 287.123 270.152 287.272C273.08 287.441 275.991 287.804 278.933 287.85C281.014 287.882 283.089 288.235 285.166 288.432C286.175 288.531 287.188 288.623 288.2 288.686C290.62 288.845 293.023 289.085 295.422 289.505C297.302 289.836 299.235 289.889 301.147 290.002C302.615 290.087 304.061 290.228 305.511 290.5C307.003 290.778 308.527 290.912 310.044 291.004C313.085 291.191 316.116 291.438 319.121 291.96C320.286 292.161 321.474 292.267 322.656 292.309C325.14 292.401 327.613 292.595 330.054 293.068C331.557 293.361 333.081 293.396 334.601 293.466C336.676 293.562 336.838 293.932 336.386 295.664C336.217 296.317 336.129 296.984 335.861 297.615C335.642 298.13 335.444 298.691 335.416 299.238C335.332 300.945 334.785 302.558 334.485 304.216C334.425 304.547 334.337 304.879 334.309 305.214C333.846 310.731 333.741 316.256 333.931 321.788C333.942 322.123 333.959 322.472 334.055 322.789C334.436 324.045 334.552 325.333 334.584 326.635C334.598 327.263 334.693 327.869 334.926 328.455C335.007 328.663 335.113 328.885 335.116 329.104C335.134 330.706 335.808 332.17 336.087 333.718C336.312 334.981 336.87 336.181 337.275 337.412C337.434 337.892 337.579 338.379 337.73 338.862C338.094 338.841 338.38 338.686 338.436 338.308C338.503 337.878 338.524 337.437 338.542 337.003C338.56 336.58 338.743 336.276 339.12 336.089C339.11 335.927 339.103 335.765 339.096 335.602C338.785 334.897 338.715 334.209 339.23 333.556C339.244 333.323 339.254 333.091 339.269 332.858C339.106 332.135 339.156 331.39 339.262 330.681C339.389 329.82 339.357 328.9 339.904 328.138C339.822 327.446 339.815 326.762 340.009 326.084C339.9 325.284 339.717 324.472 340.232 323.728C340.14 323.248 340.419 322.835 340.475 322.384C340.225 322.123 340.256 321.89 340.546 321.685C340.51 321.107 340.503 320.532 340.743 319.988C340.567 319.512 340.482 319.05 340.906 318.648C340.761 318.062 341.043 317.533 341.128 316.979C340.81 316.383 340.793 315.808 341.241 315.261C341.128 313.896 341.255 312.548 341.505 311.208C341.195 310.738 341.188 310.28 341.555 309.835C341.541 306.678 341.484 303.521 341.833 300.377C341.516 299.792 341.502 299.22 341.897 298.663C341.809 297.636 341.893 296.627 342.172 295.636C341.858 295.16 341.84 294.701 342.25 294.267C342.225 292.793 342.151 291.318 342.405 289.854C342.232 289.268 342.172 288.693 342.567 288.161C342.564 287.251 342.511 286.34 342.789 285.455C342.638 285.197 342.684 284.972 342.895 284.77C342.909 283.871 342.923 282.971 342.938 282.075C342.02 281.775 341.082 281.698 340.122 281.726C339.283 281.751 338.44 281.726 337.596 281.726C337.201 281.726 336.803 281.733 336.45 281.528C335.744 281.119 334.982 281.003 334.182 281.031C333.966 281.038 333.698 281.006 333.539 280.883C332.947 280.414 332.195 280.336 331.55 280.019C330.361 279.433 329.126 278.974 327.987 278.251C326.367 277.221 324.946 275.983 323.542 274.706C323.073 274.279 322.646 273.848 321.947 273.933L321.933 273.912Z" fill="#6C6F68"/>
<path d="M335.554 365.687C335.6 365.662 335.656 365.641 335.713 365.62C335.617 362.558 335.66 357.538 336.489 351.505C337.872 341.43 341.929 288.989 341.929 288.989L342.909 282.167C342.909 282.124 342.909 282.086 342.909 282.043C343.354 280.452 343.237 278.794 343.502 277.182C343.738 275.739 343.865 274.275 344.102 272.832C344.465 270.606 344.716 268.369 344.966 266.129C345.199 264.048 345.22 261.967 345.269 259.882C345.273 259.656 345.224 259.412 345.294 259.208C345.7 258.015 345.202 257.052 344.631 256.05C343.181 253.5 341.865 250.893 340.824 248.134C340.249 246.61 339.477 245.164 339.103 243.559C338.256 239.932 338.157 236.316 339.131 232.689C339.445 231.525 339.957 230.478 340.676 229.522C342.221 227.461 344.13 225.821 346.381 224.569C347.958 223.694 349.52 222.798 351.313 222.413C352.374 222.469 353.447 222.311 354.491 222.699C354.84 222.829 355.271 222.759 355.666 222.759C357.13 222.762 358.597 222.752 360.061 222.762C361.014 222.769 361.97 222.667 362.901 223.03C363.201 223.147 363.568 223.09 363.907 223.097C364.637 223.108 365.353 223.048 365.988 223.584C366.464 223.99 367.159 223.743 367.748 224.057C369.138 224.801 370.391 225.74 371.647 226.664C372.081 226.985 372.486 227.211 373.023 227.168C373.026 227.391 373.033 227.617 373.033 227.839C372.825 227.969 372.691 228.174 372.825 228.386C373.001 228.664 373.248 228.901 373.478 229.141C373.975 229.663 374.515 230.139 374.871 230.792C375.111 231.236 375.506 231.568 376.074 231.568C376.346 231.716 376.406 231.966 376.416 232.245C376.346 232.326 376.208 232.418 376.215 232.492C376.317 233.434 376.543 234.348 376.931 235.212C377.012 235.392 377.259 235.498 377.432 235.635C377.439 235.745 377.439 235.857 377.439 235.967C376.885 236.916 376.956 237.279 377.767 237.667C377.789 238.281 377.739 238.895 377.972 239.498C378.085 239.798 378.17 240.207 378.06 240.482C377.75 241.248 378.053 242.035 377.898 242.772C377.732 243.559 377.824 244.338 377.767 245.118C376.963 245.46 376.914 245.672 377.443 246.48C377.439 247.266 377.432 248.057 377.429 248.843C376.624 249.185 376.575 249.397 377.104 250.205C377.101 250.879 377.094 251.556 377.09 252.23C376.49 252.272 376.409 252.674 376.42 253.165C376.427 253.63 376.631 253.888 377.104 253.916C377.443 253.916 377.782 253.934 378.117 253.916C378.917 253.877 379.274 253.606 379.404 252.875C379.471 252.491 379.45 252.089 379.461 251.697C379.482 250.858 379.429 250.025 379.711 249.196C379.866 248.737 379.796 248.194 379.796 247.69C379.803 244.257 379.796 240.825 379.803 237.392C379.803 234.626 379.002 232.079 377.651 229.705C376.96 228.488 376.152 227.338 375.397 226.16C375.481 226.089 375.555 225.969 375.647 225.951C376.416 225.817 377.139 225.542 377.88 225.331C379.009 225.006 380.064 224.498 381.193 224.191C382.262 223.898 383.31 223.535 384.368 223.207C385.585 222.829 386.806 222.459 388.023 222.085C389.635 224.65 391.244 227.218 392.852 229.786C392.972 229.977 393.096 230.167 393.194 230.368C393.604 231.201 394.217 231.596 395.188 231.638C396.077 231.673 396.962 231.92 397.837 232.129C399.319 232.485 400.843 232.52 402.342 232.753C403.563 232.943 404.783 233.152 405.99 233.423C406.596 233.557 407.08 233.466 407.577 233.127C408.509 232.495 409.496 231.945 410.396 231.275C411.384 230.538 412.386 230.336 413.56 230.742C414.993 231.236 416.446 231.681 417.907 232.093C422.122 233.289 426.349 234.457 430.571 235.635C430.55 236.588 429.936 237.311 429.58 238.122C428.786 239.925 427.89 241.682 426.969 243.425C426.73 243.883 426.514 244.314 426.433 244.822C426.063 247.118 426.109 249.436 426.356 251.725C426.546 253.5 426.493 255.193 425.925 256.879C425.516 258.1 425.266 258.291 423.999 258.344C422.69 258.4 421.417 258.213 420.171 257.828C419.233 257.539 418.192 257.345 417.356 257.765C415.282 258.809 413.035 259.381 410.953 260.372C409.828 260.908 408.65 261.229 407.436 261.519C405.125 262.072 403.069 261.628 401.199 260.266C398.931 258.612 396.687 256.925 394.486 255.186C393.688 254.555 392.887 254.237 391.868 254.248C388.146 254.283 384.424 254.262 380.703 254.262C379.687 254.262 378.671 254.262 377.658 254.297C376.684 254.332 376.434 254.544 376.427 255.511C376.416 256.7 376.289 257.867 376.053 259.028C375.965 259.469 375.817 259.896 375.753 260.34C375.481 262.281 375.471 264.263 374.786 266.14C374.695 266.397 374.712 266.701 374.716 266.98C374.726 267.664 374.564 268.313 374.42 268.976C374.264 269.685 374.095 270.394 373.979 271.118C373.661 273.107 373.227 275.079 372.8 277.051C372.444 278.695 372.024 280.325 371.643 281.962C371.237 283.705 370.962 285.486 370.412 287.183C369.745 289.243 369.491 291.371 369.357 293.477C369.177 296.31 368.923 299.146 368.913 301.989L368.969 302.046C368.969 302.046 368.955 302.406 368.92 303.048C368.923 303.288 368.927 303.524 368.934 303.764C368.99 305.228 368.941 306.695 368.923 308.163C368.916 308.727 368.867 309.288 368.835 309.849C368.68 309.951 368.556 310.075 368.461 310.213C368.412 310.851 368.362 311.518 368.306 312.202C368.306 312.333 368.309 312.467 368.313 312.597C368.345 314.629 367.988 316.626 367.777 318.633C367.65 319.843 367.48 321.046 367.308 322.249C366.778 326.617 366.105 330.991 365.251 334.565C365.046 335.419 364.799 336.262 364.517 337.098C364.492 337.232 364.468 337.362 364.439 337.496C363.924 340.086 363.335 342.661 362.848 345.254C362.376 347.794 361.949 350.341 361.585 352.899C361.324 354.733 361.007 356.561 360.665 358.381C360.569 358.875 360.566 359.386 360.52 359.887C360.513 359.944 360.506 360 360.492 360.053C360.33 360.695 359.991 361.298 360.34 362.004C360.795 362.918 361.229 363.828 362.185 364.332C362.436 364.466 362.683 364.593 362.94 364.71C365.036 365.652 367.131 366.59 369.23 367.532C370.408 368.061 371.59 368.58 372.761 369.119C373.372 369.402 373.961 369.695 374.642 369.822C375.305 369.945 375.7 370.453 375.721 371.151C375.75 371.931 375.774 372.697 375.421 373.459C374.716 374.986 374.091 376.549 373.446 378.101C372.994 379.188 372.613 380.306 372.105 381.364C371.749 382.109 371.622 382.85 371.668 383.647C371.149 383.95 370.61 383.954 370.034 383.823C368.472 383.474 366.874 383.541 365.321 383.742C363.067 384.035 360.806 384.039 358.573 383.866C356.77 383.725 354.974 383.689 353.175 383.643C352.78 383.636 352.378 383.64 351.997 383.559C350.568 383.248 349.129 382.97 347.725 382.56C344.663 381.668 342.052 380.101 340.278 377.346C339.699 376.447 339.113 375.547 338.478 374.686C337.177 372.926 336.429 370.922 335.9 368.841C335.642 367.825 335.268 366.781 335.547 365.683L335.554 365.687Z" fill="#F7BB93"/>
<path d="M90.5884 330.86C90.359 330.733 90.1297 330.606 89.9039 330.479C89.3219 330.536 88.8244 330.303 88.3482 330.01C88.0413 329.823 87.9072 329.53 87.879 329.181C87.6532 329.05 87.4274 328.916 87.2016 328.786C86.0586 328.818 85.2896 328.144 84.5664 327.389C84.5029 327.325 84.5241 327.181 84.5065 327.075L84.5135 327.082C83.9596 327.068 83.6174 326.846 83.4799 326.415C83.4269 326.355 83.3599 326.338 83.2823 326.362C82.8096 326.436 82.5027 326.278 82.4568 325.762C82.0758 325.304 81.5678 325.015 81.0563 324.732C80.6329 324.708 80.4424 324.461 80.4142 324.059C77.6872 324.295 75.1508 324.993 72.8894 326.662C70.8927 328.133 69.2629 329.901 68.2363 332.127C67.5131 333.689 66.8852 335.337 66.9063 337.133C66.924 338.769 66.8957 340.403 66.8957 342.04C66.8957 348.584 66.9028 355.128 66.9099 361.672C66.9134 364.872 67.7036 367.891 68.9419 370.823C69.6016 372.386 70.4165 373.874 71.3901 375.233C72.6637 377.011 74.0536 378.718 75.8669 380.02C76.643 380.577 77.3733 381.195 78.107 381.808C80.5201 383.826 83.3493 384.348 86.3444 383.886C88.0766 383.618 89.6394 382.729 90.8705 381.449C92.8285 379.406 93.8198 376.951 93.6116 374.09C93.5481 373.197 93.3965 372.301 93.1848 371.433C92.9026 370.287 92.9096 369.084 92.4263 367.979C92.2958 367.683 92.3134 367.32 92.2817 366.985C92.257 366.706 92.3205 366.403 92.2358 366.142C91.562 364.025 92.1793 362.078 92.8002 360.06C93.2447 358.62 93.8339 357.206 94.0173 355.678C94.1161 354.856 94.737 354.147 94.6947 353.262C95.3932 351.896 95.5202 350.348 96.0705 348.937C96.4162 348.048 96.5115 347.099 96.8572 346.195C97.3934 344.791 97.5698 343.253 98.0708 341.832C98.667 340.142 98.8928 338.332 99.7183 336.72C97.8591 335.728 96.0176 334.713 94.3384 333.428C94.035 333.196 93.6716 333.04 93.3329 332.85C93.2095 332.744 93.086 332.638 92.9625 332.532L92.9555 332.525C91.8725 332.395 90.9623 332.017 90.5919 330.871V330.86H90.5884Z" fill="#F7BC94"/>
<path d="M424.101 204.802C426.588 201.998 427.947 198.745 427.989 194.974C428.003 193.506 427.989 192.049 427.611 190.61C427.255 189.231 426.804 187.911 425.929 186.768C425.862 186.68 425.795 186.585 425.735 186.49C423.374 182.605 419.635 181.205 415.373 180.764C414.477 180.672 413.571 180.679 412.675 180.598C411.257 180.471 409.845 180.602 408.463 180.849C406.3 181.233 404.176 181.805 402.165 182.732C400.169 183.653 398.119 184.458 396.267 185.661C395.653 186.059 395.022 186.433 394.433 186.867C390.347 189.876 386.223 192.836 382.209 195.933C379.619 197.93 377.005 199.892 374.398 201.864C372.19 203.532 369.862 205.01 367.491 206.432C367.251 206.577 366.99 206.7 366.764 206.866C365.491 207.804 365.374 209.23 366.517 210.337C366.916 210.725 367.413 211.015 367.879 211.325C371.128 213.491 374.797 214.557 378.565 215.357C381.161 215.911 383.803 216.13 386.442 216.356C387.282 216.426 388.125 216.476 388.964 216.536C388.407 215.237 388.488 214.038 389.437 212.923C390.418 211.773 391.314 210.553 392.326 209.431C393.798 207.801 395.491 206.429 397.255 205.109C400.218 202.89 403.453 201.275 406.988 200.234C407.789 199.997 408.625 199.856 409.457 199.761C411.373 199.542 413.271 199.885 415.141 200.202C417.254 200.558 419.265 201.338 421.096 202.463C422.172 203.127 423.463 203.557 424.105 204.799L424.101 204.802Z" fill="#7A4821"/>
<path d="M372.355 383.53C376.239 383.562 380.12 383.597 384.004 383.626C385.175 383.636 386.163 383.065 387.14 382.536C388.83 381.618 389.899 380.101 390.777 378.443C390.901 378.207 390.932 377.904 390.947 377.628C390.982 376.955 390.932 376.274 391.003 375.603C391.229 373.402 390.156 371.73 388.826 370.164C388.167 369.384 387.362 368.763 386.487 368.245C385.426 367.61 384.35 367.003 383.26 366.414C381.676 365.56 380.067 364.752 378.486 363.891C376.01 362.544 373.357 361.588 370.799 360.427C370.556 360.318 370.249 360.353 369.974 360.321C369.868 360.353 369.759 360.42 369.66 360.406C367.293 360.078 364.922 360.208 362.551 360.3C362.802 360.889 363.391 361.023 363.878 361.277C368.337 363.57 372.8 365.853 377.259 368.139C377.46 368.241 377.664 368.34 377.859 368.449C378.37 368.738 378.719 369.172 378.927 369.716C379.464 371.123 379.587 372.488 378.913 373.942C377.686 376.595 376.553 379.29 375.456 381.999C375.174 382.698 374.803 382.962 374.091 382.977C373.495 382.987 372.838 382.765 372.323 383.287C372.341 383.365 372.348 383.442 372.352 383.523V383.53H372.355Z" fill="#F7BC94"/>
<path d="M362.555 360.307C364.926 360.212 367.296 360.085 369.664 360.413C369.762 360.427 369.872 360.357 369.978 360.329C369.424 358.522 369.526 356.66 369.494 354.811C369.36 346.584 369.237 338.358 369.106 330.131C369.014 324.271 368.923 318.411 368.831 312.552C368.665 312.573 368.496 312.594 368.33 312.615C368.365 314.647 368.009 316.644 367.794 318.651C367.575 320.715 367.247 322.768 366.951 324.825C366.862 325.435 366.834 326.088 366.584 326.635C365.885 328.155 365.868 329.789 365.596 331.387C365.247 333.436 364.862 335.479 364.457 337.514C363.941 340.104 363.349 342.676 362.866 345.272C362.389 347.812 361.966 350.359 361.603 352.917C361.342 354.755 361.024 356.579 360.682 358.399C360.59 358.893 360.583 359.401 360.537 359.905C361.211 360.046 361.853 360.329 362.559 360.318V360.307H362.555Z" fill="#6E7068"/>
<path d="M389.427 216.649C390.919 216.97 391.9 216.25 392.648 215.061C392.708 214.966 392.74 214.846 392.817 214.772C394.436 213.227 395.671 211.35 397.467 209.921C399.686 208.161 401.968 206.573 404.512 205.353C405.574 204.845 406.657 204.39 407.814 204.121C409.927 203.628 412.033 203.762 414.164 204.026C416.418 204.305 418.334 205.363 420.196 206.503C421.258 207.152 422.218 207.42 423.347 206.855C423.957 206.305 424.066 205.568 424.102 204.802C423.46 203.56 422.172 203.13 421.092 202.467C419.261 201.342 417.251 200.562 415.137 200.206C413.268 199.892 411.37 199.549 409.454 199.765C408.622 199.86 407.786 200.001 406.985 200.237C403.45 201.278 400.215 202.89 397.252 205.113C395.491 206.432 393.794 207.808 392.323 209.434C391.311 210.553 390.415 211.777 389.434 212.927C388.485 214.042 388.404 215.241 388.961 216.539C389.117 216.574 389.268 216.61 389.423 216.649H389.427Z" fill="#5C3617"/>
<path d="M362.555 360.307C361.85 360.321 361.207 360.039 360.534 359.895C360.523 359.951 360.516 360.007 360.505 360.06C360.347 360.699 360.004 361.306 360.354 362.011C360.809 362.925 361.243 363.835 362.199 364.34C362.446 364.47 362.696 364.601 362.954 364.717C365.049 365.659 367.148 366.601 369.244 367.539C370.422 368.068 371.604 368.583 372.775 369.127C373.385 369.409 373.975 369.702 374.655 369.829C375.319 369.952 375.714 370.46 375.735 371.159C375.76 371.938 375.784 372.707 375.435 373.466C374.729 374.993 374.105 376.556 373.459 378.109C373.008 379.195 372.627 380.313 372.119 381.372C371.763 382.113 371.636 382.857 371.681 383.654C371.798 383.64 371.914 383.622 372.031 383.608C372.133 383.502 372.232 383.4 372.334 383.294C372.849 382.776 373.505 382.994 374.102 382.984C374.814 382.97 375.185 382.705 375.467 382.007C376.564 379.297 377.696 376.602 378.924 373.949C379.598 372.496 379.474 371.131 378.938 369.723C378.734 369.18 378.384 368.746 377.869 368.456C377.672 368.347 377.467 368.248 377.269 368.146C372.807 365.86 368.344 363.578 363.889 361.284C363.398 361.034 362.809 360.896 362.562 360.307H362.555Z" fill="#DEA881"/>
<path d="M376.088 231.585C376.36 231.73 376.42 231.984 376.431 232.263C377.281 233.24 377.337 234.453 377.447 235.653C377.45 235.762 377.454 235.875 377.454 235.984C377.99 236.468 377.711 237.11 377.782 237.685C377.803 238.299 377.753 238.912 377.986 239.516C378.103 239.816 378.187 240.225 378.075 240.5C377.768 241.265 378.067 242.049 377.912 242.789C377.746 243.576 377.838 244.356 377.782 245.135C377.739 245.605 377.933 246.13 377.457 246.497C377.454 247.284 377.447 248.074 377.443 248.861C377.404 249.33 377.598 249.856 377.118 250.223C377.115 250.896 377.108 251.574 377.104 252.247C377.108 252.808 377.115 253.369 377.118 253.934C377.457 253.934 377.796 253.951 378.131 253.934C378.932 253.895 379.288 253.623 379.419 252.893C379.486 252.509 379.464 252.11 379.475 251.715C379.5 250.875 379.443 250.043 379.726 249.214C379.881 248.755 379.81 248.212 379.81 247.707C379.817 244.275 379.81 240.842 379.817 237.41C379.821 234.644 379.016 232.1 377.665 229.723C376.974 228.505 376.166 227.359 375.411 226.177C375.002 226.103 374.698 226.315 374.402 226.548C374.36 226.992 374.095 227.179 373.668 227.179C373.46 227.179 373.252 227.186 373.044 227.186C373.044 227.408 373.051 227.634 373.054 227.856C373.859 228.35 374.48 229.059 375.062 229.768C375.496 230.298 376.021 230.83 376.092 231.589L376.088 231.585Z" fill="#DEA881"/>
<path d="M373.036 227.186C373.244 227.186 373.453 227.179 373.661 227.179C374.088 227.179 374.352 226.992 374.395 226.547C374.282 226.54 374.165 226.501 374.059 226.526C373.019 226.77 372.176 226.346 371.435 225.697C370.151 224.568 368.634 223.866 367.078 223.217C366.609 223.02 366.147 222.847 365.642 222.744C363.935 222.402 362.231 222.06 360.47 222.12C359.401 222.155 358.329 222.12 357.26 222.116C354.78 222.116 352.328 221.862 349.919 221.256C349.259 221.09 348.596 220.991 347.94 221.277C348.07 221.661 348.398 221.714 348.733 221.725C349.446 221.753 350.152 221.827 350.84 222.042C351.062 222.113 351.228 222.222 351.323 222.438C352.385 222.497 353.457 222.335 354.501 222.723C354.851 222.854 355.281 222.783 355.676 222.783C357.14 222.787 358.608 222.776 360.072 222.787C361.024 222.794 361.98 222.692 362.912 223.055C363.211 223.171 363.578 223.115 363.917 223.122C364.644 223.136 365.363 223.072 365.998 223.609C366.475 224.014 367.17 223.767 367.759 224.081C369.149 224.826 370.398 225.761 371.657 226.688C372.091 227.01 372.497 227.235 373.033 227.193V227.186H373.036Z" fill="#EFB890"/>
<path d="M339.113 336.082C338.736 336.269 338.552 336.572 338.535 336.995C338.517 337.433 338.496 337.87 338.429 338.301C338.369 338.678 338.087 338.833 337.723 338.855C337.522 339.154 337.533 339.479 337.628 339.807C337.988 341.063 337.942 342.308 337.617 343.564C337.437 344.263 337.455 344.989 337.579 345.702C337.801 345.649 338.009 345.575 338.136 345.363C338.372 344.968 338.52 344.555 338.496 344.086C338.393 342.333 338.792 340.643 339.088 338.936C339.251 338.008 339.117 337.031 339.113 336.078V336.082Z" fill="#EFB890"/>
<path d="M336.753 355.566C337.067 355.354 337.159 355.03 337.131 354.684C337.025 353.485 337.314 352.345 337.621 351.209C337.935 350.048 337.854 348.877 337.72 347.706C337.709 347.611 337.593 347.53 337.526 347.441C337.272 347.618 337.201 347.879 337.187 348.168C337.162 348.782 337.046 349.382 336.958 349.985C336.732 351.523 336.637 353.082 336.499 354.635C336.471 354.97 336.492 355.308 336.757 355.569H336.753V355.566Z" fill="#EFB890"/>
<path d="M282.679 233.621C284.105 233.621 285.526 233.621 286.951 233.617C287.332 233.617 287.728 233.656 288.01 233.314C287.876 233.222 287.749 233.056 287.611 233.049C285.964 232.965 284.348 232.661 282.732 232.354C282.609 232.33 282.454 232.481 282.312 232.552C282.284 232.961 282.499 233.286 282.679 233.624V233.621Z" fill="#EFB890"/>
<path d="M302.625 229.948C302.83 230.188 303.116 230.304 303.363 230.135C303.927 229.747 304.594 229.687 305.197 229.465C306.118 229.123 307.039 228.728 307.952 228.343C308.227 228.227 308.302 227.927 308.34 227.645C307.222 227.75 306.262 228.364 305.204 228.668C304.573 228.848 303.998 229.218 303.317 229.303C302.971 229.345 302.731 229.606 302.622 229.952L302.625 229.948Z" fill="#EFB890"/>
<path d="M335.917 359.929C336.633 359.696 336.76 359.09 336.785 358.472C336.817 357.693 336.778 356.913 336.771 356.13C336.598 356.257 336.302 356.366 336.277 356.521C336.09 357.65 335.6 358.751 335.917 359.933V359.929Z" fill="#EFB890"/>
<path d="M335.554 365.687C335.702 365.609 335.963 365.55 335.977 365.451C336.14 364.41 336.341 363.359 335.836 362.343C335.649 362.477 335.526 362.657 335.529 362.89C335.533 363.821 335.547 364.752 335.557 365.684H335.554V365.687Z" fill="#EFB890"/>
<path d="M368.327 312.611C368.493 312.59 368.662 312.569 368.828 312.548C369.047 311.651 368.99 310.755 368.846 309.859C368.504 310.085 368.295 310.389 368.299 310.808C368.303 311.408 368.317 312.008 368.324 312.611H368.327Z" fill="#F3B991"/>
<path d="M80.4102 324.055C80.4384 324.457 80.6325 324.701 81.0523 324.729C81.1475 324.493 81.2428 324.26 81.3345 324.023C81.024 324.034 80.7171 324.045 80.4102 324.055Z" fill="#EFB890"/>
<path d="M372.327 383.294C372.225 383.4 372.126 383.502 372.024 383.608C372.133 383.583 372.246 383.559 372.355 383.53C372.355 383.449 372.345 383.372 372.327 383.294Z" fill="#F7BB93"/>
<path d="M251.875 282.978C253.953 283.193 256.034 283.095 258.112 283.031C259.22 282.996 260.317 282.685 261.421 282.527C262.582 282.357 263.746 282.135 264.914 282.096C265.884 282.068 266.819 281.895 267.729 281.648C271.786 280.547 275.864 279.514 279.812 278.05C281.071 277.584 282.32 277.066 283.523 276.469C284.394 276.035 284.821 275.252 284.676 274.233C284.426 274.014 284.179 273.799 283.928 273.58C282.016 273.651 280.147 273.887 278.309 274.504C274.206 275.884 270.054 277.101 265.834 278.082C265.506 278.159 265.182 278.283 264.85 278.293C262.487 278.378 260.19 278.942 257.855 279.217C256.722 279.352 255.833 279.821 254.905 280.318C254.02 280.794 253.152 281.306 252.281 281.81C251.826 282.075 251.716 282.484 251.868 282.975H251.875V282.978Z" fill="#464742"/>
<path d="M84.5025 327.072C84.5202 327.178 84.5025 327.322 84.5625 327.386C85.2857 328.141 86.0548 328.815 87.1978 328.783C86.4604 327.961 85.5467 327.414 84.5025 327.068V327.072Z" fill="#EFB890"/>
<path d="M90.5876 330.86C90.958 332.007 91.8681 332.384 92.9512 332.515C92.3444 331.707 91.5789 331.121 90.5876 330.86Z" fill="#EFB890"/>
<path d="M87.8789 329.182C87.9071 329.531 88.0411 329.824 88.348 330.011C88.8243 330.303 89.3217 330.533 89.9038 330.48C89.4029 329.774 88.6938 329.393 87.8789 329.182Z" fill="#EFB890"/>
<path d="M83.4757 326.412C83.6132 326.842 83.9554 327.065 84.5093 327.079C84.2906 326.663 83.9449 326.44 83.4757 326.412Z" fill="#EFB890"/>
<path d="M82.4528 325.76C82.5022 326.271 82.8056 326.43 83.2783 326.359C83.1125 326.007 82.8691 325.763 82.4528 325.76Z" fill="#EFB890"/>
<path d="M339.893 328.127C339.346 328.889 339.378 329.81 339.251 330.67C339.145 331.38 339.096 332.124 339.258 332.847C339.47 332.78 339.731 332.734 339.766 332.48C339.921 331.447 340.073 330.409 340.175 329.369C340.218 328.942 340.292 328.469 339.893 328.127Z" fill="#EFB890"/>
<path d="M376.088 231.585C376.018 230.826 375.489 230.294 375.058 229.765C374.476 229.056 373.852 228.35 373.051 227.853C372.839 227.983 372.709 228.188 372.843 228.399C373.019 228.678 373.266 228.911 373.495 229.154C373.993 229.676 374.533 230.149 374.889 230.805C375.132 231.253 375.524 231.581 376.092 231.581H376.088V231.585Z" fill="#F6BB92"/>
<path d="M377.446 235.649C377.337 234.45 377.28 233.236 376.43 232.259C376.36 232.343 376.219 232.432 376.229 232.506C376.332 233.448 376.557 234.361 376.945 235.226C377.026 235.406 377.277 235.511 377.446 235.649Z" fill="#F6BB92"/>
<path d="M340.221 323.717C339.706 324.461 339.893 325.269 339.999 326.073C340.133 325.992 340.366 325.936 340.391 325.83C340.556 325.114 340.743 324.384 340.221 323.717Z" fill="#EFB890"/>
<path d="M339.219 333.545C338.708 334.198 338.775 334.885 339.085 335.591C339.71 334.945 339.667 334.258 339.219 333.545Z" fill="#EFB890"/>
<path d="M377.114 253.93C377.111 253.369 377.104 252.809 377.1 252.244C376.5 252.286 376.423 252.689 376.43 253.179C376.437 253.645 376.642 253.902 377.114 253.93Z" fill="#F6BB92"/>
<path d="M342.556 288.143C342.161 288.675 342.221 289.25 342.394 289.836C343.043 289.3 343.075 288.972 342.556 288.143Z" fill="#EFB890"/>
<path d="M341.886 298.645C341.491 299.202 341.505 299.777 341.823 300.359C342.352 299.639 342.359 299.442 341.886 298.645Z" fill="#EFB890"/>
<path d="M341.226 315.247C340.782 315.794 340.796 316.369 341.114 316.965C341.667 316.274 341.681 316.08 341.226 315.247Z" fill="#EFB890"/>
<path d="M377.778 237.681C377.707 237.106 377.989 236.467 377.45 235.98C376.896 236.929 376.966 237.289 377.778 237.681Z" fill="#F6BB92"/>
<path d="M377.114 250.219C377.59 249.852 377.396 249.327 377.439 248.857C376.638 249.2 376.585 249.411 377.114 250.219Z" fill="#F6BB92"/>
<path d="M377.453 246.494C377.929 246.127 377.735 245.601 377.778 245.132C376.973 245.474 376.924 245.686 377.453 246.494Z" fill="#F6BB92"/>
<path d="M341.544 309.817C341.174 310.262 341.181 310.721 341.495 311.19C341.999 310.562 342.003 310.495 341.544 309.817Z" fill="#EFB890"/>
<path d="M340.891 318.637C340.468 319.039 340.553 319.505 340.729 319.977C341.325 319.469 341.336 319.378 340.891 318.637Z" fill="#EFB890"/>
<path d="M342.239 294.249C341.83 294.683 341.847 295.142 342.161 295.618C342.673 295.004 342.676 294.94 342.239 294.249Z" fill="#EFB890"/>
<path d="M340.531 321.675C340.242 321.879 340.21 322.112 340.461 322.373C340.824 322.176 340.912 321.95 340.531 321.675Z" fill="#EFB890"/>
<path d="M342.884 284.753C342.669 284.954 342.623 285.18 342.779 285.437C343.093 285.243 343.128 285.014 342.884 284.753Z" fill="#EFB890"/>
<path d="M83.2927 326.349C83.2927 326.349 83.2927 326.349 83.2927 326.345L79.779 324.127C79.779 324.127 116.542 295.985 146.221 287.967L216.802 249.835C216.89 249.782 217.003 249.711 217.123 249.634C217.274 249.493 230.871 236.652 235.39 232.993C240.558 228.809 250.506 226.082 263.605 227.373C263.626 227.366 263.647 227.363 263.668 227.352C263.908 227.384 264.148 227.419 264.388 227.451C277.899 228.933 282.323 232.542 282.323 232.542C282.295 232.951 282.51 233.279 282.69 233.614C282.676 233.949 282.609 234.299 282.662 234.623C283.099 237.308 282.87 240.017 283.015 242.712C283.343 248.84 283.18 254.982 283.403 261.11C283.519 264.316 283.537 267.523 283.65 270.726C283.685 271.679 283.84 272.624 283.939 273.573C282.027 273.64 280.154 273.88 278.319 274.498C274.216 275.877 270.064 277.094 265.845 278.075C265.517 278.152 265.192 278.276 264.861 278.286C262.494 278.371 260.197 278.936 257.865 279.211C256.733 279.345 255.844 279.814 254.916 280.311C254.027 280.788 253.159 281.296 252.291 281.804C251.836 282.068 251.727 282.477 251.878 282.968C251.836 283.017 251.79 283.063 251.744 283.112C251.314 282.862 250.908 282.495 250.365 282.89C248.947 283.927 247.335 284.622 245.789 285.43C243.503 286.626 241.221 287.843 238.889 288.947C236.758 289.956 234.536 290.768 232.405 291.777C229.297 293.251 226.03 294.31 222.845 295.573C221.487 296.109 220.097 296.571 218.71 297.037C217.592 297.411 216.442 297.693 215.334 298.102C214.166 298.532 212.925 298.709 211.764 299.118C209.422 299.947 207.005 300.494 204.613 301.122C203.527 301.408 202.458 301.767 201.354 301.997C199.865 302.307 198.397 302.706 196.933 303.115C195.688 303.461 194.485 303.969 193.226 304.24C190.954 304.731 188.872 305.75 186.66 306.403C184.505 307.038 182.409 307.867 180.289 308.615C179.28 308.971 178.275 309.327 177.269 309.687C175.417 310.35 173.576 311.042 171.713 311.68C169.801 312.337 167.829 312.845 165.952 313.593C163.077 314.739 160.107 315.593 157.207 316.662C155.468 317.304 153.697 317.861 151.947 318.475C149.082 319.477 146.221 320.496 143.357 321.505C141.501 322.158 139.646 322.814 137.786 323.46C135.716 324.179 133.638 324.885 131.563 325.601C129.761 326.222 127.954 326.846 126.152 327.478C124.19 328.166 122.236 328.875 120.271 329.559C118.465 330.191 116.648 330.78 114.845 331.418C112.143 332.374 109.458 333.383 106.756 334.332C104.424 335.151 102.071 335.916 99.7286 336.707C99.6792 336.682 99.6299 336.654 99.584 336.629L99.7216 336.724L99.4958 336.58C97.7178 335.627 95.9574 334.639 94.3487 333.412C94.0454 333.179 93.6785 333.024 93.3433 332.833C93.2199 332.727 93.0964 332.621 92.9729 332.516L92.9659 332.509C92.9377 332.473 92.9094 332.438 92.8812 332.403L83.2997 326.353C83.2997 326.353 83.2997 326.353 83.2962 326.353L83.2927 326.349ZM84.5239 327.069C84.5239 327.069 84.5239 327.065 84.5203 327.062L84.5274 327.069H84.5239Z" fill="#6A6D66"/>
<path d="M321.933 273.913V273.909H321.937L321.933 273.913Z" fill="#F6BB92"/>
<path d="M291.4 232.99C292.991 232.838 297.21 231.491 301.236 230.108C301.274 230.094 301.313 230.08 301.352 230.069C305.846 228.52 310.062 226.943 310.062 226.943C310.062 226.943 310.263 228.383 310.334 228.654C311.142 231.755 311.942 234.86 312.747 237.961C315.079 246.942 317.432 255.917 319.732 264.906C320.497 267.901 321.407 270.861 321.933 273.912C321.559 274.032 321.199 274.18 320.818 274.265C319.778 274.498 318.716 274.653 317.686 274.925C316.207 275.316 314.687 275.468 313.184 275.567C309.138 275.828 305.088 276.043 301.031 275.987C298.551 275.951 296.092 275.68 293.637 275.366C293.414 275.338 293.189 275.313 292.963 275.313C291.608 275.327 290.271 275.179 288.938 274.946L284.68 274.233L283.561 273.584L282.323 232.542C282.323 232.542 288.017 233.315 291.404 232.994L291.4 232.99Z" fill="#F6BB92"/>
<path d="M310.066 226.943C310.066 226.943 310.066 226.943 310.066 226.94C310.066 226.94 310.073 226.936 310.076 226.936C310.397 226.799 320.282 222.636 327.627 221.458C335.092 220.262 346.744 220.188 351.33 221.57L351.323 222.414C351.323 222.414 351.327 222.421 351.33 222.424C351.33 222.424 351.327 222.424 351.323 222.424V222.435L348.455 223.475C347.76 223.818 347.079 224.199 346.398 224.576C344.148 225.828 342.243 227.472 340.694 229.529C339.974 230.482 339.463 231.533 339.149 232.697C338.175 236.324 338.27 239.94 339.12 243.566C339.498 245.171 340.267 246.618 340.842 248.142C341.883 250.9 343.199 253.511 344.648 256.058C345.216 257.06 345.714 258.023 345.312 259.215C345.245 259.42 345.291 259.663 345.287 259.889C345.238 261.974 345.216 264.056 344.984 266.137C344.733 268.377 344.483 270.614 344.119 272.84C343.886 274.283 343.756 275.747 343.52 277.189C343.255 278.805 343.371 280.46 342.927 282.051V282.044C342.01 281.744 341.071 281.666 340.112 281.694C339.272 281.719 338.429 281.694 337.586 281.694C337.194 281.694 336.792 281.702 336.439 281.497C335.734 281.088 334.972 280.971 334.171 281C333.956 281.007 333.688 280.975 333.529 280.851C332.936 280.386 332.185 280.305 331.539 279.987C330.354 279.401 329.116 278.946 327.976 278.22C326.357 277.189 324.935 275.951 323.531 274.674C323.062 274.251 322.635 273.817 321.937 273.902C321.411 270.847 320.501 267.887 319.735 264.892C317.435 255.903 315.082 246.928 312.75 237.946C311.946 234.845 311.145 231.741 310.337 228.64C310.267 228.372 310.14 228.114 310.041 227.853C310.051 227.55 310.059 227.243 310.066 226.94V226.943Z" fill="#8A8AD9"/>
<path d="M388.005 221.404L388.238 220.783C388.238 220.783 388.231 220.769 388.227 220.762C388.432 219.954 388.665 219.16 389.049 218.402C389.317 217.876 389.614 217.298 389.427 216.648C390.919 216.973 391.9 216.25 392.648 215.061C392.708 214.966 392.739 214.846 392.817 214.772C394.436 213.227 395.671 211.346 397.466 209.921C399.682 208.161 401.964 206.573 404.511 205.352C405.573 204.844 406.656 204.389 407.813 204.121C409.927 203.627 412.033 203.761 414.163 204.026C416.418 204.305 418.333 205.363 420.196 206.503C421.258 207.152 422.217 207.416 423.346 206.855C423.533 207.303 423.978 207.501 424.331 207.751C426.864 209.547 428.73 211.914 430.201 214.609C430.539 215.227 430.843 215.862 431.114 216.511H431.365C431.365 216.511 434.815 222.741 431.517 232.456C431.45 232.848 431.383 233.24 431.319 233.631C431.196 234.354 431.143 235.092 430.578 235.649C426.356 234.471 422.133 233.303 417.914 232.107C416.457 231.694 415.003 231.25 413.567 230.756C412.393 230.354 411.391 230.555 410.403 231.289C409.503 231.959 408.516 232.509 407.584 233.141C407.083 233.48 406.6 233.575 405.997 233.437C404.794 233.166 403.57 232.957 402.349 232.767C400.853 232.531 399.329 232.495 397.844 232.142C396.969 231.934 396.084 231.691 395.195 231.652C394.224 231.61 393.611 231.211 393.201 230.382C393.103 230.181 392.979 229.991 392.859 229.8C391.251 227.232 389.638 224.667 388.03 222.099C388.019 221.866 388.012 221.633 388.001 221.404H388.005Z" fill="#7A4822"/>
<path d="M336.489 294.027C336.489 294.027 274.558 288.909 252.633 284.425L305.483 285.437L335.815 289.836L336.492 294.027H336.489Z" fill="#6C6F68"/>
</svg>
