<svg width="497" height="497" viewBox="0 0 497 497" fill="none" xmlns="http://www.w3.org/2000/svg">
<path d="M271.546 372.991C266.929 372.856 263.67 370.975 257.967 370.304C250.906 369.363 239.092 370.438 238.006 368.96C235.29 364.929 238.549 358.346 242.215 355.524C245.067 353.375 248.326 352.031 249.548 350.15C255.93 340.879 276.435 319.382 284.311 308.365C286.076 305.812 288.113 303.26 290.15 300.707C298.569 290.227 313.913 313.336 310.519 316.83C296.939 330.803 263.806 353.778 258.374 358.212C258.374 358.212 291.1 366.407 287.298 369.901C285.125 372.05 277.249 373.125 271.546 372.991Z" fill="#ECAD83"/>
<path d="M308.274 281.036C308.274 281.036 295.241 293.409 290.404 299.864C294.838 301.343 308.139 312.505 310.424 316.002C323.322 307.799 352.344 287.357 353.957 273.64C355.703 257.771 305.587 251.45 274.012 238.002L229.001 262.209C257.217 274.985 308.274 281.036 308.274 281.036Z" fill="#333333"/>
<path d="M397.766 368.667C389.572 365.848 377.078 365.982 376.943 362.492C375.869 334.571 373.585 292.69 373.585 292.69C375.6 264.903 390.109 211.21 387.825 200.739C385.541 190.403 364.181 192.551 363.778 203.155C362.434 215.639 360.822 221.546 359.479 234.432C357.464 250.406 355.046 283.965 356.389 293.227C356.523 294.435 365.524 356.317 365.524 356.317C365.524 356.317 365.793 363.969 366.868 368.13C368.077 372.828 371.167 371.754 380.571 372.828C387.556 373.768 403.543 370.681 397.766 368.667Z" fill="#ECAD83"/>
<path d="M260.761 236.553C260.761 236.553 249.321 235.077 240.408 236.956C222.051 240.846 215.001 255.067 215.001 255.067C215.001 255.067 220.455 297.193 229.766 294.913C247.458 290.754 261.559 287.936 270.205 286.192C276.058 284.985 273.398 256.275 273.398 256.275L260.761 236.553Z" fill="#3D3C3C"/>
<path d="M362.378 260.058C377.975 254.575 380.664 238.661 393.706 223.95C395.319 222.078 397.067 210.443 395.185 205.495C393.168 200.012 390.076 194.663 383.756 192.256C378.916 190.384 365.605 188.244 338.984 204.96C326.211 211.781 278.883 237.858 261.001 236.521C261.001 236.521 269.471 252.97 270.95 263.802C272.429 274.768 270.682 286.002 270.682 286.002C318.681 271.024 332.664 262.866 348.933 259.122C348.933 259.122 358.076 261.663 362.378 260.058Z" fill="#FF8AA0"/>
<path d="M385.38 371.61C379.707 368.112 364.039 366.363 364.309 362.866C366.335 334.883 374.439 292.909 374.439 292.909C376.465 265.061 391.053 211.248 388.757 200.754C386.46 190.395 364.985 192.548 364.58 203.176C363.229 215.687 361.608 221.607 360.257 234.522C358.231 250.531 355.8 284.164 357.151 293.447C357.286 294.658 353.099 364.345 354.179 368.516C355.395 373.225 358.501 372.148 367.956 373.225C374.98 374.166 390.648 374.839 385.38 371.61Z" fill="#F6BB92"/>
<path d="M399.076 217.429C399.076 217.429 404.359 215.551 414.001 213.404V191.002C405.548 198.246 393.001 199.721 393.001 199.721C399.605 212.868 394.19 219.173 394.19 224.002L399.076 217.429Z" fill="#ECAD83"/>
<path d="M443.416 215.763C451.594 218.064 456.957 212.515 459.773 208.86C468.487 197.491 466.61 189.505 462.856 179.759C457.761 167.036 422.502 175.563 417.407 178.947C404 187.745 406.28 210.349 409.363 218.877C412.715 228.216 414.994 224.561 418.48 222.802C418.614 222.666 419.284 222.937 419.284 222.937C420.491 222.396 422.234 221.719 424.245 221.854C424.245 221.854 425.183 221.042 425.853 220.772C426.256 220.636 426.524 220.501 426.926 220.907C427.864 221.99 428.803 223.208 429.607 223.479C431.618 224.426 439.528 214.681 443.416 215.763Z" fill="#F6BB92"/>
<path d="M420.004 217.002C420.004 217.002 419.86 217.93 421.586 221.525C422.018 221.872 423.025 222.452 423.888 221.409C424.607 220.597 421.73 219.437 420.004 217.002Z" fill="#D6876B"/>
<path d="M420.412 217.002C420.412 217.002 418.534 218.442 419.111 222.282C419.4 222.762 420.123 223.002 420.412 223.002C422.001 223.002 422.001 221.802 422.001 221.802C420.267 217.962 420.412 217.002 420.412 217.002Z" fill="#CC785E"/>
<path d="M464.548 177.746C458.355 162.147 427.791 150.211 409.883 182.086C408.671 184.256 407.863 188.325 413.384 191.716C417.288 194.158 421.597 195.107 421.597 195.107C422.944 195.378 424.29 195.65 425.771 195.921C427.387 196.192 434.658 192.123 435.6 193.615C444.083 207.992 454.719 211.248 458.759 209.62C467.78 204.059 471.146 194.429 464.548 177.746Z" fill="#602F0F"/>
<path d="M425.337 190.817C419.742 196.02 420.505 199.032 422.413 203.002L431.695 196.294L435.001 192.46C432.966 188.49 430.932 185.615 425.337 190.817Z" fill="#F6BB92"/>
<path d="M431.231 162.868C432.85 157.875 441.079 156.487 449.443 159.817C457.807 163.146 463.338 169.943 461.719 174.936C460.101 179.93 453.49 180.069 445.126 176.74C436.762 173.411 429.613 167.862 431.231 162.868Z" fill="#4C230C"/>
<path d="M434.823 195.852C436.033 195.18 437.109 194.642 438.051 194.373C439.395 193.835 440.337 193.701 440.337 193.701L436.975 189.801C436.302 190.07 435.63 190.339 434.958 190.608C434.958 190.608 435.361 191.011 435.899 191.818C435.899 191.818 435.899 191.818 435.765 191.683C434.958 192.759 433.747 194.104 431.73 195.718C431.73 195.852 431.192 198.138 434.823 195.852Z" fill="#602F0F"/>
<path d="M430.924 160.216C432.672 155.106 441.547 153.895 450.691 157.392C459.836 160.888 465.887 168.015 464.139 173.125C462.391 178.236 455.264 178.236 446.119 174.739C436.975 171.108 429.175 165.326 430.924 160.216Z" fill="#602F0F"/>
<path d="M446.02 157.219C446.153 156.727 448.676 157.096 451.331 158.08C454.12 159.063 456.244 160.293 455.979 160.785C455.846 161.277 453.854 160.908 451.066 159.924C448.277 158.94 445.755 157.834 446.02 157.219Z" fill="#4C230C"/>
<path d="M38.6762 369.356C37.8644 363.848 29.4763 346.384 28.7998 344.503C27.1763 339.935 27.8528 334.562 32.4527 333.756C35.9703 333.084 39.4879 333.487 41.5173 332.547C51.5289 327.442 83.052 315.754 95.3636 309.709C98.2047 308.366 101.181 307.022 104.158 305.679C116.469 300.305 119.581 328.651 114.981 330.128C96.3107 335.905 50.3113 344.503 43.4114 345.846C43.4114 345.846 51.5289 370.565 46.6584 371.908C43.5467 372.714 39.4879 374.863 38.6762 369.356Z" fill="#F6BB92"/>
<path d="M145.286 291.548C130.224 295.447 116.239 300.153 104.001 305.531C107.228 309.027 114.356 325.699 114.759 330.002C119.332 328.523 155.775 319.111 155.775 319.111C167.34 316.153 235.252 299.212 254.213 288.455C259.189 285.901 263.358 283.077 266.72 280.522C273.309 275.682 252.868 236.69 242.11 239.11C220.594 249.329 184.419 275.816 174.871 281.195C165.458 286.573 145.286 291.548 145.286 291.548Z" fill="#3D3C3C"/>
</svg>
