<svg width="500" height="500" viewBox="0 0 500 500" fill="none" xmlns="http://www.w3.org/2000/svg">
<path d="M161.774 355.786C161.351 355.828 160.97 355.87 160.546 355.913C159.276 355.743 158.006 355.362 156.821 356.209C156.186 356.251 155.551 356.251 154.916 356.294C154.027 355.955 153.138 355.828 152.334 356.505C151.699 356.548 151.106 356.59 150.471 356.632C149.413 356.336 148.354 356.167 147.338 356.844C146.788 356.886 146.28 356.886 145.729 356.929C142.808 356.675 139.887 356.929 137.009 357.564C136.501 357.606 135.95 357.648 135.442 357.733C134.172 357.521 132.902 357.183 131.717 358.029C129.431 358.241 127.145 358.199 124.816 357.945C124.605 357.648 124.351 357.521 124.012 357.691C118.678 356.971 113.725 355.151 109.873 351.298C106.697 348.123 104.284 344.61 104.073 339.656C103.565 327.634 103.692 315.611 103.565 303.63C103.395 287.416 105.173 271.287 108.73 255.454C112.921 236.7 119.694 219.004 130.913 203.172C139.379 191.276 148.185 179.634 157.71 168.585C158.895 167.23 159.996 165.579 162.24 165.96C163.721 167.315 165.245 168.669 166.685 170.109C170.834 174.3 174.94 178.491 179.046 182.724C189.333 193.392 199.917 203.849 209.781 214.94C209.103 215.787 209.527 216.845 209.315 217.777C206.098 231.535 199.197 242.881 187.682 251.305C182.01 255.454 176.21 259.01 168.844 259.222C166.515 259.306 165.118 261.085 164.356 263.286C160.081 276.071 155.551 288.771 150.937 301.429C149.497 305.408 148.1 309.388 146.703 313.367C146.364 314.298 146.153 315.399 147.55 315.357C150.725 315.187 153.942 315.695 157.117 315.187C158.641 315.484 160.123 315.653 161.605 314.976C165.118 314.976 168.674 314.976 172.188 314.976C173.247 315.78 174.432 315.484 175.575 315.187C177.311 315.272 179.046 315.357 180.824 315.441C181.375 316.034 181.967 315.907 182.602 315.611C183.491 315.695 184.38 315.78 185.269 315.822C185.439 316.161 185.65 316.246 185.862 315.865C186.963 315.949 188.063 316.034 189.164 316.119C189.714 316.796 190.392 316.627 191.069 316.373C192.636 316.5 194.244 316.669 195.811 316.796C196.107 317.304 196.53 317.346 196.996 317.008C197.631 317.05 198.266 317.135 198.901 317.177C199.282 317.812 199.79 317.643 200.298 317.389C200.933 317.473 201.568 317.516 202.203 317.6C202.626 318.108 203.05 318.108 203.515 317.685C204.277 317.77 204.997 317.812 205.759 317.897C206.309 318.616 206.987 318.447 207.664 318.151C208.426 318.235 209.188 318.278 209.95 318.362C210.246 318.828 210.543 318.87 210.924 318.447C211.771 318.489 212.66 318.574 213.506 318.616C214.184 319.378 214.988 319.167 215.75 318.87C216.512 318.955 217.274 318.997 218.036 319.082C218.586 319.632 219.137 319.59 219.729 319.167C220.407 319.251 221.084 319.336 221.719 319.378C222.354 320.056 223.031 319.929 223.751 319.548C224.386 319.59 225.021 319.675 225.614 319.717C226.545 320.437 227.603 320.225 228.619 319.929C229.254 320.013 229.889 320.056 230.524 320.14C231.032 320.691 231.625 320.691 232.218 320.267C233.149 320.352 234.038 320.437 234.97 320.564C235.647 321.156 236.367 321.029 237.086 320.733C237.594 320.775 238.102 320.86 238.61 320.902C238.822 321.834 239.161 322.807 239.245 323.739C239.88 330.978 240.473 338.259 241.108 345.499C241.404 348.885 241.404 348.885 238.653 350.155C238.229 350.198 237.848 350.24 237.425 350.24C236.621 350.028 235.859 349.817 235.181 350.536C234.208 350.621 233.192 350.663 232.218 350.748C231.625 350.367 231.075 350.282 230.524 350.875C229.889 350.917 229.212 350.917 228.577 350.96C227.857 350.748 227.138 350.579 226.46 351.171C225.444 351.256 224.428 351.298 223.412 351.383C221.888 351.171 220.407 350.875 218.967 351.679C218.205 351.722 217.443 351.806 216.724 351.849C216.004 351.468 215.327 351.298 214.692 351.976C214.057 352.018 213.379 352.06 212.744 352.103C211.855 351.891 210.924 351.637 210.119 352.357C209.146 352.399 208.13 352.484 207.156 352.526C206.309 352.187 205.505 352.103 204.743 352.695C204.108 352.738 203.431 352.78 202.796 352.822C202.288 352.611 201.822 352.526 201.441 352.992C200.171 353.076 198.901 353.119 197.673 353.203C196.276 353.076 194.879 352.653 193.609 353.542C192.847 353.584 192.128 353.627 191.366 353.669C190.434 353.288 189.46 353.161 188.571 353.838C188.021 353.881 187.513 353.881 186.963 353.923C185.947 353.754 184.931 353.542 183.999 354.219C183.153 354.262 182.264 354.304 181.417 354.389C180.232 354.092 179.046 353.881 177.903 354.6C177.226 354.685 176.549 354.727 175.871 354.812C174.94 354.431 173.966 354.262 173.077 354.939C172.315 354.981 171.511 355.024 170.749 355.066C169.733 354.897 168.674 354.643 167.743 355.362C167.108 355.405 166.515 355.447 165.88 355.489C164.61 355.278 163.171 355.066 161.774 355.786Z" fill="#696D66"/>
<path d="M328.443 235.558C328.57 236.235 328.908 236.785 329.374 237.293C338.561 247.665 347.705 258.037 356.891 268.409C362.183 274.378 367.644 280.178 372.936 286.105C378.778 292.624 384.959 298.847 390.25 305.875C393.468 310.108 395.542 314.849 396.643 319.972C397.32 323.062 396.601 326.28 395.246 329.116C392.79 334.196 389.107 338.387 384.62 341.816C381.953 343.89 378.736 344.695 375.518 344.949C360.278 346.134 344.995 345.711 329.755 345.669C328.739 345.669 327.681 345.499 326.665 345.415C324.125 345.118 321.839 345.499 319.934 347.447C318.748 348.632 317.013 348.59 315.446 348.801C309.519 349.69 303.635 349.479 297.793 348.251C296.311 347.955 294.872 347.404 293.602 346.473C293.56 345.711 293.983 344.737 293.263 344.187C290.935 342.493 290.384 339.869 289.538 337.456C288.268 333.815 289.072 331.741 292.29 329.624C292.798 329.285 293.052 328.862 293.263 328.354C295.38 327.846 296.946 326.322 298.809 325.306C303.677 322.639 308.207 319.294 314.007 318.871C319.976 318.448 325.945 318.067 331.914 317.686C333.227 317.77 333.1 317.347 332.422 316.5C330.771 314.468 329.035 312.479 327.554 310.32C322.812 303.419 316.801 298.466 308.292 297.154C304.651 296.603 301.518 293.09 301.772 289.026C302.153 282.972 300.545 277.13 300.164 271.203C300.079 270.102 299.867 269.044 300.248 267.986C300.333 267.901 300.418 267.859 300.502 267.859C301.053 267.986 301.349 267.774 301.349 267.224C301.434 267.139 301.518 267.139 301.603 267.139C302.534 267.435 303.339 265.784 304.355 267.097C307.191 270.737 310.408 273.997 313.499 277.384C319.891 284.369 326.157 291.481 332.507 298.551C335.174 301.514 337.629 304.647 340.423 307.441C342.371 309.431 343.852 311.928 346.392 313.325C344.868 314.976 342.625 315.823 340.974 317.686C344.064 317.686 346.858 317.728 349.694 317.643C350.88 317.601 352.573 318.278 353.081 317.135C353.504 316.246 351.98 315.273 351.261 314.426C350.456 313.41 350.118 311.928 348.509 311.717C348.551 311.082 348.509 310.531 348.043 310.023C345.376 307.018 342.709 304.012 340.085 300.964C338.349 298.974 336.232 297.365 334.581 295.376C329.289 289.068 323.617 283.057 317.986 277.045C315.362 274.251 312.821 271.372 310.366 268.409C308.715 266.419 306.81 264.726 304.482 263.541C303.635 262.567 302.661 261.72 301.645 260.958C298.513 258.587 295.507 256.09 292.882 253.126C289.961 249.824 288.733 245.845 288.098 241.612C287.463 237.59 288.225 233.653 288.903 229.758C289.538 226.117 290.511 222.561 293.221 219.767C295.93 217.015 299.105 215.026 302.788 213.756C312.059 210.538 319.891 214.645 323.532 223.366C324.717 226.202 325.056 229.292 325.818 232.256C326.072 233.78 326.622 235.177 328.443 235.558Z" fill="#F7BA92"/>
<path d="M328.443 235.558C326.665 235.177 326.072 233.78 325.691 232.256C324.971 229.292 324.633 226.202 323.405 223.365C319.722 214.645 311.933 210.538 302.661 213.756C298.978 215.026 295.803 216.973 293.094 219.767C290.385 222.519 289.411 226.117 288.776 229.758C288.098 233.653 287.379 237.59 287.971 241.611C288.606 245.845 289.834 249.824 292.755 253.126C295.38 256.09 298.386 258.587 301.518 260.958C302.534 261.72 303.508 262.567 304.355 263.54C303.847 265.107 302.365 265.869 301.476 267.139C301.391 267.139 301.307 267.181 301.222 267.223C300.756 267.181 300.502 267.435 300.375 267.858C300.291 267.858 300.206 267.901 300.121 267.985C299.063 268.028 298.724 269.129 297.878 269.51C296.608 269.467 295.592 268.578 294.279 268.705C294.11 268.451 293.983 268.113 293.729 268.028C291.104 266.758 288.437 265.53 285.812 264.302C285.135 263.244 284.288 262.482 283.061 261.974C281.621 261.381 280.182 260.662 278.87 259.773C272.435 255.497 267.101 250.036 262.021 244.321C258.041 239.833 254.993 234.626 251.522 229.716C249.109 226.329 246.442 223.069 244.875 219.174C243.394 215.449 240.642 213.163 237.044 211.639C235.985 211.173 235.096 210.411 234.419 209.48C235.816 207.533 237.382 205.755 239.033 204.019C251.776 190.472 264.434 176.84 277.219 163.336C280.521 159.864 283.357 155.885 287.59 153.43C289.919 152.964 291.739 154.403 293.644 155.165C298.936 157.324 304.355 159.653 308.842 163.166C320.907 172.734 328.019 185.18 328.316 200.928C328.612 212.486 328.654 224.043 328.443 235.558Z" fill="#8A8AD9"/>
<path d="M287.633 153.471C283.4 155.969 280.521 159.906 277.261 163.377C264.476 176.882 251.818 190.513 239.076 204.06C237.425 205.796 235.858 207.574 234.461 209.521C233.361 209.183 232.218 209.013 231.032 209.013C226.545 209.098 222.185 209.86 218.036 211.723C215.369 212.908 212.575 213.882 209.865 214.983C199.959 203.891 189.418 193.477 179.131 182.766C175.024 178.533 170.918 174.3 166.769 170.151C165.33 168.711 163.806 167.399 162.324 166.002C165.753 162.107 169.733 158.848 173.839 155.8C179.639 151.482 185.862 147.925 192.889 146.063C200.382 144.073 207.96 142.253 215.707 141.533C219.729 141.152 223.751 140.729 227.815 140.94C233.742 141.237 239.626 141.872 245.511 142.591C251.141 143.269 256.814 143.904 262.317 145.174C268.413 146.571 274.34 148.476 280.224 150.55C282.553 151.355 285.051 151.693 287.21 153.048C287.421 153.175 287.548 153.344 287.633 153.471Z" fill="#F7BA92"/>
<path d="M238.78 350.239C241.531 348.969 241.531 348.969 241.235 345.582C240.6 338.343 240.007 331.061 239.372 323.822C239.288 322.849 238.949 321.917 238.737 320.986C239.415 320.52 240.304 320.393 240.896 319.758C244.664 315.863 248.432 312.011 252.2 308.159C252.708 307.947 253.216 307.778 253.724 307.566C256.729 306.338 259.735 305.873 262.995 306.931C265.662 307.82 267.778 309.64 270.318 310.656C271.631 311.588 272.943 312.477 274.256 313.408C274.594 313.662 274.891 313.958 275.229 314.212C279.844 317.599 284.416 321.028 288.691 324.796C288.48 325.092 288.268 325.389 287.972 325.643C284.585 328.564 283.696 332.162 284.543 336.522C285.262 340.121 286.702 343.338 288.649 346.386C288.437 346.767 288.099 346.81 287.718 346.852C281.41 347.233 275.145 347.572 268.837 347.995C260.116 348.588 251.395 349.223 242.674 349.815C241.447 349.9 240.219 351.001 238.78 350.239Z" fill="#F5BB93"/>
<path d="M288.775 346.345C286.786 343.297 285.346 340.122 284.669 336.481C283.822 332.121 284.669 328.523 288.098 325.602C288.352 325.348 288.564 325.051 288.818 324.755C290.384 325.856 292.459 326.321 293.263 328.396C293.051 328.904 292.755 329.327 292.289 329.666C289.072 331.782 288.267 333.857 289.537 337.497C290.384 339.91 290.977 342.535 293.263 344.229C293.983 344.737 293.559 345.71 293.602 346.515C291.951 347.234 290.384 346.345 288.775 346.345Z" fill="#D69F79"/>
<path d="M137.094 357.605C139.972 356.97 142.894 356.716 145.815 356.97C145.772 357.097 145.73 357.267 145.645 357.267C142.809 357.351 139.972 358.283 137.094 357.605Z" fill="#F5BB93"/>
<path d="M161.773 355.785C163.17 355.065 164.567 355.277 166.007 355.573C164.652 356.377 163.213 356.081 161.773 355.785Z" fill="#F5BB93"/>
<path d="M219.136 351.764C220.575 350.959 222.099 351.256 223.581 351.467C222.141 352.356 220.617 351.975 219.136 351.764Z" fill="#F5BB93"/>
<path d="M193.693 353.626C195.006 352.737 196.403 353.16 197.757 353.288C196.487 354.261 195.09 353.753 193.693 353.626Z" fill="#F5BB93"/>
<path d="M131.802 358.029C132.987 357.182 134.257 357.521 135.527 357.732C134.342 358.537 133.072 358.283 131.802 358.029Z" fill="#F5BB93"/>
<path d="M177.987 354.642C179.13 353.922 180.316 354.134 181.501 354.43C180.358 355.235 179.173 355.023 177.987 354.642Z" fill="#F5BB93"/>
<path d="M156.863 356.209C158.049 355.363 159.319 355.701 160.589 355.913C159.403 356.717 158.133 356.421 156.863 356.209Z" fill="#F5BB93"/>
<path d="M147.423 356.844C148.439 356.167 149.497 356.336 150.556 356.633C149.54 357.479 148.481 357.225 147.423 356.844Z" fill="#F5BB93"/>
<path d="M188.655 353.922C189.544 353.245 190.476 353.372 191.449 353.753C190.56 354.472 189.629 354.303 188.655 353.922Z" fill="#F5BB93"/>
<path d="M184.084 354.303C185.015 353.626 186.031 353.838 187.047 354.007C186.158 354.938 185.1 354.473 184.084 354.303Z" fill="#F5BB93"/>
<path d="M173.204 355.024C174.093 354.347 175.024 354.516 175.998 354.897C175.067 355.532 174.135 355.447 173.204 355.024Z" fill="#F5BB93"/>
<path d="M167.87 355.405C168.801 354.685 169.817 354.939 170.876 355.108C169.944 356.04 168.928 355.616 167.87 355.405Z" fill="#F5BB93"/>
<path d="M210.246 352.442C211.05 351.722 211.982 351.934 212.871 352.188C212.066 353.077 211.177 352.696 210.246 352.442Z" fill="#F5BB93"/>
<path d="M204.87 352.78C205.632 352.23 206.436 352.272 207.283 352.611C206.521 353.33 205.717 353.203 204.87 352.78Z" fill="#F5BB93"/>
<path d="M152.419 356.505C153.223 355.828 154.112 355.955 155.001 356.293C154.197 357.098 153.308 356.801 152.419 356.505Z" fill="#F5BB93"/>
<path d="M214.818 352.102C215.453 351.425 216.131 351.594 216.85 351.975C216.215 352.525 215.538 352.525 214.818 352.102Z" fill="#F5BB93"/>
<path d="M226.63 351.298C227.265 350.706 227.985 350.875 228.747 351.087C228.069 351.849 227.35 351.722 226.63 351.298Z" fill="#F5BB93"/>
<path d="M235.309 350.62C235.986 349.901 236.79 350.112 237.552 350.324C236.917 351.213 236.113 350.874 235.309 350.62Z" fill="#F5BB93"/>
<path d="M230.651 350.96C231.159 350.367 231.752 350.452 232.345 350.833C231.837 351.426 231.244 351.383 230.651 350.96Z" fill="#F5BB93"/>
<path d="M201.568 353.076C201.992 352.61 202.457 352.695 202.923 352.907C202.542 353.626 202.076 353.542 201.568 353.076Z" fill="#F5BB93"/>
<path d="M124.097 357.732C124.435 357.521 124.689 357.648 124.901 357.986C124.562 358.24 124.266 358.198 124.097 357.732Z" fill="#F5BB93"/>
<path d="M252.242 308.159C248.474 312.012 244.706 315.864 240.939 319.759C240.304 320.394 239.457 320.521 238.78 320.987C238.272 320.944 237.764 320.86 237.256 320.817C236.62 320.098 235.901 320.225 235.139 320.648C234.207 320.563 233.318 320.479 232.387 320.352C231.879 319.801 231.286 319.801 230.694 320.225C230.059 320.14 229.424 320.098 228.789 320.013C227.857 319.251 226.799 319.59 225.783 319.759C225.148 319.717 224.513 319.632 223.92 319.59C223.285 318.912 222.608 319.039 221.888 319.42C221.211 319.336 220.534 319.251 219.899 319.209C219.348 318.658 218.798 318.658 218.205 319.124C217.443 319.039 216.681 318.997 215.919 318.912C215.242 318.108 214.437 318.447 213.675 318.658C212.829 318.616 211.94 318.531 211.093 318.489C210.797 317.981 210.5 317.981 210.119 318.404C209.357 318.32 208.595 318.277 207.833 318.193C207.283 317.388 206.606 317.727 205.928 317.939C205.166 317.854 204.447 317.812 203.685 317.727C203.261 317.177 202.838 317.219 202.372 317.642C201.737 317.558 201.102 317.515 200.467 317.431C200.086 316.796 199.621 316.796 199.07 317.219C198.435 317.177 197.8 317.092 197.165 317.05C196.869 316.499 196.446 316.542 195.98 316.838C194.413 316.711 192.805 316.542 191.238 316.415C190.73 315.568 190.011 315.907 189.333 316.161C188.233 316.076 187.132 315.991 186.031 315.907C185.862 315.483 185.65 315.441 185.439 315.864C184.55 315.78 183.661 315.695 182.772 315.653C182.264 314.891 181.629 315.06 180.994 315.483C179.258 315.399 177.522 315.314 175.744 315.229C174.643 314.467 173.5 314.764 172.357 315.018C168.844 315.018 165.288 315.018 161.774 315.018C160.25 314.764 158.768 314.425 157.287 315.229C154.111 315.737 150.936 315.229 147.719 315.399C146.28 315.483 146.534 314.383 146.872 313.409C148.269 309.429 149.666 305.45 151.106 301.471C155.72 288.813 160.208 276.113 164.526 263.328C165.288 261.126 166.685 259.306 169.013 259.264C176.337 259.052 182.179 255.496 187.852 251.347C199.367 242.923 206.267 231.577 209.484 217.819C209.696 216.887 209.315 215.829 209.95 214.982C212.659 213.924 215.453 212.95 218.121 211.723C222.269 209.86 226.587 209.098 231.117 209.013C232.302 208.971 233.445 209.14 234.546 209.521C235.266 210.453 236.112 211.215 237.171 211.68C240.769 213.162 243.479 215.49 245.003 219.216C246.569 223.11 249.236 226.37 251.649 229.757C255.12 234.625 258.169 239.875 262.148 244.362C267.228 250.077 272.562 255.581 278.997 259.814C280.309 260.661 281.749 261.423 283.188 262.015C284.373 262.523 285.262 263.285 285.94 264.344C285.601 265.571 284.712 266.079 283.527 266.206C278.87 266.799 274.806 268.704 271.207 271.71C266 276.113 262.783 281.828 259.735 287.712C256.39 294.232 254.485 301.259 252.242 308.159Z" fill="#FDFDFD"/>
<path d="M157.244 315.272C158.683 314.467 160.208 314.806 161.732 315.06C160.292 315.737 158.768 315.526 157.244 315.272Z" fill="#F5BB93"/>
<path d="M172.314 315.018C173.457 314.764 174.6 314.468 175.701 315.23C174.558 315.526 173.415 315.865 172.314 315.018Z" fill="#F5BB93"/>
<path d="M225.741 319.802C226.757 319.59 227.816 319.294 228.747 320.056C227.731 320.31 226.673 320.564 225.741 319.802Z" fill="#F5BB93"/>
<path d="M221.847 319.505C222.566 319.124 223.244 318.997 223.879 319.674C223.159 320.055 222.439 320.14 221.847 319.505Z" fill="#F5BB93"/>
<path d="M213.591 318.701C214.395 318.489 215.2 318.151 215.835 318.955C215.03 319.251 214.268 319.463 213.591 318.701Z" fill="#F5BB93"/>
<path d="M235.097 320.648C235.859 320.224 236.578 320.097 237.213 320.817C236.494 321.114 235.732 321.198 235.097 320.648Z" fill="#F5BB93"/>
<path d="M180.909 315.484C181.544 315.061 182.137 314.891 182.687 315.653C182.052 315.95 181.46 316.077 180.909 315.484Z" fill="#F5BB93"/>
<path d="M189.248 316.16C189.925 315.906 190.603 315.568 191.153 316.414C190.476 316.668 189.798 316.838 189.248 316.16Z" fill="#F5BB93"/>
<path d="M230.651 320.266C231.244 319.843 231.794 319.801 232.345 320.393C231.752 320.774 231.202 320.817 230.651 320.266Z" fill="#F5BB93"/>
<path d="M205.845 317.981C206.522 317.77 207.199 317.473 207.75 318.235C207.072 318.532 206.395 318.659 205.845 317.981Z" fill="#F5BB93"/>
<path d="M218.121 319.166C218.714 318.701 219.264 318.701 219.814 319.251C219.222 319.674 218.671 319.717 218.121 319.166Z" fill="#F5BB93"/>
<path d="M198.985 317.261C199.536 316.838 200.001 316.838 200.382 317.473C199.874 317.727 199.366 317.896 198.985 317.261Z" fill="#F5BB93"/>
<path d="M202.288 317.685C202.754 317.262 203.219 317.22 203.6 317.77C203.135 318.193 202.711 318.193 202.288 317.685Z" fill="#F5BB93"/>
<path d="M195.896 316.88C196.361 316.626 196.785 316.542 197.081 317.092C196.615 317.431 196.192 317.388 195.896 316.88Z" fill="#F5BB93"/>
<path d="M210.035 318.447C210.374 318.024 210.713 318.024 211.009 318.532C210.628 318.955 210.289 318.913 210.035 318.447Z" fill="#F5BB93"/>
<path d="M185.354 315.907C185.566 315.526 185.778 315.526 185.947 315.949C185.693 316.288 185.524 316.245 185.354 315.907Z" fill="#F5BB93"/>
<path d="M293.222 328.396C292.46 326.322 290.343 325.856 288.777 324.756C284.501 320.945 279.929 317.559 275.314 314.172C274.976 313.918 274.637 313.664 274.341 313.368C275.188 312.521 274.849 311.505 274.679 310.574C274.552 309.896 274.383 309.261 274.468 308.584C274.849 304.224 275.653 299.948 277.77 296.095C282.681 287.205 289.539 280.559 299.53 277.511C299.657 277.849 299.826 278.188 299.953 278.527C301.011 281.786 300.673 285.173 300.715 288.518C300.8 293.979 303.763 297.492 309.097 298.466C311.256 298.847 313.373 299.524 315.362 300.456C319.003 302.107 321.924 304.732 324.38 307.822C326.962 311.082 329.714 314.172 332 317.643C326.031 318.024 320.062 318.448 314.092 318.829C308.293 319.252 303.763 322.596 298.895 325.264C296.905 326.364 295.338 327.888 293.222 328.396Z" fill="#804310"/>
<path d="M301.519 267.137C302.408 265.867 303.889 265.105 304.397 263.539C306.726 264.724 308.631 266.46 310.282 268.407C312.737 271.371 315.277 274.25 317.902 277.044C323.532 283.055 329.205 289.066 334.497 295.374C336.19 297.364 338.307 298.973 340 300.962C342.625 304.01 345.292 307.016 347.959 310.022C348.425 310.53 348.467 311.08 348.425 311.715C347.705 312.223 347.239 313.112 346.308 313.324C343.768 311.927 342.329 309.387 340.339 307.439C337.545 304.603 335.047 301.513 332.422 298.549C326.115 291.48 319.807 284.41 313.414 277.382C310.324 273.996 307.107 270.736 304.27 267.095C303.254 265.783 302.45 267.476 301.519 267.137Z" fill="#D39C74"/>
<path d="M331.872 317.727C329.586 314.255 326.834 311.165 324.252 307.905C321.797 304.815 318.918 302.19 315.235 300.539C313.203 299.608 311.128 298.973 308.969 298.55C303.635 297.576 300.672 294.062 300.587 288.601C300.545 285.257 300.884 281.87 299.825 278.61C299.698 278.272 299.571 277.933 299.402 277.594C299.402 277.002 299.402 276.367 299.36 275.774C299.444 274.631 299.656 273.53 299.063 272.429C299.021 272.175 299.021 271.964 298.979 271.71C299.106 270.821 299.19 270.016 297.963 269.847C297.963 269.72 297.92 269.635 297.878 269.508C298.682 269.127 299.063 268.027 300.122 267.984C299.783 269.043 299.995 270.101 300.037 271.202C300.418 277.171 302.027 283.013 301.646 289.024C301.392 293.088 304.524 296.602 308.165 297.153C316.632 298.465 322.686 303.418 327.427 310.318C328.909 312.477 330.644 314.467 332.296 316.499C333.058 317.388 333.185 317.812 331.872 317.727Z" fill="#D39C74"/>
<path d="M300.46 267.899C300.587 267.476 300.841 267.222 301.307 267.264C301.264 267.815 300.968 268.026 300.46 267.899Z" fill="#D39C74"/>
<path d="M252.242 308.159C254.486 301.258 256.391 294.189 259.735 287.669C262.783 281.785 266.001 276.027 271.208 271.667C274.806 268.619 278.87 266.714 283.527 266.163C284.712 266.036 285.601 265.528 285.94 264.301C288.607 265.528 291.232 266.756 293.857 268.026C294.111 268.153 294.195 268.492 294.407 268.704C293.052 268.746 292.163 269.593 291.316 270.482C289.835 272.048 287.972 273.149 286.279 274.419C282.723 277.043 278.913 279.329 275.78 282.589C271.081 287.5 269.387 293.384 268.922 299.861C268.625 303.587 269.641 307.1 270.403 310.699C267.863 309.683 265.747 307.82 263.08 306.973C259.82 305.915 256.814 306.381 253.809 307.608C253.258 307.778 252.75 307.989 252.242 308.159Z" fill="#804311"/>
<path d="M270.361 310.657C269.557 307.101 268.583 303.545 268.88 299.819C269.345 293.342 271.039 287.458 275.738 282.547C278.87 279.287 282.638 277.001 286.237 274.376C287.972 273.106 289.793 272.006 291.274 270.439C292.121 269.55 293.01 268.704 294.365 268.661C295.635 268.534 296.693 269.466 297.963 269.466C298.005 269.55 298.048 269.677 298.048 269.804C298.217 270.524 298.132 271.371 299.064 271.667C299.106 271.921 299.106 272.133 299.148 272.387C298.683 273.53 298.175 274.715 299.445 275.731C299.445 276.324 299.445 276.959 299.487 277.551C289.539 280.557 282.638 287.204 277.727 296.136C275.611 299.988 274.806 304.264 274.425 308.625C274.383 309.302 274.552 309.937 274.637 310.614C274.806 311.546 275.145 312.562 274.298 313.408C273.028 312.477 271.716 311.588 270.361 310.657Z" fill="#633401"/>
<path d="M299.445 275.732C298.217 274.716 298.683 273.573 299.149 272.388C299.741 273.488 299.487 274.631 299.445 275.732Z" fill="#804310"/>
<path d="M299.064 271.71C298.133 271.414 298.217 270.567 298.048 269.848C299.233 269.975 299.191 270.821 299.064 271.71Z" fill="#804310"/>
</svg>
