<svg width="497" height="497" viewBox="0 0 497 497" fill="none" xmlns="http://www.w3.org/2000/svg">
<path d="M222.677 219.438C221.942 222.363 219.37 226.021 218.636 227.118C202.469 251.987 179.689 246.136 174.912 249.61C169.952 253.45 133.761 196.946 142.579 187.985C159.664 170.43 166.278 167.687 181.893 160.556C187.588 157.996 196.774 156.533 202.469 155.801C206.143 155.253 226.719 204.26 222.677 219.438Z" fill="#3D3C3C"/>
<path d="M347.053 361.822C345.035 354.353 310.551 356.221 305.231 354.167C302.48 353.046 299.728 349.126 293.308 349.126C284.871 349.126 280.468 355.474 277.534 356.034C261.575 359.021 208.198 334.002 199.21 332.882C181.05 330.641 191.872 373.398 198.476 373.211C224.339 371.904 277.9 373.958 287.072 373.584C287.072 373.584 318.805 374.331 325.592 373.024C329.811 372.464 349.071 369.29 347.053 361.822Z" fill="#ECAD83"/>
<path d="M133.604 333.817C159.473 333.262 173.332 328.087 199.201 333.447C194.212 348.789 196.429 364.5 197.538 373.187C164.647 374.111 82.4205 376.514 77.6162 356.921C72.6272 336.589 113.648 220.143 142.289 187.797C142.289 187.797 179.06 225.503 174.995 249.717C167.604 292.414 133.604 333.817 133.604 333.817Z" fill="#3D3C3C"/>
<path d="M358.184 205.802C376.147 219.495 377.797 237.628 377.063 260.757C376.88 267.973 372.115 278.89 366.432 283.331C361.85 287.032 356.718 289.437 350.669 290.732C338.022 293.323 264.154 216.904 253.156 215.424C242.342 213.944 234.827 214.869 222.18 219.865L202.201 155.473C295.681 149.367 323.358 186.189 339.305 201.732C339.122 201.732 351.402 200.806 358.184 205.802Z" fill="#FF8AA0"/>
<path d="M373.596 274.797C373.596 274.797 378.492 286.027 385.201 297.809L363.08 318.797C362.355 303.332 352.201 289.709 352.201 289.709C369.789 285.291 372.69 274.981 373.596 274.797Z" fill="#ECAD83"/>
<path d="M414.684 331.748C420.478 341.705 415.047 350.576 411.244 355.464C399.294 370.489 388.43 370.852 374.669 369.041C356.382 366.688 355.657 317.808 358.373 309.843C365.254 289.386 395.31 284.86 407.261 285.946C420.478 287.214 416.495 291.377 415.409 296.446C415.409 296.627 415.952 297.532 415.952 297.532C415.771 299.343 415.228 301.696 416.133 304.412C416.133 304.412 415.409 306.041 415.228 306.765C415.047 307.308 415.047 307.67 415.771 308.032C417.581 308.938 419.392 309.843 419.935 310.748C421.927 313.645 411.968 327.222 414.684 331.748Z" fill="#F6BB92"/>
<path d="M408.201 300.02C408.201 300.02 409.564 299.4 415.989 300.227C416.768 300.641 417.936 301.881 416.573 303.536C415.6 304.776 412.679 301.261 408.201 300.02Z" fill="#D6876B"/>
<path d="M408.201 301.597C408.201 301.597 409.869 298.397 415.614 297.797C416.355 297.997 416.911 298.797 417.097 299.197C417.653 301.197 415.799 301.797 415.799 301.797C409.683 300.997 408.201 301.597 408.201 301.597Z" fill="#CC785E"/>
<path d="M372.494 373.105C350.014 370.158 324.244 333.691 359.7 299.25C362.076 297.04 367.194 294.462 373.408 300.724C377.794 305.144 380.536 310.485 380.536 310.485C381.267 312.143 382.181 313.8 383.095 315.826C384.008 317.852 381.267 328.903 383.46 329.639C405.026 335.901 412.885 348.978 412.154 354.871C407.951 368.5 396.436 376.236 372.494 373.105Z" fill="#602F0F"/>
<path d="M376.163 316.028C380.804 307.158 385.074 307.158 391.201 308.352L385.817 322.339L381.918 327.797C375.792 326.773 371.522 325.068 376.163 316.028Z" fill="#F6BB92"/>
<path d="M340.971 333.733C335.114 337.549 336.212 348.632 343.35 358.443C350.487 368.254 360.919 373.341 366.775 369.526C372.631 365.71 370.618 357.171 363.481 347.36C356.16 337.549 346.644 330.099 340.971 333.733Z" fill="#4C230C"/>
<path d="M385.943 326.739C385.391 328.579 385.207 330.235 385.023 331.523C384.839 333.363 385.023 334.651 385.023 334.651L378.767 331.523C378.951 330.603 378.951 329.499 379.135 328.579C379.135 328.579 379.871 328.947 380.975 329.499H380.791C381.895 328.211 383.367 326.003 384.839 322.875C384.839 322.875 387.599 321.22 385.943 326.739Z" fill="#602F0F"/>
<path d="M337.37 333.731C331.114 337.779 332.586 349.922 340.314 360.962C348.225 372.001 359.449 377.521 365.704 373.473C371.96 369.425 369.568 360.042 361.657 349.002C353.929 338.147 343.626 329.683 337.37 333.731Z" fill="#602F0F"/>
<path d="M338.39 353.828C337.658 354.189 339.123 357.263 341.503 360.517C343.883 363.771 346.446 366.122 346.995 365.76C347.727 365.399 346.446 362.867 344.066 359.613C341.686 356.359 339.123 353.466 338.39 353.828Z" fill="#4C230C"/>
<path d="M107.383 358.387C104.439 352.131 132.037 342.564 139.213 337.044L150.62 336.676C206.001 304.846 236.176 303.006 236.176 303.006C268.558 282.399 332.586 246.337 346.569 242.105C360.553 238.057 371.96 265.288 359.265 272.648C346.569 280.007 334.61 285.159 321.547 291.414C308.483 297.67 258.806 319.565 246.847 323.981C245.191 324.533 157.612 350.475 157.612 350.475C157.612 350.475 154.3 352.131 149.7 356.731C143.445 362.986 131.669 368.138 124.126 368.138C117.502 368.874 110.327 364.642 107.383 358.387Z" fill="#F6BB92"/>
<path d="M132.407 343.667C132.407 343.667 124.495 348.45 121.551 344.403C119.16 341.091 118.608 339.619 139.214 337.043C139.03 337.227 140.134 339.803 132.407 343.667Z" fill="#F6BB92"/>
</svg>
