<svg width="500" height="500" viewBox="0 0 500 500" fill="none" xmlns="http://www.w3.org/2000/svg">
<path d="M337.394 357.445C337.842 357.47 338.246 357.497 338.694 357.522C340.025 357.285 341.346 356.825 342.635 357.662C343.307 357.678 343.976 357.648 344.647 357.663C345.569 357.265 346.5 357.09 347.379 357.767C348.051 357.782 348.678 357.799 349.349 357.815C350.451 357.453 351.559 357.226 352.661 357.893C353.243 357.912 353.779 357.888 354.361 357.907C357.429 357.504 360.52 357.637 363.584 358.173C364.122 358.194 364.704 358.213 365.243 358.279C366.572 357.997 367.895 357.581 369.184 358.419C371.604 358.536 374.012 358.386 376.455 358.01C376.664 357.688 376.926 357.542 377.291 357.705C382.881 356.699 388.018 354.551 391.901 350.312C395.101 346.817 397.482 343.001 397.476 337.77C397.455 325.072 396.764 312.403 396.343 299.768C395.771 282.667 393.15 265.746 388.668 249.219C383.381 229.643 375.421 211.302 362.861 195.13C353.385 182.982 343.563 171.117 333.01 159.91C331.698 158.536 330.461 156.847 328.113 157.352C326.614 158.849 325.07 160.348 323.619 161.932C319.44 166.542 315.305 171.15 311.172 175.803C300.821 187.526 290.148 199.04 280.263 211.189C281.017 212.05 280.619 213.186 280.886 214.158C284.914 228.513 292.714 240.154 305.243 248.502C311.416 252.613 317.694 256.093 325.47 255.975C327.928 255.956 329.483 257.766 330.388 260.051C335.488 273.331 340.851 286.51 346.302 299.64C348.004 303.769 349.661 307.899 351.318 312.03C351.718 312.996 351.992 314.146 350.517 314.166C347.162 314.135 343.794 314.819 340.423 314.431C338.83 314.814 337.276 315.061 335.683 314.416C331.979 314.578 328.23 314.743 324.526 314.906C323.447 315.803 322.184 315.545 320.965 315.286C319.139 315.455 317.313 315.625 315.443 315.796C314.89 316.447 314.26 316.34 313.576 316.057C312.643 316.188 311.71 316.318 310.775 316.404C310.612 316.769 310.393 316.868 310.152 316.476C308.995 316.616 307.839 316.756 306.683 316.897C306.134 317.636 305.412 317.489 304.686 317.253C303.041 317.459 301.353 317.712 299.707 317.919C299.418 318.468 298.974 318.532 298.467 318.197C297.8 318.271 297.134 318.389 296.467 318.463C296.095 319.15 295.551 318.995 295.004 318.751C294.338 318.87 293.671 318.944 293.006 319.062C292.583 319.618 292.136 319.637 291.626 319.213C290.827 319.337 290.07 319.415 289.27 319.54C288.724 320.324 288.002 320.177 287.274 319.896C286.475 320.02 285.673 320.1 284.874 320.225C284.583 320.729 284.272 320.788 283.851 320.359C282.961 320.443 282.027 320.573 281.137 320.657C280.458 321.492 279.6 321.306 278.783 321.029C277.984 321.153 277.182 321.233 276.383 321.358C275.828 321.963 275.246 321.944 274.602 321.525C273.892 321.646 273.182 321.767 272.514 321.841C271.876 322.584 271.156 322.482 270.38 322.113C269.712 322.187 269.047 322.306 268.424 322.378C267.475 323.18 266.35 323.006 265.265 322.74C264.6 322.859 263.932 322.933 263.267 323.052C262.757 323.655 262.132 323.683 261.487 323.264C260.509 323.396 259.576 323.527 258.6 323.704C257.914 324.36 257.149 324.259 256.377 323.98C255.843 324.048 255.311 324.161 254.778 324.229C254.598 325.221 254.286 326.263 254.24 327.249C253.905 334.91 253.618 342.613 253.284 350.274C253.128 353.858 253.128 353.858 256.088 355.07C256.536 355.095 256.94 355.122 257.386 355.102C258.224 354.842 259.018 354.583 259.765 355.311C260.795 355.355 261.868 355.352 262.899 355.397C263.506 354.967 264.082 354.853 264.69 355.452C265.361 355.467 266.075 355.436 266.747 355.451C267.495 355.195 268.246 354.983 268.988 355.576C270.063 355.618 271.136 355.616 272.211 355.658C273.808 355.364 275.356 354.983 276.911 355.765C277.716 355.774 278.523 355.828 279.284 355.839C280.025 355.404 280.731 355.195 281.432 355.879C282.103 355.894 282.819 355.908 283.491 355.923C284.418 355.659 285.388 355.348 286.269 356.069C287.298 356.069 288.373 356.111 289.401 356.11C290.278 355.714 291.122 355.588 291.953 356.177C292.624 356.192 293.34 356.206 294.012 356.221C294.537 355.974 295.024 355.863 295.448 356.337C296.79 356.367 298.131 356.353 299.429 356.385C300.896 356.187 302.349 355.676 303.729 356.554C304.535 356.564 305.295 356.575 306.101 356.584C307.065 356.139 308.085 355.96 309.054 356.633C309.636 356.653 310.172 356.629 310.754 356.648C311.817 356.423 312.878 356.152 313.891 356.823C314.786 356.829 315.725 356.832 316.622 356.882C317.858 356.515 319.097 356.237 320.336 356.943C321.054 357.001 321.77 357.014 322.488 357.072C323.452 356.627 324.47 356.403 325.439 357.076C326.244 357.086 327.094 357.093 327.899 357.102C328.963 356.877 330.067 356.56 331.082 357.276C331.753 357.291 332.38 357.308 333.051 357.323C334.38 357.041 335.888 356.751 337.394 357.445Z" fill="#696D66"/>
<path d="M156.124 238.419C156.021 239.139 155.69 239.735 155.222 240.292C146.018 251.651 136.859 263.009 127.654 274.368C122.352 280.906 116.864 287.273 111.56 293.766C105.703 300.909 99.4751 307.756 94.2219 315.409C91.0261 320.021 89.0589 325.115 88.1358 330.566C87.5648 333.856 88.4725 337.214 90.0319 340.141C92.8556 345.383 96.9324 349.631 101.822 353.038C104.729 355.101 108.158 355.8 111.562 355.919C127.683 356.463 143.775 355.309 159.839 354.559C160.91 354.512 162.018 354.284 163.085 354.148C165.749 353.718 168.177 354.014 170.275 355.978C171.58 357.173 173.407 357.048 175.068 357.199C181.358 357.861 187.551 357.366 193.653 355.801C195.201 355.42 196.693 354.773 197.989 353.733C197.998 352.927 197.507 351.92 198.24 351.307C200.616 349.414 201.075 346.622 201.856 344.039C203.026 340.142 202.082 337.992 198.592 335.91C198.041 335.576 197.754 335.142 197.507 334.616C195.252 334.178 193.53 332.644 191.519 331.659C186.264 329.073 181.334 325.757 175.2 325.58C168.888 325.41 162.577 325.284 156.267 325.159C154.887 325.309 155.002 324.857 155.677 323.933C157.323 321.714 159.061 319.537 160.523 317.192C165.202 309.698 171.31 304.198 180.219 302.42C184.032 301.672 187.171 297.822 186.716 293.55C186.034 287.186 187.459 280.952 187.586 274.687C187.624 273.523 187.799 272.397 187.348 271.299C187.255 271.214 187.164 271.173 187.074 271.177C186.5 271.336 186.178 271.127 186.152 270.547C186.059 270.461 185.97 270.465 185.881 270.469C184.912 270.825 183.988 269.121 182.978 270.552C180.156 274.521 176.915 278.107 173.814 281.82C167.399 289.48 161.123 297.267 154.756 305.014C152.082 308.262 149.638 311.678 146.822 314.753C144.862 316.941 143.415 319.643 140.802 321.233C142.485 322.903 144.89 323.691 146.717 325.579C143.459 325.722 140.515 325.896 137.521 325.938C136.27 325.948 134.516 326.741 133.927 325.559C133.44 324.642 135.001 323.545 135.721 322.619C136.522 321.51 136.81 319.933 138.496 319.635C138.422 318.968 138.441 318.385 138.909 317.828C141.581 314.536 144.254 311.244 146.879 307.909C148.617 305.731 150.774 303.937 152.422 301.763C157.709 294.869 163.411 288.269 169.068 281.671C171.706 278.604 174.25 275.451 176.701 272.214C178.35 270.04 180.28 268.166 182.679 266.809C183.527 265.743 184.514 264.806 185.55 263.955C188.743 261.311 191.795 258.539 194.425 255.293C197.352 251.677 198.462 247.425 198.935 242.933C199.418 238.664 198.433 234.548 197.538 230.474C196.7 226.665 195.509 222.962 192.524 220.142C189.54 217.366 186.101 215.416 182.159 214.247C172.236 211.285 164.17 215.976 160.736 225.339C159.618 228.384 159.404 231.657 158.738 234.816C158.541 236.435 158.025 237.933 156.124 238.419Z" fill="#F7BA92"/>
<path d="M156.124 238.418C157.98 237.934 158.54 236.433 158.871 234.809C159.493 231.652 159.707 228.378 160.87 225.331C164.349 215.967 172.37 211.278 182.293 214.24C186.234 215.408 189.672 217.314 192.657 220.134C195.641 222.91 196.834 226.658 197.672 230.467C198.566 234.541 199.507 238.658 199.069 242.926C198.595 247.418 197.485 251.67 194.559 255.286C191.929 258.532 188.876 261.304 185.683 263.948C184.648 264.798 183.66 265.736 182.813 266.802C183.421 268.429 185.018 269.164 186.014 270.462C186.104 270.458 186.195 270.499 186.286 270.539C186.775 270.473 187.054 270.729 187.208 271.17C187.297 271.166 187.388 271.206 187.482 271.292C188.599 271.287 189.007 272.432 189.918 272.794C191.254 272.691 192.284 271.707 193.674 271.78C193.84 271.504 193.959 271.141 194.223 271.04C196.931 269.58 199.685 268.162 202.396 266.746C203.061 265.599 203.918 264.757 205.189 264.165C206.679 263.473 208.163 262.648 209.505 261.65C216.09 256.844 221.461 250.84 226.552 244.58C230.539 239.665 233.511 234.035 236.943 228.697C239.33 225.015 241.991 221.455 243.462 217.277C244.851 213.281 247.646 210.744 251.369 208.97C252.463 208.43 253.365 207.586 254.036 206.573C252.473 204.584 250.74 202.783 248.919 201.029C234.858 187.338 220.883 173.554 206.78 159.909C203.138 156.403 199.964 152.339 195.387 149.946C192.911 149.563 191.059 151.165 189.086 152.057C183.607 154.578 178.002 157.283 173.435 161.195C161.158 171.84 154.237 185.29 154.654 201.906C154.877 214.103 155.367 226.288 156.124 238.418Z" fill="#8A8AD9"/>
<path d="M195.344 149.992C199.923 152.429 203.14 156.446 206.737 159.955C220.84 173.599 234.816 187.384 248.876 201.075C250.697 202.828 252.43 204.63 253.993 206.618C255.138 206.21 256.335 205.979 257.585 205.924C262.319 205.805 266.951 206.407 271.411 208.178C274.278 209.304 277.268 210.202 280.175 211.236C290.105 199.085 300.735 187.618 311.084 175.851C315.217 171.198 319.35 166.545 323.532 161.979C324.982 160.395 326.528 158.941 328.025 157.4C324.23 153.453 319.884 150.201 315.414 147.177C309.1 142.894 302.375 139.433 294.88 137.795C286.889 136.044 278.816 134.476 270.616 134.076C266.358 133.861 262.099 133.601 257.824 134.012C251.59 134.599 245.416 135.541 239.246 136.572C233.342 137.547 227.391 138.479 221.648 140.073C215.286 141.828 209.127 144.11 203.019 146.57C200.602 147.525 197.984 147.998 195.771 149.526C195.554 149.67 195.428 149.854 195.344 149.992Z" fill="#F7BA92"/>
<path d="M255.957 355.164C252.997 353.952 252.997 353.952 253.153 350.368C253.487 342.707 253.774 335.004 254.109 327.343C254.153 326.313 254.467 325.315 254.647 324.323C253.911 323.864 252.968 323.771 252.314 323.129C248.162 319.198 244.011 315.311 239.861 311.424C239.316 311.225 238.772 311.07 238.227 310.87C235.001 309.715 231.811 309.363 228.424 310.63C225.653 311.691 223.506 313.708 220.876 314.896C219.535 315.939 218.193 316.937 216.853 317.98C216.507 318.263 216.209 318.589 215.863 318.873C211.156 322.657 206.494 326.483 202.161 330.653C202.398 330.956 202.635 331.258 202.959 331.512C206.665 334.435 207.769 338.187 207.078 342.823C206.486 346.65 205.118 350.108 203.206 353.412C203.447 353.804 203.806 353.833 204.209 353.86C210.877 353.969 217.497 354.036 224.167 354.19C233.387 354.411 242.61 354.677 251.831 354.898C253.129 354.93 254.475 356.034 255.957 355.164Z" fill="#F5BB93"/>
<path d="M203.071 353.373C205.028 350.068 206.398 346.654 206.943 342.784C207.634 338.148 206.575 334.394 202.825 331.474C202.545 331.218 202.308 330.915 202.027 330.614C200.426 331.847 198.261 332.434 197.509 334.658C197.756 335.184 198.088 335.617 198.595 335.952C202.084 338.035 203.028 340.184 201.858 344.081C201.077 346.664 200.574 349.458 198.242 351.349C197.507 351.918 197.999 352.925 197.991 353.775C199.765 354.457 201.375 353.448 203.071 353.373Z" fill="#D69F79"/>
<path d="M363.496 358.221C360.432 357.685 357.341 357.553 354.273 357.956C354.323 358.088 354.376 358.264 354.465 358.26C357.459 358.218 360.492 359.069 363.496 358.221Z" fill="#F5BB93"/>
<path d="M337.394 357.445C335.888 356.751 334.425 357.039 332.921 357.418C334.386 358.203 335.89 357.824 337.394 357.445Z" fill="#F5BB93"/>
<path d="M276.736 355.863C275.182 355.081 273.589 355.464 272.037 355.756C273.595 356.627 275.184 356.154 276.736 355.863Z" fill="#F5BB93"/>
<path d="M303.645 356.647C302.22 355.771 300.767 356.282 299.345 356.478C300.729 357.446 302.178 356.846 303.645 356.647Z" fill="#F5BB93"/>
<path d="M369.095 358.422C367.806 357.585 366.483 358.001 365.154 358.283C366.44 359.076 367.767 358.749 369.095 358.422Z" fill="#F5BB93"/>
<path d="M320.248 356.99C319.01 356.284 317.77 356.562 316.534 356.929C317.776 357.724 319.016 357.446 320.248 356.99Z" fill="#F5BB93"/>
<path d="M342.59 357.665C341.301 356.827 339.978 357.243 338.649 357.525C339.936 358.318 341.261 357.947 342.59 357.665Z" fill="#F5BB93"/>
<path d="M352.572 357.897C351.469 357.23 350.361 357.458 349.259 357.819C350.37 358.665 351.474 358.348 352.572 357.897Z" fill="#F5BB93"/>
<path d="M308.97 356.727C308.001 356.054 307.025 356.231 306.016 356.677C306.987 357.395 307.961 357.173 308.97 356.727Z" fill="#F5BB93"/>
<path d="M313.806 356.916C312.793 356.245 311.731 356.515 310.668 356.74C311.648 357.681 312.743 357.141 313.806 356.916Z" fill="#F5BB93"/>
<path d="M325.308 357.171C324.34 356.498 323.366 356.72 322.357 357.167C323.368 357.793 324.346 357.66 325.308 357.171Z" fill="#F5BB93"/>
<path d="M330.95 357.326C329.935 356.611 328.876 356.925 327.768 357.153C328.793 358.092 329.844 357.598 330.95 357.326Z" fill="#F5BB93"/>
<path d="M286.139 356.164C285.258 355.442 284.286 355.708 283.36 356.017C284.249 356.917 285.169 356.474 286.139 356.164Z" fill="#F5BB93"/>
<path d="M291.822 356.273C290.993 355.728 290.147 355.81 289.271 356.206C290.107 356.929 290.949 356.758 291.822 356.273Z" fill="#F5BB93"/>
<path d="M347.289 357.77C346.41 357.093 345.479 357.268 344.557 357.666C345.442 358.477 346.366 358.123 347.289 357.77Z" fill="#F5BB93"/>
<path d="M281.304 356.019C280.603 355.334 279.897 355.544 279.156 355.979C279.85 356.53 280.564 356.498 281.304 356.019Z" fill="#F5BB93"/>
<path d="M268.815 355.719C268.118 355.123 267.367 355.335 266.574 355.594C267.323 356.366 268.076 356.198 268.815 355.719Z" fill="#F5BB93"/>
<path d="M259.633 355.404C258.886 354.677 258.048 354.937 257.254 355.196C257.965 356.103 258.797 355.709 259.633 355.404Z" fill="#F5BB93"/>
<path d="M264.559 355.548C263.996 354.946 263.375 355.063 262.768 355.492C263.331 356.094 263.954 356.021 264.559 355.548Z" fill="#F5BB93"/>
<path d="M295.317 356.432C294.849 355.961 294.362 356.072 293.881 356.317C294.316 357.058 294.803 356.947 295.317 356.432Z" fill="#F5BB93"/>
<path d="M377.203 357.754C376.836 357.546 376.574 357.692 376.367 358.059C376.736 358.311 377.046 358.252 377.203 357.754Z" fill="#F5BB93"/>
<path d="M340.293 314.526C338.738 313.744 337.147 314.172 335.552 314.51C337.101 315.158 338.698 314.864 340.293 314.526Z" fill="#F5BB93"/>
<path d="M324.394 314.955C323.177 314.74 321.958 314.481 320.833 315.335C322.052 315.594 323.272 315.898 324.394 314.955Z" fill="#F5BB93"/>
<path d="M268.292 322.474C267.211 322.298 266.082 322.034 265.135 322.881C266.218 323.102 267.346 323.32 268.292 322.474Z" fill="#F5BB93"/>
<path d="M272.386 321.98C271.609 321.611 270.889 321.509 270.251 322.252C271.028 322.621 271.79 322.677 272.386 321.98Z" fill="#F5BB93"/>
<path d="M281.052 320.751C280.194 320.565 279.33 320.245 278.698 321.123C279.56 321.398 280.373 321.586 281.052 320.751Z" fill="#F5BB93"/>
<path d="M258.469 323.798C257.646 323.387 256.882 323.287 256.245 324.075C257.018 324.354 257.825 324.408 258.469 323.798Z" fill="#F5BB93"/>
<path d="M315.356 315.846C314.666 315.429 314.034 315.278 313.489 316.107C314.172 316.39 314.803 316.496 315.356 315.846Z" fill="#F5BB93"/>
<path d="M306.595 316.944C305.869 316.708 305.14 316.382 304.599 317.3C305.325 317.537 306.046 317.684 306.595 316.944Z" fill="#F5BB93"/>
<path d="M263.138 323.191C262.493 322.772 261.911 322.753 261.359 323.403C262.001 323.777 262.583 323.797 263.138 323.191Z" fill="#F5BB93"/>
<path d="M289.184 319.632C288.46 319.44 287.732 319.159 287.187 319.988C287.915 320.269 288.635 320.372 289.184 319.632Z" fill="#F5BB93"/>
<path d="M276.297 321.451C275.651 320.988 275.07 321.013 274.516 321.619C275.16 322.038 275.742 322.057 276.297 321.451Z" fill="#F5BB93"/>
<path d="M296.381 318.555C295.781 318.134 295.29 318.156 294.918 318.843C295.465 319.087 296.009 319.242 296.381 318.555Z" fill="#F5BB93"/>
<path d="M292.92 319.157C292.41 318.732 291.917 318.709 291.541 319.307C292.051 319.732 292.497 319.712 292.92 319.157Z" fill="#F5BB93"/>
<path d="M299.621 318.011C299.119 317.765 298.669 317.695 298.382 318.289C298.888 318.625 299.333 318.56 299.621 318.011Z" fill="#F5BB93"/>
<path d="M284.788 320.318C284.411 319.888 284.054 319.904 283.765 320.453C284.186 320.881 284.541 320.821 284.788 320.318Z" fill="#F5BB93"/>
<path d="M310.689 316.497C310.448 316.105 310.225 316.115 310.066 316.569C310.349 316.914 310.526 316.862 310.689 316.497Z" fill="#F5BB93"/>
<path d="M197.553 334.658C198.261 332.436 200.471 331.847 202.071 330.615C206.402 326.4 211.065 322.618 215.773 318.834C216.118 318.551 216.463 318.267 216.762 317.941C215.83 317.088 216.14 316.001 216.276 315.011C216.378 314.291 216.527 313.614 216.407 312.904C215.803 308.325 214.757 303.855 212.347 299.891C206.759 290.747 199.221 284.058 188.548 281.307C188.429 281.67 188.267 282.035 188.148 282.398C187.184 285.883 187.697 289.438 187.808 292.965C187.971 298.726 185.01 302.568 179.432 303.841C177.173 304.343 174.973 305.155 172.919 306.229C169.157 308.138 166.199 311.04 163.754 314.412C161.183 317.968 158.425 321.353 156.176 325.118C162.486 325.244 168.798 325.414 175.109 325.539C181.242 325.717 186.172 329.032 191.428 331.619C193.577 332.687 195.299 334.221 197.553 334.658Z" fill="#804310"/>
<path d="M185.969 270.463C184.973 269.166 183.376 268.431 182.768 266.803C180.368 268.161 178.44 270.079 176.79 272.208C174.339 275.446 171.794 278.598 169.157 281.665C163.5 288.263 157.798 294.863 152.511 301.758C150.818 303.934 148.661 305.728 146.968 307.904C144.342 311.238 141.67 314.53 138.998 317.823C138.53 318.38 138.511 318.962 138.585 319.629C139.367 320.132 139.899 321.047 140.891 321.227C143.504 319.637 144.904 316.892 146.911 314.747C149.725 311.628 152.215 308.254 154.845 305.009C161.167 297.264 167.49 289.519 173.903 281.814C177.004 278.101 180.245 274.516 183.067 270.546C184.077 269.116 185.003 270.864 185.969 270.463Z" fill="#D39C74"/>
<path d="M156.314 325.2C158.563 321.435 161.321 318.05 163.893 314.494C166.338 311.122 169.251 308.222 173.057 306.311C175.156 305.235 177.314 304.469 179.57 303.923C185.148 302.649 188.11 298.808 187.946 293.047C187.836 289.519 187.322 285.965 188.287 282.479C188.405 282.117 188.523 281.754 188.686 281.389C188.659 280.764 188.629 280.095 188.646 279.468C188.504 278.267 188.23 277.116 188.804 275.928C188.837 275.659 188.827 275.436 188.86 275.166C188.685 274.234 188.558 273.39 189.845 273.155C189.839 273.021 189.879 272.93 189.918 272.794C189.053 272.43 188.6 271.287 187.482 271.291C187.888 272.391 187.714 273.517 187.721 274.679C187.595 280.99 186.17 287.223 186.85 293.542C187.306 297.815 184.166 301.664 180.354 302.413C171.489 304.189 165.336 309.69 160.657 317.184C159.195 319.529 157.457 321.707 155.811 323.926C155.049 324.898 154.935 325.35 156.314 325.2Z" fill="#D39C74"/>
<path d="M187.12 271.217C186.967 270.777 186.687 270.521 186.198 270.587C186.269 271.165 186.591 271.375 187.12 271.217Z" fill="#D39C74"/>
<path d="M239.816 311.427C237.131 304.256 234.795 296.891 230.968 290.173C227.482 284.111 223.824 278.191 218.133 273.835C214.198 270.788 209.825 268.968 204.891 268.604C203.635 268.525 202.675 268.03 202.261 266.752C199.506 268.17 196.796 269.585 194.088 271.046C193.826 271.191 193.752 271.552 193.539 271.785C194.969 271.767 195.945 272.619 196.879 273.517C198.514 275.099 200.528 276.173 202.372 277.434C206.243 280.036 210.365 282.27 213.818 285.561C219 290.52 221.057 296.645 221.848 303.452C222.333 307.365 221.425 311.117 220.788 314.945C223.419 313.757 225.564 311.695 228.336 310.679C231.724 309.412 234.914 309.764 238.139 310.919C238.727 311.072 239.273 311.272 239.816 311.427Z" fill="#804311"/>
<path d="M220.831 314.898C221.514 311.112 222.376 307.318 221.891 303.405C221.1 296.598 219.042 290.473 213.861 285.514C210.408 282.222 206.33 279.987 202.415 277.387C200.526 276.128 198.556 275.052 196.922 273.469C195.988 272.571 195.012 271.72 193.582 271.738C192.237 271.663 191.164 272.694 189.825 272.753C189.785 272.844 189.746 272.98 189.752 273.114C189.607 273.88 189.735 274.769 188.767 275.124C188.734 275.394 188.744 275.617 188.711 275.887C189.255 277.07 189.845 278.296 188.554 279.426C188.581 280.051 188.61 280.721 188.593 281.347C199.22 284.055 206.802 290.742 212.393 299.932C214.803 303.895 215.849 308.365 216.452 312.944C216.528 313.656 216.379 314.334 216.321 315.052C216.186 316.041 215.876 317.128 216.808 317.981C218.103 316.941 219.446 315.943 220.831 314.898Z" fill="#633401"/>
<path d="M188.554 279.427C189.801 278.299 189.257 277.116 188.712 275.888C188.138 277.076 188.459 278.269 188.554 279.427Z" fill="#804310"/>
<path d="M188.769 275.169C189.737 274.813 189.609 273.925 189.754 273.158C188.51 273.347 188.594 274.238 188.769 275.169Z" fill="#804310"/>
</svg>
