<svg width="497" height="497" viewBox="0 0 497 497" fill="none" xmlns="http://www.w3.org/2000/svg">
<path d="M269.428 211.131C270.028 213.528 272.13 216.524 272.73 217.423C285.939 237.794 304.552 233.001 308.455 235.847C312.508 238.993 342.079 192.707 334.874 185.367C320.914 170.987 315.51 168.74 302.751 162.898C298.098 160.801 290.593 159.603 285.939 159.004C282.937 158.554 266.125 198.699 269.428 211.131Z" fill="#3D3C3C"/>
<path d="M168.121 327.362C169.768 321.35 197.923 322.853 202.266 321.2C204.513 320.298 206.759 317.143 212.001 317.143C218.89 317.143 222.484 322.252 224.88 322.703C237.909 325.107 281.49 304.97 288.828 304.068C303.655 302.265 294.819 336.679 289.427 336.528C268.311 335.477 224.581 337.13 217.092 336.829C217.092 336.829 191.184 337.43 185.643 336.378C182.198 335.927 166.473 333.373 168.121 327.362Z" fill="#ECAD83"/>
<path d="M342.23 304.328C321.238 303.875 309.992 299.646 289 304.026C293.048 316.563 291.249 329.402 290.349 336.502C317.039 337.257 383.764 339.22 387.663 323.209C391.711 306.594 358.424 211.433 335.183 185C335.183 185 305.344 215.814 308.643 235.601C314.64 270.493 342.23 304.328 342.23 304.328Z" fill="#3D3C3C"/>
<path d="M158.539 199.629C143.861 210.805 142.513 225.605 143.112 244.482C143.262 250.372 147.156 259.282 151.799 262.907C155.544 265.927 159.737 267.89 164.68 268.947C175.015 271.062 235.375 208.691 244.362 207.482C253.199 206.274 259.34 207.029 269.674 211.107L286 158.552C209.613 153.569 186.997 183.621 173.966 196.307C174.116 196.307 164.081 195.552 158.539 199.629Z" fill="#FF8AA0"/>
<path d="M146.495 256C146.495 256 142.489 265.188 137 274.828L155.099 292C155.692 279.347 164 268.201 164 268.201C149.61 264.586 147.236 256.151 146.495 256Z" fill="#ECAD83"/>
<path d="M112.553 302.746C107.771 310.924 112.254 318.211 115.393 322.226C125.256 334.569 134.223 334.866 145.582 333.379C160.676 331.446 161.274 291.295 159.032 284.752C153.353 267.948 128.544 264.23 118.681 265.123C107.771 266.164 111.059 269.584 111.955 273.748C111.955 273.896 111.507 274.64 111.507 274.64C111.656 276.127 112.105 278.06 111.358 280.291C111.358 280.291 111.955 281.629 112.105 282.224C112.254 282.67 112.254 282.968 111.656 283.265C110.162 284.008 108.667 284.752 108.219 285.496C106.575 287.875 114.795 299.028 112.553 302.746Z" fill="#F6BB92"/>
<path d="M118 277.167C118 277.167 116.94 276.702 111.942 277.323C111.337 277.633 110.428 278.563 111.488 279.804C112.245 280.735 114.517 278.098 118 277.167Z" fill="#D6876B"/>
<path d="M118 277.85C118 277.85 116.703 275.45 112.234 275C111.658 275.15 111.225 275.75 111.081 276.05C110.648 277.55 112.09 278 112.09 278C116.847 277.4 118 277.85 118 277.85Z" fill="#CC785E"/>
<path d="M147.333 336.434C165.638 334.023 186.622 304.186 157.75 276.007C155.816 274.199 151.648 272.09 146.588 277.213C143.017 280.829 140.784 285.199 140.784 285.199C140.189 286.556 139.445 287.912 138.701 289.569C137.957 291.227 140.189 300.268 138.403 300.871C120.842 305.994 114.442 316.693 115.038 321.515C118.461 332.666 127.837 338.995 147.333 336.434Z" fill="#602F0F"/>
<path d="M144.384 289.996C140.562 282.457 137.045 282.457 132 283.472L136.434 295.361L139.645 300C144.69 299.13 148.206 297.68 144.384 289.996Z" fill="#F6BB92"/>
<path d="M172.915 304.764C177.707 307.876 176.809 316.918 170.969 324.922C165.129 332.926 156.594 337.076 151.803 333.963C147.012 330.851 148.659 323.884 154.498 315.88C160.488 307.876 168.274 301.799 172.915 304.764Z" fill="#4C230C"/>
<path d="M136.158 298.75C136.609 300.253 136.76 301.605 136.91 302.657C137.06 304.16 136.91 305.211 136.91 305.211L142.019 302.657C141.868 301.906 141.868 301.004 141.718 300.253C141.718 300.253 141.117 300.553 140.216 301.004H140.366C139.464 299.952 138.262 298.149 137.06 295.594C137.06 295.594 134.806 294.242 136.158 298.75Z" fill="#602F0F"/>
<path d="M175.828 304.46C180.937 307.766 179.735 317.683 173.424 326.699C166.963 335.715 157.796 340.223 152.687 336.917C147.578 333.612 149.532 325.948 155.993 316.932C162.304 308.067 170.719 301.154 175.828 304.46Z" fill="#602F0F"/>
<path d="M174.853 321.026C175.422 321.327 174.283 323.888 172.432 326.6C170.581 329.312 168.587 331.271 168.16 330.969C167.59 330.668 168.587 328.559 170.438 325.847C172.289 323.135 174.283 320.724 174.853 321.026Z" fill="#4C230C"/>
<path d="M363.659 324.596C366.063 319.487 343.523 311.674 337.663 307.166L328.347 306.865C283.117 280.869 258.474 279.367 258.474 279.367C232.027 262.537 179.735 233.085 168.315 229.629C156.895 226.323 147.578 248.562 157.947 254.573C168.315 260.584 178.082 264.791 188.751 269.9C199.42 275.009 239.991 292.89 249.758 296.497C251.111 296.948 322.637 318.135 322.637 318.135C322.637 318.135 325.341 319.487 329.098 323.244C334.207 328.353 343.824 332.56 349.985 332.56C355.394 333.161 361.255 329.705 363.659 324.596Z" fill="#F6BB92"/>
<path d="M343.223 312.575C343.223 312.575 349.684 316.481 352.088 313.176C354.042 310.471 354.493 309.269 337.663 307.165C337.813 307.315 336.912 309.419 343.223 312.575Z" fill="#F6BB92"/>
</svg>
