<svg width="500" height="500" viewBox="0 0 500 500" fill="none" xmlns="http://www.w3.org/2000/svg">
<path d="M287.019 214.655C275.967 210.486 264.911 206.665 252.8 210.143C246.651 211.907 240.784 214.334 236.378 218.917C226.352 229.342 214.114 236.249 201.344 242.574C188.27 249.051 175.428 255.998 162.506 262.771C159.599 264.295 156.615 265.48 153.412 266.323C143.453 268.945 134.051 272.97 125.528 278.776C111.773 288.15 98.1488 297.71 84.4681 307.193C90.4794 311.507 96.4908 315.818 102.502 320.133C132.88 309.56 163.233 298.924 193.642 288.446C205.88 284.23 218.725 281.997 230.808 277.2C239.952 273.569 249.166 269.936 257.252 264.376C264.219 259.585 271.751 257.864 279.819 257.151C282.807 256.887 285.785 256.463 288.766 256.114C288.184 242.296 287.601 228.474 287.019 214.655Z" fill="#6A6D66"/>
<path d="M348.767 264.482C348.523 280.724 347.983 296.931 345.775 313.067C343.891 326.843 342.635 340.704 341.023 354.515C340.727 357.048 341.665 358.942 342.484 360.89C345.055 367.003 350.4 368.965 357.276 368.097C362.931 367.384 368.748 367.952 374.491 367.952C375.313 367.952 376.234 368.192 376.936 367.903C381.938 365.832 382.679 364.086 383.184 359.358C383.434 357.012 382.415 356.575 381.014 355.721C377.165 353.375 372.604 349.84 369.21 345.999C367.22 343.748 365.831 343.042 366.54 339.811C369.369 326.906 373.161 314.185 374.502 300.974C374.915 296.906 375.772 292.814 375.595 288.767C375.049 276.127 378.83 264.207 381.205 252.054C382.217 246.879 382.362 241.545 384.052 236.496C383.268 230.09 386.048 223.747 384.101 217.242C383.212 214.268 380.951 211.897 380.767 208.704C373.772 203.893 365.852 203.399 357.745 203.773C347.581 208.581 343.955 213.393 344.745 221.598C345.302 227.37 346.985 232.813 350.728 237.435C351.832 238.8 353.233 240.112 352.877 242.098C351.536 249.563 350.135 257.017 348.756 264.475L348.767 264.482Z" fill="#F5BA92"/>
<path d="M287.019 214.655C287.601 228.474 288.184 242.296 288.766 256.114C295.782 256.911 302.658 258.633 309.777 258.827C316.381 259.01 322.773 257.79 329.219 256.791C328.213 252.706 327.176 248.628 326.21 244.536C323.377 232.517 319.665 220.713 317.344 208.566C313.672 209.893 309.834 210.884 306.366 212.62C300.093 215.756 293.613 215.386 287.019 214.652V214.655Z" fill="#F5BA92"/>
<path d="M317.344 208.57C319.665 220.717 323.377 232.521 326.209 244.54C327.176 248.635 328.213 252.71 329.219 256.795C334.584 262.281 341.114 264.803 348.766 264.482C350.145 257.025 351.546 249.57 352.887 242.106C353.243 240.116 351.846 238.804 350.738 237.442C346.995 232.82 345.309 227.377 344.755 221.606C343.965 213.4 347.588 208.588 357.755 203.78C343.834 201.578 330.397 203.43 317.348 208.574L317.344 208.57Z" fill="#8A8AD9"/>
<path d="M102.498 320.133C96.4867 315.819 90.4754 311.508 84.464 307.193C74.4592 308.195 69.6014 313.522 69.5803 323.545C69.5662 330.646 69.6297 337.751 69.5803 344.852C69.5168 353.802 73.7219 360.498 80.5835 365.737C84.2912 368.566 88.6832 368.81 92.0488 366.682C95.7106 364.365 97.2875 361.01 95.9611 356.096C94.2818 349.873 95.2061 344.094 97.1958 338.171C99.1925 332.237 100.748 326.155 102.498 320.137V320.133Z" fill="#F5BA92"/>
<path d="M394.824 204.417C390.736 204.886 386.993 206.488 383.222 207.987C384.29 211.709 387.233 214.602 387.427 218.807C387.702 224.741 387.088 230.579 386.502 236.439C386.774 236.471 387.053 236.562 387.31 236.524C396.338 235.204 404.127 237.504 410.46 244.285C411.973 245.904 413.737 245.809 415.621 244.673C417.247 243.692 419.082 243.061 420.704 242.076C423.745 240.235 426.86 239.275 430.335 240.665C433.373 241.882 435.32 240.302 434.717 237.621C433.831 233.68 433.08 228.72 433.831 224.96C434.463 221.802 436.364 220.85 438.784 216.863C433.203 216.757 428.381 213.843 423.103 212.58C421.258 212.14 419.776 212.157 418.055 212.965C408.653 217.371 402.501 215.579 396.807 206.947C396.218 206.054 395.484 205.253 394.821 204.41L394.824 204.417Z" fill="#F5BA92"/>
<path d="M394.825 204.418C395.491 205.261 396.222 206.058 396.811 206.954C402.505 215.587 408.657 217.382 418.059 212.973C419.78 212.165 421.262 212.147 423.107 212.588C428.381 213.851 433.207 216.765 438.788 216.871C439.229 212.722 440.707 208.683 440.308 204.453C439.596 196.9 435.387 191.538 429.337 187.389C424.553 185.389 419.53 185.516 414.496 185.689C404.826 187.837 398.173 193.34 395.252 202.989C395.153 203.25 395.051 203.515 394.952 203.779C394.874 203.984 394.832 204.195 394.825 204.414V204.418Z" fill="#804414"/>
<path d="M386.506 236.441C387.088 230.578 387.706 224.743 387.431 218.809C387.233 214.604 384.294 211.711 383.225 207.989C382.276 207.777 381.514 208.204 380.777 208.709C380.961 211.901 383.218 214.272 384.111 217.246C386.058 223.748 383.278 230.094 384.061 236.501C384.876 236.479 385.691 236.462 386.506 236.444V236.441Z" fill="#DAA580"/>
<path d="M394.951 203.782C395.05 203.518 395.152 203.253 395.251 202.992C395.149 203.257 395.05 203.521 394.951 203.782Z" fill="#E5AE89"/>
<path d="M429.916 186.373C431.546 185.573 432.414 184.176 433.013 182.532C433.91 180.069 434.202 177.579 433.239 175.095C431.398 170.333 428.029 167.292 422.942 166.325C420.194 165.803 417.463 165.948 414.718 166.491C411.367 167.151 408.248 168.389 405.207 169.902C400.759 172.111 396.476 174.605 392.261 177.226C389.816 178.743 387.36 180.239 384.633 181.216C384.323 181.329 384.016 181.512 383.773 181.731C382.915 182.503 383.074 183.78 384.129 184.243C385.208 184.715 386.302 185.177 387.477 185.396C389.138 185.703 390.793 186.07 392.462 186.335C397.249 187.09 402.043 187.806 406.834 188.536C407.049 188.525 407.268 188.518 407.486 188.508C407.328 188.116 407.314 187.732 407.628 187.411C408.093 186.934 408.52 186.423 409.145 186.105C410.393 185.467 411.607 184.765 412.838 184.091C413.23 183.876 413.646 183.728 414.076 183.594C416.415 182.867 418.786 182.708 421.206 183.015C423.721 183.336 426.138 183.992 428.441 185.054C429.069 185.343 429.592 185.745 429.913 186.373H429.916Z" fill="#804414"/>
<path d="M429.916 186.373C429.592 185.746 429.073 185.343 428.445 185.054C426.141 183.992 423.725 183.34 421.21 183.015C418.786 182.705 416.415 182.867 414.08 183.594C413.646 183.728 413.233 183.872 412.842 184.091C411.611 184.765 410.397 185.467 409.148 186.105C408.524 186.423 408.097 186.934 407.631 187.411C407.317 187.732 407.335 188.116 407.49 188.508C407.606 188.596 407.723 188.684 407.839 188.769C408.238 188.589 408.615 188.734 408.982 188.868C409.892 189.196 410.796 189.058 411.582 188.617C414.352 187.065 417.35 187.019 420.388 187.128C421.626 187.174 422.818 187.421 424.025 187.707C425.108 187.965 426.226 188.092 427.295 188.441C427.785 188.603 428.17 188.391 428.562 188.162C429.052 187.591 429.697 187.139 429.927 186.37L429.916 186.373Z" fill="#62350E"/>
</svg>
