<svg width="500" height="500" viewBox="0 0 500 500" fill="none" xmlns="http://www.w3.org/2000/svg">
<path d="M297.018 213.737C285.966 209.567 274.91 205.746 262.799 209.224C256.65 210.988 250.783 213.415 246.377 217.998C236.351 228.423 224.113 235.33 211.343 241.655C198.269 248.132 185.428 255.079 172.505 261.852C169.598 263.376 166.614 264.561 163.411 265.404C153.452 268.026 144.05 272.051 135.527 277.858C121.772 287.231 108.148 296.791 94.4671 306.274C100.478 310.588 106.49 314.899 112.501 319.214C142.879 308.641 173.232 298.005 203.641 287.527C215.879 283.311 228.724 281.078 240.807 276.281C249.951 272.651 259.165 269.017 267.251 263.457C274.218 258.666 281.75 256.945 289.818 256.232C292.806 255.968 295.784 255.544 298.765 255.195C298.183 241.377 297.6 227.555 297.018 213.737Z" fill="#6A6D66"/>
<path d="M358.766 263.563C358.522 279.805 357.982 296.012 355.774 312.148C353.89 325.924 352.634 339.785 351.022 353.596C350.726 356.129 351.664 358.023 352.483 359.971C355.054 366.084 360.399 368.046 367.275 367.178C372.93 366.465 378.747 367.033 384.49 367.033C385.312 367.033 386.233 367.273 386.935 366.984C391.937 364.913 392.678 363.167 393.183 358.44C393.433 356.094 392.414 355.656 391.013 354.802C387.164 352.456 382.603 348.922 379.209 345.08C377.22 342.829 375.83 342.124 376.539 338.892C379.368 325.987 383.16 313.266 384.501 300.055C384.914 295.987 385.771 291.895 385.594 287.849C385.048 275.208 388.829 263.288 391.204 251.135C392.216 245.96 392.361 240.626 394.051 235.577C393.267 229.171 396.047 222.828 394.1 216.323C393.211 213.349 390.95 210.978 390.766 207.785C383.771 202.974 375.851 202.48 367.744 202.854C357.58 207.662 353.954 212.474 354.744 220.68C355.301 226.451 356.984 231.894 360.727 236.516C361.831 237.881 363.232 239.193 362.876 241.179C361.535 248.644 360.134 256.098 358.755 263.556L358.766 263.563Z" fill="#F5BA92"/>
<path d="M297.018 213.736C297.6 227.555 298.183 241.377 298.765 255.195C305.781 255.992 312.657 257.714 319.776 257.908C326.38 258.091 332.773 256.871 339.218 255.872C338.212 251.787 337.175 247.709 336.209 243.617C333.376 231.598 329.665 219.794 327.343 207.647C323.671 208.974 319.833 209.965 316.365 211.701C310.092 214.837 303.612 214.467 297.018 213.733V213.736Z" fill="#F5BA92"/>
<path d="M327.344 207.651C329.665 219.798 333.376 231.602 336.209 243.621C337.176 247.717 338.213 251.791 339.218 255.876C344.584 261.362 351.114 263.884 358.766 263.563C360.145 256.106 361.545 248.651 362.886 241.187C363.242 239.197 361.845 237.885 360.738 236.523C356.995 231.901 355.308 226.458 354.755 220.687C353.964 212.481 357.587 207.669 367.754 202.861C353.834 200.659 340.396 202.512 327.347 207.655L327.344 207.651Z" fill="#8A8AD9"/>
<path d="M112.498 319.214C106.486 314.9 100.475 310.589 94.4635 306.274C84.4587 307.276 79.6009 312.603 79.5798 322.626C79.5657 329.727 79.6292 336.832 79.5798 343.934C79.5163 352.884 83.7214 359.579 90.583 364.818C94.2907 367.647 98.6828 367.891 102.048 365.763C105.71 363.446 107.287 360.091 105.961 355.177C104.281 348.954 105.206 343.175 107.195 337.252C109.192 331.318 110.748 325.236 112.498 319.218V319.214Z" fill="#F5BA92"/>
<path d="M404.824 203.499C400.735 203.968 396.992 205.57 393.221 207.069C394.29 210.791 397.232 213.684 397.426 217.889C397.701 223.823 397.088 229.661 396.502 235.521C396.774 235.553 397.052 235.644 397.31 235.606C406.337 234.286 414.127 236.586 420.459 243.367C421.973 244.986 423.736 244.891 425.62 243.755C427.247 242.774 429.081 242.143 430.704 241.158C433.745 239.317 436.86 238.357 440.335 239.747C443.372 240.964 445.319 239.384 444.716 236.703C443.831 232.762 443.079 227.802 443.831 224.042C444.462 220.884 446.364 219.932 448.784 215.945C443.203 215.839 438.38 212.925 433.103 211.663C431.258 211.222 429.776 211.239 428.054 212.047C418.653 216.453 412.5 214.661 406.807 206.029C406.217 205.136 405.484 204.335 404.82 203.492L404.824 203.499Z" fill="#F5BA92"/>
<path d="M404.824 203.499C405.491 204.342 406.221 205.139 406.81 206.035C412.504 214.668 418.657 216.463 428.058 212.054C429.78 211.246 431.261 211.228 433.106 211.669C438.381 212.932 443.207 215.846 448.787 215.952C449.228 211.803 450.707 207.764 450.308 203.534C449.595 195.981 445.387 190.619 439.337 186.47C434.553 184.47 429.529 184.597 424.495 184.77C414.826 186.918 408.172 192.421 405.251 202.07C405.152 202.331 405.05 202.596 404.951 202.86C404.874 203.065 404.831 203.276 404.824 203.495V203.499Z" fill="#804414"/>
<path d="M396.505 235.521C397.087 229.658 397.705 223.823 397.43 217.889C397.232 213.684 394.293 210.791 393.224 207.069C392.275 206.858 391.513 207.284 390.776 207.789C390.96 210.982 393.217 213.352 394.11 216.326C396.057 222.828 393.277 229.174 394.061 235.581C394.875 235.56 395.69 235.542 396.505 235.524V235.521Z" fill="#DAA580"/>
<path d="M404.951 202.864C405.05 202.6 405.152 202.335 405.251 202.074C405.149 202.339 405.05 202.603 404.951 202.864Z" fill="#E5AE89"/>
<path d="M439.915 185.454C441.545 184.654 442.413 183.257 443.013 181.613C443.909 179.15 444.201 176.66 443.238 174.176C441.397 169.414 438.028 166.373 432.941 165.406C430.193 164.884 427.462 165.029 424.717 165.572C421.366 166.232 418.247 167.47 415.207 168.983C410.758 171.192 406.475 173.686 402.26 176.307C399.815 177.824 397.359 179.32 394.632 180.297C394.322 180.41 394.015 180.593 393.772 180.812C392.914 181.584 393.073 182.862 394.128 183.324C395.208 183.796 396.301 184.259 397.476 184.477C399.137 184.784 400.792 185.151 402.461 185.416C407.248 186.171 412.042 186.887 416.833 187.617C417.048 187.606 417.267 187.599 417.485 187.589C417.327 187.197 417.313 186.813 417.627 186.492C418.092 186.015 418.519 185.504 419.144 185.186C420.392 184.548 421.606 183.846 422.837 183.172C423.229 182.957 423.645 182.809 424.075 182.675C426.414 181.948 428.785 181.789 431.205 182.096C433.72 182.417 436.137 183.073 438.441 184.135C439.068 184.424 439.591 184.827 439.912 185.454H439.915Z" fill="#804414"/>
<path d="M439.915 185.455C439.591 184.827 439.072 184.424 438.444 184.135C436.14 183.073 433.724 182.421 431.209 182.096C428.785 181.786 426.414 181.948 424.079 182.675C423.645 182.809 423.232 182.953 422.841 183.172C421.61 183.846 420.396 184.548 419.147 185.186C418.523 185.504 418.096 186.015 417.63 186.492C417.316 186.813 417.334 187.197 417.489 187.589C417.605 187.677 417.722 187.765 417.838 187.85C418.237 187.67 418.614 187.815 418.981 187.949C419.891 188.277 420.795 188.139 421.581 187.698C424.351 186.146 427.349 186.1 430.387 186.21C431.625 186.255 432.817 186.502 434.024 186.788C435.107 187.046 436.225 187.173 437.294 187.522C437.784 187.684 438.169 187.472 438.561 187.243C439.051 186.672 439.696 186.22 439.926 185.451L439.915 185.455Z" fill="#62350E"/>
</svg>
