<svg width="497" height="497" viewBox="0 0 497 497" fill="none" xmlns="http://www.w3.org/2000/svg">
<path d="M359.6 325.7C353.5 323.6 344.2 323.7 344.1 321.1C343.3 300.3 341.6 269.1 341.6 269.1C343.1 248.4 353.9 208.4 352.2 200.6C350.5 192.9 334.6 194.5 334.3 202.4C333.3 211.7 332.1 216.1 331.1 225.7C329.6 237.6 327.8 262.6 328.8 269.5C328.9 270.4 335.6 316.5 335.6 316.5C335.6 316.5 335.8 322.2 336.6 325.3C337.5 328.8 339.8 328 346.8 328.8C352 329.5 363.9 327.2 359.6 325.7Z" fill="#ECAD83"/>
<path d="M257.6 226.9C257.6 226.9 249 225.8 242.3 227.2C228.5 230.1 223.2 240.7 223.2 240.7C223.2 240.7 227.3 272.1 234.3 270.4C247.6 267.3 258.2 265.2 264.7 263.9C269.1 263 267.1 241.6 267.1 241.6L257.6 226.9Z" fill="#3D3C3C"/>
<path d="M332.9 244.6C344.5 240.5 346.5 228.6 356.2 217.6C357.4 216.2 358.7 207.5 357.3 203.8C355.8 199.7 353.5 195.7 348.8 193.9C345.2 192.5 335.3 190.9 315.5 203.4C306 208.5 270.8 228 257.5 227C257.5 227 263.8 239.3 264.9 247.4C266 255.6 264.7 264 264.7 264C300.4 252.8 310.8 246.7 322.9 243.9C322.9 243.9 329.7 245.8 332.9 244.6Z" fill="#FF8AA0"/>
<path d="M349.7 327.6C345.5 325 333.9 323.7 334.1 321.1C335.6 300.3 341.6 269.1 341.6 269.1C343.1 248.4 353.9 208.4 352.2 200.6C350.5 192.9 334.6 194.5 334.3 202.4C333.3 211.7 332.1 216.1 331.1 225.7C329.6 237.6 327.8 262.6 328.8 269.5C328.9 270.4 325.8 322.2 326.6 325.3C327.5 328.8 329.8 328 336.8 328.8C342 329.5 353.6 330 349.7 327.6Z" fill="#F6BB92"/>
<path d="M360 212.7C360 212.7 364 211.3 371.3 209.7V193C364.9 198.4 355.4 199.5 355.4 199.5C360.4 209.3 356.3 214 356.3 217.6L360 212.7Z" fill="#ECAD83"/>
<path d="M393.3 211.4C399.4 213.1 403.4 209 405.5 206.3C412 197.9 410.6 192 407.8 184.8C404 175.4 377.7 181.7 373.9 184.2C363.9 190.7 365.6 207.4 367.9 213.7C370.4 220.6 372.1 217.9 374.7 216.6C374.8 216.5 375.3 216.7 375.3 216.7C376.2 216.3 377.5 215.8 379 215.9C379 215.9 379.7 215.3 380.2 215.1C380.5 215 380.7 214.9 381 215.2C381.7 216 382.4 216.9 383 217.1C384.5 217.8 390.4 210.6 393.3 211.4Z" fill="#F6BB92"/>
<path d="M376 212.3C376 212.3 375.9 213.1 377.1 216.2C377.4 216.5 378.1 217 378.7 216.1C379.2 215.4 377.2 214.4 376 212.3Z" fill="#D6876B"/>
<path d="M376 212.3C376 212.3 374.7 213.5 375.1 216.7C375.3 217.1 375.8 217.3 376 217.3C377.1 217.3 377.1 216.3 377.1 216.3C375.9 213.1 376 212.3 376 212.3Z" fill="#CC785E"/>
<path d="M409 183.5C404.4 172 381.7 163.2 368.4 186.7C367.5 188.3 366.9 191.3 371 193.8C373.9 195.6 377.1 196.3 377.1 196.3C378.1 196.5 379.1 196.7 380.2 196.9C381.4 197.1 386.8 194.1 387.5 195.2C393.8 205.8 401.7 208.2 404.7 207C411.4 202.9 413.9 195.8 409 183.5Z" fill="#602F0F"/>
<path d="M379.7 193.1C375.3 196.9 375.9 199.1 377.4 202L384.7 197.1L387.3 194.3C385.7 191.4 384.1 189.3 379.7 193.1Z" fill="#F6BB92"/>
<path d="M384.3 172.4C385.5 168.8 391.6 167.8 397.8 170.2C404 172.6 408.1 177.5 406.9 181.1C405.7 184.7 400.8 184.8 394.6 182.4C388.4 180 383.1 176 384.3 172.4Z" fill="#4C230C"/>
<path d="M386.8 196.9C387.7 196.4 388.5 196 389.2 195.8C390.2 195.4 390.9 195.3 390.9 195.3L388.4 192.4C387.9 192.6 387.4 192.8 386.9 193C386.9 193 387.2 193.3 387.6 193.9C387.6 193.9 387.6 193.9 387.5 193.8C386.9 194.6 386 195.6 384.5 196.8C384.5 196.9 384.1 198.6 386.8 196.9Z" fill="#602F0F"/>
<path d="M383.9 170.4C385.2 166.6 391.8 165.7 398.6 168.3C405.4 170.9 409.9 176.2 408.6 180C407.3 183.8 402 183.8 395.2 181.2C388.4 178.5 382.6 174.2 383.9 170.4Z" fill="#602F0F"/>
<path d="M394.9 168.2C395 167.8 396.9 168.1 398.9 168.9C401 169.7 402.6 170.7 402.4 171.1C402.3 171.5 400.8 171.2 398.7 170.4C396.6 169.6 394.7 168.7 394.9 168.2Z" fill="#4C230C"/>
<path d="M92.5001 325.6C91.9001 321.5 85.7001 308.5 85.2001 307.1C84.0001 303.7 84.5001 299.7 87.9001 299.1C90.5001 298.6 93.1001 298.9 94.6001 298.2C102 294.4 125.3 285.7 134.4 281.2C136.5 280.2 138.7 279.2 140.9 278.2C150 274.2 152.3 295.3 148.9 296.4C135.1 300.7 101.1 307.1 96.0001 308.1C96.0001 308.1 102 326.5 98.4001 327.5C96.1001 328.1 93.1001 329.7 92.5001 325.6Z" fill="#F6BB92"/>
<path d="M171.6 267.7C160.4 270.6 150 274.1 140.9 278.1C143.3 280.7 148.6 293.1 148.9 296.3C152.3 295.2 179.4 288.2 179.4 288.2C188 286 238.5 273.4 252.6 265.4C256.3 263.5 259.4 261.4 261.9 259.5C266.8 255.9 251.6 226.9 243.6 228.7C227.6 236.3 200.7 256 193.6 260C186.6 264 171.6 267.7 171.6 267.7Z" fill="#3D3C3C"/>
</svg>
