<svg width="500" height="500" viewBox="0 0 500 500" fill="none" xmlns="http://www.w3.org/2000/svg">
<path d="M377.485 269.197C377.428 268.88 377.594 268.626 377.735 268.368C378.854 266.273 379.588 264.026 380.314 261.775C380.723 260.501 380.861 259.171 381.006 257.855C381.164 256.388 381.408 254.927 381.56 253.463C382.053 248.722 381.14 244.344 377.996 240.594C377.199 239.645 376.317 238.788 375.227 238.177C373.206 237.049 371.131 236.018 369.008 235.094C367.868 234.597 366.679 234.286 365.473 234.05C363.931 233.747 362.375 233.493 360.816 233.281C357.574 232.836 354.332 232.91 351.097 233.369C349.954 233.531 348.924 234.029 347.989 234.678C347.224 235.207 346.504 235.817 345.809 236.442C343.957 238.096 342.747 240.171 342.084 242.538C341.54 244.482 341.184 246.468 341.265 248.514C341.318 249.809 341.512 251.075 342.006 252.264C343.064 254.818 344.359 257.245 346.105 259.411C346.437 259.969 346.391 260.597 346.44 261.207C346.222 261.253 346.007 261.299 345.788 261.341C345.019 261.207 344.246 261.069 343.477 260.935C341.286 260.339 339.036 260.057 336.799 259.715C336.312 259.64 335.822 259.577 335.346 259.461C332.749 258.836 330.086 258.66 327.457 258.254C323.658 257.668 319.855 257.125 316.052 256.561C314.835 256.381 313.59 256.406 312.387 256.099C312.507 255.026 312.623 253.95 312.747 252.878C313.015 250.585 313.297 248.292 313.558 245.999C313.696 244.778 313.798 243.554 313.921 242.33C314.175 239.836 314.458 237.348 314.683 234.851C314.941 232.011 315.138 229.167 315.385 226.328C315.512 224.86 315.759 223.4 315.844 221.932C315.939 220.214 316.225 218.514 316.165 216.781C316.123 215.554 316.137 214.308 316.306 213.098C316.701 210.223 316.934 207.334 317.167 204.445C317.421 204.321 317.661 204.184 317.798 203.919C318.539 203.623 319.312 203.52 320.106 203.461C322.614 203.274 325.118 203.044 327.62 202.815C330.223 202.575 332.816 202.258 335.423 202.078C338.729 201.848 341.981 201.316 345.227 200.695C346.049 200.54 346.881 200.42 347.707 200.278C350.988 199.714 354.223 200.017 357.338 201.1C360.657 202.254 363.483 204.215 365.702 206.981C366.598 208.096 367.466 209.236 368.281 210.407C368.814 211.172 369.304 211.987 369.674 212.841C370.616 215.018 371.819 217.057 372.902 219.159C373.22 219.773 373.566 220.373 373.83 221.008C374.666 223.019 375.76 224.892 376.861 226.762C377.686 228.166 378.462 229.594 379.164 231.062C380.12 233.066 381.129 235.038 382.283 236.939C382.59 237.444 382.858 237.973 383.101 238.513C383.503 239.416 383.951 240.287 384.459 241.137C385.221 242.418 385.747 243.794 386.089 245.244C386.181 245.628 386.297 246.002 386.403 246.383C386.41 246.626 386.382 246.88 386.424 247.117C386.869 249.473 386.682 251.83 386.241 254.148C385.348 258.868 383.313 263.087 380.441 266.918C380.12 267.345 379.658 267.673 379.499 268.22C378.96 268.428 378.452 268.686 378.011 269.067C377.859 269.197 377.697 269.275 377.495 269.197H377.485Z" fill="#8A8AD9"/>
<path d="M317.163 204.437C316.93 207.326 316.698 210.216 316.302 213.091C316.137 214.304 316.119 215.55 316.161 216.774C316.221 218.506 315.936 220.206 315.84 221.924C315.759 223.392 315.512 224.853 315.382 226.32C315.131 229.16 314.937 232.007 314.68 234.843C314.454 237.337 314.172 239.828 313.918 242.322C313.794 243.546 313.692 244.77 313.554 245.991C313.293 248.284 313.011 250.577 312.743 252.87C312.616 253.943 312.503 255.019 312.383 256.091C312.037 256.095 311.688 256.144 311.353 256.095C309.603 255.837 307.839 255.699 306.086 255.491C304.417 255.294 302.738 255.378 301.084 255.188C298.671 254.906 296.265 255.093 293.855 254.99C292.204 254.92 290.641 255.326 289.079 255.774C287.135 256.331 285.293 257.16 283.409 257.88C280.88 258.843 278.368 259.848 275.916 261.002C275.609 261.146 275.26 261.203 274.932 261.302C274.301 259.538 274.025 257.686 273.563 255.876C272.858 253.114 272.209 250.341 271.542 247.571C271.45 247.187 271.366 246.813 271.161 246.464C270.681 245.642 270.445 244.717 270.357 243.797C270.138 241.532 269.545 239.352 269.016 237.157C267.82 232.194 266.582 227.237 265.368 222.277C264.832 220.086 264.31 217.892 263.781 215.701C263.89 215.447 264.112 215.377 264.363 215.313C267.118 214.58 269.873 213.849 272.625 213.098C275.518 212.308 278.407 211.503 281.296 210.703C284.849 209.718 288.398 208.709 291.957 207.76C294.091 207.192 296.233 206.607 298.406 206.233C299.803 205.993 301.225 205.855 302.615 205.548C303.094 205.443 303.581 205.369 304.054 205.235C304.869 205.002 305.694 204.899 306.534 204.949C307.681 205.016 308.767 204.628 309.892 204.522C310.136 204.497 310.376 204.37 310.612 204.377C312.782 204.462 314.916 203.883 317.089 204.053C317.114 204.18 317.142 204.307 317.167 204.437H317.163Z" fill="#F6BB93"/>
<path d="M432.942 278.03C432.441 278.361 431.88 278.531 431.305 278.672C427.534 279.61 423.762 280.563 419.988 281.487C418.143 281.939 418.132 281.928 416.576 280.859C414.668 279.547 412.897 278.051 411.115 276.569C410.053 275.687 408.988 274.809 407.958 273.895C407.397 273.398 406.903 273.363 406.247 273.754C403.626 275.32 400.902 276.71 398.172 278.076C397.907 278.206 397.643 278.34 397.378 278.471C396.75 278.781 396.2 278.76 395.604 278.291C394.993 277.804 394.277 277.448 393.607 277.039C391.758 275.91 389.91 274.777 388.054 273.655C387.807 273.504 387.525 273.408 387.26 273.288C387.084 272.953 386.781 272.886 386.438 272.904C385.634 272.001 384.54 271.51 383.549 270.879C382.508 270.219 381.447 269.598 380.413 268.932C380.088 268.724 379.704 268.572 379.492 268.212C379.651 267.669 380.113 267.341 380.434 266.91C383.306 263.079 385.345 258.86 386.234 254.14C386.671 251.818 386.858 249.465 386.417 247.109C386.371 246.872 386.4 246.618 386.396 246.375C389.102 248.34 391.808 250.305 394.51 252.273C395.625 253.085 396.736 253.893 397.844 254.711C398.154 254.94 398.461 254.997 398.796 254.785C400.38 253.79 402.01 252.859 403.534 251.783C405.481 250.411 407.573 249.342 409.746 248.4C410.65 248.008 411.542 247.613 412.498 247.345C413.362 247.105 414.227 247.014 415.112 246.946C416.94 246.809 418.224 247.652 419.233 249.063C419.952 250.072 420.464 251.197 420.944 252.33C421.208 252.958 421.536 253.575 421.635 254.274C421.699 254.736 422.034 254.933 422.475 254.937C423.911 254.958 425.297 255.297 426.701 255.537C427.629 255.692 428.341 256.186 428.955 256.838C429.488 257.406 429.749 258.13 429.502 258.888C429.135 260.024 428.998 261.192 428.846 262.359C428.634 264.028 428.091 265.616 427.703 267.238C427.622 267.573 427.541 267.905 427.491 268.244C427.41 268.805 427.579 269.27 427.915 269.754C429.403 271.895 430.839 274.075 432.303 276.234C432.67 276.777 432.889 277.367 432.938 278.019L432.942 278.03Z" fill="#F6BB92"/>
<path d="M101.915 326.361C101.827 326.827 101.99 327.24 102.212 327.631C102.621 328.361 103.027 329.095 103.471 329.804C105.994 333.808 108.537 337.795 111.282 341.651C111.603 342.102 111.924 342.525 112.495 342.667C111.804 344.762 111.19 346.889 110.407 348.95C109.588 351.098 108.248 352.879 106.375 354.294C105.493 354.961 104.477 355.303 103.559 355.86C103.274 356.033 102.91 356.104 102.575 356.157C101.799 356.284 101.019 356.446 100.24 356.46C97.8761 356.503 95.5337 356.933 93.163 356.809C92.6727 356.785 92.1858 356.827 91.699 356.947C91.2757 357.049 90.8206 357.06 90.3796 357.063C88.8027 357.081 87.2222 357.067 85.6418 357.088C84.4635 357.106 83.2782 357.021 82.1105 357.321C81.7365 357.416 81.3238 357.353 80.9322 357.37C79.8527 357.413 78.7732 357.519 77.7007 357.586C75.3018 357.73 72.8677 357.935 70.4864 357.377C68.9236 357.011 67.5584 356.252 66.5106 354.993C65.7133 354.037 65.2512 352.894 64.7397 351.782C64.6797 351.648 64.6127 351.504 64.6127 351.363C64.6056 350.1 64.3375 348.868 64.6938 347.57C65.0713 346.201 65.6075 344.998 66.5882 343.989C67.5196 343.03 68.5567 342.264 69.7914 341.679C70.8004 341.199 71.8658 340.814 72.8253 340.197C73.5979 339.7 74.5222 339.439 75.3301 338.984C76.9952 338.049 78.8261 337.46 80.4701 336.468C81.2603 335.992 82.1563 335.692 82.9818 335.255C84.1072 334.662 85.2608 334.129 86.3826 333.53C87.2399 333.071 88.1571 332.704 89.0285 332.256C89.9845 331.762 90.9582 331.297 91.9212 330.817C92.14 330.707 92.341 330.556 92.5704 330.482C93.8368 330.065 94.9587 329.36 96.1405 328.771C96.973 328.354 97.8409 328.019 98.6628 327.568C99.1285 327.31 99.6295 327.102 100.102 326.841C100.653 326.538 101.245 326.241 101.923 326.365L101.915 326.361Z" fill="#F7BC94"/>
<path d="M343.47 260.932C344.239 261.066 345.011 261.203 345.78 261.337C345.696 262.646 346.013 263.86 346.669 264.989C347.297 266.065 347.594 267.257 347.834 268.449C348.112 269.829 348.271 271.236 348.465 272.633C348.574 273.416 348.606 273.459 349.615 273.607C349.626 274.397 349.636 275.184 349.647 275.974C349.657 276.662 349.612 277.346 349.862 278.02C349.978 278.331 349.929 278.701 349.94 279.047C349.975 280.176 349.859 281.308 350.197 282.423C350.321 282.832 350.236 283.305 350.236 283.749C350.236 290.459 350.236 297.169 350.24 303.882C350.24 304.521 350.211 305.152 350.427 305.784C350.55 306.144 350.522 306.56 350.525 306.955C350.539 307.894 350.529 308.828 350.532 309.767C350.532 310.063 350.472 310.381 350.557 310.652C350.987 312.056 350.804 313.492 350.822 314.914C350.85 317.528 350.822 320.146 350.836 322.76C350.839 323.691 350.762 324.626 351.069 325.543C351.188 325.899 351.121 326.326 351.121 326.718C351.125 328.986 351.121 331.258 351.132 333.526C351.136 334.408 351.09 335.287 351.354 336.165C351.488 336.613 351.474 337.174 351.333 337.622C351.121 338.307 351.136 338.984 351.132 339.668C351.125 341.542 351.125 343.418 351.121 345.292C351.121 345.588 351.132 345.884 351.107 346.181C351.054 346.823 350.748 347.292 350.127 347.532C346.595 348.897 343.177 350.534 339.614 351.829C337.028 352.77 334.491 353.846 331.937 354.877C331.204 355.173 330.572 355.621 329.979 356.171C328.875 357.198 328 358.362 327.447 359.759C327.122 360.581 326.787 361.417 326.886 362.324C326.949 362.906 327.094 363.481 327.231 364.052C327.485 365.1 327.785 366.141 328.018 367.196C328.113 367.622 328.3 367.912 328.688 368.095C329.045 368.265 329.39 368.459 329.74 368.638C329.927 368.734 330.036 368.885 330.075 369.094C328.455 369.224 326.836 369.397 325.231 369.012C324.85 368.921 324.476 368.794 324.113 368.649C322.987 368.205 322.239 367.488 322.088 366.183C321.968 365.164 321.679 364.158 321.425 363.16C320.917 361.174 321.35 359.357 322.366 357.642C323.051 356.489 323.926 355.494 324.896 354.573C325.189 354.294 325.527 354.104 325.891 353.952C329.796 352.315 333.708 350.696 337.607 349.035C339.374 348.283 341.106 347.447 342.852 346.653C343.389 346.41 343.925 346.159 344.475 345.944C345.008 345.736 345.216 345.362 345.237 344.808C345.378 341.217 345.569 337.626 345.526 334.027C345.505 332.302 345.551 330.574 345.452 328.852C345.237 325.063 345.216 321.271 345.174 317.478C345.16 316.05 345.135 314.617 345.177 313.192C345.241 311.217 345.04 309.255 344.913 307.29C344.465 300.446 344.637 293.595 344.514 286.751C344.461 283.905 344.447 281.04 344.098 278.204C344.087 278.105 344.084 278.006 344.08 277.907C343.964 275.448 343.819 272.99 343.741 270.531C343.699 269.201 343.551 267.878 343.494 266.555C343.417 264.685 343.466 262.812 343.459 260.939L343.47 260.932Z" fill="#DDA882"/>
<path d="M409.147 312.405C409.539 312.44 409.966 312.271 410.304 312.606C410.152 312.747 410.05 312.931 410.1 313.128C410.181 313.46 410.234 313.83 410.424 314.098C411.052 314.98 411.01 315.961 410.879 316.938C410.696 318.342 410.586 319.753 409.951 321.083C409.041 322.988 407.898 324.636 405.979 325.638C405.806 325.729 405.644 325.842 405.471 325.941C403.076 327.32 400.55 327.387 397.943 326.71C396.683 326.382 395.502 325.828 394.542 324.996C393.064 323.711 391.621 322.343 391.282 320.233C391.152 319.418 390.796 318.667 390.75 317.799C390.637 315.608 391.148 313.618 392.277 311.759C392.454 311.466 392.588 311.149 392.75 310.846C393.353 309.727 394.242 308.919 395.396 308.387C395.706 308.242 395.995 308.048 396.288 307.865C396.468 307.752 396.532 307.565 396.563 307.367C397.089 307.469 397.001 307.882 397.008 308.246C396.285 308.426 395.551 308.669 395.092 309.255C394.63 309.844 394.165 310.373 393.537 310.789C393.039 311.121 393.06 311.657 393.586 311.992C394.052 312.288 394.412 312.684 394.824 313.026C395.692 313.742 396.549 314.476 397.604 314.92C398.274 315.206 398.969 315.456 399.594 315.823C400.031 316.081 400.497 316.165 400.945 316.342C401.714 316.645 402.515 316.423 403.273 316.617C405.069 317.079 406.893 316.843 408.696 316.786C409.891 316.751 410.057 316.402 410.043 315.164C410.04 314.708 409.944 314.296 409.747 313.887C409.514 313.403 409.182 312.959 409.133 312.398L409.147 312.405Z" fill="#7D4D28"/>
<path d="M390.164 297.893C390.294 298.03 390.467 298.147 390.552 298.309C391.356 299.822 392.026 301.403 392.961 302.846C393.088 303.04 393.099 303.308 393.162 303.541C392.862 303.421 392.746 303.135 392.591 302.891C391.691 301.48 390.947 299.988 390.259 298.464C390.181 298.295 390.192 298.087 390.16 297.896L390.164 297.893Z" fill="#7D4D28"/>
<path d="M386.434 272.913C386.777 272.895 387.08 272.966 387.256 273.297C386.681 274.296 386.427 275.326 386.858 276.458C386.935 276.656 386.759 276.804 386.547 276.853C386.35 276.673 386.339 276.433 386.339 276.197C386.339 275.103 386.254 274.003 386.431 272.916L386.434 272.913Z" fill="#7D4D28"/>
<path d="M386.336 281.012C386.403 281.082 386.52 281.142 386.534 281.223C386.689 282.137 386.823 283.058 386.442 283.954C386.276 282.977 386.118 282.003 386.336 281.012Z" fill="#7D4D28"/>
<path d="M386.467 277.508C386.795 278.414 386.707 279.328 386.52 280.242C386.502 280.319 386.386 280.379 386.315 280.446C386.206 279.459 386.178 278.474 386.467 277.508Z" fill="#7D4D28"/>
<path d="M387.507 289.898C387.606 290.001 387.772 290.092 387.789 290.205C387.874 290.837 388.1 291.422 388.315 292.015C388.386 292.213 388.371 292.389 388.209 292.541C387.878 291.687 387.419 290.865 387.507 289.898Z" fill="#7D4D28"/>
<path d="M410.949 312.649C411.63 312.275 412.311 312.271 412.988 312.649C412.307 312.815 411.627 312.825 410.949 312.649Z" fill="#7D4D28"/>
<path d="M388.403 293.154C388.901 293.602 388.964 294.199 388.971 294.816C388.587 294.329 388.319 293.8 388.403 293.154Z" fill="#7D4D28"/>
<path d="M393.353 303.809C393.832 303.914 394.051 304.228 394.055 304.705C393.684 304.511 393.391 304.26 393.353 303.809Z" fill="#7D4D28"/>
<path d="M386.946 287.234C387.309 287.474 387.341 287.756 387.062 288.085C386.833 287.827 386.837 287.538 386.946 287.234Z" fill="#7D4D28"/>
<path d="M317.163 204.437C317.138 204.31 317.11 204.183 317.085 204.052C317.279 203.791 317.512 203.724 317.798 203.911C317.66 204.176 317.421 204.313 317.167 204.437H317.163Z" fill="#BED4BB"/>
<path d="M386.643 285.457C386.933 285.619 386.993 285.81 386.707 286.036C386.552 285.856 386.513 285.665 386.643 285.457Z" fill="#7D4D28"/>
<path d="M389.225 295.521C389.62 295.663 389.617 295.973 389.553 296.305C389.285 296.111 389.218 295.828 389.225 295.521Z" fill="#7D4D28"/>
<path d="M414.579 312.442C414.727 312.424 414.879 312.406 415.027 312.389C414.89 312.509 414.741 312.551 414.579 312.442Z" fill="#7D4D28"/>
<path d="M377.245 269.482C377.329 269.38 377.414 269.278 377.499 269.172C377.555 269.391 377.389 269.426 377.245 269.482Z" fill="#8A8AD9"/>
<path d="M418.11 311.562C418.163 311.53 418.223 311.509 418.287 311.502L418.216 311.594L418.114 311.562H418.11Z" fill="#7D4D28"/>
<path d="M417.218 311.866C417.282 311.827 417.352 311.806 417.426 311.803L417.338 311.898L417.218 311.866Z" fill="#7D4D28"/>
<path d="M416.435 312.091L416.459 312.084L416.403 312.13L416.435 312.091Z" fill="#7D4D28"/>
<path d="M346.433 261.199C346.384 260.589 346.433 259.961 346.098 259.403C346.313 259.241 346.437 259.005 346.363 258.758C345.911 257.311 346.158 255.826 346.098 254.359C346.084 254.013 346.098 253.667 346.098 253.325C346.102 252.753 346.345 252.277 346.705 251.854C347.195 251.279 347.77 251.325 348.137 251.96C348.211 252.087 348.289 252.217 348.335 252.358C348.68 253.484 349.093 254.591 349.065 255.798C349.054 256.186 349.079 256.595 349.192 256.962C349.344 257.449 349.344 257.932 349.351 258.423C349.361 259.16 349.453 259.88 349.559 260.613C349.742 261.869 349.809 263.164 349.333 264.402C349.22 264.695 349.037 264.907 348.747 265.03C348.317 264.159 347.88 263.287 347.453 262.412C347.213 261.922 346.952 261.453 346.433 261.199Z" fill="#DEA881"/>
<path d="M346.434 261.199C346.952 261.453 347.213 261.922 347.453 262.413C347.88 263.288 348.317 264.155 348.748 265.03C348.875 265.75 348.938 266.491 349.139 267.189C349.577 268.713 349.707 270.262 349.654 271.835C349.633 272.425 349.63 273.014 349.619 273.603C348.61 273.455 348.578 273.412 348.469 272.629C348.275 271.232 348.113 269.828 347.838 268.445C347.598 267.253 347.301 266.06 346.673 264.985C346.017 263.859 345.7 262.642 345.784 261.333C346.003 261.287 346.218 261.245 346.437 261.199H346.434Z" fill="#CE9B76"/>
<path d="M410.148 312.705C410.025 313.227 410.085 313.019 410.194 313.545C410.399 313.926 410.748 314.416 410.914 315.333C411.037 316.603 411.101 316.903 408.705 316.79C406.899 316.847 405.079 317.083 403.283 316.621C402.525 316.427 401.724 316.649 400.955 316.346C400.507 316.169 400.041 316.081 399.604 315.827C398.979 315.46 398.284 315.206 397.614 314.924C396.559 314.476 395.698 313.746 394.834 313.03C394.421 312.688 394.058 312.292 393.596 311.996C393.07 311.661 392.672 310.469 393.165 310.137C393.793 309.721 393.596 309.685 394.058 309.096C394.517 308.511 395.914 307.77 396.637 307.593C397.353 307.551 398.408 308.355 398.93 308.863C399.551 309.467 400.316 309.823 401.089 310.119C403.703 311.121 407.393 312.204 410.152 312.709L410.148 312.705Z" fill="#5C3717"/>
<path d="M101.915 326.362C102.889 325.872 103.672 325.152 104.448 324.397C106.674 322.242 108.95 320.136 111.197 318.001C112.262 316.989 113.31 315.952 114.372 314.936C116.432 312.964 118.507 311.006 120.563 309.03C122.017 307.633 123.4 306.159 124.906 304.825C126.716 303.227 128.392 301.491 130.152 299.84C132.265 297.858 134.336 295.829 136.431 293.826C138.633 291.719 140.841 289.624 143.039 287.518C144.101 286.502 145.134 285.458 146.196 284.442C147.085 283.595 147.999 282.769 148.902 281.937C150.024 280.907 151.156 279.887 152.275 278.854C153.393 277.82 154.539 276.822 155.732 275.869C156.808 275.008 157.813 274.063 158.879 273.192C160.283 272.038 161.711 270.909 163.137 269.78C164.371 268.803 165.613 267.836 166.862 266.88C167.762 266.192 168.675 265.529 169.585 264.855C170.609 264.097 171.635 263.335 172.658 262.576C173.328 262.079 174.055 261.663 174.725 261.158C176.179 260.068 177.773 259.169 179.199 258.047C180.747 256.83 182.451 255.845 184.014 254.646C184.861 253.997 185.767 253.383 186.678 252.794C187.708 252.131 188.695 251.4 189.676 250.663C190.304 250.19 191.017 249.859 191.634 249.347C192.537 248.603 193.585 248.028 194.552 247.354C195.476 246.708 196.386 246.042 197.286 245.361C197.991 244.825 198.764 244.387 199.501 243.911C200.951 242.98 202.299 241.889 203.784 241.043C204.937 240.383 206.059 239.663 207.167 238.951C208.324 238.206 209.633 237.713 210.691 236.817C210.73 236.785 210.772 236.757 210.818 236.739C212.303 236.178 213.538 235.166 214.96 234.481C216.597 233.691 218.177 232.781 219.779 231.92C219.909 231.849 220.029 231.754 220.167 231.705C221.984 231.063 223.592 229.969 225.384 229.278C226.309 228.921 227.145 228.385 228.044 227.997C229.988 227.157 231.943 226.332 233.908 225.542C237.474 224.109 241.111 222.854 244.748 221.605C247.031 220.822 249.38 220.225 251.681 219.485C253.695 218.835 255.674 218.084 257.681 217.414C259.41 216.839 261.156 216.306 262.899 215.773C263.174 215.689 263.484 215.72 263.777 215.699C264.306 217.89 264.829 220.084 265.365 222.275C266.578 227.235 267.817 232.192 269.013 237.155C269.542 239.349 271.447 247.185 271.538 247.566C272.205 250.335 274.294 259.532 274.929 261.296C274.195 261.91 273.288 262.181 272.434 262.545C270.755 263.257 269.073 263.959 267.365 264.601C265.922 265.141 264.624 265.945 263.276 266.665C263.065 266.778 262.864 266.933 262.687 267.099C260.81 268.909 258.962 270.743 257.071 272.539C255.434 274.091 253.868 275.717 252.164 277.199C251.243 278 250.241 278.709 249.285 279.467C248.393 280.173 247.355 280.642 246.488 281.372C246.191 281.623 245.821 281.789 245.468 281.965C244.851 282.272 244.209 282.526 243.694 283.009C243.521 283.175 243.288 283.313 243.062 283.38C241.168 283.958 239.573 285.211 237.654 285.74C235.756 286.265 233.876 286.869 231.978 287.391C230.412 287.821 228.831 288.273 227.212 288.4C224.905 288.58 222.64 289.102 220.319 289.165C219.779 289.179 219.246 289.299 218.706 289.366C218.17 289.433 217.63 289.543 217.094 289.543C216.152 289.543 215.221 289.631 214.304 289.814C213.235 290.023 212.162 290.139 211.072 290.121C210.973 290.121 210.871 290.114 210.776 290.135C208.515 290.682 206.176 290.598 203.897 290.993C203.653 291.035 203.41 291.106 203.166 291.109C200.746 291.123 198.397 291.815 195.98 291.854C195.391 291.864 194.806 291.977 194.22 292.04C193.634 292.104 193.045 292.224 192.46 292.22C191.514 292.213 190.586 292.319 189.673 292.524C188.801 292.718 187.926 292.813 187.034 292.827C185.82 292.848 185.475 293.116 185.263 294.334C185.168 294.873 184.995 295.381 184.843 295.896C183.474 300.585 181.252 304.829 178.147 308.603C176.546 310.547 174.74 312.293 172.778 313.853C171.871 314.576 170.852 315.211 169.903 315.895C168.527 316.887 166.901 317.37 165.521 318.319C165.126 318.591 164.618 318.703 164.163 318.894C163.482 319.18 162.784 319.434 162.124 319.765C160.978 320.344 159.835 320.919 158.6 321.289C158.413 321.346 158.222 321.42 158.057 321.522C156.078 322.746 153.848 323.441 151.791 324.51C149.523 325.692 147.163 326.701 144.842 327.788C141.363 329.417 137.881 331.051 134.403 332.684C130.836 334.363 127.273 336.05 123.703 337.722C121.025 338.974 118.351 340.226 115.656 341.44C114.626 341.902 113.547 342.258 112.488 342.664C111.917 342.523 111.596 342.096 111.275 341.648C108.53 337.792 105.987 333.802 103.464 329.802C103.02 329.093 102.614 328.359 102.205 327.629C101.986 327.237 101.82 326.824 101.908 326.359L101.915 326.362Z" fill="#6A6D66"/>
<path d="M377.498 269.174C377.498 269.174 377.487 269.188 377.484 269.191C377.484 269.191 377.484 269.194 377.484 269.198L377.498 269.174Z" fill="#F7BB92"/>
<path d="M377.992 240.595C377.195 239.646 376.313 238.789 375.223 238.178C373.201 237.049 371.127 236.019 369.003 235.095C367.864 234.598 366.675 234.287 365.472 234.051C363.93 233.747 362.374 233.493 360.815 233.282C357.573 232.837 354.331 232.911 351.096 233.37C349.953 233.532 348.923 234.03 347.988 234.679C347.223 235.208 346.503 235.818 345.808 236.443C343.956 238.097 342.746 240.171 342.083 242.539C341.539 244.482 341.183 246.469 341.264 248.515C341.317 249.809 341.511 251.076 342.005 252.265C343.063 254.819 344.358 257.246 346.104 259.412C346.32 259.25 346.443 259.013 346.369 258.766C345.917 257.32 346.164 255.835 346.104 254.367C346.09 254.022 346.104 253.676 346.104 253.334C346.108 252.762 346.351 252.286 346.711 251.863C347.201 251.287 347.776 251.333 348.143 251.968C348.217 252.095 348.295 252.226 348.341 252.367C348.687 253.492 349.099 254.6 349.071 255.807C349.061 256.195 349.085 256.604 349.198 256.971C349.35 257.458 349.35 257.941 349.357 258.431C349.368 259.169 349.459 259.888 349.565 260.622C349.749 261.878 349.816 263.173 349.339 264.411C349.226 264.704 349.043 264.915 348.754 265.039C348.881 265.758 348.944 266.499 349.145 267.198C349.583 268.722 349.713 270.27 349.66 271.844C349.639 272.433 349.636 273.022 349.625 273.611C349.636 274.402 349.643 275.188 349.657 275.978C349.667 276.666 349.622 277.351 349.872 278.025V310.568C349.872 310.568 350.472 335.82 351.029 346.633C350.892 347.046 350.602 347.356 350.137 347.536C346.605 348.901 343.187 350.538 339.624 351.833C337.038 352.775 334.501 353.851 331.947 354.881C331.214 355.177 330.582 355.625 329.989 356.176C328.885 357.202 328.01 358.366 327.456 359.763C327.132 360.585 326.797 361.421 326.896 362.328C326.959 362.91 327.1 363.485 327.241 364.057C327.495 365.104 327.795 366.145 328.028 367.2C328.123 367.627 328.31 367.916 328.698 368.1C329.055 368.269 329.4 368.463 329.749 368.643C329.936 368.738 330.046 368.89 330.085 369.098C330.713 369.281 331.358 369.228 331.993 369.232C333.962 369.242 335.927 369.066 337.888 369.027C343.995 368.907 350.101 368.89 356.204 368.671C356.402 368.664 356.599 368.653 356.797 368.671C357.555 368.727 358.24 368.526 358.924 368.195C361.814 366.794 364.551 365.147 367.165 363.288C368.266 362.504 369.105 361.474 369.709 360.264C370.573 358.525 371.021 356.641 371.222 354.743C371.444 352.644 371.356 350.521 371.49 348.404C371.72 344.77 371.48 341.123 371.783 337.478C371.974 335.175 371.899 332.846 371.868 330.532C371.836 328.165 372.16 325.819 372.157 323.452C372.157 320.647 372.196 317.846 372.362 315.038C372.609 310.914 372.39 306.769 372.693 302.638C372.831 300.775 372.757 298.895 372.778 297.022C372.781 296.676 372.746 296.323 372.813 295.988C373.169 294.245 372.997 292.46 373.311 290.707C373.639 288.873 373.706 286.992 374.023 285.154C374.351 283.263 374.605 281.358 374.739 279.457C374.888 277.344 375.247 275.262 375.427 273.156C375.452 272.867 375.526 272.567 375.649 272.31C376.112 271.332 376.538 270.334 377.248 269.498C377.329 269.403 377.406 269.304 377.487 269.209C377.435 268.895 377.6 268.641 377.738 268.387C378.856 266.291 379.59 264.044 380.317 261.793C380.726 260.52 380.864 259.19 381.008 257.874C381.167 256.406 381.41 254.946 381.562 253.482C382.056 248.74 381.142 244.362 377.999 240.612L377.992 240.595Z" fill="#F7BB92"/>
<path d="M435.146 281.904C434.899 280.344 434.257 278.99 432.941 278.03C432.44 278.362 431.88 278.531 431.304 278.672C427.533 279.611 423.762 280.563 419.987 281.487C418.142 281.939 418.132 281.928 416.576 280.859C414.667 279.547 412.897 278.051 411.115 276.57C410.053 275.688 408.988 274.809 407.958 273.896C407.397 273.398 406.903 273.363 406.247 273.755C403.625 275.321 400.902 276.711 398.172 278.076C397.907 278.207 397.642 278.341 397.378 278.471C396.75 278.782 396.2 278.76 395.603 278.291C394.993 277.804 394.277 277.448 393.607 277.039C391.758 275.91 389.909 274.778 388.054 273.656C387.807 273.504 387.525 273.409 387.26 273.289C387.211 273.374 387.168 273.458 387.126 273.543C386.682 273.13 386.438 272.904 386.438 272.904C386.438 272.904 385.253 280.291 387.249 289.467C388.989 297.454 390.326 300.982 394.506 305.339C395.085 306.115 395.751 306.81 396.573 307.36C396.711 307.487 396.856 307.611 396.997 307.734C397.032 307.889 397.226 307.875 397.23 308.048C397.441 308.034 397.438 308.235 397.639 308.26C403.47 312.786 411.528 312.751 411.528 312.751C411.528 312.751 417.927 313.008 420.993 310.355C422.534 309.59 423.995 308.673 425.381 307.642C427.336 306.192 428.842 304.295 430.253 302.326C432.673 298.957 434.303 295.242 435.051 291.161C435.615 288.084 435.637 284.99 435.143 281.9L435.146 281.904Z" fill="#7A4821"/>
</svg>
