<svg width="500" height="500" viewBox="0 0 500 500" fill="none" xmlns="http://www.w3.org/2000/svg">
<path d="M377.485 261.182C377.429 260.864 377.594 260.61 377.735 260.353C378.854 258.257 379.588 256.01 380.314 253.759C380.723 252.486 380.861 251.156 381.006 249.84C381.164 248.372 381.408 246.912 381.56 245.448C382.053 240.706 381.14 236.328 377.996 232.578C377.199 231.629 376.317 230.772 375.227 230.162C373.206 229.033 371.131 228.003 369.008 227.079C367.868 226.581 366.679 226.271 365.473 226.034C363.931 225.731 362.375 225.477 360.816 225.265C357.574 224.821 354.332 224.895 351.097 225.353C349.954 225.516 348.924 226.013 347.989 226.662C347.224 227.191 346.504 227.802 345.809 228.426C343.957 230.081 342.747 232.155 342.084 234.522C341.54 236.466 341.184 238.452 341.265 240.498C341.318 241.793 341.512 243.059 342.006 244.248C343.064 246.802 344.359 249.229 346.105 251.396C346.437 251.953 346.391 252.581 346.44 253.191C346.222 253.237 346.007 253.283 345.788 253.325C345.019 253.191 344.246 253.054 343.477 252.92C341.286 252.323 339.036 252.041 336.799 251.699C336.312 251.625 335.822 251.561 335.346 251.445C332.749 250.821 330.086 250.644 327.457 250.238C323.658 249.653 319.855 249.11 316.052 248.545C314.835 248.365 313.59 248.39 312.387 248.083C312.507 247.011 312.623 245.935 312.747 244.862C313.015 242.569 313.297 240.276 313.558 237.983C313.696 236.762 313.798 235.538 313.921 234.314C314.175 231.82 314.458 229.333 314.683 226.835C314.941 223.995 315.138 221.152 315.385 218.312C315.512 216.844 315.759 215.384 315.844 213.916C315.939 212.198 316.225 210.498 316.165 208.766C316.123 207.538 316.137 206.293 316.306 205.083C316.701 202.208 316.934 199.318 317.167 196.429C317.421 196.306 317.661 196.168 317.798 195.904C318.539 195.607 319.312 195.505 320.106 195.445C322.614 195.258 325.118 195.029 327.62 194.799C330.223 194.559 332.816 194.242 335.423 194.062C338.729 193.833 341.981 193.3 345.227 192.679C346.049 192.524 346.881 192.404 347.707 192.263C350.988 191.698 354.223 192.002 357.338 193.085C360.657 194.238 363.483 196.2 365.702 198.966C366.598 200.08 367.466 201.22 368.281 202.391C368.814 203.157 369.304 203.972 369.674 204.825C370.616 207.002 371.819 209.041 372.902 211.144C373.22 211.757 373.566 212.357 373.83 212.992C374.666 215.003 375.76 216.876 376.861 218.746C377.686 220.15 378.462 221.579 379.164 223.046C380.12 225.05 381.129 227.022 382.283 228.924C382.59 229.428 382.858 229.957 383.101 230.497C383.503 231.4 383.951 232.271 384.459 233.122C385.221 234.402 385.747 235.778 386.089 237.228C386.181 237.613 386.297 237.986 386.403 238.367C386.41 238.611 386.382 238.865 386.424 239.101C386.869 241.458 386.682 243.814 386.241 246.132C385.348 250.852 383.313 255.072 380.441 258.903C380.12 259.33 379.658 259.658 379.499 260.204C378.96 260.413 378.452 260.67 378.011 261.051C377.859 261.182 377.697 261.259 377.495 261.182H377.485Z" fill="#8A8AD9"/>
<path d="M317.163 196.422C316.93 199.311 316.698 202.2 316.302 205.075C316.137 206.289 316.119 207.534 316.161 208.758C316.221 210.49 315.936 212.191 315.84 213.909C315.759 215.376 315.512 216.837 315.382 218.304C315.131 221.144 314.937 223.991 314.68 226.828C314.454 229.322 314.172 231.812 313.918 234.306C313.794 235.531 313.692 236.755 313.554 237.975C313.293 240.268 313.011 242.562 312.743 244.855C312.616 245.927 312.503 247.003 312.383 248.075C312.037 248.079 311.688 248.128 311.353 248.079C309.603 247.821 307.839 247.684 306.086 247.476C304.417 247.278 302.738 247.363 301.084 247.172C298.671 246.89 296.265 247.077 293.855 246.975C292.204 246.904 290.641 247.31 289.079 247.758C287.135 248.315 285.293 249.144 283.409 249.864C280.88 250.827 278.368 251.833 275.916 252.986C275.609 253.131 275.26 253.187 274.932 253.286C274.301 251.522 274.025 249.67 273.563 247.86C272.858 245.098 272.209 242.325 271.542 239.556C271.45 239.171 271.366 238.797 271.161 238.448C270.681 237.626 270.445 236.702 270.357 235.781C270.138 233.516 269.545 231.336 269.016 229.142C267.82 224.178 266.582 219.222 265.368 214.262C264.832 212.071 264.31 209.877 263.781 207.686C263.89 207.432 264.112 207.361 264.363 207.298C267.118 206.564 269.873 205.834 272.625 205.082C275.518 204.292 278.407 203.488 281.296 202.687C284.849 201.703 288.398 200.694 291.957 199.745C294.091 199.177 296.233 198.591 298.406 198.217C299.803 197.977 301.225 197.84 302.615 197.533C303.094 197.427 303.581 197.353 304.054 197.219C304.869 196.986 305.694 196.884 306.534 196.933C307.681 197 308.767 196.612 309.892 196.506C310.136 196.482 310.376 196.355 310.612 196.362C312.782 196.446 314.916 195.868 317.089 196.037C317.114 196.164 317.142 196.291 317.167 196.422H317.163Z" fill="#F6BB93"/>
<path d="M432.942 270.015C432.441 270.347 431.88 270.516 431.305 270.657C427.534 271.596 423.762 272.548 419.988 273.472C418.143 273.924 418.132 273.913 416.576 272.844C414.668 271.532 412.897 270.036 411.115 268.555C410.053 267.673 408.988 266.794 407.958 265.881C407.397 265.383 406.903 265.348 406.247 265.74C403.626 267.306 400.902 268.696 398.172 270.061C397.907 270.192 397.643 270.326 397.378 270.456C396.75 270.767 396.2 270.745 395.604 270.276C394.993 269.789 394.277 269.433 393.607 269.024C391.758 267.895 389.91 266.763 388.054 265.641C387.807 265.489 387.525 265.394 387.26 265.274C387.084 264.939 386.781 264.872 386.438 264.889C385.634 263.986 384.54 263.496 383.549 262.864C382.508 262.205 381.447 261.584 380.413 260.917C380.088 260.709 379.704 260.557 379.492 260.197C379.651 259.654 380.113 259.326 380.434 258.896C383.306 255.064 385.345 250.845 386.234 246.125C386.671 243.804 386.858 241.451 386.417 239.094C386.371 238.858 386.4 238.604 386.396 238.36C389.102 240.325 391.808 242.29 394.51 244.259C395.625 245.07 396.736 245.878 397.844 246.697C398.154 246.926 398.461 246.982 398.796 246.771C400.38 245.776 402.01 244.844 403.534 243.768C405.481 242.396 407.573 241.327 409.746 240.385C410.65 239.994 411.542 239.599 412.498 239.33C413.362 239.091 414.227 238.999 415.112 238.932C416.94 238.794 418.224 239.637 419.233 241.049C419.952 242.057 420.464 243.183 420.944 244.315C421.208 244.943 421.536 245.561 421.635 246.259C421.699 246.721 422.034 246.919 422.475 246.922C423.911 246.943 425.297 247.282 426.701 247.522C427.629 247.677 428.341 248.171 428.955 248.824C429.488 249.392 429.749 250.115 429.502 250.873C429.135 252.009 428.998 253.177 428.846 254.345C428.634 256.013 428.091 257.601 427.703 259.224C427.622 259.559 427.541 259.89 427.491 260.229C427.41 260.79 427.579 261.256 427.915 261.739C429.403 263.88 430.839 266.061 432.303 268.22C432.67 268.763 432.889 269.352 432.938 270.005L432.942 270.015Z" fill="#F6BB92"/>
<path d="M101.915 318.346C101.827 318.811 101.99 319.224 102.212 319.616C102.621 320.346 103.027 321.08 103.471 321.789C105.994 325.793 108.537 329.779 111.282 333.635C111.603 334.086 111.924 334.51 112.495 334.651C111.804 336.746 111.19 338.874 110.407 340.934C109.588 343.082 108.248 344.864 106.375 346.279C105.493 346.945 104.477 347.287 103.559 347.845C103.274 348.018 102.91 348.088 102.575 348.141C101.799 348.268 101.019 348.43 100.24 348.445C97.8761 348.487 95.5337 348.917 93.163 348.794C92.6727 348.769 92.1858 348.811 91.699 348.931C91.2757 349.034 90.8206 349.044 90.3796 349.048C88.8027 349.065 87.2222 349.051 85.6418 349.073C84.4635 349.09 83.2782 349.005 82.1105 349.305C81.7365 349.401 81.3238 349.337 80.9322 349.355C79.8527 349.397 78.7732 349.503 77.7007 349.57C75.3018 349.715 72.8677 349.919 70.4864 349.362C68.9236 348.995 67.5584 348.236 66.5106 346.977C65.7133 346.021 65.2512 344.878 64.7397 343.767C64.6797 343.633 64.6127 343.488 64.6127 343.347C64.6056 342.084 64.3375 340.853 64.6938 339.555C65.0713 338.186 65.6075 336.983 66.5882 335.974C67.5196 335.014 68.5567 334.249 69.7914 333.663C70.8004 333.183 71.8658 332.799 72.8253 332.181C73.5979 331.684 74.5222 331.423 75.3301 330.968C76.9952 330.033 78.8261 329.444 80.4701 328.453C81.2603 327.976 82.1563 327.676 82.9818 327.239C84.1072 326.646 85.2608 326.114 86.3826 325.514C87.2399 325.055 88.1571 324.688 89.0285 324.24C89.9845 323.747 90.9582 323.281 91.9212 322.801C92.14 322.692 92.3411 322.54 92.5704 322.466C93.8368 322.05 94.9587 321.344 96.1405 320.755C96.973 320.339 97.8409 320.004 98.6628 319.552C99.1285 319.294 99.6295 319.086 100.102 318.825C100.653 318.522 101.245 318.226 101.923 318.349L101.915 318.346Z" fill="#F7BC94"/>
<path d="M343.47 252.916C344.239 253.05 345.011 253.188 345.78 253.322C345.696 254.631 346.013 255.844 346.669 256.973C347.297 258.049 347.594 259.241 347.834 260.434C348.112 261.813 348.271 263.221 348.465 264.618C348.574 265.401 348.606 265.443 349.615 265.591C349.626 266.382 349.636 267.168 349.647 267.958C349.657 268.646 349.612 269.331 349.862 270.005C349.978 270.315 349.929 270.685 349.94 271.031C349.975 272.16 349.859 273.292 350.197 274.407C350.321 274.816 350.236 275.289 350.236 275.734C350.236 282.444 350.236 289.153 350.24 295.867C350.24 296.505 350.211 297.137 350.427 297.768C350.55 298.128 350.522 298.544 350.525 298.94C350.539 299.878 350.529 300.813 350.532 301.751C350.532 302.047 350.472 302.365 350.557 302.637C350.987 304.041 350.804 305.476 350.822 306.898C350.85 309.512 350.822 312.13 350.836 314.744C350.839 315.675 350.762 316.61 351.069 317.527C351.188 317.884 351.121 318.311 351.121 318.702C351.125 320.971 351.121 323.242 351.132 325.511C351.136 326.393 351.09 327.271 351.354 328.15C351.488 328.598 351.474 329.159 351.333 329.607C351.121 330.291 351.136 330.968 351.132 331.653C351.125 333.526 351.125 335.403 351.121 337.276C351.121 337.572 351.132 337.869 351.107 338.165C351.054 338.807 350.748 339.276 350.127 339.516C346.595 340.881 343.177 342.518 339.614 343.813C337.028 344.755 334.491 345.831 331.937 346.861C331.204 347.157 330.572 347.605 329.979 348.156C328.875 349.182 328 350.346 327.447 351.743C327.122 352.565 326.787 353.401 326.886 354.308C326.949 354.89 327.094 355.465 327.231 356.037C327.485 357.084 327.785 358.125 328.018 359.18C328.113 359.607 328.3 359.896 328.688 360.08C329.045 360.249 329.39 360.443 329.74 360.623C329.927 360.718 330.036 360.87 330.075 361.078C328.455 361.208 326.836 361.381 325.231 360.997C324.85 360.905 324.476 360.778 324.113 360.633C322.987 360.189 322.239 359.473 322.088 358.167C321.968 357.148 321.679 356.143 321.425 355.144C320.917 353.158 321.35 351.341 322.366 349.627C323.051 348.473 323.926 347.478 324.896 346.558C325.189 346.279 325.527 346.088 325.891 345.937C329.796 344.3 333.708 342.681 337.607 341.019C339.374 340.267 341.106 339.431 342.852 338.638C343.389 338.394 343.925 338.144 344.475 337.929C345.008 337.72 345.216 337.346 345.237 336.793C345.378 333.201 345.569 329.61 345.526 326.012C345.505 324.287 345.551 322.558 345.452 320.836C345.237 317.048 345.216 313.255 345.174 309.463C345.16 308.034 345.135 306.602 345.177 305.177C345.241 303.201 345.04 301.24 344.913 299.275C344.465 292.431 344.637 285.58 344.514 278.736C344.461 275.889 344.447 273.024 344.098 270.188C344.087 270.089 344.084 269.99 344.08 269.892C343.964 267.433 343.819 264.974 343.741 262.515C343.699 261.185 343.551 259.862 343.494 258.539C343.417 256.67 343.466 254.796 343.459 252.923L343.47 252.916Z" fill="#DDA882"/>
<path d="M409.147 304.39C409.539 304.426 409.966 304.256 410.304 304.591C410.152 304.732 410.05 304.916 410.1 305.113C410.181 305.445 410.234 305.815 410.424 306.084C411.052 306.966 411.01 307.946 410.879 308.923C410.696 310.327 410.586 311.739 409.951 313.069C409.041 314.974 407.898 316.621 405.979 317.623C405.806 317.715 405.644 317.828 405.471 317.926C403.076 319.306 400.55 319.373 397.943 318.695C396.683 318.367 395.502 317.813 394.542 316.981C393.064 315.697 391.621 314.328 391.282 312.218C391.152 311.403 390.796 310.652 390.75 309.784C390.637 307.593 391.148 305.604 392.277 303.745C392.454 303.452 392.588 303.134 392.75 302.831C393.353 301.713 394.242 300.905 395.396 300.372C395.706 300.227 395.995 300.033 396.288 299.85C396.468 299.737 396.532 299.55 396.563 299.353C397.089 299.455 397.001 299.868 397.008 300.231C396.285 300.411 395.551 300.654 395.092 301.24C394.63 301.829 394.165 302.358 393.537 302.774C393.039 303.106 393.06 303.642 393.586 303.977C394.052 304.274 394.412 304.669 394.824 305.011C395.692 305.727 396.549 306.461 397.604 306.906C398.274 307.191 398.969 307.442 399.594 307.809C400.031 308.066 400.497 308.151 400.945 308.327C401.714 308.631 402.515 308.408 403.273 308.602C405.069 309.065 406.893 308.828 408.696 308.772C409.891 308.736 410.057 308.387 410.043 307.149C410.04 306.694 409.944 306.281 409.747 305.872C409.514 305.389 409.182 304.944 409.133 304.383L409.147 304.39Z" fill="#7D4D28"/>
<path d="M390.164 289.877C390.294 290.015 390.467 290.131 390.552 290.293C391.356 291.807 392.026 293.387 392.961 294.83C393.088 295.024 393.099 295.292 393.162 295.525C392.862 295.405 392.746 295.119 392.591 294.876C391.691 293.465 390.947 291.972 390.259 290.448C390.181 290.279 390.192 290.071 390.16 289.88L390.164 289.877Z" fill="#7D4D28"/>
<path d="M386.435 264.896C386.777 264.878 387.08 264.949 387.257 265.281C386.682 266.279 386.428 267.309 386.858 268.441C386.936 268.639 386.759 268.787 386.548 268.837C386.35 268.657 386.34 268.417 386.34 268.18C386.34 267.087 386.255 265.986 386.431 264.9L386.435 264.896Z" fill="#7D4D28"/>
<path d="M386.336 272.996C386.403 273.067 386.52 273.127 386.534 273.208C386.689 274.121 386.823 275.042 386.442 275.938C386.276 274.961 386.118 273.987 386.336 272.996Z" fill="#7D4D28"/>
<path d="M386.466 269.493C386.794 270.4 386.706 271.314 386.519 272.227C386.502 272.305 386.385 272.365 386.315 272.432C386.205 271.444 386.177 270.46 386.466 269.493Z" fill="#7D4D28"/>
<path d="M387.507 281.883C387.606 281.985 387.772 282.077 387.789 282.19C387.874 282.821 388.1 283.407 388.315 283.999C388.386 284.197 388.371 284.373 388.209 284.525C387.878 283.671 387.419 282.849 387.507 281.883Z" fill="#7D4D28"/>
<path d="M410.949 304.633C411.63 304.259 412.311 304.256 412.988 304.633C412.307 304.799 411.627 304.81 410.949 304.633Z" fill="#7D4D28"/>
<path d="M388.403 285.139C388.901 285.587 388.964 286.183 388.971 286.8C388.587 286.313 388.319 285.784 388.403 285.139Z" fill="#7D4D28"/>
<path d="M393.353 295.793C393.832 295.899 394.051 296.213 394.055 296.689C393.684 296.495 393.391 296.245 393.353 295.793Z" fill="#7D4D28"/>
<path d="M386.946 279.219C387.31 279.459 387.342 279.741 387.063 280.069C386.834 279.811 386.837 279.522 386.946 279.219Z" fill="#7D4D28"/>
<path d="M317.163 196.422C317.138 196.295 317.11 196.168 317.085 196.038C317.279 195.777 317.512 195.709 317.798 195.896C317.66 196.161 317.421 196.299 317.167 196.422H317.163Z" fill="#BED4BB"/>
<path d="M386.643 277.441C386.933 277.604 386.993 277.794 386.707 278.02C386.552 277.84 386.513 277.65 386.643 277.441Z" fill="#7D4D28"/>
<path d="M389.225 287.506C389.62 287.647 389.617 287.957 389.553 288.289C389.285 288.095 389.218 287.813 389.225 287.506Z" fill="#7D4D28"/>
<path d="M414.579 304.425C414.727 304.407 414.879 304.39 415.027 304.372C414.89 304.492 414.741 304.534 414.579 304.425Z" fill="#7D4D28"/>
<path d="M377.244 261.468C377.329 261.365 377.413 261.263 377.498 261.157C377.555 261.376 377.389 261.411 377.244 261.468Z" fill="#8A8AD9"/>
<path d="M418.11 303.547C418.163 303.516 418.223 303.494 418.287 303.487L418.216 303.579L418.114 303.547H418.11Z" fill="#7D4D28"/>
<path d="M417.218 303.85C417.281 303.811 417.352 303.79 417.426 303.786L417.338 303.881L417.218 303.85Z" fill="#7D4D28"/>
<path d="M416.435 304.076L416.46 304.069L416.403 304.115L416.435 304.076Z" fill="#7D4D28"/>
<path d="M346.433 253.184C346.384 252.574 346.433 251.946 346.098 251.389C346.313 251.226 346.437 250.99 346.363 250.743C345.911 249.297 346.158 247.811 346.098 246.344C346.084 245.998 346.098 245.652 346.098 245.31C346.102 244.739 346.345 244.262 346.705 243.839C347.195 243.264 347.77 243.31 348.137 243.945C348.211 244.072 348.289 244.203 348.335 244.344C348.68 245.469 349.093 246.577 349.065 247.783C349.054 248.171 349.079 248.58 349.192 248.947C349.344 249.434 349.344 249.918 349.351 250.408C349.361 251.145 349.453 251.865 349.559 252.599C349.742 253.855 349.809 255.149 349.333 256.387C349.22 256.68 349.037 256.892 348.747 257.015C348.317 256.144 347.88 255.273 347.453 254.398C347.213 253.907 346.952 253.438 346.433 253.184Z" fill="#DEA881"/>
<path d="M346.434 253.185C346.952 253.439 347.213 253.908 347.453 254.398C347.88 255.273 348.317 256.141 348.748 257.016C348.875 257.735 348.938 258.476 349.139 259.175C349.577 260.699 349.707 262.247 349.654 263.821C349.633 264.41 349.63 264.999 349.619 265.588C348.61 265.44 348.578 265.398 348.469 264.615C348.275 263.218 348.113 261.814 347.838 260.431C347.598 259.238 347.301 258.046 346.673 256.97C346.017 255.845 345.7 254.627 345.784 253.319C346.003 253.273 346.218 253.23 346.437 253.185H346.434Z" fill="#CE9B76"/>
<path d="M410.148 304.69C410.025 305.212 410.085 305.004 410.194 305.529C410.399 305.91 410.748 306.401 410.914 307.318C411.037 308.588 411.101 308.888 408.705 308.775C406.899 308.831 405.079 309.068 403.283 308.605C402.525 308.411 401.724 308.634 400.955 308.33C400.507 308.154 400.041 308.066 399.604 307.812C398.979 307.445 398.284 307.191 397.614 306.909C396.559 306.46 395.698 305.73 394.834 305.014C394.421 304.672 394.058 304.277 393.596 303.98C393.07 303.645 392.672 302.453 393.165 302.121C393.793 301.705 393.596 301.67 394.058 301.081C394.517 300.495 395.914 299.754 396.637 299.578C397.353 299.535 398.408 300.34 398.93 300.848C399.551 301.451 400.316 301.807 401.089 302.104C403.703 303.106 407.393 304.189 410.152 304.693L410.148 304.69Z" fill="#5C3717"/>
<path d="M101.915 318.346C102.889 317.855 103.672 317.136 104.448 316.381C106.674 314.225 108.95 312.119 111.197 309.985C112.262 308.972 113.31 307.935 114.372 306.919C116.432 304.947 118.507 302.989 120.563 301.014C122.017 299.617 123.4 298.142 124.906 296.809C126.716 295.21 128.392 293.475 130.152 291.824C132.265 289.841 134.336 287.813 136.431 285.809C138.633 283.703 140.841 281.607 143.039 279.501C144.101 278.485 145.134 277.441 146.196 276.425C147.085 275.578 147.999 274.753 148.902 273.92C150.024 272.89 151.156 271.871 152.275 270.837C153.393 269.803 154.539 268.805 155.732 267.853C156.808 266.992 157.813 266.046 158.879 265.175C160.283 264.021 161.711 262.892 163.137 261.764C164.371 260.786 165.613 259.82 166.862 258.864C167.762 258.176 168.675 257.513 169.585 256.839C170.609 256.08 171.635 255.318 172.658 254.56C173.328 254.062 174.055 253.646 174.725 253.142C176.179 252.052 177.773 251.152 179.199 250.03C180.747 248.813 182.451 247.829 184.014 246.629C184.861 245.98 185.767 245.366 186.678 244.777C187.708 244.114 188.695 243.384 189.676 242.646C190.304 242.174 191.017 241.842 191.634 241.331C192.537 240.586 193.585 240.011 194.552 239.337C195.476 238.692 196.386 238.025 197.286 237.344C197.991 236.808 198.764 236.371 199.501 235.894C200.951 234.963 202.299 233.873 203.784 233.026C204.937 232.367 206.059 231.647 207.167 230.934C208.324 230.19 209.633 229.696 210.691 228.8C210.73 228.768 210.772 228.74 210.818 228.722C212.303 228.161 213.538 227.149 214.96 226.465C216.597 225.674 218.177 224.764 219.779 223.903C219.909 223.833 220.029 223.738 220.167 223.688C221.984 223.046 223.592 221.953 225.384 221.261C226.309 220.905 227.145 220.369 228.044 219.98C229.988 219.141 231.943 218.315 233.908 217.525C237.474 216.093 241.111 214.837 244.748 213.588C247.031 212.805 249.38 212.209 251.681 211.468C253.695 210.819 255.674 210.067 257.681 209.397C259.41 208.822 261.156 208.289 262.899 207.757C263.174 207.672 263.484 207.704 263.777 207.683C264.306 209.873 264.829 212.068 265.365 214.258C266.578 219.218 267.817 224.175 269.013 229.139C269.542 231.333 271.447 239.168 271.538 239.549C272.205 242.318 274.294 251.515 274.929 253.279C274.195 253.893 273.288 254.165 272.434 254.528C270.755 255.241 269.073 255.943 267.365 256.585C265.922 257.125 264.624 257.929 263.276 258.649C263.065 258.761 262.864 258.917 262.687 259.082C260.81 260.892 258.962 262.727 257.071 264.522C255.434 266.075 253.868 267.701 252.164 269.182C251.243 269.983 250.241 270.692 249.285 271.451C248.393 272.156 247.355 272.626 246.488 273.356C246.191 273.606 245.821 273.772 245.468 273.949C244.851 274.255 244.209 274.509 243.694 274.993C243.521 275.159 243.288 275.296 243.062 275.363C241.168 275.942 239.573 277.194 237.654 277.723C235.756 278.249 233.876 278.852 231.978 279.374C230.412 279.805 228.831 280.256 227.212 280.383C224.905 280.563 222.64 281.085 220.319 281.149C219.779 281.163 219.246 281.283 218.706 281.35C218.17 281.417 217.63 281.526 217.094 281.526C216.152 281.526 215.221 281.614 214.304 281.798C213.235 282.006 212.162 282.122 211.072 282.105C210.973 282.105 210.871 282.098 210.776 282.119C208.515 282.666 206.176 282.581 203.897 282.976C203.653 283.018 203.41 283.089 203.166 283.093C200.746 283.107 198.397 283.798 195.98 283.837C195.391 283.847 194.806 283.96 194.22 284.024C193.634 284.087 193.045 284.207 192.46 284.204C191.514 284.197 190.586 284.303 189.673 284.507C188.801 284.701 187.926 284.796 187.034 284.811C185.82 284.832 185.475 285.1 185.263 286.317C185.168 286.857 184.995 287.365 184.843 287.88C183.474 292.568 181.252 296.812 178.147 300.587C176.546 302.531 174.74 304.277 172.778 305.836C171.871 306.559 170.852 307.194 169.903 307.879C168.527 308.87 166.901 309.353 165.521 310.302C165.126 310.574 164.618 310.687 164.163 310.877C163.482 311.163 162.784 311.417 162.124 311.749C160.978 312.327 159.835 312.902 158.6 313.273C158.413 313.329 158.222 313.403 158.057 313.506C156.078 314.73 153.848 315.425 151.791 316.494C149.523 317.675 147.163 318.684 144.842 319.771C141.363 321.401 137.881 323.034 134.403 324.667C130.836 326.347 127.273 328.033 123.703 329.705C121.025 330.958 118.351 332.21 115.656 333.423C114.626 333.886 113.547 334.242 112.488 334.648C111.917 334.506 111.596 334.08 111.275 333.632C108.53 329.776 105.987 325.786 103.464 321.785C103.02 321.076 102.614 320.342 102.205 319.612C101.986 319.221 101.82 318.808 101.908 318.342L101.915 318.346Z" fill="#6A6D66"/>
<path d="M377.497 261.157C377.497 261.157 377.487 261.171 377.483 261.174C377.483 261.174 377.483 261.178 377.483 261.181L377.497 261.157Z" fill="#F7BB92"/>
<path d="M377.992 232.578C377.195 231.629 376.313 230.772 375.223 230.162C373.201 229.033 371.127 228.003 369.003 227.078C367.864 226.581 366.675 226.27 365.472 226.034C363.93 225.731 362.374 225.477 360.815 225.265C357.573 224.821 354.331 224.895 351.096 225.353C349.953 225.516 348.923 226.013 347.988 226.662C347.223 227.191 346.503 227.802 345.808 228.426C343.956 230.08 342.746 232.155 342.083 234.522C341.539 236.466 341.183 238.452 341.264 240.498C341.317 241.793 341.511 243.059 342.005 244.248C343.063 246.802 344.358 249.229 346.104 251.395C346.32 251.233 346.443 250.997 346.369 250.75C345.917 249.303 346.164 247.818 346.104 246.351C346.09 246.005 346.104 245.659 346.104 245.317C346.108 244.746 346.351 244.269 346.711 243.846C347.201 243.271 347.776 243.317 348.143 243.952C348.217 244.079 348.295 244.209 348.341 244.35C348.687 245.476 349.099 246.583 349.071 247.79C349.061 248.178 349.085 248.587 349.198 248.954C349.35 249.441 349.35 249.924 349.357 250.415C349.367 251.152 349.459 251.872 349.565 252.605C349.749 253.861 349.816 255.156 349.339 256.394C349.226 256.687 349.043 256.899 348.754 257.022C348.881 257.742 348.944 258.483 349.145 259.181C349.583 260.705 349.713 262.254 349.66 263.827C349.639 264.416 349.636 265.006 349.625 265.595C349.636 266.385 349.643 267.172 349.657 267.962C349.667 268.65 349.622 269.334 349.872 270.008V302.552C349.872 302.552 350.472 327.804 351.029 338.616C350.891 339.029 350.602 339.34 350.137 339.519C346.605 340.885 343.187 342.522 339.624 343.816C337.038 344.758 334.501 345.834 331.947 346.864C331.214 347.161 330.582 347.609 329.989 348.159C328.885 349.186 328.01 350.35 327.456 351.747C327.132 352.569 326.797 353.405 326.896 354.311C326.959 354.894 327.1 355.469 327.241 356.04C327.495 357.088 327.795 358.128 328.028 359.183C328.123 359.61 328.31 359.899 328.698 360.083C329.055 360.252 329.4 360.446 329.749 360.626C329.936 360.721 330.046 360.873 330.085 361.081C330.713 361.265 331.358 361.212 331.993 361.215C333.962 361.226 335.927 361.05 337.888 361.011C343.995 360.891 350.101 360.873 356.204 360.654C356.402 360.647 356.599 360.637 356.797 360.654C357.555 360.711 358.24 360.51 358.924 360.178C361.814 358.778 364.551 357.13 367.165 355.271C368.266 354.488 369.105 353.458 369.709 352.248C370.573 350.508 371.021 348.625 371.222 346.727C371.444 344.628 371.356 342.504 371.49 340.387C371.72 336.754 371.48 333.106 371.783 329.462C371.974 327.158 371.899 324.83 371.868 322.516C371.836 320.148 372.16 317.802 372.157 315.435C372.157 312.631 372.196 309.83 372.362 307.021C372.609 302.897 372.39 298.752 372.693 294.621C372.831 292.759 372.757 290.878 372.778 289.005C372.781 288.659 372.746 288.307 372.813 287.971C373.169 286.229 372.997 284.444 373.311 282.69C373.639 280.856 373.706 278.976 374.023 277.138C374.351 275.247 374.605 273.342 374.739 271.44C374.888 269.327 375.247 267.246 375.427 265.14C375.452 264.85 375.526 264.55 375.649 264.293C376.112 263.316 376.538 262.317 377.248 261.481C377.329 261.386 377.406 261.287 377.487 261.192C377.435 260.878 377.6 260.624 377.738 260.37C378.856 258.275 379.59 256.027 380.317 253.777C380.726 252.503 380.864 251.173 381.008 249.857C381.167 248.39 381.41 246.929 381.562 245.465C382.056 240.724 381.142 236.346 377.999 232.596L377.992 232.578Z" fill="#F7BB92"/>
<path d="M435.146 273.889C434.899 272.33 434.257 270.975 432.941 270.016C432.44 270.347 431.88 270.516 431.304 270.658C427.533 271.596 423.762 272.548 419.987 273.473C418.142 273.924 418.132 273.914 416.576 272.845C414.667 271.532 412.897 270.037 411.115 268.555C410.053 267.673 408.988 266.795 407.958 265.881C407.397 265.384 406.903 265.348 406.247 265.74C403.625 267.306 400.902 268.696 398.172 270.061C397.907 270.192 397.642 270.326 397.378 270.457C396.75 270.767 396.2 270.746 395.603 270.277C394.993 269.79 394.277 269.433 393.607 269.024C391.758 267.895 389.909 266.763 388.054 265.641C387.807 265.489 387.525 265.394 387.26 265.274C387.211 265.359 387.168 265.444 387.126 265.528C386.682 265.115 386.438 264.89 386.438 264.89C386.438 264.89 385.253 272.277 387.249 281.453C388.989 289.44 390.326 292.967 394.506 297.324C395.085 298.1 395.751 298.795 396.573 299.346C396.711 299.473 396.856 299.596 396.997 299.719C397.032 299.875 397.226 299.861 397.23 300.033C397.441 300.019 397.438 300.22 397.639 300.245C403.47 304.771 411.528 304.736 411.528 304.736C411.528 304.736 417.927 304.994 420.993 302.341C422.534 301.575 423.995 300.658 425.381 299.628C427.336 298.178 428.842 296.28 430.253 294.311C432.673 290.942 434.303 287.228 435.051 283.146C435.615 280.07 435.637 276.976 435.143 273.886L435.146 273.889Z" fill="#7A4821"/>
</svg>
