<svg width="497" height="497" viewBox="0 0 497 497" fill="none" xmlns="http://www.w3.org/2000/svg">
<path d="M172.3 315C172.5 311.8 155.5 311.1 155.3 308.5C153.7 287.7 154.9 256 154.9 256C153.2 235.3 159.2 206.9 156.4 199.4C153.6 192 138.1 196 139 203.9C139.4 213.2 139 214.9 139.5 224.5C139.8 236.5 140.3 251.6 142.3 258.2C142.6 259.1 147.3 310.7 148.6 313.7C150 317 155.6 316.1 160.5 316.4C164.9 316.8 172.1 318.5 172.3 315Z" fill="#ECAD83"/>
<path d="M221.6 222.4C221.6 222.4 226.8 230.1 232.8 233.3C245.1 240.1 256.7 234.3 256.7 234.3C256.7 234.3 273.3 209.6 267.3 205.6C256 198 246.2 192.9 240.4 189.6C236.5 187.4 220.5 203.7 220.5 203.7L221.6 222.4Z" fill="#3D3C3C"/>
<path d="M152.3 179.4C140.9 183.8 136.8 195.2 130.1 209.1C129.5 210.9 131.4 219 134.1 221.9C137.2 225.1 141.2 227.6 145.7 226.9C149.5 226.7 170.3 222.9 200.6 215.1C203.2 214.4 209.2 216.2 221.6 222.6C221.6 222.6 222.2 211.5 225.9 204.1C229.4 197 240.4 189.9 240.4 189.9C194.6 177.1 180.5 180.6 165.1 182.1C165 181.9 156.1 177.9 152.3 179.4Z" fill="#FF8AA0"/>
<path d="M119.5 205.1L117.6 228.9C124.1 223.6 137.3 224.7 137.3 224.7C129.8 213.5 132.4 207.5 132.5 204C132.6 204 126.7 205.7 119.5 205.1Z" fill="#ECAD83"/>
<path d="M94.8999 222C90.5999 226.7 92.4999 232.1 93.9999 235.2C98.5999 244.8 104.5 246.2 112.2 246.9C122.3 247.8 128.5 221.4 128 216.9C126.7 205 111 199 104.4 198.3C97.1999 197.5 98.7999 200.1 98.6999 203C98.6999 203.1 98.3 203.5 98.3 203.5C98.2 204.5 98.0999 205.9 97.3999 207.1C97.3999 207.1 97.5999 208 97.5999 208.5C97.5999 208.8 97.5999 209 97.1999 209.1C96.0999 209.4 95.0999 209.6 94.5999 210C93.0999 211.3 96.8999 219.8 94.8999 222Z" fill="#F6BB92"/>
<path d="M101.8 206.1C101.8 206.1 101.1 205.6 97.8 205.3C97.4 205.5 96.6 205.8 97.2 206.8C97.6 207.6 99.5 206.2 101.8 206.1Z" fill="#D6876B"/>
<path d="M101.8 206.1C101.8 206.1 101.3 204.4 98.3 203.3C97.9 203.3 97.5 203.6 97.4 203.8C96.9 204.7 97.8 205.2 97.8 205.2C101.2 205.7 101.8 206.1 101.8 206.1Z" fill="#CC785E"/>
<path d="M112.8 248.5C125.2 249.6 143.1 233.2 128.1 210.8C127.1 209.3 124.7 207.4 120.6 210C117.7 211.8 115.6 214.3 115.6 214.3C115 215.1 114.3 215.9 113.6 216.8C112.8 217.8 113.1 224 111.8 224C99.5 224.9 93.8 230.8 93.5 234.1C94.4 242 99.6 247.4 112.8 248.5Z" fill="#602F0F"/>
<path d="M117.4 218C116 212.4 113.8 211.9 110.5 211.9L111.6 220.6L113 224.2C116.2 224.2 118.7 223.7 117.4 218Z" fill="#F6BB92"/>
<path d="M133.7 231.4C136.4 234.1 134.5 240 129.6 244.5C124.6 249 118.5 250.4 115.8 247.7C113.1 245 115.2 240.6 120.2 236.1C125.1 231.6 131.1 228.7 133.7 231.4Z" fill="#4C230C"/>
<path d="M110.7 222.7C110.8 223.7 110.7 224.6 110.6 225.3C110.5 226.3 110.3 227 110.3 227L114 226C114.1 225.5 114.1 224.9 114.1 224.4C114.1 224.4 113.7 224.5 113 224.6H113.1C112.7 223.8 112.2 222.5 111.7 220.6C111.8 220.6 110.5 219.5 110.7 222.7Z" fill="#602F0F"/>
<path d="M135.7 232C138.5 234.9 136.4 241.2 131 246.1C125.6 251 118.9 252.7 116.1 249.8C113.3 246.9 115.6 242.2 121 237.3C126.4 232.4 132.9 229.1 135.7 232Z" fill="#602F0F"/>
<path d="M132.7 242.8C133 243.1 131.9 244.6 130.3 246.1C128.6 247.6 127 248.6 126.7 248.2C126.4 247.9 127.4 246.7 129 245.2C130.7 243.7 132.4 242.4 132.7 242.8Z" fill="#4C230C"/>
<path d="M175.3 313.9C175.3 310.7 158.3 310.9 158 308.4C155.3 287.8 154.7 256 154.7 256C151.9 235.4 156.3 206.7 153.1 199.4C149.9 192.2 134.6 197 136 204.9C137 214.2 136.6 215.9 137.6 225.5C138.6 237.5 139.8 252.5 142.2 259C142.5 259.9 150.1 311.1 151.6 314.1C153.2 317.3 158.7 316.2 163.7 316.2C168.1 316.1 175.3 317.4 175.3 313.9Z" fill="#F6BB92"/>
<path d="M403.3 314.599C400.3 317.399 386.4 314.799 383.3 314.199C381.8 313.899 379.4 314.899 376.4 313.099C372.5 310.699 372.4 306.199 371 305.499C363.7 301.499 344.4 290.899 335.6 285.899C333.6 284.699 331.5 283.499 329.5 282.199C321.1 276.799 336.8 259.999 339.6 262.199C350.9 271.199 376.6 296.599 380.3 300.299C380.3 300.299 387.4 304.399 392.3 306.699C396.2 308.399 406.4 311.799 403.3 314.599Z" fill="#F6BB92"/>
<path d="M307 261.5C316.3 268.4 321.1 276 331 283.2C331.5 279.8 338.7 265.3 340.9 263.1C337.9 261.1 318 242.7 318 242.7C314.3 239.2 261.6 198.8 250.4 196.6C246.3 195.7 242.6 195.2 239.5 195C233.5 194.6 226 226.4 233.2 230.2C250.2 234.9 279 248.6 287 252.4C294.5 255.8 307 261.5 307 261.5Z" fill="#3D3C3C"/>
</svg>
