<svg width="497" height="497" viewBox="0 0 497 497" fill="none" xmlns="http://www.w3.org/2000/svg">
<path d="M272.085 273.414C272.085 273.414 260.861 269.15 251.438 269.008C231.899 268.582 221.368 281.516 221.368 281.516C221.368 281.516 216.933 326.287 227.049 326.287C245.895 326.145 261 326.713 270.145 326.998C276.381 327.14 280.4 296.866 280.4 296.866L272.085 273.414Z" fill="#3D3C3C"/>
<path d="M409.232 347.492C402.854 344.407 388.395 343.285 386.411 340.341C364.581 307.947 361.888 303.6 361.888 303.6C391.797 282.846 406.539 285.791 407.957 269.244C404.696 258.586 388.253 260.55 377.622 269.524C360.187 277.798 332.262 294.906 334.53 304.442C334.813 305.704 374.787 342.865 376.346 347.212C378.047 351.98 381.166 350.577 391.23 350.998C398.459 350.998 414.902 350.297 409.232 347.492Z" fill="#ECAD83"/>
<path d="M370.641 322.166C387.89 320.176 394.535 304.401 411.36 292.179C413.481 290.616 418.146 278.962 417.298 273.419C416.45 267.166 414.612 261.055 408.815 257.076C404.291 254.091 391.142 248.549 359.896 259.492C345.192 263.471 290.335 279.104 272.521 273.419C272.521 273.419 277.186 292.463 276.055 304.117C274.924 315.771 270.4 326.998 270.4 326.998C323.136 323.019 339.395 317.902 356.927 317.902C357.21 317.902 365.834 322.734 370.641 322.166Z" fill="#FF8AA0"/>
<path d="M396.303 361.6C390.255 357.94 375.565 355.688 373.837 352.45C354.684 318.105 348.347 311.067 348.347 311.067C380.462 292.768 405.52 287.701 408.4 271.232C405.952 260.393 389.246 260.956 377.726 268.839C359.292 275.595 323.001 302.34 324.442 312.052C324.586 313.319 361.884 353.858 363.036 358.362C364.333 363.289 367.645 362.163 377.726 363.289C385.07 364.133 401.775 364.837 396.303 361.6Z" fill="#F6BB92"/>
<path d="M418.147 286.671C418.147 286.671 424.177 286.125 434.944 286.125L440.4 263.998C429.633 269.188 415.994 267.686 415.994 267.686C419.727 282.3 412.548 287.354 411.4 291.998L418.147 286.671Z" fill="#ECAD83"/>
<path d="M474.002 279.603C482.702 277.629 484.947 270.018 485.789 265.226C488.315 250.427 482.702 243.943 474.563 237.037C463.758 227.734 435.272 252.964 432.044 258.602C423.765 273.26 436.956 292.993 443.832 299.335C451.409 306.242 451.83 301.872 454.216 298.49C454.356 298.349 455.058 298.208 455.058 298.208C456.04 297.08 457.163 295.671 459.127 294.825C459.127 294.825 459.688 293.556 460.109 293.134C460.39 292.711 460.53 292.57 461.092 292.711C462.635 293.274 463.898 293.838 464.74 293.697C467.406 293.415 469.932 280.448 474.002 279.603Z" fill="#F6BB92"/>
<path d="M453.4 291.998C453.4 291.998 453.757 293.079 456.731 295.917C457.207 296.052 458.277 296.187 458.396 294.836C458.515 293.755 455.779 293.755 453.4 291.998Z" fill="#D6876B"/>
<path d="M452.521 291.998C452.521 291.998 451.715 294.282 454.266 297.775C454.804 298.044 455.475 298.044 455.609 297.91C456.818 297.238 456.281 296.029 456.281 296.029C452.924 293.073 452.521 291.998 452.521 291.998Z" fill="#CC785E"/>
<path d="M474.928 233.616C461.397 222.172 426.562 226.177 425.41 264.8C425.266 267.375 426.562 271.523 433.471 271.952C438.366 272.238 442.972 271.094 442.972 271.094C444.267 270.665 445.851 270.236 447.434 269.806C449.162 269.234 454.056 261.939 455.495 262.797C470.61 271.952 482.269 269.806 485.292 266.23C491.05 256.503 489.467 245.918 474.928 233.616Z" fill="#602F0F"/>
<path d="M444.032 265.498C440.558 272.998 443.085 275.359 447.348 277.998L453.821 267.303L455.4 262.164C451.137 259.525 447.348 257.998 444.032 265.498Z" fill="#F6BB92"/>
<path d="M436.47 236.883C435.624 231.476 442.535 226.355 451.843 225.217C461.152 224.079 469.474 227.493 470.32 232.899C471.166 238.305 465.242 241.577 455.793 242.715C446.625 243.711 437.316 242.146 436.47 236.883Z" fill="#4C230C"/>
<path d="M455.973 265.704C456.682 264.429 457.531 263.437 458.24 262.729C459.231 261.596 460.081 261.03 460.081 261.03L454.982 259.047C454.557 259.613 453.991 260.18 453.566 260.746C453.566 260.746 454.132 261.03 454.982 261.313H454.84C454.557 262.588 454.132 264.57 453.141 267.12C452.999 267.12 453.566 269.528 455.973 265.704Z" fill="#602F0F"/>
<path d="M434.728 234.403C433.878 228.738 441.526 223.214 451.724 222.081C462.063 220.806 471.127 224.489 471.977 230.012C472.827 235.678 466.312 239.218 455.973 240.351C445.775 241.626 435.578 240.068 434.728 234.403Z" fill="#602F0F"/>
<path d="M446.406 224.413C446.258 223.744 448.922 222.741 452.177 222.24C455.433 221.738 458.245 222.072 458.393 222.741C458.541 223.41 456.321 224.079 453.065 224.58C449.662 225.082 446.554 225.249 446.406 224.413Z" fill="#4C230C"/>
<path d="M13.6029 357.364C14.028 351.548 9.77718 331.549 9.49379 329.422C8.92701 324.316 10.9107 318.926 15.87 319.209C19.5541 319.351 23.0964 320.628 25.3636 320.06C36.8408 317.224 71.8393 312.685 85.7254 309.281C88.9843 308.572 92.2433 307.862 95.644 307.153C109.53 304.6 105.988 334.386 100.887 334.812C80.4827 336.514 31.4564 334.386 24.0883 334.102C24.0883 334.102 26.4971 361.477 21.1127 361.619C17.8538 362.044 13.1778 363.179 13.6029 357.364Z" fill="#F6BB92"/>
<path d="M141.006 302.858C124.627 303.285 109.237 304.707 95.3999 307.267C97.8002 311.533 101.189 330.589 100.624 334.998C105.707 334.571 145.101 333.576 145.101 333.576C157.526 333.291 231.089 332.154 253.115 325.612C258.763 324.048 263.705 322.341 267.799 320.492C275.706 317.079 264.128 271.998 252.55 271.998C228.123 277.402 184.918 296.032 173.904 299.161C162.75 302.431 141.006 302.858 141.006 302.858Z" fill="#3D3C3C"/>
</svg>
