<svg width="500" height="500" viewBox="0 0 500 500" fill="none" xmlns="http://www.w3.org/2000/svg">
<path d="M98.4865 275.875C110.164 274.464 121.841 273.053 133.483 271.642C150.346 269.596 167.173 267.62 184.001 265.433C194.126 264.128 204.286 263.81 214.411 263.246C225.101 262.681 235.649 261.023 246.232 259.436C254.064 258.272 261.966 257.778 269.869 257.248C274.561 256.931 279.182 256.437 283.839 255.696C285.18 255.484 286.379 255.026 287.473 254.25C287.578 253.615 287.79 252.944 287.755 252.309C287.332 242.82 287.684 233.294 287.437 223.769C287.367 221.476 286.908 219.183 287.402 216.855C280.17 214.809 273.185 211.951 265.847 210.258C258.333 208.529 250.96 208.776 243.657 211.528C238.612 213.433 233.638 215.514 228.805 218.019C222.102 221.511 214.799 223.558 207.356 224.722C195.255 226.627 183.507 229.837 171.795 233.294C164.916 235.341 158.001 236.611 150.804 237.069C141.032 237.669 131.825 240.703 122.829 244.513C111.046 249.522 99.1921 254.356 87.3739 259.259C86.5272 259.612 85.7158 260 84.8691 260.388C85.0102 261.164 85.6452 261.588 86.1391 262.117C90.3372 266.738 94.4295 271.289 98.4865 275.875Z" fill="#696D66"/>
<path d="M301.443 256.014C305.147 266.139 309.733 275.946 313.861 285.93C316.224 291.574 318.659 297.219 320.811 302.934C322.716 307.979 327.302 311.189 333.017 310.307C338.414 309.46 343.847 308.896 349.28 308.719C349.598 308.719 349.88 308.508 350.197 308.402C350.48 307.873 350.974 307.979 351.432 307.979L351.397 308.014C351.326 307.238 351.961 306.85 352.385 306.391C353.549 305.121 353.831 303.534 353.125 302.158C351.714 299.335 349.739 297.007 346.493 296.09C342.86 295.102 339.296 294.008 335.698 293.021C333.652 292.456 332.064 291.08 331.394 289.211C329.454 283.884 327.796 278.486 326.032 273.124C324.585 268.749 323.844 264.198 322.504 259.788C321.587 256.79 321.728 256.19 324.55 255.132C324.973 254.955 325.361 254.744 325.75 254.532C329.912 253.262 334.11 252.133 338.167 250.687C343.636 248.746 348.998 246.489 354.396 244.407C359.511 242.431 364.556 240.315 368.789 236.681C370.271 235.411 371.364 233.753 371.4 231.954C371.47 225.851 369.354 220.7 361.381 220.594C358.664 220.559 355.948 220.912 353.372 221.688C343.177 224.722 332.982 227.862 322.786 230.966C322.363 231.107 321.869 230.931 321.41 230.895C320.281 231.813 318.976 232.448 317.6 232.871C315.025 233.682 312.45 234.494 309.945 235.446C307.863 236.223 305.923 237.175 304.477 239.115C301.125 243.596 301.09 248.605 301.725 253.791C301.831 254.567 301.866 255.308 301.443 256.014Z" fill="#F4B991"/>
<path d="M428.057 238.339C429.856 238.057 430.279 236.399 430.914 235.164C433.666 229.943 435.607 224.439 435.36 218.407C435.183 213.644 433.031 209.869 429.468 206.8C427.528 207.823 426.222 206.412 424.882 205.459C421.53 203.096 418.038 201.297 413.769 201.649C412.64 201.755 411.758 201.332 410.841 200.697C409.818 199.956 410.03 199.427 411.017 199.039C413.205 198.192 415.533 198.086 417.756 198.263C420.613 198.474 423.294 199.533 425.552 201.332C427.281 202.708 429.715 203.59 429.927 206.341C436.665 204.648 439.311 196.499 435.077 190.149C432.29 185.915 427.951 184.257 423.189 183.481C416.838 182.423 410.559 183.552 404.279 184.434C400.434 184.963 396.624 185.88 392.708 185.809C391.932 185.809 391.262 185.986 390.944 186.832C390.627 187.714 391.191 188.208 391.685 188.702C394.013 190.995 396.906 192.477 399.658 194.17C402.551 195.97 405.514 197.698 409.007 199.78C402.127 201.05 397.083 204.331 393.378 209.587C394.084 211.986 394.648 214.42 395.495 216.784C397.329 221.934 401.14 224.58 406.502 225.039C407.878 225.145 409.254 225.109 410.665 225.109C412.252 225.109 413.628 225.568 414.792 226.662C419.026 230.683 423.506 234.564 428.057 238.339Z" fill="#814311"/>
<path d="M321.481 230.86C321.939 230.895 322.433 231.037 322.857 230.931C333.052 227.861 343.248 224.722 353.443 221.653C356.018 220.876 358.735 220.524 361.451 220.559C369.424 220.665 371.541 225.815 371.47 231.919C371.435 233.718 370.341 235.376 368.86 236.646C364.626 240.279 359.581 242.396 354.466 244.372C349.069 246.453 343.706 248.676 338.238 250.651C334.146 252.098 329.948 253.227 325.82 254.497C325.714 254.849 325.75 255.132 326.102 255.308C327.302 255.026 328.113 255.414 328.995 256.331C335.134 262.54 342.119 263.775 350.092 259.295C357.465 255.132 363.885 249.664 370.306 244.16C373.693 241.267 376.903 238.304 378.561 234.035C378.914 232.906 379.373 231.813 379.549 230.648C380.607 223.769 379.796 217.243 375.88 211.281C371.611 208.564 366.814 208 361.945 207.647C356.618 207.259 351.467 208.282 346.246 209.199C340.037 210.293 333.687 210.61 327.513 211.986C324.127 212.727 320.74 213.574 317.353 214.385C318.553 219.289 319.752 224.157 320.916 229.061C321.093 229.625 321.269 230.225 321.481 230.86Z" fill="#8A8AD9"/>
<path d="M98.4873 275.875C94.395 271.324 90.3028 266.738 86.2105 262.187C85.7166 261.658 85.0816 261.234 84.9405 260.458C82.8943 260.352 80.8482 260.176 78.802 260.529C73.0869 261.517 69.6649 265.15 68.3243 270.583C66.4546 278.274 64.7612 286 63.2443 293.726C61.7273 301.381 66.0665 311.682 72.1697 315.563C77.8495 319.197 85.7166 315.563 85.5049 308.895C85.258 300.817 88.433 294.22 92.3136 287.587C94.6067 283.777 96.7939 279.932 98.4873 275.875Z" fill="#F5BA92"/>
<path d="M375.88 211.245C379.76 217.207 380.572 223.734 379.549 230.613C379.372 231.777 378.879 232.871 378.561 234C382.089 236.046 386.04 237.245 389.533 239.468C391.685 240.844 392.743 242.502 392.778 245.112C392.813 251.709 392.99 251.886 399.657 251.533C401.704 251.427 403.714 251.145 405.761 251.145C407.842 251.145 409.606 251.85 411.193 253.191C414.122 255.696 415.78 255.096 416.52 251.321C416.767 250.016 417.014 248.746 417.332 247.476C418.355 243.066 421.213 240.632 425.552 239.644C426.434 239.433 427.81 239.821 428.092 238.339C423.541 234.564 419.061 230.683 414.792 226.626C413.628 225.533 412.252 225.039 410.664 225.074C409.288 225.074 407.877 225.145 406.501 225.004C401.139 224.51 397.329 221.899 395.495 216.749C394.648 214.385 394.083 211.951 393.378 209.552C388.474 211.81 383.288 211.81 378.032 211.422C377.326 211.351 376.585 211.316 375.88 211.245Z" fill="#F5B992"/>
<path d="M320.917 229.025C319.718 224.122 318.518 219.253 317.354 214.35C313.12 214.773 308.958 215.867 304.689 216.149C301.338 216.36 298.021 216.396 294.67 216.431C294.211 216.431 293.717 216.36 293.294 216.502C291.389 217.313 289.449 217.172 287.473 216.819C286.979 219.112 287.438 221.405 287.508 223.734C287.72 233.224 287.403 242.749 287.826 252.274C287.861 252.909 287.65 253.579 287.544 254.214C291.283 254.391 295.023 254.567 298.692 255.237C299.291 254.038 299.08 252.838 298.939 251.604C298.515 248.005 298.304 244.336 299.785 240.949C301.867 236.116 305.465 232.8 310.686 231.495C314.038 230.578 317.283 228.99 320.917 229.025Z" fill="#F4B992"/>
<path d="M326.102 255.272C325.749 255.096 325.679 254.814 325.82 254.461C325.432 254.673 325.009 254.92 324.621 255.061C321.798 256.119 321.692 256.719 322.574 259.717C323.88 264.127 324.621 268.678 326.102 273.053C327.901 278.415 329.56 283.848 331.465 289.14C332.135 291.009 333.687 292.35 335.769 292.95C339.367 293.973 342.965 295.066 346.564 296.019C349.845 296.901 351.785 299.264 353.196 302.087C353.866 303.463 353.619 305.05 352.455 306.32C351.997 306.779 351.397 307.167 351.467 307.943C353.725 307.061 355.524 305.403 355.524 303.074C355.524 300.464 354.043 298.277 351.75 296.689C347.94 294.043 343.6 292.562 339.261 291.362C335.557 290.339 333.758 288.469 332.946 284.694C330.865 274.852 327.972 265.186 326.102 255.272Z" fill="#D09B77"/>
<path d="M320.916 229.025C317.283 228.99 314.037 230.577 310.615 231.459C305.429 232.764 301.831 236.116 299.714 240.914C298.232 244.301 298.479 247.969 298.867 251.568C299.009 252.838 299.255 254.037 298.62 255.202C299.432 255.907 300.384 256.083 301.407 256.013C301.831 255.307 301.796 254.567 301.69 253.72C301.09 248.569 301.125 243.524 304.441 239.044C305.888 237.104 307.828 236.151 309.91 235.375C312.414 234.423 315.025 233.646 317.565 232.8C318.941 232.341 320.246 231.741 321.375 230.824C321.269 230.224 321.093 229.625 320.916 229.025Z" fill="#CF9974"/>
<path d="M429.927 206.306C429.715 203.555 427.281 202.673 425.552 201.297C423.33 199.498 420.613 198.439 417.756 198.228C415.498 198.051 413.17 198.157 411.018 199.004C410.03 199.392 409.783 199.921 410.841 200.662C411.723 201.297 412.64 201.72 413.769 201.614C418.038 201.261 421.531 203.096 424.882 205.424C426.223 206.377 427.528 207.753 429.468 206.765C429.609 206.659 429.786 206.483 429.927 206.306Z" fill="#633301"/>
<path d="M351.468 307.943C351.009 307.943 350.515 307.837 350.233 308.367C350.692 308.331 351.15 308.367 351.468 307.943Z" fill="#D09B77"/>
</svg>
