<svg width="497" height="497" viewBox="0 0 497 497" fill="none" xmlns="http://www.w3.org/2000/svg">
<path d="M265.1 234.6C265.1 234.6 257 231.6 250.2 231.5C236.1 231.2 228.5 240.3 228.5 240.3C228.5 240.3 225.3 271.8 232.6 271.8C246.2 271.7 257.1 272.1 263.7 272.3C268.2 272.4 271.1 251.1 271.1 251.1L265.1 234.6Z" fill="#3D3C3C"/>
<path d="M361.3 287.2C356.8 285 346.6 284.2 345.2 282.1C329.8 259 327.9 255.9 327.9 255.9C349 241.1 359.4 243.2 360.4 231.4C358.1 223.8 346.5 225.2 339 231.6C326.7 237.5 307 249.7 308.6 256.5C308.8 257.4 337 283.9 338.1 287C339.3 290.4 341.5 289.4 348.6 289.7C353.7 289.7 365.3 289.2 361.3 287.2Z" fill="#ECAD83"/>
<path d="M334.4 268.9C346.6 267.5 351.3 256.4 363.2 247.8C364.7 246.7 368 238.5 367.4 234.6C366.8 230.2 365.5 225.9 361.4 223.1C358.2 221 348.9 217.1 326.8 224.8C316.4 227.6 277.6 238.6 265 234.6C265 234.6 268.3 248 267.5 256.2C266.7 264.4 263.5 272.3 263.5 272.3C300.8 269.5 312.3 265.9 324.7 265.9C324.9 265.9 331 269.3 334.4 268.9Z" fill="#FF8AA0"/>
<path d="M352.1 296.6C347.9 294 337.7 292.4 336.5 290.1C323.2 265.7 318.8 260.7 318.8 260.7C341.1 247.7 358.5 244.1 360.5 232.4C358.8 224.7 347.2 225.1 339.2 230.7C326.4 235.5 301.2 254.5 302.2 261.4C302.3 262.3 328.2 291.1 329 294.3C329.9 297.8 332.2 297 339.2 297.8C344.3 298.4 355.9 298.9 352.1 296.6Z" fill="#F6BB92"/>
<path d="M368 243.9C368 243.9 372.2 243.5 379.7 243.5L383.5 227.3C376 231.1 366.5 230 366.5 230C369.1 240.7 364.1 244.4 363.3 247.8L368 243.9Z" fill="#ECAD83"/>
<path d="M407 238.6C413.2 237.2 414.8 231.8 415.4 228.4C417.2 217.9 413.2 213.3 407.4 208.4C399.7 201.8 379.4 219.7 377.1 223.7C371.2 234.1 380.6 248.1 385.5 252.6C390.9 257.5 391.2 254.4 392.9 252C393 251.9 393.5 251.8 393.5 251.8C394.2 251 395 250 396.4 249.4C396.4 249.4 396.8 248.5 397.1 248.2C397.3 247.9 397.4 247.8 397.8 247.9C398.9 248.3 399.8 248.7 400.4 248.6C402.3 248.4 404.1 239.2 407 238.6Z" fill="#F6BB92"/>
<path d="M392.2 247.5C392.2 247.5 392.5 248.3 395 250.4C395.4 250.5 396.3 250.6 396.4 249.6C396.5 248.8 394.2 248.8 392.2 247.5Z" fill="#D6876B"/>
<path d="M392.2 247.5C392.2 247.5 391.6 249.2 393.5 251.8C393.9 252 394.4 252 394.5 251.9C395.4 251.4 395 250.5 395 250.5C392.5 248.3 392.2 247.5 392.2 247.5Z" fill="#CC785E"/>
<path d="M407.9 206.6C398.5 198.6 374.3 201.4 373.5 228.4C373.4 230.2 374.3 233.1 379.1 233.4C382.5 233.6 385.7 232.8 385.7 232.8C386.6 232.5 387.7 232.2 388.8 231.9C390 231.5 393.4 226.4 394.4 227C404.9 233.4 413 231.9 415.1 229.4C419.1 222.6 418 215.2 407.9 206.6Z" fill="#602F0F"/>
<path d="M386.5 228.8C384.3 234.2 385.9 235.9 388.6 237.8L392.7 230.1L393.7 226.4C391 224.5 388.6 223.4 386.5 228.8Z" fill="#F6BB92"/>
<path d="M380.9 208.4C380.3 204.6 385.2 201 391.8 200.2C398.4 199.4 404.3 201.8 404.9 205.6C405.5 209.4 401.3 211.7 394.6 212.5C388.1 213.2 381.5 212.1 380.9 208.4Z" fill="#4C230C"/>
<path d="M394.6 228.9C395.1 228 395.7 227.3 396.2 226.8C396.9 226 397.5 225.6 397.5 225.6L393.9 224.2C393.6 224.6 393.2 225 392.9 225.4C392.9 225.4 393.3 225.6 393.9 225.8H393.8C393.6 226.7 393.3 228.1 392.6 229.9C392.5 229.9 392.9 231.6 394.6 228.9Z" fill="#602F0F"/>
<path d="M379.6 206.8C379 202.8 384.4 198.9 391.6 198.1C398.9 197.2 405.3 199.8 405.9 203.7C406.5 207.7 401.9 210.2 394.6 211C387.4 211.9 380.2 210.8 379.6 206.8Z" fill="#602F0F"/>
<path d="M388.3 199.7C388.2 199.3 390 198.7 392.2 198.4C394.4 198.1 396.3 198.3 396.4 198.7C396.5 199.1 395 199.5 392.8 199.8C390.5 200.1 388.4 200.2 388.3 199.7Z" fill="#4C230C"/>
<path d="M81.9001 293.2C82.2001 289.1 79.2001 275 79.0001 273.5C78.6001 269.9 80.0001 266.1 83.5001 266.3C86.1001 266.4 88.6001 267.3 90.2001 266.9C98.3001 264.9 123 261.7 132.8 259.3C135.1 258.8 137.4 258.3 139.8 257.8C149.6 256 147.1 277 143.5 277.3C129.1 278.5 94.5001 277 89.3001 276.8C89.3001 276.8 91.0001 296.1 87.2001 296.2C84.9001 296.5 81.6001 297.3 81.9001 293.2Z" fill="#F6BB92"/>
<path d="M172.1 254.8C160.5 255.1 149.6 256.1 139.8 257.9C141.5 260.9 143.9 274.3 143.5 277.4C147.1 277.1 175 276.4 175 276.4C183.8 276.2 235.9 275.4 251.5 270.8C255.5 269.7 259 268.5 261.9 267.2C267.5 264.8 259.3 233.1 251.1 233.1C233.8 236.9 203.2 250 195.4 252.2C187.5 254.5 172.1 254.8 172.1 254.8Z" fill="#3D3C3C"/>
</svg>
