<svg width="500" height="500" viewBox="0 0 500 500" fill="none" xmlns="http://www.w3.org/2000/svg">
<path d="M98.4865 326.823C110.164 325.412 121.841 324 133.483 322.589C150.346 320.543 167.173 318.568 184.001 316.38C194.126 315.075 204.286 314.757 214.411 314.193C225.101 313.629 235.649 311.97 246.232 310.383C254.064 309.219 261.966 308.725 269.869 308.196C274.561 307.878 279.182 307.384 283.839 306.643C285.18 306.432 286.379 305.973 287.473 305.197C287.578 304.562 287.79 303.892 287.755 303.257C287.332 293.767 287.684 284.242 287.437 274.717C287.367 272.423 286.908 270.13 287.402 267.802C280.17 265.756 273.185 262.898 265.847 261.205C258.333 259.476 250.96 259.723 243.657 262.475C238.612 264.38 233.638 266.461 228.805 268.966C222.102 272.459 214.799 274.505 207.356 275.669C195.255 277.574 183.507 280.784 171.795 284.242C164.916 286.288 158.001 287.558 150.804 288.016C141.032 288.616 131.825 291.65 122.829 295.46C111.046 300.47 99.1921 305.303 87.3739 310.207C86.5272 310.559 85.7158 310.947 84.8691 311.335C85.0102 312.112 85.6452 312.535 86.1391 313.064C90.3372 317.686 94.4295 322.236 98.4865 326.823Z" fill="#696D66"/>
<path d="M301.443 306.961C305.147 317.086 309.733 326.893 313.861 336.877C316.224 342.521 318.659 348.166 320.811 353.881C322.716 358.926 327.302 362.136 333.017 361.254C338.414 360.408 343.847 359.843 349.28 359.667C349.598 359.667 349.88 359.455 350.197 359.349C350.48 358.82 350.974 358.926 351.432 358.926L351.397 358.961C351.326 358.185 351.961 357.797 352.385 357.338C353.549 356.068 353.831 354.481 353.125 353.105C351.714 350.283 349.739 347.954 346.493 347.037C342.86 346.049 339.296 344.956 335.698 343.968C333.652 343.403 332.064 342.028 331.394 340.158C329.454 334.831 327.796 329.433 326.032 324.071C324.585 319.696 323.844 315.146 322.504 310.736C321.587 307.737 321.728 307.137 324.55 306.079C324.973 305.903 325.361 305.691 325.75 305.479C329.912 304.209 334.11 303.08 338.167 301.634C343.636 299.694 348.998 297.436 354.396 295.354C359.511 293.379 364.556 291.262 368.789 287.628C370.271 286.358 371.364 284.7 371.4 282.901C371.47 276.798 369.354 271.647 361.381 271.541C358.664 271.506 355.948 271.859 353.372 272.635C343.177 275.669 332.982 278.809 322.786 281.913C322.363 282.054 321.869 281.878 321.41 281.843C320.281 282.76 318.976 283.395 317.6 283.818C315.025 284.63 312.45 285.441 309.945 286.394C307.863 287.17 305.923 288.122 304.477 290.063C301.125 294.543 301.09 299.552 301.725 304.738C301.831 305.515 301.866 306.255 301.443 306.961Z" fill="#F4B991"/>
<path d="M428.057 289.286C429.856 289.004 430.279 287.346 430.914 286.111C433.666 280.89 435.607 275.386 435.36 269.354C435.183 264.591 433.031 260.817 429.468 257.747C427.528 258.77 426.222 257.359 424.882 256.407C421.53 254.043 418.038 252.244 413.769 252.597C412.64 252.702 411.758 252.279 410.841 251.644C409.818 250.903 410.03 250.374 411.017 249.986C413.205 249.139 415.533 249.034 417.756 249.21C420.613 249.422 423.294 250.48 425.552 252.279C427.281 253.655 429.715 254.537 429.927 257.289C436.665 255.595 439.311 247.446 435.077 241.096C432.29 236.863 427.951 235.204 423.189 234.428C416.838 233.37 410.559 234.499 404.279 235.381C400.434 235.91 396.624 236.827 392.708 236.757C391.932 236.757 391.262 236.933 390.944 237.78C390.627 238.662 391.191 239.156 391.685 239.65C394.013 241.943 396.906 243.424 399.658 245.118C402.551 246.917 405.514 248.645 409.007 250.727C402.127 251.997 397.083 255.278 393.378 260.534C394.084 262.933 394.648 265.367 395.495 267.731C397.329 272.882 401.14 275.528 406.502 275.986C407.878 276.092 409.254 276.057 410.665 276.057C412.252 276.057 413.628 276.515 414.792 277.609C419.026 281.631 423.506 285.511 428.057 289.286Z" fill="#814311"/>
<path d="M321.481 281.807C321.939 281.843 322.433 281.984 322.857 281.878C333.052 278.809 343.248 275.669 353.443 272.6C356.018 271.824 358.735 271.471 361.451 271.506C369.424 271.612 371.541 276.763 371.47 282.866C371.435 284.665 370.341 286.323 368.86 287.593C364.626 291.227 359.581 293.343 354.466 295.319C349.069 297.4 343.706 299.623 338.238 301.599C334.146 303.045 329.948 304.174 325.82 305.444C325.714 305.797 325.75 306.079 326.102 306.255C327.302 305.973 328.113 306.361 328.995 307.278C335.134 313.487 342.119 314.722 350.092 310.242C357.465 306.079 363.885 300.611 370.306 295.107C373.693 292.215 376.903 289.251 378.561 284.982C378.914 283.854 379.373 282.76 379.549 281.596C380.607 274.716 379.796 268.19 375.88 262.228C371.611 259.512 366.814 258.947 361.945 258.594C356.618 258.206 351.467 259.229 346.246 260.147C340.037 261.24 333.687 261.558 327.513 262.934C324.127 263.674 320.74 264.521 317.353 265.332C318.553 270.236 319.752 275.105 320.916 280.008C321.093 280.573 321.269 281.172 321.481 281.807Z" fill="#8A8AD9"/>
<path d="M98.4873 326.823C94.395 322.272 90.3028 317.686 86.2105 313.135C85.7166 312.606 85.0816 312.183 84.9405 311.406C82.8943 311.301 80.8482 311.124 78.802 311.477C73.0869 312.465 69.6649 316.098 68.3243 321.531C66.4546 329.222 64.7612 336.948 63.2443 344.674C61.7273 352.329 66.0665 362.631 72.1697 366.511C77.8495 370.145 85.7166 366.511 85.5049 359.844C85.258 351.765 88.433 345.168 92.3136 338.536C94.6067 334.725 96.7939 330.88 98.4873 326.823Z" fill="#F5BA92"/>
<path d="M375.88 262.193C379.76 268.155 380.572 274.682 379.549 281.561C379.372 282.725 378.879 283.819 378.561 284.948C382.089 286.994 386.04 288.193 389.533 290.416C391.685 291.792 392.743 293.45 392.778 296.061C392.813 302.658 392.99 302.834 399.657 302.481C401.704 302.375 403.714 302.093 405.761 302.093C407.842 302.093 409.606 302.799 411.193 304.139C414.122 306.644 415.78 306.044 416.52 302.27C416.767 300.964 417.014 299.694 417.332 298.424C418.355 294.014 421.213 291.58 425.552 290.592C426.434 290.381 427.81 290.769 428.092 289.287C423.541 285.512 419.061 281.632 414.792 277.575C413.628 276.481 412.252 275.987 410.664 276.022C409.288 276.022 407.877 276.093 406.501 275.952C401.139 275.458 397.329 272.847 395.495 267.697C394.648 265.333 394.083 262.899 393.378 260.5C388.474 262.758 383.288 262.758 378.032 262.37C377.326 262.299 376.585 262.264 375.88 262.193Z" fill="#F5B992"/>
<path d="M320.917 279.973C319.718 275.069 318.518 270.201 317.354 265.297C313.12 265.72 308.958 266.814 304.689 267.096C301.338 267.308 298.021 267.343 294.67 267.378C294.211 267.378 293.717 267.308 293.294 267.449C291.389 268.26 289.449 268.119 287.473 267.766C286.979 270.059 287.438 272.353 287.508 274.681C287.72 284.171 287.403 293.696 287.826 303.221C287.861 303.856 287.65 304.526 287.544 305.161C291.283 305.338 295.023 305.514 298.692 306.184C299.291 304.985 299.08 303.786 298.939 302.551C298.515 298.952 298.304 295.283 299.785 291.897C301.867 287.064 305.465 283.747 310.686 282.442C314.038 281.525 317.283 279.937 320.917 279.973Z" fill="#F4B992"/>
<path d="M326.102 306.22C325.749 306.043 325.679 305.761 325.82 305.408C325.432 305.62 325.009 305.867 324.621 306.008C321.798 307.066 321.692 307.666 322.574 310.665C323.88 315.074 324.621 319.625 326.102 324C327.901 329.362 329.56 334.795 331.465 340.087C332.135 341.957 333.687 343.297 335.769 343.897C339.367 344.92 342.965 346.014 346.564 346.966C349.845 347.848 351.785 350.212 353.196 353.034C353.866 354.41 353.619 355.997 352.455 357.267C351.997 357.726 351.397 358.114 351.467 358.89C353.725 358.008 355.524 356.35 355.524 354.022C355.524 351.411 354.043 349.224 351.75 347.636C347.94 344.991 343.6 343.509 339.261 342.309C335.557 341.286 333.758 339.417 332.946 335.642C330.865 325.799 327.972 316.133 326.102 306.22Z" fill="#D09B77"/>
<path d="M320.916 279.973C317.283 279.938 314.037 281.525 310.615 282.407C305.429 283.713 301.831 287.064 299.714 291.862C298.232 295.249 298.479 298.918 298.867 302.516C299.009 303.786 299.255 304.986 298.62 306.15C299.432 306.855 300.384 307.032 301.407 306.961C301.831 306.256 301.796 305.515 301.69 304.668C301.09 299.517 301.125 294.473 304.441 289.992C305.888 288.052 307.828 287.099 309.91 286.323C312.414 285.371 315.025 284.595 317.565 283.748C318.941 283.289 320.246 282.69 321.375 281.772C321.269 281.173 321.093 280.573 320.916 279.973Z" fill="#CF9974"/>
<path d="M429.927 257.253C429.715 254.501 427.281 253.619 425.552 252.243C423.33 250.444 420.613 249.386 417.756 249.174C415.498 248.997 413.17 249.103 411.018 249.95C410.03 250.338 409.783 250.867 410.841 251.608C411.723 252.243 412.64 252.666 413.769 252.561C418.038 252.208 421.531 254.042 424.882 256.371C426.223 257.323 427.528 258.699 429.468 257.711C429.609 257.605 429.786 257.429 429.927 257.253Z" fill="#633301"/>
<path d="M351.468 358.89C351.009 358.89 350.515 358.784 350.233 359.313C350.692 359.278 351.15 359.313 351.468 358.89Z" fill="#D09B77"/>
</svg>
