<svg width="500" height="500" viewBox="0 0 500 500" fill="none" xmlns="http://www.w3.org/2000/svg">
<path d="M205.938 273.3C201.07 276.511 195.637 278.239 190.133 279.933C189.569 280.109 189.04 280.321 188.511 280.497C187.523 280.956 186.5 281.379 185.512 281.838C175.987 286.071 166.462 290.234 156.795 294.079C156.16 295.208 154.996 295.737 153.867 295.808C151.186 296.019 148.505 296.69 145.824 296.69C140.038 296.76 135.523 299.3 131.501 303.216C128.255 306.356 125.539 309.778 123.986 314.082C124.128 314.258 124.304 314.435 124.339 314.646C125.221 320.714 129.737 321.808 134.676 321.949C140.109 322.125 145.542 322.055 151.01 322.02C153.268 322.02 155.278 320.961 157.289 320.15C161.17 318.598 165.05 317.045 169.178 316.163C169.919 315.493 170.871 315.281 171.753 314.999C182.584 311.26 193.379 307.379 204.28 303.816C214.264 300.57 223.683 295.808 233.984 293.479C248.449 290.199 262.736 286.177 277.694 285.648C281.857 285.507 285.949 284.625 290.112 284.06C290.818 283.601 291.594 283.531 292.441 283.531C301.437 283.284 309.48 280.426 316.712 275.064C318.194 273.97 319.217 272.065 321.404 271.995C324.156 266.35 325.92 260.353 327.225 254.25C328.707 247.406 326.625 241.62 320.91 237.352C315.689 233.471 309.727 232.589 303.377 232.801C297.027 233.012 293.358 236.646 290.712 241.902C289.901 243.561 289.019 245.183 288.207 246.806C287.89 247.441 287.537 247.9 286.831 248.111C279.07 250.581 271.309 253.156 263.371 255.026C263.054 255.202 262.736 255.414 262.383 255.52C253.67 257.637 245.097 260.212 236.489 262.681C230.492 264.41 224.565 266.245 218.568 268.044C214.37 269.667 210.066 271.184 205.938 273.3Z" fill="#F6BA91"/>
<path d="M218.674 268.044C224.636 266.245 230.598 264.411 236.595 262.682C245.203 260.177 253.776 257.602 262.489 255.521C262.842 255.45 263.16 255.203 263.477 255.027C263.16 254.251 262.56 253.686 261.925 253.227C257.268 249.77 252.576 246.278 247.884 242.856C247.037 242.256 246.473 241.586 246.473 240.563C245.344 240.951 244.709 240.104 243.968 239.539C237.971 235.13 232.009 230.72 226.011 226.31C224.565 225.252 223.436 223.946 222.625 222.324C220.931 218.902 219.132 215.515 217.368 212.093C212.147 201.968 206.926 191.808 201.705 181.683C197.93 181.224 194.437 182.565 191.015 183.764C186.359 185.387 181.878 187.398 177.398 189.48C171.471 192.231 165.932 195.724 161.17 200.028C148.329 211.67 145.718 229.062 155.208 244.478C161.382 254.498 170.519 260.283 180.82 264.799C183.395 265.928 185.865 267.515 188.828 267.55C189.181 267.656 189.534 267.727 189.886 267.833C190.239 267.939 190.592 268.08 190.945 268.186C191.862 266.351 193.591 266.527 195.143 266.774C196.519 267.021 197.895 267.127 199.306 267.092C205.338 266.81 211.336 267.727 217.333 267.55C217.792 267.621 218.321 267.586 218.674 268.044Z" fill="#696C65"/>
<path d="M246.437 240.562C246.437 241.62 247.002 242.255 247.848 242.855C252.576 246.277 257.232 249.734 261.889 253.227C262.524 253.721 263.124 254.25 263.441 255.026C271.379 253.156 279.14 250.581 286.901 248.112C287.607 247.9 287.96 247.441 288.277 246.806C289.089 245.148 289.935 243.525 290.782 241.903C293.393 236.646 297.097 233.012 303.447 232.801C309.797 232.589 315.759 233.436 320.98 237.352C326.731 241.62 328.777 247.406 327.295 254.25C325.99 260.353 324.226 266.35 321.474 271.995C321.545 272.736 321.615 273.477 321.686 274.253C322.921 274.253 323.697 273.441 324.402 272.595C325.637 271.078 326.766 269.455 327.93 267.867C328.107 267.409 328.248 266.915 328.459 266.456C330.188 262.646 332.41 259.048 332.904 254.744C332.869 253.721 332.728 252.662 332.834 251.675C334.245 240.245 330.082 230.543 322.78 222.323C314.277 212.727 303.906 205.284 292.652 199.145C284.855 194.877 276.918 190.749 269.086 186.586C268.063 186.022 267.04 185.387 265.77 185.598C264.641 186.586 263.971 187.856 263.477 189.303C259.102 202.356 254.728 215.373 250.353 228.426C248.977 232.448 247.742 236.505 246.437 240.562Z" fill="#8A8AD9"/>
<path d="M290.183 284.025C286.055 284.555 281.928 285.472 277.765 285.613C262.807 286.107 248.519 290.164 234.055 293.445C223.719 295.773 214.299 300.536 204.351 303.781C193.45 307.344 182.655 311.225 171.824 314.965C170.942 315.282 169.99 315.494 169.249 316.129C188.44 316.446 207.632 316.764 226.823 317.116C237.936 317.328 249.048 317.61 260.126 317.893C264.712 318.034 269.192 317.469 273.637 316.305C281.504 314.259 286.408 309.426 288.031 301.418C288.666 298.243 289.372 295.103 290.042 291.928C290.395 290.27 289.936 288.541 290.536 286.954C290.853 285.93 290.712 284.978 290.183 284.025Z" fill="#6A6D66"/>
<path d="M246.438 240.562C247.708 236.505 248.943 232.413 250.319 228.391C254.658 215.338 259.068 202.32 263.442 189.268C263.936 187.821 264.571 186.551 265.735 185.563C259.526 182.776 253 181.012 246.368 179.707C241.111 178.684 235.784 178.084 230.422 177.978C220.685 177.731 211.089 179.001 201.705 181.718C206.926 191.878 212.148 202.003 217.369 212.128C219.133 215.515 220.932 218.901 222.625 222.359C223.437 224.017 224.566 225.287 226.012 226.345C231.974 230.755 237.971 235.165 243.969 239.574C244.674 240.104 245.309 240.95 246.438 240.562Z" fill="#F5BA92"/>
<path d="M332.834 254.709C332.375 258.978 330.118 262.611 328.389 266.421C328.177 266.88 328.036 267.374 327.86 267.833C328.495 268.538 328.283 269.35 328.142 270.126C327.048 276.44 324.791 282.438 322.956 288.541C322.603 289.776 321.827 290.552 320.698 291.046C317.664 292.386 314.701 293.833 311.632 295.067C309.868 295.773 308.986 296.937 308.527 298.701C307.434 302.829 306.199 306.886 305.035 310.978C307.434 313.835 310.714 315.317 314.031 316.622C325.037 320.962 335.303 319.304 344.864 312.495C345.816 311.825 346.663 311.225 347.721 312.213C347.051 310.766 347.757 309.743 348.745 308.72C351.461 305.968 353.401 302.723 354.918 299.195C356.047 296.479 357.705 294.08 359.61 291.892C359.081 291.187 359.152 290.34 359.293 289.564C361.162 278.345 355.941 269.949 348.251 262.752C343.911 258.695 338.478 256.438 332.834 254.709Z" fill="#7B4720"/>
<path d="M155.737 289.317C151.045 286.318 146.671 282.79 141.696 280.215C136.793 277.675 131.783 277.498 126.738 280.215C119.012 284.342 111.216 288.294 103.455 292.315C99.5387 294.362 97.0339 299.265 97.7394 303.393C98.5861 308.332 102.29 312.318 106.806 313.059C111.674 313.87 116.613 313.482 121.517 313.87C120.811 312.107 121.341 310.413 122.117 308.861C124.375 304.381 128.22 301.241 131.889 297.995C134.888 295.385 138.345 293.797 142.296 293.268C145.048 292.915 147.764 292.386 150.481 291.963C152.35 291.68 154.22 290.975 156.09 291.927C155.949 291.045 155.843 290.199 155.737 289.317Z" fill="#F7BD94"/>
<path d="M351.249 313.624C356.294 317.469 362.327 317.681 368.218 317.822C377.532 318.034 386.916 318.422 396.159 316.623C396.582 316.552 397.041 316.481 397.464 316.376C400.039 315.811 402.015 314.365 402.368 311.684C402.65 309.532 400.992 308.05 399.44 306.815C397.358 305.157 394.853 304.24 392.349 303.428C382.753 300.218 373.193 297.043 363.597 293.833C363.174 293.692 362.75 293.692 362.292 293.621C361.974 298.595 359.152 302.511 356.647 306.498C355.13 309.002 353.084 311.26 351.249 313.624Z" fill="#7A4721"/>
<path d="M305.035 310.977C306.199 306.885 307.434 302.793 308.528 298.701C308.986 296.901 309.904 295.772 311.632 295.067C314.701 293.832 317.665 292.386 320.699 291.045C321.863 290.551 322.604 289.775 322.957 288.54C324.791 282.437 327.049 276.44 328.142 270.125C328.284 269.349 328.495 268.538 327.86 267.832C326.696 269.42 325.567 271.042 324.332 272.559C323.662 273.406 322.851 274.182 321.616 274.217C321.757 275.24 321.122 275.84 320.487 276.475C315.513 281.555 309.304 284.378 302.566 286.106C298.65 287.129 294.663 288.293 290.536 286.953C289.901 288.576 290.395 290.304 290.042 291.927C292.229 293.374 294.452 294.785 296.639 296.266C298.262 297.36 298.756 299.194 299.532 300.817C300.978 303.851 302.46 306.885 303.941 309.919C304.224 310.413 304.471 310.872 305.035 310.977Z" fill="#F5B991"/>
<path d="M156.054 291.892C154.185 290.939 152.315 291.645 150.445 291.927C147.693 292.315 144.977 292.845 142.261 293.233C138.309 293.762 134.852 295.349 131.854 297.96C128.185 301.205 124.339 304.345 122.081 308.826C121.305 310.378 120.776 312.071 121.482 313.835C122.328 313.906 123.175 313.976 124.022 314.047C125.574 309.743 128.29 306.321 131.536 303.181C135.558 299.265 140.038 296.725 145.859 296.655C148.54 296.619 151.186 295.949 153.902 295.773C154.996 295.702 156.196 295.173 156.831 294.044C156.548 293.338 156.301 292.633 156.054 291.892Z" fill="#DDA781"/>
<path d="M351.249 313.624C353.084 311.26 355.13 309.038 356.717 306.498C359.222 302.511 362.044 298.595 362.362 293.621C361.409 293.127 360.175 293.057 359.645 291.928C357.705 294.15 356.082 296.549 354.953 299.23C353.472 302.758 351.496 306.004 348.78 308.756C347.792 309.779 347.086 310.766 347.757 312.248C348.744 313.059 349.979 313.412 351.249 313.624Z" fill="#5E3614"/>
<path d="M156.055 291.892C156.301 292.633 156.548 293.338 156.831 294.079C166.497 290.234 176.022 286.071 185.547 281.838C186.535 281.379 187.558 280.956 188.546 280.497C177.61 283.46 166.391 285.26 155.772 289.317C155.843 290.199 155.949 291.045 156.055 291.892Z" fill="#73746C"/>
<path d="M218.674 268.045C218.286 267.586 217.757 267.621 217.263 267.621C211.23 267.798 205.268 266.88 199.235 267.163C197.86 267.233 196.484 267.092 195.073 266.845C193.556 266.598 191.827 266.422 190.874 268.256C194.79 270.479 199.059 271.643 203.398 272.631C204.245 272.842 205.092 273.054 205.938 273.301C210.066 271.184 214.37 269.667 218.674 268.045Z" fill="#4A4C46"/>
<path d="M189.851 267.903C189.498 267.798 189.145 267.727 188.792 267.621C189.039 268.08 189.427 268.08 189.851 267.903Z" fill="#4A4C46"/>
<path d="M290.57 286.953C294.698 288.294 298.684 287.13 302.6 286.107C309.338 284.343 315.547 281.556 320.522 276.476C321.157 275.841 321.792 275.241 321.651 274.218C321.58 273.477 321.509 272.736 321.439 271.96C319.252 272.031 318.229 273.9 316.747 275.029C309.515 280.391 301.471 283.214 292.475 283.496C291.664 283.531 290.853 283.567 290.147 284.025C290.711 284.978 290.853 285.93 290.57 286.953Z" fill="#DCA781"/>
</svg>
