<svg width="497" height="497" viewBox="0 0 497 497" fill="none" xmlns="http://www.w3.org/2000/svg">
<path d="M269.032 160.002C269.032 160.002 259.86 159.7 246.409 167.551C228.065 178.12 220.881 210.885 236.778 225.38C249.924 237.459 279.885 227.796 281.108 217.679C281.872 211.942 283.553 211.489 284.776 210.583C290.279 206.204 287.069 181.744 287.069 181.744L269.032 160.002Z" fill="#3D3C3C"/>
<path d="M335.6 251.077C335.6 251.077 337.933 260.308 330.622 268.769L355.511 276C351.933 265.692 365 244.462 365 244.462C353.022 249.692 335.289 245.538 330 244L335.6 251.077Z" fill="#ECAD83"/>
<path d="M317.139 241.157C329.976 250.463 328.448 252.446 346.022 253.971C348.162 254.124 351.371 253.666 353.816 252.598C357.942 250.92 362.833 248.632 365.584 243.14C368.64 237.19 373.225 227.274 371.696 219.799C369.863 210.951 367.723 185.474 345.87 172.049C314.235 152.674 298.953 158.776 269 159.387C269 159.387 269.153 170.066 272.973 183.796C277.405 199.509 284.588 210.493 284.588 210.493C287.95 208.052 306.136 210.646 310.109 213.849C310.262 213.849 302.01 230.173 317.139 241.157Z" fill="#FF8AA0"/>
<path d="M310.913 287.153C303.295 293.068 304.666 301.562 306.19 306.568C310.608 322.038 318.987 325.679 330.414 328.712C345.345 332.656 361.494 294.888 361.952 288.063C363.17 270.014 341.079 256.97 331.481 254.088C320.816 250.903 322.492 255.301 321.73 259.7C321.73 259.851 320.968 260.306 320.968 260.306C320.511 261.823 320.054 263.795 318.53 265.463C318.53 265.463 318.53 266.828 318.378 267.587C318.226 268.042 318.226 268.345 317.616 268.345C315.94 268.497 314.264 268.649 313.503 269.104C310.913 270.772 314.417 284.423 310.913 287.153Z" fill="#F6BB92"/>
<path d="M325 265.717C325 265.717 324.119 264.63 319.419 263C318.831 263.181 317.656 263.543 318.097 265.536C318.537 266.804 321.475 264.992 325 265.717Z" fill="#D6876B"/>
<path d="M325 266C325 266 324.716 262.747 320.738 260.036C320.169 259.855 319.601 260.397 319.317 260.759C318.465 262.385 319.601 263.47 319.601 263.47C324.148 264.916 325 266 325 266Z" fill="#CC785E"/>
<path d="M330.26 332.265C348.601 337.183 379.935 317.202 363.275 279.237C362.205 276.778 358.995 273.243 352.117 276.01C347.379 278.008 343.405 281.236 343.405 281.236C342.335 282.158 341.112 283.387 339.736 284.463C338.361 285.693 337.138 295.222 335.151 294.915C316.503 292.917 306.262 300.448 305.039 305.367C304.428 317.509 310.848 327.039 330.26 332.265Z" fill="#602F0F"/>
<path d="M344.941 287.378C344.364 278.212 341.336 276.948 336.577 276L336 289.748L337.01 295.595C341.769 296.543 345.518 296.543 344.941 287.378Z" fill="#F6BB92"/>
<path d="M365.887 311.484C369.204 316.335 364.832 324.94 356.389 330.416C347.795 336.049 338.297 336.519 335.131 331.668C331.814 326.818 336.035 320.559 344.629 315.083C353.072 309.45 362.721 306.634 365.887 311.484Z" fill="#4C230C"/>
<path d="M334.122 292.622C333.97 294.146 333.665 295.517 333.36 296.583C332.903 298.107 332.446 299.021 332.446 299.021L338.236 298.564C338.388 297.802 338.693 297.04 338.845 296.279C338.845 296.279 338.236 296.279 337.169 296.431H337.322C336.865 295.06 336.56 292.927 336.255 290.032C336.255 289.88 334.579 287.746 334.122 292.622Z" fill="#602F0F"/>
<path d="M369.165 313.039C372.67 318.067 367.794 327.056 358.348 332.998C348.901 338.94 338.389 339.702 335.037 334.674C331.532 329.646 336.256 323.095 345.702 317.153C355.148 311.211 365.661 308.011 369.165 313.039Z" fill="#602F0F"/>
<path d="M361.968 328.149C362.284 328.77 360.231 330.633 357.231 332.496C354.231 334.359 351.546 335.446 351.072 334.825C350.599 334.204 352.494 332.651 355.494 330.943C358.652 328.925 361.652 327.528 361.968 328.149Z" fill="#4C230C"/>
<path d="M88.0167 331.418C88.6242 325.251 115.05 323.747 119.151 321.19C121.125 319.986 122.796 316.376 127.96 315.473C134.794 314.27 139.502 319.084 141.932 318.482C154.234 315.624 181.116 311.562 196.151 308.253C199.644 307.501 203.138 306.749 206.783 306.147C221.666 303.59 217.414 335.179 211.946 335.63C190.076 337.134 144.666 334.126 136.768 333.825C136.768 333.825 112.772 336.834 107.001 336.984C103.508 336.984 87.4093 337.586 88.0167 331.418Z" fill="#ECAD83"/>
<path d="M262.193 301.958C244.535 302.111 222.918 303.483 208 306.076C210.588 310.804 213.937 331.087 213.176 335.815C218.656 335.51 291.573 341.458 302.686 329.257C314.408 316.599 277.568 218.994 281.831 212.589L231.291 192C223.984 224.942 262.193 301.958 262.193 301.958Z" fill="#3D3C3C"/>
<path d="M157.08 331.17C159.366 336.35 180.391 324.161 187.552 322.637L193.951 315.629C243.773 297.955 265.104 284.7 265.104 284.7C295.423 275.406 348.902 250.114 358.958 243.41C369.013 236.859 358.043 215.071 346.616 219.032C335.189 222.994 325.438 227.717 314.468 232.592C303.498 237.468 266.78 261.541 257.486 266.721C256.267 267.483 188.924 303.745 188.924 303.745C188.924 303.745 186.029 304.964 180.696 305.268C173.383 305.725 163.936 310.449 159.67 315.172C156.014 319.133 154.795 325.989 157.08 331.17Z" fill="#F6BB92"/>
<path d="M179.782 323.399C179.782 323.399 172.469 325.836 173.383 329.798C174.145 333.15 174.754 334.216 187.4 322.637C187.552 322.637 186.486 320.656 179.782 323.399Z" fill="#F6BB92"/>
</svg>
