<svg width="497" height="497" viewBox="0 0 497 497" fill="none" xmlns="http://www.w3.org/2000/svg">
<path d="M287.929 130.004C287.929 130.004 274.936 129.575 255.88 140.743C229.894 155.779 219.716 202.387 242.237 223.007C260.86 240.19 303.304 226.443 305.037 212.053C306.12 203.891 308.502 203.247 310.234 201.958C318.03 195.729 313.482 160.933 313.482 160.933L287.929 130.004Z" fill="#3D3C3C"/>
<path d="M383.961 261.175C383.961 261.175 387.361 274.444 376.707 286.608L412.974 297.002C407.761 282.185 426.801 251.665 426.801 251.665C409.347 259.185 383.507 253.213 375.801 251.002L383.961 261.175Z" fill="#ECAD83"/>
<path d="M356.971 245.673C375.417 258.954 373.221 261.784 398.474 263.961C401.548 264.179 406.159 263.526 409.673 262.002C415.602 259.607 422.628 256.341 426.581 248.504C430.973 240.013 437.561 225.862 435.365 215.194C432.73 202.567 429.655 166.209 398.254 147.051C352.799 119.402 330.84 128.11 287.801 128.981C287.801 128.981 288.02 144.221 293.51 163.814C299.878 186.239 310.199 201.914 310.199 201.914C315.03 198.43 341.161 202.131 346.87 206.703C347.09 206.703 335.232 229.998 356.971 245.673Z" fill="#FF8AA0"/>
<path d="M347.307 312.434C336.348 320.996 338.32 333.289 340.512 340.534C346.868 362.926 358.923 368.195 375.361 372.585C396.841 378.293 420.074 323.63 420.731 313.751C422.484 287.627 390.704 268.747 376.896 264.576C361.553 259.966 363.964 266.333 362.868 272.699C362.868 272.918 361.772 273.577 361.772 273.577C361.115 275.772 360.457 278.626 358.265 281.041C358.265 281.041 358.266 283.017 358.046 284.115C357.827 284.773 357.827 285.212 356.95 285.212C354.54 285.432 352.129 285.651 351.033 286.31C347.307 288.725 352.348 308.482 347.307 312.434Z" fill="#F6BB92"/>
<path d="M367.801 281.53C367.801 281.53 366.668 279.719 360.625 277.002C359.869 277.304 358.359 277.908 358.925 281.228C359.492 283.341 363.268 280.323 367.801 281.53Z" fill="#D6876B"/>
<path d="M367.801 282.002C367.801 282.002 367.422 277.122 362.118 273.056C361.36 272.785 360.602 273.598 360.223 274.14C359.087 276.58 360.602 278.207 360.602 278.207C366.664 280.375 367.801 282.002 367.801 282.002Z" fill="#CC785E"/>
<path d="M375.688 376.937C402.473 384.06 448.23 355.122 423.901 300.139C422.338 296.577 417.651 291.457 407.606 295.464C400.687 298.358 394.884 303.033 394.884 303.033C393.321 304.368 391.535 306.149 389.527 307.707C387.518 309.488 385.732 323.29 382.83 322.844C355.599 319.95 340.644 330.858 338.858 337.981C337.965 355.567 347.34 369.368 375.688 376.937Z" fill="#602F0F"/>
<path d="M396.723 313.499C395.953 300.21 391.915 298.377 385.57 297.002L384.801 316.936L386.147 325.414C392.492 326.789 397.492 326.789 396.723 313.499Z" fill="#F6BB92"/>
<path d="M427.183 346.633C432.007 353.722 425.648 366.299 413.367 374.303C400.867 382.535 387.051 383.221 382.446 376.132C377.621 369.043 383.762 359.896 396.262 351.892C408.542 343.66 422.577 339.543 427.183 346.633Z" fill="#4C230C"/>
<path d="M381.256 319.959C381.037 322.143 380.601 324.108 380.164 325.637C379.509 327.821 378.854 329.131 378.854 329.131L387.152 328.476C387.37 327.384 387.807 326.292 388.025 325.2C388.025 325.2 387.152 325.2 385.623 325.418H385.842C385.187 323.453 384.75 320.396 384.313 316.247C384.313 316.028 381.911 312.971 381.256 319.959Z" fill="#602F0F"/>
<path d="M431.484 349.221C436.507 356.428 429.519 369.312 415.979 377.829C402.439 386.346 387.371 387.438 382.567 380.231C377.544 373.025 384.314 363.634 397.853 355.117C411.393 346.601 426.461 342.015 431.484 349.221Z" fill="#602F0F"/>
<path d="M420.757 371.215C421.188 372.102 418.389 374.763 414.297 377.425C410.206 380.086 406.545 381.638 405.899 380.751C405.253 379.864 407.837 377.646 411.929 375.207C416.235 372.324 420.326 370.327 420.757 371.215Z" fill="#4C230C"/>
<path d="M27.8249 375.899C28.7009 366.947 66.8037 364.763 72.7162 361.051C75.5629 359.304 77.9718 354.064 85.4171 352.754C95.2713 351.007 102.06 357.994 105.563 357.121C123.301 352.972 162.061 347.077 183.74 342.273C188.777 341.181 193.813 340.089 199.069 339.216C220.529 335.504 214.397 381.358 206.514 382.013C174.981 384.197 109.505 379.83 98.1181 379.393C98.1181 379.393 63.5189 383.76 55.1976 383.979C50.1611 383.979 26.949 384.852 27.8249 375.899Z" fill="#ECAD83"/>
<path d="M277.9 333.735C252.778 333.954 222.025 335.923 200.801 339.642C204.483 346.424 209.247 375.52 208.164 382.302C215.961 381.865 319.699 390.397 335.509 372.895C352.185 354.737 299.774 214.724 305.838 205.536L233.936 176.002C223.541 223.256 277.9 333.735 277.9 333.735Z" fill="#3D3C3C"/>
<path d="M127.498 375.209C130.773 382.634 160.91 365.164 171.174 362.98L180.346 352.935C251.756 327.602 282.329 308.603 282.329 308.603C325.787 295.282 402.438 259.031 416.851 249.422C431.264 240.032 415.541 208.804 399.162 214.482C382.784 220.159 368.808 226.929 353.084 233.917C337.361 240.906 284.731 275.41 271.41 282.835C269.663 283.926 173.139 335.901 173.139 335.901C173.139 335.901 168.99 337.648 161.346 338.085C150.864 338.74 137.325 345.51 131.21 352.279C125.969 357.957 124.222 367.784 127.498 375.209Z" fill="#F6BB92"/>
<path d="M160.035 364.071C160.035 364.071 149.553 367.566 150.863 373.243C151.955 378.048 152.829 379.576 170.954 362.98C171.173 362.98 169.644 360.141 160.035 364.071Z" fill="#F6BB92"/>
</svg>
