<svg width="501" height="500" viewBox="0 0 501 500" fill="none" xmlns="http://www.w3.org/2000/svg">
<path d="M365.312 27.0025C360.36 26.7348 361.565 48.0151 359.825 54.3055L362.77 62.0681C356.881 108.242 358.754 130.058 358.754 130.058C353.936 157.495 352.33 207.282 353.535 217.856C354.07 224.28 382.176 223.745 382.711 215.982C382.31 203.936 380.302 200.189 380.035 189.482C380.57 178.909 376.287 140.631 375.886 131.396C375.886 130.058 374.012 62.8711 374.012 62.8711C374.012 62.8711 374.28 60.1944 376.019 55.7777C378.562 49.755 378.562 40.5201 376.555 35.3005C375.083 31.0176 370.264 27.404 365.312 27.0025Z" fill="#F6BB92"/>
<path d="M362.366 48.0147C362.366 48.0147 363.303 41.3228 359.823 40.5198C356.879 39.7167 355.808 39.8506 359.823 54.4389C359.823 54.3051 361.831 54.1713 362.366 48.0147Z" fill="#F6BB92"/>
<path d="M397.967 420.621C392.346 417.141 376.821 415.401 377.089 411.922C379.096 384.083 387.126 342.326 387.126 342.326C389.134 314.621 399.975 273.131 399.975 262.96C397.7 252.654 377.758 242.349 377.356 253.056C376.018 265.503 374.412 271.392 373.073 284.24C371.066 300.167 368.657 333.626 369.995 342.861C370.129 344.066 365.98 413.394 367.051 417.543C368.255 422.227 371.334 421.156 380.702 422.227C387.662 423.164 403.187 423.833 397.967 420.621Z" fill="#F6BB92"/>
<path d="M253.909 248.797L234.799 256.87C234.799 256.87 232.528 289.564 236.403 298.444C240.278 307.324 258.853 327.371 258.853 327.371L284.243 317.684L253.909 248.797Z" fill="#3D3C3C"/>
<path d="M364.989 279.305C370.2 277.574 372.337 276.243 377.548 273.846C388.103 268.919 400.394 262.928 400.394 262.928C399.058 256.936 397.321 251.077 395.718 246.55L390.107 230.838C388.503 226.311 386.232 220.718 383.426 215.259C383.426 215.259 355.103 209.001 337.868 214.86C320.366 220.718 273.205 244.02 254.634 248.813L269.998 283.433L284.962 317.121C313.419 292.887 332.524 283.034 349.625 281.036C355.504 280.371 360.981 280.637 364.989 279.305Z" fill="#FF8AA0"/>
<path d="M29.2775 390.148C30.082 395.757 33.0318 401.232 35.043 401.365C38.9313 401.899 46.0375 393.353 51.1325 392.285C54.3504 391.617 62.3952 385.742 64.2723 384.807C74.4624 380.133 94.7084 372.522 106.91 366.78C109.725 365.444 112.541 363.975 115.491 362.373C127.29 356.097 106.91 336.334 102.887 339.004C86.7977 349.821 60.1159 370.652 54.7527 375.192C54.7527 375.192 40.8084 379.599 36.1156 381.201C33.2999 382.27 28.339 383.605 29.2775 390.148Z" fill="#F6BB92"/>
<path d="M151.004 338.854C138.663 348.22 126.456 356.249 114.651 362.672C113.847 358.122 105.127 342.199 102.042 339.255C106.066 336.579 109.286 334.438 111.432 333.1C121.761 326.811 138.127 317.712 138.127 317.712C147.114 311.69 208.82 268.202 223.844 261.511C238.868 254.821 249.466 251.208 249.466 251.074L258.051 267.131C250.405 275.428 258.99 285.865 250.405 292.689C229.21 303.26 189.638 321.592 179.577 325.74C169.65 330.022 151.004 338.854 151.004 338.854Z" fill="#3D3C3C"/>
<path d="M43.1103 417.234C39.099 413.366 36.291 407.764 37.3607 406.03C39.2327 402.563 50.197 401.762 54.0746 398.294C56.4814 396.027 65.9749 392.959 67.8468 391.892C77.6077 386.424 95.525 374.419 107.292 367.884C109.966 366.417 112.907 364.949 115.849 363.482C127.749 357.613 132.162 385.49 127.616 387.224C109.565 393.893 77.0729 403.496 70.2536 405.097C70.2536 405.097 58.6208 413.766 54.4757 416.701C51.8015 418.568 47.9239 421.903 43.1103 417.234Z" fill="#F6BB92"/>
<path d="M156.071 347.303C141.236 351.831 127.603 357.024 115.708 362.883C119.049 366.212 126.935 382.457 127.469 386.585C132.014 384.987 135.622 383.522 137.894 382.59C148.987 377.929 165.828 369.94 165.828 369.94C175.985 366.212 246.954 341.577 261.121 333.322C275.289 325.066 284.243 317.742 284.243 317.742L276.358 302.296C265.131 303.628 261.656 290.711 251.098 293.641C230.248 304.693 192.424 325.998 183.202 331.724C173.98 337.316 156.071 347.303 156.071 347.303Z" fill="#3D3C3C"/>
<path d="M410.641 241.736L403.224 220.326C394.189 227.15 388.525 225.545 388.525 225.545C388.525 225.545 382.052 228.489 385.423 238.257C388.795 248.025 395.672 246.419 395.672 246.419C395.672 246.419 399.313 241.736 410.641 241.736Z" fill="#ECAD83"/>
<path d="M432.702 204.153C439.918 199.537 446.465 203.23 450.207 205.867C461.832 213.912 462.366 221.824 461.698 231.978C460.629 245.298 424.551 247.671 418.672 246.089C403.305 241.869 398.762 220.11 399.296 211.406C399.697 201.779 402.904 204.417 406.779 205.076C406.913 205.076 407.581 204.68 407.581 204.68C408.917 204.812 410.788 204.944 412.525 204.285C412.525 204.285 413.728 204.68 414.396 204.812C414.797 204.812 415.064 204.812 415.331 204.417C415.999 203.098 416.534 201.779 417.068 201.252C419.072 199.537 429.495 206.263 432.702 204.153Z" fill="#F6BB92"/>
<path d="M410.905 210.079C410.905 210.079 410.411 209.061 410.781 204.261C411.028 203.68 411.646 202.662 412.757 203.68C413.498 204.407 411.522 206.734 410.905 210.079Z" fill="#D6876B"/>
<path d="M410.644 210.079C410.644 210.079 408.159 208.929 407.228 204.476C407.383 203.901 408.004 203.47 408.315 203.327C409.867 202.896 410.488 204.332 410.488 204.332C410.178 209.073 410.644 210.079 410.644 210.079Z" fill="#CC785E"/>
<path d="M463.982 233.04C462.793 249.716 437.544 270.022 411.503 245.143C409.785 243.529 407.802 239.898 412.032 234.923C414.94 231.426 418.774 229.274 418.774 229.274C419.963 228.602 421.153 227.929 422.475 227.257C423.929 226.45 431.86 228.198 432.257 226.45C435.958 210.312 444.947 204.126 449.309 204.395C459.356 207.219 465.304 215.288 463.982 233.04Z" fill="#602F0F"/>
<path d="M423.165 232.82C416.061 229.808 415.927 226.795 416.597 222.604L427.856 225.878L432.279 228.367C431.475 232.558 430.269 235.833 423.165 232.82Z" fill="#F6BB92"/>
<path d="M437.681 257.702C440.615 261.871 448.75 260.661 455.818 255.013C462.752 249.365 466.086 241.565 463.019 237.396C460.085 233.227 453.817 235.109 446.883 240.623C439.815 246.271 434.747 253.533 437.681 257.702Z" fill="#4C230C"/>
<path d="M427.679 226.019C430.088 226.956 431.694 227.893 432.631 228.696V228.562C432.23 229.499 432.096 229.9 432.096 229.9C432.765 229.9 433.568 230.034 434.237 230.034L436.379 225.35C436.379 225.35 435.442 225.483 434.103 225.483C433.167 225.483 431.962 225.35 430.624 224.948C426.475 224.145 427.679 226.019 427.679 226.019Z" fill="#602F0F"/>
<path d="M437.448 260.144C440.66 264.427 449.359 263.089 457.122 256.932C464.751 250.776 468.498 242.344 465.286 238.061C462.074 233.778 455.382 235.786 447.753 241.942C439.991 247.965 434.236 255.728 437.448 260.144Z" fill="#602F0F"/>
<path d="M452.799 258.902C453.175 259.504 455.179 258.15 457.308 256.043C459.563 253.937 461.066 251.831 460.69 251.229C460.314 250.627 458.686 251.831 456.557 253.937C454.427 256.043 452.548 258.3 452.799 258.902Z" fill="#4C230C"/>
</svg>
