<svg width="500" height="500" viewBox="0 0 500 500" fill="none" xmlns="http://www.w3.org/2000/svg">
<path d="M271.904 217.737C264.778 218.302 257.722 219.501 250.702 220.983C240.789 223.1 231.475 226.839 222.127 230.649C207.133 236.752 193.375 245.078 179.722 253.58C169.385 260.001 158.731 265.928 148.536 272.525C136.823 280.074 125.005 287.553 113.751 295.808C109.659 298.807 105.602 301.876 101.616 304.981C101.792 305.475 101.898 306.039 102.145 306.498C104.579 310.625 106.308 315.035 108.283 319.374C108.424 319.374 108.53 319.41 108.671 319.41C109.165 318.845 109.871 318.633 110.506 318.316C117.526 314.894 124.582 311.507 131.602 308.085C145.608 301.276 159.613 294.432 173.619 287.624C183.426 282.826 193.269 278.063 203.076 273.265C214.753 267.515 226.395 261.729 238.072 255.979C239.73 255.168 241 254.427 241.741 252.275C243.047 248.465 245.163 244.937 247.033 241.339C247.915 239.61 249.503 238.975 250.843 239.61C251.866 240.104 252.325 241.903 251.655 243.42C250.243 246.524 248.797 249.594 247.245 252.628C246.257 254.533 246.292 254.638 248.479 254.885C251.796 255.273 255.041 255.838 258.287 256.685C260.015 257.143 260.298 258.343 260.157 259.613C260.015 260.883 258.745 260.706 257.828 260.636C253.383 260.248 248.973 259.789 244.528 259.33C243.54 259.225 242.553 259.013 241.565 259.507C230.452 265.257 219.198 270.796 207.909 276.299C190.023 285.048 172.208 293.868 154.392 302.688C140.492 309.567 126.593 316.446 112.693 323.325C111.988 323.678 111.353 324.137 110.506 324.066C112.658 328.97 114.81 333.838 116.962 338.742C120.207 338.283 123.1 336.802 126.028 335.532C139.152 329.852 152.628 325.019 165.858 319.586C183.92 312.142 202.159 305.051 220.433 298.137C232.322 293.621 244.352 289.564 255.923 284.343C265.096 280.215 273.562 274.853 281.147 268.15C283.511 266.069 285.204 263.493 286.58 260.706C285.98 260.389 285.875 259.789 285.698 259.225C281.359 246.524 276.984 233.86 272.716 221.124C272.363 220.066 271.552 219.007 271.904 217.737Z" fill="#696D66"/>
<path d="M332.371 250.44C332.371 263.034 332.195 275.629 332.407 288.223C332.583 298.207 334.594 307.944 337.522 317.504C338.721 321.42 340.309 325.301 341.015 329.287C342.884 339.871 346.447 349.996 348.987 360.403C350.363 366.012 351.386 371.692 352.409 377.336C352.621 378.5 352.974 379.665 353.256 380.794C353.75 382.734 354.667 383.475 356.713 383.439C358.724 383.404 360.77 383.228 362.781 383.192C365.745 383.157 368.743 383.298 371.707 383.404C377.422 383.581 383.137 383.016 388.852 383.439C391.357 383.616 391.815 383.016 391.815 380.582C391.815 379.1 391.851 377.583 391.815 376.102C391.745 373.738 390.828 372.397 388.57 371.762C382.996 370.245 377.422 368.799 371.848 367.317C370.754 367.035 370.013 366.612 369.661 365.377C368.179 360.12 365.815 355.111 364.827 349.678C363.981 344.986 363.734 340.223 363.169 335.496C362.499 329.957 361.864 324.383 361.264 318.845C360.806 314.929 360.241 311.048 360.03 307.132C359.571 298.454 359.042 289.74 359.359 281.026C359.747 269.385 359.43 257.743 359.571 246.101C359.571 244.937 360.418 243.772 359.571 242.644C358.901 242.891 358.266 243.208 357.56 243.349C353.856 244.161 350.152 244.901 346.483 245.748C341.614 246.877 337.063 248.958 332.371 250.44Z" fill="#F7BB92"/>
<path d="M359.218 196.57C359.712 180.766 359.782 164.926 359.43 149.121C359.253 141.289 359.888 133.563 360.911 125.837C361.793 119.24 362.499 112.608 363.557 106.011C364.721 98.6025 366.168 91.2293 369.413 84.35C370.578 81.8806 370.895 79.3758 370.013 76.7299C368.849 73.2374 368.496 69.4979 366.838 66.1464C366.344 65.1233 365.744 64.5589 364.651 64.3119C361.299 63.5358 357.948 62.5833 354.526 62.16C352.903 61.9483 351.562 62.1952 350.363 63.5005C348.211 65.8289 345.918 67.9809 343.413 69.9212C342.108 70.909 342.39 72.4965 342.461 73.9077C342.672 77.1533 343.448 80.293 344.366 83.327C345.107 85.7965 344.895 88.0896 344.472 90.4885C342.919 98.7436 341.72 107.034 340.556 115.324C339.709 121.569 338.721 127.778 337.804 134.022C337.592 135.504 337.451 136.985 337.381 138.467C337.098 146.863 336.922 155.26 336.534 163.656C336.216 170.676 336.075 177.732 335.758 184.752C335.617 187.963 335.793 191.208 335.193 194.383C334.876 196.006 335.652 197.558 335.44 199.181C335.723 199.71 336.216 199.604 336.675 199.569C341.05 199.357 345.283 198.193 349.622 197.699C352.868 197.347 355.972 196.394 359.218 196.57Z" fill="#F7BB92"/>
<path d="M359.218 196.571C355.973 196.394 352.904 197.382 349.729 197.735C345.389 198.229 341.156 199.393 336.781 199.605C336.287 199.64 335.829 199.746 335.547 199.217C334.277 199.71 333.007 199.287 331.878 198.934C326.268 197.17 321.082 198.652 315.967 200.734C312.792 202.039 309.652 203.45 306.865 205.531C304.184 207.507 300.833 207.966 297.905 209.341C297.27 209.624 296.493 209.694 296.105 210.4C296.211 211.105 296.282 211.811 296.458 212.481C298.328 219.396 300.162 226.346 302.067 233.26C303.62 238.975 305.207 244.69 306.759 250.405C311.099 249.523 315.226 250.97 319.389 251.711C322.741 252.31 326.021 252.064 329.267 251.076C330.29 250.758 331.348 250.617 332.407 250.405C337.134 248.924 341.685 246.842 346.518 245.749C350.187 244.902 353.927 244.161 357.596 243.35C358.266 243.209 358.936 242.891 359.606 242.644C359.148 239.187 359.677 235.73 359.501 232.272C352.445 229.485 345.389 226.698 337.946 223.77C345.354 221.019 352.445 218.373 359.501 215.762C359.536 209.73 359.113 203.697 359.606 197.664C359.606 197.241 359.536 196.888 359.218 196.571Z" fill="#8A8AD9"/>
<path d="M381.091 232.307C382.784 238.869 386.171 244.09 392.662 246.807C393.72 247.23 393.614 247.689 393.262 248.5C390.192 255.626 390.157 263.035 390.863 270.584C391.533 270.655 391.709 270.126 392.027 269.808C392.909 268.926 393.791 268.044 394.602 267.092C401.34 258.942 409.49 252.733 419.332 248.782C421.696 247.83 423.919 246.489 425.718 244.584C428.963 241.056 430.163 236.893 429.14 232.201C428.575 229.485 426.952 227.509 424.448 226.239C424.624 228.215 424.13 230.12 423.742 232.06C421.625 242.573 412.206 251.357 400 249.488C397.883 249.17 395.837 248.5 393.756 246.701C395.308 246.701 396.437 246.56 397.53 246.736C399.33 247.018 401.093 247.23 402.963 247.054C407.267 246.595 410.971 244.902 414.146 242.044C418.345 238.304 420.849 233.648 421.661 228.039C422.014 225.569 422.155 225.569 424.448 226.204C424.024 223.276 424.271 220.277 423.389 217.42C422.155 213.327 420.532 209.412 417.78 206.06C414.57 202.144 410.266 200.451 405.433 199.745C404.868 199.675 404.268 198.899 403.633 199.71C403.563 200.909 404.163 201.862 404.692 202.85C405.08 203.555 405.15 204.19 404.692 205.002C401.27 210.787 397.777 216.502 394.849 222.535C393.861 224.581 392.591 225.428 390.439 225.075C388.711 224.793 387.547 225.569 386.453 226.804C384.76 228.709 382.89 230.473 381.091 232.307Z" fill="#7A4720"/>
<path d="M381.091 232.308C382.89 230.473 384.759 228.745 386.453 226.804C387.546 225.57 388.711 224.793 390.439 225.076C392.591 225.428 393.861 224.582 394.849 222.536C397.777 216.503 401.27 210.753 404.692 205.002C405.15 204.191 405.08 203.591 404.692 202.85C404.163 201.863 403.563 200.91 403.633 199.711C401.622 199.746 399.612 199.711 397.565 199.993C395.343 200.31 393.332 199.005 391.11 198.829C390.933 198.829 390.757 198.723 390.58 198.687C387.37 198.052 386.453 198.899 387.017 202.215C387.229 203.521 386.453 203.944 385.571 204.297C382.96 205.32 380.35 206.308 377.739 207.26C376.222 207.825 375.728 208.918 375.693 210.435C375.552 215.903 375.552 215.903 370.013 215.868C366.485 215.833 362.993 215.833 359.465 215.833C352.409 218.443 345.318 221.089 337.91 223.841C345.354 226.769 352.409 229.556 359.465 232.343C366.662 232.308 373.894 232.308 381.091 232.308Z" fill="#F6BB92"/>
<path d="M306.724 250.44C305.171 244.725 303.584 239.01 302.032 233.295C300.162 226.38 298.292 219.431 296.422 212.516C296.246 211.846 296.175 211.105 296.07 210.435C289.825 212.34 283.581 214.209 277.302 216.114C275.502 216.644 273.703 217.208 271.869 217.737C271.551 219.007 272.327 220.03 272.68 221.124C276.984 233.824 281.323 246.524 285.662 259.225C285.839 259.789 285.945 260.389 286.544 260.706C287.285 260.706 287.885 260.353 288.485 259.93C293.706 256.332 299.562 253.897 305.242 251.181C305.771 250.934 306.23 250.687 306.724 250.44Z" fill="#F7BA92"/>
<path d="M108.318 319.374C106.343 315.035 104.614 310.625 102.18 306.497C101.898 306.039 101.827 305.51 101.651 304.98C97.8054 306.074 93.7131 304.628 89.9031 306.639C86.34 308.508 82.5652 310.025 78.9315 311.86C77.6262 312.53 76.5326 313.341 75.6859 314.541C74.6628 315.987 73.3575 317.257 72.3344 318.739C70.5 321.35 70.0767 324.489 70.9586 327.276C71.8759 330.204 73.3575 333.062 75.439 335.496C75.7212 335.461 76.0387 335.461 76.2856 335.355C87.1867 330.451 97.5585 324.56 108.318 319.374Z" fill="#F7BA92"/>
<path d="M116.961 338.742C114.809 333.838 112.657 328.97 110.506 324.066C110.364 323.819 110.223 323.572 110.047 323.325C109.8 324.348 109.059 324.807 108.142 325.23C98.6167 329.816 89.1268 334.473 79.637 339.095C78.8961 339.447 78.12 339.765 77.5908 340.47C79.0372 343.787 80.7306 346.997 82.4945 350.172C83.5529 352.042 85.2815 352.853 87.2923 353.065C92.7605 353.665 97.77 352.289 102.533 349.678C103.838 348.973 105.178 348.267 106.59 347.808C109.941 346.715 112.128 344.175 114.139 341.529C114.986 340.47 116.221 339.871 116.961 338.742Z" fill="#F7BA92"/>
<path d="M77.626 340.47C78.1551 339.765 78.9313 339.447 79.6721 339.095C89.162 334.473 98.6519 329.852 108.177 325.23C109.059 324.807 109.835 324.313 110.082 323.325C109.623 322.02 109.165 320.715 108.706 319.409C108.565 319.409 108.459 319.374 108.318 319.374C97.5582 324.525 87.1864 330.451 76.3207 335.355C76.0737 335.461 75.7562 335.461 75.474 335.496C75.6857 337.401 77.0615 338.742 77.626 340.47Z" fill="#E08E55"/>
<path d="M108.706 319.41C109.165 320.715 109.624 322.02 110.082 323.325C110.223 323.572 110.365 323.819 110.541 324.066C111.352 324.102 112.023 323.678 112.728 323.325C126.628 316.446 140.528 309.532 154.427 302.688C172.243 293.903 190.058 285.048 207.909 276.335C219.163 270.831 230.417 265.293 241.565 259.542C242.553 259.013 243.54 259.26 244.528 259.366C248.973 259.824 253.383 260.248 257.828 260.671C258.745 260.742 260.015 260.918 260.156 259.648C260.298 258.378 260.015 257.179 258.287 256.72C255.041 255.873 251.795 255.274 248.479 254.921C246.292 254.674 246.257 254.568 247.245 252.663C248.797 249.629 250.243 246.56 251.654 243.455C252.36 241.938 251.901 240.139 250.843 239.645C249.502 239.01 247.915 239.645 247.033 241.374C245.163 244.972 243.046 248.5 241.741 252.31C241 254.462 239.73 255.203 238.072 256.014C226.395 261.765 214.753 267.55 203.076 273.301C193.269 278.134 183.461 282.897 173.619 287.659C159.613 294.468 145.608 301.312 131.602 308.121C124.582 311.543 117.526 314.929 110.506 318.351C109.906 318.633 109.165 318.845 108.706 319.41Z" fill="#343732"/>
<path d="M424.448 226.239C422.154 225.604 422.013 225.604 421.661 228.074C420.849 233.683 418.344 238.34 414.146 242.079C410.971 244.937 407.267 246.63 402.963 247.089C401.093 247.265 399.329 247.053 397.53 246.771C396.437 246.595 395.308 246.736 393.755 246.736C395.802 248.5 397.883 249.17 400 249.523C412.206 251.393 421.625 242.608 423.742 232.095C424.13 230.12 424.624 228.215 424.448 226.239Z" fill="#5C3513"/>
</svg>
