<svg width="500" height="500" viewBox="0 0 500 500" fill="none" xmlns="http://www.w3.org/2000/svg">
<path d="M274.771 227.076C266.712 227.715 258.732 229.071 250.793 230.747C239.581 233.141 229.048 237.37 218.475 241.679C201.518 248.581 185.958 257.997 170.517 267.613C158.827 274.874 146.778 281.577 135.247 289.038C122.001 297.576 108.635 306.035 95.9074 315.371C91.2792 318.762 86.6909 322.234 82.1824 325.745C82.3819 326.303 82.5016 326.942 82.7809 327.46C85.5339 332.128 87.4889 337.116 89.7232 342.023C89.8828 342.023 90.0025 342.063 90.1621 342.063C90.7207 341.425 91.5187 341.185 92.2368 340.826C100.177 336.956 108.156 333.126 116.096 329.256C131.936 321.555 147.775 313.815 163.615 306.115C174.707 300.688 185.838 295.302 196.93 289.876C210.136 283.373 223.303 276.829 236.509 270.326C238.384 269.408 239.821 268.57 240.658 266.137C242.135 261.828 244.529 257.838 246.643 253.768C247.641 251.813 249.436 251.095 250.952 251.813C252.109 252.372 252.628 254.406 251.87 256.122C250.274 259.633 248.638 263.104 246.883 266.536C245.765 268.69 245.805 268.81 248.279 269.089C252.029 269.528 255.7 270.166 259.371 271.124C261.326 271.643 261.645 272.999 261.485 274.435C261.326 275.872 259.889 275.672 258.852 275.592C253.825 275.154 248.838 274.635 243.81 274.116C242.693 273.997 241.576 273.757 240.459 274.316C227.891 280.819 215.163 287.083 202.396 293.307C182.168 303.202 162.019 313.177 141.87 323.151C126.15 330.931 110.43 338.712 94.7105 346.492C93.9125 346.891 93.1944 347.409 92.2368 347.33C94.6706 352.875 97.1044 358.381 99.5382 363.927C103.209 363.409 106.481 361.733 109.792 360.297C124.634 353.873 139.875 348.407 154.837 342.263C175.265 333.844 195.893 325.824 216.56 318.004C230.006 312.897 243.611 308.309 256.698 302.404C267.071 297.736 276.647 291.671 285.225 284.091C287.898 281.737 289.813 278.824 291.369 275.672C290.691 275.313 290.571 274.635 290.372 273.997C285.464 259.633 280.517 245.31 275.689 230.906C275.29 229.709 274.372 228.513 274.771 227.076Z" fill="#696D66"/>
<path d="M343.156 264.062C343.156 278.305 342.957 292.549 343.196 306.793C343.396 318.084 345.67 329.096 348.982 339.908C350.338 344.337 352.134 348.726 352.932 353.234C355.046 365.204 359.076 376.655 361.949 388.425C363.505 394.768 364.662 401.192 365.819 407.576C366.058 408.892 366.457 410.209 366.776 411.486C367.335 413.68 368.372 414.518 370.686 414.478C372.961 414.438 375.275 414.239 377.549 414.199C380.9 414.159 384.292 414.319 387.643 414.438C394.107 414.638 400.57 413.999 407.034 414.478C409.866 414.678 410.385 413.999 410.385 411.246C410.385 409.571 410.425 407.855 410.385 406.179C410.305 403.506 409.268 401.99 406.714 401.272C400.411 399.556 394.107 397.92 387.803 396.245C386.566 395.925 385.728 395.447 385.329 394.05C383.653 388.105 380.98 382.44 379.863 376.296C378.905 370.989 378.626 365.603 377.988 360.256C377.23 353.992 376.511 347.688 375.833 341.424C375.315 336.996 374.676 332.607 374.437 328.178C373.918 318.363 373.32 308.508 373.679 298.653C374.118 285.487 373.758 272.321 373.918 259.154C373.918 257.838 374.876 256.521 373.918 255.244C373.16 255.523 372.442 255.883 371.644 256.042C367.455 256.96 363.265 257.798 359.116 258.755C353.61 260.032 348.463 262.386 343.156 264.062Z" fill="#F7BB92"/>
<path d="M373.52 203.137C374.079 185.263 374.159 167.349 373.76 149.474C373.56 140.617 374.278 131.879 375.435 123.141C376.433 115.68 377.231 108.179 378.428 100.718C379.744 92.3397 381.38 84.001 385.051 76.2208C386.367 73.428 386.727 70.5952 385.729 67.6028C384.412 63.6529 384.013 59.4237 382.138 55.6333C381.58 54.4763 380.901 53.8379 379.665 53.5586C375.874 52.6809 372.084 51.6036 368.214 51.1248C366.378 50.8854 364.862 51.1647 363.506 52.641C361.072 55.2742 358.479 57.708 355.646 59.9024C354.17 61.0196 354.489 62.815 354.569 64.4109C354.808 68.0816 355.686 71.6325 356.723 75.0638C357.561 77.8567 357.322 80.4501 356.843 83.1631C355.087 92.4993 353.731 101.875 352.414 111.252C351.456 118.314 350.339 125.336 349.302 132.398C349.063 134.073 348.903 135.749 348.823 137.425C348.504 146.921 348.304 156.416 347.866 165.912C347.507 173.852 347.347 181.832 346.988 189.771C346.828 193.402 347.028 197.073 346.349 200.664C345.99 202.499 346.868 204.254 346.629 206.09C346.948 206.688 347.507 206.569 348.025 206.529C352.973 206.289 357.76 204.973 362.668 204.414C366.339 204.015 369.85 202.938 373.52 203.137Z" fill="#F7BB92"/>
<path d="M373.52 203.137C369.849 202.937 366.378 204.055 362.787 204.454C357.879 205.012 353.092 206.329 348.144 206.568C347.586 206.608 347.067 206.728 346.748 206.129C345.312 206.688 343.875 206.209 342.598 205.81C336.255 203.815 330.39 205.491 324.604 207.845C321.013 209.321 317.463 210.917 314.311 213.271C311.278 215.505 307.488 216.024 304.176 217.58C303.458 217.899 302.58 217.979 302.142 218.777C302.261 219.575 302.341 220.373 302.541 221.131C304.655 228.951 306.73 236.811 308.884 244.631C310.64 251.095 312.435 257.558 314.191 264.022C319.098 263.024 323.766 264.66 328.474 265.498C332.265 266.176 335.975 265.897 339.646 264.78C340.803 264.421 342 264.261 343.197 264.022C348.543 262.346 353.69 259.992 359.156 258.755C363.306 257.798 367.535 256.96 371.684 256.042C372.442 255.882 373.2 255.523 373.958 255.244C373.44 251.334 374.038 247.424 373.839 243.514C365.859 240.362 357.879 237.21 349.461 233.898C357.84 230.786 365.859 227.794 373.839 224.842C373.879 218.019 373.4 211.196 373.958 204.374C373.958 203.895 373.879 203.496 373.52 203.137Z" fill="#8A8AD9"/>
<path d="M398.257 243.555C400.172 250.976 404.002 256.881 411.343 259.953C412.54 260.432 412.421 260.95 412.022 261.868C408.55 269.928 408.51 278.306 409.308 286.844C410.067 286.924 410.266 286.326 410.625 285.967C411.623 284.969 412.62 283.972 413.538 282.894C421.158 273.678 430.375 266.656 441.506 262.187C444.18 261.11 446.693 259.594 448.728 257.439C452.399 253.45 453.755 248.742 452.598 243.435C451.96 240.363 450.124 238.129 447.292 236.692C447.491 238.927 446.933 241.081 446.494 243.275C444.1 255.165 433.447 265.1 419.642 262.985C417.248 262.626 414.934 261.868 412.58 259.833C414.336 259.833 415.612 259.674 416.849 259.873C418.884 260.192 420.879 260.432 422.994 260.232C427.861 259.714 432.05 257.798 435.641 254.567C440.389 250.337 443.222 245.071 444.14 238.727C444.539 235.934 444.698 235.934 447.292 236.652C446.813 233.341 447.092 229.949 446.095 226.718C444.698 222.089 442.863 217.661 439.751 213.87C436.12 209.442 431.252 207.527 425.786 206.729C425.148 206.649 424.47 205.771 423.752 206.689C423.672 208.045 424.35 209.123 424.949 210.24C425.387 211.038 425.467 211.756 424.949 212.673C421.078 219.217 417.129 225.68 413.817 232.503C412.7 234.817 411.263 235.775 408.83 235.376C406.875 235.056 405.558 235.934 404.321 237.331C402.406 239.485 400.291 241.48 398.257 243.555Z" fill="#7A4720"/>
<path d="M398.256 243.553C400.291 241.478 402.406 239.523 404.321 237.328C405.558 235.932 406.874 235.054 408.829 235.373C411.263 235.772 412.7 234.815 413.817 232.501C417.128 225.678 421.078 219.175 424.948 212.671C425.467 211.754 425.387 211.075 424.948 210.237C424.35 209.12 423.672 208.043 423.751 206.687C421.477 206.726 419.203 206.687 416.889 207.006C414.375 207.365 412.101 205.889 409.588 205.689C409.388 205.689 409.189 205.569 408.989 205.529C405.358 204.811 404.321 205.769 404.959 209.519C405.199 210.996 404.321 211.474 403.324 211.873C400.371 213.03 397.419 214.147 394.466 215.225C392.75 215.863 392.192 217.1 392.152 218.816C391.992 225 391.992 225 385.728 224.96C381.739 224.92 377.789 224.92 373.799 224.92C365.819 227.873 357.8 230.865 349.421 233.977C357.84 237.289 365.819 240.44 373.799 243.592C381.938 243.553 390.117 243.553 398.256 243.553Z" fill="#F6BB92"/>
<path d="M314.151 264.061C312.395 257.598 310.6 251.134 308.844 244.67C306.73 236.85 304.615 228.99 302.501 221.17C302.301 220.412 302.221 219.574 302.102 218.816C295.04 220.971 287.978 223.086 280.876 225.24C278.841 225.838 276.806 226.477 274.731 227.075C274.372 228.512 275.25 229.669 275.649 230.906C280.517 245.269 285.424 259.632 290.332 273.996C290.531 274.634 290.651 275.312 291.329 275.671C292.167 275.671 292.845 275.272 293.523 274.794C299.428 270.724 306.052 267.971 312.475 264.899C313.074 264.62 313.592 264.34 314.151 264.061Z" fill="#F7BA92"/>
<path d="M89.7632 342.025C87.5289 337.117 85.5739 332.13 82.8209 327.462C82.5017 326.943 82.4219 326.345 82.2224 325.746C77.8735 326.983 73.2453 325.347 68.9363 327.621C64.9066 329.736 60.6375 331.452 56.5279 333.526C55.0517 334.284 53.8148 335.202 52.8573 336.559C51.7002 338.194 50.224 339.631 49.0669 341.306C46.9922 344.259 46.5135 347.81 47.5109 350.962C48.5483 354.273 50.224 357.505 52.578 360.258C52.8972 360.218 53.2563 360.218 53.5356 360.099C65.8641 354.553 77.5942 347.89 89.7632 342.025Z" fill="#F7BA92"/>
<path d="M99.5381 363.928C97.1043 358.382 94.6705 352.876 92.2367 347.33C92.0771 347.051 91.9175 346.771 91.718 346.492C91.4387 347.649 90.6009 348.168 89.5635 348.647C78.791 353.833 68.0584 359.1 57.3257 364.327C56.4879 364.726 55.6101 365.085 55.0116 365.883C56.6474 369.633 58.5626 373.264 60.5575 376.855C61.7544 378.969 63.7094 379.887 65.9836 380.126C72.1679 380.805 77.8335 379.249 83.2197 376.296C84.696 375.498 86.2121 374.7 87.808 374.182C91.5984 372.945 94.072 370.072 96.3462 367.08C97.3038 365.883 98.7002 365.204 99.5381 363.928Z" fill="#F7BA92"/>
<path d="M55.0514 365.883C55.6499 365.085 56.5277 364.726 57.3655 364.327C68.0982 359.1 78.8308 353.873 89.6033 348.647C90.6008 348.168 91.4785 347.609 91.7578 346.492C91.2391 345.016 90.7205 343.54 90.2018 342.063C90.0422 342.063 89.9225 342.023 89.7629 342.023C77.5939 347.849 65.8638 354.551 53.5752 360.097C53.2959 360.217 52.9368 360.217 52.6176 360.257C52.857 362.411 54.413 363.928 55.0514 365.883Z" fill="#E08E55"/>
<path d="M90.202 342.065C90.7207 343.541 91.2393 345.017 91.758 346.493C91.9176 346.773 92.0772 347.052 92.2767 347.331C93.1944 347.371 93.9524 346.892 94.7504 346.493C110.47 338.713 126.19 330.893 141.91 323.153C162.059 313.218 182.207 303.204 202.396 293.349C215.123 287.125 227.851 280.861 240.459 274.357C241.576 273.759 242.693 274.038 243.81 274.158C248.838 274.676 253.825 275.155 258.852 275.634C259.889 275.714 261.326 275.913 261.485 274.477C261.645 273.041 261.326 271.684 259.371 271.165C255.7 270.208 252.029 269.529 248.279 269.13C245.805 268.851 245.765 268.732 246.883 266.577C248.638 263.146 250.274 259.675 251.87 256.164C252.668 254.448 252.149 252.413 250.952 251.855C249.436 251.136 247.641 251.855 246.643 253.81C244.529 257.879 242.135 261.869 240.658 266.178C239.821 268.612 238.384 269.45 236.509 270.367C223.303 276.871 210.136 283.414 196.93 289.918C185.838 295.384 174.746 300.77 163.615 306.156C147.775 313.856 131.936 321.597 116.096 329.297C108.156 333.167 100.177 336.997 92.2368 340.868C91.5585 341.187 90.7207 341.426 90.202 342.065Z" fill="#343732"/>
<path d="M447.291 236.691C444.698 235.973 444.538 235.973 444.139 238.766C443.222 245.11 440.389 250.376 435.641 254.605C432.05 257.837 427.861 259.752 422.993 260.271C420.879 260.47 418.884 260.231 416.849 259.912C415.612 259.712 414.335 259.872 412.58 259.872C414.894 261.867 417.248 262.625 419.642 263.024C433.447 265.139 444.1 255.204 446.493 243.314C446.932 241.08 447.491 238.925 447.291 236.691Z" fill="#5C3513"/>
</svg>
