<svg width="500" height="500" viewBox="0 0 500 500" fill="none" xmlns="http://www.w3.org/2000/svg">
<path d="M336.054 83.0312C332.326 82.8296 333.232 98.8514 331.923 103.587L334.139 109.432C329.706 144.196 331.116 160.621 331.116 160.621C327.489 181.278 326.28 218.763 327.187 226.723C327.59 231.56 348.75 231.157 349.153 225.313C348.851 216.244 347.34 213.422 347.138 205.361C347.541 197.4 344.317 168.581 344.014 161.629C344.014 160.621 342.604 110.036 342.604 110.036C342.604 110.036 342.805 108.021 344.115 104.696C346.03 100.161 346.03 93.2085 344.518 89.2787C343.41 86.0542 339.782 83.3335 336.054 83.0312Z" fill="#F6BB92"/>
<path d="M333.837 98.8513C333.837 98.8513 334.543 93.8131 331.923 93.2085C329.706 92.6039 328.9 92.7046 331.923 103.688C331.923 103.587 333.434 103.487 333.837 98.8513Z" fill="#F6BB92"/>
<path d="M360.641 379.383C356.409 376.763 344.72 375.453 344.921 372.833C346.433 351.874 352.479 320.435 352.479 320.435C353.99 299.577 362.152 268.339 362.152 260.681C360.439 252.922 345.425 245.163 345.123 253.224C344.115 262.596 342.906 267.029 341.898 276.703C340.387 288.694 338.573 313.885 339.581 320.838C339.682 321.745 336.558 373.942 337.364 377.065C338.271 380.592 340.589 379.786 347.642 380.592C352.882 381.298 364.571 381.801 360.641 379.383Z" fill="#F6BB92"/>
<path d="M252.418 250L238.009 256.046C238.009 256.046 236.296 280.532 239.218 287.183C242.14 293.833 256.147 308.847 256.147 308.847L275.292 301.592L252.418 250Z" fill="#3D3C3C"/>
<path d="M335.55 273.177C339.48 271.867 341.092 270.859 345.022 269.045C352.982 265.317 362.253 260.782 362.253 260.782C361.245 256.248 359.935 251.814 358.726 248.388L354.494 236.498C353.285 233.072 351.572 228.84 349.456 224.708C349.456 224.708 328.093 219.972 315.095 224.406C301.894 228.84 266.324 246.474 252.317 250.101L263.905 276.3L275.191 301.794C296.654 283.455 311.064 275.998 323.962 274.486C328.396 273.983 332.527 274.184 335.55 273.177Z" fill="#FF8AA0"/>
<path d="M82.8297 356.61C83.4343 360.843 85.6511 364.974 87.1626 365.075C90.0848 365.478 95.4254 359.029 99.2545 358.223C101.673 357.719 107.719 353.285 109.13 352.58C116.788 349.053 132.003 343.309 141.173 338.976C143.289 337.969 145.405 336.86 147.622 335.651C156.489 330.915 141.173 316.002 138.15 318.017C126.058 326.179 106.006 341.899 101.975 345.325C101.975 345.325 91.4955 348.65 87.9687 349.859C85.8527 350.665 82.1243 351.673 82.8297 356.61Z" fill="#F6BB92"/>
<path d="M175.03 317.815C165.76 324.869 156.59 330.915 147.722 335.752C147.118 332.326 140.568 320.334 138.25 318.118C141.273 316.102 143.692 314.49 145.304 313.482C153.063 308.746 165.357 301.894 165.357 301.894C172.108 297.36 218.46 264.611 229.746 259.573C241.032 254.534 248.992 251.814 248.992 251.713L255.441 263.805C249.697 270.052 256.147 277.912 249.697 283.051C233.776 291.012 204.051 304.816 196.493 307.94C189.036 311.165 175.03 317.815 175.03 317.815Z" fill="#3D3C3C"/>
<path d="M93.1075 376.562C90.0845 373.639 87.9684 369.407 88.7745 368.097C90.1853 365.477 98.4481 364.873 101.37 362.253C103.184 360.54 110.338 358.222 111.749 357.416C119.105 353.285 132.608 344.216 141.475 339.278C143.49 338.17 145.707 337.061 147.924 335.953C156.892 331.519 160.218 352.579 156.791 353.889C143.188 358.928 118.702 366.183 113.563 367.392C113.563 367.392 104.796 373.942 101.673 376.159C99.6573 377.569 96.735 380.088 93.1075 376.562Z" fill="#F6BB92"/>
<path d="M178.356 324.163C167.171 327.59 156.892 331.519 147.924 335.953C150.443 338.472 156.389 350.766 156.792 353.889C160.218 352.68 162.938 351.572 164.651 350.866C173.015 347.34 185.712 341.294 185.712 341.294C193.37 338.472 246.876 319.831 257.558 313.583C268.239 307.336 274.99 301.793 274.99 301.793L269.045 290.105C260.581 291.112 257.961 281.338 250 283.555C234.281 291.918 205.764 308.041 198.811 312.374C191.858 316.606 178.356 324.163 178.356 324.163Z" fill="#3D3C3C"/>
<path d="M370.012 244.861L364.47 228.738C357.719 233.877 353.486 232.668 353.486 232.668C353.486 232.668 348.65 234.885 351.169 242.241C353.688 249.597 358.827 248.388 358.827 248.388C358.827 248.388 361.548 244.861 370.012 244.861Z" fill="#ECAD83"/>
<path d="M387.042 216.344C392.483 212.817 397.42 215.639 400.242 217.654C409.008 223.801 409.412 229.847 408.908 237.606C408.102 247.783 380.895 249.597 376.461 248.388C364.873 245.163 361.447 228.537 361.85 221.886C362.152 214.53 364.571 216.546 367.493 217.049C367.594 217.049 368.098 216.747 368.098 216.747C369.105 216.848 370.516 216.949 371.826 216.445C371.826 216.445 372.733 216.747 373.237 216.848C373.539 216.848 373.74 216.848 373.942 216.546C374.446 215.538 374.849 214.53 375.252 214.127C376.763 212.817 384.623 217.956 387.042 216.344Z" fill="#F6BB92"/>
<path d="M370.214 220.577C370.214 220.577 369.811 219.871 370.113 216.546C370.314 216.143 370.818 215.438 371.725 216.143C372.33 216.647 370.718 218.259 370.214 220.577Z" fill="#D6876B"/>
<path d="M370.213 220.577C370.213 220.577 368.601 219.771 367.997 216.647C368.097 216.244 368.5 215.942 368.702 215.841C369.71 215.538 370.113 216.546 370.113 216.546C369.911 219.871 370.213 220.577 370.213 220.577Z" fill="#CC785E"/>
<path d="M410.621 238.412C409.714 250.907 390.467 266.122 370.617 247.481C369.307 246.272 367.795 243.551 371.02 239.822C373.236 237.203 376.159 235.59 376.159 235.59C377.066 235.087 377.972 234.583 378.98 234.079C380.089 233.474 386.134 234.784 386.437 233.474C389.258 221.382 396.11 216.747 399.436 216.949C407.094 219.065 411.628 225.111 410.621 238.412Z" fill="#602F0F"/>
<path d="M379.585 238.009C374.244 235.692 374.143 233.374 374.647 230.149L383.111 232.669L386.437 234.583C385.832 237.808 384.925 240.327 379.585 238.009Z" fill="#F6BB92"/>
<path d="M390.165 256.449C392.382 259.572 398.529 258.666 403.869 254.433C409.109 250.201 411.628 244.357 409.311 241.233C407.094 238.109 402.358 239.52 397.118 243.651C391.778 247.884 387.948 253.325 390.165 256.449Z" fill="#4C230C"/>
<path d="M383.011 232.87C384.825 233.575 386.034 234.281 386.739 234.885V234.784C386.437 235.49 386.336 235.792 386.336 235.792C386.84 235.792 387.445 235.893 387.949 235.893L389.561 232.366C389.561 232.366 388.855 232.467 387.848 232.467C387.142 232.467 386.236 232.366 385.228 232.064C382.104 231.459 383.011 232.87 383.011 232.87Z" fill="#602F0F"/>
<path d="M390.367 258.565C392.785 261.79 399.335 260.782 405.18 256.147C410.923 251.512 413.745 245.164 411.326 241.939C408.908 238.715 403.87 240.226 398.126 244.861C392.282 249.396 387.949 255.24 390.367 258.565Z" fill="#602F0F"/>
<path d="M401.552 257.356C401.854 257.759 403.466 256.852 405.179 255.442C406.993 254.031 408.202 252.62 407.9 252.217C407.598 251.814 406.288 252.62 404.575 254.031C402.862 255.442 401.35 256.953 401.552 257.356Z" fill="#4C230C"/>
</svg>
