<svg width="500" height="500" viewBox="0 0 500 500" fill="none" xmlns="http://www.w3.org/2000/svg">
<path d="M295.56 245.782C295.102 245.888 294.573 246.206 294.149 246.135C290.833 245.465 289.281 247.582 287.235 249.734C277.604 259.964 265.539 264.833 251.568 264.692C248.817 264.656 246.559 265.185 244.195 266.35C225.745 275.24 207.259 284.024 188.808 292.879C188.032 293.232 187.362 293.62 186.903 294.431C173.744 318.526 152.718 334.578 130.493 349.395C128.729 350.559 126.93 351.653 124.954 352.393C124.108 351.688 123.226 350.982 122.379 350.277C116.876 345.444 111.866 340.046 105.833 335.742C109.714 330.733 114.018 326.111 118.251 321.419C133.703 304.38 148.485 286.776 162.385 268.431C165.031 264.903 168.276 261.834 171.345 258.624C173.356 256.507 176.073 255.378 178.401 253.685C187.926 246.805 197.91 240.667 208.035 234.74C218.513 228.602 229.519 223.381 240.385 217.877C246.912 214.561 253.579 211.633 260.353 208.987C265.609 206.906 271.359 206.412 277.004 205.706C283.319 204.895 289.598 204.824 295.913 205.283C296.689 205.353 297.465 205.318 298.171 205.671C298.242 208.493 297.959 211.28 297.783 214.067C297.254 222.322 296.936 230.542 296.301 238.797C296.125 241.09 296.478 243.525 295.56 245.782Z" fill="#696D66"/>
<path d="M336.165 360.261C336.201 357.968 335.319 355.745 336.095 353.417C336.448 352.323 336.906 351.512 337.929 351.018C339.764 350.136 341.598 349.289 343.433 348.443C343.927 348.196 344.421 348.09 345.02 348.231C347.843 348.972 350.7 349.713 353.522 350.312C355.569 350.771 357.474 349.677 359.484 349.677C360.049 349.642 360.613 349.677 361.178 349.607C370.139 348.372 379.064 346.996 387.954 345.444C391.517 344.809 391.517 344.844 390.318 341.246C391.447 341.387 391.658 342.375 392.011 343.186C392.576 344.386 393.281 344.985 394.657 344.315C396.139 343.609 395.786 342.586 395.221 341.528C394.798 340.717 394.375 339.905 393.846 339.164C385.732 327.381 378.253 315.21 368.833 304.38C367.422 302.757 366.187 301.099 363.93 300.676C363.647 299.97 362.977 299.688 362.448 299.229C360.331 297.501 358.744 295.454 357.932 292.773C356.451 287.905 355.78 282.931 356.027 277.815C356.309 271.783 359.096 267.232 364.318 264.268C367.81 262.293 371.479 262.293 374.866 264.621C379.029 267.514 381.322 271.712 381.816 276.651C382.204 280.32 382.415 283.742 385.52 286.423C387.637 288.222 388.765 290.974 391.094 292.668C393.951 295.772 395.927 299.547 398.502 302.863C406.122 312.635 412.861 323.007 419.352 333.52C421.292 336.66 423.374 339.87 424.114 343.574C425.526 350.7 423.762 357.086 418.258 361.884C415.401 364.388 411.52 365.2 407.71 365.729C399.913 366.787 392.046 367.07 384.179 367.105C379.981 367.105 375.783 367.634 371.585 367.81C369.786 367.881 367.951 367.528 366.117 367.528C358.532 367.599 350.912 367.74 343.327 367.846C342.551 367.846 341.775 367.775 341.034 367.705C340.681 367.634 340.328 367.528 340.011 367.528C338.247 367.669 337.4 366.964 337.224 365.094C337.047 363.506 336.518 361.884 336.165 360.261Z" fill="#F7BA92"/>
<path d="M391.095 292.632C388.766 290.974 387.637 288.187 385.521 286.388C382.416 283.742 382.169 280.285 381.816 276.616C381.322 271.677 379.065 267.479 374.866 264.586C371.48 262.258 367.811 262.258 364.318 264.233C359.097 267.197 356.31 271.747 356.028 277.78C355.781 282.895 356.451 287.87 357.933 292.738C358.744 295.419 360.367 297.465 362.449 299.194C362.978 299.617 363.683 299.9 363.93 300.64C363.401 300.676 362.872 300.711 362.307 300.746C361.884 300.746 361.461 300.782 361.002 300.782C351.477 298.277 344.598 292.315 340.223 283.813C334.649 272.876 325.83 265.292 316.234 258.271C315.775 257.954 315.387 257.566 314.964 257.213C316.41 255.59 317.786 253.897 319.303 252.38C328.475 243.243 338.071 234.494 347.526 225.639C349.007 225.639 350.031 226.768 351.301 227.297C361.178 231.46 371.656 234.282 381.04 239.644C383.898 241.267 386.156 243.49 387.567 246.559C390.283 252.45 391.483 258.659 391.553 265.115C391.624 271.924 391.306 278.733 391.13 285.577C391.13 287.905 391.906 290.269 391.095 292.632Z" fill="#8A8AD9"/>
<path d="M347.596 225.638C338.142 234.493 328.546 243.242 319.373 252.379C317.821 253.896 316.481 255.589 315.034 257.212C313.694 256.683 312.706 255.695 311.612 254.848C306.991 251.215 301.981 248.322 296.443 246.346C296.125 246.24 295.843 245.993 295.561 245.782C296.513 243.524 296.16 241.09 296.337 238.726C296.972 230.506 297.289 222.251 297.818 213.996C297.995 211.209 298.277 208.422 298.206 205.6C304.415 205.741 310.166 207.857 315.881 209.868C324.665 212.973 333.097 216.959 341.317 221.334C343.504 222.533 346.009 223.45 347.596 225.638Z" fill="#F7BA92"/>
<path d="M105.833 335.706C111.831 339.975 116.84 345.373 122.379 350.241C123.226 350.982 124.108 351.652 124.954 352.358C124.954 354.263 124.954 356.168 124.919 358.037C124.778 361.812 122.802 364.635 120.051 366.998C119.345 367.598 118.428 367.81 117.511 367.845C114.653 367.986 111.76 368.162 108.903 368.198C101.247 368.268 93.6271 368.797 85.9717 368.903C82.6556 368.938 79.1278 368.233 77.1169 364.987C75.0355 361.565 75.0355 357.896 76.5877 354.298C77.1874 352.922 78.6691 352.217 79.8686 351.44C88.0179 346.36 96.3436 341.563 104.352 336.235C104.775 335.918 105.198 335.6 105.833 335.706Z" fill="#F7BB92"/>
<path d="M390.318 341.245C391.518 344.808 391.518 344.808 387.954 345.443C379.064 346.996 370.139 348.372 361.178 349.606C360.614 349.677 360.049 349.677 359.485 349.677C357.298 342.057 355.004 334.437 356.557 326.323C357.65 320.678 359.661 315.527 364.071 311.612C364.424 311.294 364.671 310.835 364.953 310.447C366.117 310.236 366.893 309.354 367.846 308.719C370.174 310.694 371.903 313.27 373.984 315.492C374.584 316.127 374.655 316.833 374.69 317.609C374.549 318.067 374.372 318.526 374.266 319.02C373.596 322.054 373.984 322.795 376.912 323.959C377.935 324.382 378.994 324.806 380.017 325.264C381.675 326.393 382.769 327.981 383.792 329.639C386.12 333.449 388.484 337.188 390.318 341.245Z" fill="#7B4720"/>
<path d="M336.166 360.26C336.519 361.883 337.048 363.505 337.189 365.128C337.365 366.963 338.212 367.668 339.976 367.562C340.329 367.527 340.646 367.668 340.999 367.739C339.341 367.915 337.683 367.88 336.025 367.492C334.579 367.174 333.308 366.68 332.885 365.128C332.462 363.646 333.344 362.588 334.332 361.636C334.896 361.142 335.566 360.718 336.166 360.26Z" fill="#7E4B26"/>
<path d="M367.881 308.719C366.964 309.354 366.188 310.236 364.988 310.448C364.635 307.731 363.683 305.262 362.201 302.968C361.743 302.263 361.214 301.663 361.037 300.817C361.46 300.817 361.884 300.781 362.342 300.781C362.272 301.557 362.73 302.051 363.189 302.616C364.777 304.627 366.329 306.673 367.881 308.719Z" fill="#F5BA92"/>
<path d="M367.881 308.719C366.329 306.673 364.812 304.592 363.189 302.581C362.73 302.016 362.272 301.523 362.342 300.746C362.871 300.711 363.401 300.676 363.965 300.641C366.223 301.064 367.458 302.722 368.869 304.345C378.288 315.175 385.802 327.346 393.881 339.129C394.41 339.87 394.834 340.682 395.257 341.493C395.821 342.551 396.174 343.574 394.692 344.28C393.317 344.95 392.611 344.35 392.047 343.151C391.694 342.34 391.482 341.352 390.353 341.211C388.483 337.154 386.12 333.414 383.827 329.604C382.804 327.946 381.71 326.359 380.052 325.23C380.652 324.842 380.405 324.489 380.087 324.03C378.747 322.125 377.406 320.22 376.101 318.28C375.748 317.751 375.36 317.504 374.76 317.574C374.725 316.798 374.619 316.093 374.055 315.458C371.938 313.27 370.209 310.73 367.881 308.719Z" fill="#DCA680"/>
<path d="M374.725 317.609C375.324 317.539 375.713 317.786 376.065 318.315C377.371 320.255 378.711 322.16 380.052 324.065C380.369 324.489 380.616 324.877 380.016 325.265C378.993 324.842 377.97 324.383 376.912 323.96C374.019 322.795 373.596 322.019 374.266 319.021C374.407 318.527 374.584 318.068 374.725 317.609Z" fill="#F2B68D"/>
</svg>
