<svg width="497" height="497" viewBox="0 0 497 497" fill="none" xmlns="http://www.w3.org/2000/svg">
<path d="M129.899 261.871C138.087 250.215 145.986 238.27 155.234 227.385C167.564 213.706 182.11 202.436 196.848 191.454C227.385 168.528 260.426 144.349 299.247 139.051C298.283 164.867 300.884 192.032 311.288 215.825C294.816 234.995 272.274 228.83 250.119 232.779C220.931 240.293 190.105 248.866 167.757 270.155C162.555 273.141 157.739 290.77 153.211 288.554C141.748 284.508 130.959 274.394 129.899 261.871Z" fill="#3D3C3C"/>
<path d="M311.287 215.73C300.883 192.033 298.282 164.771 299.245 138.955C334.887 133.946 372.456 140.4 401.836 161.978C413.107 170.166 429.098 171.9 435.263 185.867C443.162 202.436 447.304 221.702 442.391 239.716C439.694 244.917 437.478 250.408 433.143 254.55C432.566 254.839 432.084 255.321 431.699 255.899C431.506 255.899 431.41 255.899 431.217 255.899C432.662 243.665 433.721 231.239 427.267 220.064C418.983 206.193 396.057 205.037 387.098 218.716C382.185 225.94 380.933 234.61 383.534 242.894C383.919 250.312 386.327 257.633 388.639 264.761C367.736 256.188 368.121 229.601 354.25 214.381C341.245 201.665 329.397 200.317 315.718 213.032C314.466 213.996 313.213 216.019 311.287 215.73Z" fill="#FF8AA0"/>
<path d="M388.833 264.762C385.365 252.914 379.296 235.96 384.305 224.304C390.47 206.001 417.635 203.978 427.364 220.162C436.13 234.515 430.351 250.505 431.41 266.014C434.396 279.693 442.97 291.349 449.231 303.776C455.782 316.973 462.717 328.918 468.979 342.115C473.988 380.454 445.86 363.693 422.644 361.381C411.952 359.647 401.259 358.009 390.663 356.275C384.69 353.578 376.791 356.564 372.264 350.881C372.457 349.339 374.383 347.22 371.975 346.546C369.856 345.775 367.544 345.197 365.328 346.161C363.498 345.294 362.053 344.427 363.016 342.018C365.136 342.789 367.351 343.849 368.603 341.055C369.47 338.358 364.75 336.528 362.535 336.431C361.475 335.372 359.548 334.505 360.126 332.771C360.608 331.422 361.379 330.363 363.113 330.459C364.558 331.133 365.039 332.771 366.195 333.83C371.782 336.913 369.856 327.954 366.87 326.028C367.255 323.716 368.989 323.234 370.915 323.042C371.493 331.326 379.874 330.748 376.888 322.656C377.851 321.886 378.911 322.175 379.97 322.078C391.434 339.321 413.589 338.647 432.085 337.684C435.263 337.587 431.025 332 430.351 330.555C420.332 316.202 409.736 302.138 400.489 287.4C396.443 279.886 393.264 271.794 388.833 264.762Z" fill="#F6BB92"/>
<path d="M129.899 261.871C130.959 274.49 141.652 284.509 153.115 288.458C132.693 308.687 106.202 320.728 81.0603 333.54C73.2576 338.646 84.6245 349.627 70.4641 352.999C60.5421 352.71 50.3312 349.627 40.3129 351.265C34.3405 352.228 28.2718 352.325 22.3957 353.962C17.0012 355.407 13.3407 354.54 12.7627 348.375C13.437 342.884 21.2397 341.343 25.2855 338.646C36.7487 333.444 46.767 325.834 58.0376 320.247C85.2988 305.123 108.514 284.22 129.899 261.871Z" fill="#F6BB92"/>
<path d="M400.392 287.207C409.736 301.945 420.236 316.01 430.254 330.363C430.929 331.808 435.167 337.587 431.988 337.491C413.493 338.454 391.337 339.032 379.874 321.886C380.741 317.358 385.268 311.193 390.374 313.601C392.301 304.354 392.493 293.95 400.392 287.207Z" fill="#602F0F"/>
<path d="M468.884 342.016C460.31 324.099 450.099 306.374 441.141 288.457C435.361 278.535 429.678 267.746 431.412 255.994C431.604 255.994 431.701 255.994 431.893 255.994C432.76 263.797 433.242 272.37 437.962 279.402C438.829 274.297 438.251 268.999 439.311 263.893C439.696 262.641 439.214 261.1 440.563 260.233C451.448 273.141 495.856 331.613 468.884 342.016ZM458.191 307.145C459.443 306.085 458.673 304.737 458.576 303.581C458.576 301.558 457.421 300.98 455.398 301.654C455.301 295.875 454.627 289.998 448.558 287.879C445.379 286.916 443.26 284.122 440.178 283.352C443.742 290.48 447.499 298.09 451.641 304.833C452.604 309.168 455.687 312.925 457.517 316.971C458.673 318.416 458.673 321.787 460.696 322.269C461.177 322.172 461.37 321.691 461.466 321.209C461.563 318.319 464.934 313.118 461.37 311.576C455.976 311.48 457.421 311.962 458.191 307.145Z" fill="#D89D75"/>
<path d="M366.678 325.835C369.76 327.761 371.591 336.72 366.003 333.637C364.847 332.674 364.366 331.036 362.921 330.266C362.247 327.087 362.728 323.812 366.678 325.835Z" fill="#D89D75"/>
<path d="M376.792 322.558C377.755 324.678 378.044 328.242 374.961 328.916C372.072 329.012 371.108 325.159 370.819 322.847C370.819 318.994 375.539 319.765 376.792 322.558Z" fill="#D89D75"/>
<path d="M362.439 336.333C366.485 336.14 372.264 341.535 365.714 342.787C362.631 342.402 358.971 339.03 362.439 336.333Z" fill="#D89D75"/>
<path d="M365.233 346.065C367.545 345.102 369.761 345.68 371.88 346.45C374.192 347.125 372.362 349.244 372.169 350.785C368.894 351.267 364.559 350.4 365.233 346.065Z" fill="#D89D75"/>
<path d="M388.833 264.664C389.122 264.76 389.218 264.953 389.315 265.242C389.026 265.146 388.833 264.953 388.833 264.664Z" fill="#EF919E"/>
<path d="M442.393 239.717C439.696 244.919 437.48 250.409 433.145 254.552C433.53 254.937 433.723 255.322 433.916 255.708C433.819 255.322 433.53 254.937 433.145 254.552C432.567 254.841 432.086 255.322 431.7 255.9C432.567 263.703 433.049 272.276 437.769 279.308C438.251 277.671 438.058 276.033 438.154 274.492C439.021 269.868 437.769 264.088 440.466 260.139C439.696 253.492 442.778 246.46 442.393 239.717ZM433.627 258.308C433.434 259.079 433.338 259.85 433.819 260.524C433.916 260.717 433.916 261.006 434.012 261.391C433.916 261.102 433.916 260.813 433.819 260.524C433.338 259.753 433.434 258.983 433.627 258.308ZM434.494 264.666C434.879 267.363 435.264 270.446 436.228 272.469C435.264 270.446 434.783 267.363 434.494 264.666Z" fill="#ECAD83"/>
<path d="M451.255 304.449C447.498 297.61 443.645 290.481 440.177 283.449C443.259 284.22 445.379 287.013 448.557 287.977C454.626 290.096 455.204 295.972 455.397 301.752C454.337 303.197 451.351 302.33 451.255 304.449Z" fill="#F6BB92"/>
<path d="M458.191 307.146C457.42 311.962 455.975 311.481 461.273 311.481C464.934 313.022 461.562 318.224 461.37 321.114C461.273 321.595 461.081 322.077 460.599 322.173C458.672 321.788 458.576 318.416 457.42 316.971C455.686 312.829 452.604 309.169 451.544 304.834C453.856 305.605 455.975 306.375 458.191 307.146Z" fill="#F6BB92"/>
<path d="M458.19 307.145C455.974 306.182 453.277 305.796 451.351 304.351C451.447 302.232 454.433 303.099 455.493 301.558C457.516 300.883 458.672 301.461 458.672 303.484C458.672 304.833 459.442 306.182 458.19 307.145Z" fill="#CC785E"/>
<path d="M402.801 322.751C406.365 327.182 409.062 332.191 408.869 335.563C410.7 332.577 408.002 326.797 403.957 321.884C400.103 317.26 396.25 314.948 393.36 316.008C396.154 316.393 399.429 318.802 402.801 322.751Z" fill="#4C230C"/>
</svg>
