<svg width="500" height="500" viewBox="0 0 500 500" fill="none" xmlns="http://www.w3.org/2000/svg">
<path d="M220.287 217.883C222.391 216.115 224.243 214.089 226.114 212.096C227.417 210.705 228.913 209.496 230.036 207.924C230.398 207.421 230.95 207.033 231.475 206.68C232.319 206.116 233.238 205.662 234.082 205.093C235.508 204.126 237.18 203.586 238.523 202.489C237.033 200.423 235.3 198.553 233.795 196.488C232.036 194.073 229.994 191.874 228.162 189.502C225.359 185.877 222.18 182.556 219.421 178.883C217.433 176.237 215.129 173.848 213.143 171.186C211.015 168.33 208.546 165.741 206.429 162.863C204.845 160.714 203.098 158.676 201.392 156.624C198.178 152.754 195.148 148.729 191.85 144.927C190.849 143.77 189.898 142.575 188.923 141.395C186.726 141.821 184.641 142.617 182.555 143.393C178.541 144.884 174.713 146.782 171.086 149.049C169.633 149.96 168.226 150.954 166.847 151.986C164.344 153.864 161.937 155.844 159.555 157.871C156.378 160.573 153.64 163.666 151.106 166.951C147.359 171.809 144.152 177.017 141.296 182.438C139.505 185.837 138.276 189.467 137.2 193.143C136.039 197.128 135.373 201.225 134.602 205.298C134.36 206.567 134.495 207.85 134.538 209.118C134.67 213.069 134.886 217.015 135.288 220.948C135.372 221.766 135.294 222.599 135.29 223.425C135.986 225.269 136.711 227.103 137.608 228.861C138.589 230.788 139.468 232.769 140.556 234.635C142.278 237.603 144.139 240.486 145.923 243.415C147.777 246.454 149.728 249.428 151.812 252.312C152.743 253.599 153.65 254.902 154.572 256.197C155.753 257.849 156.877 259.552 158.139 261.138C159.605 262.982 161.196 264.726 162.731 266.51C163.654 266.636 164.493 266.358 165.328 266.014C167.214 265.239 169.11 264.476 171.001 263.707C173.196 262.698 175.391 261.694 177.584 260.682C190.471 255.428 211.836 224.998 220.287 217.883Z" fill="#8A8ADF"/>
<path d="M188.92 141.397C189.895 142.577 190.846 143.772 191.848 144.929C195.145 148.731 198.173 152.753 201.389 156.626C203.093 158.681 204.84 160.713 206.427 162.865C208.546 165.74 211.018 168.333 213.141 171.188C215.124 173.853 217.428 176.242 219.418 178.885C222.178 182.558 225.357 185.879 228.159 189.505C229.992 191.876 232.034 194.075 233.793 196.49C235.298 198.555 237.03 200.425 238.521 202.491C239.086 202.463 239.608 202.41 240.118 202.866C241.209 203.832 242.379 204.703 243.522 205.608C247.349 208.638 251.139 211.712 255.016 214.678C257.281 216.411 259.343 218.407 261.732 219.978C262.183 218.989 262.704 218.05 263.421 217.22C264.086 216.452 264.693 215.629 265.336 214.842C267.076 212.73 268.81 210.611 270.571 208.517C272.086 206.713 273.63 204.936 275.167 203.15C277.201 200.785 279.242 198.424 281.279 196.063C283.315 193.701 285.354 191.337 287.382 188.972C289.413 186.605 291.43 184.228 293.458 181.857C295.609 179.342 297.742 176.812 299.93 174.327C301.993 171.99 303.918 169.519 306.335 167.514C305.821 166.86 305.233 166.292 304.558 165.794C276.519 145.012 251.079 129.799 214.503 135.211C209.52 135.948 204.594 136.991 199.674 138.066C196.236 138.82 192.896 139.832 189.612 141.078C189.377 141.167 189.151 141.291 188.923 141.4L188.92 141.397Z" fill="#FFB78B"/>
<path d="M306.333 167.508C306.816 167.695 307.224 167.985 307.581 168.368C309.71 170.661 311.861 172.935 313.979 175.238C316.093 177.544 318.158 179.898 320.281 182.195C322.359 184.448 324.49 186.655 326.586 188.892C328.375 190.802 330.158 192.723 331.933 194.646C338.564 201.832 344.916 209.257 351.027 216.886C352.261 218.428 353.38 220.07 354.438 221.739C355.604 223.58 356.905 225.314 358.271 227.001C359.916 229.038 361.639 231.012 363.29 233.043C366.15 236.564 368.987 240.102 371.817 243.644C372.771 244.842 373.68 246.074 374.609 247.293C374.583 247.296 374.556 247.299 374.529 247.302L399.276 280.298L399.274 280.297L399.276 280.299C399.954 281.818 400.492 283.815 400.932 285.421C402.035 289.445 402.532 293.56 402.672 297.722C402.719 299.188 402.742 300.665 402.906 302.119C403.396 306.468 403.268 310.79 402.54 315.101C401.715 319.991 400.201 324.641 397.778 328.986C393.589 336.498 387.499 342.106 380.242 346.538C374.032 350.33 367.334 352.946 360.304 354.764C358.559 355.214 356.807 355.468 355.011 355.533C345.179 355.891 335.348 356.196 325.531 356.838C324.005 356.938 322.473 357.068 320.944 357.074C317.176 357.087 313.407 357.016 309.64 357.018C305.04 357.021 300.442 357.082 295.845 357.094C290.353 357.109 284.863 356.999 279.368 357.048C271.962 357.114 264.554 356.9 257.147 356.669C251.275 356.486 245.4 356.326 239.525 356.177C234.993 356.063 230.456 356.059 225.931 355.705C225.311 355.658 224.636 355.808 224.105 355.317L224.111 355.312C224.318 353.868 224.574 352.433 224.71 350.981C225.236 345.35 225.684 339.707 226.25 334.078C226.48 331.801 226.789 329.534 226.927 327.247C226.967 326.554 227.08 325.845 226.597 325.232C226.827 325.132 227.05 324.957 227.286 324.941C230.539 324.716 233.729 324.036 236.936 323.49C242.157 322.603 247.369 321.66 252.581 320.712C253.77 320.494 254.972 320.248 256.105 319.845C265.883 316.381 275.947 314.062 286.16 312.351C295.546 310.774 304.97 309.526 314.477 308.984C319.196 308.717 323.916 308.651 328.642 308.718C329.792 308.735 330.939 308.692 332.088 308.689C335.468 308.682 338.852 308.677 342.234 308.672C342.483 308.671 342.733 308.671 342.971 308.67C343.271 308.152 342.825 307.947 342.598 307.711C339.896 304.911 337.183 302.115 334.461 299.333C332.455 297.278 330.417 295.255 328.411 293.2C325.959 290.691 323.517 288.167 321.093 285.629C318.581 282.997 315.987 280.459 313.278 278.026C311.761 276.663 310.314 275.217 308.896 273.75C306.595 271.364 304.006 269.378 301.868 266.827L301.869 266.826L262.491 226.931L262.49 226.93C262.206 224.646 262.014 222.26 261.729 219.977C262.18 218.987 262.702 218.049 263.419 217.219C264.084 216.451 264.685 215.627 265.334 214.841C267.073 212.729 268.808 210.61 270.568 208.517C272.084 206.712 273.628 204.934 275.165 203.148C277.201 200.787 279.24 198.423 281.276 196.062C283.313 193.7 285.349 191.338 287.38 188.971C289.411 186.603 291.428 184.227 293.456 181.856C295.607 179.341 297.739 176.81 299.928 174.326C301.988 171.986 303.916 169.518 306.333 167.513V167.508ZM281.948 230.443C280.63 230.184 279.356 229.949 278.131 229.74C277.667 229.662 277.202 229.582 276.738 229.503L281.948 230.443Z" fill="#696E65"/>
<path d="M162.736 266.514C161.199 264.728 159.608 262.984 158.145 261.143C156.88 259.553 155.759 257.854 154.578 256.202C153.653 254.909 152.746 253.606 151.818 252.316C149.734 249.432 147.782 246.458 145.929 243.42C144.142 240.493 142.284 237.607 140.562 234.64C139.48 232.774 138.598 230.79 137.613 228.865C136.716 227.107 135.992 225.273 135.296 223.43C134.821 223.803 134.61 224.338 134.388 224.872C133.97 225.875 133.567 226.881 133.144 227.884C130.667 233.768 128.194 239.65 125.709 245.532C124.245 249.001 122.81 252.487 121.266 255.92C118.883 261.213 116.67 266.586 114.044 271.767C112.491 274.837 110.83 277.858 109.215 280.901C108.407 282.421 107.579 283.931 106.785 285.455C105.51 287.893 103.943 290.141 102.419 292.421C100.295 295.597 98.0865 298.72 95.9296 301.877C95.3903 302.668 95.0156 303.538 94.7138 304.46C94.1076 306.302 94.6014 307.861 95.7532 309.273C96.761 310.509 97.801 311.727 98.899 312.884C100.214 314.271 100.31 315.806 99.6606 317.489C99.2232 318.621 98.7145 319.719 98.4124 320.902C97.8468 323.112 98.8195 324.835 101.074 325.319C102.378 325.601 103.721 325.789 105.057 325.835C107.22 325.911 109.408 325.996 111.556 325.788C114.015 325.546 116.228 326.072 118.393 327.139C119.251 327.561 120.161 327.873 121.049 328.226C121.703 328.488 122.367 328.718 122.92 329.168C123.596 329.14 124.137 329.515 124.711 329.783C126.63 330.677 128.663 331.222 130.702 331.762C132.307 332.189 133.576 331.752 134.565 330.408C135.588 329.018 136.53 327.578 137.314 326.042C139.515 321.721 141.715 317.4 143.904 313.073C144.712 311.479 145.445 309.85 146.286 308.275C146.735 307.43 146.63 306.71 146.159 305.954C145.62 305.089 145.083 304.221 144.584 303.33C143.832 301.998 143.074 300.666 142.392 299.298C141.932 298.373 142.342 297.489 143.304 297.157C143.724 297.012 144.17 296.94 144.611 296.873C145.44 296.741 146.213 296.441 146.967 296.089C149.879 294.734 151.028 291.965 149.922 288.962C149.725 288.429 149.465 287.908 149.184 287.411C148.015 285.366 145.645 284.303 143.336 284.764C143.024 284.825 142.714 284.921 142.399 284.942C141.123 285.019 140.185 284.306 139.942 283.027C139.834 282.468 139.797 281.885 139.817 281.315C139.861 279.976 139.947 278.637 140.027 277.298C140.046 276.979 140.073 276.658 140.136 276.348C140.426 274.964 141.185 274.06 142.662 273.855C143.353 273.76 144.05 273.627 144.722 273.437C146.808 272.842 148.875 272.184 150.964 271.592C153.543 270.863 156.105 270.08 158.757 269.627C159.839 269.444 160.906 269.402 161.979 269.651C162.235 268.604 162.494 267.56 162.751 266.512L162.736 266.514Z" fill="#FFB78B"/>
<path d="M161.968 269.65C160.898 269.398 159.828 269.437 158.745 269.626C156.094 270.078 153.531 270.862 150.953 271.591C148.864 272.183 146.799 272.839 144.711 273.436C144.038 273.626 143.345 273.756 142.65 273.854C141.173 274.059 140.414 274.963 140.124 276.347C140.058 276.66 140.034 276.978 140.016 277.297C139.939 278.633 139.847 279.972 139.806 281.314C139.788 281.881 139.823 282.467 139.93 283.026C140.18 284.305 141.114 285.021 142.388 284.941C142.7 284.922 143.012 284.824 143.325 284.763C145.637 284.305 148.004 285.365 149.173 287.409C149.457 287.904 149.717 288.425 149.911 288.961C151.016 291.964 149.867 294.733 146.955 296.088C146.205 296.437 145.429 296.74 144.599 296.871C144.162 296.942 143.71 297.013 143.293 297.156C142.325 297.488 141.918 298.375 142.381 299.297C143.063 300.664 143.821 301.997 144.573 303.329C145.074 304.217 145.611 305.085 146.148 305.953C146.619 306.709 146.73 307.429 146.274 308.274C145.434 309.848 144.697 311.481 143.893 313.072C141.703 317.399 139.503 321.72 137.303 326.041C136.519 327.576 135.577 329.017 134.554 330.407C133.565 331.751 132.296 332.188 130.691 331.761C128.652 331.221 126.619 330.676 124.7 329.781C124.128 329.517 123.588 329.136 122.909 329.167C124.529 332.139 126.94 334.371 129.637 336.336C132.491 338.419 135.624 339.912 139.049 340.81C143.35 341.939 147.605 341.802 151.825 340.407C152.065 340.329 152.31 340.269 152.552 340.2C154.066 339.262 155.588 338.332 157.093 337.376C160.373 335.296 163.655 333.218 166.918 331.105C169.698 329.302 172.442 327.452 175.204 325.622C177.649 324.007 180.069 322.35 182.552 320.803C183.476 320.227 184.375 319.647 185.161 318.895C186.12 317.328 187.062 315.755 187.563 313.962C187.664 313.598 187.845 313.259 187.99 312.909C188.373 310.2 188.632 307.495 188.449 304.745C188.28 302.26 187.922 299.802 187.308 297.415C186.678 294.961 185.952 292.502 184.776 290.23C183.345 287.474 181.965 284.679 179.761 282.41C178.831 281.451 177.995 280.394 177.099 279.4C176.758 279.024 176.404 278.655 176.015 278.332C173.709 276.396 171.054 275.031 168.391 273.688C166.918 272.945 165.456 272.149 163.925 271.552C162.937 271.169 162.41 270.495 161.965 269.647L161.968 269.65Z" fill="#8A4101"/>
<path d="M185.166 318.9C184.38 319.651 183.479 320.229 182.557 320.807C180.074 322.361 177.651 324.014 175.209 325.627C172.447 327.456 169.7 329.304 166.923 331.109C163.663 333.225 160.378 335.3 157.098 337.381C155.594 338.337 154.069 339.263 152.557 340.205C152.443 341.929 151.996 343.584 151.541 345.241C150.957 347.35 151.198 349.39 152.061 351.395C153.123 353.863 155.097 355.087 157.631 355.495C158.695 355.668 159.796 355.676 160.876 355.66C164.697 355.61 168.517 355.498 172.339 355.449C174.376 355.423 176.418 355.493 178.458 355.507C180.24 355.518 182.026 355.52 183.81 355.514C185.786 355.503 187.756 355.467 189.733 355.457C193.238 355.434 196.741 355.421 200.246 355.41C201.775 355.403 203.305 355.375 204.831 355.408C209.675 355.52 214.515 355.397 219.356 355.299C220.374 355.279 221.393 355.406 222.412 355.454C222.979 355.483 223.559 355.617 224.102 355.322C224.305 353.881 224.565 352.443 224.697 350.994C225.224 345.362 225.672 339.72 226.238 334.09C226.468 331.813 226.777 329.546 226.915 327.26C226.958 326.563 227.07 325.855 226.584 325.245C225.395 323.918 224 322.809 222.634 321.685C219.311 318.946 215.945 316.266 212.622 313.532C211.651 312.731 210.561 312.045 209.837 310.969C208.217 310.174 206.516 309.699 204.695 309.711C201.836 309.725 199.153 310.396 196.676 311.848C195.578 312.491 194.475 313.117 193.374 313.752C193.132 313.948 192.904 314.179 192.636 314.334C191.064 315.243 189.577 316.28 188.067 317.283C187.155 317.891 186.325 318.713 185.171 318.917L185.166 318.9Z" fill="#F5BA92"/>
<path d="M197.17 261C196.799 260.964 196.42 260.956 196.057 260.881C190.965 259.813 185.828 259.251 180.619 259.39C180.369 259.396 180.12 259.348 179.87 259.323C179.235 259.986 178.4 260.318 177.594 260.689C175.401 261.702 173.206 262.705 171.011 263.715C171.414 264.205 171.892 264.636 172.09 265.275C172.246 265.781 172.61 266.142 173.019 266.463C175.803 268.655 178.563 270.879 181.053 273.413C181.231 273.592 181.425 273.772 181.641 273.891C183.56 274.955 184.771 276.847 186.543 278.083C186.689 278.183 186.778 278.381 186.86 278.548C187.575 279.971 188.696 281.118 189.536 282.465C190.316 283.714 191.025 284.972 191.549 286.335C192.717 289.384 193.373 292.553 193.701 295.796C193.748 296.238 193.851 296.683 193.814 297.119C193.642 299.208 193.658 301.312 193.181 303.381C192.922 304.505 192.423 305.541 192.215 306.668C191.959 308.061 191.337 309.327 190.768 310.606C190.382 311.475 189.918 312.322 189.121 312.908C190.52 313.276 192.001 313.221 193.371 313.737C194.472 313.102 195.578 312.473 196.673 311.833C199.15 310.381 201.833 309.71 204.693 309.695C206.516 309.686 208.214 310.158 209.834 310.954C210.809 310.308 211.927 309.997 213.026 309.699C216.19 308.845 219.103 307.399 222.04 305.995C226.861 303.696 231.163 300.625 235.317 297.317C237.717 295.407 240.166 293.565 242.744 291.902C243.548 291.384 244.357 290.851 245.216 290.438C246.155 289.988 246.945 289.344 247.721 288.691C248.872 287.72 248.961 286.549 248.068 285.334C247.074 283.981 245.873 282.888 244.404 282.034C238.443 278.562 232.389 275.279 226.069 272.499C225.428 272.216 224.804 271.891 224.186 271.556C215.795 266.974 207.024 263.372 197.695 261.188C197.514 261.145 197.338 261.06 197.161 260.997L197.17 261Z" fill="#894101"/>
<path d="M189.124 312.912C189.927 312.325 190.385 311.478 190.771 310.609C191.34 309.331 191.962 308.064 192.219 306.672C192.429 305.542 192.925 304.508 193.184 303.384C193.658 301.313 193.645 299.212 193.817 297.123C193.855 296.686 193.746 296.24 193.704 295.799C193.373 292.559 192.717 289.385 191.552 286.338C191.028 284.976 190.319 283.717 189.539 282.468C188.697 281.124 187.575 279.977 186.863 278.551C186.781 278.385 186.692 278.186 186.546 278.086C184.774 276.85 183.563 274.958 181.644 273.894C181.426 273.772 181.234 273.595 181.056 273.416C178.566 270.882 175.807 268.658 173.022 266.467C172.616 266.148 172.25 265.784 172.094 265.278C171.895 264.64 171.417 264.209 171.014 263.718C169.123 264.487 167.23 265.247 165.341 266.025C164.506 266.369 163.664 266.65 162.744 266.521C162.488 267.568 162.229 268.612 161.972 269.66C162.414 270.51 162.944 271.182 163.932 271.564C165.466 272.159 166.925 272.957 168.399 273.7C171.063 275.046 173.722 276.409 176.022 278.344C176.408 278.67 176.766 279.036 177.106 279.413C177.999 280.409 178.835 281.461 179.768 282.423C181.972 284.692 183.352 287.487 184.783 290.242C185.963 292.511 186.685 294.974 187.315 297.427C187.929 299.815 188.29 302.276 188.456 304.758C188.645 307.507 188.38 310.213 187.997 312.922C188.374 313.043 188.75 313.043 189.124 312.917L189.124 312.912Z" fill="#6C2F00"/>
<path d="M345.44 286.128C349.024 286.755 352.601 287.442 356.177 288.114C362.83 289.36 369.48 290.613 376.132 291.865C377.984 292.214 379.644 293.041 381.228 294.002C383.302 295.255 385.324 296.599 387.353 297.918C389.866 299.553 392.344 301.249 394.98 302.687C395.769 303.118 396.582 303.448 397.47 303.635C398.594 303.869 399.621 303.798 400.561 303.086C400.764 302.93 400.996 302.822 401.215 302.689C402.033 302.075 402.826 301.434 403.669 300.861C404.476 300.314 405.103 299.586 405.703 298.853C406.427 297.972 406.666 296.904 406.265 295.794C405.922 294.84 405.52 293.899 405.104 292.973C403.555 289.555 401.979 286.151 400.434 282.73C400.142 282.079 399.762 281.491 399.284 280.984C398.016 279.648 396.712 278.338 395.42 277.024C394.484 276.073 393.486 275.173 392.623 274.16C392.104 273.55 391.524 273.106 390.81 272.813C383.693 269.863 377.261 264.923 369.905 262.607C367.414 261.822 364.868 261.206 362.352 260.503C357.133 259.041 351.908 257.612 346.709 256.081C343.47 255.126 340.27 254.026 337.067 252.957C307.992 243.275 277.156 238.3 247.573 230.319C225.857 224.46 175.369 196.333 161.599 224.205C152.743 242.094 168.298 253.599 183.44 258.452C228.178 272.663 296.528 277.596 345.44 286.128Z" fill="#F5BA92"/>
</svg>
