<svg width="497" height="497" viewBox="0 0 497 497" fill="none" xmlns="http://www.w3.org/2000/svg">
<path d="M212.795 219.726C221.145 244.227 231.251 246.634 257.836 263.26C265.087 267.854 303.756 275.292 309.249 270.26C311.007 268.729 312.764 266.76 314.083 264.354C318.477 257.353 325.947 236.352 307.052 188.881C299.801 166.348 293.649 110.126 277.61 79.7184C258.715 44.0602 243.116 33.1221 243.116 33.1221L218.947 46.2478L191.483 61.1236C201.37 142.503 216.531 168.317 217.849 195.225C218.069 195.444 210.379 212.507 212.795 219.726Z" fill="#FF8AA0"/>
<path d="M269.995 271.611C269.995 271.611 273.72 286.506 275.473 304.735L304.173 311.182C301.106 292.731 309.212 269.833 309.212 269.833C281.607 268.499 277.225 262.941 252.03 259.606L269.995 271.611Z" fill="#ECAD83"/>
<path d="M249.506 337.23C241.429 348.803 247.105 360.154 251.252 366.609C263.912 386.418 277.008 387.976 293.816 387.308C316.08 386.418 322.191 326.546 320.009 316.753C314.115 290.935 278.318 282.032 263.912 282.032C247.978 282.255 252.125 287.596 252.998 294.051C252.998 294.274 252.343 295.164 252.343 295.164C252.343 297.39 252.562 300.506 251.252 303.399C251.252 303.399 251.907 305.402 251.907 306.515C251.907 307.183 251.907 307.628 251.252 308.073C249.069 308.963 246.886 309.853 246.013 310.744C242.521 314.082 253.216 331.888 249.506 337.23Z" fill="#F6BB92"/>
<path d="M261 300.761C261 300.761 259.508 299.76 252.473 300.01C251.62 300.511 250.128 301.763 251.407 304.016C252.473 305.769 255.884 301.763 261 300.761Z" fill="#D6876B"/>
<path d="M261 299.972C261 299.972 259.495 296.657 252.832 295.487C251.972 295.682 251.112 296.267 251.112 296.657C250.252 298.607 252.402 299.387 252.402 299.387C259.495 299.192 261 299.972 261 299.972Z" fill="#CC785E"/>
<path d="M296.078 389.589C323.003 388.494 357.311 348.216 319.094 303.559C316.489 300.494 310.843 297.211 302.592 303.778C296.946 308.375 293.038 314.504 293.038 314.504C291.952 316.256 290.649 318.226 289.563 320.415C288.261 322.823 290.432 336.176 287.609 336.614C261.335 341.867 250.695 356.315 250.912 363.32C254.821 380.176 267.415 390.683 296.078 389.589Z" fill="#602F0F"/>
<path d="M297.45 322.113C292.874 311.042 287.611 310.632 280.06 311.452L284.865 328.879L288.984 335.849C296.535 334.824 302.027 333.184 297.45 322.113Z" fill="#F6BB92"/>
<path d="M335.904 347.485C342.267 352.711 339.934 365.776 330.601 376.882C321.267 387.987 308.752 392.778 302.389 387.552C296.025 382.326 299.419 372.527 308.54 361.421C317.874 350.316 329.752 342.476 335.904 347.485Z" fill="#4C230C"/>
<path d="M284.365 334.058C284.803 336.252 285.023 338.226 285.023 339.762C285.023 342.176 284.803 343.492 284.803 343.492L292.702 340.42C292.702 339.323 292.702 338.007 292.482 336.91C292.482 336.91 291.605 337.129 290.069 337.788H290.288C289.191 336.032 287.655 333.4 286.339 329.451C286.339 329.451 283.048 327.476 284.365 334.058Z" fill="#602F0F"/>
<path d="M341.408 347.662C348.21 353.147 345.358 367.407 334.826 379.694C324.295 391.76 310.254 397.245 303.453 391.76C296.651 386.275 300.381 375.306 310.912 363.239C321.224 350.953 334.607 342.177 341.408 347.662Z" fill="#602F0F"/>
<path d="M338.23 371.812C338.913 372.457 336.865 375.895 333.68 379.547C330.267 383.2 327.081 385.563 326.171 385.134C325.488 384.489 327.309 381.696 330.494 378.043C333.907 374.391 337.32 371.168 338.23 371.812Z" fill="#4C230C"/>
<path d="M229.643 32.001C179.766 33.5483 168.359 47.6951 157.176 64.2733C157.176 64.2733 147.111 80.6305 145.769 95.6615C143.085 126.608 162.544 144.733 162.544 144.733C162.544 144.733 232.327 156.006 233.445 140.091C234.116 127.05 235.011 115.113 235.906 104.503C236.8 94.9984 244.181 32.8852 244.181 32.8852C241.945 32.001 229.643 32.001 229.643 32.001Z" fill="#3D3C3C"/>
<path d="M230.181 471.188C221.423 469.191 196.462 471.188 193.178 470.966C185.296 470.744 177.632 466.306 179.165 458.762C180.26 452.993 183.106 447.89 182.668 444.339C180.916 425.923 172.815 370.673 171.064 348.484C170.626 343.381 170.407 338.055 170.188 332.508C169.531 310.541 214.197 322.967 213.54 330.955C211.351 362.907 206.096 438.348 203.906 449.887C203.906 449.887 246.164 452.549 245.288 460.759C244.851 465.641 238.939 473.185 230.181 471.188Z" fill="#ECAD83"/>
<path d="M221.253 475.677C212.519 473.709 187.627 475.677 184.352 475.458C176.491 475.24 168.849 470.868 170.377 463.435C171.469 457.752 174.308 452.724 173.871 449.226C172.124 431.082 173.216 376.651 171.469 354.791C171.032 349.763 170.814 344.517 170.596 339.052C169.941 317.41 214.484 329.652 213.829 337.521C211.645 369 197.234 443.324 195.051 454.691C195.051 454.691 237.192 457.314 236.319 465.403C235.882 470.212 229.987 477.644 221.253 475.677Z" fill="#F6BB92"/>
<path d="M173.568 267.91C170.458 293.218 169.125 317.206 169.792 339.213C177.122 336.572 207.111 335.692 213.775 337.673C214.219 329.75 222.216 268.79 222.216 268.79C224.659 249.424 240.431 135.868 235.322 100.436C234.433 91.4132 232.656 83.2706 230.879 76.6685C227.325 63.6843 155.131 71.1667 152.243 88.9925C154.687 127.725 173.346 198.808 175.79 216.634C178.011 234.239 173.568 267.91 173.568 267.91Z" fill="#3D3C3C"/>
<path d="M145.595 175.322C147.585 168.358 164.615 168.793 164.615 168.793L166.606 178.151L164.394 178.586L177.885 209.052C198.232 216.668 285.15 204.047 301.295 219.715C309.036 227.331 318.988 248.004 310.363 254.097C302.843 259.32 286.919 271.506 259.716 239.082C255.956 234.73 184.52 242.346 171.914 237.994C171.914 237.341 143.826 182.285 145.595 175.322Z" fill="#F6BB92"/>
</svg>
