<svg width="497" height="497" viewBox="0 0 497 497" fill="none" xmlns="http://www.w3.org/2000/svg">
<path d="M219.668 226.971C226.252 246.294 234.223 248.191 255.188 261.303C260.906 264.926 291.401 270.791 295.733 266.823C297.119 265.616 298.506 264.063 299.545 262.165C303.011 256.645 308.902 240.083 294 202.646C288.283 184.876 283.431 140.539 270.782 116.558C255.881 88.4375 243.579 79.8115 243.579 79.8115L224.519 90.1627L202.861 101.894C210.658 166.072 222.614 186.429 223.653 207.649C223.826 207.822 217.762 221.278 219.668 226.971Z" fill="#FF8AA0"/>
<path d="M264.777 267.889C264.777 267.889 267.714 279.635 269.097 294.011L291.73 299.095C289.311 284.544 295.704 266.486 295.704 266.486C273.934 265.434 270.479 261.051 250.609 258.421L264.777 267.889Z" fill="#ECAD83"/>
<path d="M248.618 319.637C242.249 328.764 246.725 337.716 249.995 342.806C259.979 358.428 270.307 359.657 283.562 359.13C301.12 358.428 305.939 311.212 304.218 303.489C299.57 283.128 271.34 276.107 259.979 276.107C247.413 276.283 250.684 280.495 251.372 285.586C251.372 285.761 250.856 286.463 250.856 286.463C250.856 288.219 251.028 290.676 249.995 292.958C249.995 292.958 250.512 294.537 250.512 295.415C250.512 295.942 250.512 296.293 249.995 296.644C248.274 297.346 246.552 298.048 245.864 298.75C243.11 301.383 251.544 315.425 248.618 319.637Z" fill="#F6BB92"/>
<path d="M257.683 290.877C257.683 290.877 256.506 290.087 250.958 290.285C250.285 290.68 249.108 291.667 250.117 293.444C250.958 294.827 253.648 291.667 257.683 290.877Z" fill="#D6876B"/>
<path d="M257.683 290.255C257.683 290.255 256.496 287.641 251.241 286.718C250.563 286.872 249.885 287.333 249.885 287.641C249.207 289.179 250.902 289.794 250.902 289.794C256.496 289.64 257.683 290.255 257.683 290.255Z" fill="#CC785E"/>
<path d="M285.345 360.928C306.579 360.065 333.635 328.301 303.497 293.084C301.442 290.667 296.99 288.077 290.483 293.256C286.03 296.882 282.948 301.715 282.948 301.715C282.092 303.096 281.064 304.65 280.208 306.376C279.181 308.275 280.893 318.806 278.667 319.151C257.947 323.294 249.556 334.688 249.727 340.212C252.81 353.505 262.741 361.791 285.345 360.928Z" fill="#602F0F"/>
<path d="M286.428 307.716C282.819 298.985 278.668 298.662 272.713 299.308L276.503 313.051L279.751 318.548C285.706 317.74 290.037 316.447 286.428 307.716Z" fill="#F6BB92"/>
<path d="M316.753 327.724C321.772 331.846 319.932 342.149 312.571 350.907C305.211 359.665 295.341 363.443 290.323 359.322C285.304 355.2 287.981 347.473 295.174 338.715C302.534 329.957 311.902 323.775 316.753 327.724Z" fill="#4C230C"/>
<path d="M276.108 317.136C276.454 318.866 276.627 320.423 276.627 321.634C276.627 323.537 276.454 324.576 276.454 324.576L282.683 322.153C282.683 321.288 282.683 320.25 282.51 319.385C282.51 319.385 281.818 319.558 280.607 320.077H280.78C279.915 318.693 278.704 316.617 277.666 313.502C277.666 313.502 275.07 311.945 276.108 317.136Z" fill="#602F0F"/>
<path d="M321.094 327.864C326.458 332.189 324.209 343.435 315.904 353.125C307.599 362.641 296.525 366.966 291.162 362.641C285.798 358.315 288.739 349.664 297.044 340.148C305.176 330.459 315.731 323.538 321.094 327.864Z" fill="#602F0F"/>
<path d="M318.588 346.909C319.126 347.418 317.511 350.129 314.999 353.009C312.307 355.89 309.795 357.754 309.077 357.415C308.539 356.907 309.975 354.704 312.487 351.823C315.178 348.943 317.87 346.401 318.588 346.909Z" fill="#4C230C"/>
<path d="M232.954 78.9272C193.62 80.1475 184.624 91.3039 175.805 104.378C175.805 104.378 167.867 117.278 166.809 129.131C164.692 153.536 180.038 167.83 180.038 167.83C180.038 167.83 235.07 176.72 235.952 164.169C236.482 153.885 237.187 144.471 237.893 136.104C238.598 128.608 244.419 79.6245 244.419 79.6245C242.655 78.9273 232.954 78.9272 232.954 78.9272Z" fill="#3D3C3C"/>
<path d="M233.378 425.279C226.472 423.704 206.787 425.279 204.197 425.104C197.981 424.929 191.937 421.429 193.146 415.48C194.01 410.93 196.254 406.905 195.909 404.106C194.528 389.582 188.139 346.011 186.757 328.512C186.412 324.487 186.239 320.288 186.067 315.913C185.549 298.59 220.773 308.389 220.255 314.688C218.529 339.886 214.385 399.381 212.658 408.48C212.658 408.48 245.983 410.58 245.293 417.055C244.947 420.904 240.285 426.854 233.378 425.279Z" fill="#ECAD83"/>
<path d="M226.337 428.819C219.45 427.268 199.819 428.819 197.237 428.647C191.038 428.475 185.011 425.027 186.216 419.165C187.077 414.683 189.316 410.718 188.971 407.96C187.594 393.651 188.455 350.726 187.077 333.486C186.733 329.521 186.56 325.384 186.388 321.074C185.872 304.007 220.999 313.661 220.483 319.867C218.761 344.692 207.396 403.305 205.674 412.27C205.674 412.27 238.908 414.338 238.219 420.717C237.875 424.51 233.225 430.371 226.337 428.819Z" fill="#F6BB92"/>
<path d="M188.732 264.97C186.279 284.928 185.228 303.846 185.754 321.201C191.535 319.118 215.184 318.424 220.44 319.986C220.79 313.738 227.097 265.664 227.097 265.664C229.024 250.391 241.461 160.838 237.432 132.897C236.731 125.781 235.33 119.359 233.929 114.153C231.126 103.913 174.192 109.814 171.915 123.872C173.842 154.417 188.557 210.474 190.484 224.532C192.236 238.416 188.732 264.97 188.732 264.97Z" fill="#3D3C3C"/>
<path d="M166.672 191.953C168.241 186.461 181.671 186.805 181.671 186.805L183.241 194.184L181.497 194.527L192.136 218.553C208.183 224.559 276.728 214.606 289.46 226.962C295.565 232.968 303.413 249.272 296.611 254.077C290.681 258.196 278.123 267.806 256.67 242.236C253.705 238.803 197.369 244.81 187.427 241.377C187.427 240.863 165.276 197.445 166.672 191.953Z" fill="#F6BB92"/>
</svg>
