<svg width="500" height="500" viewBox="0 0 500 500" fill="none" xmlns="http://www.w3.org/2000/svg">
<path d="M231.966 422.716C232.081 423.174 232.166 423.574 232.624 423.288C232.852 423.145 233.081 422.774 233.109 422.488C233.138 422.116 232.852 421.831 232.481 422.031C232.252 422.145 232.138 422.516 231.995 422.716H231.966Z" fill="#F5BB92"/>
<path d="M248.111 108.129C233.052 98.1562 217.307 91.1266 198.533 95.1557C174.186 100.414 159.727 125.789 168.757 148.963C178.787 174.681 189.703 200.056 200.247 225.574C205.534 238.376 210.763 251.235 216.249 263.98C217.592 267.123 217.935 269.952 217.021 273.324C213.506 286.04 212.649 298.985 214.563 312.072C215.449 318.044 216.849 323.902 218.993 329.56C220.936 325.703 222.707 321.759 224.908 318.044C230.709 308.329 239.31 300.928 246.625 292.469C246.711 291.869 246.768 291.298 246.939 290.698C250.683 276.296 254.455 261.922 258.227 247.52C258.512 246.749 258.741 246.12 258.398 245.148C253.483 231.604 251.712 217.63 252.397 203.285C249.683 194.313 246.882 185.368 244.31 176.339C242.539 170.109 240.11 164.051 239.138 157.593C234.995 152.621 232.109 146.934 229.766 140.934C229.68 140.819 229.566 140.734 229.48 140.619C229.594 140.705 229.708 140.819 229.794 140.905C233.909 142.848 236.567 146.792 240.539 148.906C240.824 147.62 241.139 146.334 241.367 145.02C243.625 132.704 245.854 120.359 248.111 108.043V108.129Z" fill="#6A6C65"/>
<path d="M246.596 292.498C239.252 300.957 230.68 308.329 224.879 318.073C222.678 321.76 220.935 325.732 218.964 329.589C214.506 350.564 209.991 371.509 205.619 392.484C204.333 398.599 202.304 404.628 202.247 410.915C202.133 421.831 210.905 430.918 221.793 431.089C231.222 431.261 240.652 431.032 250.082 431.175C254.197 431.232 256.026 428.66 257.626 424.746C260.455 430.632 265.027 431.232 270.142 431.175C280.772 431.032 291.431 431.232 302.061 431.089C309.805 431.004 314.12 423.803 310.376 417.545C309.748 416.487 308.948 415.573 307.862 415.001C297.089 409.315 286.402 403.428 275.314 398.399C267.799 403 260.769 408.315 253.54 413.372C253.969 415.944 255.34 418.23 256.312 420.716C255.797 420.716 255.512 420.802 255.369 420.716C254.997 420.431 254.597 420.116 254.34 419.745C250.854 415.03 246.053 412.658 240.424 411.515C236.537 410.715 232.737 409.572 228.879 408.658C227.308 408.286 226.622 407.6 227.193 405.857C230.508 395.456 233.766 385.054 237.023 374.653C240.309 362.794 243.824 351.049 247.911 339.448C248.854 336.219 250.111 333.018 250.625 329.732C251.34 325.217 254.34 322.788 257.54 320.102C268.999 310.501 281.258 301.871 291.917 291.327C296.489 286.812 300.175 281.611 304.376 276.839C309.891 267.923 315.063 258.836 318.406 248.806C322.55 236.405 325.207 223.774 324.664 210.601C321.692 211.058 318.663 211.287 315.777 212.001C293.117 217.459 276.543 230.718 265.713 251.321C264.799 253.064 264.541 255.322 262.541 256.408C264.656 259.179 266.599 262.065 268.913 264.637C270.485 266.38 269.999 267.295 268.628 268.781C261.227 276.668 253.94 284.697 246.625 292.641L246.596 292.498ZM255.94 422.717C256.055 422.517 256.169 422.145 256.426 422.031C256.797 421.831 257.112 422.145 257.055 422.488C257.026 422.774 256.826 423.117 256.569 423.288C256.14 423.574 256.026 423.145 255.912 422.717H255.94Z" fill="#F6BB92"/>
<path d="M239.109 157.65C240.081 164.108 242.51 170.166 244.281 176.396C246.853 185.426 249.653 194.37 252.368 203.343C263.227 196.799 274.486 191.084 286.744 187.569C296.86 184.683 307.147 183.054 317.663 182.797C316.32 175.682 312.977 169.424 309.576 163.165C298.803 143.163 282.172 129.104 263.17 117.473C258.14 114.387 253.511 110.615 248.11 108.158C245.853 120.474 243.624 132.818 241.367 145.134C241.138 146.449 240.824 147.735 240.538 149.021C240.595 151.992 239.824 154.85 239.109 157.679V157.65Z" fill="#F6BB92"/>
<path d="M317.663 182.797C307.147 183.054 296.86 184.683 286.744 187.569C274.485 191.055 263.227 196.799 252.368 203.343C251.682 217.688 253.454 231.69 258.369 245.206C258.712 246.177 258.483 246.806 258.197 247.578C260.998 249.807 260.998 253.436 262.569 256.265C264.57 255.179 264.827 252.95 265.741 251.178C276.571 230.575 293.116 217.316 315.805 211.858C318.72 211.173 321.721 210.915 324.692 210.458C322.835 201.114 321.492 191.627 317.691 182.769L317.663 182.797Z" fill="#8A8AD9"/>
<path d="M304.376 276.725C300.146 281.497 296.46 286.697 291.917 291.212C281.258 301.757 268.971 310.386 257.54 319.988C254.34 322.674 251.339 325.103 250.625 329.618C250.111 332.933 248.853 336.104 247.91 339.333C250.968 340.419 254.054 341.505 257.112 342.591C268.628 345.077 279.972 344.877 291.059 340.476C291.545 340.276 292.231 340.534 292.802 340.562C293.917 338.448 296.26 338.105 298.089 337.076C303.433 334.104 306.947 329.218 311.176 325.103C311.862 321.102 314.205 317.645 314.863 313.587C316.063 306.386 315.463 299.442 312.405 292.841C309.862 287.412 307.09 282.097 304.404 276.725H304.376Z" fill="#7A4922"/>
<path d="M257.112 342.62C254.054 341.534 250.968 340.448 247.911 339.362C243.853 350.964 240.31 362.737 237.023 374.567C238.281 377.425 239.509 380.282 240.767 383.14C245.139 393.17 248.711 403.543 253.54 413.373C260.741 408.315 267.799 403.028 275.314 398.399C269.714 381.282 264.084 364.194 258.484 347.078C257.998 345.592 257.569 344.106 257.112 342.591V342.62Z" fill="#6B6D66"/>
<path d="M239.109 157.65C239.824 154.793 240.595 151.964 240.538 148.992C236.566 146.849 233.909 142.934 229.794 140.991C232.108 147.02 235.023 152.678 239.166 157.679L239.109 157.65Z" fill="#4D4D48"/>
<path d="M229.794 140.991C229.68 140.905 229.565 140.791 229.48 140.705C229.565 140.819 229.68 140.905 229.765 141.019L229.794 140.991Z" fill="#4D4D48"/>
<path d="M306.948 276.039C315.692 273.953 323.036 276.667 328.694 283.725C334.409 290.841 335.352 299.099 332.123 307.757C329.608 314.501 326.694 321.074 324.093 327.789C319.293 340.162 320.464 353.164 320.378 366.023C320.378 368.737 320.407 371.452 320.436 374.853C308.662 364.965 297.975 355.05 292.803 340.19C309.12 336.276 320.464 319.188 317.492 299.099C316.178 290.298 311.891 283.011 306.976 276.039H306.948Z" fill="#7A4922"/>
<path d="M306.948 276.039C311.863 283.011 316.149 290.298 317.464 299.099C320.436 319.188 309.091 336.276 292.775 340.19C292.575 340.019 292.489 339.819 292.546 339.533C294.003 336.076 297.518 335.161 300.004 333.018C313.549 321.359 315.349 300.728 307.348 285.64C305.948 283.011 304.348 280.496 302.833 277.925C304.09 276.982 305.376 276.153 306.948 276.039Z" fill="#5C381A"/>
</svg>
