<svg width="497" height="497" viewBox="0 0 497 497" fill="none" xmlns="http://www.w3.org/2000/svg">
<path d="M227.506 225.986C232.797 241.478 239.201 242.999 256.049 253.512C260.643 256.416 285.149 261.119 288.63 257.938C289.743 256.969 290.857 255.725 291.693 254.203C294.477 249.777 299.211 236.498 287.237 206.483C282.642 192.236 278.744 156.688 268.58 137.462C256.606 114.916 246.72 108 246.72 108L231.404 116.299L214 125.705C220.266 177.159 229.873 193.481 230.708 210.494C230.847 210.633 225.974 221.422 227.506 225.986Z" fill="#FF8AA0"/>
<path d="M263.31 258.681C263.31 258.681 265.655 268.211 266.759 279.875L284.828 284C282.897 272.194 288 257.543 288 257.543C270.621 256.69 267.862 253.134 252 251L263.31 258.681Z" fill="#ECAD83"/>
<path d="M250.686 300.566C245.526 307.814 249.152 314.922 251.802 318.964C259.891 331.368 268.259 332.344 278.999 331.926C293.225 331.368 297.13 293.876 295.735 287.743C291.97 271.575 269.096 266 259.891 266C249.71 266.139 252.36 269.484 252.918 273.526C252.918 273.666 252.499 274.223 252.499 274.223C252.499 275.617 252.639 277.568 251.802 279.38C251.802 279.38 252.22 280.635 252.22 281.332C252.22 281.75 252.22 282.029 251.802 282.307C250.407 282.865 249.013 283.422 248.455 283.98C246.223 286.07 253.057 297.221 250.686 300.566Z" fill="#F6BB92"/>
<path d="M258 277.353C258 277.353 256.965 276.906 252.085 277.018C251.493 277.241 250.458 277.8 251.345 278.805C252.085 279.586 254.451 277.8 258 277.353Z" fill="#D6876B"/>
<path d="M258 277C258 277 256.956 274.783 252.334 274C251.737 274.13 251.141 274.522 251.141 274.783C250.544 276.087 252.035 276.609 252.035 276.609C256.956 276.478 258 277 258 277Z" fill="#CC785E"/>
<path d="M279.624 333.95C296.687 333.255 318.428 307.659 294.21 279.281C292.559 277.333 288.981 275.247 283.752 279.42C280.174 282.341 277.697 286.236 277.697 286.236C277.009 287.349 276.184 288.601 275.496 289.992C274.67 291.522 276.046 300.008 274.257 300.286C257.607 303.625 250.864 312.806 251.002 317.257C253.479 327.969 261.46 334.646 279.624 333.95Z" fill="#602F0F"/>
<path d="M280.949 291.09C278.067 283.909 274.754 283.643 270 284.175L273.025 295.479L275.618 300C280.372 299.335 283.83 298.271 280.949 291.09Z" fill="#F6BB92"/>
<path d="M305.694 306.989C309.793 310.335 308.29 318.701 302.278 325.813C296.266 332.924 288.205 335.992 284.106 332.645C280.006 329.299 282.193 323.024 288.068 315.913C294.08 308.802 301.731 303.782 305.694 306.989Z" fill="#4C230C"/>
<path d="M272.556 298.508C272.833 299.896 272.972 301.146 272.972 302.119C272.972 303.646 272.833 304.48 272.833 304.48L277.833 302.535C277.833 301.841 277.833 301.008 277.695 300.313C277.695 300.313 277.139 300.452 276.167 300.869H276.306C275.611 299.758 274.639 298.091 273.806 295.591C273.806 295.591 271.722 294.341 272.556 298.508Z" fill="#602F0F"/>
<path d="M308.667 307.119C312.972 310.591 311.167 319.619 304.5 327.397C297.834 335.035 288.945 338.508 284.639 335.035C280.333 331.563 282.695 324.619 289.361 316.98C295.889 309.202 304.361 303.646 308.667 307.119Z" fill="#602F0F"/>
<path d="M306.915 322.055C307.358 322.486 306.029 324.786 303.963 327.229C301.749 329.673 299.683 331.254 299.093 330.966C298.65 330.535 299.831 328.667 301.897 326.223C304.111 323.78 306.324 321.624 306.915 322.055Z" fill="#4C230C"/>
<path d="M237.865 107C206.523 107.982 199.355 116.96 192.328 127.481C192.328 127.481 186.003 137.861 185.16 147.4C183.473 167.039 195.701 178.542 195.701 178.542C195.701 178.542 239.551 185.696 240.254 175.596C240.675 167.319 241.238 159.744 241.8 153.011C242.362 146.979 247 107.561 247 107.561C245.595 107 237.865 107 237.865 107Z" fill="#3D3C3C"/>
<path d="M238.338 384.793C232.742 383.54 216.793 384.793 214.694 384.654C209.658 384.515 204.761 381.73 205.741 376.995C206.44 373.374 208.259 370.171 207.979 367.943C206.86 356.384 201.683 321.707 200.564 307.781C200.284 304.578 200.144 301.236 200.005 297.754C199.585 283.967 228.125 291.766 227.705 296.779C226.306 316.833 222.949 364.183 221.55 371.424C221.55 371.424 248.551 373.095 247.991 378.248C247.712 381.312 243.934 386.047 238.338 384.793Z" fill="#ECAD83"/>
<path d="M232.426 388.793C226.881 387.54 211.077 388.793 208.997 388.654C204.006 388.515 199.154 385.73 200.125 380.995C200.818 377.374 202.62 374.171 202.343 371.943C201.234 360.384 201.927 325.707 200.818 311.781C200.541 308.578 200.402 305.236 200.263 301.754C199.848 287.967 228.128 295.766 227.712 300.779C226.326 320.833 217.176 368.183 215.79 375.424C215.79 375.424 242.546 377.095 241.991 382.248C241.714 385.312 237.971 390.047 232.426 388.793Z" fill="#F6BB92"/>
<path d="M202.441 256.954C200.48 272.942 199.64 288.097 200.06 302C204.681 300.332 223.581 299.776 227.782 301.027C228.062 296.022 233.102 257.51 233.102 257.51C234.642 245.275 244.582 173.535 241.362 151.151C240.802 145.451 239.682 140.307 238.562 136.136C236.322 127.933 190.82 132.66 189 143.921C190.54 168.391 202.301 213.298 203.841 224.56C205.241 235.682 202.441 256.954 202.441 256.954Z" fill="#3D3C3C"/>
<path d="M185.051 198.122C186.305 193.729 197.038 194.003 197.038 194.003L198.293 199.906L196.899 200.181L205.402 219.4C218.226 224.205 273.008 216.243 283.184 226.127C288.063 230.932 294.335 243.973 288.899 247.817C284.16 251.112 274.123 258.8 256.978 238.345C254.608 235.599 209.584 240.404 201.638 237.659C201.638 237.247 183.935 202.515 185.051 198.122Z" fill="#F6BB92"/>
</svg>
