<svg width="500" height="500" viewBox="0 0 500 500" fill="none" xmlns="http://www.w3.org/2000/svg">
<path d="M231.966 411.991C232.08 412.449 232.166 412.849 232.623 412.563C232.852 412.42 233.08 412.049 233.109 411.763C233.137 411.391 232.852 411.106 232.48 411.306C232.252 411.42 232.137 411.791 231.994 411.991H231.966Z" fill="#F5BB92"/>
<path d="M248.111 97.4039C233.052 87.4311 217.307 80.4015 198.533 84.4307C174.186 89.6885 159.727 115.064 168.757 138.238C178.787 163.956 189.703 189.331 200.247 214.849C205.534 227.651 210.763 240.51 216.249 253.254C217.592 256.398 217.935 259.227 217.021 262.599C213.506 275.315 212.649 288.259 214.563 301.347C215.449 307.319 216.849 313.177 218.993 318.835C220.936 314.977 222.707 311.034 224.908 307.319C230.709 297.604 239.31 290.203 246.625 281.744C246.711 281.144 246.768 280.573 246.939 279.973C250.683 265.571 254.455 251.197 258.227 236.795C258.512 236.023 258.741 235.395 258.398 234.423C253.483 220.878 251.712 206.905 252.397 192.56C249.683 183.588 246.882 174.643 244.31 165.614C242.539 159.384 240.11 153.326 239.138 146.868C234.995 141.896 232.109 136.209 229.766 130.209C229.68 130.094 229.566 130.009 229.48 129.894C229.594 129.98 229.708 130.094 229.794 130.18C233.909 132.123 236.567 136.067 240.539 138.181C240.824 136.895 241.139 135.609 241.367 134.295C243.625 121.979 245.854 109.634 248.111 97.3182V97.4039Z" fill="#6A6C65"/>
<path d="M246.597 281.773C239.253 290.232 230.68 297.604 224.879 307.348C222.679 311.034 220.936 315.006 218.964 318.864C214.506 339.839 209.991 360.784 205.619 381.759C204.333 387.874 202.305 393.903 202.247 400.19C202.133 411.106 210.906 420.193 221.793 420.364C231.223 420.536 240.653 420.307 250.083 420.45C254.198 420.507 256.026 417.935 257.627 414.02C260.456 419.907 265.028 420.507 270.143 420.45C280.773 420.307 291.431 420.507 302.062 420.364C309.805 420.278 314.12 413.077 310.377 406.819C309.748 405.762 308.948 404.848 307.862 404.276C297.089 398.59 286.402 392.703 275.315 387.674C267.8 392.275 260.77 397.59 253.54 402.647C253.969 405.219 255.341 407.505 256.312 409.991C255.798 409.991 255.512 410.077 255.369 409.991C254.998 409.706 254.598 409.391 254.34 409.02C250.854 404.305 246.054 401.933 240.424 400.79C236.538 399.99 232.737 398.847 228.88 397.932C227.308 397.561 226.622 396.875 227.194 395.132C230.509 384.731 233.766 374.329 237.024 363.928C240.31 352.069 243.825 340.324 247.911 328.723C248.854 325.494 250.111 322.293 250.626 319.007C251.34 314.492 254.34 312.063 257.541 309.377C269 299.776 281.259 291.146 291.917 280.602C296.489 276.087 300.176 270.886 304.376 266.114C309.891 257.198 315.063 248.111 318.407 238.081C322.55 225.68 325.208 213.049 324.665 199.876C321.693 200.333 318.664 200.562 315.778 201.276C293.117 206.734 276.544 219.993 265.714 240.596C264.799 242.339 264.542 244.597 262.542 245.682C264.656 248.454 266.599 251.34 268.914 253.912C270.486 255.655 270 256.57 268.628 258.056C261.227 265.942 253.94 273.972 246.625 281.916L246.597 281.773ZM255.941 411.992C256.055 411.792 256.169 411.42 256.427 411.306C256.798 411.106 257.112 411.42 257.055 411.763C257.027 412.049 256.827 412.392 256.569 412.563C256.141 412.849 256.026 412.42 255.912 411.992H255.941Z" fill="#F6BB92"/>
<path d="M239.109 146.925C240.081 153.383 242.51 159.441 244.281 165.671C246.853 174.701 249.653 183.645 252.368 192.617C263.227 186.074 274.486 180.359 286.744 176.844C296.86 173.958 307.147 172.329 317.663 172.072C316.32 164.956 312.977 158.698 309.576 152.44C298.803 132.438 282.172 118.378 263.17 106.748C258.14 103.662 253.511 99.8901 248.11 97.4326C245.853 109.749 243.624 122.093 241.367 134.409C241.138 135.724 240.824 137.01 240.538 138.296C240.595 141.267 239.824 144.125 239.109 146.954V146.925Z" fill="#F6BB92"/>
<path d="M317.663 172.072C307.148 172.329 296.86 173.958 286.745 176.844C274.486 180.33 263.227 186.074 252.368 192.618C251.683 206.963 253.454 220.965 258.369 234.481C258.712 235.452 258.484 236.081 258.198 236.853C260.998 239.081 260.998 242.711 262.57 245.54C264.57 244.454 264.827 242.225 265.742 240.453C276.572 219.85 293.117 206.591 315.806 201.133C318.721 200.447 321.721 200.19 324.693 199.733C322.835 190.389 321.492 180.902 317.692 172.043L317.663 172.072Z" fill="#8A8AD9"/>
<path d="M304.376 266C300.147 270.772 296.461 275.972 291.917 280.487C281.258 291.032 268.971 299.661 257.541 309.263C254.34 311.949 251.34 314.378 250.626 318.893C250.111 322.207 248.854 325.379 247.911 328.608C250.968 329.694 254.055 330.78 257.112 331.866C268.628 334.352 279.973 334.152 291.06 329.751C291.546 329.551 292.231 329.809 292.803 329.837C293.917 327.722 296.261 327.38 298.089 326.351C303.433 323.379 306.948 318.493 311.177 314.378C311.863 310.377 314.206 306.92 314.863 302.862C316.063 295.661 315.463 288.717 312.406 282.116C309.862 276.687 307.091 271.372 304.405 266H304.376Z" fill="#7A4922"/>
<path d="M257.112 331.895C254.055 330.809 250.969 329.723 247.911 328.637C243.853 340.239 240.31 352.012 237.024 363.842C238.281 366.7 239.51 369.557 240.767 372.415C245.139 382.445 248.711 392.818 253.54 402.648C260.741 397.59 267.8 392.303 275.315 387.674C269.714 370.557 264.085 353.469 258.484 336.353C257.998 334.867 257.57 333.381 257.112 331.866V331.895Z" fill="#6B6D66"/>
<path d="M239.11 146.925C239.824 144.068 240.596 141.239 240.539 138.267C236.567 136.124 233.909 132.209 229.794 130.266C232.109 136.295 235.023 141.953 239.167 146.954L239.11 146.925Z" fill="#4D4D48"/>
<path d="M229.793 130.266C229.679 130.18 229.565 130.066 229.479 129.98C229.565 130.094 229.679 130.18 229.765 130.294L229.793 130.266Z" fill="#4D4D48"/>
<path d="M306.948 265.313C315.692 263.227 323.036 265.942 328.694 273C334.409 280.116 335.352 288.374 332.123 297.032C329.608 303.776 326.694 310.348 324.093 317.064C319.293 329.437 320.464 342.439 320.378 355.298C320.378 358.012 320.407 360.727 320.436 364.127C308.662 354.24 297.975 344.325 292.803 329.465C309.12 325.551 320.464 308.462 317.492 288.374C316.178 279.573 311.891 272.286 306.976 265.313H306.948Z" fill="#7A4922"/>
<path d="M306.948 265.313C311.863 272.286 316.149 279.573 317.464 288.374C320.436 308.462 309.091 325.551 292.775 329.465C292.575 329.294 292.489 329.094 292.546 328.808C294.003 325.351 297.518 324.436 300.004 322.293C313.549 310.634 315.349 290.003 307.348 274.915C305.948 272.286 304.348 269.771 302.833 267.199C304.09 266.256 305.376 265.428 306.948 265.313Z" fill="#5C381A"/>
</svg>
