<svg width="500" height="500" viewBox="0 0 500 500" fill="none" xmlns="http://www.w3.org/2000/svg">
<path d="M227.734 449.552C227.875 450.116 227.981 450.61 228.546 450.258C228.828 450.081 229.11 449.622 229.146 449.27C229.181 448.811 228.828 448.458 228.369 448.705C228.087 448.846 227.946 449.305 227.77 449.552H227.734Z" fill="#F5BB92"/>
<path d="M247.666 61.1727C229.075 48.8606 209.636 40.1821 186.458 45.1563C156.401 51.6476 138.55 82.9747 149.698 111.585C162.081 143.336 175.557 174.663 188.575 206.167C195.102 221.971 201.558 237.847 208.331 253.581C209.989 257.461 210.412 260.954 209.284 265.117C204.944 280.816 203.886 296.797 206.25 312.954C207.343 320.327 209.072 327.56 211.718 334.545C214.117 329.782 216.304 324.914 219.02 320.327C226.182 308.333 236.801 299.196 245.832 288.753C245.938 288.012 246.008 287.307 246.22 286.566C250.841 268.786 255.498 251.041 260.155 233.26C260.508 232.308 260.79 231.532 260.367 230.332C254.299 213.61 252.111 196.359 252.958 178.65C249.607 167.572 246.149 156.53 242.974 145.382C240.787 137.691 237.788 130.212 236.589 122.24C231.474 116.101 227.911 109.081 225.018 101.672C224.912 101.531 224.771 101.425 224.665 101.284C224.806 101.39 224.947 101.531 225.053 101.637C230.133 104.036 233.414 108.904 238.318 111.515C238.67 109.927 239.058 108.34 239.341 106.717C242.128 91.5121 244.879 76.2718 247.666 61.0669V61.1727Z" fill="#6A6C65"/>
<path d="M245.797 288.789C236.73 299.231 226.147 308.333 218.985 320.363C216.269 324.914 214.117 329.818 211.682 334.58C206.179 360.474 200.605 386.333 195.207 412.228C193.62 419.777 191.115 427.221 191.045 434.982C190.903 448.459 201.734 459.677 215.175 459.889C226.817 460.1 238.459 459.818 250.101 459.995C255.181 460.065 257.438 456.89 259.414 452.057C262.907 459.324 268.551 460.065 274.866 459.995C287.99 459.818 301.148 460.065 314.272 459.889C323.832 459.783 329.159 450.893 324.538 443.167C323.762 441.862 322.774 440.733 321.433 440.027C308.133 433.007 294.939 425.739 281.251 419.53C271.973 425.21 263.295 431.772 254.369 438.016C254.898 441.191 256.592 444.014 257.791 447.083C257.156 447.083 256.803 447.189 256.627 447.083C256.168 446.73 255.675 446.342 255.357 445.883C251.053 440.062 245.126 437.134 238.176 435.723C233.379 434.735 228.687 433.324 223.924 432.195C221.984 431.737 221.137 430.89 221.843 428.738C225.935 415.897 229.957 403.055 233.978 390.214C238.035 375.574 242.375 361.074 247.419 346.751C248.584 342.765 250.136 338.814 250.771 334.757C251.653 329.183 255.357 326.184 259.308 322.868C273.455 311.014 288.589 300.36 301.748 287.342C307.393 281.768 311.943 275.348 317.129 269.456C323.938 258.45 330.324 247.231 334.451 234.848C339.566 219.537 342.847 203.944 342.177 187.681C338.508 188.246 334.769 188.528 331.205 189.41C303.23 196.148 282.768 212.517 269.398 237.953C268.269 240.105 267.951 242.892 265.482 244.232C268.093 247.654 270.491 251.217 273.349 254.392C275.289 256.544 274.69 257.673 272.996 259.508C263.859 269.245 254.863 279.158 245.832 288.965L245.797 288.789ZM257.333 449.552C257.474 449.305 257.615 448.847 257.932 448.706C258.391 448.459 258.779 448.847 258.708 449.27C258.673 449.623 258.426 450.046 258.109 450.258C257.58 450.611 257.438 450.081 257.297 449.552H257.333Z" fill="#F6BB92"/>
<path d="M236.554 122.31C237.753 130.283 240.752 137.762 242.939 145.453C246.114 156.601 249.571 167.643 252.923 178.72C266.328 170.641 280.228 163.586 295.363 159.247C307.851 155.683 320.551 153.673 333.534 153.355C331.876 144.571 327.748 136.845 323.55 129.119C310.25 104.424 289.718 87.067 266.258 72.7088C260.049 68.8987 254.334 64.2419 247.666 61.208C244.879 76.413 242.127 91.6532 239.341 106.858C239.058 108.481 238.67 110.069 238.317 111.656C238.388 115.325 237.435 118.853 236.554 122.345V122.31Z" fill="#F6BB92"/>
<path d="M333.533 153.355C320.551 153.673 307.851 155.683 295.362 159.247C280.228 163.551 266.328 170.641 252.922 178.72C252.076 196.43 254.263 213.716 260.331 230.403C260.754 231.602 260.472 232.379 260.119 233.331C263.576 236.083 263.576 240.563 265.517 244.056C267.986 242.715 268.304 239.963 269.433 237.776C282.803 212.34 303.229 195.971 331.24 189.233C334.839 188.387 338.543 188.069 342.212 187.505C339.919 175.969 338.261 164.256 333.569 153.32L333.533 153.355Z" fill="#8A8AD9"/>
<path d="M317.13 269.315C311.908 275.207 307.358 281.628 301.748 287.202C288.589 300.219 273.42 310.873 259.308 322.727C255.357 326.043 251.653 329.042 250.771 334.616C250.136 338.708 248.584 342.624 247.42 346.61C251.194 347.951 255.004 349.291 258.779 350.632C272.996 353.701 287.002 353.454 300.69 348.021C301.29 347.774 302.136 348.092 302.842 348.127C304.218 345.517 307.111 345.093 309.368 343.823C315.965 340.154 320.305 334.122 325.526 329.042C326.373 324.103 329.265 319.834 330.077 314.824C331.558 305.934 330.818 297.362 327.043 289.212C323.903 282.51 320.481 275.948 317.165 269.315H317.13Z" fill="#7A4922"/>
<path d="M258.779 350.667C255.004 349.327 251.194 347.986 247.42 346.646C242.41 360.969 238.035 375.503 233.978 390.108C235.531 393.636 237.048 397.164 238.6 400.692C243.998 413.075 248.407 425.881 254.369 438.016C263.26 431.772 271.973 425.246 281.251 419.531C274.337 398.399 267.387 377.302 260.473 356.171C259.873 354.336 259.344 352.502 258.779 350.632V350.667Z" fill="#6B6D66"/>
<path d="M236.554 122.31C237.436 118.782 238.388 115.29 238.318 111.621C233.414 108.975 230.133 104.142 225.053 101.743C227.91 109.186 231.509 116.172 236.624 122.345L236.554 122.31Z" fill="#4D4D48"/>
<path d="M225.053 101.743C224.912 101.637 224.771 101.496 224.665 101.39C224.771 101.531 224.912 101.637 225.017 101.778L225.053 101.743Z" fill="#4D4D48"/>
<path d="M320.305 268.468C331.1 265.893 340.166 269.244 347.151 277.958C354.207 286.742 355.371 296.938 351.385 307.627C348.28 315.953 344.682 324.067 341.472 332.357C335.545 347.633 336.991 363.684 336.885 379.56C336.885 382.911 336.921 386.263 336.956 390.461C322.421 378.254 309.227 366.013 302.842 347.668C322.986 342.835 336.991 321.739 333.322 296.938C331.7 286.072 326.408 277.076 320.34 268.468H320.305Z" fill="#7A4922"/>
<path d="M320.305 268.468C326.373 277.076 331.664 286.072 333.287 296.938C336.956 321.739 322.951 342.835 302.807 347.668C302.56 347.456 302.454 347.21 302.525 346.857C304.324 342.588 308.663 341.459 311.732 338.813C328.454 324.42 330.677 298.949 320.799 280.322C319.07 277.076 317.094 273.972 315.225 270.797C316.777 269.632 318.365 268.609 320.305 268.468Z" fill="#5C381A"/>
</svg>
