<svg width="500" height="500" viewBox="0 0 500 500" fill="none" xmlns="http://www.w3.org/2000/svg">
<path d="M131.929 336.12C138.526 336.47 144.696 334.296 150.944 332.705C162.586 329.756 174.189 326.69 186.141 325.061C196.309 323.664 206.243 324.556 215.945 327.971C221.61 329.989 227.315 330.183 233.136 328.864C250.366 324.867 267.673 321.219 285.058 317.843C290.026 316.872 294.217 314.544 297.942 311.246C306.053 304.028 315.288 298.983 326.077 296.965C330.035 296.228 334.071 295.878 338.106 295.956C345.247 296.072 352.348 296.189 359.489 296.305C360.963 299.022 363.641 300.38 366.047 302.01C367.095 302.825 368.142 303.64 369.151 304.493C369.268 316.174 369.345 327.816 369.462 339.496C355.22 348.965 339.775 355.252 322.778 357.464C310.981 358.977 299.106 359.132 287.232 359.055C258.903 358.822 230.536 358.705 202.207 359.094C179.544 359.404 156.882 359.947 134.219 360.413C133.443 360.413 132.628 360.374 131.852 360.374C131.852 352.186 131.89 344.153 131.929 336.12Z" fill="#696D66"/>
<path d="M369.423 339.38C369.306 327.699 369.229 316.057 369.112 304.376C369.229 304.182 369.423 304.027 369.423 303.833C369.461 296.964 369.461 290.135 369.461 283.266C369.461 282.373 369.073 281.597 368.064 281.364C368.142 280.743 368.22 280.084 368.258 279.463C368.763 261.845 368.647 244.266 368.608 226.648C368.608 220.904 369.966 215.704 374.351 211.63C376.33 209.767 378.853 208.836 381.22 207.594C389.214 206.934 394.763 211.048 399.536 216.907C401.089 218.809 401.865 221.448 404.542 222.301C405.435 225.716 407.142 228.743 408.695 231.887C409.432 233.361 410.169 234.836 410.208 236.504C409.315 237.475 408.889 238.716 408.306 239.881C405.512 245.197 401.826 249.543 395.888 251.522C394.569 251.949 394.22 252.881 394.065 254.122C393.017 263.358 393.327 272.672 393.288 281.946C392.9 282.8 392.435 283.576 392.396 284.585C392.357 290.95 392.474 297.353 392.008 303.717C391.581 309.305 392.357 314.893 391.581 320.481C391.348 322.072 391.891 323.508 393.754 323.935C393.521 324.284 393.366 324.711 393.056 325.021C390.572 327.505 391.115 330.415 394.103 332.977C396.16 334.762 398.217 336.586 400.235 338.409C405.241 342.95 406.56 348.771 406.289 355.213C406.25 356.416 405.629 356.998 404.465 357.23C401.205 357.851 397.906 357.774 394.608 357.929C389.524 358.162 384.402 357.968 379.318 358.084C377.417 358.123 376.447 357.347 375.826 355.601C374.157 350.866 372.411 346.171 370.664 341.475C370.354 340.699 369.85 340.078 369.423 339.38Z" fill="#F5B992"/>
<path d="M381.181 199.872C380.522 197.272 378.543 195.759 376.602 194.09C375.283 192.926 373.847 191.8 372.877 190.248C374.08 189.239 375.244 188.153 376.486 187.221C385.14 180.857 389.02 172.475 387.196 161.726C386.77 159.242 387.546 157.224 389.331 155.517C393.289 151.752 397.053 147.794 400.701 143.72C401.788 142.517 402.641 141.042 404.077 140.149C405.047 140.732 405.241 141.779 405.474 142.711C406.832 148.26 410.713 151.597 415.37 154.314C416.922 155.206 418.513 156.021 420.104 156.875C422.355 158.155 422.743 159.747 421.035 161.764C418.203 165.141 417.659 168.711 419.561 172.747C421.035 175.929 421.346 179.188 419.638 182.487C418.823 184.039 417.698 185.281 416.146 185.863C410.946 187.881 408.928 191.956 408.268 197.195C407.686 202.006 407.298 206.896 406.211 211.63C406.056 212.329 405.785 212.989 405.591 213.687C403.068 212.523 402.098 210.001 400.585 207.983C397.441 203.83 393.677 200.648 388.399 199.562C385.993 199.096 383.587 199.756 381.181 199.872Z" fill="#F5B992"/>
<path d="M404.115 140.188C402.718 141.12 401.825 142.556 400.739 143.759C397.091 147.833 393.327 151.791 389.369 155.556C387.545 157.263 386.807 159.281 387.234 161.765C389.058 172.514 385.177 180.896 376.524 187.26C375.243 188.192 374.118 189.278 372.915 190.287C370.004 188.774 368.142 186.174 365.968 183.845C365.503 183.341 365.348 182.332 364.3 182.487C364.377 181.556 363.873 180.857 363.407 180.12C359.992 174.571 357.936 168.517 357.936 162.075C357.936 151.908 362.67 143.875 370.392 137.511C370.936 137.045 371.712 136.851 371.673 135.959C372.565 136.269 373.148 135.609 373.846 135.26C383.664 130.06 394.801 131.341 403.106 138.675C403.572 139.102 404.231 139.412 404.115 140.188Z" fill="#804210"/>
<path d="M359.139 186.018C352.542 189.627 346.1 193.701 338.571 195.254C338.028 195.37 337.446 195.564 336.903 195.603C333.992 195.875 332.712 194.71 333.255 191.839C333.876 188.54 334.807 185.281 335.661 181.982C336.67 178.101 337.834 174.221 338.765 170.301C340.279 163.665 339.929 157.03 338.261 150.433C335.622 139.877 341.676 130.176 351.959 128.274C355.762 127.576 359.41 128.235 362.864 129.982C365.58 131.34 368.103 132.97 370.509 134.832C369.733 136.346 368.142 136.656 366.783 137.2C357.315 141.197 352.58 153.537 354.288 163.277C354.792 166.227 355.452 169.176 355.685 172.164C356.073 177.015 356.539 181.749 359.139 186.018Z" fill="#804310"/>
<path d="M131.929 336.12C131.89 344.153 131.89 352.186 131.851 360.219C131.23 360.724 130.454 360.53 129.756 360.53C125.526 360.568 121.257 360.568 117.027 360.607C107.132 360.724 97.1971 360.84 87.3016 361.073C85.012 361.112 82.7224 361.422 80.4329 361.5C78.6478 361.538 77.2508 360.918 76.6687 359.249C76.0866 357.58 76.8627 356.144 78.1821 355.058C81.015 352.729 83.8478 350.44 86.7195 348.112C93.1613 342.95 99.5643 337.75 106.045 332.628C111.555 328.282 117.958 328.282 123.469 332.589C125.991 334.607 128.824 335.616 131.929 336.12Z" fill="#F5BC92"/>
<path d="M393.288 281.947C393.288 272.672 392.978 263.398 394.064 254.123C394.219 252.881 394.608 251.95 395.888 251.523C401.825 249.544 405.512 245.197 408.306 239.881C408.888 238.756 409.354 237.514 410.208 236.505C415.912 243.994 421.811 251.406 423.246 261.108C424.449 269.102 422.121 276.281 417.581 282.839C416.843 282.723 416.067 282.607 415.33 282.49C408.733 281.559 402.136 282.102 395.5 282.18C394.763 282.141 394.025 282.025 393.288 281.947Z" fill="#8A8AD9"/>
<path d="M395.5 282.218C402.097 282.14 408.733 281.597 415.33 282.529C415.563 283.499 416.339 283.576 417.115 283.732C416.844 284.702 416.456 285.594 415.718 286.293C414.826 286.37 414.865 287.03 414.903 287.651C414.671 288.621 414.244 289.475 413.545 290.173C412.653 290.251 412.73 290.911 412.73 291.532C412.614 292.191 412.342 292.773 411.838 293.2C410.945 293.278 410.984 293.938 411.023 294.558C409.393 298.012 407.491 301.272 405.396 304.454C404.115 304.687 404.115 305.696 404.115 306.627C402.097 310.663 399.691 314.505 397.169 318.269C396.276 318.308 396.315 318.968 396.315 319.588C395.733 319.588 395.423 319.899 395.5 320.52C395.035 320.481 394.608 320.481 394.142 320.442C394.103 316.406 394.841 312.37 394.569 308.335C397.324 307.753 397.479 304.299 394.569 301.854C394.608 299.254 395.229 296.693 394.996 294.093C395.927 294.015 397.13 294.015 397.053 292.812C397.014 291.648 396.393 290.523 394.996 290.212C395.306 288.66 395.5 287.069 395.423 285.478C396.005 285.361 396.897 285.749 397.014 284.935C397.13 283.887 396.665 282.917 395.539 282.49C395.5 282.373 395.5 282.296 395.5 282.218Z" fill="#F5B992"/>
<path d="M359.139 186.019C356.578 181.75 356.074 177.016 355.647 172.204C355.375 169.216 354.754 166.266 354.25 163.317C352.542 153.577 357.277 141.236 366.745 137.239C368.065 136.696 369.695 136.347 370.471 134.872C371.014 135.066 371.402 135.454 371.713 135.92C371.713 136.812 370.975 137.045 370.432 137.472C362.71 143.836 357.975 151.908 357.975 162.036C357.975 168.478 360.032 174.571 363.447 180.081C363.913 180.819 364.417 181.517 364.339 182.448C363.059 184.389 361.002 185.087 359.139 186.019Z" fill="#633402"/>
<path d="M381.18 199.872C383.586 199.717 385.954 199.096 388.398 199.6C393.676 200.648 397.44 203.869 400.583 208.021C402.097 210.039 403.067 212.562 405.589 213.726C406.133 216.714 405.046 219.508 404.464 222.341C401.786 221.487 401.01 218.848 399.458 216.947C394.724 211.087 389.174 207.012 381.142 207.633C381.18 205.072 381.18 202.472 381.18 199.872Z" fill="#DDA781"/>
<path d="M394.995 294.055C395.228 296.655 394.607 299.216 394.568 301.816C394.568 303.989 394.568 306.123 394.568 308.296C394.84 312.332 394.102 316.368 394.141 320.404C394.141 321.296 394.141 322.15 394.141 323.043C393.986 323.314 393.87 323.586 393.753 323.896C391.89 323.47 391.347 322.034 391.58 320.443C392.356 314.855 391.619 309.267 392.007 303.678C392.473 297.314 392.356 290.911 392.395 284.547C392.395 283.538 392.861 282.762 393.287 281.908C394.025 281.986 394.762 282.063 395.499 282.18C395.499 282.257 395.538 282.335 395.538 282.413C395.499 283.422 395.499 284.392 395.461 285.401C395.577 286.992 395.344 288.583 395.034 290.135C394.995 291.455 394.995 292.774 394.995 294.055Z" fill="#DAA881"/>
<path d="M368.065 281.404C369.074 281.637 369.462 282.374 369.462 283.306C369.462 290.175 369.462 297.004 369.423 303.873C369.423 304.067 369.229 304.222 369.112 304.416C368.065 303.601 367.017 302.787 366.008 301.933C366.008 296.112 366.008 290.33 366.008 284.548C366.163 283.151 366.202 281.676 368.065 281.404Z" fill="#DDA781"/>
<path d="M366.047 284.547C366.047 290.329 366.047 296.15 366.047 301.932C363.641 300.302 360.963 298.905 359.488 296.228C361.002 291.959 363.214 288.078 366.047 284.547Z" fill="#F5BA93"/>
<path d="M394.143 323.042C394.143 322.15 394.143 321.296 394.143 320.403C394.608 320.442 395.035 320.442 395.501 320.481C395.462 321.568 394.958 322.382 394.143 323.042Z" fill="#F6BB93"/>
<path d="M417.076 283.693C416.3 283.538 415.524 283.46 415.291 282.49C416.028 282.607 416.804 282.723 417.542 282.839C417.387 283.15 417.231 283.422 417.076 283.693Z" fill="#F6BB93"/>
<path d="M404.076 306.627C404.115 305.657 404.115 304.687 405.357 304.454C405.163 305.308 404.813 306.084 404.076 306.627Z" fill="#F6BB93"/>
<path d="M414.904 287.651C414.865 287.03 414.826 286.371 415.718 286.293C415.68 286.875 415.369 287.302 414.904 287.651Z" fill="#F6BB93"/>
<path d="M412.731 291.532C412.692 290.911 412.653 290.251 413.546 290.174C413.507 290.756 413.235 291.183 412.731 291.532Z" fill="#F6BB93"/>
<path d="M410.984 294.559C410.945 293.938 410.906 293.279 411.799 293.201C411.799 293.783 411.488 294.21 410.984 294.559Z" fill="#F6BB93"/>
<path d="M396.315 319.588C396.276 318.967 396.276 318.307 397.169 318.269C397.091 318.851 396.819 319.278 396.315 319.588Z" fill="#F6BB93"/>
<path d="M395.5 320.482C395.422 319.861 395.733 319.59 396.315 319.551C396.237 320.055 396.043 320.443 395.5 320.482Z" fill="#F6BB93"/>
<path d="M394.568 308.334C394.568 306.161 394.568 304.027 394.568 301.854C397.479 304.298 397.324 307.752 394.568 308.334Z" fill="#F5B991"/>
<path d="M394.996 294.054C394.996 292.774 394.996 291.454 394.996 290.174C396.393 290.484 396.975 291.61 397.053 292.774C397.13 293.977 395.927 293.977 394.996 294.054Z" fill="#F5B991"/>
<path d="M395.423 285.439C395.462 284.43 395.462 283.46 395.5 282.451C396.665 282.878 397.092 283.848 396.975 284.896C396.936 285.711 396.005 285.323 395.423 285.439Z" fill="#F5B991"/>
</svg>
