<svg width="500" height="500" viewBox="0 0 500 500" fill="none" xmlns="http://www.w3.org/2000/svg">
<path d="M409.401 264.512L384.098 305.992L383.614 263.596L396.605 259.522L409.401 264.512Z" fill="#F5BA92"/>
<path d="M121.797 337.408C128.594 337.155 134.726 334.371 141.005 332.19C152.679 328.087 164.314 323.904 176.398 321.168C186.675 318.833 196.982 318.816 207.192 321.433C213.192 322.961 219.07 322.688 224.904 320.776C242.204 315.117 259.616 309.78 277.102 304.764C282.087 303.314 286.181 300.566 289.738 296.807C297.424 288.664 306.422 282.666 317.274 279.584C321.293 278.473 325.343 277.761 329.504 277.451C336.826 276.93 344.149 276.369 351.471 275.848C353.252 278.483 356.102 279.663 358.708 281.117C359.85 281.861 360.993 282.605 362.135 283.348C363.276 295.278 364.456 307.248 365.597 319.177C351.858 330.146 336.587 338.046 319.367 341.829C307.406 344.448 295.235 345.703 283.069 346.679C253.976 349.008 224.92 351.497 195.894 354.426C172.673 356.802 149.526 359.419 126.341 361.955C125.54 362.057 124.701 362.079 123.901 362.102C123.2 353.857 122.499 345.653 121.797 337.408Z" fill="#696D65"/>
<path d="M357.765 360.034C357.708 362.67 358.172 365.237 359.037 367.732L360.582 372.04C361.176 374.13 362.194 375.111 364.111 375.112C369.345 375.105 393.657 375.869 398.894 375.703C402.292 375.576 405.684 375.769 409.054 375.083C410.258 374.829 410.912 374.124 410.983 372.687C411.47 364.948 412.126 366.001 408.417 363.883C406.388 361.643 385.272 358.99 383.203 356.788L385.584 242.667C385.777 241.153 386.2 240.043 387.529 239.553C393.69 237.289 397.596 232.14 400.609 225.813C401.237 224.468 401.749 222.961 402.652 221.822C402.024 219.452 401.652 218.205 401.216 216.198C399.699 212.411 398.022 208.699 397.192 204.566C394.459 203.469 393.761 196.942 392.253 194.633C387.534 187.46 381.858 185.74 373.616 186.361C371.149 187.746 368.568 188.849 366.444 191.04C361.826 195.854 360.254 202.052 360.144 209.001L357.724 360.074L357.765 360.034Z" fill="#F5BA92"/>
<path d="M121.999 337.292C122.74 345.537 123.522 353.743 124.263 361.989C123.651 362.575 122.895 362.439 122.175 362.503C117.85 362.969 113.488 363.354 109.163 363.82C99.0324 364.92 88.8618 366.019 78.7294 367.199C76.4066 367.468 74.0777 368.017 71.7149 368.286C69.8721 368.526 68.4051 368.015 67.6426 366.32C66.8794 364.666 67.5119 363.122 68.7764 361.911C71.4704 359.252 74.1244 356.593 76.8174 353.974C82.8979 348.033 88.9784 342.092 95.137 336.233C100.358 331.232 106.923 330.615 112.991 334.501C115.749 336.278 118.769 337.022 122 337.252L121.999 337.292Z" fill="#F5BA92"/>
<path d="M384.424 263.055C384.63 253.511 384.517 243.961 385.84 234.442C386.028 233.168 386.448 232.218 387.775 231.807C393.928 229.903 397.818 225.512 400.811 220.104C401.435 218.959 401.941 217.692 402.842 216.672C408.546 224.505 414.451 232.263 415.713 242.277C416.773 250.53 414.218 257.865 409.401 264.512C408.645 264.376 407.849 264.239 407.092 264.103C400.325 262.998 393.525 263.411 386.695 263.343C385.938 263.247 385.181 263.151 384.425 263.015L384.424 263.055Z" fill="#8B8ADF"/>
<path d="M367.661 190.188C367.125 187.26 368.063 177.093 364.448 176.176C362.655 175.938 363.926 176.285 361.499 175.833C361.972 174.285 362.366 172.696 362.957 171.191C366.896 160.849 365.62 151.474 358.049 143.161C356.293 141.245 355.86 139.079 356.473 136.575C357.79 131.091 358.867 125.601 359.746 120.027C360.022 118.355 359.939 116.636 360.653 115.053C361.812 114.998 362.594 115.814 363.299 116.469C367.566 120.516 372.783 121.267 378.341 121.028C380.18 120.947 382.022 120.747 383.862 120.627C386.542 120.485 387.755 121.67 387.418 124.339C386.841 128.841 388.366 132.23 392.228 134.67C395.263 136.573 397.363 139.255 397.68 143.057C397.841 144.858 397.992 148.976 397.003 150.353C395.429 158.508 400.505 212.109 402.837 216.993L401.111 219.233L367.664 190.068L367.661 190.188Z" fill="#F5BA92"/>
<path d="M360.65 115.133C359.937 116.715 359.98 118.434 359.744 120.107C358.865 125.681 357.788 131.17 356.471 136.655C355.858 139.158 356.291 141.285 358.047 143.24C365.618 151.513 366.933 160.929 362.955 171.27C362.363 172.775 361.97 174.365 361.497 175.913C358.134 176.24 355.044 175.015 351.906 174.188C351.191 174.013 350.529 173.199 349.675 173.94C349.253 173.092 348.421 172.794 347.591 172.377C341.541 169.49 336.397 165.344 332.802 159.794C327.159 151.003 326.767 141.407 329.894 131.607C330.109 130.933 330.641 130.305 330.139 129.535C331.102 129.316 331.242 128.401 331.616 127.729C337.224 117.743 347.6 112.694 358.868 114.415C359.505 114.509 360.226 114.445 360.61 115.172L360.65 115.133Z" fill="#8A4101"/>
<path d="M347.191 179.839C343.488 186.67 340.18 193.709 334.548 199.26C334.139 199.691 333.73 200.122 333.282 200.511C330.925 202.378 329.174 202.061 328.036 199.28C326.707 196.055 325.7 192.718 324.613 189.419C323.3 185.475 322.187 181.496 320.793 177.591C318.419 170.989 314.423 165.469 309.294 160.645C301.151 152.959 300.965 141.21 308.833 133.869C311.728 131.175 315.275 129.694 319.199 129.259C322.283 128.926 325.399 128.914 328.508 129.22C328.671 130.942 327.447 132.114 326.622 133.334C320.642 142.034 323.429 155.397 330.299 162.856C332.367 165.137 334.557 167.342 336.462 169.78C339.493 173.72 342.566 177.542 347.152 179.798L347.191 179.839Z" fill="#8A4101"/>
<path d="M347.19 179.839C342.605 177.583 339.531 173.762 336.5 169.821C334.595 167.383 332.446 165.18 330.338 162.897C323.468 155.438 320.68 142.075 326.66 133.376C327.485 132.155 328.709 130.983 328.546 129.262C329.108 129.154 329.665 129.246 330.219 129.498C330.722 130.267 330.189 130.895 329.975 131.57C326.846 141.409 327.238 151.006 332.882 159.756C336.477 165.347 341.622 169.452 347.671 172.339C348.462 172.716 349.295 173.013 349.755 173.902C349.745 176.219 348.349 177.987 347.23 179.84L347.19 179.839Z" fill="#5C3717"/>
<path d="M359.594 260.442C359.426 268.228 359.259 275.975 359.091 283.761C356.103 281.499 352.789 279.59 350.991 275.916C354.881 271.486 357.45 267.227 359.594 260.442Z" fill="#F5BA92"/>
<path d="M384.431 305.361C384.451 304.442 384.469 303.564 384.489 302.646C384.968 302.656 385.407 302.705 385.885 302.756C385.822 303.833 385.284 304.7 384.431 305.361Z" fill="#F6BB93"/>
<path d="M408.903 265.381C408.108 265.204 407.311 265.107 407.093 264.104C407.849 264.24 408.645 264.377 409.401 264.513C409.235 264.789 409.069 265.065 408.904 265.341L408.903 265.381Z" fill="#F6BB93"/>
<path d="M385.198 290.197C385.246 287.961 385.294 285.764 385.342 283.528C388.242 286.108 388.046 289.659 385.198 290.197Z" fill="#F5B991"/>
<path d="M385.953 275.552C385.981 274.234 386.011 272.876 386.039 271.559C387.47 271.909 388.044 273.08 388.098 274.28C388.111 275.518 386.913 275.492 385.953 275.552Z" fill="#F5B991"/>
<path d="M386.584 266.657C386.606 265.619 386.668 264.622 386.73 263.585C387.919 264.05 388.336 265.057 388.193 266.133C388.095 266.97 387.146 266.55 386.544 266.657L386.584 266.657Z" fill="#F5B991"/>
<path d="M368.979 190.135C371.529 188.632 374.584 187.74 377.467 187.442C383.914 186.702 389.646 189.542 393.368 194.776C397.09 200.01 398.87 206.4 400.014 212.617C400.301 214.141 402.63 213.552 402.344 212.028C400.588 202.682 397.078 191.301 387.788 186.786C382.688 184.279 376.771 184.511 371.496 186.435C366.221 188.358 368.959 187.379 367.786 188.072C366.612 188.766 367.604 190.945 368.939 190.174L368.979 190.135Z" fill="#DDA781"/>
<path d="M358.226 264.447L357.849 281.937C357.815 283.494 359.535 283.531 359.569 281.974L359.946 264.484C359.979 262.927 358.259 262.89 358.226 264.447Z" fill="#DDA781"/>
<path d="M384.401 264.173L383.571 302.625C383.538 304.183 385.59 304.227 385.624 302.67L386.453 264.217C386.487 262.66 384.434 262.616 384.401 264.173Z" fill="#DDA781"/>
</svg>
