<svg width="497" height="497" viewBox="0 0 497 497" fill="none" xmlns="http://www.w3.org/2000/svg">
<path d="M429.704 401.207C420.737 398.089 407.064 398.237 406.917 394.377C405.741 363.492 403.242 317.165 403.242 317.165C405.447 286.429 421.325 227.036 418.825 215.454C416.326 204.021 392.951 206.397 392.51 218.127C391.04 231.936 389.276 238.469 387.806 252.724C385.601 270.393 382.954 307.514 384.425 317.759C384.572 319.096 394.421 387.547 394.421 387.547C394.421 387.547 394.715 396.01 395.892 400.613C397.215 405.81 400.596 404.622 410.887 405.81C418.384 406.849 435.879 403.434 429.704 401.207Z" fill="#ECAD83"/>
<path d="M294.189 290.618C294.189 290.618 281.392 288.968 271.422 291.069C250.887 295.421 243 311.329 243 311.329C243 311.329 249.101 358.453 259.517 355.902C279.308 351.25 295.082 348.098 304.754 346.147C311.301 344.796 308.325 312.68 308.325 312.68L294.189 290.618Z" fill="#3D3C3C"/>
<path d="M406.073 281.31C422.936 274.139 423.981 252.924 428.607 238.731C429.502 236.191 432.338 223.641 430.248 218.113C428.01 211.988 424.578 207.356 417.713 204.667C412.341 202.575 393.388 204.219 367.422 227.525C354.737 237.535 313.699 292.217 294 290.723C294 290.723 303.402 309.099 305.043 321.201C306.685 333.452 304.745 346.002 304.745 346.002C358.02 329.269 374.585 290.573 391.597 283.253C391.597 283.253 399.059 284.299 406.073 281.31Z" fill="#FF8AA0"/>
<path d="M415.069 404.358C408.909 400.491 391.899 398.557 392.192 394.69C394.392 363.754 403.19 317.349 403.19 317.349C405.39 286.561 421.228 227.068 418.735 215.467C416.242 204.014 392.925 206.394 392.485 218.144C391.019 231.976 389.259 238.52 387.793 252.799C385.593 270.498 382.953 307.681 384.42 317.944C384.567 319.282 380.021 396.326 381.194 400.937C382.513 406.142 385.886 404.953 396.151 406.142C403.63 407.184 420.641 407.927 415.069 404.358Z" fill="#F6BB92"/>
<path d="M429.489 212.735C429.489 212.735 432.277 207.055 438 197.639L420.832 180.002C419.804 192.408 411 203.767 411 203.767C426.408 208.998 426.995 218.116 430.663 222.002L429.489 212.735Z" fill="#ECAD83"/>
<path d="M453.012 161.133C457.044 152.463 451.818 145.737 448.383 142C437.482 130.491 428.522 130.939 417.322 133.48C402.538 136.769 405.525 177.126 408.213 183.404C415.381 199.846 440.468 201.191 450.175 199.398C460.927 197.305 457.343 194.316 456.148 190.13C456.148 189.981 456.447 189.233 456.447 189.233C456.148 187.739 455.551 185.796 456.148 183.703C456.148 183.703 455.551 182.507 455.252 181.76C455.103 181.311 455.103 181.013 455.551 180.714C457.044 179.817 458.388 179.069 458.836 178.173C460.329 175.482 451.071 165.168 453.012 161.133Z" fill="#F6BB92"/>
<path d="M450 185.914C450 185.914 451.219 186.327 456.094 185.363C456.704 184.95 457.618 184.124 456.399 183.161C455.485 182.335 453.504 184.95 450 185.914Z" fill="#D6876B"/>
<path d="M450 186.602C450 186.602 451.624 188.852 456.82 189.002C457.47 188.852 457.957 188.102 457.957 187.802C458.282 186.152 456.658 186.002 456.658 186.002C451.299 187.052 450 186.602 450 186.602Z" fill="#CC785E"/>
<path d="M415.741 131.482C397.922 135.469 379.808 166.477 410.734 191.43C412.796 193.055 417.067 194.679 421.632 189.363C424.872 185.524 426.786 181.095 426.786 181.095C427.376 179.766 427.817 178.289 428.406 176.665C428.996 174.893 425.903 166.329 427.67 165.738C444.606 159.094 449.908 148.167 448.877 143.443C444.459 132.516 434.739 127.2 415.741 131.482Z" fill="#602F0F"/>
<path d="M423 176.649C427.286 184.042 430.572 183.599 435 182.12L429.857 170.438L426.429 166.002C422 167.481 418.715 169.403 423 176.649Z" fill="#F6BB92"/>
<path d="M393.708 164.413C388.69 161.771 388.838 152.818 393.708 144.305C398.726 135.792 406.696 131.095 411.714 133.737C416.731 136.379 415.698 143.424 410.68 151.79C405.81 160.45 398.726 167.055 393.708 164.413Z" fill="#4C230C"/>
<path d="M430.217 166.944C429.621 165.603 429.323 164.261 429.174 163.218C428.876 161.727 428.876 160.684 428.876 160.684L424.105 163.665C424.255 164.41 424.404 165.156 424.553 166.05C424.553 166.05 425.149 165.752 426.043 165.156C426.043 165.156 425.894 165.156 425.894 165.305C426.938 166.348 428.13 167.988 429.621 170.373C429.621 170.224 431.857 171.267 430.217 166.944Z" fill="#602F0F"/>
<path d="M390.416 164.709C385.198 161.877 385.347 152.039 390.863 142.499C396.378 133.107 405.173 127.741 410.39 130.573C415.608 133.406 414.415 141.157 408.9 150.548C403.533 160.088 395.782 167.542 390.416 164.709Z" fill="#602F0F"/>
<path d="M390.172 147.98C389.62 147.696 390.447 145.279 391.965 142.436C393.483 139.735 395.277 137.745 395.828 138.029C396.38 138.313 395.552 140.304 394.035 143.147C392.379 145.706 390.723 148.265 390.172 147.98Z" fill="#4C230C"/>
<path d="M5.89921 359.707C11.4154 355.298 18.667 356.138 25.289 349.491C29.0487 345.711 36.6456 338.614 41.9 337.782C50.4045 336.407 54.8251 340.872 57.2242 340.948C72.207 341.498 111.533 332.912 120.478 331.606C135.12 329.538 134.55 359.001 129.265 359.074C86.6543 358.85 61.7257 354.473 53.9946 354.764C53.9946 354.764 19.3824 364.996 13.8571 365.634C10.1658 366.109 1.06388 363.62 5.89921 359.707Z" fill="#F6BB92"/>
<path d="M169.71 326.945C152.522 328.611 134.967 327.807 120.621 331.579C123.558 335.96 129.743 354.27 129.468 358.9C134.737 358.071 176.489 358.764 176.489 358.764C189.681 357.525 265.335 361.746 287.981 353.251C293.877 351.315 298.935 348.945 303.061 346.731C311.121 342.572 295.421 296.384 283.206 297.175C257.851 304.641 215.357 316.342 203.96 320.578C192.711 324.837 169.71 326.945 169.71 326.945Z" fill="#3D3C3C"/>
</svg>
