<svg width="500" height="500" viewBox="0 0 500 500" fill="none" xmlns="http://www.w3.org/2000/svg">
<path d="M131.929 356.15C138.526 356.499 144.696 354.326 150.944 352.735C162.586 349.785 174.189 346.72 186.141 345.09C196.309 343.693 206.243 344.585 215.945 348C221.61 350.018 227.315 350.212 233.136 348.893C250.366 344.896 267.673 341.248 285.058 337.872C290.026 336.902 294.217 334.573 297.942 331.275C306.053 324.057 315.288 319.012 326.077 316.994C330.035 316.257 334.071 315.908 338.106 315.985C345.247 316.102 352.348 316.218 359.489 316.334C360.963 319.051 363.641 320.409 366.047 322.039C367.095 322.854 368.142 323.669 369.151 324.523C369.268 336.203 369.345 347.845 369.462 359.526C355.22 368.994 339.775 375.281 322.778 377.493C310.981 379.006 299.106 379.162 287.232 379.084C258.903 378.851 230.536 378.735 202.207 379.123C179.544 379.433 156.882 379.977 134.219 380.442C133.443 380.442 132.628 380.403 131.852 380.403C131.852 372.215 131.89 364.182 131.929 356.15Z" fill="#696D66"/>
<path d="M369.423 359.409C369.307 347.728 369.229 336.086 369.113 324.406C369.229 324.212 369.423 324.056 369.423 323.862C369.462 316.994 369.462 310.164 369.462 303.295C369.462 302.403 369.074 301.627 368.065 301.394C368.143 300.773 368.22 300.113 368.259 299.492C368.763 281.874 368.647 264.295 368.608 246.677C368.608 240.934 369.966 235.734 374.352 231.659C376.331 229.796 378.853 228.865 381.22 227.623C389.214 226.963 394.764 231.077 399.537 236.937C401.089 238.838 401.865 241.477 404.543 242.331C405.435 245.746 407.143 248.773 408.695 251.916C409.432 253.39 410.17 254.865 410.208 256.534C409.316 257.504 408.889 258.746 408.307 259.91C405.513 265.226 401.826 269.573 395.889 271.552C394.57 271.979 394.22 272.91 394.065 274.152C393.017 283.388 393.328 292.701 393.289 301.976C392.901 302.83 392.435 303.606 392.396 304.615C392.358 310.979 392.474 317.382 392.008 323.746C391.581 329.334 392.358 334.922 391.581 340.51C391.349 342.101 391.892 343.537 393.755 343.964C393.522 344.313 393.367 344.74 393.056 345.051C390.573 347.534 391.116 350.445 394.104 353.006C396.161 354.791 398.217 356.615 400.235 358.439C405.241 362.979 406.561 368.8 406.289 375.242C406.25 376.445 405.629 377.027 404.465 377.26C401.205 377.881 397.907 377.803 394.608 377.958C389.525 378.191 384.402 377.997 379.319 378.113C377.417 378.152 376.447 377.376 375.826 375.63C374.158 370.896 372.411 366.2 370.665 361.504C370.354 360.728 369.85 360.107 369.423 359.409Z" fill="#F5B992"/>
<path d="M381.181 219.901C380.522 217.301 378.543 215.788 376.602 214.119C375.283 212.955 373.847 211.83 372.877 210.277C374.08 209.269 375.244 208.182 376.486 207.251C385.14 200.886 389.02 192.504 387.196 181.755C386.77 179.271 387.546 177.253 389.331 175.546C393.289 171.782 397.053 167.824 400.701 163.749C401.788 162.546 402.641 161.071 404.077 160.179C405.047 160.761 405.241 161.809 405.474 162.74C406.832 168.289 410.713 171.627 415.37 174.343C416.922 175.236 418.513 176.05 420.104 176.904C422.355 178.185 422.743 179.776 421.035 181.794C418.203 185.17 417.659 188.74 419.561 192.776C421.035 195.958 421.346 199.218 419.638 202.516C418.823 204.068 417.698 205.31 416.146 205.892C410.946 207.91 408.928 211.985 408.268 217.224C407.686 222.036 407.298 226.925 406.211 231.66C406.056 232.358 405.785 233.018 405.591 233.716C403.068 232.552 402.098 230.03 400.585 228.012C397.441 223.86 393.677 220.678 388.399 219.591C385.993 219.125 383.587 219.785 381.181 219.901Z" fill="#F5B992"/>
<path d="M404.115 160.218C402.718 161.149 401.826 162.585 400.739 163.788C397.091 167.863 393.327 171.821 389.369 175.585C387.545 177.292 386.808 179.31 387.235 181.794C389.059 192.543 385.178 200.925 376.524 207.29C375.244 208.221 374.118 209.308 372.915 210.316C370.005 208.803 368.142 206.203 365.969 203.875C365.503 203.37 365.348 202.361 364.3 202.516C364.378 201.585 363.873 200.887 363.408 200.149C359.993 194.6 357.936 188.546 357.936 182.104C357.936 171.937 362.67 163.904 370.393 157.54C370.936 157.074 371.712 156.88 371.673 155.988C372.566 156.298 373.148 155.639 373.847 155.289C383.665 150.089 394.802 151.37 403.106 158.704C403.572 159.131 404.232 159.442 404.115 160.218Z" fill="#804210"/>
<path d="M359.14 206.047C352.542 209.656 346.101 213.731 338.572 215.283C338.029 215.399 337.447 215.593 336.904 215.632C333.993 215.904 332.713 214.74 333.256 211.868C333.877 208.57 334.808 205.31 335.662 202.011C336.671 198.131 337.835 194.25 338.766 190.331C340.28 183.695 339.93 177.059 338.262 170.462C335.623 159.907 341.677 150.205 351.96 148.304C355.763 147.605 359.411 148.265 362.865 150.011C365.581 151.369 368.104 152.999 370.51 154.862C369.734 156.375 368.143 156.686 366.784 157.229C357.316 161.226 352.581 173.566 354.289 183.307C354.793 186.256 355.453 189.205 355.686 192.193C356.074 197.044 356.54 201.778 359.14 206.047Z" fill="#804310"/>
<path d="M131.929 356.15C131.89 364.183 131.89 372.215 131.852 380.248C131.231 380.753 130.455 380.559 129.756 380.559C125.526 380.598 121.257 380.598 117.028 380.636C107.132 380.753 97.1976 380.869 87.302 381.102C85.0125 381.141 82.7229 381.451 80.4334 381.529C78.6483 381.568 77.2512 380.947 76.6692 379.278C76.0871 377.61 76.8632 376.174 78.1826 375.087C81.0154 372.759 83.8483 370.469 86.72 368.141C93.1618 362.98 99.5648 357.78 106.045 352.657C111.556 348.311 117.959 348.311 123.469 352.618C125.992 354.636 128.825 355.645 131.929 356.15Z" fill="#F5BC92"/>
<path d="M393.289 301.976C393.289 292.702 392.979 283.427 394.065 274.152C394.22 272.91 394.608 271.979 395.889 271.552C401.826 269.573 405.513 265.227 408.307 259.91C408.889 258.785 409.355 257.543 410.209 256.534C415.913 264.024 421.812 271.436 423.247 281.137C424.45 289.131 422.122 296.311 417.582 302.869C416.844 302.752 416.068 302.636 415.331 302.52C408.734 301.588 402.137 302.131 395.501 302.209C394.764 302.17 394.026 302.054 393.289 301.976Z" fill="#2D9653"/>
<path d="M395.501 302.247C402.098 302.17 408.734 301.626 415.331 302.558C415.564 303.528 416.34 303.606 417.116 303.761C416.844 304.731 416.456 305.624 415.719 306.322C414.826 306.4 414.865 307.059 414.904 307.68C414.671 308.65 414.244 309.504 413.546 310.203C412.653 310.28 412.731 310.94 412.731 311.561C412.614 312.221 412.343 312.803 411.838 313.23C410.946 313.307 410.984 313.967 411.023 314.588C409.393 318.042 407.492 321.301 405.396 324.483C404.116 324.716 404.116 325.725 404.116 326.656C402.098 330.692 399.692 334.534 397.169 338.298C396.277 338.337 396.316 338.997 396.316 339.618C395.734 339.618 395.423 339.928 395.501 340.549C395.035 340.51 394.608 340.51 394.143 340.471C394.104 336.436 394.841 332.4 394.569 328.364C397.325 327.782 397.48 324.328 394.569 321.883C394.608 319.283 395.229 316.722 394.996 314.122C395.928 314.044 397.131 314.044 397.053 312.841C397.014 311.677 396.393 310.552 394.996 310.241C395.307 308.689 395.501 307.098 395.423 305.507C396.005 305.391 396.898 305.779 397.014 304.964C397.131 303.916 396.665 302.946 395.54 302.519C395.501 302.403 395.501 302.325 395.501 302.247Z" fill="#F5B992"/>
<path d="M359.139 206.048C356.578 201.779 356.074 197.045 355.647 192.233C355.375 189.245 354.754 186.296 354.25 183.346C352.542 173.606 357.277 161.266 366.745 157.269C368.065 156.725 369.695 156.376 370.471 154.901C371.014 155.095 371.402 155.483 371.713 155.949C371.713 156.842 370.975 157.075 370.432 157.501C362.71 163.866 357.975 171.937 357.975 182.066C357.975 188.508 360.032 194.6 363.447 200.111C363.913 200.848 364.417 201.546 364.339 202.478C363.059 204.418 361.002 205.117 359.139 206.048Z" fill="#633402"/>
<path d="M381.181 219.901C383.587 219.746 385.955 219.125 388.399 219.63C393.677 220.677 397.441 223.898 400.584 228.05C402.098 230.068 403.068 232.591 405.59 233.755C406.134 236.743 405.047 239.537 404.465 242.37C401.787 241.516 401.011 238.877 399.459 236.976C394.725 231.116 389.175 227.042 381.143 227.662C381.181 225.101 381.181 222.501 381.181 219.901Z" fill="#DDA781"/>
<path d="M394.996 314.084C395.229 316.684 394.608 319.245 394.569 321.845C394.569 324.018 394.569 326.153 394.569 328.326C394.841 332.362 394.103 336.397 394.142 340.433C394.142 341.326 394.142 342.18 394.142 343.072C393.987 343.344 393.871 343.615 393.754 343.926C391.891 343.499 391.348 342.063 391.581 340.472C392.357 334.884 391.62 329.296 392.008 323.708C392.473 317.344 392.357 310.941 392.396 304.576C392.396 303.567 392.862 302.791 393.288 301.938C394.026 302.015 394.763 302.093 395.5 302.209C395.5 302.287 395.539 302.364 395.539 302.442C395.5 303.451 395.5 304.421 395.462 305.43C395.578 307.021 395.345 308.612 395.035 310.164C394.996 311.484 394.996 312.803 394.996 314.084Z" fill="#DAA881"/>
<path d="M368.065 301.434C369.074 301.666 369.462 302.404 369.462 303.335C369.462 310.204 369.462 317.034 369.423 323.902C369.423 324.096 369.229 324.252 369.113 324.446C368.065 323.631 367.017 322.816 366.008 321.962C366.008 316.141 366.008 310.359 366.008 304.577C366.164 303.18 366.202 301.705 368.065 301.434Z" fill="#DDA781"/>
<path d="M366.047 304.576C366.047 310.358 366.047 316.179 366.047 321.961C363.641 320.331 360.963 318.934 359.488 316.257C361.002 311.988 363.214 308.108 366.047 304.576Z" fill="#F5BA93"/>
<path d="M394.143 343.071C394.143 342.179 394.143 341.325 394.143 340.433C394.608 340.471 395.035 340.471 395.501 340.51C395.462 341.597 394.958 342.412 394.143 343.071Z" fill="#F6BB93"/>
<path d="M417.077 303.723C416.301 303.567 415.525 303.49 415.292 302.52C416.029 302.636 416.805 302.752 417.543 302.869C417.388 303.179 417.232 303.451 417.077 303.723Z" fill="#F6BB93"/>
<path d="M404.077 326.657C404.116 325.686 404.116 324.716 405.358 324.483C405.164 325.337 404.814 326.113 404.077 326.657Z" fill="#F6BB93"/>
<path d="M414.904 307.68C414.865 307.06 414.826 306.4 415.719 306.322C415.68 306.904 415.37 307.331 414.904 307.68Z" fill="#F6BB93"/>
<path d="M412.731 311.561C412.692 310.94 412.653 310.281 413.546 310.203C413.507 310.785 413.235 311.212 412.731 311.561Z" fill="#F6BB93"/>
<path d="M410.984 314.589C410.945 313.968 410.906 313.308 411.799 313.23C411.799 313.813 411.489 314.239 410.984 314.589Z" fill="#F6BB93"/>
<path d="M396.316 339.617C396.277 338.996 396.277 338.337 397.17 338.298C397.092 338.88 396.82 339.307 396.316 339.617Z" fill="#F6BB93"/>
<path d="M395.501 340.511C395.423 339.891 395.734 339.619 396.316 339.58C396.238 340.085 396.044 340.473 395.501 340.511Z" fill="#F6BB93"/>
<path d="M394.569 328.363C394.569 326.19 394.569 324.056 394.569 321.883C397.48 324.328 397.325 327.781 394.569 328.363Z" fill="#F5B991"/>
<path d="M394.997 314.084C394.997 312.803 394.997 311.484 394.997 310.203C396.394 310.514 396.976 311.639 397.053 312.803C397.131 314.006 395.928 314.006 394.997 314.084Z" fill="#F5B991"/>
<path d="M395.423 305.469C395.462 304.46 395.462 303.489 395.501 302.48C396.665 302.907 397.092 303.877 396.976 304.925C396.937 305.74 396.005 305.352 395.423 305.469Z" fill="#F5B991"/>
</svg>
