<svg width="500" height="500" viewBox="0 0 500 500" fill="none" xmlns="http://www.w3.org/2000/svg">
<path d="M283.721 182.457C282.941 182.404 282.193 182.234 281.442 182.019C280.189 181.663 278.902 181.423 277.635 181.113C276.411 180.813 275.176 180.545 273.984 180.149C273.254 179.906 272.781 180.079 272.337 180.636C271.698 181.43 271.042 182.21 270.382 182.986C268.558 185.138 266.562 187.113 264.427 188.958C262.882 190.292 261.295 191.558 259.629 192.733C256.691 194.807 253.579 196.589 250.309 198.071C247.797 199.207 245.229 200.23 242.551 200.939C241.334 201.263 240.138 201.704 238.904 201.919C237.33 202.195 235.799 202.72 234.184 202.748C234.134 202.748 234.085 202.748 234.039 202.759C231.333 203.391 228.536 203.253 225.812 203.786C224.867 203.973 223.879 203.944 222.912 204.043C220.595 204.28 218.291 204.636 215.966 204.798C214.805 204.879 213.659 205.112 212.505 205.264C212.11 205.317 211.772 205.458 211.426 205.659C202.056 211.183 192.679 216.69 183.309 222.215C176.66 226.138 170.017 230.075 163.377 234.015C162.876 234.312 162.397 234.643 161.924 234.982C161.564 235.239 161.479 235.603 161.631 236.016C162.065 237.201 162.513 238.376 163.106 239.497C164.559 242.246 165.875 245.057 166.838 248.024C167.932 251.393 169.114 254.737 170.119 258.131C171.128 261.528 171.788 265.014 172.317 268.521C172.433 269.29 172.55 270.059 172.719 270.814C173.382 273.756 173.664 276.754 173.993 279.746C174.342 282.935 174.381 286.142 174.557 289.341C174.649 291.038 174.793 292.735 174.857 294.432C174.977 297.685 174.874 300.937 174.716 304.19C174.642 305.693 174.698 307.203 174.638 308.706C174.49 312.392 174.306 316.079 174.144 319.765C174.12 320.347 174.112 320.929 174.123 321.515C174.187 324.63 173.855 327.724 173.643 330.825C173.615 331.262 173.534 331.696 173.537 332.13C173.555 334.709 173.202 337.266 173.079 339.838C173.058 340.272 172.955 340.699 172.888 341.129C172.825 341.525 172.313 341.708 172.363 342.128C172.405 342.498 172.73 342.819 172.592 343.239C171.128 343.186 169.689 343.454 168.253 343.648C167.194 343.789 166.126 343.793 165.071 343.959C163.875 344.146 162.668 344.326 161.462 344.364C158.745 344.453 156.033 344.523 153.323 344.71C152.551 344.763 151.778 344.77 151.005 344.89C150.254 345.01 149.464 345.151 148.723 344.763C149.312 344.297 149.344 344.283 149.139 343.892C148.54 342.749 148.374 341.493 148.155 340.251C146.762 332.412 145.421 324.566 143.978 316.738C143.502 314.167 142.772 311.637 142.151 309.094C141.082 304.705 139.766 300.387 138.447 296.069C136.305 289.059 134.192 282.039 132.065 275.022C130.978 271.445 129.885 267.871 128.798 264.294C127.133 258.812 125.454 253.333 123.817 247.844C122.773 244.341 122.155 240.767 122.268 237.088C122.328 235.148 122.487 233.211 122.9 231.331C123.185 230.018 123.538 228.702 123.933 227.404C124.843 224.388 126.406 221.721 127.93 219.012C128.689 217.657 129.482 216.327 130.273 214.993C131.394 213.113 132.76 211.409 134.143 209.719C136.908 206.34 139.738 203.017 142.687 199.792C145.901 196.279 149.153 192.807 152.614 189.533C155.009 187.265 157.415 185 159.892 182.82C163.642 179.522 167.473 176.315 171.435 173.263C178.318 167.965 185.472 163.068 192.905 158.577C197.428 155.843 202.053 153.3 206.737 150.862C209.016 149.676 211.331 148.562 213.669 147.496C216.4 146.251 219.145 145.034 221.928 143.916C224.44 142.907 227.005 142.014 229.566 141.129C231.393 140.497 233.245 139.926 235.104 139.393C236.872 138.885 238.66 138.451 240.449 138.01C242.051 137.615 243.649 137.22 245.264 136.888C246.877 136.557 248.506 136.306 250.129 136.02C250.27 135.996 250.422 136.017 250.563 135.985C252.415 135.576 254.313 135.47 256.176 135.153C257.954 134.849 259.753 134.846 261.531 134.606C263.944 134.281 266.371 134.274 268.795 134.133C269.959 134.066 271.127 134.084 272.291 134.094C272.573 134.094 272.852 134.218 273.13 134.285C273.875 135.915 274.591 137.559 275.363 139.174C276.887 142.374 278.235 145.634 279.24 149.041C280.323 152.714 281.495 156.351 282.024 160.172C282.278 161.992 282.486 163.823 282.733 165.647C282.966 167.372 282.983 169.125 283.096 170.868C283.11 171.111 283.121 171.355 283.153 171.595C283.453 173.757 283.668 175.927 283.71 178.11C283.724 178.742 283.745 179.366 283.851 179.994C283.989 180.813 283.968 181.638 283.724 182.446L283.721 182.457Z" fill="#6A6D66"/>
<path d="M366.169 235.497C366.338 236.842 366.557 238.179 366.663 239.526C366.814 241.456 367.178 243.379 367.054 245.326C366.948 246.987 367.34 248.607 367.421 250.251C367.499 251.792 367.746 253.33 367.926 254.869C368.088 256.262 368.271 257.652 368.427 259.049C368.532 260.012 368.582 260.975 368.726 261.938C368.928 263.275 368.917 264.648 369.115 265.985C369.312 267.325 369.277 268.701 369.707 270.003C369.926 270.666 369.958 271.333 369.929 272.014C369.848 273.964 370.187 275.877 370.42 277.799C370.564 279.002 370.589 280.212 370.787 281.412C371.037 282.939 371.143 284.488 371.309 286.026C371.33 286.216 371.355 286.414 371.333 286.605C371.094 288.816 370.829 291.025 370.6 293.24C370.459 294.588 370.307 295.939 370.272 297.294C370.24 298.56 370.004 299.798 369.859 301.051C369.7 302.444 369.453 303.824 369.347 305.228C369.238 306.625 369.023 308.015 368.871 309.408C368.748 310.562 368.748 311.726 368.522 312.879C368.229 314.4 368.067 315.942 367.809 317.469C367.368 320.094 366.903 322.715 366.437 325.336C366.014 327.721 365.573 330.099 365.149 332.483C364.708 334.96 364.274 337.44 363.837 339.92C363.399 342.4 362.959 344.876 362.521 347.356C362.175 349.311 361.819 351.262 361.502 353.223C361.36 354.102 361.085 354.864 360.5 355.583C358.482 358.067 356.527 360.6 354.559 363.126C353.793 364.11 352.866 364.576 351.557 364.565C345.436 364.526 339.312 364.449 333.198 364.625C328.1 364.77 323.006 364.77 317.912 364.815C317.38 364.819 316.85 364.84 316.321 364.71C315.513 364.512 314.744 364.3 314.127 363.665C313.764 363.291 313.256 363.062 312.811 362.766C312.571 362.071 312.497 361.358 312.515 360.624C312.522 360.293 312.483 359.94 312.377 359.626C312.218 359.15 312.243 358.67 312.232 358.187C312.218 357.365 312.19 356.56 312.007 355.739C311.657 354.179 312.148 353.287 313.555 352.521C313.64 352.475 313.725 352.422 313.813 352.387C315.019 351.89 316.205 351.311 317.447 350.923C319.334 350.334 321.267 349.893 323.176 349.367C325.179 348.817 327.173 348.231 329.173 347.67C331.311 347.071 333.452 346.478 335.593 345.885C337.41 345.384 339.227 344.887 341.04 344.386C341.411 344.284 341.626 344.037 341.647 343.659C341.707 342.502 342.099 341.38 341.972 340.202C341.94 339.92 341.965 339.606 342.067 339.345C342.282 338.777 342.24 338.198 342.254 337.62C342.265 337.182 342.19 336.717 342.321 336.318C342.571 335.556 342.529 334.787 342.55 334.014C342.557 333.676 342.519 333.309 342.631 333.005C342.878 332.342 342.822 331.668 342.843 330.991C342.854 330.603 342.794 330.187 342.917 329.838C343.154 329.171 343.122 328.5 343.136 327.827C343.143 327.488 343.072 327.121 343.178 326.814C343.471 325.964 343.415 325.093 343.429 324.221C343.432 323.978 343.397 323.717 343.482 323.498C343.771 322.747 343.704 321.971 343.722 321.198C343.729 320.859 343.686 320.492 343.799 320.189C344.025 319.575 344.014 318.951 344.007 318.323C343.997 316.869 344.459 315.451 344.332 313.991C344.325 313.899 344.353 313.793 344.392 313.708C344.642 313.155 344.582 312.569 344.596 311.987C344.603 311.648 344.543 311.281 344.653 310.974C344.921 310.216 344.875 309.447 344.889 308.674C344.893 308.385 344.879 308.089 344.928 307.803C345.288 305.665 345.775 303.545 346.004 301.397C346.237 299.234 346.78 297.135 347.013 294.972C347.193 293.297 347.574 291.646 347.524 289.942C347.514 289.614 347.62 289.275 347.701 288.95C347.831 288.421 347.898 287.882 347.673 287.381C347.094 286.097 346.745 284.731 346.269 283.412C344.977 279.814 343.64 276.233 342.377 272.627C341.513 270.161 340.642 267.699 339.717 265.254C338.299 261.501 336.955 257.715 335.551 253.955C335.145 252.868 334.69 251.792 334.161 250.762C333.745 249.947 333.223 249.154 332.136 249.104C332.066 248.871 332.02 248.631 331.925 248.409C330.365 244.744 329.201 240.941 328.108 237.12C327.585 235.303 326.993 233.497 326.629 231.649C326.076 228.841 325.871 225.983 325.91 223.115C325.917 222.582 325.952 222.046 326.033 221.524C326.499 218.543 327.335 215.664 328.411 212.849C330.111 208.397 333.011 205.035 337.28 202.883C337.625 202.707 337.982 202.548 338.317 202.354C339.252 201.814 340.254 201.476 341.312 201.289C344.208 200.774 347.108 200.759 349.987 201.349C353.13 201.991 355.963 203.338 358.425 205.405C361.671 208.132 363.858 211.569 365.128 215.601C365.594 217.086 365.932 218.589 365.908 220.166C365.876 222.155 365.918 224.145 365.894 226.135C365.876 227.345 365.802 228.551 365.685 229.761C365.541 231.254 365.597 232.767 365.583 234.27C365.576 234.771 365.685 235.24 366.172 235.519L366.169 235.497Z" fill="#F7BB92"/>
<path d="M366.169 235.498C365.679 235.219 365.573 234.754 365.58 234.249C365.598 232.746 365.541 231.233 365.682 229.741C365.799 228.531 365.873 227.324 365.89 226.114C365.915 224.124 365.873 222.135 365.904 220.145C365.929 218.568 365.59 217.065 365.125 215.58C363.858 211.548 361.671 208.112 358.422 205.385C355.96 203.318 353.127 201.97 349.984 201.328C347.105 200.739 344.205 200.749 341.309 201.268C340.25 201.458 339.248 201.797 338.314 202.333C337.978 202.527 337.626 202.69 337.276 202.862C333.008 205.014 330.108 208.376 328.408 212.828C327.332 215.647 326.499 218.526 326.03 221.503C325.949 222.029 325.913 222.565 325.906 223.094C325.868 225.962 326.072 228.82 326.626 231.628C326.989 233.477 327.582 235.283 328.104 237.1C329.201 240.924 330.362 244.723 331.921 248.388C332.017 248.611 332.062 248.851 332.133 249.083C331.763 249.941 331.293 250.667 330.193 250.562C330.101 250.544 330.03 250.498 329.985 250.424C326.75 244.561 324.111 238.405 321.246 232.362C320.579 230.958 319.846 229.6 319.038 228.27C313.725 219.524 308.43 210.765 303.135 202.012C300.598 197.821 298.069 193.627 295.536 189.436C294.781 188.183 293.871 187.051 292.851 186.007C292.47 185.615 292.135 185.216 292.036 184.666C293.401 183.22 294.745 181.749 296.139 180.33C303.501 172.855 310.871 165.387 318.248 157.922C322.551 153.569 326.866 149.226 331.173 144.876C331.583 144.463 331.974 144.033 332.373 143.613C332.556 143.67 332.764 143.687 332.916 143.79C334.687 144.982 336.426 146.217 338.215 147.381C341.065 149.233 343.828 151.212 346.523 153.286C347.493 154.031 348.59 154.56 349.74 154.959C351.758 155.657 353.801 156.289 355.801 157.029C358.574 158.056 361.424 158.878 364.098 160.173C366.271 161.224 368.13 162.692 369.88 164.304C371.383 165.69 372.664 167.285 373.796 168.989C375.765 171.956 376.908 175.212 377.299 178.757C377.613 181.611 377.85 184.462 377.701 187.333C377.483 191.552 377.218 195.765 376.728 199.966C376.484 202.037 376.276 204.111 375.803 206.15C375.553 207.233 375.542 208.369 375.299 209.456C374.325 213.82 372.96 218.067 371.538 222.301C370.081 226.633 368.113 230.753 366.479 235.011C366.412 235.184 366.275 235.332 366.169 235.491V235.498Z" fill="#8A8AD9"/>
<path d="M329.984 250.433C330.03 250.507 330.1 250.553 330.195 250.571C330.485 250.817 330.841 251.004 330.83 251.474C330.816 252.218 331.113 252.892 331.363 253.573C332.326 256.208 333.293 258.843 334.273 261.471C335.596 265.006 336.94 268.531 338.26 272.065C338.577 272.919 339.022 273.748 338.983 274.704C338.775 275.297 338.535 275.879 338.362 276.482C337.258 280.342 336.175 284.208 335.071 288.067C334.838 288.879 334.82 289.655 335.043 290.48C336.256 295.014 337.417 299.557 338.634 304.091C338.934 305.205 339.107 306.362 339.632 307.407C339.639 307.865 339.53 308.267 339.103 308.525C338.69 308.775 338.292 309.054 337.868 309.28C336.496 310.01 335.021 310.476 333.529 310.896C331.705 311.411 329.811 311.464 327.959 311.799C326.851 311.718 325.743 311.647 324.639 311.548C320.829 311.206 317.266 310.081 313.96 308.144C313.629 307.95 313.287 307.767 312.944 307.59C312.669 307.449 312.514 307.703 312.313 307.802C312.271 307.273 311.95 306.909 311.572 306.592C311.166 306.25 310.69 305.981 310.327 305.604C308.619 303.819 306.714 302.231 305.208 300.245C303.081 297.441 301.493 294.361 300.248 291.084C299.352 288.724 298.773 286.279 298.329 283.809C298.1 282.536 297.86 281.245 297.944 279.922C298.015 278.81 297.962 277.689 297.955 276.574C297.951 275.773 297.771 275.043 297.098 274.517C297.556 273.088 298.078 271.674 298.459 270.227C299.017 268.125 300.026 266.266 301.303 264.534C302.986 262.255 304.951 260.244 307.127 258.438C310.969 255.252 315.178 252.691 319.905 251.019C321.605 250.419 323.348 250.01 325.14 249.805C326.809 249.611 328.431 249.787 329.994 250.433H329.984Z" fill="#7A4821"/>
<path d="M332.373 143.619C331.974 144.039 331.582 144.47 331.173 144.882C326.866 149.232 322.551 153.571 318.247 157.928C310.871 165.393 303.501 172.858 296.139 180.337C294.742 181.755 293.401 183.226 292.036 184.672C289.588 184.175 287.224 183.321 284.755 182.915C284.377 182.852 284.003 182.746 283.721 182.457C283.964 181.649 283.985 180.823 283.848 180.005C283.742 179.377 283.721 178.753 283.707 178.121C283.661 175.938 283.446 173.768 283.149 171.605C283.118 171.365 283.107 171.122 283.093 170.879C282.98 169.136 282.962 167.383 282.73 165.658C282.483 163.834 282.274 162.006 282.02 160.182C281.491 156.362 280.32 152.725 279.237 149.052C278.232 145.644 276.884 142.385 275.36 139.185C274.587 137.569 273.871 135.925 273.127 134.296C273.822 134.049 274.542 134.006 275.275 134.006C283.375 134.013 291.475 133.971 299.571 134.042C301.501 134.059 303.452 134.105 305.364 134.32C307.466 134.557 309.59 134.719 311.661 135.262C312.726 135.541 313.834 135.64 314.91 135.947C316.201 136.313 317.503 136.659 318.784 137.065C320.674 137.665 322.527 138.356 324.347 139.143C326.033 139.873 327.677 140.677 329.3 141.538C330.199 142.014 331.046 142.561 331.91 143.083C332.126 143.214 332.284 143.39 332.376 143.623L332.373 143.619Z" fill="#F6BB92"/>
<path d="M338.98 274.705C339.018 273.749 338.577 272.924 338.256 272.067C336.937 268.532 335.593 265.008 334.27 261.473C333.286 258.845 332.323 256.209 331.36 253.574C331.113 252.893 330.813 252.219 330.827 251.475C330.837 251.002 330.481 250.815 330.192 250.572C331.293 250.674 331.762 249.947 332.132 249.094C333.219 249.143 333.737 249.937 334.157 250.752C334.686 251.782 335.141 252.858 335.547 253.944C336.951 257.705 338.295 261.49 339.713 265.244C340.638 267.689 341.509 270.151 342.373 272.617C343.636 276.226 344.973 279.807 346.264 283.401C346.737 284.721 347.086 286.086 347.669 287.37C347.894 287.871 347.827 288.411 347.697 288.94C347.616 289.268 347.51 289.603 347.52 289.931C347.573 291.635 347.192 293.286 347.009 294.962C346.776 297.125 346.229 299.224 346 301.386C345.771 303.535 345.284 305.658 344.924 307.793C344.875 308.078 344.889 308.375 344.885 308.664C344.871 309.437 344.917 310.209 344.649 310.964C344.539 311.271 344.599 311.638 344.592 311.977C344.578 312.555 344.638 313.144 344.388 313.698C344.349 313.783 344.321 313.889 344.328 313.98C344.455 315.441 343.996 316.859 344.003 318.312C344.007 318.94 344.017 319.565 343.795 320.179C343.682 320.486 343.724 320.849 343.717 321.188C343.7 321.96 343.767 322.736 343.478 323.488C343.393 323.703 343.428 323.967 343.425 324.211C343.407 325.082 343.467 325.95 343.174 326.804C343.068 327.111 343.139 327.478 343.132 327.816C343.118 328.494 343.149 329.164 342.913 329.827C342.79 330.176 342.853 330.596 342.839 330.981C342.818 331.658 342.878 332.332 342.627 332.995C342.514 333.298 342.557 333.665 342.546 334.004C342.529 334.777 342.567 335.546 342.317 336.308C342.186 336.706 342.264 337.172 342.25 337.609C342.236 338.188 342.278 338.767 342.063 339.334C341.964 339.596 341.939 339.913 341.968 340.192C342.095 341.37 341.7 342.492 341.643 343.649C341.625 344.026 341.407 344.273 341.036 344.376C339.219 344.877 337.403 345.374 335.589 345.875C333.448 346.468 331.307 347.057 329.169 347.66C327.169 348.221 325.175 348.803 323.172 349.357C321.263 349.883 319.33 350.324 317.442 350.913C316.201 351.301 315.019 351.879 313.809 352.377C313.721 352.412 313.636 352.465 313.551 352.511C312.144 353.28 311.653 354.169 312.003 355.728C312.186 356.55 312.211 357.354 312.228 358.176C312.239 358.66 312.214 359.139 312.373 359.616C312.475 359.93 312.514 360.282 312.511 360.614C312.497 361.348 312.571 362.06 312.807 362.755C308.679 362.78 304.555 362.808 300.428 362.826C299.377 362.83 298.403 362.597 297.662 361.768C297.599 361.697 297.525 361.62 297.44 361.581C296.209 360.992 295.965 359.905 295.884 358.681C295.768 356.942 295.595 355.206 295.404 353.474C295.239 351.975 295.602 351.195 297.002 350.567C299.126 349.611 301.331 348.874 303.578 348.256C308.905 346.789 314.225 345.289 319.545 343.801C321.133 343.356 322.716 342.905 324.308 342.471C324.773 342.344 325.077 342.15 325.105 341.603C325.151 340.781 325.271 339.966 325.352 339.147C325.518 337.511 325.68 335.87 325.849 334.233C325.969 333.076 325.98 331.916 326.146 330.755C326.364 329.224 326.392 327.665 326.534 326.119C326.678 324.528 326.869 322.941 327.02 321.35C327.154 319.949 327.264 318.549 327.38 317.148C327.5 315.698 327.606 314.248 327.737 312.802C327.768 312.467 327.871 312.135 327.941 311.804C329.793 311.472 331.688 311.416 333.512 310.901C335.004 310.481 336.475 310.015 337.851 309.285C338.278 309.059 338.673 308.78 339.085 308.53C339.512 308.272 339.622 307.87 339.615 307.412C340.112 307.422 340.419 307.091 340.694 306.755C341.22 306.124 341.717 305.468 342.225 304.826C342.846 304.043 343.262 303.192 343.132 302.148C343.107 301.961 343.114 301.742 343.185 301.573C343.492 300.825 343.393 300.042 343.41 299.269C343.428 298.589 343.326 297.883 343.488 297.241C343.686 296.468 343.686 295.71 343.703 294.934C343.71 294.546 343.643 294.129 343.76 293.777C344.031 292.969 343.982 292.15 343.993 291.328C343.996 290.94 344.045 290.563 344.137 290.178C344.388 289.124 344.349 288.108 343.908 287.06C343.16 285.275 342.543 283.437 341.872 281.62C341.184 279.757 340.511 277.891 339.798 276.039C339.611 275.552 339.445 275.019 338.969 274.702L338.98 274.705Z" fill="#DDA781"/>
<path d="M148.719 344.767C149.46 345.155 150.246 345.014 151.001 344.894C151.774 344.771 152.547 344.767 153.319 344.714C156.029 344.524 158.745 344.457 161.458 344.368C162.664 344.33 163.871 344.146 165.067 343.963C166.122 343.797 167.19 343.797 168.249 343.652C169.685 343.458 171.124 343.19 172.588 343.243C172.972 343.395 173.205 343.695 173.385 344.047C174.045 345.339 174.698 346.633 175.368 347.921C175.858 348.863 176.405 349.773 176.874 350.726C177.7 352.391 178.321 354.126 178.127 356.024C177.781 359.411 176.292 362.085 173.237 363.778C172.115 364.399 170.919 364.678 169.653 364.858C167.501 365.165 165.314 365.161 163.186 365.645C163.091 365.666 162.992 365.68 162.897 365.673C161.341 365.585 159.828 366.029 158.269 366.033C157.168 366.033 156.071 366.311 154.97 366.467C154.875 366.481 154.78 366.526 154.688 366.523C153.277 366.449 151.901 366.819 150.497 366.879C149.245 366.929 147.999 367.13 146.75 367.271C146.511 367.299 146.274 367.426 146.041 367.408C144.528 367.31 143.06 367.712 141.558 367.765C140.309 367.811 139.063 368.026 137.822 368.206C135.733 368.509 133.758 368.206 131.976 367.056C131.419 366.696 130.935 366.177 130.516 365.652C129.718 364.653 129.291 363.454 128.981 362.233C128.72 361.21 129.094 360.226 129.366 359.245C129.747 357.866 130.688 356.874 131.761 356.042C132.943 355.125 134.192 354.292 135.472 353.505C136.749 352.722 137.935 351.802 139.187 350.976C140.958 349.808 142.764 348.697 144.528 347.515C145.731 346.707 146.881 345.825 148.049 344.968C148.257 344.817 148.461 344.725 148.719 344.778V344.767Z" fill="#F7BC94"/>
<path d="M312.18 308.276C312.296 309.306 312.045 310.308 311.897 311.31C311.195 316.058 310.451 320.803 309.703 325.544C309.308 328.035 308.871 330.518 308.451 333.002C308.419 333.192 308.401 333.39 308.352 333.573C308.094 334.522 307.142 335.083 306.211 334.741C305.445 334.459 304.687 334.127 304.002 333.647C302.612 332.67 301.293 331.63 300.097 330.402C298.333 328.596 296.551 326.811 294.918 324.888C290.014 319.113 286.018 312.781 283.241 305.711C281.728 301.855 280.673 297.883 280.31 293.741C280.02 290.418 280.243 287.144 281.357 283.976C283.654 277.457 289.718 273.679 296.491 274.518C296.033 274.931 295.472 274.73 294.957 274.748C294.484 274.765 294.103 274.913 293.807 275.27C293.592 275.531 293.391 275.802 293.211 276.085C292.223 277.647 292.001 279.422 291.824 281.207C291.729 282.188 291.983 283.13 292.114 284.082C292.248 285.035 292.322 286.005 292.547 286.936C293.161 289.476 293.983 291.949 295.038 294.348C295.504 295.406 295.994 296.429 296.566 297.442C297.472 299.047 298.52 300.55 299.54 302.077C299.942 302.677 300.4 303.249 300.894 303.778C301.758 304.698 302.626 305.623 303.575 306.448C304.743 307.464 305.985 308.417 307.498 308.875C308.976 309.323 310.447 309.482 311.767 308.392C311.869 308.307 312.042 308.311 312.18 308.276Z" fill="#7A4821"/>
<path d="M312.179 308.275C312.038 308.31 311.865 308.307 311.767 308.391C310.447 309.481 308.976 309.323 307.498 308.875C305.985 308.416 304.743 307.464 303.575 306.448C302.626 305.622 301.758 304.694 300.894 303.777C300.4 303.251 299.941 302.68 299.539 302.077C298.52 300.549 297.472 299.046 296.565 297.441C295.994 296.432 295.503 295.406 295.038 294.347C293.987 291.948 293.161 289.475 292.547 286.935C292.321 286.004 292.247 285.034 292.113 284.081C291.979 283.125 291.725 282.187 291.824 281.206C292 279.421 292.223 277.647 293.21 276.084C293.39 275.798 293.591 275.527 293.807 275.269C294.099 274.913 294.484 274.765 294.957 274.747C295.472 274.729 296.033 274.93 296.491 274.518C296.689 274.518 296.886 274.518 297.087 274.518C297.761 275.043 297.938 275.773 297.945 276.574C297.952 277.693 298.008 278.811 297.934 279.922C297.849 281.249 298.089 282.536 298.319 283.81C298.763 286.279 299.338 288.724 300.238 291.084C301.483 294.361 303.067 297.441 305.198 300.246C306.704 302.232 308.609 303.819 310.317 305.604C310.68 305.985 311.16 306.25 311.562 306.592C311.936 306.91 312.26 307.273 312.303 307.802C312.26 307.957 312.218 308.113 312.179 308.271V308.275Z" fill="#5B3617"/>
<path d="M338.981 274.705C339.46 275.023 339.623 275.555 339.81 276.042C340.522 277.894 341.196 279.76 341.884 281.623C342.554 283.44 343.172 285.278 343.92 287.063C344.361 288.111 344.396 289.127 344.149 290.181C344.057 290.566 344.011 290.94 344.004 291.332C343.994 292.154 344.043 292.972 343.771 293.78C343.651 294.133 343.722 294.549 343.715 294.937C343.697 295.71 343.697 296.472 343.5 297.244C343.337 297.886 343.44 298.595 343.422 299.273C343.401 300.045 343.503 300.825 343.196 301.576C343.126 301.749 343.119 301.964 343.143 302.151C343.277 303.195 342.858 304.046 342.237 304.829C341.725 305.474 341.231 306.127 340.706 306.759C340.427 307.094 340.124 307.425 339.626 307.415C339.101 306.367 338.928 305.21 338.628 304.099C337.411 299.569 336.254 295.022 335.037 290.488C334.814 289.659 334.836 288.883 335.065 288.075C336.169 284.216 337.252 280.35 338.356 276.49C338.529 275.887 338.769 275.305 338.977 274.712L338.981 274.705Z" fill="#F6BA90"/>
</svg>
