<svg width="500" height="500" viewBox="0 0 500 500" fill="none" xmlns="http://www.w3.org/2000/svg">
<path d="M171.88 368.028C164.448 365.446 153.116 365.569 152.994 362.371C152.02 336.79 149.948 298.418 149.948 298.418C151.776 272.96 164.935 223.766 162.864 214.173C160.792 204.703 141.419 206.671 141.053 216.386C139.835 227.824 138.373 233.236 137.154 245.042C135.327 259.678 133.133 290.424 134.352 298.91C134.474 300.017 142.637 356.714 142.637 356.714C142.637 356.714 142.881 363.724 143.856 367.536C144.952 371.841 147.755 370.857 156.284 371.841C162.62 372.702 177.12 369.873 171.88 368.028Z" fill="#ECAD83"/>
<path d="M253.652 150C253.652 150 226.198 178.467 231.738 187.626C232.354 188.74 233.093 191.215 233.339 191.958C239.987 210.895 255.129 210.647 257.715 213.741C259.685 216.217 280.244 200.374 288 189.854C288 189.854 279.382 167.947 273.965 160.644C269.903 155.322 253.652 150 253.652 150Z" fill="#3D3C3C"/>
<path d="M147.332 179.079C136.013 189.078 136.998 195.126 132.076 212.655C131.461 214.877 134.66 225.247 138.105 228.579C142.042 232.406 146.717 234.875 152.746 234.998C164.557 235.245 181.781 204.878 197.283 197.472C207.248 191.3 229.394 182.041 232.101 187.596L254 150.07C192.731 137.972 170.708 164.883 158.774 174.511C158.774 174.635 150.531 176.24 147.332 179.079Z" fill="#FF8AA0"/>
<path d="M134.463 227.321C134.463 227.321 132.475 232.161 128 240.35L143.537 254C143.785 243.577 150 234.642 150 234.642C136.701 231.168 136.203 222.854 132.972 220L134.463 227.321Z" fill="#ECAD83"/>
<path d="M130.648 275.678C131.758 283.47 138.293 285.944 142.362 286.933C155.063 290.149 161.105 285.696 167.763 278.894C176.641 269.989 156.542 243.273 151.857 240.057C139.65 231.894 121.524 242.036 115.605 247.725C109.07 253.91 112.893 254.528 115.605 256.878C115.729 257.002 115.729 257.62 115.729 257.62C116.592 258.486 117.825 259.599 118.441 261.331C118.441 261.331 119.428 261.949 119.921 262.32C120.168 262.567 120.414 262.815 120.168 263.186C119.551 264.423 119.058 265.66 119.058 266.402C119.181 268.999 130.155 272.091 130.648 275.678Z" fill="#F6BB92"/>
<path d="M121 257C121 257 120.009 257.25 117.162 260.122C116.914 260.622 116.79 261.621 118.028 261.996C119.019 262.121 119.267 259.373 121 257Z" fill="#D6876B"/>
<path d="M121 257.167C121 257.167 118.79 256.399 115.281 258.156C114.891 258.595 115.021 259.035 115.021 259.254C115.541 260.353 116.841 259.913 116.841 259.913C119.96 257.387 121 257.167 121 257.167Z" fill="#CC785E"/>
<path d="M169.969 280.018C180.72 269.237 179.485 239.467 146.367 236.037C144.142 235.792 140.435 236.649 139.57 242.407C138.952 246.573 139.694 250.493 139.694 250.493C139.941 251.718 140.188 252.943 140.559 254.291C140.929 255.761 146.985 260.417 145.996 261.642C137.099 273.893 138.211 283.939 141.053 286.757C149.209 292.147 158.477 291.412 169.969 280.018Z" fill="#602F0F"/>
<path d="M144.38 251.727C137.877 248.424 135.626 250.329 133 253.505L142.254 259.476L146.757 261C149.383 257.824 150.884 254.902 144.38 251.727Z" fill="#F6BB92"/>
<path d="M170.135 247.015C174.674 246.644 178.616 253.083 178.975 261.256C179.333 269.552 175.869 276.611 171.329 276.982C166.79 277.354 164.401 271.905 164.042 263.608C163.684 255.436 165.595 247.387 170.135 247.015Z" fill="#4C230C"/>
<path d="M143.669 261.49C144.656 262.23 145.519 262.97 146.136 263.587C146.999 264.574 147.493 265.314 147.493 265.314L149.466 260.996C148.973 260.503 148.603 260.01 148.11 259.64C148.11 259.64 147.863 260.133 147.493 260.873V260.75C146.383 260.503 144.779 259.886 142.559 258.899C142.682 258.899 140.585 259.269 143.669 261.49Z" fill="#602F0F"/>
<path d="M172.286 245.208C177.22 244.838 181.538 251.745 181.908 260.873C182.278 269.878 178.577 277.526 173.643 277.896C168.709 278.266 166.119 272.345 165.748 263.34C165.255 254.336 167.352 245.578 172.286 245.208Z" fill="#602F0F"/>
<path d="M180.3 257C180.574 257 180.918 259.099 180.987 261.938C181.055 264.654 180.849 267 180.574 267C180.3 267 180.093 265.148 180.025 262.432C179.956 259.716 180.025 257 180.3 257Z" fill="#4C230C"/>
<path d="M231.26 190.094C237.919 206.275 253.828 212 253.828 212C253.828 212 289.344 205.155 286.877 196.442C282.191 180.137 276.025 168.313 274.052 160.223L257.651 154C257.651 154 227.931 182.004 231.26 190.094Z" fill="#3D3C3C"/>
<path d="M383.278 373L343.653 372.386C334.423 372.386 337.254 362.566 339.715 360.356C341.191 359.006 315.964 311.255 313.503 304.258C309.319 292.842 332.577 288.423 334.177 292.474C346.852 326.231 352.882 350.291 354.482 356.551C354.482 356.551 383.278 362.934 386.478 366.371C388.201 368.458 389.8 371.895 383.278 373Z" fill="#F6BB92"/>
<path d="M294.005 268.096C298.325 281.622 307.83 292.934 313.262 304C316.224 300.926 330.173 292.811 334 292.196C332.395 288.016 318.693 257.276 318.693 257.276C315.36 246.948 282.772 178.337 280.92 174.279C278.945 170.222 276.97 165.795 274.254 161L235 188.051C245.369 207.232 277.711 233.053 283.019 241.537C288.45 250.022 294.005 268.096 294.005 268.096Z" fill="#3D3C3C"/>
<path d="M159.689 370.808C154.503 367.601 140.178 365.998 140.425 362.792C142.277 337.141 149.687 298.665 149.687 298.665C151.539 273.137 164.876 223.809 162.777 214.189C160.677 204.694 141.042 206.667 140.672 216.409C139.437 227.878 137.955 233.304 136.72 245.143C134.868 259.818 132.645 290.649 133.88 299.158C134.003 300.268 130.175 364.148 131.163 367.971C132.275 372.287 135.115 371.301 143.759 372.287C150.181 373.151 164.505 373.767 159.689 370.808Z" fill="#F6BB92"/>
</svg>
