<svg width="501" height="500" viewBox="0 0 501 500" fill="none" xmlns="http://www.w3.org/2000/svg">
<path d="M358.523 397.577C368.623 394.05 384.023 394.218 384.188 389.85C385.513 354.91 388.328 302.5 388.328 302.5C385.844 267.728 367.961 200.535 370.776 187.433C373.591 174.498 399.919 177.186 400.416 190.457C402.071 206.079 404.058 213.47 405.714 229.596C408.198 249.586 411.179 291.581 409.523 303.172C409.357 304.684 398.263 382.123 398.263 382.123C398.263 382.123 397.932 391.698 396.607 396.905C395.117 402.785 391.308 401.441 379.717 402.785C371.107 403.961 351.402 400.097 358.523 397.577Z" fill="#ECAD83"/>
<path d="M247.003 100.002C247.003 100.002 284.572 138.699 276.991 151.15C276.148 152.664 275.137 156.029 274.801 157.038C265.703 182.781 244.982 182.444 241.444 186.65C238.748 190.015 210.614 168.479 200.001 154.178C200.001 154.178 211.794 124.398 219.206 114.471C224.766 107.237 247.003 100.002 247.003 100.002Z" fill="#3D3C3C"/>
<path d="M392.013 139.746C407.507 153.381 406.16 161.629 412.896 185.532C413.738 188.562 409.36 202.702 404.644 207.247C399.255 212.465 392.855 215.832 384.603 216C368.436 216.337 344.858 174.927 323.638 164.827C309.997 156.411 279.683 143.786 275.978 151.361L246.001 100.188C329.87 83.6914 360.015 120.388 376.351 133.518C376.351 133.686 387.635 135.874 392.013 139.746Z" fill="#FF8AA0"/>
<path d="M409.187 205.122C409.187 205.122 411.899 211.812 418.001 223.133L396.815 242.002C396.476 227.593 388.001 215.243 388.001 215.243C406.137 210.44 406.815 198.947 411.221 195.002L409.187 205.122Z" fill="#ECAD83"/>
<path d="M414.6 271.331C413.089 281.873 404.188 285.22 398.645 286.559C381.347 290.909 373.117 284.885 364.048 275.682C351.955 263.634 379.331 227.489 385.713 223.138C402.34 212.094 427.029 225.815 435.09 233.513C443.992 241.88 438.785 242.716 435.09 245.896C434.922 246.063 434.922 246.9 434.922 246.9C433.747 248.071 432.067 249.577 431.227 251.92C431.227 251.92 429.884 252.757 429.212 253.259C428.876 253.593 428.54 253.928 428.876 254.43C429.716 256.103 430.388 257.777 430.388 258.781C430.22 262.295 415.272 266.478 414.6 271.331Z" fill="#F6BB92"/>
<path d="M428.001 246.002C428.001 246.002 429.239 246.352 432.799 250.373C433.109 251.073 433.263 252.472 431.716 252.996C430.477 253.171 430.168 249.324 428.001 246.002Z" fill="#D6876B"/>
<path d="M428.001 246.225C428.001 246.225 430.947 245.2 435.627 247.543C436.147 248.129 435.973 248.715 435.973 249.008C435.28 250.472 433.547 249.886 433.547 249.886C429.387 246.518 428.001 246.225 428.001 246.225Z" fill="#CC785E"/>
<path d="M361.15 277.323C346.622 262.549 348.292 221.753 393.046 217.052C396.052 216.717 401.062 217.892 402.231 225.782C403.066 231.49 402.064 236.863 402.064 236.863C401.73 238.542 401.396 240.221 400.895 242.067C400.394 244.082 392.211 250.462 393.547 252.141C405.57 268.929 404.068 282.696 400.227 286.557C389.205 293.944 376.681 292.937 361.15 277.323Z" fill="#602F0F"/>
<path d="M395.353 238.356C404.295 233.853 407.39 236.451 411.001 240.782L398.276 248.923L392.086 251.002C388.475 246.671 386.411 242.687 395.353 238.356Z" fill="#F6BB92"/>
<path d="M360.821 232.023C354.769 231.515 349.513 240.315 349.035 251.485C348.557 262.823 353.176 272.47 359.229 272.978C365.281 273.485 368.467 266.039 368.945 254.7C369.422 243.531 366.874 232.531 360.821 232.023Z" fill="#4C230C"/>
<path d="M396.712 252.032C395.367 253.041 394.19 254.05 393.349 254.89C392.173 256.235 391.5 257.244 391.5 257.244L388.811 251.36C389.483 250.687 389.987 250.015 390.66 249.511C390.66 249.511 390.996 250.183 391.5 251.192V251.024C393.013 250.687 395.199 249.847 398.225 248.502C398.056 248.502 400.914 249.006 396.712 252.032Z" fill="#602F0F"/>
<path d="M357.71 229.844C350.986 229.339 345.102 238.753 344.598 251.193C344.094 263.465 349.137 273.888 355.861 274.392C362.585 274.896 366.116 266.827 366.62 254.555C367.292 242.284 364.435 230.348 357.71 229.844Z" fill="#602F0F"/>
<path d="M346.701 246.002C346.427 246.002 346.083 248.94 346.014 252.916C345.946 256.718 346.152 260.002 346.427 260.002C346.701 260.002 346.907 257.409 346.976 253.607C347.045 249.804 346.976 246.002 346.701 246.002Z" fill="#4C230C"/>
<path d="M277.643 155.165C268.487 177.204 246.613 185.002 246.613 185.002C246.613 185.002 197.778 175.678 201.17 163.811C207.613 141.603 216.091 125.498 218.804 114.478L241.356 106.002C241.356 106.002 282.221 144.146 277.643 155.165Z" fill="#3D3C3C"/>
<path d="M70.4226 404.002L124.313 403.164C136.866 403.164 133.016 389.751 129.669 386.733C127.661 384.888 161.97 319.667 165.317 310.111C171.008 294.518 139.376 288.482 137.2 294.015C119.962 340.122 111.761 372.984 109.585 381.535C109.585 381.535 70.4226 390.254 66.0712 394.948C63.7281 397.798 61.5524 402.493 70.4226 404.002Z" fill="#F6BB92"/>
<path d="M191.54 261.042C185.648 279.486 172.687 294.912 165.28 310.002C161.24 305.81 142.219 294.744 137.001 293.906C139.189 288.205 157.874 246.287 157.874 246.287C162.419 232.203 206.858 138.643 209.383 133.11C212.076 127.577 214.769 121.541 218.472 115.002L272.001 151.889C257.861 178.046 213.759 213.256 206.521 224.826C199.114 236.395 191.54 261.042 191.54 261.042Z" fill="#3D3C3C"/>
<path d="M374.553 401.012C381.685 396.64 401.381 394.454 401.042 390.081C398.495 355.103 388.307 302.635 388.307 302.635C385.76 267.825 367.422 200.559 370.308 187.442C373.195 174.493 400.193 177.184 400.702 190.469C402.4 206.109 404.438 213.508 406.136 229.652C408.683 249.663 411.739 291.705 410.041 303.308C409.871 304.822 415.135 391.931 413.777 397.144C412.249 403.03 408.343 401.685 396.457 403.03C387.628 404.207 367.931 405.048 374.553 401.012Z" fill="#F6BB92"/>
</svg>
