<svg width="500" height="500" viewBox="0 0 500 500" fill="none" xmlns="http://www.w3.org/2000/svg">
<path d="M283.72 202.427C282.941 202.374 282.193 202.205 281.441 201.99C280.189 201.634 278.901 201.394 277.635 201.083C276.411 200.783 275.176 200.515 273.984 200.12C273.253 199.877 272.781 200.05 272.336 200.607C271.698 201.401 271.041 202.18 270.382 202.957C268.558 205.108 266.561 207.084 264.427 208.929C262.882 210.263 261.294 211.529 259.629 212.704C256.69 214.778 253.579 216.56 250.309 218.041C247.797 219.177 245.229 220.2 242.551 220.909C241.334 221.234 240.138 221.675 238.903 221.89C237.33 222.165 235.799 222.691 234.183 222.719C234.134 222.719 234.084 222.719 234.038 222.73C231.333 223.361 228.535 223.224 225.812 223.756C224.866 223.943 223.878 223.915 222.912 224.014C220.594 224.25 218.29 224.607 215.966 224.769C214.805 224.85 213.658 225.083 212.505 225.235C212.11 225.287 211.771 225.429 211.425 225.63C202.056 231.154 192.679 236.661 183.309 242.186C176.659 246.108 170.016 250.045 163.377 253.986C162.876 254.282 162.396 254.614 161.923 254.953C161.564 255.21 161.479 255.573 161.631 255.986C162.065 257.172 162.513 258.346 163.105 259.468C164.559 262.216 165.875 265.028 166.838 267.995C167.931 271.364 169.113 274.708 170.119 278.102C171.127 281.499 171.787 284.985 172.316 288.491C172.433 289.26 172.549 290.029 172.718 290.784C173.382 293.726 173.664 296.725 173.992 299.717C174.341 302.906 174.38 306.112 174.556 309.312C174.648 311.009 174.793 312.706 174.856 314.403C174.976 317.655 174.874 320.908 174.715 324.161C174.641 325.663 174.698 327.173 174.638 328.676C174.489 332.363 174.306 336.049 174.144 339.736C174.119 340.318 174.112 340.9 174.123 341.486C174.186 344.601 173.854 347.695 173.643 350.795C173.615 351.233 173.533 351.667 173.537 352.101C173.555 354.68 173.202 357.237 173.078 359.809C173.057 360.243 172.955 360.67 172.888 361.1C172.824 361.495 172.313 361.679 172.362 362.098C172.405 362.469 172.729 362.79 172.591 363.21C171.127 363.157 169.688 363.425 168.252 363.619C167.194 363.76 166.125 363.764 165.07 363.929C163.874 364.116 162.668 364.296 161.461 364.335C158.745 364.423 156.032 364.494 153.323 364.681C152.55 364.734 151.778 364.741 151.005 364.861C150.254 364.981 149.463 365.122 148.722 364.734C149.312 364.268 149.343 364.254 149.139 363.862C148.539 362.719 148.373 361.463 148.155 360.222C146.761 352.383 145.42 344.537 143.978 336.709C143.501 334.137 142.771 331.608 142.15 329.064C141.081 324.676 139.765 320.358 138.446 316.04C136.305 309.03 134.192 302.01 132.064 294.993C130.978 291.416 129.884 287.842 128.798 284.265C127.132 278.783 125.453 273.304 123.816 267.815C122.772 264.312 122.155 260.738 122.268 257.059C122.328 255.118 122.486 253.182 122.899 251.301C123.185 249.989 123.538 248.673 123.933 247.375C124.843 244.359 126.406 241.692 127.93 238.982C128.688 237.628 129.482 236.298 130.272 234.964C131.394 233.084 132.759 231.38 134.142 229.69C136.908 226.31 139.737 222.987 142.686 219.763C145.9 216.249 149.153 212.778 152.614 209.504C155.009 207.236 157.415 204.971 159.891 202.791C163.641 199.492 167.473 196.285 171.434 193.234C178.317 187.935 185.471 183.039 192.904 178.548C197.427 175.814 202.052 173.27 206.737 170.833C209.016 169.647 211.33 168.532 213.669 167.467C216.4 166.222 219.144 165.005 221.928 163.886C224.439 162.877 227.004 161.985 229.565 161.099C231.393 160.468 233.245 159.896 235.104 159.364C236.871 158.856 238.66 158.422 240.448 157.981C242.05 157.586 243.648 157.191 245.264 156.859C246.876 156.527 248.506 156.277 250.129 155.991C250.27 155.966 250.421 155.988 250.563 155.956C252.415 155.547 254.313 155.441 256.175 155.123C257.953 154.82 259.752 154.816 261.53 154.576C263.943 154.252 266.371 154.245 268.794 154.104C269.958 154.037 271.126 154.054 272.29 154.065C272.572 154.065 272.851 154.188 273.13 154.255C273.874 155.885 274.59 157.529 275.363 159.145C276.887 162.345 278.235 165.604 279.24 169.012C280.323 172.685 281.494 176.322 282.023 180.142C282.277 181.963 282.486 183.794 282.732 185.617C282.965 187.343 282.983 189.096 283.096 190.839C283.11 191.082 283.121 191.325 283.152 191.565C283.452 193.728 283.667 195.897 283.71 198.081C283.724 198.713 283.745 199.337 283.851 199.965C283.988 200.783 283.967 201.609 283.724 202.417L283.72 202.427Z" fill="#6A6D66"/>
<path d="M366.168 255.468C366.337 256.812 366.556 258.149 366.662 259.497C366.813 261.427 367.177 263.349 367.053 265.297C366.947 266.958 367.339 268.577 367.42 270.221C367.498 271.763 367.745 273.301 367.925 274.839C368.087 276.233 368.27 277.623 368.426 279.02C368.531 279.983 368.581 280.946 368.725 281.909C368.927 283.246 368.916 284.618 369.114 285.955C369.311 287.296 369.276 288.672 369.706 289.973C369.925 290.637 369.957 291.303 369.928 291.984C369.847 293.935 370.186 295.847 370.419 297.77C370.563 298.973 370.588 300.183 370.786 301.382C371.036 302.91 371.142 304.459 371.308 305.997C371.329 306.187 371.354 306.385 371.332 306.575C371.093 308.787 370.828 310.996 370.599 313.211C370.458 314.559 370.306 315.91 370.271 317.264C370.239 318.531 370.003 319.769 369.858 321.021C369.699 322.415 369.452 323.794 369.346 325.198C369.237 326.595 369.022 327.985 368.87 329.379C368.747 330.532 368.747 331.697 368.521 332.85C368.228 334.371 368.066 335.912 367.808 337.44C367.367 340.064 366.902 342.686 366.436 345.307C366.013 347.692 365.572 350.069 365.148 352.454C364.707 354.931 364.273 357.411 363.836 359.891C363.398 362.371 362.958 364.847 362.52 367.327C362.174 369.282 361.818 371.232 361.501 373.194C361.359 374.072 361.084 374.834 360.499 375.554C358.481 378.038 356.526 380.57 354.558 383.096C353.792 384.081 352.865 384.546 351.556 384.536C345.435 384.497 339.311 384.419 333.197 384.596C328.099 384.74 323.005 384.74 317.911 384.786C317.379 384.79 316.849 384.811 316.32 384.68C315.512 384.483 314.743 384.271 314.126 383.636C313.763 383.262 313.255 383.033 312.81 382.737C312.57 382.042 312.496 381.329 312.514 380.595C312.521 380.264 312.482 379.911 312.376 379.597C312.217 379.121 312.242 378.641 312.232 378.157C312.217 377.335 312.189 376.531 312.006 375.709C311.656 374.15 312.147 373.257 313.554 372.492C313.639 372.446 313.724 372.393 313.812 372.358C315.018 371.86 316.204 371.282 317.446 370.894C319.333 370.305 321.266 369.864 323.175 369.338C325.178 368.788 327.172 368.202 329.172 367.641C331.31 367.041 333.451 366.449 335.593 365.856C337.409 365.355 339.226 364.858 341.039 364.357C341.41 364.254 341.625 364.008 341.646 363.63C341.706 362.473 342.098 361.351 341.971 360.173C341.939 359.891 341.964 359.577 342.066 359.316C342.281 358.748 342.239 358.169 342.253 357.591C342.264 357.153 342.189 356.687 342.32 356.289C342.57 355.527 342.528 354.758 342.549 353.985C342.556 353.646 342.518 353.28 342.63 352.976C342.877 352.313 342.821 351.639 342.842 350.962C342.853 350.574 342.793 350.157 342.916 349.808C343.153 349.141 343.121 348.471 343.135 347.797C343.142 347.459 343.071 347.092 343.177 346.785C343.47 345.935 343.414 345.063 343.428 344.192C343.431 343.949 343.396 343.688 343.481 343.469C343.77 342.717 343.703 341.941 343.721 341.169C343.728 340.83 343.685 340.463 343.798 340.16C344.024 339.546 344.013 338.921 344.006 338.294C343.996 336.84 344.458 335.422 344.331 333.961C344.324 333.87 344.352 333.764 344.391 333.679C344.641 333.125 344.581 332.54 344.595 331.958C344.602 331.619 344.543 331.252 344.652 330.945C344.92 330.187 344.874 329.418 344.888 328.645C344.892 328.356 344.878 328.059 344.927 327.774C345.287 325.636 345.774 323.516 346.003 321.367C346.236 319.205 346.779 317.106 347.012 314.943C347.192 313.267 347.573 311.616 347.523 309.912C347.513 309.584 347.619 309.246 347.7 308.921C347.83 308.392 347.897 307.852 347.672 307.351C347.093 306.067 346.744 304.702 346.268 303.383C344.976 299.784 343.639 296.204 342.376 292.598C341.512 290.132 340.641 287.67 339.716 285.225C338.298 281.471 336.954 277.686 335.55 273.926C335.144 272.839 334.689 271.763 334.16 270.733C333.744 269.918 333.222 269.124 332.135 269.075C332.065 268.842 332.019 268.602 331.924 268.38C330.364 264.715 329.2 260.912 328.107 257.091C327.584 255.274 326.992 253.468 326.628 251.619C326.075 248.811 325.87 245.954 325.909 243.086C325.916 242.553 325.951 242.017 326.032 241.495C326.498 238.514 327.334 235.635 328.41 232.82C330.11 228.368 333.01 225.006 337.279 222.854C337.625 222.677 337.981 222.519 338.316 222.325C339.251 221.785 340.253 221.446 341.311 221.259C344.207 220.744 347.107 220.73 349.986 221.319C353.129 221.961 355.962 223.309 358.424 225.376C361.67 228.103 363.857 231.539 365.127 235.571C365.593 237.057 365.931 238.56 365.907 240.136C365.875 242.126 365.917 244.116 365.893 246.105C365.875 247.315 365.801 248.522 365.684 249.732C365.54 251.224 365.596 252.738 365.582 254.241C365.575 254.741 365.684 255.211 366.171 255.489L366.168 255.468Z" fill="#F7BB92"/>
<path d="M366.168 255.468C365.678 255.189 365.572 254.723 365.579 254.219C365.597 252.716 365.54 251.203 365.681 249.71C365.798 248.5 365.872 247.294 365.889 246.084C365.914 244.094 365.872 242.104 365.903 240.115C365.928 238.538 365.589 237.035 365.124 235.55C363.857 231.518 361.67 228.081 358.421 225.355C355.959 223.287 353.126 221.94 349.983 221.298C347.104 220.708 344.204 220.719 341.308 221.238C340.249 221.428 339.247 221.767 338.313 222.303C337.977 222.497 337.625 222.659 337.275 222.832C333.007 224.984 330.107 228.346 328.407 232.798C327.331 235.617 326.498 238.496 326.029 241.473C325.948 241.999 325.912 242.535 325.905 243.064C325.867 245.932 326.071 248.79 326.625 251.598C326.988 253.446 327.581 255.252 328.103 257.069C329.2 260.893 330.361 264.693 331.92 268.358C332.016 268.58 332.061 268.82 332.132 269.053C331.762 269.91 331.292 270.637 330.192 270.531C330.1 270.514 330.029 270.468 329.984 270.394C326.749 264.531 324.11 258.375 321.245 252.331C320.578 250.927 319.845 249.569 319.037 248.239C313.724 239.494 308.429 230.734 303.134 221.982C300.597 217.791 298.068 213.596 295.535 209.405C294.78 208.153 293.87 207.021 292.85 205.976C292.469 205.585 292.134 205.186 292.035 204.636C293.4 203.189 294.744 201.718 296.138 200.3C303.5 192.825 310.87 185.356 318.247 177.892C322.55 173.538 326.865 169.196 331.172 164.846C331.582 164.433 331.973 164.003 332.372 163.583C332.555 163.639 332.763 163.657 332.915 163.759C334.686 164.952 336.425 166.187 338.214 167.351C341.064 169.203 343.827 171.182 346.522 173.256C347.492 174.001 348.589 174.53 349.739 174.928C351.757 175.627 353.8 176.258 355.8 176.999C358.573 178.026 361.423 178.848 364.097 180.142C366.27 181.194 368.129 182.661 369.879 184.273C371.382 185.66 372.663 187.254 373.795 188.958C375.764 191.925 376.907 195.181 377.298 198.727C377.612 201.581 377.849 204.431 377.7 207.303C377.482 211.522 377.217 215.734 376.727 219.936C376.483 222.007 376.275 224.081 375.802 226.12C375.552 227.203 375.541 228.339 375.298 229.426C374.324 233.789 372.959 238.037 371.537 242.27C370.08 246.602 368.112 250.723 366.478 254.981C366.411 255.154 366.274 255.302 366.168 255.461V255.468Z" fill="#8A8AD9"/>
<path d="M329.984 270.405C330.03 270.479 330.1 270.525 330.195 270.542C330.485 270.789 330.841 270.976 330.83 271.445C330.816 272.19 331.113 272.864 331.363 273.544C332.326 276.18 333.293 278.815 334.273 281.443C335.596 284.978 336.94 288.502 338.26 292.037C338.577 292.891 339.022 293.72 338.983 294.676C338.775 295.268 338.535 295.851 338.362 296.454C337.258 300.313 336.175 304.18 335.071 308.039C334.838 308.85 334.82 309.627 335.043 310.452C336.256 314.985 337.417 319.529 338.634 324.062C338.934 325.177 339.107 326.334 339.632 327.378C339.639 327.837 339.53 328.239 339.103 328.497C338.69 328.747 338.292 329.026 337.868 329.252C336.496 329.982 335.021 330.448 333.529 330.867C331.705 331.382 329.811 331.435 327.959 331.77C326.851 331.689 325.743 331.619 324.639 331.52C320.829 331.178 317.266 330.052 313.96 328.116C313.629 327.922 313.287 327.738 312.944 327.562C312.669 327.421 312.514 327.675 312.313 327.773C312.271 327.244 311.95 326.881 311.572 326.563C311.166 326.221 310.69 325.953 310.327 325.576C308.619 323.791 306.714 322.203 305.208 320.217C303.081 317.412 301.493 314.333 300.248 311.055C299.352 308.695 298.773 306.25 298.329 303.781C298.1 302.507 297.86 301.216 297.944 299.893C298.015 298.782 297.962 297.66 297.955 296.546C297.951 295.745 297.771 295.014 297.098 294.489C297.556 293.06 298.078 291.645 298.459 290.199C299.017 288.096 300.026 286.237 301.303 284.505C302.986 282.226 304.951 280.215 307.127 278.409C310.969 275.224 315.178 272.662 319.905 270.99C321.605 270.391 323.348 269.981 325.14 269.777C326.809 269.583 328.431 269.759 329.994 270.405H329.984Z" fill="#7A4821"/>
<path d="M332.372 163.59C331.973 164.01 331.582 164.44 331.173 164.853C326.865 169.203 322.551 173.542 318.247 177.899C310.87 185.364 303.501 192.828 296.138 200.307C294.741 201.726 293.401 203.197 292.035 204.643C289.587 204.146 287.223 203.292 284.754 202.886C284.377 202.823 284.003 202.717 283.72 202.428C283.964 201.62 283.985 200.794 283.847 199.976C283.742 199.348 283.72 198.723 283.706 198.092C283.66 195.908 283.445 193.739 283.149 191.576C283.117 191.336 283.107 191.093 283.092 190.849C282.98 189.107 282.962 187.353 282.729 185.628C282.482 183.804 282.274 181.977 282.02 180.153C281.491 176.333 280.32 172.695 279.237 169.023C278.231 165.615 276.884 162.355 275.36 159.156C274.587 157.54 273.871 155.896 273.126 154.266C273.821 154.019 274.541 153.977 275.275 153.977C283.375 153.984 291.474 153.942 299.571 154.012C301.5 154.03 303.451 154.076 305.363 154.291C307.466 154.527 309.59 154.69 311.66 155.233C312.726 155.512 313.834 155.61 314.91 155.917C316.201 156.284 317.502 156.63 318.783 157.036C320.674 157.635 322.526 158.327 324.346 159.113C326.033 159.844 327.677 160.648 329.299 161.509C330.199 161.985 331.046 162.532 331.91 163.054C332.125 163.184 332.284 163.361 332.376 163.594L332.372 163.59Z" fill="#F6BB92"/>
<path d="M338.98 294.675C339.018 293.719 338.577 292.894 338.256 292.036C336.937 288.502 335.593 284.977 334.27 281.442C333.286 278.814 332.323 276.179 331.36 273.544C331.113 272.863 330.813 272.189 330.827 271.445C330.837 270.972 330.481 270.785 330.192 270.542C331.293 270.644 331.762 269.917 332.132 269.063C333.219 269.113 333.737 269.907 334.157 270.722C334.686 271.752 335.141 272.828 335.547 273.914C336.951 277.675 338.295 281.46 339.713 285.214C340.638 287.658 341.509 290.121 342.373 292.587C343.636 296.196 344.973 299.776 346.264 303.371C346.737 304.691 347.086 306.056 347.669 307.34C347.894 307.841 347.827 308.381 347.697 308.91C347.616 309.238 347.51 309.573 347.52 309.901C347.573 311.605 347.192 313.256 347.009 314.932C346.776 317.094 346.229 319.193 346 321.356C345.771 323.504 345.284 325.628 344.924 327.762C344.875 328.048 344.889 328.344 344.885 328.634C344.871 329.406 344.917 330.179 344.649 330.934C344.539 331.241 344.599 331.608 344.592 331.946C344.578 332.525 344.638 333.114 344.388 333.668C344.349 333.752 344.321 333.858 344.328 333.95C344.455 335.411 343.996 336.829 344.003 338.282C344.007 338.91 344.017 339.535 343.795 340.148C343.682 340.455 343.724 340.819 343.717 341.157C343.7 341.93 343.767 342.706 343.478 343.457C343.393 343.673 343.428 343.937 343.425 344.181C343.407 345.052 343.467 345.92 343.174 346.774C343.068 347.08 343.139 347.447 343.132 347.786C343.118 348.463 343.149 349.134 342.913 349.797C342.79 350.146 342.853 350.566 342.839 350.95C342.818 351.628 342.878 352.302 342.627 352.965C342.514 353.268 342.557 353.635 342.546 353.974C342.529 354.746 342.567 355.515 342.317 356.277C342.186 356.676 342.264 357.142 342.25 357.579C342.236 358.158 342.278 358.736 342.063 359.304C341.964 359.565 341.939 359.883 341.968 360.161C342.095 361.34 341.7 362.462 341.643 363.619C341.625 363.996 341.407 364.243 341.036 364.345C339.219 364.846 337.403 365.344 335.589 365.845C333.448 366.437 331.307 367.027 329.169 367.63C327.169 368.191 325.175 368.773 323.172 369.327C321.263 369.852 319.33 370.293 317.442 370.882C316.201 371.27 315.019 371.849 313.809 372.346C313.721 372.382 313.636 372.435 313.551 372.48C312.144 373.25 311.653 374.139 312.003 375.698C312.186 376.52 312.211 377.324 312.228 378.146C312.239 378.629 312.214 379.109 312.373 379.585C312.475 379.899 312.514 380.252 312.511 380.584C312.497 381.318 312.571 382.03 312.807 382.725C308.679 382.75 304.555 382.778 300.428 382.796C299.377 382.799 298.403 382.566 297.662 381.737C297.599 381.667 297.525 381.589 297.44 381.55C296.209 380.961 295.965 379.875 295.884 378.651C295.768 376.911 295.595 375.176 295.404 373.444C295.239 371.944 295.602 371.165 297.002 370.537C299.126 369.581 301.331 368.843 303.578 368.226C308.905 366.758 314.225 365.259 319.545 363.77C321.133 363.326 322.716 362.874 324.308 362.44C324.773 362.313 325.077 362.119 325.105 361.573C325.151 360.751 325.271 359.936 325.352 359.117C325.518 357.48 325.68 355.84 325.849 354.203C325.969 353.046 325.98 351.885 326.146 350.725C326.364 349.194 326.392 347.634 326.534 346.089C326.678 344.498 326.869 342.911 327.02 341.32C327.154 339.919 327.264 338.518 327.38 337.118C327.5 335.668 327.606 334.218 327.737 332.772C327.768 332.437 327.871 332.105 327.941 331.773C329.793 331.442 331.688 331.385 333.512 330.87C335.004 330.45 336.475 329.985 337.851 329.255C338.278 329.029 338.673 328.75 339.085 328.5C339.512 328.242 339.622 327.84 339.615 327.381C340.112 327.392 340.419 327.06 340.694 326.725C341.22 326.094 341.717 325.437 342.225 324.795C342.846 324.012 343.262 323.162 343.132 322.118C343.107 321.931 343.114 321.712 343.185 321.543C343.492 320.795 343.393 320.012 343.41 319.239C343.428 318.558 343.326 317.853 343.488 317.211C343.686 316.438 343.686 315.68 343.703 314.904C343.71 314.515 343.643 314.099 343.76 313.746C344.031 312.939 343.982 312.12 343.993 311.298C343.996 310.91 344.045 310.533 344.137 310.148C344.388 309.093 344.349 308.077 343.908 307.029C343.16 305.244 342.543 303.406 341.872 301.59C341.184 299.727 340.511 297.861 339.798 296.009C339.611 295.522 339.445 294.989 338.969 294.672L338.98 294.675Z" fill="#DDA781"/>
<path d="M148.719 364.738C149.46 365.126 150.246 364.985 151.001 364.865C151.774 364.741 152.547 364.738 153.319 364.685C156.029 364.494 158.745 364.427 161.458 364.339C162.664 364.3 163.871 364.117 165.067 363.933C166.122 363.768 167.19 363.768 168.249 363.623C169.685 363.429 171.124 363.161 172.588 363.214C172.972 363.366 173.205 363.665 173.385 364.018C174.045 365.309 174.698 366.604 175.368 367.892C175.858 368.834 176.405 369.744 176.874 370.696C177.7 372.361 178.321 374.097 178.127 375.995C177.781 379.382 176.292 382.056 173.237 383.749C172.115 384.37 170.919 384.649 169.653 384.829C167.501 385.135 165.314 385.132 163.186 385.615C163.091 385.636 162.992 385.651 162.897 385.643C161.341 385.555 159.828 386 158.269 386.003C157.168 386.003 156.071 386.282 154.97 386.437C154.875 386.451 154.78 386.497 154.688 386.494C153.277 386.42 151.901 386.79 150.497 386.85C149.245 386.899 147.999 387.1 146.75 387.242C146.511 387.27 146.274 387.397 146.041 387.379C144.528 387.28 143.06 387.683 141.558 387.735C140.309 387.781 139.063 387.997 137.822 388.176C135.733 388.48 133.758 388.176 131.976 387.026C131.419 386.667 130.935 386.148 130.516 385.622C129.718 384.624 129.291 383.425 128.981 382.204C128.72 381.181 129.094 380.197 129.366 379.216C129.747 377.836 130.688 376.845 131.761 376.013C132.943 375.095 134.192 374.263 135.472 373.476C136.749 372.693 137.935 371.772 139.187 370.947C140.958 369.779 142.764 368.668 144.528 367.486C145.731 366.678 146.881 365.796 148.049 364.939C148.257 364.787 148.461 364.696 148.719 364.748V364.738Z" fill="#F7BC94"/>
<path d="M312.179 328.246C312.295 329.276 312.045 330.278 311.897 331.28C311.195 336.029 310.45 340.774 309.703 345.515C309.307 348.005 308.87 350.489 308.45 352.973C308.418 353.163 308.401 353.361 308.351 353.544C308.094 354.493 307.141 355.054 306.21 354.712C305.445 354.43 304.686 354.098 304.002 353.618C302.612 352.641 301.292 351.6 300.096 350.373C298.333 348.566 296.551 346.781 294.918 344.859C290.014 339.084 286.017 332.751 283.241 325.682C281.727 321.826 280.672 317.854 280.309 313.712C280.02 310.389 280.242 307.115 281.357 303.947C283.653 297.428 289.718 293.649 296.491 294.489C296.032 294.902 295.471 294.701 294.956 294.718C294.484 294.736 294.103 294.884 293.806 295.24C293.591 295.501 293.39 295.773 293.21 296.055C292.222 297.618 292 299.393 291.824 301.178C291.729 302.158 291.983 303.1 292.113 304.053C292.247 305.005 292.321 305.975 292.547 306.907C293.161 309.447 293.983 311.92 295.038 314.319C295.503 315.377 295.994 316.4 296.565 317.413C297.472 319.018 298.519 320.521 299.539 322.048C299.941 322.648 300.4 323.219 300.894 323.748C301.758 324.669 302.626 325.593 303.575 326.419C304.743 327.435 305.984 328.387 307.498 328.846C308.976 329.294 310.447 329.453 311.766 328.363C311.869 328.278 312.041 328.282 312.179 328.246Z" fill="#7A4821"/>
<path d="M312.179 328.246C312.038 328.281 311.865 328.277 311.766 328.362C310.447 329.452 308.976 329.293 307.497 328.845C305.984 328.387 304.742 327.434 303.575 326.418C302.626 325.593 301.758 324.665 300.893 323.748C300.4 323.222 299.941 322.651 299.539 322.047C298.519 320.52 297.472 319.017 296.565 317.412C295.993 316.403 295.503 315.376 295.037 314.318C293.986 311.919 293.161 309.446 292.547 306.906C292.321 305.975 292.247 305.005 292.113 304.052C291.979 303.096 291.725 302.158 291.824 301.177C292 299.392 292.222 297.617 293.21 296.055C293.39 295.769 293.591 295.497 293.806 295.24C294.099 294.883 294.483 294.735 294.956 294.718C295.471 294.7 296.032 294.901 296.491 294.488C296.688 294.488 296.886 294.488 297.087 294.488C297.761 295.014 297.937 295.744 297.944 296.545C297.951 297.663 298.008 298.782 297.934 299.893C297.849 301.219 298.089 302.507 298.318 303.78C298.763 306.25 299.338 308.695 300.237 311.055C301.483 314.332 303.067 317.412 305.197 320.216C306.704 322.203 308.609 323.79 310.316 325.575C310.68 325.956 311.159 326.221 311.561 326.563C311.935 326.88 312.26 327.244 312.302 327.773C312.26 327.928 312.218 328.083 312.179 328.242V328.246Z" fill="#5B3617"/>
<path d="M338.98 294.676C339.459 294.993 339.622 295.526 339.809 296.013C340.521 297.865 341.195 299.731 341.883 301.594C342.553 303.411 343.171 305.249 343.919 307.034C344.36 308.081 344.395 309.097 344.148 310.152C344.056 310.537 344.01 310.911 344.003 311.302C343.993 312.124 344.042 312.943 343.77 313.751C343.65 314.103 343.721 314.52 343.714 314.908C343.696 315.68 343.696 316.442 343.499 317.215C343.336 317.857 343.439 318.566 343.421 319.243C343.4 320.016 343.502 320.795 343.195 321.547C343.125 321.72 343.118 321.935 343.142 322.122C343.277 323.166 342.857 324.016 342.236 324.8C341.724 325.445 341.23 326.098 340.705 326.729C340.426 327.064 340.123 327.396 339.625 327.385C339.1 326.338 338.927 325.181 338.627 324.069C337.41 319.54 336.253 314.992 335.036 310.459C334.813 309.63 334.835 308.854 335.064 308.046C336.168 304.187 337.251 300.32 338.355 296.461C338.528 295.858 338.768 295.276 338.976 294.683L338.98 294.676Z" fill="#F6BA90"/>
</svg>
