<svg width="497" height="497" viewBox="0 0 497 497" fill="none" xmlns="http://www.w3.org/2000/svg">
<path d="M320.625 192.964C321.845 191.664 324.608 192.152 324.283 189.794C323.795 187.518 321.194 189.306 319.65 188.656C312.334 187.356 305.506 184.592 299.246 180.69C293.231 176.3 285.427 170.773 285.996 162.4C286.24 155.491 293.719 152.645 299.653 153.946C304.611 155.084 309.57 156.547 314.203 158.742C314.854 158.986 315.585 159.392 315.829 158.254C297.295 139.558 268.357 132.161 242.67 135.981C227.713 137.932 214.463 145.167 200.806 151.02C193.409 154.271 185.687 156.872 179.021 161.506C175.201 162.481 182.923 168.903 183.573 171.017C185.849 174.593 187.881 178.333 189.995 181.991C197.799 193.29 200.644 207.515 208.285 218.489C216.576 207.19 231.046 186.543 247.141 194.915C253.4 198.98 257.464 205.645 262.585 210.685C266.243 211.579 269.251 214.587 272.828 215.888C281.2 219.546 291.199 222.066 300.141 220.602C303.067 209.466 307.05 194.509 320.625 192.964Z" fill="#FF8AA0"/>
<path d="M208.282 218.489C204.38 214.262 202.917 207.84 200.397 202.638C194.87 188.087 185.765 175.244 177.88 162.156C148.617 180.609 115.614 193.615 88.2195 214.831C76.6766 226.049 74.2379 243.77 71.5554 258.889C81.4726 255.719 91.8775 257.345 101.632 260.352C102.445 259.052 102.526 257.589 102.689 256.125C102.689 255.882 102.689 255.719 103.014 255.8C103.177 252.305 104.396 248.891 105.371 245.558C106.916 243.688 111.549 242.957 113.988 242.713C131.058 236.779 149.348 233.121 167.232 229.951C179.181 227.512 192.187 228.325 203.08 222.228C203.486 221.984 203.974 221.415 204.462 222.147C205.925 221.172 207.225 219.952 208.282 218.489Z" fill="#3D3C3C"/>
<path d="M315.747 158.174C315.503 159.312 314.772 158.905 314.121 158.662C305.667 154.76 287.946 148.257 285.914 162.32C286.239 175.895 302.985 183.698 314.284 187.356C316.966 187.925 319.649 189.063 322.413 188.576C323.551 188.413 323.957 188.657 324.282 189.714C326.152 188.332 327.452 186.218 329.972 186.3C337.451 185.162 345.011 184.43 352.571 184.024C378.745 181.829 405.083 181.504 431.339 181.585C440.85 181.341 450.36 182.073 459.871 181.991C460.684 181.991 461.09 182.316 461.578 182.885C467.106 190.039 471.333 198.086 475.641 205.971C476.291 210.28 482.307 210.767 482.632 205.971C484.989 195.404 476.129 177.114 469.463 168.823C465.805 165.327 460.846 164.352 455.969 164.596C448.328 164.108 440.768 163.051 433.127 162.807C394.028 160.125 354.765 160.287 315.747 158.174Z" fill="#F6BB92"/>
<path d="M300.141 220.601C291.199 221.983 281.282 219.544 272.828 215.886C269.251 214.585 266.162 211.496 262.585 210.684C276.892 242.061 293.8 272.219 307.863 303.759C315.748 318.96 320.625 336.03 330.461 350.093C340.216 356.921 363.058 354.483 374.844 353.182C377.69 352.938 382.973 348.386 378.502 346.516C367.854 340.989 348.507 344.24 340.622 336.193C334.119 325.544 331.355 312.863 327.616 300.995C323.47 289.127 319.487 277.096 315.423 265.228C315.26 264.74 314.772 264.253 315.423 263.846C309.164 260.107 299.002 248.483 308.025 242.711C314.447 238.403 302.173 228.079 300.141 220.601Z" fill="#F6BB92"/>
<path d="M101.552 260.351C91.7972 257.343 81.3923 255.718 71.4751 258.888C69.0365 271.65 67.0043 284.656 63.9153 297.175C60.9889 309.937 60.5825 324.813 53.8355 336.599C47.5764 348.386 34.4076 358.222 35.2205 372.61C35.0579 377.244 42.3739 382.771 45.1377 377.406C48.2266 369.765 54.4046 364.563 61.0702 359.929C65.5411 356.271 71.6377 354.402 74.8079 349.362C77.8156 345.622 72.6131 342.127 72.6944 338.713C80.2542 318.797 85.9444 298.069 94.4797 278.641C96.1054 272.382 99.5196 266.529 101.552 260.351Z" fill="#F6BB92"/>
<path d="M101.551 260.354C99.4375 266.532 96.0234 272.385 94.5602 278.725C99.5188 280.839 104.152 284.415 107.973 288.236C129.27 271.897 151.706 256.29 174.467 241.739C184.546 235.317 196.008 230.846 204.462 222.067C203.974 221.336 203.486 221.905 203.08 222.149C198.203 224.669 193 226.538 187.554 227.026C170.321 228.896 153.25 232.066 136.424 236.212C128.945 238.244 121.06 239.626 113.988 242.633C109.761 246.535 107.079 251.738 103.014 255.802C103.014 256.046 102.933 256.127 102.689 256.127C102.445 257.509 102.445 259.054 101.551 260.354Z" fill="#333333"/>
<path d="M310.218 211.824C315.177 206.866 323.306 210.442 328.102 213.938C328.915 214.507 329.077 215.157 328.671 216.214C326.639 220.603 327.858 232.146 334.767 227.432C336.474 226.619 335.499 224.099 336.8 223.367C339.157 223.042 338.344 226.375 340.945 225.725C349.155 226.456 358.504 229.545 363.056 236.78C364.356 238.568 364.112 236.617 365.25 236.13C366.795 221.904 358.341 223.53 357.528 214.019C357.691 211.174 357.528 208.41 357.853 205.565C358.504 203.045 355.74 203.126 354.033 202.557C352.895 202.395 352.407 201.745 352.326 200.688C345.497 200.281 343.546 200.2 350.131 195.242C349.237 182.967 334.036 189.714 327.858 194.185C326.72 195.648 325.5 195.242 324.119 194.591C315.096 189.145 306.316 201.013 303.715 208.735C306.073 209.223 307.861 211.337 310.218 211.824Z" fill="#F6BB92"/>
<path d="M58.8759 323.271C60.7456 314.736 62.6152 305.55 63.9971 297.178C56.0308 303.356 47.9833 309.452 40.2609 315.955C30.994 323.759 19.5324 329.856 12.8667 340.179C9.29006 345.951 17.0124 352.21 22.6213 350.015C26.5232 348.471 52.8606 338.228 43.1873 333.188C48.471 329.856 53.5109 326.36 58.8759 323.271ZM41.968 333.107C45.9511 333.351 29.2057 343.349 28.7179 341.886C28.3115 341.073 29.6122 340.504 30.1812 340.261C34.4082 338.228 38.31 335.708 41.968 333.107Z" fill="#ECAD83"/>
<path d="M107.974 288.233C104.153 284.413 99.4384 280.836 94.5611 278.723C90.4154 287.258 87.5703 296.443 84.5626 305.466C92.6102 300.101 100.983 294.98 107.974 288.233Z" fill="#ECAD83"/>
<path d="M350.051 195.323C343.466 200.363 345.499 200.363 352.246 200.769C354.034 199.062 351.514 198.412 352.083 196.705C352.408 195.567 351.676 195.079 350.051 195.323Z" fill="#CC785E"/>
<path d="M262.583 210.685C262.583 210.36 262.502 210.116 262.177 210.035C262.177 210.279 262.258 210.523 262.583 210.685Z" fill="#ECBF99"/>
<path d="M103.015 255.719C107.08 251.736 109.681 246.453 113.989 242.551C111.551 242.876 106.998 243.608 105.373 245.396C104.316 248.81 103.097 252.305 103.015 255.719Z" fill="#F7F7F7"/>
<path d="M102.608 256.126C102.852 256.126 103.014 256.045 102.933 255.801C102.689 255.638 102.689 255.882 102.608 256.126Z" fill="#CD997C"/>
<path d="M41.9689 333.105C38.2297 335.788 34.3278 338.227 30.1821 340.178C29.6131 340.503 28.3125 340.99 28.7189 341.803C31.4014 342.128 35.7097 338.714 38.1484 337.089C38.9612 336.194 44.4889 334.162 41.9689 333.105Z" fill="#CD997C"/>
<path d="M307.943 242.632C294.287 251.98 321.681 272.059 332.167 268.726C334.849 268.075 337.207 266.775 338.02 263.848C338.182 263.442 338.182 263.117 338.751 263.117C350.782 262.385 363.788 254.663 365.332 242.226C365.658 239.381 366.552 237.918 365.332 236.21C364.601 235.235 363.707 234.585 362.162 232.959C356.472 226.862 349.237 226.456 341.027 225.806C338.345 226.456 339.158 223.123 336.882 223.448C335.5 224.18 336.556 226.7 334.849 227.513C327.94 232.227 326.721 220.684 328.753 216.295C329.159 215.238 328.997 214.588 328.184 214.019C323.388 210.605 315.259 207.028 310.3 211.905C310.869 213.368 309.975 214.588 309.569 215.726C307.211 221.335 306.317 227.431 306.642 233.528C306.724 236.373 307.049 239.137 308.593 241.657C308.837 242.145 308.756 242.632 307.943 242.632Z" fill="#602F0F"/>
<path d="M334.768 260.839C337.288 256.856 333.63 250.353 326.477 246.208C320.299 242.55 313.633 241.981 310.381 244.501C313.227 241.249 320.542 241.655 327.208 245.557C334.28 249.703 338.019 256.206 335.5 260.189C335.174 260.596 334.849 261.002 334.443 261.246C334.524 261.083 334.605 261.002 334.768 260.839Z" fill="#4C230C"/>
<path d="M322.574 266.774C322.98 266.286 320.785 264.091 317.615 262.303C314.526 260.433 311.6 259.295 311.193 260.027C310.787 260.515 312.656 262.222 315.908 264.173C318.997 265.798 322.086 267.343 322.574 266.774Z" fill="#4C230C"/>
</svg>
