<svg width="500" height="500" viewBox="0 0 500 500" fill="none" xmlns="http://www.w3.org/2000/svg">
<path d="M97.5392 364.976C106.006 358.626 114.388 352.233 122.135 345.037C122.516 344.698 122.855 344.148 123.49 344.571C123.448 343.428 124.252 342.708 124.887 341.904C130.771 334.072 137.291 326.664 143.429 319.044C144.784 317.393 145.842 315.36 148.001 314.514C149.864 310.873 151.981 307.402 154.097 303.93C156.807 299.443 161.421 297.115 165.316 294.024C182.334 280.477 199.522 267.184 216.455 253.51C217.81 252.41 219.546 251.732 220.52 250.208C218.487 241.826 215.905 233.571 213.153 225.401C211.333 219.982 210.063 214.394 208.412 208.933C208.073 208.679 207.735 208.763 207.396 208.933C202.993 210.922 198.252 211.896 193.68 213.251C187.88 214.987 182.377 217.484 176.704 219.474C163.792 224.004 151.388 229.676 138.984 235.392C133.354 238.016 127.85 240.98 123.321 245.34C118.325 250.208 115.954 256.178 115.319 263.12C114.515 271.672 115.404 280.139 116.166 288.648C116.716 294.998 118.071 301.263 118.283 307.656C119.807 306.386 120.992 304.777 122.305 303.295C128.824 296.014 134.708 288.224 140.847 280.604C142.244 278.869 143.937 277.387 144.869 275.312C144.572 274.127 144.318 272.984 143.98 271.799C143.81 271.121 143.726 270.613 144.615 270.486C146.393 270.232 148.044 269.343 149.906 269.513C154.817 265.364 158.754 260.326 163.115 255.67C169.338 248.981 175.264 242.038 181.784 235.646C182.165 235.265 182.631 234.968 183.096 234.672C183.52 234.418 183.985 234.249 184.451 234.672C184.832 235.053 184.874 235.603 184.705 236.027C184.536 236.45 184.197 236.831 183.901 237.212C179.879 241.615 175.899 246.06 171.793 250.378C164.596 257.956 157.4 265.576 150.541 273.492C145.842 278.911 141.143 284.33 136.571 289.833C130.856 296.776 125.226 303.803 119.638 310.831C119.045 311.593 118.579 311.423 117.944 311.169C117.013 313.159 115.277 314.471 113.838 315.995C103.932 326.875 93.9832 337.671 84.077 348.508C83.569 349.058 82.9763 349.482 82.8916 350.328C83.315 350.752 83.823 351.09 84.204 351.556C88.2681 356.297 93.3905 360.15 97.5392 364.976Z" fill="#696D66"/>
<path d="M272.253 242.715C272.719 250.505 273.946 258.167 275.005 265.872C275.724 271.333 276.444 276.837 277.037 282.34C278.307 294.109 281.101 305.454 285.546 316.419C287.408 320.991 289.864 325.267 291.769 329.796C293.293 333.437 294.14 337.332 295.579 341.015C298.077 347.534 300.871 353.969 303.411 360.489C305.824 366.669 308.025 372.935 310.354 379.158C311.031 380.894 310.65 382.756 311.073 384.577C311.793 387.667 312.513 388.344 315.603 388.387C320.852 388.387 326.102 388.387 331.351 388.471C337.659 388.556 343.924 388.683 350.232 388.768C352.603 388.81 353.153 388.217 353.196 385.889C353.196 384.323 353.238 382.714 353.196 381.148C353.153 378.227 352.053 376.745 349.258 375.983C345.152 374.882 341.046 373.782 336.897 372.723C335.077 372.258 333.426 371.284 331.478 371.072C330.759 370.987 330.547 370.183 330.208 369.633C324.493 360.531 320.895 350.667 318.82 340.168C317 331.109 314.164 322.261 312.005 313.286C310.015 304.989 308.66 296.607 307.432 288.182C305.824 277.133 304.723 265.999 303.114 254.908C302.606 251.352 302.522 247.753 302.352 244.155C302.268 242.038 302.056 239.921 301.675 237.805C293.208 239.032 284.784 240.218 276.359 241.572C274.962 241.784 273.354 241.488 272.253 242.715Z" fill="#F7BB92"/>
<path d="M306.67 203.853C312.046 201.102 317.38 198.308 322.757 195.556C331.605 191.026 340.537 186.623 349.258 181.882C363.736 173.966 379.442 169.69 395.36 166.049C399.551 165.075 403.657 163.678 407.848 162.62C410.219 162.027 412.632 161.646 415.045 161.392C418.22 161.096 421.099 160.122 423.681 158.26C426.56 156.228 429.439 154.196 432.402 152.206C435.281 150.301 434.646 147.38 434.434 144.713C434.222 142.046 433.46 139.463 432.36 137.008C431.725 135.611 430.793 134.976 429.312 135.357C423.215 136.796 417.119 138.278 411.023 139.76C409.753 140.056 408.526 140.606 407.679 141.538C404.673 144.882 400.524 145.729 396.418 146.618C383.549 149.412 370.552 151.74 357.936 155.847C345.363 159.953 332.959 164.44 320.937 170.028C307.559 176.252 294.181 182.432 280.592 188.19C280.508 188.232 280.423 188.359 280.338 188.444C281.947 188.571 283.048 189.756 284.318 190.518C291.811 194.921 299.516 198.9 306.67 203.853Z" fill="#F7BB92"/>
<path d="M306.67 203.854C299.515 198.9 291.811 194.921 284.36 190.518C283.09 189.756 281.989 188.571 280.38 188.444C277.163 188.783 273.988 187.978 270.728 188.063C264.759 188.19 259.34 189.672 254.557 193.355C253.287 194.328 251.72 194.328 250.239 194.709C248.249 195.217 246.259 195.768 244.227 196.233C243.508 196.403 243.042 196.784 242.619 197.334C242.576 199.959 242.534 202.583 242.576 205.208C242.661 218.205 242.788 231.159 243.635 244.113C253.16 243.69 262.727 243.901 272.252 242.716C273.395 241.531 275.004 241.785 276.359 241.573C284.783 240.218 293.25 239.033 301.674 237.805C301.759 234.376 301.801 230.99 301.886 227.561C301.463 227.137 301.124 226.672 300.531 226.375C294.605 223.497 289.228 219.729 283.513 216.469C281.523 215.326 279.661 214.056 277.629 212.744C277.967 212.49 278.094 212.32 278.221 212.278C282.963 211.262 287.662 210.204 292.446 209.315C295.79 208.722 299.05 207.156 302.563 207.875C303.664 207.029 304.723 206.224 305.823 205.42C306.416 205.039 306.839 204.616 306.67 203.854Z" fill="#8A8AD9"/>
<path d="M320.343 229.805C320.513 237.171 323.222 243.309 329.361 247.67C330.038 248.135 330.715 248.474 329.996 249.49C325.551 255.755 323.942 262.995 322.968 270.403C322.883 271.165 322.799 271.969 322.629 273.155C324.45 271.885 326.059 270.911 327.456 269.726C336.43 262.317 346.591 257.491 358.021 255.247C362.55 254.358 366.53 252.242 369.112 248.135C371.864 243.733 373.007 237.213 368.181 232.683C367.588 232.133 367.673 231.54 367.8 230.863C368.985 222.82 365.852 216.723 359.206 212.278C357.301 211.008 355.396 209.611 353.237 208.765C352.983 209.315 352.729 209.865 352.475 210.416C349.977 215.834 347.437 221.253 344.982 226.672C344.474 227.815 344.008 228.196 342.907 227.307C340.918 225.698 338.801 224.259 336.769 222.693C333.933 220.491 333.594 220.533 330.588 222.693C327.202 225.19 323.857 227.646 320.343 229.805ZM344.389 253.554C340.113 253.342 336.219 252.369 332.79 249.956C332.197 249.532 331.181 249.067 331.477 248.432C331.858 247.67 332.874 248.093 333.594 248.347C334.102 248.516 334.61 248.728 335.118 248.94C340.494 251.056 345.829 250.802 351.036 248.432C357.767 245.384 362.127 240.176 364.582 233.234C364.836 232.472 365.006 231.286 366.191 231.794C367.207 232.218 367.842 233.149 367.377 234.334C366.107 237.679 364.794 241.023 362.635 243.944C358.063 250.125 351.798 253.088 344.389 253.554Z" fill="#7B4821"/>
<path d="M243.635 244.113C242.788 231.159 242.661 218.162 242.576 205.208C242.576 202.583 242.619 199.959 242.619 197.334C241.222 196.657 239.825 196.995 238.343 197.122C227.971 197.927 219.039 202.499 210.318 207.748C209.683 208.129 209.048 208.468 208.413 208.807C210.022 214.268 211.334 219.856 213.154 225.275C215.906 233.445 218.446 241.7 220.52 250.082C226.447 247.881 232.543 246.399 238.597 244.621C240.248 244.155 242.026 244.833 243.635 244.113Z" fill="#F6BA92"/>
<path d="M320.343 229.804C323.857 227.645 327.201 225.189 330.546 222.776C333.551 220.617 333.89 220.575 336.726 222.776C338.758 224.343 340.875 225.782 342.865 227.391C344.008 228.322 344.431 227.899 344.939 226.756C347.395 221.337 349.935 215.918 352.432 210.499C352.686 209.949 352.94 209.399 353.194 208.848C351.967 207.705 350.316 207.621 348.834 207.197C345.532 206.224 343.627 203.726 341.764 201.144C340.748 199.704 339.563 198.392 338.293 197.164C336.345 195.344 334.737 195.598 333.509 197.969C333.128 198.731 332.705 199.493 332.197 200.128C331.181 201.398 329.868 201.821 328.302 201.525C326.736 201.228 325.169 200.974 323.645 200.72C321.528 200.339 320.216 201.059 319.581 203.133C319.073 204.869 318.734 206.689 318.438 208.467C318.142 210.203 317.168 211.092 315.39 210.796C311.284 210.076 307.135 209.272 303.029 208.467C302.859 208.425 302.732 208.129 302.563 207.917C299.007 207.197 295.789 208.764 292.445 209.356C287.661 210.203 282.962 211.304 278.221 212.32C278.051 212.362 277.967 212.532 277.628 212.786C279.66 214.056 281.523 215.368 283.513 216.511C289.228 219.771 294.604 223.538 300.531 226.417C301.124 226.713 301.462 227.137 301.886 227.602C305.103 226.84 308.278 227.602 311.411 228.195C314.374 228.661 317.337 229.253 320.343 229.804Z" fill="#F6BA92"/>
<path d="M125.099 351.048C125.099 353.038 123.914 354.604 123.236 356.34C121.077 362.013 117.987 367.177 114.473 372.088C114.05 372.681 113.626 373.273 113.288 373.908C111.383 377.168 112.272 379.878 115.87 380.555C120.611 381.444 125.268 381.825 129.629 378.565C133.82 375.39 138.392 372.638 141.99 368.701C144.065 366.458 145.885 364.002 147.578 361.505C149.441 358.753 148.679 355.959 147.155 353.292C146.689 352.487 145.843 351.81 145.885 350.752C141.143 350.582 136.402 351.048 131.661 351.09C129.459 351.048 127.258 351.048 125.099 351.048Z" fill="#F7BB93"/>
<path d="M97.5397 364.976C93.3909 360.193 88.2685 356.34 84.1621 351.472C83.7811 351.006 83.2731 350.667 82.8498 350.244C80.4367 351.683 78.9127 354.054 77.177 356.086C72.3086 361.886 69.3029 368.786 65.8315 375.391C64.7308 377.465 65.7469 379.243 67.1015 380.682C68.4986 382.206 70.1072 383.519 71.6313 384.958C72.2663 385.551 72.8166 385.297 73.4516 385.085C76.7537 383.942 79.3784 381.741 82.0031 379.582C86.7445 375.602 91.4859 371.58 96.185 367.559C96.9893 366.881 97.7937 366.204 97.5397 364.976Z" fill="#F7BB92"/>
<path d="M125.099 351.05C127.3 351.05 129.459 351.05 131.661 351.05C136.402 351.007 141.144 350.542 145.885 350.711C146.901 347.747 147.113 344.657 147.07 341.567C146.986 334.963 147.748 328.316 147.367 321.712C147.324 320.738 147.324 319.765 147.282 318.791C146.435 319.214 146.266 320.188 145.631 320.865C143.768 322.855 141.948 324.887 140.255 327.046C135.894 332.507 131.661 338.011 127.258 343.472C126.454 344.488 125.692 345.673 124.252 346.012C124.337 347.197 124.379 348.382 124.464 349.568C124.506 350.076 124.379 350.711 125.099 351.05Z" fill="#6A6E67"/>
<path d="M144.826 275.144C143.894 277.219 142.159 278.7 140.804 280.436C134.708 288.056 128.781 295.846 122.262 303.127C120.949 304.609 119.764 306.217 118.24 307.488C117.817 308.631 117.817 309.858 117.859 311.086C118.494 311.34 118.96 311.509 119.552 310.747C125.14 303.72 130.771 296.692 136.486 289.75C141.058 284.204 145.799 278.827 150.456 273.409C157.272 265.492 164.469 257.872 171.708 250.294C175.814 245.976 179.794 241.531 183.815 237.128C184.154 236.79 184.493 236.409 184.62 235.943C184.789 235.477 184.789 234.969 184.366 234.588C183.942 234.165 183.477 234.292 183.011 234.588C182.545 234.885 182.08 235.181 181.699 235.562C175.179 241.997 169.253 248.94 163.029 255.586C158.669 260.243 154.69 265.281 149.821 269.429C149.44 270.826 148.213 271.631 147.408 272.689C146.731 273.578 146.223 274.848 144.826 275.144Z" fill="#363934"/>
<path d="M124.253 345.969C125.693 345.672 126.455 344.445 127.259 343.428C131.619 338.01 135.895 332.464 140.255 327.003C141.949 324.886 143.769 322.812 145.632 320.822C146.267 320.187 146.436 319.213 147.283 318.748C147.537 317.308 147.791 315.869 148.045 314.43C145.886 315.276 144.828 317.308 143.473 318.959C137.292 326.58 130.815 333.946 124.931 341.82C124.338 342.624 123.491 343.344 123.534 344.487C123.491 345.122 123.618 345.672 124.253 345.969Z" fill="#363934"/>
<path d="M144.827 275.144C146.224 274.848 146.732 273.578 147.494 272.646C148.341 271.588 149.526 270.784 149.907 269.387C148.045 269.217 146.394 270.106 144.615 270.36C143.726 270.487 143.811 270.995 143.98 271.673C144.277 272.816 144.531 274.001 144.827 275.144Z" fill="#EFF0EF"/>
<path d="M344.389 253.554C351.798 253.088 358.021 250.083 362.635 243.902C364.794 240.981 366.064 237.636 367.377 234.292C367.843 233.107 367.207 232.175 366.191 231.752C365.006 231.286 364.837 232.472 364.583 233.191C362.127 240.092 357.809 245.341 351.036 248.389C345.829 250.76 340.495 251.014 335.118 248.897C334.61 248.686 334.102 248.474 333.594 248.305C332.875 248.051 331.859 247.627 331.478 248.389C331.181 249.024 332.197 249.49 332.79 249.913C336.261 252.369 340.156 253.342 344.389 253.554Z" fill="#5D3614"/>
</svg>
