<svg width="500" height="500" viewBox="0 0 500 500" fill="none" xmlns="http://www.w3.org/2000/svg">
<path d="M97.5392 352.976C106.006 346.626 114.388 340.233 122.135 333.037C122.516 332.698 122.855 332.148 123.49 332.571C123.448 331.428 124.252 330.708 124.887 329.904C130.771 322.072 137.291 314.664 143.429 307.044C144.784 305.393 145.842 303.36 148.001 302.514C149.864 298.873 151.981 295.402 154.097 291.93C156.807 287.443 161.421 285.115 165.316 282.024C182.334 268.477 199.522 255.184 216.455 241.51C217.81 240.41 219.546 239.732 220.52 238.208C218.487 229.826 215.905 221.571 213.153 213.401C211.333 207.982 210.063 202.394 208.412 196.933C208.073 196.679 207.735 196.763 207.396 196.933C202.993 198.922 198.252 199.896 193.68 201.251C187.88 202.987 182.377 205.484 176.704 207.474C163.792 212.004 151.388 217.676 138.984 223.392C133.354 226.016 127.85 228.98 123.321 233.34C118.325 238.208 115.954 244.178 115.319 251.12C114.515 259.672 115.404 268.139 116.166 276.648C116.717 282.998 118.071 289.263 118.283 295.656C119.807 294.386 120.992 292.777 122.305 291.295C128.824 284.014 134.708 276.224 140.847 268.604C142.244 266.869 143.937 265.387 144.869 263.312C144.572 262.127 144.318 260.984 143.98 259.799C143.81 259.121 143.726 258.613 144.615 258.486C146.393 258.232 148.044 257.343 149.906 257.513C154.817 253.364 158.754 248.326 163.115 243.67C169.338 236.981 175.264 230.038 181.784 223.646C182.165 223.265 182.631 222.968 183.096 222.672C183.52 222.418 183.985 222.249 184.451 222.672C184.832 223.053 184.874 223.603 184.705 224.027C184.536 224.45 184.197 224.831 183.901 225.212C179.879 229.615 175.899 234.06 171.793 238.378C164.596 245.956 157.4 253.576 150.541 261.492C145.842 266.911 141.143 272.33 136.571 277.833C130.856 284.776 125.226 291.803 119.638 298.831C119.045 299.593 118.579 299.423 117.944 299.169C117.013 301.159 115.277 302.471 113.838 303.996C103.932 314.875 93.9832 325.671 84.077 336.508C83.569 337.058 82.9763 337.482 82.8916 338.328C83.315 338.752 83.823 339.09 84.204 339.556C88.268 344.297 93.3905 348.15 97.5392 352.976Z" fill="#696D66"/>
<path d="M272.253 230.715C272.719 238.505 273.947 246.167 275.005 253.872C275.725 259.333 276.444 264.837 277.037 270.34C278.307 282.109 281.101 293.454 285.546 304.419C287.409 308.991 289.864 313.267 291.769 317.796C293.293 321.437 294.14 325.332 295.579 329.015C298.077 335.534 300.871 341.969 303.411 348.489C305.824 354.669 308.026 360.935 310.354 367.158C311.031 368.894 310.65 370.756 311.074 372.577C311.793 375.667 312.513 376.344 315.603 376.387C320.853 376.387 326.102 376.387 331.352 376.471C337.659 376.556 343.925 376.683 350.233 376.768C352.603 376.81 353.154 376.217 353.196 373.889C353.196 372.323 353.238 370.714 353.196 369.148C353.154 366.227 352.053 364.745 349.259 363.983C345.153 362.882 341.046 361.782 336.897 360.723C335.077 360.258 333.426 359.284 331.479 359.072C330.759 358.987 330.547 358.183 330.209 357.633C324.494 348.531 320.895 338.667 318.821 328.168C317 319.109 314.164 310.261 312.005 301.286C310.015 292.989 308.661 284.607 307.433 276.182C305.824 265.133 304.724 253.999 303.115 242.908C302.607 239.352 302.522 235.753 302.353 232.155C302.268 230.038 302.057 227.921 301.676 225.805C293.209 227.032 284.784 228.218 276.36 229.572C274.963 229.784 273.354 229.488 272.253 230.715Z" fill="#F7BB92"/>
<path d="M306.67 191.853C312.046 189.102 317.38 186.308 322.757 183.556C331.605 179.026 340.537 174.623 349.258 169.882C363.736 161.966 379.442 157.69 395.36 154.049C399.551 153.075 403.657 151.678 407.848 150.62C410.219 150.027 412.632 149.646 415.045 149.392C418.22 149.096 421.099 148.122 423.681 146.26C426.56 144.228 429.439 142.196 432.402 140.206C435.281 138.301 434.646 135.38 434.434 132.713C434.222 130.046 433.46 127.463 432.36 125.008C431.725 123.611 430.793 122.976 429.312 123.357C423.215 124.796 417.119 126.278 411.023 127.76C409.753 128.056 408.526 128.606 407.679 129.538C404.673 132.882 400.524 133.729 396.418 134.618C383.549 137.412 370.552 139.74 357.936 143.847C345.363 147.953 332.959 152.44 320.937 158.028C307.559 164.252 294.181 170.432 280.592 176.19C280.508 176.232 280.423 176.359 280.338 176.444C281.947 176.571 283.048 177.756 284.318 178.518C291.811 182.921 299.516 186.9 306.67 191.853Z" fill="#F7BB92"/>
<path d="M306.669 191.854C299.515 186.9 291.81 182.921 284.359 178.518C283.089 177.756 281.989 176.571 280.38 176.444C277.163 176.783 273.988 175.978 270.728 176.063C264.759 176.19 259.34 177.672 254.556 181.355C253.286 182.328 251.72 182.328 250.238 182.709C248.248 183.217 246.259 183.768 244.227 184.233C243.507 184.403 243.041 184.784 242.618 185.334C242.576 187.959 242.533 190.583 242.576 193.208C242.66 206.205 242.787 219.159 243.634 232.113C253.159 231.69 262.727 231.901 272.252 230.716C273.395 229.531 275.004 229.785 276.358 229.573C284.783 228.218 293.25 227.033 301.674 225.805C301.759 222.376 301.801 218.99 301.886 215.561C301.462 215.137 301.124 214.672 300.531 214.375C294.604 211.497 289.228 207.729 283.513 204.469C281.523 203.326 279.66 202.056 277.628 200.744C277.967 200.49 278.094 200.32 278.221 200.278C282.962 199.262 287.661 198.204 292.445 197.315C295.79 196.722 299.049 195.156 302.563 195.875C303.664 195.029 304.722 194.224 305.823 193.42C306.415 193.039 306.839 192.616 306.669 191.854Z" fill="#8A8AD9"/>
<path d="M320.343 217.805C320.512 225.171 323.222 231.309 329.36 235.67C330.037 236.135 330.715 236.474 329.995 237.49C325.55 243.755 323.941 250.995 322.968 258.403C322.883 259.165 322.798 259.969 322.629 261.155C324.449 259.885 326.058 258.911 327.455 257.726C336.43 250.317 346.59 245.491 358.02 243.247C362.55 242.358 366.529 240.242 369.112 236.135C371.863 231.733 373.006 225.213 368.18 220.683C367.588 220.133 367.672 219.54 367.799 218.863C368.985 210.82 365.852 204.723 359.206 200.278C357.301 199.008 355.396 197.611 353.236 196.765C352.982 197.315 352.728 197.865 352.474 198.416C349.977 203.834 347.437 209.253 344.981 214.672C344.473 215.815 344.008 216.196 342.907 215.307C340.917 213.698 338.801 212.259 336.769 210.693C333.932 208.491 333.593 208.533 330.588 210.693C327.201 213.19 323.857 215.646 320.343 217.805ZM344.389 241.554C340.113 241.342 336.218 240.369 332.789 237.956C332.196 237.532 331.18 237.067 331.477 236.432C331.858 235.67 332.874 236.093 333.593 236.347C334.101 236.516 334.61 236.728 335.118 236.94C340.494 239.056 345.828 238.802 351.035 236.432C357.766 233.384 362.127 228.176 364.582 221.234C364.836 220.472 365.005 219.286 366.191 219.794C367.207 220.218 367.842 221.149 367.376 222.334C366.106 225.679 364.794 229.023 362.635 231.944C358.063 238.125 351.797 241.088 344.389 241.554Z" fill="#7B4821"/>
<path d="M243.635 232.113C242.788 219.159 242.661 206.162 242.576 193.208C242.576 190.583 242.619 187.959 242.619 185.334C241.222 184.657 239.825 184.995 238.343 185.122C227.971 185.927 219.039 190.499 210.318 195.748C209.683 196.129 209.048 196.468 208.413 196.807C210.022 202.268 211.334 207.856 213.154 213.275C215.906 221.445 218.446 229.7 220.52 238.082C226.447 235.881 232.543 234.399 238.597 232.621C240.248 232.155 242.026 232.833 243.635 232.113Z" fill="#F6BA92"/>
<path d="M320.343 217.804C323.857 215.645 327.201 213.189 330.546 210.776C333.551 208.617 333.89 208.575 336.726 210.776C338.758 212.343 340.875 213.782 342.865 215.391C344.008 216.322 344.431 215.899 344.939 214.756C347.395 209.337 349.935 203.918 352.432 198.499C352.686 197.949 352.94 197.399 353.194 196.848C351.967 195.705 350.316 195.621 348.834 195.197C345.532 194.224 343.627 191.726 341.764 189.144C340.748 187.704 339.563 186.392 338.293 185.164C336.345 183.344 334.737 183.598 333.509 185.969C333.128 186.731 332.705 187.493 332.197 188.128C331.181 189.398 329.868 189.821 328.302 189.525C326.736 189.228 325.169 188.974 323.645 188.72C321.528 188.339 320.216 189.059 319.581 191.133C319.073 192.869 318.734 194.689 318.438 196.467C318.142 198.203 317.168 199.092 315.39 198.796C311.284 198.076 307.135 197.272 303.029 196.467C302.859 196.425 302.732 196.129 302.563 195.917C299.007 195.197 295.789 196.764 292.445 197.356C287.661 198.203 282.962 199.304 278.221 200.32C278.051 200.362 277.967 200.532 277.628 200.786C279.66 202.056 281.523 203.368 283.513 204.511C289.228 207.771 294.604 211.538 300.531 214.417C301.124 214.713 301.462 215.137 301.886 215.602C305.103 214.84 308.278 215.602 311.411 216.195C314.374 216.661 317.337 217.253 320.343 217.804Z" fill="#F6BA92"/>
<path d="M125.098 339.048C125.098 341.038 123.913 342.604 123.236 344.34C121.077 350.013 117.986 355.177 114.473 360.088C114.049 360.681 113.626 361.273 113.287 361.908C111.382 365.168 112.271 367.878 115.87 368.555C120.611 369.444 125.268 369.825 129.628 366.565C133.819 363.39 138.391 360.638 141.99 356.701C144.064 354.458 145.884 352.002 147.578 349.505C149.44 346.753 148.678 343.959 147.154 341.292C146.689 340.487 145.842 339.81 145.884 338.752C141.143 338.582 136.402 339.048 131.66 339.09C129.459 339.048 127.257 339.048 125.098 339.048Z" fill="#F7BB93"/>
<path d="M97.5402 352.976C93.3914 348.193 88.269 344.34 84.1626 339.472C83.7816 339.006 83.2736 338.667 82.8503 338.244C80.4372 339.683 78.9132 342.054 77.1775 344.086C72.3091 349.886 69.3034 356.786 65.832 363.391C64.7313 365.465 65.7473 367.243 67.102 368.682C68.4991 370.206 70.1077 371.519 71.6318 372.958C72.2668 373.551 72.8171 373.297 73.4521 373.085C76.7542 371.942 79.3789 369.741 82.0036 367.582C86.745 363.602 91.4864 359.58 96.1855 355.559C96.9898 354.881 97.7942 354.204 97.5402 352.976Z" fill="#F7BB92"/>
<path d="M125.1 339.05C127.301 339.05 129.46 339.05 131.661 339.05C136.403 339.007 141.144 338.542 145.886 338.711C146.902 335.747 147.113 332.657 147.071 329.567C146.986 322.963 147.748 316.316 147.367 309.712C147.325 308.738 147.325 307.765 147.283 306.791C146.436 307.214 146.267 308.188 145.632 308.865C143.769 310.855 141.948 312.887 140.255 315.046C135.895 320.507 131.661 326.011 127.259 331.472C126.454 332.488 125.692 333.673 124.253 334.012C124.338 335.197 124.38 336.382 124.465 337.568C124.507 338.076 124.38 338.711 125.1 339.05Z" fill="#6A6E67"/>
<path d="M144.826 263.144C143.894 265.219 142.159 266.7 140.804 268.436C134.708 276.056 128.781 283.846 122.262 291.127C120.949 292.609 119.764 294.217 118.24 295.488C117.817 296.631 117.817 297.858 117.859 299.086C118.494 299.34 118.96 299.509 119.552 298.747C125.14 291.72 130.771 284.692 136.486 277.75C141.058 272.204 145.8 266.827 150.456 261.409C157.272 253.492 164.469 245.872 171.708 238.294C175.814 233.976 179.794 229.531 183.815 225.128C184.154 224.79 184.493 224.409 184.62 223.943C184.789 223.477 184.789 222.969 184.366 222.588C183.942 222.165 183.477 222.292 183.011 222.588C182.545 222.885 182.08 223.181 181.699 223.562C175.179 229.997 169.253 236.94 163.029 243.586C158.669 248.243 154.69 253.281 149.821 257.429C149.44 258.826 148.213 259.631 147.408 260.689C146.731 261.578 146.223 262.848 144.826 263.144Z" fill="#363934"/>
<path d="M124.253 333.969C125.693 333.672 126.455 332.445 127.259 331.428C131.619 326.01 135.895 320.464 140.255 315.003C141.949 312.886 143.769 310.812 145.632 308.822C146.267 308.187 146.436 307.213 147.283 306.748C147.537 305.308 147.791 303.869 148.045 302.43C145.886 303.276 144.828 305.308 143.473 306.959C137.292 314.58 130.815 321.946 124.931 329.82C124.338 330.624 123.491 331.344 123.534 332.487C123.491 333.122 123.618 333.672 124.253 333.969Z" fill="#363934"/>
<path d="M144.827 263.144C146.224 262.848 146.732 261.578 147.494 260.646C148.341 259.588 149.526 258.784 149.907 257.387C148.045 257.217 146.394 258.106 144.615 258.36C143.726 258.487 143.811 258.995 143.98 259.673C144.277 260.816 144.531 262.001 144.827 263.144Z" fill="#EFF0EF"/>
<path d="M344.389 241.554C351.798 241.088 358.021 238.083 362.635 231.902C364.794 228.981 366.064 225.636 367.377 222.292C367.843 221.107 367.207 220.175 366.191 219.752C365.006 219.286 364.837 220.472 364.583 221.191C362.127 228.092 357.809 233.341 351.036 236.389C345.829 238.76 340.495 239.014 335.118 236.897C334.61 236.686 334.102 236.474 333.594 236.305C332.875 236.051 331.859 235.627 331.478 236.389C331.181 237.024 332.197 237.49 332.79 237.913C336.261 240.369 340.156 241.342 344.389 241.554Z" fill="#5D3614"/>
</svg>
