<svg width="500" height="500" viewBox="0 0 500 500" fill="none" xmlns="http://www.w3.org/2000/svg">
<path d="M80.4016 376.55C89.8201 369.486 99.1444 362.375 107.762 354.369C108.186 353.993 108.563 353.381 109.269 353.851C109.222 352.58 110.117 351.779 110.823 350.885C117.369 342.173 124.621 333.931 131.45 325.455C132.957 323.618 134.134 321.358 136.536 320.416C138.608 316.366 140.962 312.504 143.317 308.643C146.331 303.651 151.464 301.061 155.797 297.623C174.728 282.554 193.847 267.767 212.684 252.556C214.191 251.331 216.122 250.578 217.205 248.882C214.945 239.558 212.072 230.375 209.011 221.286C206.986 215.259 205.573 209.042 203.737 202.967C203.36 202.685 202.983 202.779 202.606 202.967C197.709 205.181 192.434 206.264 187.348 207.771C180.897 209.702 174.775 212.48 168.464 214.693C154.101 219.732 140.303 226.043 126.505 232.4C120.242 235.32 114.12 238.616 109.081 243.467C103.524 248.882 100.887 255.523 100.18 263.246C99.2857 272.758 100.275 282.177 101.122 291.642C101.734 298.706 103.241 305.676 103.477 312.787C105.172 311.374 106.491 309.585 107.951 307.936C115.203 299.836 121.749 291.171 128.577 282.695C130.131 280.764 132.015 279.116 133.051 276.808C132.721 275.49 132.439 274.218 132.062 272.9C131.874 272.146 131.779 271.581 132.768 271.44C134.746 271.157 136.583 270.168 138.655 270.357C144.118 265.742 148.497 260.138 153.348 254.957C160.27 247.517 166.863 239.794 174.116 232.683C174.539 232.259 175.057 231.929 175.575 231.6C176.046 231.317 176.564 231.129 177.082 231.6C177.506 232.023 177.553 232.636 177.365 233.107C177.177 233.577 176.8 234.001 176.47 234.425C171.996 239.323 167.57 244.267 163.002 249.071C154.996 257.5 146.99 265.977 139.361 274.783C134.134 280.811 128.907 286.839 123.821 292.961C117.463 300.684 111.2 308.501 104.984 316.319C104.325 317.166 103.807 316.978 103.1 316.696C102.064 318.909 100.133 320.369 98.5322 322.064C87.5126 334.167 76.4459 346.175 65.4263 358.231C64.8612 358.843 64.2019 359.314 64.1077 360.256C64.5786 360.727 65.1437 361.104 65.5675 361.622C70.0884 366.896 75.7866 371.181 80.4016 376.55Z" fill="#696D66"/>
<path d="M274.754 240.547C275.272 249.212 276.638 257.735 277.815 266.306C278.615 272.381 279.416 278.503 280.075 284.625C281.488 297.717 284.596 310.338 289.541 322.535C291.613 327.621 294.344 332.377 296.463 337.416C298.159 341.466 299.101 345.798 300.702 349.895C303.48 357.147 306.588 364.306 309.414 371.558C312.098 378.433 314.547 385.403 317.137 392.326C317.89 394.256 317.467 396.328 317.938 398.353C318.738 401.791 319.539 402.545 322.976 402.592C328.816 402.592 334.655 402.592 340.495 402.686C347.512 402.78 354.481 402.921 361.498 403.015C364.135 403.063 364.747 402.403 364.794 399.813C364.794 398.071 364.842 396.281 364.794 394.539C364.747 391.289 363.523 389.641 360.415 388.794C355.847 387.569 351.279 386.345 346.664 385.167C344.639 384.649 342.802 383.566 340.636 383.331C339.836 383.237 339.6 382.342 339.223 381.73C332.866 371.605 328.863 360.632 326.555 348.953C324.531 338.876 321.375 329.033 318.974 319.05C316.76 309.82 315.253 300.495 313.888 291.124C312.098 278.833 310.874 266.448 309.084 254.109C308.519 250.154 308.425 246.151 308.237 242.148C308.142 239.793 307.907 237.439 307.483 235.084C298.065 236.45 288.693 237.768 279.322 239.275C277.768 239.511 275.978 239.181 274.754 240.547Z" fill="#F7BB92"/>
<path d="M313.04 197.317C319.02 194.256 324.954 191.148 330.935 188.087C340.777 183.048 350.713 178.15 360.414 172.876C376.52 164.069 393.991 159.313 411.698 155.263C416.36 154.18 420.928 152.626 425.59 151.449C428.228 150.789 430.912 150.366 433.596 150.083C437.128 149.753 440.33 148.67 443.203 146.598C446.405 144.338 449.607 142.077 452.904 139.864C456.106 137.745 455.4 134.495 455.164 131.529C454.929 128.562 454.081 125.689 452.857 122.958C452.15 121.404 451.114 120.697 449.466 121.121C442.685 122.722 435.904 124.371 429.122 126.019C427.71 126.348 426.344 126.961 425.402 127.997C422.058 131.717 417.443 132.659 412.875 133.648C398.559 136.756 384.102 139.346 370.068 143.914C356.082 148.482 342.284 153.474 328.91 159.69C314.028 166.612 299.147 173.488 284.031 179.892C283.936 179.94 283.842 180.081 283.748 180.175C285.538 180.316 286.762 181.635 288.175 182.483C296.51 187.38 305.081 191.807 313.04 197.317Z" fill="#F7BB92"/>
<path d="M313.038 197.317C305.08 191.807 296.509 187.38 288.221 182.482C286.808 181.635 285.583 180.316 283.794 180.175C280.215 180.552 276.683 179.657 273.057 179.751C266.417 179.892 260.389 181.541 255.067 185.638C253.655 186.721 251.912 186.721 250.264 187.145C248.051 187.71 245.837 188.322 243.577 188.84C242.776 189.028 242.258 189.452 241.787 190.064C241.74 192.984 241.693 195.904 241.74 198.824C241.835 213.281 241.976 227.691 242.918 242.101C253.513 241.631 264.156 241.866 274.752 240.547C276.024 239.229 277.813 239.511 279.32 239.276C288.691 237.769 298.11 236.45 307.481 235.085C307.576 231.27 307.623 227.503 307.717 223.688C307.246 223.217 306.869 222.699 306.21 222.37C299.617 219.167 293.636 214.976 287.279 211.35C285.065 210.079 282.993 208.666 280.733 207.206C281.11 206.923 281.251 206.735 281.392 206.688C286.666 205.558 291.894 204.38 297.215 203.392C300.935 202.732 304.562 200.99 308.47 201.79C309.695 200.849 310.872 199.954 312.096 199.059C312.756 198.635 313.227 198.164 313.038 197.317Z" fill="#8A8AD9"/>
<path d="M328.249 226.184C328.438 234.378 331.452 241.207 338.28 246.057C339.034 246.575 339.787 246.952 338.986 248.082C334.042 255.052 332.252 263.105 331.169 271.346C331.075 272.193 330.981 273.088 330.792 274.407C332.817 272.994 334.607 271.911 336.161 270.592C346.145 262.351 357.447 256.983 370.162 254.487C375.201 253.498 379.627 251.143 382.5 246.575C385.561 241.678 386.832 234.425 381.464 229.387C380.805 228.774 380.899 228.115 381.04 227.362C382.359 218.414 378.874 211.633 371.48 206.688C369.361 205.275 367.242 203.721 364.84 202.779C364.558 203.391 364.275 204.004 363.993 204.616C361.214 210.644 358.389 216.672 355.657 222.699C355.092 223.971 354.574 224.395 353.35 223.406C351.136 221.616 348.782 220.015 346.521 218.273C343.366 215.824 342.989 215.871 339.646 218.273C335.878 221.051 332.158 223.782 328.249 226.184ZM354.998 252.603C350.242 252.368 345.909 251.284 342.095 248.6C341.435 248.129 340.305 247.611 340.635 246.905C341.059 246.057 342.189 246.528 342.989 246.811C343.554 246.999 344.12 247.235 344.685 247.47C350.665 249.825 356.599 249.542 362.391 246.905C369.879 243.514 374.73 237.722 377.461 229.999C377.744 229.151 377.932 227.832 379.25 228.398C380.381 228.868 381.087 229.905 380.569 231.223C379.156 234.943 377.696 238.664 375.295 241.913C370.209 248.789 363.239 252.085 354.998 252.603Z" fill="#7B4821"/>
<path d="M242.919 242.104C241.977 227.693 241.836 213.236 241.742 198.826C241.742 195.906 241.789 192.986 241.789 190.067C240.235 189.313 238.681 189.69 237.032 189.831C225.495 190.726 215.558 195.812 205.857 201.651C205.151 202.075 204.444 202.452 203.738 202.829C205.528 208.904 206.987 215.12 209.012 221.148C212.073 230.236 214.899 239.419 217.207 248.744C223.799 246.295 230.581 244.647 237.315 242.669C239.152 242.151 241.129 242.904 242.919 242.104Z" fill="#F6BA92"/>
<path d="M328.249 226.186C332.158 223.784 335.878 221.053 339.599 218.369C342.942 215.967 343.319 215.92 346.474 218.369C348.734 220.111 351.089 221.712 353.302 223.502C354.574 224.538 355.045 224.067 355.61 222.795C358.341 216.767 361.167 210.74 363.945 204.712C364.228 204.1 364.51 203.487 364.793 202.875C363.427 201.604 361.591 201.509 359.942 201.039C356.269 199.955 354.15 197.177 352.078 194.304C350.948 192.703 349.629 191.243 348.216 189.878C346.05 187.853 344.261 188.135 342.895 190.772C342.471 191.62 342 192.468 341.435 193.174C340.305 194.587 338.845 195.058 337.103 194.728C335.36 194.398 333.618 194.116 331.922 193.833C329.568 193.41 328.108 194.21 327.402 196.518C326.836 198.448 326.46 200.473 326.13 202.451C325.8 204.382 324.717 205.371 322.739 205.041C318.171 204.241 313.556 203.346 308.988 202.451C308.8 202.404 308.659 202.075 308.47 201.839C304.515 201.039 300.936 202.781 297.215 203.44C291.894 204.382 286.667 205.606 281.392 206.737C281.204 206.784 281.11 206.972 280.733 207.255C282.993 208.668 285.066 210.127 287.279 211.399C293.636 215.025 299.617 219.216 306.21 222.418C306.869 222.748 307.246 223.219 307.717 223.737C311.296 222.889 314.828 223.737 318.313 224.396C321.609 224.914 324.906 225.574 328.249 226.186Z" fill="#F6BA92"/>
<path d="M111.059 361.056C111.059 363.27 109.74 365.012 108.987 366.943C106.585 373.253 103.147 378.998 99.2386 384.461C98.7677 385.12 98.2968 385.78 97.9201 386.486C95.8009 390.112 96.7898 393.126 100.793 393.88C106.067 394.869 111.247 395.292 116.098 391.666C120.76 388.134 125.846 385.073 129.849 380.694C132.156 378.198 134.181 375.467 136.065 372.688C138.137 369.627 137.289 366.519 135.594 363.552C135.076 362.657 134.134 361.904 134.181 360.727C128.907 360.538 123.632 361.056 118.358 361.103C115.909 361.056 113.461 361.056 111.059 361.056Z" fill="#F7BB93"/>
<path d="M80.403 376.55C75.7879 371.229 70.0897 366.943 65.5218 361.528C65.0979 361.01 64.5328 360.633 64.0619 360.162C61.3776 361.763 59.6823 364.4 57.7515 366.661C52.3359 373.113 48.9924 380.789 45.1308 388.135C43.9064 390.443 45.0366 392.42 46.5436 394.022C48.0976 395.717 49.8871 397.177 51.5824 398.778C52.2888 399.437 52.901 399.155 53.6074 398.919C57.2806 397.648 60.2003 395.199 63.1201 392.797C68.3944 388.37 73.6688 383.897 78.896 379.423C79.7908 378.669 80.6855 377.916 80.403 376.55Z" fill="#F7BB92"/>
<path d="M111.06 361.058C113.509 361.058 115.911 361.058 118.359 361.058C123.634 361.011 128.908 360.493 134.183 360.682C135.313 357.385 135.548 353.947 135.501 350.51C135.407 343.163 136.255 335.77 135.831 328.423C135.784 327.34 135.784 326.257 135.737 325.174C134.795 325.645 134.606 326.728 133.9 327.481C131.828 329.695 129.803 331.955 127.919 334.357C123.069 340.432 118.359 346.554 113.462 352.629C112.567 353.759 111.719 355.077 110.118 355.454C110.212 356.773 110.26 358.091 110.354 359.41C110.401 359.975 110.26 360.682 111.06 361.058Z" fill="#6A6E67"/>
<path d="M133.004 276.62C131.968 278.928 130.037 280.576 128.53 282.507C121.749 290.983 115.156 299.648 107.904 307.748C106.444 309.396 105.125 311.186 103.43 312.599C102.959 313.87 102.959 315.236 103.006 316.602C103.713 316.884 104.231 317.073 104.89 316.225C111.106 308.408 117.369 300.59 123.727 292.867C128.813 286.698 134.087 280.717 139.267 274.689C146.849 265.883 154.855 257.406 162.908 248.977C167.476 244.173 171.902 239.229 176.376 234.331C176.753 233.954 177.13 233.531 177.271 233.013C177.459 232.495 177.459 231.929 176.988 231.506C176.517 231.035 175.999 231.176 175.481 231.506C174.963 231.835 174.445 232.165 174.022 232.589C166.769 239.747 160.176 247.47 153.254 254.863C148.403 260.044 143.977 265.648 138.561 270.263C138.137 271.817 136.772 272.711 135.877 273.889C135.123 274.878 134.558 276.291 133.004 276.62Z" fill="#363934"/>
<path d="M110.119 355.406C111.72 355.076 112.568 353.711 113.463 352.581C118.313 346.553 123.069 340.384 127.92 334.309C129.804 331.954 131.829 329.647 133.901 327.433C134.607 326.727 134.795 325.644 135.737 325.126C136.02 323.525 136.302 321.923 136.585 320.322C134.183 321.264 133.006 323.525 131.499 325.361C124.623 333.838 117.418 342.032 110.873 350.791C110.213 351.686 109.271 352.486 109.318 353.758C109.271 354.464 109.413 355.076 110.119 355.406Z" fill="#363934"/>
<path d="M133.005 276.62C134.559 276.29 135.124 274.877 135.972 273.841C136.914 272.664 138.232 271.769 138.656 270.215C136.584 270.027 134.748 271.016 132.77 271.298C131.781 271.44 131.875 272.005 132.063 272.758C132.393 274.03 132.676 275.348 133.005 276.62Z" fill="#EFF0EF"/>
<path d="M354.998 252.604C363.239 252.086 370.162 248.743 375.295 241.867C377.697 238.618 379.109 234.898 380.569 231.177C381.087 229.859 380.381 228.823 379.251 228.352C377.932 227.834 377.744 229.152 377.461 229.953C374.73 237.629 369.926 243.468 362.392 246.859C356.599 249.496 350.666 249.779 344.685 247.424C344.12 247.189 343.555 246.953 342.99 246.765C342.189 246.482 341.059 246.011 340.635 246.859C340.305 247.565 341.436 248.083 342.095 248.554C345.956 251.286 350.289 252.369 354.998 252.604Z" fill="#5D3614"/>
</svg>
