<?xml version="1.0" encoding="UTF-8"?>
<svg xmlns="http://www.w3.org/2000/svg" version="1.1" viewBox="0 0 1417.3 1417.3">
  <defs>
    <style>
      .cls-1 {
        fill: #686d65;
      }

      .cls-2 {
        fill: #4c4d48;
      }

      .cls-3 {
        fill: #ffb88b;
      }

      .cls-4 {
        fill: #696d65;
      }

      .cls-5 {
        fill: #e6a37b;
      }

      .cls-6 {
        fill: #8b8add;
      }

      .cls-7 {
        fill: #824414;
      }

      .cls-8 {
        fill: #494a45;
      }

      .cls-9 {
        fill: #ffb78a;
      }
    </style>
  </defs>
  <!-- Generator: Adobe Illustrator 28.7.1, SVG Export Plug-In . SVG Version: 1.2.0 Build 142)  -->
  <g>
    <g id="_레이어_1" data-name="레이어_1">
      <g>
        <path class="cls-4" d="M739.5,1048.3c-.7,0-1.5-.1-2.2-.2-1.4-1.1-3-.9-4.6-.7-1.1-.2-2.1-.4-3.2-.5-.3-.5-.8-.7-1.4-.5-1-.3-2.1-.5-3.1-.8-.3-.5-.8-.6-1.3-.4-1.9-.5-3.7-.9-5.6-1.4,0-.8-.1-1.5-.1-2.3.2-10.5-.2-21,1-31.5.8-6.9.5-13.8,1.1-20.8.8-8.4.8-16.9,1.3-25.3.5-8.4.9-16.9,1.7-25.3.8-7.8,2-15.6,2.9-23.4.9-7.1,1.6-14.2,2.6-21.2,1-7.2,2.1-14.5,3.1-21.7,1-6.9,1.8-13.8,2.7-20.6.7-5.6,1.4-11.2,1.7-16.8.6-12.6.6-25.2-.8-37.7-.8-7.8-1-15.7-1.5-23.6,0-.8,0-1.5-.1-2.3-.6-6.9-1.3-13.8-1.8-20.7-.6-7.7-1-15.4-1.4-23.1,0-.6,0-1.1-.1-1.7-.6-6.9-1.3-13.8-1.8-20.7-.6-7.7-.7-15.4-1.5-23-.6-5.2-.5-10.5-1.2-15.7-.6-4.7-.8-9.3-.8-14,4.8-8.7,8.5-17.9,12.8-26.9,6.2-13.1,12.1-26.3,18.2-39.4,2.9-6.3,6-12.6,8.8-18.9,1.1-2.6,3.1-5,2.8-7.8-.2-2.3-1.8-4.5-2.8-6.7-.2-.5-.5-1-.7-1.5-9-21.5-17.9-43-26.9-64.5-.4-.8-1-1.5-1.6-2.3,0-.3-.2-.6-.3-.9-3.8-10.4-8-20.7-12.6-30.8-.8-2.5-1.5-4.9-2.3-7.4,8.2-.6,14.9-4.3,20.5-10.2,5.1-5.3,8.6-11.7,11.9-18.1.7-1.4,1.3-2.7,2.6-3.5,2.7-.7,5-2.1,7.5-3.3,2.6-1.2,5.1-2.9,8-3.5,3.5,6,7.8,11.5,11.8,17.2,21.5,30.4,43,60.7,64.5,91,1.4,2,2.7,4,4,6.1,6.5,10.1,8.6,21.4,9.3,33.2.5,7.8-1.3,15.3-2.9,22.8-3.5,16.2-7,32.3-10.5,48.4-.2,1.1-.2,2.2-.4,3.3-1.4,2.5-1.6,5.4-2.2,8.1-3,13.6-5.9,27.3-8.7,41-1.6,7.5-3,14.9-4.6,22.4-.7,2.9-1.4,5.8-2,8.8-3.2,15-6.4,30.1-9.7,45.1-3.9,18.3-7.8,36.7-11.8,55-4.2,19.6-8.5,39.2-12.7,58.8-.4,1.8-.7,3.7-.1,5.6-.4,0-.8.1-1.1.1-2.3-.2-3.5.8-3.9,3-.1.5-.4,1-.6,1.6-3.6,14.3-7.2,28.6-10.9,42.9-.4,1.5-.6,2.9-.5,4.4,0,2.5.8,4,2.1,4.1,1.8,0,2.5-1.3,3.4-2.5,2-2.5,2.8-5.7,4.2-8.5,5.9-11.7,11.7-23.5,17.6-35.2,1.4-2.8,2.3-5.5,2-8.6,4.3-.3,8.6.5,12.8.8,8.6.6,17.1,1.5,25.7,2.3,11.2,1,22.4,1.8,33.5,2.6,1.3.1,2.6.3,3.9.5,1.7.3,3.3.3,5,0,.5.1,1,.2,1.5.3,0,1.2,0,2.3,0,3.5-.9.7-1.2,1.4-.2,2.3.1,3.4-.4,6.8-.9,10.2-1.2,1.2-1.1,2.5-.4,3.8-.6,4.4-1.2,8.7-1.9,13.1-.9.7-1.2,1.4-.3,2.2-1.9,10.1-4.2,20.2-7.2,30-1.7,5.7-3.7,11.4-6.8,16.6-9.3,15.6-19.3,30.8-31.1,44.7-10.8,12.8-24,22.5-39.1,29.7-1.3-.3-2.2.2-2.8,1.4-2.8,1.1-5.6,2.2-8.4,3.3-1.2-.5-2.1,0-2.9.9-1.7.5-3.3,1-5,1.5-1.2-.7-2.1-.2-2.9.6-1.1.2-2.1.5-3.2.7-.9-.9-1.6-.6-2.2.3-2.3.3-4.5.6-6.8.9-2-1.1-3.8-1.1-5.6.4-1.4.2-2.7.4-4.1.6-1.4-.8-2.7-.8-3.8.5-.8,0-1.5,0-2.3,0-4.1-1.7-8.2-1.3-12.4-.2Z"/>
        <path class="cls-9" d="M724.8,652.3c0,4.7.2,9.4.8,14,.7,5.2.6,10.5,1.2,15.7.9,7.6,1,15.4,1.5,23,.5,6.9,1.2,13.8,1.8,20.7,0,.6.1,1.1.1,1.7.5,7.7.9,15.4,1.4,23.1.5,6.9,1.2,13.8,1.8,20.7,0,.7,0,1.5.1,2.3.5,7.9.7,15.8,1.5,23.6,1.3,12.6,1.4,25.1.8,37.7-.3,5.6-1,11.2-1.7,16.8-.8,6.9-1.7,13.8-2.7,20.6-1,7.2-2.2,14.5-3.1,21.7-.9,7.1-1.7,14.2-2.6,21.2-1,7.8-2.1,15.6-2.9,23.4-.9,8.4-1.2,16.8-1.7,25.3-.5,8.4-.5,16.9-1.3,25.3-.6,6.9-.3,13.9-1.1,20.8-1.2,10.5-.8,21-1,31.5,0,.7,0,1.5.1,2.3-.6,1.4-1,2.8-1,4.3,0,2.8-.2,5.6-.2,8.5.1,8.5-.7,16.8-1.9,25.2-.5,3.5-.4,7.1-1.2,10.6-.6,2.5-1.6,4.6-3.4,6.3-8.7,8.6-18.6,15-30.6,18-4,1-8.1,1.6-12.2,1.8-3.7.2-7.5.6-11.1,1.3-4.5,1-9,.7-13.5,1-7.3.4-14.6.8-21.8,1.7-2.6.3-5.3.3-7.9.3-7.5,0-15,0-22.5,0-5.2,0-10.5-.8-15.7-1.2-6-.4-10.9-3.2-12.7-9.4-1.7-5.4-1.1-10.8,1.6-15.8,1.1-2,2.8-3.5,5.1-4.1,1.3-.3,2.5-.9,3.6-1.5,21.4-10.5,42.8-21.1,64.2-31.6,4.9-2.4,9.8-4.7,14.8-6.9,2.6-1.1,3.5-2.9,3.4-5.7-.1-13.7,0-27.4,0-41.1,0-.4,0-.7,0-1.1.7-3.3,1.3-6.6.4-9.9.8-1.6.6-3.3.5-5-.1-1.9-.7-3.7-.5-5.6.9-7.1.8-14.3.8-21.4,0-6-.3-12,.7-18,.3-1.5.2-3,0-4.5-.5-5.2-.2-10.5,0-15.7.3-6,.3-12,.2-18,0-5.7.8-11.2,1-16.9.3-7.7.2-15.4.8-23.1.7-8.4.8-16.9,1.4-25.3.9-11.6,2.6-23.1,2.5-34.8,0-.9.4-1.8.4-2.8.4-5.6,1.2-11.2.2-16.8-.4-4.1-.7-8.2-1.4-12.2-.5-2.5,0-5.3-1.4-7.7,0-6.6-1.6-13-2.1-19.5-.6-7.1-2.8-14-2.8-21.2,0-2.2-.4-4.5-1-6.7-1.3-5.3-.7-10.9-1.5-16.2-.6-6.1-1.2-12.3-1.9-18.4-.3-2.8-.7-5.6-1.1-8.4-.7-5.4-1.6-10.7-2-16.2-.4-5.2-1.5-10.4-1.5-15.7,0-7.9-.4-15.7-.7-23.6-.5-11-.8-22.1.5-33.2,1-8.4,2.2-16.7,3.4-25,.4-2.4,1-4.8,1.9-7,3.9-10.2,9-19.8,16.1-28.2,6.7-7.9,14.8-13.2,25.1-14.8,5.2-.8,10.4-.8,15.3,2.1,11,6.4,18.5,15.7,23.2,27.4,2.8,6.8,5,13.7,6,21,.8,5.9,2,11.8,1.7,17.9-.1,2.8-.7,5.6-.9,8.4-.3,4.9-1.2,9.7-2.9,14.3-2.9,8.2-6.3,16.1-11.1,23.3-1.3,2-2.2,4-1.7,6.3,1.1,4.6.8,9.3,1,14,0,1.6-.3,3.4.9,4.9Z"/>
        <path class="cls-9" d="M722.5,452.5c4.6,10.1,8.8,20.3,12.6,30.8-.4.3-.9.6-1.3.9-4.6-1.2-9.3-1.2-14-.7-9.1.9-18,3.2-26.5,6.9-6.3,2.7-11.9,6.3-16.6,11.2-8,8.2-14.7,17.4-19.8,27.7-.3.6-.9,1.2-1.4,1.7-1.5-2.1-3.2-4.2-4.6-6.4-4.2-6.2-9.3-11.8-14.2-17.4-.7-.8-1.6-1.6-2.4-2.3-2.6-2.2-5.5-3-8.9-2.3-7,1.3-13.9,2.8-21,3.8-7.3,1.1-14.6,1.3-21.3-2.8-5.2-3.2-9.1-7.8-12-13.1-1.3-2.3-2.4-4.7-3.5-7.1-3.4-7.5-9-13.3-15.4-18.4-4.6-3.6-9.6-6.5-14.9-9.1-1.9-.9-3.7-1.8-5.5-2.8-1.1-.6-2.2-1.4-3.2-2.2-3.5-3.1-4.1-7.5-.9-11.5,3.7-4.5,7.5-8.9,11.1-13.4,5.4-6.7,10.3-13.8,13.5-21.9,2.3-6,3.8-12.1,2.4-18.6-.6-3.1-.5-6.3-1.3-9.5-.3-1.2,0-2.6.2-3.9,3.4,0,6.6,1.2,9.9,2.1,6.2,1.6,12.4,2.8,18.9,2.9,4.9,0,9.7,1.1,14.4,2.3,15.1,3.7,27.6,11.5,36.8,24.3,3.2,4.4,6.1,9.1,8.1,14.2,1.9,4.8,5.4,8.1,10.1,10,1.9.8,3.9,1.4,5.8,2.1,13.6,4.8,27.3,9.6,40.9,14.3,8,2.8,16,5.5,24,8.2Z"/>
        <path class="cls-9" d="M794.9,873.4c-.6-1.9-.3-3.7.1-5.6,4.2-19.6,8.5-39.2,12.7-58.8,3.9-18.3,7.9-36.7,11.8-55,3.2-15,6.4-30.1,9.7-45.1.6-2.9,1.4-5.8,2-8.8,7.5-1.6,14.5-4.6,21.8-6.9,4.2-1.4,8.5-2.6,12.8-3.9,2.1,4.6,3.3,9.5,4.4,14.4,2.4,11,5.5,21.8,7.1,32.9.8,5.4,2.5,10.6,3.6,15.9,2.5,12.7,5,25.3,7.1,38.1.8,4.8,1.1,9.7,1.7,14.5.7,6.3.5,12.7,1.7,19,.3,1.3.2,2.6.2,3.9,0,7.5,0,15,0,22.5,0,2.8-.2,5.6-.7,8.4-.4,2.2-.1,4.5-.2,6.7-.2,4.9.5,9.8-.8,14.6-.6.3-1.3.5-1.9.8-1.7.3-3.3.2-5,0-1.3-.2-2.6-.4-3.9-.5-11.2-.9-22.4-1.6-33.5-2.6-8.6-.8-17.1-1.7-25.7-2.3-4.3-.3-8.5-1.1-12.8-.8-1.6-1-3.4-1.1-5.2-1.1-2.3,0-4.7-.1-7-.2Z"/>
        <path class="cls-7" d="M722.5,452.5c-8-2.7-16-5.4-24-8.2-13.6-4.8-27.3-9.6-40.9-14.3-1.9-.7-3.9-1.4-5.8-2.1-4.8-1.9-8.2-5.2-10.1-10-2-5.1-4.9-9.7-8.1-14.2-9.2-12.8-21.7-20.6-36.8-24.3-4.7-1.2-9.5-2.2-14.4-2.3-6.4-.1-12.7-1.3-18.9-2.9-3.3-.8-6.5-2-9.9-2.1-.9-1.3-.6-2.7-.4-4.1.7-.6,1.1-1.3.3-2.2.3-1,.5-2,.8-3,1.6-3,2.6-6.2,3.1-9.6,7.3-18,20-31.3,36.4-41.2,4.9-3,10.1-5.6,15.6-7.5,1.2.4,2.2,0,2.9-1.1,1.3-.5,2.6-.9,3.9-1.4,1.2.6,2.2.2,2.9-.8,1.7-.5,3.4-1,5.1-1.5,1,.5,1.8.2,2.5-.5,1-.2,2.1-.5,3.1-.7,1.3.6,2.6.4,3.7-.5,11.3-1.7,22.6-1.7,33.9,0,1,.9,2.1,1.3,3.3.4,1,.2,2,.5,3,.7.9.7,1.8,1.1,3,.6.7.2,1.3.4,2,.6.7.8,1.6,1,2.6.6.7.2,1.3.4,2,.6,1.7,1.4,3.3,1.5,4.8-.4,6.7-4.4,13.4-8.7,20-13.1.8,1.2-.2,1.7-.8,2.3-8.3,8-13.5,18-17.4,28.7-5.7,15.5-7.6,31.7-8.6,48-.2,4.1.5,8.2.6,12.4.4,9.8,2.2,19.4,4.8,28.8,2.4,9,6.2,17.3,11.9,24.7,5.5,7.2,12.6,11.7,21.8,12.3.8,2.5,1.5,4.9,2.3,7.4Z"/>
        <path class="cls-5" d="M720.2,445.1c-9.2-.7-16.3-5.1-21.8-12.3-5.7-7.4-9.5-15.8-11.9-24.7-2.6-9.4-4.4-19-4.8-28.8-.2-4.1-.9-8.2-.6-12.4,1-16.3,2.9-32.5,8.6-48,3.9-10.7,9.1-20.6,17.4-28.7.6-.6,1.7-1.2.8-2.3,3.1-3.2,7.3-4.4,11.4-5.5,7.1-1.9,13.7-.6,19.8,3.5.8.5,1.7.7,2.6,1,1,1.1,1.9,2.3,2.9,3.4,2.5,2.6,4.7,5.4,6.4,8.5,4.1,7.4,7.6,15,9.5,23.4,2.2,9.7,4,19.4,3.8,29.4-.2,9,.7,18-1.1,26.9-.8,3.8-1.2,7.7-1.9,11.6-1.4,6.8-3.1,13.5-5.5,20-.4,1-.4,2.2-.5,3.3-1.3.9-1.9,2.2-2.6,3.5-3.3,6.5-6.9,12.8-11.9,18.1-5.6,5.9-12.3,9.6-20.5,10.2Z"/>
        <path class="cls-6" d="M655.5,531c.5-.6,1.1-1.1,1.4-1.7,5.1-10.3,11.8-19.5,19.8-27.7,4.7-4.9,10.4-8.5,16.6-11.2,8.5-3.7,17.3-6,26.5-6.9,4.6-.5,9.4-.5,14,.7.5,0,1.1,0,1.6,0,.5.8,1.2,1.5,1.6,2.3,9,21.5,17.9,43,26.9,64.5.2.5.5,1,.7,1.5,1,2.2,2.5,4.4,2.8,6.7.3,2.8-1.7,5.3-2.8,7.8-2.8,6.4-5.8,12.6-8.8,18.9-6.1,13.1-12,26.3-18.2,39.4-4.3,9-7.9,18.2-12.8,26.9-1.3-1.4-.8-3.2-.9-4.9-.3-4.7,0-9.4-1-14-.5-2.3.3-4.3,1.7-6.3,4.9-7.2,8.3-15.1,11.1-23.3,1.6-4.6,2.6-9.4,2.9-14.3.2-2.8.8-5.6.9-8.4.3-6-.9-11.9-1.7-17.9-1-7.3-3.2-14.2-6-21-4.7-11.7-12.2-21-23.2-27.4-4.9-2.9-10.1-2.9-15.3-2.1-10.3,1.6-18.4,6.9-25.1,14.8-7.1,8.4-12.2,18-16.1,28.2-.9,2.3-1.5,4.6-1.9,7-1.3,8.3-2.4,16.7-3.4,25-1.3,11.1-.9,22.2-.5,33.2.3,7.9.7,15.7.7,23.6,0,5.3,1.1,10.4,1.5,15.7.4,5.4,1.3,10.8,2,16.2.4,2.8.8,5.6,1.1,8.4.7,6.1,1.2,12.3,1.9,18.4-2.5-1.3-3.7-3.7-5.1-5.9-7.4-11.3-13.6-23.3-19.1-35.7-3-6.7-4.8-13.8-5.6-21.1-.3-3.4-.1-6.7.5-10.1,2-11.3,5.3-22.2,8.3-33.2,3.1-11.2,7-22.1,10.2-33.3.4-1.3.9-2.5,1.3-3.7,3.9-9.8,7.7-19.5,11.6-29.2Z"/>
        <path class="cls-2" d="M655.2,994.5c.8,3.3.3,6.6-.4,9.9-.3,0-.6,0-.9,0-19.3-16.7-32.2-37.5-39.6-61.7-1.7-5.6-2.8-11.3-4.2-16.9.5-1,.3-1.8-.4-2.6-1-6.5-1.6-13-1.5-19.6.2-5.9,1.7-11.5,2.8-17.2,1.6-8.3,3.4-16.6,5.9-24.6,1.5-4.8,3.6-9.5,5.7-14.1,12-25.9,24.2-51.7,36.3-77.5.6-1.2,1.2-2.3,1.9-3.5,1.4,2.4.9,5.1,1.4,7.7.7,4,1,8.1,1.4,12.2-3.1,6.4-6.2,12.8-9.2,19.2-3.7,8-7.2,16-10.9,24-3.7,8-7.6,15.9-11.3,23.9-1.9,4.2-3.8,8.6-5.3,13-2.6,7.8-4.6,15.8-4.8,24.1,0,.7,0,1.5-.3,2.2-1,2.3-.7,4.8-.8,7.2,0,7.7,1.2,15.2,2.1,22.8,1.1,9.3,3.4,18.4,6.4,27.2,2.9,8.3,6.4,16.3,10.7,24,3.2,5.7,6.6,11.3,10.2,16.8,1.2,1.8,2.5,3.3,4.8,3.4Z"/>
        <path class="cls-3" d="M755.2,413.3c.2-1.1.2-2.3.5-3.3,2.4-6.5,4.1-13.2,5.5-20,.8-3.8,1.2-7.7,1.9-11.6,1.8-8.9.9-17.9,1.1-26.9.2-10-1.6-19.7-3.8-29.4-1.9-8.3-5.4-16-9.5-23.4-1.7-3.1-3.9-5.9-6.4-8.5-1-1.1-1.9-2.3-2.9-3.4,5.1-5,11.2-5.6,17.6-3.5,4.1,1.4,7.6,4.1,10.4,7.4,6.7,7.8,10.1,17,11.4,27,.4,3,.7,5.9,1,8.9.5,5.8-.5,11.6-1.3,17.3-1.5,10.3-3.5,20.6-5.3,30.9-1.4,8.3-2.9,16.5-4.3,24.8-.4,2.2-.3,4.5-.5,6.7-2.9.6-5.4,2.3-8,3.5-2.5,1.1-4.8,2.6-7.5,3.3Z"/>
        <path class="cls-6" d="M865.7,689.3c-4.3,1.3-8.5,2.5-12.8,3.9-7.2,2.3-14.3,5.3-21.8,6.9,1.5-7.5,3-14.9,4.6-22.4,2.9-13.7,5.8-27.3,8.7-41,.6-2.7.8-5.6,2.2-8.1.9.7,1.2,1.9,1.6,2.9,6.2,17,11.9,34.2,16.7,51.7.5,2,1.1,4,.8,6.1Z"/>
        <path class="cls-8" d="M794.9,873.4c2.3,0,4.7.2,7,.2,1.8,0,3.6,0,5.2,1.1.3,3.1-.6,5.8-2,8.6-6,11.7-11.7,23.5-17.6,35.2-1.4,2.8-2.2,6-4.2,8.5-.9,1.2-1.6,2.6-3.4,2.5-1.3,0-2.1-1.6-2.1-4.1,0-1.5.2-3,.5-4.4,3.7-14.3,7.3-28.6,10.9-42.9.1-.5.4-1,.6-1.6.4-2.2,1.7-3.2,3.9-3,.4,0,.7,0,1.1-.1Z"/>
        <path class="cls-1" d="M655.2,994.5c-2.4,0-3.7-1.6-4.8-3.4-3.6-5.5-7-11.1-10.2-16.8-4.3-7.7-7.9-15.7-10.7-24-3-8.8-5.3-17.9-6.4-27.2-.9-7.6-2.2-15.1-2.1-22.8,0-2.4-.2-4.9.8-7.2.3-.7.3-1.5.3-2.2.2-8.3,2.1-16.3,4.8-24.1,1.5-4.4,3.3-8.7,5.3-13,3.7-8,7.6-15.9,11.3-23.9,3.7-8,7.2-16,10.9-24,3-6.4,6.2-12.8,9.2-19.2,1,5.6.2,11.2-.2,16.8,0,.9-.5,1.8-.4,2.8.1,11.7-1.6,23.2-2.5,34.8-.6,8.4-.7,16.9-1.4,25.3-.7,7.7-.5,15.4-.8,23.1-.2,5.6-1.1,11.2-1,16.9,0,6,0,12-.2,18-.2,5.2-.5,10.5,0,15.7.1,1.5.2,3,0,4.5-1,6-.7,12-.7,18,0,7.1,0,14.3-.8,21.4-.2,1.9.4,3.7.5,5.6.1,1.7.3,3.4-.5,5Z"/>
      </g>
    </g>
  </g>
</svg>