<svg width="500" height="500" viewBox="0 0 500 500" fill="none" xmlns="http://www.w3.org/2000/svg">
<path d="M236.65 397.162C236.952 397.162 237.297 397.119 237.6 397.076C238.204 396.601 238.895 396.687 239.586 396.773C240.061 396.687 240.492 396.601 240.967 396.558C241.097 396.342 241.313 396.255 241.572 396.342C242.004 396.212 242.479 396.126 242.91 395.996C243.04 395.78 243.256 395.737 243.472 395.824C244.292 395.608 245.069 395.435 245.889 395.219C245.889 394.874 245.933 394.571 245.933 394.226C245.846 389.693 246.019 385.159 245.501 380.626C245.155 377.647 245.285 374.667 245.026 371.645C244.681 368.018 244.681 364.348 244.465 360.722C244.249 357.095 244.076 353.425 243.731 349.798C243.385 346.431 242.867 343.063 242.479 339.695C242.09 336.63 241.788 333.564 241.356 330.542C240.924 327.433 240.449 324.281 240.018 321.173C239.586 318.194 239.24 315.214 238.852 312.279C238.55 309.861 238.247 307.443 238.118 305.025C237.859 299.585 237.859 294.145 238.463 288.748C238.809 285.38 238.895 281.969 239.111 278.558C239.111 278.213 239.111 277.911 239.154 277.565C239.413 274.586 239.715 271.607 239.931 268.628C240.19 265.303 240.363 261.979 240.536 258.654C240.536 258.395 240.536 258.179 240.579 257.92C240.838 254.941 241.14 251.962 241.356 248.983C241.615 245.658 241.658 242.334 242.004 239.052C242.263 236.807 242.219 234.519 242.522 232.274C242.781 230.245 242.867 228.259 242.867 226.229C240.795 222.473 239.197 218.501 237.341 214.615C234.664 208.959 232.116 203.26 229.483 197.604C228.231 194.884 226.892 192.164 225.683 189.444C225.208 188.321 224.345 187.285 224.474 186.076C224.561 185.083 225.251 184.133 225.683 183.183C225.77 182.967 225.899 182.751 225.985 182.535C229.871 173.253 233.714 163.97 237.6 154.687C237.772 154.342 238.031 154.039 238.291 153.694C238.291 153.565 238.377 153.435 238.42 153.305C240.061 148.815 241.874 144.368 243.86 140.007C244.206 138.928 244.508 137.892 244.853 136.812C241.313 136.553 238.42 134.956 236.002 132.408C233.8 130.12 232.289 127.357 230.864 124.594C230.562 123.989 230.303 123.428 229.742 123.082C228.576 122.78 227.583 122.176 226.504 121.658C225.381 121.14 224.302 120.406 223.049 120.146C221.538 122.737 219.682 125.112 217.955 127.573C208.672 140.698 199.389 153.78 190.106 166.863C189.502 167.726 188.941 168.59 188.379 169.496C185.573 173.857 184.666 178.736 184.364 183.831C184.148 187.198 184.925 190.437 185.616 193.675C187.127 200.669 188.638 207.621 190.15 214.572C190.236 215.047 190.236 215.522 190.322 215.997C190.927 217.076 191.013 218.328 191.272 219.494C192.567 225.366 193.819 231.281 195.028 237.196C195.719 240.434 196.324 243.629 197.015 246.867C197.317 248.119 197.619 249.371 197.878 250.667C199.26 257.143 200.641 263.663 202.066 270.139C203.75 278.04 205.434 285.984 207.161 293.886C208.974 302.348 210.831 310.811 212.644 319.273C212.817 320.05 212.946 320.871 212.687 321.691C212.86 321.691 213.033 321.734 213.162 321.734C214.155 321.648 214.673 322.079 214.846 323.029C214.889 323.245 215.019 323.461 215.105 323.72C216.659 329.894 218.214 336.068 219.811 342.242C219.984 342.89 220.07 343.495 220.027 344.142C220.027 345.222 219.682 345.869 219.12 345.912C218.343 345.912 218.041 345.351 217.653 344.833C216.789 343.754 216.444 342.372 215.839 341.163C213.292 336.112 210.788 331.017 208.24 325.965C207.636 324.756 207.247 323.591 207.377 322.252C205.52 322.123 203.664 322.468 201.85 322.598C198.137 322.857 194.467 323.245 190.754 323.591C185.918 324.022 181.083 324.368 176.29 324.713C175.729 324.756 175.168 324.843 174.606 324.929C173.872 325.059 173.181 325.059 172.448 324.929C172.232 324.972 172.016 325.015 171.8 325.059C171.8 325.577 171.8 326.052 171.8 326.57C172.188 326.872 172.318 327.174 171.886 327.563C171.843 329.031 172.059 330.499 172.275 331.967C172.793 332.485 172.75 333.046 172.448 333.607C172.707 335.507 172.966 337.364 173.268 339.263C173.656 339.566 173.786 339.868 173.397 340.213C174.218 344.574 175.211 348.935 176.506 353.166C177.24 355.627 178.104 358.088 179.442 360.333C183.457 367.069 187.775 373.631 192.87 379.633C197.533 385.159 203.232 389.347 209.751 392.456C210.313 392.326 210.701 392.542 210.96 393.06C212.169 393.535 213.378 394.01 214.587 394.485C215.105 394.269 215.494 394.485 215.839 394.874C216.573 395.09 217.264 395.305 217.998 395.521C218.516 395.219 218.905 395.435 219.25 395.78C219.725 395.867 220.157 395.996 220.632 396.083C221.02 395.694 221.322 395.824 221.581 396.212C222.575 396.342 223.524 396.471 224.517 396.601C225.381 396.126 226.158 396.126 226.935 396.773C227.54 396.86 228.101 396.946 228.705 397.033C229.31 396.687 229.871 396.687 230.346 397.248C230.692 397.248 230.994 397.248 231.339 397.248C233.109 396.514 234.88 396.687 236.693 397.162H236.65Z" fill="#696D65"/>
<path d="M242.997 226.186C242.997 228.215 242.91 230.244 242.651 232.23C242.349 234.475 242.392 236.764 242.133 239.009C241.744 242.29 241.701 245.658 241.485 248.939C241.269 251.918 240.967 254.897 240.708 257.877C240.708 258.136 240.665 258.351 240.665 258.611C240.449 261.935 240.276 265.26 240.061 268.584C239.845 271.563 239.542 274.542 239.283 277.521C239.283 277.824 239.283 278.169 239.24 278.515C239.024 281.925 238.938 285.336 238.593 288.704C238.031 294.144 237.988 299.541 238.247 304.981C238.377 307.399 238.679 309.817 238.981 312.235C239.327 315.214 239.715 318.193 240.147 321.129C240.579 324.238 241.097 327.389 241.485 330.498C241.874 333.564 242.219 336.629 242.608 339.651C243.04 343.019 243.515 346.387 243.86 349.755C244.249 353.381 244.378 357.008 244.594 360.678C244.81 364.305 244.81 367.975 245.155 371.601C245.414 374.581 245.285 377.603 245.63 380.582C246.148 385.115 245.976 389.649 246.062 394.182C246.062 394.485 246.062 394.83 246.019 395.175C246.278 395.78 246.451 396.384 246.451 397.032C246.451 398.241 246.537 399.45 246.537 400.702C246.494 404.372 246.839 407.955 247.357 411.582C247.573 413.093 247.53 414.648 247.875 416.159C248.134 417.238 248.566 418.145 249.343 418.879C253.1 422.592 257.374 425.355 262.555 426.651C264.282 427.082 266.052 427.341 267.823 427.428C269.42 427.514 271.061 427.687 272.615 427.989C274.558 428.421 276.501 428.291 278.444 428.421C281.596 428.593 284.747 428.766 287.856 429.155C288.979 429.284 290.144 429.284 291.267 429.284C294.505 429.284 297.743 429.284 300.982 429.284C303.227 429.284 305.515 428.939 307.76 428.766C310.351 428.593 312.466 427.384 313.243 424.708C313.977 422.376 313.718 420.045 312.553 417.886C312.078 417.022 311.344 416.375 310.351 416.116C309.789 415.986 309.271 415.727 308.796 415.468C299.557 410.935 290.317 406.358 281.078 401.824C278.962 400.788 276.846 399.795 274.687 398.845C273.565 398.37 273.176 397.593 273.22 396.384C273.263 390.469 273.22 384.554 273.22 378.639C273.22 378.466 273.22 378.337 273.22 378.164C272.917 376.739 272.658 375.315 273.047 373.89C272.701 373.199 272.788 372.465 272.831 371.731C272.874 370.911 273.133 370.133 273.047 369.313C272.658 366.248 272.701 363.139 272.701 360.074C272.701 357.483 272.831 354.892 272.399 352.302C272.27 351.654 272.313 351.007 272.399 350.359C272.615 348.114 272.486 345.826 272.399 343.58C272.27 340.99 272.27 338.399 272.313 335.809C272.313 333.348 271.967 330.973 271.881 328.512C271.752 325.188 271.795 321.863 271.536 318.538C271.233 314.912 271.19 311.242 270.931 307.615C270.543 302.607 269.809 297.641 269.852 292.59C269.852 292.201 269.679 291.813 269.679 291.381C269.506 288.963 269.161 286.545 269.593 284.127C269.765 282.357 269.895 280.587 270.197 278.86C270.413 277.781 270.197 276.572 270.802 275.535C270.802 272.686 271.492 269.923 271.708 267.116C271.967 264.051 272.917 261.072 272.917 257.963C272.917 257.013 273.09 256.02 273.349 255.07C273.91 252.782 273.651 250.364 273.997 248.076C274.256 245.442 274.515 242.765 274.817 240.131C274.947 238.922 275.119 237.713 275.292 236.505C275.594 234.173 275.983 231.885 276.155 229.51C276.328 227.265 276.803 225.02 276.803 222.731C276.803 219.321 276.976 215.953 277.105 212.542C277.321 207.793 277.451 203 276.889 198.208C276.458 194.581 275.94 190.997 275.421 187.414C275.249 186.377 274.99 185.341 274.601 184.391C272.917 179.987 270.715 175.843 267.65 172.216C264.757 168.805 261.26 166.517 256.813 165.826C254.568 165.48 252.322 165.48 250.207 166.733C245.458 169.496 242.219 173.511 240.19 178.563C238.981 181.499 238.031 184.478 237.6 187.63C237.254 190.177 236.736 192.724 236.866 195.358C236.909 196.567 237.168 197.776 237.254 198.985C237.384 201.1 237.772 203.173 238.506 205.159C239.758 208.699 241.226 212.11 243.299 215.219C243.86 216.082 244.249 216.946 244.033 217.939C243.558 219.925 243.687 221.954 243.601 223.984C243.601 224.674 243.73 225.452 243.212 226.099L242.997 226.186Z" fill="#FFB78A"/>
<path d="M243.99 139.922C242.004 144.283 240.19 148.687 238.55 153.22C238.722 153.35 238.938 153.479 239.111 153.609C241.097 153.091 243.126 153.091 245.155 153.307C249.084 153.695 252.927 154.688 256.597 156.286C259.317 157.452 261.735 159.006 263.764 161.122C267.218 164.662 270.111 168.634 272.313 173.081C272.442 173.34 272.702 173.599 272.917 173.815C273.565 172.909 274.299 172.002 274.903 171.052C276.717 168.375 278.919 165.957 281.034 163.539C281.337 163.194 281.725 162.849 282.071 162.546C283.193 161.597 284.445 161.251 285.913 161.553C288.936 162.115 291.915 162.762 294.98 163.194C298.132 163.669 301.284 163.755 304.177 161.985C306.422 160.603 308.106 158.617 309.358 156.329C309.919 155.336 310.394 154.3 310.869 153.264C312.337 150.025 314.755 147.521 317.518 145.319C319.504 143.765 321.663 142.513 323.951 141.39C324.771 141.002 325.549 140.613 326.326 140.181C326.801 139.922 327.276 139.577 327.707 139.231C329.219 137.893 329.478 135.993 328.096 134.266C326.498 132.323 324.858 130.424 323.303 128.481C320.972 125.588 318.856 122.522 317.475 119.025C316.482 116.435 315.834 113.801 316.439 110.995C316.698 109.656 316.654 108.274 317 106.893C317.129 106.375 317 105.77 316.913 105.209C315.445 105.209 314.064 105.727 312.639 106.116C309.962 106.806 307.285 107.325 304.479 107.368C302.363 107.368 300.291 107.843 298.262 108.361C291.742 109.958 286.345 113.326 282.373 118.853C280.991 120.752 279.739 122.782 278.876 124.983C278.055 127.056 276.544 128.481 274.515 129.301C273.695 129.646 272.831 129.906 272.011 130.208C266.139 132.28 260.224 134.353 254.352 136.382C250.898 137.591 247.444 138.757 243.99 139.922Z" fill="#FFB78A"/>
<path d="M212.73 321.649C212.989 320.828 212.86 320.051 212.687 319.231C210.874 310.768 209.017 302.306 207.204 293.843C205.52 285.942 203.793 277.998 202.109 270.097C200.727 263.62 199.346 257.101 197.921 250.625C197.662 249.372 197.316 248.12 197.057 246.825C193.819 246.134 190.797 244.839 187.645 243.846C185.832 243.242 183.975 242.723 182.119 242.162C181.212 244.148 180.694 246.264 180.219 248.379C179.183 253.129 177.844 257.792 177.153 262.584C176.808 264.916 176.074 267.161 175.599 269.449C174.52 274.933 173.44 280.373 172.534 285.899C172.188 287.972 172.059 290.087 171.8 292.16C171.497 294.88 171.584 297.643 171.066 300.363C170.936 300.924 170.979 301.486 170.979 302.047C170.979 305.285 170.979 308.523 170.979 311.761C170.979 312.97 171.066 314.179 171.282 315.388C171.454 316.338 171.325 317.331 171.368 318.281C171.454 320.397 171.152 322.512 171.713 324.585C171.972 324.714 172.275 324.8 172.534 324.93C173.268 325.06 173.958 325.016 174.692 324.93C175.254 324.844 175.815 324.757 176.376 324.714C181.212 324.326 186.048 324.023 190.84 323.592C194.553 323.246 198.223 322.858 201.936 322.599C203.793 322.469 205.606 322.124 207.463 322.253C208.154 321.821 208.931 321.778 209.708 321.778C210.701 321.778 211.737 321.735 212.73 321.692V321.649Z" fill="#FFB78A"/>
<path d="M243.99 139.921C247.444 138.755 250.898 137.589 254.352 136.38C260.224 134.308 266.139 132.235 272.011 130.206C272.831 129.904 273.694 129.602 274.515 129.299C276.587 128.479 278.055 127.054 278.876 124.982C279.739 122.78 280.991 120.794 282.373 118.851C286.345 113.324 291.742 109.957 298.261 108.359C300.291 107.841 302.363 107.409 304.479 107.366C307.242 107.323 309.962 106.805 312.639 106.114C314.064 105.769 315.445 105.25 316.913 105.207C317.302 104.646 317.172 104.042 317.086 103.437C316.784 103.178 316.611 102.876 316.957 102.487C316.827 102.055 316.741 101.624 316.611 101.192C315.92 99.8967 315.489 98.515 315.273 97.0471C312.121 89.2754 306.638 83.5331 299.557 79.2587C297.441 77.9634 295.196 76.8408 292.821 76.0205C292.303 76.1932 291.871 76.0205 291.569 75.5455C291.008 75.3297 290.447 75.157 289.885 74.9411C289.367 75.2001 288.936 75.0274 288.633 74.5957C287.899 74.3798 287.165 74.1639 286.431 73.9481C286 74.1639 285.654 74.0344 285.352 73.7322C284.92 73.6458 284.445 73.5163 284.013 73.4299C283.452 73.689 282.891 73.6026 282.416 73.2141C277.537 72.4801 272.658 72.4801 267.779 73.2141C267.348 73.6026 266.873 73.7753 266.355 73.3868C265.923 73.4731 265.491 73.6026 265.059 73.689C264.671 73.9912 264.282 74.1639 263.764 73.9481C263.462 74.0344 263.203 74.1207 262.901 74.2071C262.598 74.5525 262.21 74.6389 261.778 74.4662C261.476 74.5525 261.217 74.6389 260.914 74.7252C260.18 75.3297 259.49 75.3728 258.842 74.5525C255.949 72.6528 253.056 70.7962 250.207 68.8965C249.861 69.4146 250.293 69.6305 250.552 69.8895C254.136 73.3436 256.381 77.6612 258.065 82.281C260.526 88.9732 261.346 95.9677 261.778 103.005C261.864 104.776 261.562 106.546 261.519 108.359C261.346 112.59 260.569 116.735 259.446 120.794C258.41 124.68 256.77 128.263 254.309 131.458C251.934 134.567 248.868 136.51 244.896 136.769C244.551 137.848 244.249 138.884 243.903 139.964L243.99 139.921Z" fill="#824414"/>
<path d="M244.983 136.726C248.955 136.424 252.02 134.524 254.395 131.416C256.856 128.221 258.497 124.594 259.533 120.751C260.655 116.693 261.433 112.548 261.605 108.317C261.692 106.546 261.994 104.776 261.864 102.963C261.433 95.9252 260.612 88.9307 258.151 82.2385C256.467 77.6187 254.222 73.3443 250.639 69.847C250.38 69.588 249.905 69.3289 250.293 68.854C248.955 67.4724 247.141 66.9543 245.371 66.4793C242.306 65.659 239.456 66.2203 236.822 67.9905C236.477 68.2064 236.088 68.2927 235.7 68.4222C235.268 68.8972 234.88 69.4153 234.448 69.8902C233.368 71.0128 232.419 72.2217 231.685 73.5602C229.914 76.7552 228.403 80.0365 227.583 83.6633C226.633 87.8513 225.856 92.0394 225.942 96.357C226.029 100.243 225.64 104.129 226.417 107.971C226.763 109.612 226.935 111.296 227.237 112.98C227.842 115.916 228.576 118.808 229.612 121.615C229.785 122.047 229.785 122.565 229.828 123.04C230.389 123.428 230.648 123.989 230.951 124.551C232.375 127.357 233.93 130.077 236.089 132.366C238.506 134.913 241.399 136.51 244.94 136.769L244.983 136.726Z" fill="#E6A37B"/>
<path d="M272.917 173.815C272.701 173.555 272.442 173.34 272.313 173.081C270.111 168.633 267.218 164.661 263.764 161.121C261.735 159.005 259.274 157.451 256.597 156.285C252.927 154.688 249.127 153.695 245.155 153.306C243.169 153.09 241.097 153.09 239.111 153.608C238.895 153.608 238.636 153.608 238.42 153.608C238.204 153.954 237.902 154.256 237.729 154.601C233.843 163.884 230 173.167 226.115 182.45C226.028 182.666 225.899 182.881 225.812 183.097C225.381 184.047 224.733 184.997 224.603 185.99C224.474 187.199 225.337 188.278 225.812 189.358C227.021 192.121 228.317 194.798 229.612 197.518C232.246 203.174 234.793 208.873 237.47 214.529C239.326 218.415 240.881 222.387 242.996 226.144C243.558 225.539 243.342 224.762 243.385 224.028C243.514 221.999 243.385 219.969 243.817 217.983C244.033 216.99 243.687 216.127 243.083 215.263C240.967 212.155 239.499 208.744 238.29 205.203C237.599 203.217 237.168 201.145 237.038 199.029C236.952 197.82 236.693 196.611 236.65 195.402C236.52 192.812 237.038 190.264 237.384 187.674C237.815 184.522 238.765 181.543 239.974 178.607C242.003 173.555 245.242 169.54 249.991 166.777C252.106 165.525 254.352 165.525 256.597 165.87C261.044 166.561 264.541 168.849 267.434 172.26C270.499 175.887 272.701 180.032 274.385 184.436C274.774 185.429 275.033 186.422 275.205 187.458C275.767 191.042 276.242 194.668 276.673 198.252C277.235 203.045 277.062 207.837 276.889 212.586C276.76 215.997 276.587 219.365 276.587 222.776C276.587 225.064 276.112 227.266 275.939 229.554C275.767 231.886 275.378 234.217 275.076 236.549C274.903 237.758 274.731 238.967 274.601 240.176C274.299 242.809 274.083 245.486 273.781 248.12C274.86 247.559 275.378 246.523 275.983 245.573C279.178 240.694 281.855 235.513 284.229 230.159C285.524 227.266 286.302 224.201 286.647 221.049C286.777 219.581 286.69 218.156 286.431 216.688C285.568 211.809 284.143 207.103 282.848 202.354C281.509 197.518 279.825 192.812 278.444 187.976C278.271 187.415 278.055 186.897 277.882 186.379C276.199 182.147 274.558 177.959 272.874 173.771L272.917 173.815Z" fill="#8B8ADD"/>
<path d="M273.047 373.934C272.701 375.359 272.917 376.784 273.219 378.209C273.349 378.209 273.478 378.209 273.608 378.209C281.941 370.998 287.511 362.018 290.706 351.569C291.44 349.152 291.915 346.691 292.519 344.273C292.303 343.841 292.389 343.496 292.692 343.15C293.123 340.344 293.382 337.537 293.339 334.688C293.253 332.14 292.605 329.722 292.13 327.261C291.44 323.678 290.662 320.094 289.583 316.64C288.935 314.568 288.029 312.539 287.122 310.552C281.941 299.37 276.673 288.231 271.449 277.091C271.19 276.573 270.931 276.098 270.629 275.58C270.024 276.616 270.24 277.782 270.024 278.905C269.722 280.632 269.593 282.402 269.42 284.172C270.758 286.935 272.097 289.699 273.392 292.462C274.99 295.916 276.501 299.37 278.098 302.824C279.696 306.278 281.38 309.689 282.977 313.143C283.797 314.956 284.618 316.856 285.265 318.756C286.388 322.124 287.252 325.578 287.338 329.161C287.338 329.463 287.338 329.809 287.467 330.111C287.899 331.104 287.77 332.183 287.813 333.22C287.813 336.544 287.295 339.782 286.906 343.064C286.431 347.079 285.438 351.008 284.143 354.808C282.891 358.391 281.38 361.845 279.523 365.17C278.141 367.631 276.673 370.049 275.119 372.423C274.601 373.2 274.04 373.848 273.047 373.891V373.934Z" fill="#4C4D48"/>
<path d="M229.871 122.996C229.785 122.521 229.785 122.003 229.655 121.571C228.619 118.764 227.885 115.872 227.281 112.936C226.935 111.295 226.763 109.611 226.46 107.927C225.683 104.085 226.072 100.199 225.985 96.313C225.899 91.9954 226.676 87.8074 227.626 83.6193C228.446 80.0358 229.958 76.7112 231.728 73.5162C232.462 72.1778 233.412 70.9689 234.491 69.8463C234.923 69.3713 235.311 68.8532 235.743 68.3783C233.541 66.2195 230.907 65.9605 228.144 66.8671C226.374 67.4716 224.863 68.6374 223.654 70.0622C220.761 73.4299 219.293 77.402 218.732 81.7196C218.559 83.0149 218.43 84.267 218.3 85.5622C218.084 88.0664 218.516 90.5706 218.861 93.0316C219.509 97.4787 220.373 101.926 221.15 106.373C221.754 109.957 222.402 113.497 223.006 117.081C223.179 118.03 223.136 119.023 223.222 119.973C224.474 120.232 225.554 120.966 226.676 121.484C227.756 121.959 228.749 122.607 229.914 122.909L229.871 122.996Z" fill="#FFB88B"/>
<path d="M182.162 242.161C184.019 242.722 185.832 243.24 187.688 243.845C190.797 244.838 193.863 246.133 197.101 246.824C196.453 243.586 195.806 240.391 195.115 237.152C193.863 231.237 192.611 225.365 191.358 219.45C191.099 218.285 191.013 217.033 190.409 215.953C190.02 216.255 189.89 216.773 189.718 217.205C187.041 224.545 184.58 231.971 182.507 239.527C182.292 240.391 182.032 241.254 182.162 242.161Z" fill="#8B8ADD"/>
<path d="M212.73 321.648C211.737 321.648 210.701 321.735 209.708 321.735C208.931 321.735 208.154 321.735 207.463 322.21C207.334 323.548 207.722 324.714 208.327 325.923C210.917 330.974 213.378 336.069 215.925 341.121C216.53 342.33 216.875 343.711 217.739 344.791C218.127 345.309 218.43 345.913 219.207 345.87C219.768 345.87 220.114 345.179 220.114 344.1C220.114 343.452 220.027 342.805 219.898 342.2C218.3 336.026 216.746 329.852 215.191 323.678C215.148 323.462 215.019 323.246 214.932 322.987C214.76 322.037 214.198 321.605 213.249 321.692C213.076 321.692 212.946 321.692 212.774 321.648H212.73Z" fill="#494A45"/>
<path d="M273.047 373.934C274.083 373.934 274.644 373.243 275.119 372.466C276.673 370.091 278.141 367.674 279.523 365.213C281.38 361.888 282.934 358.434 284.143 354.85C285.438 351.051 286.431 347.122 286.906 343.107C287.295 339.825 287.856 336.587 287.813 333.262C287.813 332.226 287.899 331.147 287.467 330.154C287.338 329.852 287.338 329.506 287.338 329.204C287.252 325.62 286.431 322.166 285.265 318.799C284.618 316.899 283.841 315.042 282.977 313.186C281.38 309.732 279.696 306.321 278.098 302.867C276.501 299.413 274.99 295.959 273.392 292.505C272.097 289.741 270.715 286.978 269.42 284.215C268.988 286.633 269.334 289.051 269.506 291.468C269.506 291.857 269.722 292.246 269.679 292.677C269.636 297.729 270.37 302.694 270.758 307.702C271.017 311.329 271.061 314.999 271.363 318.626C271.665 321.95 271.579 325.275 271.708 328.6C271.795 331.017 272.183 333.435 272.14 335.896C272.14 338.487 272.14 341.077 272.226 343.668C272.313 345.913 272.442 348.201 272.226 350.446C272.183 351.094 272.14 351.742 272.226 352.389C272.658 354.98 272.529 357.57 272.529 360.161C272.529 363.226 272.529 366.335 272.874 369.401C272.96 370.221 272.701 370.998 272.658 371.818C272.615 372.552 272.529 373.286 272.874 373.977L273.047 373.934Z" fill="#686D65"/>
</svg>
