<svg width="497" height="497" viewBox="0 0 497 497" fill="none" xmlns="http://www.w3.org/2000/svg">
<path d="M194.3 72.6001C197 76.5001 196.2 81.3001 200.3 86.0001C202.7 88.7001 207.1 94.1001 207.4 97.6001C207.9 103.4 204.8 106.1 204.6 107.7C203.6 117.7 207.7 144.5 208.1 150.5C208.9 160.4 189.1 158.8 189.4 155.2C191.3 126.6 195.4 110.1 195.5 104.9C195.5 104.9 190.1 81.3001 189.9 77.5001C189.9 75.3001 192 69.2001 194.3 72.6001Z" fill="#ECAD83"/>
<path d="M209.2 183.6C208.8 172 210.1 160.3 208.2 150.6C205.2 152.3 192.6 155.7 189.5 155.3C189.8 158.9 187.6 186.7 187.6 186.7C187.9 195.5 181.8 246 186.6 261.5C187.7 265.5 189 269 190.3 271.9C192.8 277.4 224.4 269 224.3 260.8C220.4 243.6 214.3 214.7 212 206.9C209.6 199 209.2 183.6 209.2 183.6Z" fill="#333333"/>
<path d="M228 272.9C228 272.9 230.2 264.5 229.6 257.7C228.5 243.7 217.4 236.9 217.4 236.9C217.4 236.9 183.2 240.8 183.5 248C184 261.9 189 273.7 194.9 281.4C197.7 285 212.2 280.5 212.2 280.5L228 272.9Z" fill="#3D3C3C"/>
<path d="M240.4 353.1C242.4 331.2 244.9 324.6 246.8 319C248.8 313.4 249.4 306.4 249.6 305.4C248.9 305 248.2 304.6 247.7 304.3C244 302.5 241.6 302.9 240.4 303.1C240.4 303.1 236.7 304 235.4 307.3C232.9 313.7 232.1 351.4 232.1 351.4L240.4 353.1Z" fill="#ECAD83"/>
<path d="M259.8 362.2C254.9 358.9 241.5 356 241.2 355.3C240.8 354.5 240.6 353.6 240.6 351.4C240.6 351.4 235.5 351.8 232.2 351.3C232.2 355.8 232.2 358.9 232.4 359.6C233.2 363.8 235.9 362.8 244.4 363.3C251.9 363.8 264.2 365.2 259.8 362.2Z" fill="#ECAD83"/>
<path d="M255.2 332.3C266.3 337.6 290.4 334.1 296.2 328.3C299.3 325.2 305.6 317.2 299.9 309.3C290.9 297 285.6 302.6 248.6 285C238.9 281.7 231.3 276 229.5 266C229.5 266 219 274.9 211.3 277.8C203.6 280.7 195.1 281.4 195.1 281.4C214.1 313.6 241.4 312.7 248.7 322.7C248.5 322.6 247.5 328.6 255.2 332.3Z" fill="#FF8AA0"/>
<path d="M300.2 327.1C300.2 327.1 304.4 327.6 311.7 329.2L318.9 314.2C310.8 316.3 301.8 313.2 301.8 313.2C302 324.2 296.3 326.3 294.7 329.4L300.2 327.1Z" fill="#ECAD83"/>
<path d="M338.4 334.3C344.6 335.8 348.4 331.5 350.4 328.8C356.6 320.2 355 314.3 351.9 307.3C347.8 298 321.8 305.2 318 307.9C308.2 314.7 310.5 331.4 313 337.5C315.7 344.3 317.3 341.6 319.9 340.2C320 340.1 320.5 340.3 320.5 340.3C321.4 339.9 322.6 339.3 324.1 339.4C324.1 339.4 324.8 338.8 325.3 338.6C325.6 338.4 325.8 338.4 326.1 338.7C326.9 339.5 327.6 340.3 328.1 340.5C329.8 341 335.5 333.6 338.4 334.3Z" fill="#F6BB92"/>
<path d="M321.2 335.8C321.2 335.8 321.1 336.6 322.4 339.7C322.7 340 323.4 340.5 324 339.6C324.4 338.9 322.4 337.9 321.2 335.8Z" fill="#D6876B"/>
<path d="M321.2 335.8C321.2 335.8 319.9 337.1 320.5 340.2C320.7 340.6 321.2 340.7 321.4 340.7C322.5 340.7 322.5 339.6 322.5 339.6C321.1 336.7 321.2 335.8 321.2 335.8Z" fill="#CC785E"/>
<path d="M353.1 305.9C348.1 294.5 325.1 286.6 312.6 310.5C311.8 312.1 311.3 315.1 315.5 317.5C318.5 319.2 321.7 319.8 321.7 319.8C322.7 320 323.7 320.1 324.8 320.3C326 320.5 331.3 317.3 332 318.4C338.6 328.8 346.6 330.9 349.6 329.6C356.2 325.2 358.4 318 353.1 305.9Z" fill="#602F0F"/>
<path d="M324.2 316.5C319.9 320.4 320.6 322.6 322.2 325.5L329.3 320.4L331.8 317.5C330.1 314.6 328.5 312.6 324.2 316.5Z" fill="#F6BB92"/>
<path d="M328.1 295.7C329.2 292.1 335.2 290.9 341.5 293.1C347.8 295.3 352 300 350.9 303.7C349.8 307.3 345 307.6 338.7 305.4C332.4 303.2 327 299.4 328.1 295.7Z" fill="#4C230C"/>
<path d="M331.4 320.101C332.2 319.501 333.1 319.201 333.7 318.901C334.7 318.501 335.4 318.401 335.4 318.401L332.8 315.601C332.3 315.801 331.8 316.001 331.3 316.201C331.3 316.201 331.6 316.501 332 317.001C332 317.001 332 317.001 331.9 316.901C331.4 317.701 330.5 318.701 329 320.001C329.1 320.101 328.8 321.801 331.4 320.101Z" fill="#602F0F"/>
<path d="M327.6 293.7C328.8 289.9 335.3 288.7 342.2 291.1C349.1 293.5 353.8 298.6 352.6 302.4C351.4 306.2 346.2 306.5 339.3 304.1C332.4 301.7 326.4 297.5 327.6 293.7Z" fill="#602F0F"/>
<path d="M338.5 291.1C338.6 290.7 340.4 290.9 342.6 291.7C344.7 292.4 346.3 293.4 346.2 293.8C346.1 294.2 344.6 293.9 342.5 293.2C340.3 292.5 338.3 291.6 338.5 291.1Z" fill="#4C230C"/>
<path d="M186.7 73.2002C189.5 77.0002 188.9 81.9002 193.2 86.4002C195.7 89.0002 200.3 94.3002 200.8 97.7002C201.5 103.4 198.5 106.3 198.4 107.9C197.8 118 202.8 144.6 203.5 150.5C204.6 160.4 184.8 159.5 184.9 155.9C185.8 127.3 189.3 110.7 189.2 105.4C189.2 105.4 183 82.0002 182.6 78.2002C182.4 76.0002 184.3 69.9002 186.7 73.2002Z" fill="#F6BB92"/>
<path d="M205.6 183.5C204.8 172 205.7 160.2 203.4 150.5C200.4 152.3 188 156.2 184.9 155.9C185.4 159.5 184.1 187.4 184.1 187.4C184.7 196.2 180.4 246.9 185.8 262.2C187 266.2 188.5 269.6 189.9 272.4C192.6 277.8 223.9 268.2 223.5 260.1C219 243 211.8 214.3 209.2 206.6C206.5 198.9 205.6 183.5 205.6 183.5Z" fill="#3D3C3C"/>
<path d="M230.1 365.2C230.4 343.2 232.3 336.4 233.8 330.7C235.3 325 235.4 318 235.5 316.9C234.7 316.5 234.1 316.2 233.5 316C229.7 314.5 227.3 315.1 226.2 315.4C226.2 315.4 222.6 316.6 221.6 320C219.6 326.6 221.8 364.2 221.8 364.2L230.1 365.2Z" fill="#F6BB92"/>
<path d="M250.1 372.801C245 369.801 231.4 368.101 231 367.401C230.5 366.701 230.2 365.801 230.1 363.601C230.1 363.601 225 364.401 221.7 364.201C222 368.701 222.3 371.701 222.5 372.501C223.7 376.601 226.3 375.501 234.7 375.301C242.4 375.001 254.7 375.501 250.1 372.801Z" fill="#F6BB92"/>
<path d="M224.3 326.3C229.5 326.2 238 325.4 238 325.4C244.9 325 254 325 260.2 324.5C270.4 324.1 273.5 324.2 276.1 324.5C280.3 325 286.4 324.7 289.1 321.5C293.3 316.7 293.7 307.2 286.9 305.5C277 302.9 238.6 310.3 229.4 313.9C225.6 315.4 223.2 317 222.6 318C222 319 221.9 321.8 223.5 325C223.7 325.3 223.9 325.8 224.3 326.3Z" fill="#F6BB92"/>
</svg>
