<svg width="497" height="497" viewBox="0 0 497 497" fill="none" xmlns="http://www.w3.org/2000/svg">
<path d="M184.284 27.2753C187.744 32.196 186.719 38.2523 191.973 44.1823C195.049 47.5889 200.688 54.4022 201.073 58.8182C201.713 66.1361 197.741 69.5428 197.484 71.5615C196.203 84.1786 201.457 117.993 201.97 125.563C202.995 138.054 177.62 136.035 178.004 131.493C180.439 95.4079 185.694 74.5896 185.822 68.0287C185.822 68.0287 178.901 38.2523 178.645 33.4577C178.645 30.682 181.336 22.9855 184.284 27.2753Z" fill="#ECAD83"/>
<path d="M203.291 167.834C202.796 153.13 204.406 138.298 202.052 126.002C198.335 128.157 182.724 132.467 178.883 131.96C179.255 136.523 176.529 171.764 176.529 171.764C176.901 182.92 169.343 246.936 175.29 266.585C176.653 271.655 178.264 276.092 179.874 279.768C182.972 286.74 222.124 276.092 222 265.697C217.168 243.894 209.61 207.258 206.76 197.371C203.787 187.356 203.291 167.834 203.291 167.834Z" fill="#333333"/>
<path d="M226.861 281.281C226.861 281.281 229.623 270.482 228.87 261.741C227.489 243.743 213.556 235.002 213.556 235.002C213.556 235.002 170.626 240.015 171.002 249.271C171.63 267.14 177.906 282.309 185.312 292.207C188.827 296.835 207.028 291.051 207.028 291.051L226.861 281.281Z" fill="#3D3C3C"/>
<path d="M242.72 382.541C245.251 354.819 248.416 346.464 250.821 339.375C253.353 332.286 254.113 323.425 254.366 322.159C253.48 321.652 252.594 321.146 251.961 320.766C247.277 318.488 244.239 318.994 242.72 319.247C242.72 319.247 238.036 320.387 236.39 324.564C233.226 332.666 232.213 380.389 232.213 380.389L242.72 382.541Z" fill="#ECAD83"/>
<path d="M267.278 394.06C261.075 389.882 244.113 386.211 243.733 385.325C243.226 384.313 242.973 383.173 242.973 380.388C242.973 380.388 236.517 380.895 232.34 380.262C232.34 385.958 232.34 389.882 232.593 390.769C233.606 396.085 237.024 394.819 247.784 395.452C257.278 396.085 272.848 397.858 267.278 394.06Z" fill="#ECAD83"/>
<path d="M261.316 355.707C275.411 362.398 306.013 357.979 313.378 350.657C317.315 346.743 325.315 336.643 318.077 326.669C306.648 311.14 299.918 318.21 252.935 295.99C240.618 291.823 230.967 284.627 228.682 272.002C228.682 272.002 215.349 283.238 205.571 286.9C195.793 290.561 185 291.445 185 291.445C209.127 332.098 243.792 330.961 253.062 343.586C252.808 343.46 251.538 351.035 261.316 355.707Z" fill="#FF8AA0"/>
<path d="M318.045 350.02C318.045 350.02 323.426 350.669 332.777 352.743L342 333.298C331.624 336.02 320.095 332.002 320.095 332.002C320.351 346.261 313.05 348.983 311 353.002L318.045 350.02Z" fill="#ECAD83"/>
<path d="M366.614 358.479C374.398 360.353 379.169 354.982 381.68 351.61C389.464 340.87 387.455 333.502 383.563 324.76C378.416 313.145 345.773 322.137 341.002 325.509C328.698 334.001 331.586 354.858 334.725 362.476C338.114 370.968 340.123 367.596 343.387 365.848C343.513 365.723 344.141 365.973 344.141 365.973C345.271 365.473 346.777 364.724 348.661 364.849C348.661 364.849 349.539 364.099 350.167 363.849C350.544 363.6 350.795 363.6 351.172 363.974C352.176 364.973 353.055 365.973 353.682 366.222C355.817 366.847 362.973 357.605 366.614 358.479Z" fill="#F6BB92"/>
<path d="M345.002 360.002C345.002 360.002 344.897 361.115 346.263 365.429C346.579 365.847 347.315 366.542 347.945 365.29C348.366 364.316 346.263 362.924 345.002 360.002Z" fill="#D6876B"/>
<path d="M344.795 360.002C344.795 360.002 343.591 361.859 344.147 366.288C344.332 366.859 344.795 367.002 344.981 367.002C346 367.002 346 365.431 346 365.431C344.703 361.288 344.795 360.002 344.795 360.002Z" fill="#CC785E"/>
<path d="M385.229 322.784C378.866 308.457 349.597 298.528 333.69 328.565C332.672 330.576 332.036 334.346 337.38 337.362C341.198 339.499 345.27 340.253 345.27 340.253C346.543 340.504 347.815 340.63 349.215 340.881C350.742 341.133 357.487 337.111 358.378 338.494C366.777 351.564 376.957 354.203 380.775 352.569C389.174 347.04 391.974 337.991 385.229 322.784Z" fill="#602F0F"/>
<path d="M349.185 336.526C343.631 341.065 344.535 343.626 346.602 347.002L355.771 341.065L359 337.69C356.804 334.314 354.738 331.986 349.185 336.526Z" fill="#F6BB92"/>
<path d="M354.173 309.759C355.506 305.136 362.773 303.595 370.403 306.42C378.033 309.245 383.12 315.282 381.788 320.033C380.456 324.657 374.642 325.042 367.012 322.217C359.381 319.391 352.841 314.511 354.173 309.759Z" fill="#4C230C"/>
<path d="M357.913 340.769C358.926 340.009 360.065 339.629 360.825 339.25C362.091 338.743 362.977 338.617 362.977 338.617L359.685 335.072C359.052 335.325 358.419 335.579 357.787 335.832C357.787 335.832 358.166 336.212 358.673 336.844C358.673 336.844 358.673 336.844 358.546 336.718C357.913 337.731 356.774 338.997 354.875 340.642C355.002 340.769 354.622 342.921 357.913 340.769Z" fill="#602F0F"/>
<path d="M353.103 307.349C354.622 302.539 362.85 301.02 371.585 304.058C380.32 307.096 386.269 313.552 384.75 318.362C383.231 323.173 376.648 323.552 367.914 320.514C359.179 317.476 351.584 312.159 353.103 307.349Z" fill="#602F0F"/>
<path d="M367.018 303.262C367.147 302.742 369.48 303.002 372.33 304.041C375.051 304.951 377.124 306.25 376.994 306.769C376.865 307.289 374.921 306.899 372.2 305.99C369.35 305.08 366.759 303.911 367.018 303.262Z" fill="#4C230C"/>
<path d="M175.104 28.215C178.578 33.022 177.833 39.2204 183.168 44.9128C186.269 48.2018 191.975 54.9062 192.596 59.2071C193.464 66.4175 189.742 70.086 189.618 72.11C188.874 84.8863 195.077 118.535 195.945 125.998C197.31 138.522 172.747 137.383 172.871 132.829C173.988 96.6506 178.33 75.6519 178.205 68.9475C178.205 68.9475 170.514 39.3469 170.018 34.54C169.77 31.757 172.127 24.0406 175.104 28.215Z" fill="#F6BB92"/>
<path d="M198.433 167.963C197.425 153.34 198.56 138.336 195.661 126.002C191.879 128.291 176.25 133.25 172.343 132.868C172.973 137.446 171.334 172.922 171.334 172.922C172.09 184.111 166.671 248.579 173.477 268.033C174.989 273.119 176.88 277.442 178.645 281.003C182.048 287.869 221.499 275.662 220.995 265.363C215.323 243.62 206.248 207.126 202.971 197.335C199.568 187.545 198.433 167.963 198.433 167.963Z" fill="#3D3C3C"/>
<path d="M229.681 397.856C230.06 370.006 232.466 361.398 234.364 354.183C236.263 346.967 236.39 338.106 236.516 336.713C235.504 336.207 234.744 335.827 233.985 335.574C229.174 333.675 226.136 334.435 224.744 334.815C224.744 334.815 220.186 336.334 218.921 340.638C216.389 348.992 219.174 396.59 219.174 396.59L229.681 397.856Z" fill="#F6BB92"/>
<path d="M254.998 407.48C248.542 403.682 231.326 401.53 230.82 400.644C230.187 399.758 229.807 398.619 229.68 395.834C229.68 395.834 223.224 396.847 219.047 396.594C219.427 402.29 219.806 406.088 220.06 407.1C221.579 412.29 224.87 410.898 235.503 410.645C245.251 410.265 260.821 410.898 254.998 407.48Z" fill="#F6BB92"/>
<path d="M222.338 348.615C228.921 348.488 239.681 347.475 239.681 347.475C248.415 346.969 259.935 346.969 267.784 346.336C280.696 345.83 284.62 345.956 287.911 346.336C293.228 346.969 300.95 346.589 304.368 342.538C309.684 336.462 310.191 324.436 301.583 322.284C289.05 318.993 240.44 328.36 228.794 332.918C223.984 334.816 220.946 336.842 220.186 338.108C219.427 339.374 219.3 342.918 221.326 346.969C221.579 347.349 221.832 347.982 222.338 348.615Z" fill="#F6BB92"/>
</svg>
