<svg width="500" height="500" viewBox="0 0 500 500" fill="none" xmlns="http://www.w3.org/2000/svg">
<path d="M204.61 102.822C204.61 102.822 175.749 174.955 172.183 195.455C168.616 215.955 169.001 299.631 169.001 299.631C169.205 300.266 169.593 301.564 169.865 302.178C170.179 302.294 169.999 302.195 170.394 302.139C170.676 302.149 170.966 302.206 171.237 302.164C173.576 301.783 175.954 301.987 178.3 301.638C180.187 301.356 182.11 301.327 184.011 301.148C187.031 300.862 190.051 300.534 193.071 300.244C195.868 299.976 198.669 299.747 201.467 299.472C202.751 299.345 204.028 299.126 205.316 299.01C207.002 298.858 208.635 298.456 210.286 298.124C210.826 297.609 211.182 297.034 211.316 296.254C211.902 292.896 213.331 289.813 214.551 286.662C216.1 282.669 217.709 278.7 219.247 274.703C220.302 271.966 221.088 269.14 221.783 266.293C222.538 263.196 222.563 260.038 222.506 256.874C222.468 254.725 222.147 252.63 221.614 250.534C218.217 237.15 214.872 223.755 211.539 210.356C210.667 206.857 209.881 203.336 209.221 199.787C209.066 198.958 208.822 198.143 208.575 197.335C208.134 195.889 208.127 194.474 208.607 193.021C209.295 190.932 210.075 188.879 210.907 186.844C212.361 183.291 213.546 179.661 214.368 175.901C215.151 172.32 215.938 168.743 216.527 165.127C217.024 162.068 217.515 159.006 217.751 155.912C217.825 154.956 217.977 154.011 218.086 153.058C218.245 151.658 218.39 150.257 218.555 148.857C218.799 146.786 219.081 144.718 219.296 142.644C219.487 140.796 219.6 138.936 219.765 137.084C220.203 132.142 220.612 127.199 221.102 122.264C221.395 119.294 221.801 116.33 222.193 113.371C222.327 112.369 222.489 111.363 222.993 110.453C223.12 110.224 223.099 109.913 223.145 109.642C221.071 108.823 218.996 107.998 216.915 107.193C215.663 106.71 214.403 106.251 213.137 105.807C210.29 104.809 207.499 103.655 204.596 102.815" fill="#6A6D66"/>
<path d="M245.31 393.361C246.139 393.396 246.933 393.657 247.78 393.657C249.357 393.657 250.838 393.198 252.355 392.899C252.68 392.835 252.997 392.729 253.318 392.645C253.241 391.946 253.657 391.35 253.71 390.669C253.742 390.256 254.084 389.981 254.412 389.762C254.691 389.575 254.994 389.42 255.304 389.286C256.43 388.799 257.227 387.981 257.894 386.958C259.76 384.1 260.554 380.922 260.744 377.574C260.815 376.35 260.783 375.129 260.497 373.891C260.074 372.06 260.381 371.474 261.82 370.257C261.471 369.979 261.044 369.756 260.79 369.407C259.848 368.123 258.666 367.086 257.502 366.02C254.038 362.852 249.953 360.993 245.384 360.073C244.118 359.815 242.82 359.797 241.567 359.402C239.581 358.778 237.56 358.28 235.556 357.709C232.529 356.845 229.449 356.153 226.514 354.968C222.182 353.215 217.783 351.631 213.32 350.251C208.798 348.854 204.476 346.939 200.059 345.263C198.627 344.935 197.378 344.159 196.009 343.661C193.106 342.607 190.164 341.781 187.035 341.862C186.026 341.89 185.003 341.792 184.011 341.933C182.368 342.169 180.678 342.338 179.245 343.337C179.111 343.428 178.935 343.506 178.776 343.51C178.102 343.524 177.612 343.862 177.192 344.346C176.839 344.751 176.413 344.977 175.859 344.907C175.718 346.021 175.531 347.136 175.439 348.254C175.227 350.816 175.749 353.292 176.31 355.772C177.496 361.014 179.39 366.013 181.387 370.98C182.71 374.272 183.93 377.609 185.253 380.901C187.042 385.342 188.813 389.791 190.873 394.123C192.058 396.613 193.088 399.182 194.168 401.722C195.576 405.041 197.008 408.35 198.348 411.698C199.375 414.259 200.268 416.873 201.238 419.456C201.77 420.877 202.278 422.317 202.91 423.7C203.848 425.763 205.288 427.383 207.425 428.289C208.209 428.621 209.002 428.861 209.874 428.854C211.906 428.84 213.938 428.822 215.966 428.886C219.018 428.981 222.045 428.617 225.078 428.445C227.707 428.293 230.352 428.095 232.942 427.51C234.043 427.259 235.143 426.984 236.149 426.473C238.202 425.432 239.172 423.626 239.26 421.414C239.302 420.341 238.699 419.357 237.987 418.528C237.62 418.105 237.207 417.692 236.738 417.396C235.027 416.316 233.351 415.184 231.411 414.492C229.612 413.847 227.89 412.989 226.112 412.27C222.926 410.982 219.741 409.698 216.527 408.488C215.744 408.192 215.324 407.758 215.148 406.989C214.597 404.561 213.588 402.286 212.749 399.958C212.516 399.316 212.318 398.681 212.234 398.007C211.722 397.583 211.613 396.945 211.405 396.373C209.052 389.981 206.709 383.582 204.37 377.186C203.982 376.128 203.615 375.066 203.252 374C203.199 373.849 203.16 373.63 203.347 373.549C203.474 373.492 203.665 373.517 203.806 373.563C204.018 373.63 204.219 373.743 204.42 373.841C210.022 376.621 215.617 379.408 221.223 382.178C225.819 384.446 230.427 386.69 235.03 388.944C235.842 389.339 236.618 389.769 237.334 390.337C237.944 390.821 238.632 391.265 239.359 391.54C241.035 392.182 242.661 393.004 244.506 393.11C244.778 393.124 245.042 393.276 245.31 393.364V393.361Z" fill="#F7BB92"/>
<path d="M210.297 298.135C208.646 298.463 207.01 298.869 205.327 299.02C204.039 299.137 202.766 299.359 201.478 299.482C198.68 299.754 195.879 299.983 193.082 300.255C190.062 300.544 187.046 300.872 184.022 301.158C182.121 301.338 180.198 301.366 178.311 301.648C175.965 302.001 173.587 301.793 171.248 302.174C170.977 302.22 170.687 302.16 170.405 302.153C170.067 302.234 170.098 302.107 169.865 302.178C169.488 303.222 169.629 304.728 169.844 305.772C170.017 306.612 169.985 307.452 170.091 308.288C170.49 311.48 170.215 314.698 170.522 317.897C170.61 318.829 170.596 319.781 170.656 320.727C170.892 324.385 171.675 327.952 172.257 331.557C172.854 335.244 174.039 338.757 175.171 342.292C175.291 342.662 175.492 343.008 175.658 343.365C176.018 341.971 176.981 341.04 178.082 340.221C180.287 338.581 182.862 338.027 185.511 337.847C186.954 337.748 188.408 337.787 189.875 338.076C191.071 338.313 192.32 338.387 193.502 338.729C195.064 339.181 196.606 339.699 198.137 340.246C198.822 340.489 199.474 340.846 200.116 341.195C200.878 341.611 201.496 342.154 201.573 343.125C201.587 343.312 201.813 343.477 201.944 343.657C202.236 343.495 202.543 343.354 202.819 343.167C208.272 339.498 213.726 335.822 219.18 332.153C219.505 331.934 219.854 331.755 220.193 331.561C219.914 330.686 219.346 329.97 218.806 329.26C216.584 326.336 215.392 322.96 214.358 319.496C213.455 316.472 212.936 313.375 212.425 310.274C212.181 308.782 212.121 307.258 211.987 305.748C211.864 304.351 211.8 302.943 211.617 301.557C211.455 300.329 211.176 299.116 210.301 298.149V298.135H210.297Z" fill="#F7BB92"/>
<path d="M295.045 414.086C296.488 414.548 297.948 414.442 299.391 414.125C304.577 412.992 308.891 410.325 312.419 406.424C316.427 401.989 318.734 396.761 319.394 390.792C319.849 386.665 319.249 382.706 317.799 378.847C317.626 378.388 317.28 377.944 317.626 377.418C317.136 377.365 316.794 377.15 316.642 376.642C316.092 374.815 314.857 373.386 313.675 371.985C312.08 370.098 310.207 368.489 308.069 367.163C306.171 365.985 304.118 365.272 302.03 364.626C301.349 364.415 300.591 364.376 299.913 364.115C299.031 363.776 298.118 363.752 297.257 363.977C296.47 364.182 295.701 364.185 294.918 364.207C294.523 364.217 294.121 364.178 293.74 364.256C291.873 364.623 289.997 364.958 288.155 365.42C282.994 366.711 278.136 368.754 273.571 371.484C273.187 371.714 272.802 371.95 272.329 371.978C271.843 372.007 271.497 371.795 271.32 371.276C271.25 371.068 271.275 370.832 271.253 370.606C270.901 370.934 270.548 371.266 270.195 371.594C269.758 372.003 269.292 372.37 268.706 372.553C268.611 372.779 268.611 372.994 268.812 373.16C269.161 373.442 269.504 373.742 269.878 373.982C271.296 374.896 272.728 375.792 274.157 376.688C275.49 377.528 276.827 378.36 278.164 379.193C278.528 379.418 278.729 379.729 278.722 380.163C278.718 380.558 278.718 380.95 278.715 381.345C278.69 384.273 278.665 387.201 278.641 390.129C278.641 390.524 278.648 390.916 278.644 391.311C278.644 391.801 278.828 392.178 279.279 392.411C279.678 392.619 280.062 392.859 280.468 393.053C281.636 393.607 282.81 394.151 283.985 394.687C286.391 395.784 288.772 396.934 291.217 397.936C292.067 398.285 292.466 398.726 292.607 399.604C293.016 402.159 293.5 404.699 293.934 407.249C294.318 409.521 294.678 411.796 295.048 414.072V414.086H295.045Z" fill="#7A4821"/>
<path d="M204.614 102.826C207.517 103.662 210.308 104.819 213.155 105.818C214.421 106.262 215.681 106.721 216.933 107.204C219.014 108.008 221.085 108.834 223.163 109.652C224.324 109.55 225.308 108.965 226.267 108.397C228.356 107.162 230.268 105.691 232.032 104.008C234.18 101.962 235.27 99.4536 235.637 96.5749C235.68 96.2398 235.697 95.8941 235.655 95.5625C235.5 94.3383 235.316 93.1142 235.136 91.8936C234.875 90.1156 234.597 88.3376 234.339 86.5596C233.81 82.8907 233.408 79.1971 232.632 75.567C231.852 71.9334 230.935 68.3315 229.538 64.8778C229.093 63.7806 228.571 62.7082 227.834 61.7733C226.405 59.9601 224.606 58.8206 222.214 58.8206C221.142 58.8206 220.069 58.7606 219 58.8276C217.155 58.9441 215.755 59.6884 214.746 61.3994C213.384 63.7171 212.488 66.1443 211.888 68.7513C210.77 73.6302 209.511 78.4774 208.325 83.3387C207.232 87.819 206.141 92.2993 205.087 96.7901C204.621 98.7692 204.385 100.784 204.61 102.823L204.614 102.826Z" fill="#F7BB92"/>
<path d="M295.045 414.086C294.675 411.81 294.318 409.535 293.93 407.263C293.496 404.712 293.013 402.172 292.604 399.618C292.463 398.74 292.064 398.295 291.214 397.95C288.769 396.944 286.388 395.798 283.982 394.701C282.807 394.164 281.632 393.621 280.465 393.067C280.059 392.873 279.674 392.633 279.276 392.425C278.824 392.192 278.641 391.815 278.641 391.324C278.641 390.929 278.634 390.538 278.637 390.143C278.662 387.215 278.687 384.287 278.711 381.358C278.711 380.963 278.715 380.572 278.718 380.177C278.722 379.743 278.524 379.432 278.161 379.207C276.824 378.374 275.487 377.538 274.153 376.702C272.725 375.802 271.292 374.91 269.874 373.996C269.497 373.753 269.155 373.456 268.809 373.174C268.608 373.012 268.608 372.793 268.703 372.567C266.964 372.426 265.51 371.445 263.898 370.927C263.838 371.213 263.926 371.474 264 371.749C264.18 372.394 264.452 373.054 264.452 373.71C264.452 376.458 264.791 379.235 264.11 381.941C263.658 383.733 263.09 385.507 262.304 387.19C261.676 388.537 260.66 389.589 259.601 390.612C258.578 391.603 257.46 392.411 256.073 392.827C255.668 392.951 255.153 392.961 254.952 393.473C256.426 394.609 258.031 395.54 259.728 396.288C260.293 396.535 260.476 396.856 260.497 397.424C260.547 398.655 260.667 399.886 260.716 401.118C260.748 401.901 260.667 402.68 260.557 403.467C260.3 405.323 260.547 407.168 260.984 408.977C261.291 410.247 262.042 411.189 263.302 411.673C264.671 412.198 266.05 412.675 267.546 412.611C267.828 412.6 268.114 412.65 268.389 412.611C269.719 412.431 270.484 413.094 271.031 414.23C271.786 415.8 272.598 417.342 273.402 418.883C274.291 420.591 274.559 420.693 276.267 419.755C279.124 418.185 281.953 416.566 284.793 414.968C285.82 413.927 286.991 413.962 288.363 414.202C290.177 414.516 292.05 414.502 293.898 414.615C294.353 414.643 294.812 414.604 295.041 414.1V414.086H295.045Z" fill="#F7BB92"/>
<path d="M319.341 376.734C320.297 376.656 321.041 376.117 321.694 375.503C323.783 373.541 325.356 371.227 326.224 368.475C326.425 367.833 326.573 367.159 326.622 366.493C326.996 361.55 325.956 357.056 322.241 353.503C320.805 352.128 319.069 351.168 317.263 350.353C316.752 350.12 316.219 349.93 315.697 349.715C311.979 348.18 308.151 347.926 304.256 348.85C297.878 350.364 292.015 353.048 286.631 356.777C283.382 359.028 280.324 361.529 277.315 364.087C275.6 365.54 274.048 367.177 272.686 368.98C273.092 368.98 273.445 368.874 273.787 368.634C274.429 368.186 275.085 367.742 275.776 367.375C279.357 365.484 283.037 363.84 286.956 362.771C290.367 361.84 293.8 361.078 297.366 361.159C299.381 361.205 301.406 361.014 303.399 361.501C305.202 361.942 306.969 362.443 308.514 363.533C309.019 363.889 309.558 364.189 310.091 364.5C312.448 365.882 314.494 367.59 315.947 369.943C316.124 370.229 316.357 370.476 316.558 370.744C316.999 371.322 317.514 371.862 317.856 372.497C318.579 373.823 319.38 375.136 319.341 376.734Z" fill="#7A4821"/>
<path d="M220.193 331.54C219.855 331.738 219.505 331.918 219.181 332.133C213.727 335.802 208.273 339.478 202.819 343.146C202.544 343.333 202.237 343.475 201.944 343.637C201.425 344.304 200.72 344.755 200.06 345.26C204.473 346.935 208.798 348.851 213.321 350.248C217.787 351.627 222.183 353.215 226.515 354.965C229.45 356.15 232.526 356.841 235.557 357.706C237.557 358.277 239.582 358.775 241.568 359.399C242.82 359.794 244.119 359.812 245.385 360.069C249.954 360.994 254.039 362.853 257.503 366.017C258.667 367.082 259.849 368.12 260.791 369.404C261.045 369.753 261.472 369.972 261.821 370.254C262.417 370.325 262.946 370.698 263.571 370.653C262.347 369.492 261.147 368.3 259.891 367.171C256.321 363.971 252.758 360.768 249.135 357.632C247.562 356.27 245.847 355.067 244.2 353.786C237.74 348.766 231.475 343.52 225.682 337.731C223.964 336.017 222.356 334.207 220.881 332.274C220.68 332.009 220.426 331.783 220.197 331.54H220.193Z" fill="#8A8AD9"/>
<path d="M245.31 393.36C245.042 393.272 244.777 393.124 244.506 393.106C242.661 393 241.034 392.178 239.359 391.536C238.635 391.257 237.948 390.816 237.334 390.333C236.618 389.765 235.838 389.335 235.03 388.94C230.426 386.685 225.819 384.442 221.222 382.173C215.617 379.404 210.022 376.617 204.42 373.837C204.218 373.738 204.017 373.626 203.806 373.558C203.661 373.513 203.474 373.488 203.347 373.544C203.16 373.625 203.202 373.844 203.252 373.996C203.615 375.061 203.982 376.127 204.37 377.182C206.709 383.581 209.051 389.977 211.405 396.369C211.616 396.941 211.726 397.579 212.234 398.002C214.798 398.366 217.374 398.454 219.963 398.44C226.867 398.398 233.608 397.29 240.227 395.399C241.789 394.955 243.31 394.362 244.841 393.812C245.024 393.744 245.151 393.512 245.303 393.356H245.31V393.36Z" fill="#8A8AD9"/>
<path d="M319.341 376.734C319.38 375.136 318.576 373.82 317.856 372.497C317.51 371.866 316.995 371.326 316.558 370.744C316.357 370.476 316.121 370.229 315.948 369.943C314.494 367.59 312.448 365.879 310.092 364.5C309.559 364.189 309.016 363.886 308.515 363.533C306.969 362.443 305.202 361.942 303.399 361.501C301.403 361.014 299.381 361.205 297.367 361.159C293.8 361.074 290.368 361.836 286.956 362.771C283.037 363.843 279.354 365.484 275.777 367.375C275.085 367.742 274.429 368.183 273.787 368.634C273.445 368.874 273.092 368.983 272.686 368.98C272.136 369.46 271.628 369.978 271.251 370.613C271.272 370.839 271.247 371.075 271.318 371.284C271.494 371.802 271.84 372.01 272.327 371.986C272.799 371.961 273.184 371.721 273.568 371.492C278.133 368.761 282.991 366.719 288.152 365.427C289.997 364.965 291.871 364.63 293.737 364.263C294.118 364.189 294.523 364.228 294.915 364.214C295.698 364.189 296.467 364.186 297.254 363.985C298.115 363.762 299.028 363.783 299.91 364.122C300.588 364.383 301.35 364.426 302.027 364.634C304.115 365.279 306.169 365.992 308.067 367.17C310.204 368.497 312.078 370.102 313.672 371.993C314.854 373.393 316.089 374.822 316.639 376.649C316.791 377.157 317.137 377.369 317.623 377.425C318.251 377.337 318.826 377.115 319.341 376.737V376.734Z" fill="#5B3617"/>
<path d="M200.056 345.263C200.716 344.758 201.421 344.307 201.94 343.64C201.813 343.463 201.587 343.294 201.573 343.111C201.499 342.144 200.882 341.601 200.116 341.181C199.474 340.832 198.825 340.475 198.137 340.232C196.606 339.685 195.061 339.167 193.501 338.715C192.32 338.373 191.074 338.299 189.875 338.062C188.407 337.773 186.957 337.734 185.511 337.833C182.858 338.013 180.283 338.57 178.082 340.207C176.981 341.026 176.018 341.957 175.658 343.351C175.725 343.869 175.792 344.384 175.859 344.903C176.413 344.973 176.84 344.748 177.193 344.342C177.612 343.862 178.099 343.52 178.777 343.506C178.935 343.506 179.112 343.428 179.246 343.333C180.678 342.334 182.368 342.169 184.012 341.929C185.003 341.784 186.026 341.883 187.035 341.858C190.164 341.774 193.103 342.603 196.01 343.657C197.375 344.155 198.627 344.931 200.06 345.259H200.056V345.263Z" fill="#DDA781"/>
<path d="M263.57 370.652C262.946 370.701 262.417 370.327 261.821 370.253C260.381 371.47 260.074 372.056 260.498 373.887C260.784 375.125 260.815 376.345 260.745 377.57C260.554 380.917 259.76 384.096 257.894 386.953C257.228 387.977 256.43 388.791 255.305 389.282C254.994 389.416 254.691 389.575 254.412 389.758C254.081 389.977 253.742 390.252 253.71 390.665C253.657 391.342 253.241 391.942 253.319 392.64C253.791 393.06 254.314 393.378 254.956 393.455C255.157 392.944 255.672 392.933 256.077 392.81C257.464 392.393 258.582 391.585 259.605 390.594C260.66 389.571 261.68 388.523 262.308 387.172C263.094 385.486 263.662 383.715 264.114 381.923C264.795 379.217 264.459 376.441 264.456 373.693C264.456 373.04 264.184 372.38 264.004 371.731C263.927 371.456 263.842 371.195 263.902 370.909C263.839 370.764 263.754 370.648 263.574 370.648L263.57 370.652Z" fill="#DDA781"/>
</svg>
