<svg width="500" height="500" viewBox="0 0 500 500" fill="none" xmlns="http://www.w3.org/2000/svg">
<path d="M166.507 239.925C166.197 239.869 165.883 239.812 165.573 239.756C165.389 239.837 165.244 239.777 165.125 239.626C164.708 239.548 164.295 239.474 163.879 239.4C163.696 239.488 163.555 239.424 163.435 239.276C163.015 239.216 162.595 239.156 162.172 239.096C161.875 239.227 161.625 239.16 161.41 238.931C160.63 238.814 159.854 238.701 159.074 238.585C158.584 238.969 157.97 238.789 157.43 238.938C157.385 239.156 157.367 239.386 157.293 239.597C155.903 243.69 154.474 247.771 153.116 251.874C151.934 255.444 150.558 258.951 149.571 262.584C150.392 263.466 151.483 263.964 152.506 264.539C154.809 265.84 157.145 267.089 159.477 268.349C172.124 275.168 184.788 281.955 197.414 288.813C206.375 293.682 215.286 298.649 224.222 303.563C225.704 304.378 227.203 305.154 228.692 305.958C230.974 307.19 233.246 308.435 235.529 309.663C239.748 311.931 244.239 313.257 249.001 313.847C252.469 314.277 255.732 313.815 258.9 312.421C259.517 312.15 260.142 311.889 260.763 311.624C262.692 310.679 264.393 309.43 265.829 307.818C266.947 306.562 267.991 305.232 269.304 304.156C269.515 303.979 269.667 303.729 269.854 303.521C271.36 301.824 272.464 299.891 273.406 297.827C274.14 296.222 274.641 294.581 274.881 292.846C274.944 292.401 275.04 291.96 275.093 291.516C275.354 289.343 275.689 287.184 275.657 284.979C275.636 283.621 275.343 282.308 275.269 280.968C275.146 280.597 275.008 280.23 274.899 279.856C274.68 279.105 274.571 278.308 274.242 277.609C273.689 276.434 273.315 275.203 272.881 273.986C272.655 273.351 272.468 272.699 272.182 272.092C270.965 269.499 269.713 266.92 268.482 264.334C267.469 262.203 266.383 260.111 265.423 257.952C264.008 254.77 262.431 251.662 260.922 248.523C259.383 245.333 257.849 242.144 256.297 238.962C256.043 238.444 255.894 237.918 255.937 237.343C255.806 237.163 255.647 236.994 255.549 236.796C254.254 234.168 252.97 231.533 251.682 228.901C249.428 224.294 247.209 219.672 244.898 215.097C244.397 214.102 244.136 213.146 244.14 212.045C244.161 201.448 244.15 190.85 244.154 180.249C244.154 175.854 244.161 171.458 244.168 167.059C243.575 166.413 242.859 166.068 241.984 165.898C239.607 165.436 237.321 164.575 234.911 164.247C234.576 164.201 234.244 164.103 233.909 164.099C231.87 164.074 229.873 163.708 227.859 163.468C226.406 163.295 224.935 163.281 223.471 163.228C220.768 163.126 218.062 162.91 215.357 163.041C213.275 163.143 211.197 163.288 209.137 163.641C207.472 163.926 205.793 164.12 204.117 164.336C202.547 164.537 201.013 164.882 199.492 165.316C199.005 165.454 198.497 165.574 198.056 165.81C194.973 167.444 191.77 168.865 189.011 171.067C183.494 175.462 179.793 181.025 177.994 187.862C176.816 192.346 176.625 196.865 177.242 201.441C177.401 202.612 177.391 203.804 177.549 204.976C178.001 208.306 179.176 211.41 180.604 214.43C182.76 218.988 185.48 223.2 188.584 227.158C190.218 229.243 191.95 231.251 193.671 233.268C194.585 234.341 195.605 235.315 196.889 235.957C197.291 235.406 197.862 235.399 198.409 235.583C198.938 235.759 199.439 236.038 199.93 236.309C201.648 237.265 203.359 238.236 205.073 239.199C206.202 239.83 207.338 240.447 208.46 241.086C210.559 242.282 212.647 243.495 214.743 244.695C216.598 245.753 218.461 246.798 220.313 247.859C222.458 249.087 224.599 250.322 226.744 251.553C228.254 252.421 229.764 253.289 231.274 254.156C231.719 254.414 232.092 254.756 232.361 255.194C232.41 255.275 232.421 255.416 232.392 255.511C232.339 255.688 232.181 255.786 232.004 255.744C230.752 255.437 229.507 255.102 228.254 254.806C223.947 253.779 219.643 252.745 215.325 251.758C214.235 251.507 213.205 251.017 212.069 250.953C211.652 250.632 211.144 250.544 210.658 250.431C206.438 249.433 202.212 248.456 197.993 247.447C189.886 245.51 181.783 243.552 173.672 241.612C171.534 241.1 169.393 240.62 167.252 240.126C166.955 240.236 166.708 240.151 166.504 239.922L166.507 239.925Z" fill="#696C65"/>
<path d="M275.272 280.96C275.35 282.301 275.643 283.617 275.661 284.971C275.692 287.176 275.354 289.335 275.096 291.508C275.043 291.953 274.948 292.394 274.884 292.838C274.641 294.574 274.14 296.214 273.41 297.819C272.468 299.883 271.364 301.816 269.857 303.513C269.67 303.721 269.522 303.975 269.307 304.148C267.995 305.224 266.95 306.554 265.832 307.81C264.396 309.422 262.699 310.675 260.766 311.617C261.013 311.938 260.876 312.234 260.738 312.558C259.087 316.51 257.432 320.461 255.81 324.426C253.46 330.162 251.16 335.919 249.015 341.737C246.754 347.868 244.454 353.989 242.224 360.134C239.458 367.765 236.865 375.459 234.294 383.156C233.902 384.331 233.373 385.46 232.943 386.621C232.216 388.575 231.461 390.523 230.815 392.502C230.078 394.759 228.988 396.865 228.177 399.088C227.517 400.894 227.019 402.764 227.21 404.704C227.34 406.041 227.556 407.399 227.947 408.68C228.621 410.892 229.531 413.019 230.84 414.956C231.401 415.789 232.099 416.349 233.048 416.688C234.16 417.083 235.229 417.605 236.326 418.046C236.686 418.191 237.074 418.353 237.451 418.364C239.254 418.406 241.035 418.717 242.845 418.724C245.999 418.734 249.149 419.009 252.3 419.158C254.663 419.27 257.037 419.228 259.387 419.457C261.976 419.708 264.566 419.708 267.155 419.775C267.324 419.778 267.501 419.771 267.66 419.81C269.116 420.174 270.559 420.064 272.009 419.736C273.103 419.489 274.214 419.292 275.325 419.122C276.14 418.999 276.821 418.667 277.407 418.092C277.685 417.817 277.989 417.549 278.324 417.348C279.192 416.826 279.516 415.976 279.59 415.069C279.774 412.776 279.326 410.613 278.193 408.571C277.371 407.089 276.179 405.995 274.853 405.05C273.156 403.843 271.392 402.725 269.607 401.653C267.434 400.347 265.194 399.151 263.006 397.871C260.671 396.502 258.332 395.144 255.884 393.98C255.58 393.835 255.28 393.673 254.991 393.493C254.649 393.281 254.589 392.974 254.762 392.618C254.885 392.364 255.009 392.11 255.136 391.86C258.498 385.15 261.853 378.44 265.229 371.737C267.081 368.061 268.961 364.396 270.849 360.737C271.702 359.083 272.57 357.435 273.509 355.83C274.189 354.666 275.036 353.608 275.749 352.454C279.781 345.935 283.905 339.472 287.909 332.935C291.123 327.689 294.661 322.673 298.147 317.61C300.351 314.407 302.525 311.179 304.712 307.962C306.582 305.21 308.582 302.557 310.695 299.982C310.917 299.71 311.143 299.481 311.496 299.407C311.489 299.238 311.496 299.068 311.475 298.902C311.326 297.816 311.672 296.973 312.515 296.228C313.263 295.569 313.979 294.86 314.576 294.023C315.747 292.387 316.936 290.767 318.008 289.063C319.052 287.402 320.096 285.747 320.936 283.969C321.747 282.248 322.545 280.516 323.356 278.794C323.737 277.983 324.164 277.199 324.453 276.342C324.746 275.474 325.286 274.765 326.214 274.43C326.411 274.36 326.574 274.19 326.753 274.067C326.633 273.287 326.475 272.515 326.404 271.731C326.168 269.17 325.459 266.736 324.235 264.496C320.887 258.361 315.524 255.211 308.709 254.498C303.77 253.983 299.078 255.073 294.629 257.26C291.458 258.82 288.749 261.003 286.163 263.371C284.61 264.792 283.376 266.447 282.328 268.274C280.229 271.943 278.197 275.647 276.25 279.401C275.967 279.944 275.773 280.554 275.269 280.96H275.272Z" fill="#F7BB92"/>
<path d="M275.273 280.961C275.781 280.555 275.971 279.949 276.253 279.402C278.197 275.648 280.233 271.944 282.332 268.275C283.376 266.448 284.614 264.793 286.166 263.372C288.752 261.004 291.462 258.817 294.633 257.261C299.082 255.074 303.774 253.984 308.712 254.499C315.528 255.212 320.89 258.362 324.238 264.497C325.462 266.737 326.171 269.171 326.408 271.732C326.478 272.516 326.641 273.288 326.757 274.068C327.403 274.495 327.964 275.017 328.433 275.634C329.636 276.35 330.849 277.052 332.042 277.786C332.518 278.079 332.962 278.181 333.428 277.804C333.421 277.634 333.456 277.447 333.396 277.299C332.779 275.86 332.797 274.339 332.765 272.812C332.708 269.76 332.26 266.748 331.654 263.76C329.65 253.921 326.291 244.558 321.73 235.622C320.449 233.11 319.13 230.62 317.835 228.118C316.978 226.46 315.92 224.929 314.865 223.398C309.679 215.877 304.5 208.356 299.314 200.831C298.771 200.041 298.27 199.212 297.339 198.799C296.009 198.735 294.975 199.275 294.044 200.214C292.298 201.97 290.47 203.65 288.689 205.371C285.045 208.896 281.404 212.423 277.767 215.955C273.322 220.269 268.873 224.587 264.435 228.909C262.417 230.874 260.41 232.853 258.396 234.821C258.032 235.174 257.68 235.548 257.267 235.834C256.692 236.232 256.286 236.754 255.944 237.34C255.902 237.915 256.05 238.441 256.304 238.959C257.856 242.141 259.391 245.33 260.929 248.52C262.442 251.656 264.019 254.767 265.43 257.949C266.39 260.108 267.476 262.2 268.489 264.331C269.72 266.917 270.972 269.496 272.189 272.089C272.475 272.696 272.662 273.348 272.888 273.983C273.318 275.197 273.696 276.428 274.25 277.606C274.578 278.305 274.687 279.102 274.906 279.853C275.015 280.227 275.149 280.594 275.276 280.965L275.273 280.961Z" fill="#8A8AD9"/>
<path d="M255.943 237.339C256.289 236.754 256.691 236.228 257.266 235.833C257.679 235.547 258.035 235.173 258.395 234.82C260.41 232.852 262.417 230.873 264.435 228.908C268.876 224.586 273.321 220.268 277.766 215.954C281.403 212.422 285.044 208.895 288.688 205.37C290.47 203.649 292.294 201.97 294.043 200.213C294.975 199.274 296.008 198.735 297.338 198.798C294.474 195.545 291.461 192.43 288.272 189.506C286.247 187.647 284.152 185.862 281.908 184.235C280.13 182.948 278.327 181.699 276.524 180.457C273.882 178.637 271.06 177.113 268.227 175.61C264.093 173.419 259.806 171.578 255.358 170.114C252.962 169.323 250.563 168.558 248.098 167.993C246.789 167.694 245.483 167.358 244.171 167.059C244.168 171.454 244.161 175.853 244.157 180.249C244.157 190.846 244.164 201.444 244.143 212.045C244.143 213.146 244.4 214.102 244.901 215.096C247.212 219.672 249.431 224.297 251.685 228.901C252.973 231.532 254.257 234.168 255.552 236.796C255.651 236.993 255.809 237.159 255.94 237.343L255.943 237.339Z" fill="#F6BB92"/>
<path d="M353.674 265.255C351.825 265.29 350.16 265.974 348.534 266.758C345.027 268.444 342.06 270.839 339.527 273.778C337.813 275.764 336.571 278.029 335.774 280.53C335.767 281.105 335.904 281.627 336.204 282.128C338.3 285.667 340.392 289.208 342.456 292.768C342.84 293.435 343.337 293.904 344.015 294.246C345.373 294.927 346.735 295.615 348.061 296.359C350.517 297.742 352.898 299.252 355.42 300.515C356.323 300.967 357.145 301.584 358.024 302.088C358.659 302.452 359.022 302.988 359.188 303.672C359.399 304.547 359.611 305.426 359.795 306.304C360.408 309.225 361.065 312.136 361.59 315.074C361.767 316.065 362.144 316.672 363.044 317.138C366.293 318.831 369.507 320.588 372.724 322.341C373.556 322.796 374.435 323.181 375.165 323.812C376.132 323.71 376.767 323.022 377.437 322.447C379.021 321.089 380.369 319.509 381.617 317.833C384.415 314.09 386.408 309.959 387.495 305.422C388.179 302.572 388.398 299.672 388.158 296.716C387.805 292.391 386.44 288.369 384.807 284.407C384.637 283.994 384.366 283.617 384.422 283.137C383.953 282.654 383.395 282.23 383.036 281.677C381.649 279.549 379.952 277.697 378.167 275.902C376.135 273.856 373.807 272.215 371.376 270.702C370.283 270.021 369.175 269.305 367.979 268.86C365.46 267.922 362.888 267.117 360.313 266.338C359.661 266.14 359.198 265.865 358.895 265.287C358.645 265.287 358.405 265.258 358.249 265.022C356.986 264.923 355.724 264.821 354.464 265.078C354.238 265.29 353.96 265.276 353.681 265.244L353.674 265.255Z" fill="#7A4821"/>
<path d="M375.158 323.816C374.431 323.184 373.55 322.8 372.717 322.345C369.5 320.588 366.286 318.831 363.037 317.141C362.141 316.672 361.76 316.069 361.583 315.077C361.061 312.142 360.405 309.228 359.788 306.307C359.601 305.425 359.393 304.55 359.181 303.676C359.015 302.991 358.652 302.455 358.017 302.092C357.138 301.587 356.316 300.97 355.413 300.518C352.887 299.255 350.506 297.745 348.054 296.362C346.728 295.615 345.37 294.93 344.008 294.249C343.327 293.907 342.833 293.438 342.449 292.771C340.385 289.212 338.293 285.67 336.197 282.131C335.897 281.627 335.76 281.105 335.767 280.533C335.273 280.502 335.026 280.177 334.807 279.775C334.423 279.066 334.049 278.346 333.421 277.806C332.952 278.184 332.511 278.081 332.035 277.789C330.839 277.058 329.629 276.353 328.426 275.637C328.482 276.727 328.242 277.753 327.78 278.738C326.891 280.618 326.002 282.495 325.127 284.382C323.684 287.504 321.85 290.39 319.955 293.251C318.488 295.466 316.823 297.488 314.907 299.322C314.297 299.908 313.697 300.303 312.829 300.187C312.607 300.158 312.381 300.18 312.156 300.18C312.166 300.797 312.632 301.192 312.932 301.651C314.491 304.06 316.078 306.452 317.691 308.83C318.364 309.821 318.805 310.851 319.045 312.054C319.472 314.199 320.093 316.312 320.686 318.422C321.338 320.75 322.058 323.061 322.728 325.382C323.099 326.663 323.878 327.703 324.697 328.695C325.395 329.538 326.439 329.926 327.459 330.254C328.098 330.458 328.778 330.575 329.445 330.621C332.476 330.822 335.499 331.203 338.547 331.026C338.773 331.012 339.002 331.034 339.221 330.998C339.919 330.885 340.417 331.182 340.808 331.728C341.503 332.685 342.198 333.641 342.9 334.593C343.2 335.002 343.507 335.404 343.817 335.803C345.147 337.514 347.19 338.156 349.225 337.549C349.73 337.401 350.143 337.161 350.527 336.816C353.582 334.064 356.736 331.425 359.59 328.458C360.073 327.957 360.617 327.71 361.326 327.552C365.552 326.617 369.754 325.587 373.966 324.599C374.467 324.482 374.978 324.419 375.151 323.819L375.158 323.816Z" fill="#F7BB92"/>
<path d="M149.577 262.581C150.565 258.947 151.941 255.441 153.123 251.871C154.481 247.768 155.906 243.686 157.3 239.594C157.37 239.382 157.391 239.157 157.434 238.934C157.427 238.62 157.416 238.31 157.409 237.996C156.915 237.502 156.714 236.839 156.389 236.25C154.534 232.905 152.742 229.526 150.837 226.21C149.507 223.892 147.753 221.906 145.503 220.417C143.753 219.26 141.784 218.568 139.784 217.997C139.361 217.877 138.888 217.902 138.44 217.902C129.409 217.891 120.381 217.881 111.35 217.891C108.983 217.891 107 218.939 105.268 220.435C102.584 222.756 101.335 225.755 101.55 229.296C101.702 231.784 102.612 233.967 104.347 235.826C105.804 237.389 107.625 238.377 109.424 239.425C110.881 240.275 112.349 241.111 113.809 241.961C115.848 243.147 117.884 244.342 119.923 245.524C122.745 247.161 125.574 248.794 128.4 250.428C130.637 251.723 132.877 253.014 135.117 254.305C136.38 255.032 137.653 255.748 138.916 256.478C142.028 258.284 145.132 260.105 148.254 261.893C148.685 262.14 149.016 262.592 149.584 262.574L149.577 262.581Z" fill="#F7BC93"/>
<path d="M358.246 265.036C358.401 265.269 358.641 265.298 358.891 265.301C358.842 265.082 358.786 264.867 358.743 264.648C358.584 263.823 358.934 263.315 359.724 263.28C360.511 263.248 361.287 263.248 362.056 262.99C362.412 262.87 362.842 262.895 363.231 262.944C364.395 263.089 365.562 263.23 366.709 263.463C367.859 263.699 368.995 264.02 370.124 264.356C370.925 264.595 371.743 264.835 372.477 265.223C374.823 266.462 376.89 268.099 378.859 269.859C379.652 270.568 380.309 271.432 381.258 271.972C381.49 272.103 381.691 272.35 381.818 272.589C382.115 273.154 382.598 273.545 383.007 274.008C384.612 275.807 386.239 277.578 387.346 279.772C387.763 280.601 388.116 281.374 388.059 282.301C391.065 281.691 393.372 279.987 395.344 277.719C398.043 274.618 398.801 271.016 398.357 267.023C398.124 264.92 397.506 262.934 396.734 261.008C395.771 258.612 394.183 256.626 392.045 255.148C387.65 252.107 382.739 250.41 377.472 249.669C374.325 249.225 371.175 249.341 368.025 249.578C362.571 249.987 357.163 250.791 351.744 251.497C349.793 251.751 347.878 252.255 345.944 252.64C344.953 252.837 343.976 253.102 342.956 253.18C342.343 253.225 341.725 253.363 341.14 253.557C339.975 253.938 339.45 254.862 339.637 256.051C339.806 257.134 340.335 257.931 341.404 258.327C345.997 260.031 350.404 262.204 355.05 263.777C355.903 264.066 356.775 264.289 357.674 264.398C358.002 264.437 358.338 264.581 358.246 265.044V265.036Z" fill="#7A4821"/>
<path d="M212.072 250.957C213.208 251.02 214.235 251.514 215.328 251.761C219.643 252.749 223.95 253.782 228.258 254.809C229.51 255.109 230.755 255.44 232.008 255.747C232.181 255.79 232.343 255.691 232.396 255.515C232.424 255.419 232.417 255.282 232.364 255.197C232.096 254.756 231.722 254.417 231.278 254.16C229.768 253.289 228.258 252.424 226.748 251.556C224.606 250.325 222.465 249.087 220.317 247.863C218.461 246.804 216.598 245.76 214.746 244.698C212.651 243.499 210.559 242.285 208.463 241.089C207.341 240.447 206.202 239.834 205.077 239.202C203.362 238.239 201.651 237.265 199.933 236.313C199.443 236.041 198.942 235.763 198.413 235.586C197.862 235.403 197.294 235.41 196.892 235.96C197.04 236.595 197.538 237.001 197.919 237.481C200.872 241.202 204.389 244.339 208.103 247.27C209.381 248.279 210.668 249.277 211.959 250.272C212.224 250.477 212.305 250.685 212.079 250.964L212.072 250.957Z" fill="#464843"/>
<path d="M388.059 282.297C388.116 281.369 387.767 280.597 387.347 279.768C386.239 277.573 384.613 275.803 383.008 274.003C382.598 273.545 382.115 273.15 381.819 272.585C381.692 272.345 381.487 272.102 381.258 271.968C380.309 271.428 379.653 270.564 378.859 269.855C376.89 268.094 374.82 266.457 372.477 265.219C371.743 264.831 370.925 264.591 370.124 264.351C368.995 264.016 367.859 263.695 366.709 263.459C365.563 263.222 364.395 263.085 363.231 262.94C362.846 262.891 362.416 262.866 362.056 262.986C361.291 263.244 360.511 263.244 359.724 263.275C358.934 263.307 358.588 263.819 358.744 264.644C358.786 264.863 358.842 265.082 358.892 265.297C359.195 265.879 359.657 266.154 360.31 266.348C362.885 267.124 365.457 267.932 367.976 268.87C369.172 269.315 370.279 270.031 371.373 270.712C373.804 272.222 376.132 273.866 378.164 275.912C379.949 277.708 381.642 279.556 383.032 281.687C383.392 282.241 383.953 282.664 384.419 283.147C384.747 283.246 385.064 283.243 385.361 283.049C385.484 283.02 385.608 282.992 385.728 282.964C386.542 282.879 387.354 282.77 388.056 282.297H388.059Z" fill="#5C3717"/>
<path d="M312.159 300.176C312.385 300.176 312.614 300.155 312.833 300.183C313.7 300.3 314.297 299.905 314.91 299.319C316.826 297.484 318.495 295.463 319.959 293.248C321.853 290.387 323.688 287.501 325.13 284.379C326.002 282.491 326.894 280.615 327.783 278.734C328.249 277.75 328.489 276.723 328.429 275.633C327.96 275.012 327.399 274.494 326.753 274.063C326.573 274.187 326.411 274.356 326.213 274.427C325.289 274.758 324.746 275.471 324.453 276.339C324.164 277.196 323.737 277.979 323.356 278.791C322.548 280.516 321.751 282.244 320.936 283.966C320.096 285.744 319.052 287.399 318.008 289.06C316.935 290.764 315.747 292.387 314.575 294.02C313.979 294.856 313.263 295.565 312.515 296.225C311.672 296.969 311.33 297.813 311.474 298.899C311.496 299.065 311.488 299.234 311.496 299.404C311.714 299.661 311.937 299.919 312.155 300.176H312.159Z" fill="#DDA781"/>
<path d="M157.412 237.996C157.419 238.31 157.43 238.62 157.437 238.934C157.98 238.789 158.591 238.966 159.081 238.581C158.57 238.257 158.012 238.063 157.412 237.992V237.996Z" fill="#C2B6B2"/>
<path d="M161.413 238.931C161.628 239.16 161.882 239.227 162.175 239.096C161.957 238.871 161.696 238.846 161.413 238.931Z" fill="#C2B6B2"/>
<path d="M166.507 239.926C166.712 240.155 166.955 240.24 167.255 240.13C167.05 239.894 166.796 239.852 166.507 239.926Z" fill="#C2B6B2"/>
<path d="M353.674 265.255C353.953 265.287 354.228 265.301 354.457 265.089C354.168 265.015 353.903 265.05 353.674 265.255Z" fill="#7A4821"/>
<path d="M163.438 239.276C163.555 239.425 163.699 239.488 163.883 239.4C163.766 239.252 163.618 239.213 163.438 239.276Z" fill="#C2B6B2"/>
<path d="M165.128 239.625C165.244 239.777 165.389 239.837 165.576 239.755C165.456 239.607 165.308 239.565 165.128 239.625Z" fill="#C2B6B2"/>
<path d="M385.728 282.965C385.604 282.993 385.481 283.021 385.361 283.05C385.512 283.145 385.632 283.109 385.728 282.965Z" fill="#7A4821"/>
</svg>
