<svg width="500" height="500" viewBox="0 0 500 500" fill="none" xmlns="http://www.w3.org/2000/svg">
<path d="M159.655 225.656C159.32 225.595 158.981 225.534 158.646 225.473C158.448 225.561 158.292 225.496 158.163 225.333C157.713 225.249 157.268 225.169 156.819 225.089C156.621 225.184 156.468 225.116 156.339 224.956C155.886 224.891 155.433 224.826 154.976 224.762C154.656 224.902 154.386 224.83 154.153 224.583C153.312 224.457 152.474 224.335 151.633 224.209C151.104 224.624 150.441 224.43 149.859 224.59C149.809 224.826 149.79 225.074 149.71 225.302C148.21 229.719 146.668 234.124 145.203 238.551C143.927 242.404 142.442 246.189 141.376 250.11C142.263 251.062 143.44 251.599 144.544 252.219C147.03 253.624 149.55 254.972 152.067 256.331C165.716 263.691 179.384 271.016 193.01 278.417C202.681 283.671 212.298 289.032 221.942 294.335C223.541 295.215 225.159 296.052 226.766 296.921C229.229 298.249 231.681 299.593 234.144 300.918C238.697 303.366 243.544 304.798 248.684 305.434C252.426 305.898 255.948 305.399 259.367 303.895C260.033 303.602 260.707 303.321 261.377 303.035C263.46 302.015 265.295 300.667 266.845 298.927C268.051 297.572 269.178 296.136 270.595 294.975C270.823 294.785 270.987 294.514 271.189 294.29C272.814 292.458 274.006 290.372 275.023 288.145C275.814 286.412 276.355 284.642 276.614 282.769C276.683 282.289 276.785 281.813 276.842 281.334C277.124 278.988 277.486 276.658 277.452 274.279C277.429 272.813 277.113 271.397 277.033 269.95C276.9 269.55 276.751 269.154 276.633 268.751C276.397 267.94 276.279 267.079 275.925 266.325C275.327 265.058 274.924 263.729 274.455 262.415C274.212 261.73 274.01 261.026 273.701 260.371C272.388 257.572 271.036 254.789 269.708 251.999C268.615 249.699 267.442 247.441 266.407 245.111C264.88 241.677 263.178 238.323 261.549 234.935C259.889 231.493 258.233 228.051 256.557 224.617C256.283 224.057 256.123 223.49 256.169 222.869C256.028 222.675 255.857 222.492 255.75 222.279C254.353 219.443 252.967 216.599 251.577 213.759C249.145 208.786 246.75 203.799 244.256 198.861C243.715 197.787 243.434 196.755 243.438 195.567C243.46 184.13 243.449 172.693 243.453 161.253C243.453 156.509 243.46 151.765 243.468 147.017C242.828 146.321 242.055 145.947 241.111 145.765C238.545 145.266 236.078 144.337 233.478 143.983C233.116 143.933 232.758 143.827 232.396 143.823C230.196 143.796 228.041 143.4 225.867 143.141C224.298 142.955 222.711 142.94 221.131 142.883C218.214 142.772 215.294 142.54 212.374 142.681C210.128 142.791 207.885 142.947 205.662 143.328C203.865 143.636 202.053 143.846 200.244 144.078C198.55 144.295 196.894 144.668 195.253 145.136C194.727 145.285 194.179 145.414 193.703 145.669C190.376 147.432 186.919 148.967 183.941 151.342C177.987 156.086 173.993 162.09 172.051 169.469C170.78 174.308 170.574 179.185 171.24 184.123C171.412 185.387 171.4 186.674 171.572 187.938C172.059 191.532 173.327 194.882 174.869 198.141C177.195 203.06 180.13 207.606 183.481 211.878C185.244 214.128 187.113 216.294 188.971 218.472C189.957 219.629 191.057 220.68 192.443 221.373C192.877 220.779 193.494 220.772 194.084 220.969C194.655 221.16 195.196 221.461 195.725 221.754C197.579 222.786 199.426 223.833 201.276 224.872C202.494 225.553 203.72 226.22 204.931 226.909C207.196 228.199 209.45 229.509 211.712 230.804C213.714 231.946 215.724 233.073 217.723 234.219C220.038 235.544 222.349 236.876 224.664 238.205C226.293 239.142 227.923 240.078 229.552 241.015C230.032 241.293 230.436 241.662 230.725 242.134C230.778 242.222 230.79 242.374 230.759 242.477C230.702 242.667 230.531 242.774 230.341 242.728C228.989 242.397 227.645 242.035 226.293 241.715C221.645 240.607 217 239.492 212.34 238.426C211.163 238.155 210.052 237.626 208.826 237.558C208.376 237.211 207.828 237.116 207.303 236.994C202.749 235.917 198.188 234.862 193.635 233.773C184.886 231.683 176.14 229.57 167.387 227.476C165.08 226.924 162.769 226.406 160.458 225.873C160.138 225.991 159.872 225.9 159.651 225.652L159.655 225.656Z" fill="#696C65"/>
<path d="M277.037 269.942C277.12 271.389 277.436 272.809 277.455 274.271C277.49 276.651 277.124 278.981 276.846 281.326C276.789 281.806 276.686 282.282 276.618 282.761C276.355 284.635 275.814 286.405 275.026 288.137C274.01 290.365 272.818 292.451 271.192 294.282C270.991 294.507 270.831 294.781 270.599 294.968C269.182 296.129 268.055 297.564 266.848 298.919C265.299 300.659 263.468 302.011 261.381 303.028C261.648 303.374 261.499 303.694 261.351 304.044C259.569 308.308 257.783 312.572 256.032 316.852C253.496 323.042 251.014 329.256 248.699 335.534C246.259 342.151 243.776 348.757 241.37 355.389C238.385 363.624 235.587 371.927 232.811 380.235C232.389 381.503 231.818 382.721 231.353 383.974C230.569 386.083 229.754 388.184 229.058 390.32C228.262 392.757 227.085 395.03 226.21 397.429C225.498 399.378 224.961 401.396 225.166 403.49C225.307 404.933 225.54 406.398 225.962 407.78C226.689 410.168 227.672 412.463 229.084 414.554C229.69 415.452 230.443 416.057 231.468 416.423C232.667 416.849 233.82 417.413 235.004 417.889C235.393 418.045 235.812 418.22 236.219 418.231C238.164 418.277 240.087 418.612 242.04 418.62C245.444 418.631 248.844 418.928 252.244 419.088C254.795 419.21 257.357 419.164 259.893 419.412C262.687 419.682 265.482 419.682 268.276 419.754C268.459 419.758 268.649 419.75 268.821 419.792C270.393 420.185 271.95 420.066 273.515 419.712C274.695 419.446 275.894 419.233 277.094 419.05C277.973 418.917 278.708 418.559 279.34 417.938C279.641 417.641 279.968 417.352 280.33 417.135C281.266 416.571 281.617 415.654 281.697 414.675C281.895 412.201 281.411 409.867 280.189 407.662C279.302 406.063 278.015 404.883 276.584 403.863C274.752 402.561 272.849 401.354 270.922 400.196C268.577 398.788 266.159 397.497 263.799 396.115C261.278 394.638 258.754 393.172 256.112 391.916C255.784 391.76 255.461 391.584 255.149 391.39C254.779 391.162 254.715 390.831 254.901 390.446C255.034 390.172 255.168 389.898 255.305 389.627C258.933 382.386 262.554 375.145 266.197 367.911C268.196 363.944 270.225 359.988 272.262 356.04C273.184 354.254 274.12 352.476 275.133 350.744C275.868 349.488 276.782 348.345 277.551 347.1C281.902 340.065 286.353 333.09 290.674 326.035C294.143 320.373 297.961 314.959 301.723 309.496C304.102 306.039 306.448 302.555 308.808 299.083C310.826 296.114 312.985 293.25 315.265 290.471C315.505 290.178 315.749 289.931 316.13 289.851C316.122 289.668 316.13 289.485 316.107 289.306C315.947 288.134 316.32 287.224 317.23 286.42C318.037 285.708 318.81 284.943 319.453 284.041C320.717 282.274 322 280.527 323.158 278.688C324.285 276.894 325.412 275.109 326.318 273.19C327.193 271.332 328.054 269.463 328.93 267.605C329.341 266.729 329.801 265.884 330.114 264.959C330.43 264.022 331.012 263.257 332.013 262.895C332.227 262.819 332.402 262.636 332.596 262.503C332.467 261.662 332.295 260.828 332.219 259.983C331.964 257.219 331.199 254.592 329.878 252.174C326.264 245.553 320.477 242.153 313.122 241.384C307.792 240.828 302.728 242.005 297.927 244.365C294.504 246.048 291.58 248.405 288.79 250.959C287.114 252.494 285.782 254.279 284.651 256.252C282.386 260.211 280.193 264.209 278.091 268.26C277.787 268.846 277.577 269.505 277.033 269.942H277.037Z" fill="#F7BB92"/>
<path d="M277.037 269.942C277.585 269.504 277.791 268.849 278.095 268.259C280.193 264.208 282.39 260.211 284.655 256.251C285.782 254.279 287.118 252.493 288.794 250.959C291.584 248.404 294.508 246.044 297.931 244.365C302.732 242.004 307.796 240.828 313.126 241.384C320.481 242.153 326.268 245.553 329.881 252.174C331.203 254.591 331.968 257.218 332.223 259.982C332.299 260.828 332.474 261.661 332.6 262.503C333.297 262.963 333.902 263.527 334.408 264.193C335.707 264.966 337.016 265.724 338.303 266.516C338.817 266.832 339.297 266.942 339.799 266.535C339.792 266.352 339.83 266.15 339.765 265.99C339.099 264.437 339.118 262.796 339.084 261.147C339.023 257.854 338.539 254.603 337.884 251.378C335.722 240.76 332.097 230.655 327.175 221.011C325.793 218.3 324.369 215.613 322.971 212.913C322.046 211.124 320.904 209.471 319.766 207.819C314.169 199.702 308.58 191.585 302.983 183.464C302.397 182.611 301.856 181.717 300.851 181.271C299.416 181.203 298.3 181.785 297.295 182.798C295.411 184.694 293.438 186.506 291.516 188.364C287.583 192.167 283.654 195.975 279.728 199.786C274.931 204.442 270.13 209.102 265.341 213.766C263.163 215.887 260.997 218.023 258.823 220.147C258.431 220.528 258.05 220.931 257.604 221.24C256.984 221.67 256.546 222.233 256.177 222.865C256.131 223.486 256.291 224.053 256.565 224.613C258.24 228.047 259.896 231.489 261.556 234.931C263.19 238.315 264.892 241.673 266.414 245.107C267.45 247.437 268.623 249.695 269.715 251.995C271.044 254.785 272.396 257.569 273.709 260.367C274.018 261.022 274.219 261.726 274.463 262.411C274.928 263.721 275.335 265.05 275.933 266.321C276.287 267.075 276.405 267.936 276.641 268.747C276.759 269.15 276.903 269.546 277.041 269.946L277.037 269.942Z" fill="#8A8AD9"/>
<path d="M256.176 222.866C256.549 222.234 256.983 221.667 257.604 221.24C258.049 220.932 258.434 220.528 258.822 220.147C260.996 218.023 263.163 215.887 265.34 213.766C270.134 209.103 274.931 204.442 279.728 199.786C283.653 195.975 287.582 192.168 291.515 188.364C293.438 186.506 295.406 184.694 297.295 182.798C298.3 181.785 299.415 181.203 300.851 181.272C297.759 177.761 294.508 174.399 291.066 171.243C288.881 169.237 286.619 167.31 284.198 165.555C282.279 164.165 280.333 162.818 278.388 161.478C275.536 159.513 272.49 157.868 269.433 156.246C264.971 153.882 260.345 151.895 255.544 150.315C252.959 149.462 250.37 148.636 247.709 148.026C246.296 147.703 244.888 147.341 243.471 147.018C243.468 151.761 243.46 156.509 243.456 161.253C243.456 172.69 243.464 184.127 243.441 195.568C243.441 196.756 243.719 197.787 244.259 198.861C246.753 203.799 249.148 208.79 251.581 213.759C252.97 216.599 254.356 219.443 255.754 222.28C255.86 222.493 256.032 222.672 256.172 222.87L256.176 222.866Z" fill="#F6BB92"/>
<path d="M361.649 252.993C359.654 253.031 357.857 253.769 356.102 254.614C352.318 256.434 349.116 259.019 346.382 262.191C344.532 264.334 343.192 266.779 342.331 269.478C342.324 270.099 342.472 270.662 342.796 271.203C345.057 275.021 347.315 278.844 349.542 282.685C349.957 283.405 350.494 283.911 351.225 284.281C352.691 285.015 354.16 285.758 355.592 286.561C358.242 288.054 360.812 289.683 363.534 291.046C364.508 291.533 365.395 292.2 366.344 292.744C367.029 293.136 367.421 293.715 367.6 294.454C367.828 295.398 368.057 296.346 368.255 297.294C368.917 300.446 369.625 303.587 370.193 306.759C370.383 307.829 370.79 308.483 371.761 308.986C375.268 310.813 378.736 312.709 382.208 314.602C383.107 315.093 384.055 315.508 384.843 316.189C385.886 316.079 386.571 315.336 387.295 314.716C389.004 313.25 390.459 311.544 391.806 309.736C394.826 305.696 396.977 301.238 398.149 296.342C398.888 293.266 399.124 290.136 398.865 286.946C398.484 282.278 397.011 277.938 395.248 273.662C395.065 273.217 394.772 272.809 394.833 272.292C394.327 271.77 393.725 271.313 393.337 270.715C391.841 268.42 390.009 266.421 388.083 264.483C385.89 262.275 383.377 260.504 380.754 258.871C379.574 258.136 378.378 257.363 377.088 256.884C374.369 255.871 371.594 255.003 368.814 254.161C368.11 253.948 367.611 253.651 367.284 253.027C367.014 253.027 366.755 252.996 366.587 252.741C365.224 252.635 363.861 252.524 362.502 252.802C362.258 253.031 361.958 253.015 361.657 252.981L361.649 252.993Z" fill="#7A4821"/>
<path d="M384.835 316.193C384.051 315.512 383.099 315.097 382.2 314.605C378.728 312.709 375.26 310.813 371.753 308.99C370.786 308.483 370.375 307.832 370.185 306.762C369.621 303.595 368.913 300.45 368.247 297.298C368.045 296.346 367.82 295.402 367.592 294.457C367.413 293.719 367.021 293.14 366.335 292.748C365.387 292.203 364.5 291.537 363.526 291.05C360.8 289.687 358.23 288.057 355.584 286.565C354.152 285.758 352.686 285.019 351.217 284.284C350.482 283.915 349.949 283.409 349.534 282.689C347.307 278.848 345.049 275.025 342.788 271.206C342.464 270.662 342.315 270.099 342.323 269.482C341.79 269.447 341.524 269.097 341.288 268.663C340.873 267.898 340.469 267.121 339.791 266.539C339.285 266.946 338.809 266.836 338.295 266.52C337.004 265.732 335.698 264.97 334.4 264.197C334.461 265.374 334.202 266.482 333.703 267.544C332.744 269.573 331.785 271.599 330.84 273.635C329.283 277.005 327.303 280.119 325.259 283.207C323.675 285.598 321.878 287.779 319.811 289.759C319.152 290.391 318.505 290.818 317.568 290.692C317.328 290.662 317.085 290.684 316.841 290.684C316.853 291.351 317.355 291.777 317.679 292.272C319.362 294.872 321.075 297.454 322.815 300.02C323.542 301.09 324.018 302.201 324.277 303.5C324.737 305.814 325.407 308.095 326.047 310.372C326.751 312.884 327.528 315.378 328.251 317.883C328.651 319.265 329.493 320.389 330.376 321.458C331.13 322.368 332.257 322.787 333.357 323.141C334.046 323.362 334.781 323.488 335.5 323.537C338.771 323.754 342.034 324.165 345.323 323.975C345.567 323.96 345.814 323.983 346.05 323.945C346.804 323.823 347.341 324.143 347.764 324.733C348.514 325.764 349.264 326.796 350.021 327.824C350.345 328.266 350.676 328.7 351.011 329.13C352.447 330.977 354.651 331.67 356.848 331.015C357.392 330.855 357.838 330.596 358.253 330.223C361.55 327.253 364.953 324.405 368.034 321.203C368.555 320.663 369.141 320.396 369.907 320.225C374.468 319.216 379.002 318.104 383.548 317.038C384.089 316.913 384.641 316.844 384.827 316.197L384.835 316.193Z" fill="#F7BB92"/>
<path d="M141.384 250.108C142.45 246.187 143.934 242.402 145.21 238.549C146.676 234.121 148.214 229.716 149.718 225.3C149.794 225.072 149.817 224.828 149.862 224.588C149.855 224.249 149.843 223.914 149.836 223.575C149.303 223.042 149.086 222.327 148.735 221.691C146.733 218.081 144.799 214.434 142.743 210.855C141.307 208.354 139.415 206.21 136.986 204.604C135.098 203.355 132.973 202.609 130.815 201.992C130.358 201.863 129.848 201.889 129.364 201.889C119.617 201.878 109.875 201.866 100.128 201.878C97.5734 201.878 95.4337 203.009 93.5643 204.623C90.667 207.128 89.3193 210.364 89.5515 214.187C89.7152 216.871 90.6975 219.227 92.5706 221.234C94.143 222.921 96.1076 223.987 98.0493 225.117C99.6217 226.035 101.206 226.937 102.782 227.855C104.982 229.134 107.179 230.425 109.38 231.7C112.426 233.467 115.479 235.229 118.529 236.992C120.942 238.389 123.36 239.783 125.778 241.176C127.141 241.961 128.515 242.733 129.878 243.522C133.236 245.471 136.586 247.435 139.956 249.366C140.42 249.632 140.778 250.12 141.391 250.101L141.384 250.108Z" fill="#F7BC93"/>
<path d="M366.583 252.755C366.751 253.007 367.01 253.037 367.28 253.041C367.227 252.805 367.166 252.573 367.12 252.336C366.949 251.446 367.326 250.897 368.178 250.859C369.027 250.825 369.865 250.825 370.695 250.547C371.08 250.418 371.544 250.444 371.963 250.498C373.219 250.654 374.479 250.806 375.717 251.057C376.958 251.312 378.184 251.659 379.402 252.02C380.266 252.279 381.15 252.538 381.942 252.957C384.473 254.293 386.705 256.06 388.829 257.96C389.686 258.725 390.394 259.658 391.418 260.24C391.669 260.381 391.886 260.648 392.023 260.907C392.343 261.516 392.865 261.938 393.306 262.437C395.039 264.379 396.794 266.29 397.989 268.658C398.438 269.553 398.819 270.387 398.758 271.388C402.002 270.729 404.492 268.89 406.62 266.442C409.533 263.096 410.351 259.209 409.872 254.899C409.62 252.63 408.954 250.486 408.12 248.407C407.081 245.822 405.368 243.679 403.06 242.084C398.317 238.802 393.017 236.97 387.333 236.171C383.937 235.691 380.537 235.817 377.137 236.072C371.251 236.513 365.414 237.382 359.566 238.143C357.461 238.417 355.394 238.962 353.307 239.377C352.237 239.59 351.183 239.875 350.082 239.959C349.42 240.009 348.754 240.157 348.122 240.366C346.865 240.778 346.298 241.775 346.5 243.058C346.683 244.227 347.254 245.087 348.407 245.514C353.364 247.353 358.12 249.698 363.134 251.396C364.055 251.708 364.996 251.948 365.966 252.066C366.32 252.108 366.682 252.264 366.583 252.763V252.755Z" fill="#7A4821"/>
<path d="M208.83 237.562C210.055 237.63 211.163 238.163 212.344 238.43C217 239.496 221.649 240.611 226.297 241.719C227.649 242.043 228.993 242.401 230.344 242.732C230.531 242.778 230.706 242.671 230.763 242.481C230.794 242.378 230.786 242.229 230.729 242.138C230.44 241.662 230.036 241.297 229.556 241.019C227.927 240.078 226.297 239.146 224.668 238.209C222.357 236.88 220.046 235.544 217.727 234.223C215.724 233.081 213.714 231.954 211.715 230.808C209.454 229.513 207.196 228.204 204.935 226.913C203.724 226.22 202.494 225.557 201.28 224.876C199.429 223.837 197.583 222.786 195.729 221.758C195.2 221.465 194.659 221.164 194.088 220.974C193.494 220.776 192.881 220.783 192.447 221.377C192.607 222.062 193.144 222.5 193.555 223.018C196.741 227.035 200.537 230.419 204.546 233.583C205.925 234.672 207.314 235.75 208.708 236.823C208.993 237.044 209.081 237.269 208.837 237.569L208.83 237.562Z" fill="#464843"/>
<path d="M398.758 271.386C398.819 270.384 398.442 269.551 397.989 268.656C396.794 266.288 395.039 264.376 393.306 262.435C392.865 261.94 392.343 261.513 392.023 260.904C391.886 260.645 391.665 260.383 391.418 260.238C390.394 259.655 389.686 258.723 388.829 257.957C386.705 256.058 384.47 254.291 381.942 252.955C381.15 252.536 380.267 252.277 379.402 252.018C378.184 251.656 376.958 251.31 375.717 251.055C374.48 250.8 373.219 250.651 371.963 250.495C371.548 250.442 371.083 250.415 370.695 250.545C369.869 250.823 369.028 250.823 368.178 250.857C367.326 250.891 366.953 251.443 367.12 252.334C367.166 252.57 367.227 252.806 367.28 253.038C367.607 253.667 368.106 253.964 368.81 254.173C371.59 255.011 374.365 255.882 377.084 256.895C378.374 257.375 379.57 258.148 380.75 258.883C383.373 260.512 385.886 262.286 388.079 264.495C390.006 266.432 391.833 268.427 393.333 270.727C393.721 271.325 394.327 271.782 394.829 272.303C395.183 272.41 395.526 272.406 395.846 272.197C395.979 272.166 396.112 272.136 396.242 272.105C397.121 272.014 397.997 271.896 398.755 271.386H398.758Z" fill="#5C3717"/>
<path d="M316.845 290.681C317.089 290.681 317.336 290.659 317.572 290.689C318.509 290.815 319.152 290.388 319.815 289.756C321.882 287.776 323.683 285.595 325.263 283.204C327.308 280.116 329.287 277.002 330.844 273.632C331.785 271.596 332.748 269.57 333.708 267.541C334.21 266.479 334.469 265.371 334.404 264.194C333.898 263.524 333.293 262.964 332.596 262.5C332.402 262.633 332.227 262.816 332.013 262.892C331.016 263.25 330.429 264.019 330.113 264.956C329.801 265.881 329.341 266.726 328.929 267.602C328.058 269.463 327.197 271.329 326.318 273.187C325.412 275.106 324.285 276.891 323.158 278.685C322 280.524 320.717 282.275 319.453 284.038C318.81 284.94 318.037 285.705 317.23 286.417C316.32 287.221 315.95 288.13 316.107 289.303C316.129 289.482 316.122 289.665 316.129 289.848C316.365 290.125 316.605 290.403 316.841 290.681H316.845Z" fill="#DDA781"/>
<path d="M149.839 223.574C149.847 223.913 149.858 224.248 149.866 224.587C150.452 224.431 151.111 224.621 151.64 224.206C151.088 223.856 150.487 223.646 149.839 223.57V223.574Z" fill="#C2B6B2"/>
<path d="M154.157 224.582C154.39 224.829 154.664 224.901 154.98 224.761C154.744 224.517 154.462 224.49 154.157 224.582Z" fill="#C2B6B2"/>
<path d="M159.655 225.657C159.875 225.904 160.138 225.996 160.462 225.878C160.241 225.623 159.967 225.577 159.655 225.657Z" fill="#C2B6B2"/>
<path d="M361.649 252.993C361.949 253.027 362.246 253.042 362.494 252.814C362.182 252.734 361.896 252.772 361.649 252.993Z" fill="#7A4821"/>
<path d="M156.343 224.956C156.468 225.115 156.625 225.184 156.823 225.089C156.697 224.929 156.537 224.887 156.343 224.956Z" fill="#C2B6B2"/>
<path d="M158.166 225.333C158.292 225.497 158.448 225.561 158.649 225.474C158.52 225.314 158.36 225.268 158.166 225.333Z" fill="#C2B6B2"/>
<path d="M396.242 272.105C396.108 272.136 395.975 272.166 395.846 272.197C396.009 272.3 396.139 272.262 396.242 272.105Z" fill="#7A4821"/>
</svg>
