<svg width="497" height="497" viewBox="0 0 497 497" fill="none" xmlns="http://www.w3.org/2000/svg">
<path d="M386.711 271.683C373.366 273.917 361.07 280.593 351.728 290.318C341.363 330.52 388.429 322.659 389.031 326.193C392.299 339.997 402.154 350.278 412.385 359.393C436.665 359.499 442.027 325.943 441.732 308.123C463.286 289.278 404.307 245.294 396.889 270.897C396.506 272.087 389.155 271.273 386.711 271.683Z" fill="#602F0F"/>
<path d="M379.409 308.802C375.428 308.818 371.684 309.797 368.204 311.631C359.837 314.982 353.738 303.157 350.864 296.715C343.009 302.341 341.463 311.769 335.77 318.903C333.762 330.387 328.254 341.768 332.308 353.589C334.164 357.984 340.278 356.059 344.044 355.995C344.591 353.049 345.805 347.638 349.378 347.416C350.352 347.635 350.507 348.465 350.553 349.271C350.728 352.038 352.961 354.244 353.136 357.011C359.187 356.891 357.371 368.532 364.574 363.783C371.208 361.066 379.964 355.983 386.897 360.039C388.745 361.931 391.526 361.191 393.315 362.843C394.18 363.037 395.046 363.231 395.912 363.425C401.543 362.643 407.462 362.607 412.605 359.441C402.374 350.326 392.519 340.045 389.25 326.241C388.466 321.632 383.42 324.365 380.295 323.095C381.297 321.16 384.316 321.383 386.003 319.943C387.593 318.936 388.052 317.902 387.575 315.976C387.007 311.416 383.413 309.701 379.409 308.802Z" fill="#F6BB92"/>
<path d="M335.743 319.014C341.435 311.88 343.007 302.343 350.837 296.826C350.973 294.697 350.894 292.519 351.596 290.404C347.836 287.401 345.234 283.293 341.789 279.906C341.68 292.044 334.241 297.325 326.5 306.5C328.589 308.333 333.546 317.157 335.743 319.014Z" fill="#F7AB7B"/>
<path d="M352.893 357.072C352.718 354.305 350.461 352.207 350.31 349.332C350.264 348.526 350.109 347.695 349.135 347.477C345.562 347.698 344.456 353.133 343.801 356.055C345.561 359.86 347.12 356.459 349.174 357.943C351.385 359.234 351.493 359.258 352.893 357.072Z" fill="#CC785E"/>
<path d="M412.362 359.502C407.243 362.56 401.3 362.704 395.669 363.487C399.092 365.959 411.187 363.217 413.444 359.745C413.119 359.672 412.686 359.575 412.362 359.502Z" fill="#FEDFCB"/>
<path d="M393.072 362.901C392.292 361.817 391.113 362.007 389.923 361.74C390.581 363.366 391.76 363.175 393.072 362.901Z" fill="#FEDFCB"/>
<path d="M429.885 310.706C430.491 310.611 431.579 310.97 432.629 310.975C433.878 311.139 434.348 309.045 432.963 308.966C428.97 308.534 425.868 306.217 422.666 304.342C412.022 297.093 403.147 286.653 397.411 275.76C395.198 288.226 417.437 308.377 429.885 310.706Z" fill="#552000"/>
<path d="M199.897 318.851C205.459 319.759 211.525 316.229 217.39 316.027C219.008 304.43 262.992 295.051 274.114 288.496C275.934 281.235 274.417 274.075 274.215 266.814C267.946 258.545 269.665 246.746 266.531 237.065C263.801 225.568 263.194 213.769 261.273 202.071C260.565 194.407 256.419 186.642 257.329 178.978C263.598 161.834 270.272 143.681 267.441 125.126C267.238 123.815 266.126 121.596 268.249 121.394C242.162 107.679 214.357 116.352 202.931 144.286C196.965 168.187 201.111 193.096 206.166 216.795C225.074 298.884 234.175 263.991 191 287.992C198.684 296.06 202.324 307.657 199.897 318.851Z" fill="#3D3C3C"/>
<path d="M268.193 121C266.983 121.101 266.781 121.912 266.882 122.925C269 132.75 267.891 142.677 265.571 152.3C263.857 162.632 258.008 172.356 257 182.587C262.949 208.012 265.067 234.146 270.512 259.672C270.815 266.155 277.672 268.788 280.395 273.651C284.227 275.474 286.647 279.627 290.479 281.552C300.665 278.918 310.345 273.752 320.631 270.814C339.993 264.635 350.38 285.502 340.8 301C343.22 300.291 344.43 297.455 346.548 296.138C346.548 295.733 346.649 295.328 347.052 295.125C359.96 271.523 352.699 242.958 342.918 219.458C324.463 182.688 303.085 143.994 268.193 121Z" fill="#FF8AA0"/>
<path d="M341.454 300.869C348.488 289.818 345.226 271.635 330.138 270.028C316.171 269.425 303.835 278.768 290.582 281.581C269.988 292.33 245.623 298.056 224.112 308.102C211.674 313.025 216.772 329.5 215.65 339.948C215.956 366.871 214.427 394.196 213 420.818C215.956 430.161 237.263 428.151 245.623 429.256C256.939 427.85 272.129 437.193 280.999 427.649C286.708 418.608 246.133 413.786 239.812 410.069C236.04 408.763 239.302 397.813 239.71 394.497C240.016 392.79 239.506 386.36 241.239 386.26C239.506 375.611 244.298 364.058 245.725 353.309C247.866 347.482 246.031 338.742 251.74 335.025C277.125 326.185 303.122 317.545 328.303 308.705C333.5 306.5 341.454 301.083 341.454 300.869Z" fill="#F6BB92"/>
<path d="M200.247 318.362C202.665 307.349 199.138 296.037 191.38 288C166.998 294.45 142.818 302.387 118.335 309.135C114.003 310.325 109.872 307.15 105.64 309.432C99.6959 312.012 93.953 315.783 89.9229 320.843C84.1801 328.781 76.4221 334.337 67.8582 338.902C65.0371 340.787 60.5033 341.779 59.9995 345.649C60.3018 353.587 70.8807 348.526 75.3138 347.038C86.2958 342.771 97.9831 340.39 109.066 336.52C138.989 328.682 170.525 327.392 200.247 318.362Z" fill="#F6BB92"/>
<path d="M239 399.62C251.342 401.527 264.393 403.752 276.635 399.832C290.597 392.84 267.024 390.509 262.168 389.238C255.389 387.86 248.712 385 241.832 385C239.607 385.212 239.404 397.713 239 399.62Z" fill="#D89D75"/>
<path d="M274 288C279.286 286.3 284.262 284.1 289.445 282.2C290.17 281.9 290.896 281.7 291 280.8C286.957 278.9 284.573 274.8 280.634 273C278.768 274.3 277.213 276 275.14 276.9C275.243 280.7 274.621 284.4 274 288Z" fill="#D89D75"/>
</svg>
