<svg width="500" height="500" viewBox="0 0 500 500" fill="none" xmlns="http://www.w3.org/2000/svg">
<path d="M165.018 330.269C166.972 329.715 168.86 328.967 170.736 328.194C180.745 324.085 190.873 320.289 201.019 316.532C202.705 315.907 204.338 315.131 206.018 314.482C208.537 313.505 211.08 312.588 213.609 311.625C215.663 310.845 217.705 310.033 219.755 309.247C223.381 307.85 227.012 306.46 230.642 305.066C230.903 304.692 231.337 304.749 231.703 304.632C233.026 304.153 234.349 303.676 235.669 303.186C237.306 302.579 238.911 301.877 240.572 301.366C243.536 300.456 246.453 299.415 249.371 298.381C252.994 297.097 256.402 295.351 259.802 293.583C260.353 293.298 260.899 292.991 261.393 292.624C262.61 291.717 263.954 290.945 264.981 289.823C268.424 286.052 270.809 281.691 272.065 276.724C272.52 274.918 272.777 273.073 272.922 271.231C273.095 269.051 273.201 266.846 272.756 264.663C272.566 263.731 272.506 262.772 272.389 261.823C272.21 261.678 272.075 261.512 272.033 261.276C271.557 258.711 270.502 256.365 269.334 254.055C267.687 250.795 265.987 247.556 264.463 244.233C263.524 242.187 262.462 240.215 261.386 238.254C259.929 235.597 258.345 232.997 257.118 230.228C256.137 228.016 255.015 225.878 253.981 223.698C253.837 223.395 253.682 223.095 253.526 222.795C252.98 221.733 252.627 220.618 252.666 219.408C252.214 219.041 251.974 218.537 251.731 218.029C251.099 216.713 250.471 215.394 249.829 214.081C248.697 211.756 247.55 209.435 246.414 207.11C244.171 202.517 241.931 197.92 239.687 193.327C239.105 193.426 238.569 193.38 238.145 192.883C237.891 192.583 237.591 192.322 237.313 192.043C234.695 189.404 232 186.843 229.601 183.996C228.804 183.051 227.953 182.148 227.191 181.178C226.849 180.744 226.641 180.2 226.419 179.685C226.264 179.326 226.687 178.832 227.057 178.93C227.488 179.047 227.957 179.149 228.31 179.393C229.322 180.098 230.317 180.835 231.266 181.626C233.594 183.566 235.895 185.545 238.205 187.51C238.639 187.88 239.108 188.18 239.659 188.335C239.959 187.63 239.828 186.889 239.828 186.162C239.835 172.856 239.832 159.552 239.835 146.245C239.835 145.233 239.87 144.217 239.891 143.205C239.645 142.88 239.341 142.647 238.925 142.573C238.258 142.46 237.595 142.326 236.928 142.217C233.03 141.585 229.107 141.187 225.181 140.77C219.956 140.213 214.721 139.92 209.471 140.019C205.019 140.1 200.557 140.217 196.133 140.813C189.469 141.712 183.676 144.57 178.526 148.828C175.979 150.934 173.943 153.484 172.049 156.162C171.756 156.575 171.481 157.009 171.251 157.457C170.066 159.767 169.008 162.138 168.292 164.639C166.933 169.391 166.718 174.178 167.949 179.001C168.341 180.529 168.627 182.084 168.99 183.619C169.382 185.27 169.999 186.84 170.659 188.403C172.906 193.726 175.88 198.637 178.981 203.491C181.415 207.297 184.004 210.991 186.767 214.558C188.975 217.408 191.367 220.121 193.723 222.855C195.674 225.123 197.752 227.272 199.802 229.452C201.696 231.463 203.449 233.608 205.273 235.682C211.193 242.423 217.113 249.162 223.043 255.896C223.678 256.616 224.359 257.29 225.018 257.988C225.209 258.189 225.449 258.355 225.47 258.676C225.311 258.948 225.029 258.976 224.75 259.029C221.141 259.717 217.659 260.867 214.17 261.971C212.996 262.341 211.888 262.938 210.766 263.47C207.556 264.994 204.324 266.476 201.326 268.402C199.95 269.288 198.623 270.247 197.301 271.203C186.192 279.236 174.948 287.082 164.009 295.347C160.005 298.374 156.064 301.489 152.11 304.58C151.355 305.169 150.67 305.842 149.951 306.474C150.042 307.592 150.699 308.464 151.249 309.37C152.907 312.115 154.604 314.838 156.283 317.569C158.848 321.739 161.416 325.909 163.981 330.078C164.326 330.138 164.672 330.198 165.018 330.262V330.269Z" fill="#696C65"/>
<path d="M272.386 261.827C272.506 262.772 272.562 263.732 272.753 264.667C273.197 266.85 273.092 269.055 272.919 271.235C272.774 273.077 272.517 274.922 272.061 276.728C270.806 281.695 268.421 286.052 264.978 289.827C263.951 290.952 262.607 291.721 261.39 292.628C260.896 292.995 260.349 293.302 259.799 293.587C256.398 295.355 252.99 297.101 249.367 298.385C246.446 299.419 243.532 300.463 240.569 301.37C238.904 301.881 237.299 302.583 235.665 303.19C234.346 303.68 233.023 304.153 231.7 304.636C231.651 304.961 231.453 305.12 231.136 305.141C231.065 305.554 230.829 305.868 230.518 306.122C229.866 306.658 229.241 307.236 228.543 307.699C227.491 308.394 226.627 309.29 225.823 310.221C224.419 311.844 223.731 313.795 223.59 315.925C223.537 316.712 223.569 317.506 223.569 318.296C223.569 345.781 223.569 373.269 223.569 400.754C223.569 402.501 223.554 404.243 223.925 405.969C224.341 407.923 225.114 409.74 226.151 411.419C227.431 413.493 229.03 415.367 231.1 416.654C233.587 418.199 236.216 419.423 239.257 419.677C241.401 419.857 243.532 419.879 245.67 419.882C252.048 419.903 258.427 419.903 264.801 419.882C266.491 419.875 268.184 419.737 269.783 419.145C271.811 418.39 273.624 417.31 274.961 415.532C275.434 414.904 275.984 414.347 276.348 413.627C278.263 409.846 278.242 406.11 276.305 402.321C275.427 400.603 274.069 399.386 272.608 398.243C271.183 397.128 269.546 396.352 267.987 395.452C264.085 393.201 260.155 391.004 256.232 388.788C253.163 387.053 250.101 385.303 247.007 383.609C246.213 383.175 245.811 382.66 245.914 381.74C246.079 380.23 246.139 378.706 246.354 377.206C246.587 375.594 246.838 373.989 246.937 372.356C247.014 371.068 247.162 369.781 247.356 368.503C247.706 366.228 247.917 363.931 248.192 361.649C248.415 359.811 248.524 357.959 248.891 356.135C248.947 355.863 248.944 355.571 248.933 355.292C248.877 353.648 249.208 352.046 249.484 350.438C249.533 350.162 249.604 349.88 249.604 349.605C249.589 347.682 250.059 345.809 250.217 343.915C250.383 341.893 250.584 339.886 250.958 337.896C250.979 337.787 250.976 337.671 250.972 337.558C250.934 336.143 251.082 334.746 251.353 333.363C251.547 332.365 251.727 331.37 251.678 330.35C251.65 329.786 251.921 329.356 252.359 329.059C254.37 327.705 256.074 325.972 258.031 324.544C260.388 322.822 262.551 320.832 264.798 318.959C264.971 318.815 265.122 318.638 265.306 318.515C267.606 316.98 269.581 315.04 271.758 313.35C273.444 312.038 275.109 310.697 276.782 309.371C277.794 308.566 278.81 307.766 279.816 306.954C282.006 305.19 284.19 303.423 286.377 301.655C288.346 300.064 290.307 298.463 292.279 296.875C294.382 295.182 296.498 293.506 298.601 291.813C300.531 290.261 302.446 288.698 304.376 287.146C306.083 285.77 307.794 284.401 309.519 283.046C309.728 282.884 310.035 282.842 310.296 282.746C310.324 282.14 310.091 281.473 310.595 280.968C311.597 279.97 312.338 278.767 313.188 277.656C315.175 275.067 316.995 272.368 318.48 269.45C319.09 268.251 319.821 267.108 320.498 265.944C321.549 264.141 322.558 262.289 323.084 260.278C323.751 257.738 324.304 255.149 324.174 252.475C324.142 251.804 324.23 251.127 324.266 250.453C324.117 246.523 322.904 242.946 320.738 239.679C319.828 238.311 318.716 237.111 317.556 235.961C315.654 234.07 313.524 232.631 310.846 231.95C307.946 231.209 305.057 231.16 302.132 231.474C301.247 231.569 300.337 231.572 299.469 231.89C297.345 232.67 295.31 233.583 293.5 234.987C291.528 236.518 289.782 238.261 288.201 240.18C287.591 240.918 287.019 241.69 286.388 242.41C282.659 246.643 279.339 251.194 276.034 255.755C274.644 257.675 273.469 259.721 272.393 261.827H272.386Z" fill="#F7BB93"/>
<path d="M272.385 261.826C273.461 259.72 274.636 257.674 276.026 255.755C279.328 251.19 282.651 246.643 286.38 242.409C287.012 241.69 287.583 240.921 288.193 240.18C289.774 238.261 291.52 236.518 293.492 234.987C295.302 233.583 297.337 232.669 299.461 231.89C300.329 231.572 301.236 231.569 302.125 231.473C305.049 231.159 307.938 231.209 310.838 231.95C313.516 232.634 315.65 234.073 317.548 235.961C318.705 237.114 319.82 238.31 320.73 239.679C322.9 242.946 324.113 246.523 324.258 250.453C325.45 251.758 326.639 253.063 327.832 254.365C328.689 255.318 329.55 256.27 330.407 257.226C330.964 257.851 331.507 258.489 332.192 258.983C332.386 257.614 332.019 256.284 331.853 254.951C331.271 250.252 330.453 245.584 329.391 240.974C328.255 236.035 326.943 231.138 325.334 226.319C323.633 221.229 321.457 216.343 319.21 211.485C319.044 211.125 318.871 210.772 318.723 210.405C316.236 204.376 312.771 198.905 309.057 193.585C305.765 188.868 302.428 184.187 299.087 179.506C298.371 178.5 297.715 177.435 296.716 176.662C296.011 176.701 295.415 177.015 294.882 177.442C294.311 177.9 293.743 178.366 293.213 178.87C289.76 182.187 286.317 185.513 282.873 188.844C277.409 194.135 271.948 199.43 266.487 204.722C266.367 204.839 266.247 204.958 266.124 205.075C262.395 208.514 258.786 212.074 255.265 215.725C254.641 216.374 254.076 217.076 253.494 217.764C253.088 218.241 252.75 218.756 252.669 219.398C252.626 220.611 252.979 221.723 253.529 222.784C253.685 223.084 253.84 223.384 253.984 223.687C255.018 225.871 256.136 228.009 257.121 230.217C258.352 232.987 259.932 235.583 261.389 238.243C262.465 240.208 263.531 242.177 264.465 244.223C265.986 247.542 267.686 250.781 269.337 254.044C270.505 256.355 271.56 258.701 272.036 261.265C272.078 261.502 272.212 261.671 272.392 261.812L272.385 261.826Z" fill="#8A8AD9"/>
<path d="M252.662 219.408C252.743 218.766 253.082 218.251 253.488 217.775C254.073 217.09 254.638 216.385 255.258 215.736C258.776 212.081 262.388 208.525 266.117 205.085C266.24 204.972 266.36 204.849 266.48 204.733C271.941 199.441 277.402 194.142 282.867 188.854C286.307 185.524 289.753 182.197 293.207 178.881C293.733 178.373 294.304 177.911 294.876 177.452C295.408 177.022 296.004 176.708 296.71 176.673C295.888 176.168 295.186 175.54 294.657 174.722C294.505 174.489 294.325 174.263 294.128 174.066C291.944 171.868 289.845 169.575 287.541 167.507C284.871 165.112 282.123 162.801 279.223 160.66C276.637 158.751 273.984 156.959 271.246 155.315C267.697 153.185 264.039 151.23 260.208 149.611C258.349 148.824 256.507 147.992 254.613 147.3C252.824 146.648 251.008 146.062 249.198 145.473C247.003 144.76 244.774 144.206 242.555 143.593C241.684 143.353 240.798 143.212 239.891 143.208C239.874 144.22 239.835 145.236 239.835 146.249C239.831 159.556 239.835 172.859 239.828 186.166C239.828 186.893 239.958 187.633 239.659 188.339C239.934 190.001 239.973 191.662 239.683 193.327C241.927 197.92 244.167 202.517 246.411 207.11C247.547 209.435 248.69 211.756 249.826 214.081C250.464 215.394 251.092 216.713 251.727 218.029C251.971 218.533 252.214 219.041 252.662 219.408Z" fill="#F6BB92"/>
<path d="M383.115 305.564C384.181 305.737 384.893 305.243 385.581 304.464C389.017 300.562 391.462 296.103 393.138 291.21C394.351 287.675 395.089 284.038 394.909 280.281C394.686 275.681 393.632 271.274 391.582 267.133C391.085 266.127 390.644 265.087 389.931 264.201C389.621 264.081 389.486 263.852 389.518 263.524C389.441 263.411 389.359 263.295 389.282 263.182C388.696 262.847 388.541 262.197 388.209 261.679C388.146 261.58 388.245 261.375 388.269 261.22C387.68 260.864 387.257 260.352 386.834 259.82C385.927 258.684 385.013 257.544 384.025 256.479C382.798 255.163 381.492 253.918 380.219 252.648C379.012 251.441 377.577 250.559 376.056 249.832C374.592 249.13 373.082 248.51 371.572 247.91C368.369 246.636 365.042 245.952 361.592 245.874C360.806 245.857 360.015 245.874 359.229 245.874C358.006 245.874 356.964 245.505 356.103 244.767L356.029 244.834C356.075 245.172 355.891 245.352 355.591 245.437C354.78 245.663 353.965 245.867 353.157 246.104C349.651 247.134 346.596 248.905 343.904 251.406C340.362 254.694 337.935 258.656 336.28 263.143C336.129 264.462 336.577 265.566 337.473 266.522C337.78 266.851 338.016 267.242 338.312 267.581C341.459 271.19 344.634 274.774 347.746 278.415C348.508 279.307 349.386 279.942 350.441 280.376C352.681 281.297 354.921 282.211 357.172 283.107C359.056 283.854 360.95 284.578 362.845 285.301C363.363 285.498 363.631 285.83 363.758 286.394C364.298 288.755 364.873 291.104 365.469 293.45C365.815 294.812 366.242 296.156 366.591 297.518C366.806 298.354 367.261 298.918 368.094 299.165C368.2 299.197 368.295 299.264 368.397 299.31C373.005 301.278 377.577 303.345 382.286 305.067C382.597 305.18 382.96 305.205 383.119 305.571L383.115 305.564Z" fill="#794821"/>
<path d="M383.116 305.564C382.957 305.197 382.594 305.172 382.284 305.059C377.574 303.338 373.002 301.274 368.395 299.302C368.292 299.256 368.197 299.189 368.091 299.157C367.259 298.91 366.8 298.346 366.589 297.51C366.239 296.148 365.812 294.804 365.467 293.442C364.871 291.096 364.295 288.747 363.756 286.387C363.625 285.822 363.361 285.491 362.842 285.293C360.948 284.57 359.053 283.85 357.169 283.099C354.919 282.203 352.678 281.289 350.438 280.368C349.384 279.934 348.505 279.299 347.743 278.407C344.632 274.766 341.457 271.182 338.31 267.573C338.013 267.234 337.777 266.843 337.47 266.515C336.574 265.559 336.126 264.454 336.278 263.135C335.996 263.089 335.71 263.022 335.537 262.779C334.616 261.491 333.371 260.493 332.38 259.272C332.309 259.184 332.256 259.085 332.196 258.99C331.512 258.496 330.968 257.854 330.411 257.233C329.554 256.277 328.697 255.328 327.836 254.372C327.539 254.619 327.525 254.961 327.554 255.3C327.652 256.609 327.321 257.861 327.024 259.11C325.878 263.915 323.715 268.286 321.108 272.434C319.383 275.182 317.535 277.857 315.376 280.308C314.525 281.275 313.658 282.227 312.779 283.169C312.37 283.61 311.908 283.868 311.294 283.797C311.291 284.235 311.587 284.506 311.841 284.81C312.956 286.15 314.07 287.487 315.168 288.846C317.002 291.117 318.812 293.414 320.646 295.682C321.542 296.79 322.177 298.018 322.657 299.365C324.185 303.662 325.733 307.952 327.497 312.154C328.619 314.828 330.63 316.443 333.501 317.043C334.8 317.315 336.052 317.438 337.333 317.068C337.491 317.022 337.668 317.008 337.837 317.018C339.59 317.11 341.33 316.824 343.044 316.578C344.716 316.338 346.424 316.482 348.068 316.07C348.502 315.96 348.861 316.094 349.13 316.415C349.708 317.103 350.287 317.795 350.816 318.514C351.521 319.474 352.386 320.285 353.211 321.132C353.444 321.372 353.733 321.559 354.019 321.735C354.714 322.169 355.345 322.166 356.026 321.605C357.201 320.642 358.457 319.77 359.536 318.691C361.092 317.135 362.659 315.59 364.197 314.016C365.777 312.401 367.467 310.919 369.263 309.543C369.866 309.081 370.487 308.735 371.203 308.573C373.725 307.994 376.241 307.366 378.784 306.922C380.061 306.7 381.338 306.544 382.569 306.121C382.855 306.022 383.07 305.878 383.116 305.557V305.564Z" fill="#F7BB92"/>
<path d="M163.98 330.085C161.416 325.915 158.848 321.746 156.283 317.576C154.604 314.845 152.907 312.122 151.249 309.377C150.702 308.471 150.046 307.596 149.95 306.481C149.16 306.513 148.398 306.407 147.615 306.227C145.266 305.684 142.884 305.274 140.521 304.777C138.817 304.417 137.127 304.001 135.43 303.613C130.417 302.473 125.485 303.613 121.562 306.216C121.234 306.432 120.924 306.686 120.649 306.964C119.149 308.492 117.569 309.935 116.253 311.646C115.293 312.891 114.161 314.006 113.131 315.195C112.062 316.429 111.025 317.685 109.974 318.93C109.208 319.834 108.407 320.701 107.649 321.608C105.807 323.809 103.842 325.905 101.966 328.078C100.674 329.57 99.4079 331.112 98.907 333.073C98.5612 334.417 98.1873 335.786 98.5154 337.208C98.5648 337.427 98.5789 337.656 98.593 337.878C98.7764 341 100.255 343.523 102.604 345.399C104.876 347.216 107.546 348.324 110.573 348.102C111.466 348.035 112.376 347.925 113.23 347.671C114.461 347.308 115.646 346.786 116.86 346.345C117.386 346.154 117.932 346.017 118.461 345.83C121.905 344.602 125.408 343.558 128.816 342.217C130.904 341.395 133.07 340.764 135.201 340.044C136.474 339.614 137.748 339.198 139.014 338.753C142.249 337.617 145.453 336.365 148.726 335.359C151.362 334.548 153.898 333.465 156.572 332.766C158.089 332.371 159.535 331.705 161.003 331.13C161.952 330.759 162.929 330.505 163.931 330.353C163.949 330.265 163.966 330.174 163.98 330.082V330.085Z" fill="#F7BC93"/>
<path d="M393.724 259.459C394.158 259.537 394.475 259.29 394.803 259.071C396.186 258.157 397.283 256.951 398.246 255.621C398.641 255.074 398.959 254.474 399.315 253.899C399.689 252.891 399.95 251.825 400.649 250.964C402.945 245.983 401.093 237.922 395.9 234.102C394.193 232.846 392.344 231.96 390.369 231.269C387.592 230.302 384.731 229.702 381.828 229.29C375.658 228.418 369.47 228.401 363.282 229.004C357.61 229.558 352.018 230.556 346.578 232.313C346.095 232.468 345.615 232.63 345.136 232.793C343.1 233.484 343.026 235.636 344.582 236.726C345.044 237.051 345.481 237.407 345.943 237.728C349.327 240.063 352.53 242.653 356.022 244.826L356.096 244.759C355.998 244.413 355.98 244.078 356.336 243.866C356.576 243.725 356.837 243.612 357.102 243.517C359.61 242.625 362.214 242.268 364.856 242.145C366.151 242.085 367.424 242.268 368.712 242.441C370.331 242.66 371.908 243.002 373.481 243.411C376.018 244.075 378.325 245.26 380.586 246.519C382.001 247.306 383.387 248.153 384.657 249.215C385.564 249.973 386.344 250.89 387.335 251.522C388.951 252.555 389.91 254.182 391.106 255.582C391.935 256.552 392.482 257.766 393.145 258.874C393.293 259.121 393.431 259.36 393.72 259.459H393.724Z" fill="#7A4821"/>
<path d="M393.724 259.46C393.434 259.361 393.297 259.121 393.149 258.874C392.485 257.763 391.939 256.553 391.11 255.583C389.914 254.182 388.954 252.556 387.338 251.522C386.347 250.887 385.564 249.97 384.661 249.215C383.391 248.153 382.008 247.307 380.59 246.52C378.328 245.264 376.018 244.075 373.485 243.412C371.911 243.003 370.334 242.657 368.715 242.442C367.428 242.269 366.154 242.085 364.859 242.145C362.217 242.269 359.61 242.625 357.105 243.518C356.841 243.613 356.58 243.726 356.34 243.867C355.983 244.075 356.005 244.414 356.1 244.759C356.958 245.498 358 245.867 359.225 245.867C360.012 245.867 360.802 245.853 361.589 245.867C365.039 245.945 368.366 246.626 371.569 247.903C373.079 248.502 374.585 249.123 376.053 249.825C377.573 250.552 379.009 251.438 380.216 252.641C381.489 253.914 382.798 255.156 384.022 256.472C385.014 257.534 385.924 258.673 386.83 259.813C387.254 260.345 387.681 260.857 388.266 261.21C388.697 261.125 389.127 261.033 389.557 260.966C390.866 260.762 392.03 260.105 393.304 259.791C393.445 259.678 393.583 259.566 393.724 259.456V259.46Z" fill="#5C3718"/>
<path d="M311.289 283.798C311.903 283.868 312.365 283.611 312.774 283.17C313.653 282.228 314.517 281.275 315.371 280.309C317.53 277.853 319.375 275.183 321.104 272.435C323.711 268.286 325.873 263.915 327.02 259.11C327.316 257.861 327.651 256.609 327.549 255.3C327.524 254.965 327.535 254.619 327.831 254.372C326.639 253.067 325.45 251.765 324.257 250.46C324.226 251.134 324.134 251.811 324.169 252.481C324.3 255.152 323.749 257.741 323.079 260.285C322.55 262.296 321.545 264.148 320.493 265.95C319.812 267.115 319.086 268.254 318.475 269.457C316.99 272.375 315.17 275.073 313.184 277.663C312.33 278.774 311.593 279.977 310.591 280.975C310.086 281.476 310.319 282.147 310.291 282.753C310.626 283.103 310.958 283.452 311.289 283.805V283.798Z" fill="#DDA881"/>
<path d="M393.307 259.798C392.034 260.112 390.87 260.768 389.561 260.973C389.127 261.04 388.697 261.135 388.27 261.216C388.249 261.371 388.15 261.576 388.213 261.675C388.545 262.193 388.7 262.842 389.286 263.177C389.198 262.916 389.106 262.659 389.021 262.398C388.831 261.809 388.929 261.604 389.54 261.417C390.235 261.205 390.958 261.064 391.635 260.8C392.242 260.563 392.955 260.458 393.314 259.798H393.307Z" fill="#847560"/>
<path d="M400.649 250.964C399.947 251.825 399.689 252.89 399.315 253.899C399.675 253.811 399.827 253.511 399.954 253.215C400.264 252.488 400.801 251.832 400.652 250.964H400.649Z" fill="#847560"/>
<path d="M389.516 263.52C389.484 263.848 389.618 264.077 389.928 264.197C389.995 263.848 389.851 263.625 389.516 263.52Z" fill="#847560"/>
<path d="M231.132 305.14C231.449 305.116 231.65 304.96 231.696 304.636C231.329 304.752 230.895 304.696 230.634 305.07C230.8 305.094 230.966 305.116 231.132 305.14Z" fill="#B9C6C1"/>
<path d="M163.98 330.086C163.966 330.178 163.949 330.269 163.931 330.358C164.312 330.569 164.682 330.64 165.018 330.269C164.672 330.209 164.326 330.149 163.984 330.086H163.98Z" fill="#B3C3BF"/>
<path d="M239.687 193.327C239.976 191.662 239.937 190 239.662 188.339C239.108 188.184 238.639 187.884 238.205 187.513C235.898 185.548 233.598 183.569 231.266 181.629C230.317 180.839 229.322 180.098 228.31 179.396C227.953 179.149 227.488 179.047 227.057 178.934C226.683 178.835 226.26 179.329 226.419 179.689C226.641 180.204 226.853 180.747 227.191 181.181C227.953 182.151 228.804 183.054 229.601 184C232 186.847 234.695 189.408 237.313 192.046C237.591 192.325 237.891 192.586 238.145 192.886C238.568 193.384 239.101 193.426 239.687 193.331V193.327Z" fill="#454742"/>
</svg>
