<svg width="500" height="500" viewBox="0 0 500 500" fill="none" xmlns="http://www.w3.org/2000/svg">
<path d="M313.297 307.536C316.74 307.398 320.159 307.761 323.581 308.022C326.159 308.22 328.728 308.573 331.299 308.862C336.334 309.43 341.322 310.308 346.282 311.324C352.018 312.499 357.68 313.96 363.236 315.822C367.135 317.131 370.938 318.68 374.606 320.543C375.562 321.029 376.526 321.488 377.633 321.499C377.616 323.64 377.531 325.778 377.432 327.919C377.231 332.255 377.333 336.601 377.09 340.94C376.91 344.147 377.03 347.371 377.019 350.585C376.324 350.599 375.626 350.613 374.931 350.631C370.821 350.345 366.701 350.299 362.594 350.067C357.07 349.756 351.538 349.925 346.017 349.576C344.723 349.495 343.424 349.484 342.126 349.488C337.949 349.495 333.786 349.185 329.617 348.966C325.616 348.758 321.612 348.648 317.612 348.493C314.341 348.366 311.071 348.257 307.804 348.105C306.675 348.052 305.554 348.049 304.425 348.077C302.058 348.137 299.694 348.119 297.323 347.957C294.963 347.795 292.589 347.901 290.218 347.869C287.061 347.823 283.893 347.922 280.75 347.558C278.961 347.354 277.176 347.054 275.409 346.708C274.075 346.447 272.84 345.865 271.687 345.138C268.978 343.438 266.741 341.244 264.868 338.647C263.227 336.372 262.088 333.888 261.432 331.168C261.379 330.953 261.266 330.752 261.178 330.547C261.058 329.425 260.744 328.346 260.387 327.288C259.523 324.719 259.086 322.07 258.786 319.385C258.662 318.271 258.475 317.163 258.338 316.052C258.045 313.66 257.756 311.264 257.48 308.869C257.202 306.474 256.983 304.068 256.658 301.679C256.419 299.901 256.069 298.138 256.122 296.331C256.14 295.135 256.048 293.95 255.702 292.796C255.713 292.405 255.829 291.978 255.72 291.622C255.36 290.408 255.445 289.173 255.406 287.942C255.396 287.611 255.36 287.265 255.258 286.951C255.117 286.514 255.078 286.073 255.082 285.621C255.099 283.769 254.552 281.952 254.711 280.089C254.725 279.927 254.679 279.747 254.616 279.596C254.365 279.003 254.411 278.382 254.397 277.765C254.387 277.317 254.454 276.837 254.327 276.421C253.893 275.009 254.041 273.531 253.79 272.095C253.61 271.065 253.543 269.989 253.367 268.942C253.254 268.278 253.081 267.629 252.937 266.973C252.82 265.502 252.714 264.027 252.577 262.556C252.542 262.179 252.397 261.812 252.302 261.442C252.192 260.15 252.041 258.859 251.977 257.568C251.811 254.245 251.713 250.918 251.526 247.595C251.37 244.836 251.321 242.074 250.979 239.326C250.566 236.01 249.97 232.757 248.559 229.699C249.208 229.441 249.405 228.824 249.666 228.273C251.84 223.708 254.006 219.14 256.161 214.564C256.376 214.109 256.532 213.626 256.69 213.146C256.761 212.931 256.764 212.684 256.56 212.529C256.306 212.331 256.024 212.384 255.787 212.561C255.561 212.726 255.36 212.927 255.163 213.125C254.524 213.76 253.889 214.399 253.258 215.041C252.351 215.961 251.335 216.808 250.57 217.835C249.652 219.066 248.499 220.05 247.472 221.161C247.278 221.373 247.035 221.511 246.745 221.553C246.495 220.745 246.354 219.916 246.244 219.076C246.022 217.348 245.754 215.623 245.468 213.905C244.96 210.853 244.403 207.809 243.906 204.757C243.398 201.649 242.946 198.527 242.449 195.416C242.039 192.861 241.616 190.307 241.172 187.757C240.826 185.76 240.431 183.774 239.739 181.862C241.224 179.664 243.362 178.175 245.437 176.612C248.975 173.945 252.849 171.882 256.934 170.206C260.828 168.608 264.889 167.574 269.09 167.504C274.054 167.423 279.032 167.599 283.847 169.035C289.435 170.7 294.3 173.501 297.898 178.232C299.539 180.391 301.13 182.596 302.4 184.987C304.654 189.235 306.319 193.705 307.268 198.456C308.372 203.988 308.538 209.544 308.178 215.136C307.977 218.23 307.497 221.295 307.042 224.365C306.033 231.17 304.569 237.897 303.779 244.737C303.409 247.927 302.777 251.088 302.364 254.273C301.684 259.53 300.837 264.765 300.378 270.049C299.973 274.713 299.521 279.373 299.101 284.037C299.045 284.651 299.066 285.275 299.048 285.893C298.988 285.988 298.883 286.076 298.872 286.175C298.72 287.625 298.505 289.071 298.459 290.525C298.403 292.267 297.93 293.975 298.061 295.732C298.068 295.841 298.057 295.964 298.015 296.063C297.704 296.818 297.782 297.615 297.754 298.399C297.74 298.85 297.8 299.326 297.669 299.743C297.401 300.572 297.44 301.411 297.411 302.255C297.394 302.815 297.376 303.369 297.225 303.927C296.956 304.918 297.052 305.945 297.119 306.953C297.175 307.793 297.856 308.291 298.643 308.072C299.257 307.902 299.867 307.91 300.481 307.878C300.932 307.857 301.408 307.92 301.825 307.786C302.654 307.518 303.493 307.55 304.337 307.546C307.325 307.536 310.313 307.536 313.301 307.532L313.297 307.536Z" fill="#696C65"/>
<path d="M260.387 327.294C259.523 324.726 259.085 322.077 258.785 319.392C258.662 318.277 258.475 317.169 258.337 316.058C258.045 313.666 257.755 311.271 257.48 308.876C257.202 306.48 256.983 304.074 256.658 301.686C256.418 299.908 256.069 298.144 256.122 296.338C255.893 296.461 255.667 296.585 255.438 296.705C255.233 298.663 254.926 300.621 254.848 302.585C254.743 305.238 254.203 307.835 254.027 310.477C253.801 313.832 252.834 317 251.515 320.073C250.76 321.833 250.03 323.604 249.088 325.28C248.954 325.516 248.887 325.816 248.558 325.887C248.311 325.858 248.357 325.654 248.386 325.523C248.661 324.246 248.657 322.948 248.671 321.653C248.689 319.568 248.682 317.48 248.685 315.395C248.689 313.345 248.22 311.38 247.666 309.422C245.955 303.39 242.829 298.183 238.667 293.53C236.43 291.028 233.968 288.82 231.128 287.056C227.769 284.968 224.104 284.026 220.146 284.506C217.56 284.82 215.27 285.829 213.39 287.684C210.966 290.076 209.337 292.944 208.384 296.19C207.209 300.194 207.015 304.275 207.569 308.406C207.682 309.239 207.654 310.093 207.689 310.936C208.476 310.95 208.896 311.557 209.273 312.072C210.688 314.016 212.035 316.012 213.393 317.998C213.549 318.224 213.644 318.503 213.707 318.771C213.827 319.272 213.295 319.791 212.787 319.678C212.624 319.642 212.462 319.582 212.317 319.508C210.878 318.757 209.372 318.136 207.999 317.243C206.966 316.573 205.858 316.023 204.793 315.409C204.309 315.13 203.84 314.82 203.371 314.513C203.061 314.312 202.951 314.001 202.927 313.649C202.867 313.649 202.807 313.649 202.747 313.645L202.93 313.303L101.009 320.087C99.5554 320.016 98.0808 319.928 96.6449 320.376C96.2851 320.489 95.8618 320.408 95.4667 320.408C93.2089 320.408 90.9546 320.426 88.6968 320.408C87.4092 320.397 86.1286 320.457 84.8375 320.136C83.9837 319.925 83.0418 320.08 82.1387 320.069C81.4649 320.062 80.7946 320.09 80.1349 319.858C79.7751 319.731 79.3588 319.745 78.9672 319.745C77.3868 319.731 75.8098 319.723 74.2294 319.738C72.4302 319.752 71.0932 320.556 70.31 322.182C69.8726 323.093 69.5163 324.045 69.1564 324.99C69.04 325.301 68.8531 325.438 68.5532 325.484C68.525 325.707 68.4756 325.932 68.4756 326.155C68.4756 329.485 68.4932 332.812 68.4826 336.142C68.4826 336.777 68.6555 337.366 68.7966 337.969C69.2623 339.927 70.4441 341.289 72.3279 341.973C73.8731 342.534 75.5135 342.693 77.1434 342.696C78.2581 342.696 79.387 342.52 80.4877 342.305C84.0755 341.603 87.6562 340.88 91.2263 340.1C93.7134 339.557 96.1793 338.975 98.7263 339.684C98.7793 339.698 98.8392 339.694 98.8957 339.694C101.15 339.715 103.376 340.195 105.637 340.1C105.807 340.093 105.976 340.1 106.145 340.121C109.222 340.506 112.319 340.576 115.406 340.717C118.104 340.837 120.793 341.215 123.506 341.127C123.618 341.123 123.731 341.13 123.844 341.151C126.575 341.627 129.351 341.349 132.096 341.702C133.821 341.924 135.578 341.91 137.317 341.987C140.128 342.118 142.94 342.319 145.752 342.439C147.946 342.531 150.137 342.675 152.328 342.799C152.497 342.809 152.663 342.834 152.832 342.859C154.892 343.137 156.956 343.395 159.034 343.473C160.046 343.511 161.055 343.49 162.064 343.684C162.66 343.801 163.317 343.794 163.916 343.681C164.872 343.497 165.825 343.487 166.781 343.508C170.273 343.582 173.759 343.508 177.258 343.691C182.151 343.952 187.062 343.804 191.962 344.083C194.382 344.22 196.813 344.146 199.24 344.175C199.692 344.178 200.154 344.143 200.591 344.238C202.253 344.594 203.953 344.527 205.629 344.732C207.802 344.993 210.01 344.926 212.205 345.056C215.016 345.222 217.842 345.116 220.664 345.12C221.112 345.12 221.571 345.106 222.012 345.028C224.284 344.63 226.556 344.245 228.813 343.79C232.987 342.947 236.952 341.585 240.487 339.105C242.025 338.026 243.457 336.876 244.509 335.299C244.861 334.766 245.366 334.473 245.973 334.226C248.431 333.214 250.986 332.547 253.561 331.923C256.08 331.312 258.606 330.787 261.191 330.571C261.071 329.45 260.758 328.37 260.401 327.312L260.387 327.294Z" fill="#F7BB92"/>
<path d="M239.736 181.865C240.431 183.777 240.822 185.763 241.168 187.76C241.612 190.31 242.036 192.861 242.445 195.419C242.942 198.53 243.394 201.649 243.902 204.76C244.399 207.812 244.957 210.856 245.465 213.908C245.75 215.629 246.019 217.351 246.241 219.079C246.35 219.923 246.488 220.748 246.742 221.556C246.823 222.223 246.879 222.893 246.989 223.553C247.324 225.595 247.581 227.655 248.298 229.613C248.34 230.227 248.301 230.862 248.442 231.455C248.968 233.649 249.077 235.9 249.264 238.122C249.43 240.077 249.79 242.021 249.705 243.996C249.698 244.162 249.737 244.331 249.751 244.501C249.949 246.734 250.164 248.963 250.337 251.2C250.411 252.149 250.404 253.098 250.573 254.05C250.714 254.848 250.905 255.726 250.347 256.492C248.449 256.276 246.548 256.065 244.65 255.842C242.526 255.596 240.409 255.303 238.282 255.102C236.211 254.908 234.119 254.872 232.056 254.636C230.599 254.467 229.135 254.431 227.678 254.311C224.316 254.026 220.954 253.701 217.592 253.422C215.461 253.246 213.323 253.133 211.192 252.978C209.566 252.858 207.94 252.724 206.313 252.586C204.126 252.399 201.942 252.191 199.759 252.018C197.741 251.86 195.719 251.74 193.716 251.419C192.94 251.295 192.142 251.175 191.447 251.722C191.461 251.274 191.419 250.815 191.497 250.378C192.128 246.78 192.968 243.227 193.98 239.717C195.942 232.919 198.813 226.505 202.221 220.332C204.204 216.741 206.37 213.241 209.058 210.101C210.409 208.521 211.679 206.866 212.893 205.176C213.686 204.069 214.646 203.113 215.563 202.135C217.789 199.754 219.747 197.112 222.344 195.083C222.961 194.6 223.504 194.011 224.044 193.44C225.871 191.513 227.925 189.848 230.009 188.218C232.056 186.62 234.186 185.16 236.465 183.918C237.598 183.301 238.55 182.39 239.739 181.861L239.736 181.865Z" fill="#F7BB92"/>
<path d="M191.444 251.726C192.139 251.18 192.936 251.299 193.712 251.423C195.716 251.744 197.738 251.86 199.755 252.023C201.943 252.196 204.126 252.404 206.31 252.591C207.936 252.728 209.563 252.862 211.189 252.982C213.323 253.137 215.458 253.25 217.588 253.427C220.95 253.705 224.312 254.03 227.674 254.316C229.131 254.439 230.592 254.474 232.052 254.64C234.12 254.877 236.208 254.912 238.279 255.106C240.406 255.307 242.526 255.6 244.646 255.847C246.544 256.069 248.446 256.281 250.344 256.492C250.728 257.064 250.831 257.734 250.986 258.38C251.236 259.41 251.462 260.447 251.699 261.477C251.727 261.809 251.709 262.147 251.787 262.468C252.154 263.975 252.545 265.474 252.926 266.977C253.071 267.633 253.247 268.286 253.36 268.949C253.537 269.997 253.604 271.073 253.783 272.103C254.034 273.542 253.886 275.017 254.32 276.428C254.447 276.844 254.38 277.32 254.39 277.772C254.404 278.389 254.358 279.01 254.609 279.603C254.672 279.755 254.718 279.935 254.704 280.097C254.545 281.959 255.092 283.776 255.075 285.628C255.071 286.08 255.11 286.521 255.251 286.958C255.353 287.272 255.389 287.618 255.399 287.95C255.438 289.181 255.35 290.416 255.713 291.629C255.819 291.985 255.706 292.409 255.696 292.804C255.216 294.077 255.413 295.4 255.431 296.709C255.226 298.667 254.919 300.625 254.842 302.59C254.736 305.243 254.196 307.839 254.02 310.482C253.794 313.837 252.827 317.004 251.508 320.077C250.753 321.838 250.023 323.608 249.081 325.284C248.947 325.521 248.88 325.82 248.552 325.891C248.305 325.863 248.351 325.658 248.379 325.528C248.654 324.251 248.651 322.952 248.665 321.658C248.682 319.573 248.675 317.484 248.679 315.399C248.682 313.35 248.213 311.385 247.659 309.427C245.948 303.394 242.823 298.191 238.66 293.534C236.423 291.033 233.961 288.825 231.121 287.061C227.763 284.972 224.097 284.03 220.139 284.51C217.553 284.824 215.264 285.833 213.383 287.689C210.96 290.08 209.33 292.949 208.377 296.194C207.203 300.198 207.009 304.28 207.562 308.411C207.675 309.243 207.647 310.097 207.682 310.94C207.467 311.106 207.241 311.261 207.04 311.445C205.876 312.528 204.518 313.18 202.923 313.311C201.802 311.529 200.676 309.748 199.554 307.966C199.145 307.165 198.746 306.361 198.323 305.571C196.51 302.195 194.905 298.724 193.599 295.125C192.157 291.146 191.268 287.043 190.802 282.827C190.1 276.495 189.906 270.145 190.082 263.788C190.181 260.19 190.566 256.605 191.109 253.042C191.176 252.601 191.331 252.171 191.444 251.737V251.726Z" fill="#8A8AD9"/>
<path d="M377.019 350.592C377.033 347.374 376.913 344.154 377.09 340.947C377.329 336.604 377.231 332.261 377.432 327.926C377.531 325.784 377.615 323.647 377.633 321.505C378.864 320.038 380.303 318.768 381.605 317.374C382.949 315.931 384.498 314.682 385.662 313.067C385.757 312.933 385.898 312.827 386.033 312.721C387.684 311.433 389.592 310.812 391.645 310.608C393.339 310.439 394.891 310.897 396.291 311.846C397.314 312.541 398.299 313.296 399.322 313.995C402.814 316.372 406.31 318.736 409.813 321.099C415.37 324.846 420.929 328.585 426.489 332.325C427.805 333.21 429.012 334.202 429.865 335.567C430.772 337.02 431.4 338.583 431.502 340.298C431.569 341.42 431.502 342.552 431.495 343.681C431.495 343.907 431.523 344.15 431.449 344.355C430.648 346.644 429.848 348.934 427.939 350.609C427.244 351.22 426.443 351.622 425.583 351.893C424.291 352.299 422.965 352.588 421.607 352.592C418.844 352.596 416.061 352.758 413.32 352.5C408.981 352.095 404.645 352.31 400.309 352.204C396.482 352.112 392.647 352.07 388.826 351.841C385.796 351.657 382.776 351.329 379.742 351.16C378.853 351.11 377.975 350.821 377.065 350.877C377.051 350.782 377.04 350.687 377.026 350.592H377.019Z" fill="#F7BB93"/>
<path d="M199.557 307.959C200.679 309.741 201.804 311.522 202.926 313.304C202.926 313.42 202.923 313.533 202.919 313.649C200.997 313.547 199.13 313.981 197.24 314.196C195.74 314.369 194.255 314.715 192.724 314.665C191.549 314.63 190.378 314.771 189.203 314.895C187.87 315.036 186.512 315.152 185.203 315.381C183.425 315.692 181.608 315.456 179.858 315.946C179.541 316.034 179.188 316.002 178.849 316.009C177.784 316.031 176.704 315.914 175.674 316.316C174.034 316.193 172.453 316.807 170.809 316.704C170.368 316.676 169.899 316.726 169.476 316.849C168.975 316.997 168.481 317.025 167.973 317.029C167.352 317.029 166.749 317.061 166.139 317.244C165.666 317.385 165.137 317.346 164.632 317.364C164.015 317.385 163.39 317.325 162.801 317.586C162.699 317.632 162.583 317.671 162.473 317.664C160.833 317.544 159.245 318.08 157.608 318.048C157.1 318.038 156.603 318.066 156.106 318.225C155.739 318.341 155.333 318.362 154.941 318.377C153.932 318.408 152.92 318.331 151.929 318.673C151.572 318.796 151.145 318.715 150.75 318.722C150.133 318.733 149.509 318.676 148.916 318.941C148.814 318.987 148.697 319.026 148.591 319.019C146.838 318.899 145.141 319.491 143.388 319.403C142.714 319.371 142.047 319.396 141.384 319.177C140.971 319.04 140.495 319.072 140.044 319.072C137.955 319.061 135.87 319.068 133.782 319.072C133.164 319.072 132.561 319.124 131.947 319.276C130.96 319.52 129.922 319.52 128.931 319.283C127.696 318.99 126.479 318.959 125.262 319.276C124.701 319.421 124.144 319.396 123.583 319.4C120.256 319.407 116.926 319.407 113.599 319.41C112.925 319.41 112.248 319.368 111.599 319.639C111.398 319.724 111.158 319.738 110.936 319.735C107.673 319.692 104.434 320.264 101.16 320.105C99.6539 320.031 98.1229 319.922 96.6271 320.387C96.2673 320.5 95.8439 320.419 95.4488 320.419C93.191 320.419 90.9368 320.437 88.679 320.419C87.3914 320.409 86.1108 320.469 84.8196 320.147C83.9659 319.936 83.024 320.091 82.1208 320.08C81.447 320.073 80.7768 320.102 80.1171 319.869C79.7572 319.742 79.341 319.756 78.9494 319.756C77.3689 319.742 75.792 319.735 74.2115 319.749C72.4124 319.763 71.0753 320.567 70.2922 322.194C69.8547 323.104 69.4984 324.056 69.1386 325.002C69.0222 325.312 68.8352 325.45 68.5353 325.496C68.3484 322.433 69.0575 319.562 70.4686 316.867C71.4175 315.053 73.0827 314.267 75.03 314.08C76.0354 313.984 77.0761 313.977 78.0709 314.122C79.6443 314.351 81.2213 314.373 82.7982 314.38C84.6115 314.383 86.3965 314.577 88.1745 314.895C88.5061 314.955 88.8448 314.99 89.1835 314.99C91.4977 314.99 93.819 315.106 96.1226 314.944C98.7156 314.761 101.319 314.884 103.894 314.616C106.882 314.302 109.87 314.489 112.851 314.355C115.494 314.238 118.132 314.006 120.775 313.829C121.223 313.797 121.674 313.752 122.122 313.748C130.473 313.699 138.826 313.632 147.177 313.628C149.046 313.628 150.881 313.483 152.712 313.127C153.76 312.923 154.828 312.82 155.894 312.707C158.413 312.443 160.939 312.217 163.457 311.938C165.92 311.667 168.372 311.335 170.834 311.053C172.344 310.88 173.861 310.764 175.374 310.605C176.941 310.439 178.511 310.284 180.07 310.062C181.185 309.903 182.31 309.906 183.432 309.709C184.924 309.448 186.455 309.405 187.969 309.247C189.535 309.081 191.098 308.88 192.664 308.707C194.121 308.548 195.578 308.411 197.031 308.255C197.871 308.167 198.707 308.061 199.547 307.966L199.557 307.959Z" fill="#DEA882"/>
<path d="M313.297 307.536C310.309 307.539 307.321 307.539 304.333 307.55C303.49 307.55 302.654 307.522 301.821 307.79C301.408 307.924 300.929 307.86 300.477 307.882C299.86 307.913 299.253 307.906 298.639 308.076C297.852 308.294 297.171 307.793 297.115 306.957C297.044 305.952 296.949 304.922 297.221 303.931C297.373 303.373 297.39 302.823 297.408 302.258C297.432 301.415 297.397 300.576 297.665 299.747C297.799 299.334 297.736 298.854 297.75 298.402C297.778 297.616 297.701 296.822 298.011 296.067C298.053 295.965 298.067 295.845 298.057 295.735C297.926 293.982 298.399 292.275 298.456 290.528C298.501 289.075 298.717 287.629 298.868 286.179C298.879 286.08 298.985 285.992 299.045 285.896C300.357 286.292 301.493 287.004 302.544 287.858C303.066 288.281 303.581 288.722 304.047 289.206C308.739 294.109 311.879 299.824 313.068 306.552C313.128 306.883 313.219 307.208 313.297 307.532V307.536Z" fill="#7A4822"/>
<path d="M377.019 350.593C377.03 350.688 377.044 350.783 377.058 350.879C376.338 350.903 375.601 351.069 374.931 350.639C375.626 350.625 376.324 350.61 377.019 350.596V350.593Z" fill="#ADBFBC"/>
<path d="M248.297 229.618C247.581 227.656 247.324 225.6 246.989 223.557C246.879 222.894 246.823 222.227 246.742 221.56C247.031 221.518 247.274 221.38 247.468 221.169C248.495 220.054 249.645 219.073 250.566 217.842C251.331 216.812 252.347 215.969 253.254 215.048C253.885 214.406 254.52 213.767 255.159 213.132C255.357 212.935 255.561 212.737 255.783 212.568C256.023 212.392 256.302 212.339 256.556 212.536C256.761 212.695 256.757 212.942 256.687 213.154C256.528 213.633 256.373 214.117 256.157 214.572C254.002 219.144 251.836 223.716 249.663 228.281C249.402 228.831 249.204 229.448 248.555 229.706C248.463 229.688 248.379 229.66 248.294 229.618H248.297Z" fill="#4A4B45"/>
<path d="M255.434 296.705C255.413 295.396 255.219 294.073 255.699 292.8C256.044 293.953 256.136 295.139 256.118 296.338C255.889 296.462 255.663 296.582 255.434 296.705Z" fill="#BEC9B7"/>
<path d="M202.919 313.65C202.919 313.534 202.923 313.421 202.926 313.304C204.521 313.174 205.879 312.521 207.043 311.438C207.241 311.255 207.47 311.103 207.685 310.934C208.472 310.948 208.892 311.554 209.269 312.07C210.684 314.013 212.032 316.01 213.39 317.996C213.545 318.222 213.64 318.501 213.704 318.769C213.824 319.27 213.291 319.788 212.783 319.675C212.621 319.64 212.459 319.58 212.314 319.506C210.875 318.755 209.368 318.134 207.996 317.241C206.962 316.571 205.855 316.021 204.789 315.407C204.306 315.128 203.837 314.818 203.367 314.511C203.057 314.31 202.948 313.999 202.923 313.646L202.919 313.65Z" fill="#DCA781"/>
</svg>
