<svg width="500" height="500" viewBox="0 0 500 500" fill="none" xmlns="http://www.w3.org/2000/svg">
<path d="M134.22 287.686C138.452 285.368 149.637 283.655 154.676 279.927C157.598 277.811 163.543 273.881 167.07 273.982C172.914 274.083 175.333 277.509 176.945 277.811C186.921 279.826 214.027 272.672 220.073 272.873C230.048 273.075 226.522 292.22 222.894 292.12C193.269 291.616 178.456 290.306 173.217 289.701C173.217 289.701 142.483 292.825 138.755 292.623C136.437 292.422 130.593 289.701 134.22 287.686Z" fill="#ECAD83"/>
<path d="M239.52 200.827C223.801 217.554 222.894 250.907 223.801 269.851L250.302 294.841C256.348 277.006 259.069 238.11 261.286 222.995C261.286 222.894 258.767 180.371 239.52 200.827Z" fill="#333333"/>
<path d="M244.962 263.301C244.357 273.68 246.272 283.454 253.023 293.027C255.341 296.252 259.775 301.794 266.828 301.794C273.882 301.794 278.013 298.267 281.036 294.236C284.865 289.198 285.067 283.253 286.679 269.347C289.803 242.745 285.873 221.786 284.16 208.888C283.858 207.074 243.854 204.555 243.854 204.555C248.186 225.312 255.442 237.102 252.721 249.395C252.519 249.496 245.768 251.008 244.962 263.301Z" fill="#FF8AA0"/>
<path d="M412.334 299.375C412.938 295.647 396.916 294.841 392.382 293.027L386.336 294.639C352.277 286.376 336.155 289.903 336.155 289.903C316.002 284.059 276.804 274.688 268.843 274.688C260.883 274.688 259.069 290.709 266.828 292.725C274.587 294.74 281.64 295.546 289.5 296.856C297.36 298.166 326.783 302.096 333.837 302.6C334.845 302.7 384.825 303.003 384.825 303.003C384.825 303.003 386.84 303.406 389.964 305.119C394.196 307.537 401.149 308.343 405.179 307.235C408.505 306.328 411.729 303.103 412.334 299.375Z" fill="#F6BB92"/>
<path d="M396.916 295.445C396.916 295.445 401.854 296.755 402.761 294.236C403.567 292.12 403.567 291.314 392.382 293.027C392.382 293.027 392.281 294.538 396.916 295.445Z" fill="#F6BB92"/>
<path d="M214.228 267.533C209.795 262.898 204.252 264.51 201.028 265.719C191.153 269.75 189.238 275.493 188.029 283.151C186.417 293.228 212.515 301.189 217.15 301.088C229.142 300.584 236.296 285.167 237.505 278.617C238.815 271.362 236.094 272.773 233.172 272.571C233.071 272.571 232.668 272.168 232.668 272.168C231.661 271.966 230.25 271.866 229.041 270.959C229.041 270.959 228.134 271.06 227.63 271.06C227.328 271.06 227.126 270.959 227.026 270.556C226.824 269.447 226.622 268.339 226.219 267.936C225.111 266.424 216.344 269.649 214.228 267.533Z" fill="#F6BB92"/>
<path d="M229.645 275.494C229.645 275.494 230.149 274.89 230.754 271.564C230.653 271.161 230.25 270.355 229.343 270.859C228.537 271.161 229.746 273.177 229.645 275.494Z" fill="#D6876B"/>
<path d="M229.646 275.494C229.646 275.494 231.459 275.09 232.668 272.168C232.668 271.765 232.366 271.362 232.165 271.261C231.258 270.758 230.653 271.564 230.653 271.564C230.149 274.889 229.646 275.494 229.646 275.494Z" fill="#CC785E"/>
<path d="M186.316 283.656C184.401 296.05 199.617 315.195 223.196 301.592C224.808 300.685 226.824 298.368 224.506 294.135C222.894 291.112 220.475 288.795 220.475 288.795C219.77 288.089 218.964 287.384 218.057 286.679C217.15 285.873 210.903 285.671 210.903 284.361C210.903 271.967 205.26 265.82 202.035 265.316C194.075 265.619 188.331 270.455 186.316 283.656Z" fill="#602F0F"/>
<path d="M216.646 290.307C222.39 289.299 222.995 287.082 223.196 283.757L214.429 284.261L210.802 285.369C210.5 288.795 210.903 291.314 216.646 290.307Z" fill="#F6BB92"/>
<path d="M189.238 300.887C185.006 295.647 183.999 289.299 186.921 286.78C189.843 284.261 194.075 286.679 198.207 291.919C202.439 297.259 193.37 306.127 189.238 300.887Z" fill="#4C230C"/>
<path d="M212.515 283.354C211.507 283.354 210.601 283.253 209.895 283.152C208.887 282.951 208.182 282.749 208.182 282.749L208.887 286.578C209.391 286.679 209.895 286.78 210.5 286.88C210.5 286.88 210.399 286.477 210.298 285.772V285.873C211.205 285.47 212.515 285.067 214.43 284.764C214.43 284.563 215.639 283.354 212.515 283.354Z" fill="#602F0F"/>
<path d="M187.525 302.197C182.991 296.453 181.681 289.601 184.804 286.981C187.827 284.361 192.463 286.981 196.997 292.826C201.632 298.469 192.16 307.941 187.525 302.197Z" fill="#602F0F"/>
<path d="M190.75 304.111C190.448 304.413 189.037 303.204 187.626 301.39C186.215 299.576 185.409 297.964 185.712 297.662C186.014 297.36 187.122 298.468 188.533 300.181C189.944 301.995 191.153 303.809 190.75 304.111Z" fill="#4C230C"/>
<path d="M123.64 302.499C127.872 300.182 139.057 298.469 144.095 294.74C147.017 292.624 152.962 288.694 156.489 288.795C162.334 288.896 164.752 292.322 166.364 292.624C176.34 294.64 203.446 287.485 209.492 287.687C219.468 287.888 215.941 307.034 212.314 306.933C182.688 306.429 167.876 305.119 162.636 304.515C162.636 304.515 131.902 307.638 128.174 307.437C125.856 307.235 120.012 304.414 123.64 302.499Z" fill="#F6BB92"/>
<path d="M232.265 283.858C226.421 284.362 220.476 284.865 208.988 287.586C209.996 290.911 212.918 304.011 211.709 306.933C217.654 307.135 245.163 308.243 254.031 301.895C263.301 295.244 262.293 239.319 263.402 220.275C263.402 220.275 258.364 179.666 239.218 200.121C217.251 223.499 232.265 283.858 232.265 283.858Z" fill="#3D3C3C"/>
<path d="M260.58 222.491C260.58 222.491 242.946 196.393 246.07 194.982C255.844 190.347 281.439 190.952 284.059 209.089C284.563 212.314 260.58 222.491 260.58 222.491Z" fill="#3D3C3C"/>
</svg>
