<svg width="500" height="500" viewBox="0 0 500 500" fill="none" xmlns="http://www.w3.org/2000/svg">
<path d="M172.11 318.484C167.873 318.315 163.666 318.762 159.455 319.083C156.281 319.327 153.121 319.761 149.956 320.117C143.76 320.816 137.621 321.897 131.517 323.147C124.458 324.593 117.49 326.39 110.652 328.683C105.855 330.293 101.175 332.199 96.6594 334.491C95.4828 335.091 94.2976 335.655 92.9344 335.668C92.9561 338.303 93.0603 340.934 93.1818 343.57C93.4293 348.905 93.3034 354.254 93.6029 359.594C93.8244 363.54 93.6768 367.509 93.6898 371.464C94.5451 371.481 95.4047 371.498 96.2599 371.52C101.318 371.168 106.389 371.112 111.442 370.825C118.241 370.443 125.048 370.652 131.843 370.222C133.436 370.122 135.034 370.109 136.632 370.113C141.772 370.122 146.895 369.74 152.026 369.471C156.95 369.215 161.877 369.08 166.801 368.889C170.825 368.733 174.85 368.598 178.87 368.412C180.259 368.346 181.64 368.342 183.029 368.377C185.942 368.451 188.851 368.429 191.769 368.229C194.673 368.03 197.595 368.16 200.512 368.121C204.398 368.064 208.297 368.186 212.165 367.739C214.366 367.487 216.563 367.118 218.738 366.692C220.379 366.371 221.899 365.655 223.318 364.76C226.652 362.668 229.405 359.967 231.71 356.772C233.729 353.972 235.131 350.915 235.939 347.568C236.004 347.303 236.143 347.056 236.252 346.804C236.399 345.423 236.786 344.095 237.224 342.792C238.288 339.632 238.826 336.371 239.195 333.067C239.347 331.696 239.577 330.332 239.746 328.965C240.107 326.021 240.463 323.073 240.801 320.125C241.144 317.178 241.414 314.217 241.813 311.277C242.108 309.089 242.538 306.919 242.473 304.696C242.451 303.224 242.564 301.765 242.989 300.346C242.976 299.864 242.833 299.338 242.968 298.9C243.411 297.406 243.306 295.887 243.354 294.372C243.367 293.964 243.411 293.538 243.537 293.152C243.71 292.613 243.758 292.071 243.754 291.515C243.732 289.236 244.405 287 244.209 284.708C244.192 284.508 244.249 284.286 244.327 284.1C244.635 283.37 244.578 282.606 244.596 281.846C244.609 281.295 244.526 280.705 244.683 280.192C245.217 278.456 245.034 276.637 245.343 274.87C245.564 273.602 245.646 272.278 245.864 270.988C246.002 270.172 246.215 269.373 246.393 268.566C246.537 266.755 246.667 264.941 246.836 263.13C246.879 262.666 247.057 262.214 247.175 261.758C247.309 260.169 247.496 258.58 247.574 256.991C247.778 252.902 247.9 248.808 248.13 244.718C248.321 241.323 248.382 237.924 248.803 234.542C249.311 230.461 250.044 226.458 251.781 222.694C250.982 222.377 250.739 221.617 250.418 220.94C247.743 215.322 245.078 209.699 242.425 204.069C242.16 203.509 241.969 202.914 241.774 202.323C241.687 202.058 241.683 201.755 241.935 201.564C242.247 201.32 242.594 201.386 242.885 201.603C243.163 201.807 243.411 202.054 243.654 202.297C244.44 203.079 245.221 203.865 245.998 204.655C247.114 205.788 248.364 206.83 249.306 208.093C250.435 209.608 251.855 210.82 253.118 212.187C253.357 212.448 253.657 212.617 254.013 212.669C254.321 211.675 254.494 210.655 254.629 209.621C254.903 207.494 255.233 205.371 255.584 203.257C256.209 199.501 256.895 195.755 257.507 191.999C258.133 188.174 258.688 184.332 259.3 180.503C259.804 177.36 260.325 174.216 260.872 171.078C261.298 168.62 261.784 166.176 262.635 163.823C260.807 161.118 258.176 159.286 255.623 157.363C251.269 154.081 246.502 151.541 241.474 149.479C236.681 147.512 231.684 146.24 226.514 146.153C220.405 146.053 214.279 146.27 208.353 148.037C201.476 150.086 195.489 153.534 191.061 159.355C189.042 162.012 187.084 164.726 185.521 167.669C182.747 172.897 180.698 178.397 179.53 184.245C178.171 191.053 177.967 197.891 178.41 204.772C178.657 208.579 179.248 212.352 179.808 216.129C181.049 224.504 182.851 232.783 183.824 241.201C184.279 245.126 185.057 249.016 185.565 252.936C186.402 259.405 187.444 265.848 188.009 272.352C188.508 278.091 189.064 283.826 189.58 289.566C189.65 290.321 189.624 291.09 189.646 291.849C189.719 291.966 189.85 292.075 189.863 292.197C190.049 293.981 190.314 295.761 190.371 297.55C190.44 299.694 191.022 301.796 190.861 303.958C190.852 304.092 190.865 304.244 190.918 304.366C191.3 305.295 191.204 306.276 191.239 307.24C191.256 307.796 191.182 308.382 191.343 308.894C191.673 309.914 191.625 310.948 191.66 311.985C191.682 312.675 191.703 313.357 191.89 314.043C192.22 315.263 192.103 316.526 192.02 317.768C191.951 318.801 191.113 319.413 190.145 319.144C189.389 318.936 188.638 318.945 187.883 318.905C187.327 318.879 186.741 318.958 186.229 318.793C185.209 318.463 184.175 318.502 183.138 318.497C179.46 318.484 175.783 318.484 172.106 318.48L172.11 318.484Z" fill="#696C65"/>
<path d="M237.225 342.801C238.289 339.641 238.827 336.38 239.196 333.076C239.348 331.704 239.578 330.341 239.747 328.974C240.108 326.03 240.464 323.082 240.802 320.134C241.145 317.186 241.414 314.226 241.814 311.286C242.109 309.098 242.539 306.928 242.474 304.705C242.756 304.857 243.034 305.009 243.316 305.156C243.568 307.566 243.946 309.975 244.041 312.393C244.171 315.658 244.836 318.854 245.053 322.105C245.33 326.234 246.52 330.133 248.144 333.914C249.073 336.081 249.972 338.26 251.131 340.322C251.296 340.613 251.378 340.982 251.782 341.069C252.086 341.034 252.029 340.783 251.995 340.622C251.656 339.05 251.66 337.453 251.643 335.859C251.621 333.293 251.63 330.723 251.626 328.157C251.621 325.635 252.199 323.217 252.88 320.807C254.986 313.383 258.833 306.975 263.956 301.249C266.708 298.171 269.738 295.453 273.233 293.282C277.366 290.712 281.877 289.553 286.748 290.143C289.931 290.53 292.748 291.771 295.062 294.055C298.045 296.999 300.051 300.528 301.223 304.522C302.669 309.45 302.907 314.473 302.226 319.557C302.087 320.582 302.122 321.632 302.078 322.67C301.11 322.687 300.593 323.434 300.129 324.068C298.388 326.46 296.729 328.917 295.058 331.361C294.867 331.639 294.75 331.982 294.672 332.312C294.524 332.929 295.18 333.567 295.805 333.428C296.004 333.385 296.204 333.311 296.382 333.22C298.154 332.295 300.007 331.531 301.696 330.432C302.968 329.608 304.331 328.93 305.643 328.175C306.237 327.832 306.815 327.45 307.392 327.072C307.774 326.825 307.909 326.443 307.939 326.008C308.013 326.008 308.087 326.008 308.161 326.004L307.935 325.583L433.365 333.932C435.154 333.845 436.969 333.736 438.735 334.288C439.178 334.427 439.699 334.327 440.186 334.327C442.964 334.327 445.738 334.348 448.517 334.327C450.102 334.314 451.677 334.387 453.266 333.992C454.317 333.732 455.476 333.923 456.588 333.91C457.417 333.901 458.242 333.936 459.054 333.649C459.497 333.493 460.009 333.511 460.491 333.511C462.436 333.493 464.376 333.484 466.321 333.502C468.536 333.519 470.181 334.509 471.145 336.51C471.683 337.631 472.122 338.803 472.564 339.966C472.708 340.348 472.938 340.518 473.307 340.574C473.342 340.848 473.402 341.126 473.402 341.399C473.402 345.497 473.381 349.591 473.394 353.69C473.394 354.471 473.181 355.196 473.007 355.939C472.434 358.348 470.98 360.024 468.661 360.866C466.76 361.557 464.741 361.752 462.735 361.756C461.363 361.756 459.974 361.539 458.62 361.274C454.204 360.41 449.798 359.52 445.404 358.561C442.343 357.892 439.309 357.176 436.174 358.049C436.109 358.066 436.035 358.062 435.966 358.062C433.191 358.088 430.452 358.678 427.669 358.561C427.461 358.552 427.252 358.561 427.044 358.587C423.258 359.06 419.446 359.147 415.647 359.321C412.326 359.468 409.018 359.933 405.679 359.824C405.54 359.82 405.401 359.829 405.263 359.855C401.902 360.441 398.485 360.098 395.108 360.532C392.985 360.805 390.823 360.788 388.682 360.884C385.222 361.044 381.762 361.292 378.302 361.439C375.601 361.552 372.905 361.73 370.209 361.882C370.001 361.895 369.797 361.926 369.588 361.956C367.053 362.299 364.513 362.616 361.956 362.711C360.71 362.759 359.468 362.733 358.227 362.972C357.493 363.115 356.686 363.106 355.948 362.968C354.771 362.742 353.599 362.729 352.422 362.755C348.124 362.846 343.835 362.755 339.528 362.981C333.506 363.302 327.463 363.12 321.433 363.462C318.454 363.632 315.463 363.541 312.476 363.575C311.92 363.58 311.352 363.536 310.813 363.654C308.768 364.092 306.676 364.01 304.614 364.261C301.939 364.583 299.221 364.5 296.521 364.661C293.061 364.865 289.583 364.735 286.11 364.739C285.559 364.739 284.994 364.722 284.452 364.626C281.656 364.135 278.86 363.662 276.081 363.102C270.945 362.065 266.065 360.389 261.715 357.337C259.822 356.008 258.06 354.593 256.766 352.652C256.332 351.997 255.711 351.636 254.964 351.332C251.938 350.086 248.795 349.266 245.626 348.497C242.526 347.746 239.417 347.099 236.235 346.835C236.383 345.454 236.769 344.125 237.208 342.823L237.225 342.801Z" fill="#F7BB92"/>
<path d="M262.64 163.827C261.785 166.18 261.303 168.624 260.877 171.081C260.33 174.22 259.809 177.359 259.306 180.507C258.694 184.336 258.138 188.174 257.513 192.003C256.901 195.758 256.215 199.505 255.589 203.26C255.238 205.379 254.908 207.498 254.634 209.625C254.5 210.663 254.33 211.679 254.018 212.673C253.918 213.493 253.848 214.318 253.714 215.13C253.301 217.644 252.985 220.179 252.103 222.589C252.051 223.344 252.099 224.126 251.925 224.855C251.278 227.555 251.144 230.325 250.914 233.06C250.71 235.466 250.267 237.858 250.371 240.289C250.38 240.493 250.332 240.701 250.314 240.91C250.071 243.658 249.807 246.402 249.594 249.154C249.503 250.322 249.511 251.49 249.303 252.662C249.129 253.643 248.895 254.725 249.581 255.667C251.916 255.402 254.257 255.141 256.592 254.868C259.206 254.564 261.811 254.204 264.429 253.956C266.977 253.717 269.552 253.674 272.091 253.383C273.884 253.175 275.686 253.131 277.479 252.984C281.617 252.632 285.754 252.232 289.892 251.89C292.514 251.672 295.145 251.534 297.767 251.342C299.768 251.195 301.77 251.03 303.771 250.861C306.463 250.63 309.15 250.374 311.838 250.162C314.321 249.966 316.809 249.819 319.275 249.424C320.23 249.272 321.211 249.124 322.066 249.797C322.049 249.246 322.101 248.681 322.006 248.143C321.228 243.714 320.195 239.343 318.949 235.023C316.535 226.657 313.001 218.764 308.807 211.166C306.368 206.747 303.702 202.44 300.394 198.576C298.731 196.631 297.168 194.595 295.674 192.515C294.698 191.152 293.517 189.975 292.388 188.773C289.648 185.842 287.239 182.591 284.044 180.094C283.284 179.499 282.615 178.774 281.951 178.071C279.702 175.701 277.175 173.651 274.61 171.646C272.091 169.679 269.469 167.882 266.665 166.353C265.271 165.594 264.099 164.473 262.636 163.822L262.64 163.827Z" fill="#F7BB92"/>
<path d="M322.071 249.803C321.216 249.13 320.235 249.278 319.279 249.43C316.814 249.825 314.326 249.968 311.843 250.168C309.151 250.38 306.463 250.636 303.776 250.867C301.775 251.036 299.773 251.201 297.772 251.348C295.145 251.539 292.519 251.678 289.896 251.895C285.759 252.238 281.621 252.638 277.484 252.99C275.691 253.142 273.893 253.185 272.096 253.389C269.552 253.68 266.982 253.723 264.433 253.962C261.815 254.21 259.206 254.57 256.597 254.874C254.261 255.147 251.921 255.408 249.585 255.668C249.112 256.372 248.986 257.196 248.795 257.991C248.487 259.259 248.209 260.535 247.918 261.803C247.884 262.211 247.905 262.628 247.81 263.023C247.358 264.877 246.876 266.722 246.407 268.571C246.229 269.379 246.012 270.182 245.873 270.998C245.656 272.287 245.574 273.612 245.352 274.879C245.044 276.651 245.227 278.465 244.693 280.202C244.536 280.714 244.619 281.3 244.606 281.856C244.588 282.616 244.645 283.38 244.337 284.109C244.258 284.296 244.202 284.517 244.219 284.717C244.415 287.009 243.742 289.245 243.764 291.525C243.768 292.08 243.72 292.623 243.546 293.161C243.421 293.548 243.377 293.973 243.364 294.381C243.316 295.897 243.425 297.416 242.978 298.91C242.847 299.348 242.986 299.869 242.999 300.355C243.59 301.923 243.347 303.551 243.325 305.161C243.577 307.571 243.955 309.98 244.05 312.399C244.18 315.663 244.845 318.859 245.062 322.11C245.339 326.239 246.529 330.138 248.153 333.919C249.082 336.086 249.981 338.265 251.14 340.327C251.305 340.618 251.387 340.987 251.791 341.074C252.095 341.039 252.038 340.788 252.004 340.627C251.665 339.055 251.669 337.458 251.652 335.864C251.63 333.299 251.639 330.728 251.635 328.163C251.63 325.64 252.208 323.222 252.889 320.812C254.995 313.388 258.842 306.985 263.964 301.254C266.717 298.176 269.747 295.458 273.242 293.287C277.375 290.717 281.886 289.558 286.757 290.148C289.94 290.535 292.757 291.776 295.071 294.06C298.054 297.004 300.06 300.533 301.232 304.527C302.678 309.455 302.916 314.478 302.235 319.562C302.096 320.587 302.131 321.637 302.087 322.675C302.352 322.879 302.63 323.07 302.877 323.296C304.31 324.629 305.981 325.432 307.944 325.592C309.324 323.4 310.709 321.207 312.09 319.015C312.594 318.029 313.084 317.04 313.605 316.067C315.837 311.912 317.812 307.64 319.418 303.212C321.194 298.315 322.288 293.266 322.861 288.078C323.725 280.285 323.964 272.47 323.747 264.646C323.625 260.218 323.152 255.807 322.484 251.422C322.401 250.88 322.21 250.35 322.071 249.816V249.803Z" fill="#8A8AD9"/>
<path d="M93.6906 371.472C93.6733 367.512 93.8208 363.549 93.6038 359.602C93.3085 354.258 93.4301 348.913 93.1826 343.578C93.0611 340.942 92.9569 338.311 92.9352 335.676C91.42 333.87 89.6487 332.307 88.0467 330.592C86.3926 328.817 84.4867 327.28 83.054 325.291C82.9367 325.126 82.7631 324.996 82.5981 324.866C80.5663 323.281 78.2175 322.517 75.6907 322.265C73.6068 322.057 71.6966 322.621 69.973 323.789C68.714 324.644 67.5027 325.573 66.2437 326.433C61.9456 329.359 57.6431 332.268 53.332 335.177C46.4942 339.788 39.652 344.389 32.8098 348.991C31.1905 350.081 29.7056 351.301 28.655 352.981C27.5392 354.77 26.7664 356.693 26.6405 358.803C26.558 360.184 26.6405 361.577 26.6492 362.967C26.6492 363.245 26.6145 363.544 26.7057 363.796C27.6912 366.614 28.6767 369.431 31.0254 371.493C31.8807 372.245 32.8662 372.739 33.9256 373.074C35.5146 373.573 37.147 373.929 38.8184 373.933C42.2178 373.938 45.6433 374.137 49.0166 373.82C54.3567 373.321 59.6924 373.586 65.0281 373.456C69.7386 373.343 74.4578 373.291 79.1596 373.009C82.889 372.783 86.6053 372.379 90.339 372.171C91.4331 372.11 92.5141 371.754 93.6342 371.823C93.6515 371.706 93.6646 371.589 93.6819 371.472H93.6906Z" fill="#F7BB93"/>
<path d="M312.086 319.006C310.705 321.198 309.32 323.391 307.94 325.583C307.94 325.726 307.944 325.865 307.948 326.009C310.314 325.883 312.611 326.417 314.938 326.682C316.783 326.894 318.611 327.32 320.495 327.259C321.941 327.216 323.382 327.389 324.828 327.541C326.469 327.715 328.141 327.858 329.751 328.14C331.939 328.522 334.175 328.232 336.329 328.835C336.719 328.944 337.154 328.904 337.57 328.913C338.881 328.939 340.21 328.796 341.478 329.291C343.496 329.139 345.441 329.894 347.465 329.768C348.007 329.734 348.585 329.794 349.106 329.946C349.722 330.129 350.33 330.163 350.955 330.168C351.719 330.168 352.462 330.207 353.213 330.433C353.795 330.606 354.446 330.559 355.067 330.58C355.826 330.606 356.595 330.533 357.32 330.854C357.446 330.91 357.589 330.958 357.724 330.949C359.742 330.802 361.696 331.462 363.711 331.423C364.336 331.41 364.948 331.444 365.56 331.64C366.011 331.783 366.511 331.809 366.993 331.826C368.234 331.865 369.48 331.77 370.7 332.191C371.139 332.343 371.664 332.243 372.15 332.252C372.91 332.265 373.679 332.195 374.408 332.521C374.534 332.577 374.677 332.625 374.807 332.616C376.965 332.469 379.053 333.198 381.211 333.09C382.04 333.051 382.861 333.081 383.677 332.812C384.185 332.642 384.771 332.682 385.327 332.682C387.897 332.669 390.463 332.677 393.033 332.682C393.793 332.682 394.535 332.747 395.291 332.933C396.506 333.233 397.783 333.233 399.003 332.942C400.522 332.582 402.02 332.543 403.518 332.933C404.208 333.111 404.894 333.081 405.584 333.085C409.678 333.094 413.777 333.094 417.871 333.098C418.7 333.098 419.533 333.046 420.332 333.381C420.58 333.485 420.875 333.502 421.148 333.498C425.164 333.446 429.15 334.149 433.179 333.954C435.033 333.862 436.917 333.728 438.758 334.301C439.2 334.44 439.721 334.34 440.208 334.34C442.986 334.34 445.76 334.362 448.539 334.34C450.124 334.327 451.7 334.401 453.289 334.006C454.339 333.745 455.498 333.936 456.61 333.923C457.439 333.915 458.264 333.949 459.076 333.663C459.519 333.506 460.031 333.524 460.513 333.524C462.458 333.506 464.398 333.498 466.343 333.515C468.558 333.532 470.203 334.522 471.167 336.524C471.705 337.644 472.144 338.816 472.587 339.98C472.73 340.362 472.96 340.531 473.329 340.587C473.559 336.819 472.686 333.285 470.95 329.968C469.782 327.737 467.733 326.768 465.336 326.538C464.099 326.421 462.818 326.412 461.594 326.59C459.658 326.873 457.717 326.899 455.776 326.907C453.545 326.912 451.348 327.15 449.16 327.541C448.752 327.615 448.335 327.658 447.918 327.658C445.07 327.658 442.213 327.802 439.378 327.602C436.187 327.376 432.983 327.528 429.814 327.198C426.137 326.812 422.46 327.042 418.791 326.877C415.539 326.734 412.292 326.447 409.04 326.23C408.489 326.191 407.933 326.135 407.382 326.13C397.105 326.069 386.825 325.987 376.548 325.983C374.247 325.983 371.99 325.805 369.736 325.366C368.447 325.114 367.132 324.988 365.82 324.849C362.721 324.524 359.612 324.246 356.512 323.903C353.482 323.569 350.465 323.161 347.434 322.813C345.576 322.601 343.709 322.457 341.847 322.262C339.919 322.058 337.987 321.867 336.068 321.593C334.696 321.398 333.311 321.402 331.931 321.159C330.094 320.838 328.21 320.786 326.348 320.59C324.42 320.386 322.497 320.139 320.569 319.926C318.776 319.731 316.983 319.562 315.194 319.371C314.161 319.262 313.132 319.132 312.099 319.015L312.086 319.006Z" fill="#DEA882"/>
<path d="M172.112 318.484C175.789 318.489 179.466 318.489 183.144 318.502C184.181 318.502 185.21 318.467 186.235 318.797C186.743 318.962 187.333 318.884 187.889 318.91C188.649 318.949 189.395 318.94 190.151 319.149C191.119 319.418 191.957 318.801 192.026 317.772C192.113 316.535 192.23 315.267 191.896 314.047C191.709 313.361 191.688 312.684 191.666 311.989C191.636 310.952 191.679 309.918 191.349 308.898C191.184 308.39 191.262 307.8 191.245 307.244C191.21 306.276 191.306 305.299 190.924 304.37C190.871 304.244 190.854 304.097 190.867 303.962C191.028 301.804 190.446 299.703 190.377 297.554C190.32 295.765 190.055 293.985 189.869 292.201C189.856 292.079 189.725 291.971 189.652 291.854C188.036 292.34 186.639 293.217 185.345 294.267C184.702 294.788 184.068 295.331 183.495 295.926C177.721 301.961 173.857 308.994 172.394 317.273C172.32 317.681 172.207 318.081 172.112 318.48V318.484Z" fill="#7A4822"/>
<path d="M93.6906 371.473C93.6776 371.59 93.6602 371.707 93.6429 371.824C94.5285 371.855 95.4359 372.059 96.2607 371.529C95.4055 371.512 94.5459 371.494 93.6906 371.477V371.473Z" fill="#ADBFBC"/>
<path d="M252.102 222.595C252.983 220.181 253.3 217.65 253.713 215.136C253.847 214.32 253.917 213.499 254.017 212.679C253.661 212.627 253.361 212.457 253.122 212.197C251.859 210.825 250.444 209.618 249.31 208.103C248.368 206.835 247.118 205.797 246.002 204.664C245.225 203.874 244.444 203.088 243.658 202.307C243.415 202.064 243.163 201.821 242.889 201.612C242.594 201.395 242.251 201.33 241.939 201.573C241.687 201.769 241.691 202.072 241.778 202.333C241.973 202.923 242.164 203.518 242.429 204.078C245.082 209.705 247.747 215.331 250.422 220.949C250.743 221.627 250.986 222.386 251.785 222.703C251.898 222.682 252.002 222.647 252.106 222.595H252.102Z" fill="#4A4B45"/>
<path d="M243.321 305.156C243.347 303.545 243.586 301.917 242.995 300.35C242.57 301.769 242.457 303.228 242.479 304.704C242.761 304.856 243.039 305.004 243.321 305.156Z" fill="#BEC9B7"/>
<path d="M307.948 326.009C307.948 325.866 307.944 325.727 307.94 325.583C305.977 325.423 304.306 324.62 302.873 323.287C302.63 323.061 302.348 322.874 302.083 322.666C301.115 322.683 300.598 323.43 300.134 324.064C298.393 326.456 296.734 328.913 295.063 331.358C294.872 331.636 294.754 331.979 294.676 332.308C294.529 332.925 295.184 333.563 295.809 333.424C296.009 333.381 296.209 333.307 296.387 333.216C298.158 332.291 300.012 331.527 301.701 330.429C302.973 329.604 304.336 328.926 305.647 328.171C306.242 327.828 306.819 327.446 307.397 327.068C307.779 326.821 307.914 326.439 307.944 326.005L307.948 326.009Z" fill="#DCA781"/>
</svg>
