<svg width="500" height="501" viewBox="0 0 500 501" fill="none" xmlns="http://www.w3.org/2000/svg">
<path d="M465.848 309.959C459.056 306.365 441.105 303.708 433.019 297.925C428.329 294.643 418.787 288.547 413.127 288.703C403.747 288.86 399.865 294.174 397.278 294.643C381.267 297.768 337.764 286.671 328.06 286.984C312.05 287.297 317.71 316.993 323.532 316.836C371.079 316.055 394.852 314.023 403.262 313.085C403.262 313.085 452.587 317.931 458.571 317.618C462.29 317.305 471.67 313.085 465.848 309.959Z" fill="#ECAD83"/>
<path d="M296.34 170.162C321.444 197.152 322.893 250.969 321.444 281.536L279.12 321.859C269.465 293.08 265.12 230.32 261.579 205.932C261.579 205.769 265.602 137.156 296.34 170.162Z" fill="#333333"/>
<path d="M287.305 271.56C288.264 288.258 285.228 303.984 274.522 319.385C270.846 324.573 263.816 333.49 252.63 333.49C241.445 333.49 234.894 327.815 230.1 321.331C224.028 313.225 223.708 303.66 221.152 281.287C216.198 238.487 222.43 204.766 225.146 184.015C225.626 181.097 289.062 177.044 289.062 177.044C282.192 210.441 270.687 229.409 275.001 249.187C275.321 249.349 286.026 251.781 287.305 271.56Z" fill="#FF8AA0"/>
<path d="M18.442 329.569C17.4692 323.57 43.2495 322.273 50.5459 319.354L60.2743 321.949C115.078 308.653 141.02 314.328 141.02 314.328C173.448 304.924 236.521 289.845 249.33 289.845C262.139 289.845 265.058 315.625 252.573 318.868C240.088 322.111 228.738 323.408 216.091 325.516C203.444 327.623 156.099 333.947 144.749 334.758C143.128 334.92 62.7064 335.406 62.7064 335.406C62.7064 335.406 59.4636 336.055 54.4372 338.811C47.6273 342.702 36.4396 344 29.954 342.216C24.6034 340.757 19.4149 335.568 18.442 329.569Z" fill="#F6BB92"/>
<path d="M43.2503 323.245C43.2503 323.245 35.3054 325.353 33.8461 321.3C32.549 317.895 32.549 316.597 50.5466 319.354C50.5466 319.354 50.7087 321.786 43.2503 323.245Z" fill="#F6BB92"/>
<path d="M337.211 278.332C344.345 270.873 353.263 273.467 358.451 275.413C374.341 281.899 377.422 291.141 379.367 303.463C381.961 319.677 339.967 332.486 332.509 332.324C313.214 331.514 301.702 306.706 299.756 296.167C297.648 284.493 302.026 286.763 306.728 286.439C306.89 286.439 307.539 285.79 307.539 285.79C309.16 285.466 311.43 285.304 313.376 283.844C313.376 283.844 314.835 284.007 315.646 284.007C316.132 284.007 316.457 283.844 316.619 283.196C316.943 281.412 317.267 279.629 317.916 278.98C319.7 276.548 333.806 281.737 337.211 278.332Z" fill="#F6BB92"/>
<path d="M312.648 291.204C312.648 291.204 312.017 290.138 311.261 284.274C311.387 283.563 311.891 282.142 313.026 283.03C314.035 283.563 312.522 287.117 312.648 291.204Z" fill="#D6876B"/>
<path d="M312.318 291.205C312.318 291.205 309.781 290.527 308.09 285.61C308.09 284.932 308.513 284.254 308.795 284.084C310.063 283.237 310.909 284.593 310.909 284.593C311.614 290.188 312.318 291.205 312.318 291.205Z" fill="#CC785E"/>
<path d="M381.823 304.694C384.905 324.526 360.413 355.162 322.458 333.394C319.862 331.943 316.618 328.235 320.349 321.463C322.944 316.626 326.837 312.917 326.837 312.917C327.972 311.789 329.27 310.66 330.73 309.531C332.19 308.241 342.246 307.919 342.246 305.823C342.246 285.99 351.329 276.155 356.52 275.349C369.334 275.832 378.579 283.572 381.823 304.694Z" fill="#602F0F"/>
<path d="M332.885 315.167C324.119 313.595 323.196 310.135 322.889 304.946L336.268 305.732L341.805 307.462C342.266 312.808 341.651 316.739 332.885 315.167Z" fill="#F6BB92"/>
<path d="M377.145 332.972C383.512 324.353 385.028 313.911 380.631 309.767C376.235 305.623 369.868 309.601 363.653 318.22C357.286 327.005 370.929 341.591 377.145 332.972Z" fill="#4C230C"/>
<path d="M339.967 303.786C341.589 303.786 343.048 303.624 344.183 303.462C345.804 303.138 346.939 302.813 346.939 302.813L345.804 308.975C344.994 309.137 344.183 309.299 343.21 309.461C343.21 309.461 343.372 308.813 343.535 307.678V307.84C342.075 307.191 339.967 306.543 336.887 306.056C336.887 305.732 334.941 303.786 339.967 303.786Z" fill="#602F0F"/>
<path d="M380.179 334.108C387.475 324.866 389.583 313.84 384.557 309.625C379.693 305.409 372.234 309.625 364.938 319.029C357.479 328.109 372.721 343.35 380.179 334.108Z" fill="#602F0F"/>
<path d="M374.812 337.632C375.306 338.169 377.609 336.021 379.912 332.799C382.215 329.576 383.531 326.712 383.037 326.175C382.544 325.638 380.734 327.607 378.431 330.651C376.128 333.873 374.154 337.095 374.812 337.632Z" fill="#4C230C"/>
<path d="M482.76 334.798C475.968 330.956 458.017 328.115 449.931 321.934C445.241 318.425 435.699 311.909 430.039 312.076C420.659 312.243 416.777 317.924 414.19 318.425C398.179 321.767 354.676 309.904 344.973 310.238C328.962 310.573 334.622 342.317 340.444 342.15C387.991 341.314 411.764 339.142 420.174 338.14C420.174 338.14 469.499 343.319 475.483 342.985C479.202 342.651 488.582 337.973 482.76 334.798Z" fill="#F6BB92"/>
<path d="M308.186 304.593C317.59 305.403 327.157 306.214 345.641 310.592C344.019 315.942 339.317 337.021 341.263 341.723C331.697 342.047 287.432 343.831 273.164 333.616C258.247 322.914 259.868 232.926 258.085 202.282C258.085 202.282 266.192 136.939 296.998 169.854C332.345 207.47 308.186 304.593 308.186 304.593Z" fill="#3D3C3C"/>
<path d="M262.625 205.851C262.625 205.851 291 163.857 285.973 161.587C270.246 154.128 229.062 155.101 224.847 184.287C224.036 189.475 262.625 205.851 262.625 205.851Z" fill="#3D3C3C"/>
</svg>
