<svg width="500" height="500" viewBox="0 0 500 500" fill="none" xmlns="http://www.w3.org/2000/svg">
<path d="M184.485 298.43C184.485 299.231 184.565 300.031 184.365 300.791C184.365 302.792 184.405 304.793 184.405 306.794C184.405 307.955 184.365 309.115 184.325 310.276C184.525 311.196 184.485 312.116 184.445 313.037C184.765 314.077 184.845 315.118 184.565 316.198C184.565 316.919 184.645 317.639 184.685 318.359C185.005 319.6 185.245 320.84 185.005 322.161C185.285 323.202 185.285 324.242 185.285 325.283C185.605 325.803 185.646 326.323 185.405 326.883C185.646 327.644 185.686 328.444 185.646 329.204C185.926 329.564 186.006 329.965 185.726 330.405C185.926 331.165 186.046 331.966 186.006 332.766C186.286 333.126 186.366 333.526 186.126 333.966C186.286 334.607 186.446 335.247 186.406 335.927C186.686 336.328 186.726 336.728 186.526 337.128C186.766 337.768 186.806 338.408 186.806 339.089C187.086 339.489 187.126 339.889 186.926 340.289C187.166 340.93 187.206 341.57 187.206 342.21C187.406 342.45 187.446 342.73 187.286 343.051C187.526 343.691 187.606 344.331 187.606 344.971C187.806 345.212 187.887 345.492 187.726 345.812C187.967 346.292 188.007 346.812 188.007 347.373C188.207 347.613 188.287 347.893 188.127 348.213C188.367 348.693 188.407 349.213 188.407 349.774C188.647 350.014 188.687 350.294 188.527 350.614C188.767 351.094 188.847 351.615 188.807 352.175C189.047 352.415 189.087 352.695 188.927 353.015C189.167 353.495 189.247 354.016 189.207 354.536C189.447 354.776 189.487 355.056 189.367 355.376C189.567 355.736 189.607 356.137 189.607 356.537C189.847 356.777 189.887 357.057 189.767 357.377C189.967 357.737 190.048 358.137 190.007 358.538C190.248 358.778 190.288 359.058 190.168 359.378C190.368 359.738 190.448 360.138 190.408 360.539C190.648 360.779 190.688 361.059 190.528 361.379C190.728 361.739 190.808 362.139 190.768 362.539C191.008 362.78 191.088 363.06 190.928 363.38C191.128 364.3 191.328 365.221 191.528 366.101C191.768 366.341 191.808 366.621 191.688 366.941C191.888 367.862 192.128 368.742 192.329 369.663C192.569 369.903 192.649 370.183 192.489 370.503C192.569 370.743 192.609 371.023 192.689 371.263C192.929 371.504 193.009 371.784 192.849 372.104C192.929 372.344 193.009 372.624 193.049 372.864C193.289 373.104 193.369 373.384 193.209 373.705C193.289 373.945 193.369 374.225 193.449 374.465C193.689 374.705 193.769 374.985 193.649 375.305C193.729 375.545 193.809 375.826 193.889 376.066C194.129 376.306 194.209 376.586 194.089 376.906C194.169 377.146 194.249 377.426 194.289 377.666C194.53 377.906 194.61 378.187 194.49 378.507C194.65 379.067 194.77 379.667 194.93 380.228C195.21 380.508 195.37 380.868 195.21 381.268C195.29 381.508 195.37 381.788 195.45 382.028C195.69 382.268 195.77 382.549 195.65 382.869C195.81 383.429 195.97 383.989 196.13 384.59C196.41 384.91 196.57 385.23 196.45 385.63C196.691 386.31 196.931 386.991 197.131 387.671C197.531 388.831 197.891 390.032 198.251 391.193C199.812 390.912 201.333 390.592 202.893 390.312C206.055 389.712 209.176 389.112 212.338 388.511C215.219 387.951 218.1 387.311 220.982 386.71C221.662 386.55 222.422 386.51 222.942 385.91C222.942 384.99 222.862 384.069 222.942 383.149C223.143 379.067 223.343 374.985 223.543 370.943C223.783 365.501 224.103 360.018 224.063 354.576C224.063 354.056 224.063 353.535 224.103 353.015C224.463 348.773 224.863 344.491 225.143 340.249C225.624 333.566 226.024 326.843 226.464 320.16C226.624 317.919 226.744 315.678 226.904 313.477C227.264 307.915 227.625 302.312 227.945 296.75C228.105 293.668 228.225 290.587 228.345 287.465C228.345 287.225 228.345 286.945 228.585 286.785C228.665 286.785 228.705 286.745 228.785 286.785C229.025 286.865 229.265 286.945 229.505 287.065C232.667 288.386 235.908 288.986 239.35 288.146C240.07 287.986 240.751 287.825 241.471 287.665C241.631 287.585 241.791 287.425 241.991 287.385C244.552 286.705 246.593 285.224 248.394 283.303C249.595 282.023 250.795 280.702 251.956 279.382C252.316 278.981 252.596 278.541 252.836 278.061C253.877 276.06 254.317 273.899 254.637 271.658C255.077 268.697 254.637 265.895 253.877 263.134C253.076 260.293 252.396 257.412 251.315 254.65C251.275 254.53 251.315 254.41 251.315 254.25C250.915 253.97 250.755 253.53 250.595 253.09C246.393 243.245 242.151 233.401 237.989 223.516C231.787 208.789 225.304 194.183 219.381 179.376C218.821 177.975 218.14 176.615 218.14 175.054C218.02 172.173 218.541 169.291 218.661 166.41C218.741 164.529 219.101 162.648 219.261 160.728C219.581 157.446 219.781 154.205 220.181 150.923C220.381 149.442 220.421 147.922 220.621 146.401C220.862 144.6 221.062 142.759 221.262 140.919C221.462 139.158 221.502 137.357 221.782 135.636C222.022 134.195 222.022 132.755 222.222 131.314C222.462 129.553 222.662 127.793 222.822 126.032C223.023 124.351 223.143 122.63 223.343 120.949C223.583 118.748 223.783 116.507 224.103 114.306C224.343 112.506 224.263 110.625 225.143 108.944C222.182 108.064 219.221 107.343 216.219 106.743C215.939 106.903 215.659 106.863 215.379 106.623C214.979 106.583 214.579 106.503 214.179 106.463C213.978 106.583 213.818 106.543 213.698 106.383C210.417 106.143 207.175 106.023 203.894 106.263C203.534 106.543 203.133 106.623 202.693 106.343C202.053 106.423 201.373 106.543 200.732 106.623C200.492 106.863 200.212 106.903 199.892 106.743C198.852 106.943 197.811 107.183 196.771 107.383C196.53 107.623 196.25 107.703 195.93 107.543C195.69 107.623 195.41 107.703 195.17 107.783C194.93 108.024 194.65 108.104 194.329 107.984C193.089 108.384 191.848 108.784 190.648 109.224C190.368 109.544 190.048 109.704 189.607 109.664C188.807 109.984 188.047 110.425 187.246 110.665C184.805 111.345 182.644 112.586 180.443 113.786C179.163 114.466 177.882 115.147 176.641 115.867C175.721 116.387 174.801 116.908 173.96 117.548C171.559 119.389 169.278 121.39 167.277 123.711C164.996 126.352 162.795 129.033 160.714 131.834C159.313 133.755 157.993 135.716 157.032 137.877C157.113 138.317 156.952 138.637 156.592 138.918C156.312 139.758 156.032 140.598 155.792 141.439C155.912 141.879 155.792 142.199 155.472 142.519C155.192 143.6 154.912 144.72 154.631 145.801C154.751 146.121 154.631 146.401 154.431 146.641L154.231 147.401C154.351 147.722 154.271 148.002 154.031 148.242C154.031 148.642 153.951 149.042 153.751 149.402C153.911 149.723 153.831 150.003 153.591 150.203C153.511 150.443 153.431 150.723 153.391 150.963C153.551 151.363 153.391 151.723 153.151 152.044C153.071 152.364 153.031 152.684 152.951 153.004C153.191 153.404 153.031 153.724 152.751 154.044C152.67 154.485 152.63 154.925 152.55 155.365C152.831 155.805 152.751 156.165 152.43 156.526C152.19 159.687 152.35 162.848 152.43 166.05C152.751 166.41 152.791 166.81 152.55 167.21C152.871 168.691 152.991 170.212 153.511 171.612C155.112 176.055 156.632 180.537 159.073 184.618C160.114 186.379 160.994 188.22 161.915 190.021C164.796 195.824 167.677 201.666 170.599 207.469C173.52 213.351 176.481 219.194 179.443 225.077C179.763 225.717 180.043 226.397 180.323 227.038C180.683 227.278 180.883 227.598 180.843 228.038C181.043 228.518 181.284 228.959 181.484 229.439C182.204 230.159 182.604 231.04 182.764 232C183.605 233.601 184.445 235.201 185.085 236.922C185.926 237.923 186.446 239.043 186.726 240.324C187.326 241.524 187.887 242.685 188.487 243.885C188.807 243.845 189.167 243.885 189.447 243.725C190.368 243.245 191.088 243.685 191.808 244.166C192.088 244.366 192.289 244.606 192.529 244.846C193.769 246.126 195.01 247.367 196.13 248.768C197.491 250.528 199.132 252.089 200.612 253.73C201.653 254.89 202.693 256.091 203.734 257.292C205.214 259.012 206.735 260.773 208.216 262.494C209.336 263.774 210.497 265.055 211.577 266.336C212.898 267.856 214.179 269.457 215.499 270.978C216.66 272.298 217.86 273.619 219.021 274.94C220.822 277.101 222.582 279.302 224.423 281.423C225.224 282.343 225.784 283.383 226.224 284.464C226.624 285.424 226.704 286.505 226.144 287.465C225.103 287.785 224.063 287.745 223.143 287.105C222.302 286.585 221.502 286.025 220.822 285.304C219.181 283.503 217.46 281.823 215.939 279.902C214.979 278.741 213.898 277.661 212.938 276.54C211.577 274.94 210.257 273.339 208.856 271.738C207.535 270.217 206.055 268.777 204.814 267.176C204.054 266.176 203.093 265.375 202.373 264.335C201.213 262.654 199.612 261.333 198.411 259.693C197.371 258.292 196.05 257.051 194.89 255.691C193.129 253.65 191.408 251.569 189.687 249.528C189.447 249.248 189.127 249.208 188.807 249.208C188.567 249.968 188.727 250.729 188.807 251.489C188.847 252.169 189.007 252.89 188.807 253.61C188.967 254.13 188.967 254.65 188.927 255.211C189.207 256.011 189.287 256.771 189.007 257.572C189.087 258.772 189.367 259.933 189.207 261.133C189.367 261.654 189.367 262.174 189.327 262.734C189.607 263.374 189.687 264.055 189.407 264.695C189.487 266.015 189.807 267.296 189.647 268.657C189.647 269.057 189.727 269.457 189.727 269.857C190.007 270.498 190.088 271.178 189.807 271.818C190.128 273.019 190.008 274.099 189.247 275.18C188.887 275.7 188.647 276.34 188.367 276.9C188.407 277.341 188.247 277.661 187.927 277.941C187.646 278.781 187.406 279.622 187.126 280.462C187.246 280.782 187.126 281.062 186.926 281.302C186.846 281.543 186.766 281.823 186.726 282.063C186.846 282.383 186.766 282.663 186.566 282.903C186.326 283.944 186.126 284.984 185.886 286.025C186.046 286.345 186.006 286.585 185.766 286.865C185.766 287.385 185.766 287.905 185.525 288.426C185.726 288.866 185.686 289.266 185.405 289.626C185.445 290.427 185.285 291.227 185.125 291.987C185.365 292.388 185.325 292.788 185.045 293.188C185.045 294.228 185.045 295.269 184.765 296.309C185.005 297.11 185.005 297.91 184.645 298.71L184.485 298.43Z" fill="#696D65"/>
<path d="M225.143 108.704C224.263 110.385 224.383 112.266 224.103 114.067C223.783 116.268 223.583 118.509 223.343 120.71C223.183 122.39 223.023 124.111 222.822 125.792C222.622 127.553 222.462 129.313 222.222 131.074C222.022 132.515 222.022 133.956 221.782 135.396C221.502 137.117 221.422 138.918 221.262 140.679C221.062 142.52 220.862 144.32 220.621 146.161C220.421 147.642 220.381 149.163 220.181 150.683C219.781 153.925 219.581 157.206 219.261 160.488C219.061 162.369 218.741 164.249 218.661 166.17C218.54 169.052 217.98 171.933 218.14 174.814C219.021 174.934 219.741 175.414 220.301 176.055C221.502 177.375 222.742 178.616 223.783 180.057C226.464 183.698 229.065 187.38 231.466 191.182C232.267 192.422 232.947 193.783 234.188 194.703C234.588 194.383 235.028 194.063 235.388 193.663C239.11 189.861 242.992 186.219 247.274 183.018C249.114 181.657 250.875 180.137 252.756 178.856C256.638 176.255 260.56 173.774 264.521 171.293C265.162 170.892 265.882 170.532 266.602 170.212C267.283 169.892 267.883 170.132 268.283 170.772C268.603 171.293 268.723 171.853 268.723 172.453C268.723 173.454 268.683 174.454 268.843 175.414C269.324 178.456 269.244 181.577 269.444 184.619C269.684 188.22 270.084 191.822 269.964 195.424C269.964 195.544 269.964 195.704 269.964 195.824C270.564 199.145 270.204 202.507 270.604 205.828C270.844 207.949 270.684 210.15 270.684 212.311C270.684 214.272 270.684 214.272 269.804 215.833C271.845 215.953 272.205 216.313 272.765 218.274C273.325 220.355 273.806 222.476 274.566 224.517C275.526 227.118 276.607 229.639 278.128 231.96C279.768 234.401 281.649 236.482 284.37 237.763C286.011 238.563 287.652 238.563 289.333 238.123C291.334 237.603 292.814 236.322 294.095 234.802C295.696 232.881 296.816 230.6 297.737 228.279C299.217 224.557 299.978 220.595 300.178 216.593C300.338 213.192 300.498 209.79 299.938 206.389C299.617 204.548 299.777 202.627 299.537 200.706C299.257 198.505 299.457 196.224 299.457 193.983C299.457 193.783 299.457 193.583 299.537 193.383C299.617 193.022 300.218 192.822 300.498 193.063C300.658 193.183 300.818 193.303 300.898 193.463C301.418 194.303 301.818 195.224 302.059 196.184C303.139 200.706 304.26 205.228 304.179 209.91C304.179 210.43 304.22 210.951 304.38 211.471C304.7 212.631 304.7 213.832 304.38 214.952C304.22 215.553 304.22 216.113 304.179 216.713C304.179 218.074 304.059 219.435 303.859 220.835C303.379 224.037 302.619 227.118 301.458 230.119C300.058 233.721 298.137 236.963 295.255 239.604C294.135 240.644 292.814 241.365 291.454 241.965C289.973 242.645 288.412 242.605 286.812 242.685C283.77 242.845 281.289 241.525 279.048 239.764C277.247 238.363 275.727 236.602 274.486 234.641C271.765 230.4 270.004 225.757 269.003 220.835C268.803 219.835 268.723 218.794 268.283 217.834C267.243 219.034 266.602 220.435 265.882 221.836C264.962 223.676 264.361 225.717 263.241 227.478C263.081 227.718 263.081 228.118 263.041 228.399C263.081 228.719 263.121 229.119 263.401 229.279C264.561 229.919 265.282 231.08 266.442 231.76C267.163 232.2 267.643 232.841 267.923 233.761C268.763 236.522 269.684 239.244 270.684 241.965C271.044 242.925 270.884 243.686 270.284 244.326C269.324 245.366 268.323 246.447 267.163 247.327C265.202 248.888 263.561 250.769 261.8 252.53C261.44 252.89 261.16 253.37 260.92 253.85C260.44 254.851 260.039 255.931 260.4 257.092C260.92 258.652 261.36 260.213 262.04 261.734C262.721 263.214 263.321 264.735 263.921 266.256C264.081 266.616 264.281 267.016 264.081 267.376C263.521 268.417 263.281 269.577 262.641 270.578C261.28 272.619 260.48 274.9 259.639 277.181C259.039 278.862 259.639 279.902 261.2 280.702C261.32 280.742 261.44 280.823 261.56 280.863C263.161 281.343 264.561 282.223 266.002 282.943C267.363 283.584 268.683 284.344 270.084 284.904C271.244 285.345 272.325 285.945 273.486 286.465C274.086 286.745 274.606 287.145 274.886 287.786C275.086 287.906 275.366 288.026 275.526 288.186C277.167 289.987 279.008 291.547 280.489 293.468C281.009 294.149 281.649 294.669 282.249 295.269C282.49 294.869 282.77 294.509 282.97 294.109C285.611 289.506 288.212 284.864 290.933 280.302C291.654 279.102 291.934 277.941 291.734 276.581C291.214 273.059 290.813 269.577 290.293 266.056C290.133 264.975 290.293 264.015 290.773 263.014C292.654 259.053 294.495 255.051 296.336 251.049C297.857 247.727 299.417 244.366 300.938 241.044C301.018 240.444 300.818 239.884 300.658 239.324C300.338 238.083 300.218 236.882 301.138 235.762C301.338 235.522 301.458 235.202 301.578 234.882C302.579 232.36 303.459 229.839 304.059 227.238C304.5 225.397 305.02 223.556 305.22 221.676C305.42 219.715 305.54 217.754 305.7 215.793C305.7 213.032 305.7 210.27 305.7 207.509C305.62 205.828 305.58 204.108 305.5 202.427C305.26 202.187 305.26 201.907 305.34 201.586C304.94 197.945 304.66 194.303 303.979 190.701C303.779 189.581 303.859 188.34 303.219 187.3C302.979 187.54 302.699 187.74 302.539 187.98C301.698 189.141 300.858 190.341 300.018 191.502C299.818 191.782 299.657 192.342 299.217 192.262C298.737 192.182 298.897 191.622 298.857 191.262C298.777 188.901 298.737 186.54 298.617 184.178C298.417 180.377 298.537 176.535 298.497 172.733L298.377 166.891C298.017 166.45 298.097 165.93 298.097 165.41C298.097 164.449 298.097 163.489 298.097 162.529C298.057 160.688 297.977 158.847 297.937 157.046C297.697 156.806 297.697 156.526 297.777 156.206C297.697 154.765 297.657 153.324 297.576 151.844C297.536 151.724 297.496 151.604 297.576 151.484C297.136 149.563 297.136 147.602 296.936 145.681C296.776 144.2 296.856 142.68 296.856 141.199C296.816 141.079 296.816 140.959 296.856 140.839C296.776 140.519 296.616 140.198 296.576 139.878C296.216 137.597 295.816 135.356 295.536 133.075C295.295 131.234 294.895 129.474 294.615 127.633C294.255 125.192 293.415 122.911 292.414 120.71C291.894 119.589 291.094 118.589 290.253 117.668C288.572 115.827 286.491 114.587 284.451 113.266C284.09 113.026 283.61 112.906 283.17 112.746C280.889 111.866 278.528 111.705 276.167 112.106C273.646 112.506 271.084 112.826 268.523 112.906C268.283 113.146 268.003 113.146 267.683 113.066C265.682 113.266 263.641 113.346 261.68 113.666C259.999 113.946 258.319 114.027 256.638 114.027C256.398 114.027 256.118 114.067 255.877 114.107C255.757 114.187 255.637 114.267 255.517 114.267C254.077 114.427 252.676 114.627 251.235 114.787C249.875 114.947 248.474 114.987 247.154 115.307C246.073 115.587 245.233 115.387 244.312 114.947C240.11 112.946 235.748 111.305 231.266 109.985C229.185 109.384 227.104 108.864 224.903 108.744L225.143 108.704ZM270.284 137.037C270.284 140.078 270.284 143.08 270.284 146.121C270.284 146.641 270.404 147.202 270.244 147.682C269.804 149.082 269.924 150.563 269.924 152.004C269.924 156.606 269.924 161.208 269.924 165.81C269.924 166.771 269.804 167.651 269.444 168.491C269.043 169.452 268.123 169.932 267.203 169.572C266.362 169.252 265.722 168.691 265.602 167.731C265.522 167.211 265.602 166.691 265.602 166.17C265.602 159.247 265.602 152.364 265.602 145.441C265.602 143.92 265.442 142.399 265.922 140.959C266.042 140.679 265.962 140.319 265.962 139.958C265.962 136.397 265.962 132.835 265.962 129.313C265.962 128.153 265.562 127.473 264.521 127.072C260.48 125.512 256.478 123.871 252.556 122.07C250.595 121.67 249.475 120.149 248.194 118.869C247.954 118.629 247.754 118.308 247.874 117.988C248.194 116.868 248.634 116.268 249.715 116.348C250.115 116.348 250.555 116.348 250.875 116.508C252.236 117.228 253.676 117.628 255.077 118.188C259.399 119.949 263.681 121.75 268.003 123.471C269.524 124.071 270.124 125.152 270.324 126.592C270.404 127.032 270.324 127.513 270.324 127.953C270.324 130.994 270.324 133.996 270.324 137.037H270.284Z" fill="#FFB68A"/>
<path d="M275.046 287.826C274.766 287.186 274.246 286.785 273.646 286.505C272.525 285.985 271.445 285.385 270.244 284.945C268.843 284.384 267.523 283.624 266.162 282.984C264.682 282.263 263.281 281.383 261.72 280.903C261.6 280.903 261.48 280.783 261.36 280.743C259.759 279.942 259.199 278.862 259.799 277.221C260.6 274.94 261.44 272.659 262.801 270.618C263.481 269.618 263.681 268.457 264.241 267.417C264.441 267.056 264.241 266.656 264.081 266.296C263.441 264.775 262.881 263.255 262.2 261.774C261.48 260.293 261.08 258.693 260.56 257.132C260.159 256.011 260.56 254.931 261.08 253.89C261.28 253.41 261.6 252.97 261.96 252.57C263.721 250.809 265.362 248.928 267.323 247.367C268.443 246.487 269.444 245.407 270.444 244.366C271.044 243.726 271.205 242.965 270.844 242.005C269.844 239.284 268.963 236.562 268.083 233.801C267.803 232.921 267.323 232.241 266.602 231.8C265.442 231.12 264.722 229.959 263.561 229.319C263.281 229.159 263.241 228.759 263.201 228.439C262.761 228.519 262.441 228.279 262.16 228.039C261.6 227.598 260.96 227.318 260.24 227.158C259.799 228.319 259.319 229.479 258.919 230.68C256.518 237.523 254.317 244.406 252.156 251.289C251.876 252.17 251.636 253.05 251.355 253.93C251.355 254.05 251.355 254.211 251.355 254.331C252.396 257.092 253.116 259.973 253.917 262.814C254.677 265.616 255.117 268.417 254.677 271.338C254.357 273.579 253.917 275.74 252.876 277.741C252.636 278.221 252.356 278.662 251.996 279.062C250.835 280.382 249.635 281.703 248.434 282.984C246.673 284.905 244.592 286.345 242.031 287.065C241.831 287.106 241.711 287.226 241.511 287.346C241.591 287.946 241.511 288.506 241.311 289.106C240.551 291.908 240.511 294.829 240.35 297.71C240.11 302.392 240.791 307.035 240.751 311.717C240.751 311.837 240.751 311.997 240.751 312.117C241.271 315.038 241.111 318 241.351 320.961C241.671 325.003 241.471 329.125 241.751 333.166C242.031 337.368 241.831 341.57 242.151 345.772C242.431 348.974 242.271 352.215 242.551 355.417C242.832 358.618 242.792 361.86 242.952 365.061C243.112 369.183 243.472 373.345 243.512 377.467C243.512 379.708 243.552 381.909 243.712 384.15C243.872 386.791 244.272 389.392 244.632 391.953C244.953 394.114 246.193 395.595 248.274 396.195C250.155 396.755 252.076 397.276 254.077 397.156C254.877 397.116 255.637 397.156 256.438 397.236C256.718 396.916 256.958 396.956 257.238 397.236C258.159 397.116 259.039 397.436 259.959 397.436C265.082 397.556 270.164 397.676 275.286 397.956C277.968 398.116 280.649 398.316 283.33 398.476C283.73 398.476 284.13 398.476 284.531 398.476C287.052 398.196 287.852 397.516 288.412 395.075C288.692 393.914 288.973 392.754 289.173 391.593C289.293 390.833 289.333 390.032 289.333 389.232C289.333 388.152 288.853 387.351 287.892 386.791C287.612 386.631 287.332 386.471 287.012 386.311C283.97 384.91 280.929 383.469 277.888 382.109C274.246 380.428 270.564 378.787 266.843 377.387C266.162 377.147 265.962 376.706 265.962 376.026C266.002 373.865 265.962 371.664 266.282 369.543C266.202 369.423 266.082 369.303 266.082 369.223C266.082 367.782 266.082 366.342 266.082 364.901C266.082 364.741 266.282 364.581 266.362 364.421C266.362 364.021 266.362 363.62 266.402 363.22C266.402 362.7 266.322 362.18 266.322 361.699C266.322 359.579 266.322 357.458 266.642 355.337C266.562 355.177 266.402 354.976 266.402 354.816C266.402 353.136 266.402 351.415 266.402 349.734C266.402 349.494 266.602 349.254 266.722 349.054C266.682 348.013 266.602 346.933 266.803 345.892C266.803 345.252 266.722 344.572 266.722 343.931C266.722 340.33 266.883 336.688 266.963 333.086C267.123 326.123 267.083 319.16 266.722 312.197C266.642 310.996 266.843 309.836 267.283 308.715C268.003 306.834 268.763 304.914 269.444 302.993C271.285 297.95 273.125 292.868 275.006 287.826H275.046Z" fill="#E6A47C"/>
<path d="M256.998 408.28C256.798 407.12 256.598 405.959 256.158 404.839C255.437 402.998 254.277 401.557 252.516 400.597C243.352 395.674 234.148 390.872 224.783 386.31C224.183 386.03 223.623 385.67 222.943 385.63C222.422 386.27 221.662 386.27 220.982 386.43C218.1 387.071 215.219 387.671 212.338 388.231C209.216 388.871 206.055 389.432 202.893 390.032C201.333 390.312 199.812 390.632 198.251 390.912C198.251 391.433 198.331 391.953 198.491 392.473C199.532 395.915 200.492 399.396 201.533 402.838C202.013 404.478 202.493 406.119 203.093 407.72C204.134 410.721 205.655 413.443 208.096 415.564C209.416 416.684 210.817 417.324 212.538 417.324C213.578 417.324 214.619 417.404 215.699 417.404C215.979 417.404 216.219 417.404 216.5 417.404C216.9 417.404 217.3 417.324 217.66 417.324C224.503 417.324 231.386 417.324 238.229 417.324C238.75 417.324 239.27 417.364 239.79 417.404C242.672 417.284 245.593 417.284 248.474 417.404C249.435 417.244 250.395 417.084 251.395 416.924C251.996 416.804 252.516 416.524 252.996 416.164C255.037 414.483 256.598 412.522 256.998 409.801C256.878 409.281 256.838 408.76 256.998 408.24V408.28Z" fill="#FFB68B"/>
<path d="M348.96 271.579C348.84 270.538 348.84 269.458 348.96 268.417C348.84 267.497 348.68 266.576 348.56 265.656C348.36 265.416 348.28 265.136 348.4 264.815C348.32 264.575 348.28 264.295 348.2 264.055C348 263.815 347.879 263.535 347.96 263.215C346.479 258.893 343.838 255.531 339.996 253.05C336.234 250.649 332.232 249.288 327.71 250.289C327.51 250.649 327.07 250.689 326.79 250.889C326.79 251.689 326.79 252.45 327.39 253.09C327.63 253.33 327.71 253.65 327.87 253.93C328.831 255.931 329.471 258.052 330.031 260.213C330.632 262.694 330.992 265.216 331.072 267.737C331.192 271.098 331.312 274.5 330.832 277.901C330.512 280.222 329.991 282.503 329.511 284.785C329.471 285.025 329.231 285.185 329.071 285.385C329.071 285.505 329.071 285.625 328.991 285.745C328.951 286.545 328.791 287.306 328.511 288.026C328.631 288.346 328.591 288.586 328.391 288.866C328.271 290.067 328.07 291.227 327.75 292.388C327.87 292.708 327.83 292.948 327.63 293.228C327.63 293.749 327.63 294.269 327.35 294.749C327.47 295.069 327.43 295.309 327.23 295.589C326.91 297.79 326.59 299.951 326.23 302.152C326.11 302.993 326.11 303.833 325.749 304.634C325.869 304.914 325.829 305.194 325.629 305.474C325.549 306.274 325.429 307.035 325.389 307.835C325.309 309.236 326.35 310.236 327.75 310.076C328.671 309.956 329.511 309.636 330.311 309.156C331.392 308.475 332.272 307.635 333.113 306.674C334.273 305.314 335.394 303.953 336.514 302.593C339.956 298.391 342.757 293.829 344.438 288.626C345.438 285.585 346.559 282.544 347.639 279.542C347.519 279.222 347.639 278.942 347.839 278.702C347.92 278.462 347.96 278.182 348.04 277.941C347.92 277.621 348.04 277.341 348.2 277.101C348.28 276.701 348.36 276.341 348.44 275.941C348.32 275.62 348.36 275.38 348.56 275.1L349 271.538L348.96 271.579Z" fill="#894100"/>
<path d="M188.447 243.565C188.287 243.925 188.127 244.286 187.967 244.606C187.526 245.486 187.526 246.367 188.047 247.207C188.367 247.767 188.607 248.367 188.727 249.008C189.047 249.008 189.367 249.048 189.607 249.328C191.328 251.369 193.049 253.45 194.81 255.491C195.97 256.851 197.251 258.052 198.331 259.493C199.572 261.133 201.133 262.454 202.293 264.135C203.013 265.135 203.974 265.975 204.734 266.976C205.975 268.577 207.455 270.017 208.776 271.538C210.137 273.099 211.497 274.739 212.858 276.34C213.818 277.501 214.899 278.541 215.859 279.702C217.38 281.583 219.141 283.303 220.741 285.104C221.422 285.865 222.262 286.385 223.063 286.905C223.983 287.505 225.023 287.585 226.064 287.265C226.664 286.265 226.544 285.224 226.144 284.264C225.704 283.183 225.143 282.143 224.343 281.222C222.502 279.101 220.741 276.86 218.941 274.739C217.78 273.379 216.58 272.098 215.419 270.778C214.098 269.257 212.818 267.656 211.497 266.136C210.377 264.855 209.216 263.574 208.136 262.294C206.615 260.573 205.134 258.812 203.654 257.091C202.613 255.891 201.613 254.73 200.532 253.53C199.052 251.889 197.451 250.288 196.05 248.568C194.93 247.167 193.689 245.926 192.449 244.646C192.208 244.406 192.008 244.166 191.728 243.965C191.008 243.445 190.288 243.005 189.367 243.525C189.087 243.685 188.727 243.645 188.407 243.685L188.447 243.565Z" fill="#494A45"/>
<path d="M320.067 249.008C317.105 245.927 313.664 243.566 309.622 242.125C306.861 241.164 304.06 240.604 301.098 241.124C299.578 244.446 298.017 247.807 296.496 251.129C294.655 255.131 292.814 259.133 290.934 263.094C290.453 264.095 290.333 265.055 290.453 266.136C290.974 269.657 291.374 273.139 291.894 276.661C292.094 278.021 291.854 279.142 291.094 280.382C288.372 284.944 285.771 289.586 283.13 294.189C282.89 294.589 282.65 294.949 282.41 295.349C282.41 296.75 283.21 297.67 284.251 298.39C285.891 299.591 287.732 300.471 289.573 301.392C291.174 301.872 292.774 302.392 294.335 302.873C294.575 302.913 294.855 302.953 295.095 302.993C295.656 302.913 296.216 302.993 296.696 303.273C298.817 303.273 300.938 303.273 303.019 303.273C303.539 303.033 304.02 302.913 304.58 303.033C304.86 302.993 305.1 302.953 305.38 302.913C305.62 302.712 305.9 302.632 306.221 302.752C307.461 302.352 308.702 301.952 309.902 301.552C310.182 301.232 310.542 301.112 310.943 301.072C311.663 300.712 312.383 300.351 313.104 300.031C313.344 299.671 313.664 299.471 314.104 299.431C315.385 298.431 316.665 297.39 317.826 296.229C320.467 293.708 322.588 290.867 324.149 287.546C324.549 286.665 325.029 285.785 325.469 284.904C325.469 284.784 325.469 284.704 325.509 284.584C325.389 283.184 325.629 281.863 326.15 280.542C326.39 279.982 326.59 279.422 326.63 278.862C326.83 276.741 327.23 274.58 327.07 272.419C326.95 270.618 327.15 268.777 326.75 266.936C326.51 265.816 326.55 264.615 326.27 263.455C326.07 262.494 325.95 261.534 325.509 260.613C323.989 257.572 322.788 254.37 320.827 251.569C320.307 250.849 319.827 250.008 319.947 249.008H320.067Z" fill="#894100"/>
<path d="M234.188 194.664C234.588 195.784 235.228 196.785 235.869 197.785C236.229 198.345 236.269 198.786 236.029 199.426C234.668 202.907 235.068 206.229 237.069 209.39C239.871 213.792 243.512 217.314 247.994 220.035C249.555 220.996 251.116 221.996 252.636 223.037C254.597 224.397 256.718 225.438 258.879 226.398C259.359 226.598 259.88 226.718 260.16 227.239C260.88 227.399 261.52 227.679 262.081 228.119C262.401 228.359 262.721 228.599 263.121 228.519C263.201 228.199 263.161 227.839 263.321 227.599C264.482 225.838 265.042 223.837 265.962 221.956C266.643 220.555 267.323 219.155 268.363 217.954C268.724 217.194 269.084 216.434 269.764 215.913C270.604 214.393 270.604 214.393 270.645 212.392C270.645 210.231 270.805 208.03 270.564 205.909C270.164 202.587 270.564 199.226 269.924 195.904C269.924 195.784 269.924 195.624 269.924 195.504C270.004 191.902 269.604 188.301 269.404 184.699C269.204 181.618 269.284 178.536 268.804 175.495C268.644 174.535 268.724 173.534 268.684 172.534C268.684 171.933 268.564 171.373 268.243 170.853C267.843 170.213 267.243 169.972 266.563 170.293C265.842 170.613 265.162 170.973 264.482 171.373C260.56 173.894 256.598 176.375 252.716 178.936C250.795 180.217 249.075 181.698 247.234 183.098C242.952 186.3 239.07 189.901 235.348 193.743C234.988 194.103 234.548 194.424 234.148 194.784L234.188 194.664Z" fill="#8A89DE"/>
<path d="M269.764 215.833C269.083 216.353 268.723 217.114 268.363 217.874C268.803 218.835 268.883 219.875 269.083 220.875C270.084 225.798 271.845 230.44 274.566 234.682C275.807 236.643 277.327 238.403 279.128 239.804C281.369 241.565 283.85 242.846 286.892 242.725C288.492 242.645 290.013 242.645 291.534 242.005C292.934 241.405 294.215 240.645 295.335 239.644C298.217 237.003 300.138 233.761 301.538 230.16C302.739 227.158 303.459 224.077 303.939 220.875C304.139 219.515 304.26 218.154 304.26 216.754C304.26 216.153 304.26 215.593 304.46 214.993C304.78 213.832 304.78 212.632 304.46 211.511C304.3 210.991 304.26 210.471 304.26 209.951C304.34 205.268 303.179 200.746 302.139 196.224C301.898 195.264 301.498 194.343 300.978 193.503C300.858 193.343 300.698 193.223 300.578 193.103C300.298 192.863 299.697 193.063 299.617 193.423C299.617 193.623 299.537 193.823 299.537 194.023C299.537 196.264 299.337 198.505 299.617 200.746C299.858 202.627 299.697 204.588 300.018 206.429C300.618 209.83 300.458 213.272 300.258 216.634C300.058 220.635 299.297 224.557 297.817 228.319C296.896 230.64 295.776 232.881 294.175 234.842C292.894 236.363 291.414 237.643 289.413 238.163C287.732 238.604 286.091 238.564 284.45 237.803C281.729 236.523 279.808 234.442 278.208 232.001C276.647 229.68 275.606 227.158 274.646 224.557C273.886 222.516 273.405 220.435 272.845 218.314C272.285 216.353 271.925 215.993 269.884 215.873L269.764 215.833Z" fill="#E7A47A"/>
<path d="M270.284 137.036C270.284 133.995 270.284 130.994 270.284 127.952C270.284 127.472 270.324 127.032 270.284 126.592C270.084 125.151 269.484 124.07 267.963 123.47C263.641 121.789 259.359 119.949 255.037 118.188C253.636 117.628 252.196 117.187 250.835 116.507C250.515 116.347 250.075 116.347 249.675 116.347C248.594 116.267 248.154 116.867 247.834 117.988C247.754 118.308 247.914 118.628 248.154 118.868C249.434 120.189 250.555 121.669 252.516 122.07C256.478 123.87 260.439 125.511 264.481 127.072C265.562 127.472 265.962 128.152 265.922 129.313C265.842 132.874 265.922 136.436 265.922 139.958C265.922 140.278 266.002 140.638 265.882 140.958C265.362 142.439 265.562 143.96 265.562 145.44C265.562 152.363 265.562 159.246 265.562 166.17C265.562 166.69 265.562 167.21 265.562 167.73C265.682 168.691 266.322 169.251 267.163 169.571C268.083 169.931 269.043 169.451 269.404 168.491C269.764 167.65 269.884 166.73 269.884 165.809C269.884 161.207 269.884 156.605 269.884 152.003C269.884 150.563 269.764 149.122 270.204 147.681C270.364 147.201 270.244 146.641 270.244 146.121C270.244 143.079 270.244 140.078 270.244 137.036H270.284Z" fill="#E7A47A"/>
<path d="M303.459 187.34C303.459 185.419 302.979 183.578 302.459 181.778C301.658 179.016 300.658 176.335 299.377 173.734C299.217 173.374 298.977 173.094 298.737 172.773C298.737 176.575 298.657 180.417 298.857 184.219C298.977 186.58 299.017 188.941 299.097 191.302C299.097 191.662 298.937 192.222 299.457 192.302C299.898 192.382 300.018 191.862 300.258 191.542C301.098 190.381 301.939 189.181 302.779 188.02C302.979 187.78 303.259 187.58 303.459 187.34Z" fill="#8A89DE"/>
<path d="M320.067 249.008C319.947 250.008 320.427 250.809 320.947 251.569C322.908 254.37 324.109 257.572 325.629 260.613C326.07 261.494 326.15 262.494 326.39 263.454C326.67 264.615 326.63 265.815 326.87 266.936C327.27 268.777 327.07 270.578 327.19 272.418C327.35 274.579 326.95 276.7 326.75 278.861C326.71 279.422 326.47 280.022 326.27 280.542C325.749 281.823 325.509 283.183 325.629 284.584C325.749 284.664 325.909 284.744 326.03 284.824C326.43 284.944 326.83 285.104 327.19 285.224C327.39 285.144 327.59 285.224 327.71 285.424C327.95 285.464 328.15 285.544 328.391 285.584C328.631 285.584 328.831 285.584 329.071 285.584C329.231 285.384 329.471 285.184 329.511 284.984C330.031 282.703 330.512 280.422 330.832 278.101C331.312 274.7 331.192 271.298 331.072 267.936C330.952 265.415 330.632 262.894 330.031 260.413C329.511 258.252 328.831 256.131 327.87 254.13C327.71 253.85 327.63 253.49 327.39 253.29C326.75 252.649 326.75 251.889 326.79 251.089C325.749 250.729 324.589 250.569 323.628 249.968C323.388 249.888 323.148 249.848 322.868 249.768C322.548 249.888 322.268 249.768 322.028 249.568C321.387 249.448 320.707 249.328 320.067 249.168V249.008Z" fill="#5E3816"/>
</svg>
