<svg width="500" height="500" viewBox="0 0 500 500" fill="none" xmlns="http://www.w3.org/2000/svg">
<path d="M343.494 190.096C343.405 189.64 343.316 189.184 343.227 188.731C342.98 188.442 342.848 188.132 343.08 187.769C342.995 187.305 342.914 186.841 342.829 186.377C342.578 186.13 342.512 185.855 342.701 185.538C342.628 185.198 342.554 184.858 342.481 184.521C342.203 184.309 342.129 184.069 342.392 183.791C341.58 178.537 340.235 173.406 338.758 168.307C338.135 166.165 337.196 164.147 336.342 162.102C334.575 157.865 332.329 153.902 329.437 150.318C328.157 148.733 326.951 147.086 325.722 145.466C323.046 141.944 319.857 138.975 316.238 136.435C312.19 133.594 308.089 130.853 303.673 128.603C302.193 127.849 300.728 127.041 299.112 126.585C298.899 126.623 298.74 126.546 298.628 126.364C298.427 126.306 298.222 126.248 298.021 126.19C297.801 126.241 297.639 126.163 297.519 125.978C297.318 125.92 297.121 125.866 296.919 125.808C296.695 125.862 296.529 125.781 296.405 125.595C296.208 125.541 296.011 125.483 295.81 125.429C295.586 125.487 295.416 125.406 295.292 125.22C295.087 125.17 294.886 125.119 294.681 125.069C294.468 125.131 294.298 125.065 294.171 124.887C293.842 124.826 293.513 124.768 293.189 124.706C292.984 124.771 292.818 124.717 292.686 124.543C292.346 124.485 292.002 124.427 291.662 124.369C291.345 124.458 291.059 124.42 290.838 124.149C290.382 124.087 289.93 124.021 289.473 123.96C289.16 124.076 288.863 124.076 288.615 123.813C286.272 123.612 283.93 123.639 281.587 123.813C281.219 124.149 280.802 124.095 280.377 123.975C280.036 123.994 279.696 124.014 279.356 124.033C279.132 124.366 278.884 124.416 278.614 124.083C278.37 124.11 278.127 124.134 277.879 124.161C277.636 124.439 277.338 124.443 277.017 124.327C276.565 124.396 276.112 124.462 275.66 124.532C275.536 124.706 275.374 124.764 275.169 124.71C274.84 124.779 274.508 124.849 274.179 124.918C274.063 125.096 273.905 125.154 273.7 125.092C273.487 125.143 273.275 125.189 273.062 125.239C272.938 125.421 272.772 125.491 272.556 125.436C271.983 125.614 271.407 125.792 270.835 125.974C270.715 126.156 270.553 126.233 270.333 126.186C270.128 126.244 269.927 126.302 269.722 126.36C269.61 126.542 269.451 126.619 269.239 126.577C262.473 128.927 256.09 132.009 250.786 136.922C246.139 141.229 242.168 146.073 239.35 151.838C235.546 159.612 231.981 167.48 228.985 175.599C228.579 176.7 228.185 177.806 227.736 178.889C225.51 184.316 223.573 189.853 221.647 195.393C220.41 198.949 219.096 202.475 217.735 205.99C216.355 209.554 215.268 213.235 214.074 216.869C213.556 218.45 213.084 220.047 212.589 221.639C212.755 222.703 212.62 223.723 212.237 224.728C211.882 225.66 211.754 226.627 211.777 227.632C211.831 229.731 211.831 231.83 211.843 233.926C211.851 235.406 211.797 236.891 211.862 238.372C211.924 239.721 212.025 241.082 212.732 242.3C213.726 244.004 214.696 245.725 215.694 247.43C219.9 254.621 224.129 261.792 228.312 268.995C231.97 275.289 235.643 281.575 238.905 288.085C239.219 288.708 239.667 289.009 240.332 289.098C240.939 289.183 241.546 289.299 242.145 289.435C244.728 290.026 247.299 290.668 249.889 291.221C251.029 291.464 252.151 291.851 253.341 291.843C253.624 291.159 253.875 290.459 254.192 289.794C257.173 283.554 260.165 277.322 263.146 271.086C264.371 268.523 265.581 265.956 266.776 263.381C267.762 261.255 268.686 259.098 269.687 256.979C270.186 255.924 270.565 254.798 271.353 253.898C271.516 253.039 271.941 252.289 272.358 251.543C274.469 247.747 276.596 243.962 278.714 240.169C278.428 239.918 278.158 240.057 277.868 240.181C277.133 240.494 276.406 240.854 275.641 241.078C273.963 241.569 272.312 241.449 270.882 240.367C268.345 238.441 266.892 235.921 266.699 232.673C266.44 228.285 267.251 224.071 268.728 219.989C270.286 215.682 272.358 211.63 275.188 207.992C276.708 206.04 278.335 204.207 280.311 202.7C281.656 201.667 283.156 200.96 284.799 200.604C285.886 200.368 286.991 200.38 288.086 200.732C290.39 201.474 291.758 203.125 292.628 205.274C292.93 206.017 293.169 206.778 293.436 207.532C294.909 207.064 296.371 206.577 297.851 206.136C304.652 204.103 311.448 202.066 318.256 200.059C323.997 198.366 329.746 196.696 335.503 195.052C338.232 194.275 340.954 193.471 343.749 192.938C343.718 192.4 343.687 191.863 343.656 191.326C343.274 190.962 343.123 190.564 343.482 190.096H343.494Z" fill="#6A6C65"/>
<path d="M253.345 291.847C252.158 291.855 251.033 291.468 249.892 291.224C247.302 290.672 244.731 290.03 242.149 289.438C241.549 289.299 240.942 289.183 240.335 289.102C239.67 289.009 239.222 288.711 238.909 288.089C235.646 281.579 231.973 275.292 228.316 268.998C224.133 261.796 219.903 254.624 215.697 247.434C214.7 245.729 213.729 244.008 212.736 242.303C212.024 241.086 211.924 239.725 211.866 238.375C211.8 236.899 211.854 235.414 211.846 233.929C211.835 231.83 211.831 229.731 211.781 227.636C211.757 226.63 211.885 225.664 212.241 224.732C212.627 223.727 212.759 222.706 212.593 221.643C210.053 221.434 207.559 221.705 205.069 222.215C202.78 222.683 200.48 223.097 198.168 223.441C196.63 223.669 195.593 224.535 194.778 225.749C193.742 227.291 192.934 228.942 192.419 230.744C191.681 233.35 190.707 235.893 190.181 238.557C189.783 240.567 189.686 242.593 190.239 244.6C190.989 247.329 191.7 250.074 192.516 252.784C193.865 257.269 195.276 261.734 196.691 266.196C196.92 266.915 197.066 267.622 197.039 268.372C197.53 268.639 197.604 269.13 197.751 269.605C200.53 278.493 203.318 287.382 206.109 296.266C207.532 300.797 208.951 305.332 210.412 309.847C210.888 311.312 211.413 312.77 212.059 314.166C213.737 317.788 216.447 320.564 219.609 322.895C223 325.393 226.665 327.43 230.632 328.888C231.088 329.058 231.586 329.162 231.934 329.549C232.437 329.549 232.901 329.676 233.369 329.858C234.807 330.407 236.249 330.956 237.703 331.466C247.178 334.795 256.793 337.687 266.4 340.609C268.225 341.166 270.081 341.665 271.836 342.399C273.823 343.227 275.71 344.29 277.643 345.249C277.933 345.392 278.142 345.6 278.265 345.898C278.83 345.86 279.355 345.952 279.877 346.2C283.616 347.994 287.579 349.107 291.611 349.988C292.871 350.263 294.077 350.769 295.384 350.824C295.999 350.824 296.614 350.789 297.224 350.947C297.576 351.036 297.971 351.098 298.322 351.04C300.023 350.758 301.736 350.549 303.406 350.093C305.273 349.583 306.982 348.72 308.652 347.785C311.134 346.393 313.512 344.843 315.607 342.898C319.017 339.736 321.488 335.931 323.204 331.625C324.867 327.457 325.876 323.158 325.752 318.635C325.721 317.459 325.764 316.284 325.69 315.113C325.555 312.948 325.118 310.872 324.155 308.873C322.547 305.54 320.154 302.915 317.127 300.913C314.038 298.864 310.582 297.758 306.835 297.712C304.593 297.685 302.424 298.102 300.279 298.717C298.485 299.231 296.803 300.004 295.175 300.89C294.182 301.427 293.238 301.605 292.171 301.16C291.607 300.924 290.992 300.797 290.393 300.658C284.93 299.374 279.471 298.091 274.005 296.822C267.637 295.346 261.266 293.896 254.903 292.407C254.377 292.284 253.797 292.23 253.345 291.855V291.847Z" fill="#FFB68A"/>
<path d="M253.345 291.848C253.793 292.223 254.373 292.277 254.903 292.4C261.267 293.889 267.638 295.339 274.005 296.816C279.472 298.084 284.931 299.367 290.393 300.651C290.993 300.79 291.607 300.921 292.172 301.153C293.239 301.594 294.182 301.42 295.176 300.883C296.803 299.997 298.485 299.224 300.279 298.71C302.425 298.095 304.593 297.678 306.836 297.705C310.586 297.751 314.038 298.861 317.127 300.906C320.154 302.912 322.547 305.533 324.156 308.866C325.118 310.865 325.555 312.937 325.691 315.106C325.764 316.277 325.721 317.453 325.752 318.628C325.876 323.147 324.867 327.446 323.205 331.618C321.488 335.925 319.018 339.725 315.608 342.891C313.512 344.836 311.131 346.386 308.653 347.778C306.987 348.713 305.278 349.576 303.407 350.086C301.733 350.542 300.024 350.755 298.323 351.033C297.971 351.091 297.577 351.033 297.225 350.94C296.614 350.782 295.999 350.817 295.384 350.817C297.07 351.656 298.941 351.775 300.743 352.154C303.047 352.638 305.386 352.746 307.744 352.622C309.36 352.537 310.938 352.293 312.476 351.826C315.739 350.836 318.898 349.637 321.592 347.434C322.891 346.371 324.071 345.191 325.172 343.95C329.796 338.739 333.504 332.917 336.427 326.607C337.204 324.933 337.776 323.159 338.356 321.4C340.958 313.474 343.115 305.433 344.549 297.214C345.268 293.085 345.848 288.929 346.42 284.777C346.672 282.944 346.745 281.088 346.9 279.244C347.105 276.786 347.371 274.331 347.491 271.868C347.615 269.339 347.592 266.807 347.63 264.275C346.965 264.151 346.304 264.012 345.635 263.908C343.447 263.567 341.259 263.223 339.067 262.906C337.057 262.616 335.042 262.346 333.028 262.091C330.709 261.793 328.381 261.534 326.066 261.225C323.808 260.923 321.562 260.552 319.304 260.258C316.922 259.949 314.533 259.705 312.152 259.411C309.279 259.06 306.407 258.723 303.546 258.298C302.386 258.124 301.222 258.024 300.062 257.877C297.561 257.56 295.06 257.219 292.562 256.875C290.185 256.551 287.811 256.206 285.433 255.878C282.387 255.456 279.337 255.043 276.29 254.618C274.643 254.389 273.004 254.138 271.357 253.898C270.564 254.799 270.189 255.924 269.691 256.98C268.689 259.098 267.765 261.256 266.78 263.382C265.585 265.957 264.375 268.528 263.149 271.087C260.169 277.327 257.172 283.559 254.196 289.795C253.879 290.46 253.627 291.159 253.345 291.844V291.848Z" fill="#8A89DE"/>
<path d="M271.361 253.898C273.004 254.137 274.647 254.389 276.294 254.617C279.34 255.042 282.391 255.452 285.437 255.877C287.815 256.206 290.188 256.55 292.566 256.874C295.064 257.218 297.565 257.559 300.066 257.876C301.226 258.023 302.39 258.123 303.55 258.297C306.41 258.722 309.283 259.059 312.155 259.411C314.537 259.704 316.926 259.948 319.308 260.257C321.565 260.551 323.812 260.922 326.069 261.224C328.389 261.533 330.712 261.792 333.032 262.09C335.046 262.349 337.061 262.616 339.071 262.905C341.263 263.222 343.451 263.563 345.639 263.907C346.308 264.011 346.969 264.15 347.634 264.274C347.943 263.775 347.901 263.219 347.94 262.662C348.349 256.871 348.195 251.06 348.473 245.269C348.659 241.379 348.867 237.49 348.639 233.62C348.473 230.798 348.535 227.952 348.083 225.138C347.851 223.684 347.835 222.196 347.696 220.723C347.398 217.595 346.946 214.487 346.586 211.371C346.184 207.884 345.67 204.416 345.079 200.956C344.739 198.953 344.541 196.927 344.244 194.921C344.143 194.252 343.927 193.603 343.764 192.945C340.973 193.475 338.247 194.279 335.518 195.06C329.761 196.703 324.013 198.373 318.271 200.067C311.463 202.073 304.663 204.11 297.866 206.144C296.39 206.585 294.924 207.072 293.451 207.54C293.316 209.991 293.594 212.434 293.146 214.901C292.551 218.191 291.542 221.322 290.212 224.361C289.52 225.938 288.723 227.477 287.904 228.992C286.438 231.706 284.656 234.208 282.526 236.438C281.3 237.726 279.994 238.932 278.722 240.177C276.603 243.966 274.477 247.754 272.366 251.551C271.948 252.297 271.527 253.047 271.361 253.905V253.898Z" fill="#FFB68A"/>
<path d="M278.266 345.895C278.142 345.597 277.933 345.389 277.643 345.246C275.71 344.287 273.82 343.224 271.837 342.396C270.081 341.666 268.226 341.163 266.401 340.606C256.798 337.684 247.179 334.792 237.703 331.463C236.249 330.953 234.807 330.408 233.369 329.855C232.901 329.677 232.438 329.542 231.935 329.545C231.313 330.674 230.218 331.308 229.221 332.016C228.023 332.866 226.932 333.891 225.552 334.471C223.314 335.414 221.002 335.982 218.551 335.924C217.008 335.886 215.462 335.894 213.915 335.913C211.743 335.94 209.62 335.573 207.517 335.109C206.496 334.885 205.538 334.401 204.521 334.162C202.162 333.609 200.191 332.302 198.428 330.794C196.135 328.834 194.113 326.596 192.555 323.936C191.02 321.315 189.648 318.655 188.72 315.755C188.04 313.637 187.572 311.476 187.089 309.311C187.073 309.419 187.011 309.473 186.903 309.461C186.857 312.044 186.799 314.623 186.764 317.205C186.737 319.235 186.795 321.261 186.992 323.282C187.255 323.507 187.359 323.743 187.058 324.021C187.147 324.516 187.232 325.011 187.321 325.505C187.572 325.764 187.672 326.051 187.475 326.391C187.893 327.918 188.307 329.445 188.724 330.972C189.018 331.243 189.161 331.556 188.979 331.954C189.853 335.198 191.326 338.167 193.039 341.043C195.795 345.671 199.526 349.409 203.539 352.916C204.034 353.349 204.687 353.646 204.726 354.458C204.741 354.783 205.089 354.953 205.352 355.096C206.268 355.595 207.204 356.067 208.132 356.546C209.218 356.067 209.84 356.685 210.382 357.493C210.587 357.594 210.795 357.69 211 357.791C211.955 357.876 212.941 357.841 213.861 358.069C215.466 358.464 217.031 359.024 218.62 359.492C219.324 359.701 220.016 359.917 220.75 360.053C222.254 360.327 223.739 360.663 225.262 360.872C227.744 361.212 230.187 361.8 232.708 361.877C232.952 361.885 233.207 361.893 233.439 361.962C234.981 362.422 236.621 362.148 238.159 362.604C240.436 362.492 242.694 362.751 244.952 362.979C245.4 363.026 245.806 363.076 246.065 363.497C246.746 363.416 247.43 363.339 248.111 363.257C248.342 362.987 248.636 362.948 248.961 363.045C249.792 362.871 250.62 362.693 251.451 362.519C251.567 362.33 251.733 362.268 251.946 362.345C257.598 360.876 262.948 358.703 267.87 355.525C271.902 352.924 275.436 349.784 278.277 345.891L278.266 345.895Z" fill="#884100"/>
<path d="M187.085 309.318C187.568 311.483 188.036 313.641 188.716 315.763C189.648 318.667 191.017 321.323 192.552 323.944C194.11 326.604 196.131 328.842 198.424 330.802C200.187 332.31 202.163 333.617 204.517 334.169C205.534 334.409 206.496 334.892 207.513 335.117C209.616 335.581 211.739 335.948 213.911 335.921C215.458 335.901 217 335.894 218.547 335.932C220.998 335.99 223.31 335.422 225.548 334.479C226.928 333.899 228.019 332.874 229.217 332.024C230.215 331.316 231.305 330.686 231.931 329.553C231.583 329.167 231.084 329.062 230.628 328.892C226.662 327.435 222.997 325.397 219.606 322.9C216.44 320.569 213.734 317.789 212.056 314.17C211.41 312.775 210.88 311.317 210.409 309.852C208.947 305.333 207.529 300.802 206.106 296.271C203.315 287.386 200.523 278.498 197.747 269.61C197.601 269.135 197.527 268.64 197.036 268.377C196.766 268.856 196.41 269.309 196.24 269.823C195.358 272.452 194.036 274.891 193.062 277.478C191.16 282.542 189.637 287.723 188.419 292.992C188.349 293.29 188.264 293.584 188.183 293.881C188.403 294.256 188.245 294.562 187.993 294.844C187.808 295.637 187.626 296.425 187.441 297.218C187.63 297.539 187.549 297.813 187.294 298.057C187.193 298.679 187.093 299.302 186.992 299.924C187.259 300.187 187.209 300.427 186.938 300.651C186.505 303.535 187.008 306.427 186.861 309.315C186.93 309.291 187.004 309.295 187.081 309.318H187.085Z" fill="#6B6D65"/>
<path d="M232.348 377.31C234.563 376.56 236.825 375.93 238.982 375.037C242.682 373.506 245.168 370.873 245.813 366.771C242.736 366.748 239.655 366.652 236.577 366.729C234.656 366.779 232.766 366.547 230.902 366.246C227.825 365.751 224.771 365.082 221.732 364.363C219.35 363.798 216.977 363.191 214.742 362.09C213.605 361.525 212.407 360.984 211.127 360.752C210.493 360.864 209.855 360.98 209.221 361.092C208.75 361.386 208.262 361.49 207.744 361.208C205.765 361.429 203.786 361.645 201.806 361.865C201.578 362.14 201.335 362.202 201.064 361.923C200.194 362.02 199.328 362.117 198.458 362.213C198.11 362.484 197.747 362.577 197.352 362.302C196.606 362.395 195.864 362.492 195.118 362.584C194.77 362.863 194.41 362.963 194.012 362.685C192.651 362.898 191.291 363.114 189.93 363.327C189.709 363.601 189.47 363.686 189.187 363.408C188.569 363.508 187.95 363.613 187.332 363.713C187.111 363.984 186.872 364.077 186.593 363.795C186.129 363.88 185.669 363.961 185.205 364.046C184.695 364.44 184.134 364.514 183.527 364.309C183.311 364.355 183.094 364.398 182.882 364.444C182.623 364.703 182.333 364.792 181.996 364.591C181.672 364.668 181.347 364.746 181.026 364.823C180.771 365.078 180.489 365.186 180.149 364.993C179.947 365.051 179.746 365.105 179.545 365.163C179.205 365.519 178.799 365.604 178.335 365.445C177.783 365.588 177.226 365.735 176.673 365.878C176.398 366.161 176.093 366.315 175.699 366.122C173.87 366.617 172.096 367.262 170.356 368.016C170.143 368.38 169.842 368.53 169.424 368.434C167.507 369.157 166.126 370.595 164.808 372.06C163.733 373.251 163.753 375.455 164.731 376.711C165.659 377.902 166.71 378.938 168.361 379.007C168.546 378.911 168.705 378.934 168.833 379.108L169.528 379.247C169.811 378.957 170.047 379.062 170.267 379.332C171.701 379.545 173.139 379.757 174.574 379.97C175.018 379.719 175.436 379.746 175.83 380.074C176.058 380.094 176.286 380.113 176.514 380.132C176.685 380.017 176.843 380.032 176.982 380.187C179.932 380.457 182.874 380.898 185.851 380.747C186.988 380.357 187.653 380.353 188.805 380.747C194.271 380.801 199.73 380.604 205.193 380.434C207.524 380.361 209.851 380.202 212.183 380.086C212.79 379.773 213.408 379.692 214.042 380.005C215.399 379.912 216.76 379.816 218.117 379.723C218.473 379.444 218.84 379.352 219.234 379.641C220.676 379.437 222.115 379.236 223.557 379.031C223.978 378.725 224.426 378.617 224.917 378.849C225.95 378.667 226.978 378.482 228.01 378.3C228.269 378.056 228.544 377.91 228.884 378.161C229.213 378.08 229.537 377.998 229.866 377.913C230.16 377.67 230.477 377.546 230.852 377.728C231.057 377.662 231.265 377.6 231.47 377.535C231.714 377.283 231.992 377.179 232.333 377.322L232.348 377.31Z" fill="#884100"/>
<path d="M211.127 360.748C212.411 360.984 213.605 361.526 214.742 362.086C216.973 363.192 219.347 363.795 221.732 364.359C224.767 365.078 227.821 365.747 230.902 366.242C232.766 366.54 234.656 366.776 236.578 366.725C239.655 366.648 242.736 366.745 245.814 366.768C246.204 365.906 246.185 365.017 246.007 364.112C245.988 364.062 245.949 364.004 245.957 363.961C245.98 363.868 246.03 363.783 246.069 363.694C246.1 363.625 246.092 363.555 246.053 363.493C245.798 363.072 245.388 363.022 244.94 362.975C242.682 362.751 240.424 362.488 238.147 362.6C236.608 362.144 234.969 362.419 233.427 361.959C233.195 361.889 232.94 361.881 232.696 361.874C230.179 361.796 227.732 361.209 225.25 360.868C223.727 360.66 222.242 360.323 220.738 360.049C220.004 359.917 219.312 359.697 218.608 359.488C217.019 359.02 215.453 358.456 213.849 358.065C212.929 357.841 211.943 357.872 210.988 357.787C211.038 357.895 211.073 358.011 211.096 358.131C211.417 358.297 211.742 358.468 212.16 358.684C212.055 359.484 211.444 360.045 211.123 360.737L211.127 360.748Z" fill="#5D3818"/>
<path d="M188.817 380.74C187.661 380.35 187 380.35 185.863 380.74C186.849 380.976 187.835 380.984 188.817 380.74Z" fill="#884100"/>
<path d="M214.054 379.989C213.42 379.676 212.802 379.757 212.195 380.07C212.829 380.372 213.451 380.345 214.054 379.989Z" fill="#884100"/>
<path d="M210.378 357.5C209.837 356.692 209.214 356.069 208.128 356.552C208.619 356.842 209.106 357.136 209.597 357.426C209.856 357.453 210.119 357.476 210.378 357.503V357.5Z" fill="#5D3818"/>
<path d="M207.749 361.205C208.267 361.488 208.754 361.383 209.226 361.089C208.708 360.807 208.217 360.861 207.749 361.205Z" fill="#884100"/>
<path d="M175.838 380.071C175.444 379.738 175.023 379.715 174.582 379.966C174.98 380.229 175.398 380.314 175.838 380.071Z" fill="#884100"/>
<path d="M219.25 379.63C218.856 379.34 218.485 379.429 218.133 379.711C218.527 379.997 218.898 379.935 219.25 379.63Z" fill="#884100"/>
<path d="M224.93 378.838C224.439 378.606 223.99 378.714 223.569 379.02C224.06 379.24 224.512 379.174 224.93 378.838Z" fill="#884100"/>
<path d="M183.536 364.304C184.139 364.505 184.703 364.436 185.213 364.041C184.614 363.875 184.057 363.96 183.536 364.304Z" fill="#884100"/>
<path d="M194.02 362.682C194.418 362.961 194.781 362.856 195.125 362.582C194.727 362.307 194.36 362.365 194.02 362.682Z" fill="#884100"/>
<path d="M197.361 362.298C197.755 362.572 198.119 362.479 198.467 362.209C198.072 361.93 197.705 361.988 197.361 362.298Z" fill="#884100"/>
<path d="M343.493 190.096C343.13 190.563 343.281 190.962 343.667 191.325C343.907 190.873 343.888 190.459 343.493 190.096Z" fill="#CAB7A8"/>
<path d="M178.343 365.437C178.807 365.595 179.209 365.51 179.553 365.155C179.085 364.981 178.695 365.116 178.343 365.437Z" fill="#884100"/>
<path d="M210.378 357.501C210.119 357.474 209.856 357.451 209.597 357.424C209.995 357.884 210.533 358.046 211.105 358.139C211.086 358.019 211.047 357.907 210.997 357.795C210.792 357.694 210.583 357.598 210.378 357.497V357.501Z" fill="#9F8F8A"/>
<path d="M278.614 124.088C278.884 124.417 279.132 124.37 279.356 124.038C279.093 123.829 278.846 123.868 278.614 124.088Z" fill="#9F8F8A"/>
<path d="M342.392 183.791C342.133 184.069 342.202 184.309 342.481 184.522C342.767 184.239 342.682 184.004 342.392 183.791Z" fill="#CAB7A8"/>
<path d="M342.705 185.539C342.516 185.852 342.577 186.131 342.833 186.378C343.177 186.042 342.968 185.786 342.705 185.539Z" fill="#CAB7A8"/>
<path d="M343.08 187.77C342.844 188.133 342.979 188.442 343.227 188.732C343.482 188.365 343.362 188.056 343.08 187.77Z" fill="#CAB7A8"/>
<path d="M187.993 294.84C188.24 294.554 188.403 294.252 188.182 293.877C187.896 294.155 187.761 294.461 187.993 294.84Z" fill="#CAB7A8"/>
<path d="M187.297 298.052C187.552 297.808 187.63 297.534 187.444 297.213C187.177 297.453 186.961 297.704 187.297 298.052Z" fill="#CAB7A8"/>
<path d="M186.941 300.647C187.212 300.423 187.262 300.183 186.996 299.92C186.698 300.14 186.651 300.384 186.941 300.647Z" fill="#CAB7A8"/>
<path d="M187.054 324.026C187.352 323.751 187.251 323.511 186.988 323.287C186.791 323.554 186.807 323.797 187.054 324.026Z" fill="#BC9175"/>
<path d="M187.471 326.395C187.664 326.059 187.568 325.773 187.316 325.51C187.115 325.85 187.208 326.136 187.471 326.395Z" fill="#BC9175"/>
<path d="M188.972 331.959C189.153 331.56 189.01 331.251 188.717 330.977C188.597 331.355 188.686 331.684 188.972 331.959Z" fill="#BC9175"/>
<path d="M201.068 361.919C201.338 362.197 201.582 362.135 201.81 361.861C201.547 361.66 201.3 361.683 201.068 361.919Z" fill="#884100"/>
<path d="M189.195 363.405C189.477 363.683 189.717 363.598 189.937 363.324C189.666 363.126 189.419 363.165 189.195 363.405Z" fill="#884100"/>
<path d="M186.601 363.791C186.88 364.073 187.119 363.984 187.34 363.71C187.069 363.517 186.822 363.548 186.601 363.791Z" fill="#884100"/>
<path d="M180.152 364.985C180.492 365.178 180.778 365.07 181.03 364.815C180.686 364.61 180.4 364.707 180.152 364.985Z" fill="#884100"/>
<path d="M175.706 366.114C176.101 366.308 176.406 366.153 176.681 365.871C176.306 365.747 175.977 365.817 175.706 366.114Z" fill="#884100"/>
<path d="M169.433 368.43C169.85 368.527 170.155 368.372 170.364 368.013C169.97 367.962 169.637 368.055 169.433 368.43Z" fill="#884100"/>
<path d="M232.348 377.309C232.008 377.162 231.73 377.267 231.486 377.522C231.849 377.766 232.116 377.607 232.348 377.309Z" fill="#884100"/>
<path d="M230.864 377.717C230.489 377.532 230.172 377.659 229.878 377.903C230.253 378.081 230.578 378.003 230.864 377.717Z" fill="#884100"/>
<path d="M228.896 378.144C228.556 377.893 228.281 378.04 228.022 378.284C228.347 378.454 228.637 378.392 228.896 378.144Z" fill="#884100"/>
<path d="M170.271 379.325C170.054 379.054 169.815 378.946 169.533 379.24C169.753 379.491 169.997 379.526 170.271 379.325Z" fill="#884100"/>
<path d="M182.005 364.588C182.341 364.789 182.627 364.7 182.89 364.441C182.554 364.232 182.268 364.332 182.005 364.588Z" fill="#884100"/>
<path d="M280.376 123.979C280.801 124.099 281.219 124.149 281.586 123.816C281.157 123.673 280.747 123.697 280.376 123.979Z" fill="#9F8F8A"/>
<path d="M248.954 363.044C248.629 362.947 248.335 362.986 248.103 363.257C248.439 363.392 248.726 363.334 248.954 363.044Z" fill="#CAB7A8"/>
<path d="M277.017 124.332C277.338 124.452 277.631 124.444 277.879 124.166C277.562 124.058 277.268 124.092 277.017 124.332Z" fill="#9F8F8A"/>
<path d="M290.838 124.154C291.058 124.425 291.344 124.464 291.661 124.375C291.429 124.135 291.155 124.065 290.838 124.154Z" fill="#9F8F8A"/>
<path d="M288.611 123.817C288.862 124.08 289.156 124.08 289.469 123.964C289.214 123.724 288.924 123.693 288.611 123.817Z" fill="#9F8F8A"/>
<path d="M298.624 126.361C298.736 126.543 298.895 126.62 299.107 126.581C298.995 126.404 298.837 126.322 298.624 126.361Z" fill="#9F8F8A"/>
<path d="M246.07 363.699C246.031 363.788 245.981 363.873 245.957 363.966C245.946 364.009 245.988 364.067 246.008 364.117C246.062 364.02 246.127 363.927 246.162 363.827C246.174 363.8 246.104 363.742 246.07 363.699Z" fill="#CAB7A8"/>
<path d="M295.288 125.219C295.412 125.405 295.582 125.486 295.806 125.428C295.679 125.246 295.505 125.177 295.288 125.219Z" fill="#9F8F8A"/>
<path d="M273.7 125.1C273.901 125.158 274.063 125.1 274.179 124.926C273.978 124.864 273.824 124.938 273.7 125.1Z" fill="#9F8F8A"/>
<path d="M294.171 124.888C294.298 125.066 294.465 125.132 294.681 125.07C294.554 124.896 294.383 124.834 294.171 124.888Z" fill="#9F8F8A"/>
<path d="M270.332 126.192C270.549 126.242 270.715 126.165 270.835 125.979C270.622 125.94 270.456 126.01 270.332 126.192Z" fill="#9F8F8A"/>
<path d="M292.686 124.548C292.813 124.718 292.984 124.772 293.188 124.71C293.057 124.544 292.891 124.486 292.686 124.548Z" fill="#9F8F8A"/>
<path d="M297.515 125.979C297.634 126.165 297.801 126.242 298.017 126.192C297.897 126.01 297.727 125.94 297.515 125.979Z" fill="#9F8F8A"/>
<path d="M187.084 309.318C187.007 309.291 186.933 309.291 186.864 309.314L186.833 309.403L186.898 309.472C187.011 309.48 187.072 309.43 187.084 309.322V309.318Z" fill="#CAB7A8"/>
<path d="M296.401 125.594C296.525 125.78 296.691 125.861 296.916 125.807C296.792 125.625 296.622 125.556 296.401 125.594Z" fill="#9F8F8A"/>
<path d="M251.934 362.344C251.721 362.266 251.559 362.324 251.439 362.518C251.656 362.607 251.818 362.545 251.934 362.344Z" fill="#CAB7A8"/>
<path d="M272.556 125.44C272.772 125.494 272.938 125.425 273.062 125.243C272.849 125.197 272.683 125.262 272.556 125.44Z" fill="#9F8F8A"/>
<path d="M275.168 124.714C275.373 124.768 275.535 124.71 275.659 124.536C275.454 124.478 275.292 124.544 275.168 124.714Z" fill="#9F8F8A"/>
<path d="M168.837 379.1C168.709 378.926 168.551 378.903 168.365 379C168.493 379.162 168.644 379.224 168.837 379.1Z" fill="#884100"/>
<path d="M176.994 380.183C176.855 380.028 176.696 380.013 176.526 380.129C176.666 380.295 176.82 380.345 176.994 380.183Z" fill="#884100"/>
<path d="M269.242 126.582C269.454 126.62 269.613 126.543 269.725 126.365C269.516 126.327 269.354 126.404 269.242 126.582Z" fill="#9F8F8A"/>
<path d="M278.722 240.17C279.994 238.925 281.301 237.715 282.526 236.432C284.656 234.197 286.439 231.7 287.904 228.986C288.723 227.466 289.52 225.932 290.212 224.354C291.542 221.315 292.547 218.184 293.146 214.894C293.595 212.427 293.316 209.984 293.452 207.533C293.185 206.779 292.945 206.014 292.644 205.275C291.774 203.126 290.405 201.471 288.101 200.733C287.007 200.381 285.901 200.369 284.815 200.605C283.172 200.961 281.676 201.668 280.326 202.7C278.351 204.212 276.723 206.045 275.204 207.993C272.374 211.631 270.302 215.683 268.744 219.989C267.267 224.076 266.451 228.286 266.714 232.674C266.907 235.918 268.357 238.442 270.897 240.367C272.328 241.45 273.974 241.57 275.656 241.079C276.422 240.855 277.145 240.499 277.883 240.182C278.173 240.058 278.444 239.919 278.73 240.17H278.722Z" fill="#E5A37B"/>
</svg>
