<svg width="500" height="500" viewBox="0 0 500 500" fill="none" xmlns="http://www.w3.org/2000/svg">
<path d="M184.951 206.796C185.032 206.38 185.113 205.963 185.195 205.551C185.42 205.286 185.54 205.004 185.329 204.672C185.406 204.249 185.48 203.826 185.558 203.402C185.787 203.176 185.847 202.926 185.674 202.637C185.741 202.326 185.808 202.016 185.875 201.709C186.129 201.515 186.196 201.296 185.957 201.042C186.697 196.248 187.925 191.567 189.273 186.913C189.841 184.959 190.698 183.117 191.478 181.251C193.09 177.385 195.139 173.769 197.778 170.499C198.946 169.052 200.046 167.549 201.168 166.071C203.61 162.857 206.52 160.148 209.822 157.83C213.516 155.237 217.259 152.736 221.287 150.683C222.638 149.995 223.975 149.258 225.45 148.842C225.644 148.877 225.789 148.806 225.891 148.64C226.074 148.588 226.261 148.535 226.445 148.482C226.646 148.528 226.794 148.457 226.904 148.288C227.087 148.235 227.267 148.185 227.45 148.132C227.655 148.182 227.807 148.108 227.92 147.938C228.099 147.889 228.279 147.836 228.463 147.787C228.667 147.84 228.823 147.766 228.936 147.596C229.123 147.55 229.306 147.504 229.493 147.459C229.687 147.515 229.842 147.455 229.959 147.293C230.258 147.236 230.558 147.183 230.855 147.127C231.042 147.187 231.193 147.138 231.313 146.979C231.624 146.926 231.938 146.873 232.248 146.82C232.537 146.901 232.798 146.866 233 146.619C233.416 146.563 233.829 146.503 234.245 146.446C234.531 146.552 234.802 146.552 235.028 146.312C237.166 146.129 239.304 146.153 241.442 146.312C241.777 146.619 242.158 146.57 242.546 146.46C242.856 146.478 243.167 146.496 243.477 146.513C243.682 146.817 243.907 146.862 244.154 146.559C244.377 146.584 244.599 146.605 244.825 146.63C245.047 146.884 245.319 146.887 245.611 146.781C246.024 146.845 246.437 146.905 246.85 146.968C246.962 147.127 247.111 147.18 247.298 147.131C247.598 147.194 247.901 147.258 248.201 147.321C248.307 147.483 248.451 147.536 248.638 147.48C248.832 147.526 249.026 147.568 249.22 147.614C249.333 147.78 249.485 147.843 249.682 147.794C250.205 147.956 250.73 148.118 251.252 148.284C251.362 148.45 251.51 148.52 251.711 148.478C251.898 148.531 252.081 148.584 252.268 148.637C252.371 148.803 252.515 148.873 252.709 148.834C258.883 150.979 264.707 153.791 269.547 158.275C273.788 162.205 277.411 166.625 279.983 171.885C283.454 178.979 286.707 186.158 289.441 193.567C289.811 194.572 290.171 195.581 290.58 196.569C292.612 201.522 294.379 206.574 296.136 211.629C297.265 214.875 298.465 218.092 299.706 221.299C300.966 224.551 301.957 227.91 303.047 231.226C303.52 232.669 303.95 234.126 304.402 235.579C304.25 236.549 304.374 237.481 304.723 238.398C305.047 239.248 305.164 240.13 305.143 241.047C305.093 242.963 305.093 244.878 305.083 246.79C305.076 248.142 305.125 249.496 305.065 250.847C305.009 252.079 304.917 253.32 304.271 254.432C303.365 255.987 302.479 257.557 301.569 259.113C297.731 265.675 293.871 272.219 290.054 278.791C286.717 284.534 283.366 290.27 280.388 296.211C280.103 296.779 279.693 297.054 279.087 297.135C278.533 297.213 277.979 297.319 277.432 297.442C275.075 297.982 272.729 298.568 270.366 299.072C269.325 299.294 268.302 299.647 267.216 299.64C266.958 299.016 266.729 298.377 266.439 297.77C263.719 292.077 260.989 286.39 258.269 280.7C257.151 278.361 256.047 276.018 254.956 273.669C254.057 271.728 253.214 269.76 252.3 267.827C251.845 266.864 251.499 265.837 250.78 265.015C250.631 264.232 250.243 263.547 249.862 262.867C247.936 259.402 245.996 255.949 244.063 252.488C244.324 252.259 244.571 252.386 244.835 252.498C245.506 252.784 246.169 253.112 246.867 253.317C248.398 253.765 249.905 253.656 251.21 252.668C253.524 250.911 254.851 248.611 255.027 245.647C255.263 241.643 254.523 237.798 253.175 234.073C251.753 230.143 249.862 226.446 247.28 223.126C245.894 221.345 244.408 219.672 242.606 218.297C241.378 217.355 240.009 216.709 238.51 216.384C237.519 216.169 236.51 216.18 235.511 216.501C233.409 217.178 232.16 218.685 231.366 220.646C231.091 221.323 230.872 222.018 230.629 222.706C229.285 222.279 227.951 221.835 226.6 221.433C220.395 219.577 214.193 217.718 207.98 215.887C202.742 214.342 197.496 212.818 192.243 211.319C189.752 210.609 187.269 209.876 184.718 209.389C184.746 208.899 184.775 208.408 184.803 207.918C185.152 207.586 185.29 207.223 184.962 206.796H184.951Z" fill="#6A6C65"/>
<path d="M267.212 299.643C268.295 299.65 269.322 299.298 270.362 299.075C272.726 298.571 275.072 297.985 277.429 297.446C277.975 297.319 278.529 297.213 279.083 297.139C279.69 297.054 280.099 296.782 280.385 296.214C283.362 290.274 286.714 284.537 290.051 278.794C293.868 272.222 297.727 265.678 301.566 259.116C302.476 257.56 303.361 255.99 304.268 254.435C304.917 253.323 305.009 252.082 305.062 250.851C305.122 249.503 305.072 248.148 305.079 246.794C305.09 244.878 305.093 242.962 305.139 241.05C305.16 240.133 305.044 239.251 304.719 238.401C304.367 237.484 304.247 236.552 304.398 235.582C306.716 235.392 308.992 235.639 311.264 236.104C313.352 236.531 315.451 236.909 317.561 237.223C318.965 237.431 319.91 238.221 320.654 239.329C321.6 240.736 322.337 242.243 322.806 243.887C323.48 246.264 324.369 248.586 324.849 251.016C325.212 252.851 325.301 254.699 324.796 256.53C324.112 259.021 323.463 261.526 322.718 263.999C321.487 268.091 320.199 272.165 318.908 276.236C318.7 276.893 318.566 277.538 318.591 278.223C318.143 278.466 318.076 278.914 317.942 279.348C315.405 287.458 312.862 295.569 310.315 303.676C309.016 307.81 307.722 311.948 306.388 316.069C305.954 317.406 305.474 318.736 304.885 320.009C303.354 323.315 300.881 325.848 297.996 327.975C294.902 330.254 291.557 332.113 287.938 333.443C287.522 333.598 287.066 333.694 286.749 334.046C286.29 334.046 285.867 334.163 285.44 334.328C284.128 334.829 282.812 335.33 281.485 335.796C272.839 338.833 264.065 341.472 255.299 344.139C253.634 344.647 251.94 345.102 250.339 345.773C248.525 346.528 246.804 347.498 245.04 348.373C244.775 348.503 244.585 348.694 244.472 348.965C243.957 348.93 243.477 349.015 243.001 349.24C239.59 350.877 235.974 351.893 232.294 352.698C231.144 352.948 230.043 353.41 228.851 353.46C228.29 353.46 227.729 353.428 227.172 353.573C226.851 353.654 226.491 353.71 226.17 353.657C224.618 353.4 223.055 353.209 221.531 352.793C219.827 352.327 218.268 351.541 216.744 350.687C214.479 349.417 212.309 348.002 210.397 346.228C207.286 343.342 205.031 339.871 203.465 335.941C201.948 332.138 201.027 328.215 201.14 324.087C201.168 323.015 201.13 321.942 201.197 320.874C201.32 318.898 201.719 317.004 202.597 315.18C204.065 312.139 206.248 309.743 209.011 307.916C211.829 306.046 214.983 305.037 218.402 304.995C220.448 304.97 222.427 305.351 224.385 305.912C226.022 306.381 227.556 307.087 229.041 307.895C229.948 308.385 230.809 308.547 231.783 308.142C232.298 307.927 232.859 307.81 233.405 307.683C238.39 306.512 243.371 305.341 248.36 304.184C254.17 302.836 259.984 301.513 265.79 300.155C266.27 300.042 266.799 299.993 267.212 299.65V299.643Z" fill="#FFB68A"/>
<path d="M267.212 299.644C266.803 299.987 266.273 300.036 265.79 300.149C259.983 301.507 254.17 302.83 248.359 304.178C243.371 305.335 238.39 306.506 233.405 307.677C232.858 307.804 232.297 307.924 231.782 308.136C230.809 308.538 229.948 308.379 229.041 307.889C227.556 307.081 226.021 306.375 224.385 305.906C222.427 305.345 220.448 304.964 218.401 304.989C214.98 305.031 211.829 306.044 209.01 307.91C206.248 309.741 204.065 312.133 202.597 315.174C201.719 316.998 201.32 318.888 201.196 320.868C201.129 321.936 201.168 323.009 201.14 324.081C201.027 328.205 201.948 332.128 203.465 335.935C205.031 339.865 207.285 343.332 210.397 346.222C212.309 347.996 214.482 349.411 216.743 350.681C218.264 351.535 219.823 352.321 221.531 352.787C223.058 353.203 224.617 353.397 226.17 353.651C226.491 353.704 226.851 353.651 227.172 353.567C227.729 353.422 228.29 353.454 228.851 353.454C227.313 354.219 225.605 354.329 223.961 354.674C221.859 355.115 219.724 355.214 217.572 355.101C216.098 355.024 214.658 354.801 213.254 354.374C210.277 353.471 207.395 352.378 204.936 350.367C203.751 349.397 202.675 348.321 201.669 347.188C197.45 342.433 194.067 337.12 191.4 331.363C190.691 329.835 190.169 328.216 189.639 326.611C187.265 319.379 185.297 312.041 183.988 304.541C183.332 300.773 182.803 296.981 182.28 293.192C182.051 291.52 181.984 289.827 181.843 288.144C181.656 285.9 181.413 283.66 181.303 281.413C181.19 279.106 181.212 276.795 181.176 274.484C181.783 274.371 182.386 274.244 182.997 274.149C184.993 273.839 186.99 273.525 188.99 273.235C190.825 272.971 192.663 272.724 194.501 272.491C196.617 272.219 198.741 271.983 200.854 271.701C202.914 271.426 204.964 271.087 207.024 270.819C209.197 270.537 211.378 270.314 213.551 270.046C216.172 269.725 218.793 269.418 221.404 269.03C222.462 268.871 223.524 268.78 224.582 268.646C226.865 268.356 229.147 268.046 231.426 267.732C233.596 267.436 235.762 267.122 237.931 266.822C240.711 266.437 243.495 266.06 246.274 265.672C247.777 265.464 249.273 265.234 250.776 265.016C251.499 265.838 251.841 266.864 252.296 267.827C253.21 269.761 254.053 271.729 254.953 273.669C256.043 276.019 257.147 278.365 258.265 280.7C260.985 286.394 263.719 292.081 266.436 297.771C266.725 298.378 266.954 299.016 267.212 299.641V299.644Z" fill="#8A89DE"/>
<path d="M250.773 265.016C249.273 265.234 247.774 265.464 246.271 265.672C243.491 266.06 240.708 266.434 237.928 266.822C235.758 267.122 233.592 267.436 231.423 267.732C229.144 268.046 226.861 268.356 224.579 268.646C223.52 268.78 222.459 268.871 221.4 269.03C218.79 269.418 216.169 269.725 213.547 270.046C211.374 270.314 209.194 270.537 207.021 270.819C204.961 271.087 202.911 271.426 200.851 271.701C198.734 271.983 196.614 272.219 194.497 272.491C192.659 272.727 190.821 272.971 188.987 273.235C186.987 273.525 184.99 273.835 182.993 274.149C182.383 274.244 181.78 274.371 181.173 274.484C180.891 274.029 180.93 273.521 180.894 273.013C180.52 267.728 180.661 262.426 180.407 257.142C180.238 253.593 180.048 250.044 180.256 246.512C180.407 243.937 180.351 241.341 180.764 238.772C180.975 237.446 180.989 236.088 181.116 234.744C181.388 231.89 181.801 229.053 182.129 226.21C182.496 223.028 182.965 219.863 183.505 216.706C183.815 214.879 183.995 213.03 184.267 211.199C184.359 210.589 184.556 209.996 184.704 209.396C187.251 209.88 189.738 210.614 192.229 211.326C197.482 212.826 202.728 214.349 207.966 215.895C214.179 217.726 220.384 219.585 226.586 221.44C227.934 221.843 229.271 222.287 230.615 222.714C230.738 224.95 230.484 227.18 230.894 229.431C231.437 232.433 232.358 235.29 233.571 238.063C234.203 239.503 234.929 240.907 235.677 242.29C237.014 244.766 238.641 247.049 240.584 249.084C241.703 250.259 242.895 251.359 244.056 252.495C245.989 255.953 247.929 259.41 249.855 262.874C250.236 263.555 250.621 264.239 250.773 265.023V265.016Z" fill="#FFB68A"/>
<path d="M244.472 348.962C244.585 348.69 244.775 348.499 245.04 348.369C246.804 347.494 248.529 346.524 250.339 345.769C251.94 345.102 253.634 344.644 255.299 344.136C264.062 341.469 272.839 338.83 281.486 335.792C282.812 335.327 284.128 334.829 285.44 334.325C285.867 334.163 286.29 334.039 286.749 334.043C287.317 335.073 288.315 335.651 289.225 336.297C290.319 337.073 291.314 338.008 292.573 338.537C294.616 339.398 296.726 339.916 298.962 339.863C300.37 339.828 301.781 339.835 303.192 339.853C305.175 339.878 307.111 339.542 309.03 339.119C309.962 338.914 310.837 338.473 311.764 338.255C313.916 337.75 315.716 336.558 317.324 335.182C319.416 333.393 321.261 331.351 322.683 328.924C324.084 326.532 325.336 324.105 326.183 321.459C326.803 319.526 327.23 317.554 327.671 315.578C327.685 315.677 327.742 315.726 327.841 315.716C327.883 318.072 327.936 320.425 327.968 322.782C327.992 324.634 327.939 326.483 327.759 328.328C327.52 328.532 327.424 328.747 327.699 329.001C327.618 329.453 327.541 329.904 327.46 330.356C327.23 330.592 327.139 330.853 327.319 331.164C326.938 332.557 326.56 333.951 326.179 335.344C325.911 335.591 325.78 335.877 325.946 336.24C325.149 339.2 323.805 341.91 322.242 344.534C319.727 348.757 316.322 352.168 312.661 355.368C312.209 355.763 311.613 356.035 311.578 356.776C311.563 357.072 311.246 357.227 311.006 357.358C310.17 357.813 309.316 358.243 308.47 358.681C307.478 358.243 306.91 358.808 306.416 359.545C306.229 359.637 306.039 359.725 305.852 359.817C304.981 359.894 304.081 359.862 303.241 360.071C301.777 360.43 300.349 360.942 298.899 361.369C298.257 361.559 297.625 361.757 296.955 361.88C295.583 362.131 294.228 362.438 292.838 362.628C290.573 362.939 288.344 363.475 286.043 363.545C285.821 363.552 285.588 363.56 285.377 363.623C283.969 364.043 282.473 363.792 281.069 364.209C278.991 364.106 276.931 364.343 274.871 364.551C274.462 364.593 274.091 364.639 273.855 365.024C273.234 364.949 272.61 364.879 271.989 364.805C271.777 364.558 271.509 364.523 271.213 364.611C270.454 364.452 269.699 364.29 268.941 364.131C268.835 363.958 268.683 363.902 268.489 363.972C263.332 362.632 258.449 360.649 253.958 357.749C250.279 355.375 247.054 352.511 244.461 348.958L244.472 348.962Z" fill="#884100"/>
<path d="M327.675 315.586C327.234 317.561 326.807 319.53 326.186 321.467C325.336 324.116 324.087 326.54 322.686 328.931C321.265 331.359 319.42 333.401 317.328 335.19C315.719 336.566 313.916 337.758 311.768 338.262C310.84 338.481 309.962 338.922 309.034 339.127C307.115 339.55 305.178 339.885 303.195 339.861C301.784 339.843 300.377 339.836 298.966 339.871C296.729 339.924 294.619 339.405 292.577 338.545C291.317 338.015 290.323 337.081 289.229 336.304C288.319 335.659 287.324 335.084 286.752 334.05C287.07 333.697 287.525 333.602 287.941 333.447C291.561 332.117 294.905 330.258 297.999 327.979C300.888 325.852 303.358 323.315 304.889 320.013C305.478 318.74 305.961 317.41 306.392 316.073C307.725 311.949 309.02 307.814 310.318 303.68C312.865 295.573 315.412 287.462 317.945 279.352C318.079 278.918 318.146 278.466 318.594 278.227C318.841 278.664 319.166 279.077 319.321 279.546C320.125 281.945 321.332 284.171 322.221 286.531C323.956 291.152 325.346 295.88 326.458 300.688C326.521 300.96 326.599 301.228 326.673 301.499C326.472 301.842 326.616 302.12 326.846 302.378C327.015 303.101 327.181 303.821 327.35 304.544C327.177 304.837 327.251 305.087 327.484 305.309C327.576 305.877 327.668 306.445 327.759 307.013C327.516 307.253 327.562 307.472 327.809 307.677C328.204 310.308 327.745 312.947 327.879 315.582C327.816 315.561 327.749 315.565 327.678 315.586H327.675Z" fill="#6B6D65"/>
<path d="M286.371 377.629C284.35 376.945 282.286 376.37 280.318 375.555C276.941 374.158 274.673 371.755 274.084 368.012C276.892 367.991 279.704 367.903 282.512 367.973C284.265 368.019 285.99 367.808 287.691 367.532C290.499 367.081 293.286 366.471 296.059 365.814C298.232 365.299 300.398 364.746 302.437 363.74C303.474 363.225 304.568 362.731 305.735 362.52C306.314 362.622 306.896 362.728 307.474 362.83C307.905 363.098 308.349 363.193 308.822 362.936C310.628 363.137 312.435 363.334 314.241 363.536C314.449 363.786 314.671 363.842 314.918 363.588C315.712 363.677 316.502 363.765 317.296 363.853C317.613 364.1 317.945 364.185 318.305 363.934C318.986 364.019 319.663 364.107 320.344 364.192C320.661 364.446 320.989 364.537 321.353 364.283C322.595 364.477 323.836 364.675 325.078 364.869C325.279 365.12 325.498 365.197 325.755 364.943C326.32 365.035 326.884 365.13 327.449 365.222C327.65 365.469 327.869 365.553 328.123 365.296C328.546 365.374 328.966 365.448 329.389 365.525C329.855 365.885 330.366 365.952 330.92 365.765C331.118 365.807 331.315 365.846 331.509 365.889C331.746 366.125 332.01 366.206 332.317 366.023C332.613 366.093 332.91 366.164 333.203 366.234C333.435 366.467 333.693 366.566 334.003 366.39C334.187 366.442 334.37 366.492 334.554 366.545C334.864 366.869 335.235 366.947 335.658 366.802C336.162 366.933 336.67 367.067 337.175 367.197C337.425 367.455 337.704 367.596 338.064 367.42C339.733 367.871 341.352 368.46 342.939 369.148C343.133 369.48 343.408 369.617 343.789 369.529C345.539 370.189 346.799 371.501 348.002 372.838C348.982 373.925 348.965 375.936 348.072 377.082C347.226 378.169 346.266 379.114 344.76 379.178C344.59 379.09 344.446 379.111 344.329 379.269L343.694 379.396C343.437 379.132 343.222 379.227 343.02 379.474C341.712 379.668 340.399 379.862 339.09 380.056C338.685 379.827 338.304 379.852 337.944 380.151C337.736 380.169 337.528 380.187 337.32 380.204C337.164 380.098 337.02 380.113 336.893 380.254C334.201 380.501 331.516 380.903 328.8 380.765C327.763 380.409 327.156 380.405 326.105 380.765C321.116 380.815 316.135 380.635 311.15 380.479C309.023 380.412 306.899 380.268 304.772 380.162C304.218 379.876 303.654 379.802 303.075 380.088C301.837 380.003 300.595 379.915 299.357 379.83C299.032 379.576 298.697 379.492 298.338 379.756C297.022 379.569 295.709 379.386 294.393 379.199C294.009 378.92 293.6 378.821 293.152 379.033C292.21 378.867 291.271 378.698 290.329 378.532C290.093 378.31 289.843 378.176 289.532 378.405C289.232 378.331 288.936 378.257 288.636 378.179C288.368 377.957 288.079 377.844 287.737 378.01C287.55 377.95 287.359 377.894 287.172 377.834C286.95 377.604 286.696 377.509 286.385 377.64L286.371 377.629Z" fill="#884100"/>
<path d="M305.736 362.517C304.564 362.732 303.474 363.226 302.437 363.737C300.401 364.746 298.235 365.297 296.059 365.812C293.289 366.468 290.503 367.078 287.691 367.53C285.99 367.801 284.265 368.017 282.512 367.971C279.704 367.9 276.892 367.988 274.084 368.01C273.728 367.223 273.746 366.411 273.908 365.586C273.925 365.54 273.961 365.487 273.954 365.448C273.933 365.364 273.887 365.286 273.851 365.205C273.823 365.141 273.83 365.078 273.865 365.021C274.098 364.637 274.472 364.591 274.881 364.549C276.942 364.344 279.002 364.104 281.08 364.207C282.484 363.79 283.98 364.041 285.387 363.621C285.599 363.557 285.832 363.55 286.054 363.543C288.351 363.473 290.584 362.937 292.848 362.626C294.238 362.436 295.593 362.129 296.965 361.878C297.636 361.758 298.267 361.557 298.909 361.367C300.359 360.94 301.788 360.425 303.252 360.068C304.092 359.864 304.991 359.892 305.862 359.814C305.817 359.913 305.785 360.019 305.764 360.128C305.471 360.28 305.175 360.435 304.794 360.633C304.889 361.363 305.446 361.875 305.739 362.506L305.736 362.517Z" fill="#5D3818"/>
<path d="M326.094 380.757C327.149 380.401 327.752 380.401 328.789 380.757C327.89 380.973 326.99 380.98 326.094 380.757Z" fill="#884100"/>
<path d="M303.065 380.073C303.643 379.788 304.208 379.862 304.762 380.147C304.183 380.423 303.615 380.398 303.065 380.073Z" fill="#884100"/>
<path d="M306.42 359.552C306.914 358.815 307.482 358.247 308.473 358.688C308.025 358.953 307.581 359.221 307.133 359.485C306.896 359.51 306.656 359.531 306.42 359.556V359.552Z" fill="#5D3818"/>
<path d="M308.819 362.931C308.346 363.189 307.902 363.094 307.471 362.825C307.944 362.568 308.392 362.617 308.819 362.931Z" fill="#884100"/>
<path d="M337.937 380.148C338.297 379.845 338.681 379.824 339.084 380.053C338.72 380.293 338.339 380.37 337.937 380.148Z" fill="#884100"/>
<path d="M298.324 379.745C298.684 379.48 299.022 379.562 299.343 379.819C298.983 380.08 298.645 380.024 298.324 379.745Z" fill="#884100"/>
<path d="M293.141 379.022C293.589 378.811 293.998 378.909 294.383 379.188C293.935 379.389 293.522 379.329 293.141 379.022Z" fill="#884100"/>
<path d="M330.913 365.762C330.363 365.946 329.848 365.882 329.382 365.522C329.929 365.371 330.437 365.448 330.913 365.762Z" fill="#884100"/>
<path d="M321.346 364.279C320.983 364.533 320.651 364.438 320.337 364.188C320.7 363.937 321.035 363.99 321.346 364.279Z" fill="#884100"/>
<path d="M318.298 363.93C317.938 364.181 317.607 364.096 317.289 363.849C317.649 363.595 317.984 363.648 318.298 363.93Z" fill="#884100"/>
<path d="M184.951 206.797C185.283 207.224 185.145 207.587 184.793 207.919C184.574 207.506 184.591 207.128 184.951 206.797Z" fill="#CAB7A8"/>
<path d="M335.651 366.796C335.228 366.941 334.861 366.863 334.547 366.538C334.974 366.38 335.33 366.503 335.651 366.796Z" fill="#884100"/>
<path d="M306.42 359.553C306.656 359.528 306.896 359.507 307.133 359.482C306.769 359.902 306.279 360.05 305.757 360.135C305.774 360.026 305.81 359.923 305.856 359.821C306.043 359.729 306.233 359.641 306.42 359.549V359.553Z" fill="#9F8F8A"/>
<path d="M244.154 146.562C243.907 146.862 243.682 146.819 243.477 146.516C243.717 146.326 243.943 146.361 244.154 146.562Z" fill="#9F8F8A"/>
<path d="M185.956 201.043C186.193 201.297 186.129 201.516 185.875 201.71C185.614 201.452 185.692 201.237 185.956 201.043Z" fill="#CAB7A8"/>
<path d="M185.671 202.637C185.844 202.922 185.787 203.176 185.555 203.402C185.241 203.095 185.431 202.862 185.671 202.637Z" fill="#CAB7A8"/>
<path d="M185.329 204.672C185.544 205.003 185.421 205.286 185.195 205.55C184.962 205.215 185.071 204.933 185.329 204.672Z" fill="#CAB7A8"/>
<path d="M326.846 302.375C326.62 302.113 326.472 301.838 326.673 301.496C326.934 301.75 327.057 302.029 326.846 302.375Z" fill="#CAB7A8"/>
<path d="M327.481 305.307C327.248 305.084 327.177 304.834 327.347 304.541C327.59 304.76 327.788 304.989 327.481 305.307Z" fill="#CAB7A8"/>
<path d="M327.806 307.673C327.559 307.468 327.513 307.25 327.756 307.01C328.028 307.211 328.07 307.433 327.806 307.673Z" fill="#CAB7A8"/>
<path d="M327.703 329.006C327.431 328.755 327.523 328.537 327.763 328.332C327.943 328.575 327.929 328.798 327.703 329.006Z" fill="#BC9175"/>
<path d="M327.322 331.167C327.146 330.86 327.234 330.599 327.463 330.359C327.646 330.67 327.562 330.931 327.322 331.167Z" fill="#BC9175"/>
<path d="M325.953 336.244C325.788 335.88 325.918 335.598 326.186 335.348C326.296 335.693 326.214 335.993 325.953 336.244Z" fill="#BC9175"/>
<path d="M314.915 363.585C314.668 363.839 314.445 363.783 314.237 363.533C314.477 363.349 314.703 363.37 314.915 363.585Z" fill="#884100"/>
<path d="M325.749 364.939C325.491 365.193 325.272 365.116 325.071 364.865C325.318 364.685 325.544 364.721 325.749 364.939Z" fill="#884100"/>
<path d="M328.116 365.292C327.862 365.55 327.643 365.469 327.442 365.218C327.689 365.042 327.915 365.07 328.116 365.292Z" fill="#884100"/>
<path d="M334 366.382C333.69 366.559 333.429 366.46 333.199 366.227C333.513 366.04 333.774 366.128 334 366.382Z" fill="#884100"/>
<path d="M338.057 367.412C337.697 367.589 337.418 367.447 337.168 367.19C337.51 367.077 337.81 367.141 338.057 367.412Z" fill="#884100"/>
<path d="M343.783 369.525C343.402 369.613 343.123 369.472 342.933 369.144C343.292 369.098 343.596 369.183 343.783 369.525Z" fill="#884100"/>
<path d="M286.372 377.63C286.682 377.496 286.936 377.591 287.158 377.824C286.827 378.046 286.583 377.901 286.372 377.63Z" fill="#884100"/>
<path d="M287.726 377.999C288.068 377.829 288.358 377.946 288.626 378.168C288.283 378.33 287.987 378.26 287.726 377.999Z" fill="#884100"/>
<path d="M289.522 378.391C289.832 378.161 290.083 378.295 290.319 378.518C290.023 378.673 289.758 378.617 289.522 378.391Z" fill="#884100"/>
<path d="M343.017 379.466C343.215 379.219 343.433 379.12 343.691 379.388C343.49 379.618 343.268 379.649 343.017 379.466Z" fill="#884100"/>
<path d="M332.31 366.02C332.003 366.203 331.742 366.122 331.502 365.886C331.809 365.695 332.07 365.787 332.31 366.02Z" fill="#884100"/>
<path d="M242.546 146.463C242.158 146.572 241.777 146.618 241.441 146.315C241.833 146.184 242.207 146.205 242.546 146.463Z" fill="#9F8F8A"/>
<path d="M271.22 364.612C271.516 364.524 271.784 364.559 271.996 364.806C271.689 364.93 271.428 364.877 271.22 364.612Z" fill="#CAB7A8"/>
<path d="M245.611 146.785C245.319 146.894 245.05 146.887 244.825 146.633C245.114 146.535 245.382 146.566 245.611 146.785Z" fill="#9F8F8A"/>
<path d="M232.999 146.622C232.798 146.869 232.537 146.904 232.248 146.823C232.46 146.604 232.71 146.541 232.999 146.622Z" fill="#9F8F8A"/>
<path d="M235.032 146.315C234.802 146.555 234.534 146.555 234.249 146.449C234.481 146.23 234.746 146.202 235.032 146.315Z" fill="#9F8F8A"/>
<path d="M225.895 148.638C225.792 148.803 225.648 148.874 225.454 148.839C225.556 148.676 225.701 148.602 225.895 148.638Z" fill="#9F8F8A"/>
<path d="M273.851 365.207C273.887 365.288 273.933 365.366 273.954 365.45C273.964 365.489 273.926 365.542 273.908 365.588C273.859 365.5 273.799 365.415 273.767 365.323C273.756 365.299 273.82 365.246 273.851 365.207Z" fill="#CAB7A8"/>
<path d="M228.939 147.597C228.826 147.766 228.671 147.84 228.466 147.787C228.583 147.622 228.741 147.558 228.939 147.597Z" fill="#9F8F8A"/>
<path d="M248.638 147.487C248.455 147.54 248.307 147.487 248.201 147.328C248.384 147.272 248.525 147.339 248.638 147.487Z" fill="#9F8F8A"/>
<path d="M229.959 147.293C229.842 147.455 229.691 147.515 229.493 147.459C229.61 147.3 229.765 147.243 229.959 147.293Z" fill="#9F8F8A"/>
<path d="M251.711 148.481C251.513 148.527 251.362 148.456 251.252 148.287C251.446 148.251 251.598 148.315 251.711 148.481Z" fill="#9F8F8A"/>
<path d="M231.314 146.983C231.197 147.138 231.042 147.188 230.855 147.131C230.975 146.979 231.127 146.927 231.314 146.983Z" fill="#9F8F8A"/>
<path d="M226.907 148.287C226.798 148.456 226.646 148.527 226.449 148.481C226.558 148.315 226.713 148.251 226.907 148.287Z" fill="#9F8F8A"/>
<path d="M327.675 315.585C327.745 315.561 327.812 315.561 327.876 315.582L327.904 315.663L327.844 315.726C327.742 315.734 327.685 315.688 327.675 315.589V315.585Z" fill="#CAB7A8"/>
<path d="M227.923 147.939C227.81 148.108 227.659 148.183 227.454 148.133C227.567 147.967 227.722 147.904 227.923 147.939Z" fill="#9F8F8A"/>
<path d="M268.5 363.974C268.694 363.903 268.842 363.956 268.951 364.132C268.754 364.214 268.605 364.157 268.5 363.974Z" fill="#CAB7A8"/>
<path d="M249.682 147.797C249.485 147.846 249.333 147.782 249.22 147.617C249.414 147.574 249.566 147.634 249.682 147.797Z" fill="#9F8F8A"/>
<path d="M247.298 147.134C247.111 147.184 246.962 147.131 246.85 146.972C247.037 146.919 247.185 146.979 247.298 147.134Z" fill="#9F8F8A"/>
<path d="M344.326 379.262C344.443 379.104 344.587 379.083 344.757 379.171C344.64 379.319 344.503 379.375 344.326 379.262Z" fill="#884100"/>
<path d="M336.882 380.25C337.009 380.109 337.154 380.094 337.309 380.2C337.182 380.352 337.041 380.398 336.882 380.25Z" fill="#884100"/>
<path d="M252.706 148.837C252.512 148.873 252.367 148.802 252.265 148.64C252.455 148.604 252.603 148.675 252.706 148.837Z" fill="#9F8F8A"/>
<path d="M244.056 252.487C242.895 251.351 241.703 250.247 240.584 249.076C238.64 247.037 237.014 244.758 235.677 242.281C234.929 240.895 234.203 239.495 233.571 238.055C232.357 235.282 231.44 232.425 230.893 229.423C230.484 227.172 230.738 224.942 230.615 222.706C230.858 222.018 231.077 221.319 231.352 220.646C232.146 218.684 233.395 217.174 235.497 216.5C236.496 216.179 237.504 216.169 238.496 216.384C239.995 216.709 241.36 217.354 242.592 218.296C244.394 219.675 245.879 221.348 247.266 223.126C249.848 226.445 251.739 230.142 253.161 234.072C254.508 237.801 255.253 241.643 255.013 245.647C254.837 248.607 253.514 250.91 251.196 252.667C249.891 253.655 248.388 253.764 246.853 253.316C246.155 253.112 245.495 252.787 244.821 252.498C244.557 252.385 244.31 252.258 244.049 252.487H244.056Z" fill="#E5A37B"/>
</svg>
