<svg width="500" height="500" viewBox="0 0 500 500" fill="none" xmlns="http://www.w3.org/2000/svg">
<path d="M177.16 187.552C177.25 187.095 177.339 186.638 177.428 186.185C177.676 185.894 177.807 185.584 177.575 185.22C177.66 184.756 177.741 184.291 177.827 183.826C178.078 183.578 178.144 183.303 177.955 182.985C178.028 182.644 178.102 182.304 178.175 181.967C178.454 181.754 178.528 181.513 178.264 181.235C179.078 175.97 180.426 170.83 181.905 165.721C182.529 163.575 183.47 161.553 184.326 159.504C186.097 155.259 188.347 151.289 191.244 147.698C192.527 146.11 193.735 144.46 194.967 142.837C197.647 139.308 200.843 136.333 204.469 133.788C208.524 130.941 212.634 128.195 217.057 125.94C218.541 125.185 220.009 124.375 221.628 123.918C221.841 123.957 222 123.88 222.112 123.698C222.314 123.639 222.519 123.581 222.721 123.523C222.941 123.574 223.104 123.496 223.224 123.31C223.425 123.252 223.623 123.198 223.824 123.14C224.049 123.194 224.216 123.113 224.34 122.927C224.537 122.873 224.735 122.814 224.936 122.76C225.161 122.818 225.331 122.737 225.455 122.551C225.661 122.501 225.862 122.45 226.067 122.4C226.28 122.462 226.451 122.396 226.579 122.218C226.908 122.156 227.237 122.098 227.562 122.036C227.768 122.102 227.934 122.047 228.066 121.873C228.407 121.815 228.752 121.757 229.092 121.699C229.41 121.788 229.697 121.749 229.917 121.478C230.375 121.416 230.828 121.35 231.285 121.288C231.599 121.404 231.897 121.404 232.145 121.141C234.492 120.94 236.839 120.967 239.187 121.141C239.555 121.478 239.973 121.424 240.399 121.304C240.74 121.323 241.081 121.343 241.422 121.362C241.646 121.695 241.894 121.745 242.165 121.412C242.41 121.439 242.654 121.463 242.901 121.49C243.145 121.769 243.444 121.772 243.765 121.656C244.218 121.726 244.672 121.792 245.125 121.862C245.249 122.036 245.411 122.094 245.617 122.04C245.946 122.109 246.279 122.179 246.608 122.249C246.725 122.427 246.883 122.485 247.089 122.423C247.302 122.474 247.515 122.52 247.728 122.57C247.852 122.752 248.018 122.822 248.235 122.768C248.809 122.946 249.386 123.124 249.959 123.306C250.079 123.488 250.242 123.566 250.463 123.519C250.668 123.578 250.869 123.636 251.075 123.694C251.187 123.876 251.346 123.953 251.559 123.911C258.337 126.266 264.732 129.353 270.047 134.276C274.703 138.591 278.681 143.445 281.505 149.22C285.316 157.01 288.888 164.892 291.89 173.027C292.296 174.131 292.691 175.238 293.141 176.323C295.372 181.761 297.312 187.308 299.241 192.859C300.481 196.423 301.798 199.955 303.161 203.476C304.544 207.048 305.633 210.735 306.83 214.376C307.349 215.96 307.821 217.56 308.317 219.156C308.15 220.221 308.286 221.244 308.67 222.251C309.026 223.185 309.154 224.153 309.13 225.16C309.076 227.263 309.076 229.367 309.065 231.466C309.057 232.95 309.111 234.437 309.045 235.921C308.983 237.272 308.883 238.636 308.174 239.856C307.178 241.564 306.206 243.288 305.207 244.996C300.992 252.201 296.755 259.386 292.564 266.603C288.899 272.909 285.219 279.207 281.95 285.73C281.636 286.354 281.187 286.656 280.521 286.745C279.913 286.83 279.305 286.946 278.704 287.082C276.117 287.674 273.541 288.317 270.946 288.871C269.803 289.115 268.68 289.503 267.487 289.495C267.204 288.809 266.952 288.108 266.634 287.442C263.648 281.19 260.65 274.946 257.663 268.698C256.435 266.13 255.223 263.558 254.026 260.978C253.038 258.848 252.113 256.686 251.109 254.564C250.61 253.506 250.23 252.379 249.44 251.477C249.277 250.617 248.851 249.865 248.433 249.118C246.318 245.314 244.187 241.522 242.065 237.722C242.351 237.47 242.623 237.609 242.913 237.733C243.649 238.047 244.377 238.407 245.144 238.632C246.825 239.124 248.479 239.004 249.912 237.919C252.453 235.99 253.91 233.465 254.104 230.211C254.363 225.815 253.55 221.592 252.07 217.502C250.509 213.187 248.433 209.128 245.597 205.483C244.075 203.526 242.444 201.69 240.465 200.18C239.117 199.146 237.614 198.437 235.968 198.08C234.879 197.844 233.772 197.856 232.675 198.208C230.367 198.952 228.996 200.606 228.124 202.76C227.822 203.503 227.582 204.266 227.314 205.022C225.839 204.553 224.375 204.065 222.891 203.623C216.077 201.586 209.268 199.545 202.447 197.534C196.694 195.838 190.935 194.164 185.167 192.518C182.432 191.739 179.705 190.934 176.905 190.399C176.936 189.861 176.967 189.322 176.998 188.784C177.381 188.42 177.532 188.021 177.172 187.552H177.16Z" fill="#6A6C65"/>
<path d="M267.483 289.498C268.672 289.506 269.799 289.118 270.942 288.874C273.537 288.32 276.113 287.677 278.7 287.085C279.301 286.945 279.909 286.829 280.517 286.748C281.183 286.655 281.633 286.356 281.946 285.733C285.216 279.21 288.895 272.911 292.56 266.605C296.751 259.389 300.989 252.204 305.203 244.999C306.202 243.291 307.174 241.567 308.17 239.859C308.883 238.639 308.983 237.275 309.042 235.923C309.107 234.444 309.053 232.956 309.061 231.469C309.072 229.366 309.076 227.262 309.127 225.163C309.15 224.156 309.022 223.187 308.666 222.254C308.278 221.247 308.147 220.224 308.313 219.159C310.858 218.95 313.357 219.221 315.851 219.732C318.144 220.201 320.449 220.615 322.765 220.96C324.307 221.189 325.345 222.056 326.162 223.273C327.2 224.818 328.01 226.472 328.525 228.277C329.265 230.888 330.241 233.437 330.768 236.105C331.167 238.12 331.264 240.149 330.71 242.16C329.958 244.894 329.246 247.645 328.428 250.36C327.077 254.853 325.663 259.327 324.245 263.797C324.016 264.518 323.869 265.226 323.896 265.978C323.404 266.245 323.331 266.737 323.184 267.214C320.399 276.119 317.606 285.024 314.809 293.925C313.384 298.465 311.962 303.009 310.498 307.533C310.022 309.001 309.495 310.461 308.848 311.859C307.167 315.489 304.451 318.27 301.283 320.606C297.886 323.108 294.214 325.149 290.24 326.61C289.782 326.78 289.283 326.885 288.934 327.272C288.431 327.272 287.966 327.4 287.497 327.582C286.056 328.132 284.611 328.682 283.155 329.193C273.661 332.528 264.028 335.426 254.402 338.354C252.574 338.912 250.714 339.412 248.956 340.148C246.965 340.977 245.075 342.042 243.138 343.002C242.847 343.146 242.638 343.355 242.514 343.653C241.949 343.614 241.422 343.707 240.899 343.955C237.153 345.753 233.183 346.868 229.143 347.751C227.88 348.026 226.672 348.534 225.362 348.588C224.746 348.588 224.131 348.553 223.519 348.712C223.166 348.801 222.771 348.863 222.418 348.805C220.714 348.522 218.998 348.313 217.325 347.856C215.454 347.345 213.742 346.481 212.069 345.543C209.582 344.149 207.2 342.596 205.1 340.647C201.684 337.479 199.208 333.667 197.489 329.352C195.823 325.177 194.812 320.869 194.936 316.337C194.967 315.16 194.924 313.982 194.998 312.808C195.134 310.639 195.571 308.559 196.536 306.557C198.147 303.218 200.545 300.588 203.578 298.581C206.673 296.528 210.136 295.42 213.889 295.374C216.136 295.347 218.309 295.765 220.458 296.381C222.256 296.896 223.941 297.671 225.572 298.558C226.567 299.096 227.512 299.274 228.581 298.829C229.147 298.593 229.763 298.465 230.363 298.325C235.836 297.039 241.306 295.753 246.783 294.483C253.162 293.003 259.546 291.551 265.922 290.059C266.449 289.935 267.03 289.881 267.483 289.506V289.498Z" fill="#FFB68A"/>
<path d="M267.482 289.499C267.033 289.875 266.452 289.929 265.921 290.053C259.546 291.544 253.162 292.997 246.783 294.476C241.305 295.747 235.836 297.033 230.363 298.319C229.762 298.458 229.146 298.59 228.581 298.822C227.512 299.264 226.567 299.09 225.571 298.551C223.94 297.664 222.256 296.889 220.458 296.374C218.308 295.758 216.135 295.34 213.889 295.367C210.131 295.414 206.672 296.525 203.578 298.574C200.545 300.585 198.147 303.211 196.535 306.55C195.571 308.553 195.133 310.629 194.998 312.802C194.924 313.975 194.967 315.153 194.936 316.331C194.812 320.859 195.823 325.166 197.488 329.345C199.208 333.661 201.683 337.468 205.1 340.641C207.199 342.589 209.585 344.142 212.068 345.537C213.738 346.474 215.45 347.338 217.325 347.849C219.002 348.306 220.714 348.519 222.418 348.798C222.771 348.856 223.166 348.798 223.518 348.705C224.13 348.546 224.746 348.581 225.362 348.581C223.673 349.422 221.798 349.542 219.993 349.922C217.685 350.406 215.341 350.514 212.978 350.39C211.359 350.305 209.779 350.061 208.237 349.592C204.968 348.601 201.803 347.4 199.104 345.192C197.802 344.127 196.621 342.945 195.517 341.702C190.884 336.48 187.169 330.647 184.241 324.325C183.462 322.648 182.889 320.87 182.308 319.108C179.701 311.167 177.54 303.11 176.103 294.875C175.382 290.738 174.801 286.574 174.228 282.414C173.976 280.578 173.903 278.719 173.748 276.871C173.542 274.408 173.275 271.948 173.155 269.481C173.031 266.947 173.054 264.41 173.016 261.873C173.682 261.749 174.344 261.61 175.014 261.505C177.207 261.164 179.399 260.819 181.595 260.502C183.61 260.211 185.628 259.94 187.646 259.685C189.97 259.386 192.302 259.127 194.622 258.817C196.884 258.515 199.135 258.143 201.397 257.848C203.783 257.539 206.177 257.295 208.563 257C211.441 256.648 214.319 256.311 217.185 255.885C218.347 255.71 219.513 255.61 220.675 255.462C223.181 255.145 225.687 254.804 228.19 254.459C230.572 254.134 232.95 253.789 235.332 253.46C238.385 253.038 241.441 252.623 244.493 252.197C246.143 251.969 247.786 251.717 249.436 251.477C250.23 252.379 250.606 253.506 251.105 254.564C252.109 256.686 253.034 258.848 254.022 260.978C255.219 263.558 256.431 266.134 257.659 268.698C260.646 274.95 263.648 281.194 266.63 287.442C266.948 288.108 267.2 288.809 267.482 289.495V289.499Z" fill="#8A89DE"/>
<path d="M249.432 251.478C247.786 251.718 246.14 251.97 244.49 252.198C241.437 252.624 238.381 253.035 235.329 253.461C232.947 253.79 230.568 254.135 228.186 254.46C225.684 254.805 223.178 255.146 220.671 255.464C219.509 255.611 218.344 255.711 217.181 255.886C214.315 256.312 211.437 256.649 208.559 257.001C206.173 257.296 203.779 257.54 201.393 257.85C199.131 258.144 196.88 258.516 194.618 258.818C192.294 259.128 189.966 259.387 187.642 259.686C185.624 259.945 183.606 260.213 181.592 260.503C179.396 260.821 177.203 261.161 175.011 261.506C174.341 261.611 173.678 261.75 173.012 261.874C172.702 261.375 172.745 260.817 172.706 260.259C172.295 254.456 172.45 248.635 172.171 242.832C171.986 238.935 171.776 235.039 172.005 231.161C172.171 228.334 172.109 225.483 172.563 222.663C172.795 221.206 172.811 219.715 172.95 218.239C173.248 215.106 173.701 211.991 174.062 208.869C174.465 205.375 174.98 201.901 175.572 198.434C175.913 196.428 176.111 194.398 176.409 192.388C176.51 191.717 176.727 191.067 176.889 190.408C179.686 190.939 182.417 191.745 185.152 192.527C190.919 194.173 196.679 195.847 202.431 197.543C209.252 199.554 216.066 201.595 222.876 203.632C224.355 204.074 225.823 204.562 227.299 205.031C227.435 207.486 227.156 209.934 227.605 212.406C228.202 215.702 229.213 218.84 230.545 221.884C231.238 223.465 232.036 225.006 232.858 226.525C234.326 229.244 236.111 231.75 238.246 233.985C239.473 235.275 240.783 236.483 242.057 237.731C244.18 241.527 246.31 245.323 248.425 249.127C248.843 249.874 249.266 250.626 249.432 251.486V251.478Z" fill="#FFB68A"/>
<path d="M242.514 343.649C242.638 343.351 242.847 343.142 243.138 342.998C245.074 342.038 246.969 340.972 248.956 340.144C250.714 339.411 252.574 338.908 254.402 338.35C264.024 335.422 273.661 332.524 283.155 329.189C284.611 328.678 286.056 328.132 287.497 327.578C287.966 327.4 288.43 327.264 288.934 327.268C289.558 328.399 290.654 329.034 291.653 329.743C292.854 330.595 293.946 331.622 295.329 332.203C297.572 333.148 299.888 333.717 302.344 333.659C303.89 333.621 305.439 333.628 306.988 333.648C309.165 333.675 311.292 333.307 313.399 332.842C314.422 332.617 315.382 332.133 316.401 331.893C318.764 331.339 320.739 330.03 322.506 328.519C324.803 326.555 326.828 324.313 328.389 321.648C329.927 319.021 331.302 316.356 332.232 313.451C332.914 311.329 333.382 309.163 333.867 306.994C333.882 307.103 333.944 307.157 334.053 307.145C334.099 309.733 334.157 312.316 334.192 314.904C334.219 316.937 334.161 318.967 333.963 320.993C333.7 321.218 333.595 321.454 333.898 321.733C333.808 322.229 333.723 322.724 333.634 323.22C333.382 323.48 333.282 323.766 333.479 324.107C333.061 325.637 332.646 327.167 332.228 328.697C331.934 328.969 331.79 329.282 331.972 329.681C331.097 332.931 329.621 335.906 327.905 338.788C325.143 343.424 321.406 347.17 317.385 350.683C316.889 351.117 316.234 351.415 316.196 352.229C316.18 352.554 315.832 352.725 315.568 352.868C314.65 353.368 313.713 353.84 312.783 354.321C311.695 353.84 311.071 354.46 310.529 355.27C310.324 355.37 310.114 355.467 309.909 355.568C308.952 355.653 307.965 355.618 307.043 355.847C305.435 356.242 303.866 356.803 302.274 357.272C301.569 357.481 300.876 357.698 300.14 357.834C298.633 358.109 297.146 358.446 295.62 358.655C293.133 358.996 290.685 359.585 288.159 359.662C287.915 359.67 287.66 359.678 287.427 359.747C285.882 360.208 284.239 359.933 282.698 360.39C280.416 360.278 278.154 360.537 275.892 360.766C275.443 360.813 275.036 360.863 274.776 361.285C274.095 361.204 273.409 361.126 272.727 361.045C272.495 360.774 272.201 360.735 271.875 360.832C271.042 360.658 270.213 360.479 269.381 360.305C269.264 360.115 269.098 360.053 268.885 360.131C263.222 358.659 257.861 356.482 252.93 353.298C248.89 350.691 245.349 347.546 242.502 343.645L242.514 343.649Z" fill="#884100"/>
<path d="M333.871 307.003C333.386 309.172 332.918 311.333 332.236 313.46C331.302 316.369 329.931 319.03 328.393 321.656C326.832 324.321 324.807 326.564 322.51 328.528C320.743 330.038 318.764 331.348 316.405 331.902C315.386 332.142 314.422 332.626 313.403 332.851C311.296 333.315 309.169 333.683 306.992 333.656C305.443 333.637 303.897 333.629 302.348 333.668C299.892 333.726 297.576 333.157 295.333 332.211C293.95 331.63 292.858 330.604 291.657 329.752C290.658 329.043 289.565 328.412 288.938 327.277C289.287 326.889 289.786 326.785 290.243 326.614C294.218 325.154 297.89 323.113 301.287 320.61C304.459 318.275 307.171 315.49 308.852 311.864C309.499 310.466 310.029 309.005 310.502 307.537C311.966 303.009 313.387 298.469 314.813 293.93C317.61 285.028 320.406 276.123 323.187 267.218C323.335 266.742 323.408 266.246 323.9 265.982C324.171 266.463 324.528 266.916 324.698 267.431C325.581 270.065 326.906 272.509 327.882 275.101C329.788 280.175 331.314 285.365 332.534 290.645C332.604 290.943 332.689 291.238 332.77 291.536C332.55 291.912 332.708 292.218 332.96 292.5C333.146 293.294 333.328 294.085 333.514 294.879C333.324 295.2 333.406 295.475 333.661 295.719C333.762 296.343 333.863 296.967 333.964 297.59C333.696 297.854 333.747 298.094 334.018 298.318C334.452 301.208 333.948 304.105 334.095 306.999C334.025 306.976 333.952 306.98 333.874 307.003H333.871Z" fill="#6B6D65"/>
<path d="M288.519 375.127C286.3 374.376 284.034 373.744 281.872 372.85C278.165 371.316 275.675 368.678 275.028 364.568C278.111 364.545 281.198 364.448 284.282 364.526C286.207 364.576 288.101 364.343 289.968 364.041C293.051 363.546 296.111 362.875 299.156 362.155C301.542 361.589 303.92 360.981 306.159 359.877C307.298 359.312 308.499 358.77 309.781 358.537C310.416 358.649 311.055 358.766 311.69 358.878C312.163 359.172 312.651 359.277 313.17 358.994C315.153 359.215 317.137 359.432 319.12 359.653C319.348 359.928 319.592 359.99 319.864 359.711C320.735 359.808 321.603 359.904 322.474 360.001C322.823 360.272 323.187 360.365 323.582 360.09C324.33 360.183 325.073 360.28 325.821 360.373C326.17 360.652 326.53 360.753 326.929 360.474C328.292 360.687 329.656 360.904 331.019 361.117C331.24 361.392 331.48 361.477 331.763 361.198C332.383 361.299 333.002 361.404 333.622 361.504C333.843 361.775 334.083 361.868 334.362 361.586C334.827 361.671 335.288 361.752 335.753 361.837C336.264 362.232 336.826 362.306 337.434 362.101C337.651 362.147 337.868 362.19 338.081 362.236C338.34 362.496 338.631 362.585 338.968 362.384C339.293 362.461 339.618 362.538 339.94 362.616C340.196 362.872 340.478 362.98 340.819 362.786C341.021 362.844 341.222 362.899 341.423 362.957C341.764 363.313 342.171 363.398 342.636 363.24C343.19 363.383 343.748 363.53 344.301 363.673C344.576 363.956 344.882 364.111 345.278 363.917C347.11 364.413 348.888 365.06 350.631 365.815C350.844 366.18 351.146 366.331 351.564 366.234C353.486 366.958 354.868 368.399 356.189 369.867C357.266 371.06 357.247 373.268 356.267 374.527C355.337 375.72 354.283 376.758 352.629 376.828C352.444 376.731 352.285 376.754 352.157 376.928L351.46 377.068C351.177 376.777 350.941 376.882 350.72 377.153C349.283 377.366 347.842 377.579 346.405 377.792C345.959 377.54 345.541 377.568 345.146 377.897C344.917 377.916 344.689 377.936 344.46 377.955C344.29 377.839 344.131 377.854 343.992 378.009C341.036 378.28 338.088 378.722 335.106 378.571C333.967 378.18 333.301 378.176 332.146 378.571C326.669 378.625 321.2 378.428 315.727 378.257C313.391 378.184 311.059 378.025 308.723 377.908C308.115 377.595 307.495 377.513 306.86 377.827C305.501 377.734 304.137 377.637 302.778 377.544C302.421 377.265 302.053 377.173 301.658 377.463C300.213 377.258 298.772 377.056 297.328 376.851C296.905 376.545 296.456 376.437 295.964 376.669C294.93 376.487 293.9 376.301 292.865 376.119C292.606 375.875 292.331 375.728 291.99 375.979C291.661 375.898 291.335 375.817 291.006 375.732C290.712 375.488 290.394 375.364 290.018 375.546C289.813 375.48 289.604 375.418 289.399 375.352C289.154 375.1 288.876 374.996 288.535 375.139L288.519 375.127Z" fill="#884100"/>
<path d="M309.781 358.533C308.495 358.77 307.298 359.312 306.159 359.874C303.924 360.982 301.546 361.586 299.156 362.151C296.115 362.872 293.055 363.542 289.968 364.038C288.101 364.336 286.207 364.572 284.282 364.522C281.198 364.444 278.111 364.541 275.028 364.565C274.637 363.701 274.656 362.81 274.834 361.903C274.854 361.853 274.892 361.795 274.885 361.752C274.861 361.659 274.811 361.574 274.772 361.485C274.741 361.415 274.749 361.346 274.788 361.284C275.043 360.861 275.454 360.811 275.903 360.765C278.165 360.54 280.428 360.277 282.709 360.389C284.251 359.932 285.893 360.207 287.439 359.746C287.671 359.676 287.927 359.668 288.171 359.661C290.692 359.583 293.144 358.994 295.631 358.654C297.157 358.444 298.645 358.107 300.151 357.832C300.887 357.701 301.581 357.48 302.286 357.271C303.878 356.802 305.446 356.237 307.054 355.845C307.976 355.621 308.964 355.652 309.92 355.566C309.87 355.675 309.835 355.791 309.812 355.911C309.49 356.078 309.165 356.248 308.747 356.465C308.851 357.267 309.463 357.829 309.785 358.522L309.781 358.533Z" fill="#5D3818"/>
<path d="M332.135 378.561C333.293 378.17 333.955 378.17 335.094 378.561C334.106 378.797 333.119 378.805 332.135 378.561Z" fill="#884100"/>
<path d="M306.849 377.81C307.484 377.496 308.104 377.577 308.712 377.891C308.077 378.193 307.453 378.166 306.849 377.81Z" fill="#884100"/>
<path d="M310.533 355.279C311.075 354.47 311.699 353.846 312.787 354.33C312.295 354.621 311.807 354.915 311.315 355.206C311.056 355.233 310.792 355.256 310.533 355.283V355.279Z" fill="#5D3818"/>
<path d="M313.167 358.989C312.648 359.272 312.16 359.167 311.687 358.873C312.206 358.59 312.698 358.644 313.167 358.989Z" fill="#884100"/>
<path d="M345.138 377.893C345.533 377.56 345.955 377.537 346.397 377.789C345.998 378.052 345.58 378.137 345.138 377.893Z" fill="#884100"/>
<path d="M301.643 377.45C302.038 377.16 302.41 377.249 302.763 377.532C302.367 377.818 301.996 377.756 301.643 377.45Z" fill="#884100"/>
<path d="M295.953 376.656C296.445 376.424 296.894 376.533 297.316 376.839C296.824 377.059 296.371 376.993 295.953 376.656Z" fill="#884100"/>
<path d="M337.426 362.098C336.822 362.299 336.256 362.229 335.745 361.834C336.346 361.668 336.903 361.753 337.426 362.098Z" fill="#884100"/>
<path d="M326.921 360.468C326.522 360.747 326.158 360.642 325.813 360.367C326.212 360.092 326.58 360.15 326.921 360.468Z" fill="#884100"/>
<path d="M323.575 360.085C323.18 360.36 322.815 360.267 322.467 359.996C322.862 359.717 323.23 359.775 323.575 360.085Z" fill="#884100"/>
<path d="M177.161 187.553C177.525 188.021 177.374 188.42 176.986 188.785C176.746 188.331 176.765 187.917 177.161 187.553Z" fill="#CAB7A8"/>
<path d="M342.628 363.232C342.164 363.391 341.761 363.306 341.416 362.95C341.885 362.775 342.276 362.911 342.628 363.232Z" fill="#884100"/>
<path d="M310.533 355.279C310.792 355.252 311.056 355.228 311.315 355.201C310.916 355.662 310.378 355.825 309.805 355.918C309.824 355.798 309.863 355.685 309.913 355.573C310.118 355.472 310.328 355.375 310.533 355.275V355.279Z" fill="#9F8F8A"/>
<path d="M242.165 121.415C241.894 121.744 241.646 121.697 241.421 121.364C241.685 121.155 241.933 121.194 242.165 121.415Z" fill="#9F8F8A"/>
<path d="M178.264 181.236C178.523 181.515 178.454 181.755 178.175 181.968C177.888 181.686 177.973 181.449 178.264 181.236Z" fill="#CAB7A8"/>
<path d="M177.95 182.986C178.14 183.3 178.078 183.579 177.823 183.827C177.478 183.49 177.687 183.234 177.95 182.986Z" fill="#CAB7A8"/>
<path d="M177.575 185.221C177.811 185.585 177.676 185.895 177.428 186.185C177.172 185.817 177.292 185.507 177.575 185.221Z" fill="#CAB7A8"/>
<path d="M332.96 292.498C332.712 292.211 332.55 291.909 332.771 291.533C333.057 291.812 333.193 292.118 332.96 292.498Z" fill="#CAB7A8"/>
<path d="M333.657 295.717C333.402 295.473 333.324 295.198 333.51 294.877C333.778 295.117 333.994 295.369 333.657 295.717Z" fill="#CAB7A8"/>
<path d="M334.014 298.314C333.743 298.089 333.693 297.849 333.96 297.586C334.258 297.807 334.305 298.051 334.014 298.314Z" fill="#CAB7A8"/>
<path d="M333.901 321.738C333.603 321.463 333.704 321.223 333.967 320.998C334.165 321.265 334.149 321.509 333.901 321.738Z" fill="#BC9175"/>
<path d="M333.483 324.112C333.289 323.775 333.386 323.488 333.638 323.225C333.839 323.565 333.746 323.852 333.483 324.112Z" fill="#BC9175"/>
<path d="M331.98 329.685C331.798 329.286 331.941 328.976 332.236 328.701C332.356 329.081 332.267 329.41 331.98 329.685Z" fill="#BC9175"/>
<path d="M319.86 359.706C319.589 359.985 319.345 359.923 319.116 359.648C319.38 359.447 319.628 359.47 319.86 359.706Z" fill="#884100"/>
<path d="M331.755 361.194C331.473 361.473 331.233 361.388 331.012 361.113C331.283 360.915 331.531 360.954 331.755 361.194Z" fill="#884100"/>
<path d="M334.355 361.581C334.076 361.863 333.836 361.774 333.615 361.499C333.886 361.306 334.134 361.337 334.355 361.581Z" fill="#884100"/>
<path d="M340.815 362.778C340.474 362.972 340.188 362.864 339.936 362.608C340.281 362.403 340.567 362.499 340.815 362.778Z" fill="#884100"/>
<path d="M345.27 363.908C344.875 364.102 344.569 363.947 344.294 363.664C344.67 363.54 344.999 363.61 345.27 363.908Z" fill="#884100"/>
<path d="M351.557 366.228C351.139 366.325 350.833 366.17 350.624 365.809C351.019 365.759 351.352 365.852 351.557 366.228Z" fill="#884100"/>
<path d="M288.52 375.128C288.86 374.981 289.139 375.085 289.383 375.341C289.019 375.585 288.752 375.426 288.52 375.128Z" fill="#884100"/>
<path d="M290.007 375.532C290.383 375.346 290.7 375.474 290.995 375.718C290.619 375.896 290.293 375.819 290.007 375.532Z" fill="#884100"/>
<path d="M291.979 375.963C292.319 375.711 292.594 375.858 292.854 376.102C292.529 376.273 292.238 376.211 291.979 375.963Z" fill="#884100"/>
<path d="M350.716 377.144C350.933 376.872 351.173 376.764 351.456 377.058C351.235 377.31 350.991 377.345 350.716 377.144Z" fill="#884100"/>
<path d="M338.96 362.379C338.623 362.581 338.337 362.491 338.073 362.232C338.41 362.023 338.697 362.123 338.96 362.379Z" fill="#884100"/>
<path d="M240.399 121.307C239.973 121.428 239.555 121.478 239.187 121.145C239.616 121.001 240.027 121.025 240.399 121.307Z" fill="#9F8F8A"/>
<path d="M271.883 360.833C272.208 360.736 272.503 360.775 272.735 361.046C272.398 361.182 272.111 361.124 271.883 360.833Z" fill="#CAB7A8"/>
<path d="M243.765 121.661C243.444 121.781 243.149 121.773 242.901 121.494C243.219 121.386 243.513 121.421 243.765 121.661Z" fill="#9F8F8A"/>
<path d="M229.917 121.481C229.697 121.752 229.41 121.79 229.092 121.701C229.325 121.461 229.6 121.391 229.917 121.481Z" fill="#9F8F8A"/>
<path d="M232.148 121.143C231.897 121.407 231.602 121.407 231.289 121.291C231.544 121.051 231.835 121.02 232.148 121.143Z" fill="#9F8F8A"/>
<path d="M222.116 123.695C222.004 123.877 221.845 123.955 221.632 123.916C221.744 123.738 221.903 123.656 222.116 123.695Z" fill="#9F8F8A"/>
<path d="M274.772 361.486C274.811 361.575 274.862 361.661 274.885 361.754C274.896 361.796 274.854 361.854 274.834 361.905C274.78 361.808 274.714 361.715 274.68 361.614C274.668 361.587 274.738 361.529 274.772 361.486Z" fill="#CAB7A8"/>
<path d="M225.459 122.551C225.335 122.737 225.165 122.818 224.94 122.76C225.068 122.578 225.242 122.509 225.459 122.551Z" fill="#9F8F8A"/>
<path d="M247.088 122.432C246.887 122.491 246.724 122.432 246.608 122.258C246.809 122.196 246.964 122.27 247.088 122.432Z" fill="#9F8F8A"/>
<path d="M226.579 122.218C226.451 122.396 226.284 122.462 226.067 122.4C226.195 122.226 226.366 122.164 226.579 122.218Z" fill="#9F8F8A"/>
<path d="M250.463 123.522C250.246 123.573 250.079 123.495 249.959 123.309C250.172 123.27 250.339 123.34 250.463 123.522Z" fill="#9F8F8A"/>
<path d="M228.066 121.878C227.938 122.048 227.768 122.102 227.562 122.04C227.694 121.874 227.861 121.816 228.066 121.878Z" fill="#9F8F8A"/>
<path d="M223.228 123.309C223.108 123.495 222.942 123.573 222.725 123.522C222.845 123.34 223.015 123.27 223.228 123.309Z" fill="#9F8F8A"/>
<path d="M333.871 307.003C333.948 306.976 334.022 306.976 334.091 306.999L334.122 307.088L334.057 307.158C333.944 307.166 333.882 307.116 333.871 307.007V307.003Z" fill="#CAB7A8"/>
<path d="M224.344 122.928C224.22 123.114 224.053 123.196 223.829 123.141C223.953 122.959 224.123 122.89 224.344 122.928Z" fill="#9F8F8A"/>
<path d="M268.896 360.133C269.109 360.055 269.272 360.113 269.392 360.307C269.175 360.396 269.012 360.334 268.896 360.133Z" fill="#CAB7A8"/>
<path d="M248.235 122.771C248.018 122.825 247.851 122.755 247.728 122.573C247.941 122.527 248.107 122.592 248.235 122.771Z" fill="#9F8F8A"/>
<path d="M245.616 122.045C245.411 122.099 245.248 122.041 245.125 121.866C245.33 121.808 245.493 121.874 245.616 122.045Z" fill="#9F8F8A"/>
<path d="M352.154 376.919C352.282 376.745 352.44 376.722 352.626 376.818C352.499 376.981 352.347 377.043 352.154 376.919Z" fill="#884100"/>
<path d="M343.98 378.004C344.12 377.849 344.279 377.833 344.449 377.949C344.31 378.116 344.155 378.166 343.98 378.004Z" fill="#884100"/>
<path d="M251.554 123.914C251.341 123.953 251.183 123.875 251.07 123.697C251.279 123.659 251.442 123.736 251.554 123.914Z" fill="#9F8F8A"/>
<path d="M242.057 237.721C240.782 236.474 239.473 235.262 238.245 233.976C236.111 231.737 234.325 229.234 232.857 226.515C232.036 224.993 231.238 223.455 230.545 221.875C229.212 218.83 228.205 215.693 227.605 212.396C227.156 209.925 227.434 207.477 227.299 205.021C227.566 204.266 227.806 203.499 228.108 202.759C228.98 200.605 230.351 198.948 232.66 198.208C233.756 197.855 234.864 197.844 235.952 198.08C237.598 198.436 239.097 199.145 240.449 200.179C242.429 201.694 244.059 203.53 245.582 205.482C248.417 209.127 250.493 213.187 252.054 217.502C253.534 221.596 254.351 225.814 254.088 230.211C253.894 233.46 252.442 235.99 249.897 237.919C248.464 239.003 246.813 239.123 245.129 238.632C244.362 238.407 243.637 238.051 242.897 237.733C242.607 237.609 242.336 237.47 242.049 237.721H242.057Z" fill="#E5A37B"/>
</svg>
