<svg width="500" height="500" viewBox="0 0 500 500" fill="none" xmlns="http://www.w3.org/2000/svg">
<path d="M331.639 375.112C329.924 375.026 328.271 374.561 326.598 374.236C314.797 371.946 302.996 369.644 291.203 367.308C281.857 365.454 272.519 363.575 263.19 361.654C258.556 360.7 253.942 359.644 249.51 357.941C248.786 357.666 248.132 357.695 247.409 357.913C239.452 360.273 231.303 361.691 223.112 362.913C216.87 363.842 210.6 364.541 204.317 365.084C199.276 365.519 194.227 365.885 189.165 366.046C184.827 366.181 180.493 366.354 176.155 366.342C170.498 366.325 164.852 366.107 159.223 365.561C156.086 365.256 152.961 364.804 149.898 364.031C148.882 363.776 147.875 363.459 146.888 363.098C145.646 362.641 144.499 362 143.565 361.038C143.508 358.673 142.957 356.371 142.628 354.043C141.847 348.542 140.897 343.065 140.091 337.568C139.844 335.89 139.425 334.225 139.507 332.506C140.597 332.017 141.74 331.799 142.932 331.679C147.373 331.24 151.81 330.738 156.25 330.265C159.19 329.953 162.13 329.656 165.066 329.348C169.638 328.867 174.206 328.374 178.775 327.893C181.715 327.584 184.655 327.288 187.59 326.98C192.163 326.499 196.731 326.005 201.303 325.528C204.309 325.212 207.315 324.928 210.316 324.599C216.973 323.871 223.663 323.407 230.267 322.263C235.262 321.396 240.303 321.042 245.345 320.668C252.548 320.138 259.76 319.685 266.968 319.208C271.882 318.884 276.8 318.567 281.717 318.254C286.109 317.979 290.504 317.745 294.892 317.436C299.086 317.14 303.271 316.766 307.461 316.441C311.651 316.116 315.845 315.812 320.035 315.504C322.198 315.343 324.357 315.191 326.519 315.039C326.7 317.259 326.881 319.48 327.058 321.7C327.288 324.636 327.531 327.576 327.728 330.516C327.917 333.328 328.049 336.141 328.218 338.953C328.242 339.344 328.341 339.73 328.39 340.117C328.756 343.238 329.381 346.322 329.402 349.488C329.414 351.383 329.648 353.279 329.821 355.17C330.158 358.821 330.533 362.469 330.87 366.12C331.145 369.117 331.388 372.123 331.647 375.12L331.639 375.112Z" fill="#696E66"/>
<path d="M331.638 375.112C331.379 372.111 331.137 369.109 330.861 366.112C330.524 362.46 330.15 358.813 329.813 355.162C329.64 353.271 329.401 351.375 329.393 349.48C329.373 346.314 328.748 343.23 328.382 340.109C328.336 339.718 328.234 339.336 328.209 338.945C328.04 336.133 327.909 333.316 327.72 330.508C327.522 327.568 327.28 324.632 327.049 321.692C326.877 319.472 326.692 317.251 326.511 315.031C326.33 313.078 326.153 311.125 325.968 309.172C325.931 308.781 325.832 308.395 325.816 308.004C325.734 305.71 325.355 303.448 325.092 301.174C324.887 299.419 324.776 297.655 324.595 295.895C324.385 293.88 324.138 291.865 323.916 289.85C323.871 289.46 323.838 289.065 323.818 288.674C323.694 286.253 323.411 283.851 323.135 281.442C322.892 279.295 322.79 277.137 322.613 274.982C322.465 273.222 322.321 271.458 322.132 269.703C321.939 267.947 321.7 266.199 321.466 264.448C321.022 261.142 320.779 257.811 320.397 254.497C320.068 251.64 319.632 248.794 319.377 245.92C319.097 242.733 318.986 239.514 318.365 236.36C318.341 236.233 318.341 236.101 318.332 235.97C318.176 233.42 318.045 230.867 317.864 228.322C317.769 227.018 317.691 225.698 317.428 224.424C317.066 222.668 317.136 220.9 317.004 219.136C317.152 214.995 317.699 210.912 318.67 206.883C319.615 202.956 320.96 199.214 323.419 195.945C325.508 193.17 328.213 191.299 331.581 190.452C332.975 190.103 334.405 189.831 335.836 189.712C337.469 189.572 339.155 189.408 340.75 189.671C343.772 190.164 346.527 191.406 348.76 193.589C349.413 194.231 349.997 194.95 350.552 195.682C351.663 197.15 352.649 198.688 353.41 200.378C355.832 205.736 356.728 211.414 356.909 217.216C357.057 221.936 357.057 226.66 356.687 231.389C356.395 235.114 356.568 238.864 356.272 242.602C356.005 245.998 356.12 249.419 355.902 252.832C355.589 257.676 355.799 262.54 355.487 267.396C355.285 270.537 355.4 273.699 355.376 276.853C355.376 281.647 355.376 286.438 355.367 291.232C355.367 291.886 355.404 292.568 355.228 293.181C355.001 293.962 354.993 294.731 354.989 295.516C354.981 296.894 355.014 298.275 354.977 299.653C354.911 301.939 355.24 304.246 354.611 306.499C354.561 306.684 354.59 306.89 354.594 307.087C354.603 308.991 354.611 310.895 354.619 312.798C354.241 313.46 354.286 314.192 354.261 314.912C354.212 316.618 354.282 318.341 354.089 320.035C353.686 323.563 353.862 327.12 353.468 330.648C353.472 344.258 353.468 357.864 353.496 371.474C353.501 373.834 353.698 376.198 353.764 378.558C353.78 379.105 354.105 379.368 354.446 379.664C354.15 379.82 353.854 380.001 353.846 380.376C353.83 381.099 353.76 381.835 353.875 382.542C354.327 385.285 354.261 388.048 354.183 390.803C354.064 394.935 353.727 399.047 352.637 403.069C351.942 405.634 350.918 408.036 349.413 410.219C348.344 411.769 346.901 412.612 344.923 412.591C338.283 412.522 331.634 412.715 325.002 412.443C319.677 412.225 314.36 412.32 309.04 412.18C308.106 412.156 307.214 411.979 306.314 411.798C304.624 411.457 303.604 410.116 303.826 408.323C304.003 406.88 304.077 405.437 304.044 404.002C304.007 402.431 304.632 401.333 306.606 400.778C309.196 400.046 311.778 399.294 314.369 398.574C319.619 397.123 324.87 395.688 330.125 394.249C330.947 394.023 331.778 393.825 332.604 393.62C333.065 393.505 333.304 393.167 333.192 392.748C332.703 390.885 332.958 388.957 332.609 387.074C332.325 385.54 332.358 383.945 332.177 382.374C331.893 379.964 331.803 377.534 331.63 375.112H331.638Z" fill="#FFB88B"/>
<path d="M354.455 379.673C354.113 379.377 353.789 379.114 353.772 378.567C353.706 376.203 353.509 373.843 353.505 371.483C353.472 357.873 353.48 344.267 353.476 330.657C353.871 327.133 353.694 323.576 354.097 320.044C354.29 318.354 354.22 316.631 354.27 314.921C354.29 314.201 354.249 313.469 354.627 312.807C355.696 312.709 356.766 312.602 357.761 312.145C361.066 311.718 364.376 311.286 367.682 310.867C370.149 310.554 372.616 310.266 375.084 309.966C377.485 309.674 379.886 309.382 382.287 309.086C385.207 308.724 388.126 308.354 391.045 308.001C393.644 307.688 396.247 307.433 398.841 307.092C401.629 306.726 404.409 306.278 407.238 306.352C408.504 307.828 409.191 309.608 409.832 311.401C410.831 314.185 411.547 317.055 412.188 319.937C412.501 321.348 412.846 322.746 413.266 324.131C414.639 328.699 415.243 333.375 414.91 338.144C414.573 342.976 413.331 347.589 411.263 351.968C410.507 353.568 409.692 355.155 408.751 356.651C406.091 360.874 403.34 365.044 400.198 368.933C394.976 375.397 388.418 379.924 380.429 382.284C374.249 384.11 368.081 383.908 362.061 381.639C359.578 380.701 357.049 380.105 354.459 379.677L354.455 379.673Z" fill="#696D65"/>
<path d="M355.384 276.86C355.408 273.707 355.293 270.545 355.495 267.403C355.807 262.547 355.597 257.683 355.91 252.839C356.128 249.427 356.013 246.01 356.28 242.609C356.576 238.872 356.403 235.122 356.695 231.396C357.065 226.668 357.065 221.947 356.917 217.223C356.736 211.421 355.84 205.743 353.418 200.385C352.653 198.695 351.671 197.153 350.56 195.69C350.005 194.958 349.426 194.234 348.768 193.597C346.535 191.413 343.776 190.172 340.758 189.678C339.163 189.415 337.477 189.584 335.844 189.719C334.413 189.839 332.983 190.11 331.589 190.459C328.225 191.306 325.516 193.177 323.427 195.953C320.968 199.218 319.623 202.963 318.678 206.89C317.707 210.92 317.16 215.003 317.012 219.143C316.609 217.753 316.465 216.318 316.42 214.892C316.35 212.667 316.338 210.447 316.626 208.218C316.852 206.462 317.053 204.715 317.461 202.988C318.057 200.476 318.949 198.103 320.409 195.957C320.548 195.751 320.59 195.476 320.676 195.229C321.433 194.501 322.185 193.769 322.946 193.05C323.423 192.598 323.887 192.129 324.405 191.73C327.012 189.723 329.751 187.955 332.806 186.668C336.103 185.279 339.537 184.444 343.077 184.164C346.634 183.885 350.145 184.337 353.546 185.496C354.409 185.793 355.268 186.154 356.21 186.142C356.773 186.479 357.32 186.841 357.9 187.149C361.37 188.987 364.323 191.479 366.905 194.411C371.753 199.908 375.174 206.212 377.493 213.152C378.364 215.763 379.45 218.309 380.465 220.87C383.997 229.785 387.258 238.802 390.091 247.963C391.427 252.288 392.587 256.667 393.804 261.03C393.981 261.659 394.043 262.317 394.154 262.963C389.857 264.554 385.564 266.157 381.263 267.732C374.01 270.388 366.753 273.024 359.495 275.672C359.006 275.849 358.496 275.989 358.106 276.371C357.18 276.441 356.358 277.103 355.379 276.865L355.384 276.86Z" fill="#8B8BDF"/>
<path d="M284.024 133.146C283.872 132.48 284.053 131.855 284.205 131.209C285.652 125.021 289.057 120.083 293.933 116.123C298.773 112.192 304.332 109.828 310.446 108.726C316.963 107.554 323.378 108.031 329.685 109.996C330.672 110.305 331.577 110.457 332.506 109.939C332.436 110.662 332.691 111.152 333.361 111.542C335.401 112.722 337.325 114.067 339.192 115.527C341.646 117.447 343.661 119.741 345.536 122.188C345.972 122.755 346.404 123.335 346.794 123.935C348.081 125.921 349.105 128.043 349.969 130.247C350.684 132.077 351.35 133.91 351.835 135.822C352.321 137.743 352.025 139.741 352.547 141.649C352.608 141.871 352.432 142.151 352.391 142.405C352.329 142.792 352.238 143.183 352.251 143.569C352.304 145.695 351.831 147.718 351.124 149.708C350.622 151.127 350.211 152.566 350.651 154.091C349.78 154.186 349.183 154.671 348.875 155.46C348.46 156.525 347.74 157.376 347.045 158.248C345.614 160.049 344.187 161.854 342.761 163.659C341.955 163.61 341.248 163.244 340.516 162.956C336.548 161.385 332.588 159.798 328.616 158.236C325.442 156.986 322.255 155.761 319.073 154.523C318.645 154.354 318.213 154.194 317.798 154.005C316.17 153.265 315.027 152.101 314.373 150.399C313.057 146.986 311.133 143.947 308.431 141.452C304.681 137.989 300.179 136.139 295.167 135.531C291.964 135.144 288.814 134.564 285.747 133.557C285.187 133.376 284.604 133.277 284.032 133.137L284.024 133.146Z" fill="#824414"/>
<path d="M284.024 133.146C284.595 133.282 285.179 133.381 285.738 133.566C288.806 134.569 291.955 135.153 295.158 135.54C300.175 136.144 304.673 137.998 308.423 141.461C311.124 143.956 313.049 146.995 314.365 150.408C315.018 152.11 316.161 153.278 317.79 154.014C318.209 154.203 318.637 154.367 319.064 154.532C322.247 155.77 325.433 156.995 328.608 158.245C332.58 159.807 336.539 161.399 340.507 162.965C341.235 163.253 341.946 163.619 342.752 163.668C343.155 164.939 344.043 165.934 344.71 167.048C347.707 172.036 350.762 176.986 353.801 181.949C354.142 182.504 354.549 183.027 354.656 183.697C353.92 183.771 353.254 183.582 352.559 183.31C349.434 182.089 346.26 181.102 342.83 181.333C341.979 181.39 341.124 181.333 340.269 181.349C339.878 181.357 339.475 181.361 339.097 181.452C335.372 182.344 331.856 183.721 328.645 185.843C326.511 187.249 324.484 188.795 322.51 190.407C321.346 191.357 320.339 192.496 318.994 193.22C318.509 192.784 318.012 192.356 317.539 191.908C316.449 190.868 315.397 189.786 314.254 188.795C313.32 187.981 312.555 186.974 311.696 186.078C310.561 184.893 309.406 183.726 308.254 182.554C307.979 182.274 307.695 181.999 307.424 181.715C305.964 180.202 304.217 179.729 302.218 180.337C300.5 180.86 298.756 181.057 296.972 180.954C295.072 180.847 293.394 180.177 291.964 178.927C290.57 177.706 289.377 176.32 288.637 174.589C288.304 173.804 287.885 173.055 287.547 172.274C286.182 169.108 284.015 166.633 281.162 164.717C279.525 163.619 277.848 162.591 276.113 161.662C275.414 161.288 274.735 160.901 274.205 160.293C273.148 159.08 273.074 158.015 274.061 156.748C274.743 155.872 275.471 155.017 276.252 154.223C277.909 152.529 279.357 150.667 280.784 148.784C282.021 147.151 282.934 145.33 283.74 143.459C284.155 142.493 284.41 141.473 284.386 140.4C284.344 138.5 284.509 136.596 284.057 134.713C283.937 134.216 284.024 133.673 284.015 133.146H284.024Z" fill="#FFB88B"/>
<path d="M139.503 332.501C139.42 334.22 139.84 335.885 140.086 337.563C140.892 343.06 141.842 348.537 142.623 354.039C142.952 356.366 143.503 358.669 143.561 361.033C141.254 362.554 138.799 363.808 136.353 365.087C132.607 367.044 128.693 367.221 124.676 366.325C123.52 366.066 122.455 365.494 121.526 364.742C118.241 362.081 114.63 359.952 110.831 358.122C106.748 356.156 102.665 354.195 98.5698 352.25C95.8272 350.951 93.2573 349.372 90.8273 347.567C87.7475 345.281 85.0461 342.612 83.0642 339.294C81.2797 336.301 80.5108 333.073 81.5511 329.668C82.9409 325.104 85.9548 322.065 90.6957 321.132C93.1504 320.647 95.6627 320.947 98.101 321.65C106.288 324.023 114.482 326.379 122.669 328.751C125.189 329.479 127.71 330.211 130.214 330.988C133.24 331.926 136.332 332.431 139.494 332.497L139.503 332.501Z" fill="#FFB88B"/>
<path d="M358.11 276.368C358.496 275.985 359.006 275.845 359.5 275.669C366.757 273.021 374.014 270.385 381.268 267.729C385.568 266.154 389.861 264.55 394.158 262.959C394.339 263.304 394.581 263.633 394.693 263.999C396.107 268.699 397.493 273.411 398.907 278.111C399.964 281.622 401.058 285.122 402.118 288.629C403.73 293.954 405.33 299.283 406.921 304.616C407.09 305.175 407.139 305.771 407.246 306.351C404.421 306.277 401.641 306.725 398.85 307.091C396.255 307.432 393.652 307.687 391.054 307.999C388.134 308.349 385.215 308.723 382.295 309.085C379.894 309.381 377.493 309.673 375.092 309.965C372.625 310.265 370.157 310.553 367.69 310.865C364.38 311.285 361.075 311.717 357.769 312.14C357.769 310.569 357.756 308.999 357.769 307.428C357.773 306.91 357.74 306.355 357.9 305.878C358.159 305.105 358.147 304.336 358.147 303.551C358.151 298.514 358.151 293.477 358.159 288.436C358.159 287.848 358.073 287.219 358.254 286.684C358.579 285.718 358.538 284.751 358.538 283.773C358.533 281.298 358.677 278.81 358.114 276.368H358.11Z" fill="#FFB88B"/>
<path d="M338.381 106.357C344.2 102.266 351.823 102.435 357.485 106.103C357.974 106.419 358.406 106.847 358.8 107.279C359.956 108.541 361.046 109.857 361.93 111.329C363.11 113.302 364.31 115.268 365.437 117.27C366.605 119.338 367.419 121.567 368.052 123.849C369.491 129.038 370.856 134.252 372.316 139.437C374.849 148.425 376.79 157.553 378.64 166.698C379.006 168.503 379.425 170.292 379.791 172.097C380.132 173.795 379.314 174.749 377.6 174.736C376.917 174.732 376.317 174.498 375.725 174.21C372.879 172.825 370.19 171.188 367.661 169.288C364.869 167.191 362.275 164.868 359.734 162.483C358.151 160.999 356.588 159.494 355.001 158.018C354.282 157.348 353.529 156.715 352.793 156.065C353.755 156.221 354.434 155.83 354.935 155.02C355.762 153.684 356.638 152.385 357.382 150.991C358.685 148.549 359.536 145.975 360.203 143.29C360.634 141.546 360.227 139.745 360.852 138.047C360.947 137.784 360.749 137.418 360.696 137.097C360.634 136.711 360.507 136.316 360.536 135.938C360.634 134.61 360.363 133.327 360.104 132.048C359.643 129.799 358.994 127.595 358.04 125.506C356.65 122.459 355.092 119.495 352.941 116.904C351.432 115.087 349.775 113.397 347.925 111.917C345.515 109.988 342.818 108.491 340.256 106.789C339.648 106.386 339.031 106.39 338.385 106.357H338.381Z" fill="#834515"/>
<path d="M338.381 106.357C339.027 106.394 339.644 106.386 340.252 106.789C342.814 108.491 345.515 109.988 347.921 111.917C349.771 113.397 351.428 115.087 352.937 116.904C355.087 119.495 356.65 122.459 358.036 125.506C358.99 127.595 359.639 129.799 360.1 132.048C360.363 133.327 360.63 134.61 360.532 135.938C360.503 136.32 360.63 136.711 360.692 137.097C360.745 137.418 360.943 137.788 360.848 138.047C360.223 139.745 360.63 141.546 360.198 143.289C359.532 145.974 358.681 148.544 357.378 150.991C356.634 152.385 355.758 153.684 354.931 155.02C354.43 155.83 353.751 156.225 352.789 156.065C351.815 155.687 351.342 154.765 350.639 154.095C350.199 152.57 350.61 151.131 351.111 149.712C351.815 147.722 352.287 145.699 352.238 143.573C352.23 143.187 352.316 142.796 352.378 142.41C352.419 142.155 352.596 141.875 352.534 141.653C352.012 139.745 352.308 137.747 351.823 135.827C351.338 133.915 350.671 132.081 349.956 130.251C349.093 128.047 348.073 125.925 346.782 123.939C346.391 123.339 345.959 122.759 345.523 122.192C343.644 119.745 341.634 117.455 339.179 115.531C337.312 114.071 335.392 112.727 333.348 111.547C332.674 111.156 332.423 110.667 332.493 109.943C334.372 108.615 336.338 107.431 338.373 106.357H338.381Z" fill="#62350E"/>
<path d="M319.002 193.223C320.347 192.5 321.354 191.361 322.518 190.411C324.492 188.799 326.519 187.253 328.653 185.847C331.864 183.725 335.38 182.348 339.105 181.456C339.483 181.365 339.886 181.357 340.277 181.353C341.132 181.336 341.987 181.394 342.838 181.336C346.264 181.106 349.442 182.093 352.567 183.314C353.258 183.585 353.924 183.775 354.664 183.701C355.388 184.383 355.935 185.181 356.214 186.147C355.273 186.159 354.413 185.798 353.55 185.502C350.149 184.342 346.642 183.89 343.081 184.169C339.541 184.449 336.112 185.279 332.81 186.673C329.755 187.96 327.016 189.733 324.409 191.735C323.891 192.134 323.427 192.607 322.95 193.055C322.189 193.774 321.437 194.506 320.68 195.234C319.993 194.671 319.323 194.095 319.007 193.223H319.002Z" fill="#E6A47F"/>
<path d="M358.11 276.367C358.673 278.814 358.525 281.297 358.534 283.773C358.534 284.747 358.579 285.717 358.25 286.684C358.069 287.218 358.155 287.847 358.155 288.435C358.147 293.472 358.147 298.509 358.143 303.55C358.143 304.331 358.155 305.104 357.896 305.877C357.736 306.359 357.769 306.91 357.765 307.428C357.752 308.998 357.765 310.569 357.765 312.14C356.77 312.6 355.701 312.703 354.632 312.806C354.623 310.902 354.615 308.998 354.607 307.095C354.607 306.897 354.574 306.688 354.623 306.507C355.252 304.249 354.924 301.943 354.989 299.66C355.03 298.283 354.993 296.901 355.002 295.524C355.002 294.739 355.01 293.97 355.24 293.189C355.417 292.576 355.38 291.893 355.38 291.24C355.392 286.445 355.388 281.655 355.388 276.861C356.371 277.099 357.189 276.437 358.114 276.367H358.11Z" fill="#EAA47A"/>
</svg>
