<svg width="500" height="500" viewBox="0 0 500 500" fill="none" xmlns="http://www.w3.org/2000/svg">
<path d="M158.432 376.34C160.31 376.245 162.122 375.736 163.956 375.38C176.887 372.87 189.819 370.347 202.742 367.788C212.984 365.756 223.216 363.697 233.44 361.592C238.518 360.547 243.574 359.389 248.431 357.524C249.224 357.222 249.94 357.253 250.733 357.492C259.452 360.078 268.383 361.633 277.358 362.971C284.198 363.989 291.07 364.755 297.954 365.35C303.479 365.828 309.012 366.229 314.558 366.405C319.312 366.553 324.061 366.743 328.815 366.729C335.015 366.711 341.201 366.472 347.37 365.873C350.808 365.539 354.232 365.044 357.589 364.197C358.702 363.917 359.806 363.57 360.887 363.174C362.248 362.674 363.505 361.971 364.528 360.916C364.591 358.326 365.195 355.802 365.555 353.252C366.411 347.223 367.452 341.222 368.335 335.197C368.606 333.359 369.065 331.534 368.975 329.651C367.781 329.114 366.529 328.876 365.222 328.745C360.356 328.263 355.494 327.713 350.628 327.195C347.406 326.852 344.184 326.528 340.967 326.19C335.957 325.663 330.951 325.122 325.945 324.595C322.723 324.257 319.501 323.933 316.284 323.595C311.274 323.068 306.268 322.527 301.257 322.004C297.963 321.657 294.67 321.346 291.38 320.986C284.086 320.188 276.755 319.679 269.518 318.427C264.044 317.476 258.519 317.088 252.995 316.678C245.101 316.097 237.198 315.601 229.299 315.079C223.915 314.723 218.526 314.376 213.137 314.033C208.325 313.731 203.508 313.475 198.7 313.137C194.104 312.812 189.517 312.402 184.926 312.046C180.334 311.69 175.738 311.357 171.147 311.019C168.777 310.843 166.411 310.676 164.041 310.51C163.843 312.943 163.645 315.376 163.451 317.809C163.199 321.026 162.933 324.248 162.717 327.47C162.509 330.552 162.365 333.634 162.18 336.716C162.153 337.144 162.045 337.567 161.991 337.991C161.59 341.411 160.905 344.79 160.883 348.26C160.869 350.337 160.612 352.414 160.423 354.487C160.054 358.488 159.644 362.485 159.274 366.486C158.972 369.77 158.706 373.064 158.422 376.349L158.432 376.34Z" fill="#696E66"/>
<path d="M158.432 376.339C158.716 373.05 158.982 369.761 159.283 366.476C159.653 362.475 160.063 358.478 160.432 354.477C160.622 352.404 160.883 350.327 160.892 348.25C160.915 344.781 161.599 341.401 162 337.981C162.05 337.553 162.163 337.134 162.19 336.706C162.374 333.624 162.519 330.538 162.726 327.46C162.942 324.239 163.208 321.021 163.46 317.8C163.65 315.367 163.852 312.933 164.051 310.5C164.249 308.36 164.443 306.22 164.645 304.079C164.686 303.651 164.794 303.228 164.812 302.8C164.902 300.286 165.317 297.807 165.605 295.316C165.83 293.392 165.952 291.459 166.15 289.53C166.38 287.322 166.65 285.114 166.894 282.907C166.943 282.479 166.979 282.046 167.002 281.618C167.137 278.964 167.448 276.333 167.75 273.692C168.016 271.34 168.128 268.975 168.322 266.614C168.484 264.685 168.642 262.752 168.849 260.828C169.061 258.904 169.322 256.989 169.579 255.07C170.066 251.447 170.332 247.797 170.751 244.165C171.111 241.034 171.589 237.916 171.868 234.766C172.175 231.274 172.296 227.746 172.977 224.29C173.004 224.151 173.004 224.006 173.013 223.862C173.184 221.069 173.328 218.271 173.526 215.481C173.63 214.053 173.716 212.607 174.004 211.21C174.401 209.286 174.324 207.348 174.468 205.415C174.306 200.878 173.707 196.404 172.643 191.988C171.607 187.685 170.133 183.585 167.439 180.003C165.15 176.961 162.185 174.911 158.495 173.983C156.967 173.6 155.399 173.302 153.831 173.172C152.043 173.018 150.195 172.838 148.447 173.127C145.135 173.667 142.116 175.028 139.67 177.421C138.953 178.124 138.313 178.912 137.705 179.714C136.488 181.323 135.407 183.008 134.574 184.86C131.92 190.731 130.937 196.953 130.739 203.311C130.577 208.484 130.577 213.661 130.982 218.843C131.302 222.925 131.113 227.034 131.437 231.13C131.73 234.852 131.604 238.601 131.843 242.341C132.185 247.648 131.956 252.979 132.298 258.3C132.519 261.743 132.393 265.208 132.42 268.664C132.42 273.917 132.42 279.167 132.429 284.421C132.429 285.137 132.388 285.885 132.582 286.556C132.83 287.412 132.839 288.255 132.843 289.116C132.852 290.625 132.816 292.139 132.857 293.648C132.929 296.154 132.568 298.682 133.258 301.151C133.312 301.353 133.28 301.579 133.276 301.795C133.267 303.881 133.258 305.967 133.249 308.054C133.663 308.779 133.614 309.581 133.641 310.37C133.695 312.24 133.618 314.127 133.83 315.984C134.272 319.85 134.078 323.747 134.51 327.613C134.506 342.528 134.51 357.437 134.479 372.352C134.474 374.938 134.258 377.529 134.186 380.115C134.168 380.715 133.812 381.003 133.438 381.327C133.762 381.499 134.087 381.697 134.096 382.107C134.114 382.9 134.191 383.706 134.064 384.481C133.569 387.487 133.641 390.515 133.726 393.534C133.857 398.062 134.227 402.568 135.421 406.975C136.182 409.786 137.304 412.418 138.953 414.81C140.125 416.509 141.706 417.433 143.874 417.41C151.15 417.333 158.436 417.545 165.704 417.248C171.539 417.009 177.365 417.113 183.196 416.959C184.219 416.932 185.196 416.739 186.183 416.54C188.035 416.166 189.153 414.698 188.909 412.733C188.716 411.151 188.634 409.57 188.67 407.997C188.711 406.276 188.026 405.073 185.863 404.465C183.025 403.663 180.195 402.838 177.356 402.05C171.602 400.459 165.848 398.887 160.09 397.31C159.189 397.062 158.279 396.845 157.373 396.62C156.868 396.494 156.607 396.125 156.729 395.665C157.265 393.624 156.986 391.511 157.369 389.447C157.679 387.766 157.643 386.018 157.842 384.297C158.153 381.656 158.252 378.993 158.441 376.339H158.432Z" fill="#FFB88B"/>
<path d="M133.429 381.336C133.803 381.012 134.159 380.724 134.177 380.124C134.249 377.533 134.465 374.947 134.47 372.361C134.506 357.446 134.497 342.537 134.501 327.622C134.069 323.761 134.263 319.863 133.821 315.993C133.609 314.141 133.686 312.253 133.632 310.379C133.609 309.59 133.654 308.788 133.24 308.063C132.068 307.954 130.897 307.837 129.806 307.337C126.184 306.868 122.557 306.395 118.934 305.936C116.23 305.593 113.527 305.278 110.823 304.949C108.192 304.629 105.561 304.309 102.929 303.985C99.73 303.588 96.5309 303.183 93.3317 302.795C90.484 302.453 87.6318 302.173 84.7887 301.799C81.7337 301.398 78.6878 300.907 75.5877 300.988C74.2 302.606 73.4475 304.557 72.7446 306.522C71.6497 309.572 70.8657 312.717 70.1628 315.876C69.8203 317.421 69.4418 318.953 68.9822 320.472C67.4773 325.478 66.8149 330.601 67.1799 335.827C67.5494 341.122 68.9101 346.177 71.1766 350.976C72.0057 352.729 72.8978 354.468 73.9296 356.108C76.8449 360.736 79.8593 365.305 83.3017 369.567C89.0241 376.65 96.211 381.611 104.966 384.197C111.738 386.198 118.497 385.977 125.093 383.49C127.815 382.463 130.586 381.809 133.425 381.341L133.429 381.336Z" fill="#696D65"/>
<path d="M132.411 268.672C132.384 265.216 132.51 261.751 132.29 258.309C131.947 252.987 132.177 247.657 131.834 242.349C131.596 238.609 131.722 234.865 131.429 231.139C131.105 227.043 131.294 222.934 130.974 218.851C130.568 213.67 130.568 208.497 130.731 203.32C130.929 196.962 131.911 190.739 134.565 184.868C135.403 183.016 136.48 181.327 137.697 179.723C138.305 178.921 138.94 178.128 139.661 177.429C142.108 175.037 145.131 173.676 148.438 173.135C150.187 172.847 152.034 173.032 153.823 173.18C155.391 173.311 156.959 173.608 158.486 173.991C162.172 174.919 165.142 176.97 167.431 180.011C170.125 183.589 171.598 187.694 172.635 191.997C173.698 196.412 174.297 200.887 174.46 205.424C174.901 203.901 175.059 202.328 175.108 200.765C175.185 198.327 175.199 195.894 174.883 193.452C174.635 191.528 174.415 189.613 173.968 187.721C173.315 184.967 172.337 182.368 170.738 180.016C170.585 179.79 170.54 179.488 170.445 179.218C169.616 178.42 168.791 177.618 167.958 176.83C167.435 176.334 166.926 175.821 166.358 175.384C163.501 173.185 160.501 171.247 157.153 169.837C153.539 168.314 149.777 167.399 145.897 167.093C142 166.786 138.152 167.282 134.425 168.553C133.479 168.877 132.537 169.274 131.506 169.26C130.888 169.63 130.289 170.026 129.654 170.364C125.851 172.378 122.616 175.109 119.786 178.321C114.474 184.346 110.725 191.253 108.183 198.859C107.228 201.72 106.039 204.509 104.926 207.316C101.055 217.085 97.4821 226.966 94.3775 237.005C92.9132 241.745 91.6425 246.544 90.3088 251.325C90.115 252.014 90.0474 252.735 89.9258 253.443C94.6344 255.186 99.3385 256.944 104.052 258.669C112 261.58 119.953 264.468 127.905 267.37C128.442 267.564 129 267.717 129.428 268.136C130.442 268.213 131.343 268.938 132.416 268.677L132.411 268.672Z" fill="#8B8BDF"/>
<path d="M210.609 111.185C210.776 110.455 210.578 109.77 210.411 109.063C208.825 102.282 205.094 96.8701 199.75 92.531C194.447 88.2234 188.355 85.6326 181.655 84.425C174.513 83.1409 167.484 83.6635 160.572 85.8173C159.491 86.1553 158.499 86.322 157.481 85.7543C157.558 86.5473 157.278 87.0835 156.544 87.5115C154.309 88.8047 152.2 90.2781 150.155 91.8777C147.465 93.9819 145.257 96.4961 143.202 99.1771C142.725 99.7989 142.251 100.434 141.823 101.092C140.413 103.268 139.291 105.593 138.345 108.009C137.561 110.014 136.831 112.023 136.299 114.118C135.768 116.223 136.092 118.412 135.52 120.503C135.452 120.747 135.646 121.053 135.691 121.332C135.759 121.756 135.858 122.184 135.844 122.607C135.786 124.937 136.304 127.154 137.079 129.335C137.628 130.889 138.079 132.466 137.597 134.138C138.552 134.241 139.205 134.773 139.543 135.638C139.999 136.805 140.787 137.738 141.549 138.693C143.117 140.667 144.68 142.645 146.244 144.623C147.127 144.569 147.902 144.168 148.704 143.852C153.052 142.131 157.391 140.392 161.744 138.68C165.222 137.31 168.714 135.967 172.202 134.611C172.67 134.426 173.143 134.25 173.598 134.043C175.383 133.232 176.635 131.957 177.352 130.092C178.794 126.352 180.902 123.022 183.863 120.287C187.972 116.493 192.906 114.465 198.399 113.799C201.909 113.375 205.36 112.74 208.721 111.636C209.334 111.437 209.974 111.329 210.6 111.176L210.609 111.185Z" fill="#824414"/>
<path d="M210.61 111.185C209.983 111.333 209.343 111.441 208.731 111.644C205.369 112.744 201.918 113.383 198.408 113.807C192.911 114.469 187.981 116.501 183.872 120.295C180.912 123.03 178.803 126.36 177.361 130.1C176.645 131.965 175.392 133.245 173.608 134.052C173.148 134.259 172.68 134.439 172.211 134.619C168.723 135.976 165.231 137.318 161.753 138.688C157.4 140.4 153.061 142.144 148.713 143.861C147.916 144.176 147.136 144.577 146.253 144.631C145.811 146.024 144.838 147.114 144.108 148.335C140.823 153.801 137.476 159.226 134.146 164.664C133.772 165.273 133.326 165.845 133.209 166.579C134.015 166.66 134.745 166.453 135.506 166.156C138.931 164.817 142.409 163.736 146.167 163.988C147.1 164.051 148.037 163.988 148.974 164.006C149.402 164.015 149.844 164.02 150.259 164.119C154.341 165.097 158.193 166.606 161.712 168.931C164.051 170.472 166.272 172.166 168.435 173.933C169.71 174.974 170.814 176.222 172.288 177.015C172.819 176.537 173.364 176.068 173.883 175.577C175.077 174.437 176.23 173.252 177.483 172.166C178.506 171.274 179.344 170.17 180.285 169.188C181.529 167.89 182.795 166.611 184.057 165.327C184.359 165.02 184.67 164.718 184.967 164.407C186.567 162.749 188.481 162.231 190.671 162.898C192.555 163.47 194.465 163.686 196.421 163.574C198.502 163.457 200.341 162.722 201.909 161.352C203.436 160.014 204.743 158.496 205.554 156.599C205.919 155.738 206.379 154.918 206.748 154.062C208.244 150.593 210.619 147.88 213.746 145.78C215.539 144.577 217.377 143.451 219.279 142.432C220.045 142.022 220.788 141.599 221.37 140.932C222.528 139.603 222.609 138.436 221.527 137.048C220.779 136.088 219.982 135.151 219.126 134.281C217.31 132.425 215.724 130.384 214.16 128.32C212.804 126.531 211.804 124.535 210.921 122.485C210.465 121.426 210.186 120.309 210.213 119.133C210.258 117.051 210.078 114.965 210.574 112.901C210.704 112.356 210.61 111.761 210.619 111.185H210.61Z" fill="#FFB88B"/>
<path d="M368.98 329.645C369.07 331.528 368.611 333.353 368.341 335.191C367.457 341.216 366.417 347.217 365.56 353.246C365.2 355.797 364.596 358.32 364.533 360.911C367.061 362.578 369.751 363.952 372.432 365.353C376.537 367.498 380.826 367.692 385.228 366.71C386.494 366.426 387.662 365.8 388.68 364.975C392.28 362.06 396.236 359.726 400.399 357.721C404.874 355.567 409.348 353.417 413.836 351.286C416.841 349.862 419.657 348.132 422.32 346.154C425.695 343.649 428.656 340.725 430.827 337.088C432.783 333.808 433.625 330.271 432.485 326.54C430.963 321.539 427.66 318.209 422.465 317.186C419.775 316.654 417.021 316.983 414.35 317.754C405.378 320.354 396.398 322.936 387.427 325.535C384.665 326.333 381.903 327.135 379.159 327.987C375.843 329.014 372.454 329.568 368.989 329.64L368.98 329.645Z" fill="#FFB88B"/>
<path d="M129.424 268.131C129 267.712 128.441 267.559 127.901 267.365C119.948 264.463 111.995 261.575 104.047 258.664C99.3338 256.939 94.6297 255.181 89.9211 253.438C89.7229 253.816 89.457 254.176 89.3354 254.577C87.7854 259.728 86.2669 264.891 84.7169 270.041C83.5589 273.889 82.3604 277.724 81.1979 281.567C79.4316 287.402 77.6788 293.242 75.935 299.086C75.7503 299.699 75.6963 300.352 75.5791 300.987C78.6746 300.906 81.7205 301.398 84.78 301.799C87.6231 302.173 90.4753 302.452 93.323 302.794C96.5222 303.177 99.7213 303.587 102.92 303.984C105.552 304.308 108.183 304.628 110.815 304.948C113.518 305.277 116.222 305.592 118.925 305.935C122.552 306.394 126.175 306.868 129.798 307.332C129.798 305.61 129.811 303.889 129.798 302.168C129.793 301.6 129.829 300.992 129.654 300.469C129.37 299.622 129.383 298.78 129.383 297.919C129.379 292.399 129.379 286.88 129.37 281.356C129.37 280.711 129.464 280.022 129.266 279.436C128.91 278.377 128.955 277.318 128.955 276.246C128.96 273.533 128.802 270.807 129.419 268.131H129.424Z" fill="#FFB88B"/>
<path d="M151.042 81.8292C144.667 77.3459 136.313 77.5306 130.108 81.5498C129.572 81.8968 129.099 82.3654 128.667 82.8385C127.4 84.2218 126.206 85.6636 125.238 87.2767C123.944 89.4395 122.629 91.5933 121.394 93.7877C120.114 96.0541 119.222 98.4962 118.528 100.997C116.951 106.683 115.455 112.397 113.856 118.079C111.08 127.928 108.954 137.931 106.926 147.952C106.525 149.93 106.065 151.89 105.664 153.868C105.29 155.729 106.187 156.775 108.066 156.761C108.814 156.757 109.472 156.5 110.121 156.184C113.239 154.666 116.185 152.873 118.957 150.791C122.016 148.493 124.859 145.947 127.644 143.334C129.378 141.707 131.091 140.058 132.83 138.44C133.618 137.706 134.443 137.012 135.25 136.3C134.195 136.471 133.452 136.043 132.902 135.156C131.996 133.691 131.037 132.267 130.221 130.74C128.793 128.063 127.86 125.243 127.13 122.301C126.657 120.39 127.103 118.417 126.418 116.556C126.315 116.267 126.531 115.866 126.589 115.515C126.657 115.091 126.797 114.659 126.765 114.244C126.657 112.789 126.954 111.383 127.238 109.982C127.743 107.517 128.455 105.102 129.5 102.813C131.023 99.474 132.731 96.2253 135.087 93.3866C136.741 91.3951 138.557 89.5432 140.584 87.9211C143.225 85.8078 146.181 84.1677 148.988 82.3023C149.655 81.8607 150.331 81.8652 151.038 81.8292H151.042Z" fill="#834515"/>
<path d="M151.043 81.8281C150.335 81.8687 149.659 81.8597 148.992 82.3012C146.185 84.1667 143.225 85.8068 140.589 87.92C138.561 89.5421 136.746 91.394 135.092 93.3856C132.735 96.2243 131.023 99.4729 129.505 102.812C128.459 105.101 127.747 107.516 127.243 109.981C126.954 111.382 126.662 112.788 126.77 114.243C126.801 114.662 126.662 115.09 126.594 115.514C126.535 115.865 126.319 116.271 126.423 116.555C127.108 118.415 126.662 120.389 127.135 122.299C127.865 125.242 128.797 128.058 130.226 130.739C131.041 132.266 132.001 133.69 132.907 135.155C133.456 136.042 134.2 136.475 135.254 136.299C136.322 135.885 136.84 134.875 137.611 134.141C138.093 132.469 137.642 130.892 137.093 129.338C136.322 127.157 135.804 124.94 135.858 122.61C135.867 122.187 135.772 121.759 135.705 121.335C135.66 121.056 135.466 120.749 135.534 120.506C136.106 118.415 135.781 116.226 136.313 114.121C136.845 112.026 137.575 110.017 138.359 108.011C139.305 105.596 140.422 103.271 141.837 101.095C142.265 100.437 142.738 99.8019 143.216 99.1801C145.275 96.4991 147.478 93.9894 150.168 91.8806C152.214 90.2811 154.318 88.8077 156.558 87.5145C157.297 87.0864 157.572 86.5502 157.495 85.7572C155.436 84.3018 153.282 83.0041 151.052 81.8281H151.043Z" fill="#62350E"/>
<path d="M172.279 177.019C170.805 176.226 169.701 174.978 168.426 173.937C166.264 172.171 164.042 170.477 161.704 168.936C158.185 166.611 154.332 165.101 150.25 164.123C149.835 164.024 149.394 164.015 148.966 164.011C148.028 163.993 147.091 164.056 146.159 163.993C142.405 163.74 138.922 164.822 135.498 166.16C134.741 166.458 134.011 166.665 133.2 166.584C132.407 167.332 131.807 168.206 131.501 169.265C132.533 169.278 133.475 168.882 134.421 168.557C138.147 167.287 141.991 166.791 145.893 167.097C149.772 167.404 153.53 168.314 157.148 169.841C160.496 171.252 163.497 173.194 166.354 175.388C166.921 175.825 167.431 176.343 167.953 176.834C168.787 177.623 169.611 178.425 170.44 179.223C171.193 178.605 171.927 177.974 172.274 177.019H172.279Z" fill="#E6A47F"/>
<path d="M129.423 268.132C128.806 270.813 128.968 273.534 128.959 276.247C128.959 277.315 128.91 278.378 129.27 279.437C129.468 280.023 129.374 280.712 129.374 281.356C129.383 286.876 129.383 292.396 129.387 297.92C129.387 298.776 129.374 299.623 129.658 300.47C129.833 300.997 129.797 301.601 129.802 302.169C129.815 303.89 129.802 305.611 129.802 307.333C130.892 307.837 132.064 307.95 133.235 308.062C133.244 305.976 133.253 303.89 133.262 301.804C133.262 301.588 133.298 301.358 133.244 301.16C132.555 298.686 132.915 296.158 132.843 293.657C132.798 292.148 132.839 290.634 132.83 289.124C132.83 288.264 132.821 287.421 132.568 286.565C132.375 285.894 132.415 285.146 132.415 284.429C132.402 279.176 132.406 273.926 132.406 268.673C131.329 268.934 130.432 268.208 129.419 268.132H129.423Z" fill="#EAA47A"/>
</svg>
