<svg width="500" height="500" viewBox="0 0 500 500" fill="none" xmlns="http://www.w3.org/2000/svg">
<path d="M164.443 375.112C166.158 375.026 167.811 374.561 169.484 374.236C181.285 371.946 193.086 369.644 204.878 367.308C214.224 365.454 223.562 363.575 232.892 361.654C237.526 360.7 242.139 359.644 246.572 357.941C247.295 357.666 247.949 357.695 248.673 357.913C256.629 360.273 264.779 361.691 272.969 362.913C279.211 363.842 285.482 364.541 291.764 365.084C296.806 365.519 301.855 365.885 306.916 366.046C311.254 366.181 315.588 366.354 319.926 366.342C325.584 366.325 331.229 366.107 336.858 365.561C339.996 365.256 343.121 364.804 346.184 364.031C347.2 363.776 348.207 363.459 349.194 363.098C350.436 362.641 351.583 362 352.516 361.038C352.574 358.673 353.125 356.371 353.454 354.043C354.235 348.542 355.185 343.065 355.991 337.568C356.237 335.89 356.657 334.225 356.574 332.506C355.485 332.017 354.342 331.799 353.149 331.679C348.709 331.24 344.272 330.738 339.831 330.265C336.891 329.953 333.951 329.656 331.016 329.348C326.443 328.867 321.875 328.374 317.307 327.893C314.367 327.584 311.427 327.288 308.491 326.98C303.919 326.499 299.351 326.005 294.778 325.528C291.773 325.212 288.767 324.928 285.765 324.599C279.108 323.871 272.418 323.407 265.815 322.263C260.819 321.396 255.778 321.042 250.737 320.668C243.533 320.138 236.321 319.685 229.113 319.208C224.2 318.884 219.282 318.567 214.364 318.254C209.973 317.979 205.577 317.745 201.19 317.436C196.996 317.14 192.81 316.766 188.62 316.441C184.43 316.116 180.236 315.812 176.046 315.504C173.884 315.343 171.725 315.191 169.562 315.039C169.381 317.259 169.2 319.48 169.023 321.7C168.793 324.636 168.551 327.576 168.353 330.516C168.164 333.328 168.033 336.141 167.864 338.953C167.839 339.344 167.741 339.73 167.691 340.117C167.325 343.238 166.7 346.322 166.68 349.488C166.667 351.383 166.433 353.279 166.26 355.17C165.923 358.821 165.549 362.469 165.212 366.12C164.936 369.117 164.694 372.123 164.435 375.12L164.443 375.112Z" fill="#696E66"/>
<path d="M164.443 375.112C164.702 372.111 164.944 369.109 165.22 366.112C165.557 362.46 165.931 358.813 166.268 355.162C166.441 353.271 166.68 351.375 166.688 349.48C166.708 346.314 167.333 343.23 167.699 340.109C167.745 339.718 167.847 339.336 167.872 338.945C168.041 336.133 168.172 333.316 168.361 330.508C168.559 327.568 168.801 324.632 169.032 321.692C169.204 319.472 169.389 317.251 169.57 315.031C169.751 313.078 169.928 311.125 170.113 309.172C170.15 308.781 170.249 308.395 170.265 308.004C170.347 305.71 170.726 303.448 170.989 301.174C171.194 299.419 171.305 297.655 171.486 295.895C171.696 293.88 171.943 291.865 172.165 289.85C172.21 289.46 172.243 289.065 172.263 288.674C172.387 286.253 172.671 283.851 172.946 281.442C173.189 279.295 173.291 277.137 173.468 274.982C173.616 273.222 173.76 271.458 173.949 269.703C174.143 267.947 174.381 266.199 174.615 264.448C175.059 261.142 175.302 257.811 175.684 254.497C176.013 251.64 176.449 248.794 176.704 245.92C176.984 242.733 177.095 239.514 177.716 236.36C177.74 236.233 177.74 236.101 177.749 235.97C177.905 233.42 178.036 230.867 178.217 228.322C178.312 227.018 178.39 225.698 178.653 224.424C179.015 222.668 178.945 220.9 179.077 219.136C178.929 214.995 178.382 210.912 177.411 206.883C176.466 202.956 175.121 199.214 172.662 195.945C170.573 193.17 167.868 191.299 164.5 190.452C163.106 190.103 161.676 189.831 160.245 189.712C158.612 189.572 156.926 189.408 155.331 189.671C152.309 190.164 149.554 191.406 147.321 193.589C146.668 194.231 146.084 194.95 145.529 195.682C144.418 197.15 143.432 198.688 142.671 200.378C140.249 205.736 139.353 211.414 139.172 217.216C139.024 221.936 139.024 226.66 139.394 231.389C139.686 235.114 139.513 238.864 139.809 242.602C140.076 245.998 139.961 249.419 140.179 252.832C140.492 257.676 140.282 262.54 140.594 267.396C140.796 270.537 140.681 273.699 140.705 276.853C140.705 281.647 140.705 286.438 140.714 291.232C140.714 291.886 140.677 292.568 140.854 293.181C141.08 293.962 141.088 294.731 141.092 295.516C141.1 296.894 141.067 298.275 141.104 299.653C141.17 301.939 140.841 304.246 141.47 306.499C141.52 306.684 141.491 306.89 141.487 307.087C141.478 308.991 141.47 310.895 141.462 312.798C141.84 313.46 141.795 314.192 141.82 314.912C141.869 316.618 141.799 318.341 141.992 320.035C142.395 323.563 142.219 327.12 142.613 330.648C142.609 344.258 142.613 357.864 142.585 371.474C142.58 373.834 142.383 376.198 142.317 378.558C142.301 379.105 141.976 379.368 141.635 379.664C141.931 379.82 142.227 380.001 142.235 380.376C142.252 381.099 142.321 381.835 142.206 382.542C141.754 385.285 141.82 388.048 141.898 390.803C142.017 394.935 142.354 399.047 143.444 403.069C144.139 405.634 145.163 408.036 146.668 410.219C147.737 411.769 149.18 412.612 151.158 412.591C157.798 412.522 164.447 412.715 171.079 412.443C176.404 412.225 181.721 412.32 187.041 412.18C187.975 412.156 188.867 411.979 189.767 411.798C191.457 411.457 192.477 410.116 192.255 408.323C192.078 406.88 192.004 405.437 192.037 404.002C192.074 402.431 191.449 401.333 189.475 400.778C186.885 400.046 184.303 399.294 181.712 398.574C176.462 397.123 171.211 395.688 165.956 394.249C165.134 394.023 164.303 393.825 163.477 393.62C163.016 393.505 162.778 393.167 162.889 392.748C163.378 390.885 163.123 388.957 163.472 387.074C163.756 385.54 163.723 383.945 163.904 382.374C164.188 379.964 164.278 377.534 164.451 375.112H164.443Z" fill="#FFB88B"/>
<path d="M141.627 379.673C141.968 379.377 142.293 379.114 142.309 378.567C142.375 376.203 142.573 373.843 142.577 371.483C142.61 357.873 142.601 344.267 142.605 330.657C142.211 327.133 142.388 323.576 141.985 320.044C141.791 318.354 141.861 316.631 141.812 314.921C141.791 314.201 141.832 313.469 141.454 312.807C140.385 312.709 139.316 312.602 138.321 312.145C135.015 311.718 131.705 311.286 128.399 310.867C125.932 310.554 123.465 310.266 120.998 309.966C118.597 309.674 116.195 309.382 113.794 309.086C110.875 308.724 107.955 308.354 105.036 308.001C102.437 307.688 99.8346 307.433 97.2401 307.092C94.4523 306.726 91.6727 306.278 88.8438 306.352C87.5774 307.828 86.8908 309.608 86.2493 311.401C85.2501 314.185 84.5347 317.055 83.8933 319.937C83.5808 321.348 83.2354 322.746 82.816 324.131C81.4426 328.699 80.8382 333.375 81.1713 338.144C81.5084 342.976 82.7502 347.589 84.8184 351.968C85.575 353.568 86.3891 355.155 87.3307 356.651C89.991 360.874 92.7418 365.044 95.8832 368.933C101.105 375.397 107.664 379.924 115.653 382.284C121.833 384.11 128 383.908 134.02 381.639C136.504 380.701 139.032 380.105 141.623 379.677L141.627 379.673Z" fill="#696D65"/>
<path d="M140.698 276.86C140.673 273.707 140.788 270.545 140.587 267.403C140.274 262.547 140.484 257.683 140.172 252.839C139.954 249.427 140.069 246.01 139.802 242.609C139.506 238.872 139.678 235.122 139.386 231.396C139.016 226.668 139.016 221.947 139.164 217.223C139.345 211.421 140.242 205.743 142.663 200.385C143.428 198.695 144.411 197.153 145.521 195.69C146.076 194.958 146.656 194.234 147.314 193.597C149.547 191.413 152.306 190.172 155.324 189.678C156.919 189.415 158.605 189.584 160.237 189.719C161.668 189.839 163.099 190.11 164.493 190.459C167.856 191.306 170.566 193.177 172.655 195.953C175.114 199.218 176.458 202.963 177.404 206.89C178.374 210.92 178.921 215.003 179.069 219.143C179.472 217.753 179.616 216.318 179.661 214.892C179.731 212.667 179.744 210.447 179.456 208.218C179.23 206.462 179.028 204.715 178.621 202.988C178.025 200.476 177.133 198.103 175.673 195.957C175.533 195.751 175.492 195.476 175.406 195.229C174.649 194.501 173.897 193.769 173.136 193.05C172.659 192.598 172.194 192.129 171.676 191.73C169.069 189.723 166.331 187.955 163.276 186.668C159.978 185.279 156.545 184.444 153.005 184.164C149.448 183.885 145.936 184.337 142.536 185.496C141.672 185.793 140.813 186.154 139.872 186.142C139.308 186.479 138.761 186.841 138.182 187.149C134.711 188.987 131.759 191.479 129.177 194.411C124.329 199.908 120.908 206.212 118.589 213.152C117.717 215.763 116.632 218.309 115.616 220.87C112.084 229.785 108.823 238.802 105.99 247.963C104.654 252.288 103.495 256.667 102.277 261.03C102.101 261.659 102.039 262.317 101.928 262.963C106.225 264.554 110.517 266.157 114.818 267.732C122.072 270.388 129.329 273.024 136.586 275.672C137.076 275.849 137.585 275.989 137.976 276.371C138.901 276.441 139.723 277.103 140.702 276.865L140.698 276.86Z" fill="#8B8BDF"/>
<path d="M212.058 133.146C212.21 132.48 212.029 131.855 211.877 131.209C210.429 125.021 207.025 120.083 202.148 116.123C197.309 112.192 191.75 109.828 185.635 108.726C179.118 107.554 172.704 108.031 166.396 109.996C165.409 110.305 164.505 110.457 163.576 109.939C163.646 110.662 163.391 111.152 162.72 111.542C160.681 112.722 158.757 114.067 156.89 115.527C154.435 117.447 152.42 119.741 150.545 122.188C150.11 122.755 149.678 123.335 149.287 123.935C148 125.921 146.976 128.043 146.113 130.247C145.397 132.077 144.731 133.91 144.246 135.822C143.761 137.743 144.057 139.741 143.535 141.649C143.473 141.871 143.65 142.151 143.691 142.405C143.753 142.792 143.843 143.183 143.831 143.569C143.777 145.695 144.25 147.718 144.957 149.708C145.459 151.127 145.87 152.566 145.43 154.091C146.302 154.186 146.898 154.671 147.207 155.46C147.622 156.525 148.341 157.376 149.036 158.248C150.467 160.049 151.894 161.854 153.321 163.659C154.127 163.61 154.834 163.244 155.566 162.956C159.534 161.385 163.493 159.798 167.465 158.236C170.64 156.986 173.826 155.761 177.009 154.523C177.436 154.354 177.868 154.194 178.283 154.005C179.912 153.265 181.055 152.101 181.709 150.399C183.024 146.986 184.949 143.947 187.65 141.452C191.4 137.989 195.903 136.139 200.915 135.531C204.118 135.144 207.267 134.564 210.335 133.557C210.894 133.376 211.478 133.277 212.049 133.137L212.058 133.146Z" fill="#824414"/>
<path d="M212.057 133.146C211.486 133.282 210.902 133.381 210.343 133.566C207.275 134.569 204.126 135.153 200.923 135.54C195.906 136.144 191.408 137.998 187.658 141.461C184.957 143.956 183.032 146.995 181.717 150.408C181.063 152.11 179.92 153.278 178.291 154.014C177.872 154.203 177.444 154.367 177.017 154.532C173.834 155.77 170.648 156.995 167.473 158.245C163.501 159.807 159.542 161.399 155.574 162.965C154.846 163.253 154.135 163.619 153.329 163.668C152.926 164.939 152.038 165.934 151.372 167.048C148.374 172.036 145.319 176.986 142.28 181.949C141.939 182.504 141.532 183.027 141.425 183.697C142.161 183.771 142.827 183.582 143.522 183.31C146.647 182.089 149.821 181.102 153.251 181.333C154.102 181.39 154.957 181.333 155.812 181.349C156.203 181.357 156.606 181.361 156.984 181.452C160.709 182.344 164.225 183.721 167.436 185.843C169.57 187.249 171.597 188.795 173.571 190.407C174.735 191.357 175.742 192.496 177.087 193.22C177.572 192.784 178.069 192.356 178.542 191.908C179.632 190.868 180.684 189.786 181.828 188.795C182.761 187.981 183.526 186.974 184.385 186.078C185.52 184.893 186.675 183.726 187.827 182.554C188.102 182.274 188.386 181.999 188.657 181.715C190.117 180.202 191.864 179.729 193.863 180.337C195.581 180.86 197.325 181.057 199.109 180.954C201.009 180.847 202.687 180.177 204.118 178.927C205.511 177.706 206.704 176.32 207.444 174.589C207.777 173.804 208.196 173.055 208.534 172.274C209.899 169.108 212.066 166.633 214.919 164.717C216.556 163.619 218.233 162.591 219.968 161.662C220.667 161.288 221.346 160.901 221.876 160.293C222.933 159.08 223.007 158.015 222.02 156.748C221.338 155.872 220.61 155.017 219.829 154.223C218.172 152.529 216.724 150.667 215.297 148.784C214.06 147.151 213.147 145.33 212.341 143.459C211.926 142.493 211.671 141.473 211.696 140.4C211.737 138.5 211.572 136.596 212.024 134.713C212.144 134.216 212.057 133.673 212.066 133.146H212.057Z" fill="#FFB88B"/>
<path d="M356.579 332.501C356.661 334.22 356.242 335.885 355.995 337.563C355.189 343.06 354.239 348.537 353.458 354.039C353.129 356.366 352.578 358.669 352.521 361.033C354.827 362.554 357.282 363.808 359.729 365.087C363.474 367.044 367.389 367.221 371.406 366.325C372.561 366.066 373.626 365.494 374.556 364.742C377.841 362.081 381.451 359.952 385.25 358.122C389.333 356.156 393.416 354.195 397.512 352.25C400.254 350.951 402.824 349.372 405.254 347.567C408.334 345.281 411.035 342.612 413.017 339.294C414.802 336.301 415.571 333.073 414.53 329.668C413.141 325.104 410.127 322.065 405.386 321.132C402.931 320.647 400.419 320.947 397.981 321.65C389.794 324.023 381.599 326.379 373.413 328.751C370.892 329.479 368.372 330.211 365.867 330.988C362.841 331.926 359.749 332.431 356.587 332.497L356.579 332.501Z" fill="#FFB88B"/>
<path d="M137.972 276.368C137.585 275.985 137.075 275.845 136.582 275.669C129.325 273.021 122.067 270.385 114.814 267.729C110.513 266.154 106.22 264.55 101.924 262.959C101.743 263.304 101.5 263.633 101.389 263.999C99.9746 268.699 98.5889 273.411 97.1744 278.111C96.1177 281.622 95.024 285.122 93.9631 288.629C92.3513 293.954 90.7518 299.283 89.1605 304.616C88.992 305.175 88.9427 305.771 88.8358 306.351C91.6606 306.277 94.4401 306.725 97.232 307.091C99.8265 307.432 102.429 307.687 105.028 307.999C107.947 308.349 110.867 308.723 113.786 309.085C116.187 309.381 118.589 309.673 120.99 309.965C123.457 310.265 125.924 310.553 128.391 310.865C131.701 311.285 135.007 311.717 138.313 312.14C138.313 310.569 138.325 308.999 138.313 307.428C138.309 306.91 138.342 306.355 138.181 305.878C137.922 305.105 137.935 304.336 137.935 303.551C137.93 298.514 137.93 293.477 137.922 288.436C137.922 287.848 138.009 287.219 137.828 286.684C137.503 285.718 137.544 284.751 137.544 283.773C137.548 281.298 137.404 278.81 137.967 276.368H137.972Z" fill="#FFB88B"/>
<path d="M157.7 106.357C151.882 102.266 144.259 102.435 138.597 106.103C138.108 106.419 137.676 106.847 137.281 107.279C136.126 108.541 135.036 109.857 134.152 111.329C132.972 113.302 131.771 115.268 130.645 117.27C129.477 119.338 128.663 121.567 128.03 123.849C126.59 129.038 125.225 134.252 123.766 139.437C121.233 148.425 119.292 157.553 117.442 166.698C117.076 168.503 116.656 170.292 116.29 172.097C115.949 173.795 116.767 174.749 118.482 174.736C119.165 174.732 119.765 174.498 120.357 174.21C123.202 172.825 125.891 171.188 128.42 169.288C131.212 167.191 133.807 164.868 136.348 162.483C137.931 160.999 139.493 159.494 141.08 158.018C141.8 157.348 142.552 156.715 143.288 156.065C142.326 156.221 141.648 155.83 141.146 155.02C140.32 153.684 139.444 152.385 138.7 150.991C137.396 148.549 136.545 145.975 135.879 143.29C135.447 141.546 135.854 139.745 135.229 138.047C135.135 137.784 135.332 137.418 135.386 137.097C135.447 136.711 135.575 136.316 135.546 135.938C135.447 134.61 135.719 133.327 135.978 132.048C136.438 129.799 137.088 127.595 138.042 125.506C139.432 122.459 140.99 119.495 143.14 116.904C144.649 115.087 146.306 113.397 148.157 111.917C150.566 109.988 153.264 108.491 155.825 106.789C156.434 106.386 157.051 106.39 157.696 106.357H157.7Z" fill="#834515"/>
<path d="M157.7 106.357C157.055 106.394 156.438 106.386 155.829 106.789C153.268 108.491 150.566 109.988 148.161 111.917C146.311 113.397 144.654 115.087 143.145 116.904C140.994 119.495 139.432 122.459 138.046 125.506C137.092 127.595 136.442 129.799 135.982 132.048C135.719 133.327 135.451 134.61 135.55 135.938C135.579 136.32 135.451 136.711 135.39 137.097C135.336 137.418 135.139 137.788 135.233 138.047C135.858 139.745 135.451 141.546 135.883 143.289C136.549 145.974 137.4 148.544 138.704 150.991C139.448 152.385 140.324 153.684 141.15 155.02C141.652 155.83 142.33 156.225 143.293 156.065C144.267 155.687 144.74 154.765 145.443 154.095C145.883 152.57 145.472 151.131 144.97 149.712C144.267 147.722 143.794 145.699 143.844 143.573C143.852 143.187 143.765 142.796 143.704 142.41C143.663 142.155 143.486 141.875 143.547 141.653C144.07 139.745 143.774 137.747 144.259 135.827C144.744 133.915 145.41 132.081 146.126 130.251C146.989 128.047 148.009 125.925 149.3 123.939C149.69 123.339 150.122 122.759 150.558 122.192C152.437 119.745 154.448 117.455 156.903 115.531C158.769 114.071 160.69 112.727 162.733 111.547C163.407 111.156 163.658 110.667 163.588 109.943C161.709 108.615 159.744 107.431 157.708 106.357H157.7Z" fill="#62350E"/>
<path d="M177.079 193.223C175.735 192.5 174.727 191.361 173.564 190.411C171.59 188.799 169.563 187.253 167.429 185.847C164.217 183.725 160.702 182.348 156.977 181.456C156.598 181.365 156.195 181.357 155.805 181.353C154.949 181.336 154.094 181.394 153.243 181.336C149.818 181.106 146.64 182.093 143.515 183.314C142.824 183.585 142.158 183.775 141.418 183.701C140.694 184.383 140.147 185.181 139.867 186.147C140.809 186.159 141.668 185.798 142.532 185.502C145.932 184.342 149.44 183.89 153 184.169C156.541 184.449 159.97 185.279 163.272 186.673C166.327 187.96 169.065 189.733 171.672 191.735C172.19 192.134 172.655 192.607 173.132 193.055C173.892 193.774 174.645 194.506 175.402 195.234C176.088 194.671 176.758 194.095 177.075 193.223H177.079Z" fill="#E6A47F"/>
<path d="M137.971 276.367C137.408 278.814 137.556 281.297 137.548 283.773C137.548 284.747 137.503 285.717 137.832 286.684C138.012 287.218 137.926 287.847 137.926 288.435C137.934 293.472 137.934 298.509 137.938 303.55C137.938 304.331 137.926 305.104 138.185 305.877C138.346 306.359 138.313 306.91 138.317 307.428C138.329 308.998 138.317 310.569 138.317 312.14C139.312 312.6 140.381 312.703 141.45 312.806C141.458 310.902 141.466 308.998 141.475 307.095C141.475 306.897 141.507 306.688 141.458 306.507C140.829 304.249 141.158 301.943 141.092 299.66C141.051 298.283 141.088 296.901 141.08 295.524C141.08 294.739 141.072 293.97 140.841 293.189C140.665 292.576 140.702 291.893 140.702 291.24C140.689 286.445 140.693 281.655 140.693 276.861C139.711 277.099 138.892 276.437 137.967 276.367H137.971Z" fill="#EAA47A"/>
</svg>
