<svg width="500" height="500" viewBox="0 0 500 500" fill="none" xmlns="http://www.w3.org/2000/svg">
<path d="M338.611 256.511C340.798 257.075 342.774 257.851 344.784 259.051C360.272 268.47 375.865 277.713 391.74 286.497C392.163 286.744 392.622 286.85 393.08 287.026C394.668 281.1 399.289 278.63 404.546 276.901C403.664 275.455 402.288 274.538 401.089 273.409C394.844 267.482 388.283 261.943 382.25 255.805C381.791 255.558 381.439 255.135 381.227 254.641C380.239 253.547 379.216 252.454 378.228 251.36C377.417 251.219 376.994 250.548 376.429 250.055C371.561 245.821 367.116 241.094 362 237.143C359.354 235.132 356.744 232.98 354.733 230.263C352.581 229.381 351.24 227.441 349.547 225.995C344.044 221.267 338.681 216.399 333.319 211.495C325.417 204.228 317.444 197.031 309.259 190.081C309.259 190.081 309.33 190.117 309.294 190.117C309.153 190.046 308.977 189.94 308.836 189.87C305.026 188.564 301.71 186.13 297.617 185.495C292.184 184.649 286.928 184.895 281.954 187.4C281.354 187.718 280.789 187.718 280.154 187.612C270.347 186.024 261.598 188.494 253.837 194.597C252.92 195.338 251.967 195.55 250.803 195.479C237.82 194.809 224.803 194.703 211.785 194.879C204.976 194.985 198.626 194.103 192.382 191.422C181.163 186.624 169.38 183.414 157.315 181.685C145.991 180.062 134.561 179.957 123.131 180.909C120.591 181.121 118.05 181.015 115.51 181.05C115.722 184.613 114.911 188.071 114.17 191.528C113.641 194.103 113.605 196.82 112.159 199.148C143.38 207.721 174.672 216.011 205.752 225.007C213.831 227.335 221.91 229.487 230.2 230.44C240.043 231.569 249.921 232.31 259.799 233.05C266.784 233.58 273.804 233.862 280.825 234.215C281.495 234.25 282.201 234.179 282.871 234.179C281.142 229.452 280.049 224.619 280.366 219.539C280.472 218.128 280.19 216.187 281.954 215.976C283.718 215.764 283.647 217.775 284.035 219.01C285.446 223.455 286.963 227.829 290.279 231.357C291.02 232.133 292.255 233.015 291.796 234.497C295.853 236.86 299.91 239.259 303.967 241.623C308.412 243.599 312.893 245.539 317.338 247.55C324.393 250.725 331.696 253.159 338.611 256.511Z" fill="#696D66"/>
<path d="M338.611 256.51C331.696 253.159 324.358 250.725 317.338 247.585C312.893 245.609 308.412 243.634 303.967 241.658C303.227 249.278 303.65 256.934 303.403 264.554C303.015 276.372 302.098 288.155 302.098 300.009C302.098 304.242 303.862 307.558 306.402 310.627C307.072 311.474 307.954 311.968 309.083 312.003C316.632 312.18 324.182 312.956 331.731 312.885C333.848 312.85 335.824 312.391 337.623 311.262C340.198 309.675 341.01 306.288 339.457 303.678C337.976 301.208 335.683 299.691 333.213 298.456C329.403 296.587 325.522 294.858 321.642 293.059C320.337 293.059 319.772 292.388 319.948 291.118C320.09 290.095 320.16 289.108 320.372 288.084C321.007 284.909 321.113 281.664 321.995 278.524C322.594 273.409 323.229 268.329 323.829 263.213C324.005 261.732 324.288 260.215 324.323 258.733C324.358 257.357 324.993 257.145 326.228 257.004C330.391 256.616 334.518 256.757 338.611 256.51Z" fill="#F7BB92"/>
<path d="M378.229 251.36C379.217 252.453 380.24 253.547 381.228 254.64C382.215 254.041 383.238 253.512 384.156 252.841C388.107 249.913 391.74 246.773 392.905 241.552C393.469 239.047 393.54 236.507 393.646 234.003C392.587 232.874 392.023 231.463 391.317 230.157C386.766 221.655 379.358 216.328 371.032 212.024C364.788 208.779 358.12 206.627 351.311 204.863C340.269 201.97 329.933 197.101 319.173 193.327C315.892 192.162 312.717 190.54 309.224 190.081C317.409 197.031 325.382 204.228 333.284 211.495C338.611 216.399 344.009 221.302 349.512 225.994C351.206 227.441 352.511 229.381 354.698 230.263C360.272 229.381 365.917 229.275 371.561 229.487C376.112 229.663 380.557 230.334 384.755 232.274C390.964 235.132 390.753 241.658 387.613 245.503C385.143 248.573 382.145 250.654 378.229 251.36Z" fill="#8A8AD9"/>
<path d="M403.699 230.123C403.346 230.828 402.994 231.569 402.641 232.275C403.311 233.368 404.758 233.545 405.498 234.603C405.816 234.673 406.169 234.744 406.486 234.85C406.945 234.744 407.368 234.779 407.545 235.344C409.097 235.943 410.578 236.79 412.272 236.896C412.872 236.861 413.542 236.649 413.754 237.531C414.565 237.848 415.341 238.342 416.258 238.378C417.669 237.778 418.551 238.766 419.539 239.471C420.386 239.824 421.197 240.283 422.15 240.212C422.679 240.106 423.102 240.142 423.243 240.777C424.655 241.517 426.418 241.517 427.442 242.964C429.523 243.916 430.017 246.174 431.287 247.797C432.028 248.785 432.063 249.843 431.816 250.901C431.499 252.277 431.075 253.653 431.04 255.1C431.04 255.77 430.758 256.44 429.946 256.652C429.77 256.793 429.629 256.969 429.452 257.11C429.382 257.71 428.994 257.887 428.465 257.816C428.359 257.781 428.253 257.851 428.218 257.922C428.006 259.157 427.053 259.368 426.03 259.474C425.889 259.474 425.819 259.509 425.748 259.651C425.642 260.321 425.184 260.956 425.36 261.661C425.889 261.591 426.454 261.556 426.983 261.485C427.406 260.391 428.006 260.603 428.676 261.238C428.958 261.203 429.205 261.132 429.488 261.097C430.828 259.651 432.627 259.439 434.462 259.509C434.744 259.404 435.026 259.262 435.309 259.157C435.414 257.604 436.543 257.851 437.531 257.922C438.731 257.463 439.789 256.828 440.706 255.946C441.2 254.182 442.329 253.053 444.093 252.56C444.199 252.418 444.305 252.313 444.41 252.172C444.375 251.501 444.34 250.866 445.292 250.866C446.139 249.914 446.598 248.75 446.88 247.55C446.21 246.456 446.562 245.645 447.585 245.045C447.656 244.657 447.691 244.234 447.762 243.846C447.092 243.07 446.845 242.329 448.009 241.764C448.009 241.341 448.009 240.953 448.009 240.53C446.809 239.93 447.127 239.189 447.797 238.413C447.868 237.037 447.021 235.732 447.303 234.321C446.95 234.144 446.88 233.862 446.88 233.509C444.728 229.523 442.329 225.677 438.801 222.749C434.215 219.01 429.135 216.964 423.102 218.481C421.832 218.798 420.562 219.01 419.327 219.433C413.895 221.197 409.097 223.949 405.534 228.606C405.11 229.17 404.758 229.77 403.946 229.734C403.84 229.911 403.77 230.017 403.699 230.123Z" fill="#7F420F"/>
<path d="M422.186 240.247C421.233 240.318 420.386 239.895 419.575 239.506C418.376 239.401 417.282 239.083 416.294 238.413C415.377 238.378 414.601 237.884 413.789 237.566C413.19 237.566 412.696 237.354 412.308 236.931C410.579 236.825 409.133 235.979 407.58 235.379C407.087 235.52 406.769 235.273 406.522 234.885C406.205 234.814 405.852 234.744 405.534 234.638C404.864 234.497 404.194 234.391 403.523 234.25C402.536 234.532 402.006 235.308 401.407 236.049C401.795 236.614 401.689 237.143 401.407 237.778C398.337 244.34 396.15 251.042 397.279 258.451C399.925 261.908 403.312 264.095 407.686 264.554C412.978 265.083 417.988 263.849 422.891 262.085C423.456 260.779 424.62 260.215 425.819 259.721C425.89 259.615 425.96 259.545 426.102 259.545C426.595 258.733 427.372 258.239 428.289 257.992C428.359 257.886 428.43 257.851 428.536 257.886C428.747 257.463 429.03 257.181 429.524 257.181C429.7 257.04 429.841 256.863 430.017 256.722C430.194 255.382 430.194 253.971 430.547 252.665C431.252 249.949 430.864 247.585 428.959 245.469C428.359 244.798 427.689 244.022 427.548 243.034C426.525 241.588 424.761 241.553 423.35 240.847C422.785 240.882 422.433 240.671 422.186 240.247Z" fill="#F6B991"/>
<path d="M112.124 199.183C113.57 196.855 113.606 194.138 114.135 191.563C114.84 188.106 115.687 184.648 115.475 181.085C113.5 178.404 110.819 176.64 107.785 175.441C105.103 174.382 102.458 174.841 100.059 176.182C93.8143 179.674 87.3584 182.708 81.3258 186.589C77.551 189.023 77.6569 194.526 81.5728 196.819C84.7831 198.689 88.3815 199.43 92.0151 199.642C96.2485 199.889 100.517 199.536 104.786 200.03C107.291 200.241 109.69 199.324 112.124 199.183Z" fill="#F7BA92"/>
<path d="M404.546 276.866C399.29 278.63 394.668 281.1 393.081 286.991C394.139 290.66 397.103 292.459 400.348 293.341C408.039 295.493 415.694 295.458 422.997 291.683C424.761 290.766 426.348 289.566 427.513 287.873C429.559 284.91 429.03 281.206 426.101 279.124C423.35 277.184 420.245 276.09 416.859 276.02C412.731 276.055 408.603 275.737 404.546 276.866Z" fill="#F7BB92"/>
<path d="M403.699 230.122C403.77 230.016 403.805 229.875 403.876 229.769C401.971 229.31 401.936 228.464 402.959 226.876C404.934 223.877 407.474 221.549 410.649 219.891C416.259 216.963 421.832 214 428.535 214.423C432.275 214.67 435.485 216.01 438.449 217.951C444.058 221.69 447.374 227.229 449.844 233.367C450.267 233.191 450.725 233.05 451.149 232.873C451.431 232.344 451.784 231.886 452.419 231.709C452.454 231.603 452.525 231.533 452.63 231.462C452.807 230.51 453.407 229.875 454.042 229.205C454.183 228.887 454.289 228.534 454.43 228.217C454.43 226.241 454.43 224.266 454.394 222.29C454.359 222.043 454.289 221.796 454.253 221.514C453.583 220.808 453.336 219.926 453.089 219.009C447.303 210.613 439.048 207.261 429.206 208.355C422.961 209.061 417.282 211.953 411.743 214.881C408.956 216.363 406.275 218.057 403.523 219.609C400.807 221.161 398.655 223.419 396.503 225.606C395.303 226.841 395.55 227.688 397.138 228.464C399.219 229.557 401.583 229.31 403.699 230.122Z" fill="#844817"/>
<path d="M449.879 233.403C447.409 227.265 444.093 221.726 438.484 217.986C435.521 216.011 432.31 214.67 428.571 214.459C421.833 214.035 416.294 216.999 410.685 219.927C407.545 221.585 404.97 223.913 402.994 226.912C401.971 228.464 402.006 229.346 403.911 229.805C404.723 229.84 405.075 229.24 405.499 228.676C409.027 224.019 413.86 221.303 419.293 219.503C420.527 219.115 421.797 218.868 423.067 218.551C429.1 217.034 434.215 219.08 438.766 222.819C442.329 225.712 444.693 229.593 446.845 233.579C447.233 233.579 447.551 233.685 447.692 234.073C448.397 233.932 449.068 233.791 449.773 233.65C449.844 233.544 449.879 233.474 449.879 233.403Z" fill="#633401"/>
<path d="M322.03 278.56C321.113 281.664 321.043 284.945 320.408 288.12C320.196 289.108 320.125 290.131 319.984 291.154C319.808 292.424 320.372 293.094 321.678 293.094C324.535 293.2 327.428 293.341 330.285 293.376C331.379 293.376 332.508 293.271 333.531 292.988C335.577 292.424 337.094 291.189 337.482 288.967C337.835 286.956 336.953 285.368 335.401 284.134C332.014 281.382 327.851 280.394 323.83 279.053C323.265 278.807 322.63 278.701 322.03 278.56Z" fill="#DA9E75"/>
<path d="M291.797 234.532C292.255 233.015 291.02 232.168 290.28 231.392C286.928 227.864 285.446 223.525 284.035 219.045C283.647 217.81 283.718 215.799 281.954 216.011C280.19 216.222 280.472 218.198 280.366 219.574C280.014 224.654 281.107 229.487 282.871 234.214C283.471 235.026 284.318 234.814 285.094 234.814C287.316 234.743 289.574 234.955 291.797 234.532Z" fill="#222421"/>
<path d="M393.645 234.003C393.539 236.543 393.433 239.048 392.904 241.553C391.775 246.738 388.106 249.878 384.155 252.842C383.238 253.512 382.179 254.041 381.227 254.641C381.438 255.135 381.791 255.523 382.25 255.805C384.084 254.288 386.166 255.099 388.141 255.24C389.694 255.346 391.211 255.876 392.728 256.193C392.516 252.877 393.045 249.702 393.786 246.491C394.668 242.646 396.643 239.259 398.09 235.661C396.785 234.638 395.091 234.638 393.645 234.003Z" fill="#F4BA91"/>
<path d="M398.09 235.661C396.679 239.26 394.668 242.611 393.786 246.492C393.045 249.702 392.516 252.912 392.727 256.193C394.244 256.899 395.938 257.251 397.208 258.416C396.079 251.043 398.266 244.304 401.335 237.743C401.618 237.143 401.759 236.614 401.335 236.014C400.348 235.344 399.183 235.626 398.09 235.661Z" fill="#DA9D74"/>
<path d="M440.707 255.981C439.79 256.863 438.731 257.534 437.532 257.957C436.932 258.627 436.191 259.015 435.309 259.192C435.027 259.297 434.745 259.439 434.463 259.544C432.91 260.426 431.252 260.85 429.488 261.132C429.206 261.167 428.959 261.238 428.677 261.273C428.148 261.626 427.583 261.626 426.984 261.52C426.454 261.591 425.89 261.626 425.361 261.696C425.326 261.838 425.326 261.979 425.326 262.084C427.266 262.931 429.1 262.014 430.864 261.555C434.815 260.497 438.661 259.086 441.589 255.981C441.518 255.911 441.448 255.84 441.377 255.734C441.166 255.84 440.919 255.911 440.707 255.981Z" fill="#7F420F"/>
<path d="M444.376 252.206C444.27 252.347 444.164 252.453 444.058 252.594C443.529 253.97 442.153 254.605 441.377 255.769C441.448 255.84 441.518 255.911 441.589 256.016C444.658 254.005 446.74 251.324 447.233 247.62C447.092 247.62 446.986 247.62 446.845 247.62C446.563 248.855 446.069 249.984 445.258 250.936C445.152 251.465 444.905 251.924 444.376 252.206Z" fill="#7F420F"/>
<path d="M425.36 262.084C425.36 261.943 425.36 261.802 425.395 261.696C425.219 260.956 425.677 260.356 425.783 259.686C424.584 260.179 423.42 260.744 422.855 262.049C423.666 262.049 424.513 262.084 425.36 262.084Z" fill="#844817"/>
<path d="M403.488 234.25C404.158 234.391 404.829 234.497 405.499 234.638C404.758 233.58 403.312 233.438 402.641 232.31C401.654 233.509 403.276 233.58 403.488 234.25Z" fill="#844817"/>
<path d="M446.844 247.585C446.985 247.585 447.091 247.585 447.232 247.585C447.303 247.303 447.373 247.056 447.444 246.773C447.479 246.209 447.515 245.645 447.55 245.08C446.527 245.715 446.174 246.491 446.844 247.585Z" fill="#844817"/>
<path d="M308.836 189.869C308.977 189.94 309.154 190.046 309.295 190.116C309.154 190.01 309.013 189.94 308.836 189.869Z" fill="#8A8AD9"/>
<path d="M378.228 251.359C382.144 250.654 385.143 248.572 387.612 245.503C390.752 241.622 390.964 235.096 384.755 232.274C380.521 230.333 376.076 229.663 371.561 229.487C365.916 229.275 360.307 229.381 354.698 230.263C356.708 232.979 359.354 235.131 361.965 237.142C367.116 241.093 371.525 245.82 376.394 250.054C376.993 250.548 377.417 251.218 378.228 251.359Z" fill="#F5BA91"/>
<path d="M427.477 242.998C427.619 243.986 428.289 244.762 428.889 245.432C430.829 247.549 431.217 249.913 430.476 252.629C430.123 253.934 430.123 255.31 429.947 256.686C430.758 256.474 431.041 255.804 431.041 255.134C431.041 253.687 431.499 252.312 431.817 250.936C432.064 249.877 432.028 248.819 431.287 247.831C430.088 246.208 429.594 243.986 427.477 242.998Z" fill="#844817"/>
<path d="M441.376 255.77C442.153 254.606 443.528 253.971 444.058 252.595C442.294 253.089 441.165 254.218 440.671 255.981C440.918 255.911 441.165 255.84 441.376 255.77Z" fill="#844817"/>
<path d="M429.488 261.167C431.216 260.92 432.91 260.461 434.462 259.579C432.592 259.509 430.828 259.685 429.488 261.167Z" fill="#844817"/>
<path d="M416.294 238.413C417.282 239.083 418.376 239.436 419.575 239.506C418.587 238.801 417.705 237.813 416.294 238.413Z" fill="#844817"/>
<path d="M428.253 257.957C427.336 258.169 426.56 258.663 426.066 259.509C427.089 259.439 428.006 259.192 428.253 257.957Z" fill="#844817"/>
<path d="M448.009 240.565C448.15 239.824 448.185 239.119 447.797 238.448C447.092 239.224 446.81 239.965 448.009 240.565Z" fill="#844817"/>
<path d="M447.726 243.881C448.15 243.211 448.044 242.505 447.973 241.8C446.809 242.364 447.056 243.105 447.726 243.881Z" fill="#844817"/>
<path d="M435.274 259.227C436.156 259.051 436.896 258.663 437.496 257.992C436.508 257.922 435.379 257.64 435.274 259.227Z" fill="#844817"/>
<path d="M426.982 261.52C427.582 261.625 428.147 261.625 428.676 261.273C428.005 260.638 427.406 260.461 426.982 261.52Z" fill="#844817"/>
<path d="M444.375 252.207C444.904 251.924 445.116 251.466 445.257 250.901C444.304 250.901 444.34 251.536 444.375 252.207Z" fill="#844817"/>
<path d="M412.307 236.896C412.695 237.355 413.189 237.566 413.789 237.531C413.613 236.649 412.907 236.861 412.307 236.896Z" fill="#844817"/>
<path d="M422.186 240.247C422.433 240.67 422.785 240.882 423.279 240.811C423.138 240.176 422.715 240.141 422.186 240.247Z" fill="#844817"/>
<path d="M447.268 234.355C447.409 234.25 447.55 234.144 447.691 234.038C447.55 233.65 447.198 233.544 446.845 233.544C446.845 233.897 446.915 234.214 447.268 234.355Z" fill="#844817"/>
<path d="M406.522 234.849C406.769 235.237 407.086 235.484 407.58 235.343C407.404 234.779 406.98 234.779 406.522 234.849Z" fill="#844817"/>
<path d="M429.488 257.146C428.994 257.146 428.677 257.428 428.5 257.851C429.065 257.922 429.418 257.745 429.488 257.146Z" fill="#844817"/>
<path d="M422.855 262.049L429.488 254.288L426.983 243.881L412.307 238.448L402.323 233.544L422.185 230.651L438.484 237.213L442.399 246.35L435.273 254.641L428.5 258.733L422.855 262.049Z" fill="#7F420F"/>
<path d="M450.443 233.191C450.443 233.191 459.51 229.698 452.348 218.057L450.443 233.191Z" fill="#7F420F"/>
</svg>
