<svg width="500" height="500" viewBox="0 0 500 500" fill="none" xmlns="http://www.w3.org/2000/svg">
<path d="M335.788 287.774C338.194 288.395 340.367 289.249 342.579 290.568C359.615 300.929 376.767 311.096 394.23 320.759C394.695 321.031 395.2 321.147 395.704 321.341C397.451 314.822 402.534 312.105 408.316 310.204C407.346 308.613 405.833 307.604 404.513 306.362C397.645 299.843 390.427 293.75 383.791 286.998C383.286 286.726 382.898 286.26 382.666 285.717C381.579 284.514 380.454 283.311 379.367 282.108C378.474 281.953 378.009 281.216 377.388 280.672C372.033 276.016 367.143 270.816 361.516 266.469C358.606 264.257 355.734 261.89 353.522 258.902C351.155 257.932 349.68 255.798 347.818 254.207C341.764 249.006 335.865 243.651 329.967 238.257C321.274 230.263 312.504 222.347 303.501 214.702C303.501 214.702 303.579 214.741 303.54 214.741C303.385 214.663 303.19 214.547 303.035 214.469C298.844 213.033 295.196 210.356 290.695 209.657C284.719 208.726 278.937 208.997 273.465 211.753C272.805 212.102 272.184 212.102 271.486 211.985C260.698 210.239 251.074 212.956 242.536 219.669C241.527 220.484 240.48 220.717 239.199 220.639C224.918 219.902 210.599 219.785 196.279 219.979C188.79 220.096 181.805 219.126 174.936 216.176C162.596 210.899 149.634 207.367 136.363 205.466C123.906 203.681 111.333 203.564 98.7596 204.612C95.9655 204.845 93.1714 204.729 90.3774 204.767C90.6102 208.687 89.7177 212.49 88.9028 216.293C88.3207 219.126 88.2819 222.114 86.6908 224.675C121.034 234.105 155.455 243.224 189.644 253.12C198.53 255.681 207.417 258.048 216.536 259.096C227.363 260.338 238.229 261.153 249.095 261.968C256.778 262.55 264.501 262.86 272.223 263.248C272.96 263.287 273.737 263.21 274.474 263.21C272.572 258.01 271.369 252.693 271.719 247.105C271.835 245.553 271.525 243.418 273.465 243.186C275.405 242.953 275.328 245.165 275.755 246.523C277.307 251.412 278.975 256.224 282.623 260.105C283.438 260.959 284.796 261.929 284.292 263.559C288.755 266.159 293.217 268.798 297.68 271.398C302.57 273.571 307.498 275.705 312.388 277.917C320.149 281.41 328.182 284.087 335.788 287.774Z" fill="#696D66"/>
<path d="M335.788 287.773C328.182 284.086 320.11 281.409 312.388 277.955C307.498 275.782 302.57 273.609 297.68 271.436C296.865 279.818 297.331 288.239 297.059 296.621C296.632 309.621 295.623 322.582 295.623 335.621C295.623 340.278 297.564 343.925 300.358 347.302C301.095 348.233 302.065 348.776 303.307 348.815C311.611 349.009 319.916 349.863 328.22 349.785C330.549 349.746 332.722 349.242 334.701 348C337.534 346.254 338.426 342.528 336.719 339.657C335.089 336.94 332.567 335.272 329.85 333.914C325.659 331.857 321.391 329.955 317.122 327.976C315.686 327.976 315.065 327.239 315.259 325.842C315.414 324.716 315.492 323.63 315.725 322.504C316.423 319.012 316.54 315.442 317.51 311.988C318.17 306.361 318.868 300.773 319.528 295.146C319.722 293.516 320.032 291.848 320.071 290.218C320.11 288.704 320.808 288.471 322.167 288.316C326.746 287.889 331.286 288.045 335.788 287.773Z" fill="#F7BB92"/>
<path d="M379.368 282.108C380.454 283.311 381.58 284.513 382.666 285.716C383.753 285.057 384.878 284.475 385.887 283.737C390.234 280.516 394.231 277.063 395.511 271.319C396.132 268.564 396.21 265.77 396.326 263.015C395.162 261.773 394.541 260.221 393.765 258.785C388.759 249.433 380.61 243.573 371.451 238.839C364.583 235.268 357.248 232.901 349.759 230.961C337.612 227.779 326.242 222.424 314.406 218.271C310.797 216.991 307.305 215.206 303.463 214.701C312.466 222.346 321.236 230.262 329.929 238.257C335.789 243.651 341.726 249.045 347.78 254.206C349.642 255.797 351.078 257.931 353.484 258.901C359.616 257.931 365.825 257.815 372.034 258.048C377.039 258.242 381.929 258.979 386.547 261.113C393.377 264.257 393.144 271.436 389.69 275.666C386.974 279.042 383.675 281.331 379.368 282.108Z" fill="#8A8AD9"/>
<path d="M407.385 258.747C406.997 259.523 406.609 260.338 406.221 261.114C406.959 262.317 408.55 262.511 409.365 263.676C409.714 263.753 410.102 263.831 410.451 263.947C410.956 263.831 411.421 263.87 411.615 264.491C413.323 265.15 414.953 266.082 416.815 266.198C417.475 266.159 418.212 265.926 418.445 266.897C419.338 267.246 420.191 267.789 421.2 267.828C422.753 267.168 423.723 268.255 424.809 269.031C425.741 269.419 426.633 269.923 427.681 269.846C428.263 269.729 428.729 269.768 428.884 270.467C430.436 271.282 432.377 271.282 433.502 272.873C435.792 273.921 436.335 276.404 437.732 278.189C438.547 279.276 438.586 280.44 438.314 281.604C437.965 283.118 437.499 284.631 437.46 286.222C437.46 286.959 437.15 287.697 436.257 287.93C436.063 288.085 435.908 288.279 435.714 288.434C435.636 289.094 435.209 289.288 434.627 289.21C434.511 289.171 434.395 289.249 434.356 289.327C434.123 290.685 433.075 290.918 431.95 291.034C431.794 291.034 431.717 291.073 431.639 291.228C431.523 291.965 431.018 292.664 431.212 293.44C431.795 293.362 432.415 293.324 432.997 293.246C433.463 292.043 434.123 292.276 434.86 292.974C435.171 292.936 435.442 292.858 435.753 292.819C437.227 291.228 439.206 290.995 441.224 291.073C441.535 290.956 441.845 290.801 442.156 290.685C442.272 288.977 443.514 289.249 444.601 289.327C445.92 288.822 447.084 288.124 448.093 287.153C448.636 285.213 449.878 283.971 451.818 283.428C451.935 283.273 452.051 283.156 452.168 283.001C452.129 282.264 452.09 281.565 453.138 281.565C454.069 280.518 454.574 279.237 454.884 277.918C454.147 276.715 454.535 275.822 455.66 275.162C455.738 274.735 455.777 274.27 455.854 273.843C455.117 272.989 454.845 272.174 456.126 271.553C456.126 271.088 456.126 270.661 456.126 270.195C454.807 269.535 455.156 268.72 455.893 267.867C455.971 266.353 455.039 264.917 455.35 263.365C454.962 263.171 454.884 262.861 454.884 262.473C452.517 258.088 449.878 253.858 445.998 250.637C440.953 246.523 435.365 244.273 428.729 245.941C427.332 246.291 425.935 246.523 424.577 246.989C418.6 248.929 413.323 251.956 409.403 257.079C408.938 257.7 408.55 258.359 407.657 258.32C407.541 258.514 407.463 258.631 407.385 258.747Z" fill="#7F420F"/>
<path d="M427.72 269.884C426.672 269.962 425.741 269.496 424.848 269.069C423.529 268.953 422.326 268.604 421.239 267.866C420.23 267.827 419.377 267.284 418.484 266.935C417.824 266.935 417.281 266.702 416.854 266.236C414.953 266.12 413.362 265.189 411.654 264.529C411.111 264.684 410.762 264.412 410.49 263.986C410.141 263.908 409.753 263.83 409.404 263.714C408.666 263.559 407.929 263.442 407.192 263.287C406.105 263.598 405.523 264.451 404.863 265.266C405.29 265.887 405.174 266.469 404.863 267.168C401.487 274.386 399.081 281.759 400.323 289.908C403.233 293.711 406.959 296.117 411.771 296.622C417.592 297.204 423.102 295.846 428.496 293.905C429.117 292.469 430.398 291.848 431.717 291.305C431.795 291.189 431.872 291.111 432.028 291.111C432.571 290.219 433.425 289.675 434.433 289.404C434.511 289.287 434.589 289.248 434.705 289.287C434.938 288.822 435.248 288.511 435.792 288.511C435.986 288.356 436.141 288.162 436.335 288.007C436.529 286.532 436.529 284.98 436.917 283.544C437.693 280.556 437.266 277.956 435.171 275.627C434.511 274.89 433.774 274.036 433.619 272.95C432.493 271.359 430.553 271.32 429.001 270.544C428.38 270.583 427.992 270.35 427.72 269.884Z" fill="#F6B991"/>
<path d="M86.652 224.713C88.2431 222.152 88.2819 219.164 88.864 216.331C89.6401 212.528 90.5715 208.725 90.3386 204.806C88.1655 201.856 85.2162 199.916 81.8789 198.597C78.9296 197.433 76.0192 197.937 73.3803 199.412C66.5117 203.253 59.4101 206.591 52.7743 210.86C48.622 213.537 48.7384 219.591 53.0459 222.113C56.5773 224.17 60.5355 224.985 64.5325 225.218C69.1893 225.489 73.8848 225.101 78.5804 225.645C81.3356 225.877 83.9744 224.869 86.652 224.713Z" fill="#F7BA92"/>
<path d="M408.317 310.165C402.535 312.106 397.451 314.822 395.705 321.303C396.869 325.339 400.129 327.318 403.699 328.288C412.159 330.655 420.58 330.616 428.613 326.464C430.553 325.455 432.299 324.136 433.58 322.273C435.831 319.013 435.249 314.939 432.028 312.649C429.001 310.515 425.586 309.312 421.86 309.234C417.32 309.273 412.78 308.924 408.317 310.165Z" fill="#F7BB92"/>
<path d="M407.385 258.746C407.463 258.63 407.502 258.475 407.579 258.358C405.484 257.854 405.445 256.922 406.57 255.176C408.743 251.878 411.537 249.316 415.03 247.492C421.2 244.272 427.332 241.012 434.705 241.477C438.818 241.749 442.35 243.224 445.609 245.358C451.779 249.472 455.427 255.564 458.144 262.316C458.609 262.122 459.114 261.967 459.58 261.773C459.89 261.191 460.278 260.687 460.977 260.492C461.015 260.376 461.093 260.298 461.209 260.221C461.403 259.173 462.063 258.475 462.762 257.737C462.917 257.388 463.033 257 463.188 256.651C463.188 254.478 463.188 252.304 463.15 250.131C463.111 249.86 463.033 249.588 462.994 249.278C462.257 248.501 461.985 247.531 461.714 246.522C455.35 237.286 446.269 233.6 435.442 234.803C428.573 235.579 422.326 238.761 416.233 241.982C413.167 243.612 410.218 245.475 407.191 247.182C404.203 248.889 401.836 251.373 399.469 253.779C398.149 255.137 398.421 256.069 400.167 256.922C402.457 258.125 405.057 257.854 407.385 258.746Z" fill="#844817"/>
<path d="M458.183 262.355C455.466 255.603 451.818 249.51 445.648 245.397C442.389 243.224 438.857 241.749 434.744 241.516C427.332 241.051 421.239 244.31 415.069 247.531C411.615 249.355 408.782 251.916 406.609 255.215C405.484 256.922 405.523 257.893 407.618 258.397C408.511 258.436 408.899 257.776 409.364 257.155C413.245 252.033 418.562 249.045 424.538 247.066C425.896 246.639 427.293 246.367 428.69 246.018C435.326 244.349 440.953 246.6 445.959 250.713C449.878 253.895 452.478 258.164 454.845 262.549C455.272 262.549 455.621 262.666 455.777 263.093C456.553 262.937 457.29 262.782 458.066 262.627C458.144 262.51 458.183 262.433 458.183 262.355Z" fill="#633401"/>
<path d="M317.549 312.027C316.54 315.442 316.463 319.051 315.764 322.544C315.531 323.63 315.454 324.756 315.298 325.881C315.104 327.278 315.725 328.015 317.161 328.015C320.304 328.132 323.487 328.287 326.63 328.326C327.833 328.326 329.075 328.21 330.2 327.899C332.451 327.278 334.119 325.92 334.546 323.475C334.934 321.263 333.964 319.517 332.257 318.159C328.531 315.132 323.952 314.045 319.528 312.571C318.907 312.299 318.209 312.183 317.549 312.027Z" fill="#DA9E75"/>
<path d="M284.292 263.597C284.796 261.929 283.438 260.997 282.623 260.144C278.937 256.263 277.307 251.49 275.755 246.561C275.328 245.203 275.405 242.991 273.465 243.224C271.525 243.457 271.835 245.63 271.719 247.143C271.331 252.732 272.534 258.048 274.474 263.248C275.134 264.141 276.065 263.908 276.919 263.908C279.364 263.83 281.847 264.063 284.292 263.597Z" fill="#222421"/>
<path d="M396.325 263.016C396.209 265.81 396.092 268.565 395.51 271.32C394.269 277.025 390.233 280.478 385.886 283.738C384.877 284.475 383.713 285.058 382.665 285.717C382.898 286.261 383.286 286.687 383.791 286.998C385.809 285.329 388.098 286.222 390.271 286.377C391.979 286.493 393.648 287.075 395.316 287.425C395.083 283.777 395.666 280.284 396.48 276.753C397.451 272.523 399.624 268.798 401.215 264.84C399.779 263.714 397.916 263.714 396.325 263.016Z" fill="#F4BA91"/>
<path d="M401.215 264.839C399.663 268.797 397.451 272.484 396.481 276.752C395.666 280.284 395.084 283.815 395.316 287.424C396.985 288.2 398.848 288.588 400.245 289.869C399.003 281.758 401.409 274.347 404.785 267.129C405.096 266.469 405.251 265.887 404.785 265.227C403.699 264.49 402.418 264.8 401.215 264.839Z" fill="#DA9D74"/>
<path d="M448.093 287.192C447.084 288.162 445.92 288.899 444.601 289.365C443.941 290.102 443.126 290.529 442.156 290.723C441.846 290.839 441.535 290.995 441.225 291.111C439.517 292.081 437.693 292.547 435.753 292.857C435.443 292.896 435.171 292.974 434.86 293.012C434.278 293.401 433.657 293.401 432.998 293.284C432.416 293.362 431.795 293.401 431.213 293.478C431.174 293.633 431.174 293.789 431.174 293.905C433.308 294.836 435.326 293.827 437.266 293.323C441.613 292.159 445.843 290.606 449.063 287.192C448.986 287.114 448.908 287.036 448.831 286.92C448.598 287.036 448.326 287.114 448.093 287.192Z" fill="#7F420F"/>
<path d="M452.129 283.039C452.013 283.194 451.896 283.311 451.78 283.466C451.198 284.979 449.684 285.678 448.831 286.958C448.908 287.036 448.986 287.114 449.063 287.23C452.44 285.018 454.729 282.069 455.272 277.994C455.117 277.994 455.001 277.994 454.846 277.994C454.535 279.352 453.992 280.594 453.099 281.642C452.983 282.224 452.711 282.728 452.129 283.039Z" fill="#7F420F"/>
<path d="M431.212 293.904C431.212 293.749 431.212 293.594 431.251 293.478C431.057 292.663 431.561 292.003 431.678 291.266C430.358 291.809 429.078 292.43 428.457 293.866C429.349 293.866 430.281 293.904 431.212 293.904Z" fill="#844817"/>
<path d="M407.153 263.287C407.891 263.442 408.628 263.558 409.365 263.714C408.55 262.549 406.959 262.394 406.222 261.152C405.135 262.472 406.92 262.549 407.153 263.287Z" fill="#844817"/>
<path d="M454.845 277.955C455 277.955 455.117 277.955 455.272 277.955C455.349 277.645 455.427 277.373 455.505 277.063C455.543 276.442 455.582 275.821 455.621 275.2C454.496 275.899 454.108 276.752 454.845 277.955Z" fill="#844817"/>
<path d="M303.036 214.468C303.191 214.545 303.385 214.662 303.541 214.739C303.385 214.623 303.23 214.545 303.036 214.468Z" fill="#8A8AD9"/>
<path d="M379.367 282.108C383.674 281.331 386.973 279.042 389.689 275.666C393.143 271.397 393.376 264.218 386.546 261.113C381.889 258.979 377 258.242 372.033 258.048C365.824 257.815 359.653 257.931 353.483 258.901C355.695 261.889 358.606 264.257 361.477 266.469C367.143 270.815 371.994 276.015 377.349 280.672C378.009 281.215 378.474 281.952 379.367 282.108Z" fill="#F5BA91"/>
<path d="M433.541 272.91C433.697 273.997 434.434 274.85 435.094 275.588C437.228 277.916 437.655 280.516 436.84 283.504C436.452 284.94 436.452 286.454 436.258 287.967C437.15 287.734 437.461 286.997 437.461 286.259C437.461 284.668 437.965 283.155 438.315 281.642C438.586 280.477 438.547 279.313 437.733 278.227C436.413 276.442 435.87 273.997 433.541 272.91Z" fill="#844817"/>
<path d="M448.83 286.958C449.684 285.678 451.197 284.979 451.779 283.466C449.839 284.009 448.597 285.251 448.054 287.191C448.326 287.114 448.597 287.036 448.83 286.958Z" fill="#844817"/>
<path d="M435.752 292.895C437.653 292.624 439.516 292.119 441.224 291.149C439.167 291.071 437.227 291.265 435.752 292.895Z" fill="#844817"/>
<path d="M421.24 267.866C422.326 268.603 423.529 268.991 424.849 269.069C423.762 268.293 422.792 267.206 421.24 267.866Z" fill="#844817"/>
<path d="M434.395 289.365C433.386 289.598 432.532 290.141 431.989 291.073C433.114 290.995 434.123 290.723 434.395 289.365Z" fill="#844817"/>
<path d="M456.126 270.234C456.281 269.419 456.32 268.643 455.893 267.905C455.117 268.759 454.807 269.574 456.126 270.234Z" fill="#844817"/>
<path d="M455.815 273.881C456.281 273.144 456.164 272.368 456.087 271.592C454.806 272.213 455.078 273.028 455.815 273.881Z" fill="#844817"/>
<path d="M442.117 290.761C443.087 290.567 443.902 290.14 444.562 289.403C443.475 289.326 442.233 289.015 442.117 290.761Z" fill="#844817"/>
<path d="M432.997 293.284C433.656 293.4 434.277 293.4 434.859 293.012C434.122 292.314 433.462 292.12 432.997 293.284Z" fill="#844817"/>
<path d="M452.128 283.039C452.711 282.729 452.943 282.224 453.099 281.604C452.051 281.604 452.09 282.302 452.128 283.039Z" fill="#844817"/>
<path d="M416.855 266.198C417.281 266.702 417.825 266.935 418.484 266.896C418.29 265.926 417.514 266.159 416.855 266.198Z" fill="#844817"/>
<path d="M427.72 269.883C427.992 270.349 428.38 270.582 428.923 270.504C428.768 269.806 428.302 269.767 427.72 269.883Z" fill="#844817"/>
<path d="M455.311 263.403C455.466 263.287 455.621 263.17 455.776 263.054C455.621 262.627 455.233 262.511 454.845 262.511C454.845 262.899 454.923 263.248 455.311 263.403Z" fill="#844817"/>
<path d="M410.49 263.946C410.762 264.373 411.111 264.645 411.654 264.49C411.46 263.869 410.995 263.869 410.49 263.946Z" fill="#844817"/>
<path d="M435.753 288.472C435.21 288.472 434.86 288.782 434.666 289.248C435.287 289.325 435.675 289.131 435.753 288.472Z" fill="#844817"/>
<path d="M428.456 293.866L435.752 285.328L432.997 273.88L416.853 267.904L405.871 262.51L427.719 259.328L445.648 266.546L449.955 276.597L442.116 285.716L434.665 290.218L428.456 293.866Z" fill="#7F420F"/>
<path d="M458.803 262.122C458.803 262.122 468.777 258.281 460.899 245.475L458.803 262.122Z" fill="#7F420F"/>
</svg>
