<svg width="497" height="497" viewBox="0 0 497 497" fill="none" xmlns="http://www.w3.org/2000/svg">
<g clip-path="url(#clip0_716_10379)">
<path d="M208.707 271.028C209.225 271.102 209.817 271.176 210.335 271.324C212.258 271.324 214.182 271.768 216.105 272.064C216.401 271.916 216.623 271.916 216.845 272.138C217.289 272.212 217.733 272.285 218.177 272.359C218.991 272.212 219.804 272.729 220.692 272.729C221.358 272.507 222.098 273.099 222.838 273.099C223.504 272.877 224.243 273.469 224.983 273.469C225.649 273.247 226.389 273.839 227.129 273.839C227.573 273.765 228.09 273.617 228.386 274.209C229.422 274.283 230.458 274.283 231.42 274.579C232.233 274.283 233.047 274.949 233.935 274.949C234.897 274.727 235.859 275.393 236.894 275.319C237.116 275.097 237.412 275.171 237.634 275.393C238.226 275.467 238.818 275.541 239.41 275.689C240.298 275.393 241.259 276.059 242.221 276.059C243.109 275.763 244.071 276.429 245.032 276.429C246.068 276.207 247.104 276.872 248.214 276.798C249.249 276.502 250.285 277.168 251.395 277.168C252.505 276.946 253.762 277.538 254.946 277.538C255.982 277.242 257.092 277.908 258.127 277.908C259.163 277.612 260.199 278.352 261.309 278.278C261.531 278.056 261.826 278.13 262.048 278.352C262.862 278.426 263.676 278.574 264.564 278.648C273.812 279.462 283.503 279.24 292.751 278.944C313.54 285.232 332.184 296.404 351.937 305.208C357.412 306.983 361.703 312.532 367.177 313.42C366.438 303.876 366.881 293.075 372.874 285.158C373.392 284.493 373.096 284.123 372.652 283.679C360.001 268.29 345.131 254.974 329.816 242.323C320.938 233.889 311.617 224.419 299.04 222.199C298.818 222.421 298.522 222.347 298.3 222.125C294.083 221.829 289.644 221.46 285.945 224.049C283.577 224.937 281.728 228.414 279.138 227.822C270.334 225.677 261.013 227.97 252.727 231.225C245.254 235.442 236.968 234.776 228.682 234.111C217.067 233.445 205.452 232.557 193.837 232.779C186.66 233.001 180.52 228.118 173.861 226.268C169.94 225.159 153.812 218.352 154.108 222.125C152.332 232.187 148.041 242.249 141.975 250.535C143.233 252.532 151.223 253.938 153.96 255.122C168.979 258.821 182.591 266.811 197.832 269.622C198.054 269.4 198.35 269.474 198.571 269.696C199.163 269.77 199.755 269.918 200.347 269.992C200.569 269.77 200.865 269.844 201.087 270.066C201.827 270.14 202.493 270.288 203.232 270.362C203.454 270.14 203.75 270.214 203.972 270.436C204.564 270.51 205.082 270.584 205.674 270.658C206.488 270.51 207.301 271.028 208.189 271.028C208.189 270.806 208.485 270.806 208.707 271.028Z" fill="#3D3C3C"/>
<path d="M365.106 274.874C367.621 277.685 369.767 280.941 372.578 283.456C373.096 283.9 373.392 284.27 372.8 284.936C366.807 292.852 366.364 303.653 367.103 313.197C382.27 323.555 399.804 331.545 414.082 342.938C421.332 357.956 453.811 346.637 462.393 336.871C465.352 329.473 455.29 325.626 449.446 325.774C442.122 325.774 434.723 327.698 428.139 330.879C426.067 332.211 425.771 332.137 424.44 330.213C415.71 320.225 405.13 312.013 395.143 303.209C398.768 301.064 402.985 299.51 405.944 296.107C411.863 290.854 409.495 280.497 402.097 277.316C390.704 272.285 377.091 274.208 365.106 274.874ZM415.784 340.866C417.041 337.389 420.149 334.282 423.552 332.876C424.366 332.506 424.958 333.69 423.922 333.912C420.667 334.134 416.524 342.864 415.784 340.866Z" fill="#F6BB92"/>
<path d="M141.902 250.46C147.969 242.174 152.26 232.113 154.035 222.051C129.621 218.944 105.133 215.985 80.7926 212.359C75.5398 210.658 71.6927 205.923 65.7742 205.627C55.7865 203.408 47.6485 211.398 38.1787 212.359C33 214.579 16.3539 208.364 14.8003 215.097C14.5043 217.464 15.3922 219.388 17.2417 220.867C31.7423 227.822 53.1971 229.227 68.9554 231.891C93.8135 235.59 117.784 243.654 141.902 250.46Z" fill="#F6BB92"/>
<path d="M365.107 275.171C377.092 274.431 390.779 272.285 402.172 277.39C409.571 280.571 411.864 290.929 406.019 296.182C403.726 299.067 399.953 300.103 397.142 302.248C403.874 302.544 409.349 296.477 411.642 290.633C415.933 278.648 408.979 264.961 399.805 257.045C387.894 247.131 372.358 244.616 358.227 239.289C340.101 233.888 322.197 227.526 303.924 223.087C303.924 223.161 303.924 223.235 303.924 223.383C314.281 226.712 321.975 234.998 329.744 242.174C342.173 252.384 353.936 263.555 365.107 275.171Z" fill="#FF8AA0"/>
<path d="M351.863 304.984C337.067 298.252 322.566 290.78 307.844 283.899C305.772 285.305 306.586 288.93 306.142 291.15C305.994 299.806 305.328 308.462 305.032 317.118C304.663 329.916 303.701 342.937 305.624 355.662C305.994 356.698 305.032 357.364 304.589 358.178C302.665 368.461 333.294 365.28 339.952 365.724C349.348 364.614 347.572 359.879 339.878 357.438C332.85 354.627 325.526 352.703 318.349 350.558C315.686 349.596 320.199 335.021 320.643 332.062C322.862 323.406 325.378 314.75 327.375 306.02C327.671 304.836 327.745 304.688 329.077 304.688C336.623 304.762 344.317 304.467 351.863 304.984Z" fill="#F6BB92"/>
<path d="M464.391 306.615C464.909 306.911 465.353 307.207 465.945 306.689C473.565 301.806 476.82 292.928 476.376 284.05C475.266 273.027 464.465 264.445 453.812 263.409C453.664 263.335 453.59 263.113 453.812 263.113C454.921 248.465 433.244 252.46 428.51 262.077C426.956 264.593 425.624 268.366 427.4 271.029C428.066 271.695 427.844 272.065 427.326 272.657C424.736 275.172 422.961 278.353 422.147 281.905C425.624 284.568 427.104 278.427 429.841 277.022C436.5 272.287 440.347 279.315 432.949 283.014C430.137 286.787 438.201 283.606 439.681 284.79C445.082 285.974 450.926 287.527 456.105 284.79C456.401 284.642 456.697 284.346 457.215 284.79C456.697 292.706 460.026 300.178 464.391 306.615Z" fill="#602F0F"/>
<path d="M464.391 306.317C460.026 299.955 456.622 292.408 457.214 284.492C456.696 284.048 456.401 284.344 456.105 284.492C450.926 287.23 445.081 285.75 439.681 284.492C437.461 283.309 434.428 285.824 432.652 284.122C432.356 282.643 434.724 282.347 435.611 281.385C437.091 279.832 438.053 276.28 435.537 275.393C429.841 272.803 427.769 280.275 423.848 281.977C422.073 290.781 415.044 312.606 426.808 316.527C436.721 320.004 456.844 312.828 464.391 306.317ZM431.986 308.907C431.986 308.093 432.134 305.577 433.392 306.539C434.502 307.501 436.055 308.167 435.907 310.09C436.647 311.718 437.535 311.2 436.425 313.346C435.242 316.527 431.616 310.682 431.986 308.907Z" fill="#EEBC99"/>
<path d="M420.668 308.76C419.78 299.882 421.999 291.078 423.923 282.422C424.071 281.83 422.665 282.126 422.147 281.682C418.892 281.164 415.637 279.315 412.529 278.427C413.639 288.044 409.57 298.18 400.026 301.953C406.759 303.951 413.787 307.132 420.668 308.76Z" fill="#ECAD83"/>
<path d="M320.57 331.989C319.238 336.576 318.498 341.237 317.685 345.898C323.085 346.934 359.041 347.156 340.027 337.686C333.665 335.466 327.006 334.357 320.57 331.989Z" fill="#D89D75"/>
<path d="M303.848 223.309C303.848 223.235 303.848 223.162 303.848 223.014C303.182 222.792 302.516 222.422 301.776 222.644C302.368 223.088 303.108 223.235 303.848 223.309Z" fill="#9A9A98"/>
<path d="M298.225 221.979C298.447 222.201 298.669 222.201 298.965 222.053C298.669 221.831 298.447 221.757 298.225 221.979Z" fill="#9A9A98"/>
<path d="M453.887 262.892C453.665 262.966 453.739 263.188 453.887 263.188C453.813 263.114 453.813 262.966 453.887 262.892Z" fill="#5E5D5A"/>
<path d="M415.786 340.867C416.526 342.939 420.743 334.135 423.998 333.839C425.034 333.691 424.442 332.433 423.628 332.803C420.151 334.283 416.97 337.39 415.786 340.867Z" fill="#E5A178"/>
<path d="M431.986 308.907C431.542 310.757 435.241 316.602 436.499 313.272C437.534 311.127 436.647 311.645 435.981 310.017C436.129 308.094 434.575 307.428 433.465 306.466C432.134 305.504 432.06 308.094 431.986 308.907Z" fill="#DD7658"/>
<path d="M440.124 270.289C444.933 268.809 449.372 266.442 450.852 263.853C450.778 266.96 445.969 269.845 440.568 271.473C435.463 272.952 431.542 272.804 429.989 270.585C432.134 271.695 435.759 271.547 440.124 270.289Z" fill="#4C230C"/>
<path d="M442.418 254.383C442.27 253.791 439.385 254.309 436.352 255.714C433.244 257.046 430.803 258.748 431.173 259.414C431.321 260.005 433.688 259.488 436.944 258.082C439.755 256.528 442.566 254.975 442.418 254.383Z" fill="#4C230C"/>
<path d="M373.837 284.492L393.96 302.913C394.256 303.135 394.7 303.135 394.922 302.839C395.144 302.544 395.144 302.1 394.848 301.878L374.725 283.456C374.429 283.234 373.985 283.234 373.763 283.53C373.541 283.826 373.541 284.27 373.837 284.492Z" fill="#ECAD83"/>
</g>
<defs>
<clipPath id="clip0_716_10379">
<rect width="496.2" height="496.2" fill="white" transform="translate(0 0.200195)"/>
</clipPath>
</defs>
</svg>
