<svg width="500" height="500" viewBox="0 0 500 500" fill="none" xmlns="http://www.w3.org/2000/svg">
<path d="M196.969 93.159C196.648 93.9598 196.425 94.7994 195.843 95.4874C195.603 95.7696 195.519 96.1859 195.371 96.5422C191.448 105.983 188.259 115.67 185.482 125.502C182.801 135.002 180.48 144.591 178.441 154.246C176.973 161.206 175.661 168.191 174.504 175.208C173.565 180.888 172.75 186.585 172.034 192.3C171.41 197.296 170.863 202.298 170.45 207.311C170.122 211.312 169.854 215.319 169.709 219.337C169.6 222.435 169.505 225.529 169.519 228.626C169.54 232.986 169.805 237.329 170.274 241.665C170.503 243.781 170.785 245.891 171.078 247.997C171.219 249.006 171.473 249.99 171.805 250.953C172.496 252.964 173.198 254.975 173.904 256.982C173.968 257.162 174.087 257.324 174.179 257.494C174.853 257.494 175.516 257.55 176.186 257.698C177.079 257.892 177.996 257.988 178.91 258.044C181.415 258.196 183.919 258.302 186.424 258.425C186.618 258.436 186.809 258.439 187.003 258.45C189.698 258.612 192.39 258.792 195.085 258.937C196.771 259.025 198.457 259.046 200.144 259.166C202.79 259.353 205.449 259.24 208.092 259.526C208.949 259.618 209.715 259.42 210.427 258.961C211.161 258.094 211.556 257.053 211.909 255.995C213.045 252.601 214.167 249.204 215.292 245.806C216.036 243.559 216.798 241.315 217.515 239.054C218.319 236.514 218.866 233.911 219.335 231.289C219.444 230.672 219.476 230.037 219.49 229.413C219.515 228.107 219.561 226.795 219.497 225.493C219.388 223.274 219.151 221.076 218.474 218.928C215.07 208.137 211.701 197.331 208.339 186.522C207.189 182.828 206.102 179.113 205.171 175.356C204.998 174.654 204.723 173.977 204.486 173.293C204.098 172.167 204.021 171.056 204.342 169.878C204.874 167.916 205.499 165.983 206.148 164.06C207.157 161.079 207.947 158.049 208.452 154.931C208.924 152.017 209.39 149.106 209.729 146.175C210.007 143.772 210.194 141.359 210.353 138.946C210.466 137.256 210.529 135.567 210.642 133.877C210.854 130.645 210.949 127.403 211.076 124.165C211.217 120.489 211.344 116.816 211.475 113.14C211.493 112.608 211.514 112.075 211.521 111.542C211.574 107.764 211.884 104.003 212.184 100.243C212.226 99.7066 212.343 99.1915 212.537 98.6906C212.657 98.3766 212.823 98.0732 212.777 97.7169C212.332 97.537 211.898 97.3183 211.44 97.1842C207.51 96.02 203.58 94.8418 199.636 93.734C198.768 93.4906 197.925 93.032 196.969 93.1555V93.159Z" fill="#6A6D66"/>
<path d="M202.673 360.744C202.884 360.614 203.068 360.458 203.093 360.19C203.287 357.876 203.72 355.594 203.992 353.29C204.32 350.499 204.786 347.744 205.46 345.017C205.752 343.836 206.165 342.71 206.793 341.659C207.439 340.583 207.915 339.412 208.652 338.378C209.51 337.175 210.603 336.24 211.757 335.351C213.358 334.12 215.126 333.252 217.112 332.896C219.761 332.416 222.4 332.261 224.908 333.534C226.372 334.275 227.893 334.945 228.976 336.258C229.967 337.457 230.772 338.773 231.428 340.188C232.451 342.396 233.16 344.696 233.566 347.092C233.59 347.236 233.633 347.377 233.64 347.522C233.724 350.224 234.19 352.92 233.791 355.632C233.749 355.918 233.77 356.211 233.77 356.504C233.756 358.49 233.527 360.458 233.262 362.427C233.216 362.759 233.237 363.101 233.23 363.436C233.643 363.609 234.056 363.63 234.472 363.461C235.202 359.09 235.499 354.687 235.404 350.253C235.386 349.434 235.393 348.616 235.404 347.797C235.428 345.779 235.506 343.761 235.164 341.761C234.19 338.142 232.246 335.044 229.971 332.123C228.93 330.786 227.794 329.527 226.746 328.2C224.887 325.851 223.024 323.501 221.695 320.781C220.954 319.261 220.167 317.762 219.334 316.291C218.054 314.029 217.366 311.57 216.791 309.069C216.022 305.725 215.26 302.377 214.487 299.033C214.434 298.8 214.343 298.574 214.269 298.345C213.171 298.521 212.046 298.595 210.984 298.895C209.679 299.265 208.36 299.551 207.04 299.841C206.049 300.056 205.043 300.207 204.049 300.405C200.397 301.121 196.75 301.837 193.102 302.567C189.264 303.337 185.429 304.106 181.598 304.899C178.906 305.46 176.225 306.064 173.54 306.649C173.434 308.004 173.54 309.358 173.66 310.699C173.914 313.497 173.879 316.298 173.886 319.099C173.89 322.337 173.755 325.576 173.847 328.811C173.928 331.658 174.062 334.522 174.489 337.33C174.923 340.188 175.791 342.968 177.114 345.582C178.211 347.748 179.407 349.836 181.192 351.523C183.178 353.399 185.38 354.937 187.965 355.886C189.916 356.603 191.853 357.347 193.797 358.074C194.068 358.176 194.344 358.271 194.622 358.345C196.718 358.92 198.803 359.534 200.852 360.264C201.442 360.473 202.066 360.589 202.673 360.744Z" fill="#8A8AD9"/>
<path d="M172.966 301.252C172.885 302.956 173.273 304.611 173.318 306.297C173.318 306.417 173.467 306.53 173.544 306.646C176.229 306.061 178.91 305.454 181.602 304.897C185.433 304.099 189.268 303.33 193.106 302.565C196.753 301.834 200.401 301.118 204.052 300.402C205.047 300.208 206.053 300.053 207.044 299.838C208.367 299.552 209.686 299.263 210.988 298.892C212.05 298.592 213.175 298.515 214.272 298.342C214.216 297.026 213.821 295.774 213.489 294.525C212.868 292.193 212.427 289.826 211.93 287.473C211.574 285.776 211.172 284.09 210.918 282.372C210.544 279.849 210.099 277.341 209.803 274.801C209.503 272.24 209.542 269.682 209.665 267.142C209.782 264.75 209.732 262.316 210.395 259.967C210.484 259.653 210.424 259.296 210.434 258.958C209.722 259.42 208.956 259.614 208.099 259.522C205.457 259.236 202.793 259.349 200.151 259.162C198.464 259.042 196.778 259.021 195.092 258.933C192.397 258.788 189.701 258.609 187.01 258.446C186.816 258.436 186.625 258.432 186.431 258.422C183.926 258.298 181.422 258.192 178.917 258.041C178.003 257.988 177.086 257.889 176.194 257.695C175.523 257.55 174.864 257.49 174.186 257.49C174.504 259.406 174.585 261.353 174.363 263.262C174.116 265.375 174.341 267.516 173.908 269.608C173.897 269.654 173.897 269.703 173.897 269.753C173.939 272.123 173.611 274.473 173.502 276.837C173.329 280.555 173.258 284.27 173.237 287.988" fill="#F7BB92"/>
<path d="M266.223 375.755C266.064 375.109 265.598 374.697 265.126 374.277C262.286 371.747 259.259 369.458 256.172 367.239C255.064 366.442 254.824 366.65 255.346 364.875C255.646 363.863 255.897 362.833 256.168 361.813C256.246 360.571 256.638 359.393 256.885 358.183C257.054 357.351 257.11 356.486 257.502 355.71C257.52 355.47 257.516 355.23 257.562 354.998C257.654 354.535 257.491 354.176 257.22 353.805C255.819 351.918 254.267 350.161 252.672 348.432C251.734 347.413 250.753 346.429 249.942 345.296C249.667 345.166 249.589 344.929 249.593 344.647C248.633 344.693 247.67 344.749 246.732 344.46C246.64 344.432 246.541 344.425 246.446 344.425C243.825 344.425 241.341 343.599 238.808 343.098C237.972 342.933 237.178 342.534 236.367 342.234C235.965 342.086 235.566 341.917 235.168 341.758C235.513 343.758 235.432 345.776 235.407 347.794C235.397 348.612 235.39 349.431 235.407 350.249C235.503 354.68 235.206 359.083 234.476 363.457C234.808 363.658 235.178 363.81 235.457 364.068C236.138 364.692 236.473 365.422 236.205 366.403C235.496 369.01 234.839 371.635 234.166 374.252C233.838 375.522 233.647 376.803 233.675 378.122C233.7 379.375 234.159 380.391 235.182 381.103C236.409 381.96 237.633 382.828 239.182 383.058C239.655 383.128 240.096 383.382 240.565 383.488C241.317 383.657 241.694 384.084 241.867 384.846C242.283 386.681 242.784 388.501 243.25 390.325C243.26 390.371 243.271 390.42 243.278 390.466C243.62 392.24 244.333 392.311 245.635 391.919C248.781 390.974 252.023 390.335 255.092 389.154C256.211 388.723 257.149 388.759 258.25 389.175C260.462 390.011 262.691 390.826 265.037 391.235C265.224 391.267 265.397 391.366 265.577 391.433C265.577 391.334 265.584 391.239 265.588 391.14C265.616 389.125 265.697 387.111 265.82 385.1C265.94 383.135 265.933 381.163 265.993 379.198" fill="#F7BB92"/>
<path d="M196.969 93.1587C197.925 93.0352 198.768 93.4903 199.636 93.7372C203.583 94.845 207.51 96.0197 211.44 97.1874C211.898 97.325 212.332 97.5402 212.777 97.7201C214.484 96.4713 216.181 95.2048 217.91 93.9842C218.982 93.2292 219.956 92.3649 220.711 91.3066C221.293 90.4917 221.84 89.6344 222.062 88.6255C222.249 87.7788 222.559 86.9604 222.616 86.0855C222.694 84.9636 222.524 83.8736 222.245 82.787C221.575 80.1694 220.951 77.5412 220.256 74.9306C219.797 73.2055 219.222 71.5157 218.746 69.7942C217.945 66.9084 217.254 63.998 216.527 61.0982C216.231 59.9093 215.606 58.8686 215.218 57.7256C213.948 56.1064 212.541 54.7905 210.357 54.3883C208.946 54.1273 207.676 54.2649 206.388 54.7129C204.18 55.4855 202.765 57.073 202.077 59.2637C201.703 60.4526 201.58 61.7085 201.435 62.9538C201.262 64.4319 201.008 65.903 200.779 67.3776C200.624 68.376 200.465 69.3708 200.292 70.3657C199.89 72.687 199.689 75.0365 199.213 77.3436C199.019 78.282 198.969 79.2522 198.846 80.2047C198.757 80.8714 198.662 81.5382 198.553 82.2014C198.295 83.7677 198.006 85.327 197.77 86.8933C197.526 88.5091 197.297 90.1283 197.128 91.7546C197.078 92.2238 196.718 92.6577 196.962 93.1587H196.969Z" fill="#F7BB92"/>
<path d="M275.525 342.601C275.624 342.696 275.712 342.851 275.829 342.883C277.166 343.218 278.531 343.43 279.805 344.009C280.087 344.136 280.461 344.058 280.796 344.076C280.789 343.786 280.771 343.497 280.782 343.208C280.792 342.873 280.983 342.664 281.322 342.657C281.946 342.643 282.556 342.604 283.177 342.816C285.463 343.592 287.672 344.457 289.601 345.998C291.439 347.469 292.91 349.205 294.057 351.233C294.935 352.789 295.51 354.483 296.142 356.144C296.533 357.174 296.833 358.25 296.731 359.383C297.807 360.028 298.975 359.947 300.118 359.704C301.444 359.425 302.714 358.931 303.892 358.243C306.115 356.941 307.589 355.015 308.503 352.637C309.579 349.84 309.734 347 308.994 344.09C308.556 342.365 307.695 340.858 306.704 339.426C305.462 337.627 303.952 336.082 302.252 334.681C299.61 332.504 296.685 330.86 293.577 329.46C288.719 327.273 283.759 325.364 278.715 323.653C276.418 322.874 274.181 321.97 272.079 320.746C271.708 320.531 271.306 320.319 270.893 320.221C269.623 319.917 268.689 320.919 269.038 322.168C269.44 323.618 269.997 325.001 270.699 326.338C272.163 329.125 273.754 331.838 275.342 334.551C276.785 337.016 278.249 339.465 279.699 341.924C279.893 342.255 280.062 342.601 280.221 342.95C280.299 343.123 280.112 343.37 279.928 343.335C279.41 343.232 278.891 343.109 278.372 342.996C277.434 342.791 276.517 342.432 275.525 342.597V342.601Z" fill="#7A4821"/>
<path d="M223.825 406.521C223.67 407.322 223.511 408.123 223.363 408.927C223.31 409.209 223.265 409.495 223.265 409.781C223.265 410.042 223.406 410.271 223.684 410.282C224.697 410.321 225.674 410.589 226.69 410.659C228.179 410.765 229.675 410.818 231.153 410.977C232.162 411.086 233.16 411.199 234.172 411.199C235.044 411.199 235.859 411.584 236.751 411.51C237.612 411.436 238.48 411.464 239.334 411.728C239.736 411.852 240.198 411.771 240.632 411.781C241.306 411.799 241.979 411.732 242.639 411.993C242.897 412.095 243.211 412.063 243.5 412.067C244.463 412.088 245.426 412.028 246.375 412.317C246.774 412.441 247.239 412.349 247.677 412.36C248.446 412.377 249.222 412.296 249.973 412.586C250.231 412.684 250.548 412.638 250.838 412.646C251.751 412.667 252.669 412.593 253.568 412.889C253.921 413.005 254.337 412.931 254.722 412.938C255.59 412.96 256.457 412.878 257.308 413.175C257.615 413.281 257.978 413.221 258.317 413.228C259.135 413.249 259.953 413.178 260.758 413.457C261.107 413.577 261.523 413.51 261.911 413.52C262.68 413.542 263.45 413.475 264.208 413.743C264.557 413.866 264.974 413.803 265.362 413.81C266.275 413.831 267.189 413.764 268.092 414.05C268.491 414.177 268.956 414.092 269.39 414.102C270.064 414.12 270.724 414.155 271.401 414.293C272.195 414.455 273.038 414.416 273.856 414.381C275.373 414.321 276.859 414.54 278.259 415.069C280.605 415.955 282.969 416.865 285.078 418.212C286.634 419.207 288.327 419.916 289.887 420.869C291.531 421.874 293.323 422.615 294.843 423.85C295.701 424.548 296.417 425.243 296.731 426.305C296.847 426.157 297.02 426.023 297.076 425.854C297.539 424.421 297.433 422.993 296.918 421.603C296.727 421.095 296.223 420.819 295.803 420.491C294.388 419.384 292.825 418.516 291.259 417.662C288.377 416.092 285.505 414.494 282.563 413.037C281.103 412.314 279.635 411.552 278.016 411.185C276.552 410.853 275.081 410.614 273.574 410.642C271.204 410.688 268.858 410.349 266.505 410.137C266.311 410.12 266.12 410.098 265.926 410.088C264.095 409.964 262.254 409.943 260.44 409.696C258.81 409.474 257.167 409.52 255.537 409.266C254.207 409.058 252.845 409.114 251.497 408.948C249.776 408.737 248.033 408.709 246.301 408.567C244.572 408.426 242.844 408.243 241.115 408.088C239.817 407.971 238.515 407.943 237.217 407.788C235.397 407.573 233.559 407.544 231.731 407.396C229.569 407.22 227.406 407.015 225.247 406.8C224.771 406.751 224.302 406.61 223.829 406.511L223.825 406.521Z" fill="#DDA781"/>
<path d="M296.728 359.38C296.83 358.248 296.53 357.172 296.139 356.141C295.507 354.48 294.932 352.787 294.054 351.231C292.911 349.202 291.44 347.467 289.598 345.996C287.668 344.454 285.46 343.586 283.174 342.813C282.553 342.602 281.939 342.641 281.318 342.655C280.98 342.662 280.789 342.87 280.779 343.205C280.768 343.494 280.789 343.784 280.793 344.073C281.043 344.288 281.177 344.623 281.516 344.757C282.881 345.294 283.978 346.26 285.065 347.181C286.42 348.327 287.69 349.59 288.819 350.966C289.637 351.965 290.378 353.026 291.147 354.064C291.782 354.921 292.237 355.884 292.597 356.872C292.84 357.535 293.334 358.138 293.242 358.911C293.528 359.084 293.888 359.133 294.089 359.436C294.967 359.496 295.849 359.602 296.724 359.383L296.728 359.38Z" fill="#5B3617"/>
<path d="M294.096 359.432C293.895 359.128 293.531 359.079 293.249 358.906C293.309 359.753 293.641 360.564 293.577 361.429C293.563 361.64 293.771 361.732 293.962 361.788C294.308 361.351 294.159 360.875 294.054 360.409C293.976 360.074 293.898 359.749 294.099 359.432H294.096Z" fill="#7B4923"/>
<path d="M292.967 372.562C292.332 373.66 291.965 374.849 291.817 376.104C292.522 375.028 292.854 373.829 292.967 372.562Z" fill="#7B4923"/>
<path d="M270.837 341.963C270.932 342.062 271.013 342.228 271.126 342.253C271.715 342.369 272.315 342.51 272.876 342.143C272.213 341.896 271.542 341.741 270.837 341.963Z" fill="#7B4923"/>
<path d="M290.991 378.08C290.409 378.542 290.166 379.174 290.074 379.883C290.628 379.407 290.892 378.786 290.991 378.08Z" fill="#7B4923"/>
<path d="M294.039 363.003C293.732 363.479 293.711 363.948 294.074 364.411C294.233 363.938 294.25 363.469 294.039 363.003Z" fill="#7B4923"/>
<path d="M270.283 391.698C269.803 391.338 269.327 391.327 268.854 391.712C269.331 391.853 269.807 391.867 270.283 391.698Z" fill="#7B4923"/>
<path d="M259.851 342.104C260.462 342.442 260.504 342.442 261.016 342.012C260.613 341.86 260.229 341.938 259.851 342.104Z" fill="#7B4923"/>
<path d="M273.783 342.313C274.025 342.581 274.308 342.617 274.63 342.422C274.365 342.246 274.083 342.217 273.783 342.313Z" fill="#7B4923"/>
<path d="M293.866 367.624C293.593 367.88 293.567 368.166 293.788 368.481C293.937 368.206 293.975 367.92 293.866 367.624Z" fill="#7B4923"/>
<path d="M291.605 376.627C291.21 376.757 291.214 377.061 291.267 377.389C291.542 377.206 291.63 376.941 291.605 376.627Z" fill="#7B4923"/>
<path d="M249.592 344.648C249.592 344.93 249.666 345.167 249.941 345.297C249.934 345.054 249.927 344.814 249.92 344.57C249.811 344.595 249.702 344.62 249.589 344.648H249.592Z" fill="#7B4923"/>
<path d="M254.779 342.891C254.906 342.852 255.033 342.809 255.16 342.771C255.005 342.718 254.878 342.764 254.779 342.891Z" fill="#7B4923"/>
<path d="M253.396 343.201C253.494 343.173 253.59 343.145 253.688 343.116C253.561 343.035 253.47 343.088 253.396 343.201Z" fill="#7B4923"/>
<path d="M252.45 343.473C252.584 343.42 252.715 343.367 252.849 343.314C252.679 343.279 252.549 343.332 252.45 343.473Z" fill="#7B4923"/>
<path d="M265.588 391.147C265.588 391.246 265.581 391.341 265.577 391.44C265.697 391.44 265.82 391.44 265.94 391.437C265.82 391.341 265.704 391.246 265.588 391.151V391.147Z" fill="#7B4923"/>
<path d="M266.128 391.468C266.075 391.454 266.019 391.444 265.962 391.437L266.04 391.514L266.128 391.465V391.468Z" fill="#7B4923"/>
<path d="M199.897 415.048C199.971 414.723 199.964 414.374 199.964 414.035C199.974 408.765 200.052 403.494 200.281 398.231C200.309 397.553 200.242 396.862 200.366 396.202C200.673 394.583 200.556 392.932 200.828 391.302C201.064 389.881 201.04 388.417 201.213 386.977C201.481 384.772 201.724 382.567 201.766 380.345C201.77 380.151 201.749 379.95 201.791 379.766C202.229 377.77 202.045 375.724 202.229 373.706C202.483 370.922 202.299 368.104 202.595 365.31C202.652 364.784 202.698 364.255 202.765 363.729C202.888 362.738 203.125 361.722 202.673 360.738C202.885 360.607 203.068 360.452 203.093 360.184C203.287 357.869 203.721 355.587 203.992 353.283C204.321 350.493 204.786 347.738 205.46 345.011C205.753 343.829 206.166 342.703 206.793 341.652C207.439 340.576 207.915 339.405 208.653 338.371C209.51 337.168 210.604 336.234 211.757 335.345C213.359 334.113 215.126 333.245 217.112 332.889C219.762 332.409 222.4 332.254 224.909 333.528C226.373 334.269 227.893 334.939 228.976 336.251C229.968 337.451 230.772 338.766 231.428 340.181C232.451 342.39 233.16 344.69 233.566 347.085C233.591 347.23 233.633 347.371 233.64 347.515C233.725 350.218 234.19 352.913 233.792 355.626C233.749 355.912 233.77 356.204 233.77 356.497C233.756 358.483 233.527 360.452 233.262 362.42C233.217 362.752 233.238 363.094 233.231 363.429C232.698 363.969 232.476 364.65 232.366 365.373C232.063 367.324 231.53 369.225 231.248 371.183C230.909 373.515 230.334 375.812 229.833 378.115C228.655 383.523 227.23 388.879 226.263 394.336C225.868 396.562 225.399 398.778 224.955 400.997C224.584 402.838 224.203 404.676 223.826 406.514C223.67 407.315 223.512 408.116 223.364 408.92C223.311 409.202 223.265 409.488 223.265 409.774C223.265 410.035 223.406 410.264 223.685 410.275C224.697 410.313 225.674 410.582 226.69 410.652C228.179 410.758 229.675 410.811 231.153 410.97C231.492 411.005 231.83 411.04 232.165 411.075L233.425 411.174C233.672 411.185 233.922 411.192 234.169 411.195C234.476 411.195 234.776 411.245 235.076 411.305L237.281 411.474C237.789 411.46 238.297 411.488 238.805 411.591L241.263 411.781C241.56 411.781 241.856 411.795 242.152 411.848L274.971 414.385C276.1 414.445 277.201 414.667 278.256 415.065C280.602 415.951 282.965 416.861 285.075 418.209C286.631 419.203 288.324 419.913 289.883 420.865C291.527 421.871 293.319 422.611 294.84 423.846C295.697 424.545 296.413 425.24 296.727 426.301C296.727 426.979 296.734 427.656 296.734 428.333C296.734 428.997 296.484 429.547 296.043 430.037C295.143 431.039 294.113 431.738 292.716 431.907C291.997 431.995 291.284 432.101 290.557 432.083C286.984 431.995 283.406 432.073 279.829 431.907L211.21 430.947C209.348 430.595 207.552 430.104 205.986 428.947C203.791 427.328 202.239 425.218 201.004 422.823C200.57 421.983 200.5 421.063 200.253 420.184C199.784 418.505 199.498 416.794 199.89 415.037L199.897 415.048Z" fill="#F7BB92"/>
<path d="M256.461 361.68C256.38 361.743 256.277 361.782 256.168 361.81Z" fill="#7A4821"/>
<path d="M257.22 353.806C255.819 351.919 254.267 350.162 252.672 348.433C251.734 347.414 250.753 346.43 249.942 345.297C249.935 345.075 249.931 344.856 249.924 344.634L249.593 344.648C249.839 344.511 250.09 344.384 250.34 344.257C250.82 343.921 251.335 343.664 251.91 343.544C263.679 338.753 279.928 343.339 279.928 343.339L278.083 343.42C278.669 343.576 279.247 343.756 279.804 344.01C280.087 344.137 280.461 344.059 280.796 344.077C281.046 344.292 281.18 344.627 281.519 344.761C282.884 345.297 283.981 346.264 285.068 347.185C286.423 348.331 287.693 349.594 288.821 350.97C289.64 351.968 290.381 353.03 291.15 354.067C291.785 354.925 292.24 355.888 292.6 356.875C292.843 357.539 293.337 358.142 293.245 358.915C293.27 359.271 293.344 359.62 293.415 359.969L294.092 359.44C295.15 365.36 293.245 372.726 293.245 372.726C293.245 372.726 292.811 382.219 281.762 388.188C281.699 388.255 281.632 388.319 281.554 388.364C279.692 389.455 277.72 390.284 275.649 390.88C268.808 393.145 265.577 391.444 265.577 391.444L265.693 391.24C265.658 391.211 265.623 391.183 265.588 391.155C265.616 389.141 265.697 387.126 265.82 385.115C265.94 383.15 265.933 381.178 265.993 379.213C266.011 378.642 266.014 378.053 266.074 377.517L266.226 375.767C266.067 375.121 265.602 374.708 265.129 374.289C262.289 371.759 259.262 369.47 256.175 367.251C255.068 366.453 254.828 366.661 255.35 364.887" fill="#7A4821"/>
</svg>
