<svg width="497" height="497" viewBox="0 0 497 497" fill="none" xmlns="http://www.w3.org/2000/svg">
<path d="M191.086 269.761C191.153 270.231 191.287 270.701 190.884 271.037C190.548 276.815 189.137 282.728 188.6 288.439C188.667 292.471 187.726 296.435 187.256 300.332C187.121 305.102 187.121 310.209 185.979 314.845C185.71 320.892 184.904 326.872 185.106 332.852C185.509 339.84 190.615 344.812 194.781 349.851C198.544 352.874 202.911 355.428 207.077 358.115C211.511 360.467 215.072 364.498 219.843 366.044C221.59 363.893 221.321 360.601 222.531 358.115C223.874 356.032 225.218 354.017 226.831 352.135C239.53 340.377 248.331 348.641 245.308 364.162C252.027 360.265 251.96 351.665 251.758 344.812C251.288 344.005 251.489 343.132 251.355 342.258C250.75 337.622 249.541 332.986 247.458 328.753C236.103 309.335 229.451 300.332 236.237 277.084C236.64 273.523 239.261 270.567 239.798 267.073C226.898 264.52 213.93 260.556 201.299 256.255C198.813 255.516 196.259 254.912 193.84 253.904C193.303 253.837 193.37 254.576 192.9 254.71C192.497 259.749 191.69 264.788 191.086 269.761Z" fill="#FF8AA0"/>
<path d="M193.975 253.968C209.026 259.007 224.479 264.046 239.866 267.137C239.933 267.07 240.068 267.07 240.135 267.07C245.174 255.311 242.554 242.949 240 231.056C239.866 211.772 236.574 191.75 242.15 173.004C242.822 164.202 245.04 155.064 246.652 146.262C247.122 145.792 246.451 144.986 247.257 144.65C247.19 143.508 247.391 142.298 247.055 141.156C239.06 140.887 231.602 137.057 224.076 134.571C221.792 137.729 222.195 142.634 220.582 146.33C218.096 157.685 215.342 168.905 212.52 180.193C212.654 180.664 212.52 181.134 212.184 181.47C211.982 183.351 211.512 185.232 210.907 186.979C210.706 188.861 210.235 190.742 209.631 192.489C205.935 209.152 202.508 225.882 197.402 242.142C196.73 246.106 195.05 250.003 193.975 253.968Z" fill="#3D3C3C"/>
<path d="M245.376 364.293C248.399 348.772 239.597 340.508 226.898 352.266C225.286 354.148 223.942 356.23 222.598 358.246C221.456 360.732 221.657 364.024 219.911 366.175C219.911 367.048 219.843 368.123 219.306 368.795C218.365 372.49 217.156 376.186 216.081 379.747C211.445 395.133 204.86 410.856 206.002 427.116C207.346 436.791 220.515 436.186 227.906 435.85C237.044 435.179 246.182 435.918 255.32 435.514C267.347 434.372 279.777 435.514 291.737 434.641C294.693 434.775 297.448 433.499 300.404 433.499C300.538 433.432 300.673 433.23 300.807 433.23C302.688 433.364 302.823 431.953 303.36 430.61C303.226 426.981 297.918 426.444 295.298 425.436C294.558 425.436 293.685 425.57 293.013 425.234C272.05 423.017 251.019 420.262 229.922 419.994C227.57 419.658 226.428 419.456 227.234 416.769C229.317 412.334 229.72 407.026 232.139 402.86C234.289 393.252 238.992 383.845 242.352 374.573C243.293 371.147 244.771 367.787 245.376 364.293Z" fill="#F6BB92"/>
<path d="M224.009 134.572C231.535 137.058 238.993 140.888 246.988 141.157C249.071 135.446 248.063 128.995 249.004 123.083C248.87 122.747 249.071 122.411 249.205 122.142C249.81 105.882 251.624 89.5549 253.304 73.4293C253.102 68.5244 255.454 64.1571 259.821 61.8055C264.458 51.0551 251.02 42.3876 249.004 32.2419C248.063 27.2699 247.324 20.6181 241.815 18.468C238.858 18.1993 235.364 18.6024 234.222 21.8275C230.863 27.1355 238.858 41.9173 238.925 49.3081C238.993 49.3753 239.06 49.4425 238.993 49.5769C240.874 55.7584 237.918 63.0149 236.91 69.3307C235.7 77.3935 234.155 85.9938 231.938 93.5863C230.191 107.293 226.159 120.865 224.009 134.572Z" fill="#F6BB92"/>
<path d="M259.417 373.564C256.998 371.414 254.781 368.995 253.168 366.173C250.078 368.39 248.465 372.825 247.054 376.386C246.853 377.125 246.651 377.864 245.912 378.2C245.845 383.709 241.209 393.25 244.77 398.088C245.173 398.088 245.374 398.29 245.442 398.693C245.979 398.894 246.517 398.558 246.987 399.029C248.264 398.827 249.607 398.693 250.884 398.961C250.615 397.618 252.564 392.175 254.109 394.594C254.378 396.207 255.722 397.416 255.655 399.096C255.923 399.163 256.125 399.365 256.326 399.566C257.939 399.835 258.073 399.365 258.611 401.582C260.828 406.89 267.547 398.894 271.511 400.104C273.325 399.835 275.14 400.574 276.685 401.313C277.424 401.716 278.365 401.38 278.969 401.918C280.582 401.985 282.194 401.985 283.807 401.918C283.941 401.649 284.21 401.582 284.479 401.716C286.092 401.649 287.637 401.38 288.376 399.633C280.784 397.147 276.551 389.219 274.804 381.962C274.804 379.208 271.914 381.089 270.235 380.081C271.444 378.737 273.594 378.737 274.199 377.058C274.938 373.631 271.444 371.279 268.353 372.287" fill="#F6BB92"/>
<path d="M232.273 402.86C229.787 407.026 229.384 412.334 227.368 416.769C246.181 416.567 264.591 420.733 283.27 421.942C289.586 421.472 296.574 421.942 302.486 419.389C304.838 418.045 303.897 415.089 301.546 414.551C297.716 413.409 293.685 413.006 289.922 411.662C282.195 410.117 273.998 410.251 266.406 408.437C263.449 408.303 260.56 407.698 257.671 407.161C249.138 405.951 240.537 405.078 232.273 402.86Z" fill="#D89D75"/>
<path d="M243.427 375.851C244.233 376.657 245.039 377.396 245.845 378.202C246.585 377.866 246.786 377.127 246.988 376.388C248.399 372.827 250.011 368.393 253.102 366.175C252.968 364.563 255.05 363.824 254.58 362.211C253.236 361.539 251.288 359.053 250.146 358.247C248.466 360.128 247.592 363.018 245.308 364.294C242.15 366.041 243.225 371.147 242.419 374.641C242.62 374.709 242.755 374.91 242.822 375.179L242.889 375.246C243.292 375.246 243.427 375.448 243.427 375.851Z" fill="#ECAD83"/>
<path d="M295.566 350.118C295.365 349.983 295.163 349.916 295.029 349.714C295.029 349.714 290.863 345.414 281.725 347.027C279.374 347.833 279.105 350.991 277.694 350.991C271.512 350.789 265.734 353.477 260.628 356.568C259.082 357.777 257.201 359.054 255.992 360.398C254.916 361.405 254.715 361.876 254.043 362.615C254.043 363.085 253.909 363.488 253.506 363.69C252.027 367.721 256.999 370.879 259.418 373.567C261.904 376.926 264.592 373.432 267.548 372.492C267.75 372.425 267.884 372.29 268.287 372.29C271.378 371.282 274.872 373.634 274.133 377.061C273.528 378.74 271.378 378.74 270.169 380.084C271.848 381.159 274.737 379.278 274.737 381.966C276.619 389.961 282.8 402.727 293.551 399.502C298.187 398.091 302.957 386.803 303.092 385.325C303.159 384.452 303.495 384.048 303.428 383.309C303.696 379.614 304.234 375.65 303.629 371.82C303.293 371.484 303.226 371.148 303.831 371.081C307.056 369.199 306.182 365.101 305.376 362.077C305.309 362.01 301.143 354.216 295.566 350.118ZM297.716 372.357C291.132 372.156 277.694 360.263 278.97 353.746C283.136 360.801 289.586 368.057 297.784 371.282C298.254 371.484 299.127 371.081 299.127 371.82C299.06 372.693 298.12 372.089 297.716 372.357Z" fill="#602F0F"/>
<path d="M253.773 399.634C254.311 399.903 254.781 400.104 255.319 399.634C255.319 399.365 255.453 399.231 255.655 399.096C255.722 397.484 254.378 396.207 254.109 394.595C252.564 392.176 250.616 397.551 250.884 398.962C251.153 399.298 251.355 399.634 251.758 399.836C252.497 399.701 253.438 398.492 253.773 399.634Z" fill="#CC785E"/>
<path d="M297.716 372.355C298.119 372.153 299.06 372.758 299.06 371.817C299.06 371.078 298.186 371.481 297.716 371.28C289.586 368.055 283.068 360.798 278.903 353.743C277.693 360.193 291.131 372.086 297.716 372.355Z" fill="#552000"/>
</svg>
