<svg width="500" height="500" viewBox="0 0 500 500" fill="none" xmlns="http://www.w3.org/2000/svg">
<path d="M206.025 231.037C206.67 230.24 207.133 229.344 207.457 228.37C208.35 225.696 209.26 223.029 210.152 220.355C211.151 217.36 212.174 214.375 213.112 211.363C213.966 208.614 214.647 205.813 214.968 202.949C215.201 200.875 215.109 198.79 214.982 196.701C214.784 193.434 213.578 190.443 212.629 187.381C209.711 177.954 206.745 168.546 203.841 159.116C202.896 156.047 202.095 152.932 201.224 149.842C201.026 149.136 200.846 148.42 200.574 147.743C199.985 146.268 199.901 144.804 200.409 143.29C200.839 142.01 201.146 140.683 201.615 139.417C203.439 134.52 204.377 129.426 205.037 124.272C205.365 121.7 205.672 119.125 205.912 116.543C206.106 114.408 206.212 112.267 206.311 110.126C206.596 103.871 206.97 97.6198 207.097 91.3579C207.193 86.6237 207.528 81.8929 207.785 77.1621C207.842 76.1532 207.955 75.1407 208.343 74.1812C208.441 73.9413 208.371 73.6308 208.378 73.3557C207.951 73.2287 207.528 73.0981 207.101 72.9747C203.238 71.8458 199.379 70.7063 195.505 69.6056C194.708 69.3798 193.939 68.9777 193.067 69.0482C191.557 72.0751 190.312 75.2113 189.106 78.3651C186.241 85.8511 183.856 93.4922 181.68 101.2C178.198 113.527 175.358 126.004 172.984 138.588C171.759 145.072 170.687 151.581 169.759 158.114C169.068 162.972 168.422 167.837 167.911 172.716C167.417 177.429 167.032 182.149 166.718 186.88C166.454 190.88 166.358 194.884 166.309 198.888C166.246 203.852 166.376 208.819 167.004 213.754C167.247 215.656 167.516 217.554 167.71 219.462C167.844 220.764 168.168 222.017 168.574 223.248C169.191 225.121 169.872 226.977 170.535 228.832C170.609 229.04 170.754 229.224 170.863 229.421C171.368 229.443 171.886 229.4 172.38 229.492C174.546 229.901 176.737 230 178.928 230.12C179.771 230.166 180.618 230.159 181.464 230.208C184.668 230.391 187.867 230.624 191.074 230.776C194.845 230.952 198.617 231.062 202.388 231.203C202.67 231.213 202.956 231.224 203.227 231.288C204.194 231.513 205.129 231.446 206.035 231.041L206.025 231.037Z" fill="#6A6D66"/>
<path d="M218.923 423.453C219.029 421.428 219.159 419.406 219.237 417.381C219.35 414.397 219.551 411.416 219.685 408.435C219.773 406.526 219.776 404.6 219.981 402.702C220.221 400.452 220.112 398.19 220.341 395.954C220.546 393.925 220.457 391.893 220.662 389.879C220.891 387.628 220.814 385.37 221.018 383.13C221.159 381.613 221.152 380.089 221.322 378.579C221.498 377.016 221.808 375.468 222.066 373.912C222.599 370.695 223.131 367.477 223.668 364.26C224.084 361.766 224.521 359.272 224.92 356.774C225.424 353.61 225.887 350.435 226.395 347.27C226.793 344.772 227.252 342.282 227.636 339.781C227.834 338.504 227.919 337.209 228.07 335.925C228.169 335.089 228.282 334.253 228.409 333.42C228.458 333.092 228.804 333.053 229.026 332.894C228.268 332.559 228.384 331.896 228.48 331.293C229.016 327.938 229.104 324.562 229.072 321.172C229.051 319.076 228.832 317.005 228.37 314.966C227.665 311.851 226.412 308.973 224.444 306.432C224.137 306.034 223.795 305.635 223.389 305.349C222.098 304.436 220.718 303.674 219.212 303.155C217.632 302.612 216.033 302.432 214.382 302.746C214.107 302.799 213.825 302.82 213.543 302.855C209.359 303.423 206.23 305.635 203.951 309.103C203.302 310.091 202.79 311.167 202.25 312.222C201.996 312.719 201.767 313.245 201.615 313.784C201.012 315.958 200.469 318.145 200.222 320.395C200.098 321.514 199.943 322.629 199.788 323.747C199.499 325.867 199.202 327.987 198.906 330.107C198.899 332.478 198.966 334.852 198.864 337.216C198.793 338.846 198.514 340.469 198.641 342.105C199.146 348.695 198.853 355.299 198.924 361.896C198.994 368.444 198.797 374.999 199.033 381.536C199.248 387.402 199.142 393.265 199.241 399.129C199.259 400.141 199.322 401.157 199.037 402.155C198.948 402.466 198.955 402.843 199.037 403.161C199.273 404.11 199.213 405.069 199.224 406.025C199.255 409.977 199.252 413.928 199.315 417.879C199.351 420.186 199.509 422.493 199.562 424.8C199.615 427.058 199.615 429.316 199.619 431.574C199.622 434.283 199.619 436.992 199.59 439.702C199.566 442.03 200.479 443.956 201.975 445.681C203.355 447.272 205.161 447.897 207.168 448.207C209.126 448.511 211.098 448.482 213.063 448.606C215.427 448.754 217.783 448.923 220.154 448.902C223.484 448.874 226.814 448.934 230.145 448.888C232.395 448.856 234.65 448.666 236.851 448.204C239.786 447.59 241.776 445.805 242.718 442.944C243.134 441.684 243.197 440.397 242.464 439.19C242.248 438.837 242.188 438.456 242.203 438.054C241.645 438.139 241.218 437.906 240.866 437.5C240.291 436.837 239.525 436.537 238.71 436.259C236.325 435.444 233.888 434.816 231.453 434.17C228.317 433.338 225.195 432.463 222.07 431.602C221.205 431.366 220.337 431.143 219.487 430.868C219.064 430.734 218.598 430.544 218.595 429.986C218.584 428.864 218.443 427.707 218.665 426.628C218.884 425.562 218.852 424.511 218.923 423.453Z" fill="#F7BB92"/>
<path d="M198.909 330.107C199.202 327.987 199.502 325.867 199.791 323.747C199.943 322.632 200.101 321.517 200.225 320.395C200.472 318.144 201.015 315.957 201.618 313.784C201.767 313.244 201.996 312.722 202.253 312.221C202.793 311.166 203.305 310.091 203.954 309.103C206.233 305.631 209.362 303.423 213.546 302.855C213.825 302.816 214.107 302.799 214.385 302.746C216.033 302.432 217.635 302.612 219.215 303.155C220.721 303.673 222.101 304.435 223.392 305.349C223.798 305.635 224.14 306.037 224.447 306.432C226.415 308.972 227.664 311.851 228.373 314.966C228.835 317.005 229.054 319.076 229.075 321.171C229.11 324.558 229.019 327.938 228.483 331.293C228.387 331.896 228.271 332.559 229.029 332.894C229.248 332.831 229.467 332.767 229.685 332.704C229.763 332.146 229.851 331.592 229.911 331.035C230.077 329.532 230.313 328.029 230.37 326.523C230.564 321.584 230.55 316.645 230.405 311.706C229.837 310.299 229.442 308.835 228.733 307.473C227.389 304.908 225.681 302.597 223.826 300.4C222.224 298.502 220.711 296.544 219.215 294.565C218.979 294.251 218.756 293.919 218.569 293.577C217.148 290.952 215.68 288.349 214.333 285.685C213.183 283.406 212.657 280.912 212.114 278.432C211.464 275.462 210.748 272.502 210.053 269.542C210.018 269.383 209.898 269.246 209.821 269.098C209.059 269.549 208.17 269.355 207.358 269.599C204.931 270.322 202.437 270.738 199.953 271.225C191.624 272.862 183.306 274.555 174.994 276.263C173.35 276.601 171.66 276.785 170.105 277.487C170.239 280.245 170.443 283.004 170.493 285.766C170.553 288.98 170.535 292.201 170.45 295.415C170.355 299.094 170.581 302.76 171.011 306.393C171.572 311.11 173.234 315.492 176.095 319.323C178.018 321.902 180.522 323.859 183.521 325.034C186.774 326.308 189.994 327.68 193.402 328.527C194.439 328.784 195.441 329.183 196.461 329.518C197.265 329.779 198.066 330.058 198.923 330.104L198.909 330.107Z" fill="#8A8AD9"/>
<path d="M170.094 277.495C171.65 276.793 173.343 276.609 174.984 276.27C183.299 274.56 191.614 272.866 199.943 271.233C202.426 270.746 204.921 270.326 207.348 269.607C208.159 269.363 209.048 269.557 209.81 269.106C209.799 267.515 209.288 266.012 208.932 264.488C207.926 260.173 206.984 255.848 206.328 251.463C206.039 249.523 205.718 247.59 205.439 245.649C205.369 245.152 205.383 244.64 205.383 244.136C205.376 242.619 205.294 241.095 205.4 239.582C205.559 237.292 205.538 234.988 205.968 232.716C206.071 232.173 206.007 231.598 206.021 231.037C205.115 231.443 204.18 231.51 203.213 231.284C202.941 231.221 202.656 231.21 202.373 231.2C198.602 231.058 194.828 230.949 191.06 230.773C187.857 230.621 184.653 230.392 181.45 230.205C180.607 230.155 179.76 230.162 178.914 230.116C176.723 229.997 174.532 229.898 172.366 229.489C171.872 229.397 171.357 229.439 170.849 229.418C170.817 229.982 170.849 230.54 170.966 231.097C171.22 232.265 171.191 233.461 171.015 234.625C170.895 235.412 170.853 236.188 170.828 236.974C170.74 239.839 170.511 242.697 170.214 245.547C170.14 246.274 170.137 247.011 170.144 247.741C170.182 251.569 169.646 255.382 169.798 259.214C169.219 262.456 169.54 265.726 169.477 268.986C169.456 270.051 169.533 271.106 169.678 272.175C169.876 273.618 169.798 275.096 169.84 276.56C169.851 276.891 169.777 277.244 170.087 277.495H170.094Z" fill="#F7BB92"/>
<path d="M259.806 359.872C261.235 360.514 262.766 360.496 264.265 360.408C269.327 360.108 273.924 358.468 278.016 355.445C280.63 353.511 282.744 351.137 284.299 348.28C284.483 347.941 284.733 347.613 284.677 347.186C284.613 346.791 284.613 346.428 285.097 346.29C285.414 345.842 285.714 345.383 285.679 344.798C285.788 343.69 286.169 342.66 286.568 341.637C286.582 341.598 286.659 341.58 286.709 341.552C287.231 340.007 287.57 338.427 287.601 336.79C287.182 336.328 287.178 335.883 287.658 335.456C287.834 334.451 287.996 333.445 287.714 332.433C287.608 332.309 287.429 332.197 287.411 332.066C287.252 330.828 287.122 329.586 286.984 328.344C286.723 326.831 286.166 325.416 285.305 324.157C283.908 322.114 282.419 320.149 280.63 318.406C278.881 316.703 277.007 315.203 274.824 314.11C274.714 314.099 274.591 314.117 274.492 314.074C272.965 313.397 271.388 312.896 269.716 312.706C269.589 312.691 269.486 312.487 269.373 312.374C269.056 312.138 268.703 312.099 268.326 312.173C267.949 312.406 267.621 312.362 267.341 312.042C267.116 311.88 266.869 311.831 266.6 311.908C265.62 312.279 264.618 312.081 263.627 312.007C263.496 311.996 263.376 311.802 263.253 311.697C261.348 311.411 259.443 311.432 257.538 311.714C256.931 312.205 256.881 312.208 256.183 311.806C254.789 311.665 253.438 311.961 252.084 312.219C252.003 312.342 251.907 312.367 251.794 312.261C250.616 312.332 249.47 312.557 248.348 312.924C248.207 312.974 248.062 313.023 247.921 313.072C247.579 313.048 247.258 313.104 246.975 313.312C246.863 313.355 246.75 313.393 246.637 313.436C245.847 313.503 245.208 313.877 244.651 314.42C244.651 314.572 244.651 314.723 244.651 314.875C245.264 316.046 246.295 316.872 247.148 317.842C248.676 319.578 250.256 321.267 251.66 323.109C252.112 323.702 252.253 324.284 252.087 324.996C251.403 327.963 250.778 330.941 250.055 333.897C249.653 335.551 249.381 335.47 251.036 336.645C253.936 338.702 256.754 340.861 259.418 343.224C260.258 343.972 260.617 344.748 260.55 345.867C260.388 348.682 260.342 351.504 260.205 354.319C260.113 356.175 259.944 358.027 259.81 359.883L259.806 359.872Z" fill="#7A4821"/>
<path d="M259.806 359.871C259.94 358.015 260.11 356.163 260.201 354.308C260.339 351.489 260.385 348.67 260.547 345.855C260.611 344.737 260.254 343.961 259.415 343.213C256.751 340.849 253.932 338.69 251.033 336.634C249.378 335.459 249.646 335.54 250.052 333.885C250.772 330.929 251.399 327.948 252.084 324.985C252.25 324.272 252.109 323.69 251.657 323.097C250.253 321.252 248.676 319.563 247.145 317.83C246.291 316.86 245.261 316.035 244.647 314.864C244.457 314.804 244.358 314.662 244.319 314.472C240.439 314.356 236.653 313.639 232.921 312.63C232.06 312.398 231.238 312.027 230.399 311.717C230.543 316.656 230.557 321.595 230.363 326.533C230.303 328.04 230.067 329.543 229.905 331.046C229.845 331.603 229.757 332.157 229.679 332.714C230.145 332.94 230.533 333.268 230.843 333.674C231.344 334.326 231.527 334.997 231.277 335.872C230.536 338.461 229.887 341.079 229.241 343.696C229.026 344.564 228.846 345.46 228.808 346.353C228.733 348.028 229.301 349.432 230.804 350.364C232.004 351.108 233.253 351.683 234.635 352.05C237.02 352.681 236.569 352.71 237.073 354.551C237.489 356.068 237.839 357.603 238.223 359.127C238.29 359.398 238.364 359.67 238.463 359.931C238.685 360.527 239.147 360.929 239.909 360.7C241.684 360.171 243.487 359.726 245.265 359.208C247.043 358.689 248.859 358.294 250.581 357.589C251.138 357.359 251.668 357.479 252.218 357.68C253.851 358.284 255.467 358.95 257.174 359.331C258.049 359.525 258.885 359.903 259.806 359.885V359.871Z" fill="#F6BB92"/>
<path d="M193.064 69.0408C193.935 68.9737 194.704 69.3724 195.502 69.5982C199.375 70.6988 203.235 71.8383 207.097 72.9672C207.524 73.0907 207.948 73.2212 208.375 73.3482C209.151 73.2529 209.655 72.6673 210.241 72.2616C211.391 71.4644 212.435 70.5083 213.603 69.7393C215.007 68.815 216.023 67.552 216.919 66.1938C217.441 65.4036 217.677 64.4405 217.861 63.5021C218.302 61.2303 218.309 61.2232 217.716 58.8596C216.774 55.099 215.829 51.3419 214.7 47.6306C214.079 45.5951 213.585 43.5137 213.059 41.4464C212.495 39.2239 212.177 36.8991 210.999 34.8706C209.916 33.0044 208.477 31.6215 206.198 31.2758C205.129 31.1135 204.131 30.9795 203.044 31.2617C201.008 31.7909 199.52 32.9268 198.571 34.7895C198.059 35.7949 197.745 36.8462 197.576 37.9821C197.057 41.4147 196.673 44.8684 196.013 48.2833C195.78 49.4827 195.562 50.7069 195.533 51.9522C195.512 52.8976 195.311 53.8431 195.149 54.7815C194.775 56.9334 194.366 59.0748 194.168 61.2585C194.016 62.9271 193.639 64.5746 193.381 66.2362C193.237 67.164 192.962 68.0812 193.067 69.0372L193.064 69.0408Z" fill="#F7BC94"/>
<path d="M269.37 312.363C269.483 312.48 269.589 312.681 269.712 312.695C271.381 312.885 272.958 313.386 274.489 314.064C274.584 314.106 274.707 314.088 274.817 314.099C274.817 313.986 274.817 313.873 274.806 313.764C274.707 312.324 275.117 312.406 276.274 312.43C276.602 312.437 276.93 312.55 277.251 312.635C278.729 313.016 280.098 313.665 281.424 314.395C283.619 315.605 285.418 317.277 286.829 319.324C287.88 320.844 288.677 322.52 289.295 324.27C289.63 325.215 290.074 326.125 290.258 327.123C290.36 327.684 290.477 328.231 290.096 328.736C291.376 329.364 292.696 329.374 294.05 329.007C297.977 327.945 300.707 325.617 302.016 321.687C303.568 317.023 302.707 312.801 299.822 308.92C297.211 305.41 293.828 302.821 289.958 300.859C286.437 299.074 282.793 297.554 279.092 296.188C276.926 295.388 274.753 294.597 272.573 293.839C270.492 293.116 268.453 292.308 266.541 291.2C266.153 290.974 265.743 290.78 265.327 290.607C264.752 290.367 264.212 290.491 263.754 290.893C263.284 291.302 263.15 291.846 263.33 292.431C263.711 293.67 264.113 294.894 264.713 296.054C266.29 299.113 268.047 302.069 269.779 305.04C270.972 307.086 272.196 309.111 273.399 311.153C273.628 311.541 273.84 311.936 274.027 312.346C274.175 312.67 273.882 313.041 273.508 312.984C272.898 312.889 272.291 312.765 271.691 312.614C270.922 312.423 270.16 312.24 269.359 312.36L269.37 312.363Z" fill="#7B4922"/>
<path d="M218.923 423.453C218.856 424.511 218.884 425.559 218.665 426.628C218.443 427.708 218.584 428.865 218.595 429.987C218.602 430.544 219.067 430.731 219.487 430.868C220.337 431.144 221.205 431.366 222.069 431.602C225.195 432.463 228.321 433.338 231.453 434.171C233.888 434.816 236.325 435.444 238.71 436.259C239.521 436.538 240.287 436.838 240.865 437.501C241.218 437.906 241.645 438.136 242.203 438.055C243.092 437.3 243.614 436.308 243.949 435.225C244.704 432.795 244.287 431.722 242.365 429.821C241.335 428.801 239.987 428.314 238.622 427.979C233.658 426.762 228.681 425.587 223.703 424.43C222.119 424.06 220.56 423.562 218.919 423.453H218.923Z" fill="#DEA882"/>
<path d="M290.106 328.741C290.487 328.236 290.367 327.69 290.269 327.129C290.089 326.127 289.641 325.22 289.305 324.275C288.688 322.525 287.887 320.849 286.84 319.329C285.428 317.283 283.629 315.607 281.435 314.401C280.105 313.67 278.74 313.021 277.262 312.64C276.937 312.555 276.612 312.443 276.284 312.436C275.124 312.411 274.715 312.33 274.817 313.769C274.824 313.882 274.824 313.995 274.827 314.104C277.015 315.198 278.888 316.697 280.634 318.401C282.423 320.144 283.911 322.109 285.308 324.151C286.169 325.411 286.727 326.822 286.988 328.339C287.471 328.695 288.092 328.568 288.61 328.797C289.118 328.963 289.623 329.016 290.113 328.741H290.106Z" fill="#5C3617"/>
<path d="M288.604 328.798C288.085 328.566 287.464 328.693 286.981 328.34C287.118 329.582 287.249 330.823 287.408 332.062C287.425 332.196 287.605 332.309 287.711 332.429C287.873 331.603 287.824 330.77 287.771 329.941C287.722 329.169 287.707 329.169 288.604 328.798Z" fill="#7B4922"/>
<path d="M263.249 311.681C263.373 311.79 263.493 311.984 263.623 311.991C264.618 312.069 265.616 312.263 266.597 311.892C265.504 311.448 264.371 311.649 263.249 311.677V311.681Z" fill="#7B4922"/>
<path d="M286.709 341.549C286.66 341.577 286.582 341.591 286.568 341.633C286.169 342.657 285.788 343.69 285.679 344.794C286.36 343.821 286.649 342.72 286.709 341.549Z" fill="#7B4922"/>
<path d="M256.176 311.791C256.875 312.193 256.928 312.19 257.531 311.699C257.065 311.505 256.617 311.604 256.176 311.791Z" fill="#7B4922"/>
<path d="M287.658 335.451C287.178 335.875 287.182 336.323 287.602 336.785C287.782 336.347 287.785 335.903 287.658 335.451Z" fill="#7B4922"/>
<path d="M267.338 312.031C267.62 312.349 267.948 312.392 268.322 312.162C268.012 311.971 267.687 311.919 267.338 312.031Z" fill="#7B4922"/>
<path d="M285.093 346.285C284.61 346.423 284.61 346.79 284.673 347.181C284.994 346.966 285.09 346.649 285.093 346.285Z" fill="#7B4922"/>
<path d="M251.787 312.245C251.9 312.351 251.996 312.327 252.077 312.203C251.967 312.14 251.872 312.154 251.787 312.245Z" fill="#7B4922"/>
<path d="M247.914 313.056C248.055 313.007 248.2 312.958 248.341 312.908C248.161 312.848 248.02 312.905 247.914 313.056Z" fill="#7B4922"/>
<path d="M246.63 313.42C246.742 313.378 246.855 313.339 246.968 313.297C246.813 313.223 246.711 313.286 246.63 313.42Z" fill="#7B4922"/>
<path d="M244.319 314.464C244.358 314.655 244.453 314.792 244.647 314.856C244.647 314.704 244.647 314.552 244.647 314.401C244.531 314.387 244.421 314.408 244.322 314.464H244.319Z" fill="#7B4922"/>
</svg>
