<svg width="500" height="500" viewBox="0 0 500 500" fill="none" xmlns="http://www.w3.org/2000/svg">
<path d="M206.025 241.037C206.67 240.24 207.133 239.344 207.457 238.37C208.35 235.696 209.26 233.029 210.152 230.355C211.151 227.36 212.174 224.375 213.112 221.363C213.966 218.614 214.647 215.813 214.968 212.949C215.201 210.875 215.109 208.79 214.982 206.701C214.784 203.434 213.578 200.443 212.629 197.381C209.711 187.954 206.745 178.546 203.841 169.116C202.896 166.047 202.095 162.932 201.224 159.842C201.026 159.136 200.846 158.42 200.574 157.743C199.985 156.268 199.901 154.804 200.409 153.29C200.839 152.01 201.146 150.683 201.615 149.417C203.439 144.52 204.377 139.426 205.037 134.272C205.365 131.7 205.672 129.125 205.912 126.543C206.106 124.408 206.212 122.267 206.311 120.126C206.596 113.871 206.97 107.62 207.097 101.358C207.193 96.6237 207.528 91.8929 207.785 87.1621C207.842 86.1532 207.955 85.1407 208.343 84.1812C208.441 83.9413 208.371 83.6308 208.378 83.3557C207.951 83.2287 207.528 83.0981 207.101 82.9747C203.238 81.8458 199.379 80.7063 195.505 79.6056C194.708 79.3798 193.939 78.9777 193.067 79.0482C191.557 82.0751 190.312 85.2113 189.106 88.3651C186.241 95.8511 183.856 103.492 181.68 111.2C178.198 123.527 175.358 136.004 172.984 148.588C171.759 155.072 170.687 161.581 169.759 168.114C169.068 172.972 168.422 177.837 167.911 182.716C167.417 187.429 167.032 192.149 166.718 196.88C166.454 200.88 166.358 204.884 166.309 208.888C166.246 213.852 166.376 218.819 167.004 223.754C167.247 225.656 167.516 227.554 167.71 229.462C167.844 230.764 168.168 232.017 168.574 233.248C169.191 235.121 169.872 236.977 170.535 238.832C170.609 239.04 170.754 239.224 170.863 239.421C171.368 239.443 171.886 239.4 172.38 239.492C174.546 239.901 176.737 240 178.928 240.12C179.771 240.166 180.618 240.159 181.464 240.208C184.668 240.391 187.867 240.624 191.074 240.776C194.845 240.952 198.617 241.062 202.388 241.203C202.67 241.213 202.956 241.224 203.227 241.288C204.194 241.513 205.129 241.446 206.035 241.041L206.025 241.037Z" fill="#6A6D66"/>
<path d="M218.923 433.453C219.029 431.428 219.159 429.406 219.237 427.381C219.35 424.397 219.551 421.416 219.685 418.435C219.773 416.526 219.776 414.6 219.981 412.702C220.221 410.452 220.112 408.19 220.341 405.954C220.546 403.925 220.457 401.893 220.662 399.879C220.891 397.628 220.814 395.37 221.018 393.13C221.159 391.613 221.152 390.089 221.322 388.579C221.498 387.016 221.808 385.468 222.066 383.912C222.599 380.695 223.131 377.477 223.668 374.26C224.084 371.766 224.521 369.272 224.92 366.774C225.424 363.61 225.887 360.435 226.395 357.27C226.793 354.772 227.252 352.282 227.636 349.781C227.834 348.504 227.919 347.209 228.07 345.925C228.169 345.089 228.282 344.253 228.409 343.42C228.458 343.092 228.804 343.053 229.026 342.894C228.268 342.559 228.384 341.896 228.48 341.293C229.016 337.938 229.104 334.562 229.072 331.172C229.051 329.076 228.832 327.005 228.37 324.966C227.665 321.851 226.412 318.973 224.444 316.432C224.137 316.034 223.795 315.635 223.389 315.349C222.098 314.436 220.718 313.674 219.212 313.155C217.632 312.612 216.033 312.432 214.382 312.746C214.107 312.799 213.825 312.82 213.543 312.855C209.359 313.423 206.23 315.635 203.951 319.103C203.302 320.091 202.79 321.167 202.25 322.222C201.996 322.719 201.767 323.245 201.615 323.784C201.012 325.958 200.469 328.145 200.222 330.395C200.098 331.514 199.943 332.629 199.788 333.747C199.499 335.867 199.202 337.987 198.906 340.107C198.899 342.478 198.966 344.852 198.864 347.216C198.793 348.846 198.514 350.469 198.641 352.105C199.146 358.695 198.853 365.299 198.924 371.896C198.994 378.444 198.797 384.999 199.033 391.536C199.248 397.402 199.142 403.265 199.241 409.129C199.259 410.141 199.322 411.157 199.037 412.155C198.948 412.466 198.955 412.843 199.037 413.161C199.273 414.11 199.213 415.069 199.224 416.025C199.255 419.977 199.252 423.928 199.315 427.879C199.351 430.186 199.509 432.493 199.562 434.8C199.615 437.058 199.615 439.316 199.619 441.574C199.622 444.283 199.619 446.992 199.59 449.702C199.566 452.03 200.479 453.956 201.975 455.681C203.355 457.272 205.161 457.897 207.168 458.207C209.126 458.511 211.098 458.482 213.063 458.606C215.427 458.754 217.783 458.923 220.154 458.902C223.484 458.874 226.814 458.934 230.145 458.888C232.395 458.856 234.65 458.666 236.851 458.204C239.786 457.59 241.776 455.805 242.718 452.944C243.134 451.684 243.197 450.397 242.464 449.19C242.248 448.837 242.188 448.456 242.203 448.054C241.645 448.139 241.218 447.906 240.866 447.5C240.291 446.837 239.525 446.537 238.71 446.259C236.325 445.444 233.888 444.816 231.453 444.17C228.317 443.338 225.195 442.463 222.07 441.602C221.205 441.366 220.337 441.143 219.487 440.868C219.064 440.734 218.598 440.544 218.595 439.986C218.584 438.864 218.443 437.707 218.665 436.628C218.884 435.562 218.852 434.511 218.923 433.453Z" fill="#F7BB92"/>
<path d="M198.909 340.107C199.202 337.987 199.502 335.867 199.791 333.747C199.943 332.632 200.101 331.517 200.225 330.395C200.472 328.144 201.015 325.957 201.618 323.784C201.767 323.244 201.996 322.722 202.253 322.221C202.793 321.166 203.305 320.091 203.954 319.103C206.233 315.631 209.362 313.423 213.546 312.855C213.825 312.816 214.107 312.799 214.385 312.746C216.033 312.432 217.635 312.612 219.215 313.155C220.721 313.673 222.101 314.435 223.392 315.349C223.798 315.635 224.14 316.037 224.447 316.432C226.415 318.972 227.664 321.851 228.373 324.966C228.835 327.005 229.054 329.076 229.075 331.171C229.11 334.558 229.019 337.938 228.483 341.293C228.387 341.896 228.271 342.559 229.029 342.894C229.248 342.831 229.467 342.767 229.685 342.704C229.763 342.146 229.851 341.592 229.911 341.035C230.077 339.532 230.313 338.029 230.37 336.523C230.564 331.584 230.55 326.645 230.405 321.706C229.837 320.299 229.442 318.835 228.733 317.473C227.389 314.908 225.681 312.597 223.826 310.4C222.224 308.502 220.711 306.544 219.215 304.565C218.979 304.251 218.756 303.919 218.569 303.577C217.148 300.952 215.68 298.349 214.333 295.685C213.183 293.406 212.657 290.912 212.114 288.432C211.464 285.462 210.748 282.502 210.053 279.542C210.018 279.383 209.898 279.246 209.821 279.098C209.059 279.549 208.17 279.355 207.358 279.599C204.931 280.322 202.437 280.738 199.953 281.225C191.624 282.862 183.306 284.555 174.994 286.263C173.35 286.601 171.66 286.785 170.105 287.487C170.239 290.245 170.443 293.004 170.493 295.766C170.553 298.98 170.535 302.201 170.45 305.415C170.355 309.094 170.581 312.76 171.011 316.393C171.572 321.11 173.234 325.492 176.095 329.323C178.018 331.902 180.522 333.859 183.521 335.034C186.774 336.308 189.994 337.68 193.402 338.527C194.439 338.784 195.441 339.183 196.461 339.518C197.265 339.779 198.066 340.058 198.923 340.104L198.909 340.107Z" fill="#8A8AD9"/>
<path d="M170.094 287.495C171.65 286.793 173.343 286.609 174.984 286.27C183.299 284.56 191.614 282.866 199.943 281.233C202.426 280.746 204.921 280.326 207.348 279.607C208.159 279.363 209.048 279.557 209.81 279.106C209.799 277.515 209.288 276.012 208.932 274.488C207.926 270.173 206.984 265.848 206.328 261.463C206.039 259.523 205.718 257.59 205.439 255.649C205.369 255.152 205.383 254.64 205.383 254.136C205.376 252.619 205.294 251.095 205.4 249.582C205.559 247.292 205.538 244.988 205.968 242.716C206.071 242.173 206.007 241.598 206.021 241.037C205.115 241.443 204.18 241.51 203.213 241.284C202.941 241.221 202.656 241.21 202.373 241.2C198.602 241.058 194.828 240.949 191.06 240.773C187.857 240.621 184.653 240.392 181.45 240.205C180.607 240.155 179.76 240.162 178.914 240.116C176.723 239.997 174.532 239.898 172.366 239.489C171.872 239.397 171.357 239.439 170.849 239.418C170.817 239.982 170.849 240.54 170.966 241.097C171.22 242.265 171.191 243.461 171.015 244.625C170.895 245.412 170.853 246.188 170.828 246.974C170.74 249.839 170.511 252.697 170.214 255.547C170.14 256.274 170.137 257.011 170.144 257.741C170.182 261.569 169.646 265.382 169.798 269.214C169.219 272.456 169.54 275.726 169.477 278.986C169.456 280.051 169.533 281.106 169.678 282.175C169.876 283.618 169.798 285.096 169.84 286.56C169.851 286.891 169.777 287.244 170.087 287.495H170.094Z" fill="#F7BB92"/>
<path d="M259.806 369.872C261.235 370.514 262.766 370.496 264.265 370.408C269.327 370.108 273.924 368.468 278.016 365.445C280.63 363.511 282.744 361.137 284.299 358.28C284.483 357.941 284.733 357.613 284.677 357.186C284.613 356.791 284.613 356.428 285.097 356.29C285.414 355.842 285.714 355.383 285.679 354.798C285.788 353.69 286.169 352.66 286.568 351.637C286.582 351.598 286.659 351.58 286.709 351.552C287.231 350.007 287.57 348.427 287.601 346.79C287.182 346.328 287.178 345.883 287.658 345.456C287.834 344.451 287.996 343.445 287.714 342.433C287.608 342.309 287.429 342.197 287.411 342.066C287.252 340.828 287.122 339.586 286.984 338.344C286.723 336.831 286.166 335.416 285.305 334.157C283.908 332.114 282.419 330.149 280.63 328.406C278.881 326.703 277.007 325.203 274.824 324.11C274.714 324.099 274.591 324.117 274.492 324.074C272.965 323.397 271.388 322.896 269.716 322.706C269.589 322.691 269.486 322.487 269.373 322.374C269.056 322.138 268.703 322.099 268.326 322.173C267.949 322.406 267.621 322.362 267.341 322.042C267.116 321.88 266.869 321.831 266.6 321.908C265.62 322.279 264.618 322.081 263.627 322.007C263.496 321.996 263.376 321.802 263.253 321.697C261.348 321.411 259.443 321.432 257.538 321.714C256.931 322.205 256.881 322.208 256.183 321.806C254.789 321.665 253.438 321.961 252.084 322.219C252.003 322.342 251.907 322.367 251.794 322.261C250.616 322.332 249.47 322.557 248.348 322.924C248.207 322.974 248.062 323.023 247.921 323.072C247.579 323.048 247.258 323.104 246.975 323.312C246.863 323.355 246.75 323.393 246.637 323.436C245.847 323.503 245.208 323.877 244.651 324.42C244.651 324.572 244.651 324.723 244.651 324.875C245.264 326.046 246.295 326.872 247.148 327.842C248.676 329.578 250.256 331.267 251.66 333.109C252.112 333.702 252.253 334.284 252.087 334.996C251.403 337.963 250.778 340.941 250.055 343.897C249.653 345.551 249.381 345.47 251.036 346.645C253.936 348.702 256.754 350.861 259.418 353.224C260.258 353.972 260.617 354.748 260.55 355.867C260.388 358.682 260.342 361.504 260.205 364.319C260.113 366.175 259.944 368.027 259.81 369.883L259.806 369.872Z" fill="#7A4821"/>
<path d="M259.806 369.871C259.94 368.015 260.11 366.163 260.201 364.308C260.339 361.489 260.385 358.67 260.547 355.855C260.611 354.737 260.254 353.961 259.415 353.213C256.751 350.849 253.932 348.69 251.033 346.634C249.378 345.459 249.646 345.54 250.052 343.885C250.772 340.929 251.399 337.948 252.084 334.985C252.25 334.272 252.109 333.69 251.657 333.097C250.253 331.252 248.676 329.563 247.145 327.83C246.291 326.86 245.261 326.035 244.647 324.864C244.457 324.804 244.358 324.662 244.319 324.472C240.439 324.356 236.653 323.639 232.921 322.63C232.06 322.398 231.238 322.027 230.399 321.717C230.543 326.656 230.557 331.595 230.363 336.533C230.303 338.04 230.067 339.543 229.905 341.046C229.845 341.603 229.757 342.157 229.679 342.714C230.145 342.94 230.533 343.268 230.843 343.674C231.344 344.326 231.527 344.997 231.277 345.872C230.536 348.461 229.887 351.079 229.241 353.696C229.026 354.564 228.846 355.46 228.808 356.353C228.733 358.028 229.301 359.432 230.804 360.364C232.004 361.108 233.253 361.683 234.635 362.05C237.02 362.681 236.569 362.71 237.073 364.551C237.489 366.068 237.839 367.603 238.223 369.127C238.29 369.398 238.364 369.67 238.463 369.931C238.685 370.527 239.147 370.929 239.909 370.7C241.684 370.171 243.487 369.726 245.265 369.208C247.043 368.689 248.859 368.294 250.581 367.589C251.138 367.359 251.668 367.479 252.218 367.68C253.851 368.284 255.467 368.95 257.174 369.331C258.049 369.525 258.885 369.903 259.806 369.885V369.871Z" fill="#F6BB92"/>
<path d="M193.064 79.0408C193.935 78.9737 194.704 79.3724 195.502 79.5982C199.375 80.6988 203.235 81.8383 207.097 82.9672C207.524 83.0907 207.948 83.2212 208.375 83.3482C209.151 83.2529 209.655 82.6673 210.241 82.2616C211.391 81.4644 212.435 80.5083 213.603 79.7393C215.007 78.815 216.023 77.552 216.919 76.1938C217.441 75.4036 217.677 74.4405 217.861 73.5021C218.302 71.2303 218.309 71.2232 217.716 68.8596C216.774 65.099 215.829 61.3419 214.7 57.6306C214.079 55.5951 213.585 53.5137 213.059 51.4464C212.495 49.2239 212.177 46.8991 210.999 44.8706C209.916 43.0044 208.477 41.6215 206.198 41.2758C205.129 41.1135 204.131 40.9795 203.044 41.2617C201.008 41.7909 199.52 42.9268 198.571 44.7895C198.059 45.7949 197.745 46.8462 197.576 47.9821C197.057 51.4147 196.673 54.8684 196.013 58.2833C195.78 59.4827 195.562 60.7069 195.533 61.9522C195.512 62.8976 195.311 63.8431 195.149 64.7815C194.775 66.9334 194.366 69.0748 194.168 71.2585C194.016 72.9271 193.639 74.5746 193.381 76.2362C193.237 77.164 192.962 78.0812 193.067 79.0372L193.064 79.0408Z" fill="#F7BC94"/>
<path d="M269.37 322.363C269.483 322.48 269.589 322.681 269.712 322.695C271.381 322.885 272.958 323.386 274.489 324.064C274.584 324.106 274.707 324.088 274.817 324.099C274.817 323.986 274.817 323.873 274.806 323.764C274.707 322.324 275.117 322.406 276.274 322.43C276.602 322.437 276.93 322.55 277.251 322.635C278.729 323.016 280.098 323.665 281.424 324.395C283.619 325.605 285.418 327.277 286.829 329.324C287.88 330.844 288.677 332.52 289.295 334.27C289.63 335.215 290.074 336.125 290.258 337.123C290.36 337.684 290.477 338.231 290.096 338.736C291.376 339.364 292.696 339.374 294.05 339.007C297.977 337.945 300.707 335.617 302.016 331.687C303.568 327.023 302.707 322.801 299.822 318.92C297.211 315.41 293.828 312.821 289.958 310.859C286.437 309.074 282.793 307.554 279.092 306.188C276.926 305.388 274.753 304.597 272.573 303.839C270.492 303.116 268.453 302.308 266.541 301.2C266.153 300.974 265.743 300.78 265.327 300.607C264.752 300.367 264.212 300.491 263.754 300.893C263.284 301.302 263.15 301.846 263.33 302.431C263.711 303.67 264.113 304.894 264.713 306.054C266.29 309.113 268.047 312.069 269.779 315.04C270.972 317.086 272.196 319.111 273.399 321.153C273.628 321.541 273.84 321.936 274.027 322.346C274.175 322.67 273.882 323.041 273.508 322.984C272.898 322.889 272.291 322.765 271.691 322.614C270.922 322.423 270.16 322.24 269.359 322.36L269.37 322.363Z" fill="#7B4922"/>
<path d="M218.923 433.453C218.856 434.511 218.884 435.559 218.665 436.628C218.443 437.708 218.584 438.865 218.595 439.987C218.602 440.544 219.067 440.731 219.487 440.868C220.337 441.144 221.205 441.366 222.069 441.602C225.195 442.463 228.321 443.338 231.453 444.171C233.888 444.816 236.325 445.444 238.71 446.259C239.521 446.538 240.287 446.838 240.865 447.501C241.218 447.906 241.645 448.136 242.203 448.055C243.092 447.3 243.614 446.308 243.949 445.225C244.704 442.795 244.287 441.722 242.365 439.821C241.335 438.801 239.987 438.314 238.622 437.979C233.658 436.762 228.681 435.587 223.703 434.43C222.119 434.06 220.56 433.562 218.919 433.453H218.923Z" fill="#DEA882"/>
<path d="M290.106 338.741C290.487 338.236 290.367 337.69 290.269 337.129C290.089 336.127 289.641 335.22 289.305 334.275C288.688 332.525 287.887 330.849 286.84 329.329C285.428 327.283 283.629 325.607 281.435 324.401C280.105 323.67 278.74 323.021 277.262 322.64C276.937 322.555 276.612 322.443 276.284 322.436C275.124 322.411 274.715 322.33 274.817 323.769C274.824 323.882 274.824 323.995 274.827 324.104C277.015 325.198 278.888 326.697 280.634 328.401C282.423 330.144 283.911 332.109 285.308 334.151C286.169 335.411 286.727 336.822 286.988 338.339C287.471 338.695 288.092 338.568 288.61 338.797C289.118 338.963 289.623 339.016 290.113 338.741H290.106Z" fill="#5C3617"/>
<path d="M288.604 338.798C288.085 338.566 287.464 338.693 286.981 338.34C287.118 339.582 287.249 340.823 287.408 342.062C287.425 342.196 287.605 342.309 287.711 342.429C287.873 341.603 287.824 340.77 287.771 339.941C287.722 339.169 287.707 339.169 288.604 338.798Z" fill="#7B4922"/>
<path d="M263.249 321.681C263.373 321.79 263.493 321.984 263.623 321.991C264.618 322.069 265.616 322.263 266.597 321.892C265.504 321.448 264.371 321.649 263.249 321.677V321.681Z" fill="#7B4922"/>
<path d="M286.709 351.549C286.66 351.577 286.582 351.591 286.568 351.633C286.169 352.657 285.788 353.69 285.679 354.794C286.36 353.821 286.649 352.72 286.709 351.549Z" fill="#7B4922"/>
<path d="M256.176 321.791C256.875 322.193 256.928 322.19 257.531 321.699C257.065 321.505 256.617 321.604 256.176 321.791Z" fill="#7B4922"/>
<path d="M287.658 345.451C287.178 345.875 287.182 346.323 287.602 346.785C287.782 346.347 287.785 345.903 287.658 345.451Z" fill="#7B4922"/>
<path d="M267.338 322.031C267.62 322.349 267.948 322.392 268.322 322.162C268.012 321.971 267.687 321.919 267.338 322.031Z" fill="#7B4922"/>
<path d="M285.093 356.285C284.61 356.423 284.61 356.79 284.673 357.181C284.994 356.966 285.09 356.649 285.093 356.285Z" fill="#7B4922"/>
<path d="M251.787 322.245C251.9 322.351 251.996 322.327 252.077 322.203C251.967 322.14 251.872 322.154 251.787 322.245Z" fill="#7B4922"/>
<path d="M247.914 323.056C248.055 323.007 248.2 322.958 248.341 322.908C248.161 322.848 248.02 322.905 247.914 323.056Z" fill="#7B4922"/>
<path d="M246.63 323.42C246.742 323.378 246.855 323.339 246.968 323.297C246.813 323.223 246.711 323.286 246.63 323.42Z" fill="#7B4922"/>
<path d="M244.319 324.464C244.358 324.655 244.453 324.792 244.647 324.856C244.647 324.704 244.647 324.552 244.647 324.401C244.531 324.387 244.421 324.408 244.322 324.464H244.319Z" fill="#7B4922"/>
</svg>
