<svg width="500" height="501" viewBox="0 0 500 501" fill="none" xmlns="http://www.w3.org/2000/svg">
<path d="M232.799 433.762C237.048 431.053 248.783 431.157 248.58 428.552C247.063 406.876 248.884 374.362 248.884 374.362C247.366 352.79 236.441 311.106 238.161 302.977C239.88 294.953 255.965 296.621 256.269 304.853C257.28 314.545 258.494 319.13 259.506 329.134C261.023 341.536 262.844 367.588 261.833 374.779C261.732 375.717 256.977 429.698 256.168 432.929C255.257 436.576 253.032 435.638 245.849 435.638C239.375 435.534 228.854 436.159 232.799 433.762Z" fill="#ECAD83"/>
<path d="M259.283 225.179C259.283 225.179 263.718 217.205 264.88 210.175C267.414 195.591 259.071 186.253 259.071 186.253C259.071 186.253 226.65 178.069 225.594 185.518C223.482 199.683 221.369 210.805 220.102 217.73C219.257 222.347 241.012 228.747 241.012 228.747L259.283 225.179Z" fill="#3D3C3C"/>
<path d="M219.012 294.159C218.593 306.892 229.269 310.101 236.281 323.663C237.118 325.319 245.072 329.978 249.259 330.081C253.864 330.185 258.573 329.46 262.132 325.733C264.853 322.834 270.295 313.828 265.795 290.018C264.434 278.941 253.236 237.532 259.411 225.212C259.411 225.212 245.072 226.558 236.699 224.488C228.327 222.417 220.686 217.966 220.686 217.966C217.756 256.58 225.501 272.212 223.617 284.945C223.617 284.842 219.117 290.535 219.012 294.159Z" fill="#FF8AA0"/>
<path d="M239.484 329.064C239.484 329.064 242.823 338.202 244.91 346.417L258.891 347.341C256.178 339.126 258.16 328.037 258.16 328.037C245.118 329.372 239.693 324.957 236.25 323.622L239.484 329.064Z" fill="#ECAD83"/>
<path d="M250.832 375.535C254.18 381.245 260.145 381.037 263.702 380.518C274.69 378.961 277.933 373.562 281.073 366.19C285.154 356.431 260.773 342.103 256.064 341.168C243.821 338.677 232.939 352.485 230.009 358.715C226.87 365.671 230.009 364.841 232.939 365.775C233.043 365.775 233.357 366.294 233.357 366.294C234.299 366.709 235.659 367.229 236.706 368.371C236.706 368.371 237.647 368.474 238.171 368.682C238.484 368.786 238.694 368.89 238.694 369.305C238.589 370.447 238.589 371.589 238.798 372.108C239.636 374.081 249.262 372.939 250.832 375.535Z" fill="#F6BB92"/>
<path d="M237.328 363.512C237.328 363.512 236.534 364.094 235.172 367.585C235.172 368.167 235.399 369.099 236.534 368.866C237.442 368.749 236.647 366.189 237.328 363.512Z" fill="#D6876B"/>
<path d="M237.328 363.512C237.328 363.512 235.245 363.512 233.047 366.341C232.931 366.793 233.163 367.359 233.279 367.472C234.204 368.264 235.014 367.472 235.014 367.472C236.634 364.077 237.328 363.512 237.328 363.512Z" fill="#CC785E"/>
<path d="M282.522 366.011C287.46 354.156 276.744 331.478 249.532 339.209C247.746 339.724 245.014 341.58 246.275 346.322C247.115 349.724 249.006 352.61 249.006 352.61C249.532 353.435 250.162 354.362 250.898 355.29C251.633 356.321 257.937 357.97 257.622 359.31C254.575 371.681 258.778 379.103 261.93 380.34C270.125 382.092 277.164 378.587 282.522 366.011Z" fill="#602F0F"/>
<path d="M253.413 351.712C247.145 351.244 245.956 353.584 244.875 357.327L254.17 359.199L258.277 358.965C259.357 355.221 259.682 352.18 253.413 351.712Z" fill="#F6BB92"/>
<path d="M271.969 341.275C275.594 339.673 280.925 342.972 283.91 348.722C286.895 354.472 286.362 360.411 282.737 362.014C279.112 363.616 275.38 360.505 272.395 354.849C269.41 349.099 268.344 342.878 271.969 341.275Z" fill="#4C230C"/>
<path d="M256.371 360.156C257.409 360.364 258.24 360.779 258.967 361.091C260.006 361.506 260.525 361.922 260.525 361.922L260.733 357.975C260.214 357.767 259.694 357.559 259.175 357.352C259.175 357.352 259.175 357.767 259.071 358.494V358.39C258.136 358.494 256.682 358.598 254.709 358.494C254.709 358.39 253.151 359.429 256.371 360.156Z" fill="#602F0F"/>
<path d="M273.405 338.241C277.144 336.371 282.753 340.422 285.869 347.277C289.089 354.236 288.569 361.299 284.934 363.169C281.195 365.038 277.248 361.299 274.132 354.34C270.808 347.589 269.666 340.111 273.405 338.241Z" fill="#602F0F"/>
<path d="M282.72 344.124C283.073 343.918 284.044 345.461 284.838 347.518C285.632 349.575 286.074 351.426 285.721 351.631C285.368 351.837 284.662 350.5 283.779 348.443C282.896 346.386 282.367 344.33 282.72 344.124Z" fill="#4C230C"/>
<path d="M236.529 437.217C240.891 434.517 252.94 434.621 252.732 432.024C251.174 410.42 249.616 378.014 249.616 378.014C248.058 356.514 236.841 314.968 238.606 306.866C240.372 298.869 256.887 300.531 257.198 308.736C258.237 318.395 259.483 322.965 260.522 332.937C262.08 345.296 263.949 371.263 262.911 378.43C262.807 379.364 261.353 433.167 260.522 436.386C259.587 440.022 257.302 439.087 249.928 439.087C243.28 438.983 232.478 439.606 236.529 437.217Z" fill="#F6BB92"/>
<path d="M251.382 3.99401C255.536 5.03266 253.563 23.1052 254.809 26.1173C255.432 27.6753 257.717 29.1294 257.717 32.7647C257.821 37.5425 253.978 40.1391 254.082 41.801C254.705 50.4218 259.483 74.4147 260.002 84.8013C260.106 87.1902 260.21 90.2022 260.21 92.7989C260.21 103.082 239.229 97.2651 239.645 93.5259C241.099 78.5693 243.072 41.9049 244.215 36.6077C244.215 36.6077 244.838 20.0931 245.357 16.1463C245.877 13.8612 247.227 2.85149 251.382 3.99401Z" fill="#F6BB92"/>
<path d="M258.004 126.328C259.447 114.464 260.065 103.219 259.756 92.9033C256.356 94.1413 242.45 94.5539 239.359 93.6255C239.153 97.3393 235.445 125.915 235.445 125.915C234.312 134.993 221.23 188.224 223.599 204.833C224.011 209.166 224.835 212.88 225.659 215.975C227.307 222.061 260.786 218.554 262.125 210.198C260.992 192.041 258.107 158.72 257.077 150.364C255.944 142.111 258.004 126.328 258.004 126.328Z" fill="#3D3C3C"/>
</svg>
