<svg width="500" height="500" viewBox="0 0 500 500" fill="none" xmlns="http://www.w3.org/2000/svg">
<path d="M119.112 402.581C121.391 402.565 122.372 401.886 124.587 401.486C129.716 400.56 133.622 399.516 138.738 398.522C138.907 398.488 139.084 398.501 139.258 398.492C140.137 398.926 140.408 399.798 140.657 400.61C142.683 407.278 144.073 414.201 142.805 421.124C141.084 430.488 124.148 429.773 116.427 430.822C112.453 431.363 108.405 431.246 104.441 431.842C101.625 432.258 98.7801 431.858 96.2645 430.599C92.5947 428.767 91.0134 425.925 92.4974 421.499C92.7257 420.816 93.0597 420.218 93.5755 419.734C94.5945 418.782 95.5542 417.738 96.6915 416.95C104.024 411.863 111.476 406.895 119.108 402.577L119.112 402.581Z" fill="#FFB68B"/>
<path d="M381.794 402.581C379.515 402.565 378.534 401.886 376.319 401.486C371.191 400.56 367.284 399.516 362.168 398.522C361.999 398.488 361.822 398.501 361.648 398.492C360.769 398.926 360.498 399.798 360.249 400.61C358.223 407.278 356.833 414.201 358.101 421.124C359.823 430.488 376.758 429.773 384.479 430.822C388.454 431.363 392.501 431.246 396.465 431.842C399.281 432.258 402.126 431.858 404.642 430.599C408.312 428.767 409.893 425.925 408.409 421.499C408.181 420.816 407.847 420.218 407.331 419.734C406.312 418.782 405.352 417.738 404.215 416.95C396.882 411.863 389.43 406.895 381.798 402.577L381.794 402.581Z" fill="#FFB68B"/>
<path d="M220.391 266.237C221.513 266.229 222.635 266.222 223.791 266.214C225.065 266.195 226.34 266.176 227.652 266.157C229.029 266.163 230.405 266.169 231.823 266.175C233.238 266.167 234.653 266.16 236.111 266.152C239.107 266.144 242.103 266.147 245.098 266.163C249.682 266.179 254.263 266.139 258.847 266.093C261.756 266.092 264.666 266.094 267.575 266.1C268.946 266.084 270.318 266.068 271.731 266.052C281.29 266.164 281.29 266.164 285.831 269.722C286.597 270.75 287.364 271.777 288.153 272.836C294.781 277.479 299.642 278.223 307.6 278.52C328.422 279.923 361.796 286.114 376.561 302.455C380.383 308.3 380.537 313.072 380.679 319.849C380.704 320.851 380.729 321.853 380.755 322.885C380.834 326.172 380.904 329.459 380.974 332.747C380.999 333.862 381.024 334.978 381.05 336.127C381.539 357.716 381.624 381.686 381.497 403.279C374.783 403.279 366.873 403.279 359.956 403.279C355.768 392.809 353.631 380.344 350.682 369.397C348.042 359.598 347.499 342.45 347.989 329.082C345.784 329.212 345.784 329.212 343.534 329.344C285.684 332.504 285.684 332.504 265.415 325.492C252.563 321.512 242.246 322.707 229.68 326.848C218.226 330.602 207.071 330.473 195.108 330.428C194.292 330.427 193.476 330.426 192.635 330.425C178.973 330.404 165.36 329.99 151.727 329.082C151.77 329.899 151.814 330.716 151.86 331.558C152.713 349.992 145.869 374.186 144.337 381.552C142.804 388.918 142.619 394.146 141.564 399.403C140.956 402.082 140.956 402.082 139.759 403.279C136.334 403.366 131.74 403.389 128.316 403.353C127.351 403.348 126.386 403.343 125.392 403.337C123.001 403.323 120.609 403.302 118.218 403.279C118.131 389.715 118.139 373.76 118.218 360.197C118.225 359.098 118.231 358 118.237 356.868C118.28 350.041 118.356 343.216 118.468 336.39C118.501 334.17 118.526 331.95 118.542 329.73C118.568 326.592 118.623 323.455 118.686 320.317C118.687 319.39 118.689 318.463 118.69 317.507C118.899 309.747 121.467 305 126.315 298.897C129.968 295.992 133.958 294.346 138.263 292.657C139.163 292.298 140.062 291.939 140.989 291.569C158.979 284.51 177.206 279.306 196.604 278.371C203.368 277.915 208.618 275.844 213.956 271.639C214.465 270.827 214.974 270.014 215.499 269.177C217.546 266.852 217.546 266.852 220.391 266.237Z" fill="#686C64"/>
<path d="M282.433 236.268C276.345 234.085 270.296 231.797 264.157 229.758C259.851 228.327 256.389 226.085 254.401 220.875C251.209 229.235 243.517 229.707 237.193 232.392C232.545 234.368 227.36 234.985 223.088 237.919C213.652 239.878 204.833 243.745 195.811 246.932C185.497 250.576 175.618 244.243 173.583 234.807C172.57 230.113 174.17 225.946 175.964 221.8C182.968 205.601 190.074 189.449 196.968 173.203C199.927 166.233 204.905 161.796 212.204 160.213C215.983 159.394 219.917 159.744 223.78 160.095C222.129 170.966 220.626 181.862 217.967 192.552C214.062 200.125 210.824 207.974 207.421 216.713C212.58 215.222 216.704 214.028 220.829 212.837C226.702 212.081 231.324 209.928 232.747 203.368C233.292 200.852 234.579 198.437 235.838 196.149C240.595 187.502 249.052 186.033 254.582 192.784C259.593 186.949 266.462 187.224 271.182 193.438C273.559 196.566 275.062 200.235 276.071 203.874C277.705 209.768 281.496 212.001 287.086 212.284C291.303 214.154 295.669 215.391 301.186 215.902C297.349 207.999 295.039 200.32 290.868 193.442C288.2 182.415 286.706 171.177 285.009 159.981C292.249 159.423 299.308 159.778 305.577 164.088C312.193 170.847 314.194 180.038 318.052 188.216C323.203 199.133 327.737 210.338 332.508 221.433C333.728 224.274 335.07 227.111 335.286 230.252C336.079 241.887 325.179 251.12 312.691 246.776C302.609 243.268 292.519 239.772 282.433 236.272V236.268Z" fill="#F7BB92"/>
<path d="M284.805 159.904C286.502 171.105 287.997 182.339 290.665 193.37C289.403 199.652 288.145 205.93 286.882 212.212C281.288 211.929 277.497 209.696 275.868 203.802C274.859 200.163 273.356 196.499 270.979 193.366C266.259 187.152 259.39 186.877 254.379 192.712C248.848 185.961 240.392 187.43 235.634 196.077C234.376 198.365 233.088 200.78 232.544 203.296C231.121 209.856 226.502 212.01 220.626 212.765C219.672 206.006 218.717 199.243 217.768 192.48C220.427 181.79 221.93 170.894 223.581 160.023C229.082 159.938 234.583 159.854 240.084 159.769C244.61 169.142 249.131 178.51 254.126 188.853C259.187 178.383 263.688 169.074 268.188 159.765C270.624 159.736 273.064 159.71 275.5 159.681C278.603 159.757 281.702 159.833 284.805 159.909V159.904Z" fill="#8A8AD9"/>
<path d="M240.262 152.364C232.853 144.448 231.561 134.506 230.991 124.327C231.743 123.614 231.882 122.643 231.726 121.752C231.071 118.045 233.111 116.77 236.104 114.925C248.085 107.533 259.712 106.608 271.584 114.841C272.576 115.529 273.834 115.841 274.978 116.293C276.16 116.757 276.456 117.766 276.633 118.864C276.54 120.705 276.384 122.541 276.358 124.382C276.228 134.189 275.286 143.751 268.375 151.566C259.087 154.775 249.711 154.977 240.258 152.368L240.262 152.364Z" fill="#F7BB92"/>
<path d="M240.749 81.7238C240.327 81.0905 240.285 80.3306 240.285 79.5707C240.369 76.1932 241.425 73.2379 244.042 71.0003C247.504 68.0451 251.473 66.6519 255.948 67.074C260.887 67.5384 264.476 70.0715 266.502 74.6733C267.473 76.8265 267.727 79.064 267.431 81.3861C267.304 81.3861 267.22 81.3861 267.136 81.4283C265.067 81.3438 263.04 80.7528 260.929 80.9217C260.718 80.9217 260.507 80.9217 260.338 80.795C259.578 80.4573 258.734 80.4995 257.932 80.5417C254.048 80.6683 250.164 80.2884 246.28 80.8794C244.422 81.175 242.564 81.3438 240.749 81.7238Z" fill="#7A4821"/>
<path d="M240.75 81.724C242.565 81.344 244.465 81.1751 246.28 80.8796C250.164 80.2463 254.048 80.6685 257.932 80.5419C258.735 80.5419 259.537 80.4574 260.339 80.7952C260.508 80.8796 260.719 80.9218 260.93 80.9218C263.041 80.7529 265.067 81.344 267.136 81.4284C267.094 81.724 267.136 81.9773 267.389 82.1462C267.389 83.2016 266.967 84.0882 266.756 85.0592C266.587 85.8192 266.165 86.5791 266.545 87.4235C263.716 86.8746 260.803 87.0435 257.932 87.0013C257.721 87.0013 257.51 87.0013 257.341 87.0013C255.188 86.368 252.951 86.7057 250.755 86.6213C250.038 86.6213 249.278 86.5791 248.56 86.8746C248.433 86.9168 248.307 86.9591 248.18 86.9591C246.111 86.7902 244.085 87.5079 242.016 87.4235C242.1 86.8324 241.974 86.2836 241.763 85.6925C241.298 84.3837 240.75 83.1172 240.792 81.724H240.75Z" fill="#62350F"/>
<path d="M267.39 82.1467C267.136 81.9778 267.094 81.7245 267.136 81.4289C267.221 81.4289 267.347 81.3867 267.432 81.3867C267.601 81.64 267.559 81.8933 267.347 82.1467H267.39Z" fill="#6A6C64"/>
<path d="M276.636 118.855C276.041 118.011 275.428 117.449 274.441 116.782C273.453 116.115 272.575 115.52 271.582 114.832C259.715 106.604 248.084 107.528 236.103 114.916C233.109 116.761 231.07 118.036 231.725 121.743C231.881 122.634 231.741 123.605 230.99 124.318C230.471 120.958 230.019 117.589 229.415 114.241C226.08 95.7706 240.396 81.0324 258.921 83.9665C269.181 85.5865 276.781 94.1947 278.751 104.151C279.735 109.124 280.233 114.38 276.632 118.855H276.636Z" fill="#7A4821"/>
<path d="M267.944 157.024C268.024 157.936 268.109 158.847 268.189 159.759C263.688 169.068 259.188 178.377 254.126 188.847C249.136 178.508 244.61 169.136 240.084 159.764C240.156 158.826 240.232 157.893 240.304 156.956C249.512 159.658 258.724 159.506 267.94 157.019L267.944 157.024Z" fill="#F7BB92"/>
<path d="M267.944 157.025C258.723 159.507 249.511 159.663 240.308 156.961C240.295 155.429 240.278 153.896 240.266 152.364C249.718 154.973 259.095 154.77 268.383 151.562C268.239 153.385 268.091 155.205 267.948 157.029L267.944 157.025Z" fill="#DEA882"/>
<path d="M281.817 244.115C281.864 252.988 283.551 261.73 286.038 270.058L214.875 270.079C217.493 262.072 219.503 252.734 221.441 244.115H281.817Z" fill="#F7BB92"/>
<path d="M254.197 220.794C256.19 226.004 259.648 228.246 263.954 229.677C270.088 231.716 276.143 234.004 282.23 236.187C281.933 238.836 281.804 241.481 281.817 244.115H221.432C221.908 242.02 222.387 239.925 222.885 237.837C227.157 234.903 232.341 234.286 236.989 232.311C243.313 229.626 251.001 229.153 254.197 220.794Z" fill="#8A8AD9"/>
</svg>
