<svg width="497" height="497" viewBox="0 0 497 497" fill="none" xmlns="http://www.w3.org/2000/svg">
<path d="M251.975 251.083C251.975 251.083 256.906 242.244 258.197 234.451C261.015 218.285 251.74 207.934 251.74 207.934C251.74 207.934 215.696 198.862 214.522 207.12C212.174 222.821 209.826 235.149 208.417 242.825C207.478 247.943 231.664 255.037 231.664 255.037L251.975 251.083Z" fill="#3D3C3C"/>
<path d="M200.013 327.973C199.552 342.265 211.321 345.867 219.051 361.088C219.974 362.947 228.743 368.176 233.359 368.292C238.435 368.408 243.627 367.595 247.55 363.412C250.55 360.158 256.55 350.05 251.589 323.325C250.089 310.892 244.32 264.415 251.127 250.588C251.127 250.588 235.32 252.098 226.089 249.774C216.859 247.45 208.436 242.454 208.436 242.454C205.205 285.794 207.282 303.34 205.205 317.631C205.09 317.515 200.129 323.906 200.013 327.973Z" fill="#FF8AA0"/>
<path d="M223.072 359.91C223.072 359.91 226.681 369.873 228.936 378.829L244.047 379.836C241.115 370.881 243.258 366.739 243.258 366.739C229.162 368.306 223.072 359.91 223.072 359.91Z" fill="#ECAD83"/>
<path d="M228.554 400.132C225.316 406.671 229.247 411.948 231.907 414.931C240.116 423.879 247.169 423.65 255.841 421.814C267.404 419.52 265.554 388.545 263.473 383.612C258.154 370.993 238.729 369.501 231.213 370.763C222.888 372.255 225.547 374.664 226.472 377.876C226.472 377.991 226.241 378.564 226.241 378.564C226.472 379.712 226.819 381.203 226.357 382.924C226.357 382.924 226.819 383.842 227.05 384.415C227.166 384.759 227.166 384.989 226.819 385.218C225.663 385.907 224.622 386.48 224.275 387.054C223.004 389.004 230.057 397.149 228.554 400.132Z" fill="#F6BB92"/>
<path d="M231.462 379.928C231.462 379.928 230.549 379.496 226.897 380.504C226.441 380.936 225.756 381.657 226.669 382.809C227.354 383.673 228.951 381.08 231.462 379.928Z" fill="#D6876B"/>
<path d="M231.462 380.387C231.462 380.387 230.159 378.889 226.117 378.789C225.596 378.889 225.204 379.388 225.204 379.588C224.944 380.587 226.247 380.887 226.247 380.887C230.419 380.087 231.462 380.387 231.462 380.387Z" fill="#CC785E"/>
<path d="M257.174 423.968C271.14 421.067 285.564 396.933 261.753 376.976C260.151 375.584 256.831 374.307 253.282 378.484C250.649 381.385 249.276 384.982 249.276 384.982C248.818 386.026 248.36 387.186 247.902 388.463C247.444 389.855 249.733 396.585 248.36 397.049C235.195 402.038 230.845 410.508 231.532 414.221C234.852 422.692 242.407 426.985 257.174 423.968Z" fill="#602F0F"/>
<path d="M252.054 388.198C248.928 382.271 246.448 382.508 242.998 383.575L246.771 393.058L249.251 396.614C252.701 395.547 255.181 394.125 252.054 388.198Z" fill="#F6BB92"/>
<path d="M274.813 398.132C278.65 400.228 278.533 407.449 274.464 414.087C270.394 420.725 263.999 424.335 260.162 422.238C256.325 420.142 257.139 414.552 261.209 407.914C265.278 401.277 270.976 396.036 274.813 398.132Z" fill="#4C230C"/>
<path d="M246.533 395.824C246.998 396.871 247.231 397.918 247.347 398.848C247.58 400.011 247.58 400.825 247.58 400.825L251.418 398.499C251.301 397.918 251.185 397.336 251.069 396.638C251.069 396.638 250.603 396.871 249.906 397.336C249.906 397.336 250.022 397.336 250.022 397.22C249.324 396.406 248.277 395.127 247.231 393.149C247.115 393.266 245.254 392.452 246.533 395.824Z" fill="#602F0F"/>
<path d="M277.468 398.035C281.539 400.245 281.306 408.037 276.887 415.364C272.467 422.69 265.606 426.761 261.535 424.435C257.465 422.109 258.512 416.178 262.931 408.851C267.35 401.524 273.398 395.709 277.468 398.035Z" fill="#602F0F"/>
<path d="M277.461 411.334C277.933 411.572 277.226 413.595 275.811 415.974C274.396 418.354 272.98 419.901 272.509 419.663C272.037 419.425 272.745 417.759 274.16 415.498C275.575 413.238 276.99 410.977 277.461 411.334Z" fill="#4C230C"/>
<path d="M221.877 423.272C224.087 417.69 226.994 408.153 226.994 408.153C229.553 400.594 233.623 390.825 235.949 383.963C240.136 372.799 242.113 364.774 243.625 362.099C246.067 357.796 248.393 351.167 246.3 346.748C242.927 340.119 233.042 335.467 228.041 341.98C220.831 351.516 211.062 400.826 210.829 412.224C210.713 416.992 211.411 420.248 212.225 421.411C213.039 422.458 216.063 423.853 220.133 423.621C220.598 423.504 221.18 423.388 221.877 423.272Z" fill="#F6BB92"/>
<path d="M269.328 415.718C243.743 415.253 235.834 412.927 229.206 411.066C222.577 409.205 214.436 409.089 213.156 408.973C212.691 409.787 212.342 410.601 212.11 411.299C210.249 415.718 210.947 418.509 211.412 419.788C211.412 419.788 212.808 423.975 216.762 425.254C224.437 427.58 271.422 425.371 271.422 425.371L269.328 415.718Z" fill="#F6BB92"/>
<path d="M269.327 415.714C269.094 415.831 268.862 417.226 270.723 425.367C270.723 425.367 272.932 425.832 277.119 425.832C285.143 425.832 290.028 412.109 285.958 407.457C283.864 405.131 283.632 410.248 282.236 410.946C279.794 412.109 277.119 411.644 275.607 411.528L269.327 415.714Z" fill="#F6BB92"/>
<path d="M281.307 412.578C281.307 412.578 284.214 405.6 282.237 404.786C279.911 403.739 280.493 407.344 279.679 408.507C278.865 409.67 277.934 410.601 275.608 411.531C275.492 411.648 275.957 413.276 281.307 412.578Z" fill="#F6BB92"/>
<path d="M236.416 3.09377C241.068 4.25675 238.858 24.4925 240.254 27.8652C240.952 29.6096 243.51 31.2378 243.51 35.3082C243.626 40.6579 239.323 43.5653 239.44 45.4261C240.138 55.0788 245.487 81.9435 246.069 93.5733C246.185 96.2481 246.301 99.6207 246.301 102.528C246.301 114.042 222.809 107.529 223.274 103.342C224.903 86.5954 227.112 45.5424 228.391 39.6112C228.391 39.6112 229.089 21.1199 229.671 16.7006C230.136 14.142 231.764 1.8145 236.416 3.09377Z" fill="#F6BB92"/>
<path d="M244.412 140.485C246.041 127.169 246.739 114.549 246.39 102.97C242.55 104.359 226.842 104.822 223.352 103.78C223.119 107.949 218.93 140.022 218.93 140.022C217.65 150.211 209.389 209.958 212.065 228.6C212.531 233.463 213.462 237.631 214.392 241.105C216.254 247.936 254.069 243.999 255.582 234.621C254.302 214.242 244.528 176.842 243.248 167.464C242.085 158.201 244.412 140.485 244.412 140.485Z" fill="#3D3C3C"/>
</svg>
