<svg width="497" height="497" viewBox="0 0 497 497" fill="none" xmlns="http://www.w3.org/2000/svg">
<path d="M261.5 279.1C261.5 279.1 265.7 271.5 266.8 264.8C269.2 250.9 261.3 242 261.3 242C261.3 242 230.6 234.2 229.6 241.3C227.6 254.8 225.6 265.4 224.4 272C223.6 276.4 244.2 282.5 244.2 282.5L261.5 279.1Z" fill="#3D3C3C"/>
<path d="M217.2 345.7C216.8 358 227 361.1 233.7 374.2C234.5 375.8 242.1 380.3 246.1 380.4C250.5 380.5 255 379.8 258.4 376.2C261 373.4 266.2 364.7 261.9 341.7C260.6 331 255.6 291 261.5 279.1C261.5 279.1 247.8 280.4 239.8 278.4C231.8 276.4 224.5 272.1 224.5 272.1C221.7 309.4 223.5 324.5 221.7 336.8C221.6 336.7 217.3 342.2 217.2 345.7Z" fill="#FF8AA0"/>
<path d="M236.8 372.8C236.8 372.8 240 381.7 242 389.7L255.4 390.6C252.8 382.6 254.7 378.9 254.7 378.9C242.2 380.3 236.8 372.8 236.8 372.8Z" fill="#ECAD83"/>
<path d="M241.9 407.7C239.1 413.4 242.5 418 244.8 420.6C251.9 428.4 258 428.2 265.5 426.6C275.5 424.6 273.9 397.6 272.1 393.3C267.5 382.3 250.7 381 244.2 382.1C237 383.4 239.3 385.5 240.1 388.3C240.1 388.4 239.9 388.9 239.9 388.9C240.1 389.9 240.4 391.2 240 392.7C240 392.7 240.4 393.5 240.6 394C240.7 394.3 240.7 394.5 240.4 394.7C239.4 395.3 238.5 395.8 238.2 396.3C237.1 398 243.2 405.1 241.9 407.7Z" fill="#F6BB92"/>
<path d="M244 390.6C244 390.6 243.2 390.3 240 391C239.6 391.3 239 391.8 239.8 392.6C240.4 393.2 241.8 391.4 244 390.6Z" fill="#D6876B"/>
<path d="M244 390.6C244 390.6 243 389.1 239.9 389C239.5 389.1 239.2 389.6 239.2 389.8C239 390.8 240 391.1 240 391.1C243.2 390.3 244 390.6 244 390.6Z" fill="#CC785E"/>
<path d="M266.5 428.2C278.7 425.7 291.3 404.9 270.5 387.7C269.1 386.5 266.2 385.4 263.1 389C260.8 391.5 259.6 394.6 259.6 394.6C259.2 395.5 258.8 396.5 258.4 397.6C258 398.8 260 404.6 258.8 405C247.3 409.3 243.5 416.6 244.1 419.8C247 427.1 253.6 430.8 266.5 428.2Z" fill="#602F0F"/>
<path d="M262.3 397.6C259.4 392.6 257.1 392.8 253.9 393.7L257.4 401.7L259.7 404.7C262.9 403.8 265.2 402.6 262.3 397.6Z" fill="#F6BB92"/>
<path d="M281.8 405.8C285.1 407.6 285 413.8 281.5 419.5C278 425.2 272.5 428.3 269.2 426.5C265.9 424.7 266.6 419.901 270.1 414.201C273.6 408.501 278.5 404 281.8 405.8Z" fill="#4C230C"/>
<path d="M257.2 403.9C257.6 404.8 257.8 405.7 257.9 406.5C258.1 407.5 258.1 408.2 258.1 408.2L261.4 406.2C261.3 405.7 261.2 405.2 261.1 404.6C261.1 404.6 260.7 404.8 260.1 405.2C260.1 405.2 260.2 405.2 260.2 405.1C259.6 404.4 258.7 403.3 257.8 401.6C257.7 401.7 256.1 401 257.2 403.9Z" fill="#602F0F"/>
<path d="M283.8 405.8C287.3 407.7 287.1 414.4 283.3 420.7C279.5 427 273.6 430.5 270.1 428.5C266.6 426.5 267.5 421.4 271.3 415.1C275.1 408.8 280.3 403.8 283.8 405.8Z" fill="#602F0F"/>
<path d="M284 417C284.4 417.2 283.8 418.9 282.6 420.9C281.4 422.9 280.2 424.2 279.8 424C279.4 423.8 280 422.4 281.2 420.5C282.4 418.6 283.6 416.7 284 417Z" fill="#4C230C"/>
<path d="M236 427.499C237.9 422.699 240.4 414.499 240.4 414.499C242.6 407.999 246.1 399.6 248.1 393.7C251.7 384.1 253.4 377.199 254.7 374.899C256.8 371.199 258.8 365.499 257 361.699C254.1 355.999 245.6 351.999 241.3 357.599C235.1 365.799 226.7 408.199 226.5 417.999C226.4 422.099 227 424.899 227.7 425.899C228.4 426.799 231 427.999 234.5 427.799C234.9 427.699 235.4 427.599 236 427.499Z" fill="#F6BB92"/>
<path d="M276.8 421C254.8 420.6 248 418.6 242.3 417C236.6 415.4 229.6 415.3 228.5 415.2C228.1 415.9 227.8 416.6 227.6 417.2C226 421 226.6 423.4 227 424.5C227 424.5 228.2 428.1 231.6 429.2C238.2 431.2 278.6 429.3 278.6 429.3L276.8 421Z" fill="#F6BB92"/>
<path d="M276.8 421C276.6 421.1 276.4 422.3 278 429.3C278 429.3 279.9 429.7 283.5 429.7C290.4 429.7 294.6 417.9 291.1 413.9C289.3 411.9 289.1 416.3 287.9 416.9C285.8 417.9 283.5 417.5 282.2 417.4L276.8 421Z" fill="#F6BB92"/>
<path d="M287.1 418.299C287.1 418.299 289.6 412.299 287.9 411.599C285.9 410.699 286.4 413.799 285.7 414.799C285 415.799 284.2 416.599 282.2 417.399C282.1 417.499 282.5 418.899 287.1 418.299Z" fill="#F6BB92"/>
<path d="M248.5 66.1999C252.5 67.1999 250.6 84.5999 251.8 87.4999C252.4 88.9999 254.6 90.3999 254.6 93.8999C254.7 98.4999 251 101 251.1 102.6C251.7 110.9 256.3 134 256.8 144C256.9 146.3 257 149.2 257 151.7C257 161.6 236.8 156 237.2 152.4C238.6 138 240.5 102.7 241.6 97.5999C241.6 97.5999 242.2 81.6999 242.7 77.8999C243.1 75.6999 244.5 65.0999 248.5 66.1999Z" fill="#F6BB92"/>
<path d="M255.4 184.1C256.8 172.6 257.4 161.7 257.1 151.7C253.8 152.9 240.3 153.3 237.3 152.4C237.1 156 233.5 183.7 233.5 183.7C232.4 192.5 225.3 244.1 227.6 260.2C228 264.4 228.8 268 229.6 271C231.2 276.9 263.7 273.5 265 265.4C263.9 247.8 255.5 215.5 254.4 207.4C253.4 199.4 255.4 184.1 255.4 184.1Z" fill="#3D3C3C"/>
</svg>
