<svg width="500" height="500" viewBox="0 0 500 500" fill="none" xmlns="http://www.w3.org/2000/svg">
<path d="M228.528 89.6335C228.175 92.0301 226.996 94.1516 226.171 96.4303C218.785 116.782 214.188 137.801 210.652 159.095C207.195 179.8 204.956 200.583 205.034 221.602C205.073 229.46 205.741 237.239 207.156 244.939C207.784 248.318 209.12 251.5 210.652 254.565C212.342 254.722 214.031 254.958 215.76 254.997C224.246 255.193 232.732 255.35 241.218 255.547C243.065 255.586 244.911 256.058 246.679 255.233C247.858 253.622 248.29 251.736 248.762 249.889C250.805 242.503 253.83 235.353 254.773 227.652C255.323 223.174 254.969 218.773 253.476 214.452C248.408 199.561 243.065 184.789 238.429 169.781C237.997 168.406 237.957 167.07 238.429 165.734C243.143 151.709 243.497 137.133 243.615 122.557C243.694 116.31 243.811 110.063 243.733 103.816C243.654 99.2591 244.558 94.8588 245.54 90.4586C240.158 89.0442 234.657 89.0442 229.157 89.2406C229 89.2406 228.764 89.5156 228.528 89.6335Z" fill="#6A6D66"/>
<path d="M294.415 407.672C293.943 406.808 293.59 405.825 292.804 405.158C292.372 406.965 289.425 409.008 287.421 408.929C286.793 408.89 286.125 408.89 285.889 408.222C285.654 407.554 285.614 406.847 286.164 406.297C287.579 404.804 288.993 403.35 291.232 403.115C289.857 401.189 288.247 401.268 286.204 402.132C282.628 403.665 279.485 406.061 275.792 407.358C273.238 409.283 270.488 410.579 267.188 410.186C266.206 410.344 265.263 410.304 264.32 410.108C262.709 410.422 261.216 409.794 259.645 409.676C250.334 408.851 240.983 407.986 231.672 407.122C229.55 406.926 227.429 406.729 225.346 406.336C224.207 406.14 222.753 405.708 223.146 404.215C223.539 402.761 224.05 401.189 225.543 400.286C225.464 399.421 225.661 398.675 226.132 397.929C233.793 385.985 240.708 373.531 248.88 361.941C251.669 357.855 254.341 353.69 255.795 348.897C256.973 345.086 256.973 341.354 254.773 337.818C252.809 334.596 249.626 333.418 246.287 332.593C241.376 331.335 236.111 333.575 233.95 338.093C230.061 346.186 225.621 353.965 221.968 362.176C221.339 363.63 220.868 365.319 219.335 366.223C215.917 372.548 212.46 378.835 209.081 385.16C205.899 391.132 202.441 397.025 200.948 403.704C199.652 409.479 200.241 414.94 203.895 419.891C204.249 420.362 205.27 420.834 204.484 421.737C207.745 425.43 212.263 425.902 216.664 426.177C223.578 426.57 230.493 426.53 237.447 426.766C244.44 427.002 251.434 427.277 258.388 427.552C267.306 427.905 276.264 428.18 285.064 429.948C286.479 430.223 287.539 429.359 288.757 428.966C288.993 428.062 289.857 427.866 290.486 427.355C292.136 426.059 293.983 425.077 295.318 423.426C294.611 422.798 294.022 422.051 294.808 421.187C295.947 419.969 297.086 418.712 298.894 418.398C298.933 417.965 298.933 417.573 298.972 417.14C298.776 416.865 298.619 416.59 298.422 416.315C297.047 416.905 295.633 417.376 294.297 418.083C293 418.751 292.332 417.965 291.782 417.101C291.115 416.04 291.743 415.255 292.647 414.744C294.14 413.919 295.633 413.094 297.401 412.976C297.086 412.465 296.772 411.915 296.458 411.404C294.925 412.662 293.197 413.604 291.39 414.39C289.975 414.98 289.032 414.351 288.482 413.29C287.972 412.308 288.011 411.247 289.229 410.461C290.84 409.361 292.686 408.615 294.415 407.672Z" fill="#F7BA91"/>
<path d="M219.335 366.143C220.867 365.2 221.299 363.511 221.967 362.096C225.621 353.885 230.06 346.106 233.95 338.013C236.111 333.534 241.375 331.255 246.286 332.512C249.626 333.377 252.808 334.555 254.773 337.738C256.934 341.274 256.934 345.006 255.794 348.817C254.34 353.61 251.669 357.775 248.879 361.861C249.076 362.018 249.272 362.175 249.469 362.332C253.28 360.132 256.501 357.264 259.134 353.767C262.945 346.185 262.827 338.209 260.98 330.273C258.269 318.722 255.166 307.289 252.219 295.817C252.062 295.228 251.787 294.678 251.551 294.128C247.269 295.11 242.986 296.092 238.743 297.075C229.589 299.196 220.396 301.121 211.359 303.636C212.381 318.644 212.184 333.691 212.774 348.699C212.931 352.824 213.52 356.871 215.642 360.564C216.624 362.607 217.528 364.689 219.335 366.143Z" fill="#8A8AD9"/>
<path d="M211.36 303.675C220.396 301.161 229.59 299.236 238.744 297.114C243.026 296.132 247.269 295.15 251.552 294.168C251.041 290.16 249.784 286.31 248.841 282.421C246.837 274.484 246.13 266.43 246.523 258.259C246.562 257.237 247.191 256.294 246.759 255.233C244.991 256.058 243.144 255.587 241.298 255.548C232.811 255.351 224.325 255.233 215.839 254.998C214.15 254.958 212.421 254.723 210.731 254.565C211.439 266.116 209.906 277.667 210.26 289.217C210.378 294.089 210.26 298.922 211.36 303.675Z" fill="#F7BB92"/>
<path d="M225.504 400.247C224.011 401.15 223.5 402.722 223.107 404.175C222.714 405.668 224.168 406.101 225.307 406.297C227.389 406.651 229.511 406.886 231.632 407.083C240.944 407.947 250.294 408.811 259.606 409.637C261.177 409.794 262.67 410.383 264.281 410.069C264.281 409.047 264.713 408.144 265.106 407.24C265.224 406.965 265.342 406.729 265.459 406.454C265.42 406.14 265.42 405.865 265.381 405.551C264.988 404.961 264.949 404.45 265.538 403.94C265.774 402.447 265.774 400.915 265.538 399.422C264.949 398.911 264.988 398.4 265.42 397.811C265.538 397.221 265.42 396.671 265.145 396.121C264.713 395.886 264.595 395.65 265.067 395.336C264.359 389.678 262.749 384.296 260.156 379.228C259.684 378.245 259.056 377.342 258.152 376.674C257.445 377.027 257.13 377.735 256.659 378.324C254.93 380.642 253.241 382.96 251.512 385.239C250.884 386.103 250.098 386.614 248.919 386.574C246.051 386.457 243.183 386.535 240.315 386.378C238.861 386.299 238.076 386.771 237.486 388.107C236.19 390.975 234.658 393.764 233.44 396.632C232.379 399.107 230.493 399.815 228.057 399.775C227.232 400.365 226.407 400.482 225.504 400.247Z" fill="#7B4821"/>
<path d="M228.528 89.6339C228.764 89.516 229 89.241 229.235 89.241C234.736 89.0446 240.236 89.0839 245.619 90.459C247.661 88.0624 249.783 85.7837 251.08 82.8371C252.415 79.694 251.983 76.7081 250.333 73.958C246.208 67.0826 241.925 60.325 237.604 53.6068C235.011 49.5994 230.571 48.8922 226.721 51.6816C224.403 53.3317 223.657 55.8069 224.01 58.3999C225.346 67.7112 226.878 77.0224 228.332 86.3337C228.489 87.4338 228.489 88.5338 228.528 89.6339Z" fill="#F7BB93"/>
<path d="M227.979 399.812C230.415 399.852 232.3 399.145 233.361 396.669C234.579 393.762 236.111 391.012 237.408 388.144C237.997 386.808 238.783 386.337 240.237 386.415C243.105 386.572 245.973 386.494 248.841 386.612C250.019 386.651 250.805 386.101 251.434 385.276C253.162 382.997 254.891 380.679 256.58 378.361C257.013 377.772 257.366 377.065 258.073 376.711C257.052 369.286 256.855 361.939 259.095 354.671C259.173 354.435 259.095 354.12 259.055 353.885C256.423 357.381 253.202 360.249 249.391 362.45C249.391 363.55 249.391 364.61 248.762 365.593C243.576 373.922 238.351 382.251 233.283 390.698C231.515 393.644 229.197 396.394 227.979 399.812Z" fill="#F5B991"/>
<path d="M219.335 366.143C217.528 364.689 216.624 362.607 215.563 360.604C213.049 362.646 211.752 365.593 210.338 368.343C205.781 377.458 201.184 386.573 197.019 395.845C193.916 402.72 194.937 409.478 199.141 415.685C200.634 417.885 202.245 420.046 204.445 421.657C205.231 420.754 204.17 420.243 203.855 419.811C200.202 414.9 199.652 409.399 200.909 403.624C202.402 396.906 205.859 391.052 209.041 385.08C212.46 378.755 215.917 372.469 219.335 366.143Z" fill="#DEA781"/>
<path d="M298.933 417.1C298.893 417.532 298.893 417.925 298.854 418.357C299.011 420.478 297.832 422.168 295.318 423.346C293.982 424.997 292.096 425.979 290.486 427.275C289.896 427.747 288.993 427.982 288.757 428.886C292.332 429.043 295.868 428.847 299.443 428.65C300.268 428.611 301.093 428.415 301.84 428.14C304.826 427.079 305.69 424.604 303.883 421.971C302.547 420.046 301.054 418.239 298.933 417.1Z" fill="#7C4822"/>
<path d="M294.415 407.67C292.687 408.613 290.84 409.359 289.19 410.459C287.972 411.245 287.933 412.306 288.443 413.288C288.993 414.31 289.976 414.977 291.351 414.388C293.197 413.602 294.887 412.66 296.419 411.402C296.419 409.791 295.201 408.849 294.415 407.67Z" fill="#DFA781"/>
<path d="M291.193 403.074C288.993 403.31 287.539 404.803 286.125 406.257C285.575 406.807 285.614 407.514 285.85 408.182C286.086 408.889 286.754 408.889 287.382 408.889C289.386 408.967 292.332 406.885 292.765 405.117C292.686 404.096 291.822 403.664 291.193 403.074Z" fill="#DEA780"/>
<path d="M297.4 412.975C295.672 413.132 294.139 413.957 292.647 414.743C291.743 415.253 291.114 416.039 291.782 417.1C292.332 417.964 293 418.75 294.297 418.082C295.632 417.414 297.047 416.903 298.422 416.314C298.265 415.135 298.343 413.878 297.4 412.975Z" fill="#DFA781"/>
<path d="M267.188 410.146C270.488 410.539 273.238 409.243 275.792 407.318C272.924 406.689 270.056 406.65 267.188 407.435C267.149 408.339 267.188 409.243 267.188 410.146Z" fill="#7E4C25"/>
<path d="M267.188 410.146C267.188 409.243 267.188 408.339 267.188 407.435C266.873 407.318 266.559 407.239 266.245 407.121C265.891 407.16 265.537 407.2 265.145 407.239C264.791 408.143 264.319 409.046 264.319 410.068C265.262 410.303 266.205 410.303 267.188 410.146Z" fill="#5D3615"/>
<path d="M265.42 397.811C264.988 398.4 264.988 398.911 265.538 399.421C265.695 398.871 265.656 398.321 265.42 397.811Z" fill="#7E4C25"/>
<path d="M265.538 403.938C264.949 404.409 264.988 404.959 265.381 405.548C265.695 405.038 265.656 404.488 265.538 403.938Z" fill="#7E4C25"/>
<path d="M265.027 395.295C264.595 395.609 264.674 395.884 265.106 396.081C265.106 395.845 265.067 395.57 265.027 395.295Z" fill="#7E4C25"/>
<path d="M265.105 407.239C265.459 407.2 265.812 407.16 266.205 407.121C265.969 406.885 265.694 406.689 265.459 406.453C265.341 406.728 265.223 406.964 265.105 407.239Z" fill="#7E4C25"/>
<path d="M227.978 399.813C229.157 396.434 231.475 393.684 233.322 390.659C238.39 382.251 243.615 373.922 248.801 365.554C249.43 364.532 249.43 363.511 249.43 362.411C249.233 362.254 249.037 362.097 248.84 361.939C240.629 373.529 233.754 385.984 226.093 397.927C225.621 398.634 225.464 399.42 225.503 400.285C226.407 400.481 227.232 400.363 227.978 399.813Z" fill="#DEA780"/>
<path d="M295.318 423.386C297.833 422.168 299.05 420.518 298.854 418.396C297.086 418.711 295.907 419.968 294.768 421.186C294.022 422.011 294.611 422.757 295.318 423.386Z" fill="#DFA780"/>
</svg>
