<svg width="500" height="500" viewBox="0 0 500 500" fill="none" xmlns="http://www.w3.org/2000/svg">
<path d="M228.528 99.6335C228.175 102.03 226.996 104.152 226.171 106.43C218.785 126.782 214.188 147.801 210.652 169.095C207.195 189.8 204.956 210.583 205.034 231.602C205.073 239.46 205.741 247.239 207.156 254.939C207.784 258.318 209.12 261.5 210.652 264.565C212.342 264.722 214.031 264.958 215.76 264.997C224.246 265.193 232.732 265.35 241.218 265.547C243.065 265.586 244.911 266.058 246.679 265.233C247.858 263.622 248.29 261.736 248.762 259.889C250.805 252.503 253.83 245.353 254.773 237.652C255.323 233.174 254.969 228.773 253.476 224.452C248.408 209.561 243.065 194.789 238.429 179.781C237.997 178.406 237.957 177.07 238.429 175.734C243.143 161.709 243.497 147.133 243.615 132.557C243.694 126.31 243.811 120.063 243.733 113.816C243.654 109.259 244.558 104.859 245.54 100.459C240.158 99.0442 234.657 99.0442 229.157 99.2406C229 99.2406 228.764 99.5156 228.528 99.6335Z" fill="#6A6D66"/>
<path d="M294.415 417.672C293.943 416.808 293.59 415.825 292.804 415.158C292.372 416.965 289.425 419.008 287.421 418.929C286.793 418.89 286.125 418.89 285.889 418.222C285.654 417.554 285.614 416.847 286.164 416.297C287.579 414.804 288.993 413.35 291.232 413.115C289.857 411.189 288.247 411.268 286.204 412.132C282.628 413.665 279.485 416.061 275.792 417.358C273.238 419.283 270.488 420.579 267.188 420.186C266.206 420.344 265.263 420.304 264.32 420.108C262.709 420.422 261.216 419.794 259.645 419.676C250.334 418.851 240.983 417.986 231.672 417.122C229.55 416.926 227.429 416.729 225.346 416.336C224.207 416.14 222.753 415.708 223.146 414.215C223.539 412.761 224.05 411.189 225.543 410.286C225.464 409.421 225.661 408.675 226.132 407.929C233.793 395.985 240.708 383.531 248.88 371.941C251.669 367.855 254.341 363.69 255.795 358.897C256.973 355.086 256.973 351.354 254.773 347.818C252.809 344.596 249.626 343.418 246.287 342.593C241.376 341.335 236.111 343.575 233.95 348.093C230.061 356.186 225.621 363.965 221.968 372.176C221.339 373.63 220.868 375.319 219.335 376.223C215.917 382.548 212.46 388.835 209.081 395.16C205.899 401.132 202.441 407.025 200.948 413.704C199.652 419.479 200.241 424.94 203.895 429.891C204.249 430.362 205.27 430.834 204.484 431.737C207.745 435.43 212.263 435.902 216.664 436.177C223.578 436.57 230.493 436.53 237.447 436.766C244.44 437.002 251.434 437.277 258.388 437.552C267.306 437.905 276.264 438.18 285.064 439.948C286.479 440.223 287.539 439.359 288.757 438.966C288.993 438.062 289.857 437.866 290.486 437.355C292.136 436.059 293.983 435.077 295.318 433.426C294.611 432.798 294.022 432.051 294.808 431.187C295.947 429.969 297.086 428.712 298.894 428.398C298.933 427.965 298.933 427.573 298.972 427.14C298.776 426.865 298.619 426.59 298.422 426.315C297.047 426.905 295.633 427.376 294.297 428.083C293 428.751 292.332 427.965 291.782 427.101C291.115 426.04 291.743 425.255 292.647 424.744C294.14 423.919 295.633 423.094 297.401 422.976C297.086 422.465 296.772 421.915 296.458 421.404C294.925 422.662 293.197 423.604 291.39 424.39C289.975 424.98 289.032 424.351 288.482 423.29C287.972 422.308 288.011 421.247 289.229 420.461C290.84 419.361 292.686 418.615 294.415 417.672Z" fill="#F7BA91"/>
<path d="M219.335 376.144C220.867 375.201 221.299 373.512 221.967 372.097C225.621 363.886 230.06 356.107 233.95 348.014C236.111 343.535 241.375 341.256 246.286 342.513C249.626 343.378 252.808 344.556 254.773 347.739C256.934 351.275 256.934 355.007 255.794 358.818C254.34 363.611 251.669 367.776 248.879 371.862C249.076 372.019 249.272 372.176 249.469 372.333C253.28 370.133 256.501 367.265 259.134 363.768C262.945 356.186 262.827 348.21 260.98 340.274C258.269 328.723 255.166 317.29 252.219 305.818C252.062 305.229 251.787 304.679 251.551 304.129C247.269 305.111 242.986 306.093 238.743 307.076C229.589 309.197 220.396 311.122 211.359 313.637C212.381 328.645 212.184 343.692 212.774 358.7C212.931 362.825 213.52 366.872 215.642 370.565C216.624 372.608 217.528 374.69 219.335 376.144Z" fill="#8A8AD9"/>
<path d="M211.36 313.675C220.396 311.161 229.59 309.236 238.744 307.114C243.026 306.132 247.269 305.15 251.552 304.168C251.041 300.16 249.784 296.31 248.841 292.421C246.837 284.484 246.13 276.43 246.523 268.259C246.562 267.237 247.191 266.294 246.759 265.233C244.991 266.058 243.144 265.587 241.298 265.548C232.811 265.351 224.325 265.233 215.839 264.998C214.15 264.958 212.421 264.723 210.731 264.565C211.439 276.116 209.906 287.667 210.26 299.217C210.378 304.089 210.26 308.922 211.36 313.675Z" fill="#F7BB92"/>
<path d="M225.504 410.247C224.011 411.15 223.5 412.722 223.107 414.175C222.714 415.668 224.168 416.101 225.307 416.297C227.389 416.651 229.511 416.886 231.632 417.083C240.944 417.947 250.294 418.811 259.606 419.637C261.177 419.794 262.67 420.383 264.281 420.069C264.281 419.047 264.713 418.144 265.106 417.24C265.224 416.965 265.342 416.729 265.459 416.454C265.42 416.14 265.42 415.865 265.381 415.551C264.988 414.961 264.949 414.45 265.538 413.94C265.774 412.447 265.774 410.915 265.538 409.422C264.949 408.911 264.988 408.4 265.42 407.811C265.538 407.221 265.42 406.671 265.145 406.121C264.713 405.886 264.595 405.65 265.067 405.336C264.359 399.678 262.749 394.296 260.156 389.228C259.684 388.245 259.056 387.342 258.152 386.674C257.445 387.027 257.13 387.735 256.659 388.324C254.93 390.642 253.241 392.96 251.512 395.239C250.884 396.103 250.098 396.614 248.919 396.574C246.051 396.457 243.183 396.535 240.315 396.378C238.861 396.299 238.076 396.771 237.486 398.107C236.19 400.975 234.658 403.764 233.44 406.632C232.379 409.107 230.493 409.815 228.057 409.775C227.232 410.365 226.407 410.482 225.504 410.247Z" fill="#7B4821"/>
<path d="M228.528 99.6339C228.764 99.516 229 99.241 229.235 99.241C234.736 99.0446 240.236 99.0839 245.619 100.459C247.661 98.0624 249.783 95.7837 251.08 92.8371C252.415 89.694 251.983 86.7081 250.333 83.958C246.208 77.0826 241.925 70.325 237.604 63.6068C235.011 59.5994 230.571 58.8922 226.721 61.6816C224.403 63.3317 223.657 65.8069 224.01 68.3999C225.346 77.7112 226.878 87.0224 228.332 96.3337C228.489 97.4338 228.489 98.5338 228.528 99.6339Z" fill="#F7BB93"/>
<path d="M227.979 409.812C230.415 409.852 232.3 409.145 233.361 406.669C234.579 403.762 236.111 401.012 237.408 398.144C237.997 396.808 238.783 396.337 240.237 396.415C243.105 396.572 245.973 396.494 248.841 396.612C250.019 396.651 250.805 396.101 251.434 395.276C253.162 392.997 254.891 390.679 256.58 388.361C257.013 387.772 257.366 387.065 258.073 386.711C257.052 379.286 256.855 371.939 259.095 364.671C259.173 364.435 259.095 364.12 259.055 363.885C256.423 367.381 253.202 370.249 249.391 372.45C249.391 373.55 249.391 374.61 248.762 375.593C243.576 383.922 238.351 392.251 233.283 400.698C231.515 403.644 229.197 406.394 227.979 409.812Z" fill="#F5B991"/>
<path d="M219.335 376.143C217.528 374.689 216.624 372.607 215.563 370.604C213.049 372.646 211.752 375.593 210.338 378.343C205.781 387.458 201.184 396.573 197.019 405.845C193.916 412.72 194.937 419.478 199.141 425.685C200.634 427.885 202.245 430.046 204.445 431.657C205.231 430.754 204.17 430.243 203.855 429.811C200.202 424.9 199.652 419.399 200.909 413.624C202.402 406.906 205.859 401.052 209.041 395.08C212.46 388.755 215.917 382.469 219.335 376.143Z" fill="#DEA781"/>
<path d="M298.933 427.1C298.893 427.532 298.893 427.925 298.854 428.357C299.011 430.478 297.832 432.168 295.318 433.346C293.982 434.997 292.096 435.979 290.486 437.275C289.896 437.747 288.993 437.982 288.757 438.886C292.332 439.043 295.868 438.847 299.443 438.65C300.268 438.611 301.093 438.415 301.84 438.14C304.826 437.079 305.69 434.604 303.883 431.971C302.547 430.046 301.054 428.239 298.933 427.1Z" fill="#7C4822"/>
<path d="M294.415 417.67C292.687 418.613 290.84 419.359 289.19 420.459C287.972 421.245 287.933 422.306 288.443 423.288C288.993 424.31 289.976 424.977 291.351 424.388C293.197 423.602 294.887 422.66 296.419 421.402C296.419 419.791 295.201 418.849 294.415 417.67Z" fill="#DFA781"/>
<path d="M291.193 413.074C288.993 413.31 287.539 414.803 286.125 416.257C285.575 416.807 285.614 417.514 285.85 418.182C286.086 418.889 286.754 418.889 287.382 418.889C289.386 418.967 292.332 416.885 292.765 415.117C292.686 414.096 291.822 413.664 291.193 413.074Z" fill="#DEA780"/>
<path d="M297.4 422.975C295.672 423.132 294.139 423.957 292.647 424.743C291.743 425.253 291.114 426.039 291.782 427.1C292.332 427.964 293 428.75 294.297 428.082C295.632 427.414 297.047 426.903 298.422 426.314C298.265 425.135 298.343 423.878 297.4 422.975Z" fill="#DFA781"/>
<path d="M267.188 420.146C270.488 420.539 273.238 419.243 275.792 417.318C272.924 416.689 270.056 416.65 267.188 417.435C267.149 418.339 267.188 419.243 267.188 420.146Z" fill="#7E4C25"/>
<path d="M267.188 420.146C267.188 419.243 267.188 418.339 267.188 417.435C266.873 417.318 266.559 417.239 266.245 417.121C265.891 417.16 265.537 417.2 265.145 417.239C264.791 418.143 264.319 419.046 264.319 420.068C265.262 420.303 266.205 420.303 267.188 420.146Z" fill="#5D3615"/>
<path d="M265.42 407.811C264.988 408.4 264.988 408.911 265.538 409.421C265.695 408.871 265.656 408.321 265.42 407.811Z" fill="#7E4C25"/>
<path d="M265.538 413.938C264.949 414.409 264.988 414.959 265.381 415.548C265.695 415.038 265.656 414.488 265.538 413.938Z" fill="#7E4C25"/>
<path d="M265.027 405.295C264.595 405.609 264.674 405.884 265.106 406.081C265.106 405.845 265.067 405.57 265.027 405.295Z" fill="#7E4C25"/>
<path d="M265.105 417.239C265.459 417.2 265.812 417.16 266.205 417.121C265.969 416.885 265.694 416.689 265.459 416.453C265.341 416.728 265.223 416.964 265.105 417.239Z" fill="#7E4C25"/>
<path d="M227.978 409.813C229.157 406.434 231.475 403.684 233.322 400.659C238.39 392.251 243.615 383.922 248.801 375.554C249.43 374.532 249.43 373.511 249.43 372.411C249.233 372.254 249.037 372.097 248.84 371.939C240.629 383.529 233.754 395.984 226.093 407.927C225.621 408.634 225.464 409.42 225.503 410.285C226.407 410.481 227.232 410.363 227.978 409.813Z" fill="#DEA780"/>
<path d="M295.318 433.386C297.833 432.168 299.05 430.518 298.854 428.396C297.086 428.711 295.907 429.968 294.768 431.186C294.022 432.011 294.611 432.757 295.318 433.386Z" fill="#DFA780"/>
</svg>
