<svg width="500" height="500" viewBox="0 0 500 500" fill="none" xmlns="http://www.w3.org/2000/svg">
<path d="M228.528 84.6335C228.175 87.0301 226.996 89.1516 226.171 91.4303C218.785 111.782 214.188 132.801 210.652 154.095C207.195 174.8 204.956 195.583 205.034 216.602C205.073 224.46 205.741 232.239 207.156 239.939C207.784 243.318 209.12 246.5 210.652 249.565C212.342 249.722 214.031 249.958 215.76 249.997C224.246 250.193 232.732 250.35 241.218 250.547C243.065 250.586 244.911 251.058 246.679 250.233C247.858 248.622 248.29 246.736 248.762 244.889C250.805 237.503 253.83 230.353 254.773 222.652C255.323 218.174 254.969 213.773 253.476 209.452C248.408 194.561 243.065 179.789 238.429 164.781C237.997 163.406 237.957 162.07 238.429 160.734C243.143 146.709 243.497 132.133 243.615 117.557C243.694 111.31 243.811 105.063 243.733 98.8165C243.654 94.2591 244.558 89.8588 245.54 85.4586C240.158 84.0442 234.657 84.0442 229.157 84.2406C229 84.2406 228.764 84.5156 228.528 84.6335Z" fill="#6A6D66"/>
<path d="M294.415 402.672C293.943 401.808 293.59 400.825 292.804 400.158C292.372 401.965 289.425 404.008 287.421 403.929C286.793 403.89 286.125 403.89 285.889 403.222C285.654 402.554 285.614 401.847 286.164 401.297C287.579 399.804 288.993 398.35 291.232 398.115C289.857 396.189 288.247 396.268 286.204 397.132C282.628 398.665 279.485 401.061 275.792 402.358C273.238 404.283 270.488 405.579 267.188 405.186C266.206 405.344 265.263 405.304 264.32 405.108C262.709 405.422 261.216 404.794 259.645 404.676C250.334 403.851 240.983 402.986 231.672 402.122C229.55 401.926 227.429 401.729 225.346 401.336C224.207 401.14 222.753 400.708 223.146 399.215C223.539 397.761 224.05 396.189 225.543 395.286C225.464 394.421 225.661 393.675 226.132 392.929C233.793 380.985 240.708 368.531 248.88 356.941C251.669 352.855 254.341 348.69 255.795 343.897C256.973 340.086 256.973 336.354 254.773 332.818C252.809 329.596 249.626 328.418 246.287 327.593C241.376 326.335 236.111 328.575 233.95 333.093C230.061 341.186 225.621 348.965 221.968 357.176C221.339 358.63 220.868 360.319 219.335 361.223C215.917 367.548 212.46 373.835 209.081 380.16C205.899 386.132 202.441 392.025 200.948 398.704C199.652 404.479 200.241 409.94 203.895 414.891C204.249 415.362 205.27 415.834 204.484 416.737C207.745 420.43 212.263 420.902 216.664 421.177C223.578 421.57 230.493 421.53 237.447 421.766C244.44 422.002 251.434 422.277 258.388 422.552C267.306 422.905 276.264 423.18 285.064 424.948C286.479 425.223 287.539 424.359 288.757 423.966C288.993 423.062 289.857 422.866 290.486 422.355C292.136 421.059 293.983 420.077 295.318 418.426C294.611 417.798 294.022 417.051 294.808 416.187C295.947 414.969 297.086 413.712 298.894 413.398C298.933 412.965 298.933 412.573 298.972 412.14C298.776 411.865 298.619 411.59 298.422 411.315C297.047 411.905 295.633 412.376 294.297 413.083C293 413.751 292.332 412.965 291.782 412.101C291.115 411.04 291.743 410.255 292.647 409.744C294.14 408.919 295.633 408.094 297.401 407.976C297.086 407.465 296.772 406.915 296.458 406.404C294.925 407.662 293.197 408.604 291.39 409.39C289.975 409.98 289.032 409.351 288.482 408.29C287.972 407.308 288.011 406.247 289.229 405.461C290.84 404.361 292.686 403.615 294.415 402.672Z" fill="#F7BA91"/>
<path d="M219.335 361.144C220.867 360.201 221.299 358.512 221.967 357.097C225.621 348.886 230.06 341.107 233.95 333.014C236.111 328.535 241.375 326.256 246.286 327.513C249.626 328.378 252.808 329.556 254.773 332.739C256.934 336.275 256.934 340.007 255.794 343.818C254.34 348.611 251.669 352.776 248.879 356.862C249.076 357.019 249.272 357.176 249.469 357.333C253.28 355.133 256.501 352.265 259.134 348.768C262.945 341.186 262.827 333.21 260.98 325.274C258.269 313.723 255.166 302.29 252.219 290.818C252.062 290.229 251.787 289.679 251.551 289.129C247.269 290.111 242.986 291.093 238.743 292.076C229.589 294.197 220.396 296.122 211.359 298.637C212.381 313.645 212.184 328.692 212.774 343.7C212.931 347.825 213.52 351.872 215.642 355.565C216.624 357.608 217.528 359.69 219.335 361.144Z" fill="#8A8AD9"/>
<path d="M211.36 298.675C220.396 296.16 229.59 294.235 238.744 292.113C243.026 291.131 247.269 290.149 251.552 289.167C251.041 285.159 249.784 281.309 248.841 277.42C246.837 269.484 246.13 261.429 246.523 253.258C246.562 252.236 247.191 251.293 246.759 250.232C244.991 251.057 243.144 250.586 241.298 250.547C232.811 250.35 224.325 250.232 215.839 249.997C214.15 249.957 212.421 249.722 210.731 249.564C211.439 261.115 209.906 272.666 210.26 284.217C210.378 289.088 210.26 293.921 211.36 298.675Z" fill="#F7BB92"/>
<path d="M225.504 395.247C224.011 396.15 223.5 397.722 223.107 399.175C222.714 400.668 224.168 401.101 225.307 401.297C227.389 401.651 229.511 401.886 231.632 402.083C240.944 402.947 250.294 403.811 259.606 404.637C261.177 404.794 262.67 405.383 264.281 405.069C264.281 404.047 264.713 403.144 265.106 402.24C265.224 401.965 265.342 401.729 265.459 401.454C265.42 401.14 265.42 400.865 265.381 400.551C264.988 399.961 264.949 399.45 265.538 398.94C265.774 397.447 265.774 395.915 265.538 394.422C264.949 393.911 264.988 393.4 265.42 392.811C265.538 392.221 265.42 391.671 265.145 391.121C264.713 390.886 264.595 390.65 265.067 390.336C264.359 384.678 262.749 379.296 260.156 374.228C259.684 373.245 259.056 372.342 258.152 371.674C257.445 372.027 257.13 372.735 256.659 373.324C254.93 375.642 253.241 377.96 251.512 380.239C250.884 381.103 250.098 381.614 248.919 381.574C246.051 381.457 243.183 381.535 240.315 381.378C238.861 381.299 238.076 381.771 237.486 383.107C236.19 385.975 234.658 388.764 233.44 391.632C232.379 394.107 230.493 394.815 228.057 394.775C227.232 395.365 226.407 395.482 225.504 395.247Z" fill="#7B4821"/>
<path d="M228.528 84.6339C228.764 84.516 229 84.241 229.235 84.241C234.736 84.0446 240.236 84.0839 245.619 85.459C247.661 83.0624 249.783 80.7837 251.08 77.8371C252.415 74.694 251.983 71.7081 250.333 68.958C246.208 62.0826 241.925 55.325 237.604 48.6068C235.011 44.5994 230.571 43.8922 226.721 46.6816C224.403 48.3317 223.656 50.8069 224.01 53.3999C225.346 62.7112 226.878 72.0224 228.332 81.3337C228.489 82.4338 228.489 83.5338 228.528 84.6339Z" fill="#F7BB93"/>
<path d="M227.979 394.812C230.415 394.852 232.3 394.145 233.361 391.669C234.579 388.762 236.111 386.012 237.408 383.144C237.997 381.808 238.783 381.337 240.237 381.415C243.105 381.572 245.973 381.494 248.841 381.612C250.019 381.651 250.805 381.101 251.434 380.276C253.162 377.997 254.891 375.679 256.58 373.361C257.013 372.772 257.366 372.065 258.073 371.711C257.052 364.286 256.855 356.939 259.095 349.671C259.173 349.435 259.095 349.12 259.055 348.885C256.423 352.381 253.202 355.249 249.391 357.45C249.391 358.55 249.391 359.61 248.762 360.593C243.576 368.922 238.351 377.251 233.283 385.698C231.515 388.644 229.197 391.394 227.979 394.812Z" fill="#F5B991"/>
<path d="M219.335 361.143C217.528 359.689 216.624 357.607 215.563 355.604C213.049 357.646 211.752 360.593 210.338 363.343C205.781 372.458 201.184 381.573 197.019 390.845C193.916 397.72 194.937 404.478 199.141 410.685C200.634 412.885 202.245 415.046 204.445 416.657C205.231 415.754 204.17 415.243 203.855 414.811C200.202 409.9 199.652 404.399 200.909 398.624C202.402 391.906 205.859 386.052 209.041 380.08C212.46 373.755 215.917 367.469 219.335 361.143Z" fill="#DEA781"/>
<path d="M298.933 412.1C298.893 412.532 298.893 412.925 298.854 413.357C299.011 415.478 297.832 417.168 295.318 418.346C293.982 419.997 292.096 420.979 290.486 422.275C289.896 422.747 288.993 422.982 288.757 423.886C292.332 424.043 295.868 423.847 299.443 423.65C300.268 423.611 301.093 423.415 301.84 423.14C304.826 422.079 305.69 419.604 303.883 416.971C302.547 415.046 301.054 413.239 298.933 412.1Z" fill="#7C4822"/>
<path d="M294.415 402.67C292.687 403.613 290.84 404.359 289.19 405.459C287.972 406.245 287.933 407.306 288.443 408.288C288.993 409.31 289.976 409.977 291.351 409.388C293.197 408.602 294.887 407.66 296.419 406.402C296.419 404.791 295.201 403.849 294.415 402.67Z" fill="#DFA781"/>
<path d="M291.193 398.074C288.993 398.31 287.539 399.803 286.125 401.257C285.575 401.807 285.614 402.514 285.85 403.182C286.086 403.889 286.754 403.889 287.382 403.889C289.386 403.967 292.332 401.885 292.765 400.117C292.686 399.096 291.822 398.664 291.193 398.074Z" fill="#DEA780"/>
<path d="M297.4 407.975C295.672 408.132 294.139 408.957 292.647 409.743C291.743 410.253 291.114 411.039 291.782 412.1C292.332 412.964 293 413.75 294.297 413.082C295.632 412.414 297.047 411.903 298.422 411.314C298.265 410.135 298.343 408.878 297.4 407.975Z" fill="#DFA781"/>
<path d="M267.188 405.146C270.488 405.539 273.238 404.243 275.792 402.318C272.924 401.689 270.056 401.65 267.188 402.435C267.149 403.339 267.188 404.243 267.188 405.146Z" fill="#7E4C25"/>
<path d="M267.188 405.146C267.188 404.243 267.188 403.339 267.188 402.435C266.873 402.318 266.559 402.239 266.245 402.121C265.891 402.16 265.537 402.2 265.145 402.239C264.791 403.143 264.319 404.046 264.319 405.068C265.262 405.303 266.205 405.303 267.188 405.146Z" fill="#5D3615"/>
<path d="M265.42 392.811C264.988 393.4 264.988 393.911 265.538 394.421C265.695 393.871 265.656 393.321 265.42 392.811Z" fill="#7E4C25"/>
<path d="M265.538 398.938C264.949 399.409 264.988 399.959 265.381 400.548C265.695 400.038 265.656 399.488 265.538 398.938Z" fill="#7E4C25"/>
<path d="M265.027 390.295C264.595 390.609 264.674 390.884 265.106 391.081C265.106 390.845 265.067 390.57 265.027 390.295Z" fill="#7E4C25"/>
<path d="M265.105 402.239C265.459 402.2 265.812 402.16 266.205 402.121C265.969 401.885 265.694 401.689 265.459 401.453C265.341 401.728 265.223 401.964 265.105 402.239Z" fill="#7E4C25"/>
<path d="M227.978 394.813C229.157 391.434 231.475 388.684 233.322 385.659C238.39 377.251 243.615 368.922 248.801 360.554C249.43 359.532 249.43 358.511 249.43 357.411C249.233 357.254 249.037 357.097 248.84 356.939C240.629 368.529 233.754 380.984 226.093 392.927C225.621 393.634 225.464 394.42 225.503 395.285C226.407 395.481 227.232 395.363 227.978 394.813Z" fill="#DEA780"/>
<path d="M295.318 418.386C297.833 417.168 299.05 415.518 298.854 413.396C297.086 413.711 295.907 414.968 294.768 416.186C294.022 417.011 294.611 417.757 295.318 418.386Z" fill="#DFA780"/>
</svg>
