<svg width="497" height="497" viewBox="0 0 497 497" fill="none" xmlns="http://www.w3.org/2000/svg">
<path d="M240.706 246.523C241.694 266.009 240.786 285.623 242.316 305.063C241.621 310.708 238.717 315.86 237.62 321.421C237.425 329.787 242.049 337.532 245.403 344.957C256.485 346.474 271.828 339.245 280.592 348.166C284.276 352.363 284.18 359.922 279.714 363.595C277.277 365.457 274.233 365.607 271.431 366.442C277.667 367.566 283.066 364.2 287.481 360.12C302.155 344.154 295.402 320.187 292.103 301.083C287.409 284.827 285.986 267.822 286.718 250.97C285.935 250.264 285.108 250.704 284.293 250.807C279.405 251.492 274.556 251.166 269.709 250.772C259.632 251.185 249.906 247.831 240.365 244.889C240.544 245.504 240.862 245.989 240.706 246.523Z" fill="#FF8AA0"/>
<path d="M240.498 244.96C249.97 247.899 259.764 251.256 269.842 250.843C274.691 251.169 279.604 251.565 284.428 250.81C285.24 250.774 286.07 250.267 286.853 250.973C292.301 242.949 292.65 232.362 289.085 223.443C286.403 216.112 280.281 210.402 278.354 202.763C274.513 188.837 270.468 174.97 267.175 160.862C265.843 146.697 267.838 132.055 265.421 117.983C256.908 119.808 247.944 119.387 239.341 118.373C237.767 132.626 238.66 147.652 238.359 162.158C236.663 189.776 237.728 217.571 240.498 244.96Z" fill="#3D3C3C"/>
<path d="M201.384 393.159C198.902 396.167 197.119 400.284 195.76 403.944C202.782 403.95 209.927 405.988 216.93 404.778C227.231 400.39 204.931 393.974 201.384 393.159Z" fill="#D89D75"/>
<path d="M271.501 366.44C274.302 365.605 277.347 365.455 279.784 363.593C284.183 359.917 284.345 352.361 280.662 348.164C271.897 339.243 256.619 346.542 245.473 344.955C238.009 345.876 230.069 345.158 222.465 346.209C216.406 347.456 209.626 346.446 204.053 349.062C192.099 362.839 190.396 383.772 182.024 399.175C181.953 402.684 179.798 405.975 178.985 409.454C177.784 412.513 174.423 415.554 177.683 418.519C182.761 423.311 190.722 421.358 197.192 423.369C204.27 424.439 211.211 424.991 218.404 423.592C219.937 423.294 221.563 422.345 221.562 420.784C221.561 418.185 217.649 417.432 215.315 416.092C210.869 414.094 206.569 415.028 201.887 413.898C200.498 413.168 190.713 413.428 192.748 411.482C196.426 405.55 198.19 398.462 202.459 392.958C204.99 386.98 209.253 381.611 212.715 376.008C213.987 374.573 214.096 371.809 216.272 371.422C234.69 370.122 253.181 368.689 271.501 366.44Z" fill="#F6BB92"/>
<path d="M239.405 118.442C248.009 119.456 256.905 119.874 265.485 118.052C264.294 105.445 260.177 93.3985 258.101 80.9597C256.594 72.9324 254.271 65.0755 252.831 57.0508C250.171 50.8688 252.149 48.6509 254.862 43.2208C255.847 40.4911 254.95 37.5522 252.589 35.771C247.749 31.7989 243.189 27.5678 238.629 23.3366C233.734 19.0247 231.13 11.4269 224.086 10.2715C218.458 10.86 214.103 15.145 217.935 20.698C225.385 32.1331 237.588 41.1896 239.317 55.573C240.808 69.1367 239.8 82.7369 239.87 96.3796C239.448 103.656 240.504 111.125 239.405 118.442Z" fill="#F6BB92"/>
<path d="M295.787 387.59C291.707 379.732 284.164 374.1 276.481 370.286C273.666 371.458 267.507 380.399 269.626 383.183C271.687 385.696 276.291 390.536 272.808 393.235C270.649 394.905 269.81 393.927 268.188 392.243C267.786 392.159 267.441 392.348 267.096 392.537C267.82 394.726 268.986 395.988 266.169 397.227C259.793 401.365 255.474 408.15 254.236 415.596C257.76 423.838 273.563 423.786 281.056 422.123C289.813 419.227 286.473 425.172 295.749 419.393C295.902 418.926 296.247 418.737 296.654 418.686C303.266 411.991 310.87 393.789 297.355 390.623C296.069 390.708 296.246 389.634 296.097 388.278C295.973 388.003 296.1 388.211 295.787 387.59Z" fill="#602F0F"/>
<path d="M268.258 392.177C269.877 393.929 270.924 394.781 273.01 393.242C276.234 390.263 271.897 385.501 269.838 382.921C268.088 379.341 272.56 375.533 273.901 372.345C266.455 367.662 256.515 368.013 248.13 370.046C245.201 370.674 240.907 373.408 243.067 376.869C243.509 377.63 244.157 378.33 244.252 379.347C245.271 379.185 250.849 379.877 248.9 381.353C247.517 382.177 246.711 383.766 245.137 384.311C246.16 385.77 245.513 386.757 244.192 387.718C240.95 391.169 251.213 398.056 249.355 404.06C249.921 406.85 250.073 409.827 251.866 412.329C252.119 412.744 252.511 413.097 252.422 413.634C253.075 414.2 253.167 415.284 254.176 415.391C255.555 407.815 260.081 400.903 266.721 396.911C268.381 395.896 268.384 395.829 267.641 394.111C267.536 393.364 266.308 391.965 267.268 391.598C267.812 391.485 268.212 391.635 268.258 392.177Z" fill="#F6BB92"/>
<path d="M181.953 399.244C190.393 383.843 192.096 362.91 203.983 349.131C209.623 346.517 216.403 347.527 222.394 346.278C229.998 345.227 237.938 345.945 245.402 345.023C243.585 341.441 241.973 337.798 240.293 334.153C231.729 335.571 205.09 334.724 200.969 341.652C194.716 352.952 190.32 365.136 185.327 377.026C183.505 383.842 177.289 392.51 181.953 399.244Z" fill="#D89D75"/>
<path d="M261.625 368.618C265.708 369.522 270.492 369.778 273.835 372.341C274.748 371.431 275.851 370.867 276.824 370.163C277.082 368.755 277.54 367.422 277.998 366.09C272.694 367.029 267.116 366.336 261.867 367.615C261.853 367.952 261.773 368.287 261.625 368.618Z" fill="#ECAD83"/>
<path d="M245.138 384.311C246.713 383.765 247.518 382.177 248.901 381.353C250.853 379.809 245.273 379.184 244.254 379.347C243.062 380.448 243.06 380.515 243.821 381.761C244.185 382.788 243.388 384.175 245.138 384.311Z" fill="#CC785E"/>
<path d="M240.499 244.96C240.408 245.564 240.454 246.106 240.773 246.591C240.864 245.987 240.545 245.502 240.499 244.96Z" fill="#6C6B6B"/>
<path d="M282.622 413.202C282.242 414.268 283.488 418.638 284.134 415.963C283.983 412.918 285.039 410.124 285.825 407.319C287.184 403.658 289.083 400.019 291.436 396.871C292.174 395.279 294.846 394.304 294.842 392.684C287.657 395.101 283.594 405.678 282.622 413.202Z" fill="#552000"/>
<path d="M268.257 392.178C268.3 391.099 266.458 391.567 267.098 392.47C267.44 392.348 267.785 392.159 268.257 392.178Z" fill="#F6BB92"/>
</svg>
