<svg width="500" height="500" viewBox="0 0 500 500" fill="none" xmlns="http://www.w3.org/2000/svg">
<path d="M248.305 100.668C247.059 102.66 246.451 104.924 245.653 107.096C242.627 115.356 240.228 123.807 238.06 132.327C235.726 141.506 233.752 150.762 232.03 160.07C230.877 166.322 229.858 172.601 228.961 178.897C228.254 183.85 227.609 188.806 227.06 193.776C226.54 198.505 226.107 203.245 225.745 207.992C225.078 216.67 224.785 225.351 224.921 234.054C225.008 239.647 225.459 245.208 226.305 250.735C226.503 252.032 226.741 253.321 226.921 254.618C227.144 256.215 227.591 257.749 228.159 259.251C228.778 260.885 229.4 262.519 230.034 264.145C230.137 264.412 230.312 264.65 230.455 264.903C230.986 264.863 231.507 264.903 232.041 264.991C233.137 265.167 234.246 265.31 235.353 265.365C238.155 265.5 240.961 265.486 243.766 265.625C248.598 265.863 253.444 265.665 258.283 265.929C260.36 266.042 262.447 265.954 264.528 266.013C265.389 266.039 266.158 265.892 266.854 265.387C267.473 264.614 267.825 263.713 268.11 262.779C269.239 259.061 270.359 255.343 271.488 251.629C272.066 249.724 272.674 247.83 273.227 245.918C274.008 243.208 274.542 240.442 274.971 237.658C275.088 236.893 275.092 236.109 275.11 235.332C275.125 234.603 275.055 233.874 275.088 233.145C275.176 231.087 274.707 229.087 274.433 227.072C274.363 226.552 274.132 226.05 273.96 225.545C270.103 214.292 266.235 203.04 262.389 191.783C261.29 188.567 260.268 185.326 259.338 182.055C259.125 181.307 258.869 180.571 258.583 179.853C258.081 178.593 257.986 177.337 258.308 176.004C258.733 174.256 259.217 172.527 259.748 170.813C260.759 167.564 261.546 164.271 261.986 160.883C262.356 158.04 262.729 155.202 262.993 152.348C263.191 150.22 263.301 148.085 263.385 145.949C263.469 143.814 263.469 141.678 263.587 139.543C263.733 136.828 263.733 134.103 263.748 131.385C263.773 126.283 263.693 121.18 263.795 116.081C263.858 112.829 263.916 109.576 264.169 106.327C264.242 105.393 264.568 104.532 264.707 103.624C263.891 103.338 263.092 102.997 262.257 102.778C258.301 101.741 254.338 100.745 250.382 99.708C249.807 99.5578 249.25 99.4992 248.671 99.5725C248.609 99.7739 248.543 99.9717 248.481 100.17C248.58 100.389 248.543 100.558 248.308 100.66L248.305 100.668Z" fill="#6A6D66"/>
<path d="M209.778 412.34C209.595 412.036 209.569 411.743 209.654 411.377C210.192 409.018 210.683 406.652 211.21 404.289C212.28 399.472 213.36 394.656 214.445 389.839C215.305 386.015 216.17 382.19 217.038 378.37C217.155 377.85 217.294 377.333 217.47 376.832C217.994 375.311 218.804 374.736 220.379 374.736C221.884 374.736 223.386 374.744 224.891 374.729C226.148 374.718 227.412 374.813 228.657 374.513C228.979 374.436 229.335 374.484 229.672 374.484C233.166 374.484 236.66 374.502 240.151 374.473C241.609 374.462 243.041 374.806 244.503 374.707C245.276 374.656 246.041 374.659 246.818 374.55C247.723 374.421 248.657 374.491 249.58 374.484C250.21 374.48 250.843 374.528 251.473 374.487C253.228 374.377 254.953 374.623 256.682 374.846C257.287 374.663 257.891 374.476 258.495 374.304C260.221 373.806 261.946 373.319 263.583 372.55C264.426 372.154 265.14 371.564 265.979 371.176C267.173 370.619 268.191 369.777 269.283 369.059C269.843 368.689 270.371 368.224 270.806 367.715C271.748 366.605 272.671 365.473 273.51 364.286C274.18 363.337 274.66 362.293 274.894 361.114C275.217 359.502 275.096 357.942 274.865 356.345C274.627 354.696 273.953 353.29 272.909 352.03C272.506 351.543 272.114 351.048 271.704 350.568C270.389 349.022 268.843 347.81 266.854 347.239C266.015 346.997 265.184 346.722 264.36 346.44C263.847 346.264 263.327 346.187 262.785 346.22C261.429 346.301 260.07 346.4 258.715 346.44C257.158 346.488 255.624 346.689 254.092 346.953C252.565 347.217 251.027 347.425 249.492 347.653C247.668 347.92 245.818 347.909 243.986 348.173C240.961 348.605 237.935 349.015 234.935 349.598C234.719 349.612 234.503 349.631 234.291 349.645C232.58 349.938 230.88 350.327 229.159 350.499C228.009 350.612 226.877 350.861 225.705 350.894C224.752 350.92 223.8 351.184 222.826 351.158C222.778 351.158 222.727 351.165 222.683 351.18C221.576 351.579 220.39 351.44 219.25 351.682C218.65 351.81 218.038 351.982 217.404 352.03C216.445 352.103 215.492 352.272 214.54 352.422C213.016 352.663 211.507 353.019 209.976 353.143C208.683 353.25 207.522 353.66 206.368 354.165C204.983 354.77 203.76 355.623 202.591 356.59C202.002 357.077 201.584 357.583 201.317 358.286C200.921 359.326 200.474 360.348 200.005 361.356C199.038 363.44 198.544 365.66 198.145 367.894C197.848 369.553 197.786 371.253 197.467 372.909C197.32 373.674 197.306 374.443 197.152 375.202C196.602 377.894 196.027 380.582 195.566 383.289C195.438 384.044 195.258 384.802 195.2 385.575C195.126 386.535 195.09 387.524 194.833 388.439C194.57 389.385 194.584 390.352 194.401 391.3C194.247 392.088 194.046 392.908 194.049 393.729C194.049 394.941 193.668 396.11 193.69 397.333C193.701 397.886 193.438 398.454 193.452 399.047C193.482 400.212 193.214 401.355 193.057 402.498C192.877 403.787 192.881 405.095 192.606 406.373C192.478 406.978 192.482 407.611 192.386 408.234C192.233 409.23 192.079 410.245 192.027 411.249C191.954 412.699 191.544 414.117 191.687 415.582C191.701 415.721 191.636 415.864 191.61 416.01C191.317 417.692 191.258 419.373 191.65 421.051C191.712 421.314 191.639 421.527 191.427 421.692C191.804 422.146 192.035 422.67 192.189 423.237C192.533 424.501 192.965 425.736 193.445 426.955C193.994 428.351 194.874 429.45 196.068 430.355C197.159 431.182 198.247 431.999 199.599 432.322C200.822 432.615 202.071 432.79 203.298 433.072C204.782 433.413 206.287 433.333 207.789 433.395C209.287 433.457 210.782 433.655 212.287 433.633C213.357 433.618 214.426 433.695 215.492 433.622C216.939 433.523 218.382 433.344 219.818 433.16C220.631 433.058 221.448 432.992 222.258 432.794C223.771 432.424 224.858 431.519 225.712 430.296C226.32 429.424 226.324 428.457 225.818 427.541C225.371 426.736 224.833 425.981 224.038 425.457C223.716 425.245 223.386 425.025 223.239 424.637C222.69 424.578 222.25 424.263 221.771 424.036C220.719 423.542 219.672 423.047 218.624 422.549C216.829 421.695 214.895 421.238 213.034 420.571C211.851 420.146 210.687 419.681 209.569 419.102C208.892 418.75 208.61 418.249 208.599 417.476C208.584 416.395 208.884 415.38 209.078 414.344C209.21 413.641 209.232 412.897 209.793 412.344L209.778 412.34Z" fill="#F7BB92"/>
<path d="M234.925 349.598C237.925 349.019 240.95 348.605 243.976 348.173C245.807 347.913 247.654 347.924 249.481 347.653C251.016 347.426 252.555 347.22 254.082 346.953C255.613 346.686 257.148 346.488 258.705 346.44C260.064 346.4 261.419 346.301 262.774 346.22C263.316 346.187 263.833 346.264 264.349 346.44C265.177 346.722 266.005 346.997 266.844 347.239C268.833 347.81 270.375 349.026 271.694 350.568C272.104 351.048 272.496 351.543 272.899 352.03C273.943 353.29 274.617 354.696 274.855 356.345C275.085 357.942 275.206 359.502 274.884 361.114C274.646 362.297 274.166 363.337 273.499 364.286C272.661 365.473 271.737 366.605 270.796 367.715C270.36 368.227 269.836 368.693 269.272 369.059C268.181 369.777 267.162 370.619 265.968 371.176C265.133 371.568 264.415 372.158 263.573 372.55C261.935 373.319 260.21 373.806 258.485 374.304C257.881 374.48 257.276 374.667 256.672 374.846C256.983 375.762 257.031 376.696 256.884 377.649C257.514 377.74 258.144 377.711 258.76 377.568C262.397 376.733 265.957 375.725 269.199 373.751C273.126 371.359 276.748 368.678 279.236 364.711C279.283 364.634 279.386 364.594 279.459 364.539L279.452 364.557C279.426 364.293 279.525 364.092 279.752 363.953C280.891 361.462 281.492 358.806 281.946 356.136C282.287 354.136 282.243 352.077 282.195 350.041C282.107 346.389 281.642 342.807 280.664 339.275C280.005 336.898 279.613 334.444 278.99 332.056C277.595 326.712 276.115 321.389 274.701 316.052C274.144 313.946 273.686 311.811 273.151 309.697C272.734 308.053 272.269 306.422 271.825 304.785C270.602 304.829 269.419 305.126 268.269 305.499C266.694 306.012 265.086 306.379 263.478 306.73C255.661 308.43 247.866 310.239 240.079 312.078C237.068 312.789 234.016 313.36 231.082 314.386C231.189 315.741 231.262 317.096 231.412 318.448C231.72 321.203 231.822 323.968 231.892 326.734C231.965 329.598 231.954 332.466 231.98 335.33C231.98 335.378 231.987 335.429 231.98 335.477C231.826 337.96 232.06 340.422 232.39 342.88C232.621 344.217 233.009 345.513 233.438 346.799C233.712 347.623 234.035 348.429 234.339 349.246C234.533 349.363 234.723 349.48 234.918 349.598H234.925Z" fill="#8A8AD9"/>
<path d="M231.089 314.391C234.019 313.365 237.071 312.794 240.085 312.083C247.873 310.244 255.664 308.435 263.484 306.735C265.092 306.387 266.7 306.017 268.275 305.504C269.422 305.131 270.609 304.838 271.832 304.79C271.455 302.743 270.784 300.768 270.305 298.75C269.323 294.611 268.242 290.497 267.495 286.303C267.224 284.783 266.902 283.267 266.697 281.736C266.517 280.395 266.422 279.04 266.382 277.688C266.323 275.75 266.367 273.809 266.334 271.871C266.301 269.974 266.524 268.109 266.85 266.245C266.898 265.967 266.858 265.67 266.858 265.38C266.162 265.89 265.393 266.032 264.532 266.007C262.451 265.945 260.363 266.036 258.286 265.923C253.448 265.655 248.605 265.853 243.77 265.619C240.964 265.479 238.159 265.498 235.356 265.358C234.25 265.304 233.14 265.161 232.045 264.985C231.514 264.901 230.994 264.857 230.459 264.897C230.946 267.934 230.84 270.999 230.704 274.043C230.584 276.706 230.617 279.38 230.4 282.032C230.122 285.428 230.28 288.82 230.21 292.212C230.166 294.395 230.184 296.581 230.162 298.765C230.159 299.197 230.14 299.644 230.045 300.061C229.924 300.596 229.91 301.105 230.06 301.636C230.276 302.395 230.173 303.178 230.203 303.955C230.254 305.405 230.063 306.863 230.448 308.299C230.521 308.574 230.492 308.878 230.481 309.171C230.437 310.438 230.569 311.687 230.913 312.907C231.012 313.255 231.001 313.567 230.888 313.9C230.818 314.101 230.88 314.277 231.089 314.376V314.391Z" fill="#F7BB92"/>
<path d="M286.411 418.491C285.869 418.198 285.536 417.865 285.649 417.129C286.133 413.993 285.983 410.85 285.51 407.73C284.745 402.693 283.558 397.766 281.525 393.074C281.236 392.408 280.932 391.752 280.624 391.093C280.045 389.854 279.316 388.723 278.316 387.781C277.705 388.067 277.448 388.671 277.075 389.169C275.097 391.807 273.349 394.613 271.141 397.081C270.672 397.605 270.228 397.836 269.536 397.825C266.093 397.774 262.646 397.785 259.203 397.711C258.441 397.697 258.035 397.946 257.778 398.624C257.503 399.349 257.17 400.048 256.855 400.759C255.591 403.594 254.221 406.374 252.723 409.096C252.177 410.085 251.551 410.715 250.43 410.814C250.287 410.828 250.145 410.861 250.002 410.887C247.474 411.338 244.947 411.792 242.416 412.235C240.269 412.609 238.126 413.004 235.954 413.22C235.749 414.843 236.093 416.404 236.518 417.946C236.921 419.4 237.515 420.784 238.244 422.099C240.31 425.828 242.994 429.055 246.247 431.81C248.408 433.638 250.921 434.733 253.661 435.319C255.035 435.612 256.427 435.806 257.811 436.037C261.456 436.645 265.06 436.279 268.646 435.572C269.694 435.367 270.679 434.938 271.668 434.535C272.287 434.282 272.88 433.909 273.591 433.967C273.95 433.564 274.404 433.282 274.866 433.026C275.932 432.436 276.902 431.715 277.734 430.821C278.558 429.934 279.404 429.059 280.126 428.096C282.137 425.414 284.016 422.649 285.005 419.392C285.232 418.642 285.697 418.403 286.415 418.488L286.411 418.491Z" fill="#7A4821"/>
<path d="M235.95 413.224C238.122 413.012 240.265 412.612 242.411 412.239C244.943 411.799 247.466 411.341 249.997 410.891C250.14 410.865 250.283 410.832 250.426 410.817C251.547 410.715 252.173 410.089 252.719 409.1C254.221 406.378 255.587 403.598 256.851 400.763C257.166 400.056 257.499 399.352 257.774 398.627C258.034 397.946 258.44 397.697 259.199 397.715C262.642 397.788 266.089 397.774 269.532 397.829C270.224 397.84 270.667 397.609 271.136 397.085C273.345 394.616 275.092 391.807 277.07 389.173C277.444 388.675 277.704 388.071 278.312 387.785C277.88 386.386 277.946 384.913 277.719 383.481C277.568 382.532 277.653 381.55 277.455 380.594C277.367 380.177 277.374 379.708 277.466 379.29C277.7 378.232 277.704 377.166 277.642 376.107C277.473 373.313 278.001 370.613 278.653 367.924C278.825 367.221 279.03 366.521 279.25 365.829C279.382 365.408 279.51 364.998 279.466 364.551C279.389 364.609 279.29 364.65 279.242 364.723C276.755 368.69 273.129 371.371 269.206 373.763C265.964 375.737 262.404 376.745 258.766 377.58C258.147 377.723 257.521 377.752 256.891 377.66C256.506 378.03 256.129 378.408 255.737 378.767C255.25 379.21 254.734 379.43 254.019 379.287C253.268 379.137 252.477 379.17 251.704 379.14C250.06 379.082 248.415 379.173 246.767 378.917C245.272 378.686 243.763 378.942 242.291 379.236C240.913 379.51 239.954 380.32 239.419 381.653C238.778 383.246 238.43 384.887 238.382 386.598C238.335 388.235 238.485 388.111 236.913 388.902C235.221 389.756 233.518 390.58 231.829 391.437C230.602 392.06 230.43 392.51 231.086 393.759C232.752 396.939 234.441 400.107 236.192 403.239C236.529 403.84 236.679 404.385 236.58 405.023C236.228 407.323 235.913 409.631 235.998 411.964C236.012 412.389 235.602 412.792 235.954 413.217L235.95 413.224Z" fill="#F7BB92"/>
<path d="M248.668 99.5764C249.247 99.4995 249.803 99.5617 250.378 99.7119C254.334 100.749 258.298 101.745 262.254 102.781C263.085 103.001 263.887 103.342 264.704 103.628C265.239 103.463 265.36 102.814 265.913 102.642C266.43 102.481 266.792 102.053 267.21 101.723C268.386 100.796 269.679 99.994 270.744 98.9574C272.733 97.0233 274.133 94.7486 274.188 91.8329C274.213 90.5582 274.063 89.3275 273.708 88.104C272.946 85.4997 272.243 82.8843 271.481 80.28C271.155 79.1628 270.755 78.0712 270.375 76.9687C269.462 74.3094 268.814 71.5732 268.03 68.8736C267.517 67.108 267.147 65.2875 266.151 63.6978C264.964 61.8078 263.378 60.4818 261.074 60.2144C260.979 60.2034 260.873 60.229 260.785 60.1997C259.221 59.6466 257.825 60.3645 256.441 60.8737C255.792 61.1118 255.214 61.6319 254.73 62.1814C254.507 62.4341 254.309 62.7125 254.096 62.9726C253.181 64.1008 252.737 65.3974 252.609 66.8406C252.514 67.8956 252.302 68.9395 252.159 69.9908C252.023 70.9944 251.965 72.0127 251.778 73.0054C251.481 74.5768 251.463 76.1775 251.265 77.7599C251.009 79.8185 250.584 81.8587 250.558 83.9503C250.543 84.9576 250.32 85.9612 250.188 86.9649C250.042 88.0638 249.921 89.1663 249.73 90.2579C249.389 92.2139 249.481 94.2212 249.085 96.1589C248.884 97.1552 248.965 98.1918 248.598 99.1588C248.554 99.2724 248.642 99.4372 248.668 99.5801V99.5764Z" fill="#F7BB92"/>
<path d="M234.347 349.247C234.046 348.434 233.72 347.624 233.446 346.8C233.021 345.515 232.629 344.218 232.398 342.881C230.618 343.093 228.838 343.32 227.054 343.507C225.944 343.624 224.83 343.69 223.72 343.793C219.904 344.145 216.12 344.705 212.329 345.262C210.699 345.5 209.058 345.661 207.42 345.874C206.941 345.936 206.461 346.016 205.995 346.152C203.64 346.848 201.512 347.987 199.538 349.434C199.047 349.793 198.717 350.24 198.472 350.786C198.036 351.76 197.607 352.742 197.102 353.679C195.794 356.108 195.073 358.723 194.655 361.415C194.014 365.536 193.274 369.635 192.329 373.701C191.922 375.444 191.692 377.228 191.384 378.994C191.157 380.283 190.908 381.569 190.71 382.862C190.428 384.73 190.183 386.605 189.926 388.477C189.684 390.254 189.443 392.03 189.205 393.807C188.966 395.583 188.736 397.364 188.505 399.14C188.259 401.015 188.014 402.887 187.783 404.766C187.618 406.114 187.476 407.462 187.333 408.81C187.296 409.147 187.358 409.51 187.263 409.825C186.952 410.85 187.164 411.858 187.373 412.847C187.879 415.228 188.714 417.506 189.721 419.722C190.095 420.539 190.67 421.18 191.402 421.689C191.615 421.524 191.688 421.312 191.626 421.048C191.234 419.371 191.292 417.693 191.585 416.008C191.611 415.865 191.677 415.719 191.662 415.579C191.516 414.114 191.93 412.693 192.003 411.246C192.054 410.239 192.208 409.228 192.362 408.232C192.457 407.609 192.45 406.971 192.582 406.371C192.856 405.092 192.853 403.785 193.032 402.495C193.19 401.356 193.457 400.21 193.428 399.045C193.413 398.451 193.673 397.887 193.666 397.331C193.644 396.107 194.029 394.939 194.025 393.726C194.025 392.906 194.223 392.085 194.377 391.298C194.56 390.349 194.545 389.382 194.809 388.437C195.065 387.518 195.098 386.532 195.175 385.573C195.234 384.8 195.413 384.041 195.541 383.287C196.003 380.58 196.582 377.891 197.127 375.199C197.281 374.441 197.3 373.672 197.442 372.906C197.758 371.254 197.823 369.551 198.12 367.891C198.519 365.657 199.014 363.437 199.981 361.353C200.45 360.342 200.897 359.32 201.292 358.284C201.56 357.58 201.977 357.075 202.567 356.588C203.735 355.621 204.959 354.771 206.343 354.163C207.497 353.657 208.658 353.247 209.951 353.141C211.483 353.016 212.995 352.661 214.515 352.419C215.468 352.269 216.42 352.101 217.38 352.027C218.014 351.98 218.625 351.807 219.226 351.679C220.365 351.438 221.552 351.58 222.658 351.177C222.702 351.163 222.753 351.155 222.801 351.155C223.775 351.181 224.728 350.917 225.68 350.892C226.852 350.859 227.984 350.61 229.134 350.496C230.856 350.324 232.555 349.939 234.266 349.643C234.288 349.511 234.31 349.379 234.332 349.243L234.347 349.247Z" fill="#DDA781"/>
<path d="M275.679 436.267C276.99 437.45 278.653 437.846 280.279 438.3C281.693 438.696 283.159 438.718 284.613 438.802C288.781 439.051 292.95 439.304 297.122 439.505C301.1 439.699 305.078 439.831 309.059 439.989C309.448 440.003 309.836 439.992 310.224 440C311.18 440.014 311.872 439.498 312.488 438.85C312.806 438.513 312.869 438.073 312.894 437.63C312.946 436.685 312.711 435.791 312.308 434.956C311.385 433.047 310.096 431.417 308.451 430.084C307.092 428.982 305.638 428.037 304.045 427.275C298.792 424.762 293.613 422.099 288.499 419.308C288.122 419.103 287.767 418.824 287.305 418.824C287.441 421.278 286.994 423.645 286.137 425.927C285.367 427.982 284.287 429.853 282.704 431.428C281.327 432.802 279.946 434.15 278.243 435.124C278.034 435.242 277.847 435.403 277.671 435.568C277.107 436.095 276.448 436.333 275.679 436.271V436.267Z" fill="#7A4821"/>
<path d="M209.779 412.34C209.219 412.893 209.2 413.637 209.065 414.34C208.867 415.376 208.57 416.391 208.585 417.472C208.596 418.245 208.874 418.746 209.556 419.098C210.673 419.68 211.838 420.146 213.021 420.567C214.882 421.233 216.816 421.691 218.611 422.545C219.658 423.043 220.706 423.537 221.757 424.032C222.237 424.255 222.68 424.574 223.226 424.633C224.526 424.277 225.358 423.31 226.101 422.299C226.662 421.534 226.566 420.622 226.079 419.842C225.266 418.541 224.094 417.611 222.728 416.93C219.695 415.413 216.57 414.131 213.27 413.3C212.101 413.006 210.944 412.662 209.783 412.34H209.779Z" fill="#DDA781"/>
<path d="M275.679 436.267C276.448 436.33 277.108 436.091 277.672 435.564C277.848 435.399 278.038 435.238 278.243 435.121C279.946 434.15 281.327 432.798 282.705 431.425C284.283 429.85 285.368 427.978 286.137 425.923C286.99 423.641 287.437 421.271 287.305 418.821C287.243 418.747 287.17 418.725 287.078 418.755C286.924 418.777 286.811 418.725 286.738 418.586C286.628 418.557 286.521 418.524 286.412 418.495C285.694 418.41 285.228 418.648 285.001 419.399C284.012 422.652 282.133 425.421 280.122 428.103C279.397 429.066 278.551 429.945 277.73 430.828C276.903 431.718 275.932 432.439 274.862 433.033C274.397 433.289 273.947 433.571 273.588 433.974C274.075 434.934 274.657 435.802 275.679 436.275V436.267Z" fill="#5B3617"/>
<path d="M248.306 100.668C248.54 100.566 248.577 100.393 248.478 100.177C248.284 100.141 248.137 100.21 248.097 100.408C248.068 100.547 248.156 100.643 248.302 100.672L248.306 100.668Z" fill="#F7BC94"/>
<path d="M279.756 363.961C279.529 364.1 279.434 364.302 279.456 364.565C279.731 364.452 279.771 364.217 279.756 363.961Z" fill="#F7BB92"/>
<path d="M286.736 418.586C286.81 418.725 286.923 418.776 287.077 418.754C287.008 418.612 286.898 418.546 286.736 418.586Z" fill="#7A4922"/>
<path d="M234.347 349.246C234.325 349.378 234.303 349.513 234.281 349.645C234.497 349.631 234.713 349.612 234.926 349.598C234.732 349.481 234.541 349.363 234.347 349.246Z" fill="#BBB58A"/>
</svg>
