<svg width="500" height="500" viewBox="0 0 500 500" fill="none" xmlns="http://www.w3.org/2000/svg">
<path d="M248.305 90.6677C247.059 92.6603 246.451 94.924 245.653 97.0962C242.627 105.356 240.228 113.807 238.06 122.327C235.726 131.506 233.752 140.762 232.03 150.07C230.877 156.322 229.858 162.601 228.961 168.897C228.254 173.85 227.609 178.806 227.06 183.776C226.54 188.505 226.107 193.245 225.745 197.992C225.078 206.67 224.785 215.351 224.921 224.054C225.008 229.647 225.459 235.208 226.305 240.735C226.503 242.032 226.741 243.321 226.921 244.618C227.144 246.215 227.591 247.749 228.159 249.251C228.778 250.885 229.4 252.519 230.034 254.145C230.137 254.412 230.312 254.65 230.455 254.903C230.986 254.863 231.507 254.903 232.041 254.991C233.137 255.167 234.246 255.31 235.353 255.365C238.155 255.5 240.961 255.486 243.766 255.625C248.598 255.863 253.444 255.665 258.283 255.929C260.36 256.042 262.447 255.954 264.528 256.013C265.389 256.039 266.158 255.892 266.854 255.387C267.473 254.614 267.825 253.713 268.11 252.779C269.239 249.061 270.359 245.343 271.488 241.629C272.066 239.724 272.674 237.83 273.227 235.918C274.008 233.208 274.542 230.442 274.971 227.658C275.088 226.893 275.092 226.109 275.11 225.332C275.125 224.603 275.055 223.874 275.088 223.145C275.176 221.087 274.707 219.087 274.433 217.072C274.363 216.552 274.132 216.05 273.96 215.545C270.103 204.292 266.235 193.04 262.389 181.783C261.29 178.567 260.268 175.326 259.338 172.055C259.125 171.307 258.869 170.571 258.583 169.853C258.081 168.593 257.986 167.337 258.308 166.004C258.733 164.256 259.217 162.527 259.748 160.813C260.759 157.564 261.546 154.271 261.986 150.883C262.356 148.04 262.729 145.202 262.993 142.348C263.191 140.22 263.301 138.085 263.385 135.949C263.469 133.814 263.469 131.678 263.587 129.543C263.733 126.828 263.733 124.103 263.748 121.385C263.773 116.283 263.693 111.18 263.795 106.081C263.858 102.829 263.916 99.576 264.169 96.3269C264.242 95.3929 264.568 94.5321 264.707 93.6237C263.891 93.338 263.092 92.9973 262.257 92.7775C258.301 91.7409 254.338 90.7446 250.382 89.708C249.807 89.5578 249.25 89.4992 248.671 89.5725C248.609 89.7739 248.543 89.9717 248.481 90.1695C248.58 90.3893 248.543 90.5578 248.308 90.6604L248.305 90.6677Z" fill="#6A6D66"/>
<path d="M209.778 402.34C209.595 402.036 209.569 401.743 209.654 401.377C210.192 399.018 210.683 396.652 211.21 394.289C212.28 389.472 213.36 384.656 214.445 379.839C215.305 376.015 216.17 372.19 217.038 368.37C217.155 367.85 217.294 367.333 217.47 366.832C217.994 365.311 218.804 364.736 220.379 364.736C221.884 364.736 223.386 364.744 224.891 364.729C226.148 364.718 227.412 364.813 228.657 364.513C228.979 364.436 229.335 364.484 229.672 364.484C233.166 364.484 236.66 364.502 240.151 364.473C241.609 364.462 243.041 364.806 244.503 364.707C245.276 364.656 246.041 364.659 246.818 364.55C247.723 364.421 248.657 364.491 249.58 364.484C250.21 364.48 250.843 364.528 251.473 364.487C253.228 364.377 254.953 364.623 256.682 364.846C257.287 364.663 257.891 364.476 258.495 364.304C260.221 363.806 261.946 363.319 263.583 362.55C264.426 362.154 265.14 361.564 265.979 361.176C267.173 360.619 268.191 359.777 269.283 359.059C269.843 358.689 270.371 358.224 270.806 357.715C271.748 356.605 272.671 355.473 273.51 354.286C274.18 353.337 274.66 352.293 274.894 351.114C275.217 349.502 275.096 347.942 274.865 346.345C274.627 344.696 273.953 343.29 272.909 342.03C272.506 341.543 272.114 341.048 271.704 340.568C270.389 339.022 268.843 337.81 266.854 337.239C266.015 336.997 265.184 336.722 264.36 336.44C263.847 336.264 263.327 336.187 262.785 336.22C261.429 336.301 260.07 336.4 258.715 336.44C257.158 336.488 255.624 336.689 254.092 336.953C252.565 337.217 251.027 337.425 249.492 337.653C247.668 337.92 245.818 337.909 243.986 338.173C240.961 338.605 237.935 339.015 234.935 339.598C234.719 339.612 234.503 339.631 234.291 339.645C232.58 339.938 230.88 340.327 229.159 340.499C228.009 340.612 226.877 340.861 225.705 340.894C224.752 340.92 223.8 341.184 222.826 341.158C222.778 341.158 222.727 341.165 222.683 341.18C221.576 341.579 220.39 341.44 219.25 341.682C218.65 341.81 218.038 341.982 217.404 342.03C216.445 342.103 215.492 342.272 214.54 342.422C213.016 342.663 211.507 343.019 209.976 343.143C208.683 343.25 207.522 343.66 206.368 344.165C204.983 344.77 203.76 345.623 202.591 346.59C202.002 347.077 201.584 347.583 201.317 348.286C200.921 349.326 200.474 350.348 200.005 351.356C199.038 353.44 198.544 355.66 198.145 357.894C197.848 359.553 197.786 361.253 197.467 362.909C197.32 363.674 197.306 364.443 197.152 365.202C196.602 367.894 196.027 370.582 195.566 373.289C195.438 374.044 195.258 374.802 195.2 375.575C195.126 376.535 195.09 377.524 194.833 378.439C194.57 379.385 194.584 380.352 194.401 381.3C194.247 382.088 194.046 382.908 194.049 383.729C194.049 384.941 193.668 386.11 193.69 387.333C193.701 387.886 193.438 388.454 193.452 389.047C193.482 390.212 193.214 391.355 193.057 392.498C192.877 393.787 192.881 395.095 192.606 396.373C192.478 396.978 192.482 397.611 192.386 398.234C192.233 399.23 192.079 400.245 192.027 401.249C191.954 402.699 191.544 404.117 191.687 405.582C191.701 405.721 191.636 405.864 191.61 406.01C191.317 407.692 191.258 409.373 191.65 411.051C191.712 411.314 191.639 411.527 191.427 411.692C191.804 412.146 192.035 412.67 192.189 413.237C192.533 414.501 192.965 415.736 193.445 416.955C193.994 418.351 194.874 419.45 196.068 420.355C197.159 421.182 198.247 421.999 199.599 422.322C200.822 422.615 202.071 422.79 203.298 423.072C204.782 423.413 206.287 423.333 207.789 423.395C209.287 423.457 210.782 423.655 212.287 423.633C213.357 423.618 214.426 423.695 215.492 423.622C216.939 423.523 218.382 423.344 219.818 423.16C220.631 423.058 221.448 422.992 222.258 422.794C223.771 422.424 224.858 421.519 225.712 420.296C226.32 419.424 226.324 418.457 225.818 417.541C225.371 416.736 224.833 415.981 224.038 415.457C223.716 415.245 223.386 415.025 223.239 414.637C222.69 414.578 222.25 414.263 221.771 414.036C220.719 413.542 219.672 413.047 218.624 412.549C216.829 411.695 214.895 411.238 213.034 410.571C211.851 410.146 210.687 409.681 209.569 409.102C208.892 408.75 208.61 408.249 208.599 407.476C208.584 406.395 208.884 405.38 209.078 404.344C209.21 403.641 209.232 402.897 209.793 402.344L209.778 402.34Z" fill="#F7BB92"/>
<path d="M234.925 339.598C237.925 339.019 240.95 338.605 243.976 338.173C245.807 337.913 247.654 337.924 249.481 337.653C251.016 337.426 252.555 337.22 254.082 336.953C255.613 336.686 257.148 336.488 258.705 336.44C260.064 336.4 261.419 336.301 262.774 336.22C263.316 336.187 263.833 336.264 264.349 336.44C265.177 336.722 266.005 336.997 266.844 337.239C268.833 337.81 270.375 339.026 271.694 340.568C272.104 341.048 272.496 341.543 272.899 342.03C273.943 343.29 274.617 344.696 274.855 346.345C275.085 347.942 275.206 349.502 274.884 351.114C274.646 352.297 274.166 353.337 273.499 354.286C272.661 355.473 271.737 356.605 270.796 357.715C270.36 358.227 269.836 358.693 269.272 359.059C268.181 359.777 267.162 360.619 265.968 361.176C265.133 361.568 264.415 362.158 263.573 362.55C261.935 363.319 260.21 363.806 258.485 364.304C257.881 364.48 257.276 364.667 256.672 364.846C256.983 365.762 257.031 366.696 256.884 367.649C257.514 367.74 258.144 367.711 258.76 367.568C262.397 366.733 265.957 365.725 269.199 363.751C273.126 361.359 276.748 358.678 279.236 354.711C279.283 354.634 279.386 354.594 279.459 354.539L279.452 354.557C279.426 354.293 279.525 354.092 279.752 353.953C280.891 351.462 281.492 348.806 281.946 346.136C282.287 344.136 282.243 342.077 282.195 340.041C282.107 336.389 281.642 332.807 280.664 329.275C280.005 326.898 279.613 324.444 278.99 322.056C277.595 316.712 276.115 311.389 274.701 306.052C274.144 303.946 273.686 301.811 273.151 299.697C272.734 298.053 272.269 296.422 271.825 294.785C270.602 294.829 269.419 295.126 268.269 295.499C266.694 296.012 265.086 296.379 263.478 296.73C255.661 298.43 247.866 300.239 240.079 302.078C237.068 302.789 234.016 303.36 231.082 304.386C231.189 305.741 231.262 307.096 231.412 308.448C231.72 311.203 231.822 313.968 231.892 316.734C231.965 319.598 231.954 322.466 231.98 325.33C231.98 325.378 231.987 325.429 231.98 325.477C231.826 327.96 232.06 330.422 232.39 332.88C232.621 334.217 233.009 335.513 233.438 336.799C233.712 337.623 234.035 338.429 234.339 339.246C234.533 339.363 234.723 339.48 234.918 339.598H234.925Z" fill="#8A8AD9"/>
<path d="M231.089 304.391C234.019 303.365 237.071 302.794 240.085 302.083C247.873 300.244 255.664 298.435 263.484 296.735C265.092 296.387 266.7 296.017 268.275 295.504C269.422 295.131 270.609 294.838 271.832 294.79C271.455 292.743 270.784 290.768 270.305 288.75C269.323 284.611 268.242 280.497 267.495 276.303C267.224 274.783 266.902 273.267 266.697 271.736C266.517 270.395 266.422 269.04 266.382 267.688C266.323 265.75 266.367 263.809 266.334 261.871C266.301 259.974 266.524 258.109 266.85 256.245C266.898 255.967 266.858 255.67 266.858 255.38C266.162 255.89 265.393 256.032 264.532 256.007C262.451 255.945 260.363 256.036 258.286 255.923C253.448 255.655 248.605 255.853 243.77 255.619C240.964 255.479 238.159 255.498 235.356 255.358C234.25 255.304 233.14 255.161 232.045 254.985C231.514 254.901 230.994 254.857 230.459 254.897C230.946 257.934 230.84 260.999 230.704 264.043C230.584 266.706 230.617 269.38 230.4 272.032C230.122 275.428 230.28 278.82 230.21 282.212C230.166 284.395 230.184 286.581 230.162 288.765C230.159 289.197 230.14 289.644 230.045 290.061C229.924 290.596 229.91 291.105 230.06 291.636C230.276 292.395 230.173 293.178 230.203 293.955C230.254 295.405 230.063 296.863 230.448 298.299C230.521 298.574 230.492 298.878 230.481 299.171C230.437 300.438 230.569 301.687 230.913 302.907C231.012 303.255 231.001 303.567 230.888 303.9C230.818 304.101 230.88 304.277 231.089 304.376V304.391Z" fill="#F7BB92"/>
<path d="M286.411 408.491C285.869 408.198 285.536 407.865 285.649 407.129C286.133 403.993 285.983 400.85 285.51 397.73C284.745 392.693 283.558 387.766 281.525 383.074C281.236 382.408 280.932 381.752 280.624 381.093C280.045 379.854 279.316 378.723 278.316 377.781C277.705 378.067 277.448 378.671 277.075 379.169C275.097 381.807 273.349 384.613 271.141 387.081C270.672 387.605 270.228 387.836 269.536 387.825C266.093 387.774 262.646 387.785 259.203 387.711C258.441 387.697 258.035 387.946 257.778 388.624C257.503 389.349 257.17 390.048 256.855 390.759C255.591 393.594 254.221 396.374 252.723 399.096C252.177 400.085 251.551 400.715 250.43 400.814C250.287 400.828 250.145 400.861 250.002 400.887C247.474 401.338 244.947 401.792 242.416 402.235C240.269 402.609 238.126 403.004 235.954 403.22C235.749 404.843 236.093 406.404 236.518 407.946C236.921 409.4 237.515 410.784 238.244 412.099C240.31 415.828 242.994 419.055 246.247 421.81C248.408 423.638 250.921 424.733 253.661 425.319C255.035 425.612 256.427 425.806 257.811 426.037C261.456 426.645 265.06 426.279 268.646 425.572C269.694 425.367 270.679 424.938 271.668 424.535C272.287 424.282 272.88 423.909 273.591 423.967C273.95 423.564 274.404 423.282 274.866 423.026C275.932 422.436 276.902 421.715 277.734 420.821C278.558 419.934 279.404 419.059 280.126 418.096C282.137 415.414 284.016 412.649 285.005 409.392C285.232 408.642 285.697 408.403 286.415 408.488L286.411 408.491Z" fill="#7A4821"/>
<path d="M235.95 403.224C238.122 403.012 240.265 402.612 242.411 402.239C244.943 401.799 247.466 401.341 249.997 400.891C250.14 400.865 250.283 400.832 250.426 400.817C251.547 400.715 252.173 400.089 252.719 399.1C254.221 396.378 255.587 393.598 256.851 390.763C257.166 390.056 257.499 389.352 257.774 388.627C258.034 387.946 258.44 387.697 259.199 387.715C262.642 387.788 266.089 387.774 269.532 387.829C270.224 387.84 270.667 387.609 271.136 387.085C273.345 384.616 275.092 381.807 277.07 379.173C277.444 378.675 277.704 378.071 278.312 377.785C277.88 376.386 277.946 374.913 277.719 373.481C277.568 372.532 277.653 371.55 277.455 370.594C277.367 370.177 277.374 369.708 277.466 369.29C277.7 368.232 277.704 367.166 277.642 366.107C277.473 363.313 278.001 360.613 278.653 357.924C278.825 357.221 279.03 356.521 279.25 355.829C279.382 355.408 279.51 354.998 279.466 354.551C279.389 354.609 279.29 354.65 279.242 354.723C276.755 358.69 273.129 361.371 269.206 363.763C265.964 365.737 262.404 366.745 258.766 367.58C258.147 367.723 257.521 367.752 256.891 367.66C256.506 368.03 256.129 368.408 255.737 368.767C255.25 369.21 254.734 369.43 254.019 369.287C253.268 369.137 252.477 369.17 251.704 369.14C250.06 369.082 248.415 369.173 246.767 368.917C245.272 368.686 243.763 368.942 242.291 369.236C240.913 369.51 239.954 370.32 239.419 371.653C238.778 373.246 238.43 374.887 238.382 376.598C238.335 378.235 238.485 378.111 236.913 378.902C235.221 379.756 233.518 380.58 231.829 381.437C230.602 382.06 230.43 382.51 231.086 383.759C232.752 386.939 234.441 390.107 236.192 393.239C236.529 393.84 236.679 394.385 236.58 395.023C236.228 397.323 235.913 399.631 235.998 401.964C236.012 402.389 235.602 402.792 235.954 403.217L235.95 403.224Z" fill="#F7BB92"/>
<path d="M248.668 89.5764C249.247 89.4995 249.803 89.5617 250.378 89.7119C254.334 90.7485 258.298 91.7449 262.254 92.7815C263.085 93.0013 263.887 93.3419 264.704 93.6276C265.239 93.4628 265.36 92.8144 265.913 92.6423C266.43 92.4811 266.792 92.0525 267.21 91.7229C268.386 90.7962 269.679 89.994 270.744 88.9574C272.733 87.0233 274.133 84.7486 274.188 81.8329C274.213 80.5582 274.063 79.3275 273.708 78.104C272.946 75.4997 272.243 72.8843 271.481 70.28C271.155 69.1628 270.755 68.0712 270.375 66.9687C269.462 64.3094 268.814 61.5732 268.03 58.8736C267.517 57.108 267.147 55.2875 266.151 53.6978C264.964 51.8078 263.378 50.4818 261.074 50.2144C260.979 50.2034 260.873 50.229 260.785 50.1997C259.221 49.6466 257.825 50.3645 256.441 50.8737C255.792 51.1118 255.214 51.6319 254.73 52.1814C254.507 52.4341 254.309 52.7125 254.096 52.9726C253.181 54.1008 252.737 55.3974 252.609 56.8406C252.514 57.8956 252.302 58.9395 252.159 59.9908C252.023 60.9944 251.965 62.0127 251.778 63.0054C251.481 64.5768 251.463 66.1775 251.265 67.7599C251.009 69.8185 250.584 71.8587 250.558 73.9503C250.543 74.9576 250.32 75.9612 250.188 76.9649C250.042 78.0638 249.921 79.1663 249.73 80.2579C249.389 82.2139 249.481 84.2212 249.085 86.1589C248.884 87.1552 248.965 88.1918 248.598 89.1588C248.554 89.2724 248.642 89.4372 248.668 89.5801V89.5764Z" fill="#F7BB92"/>
<path d="M234.347 339.247C234.046 338.434 233.72 337.624 233.446 336.8C233.021 335.515 232.629 334.218 232.398 332.881C230.618 333.093 228.838 333.32 227.054 333.507C225.944 333.624 224.83 333.69 223.72 333.793C219.904 334.145 216.12 334.705 212.329 335.262C210.699 335.5 209.058 335.661 207.42 335.874C206.941 335.936 206.461 336.016 205.995 336.152C203.64 336.848 201.512 337.987 199.538 339.434C199.047 339.793 198.717 340.24 198.472 340.786C198.036 341.76 197.607 342.742 197.102 343.679C195.794 346.108 195.073 348.723 194.655 351.415C194.014 355.536 193.274 359.635 192.329 363.701C191.922 365.444 191.692 367.228 191.384 368.994C191.157 370.283 190.908 371.569 190.71 372.862C190.428 374.73 190.183 376.605 189.926 378.477C189.684 380.254 189.443 382.03 189.205 383.807C188.966 385.583 188.736 387.364 188.505 389.14C188.259 391.015 188.014 392.887 187.783 394.766C187.618 396.114 187.476 397.462 187.333 398.81C187.296 399.147 187.358 399.51 187.263 399.825C186.952 400.85 187.164 401.858 187.373 402.847C187.879 405.228 188.714 407.506 189.721 409.722C190.095 410.539 190.67 411.18 191.402 411.689C191.615 411.524 191.688 411.312 191.626 411.048C191.234 409.371 191.292 407.693 191.585 406.008C191.611 405.865 191.677 405.719 191.662 405.579C191.516 404.114 191.93 402.693 192.003 401.246C192.054 400.239 192.208 399.228 192.362 398.232C192.457 397.609 192.45 396.971 192.582 396.371C192.856 395.092 192.853 393.785 193.032 392.495C193.19 391.356 193.457 390.21 193.428 389.045C193.413 388.451 193.673 387.887 193.666 387.331C193.644 386.107 194.029 384.939 194.025 383.726C194.025 382.906 194.223 382.085 194.377 381.298C194.56 380.349 194.545 379.382 194.809 378.437C195.065 377.518 195.098 376.532 195.175 375.573C195.234 374.8 195.413 374.041 195.541 373.287C196.003 370.58 196.582 367.891 197.127 365.199C197.281 364.441 197.3 363.672 197.442 362.906C197.758 361.254 197.823 359.551 198.12 357.891C198.519 355.657 199.014 353.437 199.981 351.353C200.45 350.342 200.897 349.32 201.292 348.284C201.56 347.58 201.977 347.075 202.567 346.588C203.735 345.621 204.959 344.771 206.343 344.163C207.497 343.657 208.658 343.247 209.951 343.141C211.483 343.016 212.995 342.661 214.515 342.419C215.468 342.269 216.42 342.101 217.38 342.027C218.014 341.98 218.625 341.807 219.226 341.679C220.365 341.438 221.552 341.58 222.658 341.177C222.702 341.163 222.753 341.155 222.801 341.155C223.775 341.181 224.728 340.917 225.68 340.892C226.852 340.859 227.984 340.61 229.134 340.496C230.856 340.324 232.555 339.939 234.266 339.643C234.288 339.511 234.31 339.379 234.332 339.243L234.347 339.247Z" fill="#DDA781"/>
<path d="M275.679 426.267C276.99 427.45 278.653 427.846 280.279 428.3C281.693 428.696 283.159 428.718 284.613 428.802C288.781 429.051 292.95 429.304 297.122 429.505C301.1 429.699 305.078 429.831 309.059 429.989C309.448 430.003 309.836 429.992 310.224 430C311.18 430.014 311.872 429.498 312.488 428.85C312.806 428.513 312.869 428.073 312.894 427.63C312.946 426.685 312.711 425.791 312.308 424.956C311.385 423.047 310.096 421.417 308.451 420.084C307.092 418.982 305.638 418.037 304.045 417.275C298.792 414.762 293.613 412.099 288.499 409.308C288.122 409.103 287.767 408.824 287.305 408.824C287.441 411.278 286.994 413.645 286.137 415.927C285.367 417.982 284.287 419.853 282.704 421.428C281.327 422.802 279.946 424.15 278.243 425.124C278.034 425.242 277.847 425.403 277.671 425.568C277.107 426.095 276.448 426.333 275.679 426.271V426.267Z" fill="#7A4821"/>
<path d="M209.779 402.34C209.219 402.893 209.2 403.637 209.065 404.34C208.867 405.376 208.57 406.391 208.585 407.472C208.596 408.245 208.874 408.746 209.556 409.098C210.673 409.68 211.838 410.146 213.021 410.567C214.882 411.233 216.816 411.691 218.611 412.545C219.658 413.043 220.706 413.537 221.757 414.032C222.237 414.255 222.68 414.574 223.226 414.633C224.526 414.277 225.358 413.31 226.101 412.299C226.662 411.534 226.566 410.622 226.079 409.842C225.266 408.541 224.094 407.611 222.728 406.93C219.695 405.413 216.57 404.131 213.27 403.3C212.101 403.006 210.944 402.662 209.783 402.34H209.779Z" fill="#DDA781"/>
<path d="M275.679 426.267C276.448 426.33 277.108 426.091 277.672 425.564C277.848 425.399 278.038 425.238 278.243 425.121C279.946 424.15 281.327 422.798 282.705 421.425C284.283 419.85 285.368 417.978 286.137 415.923C286.99 413.641 287.437 411.271 287.305 408.821C287.243 408.747 287.17 408.725 287.078 408.755C286.924 408.777 286.811 408.725 286.738 408.586C286.628 408.557 286.521 408.524 286.412 408.495C285.694 408.41 285.228 408.648 285.001 409.399C284.012 412.652 282.133 415.421 280.122 418.103C279.397 419.066 278.551 419.945 277.73 420.828C276.903 421.718 275.932 422.439 274.862 423.033C274.397 423.289 273.947 423.571 273.588 423.974C274.075 424.934 274.657 425.802 275.679 426.275V426.267Z" fill="#5B3617"/>
<path d="M248.306 90.6682C248.54 90.5656 248.577 90.3934 248.478 90.1773C248.284 90.1407 248.137 90.2103 248.097 90.4081C248.068 90.5473 248.156 90.6425 248.302 90.6718L248.306 90.6682Z" fill="#F7BC94"/>
<path d="M279.756 353.961C279.529 354.1 279.434 354.302 279.456 354.565C279.731 354.452 279.771 354.217 279.756 353.961Z" fill="#F7BB92"/>
<path d="M286.736 408.586C286.81 408.725 286.923 408.776 287.077 408.754C287.008 408.612 286.898 408.546 286.736 408.586Z" fill="#7A4922"/>
<path d="M234.347 339.246C234.325 339.378 234.303 339.513 234.281 339.645C234.497 339.631 234.713 339.612 234.926 339.598C234.732 339.481 234.541 339.363 234.347 339.246Z" fill="#BBB58A"/>
</svg>
