<svg width="500" height="500" viewBox="0 0 500 500" fill="none" xmlns="http://www.w3.org/2000/svg">
<path d="M248.305 85.6677C247.059 87.6603 246.451 89.924 245.653 92.0962C242.627 100.356 240.228 108.807 238.06 117.327C235.726 126.506 233.752 135.762 232.03 145.07C230.877 151.322 229.858 157.601 228.961 163.897C228.254 168.85 227.609 173.806 227.06 178.776C226.54 183.505 226.107 188.245 225.745 192.992C225.078 201.67 224.785 210.351 224.921 219.054C225.008 224.647 225.459 230.208 226.305 235.735C226.503 237.032 226.741 238.321 226.921 239.618C227.144 241.215 227.591 242.749 228.159 244.251C228.778 245.885 229.4 247.519 230.034 249.145C230.137 249.412 230.312 249.65 230.455 249.903C230.986 249.863 231.507 249.903 232.041 249.991C233.137 250.167 234.246 250.31 235.353 250.365C238.155 250.5 240.961 250.486 243.766 250.625C248.598 250.863 253.444 250.665 258.283 250.929C260.36 251.042 262.447 250.954 264.528 251.013C265.389 251.039 266.158 250.892 266.854 250.387C267.473 249.614 267.825 248.713 268.11 247.779C269.239 244.061 270.359 240.343 271.488 236.629C272.066 234.724 272.674 232.83 273.227 230.918C274.008 228.208 274.542 225.442 274.971 222.658C275.088 221.893 275.092 221.109 275.11 220.332C275.125 219.603 275.055 218.874 275.088 218.145C275.176 216.087 274.707 214.087 274.433 212.072C274.363 211.552 274.132 211.05 273.96 210.545C270.103 199.292 266.235 188.04 262.389 176.783C261.29 173.567 260.268 170.326 259.338 167.055C259.125 166.307 258.869 165.571 258.583 164.853C258.081 163.593 257.986 162.337 258.308 161.004C258.733 159.256 259.217 157.527 259.748 155.813C260.759 152.564 261.546 149.271 261.986 145.883C262.356 143.04 262.729 140.202 262.993 137.348C263.191 135.22 263.301 133.085 263.385 130.949C263.469 128.814 263.469 126.678 263.587 124.543C263.733 121.828 263.733 119.103 263.748 116.385C263.773 111.283 263.693 106.18 263.795 101.081C263.858 97.8287 263.916 94.576 264.169 91.3269C264.242 90.3929 264.568 89.5321 264.707 88.6237C263.891 88.338 263.092 87.9973 262.257 87.7775C258.301 86.7409 254.338 85.7446 250.382 84.708C249.807 84.5578 249.25 84.4992 248.671 84.5725C248.609 84.7739 248.543 84.9717 248.481 85.1695C248.58 85.3893 248.543 85.5578 248.308 85.6604L248.305 85.6677Z" fill="#6A6D66"/>
<path d="M209.779 397.34C209.595 397.036 209.57 396.743 209.654 396.377C210.193 394.018 210.683 391.652 211.211 389.289C212.28 384.472 213.361 379.656 214.445 374.839C215.306 371.015 216.17 367.19 217.039 363.37C217.156 362.85 217.295 362.333 217.471 361.832C217.995 360.311 218.804 359.736 220.379 359.736C221.885 359.736 223.386 359.744 224.892 359.729C226.148 359.718 227.412 359.813 228.657 359.513C228.98 359.436 229.335 359.484 229.672 359.484C233.167 359.484 236.661 359.502 240.152 359.473C241.61 359.462 243.042 359.806 244.503 359.707C245.276 359.656 246.042 359.659 246.818 359.55C247.723 359.421 248.657 359.491 249.58 359.484C250.21 359.48 250.844 359.528 251.474 359.487C253.228 359.377 254.954 359.623 256.683 359.846C257.287 359.663 257.891 359.476 258.496 359.304C260.221 358.806 261.946 358.319 263.584 357.55C264.426 357.154 265.14 356.564 265.979 356.176C267.173 355.619 268.192 354.777 269.283 354.059C269.844 353.689 270.371 353.224 270.807 352.715C271.748 351.605 272.671 350.473 273.51 349.286C274.181 348.337 274.66 347.293 274.895 346.114C275.217 344.502 275.096 342.942 274.866 341.345C274.627 339.696 273.953 338.29 272.909 337.03C272.507 336.543 272.115 336.048 271.704 335.568C270.389 334.022 268.844 332.81 266.855 332.239C266.016 331.997 265.184 331.722 264.36 331.44C263.847 331.264 263.327 331.187 262.785 331.22C261.43 331.301 260.071 331.4 258.716 331.44C257.159 331.488 255.624 331.689 254.093 331.953C252.565 332.217 251.027 332.425 249.492 332.653C247.668 332.92 245.818 332.909 243.987 333.173C240.961 333.605 237.936 334.015 234.936 334.598C234.72 334.612 234.503 334.631 234.291 334.645C232.58 334.938 230.881 335.327 229.159 335.499C228.009 335.612 226.877 335.861 225.705 335.894C224.753 335.92 223.8 336.184 222.826 336.158C222.778 336.158 222.727 336.165 222.683 336.18C221.577 336.579 220.39 336.44 219.251 336.682C218.65 336.81 218.039 336.982 217.405 337.03C216.445 337.103 215.493 337.272 214.54 337.422C213.017 337.663 211.508 338.019 209.976 338.143C208.683 338.25 207.522 338.66 206.368 339.165C204.984 339.77 203.76 340.623 202.592 341.59C202.002 342.077 201.585 342.583 201.317 343.286C200.922 344.326 200.475 345.348 200.006 346.356C199.039 348.44 198.544 350.66 198.145 352.894C197.848 354.553 197.786 356.253 197.467 357.909C197.321 358.674 197.306 359.443 197.152 360.202C196.603 362.894 196.028 365.582 195.566 368.289C195.438 369.044 195.259 369.802 195.2 370.575C195.127 371.535 195.09 372.524 194.834 373.439C194.57 374.385 194.585 375.352 194.402 376.3C194.248 377.088 194.046 377.908 194.05 378.729C194.05 379.941 193.669 381.11 193.691 382.333C193.702 382.886 193.438 383.454 193.453 384.047C193.482 385.212 193.215 386.355 193.057 387.498C192.878 388.787 192.881 390.095 192.607 391.373C192.479 391.978 192.482 392.611 192.387 393.234C192.233 394.23 192.079 395.245 192.028 396.249C191.955 397.699 191.544 399.117 191.687 400.582C191.702 400.721 191.636 400.864 191.61 401.01C191.317 402.692 191.259 404.373 191.651 406.051C191.713 406.314 191.64 406.527 191.427 406.692C191.805 407.146 192.035 407.67 192.189 408.237C192.533 409.501 192.966 410.736 193.446 411.955C193.995 413.351 194.874 414.45 196.068 415.355C197.16 416.182 198.248 416.999 199.599 417.322C200.823 417.615 202.072 417.79 203.299 418.072C204.782 418.413 206.288 418.333 207.79 418.395C209.288 418.457 210.782 418.655 212.288 418.633C213.357 418.618 214.427 418.695 215.493 418.622C216.94 418.523 218.383 418.344 219.819 418.16C220.632 418.058 221.449 417.992 222.258 417.794C223.771 417.424 224.859 416.519 225.712 415.296C226.32 414.424 226.324 413.457 225.819 412.541C225.372 411.736 224.833 410.981 224.038 410.457C223.716 410.245 223.386 410.025 223.24 409.637C222.69 409.578 222.251 409.263 221.771 409.036C220.72 408.542 219.672 408.047 218.625 407.549C216.83 406.695 214.896 406.238 213.035 405.571C211.852 405.146 210.687 404.681 209.57 404.102C208.892 403.75 208.61 403.249 208.599 402.476C208.584 401.395 208.885 400.38 209.079 399.344C209.211 398.641 209.233 397.897 209.793 397.344L209.779 397.34Z" fill="#F7BB92"/>
<path d="M234.925 334.598C237.925 334.019 240.95 333.605 243.976 333.173C245.807 332.913 247.654 332.924 249.481 332.653C251.016 332.426 252.555 332.22 254.082 331.953C255.613 331.686 257.148 331.488 258.705 331.44C260.064 331.4 261.419 331.301 262.774 331.22C263.316 331.187 263.833 331.264 264.349 331.44C265.177 331.722 266.005 331.997 266.844 332.239C268.833 332.81 270.375 334.026 271.694 335.568C272.104 336.048 272.496 336.543 272.899 337.03C273.943 338.29 274.617 339.696 274.855 341.345C275.085 342.942 275.206 344.502 274.884 346.114C274.646 347.297 274.166 348.337 273.499 349.286C272.661 350.473 271.737 351.605 270.796 352.715C270.36 353.227 269.836 353.693 269.272 354.059C268.181 354.777 267.162 355.619 265.968 356.176C265.133 356.568 264.415 357.158 263.573 357.55C261.935 358.319 260.21 358.806 258.485 359.304C257.881 359.48 257.276 359.667 256.672 359.846C256.983 360.762 257.031 361.696 256.884 362.649C257.514 362.74 258.144 362.711 258.76 362.568C262.397 361.733 265.957 360.725 269.199 358.751C273.126 356.359 276.748 353.678 279.236 349.711C279.283 349.634 279.386 349.594 279.459 349.539L279.452 349.557C279.426 349.293 279.525 349.092 279.752 348.953C280.891 346.462 281.492 343.806 281.946 341.136C282.287 339.136 282.243 337.077 282.195 335.041C282.107 331.389 281.642 327.807 280.664 324.275C280.005 321.898 279.613 319.444 278.99 317.056C277.595 311.712 276.115 306.389 274.701 301.052C274.144 298.946 273.686 296.811 273.151 294.697C272.734 293.053 272.269 291.422 271.825 289.785C270.602 289.829 269.419 290.126 268.269 290.499C266.694 291.012 265.086 291.379 263.478 291.73C255.661 293.43 247.866 295.239 240.079 297.078C237.068 297.789 234.016 298.36 231.082 299.386C231.189 300.741 231.262 302.096 231.412 303.448C231.72 306.203 231.822 308.968 231.892 311.734C231.965 314.598 231.954 317.466 231.98 320.33C231.98 320.378 231.987 320.429 231.98 320.477C231.826 322.96 232.06 325.422 232.39 327.88C232.621 329.217 233.009 330.513 233.438 331.799C233.712 332.623 234.035 333.429 234.339 334.246C234.533 334.363 234.723 334.48 234.918 334.598H234.925Z" fill="#8A8AD9"/>
<path d="M231.089 299.39C234.019 298.364 237.071 297.793 240.085 297.082C247.873 295.243 255.664 293.434 263.484 291.734C265.092 291.386 266.7 291.016 268.275 290.503C269.422 290.13 270.609 289.837 271.832 289.789C271.455 287.742 270.784 285.767 270.305 283.749C269.323 279.61 268.242 275.496 267.495 271.302C267.224 269.782 266.902 268.266 266.697 266.735C266.517 265.394 266.422 264.039 266.382 262.687C266.323 260.749 266.367 258.808 266.334 256.87C266.301 254.973 266.524 253.108 266.85 251.244C266.898 250.966 266.858 250.669 266.858 250.379C266.162 250.889 265.393 251.031 264.532 251.006C262.451 250.944 260.363 251.035 258.286 250.922C253.448 250.654 248.605 250.852 243.77 250.618C240.964 250.478 238.159 250.497 235.356 250.358C234.25 250.303 233.14 250.16 232.045 249.984C231.514 249.9 230.994 249.856 230.459 249.896C230.946 252.933 230.84 255.998 230.704 259.042C230.584 261.705 230.617 264.379 230.4 267.031C230.122 270.427 230.28 273.819 230.21 277.211C230.166 279.394 230.184 281.58 230.162 283.764C230.159 284.196 230.14 284.643 230.045 285.06C229.924 285.595 229.91 286.104 230.06 286.635C230.276 287.394 230.173 288.177 230.203 288.954C230.254 290.405 230.063 291.862 230.448 293.298C230.521 293.573 230.492 293.877 230.481 294.17C230.437 295.437 230.569 296.686 230.913 297.906C231.012 298.254 231.001 298.566 230.888 298.899C230.818 299.1 230.88 299.276 231.089 299.375V299.39Z" fill="#F7BB92"/>
<path d="M286.411 403.491C285.869 403.198 285.536 402.865 285.649 402.129C286.133 398.993 285.983 395.85 285.51 392.73C284.745 387.693 283.558 382.766 281.525 378.074C281.236 377.408 280.932 376.752 280.624 376.093C280.045 374.854 279.316 373.723 278.316 372.781C277.705 373.067 277.448 373.671 277.075 374.169C275.097 376.807 273.349 379.613 271.141 382.081C270.672 382.605 270.228 382.836 269.536 382.825C266.093 382.774 262.646 382.785 259.203 382.711C258.441 382.697 258.035 382.946 257.778 383.624C257.503 384.349 257.17 385.048 256.855 385.759C255.591 388.594 254.221 391.374 252.723 394.096C252.177 395.085 251.551 395.715 250.43 395.814C250.287 395.828 250.145 395.861 250.002 395.887C247.474 396.338 244.947 396.792 242.416 397.235C240.269 397.609 238.126 398.004 235.954 398.22C235.749 399.843 236.093 401.404 236.518 402.946C236.921 404.4 237.515 405.784 238.244 407.099C240.31 410.828 242.994 414.055 246.247 416.81C248.408 418.638 250.921 419.733 253.661 420.319C255.035 420.612 256.427 420.806 257.811 421.037C261.456 421.645 265.06 421.279 268.646 420.572C269.694 420.367 270.679 419.938 271.668 419.535C272.287 419.282 272.88 418.909 273.591 418.967C273.95 418.564 274.404 418.282 274.866 418.026C275.932 417.436 276.902 416.715 277.734 415.821C278.558 414.934 279.404 414.059 280.126 413.096C282.137 410.414 284.016 407.649 285.005 404.392C285.232 403.642 285.697 403.403 286.415 403.488L286.411 403.491Z" fill="#7A4821"/>
<path d="M235.95 398.224C238.122 398.012 240.265 397.612 242.411 397.239C244.943 396.799 247.466 396.341 249.997 395.891C250.14 395.865 250.283 395.832 250.426 395.817C251.547 395.715 252.173 395.089 252.719 394.1C254.221 391.378 255.587 388.598 256.851 385.763C257.166 385.056 257.499 384.352 257.774 383.627C258.034 382.946 258.44 382.697 259.199 382.715C262.642 382.788 266.089 382.774 269.532 382.829C270.224 382.84 270.667 382.609 271.136 382.085C273.345 379.616 275.092 376.807 277.07 374.173C277.444 373.675 277.704 373.071 278.312 372.785C277.88 371.386 277.946 369.913 277.719 368.481C277.568 367.532 277.653 366.55 277.455 365.594C277.367 365.177 277.374 364.708 277.466 364.29C277.7 363.232 277.704 362.166 277.642 361.107C277.473 358.313 278.001 355.613 278.653 352.924C278.825 352.221 279.03 351.521 279.25 350.829C279.382 350.408 279.51 349.998 279.466 349.551C279.389 349.609 279.29 349.65 279.242 349.723C276.755 353.69 273.129 356.371 269.206 358.763C265.964 360.737 262.404 361.745 258.766 362.58C258.147 362.723 257.521 362.752 256.891 362.66C256.506 363.03 256.129 363.408 255.737 363.767C255.25 364.21 254.734 364.43 254.019 364.287C253.268 364.137 252.477 364.17 251.704 364.14C250.06 364.082 248.415 364.173 246.767 363.917C245.272 363.686 243.763 363.942 242.291 364.236C240.913 364.51 239.954 365.32 239.419 366.653C238.778 368.246 238.43 369.887 238.382 371.598C238.335 373.235 238.485 373.111 236.913 373.902C235.221 374.756 233.518 375.58 231.829 376.437C230.602 377.06 230.43 377.51 231.086 378.759C232.752 381.939 234.441 385.107 236.192 388.239C236.529 388.84 236.679 389.385 236.58 390.023C236.228 392.323 235.913 394.631 235.998 396.964C236.012 397.389 235.602 397.792 235.954 398.217L235.95 398.224Z" fill="#F7BB92"/>
<path d="M248.668 84.5764C249.247 84.4995 249.804 84.5617 250.379 84.7119C254.335 85.7485 258.298 86.7449 262.254 87.7815C263.086 88.0013 263.888 88.3419 264.705 88.6276C265.24 88.4628 265.36 87.8144 265.914 87.6423C266.43 87.4811 266.793 87.0525 267.21 86.7229C268.386 85.7962 269.679 84.994 270.745 83.9574C272.734 82.0233 274.133 79.7486 274.188 76.8329C274.214 75.5582 274.064 74.3275 273.708 73.104C272.946 70.4997 272.243 67.8843 271.481 65.28C271.155 64.1628 270.756 63.0712 270.375 61.9687C269.463 59.3094 268.815 56.5732 268.031 53.8736C267.518 52.108 267.148 50.2875 266.152 48.6978C264.965 46.8078 263.379 45.4818 261.075 45.2144C260.98 45.2034 260.873 45.229 260.785 45.1997C259.221 44.6466 257.826 45.3645 256.441 45.8737C255.793 46.1118 255.214 46.6319 254.731 47.1814C254.507 47.4341 254.309 47.7125 254.097 47.9726C253.181 49.1008 252.738 50.3974 252.61 51.8406C252.514 52.8956 252.302 53.9395 252.159 54.9908C252.024 55.9944 251.965 57.0127 251.778 58.0054C251.482 59.5768 251.463 61.1775 251.265 62.7599C251.009 64.8185 250.584 66.8587 250.558 68.9503C250.544 69.9576 250.32 70.9612 250.189 71.9649C250.042 73.0638 249.921 74.1663 249.731 75.2579C249.39 77.2139 249.482 79.2212 249.086 81.1589C248.884 82.1552 248.965 83.1918 248.599 84.1588C248.555 84.2724 248.643 84.4372 248.668 84.5801V84.5764Z" fill="#F7BB92"/>
<path d="M234.347 334.247C234.046 333.434 233.72 332.624 233.446 331.8C233.021 330.515 232.629 329.218 232.398 327.881C230.618 328.093 228.838 328.32 227.054 328.507C225.944 328.624 224.83 328.69 223.72 328.793C219.904 329.145 216.12 329.705 212.329 330.262C210.699 330.5 209.058 330.661 207.42 330.874C206.941 330.936 206.461 331.016 205.995 331.152C203.64 331.848 201.512 332.987 199.538 334.434C199.047 334.793 198.717 335.24 198.472 335.786C198.036 336.76 197.607 337.742 197.102 338.679C195.794 341.108 195.073 343.723 194.655 346.415C194.014 350.536 193.274 354.635 192.329 358.701C191.922 360.444 191.692 362.228 191.384 363.994C191.157 365.283 190.908 366.569 190.71 367.862C190.428 369.73 190.183 371.605 189.926 373.477C189.684 375.254 189.443 377.03 189.205 378.807C188.966 380.583 188.736 382.364 188.505 384.14C188.259 386.015 188.014 387.887 187.783 389.766C187.618 391.114 187.476 392.462 187.333 393.81C187.296 394.147 187.358 394.51 187.263 394.825C186.952 395.851 187.164 396.858 187.373 397.847C187.879 400.228 188.714 402.506 189.721 404.722C190.095 405.539 190.67 406.18 191.402 406.689C191.615 406.524 191.688 406.312 191.626 406.048C191.234 404.371 191.292 402.693 191.585 401.008C191.611 400.865 191.677 400.719 191.662 400.579C191.516 399.114 191.93 397.693 192.003 396.246C192.054 395.239 192.208 394.228 192.362 393.231C192.457 392.609 192.45 391.971 192.582 391.371C192.856 390.092 192.853 388.785 193.032 387.495C193.19 386.356 193.457 385.21 193.428 384.045C193.413 383.451 193.673 382.887 193.666 382.331C193.644 381.107 194.029 379.939 194.025 378.726C194.025 377.906 194.223 377.085 194.377 376.298C194.56 375.349 194.545 374.382 194.809 373.437C195.065 372.518 195.098 371.532 195.175 370.573C195.234 369.8 195.413 369.041 195.541 368.287C196.003 365.58 196.582 362.891 197.127 360.199C197.281 359.441 197.3 358.672 197.442 357.906C197.757 356.254 197.823 354.551 198.12 352.891C198.519 350.657 199.014 348.437 199.981 346.353C200.45 345.342 200.897 344.32 201.292 343.284C201.56 342.58 201.977 342.075 202.567 341.588C203.735 340.621 204.959 339.771 206.343 339.163C207.497 338.657 208.658 338.247 209.951 338.141C211.483 338.016 212.995 337.661 214.515 337.419C215.468 337.269 216.42 337.101 217.38 337.027C218.014 336.98 218.625 336.807 219.226 336.679C220.365 336.438 221.552 336.58 222.658 336.177C222.702 336.163 222.753 336.155 222.801 336.155C223.775 336.181 224.728 335.917 225.68 335.892C226.852 335.859 227.984 335.61 229.134 335.496C230.856 335.324 232.555 334.939 234.266 334.643C234.288 334.511 234.31 334.379 234.332 334.243L234.347 334.247Z" fill="#DDA781"/>
<path d="M275.679 421.267C276.99 422.45 278.653 422.846 280.279 423.3C281.693 423.696 283.159 423.718 284.613 423.802C288.781 424.051 292.95 424.304 297.122 424.505C301.1 424.699 305.078 424.831 309.059 424.989C309.448 425.003 309.836 424.992 310.224 425C311.18 425.014 311.872 424.498 312.488 423.85C312.806 423.513 312.869 423.073 312.894 422.63C312.946 421.685 312.711 420.791 312.308 419.956C311.385 418.047 310.096 416.417 308.451 415.084C307.092 413.982 305.638 413.037 304.045 412.275C298.792 409.762 293.613 407.099 288.499 404.308C288.122 404.103 287.767 403.824 287.305 403.824C287.441 406.278 286.994 408.645 286.137 410.927C285.367 412.982 284.287 414.853 282.704 416.428C281.327 417.802 279.946 419.15 278.243 420.124C278.034 420.242 277.847 420.403 277.671 420.568C277.107 421.095 276.448 421.333 275.679 421.271V421.267Z" fill="#7A4821"/>
<path d="M209.779 397.34C209.218 397.893 209.2 398.637 209.064 399.34C208.867 400.376 208.57 401.391 208.585 402.472C208.596 403.245 208.874 403.746 209.555 404.098C210.672 404.68 211.837 405.146 213.02 405.567C214.881 406.233 216.815 406.691 218.61 407.545C219.658 408.043 220.705 408.537 221.757 409.032C222.236 409.255 222.68 409.574 223.225 409.633C224.526 409.277 225.357 408.31 226.101 407.299C226.661 406.534 226.566 405.622 226.079 404.842C225.266 403.541 224.093 402.611 222.727 401.93C219.694 400.413 216.57 399.131 213.269 398.3C212.101 398.006 210.944 397.662 209.782 397.34H209.779Z" fill="#DDA781"/>
<path d="M275.679 421.267C276.448 421.33 277.107 421.091 277.671 420.564C277.847 420.399 278.038 420.238 278.243 420.121C279.946 419.15 281.327 417.798 282.704 416.425C284.283 414.85 285.367 412.978 286.136 410.923C286.99 408.641 287.437 406.271 287.305 403.821C287.243 403.747 287.169 403.725 287.078 403.755C286.924 403.777 286.81 403.725 286.737 403.586C286.627 403.557 286.521 403.524 286.411 403.495C285.693 403.41 285.228 403.648 285.001 404.399C284.012 407.652 282.133 410.421 280.122 413.103C279.397 414.066 278.55 414.945 277.73 415.828C276.902 416.718 275.931 417.439 274.862 418.033C274.397 418.289 273.946 418.571 273.587 418.974C274.074 419.934 274.657 420.802 275.679 421.275V421.267Z" fill="#5B3617"/>
<path d="M248.305 85.6682C248.54 85.5656 248.576 85.3934 248.477 85.1773C248.283 85.1407 248.137 85.2103 248.096 85.4081C248.067 85.5473 248.155 85.6425 248.302 85.6718L248.305 85.6682Z" fill="#F7BC94"/>
<path d="M279.756 348.961C279.529 349.1 279.433 349.302 279.455 349.565C279.73 349.452 279.77 349.217 279.756 348.961Z" fill="#F7BB92"/>
<path d="M286.736 403.586C286.81 403.725 286.923 403.776 287.077 403.754C287.008 403.612 286.898 403.546 286.736 403.586Z" fill="#7A4922"/>
<path d="M234.347 334.246C234.325 334.378 234.303 334.513 234.281 334.645C234.497 334.631 234.713 334.612 234.925 334.598C234.731 334.481 234.541 334.363 234.347 334.246Z" fill="#BBB58A"/>
</svg>
