<svg width="500" height="500" viewBox="0 0 500 500" fill="none" xmlns="http://www.w3.org/2000/svg">
<path d="M207.094 343.258L223.893 346.211L224.297 350.402C227.983 351.861 231.701 353.258 235.446 354.581C237.021 355.136 238.48 355.87 239.865 356.751C241.542 357.818 242.904 359.18 243.944 360.821C244.402 361.543 244.697 362.327 244.732 363.181C244.747 363.58 244.724 363.98 244.452 364.31C243.925 364.946 243.311 365.466 242.403 365.532C242.035 365.559 241.666 365.602 241.297 365.618C237.51 365.804 233.726 366.006 229.939 366.157C225.965 366.316 221.992 366.433 218.018 366.549C216.633 366.592 215.239 366.689 213.866 366.452C206.722 365.385 204.665 348.64 204.665 348.64L207.094 343.258Z" fill="#7A4821"/>
<path d="M204.878 350.896C205.092 351.816 205.398 352.157 206.221 352.619C206.477 352.763 206.733 352.926 206.95 353.123C208.716 354.753 210.804 355.863 212.915 356.965C215.34 358.226 217.925 358.797 220.61 358.937C223.59 359.088 226.52 358.735 229.337 357.671C229.403 357.574 229.399 357.477 229.33 357.38C229.248 357.21 229.267 357.058 229.399 356.923C229.399 356.787 229.392 356.647 229.388 356.511C229.221 355.642 228.771 355.188 227.812 355.2C223.648 355.25 219.721 354.082 215.848 352.724C214.455 352.235 213.117 351.571 211.778 350.939C210.431 350.302 209.228 349.433 208.146 348.405C207.672 347.958 205.65 347.26 205.049 346.988C204.11 347.912 205.049 349.53 204.878 350.9V350.896Z" fill="#5B3617"/>
<path d="M84.9029 310.231C111.873 299.559 138.882 288.993 165.774 278.123C170.256 276.311 174.73 276.377 179.236 276.28C203.353 275.756 225.833 268.057 248.438 260.839C260.413 257.013 272.451 253.373 284.41 249.496C287.084 248.631 288.861 249.019 290.794 251.142C294.547 255.263 298.621 259.089 302.56 263.039C315.89 261.243 329.215 259.446 342.545 257.649C343.453 244.94 342.25 232.399 338.183 220.349C329.394 194.311 299.789 181.691 274.775 193.686C250.902 205.13 227.424 217.4 203.78 229.321C195.088 233.702 186.387 238.064 177.753 242.554C175.642 243.652 173.562 244.203 171.199 244.11C168.195 243.994 165.172 244.223 162.173 244.056C149.639 243.357 138.272 246.547 127.341 252.81C109.347 263.121 90.9644 272.76 72.749 282.679C76.8003 291.864 80.8516 301.046 84.9029 310.231Z" fill="#6A6D66"/>
<path d="M260.308 340.039C260.914 350.504 268.228 357.051 280.41 358.537C289.715 359.674 298.966 358.96 308.264 358.685C321.159 358.3 334.097 358.933 346.965 358.192C360.407 357.42 373.943 358.844 387.284 356.698C397.715 355.018 408.131 353.035 418.371 350.473C424.871 348.847 431.181 349.507 437.471 350.384C441.434 350.935 443.482 350.113 445.136 346.453C447.549 341.11 450.39 335.941 453.335 330.865C454.593 328.7 454.589 327.718 452.412 326.1C442.031 318.397 441.43 317.527 431.942 325.704C423.567 332.922 414.941 330.5 406.051 329.712C396.516 328.866 387.016 327.559 377.478 326.79C366.546 325.909 356.364 329.782 345.902 332.068C338.602 333.663 331.392 331.757 324.632 328.548C321.613 330.271 318.746 328.463 315.944 327.912C301.83 325.137 287.783 322.044 273.328 321.606C273.254 322.879 272.264 323.034 271.317 323.426C263.944 326.488 260.463 332.173 260.312 340.039H260.308Z" fill="#F7BB92"/>
<path d="M84.9028 310.232C80.8515 301.046 76.8002 291.865 72.7489 282.68C66.4624 284.67 60.3505 287.173 54.6538 290.421C47.2613 294.64 44.3083 302.762 46.5474 311.59C49.5703 323.507 52.7097 335.393 55.8607 347.276C57.5449 353.628 62.8923 357.904 68.4609 357.524C74.7008 357.097 79.4545 352.673 80.3781 345.945C82.004 334.054 83.4088 322.137 84.9028 310.232Z" fill="#F7BB92"/>
<path d="M273.324 321.601C287.779 322.04 301.827 325.133 315.941 327.907C318.738 328.458 321.606 330.266 324.629 328.544C326.364 324.174 328.098 319.801 329.833 315.431C317.252 305.276 304.675 295.116 292.095 284.957C287.938 284.988 283.778 284.922 279.622 285.066C270.79 285.368 264.845 289.975 262.292 298.454C261.011 302.699 259.863 306.983 258.656 311.248C258.656 312.381 258.815 313.541 258.629 314.647C258.008 318.392 259.7 319.89 263.289 319.801C263.805 319.789 264.329 320.142 264.849 320.328C267.647 320.934 270.674 319.995 273.32 321.597L273.324 321.601Z" fill="#8A8AD9"/>
<path d="M206.213 349.034C211.817 351.738 217.215 354.8 223.633 355.545C236.982 357.097 248.341 351.346 253.987 339.759C253.824 339.126 253.661 338.498 253.502 337.865C248.643 337.842 243.777 337.648 238.93 337.858C236.392 337.966 235.077 336.984 234.805 334.695C233.804 326.251 228.86 320.923 221.526 317.337C220.001 316.592 218.712 315.377 217.215 314.551C214.781 313.212 213.873 311.897 215.263 308.866C217.207 304.624 219.295 300.348 220.191 295.68C204.001 296.161 193.764 303.856 191.017 317.372C190.214 321.338 190.679 324.865 190.679 329.204C191.056 330.329 191.242 332.32 191.494 333.084C194.009 340.745 199.57 344.656 206.217 349.034H206.213Z" fill="#7A4821"/>
<path d="M292.094 284.96C304.671 295.119 317.251 305.275 329.832 315.434C337.174 296.854 341.307 277.571 342.549 257.648C329.219 259.445 315.889 261.242 302.563 263.039C299.797 270.691 295.392 277.563 292.098 284.964L292.094 284.96Z" fill="#F7BB92"/>
<path d="M220.187 295.678C219.291 300.35 217.203 304.623 215.259 308.864C213.87 311.895 214.778 313.21 217.211 314.549C218.705 315.372 219.997 316.587 221.522 317.336C228.856 320.921 233.8 326.249 234.801 334.693C235.073 336.983 236.389 337.965 238.926 337.856C243.773 337.646 248.64 337.837 253.498 337.864C253.75 337.534 254.208 337.22 254.228 336.878C254.623 330.46 257.771 325.795 263.269 322.64C264.216 322.097 264.748 321.395 264.853 320.335C264.333 320.149 263.809 319.796 263.293 319.807C259.703 319.897 258.015 318.395 258.632 314.654C258.814 313.548 258.659 312.388 258.659 311.255C256.474 307.359 252.419 306.365 248.663 305.255C245.069 304.192 243.308 302.442 243.975 298.608C244.612 294.968 243.28 292.818 239.373 293.885C235.446 294.956 231.771 296.916 228.049 297.226C225.368 297.452 223.144 296.12 220.191 295.682L220.187 295.678Z" fill="#F7BB92"/>
<path d="M264.852 320.332C264.748 321.391 264.212 322.094 263.269 322.637C257.774 325.792 254.627 330.456 254.227 336.875C254.208 337.216 253.75 337.535 253.498 337.861C253.661 338.493 253.82 339.126 253.983 339.754C256.113 339.378 258.213 339.607 260.308 340.03C260.464 332.164 263.944 326.479 271.314 323.417C272.26 323.025 273.246 322.866 273.324 321.597C270.677 319.998 267.65 320.933 264.852 320.328V320.332Z" fill="#DDA781"/>
</svg>
