<svg width="497" height="497" viewBox="0 0 497 497" fill="none" xmlns="http://www.w3.org/2000/svg">
<path d="M303.151 209.971C303.151 209.971 307.437 188.165 307.437 177.649C307.437 162.647 298.099 150.739 289.375 144.089C280.956 137.749 263.047 130.944 238.555 150.585C222.177 163.73 248.352 188.783 246.515 198.836C245.29 205.64 276.823 215.074 276.823 215.074L303.151 209.971Z" fill="#3D3C3C"/>
<path d="M239.627 294.522C239.015 313.393 240.24 323.672 257.086 341.008C259.077 343.002 263.978 346.684 268.879 346.684C273.779 346.684 285.112 346.684 290.319 341.008C294.301 336.712 310.382 328.121 303.796 292.835C301.805 276.419 308.391 200.478 307.319 177.926L252.951 209.223C252.951 209.223 248.969 263.532 246.366 280.868C246.519 280.715 239.934 289.306 239.627 294.522Z" fill="#FF8AA0"/>
<path d="M241.026 317.621C238.448 318.855 237.538 317.929 235.719 314.844L224.65 337.521C237.387 336.75 256.492 341.378 256.492 341.378C256.492 341.378 251.64 336.596 247.091 329.808C242.542 323.02 241.026 317.621 241.026 317.621Z" fill="#ECAD83"/>
<path d="M199.247 291.834C191.132 286.287 183.475 290.448 179.035 293.375C165.56 302.621 164.641 311.867 165.407 323.578C166.326 339.142 207.516 342.686 214.406 340.991C232.168 336.368 237.681 311.096 237.374 300.772C237.068 289.523 233.393 292.605 228.953 293.221C228.799 293.221 228.034 292.759 228.034 292.759C226.503 292.759 224.359 293.067 222.368 292.143C222.368 292.143 220.99 292.605 220.225 292.759C219.765 292.759 219.459 292.759 219.153 292.297C218.54 290.756 217.928 289.215 217.162 288.598C215.019 286.749 202.922 294.454 199.247 291.834Z" fill="#F6BB92"/>
<path d="M224.346 298.922C224.346 298.922 224.821 297.815 224.584 292.596C224.346 291.964 223.753 290.857 222.685 291.964C221.973 292.596 223.872 295.285 224.346 298.922Z" fill="#D6876B"/>
<path d="M224.65 298.922C224.65 298.922 226.966 297.673 227.835 292.836C227.69 292.212 227.111 291.744 226.966 291.588C225.519 291.12 224.94 292.524 224.94 292.524C225.229 297.829 224.65 298.922 224.65 298.922Z" fill="#CC785E"/>
<path d="M162.168 324.645C163.251 343.498 192.324 366.913 223.254 339.393C225.264 337.568 227.738 333.463 222.944 327.838C219.542 323.885 215.212 321.3 215.212 321.3C213.975 320.54 212.428 319.779 210.882 318.867C209.181 317.955 199.747 319.627 199.438 317.803C195.417 299.558 185.056 292.26 179.953 292.564C168.045 295.605 160.931 304.575 162.168 324.645Z" fill="#602F0F"/>
<path d="M210.403 325.274C218.596 321.99 218.748 318.557 217.989 313.781L205.245 317.214L200.238 320.05C200.997 324.826 202.211 328.558 210.403 325.274Z" fill="#F6BB92"/>
<path d="M192.812 352.526C189.319 357.116 180.058 355.586 172.315 349.161C164.572 342.735 160.928 333.556 164.42 328.966C167.912 324.377 174.896 326.519 182.791 333.097C190.686 339.523 196.304 347.937 192.812 352.526Z" fill="#4C230C"/>
<path d="M201.605 316.044C200.065 316.352 198.68 316.506 197.602 316.506C195.908 316.506 194.984 316.352 194.984 316.352L197.294 321.741C198.064 321.741 198.988 321.587 199.757 321.587C199.757 321.587 199.603 320.971 199.142 320.048V320.202C200.373 319.432 202.221 318.354 204.992 317.276C204.838 317.276 206.224 314.967 201.605 316.044Z" fill="#602F0F"/>
<path d="M192.985 356.23C189.29 361.157 179.128 359.31 170.506 352.227C161.729 344.99 157.726 335.29 161.575 330.363C165.271 325.436 172.969 327.9 181.746 335.136C190.214 342.065 196.681 351.303 192.985 356.23Z" fill="#602F0F"/>
<path d="M175.799 353.959C175.341 354.6 172.902 353.158 170.31 350.914C167.718 348.67 165.888 346.266 166.346 345.785C166.803 345.144 168.785 346.426 171.377 348.83C173.969 351.235 176.104 353.318 175.799 353.959Z" fill="#4C230C"/>
<path d="M4.0448 349.779C1.73606 343.964 25.1313 330.65 27.5939 326.518C28.8252 324.528 28.6713 320.549 32.981 317.336C38.6758 313.051 44.9864 315.346 46.9873 313.816C56.8379 305.705 81.4644 279.23 93.4699 269.589C96.2403 267.293 99.7804 264.692 102.859 262.396C115.172 253.367 126.408 283.515 121.636 286.27C102.397 297.441 56.684 326.824 49.296 330.038C49.296 330.038 28.8252 343.658 23.746 346.259C20.8216 347.943 6.35354 355.748 4.0448 349.779Z" fill="#F6BB92"/>
<path d="M144.458 234.879C128.912 243.533 114.597 252.651 102.592 262.079C107.055 265.015 119.831 281.706 121.37 286.188C125.987 283.251 163.698 262.542 163.698 262.542C173.24 257.288 215.568 231.633 244.967 213.088C252.509 208.297 258.819 205.206 264.976 201.342C269.748 197.015 272.98 192.07 276.058 188.36C281.907 181.097 243.12 145.86 237.425 150.806C218.339 168.579 183.707 206.442 174.472 214.942C165.237 223.597 144.458 234.879 144.458 234.879Z" fill="#3D3C3C"/>
<path d="M492.106 338.257C492.875 332.666 452.141 332.364 452.141 332.364C399.879 321.635 375.439 327.831 375.439 327.831C344.543 319.973 284.134 308.036 271.991 308.489C259.848 308.942 257.85 332.968 269.839 335.537C281.829 338.106 292.589 339.013 304.578 340.675C316.568 342.337 361.759 346.719 372.365 347.021C373.902 347.021 450.143 345.057 450.143 345.057C450.143 345.057 453.217 345.51 457.982 347.928C464.745 351.403 491.338 343.848 492.106 338.257Z" fill="#F6BB92"/>
</svg>
