<svg width="497" height="497" viewBox="0 0 497 497" fill="none" xmlns="http://www.w3.org/2000/svg">
<path d="M283.8 243C283.8 243 286.6 228.9 286.6 222.1C286.6 212.4 280.5 204.7 274.8 200.4C269.3 196.3 257.6 191.9 241.6 204.6C230.9 213.1 248 229.3 246.8 235.8C246 240.2 266.6 246.3 266.6 246.3L283.8 243Z" fill="#3D3C3C"/>
<path d="M242.3 298.1C241.9 310.4 242.7 317.1 253.7 328.4C255 329.7 258.2 332.1 261.4 332.1C264.6 332.1 272 332.1 275.4 328.4C278 325.6 288.5 320 284.2 297C282.9 286.3 287.2 236.8 286.5 222.1L251 242.5C251 242.5 248.4 277.9 246.7 289.2C246.8 289.1 242.5 294.7 242.3 298.1Z" fill="#FF8AA0"/>
<path d="M243.5 313C241.8 313.8 241.2 313.2 240 311.2L232.7 325.9C241.1 325.4 253.7 328.4 253.7 328.4C253.7 328.4 250.5 325.3 247.5 320.9C244.5 316.5 243.5 313 243.5 313Z" fill="#ECAD83"/>
<path d="M216.3 296.3C211 292.7 206 295.4 203.1 297.3C194.3 303.3 193.7 309.3 194.2 316.9C194.8 327 221.7 329.3 226.2 328.2C237.8 325.2 241.4 308.8 241.2 302.1C241 294.8 238.6 296.8 235.7 297.2C235.6 297.2 235.1 296.9 235.1 296.9C234.1 296.9 232.7 297.1 231.4 296.5C231.4 296.5 230.5 296.8 230 296.9C229.7 296.9 229.5 296.9 229.3 296.6C228.9 295.6 228.5 294.6 228 294.2C226.6 293 218.7 298 216.3 296.3Z" fill="#F6BB92"/>
<path d="M232.9 300.9C232.9 300.9 233.3 300.2 233.1 296.9C232.9 296.5 232.4 295.8 231.5 296.5C230.9 296.9 232.5 298.6 232.9 300.9Z" fill="#D6876B"/>
<path d="M232.9 300.9C232.9 300.9 234.5 300.1 235.1 297C235 296.6 234.6 296.3 234.5 296.2C233.5 295.9 233.1 296.8 233.1 296.8C233.3 300.2 232.9 300.9 232.9 300.9Z" fill="#CC785E"/>
<path d="M192.6 317.8C193.3 330.2 212.1 345.6 232.1 327.5C233.4 326.3 235 323.6 231.9 319.9C229.7 317.3 226.9 315.6 226.9 315.6C226.1 315.1 225.1 314.6 224.1 314C223 313.4 216.9 314.5 216.7 313.3C214.1 301.3 207.4 296.5 204.1 296.7C196.4 298.7 191.8 304.6 192.6 317.8Z" fill="#602F0F"/>
<path d="M223.4 318C228.8 315.8 228.9 313.5 228.4 310.3L220 312.6L216.7 314.5C217.2 317.7 218 320.2 223.4 318Z" fill="#F6BB92"/>
<path d="M212.5 336.1C210.2 339.1 204.1 338.1 199 333.9C193.9 329.7 191.5 323.7 193.8 320.7C196.1 317.7 200.7 319.1 205.9 323.4C211.1 327.6 214.8 333.1 212.5 336.1Z" fill="#4C230C"/>
<path d="M217.9 312.1C216.9 312.3 216 312.4 215.3 312.4C214.2 312.4 213.6 312.3 213.6 312.3L215.1 315.8C215.6 315.8 216.2 315.7 216.7 315.7C216.7 315.7 216.6 315.3 216.3 314.7V314.8C217.1 314.3 218.3 313.6 220.1 312.9C220 312.9 220.9 311.4 217.9 312.1Z" fill="#602F0F"/>
<path d="M212.3 338.2C209.9 341.4 203.3 340.2 197.7 335.6C192 330.9 189.4 324.6 191.9 321.4C194.3 318.2 199.3 319.8 205 324.5C210.5 329 214.7 335 212.3 338.2Z" fill="#602F0F"/>
<path d="M201.2 336.8C200.9 337.2 199.3 336.3 197.6 334.9C195.9 333.5 194.7 332 195 331.7C195.3 331.3 196.6 332.1 198.3 333.6C200 335.1 201.4 336.4 201.2 336.8Z" fill="#4C230C"/>
<path d="M89.4001 334.1C87.9001 330.3 103.1 321.6 104.7 318.9C105.5 317.6 105.4 315 108.2 312.9C111.9 310.1 116 311.6 117.3 310.6C123.7 305.3 139.7 288 147.5 281.7C149.3 280.2 151.6 278.5 153.6 277C161.6 271.1 168.9 290.8 165.8 292.6C153.3 299.9 123.6 319.1 118.8 321.2C118.8 321.2 105.5 330.1 102.2 331.8C100.3 332.9 90.9001 338 89.4001 334.1Z" fill="#F6BB92"/>
<path d="M180.9 259.4C170.8 265 161.5 270.9 153.7 277C156.6 278.9 164.9 289.7 165.9 292.6C168.9 290.7 193.4 277.3 193.4 277.3C199.6 273.9 227.1 257.3 246.2 245.3C251.1 242.2 255.2 240.2 259.2 237.7C262.3 234.9 264.4 231.7 266.4 229.3C270.2 224.6 245 201.8 241.3 205C228.9 216.5 206.4 241 200.4 246.5C194.4 252.1 180.9 259.4 180.9 259.4Z" fill="#3D3C3C"/>
<path d="M406.9 326.7C407.4 323 380.9 322.8 380.9 322.8C346.9 315.7 331 319.8 331 319.8C310.9 314.6 271.6 306.7 263.7 307C255.8 307.3 254.5 323.2 262.3 324.9C270.1 326.6 277.1 327.2 284.9 328.3C292.7 329.4 322.1 332.3 329 332.5C330 332.5 379.6 331.2 379.6 331.2C379.6 331.2 381.6 331.5 384.7 333.1C389.1 335.4 406.4 330.4 406.9 326.7Z" fill="#F6BB92"/>
</svg>
