<svg width="500" height="500" viewBox="0 0 500 500" fill="none" xmlns="http://www.w3.org/2000/svg">
<path d="M210.994 337.316L226.266 340.001L226.633 343.811C229.984 345.138 233.364 346.408 236.768 347.61C238.2 348.115 239.527 348.782 240.786 349.583C242.31 350.553 243.548 351.791 244.494 353.283C244.91 353.939 245.178 354.652 245.21 355.428C245.224 355.791 245.203 356.155 244.956 356.455C244.476 357.033 243.919 357.506 243.093 357.566C242.758 357.591 242.423 357.629 242.088 357.643C238.645 357.813 235.205 357.996 231.762 358.134C228.15 358.279 224.537 358.384 220.925 358.49C219.665 358.529 218.399 358.617 217.15 358.402C210.655 357.432 208.786 342.209 208.786 342.209L210.994 337.316Z" fill="#7A4821"/>
<path d="M208.979 344.259C209.173 345.096 209.452 345.406 210.2 345.826C210.433 345.956 210.666 346.105 210.863 346.284C212.468 347.766 214.366 348.775 216.285 349.777C218.49 350.923 220.84 351.442 223.281 351.569C225.99 351.707 228.654 351.386 231.215 350.419C231.275 350.331 231.271 350.243 231.208 350.154C231.134 349.999 231.152 349.862 231.271 349.738C231.271 349.615 231.264 349.488 231.261 349.364C231.109 348.574 230.7 348.161 229.829 348.172C226.043 348.218 222.473 347.156 218.952 345.921C217.686 345.477 216.469 344.873 215.252 344.298C214.028 343.72 212.934 342.93 211.95 341.995C211.519 341.589 209.681 340.954 209.135 340.707C208.281 341.547 209.135 343.018 208.979 344.263V344.259Z" fill="#5B3617"/>
<path d="M99.911 307.292C124.429 297.59 148.983 287.984 173.43 278.103C177.505 276.455 181.572 276.515 185.668 276.427C207.593 275.951 228.03 268.952 248.579 262.39C259.466 258.912 270.409 255.603 281.282 252.078C283.712 251.292 285.328 251.644 287.085 253.574C290.496 257.321 294.2 260.799 297.781 264.39C309.899 262.757 322.013 261.124 334.131 259.49C334.957 247.937 333.863 236.535 330.166 225.581C322.176 201.91 295.262 190.437 272.522 201.342C250.819 211.745 229.476 222.9 207.981 233.737C200.079 237.72 192.17 241.685 184.32 245.767C182.401 246.765 180.51 247.266 178.362 247.182C175.631 247.076 172.883 247.284 170.156 247.132C158.762 246.497 148.429 249.397 138.491 255.091C122.133 264.464 105.421 273.227 88.862 282.244C92.545 290.595 96.228 298.941 99.911 307.292Z" fill="#6A6D66"/>
<path d="M259.37 334.389C259.921 343.903 266.571 349.855 277.644 351.206C286.104 352.24 294.514 351.59 302.967 351.34C314.69 350.991 326.451 351.566 338.149 350.892C350.37 350.19 362.675 351.485 374.803 349.534C384.286 348.006 393.754 346.203 403.064 343.875C408.973 342.397 414.709 342.997 420.428 343.794C424.03 344.295 425.892 343.547 427.395 340.22C429.59 335.363 432.172 330.664 434.849 326.049C435.992 324.081 435.989 323.188 434.01 321.717C424.573 314.714 424.026 313.924 415.401 321.357C407.788 327.919 399.946 325.718 391.863 325.001C383.196 324.232 374.56 323.044 365.888 322.345C355.951 321.544 346.694 325.065 337.183 327.143C330.547 328.593 323.992 326.861 317.847 323.943C315.102 325.509 312.495 323.866 309.948 323.365C297.118 320.842 284.347 318.031 271.206 317.632C271.139 318.789 270.24 318.93 269.379 319.286C262.676 322.07 259.512 327.238 259.374 334.389H259.37Z" fill="#F7BB92"/>
<path d="M99.9111 307.291C96.2281 298.941 92.5451 290.594 88.8621 282.244C83.1471 284.054 77.5908 286.329 72.412 289.282C65.6916 293.117 63.007 300.5 65.0425 308.526C67.7907 319.36 70.6446 330.166 73.5092 340.968C75.0403 346.743 79.9015 350.63 84.9639 350.285C90.6366 349.896 94.9581 345.875 95.7977 339.758C97.2759 328.948 98.5529 318.115 99.9111 307.291Z" fill="#F7BB92"/>
<path d="M271.203 317.627C284.344 318.026 297.115 320.838 309.945 323.36C312.489 323.861 315.096 325.505 317.844 323.939C319.421 319.966 320.998 315.99 322.575 312.018C311.138 302.786 299.704 293.55 288.267 284.314C284.489 284.343 280.707 284.283 276.929 284.413C268.899 284.688 263.495 288.876 261.174 296.584C260.009 300.443 258.965 304.338 257.868 308.215C257.868 309.245 258.013 310.3 257.843 311.306C257.279 314.71 258.817 316.072 262.08 315.99C262.549 315.98 263.026 316.301 263.498 316.47C266.042 317.021 268.794 316.167 271.2 317.624L271.203 317.627Z" fill="#8A8AD9"/>
<path d="M210.193 342.566C215.287 345.025 220.194 347.808 226.029 348.486C238.165 349.897 248.491 344.669 253.624 334.135C253.475 333.56 253.327 332.988 253.183 332.413C248.766 332.392 244.342 332.215 239.936 332.406C237.629 332.505 236.433 331.612 236.186 329.531C235.276 321.854 230.781 317.011 224.114 313.751C222.727 313.074 221.556 311.97 220.194 311.218C217.982 310.001 217.157 308.805 218.42 306.05C220.187 302.194 222.085 298.306 222.9 294.062C208.182 294.5 198.876 301.496 196.378 313.783C195.648 317.388 196.071 320.595 196.071 324.539C196.413 325.562 196.583 327.372 196.812 328.067C199.098 335.031 204.153 338.587 210.197 342.566H210.193Z" fill="#7A4821"/>
<path d="M288.267 284.319C299.7 293.555 311.137 302.787 322.574 312.022C329.249 295.131 333.006 277.602 334.135 259.49C322.017 261.124 309.899 262.757 297.784 264.39C295.269 271.347 291.265 277.595 288.27 284.322L288.267 284.319Z" fill="#F7BB92"/>
<path d="M222.897 294.062C222.082 298.31 220.184 302.194 218.416 306.05C217.153 308.805 217.979 310.001 220.191 311.218C221.549 311.966 222.724 313.07 224.11 313.751C230.778 317.011 235.272 321.854 236.182 329.531C236.429 331.612 237.625 332.505 239.932 332.406C244.339 332.215 248.762 332.388 253.179 332.413C253.408 332.113 253.825 331.827 253.842 331.517C254.202 325.682 257.063 321.442 262.062 318.574C262.923 318.08 263.406 317.441 263.501 316.478C263.029 316.309 262.552 315.988 262.083 315.998C258.82 316.079 257.286 314.714 257.846 311.313C258.012 310.308 257.871 309.253 257.871 308.223C255.885 304.681 252.198 303.778 248.784 302.769C245.517 301.802 243.915 300.211 244.522 296.726C245.101 293.417 243.891 291.463 240.338 292.433C236.768 293.406 233.427 295.188 230.044 295.47C227.606 295.675 225.585 294.465 222.9 294.066L222.897 294.062Z" fill="#F7BB92"/>
<path d="M263.501 316.474C263.406 317.437 262.919 318.076 262.062 318.57C257.067 321.438 254.206 325.678 253.842 331.513C253.825 331.824 253.408 332.113 253.179 332.409C253.327 332.984 253.472 333.559 253.62 334.131C255.557 333.789 257.465 333.997 259.37 334.381C259.512 327.23 262.676 322.062 269.375 319.279C270.236 318.922 271.132 318.778 271.203 317.624C268.797 316.171 266.045 317.021 263.501 316.471V316.474Z" fill="#DDA781"/>
</svg>
