<svg width="500" height="500" viewBox="0 0 500 500" fill="none" xmlns="http://www.w3.org/2000/svg">
<path d="M280.433 370.17C282.594 369.465 284.859 369.214 287.077 368.779C294.265 367.365 301.515 366.311 308.755 365.218C310.174 365.005 311.607 364.901 313.03 364.712C314.307 364.547 315.542 364.192 316.747 363.733C320.559 362.281 324.338 360.754 328.036 359.033C331.252 357.538 333.848 355.249 335.976 352.445C337.764 350.09 339.116 347.461 340.383 344.798C342.1 341.209 342.374 337.388 341.944 333.496C341.722 331.467 341.225 329.49 340.502 327.565C339.163 324.004 336.908 321.115 334.084 318.641C332.779 317.497 331.412 316.419 330.017 315.383C326.608 312.848 322.659 311.572 318.563 310.72C316.123 310.214 313.659 309.826 311.2 309.439C310.387 309.311 309.545 309.297 308.718 309.297C301.69 309.316 294.663 309.354 287.64 309.382C287.068 309.732 286.477 309.699 285.876 309.472C285.285 309.491 284.694 309.51 284.103 309.529C279.742 309.718 275.387 309.968 271.022 310.082C266.501 310.195 261.98 310.172 257.459 310.219C254.522 310.252 251.581 310.337 248.649 310.12C247.367 310.11 246.062 310.262 244.813 310.053C243.461 309.826 242.113 309.878 240.765 309.77C238.789 309.614 236.869 310.058 234.915 310.124C230.929 310.257 226.923 310.039 222.96 310.663C221.021 310.971 219.064 310.99 217.12 311.188C214.055 311.496 211.01 311.992 207.95 312.342C206.3 312.532 204.649 312.437 203.022 311.983C202.039 311.704 201.211 311.255 200.648 310.384C199.906 309.25 199.097 308.143 198.757 306.805C198.563 306.048 198.133 305.443 197.697 304.828C194.742 303.726 191.791 302.61 188.826 301.527C184.092 299.796 179.368 298.042 174.61 296.377C171.706 295.36 168.86 294.15 165.838 293.492C164.972 293.861 164.405 294.523 163.856 295.28C161.714 298.235 160.205 301.541 158.47 304.724C155.921 309.387 154.753 314.433 154.294 319.677C153.84 324.884 153.741 330.095 154.28 335.302C155.117 343.436 157.155 351.206 161.359 358.3C167.375 368.448 176.218 374.814 187.577 377.774C192.06 378.942 196.638 379.439 201.258 379.524C202.545 379.547 203.817 379.429 205.098 379.278C209.903 378.725 214.722 378.294 219.527 377.741C223.58 377.277 227.623 376.715 231.667 376.18C235.412 375.688 239.153 375.163 242.898 374.681C243.645 374.587 244.407 374.62 245.159 374.591C246.048 374.468 246.937 374.303 247.835 374.237C252.928 373.858 258.022 373.504 263.082 372.813C265.834 372.44 268.586 372.071 271.329 371.65C274.37 371.186 277.397 370.671 280.433 370.174V370.17Z" fill="#6A6C65"/>
<path d="M248.644 310.127C251.581 310.344 254.517 310.259 257.454 310.226C261.975 310.179 266.496 310.202 271.017 310.089C275.377 309.975 279.738 309.725 284.098 309.535C283.961 308.325 283.994 307.128 284.273 305.937C284.377 305.501 284.396 305.043 284.438 304.594C284.774 300.995 285.011 297.382 285.479 293.797C285.744 291.792 286.306 289.81 286.879 287.857C289.007 280.622 290.709 273.277 292.601 265.981C293.967 260.712 295.75 255.586 297.557 250.464C299.642 244.558 301.444 238.571 302.636 232.413C303.586 227.514 304.045 222.577 304.012 217.578C303.979 212.703 302.995 207.997 301.619 203.363C300.626 200.029 299.292 196.822 297.859 193.659C297.174 192.15 296.285 190.736 295.504 189.27C295.221 188.74 294.852 188.239 294.852 187.601C294.294 187.322 293.906 186.872 293.599 186.343C293.036 185.369 292.454 184.404 291.91 183.425C290.373 180.654 288.657 178.024 286.202 175.958C285.919 175.716 285.673 175.423 285.413 175.154C285.252 174.927 285.091 174.695 284.93 174.468L284.954 174.482C284.453 174.52 284.121 174.203 283.753 173.938C283.204 173.546 282.651 173.144 282.06 172.818C279.705 171.508 277.151 170.95 274.469 170.855C270.975 170.727 267.574 171.333 264.179 172.07C261.616 172.624 259.28 173.631 257.241 175.244C255.468 176.653 253.827 178.251 252.484 180.077C247.887 186.333 245.603 193.451 245.078 201.131C244.898 203.75 245.017 206.385 245.352 209.028C246.09 214.835 247.864 220.194 251.401 224.899C252.025 225.731 252.304 226.597 252.304 227.618C252.304 228.9 252.456 230.172 252.569 231.449C252.73 233.246 252.768 235.081 252.588 236.878C252.342 239.346 252.011 241.815 251.708 244.279C251.505 245.929 251.41 247.58 251.254 249.23C251.004 251.855 250.625 254.47 250.507 257.099C250.351 260.49 249.821 263.857 249.925 267.262C249.93 267.489 249.888 267.711 249.869 267.938C249.623 270.941 249.334 273.94 249.14 276.943C249.022 278.749 249.055 280.565 249.022 282.381C249.046 287.28 249.103 292.175 249.084 297.074C249.074 299.321 249.363 301.591 248.677 303.804C248.592 304.083 248.649 304.404 248.649 304.702C248.649 306.509 248.653 308.32 248.658 310.127H248.644Z" fill="#FFB78A"/>
<path d="M350.608 110.838C351.378 107.05 351.005 103.3 350.035 99.6206C347.359 89.4625 341.528 81.5318 332.741 75.8143C327.482 72.3905 321.58 70.915 315.376 70.5461C309.569 70.1962 303.927 71.0947 298.432 72.9532C296.691 73.5444 294.951 73.9511 293.102 73.7194C293.244 75.4975 292.26 76.7129 290.988 77.7154C289.158 79.1578 287.295 80.5576 285.687 82.2648C284.599 83.4187 283.431 84.497 282.334 85.6414C280.66 87.3864 279.241 89.3206 278.111 91.4676C276.631 94.2814 275.68 97.2939 274.805 100.33C273.741 104.009 272.838 107.717 272.658 111.571C272.62 112.384 272.389 113.202 272.171 113.992C271.897 114.981 271.225 115.439 270.171 115.482C268.629 115.543 267.418 114.791 266.316 113.85C265.418 113.084 264.926 112.091 264.964 110.866C265.016 109.292 264.855 107.712 265.366 106.161C265.664 105.243 265.673 104.236 265.895 103.29C266.416 101.105 266.822 98.8686 267.589 96.7642C268.534 94.1585 269.702 91.6379 271.027 89.174C273.084 85.3482 275.926 82.156 278.673 78.8741C278.867 78.6423 279.085 78.4248 279.326 78.2451C280.702 77.2047 282.069 76.1407 283.483 75.1523C284.486 74.4524 285.446 73.7099 285.947 72.5749C286.354 71.6528 287.016 71.3879 287.938 71.4872C288.16 71.5109 288.387 71.4589 288.614 71.4447C285.725 70.9623 282.897 70.1442 279.941 70.0212C273.826 69.7706 268.506 71.7473 263.848 75.6252C262.216 76.9824 260.764 78.5241 259.459 80.2029C256.243 84.3362 253.543 88.791 251.316 93.5248C250.805 94.6125 250.436 95.7758 250.086 96.925C248.63 101.716 248.001 106.662 247.268 111.595C245.811 121.355 245.915 131.187 245.745 141.009C245.731 141.837 245.783 142.674 245.854 143.502C246.029 145.493 247.608 147.039 249.618 147.011C251.368 146.987 253.047 146.637 254.451 145.393C256.381 143.681 258.163 141.847 259.71 139.775C263.782 134.327 267.872 128.889 271.968 123.46C272.549 122.689 273.098 121.871 273.821 121.261C274.554 121.62 274.573 122.301 274.791 122.836C275.585 124.793 276.304 126.784 277.099 128.747C278.432 132.053 280.087 135.183 282.197 138.073C282.726 138.796 283.322 139.501 283.563 140.399C284.448 140.882 284.977 141.733 285.658 142.424C286.467 143.242 287.37 143.908 288.43 144.339C289.829 144.911 290.728 144.604 291.447 143.289C292.317 141.7 293.022 140.035 293.598 138.314C295.017 134.1 296.46 129.891 297.94 125.697C298.441 124.278 299.094 122.911 299.647 121.511C300.252 119.989 301.411 119.133 302.905 118.598C304.679 117.965 306.443 118.007 308.244 118.466C311.101 119.194 313.848 120.254 316.61 121.251C320.706 122.736 324.796 122.065 328.877 121.261C329.592 121.119 330.273 120.684 330.916 120.301C335.588 117.52 340.36 114.943 345.283 112.635C346.999 111.831 348.73 111.122 350.612 110.838H350.608Z" fill="#7B4923"/>
<path d="M249.008 282.375C249.041 280.564 249.008 278.748 249.126 276.941C249.32 273.938 249.609 270.935 249.854 267.937C249.873 267.71 249.916 267.483 249.911 267.261C249.812 263.856 250.337 260.489 250.493 257.098C250.616 254.468 250.989 251.853 251.24 249.229C251.396 247.578 251.491 245.928 251.694 244.277C251.997 241.813 252.328 239.35 252.574 236.876C252.749 235.084 252.716 233.244 252.555 231.447C252.437 230.17 252.285 228.898 252.29 227.617C252.29 226.595 252.011 225.73 251.387 224.897C247.849 220.192 246.076 214.834 245.338 209.027C245.002 206.383 244.884 203.749 245.064 201.129C245.589 193.449 247.878 186.332 252.47 180.075C253.813 178.25 255.454 176.647 257.227 175.242C259.261 173.629 261.602 172.622 264.165 172.069C267.56 171.336 270.96 170.731 274.455 170.853C277.137 170.948 279.686 171.506 282.045 172.816C282.636 173.142 283.19 173.544 283.738 173.937C284.107 174.202 284.443 174.519 284.94 174.481C284.987 173.88 284.585 173.521 284.225 173.133C282.646 171.393 280.778 170.002 278.901 168.598C276.55 166.843 274.351 164.876 271.783 163.419C267.858 161.192 263.777 159.546 259.133 159.915C258.835 159.939 258.528 159.915 258.23 159.915C256.849 160.426 255.78 161.424 254.73 162.374C252.2 164.658 249.514 166.716 246.658 168.569C244.946 169.676 243.352 170.958 241.895 172.386C239.304 174.92 236.731 177.474 234.154 180.023C231.945 182.203 230.101 184.696 228.134 187.084C224.147 191.922 220.321 196.882 217.02 202.221C213.171 208.445 209.104 214.541 205.567 220.953C205.349 221.351 205.113 221.738 204.909 222.14C201.613 228.681 198.005 235.051 194.387 241.416C193.271 243.383 192.306 245.441 191.256 247.446C191.044 247.857 190.906 248.278 190.897 248.742C191.176 248.86 191.469 248.95 191.729 249.101C198.421 253.054 205.117 256.998 211.8 260.971C220.231 265.984 228.654 271.015 237.081 276.038C240.642 278.161 244.208 280.28 247.769 282.398C248.18 282.389 248.592 282.379 249.003 282.37L249.008 282.375Z" fill="#8A89DE"/>
<path d="M350.608 110.838C348.725 111.126 346.995 111.831 345.278 112.635C340.355 114.943 335.579 117.52 330.911 120.301C330.268 120.684 329.587 121.119 328.873 121.261C324.791 122.065 320.701 122.736 316.605 121.251C313.844 120.249 311.096 119.189 308.24 118.466C306.438 118.007 304.674 117.965 302.901 118.598C301.406 119.133 300.248 119.989 299.642 121.511C299.089 122.911 298.436 124.278 297.935 125.697C296.455 129.891 295.017 134.1 293.594 138.314C293.012 140.035 292.312 141.7 291.442 143.289C290.723 144.604 289.825 144.911 288.425 144.339C287.366 143.908 286.462 143.242 285.654 142.423C284.973 141.733 284.438 140.882 283.559 140.399C282.197 141.326 281.114 142.58 279.865 143.639C276.834 146.216 273.538 148.425 270.431 150.893C268.733 152.241 266.751 153.225 265.295 154.875C267.149 155.22 268.932 155.75 270.7 156.417C273.183 157.358 275.491 158.621 277.723 160.011C279.567 161.16 281.445 162.342 283.038 163.804C285.914 166.442 288.765 169.119 291.144 172.259C292.88 174.548 294.407 176.96 295.594 179.561C296.464 181.467 297.027 183.514 297.727 185.501C298.9 185.122 299.855 184.351 300.834 183.661C305.161 180.616 309.781 178.043 314.269 175.257C315.939 174.222 317.632 173.238 319.088 171.9C319.958 171.101 320.994 170.774 322.2 170.803C325.222 170.869 328.244 170.883 331.266 170.874C336.189 170.859 339.48 168.292 341.622 164.064C342.095 163.137 342.327 162.078 342.596 161.056C343.169 158.862 343.869 156.719 344.71 154.61C345.722 152.085 347.486 150.534 350.13 149.985C351.085 149.787 352.017 149.479 353.015 149.446C353.681 149.427 354.348 149.205 355.001 149.025C357.432 148.344 358.458 146.618 357.81 144.202C357.361 142.523 356.732 140.905 355.795 139.416C354.552 137.434 353.346 135.429 352.107 133.443C350.111 130.251 348.891 126.765 348.621 123.029C348.475 121.02 348.82 118.958 349.534 117.033C350.281 115.028 350.461 112.938 350.608 110.838Z" fill="#FFB68A"/>
<path d="M280.432 370.17C277.396 370.662 274.365 371.182 271.329 371.645C268.586 372.066 265.834 372.435 263.081 372.809C258.016 373.499 252.923 373.854 247.835 374.232C246.936 374.298 246.047 374.464 245.158 374.587C244.609 379.169 244.548 383.771 244.501 388.377C244.463 391.995 244.033 395.598 244.07 399.23C244.127 404.29 244.023 409.36 244.156 414.42C244.231 417.276 244.709 420.128 245.508 422.88C246.265 425.486 248.081 427.316 250.398 428.579C252.526 429.737 254.796 430.57 257.302 430.494C258.357 430.461 259.402 430.527 260.457 430.74C261.256 430.906 262.136 430.939 262.935 430.792C265.635 430.31 268.364 430.593 271.069 430.4C273.996 430.187 276.923 429.903 279.851 429.662C280.527 429.605 281.208 429.596 281.884 429.572C284.897 429.463 287.909 429.51 290.926 429.208C293.995 428.9 297.117 429.004 300.214 429.066C303.17 429.127 306.069 428.461 309.02 428.55C309.384 428.56 309.753 428.385 310.122 428.314C311.914 427.95 313.744 427.586 314.723 425.808C315.948 423.58 316.676 421.254 316.009 418.643C315.271 415.754 313.649 413.805 310.661 413.119C309.048 412.751 307.454 412.259 305.832 411.956C302.489 411.332 299.264 410.273 295.991 409.388C290.165 407.823 284.357 406.196 278.541 404.593C278.323 404.531 278.096 404.503 277.883 404.437C276.904 404.12 276.8 403.874 276.966 402.739C277.368 399.982 277.756 397.225 278.129 394.463C278.564 391.257 279.014 388.051 279.387 384.835C279.638 382.664 279.713 380.475 279.969 378.304C280.286 375.599 280.442 372.894 280.432 370.175V370.17Z" fill="#FFB78B"/>
<path d="M247.774 282.405C244.213 280.286 240.647 278.168 237.086 276.044C228.659 271.022 220.241 265.99 211.805 260.977C205.122 257.005 198.431 253.061 191.734 249.107C191.479 248.956 191.181 248.866 190.902 248.748C190.079 249.353 189.672 250.257 189.233 251.132C187.331 254.905 185.199 258.547 183.061 262.193C182.872 262.519 182.692 262.85 182.517 263.186C180.517 266.993 178.583 270.833 176.507 274.597C174.648 277.96 172.643 281.246 170.69 284.557C168.968 287.479 167.152 290.35 165.833 293.49C168.855 294.147 171.702 295.358 174.606 296.375C179.363 298.039 184.087 299.794 188.821 301.525C191.786 302.608 194.737 303.724 197.693 304.826C198.123 304.551 198.175 304.116 198.27 303.662C198.762 301.298 199.934 299.33 201.793 297.77C202.781 296.942 203.845 296.247 204.995 295.675C207.151 294.597 209.312 293.518 211.469 292.44C214.164 291.092 216.931 289.915 219.797 288.978C221.655 288.373 223.542 287.848 225.287 286.921C225.613 286.751 225.992 286.666 226.351 286.576C229.137 285.909 231.95 285.498 234.83 285.663C235.36 285.692 235.871 285.725 236.382 285.9C237.81 286.382 239.233 286.846 240.586 287.531C242.392 288.449 244.35 289.068 245.944 290.383C245.996 290.425 246.081 290.449 246.157 290.454C246.388 290.477 246.672 290.435 246.682 290.18C246.729 288.751 247.367 287.399 247.254 285.956C247.159 284.732 247.391 283.559 247.764 282.41L247.774 282.405Z" fill="#FFB68A"/>
<path d="M288.609 71.4344C288.382 71.4533 288.155 71.5006 287.933 71.477C287.011 71.3777 286.349 71.6425 285.942 72.5647C285.441 73.6996 284.486 74.4421 283.478 75.142C282.064 76.1304 280.698 77.1944 279.321 78.2348C279.08 78.4146 278.863 78.6321 278.669 78.8638C275.921 82.1458 273.084 85.3379 271.022 89.1638C269.698 91.6276 268.53 94.1482 267.584 96.7539C266.822 98.8584 266.416 101.091 265.891 103.28C265.664 104.226 265.659 105.233 265.361 106.151C264.85 107.707 265.011 109.281 264.959 110.856C264.921 112.081 265.413 113.074 266.312 113.84C267.414 114.781 268.624 115.538 270.166 115.472C271.22 115.429 271.897 114.966 272.166 113.982C272.384 113.188 272.616 112.374 272.653 111.561C272.833 107.707 273.736 103.999 274.8 100.32C275.68 97.2836 276.631 94.2712 278.106 91.4574C279.236 89.3104 280.655 87.3762 282.329 85.6311C283.426 84.4867 284.594 83.4085 285.682 82.2546C287.29 80.5521 289.153 79.1523 290.983 77.7052C292.255 76.7026 293.239 75.4872 293.097 73.7091C291.792 72.5694 290.406 71.5905 288.6 71.4297L288.609 71.4344Z" fill="#5D3818"/>
<path d="M297.722 185.495C297.022 183.508 296.459 181.461 295.589 179.555C294.407 176.959 292.875 174.547 291.139 172.253C288.761 169.113 285.909 166.436 283.034 163.798C281.44 162.336 279.567 161.154 277.718 160.005C275.486 158.615 273.178 157.352 270.695 156.411C268.927 155.744 267.139 155.21 265.29 154.869C262.732 156.259 260.396 157.971 258.234 159.915C258.537 159.915 258.84 159.934 259.142 159.915C263.786 159.546 267.867 161.192 271.793 163.419C274.36 164.876 276.559 166.838 278.91 168.598C280.787 169.997 282.655 171.388 284.235 173.133C284.589 173.525 284.991 173.885 284.949 174.481L284.925 174.466C285.266 174.57 285.384 174.826 285.408 175.152C285.672 175.422 285.914 175.715 286.197 175.956C288.652 178.027 290.368 180.657 291.905 183.423C292.449 184.407 293.031 185.372 293.594 186.341C293.901 186.871 294.289 187.32 294.847 187.599C295.831 186.932 296.937 186.431 297.722 185.49V185.495Z" fill="#E6A37D"/>
<path d="M285.871 309.476C286.471 309.708 287.063 309.736 287.635 309.386C287.034 309.211 286.443 309.164 285.871 309.476Z" fill="#FFB78A"/>
<path d="M247.774 282.403C247.4 283.557 247.169 284.725 247.263 285.95C247.377 287.392 246.743 288.745 246.691 290.173C246.681 290.433 246.398 290.471 246.166 290.447C246.095 290.442 246.01 290.419 245.953 290.376C244.359 289.062 242.402 288.442 240.595 287.525C239.243 286.839 237.814 286.376 236.391 285.893C235.875 285.718 235.365 285.69 234.84 285.657C231.964 285.491 229.146 285.903 226.361 286.569C225.996 286.655 225.618 286.74 225.296 286.915C223.556 287.837 221.665 288.366 219.806 288.972C216.94 289.908 214.174 291.086 211.478 292.433C209.322 293.516 207.16 294.59 205.004 295.668C203.855 296.24 202.786 296.936 201.802 297.763C199.944 299.324 198.771 301.291 198.279 303.656C198.185 304.11 198.128 304.549 197.702 304.819C198.137 305.434 198.568 306.039 198.762 306.796C199.102 308.134 199.911 309.241 200.653 310.376C201.221 311.246 202.044 311.695 203.027 311.974C204.654 312.433 206.304 312.523 207.955 312.333C211.015 311.983 214.06 311.487 217.125 311.18C219.068 310.986 221.031 310.962 222.965 310.655C226.928 310.03 230.929 310.248 234.92 310.115C236.869 310.049 238.793 309.605 240.77 309.761C242.118 309.87 243.461 309.818 244.818 310.045C246.067 310.253 247.372 310.106 248.653 310.111C248.653 308.304 248.644 306.493 248.644 304.687C248.644 304.384 248.587 304.062 248.672 303.788C249.358 301.575 249.07 299.305 249.079 297.059C249.098 292.159 249.041 287.265 249.018 282.365C248.606 282.375 248.195 282.384 247.779 282.394L247.774 282.403Z" fill="#E6A37B"/>
<path d="M285.403 175.153C285.379 174.826 285.261 174.571 284.92 174.467C285.081 174.694 285.242 174.926 285.403 175.153Z" fill="#8A89DE"/>
</svg>
