<svg width="500" height="500" viewBox="0 0 500 500" fill="none" xmlns="http://www.w3.org/2000/svg">
<path d="M323.502 181.691C326.483 199.75 326.544 222.827 322.332 240.595C313.076 240.696 304.537 243.058 296.036 246.612C283.225 252.23 278.362 265.379 273.18 277.263C263.733 271.49 257.853 262.256 251.875 253.276C250.377 250.559 251.206 247.33 251.532 244.412C252.548 235.461 253.714 226.527 254.835 217.589C255.199 214.696 255.562 211.804 255.926 208.911C256.479 204.519 257.029 200.127 257.577 195.734C259.076 195.157 260.442 194.412 261.795 193.54C278.871 182.797 303.022 180.716 323.502 181.691Z" fill="#9188D9"/>
<path d="M249.535 272.767C249.754 265.857 257.198 202.39 258.483 195.578C259.048 163.263 265.768 128.638 272.127 96.9971C273.981 90.0236 276.969 81.9838 276.427 74.6497C253.02 51.2425 203.838 56.6599 187.944 85.371C178.424 103.242 183.807 127.762 186.81 147.039C190.98 173.761 194.136 200.625 197.251 227.486C198.176 235.48 201.629 245.824 199.054 253.52C184.152 293.453 196.551 343.979 209.172 383.458C210.284 386.926 211.43 390.384 212.842 393.744C223.675 394.006 234.858 392.493 245.61 391.403C247.182 389.831 245.974 393.813 246.234 383.562C247.171 346.634 248.341 309.692 249.535 272.767Z" fill="#6A6E66"/>
<path d="M276.301 75.1958C282.781 79.918 288.36 85.6216 293.28 91.9566C311.53 115.472 319.932 147.308 322.965 176.619C323.146 178.31 323.327 180 323.502 181.691C301.464 181.539 277.678 182.72 258.971 195.722C258.357 196.124 258.357 196.124 257.967 196.124C257.431 157.425 267.361 119.759 275.164 82.1549C275.634 79.8393 276.053 77.546 276.301 75.1958Z" fill="#F5BA92"/>
<path d="M296.831 283.503C305.688 279.415 314.103 280.472 321.711 286.293C329.387 292.163 332.238 300.26 330.713 309.735C329.526 317.102 327.883 324.398 326.604 331.754C324.244 345.313 328.369 358.159 331.135 371.144C331.72 373.881 332.371 376.603 333.149 380.02C318.398 372.739 304.797 365.191 295.977 351.38C312.482 343.711 320.798 323.904 313.157 304.347C309.811 295.783 303.602 289.411 296.827 283.504L296.831 283.503Z" fill="#7A4922"/>
<path d="M296.831 283.503C303.606 289.41 309.815 295.782 313.161 304.347C320.802 323.903 312.486 343.711 295.981 351.38C295.725 351.262 295.593 351.064 295.586 350.783C296.357 346.961 299.909 345.247 302.083 342.524C313.922 327.698 311.268 306.469 299.373 293.104C297.294 290.769 295.031 288.601 292.853 286.356C293.966 285.109 295.174 283.993 296.832 283.507L296.831 283.503Z" fill="#5C381A"/>
<path d="M317.292 356.201C317.281 355.876 317.271 291.22 317.261 290.916C317.05 282.224 316.306 273.462 316.87 264.78C320.079 258.363 322.623 247.876 322.331 240.595C303.843 240.107 287.418 246.056 278.24 265.162C276.433 268.605 274.895 272.066 273.583 275.727C271.922 280.456 249.632 255.089 248.497 288.283C248.035 301.776 247.695 315.253 247.824 328.755C251.368 327.574 254.723 323.74 257.453 321.301C264.01 314.616 253.339 299.375 264.594 295.104C268.572 293.651 273.184 292.351 276.944 290.413C278.372 288.606 278.142 286.104 278.251 283.895C280.014 293.542 280.489 303.239 281.55 312.957C282.964 325.911 284.812 338.903 286.273 351.868C286.778 356.196 288.274 364.336 288.004 372.055C287.629 385.505 283.102 398.156 279.812 411.065C268.98 405.81 258.413 399.016 247.882 393.105C246.477 392.241 246.264 392.145 245.852 391.17C234.846 391.817 223.754 393.72 212.716 393.51C207.392 402.029 205.806 417.123 211.997 425.412C215.154 429.211 219.459 430.839 224.248 431.276C229.138 431.775 234.136 431.846 239.047 431.739C239.97 433.866 240.171 434.558 241.079 435.692L241.079 435.692C244.972 439.376 244.973 439.376 256.79 439.262C264.399 439.182 272.008 439.13 279.617 439.004C283.703 438.947 287.838 439.995 290.427 436.307C300.006 422.241 307.383 403.464 313.164 387.464C313.944 385.904 314.446 383.578 314.676 381.71C315.783 373.313 317.451 364.694 317.292 356.201Z" fill="#F5BA92"/>
<path d="M251.904 273.892C257.328 266.43 267.661 275.017 271.849 276.204C272.96 276.889 274.06 277.721 275.131 278.823L276.117 279.829C278.606 282.588 278.606 282.588 278.708 284.064C278.631 284.382 278.543 284.69 278.447 284.994C278.383 284.627 278.319 284.261 278.252 283.894C278.222 284.491 278.217 285.109 278.197 285.73C278.091 286.026 277.978 286.323 277.862 286.625C277.763 287.216 277.681 287.81 277.618 288.405L277.496 289.527C277.46 289.601 277.422 289.674 277.383 289.746H277.082L277.106 288.332C276.966 287.263 276.838 286.769 276.062 286.007C275.124 285.386 274.162 284.835 273.181 284.285C272.532 283.88 271.883 283.475 271.235 283.068C269.452 281.947 267.664 280.914 265.769 279.994L264.258 279.238L263.444 278.836C262.949 278.585 262.458 278.327 261.975 278.055C259.693 276.809 257.25 276.114 254.77 275.37C253.643 275.03 252.67 274.502 251.904 273.892Z" fill="#DFA982"/>
<path d="M278.251 283.504C278.38 283.504 278.509 283.504 278.641 283.504C279.468 288.341 280.007 293.144 280.305 298.043C280.47 300.636 280.769 303.168 281.187 305.733C281.438 307.332 281.607 308.933 281.762 310.543C282.192 314.787 282.727 319.015 283.287 323.243C283.421 324.26 283.555 325.276 283.688 326.292C283.739 326.678 283.739 326.678 283.79 327.071C284.372 331.526 284.861 335.985 285.292 340.457C285.335 340.902 285.379 341.347 285.424 341.805C285.461 342.196 285.498 342.586 285.536 342.989C285.637 344.016 285.637 344.016 286.053 345.139C286.205 346.163 286.343 347.184 286.467 348.211C286.521 348.625 286.521 348.625 286.575 349.047C286.753 350.483 286.876 351.883 286.833 353.331C279.134 357.629 268.045 356.29 259.893 354.574C256.461 353.817 248.737 351.256 247.044 347.869C247.006 347.267 246.993 346.664 246.992 346.061C246.991 345.687 246.99 345.313 246.989 344.927C246.998 343.225 247.016 341.522 247.038 339.82C247.044 338.559 247.016 337.302 246.981 336.042C246.893 329.547 246.893 329.547 249.287 327.073C250.079 326.437 250.894 325.828 251.725 325.244C252.18 324.892 252.632 324.538 253.083 324.18C253.941 323.503 254.805 322.847 255.685 322.198C256.052 321.916 256.419 321.634 256.796 321.343C257.21 321.037 257.21 321.037 257.632 320.725C258.711 319.322 258.585 318.063 258.581 316.338C258.586 315.999 258.592 315.66 258.597 315.311C258.614 314.225 258.62 313.14 258.625 312.054C258.64 310.638 258.659 309.221 258.678 307.804C258.683 307.461 258.687 307.117 258.692 306.763C258.723 304.649 258.772 302.538 258.884 300.426C258.907 299.972 258.93 299.519 258.953 299.051C259.146 297.881 259.309 297.445 260.185 296.67C260.612 296.445 261.038 296.219 261.477 295.987C265.641 293.573 270.586 291.813 275.321 290.433C276.287 290.17 276.287 290.17 277.081 289.746C277.256 288.764 277.391 287.81 277.495 286.82C277.815 283.941 277.815 283.941 278.251 283.504Z" fill="#7B4A23"/>
<path d="M280.007 411.259C281.14 412.392 284.099 413.794 284.883 419.061C285.667 424.327 285.273 428.265 279.46 430.934C270.06 435.249 254.647 435.478 243.533 435.249C239.877 435.174 239.72 433.084 239.047 431.745C239.492 431.747 240.912 431.743 241.371 431.745C253.934 431.797 276.431 430.373 279.032 427.253C281.632 424.132 283.128 420.621 280.007 411.259Z" fill="#DFA982"/>
</svg>
