<svg width="500" height="500" viewBox="0 0 500 500" fill="none" xmlns="http://www.w3.org/2000/svg">
<path d="M326.483 294.905C320.839 296.327 314.207 281.394 306.728 275.421C302.777 272.292 299.108 269.021 298.685 264.043C298.12 257.501 302.918 254.799 303.2 252.524C304.329 240.008 291.065 205.165 292.053 195.921C292.053 195.921 322.532 184.259 322.391 189.236C321.686 209.716 318.158 251.244 317.029 258.639C317.029 258.639 318.44 267.883 321.686 275.421C322.815 278.692 331.422 293.625 326.483 294.905Z" fill="#ECAD83"/>
<path d="M293.091 149.931C291.343 169.818 290.469 175.827 291.343 195.857C303.578 192.852 316.105 195.714 322.369 196C323.534 184.411 325.136 165.812 324.991 148.644C324.699 128.471 293.091 149.931 293.091 149.931Z" fill="#333333"/>
<path d="M221.955 217.986C223.079 217.137 225.89 216.006 226.733 215.724C247.389 206.252 240.222 185.755 245 181.655C245 181.655 224.484 150.979 220.69 149C208.746 156.351 195.257 171.618 186.404 185.472C182.189 191.833 212.119 225.195 221.955 217.986Z" fill="#3D3C3C"/>
<path d="M328.134 295.895C322.402 297.456 317.53 281.143 309.792 275.47C305.636 272.349 301.911 269.228 301.337 264.406C300.621 257.881 305.493 255.186 305.636 252.774C306.496 240.292 292.31 205.823 293.026 196.603C293.026 196.603 323.692 184.121 323.548 189.227C323.262 209.653 320.683 251.214 319.823 258.59C319.823 258.59 321.399 267.81 324.838 275.328C326.271 278.165 333.293 294.477 328.134 295.895Z" fill="#F6BB92"/>
<path d="M219.506 383C214.534 383 210.983 381.717 209.847 380.291C208.852 379.007 208 375.014 208 369.168C208.142 355.05 219.506 300.291 228.172 288.455C234.138 280.47 250.19 307.707 247.349 312.983C245.502 316.263 243.797 320.398 238.826 334.088C236.127 342.501 231.155 354.622 228.029 363.891C228.029 363.891 240.388 365.175 252.605 367.599C262.264 369.595 277.038 375.014 277.464 374.872C282.01 374.301 285.135 370.879 289.965 371.592C300.193 373.161 309 379.72 309 382.857C309.142 383 230.018 383 219.506 383Z" fill="#ECAD83"/>
<path d="M293.879 150.557C292.602 170.376 291.892 176.322 293.169 196C305.092 192.744 317.299 195.292 323.402 195.434C325.247 170.376 328.37 112.617 313.467 108.37C297.995 103.981 233.839 139.939 220.639 148.292C207.439 156.644 197.078 175.897 204.458 184.816C204.458 184.816 218.652 189.063 237.246 186.657C234.549 187.081 293.879 150.557 293.879 150.557Z" fill="#3D3C3C"/>
<path d="M194.166 328.098C206.295 340.628 217.568 334.647 238.402 334.078C240.97 333.935 251.387 326.959 253.956 321.833C256.81 316.28 257.951 310.157 256.096 303.465C252.386 290.223 221.136 274.703 212.859 243.805C214.286 234.977 215.428 228.428 220.28 218.461L186.032 185C152.642 248.504 180.039 299.193 191.027 313.859C191.027 314.001 189.029 322.972 194.166 328.098Z" fill="#FF8AA0"/>
<path d="M251.286 328.857C251.286 328.857 262.429 327.429 272.429 331L280 313.857C268.143 315.429 256.714 310 256.714 310C255.143 325.714 245.857 327.857 243 332L251.286 328.857Z" fill="#ECAD83"/>
<path d="M312.018 316.511C319.774 311.806 319.351 303.679 318.646 298.974C316.249 284.003 308.916 279.582 298.904 275.59C285.649 270.172 266.612 303.679 265.343 310.095C262.24 326.777 280.995 341.463 289.597 345.313C299.045 349.448 297.917 345.17 299.186 341.178C299.186 341.035 299.891 340.608 299.891 340.608C300.455 339.324 301.019 337.471 302.711 336.045C302.711 336.045 302.852 334.762 302.993 334.049C303.134 333.621 303.275 333.336 303.839 333.336C305.391 333.336 306.942 333.479 307.647 333.193C310.185 331.768 308.493 318.65 312.018 316.511Z" fill="#F6BB92"/>
<path d="M296 335C296 335 296.74 336.105 301.326 338C302.066 338 303.249 337.684 302.953 336.105C302.51 334.842 299.403 335.947 296 335Z" fill="#D6876B"/>
<path d="M296 335C296 335 296 337.898 299.989 340.956C300.602 341.117 301.369 340.795 301.523 340.634C302.597 339.346 301.523 338.22 301.523 338.22C296.767 336.127 296 335 296 335Z" fill="#CC785E"/>
<path d="M298.554 273.493C282.298 266.989 251.199 281.694 262.366 318.313C263.073 320.717 265.617 324.252 272.12 322.555C276.785 321.283 280.602 318.738 280.602 318.738C281.732 317.889 283.005 317.041 284.277 316.193C285.691 315.203 287.811 306.72 289.649 307.144C306.612 310.961 316.79 305.306 318.486 301.064C320.748 289.894 315.8 280.421 298.554 273.493Z" fill="#602F0F"/>
<path d="M280.042 312.512C279.622 321.054 282.421 322.674 286.9 324L289 311.333L288.58 305.737C284.101 304.411 280.461 303.969 280.042 312.512Z" fill="#F6BB92"/>
<path d="M263.665 288.034C261.135 283.145 266.055 275.956 274.489 271.786C282.924 267.616 291.921 268.191 294.31 273.08C296.841 277.969 292.202 283.001 283.767 287.171C275.333 291.341 266.055 292.778 263.665 288.034Z" fill="#4C230C"/>
<path d="M290.925 309.117C291.21 307.696 291.636 306.56 292.062 305.565C292.63 304.144 293.199 303.434 293.199 303.434L287.8 303.292C287.516 304.002 287.231 304.713 286.947 305.423C286.947 305.423 287.516 305.423 288.51 305.565H288.368C288.652 306.844 288.794 308.833 288.51 311.533C288.652 311.39 289.931 313.522 290.925 309.117Z" fill="#602F0F"/>
<path d="M260.805 286.242C258.105 281.128 263.646 273.455 273.024 269.051C282.401 264.646 292.204 265.073 294.904 270.187C297.603 275.302 292.488 280.701 282.969 285.106C273.592 289.51 263.362 291.215 260.805 286.242Z" fill="#602F0F"/>
<path d="M269.027 272.848C268.727 272.317 270.976 270.858 273.974 269.53C276.972 268.203 279.67 267.673 279.97 268.203C280.269 268.734 278.321 269.796 275.323 271.123C272.325 272.45 269.327 273.379 269.027 272.848Z" fill="#4C230C"/>
<path d="M217.506 392C212.534 392 208.983 390.722 207.847 389.302C206.852 388.024 206 384.049 206 378.227C206.142 364.17 217.506 309.647 226.172 297.862C232.138 289.911 244.354 295.448 248.474 303.542C251.173 308.937 248.19 317.031 245.349 322.284C243.502 325.55 241.797 329.667 236.826 343.298C234.127 351.676 229.155 363.744 226.029 372.974C226.029 372.974 238.388 374.252 250.605 376.665C260.264 378.653 275.038 384.049 275.464 383.907C280.01 383.339 283.135 379.931 287.965 380.641C298.193 382.203 307 388.734 307 391.858C307.142 392 228.018 392 217.506 392Z" fill="#F6BB92"/>
</svg>
