<svg width="500" height="500" viewBox="0 0 500 500" fill="none" xmlns="http://www.w3.org/2000/svg">
<path d="M171.83 235.331C171.957 235.147 172.119 234.978 172.204 234.773C172.535 233.997 173.146 233.542 173.886 233.193C175.163 232.593 176.444 231.997 177.682 231.33C188.086 225.721 195.237 217.346 198.955 206.107C200.112 202.604 200.74 198.995 200.461 195.28C200.412 194.645 200.694 194.215 201.054 193.766C202.751 191.657 204.433 189.533 206.127 187.42C217.296 173.45 228.465 159.48 239.634 145.51C241.041 143.746 242.445 141.979 243.856 140.218C244.146 139.858 244.424 139.901 244.583 140.328C245.074 141.651 245.522 142.988 246.033 144.3C248.615 150.946 251.953 157.215 255.636 163.304C261.495 172.991 268.318 181.959 275.846 190.404C281.11 196.31 286.705 201.88 292.762 206.975C295.743 209.479 298.763 211.935 302.079 213.998C302.365 214.175 302.605 214.425 302.873 214.626C303.342 214.979 303.864 215.155 304.457 215.078C304.651 214.838 304.912 214.789 305.198 214.81C310.782 211.039 316.374 207.271 321.947 203.486C322.875 202.854 323.757 202.156 324.65 201.475C325.525 200.804 326.16 199.972 326.301 198.836C324.353 194.32 321.859 190.094 319.386 185.857C306.531 163.844 293.662 141.837 280.796 119.831C278.005 115.058 275.218 110.289 272.431 105.512C272.149 105.025 271.86 104.535 271.638 104.02C269.609 99.3594 266.417 95.6129 262.508 92.4379C257.251 88.1658 251.328 85.2624 244.671 83.9289C241.327 83.2586 237.962 83.2057 234.568 83.5514C232.592 83.7525 230.666 84.0982 228.789 84.7473C228.525 84.8391 228.25 84.9237 227.971 84.9625C224.993 85.3753 222.415 86.7793 219.878 88.261C217.338 89.7427 215.024 91.5419 212.766 93.4222C202.246 102.175 192.633 111.851 183.408 121.934C175.329 130.76 167.639 139.915 160.121 149.218C157.637 152.29 155.26 155.437 152.917 158.616C150.508 161.882 147.982 165.068 145.53 168.303C144.613 169.516 143.724 170.755 142.874 172.018C140.168 176.043 137.483 180.082 134.791 184.114C132.946 186.88 131.14 189.678 129.302 192.451C127.5 195.171 125.961 198.07 124.321 200.9C123.894 201.637 123.601 202.431 123.531 203.292C123.947 204.378 124.833 205.091 125.637 205.842C126.251 206.414 126.981 206.865 127.683 207.338C134.089 211.663 140.605 215.819 147.11 219.989C153.284 223.947 159.426 227.951 165.596 231.912C167.589 233.193 169.657 234.35 171.819 235.331H171.83Z" fill="#696C65"/>
<path d="M195.826 387.021C196.757 382.273 197.731 377.535 198.602 372.776C199.586 367.403 200.941 362.115 202.126 356.788C202.945 353.109 203.76 349.426 204.447 345.718C204.723 344.229 204.952 342.726 205.287 341.245C205.573 339.985 205.95 338.744 206.218 337.481C206.402 336.616 206.973 336.281 207.739 336.119C207.795 336.108 207.852 336.105 207.908 336.101C210.106 336.034 212.279 335.618 214.484 335.699C214.766 335.71 215.052 335.692 215.327 335.741C216.206 335.897 216.639 336.369 216.83 337.301C217.338 339.781 217.917 342.247 218.35 344.737C218.65 346.466 219.049 348.152 219.603 349.814C220.291 351.867 221.564 353.066 223.797 353.447C225.639 353.761 227.417 353.684 229.138 353.179C230.747 352.707 231.689 353.324 232.596 354.495C233.873 356.143 235.206 357.741 236.554 359.335C237.436 360.379 238.032 360.425 239.171 359.646C239.404 359.487 239.662 359.349 239.856 359.152C242.075 356.898 244.664 355.06 246.922 352.855C247.486 352.301 248.09 351.782 248.601 351.182C249.162 350.519 249.825 350.332 250.676 350.279C253.766 350.096 256.839 349.736 259.834 348.882C259.745 348.558 259.693 348.223 259.566 347.916C258.377 345.062 257.188 342.208 255.971 339.368C255.018 337.145 254.016 334.948 253.064 332.725C252.778 332.058 252.358 331.579 251.656 331.388C249.868 330.905 248.072 330.446 246.283 329.959C244.932 329.592 243.504 329.554 242.198 328.993C241.951 329.141 241.736 329.081 241.539 328.894C240.223 328.679 238.91 328.418 237.587 328.27C236.695 328.171 236.314 327.702 236.229 326.883C236.194 326.551 236.173 326.22 236.148 325.888C235.958 325.694 235.887 325.479 236.028 325.222C235.82 324.908 235.778 324.558 235.817 324.191C235.619 324.001 235.541 323.786 235.675 323.528C235.467 323.218 235.421 322.872 235.457 322.509C235.241 322.325 235.174 322.103 235.273 321.835C235.227 321.606 235.182 321.376 235.136 321.147C234.487 319.514 234.102 317.817 233.873 316.077C233.795 315.809 233.689 315.545 233.643 315.27C233.513 314.483 233.072 314.024 232.349 313.668C230.38 312.698 228.401 311.763 226.359 310.955C224.372 310.172 222.429 309.294 220.464 308.454C220.277 308.398 220.09 308.338 219.906 308.281C218.435 308.796 216.943 309.262 215.5 309.844C214.036 310.433 212.498 310.669 210.974 310.987C210.212 311.146 209.436 311.223 208.663 311.34C208.709 313.086 208.674 314.843 208.822 316.582C208.977 318.392 209.002 320.184 208.797 321.983C208.621 323.549 208.476 325.119 208.272 326.686C208.053 328.347 207.781 329.998 207.534 331.656C207.351 331.251 207.337 330.859 207.354 330.471C207.428 329.063 207.524 327.656 207.594 326.252C207.735 323.539 207.404 320.844 207.273 318.145C207.266 318.032 207.252 317.919 207.234 317.81C206.702 314.681 205.806 311.664 204.356 308.828C203.534 307.216 202.588 305.685 201.311 304.376C200.422 303.469 199.304 302.929 198.217 302.333C195.734 300.968 193.141 300.181 190.273 300.753C190.107 300.785 189.938 300.788 189.768 300.799C187.115 300.964 184.688 301.765 182.536 303.349C181.99 303.748 181.436 304.139 180.896 304.545C179.344 305.72 178.105 307.17 177.192 308.888C176.821 309.586 176.507 310.317 176.091 310.987C175.252 312.349 174.691 313.82 174.331 315.365C173.819 317.559 173.308 319.753 173.057 322.001C172.927 323.175 172.793 324.35 172.602 325.518C172.211 327.91 171.83 330.302 171.692 332.725C171.618 334.02 171.473 335.307 171.41 336.602C171.378 337.248 171.029 337.488 170.471 337.572C170.81 337.78 171.131 337.989 171.085 338.479C171.043 338.927 171.099 339.389 171.029 339.83C170.616 342.518 170.951 345.245 170.672 347.926C170.411 350.449 170.591 352.996 170.143 355.497C170.115 355.663 170.104 355.836 170.112 356.001C170.207 358.206 169.766 360.376 169.671 362.57C169.604 364.137 169.286 365.692 169.131 367.255C169.004 368.543 168.873 369.834 168.782 371.118C168.577 374.035 168.418 376.96 168.288 379.885C168.051 385.18 168.09 390.475 167.998 395.77C167.991 396.109 167.991 396.455 167.921 396.779C167.466 398.822 167.801 400.818 168.344 402.776C168.644 403.852 168.757 404.974 169.3 406.001C170.736 408.731 172.528 411.134 175.036 412.989C176.814 414.305 178.853 414.88 180.963 415.289C183.616 415.804 186.311 415.998 188.996 416.238C190.329 416.358 191.694 416.418 193.039 416.101C193.469 415.998 193.935 416.016 194.386 416.016C201.604 416.013 208.825 415.967 216.043 416.037C218.46 416.062 220.873 416.323 223.296 416.302C224.542 416.291 225.759 416.03 226.997 416.023C229.308 416.013 231.636 415.872 233.933 416.073C236.804 416.327 239.676 416.26 242.544 416.376C243.327 416.408 244.132 416.672 244.89 416.566C247.141 416.249 249.391 416.408 251.642 416.376C254.348 416.337 257.064 416.256 259.763 416.397C264.325 416.637 268.889 416.577 273.451 416.648C274.59 416.665 275.698 416.517 276.802 416.305C278.4 415.998 279.494 414.951 280.418 413.705C280.725 413.293 280.828 412.785 280.82 412.263C280.81 411.472 280.813 410.682 280.81 409.895C280.471 409.066 280.193 408.199 279.409 407.648C278.351 406.907 277.363 406.075 276.248 405.408C273.257 403.616 270.025 402.275 267.083 400.377C264.822 398.917 262.261 397.975 259.756 396.977C258.02 396.282 256.204 395.95 254.32 395.999C253.307 396.024 252.27 396.084 251.286 395.894C250.499 395.742 249.73 395.693 248.943 395.671C248.435 395.661 247.896 395.756 247.43 395.611C246.322 395.262 245.2 395.364 244.079 395.333C243.683 395.322 243.257 395.389 242.904 395.259C242.025 394.934 241.126 395.019 240.226 394.994C239.775 394.983 239.291 395.065 238.882 394.923C237.944 394.602 236.991 394.68 236.035 394.655C235.64 394.645 235.213 394.719 234.86 394.595C233.813 394.229 232.744 394.348 231.678 394.317C231.283 394.306 230.86 394.384 230.5 394.264C229.452 393.915 228.383 393.999 227.318 393.978C227.036 393.971 226.732 394.027 226.478 393.936C225.328 393.53 224.14 393.671 222.961 393.636C222.623 393.625 222.256 393.685 221.952 393.572C221.021 393.23 220.061 393.322 219.109 393.297C218.714 393.287 218.287 393.361 217.934 393.237C216.943 392.891 215.93 392.98 214.921 392.959C214.526 392.948 214.099 393.011 213.747 392.881C212.921 392.574 212.082 392.623 211.238 392.627C209.326 392.641 207.45 392.094 205.527 392.26C204.384 391.84 203.192 391.971 202.013 391.939C201.678 391.928 201.325 391.918 201.015 391.808C200.465 391.614 199.904 391.558 199.346 391.621C198.087 391.759 196.902 391.286 195.67 391.223C195.349 391.205 195.173 390.962 195.162 390.651C195.152 390.373 195.162 390.087 195.219 389.815C195.413 388.884 195.628 387.956 195.836 387.025L195.826 387.021Z" fill="#F7BB92"/>
<path d="M170.464 337.566C171.021 337.482 171.371 337.245 171.402 336.596C171.462 335.302 171.61 334.01 171.684 332.719C171.822 330.296 172.207 327.904 172.595 325.512C172.785 324.344 172.919 323.169 173.05 321.995C173.3 319.748 173.812 317.553 174.323 315.359C174.683 313.814 175.244 312.343 176.084 310.981C176.496 310.311 176.814 309.58 177.184 308.882C178.098 307.16 179.336 305.714 180.888 304.539C181.428 304.13 181.982 303.742 182.529 303.343C184.681 301.763 187.108 300.962 189.761 300.793C189.93 300.782 190.1 300.779 190.265 300.747C193.133 300.172 195.73 300.962 198.21 302.327C199.296 302.924 200.415 303.46 201.304 304.37C202.584 305.679 203.526 307.21 204.348 308.822C205.795 311.658 206.691 314.675 207.227 317.804C207.245 317.913 207.262 318.026 207.266 318.139C207.396 320.841 207.728 323.536 207.587 326.246C207.513 327.653 207.421 329.061 207.347 330.465C207.326 330.853 207.347 331.245 207.527 331.65C207.774 329.996 208.045 328.341 208.264 326.68C208.469 325.117 208.61 323.547 208.79 321.977C208.994 320.178 208.97 318.386 208.814 316.576C208.666 314.837 208.702 313.084 208.656 311.334C208.567 310.833 208.416 310.335 208.402 309.834C208.349 307.608 207.491 305.658 206.331 303.837C204.697 301.269 202.965 298.771 201.067 296.379C195.148 288.915 189.232 281.443 183.594 273.756C181.093 270.348 178.585 266.944 176.066 263.546C175.801 263.19 175.459 262.887 175.156 262.559C174.263 262.904 173.335 263.179 172.485 263.606C167.497 266.115 162.382 268.341 157.316 270.676C148.616 274.684 139.91 278.681 131.203 282.674C129.771 283.33 128.346 284 127.065 284.935C127.016 285.503 127.125 286.04 127.284 286.593C128.303 290.167 129.298 293.744 130.286 297.328C132.053 303.742 134.082 310.067 136.608 316.223C138.1 319.853 140.171 323.117 142.88 325.978C143.847 326.997 144.697 328.13 145.632 329.184C149.262 333.273 153.83 335.619 159.214 336.402C161.553 336.744 163.902 337.055 166.252 337.309C167.649 337.461 169.063 337.482 170.467 337.559L170.464 337.566Z" fill="#8A8AD9"/>
<path d="M127.065 284.945C128.346 284.011 129.771 283.34 131.203 282.684C139.91 278.691 148.616 274.694 157.316 270.686C162.382 268.351 167.497 266.125 172.485 263.617C173.335 263.19 174.263 262.914 175.156 262.569C174.997 262.152 174.874 261.715 174.669 261.32C173.004 258.088 172.041 254.674 171.677 251.047C171.342 247.696 171.049 244.351 171.071 240.982C171.081 239.345 171.282 237.744 171.695 236.163C171.766 235.892 171.787 235.609 171.829 235.334C169.667 234.354 167.599 233.2 165.606 231.916C159.436 227.951 153.294 223.947 147.12 219.992C140.615 215.822 134.096 211.67 127.693 207.341C126.991 206.869 126.261 206.417 125.647 205.846C124.843 205.094 123.953 204.381 123.541 203.295C122.493 205.151 121.325 206.932 120.56 208.953C119.42 211.966 118.577 215.049 117.907 218.189C117.297 221.047 116.863 223.929 116.482 226.832C115.677 232.949 115.773 239.084 115.949 245.216C116.002 247.05 116.182 248.909 116.439 250.751C116.697 252.585 116.926 254.427 117.191 256.261C117.709 259.828 118.538 263.327 119.487 266.799C120.334 269.896 121.361 272.937 122.631 275.886C123.075 276.92 123.551 277.943 124.042 278.955C124.825 280.578 125.731 282.141 126.342 283.845C126.49 284.261 126.635 284.706 127.065 284.949V284.945Z" fill="#F7BB92"/>
<path d="M220.456 308.456C222.417 309.292 224.365 310.174 226.351 310.957C228.393 311.765 230.373 312.699 232.341 313.67C233.064 314.026 233.509 314.485 233.636 315.271C233.682 315.546 233.787 315.811 233.865 316.079C234.288 316.15 234.669 316.375 234.676 316.802C234.705 318.048 235.153 319.198 235.393 320.394C235.449 320.683 235.361 320.944 235.128 321.145C235.174 321.374 235.22 321.604 235.262 321.833C235.596 322.002 235.657 322.227 235.446 322.507C235.414 322.87 235.456 323.216 235.664 323.526C236.045 323.678 236.197 323.876 235.805 324.189C235.77 324.556 235.809 324.906 236.017 325.22C236.391 325.382 236.525 325.586 236.137 325.886C236.165 326.218 236.186 326.55 236.218 326.881C236.303 327.703 236.684 328.169 237.576 328.268C238.899 328.416 240.212 328.677 241.527 328.892C241.81 328.525 242.014 328.634 242.187 328.991C243.492 329.552 244.921 329.591 246.272 329.957C248.061 330.444 249.857 330.903 251.645 331.386C252.347 331.577 252.767 332.056 253.053 332.723C254.005 334.942 255.007 337.143 255.96 339.366C257.177 342.206 258.366 345.06 259.554 347.914C259.681 348.221 259.734 348.559 259.823 348.88C260.172 348.902 260.518 348.916 260.803 348.655C260.997 348.224 261.343 348.249 261.717 348.344C263.64 347.882 265.326 346.947 266.899 345.78C266.949 345.335 267.227 345.194 267.637 345.226C268.413 344.88 269.101 344.418 269.605 343.716C269.63 343.282 269.933 343.017 270.212 342.742C271.164 341.79 272.12 340.841 273.066 339.878C273.38 339.56 273.704 339.235 273.948 338.865C274.756 337.655 275.535 336.427 276.308 335.193C276.467 334.939 276.636 334.748 276.936 334.699C277.366 334.159 277.705 333.577 277.804 332.878C277.73 332.501 277.726 332.152 278.171 331.989C278.612 331.464 278.809 330.853 278.82 330.173C278.746 329.813 278.724 329.474 279.13 329.28C279.486 328.726 279.511 328.105 279.504 327.477C279.479 327.054 279.448 326.631 279.43 326.207C279.416 325.918 279.55 325.703 279.797 325.555C279.994 325.216 280.058 324.856 279.938 324.475C279.67 323.604 279.617 322.736 279.98 321.875C280.093 321.258 280.111 320.648 279.857 320.055C279.606 319.822 279.419 319.543 279.433 319.198C279.497 317.705 279.236 316.259 278.851 314.827C278.82 314.71 278.968 314.544 279.035 314.403C278.89 313.229 278.629 312.082 278.121 311.003C277.708 310.809 277.733 310.466 277.811 310.103C277.469 308.614 276.865 307.235 276.096 305.923C275.75 305.799 275.687 305.524 275.715 305.203C275.662 305.104 275.609 305.005 275.56 304.907C274.816 304.607 274.653 304.003 274.713 303.287C274.248 302.624 273.655 302.028 273.595 301.15C273.119 301.209 272.72 301.082 272.378 300.726C271.835 300.158 271.281 299.601 270.709 299.061C269.729 298.14 268.684 297.311 267.46 296.715C265.799 295.907 264.165 295.043 262.44 294.366C259.198 293.089 255.861 292.238 252.375 292.002C252.104 292.365 251.709 292.365 251.31 292.372C250.636 292.383 249.941 292.309 249.292 292.45C246.992 292.94 244.685 293.413 242.476 294.256C241.429 294.655 240.399 295.106 239.34 295.47C238.444 295.777 237.643 296.348 236.659 296.401C236.426 296.394 236.229 296.472 236.084 296.662C235.541 297.382 234.807 297.713 233.918 297.745C233.692 297.752 233.505 297.83 233.375 298.024C233.068 298.609 232.539 298.772 231.932 298.775C231.537 298.804 231.269 299.05 231.004 299.308C230.768 299.975 230.2 300.081 229.604 300.148C226.615 301.721 223.959 303.749 221.504 306.046C221.066 306.459 220.611 306.9 220.467 307.535L220.438 308.449L220.456 308.456Z" fill="#794720"/>
<path d="M326.304 198.839C326.163 199.975 325.528 200.808 324.653 201.478C323.761 202.163 322.879 202.861 321.951 203.489C316.373 207.274 310.785 211.042 305.201 214.813C305.109 214.926 305.017 215.039 304.926 215.152C304.756 217.251 305.042 219.308 305.48 221.354C305.645 222.123 305.797 222.895 305.956 223.668C306.566 226.674 308.002 229.267 309.985 231.563C311.061 232.809 312.422 233.74 313.855 234.541C315.481 235.451 317.192 236.188 318.938 236.834C321.894 237.931 324.868 238.982 327.909 239.839C330.837 240.661 333.737 241.579 336.658 242.418C339.417 243.212 342.236 243.794 345.068 244.2C347.192 244.503 349.302 244.249 351.415 243.656C354.727 242.729 356.04 238.312 353.98 235.677C351.863 232.967 349.852 230.18 347.81 227.415C345.266 223.971 342.744 220.511 340.197 217.068C336.849 212.538 333.504 208.001 330.125 203.496C329.077 202.099 327.913 200.794 326.985 199.305C326.833 199.062 326.59 198.91 326.304 198.836V198.839Z" fill="#F7BB93"/>
<path d="M276.435 299.895C277.86 299.969 279.092 299.444 280.189 298.597C281.624 297.486 282.859 296.181 283.826 294.632C285.322 292.237 285.759 289.612 285.54 286.846C285.237 282.983 283.678 279.685 281.018 276.894C279.959 275.783 278.679 274.936 277.363 274.181C275.162 272.915 272.826 271.98 270.339 271.349C266.141 270.283 261.901 270.019 257.597 270.17C251.451 270.385 245.334 270.862 239.231 271.606C236.938 271.885 234.631 272.04 232.313 271.832C231.696 271.775 231.071 271.744 230.457 271.772C229.674 271.807 229.025 272.142 228.722 272.904C228.425 273.656 228.616 274.319 229.173 274.919C230.249 276.076 231.343 277.205 232.641 278.125C234.758 279.621 236.843 281.166 238.981 282.627C242.565 285.075 246.177 287.478 249.783 289.894C250.199 290.173 250.651 290.406 251.084 290.66C251.278 290.667 251.476 290.677 251.67 290.684C251.966 290.092 252.429 289.735 253.085 289.601C254.016 289.414 254.937 289.04 255.868 289.033C257.823 289.016 259.766 288.913 261.738 289.266C265.756 289.989 269.083 291.901 272.032 294.611C272.445 294.988 272.826 295.422 273.295 295.718C274.572 296.526 275.345 297.779 276.23 298.925C276.414 299.162 276.375 299.567 276.439 299.895H276.435Z" fill="#7A4822"/>
<path d="M195.826 387.023C195.618 387.95 195.402 388.878 195.208 389.813C195.152 390.085 195.141 390.371 195.152 390.649C195.166 390.96 195.339 391.203 195.66 391.221C196.895 391.284 198.077 391.757 199.336 391.619C199.893 391.559 200.454 391.612 201.005 391.806C201.315 391.916 201.668 391.926 202.003 391.937C203.181 391.969 204.374 391.842 205.517 392.258C207.439 392.092 209.316 392.639 211.228 392.625C212.071 392.618 212.911 392.572 213.736 392.879C214.089 393.009 214.516 392.949 214.911 392.956C215.92 392.981 216.933 392.889 217.924 393.235C218.28 393.359 218.707 393.284 219.099 393.295C220.051 393.316 221.011 393.225 221.942 393.57C222.245 393.683 222.612 393.623 222.951 393.634C224.129 393.666 225.318 393.524 226.468 393.934C226.722 394.022 227.026 393.969 227.308 393.976C228.373 393.997 229.442 393.912 230.49 394.262C230.85 394.382 231.273 394.304 231.668 394.315C232.733 394.346 233.802 394.226 234.85 394.593C235.206 394.717 235.633 394.643 236.025 394.653C236.977 394.678 237.93 394.6 238.872 394.921C239.281 395.062 239.764 394.981 240.216 394.992C241.112 395.017 242.012 394.932 242.893 395.257C243.246 395.387 243.673 395.32 244.068 395.331C245.19 395.362 246.312 395.26 247.42 395.609C247.885 395.757 248.429 395.659 248.933 395.669C249.72 395.687 250.489 395.74 251.276 395.892C252.256 396.082 253.297 396.022 254.309 395.997C256.193 395.948 258.01 396.28 259.746 396.975C262.25 397.973 264.812 398.918 267.073 400.375C270.019 402.273 273.247 403.614 276.238 405.406C277.353 406.073 278.341 406.905 279.399 407.646C280.182 408.196 280.464 409.064 280.8 409.893C281.318 409.459 281.47 408.867 281.484 408.232C281.498 407.611 281.502 406.99 281.473 406.369C281.41 404.933 280.821 403.864 279.582 402.993C277.032 401.201 274.315 399.73 271.543 398.336C270.382 397.754 269.271 397.091 268.156 396.428C266.413 395.391 264.603 394.466 262.698 393.747C262.385 393.627 262.035 393.553 261.764 393.369C260.659 392.621 259.393 392.3 258.123 392.067C256.744 391.813 255.35 391.591 253.925 391.633C251.099 391.715 248.305 391.309 245.501 391.048C245.275 391.027 245.052 391.009 244.827 390.991C242.689 390.85 240.551 390.737 238.417 390.561C235.051 390.282 231.689 389.944 228.324 389.658C226.359 389.492 224.39 389.393 222.422 389.235C220.291 389.062 218.16 388.864 216.029 388.663C214.572 388.525 213.108 388.511 211.648 388.328C209.584 388.067 207.489 388.035 205.411 387.869C203.28 387.7 201.149 387.481 199.018 387.291C197.953 387.196 196.884 387.107 195.815 387.016L195.826 387.023Z" fill="#DEA983"/>
<path d="M276.436 299.895C276.372 299.567 276.411 299.161 276.227 298.925C275.342 297.779 274.569 296.523 273.292 295.718C272.823 295.422 272.442 294.988 272.029 294.611C269.08 291.901 265.753 289.989 261.735 289.266C259.763 288.913 257.819 289.015 255.865 289.033C254.937 289.04 254.013 289.414 253.082 289.601C252.425 289.732 251.963 290.091 251.667 290.684C251.861 291.15 252.376 291.443 252.394 292.011C255.879 292.247 259.213 293.097 262.458 294.374C264.184 295.055 265.817 295.916 267.478 296.724C268.703 297.32 269.747 298.149 270.728 299.07C271.299 299.606 271.853 300.167 272.396 300.735C272.738 301.091 273.137 301.218 273.613 301.158C274.09 300.812 274.562 300.456 275.208 300.615C275.698 300.516 276.136 300.329 276.436 299.902V299.895Z" fill="#5C3718"/>
<path d="M252.394 292.007C252.376 291.443 251.864 291.15 251.667 290.681C251.473 290.674 251.275 290.663 251.081 290.656C251.247 291.073 251.247 291.425 250.718 291.566C250.608 291.595 250.503 291.63 250.393 291.648C247.663 292.074 245.073 293.02 242.456 293.835C240.695 294.382 239.009 295.161 237.302 295.867C237.062 295.966 236.885 296.22 236.677 296.403C237.658 296.35 238.462 295.779 239.358 295.472C240.417 295.108 241.447 294.657 242.495 294.258C244.703 293.415 247.01 292.946 249.31 292.452C249.959 292.314 250.654 292.388 251.328 292.374C251.727 292.367 252.122 292.367 252.394 292.004V292.007Z" fill="#7E4E28"/>
<path d="M276.954 334.705C276.65 334.751 276.484 334.945 276.326 335.199C275.553 336.43 274.77 337.661 273.965 338.871C273.719 339.242 273.398 339.563 273.084 339.884C272.138 340.843 271.182 341.792 270.23 342.748C269.951 343.027 269.651 343.288 269.623 343.722C270.448 343.525 270.917 342.83 271.464 342.297C273.521 340.282 275.327 338.06 276.661 335.488C276.788 335.241 276.862 334.97 276.957 334.709L276.954 334.705Z" fill="#7E4E28"/>
<path d="M279.05 314.406C278.986 314.547 278.834 314.713 278.866 314.83C279.251 316.262 279.512 317.705 279.448 319.201C279.434 319.55 279.621 319.828 279.872 320.058C279.935 319.97 280.055 319.874 280.048 319.793C279.889 317.966 279.783 316.124 279.046 314.406H279.05Z" fill="#7E4E28"/>
<path d="M275.208 300.61C274.562 300.455 274.09 300.807 273.613 301.153C273.673 302.028 274.266 302.624 274.732 303.291L274.735 303.252C274.94 302.755 274.587 302.462 274.347 302.106C273.984 301.562 274.023 301.442 274.555 301.061C274.771 300.906 274.989 300.758 275.208 300.61Z" fill="#756047"/>
<path d="M279.999 321.881C279.632 322.742 279.688 323.609 279.956 324.481C280.334 323.62 280.235 322.752 279.999 321.881Z" fill="#7E4E28"/>
<path d="M233.936 297.747C234.822 297.715 235.559 297.384 236.103 296.664C235.277 296.816 234.483 297.034 233.936 297.747Z" fill="#7E4E28"/>
<path d="M274.734 303.25L274.731 303.289C274.671 304.008 274.833 304.612 275.578 304.912C275.398 304.308 275.225 303.698 274.734 303.25Z" fill="#7E4E28"/>
<path d="M279.815 325.561C279.568 325.709 279.434 325.924 279.448 326.213C279.466 326.637 279.498 327.06 279.522 327.483C280.009 326.901 279.865 326.224 279.815 325.561Z" fill="#7E4E28"/>
<path d="M231.95 298.779C232.56 298.775 233.089 298.613 233.393 298.027C232.814 298.091 232.306 298.288 231.95 298.779Z" fill="#7E4E28"/>
<path d="M229.622 300.15C230.218 300.087 230.786 299.977 231.022 299.311C230.465 299.438 229.954 299.646 229.622 300.15Z" fill="#7E4E28"/>
<path d="M275.733 305.209C275.705 305.53 275.768 305.805 276.114 305.929C276.181 305.586 276.04 305.354 275.733 305.209Z" fill="#7E4E28"/>
<path d="M277.829 310.109C277.751 310.473 277.727 310.815 278.139 311.009C278.203 310.653 278.139 310.339 277.829 310.109Z" fill="#7E4E28"/>
<path d="M279.148 329.287C278.743 329.478 278.764 329.82 278.838 330.18C279.134 329.95 279.223 329.647 279.148 329.287Z" fill="#7E4E28"/>
<path d="M278.189 331.992C277.744 332.154 277.748 332.504 277.822 332.881C278.143 332.666 278.203 332.341 278.189 331.992Z" fill="#7E4E28"/>
<path d="M267.648 345.231C267.239 345.199 266.96 345.34 266.911 345.785C267.263 345.746 267.514 345.566 267.648 345.231Z" fill="#7E4E28"/>
<path d="M261.728 348.351C261.354 348.255 261.008 348.231 260.814 348.661C261.174 348.717 261.492 348.654 261.728 348.351Z" fill="#7E4E28"/>
<path d="M220.456 308.455L220.484 307.541C220.181 307.703 220.022 307.978 219.895 308.282C220.082 308.338 220.269 308.398 220.453 308.455H220.456Z" fill="#7E4E28"/>
<path d="M304.926 215.156C305.017 215.043 305.109 214.93 305.201 214.817C304.915 214.796 304.65 214.845 304.46 215.085C304.615 215.11 304.77 215.134 304.926 215.159V215.156Z" fill="#AFBEBB"/>
<path d="M235.128 321.144C235.361 320.946 235.453 320.682 235.393 320.393C235.153 319.197 234.705 318.047 234.677 316.801C234.666 316.374 234.289 316.149 233.865 316.078C234.098 317.814 234.483 319.514 235.128 321.148V321.144Z" fill="#7E4E28"/>
<path d="M235.446 322.506C235.66 322.226 235.599 322.001 235.263 321.832C235.164 322.1 235.231 322.322 235.446 322.506Z" fill="#7E4E28"/>
<path d="M235.809 324.193C236.197 323.879 236.046 323.677 235.668 323.529C235.538 323.79 235.615 324.006 235.809 324.193Z" fill="#7E4E28"/>
<path d="M236.141 325.889C236.529 325.59 236.395 325.385 236.021 325.223C235.88 325.477 235.95 325.692 236.141 325.889Z" fill="#7E4E28"/>
<path d="M242.195 328.994C242.025 328.638 241.817 328.528 241.535 328.895C241.729 329.086 241.948 329.142 242.195 328.994Z" fill="#7E4E28"/>
</svg>
