<svg width="501" height="501" viewBox="0 0 501 501" fill="none" xmlns="http://www.w3.org/2000/svg">
<path d="M347.063 305.876C339.851 307.671 331.376 288.83 321.82 281.294C316.772 277.346 312.084 273.219 311.543 266.939C310.821 258.685 316.952 255.276 317.312 252.405C318.755 236.614 301.806 192.653 303.068 180.989C303.068 180.989 342.015 166.276 341.834 172.556C340.933 198.395 336.425 250.79 334.983 260.12C334.983 260.12 336.786 271.784 340.933 281.294C342.375 285.421 353.374 304.261 347.063 305.876Z" fill="#ECAD83"/>
<path d="M304.645 122.588C302.435 147.801 301.329 155.42 302.435 180.815C317.909 177.005 333.752 180.633 341.673 180.996C343.147 166.303 345.173 142.722 344.989 120.955C344.621 95.3786 304.645 122.588 304.645 122.588Z" fill="#333333"/>
<path d="M214.707 208.706C216.136 207.628 219.708 206.19 220.78 205.831C247.038 193.788 237.928 167.727 244.001 162.515C244.001 162.515 217.922 123.512 213.099 120.996C197.916 130.342 180.768 149.754 169.515 167.367C164.156 175.455 202.203 217.873 214.707 208.706Z" fill="#3D3C3C"/>
<path d="M349.631 307.863C342.35 309.843 336.161 289.15 326.331 281.953C321.053 277.994 316.32 274.036 315.592 267.918C314.682 259.641 320.871 256.222 321.053 253.163C322.145 237.329 304.124 193.605 305.034 181.909C305.034 181.909 343.988 166.075 343.806 172.553C343.442 198.463 340.165 251.184 339.073 260.541C339.073 260.541 341.075 272.236 345.444 281.773C347.264 285.372 356.184 306.064 349.631 307.863Z" fill="#F6BB92"/>
<path d="M211.583 417.996C205.282 417.996 200.782 416.365 199.341 414.553C198.081 412.922 197.001 407.848 197.001 400.418C197.181 382.476 211.583 312.887 222.565 297.846C230.126 287.697 250.469 322.311 246.869 329.016C244.528 333.184 242.368 338.439 236.067 355.837C232.646 366.529 226.345 381.933 222.385 393.712C222.385 393.712 238.047 395.343 253.53 398.424C265.772 400.961 284.495 407.848 285.035 407.666C290.795 406.942 294.756 402.592 300.877 403.498C313.839 405.492 325.001 413.828 325.001 417.815C325.181 417.996 224.905 417.996 211.583 417.996Z" fill="#ECAD83"/>
<path d="M305.531 123.159C303.911 148.384 303.01 155.952 304.631 180.996C319.752 176.852 335.234 180.095 342.975 180.275C345.315 148.384 349.275 74.872 330.373 69.4667C310.751 63.8812 229.383 109.646 212.641 120.277C195.899 130.907 182.758 155.411 192.119 166.762C192.119 166.762 210.121 172.167 233.703 169.104C230.283 169.645 305.531 123.159 305.531 123.159Z" fill="#3D3C3C"/>
<path d="M179.556 348C194.892 363.849 209.145 356.285 235.486 355.565C238.734 355.385 251.904 346.56 255.152 340.076C258.76 333.052 260.204 325.307 257.858 316.842C253.167 300.093 213.655 280.461 203.191 241.379C204.995 230.213 206.439 221.928 212.573 209.32L169.272 166.996C127.054 247.322 161.694 311.439 175.587 329.99C175.587 330.17 173.061 341.517 179.556 348Z" fill="#FF8AA0"/>
<path d="M251.526 348.996C251.526 348.996 265.681 347.178 278.383 351.723L288.001 329.905C272.939 331.905 258.422 324.996 258.422 324.996C256.426 344.996 244.63 347.723 241.001 352.996L251.526 348.996Z" fill="#ECAD83"/>
<path d="M329.08 333.462C338.99 327.515 338.449 317.243 337.548 311.296C334.485 292.374 325.116 286.788 312.323 281.742C295.385 274.894 271.061 317.243 269.439 325.352C265.475 346.437 289.439 364.998 300.43 369.864C312.503 375.09 311.061 369.684 312.683 364.638C312.683 364.458 313.584 363.917 313.584 363.917C314.305 362.295 315.025 359.952 317.188 358.15C317.188 358.15 317.368 356.528 317.548 355.627C317.728 355.087 317.908 354.726 318.629 354.726C320.611 354.726 322.593 354.907 323.494 354.546C326.737 352.744 324.575 336.165 329.08 333.462Z" fill="#F6BB92"/>
<path d="M309.001 356.996C309.001 356.996 309.846 358.47 315.088 360.996C315.933 360.996 317.286 360.575 316.948 358.47C316.441 356.786 312.89 358.259 309.001 356.996Z" fill="#D6876B"/>
<path d="M309.001 356.996C309.001 356.996 309.001 360.86 313.654 364.938C314.37 365.152 315.265 364.723 315.444 364.508C316.697 362.791 315.444 361.289 315.444 361.289C309.896 358.499 309.001 356.996 309.001 356.996Z" fill="#CC785E"/>
<path d="M312.011 278.899C291.346 270.61 251.813 289.351 266.009 336.023C266.907 339.086 270.142 343.591 278.408 341.429C284.338 339.807 289.189 336.564 289.189 336.564C290.627 335.482 292.244 334.401 293.862 333.32C295.658 332.059 298.354 321.247 300.69 321.787C322.253 326.653 335.191 319.445 337.348 314.039C340.223 299.803 333.933 287.729 312.011 278.899Z" fill="#602F0F"/>
<path d="M288.056 328.485C287.496 339.275 291.229 341.322 297.201 342.996L300.001 326.996L299.441 319.927C293.469 318.252 288.616 317.694 288.056 328.485Z" fill="#F6BB92"/>
<path d="M267.833 297.221C264.67 290.999 270.82 281.849 281.363 276.542C291.906 271.235 303.152 271.967 306.139 278.189C309.302 284.411 303.503 290.816 292.96 296.123C282.417 301.43 270.82 303.26 267.833 297.221Z" fill="#4C230C"/>
<path d="M302.139 324.217C302.5 322.414 303.041 320.971 303.582 319.709C304.303 317.906 305.024 317.005 305.024 317.005L298.173 316.824C297.812 317.726 297.451 318.627 297.091 319.529C297.091 319.529 297.812 319.529 299.074 319.709H298.894C299.254 321.332 299.435 323.856 299.074 327.282C299.254 327.101 300.877 329.806 302.139 324.217Z" fill="#602F0F"/>
<path d="M263.914 295.187C260.488 288.696 267.52 278.96 279.42 273.371C291.32 267.781 303.76 268.322 307.186 274.813C310.612 281.304 304.121 288.155 292.041 293.745C280.141 299.334 267.159 301.498 263.914 295.187Z" fill="#602F0F"/>
<path d="M274.035 277.814C273.654 277.177 276.515 275.425 280.331 273.833C284.147 272.24 287.581 271.603 287.962 272.24C288.344 272.877 285.864 274.151 282.048 275.744C278.232 277.336 274.417 278.451 274.035 277.814Z" fill="#4C230C"/>
<path d="M208.697 428.996C202.347 428.996 197.811 427.379 196.36 425.583C195.09 423.966 194.001 418.935 194.001 411.569C194.182 393.783 208.697 324.795 219.765 309.883C227.385 299.822 242.988 306.829 248.25 317.069C251.697 323.896 247.887 334.137 244.258 340.784C241.9 344.916 239.722 350.126 233.372 367.374C229.925 377.973 223.575 393.244 219.583 404.922C219.583 404.922 235.368 406.539 250.971 409.593C263.309 412.108 282.178 418.935 282.722 418.756C288.528 418.037 292.52 413.725 298.689 414.623C311.752 416.6 323.001 424.864 323.001 428.816C323.182 428.996 222.123 428.996 208.697 428.996Z" fill="#F6BB92"/>
</svg>
