<svg width="500" height="500" viewBox="0 0 500 500" fill="none" xmlns="http://www.w3.org/2000/svg">
<path d="M116.668 180.979C115.75 183.457 115.337 186.026 114.97 188.596C115.383 188.963 115.291 189.239 114.878 189.468C114.741 190.432 114.649 191.441 114.511 192.405C114.924 192.726 114.832 193.001 114.465 193.277C114.374 195.479 114.282 197.728 114.282 199.931C114.282 201.261 114.465 202.592 114.741 203.923C116.209 210.898 118.871 217.414 122.083 223.747C124.744 228.932 129.884 236.183 133.968 240.358C134.656 241.047 135.253 241.781 135.895 242.469C139.75 246.599 143.972 250.316 148.515 253.712C150.258 254.997 151.91 256.328 153.654 257.613C156.27 259.54 159.115 261.146 161.914 262.844C169.027 267.066 176.094 271.333 183.207 275.555C183.941 275.968 184.721 275.922 185.501 275.968C187.245 276.152 188.805 276.61 190.319 277.712C198.12 283.586 206.059 289.322 213.952 295.104C214.319 295.379 214.686 295.7 215.007 296.067C215.833 297.031 215.604 298.27 214.457 298.866C213.814 299.234 213.08 299.234 212.346 299.234C209.317 299.234 206.289 299.325 203.26 299.325C202.709 299.325 202.159 299.325 201.608 299.371C201.149 299.371 200.874 299.692 200.828 300.105C200.828 300.564 200.828 301.069 200.828 301.528C200.828 304.052 201.011 306.622 201.149 309.145C201.378 312.541 201.424 315.983 201.333 319.379C201.241 322.729 201.791 326.033 201.7 329.382C201.7 329.52 201.791 329.704 201.837 329.841C202.388 329.841 202.985 329.841 203.535 329.841C204.407 329.75 205.233 329.658 206.105 329.612C206.977 329.153 207.895 329.337 208.812 329.382C213.08 329.382 217.348 328.648 221.615 328.786C221.753 328.786 221.937 328.786 222.074 328.786C225.286 328.143 228.545 328.602 231.757 328.006C233.042 327.776 234.418 327.776 235.749 327.455C235.978 327.455 236.208 327.455 236.437 327.455C236.988 327.409 237.539 327.317 238.089 327.272C238.456 326.95 238.915 326.95 239.374 327.088C240.063 326.996 240.751 326.95 241.439 326.859C241.669 326.537 241.944 326.537 242.265 326.675C248.047 325.803 253.737 324.656 259.29 323.004C259.657 322.912 260.07 322.82 260.437 322.729C261.768 321.994 263.099 321.122 264.659 320.847C264.934 320.572 265.21 320.296 265.531 320.067C267.458 318.644 269.248 317.13 270.762 315.249C275.672 309.191 277.967 302.354 277.278 294.507C276.911 290.469 275.856 286.706 273.745 283.264C273.469 282.851 273.378 282.392 273.378 281.934C273.102 281.658 272.735 281.429 272.552 281.108C271.496 279.456 270.074 278.217 268.697 276.886C267.963 276.152 267.091 275.555 266.357 274.867C263.42 272.113 260.529 269.222 257.546 266.469C252.269 261.651 247.221 256.603 242.036 251.647C241.072 250.729 240.063 249.812 239.053 248.94C237.355 247.425 235.611 245.865 234.189 244.075C232.72 242.791 231.16 241.506 229.738 240.129C223.497 234.255 217.256 228.336 211.061 222.37C206.289 217.827 201.516 213.238 196.744 208.695C195.229 207.273 193.761 205.85 192.247 204.428C190.824 204.749 189.815 203.831 188.805 203.097C185.868 200.986 182.931 198.783 180.04 196.627C176.966 194.378 173.937 192.13 170.862 189.881C170.404 189.56 170.037 189.147 169.669 188.734C169.394 188.413 169.256 188.045 169.486 187.632C169.715 187.219 170.128 187.174 170.541 187.219C171 187.265 171.459 187.403 171.918 187.541C176.323 189.33 180.683 191.12 185.088 192.91C188.667 194.378 192.292 195.801 195.872 197.269C196.422 197.177 196.606 196.672 196.835 196.305C198.487 193.873 200.185 191.487 201.791 189.055C207.803 179.923 213.814 170.791 219.826 161.659C220.56 160.512 221.34 159.411 222.395 158.585C216.2 154.18 209.684 150.325 202.755 147.159C199.726 145.782 196.652 144.543 193.486 143.579C191.329 142.937 189.172 142.662 186.969 142.203C186.602 142.34 186.281 142.249 186.052 141.927C185.593 141.881 185.18 141.79 184.721 141.744C184.446 141.836 184.262 141.744 184.078 141.56C183.62 141.468 183.161 141.423 182.748 141.331C180.866 141.606 179.122 140.826 177.333 140.734C177.195 140.734 177.103 140.551 176.966 140.459C176.507 140.459 176.094 140.413 175.635 140.367C174.947 140.505 174.212 140.642 173.616 140.138C171.23 139.954 168.843 139.954 166.457 140.138C165.815 140.642 165.126 140.505 164.438 140.367C163.979 140.367 163.566 140.459 163.107 140.459C162.235 141.239 161.18 140.918 160.216 140.872C159.757 140.918 159.299 141.01 158.84 141.055C158.564 141.377 158.197 141.423 157.784 141.331C157.325 141.423 156.912 141.468 156.453 141.56C156.316 141.79 156.086 141.836 155.857 141.79C155.444 141.881 154.985 141.973 154.572 142.065C154.434 142.294 154.251 142.34 153.975 142.294C153.7 142.34 153.425 142.432 153.104 142.478C152.966 142.707 152.736 142.799 152.507 142.707C152.232 142.799 151.956 142.845 151.681 142.937C151.543 143.166 151.314 143.258 151.084 143.212C150.809 143.304 150.534 143.35 150.259 143.442C150.121 143.671 149.937 143.763 149.662 143.717C145.624 145.048 141.999 147.159 138.603 149.591C134.519 152.482 130.985 156.015 128.003 160.053C127.36 160.925 126.672 161.797 125.983 162.669C122.863 166.615 120.293 170.883 118.641 175.61C118.825 176.114 118.641 176.481 118.182 176.757C117.678 177.72 117.356 178.776 117.127 179.831C117.356 180.336 117.219 180.749 116.806 181.024L116.668 180.979Z" fill="#696D65"/>
<path d="M201.791 329.933C201.791 329.795 201.653 329.612 201.653 329.474C201.699 326.124 201.195 322.82 201.286 319.47C201.378 316.074 201.332 312.633 201.103 309.237C200.919 306.713 200.782 304.189 200.782 301.619C200.782 301.161 200.782 300.656 200.782 300.197C200.782 299.738 201.103 299.463 201.562 299.463C202.112 299.463 202.663 299.417 203.214 299.417C206.242 299.417 209.271 299.325 212.3 299.325C213.034 299.325 213.722 299.325 214.411 298.958C215.512 298.361 215.787 297.122 214.961 296.159C214.64 295.792 214.273 295.516 213.906 295.195C206.013 289.413 198.12 283.677 190.273 277.803C188.759 276.702 187.199 276.197 185.455 276.059C184.675 275.968 183.849 276.059 183.16 275.646C182.426 276.151 181.554 276.243 180.682 276.427C175.038 277.574 171.459 281.015 169.807 286.476C169.073 288.862 169.027 291.295 169.531 293.727C169.761 294.92 169.669 296.067 169.669 297.26C169.761 298.774 169.761 300.243 169.899 301.757C170.22 304.419 170.633 307.08 170.633 309.742C170.633 310.522 170.633 311.348 170.725 312.082C171.138 314.652 171.092 317.267 171.092 319.883C171.688 322.132 171.551 324.426 171.596 326.675C171.596 327.134 171.505 327.638 171.642 328.097C172.285 330.025 172.009 331.998 172.055 333.971C172.055 334.659 171.964 335.439 172.193 336.082C172.606 337.321 172.514 338.56 172.56 339.845C172.56 341.13 172.377 342.414 172.698 343.608C173.065 345.122 173.019 346.59 173.019 348.059C173.019 351.776 173.478 355.493 173.661 359.256C173.753 361.642 173.753 364.028 174.12 366.368C174.625 369.764 174.166 373.206 174.9 376.556C174.9 376.647 174.9 376.693 174.9 376.785C174.809 380.043 175.359 383.301 175.405 386.513C175.405 389.313 175.726 392.066 176.277 394.773C176.277 395.003 176.369 395.232 176.369 395.462C176.231 397.297 177.241 398.628 178.434 399.867C180.04 401.519 181.875 402.942 183.849 404.135C186.373 405.603 189.034 406.888 191.971 407.485C193.21 407.714 194.495 407.76 195.734 407.898C199.726 408.448 203.718 409.182 207.803 409.182C210.326 409.182 212.85 409.641 215.374 409.871C216.567 409.963 217.76 410.054 218.953 410.054C223.818 410.054 228.636 410.054 233.5 410.054C234.785 410.054 236.024 409.733 237.217 409.366C239.236 408.724 240.338 407.117 240.705 405.144C241.026 403.446 240.98 401.657 240.338 399.959C239.833 398.72 239.099 397.71 237.768 397.343C236.437 396.976 235.29 396.288 234.097 395.691C227.397 392.341 220.743 388.991 214.043 385.642C210.372 383.76 206.701 381.833 203.03 379.997C202.066 379.492 201.653 378.896 201.653 377.749C201.745 374.904 201.699 372.013 201.699 369.168C201.699 357.328 201.699 345.443 201.653 333.604C201.653 332.503 201.745 331.401 201.791 330.254C201.791 330.116 201.791 330.025 201.791 329.887V329.933Z" fill="#FFB78A"/>
<path d="M192.155 204.336C193.669 205.758 195.138 207.181 196.652 208.604C201.424 213.147 206.197 217.735 210.969 222.278C217.164 228.198 223.405 234.118 229.646 240.037C231.068 241.414 232.629 242.653 234.097 243.984C234.281 243.846 234.418 243.662 234.648 243.525C242.632 238.982 250.617 234.347 258.647 229.896C265.485 226.133 271.909 221.774 278.425 217.506C278.747 217.277 279.022 216.955 279.297 216.68C278.517 214.753 277.141 213.192 275.902 211.54C274.158 209.2 272.185 206.997 270.441 204.657C268.743 202.363 266.586 200.435 264.888 198.141C263.19 195.847 261.355 193.644 259.382 191.579C258.326 190.478 257.363 189.33 256.445 188.137C254.609 185.613 252.177 183.64 250.296 181.208C249.699 180.474 249.011 179.74 248.277 179.189C246.671 177.996 245.34 176.527 243.917 175.151C241.118 172.443 238.089 170.011 235.061 167.579C233.317 166.202 231.481 164.963 229.692 163.633C227.994 162.348 226.342 160.971 224.598 159.732C223.864 159.227 223.176 158.723 222.304 158.539C221.202 159.365 220.468 160.466 219.734 161.614C213.723 170.745 207.711 179.877 201.7 189.009C200.094 191.441 198.396 193.873 196.744 196.26C196.468 196.627 196.285 197.131 195.78 197.223C195.642 198.37 195.184 199.334 194.587 200.298C193.761 201.629 192.706 202.867 192.155 204.382V204.336Z" fill="#FFB78A"/>
<path d="M279.297 216.68C279.022 216.955 278.746 217.276 278.425 217.506C271.909 221.773 265.485 226.087 258.647 229.896C250.571 234.347 242.632 238.982 234.647 243.524C234.464 243.662 234.28 243.846 234.097 243.983C235.519 245.773 237.263 247.333 238.961 248.848C239.971 249.765 240.98 250.637 241.944 251.555C247.083 256.511 252.177 261.559 257.454 266.377C260.437 269.13 263.282 271.975 266.265 274.775C266.999 275.463 267.871 276.105 268.605 276.794C269.982 278.125 271.404 279.364 272.46 281.016C272.643 281.337 273.01 281.566 273.286 281.842C274.066 281.429 274.8 280.97 275.58 280.557C278.563 278.905 281.729 278.125 285.171 278.262C289.622 278.446 293.247 280.373 296.276 283.539C298.111 285.467 299.213 287.807 300.176 290.285C301.507 293.727 301.645 297.26 301.507 300.839C301.415 303.501 300.819 306.025 299.993 308.503C298.754 312.174 296.781 315.386 294.44 318.415C291.687 321.948 288.062 324.151 283.565 324.564C278.563 325.023 273.607 324.61 268.743 323.05C267.228 322.545 265.806 321.902 264.613 320.755C263.053 321.076 261.768 321.902 260.391 322.637C260.942 322.912 261.492 323.233 262.089 323.417C267.779 325.298 273.515 327.134 279.435 328.281C283.289 329.015 287.144 328.831 291.045 328.74C291.917 328.74 292.788 328.694 293.66 328.648C294.303 328.189 295.083 328.051 295.863 327.776C296.918 327.455 298.02 327.134 298.937 326.629C303.526 324.151 307.84 321.26 310.96 316.946C311.144 316.717 311.419 316.533 311.695 316.35C311.924 315.845 312.153 315.34 312.429 314.881C314.861 310.843 316.1 306.53 315.825 301.803C315.779 300.794 315.687 299.738 316.054 298.729C315.779 295.562 315.916 292.35 315.457 289.184C314.402 283.815 313.117 278.492 311.282 273.306C311.098 272.801 311.098 272.205 310.96 271.7C310.456 271.241 310.318 270.645 310.088 270.048C308.069 264.404 305.591 258.989 302.884 253.666C297.331 242.653 290.907 232.144 283.748 222.095C282.785 220.718 281.821 219.387 280.857 218.01C280.444 217.414 280.031 216.817 279.297 216.588V216.68Z" fill="#8A89DD"/>
<path d="M316.1 298.866C315.733 299.876 315.825 300.885 315.87 301.941C316.146 306.667 314.907 310.981 312.475 315.019C312.199 315.478 311.97 315.983 311.741 316.487C317.339 319.837 322.937 323.187 328.49 326.583C331.335 328.327 334.226 330.025 337.025 331.814C339.32 333.283 341.706 333.742 344.321 333.053C344.459 333.053 344.643 332.961 344.78 332.916C345.102 332.549 345.469 332.273 346.019 332.594C346.478 332.503 346.937 332.411 347.35 332.319C347.625 331.906 347.901 331.814 348.268 332.181C352.627 331.401 356.941 331.768 361.117 333.237C365.384 334.705 369.101 337.137 372.222 340.304C375.205 343.378 378.371 346.223 381.904 348.655C382.225 348.885 382.547 349.114 382.638 349.527C383.877 349.435 384.336 348.334 385.025 347.554C385.025 347.003 385.3 346.636 385.851 346.499C386.218 345.902 386.631 345.351 386.998 344.755C386.952 344.204 387.136 343.791 387.686 343.608C388.329 342.46 388.971 341.267 389.43 339.982C389.568 338.56 389.981 337.229 390.761 336.036C390.853 335.761 390.898 335.531 390.99 335.256C390.669 334.568 390.761 334.017 391.357 333.512C391.403 333.237 391.495 332.961 391.541 332.64C391.082 331.906 391.22 331.264 391.77 330.621C391.862 329.841 391.908 329.107 392 328.327C391.587 326.675 391.587 325.711 392 324.059C391.862 322.132 391.679 320.204 391.266 318.277C390.807 317.91 390.807 317.405 390.853 316.855C390.531 315.707 389.935 314.652 390.072 313.413C389.843 312.862 389.659 312.312 389.43 311.761C389.017 311.531 388.833 311.119 388.833 310.66C388.65 310.201 388.283 309.742 388.42 309.191C387.824 307.952 387.273 306.759 386.677 305.52C385.942 305.061 385.621 304.327 385.484 303.501C384.795 302.4 384.107 301.344 383.373 300.243C382.868 300.105 382.593 299.738 382.593 299.187C382.363 298.912 382.18 298.591 381.95 298.316C381.445 298.178 381.17 297.857 381.124 297.306C379.243 295.057 377.132 292.947 374.883 291.065C374.333 291.065 374.011 290.744 373.874 290.239C372.956 289.551 371.992 288.863 371.075 288.174C370.249 288.082 369.79 287.624 369.744 286.798H369.56C367.449 286.063 365.384 285.283 363.273 284.595C359.098 283.31 354.922 282.209 350.471 282.484C348.635 282.576 346.799 282.484 344.964 282.484C344.505 282.484 344 282.484 343.541 282.53C341.293 282.989 339.044 283.356 336.842 283.952C333.308 284.962 329.912 286.201 326.838 288.266C323.167 290.698 319.955 293.589 317.568 297.352C317.155 297.948 316.788 298.545 316.008 298.683L316.1 298.866Z" fill="#894100"/>
<path d="M344.734 332.914C344.597 332.914 344.413 333.006 344.276 333.052C341.66 333.74 339.274 333.282 336.979 331.813C334.18 329.978 331.289 328.28 328.444 326.582C322.846 323.232 317.293 319.836 311.695 316.486C311.465 316.67 311.144 316.853 310.96 317.083C307.84 321.396 303.572 324.287 298.938 326.765C297.974 327.27 296.873 327.546 295.863 327.913C295.129 328.142 294.349 328.326 293.66 328.785C296.827 331.905 300.039 334.979 303.113 338.192C307.978 343.239 312.108 348.838 316.146 354.574C318.348 357.694 320.597 360.769 322.433 364.119C323.075 365.312 323.672 366.505 324.36 367.652C325.14 369.029 325.92 370.451 326.884 371.69C328.857 374.26 331.473 375.774 334.822 375.866C337.438 375.912 340.054 375.866 342.578 375.04C346.249 373.893 349.92 374.214 353.591 375.27C356.023 376.004 358.409 376.922 360.704 377.977C361.484 378.344 362.31 378.665 363.136 378.895C365.293 379.491 367.128 378.436 367.679 376.233C367.908 375.224 368.092 374.214 368.229 373.205C368.918 368.799 369.973 364.486 371.717 360.402C373.002 357.419 374.929 354.941 377.682 353.151C379.013 352.279 380.39 351.499 381.721 350.673C382.134 350.444 382.593 350.26 382.638 349.664C382.547 349.251 382.225 349.021 381.904 348.792C378.325 346.406 375.204 343.515 372.222 340.44C369.101 337.228 365.384 334.842 361.117 333.373C356.895 331.905 352.627 331.538 348.268 332.318C347.993 332.777 347.717 332.869 347.35 332.456C346.891 332.547 346.432 332.639 346.019 332.731C345.698 333.19 345.331 333.373 344.78 333.052L344.734 332.914Z" fill="#FFB78A"/>
<path d="M132.591 307.172C132.133 307.034 131.674 306.988 131.169 307.172C129.93 307.723 128.691 308.227 127.452 308.778C125.846 309.466 124.24 310.109 122.634 310.843C120.11 311.99 117.494 313 115.062 314.376C111.804 316.258 109.509 319.103 108.27 322.682C108.087 323.187 108.133 323.784 108.087 324.334C107.857 327.546 108.454 330.667 109.509 333.695C111.024 337.963 112.492 342.231 114.098 346.498C116.209 352.234 118.687 357.833 121.532 363.294C122.909 365.955 124.377 368.617 126.718 370.682C130.251 373.802 134.335 375.454 139.108 375.271C140.163 375.271 141.127 374.903 142.09 374.536C142.687 374.307 143.192 373.894 143.88 373.94C144.293 373.435 144.66 372.976 145.073 372.471C146.174 371.141 146.863 369.718 146.817 367.928C146.725 366.276 146.587 364.624 146.45 362.972C146.22 360.632 146.174 358.246 145.899 355.86C145.67 353.887 145.716 351.913 145.486 349.94C145.165 347.462 145.348 344.892 144.935 342.368C144.706 340.762 145.119 339.019 144.477 337.412C144.385 337.229 144.385 336.908 144.477 336.724C144.935 335.852 144.477 335.026 144.385 334.2C143.742 333.695 143.513 332.869 143.238 332.181C139.934 324.61 136.63 317.038 133.326 309.466C133.004 308.732 132.637 308.044 132.591 307.218V307.172Z" fill="#FFB68A"/>
<path d="M235.703 327.5C234.418 327.867 233.042 327.821 231.711 328.051C228.499 328.647 225.241 328.188 222.028 328.831C221.891 328.831 221.707 328.831 221.569 328.831C217.302 328.693 213.034 329.427 208.767 329.427C208.767 329.565 208.767 329.657 208.767 329.794C208.767 329.886 208.767 329.932 208.767 330.024C208.996 333.924 209.18 337.779 209.409 341.68C209.547 344.158 209.684 346.59 209.914 349.022C210.097 351.408 210.969 353.657 211.979 355.813C212.254 356.456 212.851 356.915 213.355 357.465C215.466 359.806 217.944 361.412 220.973 362.513C224.415 363.706 227.856 364.257 231.39 364.716C232.904 364.899 234.372 365.129 235.887 365.358C236.667 365.45 237.447 365.588 238.227 365.633C241.302 365.817 244.422 365.817 247.497 366.184C254.059 366.964 260.667 366.597 267.275 366.643C268.972 366.643 270.579 366.276 272.093 365.588C273.745 364.807 274.571 363.385 274.754 361.641C274.892 360.448 274.846 359.255 274.754 358.062C274.663 356.272 273.791 354.804 272.093 354.161C270.074 353.427 268.238 352.28 266.311 351.316C260.07 348.196 253.829 345.029 247.542 341.863C244.284 340.211 241.026 338.559 237.768 336.953C237.355 336.724 236.942 336.494 236.483 336.311C235.841 335.989 235.566 335.485 235.611 334.796C235.657 332.502 235.703 330.207 235.749 327.867C235.703 327.775 235.657 327.638 235.703 327.5Z" fill="#E6A37C"/>
<path d="M144.43 334.156C144.522 334.982 144.981 335.808 144.522 336.68C144.43 336.863 144.43 337.184 144.522 337.368C145.165 338.974 144.706 340.672 144.981 342.324C145.348 344.848 145.211 347.418 145.532 349.896C145.761 351.869 145.715 353.842 145.945 355.815C146.22 358.201 146.22 360.542 146.495 362.928C146.679 364.58 146.817 366.232 146.863 367.884C146.954 369.674 146.266 371.096 145.119 372.427C144.706 372.932 144.293 373.391 143.926 373.895C145.807 376.098 148.147 377.429 151.084 377.658C153.7 377.842 155.673 376.74 157.142 374.63C157.646 373.895 158.059 373.161 158.472 372.381C162.373 365.406 166.273 358.431 170.174 351.456C170.908 350.171 171.688 348.84 173.065 348.06C173.065 346.546 173.065 345.077 172.744 343.609C172.468 342.416 172.652 341.085 172.606 339.846C172.606 338.607 172.652 337.322 172.239 336.083C172.01 335.441 172.147 334.661 172.101 333.972C172.055 331.999 172.285 330.026 171.688 328.098C171.551 327.685 171.688 327.135 171.642 326.676C171.642 324.381 171.78 322.087 171.138 319.884C170.816 319.884 170.495 319.884 170.174 319.884C168.293 319.609 166.411 319.334 164.53 319.058C162.878 318.829 161.226 318.921 159.574 318.508C158.977 318.37 158.289 318.462 157.692 318.554C156.453 318.783 155.214 319.012 154.021 319.471C151.681 320.297 149.616 321.536 148.239 323.785C146.863 325.988 145.991 328.328 145.348 330.76C145.027 331.907 144.706 333.054 144.385 334.202L144.43 334.156Z" fill="#E6A37B"/>
<path d="M144.431 334.155C144.752 333.008 145.073 331.861 145.394 330.714C146.083 328.281 146.955 325.895 148.285 323.738C149.662 321.49 151.727 320.297 154.067 319.425C155.26 319.012 156.499 318.783 157.738 318.507C158.335 318.37 159.023 318.324 159.62 318.461C161.272 318.828 162.924 318.783 164.576 319.012C166.457 319.241 168.339 319.563 170.22 319.838C170.541 319.838 170.863 319.838 171.184 319.838C171.184 317.222 171.184 314.653 170.817 312.037C170.679 311.257 170.725 310.477 170.725 309.697C170.725 306.989 170.266 304.373 169.991 301.712C169.807 300.244 169.807 298.729 169.761 297.215C166.687 297.995 163.612 298.775 160.538 299.601C151.268 302.125 141.999 304.649 132.683 307.173C132.729 307.999 133.096 308.687 133.417 309.421C136.721 316.993 140.025 324.564 143.329 332.136C143.651 332.87 143.834 333.65 144.477 334.155H144.431Z" fill="#6C6E66"/>
<path d="M310.96 271.791C311.052 272.342 311.098 272.893 311.282 273.398C313.117 278.583 314.402 283.906 315.457 289.275C316.375 288.495 317.109 287.577 317.844 286.659C319.266 284.961 320.826 283.355 322.524 281.933C324.36 280.327 326.425 278.996 328.306 277.436C331.748 274.637 335.74 272.939 339.962 271.791C341.568 271.333 343.312 271.883 344.872 271.195C345.01 271.149 345.193 271.195 345.331 271.195C347.121 271.837 348.956 271.562 350.746 271.562C352.535 271.562 354.187 271.929 355.885 272.342C359.556 273.306 363.182 274.453 366.623 276.013C367.22 276.289 367.816 276.38 368.459 276.197C368.459 275.738 368.321 275.233 368.551 274.774C368.459 274.499 368.413 274.224 368.321 273.902C367.862 273.489 367.77 272.985 367.908 272.434C366.853 269.864 364.971 267.937 362.906 266.239C359.74 263.623 356.115 262.063 352.122 261.008C349.415 260.273 346.708 259.952 343.954 259.906C342.623 260.09 341.339 260.182 340.008 259.906C338.952 259.998 337.851 260.09 336.796 260.182C336.52 260.503 336.153 260.595 335.74 260.411C335.144 260.503 334.547 260.549 333.951 260.64C333.767 260.87 333.583 260.916 333.354 260.778C332.757 260.87 332.161 261.008 331.61 261.099C331.473 261.329 331.289 261.421 331.014 261.329C330.738 261.375 330.463 261.466 330.142 261.512C330.004 261.742 329.821 261.834 329.545 261.742C329.27 261.834 328.995 261.879 328.673 261.971C328.536 262.201 328.352 262.292 328.077 262.201C327.801 262.292 327.526 262.384 327.251 262.476C327.113 262.705 326.93 262.843 326.654 262.751C322.937 264.036 319.404 265.78 316.054 267.891C314.999 268.533 313.989 269.359 312.979 270.094C312.291 270.598 311.74 271.333 310.869 271.608L310.96 271.791Z" fill="#894100"/>
<path d="M368.505 276.289C367.862 276.427 367.266 276.381 366.669 276.106C363.182 274.545 359.602 273.398 355.931 272.435C354.279 272.022 352.581 271.654 350.792 271.654C349.002 271.654 347.121 271.976 345.377 271.287C345.239 271.241 345.056 271.196 344.918 271.287C343.312 271.93 341.568 271.425 340.008 271.884C335.786 273.077 331.794 274.775 328.352 277.528C326.471 279.088 324.406 280.419 322.57 282.025C320.918 283.494 319.358 285.1 317.89 286.752C317.11 287.67 316.375 288.587 315.503 289.367C315.962 292.534 315.871 295.746 316.1 298.912C316.88 298.775 317.293 298.178 317.66 297.582C320.046 293.865 323.259 290.928 326.93 288.496C330.004 286.477 333.446 285.192 336.933 284.182C339.136 283.54 341.385 283.173 343.633 282.76C344.092 282.668 344.597 282.714 345.056 282.714C346.891 282.714 348.727 282.805 350.562 282.714C355.014 282.438 359.189 283.54 363.365 284.825C365.476 285.467 367.541 286.293 369.652 287.027C369.79 285.696 369.193 284.412 369.56 283.127C369.331 280.97 369.055 278.859 368.826 276.702C368.734 276.61 368.597 276.473 368.505 276.381V276.289Z" fill="#62340E"/>
<path d="M264.613 320.799C265.76 321.947 267.183 322.589 268.743 323.094C273.561 324.654 278.563 325.067 283.565 324.608C288.062 324.195 291.687 322.038 294.441 318.459C296.781 315.43 298.8 312.218 299.993 308.547C300.819 306.069 301.416 303.545 301.507 300.884C301.599 297.304 301.507 293.771 300.177 290.329C299.213 287.851 298.066 285.511 296.276 283.584C293.293 280.417 289.668 278.49 285.171 278.307C281.73 278.169 278.563 278.949 275.58 280.601C274.8 281.014 274.066 281.473 273.286 281.886C273.286 282.391 273.378 282.804 273.653 283.217C275.764 286.658 276.819 290.421 277.187 294.459C277.921 302.306 275.626 309.144 270.67 315.201C269.156 317.082 267.366 318.597 265.439 320.019C265.118 320.249 264.842 320.524 264.567 320.799H264.613Z" fill="#FFB68A"/>
<path d="M192.155 204.338C192.706 202.823 193.715 201.584 194.587 200.254C195.183 199.29 195.688 198.326 195.78 197.179C192.201 195.757 188.576 194.288 184.996 192.82C180.591 191.03 176.231 189.24 171.826 187.451C171.413 187.267 170.908 187.175 170.45 187.13C170.082 187.084 169.624 187.13 169.394 187.543C169.165 187.956 169.302 188.323 169.578 188.644C169.945 189.057 170.358 189.47 170.771 189.791C173.799 192.04 176.874 194.288 179.948 196.537C182.885 198.694 185.776 200.85 188.713 203.007C189.723 203.741 190.686 204.659 192.155 204.338Z" fill="#494A45"/>
</svg>
