<?xml version="1.0" encoding="UTF-8"?>
<svg xmlns="http://www.w3.org/2000/svg" version="1.1" viewBox="0 0 1417.3 1417.3">
  <defs>
    <style>
      .cls-1 {
        fill: #696d65;
      }

      .cls-2 {
        fill: #e6a37b;
      }

      .cls-3 {
        fill: #8a89dd;
      }

      .cls-4 {
        fill: #6c6e66;
      }

      .cls-5 {
        fill: #62340e;
      }

      .cls-6 {
        fill: #494a45;
      }

      .cls-7 {
        fill: #ffb68a;
      }

      .cls-8 {
        fill: #894100;
      }

      .cls-9 {
        fill: #ffb78a;
      }

      .cls-10 {
        fill: #e6a37c;
      }
    </style>
  </defs>
  <!-- Generator: Adobe Illustrator 28.7.1, SVG Export Plug-In . SVG Version: 1.2.0 Build 142)  -->
  <g>
    <g id="_레이어_1" data-name="레이어_1">
      <g>
        <path class="cls-1" d="M999.3,539.3c2,5.4,2.9,11,3.7,16.6-.9.8-.7,1.4.2,1.9.3,2.1.5,4.3.8,6.4-.9.7-.7,1.3.1,1.9.2,4.8.4,9.7.4,14.5,0,2.9-.4,5.8-1,8.7-3.2,15.2-9,29.4-16,43.2-5.8,11.3-17,27.1-25.9,36.2-1.5,1.5-2.8,3.1-4.2,4.6-8.4,9-17.6,17.1-27.5,24.5-3.8,2.8-7.4,5.7-11.2,8.5-5.7,4.2-11.9,7.7-18,11.4-15.5,9.2-30.9,18.5-46.4,27.7-1.6.9-3.3.8-5,.9-3.8.4-7.2,1.4-10.5,3.8-17,12.8-34.3,25.3-51.5,37.9-.8.6-1.6,1.3-2.3,2.1-1.8,2.1-1.3,4.8,1.2,6.1,1.4.8,3,.8,4.6.8,6.6,0,13.2.2,19.8.2,1.2,0,2.4,0,3.6.1,1,0,1.6.7,1.7,1.6,0,1,0,2.1,0,3.1,0,5.5-.4,11.1-.7,16.6-.5,7.4-.6,14.9-.4,22.3.2,7.3-1,14.5-.8,21.8,0,.3-.2.7-.3,1-1.2,0-2.5,0-3.7,0-1.9-.2-3.7-.4-5.6-.5-1.9-1-3.9-.6-5.9-.5-9.3,0-18.6-1.6-27.9-1.3-.3,0-.7,0-1,0-7-1.4-14.1-.4-21.1-1.7-2.8-.5-5.8-.5-8.7-1.2-.5,0-1,0-1.5,0-1.2-.1-2.4-.3-3.6-.4-.8-.7-1.8-.7-2.8-.4-1.5-.2-3-.3-4.5-.5-.5-.7-1.1-.7-1.8-.4-12.6-1.9-25-4.4-37.1-8-.8-.2-1.7-.4-2.5-.6-2.9-1.6-5.8-3.5-9.2-4.1-.6-.6-1.2-1.2-1.9-1.7-4.2-3.1-8.1-6.4-11.4-10.5-10.7-13.2-15.7-28.1-14.2-45.2.8-8.8,3.1-17,7.7-24.5.6-.9.8-1.9.8-2.9.6-.6,1.4-1.1,1.8-1.8,2.3-3.6,5.4-6.3,8.4-9.2,1.6-1.6,3.5-2.9,5.1-4.4,6.4-6,12.7-12.3,19.2-18.3,11.5-10.5,22.5-21.5,33.8-32.3,2.1-2,4.3-4,6.5-5.9,3.7-3.3,7.5-6.7,10.6-10.6,3.2-2.8,6.6-5.6,9.7-8.6,13.6-12.8,27.2-25.7,40.7-38.7,10.4-9.9,20.8-19.9,31.2-29.8,3.3-3.1,6.5-6.2,9.8-9.3,3.1.7,5.3-1.3,7.5-2.9,6.4-4.6,12.8-9.4,19.1-14.1,6.7-4.9,13.3-9.8,20-14.7,1-.7,1.8-1.6,2.6-2.5.6-.7.9-1.5.4-2.4-.5-.9-1.4-1-2.3-.9-1,.1-2,.4-3,.7-9.6,3.9-19.1,7.8-28.7,11.7-7.8,3.2-15.7,6.3-23.5,9.5-1.2-.2-1.6-1.3-2.1-2.1-3.6-5.3-7.3-10.5-10.8-15.8-13.1-19.9-26.2-39.8-39.3-59.7-1.6-2.5-3.3-4.9-5.6-6.7,13.5-9.6,27.7-18,42.8-24.9,6.6-3,13.3-5.7,20.2-7.8,4.7-1.4,9.4-2,14.2-3,.8.3,1.5.1,2-.6,1-.1,1.9-.3,2.9-.4.6.2,1,0,1.4-.4,1-.2,2-.3,2.9-.5,4.1.6,7.9-1.1,11.8-1.3.3,0,.5-.4.8-.6,1,0,1.9-.1,2.9-.2,1.5.3,3.1.6,4.4-.5,5.2-.4,10.4-.4,15.6,0,1.4,1.1,2.9.8,4.4.5,1,0,1.9.2,2.9.2,1.9,1.7,4.2,1,6.3.9,1,.1,2,.3,3,.4.6.7,1.4.8,2.3.6,1,.2,1.9.3,2.9.5.3.5.8.6,1.3.5.9.2,1.9.4,2.8.6.3.5.7.6,1.3.5.6.1,1.2.3,1.9.4.3.5.8.7,1.3.5.6.2,1.2.3,1.8.5.3.5.8.7,1.3.6.6.2,1.2.3,1.8.5.3.5.7.7,1.3.6,8.8,2.9,16.7,7.5,24.1,12.8,8.9,6.3,16.6,14,23.1,22.8,1.4,1.9,2.9,3.8,4.4,5.7,6.8,8.6,12.4,17.9,16,28.2-.4,1.1,0,1.9,1,2.5,1.1,2.1,1.8,4.4,2.3,6.7-.5,1.1-.2,2,.7,2.6Z"/>
        <path class="cls-9" d="M813.8,863.9c0-.3.3-.7.3-1-.1-7.3,1-14.5.8-21.8-.2-7.4-.1-14.9.4-22.3.4-5.5.7-11,.7-16.6,0-1,0-2.1,0-3.1,0-1-.7-1.6-1.7-1.6-1.2,0-2.4-.1-3.6-.1-6.6,0-13.2-.2-19.8-.2-1.6,0-3.1,0-4.6-.8-2.4-1.3-3-4-1.2-6.1.7-.8,1.5-1.4,2.3-2.1,17.2-12.6,34.4-25.1,51.5-37.9,3.3-2.4,6.7-3.5,10.5-3.8,1.7-.2,3.5,0,5-.9,1.6,1.1,3.5,1.3,5.4,1.7,12.3,2.5,20.1,10,23.7,21.9,1.6,5.2,1.7,10.5.6,15.8-.5,2.6-.3,5.1-.3,7.7-.2,3.3-.2,6.5-.5,9.8-.7,5.8-1.6,11.6-1.6,17.4,0,1.7,0,3.5-.2,5.1-.9,5.6-.8,11.3-.8,17-1.3,4.9-1,9.9-1.1,14.8,0,1,.2,2.1-.1,3.1-1.4,4.2-.8,8.5-.9,12.8,0,1.5.2,3.2-.3,4.6-.9,2.7-.7,5.4-.8,8.2,0,2.8.4,5.6-.3,8.2-.8,3.3-.7,6.5-.7,9.7,0,8.1-1,16.2-1.4,24.4-.2,5.2-.2,10.4-1,15.5-1.1,7.4-.1,14.9-1.7,22.2,0,.2,0,.3,0,.5.2,7.1-1,14.2-1.1,21.2,0,6.1-.7,12.1-1.9,18,0,.5-.2,1-.2,1.5.3,4-1.9,6.9-4.5,9.6-3.5,3.6-7.5,6.7-11.8,9.3-5.5,3.2-11.3,6-17.7,7.3-2.7.5-5.5.6-8.2.9-8.7,1.2-17.4,2.8-26.3,2.8-5.5,0-11,1-16.5,1.5-2.6.2-5.2.4-7.8.4-10.6,0-21.1,0-31.7,0-2.8,0-5.5-.7-8.1-1.5-4.4-1.4-6.8-4.9-7.6-9.2-.7-3.7-.6-7.6.8-11.3,1.1-2.7,2.7-4.9,5.6-5.7,2.9-.8,5.4-2.3,8-3.6,14.6-7.3,29.1-14.6,43.7-21.9,8-4.1,16-8.3,24-12.3,2.1-1.1,3-2.4,3-4.9-.2-6.2-.1-12.5-.1-18.7,0-25.8,0-51.7.1-77.5,0-2.4-.2-4.8-.3-7.3,0-.3,0-.5,0-.8Z"/>
        <path class="cls-9" d="M834.8,590.2c-3.3,3.1-6.5,6.2-9.8,9.3-10.4,9.9-20.8,19.9-31.2,29.8-13.5,12.9-27.1,25.8-40.7,38.7-3.1,3-6.5,5.7-9.7,8.6-.4-.3-.7-.7-1.2-1-17.4-9.9-34.8-20-52.3-29.7-14.9-8.2-28.9-17.7-43.1-27-.7-.5-1.3-1.2-1.9-1.8,1.7-4.2,4.7-7.6,7.4-11.2,3.8-5.1,8.1-9.9,11.9-15,3.7-5,8.4-9.2,12.1-14.2,3.7-5,7.7-9.8,12-14.3,2.3-2.4,4.4-4.9,6.4-7.5,4-5.5,9.3-9.8,13.4-15.1,1.3-1.6,2.8-3.2,4.4-4.4,3.5-2.6,6.4-5.8,9.5-8.8,6.1-5.9,12.7-11.2,19.3-16.5,3.8-3,7.8-5.7,11.7-8.6,3.7-2.8,7.3-5.8,11.1-8.5,1.6-1.1,3.1-2.2,5-2.6,2.4,1.8,4,4.2,5.6,6.7,13.1,19.9,26.2,39.8,39.3,59.7,3.5,5.3,7.2,10.6,10.8,15.8.6.8,1,1.9,2.1,2.1.3,2.5,1.3,4.6,2.6,6.7,1.8,2.9,4.1,5.6,5.3,8.9Z"/>
        <path class="cls-3" d="M644.9,617.1c.6.6,1.2,1.3,1.9,1.8,14.2,9.3,28.2,18.7,43.1,27,17.6,9.7,34.9,19.8,52.3,29.7.4.3.8.7,1.2,1-3.1,3.9-6.9,7.3-10.6,10.6-2.2,2-4.4,3.9-6.5,5.9-11.2,10.8-22.3,21.8-33.8,32.3-6.5,6-12.7,12.2-19.2,18.3-1.6,1.5-3.5,2.9-5.1,4.4-3,2.9-6.1,5.6-8.4,9.2-.4.7-1.2,1.2-1.8,1.8-1.7-.9-3.3-1.9-5-2.8-6.5-3.6-13.4-5.3-20.9-5-9.7.4-17.6,4.6-24.2,11.5-4,4.2-6.4,9.3-8.5,14.7-2.9,7.5-3.2,15.2-2.9,23,.2,5.8,1.5,11.3,3.3,16.7,2.7,8,7,15,12.1,21.6,6,7.7,13.9,12.5,23.7,13.4,10.9,1,21.7.1,32.3-3.3,3.3-1.1,6.4-2.5,9-5,3.4.7,6.2,2.5,9.2,4.1-1.2.6-2.4,1.3-3.7,1.7-12.4,4.1-24.9,8.1-37.8,10.6-8.4,1.6-16.8,1.2-25.3,1-1.9,0-3.8-.1-5.7-.2-1.4-1-3.1-1.3-4.8-1.9-2.3-.7-4.7-1.4-6.7-2.5-10-5.4-19.4-11.7-26.2-21.1-.4-.5-1-.9-1.6-1.3-.5-1.1-1-2.2-1.6-3.2-5.3-8.8-8-18.2-7.4-28.5.1-2.2.3-4.5-.5-6.7.6-6.9.3-13.9,1.3-20.8,2.3-11.7,5.1-23.3,9.1-34.6.4-1.1.4-2.4.7-3.5,1.1-1,1.4-2.3,1.9-3.6,4.4-12.3,9.8-24.1,15.7-35.7,12.1-24,26.1-46.9,41.7-68.8,2.1-3,4.2-5.9,6.3-8.9.9-1.3,1.8-2.6,3.4-3.1Z"/>
        <path class="cls-8" d="M564.7,796.2c.8,2.2.6,4.4.5,6.7-.6,10.3,2.1,19.7,7.4,28.5.6,1,1.1,2.1,1.6,3.2-12.2,7.3-24.4,14.6-36.5,22-6.2,3.8-12.5,7.5-18.6,11.4-5,3.2-10.2,4.2-15.9,2.7-.3,0-.7-.2-1-.3-.7-.8-1.5-1.4-2.7-.7-1-.2-2-.4-2.9-.6-.6-.9-1.2-1.1-2-.3-9.5-1.7-18.9-.9-28,2.3-9.3,3.2-17.4,8.5-24.2,15.4-6.5,6.7-13.4,12.9-21.1,18.2-.7.5-1.4,1-1.6,1.9-2.7-.2-3.7-2.6-5.2-4.3,0-1.2-.6-2-1.8-2.3-.8-1.3-1.7-2.5-2.5-3.8.1-1.2-.3-2.1-1.5-2.5-1.4-2.5-2.8-5.1-3.8-7.9-.3-3.1-1.2-6-2.9-8.6-.2-.6-.3-1.1-.5-1.7.7-1.5.5-2.7-.8-3.8-.1-.6-.3-1.2-.4-1.9,1-1.6.7-3-.5-4.4-.2-1.7-.3-3.3-.5-5,.9-3.6.9-5.7,0-9.3.3-4.2.7-8.4,1.6-12.6,1-.8,1-1.9.9-3.1.7-2.5,2-4.8,1.7-7.5.5-1.2.9-2.4,1.4-3.6.9-.5,1.3-1.4,1.3-2.4.4-1,1.2-2,.9-3.2,1.3-2.7,2.5-5.3,3.8-8,1.6-1,2.3-2.6,2.6-4.4,1.5-2.4,3-4.7,4.6-7.1,1.1-.3,1.7-1.1,1.7-2.3.5-.6.9-1.3,1.4-1.9,1.1-.3,1.7-1,1.8-2.2,4.1-4.9,8.7-9.5,13.6-13.6,1.2,0,1.9-.7,2.2-1.8,2-1.5,4.1-3,6.1-4.5,1.8-.2,2.8-1.2,2.9-3h.4c4.6-1.6,9.1-3.3,13.7-4.8,9.1-2.8,18.2-5.2,27.9-4.6,4,.2,8,0,12,0,1,0,2.1,0,3.1.1,4.9,1,9.8,1.8,14.6,3.1,7.7,2.2,15.1,4.9,21.8,9.4,8,5.3,15,11.6,20.2,19.8.9,1.3,1.7,2.6,3.4,2.9Z"/>
        <path class="cls-9" d="M502.3,870.4c.3,0,.7.2,1,.3,5.7,1.5,10.9.5,15.9-2.7,6.1-4,12.4-7.7,18.6-11.4,12.2-7.3,24.3-14.7,36.5-22,.5.4,1.2.8,1.6,1.3,6.8,9.4,16.1,15.7,26.2,21.1,2.1,1.1,4.5,1.7,6.7,2.5,1.6.5,3.3.9,4.8,1.9-6.9,6.8-13.9,13.5-20.6,20.5-10.6,11-19.6,23.2-28.4,35.7-4.8,6.8-9.7,13.5-13.7,20.8-1.4,2.6-2.7,5.2-4.2,7.7-1.7,3-3.4,6.1-5.5,8.8-4.3,5.6-10,8.9-17.3,9.1-5.7.1-11.4,0-16.9-1.8-8-2.5-16-1.8-24,.5-5.3,1.6-10.5,3.6-15.5,5.9-1.7.8-3.5,1.5-5.3,2-4.7,1.3-8.7-1-9.9-5.8-.5-2.2-.9-4.4-1.2-6.6-1.5-9.6-3.8-19-7.6-27.9-2.8-6.5-7-11.9-13-15.8-2.9-1.9-5.9-3.6-8.8-5.4-.9-.5-1.9-.9-2-2.2.2-.9.9-1.4,1.6-1.9,7.8-5.2,14.6-11.5,21.1-18.2,6.8-7,14.9-12.2,24.2-15.4,9.2-3.2,18.5-4,28-2.3.6,1,1.2,1.2,2,.3,1,.2,2,.4,2.9.6.7,1,1.5,1.4,2.7.7Z"/>
        <path class="cls-7" d="M964.6,814.3c1-.3,2-.4,3.1,0,2.7,1.2,5.4,2.3,8.1,3.5,3.5,1.5,7,2.9,10.5,4.5,5.5,2.5,11.2,4.7,16.5,7.7,7.1,4.1,12.1,10.3,14.8,18.1.4,1.1.3,2.4.4,3.6.5,7-.8,13.8-3.1,20.4-3.3,9.3-6.5,18.6-10,27.9-4.6,12.5-10,24.7-16.2,36.6-3,5.8-6.2,11.6-11.3,16.1-7.7,6.8-16.6,10.4-27,10-2.3,0-4.4-.8-6.5-1.6-1.3-.5-2.4-1.4-3.9-1.3-.9-1.1-1.7-2.1-2.6-3.2-2.4-2.9-3.9-6-3.8-9.9.2-3.6.5-7.2.8-10.8.5-5.1.6-10.3,1.2-15.5.5-4.3.4-8.6.9-12.9.7-5.4.3-11,1.2-16.5.5-3.5-.4-7.3,1-10.8.2-.4.2-1.1,0-1.5-1-1.9,0-3.7.2-5.5,1.4-1.1,1.9-2.9,2.5-4.4,7.2-16.5,14.4-33,21.6-49.5.7-1.6,1.5-3.1,1.6-4.9Z"/>
        <path class="cls-10" d="M739.9,858.6c2.8.8,5.8.7,8.7,1.2,7,1.3,14.1.3,21.1,1.7.3,0,.7,0,1,0,9.3-.3,18.6,1.3,27.9,1.3,0,.3,0,.5,0,.8,0,.2,0,.3,0,.5-.5,8.5-.9,16.9-1.4,25.4-.3,5.4-.6,10.7-1.1,16-.4,5.2-2.3,10.1-4.5,14.8-.6,1.4-1.9,2.4-3,3.6-4.6,5.1-10,8.6-16.6,11-7.5,2.6-15,3.8-22.7,4.8-3.3.4-6.5.9-9.8,1.4-1.7.2-3.4.5-5.1.6-6.7.4-13.5.4-20.2,1.2-14.3,1.7-28.7.9-43.1,1-3.7,0-7.2-.8-10.5-2.3-3.6-1.7-5.4-4.8-5.8-8.6-.3-2.6-.2-5.2,0-7.8.2-3.9,2.1-7.1,5.8-8.5,4.4-1.6,8.4-4.1,12.6-6.2,13.6-6.8,27.2-13.7,40.9-20.6,7.1-3.6,14.2-7.2,21.3-10.7.9-.5,1.8-1,2.8-1.4,1.4-.7,2-1.8,1.9-3.3-.1-5-.2-10-.3-15.1.1-.2.2-.5.1-.8Z"/>
        <path class="cls-2" d="M938.8,873.1c-.2,1.8-1.2,3.6-.2,5.5.2.4.2,1.1,0,1.5-1.4,3.5-.4,7.2-1,10.8-.8,5.5-.5,11.1-1.2,16.5-.5,4.3-.4,8.6-.9,12.9-.6,5.2-.6,10.3-1.2,15.5-.4,3.6-.7,7.2-.8,10.8-.2,3.9,1.3,7,3.8,9.9.9,1.1,1.8,2.1,2.6,3.2-4.1,4.8-9.2,7.7-15.6,8.2-5.7.4-10-2-13.2-6.6-1.1-1.6-2-3.2-2.9-4.9-8.5-15.2-17-30.4-25.5-45.6-1.6-2.8-3.3-5.7-6.3-7.4,0-3.3,0-6.5.7-9.7.6-2.6.2-5.5.3-8.2,0-2.7-.1-5.5.8-8.2.5-1.4.2-3.1.3-4.6.1-4.3-.4-8.6.9-12.8.3-.9,0-2.1.1-3.1,0-5-.3-10,1.1-14.8.7,0,1.4,0,2.1,0,4.1-.6,8.2-1.2,12.3-1.8,3.6-.5,7.2-.3,10.8-1.2,1.3-.3,2.8-.1,4.1.1,2.7.5,5.4,1,8,2,5.1,1.8,9.6,4.5,12.6,9.4,3,4.8,4.9,9.9,6.3,15.2.7,2.5,1.4,5,2.1,7.5Z"/>
        <path class="cls-4" d="M938.8,873.1c-.7-2.5-1.4-5-2.1-7.5-1.5-5.3-3.4-10.5-6.3-15.2-3-4.9-7.5-7.5-12.6-9.4-2.6-.9-5.3-1.4-8-2-1.3-.3-2.8-.4-4.1-.1-3.6.8-7.2.7-10.8,1.2-4.1.5-8.2,1.2-12.3,1.8-.7,0-1.4,0-2.1,0,0-5.7,0-11.3.8-17,.3-1.7.2-3.4.2-5.1,0-5.9,1-11.6,1.6-17.4.4-3.2.4-6.5.5-9.8,6.7,1.7,13.4,3.4,20.1,5.2,20.2,5.5,40.4,11,60.7,16.5-.1,1.8-.9,3.3-1.6,4.9-7.2,16.5-14.4,33-21.6,49.5-.7,1.6-1.1,3.3-2.5,4.4Z"/>
        <path class="cls-8" d="M575.9,737.2c-.2,1.2-.3,2.4-.7,3.5-4,11.3-6.8,22.9-9.1,34.6-2-1.7-3.6-3.7-5.2-5.7-3.1-3.7-6.5-7.2-10.2-10.3-4-3.5-8.5-6.4-12.6-9.8-7.5-6.1-16.2-9.8-25.4-12.3-3.5-1-7.3.2-10.7-1.3-.3-.1-.7,0-1,0-3.9,1.4-7.9.8-11.8.8-3.9,0-7.5.8-11.2,1.7-8,2.1-15.9,4.6-23.4,8-1.3.6-2.6.8-4,.4,0-1,.3-2.1-.2-3.1.2-.6.3-1.2.5-1.9,1-.9,1.2-2,.9-3.2,2.3-5.6,6.4-9.8,10.9-13.5,6.9-5.7,14.8-9.1,23.5-11.4,5.9-1.6,11.8-2.3,17.8-2.4,2.9.4,5.7.6,8.6,0,2.3.2,4.7.4,7,.6.6.7,1.4.9,2.3.5,1.3.2,2.6.3,3.9.5.4.5.8.6,1.3.3,1.3.2,2.6.5,3.8.7.3.5.7.7,1.3.5.6.1,1.2.3,1.9.4.3.5.7.7,1.3.5.6.2,1.2.3,1.9.5.3.5.7.7,1.3.5.6.2,1.2.4,1.8.6.3.5.7.8,1.3.6,8.1,2.8,15.8,6.6,23.1,11.2,2.3,1.4,4.5,3.2,6.7,4.8,1.5,1.1,2.7,2.7,4.6,3.3Z"/>
        <path class="cls-5" d="M450.5,747c1.4.3,2.7.2,4-.4,7.6-3.4,15.4-5.9,23.4-8,3.6-.9,7.3-1.7,11.2-1.7,3.9,0,8,.7,11.8-.8.3-.1.7-.2,1,0,3.5,1.4,7.3.3,10.7,1.3,9.2,2.6,17.9,6.3,25.4,12.3,4.1,3.4,8.6,6.3,12.6,9.8,3.6,3.2,7,6.7,10.2,10.3,1.7,2,3.3,4,5.2,5.7-1,6.9-.8,13.9-1.3,20.8-1.7-.3-2.6-1.6-3.4-2.9-5.2-8.1-12.2-14.5-20.2-19.8-6.7-4.4-14.2-7.2-21.8-9.4-4.8-1.4-9.7-2.2-14.6-3.1-1-.2-2.1-.1-3.1-.1-4,0-8,.2-12,0-9.7-.6-18.8,1.8-27.9,4.6-4.6,1.4-9.1,3.2-13.7,4.8-.3-2.9,1-5.7.2-8.5.5-4.7,1.1-9.3,1.6-14,.2-.2.5-.5.7-.7Z"/>
        <path class="cls-7" d="M676.9,844c-2.5,2.5-5.6,3.9-9,5-10.5,3.4-21.4,4.3-32.3,3.3-9.8-.9-17.7-5.6-23.7-13.4-5.1-6.6-9.5-13.6-12.1-21.6-1.8-5.4-3.1-10.9-3.3-16.7-.2-7.8,0-15.5,2.9-23,2.1-5.4,4.6-10.5,8.5-14.7,6.5-6.9,14.4-11.1,24.2-11.5,7.5-.3,14.4,1.4,20.9,5,1.7.9,3.3,1.9,5,2.8,0,1.1-.2,2-.8,2.9-4.6,7.5-6.9,15.7-7.7,24.5-1.6,17.1,3.4,32,14.2,45.2,3.3,4.1,7.2,7.4,11.4,10.5.7.5,1.3,1.1,1.9,1.7Z"/>
        <path class="cls-6" d="M834.8,590.2c-1.2-3.3-3.4-6-5.3-8.9-1.3-2.1-2.4-4.2-2.6-6.7,7.8-3.1,15.7-6.3,23.5-9.5,9.6-3.9,19.1-7.8,28.7-11.7.9-.4,2-.6,3-.7.8-.1,1.8,0,2.3.9.5.9.2,1.7-.4,2.4-.8.9-1.7,1.8-2.6,2.5-6.6,4.9-13.3,9.8-20,14.7-6.4,4.7-12.7,9.4-19.1,14.1-2.2,1.6-4.3,3.6-7.5,2.9Z"/>
      </g>
    </g>
  </g>
</svg>