<svg width="500" height="500" viewBox="0 0 500 500" fill="none" xmlns="http://www.w3.org/2000/svg">
<path d="M372.172 200.618C372.212 199.981 372.327 199.334 372.279 198.701C371.721 191.705 370.817 184.77 368.617 178.066C368.161 176.68 367.736 175.285 367.284 173.899C366.469 171.389 365.212 169.077 364.056 166.717C363.746 166.088 363.467 165.451 363.197 164.808C362.537 163.241 361.594 161.82 360.58 160.473C355.456 153.681 349.138 148.194 341.969 143.664C340.742 142.889 339.484 142.172 338.24 141.424C337.771 141.986 337.182 141.796 336.624 141.658C334.702 141.185 332.771 140.751 330.876 140.193C328.029 139.351 325.133 138.754 322.202 138.302C320.138 137.983 318.03 137.934 316.024 137.27C315.918 137.235 315.794 137.248 315.679 137.23C313.27 136.858 310.857 136.518 308.452 136.101C305.822 135.645 303.205 135.118 300.566 134.72C297.356 134.233 294.163 133.599 290.966 133.033C288.965 132.678 286.963 132.342 284.966 131.97C283.195 131.642 281.437 131.261 279.666 130.929C277.841 130.588 276.012 130.274 274.184 129.951C272.696 129.685 271.208 129.424 269.725 129.162C268.011 128.861 266.293 128.578 264.579 128.268C263.038 127.993 261.497 127.688 259.956 127.413C257.499 126.979 255.037 126.568 252.579 126.138C251.091 125.877 249.612 125.571 248.124 125.319C245.72 124.907 243.311 124.54 240.911 124.119C238.626 123.72 236.346 123.273 234.065 122.857C232.241 122.525 230.408 122.21 228.583 121.874C227.268 121.63 225.962 121.347 224.647 121.112C222.362 120.705 220.068 120.342 217.783 119.921C215.671 119.531 213.572 119.066 211.46 118.677C208.604 118.154 205.726 117.756 202.887 117.149C198.911 116.299 194.956 115.32 191.002 114.368C190.329 114.204 189.674 113.925 189.045 113.633C188.62 113.434 188.257 113.084 188.177 112.593C188.075 111.959 188.044 111.313 188.266 110.689C188.651 109.59 189.607 109.041 190.745 109.272C191.999 109.524 193.243 109.816 194.496 110.055C196.661 110.472 198.831 110.875 201.005 111.26C202.834 111.587 204.667 111.88 206.496 112.19C208.157 112.469 209.817 112.748 211.478 113.031C213.138 113.31 214.794 113.593 216.455 113.872C218.226 114.173 220.002 114.475 221.773 114.78C223.602 115.094 225.43 115.409 227.259 115.728C229.433 116.104 231.599 116.551 233.782 116.848C235.624 117.096 237.466 117.388 239.29 117.698C241.748 118.119 244.21 118.54 246.663 118.991C248.833 119.39 251.034 119.624 253.186 120.098C256.25 120.78 259.372 121.126 262.44 121.768C264.371 122.171 266.324 122.472 268.268 122.813C269.64 123.056 271.013 123.295 272.386 123.534C274.843 123.959 277.305 124.385 279.763 124.801C281.424 125.084 283.08 125.372 284.745 125.633C286.635 125.93 288.535 126.178 290.426 126.492C291.971 126.754 293.503 127.099 295.044 127.378C297.9 127.892 300.783 128.295 303.617 128.91C307.819 129.822 312.057 130.513 316.295 131.186C316.565 131.23 316.861 131.102 317.149 131.053C316.804 130.606 316.268 130.495 315.79 130.292C305.986 126.147 295.979 122.569 285.825 119.394C274.671 115.905 263.384 112.898 252.026 110.153C248.846 109.387 245.724 108.386 242.541 107.642C232.98 105.415 223.58 102.585 214.055 100.247C211.172 99.5387 208.267 98.8346 205.238 98.9674C200.753 99.1623 196.608 100.42 192.875 102.917C189.895 104.91 187.562 107.469 186.344 110.928C186.074 111.689 185.963 111.738 185.201 111.716C183.975 111.68 182.748 111.605 181.522 111.592C179.458 111.565 177.461 111.915 175.5 112.579C173.272 113.328 171.111 114.187 169.198 115.582C168.915 115.79 168.614 115.976 168.299 116.122C165.368 117.468 163.043 119.593 160.909 121.94C157.42 125.779 155.046 130.225 153.935 135.309C153.164 138.825 153.151 142.38 153.554 145.945C154.236 145.887 154.723 145.449 155.223 145.055C156.472 144.076 157.885 143.377 159.297 142.681C160.373 142.15 161.427 142.163 162.468 142.77C162.671 142.885 162.88 142.991 163.074 143.12C166.59 145.418 170.115 147.694 173.409 150.32C176.509 152.791 179.702 155.151 182.85 157.56C185.401 159.508 188.035 161.337 190.444 163.467C192.366 165.167 194.394 166.748 196.311 168.453C198.835 170.702 201.439 172.876 203.551 175.555C205.053 177.455 206.381 179.421 206.474 181.963C206.487 182.321 206.784 182.49 207.081 182.29C208.148 181.582 209.312 181.383 210.574 181.369C212.284 181.356 213.944 181.622 215.6 181.963C218.691 182.6 221.702 183.548 224.647 184.668C227.702 185.833 230.7 187.135 233.512 188.822C235.022 189.73 236.394 190.801 237.621 192.068C238.546 193.02 238.941 194.105 238.635 195.42C238.582 195.646 238.56 195.88 238.52 196.111C243.803 198.156 249.09 200.198 254.368 202.243C264.061 206.003 273.732 209.815 283.518 213.314C286.002 214.204 288.345 215.381 290.696 216.555C291.63 217.02 292.286 217.715 292.697 218.663C293.255 219.947 293.804 221.24 294.415 222.502C295.208 224.131 295.89 225.805 296.519 227.501C297.329 229.693 298.179 231.867 299.007 234.05C299.233 233.993 299.477 233.975 299.676 233.869C301.647 232.85 303.608 231.818 305.57 230.782C308.045 229.472 310.436 228.002 312.991 226.846C314.16 226.319 315.338 225.805 316.481 225.221C326.098 220.297 335.96 215.922 345.936 211.786C350.625 209.842 355.266 207.783 359.951 205.839C364.043 204.139 368.019 202.159 372.177 200.614L372.172 200.618Z" fill="#686D65"/>
<path d="M238.506 196.118C238.542 195.887 238.568 195.653 238.622 195.427C238.932 194.112 238.537 193.027 237.608 192.075C236.377 190.808 235.008 189.737 233.498 188.829C230.682 187.142 227.684 185.836 224.633 184.676C221.689 183.555 218.682 182.608 215.587 181.97C213.931 181.629 212.27 181.359 210.561 181.377C209.299 181.386 208.13 181.585 207.067 182.298C206.77 182.493 206.474 182.329 206.46 181.97C206.363 179.428 205.035 177.467 203.538 175.563C201.426 172.888 198.826 170.709 196.298 168.46C194.381 166.755 192.357 165.174 190.431 163.474C188.022 161.344 185.383 159.515 182.837 157.567C179.684 155.158 176.496 152.798 173.396 150.327C170.102 147.701 166.577 145.425 163.061 143.127C162.866 142.999 162.654 142.897 162.454 142.777C161.414 142.175 160.36 142.162 159.284 142.689C157.867 143.384 156.459 144.083 155.21 145.062C154.71 145.456 154.223 145.89 153.541 145.952C153.235 146.39 152.85 146.745 152.398 147.024C151.597 147.524 151.003 148.264 150.335 148.914C149.772 149.464 149.493 150.185 149.285 150.912C148.665 153.068 148.873 155.193 149.777 157.226C150.769 159.467 151.809 161.689 152.885 163.895C154.245 166.68 155.613 169.456 157.061 172.193C158.943 175.753 160.882 179.287 162.848 182.803C164.757 186.217 166.736 189.591 168.662 192.996C169.588 194.63 170.699 196.096 172.006 197.459C174.632 200.196 177.08 203.083 179.312 206.165C181.535 209.234 183.93 212.178 186.26 215.172C188.483 218.023 190.723 220.866 192.964 223.705C195.058 226.361 197.166 229.005 199.269 231.657C201.297 234.217 203.325 236.776 205.358 239.336C207.39 241.895 209.427 244.45 211.455 247.01C213.559 249.662 215.644 252.323 217.757 254.967C219.833 257.566 221.932 260.143 224.013 262.738C226.095 265.333 228.158 267.937 230.244 270.527C231.523 272.121 232.821 273.693 234.105 275.283C234.543 275.828 235.022 276.359 235.363 276.966C237.222 280.291 239.587 283.267 241.761 286.371C243.833 289.338 245.994 292.242 248.084 295.191C250.582 298.716 253.053 302.259 255.532 305.797C255.834 306.226 256.117 306.673 256.4 307.112C256.573 307.382 256.502 307.674 256.445 307.962C257.273 308.073 257.525 308.808 257.884 309.37C260.098 312.855 262.214 316.398 264.654 319.736C266.851 322.734 268.989 325.776 271.181 328.783C274.223 332.963 277.301 337.116 280.343 341.292C281.676 343.121 282.964 344.99 284.293 346.823C285.998 349.174 287.729 351.508 289.434 353.855C290.868 355.825 292.299 357.804 293.716 359.788C295.031 361.63 296.342 363.481 297.639 365.341C299.866 368.538 302.08 371.74 304.299 374.941C304.6 375.375 304.883 375.813 304.919 376.363C305.512 376.664 305.95 377.155 306.305 377.678C307.412 379.312 308.962 380.481 310.502 381.61C315.289 385.108 320.674 387.233 326.483 388.358C329.946 389.031 333.44 389.261 336.929 388.996C341.269 388.664 345.449 387.641 349.146 385.17C349.965 384.621 350.767 384.036 351.573 383.47C351.728 383.191 351.967 383.062 352.286 383.075L352.264 383.093C352.25 382.482 352.733 382.181 353.092 381.818C354.358 380.525 355.616 379.232 356.723 377.788C359.681 373.918 362.116 369.756 363.914 365.221C365.512 361.192 366.575 357.043 367.111 352.73C367.443 350.038 367.39 347.359 367.231 344.693C367.053 341.664 366.323 338.702 365.238 335.854C364.268 333.304 362.878 331.028 360.704 329.319C357.865 327.087 354.628 325.635 351.201 324.589C350.258 324.302 349.279 324.125 348.27 324.142C346.87 324.169 345.467 324.142 344.067 324.142C342.712 324.142 341.397 324.39 340.113 324.793C337.106 325.741 334.166 326.87 331.292 328.167C330.017 328.743 328.782 329.412 327.511 330.001C326.869 330.297 326.545 330.204 326.134 329.673C324.486 327.561 322.817 325.457 321.21 323.314C318.655 319.909 315.922 316.645 313.243 313.338C311.114 310.712 308.975 308.095 306.854 305.46C304.148 302.099 301.456 298.73 298.768 295.355C298.299 294.766 297.763 294.213 297.559 293.451C297.329 293.279 297.059 293.141 296.877 292.924C295.974 291.853 295.088 290.772 294.212 289.683C291.909 286.827 289.606 283.962 287.308 281.101C285.262 278.555 283.212 276.018 281.184 273.463C279.227 270.996 277.296 268.512 275.361 266.033C273.032 263.048 270.703 260.059 268.387 257.061C267.174 255.494 266.071 253.833 264.774 252.341C262.4 249.613 259.925 246.974 257.472 244.317C255.891 242.604 254.257 240.939 252.676 239.216C249.758 236.032 246.712 232.968 243.732 229.842C241.96 227.987 240.14 226.176 238.418 224.267C236.155 221.752 233.711 219.401 231.43 216.899C229.659 214.959 227.715 213.179 225.891 211.288C223.013 208.308 220.17 205.293 217.314 202.286C217.194 202.158 217.092 202.016 216.977 201.883C215.706 200.435 214.493 198.938 213.156 197.557C210.92 195.245 208.905 192.757 206.917 190.237C205.646 188.625 205.393 186.885 206.097 184.981C206.128 184.893 206.243 184.795 206.336 184.777C206.425 184.76 206.589 184.813 206.629 184.888C207.072 185.725 207.634 186.473 208.387 187.045C209.312 187.753 210.242 188.47 211.238 189.068C213.647 190.503 216.154 191.774 218.753 192.806C222.982 194.479 227.25 196.034 231.802 196.649C233.618 196.893 235.398 197.039 237.143 196.357C237.594 196.18 238.05 196.158 238.511 196.118H238.506Z" fill="#F5BA92"/>
<path d="M217.642 395.386C218.182 395.603 218.727 395.807 219.258 396.037C221.561 397.038 223.921 397.87 226.396 398.353C228.292 398.725 230.213 398.765 232.135 398.827C236.829 398.982 241.443 398.331 246.017 397.339C250.578 396.352 255.095 395.2 259.448 393.469C260.528 393.039 261.666 392.756 262.755 392.344C270.181 389.537 276.66 385.281 282.208 379.605C283.678 378.099 285.006 376.474 286.171 374.72C286.756 373.844 287.274 372.936 287.57 371.917C287.46 371.404 287.291 370.943 286.928 370.514C284.608 367.742 282.367 364.903 280.264 361.954C278.4 359.342 276.518 356.742 274.64 354.139C274.229 353.568 274.069 353.554 273.56 354.046C273.223 354.369 272.913 354.719 272.568 355.033C270.203 357.194 267.431 358.239 264.226 357.88C261.369 357.557 259.372 356.025 258.318 353.333C257.792 351.991 257.787 350.601 258.053 349.197C258.208 348.373 258.19 348.356 257.433 348.032C257.22 347.939 256.999 347.864 256.782 347.78C251.951 345.88 247.12 343.981 242.289 342.077C240.934 341.541 239.592 340.961 238.228 340.452C237.44 340.155 236.962 339.654 236.802 338.835C236.758 338.605 236.67 338.388 236.616 338.162C235.093 331.631 233.557 325.104 232.056 318.568C231.715 317.093 231.498 315.588 231.223 314.1C230.302 313.724 229.301 314.065 228.371 313.781C228.053 313.839 227.734 313.892 227.415 313.95C227.216 314.197 226.99 314.29 226.711 314.069C226.525 314.122 226.339 314.171 226.153 314.224C225.892 314.503 225.586 314.609 225.219 314.445C225.015 314.512 224.816 314.583 224.612 314.649C224.081 315.101 223.452 315.247 222.774 315.238C221.911 315.588 221.047 315.942 220.184 316.292C219.763 316.775 219.236 317.04 218.594 317.08C218.058 317.372 217.518 317.669 216.982 317.961C216.827 318.333 216.544 318.506 216.145 318.493C215.366 319.006 214.582 319.52 213.803 320.034C213.675 320.419 213.409 320.614 213.002 320.618C211.505 321.814 210.008 323.009 208.511 324.205C208.427 324.608 208.184 324.829 207.772 324.874C205.784 326.751 203.897 328.726 202.139 330.82C202.113 331.228 201.9 331.485 201.506 331.587C200.142 333.402 198.779 335.218 197.614 337.175C195.347 340.983 193.996 345.11 193.381 349.485C192.553 355.396 192.991 361.224 194.559 366.976C194.709 367.534 194.966 368.078 194.709 368.672C194.993 368.738 195.294 368.778 195.427 369.088C195.679 369.677 195.922 370.266 196.166 370.859C197.096 373.122 198.234 375.278 199.421 377.413C200.271 378.94 201.365 380.295 202.325 381.748C203.61 383.692 205.204 385.388 206.74 387.115C208.441 389.032 210.575 390.48 212.537 392.105C213.285 392.725 214.078 393.323 214.985 393.757C215.92 394.208 216.77 394.837 217.655 395.386H217.642Z" fill="#884100"/>
<path d="M297.551 293.454C297.754 294.215 298.286 294.769 298.76 295.358C301.447 298.732 304.14 302.102 306.845 305.463C308.966 308.097 311.105 310.714 313.235 313.34C315.914 316.648 318.646 319.907 321.201 323.317C322.809 325.46 324.478 327.563 326.125 329.675C326.537 330.207 326.86 330.3 327.502 330.003C328.773 329.41 330.009 328.745 331.284 328.17C334.158 326.872 337.098 325.743 340.105 324.796C341.389 324.393 342.704 324.145 344.059 324.145C345.463 324.145 346.862 324.171 348.261 324.145C349.271 324.127 350.249 324.304 351.192 324.592C354.62 325.637 357.857 327.094 360.695 329.321C362.874 331.03 364.26 333.306 365.229 335.857C366.314 338.709 367.045 341.667 367.222 344.695C367.377 347.361 367.435 350.04 367.103 352.732C366.567 357.05 365.504 361.194 363.905 365.224C362.103 369.758 359.672 373.916 356.714 377.791C355.612 379.234 354.35 380.527 353.083 381.82C352.725 382.188 352.242 382.485 352.255 383.096C352.37 383.078 352.499 383.096 352.596 383.043C354.978 381.812 357.418 380.674 359.725 379.319C362.865 377.481 365.566 375.103 367.922 372.3C369.472 370.454 370.787 368.465 372.053 366.442C373.01 364.91 373.483 363.125 373.97 361.385C374.599 359.14 375.144 356.873 375.693 354.605C376.078 353.02 376.326 351.408 376.503 349.783C376.729 347.698 377.039 345.625 377.318 343.544C377.606 341.41 377.911 339.275 378.177 337.137C379.125 329.467 379.089 321.767 378.877 314.062C378.806 311.445 378.5 308.832 378.301 306.215C378.283 305.981 378.261 305.751 378.257 305.516C378.12 301.725 377.996 297.935 377.849 294.149C377.721 290.77 377.663 287.383 377.407 284.009C377.261 282.087 377.238 280.161 377.092 278.243C376.875 275.396 376.587 272.553 376.331 269.715C375.237 269.848 374.134 269.896 373.036 270.065C370.627 270.437 368.179 270.561 365.761 270.915C364.313 271.127 362.86 271.154 361.412 271.296C359.619 271.473 357.835 271.712 356.037 271.876C354.124 272.048 352.198 272.088 350.294 272.336C349.018 272.5 347.743 272.562 346.468 272.682C344.674 272.854 342.89 273.107 341.092 273.266C339.122 273.443 337.138 273.505 335.172 273.713C333.666 273.873 332.138 273.895 330.655 274.13C328.866 274.413 327.059 274.382 325.271 274.639C323.145 274.944 320.98 274.962 318.828 275.108C318.655 275.122 318.478 275.135 318.305 275.153C316.282 275.347 314.258 275.635 312.23 275.719C309.728 275.821 307.244 276.237 304.733 276.175C304.335 276.167 303.932 276.326 303.529 276.357C302.369 276.446 301.2 276.596 300.093 276.051C299.787 278.766 299.539 281.489 299.167 284.199C298.791 286.962 298.29 289.712 297.856 292.466C297.803 292.816 297.741 293.153 297.533 293.449L297.551 293.454Z" fill="#8A89DE"/>
<path d="M300.11 276.058C301.217 276.603 302.387 276.452 303.547 276.364C303.95 276.333 304.353 276.173 304.751 276.182C307.262 276.24 309.746 275.828 312.248 275.726C314.276 275.642 316.3 275.359 318.323 275.159C318.496 275.142 318.673 275.124 318.846 275.115C320.993 274.973 323.163 274.956 325.289 274.646C327.077 274.389 328.884 274.415 330.673 274.137C332.156 273.902 333.684 273.88 335.19 273.72C337.156 273.512 339.14 273.45 341.11 273.273C342.903 273.114 344.692 272.861 346.486 272.689C347.761 272.569 349.036 272.507 350.312 272.343C352.211 272.095 354.142 272.06 356.055 271.883C357.848 271.719 359.637 271.484 361.43 271.303C362.878 271.156 364.331 271.13 365.779 270.922C368.192 270.567 370.641 270.443 373.054 270.072C374.152 269.903 375.255 269.855 376.349 269.722C376.49 268.615 376.495 267.521 376.26 266.414C376.141 265.852 376.176 265.254 376.154 264.669C376.083 262.982 376.163 261.291 375.853 259.608C375.676 258.643 375.782 257.629 375.751 256.632C375.64 253.134 375.454 249.636 375.33 246.138C375.268 244.398 375.277 242.622 375.007 240.908C374.631 238.53 374.971 236.117 374.445 233.761C374.418 233.651 374.418 233.527 374.422 233.411C374.52 230.547 373.94 227.713 373.997 224.848C373.47 222.496 373.9 220.065 373.395 217.71C373.373 217.594 373.364 217.475 373.369 217.36C373.462 214.61 373.081 211.882 372.89 209.15C372.691 206.307 372.762 203.433 372.191 200.617C368.033 202.167 364.056 204.142 359.965 205.842C355.28 207.791 350.639 209.85 345.95 211.789C335.973 215.925 326.108 220.296 316.494 225.224C315.352 225.809 314.174 226.322 313.005 226.849C310.446 228.005 308.059 229.479 305.584 230.786C303.622 231.822 301.66 232.854 299.69 233.872C299.491 233.974 299.243 233.996 299.021 234.054C298.888 235.577 299.229 237.078 299.269 238.588C299.34 241.276 299.42 243.964 299.349 246.651C299.167 253.896 299.708 261.127 299.69 268.367C299.681 270.939 300.026 273.486 300.133 276.049L300.11 276.058Z" fill="#F5BA92"/>
<path d="M231.214 314.092C231.488 315.584 231.71 317.086 232.046 318.56C233.547 325.096 235.08 331.623 236.607 338.154C236.66 338.38 236.749 338.602 236.793 338.827C236.953 339.647 237.435 340.147 238.219 340.444C239.583 340.953 240.925 341.533 242.28 342.069C247.111 343.973 251.942 345.872 256.773 347.772C256.99 347.856 257.211 347.936 257.424 348.025C258.181 348.348 258.199 348.365 258.044 349.189C257.778 350.593 257.787 351.983 258.309 353.325C259.363 356.017 261.365 357.549 264.216 357.873C267.422 358.236 270.194 357.191 272.559 355.025C272.904 354.711 273.214 354.361 273.551 354.038C274.06 353.546 274.224 353.56 274.631 354.131C276.509 356.735 278.391 359.334 280.255 361.946C282.354 364.895 284.594 367.734 286.919 370.506C287.278 370.935 287.446 371.396 287.561 371.91C287.791 371.927 288.044 371.892 288.243 371.976C291.139 373.18 294.225 373.716 297.219 374.58C297.542 374.673 297.905 374.637 298.25 374.664C298.246 374.292 298.051 374.013 297.848 373.721C296.683 372.051 295.532 370.377 294.385 368.695C292.388 365.763 290.4 362.828 288.402 359.892C286.312 356.814 284.227 353.732 282.123 350.659C280.25 347.923 278.47 345.129 276.54 342.432C274.441 339.5 272.484 336.472 270.46 333.487C267.98 329.825 265.496 326.172 263.03 322.506C260.107 318.162 257.136 313.853 254.382 309.398C253.044 309.974 251.906 310.891 250.649 311.608C249.891 312.038 249.13 312.472 248.43 312.985C247.009 314.026 245.428 314.185 243.781 313.875C243.032 313.734 242.289 313.672 241.531 313.654C238.104 313.574 234.672 313.543 231.245 313.725C231.232 313.844 231.218 313.964 231.205 314.083L231.214 314.092Z" fill="#FFB68A"/>
<path d="M190.524 370.289C190.028 370.448 189.514 370.581 189.032 370.776C180.348 374.288 172.023 378.485 164.195 383.644C161.803 385.221 159.519 386.939 157.34 388.798C156.18 389.79 155.099 390.862 154.227 392.111C153.209 393.563 152.469 395.135 152.376 396.95C152.265 399.103 153.297 400.821 155.268 401.706C156.556 402.282 157.924 402.587 159.315 402.778C160.763 402.973 162.206 403.176 163.654 403.336C164.757 403.46 165.864 403.606 166.971 403.593C169.486 403.562 171.988 403.818 174.494 403.907C176.478 403.978 178.457 404.133 180.446 404.168C185.06 404.244 189.669 404.487 194.283 404.399C197.445 404.337 200.571 403.96 203.675 403.389C204.711 403.199 205.721 402.884 206.673 402.441C209.109 401.303 211.398 399.922 213.532 398.283C211.114 397.562 208.905 396.406 206.784 395.064C204.769 393.789 202.94 392.283 201.098 390.764C199.097 389.113 197.458 387.204 195.926 385.159C194.731 383.56 193.92 381.753 193.048 379.982C191.542 376.931 190.67 373.708 190.52 370.298L190.524 370.289Z" fill="#894100"/>
<path d="M317.132 131.062C316.848 131.111 316.547 131.235 316.277 131.195C312.035 130.522 307.797 129.831 303.6 128.919C300.766 128.303 297.883 127.9 295.027 127.387C293.486 127.108 291.954 126.762 290.408 126.501C288.522 126.182 286.618 125.939 284.727 125.642C283.067 125.381 281.406 125.093 279.746 124.81C277.288 124.389 274.826 123.968 272.368 123.543C270.996 123.304 269.623 123.065 268.25 122.821C266.306 122.476 264.354 122.179 262.423 121.776C259.354 121.134 256.232 120.789 253.168 120.107C251.021 119.629 248.815 119.394 246.646 119C244.193 118.548 241.73 118.128 239.273 117.707C237.449 117.397 235.606 117.105 233.764 116.857C231.581 116.56 229.416 116.117 227.242 115.736C225.413 115.418 223.584 115.103 221.755 114.789C219.984 114.483 218.209 114.182 216.437 113.881C214.777 113.598 213.121 113.319 211.46 113.04C209.8 112.761 208.139 112.477 206.479 112.198C204.65 111.888 202.817 111.596 200.988 111.269C198.818 110.883 196.648 110.48 194.479 110.064C193.225 109.825 191.981 109.533 190.728 109.28C189.59 109.05 188.633 109.599 188.248 110.697C188.027 111.322 188.058 111.968 188.16 112.601C188.239 113.093 188.602 113.443 189.028 113.642C189.661 113.934 190.312 114.213 190.985 114.377C194.939 115.329 198.889 116.308 202.87 117.158C205.708 117.764 208.586 118.159 211.442 118.686C213.555 119.075 215.654 119.54 217.766 119.93C220.051 120.35 222.344 120.714 224.629 121.121C225.944 121.356 227.251 121.639 228.566 121.883C230.39 122.219 232.223 122.534 234.048 122.866C236.333 123.282 238.609 123.729 240.894 124.128C243.294 124.548 245.707 124.916 248.107 125.328C249.595 125.58 251.074 125.886 252.562 126.147C255.019 126.581 257.481 126.993 259.939 127.422C261.484 127.697 263.021 128.002 264.562 128.277C266.275 128.582 267.993 128.87 269.707 129.171C271.195 129.432 272.683 129.694 274.166 129.959C275.995 130.283 277.824 130.597 279.648 130.938C281.419 131.27 283.177 131.647 284.948 131.979C286.946 132.351 288.947 132.687 290.949 133.041C294.15 133.608 297.338 134.241 300.549 134.728C303.192 135.127 305.805 135.654 308.435 136.11C310.835 136.526 313.253 136.867 315.662 137.239C315.777 137.257 315.901 137.239 316.007 137.279C318.013 137.943 320.121 137.992 322.184 138.311C325.116 138.762 328.012 139.36 330.859 140.202C332.754 140.764 334.685 141.198 336.606 141.667C337.164 141.805 337.753 141.995 338.223 141.433C337.067 140.759 335.929 140.06 334.751 139.418C332.037 137.943 329.344 136.424 326.572 135.069C323.858 133.745 321.055 132.599 318.287 131.39C317.92 131.23 317.508 131.168 317.118 131.062H317.132Z" fill="#494A45"/>
<path d="M254.39 309.407C257.145 313.861 260.12 318.17 263.038 322.514C265.505 326.18 267.993 329.834 270.469 333.496C272.488 336.48 274.449 339.509 276.548 342.44C278.479 345.137 280.259 347.935 282.132 350.668C284.236 353.736 286.321 356.823 288.411 359.9C290.404 362.832 292.392 365.772 294.393 368.703C295.54 370.386 296.692 372.06 297.856 373.729C298.06 374.021 298.255 374.3 298.259 374.672C299.725 375.376 301.328 375.611 302.873 376.036C303.533 376.218 304.228 376.266 304.906 376.377C304.87 375.828 304.587 375.385 304.286 374.956C302.067 371.754 299.853 368.553 297.626 365.356C296.329 363.496 295.022 361.649 293.703 359.803C292.286 357.819 290.855 355.84 289.421 353.869C287.712 351.522 285.98 349.189 284.28 346.837C282.951 345.004 281.667 343.135 280.33 341.307C277.283 337.131 274.21 332.973 271.168 328.797C268.981 325.791 266.838 322.753 264.641 319.751C262.201 316.416 260.085 312.87 257.871 309.385C257.512 308.822 257.26 308.087 256.432 307.977C255.679 308.353 254.931 308.734 254.386 309.411L254.39 309.407Z" fill="#E7A47C"/>
<path d="M190.524 370.287C190.675 373.696 191.547 376.92 193.052 379.971C193.925 381.742 194.735 383.549 195.931 385.147C197.463 387.198 199.101 389.102 201.103 390.753C202.945 392.272 204.774 393.778 206.788 395.053C208.905 396.395 211.119 397.55 213.537 398.272C214.803 397.506 216.074 396.753 217.323 395.961C217.487 395.859 217.54 395.58 217.642 395.381C216.756 394.831 215.906 394.203 214.971 393.751C214.064 393.313 213.276 392.719 212.523 392.099C210.561 390.474 208.427 389.022 206.726 387.109C205.19 385.378 203.6 383.686 202.312 381.742C201.351 380.29 200.257 378.935 199.407 377.407C198.216 375.273 197.082 373.116 196.152 370.853C195.909 370.26 195.665 369.671 195.413 369.082C195.28 368.772 194.979 368.728 194.695 368.666C193.3 369.193 191.853 369.591 190.524 370.291V370.287Z" fill="#62330B"/>
<path d="M231.214 314.092C231.227 313.973 231.24 313.853 231.253 313.733C230.284 313.295 229.314 313.113 228.362 313.773C229.292 314.052 230.293 313.716 231.214 314.092Z" fill="#D7AB95"/>
<path d="M222.761 315.226C223.438 315.235 224.067 315.088 224.598 314.637C223.814 314.526 223.447 314.646 222.761 315.226Z" fill="#D7AB95"/>
<path d="M218.585 317.066C219.223 317.027 219.754 316.765 220.175 316.278C219.475 316.194 218.931 316.429 218.585 317.066Z" fill="#D7AB95"/>
<path d="M226.697 314.057C226.976 314.283 227.202 314.19 227.401 313.937C227.114 313.658 226.888 313.76 226.697 314.057Z" fill="#D7AB95"/>
<path d="M225.205 314.439C225.573 314.603 225.878 314.496 226.14 314.217C225.759 313.996 225.458 314.12 225.205 314.439Z" fill="#D7AB95"/>
<path d="M216.132 318.485C216.53 318.499 216.814 318.326 216.969 317.954C216.539 317.892 216.251 318.056 216.132 318.485Z" fill="#D7AB95"/>
<path d="M212.988 320.611C213.395 320.611 213.661 320.412 213.789 320.027C213.355 319.996 213.081 320.182 212.988 320.611Z" fill="#D7AB95"/>
<path d="M207.759 324.866C208.166 324.822 208.409 324.596 208.498 324.197C208.06 324.211 207.812 324.432 207.759 324.866Z" fill="#D7AB95"/>
<path d="M201.493 331.582C201.887 331.481 202.099 331.224 202.126 330.816C201.688 330.887 201.484 331.149 201.493 331.582Z" fill="#D7AB95"/>
<path d="M352.277 383.081C351.959 383.068 351.719 383.196 351.564 383.475C351.843 383.422 352.136 383.382 352.277 383.081Z" fill="#8A89DE"/>
</svg>
