<svg width="500" height="500" viewBox="0 0 500 500" fill="none" xmlns="http://www.w3.org/2000/svg">
<path d="M155.758 200.618C155.718 199.981 155.603 199.334 155.651 198.701C156.209 191.705 157.113 184.77 159.313 178.066C159.77 176.68 160.195 175.285 160.646 173.899C161.461 171.389 162.719 169.077 163.874 166.717C164.184 166.088 164.463 165.451 164.733 164.808C165.393 163.241 166.336 161.82 167.35 160.473C172.474 153.681 178.793 148.194 185.962 143.664C187.188 142.889 188.446 142.172 189.69 141.424C190.159 141.986 190.748 141.796 191.306 141.658C193.228 141.185 195.159 140.751 197.054 140.193C199.901 139.351 202.797 138.754 205.729 138.302C207.792 137.983 209.9 137.934 211.906 137.27C212.012 137.235 212.136 137.248 212.251 137.23C214.66 136.858 217.073 136.518 219.478 136.101C222.108 135.645 224.725 135.118 227.364 134.72C230.574 134.233 233.767 133.599 236.964 133.033C238.966 132.678 240.967 132.342 242.964 131.97C244.735 131.642 246.493 131.261 248.265 130.929C250.089 130.588 251.918 130.274 253.747 129.951C255.234 129.685 256.722 129.424 258.206 129.162C259.919 128.861 261.637 128.578 263.351 128.268C264.892 127.993 266.433 127.688 267.974 127.413C270.432 126.979 272.894 126.568 275.351 126.138C276.839 125.877 278.318 125.571 279.806 125.319C282.21 124.907 284.619 124.54 287.019 124.119C289.304 123.72 291.584 123.273 293.865 122.857C295.689 122.525 297.523 122.21 299.347 121.874C300.662 121.63 301.968 121.347 303.283 121.112C305.568 120.705 307.862 120.342 310.147 119.921C312.259 119.531 314.358 119.066 316.47 118.677C319.326 118.154 322.205 117.756 325.043 117.149C329.019 116.299 332.974 115.32 336.928 114.368C337.601 114.204 338.256 113.925 338.885 113.633C339.31 113.434 339.673 113.084 339.753 112.593C339.855 111.959 339.886 111.313 339.665 110.689C339.279 109.59 338.323 109.041 337.185 109.272C335.932 109.524 334.687 109.816 333.434 110.055C331.269 110.472 329.099 110.875 326.925 111.26C325.096 111.587 323.263 111.88 321.434 112.19C319.774 112.469 318.113 112.748 316.453 113.031C314.792 113.31 313.136 113.593 311.475 113.872C309.704 114.173 307.928 114.475 306.157 114.78C304.328 115.094 302.5 115.409 300.671 115.728C298.497 116.104 296.331 116.551 294.148 116.848C292.306 117.096 290.464 117.388 288.64 117.698C286.182 118.119 283.72 118.54 281.267 118.991C279.097 119.39 276.897 119.624 274.745 120.098C271.68 120.78 268.558 121.126 265.49 121.768C263.559 122.171 261.606 122.472 259.662 122.813C258.29 123.056 256.917 123.295 255.544 123.534C253.087 123.959 250.625 124.385 248.167 124.801C246.507 125.084 244.851 125.372 243.186 125.633C241.295 125.93 239.395 126.178 237.504 126.492C235.959 126.754 234.427 127.099 232.886 127.378C230.03 127.892 227.147 128.295 224.313 128.91C220.111 129.822 215.873 130.513 211.636 131.186C211.365 131.23 211.069 131.102 210.781 131.053C211.126 130.606 211.662 130.495 212.14 130.292C221.944 126.147 231.952 122.569 242.105 119.394C253.259 115.905 264.547 112.898 275.905 110.153C279.084 109.387 282.206 108.386 285.39 107.642C294.95 105.415 304.351 102.585 313.875 100.247C316.758 99.5387 319.663 98.8346 322.692 98.9674C327.177 99.1623 331.322 100.42 335.055 102.917C338.035 104.91 340.369 107.469 341.586 110.928C341.856 111.689 341.967 111.738 342.729 111.716C343.955 111.68 345.182 111.605 346.408 111.592C348.472 111.565 350.469 111.915 352.431 112.579C354.658 113.328 356.819 114.187 358.732 115.582C359.015 115.79 359.316 115.976 359.631 116.122C362.562 117.468 364.887 119.593 367.021 121.94C370.51 125.779 372.884 130.225 373.995 135.309C374.766 138.825 374.779 142.38 374.376 145.945C373.694 145.887 373.207 145.449 372.707 145.055C371.458 144.076 370.046 143.377 368.633 142.681C367.557 142.15 366.503 142.163 365.462 142.77C365.259 142.885 365.051 142.991 364.856 143.12C361.34 145.418 357.815 147.694 354.521 150.32C351.421 152.791 348.228 155.151 345.08 157.56C342.529 159.508 339.895 161.337 337.486 163.467C335.564 165.167 333.536 166.748 331.619 168.453C329.095 170.702 326.491 172.876 324.379 175.555C322.878 177.455 321.549 179.421 321.456 181.963C321.443 182.321 321.146 182.49 320.85 182.29C319.782 181.582 318.618 181.383 317.356 181.369C315.647 181.356 313.986 181.622 312.33 181.963C309.239 182.6 306.228 183.548 303.283 184.668C300.228 185.833 297.23 187.135 294.418 188.822C292.908 189.73 291.536 190.801 290.309 192.068C289.384 193.02 288.99 194.105 289.295 195.42C289.348 195.646 289.37 195.88 289.41 196.111C284.128 198.156 278.84 200.198 273.562 202.243C263.869 206.003 254.198 209.815 244.412 213.314C241.928 214.204 239.586 215.381 237.234 216.555C236.3 217.02 235.645 217.715 235.233 218.663C234.675 219.947 234.126 221.24 233.515 222.502C232.722 224.131 232.04 225.805 231.411 227.501C230.601 229.693 229.751 231.867 228.923 234.05C228.697 233.993 228.453 233.975 228.254 233.869C226.284 232.85 224.322 231.818 222.36 230.782C219.885 229.472 217.494 228.002 214.939 226.846C213.77 226.319 212.592 225.805 211.45 225.221C201.832 220.297 191.971 215.922 181.994 211.786C177.305 209.842 172.664 207.783 167.979 205.839C163.888 204.139 159.911 202.159 155.753 200.614L155.758 200.618Z" fill="#686D65"/>
<path d="M289.424 196.118C289.388 195.887 289.362 195.653 289.309 195.427C288.999 194.112 289.393 193.027 290.323 192.075C291.554 190.808 292.922 189.737 294.432 188.829C297.248 187.142 300.246 185.836 303.297 184.676C306.242 183.555 309.248 182.608 312.343 181.97C314 181.629 315.66 181.359 317.369 181.377C318.631 181.386 319.8 181.585 320.863 182.298C321.16 182.493 321.456 182.329 321.47 181.97C321.567 179.428 322.896 177.467 324.392 175.563C326.504 172.888 329.104 170.709 331.632 168.46C333.549 166.755 335.573 165.174 337.499 163.474C339.908 161.344 342.547 159.515 345.093 157.567C348.246 155.158 351.434 152.798 354.534 150.327C357.829 147.701 361.353 145.425 364.869 143.127C365.064 142.999 365.277 142.897 365.476 142.777C366.516 142.175 367.57 142.162 368.646 142.689C370.063 143.384 371.471 144.083 372.72 145.062C373.221 145.456 373.708 145.89 374.39 145.952C374.695 146.39 375.08 146.745 375.532 147.024C376.334 147.524 376.927 148.264 377.596 148.914C378.158 149.464 378.437 150.185 378.645 150.912C379.265 153.068 379.057 155.193 378.153 157.226C377.162 159.467 376.121 161.689 375.045 163.895C373.686 166.68 372.317 169.456 370.869 172.193C368.987 175.753 367.048 179.287 365.082 182.803C363.173 186.217 361.194 189.591 359.268 192.996C358.342 194.63 357.231 196.096 355.925 197.459C353.299 200.196 350.85 203.083 348.618 206.165C346.395 209.234 344 212.178 341.671 215.172C339.448 218.023 337.207 220.866 334.966 223.705C332.872 226.361 330.764 229.005 328.661 231.657C326.633 234.217 324.605 236.776 322.572 239.336C320.54 241.895 318.503 244.45 316.475 247.01C314.372 249.662 312.286 252.323 310.174 254.967C308.097 257.566 305.998 260.143 303.917 262.738C301.836 265.333 299.772 267.937 297.687 270.527C296.407 272.121 295.109 273.693 293.825 275.283C293.387 275.828 292.909 276.359 292.568 276.966C290.708 280.291 288.343 283.267 286.169 286.371C284.097 289.338 281.936 292.242 279.846 295.191C277.348 298.716 274.877 302.259 272.398 305.797C272.097 306.226 271.813 306.673 271.53 307.112C271.357 307.382 271.428 307.674 271.486 307.962C270.658 308.073 270.405 308.808 270.046 309.37C267.832 312.855 265.716 316.398 263.276 319.736C261.08 322.734 258.941 325.776 256.749 328.783C253.707 332.963 250.629 337.116 247.587 341.292C246.254 343.121 244.966 344.99 243.637 346.823C241.933 349.174 240.201 351.508 238.496 353.855C237.062 355.825 235.631 357.804 234.215 359.788C232.899 361.63 231.589 363.481 230.291 365.341C228.064 368.538 225.85 371.74 223.631 374.941C223.33 375.375 223.047 375.813 223.011 376.363C222.418 376.664 221.98 377.155 221.625 377.678C220.518 379.312 218.969 380.481 217.428 381.61C212.641 385.108 207.256 387.233 201.447 388.358C197.984 389.031 194.49 389.261 191.001 388.996C186.661 388.664 182.481 387.641 178.784 385.17C177.965 384.621 177.163 384.036 176.357 383.47C176.202 383.191 175.963 383.062 175.644 383.075L175.667 383.093C175.68 382.482 175.197 382.181 174.838 381.818C173.572 380.525 172.314 379.232 171.207 377.788C168.249 373.918 165.814 369.756 164.016 365.221C162.418 361.192 161.355 357.043 160.819 352.73C160.487 350.038 160.54 347.359 160.7 344.693C160.877 341.664 161.607 338.702 162.692 335.854C163.662 333.304 165.052 331.028 167.227 329.319C170.065 327.087 173.302 325.635 176.729 324.589C177.672 324.302 178.651 324.125 179.661 324.142C181.06 324.169 182.464 324.142 183.863 324.142C185.218 324.142 186.533 324.39 187.817 324.793C190.824 325.741 193.764 326.87 196.638 328.167C197.913 328.743 199.149 329.412 200.419 330.001C201.062 330.297 201.385 330.204 201.797 329.673C203.444 327.561 205.113 325.457 206.721 323.314C209.276 319.909 212.008 316.645 214.687 313.338C216.817 310.712 218.955 308.095 221.076 305.46C223.782 302.099 226.474 298.73 229.162 295.355C229.631 294.766 230.167 294.213 230.371 293.451C230.601 293.279 230.871 293.141 231.053 292.924C231.956 291.853 232.842 290.772 233.719 289.683C236.021 286.827 238.324 283.962 240.622 281.101C242.668 278.555 244.718 276.018 246.746 273.463C248.703 270.996 250.634 268.512 252.569 266.033C254.898 263.048 257.227 260.059 259.543 257.061C260.756 255.494 261.859 253.833 263.156 252.341C265.53 249.613 268.005 246.974 270.458 244.317C272.039 242.604 273.673 240.939 275.254 239.216C278.172 236.032 281.219 232.968 284.199 229.842C285.97 227.987 287.79 226.176 289.512 224.267C291.775 221.752 294.219 219.401 296.5 216.899C298.271 214.959 300.215 213.179 302.039 211.288C304.918 208.308 307.76 205.293 310.616 202.286C310.736 202.158 310.838 202.016 310.953 201.883C312.224 200.435 313.437 198.938 314.774 197.557C317.011 195.245 319.025 192.757 321.014 190.237C322.284 188.625 322.537 186.885 321.833 184.981C321.802 184.893 321.687 184.795 321.594 184.777C321.505 184.76 321.341 184.813 321.301 184.888C320.859 185.725 320.296 186.473 319.543 187.045C318.618 187.753 317.688 188.47 316.692 189.068C314.283 190.503 311.777 191.774 309.177 192.806C304.949 194.479 300.68 196.034 296.128 196.649C294.312 196.893 292.532 197.039 290.788 196.357C290.336 196.18 289.88 196.158 289.419 196.118H289.424Z" fill="#FFB78A"/>
<path d="M310.288 395.386C309.748 395.603 309.203 395.807 308.672 396.037C306.369 397.038 304.009 397.87 301.534 398.353C299.639 398.725 297.717 398.765 295.795 398.827C291.101 398.982 286.487 398.331 281.913 397.339C277.352 396.352 272.835 395.2 268.483 393.469C267.402 393.039 266.264 392.756 265.175 392.344C257.749 389.537 251.271 385.281 245.722 379.605C244.252 378.099 242.924 376.474 241.759 374.72C241.175 373.844 240.657 372.936 240.36 371.917C240.471 371.404 240.639 370.943 241.002 370.514C243.322 367.742 245.563 364.903 247.666 361.954C249.53 359.342 251.412 356.742 253.29 354.139C253.702 353.568 253.861 353.554 254.37 354.046C254.707 354.369 255.017 354.719 255.362 355.033C257.727 357.194 260.499 358.239 263.705 357.88C266.561 357.557 268.558 356.025 269.612 353.333C270.139 351.991 270.143 350.601 269.877 349.197C269.722 348.373 269.74 348.356 270.497 348.032C270.71 347.939 270.931 347.864 271.148 347.78C275.979 345.88 280.81 343.981 285.641 342.077C286.996 341.541 288.338 340.961 289.702 340.452C290.49 340.155 290.968 339.654 291.128 338.835C291.172 338.605 291.261 338.388 291.314 338.162C292.837 331.631 294.374 325.104 295.875 318.568C296.216 317.093 296.433 315.588 296.707 314.1C297.628 313.724 298.629 314.065 299.559 313.781C299.878 313.839 300.196 313.892 300.515 313.95C300.715 314.197 300.94 314.29 301.219 314.069C301.405 314.122 301.591 314.171 301.777 314.224C302.039 314.503 302.344 314.609 302.712 314.445C302.915 314.512 303.115 314.583 303.318 314.649C303.85 315.101 304.478 315.247 305.156 315.238C306.019 315.588 306.883 315.942 307.746 316.292C308.167 316.775 308.694 317.04 309.336 317.08C309.872 317.372 310.412 317.669 310.948 317.961C311.103 318.333 311.386 318.506 311.785 318.493C312.564 319.006 313.348 319.52 314.127 320.034C314.256 320.419 314.521 320.614 314.929 320.618C316.425 321.814 317.922 323.009 319.419 324.205C319.503 324.608 319.746 324.829 320.158 324.874C322.146 326.751 324.033 328.726 325.791 330.82C325.817 331.228 326.03 331.485 326.424 331.587C327.788 333.402 329.152 335.218 330.316 337.175C332.583 340.983 333.934 345.11 334.549 349.485C335.377 355.396 334.939 361.224 333.372 366.976C333.221 367.534 332.964 368.078 333.221 368.672C332.938 368.738 332.637 368.778 332.504 369.088C332.251 369.677 332.008 370.266 331.764 370.859C330.834 373.122 329.696 375.278 328.51 377.413C327.659 378.94 326.566 380.295 325.605 381.748C324.321 383.692 322.726 385.388 321.19 387.115C319.49 389.032 317.355 390.48 315.394 392.105C314.645 392.725 313.853 393.323 312.945 393.757C312.011 394.208 311.16 394.837 310.275 395.386H310.288Z" fill="#884100"/>
<path d="M230.379 293.454C230.176 294.215 229.644 294.769 229.171 295.358C226.483 298.732 223.79 302.102 221.085 305.463C218.964 308.097 216.825 310.714 214.695 313.34C212.016 316.648 209.284 319.907 206.729 323.317C205.122 325.46 203.452 327.563 201.805 329.675C201.393 330.207 201.07 330.3 200.428 330.003C199.157 329.41 197.922 328.745 196.646 328.17C193.772 326.872 190.832 325.743 187.826 324.796C186.541 324.393 185.226 324.145 183.871 324.145C182.468 324.145 181.068 324.171 179.669 324.145C178.659 324.127 177.681 324.304 176.738 324.592C173.31 325.637 170.073 327.094 167.235 329.321C165.056 331.03 163.67 333.306 162.701 335.857C161.616 338.709 160.885 341.667 160.708 344.695C160.553 347.361 160.496 350.04 160.828 352.732C161.363 357.05 162.426 361.194 164.025 365.224C165.827 369.758 168.258 373.916 171.216 377.791C172.318 379.234 173.58 380.527 174.847 381.82C175.206 382.188 175.688 382.485 175.675 383.096C175.56 383.078 175.431 383.096 175.334 383.043C172.952 381.812 170.512 380.674 168.205 379.319C165.065 377.481 162.364 375.103 160.008 372.3C158.459 370.454 157.143 368.465 155.877 366.442C154.921 364.91 154.447 363.125 153.96 361.385C153.331 359.14 152.786 356.873 152.237 354.605C151.852 353.02 151.604 351.408 151.427 349.783C151.201 347.698 150.891 345.625 150.612 343.544C150.324 341.41 150.019 339.275 149.753 337.137C148.805 329.467 148.841 321.767 149.053 314.062C149.124 311.445 149.43 308.832 149.629 306.215C149.647 305.981 149.669 305.751 149.673 305.516C149.811 301.725 149.935 297.935 150.081 294.149C150.209 290.77 150.267 287.383 150.524 284.009C150.67 282.087 150.692 280.161 150.838 278.243C151.055 275.396 151.343 272.553 151.6 269.715C152.693 269.848 153.796 269.896 154.894 270.065C157.303 270.437 159.752 270.561 162.169 270.915C163.617 271.127 165.07 271.154 166.518 271.296C168.311 271.473 170.096 271.712 171.893 271.876C173.806 272.048 175.733 272.088 177.637 272.336C178.912 272.5 180.187 272.562 181.462 272.682C183.256 272.854 185.04 273.107 186.838 273.266C188.809 273.443 190.792 273.505 192.758 273.713C194.264 273.873 195.792 273.895 197.275 274.13C199.064 274.413 200.871 274.382 202.66 274.639C204.785 274.944 206.95 274.962 209.102 275.108C209.275 275.122 209.452 275.135 209.625 275.153C211.649 275.347 213.672 275.635 215.7 275.719C218.202 275.821 220.686 276.237 223.197 276.175C223.596 276.167 223.999 276.326 224.402 276.357C225.562 276.446 226.731 276.596 227.838 276.051C228.143 278.766 228.391 281.489 228.763 284.199C229.14 286.962 229.64 289.712 230.074 292.466C230.127 292.816 230.189 293.153 230.397 293.449L230.379 293.454Z" fill="#8A89DE"/>
<path d="M227.82 276.058C226.713 276.603 225.544 276.452 224.384 276.364C223.981 276.333 223.578 276.173 223.179 276.182C220.668 276.24 218.184 275.828 215.682 275.726C213.654 275.642 211.631 275.359 209.607 275.159C209.434 275.142 209.257 275.124 209.085 275.115C206.937 274.973 204.767 274.956 202.642 274.646C200.853 274.389 199.046 274.415 197.257 274.137C195.774 273.902 194.246 273.88 192.741 273.72C190.774 273.512 188.791 273.45 186.82 273.273C185.027 273.114 183.238 272.861 181.444 272.689C180.169 272.569 178.894 272.507 177.619 272.343C175.719 272.095 173.788 272.06 171.875 271.883C170.082 271.719 168.293 271.484 166.5 271.303C165.052 271.156 163.599 271.13 162.151 270.922C159.738 270.567 157.289 270.443 154.876 270.072C153.778 269.903 152.675 269.855 151.582 269.722C151.44 268.615 151.435 267.521 151.67 266.414C151.79 265.852 151.754 265.254 151.776 264.669C151.847 262.982 151.768 261.291 152.078 259.608C152.255 258.643 152.148 257.629 152.179 256.632C152.29 253.134 152.476 249.636 152.6 246.138C152.662 244.398 152.653 242.622 152.923 240.908C153.3 238.53 152.959 236.117 153.486 233.761C153.512 233.651 153.512 233.527 153.508 233.411C153.41 230.547 153.99 227.713 153.933 224.848C154.46 222.496 154.03 220.065 154.535 217.71C154.557 217.594 154.566 217.475 154.562 217.36C154.469 214.61 154.849 211.882 155.04 209.15C155.239 206.307 155.168 203.433 155.74 200.617C159.897 202.167 163.874 204.142 167.965 205.842C172.65 207.791 177.291 209.85 181.98 211.789C191.957 215.925 201.822 220.296 211.436 225.224C212.578 225.809 213.756 226.322 214.925 226.849C217.485 228.005 219.871 229.479 222.347 230.786C224.308 231.822 226.27 232.854 228.24 233.872C228.44 233.974 228.688 233.996 228.909 234.054C229.042 235.577 228.701 237.078 228.661 238.588C228.59 241.276 228.51 243.964 228.581 246.651C228.763 253.896 228.223 261.127 228.24 268.367C228.249 270.939 227.904 273.486 227.798 276.049L227.82 276.058Z" fill="#FFB78A"/>
<path d="M296.716 314.092C296.442 315.584 296.22 317.086 295.884 318.56C294.383 325.096 292.851 331.623 291.323 338.154C291.27 338.38 291.181 338.602 291.137 338.827C290.978 339.647 290.495 340.147 289.711 340.444C288.347 340.953 287.006 341.533 285.651 342.069C280.819 343.973 275.988 345.872 271.157 347.772C270.94 347.856 270.719 347.936 270.507 348.025C269.749 348.348 269.732 348.365 269.887 349.189C270.152 350.593 270.143 351.983 269.621 353.325C268.567 356.017 266.566 357.549 263.714 357.873C260.508 358.236 257.736 357.191 255.371 355.025C255.026 354.711 254.716 354.361 254.379 354.038C253.87 353.546 253.706 353.56 253.299 354.131C251.422 356.735 249.54 359.334 247.675 361.946C245.576 364.895 243.336 367.734 241.011 370.506C240.652 370.935 240.484 371.396 240.369 371.91C240.139 371.927 239.886 371.892 239.687 371.976C236.791 373.18 233.705 373.716 230.711 374.58C230.388 374.673 230.025 374.637 229.68 374.664C229.684 374.292 229.879 374.013 230.083 373.721C231.247 372.051 232.399 370.377 233.545 368.695C235.542 365.763 237.531 362.828 239.528 359.892C241.618 356.814 243.703 353.732 245.807 350.659C247.68 347.923 249.46 345.129 251.391 342.432C253.489 339.5 255.447 336.472 257.47 333.487C259.95 329.825 262.434 326.172 264.901 322.506C267.823 318.162 270.794 313.853 273.549 309.398C274.886 309.974 276.024 310.891 277.281 311.608C278.039 312.038 278.8 312.472 279.5 312.985C280.921 314.026 282.502 314.185 284.149 313.875C284.898 313.734 285.642 313.672 286.399 313.654C289.826 313.574 293.258 313.543 296.685 313.725C296.699 313.844 296.712 313.964 296.725 314.083L296.716 314.092Z" fill="#FFB68A"/>
<path d="M337.406 370.289C337.902 370.448 338.416 370.581 338.898 370.776C347.582 374.288 355.907 378.485 363.736 383.644C366.127 385.221 368.412 386.939 370.59 388.798C371.75 389.79 372.831 390.862 373.703 392.111C374.722 393.563 375.461 395.135 375.554 396.95C375.665 399.103 374.633 400.821 372.663 401.706C371.374 402.282 370.006 402.587 368.615 402.778C367.167 402.973 365.724 403.176 364.276 403.336C363.173 403.46 362.066 403.606 360.959 403.593C358.444 403.562 355.942 403.818 353.436 403.907C351.452 403.978 349.473 404.133 347.485 404.168C342.87 404.244 338.261 404.487 333.647 404.399C330.485 404.337 327.359 403.96 324.255 403.389C323.219 403.199 322.209 402.884 321.257 402.441C318.822 401.303 316.532 399.922 314.398 398.283C316.816 397.562 319.025 396.406 321.146 395.064C323.161 393.789 324.99 392.283 326.832 390.764C328.833 389.113 330.472 387.204 332.004 385.159C333.2 383.56 334.01 381.753 334.882 379.982C336.388 376.931 337.26 373.708 337.411 370.298L337.406 370.289Z" fill="#894100"/>
<path d="M210.798 131.062C211.082 131.111 211.383 131.235 211.653 131.195C215.895 130.522 220.133 129.831 224.331 128.919C227.165 128.303 230.047 127.9 232.903 127.387C234.444 127.108 235.976 126.762 237.522 126.501C239.408 126.182 241.312 125.939 243.203 125.642C244.864 125.381 246.524 125.093 248.185 124.81C250.642 124.389 253.104 123.968 255.562 123.543C256.935 123.304 258.307 123.065 259.68 122.821C261.624 122.476 263.577 122.179 265.507 121.776C268.576 121.134 271.698 120.789 274.762 120.107C276.91 119.629 279.115 119.394 281.285 119C283.738 118.548 286.2 118.128 288.657 117.707C290.482 117.397 292.324 117.105 294.166 116.857C296.349 116.56 298.514 116.117 300.688 115.736C302.517 115.418 304.346 115.103 306.175 114.789C307.946 114.483 309.722 114.182 311.493 113.881C313.153 113.598 314.809 113.319 316.47 113.04C318.131 112.761 319.791 112.477 321.452 112.198C323.28 111.888 325.114 111.596 326.942 111.269C329.112 110.883 331.282 110.48 333.452 110.064C334.705 109.825 335.949 109.533 337.202 109.28C338.34 109.05 339.297 109.599 339.682 110.697C339.903 111.322 339.872 111.968 339.771 112.601C339.691 113.093 339.328 113.443 338.903 113.642C338.269 113.934 337.618 114.213 336.945 114.377C332.991 115.329 329.041 116.308 325.06 117.158C322.222 117.764 319.344 118.159 316.488 118.686C314.376 119.075 312.277 119.54 310.164 119.93C307.88 120.35 305.586 120.714 303.301 121.121C301.986 121.356 300.679 121.639 299.364 121.883C297.54 122.219 295.707 122.534 293.882 122.866C291.598 123.282 289.321 123.729 287.037 124.128C284.637 124.548 282.223 124.916 279.823 125.328C278.335 125.58 276.856 125.886 275.369 126.147C272.911 126.581 270.449 126.993 267.991 127.422C266.446 127.697 264.91 128.002 263.369 128.277C261.655 128.582 259.937 128.87 258.223 129.171C256.735 129.432 255.247 129.694 253.764 129.959C251.935 130.283 250.106 130.597 248.282 130.938C246.511 131.27 244.753 131.647 242.982 131.979C240.985 132.351 238.983 132.687 236.982 133.041C233.78 133.608 230.592 134.241 227.382 134.728C224.738 135.127 222.125 135.654 219.495 136.11C217.095 136.526 214.677 136.867 212.269 137.239C212.153 137.257 212.029 137.239 211.923 137.279C209.917 137.943 207.809 137.992 205.746 138.311C202.815 138.762 199.919 139.36 197.071 140.202C195.176 140.764 193.246 141.198 191.324 141.667C190.766 141.805 190.177 141.995 189.708 141.433C190.863 140.759 192.001 140.06 193.179 139.418C195.894 137.943 198.586 136.424 201.358 135.069C204.072 133.745 206.875 132.599 209.643 131.39C210.01 131.23 210.422 131.168 210.812 131.062H210.798Z" fill="#494A45"/>
<path d="M273.54 309.407C270.786 313.861 267.81 318.17 264.892 322.514C262.425 326.18 259.937 329.834 257.462 333.496C255.442 336.48 253.481 339.509 251.382 342.44C249.451 345.137 247.671 347.935 245.798 350.668C243.695 353.736 241.609 356.823 239.519 359.9C237.526 362.832 235.538 365.772 233.537 368.703C232.39 370.386 231.239 372.06 230.074 373.729C229.87 374.021 229.675 374.3 229.671 374.672C228.205 375.376 226.602 375.611 225.057 376.036C224.397 376.218 223.702 376.266 223.024 376.377C223.06 375.828 223.343 375.385 223.644 374.956C225.863 371.754 228.077 368.553 230.304 365.356C231.602 363.496 232.908 361.649 234.227 359.803C235.644 357.819 237.075 355.84 238.509 353.869C240.219 351.522 241.95 349.189 243.65 346.837C244.979 345.004 246.263 343.135 247.6 341.307C250.647 337.131 253.72 332.973 256.762 328.797C258.949 325.791 261.093 322.753 263.289 319.751C265.729 316.416 267.845 312.87 270.059 309.385C270.418 308.822 270.671 308.087 271.499 307.977C272.251 308.353 273 308.734 273.544 309.411L273.54 309.407Z" fill="#E7A47C"/>
<path d="M337.406 370.287C337.256 373.696 336.383 376.92 334.878 379.971C334.005 381.742 333.195 383.549 331.999 385.147C330.467 387.198 328.829 389.102 326.827 390.753C324.985 392.272 323.157 393.778 321.142 395.053C319.025 396.395 316.811 397.55 314.393 398.272C313.127 397.506 311.856 396.753 310.607 395.961C310.444 395.859 310.39 395.58 310.289 395.381C311.174 394.831 312.024 394.203 312.959 393.751C313.866 393.313 314.655 392.719 315.407 392.099C317.369 390.474 319.503 389.022 321.204 387.109C322.74 385.378 324.33 383.686 325.619 381.742C326.579 380.29 327.673 378.935 328.523 377.407C329.715 375.273 330.848 373.116 331.778 370.853C332.022 370.26 332.265 369.671 332.518 369.082C332.65 368.772 332.951 368.728 333.235 368.666C334.63 369.193 336.078 369.591 337.406 370.291V370.287Z" fill="#62330B"/>
<path d="M296.717 314.092C296.703 313.973 296.69 313.853 296.677 313.733C297.647 313.295 298.616 313.113 299.568 313.773C298.638 314.052 297.638 313.716 296.717 314.092Z" fill="#D7AB95"/>
<path d="M305.17 315.226C304.492 315.235 303.863 315.088 303.332 314.637C304.116 314.526 304.483 314.646 305.17 315.226Z" fill="#D7AB95"/>
<path d="M309.345 317.066C308.707 317.027 308.176 316.765 307.755 316.278C308.455 316.194 309 316.429 309.345 317.066Z" fill="#D7AB95"/>
<path d="M301.233 314.057C300.954 314.283 300.728 314.19 300.529 313.937C300.817 313.658 301.042 313.76 301.233 314.057Z" fill="#D7AB95"/>
<path d="M302.725 314.439C302.357 314.603 302.052 314.496 301.791 314.217C302.171 313.996 302.472 314.12 302.725 314.439Z" fill="#D7AB95"/>
<path d="M311.798 318.485C311.4 318.499 311.116 318.326 310.961 317.954C311.391 317.892 311.679 318.056 311.798 318.485Z" fill="#D7AB95"/>
<path d="M314.943 320.611C314.535 320.611 314.27 320.412 314.141 320.027C314.575 319.996 314.85 320.182 314.943 320.611Z" fill="#D7AB95"/>
<path d="M320.172 324.866C319.764 324.822 319.521 324.596 319.432 324.197C319.871 324.211 320.118 324.432 320.172 324.866Z" fill="#D7AB95"/>
<path d="M326.437 331.582C326.043 331.481 325.831 331.224 325.804 330.816C326.243 330.887 326.446 331.149 326.437 331.582Z" fill="#D7AB95"/>
<path d="M175.653 383.081C175.972 383.068 176.211 383.196 176.366 383.475C176.087 383.422 175.795 383.382 175.653 383.081Z" fill="#8A89DE"/>
</svg>
