<svg width="500" height="500" viewBox="0 0 500 500" fill="none" xmlns="http://www.w3.org/2000/svg">
<path d="M313.641 320.008C322.02 304.807 322.161 289.496 313.44 274.514C309.415 267.599 309.338 259.972 308.039 252.588C304.476 232.314 301.365 211.959 298.027 191.642C297.325 187.363 297.516 183.059 297.706 178.794C298.468 161.508 294.154 144.98 290.496 128.35C288.446 119.027 286.28 109.727 284.163 100.417C276.617 99.6766 269.075 98.9358 261.529 98.1914C263.085 112.567 264.626 126.943 266.203 141.315C267.272 151.062 268.352 160.806 269.505 170.543C270.274 177.034 268.994 183.296 267.11 189.378C263.275 201.76 263.685 214.174 265.336 226.843C268.472 250.902 271.103 275.025 273.95 299.123C274.511 303.868 275.083 308.613 275.647 313.358C281.263 315.976 286.876 318.597 292.492 321.214C294.087 321.43 295.463 322.174 296.796 323.017C300.112 320.646 301.093 316.681 303.21 313.496C304.296 311.862 304.815 311.922 306.088 313.157C308.523 315.524 311.116 317.733 313.645 320.004L313.641 320.008Z" fill="#6A6C65"/>
<path d="M313.641 320.01C311.115 317.738 308.522 315.529 306.085 313.162C304.811 311.924 304.293 311.867 303.206 313.501C301.089 316.683 300.105 320.652 296.793 323.022C296.867 324.596 296.133 325.862 295.209 327.033C293.251 329.52 292.93 331.743 295.135 334.523C300.617 341.427 300.948 350.087 302.624 358.268C303.181 360.53 303.735 362.795 304.293 365.056C306.409 373.939 308.53 382.818 310.636 391.701C311.214 394.146 310.685 395.388 307.736 394.918C302.201 394.037 296.62 393.419 291.06 392.692C289.73 392.523 288.386 392.146 287.07 392.227C284.262 392.4 282.981 391.412 282.526 388.452C281.803 383.764 280.438 379.178 279.489 374.517C279.133 372.764 278.378 372.14 276.578 372.193C273.164 372.295 269.731 372.284 266.32 372.09C263.96 371.956 262.192 372.715 260.396 374.235C255.179 378.645 249.788 382.853 244.469 387.14C244.447 388.36 244.655 389.634 244.37 390.791C242.175 399.727 244.518 407.075 251.82 412.769C255.161 414.452 258.767 414.861 262.428 414.935C276.892 415.235 291.363 415.429 305.824 415.856C310.95 416.008 316.061 417.038 321.173 415.831C330.222 413.697 335.637 405.177 333.076 396.241C328.994 382.003 324.955 367.723 320.005 353.777C317.222 345.935 316.749 338.312 318.383 330.48C319.145 326.829 318.499 324.328 315.606 322.183C314.837 321.611 314.29 320.747 313.641 320.017V320.01Z" fill="#F6BB92"/>
<path d="M304.296 365.052C303.739 362.791 303.185 360.526 302.627 358.264C300.348 357.513 298.031 356.85 296.03 355.446C285.154 351.131 274.282 346.82 263.405 342.506C260.865 342.827 258.315 343.088 255.782 343.476C246.909 344.834 241.582 351.047 241.519 360.117C241.463 368.297 241.452 376.475 241.424 384.656C241.53 384.899 241.635 385.143 241.741 385.383C242.651 385.965 243.562 386.55 244.472 387.132C249.792 382.846 255.179 378.637 260.4 374.228C262.199 372.707 263.963 371.949 266.323 372.083C269.734 372.277 273.163 372.287 276.582 372.185C278.377 372.132 279.136 372.757 279.492 374.51C280.437 379.17 281.806 383.756 282.529 388.445C282.985 391.408 284.265 392.392 287.073 392.219C288.389 392.138 289.733 392.516 291.063 392.685C295.473 383.474 299.886 374.259 304.296 365.048V365.052Z" fill="#8A8AD9"/>
<path d="M241.745 385.385C241.639 385.141 241.534 384.901 241.428 384.658C239.459 383.212 237.54 381.695 235.508 380.344C233.363 378.918 234.213 376.809 234.178 374.974C234.065 368.977 234.125 368.981 228.262 367.88C226.943 367.633 225.637 367.224 224.307 367.132C220.452 366.871 217.591 365.432 216.493 361.392C215.837 358.983 214.144 358.09 212.034 359.558C208.771 361.83 205.645 365.485 202.414 366.769C199.183 368.049 197.045 367.598 192.868 367.753C194.046 369.608 195.08 371.577 196.431 373.295C203.913 382.813 208.422 393.636 210.782 405.43C220.977 403.722 230.65 405.821 240.13 409.409C240.793 409.659 241.558 409.645 242.274 409.758C239.787 405.567 237.089 401.313 237.921 396.215C238.535 392.451 237.533 387.939 241.745 385.388V385.385Z" fill="#F4BA92"/>
<path d="M210.781 405.435C208.421 393.641 203.913 382.818 196.43 373.3C195.079 371.582 194.045 369.61 192.867 367.758C178.844 371.899 172.78 383.95 178.075 397.148C180.273 401.057 182.432 404.997 186.267 407.629C194.952 412.667 203.034 410.938 210.781 405.438V405.435Z" fill="#7B4A24"/>
<path d="M261.528 98.1922C269.074 98.9331 276.617 99.6739 284.163 100.418C287.338 90.5758 287.969 85.718 279.665 78.4719C276.444 75.6603 273.368 72.6793 270.175 69.8359C266.051 66.1564 261.006 65.6237 257.09 68.3683C252.97 71.2576 251.873 76.1753 254.173 81.4176C256.625 87.0092 259.077 92.6007 261.532 98.1922H261.528Z" fill="#F4BA92"/>
<path d="M263.405 342.509C274.281 346.824 285.154 351.135 296.03 355.446C294.644 347.702 294.076 339.655 288.442 333.415C287.101 331.93 287.186 330.709 288.068 329.171C289.578 326.539 291.021 323.869 292.488 321.216C286.872 318.598 281.256 315.977 275.643 313.359C271.703 323.135 266.81 332.508 263.405 342.509Z" fill="#F4BA92"/>
<path d="M173.099 398.227C174.781 402.647 176.778 406.781 179.988 409.829L181.071 405.469L195.712 404.132C195.712 404.132 206.983 411.456 211.4 414.786C215.82 418.116 212.955 419.64 212.955 419.64H177.551V419.633C176.679 419.605 175.776 419.471 174.831 419.22C170.297 418.032 167.024 414.423 166.417 409.953C165.743 404.975 167.987 401.035 173.091 398.23L173.099 398.227Z" fill="#7C4C26"/>
<path d="M241.745 385.386C237.533 387.937 238.534 392.452 237.921 396.213C237.092 401.311 239.787 405.569 242.274 409.756C245.251 411.414 248.49 412.247 251.827 412.762C244.528 407.068 242.186 399.72 244.376 390.784C244.659 389.63 244.454 388.353 244.475 387.133C243.565 386.55 242.655 385.965 241.745 385.383V385.386Z" fill="#DCA782"/>
<path d="M172.78 398.4C178.908 417.199 193.383 413.672 199.747 414.398C200.784 413.114 200.992 411.523 201.373 409.999C185.226 408.708 180.788 401.226 178.591 397.32C176.668 397.761 174.512 396.946 172.78 398.403V398.4Z" fill="#5C381A"/>
<path d="M292.492 321.219C291.021 323.872 289.582 326.542 288.072 329.174C287.186 330.712 287.105 331.933 288.446 333.418C294.076 339.658 294.647 347.705 296.034 355.449C298.038 356.849 300.352 357.513 302.631 358.268C300.952 350.087 300.62 341.426 295.138 334.522C292.933 331.742 293.254 329.52 295.212 327.033C296.133 325.861 296.87 324.595 296.796 323.021C295.462 322.182 294.09 321.434 292.492 321.219Z" fill="#DCA782"/>
</svg>
