<svg width="501" height="501" viewBox="0 0 501 501" fill="none" xmlns="http://www.w3.org/2000/svg">
<path d="M268.889 291.841C268.889 291.841 274.08 282.552 275.44 274.364C278.407 257.376 268.641 246.498 268.641 246.498C268.641 246.498 230.693 236.965 229.457 245.643C226.985 262.142 224.512 275.097 223.029 283.163C222.04 288.541 247.504 295.996 247.504 295.996L268.889 291.841Z" fill="#3D3C3C"/>
<path d="M218.094 369.43C217.61 384.467 218.577 392.658 231.88 406.473C233.452 408.062 237.322 410.996 241.192 410.996C245.062 410.996 254.011 410.996 258.123 406.473C261.267 403.05 273.966 396.203 268.765 368.085C267.193 355.004 261.146 306.102 268.282 291.554C268.282 291.554 251.714 293.143 242.039 290.698C232.364 288.253 223.536 282.996 223.536 282.996C220.15 328.597 225.713 343.512 223.536 358.549C223.415 358.427 218.215 365.151 218.094 369.43Z" fill="#FF8AA0"/>
<path d="M219.372 388.194C217.268 389.171 216.525 388.438 215.039 385.996L206.001 403.944C216.401 403.333 232.001 406.996 232.001 406.996C232.001 406.996 228.039 403.211 224.325 397.839C220.611 392.467 219.372 388.194 219.372 388.194Z" fill="#ECAD83"/>
<path d="M186.351 367.787C179.83 363.396 173.677 366.689 170.109 369.006C159.28 376.323 158.542 383.641 159.157 392.909C159.895 405.227 192.996 408.032 198.534 406.69C212.808 403.032 217.237 383.031 216.991 374.86C216.745 365.957 213.792 368.396 210.224 368.884C210.1 368.884 209.485 368.518 209.485 368.518C208.255 368.518 206.532 368.762 204.932 368.031C204.932 368.031 203.825 368.396 203.21 368.518C202.84 368.518 202.594 368.518 202.348 368.152C201.856 366.933 201.364 365.713 200.749 365.226C199.026 363.762 189.428 369.86 186.351 367.787Z" fill="#F6BB92"/>
<path d="M206.721 372.996C206.721 372.996 207.158 372.102 206.94 367.888C206.721 367.377 206.175 366.483 205.192 367.377C204.427 367.888 206.175 369.931 206.721 372.996Z" fill="#D6876B"/>
<path d="M207.001 372.996C207.001 372.996 208.456 371.988 209.001 368.081C208.91 367.577 208.546 367.199 208.456 367.073C207.546 366.695 207.183 367.829 207.183 367.829C207.274 371.988 207.001 372.996 207.001 372.996Z" fill="#CC785E"/>
<path d="M157.11 393.911C157.96 409.137 180.787 428.046 205.071 405.822C206.649 404.348 208.592 401.033 204.828 396.49C202.157 393.297 198.757 391.21 198.757 391.21C197.786 390.596 196.572 389.982 195.357 389.246C194.022 388.509 186.615 389.859 186.372 388.386C183.215 373.652 175.08 367.758 171.073 368.003C161.724 370.459 156.139 377.704 157.11 393.911Z" fill="#602F0F"/>
<path d="M194.888 394.065C201.245 391.474 201.363 388.765 200.774 384.996L190.886 387.705L187.001 389.943C187.59 393.712 188.531 396.538 194.888 394.065Z" fill="#F6BB92"/>
<path d="M181.176 415.869C178.453 419.553 171.232 418.325 165.194 413.168C159.156 408.011 156.315 400.644 159.038 396.96C161.761 393.276 167.207 394.995 173.363 400.275C179.519 405.432 183.899 412.185 181.176 415.869Z" fill="#4C230C"/>
<path d="M188.128 386.777C186.908 387.021 185.809 387.143 184.955 387.143C183.612 387.143 182.88 387.021 182.88 387.021L184.711 391.293C185.321 391.293 186.053 391.171 186.663 391.171C186.663 391.171 186.541 390.683 186.175 389.951V390.073C187.152 389.462 188.616 388.608 190.813 387.754C190.691 387.632 191.912 385.923 188.128 386.777Z" fill="#602F0F"/>
<path d="M181.293 418.511C178.363 422.417 170.308 420.952 163.473 415.338C156.516 409.601 153.343 401.912 156.394 398.006C159.323 394.1 165.426 396.053 172.383 401.79C179.218 407.404 184.222 414.605 181.293 418.511Z" fill="#602F0F"/>
<path d="M167.952 416.87C167.57 417.398 165.533 416.209 163.369 414.36C161.205 412.51 159.678 410.528 160.06 410.131C160.441 409.603 162.096 410.66 164.26 412.642C166.424 414.492 168.334 416.474 167.952 416.87Z" fill="#4C230C"/>
<path d="M331.049 398.01C324.824 396.545 314.572 394.959 314.572 394.959C306.272 393.372 293.823 390.687 286.256 389.344C274.05 386.781 253.668 381.899 247.809 384.34C240.608 387.392 238.167 399.841 245.612 403.991C248.663 405.577 254.034 407.408 261.723 407.53C282.594 408.14 312.619 412.168 321.285 411.07C326.289 410.459 329.584 409.239 330.561 408.14C331.537 407.042 332.514 403.869 331.659 399.597C331.537 399.231 331.293 398.62 331.049 398.01Z" fill="#F6BB92"/>
<path d="M266.485 359.562C271.734 370.425 304.444 389.832 308.96 395.446C313.476 401.06 321.897 409.36 322.874 410.214C323.728 409.726 324.582 409.36 325.193 408.872C329.464 406.309 330.685 403.501 331.051 402.159C331.051 402.159 331.905 400.328 331.173 398.253C327.756 388.245 276.738 359.685 276.738 359.685L266.485 359.562Z" fill="#F6BB92"/>
<path d="M266.485 359.565C266.485 359.81 269.414 360.542 278.08 360.298C278.08 360.298 277.226 359.81 276.737 359.077C275.883 357.979 275.029 346.994 274.785 344.309C274.54 341.868 271.733 338.572 271.001 336.864C269.536 333.446 268.194 331.127 266.851 328.686C266.607 328.32 265.875 326.367 265.509 326.367C265.509 326.367 265.997 337.23 266.241 344.309C266.363 346.628 264.654 346.994 264.654 346.994C264.41 349.191 264.166 351.022 263.8 352.242L266.485 359.565Z" fill="#F6BB92"/>
<path d="M264.411 347.116C264.411 347.116 263.312 341.013 260.017 341.257C257.332 341.501 256.355 341.745 263.923 353.218C264.045 353.218 265.753 352.608 264.411 347.116Z" fill="#F6BB92"/>
<path d="M252.693 32.0974C257.575 33.3179 255.256 54.555 256.72 58.0946C257.453 59.9254 260.138 61.6341 260.138 65.9059C260.26 71.5203 255.744 74.5716 255.866 76.5245C256.598 86.6548 262.213 114.849 262.823 127.054C262.945 129.861 263.067 133.401 263.067 136.452C263.067 148.535 238.413 141.7 238.901 137.307C240.609 119.731 242.928 76.6465 244.271 70.4219C244.271 70.4219 245.003 51.0155 245.614 46.3775C246.102 43.6924 247.811 30.7548 252.693 32.0974Z" fill="#F6BB92"/>
<path d="M261.336 175.743C263.037 161.635 263.766 148.264 263.401 135.996C259.391 137.468 242.987 137.959 239.342 136.855C239.098 141.271 234.724 175.252 234.724 175.252C233.387 186.047 224.76 249.347 227.555 269.098C228.041 274.25 229.013 278.667 229.985 282.347C231.929 289.585 271.421 285.414 273.001 275.477C271.664 253.886 261.457 214.262 260.12 204.326C258.905 194.512 261.336 175.743 261.336 175.743Z" fill="#3D3C3C"/>
</svg>
