<svg width="500" height="500" viewBox="0 0 500 500" fill="none" xmlns="http://www.w3.org/2000/svg">
<path d="M264.007 290.306C264.007 290.306 268.239 282.648 269.347 275.897C271.766 261.89 263.805 252.922 263.805 252.922C263.805 252.922 232.87 245.062 231.862 252.217C229.847 265.82 227.832 276.501 226.622 283.152C225.816 287.585 246.574 293.732 246.574 293.732L264.007 290.306Z" fill="#3D3C3C"/>
<path d="M222.289 354.494C221.886 366.889 222.692 373.64 233.777 385.026C235.086 386.336 238.311 388.755 241.535 388.755C244.76 388.755 252.217 388.755 255.643 385.026C258.263 382.205 268.843 376.562 264.51 353.386C263.2 342.604 258.162 302.298 264.107 290.307C264.107 290.307 250.302 291.616 242.241 289.601C234.18 287.586 226.824 283.253 226.824 283.253C224.002 320.839 228.637 333.132 226.824 345.526C226.723 345.425 222.39 350.968 222.289 354.494Z" fill="#FF8AA0"/>
<path d="M223.498 369.508C221.785 370.314 221.181 369.71 219.972 367.694L212.616 382.507C221.08 382.003 233.777 385.026 233.777 385.026C233.777 385.026 230.552 381.902 227.529 377.469C224.506 373.035 223.498 369.508 223.498 369.508Z" fill="#ECAD83"/>
<path d="M195.989 352.681C190.649 349.053 185.61 351.774 182.688 353.688C173.821 359.734 173.216 365.78 173.72 373.438C174.325 383.616 201.431 385.933 205.965 384.825C217.654 381.802 221.282 365.276 221.08 358.525C220.878 351.169 218.46 353.184 215.538 353.588C215.437 353.588 214.933 353.285 214.933 353.285C213.926 353.285 212.515 353.487 211.205 352.882C211.205 352.882 210.298 353.184 209.794 353.285C209.492 353.285 209.29 353.285 209.089 352.983C208.686 351.975 208.283 350.968 207.779 350.565C206.368 349.355 198.508 354.394 195.989 352.681Z" fill="#F6BB92"/>
<path d="M212.817 357.316C212.817 357.316 213.22 356.611 213.019 353.285C212.817 352.882 212.314 352.177 211.407 352.882C210.701 353.285 212.314 354.898 212.817 357.316Z" fill="#D6876B"/>
<path d="M212.817 357.315C212.817 357.315 214.43 356.509 215.034 353.385C214.933 352.982 214.53 352.68 214.43 352.579C213.422 352.277 213.019 353.184 213.019 353.184C213.12 356.509 212.817 357.315 212.817 357.315Z" fill="#CC785E"/>
<path d="M172.108 374.345C172.813 386.84 191.757 402.358 211.911 384.119C213.221 382.91 214.833 380.189 211.709 376.461C209.492 373.841 206.671 372.128 206.671 372.128C205.865 371.624 204.857 371.12 203.849 370.516C202.741 369.911 196.594 371.02 196.393 369.81C193.773 357.718 187.021 352.882 183.696 353.083C175.937 355.098 171.302 361.044 172.108 374.345Z" fill="#602F0F"/>
<path d="M203.144 374.546C208.585 372.329 208.686 370.012 208.182 366.787L199.718 369.105L196.393 371.019C196.896 374.244 197.703 376.662 203.144 374.546Z" fill="#F6BB92"/>
<path d="M192.16 392.785C189.843 395.808 183.696 394.8 178.557 390.568C173.418 386.336 171 380.29 173.317 377.267C175.635 374.244 180.27 375.655 185.51 379.988C190.75 384.22 194.478 389.762 192.16 392.785Z" fill="#4C230C"/>
<path d="M197.601 368.601C196.594 368.803 195.687 368.903 194.982 368.903C193.873 368.903 193.269 368.803 193.269 368.803L194.78 372.329C195.284 372.329 195.888 372.229 196.392 372.229C196.392 372.229 196.292 371.826 195.989 371.221V371.322C196.795 370.818 198.005 370.113 199.818 369.407C199.718 369.306 200.725 367.896 197.601 368.601Z" fill="#602F0F"/>
<path d="M191.959 394.8C189.54 398.025 182.89 396.816 177.247 392.18C171.503 387.444 168.883 381.096 171.403 377.872C173.821 374.647 178.859 376.259 184.603 380.995C190.246 385.631 194.377 391.576 191.959 394.8Z" fill="#602F0F"/>
<path d="M180.774 393.39C180.472 393.793 178.859 392.886 177.146 391.475C175.433 390.064 174.224 388.553 174.526 388.251C174.829 387.848 176.139 388.654 177.852 390.165C179.565 391.576 181.076 393.087 180.774 393.39Z" fill="#4C230C"/>
<path d="M315.599 377.871C310.459 376.662 301.995 375.352 301.995 375.352C295.143 374.042 284.865 371.825 278.617 370.717C268.541 368.601 251.713 364.57 246.876 366.586C240.931 369.105 238.916 379.383 245.062 382.809C247.582 384.119 252.015 385.63 258.364 385.731C275.595 386.235 300.383 389.56 307.537 388.653C311.669 388.15 314.389 387.142 315.195 386.235C316.002 385.328 316.808 382.708 316.102 379.181C316.002 378.879 315.8 378.375 315.599 377.871Z" fill="#F6BB92"/>
<path d="M262.293 346.131C266.626 355.099 293.632 371.121 297.36 375.756C301.088 380.391 308.041 387.243 308.847 387.949C309.553 387.546 310.258 387.243 310.762 386.84C314.289 384.724 315.296 382.407 315.599 381.298C315.599 381.298 316.304 379.787 315.699 378.074C312.878 369.811 270.758 346.232 270.758 346.232L262.293 346.131Z" fill="#F6BB92"/>
<path d="M262.293 346.13C262.293 346.332 264.712 346.936 271.866 346.735C271.866 346.735 271.161 346.332 270.758 345.727C270.052 344.82 269.347 335.751 269.146 333.534C268.944 331.519 266.626 328.798 266.022 327.388C264.813 324.566 263.704 322.652 262.596 320.636C262.394 320.334 261.79 318.722 261.487 318.722C261.487 318.722 261.89 327.69 262.092 333.534C262.193 335.449 260.782 335.751 260.782 335.751C260.58 337.565 260.379 339.076 260.077 340.084L262.293 346.13Z" fill="#F6BB92"/>
<path d="M260.581 335.852C260.581 335.852 259.674 330.814 256.953 331.016C254.736 331.217 253.93 331.419 260.178 340.891C260.278 340.891 261.689 340.387 260.581 335.852Z" fill="#F6BB92"/>
<path d="M250.907 75.7757C254.938 76.7834 253.023 94.3166 254.232 97.2388C254.837 98.7503 257.054 100.161 257.054 103.688C257.155 108.323 253.426 110.842 253.527 112.454C254.132 120.818 258.767 144.095 259.271 154.172C259.371 156.489 259.472 159.411 259.472 161.93C259.472 171.906 239.117 166.263 239.521 162.636C240.931 148.126 242.846 112.555 243.954 107.416C243.954 107.416 244.559 91.3944 245.063 87.5653C245.466 85.3485 246.876 74.6673 250.907 75.7757Z" fill="#F6BB92"/>
<path d="M257.86 194.579C259.27 182.991 259.875 172.007 259.573 161.931C256.247 163.14 242.644 163.543 239.621 162.636C239.42 166.264 235.792 194.176 235.792 194.176C234.684 203.043 227.529 255.038 229.847 271.262C230.25 275.494 231.056 279.121 231.862 282.144C233.474 288.089 266.223 284.663 267.533 276.501C266.425 258.767 257.96 226.219 256.852 218.057C255.844 209.996 257.86 194.579 257.86 194.579Z" fill="#3D3C3C"/>
</svg>
