<svg width="500" height="500" viewBox="0 0 500 500" fill="none" xmlns="http://www.w3.org/2000/svg">
<path d="M406.106 194.527C406.517 193.568 406.585 192.54 406.631 191.526C407.111 181.089 406.233 170.797 403.187 160.762C400.638 152.362 396.833 144.606 391.087 137.882C388.894 135.315 386.482 132.98 383.778 130.966C381.028 128.915 378.205 126.955 375.195 125.293C370.276 122.579 365.014 120.926 359.445 120.241C351.411 119.254 343.44 119.674 335.446 120.917C324.821 122.575 315.864 127.389 308.003 134.533C306.006 136.351 303.85 137.996 301.863 139.823C298.524 142.883 295.263 146.026 291.965 149.132C276.759 163.457 261.667 177.905 246.83 192.613C235.886 203.466 224.891 214.269 213.919 225.095C212.151 226.84 210.356 228.557 208.607 230.316C207.922 231.006 207.182 231.513 206.218 231.759C202.372 232.737 198.795 234.395 195.273 236.177C187.371 240.178 179.916 244.919 172.622 249.917C160.494 258.225 148.988 267.334 137.966 277.054C130.73 283.435 123.723 290.049 116.926 296.897C113.066 300.788 109.467 304.922 105.73 308.928C105.032 309.677 104.324 310.413 103.584 311.116C103.022 311.651 102.697 312.263 102.665 313.035C103.072 313.542 103.451 314.072 103.89 314.551C105.507 316.319 107.115 318.091 108.768 319.827C113.176 324.45 117.607 329.054 122.038 333.658C122.385 334.019 122.8 334.321 123.184 334.65C123.595 334.499 124.029 334.398 124.408 334.193C126.656 332.973 128.93 331.799 131.114 330.479C137.116 326.852 143.296 323.532 149.463 320.215C167.149 310.696 184.936 301.368 202.669 291.95C210.667 287.702 218.647 283.422 226.613 279.119C230.016 277.278 233.447 275.464 236.74 273.441C255.03 262.19 273.287 250.89 291.545 239.584C304.088 231.814 316.608 224.008 329.138 216.22C329.572 215.95 330.001 215.667 330.449 215.42C330.819 215.219 331.152 215.329 331.417 215.644C331.993 216.325 332.322 217.147 332.637 217.96C334.181 221.902 335.697 225.858 337.223 229.804C338.123 229.704 338.854 229.188 339.616 228.777C345.08 225.853 350.547 222.93 356.157 220.294C358.002 219.426 359.861 218.577 361.684 217.659C367.741 214.607 373.788 211.542 379.822 208.45C384.623 205.988 389.424 203.517 394.174 200.968C397.386 199.246 400.652 197.62 403.739 195.674C404.47 195.212 405.311 194.911 406.096 194.536L406.106 194.527Z" fill="#686D65"/>
<path d="M314.781 373.589C317.746 373.84 320.71 374.096 323.679 374.347C323.826 374.361 323.967 374.379 324.113 374.384C327.018 374.553 329.924 374.694 332.824 374.904C335.574 375.105 338.324 375.389 341.069 375.64C341.215 375.654 341.361 375.69 341.503 375.686C344.276 375.594 347.012 376.11 349.775 376.234C352.749 376.366 355.709 376.713 358.678 376.969C358.824 376.983 358.966 377.001 359.112 377.01C362.232 377.188 365.356 377.367 368.476 377.536C369.348 377.581 370.216 377.563 371.084 377.759C371.929 377.951 375.154 377.563 376.25 377.229C379.197 376.334 381.969 375.083 384.418 373.173C385.391 372.415 386.4 371.693 387.391 370.958C387.592 370.803 387.789 370.647 387.99 370.496L387.962 370.519C388.072 370.063 388.428 369.793 388.725 369.478C390.438 367.683 391.945 365.719 393.389 363.704C396.134 359.881 398.18 355.692 399.688 351.261C401.127 347.041 401.931 342.669 401.931 338.188C401.931 336.813 401.647 335.439 401.579 334.059C401.497 332.373 401.168 330.738 400.702 329.126C399.866 326.207 398.263 323.681 396.568 321.214C396.166 320.625 395.591 320.132 395.02 319.689C392.398 317.647 389.529 316.121 386.199 315.587C384.765 315.358 383.335 315.084 381.892 314.924C381.179 314.847 380.439 314.961 379.717 315.034C377.155 315.276 374.757 316.094 372.363 317.003C367.846 318.716 363.538 320.799 359.477 323.425C357.084 324.969 354.914 326.805 352.594 328.45C351.169 329.459 349.752 330.482 348.464 331.675C347.395 332.661 346.231 333.547 345.116 334.484C344.303 335.169 343.412 335.48 342.307 335.416C338.89 335.219 335.469 335.114 332.048 334.973C331.116 334.973 330.189 334.963 329.261 334.963C329.156 335.064 329.06 335.233 328.941 335.251C327.366 335.47 325.826 335.891 324.214 335.886C313.699 335.863 303.184 335.877 292.668 335.877C292.084 335.877 291.495 335.895 290.919 335.822C290.663 335.79 290.435 335.553 290.193 335.407C280.486 335.562 270.784 335.717 261.077 335.868C259.835 335.886 258.597 335.868 257.355 335.909C256.482 335.941 255.61 336.005 254.746 336.128C250.85 336.695 246.981 337.403 243.126 338.216C241.632 338.531 240.166 339.033 238.604 338.937C238.12 339.093 237.64 339.285 237.147 339.39C233.876 340.107 230.606 340.833 227.321 341.5C219.044 343.181 210.754 344.807 202.477 346.506C193.775 348.297 185.083 350.151 176.386 351.969C175.371 352.18 174.385 352.216 173.371 351.828C172.558 351.517 171.667 351.43 170.84 351.152C169.196 350.595 167.67 351.006 166.176 351.65C165.377 351.997 164.61 352.435 163.865 352.897C160.581 354.939 157.319 357.012 154.355 359.515C153.355 360.361 152.391 361.26 151.372 362.087C147.567 365.161 143.84 368.322 140.46 371.867C139.848 372.506 139.304 373.178 138.893 373.963C139.761 373.927 140.396 374.329 140.999 374.932C143.767 377.691 145.365 381.066 146.407 384.771C146.786 386.123 147.01 387.493 146.836 388.873C146.549 391.225 145.868 393.432 143.904 394.989C143.593 395.231 143.388 395.482 143.333 395.866C145.078 396.707 146.887 396.51 148.673 396.095C149.947 395.793 151.176 395.318 152.35 394.701C156.228 392.664 160.375 391.216 164.313 389.302C165.491 388.731 166.642 388.092 167.784 387.452C169.502 386.493 171.206 385.506 172.919 384.533C174.695 383.524 176.459 382.492 177.834 380.925C178.4 380.281 179.163 380.144 180.003 380.075C182.611 379.865 185.233 379.769 187.828 379.367C189.623 379.089 191.45 379.029 193.259 378.805C195.931 378.472 198.594 378.074 201.262 377.718C201.911 377.631 202.564 377.577 203.212 377.54C203.523 377.522 203.751 377.718 203.907 377.983C205.414 377.225 206.972 376.658 208.685 376.627C208.831 376.627 208.972 376.595 209.118 376.572C217.683 375.183 226.243 373.767 234.812 372.424C236.315 372.187 237.809 371.739 239.357 371.858C241.651 371.278 243.98 370.935 246.337 370.775C246.47 370.716 246.597 370.629 246.739 370.606C251.129 369.871 255.514 369.117 259.908 368.418C261.356 368.19 262.845 368.13 264.275 368.441C267.491 369.135 270.748 369.533 274.004 369.926C277.193 370.309 280.386 370.656 283.579 370.962C287.502 371.337 291.431 371.652 295.354 371.981C301.822 372.525 308.295 373.059 314.768 373.593L314.781 373.589Z" fill="#F5BA92"/>
<path d="M332.052 334.97C335.473 335.112 338.894 335.217 342.311 335.413C343.416 335.477 344.307 335.166 345.12 334.481C346.235 333.545 347.399 332.659 348.468 331.672C349.761 330.48 351.173 329.457 352.598 328.447C354.914 326.807 357.088 324.971 359.481 323.423C363.542 320.801 367.854 318.713 372.367 317C374.761 316.091 377.159 315.278 379.721 315.032C380.443 314.963 381.183 314.844 381.896 314.922C383.339 315.082 384.769 315.351 386.203 315.584C389.528 316.119 392.402 317.644 395.024 319.686C395.595 320.129 396.17 320.627 396.572 321.212C398.262 323.678 399.865 326.204 400.706 329.123C401.167 330.736 401.496 332.371 401.583 334.056C401.651 335.436 401.935 336.806 401.935 338.186C401.935 342.662 401.131 347.034 399.692 351.259C398.18 355.69 396.138 359.878 393.393 363.702C391.945 365.716 390.442 367.68 388.729 369.475C388.428 369.791 388.071 370.065 387.966 370.517C388.112 370.508 388.277 370.544 388.396 370.489C391.634 368.968 394.914 367.493 397.723 365.246C400.002 363.418 402.04 361.313 403.798 358.969C404.63 357.864 405.379 356.69 406.132 355.525C407.343 353.657 407.832 351.501 408.453 349.409C408.951 347.733 409.339 346.024 409.75 344.325C410.23 342.338 410.545 340.328 410.769 338.295C411.07 335.541 411.422 332.796 411.792 330.05C412.135 327.524 412.441 324.998 412.637 322.45C413.044 317.128 413.066 311.802 412.911 306.476C412.811 303.128 412.45 299.789 412.203 296.445C412.18 296.153 412.153 295.865 412.148 295.573C412.039 291.27 411.993 286.967 411.696 282.669C411.417 278.594 411.322 274.51 411.111 270.431C411.02 268.686 410.86 266.942 410.691 265.201C410.636 264.626 410.454 264.068 410.326 263.502C409.028 263.666 407.722 263.79 406.434 264.014C404.853 264.288 403.259 264.411 401.665 264.548C399.569 264.731 397.481 265.06 395.384 265.251C392.995 265.471 390.584 265.507 388.208 265.827C386.399 266.074 384.559 266.001 382.777 266.325C380.544 266.727 378.282 266.622 376.049 266.978C373.687 267.357 371.253 267.266 368.877 267.586C367.069 267.828 365.232 267.768 363.446 268.074C360.998 268.495 358.518 268.472 356.06 268.714C353.319 268.983 350.565 269.399 347.788 269.317C347.431 269.308 347.071 269.445 346.71 269.477C343.951 269.728 341.192 269.892 338.424 269.605C338.291 270.395 338.104 271.176 338.045 271.971C337.821 274.876 337.373 277.749 336.898 280.618C336.245 284.56 335.601 288.506 334.861 292.435C334.203 295.933 333.614 299.451 332.581 302.872C331.567 306.234 331.138 309.696 330.969 313.191C330.613 320.485 331.248 327.735 332.056 334.975L332.052 334.97Z" fill="#8A89DE"/>
<path d="M338.425 269.606C341.193 269.894 343.952 269.729 346.711 269.478C347.072 269.446 347.433 269.309 347.789 269.318C350.566 269.396 353.316 268.985 356.061 268.715C358.519 268.473 360.999 268.496 363.447 268.076C365.233 267.77 367.065 267.829 368.878 267.587C371.254 267.272 373.688 267.359 376.05 266.979C378.288 266.623 380.549 266.728 382.778 266.326C384.56 266.007 386.396 266.075 388.209 265.828C390.585 265.504 392.997 265.472 395.386 265.253C397.482 265.061 399.57 264.732 401.666 264.549C403.26 264.408 404.855 264.284 406.435 264.015C407.723 263.791 409.03 263.672 410.327 263.503C410.327 260.301 410.505 257.099 409.957 253.916C409.811 253.061 409.897 252.171 409.865 251.298C409.715 247.155 409.674 242.998 409.354 238.869C409.185 236.69 409.221 234.493 408.929 232.342C408.532 229.377 408.819 226.372 408.226 223.434C408.198 223.293 408.189 223.142 408.194 223.001C408.312 219.643 407.856 216.313 407.6 212.983C407.362 209.873 407.463 206.73 406.928 203.633C406.732 202.496 406.846 201.308 406.8 200.143C406.732 198.252 406.467 196.388 406.115 194.529C405.325 194.904 404.489 195.201 403.758 195.667C400.67 197.617 397.404 199.239 394.193 200.961C389.438 203.51 384.642 205.981 379.841 208.443C373.807 211.535 367.755 214.6 361.702 217.652C359.88 218.57 358.021 219.419 356.175 220.287C350.566 222.927 345.098 225.846 339.635 228.77C338.872 229.176 338.142 229.697 337.242 229.797C337.333 231.168 337.488 232.538 337.507 233.908C337.561 237.686 337.534 241.468 337.593 245.246C337.657 249.307 337.47 253.372 337.895 257.433C338.142 259.808 338.005 262.224 338.005 264.622C338.005 266.294 338.037 267.962 338.439 269.597L338.425 269.606Z" fill="#F5BA92"/>
<path d="M123.188 334.652C122.804 334.323 122.388 334.026 122.041 333.661C117.61 329.056 113.184 324.452 108.772 319.829C107.118 318.098 105.506 316.321 103.893 314.554C103.455 314.074 103.075 313.544 102.669 313.037C100.312 313.964 98.4026 315.577 96.5755 317.24C91.0439 322.269 86.7547 328.17 84.1465 335.246C83.3014 337.543 82.7396 339.85 82.9223 342.285C83.1781 345.665 84.0231 348.904 85.6767 351.873C86.7044 353.714 87.7779 355.545 89.2944 357.066C89.8014 357.578 90.2217 358.199 90.5917 358.825C93.2273 363.297 96.5664 367.271 99.5172 371.519C101.596 374.515 103.774 377.439 105.83 380.444C108.059 383.701 110.909 386.241 114.317 388.187C118.853 390.777 123.704 392.59 128.815 393.572C132.743 394.326 136.722 394.915 140.76 394.486C140.591 393.211 141.13 392.225 142.012 391.371C143.154 390.265 143.446 388.781 143.263 387.365C143.012 385.437 142.555 383.523 141.573 381.769C140.824 380.435 140.116 379.079 139.17 377.873C138.325 376.79 137.896 375.612 138.115 374.228C136.288 373.172 134.484 372.076 132.625 371.076C131.848 370.656 131.401 370.075 131.19 369.267C131.117 368.984 131.095 368.691 131.031 368.408C129.446 361.543 127.86 354.677 126.266 347.812C125.248 343.422 124.215 339.042 123.188 334.657V334.652Z" fill="#FFB78B"/>
<path d="M239.371 371.856C237.817 371.737 236.328 372.185 234.826 372.422C226.256 373.765 217.696 375.181 209.132 376.57C208.985 376.592 208.844 376.624 208.698 376.624C206.985 376.656 205.427 377.227 203.92 377.981C203.367 378.328 202.833 378.716 202.252 379.018C200.823 379.753 199.886 380.941 199.151 382.307C197.867 384.691 198.662 387.19 201.11 388.377C202.362 388.985 203.719 389.286 205.103 389.451C208.428 389.844 211.753 390.154 215.111 390.323C221.086 390.62 227.06 390.798 233.035 390.981C237.269 391.109 241.485 390.981 245.683 390.291C248.022 389.908 250.219 389.2 252.22 387.943C253.695 387.021 255.267 386.24 256.568 385.052C255.933 384.924 255.262 385.029 254.654 384.705C253.056 383.855 251.388 383.147 249.854 382.156C246.108 379.731 242.975 376.624 239.9 373.441C239.453 372.979 239.329 372.454 239.371 371.851V371.856Z" fill="#894200"/>
<path d="M314.781 373.591C308.309 373.052 301.841 372.522 295.368 371.978C291.44 371.65 287.516 371.33 283.592 370.96C280.395 370.654 277.206 370.307 274.018 369.923C270.761 369.53 267.504 369.133 264.289 368.438C262.863 368.128 261.37 368.187 259.922 368.416C255.528 369.114 251.142 369.868 246.753 370.604C246.616 370.626 246.483 370.718 246.351 370.773C246.977 372.061 248.105 372.897 249.128 373.81C250.864 375.354 252.718 376.775 254.408 378.369C255.642 379.529 256.916 380.593 258.424 381.356C259.1 381.699 259.648 382.137 260.004 382.809C260.602 382.512 261.123 382.781 261.658 383.023C263.453 383.827 265.284 384.54 267.203 384.983C270.706 385.796 274.283 386.011 277.837 385.664C290.225 384.462 301.95 381.023 312.89 375.016C313.584 374.637 314.338 374.322 314.777 373.595L314.781 373.591Z" fill="#8A4201"/>
<path d="M260.008 382.804C259.652 382.132 259.104 381.689 258.428 381.351C256.92 380.593 255.646 379.529 254.413 378.364C252.722 376.77 250.872 375.354 249.132 373.805C248.104 372.892 246.976 372.056 246.355 370.768C243.998 370.927 241.668 371.27 239.375 371.85C239.334 372.453 239.458 372.978 239.905 373.44C242.979 376.624 246.113 379.73 249.858 382.155C251.393 383.151 253.056 383.859 254.659 384.704C255.267 385.028 255.938 384.919 256.573 385.051C257.793 384.412 258.999 383.749 260.013 382.799L260.008 382.804Z" fill="#63320B"/>
<path d="M138.115 374.224C137.896 375.603 138.326 376.782 139.171 377.869C140.116 379.075 140.824 380.427 141.573 381.765C142.555 383.519 143.012 385.438 143.263 387.361C143.446 388.777 143.154 390.261 142.012 391.367C141.13 392.221 140.591 393.207 140.76 394.482C141.505 395.158 142.268 395.802 143.341 395.866C143.396 395.487 143.606 395.236 143.912 394.989C145.876 393.431 146.557 391.22 146.845 388.873C147.014 387.493 146.794 386.123 146.415 384.771C145.378 381.066 143.775 377.686 141.007 374.932C140.404 374.329 139.769 373.927 138.901 373.963C138.641 374.05 138.376 374.137 138.115 374.224Z" fill="#E7A47C"/>
<path d="M387.984 370.496C387.788 370.651 387.587 370.807 387.386 370.957C387.665 370.907 387.907 370.807 387.984 370.496Z" fill="#8A89DE"/>
<path d="M272.998 305.314C271.834 305.063 270.678 305.177 269.527 305.41C265.621 306.2 262.013 307.698 258.656 309.836C253.06 313.399 248.282 317.843 244.235 323.092C241.311 326.883 239.69 331.204 238.977 335.895C238.822 336.905 238.726 337.919 238.607 338.933C240.17 339.029 241.64 338.522 243.129 338.211C246.985 337.403 250.854 336.695 254.75 336.124C255.613 335.996 256.486 335.932 257.358 335.904C258.596 335.863 259.839 335.886 261.081 335.863C270.788 335.713 280.49 335.557 290.196 335.402C290.192 335.206 290.187 335.009 290.183 334.808C289.507 334.543 288.821 334.301 288.154 334.018C285.82 333.018 283.504 331.962 281.152 331.008C278.42 329.902 278.736 330.313 278.05 327.381C276.333 320.031 274.675 312.672 272.994 305.314H272.998Z" fill="#8A4200"/>
<path d="M290.183 334.81C290.188 335.007 290.192 335.203 290.197 335.404C290.439 335.55 290.668 335.788 290.923 335.82C291.499 335.893 292.088 335.874 292.673 335.874C303.188 335.874 313.703 335.861 324.218 335.884C325.835 335.884 327.375 335.463 328.946 335.249C329.065 335.23 329.156 335.061 329.266 334.961C329.22 333.938 329.343 332.887 328.795 331.937C319.262 331.937 309.734 331.937 300.201 331.942C299.406 331.942 298.588 331.809 297.821 332.106C297.044 332.403 296.249 332.353 295.45 332.362C294.358 332.371 293.267 332.348 292.175 332.371C290.837 332.398 290.581 332.613 290.247 333.942C290.179 334.221 290.197 334.522 290.179 334.81H290.183Z" fill="#E6A379"/>
<path d="M290.183 334.812C290.206 334.52 290.183 334.223 290.252 333.944C290.585 332.615 290.841 332.4 292.18 332.373C293.271 332.35 294.363 332.373 295.455 332.364C296.254 332.359 297.049 332.409 297.825 332.108C298.593 331.811 299.41 331.943 300.205 331.943C309.738 331.934 319.267 331.939 328.8 331.939C328.782 326.754 328.791 321.574 328.722 316.39C328.704 315.015 328.562 313.613 328.252 312.27C327.735 310.022 326.214 308.579 324.022 307.939C321.925 307.332 319.81 306.747 317.577 306.88C316.85 306.921 316.11 306.829 315.389 306.898C314 307.03 313.214 306.263 312.607 305.18C311.748 303.655 310.912 302.115 310.044 300.599C309.172 299.082 308.24 297.598 307.395 296.068C306.847 295.072 305.815 294.775 304.759 295.296C303.389 295.976 302.069 296.762 300.763 297.557C297.149 299.754 293.559 301.992 289.946 304.189C289.261 304.605 288.525 304.929 287.804 305.285C287.26 305.555 286.675 305.655 286.1 305.477C284.958 305.126 283.784 305.199 282.624 305.176C279.413 305.116 276.201 305.011 272.999 305.304C274.68 312.663 276.338 320.021 278.056 327.371C278.741 330.303 278.421 329.888 281.157 330.998C283.51 331.952 285.826 333.008 288.16 334.008C288.827 334.291 289.512 334.538 290.188 334.798L290.183 334.812Z" fill="#F5BA92"/>
</svg>
