<svg width="500" height="500" viewBox="0 0 500 500" fill="none" xmlns="http://www.w3.org/2000/svg">
<path d="M96.4418 195.193C96.035 194.244 95.9672 193.227 95.922 192.224C95.4474 181.896 96.3152 171.712 99.33 161.782C101.852 153.47 105.617 145.795 111.303 139.142C113.473 136.602 115.859 134.292 118.535 132.299C121.256 130.269 124.049 128.33 127.028 126.685C131.896 124 137.103 122.364 142.613 121.686C150.563 120.71 158.45 121.126 166.36 122.355C176.873 123.996 185.737 128.76 193.516 135.829C195.491 137.628 197.624 139.255 199.59 141.063C202.895 144.091 206.122 147.201 209.385 150.275C224.432 164.449 239.366 178.745 254.046 193.3C264.876 204.039 275.755 214.728 286.612 225.441C288.361 227.167 290.138 228.867 291.869 230.607C292.547 231.289 293.279 231.791 294.233 232.035C298.038 233.002 301.578 234.643 305.062 236.406C312.882 240.365 320.258 245.057 327.477 250.002C339.477 258.223 350.863 267.236 361.769 276.854C368.929 283.169 375.862 289.714 382.588 296.489C386.407 300.34 389.969 304.43 393.666 308.394C394.358 309.136 395.058 309.863 395.79 310.559C396.346 311.088 396.667 311.694 396.699 312.458C396.297 312.959 395.921 313.484 395.488 313.958C393.887 315.708 392.296 317.461 390.66 319.179C386.299 323.753 381.914 328.309 377.53 332.865C377.186 333.222 376.775 333.52 376.395 333.846C375.989 333.697 375.559 333.597 375.184 333.394C372.96 332.187 370.709 331.025 368.549 329.719C362.61 326.13 356.494 322.844 350.392 319.563C332.891 310.144 315.291 300.914 297.745 291.594C289.83 287.39 281.934 283.155 274.051 278.897C270.684 277.076 267.29 275.282 264.031 273.279C245.933 262.147 227.867 250.964 209.801 239.778C197.389 232.089 185 224.365 172.602 216.658C172.173 216.392 171.748 216.111 171.305 215.867C170.939 215.669 170.609 215.777 170.347 216.089C169.777 216.762 169.452 217.576 169.14 218.38C167.612 222.281 166.112 226.195 164.602 230.101C163.711 230.001 162.988 229.49 162.233 229.084C156.828 226.191 151.417 223.298 145.867 220.69C144.041 219.831 142.201 218.991 140.398 218.082C134.404 215.063 128.42 212.03 122.449 208.97C117.699 206.534 112.948 204.089 108.248 201.566C105.07 199.862 101.839 198.253 98.7831 196.328C98.0599 195.871 97.2283 195.573 96.4508 195.202L96.4418 195.193Z" fill="#686D65"/>
<path d="M186.808 372.378C183.875 372.626 180.942 372.879 178.004 373.128C177.859 373.141 177.719 373.159 177.574 373.164C174.7 373.331 171.825 373.471 168.955 373.679C166.234 373.878 163.513 374.158 160.796 374.407C160.652 374.421 160.507 374.457 160.367 374.452C157.623 374.362 154.916 374.873 152.181 374.995C149.239 375.126 146.31 375.469 143.372 375.722C143.228 375.736 143.087 375.754 142.943 375.763C139.856 375.939 136.764 376.116 133.677 376.283C132.814 376.328 131.955 376.31 131.096 376.504C130.26 376.694 127.069 376.31 125.984 375.98C123.069 375.094 120.325 373.856 117.903 371.966C116.94 371.216 115.941 370.502 114.96 369.774C114.761 369.62 114.567 369.467 114.368 369.318L114.395 369.34C114.287 368.888 113.934 368.622 113.64 368.31C111.945 366.533 110.454 364.59 109.025 362.596C106.309 358.813 104.284 354.669 102.793 350.284C101.369 346.108 100.573 341.782 100.573 337.348C100.573 335.988 100.853 334.627 100.921 333.262C101.003 331.594 101.328 329.976 101.789 328.381C102.616 325.493 104.203 322.993 105.88 320.552C106.277 319.969 106.847 319.481 107.412 319.043C110.006 317.022 112.845 315.513 116.14 314.984C117.559 314.758 118.974 314.487 120.402 314.328C121.107 314.252 121.839 314.365 122.554 314.437C125.089 314.676 127.462 315.486 129.831 316.385C134.301 318.08 138.563 320.141 142.581 322.74C144.95 324.268 147.097 326.085 149.393 327.712C150.803 328.711 152.204 329.723 153.479 330.903C154.536 331.879 155.689 332.756 156.792 333.683C157.596 334.361 158.478 334.668 159.572 334.605C162.952 334.41 166.338 334.306 169.723 334.166C170.645 334.166 171.563 334.157 172.48 334.157C172.584 334.257 172.679 334.424 172.797 334.442C174.356 334.659 175.879 335.075 177.475 335.07C187.88 335.048 198.284 335.061 208.689 335.061C209.268 335.061 209.851 335.079 210.42 335.007C210.674 334.975 210.9 334.74 211.139 334.596C220.744 334.749 230.344 334.903 239.949 335.052C241.178 335.07 242.403 335.052 243.633 335.093C244.496 335.125 245.359 335.188 246.214 335.31C250.069 335.87 253.897 336.571 257.712 337.375C259.19 337.687 260.641 338.184 262.187 338.09C262.666 338.243 263.141 338.433 263.629 338.537C266.865 339.247 270.101 339.965 273.351 340.625C281.541 342.289 289.745 343.898 297.935 345.579C306.545 347.351 315.147 349.186 323.752 350.985C324.756 351.193 325.732 351.229 326.736 350.845C327.54 350.537 328.421 350.451 329.24 350.176C330.867 349.624 332.376 350.031 333.854 350.668C334.645 351.012 335.405 351.446 336.141 351.902C339.391 353.923 342.618 355.975 345.552 358.452C346.542 359.288 347.495 360.178 348.503 360.996C352.268 364.038 355.957 367.166 359.301 370.674C359.907 371.306 360.445 371.971 360.852 372.748C359.993 372.712 359.365 373.11 358.768 373.706C356.029 376.436 354.447 379.777 353.417 383.442C353.041 384.78 352.82 386.136 352.992 387.501C353.276 389.829 353.95 392.012 355.893 393.553C356.201 393.793 356.404 394.041 356.458 394.421C354.732 395.253 352.942 395.058 351.175 394.647C349.914 394.349 348.698 393.879 347.536 393.269C343.699 391.253 339.595 389.82 335.698 387.926C334.532 387.361 333.393 386.728 332.263 386.095C330.564 385.146 328.878 384.17 327.183 383.207C325.425 382.208 323.68 381.187 322.32 379.637C321.759 378.999 321.004 378.864 320.173 378.796C317.592 378.588 314.997 378.493 312.43 378.095C310.654 377.82 308.846 377.761 307.056 377.539C304.412 377.209 301.777 376.816 299.137 376.464C298.495 376.378 297.849 376.323 297.207 376.287C296.9 376.269 296.674 376.464 296.52 376.726C295.028 375.975 293.487 375.415 291.792 375.383C291.648 375.383 291.507 375.352 291.363 375.329C282.888 373.955 274.418 372.554 265.938 371.225C264.451 370.99 262.973 370.547 261.441 370.665C259.172 370.09 256.867 369.751 254.535 369.593C254.404 369.535 254.277 369.449 254.137 369.426C249.793 368.698 245.454 367.953 241.106 367.261C239.673 367.035 238.2 366.976 236.785 367.284C233.603 367.971 230.38 368.364 227.158 368.753C224.003 369.132 220.843 369.476 217.684 369.779C213.801 370.149 209.914 370.461 206.032 370.787C199.631 371.324 193.227 371.853 186.822 372.382L186.808 372.378Z" fill="#FFB78A"/>
<path d="M169.719 334.164C166.333 334.304 162.948 334.408 159.567 334.602C158.473 334.665 157.592 334.358 156.787 333.68C155.685 332.753 154.532 331.877 153.474 330.9C152.195 329.721 150.799 328.708 149.388 327.709C147.097 326.087 144.945 324.27 142.577 322.737C138.559 320.143 134.292 318.077 129.826 316.382C127.458 315.483 125.085 314.678 122.549 314.434C121.835 314.367 121.103 314.249 120.398 314.326C118.969 314.484 117.555 314.751 116.135 314.981C112.845 315.51 110.002 317.02 107.408 319.04C106.843 319.479 106.273 319.971 105.875 320.55C104.203 322.991 102.616 325.49 101.785 328.378C101.328 329.974 101.003 331.592 100.917 333.26C100.849 334.625 100.569 335.981 100.569 337.346C100.569 341.775 101.364 346.101 102.788 350.282C104.284 354.666 106.305 358.811 109.021 362.594C110.454 364.587 111.941 366.531 113.636 368.307C113.934 368.619 114.287 368.89 114.391 369.338C114.246 369.329 114.083 369.365 113.966 369.31C110.761 367.805 107.516 366.345 104.736 364.122C102.481 362.314 100.465 360.23 98.7248 357.911C97.9022 356.817 97.1609 355.656 96.4151 354.503C95.2173 352.655 94.7337 350.521 94.119 348.451C93.6263 346.792 93.2421 345.102 92.8354 343.42C92.3608 341.454 92.0489 339.466 91.8274 337.454C91.5291 334.729 91.1811 332.012 90.815 329.296C90.476 326.796 90.1731 324.297 89.9788 321.775C89.5765 316.509 89.5539 311.239 89.7076 305.969C89.807 302.655 90.1641 299.351 90.4082 296.043C90.4308 295.754 90.4579 295.469 90.4624 295.18C90.5709 290.922 90.6161 286.664 90.9099 282.411C91.1856 278.379 91.2805 274.338 91.4884 270.302C91.5788 268.575 91.737 266.849 91.9043 265.127C91.9585 264.557 92.1393 264.006 92.2658 263.445C93.5495 263.608 94.8422 263.73 96.1168 263.952C97.6807 264.223 99.2581 264.345 100.836 264.48C102.91 264.661 104.976 264.987 107.05 265.176C109.414 265.393 111.801 265.43 114.151 265.746C115.941 265.99 117.763 265.918 119.525 266.239C121.736 266.636 123.973 266.532 126.183 266.885C128.52 267.26 130.929 267.17 133.279 267.486C135.069 267.726 136.886 267.667 138.654 267.97C141.076 268.386 143.531 268.363 145.962 268.603C148.674 268.869 151.4 269.28 154.148 269.199C154.5 269.19 154.857 269.326 155.215 269.357C157.945 269.606 160.675 269.769 163.414 269.484C163.545 270.266 163.73 271.039 163.789 271.825C164.01 274.7 164.453 277.543 164.923 280.381C165.57 284.282 166.207 288.187 166.939 292.074C167.59 295.537 168.173 299.017 169.195 302.402C170.198 305.729 170.623 309.155 170.79 312.613C171.143 319.831 170.514 327.004 169.714 334.168L169.719 334.164Z" fill="#8A89DE"/>
<path d="M163.413 269.484C160.674 269.769 157.944 269.606 155.214 269.358C154.857 269.326 154.5 269.191 154.148 269.2C151.4 269.276 148.679 268.87 145.962 268.603C143.53 268.364 141.076 268.386 138.653 267.97C136.886 267.667 135.074 267.726 133.279 267.487C130.929 267.175 128.52 267.261 126.183 266.885C123.968 266.533 121.731 266.637 119.525 266.239C117.762 265.923 115.945 265.991 114.151 265.746C111.801 265.426 109.414 265.394 107.05 265.177C104.976 264.987 102.91 264.662 100.835 264.481C99.2579 264.341 97.6805 264.219 96.1166 263.952C94.842 263.731 93.5493 263.613 92.2656 263.446C92.2656 260.277 92.0894 257.109 92.6317 253.959C92.7764 253.113 92.6905 252.232 92.7222 251.369C92.8713 247.269 92.912 243.156 93.2284 239.07C93.3956 236.914 93.3595 234.74 93.6487 232.611C94.042 229.678 93.7572 226.704 94.3448 223.797C94.3719 223.657 94.381 223.508 94.3764 223.368C94.2589 220.046 94.7109 216.751 94.964 213.456C95.1991 210.378 95.0996 207.268 95.6284 204.203C95.8228 203.078 95.7098 201.903 95.755 200.75C95.8228 198.879 96.085 197.035 96.433 195.195C97.2149 195.566 98.0421 195.86 98.7653 196.321C101.821 198.251 105.052 199.855 108.23 201.559C112.935 204.081 117.681 206.527 122.431 208.963C128.402 212.023 134.391 215.056 140.38 218.075C142.183 218.984 144.023 219.824 145.849 220.683C151.4 223.296 156.81 226.184 162.216 229.077C162.97 229.479 163.694 229.994 164.584 230.093C164.494 231.449 164.34 232.805 164.322 234.161C164.268 237.899 164.295 241.642 164.236 245.38C164.173 249.398 164.358 253.421 163.938 257.439C163.694 259.789 163.829 262.18 163.829 264.553C163.829 266.208 163.798 267.857 163.4 269.475L163.413 269.484Z" fill="#FFB78A"/>
<path d="M376.392 333.849C376.771 333.524 377.183 333.23 377.526 332.868C381.911 328.312 386.29 323.756 390.657 319.182C392.293 317.469 393.888 315.711 395.484 313.962C395.918 313.487 396.293 312.963 396.695 312.461C399.027 313.378 400.917 314.974 402.725 316.619C408.198 321.596 412.443 327.435 415.023 334.437C415.86 336.71 416.416 338.993 416.235 341.402C415.982 344.747 415.145 347.951 413.509 350.889C412.492 352.711 411.43 354.523 409.929 356.028C409.428 356.535 409.012 357.149 408.646 357.768C406.038 362.193 402.734 366.126 399.814 370.329C397.757 373.294 395.601 376.187 393.567 379.161C391.362 382.384 388.541 384.897 385.169 386.822C380.681 389.385 375.881 391.18 370.823 392.151C366.936 392.897 362.999 393.48 359.004 393.055C359.171 391.794 358.638 390.818 357.765 389.973C356.635 388.879 356.346 387.41 356.527 386.009C356.775 384.101 357.227 382.208 358.199 380.472C358.94 379.152 359.641 377.81 360.577 376.616C361.413 375.545 361.838 374.379 361.621 373.01C363.429 371.965 365.214 370.881 367.054 369.891C367.822 369.475 368.265 368.901 368.473 368.101C368.545 367.821 368.568 367.531 368.631 367.251C370.2 360.458 371.768 353.664 373.345 346.871C374.353 342.527 375.375 338.193 376.392 333.854V333.849Z" fill="#FFB78B"/>
<path d="M261.428 370.662C262.964 370.545 264.438 370.987 265.925 371.223C274.404 372.551 282.875 373.953 291.349 375.327C291.494 375.349 291.634 375.381 291.779 375.381C293.474 375.412 295.015 375.977 296.507 376.723C297.053 377.067 297.582 377.451 298.156 377.749C299.571 378.477 300.498 379.652 301.225 381.004C302.495 383.363 301.709 385.835 299.286 387.011C298.048 387.612 296.705 387.91 295.336 388.073C292.045 388.461 288.755 388.769 285.433 388.936C279.521 389.23 273.609 389.406 267.697 389.587C263.507 389.713 259.335 389.587 255.181 388.904C252.867 388.525 250.693 387.824 248.713 386.581C247.253 385.668 245.698 384.895 244.41 383.72C245.038 383.594 245.703 383.697 246.304 383.377C247.886 382.536 249.536 381.835 251.054 380.854C254.761 378.454 257.861 375.381 260.903 372.23C261.346 371.774 261.468 371.254 261.428 370.658V370.662Z" fill="#894200"/>
<path d="M186.808 372.378C193.213 371.845 199.613 371.321 206.018 370.783C209.905 370.457 213.787 370.141 217.67 369.775C220.834 369.472 223.989 369.129 227.144 368.749C230.366 368.36 233.589 367.967 236.771 367.28C238.181 366.973 239.659 367.031 241.092 367.257C245.44 367.949 249.779 368.695 254.123 369.422C254.259 369.445 254.39 369.535 254.521 369.59C253.902 370.864 252.785 371.691 251.773 372.595C250.055 374.123 248.22 375.529 246.548 377.106C245.327 378.254 244.066 379.307 242.575 380.062C241.906 380.401 241.363 380.835 241.011 381.5C240.419 381.206 239.903 381.472 239.375 381.712C237.598 382.507 235.786 383.213 233.887 383.651C230.421 384.456 226.882 384.668 223.365 384.324C211.107 383.136 199.505 379.732 188.679 373.789C187.992 373.413 187.247 373.102 186.813 372.383L186.808 372.378Z" fill="#8A4201"/>
<path d="M241.006 381.496C241.359 380.831 241.901 380.393 242.57 380.059C244.062 379.308 245.323 378.255 246.543 377.103C248.216 375.525 250.046 374.124 251.768 372.592C252.785 371.688 253.902 370.861 254.516 369.586C256.849 369.744 259.154 370.083 261.423 370.657C261.464 371.254 261.342 371.774 260.899 372.23C257.857 375.38 254.756 378.454 251.05 380.854C249.531 381.839 247.886 382.54 246.299 383.376C245.698 383.697 245.034 383.589 244.405 383.72C243.199 383.087 242.005 382.431 241.002 381.491L241.006 381.496Z" fill="#63320B"/>
<path d="M361.621 373.006C361.837 374.371 361.413 375.537 360.576 376.613C359.641 377.806 358.94 379.144 358.199 380.468C357.227 382.204 356.775 384.102 356.527 386.005C356.346 387.406 356.635 388.875 357.765 389.969C358.637 390.814 359.171 391.791 359.003 393.052C358.267 393.721 357.512 394.358 356.45 394.421C356.396 394.046 356.188 393.798 355.885 393.553C353.941 392.012 353.268 389.825 352.983 387.501C352.816 386.136 353.033 384.78 353.408 383.442C354.434 379.777 356.02 376.432 358.759 373.707C359.356 373.11 359.984 372.712 360.843 372.748C361.101 372.834 361.363 372.92 361.621 373.006Z" fill="#E7A47C"/>
<path d="M114.373 369.316C114.567 369.47 114.766 369.624 114.965 369.773C114.689 369.723 114.449 369.624 114.373 369.316Z" fill="#8A89DE"/>
<path d="M228.152 304.82C229.305 304.571 230.448 304.684 231.587 304.915C235.452 305.697 239.023 307.179 242.345 309.295C247.882 312.82 252.609 317.218 256.614 322.412C259.507 326.163 261.111 330.439 261.816 335.081C261.97 336.08 262.065 337.083 262.183 338.087C260.637 338.181 259.181 337.68 257.708 337.372C253.893 336.572 250.065 335.872 246.209 335.307C245.355 335.18 244.492 335.117 243.628 335.09C242.403 335.049 241.174 335.072 239.945 335.049C230.34 334.9 220.74 334.746 211.135 334.593C211.139 334.398 211.144 334.204 211.148 334.005C211.817 333.743 212.495 333.503 213.155 333.223C215.465 332.233 217.756 331.189 220.084 330.245C222.787 329.151 222.475 329.558 223.153 326.656C224.853 319.383 226.493 312.102 228.157 304.82H228.152Z" fill="#8A4200"/>
<path d="M211.148 334.006C211.144 334.201 211.139 334.395 211.135 334.594C210.895 334.739 210.669 334.974 210.416 335.005C209.847 335.078 209.264 335.059 208.685 335.059C198.28 335.059 187.875 335.046 177.471 335.068C175.871 335.068 174.347 334.653 172.792 334.44C172.675 334.422 172.585 334.255 172.476 334.155C172.521 333.143 172.399 332.103 172.942 331.163C182.375 331.163 191.803 331.163 201.236 331.168C202.023 331.168 202.832 331.037 203.591 331.331C204.359 331.624 205.146 331.575 205.937 331.584C207.017 331.593 208.097 331.57 209.178 331.593C210.502 331.62 210.755 331.832 211.085 333.148C211.153 333.423 211.135 333.722 211.153 334.006H211.148Z" fill="#E6A379"/>
<path d="M211.148 334.006C211.126 333.717 211.148 333.423 211.08 333.147C210.751 331.832 210.497 331.62 209.173 331.592C208.093 331.57 207.013 331.592 205.932 331.583C205.141 331.579 204.355 331.629 203.586 331.33C202.827 331.036 202.018 331.168 201.232 331.168C191.799 331.158 182.37 331.163 172.937 331.163C172.955 326.033 172.946 320.907 173.014 315.777C173.032 314.417 173.172 313.029 173.479 311.7C173.99 309.477 175.495 308.048 177.665 307.415C179.739 306.814 181.832 306.236 184.042 306.367C184.761 306.407 185.493 306.317 186.207 306.385C187.581 306.516 188.359 305.757 188.96 304.685C189.81 303.176 190.637 301.653 191.496 300.152C192.359 298.651 193.281 297.182 194.117 295.668C194.66 294.683 195.681 294.389 196.725 294.904C198.081 295.578 199.387 296.355 200.68 297.142C204.255 299.316 207.808 301.531 211.383 303.705C212.061 304.116 212.789 304.437 213.503 304.789C214.041 305.056 214.62 305.155 215.189 304.979C216.319 304.631 217.481 304.703 218.629 304.681C221.806 304.622 224.984 304.518 228.152 304.807C226.489 312.089 224.848 319.371 223.149 326.643C222.471 329.545 222.787 329.134 220.08 330.232C217.752 331.177 215.46 332.221 213.151 333.211C212.491 333.491 211.813 333.735 211.144 333.992L211.148 334.006Z" fill="#FFB78A"/>
</svg>
