<svg width="500" height="500" viewBox="0 0 500 500" fill="none" xmlns="http://www.w3.org/2000/svg">
<path d="M197.222 373.106C197.575 373.07 197.927 373.035 198.28 373C198.386 372.788 198.492 372.577 198.598 372.365C198.633 372.012 198.633 371.624 199.092 371.589C199.55 371.553 199.621 371.942 199.656 372.33C200.115 372.4 200.573 372.435 201.067 372.506C201.279 372.471 201.455 372.471 201.667 372.435C202.408 371.412 203.889 372.365 204.595 371.306C205.195 369.895 205.9 370.036 206.676 371.165C206.818 371.236 206.923 371.306 207.065 371.377C207.311 371.342 207.523 371.306 207.77 371.271C207.805 370.848 208.123 370.742 208.44 370.601C208.476 370.248 208.476 369.86 208.934 369.825C209.393 369.79 209.463 370.178 209.499 370.53C209.605 370.601 209.71 370.707 209.852 370.777C210.063 370.742 210.24 370.707 210.451 370.707C211.051 369.754 212.427 370.53 213.027 369.578C213.027 369.155 213.132 368.802 213.662 368.766C214.155 368.731 214.367 368.978 214.438 369.437C214.579 369.507 214.685 369.578 214.826 369.648C215.073 369.613 215.284 369.543 215.531 369.507C215.567 369.084 215.884 368.978 216.202 368.837C216.237 368.59 216.166 368.237 216.519 368.202C216.907 368.167 216.837 368.52 216.907 368.766C217.86 368.449 218.953 368.661 219.729 367.814C219.729 367.461 219.765 367.073 220.188 367.038C220.647 367.003 220.717 367.355 220.753 367.708C220.894 367.779 221.035 367.849 221.141 367.92C221.388 367.884 221.599 367.814 221.846 367.779C221.952 367.179 222.446 367.214 222.869 367.108C223.822 366.861 224.915 366.897 225.656 366.085C225.691 365.838 225.621 365.486 225.974 365.45C226.362 365.415 226.291 365.768 226.362 366.015C227.879 365.45 229.572 365.344 230.913 364.357C231.124 362.769 232.112 364.039 232.712 363.898C233.77 363.51 234.97 363.51 235.816 362.593C235.852 362.346 235.781 361.993 236.134 361.958C236.522 361.887 236.487 362.275 236.522 362.487C240.12 361.252 243.613 359.735 247.035 358.007C247.035 357.583 247.105 357.16 247.635 357.23C248.058 357.301 247.74 357.654 247.705 357.901C248.129 357.865 248.658 358.042 248.834 357.407C248.834 357.019 248.728 356.56 249.328 356.56C249.751 356.56 249.787 356.948 249.822 357.266C250.069 357.266 250.28 357.23 250.527 357.23C250.704 356.066 251.621 356.595 252.256 356.454C252.609 355.361 253.314 354.479 254.126 353.773C257.089 351.304 259.77 348.552 262.24 345.624C266.403 340.685 269.719 335.181 272.647 329.431C269.578 325.409 266.579 321.352 263.475 317.366C255.184 306.782 247.352 295.846 238.674 285.545C238.356 285.157 238.286 284.698 238.215 284.24C237.157 284.063 236.134 284.063 235.111 284.486C234.687 285.933 233.488 286.286 231.689 285.404L231.618 285.474C231.583 285.827 231.583 286.215 231.124 286.25C230.666 286.286 230.595 285.933 230.56 285.58C230.454 285.51 230.313 285.439 230.207 285.368C230.031 285.404 229.819 285.439 229.643 285.474C229.325 286.145 228.443 285.968 228.02 286.497C228.055 286.85 228.09 287.238 227.667 287.344C227.208 287.45 227.103 287.062 227.067 286.709C226.573 286.638 226.291 286.956 226.009 287.309C225.974 287.556 226.044 287.873 225.691 287.979C225.621 287.979 225.55 287.873 225.445 287.838C225.55 287.662 225.691 287.52 225.797 287.344C225.762 287.203 225.691 287.097 225.656 286.956C225.445 287.027 225.233 287.097 224.986 287.203C224.492 287.591 223.963 287.944 223.469 288.332C223.469 288.579 223.575 288.932 223.257 289.037C222.869 289.143 222.905 288.755 222.834 288.543C221.776 288.861 220.823 289.355 220.012 290.166C219.941 291.295 219.094 290.942 218.459 290.978C217.472 291.225 216.907 292.354 215.778 292.354C215.708 292.424 215.602 292.495 215.496 292.495C215.037 293.2 214.649 294.012 213.626 294.012L213.485 294.117C213.485 294.717 213.097 294.858 212.603 294.858C211.298 296.164 209.993 297.434 208.687 298.739C208.687 299.586 208.088 299.938 207.417 300.221C207.241 300.432 207.065 300.644 206.923 300.856C206.853 301.138 206.747 301.385 206.676 301.667C206.641 302.478 206.923 303.537 205.477 303.29C205.159 303.502 205.089 304.031 204.595 304.031C204.066 304.842 203.572 305.653 203.043 306.43C202.478 308.158 201.667 309.746 200.467 311.122C200.397 311.298 200.291 311.51 200.221 311.686C200.221 312.356 200.044 312.886 199.374 313.168C199.374 313.274 199.303 313.379 199.233 313.45C199.268 313.873 199.056 314.085 198.668 314.191C198.351 314.826 197.892 315.284 197.257 315.602C197.151 315.99 196.94 316.237 196.481 316.202C196.41 316.272 196.305 316.308 196.199 316.343C195.881 316.978 195.352 317.189 194.682 317.189C194.4 317.295 194.082 317.401 193.8 317.472C193.518 317.966 193.024 318.071 192.53 318.283C190.872 318.918 189.249 319.588 187.626 320.259C187.661 320.611 187.697 321 187.273 321.105C186.815 321.211 186.709 320.858 186.638 320.47C186.18 320.47 185.898 320.788 185.58 321.035C185.545 321.282 185.615 321.635 185.263 321.67C184.874 321.705 184.945 321.352 184.874 321.105C183.71 321.07 182.899 322.34 181.664 321.952C181.452 322.023 181.205 322.093 180.994 322.128C180.994 322.305 180.959 322.481 180.959 322.658C180.959 322.905 181.1 323.293 180.712 323.363C180.288 323.434 180.359 323.046 180.324 322.799C180.182 322.728 180.041 322.658 179.935 322.587C179.724 322.658 179.477 322.728 179.265 322.799C178.807 323.152 178.348 323.469 177.889 323.822C177.783 324.986 176.937 324.563 176.267 324.563L176.231 324.492H176.125C176.09 324.739 176.161 325.092 175.808 325.127C175.42 325.162 175.49 324.81 175.42 324.563C174.714 324.88 173.973 325.162 173.268 325.48C173.303 325.833 173.338 326.221 172.915 326.327C172.456 326.432 172.351 326.08 172.28 325.727C171.927 325.727 171.575 325.762 171.504 326.221C171.539 326.574 171.574 326.962 171.116 327.067C170.657 327.138 170.551 326.785 170.516 326.432C169.811 326.785 168.964 326.75 168.364 327.35C168.364 327.597 168.47 327.949 168.117 328.02C167.729 328.126 167.764 327.738 167.694 327.491C166.318 327.808 165.013 328.408 163.778 329.078C163.813 329.431 163.849 329.819 163.39 329.89C162.931 329.996 162.825 329.643 162.79 329.29C162.79 329.184 162.79 329.078 162.79 329.008C162.543 329.078 162.296 329.149 162.049 329.219C161.309 330.348 159.686 329.854 158.91 330.913C158.874 331.16 158.945 331.513 158.592 331.548C158.204 331.618 158.239 331.23 158.204 331.019C157.604 331.124 157.04 331.23 156.44 331.336C156.228 331.407 156.052 331.442 155.84 331.513C155.593 332.289 154.57 331.901 154.288 332.606C153.794 333.841 153.688 333.911 152.03 333.876C152.207 333.382 153.053 333.453 152.948 332.747C152.454 332.112 152.665 331.407 152.771 330.736C153.583 325.374 153.441 319.976 153.371 314.579C152.383 314.508 152.418 313.626 152.348 313.027C152.277 312.356 152.948 312.497 153.371 312.462C153.265 309.428 153.688 306.324 152.771 303.325C151.466 303.113 151.678 302.02 151.572 301.173C151.501 300.538 151.466 299.833 152.454 299.833C152.806 298.457 152.383 296.975 152.842 295.634C152.842 295.458 152.806 295.246 152.806 295.07C151.783 293.8 152.313 292.107 151.678 290.731C150.408 290.166 150.443 289.602 151.642 288.967C151.713 287.062 151.325 285.192 151.007 283.322C150.76 283.322 150.372 283.428 150.337 283.04C150.302 282.652 150.69 282.723 150.937 282.652C150.831 279.936 150.796 277.219 149.949 274.573C149.42 274.573 149.102 274.397 149.137 273.797C149.173 273.268 149.561 273.233 149.984 273.233C149.949 269.07 149.384 264.978 148.891 260.85C148.538 260.815 147.973 261.097 147.938 260.568C147.903 260.003 148.502 260.286 148.82 260.18C148.926 258.275 148.714 256.44 148.361 254.57C148.044 254.5 147.55 254.676 147.515 254.253C147.479 253.759 148.009 253.935 148.291 253.865C148.502 253.124 148.079 252.454 148.079 251.748C147.726 251.713 147.374 251.678 147.374 251.219C147.374 250.796 147.726 250.725 148.079 250.69C148.256 249.208 147.867 247.868 147.338 246.492C147.091 246.456 146.844 246.456 146.562 246.421C144.445 247.056 142.47 246.386 140.459 245.927C140.036 246.068 139.612 246.068 139.189 245.821C138.131 245.927 137.037 246.068 135.979 246.139C135.591 246.174 135.555 245.821 135.591 245.539C135.273 245.504 134.956 245.504 134.603 245.469C133.721 245.68 132.839 245.927 132.028 245.222C131.71 245.186 131.392 245.186 131.11 245.151C129.84 245.045 128.464 246.139 127.335 244.763C126.736 244.763 126.101 245.151 125.501 244.763C124.831 244.763 123.949 245.716 123.49 244.41C123.243 244.41 122.961 244.375 122.714 244.375C122.714 244.481 122.749 244.622 122.749 244.728C122.714 245.045 122.855 245.539 122.502 245.574C121.903 245.645 122.15 245.045 122.079 244.728C120.209 244.834 120.809 246.209 120.809 247.268C121.091 247.268 121.479 247.127 121.515 247.55C121.55 247.973 121.126 247.868 120.88 247.903C119.715 248.714 120.88 250.302 119.786 251.113C119.786 251.466 119.751 251.783 119.751 252.136C120.245 253.265 119.751 254.465 119.927 255.629C120.386 255.664 121.021 255.594 120.985 256.229C120.88 258.31 120.703 260.356 120.562 262.438C120.386 262.438 120.209 262.402 120.033 262.402C120.033 261.273 119.821 260.18 120.174 259.051C120.35 258.451 120.527 257.781 119.856 257.322C119.327 257.957 119.892 258.91 119.186 259.474C119.186 259.721 119.151 259.933 119.151 260.18C119.468 261.944 119.221 263.743 119.151 265.507C119.116 267.271 118.516 268.999 119.045 270.798C119.327 270.798 119.786 270.657 119.751 271.151C119.751 271.469 119.363 271.398 119.08 271.433C117.846 273.127 118.833 274.961 118.728 276.725C119.01 276.761 119.398 276.655 119.398 277.078C119.398 277.466 119.01 277.36 118.728 277.396C117.669 278.56 118.269 279.971 118.128 281.276C118.551 281.311 119.116 281.17 119.186 281.841C119.221 282.052 119.151 282.405 119.01 282.44C118.516 282.652 118.445 281.982 118.057 281.911C117.599 284.839 117.422 287.767 117.387 290.731C117.81 290.766 118.445 290.59 118.445 291.26C118.445 291.895 117.81 291.719 117.387 291.789C117.316 292.847 116.787 293.906 117.281 294.999C117.599 294.999 118.022 294.929 118.093 295.352C118.198 295.952 117.74 295.917 117.316 295.952C116.293 299.162 116.646 302.514 116.364 305.795C117.634 306.183 117.916 307.7 117.034 309.428C116.329 308.652 117.281 307.417 116.293 306.747C115.905 310.628 115.552 314.544 115.552 318.424C116.364 318.354 116.434 318.883 116.434 319.518C116.434 320.153 116.54 320.823 115.588 320.823C115.411 321.247 115.094 321.635 115.059 322.058C114.882 324.81 114.776 327.526 114.635 330.278C115.482 330.207 115.799 330.595 115.729 331.407C115.588 332.677 115.482 333.947 115.376 335.217C115.341 335.746 114.988 335.887 114.529 335.887C113.93 336.31 113.93 336.945 113.93 337.58C113.894 339.133 113.894 340.65 113.859 342.202C115.059 343.049 115.023 344.248 113.824 344.989C113.259 345.589 113.259 346.329 113.259 347.106C113.295 349.116 113.224 351.092 112.695 353.068C112.695 353.385 112.73 353.703 112.73 353.985C113.506 354.726 113.118 355.713 113.189 356.595C113.224 356.842 113.259 357.054 113.259 357.301C114.247 360.088 114.812 362.981 116.117 365.662C116.187 365.733 116.223 365.838 116.223 365.909C117.069 366.438 117.563 367.214 117.846 368.131C118.093 368.484 118.339 368.802 118.586 369.155C120.703 370.777 122.785 372.4 124.901 374.058C125.113 374.164 125.289 374.27 125.501 374.376C126.065 374.164 126.348 374.482 126.559 374.905C126.806 374.94 127.018 374.975 127.265 375.011C128.958 374.87 130.616 374.87 132.274 375.187C134.003 375.505 135.732 375.399 137.46 374.975C138.236 373.741 140.565 373.741 141.306 375.011C144.234 375.187 147.162 375.081 150.055 375.61C150.302 375.575 150.549 375.505 150.796 375.469C150.76 374.834 151.007 374.482 151.713 374.517C152.313 374.517 152.912 374.517 152.912 375.363C155.981 375.716 159.051 375.575 162.12 375.575C165.119 375.575 168.153 375.787 171.151 375.363C171.186 375.046 171.186 374.658 171.61 374.623C172.139 374.552 172.174 375.011 172.28 375.363C173.091 375.399 173.903 375.328 174.679 375.046C174.679 374.764 174.714 374.376 175.032 374.305C177.29 373.776 179.583 374.164 181.841 374.093C181.911 374.093 181.982 374.587 182.052 374.87C182.052 374.94 182.052 375.011 182.017 375.081C182.617 375.046 183.216 375.011 183.816 374.975C183.922 374.764 184.028 374.552 184.134 374.34C184.874 373.176 185.404 373.141 186.215 374.27C186.921 374.446 187.626 374.058 188.296 374.482C188.72 374.446 189.143 374.411 189.566 374.411C190.448 373.67 191.507 373.882 192.53 373.988C192.777 373.952 192.988 373.952 193.235 373.917C193.447 373.705 193.694 373.529 193.906 373.317C194.611 372.153 195.705 372.118 196.693 373.141C196.94 372.965 197.081 373.035 197.222 373.106ZM119.68 267.659C119.786 267.482 119.821 267.235 119.927 267.235C120.174 267.165 120.35 267.341 120.315 267.588C120.315 267.694 120.174 267.87 120.068 267.906C119.962 267.906 119.821 267.729 119.68 267.659ZM150.196 284.839C150.055 284.663 149.914 284.557 149.914 284.416C149.914 284.275 150.019 284.063 150.09 284.028C150.372 283.957 150.478 284.169 150.443 284.416C150.478 284.557 150.337 284.663 150.196 284.839ZM148.538 264.378C148.573 264.484 148.608 264.554 148.679 264.66C148.573 264.695 148.467 264.801 148.397 264.766C148.326 264.731 148.291 264.589 148.256 264.484C148.326 264.448 148.432 264.413 148.538 264.378ZM118.41 286.568C118.516 286.533 118.622 286.427 118.692 286.462C118.763 286.497 118.798 286.638 118.833 286.744C118.728 286.78 118.622 286.885 118.551 286.85C118.481 286.815 118.481 286.674 118.41 286.568Z" fill="#6A6D66"/>
<path d="M191.895 110.635C191.507 110.635 191.26 110.458 191.154 110.07C190.801 110.035 190.484 109.964 190.131 109.929C189.99 110.211 189.743 110.282 189.46 110.282C188.896 110.211 188.12 110.564 188.049 109.576L188.085 109.541C187.591 109.541 187.097 109.541 186.603 109.541L186.638 109.576C186.532 110.352 186.215 110.529 185.615 109.964C185.262 109.964 184.91 109.964 184.557 109.964C184.204 110 183.886 110.07 183.534 110.105C183.393 110.705 182.899 110.705 182.44 110.67C182.228 110.705 181.981 110.74 181.77 110.776C181.699 111.199 181.452 111.411 180.994 111.34L181.029 111.375C180.006 113.139 178.312 113.774 176.478 114.198C176.443 114.939 175.949 114.903 175.42 114.903C175.314 114.903 175.208 114.903 175.067 114.903C174.926 116.279 173.62 116.491 172.739 116.985C171.433 117.726 170.516 119.278 168.752 119.101C168.505 119.101 168.293 119.101 168.047 119.101C167.941 119.348 167.835 119.56 167.694 119.807C167.764 120.583 167.411 120.936 166.635 120.865C166.53 120.971 166.388 121.077 166.283 121.218C166.036 122.347 165.401 122.982 164.201 122.982C163.46 125.452 161.238 126.157 159.297 127.18C159.192 127.286 159.051 127.427 158.945 127.533C158.945 127.992 158.945 128.485 158.521 128.768C156.369 130.214 154.605 132.084 152.771 133.918C152.348 134.342 151.854 134.624 151.219 134.553C150.76 134.765 150.407 135.118 150.16 135.576C150.266 136.353 149.913 136.741 149.102 136.635C149.102 137.164 149.137 137.658 148.396 137.693C148.467 138.363 147.973 138.822 147.62 139.21C145.01 142.138 142.576 145.207 140.282 148.418C137.249 152.651 133.685 156.496 130.722 160.765C130.51 161.083 130.193 161.189 129.84 161.224C130.052 162.705 128.852 163.517 128.147 164.54C126.559 166.868 125.183 169.373 122.784 171.031C122.573 171.137 122.361 171.278 122.149 171.384C122.114 171.737 122.114 172.054 122.079 172.407C122.079 172.901 122.114 173.36 122.114 173.853C122.749 174.594 122.396 174.877 121.585 174.912C121.585 175.159 121.585 175.37 121.55 175.617C121.973 175.653 122.361 175.653 122.432 176.217C122.467 176.711 122.255 176.993 121.761 177.028C121.691 179.075 121.303 181.05 121.373 183.096C121.409 183.978 122.22 184.86 121.479 185.778C121.514 186.024 121.585 186.236 121.62 186.483C123.067 187.189 123.208 187.965 122.114 188.953C121.691 190.152 123.102 190.963 122.749 192.163L122.784 192.128C123.278 192.128 123.525 192.339 123.49 192.833C123.49 193.115 123.455 193.362 123.172 193.503C123.208 193.715 123.243 193.962 123.278 194.174C123.702 194.28 123.878 194.527 123.807 194.985C123.807 195.303 123.843 195.655 123.843 195.973C123.949 195.973 124.09 195.973 124.196 195.973C124.654 195.373 125.148 195.761 125.607 195.938C127.371 196.679 129.064 197.455 130.828 198.16C134.073 199.466 137.354 200.594 140.882 200.489C143.14 200.418 144.904 199.571 145.327 197.208C145.504 196.29 146.068 195.232 146.915 194.527C146.95 194.174 146.985 193.856 147.021 193.503C146.633 193.257 146.668 193.01 147.056 192.798C147.056 189.517 147.268 186.271 146.95 182.991C146.174 182.814 146.28 182.285 146.491 181.756C146.456 180.662 146.456 179.533 146.421 178.44C146.033 178.263 145.927 178.016 146.315 177.734C146.28 177.522 146.244 177.275 146.209 177.064C145.327 176.464 145.327 175.864 146.244 175.265C146.386 174.7 146.527 174.1 146.703 173.536C146.174 173.007 146.562 172.901 147.021 172.83C147.62 171.525 148.467 170.326 149.243 169.091C151.36 165.739 157.392 158.931 158.239 158.825C159.297 157.555 160.391 156.32 161.449 155.05C161.449 153.992 162.508 153.78 163.037 153.11C165.895 149.547 169.458 146.76 173.021 143.937C174.291 142.95 175.667 143.055 176.937 144.325C179.406 146.795 181.699 149.441 183.957 152.087C188.014 156.779 192.142 161.435 196.199 166.163C202.161 173.113 208.087 180.133 214.049 187.083C216.025 189.376 216.131 189.517 214.861 192.269C215.813 193.292 216.801 194.315 217.648 195.409C221.881 200.736 226.609 205.392 232.853 208.532C237.439 210.86 241.99 210.684 246.153 208.673C254.055 204.863 256.207 199.042 254.761 190.893C253.632 184.613 249.61 179.921 244.812 175.935C243.754 175.053 242.837 174.136 242.413 172.795" fill="#F6BA91"/>
<path d="M314.523 219.715C314.981 220.597 314.734 221.514 314.346 222.396C309.937 226.77 304.61 229.875 299.6 233.438C288.205 241.517 276.704 249.489 265.274 257.498C261.782 259.932 258.324 262.366 254.691 264.553C254.444 264.518 254.197 264.448 253.95 264.412C253.103 262.754 252.433 261.061 251.904 259.297C250.916 255.981 248.058 254.287 245.448 252.523C243.366 251.112 241.532 249.454 239.697 247.69C235.57 243.669 231.266 239.858 227.138 235.837C224.845 233.614 223.011 230.933 221.071 228.393C218.037 224.407 215.179 220.314 213.062 215.763C212.392 214.317 212.039 212.694 211.475 211.212C211.193 210.472 211.122 209.449 209.923 209.413C209.887 209.307 209.817 209.237 209.781 209.166C209.111 206.274 208.264 203.451 207.03 200.77C206.853 199.394 206.677 198.018 206.501 196.678C207.735 195.619 209.076 194.702 209.781 193.15C210.24 192.762 210.699 192.374 211.157 191.986C212.427 191.421 213.662 191.527 214.862 192.233C215.779 193.256 216.802 194.279 217.649 195.372C221.882 200.7 226.609 205.356 232.853 208.496C237.44 210.824 241.991 210.648 246.153 208.637C254.056 204.827 256.208 199.006 254.761 190.857C253.632 184.577 249.611 179.885 244.813 175.899C243.754 175.017 242.837 174.1 242.414 172.759C242.414 172.759 266.897 171.242 278.786 176.992C290.71 182.708 305.527 201.793 314.523 219.715Z" fill="#8A8AD9"/>
<path d="M314.346 222.359C309.937 226.734 304.61 229.838 299.6 233.401C288.205 241.48 276.704 249.453 265.274 257.461C261.782 259.896 258.324 262.33 254.691 264.517C254.62 265.293 255.008 265.963 255.255 266.704C255.431 267.233 255.431 267.621 254.761 267.763C254.514 268.01 254.267 268.257 254.02 268.468C253.95 269.28 253.385 269.491 252.68 269.527C251.939 270.232 251.233 270.902 250.493 271.608C250.457 272.243 250.104 272.596 249.434 272.631C249.434 273.09 249.187 273.337 248.729 273.301C247.564 274.36 246.4 275.453 245.271 276.512C245.236 276.935 245.024 277.147 244.601 277.182L244.566 277.217C243.754 278.734 242.625 279.934 241.038 280.674C240.473 281.027 239.98 281.521 239.627 282.086C239.627 283.109 238.498 283.426 238.18 284.238C238.251 284.696 238.286 285.155 238.639 285.543C247.282 295.844 255.114 306.78 263.44 317.364C266.544 321.35 269.578 325.407 272.612 329.429C273.388 329.359 274.023 328.935 274.729 328.653C276.422 327.912 277.904 326.677 279.809 326.466C281.149 325.69 282.525 324.984 283.831 324.137C289.898 320.151 295.931 316.094 301.999 312.072C302.669 311.614 303.375 311.226 304.186 311.049C304.821 308.932 305.668 307.027 307.326 305.369C309.937 302.723 311.207 299.16 312.547 295.774C315.687 287.907 317.592 279.687 318.827 271.326C320.026 263.106 319.638 254.886 318.721 246.631C318.156 241.657 317.31 236.753 316.71 231.779C316.392 229.098 316.004 226.416 315.405 223.771C315.193 223.171 314.946 222.642 314.346 222.359Z" fill="#F6BA92"/>
<path d="M304.115 311.051C303.304 311.227 302.599 311.615 301.928 312.074C295.896 316.131 289.828 320.153 283.76 324.139C282.49 324.986 281.079 325.691 279.738 326.467C281.255 326.326 281.502 326.961 281.043 328.337C280.056 331.265 278.433 333.876 277.092 336.628C274.658 341.637 271.836 346.435 268.872 351.162C267.391 353.526 265.486 355.607 264.11 358.006C267.638 358.535 271.201 358.288 274.729 358.253C276.598 358.253 278.398 357.583 280.267 358.006C280.726 357.971 281.185 357.936 281.643 357.9C282.49 357.336 283.407 357.054 284.395 357.442C284.712 357.407 285.03 357.371 285.347 357.336C286.935 356.56 288.664 356.313 290.427 356.278C290.674 356.242 290.886 356.207 291.133 356.172C291.733 355.643 292.403 355.36 293.214 355.643C293.391 355.607 293.603 355.572 293.779 355.572C294.908 354.831 296.143 354.514 297.448 354.549C297.66 354.514 297.906 354.443 298.118 354.408C298.33 354.231 298.542 353.985 298.788 353.914C302.457 352.891 306.126 351.797 309.654 350.316C310.677 349.892 311.771 349.751 312.9 349.786C314.205 349.822 314.523 350.245 313.641 351.303C313.605 351.621 313.57 351.938 313.535 352.256C313.535 353.808 312.829 355.149 312.088 356.419C311.841 357.512 311.03 358.43 311.065 359.594C315.158 359.629 319.25 359.594 323.342 359.664C329.586 359.77 335.831 359.523 342.075 359.805C344.192 359.911 346.414 360.299 348.46 359.241C356.574 353.879 364.583 348.34 372.873 343.225C376.083 341.249 379.223 339.132 382.433 337.121C386.455 334.617 388.537 328.725 387.655 323.963C387.09 321.035 386.102 318.459 384.233 316.131C381.869 313.203 378.412 312.497 375.06 311.509C368.181 309.463 361.196 310.169 354.246 310.663C353.435 310.733 352.623 310.839 351.812 310.839C341.017 310.98 330.221 311.051 319.426 311.227C315.652 311.262 311.841 311.439 308.067 311.58C306.726 311.615 305.385 311.474 304.115 311.051ZM313.605 346.894C313.288 345.871 314.029 345.094 314.628 344.354C317.909 340.297 321.225 336.275 324.612 332.288C326.129 330.524 327.752 328.831 329.375 327.173C330.257 326.291 331.421 325.797 332.515 326.573C333.679 327.42 333.185 328.69 332.656 329.748C332.409 330.277 332.021 330.701 331.668 331.159C330.08 333.311 328.528 335.463 326.87 337.58C323.907 341.39 321.084 345.306 317.662 348.693C316.816 349.504 315.934 349.539 314.946 349.187C313.923 348.834 313.429 348.128 313.605 346.894Z" fill="#6A6D66"/>
<path d="M348.531 359.24C346.485 360.299 344.263 359.911 342.146 359.805C335.902 359.487 329.657 359.734 323.413 359.664C319.321 359.593 315.228 359.628 311.136 359.593C309.302 362.486 307.291 365.273 305.633 368.272C301.011 376.562 303.798 387.604 313.606 390.814C314.946 391.238 316.287 391.52 317.698 391.52C330.645 391.52 343.627 391.555 356.575 391.52C364.23 391.485 370.827 385.135 371.462 377.514C372.274 368.095 364.865 359.875 355.375 359.875C353.117 359.84 350.754 360.087 348.531 359.24Z" fill="#F7BB92"/>
<path d="M264.11 358.007C265.485 355.572 267.426 353.526 268.872 351.163C271.8 346.435 274.658 341.637 277.092 336.628C278.433 333.876 280.055 331.23 281.043 328.337C281.502 326.997 281.29 326.327 279.738 326.468C277.798 326.644 276.351 327.914 274.658 328.655C273.952 328.937 273.317 329.361 272.541 329.431C269.613 335.181 266.297 340.65 262.134 345.624C259.664 348.552 256.983 351.304 254.02 353.773C253.209 354.443 252.503 355.361 252.15 356.454C252.15 356.701 252.15 356.983 252.15 357.23C252.185 357.301 252.221 357.372 252.185 357.477C252.432 357.513 252.644 357.513 252.891 357.548C253.597 357.301 254.267 357.583 254.937 357.618C255.396 357.019 255.572 357.336 255.678 357.865C255.784 357.936 255.89 357.971 255.996 358.042C257.124 357.865 258.147 358.077 259.171 358.571C260.335 358.571 261.534 358.571 262.698 358.571C263.228 358.359 263.686 358.183 264.11 358.007Z" fill="#4A4B46"/>
<path d="M116.47 305.582C116.717 302.301 116.399 298.949 117.422 295.739C117.422 295.422 117.387 295.069 117.352 294.751C116.858 293.658 117.387 292.599 117.457 291.541C117.457 291.188 117.457 290.835 117.457 290.483C117.493 287.519 117.669 284.591 118.128 281.663C118.163 281.451 118.163 281.24 118.198 281.028C118.304 279.723 117.74 278.312 118.798 277.147C118.798 276.936 118.798 276.689 118.798 276.477C118.904 274.713 117.916 272.879 119.151 271.185C119.151 270.974 119.115 270.762 119.115 270.55C118.586 268.787 119.186 267.023 119.221 265.259C119.257 263.495 119.504 261.696 119.221 259.932C118.092 261.378 118.516 263.142 118.41 264.73C117.881 272.597 117.387 280.499 116.611 288.331C116.399 290.589 116.399 292.846 116.223 295.104C115.799 300.819 115.235 306.57 114.917 312.285C114.741 315.072 114.635 317.894 114.388 320.646C113.788 327.172 113.683 333.734 112.836 340.26C112.342 344.106 112.483 348.057 112.342 351.938C112.342 352.29 112.413 352.643 112.765 352.82C113.295 350.879 113.365 348.868 113.33 346.857C113.33 346.081 113.365 345.341 113.894 344.741C113.894 343.824 113.93 342.871 113.93 341.954C113.965 340.402 113.965 338.885 114 337.332C114 336.697 114 336.062 114.6 335.639C114.6 334.969 114.6 334.298 114.6 333.628C114.282 333.205 114.318 332.817 114.67 332.429C114.706 331.617 114.706 330.841 114.741 330.03C114.882 327.278 114.988 324.562 115.164 321.81C115.2 321.387 115.517 320.963 115.693 320.575C115.693 319.764 115.658 318.988 115.658 318.176C115.694 314.26 116.046 310.38 116.399 306.499C116.434 306.252 116.47 305.935 116.47 305.582Z" fill="#6A6D66"/>
<path d="M150.161 375.433C147.268 374.903 144.34 375.009 141.412 374.833C140.142 374.833 138.836 374.833 137.566 374.798C135.838 375.221 134.109 375.292 132.38 375.009C130.687 374.692 129.029 374.727 127.371 374.833C128.923 375.891 130.758 375.503 132.38 375.574C137.99 375.821 143.599 375.68 149.208 375.68C149.561 375.715 149.914 375.715 150.161 375.433Z" fill="#6A6D66"/>
<path d="M252.221 357.442C252.257 357.372 252.221 357.266 252.186 357.195C251.622 357.195 251.057 357.195 250.457 357.195C250.21 357.195 249.999 357.231 249.752 357.231C249.434 357.266 249.081 357.301 248.764 357.372C248.588 358.007 248.094 357.866 247.635 357.866C247.388 357.901 247.176 357.936 246.929 357.971C243.507 359.665 240.015 361.182 236.417 362.452C236.17 362.487 235.958 362.522 235.711 362.558C234.864 363.475 233.665 363.475 232.606 363.863C232.536 364.039 232.465 364.18 232.395 364.357C234.688 364.427 236.522 363.052 238.569 362.346C241.567 361.288 244.46 359.982 247.353 358.712C248.94 357.971 250.74 358.289 252.221 357.442Z" fill="#6A6D66"/>
<path d="M171.222 375.15C168.223 375.574 165.225 375.362 162.191 375.362C159.122 375.362 156.052 375.538 152.983 375.15C152.877 375.256 152.771 375.362 152.63 375.433C152.807 376.173 153.406 375.997 153.9 375.997C159.369 375.997 164.801 375.997 170.27 375.997C170.763 375.997 171.363 376.173 171.54 375.433C171.469 375.327 171.328 375.256 171.222 375.15Z" fill="#6A6D66"/>
<path d="M264.11 358.006C263.651 358.183 263.192 358.359 262.734 358.536C262.804 358.606 262.91 358.747 262.981 358.747C268.59 358.888 274.199 359.171 279.773 358.465C279.95 358.43 280.091 358.183 280.267 358.042C278.397 357.654 276.563 358.289 274.728 358.289C271.201 358.289 267.673 358.536 264.11 358.006Z" fill="#6A6D66"/>
<path d="M313.711 351.303C314.593 350.245 314.276 349.822 312.97 349.786C311.841 349.751 310.748 349.892 309.725 350.316C306.197 351.797 302.528 352.891 298.859 353.914C298.612 353.985 298.4 354.232 298.189 354.408C299.529 355.043 300.588 353.949 301.716 353.667C304.539 352.926 307.255 351.727 310.042 350.845C311.277 350.457 312.688 349.681 313.711 351.303Z" fill="#6A6D66"/>
<path d="M174.75 374.835C173.974 375.117 173.162 375.223 172.351 375.152C172.316 375.258 172.316 375.328 172.316 375.434C174.503 375.963 176.69 375.822 178.842 375.505C179.901 375.329 181.171 375.893 182.088 374.87C182.123 374.799 182.123 374.729 182.123 374.658C179.654 374.693 177.184 374.764 174.75 374.835Z" fill="#6A6D66"/>
<path d="M230.842 364.285C229.502 365.308 227.808 365.379 226.291 365.943C226.044 365.979 225.833 366.014 225.586 366.014C224.845 366.825 223.751 366.79 222.799 367.037C222.375 367.143 221.881 367.108 221.776 367.707C223.01 368.166 223.963 367.249 225.021 366.967C227.032 366.473 229.008 365.732 230.983 365.132C231.407 364.991 231.724 364.815 231.865 364.391C231.583 364.144 231.195 364.356 230.842 364.285Z" fill="#6A6D66"/>
<path d="M116.223 365.484C114.917 362.803 114.353 359.91 113.365 357.123C112.483 358.323 113.612 359.381 113.859 360.404C114.247 362.203 114.388 364.32 116.223 365.484Z" fill="#6A6D66"/>
<path d="M125.007 373.88C122.89 372.257 120.809 370.635 118.692 368.977C118.727 370.141 119.68 370.705 120.421 371.234C121.902 372.222 123.067 373.739 125.007 373.88Z" fill="#6A6D66"/>
<path d="M216.096 368.801C215.779 368.906 215.461 369.048 215.426 369.471C217.437 369.4 219.377 369.083 221.07 367.919C220.929 367.848 220.788 367.778 220.682 367.707C220.329 367.742 219.977 367.778 219.624 367.813C218.848 368.66 217.754 368.448 216.802 368.765C216.59 368.765 216.343 368.801 216.096 368.801Z" fill="#6A6D66"/>
<path d="M184.205 374.127C184.099 374.339 183.993 374.551 183.887 374.762C185.439 375.15 186.992 375.291 188.403 374.268C187.733 373.88 186.992 374.233 186.321 374.057C185.616 374.092 184.91 374.092 184.205 374.127Z" fill="#6A6D66"/>
<path d="M204.56 371.305C203.854 372.364 202.373 371.411 201.632 372.434C203.537 372.505 205.406 372.505 207.029 371.341C206.888 371.27 206.782 371.199 206.641 371.129C205.936 371.199 205.23 371.27 204.56 371.305Z" fill="#6A6D66"/>
<path d="M290.498 356.277C288.734 356.277 287.04 356.56 285.417 357.336C287.217 357.547 288.945 357.336 290.498 356.277Z" fill="#6A6D66"/>
<path d="M194.012 373.069C193.8 373.281 193.553 373.457 193.342 373.669C194.753 374.233 196.023 373.916 197.222 373.104C197.081 373.034 196.975 372.963 196.834 372.893C195.882 372.963 194.964 372.998 194.012 373.069Z" fill="#6A6D66"/>
<path d="M212.956 369.542C212.356 370.494 210.981 369.718 210.381 370.671C211.933 370.776 213.485 370.741 214.755 369.577C214.614 369.506 214.508 369.436 214.367 369.365C213.873 369.436 213.415 369.506 212.956 369.542Z" fill="#6A6D66"/>
<path d="M198.598 372.363C198.492 372.575 198.386 372.787 198.28 372.998C199.303 373.492 200.256 373.351 201.032 372.505C200.573 372.434 200.115 372.399 199.621 372.328C199.268 372.328 198.95 372.328 198.598 372.363Z" fill="#6A6D66"/>
<path d="M297.483 354.547C296.142 354.512 294.908 354.865 293.814 355.57C295.19 355.712 296.46 355.57 297.483 354.547Z" fill="#6A6D66"/>
<path d="M284.465 357.441C283.442 357.053 282.56 357.335 281.714 357.9C282.737 358.394 283.654 358.252 284.465 357.441Z" fill="#6A6D66"/>
<path d="M152.665 375.434C152.771 375.328 152.877 375.222 153.018 375.151C153.018 374.305 152.418 374.305 151.819 374.305C151.113 374.305 150.901 374.657 150.901 375.257C151.466 375.328 152.066 375.398 152.665 375.434Z" fill="#6A6D66"/>
<path d="M208.405 370.565C208.088 370.671 207.77 370.812 207.735 371.235C208.547 371.658 209.287 371.623 209.781 370.741C209.675 370.671 209.57 370.565 209.428 370.494C209.111 370.529 208.758 370.565 208.405 370.565Z" fill="#6A6D66"/>
<path d="M192.636 373.741C191.613 373.67 190.59 373.423 189.673 374.164C190.696 374.235 191.79 374.799 192.636 373.741Z" fill="#6A6D66"/>
<path d="M293.25 355.643C292.438 355.36 291.768 355.643 291.168 356.172C292.015 356.595 292.72 356.56 293.25 355.643Z" fill="#6A6D66"/>
<path d="M113.295 356.454C113.224 355.572 113.612 354.62 112.836 353.844C112.765 354.761 112.201 355.749 113.295 356.454Z" fill="#6A6D66"/>
<path d="M117.951 367.955C117.669 367.038 117.175 366.262 116.328 365.732C116.328 366.897 117.069 367.496 117.951 367.955Z" fill="#6A6D66"/>
<path d="M230.842 364.285C231.195 364.356 231.583 364.144 231.865 364.462C232.041 364.426 232.253 364.356 232.429 364.321C232.5 364.144 232.571 364.003 232.641 363.827C232.041 363.968 231.054 362.698 230.842 364.285Z" fill="#6A6D66"/>
<path d="M172.28 375.433C172.28 375.327 172.315 375.256 172.315 375.15C172.21 374.798 172.21 374.339 171.645 374.41C171.222 374.445 171.222 374.833 171.187 375.15C171.292 375.256 171.398 375.362 171.539 375.433C171.822 375.433 172.068 375.433 172.28 375.433Z" fill="#6A6D66"/>
<path d="M126.666 374.728C126.454 374.305 126.136 373.952 125.607 374.199C125.889 374.552 125.995 375.222 126.666 374.728Z" fill="#6A6D66"/>
<path d="M255.008 357.583C255.008 357.688 255.008 357.83 255.043 357.935C255.29 357.9 255.537 357.865 255.749 357.83C255.643 357.265 255.466 356.948 255.008 357.583Z" fill="#6A6D66"/>
<path d="M124.337 198.582C123.949 204.297 123.596 210.047 123.208 215.763C122.855 221.09 122.467 226.381 122.079 231.708C121.832 235.342 121.903 239.011 121.127 242.609C120.809 244.197 122.256 243.703 122.82 244.232C123.067 244.232 123.349 244.267 123.596 244.267C124.267 244.409 125.043 243.915 125.607 244.62C126.207 245.008 126.842 244.62 127.442 244.62C128.712 244.832 130.052 244.126 131.216 245.008C131.534 245.044 131.851 245.044 132.134 245.079C133.016 244.973 133.898 244.62 134.709 245.326C135.026 245.361 135.344 245.361 135.661 245.396C136.861 245.396 138.131 244.867 139.26 245.714C139.648 245.926 140.071 245.961 140.53 245.82C142.611 245.396 144.622 245.82 146.633 246.314C146.88 246.349 147.127 246.349 147.409 246.384C148.679 245.855 149.067 244.514 149.914 243.597C152.348 241.092 155.276 239.117 157.358 236.259C158.204 235.13 158.628 233.578 160.18 233.049C160.356 232.661 160.356 232.273 160.18 231.885C160.18 231.214 160.286 230.579 160.674 229.98C161.027 229.627 161.062 229.204 160.885 228.745C160.709 228.569 160.744 228.392 160.921 228.216C161.168 227.475 161.203 226.734 160.956 225.958C160.603 225.57 160.674 225.182 160.885 224.759C160.991 224.441 160.956 224.124 160.709 223.877C160.25 223.665 160.427 223.242 160.392 222.889C160.533 221.654 159.933 220.56 159.757 219.361C157.675 217.597 156.758 215.163 155.876 212.693C155.841 212.482 155.805 212.27 155.77 212.058C154.183 211 153.9 209.342 153.689 207.613L153.759 207.543L153.724 207.472C152.983 207.402 152.63 207.049 152.771 206.308C152.771 206.237 152.736 206.132 152.666 206.096C151.819 205.92 151.678 205.32 151.713 204.579C151.713 204.474 151.678 204.403 151.643 204.332C151.078 204.297 150.902 203.98 151.078 203.486C151.008 203.309 150.972 203.133 150.902 202.957C149.702 202.498 149.737 201.157 149.067 200.346C148.573 199.711 148.362 199.146 147.55 200.311C146.351 202.039 144.904 203.486 142.4 203.768C139.471 204.085 136.755 203.486 134.074 202.745C130.652 201.687 127.477 200.099 124.337 198.582Z" fill="#F5BB94"/>
<path d="M147.409 246.35C147.938 247.69 148.362 249.066 148.15 250.548C148.15 250.901 148.15 251.253 148.185 251.606C148.185 252.312 148.609 252.982 148.397 253.723C148.397 253.97 148.432 254.181 148.432 254.428C148.75 256.298 148.997 258.133 148.891 260.038C148.926 260.249 148.926 260.461 148.961 260.708C149.455 264.835 150.02 268.928 150.055 273.091C150.055 273.549 150.055 273.973 150.02 274.431C150.867 277.042 150.902 279.793 151.008 282.51C151.043 282.722 151.043 282.933 151.078 283.18C151.396 285.05 151.784 286.92 151.713 288.825C151.713 289.424 151.748 289.989 151.748 290.589C152.383 291.965 151.819 293.658 152.877 294.928C153.371 292.776 152.736 290.659 152.595 288.507C152.313 284.203 151.537 279.97 151.184 275.701C150.725 270.268 150.161 264.835 149.702 259.403C149.35 255.346 148.891 251.289 148.785 247.232" fill="#6A6D66"/>
<path d="M155.911 331.3C153.688 331.582 153.618 331.582 153.723 329.324C153.935 324.209 154.358 319.094 154.358 313.978C154.358 308.122 153.97 302.301 153.371 296.48C153.335 296.057 153.371 295.634 152.912 295.422C152.453 296.798 152.877 298.244 152.524 299.62C152.771 300.043 152.841 300.467 152.771 300.961C153.159 301.454 153.194 301.984 152.877 302.513C152.877 302.724 152.841 302.901 152.841 303.113C153.759 306.111 153.335 309.18 153.441 312.25C153.441 312.955 153.441 313.661 153.441 314.366C153.476 319.764 153.653 325.162 152.841 330.524C152.736 331.194 152.524 331.9 153.018 332.535C153.476 332.499 153.9 332.429 154.358 332.394C154.641 331.688 155.664 332.041 155.911 331.3Z" fill="#6A6D66"/>
<path d="M179.266 322.657C177.325 322.622 175.702 323.751 173.939 324.315C170.481 325.444 167.095 326.785 163.708 328.055C163.32 328.196 162.932 328.337 162.826 328.795C162.791 328.901 162.791 329.007 162.826 329.078C163.143 329.007 163.496 328.937 163.814 328.866C165.048 328.196 166.354 327.596 167.73 327.279C167.941 327.243 168.153 327.173 168.365 327.137C168.964 326.538 169.811 326.573 170.517 326.22C170.834 326.15 171.187 326.114 171.504 326.044C171.575 325.585 171.892 325.55 172.281 325.55C172.598 325.479 172.951 325.409 173.268 325.338C173.974 325.021 174.715 324.738 175.42 324.421C175.667 324.386 175.879 324.386 176.126 324.35H176.232L176.267 324.421C176.514 323.574 177.255 323.715 177.89 323.68C178.348 323.363 178.807 323.01 179.266 322.657Z" fill="#6A6D66"/>
<path d="M174.75 374.833C177.219 374.762 179.654 374.692 182.123 374.656C182.052 374.374 181.982 373.88 181.911 373.88C179.654 373.951 177.36 373.563 175.103 374.092C174.785 374.162 174.75 374.515 174.75 374.833Z" fill="#6A6D66"/>
<path d="M119.998 255.451C119.963 256.016 119.963 256.58 119.927 257.145C120.598 257.603 120.456 258.273 120.245 258.873C119.892 260.002 120.068 261.131 120.104 262.225C120.28 262.225 120.456 262.26 120.633 262.26C120.774 260.214 120.95 258.132 121.056 256.051C121.056 255.416 120.456 255.486 119.998 255.451Z" fill="#6A6D66"/>
<path d="M146.633 246.314C144.622 245.82 142.611 245.397 140.53 245.82C142.541 246.279 144.516 246.914 146.633 246.314Z" fill="#F5BB94"/>
<path d="M114.742 330.135C114.706 330.947 114.706 331.723 114.671 332.534C115.271 332.957 115.236 333.345 114.601 333.734C114.601 334.404 114.601 335.074 114.601 335.744C115.059 335.744 115.377 335.603 115.447 335.074C115.553 333.804 115.694 332.534 115.8 331.264C115.906 330.453 115.553 330.065 114.742 330.135Z" fill="#6A6D66"/>
<path d="M162.084 329.008C160.074 329.325 158.204 329.996 156.51 331.125C157.11 331.019 157.675 330.913 158.274 330.807C158.521 330.772 158.733 330.736 158.98 330.701C159.721 329.608 161.344 330.137 162.084 329.008Z" fill="#6A6D66"/>
<path d="M116.469 305.582C116.434 305.9 116.434 306.252 116.399 306.57C117.387 307.24 116.469 308.475 117.14 309.216C118.022 307.487 117.739 305.97 116.469 305.582Z" fill="#6A6D66"/>
<path d="M139.26 245.714C138.131 244.867 136.861 245.431 135.661 245.396C135.626 245.714 135.661 246.031 136.049 245.996C137.108 245.96 138.201 245.819 139.26 245.714Z" fill="#E7CEBC"/>
<path d="M131.181 245.01C129.981 244.128 128.641 244.833 127.406 244.622C128.535 245.997 129.946 244.904 131.181 245.01Z" fill="#E7CEBC"/>
<path d="M137.566 374.799C138.836 374.799 140.142 374.799 141.412 374.834C140.671 373.564 138.378 373.564 137.566 374.799Z" fill="#6A6D66"/>
<path d="M152.807 303.113C152.807 302.901 152.842 302.725 152.842 302.513C152.101 302.055 152.101 301.525 152.736 300.961C152.807 300.502 152.736 300.044 152.489 299.62C151.501 299.585 151.536 300.291 151.607 300.961C151.713 301.843 151.537 302.901 152.807 303.113Z" fill="#6A6D66"/>
<path d="M134.708 245.327C133.897 244.622 133.015 244.975 132.133 245.08C132.909 245.786 133.827 245.574 134.708 245.327Z" fill="#E7CEBC"/>
<path d="M194.011 373.069C194.929 372.998 195.881 372.963 196.798 372.892C195.846 371.834 194.717 371.905 194.011 373.069Z" fill="#6A6D66"/>
<path d="M113.965 342.061C113.965 342.978 113.929 343.93 113.929 344.848C115.129 344.107 115.129 342.872 113.965 342.061Z" fill="#6A6D66"/>
<path d="M154.359 332.393C153.9 332.428 153.477 332.498 153.018 332.534C153.159 333.239 152.313 333.169 152.101 333.663C153.759 333.663 153.83 333.627 154.359 332.393Z" fill="#6A6D66"/>
<path d="M153.406 314.367C153.406 313.661 153.406 312.956 153.406 312.25C152.983 312.285 152.313 312.144 152.383 312.814C152.454 313.414 152.454 314.261 153.406 314.367Z" fill="#6A6D66"/>
<path d="M115.658 318.246C115.658 319.058 115.694 319.834 115.694 320.645C116.646 320.645 116.54 319.94 116.54 319.34C116.54 318.74 116.47 318.176 115.658 318.246Z" fill="#6A6D66"/>
<path d="M125.571 244.621C125.007 243.95 124.231 244.409 123.56 244.268C124.054 245.573 124.901 244.586 125.571 244.621Z" fill="#E7CEBC"/>
<path d="M204.56 371.305C205.265 371.27 205.971 371.199 206.641 371.164C205.865 370.07 205.159 369.894 204.56 371.305Z" fill="#6A6D66"/>
<path d="M184.205 374.127C184.91 374.092 185.616 374.092 186.286 374.057C185.475 372.928 184.946 372.928 184.205 374.127Z" fill="#6A6D66"/>
<path d="M118.234 281.064C118.198 281.276 118.198 281.488 118.163 281.699C118.551 281.77 118.622 282.44 119.116 282.229C119.221 282.158 119.292 281.841 119.292 281.629C119.186 280.959 118.657 281.1 118.234 281.064Z" fill="#6A6D66"/>
<path d="M151.749 290.518C151.749 289.918 151.713 289.354 151.713 288.754C150.514 289.389 150.479 289.953 151.749 290.518Z" fill="#6A6D66"/>
<path d="M250.457 357.194C251.021 357.194 251.586 357.194 252.186 357.194C252.186 356.947 252.186 356.665 252.186 356.418C251.551 356.559 250.633 356.03 250.457 357.194Z" fill="#6A6D66"/>
<path d="M117.493 290.518C117.493 290.87 117.493 291.223 117.493 291.576C117.917 291.541 118.552 291.717 118.552 291.047C118.552 290.376 117.917 290.553 117.493 290.518Z" fill="#6A6D66"/>
<path d="M212.956 369.541C213.415 369.506 213.873 369.435 214.367 369.4C214.332 368.942 214.085 368.695 213.591 368.73C213.062 368.765 212.956 369.118 212.956 369.541Z" fill="#6A6D66"/>
<path d="M149.984 274.395C149.984 273.937 149.984 273.513 150.02 273.055C149.596 273.055 149.243 273.09 149.173 273.619C149.138 274.184 149.49 274.36 149.984 274.395Z" fill="#6A6D66"/>
<path d="M181.029 322.021C180.394 321.527 180.218 322.092 179.936 322.48C180.077 322.55 180.218 322.621 180.324 322.691C180.535 322.656 180.747 322.586 180.959 322.55C180.994 322.374 180.994 322.198 181.029 322.021Z" fill="#6A6D66"/>
<path d="M177.89 323.68C177.255 323.75 176.514 323.574 176.267 324.421C176.937 324.456 177.784 324.844 177.89 323.68Z" fill="#6A6D66"/>
<path d="M148.926 260.672C148.891 260.461 148.891 260.249 148.856 260.002C148.538 260.073 147.903 259.826 147.974 260.39C148.009 260.884 148.573 260.637 148.926 260.672Z" fill="#6A6D66"/>
<path d="M171.504 326.078C171.187 326.149 170.834 326.184 170.516 326.255C170.552 326.607 170.657 326.995 171.116 326.89C171.575 326.819 171.539 326.396 171.504 326.078Z" fill="#6A6D66"/>
<path d="M119.68 267.658C119.822 267.764 119.963 267.905 120.033 267.905C120.139 267.869 120.28 267.693 120.28 267.587C120.315 267.34 120.139 267.164 119.892 267.234C119.822 267.234 119.786 267.446 119.68 267.658Z" fill="#6A6D66"/>
<path d="M173.268 325.373C172.951 325.444 172.598 325.514 172.28 325.585C172.316 325.938 172.457 326.29 172.915 326.184C173.339 326.114 173.303 325.691 173.268 325.373Z" fill="#6A6D66"/>
<path d="M163.813 328.865C163.496 328.936 163.143 329.006 162.826 329.077C162.861 329.43 163.002 329.782 163.425 329.677C163.884 329.606 163.813 329.218 163.813 328.865Z" fill="#6A6D66"/>
<path d="M248.799 357.335C249.117 357.3 249.47 357.264 249.787 357.194C249.752 356.876 249.717 356.488 249.293 356.488C248.693 356.524 248.764 356.982 248.799 357.335Z" fill="#6A6D66"/>
<path d="M148.432 254.393C148.432 254.146 148.397 253.934 148.397 253.688C148.079 253.758 147.585 253.546 147.621 254.076C147.621 254.534 148.115 254.358 148.432 254.393Z" fill="#6A6D66"/>
<path d="M219.624 367.779C219.977 367.743 220.329 367.708 220.682 367.673C220.647 367.32 220.541 366.967 220.118 367.002C219.659 367.073 219.624 367.461 219.624 367.779Z" fill="#6A6D66"/>
<path d="M117.387 294.787C117.422 295.105 117.422 295.457 117.458 295.775C117.846 295.74 118.304 295.74 118.198 295.175C118.093 294.717 117.705 294.787 117.387 294.787Z" fill="#6A6D66"/>
<path d="M208.405 370.565C208.758 370.53 209.111 370.53 209.463 370.495C209.428 370.142 209.358 369.789 208.899 369.789C208.44 369.86 208.405 370.248 208.405 370.565Z" fill="#6A6D66"/>
<path d="M198.597 372.364C198.95 372.364 199.303 372.329 199.656 372.329C199.62 371.976 199.585 371.588 199.091 371.588C198.633 371.588 198.597 372.011 198.597 372.364Z" fill="#6A6D66"/>
<path d="M150.196 284.839C150.337 284.662 150.443 284.521 150.478 284.416C150.513 284.169 150.372 283.957 150.125 284.027C150.019 284.063 149.949 284.274 149.949 284.416C149.914 284.557 150.055 284.662 150.196 284.839Z" fill="#6A6D66"/>
<path d="M122.82 244.586C122.573 244.586 122.361 244.586 122.114 244.586C122.185 244.903 121.938 245.503 122.538 245.433C122.926 245.397 122.82 244.903 122.82 244.586Z" fill="#6A6D66"/>
<path d="M148.149 251.605C148.149 251.252 148.149 250.9 148.114 250.547C147.761 250.582 147.409 250.653 147.409 251.076C147.444 251.499 147.832 251.57 148.149 251.605Z" fill="#6A6D66"/>
<path d="M246.965 357.969C247.212 357.934 247.424 357.899 247.67 357.863C247.706 357.617 248.023 357.264 247.6 357.193C247.035 357.087 246.965 357.546 246.965 357.969Z" fill="#6A6D66"/>
<path d="M180.994 322.551C180.782 322.586 180.571 322.657 180.359 322.692C180.429 322.939 180.359 323.327 180.747 323.256C181.1 323.186 180.994 322.833 180.994 322.551Z" fill="#6A6D66"/>
<path d="M176.125 324.385C175.879 324.42 175.667 324.42 175.42 324.455C175.49 324.702 175.42 325.055 175.808 325.02C176.161 324.984 176.09 324.632 176.125 324.385Z" fill="#6A6D66"/>
<path d="M168.364 327.137C168.153 327.172 167.941 327.243 167.729 327.278C167.8 327.525 167.765 327.913 168.153 327.807C168.47 327.736 168.364 327.384 168.364 327.137Z" fill="#6A6D66"/>
<path d="M120.88 247.09C120.88 247.302 120.915 247.513 120.915 247.725C121.162 247.69 121.585 247.795 121.55 247.372C121.55 246.984 121.162 247.125 120.88 247.09Z" fill="#6A6D66"/>
<path d="M158.945 330.699C158.698 330.734 158.487 330.77 158.24 330.805C158.31 331.052 158.24 331.405 158.628 331.334C158.981 331.299 158.91 330.946 158.945 330.699Z" fill="#6A6D66"/>
<path d="M151.043 283.11C151.008 282.898 151.008 282.686 150.972 282.439C150.725 282.51 150.337 282.439 150.373 282.828C150.443 283.216 150.796 283.074 151.043 283.11Z" fill="#6A6D66"/>
<path d="M148.538 264.377C148.432 264.412 148.326 264.447 148.255 264.518C148.291 264.624 148.326 264.765 148.396 264.8C148.467 264.836 148.573 264.73 148.679 264.694C148.608 264.553 148.573 264.448 148.538 264.377Z" fill="#6A6D66"/>
<path d="M235.746 362.521C235.993 362.486 236.205 362.451 236.452 362.415C236.381 362.168 236.452 361.816 236.064 361.886C235.711 361.921 235.781 362.274 235.746 362.521Z" fill="#6A6D66"/>
<path d="M118.41 286.566C118.445 286.672 118.481 286.813 118.551 286.848C118.622 286.884 118.728 286.778 118.833 286.742C118.798 286.637 118.763 286.496 118.692 286.46C118.622 286.425 118.516 286.531 118.41 286.566Z" fill="#6A6D66"/>
<path d="M216.096 368.802C216.343 368.766 216.555 368.766 216.802 368.731C216.731 368.484 216.802 368.131 216.414 368.167C216.096 368.202 216.167 368.555 216.096 368.802Z" fill="#6A6D66"/>
<path d="M118.834 276.512C118.834 276.723 118.834 276.97 118.834 277.182C119.081 277.147 119.504 277.253 119.504 276.865C119.469 276.441 119.081 276.547 118.834 276.512Z" fill="#6A6D66"/>
<path d="M225.585 366.05C225.832 366.014 226.044 365.979 226.291 365.979C226.22 365.732 226.291 365.379 225.903 365.415C225.55 365.415 225.621 365.767 225.585 366.05Z" fill="#6A6D66"/>
<path d="M119.116 270.585C119.116 270.797 119.152 271.008 119.152 271.22C119.399 271.22 119.787 271.255 119.822 270.938C119.857 270.444 119.398 270.62 119.116 270.585Z" fill="#6A6D66"/>
<path d="M185.616 320.893C185.369 320.928 185.157 320.963 184.91 320.963C184.981 321.21 184.91 321.563 185.298 321.528C185.651 321.492 185.58 321.14 185.616 320.893Z" fill="#6A6D66"/>
<path d="M152.63 206.027C152.701 206.098 152.736 206.168 152.736 206.239C153.3 206.415 153.688 206.768 153.688 207.403L153.724 207.474L153.653 207.544C155.629 209.026 157.569 210.472 159.827 211.531C160.427 211.813 160.744 212.342 160.956 212.977C162.261 212.554 163.566 212.73 164.872 213.048C168.082 213.824 171.292 213.718 174.503 213.153C179.971 212.201 184.698 209.731 189.073 206.486C192.6 203.875 195.634 200.7 197.681 196.784C198.774 194.703 199.056 194.456 201.279 194.985C202.972 195.373 204.666 195.655 206.183 196.573C206.183 195.408 205.23 195.302 204.489 195.161C199.303 194.244 194.435 191.986 189.108 191.598C183.922 191.21 180.782 187.4 180.641 182.214C180.5 177.134 178.877 172.548 175.596 168.738C171.68 164.116 167.447 159.812 163.355 155.332C162.72 154.627 162.155 154.556 161.414 155.015C160.356 156.285 159.262 157.519 158.204 158.789C158.063 159.566 151.29 165.739 149.208 169.055C148.432 170.29 147.585 171.454 146.986 172.795C147.021 173.112 146.986 173.359 146.668 173.5C146.527 174.065 146.386 174.665 146.209 175.229C146.351 175.829 146.351 176.429 146.174 177.028C146.209 177.24 146.245 177.487 146.28 177.699C146.597 177.91 146.633 178.122 146.386 178.404C146.421 179.498 146.421 180.627 146.456 181.72C146.95 182.003 147.056 182.426 146.915 182.955C147.268 186.201 147.021 189.482 147.021 192.762C147.303 193.009 147.268 193.256 146.986 193.468C146.95 193.821 146.915 194.138 146.88 194.491C147.091 195.479 147.55 196.326 148.009 197.208C149.032 199.077 150.196 200.876 150.796 202.958C150.866 203.134 150.901 203.311 150.972 203.487C151.36 203.663 151.572 203.91 151.536 204.334C151.607 204.404 151.607 204.475 151.607 204.581C152.313 204.792 152.595 205.357 152.63 206.027Z" fill="#804311"/>
<path d="M161.485 154.908C162.226 154.45 162.79 154.52 163.425 155.226C167.482 159.706 171.751 164.045 175.667 168.632C178.912 172.442 180.57 177.063 180.712 182.108C180.853 187.294 183.992 191.104 189.178 191.492C194.541 191.915 199.374 194.173 204.56 195.055C205.301 195.196 206.253 195.302 206.253 196.466C206.359 196.466 206.429 196.501 206.535 196.537C207.77 195.478 209.111 194.561 209.816 193.009C208.828 193.009 208.511 193.891 207.911 194.385C207.453 194.738 207.1 195.337 206.429 194.914C204.489 193.75 202.196 193.785 200.115 193.044C196.622 191.774 193.024 190.927 189.319 190.504C184.275 189.94 182.087 187.153 181.735 182.531C181.488 179.462 181.135 176.428 179.83 173.571C178.207 170.043 175.773 167.079 173.197 164.257C170.834 161.682 168.223 159.353 165.965 156.672C165.33 155.896 165.154 155.367 165.965 154.626C168.717 152.157 171.433 149.652 174.15 147.147C174.644 146.688 175.067 146.512 175.596 147.182C176.901 148.876 178.277 150.534 179.653 152.192C183.604 156.919 187.52 161.646 191.507 166.374C194.153 169.514 196.869 172.618 199.55 175.793C202.584 179.391 205.653 182.955 208.511 186.624C209.71 188.176 211.51 189.516 211.227 191.88C212.497 191.316 213.732 191.421 214.932 192.127C216.202 189.375 216.06 189.199 214.12 186.941C208.123 179.991 202.231 172.971 196.269 166.021C192.212 161.294 188.085 156.672 184.028 151.945C181.735 149.299 179.477 146.653 177.007 144.184C175.737 142.914 174.361 142.808 173.091 143.796C169.528 146.618 165.965 149.405 163.108 152.968C162.543 153.638 161.485 153.85 161.485 154.908Z" fill="#CF9872"/>
<path d="M150.866 202.887C150.266 200.805 149.102 199.006 148.079 197.136C147.621 196.254 147.127 195.408 146.95 194.42C146.104 195.125 145.539 196.184 145.363 197.101C144.975 199.465 143.176 200.311 140.918 200.382C137.39 200.453 134.074 199.359 130.863 198.054C129.099 197.348 127.371 196.537 125.642 195.831C125.184 195.655 124.69 195.267 124.231 195.866C124.266 196.784 124.302 197.701 124.337 198.583C127.512 200.1 130.652 201.687 134.038 202.64C136.755 203.416 139.436 203.98 142.364 203.663C144.869 203.416 146.315 201.934 147.515 200.206C148.326 199.041 148.538 199.606 149.032 200.241C149.702 201.088 149.667 202.428 150.866 202.887Z" fill="#D09A74"/>
<path d="M160.18 233.014C160.744 234.849 160.991 236.719 160.885 238.624C160.92 238.871 160.956 239.082 160.991 239.329C161.344 239.752 161.697 240.141 161.485 240.776C161.52 240.987 161.591 241.234 161.626 241.446C162.755 243.21 163.637 245.115 164.448 247.055C164.836 247.761 165.26 248.431 165.648 249.137C165.789 249.207 166.001 249.278 166.071 249.383C169.811 255.063 173.621 260.708 176.125 267.093C176.584 268.222 176.937 269.422 178.454 269.633C180.112 269.845 181.241 269.139 182.087 267.763C182.828 266.564 183.569 265.4 184.381 264.271C190.166 255.875 195.387 247.161 198.774 237.424C199.162 236.295 199.303 234.884 200.432 234.073C200.468 233.826 200.538 233.614 200.573 233.367C200.362 232.838 200.75 232.591 201.067 232.309C201.103 232.062 201.138 231.85 201.208 231.603C201.067 231.215 201.314 230.968 201.632 230.792C201.667 230.58 201.702 230.368 201.738 230.121C202.02 228.816 202.337 227.511 203.325 226.523C203.36 226.311 203.431 226.1 203.466 225.888C203.89 224.618 204.136 223.313 205.089 222.29C205.124 222.078 205.16 221.866 205.195 221.655C204.913 221.126 205.124 220.808 205.653 220.667C205.724 220.314 205.759 219.961 205.83 219.644C206.077 218.621 205.971 217.492 206.888 216.716C206.923 216.504 206.959 216.292 206.959 216.081C206.677 215.516 207.1 215.34 207.453 215.093C207.523 214.74 207.558 214.423 207.629 214.07C207.911 213.188 207.629 212.094 208.617 211.459C208.652 210.895 208.687 210.33 208.723 209.766C208.617 208.813 209.464 209.307 209.852 209.06C209.181 206.167 208.335 203.345 207.1 200.664C204.948 202.463 202.761 204.192 200.926 206.309C198.527 209.096 196.058 211.777 193.306 214.176C191.119 216.116 188.649 217.598 185.862 218.55C180.782 220.279 175.561 220.491 170.41 219.15C166.988 218.268 163.531 217.174 160.815 214.67C160.462 216.187 160.109 217.704 159.756 219.22C159.933 220.385 160.568 221.514 160.391 222.748C160.885 222.96 161.026 223.277 160.709 223.736C160.956 223.983 160.991 224.301 160.885 224.618C161.379 225.006 161.379 225.394 160.956 225.818C161.203 226.558 161.167 227.334 160.92 228.075C161.203 228.287 161.203 228.463 160.885 228.605C161.062 229.063 161.026 229.486 160.674 229.839C161.026 230.615 160.638 231.18 160.18 231.744C160.356 232.238 160.356 232.626 160.18 233.014Z" fill="#804311"/>
<path d="M211.192 191.916C211.439 189.552 209.675 188.211 208.476 186.659C205.583 182.955 202.514 179.392 199.515 175.829C196.869 172.689 194.153 169.584 191.472 166.409C187.521 161.682 183.569 156.955 179.618 152.228C178.242 150.569 176.867 148.911 175.561 147.218C175.032 146.548 174.609 146.724 174.115 147.183C171.398 149.687 168.682 152.192 165.93 154.662C165.119 155.403 165.295 155.932 165.93 156.708C168.188 159.389 170.799 161.717 173.162 164.293C175.738 167.115 178.172 170.078 179.795 173.606C181.1 176.464 181.488 179.498 181.7 182.567C182.053 187.188 184.24 189.94 189.285 190.54C192.989 190.963 196.587 191.81 200.08 193.08C202.126 193.821 204.454 193.75 206.395 194.95C207.065 195.338 207.453 194.773 207.876 194.42C208.476 193.927 208.829 193.045 209.781 193.045C210.275 192.692 210.734 192.304 211.192 191.916Z" fill="#F6BA91"/>
<path d="M160.815 214.741C163.531 217.246 166.989 218.339 170.411 219.221C175.561 220.562 180.782 220.35 185.863 218.621C188.614 217.669 191.119 216.187 193.306 214.247C196.023 211.813 198.527 209.132 200.926 206.38C202.761 204.263 204.948 202.499 207.1 200.735C206.924 199.359 206.747 197.984 206.571 196.643C206.5 196.608 206.395 196.572 206.289 196.572C204.772 195.69 203.043 195.408 201.385 194.985C199.127 194.456 198.845 194.703 197.787 196.784C195.74 200.7 192.707 203.875 189.179 206.486C184.804 209.731 180.042 212.236 174.609 213.153C171.398 213.718 168.153 213.824 164.978 213.047C163.637 212.73 162.367 212.554 161.062 212.977C160.921 213.577 160.85 214.176 160.815 214.741Z" fill="#633401"/>
<path d="M313.605 346.893C313.429 348.092 313.923 348.798 314.911 349.186C315.898 349.574 316.78 349.538 317.627 348.692C321.049 345.27 323.871 341.354 326.835 337.579C328.493 335.462 330.045 333.31 331.632 331.158C331.985 330.7 332.373 330.241 332.62 329.747C333.149 328.689 333.643 327.454 332.479 326.572C331.386 325.761 330.221 326.255 329.339 327.172C327.717 328.83 326.094 330.488 324.577 332.287C321.19 336.274 317.909 340.331 314.593 344.352C314.029 345.093 313.288 345.869 313.605 346.893Z" fill="#4A4B46"/>
<path d="M114.6 333.735C115.235 333.382 115.271 332.958 114.671 332.535C114.318 332.923 114.283 333.311 114.6 333.735Z" fill="#6A6D66"/>
<path d="M200.433 234.107C199.304 234.954 199.163 236.33 198.775 237.459C195.388 247.16 190.167 255.874 184.381 264.306C183.605 265.47 182.829 266.634 182.088 267.798C181.241 269.174 180.112 269.88 178.454 269.668C176.937 269.456 176.549 268.257 176.126 267.128C173.656 260.743 169.846 255.098 166.071 249.418C166.001 249.277 165.789 249.242 165.648 249.171C165.719 250.547 166.777 251.429 167.447 252.452C170.658 257.426 173.727 262.471 175.914 268.045C177.008 270.867 179.936 271.644 182.017 268.715C187.979 260.39 193.518 251.782 197.61 242.363C198.775 239.681 199.515 236.859 200.433 234.107Z" fill="#804311"/>
<path d="M164.449 247.092C163.637 245.151 162.755 243.246 161.626 241.482C161.909 243.67 162.967 245.469 164.449 247.092Z" fill="#804311"/>
<path d="M203.325 226.594C202.337 227.582 202.02 228.887 201.738 230.192C202.69 229.169 203.184 227.97 203.325 226.594Z" fill="#804311"/>
<path d="M205.089 222.395C204.136 223.418 203.889 224.723 203.466 225.993C204.454 225.005 204.948 223.77 205.089 222.395Z" fill="#804311"/>
<path d="M206.853 216.822C205.936 217.598 206.042 218.727 205.795 219.75C206.959 219.045 206.536 217.81 206.853 216.822Z" fill="#804311"/>
<path d="M208.582 211.529C207.594 212.164 207.876 213.258 207.594 214.14C208.617 213.54 208.405 212.447 208.582 211.529Z" fill="#804311"/>
<path d="M205.618 220.773C205.089 220.915 204.878 221.232 205.16 221.761C205.513 221.514 206.042 221.373 205.618 220.773Z" fill="#804311"/>
<path d="M207.417 215.164C207.065 215.411 206.641 215.623 206.923 216.152C207.312 215.94 207.805 215.764 207.417 215.164Z" fill="#804311"/>
<path d="M201.067 232.344C200.75 232.626 200.362 232.873 200.573 233.402C200.997 233.155 201.526 232.979 201.067 232.344Z" fill="#804311"/>
<path d="M201.597 230.826C201.279 231.003 201.067 231.214 201.173 231.638C201.667 231.532 201.773 231.25 201.597 230.826Z" fill="#804311"/>
<path d="M160.215 231.85C160.674 231.286 161.062 230.721 160.709 229.945C160.321 230.545 160.215 231.18 160.215 231.85Z" fill="#E7CEBC"/>
<path d="M152.63 206.027C152.595 205.356 152.313 204.827 151.678 204.51C151.643 205.251 151.784 205.85 152.63 206.027Z" fill="#D09A74"/>
<path d="M160.992 225.924C161.38 225.501 161.38 225.077 160.921 224.725C160.674 225.148 160.639 225.536 160.992 225.924Z" fill="#E7CEBC"/>
<path d="M153.688 207.402C153.688 206.767 153.3 206.415 152.736 206.238C152.595 207.014 152.983 207.367 153.688 207.402Z" fill="#D09A74"/>
<path d="M160.709 223.806C161.027 223.348 160.886 223.03 160.392 222.818C160.462 223.171 160.286 223.595 160.709 223.806Z" fill="#E7CEBC"/>
<path d="M151.608 204.263C151.643 203.839 151.431 203.557 151.043 203.416C150.867 203.91 151.043 204.227 151.608 204.263Z" fill="#D09A74"/>
<path d="M160.92 228.711C161.273 228.57 161.273 228.393 160.956 228.182C160.779 228.323 160.744 228.499 160.92 228.711Z" fill="#E7CEBC"/>
<path d="M152.736 300.996C152.066 301.561 152.101 302.054 152.842 302.548C153.195 301.984 153.124 301.455 152.736 300.996Z" fill="#6A6D66"/>
<path d="M307.043 351.338C307.043 351.338 292.085 361.956 262.734 358.499L290.498 344.105L307.043 351.338Z" fill="#6A6D66"/>
<path d="M244.319 359.982C244.319 359.982 213.203 376.351 179.936 376.033C146.668 375.716 126.666 376.033 126.666 376.033C126.666 376.033 108.815 370.177 112.766 350.774C116.717 331.371 177.078 347.917 177.078 347.917L244.319 359.982Z" fill="#6A6D66"/>
<path d="M118.163 266.069L121.127 242.609L148.75 247.16L141.129 261.483L118.163 266.069Z" fill="#6A6D66"/>
<path d="M238.145 284.239C238.145 284.239 214.897 280.993 200.186 311.509L197.222 315.46L154.324 330.7C154.324 330.7 149.526 350.456 151.29 350.597C153.018 350.773 199.656 331.335 199.656 331.335L232.642 308.439L238.145 284.239Z" fill="#6A6D66"/>
<path d="M254.937 265.895L238.145 284.239L239.274 285.509L267.038 273.021L254.937 265.895Z" fill="#F6BA92"/>
<path d="M191.189 110.069C191.189 110.069 188.649 105.342 178.348 112.186C168.082 119.03 155.417 128.414 155.417 128.414L124.583 167.89L121.408 173.041C121.408 173.041 118.939 192.973 121.408 194.42C123.878 195.831 123.843 194.843 123.843 194.843L155.734 144.183C155.734 144.183 183.886 114.726 184.768 114.408C185.65 114.126 191.189 110.069 191.189 110.069Z" fill="#F6BA91"/>
<path d="M159.122 157.695L147.974 170.96C147.974 170.96 146.174 175.934 146.316 177.628C146.492 179.286 147.586 182.567 147.198 184.789C146.809 187.012 147.374 194.42 147.374 194.42L144.375 199.183L131.358 175.334L141.094 163.305L159.122 157.695Z" fill="#F6BA91"/>
<path d="M153.053 292.951L153.406 297.079L149.914 296.62L153.053 292.951Z" fill="#6A6D66"/>
<path d="M208.581 210.119C208.581 210.119 209.181 226.277 194.893 248.22C194.788 248.361 194.717 248.502 194.611 248.643C180.041 270.763 199.338 215.693 199.338 215.693L208.581 210.119Z" fill="#804311"/>
<path d="M147.233 195.303L157.111 212.836C157.111 212.836 161.097 219.327 161.661 222.855C162.191 226.242 163.637 229.876 160.215 233.439C156.793 237.002 147.832 246.386 147.832 246.386L148.467 222.855L147.233 195.303Z" fill="#F5BB94"/>
<path d="M166.494 250.547C166.494 250.547 159.438 242.539 160.85 236.154C162.225 229.804 166.494 250.547 166.494 250.547Z" fill="#804311"/>
</svg>
