<svg width="497" height="497" viewBox="0 0 497 497" fill="none" xmlns="http://www.w3.org/2000/svg">
<path d="M324.272 378.674C343.534 379.978 374.817 377.08 380.611 375.051C385.969 373.168 392.921 364.618 382.928 351.866C376.121 343.171 370.472 337.52 344.693 326.941C319.782 316.798 258.374 319.841 235.201 323.174C229.263 323.753 223.904 324.913 219.559 326.072C211.014 328.39 239.835 366.357 251.567 368.241C277.057 366.647 313.699 349.982 325.43 348.388C325.141 348.533 322.968 378.529 324.272 378.674Z" fill="#333333"/>
<path d="M317 349C317 349 332.523 342.05 351.999 346.473C352.146 346.315 325.786 347.736 317 349Z" fill="#333333"/>
<path d="M282 350.086C282 350.086 263.177 305.908 250.58 306.342C249.132 306.342 246.091 305.764 245.222 305.62C222.056 301.722 213.658 317.458 209.024 318.18C204.101 319.046 218.001 369.288 227.847 368.999C247.25 368.421 251.883 366.978 264.625 362.213C271.864 359.47 282 350.086 282 350.086Z" fill="#3D3C3C"/>
<path d="M211.557 375.55C211.557 369.606 234.753 367.431 238.378 364.677C240.118 363.227 242.147 360.327 246.932 358.877C254.76 357.428 259.255 364.387 261.429 363.517C269.983 363.517 301.444 349.599 325.075 348.149C326.815 348.004 326.09 378.45 324.205 378.305C301.734 375.55 265.199 378.305 258.095 378.74C258.095 378.74 235.623 378.305 230.114 379.029C226.924 379.464 211.557 381.494 211.557 375.55Z" fill="#ECAD83"/>
<path d="M164.438 161.126C169.803 163.881 161.539 187.803 162.264 192.297C162.699 194.472 165.308 197.226 164.148 202.3C162.844 208.825 157.334 211.289 156.465 213.464C151.825 225.352 151.825 268.411 151.245 275.515C150.085 289.868 117.9 274.79 119.495 269.716C126.019 249.854 141.387 210.274 144.576 203.315C144.576 203.315 150.52 180.989 152.55 175.914C153.855 172.87 159.219 158.372 164.438 161.126Z" fill="#ECAD83"/>
<path d="M140.837 325.851C145.202 305.873 149.422 295.374 151.314 275.104C138.799 276.562 125.848 272.333 119.3 270C113.479 295.228 100.091 358.808 114.352 365.516C129.341 372.515 229.895 369.453 234.26 368.578C250.85 365.516 268.894 341.309 262.782 331.101C262.782 331.101 246.484 317.831 227.276 317.393C193.224 316.518 140.837 325.851 140.837 325.851Z" fill="#3D3C3C"/>
<path d="M296.975 214.028C291.14 197.23 280.928 195.203 262.839 183.908C260.505 182.46 247.668 182.605 242.708 185.356C237.165 188.542 232.643 192.886 230.455 199.692C226.078 213.014 254.67 242.554 257.734 262.538C261.381 275.86 258.317 305.11 251.023 306.124L282.679 350C324.4 280.928 303.539 243.423 296.829 226.771C296.829 226.771 299.017 219.82 296.975 214.028Z" fill="#FF8AA0"/>
<path d="M244.958 181.656C244.958 181.656 240.146 177.672 232.562 170L212 182.984C223.667 186.82 231.687 197 231.687 197C240 183.131 249.625 185.344 254 182.541L244.958 181.656Z" fill="#ECAD83"/>
<path d="M191.63 160.662C182.433 159.207 177.469 165.898 174.841 170.116C166.957 183.351 169.877 191.641 175.279 201.531C182.287 214.476 219.37 200.95 224.48 196.586C237.912 185.533 232.51 161.68 228.13 152.953C223.312 143.499 221.414 147.572 217.764 149.899C217.618 150.044 216.888 149.753 216.888 149.753C215.574 150.481 213.822 151.499 211.632 151.499C211.632 151.499 210.61 152.517 210.026 152.808C209.588 153.099 209.296 153.099 208.858 152.808C207.69 151.644 206.522 150.626 205.646 150.481C203.164 149.753 195.864 161.243 191.63 160.662Z" fill="#F6BB92"/>
<path d="M216 156C216 156 216 154.811 214.095 150.503C213.587 150.057 212.698 149.462 212.063 150.948C211.555 151.988 214.222 153.177 216 156Z" fill="#D6876B"/>
<path d="M216.07 156C216.07 156 217.723 154 216.621 149.714C216.208 149.143 215.657 149 215.381 149C213.865 149.143 214.003 150.714 214.003 150.714C216.07 154.857 216.07 156 216.07 156Z" fill="#CC785E"/>
<path d="M173.76 203.396C182.289 219.111 216.405 227.762 231.44 191.862C232.451 189.411 232.741 185.086 226.525 182.202C222.043 180.184 217.273 179.607 217.273 179.607C215.827 179.463 214.382 179.319 212.647 179.174C210.912 179.03 203.684 184.221 202.528 182.779C191.686 168.65 179.977 166.487 175.784 168.794C167.111 176.003 164.653 186.672 173.76 203.396Z" fill="#602F0F"/>
<path d="M214.893 184.293C220.703 178.158 219.396 174.944 216.781 171L207.195 179.327L204 183.855C206.614 187.799 209.229 190.575 214.893 184.293Z" fill="#F6BB92"/>
<path d="M211.89 215.43C210.707 221.004 201.981 223.565 192.367 221.004C182.754 218.443 175.95 211.965 177.134 206.39C178.317 200.816 185.416 199.762 195.03 202.323C204.495 204.733 213.074 209.705 211.89 215.43Z" fill="#4C230C"/>
<path d="M203.583 180.263C202.423 181.133 201.263 181.858 200.393 182.293C199.089 183.018 198.074 183.308 198.074 183.308L202.133 186.932C202.858 186.642 203.438 186.207 204.163 185.772C204.163 185.772 203.728 185.337 203.003 184.613C203.003 184.613 203.003 184.613 203.148 184.758C203.873 183.598 205.033 181.858 206.917 179.828C206.917 179.973 207.207 177.509 203.583 180.263Z" fill="#602F0F"/>
<path d="M212.282 217.957C211.122 223.611 201.699 226.076 191.405 223.466C181.112 220.857 173.718 214.043 175.022 208.388C176.182 202.734 183.866 201.719 194.16 204.329C204.453 207.084 213.587 212.303 212.282 217.957Z" fill="#602F0F"/>
<path d="M196.995 222.702C196.843 223.185 194.11 223.064 190.77 222.461C187.429 221.737 185 220.772 185 220.29C185.152 219.807 187.429 219.928 190.77 220.651C194.11 221.255 197.146 222.099 196.995 222.702Z" fill="#4C230C"/>
<path d="M168.498 146.338C168.498 146.338 211.991 124.591 220.4 119.082C224.749 116.327 228.809 116.037 230.259 116.762C231.853 117.487 234.463 120.677 237.363 125.896C244.032 138.509 260.559 193.021 258.53 207.809C257.08 217.813 243.452 218.828 235.768 213.608C230.694 210.129 229.389 201.43 229.389 195.341C229.389 191.571 228.954 187.077 226.779 172.434C225.184 163.59 223.735 150.397 221.995 140.539C221.995 140.539 201.263 142.134 177.051 155.472L168.498 146.338Z" fill="#F6BB92"/>
<path d="M176.907 155.472C178.936 153.732 168.498 146.483 168.498 146.483C168.498 146.483 166.323 148.513 161.684 150.543C155.305 153.442 148.346 160.836 146.316 166.346C144.431 171.13 145.591 177.654 149.361 181.568C153.13 185.483 167.773 167.505 173.717 163.881L176.907 155.472Z" fill="#F6BB92"/>
<path d="M166.903 166.925C166.903 166.925 161.249 171.565 163.424 174.754C165.163 177.509 166.033 178.234 173.572 163.736C173.572 163.736 171.977 162.431 166.903 166.925Z" fill="#F6BB92"/>
</svg>
