<svg width="497" height="497" viewBox="0 0 497 497" fill="none" xmlns="http://www.w3.org/2000/svg">
<path d="M361.027 394.582C385.502 396.24 425.25 392.556 432.611 389.977C439.42 387.582 448.253 376.714 435.555 360.503C426.906 349.451 419.73 342.267 386.974 328.82C355.323 315.925 277.298 319.794 247.855 324.03C240.311 324.767 233.502 326.241 227.981 327.714C217.124 330.662 253.744 378.924 268.649 381.319C301.037 379.293 347.594 358.109 362.5 356.082C362.131 356.267 359.371 394.398 361.027 394.582Z" fill="#333333"/>
<path d="M352 356.996C352 356.996 371.958 348.308 396.999 353.837C397.187 353.639 363.297 355.416 352 356.996Z" fill="#333333"/>
<path d="M307 358.058C307 358.058 283.09 302.146 267.088 302.694C265.249 302.694 261.386 301.963 260.283 301.78C230.854 296.847 220.187 316.764 214.301 317.677C208.047 318.773 225.704 382.36 238.211 381.995C262.858 381.264 268.743 379.436 284.929 373.407C294.125 369.935 307 358.058 307 358.058Z" fill="#3D3C3C"/>
<path d="M217.57 390.693C217.57 383.12 247.125 380.349 251.743 376.84C253.959 374.992 256.545 371.298 262.641 369.451C272.616 367.604 278.342 376.47 281.113 375.362C292.011 375.362 332.094 357.629 362.203 355.782C364.42 355.597 363.496 394.388 361.095 394.203C332.464 390.693 285.915 394.203 276.864 394.757C276.864 394.757 248.233 394.203 241.214 395.126C237.15 395.681 217.57 398.267 217.57 390.693Z" fill="#ECAD83"/>
<path d="M157.536 117.496C164.371 121.005 153.842 151.483 154.766 157.21C155.32 159.98 158.645 163.49 157.167 169.955C155.504 178.267 148.485 181.408 147.377 184.178C141.466 199.325 141.466 254.186 140.727 263.237C139.249 281.524 98.2424 262.313 100.274 255.848C108.586 230.542 128.166 180.114 132.23 171.248C132.23 171.248 139.804 142.802 142.39 136.337C144.052 132.458 150.886 113.986 157.536 117.496Z" fill="#ECAD83"/>
<path d="M127.677 327.486C133.218 301.914 138.575 288.474 140.976 262.529C125.092 264.396 108.653 258.983 100.342 255.996C92.9541 288.288 75.9619 369.67 94.0623 378.256C113.086 387.216 240.713 383.296 246.254 382.176C267.309 378.256 290.212 347.271 282.454 334.205C282.454 334.205 261.768 317.22 237.388 316.66C194.169 315.54 127.677 327.486 127.677 327.486Z" fill="#3D3C3C"/>
<path d="M326.007 184.57C318.601 163.146 305.64 160.561 282.681 146.155C279.718 144.308 263.425 144.492 257.13 148.001C250.094 152.065 244.354 157.605 241.577 166.286C236.022 183.278 272.312 220.955 276.2 246.442C280.829 263.434 276.941 300.742 267.683 302.034L307.862 357.996C360.815 269.898 334.339 222.063 325.821 200.823C325.821 200.823 328.599 191.958 326.007 184.57Z" fill="#FF8AA0"/>
<path d="M260.375 143.674C260.375 143.674 254.187 138.657 244.437 128.996L218 145.346C233 150.176 243.312 162.996 243.312 162.996C254 145.532 266.375 148.318 272 144.788L260.375 143.674Z" fill="#ECAD83"/>
<path d="M192.467 116.529C180.787 114.662 174.484 123.248 171.147 128.661C161.136 145.647 164.844 156.286 171.703 168.978C180.602 185.59 227.692 168.232 234.181 162.632C251.237 148.446 244.377 117.835 238.816 106.636C232.698 94.5035 230.287 99.7298 225.653 102.716C225.467 102.903 224.54 102.53 224.54 102.53C222.872 103.463 220.647 104.769 217.866 104.769C217.866 104.769 216.568 106.076 215.827 106.449C215.271 106.823 214.9 106.823 214.344 106.449C212.86 104.956 211.377 103.65 210.265 103.463C207.113 102.53 197.844 117.275 192.467 116.529Z" fill="#F6BB92"/>
<path d="M223 110.996C223 110.996 223 109.411 220.619 103.666C219.984 103.072 218.873 102.279 218.079 104.26C217.444 105.647 220.778 107.232 223 110.996Z" fill="#D6876B"/>
<path d="M223.76 110.996C223.76 110.996 225.964 108.425 224.495 102.914C223.944 102.18 223.209 101.996 222.841 101.996C220.821 102.18 221.004 104.2 221.004 104.2C223.76 109.527 223.76 110.996 223.76 110.996Z" fill="#CC785E"/>
<path d="M169.381 171.505C180.308 191.711 224.019 202.833 243.282 156.676C244.578 153.525 244.949 147.963 236.985 144.256C231.243 141.661 225.131 140.919 225.131 140.919C223.279 140.734 221.426 140.549 219.204 140.363C216.981 140.178 207.72 146.851 206.239 144.998C192.347 126.831 177.345 124.051 171.974 127.017C160.861 136.285 157.712 150.003 169.381 171.505Z" fill="#602F0F"/>
<path d="M221.798 147.199C229.157 139.259 227.501 135.1 224.19 129.996L212.047 140.772L208 146.632C211.312 151.736 214.623 155.328 221.798 147.199Z" fill="#F6BB92"/>
<path d="M217.862 186.548C216.375 193.715 205.405 197.008 193.319 193.715C181.233 190.422 172.681 182.093 174.168 174.927C175.655 167.76 184.58 166.404 196.666 169.697C208.566 172.796 219.35 179.188 217.862 186.548Z" fill="#4C230C"/>
<path d="M207.41 141.881C205.932 142.99 204.454 143.913 203.346 144.467C201.684 145.391 200.391 145.76 200.391 145.76L205.563 150.378C206.486 150.009 207.225 149.455 208.149 148.901C208.149 148.901 207.595 148.346 206.671 147.423C206.671 147.423 206.671 147.423 206.856 147.607C207.779 146.13 209.257 143.913 211.658 141.327C211.658 141.512 212.028 138.372 207.41 141.881Z" fill="#602F0F"/>
<path d="M218.492 189.907C217.015 197.111 205.008 200.251 191.893 196.927C178.778 193.602 169.358 184.92 171.02 177.716C172.498 170.512 182.288 169.219 195.403 172.544C208.518 176.054 220.155 182.703 218.492 189.907Z" fill="#602F0F"/>
<path d="M198.993 195.698C198.803 196.181 195.387 196.06 191.212 195.457C187.037 194.733 184 193.768 184 193.286C184.19 192.803 187.037 192.924 191.212 193.648C195.387 194.251 199.183 195.095 198.993 195.698Z" fill="#4C230C"/>
<path d="M162.707 98.6535C162.707 98.6535 218.122 70.9461 228.835 63.9269C234.377 60.4173 239.549 60.0479 241.396 60.9714C243.428 61.895 246.753 65.9588 250.447 72.6086C258.944 88.6789 280.002 158.132 277.416 176.973C275.569 189.719 258.205 191.012 248.415 184.362C241.95 179.929 240.288 168.846 240.288 161.088C240.288 156.285 239.734 150.559 236.963 131.902C234.931 120.635 233.084 103.826 230.867 91.2649C230.867 91.2649 204.453 93.2968 173.605 110.291L162.707 98.6535Z" fill="#F6BB92"/>
<path d="M173.421 110.288C176.008 108.072 162.708 98.8359 162.708 98.8359C162.708 98.8359 159.937 101.422 154.026 104.008C145.899 107.702 137.032 117.123 134.446 124.142C132.045 130.238 133.523 138.55 138.325 143.537C143.128 148.525 161.784 125.62 169.358 121.002L173.421 110.288Z" fill="#F6BB92"/>
<path d="M160.677 124.882C160.677 124.882 153.473 130.793 156.244 134.857C158.46 138.366 159.569 139.29 169.174 120.818C169.174 120.818 167.142 119.156 160.677 124.882Z" fill="#F6BB92"/>
</svg>
