<svg width="497" height="497" viewBox="0 0 497 497" fill="none" xmlns="http://www.w3.org/2000/svg">
<path d="M67.2734 71.2772C71.675 68.6105 85.6344 85.7537 89.2815 87.2775C91.1679 88.0394 94.3119 87.4045 97.4559 90.4522C101.606 94.3887 100.6 99.9761 102.235 101.373C110.158 108.23 129.65 129.31 139.208 137.818C141.346 139.723 143.61 141.882 145.873 144.04C154.802 152.802 132.92 166.898 130.028 163.469C118.332 149.374 93.18 111.278 89.533 105.691C89.533 105.691 75.8251 90.9601 72.8069 87.1505C71.172 84.6108 62.8718 73.944 67.2734 71.2772Z" fill="#ECAD83"/>
<path d="M170.72 172.163C160.986 161.262 155.297 153.404 144.804 141.996C143.287 146.179 132.414 159.361 129.001 161.516C132.162 164.685 152.263 192.697 152.263 192.697C155.929 198.021 210.923 261.65 224.197 267.101C229.001 269.255 233.426 270.903 237.218 271.917C244.551 273.945 261.997 236.3 253.906 229.835C233.931 219.695 201.82 195.232 192.844 188.514C184.753 182.43 170.72 172.163 170.72 172.163Z" fill="#333333"/>
<path d="M437.993 391.697C438.373 387.926 424.964 385.789 412.315 383.778C407.634 383.024 399.285 380.887 399.285 380.887C384.612 369.952 375.757 361.781 375.757 361.781C358.933 341.67 332.875 302.704 324.527 297.174C316.178 291.643 303.149 306.978 309.853 314.394C316.557 321.81 323.009 329.226 330.219 336.014C339.959 348.96 358.301 366.935 364.373 373.345C374.239 383.778 387.015 388.429 387.015 388.429C387.015 388.429 398.021 395.216 402.195 396.85C406.496 398.484 412.315 399.741 417.88 398.485C422.308 397.479 437.487 396.473 437.993 391.697Z" fill="#ECAD83"/>
<path d="M279.779 325.088C290.711 336.172 302.532 329.497 320.456 334.913C322.744 335.542 333.421 332.519 336.981 328.993C340.921 325.088 344.353 320.302 343.972 314.131C343.718 309.345 340.286 297.001 315.371 280.88C304.439 272.693 287.024 256.949 265.034 239.19C257.025 237.805 236.051 226.091 236.051 226.091C225.755 223.95 218.001 258.712 218.001 258.712C249.78 293.727 265.669 300.906 275.33 313.249C275.33 313.249 276.601 321.94 279.779 325.088Z" fill="#FF8AA0"/>
<path d="M327.572 337.075C327.572 337.075 338.424 341.847 347.509 346.996L360.001 335.568C350.411 331.047 342.209 319.996 342.209 319.996C332.493 332.554 324.039 333.433 320.001 335.317L327.572 337.075Z" fill="#ECAD83"/>
<path d="M376.83 367.515C383.641 371.812 389.822 368.147 393.353 365.619C404.201 357.656 404.579 350.072 403.696 340.34C402.435 327.574 368.379 325.804 362.829 327.574C348.324 331.871 344.54 352.727 345.044 361.195C345.675 370.422 348.576 367.768 352.234 367.136C352.36 367.136 352.991 367.515 352.991 367.515C354.252 367.389 356.018 367.136 357.658 367.894C357.658 367.894 358.793 367.515 359.423 367.389C359.802 367.262 360.054 367.389 360.306 367.768C360.937 369.032 361.442 370.296 362.072 370.801C363.964 372.192 373.676 365.619 376.83 367.515Z" fill="#F6BB92"/>
<path d="M356.226 361.996C356.226 361.996 355.8 362.89 356.12 367.105C356.333 367.615 356.865 368.509 357.824 367.615C358.569 366.977 356.759 364.933 356.226 361.996Z" fill="#D6876B"/>
<path d="M356.001 361.996C356.001 361.996 353.715 363.005 353.001 366.916C353.144 367.421 353.715 367.799 354.001 367.925C355.43 368.304 355.858 367.042 355.858 367.042C355.572 362.879 356.001 361.996 356.001 361.996Z" fill="#CC785E"/>
<path d="M405.756 338.853C404.254 323.262 380.1 304.502 355.82 328.332C354.193 329.98 352.441 333.402 356.446 337.839C359.325 341.008 362.954 343.036 362.954 343.036C364.08 343.669 365.207 344.303 366.458 344.937C367.835 345.698 375.344 343.923 375.719 345.444C379.474 360.528 388.109 366.359 392.239 365.979C401.751 363.317 407.258 355.585 405.756 338.853Z" fill="#602F0F"/>
<path d="M367.362 340.135C360.629 343.131 360.629 346.002 361.264 349.996L371.809 346.751L376.001 344.254C375.239 340.26 374.095 337.264 367.362 340.135Z" fill="#F6BB92"/>
<path d="M379.779 317.375C382.554 313.482 390.247 314.487 396.931 319.51C403.615 324.659 406.768 331.942 403.994 335.835C401.219 339.728 395.292 338.095 388.607 333.072C382.049 327.923 377.004 321.268 379.779 317.375Z" fill="#4C230C"/>
<path d="M374.434 347.427C375.699 347.048 376.837 346.922 377.722 346.922C378.986 346.795 379.871 346.922 379.871 346.922L377.848 342.496C377.216 342.496 376.457 342.623 375.825 342.623C375.825 342.623 376.078 343.128 376.331 343.887V343.761C375.319 344.519 373.929 345.404 371.653 346.416C371.653 346.669 370.515 348.439 374.434 347.427Z" fill="#602F0F"/>
<path d="M380.378 314.298C383.286 310.126 391.631 311.39 398.965 316.954C406.298 322.644 409.965 330.483 406.931 334.656C404.022 338.828 397.574 336.932 390.24 331.368C382.907 325.678 377.343 318.471 380.378 314.298Z" fill="#602F0F"/>
<path d="M394.026 315.137C394.439 314.589 396.64 315.686 399.118 317.605C401.595 319.524 403.246 321.443 402.971 321.854C402.558 322.403 400.769 321.306 398.292 319.524C395.815 317.605 393.75 315.686 394.026 315.137Z" fill="#4C230C"/>
<path d="M462.942 414.32C463.321 410.527 450.297 408.378 437.274 406.354C432.595 405.596 424.25 403.446 424.25 403.446C390.869 383.089 376.455 367.537 376.455 367.537C359.638 347.306 332.959 302.545 324.613 296.982C316.268 291.418 303.245 306.844 309.946 314.304C315.51 323.787 320.188 330.11 329.418 339.846C345.856 360.077 359.132 372.721 365.075 379.169C374.938 389.664 411.985 411.159 411.985 411.159C411.985 411.159 422.986 417.987 427.158 419.631C431.457 421.275 437.274 422.539 442.837 421.275C447.136 420.01 462.436 418.999 462.942 414.32Z" fill="#F6BB92"/>
<path d="M104.224 420.264C99.9253 420.138 96.8906 418.368 91.58 417.736C85.005 416.851 74.0045 417.862 72.993 416.471C70.4641 412.678 73.4988 406.482 76.9127 403.827C79.568 401.804 82.6026 400.539 83.7406 398.769C89.6834 390.045 110.42 366.4 117.754 356.032C119.397 353.629 121.294 351.227 123.191 348.824C131.03 338.962 146.077 360.963 142.916 364.25C130.271 377.4 96.8906 402.183 91.8329 406.356C91.8329 406.356 122.306 414.069 118.765 417.356C116.869 419.253 109.408 420.264 104.224 420.264Z" fill="#F6BB92"/>
<path d="M151.388 318.726C140.641 328.715 131.157 338.831 123.444 348.693C127.617 350.084 141.02 360.832 143.169 364.119C146.33 360.832 172.251 336.807 172.251 336.807C180.47 329.221 229.277 284.966 240.024 267.517C242.933 263.091 245.209 259.045 246.852 255.378C250.14 248.424 215.874 225.159 208.034 231.987C194.758 249.941 176.677 288.127 171.113 296.725C165.803 305.576 151.388 318.726 151.388 318.726Z" fill="#3D3C3C"/>
<path d="M265.188 239.068C244.704 219.849 234.336 220.86 223.083 223.136C223.083 223.136 212.461 225.665 205.886 231.229C192.357 242.735 192.736 257.782 192.736 257.782C192.736 257.782 216.128 290.277 222.956 284.208C228.52 279.277 233.704 274.725 238.382 270.805C243.693 266.38 265.188 239.068 265.188 239.068Z" fill="#3D3C3C"/>
</svg>
