<svg width="497" height="497" viewBox="0 0 497 497" fill="none" xmlns="http://www.w3.org/2000/svg">
<path d="M92.0001 109.7C95.5001 107.6 106.6 121.1 109.5 122.3C111 122.9 113.5 122.4 116 124.8C119.3 127.9 118.5 132.3 119.8 133.4C126.1 138.8 141.6 155.4 149.2 162.1C150.9 163.6 152.7 165.3 154.5 167C161.6 173.9 144.2 185 141.9 182.3C132.6 171.2 112.6 141.2 109.7 136.8C109.7 136.8 98.8001 125.2 96.4001 122.2C95.1001 120.2 88.5001 111.8 92.0001 109.7Z" fill="#ECAD83"/>
<path d="M173.7 189.3C166 180.7 161.5 174.5 153.2 165.5C152 168.8 143.4 179.2 140.7 180.9C143.2 183.4 159.1 205.5 159.1 205.5C162 209.7 205.5 259.9 216 264.2C219.8 265.9 223.3 267.2 226.3 268C232.1 269.6 245.9 239.9 239.5 234.8C223.7 226.8 198.3 207.5 191.2 202.2C184.8 197.4 173.7 189.3 173.7 189.3Z" fill="#333333"/>
<path d="M385.4 363.3C385.7 360.3 375.1 358.6 365.1 357C361.4 356.4 354.8 354.7 354.8 354.7C343.2 346 336.2 339.5 336.2 339.5C322.9 323.5 302.3 292.5 295.7 288.1C289.1 283.7 278.8 295.9 284.1 301.8C289.4 307.7 294.5 313.6 300.2 319C307.9 329.3 322.4 343.6 327.2 348.7C335 357 345.1 360.7 345.1 360.7C345.1 360.7 353.8 366.1 357.1 367.4C360.5 368.7 365.1 369.7 369.5 368.7C373 367.9 385 367.1 385.4 363.3Z" fill="#ECAD83"/>
<path d="M260.4 310.6C269 319.4 278.3 314.1 292.4 318.4C294.2 318.9 302.6 316.5 305.4 313.7C308.5 310.6 311.2 306.8 310.9 301.9C310.7 298.1 308 288.3 288.4 275.5C279.8 269 266.1 256.5 248.8 242.4C242.5 241.3 226 232 226 232C217.9 230.3 211.8 257.9 211.8 257.9C236.8 285.7 249.3 291.4 256.9 301.2C256.9 301.2 257.9 308.1 260.4 310.6Z" fill="#FF8AA0"/>
<path d="M298.4 319.8C298.4 319.8 307 323.6 314.2 327.7L324.1 318.6C316.5 315 310 306.2 310 306.2C302.3 316.2 295.6 316.9 292.4 318.4L298.4 319.8Z" fill="#ECAD83"/>
<path d="M337.3 343.8C342.7 347.2 347.6 344.3 350.4 342.3C359 336 359.3 330 358.6 322.3C357.6 312.2 330.6 310.8 326.2 312.2C314.7 315.6 311.7 332.1 312.1 338.8C312.6 346.1 314.9 344 317.8 343.5C317.9 343.5 318.4 343.8 318.4 343.8C319.4 343.7 320.8 343.5 322.1 344.1C322.1 344.1 323 343.8 323.5 343.7C323.8 343.6 324 343.7 324.2 344C324.7 345 325.1 346 325.6 346.4C327.1 347.5 334.8 342.3 337.3 343.8Z" fill="#F6BB92"/>
<path d="M320.5 339.9C320.5 339.9 320.1 340.6 320.4 343.9C320.6 344.3 321.1 345 322 344.3C322.7 343.8 321 342.2 320.5 339.9Z" fill="#D6876B"/>
<path d="M320.5 339.9C320.5 339.9 318.9 340.7 318.4 343.8C318.5 344.2 318.9 344.5 319.1 344.6C320.1 344.9 320.4 343.9 320.4 343.9C320.2 340.6 320.5 339.9 320.5 339.9Z" fill="#CC785E"/>
<path d="M360.3 321.5C359.1 309.2 339.8 294.4 320.4 313.2C319.1 314.5 317.7 317.2 320.9 320.7C323.2 323.2 326.1 324.8 326.1 324.8C327 325.3 327.9 325.8 328.9 326.3C330 326.9 336 325.5 336.3 326.7C339.3 338.6 346.2 343.2 349.5 342.9C357.1 340.8 361.5 334.7 360.3 321.5Z" fill="#602F0F"/>
<path d="M329.5 322.4C324.2 324.8 324.2 327.1 324.7 330.3L333 327.7L336.3 325.7C335.7 322.5 334.8 320.1 329.5 322.4Z" fill="#F6BB92"/>
<path d="M339.7 304C341.9 300.9 348 301.7 353.3 305.7C358.6 309.8 361.1 315.6 358.9 318.7C356.7 321.8 352 320.5 346.7 316.5C341.5 312.4 337.5 307.1 339.7 304Z" fill="#4C230C"/>
<path d="M335.2 328.1C336.2 327.8 337.1 327.7 337.8 327.7C338.8 327.6 339.5 327.7 339.5 327.7L337.9 324.2C337.4 324.2 336.8 324.3 336.3 324.3C336.3 324.3 336.5 324.7 336.7 325.3V325.2C335.9 325.8 334.8 326.5 333 327.3C333 327.5 332.1 328.9 335.2 328.1Z" fill="#602F0F"/>
<path d="M339.9 301.9C342.2 298.6 348.8 299.6 354.6 304C360.4 308.5 363.3 314.7 360.9 318C358.6 321.3 353.5 319.8 347.7 315.4C341.9 310.9 337.5 305.2 339.9 301.9Z" fill="#602F0F"/>
<path d="M351 302.9C351.3 302.5 352.9 303.3 354.7 304.7C356.5 306.1 357.7 307.5 357.5 307.8C357.2 308.2 355.9 307.4 354.1 306.1C352.3 304.7 350.8 303.3 351 302.9Z" fill="#4C230C"/>
<path d="M405.2 381C405.5 378 395.2 376.3 384.9 374.7C381.2 374.1 374.6 372.4 374.6 372.4C348.2 356.3 336.8 344 336.8 344C323.5 328 302.4 292.6 295.8 288.2C289.2 283.8 278.9 296 284.2 301.9C288.6 309.4 292.3 314.4 299.6 322.1C312.6 338.1 323.1 348.1 327.8 353.2C335.6 361.5 364.9 378.5 364.9 378.5C364.9 378.5 373.6 383.9 376.9 385.2C380.3 386.5 384.9 387.5 389.3 386.5C392.7 385.5 404.8 384.7 405.2 381Z" fill="#F6BB92"/>
<path d="M121.5 385.7C118.1 385.6 115.7 384.2 111.5 383.7C106.3 383 97.5998 383.8 96.7998 382.7C94.7998 379.7 97.1998 374.8 99.8998 372.7C102 371.1 104.4 370.1 105.3 368.7C110 361.8 126.4 343.1 132.2 334.9C133.5 333 135 331.1 136.5 329.2C142.7 321.4 154.6 338.8 152.1 341.4C142.1 351.8 115.7 371.4 111.7 374.7C111.7 374.7 135.8 380.8 133 383.4C131.5 384.9 125.6 385.7 121.5 385.7Z" fill="#F6BB92"/>
<path d="M158.8 305.399C150.3 313.299 142.8 321.299 136.7 329.099C140 330.199 150.6 338.699 152.3 341.299C154.8 338.699 175.3 319.699 175.3 319.699C181.8 313.699 220.4 278.699 228.9 264.899C231.2 261.399 233 258.199 234.3 255.299C236.9 249.799 209.8 231.399 203.6 236.799C193.1 250.999 178.8 281.199 174.4 287.999C170.2 294.999 158.8 305.399 158.8 305.399Z" fill="#3D3C3C"/>
<path d="M248.8 242.4C232.6 227.2 224.4 228 215.5 229.8C215.5 229.8 207.1 231.8 201.9 236.2C191.2 245.3 191.5 257.2 191.5 257.2C191.5 257.2 210 282.9 215.4 278.1C219.8 274.2 223.9 270.6 227.6 267.5C231.8 264 248.8 242.4 248.8 242.4Z" fill="#3D3C3C"/>
</svg>
