<svg width="500" height="500" viewBox="0 0 500 500" fill="none" xmlns="http://www.w3.org/2000/svg">
<path d="M111.034 130.059C111.659 130.775 112.396 131.336 113.218 131.826C126.056 139.495 138.886 147.182 151.717 154.87C154.881 156.764 158.042 158.665 161.214 160.549C161.778 160.884 162.29 161.241 162.685 161.787C162.942 162.147 163.298 162.44 163.63 162.74C170.019 168.462 176.418 174.17 182.804 179.899C186.554 183.261 190.29 186.634 194.011 190.027C197.582 193.284 201.148 196.55 204.676 199.856C207.876 202.854 211.015 205.92 214.19 208.943C218.124 212.69 222.05 216.447 226.019 220.155C227.141 221.202 228.192 222.345 229.462 223.231C229.547 223.182 229.642 223.143 229.716 223.079C230.729 222.201 231.011 222.158 232.055 222.811C232.983 223.39 233.911 223.965 234.814 224.579C238.26 226.925 241.704 229.281 245.14 231.645C247.838 233.5 250.523 235.381 253.222 237.24C256.697 239.635 260.186 242.009 263.657 244.408C266.391 246.296 269.224 248.049 271.82 250.137C271.894 250.197 272.004 250.208 272.095 250.243C272.526 250.162 272.748 249.809 273.027 249.534C274.932 247.647 276.833 245.749 278.731 243.851C282.601 239.988 286.457 236.111 290.341 232.266C291.47 231.151 292.684 230.117 293.865 229.055C294.444 228.537 295.097 228.219 295.904 228.371C296.042 227.665 295.929 226.984 295.756 226.3C294.948 223.104 293.89 220.01 292.482 217.004C291.061 213.967 289.53 211.007 287.716 208.195C285.445 204.671 283.06 201.214 280.185 198.148C277.475 195.259 274.42 192.772 270.917 190.878C268.899 189.784 266.881 188.687 264.842 187.636C262.701 186.531 260.404 185.843 258.076 185.279C257.335 185.099 256.661 184.817 256.009 184.443C235.357 172.611 214.702 160.782 194.047 148.953C193.743 148.781 193.45 148.59 193.14 148.424C192.685 148.181 192.36 147.842 192.128 147.369C189.672 142.423 186.113 138.324 182.109 134.599C177.501 130.313 172.573 126.418 167.25 123.052C164.685 121.43 162.021 119.983 159.259 118.717C152.225 115.489 145.046 112.642 137.641 110.384C132.289 108.754 126.832 107.565 121.283 106.828C119.85 106.638 118.4 106.56 116.965 106.405C115.381 106.235 113.8 106.02 112.294 105.463C111.92 105.879 112.012 106.398 111.994 106.885C111.92 109.015 111.941 111.15 111.722 113.277C111.437 116.043 111.373 118.823 111.387 121.606C111.387 122.103 111.377 122.601 111.32 123.095C111.066 125.36 110.787 127.624 111.048 129.907C111.056 129.956 111.048 130.006 111.045 130.055L111.034 130.059Z" fill="#6A6C65"/>
<path d="M182.923 378.697C183.297 378.108 183.643 377.512 183.834 376.824C183.964 376.347 184.197 375.896 184.423 375.455C190.829 362.988 197.236 350.524 203.649 338.06C205.886 333.714 208.136 329.378 210.373 325.032C210.878 324.055 211.449 323.141 212.162 322.288C219.111 313.99 226.029 305.665 232.961 297.353C239.29 289.769 245.619 282.184 251.962 274.613C257.056 268.535 262.179 262.481 267.28 256.406C268.208 255.302 269.082 254.152 269.979 253.023C268.641 252.254 267.234 251.623 265.96 250.73C262.538 248.331 259.074 246.003 255.627 243.639C252.308 241.36 248.995 239.067 245.672 236.788C241.943 234.227 238.204 231.676 234.478 229.108C233.417 228.374 232.404 227.567 231.325 226.858C230.503 226.318 229.786 225.595 228.788 225.348C228.425 225.584 228.347 225.997 228.185 226.35C223.694 235.92 219.2 245.488 214.726 255.066C208.983 267.357 203.24 279.644 197.543 291.956C196.897 293.349 196.064 294.45 194.854 295.413C191.93 297.741 189.076 300.165 186.412 302.797C185.88 303.322 185.368 303.869 184.871 304.426C183.375 306.099 181.904 307.796 180.397 309.461C177.67 312.47 175.395 315.797 173.345 319.293C171.931 321.706 170.682 324.2 169.423 326.694C168.77 327.985 168.223 329.322 167.768 330.701C167.362 331.933 166.928 333.157 166.463 334.363C165.595 336.603 164.985 338.914 164.491 341.257C164.254 342.378 164.074 343.518 163.76 344.615C162.963 347.405 162.522 350.259 162.071 353.117C161.566 356.317 160.973 359.502 160.43 362.695C160.155 364.318 159.869 365.937 159.665 367.57C159.509 368.812 159.259 370.026 158.97 371.239C158.578 372.887 158.222 374.545 157.865 376.203C157.664 377.141 157.763 378.09 157.76 379.039C159.203 379.043 160.621 379.353 162.074 379.339C167.902 379.283 173.733 379.283 179.561 379.258C180.711 379.254 181.83 379.05 182.923 378.7V378.697Z" fill="#696C65"/>
<path d="M363.56 366.618C363.687 366.981 364.05 367.101 364.308 367.323C366.424 369.14 368.534 370.964 370.675 372.749C372.513 374.28 374.401 375.748 376.249 377.265C377.325 378.15 378.362 379.085 379.424 379.992C379.992 380.478 380.571 380.951 381.146 381.424C383.534 383.382 385.827 385.453 388.219 387.407C389.799 388.695 391.295 390.099 392.89 391.376C394.721 392.84 396.407 394.466 398.213 395.955C399.825 397.285 401.413 398.65 403.004 400.008C403.269 400.234 403.561 400.424 403.833 400.643C404.927 401.525 406.144 401.85 407.572 401.832C414.36 401.751 421.147 401.758 427.938 401.73C428.637 401.73 429.325 401.663 430.02 401.582C431.053 401.458 432.112 401.483 433.159 401.504C434.461 401.529 435.745 401.426 437.022 401.165C438.292 400.904 439.164 400.177 439.661 398.978C439.961 398.251 439.873 397.62 439.326 397.055C438.455 396.149 437.449 395.433 436.324 394.854C434.232 393.778 432.038 392.96 429.829 392.184C426.587 391.041 423.306 390.017 419.983 389.128C418.597 388.758 417.182 388.423 415.87 387.788C415.189 387.456 414.568 387.068 414.042 386.514C412.875 385.287 411.608 384.154 410.571 382.8C410.239 382.366 409.82 381.999 409.432 381.611C407.146 379.311 404.849 377.018 402.566 374.71C401.727 373.86 400.891 373.006 400.122 372.086C399.423 371.25 398.573 370.537 397.783 369.782C397.278 369.299 396.739 368.854 396.245 368.364C389.888 362.014 383.516 355.682 377.195 349.293C375.057 347.134 373.074 344.819 370.986 342.608C369.515 341.048 367.998 339.524 366.477 338.011C365.324 336.864 364.505 335.577 364.047 333.975C363.584 332.356 362.858 330.804 362.17 329.255C360.103 324.602 357.855 320.047 355.079 315.761C352.832 312.286 350.712 308.73 348.514 305.227C347.321 303.326 345.949 301.548 344.489 299.844C340.523 295.219 336.167 290.964 331.877 286.646C330.854 285.616 329.876 284.561 329.051 283.369C328.797 283.006 328.557 282.611 328.074 282.494C326.776 282.999 325.488 283.5 324.257 284.184C322.842 284.971 321.569 285.905 320.486 287.087C319.508 288.153 318.517 289.218 317.67 290.382C316.651 291.786 315.674 293.226 315.349 295.014C314.848 297.791 314.778 300.595 315.13 303.357C315.712 307.929 316.915 312.339 319.343 316.34C320.556 318.34 321.466 320.52 322.927 322.372C323.572 322.404 324.197 322.351 324.842 322.206C325.862 321.974 326.938 321.988 327.954 322.192C328.698 322.344 329.425 322.397 330.166 322.393C331.852 322.386 333.507 322.856 335.203 322.725C335.345 322.714 335.5 322.767 335.637 322.824C336.114 323.021 336.618 323.035 337.108 322.986C338.121 322.887 339.073 323.194 340.054 323.328C340.629 323.406 340.883 323.822 340.777 324.415C340.717 324.753 340.604 325.085 340.513 325.417C340.608 325.533 340.717 325.635 340.791 325.762C342.672 329.107 344.549 332.451 346.425 335.795C349.452 341.182 352.479 346.566 355.509 351.953C357.905 356.207 360.3 360.462 362.699 364.713C363.041 365.323 363.359 365.94 363.553 366.614L363.56 366.618Z" fill="#F7BB92"/>
<path d="M295.897 228.371C295.089 228.223 294.436 228.537 293.858 229.055C292.676 230.117 291.462 231.151 290.334 232.265C286.446 236.111 282.59 239.988 278.724 243.851C276.826 245.749 274.924 247.643 273.019 249.534C272.744 249.809 272.518 250.162 272.088 250.243C272.035 250.963 271.379 251.358 271.146 251.982C271.841 253.651 272.077 255.443 272.469 257.186C273.929 263.649 275.683 270.034 277.5 276.405C278.893 281.288 280.096 286.223 281.225 291.176C281.856 293.942 282.587 296.683 283.105 299.473C283.186 299.914 283.282 300.352 283.313 300.796C283.349 301.251 283.419 301.685 283.663 302.08C283.973 302.034 284.248 301.89 284.421 301.639C285.165 300.563 286.164 299.72 287.007 298.739C288.7 296.775 290.401 294.817 292.112 292.866C295.728 288.735 299.351 284.614 302.967 280.487C306.057 276.959 309.165 273.445 312.231 269.896C313.469 268.464 314.637 266.965 315.815 265.48C316.309 264.855 316.739 264.181 316.852 263.363C316.891 263.042 316.714 262.791 316.584 262.527C315.416 260.163 314.132 257.863 312.77 255.605C310.664 252.116 308.604 248.599 306.501 245.107C304.043 241.018 301.718 236.848 298.952 232.95C297.89 231.454 296.909 229.898 295.893 228.374L295.897 228.371Z" fill="#F7BB92"/>
<path d="M316.859 263.367C316.746 264.186 316.319 264.859 315.822 265.484C314.643 266.969 313.479 268.465 312.238 269.901C309.168 273.45 306.064 276.963 302.974 280.491C299.354 284.619 295.735 288.739 292.119 292.87C290.411 294.821 288.711 296.782 287.014 298.744C286.167 299.725 285.169 300.568 284.428 301.644C284.255 301.894 283.98 302.035 283.67 302.085C283.691 303.182 283.634 304.286 283.751 305.373C284.234 309.828 285.539 313.949 288.813 317.226C289.871 318.288 290.965 319.3 292.15 320.221C293.593 321.343 295.195 322.101 296.98 322.489C300.151 323.184 303.362 323.597 306.597 323.837C308.484 323.978 310.364 324.19 312.252 324.37C312.4 324.384 312.552 324.416 312.7 324.412C315.144 324.327 317.579 324.677 320.027 324.532C320.87 324.483 321.72 324.543 322.57 324.553C322.662 324.331 322.75 324.109 322.842 323.886C322.877 323.382 322.909 322.874 322.944 322.369C321.484 320.517 320.574 318.337 319.357 316.337C316.93 312.336 315.727 307.927 315.144 303.355C314.792 300.589 314.862 297.788 315.363 295.011C315.688 293.223 316.661 291.783 317.684 290.379C318.531 289.215 319.526 288.15 320.5 287.085C321.583 285.903 322.856 284.968 324.271 284.181C325.502 283.497 326.79 282.996 328.088 282.491C327.996 282.209 327.947 281.906 327.806 281.652C327.404 280.907 326.998 280.163 326.543 279.454C325.146 277.277 323.717 275.122 322.32 272.942C320.842 270.634 319.575 268.211 318.295 265.791C317.857 264.962 317.561 264.045 316.862 263.367H316.859Z" fill="#8A8AD9"/>
<path d="M182.923 378.697C181.83 379.047 180.711 379.251 179.561 379.255C173.733 379.279 167.902 379.283 162.074 379.336C160.62 379.35 159.206 379.039 157.759 379.036C156.369 381.728 155.11 384.472 154.165 387.362C153.886 388.208 153.607 389.058 153.325 389.905C152.376 392.724 152.923 395.394 154.154 397.991C154.26 398.213 154.39 398.435 154.556 398.619C156.158 400.411 158.07 401.638 160.49 402.069C163.697 402.637 166.935 402.891 170.16 402.612C174.894 402.203 179.625 402.499 184.355 402.415C184.952 402.404 185.544 402.404 186.14 402.549C186.518 402.64 186.938 402.651 187.326 402.598C189.46 402.305 191.58 402.404 193.725 402.591C195.658 402.757 197.627 402.803 199.553 402.626C201.769 402.422 203.808 401.61 205.392 399.92C206.058 399.208 206.411 398.372 206.665 397.433C207.071 395.945 206.736 394.579 206.21 393.214C205.698 391.888 204.887 390.84 203.755 389.912C201.769 388.286 199.532 387.09 197.362 385.778C194.932 384.31 192.455 382.916 189.989 381.516C189.517 381.248 188.991 381.064 188.479 380.874C186.8 380.246 185.248 379.304 183.505 378.842C183.315 378.793 183.121 378.75 182.927 378.704L182.923 378.697Z" fill="#F7BB93"/>
<path d="M111.033 130.059C111.033 130.009 111.044 129.96 111.037 129.91C110.776 127.624 111.055 125.363 111.309 123.098C111.365 122.604 111.376 122.107 111.376 121.61C111.361 118.83 111.425 116.046 111.711 113.28C111.929 111.15 111.912 109.019 111.982 106.888C112 106.401 111.908 105.883 112.282 105.466C112.035 104.711 111.877 103.914 111.531 103.212C110.197 100.503 108.112 98.5978 105.251 97.5748C103.925 97.476 102.648 97.1197 101.261 97.3278C98.8766 97.6806 96.6154 98.3685 94.3576 99.1729C91.8246 100.072 89.2246 100.778 86.6846 101.656C82.356 103.156 78.0204 104.644 73.7447 106.288C70.4427 107.558 67.2465 109.086 64.1103 110.733C63.0873 111.27 62.1665 111.961 61.3128 112.716C59.5454 114.279 59.8805 116.836 61.9584 117.976C62.5758 118.315 63.2425 118.544 63.9269 118.66C67.5076 119.26 71.0636 119.98 74.6161 120.728C78.6589 121.574 82.6806 122.492 86.6846 123.508C89.2388 124.157 91.7752 124.897 94.2976 125.659C98.157 126.827 102.052 127.871 105.971 128.81C107.661 129.215 109.354 129.607 111.033 130.062V130.059Z" fill="#F7BB92"/>
<path d="M322.839 323.887C322.747 324.109 322.655 324.331 322.567 324.553C323.209 325.457 323.343 326.589 323.89 327.538C324.038 327.792 323.947 328.018 323.784 328.222C323.661 328.378 323.53 328.529 323.386 328.667C321.802 330.18 320.26 331.736 318.616 333.193C316.718 334.879 314.975 336.738 313.152 338.513C312.22 339.42 311.381 340.393 310.714 341.519C309.521 343.533 309.162 345.66 309.543 347.971C309.853 349.862 310.823 351.4 311.896 352.903C312.474 353.714 313.07 354.511 313.652 355.319C313.818 355.549 313.801 355.778 313.631 356.004C313.303 356.441 312.95 356.864 312.658 357.323C312.39 357.739 312.139 358.18 311.963 358.642C311.483 359.905 311.882 361.07 313.092 361.68C314.019 362.149 315.011 362.505 315.995 362.858C319.226 364.022 322.401 365.342 325.703 366.301C326.19 366.442 326.441 366.742 326.674 367.144C327.601 368.735 328.543 370.319 329.489 371.9C329.693 372.242 329.923 372.57 330.152 372.895C330.332 373.145 330.568 373.318 330.893 373.336C331.362 372.447 331.637 371.487 331.849 370.517C332.65 366.866 333.443 363.218 334.188 359.556C334.325 358.875 334.604 358.374 335.087 357.902C337.013 356.018 338.721 353.929 340.541 351.943C341.067 351.368 341.24 350.758 340.993 350.024C340.915 349.788 340.869 349.541 340.781 349.308C340.012 347.255 339.264 345.191 338.442 343.159C338.171 342.485 338.029 341.847 338.132 341.131C338.273 340.143 338.372 339.151 338.499 338.164C339.017 334.11 339.536 330.06 340.054 326.007C339.084 325.816 338.121 325.527 337.144 325.46C336.248 325.4 335.387 325.136 334.495 325.1C333.108 325.044 331.746 324.769 330.349 324.73C329.425 324.702 328.487 324.532 327.545 324.472C326.511 324.409 325.474 324.271 324.458 324.06C323.915 323.947 323.382 323.897 322.835 323.887H322.839Z" fill="#F7BB92"/>
<path d="M340.054 326.002C339.536 330.055 339.014 334.105 338.499 338.158C338.372 339.146 338.273 340.141 338.132 341.125C338.029 341.841 338.17 342.48 338.442 343.154C339.264 345.186 340.012 347.249 340.781 349.303C340.869 349.535 340.912 349.782 340.993 350.019C341.24 350.753 341.067 351.363 340.541 351.938C338.721 353.924 337.013 356.009 335.087 357.896C334.604 358.369 334.325 358.87 334.188 359.551C333.443 363.213 332.649 366.864 331.849 370.512C331.637 371.482 331.362 372.441 330.893 373.33C332.632 375.031 334.805 375.817 337.123 376.304C338.647 376.625 340.188 376.654 341.73 376.516C348.958 375.863 355.421 373.277 361.147 368.822C362.011 368.148 362.801 367.397 363.563 366.613C363.366 365.94 363.052 365.322 362.71 364.712C360.311 360.461 357.912 356.207 355.52 351.952C352.49 346.569 349.463 341.182 346.436 335.795C344.556 332.45 342.683 329.103 340.802 325.762C340.732 325.635 340.619 325.529 340.524 325.416C340.368 325.61 340.213 325.808 340.058 326.002H340.054Z" fill="#7A4821"/>
<path d="M271.149 251.983C271.382 251.358 272.038 250.963 272.091 250.243C272 250.208 271.887 250.197 271.816 250.137C269.22 248.049 266.387 246.299 263.653 244.408C260.182 242.009 256.693 239.635 253.218 237.24C250.519 235.381 247.838 233.5 245.135 231.645C241.699 229.281 238.256 226.928 234.81 224.579C233.907 223.965 232.979 223.386 232.051 222.811C231.007 222.159 230.725 222.201 229.712 223.079C229.638 223.143 229.543 223.182 229.458 223.231C229.236 223.937 229.014 224.642 228.788 225.344C229.786 225.591 230.502 226.314 231.324 226.854C232.404 227.563 233.413 228.375 234.478 229.105C238.203 231.673 241.943 234.224 245.672 236.785C248.991 239.064 252.304 241.357 255.627 243.636C259.07 245.999 262.538 248.331 265.96 250.727C267.234 251.619 268.645 252.251 269.978 253.02C270.37 252.67 270.758 252.325 271.146 251.975L271.149 251.983Z" fill="#4B4C47"/>
<path d="M340.054 326.003C340.209 325.809 340.364 325.611 340.519 325.417C340.608 325.082 340.72 324.754 340.784 324.415C340.89 323.823 340.639 323.406 340.061 323.329C339.084 323.195 338.128 322.888 337.115 322.987C336.625 323.036 336.12 323.022 335.644 322.824C335.51 322.768 335.351 322.715 335.21 322.726C333.513 322.856 331.859 322.387 330.172 322.394C329.432 322.397 328.705 322.345 327.96 322.193C326.944 321.985 325.868 321.971 324.849 322.207C324.203 322.355 323.579 322.404 322.933 322.373C322.898 322.877 322.866 323.385 322.831 323.89C323.378 323.9 323.911 323.946 324.454 324.063C325.466 324.274 326.503 324.412 327.541 324.475C328.483 324.532 329.421 324.705 330.345 324.733C331.742 324.772 333.104 325.05 334.49 325.103C335.383 325.139 336.24 325.403 337.14 325.463C338.117 325.53 339.08 325.816 340.05 326.01L340.054 326.003Z" fill="#CFAB8C"/>
</svg>
