<svg width="500" height="500" viewBox="0 0 500 500" fill="none" xmlns="http://www.w3.org/2000/svg">
<path d="M111.034 126.795C111.658 127.511 112.396 128.072 113.218 128.562C126.055 136.232 138.886 143.919 151.716 151.606C154.881 153.5 158.042 155.402 161.213 157.286C161.778 157.621 162.289 157.977 162.684 158.524C162.942 158.884 163.298 159.176 163.63 159.476C170.018 165.198 176.418 170.906 182.803 176.635C186.553 179.997 190.289 183.37 194.011 186.764C197.581 190.02 201.148 193.287 204.675 196.592C207.875 199.591 211.015 202.656 214.19 205.68C218.123 209.426 222.05 213.183 226.018 216.891C227.14 217.939 228.192 219.082 229.462 219.967C229.546 219.918 229.642 219.879 229.716 219.816C230.728 218.937 231.01 218.895 232.055 219.547C232.982 220.126 233.91 220.701 234.813 221.315C238.26 223.661 241.703 226.017 245.139 228.381C247.838 230.237 250.522 232.117 253.221 233.976C256.696 236.371 260.185 238.746 263.656 241.145C266.39 243.032 269.223 244.785 271.82 246.874C271.894 246.934 272.003 246.944 272.095 246.979C272.525 246.898 272.748 246.546 273.026 246.27C274.931 244.383 276.833 242.485 278.731 240.587C282.601 236.724 286.456 232.847 290.341 229.002C291.469 227.887 292.683 226.853 293.865 225.792C294.443 225.273 295.096 224.956 295.904 225.107C296.041 224.402 295.929 223.721 295.756 223.036C294.948 219.84 293.89 216.746 292.482 213.741C291.06 210.703 289.529 207.743 287.716 204.932C285.444 201.408 283.059 197.95 280.184 194.885C277.475 191.995 274.42 189.508 270.917 187.614C268.899 186.52 266.881 185.423 264.842 184.372C262.7 183.268 260.404 182.58 258.075 182.015C257.335 181.835 256.661 181.553 256.008 181.179C235.357 169.347 214.701 157.518 194.046 145.69C193.743 145.517 193.45 145.326 193.14 145.161C192.684 144.917 192.36 144.578 192.127 144.106C189.672 139.16 186.112 135.061 182.108 131.335C177.501 127.049 172.573 123.154 167.249 119.789C164.684 118.166 162.021 116.72 159.259 115.453C152.224 112.225 145.045 109.378 137.64 107.12C132.289 105.491 126.831 104.302 121.282 103.564C119.85 103.374 118.4 103.296 116.964 103.141C115.38 102.972 113.8 102.757 112.293 102.199C111.919 102.615 112.011 103.134 111.993 103.621C111.919 105.752 111.941 107.886 111.722 110.013C111.436 112.779 111.373 115.559 111.387 118.342C111.387 118.84 111.376 119.337 111.32 119.831C111.066 122.096 110.787 124.361 111.048 126.643C111.055 126.693 111.048 126.742 111.044 126.791L111.034 126.795Z" fill="#6A6C65"/>
<path d="M182.923 375.433C183.297 374.844 183.643 374.248 183.833 373.56C183.964 373.084 184.196 372.632 184.422 372.191C190.829 359.724 197.235 347.26 203.649 334.797C205.885 330.45 208.136 326.115 210.373 321.769C210.877 320.791 211.449 319.878 212.161 319.024C219.111 310.727 226.029 302.401 232.961 294.09C239.29 286.505 245.619 278.92 251.962 271.349C257.056 265.271 262.178 259.217 267.279 253.143C268.207 252.038 269.082 250.888 269.978 249.759C268.641 248.99 267.233 248.359 265.96 247.466C262.538 245.067 259.074 242.739 255.627 240.376C252.307 238.097 248.995 235.804 245.672 233.525C241.943 230.963 238.203 228.413 234.478 225.845C233.416 225.111 232.404 224.303 231.324 223.594C230.502 223.054 229.786 222.331 228.788 222.084C228.424 222.32 228.347 222.733 228.184 223.086C223.693 232.657 219.199 242.224 214.726 251.802C208.983 264.093 203.239 276.38 197.542 288.692C196.896 290.086 196.064 291.186 194.854 292.149C191.929 294.478 189.075 296.901 186.412 299.533C185.879 300.059 185.368 300.605 184.87 301.163C183.374 302.835 181.903 304.532 180.397 306.197C177.67 309.206 175.395 312.533 173.345 316.029C171.93 318.442 170.681 320.936 169.422 323.43C168.769 324.721 168.223 326.058 167.768 327.438C167.362 328.669 166.928 329.893 166.462 331.1C165.594 333.34 164.984 335.65 164.49 337.993C164.254 339.115 164.074 340.254 163.76 341.351C162.963 344.142 162.522 346.996 162.07 349.853C161.566 353.053 160.973 356.239 160.43 359.431C160.155 361.054 159.869 362.673 159.664 364.307C159.509 365.548 159.258 366.762 158.969 367.976C158.578 369.623 158.221 371.281 157.865 372.939C157.664 373.878 157.763 374.826 157.759 375.775C159.202 375.779 160.62 376.089 162.074 376.075C167.902 376.019 173.733 376.019 179.561 375.994C180.711 375.991 181.829 375.786 182.923 375.437V375.433Z" fill="#696C65"/>
<path d="M363.559 363.354C363.686 363.717 364.05 363.837 364.307 364.06C366.424 365.876 368.533 367.7 370.675 369.485C372.513 371.016 374.4 372.484 376.249 374.001C377.325 374.886 378.362 375.821 379.424 376.728C379.992 377.215 380.57 377.687 381.145 378.16C383.534 380.118 385.827 382.189 388.218 384.143C389.799 385.431 391.295 386.835 392.889 388.112C394.72 389.576 396.406 391.202 398.213 392.691C399.825 394.021 401.412 395.386 403.003 396.744C403.268 396.97 403.561 397.161 403.832 397.38C404.926 398.261 406.143 398.586 407.572 398.568C414.359 398.487 421.147 398.494 427.938 398.466C428.636 398.466 429.324 398.399 430.019 398.318C431.053 398.194 432.111 398.219 433.159 398.24C434.461 398.265 435.745 398.163 437.022 397.902C438.292 397.641 439.163 396.914 439.661 395.714C439.961 394.988 439.872 394.356 439.326 393.792C438.454 392.885 437.449 392.169 436.323 391.59C434.231 390.514 432.037 389.696 429.829 388.92C426.587 387.777 423.306 386.754 419.983 385.865C418.596 385.494 417.182 385.159 415.869 384.524C415.188 384.193 414.568 383.805 414.042 383.251C412.874 382.023 411.608 380.891 410.571 379.536C410.239 379.102 409.819 378.735 409.431 378.347C407.145 376.047 404.848 373.754 402.566 371.447C401.726 370.597 400.89 369.743 400.121 368.822C399.423 367.986 398.573 367.273 397.782 366.518C397.278 366.035 396.738 365.591 396.244 365.1C389.887 358.75 383.516 352.418 377.194 346.029C375.056 343.87 373.074 341.556 370.985 339.344C369.514 337.785 367.997 336.261 366.477 334.747C365.323 333.601 364.505 332.313 364.046 330.711C363.584 329.092 362.857 327.54 362.169 325.991C360.102 321.338 357.855 316.784 355.078 312.497C352.831 309.023 350.711 305.467 348.513 301.964C347.321 300.062 345.949 298.284 344.488 296.58C340.523 291.955 336.166 287.701 331.876 283.383C330.853 282.353 329.876 281.298 329.05 280.105C328.796 279.742 328.557 279.347 328.073 279.23C326.775 279.735 325.487 280.236 324.256 280.92C322.842 281.707 321.568 282.642 320.485 283.824C319.508 284.889 318.517 285.954 317.67 287.119C316.65 288.523 315.673 289.962 315.349 291.751C314.848 294.527 314.777 297.332 315.13 300.094C315.712 304.666 316.915 309.076 319.342 313.076C320.556 315.076 321.466 317.256 322.926 319.109C323.572 319.14 324.196 319.087 324.842 318.943C325.861 318.71 326.937 318.724 327.953 318.929C328.698 319.08 329.424 319.133 330.165 319.13C331.852 319.123 333.506 319.592 335.203 319.461C335.344 319.451 335.499 319.504 335.637 319.56C336.113 319.758 336.618 319.772 337.108 319.722C338.12 319.624 339.073 319.931 340.054 320.065C340.629 320.142 340.883 320.558 340.777 321.151C340.717 321.49 340.604 321.821 340.512 322.153C340.608 322.269 340.717 322.372 340.791 322.499C342.671 325.843 344.548 329.187 346.425 332.532C349.452 337.919 352.479 343.302 355.509 348.689C357.904 352.944 360.3 357.198 362.699 361.449C363.041 362.059 363.358 362.677 363.552 363.35L363.559 363.354Z" fill="#F7BB92"/>
<path d="M295.896 225.107C295.089 224.959 294.436 225.273 293.857 225.791C292.676 226.853 291.462 227.887 290.333 229.002C286.445 232.847 282.59 236.724 278.723 240.587C276.825 242.485 274.924 244.379 273.019 246.27C272.744 246.545 272.518 246.898 272.087 246.979C272.034 247.699 271.378 248.094 271.145 248.719C271.84 250.387 272.077 252.179 272.468 253.922C273.929 260.385 275.682 266.77 277.499 273.141C278.893 278.024 280.095 282.959 281.224 287.912C281.856 290.678 282.586 293.419 283.105 296.21C283.186 296.651 283.281 297.088 283.313 297.533C283.348 297.988 283.419 298.422 283.662 298.817C283.973 298.771 284.248 298.626 284.421 298.376C285.165 297.3 286.163 296.457 287.006 295.476C288.7 293.511 290.4 291.553 292.111 289.602C295.727 285.471 299.35 281.351 302.966 277.223C306.056 273.695 309.164 270.182 312.23 266.633C313.468 265.2 314.636 263.701 315.814 262.216C316.308 261.591 316.739 260.918 316.851 260.099C316.89 259.778 316.714 259.528 316.583 259.263C315.416 256.899 314.132 254.599 312.77 252.342C310.664 248.853 308.604 245.335 306.501 241.843C304.042 237.754 301.717 233.584 298.951 229.686C297.89 228.19 296.909 226.635 295.893 225.111L295.896 225.107Z" fill="#F7BB92"/>
<path d="M316.858 260.104C316.746 260.922 316.319 261.596 315.821 262.22C314.643 263.705 313.479 265.201 312.237 266.637C309.168 270.186 306.063 273.7 302.973 277.227C299.354 281.355 295.734 285.475 292.118 289.606C290.411 291.557 288.71 293.519 287.013 295.48C286.167 296.461 285.168 297.304 284.428 298.38C284.255 298.63 283.98 298.772 283.669 298.821C283.69 299.918 283.634 301.022 283.75 302.109C284.234 306.564 285.539 310.685 288.813 313.962C289.871 315.024 290.965 316.037 292.15 316.957C293.593 318.079 295.194 318.838 296.979 319.226C300.151 319.921 303.361 320.333 306.596 320.573C308.484 320.714 310.364 320.926 312.251 321.106C312.399 321.12 312.551 321.152 312.699 321.148C315.144 321.064 317.578 321.413 320.026 321.268C320.87 321.219 321.72 321.279 322.57 321.289C322.662 321.067 322.75 320.845 322.842 320.623C322.877 320.118 322.909 319.61 322.944 319.106C321.483 317.254 320.573 315.073 319.356 313.073C316.929 309.073 315.726 304.663 315.144 300.091C314.791 297.325 314.862 294.524 315.363 291.748C315.687 289.959 316.661 288.52 317.684 287.116C318.531 285.952 319.525 284.886 320.499 283.821C321.582 282.639 322.856 281.704 324.27 280.917C325.502 280.233 326.789 279.732 328.087 279.228C327.996 278.945 327.946 278.642 327.805 278.388C327.403 277.644 326.997 276.899 326.542 276.19C325.145 274.014 323.716 271.858 322.319 269.678C320.841 267.371 319.575 264.947 318.294 262.527C317.857 261.698 317.56 260.781 316.862 260.104H316.858Z" fill="#8A8AD9"/>
<path d="M182.923 375.434C181.829 375.783 180.711 375.987 179.561 375.991C173.733 376.016 167.901 376.019 162.073 376.072C160.62 376.086 159.205 375.776 157.759 375.772C156.369 378.464 155.11 381.209 154.164 384.098C153.885 384.945 153.607 385.795 153.325 386.641C152.376 389.46 152.922 392.131 154.154 394.727C154.259 394.949 154.39 395.172 154.556 395.355C156.157 397.147 158.069 398.375 160.489 398.805C163.696 399.373 166.935 399.627 170.159 399.348C174.893 398.939 179.624 399.236 184.355 399.151C184.951 399.14 185.544 399.14 186.14 399.285C186.517 399.377 186.937 399.387 187.325 399.334C189.46 399.042 191.58 399.14 193.725 399.327C195.658 399.493 197.626 399.539 199.553 399.363C201.768 399.158 203.807 398.347 205.391 396.657C206.058 395.944 206.411 395.108 206.665 394.17C207.07 392.681 206.735 391.316 206.21 389.95C205.698 388.624 204.887 387.576 203.754 386.648C201.768 385.022 199.531 383.826 197.362 382.514C194.931 381.046 192.455 379.653 189.989 378.252C189.516 377.984 188.99 377.801 188.479 377.61C186.8 376.982 185.247 376.04 183.505 375.578C183.314 375.529 183.12 375.487 182.926 375.441L182.923 375.434Z" fill="#F7BB93"/>
<path d="M111.033 126.795C111.033 126.746 111.044 126.696 111.036 126.647C110.775 124.361 111.054 122.099 111.308 119.835C111.365 119.341 111.375 118.843 111.375 118.346C111.361 115.566 111.424 112.783 111.71 110.017C111.929 107.886 111.911 105.755 111.982 103.624C112 103.138 111.908 102.619 112.282 102.203C112.035 101.448 111.876 100.651 111.53 99.9485C110.197 97.2392 108.112 95.3342 105.251 94.3111C103.924 94.2123 102.647 93.856 101.261 94.0642C98.8762 94.4169 96.6149 95.1049 94.3571 95.9092C91.8241 96.8088 89.2242 97.5143 86.6842 98.3928C82.3556 99.8921 78.0199 101.381 73.7442 103.025C70.4422 104.295 67.2461 105.822 64.1099 107.47C63.0868 108.006 62.166 108.697 61.3123 109.452C59.5449 111.015 59.8801 113.573 61.9579 114.712C62.5753 115.051 63.242 115.28 63.9264 115.397C67.5071 115.996 71.0631 116.716 74.6156 117.464C78.6585 118.311 82.6801 119.228 86.6842 120.244C89.2383 120.893 91.7747 121.634 94.2971 122.396C98.1565 123.564 102.051 124.608 105.971 125.546C107.66 125.952 109.354 126.343 111.033 126.798V126.795Z" fill="#F7BB92"/>
<path d="M322.838 320.623C322.747 320.845 322.655 321.068 322.567 321.29C323.209 322.193 323.343 323.325 323.89 324.274C324.038 324.528 323.946 324.754 323.784 324.959C323.66 325.114 323.53 325.266 323.385 325.403C321.801 326.917 320.26 328.472 318.616 329.929C316.718 331.616 314.975 333.475 313.151 335.249C312.22 336.156 311.38 337.13 310.713 338.255C309.521 340.269 309.161 342.397 309.542 344.707C309.853 346.598 310.823 348.136 311.895 349.639C312.474 350.45 313.07 351.248 313.652 352.056C313.818 352.285 313.8 352.514 313.631 352.74C313.303 353.177 312.95 353.601 312.657 354.059C312.389 354.476 312.139 354.917 311.962 355.379C311.482 356.642 311.881 357.806 313.091 358.416C314.019 358.885 315.01 359.242 315.994 359.594C319.226 360.759 322.401 362.078 325.703 363.038C326.19 363.179 326.44 363.479 326.673 363.881C327.601 365.472 328.543 367.056 329.488 368.636C329.693 368.978 329.922 369.306 330.151 369.631C330.331 369.882 330.568 370.054 330.892 370.072C331.361 369.183 331.637 368.223 331.848 367.253C332.649 363.602 333.443 359.954 334.187 356.292C334.325 355.612 334.603 355.111 335.087 354.638C337.013 352.754 338.72 350.666 340.541 348.68C341.066 348.105 341.239 347.494 340.992 346.76C340.915 346.524 340.869 346.277 340.781 346.044C340.012 343.991 339.264 341.927 338.442 339.895C338.17 339.222 338.029 338.583 338.131 337.867C338.272 336.879 338.371 335.888 338.498 334.9C339.017 330.847 339.535 326.797 340.054 322.743C339.084 322.553 338.121 322.263 337.143 322.196C336.247 322.136 335.387 321.872 334.494 321.837C333.108 321.78 331.746 321.505 330.349 321.466C329.425 321.438 328.486 321.269 327.544 321.209C326.511 321.145 325.474 321.008 324.458 320.796C323.914 320.683 323.382 320.634 322.835 320.623H322.838Z" fill="#F7BB92"/>
<path d="M340.054 322.738C339.535 326.791 339.013 330.841 338.498 334.895C338.371 335.882 338.272 336.877 338.131 337.862C338.029 338.578 338.17 339.216 338.442 339.89C339.264 341.922 340.012 343.986 340.781 346.039C340.869 346.272 340.911 346.519 340.992 346.755C341.239 347.489 341.066 348.099 340.541 348.674C338.72 350.66 337.013 352.745 335.087 354.633C334.603 355.105 334.325 355.606 334.187 356.287C333.443 359.949 332.649 363.6 331.848 367.248C331.637 368.218 331.361 369.178 330.892 370.067C332.631 371.767 334.804 372.554 337.122 373.041C338.646 373.362 340.188 373.39 341.73 373.252C348.958 372.6 355.421 370.014 361.146 365.558C362.011 364.884 362.801 364.133 363.563 363.35C363.365 362.676 363.051 362.059 362.709 361.448C360.31 357.197 357.911 352.943 355.52 348.688C352.489 343.305 349.462 337.918 346.436 332.531C344.555 329.187 342.682 325.839 340.802 322.498C340.731 322.371 340.618 322.265 340.523 322.152C340.368 322.346 340.213 322.544 340.057 322.738H340.054Z" fill="#7A4821"/>
<path d="M271.149 248.719C271.382 248.094 272.038 247.699 272.091 246.98C271.999 246.944 271.886 246.934 271.816 246.874C269.219 244.785 266.386 243.036 263.652 241.145C260.181 238.746 256.692 236.372 253.217 233.976C250.518 232.117 247.837 230.237 245.135 228.381C241.699 226.018 238.256 223.664 234.809 221.315C233.906 220.701 232.978 220.123 232.05 219.548C231.006 218.895 230.724 218.937 229.712 219.816C229.637 219.879 229.542 219.918 229.458 219.967C229.235 220.673 229.013 221.378 228.787 222.081C229.786 222.327 230.502 223.051 231.324 223.59C232.403 224.299 233.412 225.111 234.478 225.841C238.203 228.409 241.942 230.96 245.671 233.521C248.991 235.8 252.303 238.093 255.627 240.372C259.07 242.736 262.538 245.068 265.96 247.463C267.233 248.355 268.644 248.987 269.978 249.756C270.369 249.407 270.757 249.061 271.145 248.712L271.149 248.719Z" fill="#4B4C47"/>
<path d="M340.053 322.739C340.208 322.545 340.364 322.348 340.519 322.154C340.607 321.818 340.72 321.49 340.783 321.152C340.889 320.559 340.639 320.143 340.06 320.065C339.083 319.931 338.127 319.624 337.115 319.723C336.624 319.772 336.12 319.758 335.643 319.561C335.509 319.504 335.351 319.451 335.21 319.462C333.513 319.592 331.858 319.123 330.172 319.13C329.431 319.134 328.704 319.081 327.96 318.929C326.944 318.721 325.868 318.707 324.848 318.943C324.203 319.091 323.578 319.141 322.933 319.109C322.898 319.614 322.866 320.122 322.831 320.626C323.377 320.637 323.91 320.682 324.453 320.799C325.466 321.011 326.503 321.148 327.54 321.212C328.482 321.268 329.42 321.441 330.345 321.469C331.742 321.508 333.103 321.787 334.49 321.84C335.382 321.875 336.24 322.139 337.139 322.199C338.116 322.266 339.08 322.552 340.05 322.746L340.053 322.739Z" fill="#CFAB8C"/>
</svg>
