<svg width="497" height="497" viewBox="0 0 497 497" fill="none" xmlns="http://www.w3.org/2000/svg">
<path d="M192.465 394.806C186.845 392.872 178.277 392.964 178.185 390.568C177.448 371.406 175.882 342.662 175.882 342.662C177.264 323.591 187.214 286.74 185.647 279.554C184.081 272.46 169.433 273.934 169.156 281.212C168.235 289.78 167.13 293.834 166.208 302.678C164.826 313.641 163.168 336.673 164.089 343.03C164.181 343.859 170.354 386.331 170.354 386.331C170.354 386.331 170.538 391.582 171.275 394.438C172.104 397.662 174.223 396.925 180.672 397.662C185.463 398.307 196.426 396.188 192.465 394.806Z" fill="#ECAD83"/>
<path d="M297.123 85.7155C300.532 87.3738 295.649 102.759 296.202 105.615C296.478 106.997 298.137 108.748 297.584 111.88C296.847 116.026 293.069 117.592 292.885 119.158C291.872 126.805 286.805 146.981 285.515 156.194C285.239 158.313 284.87 160.524 284.409 162.735C282.659 171.764 265.339 163.84 266.26 160.616C270.129 147.902 283.304 117.316 285.239 112.893C285.239 112.893 288.739 98.6135 289.845 95.2968C290.582 93.3621 293.714 84.0572 297.123 85.7155Z" fill="#ECAD83"/>
<path d="M276.863 188.614C279.637 178.314 282.226 171.876 285 160.931C281.856 161.667 269.373 160.288 266.784 159C266.137 162.219 256.983 185.487 256.983 185.487C255.226 189.81 238.212 248.579 240.154 258.788C240.709 262.559 241.541 265.961 242.373 268.629C244.038 273.963 273.997 269.64 274.829 262.191C273.072 246.004 275.291 216.757 275.753 208.664C276.123 201.214 276.863 188.614 276.863 188.614Z" fill="#333333"/>
<path d="M247.28 231C247.28 231 233.693 253.37 237.76 260.303C238.222 261.134 238.776 262.983 238.961 263.538C243.952 277.681 255.321 277.496 257.262 279.807C258.741 281.656 274.177 269.824 280 261.966C280 261.966 272.791 243.571 267.337 239.504C259.018 233.218 247.28 231 247.28 231Z" fill="#3D3C3C"/>
<path d="M173.518 253.708C165.015 261.091 165.754 265.557 162.057 278.501C161.595 280.141 163.998 287.798 166.586 290.259C169.544 293.085 173.056 294.908 177.585 294.999C186.458 295.181 199.398 272.758 211.044 267.289C218.531 262.732 235.168 255.895 237.201 259.997C237.201 259.997 248.939 231.467 246.721 231.103C205.96 225.36 190.618 243.59 182.114 250.335C182.114 250.335 175.922 251.611 173.518 253.708Z" fill="#FF8AA0"/>
<path d="M164.701 289.599C164.701 289.599 163.254 293.299 160 299.562L171.299 310C171.48 302.029 176 295.197 176 295.197C166.328 292.54 165.966 286.182 163.616 284L164.701 289.599Z" fill="#ECAD83"/>
<path d="M161.826 325.819C162.648 331.625 167.493 333.468 170.51 334.205C179.926 336.601 184.405 333.284 189.342 328.215C195.924 321.58 181.023 301.674 177.549 299.278C168.499 293.195 155.061 300.752 150.673 304.991C145.828 309.599 148.662 310.06 150.673 311.811C150.764 311.903 150.764 312.364 150.764 312.364C151.404 313.009 152.318 313.839 152.775 315.129C152.775 315.129 153.507 315.59 153.872 315.866C154.055 316.05 154.238 316.235 154.055 316.511C153.598 317.433 153.233 318.354 153.233 318.907C153.324 320.842 161.46 323.146 161.826 325.819Z" fill="#F6BB92"/>
<path d="M154 312C154 312 153.257 312.15 151.121 313.869C150.935 314.168 150.843 314.767 151.771 314.991C152.514 315.14 152.7 313.421 154 312Z" fill="#D6876B"/>
<path d="M154 312.112C154 312.112 152.527 311.599 150.187 312.771C149.927 313.064 150.014 313.356 150.014 313.503C150.36 314.235 151.227 313.942 151.227 313.942C153.307 312.258 154 312.112 154 312.112Z" fill="#CC785E"/>
<path d="M190.599 329.401C198.445 321.22 197.543 298.631 173.376 296.028C171.753 295.842 169.047 296.493 168.416 300.862C167.965 304.022 168.506 306.997 168.506 306.997C168.687 307.927 168.867 308.856 169.137 309.879C169.408 310.994 173.827 314.527 173.105 315.457C166.612 324.753 167.424 332.375 169.498 334.513C175.45 338.604 182.213 338.139 190.599 329.401Z" fill="#602F0F"/>
<path d="M171.824 307.256C167.353 304.854 165.806 306.239 164 308.549L170.362 312.891L173.458 314C175.263 311.783 176.295 309.658 171.824 307.256Z" fill="#F6BB92"/>
<path d="M190.908 304.011C194.539 303.739 197.693 308.461 197.98 314.454C198.266 320.538 195.495 325.714 191.863 325.987C188.232 326.259 186.321 322.264 186.034 316.18C185.747 310.186 187.276 304.284 190.908 304.011Z" fill="#4C230C"/>
<path d="M171.367 315.208C172.104 315.761 172.749 316.314 173.21 316.774C173.855 317.511 174.223 318.064 174.223 318.064L175.697 314.84C175.329 314.471 175.052 314.103 174.684 313.826C174.684 313.826 174.5 314.195 174.223 314.747V314.655C173.394 314.471 172.196 314.01 170.538 313.273C170.63 313.273 169.064 313.458 171.367 315.208Z" fill="#602F0F"/>
<path d="M192.741 302.955C196.426 302.679 199.651 307.838 199.927 314.655C200.203 321.381 197.44 327.093 193.754 327.369C190.069 327.645 188.135 323.223 187.858 316.498C187.49 309.772 189.056 303.323 192.741 302.955Z" fill="#602F0F"/>
<path d="M198.3 311C198.574 311 198.918 312.679 198.987 314.951C199.055 317.123 198.849 319 198.574 319C198.3 319 198.093 317.519 198.025 315.346C197.956 313.173 198.025 311.099 198.3 311Z" fill="#4C230C"/>
<path d="M350.474 398L320.887 397.543C313.996 397.543 316.109 390.238 317.947 388.594C319.05 387.59 300.213 352.068 298.375 346.863C295.251 338.37 312.618 335.083 313.812 338.096C323.276 363.208 327.779 381.106 328.973 385.764C328.973 385.764 350.474 390.512 352.863 393.069C354.15 394.713 355.344 397.178 350.474 398Z" fill="#F6BB92"/>
<path d="M284.105 320.132C287.334 330.253 294.439 338.719 298.499 347C300.713 344.7 311.14 338.627 314 338.167C312.8 335.038 302.559 312.035 302.559 312.035C300.067 304.306 275.708 252.962 274.324 249.925C272.848 246.889 271.002 244.589 268.88 241L240 260.231C247.751 274.585 271.925 293.908 275.893 300.257C279.953 306.606 284.105 320.132 284.105 320.132Z" fill="#3D3C3C"/>
<path d="M183.517 396.433C179.627 394.041 168.883 392.845 169.069 390.454C170.458 371.322 176.015 342.624 176.015 342.624C177.404 323.584 187.407 286.791 185.832 279.617C184.258 272.534 169.532 274.006 169.254 281.272C168.328 289.826 167.216 293.874 166.29 302.704C164.901 313.65 163.234 336.645 164.16 342.992C164.253 343.819 161.381 391.466 162.122 394.317C162.956 397.536 165.086 396.801 171.569 397.536C176.385 398.088 187.129 398.548 183.517 396.433Z" fill="#F6BB92"/>
</svg>
