<svg width="500" height="500" viewBox="0 0 500 500" fill="none" xmlns="http://www.w3.org/2000/svg">
<path d="M277.122 263.436C276.643 263.443 276.217 263.232 275.788 263.068C273.694 262.27 271.512 261.848 269.307 261.526C268.593 261.422 267.923 261.479 267.303 261.888C267.071 262.042 266.823 262.17 266.585 262.317C261.944 265.159 256.947 267.089 251.605 268.108C250.288 268.36 248.947 268.614 247.596 268.373C247.151 268.293 246.782 268.554 246.366 268.504C246.346 268.259 246.242 268.081 246.035 267.931C245.136 267.27 244.188 266.66 243.377 265.906C240.85 263.564 238.471 261.074 236.396 258.316C234.412 255.675 232.586 252.916 231.004 250.024C229.127 246.596 227.408 243.08 226.235 239.33C225.762 237.822 225.276 236.32 224.797 234.816C225.202 234.363 225.222 233.783 225.269 233.237C225.474 230.961 225.829 228.709 226.181 226.454C226.325 225.536 226.389 224.6 226.452 223.672C226.788 218.793 227.274 213.93 227.833 209.07C228.182 206.064 228.457 203.048 228.778 200.038C229.201 196.1 229.643 192.169 230.065 188.231C230.387 185.222 230.685 182.209 231.007 179.196C231.329 176.186 231.664 173.177 231.989 170.167C232.217 168.036 232.435 165.904 232.663 163.776C232.998 160.626 233.34 157.479 233.678 154.328C233.856 152.659 234.017 150.99 234.214 149.325C234.268 148.879 234.164 148.5 233.966 148.122C231.604 143.597 230.461 138.721 229.814 133.701C229.157 128.606 228.939 123.492 229.06 118.361C229.134 115.1 229.415 111.849 230.042 108.662C231.909 99.198 234.261 89.8576 237.981 80.9194C239.721 76.7402 241.708 72.6851 244.091 68.8343C244.832 67.6379 245.354 66.3442 245.948 65.0807C246.001 64.9634 245.971 64.8059 245.981 64.6719C246.671 64.8596 247.241 65.2718 247.818 65.6639C249.587 66.8704 251.35 68.0937 253.197 69.1829C253.877 69.585 254.547 70.0106 255.197 70.4631C257.181 71.8539 259.172 73.238 261.263 74.4613C262.389 75.1215 263.502 75.7985 264.528 76.6129C264.739 76.7805 265.02 76.8643 265.268 76.9849C265.51 78.1378 265.476 79.3007 265.372 80.4637C265.134 83.1079 264.89 85.7555 264.655 88.3998C264.43 90.9535 264.216 93.5073 263.991 96.0611C263.753 98.7991 263.509 101.537 263.268 104.279C263.046 106.786 262.829 109.292 262.607 111.799C262.353 114.678 262.091 117.554 261.84 120.432C261.629 122.845 261.424 125.262 261.22 127.675C261.096 129.159 260.975 130.647 260.858 132.132C260.834 132.457 260.788 132.792 260.848 133.104C261.528 136.539 261.656 140.041 262.054 143.51C262.413 146.61 262.728 149.717 263.053 152.824C263.378 155.93 263.686 159.037 264.012 162.141C264.33 165.153 264.658 168.163 264.99 171.173C265.298 173.998 265.624 176.823 265.929 179.648C266.146 181.639 266.378 183.63 266.542 185.627C266.73 187.903 266.864 190.182 266.991 192.464C267.102 194.418 267.182 196.375 267.266 198.332C267.403 201.499 267.517 204.666 267.668 207.833C267.892 212.629 268.134 217.425 268.372 222.221C268.425 223.29 268.489 224.359 268.546 225.428C268.62 225.646 268.667 225.877 268.771 226.078C269.501 227.486 270.138 228.937 270.812 230.368C272.631 234.222 273.781 238.298 274.934 242.376C275.43 244.132 275.624 245.939 275.919 247.728C276.304 250.068 276.663 252.42 276.603 254.81C276.589 255.276 276.623 255.742 276.67 256.204C276.914 258.614 277.186 261.02 277.116 263.447L277.122 263.436Z" fill="#696C65"/>
<path d="M243.039 270.082C242.734 270.464 242.275 270.605 241.866 270.816C235.582 274.077 229.305 277.351 222.997 280.565C221.214 281.473 219.391 282.298 217.669 283.323C212.266 286.54 206.854 289.741 201.445 292.945C195.033 296.745 188.619 300.539 182.204 304.34C182.084 304.41 181.963 304.484 181.842 304.554C179.778 305.767 179.939 305.67 180.82 307.815C181.192 308.717 181.675 309.571 182.117 310.443C183.796 313.737 184.805 317.283 185.998 320.762C187.315 324.609 188.173 328.557 188.76 332.575C188.894 333.493 189.162 334.395 189.302 335.313C189.862 338.953 190.237 342.613 190.378 346.292C190.469 348.618 190.65 350.944 190.687 353.27C190.744 357.044 190.613 360.814 190.496 364.588C190.385 368.174 190.117 371.753 190.113 375.342C190.113 377.249 189.889 379.153 189.788 381.06C189.621 384.267 189.272 387.468 189.242 390.682C189.242 390.819 189.195 390.957 189.172 391.094C188.927 391.228 188.682 391.332 188.388 391.342C186.765 391.396 185.167 391.694 183.551 391.845C181.846 392.002 180.15 392.277 178.424 392.24C177.499 392.22 176.57 392.27 175.645 392.331C173.658 392.455 171.674 392.605 169.687 392.746C169.804 391.298 169.717 389.874 169.445 388.436C168.728 384.636 168.138 380.812 167.398 377.015C166.999 374.96 166.439 372.933 165.88 370.915C164.536 366.069 163.138 361.236 161.774 356.394C160.725 352.674 159.713 348.943 158.654 345.223C157.494 341.148 156.341 337.069 155.061 333.028C153.754 328.899 152.434 324.773 151.405 320.56C150.818 318.164 150.068 315.805 149.468 313.412C148.851 310.969 148.402 308.492 148.459 305.955C148.472 305.399 148.509 304.832 148.627 304.289C149.19 301.742 149.756 299.195 150.909 296.826C151.274 296.072 151.596 295.294 151.938 294.53C152.722 292.777 153.701 291.142 154.874 289.62C155.246 289.141 155.604 288.652 155.946 288.152C158.795 283.98 162.099 280.186 165.652 276.604C168.014 274.221 170.38 271.835 172.804 269.512C175.324 267.092 177.921 264.76 180.693 262.608C184.855 259.374 189.118 256.281 193.438 253.268C194.393 252.601 195.348 251.937 196.367 251.364C196.934 251.046 197.487 250.687 198.009 250.298C200.298 248.603 202.725 247.121 205.088 245.539C206.991 244.263 208.968 243.14 211.013 242.114C211.844 241.699 212.665 241.246 213.449 240.747C215.544 239.413 217.809 238.431 220.068 237.436C220.792 237.117 221.543 236.869 222.284 236.588C222.384 237.087 222.461 237.593 222.592 238.083C223.048 239.832 223.477 241.585 224.174 243.271C224.78 244.732 225.481 246.149 226.074 247.611C226.781 249.343 227.746 250.932 228.651 252.547C229.784 254.568 231.057 256.512 232.418 258.402C233.259 259.572 234.168 260.684 235.026 261.837C235.615 262.625 236.336 263.285 236.939 264.049C238.156 265.591 239.523 266.965 241.068 268.175C241.651 268.631 242.137 269.207 242.767 269.616C242.901 269.703 242.945 269.928 243.032 270.092L243.039 270.082Z" fill="#696C65"/>
<path d="M342.364 305.866C342.551 307.481 342.665 309.107 342.947 310.705C343.225 312.284 343.081 313.866 343.201 315.441C343.309 316.828 343.476 318.216 343.664 319.593C343.788 320.515 343.778 321.443 343.949 322.368C344.177 323.598 344.197 324.865 344.317 326.112C344.428 327.268 344.498 328.431 344.683 329.577C344.914 330.995 344.88 332.456 345.366 333.84C345.47 334.131 345.4 334.487 345.403 334.812C345.417 335.881 345.413 336.947 345.635 338.009C345.822 338.914 345.745 339.856 345.909 340.784C346.127 342.017 346.161 343.281 346.281 344.528C346.322 344.943 346.375 345.359 346.425 345.774C346.449 345.959 346.536 346.16 346.489 346.324C346.141 347.55 346.355 348.827 346.11 350.067C345.886 351.207 345.836 352.383 345.772 353.533C345.655 355.627 345.286 357.688 345.095 359.77C344.937 361.479 344.73 363.185 344.545 364.894C344.257 367.572 343.862 370.236 343.349 372.884C342.873 375.347 342.488 377.827 342.055 380.297C341.757 381.989 341.439 383.679 341.137 385.371C340.691 387.888 340.262 390.405 339.82 392.922C339.434 395.117 339.056 397.315 338.647 399.507C338.536 400.1 338.265 400.616 337.863 401.109C336.277 403.056 334.749 405.054 333.208 407.034C332.591 407.825 331.83 408.177 330.795 408.171C326.739 408.14 322.681 408.063 318.629 408.214C313.971 408.385 309.315 408.372 304.66 408.402C304.288 408.402 303.913 408.415 303.541 408.402C302.733 408.368 301.989 408.187 301.356 407.624C300.977 407.286 300.521 407.034 300.102 406.743C299.881 406.076 299.777 405.389 299.818 404.685C299.828 404.501 299.851 404.296 299.794 404.129C299.389 402.946 299.62 401.726 299.529 400.523C299.459 399.588 299.928 398.994 300.689 398.639C301.607 398.21 302.549 397.808 303.518 397.52C306.051 396.762 308.605 396.069 311.152 395.358C313.297 394.758 315.449 394.178 317.59 393.575C319.155 393.136 320.707 392.657 322.272 392.221C322.808 392.074 323.066 391.762 323.039 391.219C322.969 389.818 323.489 388.464 323.338 387.057C323.318 386.876 323.338 386.671 323.408 386.507C323.636 385.971 323.592 385.411 323.606 384.855C323.616 384.483 323.566 384.084 323.686 383.746C323.914 383.105 323.867 382.459 323.887 381.812C323.897 381.44 323.84 381.038 323.958 380.702C324.182 380.062 324.155 379.419 324.166 378.769C324.172 378.444 324.105 378.092 324.206 377.797C324.484 376.979 324.424 376.141 324.45 375.307C324.46 374.985 324.521 374.663 324.568 374.342C324.615 374.02 324.732 373.698 324.712 373.383C324.611 371.841 325.161 370.343 325.013 368.802C325.362 367.81 325.265 366.777 325.295 365.759C325.302 365.574 325.312 365.377 325.379 365.209C325.583 364.716 325.563 364.207 325.563 363.694C325.563 363.275 325.633 362.87 325.717 362.454C325.982 361.14 326.21 359.813 326.391 358.486C326.589 357.018 326.706 355.54 327.115 354.106C327.165 353.928 327.222 353.744 327.229 353.563C327.286 352.266 327.674 350.996 327.534 349.682C327.51 349.457 327.534 349.203 327.614 348.995C327.989 348.01 327.772 347.075 327.426 346.14C326.766 344.353 326.093 342.57 325.459 340.774C324.544 338.187 323.663 335.589 322.761 332.999C322.362 331.859 321.954 330.72 321.531 329.59C320.395 326.544 319.226 323.508 318.116 320.448C317.781 319.519 317.342 318.651 316.89 317.787C316.585 317.204 316.169 316.691 315.432 316.61C314.242 313.671 313.2 310.685 312.365 307.625C311.852 305.742 311.222 303.892 310.931 301.945C310.656 300.098 310.475 298.251 310.455 296.385C310.448 295.778 310.529 295.185 310.616 294.582C310.914 292.541 311.511 290.587 312.174 288.643C313.196 285.657 314.822 283.096 317.436 281.257C319.081 280.097 320.801 279.031 322.825 278.709C324.427 278.455 326.032 278.25 327.684 278.488C329.404 278.736 331.083 279.055 332.668 279.772C336.844 281.662 339.582 284.873 341.234 289.092C342.317 291.854 342.35 294.739 342.236 297.628C342.193 298.741 342.129 299.86 342.059 300.976C341.992 302.045 342.055 303.118 341.881 304.183C341.78 304.793 341.894 305.393 342.367 305.866H342.364Z" fill="#F7BB92"/>
<path d="M342.365 305.864C341.892 305.395 341.778 304.792 341.879 304.182C342.053 303.116 341.993 302.044 342.056 300.975C342.127 299.859 342.19 298.739 342.234 297.627C342.348 294.738 342.314 291.852 341.232 289.091C339.58 284.871 336.838 281.66 332.666 279.77C331.084 279.053 329.401 278.735 327.682 278.487C326.027 278.249 324.421 278.453 322.823 278.708C320.798 279.03 319.079 280.099 317.434 281.255C314.82 283.095 313.194 285.659 312.172 288.641C311.508 290.582 310.908 292.536 310.614 294.58C310.526 295.183 310.446 295.777 310.453 296.383C310.473 298.247 310.654 300.093 310.929 301.943C311.217 303.89 311.847 305.74 312.363 307.624C313.197 310.684 314.236 313.673 315.429 316.609C315.094 317.175 314.813 317.805 314.002 317.802C313.881 317.765 313.76 317.725 313.64 317.688C312.949 316.317 312.249 314.953 311.572 313.576C310.875 312.155 310.191 310.727 309.524 309.293C307.214 304.317 304.608 299.437 301.706 294.654C296.709 286.413 291.712 278.168 286.731 269.917C286.031 268.754 285.247 267.662 284.315 266.68C283.983 266.331 283.732 265.959 283.611 265.497C285.334 263.727 287.047 261.948 288.783 260.191C295.08 253.827 301.387 247.473 307.688 241.115C308.016 240.783 308.335 240.445 308.66 240.11C310.748 237.978 312.839 235.85 314.923 233.715C315.225 233.404 315.553 233.166 315.999 233.129C317.226 233.973 318.432 234.848 319.686 235.652C322.079 237.191 324.398 238.823 326.647 240.562C327.541 241.256 328.55 241.732 329.609 242.101C332.247 243.019 334.894 243.914 337.532 244.829C339.164 245.395 340.779 246.015 342.227 246.963C344.262 248.301 346.044 249.926 347.543 251.867C349.801 254.792 350.961 258.083 351.336 261.76C351.752 265.825 351.444 269.854 351.125 273.892C350.974 275.796 350.76 277.692 350.539 279.589C350.036 283.856 349.074 288.018 347.747 292.103C346.768 295.116 345.719 298.099 344.486 301.018C343.943 302.305 343.424 303.602 342.884 304.889C342.743 305.227 342.673 305.61 342.365 305.861V305.864Z" fill="#8A8AD9"/>
<path d="M313.637 317.687C313.757 317.724 313.878 317.764 313.999 317.801C314.173 318.019 314.351 318.24 314.344 318.541C314.334 319.068 314.542 319.547 314.716 320.023C315.741 322.818 316.78 325.603 317.826 328.391C318.691 330.697 319.575 332.999 320.447 335.305C320.661 335.872 320.872 336.441 320.795 337.065C320.745 337.142 320.671 337.212 320.645 337.296C319.642 340.828 318.654 344.361 317.642 347.89C317.508 348.362 317.544 348.788 317.668 349.25C318.56 352.618 319.401 356 320.313 359.365C320.628 360.524 320.819 361.724 321.342 362.82C321.328 363.149 321.315 363.48 321 363.688C320.691 363.896 320.396 364.131 320.065 364.295C317.484 365.595 314.763 366.299 311.854 366.178C311.297 366.155 310.738 366.091 310.185 366.232C306.9 366.034 303.827 365.136 300.985 363.464C300.747 363.323 300.499 363.195 300.251 363.075C299.983 362.944 299.832 363.159 299.651 363.289C299.547 362.649 299.159 362.187 298.649 361.838C297.178 360.829 296.049 359.455 294.825 358.189C294.061 357.398 293.421 356.463 292.838 355.521C291.98 354.143 291.226 352.712 290.623 351.194C289.302 347.856 288.3 344.461 288.334 340.828C288.334 340.597 288.361 340.342 288.277 340.138C288.022 339.511 288.049 338.861 288.069 338.211C288.086 337.688 288.015 337.192 287.754 336.733C288.498 333.177 289.792 329.899 292.319 327.178C296.089 323.116 300.509 320.05 305.731 318.166C307.309 317.596 308.935 317.204 310.631 317.177C311.666 317.161 312.672 317.265 313.63 317.684L313.637 317.687Z" fill="#7A4821"/>
<path d="M316.002 233.13C315.556 233.166 315.228 233.404 314.926 233.716C312.842 235.851 310.75 237.979 308.662 240.11C308.337 240.442 308.019 240.784 307.69 241.116C301.39 247.474 295.083 253.828 288.785 260.192C287.049 261.948 285.337 263.728 283.614 265.497C283.212 265.39 282.803 265.296 282.408 265.176C281.033 264.75 279.663 264.324 278.295 263.882C277.9 263.755 277.518 263.587 277.129 263.436C277.199 261.01 276.928 258.603 276.683 256.194C276.636 255.731 276.603 255.262 276.616 254.8C276.677 252.41 276.318 250.061 275.933 247.718C275.638 245.932 275.443 244.122 274.947 242.366C273.794 238.287 272.645 234.212 270.825 230.358C270.148 228.927 269.515 227.476 268.784 226.068C268.68 225.867 268.633 225.636 268.56 225.418C271.264 225.425 273.965 225.438 276.67 225.438C281.285 225.441 285.9 225.438 290.515 225.445C291.956 225.445 293.39 225.468 294.824 225.693C297.07 226.038 299.332 226.279 301.534 226.856C303.106 227.268 304.654 227.764 306.196 228.287C308.404 229.031 310.502 229.996 312.57 231.045C313.767 231.652 314.94 232.308 316.005 233.133L316.002 233.13Z" fill="#F6BB92"/>
<path d="M265.268 76.9773C265.02 76.8566 264.739 76.7728 264.528 76.6053C263.502 75.7875 262.39 75.1139 261.264 74.4537C259.172 73.2271 257.185 71.8429 255.197 70.4555C254.551 70.003 253.88 69.5774 253.197 69.1752C251.35 68.086 249.587 66.8628 247.818 65.6563C247.241 65.2641 246.672 64.8519 245.981 64.6642C244.825 63.4477 244.091 61.9965 243.759 60.3745C243.109 57.194 243.525 54.2783 245.961 51.8552C247.456 50.3705 249.044 49.0367 250.79 47.8536C252.791 46.4963 254.685 44.9781 256.662 43.5873C259.631 41.4994 262.631 39.455 265.627 37.404C266.663 36.6935 267.725 36.0199 268.774 35.3261C269.572 34.7966 270.42 34.4816 271.401 34.5721C272.048 34.6324 272.705 34.5285 273.349 34.676C275.081 35.0781 276.338 36.1573 277.337 37.5548C277.803 38.205 277.97 38.9691 278.034 39.7868C278.212 42.1194 277.615 44.2978 276.948 46.4896C276.187 48.9898 275.232 51.4095 274.223 53.8124C273.231 56.1752 272.393 58.5915 271.532 61.0045C270.564 63.7225 269.505 66.407 268.539 69.125C267.655 71.6284 266.455 74.0046 265.526 76.488C265.463 76.6589 265.349 76.8164 265.258 76.9773H265.268Z" fill="#F7BB92"/>
<path d="M310.187 366.235C310.74 366.091 311.3 366.158 311.856 366.181C314.769 366.305 317.487 365.598 320.067 364.298C320.396 364.13 320.69 363.896 321.002 363.691C321.317 363.48 321.331 363.152 321.344 362.823C321.522 362.773 321.743 362.776 321.867 362.666C322.782 361.861 323.422 360.836 324.072 359.82C324.142 359.713 324.156 359.552 324.152 359.415C324.136 358.436 324.29 357.481 324.404 356.513C324.558 355.182 324.343 353.818 324.719 352.501C324.551 351.234 324.91 350.004 325.057 348.771C325.151 347.983 325.034 347.333 324.752 346.636C324.116 345.044 323.512 343.435 322.906 341.83C322.38 340.443 321.86 339.052 321.344 337.661C321.24 337.379 321.062 337.188 320.794 337.064C320.871 336.441 320.66 335.871 320.446 335.305C319.574 332.999 318.693 330.7 317.825 328.391C316.779 325.606 315.737 322.818 314.715 320.022C314.541 319.547 314.333 319.067 314.343 318.541C314.35 318.24 314.172 318.018 313.998 317.801C314.805 317.801 315.09 317.174 315.422 316.607C316.163 316.685 316.578 317.197 316.883 317.784C317.336 318.648 317.775 319.516 318.11 320.445C319.219 323.501 320.385 326.538 321.525 329.587C321.947 330.72 322.356 331.856 322.755 332.996C323.66 335.586 324.541 338.184 325.453 340.771C326.086 342.567 326.76 344.35 327.42 346.137C327.765 347.072 327.986 348.007 327.608 348.992C327.527 349.203 327.504 349.454 327.527 349.679C327.665 350.993 327.276 352.263 327.222 353.56C327.216 353.741 327.159 353.925 327.108 354.103C326.696 355.534 326.582 357.015 326.384 358.483C326.207 359.814 325.976 361.137 325.711 362.451C325.627 362.867 325.56 363.272 325.557 363.691C325.557 364.204 325.577 364.713 325.372 365.206C325.302 365.374 325.295 365.571 325.289 365.756C325.258 366.774 325.356 367.807 325.007 368.799C325.155 370.34 324.605 371.838 324.705 373.38C324.726 373.695 324.608 374.017 324.561 374.339C324.514 374.66 324.454 374.982 324.444 375.304C324.417 376.138 324.481 376.976 324.199 377.794C324.099 378.089 324.163 378.441 324.159 378.766C324.146 379.416 324.176 380.059 323.951 380.7C323.834 381.035 323.891 381.437 323.881 381.809C323.861 382.459 323.908 383.102 323.68 383.743C323.559 384.078 323.61 384.48 323.599 384.852C323.586 385.408 323.626 385.968 323.402 386.504C323.331 386.668 323.311 386.873 323.331 387.054C323.482 388.461 322.963 389.815 323.033 391.216C323.06 391.756 322.802 392.067 322.266 392.218C320.701 392.654 319.149 393.13 317.584 393.572C315.439 394.175 313.291 394.755 311.146 395.355C308.599 396.066 306.045 396.759 303.511 397.517C302.543 397.805 301.598 398.207 300.683 398.636C299.922 398.991 299.453 399.588 299.523 400.52C299.614 401.719 299.379 402.943 299.788 404.126C299.845 404.293 299.821 404.498 299.811 404.682C299.771 405.389 299.875 406.073 300.096 406.74C297.72 406.76 295.34 406.773 292.964 406.8C292.452 406.807 291.935 406.8 291.433 406.881C289.821 407.139 288.51 406.549 287.378 405.476C286.959 405.081 286.744 404.548 286.701 403.975C286.573 402.35 286.489 400.724 286.345 399.102C286.252 398.06 286.694 397.396 287.636 397.041C288.896 396.565 290.132 396.029 291.439 395.663C296.416 394.276 301.386 392.865 306.36 391.464C307.302 391.199 308.247 390.955 309.188 390.69C309.631 390.566 309.865 390.301 309.902 389.792C310.077 387.426 310.274 385.06 310.499 382.697C310.727 380.291 311.005 377.888 311.236 375.478C311.377 373.997 311.471 372.509 311.591 371.024C311.682 369.911 311.789 368.799 311.88 367.686C311.903 367.408 311.89 367.126 311.88 366.848C311.87 366.637 311.736 366.523 311.541 366.466C311.099 366.335 310.599 366.55 310.191 366.228L310.187 366.235Z" fill="#DDA781"/>
<path d="M169.693 392.738C171.68 392.597 173.664 392.447 175.652 392.323C176.577 392.266 177.505 392.215 178.43 392.232C180.153 392.266 181.852 391.994 183.558 391.837C185.17 391.686 186.768 391.388 188.394 391.334C188.689 391.324 188.933 391.22 189.178 391.086C189.701 391.907 190.257 392.708 190.736 393.553C191.725 395.295 192.751 397.035 193.243 398.992C193.86 401.442 193.669 403.791 192.087 405.899C191.216 407.059 190.019 407.786 188.742 408.342C187.553 408.858 186.279 409.133 184.975 409.311C183.585 409.502 182.187 409.438 180.803 409.582C178.108 409.864 175.407 409.706 172.716 409.884C171.526 409.964 170.296 409.954 169.13 410.31C167.213 410.289 165.373 410.92 163.459 410.973C162.675 410.997 161.871 411.08 161.117 411.292C159.917 411.627 158.804 411.359 157.705 410.97C156.059 410.383 154.783 409.358 154.109 407.689C153.476 406.127 153.858 404.666 154.602 403.272C155.181 402.182 156.11 401.392 157.048 400.621C158.348 399.552 159.813 398.724 161.251 397.869C163.855 396.328 166.405 394.705 168.949 393.07C169.184 392.919 169.388 392.721 169.696 392.735L169.693 392.738Z" fill="#F7BB93"/>
<path d="M299.544 363.652C299.521 364.208 299.544 364.771 299.467 365.321C299.008 368.454 298.542 371.584 298.049 374.711C297.627 377.379 297.171 380.04 296.726 382.704C296.679 382.979 296.632 383.257 296.558 383.525C296.3 384.501 295.593 384.859 294.644 384.477C293.244 383.914 292.004 383.066 290.934 382.031C288.625 379.795 286.39 377.486 284.413 374.939C280.786 370.271 277.834 365.23 275.944 359.606C274.975 356.721 274.332 353.775 274.255 350.722C274.198 348.47 274.419 346.258 275.21 344.126C277.09 339.042 281.856 336.15 287.221 336.834C287.05 337.018 286.829 337.102 286.591 337.065C285.271 336.864 284.641 337.665 284.158 338.704C283.843 339.384 283.642 340.111 283.602 340.842C283.501 342.695 283.514 344.559 283.937 346.378C284.376 348.275 285.016 350.115 285.71 351.928C286.025 352.749 286.38 353.561 286.789 354.338C287.154 355.032 287.63 355.669 288.032 356.346C289.316 358.504 290.81 360.474 292.754 362.107C293.512 362.743 294.296 363.276 295.171 363.719C296.551 364.416 297.902 364.469 299.266 363.698C299.343 363.655 299.447 363.665 299.537 363.652H299.544Z" fill="#7A4821"/>
<path d="M299.544 363.652C299.453 363.666 299.346 363.656 299.272 363.699C297.908 364.47 296.558 364.417 295.177 363.72C294.302 363.277 293.521 362.744 292.761 362.107C290.817 360.475 289.322 358.505 288.039 356.346C287.636 355.669 287.157 355.033 286.795 354.339C286.386 353.561 286.031 352.75 285.716 351.929C285.019 350.113 284.382 348.273 283.943 346.379C283.521 344.56 283.511 342.696 283.608 340.843C283.648 340.112 283.849 339.385 284.164 338.705C284.644 337.662 285.277 336.865 286.597 337.066C286.835 337.103 287.057 337.019 287.228 336.835C287.405 336.804 287.586 336.774 287.764 336.744C288.025 337.203 288.096 337.696 288.079 338.222C288.059 338.869 288.032 339.519 288.287 340.149C288.37 340.354 288.344 340.608 288.344 340.84C288.31 344.472 289.312 347.867 290.633 351.205C291.232 352.727 291.99 354.158 292.848 355.532C293.434 356.47 294.071 357.409 294.835 358.2C296.058 359.463 297.188 360.837 298.659 361.849C299.169 362.198 299.554 362.66 299.661 363.301C299.624 363.421 299.587 363.539 299.551 363.659L299.544 363.652Z" fill="#5C3617"/>
<path d="M243.04 270.081C242.956 269.921 242.909 269.693 242.775 269.606C242.145 269.197 241.659 268.62 241.076 268.164C239.527 266.958 238.16 265.581 236.947 264.039C236.343 263.275 235.623 262.615 235.033 261.827C234.175 260.674 233.267 259.561 232.426 258.392C231.068 256.505 229.791 254.558 228.659 252.537C227.754 250.922 226.789 249.333 226.081 247.6C225.485 246.139 224.784 244.721 224.181 243.26C223.481 241.574 223.055 239.822 222.599 238.072C222.472 237.58 222.392 237.074 222.291 236.578C222.998 235.807 223.943 235.371 224.795 234.805C225.274 236.309 225.76 237.811 226.232 239.319C227.405 243.069 229.125 246.585 231.001 250.013C232.587 252.906 234.41 255.667 236.394 258.305C238.468 261.063 240.848 263.553 243.375 265.896C244.189 266.65 245.134 267.26 246.032 267.92C246.24 268.074 246.344 268.248 246.364 268.493C245.188 268.875 244.156 269.565 243.036 270.071L243.04 270.081Z" fill="#4B4C47"/>
<path d="M320.795 337.066C321.059 337.19 321.24 337.381 321.344 337.663C321.86 339.054 322.38 340.445 322.906 341.832C323.516 343.437 324.116 345.046 324.753 346.638C325.031 347.335 325.152 347.985 325.058 348.773C324.91 350.006 324.552 351.236 324.719 352.503C324.344 353.82 324.558 355.187 324.404 356.515C324.294 357.483 324.136 358.438 324.153 359.417C324.153 359.551 324.143 359.712 324.072 359.822C323.422 360.838 322.782 361.863 321.867 362.668C321.743 362.778 321.522 362.775 321.344 362.825C320.822 361.726 320.63 360.526 320.315 359.37C319.404 356.009 318.559 352.627 317.671 349.255C317.547 348.79 317.51 348.367 317.644 347.895C318.657 344.366 319.645 340.83 320.647 337.301C320.671 337.217 320.744 337.147 320.798 337.07L320.795 337.066Z" fill="#F5B990"/>
</svg>
