<svg width="497" height="497" viewBox="0 0 497 497" fill="none" xmlns="http://www.w3.org/2000/svg">
<path d="M321.119 431.877C328.371 429.381 339.428 429.499 339.547 426.408C340.498 401.68 342.519 364.588 342.519 364.588C340.736 339.978 327.896 292.424 329.917 283.15C331.938 273.996 350.841 275.898 351.197 285.29C352.386 296.347 353.813 301.578 355.002 312.991C356.785 327.138 358.925 356.86 357.736 365.063C357.617 366.133 349.652 420.94 349.652 420.94C349.652 420.94 349.414 427.716 348.463 431.402C347.393 435.563 344.659 434.612 336.337 435.563C330.155 436.395 316.007 433.66 321.119 431.877Z" fill="#ECAD83"/>
<path d="M186.064 33.0119C181.666 35.1519 187.967 55.0059 187.253 58.6914C186.897 60.4746 184.757 62.7335 185.47 66.7756C186.421 72.1255 191.295 74.1466 191.533 76.1676C192.841 86.0352 199.38 112.071 201.044 123.96C201.401 126.694 201.876 129.548 202.471 132.401C204.729 144.052 227.08 133.827 225.891 129.666C220.898 113.26 203.897 73.7899 201.401 68.0834C201.401 68.0834 196.883 49.656 195.456 45.3761C194.505 42.8795 190.463 30.872 186.064 33.0119Z" fill="#ECAD83"/>
<path d="M211.668 165.336C208.031 152.001 204.636 143.666 201 129.497C205.121 130.449 221.488 128.663 224.882 126.996C225.731 131.163 237.733 161.288 237.733 161.288C240.036 166.884 262.343 242.969 259.797 256.186C259.07 261.067 257.979 265.473 256.888 268.926C254.706 275.832 215.426 270.236 214.335 260.591C216.639 239.635 213.729 201.771 213.123 191.293C212.638 181.649 211.668 165.336 211.668 165.336Z" fill="#333333"/>
<path d="M250.851 220.996C250.851 220.996 268.23 249.301 263.028 258.073C262.437 259.125 261.727 261.465 261.491 262.166C255.107 280.062 240.565 279.828 238.083 282.752C236.191 285.091 216.448 270.12 209 260.178C209 260.178 218.221 236.903 225.196 231.757C235.836 223.803 250.851 220.996 250.851 220.996Z" fill="#3D3C3C"/>
<path d="M345.229 249.634C356.133 259.175 355.185 264.947 359.926 281.674C360.519 283.794 357.437 293.689 354.118 296.869C350.325 300.521 345.821 302.877 340.014 302.995C328.635 303.23 312.042 274.253 297.108 267.185C287.507 261.296 266.173 252.461 263.565 257.762C263.565 257.762 248.513 220.892 251.357 220.421C303.627 213 323.302 236.559 334.206 245.275C334.206 245.275 342.147 246.925 345.229 249.634Z" fill="#FF8AA0"/>
<path d="M357.124 295.533C357.124 295.533 358.932 300.514 363 308.945L348.875 322.996C348.649 312.266 343 303.069 343 303.069C355.09 299.492 355.542 290.934 358.48 287.996L357.124 295.533Z" fill="#ECAD83"/>
<path d="M360.994 343.157C359.923 350.644 353.613 353.021 349.684 353.971C337.422 357.061 331.588 352.783 325.159 346.247C316.588 337.691 335.993 312.023 340.517 308.933C352.303 301.09 369.804 310.835 375.518 316.301C381.828 322.243 378.138 322.837 375.518 325.095C375.399 325.213 375.399 325.808 375.399 325.808C374.566 326.639 373.376 327.709 372.78 329.373C372.78 329.373 371.828 329.967 371.352 330.323C371.114 330.561 370.875 330.799 371.114 331.155C371.709 332.343 372.185 333.532 372.185 334.245C372.066 336.74 361.47 339.711 360.994 343.157Z" fill="#F6BB92"/>
<path d="M371 324.996C371 324.996 371.99 325.195 374.838 327.488C375.086 327.887 375.209 328.685 373.971 328.984C372.981 329.183 372.733 326.89 371 324.996Z" fill="#D6876B"/>
<path d="M371 325.164C371 325.164 372.841 324.395 375.766 326.152C376.09 326.591 375.982 327.031 375.982 327.25C375.549 328.349 374.466 327.909 374.466 327.909C371.866 325.383 371 325.164 371 325.164Z" fill="#CC785E"/>
<path d="M323.704 347.172C313.534 336.598 314.703 307.397 346.031 304.032C348.135 303.792 351.642 304.633 352.46 310.281C353.045 314.367 352.343 318.212 352.343 318.212C352.11 319.414 351.876 320.615 351.525 321.937C351.174 323.379 345.447 327.946 346.382 329.147C354.798 341.164 353.746 351.018 351.058 353.782C343.342 359.069 334.575 358.468 323.704 347.172Z" fill="#602F0F"/>
<path d="M348.042 319.566C353.732 316.563 355.702 318.295 358 321.183L349.902 326.61L345.963 327.996C343.665 325.224 342.351 322.568 348.042 319.566Z" fill="#F6BB92"/>
<path d="M322.865 314.011C318.325 313.64 314.383 320.079 314.025 328.252C313.667 336.548 317.131 343.607 321.67 343.978C326.21 344.35 328.599 338.901 328.957 330.605C329.316 322.432 327.404 314.383 322.865 314.011Z" fill="#4C230C"/>
<path d="M348.347 329.165C347.395 329.878 346.563 330.591 345.969 331.186C345.137 332.137 344.661 332.85 344.661 332.85L342.759 328.689C343.234 328.214 343.591 327.738 344.067 327.381C344.067 327.381 344.304 327.857 344.661 328.57V328.451C345.731 328.213 347.277 327.619 349.417 326.668C349.298 326.668 351.319 326.906 348.347 329.165Z" fill="#602F0F"/>
<path d="M320.764 313.35C316.008 312.993 311.847 319.651 311.491 328.448C311.134 337.127 314.7 344.498 319.456 344.854C324.211 345.211 326.708 339.505 327.065 330.826C327.54 322.147 325.519 313.825 320.764 313.35Z" fill="#602F0F"/>
<path d="M313.7 323.996C313.425 323.996 313.082 326.095 313.013 328.934C312.944 331.65 313.15 333.996 313.425 333.996C313.7 333.996 313.906 332.144 313.975 329.428C314.043 326.712 313.975 324.12 313.7 323.996Z" fill="#4C230C"/>
<path d="M117.532 435.996L155.573 435.405C164.433 435.405 161.716 425.944 159.353 423.815C157.936 422.514 182.154 376.51 184.517 369.769C188.534 358.771 166.205 354.513 164.67 358.416C152.501 390.938 146.713 414.118 145.177 420.149C145.177 420.149 117.532 426.299 114.461 429.61C112.807 431.739 111.271 434.932 117.532 435.996Z" fill="#F6BB92"/>
<path d="M202.783 336.017C198.593 349.194 189.376 360.215 184.109 370.996C181.236 368.001 167.71 360.095 164 359.496C165.556 355.423 178.842 325.475 178.842 325.475C182.074 315.413 213.675 248.569 215.471 244.616C217.386 240.663 219.78 237.668 222.533 232.996L260 258.033C249.945 276.72 218.583 301.876 213.436 310.142C208.169 318.408 202.783 336.017 202.783 336.017Z" fill="#3D3C3C"/>
<path d="M332.207 433.97C337.231 430.879 351.108 429.333 350.869 426.241C349.075 401.51 341.897 364.412 341.897 364.412C340.102 339.799 327.182 292.238 329.216 282.964C331.25 273.808 350.271 275.711 350.63 285.104C351.826 296.162 353.262 301.394 354.458 312.808C356.253 326.958 358.406 356.683 357.21 364.888C357.09 365.958 360.799 427.549 359.842 431.235C358.765 435.397 356.013 434.446 347.639 435.397C341.418 436.11 327.541 436.705 332.207 433.97Z" fill="#F6BB92"/>
</svg>
