<svg width="500" height="500" viewBox="0 0 500 500" fill="none" xmlns="http://www.w3.org/2000/svg">
<path d="M278.552 292.564C278.047 292.571 277.599 292.349 277.148 292.176C274.943 291.336 272.646 290.892 270.325 290.553C269.574 290.444 268.868 290.504 268.216 290.934C267.972 291.096 267.711 291.23 267.461 291.385C262.575 294.377 257.315 296.409 251.691 297.481C250.305 297.746 248.894 298.014 247.472 297.76C247.003 297.676 246.615 297.951 246.177 297.898C246.156 297.64 246.047 297.453 245.828 297.295C244.883 296.6 243.884 295.957 243.031 295.164C240.371 292.698 237.866 290.077 235.682 287.173C233.594 284.393 231.671 281.49 230.006 278.446C228.031 274.837 226.221 271.136 224.986 267.188C224.489 265.601 223.977 264.02 223.473 262.436C223.9 261.96 223.921 261.35 223.97 260.775C224.185 258.38 224.559 256.009 224.93 253.635C225.081 252.668 225.148 251.684 225.215 250.707C225.568 245.57 226.08 240.451 226.669 235.336C227.036 232.172 227.325 228.997 227.664 225.829C228.108 221.684 228.574 217.545 229.018 213.4C229.357 210.232 229.671 207.061 230.01 203.889C230.348 200.721 230.701 197.553 231.043 194.386C231.283 192.142 231.512 189.898 231.752 187.658C232.105 184.342 232.465 181.029 232.821 177.713C233.008 175.956 233.178 174.2 233.386 172.446C233.442 171.977 233.333 171.578 233.125 171.18C230.638 166.417 229.435 161.284 228.754 156C228.062 150.637 227.833 145.254 227.96 139.853C228.038 136.42 228.334 132.999 228.994 129.644C230.959 119.681 233.435 109.849 237.351 100.441C239.182 96.0414 241.274 91.7728 243.782 87.7194C244.562 86.46 245.112 85.0983 245.736 83.7683C245.793 83.6448 245.761 83.479 245.772 83.3379C246.498 83.5354 247.098 83.9694 247.705 84.3821C249.568 85.6521 251.423 86.9398 253.367 88.0863C254.083 88.5096 254.789 88.9577 255.473 89.4339C257.562 90.8979 259.657 92.3549 261.858 93.6426C263.044 94.3375 264.215 95.0501 265.295 95.9074C265.517 96.0838 265.813 96.172 266.074 96.299C266.328 97.5125 266.293 98.7367 266.184 99.9608C265.933 102.744 265.676 105.531 265.429 108.315C265.192 111.003 264.966 113.691 264.73 116.379C264.48 119.261 264.222 122.144 263.968 125.029C263.735 127.668 263.506 130.307 263.273 132.946C263.005 135.976 262.73 139.003 262.465 142.033C262.243 144.573 262.028 147.117 261.813 149.657C261.682 151.22 261.555 152.786 261.432 154.349C261.407 154.691 261.358 155.044 261.421 155.372C262.137 158.988 262.271 162.674 262.691 166.326C263.069 169.589 263.4 172.859 263.742 176.129C264.085 179.399 264.409 182.67 264.751 185.936C265.086 189.108 265.432 192.276 265.781 195.444C266.106 198.418 266.448 201.392 266.769 204.366C266.998 206.461 267.242 208.557 267.415 210.659C267.612 213.055 267.753 215.453 267.887 217.856C268.004 219.913 268.089 221.973 268.177 224.033C268.321 227.367 268.441 230.701 268.6 234.034C268.836 239.083 269.09 244.131 269.341 249.179C269.397 250.304 269.464 251.43 269.524 252.555C269.602 252.784 269.651 253.028 269.761 253.24C270.53 254.721 271.2 256.249 271.909 257.755C273.825 261.812 275.035 266.102 276.248 270.395C276.77 272.244 276.975 274.145 277.285 276.029C277.691 278.491 278.069 280.968 278.005 283.483C277.991 283.974 278.026 284.464 278.076 284.951C278.333 287.487 278.619 290.02 278.545 292.574L278.552 292.564Z" fill="#696C65"/>
<path d="M242.674 299.559C242.353 299.962 241.87 300.11 241.439 300.332C234.825 303.765 228.217 307.211 221.578 310.594C219.701 311.55 217.782 312.418 215.969 313.498C210.282 316.884 204.585 320.253 198.891 323.626C192.142 327.626 185.39 331.62 178.638 335.62C178.511 335.695 178.384 335.772 178.257 335.846C176.084 337.123 176.253 337.021 177.181 339.279C177.572 340.228 178.08 341.127 178.546 342.045C180.313 345.512 181.375 349.245 182.631 352.907C184.018 356.956 184.921 361.112 185.538 365.342C185.679 366.309 185.961 367.258 186.11 368.224C186.699 372.055 187.094 375.908 187.242 379.781C187.337 382.23 187.528 384.678 187.567 387.126C187.627 391.098 187.489 395.067 187.365 399.039C187.249 402.814 186.967 406.582 186.963 410.36C186.963 412.367 186.727 414.371 186.621 416.379C186.445 419.755 186.078 423.124 186.046 426.507C186.046 426.651 185.997 426.796 185.972 426.941C185.714 427.082 185.457 427.191 185.146 427.202C183.439 427.258 181.756 427.572 180.056 427.731C178.26 427.897 176.475 428.186 174.658 428.147C173.685 428.126 172.708 428.179 171.734 428.242C169.642 428.373 167.553 428.532 165.461 428.68C165.585 427.156 165.493 425.657 165.207 424.143C164.452 420.143 163.832 416.117 163.052 412.12C162.632 409.958 162.043 407.824 161.454 405.7C160.039 400.599 158.568 395.512 157.132 390.414C156.028 386.498 154.963 382.572 153.848 378.656C152.627 374.366 151.414 370.073 150.066 365.818C148.69 361.472 147.3 357.129 146.217 352.695C145.6 350.173 144.81 347.689 144.178 345.17C143.529 342.598 143.056 339.991 143.116 337.321C143.131 336.735 143.169 336.139 143.293 335.568C143.886 332.886 144.482 330.205 145.695 327.711C146.08 326.917 146.418 326.099 146.778 325.295C147.604 323.45 148.634 321.728 149.869 320.126C150.26 319.622 150.638 319.107 150.998 318.581C153.996 314.189 157.475 310.196 161.214 306.424C163.701 303.916 166.192 301.404 168.742 298.96C171.395 296.413 174.129 293.957 177.047 291.692C181.428 288.288 185.916 285.032 190.463 281.861C191.468 281.158 192.474 280.46 193.546 279.857C194.142 279.522 194.724 279.144 195.275 278.735C197.684 276.95 200.238 275.391 202.725 273.725C204.729 272.381 206.811 271.2 208.963 270.12C209.837 269.683 210.702 269.206 211.527 268.681C213.732 267.277 216.117 266.243 218.495 265.195C219.257 264.86 220.047 264.599 220.827 264.303C220.932 264.828 221.013 265.361 221.151 265.876C221.631 267.718 222.082 269.563 222.816 271.337C223.455 272.875 224.192 274.368 224.816 275.906C225.561 277.729 226.577 279.402 227.529 281.102C228.722 283.229 230.062 285.275 231.495 287.265C232.38 288.496 233.336 289.667 234.239 290.881C234.86 291.71 235.619 292.405 236.254 293.209C237.534 294.832 238.973 296.279 240.6 297.552C241.214 298.032 241.725 298.639 242.388 299.069C242.529 299.161 242.575 299.397 242.667 299.57L242.674 299.559Z" fill="#696C65"/>
<path d="M347.227 337.226C347.424 338.927 347.544 340.638 347.841 342.32C348.133 343.982 347.982 345.647 348.109 347.305C348.222 348.766 348.398 350.226 348.596 351.676C348.726 352.646 348.716 353.623 348.895 354.597C349.135 355.892 349.157 357.225 349.284 358.538C349.4 359.755 349.474 360.979 349.668 362.185C349.911 363.678 349.876 365.216 350.388 366.673C350.497 366.98 350.423 367.354 350.427 367.696C350.441 368.821 350.437 369.943 350.67 371.061C350.867 372.014 350.786 373.005 350.959 373.982C351.189 375.281 351.224 376.611 351.351 377.923C351.393 378.36 351.45 378.798 351.502 379.235C351.527 379.429 351.619 379.641 351.57 379.814C351.203 381.105 351.428 382.449 351.171 383.754C350.934 384.954 350.882 386.192 350.815 387.402C350.691 389.607 350.303 391.776 350.102 393.967C349.936 395.766 349.717 397.562 349.523 399.361C349.22 402.18 348.804 404.985 348.264 407.771C347.763 410.364 347.357 412.975 346.902 415.575C346.588 417.356 346.253 419.134 345.936 420.916C345.466 423.565 345.015 426.215 344.549 428.864C344.144 431.175 343.745 433.489 343.314 435.796C343.198 436.421 342.912 436.964 342.489 437.482C340.82 439.532 339.212 441.635 337.589 443.72C336.94 444.552 336.139 444.923 335.049 444.916C330.78 444.884 326.508 444.803 322.243 444.961C317.339 445.141 312.439 445.127 307.539 445.159C307.148 445.159 306.753 445.173 306.361 445.159C305.511 445.124 304.728 444.933 304.061 444.34C303.662 443.984 303.182 443.72 302.741 443.413C302.509 442.711 302.399 441.987 302.442 441.247C302.452 441.053 302.477 440.837 302.417 440.661C301.99 439.416 302.233 438.132 302.138 436.865C302.064 435.881 302.558 435.256 303.359 434.882C304.325 434.431 305.317 434.008 306.336 433.704C309.003 432.907 311.691 432.177 314.373 431.429C316.63 430.797 318.895 430.187 321.149 429.552C322.797 429.09 324.43 428.585 326.078 428.127C326.642 427.972 326.914 427.643 326.886 427.072C326.811 425.597 327.358 424.172 327.2 422.69C327.178 422.5 327.2 422.285 327.274 422.112C327.514 421.547 327.468 420.958 327.482 420.373C327.492 419.981 327.439 419.561 327.566 419.205C327.806 418.531 327.757 417.85 327.778 417.169C327.789 416.778 327.729 416.355 327.852 416.002C328.089 415.328 328.06 414.651 328.071 413.966C328.078 413.624 328.007 413.254 328.113 412.943C328.406 412.082 328.343 411.2 328.371 410.322C328.381 409.983 328.445 409.645 328.494 409.306C328.544 408.967 328.667 408.629 328.646 408.297C328.54 406.674 329.119 405.097 328.963 403.475C329.33 402.43 329.228 401.344 329.26 400.271C329.267 400.077 329.277 399.869 329.348 399.693C329.563 399.174 329.542 398.638 329.542 398.098C329.542 397.657 329.616 397.23 329.704 396.793C329.983 395.41 330.223 394.013 330.413 392.616C330.622 391.071 330.745 389.515 331.175 388.005C331.228 387.818 331.288 387.624 331.295 387.434C331.355 386.069 331.765 384.732 331.616 383.349C331.592 383.112 331.616 382.844 331.701 382.625C332.096 381.588 331.867 380.604 331.503 379.62C330.808 377.739 330.099 375.863 329.433 373.972C328.47 371.248 327.542 368.514 326.593 365.787C326.173 364.588 325.743 363.388 325.298 362.2C324.102 358.993 322.871 355.797 321.703 352.576C321.35 351.599 320.888 350.685 320.412 349.775C320.091 349.161 319.654 348.621 318.878 348.536C317.625 345.443 316.528 342.299 315.65 339.078C315.11 337.096 314.447 335.148 314.14 333.099C313.85 331.155 313.66 329.211 313.639 327.246C313.632 326.608 313.716 325.983 313.808 325.348C314.122 323.2 314.75 321.143 315.449 319.097C316.524 315.954 318.235 313.259 320.987 311.322C322.719 310.101 324.529 308.979 326.66 308.641C328.346 308.373 330.036 308.157 331.775 308.408C333.585 308.669 335.352 309.004 337.021 309.759C341.417 311.749 344.299 315.128 346.038 319.57C347.177 322.477 347.213 325.514 347.093 328.555C347.047 329.726 346.98 330.905 346.906 332.079C346.835 333.205 346.902 334.334 346.719 335.455C346.613 336.097 346.733 336.729 347.23 337.226H347.227Z" fill="#F7BB92"/>
<path d="M347.227 337.226C346.73 336.732 346.61 336.097 346.716 335.455C346.899 334.333 346.836 333.204 346.903 332.079C346.977 330.904 347.044 329.726 347.09 328.554C347.21 325.513 347.175 322.476 346.035 319.569C344.296 315.128 341.41 311.748 337.018 309.758C335.353 309.003 333.582 308.668 331.772 308.407C330.029 308.157 328.34 308.372 326.657 308.64C324.526 308.979 322.716 310.104 320.984 311.321C318.233 313.258 316.522 315.957 315.446 319.096C314.747 321.139 314.116 323.196 313.805 325.348C313.713 325.983 313.629 326.607 313.636 327.246C313.657 329.207 313.848 331.151 314.137 333.098C314.44 335.148 315.103 337.095 315.647 339.078C316.525 342.299 317.619 345.445 318.875 348.536C318.522 349.132 318.226 349.795 317.372 349.792C317.245 349.753 317.118 349.71 316.991 349.672C316.264 348.229 315.527 346.793 314.814 345.343C314.08 343.847 313.361 342.344 312.659 340.835C310.227 335.597 307.483 330.461 304.428 325.425C299.168 316.75 293.908 308.072 288.666 299.387C287.929 298.162 287.103 297.012 286.123 295.979C285.773 295.612 285.509 295.22 285.382 294.733C287.195 292.871 288.998 290.998 290.825 289.149C297.454 282.45 304.093 275.761 310.725 269.069C311.071 268.72 311.406 268.363 311.748 268.01C313.946 265.767 316.148 263.527 318.342 261.279C318.659 260.951 319.005 260.701 319.474 260.662C320.766 261.551 322.036 262.472 323.355 263.319C325.874 264.938 328.315 266.656 330.682 268.487C331.624 269.217 332.686 269.718 333.801 270.106C336.577 271.073 339.364 272.015 342.14 272.978C343.858 273.574 345.559 274.226 347.083 275.225C349.224 276.632 351.101 278.343 352.678 280.386C355.056 283.466 356.276 286.93 356.671 290.8C357.109 295.079 356.784 299.32 356.449 303.571C356.29 305.574 356.065 307.571 355.832 309.568C355.303 314.059 354.29 318.44 352.893 322.741C351.863 325.912 350.759 329.052 349.461 332.124C348.889 333.479 348.342 334.844 347.774 336.199C347.626 336.555 347.552 336.958 347.227 337.222V337.226Z" fill="#8A8AD9"/>
<path d="M316.987 349.671C317.114 349.71 317.241 349.752 317.368 349.791C317.552 350.02 317.739 350.253 317.732 350.57C317.721 351.124 317.94 351.629 318.123 352.13C319.203 355.072 320.296 358.003 321.397 360.939C322.307 363.366 323.239 365.789 324.156 368.216C324.382 368.813 324.604 369.412 324.523 370.068C324.47 370.15 324.392 370.224 324.364 370.312C323.309 374.03 322.268 377.748 321.203 381.463C321.062 381.961 321.101 382.409 321.231 382.895C322.17 386.441 323.055 390 324.015 393.542C324.346 394.763 324.547 396.026 325.098 397.179C325.084 397.525 325.069 397.874 324.738 398.093C324.413 398.312 324.103 398.559 323.754 398.732C321.037 400.101 318.173 400.841 315.11 400.714C314.525 400.69 313.936 400.623 313.354 400.771C309.896 400.563 306.661 399.617 303.67 397.857C303.419 397.709 303.158 397.575 302.897 397.448C302.615 397.31 302.456 397.536 302.266 397.673C302.156 397 301.747 396.513 301.211 396.146C299.662 395.084 298.473 393.638 297.186 392.304C296.381 391.472 295.708 390.487 295.094 389.496C294.191 388.046 293.397 386.54 292.762 384.942C291.372 381.428 290.317 377.854 290.352 374.03C290.352 373.787 290.381 373.519 290.293 373.303C290.024 372.644 290.053 371.959 290.074 371.275C290.091 370.725 290.017 370.203 289.742 369.719C290.525 365.976 291.887 362.526 294.547 359.662C298.516 355.386 303.169 352.158 308.665 350.175C310.327 349.576 312.038 349.163 313.823 349.135C314.913 349.117 315.971 349.226 316.98 349.667L316.987 349.671Z" fill="#7A4821"/>
<path d="M319.477 260.662C319.008 260.701 318.663 260.952 318.345 261.28C316.151 263.527 313.949 265.767 311.752 268.011C311.409 268.36 311.074 268.72 310.729 269.069C304.096 275.761 297.457 282.45 290.828 289.149C289.001 290.998 287.198 292.871 285.385 294.734C284.962 294.621 284.531 294.522 284.115 294.395C282.669 293.947 281.226 293.499 279.786 293.033C279.37 292.899 278.968 292.723 278.559 292.564C278.633 290.01 278.347 287.477 278.089 284.941C278.04 284.454 278.005 283.96 278.019 283.473C278.082 280.958 277.705 278.485 277.299 276.019C276.989 274.138 276.784 272.233 276.262 270.385C275.048 266.092 273.838 261.802 271.923 257.745C271.21 256.239 270.544 254.711 269.774 253.229C269.665 253.018 269.616 252.774 269.538 252.545C272.385 252.552 275.228 252.566 278.075 252.566C282.933 252.57 287.791 252.566 292.649 252.573C294.166 252.573 295.675 252.598 297.185 252.834C299.549 253.198 301.93 253.452 304.248 254.058C305.902 254.492 307.532 255.014 309.155 255.565C311.48 256.348 313.688 257.364 315.865 258.468C317.124 259.107 318.359 259.798 319.481 260.666L319.477 260.662Z" fill="#F6BB92"/>
<path d="M266.074 96.292C265.813 96.165 265.517 96.0768 265.294 95.9004C264.215 95.0396 263.044 94.3305 261.858 93.6355C259.657 92.3444 257.565 90.8874 255.473 89.4269C254.792 88.9506 254.087 88.5026 253.367 88.0793C251.423 86.9328 249.568 85.6451 247.705 84.3751C247.098 83.9624 246.498 83.5284 245.772 83.3309C244.555 82.0503 243.782 80.5228 243.433 78.8153C242.748 75.4675 243.186 72.3983 245.751 69.8477C247.324 68.2849 248.996 66.8808 250.834 65.6355C252.94 64.2068 254.933 62.6087 257.015 61.1446C260.14 58.9468 263.298 56.7949 266.452 54.6359C267.542 53.888 268.66 53.1789 269.764 52.4487C270.604 51.8913 271.496 51.5597 272.53 51.6549C273.211 51.7184 273.902 51.609 274.58 51.7643C276.403 52.1876 277.726 53.3235 278.778 54.7946C279.268 55.479 279.444 56.2834 279.511 57.1441C279.698 59.5995 279.07 61.8925 278.368 64.1997C277.568 66.8314 276.562 69.3785 275.5 71.9079C274.456 74.395 273.574 76.9385 272.668 79.4785C271.648 82.3396 270.533 85.1653 269.517 88.0264C268.586 90.6616 267.323 93.1628 266.346 95.7769C266.279 95.9568 266.159 96.1226 266.064 96.292H266.074Z" fill="#F7BB92"/>
<path d="M313.357 400.775C313.939 400.623 314.528 400.693 315.114 400.718C318.179 400.849 321.04 400.104 323.757 398.736C324.102 398.559 324.413 398.312 324.741 398.097C325.073 397.875 325.087 397.529 325.101 397.183C325.288 397.13 325.521 397.134 325.651 397.018C326.614 396.171 327.288 395.091 327.972 394.022C328.046 393.91 328.061 393.74 328.057 393.596C328.039 392.565 328.202 391.56 328.322 390.541C328.484 389.14 328.258 387.704 328.653 386.318C328.477 384.984 328.854 383.69 329.01 382.391C329.108 381.562 328.985 380.878 328.688 380.144C328.018 378.468 327.383 376.775 326.745 375.085C326.191 373.625 325.644 372.161 325.101 370.697C324.991 370.4 324.804 370.199 324.522 370.069C324.603 369.413 324.381 368.813 324.155 368.217C323.238 365.79 322.31 363.37 321.397 360.939C320.296 358.007 319.199 355.072 318.123 352.13C317.939 351.629 317.721 351.125 317.731 350.571C317.738 350.253 317.551 350.02 317.368 349.791C318.218 349.791 318.518 349.131 318.867 348.535C319.647 348.616 320.084 349.156 320.405 349.773C320.881 350.684 321.344 351.597 321.696 352.574C322.864 355.792 324.092 358.988 325.291 362.198C325.736 363.391 326.166 364.587 326.586 365.786C327.538 368.513 328.466 371.247 329.426 373.97C330.093 375.861 330.802 377.738 331.497 379.618C331.86 380.603 332.093 381.587 331.694 382.624C331.609 382.846 331.585 383.111 331.609 383.347C331.754 384.73 331.345 386.067 331.288 387.433C331.281 387.623 331.221 387.817 331.169 388.004C330.735 389.51 330.615 391.07 330.407 392.615C330.22 394.015 329.976 395.409 329.697 396.792C329.609 397.229 329.539 397.656 329.535 398.097C329.535 398.637 329.556 399.173 329.341 399.692C329.267 399.868 329.26 400.076 329.253 400.27C329.221 401.343 329.323 402.429 328.957 403.473C329.112 405.096 328.533 406.673 328.639 408.296C328.66 408.627 328.537 408.966 328.487 409.305C328.438 409.643 328.375 409.982 328.364 410.321C328.336 411.199 328.403 412.081 328.106 412.942C328.001 413.252 328.068 413.623 328.064 413.965C328.05 414.649 328.082 415.327 327.845 416.001C327.722 416.353 327.782 416.777 327.771 417.168C327.75 417.853 327.799 418.53 327.56 419.204C327.433 419.557 327.486 419.98 327.475 420.371C327.461 420.957 327.503 421.546 327.267 422.111C327.193 422.284 327.172 422.499 327.193 422.689C327.351 424.171 326.805 425.596 326.879 427.071C326.907 427.639 326.635 427.967 326.071 428.126C324.423 428.584 322.79 429.085 321.143 429.551C318.885 430.186 316.623 430.796 314.366 431.428C311.685 432.175 308.996 432.906 306.329 433.703C305.31 434.006 304.315 434.43 303.352 434.881C302.551 435.255 302.057 435.883 302.131 436.864C302.227 438.127 301.98 439.414 302.41 440.66C302.47 440.836 302.445 441.051 302.435 441.245C302.392 441.99 302.502 442.709 302.735 443.411C300.233 443.433 297.729 443.447 295.227 443.475C294.688 443.482 294.144 443.475 293.615 443.56C291.918 443.831 290.539 443.21 289.347 442.081C288.906 441.665 288.68 441.104 288.634 440.501C288.5 438.79 288.412 437.079 288.26 435.372C288.161 434.274 288.627 433.576 289.618 433.202C290.945 432.701 292.246 432.137 293.622 431.752C298.861 430.292 304.093 428.806 309.328 427.332C310.319 427.053 311.314 426.796 312.305 426.517C312.771 426.386 313.018 426.108 313.057 425.571C313.24 423.081 313.448 420.59 313.685 418.103C313.925 415.57 314.218 413.041 314.461 410.504C314.609 408.945 314.708 407.379 314.835 405.816C314.93 404.645 315.043 403.473 315.138 402.302C315.163 402.009 315.149 401.713 315.138 401.42C315.128 401.198 314.987 401.078 314.782 401.018C314.316 400.88 313.791 401.106 313.36 400.768L313.357 400.775Z" fill="#DDA781"/>
<path d="M165.469 428.673C167.56 428.525 169.649 428.366 171.741 428.235C172.715 428.175 173.692 428.122 174.665 428.14C176.479 428.175 178.267 427.89 180.063 427.724C181.76 427.565 183.443 427.251 185.154 427.195C185.464 427.184 185.722 427.075 185.979 426.934C186.529 427.798 187.115 428.641 187.619 429.53C188.66 431.365 189.74 433.195 190.258 435.256C190.907 437.834 190.706 440.307 189.041 442.526C188.124 443.747 186.865 444.513 185.52 445.098C184.268 445.641 182.928 445.931 181.555 446.118C180.091 446.319 178.62 446.252 177.163 446.403C174.327 446.7 171.483 446.534 168.651 446.721C167.398 446.806 166.103 446.795 164.876 447.169C162.858 447.148 160.921 447.811 158.907 447.868C158.081 447.892 157.235 447.98 156.441 448.203C155.178 448.555 154.007 448.273 152.85 447.864C151.117 447.247 149.773 446.167 149.064 444.41C148.398 442.766 148.8 441.228 149.583 439.761C150.193 438.614 151.17 437.782 152.158 436.97C153.527 435.845 155.069 434.973 156.582 434.074C159.323 432.451 162.008 430.744 164.685 429.022C164.932 428.863 165.147 428.655 165.472 428.669L165.469 428.673Z" fill="#F7BB93"/>
<path d="M302.153 398.055C302.128 398.64 302.153 399.233 302.072 399.811C301.589 403.11 301.098 406.405 300.58 409.696C300.135 412.504 299.655 415.305 299.186 418.11C299.137 418.399 299.087 418.692 299.01 418.974C298.738 420.001 297.994 420.378 296.995 419.976C295.521 419.384 294.215 418.491 293.09 417.401C290.659 415.048 288.306 412.617 286.225 409.936C282.408 405.022 279.3 399.716 277.31 393.797C276.291 390.759 275.613 387.658 275.532 384.444C275.472 382.074 275.705 379.745 276.538 377.502C278.517 372.15 283.533 369.106 289.181 369.825C289.001 370.019 288.769 370.107 288.518 370.069C287.128 369.857 286.465 370.7 285.957 371.794C285.625 372.51 285.414 373.275 285.371 374.044C285.265 375.995 285.28 377.957 285.724 379.872C286.186 381.869 286.86 383.806 287.59 385.714C287.922 386.579 288.296 387.432 288.726 388.251C289.111 388.981 289.612 389.651 290.035 390.364C291.386 392.636 292.96 394.71 295.006 396.428C295.803 397.099 296.628 397.659 297.549 398.125C299.003 398.859 300.424 398.915 301.86 398.104C301.941 398.058 302.051 398.069 302.146 398.055H302.153Z" fill="#7A4821"/>
<path d="M302.153 398.055C302.058 398.069 301.945 398.059 301.867 398.104C300.431 398.916 299.01 398.859 297.556 398.126C296.635 397.66 295.813 397.099 295.013 396.429C292.967 394.711 291.393 392.636 290.042 390.364C289.619 389.652 289.114 388.982 288.733 388.251C288.303 387.433 287.929 386.579 287.597 385.715C286.863 383.803 286.193 381.866 285.731 379.873C285.287 377.957 285.276 375.996 285.378 374.045C285.421 373.276 285.632 372.51 285.964 371.794C286.468 370.697 287.135 369.857 288.525 370.069C288.775 370.108 289.008 370.02 289.188 369.826C289.375 369.794 289.566 369.762 289.753 369.73C290.028 370.214 290.102 370.732 290.084 371.286C290.063 371.967 290.035 372.651 290.303 373.315C290.391 373.53 290.363 373.798 290.363 374.041C290.328 377.866 291.383 381.439 292.772 384.953C293.404 386.554 294.201 388.061 295.104 389.507C295.722 390.495 296.392 391.483 297.196 392.315C298.484 393.645 299.673 395.092 301.222 396.157C301.758 396.524 302.163 397.011 302.276 397.685C302.238 397.812 302.199 397.935 302.16 398.062L302.153 398.055Z" fill="#5C3617"/>
<path d="M242.675 299.559C242.586 299.39 242.537 299.15 242.396 299.058C241.733 298.628 241.221 298.021 240.607 297.541C238.977 296.271 237.538 294.821 236.261 293.199C235.626 292.394 234.868 291.699 234.247 290.87C233.344 289.657 232.387 288.486 231.502 287.254C230.073 285.268 228.729 283.219 227.537 281.091C226.584 279.391 225.568 277.719 224.824 275.895C224.196 274.357 223.459 272.864 222.824 271.326C222.086 269.552 221.638 267.707 221.159 265.865C221.025 265.347 220.94 264.814 220.834 264.292C221.578 263.481 222.573 263.022 223.469 262.426C223.974 264.01 224.485 265.59 224.983 267.178C226.217 271.125 228.027 274.826 230.003 278.435C231.671 281.479 233.59 284.386 235.679 287.163C237.863 290.066 240.367 292.687 243.027 295.153C243.885 295.947 244.879 296.589 245.825 297.284C246.044 297.446 246.153 297.63 246.174 297.887C244.936 298.289 243.849 299.016 242.671 299.549L242.675 299.559Z" fill="#4B4C47"/>
<path d="M324.523 370.07C324.801 370.201 324.992 370.402 325.101 370.698C325.644 372.162 326.191 373.626 326.745 375.087C327.387 376.777 328.019 378.47 328.689 380.146C328.982 380.879 329.109 381.564 329.01 382.393C328.855 383.691 328.477 384.986 328.654 386.319C328.259 387.706 328.484 389.145 328.322 390.542C328.206 391.562 328.04 392.567 328.057 393.597C328.057 393.738 328.047 393.908 327.973 394.024C327.288 395.093 326.615 396.172 325.651 397.019C325.521 397.135 325.288 397.132 325.101 397.185C324.551 396.028 324.35 394.765 324.018 393.548C323.059 390.009 322.17 386.45 321.235 382.901C321.104 382.411 321.065 381.966 321.206 381.469C322.272 377.754 323.313 374.032 324.367 370.317C324.392 370.229 324.47 370.155 324.526 370.074L324.523 370.07Z" fill="#F5B990"/>
</svg>
