<svg width="500" height="500" viewBox="0 0 500 500" fill="none" xmlns="http://www.w3.org/2000/svg">
<path d="M209.658 299.903C206.976 301.138 205.036 303.36 202.814 305.16C195.088 311.404 186.727 316.801 178.789 322.728C169.758 329.466 160.621 336.063 151.73 343.013C146.65 347 142.029 351.586 137.09 355.784C119.839 370.425 102.094 384.43 84.4547 398.577C85.1955 399.953 85.9364 401.293 86.6066 402.669C88.6175 406.655 90.5931 410.642 92.5687 414.628C92.8862 415.263 93.0273 416.039 94.121 415.722C96.5199 415.052 98.9541 414.558 101.353 413.958C104.422 413.217 107.209 411.559 110.384 411.206C127.459 404.891 143.475 396.707 157.728 385.241C160.515 382.984 163.161 380.585 165.454 377.798C167.077 375.822 169.123 374.446 171.486 373.494C180.059 370.072 187.679 364.886 195.687 360.405C207.47 353.808 219.147 347 230.86 340.297C232.024 339.627 233.294 339.203 234.599 338.78C244.83 335.499 253.509 330.031 259.788 321.07C264.515 314.332 268.396 307.206 270.654 299.233C270.372 298.21 270.195 297.151 269.842 296.128C267.549 289.919 265.256 283.71 262.928 277.537C260.141 270.022 257.319 262.508 254.532 254.959C253.297 252.277 252.979 249.349 252.415 246.527C248.146 224.231 244.089 201.9 239.785 179.639C237.704 168.809 235.905 157.978 236.645 146.866C236.751 145.102 236.787 143.373 236.857 141.609C237.175 129.65 237.457 117.69 237.774 105.731C237.845 103.226 237.88 100.722 239.221 98.4638C237.986 96.7351 236.046 95.9943 234.282 95.1123C228.814 92.3959 223.698 89.0092 217.913 86.9277C211.739 101.78 205.989 116.667 204.895 133.001C204.26 142.421 203.837 151.734 205.742 161.012C206.8 166.198 208.952 171.031 211.104 175.829C211.81 177.417 212.198 179.004 212.233 180.698C212.409 198.795 211.986 216.893 211.527 234.991C211.21 247.268 210.645 259.545 210.328 271.857C210.151 278.489 211.21 285.051 212.268 291.577C212.55 293.271 212.621 294.999 212.762 296.693C213.538 296.587 214.173 296.799 214.773 297.363C219.218 301.314 223.875 304.913 229.801 306.394C230.648 306.606 231.318 307.1 231.248 308.052C231.177 309.111 230.436 309.781 229.449 309.993C228.673 310.134 227.755 310.169 227.05 309.887C220.876 307.417 214.597 304.807 209.658 299.903Z" fill="#696C65"/>
<path d="M322.301 291.294C323.924 299.479 325.794 307.628 327.099 315.883C329.568 331.3 332.673 346.505 339.623 360.687C344.244 370.141 349.219 379.42 354.122 388.733C357.65 395.507 361.072 402.315 364.529 409.124C367.881 415.686 371.373 422.177 375.536 428.245C377.406 430.961 380.193 432.478 383.544 432.655C386.966 432.831 390.424 433.007 393.846 432.972C399.914 432.866 405.946 431.949 412.049 432.231C413.037 432.267 413.531 431.773 413.813 430.891C414.483 428.774 415.189 426.657 415.789 424.505C416.247 422.918 415.224 421.507 415.013 419.99C414.73 418.085 413.249 417.908 411.802 417.485C405.417 415.651 398.89 414.733 392.258 414.733C391.023 414.733 389.824 414.663 388.66 414.38C387.496 414.098 386.437 413.499 386.084 412.299C384.567 407.007 382.098 402.139 380.017 397.094C377.018 389.862 375.324 382.171 373.067 374.692C370.844 367.354 368.163 360.122 366.187 352.679C363.4 342.272 361.178 331.723 359.273 321.105C357.227 309.639 355.286 298.138 352.782 286.779C352.676 286.25 352.464 285.756 352.288 285.262C346.714 286.355 341.175 287.414 335.601 288.543C331.121 289.425 326.605 289.918 322.301 291.294Z" fill="#F7BB92"/>
<path d="M342.163 231.639C342.869 230.475 342.622 229.346 342.128 228.182C338.918 220.738 334.861 213.753 331.086 206.592C326.994 198.901 322.796 191.281 318.633 183.661C316.057 179.004 313.517 174.312 310.836 169.691C306.109 161.541 302.863 152.722 299.582 143.973C296.972 137.023 293.797 130.285 291.856 123.123C289.704 115.15 285.894 107.954 282.225 100.686C280.673 97.6169 278.592 94.7241 276.087 92.431C273.653 90.2085 270.936 88.0918 267.655 86.9629C264.622 90.2791 261.588 93.6305 259.859 97.8992C259.683 98.3225 259.259 98.4283 258.871 98.5342C259.294 99.6631 259.965 100.757 260.141 101.921C261.2 107.989 263.14 113.81 265.01 119.631C268.467 130.355 272.277 140.939 276.369 151.452C279.262 158.86 281.414 166.551 284.942 173.712C293.797 191.74 302.863 209.696 311.753 227.688C313.059 230.299 314.717 232.839 315.07 235.838C316.128 236.049 317.222 235.908 318.28 235.732C322.654 234.991 326.994 234.321 331.333 233.474C334.896 232.698 338.635 232.909 342.163 231.639Z" fill="#F7BB92"/>
<path d="M342.163 231.639C338.635 232.909 334.895 232.732 331.297 233.438C326.958 234.32 322.583 234.955 318.244 235.696C317.186 235.872 316.127 236.013 315.034 235.802C314.011 236.966 312.635 237.495 311.259 238.059C305.861 240.317 300.464 242.54 295.102 244.833C293.126 245.679 291.009 246.173 289.281 247.514C290.374 253.123 291.468 258.732 292.526 264.342C294.078 272.667 295.631 280.993 297.183 289.319C298.524 290.095 300.04 290.095 301.487 290.095C307.661 290.165 313.799 291.012 320.008 290.906C320.784 290.906 321.56 291.118 322.336 291.224C326.64 289.848 331.156 289.354 335.566 288.472C341.104 287.343 346.678 286.285 352.252 285.191C351.547 280.958 350.806 276.689 350.1 272.456C349.818 270.657 349.536 268.857 349.289 267.058C347.666 261.519 346.608 255.804 345.303 250.195C345.161 249.595 345.232 249.137 345.691 248.749C344.456 243.104 343.327 237.354 342.163 231.639Z" fill="#8A8AD9"/>
<path d="M420.022 246.843C418.999 241.481 416.565 236.965 411.944 233.79C408.204 231.215 403.9 230.51 399.561 229.804C398.714 229.663 397.868 229.592 397.021 229.451C396.633 236.366 396.209 243.316 395.857 250.23C395.786 251.5 395.433 251.888 394.128 251.5C391.341 250.689 388.554 249.983 385.732 249.207C382.945 248.431 382.31 248.748 380.722 251.183C378.253 255.028 375.677 258.838 373.173 262.648C376.277 269.527 381.11 274.502 388.66 276.301C390.036 276.618 390.353 277.042 390.036 278.418C388.166 286.92 389.753 295.139 392.188 303.677C393.811 301.137 395.398 298.95 396.703 296.621C401.995 287.096 409.298 279.511 418.4 273.584C420.728 272.067 422.88 270.339 424.573 268.081C428.136 263.318 428.807 258.097 426.619 252.594C425.49 249.771 423.374 247.866 420.41 246.949C420.41 248.96 420.446 251.006 420.446 253.017C420.481 262.613 416.459 269.986 408.239 274.96C403.23 277.994 397.797 278.241 392.223 277.042C391.8 276.936 390.953 277.006 391.024 276.23C391.059 275.701 391.694 275.701 392.117 275.56C393.564 275.066 395.045 275.207 396.527 275.207C400.302 275.207 403.653 273.831 406.652 271.679C414.307 266.176 417.588 258.45 417.518 249.207C417.518 247.267 418.082 246.491 420.022 246.843Z" fill="#7A4821"/>
<path d="M297.148 289.354C295.596 281.028 294.079 272.702 292.491 264.377C291.433 258.767 290.339 253.158 289.246 247.549C286.811 248.466 284.307 249.313 281.908 250.371C278.521 251.853 275.24 253.617 271.536 254.111C265.927 254.887 260.282 254.957 254.602 254.922C257.389 262.436 260.176 269.951 262.999 277.5C265.292 283.709 267.62 289.883 269.913 296.092C270.266 297.08 270.478 298.138 270.724 299.196C273.758 297.327 276.193 294.681 279.262 292.811C282.366 290.906 285.612 289.636 289.316 289.848C291.962 289.989 294.537 289.636 297.148 289.354Z" fill="#F7BB92"/>
<path d="M373.208 262.719C375.713 258.909 378.288 255.099 380.758 251.254C382.345 248.82 382.98 248.537 385.767 249.278C388.554 250.054 391.376 250.725 394.163 251.571C395.469 251.959 395.821 251.571 395.892 250.301C396.245 243.387 396.668 236.437 397.056 229.522C394.657 229.028 392.294 230.087 389.824 229.628C386.755 229.064 384.427 227.3 381.851 225.853C380.44 225.042 379.064 224.195 377.477 223.772C375.536 223.243 373.949 223.948 373.984 225.853C374.055 230.969 371.021 232.239 366.717 232.803C362.624 233.332 361.848 234.673 362.448 238.871C362.624 240.212 362.942 241.517 363.189 242.822C363.471 244.445 363.013 245.786 361.319 246.103C356.098 247.091 350.877 247.938 345.656 248.855C345.197 249.243 345.126 249.702 345.268 250.301C346.608 255.911 347.631 261.626 349.254 267.164C356.169 265.894 363.118 264.589 370.068 263.319C371.091 263.072 372.15 262.896 373.208 262.719Z" fill="#F7BB92"/>
<path d="M218.019 86.9624C223.804 89.0438 228.92 92.4305 234.388 95.1469C236.152 96.0289 238.127 96.7345 239.327 98.4984C245.5 99.0628 251.639 98.9923 257.812 98.3573C258.236 92.4658 261.587 88.6204 266.42 85.7629C263.916 82.8701 260.635 81.0356 257.53 78.9189C252.909 75.7438 248.04 72.9921 242.89 70.7696C237.951 68.6176 232.871 66.9595 227.297 67.1359C221.158 67.3476 217.242 71.2282 217.207 77.3666C217.172 80.577 217.772 83.752 218.019 86.9624Z" fill="#F7BB92"/>
<path d="M110.455 411.169C107.28 411.522 104.493 413.145 101.424 413.921C99.0246 414.521 96.5904 415.05 94.1914 415.685C93.0978 416.002 92.9215 415.191 92.6392 414.591C90.6284 410.605 88.6528 406.618 86.6772 402.632C85.9716 401.256 85.2308 399.915 84.5252 398.539C82.9377 398.257 81.8088 399.104 80.7151 400.056C77.1873 403.232 73.6947 406.407 72.46 411.24C70.9783 417.131 74.5414 423.058 80.4682 424.328C83.0788 424.892 85.6894 425.563 88.3705 425.88C90.205 426.092 91.8984 425.951 93.4506 425.104C99.0951 422.07 104.422 418.507 109.714 414.909C111.196 413.886 111.196 412.616 110.455 411.169Z" fill="#F7BB92"/>
<path d="M420.022 246.844C418.082 246.491 417.517 247.267 417.553 249.243C417.623 258.486 414.342 266.212 406.687 271.715C403.688 273.867 400.337 275.243 396.562 275.243C395.08 275.243 393.599 275.102 392.152 275.596C391.694 275.737 391.094 275.737 391.059 276.266C390.988 277.042 391.799 276.972 392.258 277.078C397.832 278.277 403.265 278.03 408.274 274.996C416.494 270.022 420.516 262.649 420.481 253.053C420.481 251.042 420.481 248.996 420.445 246.985C420.269 246.95 420.128 246.879 420.022 246.844Z" fill="#5C3718"/>
<path d="M209.657 299.902C214.596 304.806 220.876 307.417 227.191 309.957C227.896 310.239 228.814 310.204 229.59 310.063C230.542 309.886 231.318 309.216 231.389 308.122C231.459 307.17 230.789 306.676 229.943 306.464C224.016 304.947 219.359 301.384 214.914 297.433C214.279 296.868 213.679 296.657 212.903 296.763C211.774 297.786 210.504 298.632 209.657 299.902Z" fill="#4B4C47"/>
<path d="M266.385 85.7285C261.552 88.5861 258.2 92.4667 257.777 98.3229C258.13 98.3934 258.483 98.4287 258.835 98.4993C259.223 98.3934 259.647 98.2876 259.823 97.8643C261.552 93.5956 264.586 90.2794 267.62 86.928C267.514 86.2577 267.161 85.7991 266.385 85.7285Z" fill="#DDA882"/>
</svg>
