<svg width="497" height="497" viewBox="0 0 497 497" fill="none" xmlns="http://www.w3.org/2000/svg">
<path d="M282.692 60.1733C277.412 61.3726 262.892 67.1023 244.148 68.8345C242.036 68.9678 240.452 72.5655 240.188 77.2292C239.924 83.3586 244.676 86.8231 244.412 88.9551C243.356 100.015 233.588 129.063 232.532 142.388C232.268 145.453 232.136 146.119 232.004 149.45C231.608 162.642 260.384 157.845 260.384 153.048C260.648 133.86 258.404 89.488 257.084 82.5591C257.084 82.5591 279.128 76.1632 284.144 68.1683C285.728 65.6365 287.972 58.8409 282.692 60.1733Z" fill="#ECAD83"/>
<path d="M271.75 61.6813C267.1 63.6743 277.596 82.0099 278.792 88.3875L284.904 93.9679C299.785 137.681 311.211 156.283 311.211 156.283C318.918 182.856 339.246 227.898 344.96 236.8C348.281 242.247 373.127 229.492 370.204 222.317C364.624 211.688 361.169 209.296 356.253 199.863C352.134 190.164 331.54 158.01 327.155 149.905C326.491 148.842 295.533 89.7162 295.533 89.7162C295.533 89.7162 294.603 87.1917 294.337 82.5414C293.939 76.1637 289.953 67.7931 285.834 64.0729C282.246 61.0169 276.267 59.8211 271.75 61.6813Z" fill="#F6BB92"/>
<path d="M278.393 81.8779C278.393 81.8779 276.4 75.5003 272.813 76.2975C269.89 76.9618 268.959 77.4933 278.925 88.6541C278.925 88.6541 280.652 87.5912 278.393 81.8779Z" fill="#F6BB92"/>
<path d="M388.407 434.638C382.826 431.183 367.414 429.456 367.68 426.002C369.673 398.365 377.645 356.911 377.645 356.911C379.638 329.407 390.4 288.218 390.4 278.121C388.141 267.89 368.344 257.659 367.945 268.288C366.617 280.645 365.022 286.491 363.694 299.246C361.701 315.058 359.309 348.274 360.638 357.442C360.77 358.638 356.652 427.463 357.715 431.582C358.91 436.232 361.966 435.169 371.267 436.232C378.043 437.162 393.456 437.827 388.407 434.638Z" fill="#F6BB92"/>
<path d="M245.729 264.002L226.66 272.016C226.66 272.016 224.393 304.471 228.26 313.286C232.128 322.101 250.663 342.002 250.663 342.002L276 332.386L245.729 264.002Z" fill="#3D3C3C"/>
<path d="M354.991 294.521C360.143 292.799 362.257 291.475 367.409 289.091C377.846 284.19 390 278.23 390 278.23C388.679 272.27 386.961 266.443 385.376 261.94L379.828 246.312C378.242 241.809 372.694 228.432 370.051 223.002C370.051 223.002 345.347 224.591 328.305 230.286C310.998 236.114 264.363 259.291 246 264.059L261.193 298.494L275.989 332.002C304.128 307.897 323.02 298.097 339.93 296.11C345.611 295.58 351.028 295.845 354.991 294.521Z" fill="#FF8AA0"/>
<path d="M399 253.979L391.26 233.002C382.453 239.862 376.848 238.543 376.848 238.543C376.848 238.543 370.577 241.577 374.046 251.076C377.649 260.707 384.321 258.86 384.321 258.86C384.321 258.86 387.791 254.374 399 253.979Z" fill="#ECAD83"/>
<path d="M431.04 256.495C457.214 250.946 460.934 239.716 458.277 227.297C455.619 214.879 447.515 206.159 421.342 211.708C412.573 213.558 405.93 216.596 401.147 220.163C390.518 227.826 388.26 237.602 389.19 241.962C390.12 246.322 396.098 254.381 408.986 257.023C414.964 258.344 422.272 258.476 431.04 256.495Z" fill="#F6BB92"/>
<path d="M401.898 246.002C401.898 246.002 399.919 243.603 399.301 240.321C398.558 237.039 399.424 234.009 399.424 234.009C399.795 233.883 402.392 235.398 402.763 236.66C403.011 237.418 402.763 239.69 402.763 239.69C402.763 239.69 404 241.584 404 242.341C404 243.477 401.898 246.002 401.898 246.002Z" fill="#D6876B"/>
<path d="M401.736 246.002C401.736 246.002 398.882 243.877 398.168 240.502C397.455 237.252 399.239 234.002 399.239 234.002C399.239 234.002 400.071 234.502 401.022 237.877C401.141 238.502 400.903 239.377 401.022 239.877C401.141 240.377 401.736 240.877 401.736 241.377C402.33 245.127 401.736 246.002 401.736 246.002Z" fill="#CC785E"/>
<path d="M455.011 216.061C450.562 217.009 448.083 223.072 449.475 229.603C450.866 236.133 455.601 240.659 460.051 239.711C464.5 238.763 466.979 232.7 465.588 226.169C464.196 219.639 459.461 215.113 455.011 216.061Z" fill="#4C230C"/>
<path d="M430.948 258.002C457.079 252.398 462.518 243.725 459.069 227.447C455.62 211.168 446.998 205.564 421 211.035C421 211.035 435.856 244.259 445.274 242.257C435.856 244.392 430.948 258.002 430.948 258.002Z" fill="#602F0F"/>
<path d="M412.191 211.692C405.282 214.482 405.282 215.943 406.212 218.069L421.226 212.489C420.428 210.363 419.1 208.901 412.191 211.692Z" fill="#F6BB92"/>
<path d="M430.659 256.732L414.715 257.662C414.848 259.921 415.512 261.383 422.82 260.984C430.127 260.718 430.792 258.991 430.659 256.732Z" fill="#F6BB92"/>
<path d="M420.03 214.085C420.827 213.82 421.491 213.687 422.023 213.554C422.82 213.421 423.351 213.421 423.351 213.421L421.757 211.029C421.358 211.162 420.96 211.162 420.561 211.295C420.561 211.295 420.694 211.561 420.96 212.092C420.428 212.624 419.498 213.288 418.302 213.952C418.302 213.82 417.771 215.015 420.03 214.085Z" fill="#602F0F"/>
<path d="M430.926 255.273C430.394 255.406 429.73 255.538 428.933 255.538C426.541 255.671 427.471 256.601 427.471 256.601C428.933 256.734 429.995 257 430.66 257.266C430.66 257.797 430.527 258.063 430.527 258.063C430.926 257.93 431.324 257.93 431.723 257.797L432.121 255.007C432.254 254.874 431.723 255.14 430.926 255.273Z" fill="#602F0F"/>
<path d="M231.753 191.305C231.093 175.825 230.962 163.815 232.28 149.002C236.366 151.004 256.531 153.539 260.617 152.605C260.486 157.409 259.695 192.773 259.695 192.773C260.749 199.446 264.308 266.036 259.695 301.934C257.718 307.139 255.477 311.542 253.368 315.146C250.996 319.149 229.907 322.218 221.076 312.743C212.246 303.402 215.409 287.655 216.2 278.047C217.913 259.231 231.753 191.305 231.753 191.305Z" fill="#333333"/>
<path d="M35.8982 430.666C31.9407 426.862 29.1705 421.352 30.2258 419.647C32.0726 416.236 42.8897 415.449 46.7152 412.038C49.0897 409.808 58.4556 406.791 60.3025 405.741C69.9323 400.363 87.6089 388.556 99.2174 382.128C101.856 380.685 104.758 379.242 107.66 377.799C119.4 372.027 123.754 399.444 119.269 401.15C101.46 407.709 69.4046 417.154 62.6769 418.728C62.6769 418.728 51.2003 427.255 47.1109 430.141C44.4726 431.978 40.5152 435.257 35.8982 430.666Z" fill="#F6BB92"/>
<path d="M147.995 361.719C133.295 366.247 119.787 371.44 108 377.299C111.311 380.628 119.125 396.874 119.654 401.002C124.157 399.404 127.733 397.939 129.984 397.007C140.976 392.346 157.663 384.357 157.663 384.357C167.728 380.628 238.051 355.993 252.089 347.737C266.127 339.481 275 332.157 275 332.157L259.77 297.002C227.853 310.718 184.017 340.413 174.747 346.139C165.741 351.865 147.995 361.719 147.995 361.719Z" fill="#3D3C3C"/>
</svg>
