<svg width="497" height="497" viewBox="0 0 497 497" fill="none" xmlns="http://www.w3.org/2000/svg">
<path d="M274.6 106.4C270.6 107.3 259.6 111.6 245.4 112.9C243.8 113 242.6 115.7 242.4 119.2C242.2 123.8 245.8 126.4 245.6 128C244.8 136.3 237.4 158.1 236.6 168.1C236.4 170.4 236.3 170.9 236.2 173.4C235.9 183.3 257.7 179.7 257.7 176.1C257.9 161.7 256.2 128.4 255.2 123.2C255.2 123.2 271.9 118.4 275.7 112.4C276.9 110.5 278.6 105.4 274.6 106.4Z" fill="#ECAD83"/>
<path d="M266.1 107.5C262.6 109 270.5 122.8 271.4 127.6L276 131.8C287.2 164.7 295.8 178.7 295.8 178.7C301.6 198.7 316.9 232.6 321.2 239.3C323.7 243.4 342.4 233.8 340.2 228.4C336 220.4 333.4 218.6 329.7 211.5C326.6 204.2 311.1 180 307.8 173.9C307.3 173.1 284 128.6 284 128.6C284 128.6 283.3 126.7 283.1 123.2C282.8 118.4 279.8 112.1 276.7 109.3C274 107 269.5 106.1 266.1 107.5Z" fill="#F6BB92"/>
<path d="M271.1 122.7C271.1 122.7 269.6 117.9 266.9 118.5C264.7 119 264 119.4 271.5 127.8C271.5 127.8 272.8 127 271.1 122.7Z" fill="#F6BB92"/>
<path d="M353.9 388.2C349.7 385.6 338.1 384.3 338.3 381.7C339.8 360.9 345.8 329.7 345.8 329.7C347.3 309 355.4 278 355.4 270.4C353.7 262.7 338.8 255 338.5 263C337.5 272.3 336.3 276.7 335.3 286.3C333.8 298.2 332 323.2 333 330.1C333.1 331 330 382.8 330.8 385.9C331.7 389.4 334 388.6 341 389.4C346.1 390.1 357.7 390.6 353.9 388.2Z" fill="#F6BB92"/>
<path d="M246.4 259.9L232.1 265.9C232.1 265.9 230.4 290.2 233.3 296.8C236.2 303.4 250.1 318.3 250.1 318.3L269.1 311.1L246.4 259.9Z" fill="#3D3C3C"/>
<path d="M328.9 282.8C332.8 281.5 334.4 280.5 338.3 278.7C346.2 275 355.4 270.5 355.4 270.5C354.4 266 353.1 261.6 351.9 258.2L347.7 246.4C346.5 243 342.3 232.9 340.3 228.8C340.3 228.8 321.6 230 308.7 234.3C295.6 238.7 260.3 256.2 246.4 259.8L257.9 285.8L269.1 311.1C290.4 292.9 304.7 285.5 317.5 284C321.8 283.6 325.9 283.8 328.9 282.8Z" fill="#FF8AA0"/>
<path d="M362.1 252L356.3 236.1C349.7 241.3 345.5 240.3 345.5 240.3C345.5 240.3 340.8 242.6 343.4 249.8C346.1 257.1 351.1 255.7 351.1 255.7C351.1 255.7 353.7 252.3 362.1 252Z" fill="#ECAD83"/>
<path d="M386.3 254.4C406 250.2 408.8 241.7 406.8 232.3C404.8 222.9 398.7 216.3 379 220.5C372.4 221.9 367.4 224.2 363.8 226.9C355.8 232.7 354.1 240.1 354.8 243.4C355.5 246.7 360 252.8 369.7 254.8C374.2 255.8 379.7 255.9 386.3 254.4Z" fill="#F6BB92"/>
<path d="M364 246.5C364 246.5 362.4 244.6 361.9 242C361.3 239.4 362 237 362 237C362.3 236.9 364.4 238.1 364.7 239.1C364.9 239.7 364.7 241.5 364.7 241.5C364.7 241.5 365.7 243 365.7 243.6C365.7 244.5 364 246.5 364 246.5Z" fill="#D6876B"/>
<path d="M364 246.5C364 246.5 361.6 244.8 361 242.1C360.4 239.5 361.9 236.9 361.9 236.9C361.9 236.9 362.6 237.3 363.4 240C363.5 240.5 363.3 241.2 363.4 241.6C363.5 242 364 242.4 364 242.8C364.5 245.8 364 246.5 364 246.5Z" fill="#CC785E"/>
<path d="M404.028 223.691C400.679 224.404 398.814 228.967 399.861 233.883C400.908 238.798 404.472 242.204 407.821 241.49C411.17 240.777 413.036 236.214 411.988 231.298C410.941 226.383 407.377 222.977 404.028 223.691Z" fill="#4C230C"/>
<path d="M385.6 255.2C405.3 251 409.4 244.5 406.8 232.3C404.2 220.1 397.7 215.9 378.1 220C378.1 220 389.3 244.9 396.4 243.4C389.3 245 385.6 255.2 385.6 255.2Z" fill="#602F0F"/>
<path d="M371.8 220.4C366.6 222.5 366.6 223.6 367.3 225.2L378.6 221C378 219.4 377 218.3 371.8 220.4Z" fill="#F6BB92"/>
<path d="M385.7 254.3L373.7 255C373.8 256.7 374.3 257.8 379.8 257.5C385.3 257.3 385.8 256 385.7 254.3Z" fill="#F6BB92"/>
<path d="M377.7 222.2C378.3 222 378.8 221.9 379.2 221.8C379.8 221.7 380.2 221.7 380.2 221.7L379 219.9C378.7 220 378.4 220 378.1 220.1C378.1 220.1 378.2 220.3 378.4 220.7C378 221.1 377.3 221.6 376.4 222.1C376.4 222 376 222.9 377.7 222.2Z" fill="#602F0F"/>
<path d="M385.9 253.2C385.5 253.3 385 253.4 384.4 253.4C382.6 253.5 383.3 254.2 383.3 254.2C384.4 254.3 385.2 254.5 385.7 254.7C385.7 255.1 385.6 255.3 385.6 255.3C385.9 255.2 386.2 255.2 386.5 255.1L386.8 253C386.9 252.9 386.5 253.1 385.9 253.2Z" fill="#602F0F"/>
<path d="M235.8 205.1C235.3 193.5 235.2 184.5 236.2 173.4C239.3 174.9 254.6 176.8 257.7 176.1C257.6 179.7 257 206.2 257 206.2C257.8 211.2 260.5 261.1 257 288C255.5 291.9 253.8 295.2 252.2 297.9C250.4 300.9 234.4 303.2 227.7 296.1C221 289.1 223.4 277.3 224 270.1C225.3 256 235.8 205.1 235.8 205.1Z" fill="#333333"/>
<path d="M88.3999 385.4C85.3999 382.5 83.2999 378.3 84.0999 377C85.4999 374.4 93.6999 373.8 96.5999 371.2C98.3999 369.5 105.5 367.2 106.9 366.4C114.2 362.3 127.6 353.3 136.4 348.4C138.4 347.3 140.6 346.2 142.8 345.1C151.7 340.7 155 361.6 151.6 362.9C138.1 367.9 113.8 375.1 108.7 376.3C108.7 376.3 99.9999 382.8 96.8999 385C94.8999 386.4 91.8999 388.9 88.3999 385.4Z" fill="#F6BB92"/>
<path d="M172.9 333.4C161.8 336.8 151.6 340.7 142.7 345.1C145.2 347.6 151.1 359.8 151.5 362.9C154.9 361.7 157.6 360.6 159.3 359.9C167.6 356.4 180.2 350.4 180.2 350.4C187.8 347.6 240.9 329.1 251.5 322.9C262.1 316.7 268.8 311.2 268.8 311.2L257.3 284.8C233.2 295.1 200.1 317.4 193.1 321.7C186.3 326 172.9 333.4 172.9 333.4Z" fill="#3D3C3C"/>
</svg>
