<svg width="500" height="500" viewBox="0 0 500 500" fill="none" xmlns="http://www.w3.org/2000/svg">
<path d="M87.4438 223.901C89.0314 222.351 90.9213 222.238 93.0758 222.54C101.203 223.599 109.405 224.43 117.532 225.489C131.48 227.341 145.541 228.21 159.451 230.403C165.877 231.423 172.379 231.99 178.842 232.86C190.409 234.447 201.824 236.715 213.202 239.361C219.666 240.873 226.205 242.158 232.707 243.519C232.933 243.443 233.236 243.217 233.425 243.254C237.507 244.237 241.627 245.22 245.709 246.203C246.012 246.278 246.39 246.354 246.39 246.77C246.428 247.375 245.936 247.564 245.52 247.677C241.287 248.66 237.167 250.134 232.782 250.172C232.177 253.271 232.518 256.409 232.669 259.508C232.858 264.006 232.933 268.504 233.085 273.002C233.5 288.311 233.765 303.658 234.256 318.966C234.37 323.162 233.84 327.32 233.463 331.44C232.215 345.086 233.727 358.505 236.033 371.923C237.734 381.675 240.266 391.277 242.232 400.991C248.28 400.5 254.366 400.613 260.451 400.462C261.245 400.424 262.152 400.462 262.795 399.781C263.022 393.204 263.135 386.627 263.513 380.05C264.004 370.6 264.458 361.15 264.345 351.701C264.231 343.536 265.214 335.409 265.781 327.282C266.575 316.434 267.482 305.548 268.313 294.699C269.107 284.04 270.014 273.38 270.128 262.645C270.128 262.116 270.241 261.625 270.317 261.096C270.355 255.237 270.657 249.378 271.035 243.557C271.526 236.148 271.678 228.739 271.791 221.331C264.42 213.544 254.63 210.823 244.689 208.252C228.927 204.208 212.937 203.868 196.873 205.342C191.77 205.795 186.705 206.778 181.564 207.232C175.667 207.761 169.884 207.799 164.025 205.682C152.534 201.562 140.552 198.954 128.38 197.82C119.611 197.026 110.766 197.706 101.997 198.613C95.7974 199.256 89.7495 200.352 83.8528 202.393C84.949 202.998 85.5538 203.943 85.705 205.153C86.4988 211.427 87.4816 217.626 87.4438 223.901Z" fill="#696C65"/>
<path d="M333.782 274.779C333.782 287.442 333.82 300.105 333.744 312.768C333.668 325.128 335.634 337.148 339.149 348.942C340.85 354.687 342.211 360.471 343.421 366.367C344.592 371.999 346.218 377.594 347.616 383.188C349.771 391.844 351.888 400.5 353.853 409.194C355.063 414.561 357.482 418.87 362.736 421.214C363.605 421.592 364.399 421.857 365.344 421.857C372.828 421.819 380.313 421.819 387.835 421.819C390.518 421.819 392.786 419.664 392.938 417.018C393.24 412.256 392.862 411.651 388.402 409.95C385.68 408.891 382.921 407.871 380.086 407.039C378.045 406.434 376.344 405.225 374.378 404.507C373.471 404.167 373.055 403.335 372.791 402.39C370.22 393.318 367.763 384.246 367.801 374.645C367.839 368.786 366.818 363.003 366.062 357.182C365.193 350.151 364.21 343.121 363.87 336.052C363.454 327.131 362.925 318.211 363.265 309.29C363.568 300.218 363.416 291.147 363.492 282.075C363.53 279.542 363.568 276.972 363.114 274.477C354.004 274.515 344.933 274.553 335.823 274.59C335.18 274.553 334.462 274.364 333.782 274.779Z" fill="#F7BB92"/>
<path d="M363.153 221.255C363.568 202.923 363.833 184.59 363.379 166.257C363.153 157.488 364.211 148.87 364.665 140.176C364.929 135.111 365.421 130.046 365.874 125.018C366.479 118.139 367.613 111.335 368.898 104.569C369.768 99.8439 369.39 95.2324 368.898 90.583C368.558 87.5969 366.29 85.1777 365.496 82.305C364.06 77.0887 360.469 75.5011 355.442 75.8035C352.266 75.9925 351.322 76.4461 350.755 79.47C349.658 85.6313 347.655 91.5658 346.937 97.8027C346.219 104.077 345.311 110.314 344.744 116.589C343.988 124.943 342.93 133.258 342.174 141.612C341.758 146.224 341.38 150.797 340.889 155.409C340.36 160.323 339.868 165.237 339.453 170.151C339.15 173.439 339.188 176.765 338.999 180.092C338.319 191.28 337.903 202.469 337.26 213.658C337.147 215.737 336.996 217.816 336.92 219.894C338.583 220.877 340.398 221.255 342.325 221.217C349.28 221.217 356.235 221.255 363.153 221.255Z" fill="#F7BB92"/>
<path d="M363.152 221.256C356.197 221.256 349.242 221.218 342.287 221.256C340.359 221.256 338.545 220.915 336.882 219.933C335.067 220.915 333.026 220.764 331.136 221.104C324.937 222.276 318.7 223.297 312.463 224.355C311.669 224.506 310.951 224.733 310.309 225.187C310.687 226.925 310.233 228.664 310.233 230.403C310.233 237.585 310.233 244.767 310.233 251.949C310.233 257.43 310.157 262.91 310.12 268.391C315.903 275.573 323.69 277.917 332.421 275.157C332.837 275.006 333.291 274.931 333.744 274.817C334.387 274.401 335.143 274.59 335.823 274.59C344.933 274.553 354.005 274.515 363.114 274.477C363.19 268.618 363.303 262.759 363.379 256.9C355.668 253.839 347.919 250.815 339.792 247.602C347.919 244.578 355.63 241.705 363.379 238.832C363.341 232.973 363.266 227.114 363.152 221.256Z" fill="#8A8AD9"/>
<path d="M434.479 250.21C434.29 248.585 434.253 246.959 433.95 245.372C432.816 239.967 429.717 235.922 424.916 233.2C422.043 231.575 418.868 230.592 415.769 229.496C415.618 230.063 415.429 230.63 415.277 231.197C413.841 237.132 412.367 243.066 410.968 249.001C410.666 250.324 410.288 250.702 408.927 249.946C406.773 248.736 404.467 247.791 402.274 246.695C398.684 244.918 398.646 244.918 395.811 247.904C392.938 250.928 389.99 253.877 387.117 256.863C388.969 264.007 392.673 269.752 399.78 272.701C400.951 273.192 400.8 273.646 400.422 274.591C397.55 281.659 396.567 291.147 397.89 298.744C398.532 298.782 398.721 298.215 399.061 297.875C399.969 296.968 400.914 296.023 401.745 295.04C409.154 286.082 418.075 279.24 428.923 274.893C431.531 273.872 433.95 272.398 435.878 270.282C439.431 266.426 440.716 261.852 439.62 256.749C438.978 253.763 437.239 251.571 434.479 250.21C434.668 252.365 434.139 254.481 433.723 256.56C431.342 268.203 421.099 277.577 407.755 275.611C405.45 275.271 403.182 274.515 400.914 272.587C402.615 272.587 403.862 272.398 405.034 272.625C406.999 272.965 408.927 273.192 410.968 272.965C415.693 272.474 419.7 270.622 423.215 267.484C427.827 263.402 430.548 258.299 431.418 252.176C431.834 249.492 431.947 249.53 434.479 250.21Z" fill="#7A4821"/>
<path d="M310.158 268.353C310.195 262.873 310.233 257.392 310.271 251.911C310.271 244.729 310.271 237.547 310.271 230.365C310.271 228.626 310.725 226.888 310.347 225.149C309.175 224.468 307.927 224.317 306.605 224.355C297.457 224.393 288.385 223.07 279.313 222.087C276.819 221.822 274.286 221.596 271.791 221.331C271.716 228.74 271.527 236.148 271.035 243.557C270.657 249.416 270.355 255.237 270.317 261.096C276.176 261.852 281.846 263.364 287.629 264.498C293.791 265.707 299.952 266.955 306.113 268.127C307.398 268.353 308.797 268.278 310.158 268.353Z" fill="#F7BB92"/>
<path d="M387.117 256.862C390.027 253.876 392.938 250.928 395.811 247.904C398.645 244.918 398.683 244.918 402.274 246.694C404.504 247.791 406.772 248.735 408.927 249.945C410.25 250.663 410.628 250.323 410.968 249C412.367 243.066 413.841 237.131 415.277 231.197C415.428 230.63 415.58 230.063 415.769 229.496C414.483 228.966 413.085 229.042 411.724 228.966C407.944 228.702 405.26 226.509 402.69 224.053C401.367 222.767 399.968 221.596 398.381 220.688C396.415 219.554 394.866 219.932 394.412 222.049C393.467 226.623 390.632 227.417 386.55 227.19C382.165 226.925 381.22 228.097 381.182 232.557C381.182 233.729 381.22 234.901 381.182 236.073C381.107 238.114 380.313 238.908 378.309 238.908C373.358 238.908 368.406 238.87 363.454 238.832C355.743 241.705 347.994 244.578 339.868 247.602C347.994 250.814 355.705 253.838 363.454 256.9C371.317 256.862 379.217 256.862 387.117 256.862Z" fill="#F7BB92"/>
<path d="M262.757 399.782C262.115 400.462 261.208 400.462 260.414 400.462C254.328 400.613 248.243 400.5 242.195 400.991C242.006 405.263 242.195 409.572 242.006 413.843C241.741 421.101 245.899 423.406 251.796 423.747C254.857 423.936 257.844 423.369 260.943 423.595C265.328 423.935 269.788 424.313 274.211 424.162C279.276 423.973 283.282 419.437 282.413 414.41C281.96 411.802 279.692 410.517 277.877 409.005C274.929 406.548 271.489 404.733 268.012 403.032C266.159 402.125 264.269 401.256 262.757 399.782Z" fill="#F7BB92"/>
<path d="M87.4443 223.901C87.4821 217.589 86.4993 211.39 85.7433 205.19C85.5921 203.981 84.9873 203.036 83.8911 202.431C76.0667 202.469 70.0944 205.455 66.5034 212.75C63.4417 218.987 61.1359 225.451 60.1153 232.368C59.7373 234.939 60.2665 237.32 61.6651 239.474C63.3661 242.083 66.3144 242.498 70.2456 240.76C72.7781 239.626 74.7059 237.736 76.6714 235.77C80.4136 231.952 83.7021 227.757 87.4443 223.901Z" fill="#F7BB92"/>
<path d="M232.745 250.21C237.167 250.172 241.287 248.698 245.483 247.715C245.899 247.602 246.39 247.413 246.352 246.808C246.315 246.392 245.974 246.316 245.672 246.241C241.59 245.258 237.47 244.237 233.387 243.293C233.16 243.255 232.896 243.444 232.669 243.557C232.896 245.749 232.215 247.98 232.745 250.21Z" fill="#4B4C47"/>
<path d="M434.48 250.21C431.948 249.529 431.834 249.492 431.418 252.213C430.549 258.337 427.79 263.439 423.216 267.522C419.738 270.621 415.694 272.474 410.969 273.003C408.928 273.23 407 273.003 405.034 272.663C403.863 272.436 402.615 272.625 400.914 272.625C403.182 274.552 405.412 275.308 407.756 275.649C421.099 277.614 431.305 268.202 433.724 256.598C434.14 254.481 434.669 252.364 434.48 250.21Z" fill="#5C3718"/>
</svg>
