<svg width="501" height="501" viewBox="0 0 501 501" fill="none" xmlns="http://www.w3.org/2000/svg">
<path d="M277.921 197.871L249.883 193.569C249.883 193.569 237.867 194.376 228.522 204.458C219.176 214.54 215.171 225.429 213.168 236.049C211.432 245.594 257.894 257.289 257.894 257.289L277.921 197.871Z" fill="#333333"/>
<path d="M50.1066 58.9538C44.9372 56.9155 34.4657 63.4381 36.1888 67.7865C37.5143 71.1837 51.2996 78.3857 56.204 82.5982C59.3852 85.1801 60.4456 90.7515 63.3617 93.3334C68.0009 97.41 72.9053 93.6051 76.8818 96.4588C86.0278 102.71 114.924 130.159 117.707 131.925C128.974 138.992 137.325 111.678 133.216 109.232C116.514 99.8559 87.0882 85.5878 80.4607 83.2777C80.4607 83.2777 69.8567 73.222 66.1453 69.9607C63.7593 67.6506 58.0597 61.9434 50.1066 58.9538Z" fill="#F6BB92"/>
<path d="M253.587 474.17C248.3 472.959 228.344 474.17 226.362 474.035C221.604 473.901 216.978 471.209 217.904 466.634C218.564 463.135 220.282 460.04 220.018 457.887C218.961 446.717 215.789 413.209 214.732 399.752C214.467 396.656 214.335 393.427 214.203 390.062C213.807 376.74 240.767 384.276 240.371 389.12C239.049 408.499 234.159 454.253 232.838 461.251C232.838 461.251 265.481 462.866 264.952 467.845C264.688 470.806 258.873 475.381 253.587 474.17Z" fill="#ECAD83"/>
<path d="M218.357 346.917C216.527 362.255 214.306 376.793 214.698 390.13C219.01 388.529 236.652 387.996 240.572 389.196C240.833 384.395 246.844 347.451 246.844 347.451C248.282 335.714 259.912 266.894 256.906 245.421C256.384 239.953 255.338 235.018 254.293 231.017C252.202 223.148 215.09 227.683 213.522 238.486C210.255 262.093 213.13 297.97 215.09 315.308C216.397 327.312 218.357 346.917 218.357 346.917Z" fill="#333333"/>
<path d="M117 130.816C120.629 127.843 131.787 112.438 132.729 108.249C137.031 110.411 178.034 138.924 184.755 145.68C187.579 148.518 218.364 162.842 243.638 177.031C262.191 187.301 277.92 198.922 277.92 198.922L256.813 247.569C240.009 236.759 227.506 224.327 214.735 213.516C193.494 195.544 170.371 169.193 160.96 163.518C147.517 155.275 128.561 141.491 117 130.816Z" fill="#3D3C3C"/>
<path d="M392.207 471.616C386.056 468.941 370.542 466.534 370.275 463.057C368.536 435.239 370.809 394.316 370.809 394.316C369.071 366.499 374.153 324.104 372.949 314.073C369.338 304.177 348.208 296.688 349.144 307.253C349.545 319.69 348.609 325.842 349.144 338.681C349.278 354.73 351.418 388.164 353.959 397.124C354.36 398.328 359.442 467.47 361.18 471.482C363.053 475.896 365.861 475.093 375.357 474.959C382.177 474.826 397.691 474.023 392.207 471.616Z" fill="#F6BB92"/>
<path d="M395.816 75.7549C400.765 75.8886 397.956 97.0191 399.16 103.305L395.549 110.794C397.822 157.201 394.212 178.866 394.212 178.866C396.886 206.55 394.613 256.3 392.74 266.732C391.67 273.017 364.121 266.866 364.121 259.109C365.324 247.206 367.598 241.188 368.4 236.373C368.668 225.808 375.889 187.96 376.959 178.733C377.093 177.529 384.047 110.66 384.047 110.66C384.047 110.66 384.047 107.986 382.576 103.439C380.57 97.2866 381.105 88.0587 383.646 83.1104C385.652 78.9646 390.734 75.7549 395.816 75.7549Z" fill="#F6BB92"/>
<path d="M397.021 96.8862C397.021 96.8862 396.62 90.1993 400.097 89.5306C403.04 88.9957 404.11 89.1294 399.027 103.306C399.027 103.439 397.155 103.172 397.021 96.8862Z" fill="#F6BB92"/>
<path d="M328.566 305.479C341.654 313.845 372.235 313.447 372.235 313.447C375.306 308.267 377.977 302.69 379.98 298.307L386.658 283.035C388.527 278.652 390.797 272.942 392.4 267.231C392.4 267.231 371.701 244.787 356.61 240.936C342.588 237.35 324.293 227.921 277.286 198.97C277.286 198.97 268.339 213.313 261.929 232.569L256.32 246.779C256.854 247.178 257.255 257.536 257.255 257.536C271.143 268.957 318.017 298.706 328.566 305.479Z" fill="#FF8AA0"/>
<path d="M394.098 308.05L403.201 287.182C391.924 286.239 388.664 281.258 388.664 281.258C388.664 281.258 381.871 279.104 377.659 288.663C373.447 298.222 379.697 301.587 379.697 301.587C379.697 301.587 385.675 300.51 394.098 308.05Z" fill="#ECAD83"/>
<path d="M417.03 330.851C441.862 341.588 451.714 334.475 456.977 322.665C462.105 310.855 460.621 298.911 435.654 288.175C427.287 284.552 419.999 283.21 413.926 283.21C400.566 283.344 392.874 290.188 391.119 294.349C389.365 298.509 389.5 308.708 398.542 318.505C402.725 322.934 408.663 327.228 417.03 330.851Z" fill="#F6BB92"/>
<path d="M398.899 304.809C398.899 304.809 398.638 301.775 400.072 298.863C401.507 295.829 403.984 294.009 403.984 294.009C404.375 294.13 405.679 296.8 405.288 298.013C405.027 298.741 403.463 300.319 403.463 300.319C403.463 300.319 403.332 302.382 402.941 303.11C402.159 304.081 398.899 304.809 398.899 304.809Z" fill="#D6876B"/>
<path d="M399.342 304.809C399.342 304.809 398.225 301.449 399.466 298.449C400.707 295.449 404.182 294.009 404.182 294.009C404.182 294.009 404.679 294.849 403.438 298.089C403.189 298.689 402.445 299.169 402.321 299.649C402.197 300.009 402.321 300.849 402.072 301.329C400.335 304.449 399.342 304.809 399.342 304.809Z" fill="#CC785E"/>
<path d="M460.391 311.047C456.189 309.227 450.616 312.75 447.944 318.918C445.271 325.085 446.511 331.561 450.713 333.382C454.915 335.203 460.488 331.679 463.161 325.511C465.833 319.344 464.593 312.868 460.391 311.047Z" fill="#4C230C"/>
<path d="M416.16 331.214C441.019 341.804 450.746 337.965 457.501 322.874C464.256 307.783 460.338 298.12 435.479 287.53C435.479 287.53 428.319 323.006 437.371 326.845C428.319 322.874 416.16 331.214 416.16 331.214Z" fill="#602F0F"/>
<path d="M427.917 282.645C420.695 280.906 419.759 282.11 419.224 284.383L434.738 288.529C435.406 286.256 435.139 284.383 427.917 282.645Z" fill="#F6BB92"/>
<path d="M416.683 330.256L403.042 321.696C401.838 323.569 401.437 325.173 407.723 329.186C413.875 333.331 415.48 332.128 416.683 330.256Z" fill="#F6BB92"/>
<path d="M432.865 289.199C433.668 289.333 434.336 289.601 434.871 289.868C435.674 290.269 436.075 290.537 436.075 290.537L436.209 287.595C435.807 287.461 435.406 287.193 435.005 287.06C435.005 287.06 435.005 287.327 434.871 287.862C434.871 287.862 434.871 287.862 434.871 287.728C434.203 287.862 432.999 287.862 431.528 287.728C431.662 287.862 430.458 288.531 432.865 289.199Z" fill="#602F0F"/>
<path d="M417.752 329.321C417.217 329.053 416.548 328.786 415.879 328.384C413.739 327.047 414.141 328.384 414.141 328.384C415.344 329.321 416.013 330.123 416.414 330.792C416.147 331.193 415.879 331.327 415.879 331.327C416.28 331.46 416.682 331.594 417.083 331.862L419.089 329.722C419.089 329.722 418.554 329.588 417.752 329.321Z" fill="#602F0F"/>
</svg>
