<svg width="500" height="500" viewBox="0 0 500 500" fill="none" xmlns="http://www.w3.org/2000/svg">
<path d="M270.959 198.408L249.799 195.184C249.799 195.184 240.73 195.788 233.676 203.346C226.623 210.903 223.6 219.065 222.088 227.026C220.778 234.18 255.845 242.947 255.845 242.947L270.959 198.408Z" fill="#333333"/>
<path d="M98.9519 93.7124C95.022 92.2009 87.0615 97.0376 88.3715 100.262C89.3791 102.781 99.8588 108.122 103.587 111.246C106.005 113.16 106.812 117.292 109.028 119.206C112.555 122.229 116.284 119.408 119.307 121.524C126.259 126.159 148.226 146.514 150.342 147.824C158.908 153.063 165.256 132.81 162.132 130.996C149.436 124.043 127.066 113.462 122.027 111.749C122.027 111.749 113.966 104.293 111.145 101.874C109.331 100.161 104.998 95.9292 98.9519 93.7124Z" fill="#F6BB92"/>
<path d="M253.023 405.885C248.992 404.978 233.776 405.885 232.265 405.784C228.637 405.683 225.111 403.668 225.816 400.242C226.32 397.622 227.63 395.304 227.428 393.692C226.622 385.329 224.204 360.238 223.398 350.161C223.196 347.844 223.095 345.425 222.995 342.906C222.692 332.93 243.248 338.573 242.946 342.201C241.938 356.711 238.21 390.971 237.202 396.211C237.202 396.211 262.092 397.42 261.689 401.149C261.487 403.366 257.053 406.792 253.023 405.885Z" fill="#ECAD83"/>
<path d="M225.816 310.157C224.405 321.745 222.692 332.729 222.995 342.805C226.32 341.596 239.923 341.193 242.946 342.1C243.148 338.472 247.783 310.56 247.783 310.56C248.891 301.693 257.859 249.698 255.542 233.474C255.139 229.343 254.333 225.615 253.527 222.592C251.914 216.647 223.297 220.073 222.088 228.235C219.568 246.07 221.785 273.176 223.297 286.276C224.304 295.345 225.816 310.157 225.816 310.157Z" fill="#333333"/>
<path d="M150.343 147.723C153.063 145.506 161.427 134.019 162.132 130.895C165.357 132.507 196.09 153.769 201.129 158.807C203.245 160.923 226.32 171.604 245.264 182.185C259.17 189.843 270.959 198.509 270.959 198.509L255.139 234.785C242.544 226.723 233.172 217.453 223.6 209.392C207.679 195.99 190.347 176.34 183.293 172.108C173.217 165.962 159.009 155.683 150.343 147.723Z" fill="#3D3C3C"/>
<path d="M357.215 403.97C352.58 401.954 340.891 400.141 340.689 397.521C339.379 376.561 341.092 345.727 341.092 345.727C339.782 324.768 343.611 292.825 342.704 285.268C339.984 277.811 324.063 272.168 324.768 280.129C325.07 289.5 324.365 294.135 324.768 303.809C324.869 315.9 326.481 341.092 328.396 347.843C328.698 348.75 332.527 400.846 333.837 403.869C335.248 407.194 337.364 406.59 344.518 406.489C349.657 406.388 361.346 405.784 357.215 403.97Z" fill="#F6BB92"/>
<path d="M359.935 105.703C363.664 105.804 361.547 121.725 362.454 126.461L359.734 132.104C361.447 167.07 358.726 183.394 358.726 183.394C360.741 204.252 359.028 241.737 357.618 249.597C356.811 254.333 336.054 249.697 336.054 243.853C336.961 234.885 338.674 230.35 339.278 226.723C339.48 218.762 344.921 190.246 345.727 183.293C345.828 182.386 351.068 132.003 351.068 132.003C351.068 132.003 351.068 129.988 349.959 126.562C348.448 121.926 348.851 114.974 350.766 111.245C352.277 108.122 356.106 105.703 359.935 105.703Z" fill="#F6BB92"/>
<path d="M360.842 121.624C360.842 121.624 360.54 116.586 363.16 116.082C365.377 115.679 366.183 115.78 362.354 126.461C362.354 126.562 360.943 126.36 360.842 121.624Z" fill="#F6BB92"/>
<path d="M309.552 279.222C319.427 285.57 342.503 285.268 342.503 285.268C344.82 281.338 346.836 277.106 348.347 273.781L353.386 262.192C354.796 258.867 356.509 254.534 357.718 250.201C357.718 250.201 342.1 233.172 330.713 230.25C320.133 227.529 306.328 220.375 270.858 198.408C270.858 198.408 264.107 209.29 259.27 223.901L255.038 234.683C255.441 234.986 255.743 242.845 255.743 242.845C266.223 251.511 301.592 274.083 309.552 279.222Z" fill="#FF8AA0"/>
<path d="M358.122 280.431L364.873 264.812C356.509 264.107 354.091 260.379 354.091 260.379C354.091 260.379 349.053 258.767 345.929 265.921C342.805 273.075 347.44 275.594 347.44 275.594C347.44 275.594 351.874 274.788 358.122 280.431Z" fill="#ECAD83"/>
<path d="M376.058 297.965C394.599 306.026 401.955 300.685 405.885 291.818C409.714 282.951 408.605 273.982 389.964 265.921C383.716 263.201 378.275 262.193 373.74 262.193C363.764 262.294 358.021 267.433 356.711 270.556C355.401 273.68 355.502 281.338 362.253 288.694C365.377 292.02 369.81 295.244 376.058 297.965Z" fill="#F6BB92"/>
<path d="M362.455 278.416C362.455 278.416 362.253 275.897 363.362 273.478C364.47 270.959 366.385 269.448 366.385 269.448C366.687 269.549 367.695 271.765 367.392 272.773C367.191 273.378 365.982 274.688 365.982 274.688C365.982 274.688 365.881 276.401 365.578 277.005C364.974 277.811 362.455 278.416 362.455 278.416Z" fill="#D6876B"/>
<path d="M362.455 278.416C362.455 278.416 361.548 275.595 362.556 273.076C363.563 270.556 366.385 269.347 366.385 269.347C366.385 269.347 366.788 270.053 365.78 272.773C365.579 273.277 364.974 273.68 364.873 274.083C364.772 274.385 364.873 275.091 364.672 275.494C363.261 278.114 362.455 278.416 362.455 278.416Z" fill="#CC785E"/>
<path d="M408.587 282.99C405.421 281.618 401.222 284.273 399.209 288.92C397.195 293.567 398.13 298.446 401.296 299.818C404.462 301.19 408.661 298.535 410.674 293.888C412.688 289.241 411.753 284.361 408.587 282.99Z" fill="#4C230C"/>
<path d="M375.05 298.267C393.591 306.328 400.846 303.406 405.885 291.919C410.923 280.431 408.001 273.075 389.46 265.014C389.46 265.014 384.119 292.019 390.871 294.942C384.119 291.919 375.05 298.267 375.05 298.267Z" fill="#602F0F"/>
<path d="M384.119 261.588C378.678 260.278 377.972 261.185 377.569 262.898L389.258 266.022C389.762 264.309 389.56 262.898 384.119 261.588Z" fill="#F6BB92"/>
<path d="M375.655 297.461L365.377 291.012C364.47 292.422 364.167 293.632 368.903 296.655C373.539 299.778 374.748 298.871 375.655 297.461Z" fill="#F6BB92"/>
<path d="M387.847 266.525C388.452 266.626 388.956 266.828 389.359 267.029C389.964 267.331 390.266 267.533 390.266 267.533L390.367 265.316C390.064 265.215 389.762 265.014 389.46 264.913C389.46 264.913 389.46 265.115 389.359 265.518C389.359 265.518 389.359 265.518 389.359 265.417C388.855 265.518 387.948 265.518 386.84 265.417C386.941 265.518 386.034 266.022 387.847 266.525Z" fill="#602F0F"/>
<path d="M376.461 296.755C376.058 296.554 375.554 296.352 375.05 296.05C373.438 295.042 373.74 296.05 373.74 296.05C374.647 296.755 375.151 297.36 375.453 297.864C375.252 298.166 375.05 298.267 375.05 298.267C375.353 298.368 375.655 298.468 375.957 298.67L377.469 297.058C377.469 297.058 377.066 296.957 376.461 296.755Z" fill="#602F0F"/>
</svg>
