<svg width="500" height="500" viewBox="0 0 500 500" fill="none" xmlns="http://www.w3.org/2000/svg">
<path d="M213.046 383.345C213.722 384.524 214.692 385.46 215.658 386.383C218.793 389.363 221.975 392.301 225.293 395.072C228.716 397.932 232.418 400.388 236.361 402.476C237.001 402.814 237.692 403.093 238.394 403.271C239.465 403.547 240.482 403.931 241.479 404.393C244.157 405.635 246.966 406.376 249.892 406.706C251.223 406.857 252.55 407.055 253.878 407.222C254.239 407.268 254.607 407.315 254.968 407.292C260.758 406.942 266.478 406.1 272.105 404.711C275.423 403.892 278.605 402.651 281.717 401.238C282.943 400.683 284.068 399.95 285.143 399.146C287.833 397.14 290.401 395.002 292.854 392.705C296.863 388.948 299.622 384.427 301.352 379.255C301.853 377.757 302.237 376.216 302.695 374.703C304.569 368.463 306.238 362.165 307.74 355.824C308.974 350.612 310.08 345.37 311.197 340.131C312.226 335.307 313.2 330.472 314.185 325.645C314.725 323.01 315.648 320.491 316.483 317.946C317.317 315.4 318.213 312.878 319.114 310.351C319.502 309.261 319.905 308.174 320.39 307.127C322.676 302.206 324.543 297.119 326.483 292.058C327.705 288.876 329.009 285.725 330.27 282.559C331.128 280.409 331.958 278.251 332.828 276.105C334.749 271.367 336.677 266.629 338.625 261.899C339.828 258.973 341.066 256.058 342.296 253.14C342.486 252.694 342.677 252.24 342.925 251.821C346.561 245.763 349.731 239.438 353.577 233.501C356.162 229.515 358.738 225.526 361.28 221.514C364.148 216.985 366.961 212.421 369.821 207.889C373.694 201.762 377.19 195.409 381.024 189.254C384.338 183.93 387.586 178.556 390.283 172.879C390.764 171.87 391.176 170.88 391.063 169.739C390.392 169.041 389.79 168.261 389.042 167.663C387.528 166.448 385.956 165.304 384.369 164.182C381.692 162.288 378.991 160.43 376.294 158.567C374.194 157.12 372.099 155.664 369.972 154.26C369.262 153.79 368.548 153.336 367.924 152.754C367.31 152.773 366.926 153.157 366.585 153.604C365.917 154.473 365.227 155.327 364.598 156.223C354.528 170.593 344.477 184.974 334.403 199.34C323.072 215.503 311.76 231.677 300.367 247.797C296.607 253.117 292.85 258.445 289.307 263.913C286.292 268.565 283.219 273.176 280.052 277.724C279.842 278.022 279.637 278.325 279.462 278.647C277.464 282.353 274.821 285.652 272.722 289.295C272.023 290.506 271.107 291.589 270.401 292.8C268.286 296.432 265.907 299.901 263.746 303.506C261.177 307.786 258.643 312.09 256.124 316.397C254.925 318.45 253.672 320.468 252.209 322.342C251.122 323.735 249.978 325.105 249.174 326.677C248.635 327.732 247.929 327.857 246.955 327.534C245.915 329.529 244.983 331.59 243.819 333.507C239.217 341.101 234.549 348.656 229.9 356.22C225.22 363.837 220.54 371.455 215.84 379.061C214.948 380.508 214.129 382.006 213.05 383.333L213.046 383.345Z" fill="#6A6C65"/>
<path d="M367.924 152.762C368.545 153.348 369.259 153.798 369.973 154.267C372.1 155.672 374.195 157.127 376.295 158.575C378.992 160.437 381.696 162.296 384.37 164.19C385.953 165.311 387.529 166.456 389.042 167.671C389.791 168.268 390.397 169.048 391.064 169.747C391.281 169.646 391.545 169.596 391.712 169.44C394.068 167.236 396.586 165.195 398.709 162.762C400.758 160.41 402.411 157.81 403.14 154.69C403.94 151.279 403.133 148.384 400.893 145.703C398.728 143.111 396.171 140.976 393.579 138.869C391.553 137.22 389.457 135.648 387.381 134.061C386.512 133.398 385.612 132.773 384.719 132.136C380.47 129.086 376.194 126.067 371.723 123.351C369.597 122.059 367.365 120.922 364.956 120.18C363.927 119.866 362.918 119.882 361.886 119.975C361.517 120.01 361.199 120.208 360.928 120.468C361.056 120.937 361.533 121.042 361.832 121.329C362.398 121.876 363.004 122.385 363.33 123.145C364.82 126.642 365.596 130.289 365.747 134.081C365.786 135.109 365.767 136.122 366.007 137.154C366.225 138.081 366.112 139.09 366.081 140.064C366.069 140.41 365.914 140.775 365.747 141.093C365.2 142.129 364.137 142.404 363.128 141.838C361.979 141.19 361.548 140.216 361.715 138.935C361.486 138.881 361.219 138.869 361.122 138.617C360.924 138.105 360.928 137.577 361.118 137.065C361.211 136.813 361.482 136.793 361.708 136.739C361.715 135.559 361.812 134.379 361.393 133.231C361.296 132.967 361.358 132.645 361.347 132.35C361.083 132.296 360.726 132.303 360.796 131.904C360.834 131.663 361.122 131.644 361.343 131.616C361.374 131.201 361.141 130.875 360.986 130.518C360.283 130.347 360.248 130.27 360.64 129.777C360.633 129.292 360.625 128.807 360.617 128.322C359.922 128.155 359.888 128.081 360.264 127.588C360.318 127.057 360.144 126.579 359.888 126.125C359.225 125.918 358.863 125.428 358.801 124.655C358.033 123.91 358.048 122.924 357.963 121.965C357.031 122.113 356.236 122.567 355.495 123.102C353.077 124.849 350.714 126.665 348.269 128.368C347.058 129.214 346.123 130.351 344.951 131.224C342.51 133.037 340.066 134.853 337.648 136.696C336.682 137.433 335.774 138.244 334.854 139.04C333.019 140.635 331.032 142.051 329.293 143.766C327.5 145.536 326.414 147.659 325.902 150.107C325.614 151.473 325.327 152.843 324.982 154.197C324.59 155.73 324.276 157.275 324.043 158.839C323.981 159.258 323.853 159.669 323.779 160.084C323.69 160.604 323.41 160.969 322.956 161.225C322.11 161.706 321.268 162.195 320.43 162.688C319.805 163.057 319.072 163.239 318.552 163.782C318.404 164.097 318.129 164.159 317.818 164.155C317.667 164.465 317.392 164.524 317.085 164.52C316.934 164.83 316.658 164.892 316.348 164.885L316.355 164.881C316.196 165.199 315.913 165.257 315.595 165.249C314.163 165.668 312.909 166.456 311.598 167.127C311.454 167.228 311.311 167.329 311.163 167.434C311.058 167.422 310.961 167.442 310.868 167.488C310.721 167.589 310.573 167.694 310.422 167.795C310.321 167.783 310.228 167.799 310.139 167.845C310.042 168.032 309.89 168.136 309.685 168.156C309.588 168.14 309.495 168.156 309.409 168.202C309.312 168.393 309.157 168.497 308.944 168.521C308.85 168.501 308.765 168.513 308.68 168.559C308.579 168.757 308.42 168.866 308.198 168.881C306.871 169.052 305.812 169.856 304.652 170.41C304.504 170.515 304.353 170.616 304.205 170.721C304.108 170.705 304.015 170.721 303.926 170.767C303.829 170.958 303.674 171.058 303.46 171.078C303.367 171.062 303.278 171.078 303.196 171.124C303.037 171.412 302.773 171.478 302.475 171.466L302.447 171.481C302.3 171.784 302.032 171.838 301.73 171.827L301.714 171.835C301.38 172.622 300.69 172.968 299.948 173.235C299.634 173.348 299.366 173.22 299.172 172.952C298.939 173.014 298.691 173.049 298.478 173.15C295.726 174.45 292.983 175.773 290.228 177.062C287.139 178.501 284.03 179.898 280.941 181.342C279.451 182.037 277.988 182.793 276.518 183.527C272.703 185.432 268.815 187.163 264.891 188.828C262.478 189.852 260.13 191.001 257.875 192.339C257.565 192.526 257.235 192.72 256.994 192.984C256.075 193.985 254.907 194.652 253.805 195.409C246.944 200.143 240.067 204.858 233.222 209.616C230.676 211.385 228.205 213.267 225.686 215.08C224.002 216.29 222.178 217.272 220.374 218.285C217.933 219.655 215.527 221.098 213.039 222.371C210.113 223.869 207.106 225.2 204.145 226.632C202.558 227.4 201.002 228.231 199.43 229.034C197.859 229.837 196.318 230.699 194.638 231.281C194.18 231.44 193.741 231.669 193.314 231.902C190.322 233.532 187.327 235.158 184.354 236.826C183.819 237.125 183.295 237.416 182.709 237.595C182.658 238.118 182.177 238.227 181.847 238.46C180.256 239.585 178.615 240.637 177.063 241.809C175.805 242.76 174.618 243.811 173.465 244.882C172.619 245.666 171.944 246.636 171.079 247.393C169.391 248.864 168.203 250.68 167.183 252.636C165.464 255.93 164.474 259.419 164.625 263.152C164.726 265.705 165.072 268.239 165.743 270.715C165.949 271.48 166.271 272.205 166.69 272.884C168.715 276.16 171.451 278.546 175.165 279.718C176.034 279.994 176.907 280.269 177.769 280.568C181.878 281.984 186.011 281.907 190.159 280.781C190.28 279.92 190.889 279.233 191.591 279.155C192.655 279.043 193.702 278.197 194.82 278.923C194.867 278.954 194.898 279.012 194.936 279.058C195.111 279.004 195.301 278.985 195.453 278.895C201.413 275.484 207.381 272.081 213.035 268.166C215.034 266.78 217.087 265.48 219.108 264.13C219.52 263.858 219.912 263.575 220.44 263.637C220.548 263.008 221.103 262.791 221.542 262.492C225.411 259.85 229.287 257.223 233.168 254.595C234.076 253.982 235.019 253.423 235.907 252.779C240.487 249.461 245.12 246.217 249.575 242.729C252.109 240.742 254.685 238.809 256.998 236.555C257.216 236.341 257.46 236.163 257.693 235.965C258.993 234.87 260.312 233.796 261.585 232.674C262.361 231.991 263.071 231.246 263.933 230.652C264.934 229.962 265.823 229.135 266.707 228.293C267.759 227.288 268.83 226.271 270.025 225.452C271.892 224.176 273.46 222.557 275.256 221.203C275.982 220.656 276.665 220.043 277.34 219.43C279.141 217.792 280.926 216.135 282.719 214.49C282.944 214.284 283.188 214.106 283.429 213.919C286.964 211.222 290.422 208.444 293.46 205.176C294.873 203.655 296.514 202.386 298.121 201.086C299.634 199.864 301.19 198.692 302.661 197.419C304.59 195.743 306.514 194.07 308.567 192.541C310.228 191.307 311.893 190.081 313.515 188.8C316.286 186.616 319.041 184.408 322.068 182.584C323.274 181.858 324.38 181.02 325.479 180.147C327.574 178.482 329.666 176.813 332.103 175.638C333.03 175.191 333.892 174.601 334.78 174.074C335.882 173.426 336.946 172.708 338.087 172.137C341.086 170.639 343.88 168.792 346.791 167.139C349.592 165.548 352.278 163.744 355.107 162.215C357.373 160.988 358.906 159.157 359.957 156.933C361.579 153.495 362.612 149.882 362.499 146.017C362.48 145.408 362.499 144.799 362.507 144.189C362.515 143.708 362.581 143.243 363.058 142.777C363.361 143.347 363.644 143.871 363.916 144.399C365.2 146.879 366.333 149.436 367.75 151.85C367.893 152.094 367.866 152.436 367.916 152.731L367.924 152.762Z" fill="#FFB78A"/>
<path d="M190.163 280.801C186.011 281.927 181.878 282.004 177.773 280.588C176.911 280.289 176.038 280.014 175.169 279.738C171.451 278.562 168.715 276.176 166.694 272.904C166.275 272.225 165.956 271.5 165.747 270.735C165.075 268.259 164.73 265.725 164.629 263.172C164.478 259.435 165.467 255.95 167.187 252.656C168.207 250.7 169.391 248.884 171.083 247.413C171.948 246.656 172.627 245.686 173.469 244.902C174.626 243.827 175.809 242.776 177.066 241.829C178.619 240.657 180.264 239.601 181.851 238.48C182.181 238.247 182.666 238.138 182.713 237.614C182.103 237.001 181.18 236.966 180.532 236.427C178.021 236.016 175.522 235.5 172.996 235.224C169.845 234.879 166.694 235.212 163.574 235.697C160.139 236.233 156.837 237.261 153.663 238.647C150.419 240.063 147.411 241.875 144.897 244.413C144.644 244.669 144.415 244.968 144.027 245.042C142.172 247.013 140.733 249.252 139.697 251.751C139.44 252.368 139.146 252.982 138.983 253.626C138.366 256.105 137.558 258.566 137.264 261.084C136.794 265.077 136.86 269.105 137.912 273.044C138.02 273.455 138.156 273.863 138.331 274.251C139.677 277.247 141.028 280.239 142.39 283.223C142.615 283.719 142.859 284.216 143.162 284.67C144.943 287.359 146.495 290.188 148.168 292.944C150.186 296.273 152.405 299.478 154.454 302.785C156.888 306.716 159.495 310.534 161.928 314.469C164.164 318.09 166.538 321.629 169.193 324.974C170.858 327.069 172.293 329.343 174.148 331.287C175.107 332.292 175.918 333.445 177.024 334.31C178.3 334.233 179.306 333.503 180.33 332.871C184.42 330.352 188.464 327.764 192.562 325.261C202.573 319.137 212.251 312.498 222.159 306.215C222.946 305.714 223.622 305.136 224.079 304.321C224.021 303.844 223.885 303.355 223.924 302.886C224.192 299.486 224.584 296.102 225.41 292.781C226.148 289.824 226.734 286.839 226.85 283.782C226.936 281.523 226.858 279.272 226.672 277.025C226.474 274.643 225.822 272.377 224.724 270.223C223.525 267.875 222.062 265.718 220.439 263.657C219.912 263.595 219.52 263.878 219.108 264.15C217.087 265.5 215.034 266.804 213.035 268.186C207.381 272.101 201.413 275.504 195.453 278.915C195.297 279.005 195.107 279.024 194.936 279.078C193.481 280.029 191.867 280.537 190.159 280.801H190.163Z" fill="#8A8AD9"/>
<path d="M224.083 304.32C223.625 305.135 222.95 305.713 222.162 306.214C212.255 312.501 202.577 319.14 192.565 325.26C188.467 327.767 184.42 330.351 180.334 332.87C179.309 333.502 178.304 334.232 177.027 334.309C177.338 335.524 178.219 336.401 178.874 337.41C179.138 337.813 179.526 338.159 179.717 338.59C180.586 340.561 181.979 342.187 183.228 343.894C187.998 350.41 192.817 356.883 197.629 363.367C201.681 368.827 205.743 374.275 209.814 379.724C210.54 380.694 211.114 381.78 212.03 382.611C212.344 382.894 212.597 383.255 213.047 383.344C214.129 382.021 214.944 380.519 215.837 379.072C220.536 371.466 225.216 363.848 229.896 356.231C234.545 348.663 239.213 341.112 243.816 333.518C244.98 331.597 245.911 329.54 246.951 327.545C246.753 326.855 246.167 326.474 245.694 326.017C242.12 322.54 238.651 318.954 235.018 315.531C231.305 312.035 227.723 308.387 224.254 304.642C224.172 304.557 224.141 304.429 224.083 304.32Z" fill="#FFB78A"/>
<path d="M178.487 167.081C178.452 165.739 177.622 164.842 176.718 164.012C175.457 162.856 174.021 161.936 172.531 161.102C169.232 159.258 165.872 157.539 162.158 156.697C158.518 155.871 154.812 155.448 151.098 155.863C147.035 156.317 143.089 157.337 139.441 159.297C137.726 160.221 136.038 161.183 134.412 162.258C131.323 164.291 128.828 166.942 126.538 169.802C126.045 170.419 125.661 171.121 125.04 171.633C125.133 172.247 124.827 172.677 124.404 173.065C123.352 174.024 122.677 175.238 122.014 176.476C121.234 177.935 120.787 179.511 120.232 181.052C119.258 183.768 119.025 186.597 118.859 189.434C118.777 190.827 118.866 192.231 118.835 193.632C118.796 195.538 119.258 197.381 119.774 199.158C120.259 200.827 120.873 202.496 121.746 204.048C122.549 205.476 123.267 206.95 124.086 208.371C126.007 211.7 128.145 214.847 130.981 217.471C131.571 218.018 132.041 218.639 132.359 219.376C132.949 219.337 133.384 219.683 133.853 219.958C136.469 221.487 139.173 222.822 142.115 223.617C142.635 223.757 143.178 223.827 143.71 223.932C144.808 223.128 145.483 221.945 146.368 220.944C148.304 218.755 150.109 216.466 151.94 214.192C154.653 210.831 157.241 207.366 160.326 204.323C160.885 203.772 161.37 203.132 161.844 202.503C162.17 202.069 162.437 201.584 162.41 200.994C162.267 198.13 162.596 195.282 162.655 192.422C162.713 189.496 162.596 186.581 162.34 183.675C162.259 182.732 162.492 182.006 163.26 181.451C163.454 181.308 163.617 181.121 163.799 180.958C167.222 177.939 170.664 174.947 174.052 171.893C175.674 170.43 177.354 169.002 178.491 167.085L178.487 167.081Z" fill="#804516"/>
<path d="M178.487 167.08C177.35 168.997 175.67 170.425 174.048 171.888C170.66 174.942 167.214 177.934 163.795 180.953C163.613 181.112 163.454 181.302 163.256 181.446C162.488 182.001 162.255 182.73 162.336 183.669C162.589 186.58 162.709 189.494 162.651 192.416C162.592 195.272 162.263 198.125 162.406 200.988C162.437 201.574 162.166 202.059 161.84 202.498C161.366 203.131 160.881 203.767 160.322 204.318C157.237 207.364 154.649 210.826 151.936 214.186C150.105 216.456 148.296 218.75 146.364 220.938C145.479 221.936 144.808 223.119 143.706 223.926C143.985 224.675 144.051 225.448 144.047 226.247C144.028 232.51 144.036 238.773 144.032 245.037C144.42 244.963 144.645 244.664 144.897 244.408C147.416 241.87 150.423 240.058 153.663 238.642C156.838 237.256 160.14 236.224 163.574 235.692C166.698 235.207 169.845 234.877 172.996 235.219C175.522 235.494 178.022 236.011 180.532 236.422C181.126 232.891 181.747 229.363 182.554 225.871C182.923 224.276 183.229 222.661 183.567 221.059C183.691 220.465 183.792 219.864 183.963 219.281C184.254 218.284 184.96 217.636 185.864 217.182C187.661 216.278 189.458 215.381 191.25 214.473C191.739 214.225 192.213 213.946 192.698 213.693C194.63 212.692 195.445 210.938 195.62 208.928C195.845 206.386 195.903 203.829 195.942 201.276C195.961 200.007 195.647 198.745 195.682 197.461C195.736 195.486 196.074 193.635 197.223 191.939C198.274 190.379 199.143 188.695 200.083 187.061C200.296 186.692 200.494 186.312 200.657 185.92C201.278 184.407 200.797 183.184 199.287 182.521C197.56 181.76 195.818 181.038 194.079 180.309C191.724 179.319 189.353 178.365 187.013 177.344C186.066 176.933 185.232 176.351 184.611 175.458C182.911 173.01 181.157 170.6 179.422 168.174C179.143 167.782 178.984 167.294 178.491 167.084L178.487 167.08Z" fill="#FFB78A"/>
<path d="M116.293 171.625C112.894 171.38 109.797 172.459 106.809 173.887C104.667 174.911 103.103 176.65 101.764 178.563C99.9945 181.089 98.8575 183.903 98.2172 186.918C98.1163 187.391 98.0464 187.88 98.0154 188.365C97.8097 191.291 97.9572 194.206 98.2288 197.124C98.6324 201.435 99.4085 205.696 99.9091 209.992C100.057 211.264 100.126 212.541 100.192 213.818C100.371 217.225 100.608 220.632 100.802 224.039C101.011 227.691 101.318 231.343 101.364 234.994C101.407 238.405 101.135 241.816 101.054 245.227C100.98 248.343 100.538 251.421 100.134 254.502C99.9285 256.066 99.5366 257.61 99.1873 259.155C98.5238 262.065 97.833 264.968 97.15 267.87C97.022 268.41 96.9017 268.93 97.1229 269.481C97.4062 270.183 97.8059 270.474 98.5315 270.296C99.1136 270.148 99.7073 269.946 100.231 269.655C105.8 266.563 111.011 263 115.299 258.215C122.44 250.249 127.372 241.141 129.619 230.644C130.104 228.382 130.418 226.084 130.81 223.803C129.165 223.989 127.702 223.356 126.254 222.743C122.083 220.974 118.738 218.164 115.963 214.59C113.204 211.039 111.334 207.085 110.169 202.77C109.568 200.546 109.168 198.272 109.005 195.994C108.78 192.851 109.028 189.712 109.653 186.6C110.573 182.024 112.242 177.779 114.791 173.867C115.284 173.115 116.06 172.552 116.293 171.628V171.625Z" fill="#814517"/>
<path d="M116.293 171.625C116.057 172.545 115.281 173.111 114.792 173.864C112.242 177.776 110.573 182.021 109.654 186.596C109.029 189.709 108.781 192.848 109.006 195.991C109.169 198.269 109.568 200.547 110.17 202.767C111.334 207.082 113.208 211.036 115.963 214.587C118.738 218.161 122.083 220.97 126.255 222.74C127.702 223.353 129.165 223.99 130.811 223.799C131.358 223.369 131.513 222.74 131.668 222.107C131.885 221.192 132.13 220.284 132.359 219.376C132.041 218.638 131.571 218.017 130.981 217.47C128.145 214.847 126.003 211.7 124.086 208.37C123.267 206.946 122.549 205.475 121.746 204.047C120.872 202.495 120.263 200.826 119.774 199.158C119.254 197.38 118.792 195.537 118.835 193.632C118.866 192.231 118.773 190.83 118.858 189.433C119.025 186.596 119.258 183.767 120.232 181.051C120.787 179.51 121.233 177.935 122.013 176.476C122.677 175.238 123.352 174.023 124.404 173.065C124.827 172.677 125.133 172.246 125.04 171.633C122.782 171.303 120.504 171.513 118.238 171.454C117.589 171.439 116.922 171.322 116.297 171.629L116.293 171.625Z" fill="#61340E"/>
<path d="M359.891 126.136C360.144 126.59 360.318 127.064 360.268 127.599C360.559 127.758 360.625 128.03 360.621 128.333C360.629 128.818 360.637 129.303 360.644 129.788C360.931 129.955 360.99 130.226 360.99 130.529C361.145 130.882 361.378 131.212 361.347 131.627C361.347 131.872 361.351 132.116 361.354 132.361C361.366 132.656 361.304 132.978 361.401 133.242C361.816 134.39 361.719 135.57 361.715 136.75C361.715 137.483 361.719 138.213 361.723 138.946C361.556 140.223 361.987 141.201 363.136 141.849C364.141 142.415 365.204 142.14 365.755 141.104C365.922 140.789 366.077 140.425 366.089 140.075C366.12 139.105 366.232 138.092 366.015 137.165C365.774 136.133 365.794 135.12 365.755 134.092C365.608 130.3 364.828 126.652 363.337 123.156C363.015 122.396 362.41 121.887 361.839 121.34C361.541 121.049 361.063 120.948 360.935 120.479C360.528 120.537 360.113 120.572 359.709 120.657C358.925 120.824 358.273 121.181 357.963 121.984C358.048 122.939 358.037 123.928 358.801 124.673C359.383 125.003 359.864 125.403 359.888 126.144L359.891 126.136Z" fill="#E7A47C"/>
<path d="M299.176 172.973C299.371 173.245 299.638 173.373 299.953 173.256C300.694 172.989 301.385 172.643 301.718 171.855C300.733 171.918 299.925 172.372 299.18 172.973H299.176Z" fill="#FCB890"/>
<path d="M317.822 164.169C318.133 164.173 318.408 164.111 318.556 163.797C318.257 163.812 317.989 163.89 317.822 164.169Z" fill="#FFB990"/>
<path d="M317.089 164.535C317.396 164.539 317.671 164.476 317.823 164.17C317.52 164.178 317.256 164.255 317.089 164.535Z" fill="#FFB990"/>
<path d="M316.356 164.904C316.667 164.908 316.942 164.85 317.094 164.539C316.791 164.547 316.523 164.628 316.356 164.904Z" fill="#FFB990"/>
<path d="M315.599 165.265C315.917 165.273 316.201 165.219 316.36 164.896C316.049 164.904 315.782 164.994 315.599 165.265Z" fill="#FFB990"/>
<path d="M302.475 171.484C302.773 171.492 303.037 171.426 303.196 171.143C302.897 171.139 302.634 171.205 302.475 171.484Z" fill="#FCB890"/>
<path d="M301.734 171.847C302.033 171.859 302.305 171.805 302.452 171.502C302.157 171.502 301.893 171.564 301.734 171.847Z" fill="#FCB890"/>
<path d="M311.167 167.449C311.311 167.348 311.455 167.247 311.602 167.143C311.458 167.243 311.315 167.344 311.167 167.449Z" fill="#FFB88F"/>
<path d="M310.426 167.81C310.574 167.71 310.721 167.605 310.873 167.504C310.725 167.609 310.578 167.71 310.426 167.81Z" fill="#FFB88F"/>
<path d="M309.69 168.172C309.899 168.148 310.05 168.048 310.144 167.861C309.992 167.966 309.841 168.067 309.69 168.172Z" fill="#FFB88F"/>
<path d="M308.948 168.535C309.162 168.516 309.317 168.411 309.414 168.217C309.259 168.322 309.104 168.426 308.948 168.535Z" fill="#FFB88F"/>
<path d="M308.202 168.9C308.424 168.881 308.583 168.776 308.684 168.578C308.524 168.687 308.362 168.795 308.202 168.9Z" fill="#FFB88F"/>
<path d="M304.206 170.736C304.353 170.631 304.504 170.531 304.652 170.426C304.501 170.531 304.353 170.631 304.206 170.736Z" fill="#FCB890"/>
<path d="M303.465 171.094C303.678 171.074 303.833 170.973 303.93 170.783C303.775 170.888 303.62 170.989 303.465 171.094Z" fill="#FCB890"/>
<path d="M190.164 280.8C191.868 280.536 193.482 280.028 194.941 279.077C194.902 279.031 194.875 278.973 194.824 278.941C193.707 278.216 192.659 279.062 191.596 279.174C190.893 279.248 190.284 279.939 190.164 280.8Z" fill="#F9B587"/>
<path d="M361.72 138.942C361.72 138.209 361.716 137.48 361.712 136.746C361.483 136.8 361.215 136.816 361.118 137.072C360.928 137.584 360.924 138.112 361.122 138.624C361.219 138.877 361.491 138.892 361.716 138.942H361.72Z" fill="#FFB689"/>
<path d="M359.892 126.137C359.868 125.396 359.383 124.996 358.805 124.666C358.87 125.442 359.232 125.932 359.892 126.137Z" fill="#FFB689"/>
<path d="M360.621 128.333C360.621 128.03 360.559 127.759 360.268 127.6C359.892 128.092 359.926 128.166 360.621 128.333Z" fill="#FFB689"/>
<path d="M360.99 130.53C360.99 130.231 360.932 129.956 360.645 129.789C360.253 130.282 360.288 130.359 360.99 130.53Z" fill="#FFB689"/>
<path d="M361.354 132.356C361.354 132.112 361.351 131.868 361.347 131.623C361.126 131.65 360.842 131.673 360.8 131.91C360.734 132.306 361.087 132.302 361.351 132.356H361.354Z" fill="#FFB689"/>
</svg>
