<svg width="500" height="500" viewBox="0 0 500 500" fill="none" xmlns="http://www.w3.org/2000/svg">
<path d="M212.605 369.429C213.28 370.608 214.25 371.544 215.217 372.467C218.352 375.447 221.534 378.385 224.852 381.156C228.275 384.016 231.977 386.472 235.919 388.56C236.56 388.897 237.25 389.177 237.953 389.355C239.024 389.631 240.041 390.015 241.038 390.477C243.715 391.719 246.525 392.46 249.451 392.79C250.782 392.941 252.109 393.139 253.436 393.306C253.797 393.352 254.166 393.399 254.527 393.376C260.316 393.026 266.036 392.184 271.663 390.795C274.981 389.976 278.163 388.735 281.275 387.322C282.502 386.767 283.627 386.034 284.702 385.23C287.391 383.224 289.96 381.086 292.413 378.789C296.421 375.032 299.18 370.511 300.911 365.339C301.412 363.841 301.796 362.3 302.254 360.787C304.128 354.547 305.797 348.249 307.298 341.908C308.532 336.696 309.638 331.454 310.756 326.215C311.784 321.391 312.758 316.556 313.744 311.729C314.283 309.094 315.207 306.575 316.041 304.03C316.876 301.484 317.772 298.962 318.672 296.435C319.06 295.345 319.464 294.258 319.949 293.211C322.235 288.29 324.101 283.203 326.042 278.142C327.264 274.96 328.568 271.809 329.829 268.643C330.687 266.493 331.517 264.335 332.386 262.189C334.307 257.451 336.236 252.713 338.184 247.983C339.387 245.057 340.625 242.142 341.855 239.224C342.045 238.778 342.235 238.324 342.483 237.905C346.12 231.847 349.29 225.522 353.136 219.585C355.72 215.599 358.297 211.61 360.839 207.598C363.706 203.069 366.52 198.505 369.38 193.973C373.252 187.846 376.749 181.493 380.583 175.338C383.897 170.014 387.145 164.64 389.842 158.962C390.323 157.954 390.734 156.964 390.622 155.823C389.951 155.125 389.349 154.345 388.6 153.747C387.087 152.532 385.515 151.388 383.928 150.266C381.25 148.372 378.549 146.514 375.852 144.651C373.753 143.204 371.658 141.748 369.531 140.344C368.821 139.874 368.107 139.42 367.482 138.838C366.869 138.857 366.485 139.241 366.143 139.688C365.476 140.557 364.785 141.411 364.156 142.307C354.086 156.677 344.036 171.058 333.962 185.424C322.631 201.587 311.319 217.761 299.925 233.881C296.165 239.201 292.409 244.529 288.866 249.997C285.851 254.649 282.777 259.26 279.611 263.808C279.401 264.106 279.195 264.409 279.021 264.731C277.022 268.437 274.38 271.736 272.28 275.379C271.582 276.59 270.666 277.673 269.96 278.884C267.845 282.516 265.466 285.985 263.304 289.59C260.736 293.87 258.202 298.174 255.683 302.481C254.484 304.534 253.231 306.552 251.768 308.426C250.681 309.819 249.536 311.189 248.733 312.761C248.194 313.816 247.487 313.941 246.513 313.618C245.473 315.613 244.542 317.674 243.378 319.591C238.775 327.185 234.107 334.74 229.458 342.304C224.778 349.921 220.098 357.539 215.399 365.145C214.506 366.592 213.688 368.09 212.609 369.417L212.605 369.429Z" fill="#6A6C65"/>
<path d="M367.483 138.846C368.104 139.432 368.818 139.882 369.532 140.351C371.658 141.756 373.754 143.211 375.853 144.659C378.55 146.521 381.255 148.38 383.929 150.274C385.512 151.395 387.087 152.54 388.601 153.755C389.35 154.352 389.955 155.132 390.623 155.831C390.84 155.73 391.104 155.679 391.271 155.524C393.626 153.32 396.145 151.279 398.267 148.846C400.316 146.494 401.969 143.894 402.699 140.774C403.498 137.363 402.691 134.468 400.452 131.787C398.287 129.195 395.729 127.06 393.137 124.953C391.112 123.304 389.016 121.732 386.94 120.145C386.071 119.482 385.17 118.857 384.278 118.22C380.029 115.17 375.752 112.151 371.282 109.435C369.155 108.143 366.924 107.006 364.514 106.264C363.486 105.95 362.477 105.966 361.445 106.059C361.076 106.094 360.758 106.292 360.486 106.552C360.614 107.021 361.092 107.126 361.39 107.413C361.957 107.96 362.562 108.469 362.888 109.229C364.378 112.726 365.154 116.373 365.306 120.165C365.345 121.193 365.325 122.206 365.566 123.238C365.783 124.165 365.671 125.174 365.64 126.148C365.628 126.494 365.473 126.859 365.306 127.177C364.759 128.213 363.695 128.488 362.686 127.922C361.538 127.274 361.107 126.3 361.274 125.019C361.045 124.965 360.777 124.953 360.68 124.701C360.482 124.189 360.486 123.661 360.676 123.149C360.769 122.897 361.041 122.877 361.266 122.823C361.274 121.643 361.371 120.463 360.952 119.315C360.855 119.051 360.917 118.729 360.905 118.434C360.641 118.38 360.284 118.387 360.354 117.988C360.393 117.747 360.68 117.728 360.901 117.7C360.932 117.285 360.7 116.959 360.544 116.602C359.842 116.431 359.807 116.354 360.199 115.861C360.191 115.376 360.183 114.891 360.176 114.406C359.481 114.239 359.446 114.165 359.823 113.672C359.877 113.141 359.702 112.663 359.446 112.209C358.784 112.002 358.422 111.512 358.36 110.739C357.591 109.994 357.607 109.008 357.521 108.049C356.59 108.197 355.795 108.651 355.053 109.186C352.636 110.933 350.273 112.749 347.828 114.452C346.617 115.298 345.682 116.435 344.51 117.308C342.069 119.121 339.624 120.937 337.207 122.78C336.24 123.517 335.332 124.328 334.413 125.124C332.577 126.719 330.59 128.135 328.852 129.85C327.059 131.62 325.972 133.743 325.46 136.191C325.173 137.557 324.886 138.927 324.54 140.281C324.149 141.814 323.834 143.359 323.601 144.923C323.539 145.342 323.411 145.753 323.338 146.168C323.248 146.688 322.969 147.053 322.515 147.309C321.669 147.79 320.827 148.279 319.989 148.772C319.364 149.141 318.63 149.323 318.11 149.866C317.963 150.181 317.687 150.243 317.377 150.239C317.226 150.549 316.95 150.608 316.644 150.604C316.492 150.914 316.217 150.976 315.906 150.968L315.914 150.965C315.755 151.283 315.472 151.341 315.153 151.333C313.721 151.752 312.468 152.54 311.156 153.211C311.013 153.312 310.869 153.413 310.722 153.518C310.617 153.506 310.52 153.526 310.427 153.572C310.279 153.673 310.132 153.778 309.981 153.879C309.88 153.867 309.787 153.883 309.697 153.929C309.6 154.116 309.449 154.22 309.243 154.24C309.146 154.224 309.053 154.24 308.968 154.286C308.871 154.477 308.716 154.581 308.502 154.605C308.409 154.585 308.324 154.597 308.238 154.643C308.137 154.841 307.978 154.95 307.757 154.965C306.43 155.136 305.37 155.939 304.21 156.494C304.063 156.599 303.911 156.7 303.764 156.805C303.667 156.789 303.574 156.805 303.485 156.851C303.388 157.042 303.232 157.142 303.019 157.162C302.926 157.146 302.836 157.162 302.755 157.208C302.596 157.496 302.332 157.562 302.033 157.55L302.006 157.565C301.859 157.868 301.591 157.922 301.288 157.911L301.273 157.919C300.939 158.706 300.248 159.052 299.507 159.319C299.193 159.432 298.925 159.304 298.731 159.036C298.498 159.098 298.25 159.133 298.036 159.234C295.285 160.534 292.541 161.857 289.786 163.146C286.697 164.585 283.589 165.982 280.5 167.426C279.01 168.121 277.547 168.877 276.076 169.611C272.262 171.516 268.373 173.247 264.45 174.912C262.036 175.936 259.689 177.085 257.434 178.423C257.123 178.61 256.794 178.804 256.553 179.068C255.633 180.069 254.465 180.736 253.363 181.493C246.502 186.227 239.626 190.942 232.781 195.7C230.235 197.469 227.763 199.351 225.245 201.164C223.56 202.374 221.737 203.356 219.932 204.369C217.491 205.739 215.085 207.182 212.598 208.455C209.672 209.953 206.664 211.284 203.704 212.716C202.116 213.484 200.56 214.315 198.989 215.118C197.417 215.921 195.877 216.783 194.196 217.365C193.738 217.524 193.3 217.753 192.873 217.986C189.881 219.616 186.885 221.242 183.913 222.91C183.377 223.209 182.853 223.5 182.267 223.679C182.217 224.202 181.736 224.311 181.406 224.544C179.815 225.669 178.173 226.721 176.621 227.893C175.364 228.844 174.176 229.895 173.024 230.966C172.178 231.75 171.503 232.72 170.637 233.477C168.949 234.948 167.762 236.764 166.741 238.72C165.022 242.014 164.033 245.503 164.184 249.236C164.285 251.789 164.63 254.323 165.302 256.799C165.507 257.564 165.829 258.289 166.248 258.968C168.274 262.244 171.01 264.63 174.724 265.802C175.593 266.078 176.466 266.353 177.327 266.652C181.437 268.068 185.57 267.991 189.718 266.865C189.838 266.004 190.448 265.317 191.15 265.239C192.213 265.127 193.261 264.281 194.379 265.007C194.425 265.038 194.456 265.096 194.495 265.142C194.67 265.088 194.86 265.069 195.011 264.979C200.972 261.568 206.94 258.165 212.594 254.25C214.592 252.864 216.645 251.564 218.667 250.214C219.078 249.942 219.47 249.659 219.998 249.721C220.107 249.092 220.662 248.875 221.1 248.576C224.969 245.934 228.846 243.306 232.726 240.679C233.634 240.066 234.577 239.507 235.466 238.863C240.045 235.545 244.678 232.301 249.133 228.813C251.667 226.826 254.244 224.893 256.557 222.639C256.774 222.425 257.019 222.247 257.252 222.049C258.551 220.954 259.871 219.88 261.144 218.758C261.92 218.075 262.63 217.33 263.491 216.736C264.493 216.046 265.381 215.219 266.266 214.377C267.318 213.372 268.389 212.355 269.584 211.536C271.451 210.26 273.018 208.641 274.815 207.287C275.541 206.74 276.224 206.127 276.899 205.514C278.699 203.876 280.484 202.219 282.277 200.574C282.502 200.368 282.747 200.19 282.987 200.003C286.523 197.306 289.98 194.528 293.019 191.26C294.431 189.739 296.073 188.47 297.679 187.17C299.193 185.948 300.749 184.776 302.219 183.503C304.148 181.827 306.073 180.154 308.126 178.625C309.787 177.391 311.451 176.165 313.073 174.884C315.844 172.7 318.599 170.492 321.626 168.668C322.833 167.942 323.939 167.104 325.037 166.231C327.133 164.566 329.224 162.897 331.661 161.722C332.589 161.275 333.45 160.685 334.339 160.158C335.441 159.51 336.504 158.792 337.645 158.221C340.645 156.723 343.439 154.876 346.349 153.223C349.151 151.632 351.836 149.828 354.665 148.299C356.932 147.072 358.464 145.241 359.516 143.017C361.138 139.579 362.17 135.966 362.058 132.101C362.038 131.492 362.058 130.883 362.066 130.273C362.073 129.792 362.139 129.327 362.617 128.861C362.919 129.431 363.203 129.955 363.474 130.483C364.759 132.963 365.892 135.52 367.308 137.934C367.452 138.178 367.425 138.52 367.475 138.815L367.483 138.846Z" fill="#F5BA92"/>
<path d="M189.722 266.885C185.57 268.011 181.437 268.088 177.331 266.672C176.47 266.373 175.597 266.097 174.727 265.822C171.01 264.646 168.274 262.26 166.252 258.988C165.833 258.309 165.515 257.584 165.305 256.819C164.634 254.343 164.289 251.809 164.188 249.256C164.036 245.519 165.026 242.034 166.745 238.74C167.766 236.784 168.949 234.968 170.641 233.497C171.507 232.74 172.186 231.77 173.028 230.986C174.184 229.911 175.368 228.86 176.625 227.913C178.177 226.741 179.823 225.685 181.41 224.564C181.74 224.331 182.225 224.222 182.271 223.698C181.662 223.085 180.738 223.05 180.09 222.511C177.58 222.1 175.081 221.584 172.554 221.308C169.403 220.963 166.252 221.296 163.132 221.781C159.698 222.317 156.396 223.345 153.221 224.731C149.977 226.147 146.97 227.959 144.455 230.497C144.203 230.753 143.974 231.052 143.586 231.126C141.731 233.097 140.291 235.336 139.255 237.835C138.999 238.452 138.704 239.066 138.541 239.71C137.924 242.189 137.117 244.65 136.822 247.168C136.353 251.161 136.419 255.189 137.47 259.128C137.579 259.539 137.715 259.947 137.889 260.335C139.236 263.331 140.586 266.323 141.948 269.307C142.173 269.803 142.418 270.3 142.721 270.754C144.502 273.443 146.054 276.272 147.726 279.028C149.744 282.357 151.964 285.562 154.013 288.869C156.446 292.8 159.054 296.618 161.487 300.553C163.722 304.174 166.097 307.713 168.751 311.058C170.416 313.153 171.852 315.427 173.707 317.371C174.665 318.376 175.476 319.529 176.582 320.394C177.859 320.317 178.864 319.587 179.889 318.955C183.979 316.436 188.022 313.848 192.12 311.345C202.132 305.221 211.81 298.582 221.717 292.299C222.505 291.798 223.18 291.22 223.638 290.405C223.58 289.928 223.444 289.439 223.483 288.97C223.751 285.57 224.143 282.186 224.969 278.865C225.706 275.908 226.292 272.923 226.409 269.866C226.494 267.607 226.417 265.356 226.23 263.109C226.032 260.727 225.38 258.461 224.282 256.307C223.083 253.959 221.62 251.802 219.998 249.741C219.47 249.679 219.078 249.962 218.667 250.234C216.645 251.584 214.592 252.888 212.594 254.27C206.94 258.185 200.972 261.588 195.011 264.999C194.856 265.089 194.666 265.108 194.495 265.162C193.04 266.113 191.426 266.621 189.718 266.885H189.722Z" fill="#8A8AD9"/>
<path d="M223.642 290.404C223.184 291.219 222.508 291.797 221.721 292.298C211.814 298.585 202.136 305.224 192.124 311.344C188.026 313.851 183.978 316.435 179.892 318.954C178.868 319.586 177.863 320.316 176.586 320.393C176.896 321.608 177.777 322.485 178.433 323.494C178.697 323.897 179.085 324.243 179.275 324.674C180.144 326.645 181.538 328.271 182.787 329.978C187.556 336.494 192.376 342.967 197.188 349.451C201.239 354.911 205.302 360.359 209.373 365.808C210.098 366.778 210.673 367.864 211.589 368.695C211.903 368.978 212.155 369.339 212.605 369.428C213.688 368.105 214.503 366.603 215.395 365.156C220.095 357.55 224.775 349.932 229.455 342.315C234.104 334.747 238.772 327.196 243.374 319.602C244.538 317.681 245.47 315.624 246.51 313.629C246.312 312.939 245.726 312.558 245.252 312.101C241.678 308.624 238.209 305.038 234.577 301.615C230.863 298.119 227.282 294.471 223.812 290.726C223.731 290.641 223.7 290.513 223.642 290.404Z" fill="#F5BA92"/>
<path d="M178.046 153.164C178.011 151.822 177.181 150.925 176.276 150.095C175.015 148.939 173.579 148.019 172.089 147.185C168.791 145.341 165.43 143.622 161.717 142.78C158.077 141.954 154.371 141.531 150.657 141.946C146.594 142.4 142.647 143.42 139 145.38C137.284 146.304 135.596 147.266 133.97 148.341C130.882 150.374 128.386 153.025 126.097 155.885C125.604 156.502 125.22 157.204 124.599 157.716C124.692 158.33 124.385 158.76 123.963 159.148C122.911 160.107 122.236 161.321 121.572 162.559C120.792 164.018 120.346 165.594 119.791 167.135C118.817 169.851 118.584 172.68 118.417 175.517C118.336 176.91 118.425 178.314 118.394 179.715C118.355 181.621 118.817 183.464 119.333 185.241C119.818 186.91 120.431 188.579 121.304 190.131C122.108 191.559 122.826 193.033 123.644 194.454C125.565 197.783 127.703 200.93 130.54 203.554C131.13 204.101 131.599 204.722 131.918 205.459C132.508 205.42 132.942 205.766 133.412 206.041C136.027 207.57 138.732 208.905 141.673 209.7C142.193 209.84 142.737 209.91 143.268 210.015C144.367 209.211 145.042 208.028 145.926 207.027C147.863 204.838 149.667 202.549 151.499 200.275C154.212 196.914 156.8 193.449 159.885 190.406C160.444 189.855 160.929 189.215 161.402 188.586C161.728 188.152 161.996 187.667 161.969 187.077C161.825 184.213 162.155 181.365 162.213 178.505C162.271 175.579 162.155 172.664 161.899 169.758C161.817 168.815 162.05 168.089 162.819 167.534C163.013 167.391 163.176 167.204 163.358 167.041C166.781 164.022 170.223 161.03 173.61 157.976C175.233 156.513 176.913 155.085 178.05 153.168L178.046 153.164Z" fill="#804516"/>
<path d="M178.046 153.165C176.909 155.082 175.229 156.51 173.606 157.973C170.219 161.027 166.773 164.019 163.354 167.038C163.172 167.197 163.013 167.387 162.815 167.531C162.046 168.086 161.813 168.815 161.895 169.754C162.147 172.665 162.267 175.579 162.209 178.501C162.151 181.357 161.821 184.21 161.965 187.073C161.996 187.659 161.724 188.144 161.398 188.583C160.925 189.215 160.44 189.852 159.881 190.403C156.796 193.449 154.208 196.911 151.495 200.271C149.663 202.541 147.855 204.835 145.923 207.023C145.038 208.021 144.366 209.204 143.264 210.011C143.544 210.76 143.61 211.533 143.606 212.332C143.586 218.595 143.594 224.858 143.59 231.122C143.978 231.048 144.203 230.749 144.456 230.493C146.974 227.955 149.982 226.143 153.222 224.727C156.396 223.341 159.699 222.309 163.133 221.777C166.257 221.292 169.404 220.962 172.555 221.304C175.081 221.579 177.58 222.095 180.091 222.507C180.685 218.976 181.305 215.448 182.113 211.956C182.481 210.361 182.788 208.746 183.125 207.144C183.25 206.55 183.351 205.948 183.521 205.366C183.812 204.369 184.519 203.721 185.423 203.267C187.219 202.363 189.016 201.466 190.809 200.558C191.298 200.31 191.771 200.031 192.256 199.778C194.189 198.777 195.004 197.023 195.179 195.013C195.404 192.471 195.462 189.914 195.501 187.361C195.52 186.092 195.206 184.83 195.241 183.546C195.295 181.571 195.633 179.72 196.781 178.024C197.833 176.464 198.702 174.78 199.641 173.146C199.855 172.777 200.052 172.397 200.215 172.005C200.836 170.492 200.355 169.269 198.846 168.606C197.119 167.845 195.376 167.123 193.638 166.394C191.282 165.404 188.911 164.45 186.571 163.429C185.625 163.018 184.79 162.436 184.169 161.543C182.47 159.095 180.716 156.685 178.981 154.259C178.702 153.867 178.543 153.378 178.05 153.169L178.046 153.165Z" fill="#F5BA92"/>
<path d="M115.851 157.709C112.452 157.464 109.355 158.543 106.367 159.971C104.225 160.995 102.661 162.734 101.323 164.647C99.5531 167.173 98.4161 169.987 97.7758 173.002C97.6749 173.475 97.605 173.964 97.574 174.449C97.3683 177.375 97.5158 180.289 97.7874 183.208C98.191 187.519 98.9671 191.78 99.4677 196.076C99.6152 197.348 99.6851 198.625 99.751 199.902C99.9295 203.309 100.166 206.716 100.36 210.123C100.57 213.775 100.876 217.426 100.923 221.078C100.966 224.489 100.694 227.9 100.612 231.311C100.539 234.427 100.096 237.505 99.6928 240.586C99.4871 242.15 99.0952 243.694 98.7459 245.239C98.0823 248.149 97.3916 251.052 96.7086 253.954C96.5806 254.494 96.4603 255.014 96.6815 255.565C96.9648 256.267 97.3645 256.558 98.0901 256.38C98.6722 256.232 99.2659 256.03 99.7898 255.739C105.358 252.646 110.57 249.084 114.858 244.299C121.998 236.333 126.93 227.225 129.177 216.728C129.662 214.466 129.977 212.168 130.369 209.887C128.723 210.073 127.26 209.44 125.813 208.827C121.641 207.058 118.296 204.248 115.522 200.674C112.763 197.123 110.892 193.169 109.728 188.854C109.126 186.63 108.727 184.356 108.564 182.078C108.339 178.935 108.587 175.796 109.212 172.684C110.132 168.108 111.8 163.863 114.35 159.951C114.843 159.199 115.619 158.636 115.851 157.712V157.709Z" fill="#814517"/>
<path d="M115.852 157.709C115.615 158.629 114.839 159.195 114.35 159.948C111.801 163.86 110.132 168.105 109.212 172.68C108.588 175.793 108.339 178.932 108.564 182.075C108.727 184.353 109.127 186.631 109.728 188.851C110.893 193.166 112.767 197.12 115.522 200.671C118.297 204.245 121.642 207.054 125.813 208.824C127.261 209.437 128.724 210.073 130.369 209.883C130.916 209.453 131.072 208.824 131.227 208.191C131.444 207.276 131.689 206.368 131.917 205.459C131.599 204.722 131.13 204.101 130.54 203.554C127.703 200.931 125.561 197.784 123.644 194.454C122.825 193.03 122.107 191.559 121.304 190.131C120.431 188.579 119.822 186.91 119.333 185.242C118.813 183.464 118.351 181.621 118.394 179.716C118.425 178.315 118.332 176.914 118.417 175.517C118.584 172.68 118.817 169.851 119.791 167.135C120.346 165.594 120.792 164.019 121.572 162.56C122.235 161.322 122.911 160.107 123.962 159.149C124.385 158.761 124.692 158.33 124.599 157.717C122.34 157.387 120.062 157.597 117.796 157.538C117.148 157.523 116.481 157.406 115.856 157.713L115.852 157.709Z" fill="#61340E"/>
<path d="M359.45 112.22C359.702 112.674 359.877 113.148 359.826 113.683C360.117 113.842 360.183 114.114 360.18 114.417C360.187 114.902 360.195 115.387 360.203 115.872C360.49 116.039 360.548 116.31 360.548 116.613C360.703 116.966 360.936 117.296 360.905 117.711C360.905 117.956 360.909 118.2 360.913 118.445C360.925 118.74 360.863 119.062 360.96 119.326C361.375 120.474 361.278 121.654 361.274 122.834C361.274 123.567 361.278 124.297 361.282 125.03C361.115 126.307 361.546 127.285 362.694 127.933C363.699 128.499 364.763 128.224 365.314 127.188C365.48 126.873 365.636 126.509 365.647 126.159C365.678 125.189 365.791 124.176 365.574 123.249C365.333 122.217 365.352 121.204 365.314 120.176C365.166 116.384 364.386 112.736 362.896 109.24C362.574 108.479 361.969 107.971 361.398 107.424C361.099 107.133 360.622 107.032 360.494 106.562C360.086 106.621 359.671 106.656 359.268 106.741C358.484 106.908 357.832 107.265 357.521 108.068C357.607 109.023 357.595 110.012 358.36 110.757C358.942 111.087 359.423 111.487 359.446 112.228L359.45 112.22Z" fill="#E7A47C"/>
<path d="M298.736 159.056C298.93 159.328 299.197 159.456 299.512 159.339C300.253 159.072 300.944 158.726 301.277 157.938C300.292 158.001 299.485 158.455 298.739 159.056H298.736Z" fill="#FCB890"/>
<path d="M317.381 150.254C317.691 150.258 317.967 150.196 318.114 149.882C317.815 149.897 317.548 149.975 317.381 150.254Z" fill="#FFB990"/>
<path d="M316.648 150.62C316.955 150.624 317.23 150.561 317.382 150.255C317.079 150.263 316.815 150.34 316.648 150.62Z" fill="#FFB990"/>
<path d="M315.915 150.988C316.225 150.992 316.501 150.933 316.652 150.623C316.35 150.631 316.082 150.712 315.915 150.988Z" fill="#FFB990"/>
<path d="M315.157 151.349C315.476 151.357 315.759 151.303 315.918 150.98C315.608 150.988 315.34 151.077 315.157 151.349Z" fill="#FFB990"/>
<path d="M302.033 157.569C302.332 157.577 302.596 157.511 302.755 157.228C302.456 157.224 302.192 157.29 302.033 157.569Z" fill="#FCB890"/>
<path d="M301.293 157.93C301.592 157.942 301.863 157.888 302.011 157.585C301.716 157.585 301.452 157.647 301.293 157.93Z" fill="#FCB890"/>
<path d="M310.726 153.533C310.87 153.432 311.014 153.331 311.161 153.227C311.018 153.327 310.874 153.428 310.726 153.533Z" fill="#FFB88F"/>
<path d="M309.985 153.894C310.133 153.794 310.28 153.689 310.432 153.588C310.284 153.693 310.137 153.794 309.985 153.894Z" fill="#FFB88F"/>
<path d="M309.248 154.255C309.458 154.231 309.609 154.131 309.702 153.944C309.551 154.049 309.399 154.15 309.248 154.255Z" fill="#FFB88F"/>
<path d="M308.507 154.619C308.72 154.6 308.876 154.495 308.973 154.301C308.817 154.406 308.662 154.51 308.507 154.619Z" fill="#FFB88F"/>
<path d="M307.761 154.984C307.982 154.965 308.141 154.86 308.242 154.662C308.083 154.771 307.92 154.879 307.761 154.984Z" fill="#FFB88F"/>
<path d="M303.765 156.82C303.912 156.715 304.063 156.615 304.211 156.51C304.06 156.615 303.912 156.715 303.765 156.82Z" fill="#FCB890"/>
<path d="M303.023 157.178C303.236 157.158 303.391 157.057 303.488 156.867C303.333 156.972 303.178 157.073 303.023 157.178Z" fill="#FCB890"/>
<path d="M189.723 266.884C191.427 266.62 193.041 266.112 194.5 265.161C194.461 265.115 194.434 265.056 194.384 265.025C193.266 264.3 192.218 265.146 191.155 265.258C190.453 265.332 189.843 266.023 189.723 266.884Z" fill="#F9B587"/>
<path d="M361.278 125.026C361.278 124.293 361.274 123.564 361.271 122.83C361.042 122.884 360.774 122.9 360.677 123.156C360.487 123.668 360.483 124.196 360.681 124.708C360.778 124.961 361.049 124.976 361.274 125.026H361.278Z" fill="#FFB689"/>
<path d="M359.45 112.221C359.427 111.48 358.942 111.08 358.364 110.75C358.428 111.526 358.79 112.016 359.45 112.221Z" fill="#FFB689"/>
<path d="M360.18 114.417C360.18 114.114 360.118 113.843 359.827 113.684C359.45 114.176 359.485 114.25 360.18 114.417Z" fill="#FFB689"/>
<path d="M360.549 116.613C360.549 116.314 360.491 116.039 360.203 115.872C359.812 116.365 359.846 116.443 360.549 116.613Z" fill="#FFB689"/>
<path d="M360.913 118.441C360.913 118.197 360.909 117.952 360.905 117.708C360.684 117.735 360.401 117.758 360.358 117.995C360.292 118.391 360.645 118.387 360.909 118.441H360.913Z" fill="#FFB689"/>
</svg>
