<svg width="497" height="497" viewBox="0 0 497 497" fill="none" xmlns="http://www.w3.org/2000/svg">
<path d="M387.687 93.377C385.618 90.7935 362.513 101.989 353.719 113.701C350.271 118.351 342.857 123.863 342.857 123.863C303.2 155.038 277.164 168.128 277.164 168.128C246.128 186.212 179.917 212.048 170.607 221.865C161.296 231.683 179.055 252.868 190.608 245.462C204.746 240.122 214.229 235.3 229.403 224.966C260.266 207.398 280.44 192.585 290.268 185.868C306.476 175.017 352.168 134.714 352.168 134.714C352.168 134.714 358.892 132.475 362.341 129.547C368.375 124.38 372.341 119.385 375.789 113.012C381.135 104.228 389.756 95.9606 387.687 93.377Z" fill="#D89D75"/>
<path d="M245.382 253.656C244.333 232.408 226.149 228.435 212.511 206.841C210.763 204.077 196.95 197.513 189.957 198.031C182.263 198.549 174.395 200.277 169.15 207.014C164.954 212.196 157.261 227.917 166.003 268.686C168.101 279.05 180.865 311.009 201.496 350.569C213.211 372.854 215.134 382.7 224.576 396.002L280.001 350.569C271.783 339.686 237.339 291.143 238.738 269.895C238.913 269.722 245.732 259.703 245.382 253.656Z" fill="#FF8AA0"/>
<path d="M196.038 201.225C194.49 199.968 188.127 199.968 179.529 175.002L157.001 180.031C165.084 192.424 166.975 212.002 166.975 212.002C178.153 207.332 186.064 207.691 192.083 208.23C192.942 208.23 195.866 209.128 197.586 205.895C198.617 204.099 197.586 202.662 196.038 201.225Z" fill="#ECAD83"/>
<path d="M185.119 139.876C185.637 128.746 177.359 123.702 172.013 121.093C155.457 113.267 145.973 117.789 135.108 125.267C120.622 135.181 140.971 177.442 146.662 183.182C161.321 197.791 188.913 188.573 198.571 182.486C209.263 175.703 204.089 173.79 200.985 169.964C200.812 169.79 200.985 168.92 200.985 168.92C200.123 167.529 198.571 165.616 198.226 163.007C198.226 163.007 197.018 161.964 196.501 161.268C196.156 160.746 195.984 160.572 196.329 159.877C197.536 158.312 198.571 156.746 198.743 155.877C199.26 152.224 184.947 144.92 185.119 139.876Z" fill="#F6BB92"/>
<path d="M193.001 168.002C193.001 168.002 194.248 168.002 198.611 164.77C198.923 164.09 199.546 162.899 197.988 162.049C196.741 161.539 195.806 165.281 193.001 168.002Z" fill="#D6876B"/>
<path d="M193.001 168.288C193.001 168.288 195.756 170.003 201.266 168.117C201.817 167.602 202.001 166.745 202.001 166.402C201.634 164.687 199.797 165.03 199.797 165.03C194.47 168.288 193.001 168.288 193.001 168.288Z" fill="#CC785E"/>
<path d="M131.617 123.228C113.57 135.356 107.262 176.938 152.469 190.626C155.447 191.492 160.879 191.492 163.683 183.522C165.61 177.978 165.61 172.26 165.61 172.26C165.61 170.528 165.61 168.795 165.435 166.716C165.435 164.637 158.251 156.494 159.828 155.108C175.598 140.554 176.824 126.347 173.495 121.669C163.858 111.966 150.716 110.407 131.617 123.228Z" fill="#602F0F"/>
<path d="M159.013 170.051C167.007 176.141 170.657 174.227 175.001 170.747L164.053 160.308L158.318 157.002C153.974 160.308 151.019 163.788 159.013 170.051Z" fill="#F6BB92"/>
<path d="M121.742 168.97C115.404 168.285 111.735 158.523 113.403 147.221C115.071 135.918 121.575 127.355 127.913 128.04C134.251 128.725 136.086 136.774 134.418 148.077C132.75 159.379 128.08 169.655 121.742 168.97Z" fill="#4C230C"/>
<path d="M162.709 156.126C161.496 154.912 160.629 153.525 159.936 152.485C158.896 150.925 158.549 149.885 158.549 149.885L154.562 155.259C155.082 155.952 155.602 156.819 156.122 157.513C156.122 157.513 156.642 156.993 157.335 155.952C157.335 155.952 157.335 156.126 157.162 156.126C158.722 156.819 160.803 158.033 163.403 160.113C163.403 159.94 166.523 160.113 162.709 156.126Z" fill="#602F0F"/>
<path d="M118.849 170.86C111.915 170.167 107.927 159.245 109.834 146.763C111.741 134.281 118.849 124.746 125.784 125.44C132.718 126.307 134.798 135.148 132.718 147.63C130.984 160.285 125.784 171.727 118.849 170.86Z" fill="#602F0F"/>
<path d="M137.596 166.002C136.96 165.865 136.801 163.391 137.278 160.367C137.755 157.344 138.867 154.87 139.502 155.007C140.138 155.007 140.138 157.206 139.661 160.23C139.185 163.253 138.39 166.002 137.596 166.002Z" fill="#4C230C"/>
<path d="M224.001 396.311C242.386 415.188 272.738 405.4 285.747 394.913C326.679 362.228 260.251 305.248 254.7 316.435C250.191 325.698 245.855 334.088 242.039 341.429C237.356 350.168 224.001 396.311 224.001 396.311Z" fill="#3D3C3C"/>
<path d="M399.935 43.9886C400.629 52.2742 395.596 70.9166 397.679 81.4462C398.893 87.6603 400.976 99.3981 398.373 104.922C394.208 113.898 387.093 115.451 385.357 117.695C375.292 131.85 367.483 179.837 362.971 189.331C355.508 204.866 327.568 184.152 330.172 178.629C351.691 132.713 364.706 111.481 369.392 103.714C369.392 103.714 386.051 53.4825 389.002 47.7862C390.911 44.1613 399.414 36.9114 399.935 43.9886Z" fill="#ECAD83"/>
<path d="M338.518 241.683C348.518 224.368 356.794 207.399 363.001 191.296C352.484 193.374 335.414 184.716 331.104 179.002C328.345 184.543 304.035 226.273 304.035 226.273C296.448 239.432 250.413 317.004 243.172 344.189C241.103 351.115 239.723 357.522 239.034 362.717C237.482 373.106 291.448 389.901 298.862 377.781C309.035 348.864 317.483 291.724 321.104 278.218C325.069 264.712 338.518 241.683 338.518 241.683Z" fill="#3D3C3C"/>
<path d="M396.741 106.421C394.835 103.827 371.097 113.684 361.566 125.097C357.754 129.593 350.13 134.609 350.13 134.609C308.718 163.834 281.86 175.594 281.86 175.594C249.804 192.195 182.054 214.503 172.004 224.015C162.127 233.353 178.761 255.489 190.891 248.744C205.272 244.075 215.149 239.752 230.917 230.24C262.8 214.331 283.766 200.323 293.989 194.27C310.797 184.24 358.794 146.195 358.794 146.195C358.794 146.195 365.725 144.293 369.191 141.526C375.428 136.684 379.76 131.842 383.572 125.616C389.637 116.796 398.647 109.014 396.741 106.421Z" fill="#F6BB92"/>
</svg>
