<svg width="497" height="497" viewBox="0 0 497 497" fill="none" xmlns="http://www.w3.org/2000/svg">
<path d="M348.777 161.265C347.31 159.437 330.927 167.361 324.691 175.651C322.246 178.942 316.989 182.843 316.989 182.843C288.868 204.908 270.406 214.173 270.406 214.173C248.399 226.974 201.45 245.26 194.848 252.209C188.245 259.157 200.838 274.152 209.03 268.91C219.056 265.131 225.78 261.717 236.539 254.403C258.424 241.968 272.729 231.484 279.698 226.73C291.191 219.05 323.591 190.523 323.591 190.523C323.591 190.523 328.359 188.938 330.804 186.866C335.084 183.209 337.896 179.674 340.341 175.163C344.131 168.946 350.244 163.094 348.777 161.265Z" fill="#D89D75"/>
<path d="M247.649 274.352C246.911 259.328 234.121 256.518 224.528 241.25C223.299 239.296 213.583 234.654 208.664 235.021C203.252 235.387 197.718 236.608 194.029 241.372C191.077 245.037 185.666 256.152 191.815 284.978C193.291 292.307 202.269 314.904 216.781 342.876C225.02 358.632 226.373 365.595 233.014 375L272 342.876C266.22 335.18 241.992 300.857 242.976 285.833C243.099 285.711 247.895 278.627 247.649 274.352Z" fill="#FF8AA0"/>
<path d="M212.612 237.427C211.517 236.544 207.016 236.544 200.934 219L185 222.534C190.717 231.243 192.055 245 192.055 245C199.961 241.718 205.557 241.971 209.814 242.35C210.422 242.35 212.49 242.981 213.706 240.709C214.436 239.447 213.706 238.437 212.612 237.427Z" fill="#ECAD83"/>
<path d="M204.95 194.074C205.316 186.252 199.466 182.708 195.688 180.875C183.989 175.376 177.287 178.553 169.609 183.808C159.372 190.774 173.752 220.472 177.774 224.505C188.133 234.77 207.631 228.293 214.456 224.016C222.012 219.25 218.356 217.905 216.162 215.217C216.04 215.094 216.162 214.483 216.162 214.483C215.553 213.506 214.456 212.161 214.212 210.328C214.212 210.328 213.359 209.595 212.993 209.106C212.75 208.739 212.628 208.617 212.872 208.128C213.725 207.028 214.456 205.928 214.578 205.317C214.943 202.751 204.828 197.618 204.95 194.074Z" fill="#F6BB92"/>
<path d="M211 214C211 214 211.831 214 214.74 211.846C214.948 211.392 215.364 210.598 214.325 210.031C213.494 209.691 212.87 212.186 211 214Z" fill="#D6876B"/>
<path d="M211 214.465C211 214.465 212.837 215.751 216.51 214.336C216.878 213.95 217 213.307 217 213.05C216.755 211.764 215.531 212.021 215.531 212.021C211.98 214.465 211 214.465 211 214.465Z" fill="#CC785E"/>
<path d="M167.555 182.47C154.89 190.976 150.464 220.137 182.188 229.736C184.278 230.344 188.09 230.344 190.057 224.754C191.41 220.866 191.41 216.856 191.41 216.856C191.41 215.641 191.41 214.426 191.287 212.968C191.287 211.51 186.246 205.799 187.352 204.827C198.419 194.621 199.28 184.657 196.943 181.377C190.18 174.572 180.958 173.479 167.555 182.47Z" fill="#602F0F"/>
<path d="M186.58 215.211C192.29 219.51 194.897 218.159 198 215.702L190.18 208.334L186.084 206C182.981 208.333 180.87 210.79 186.58 215.211Z" fill="#F6BB92"/>
<path d="M160.357 214.977C155.748 214.493 153.079 207.588 154.292 199.594C155.505 191.599 160.236 185.543 164.845 186.027C169.455 186.512 170.789 192.205 169.576 200.199C168.363 208.194 164.967 215.462 160.357 214.977Z" fill="#4C230C"/>
<path d="M189.386 205.56C188.528 204.701 187.915 203.72 187.424 202.985C186.689 201.881 186.443 201.146 186.443 201.146L183.623 204.946C183.991 205.437 184.359 206.05 184.727 206.54C184.727 206.54 185.095 206.173 185.585 205.437C185.585 205.437 185.585 205.56 185.462 205.56C186.566 206.05 188.037 206.908 189.877 208.38C189.877 208.257 192.084 208.38 189.386 205.56Z" fill="#602F0F"/>
<path d="M158.365 215.982C153.461 215.492 150.641 207.767 151.989 198.939C153.338 190.111 158.365 183.368 163.27 183.858C168.174 184.471 169.645 190.724 168.174 199.552C166.948 208.503 163.27 216.596 158.365 215.982Z" fill="#602F0F"/>
<path d="M171.6 212.7C171.2 212.6 171.1 210.8 171.4 208.6C171.7 206.4 172.4 204.6 172.8 204.7C173.2 204.7 173.2 206.3 172.9 208.5C172.6 210.7 172.1 212.7 171.6 212.7Z" fill="#4C230C"/>
<path d="M233 375.447C245.992 388.784 267.441 381.868 276.634 374.459C305.559 351.366 258.616 311.109 254.694 319.012C251.507 325.557 248.443 331.485 245.747 336.671C242.438 342.846 233 375.447 233 375.447Z" fill="#3D3C3C"/>
<path d="M356.954 126.114C357.439 131.978 353.917 145.173 355.374 152.626C356.225 157.024 357.682 165.332 355.86 169.242C352.945 175.595 347.964 176.695 346.749 178.283C339.704 188.301 334.237 222.266 331.079 228.986C325.855 239.982 306.297 225.321 308.119 221.411C323.183 188.912 332.294 173.885 335.573 168.387C335.573 168.387 347.235 132.834 349.3 128.802C350.637 126.236 356.589 121.105 356.954 126.114Z" fill="#ECAD83"/>
<path d="M313.625 266.155C320.722 253.957 326.595 242.004 331 230.66C323.536 232.124 311.422 226.025 308.363 222C306.406 225.903 289.153 255.299 289.153 255.299C283.769 264.569 251.099 319.213 245.96 338.363C244.492 343.242 243.513 347.755 243.023 351.415C241.922 358.733 280.221 370.565 285.482 362.026C292.701 341.657 298.697 301.405 301.267 291.891C304.081 282.377 313.625 266.155 313.625 266.155Z" fill="#3D3C3C"/>
<path d="M354.817 170.296C353.471 168.459 336.708 175.441 329.978 183.526C327.286 186.711 321.903 190.263 321.903 190.263C292.66 210.964 273.694 219.294 273.694 219.294C251.058 231.054 203.217 246.855 196.12 253.592C189.146 260.207 200.892 275.886 209.457 271.109C219.613 267.802 226.587 264.739 237.721 258.002C260.235 246.733 275.04 236.811 282.259 232.523C294.128 225.419 328.021 198.47 328.021 198.47C328.021 198.47 332.915 197.123 335.362 195.163C339.767 191.733 342.826 188.303 345.518 183.893C349.8 177.646 356.163 172.134 354.817 170.296Z" fill="#F6BB92"/>
</svg>
