<svg width="500" height="500" viewBox="0 0 500 500" fill="none" xmlns="http://www.w3.org/2000/svg">
<path d="M356.54 312.196C356.886 311.882 357.147 311.501 357.337 311.078C358.611 308.231 359.973 305.412 360.798 302.393C362.481 296.222 363.257 289.932 362.657 283.547C362.216 278.845 361.147 274.269 359.175 269.93C358.329 268.064 357.482 266.208 356.409 264.458C355.983 263.76 355.626 263.026 354.97 262.49C354.748 262.306 354.635 261.985 354.476 261.728C353.76 261.671 353.291 261.153 352.765 260.775C350.035 258.835 347.026 257.449 343.9 256.316C340.404 255.05 336.858 253.91 333.186 253.254C331.687 252.986 330.212 252.601 328.681 252.457C327.774 252.372 326.847 252.305 325.961 252.118C325.097 251.935 324.24 251.846 323.382 251.906C322.493 251.966 321.682 251.557 320.807 251.596C318.927 251.681 317.025 251.37 315.163 251.864C314.923 251.928 314.655 251.885 314.397 251.889C313.734 251.903 313.088 251.956 312.429 252.104C311.342 252.351 310.217 252.425 309.105 252.573C308.94 252.901 308.714 253.141 308.358 253.289C303.849 255.173 299.746 257.773 295.71 260.49C295.456 260.662 295.185 260.821 294.973 261.036C293.985 262.045 292.736 262.631 291.512 263.269C272.378 273.271 253.246 283.279 234.112 293.287C231.801 294.497 229.48 295.69 227.173 296.914C226.566 297.235 225.97 297.418 225.271 297.337C219.581 296.653 214.042 297.605 208.571 299.009C202.316 300.611 196.252 302.784 190.395 305.501C188.452 306.4 186.543 307.413 184.723 308.538C175.399 314.313 166.53 320.698 158.603 328.318C154.906 331.871 151.477 335.66 148.376 339.752C147.515 340.888 146.478 341.893 145.501 342.937C145.377 343.071 145.138 343.1 144.951 343.174C145.187 343.516 145.483 343.791 145.832 344.017C148.933 346.003 151.833 348.271 154.846 350.385C156.31 351.411 157.827 352.364 159.27 353.422C161.327 354.932 163.288 356.572 165.496 357.867C165.623 357.828 165.747 357.793 165.874 357.754L165.944 357.666L166.047 357.708C166.84 357.684 167.521 357.338 168.213 356.996C177.688 352.268 187.164 347.541 196.643 342.821C204.334 338.99 212.031 335.173 219.722 331.338C220.325 331.038 220.911 330.798 221.602 330.756C222.153 330.724 222.699 330.516 223.239 330.368C236.892 326.593 250.551 322.85 264.193 319.03C271.337 317.029 278.576 315.428 285.776 313.674C293.675 311.755 301.588 309.882 309.497 308.002C311.286 307.575 313.088 307.194 314.88 306.792C315.508 306.375 316.122 306.545 316.764 306.799C321.453 308.665 326.148 310.517 330.844 312.373C331.697 312.711 332.533 313.082 333.285 313.618C334.752 314.144 336.195 314.719 337.568 315.463C337.963 315.297 338.224 314.976 338.485 314.662C339.945 312.884 341.473 311.166 342.824 309.293C344.203 307.381 344.471 307.353 346.997 307.547C347.198 307.561 347.392 307.645 347.59 307.698C349.181 308.122 350.694 308.732 352.099 309.589C353.146 310.228 354.205 310.852 355.164 311.625C355.559 311.946 355.986 312.246 356.544 312.2H356.54V312.196Z" fill="#696C65"/>
<path d="M352.793 253.752C352.602 252.391 352.437 251.022 352.214 249.664C351.004 242.298 349.784 234.932 348.56 227.569C347.067 218.591 345.579 209.613 344.072 200.638C343.437 196.856 342.862 193.064 342.097 189.307C341.515 186.449 340.971 183.588 340.481 180.717C340.421 180.364 340.361 180.011 340.322 179.655C340.132 177.926 340.029 176.19 339.68 174.479C339.317 172.709 339.507 170.913 339.497 169.128C339.483 166.828 339.624 164.524 339.603 162.224C339.55 156.544 339.267 150.872 338.982 145.202C338.855 142.648 338.71 140.091 338.393 137.554C338.026 134.615 337.518 131.691 336.932 128.781C336.114 124.72 335.232 120.677 334.198 116.666C333.803 115.132 333.373 113.604 332.889 112.098C331.094 106.496 329.665 100.791 328.151 95.1114C327.164 91.3966 326.613 87.6007 325.897 83.8365C325.82 83.4273 325.728 83.0393 325.544 82.6724C324.969 82.4607 324.398 82.302 323.773 82.2596C322.507 82.1785 321.244 82.0339 319.978 81.9033C318.309 81.7305 316.644 81.5364 314.975 81.3742C313.557 81.2366 312.135 81.159 310.721 81.0037C308.195 80.725 305.665 80.4569 303.122 80.4005C302.765 80.3934 302.392 80.4217 302.06 80.3229C301.474 80.15 300.956 80.3405 300.416 80.4746C299.919 81.1096 299.781 81.8363 299.767 82.6301C299.742 83.9706 299.964 85.2829 300.106 86.6059C300.55 90.7757 301.04 94.942 301.527 99.1083C301.961 102.816 302.413 106.524 302.868 110.231C303.33 113.989 303.813 117.742 304.275 121.499C304.737 125.256 305.175 129.017 305.637 132.774C306.092 136.482 306.572 140.182 307.031 143.89C307.489 147.598 307.93 151.305 308.382 155.013C308.629 157.045 308.872 159.077 309.13 161.106C309.246 162.026 309.246 162.933 309.098 163.854C308.801 165.674 308.364 167.438 307.778 169.198C306.614 172.691 305.761 176.279 304.984 179.877C304.297 183.077 303.707 186.298 303.266 189.543C303.058 191.064 302.981 192.598 302.801 194.122C302.451 197.103 302.931 200.042 303.263 202.984C303.736 207.15 304.237 211.317 304.73 215.483C305.164 219.141 305.612 222.796 306.046 226.454C306.413 229.552 306.766 232.653 307.136 235.754C307.553 239.257 307.983 242.763 308.413 246.266C308.431 246.411 308.526 246.545 308.583 246.686C310.985 245.917 313.451 245.656 315.963 245.737C316.577 245.758 317.191 245.78 317.801 245.737C319.798 245.585 321.752 246.178 323.745 246.072C324.627 246.379 325.587 246.217 326.458 246.446C327.502 246.718 328.575 246.767 329.619 246.919C331.834 247.236 334.018 247.695 336.202 248.147C338.643 248.651 341.049 249.304 343.448 249.988C345.759 250.648 348.009 251.435 350.161 252.507C351.026 252.937 351.907 253.34 352.782 253.752H352.793Z" fill="#696C65"/>
<path d="M356.539 312.197C355.978 312.246 355.555 311.943 355.16 311.622C354.2 310.849 353.142 310.225 352.094 309.586C350.69 308.729 349.177 308.115 347.586 307.695C347.388 307.643 347.194 307.558 346.993 307.544C344.467 307.353 344.196 307.378 342.82 309.29C341.472 311.16 339.941 312.881 338.481 314.659C338.223 314.973 337.959 315.294 337.563 315.46C337.133 316.155 336.657 316.804 336.117 317.425C335.351 318.307 334.688 319.267 334.424 320.455C334.29 321.052 334.064 321.627 333.842 322.198C333.401 323.32 333.514 324.361 334.078 325.43C335.842 328.774 337.553 332.147 339.285 335.508C339.38 335.688 339.479 335.868 339.578 336.048C340.506 337.703 341.176 339.446 341.553 341.312C341.998 343.502 342.506 345.683 342.986 347.866C343.201 348.858 343.554 349.835 343.367 350.879C343.963 351.528 343.966 352.378 344.143 353.169C344.675 355.56 345.31 357.935 345.667 360.365C346.249 361.741 346.418 363.223 346.753 364.659C347.745 368.931 348.641 373.224 349.597 377.503C350.408 381.137 351.251 384.763 352.084 388.394C352.13 388.591 352.204 388.785 352.239 388.986C352.288 389.261 352.094 389.505 351.823 389.494C351.519 389.484 351.216 389.445 350.913 389.399C349.907 389.244 348.902 388.969 347.893 388.947C346.051 388.902 344.238 388.489 342.393 388.57C342.188 388.577 341.984 388.57 341.779 388.542C339.299 388.224 336.801 388.097 334.307 387.963C333.803 387.935 333.274 388.02 332.833 387.67C332.628 387.691 332.423 387.744 332.222 387.734C329.52 387.586 326.821 387.43 324.119 387.272C324.017 387.265 323.918 387.222 323.819 387.219C323.092 387.194 322.704 386.778 322.577 386.1C322.016 383.07 320.817 380.248 319.78 377.366C318.916 374.956 317.582 372.899 315.723 371.146C312.918 368.5 308.311 367.04 304.092 368.895C302.314 369.679 300.553 370.49 298.839 371.393C298.119 371.771 297.421 372.219 296.786 372.723C295.431 373.806 294.133 374.963 292.789 376.06C290.693 377.771 288.587 379.468 286.463 381.147C285.663 381.779 284.805 382.347 283.786 382.583C283.698 382.767 283.542 382.947 283.535 383.13C283.514 383.963 283.176 384.707 282.936 385.48C282.516 386.841 282.389 388.256 282.279 389.667C282.234 390.27 282.244 390.902 282.382 391.484C282.512 392.038 282.562 392.581 282.576 393.142C282.586 393.498 282.583 393.858 282.657 394.204C283.024 395.939 283.468 397.65 284.05 399.337C285.148 402.512 286.806 405.316 289.212 407.673C289.392 407.849 289.575 408.033 289.723 408.237C289.829 408.382 289.73 408.516 289.6 408.611C291.734 409.433 293.769 410.513 296.013 411.049C297.107 411.31 298.2 411.515 299.319 411.663C303.654 412.238 308.001 411.843 312.343 411.924C314.643 411.966 316.961 411.818 319.247 412.016C323.537 412.386 327.837 412.072 332.12 412.326C337.179 412.626 342.248 412.347 347.297 412.647C351.897 412.922 356.497 412.725 361.094 412.908C363.655 413.01 365.93 412.231 368.075 410.961C370.7 409.409 372.961 407.415 374.75 404.946C375.875 403.394 376.542 401.623 376.605 399.668C376.634 398.8 376.616 397.94 376.817 397.079C376.93 396.592 376.941 396.038 376.828 395.555C376.605 394.592 376.63 393.625 376.584 392.659C376.535 391.583 376.295 390.535 376.002 389.505C375.163 386.559 374.323 383.613 373.455 380.675C373.109 379.5 372.675 378.353 372.298 377.186C370.986 373.153 369.645 369.132 368.386 365.082C367.264 361.477 366.241 357.836 365.158 354.216C364.692 352.65 364.184 351.094 363.704 349.535C362.336 345.093 361.009 340.638 359.58 336.218C359.136 334.838 359.302 333.529 359.489 332.164C359.75 330.245 360.215 328.358 360.339 326.417C360.399 325.454 360.617 324.502 360.737 323.539C360.917 322.071 361.055 320.6 361.249 319.136C361.425 317.795 360.949 316.765 359.958 315.873C358.97 314.984 358.06 314.01 357.107 313.079C356.846 312.825 356.603 312.571 356.55 312.193H356.539V312.197Z" fill="#F7BB92"/>
<path d="M283.778 382.587C284.801 382.35 285.655 381.786 286.456 381.151C288.58 379.472 290.686 377.775 292.781 376.064C294.125 374.967 295.42 373.809 296.778 372.726C297.413 372.218 298.112 371.774 298.831 371.396C300.549 370.493 302.306 369.682 304.084 368.899C308.303 367.043 312.914 368.504 315.715 371.15C317.574 372.903 318.908 374.963 319.772 377.369C320.806 380.248 322.005 383.073 322.57 386.104C322.697 386.781 323.081 387.194 323.812 387.222C323.914 387.226 324.013 387.268 324.111 387.275C326.814 387.43 329.513 387.589 332.215 387.737C332.416 387.748 332.62 387.695 332.825 387.674C333.986 385.924 334.963 384.075 335.813 382.156C338.424 376.272 341.045 370.391 343.68 364.514C344.305 363.117 344.813 361.66 345.659 360.369C345.303 357.938 344.668 355.567 344.135 353.172C343.959 352.382 343.955 351.532 343.359 350.879C341.951 350.311 340.537 349.764 339.147 349.164C338.41 348.847 337.559 348.79 336.928 348.222C336.49 348.085 336.042 347.976 335.619 347.81C330.775 345.919 325.935 344.014 321.092 342.123C315.112 339.788 309.125 337.463 303.142 335.131C302.119 335.512 301.043 335.579 299.974 335.657C296.849 335.882 293.794 336.471 290.774 337.283C289.74 337.562 288.724 337.914 287.708 338.267C286.773 338.588 286.043 339.241 285.26 339.819C283.045 341.463 281.559 343.594 280.748 346.229C280.035 348.533 279.541 350.879 279.192 353.26C278.356 359.01 278.356 364.789 278.649 370.571C278.783 373.224 279.15 375.863 279.414 378.509C279.598 379.292 279.781 380.071 279.961 380.854C280.497 381.123 281.037 381.384 281.566 381.666C282.275 382.043 282.977 382.428 283.775 382.587H283.778Z" fill="#8A8AD9"/>
<path d="M279.965 380.853C279.781 380.07 279.598 379.287 279.418 378.507C278.836 378.391 278.434 377.967 277.996 377.632C276.652 376.613 275.361 375.526 274.013 374.514C273.562 374.175 273.35 373.815 273.311 373.251C273.17 371.296 272.69 369.423 271.844 367.652C271.247 366.403 270.552 365.218 269.642 364.167C268.951 363.369 268.094 362.84 267.102 362.516C265.345 361.944 263.546 361.602 261.694 361.556C260.773 361.535 259.863 361.514 258.953 361.306C257.969 361.08 257.249 360.582 256.914 359.64C256.378 358.138 255.372 356.878 254.819 355.379C254.614 354.829 254.124 354.377 253.746 353.894C253.584 353.686 253.33 353.604 253.069 353.576C252.24 353.484 251.45 353.481 250.755 354.084C249.908 354.822 248.994 355.481 248.158 356.233C246.525 357.704 244.927 359.214 243.311 360.709C243.159 360.847 243.018 360.995 242.866 361.133C242.087 361.852 241.222 362.304 240.101 362.156C237.659 361.842 235.204 361.881 232.752 361.884C231.683 361.884 230.6 361.764 229.549 362.078C229.669 362.858 230.068 363.514 230.487 364.156C232.213 366.805 233.92 369.469 235.687 372.094C238.139 375.731 240.468 379.456 243.131 382.949C243.48 383.407 243.688 383.912 243.837 384.458C244.916 388.445 246.02 392.424 247.082 396.414C247.527 398.086 248.084 399.737 248.218 401.48C250.705 401.12 253.228 401.342 255.711 401.099C258.011 400.873 260.304 400.937 262.601 400.841C263.377 400.81 264.114 400.951 264.859 401.177C269.843 402.683 274.835 404.158 279.824 405.653C280.324 405.802 280.822 405.851 281.337 405.837C281.161 405.41 280.945 405.015 280.66 404.648C279.051 402.584 277.742 400.365 277.068 397.804C276.694 396.375 276.345 394.95 276.416 393.451C276.458 392.534 276.433 391.613 276.423 390.692C276.384 388.011 276.91 385.446 277.94 382.973C278.349 381.993 278.917 381.199 279.968 380.849L279.965 380.853Z" fill="#F7BB92"/>
<path d="M165.496 357.857C163.284 356.562 161.326 354.921 159.27 353.412C157.827 352.353 156.31 351.401 154.846 350.374C151.833 348.261 148.933 345.993 145.832 344.006C145.483 343.784 145.187 343.506 144.95 343.163C144.485 342.652 143.797 342.719 143.232 342.648C139.613 342.186 136.279 342.807 133.697 345.636C132.257 347.21 131.375 349.118 130.807 351.161C130.204 353.323 129.654 355.503 129.093 357.677C128.387 360.397 127.65 363.106 127.001 365.84C126.119 369.565 125.223 373.291 124.5 377.048C124.031 379.496 123.614 381.962 123.364 384.456C123.184 386.245 123.085 388.019 123.089 389.808C123.089 390.531 123.258 391.222 123.406 391.924C123.558 392.64 123.978 393.159 124.588 393.445C125.847 394.037 127.142 394.136 128.387 393.371C129.495 392.69 130.335 391.702 131.157 390.735C131.855 389.914 132.589 389.134 133.337 388.368C135.125 386.537 136.939 384.731 138.734 382.904C141.348 380.24 144.015 377.626 146.707 375.04C147.885 373.908 149.169 372.892 150.404 371.82C151.293 371.05 152.136 370.232 153.054 369.491C154.285 368.496 155.389 367.35 156.595 366.32C159.711 363.656 162.494 360.647 165.493 357.857H165.496Z" fill="#F7BB93"/>
<path d="M248.222 401.485C248.088 399.742 247.531 398.091 247.086 396.419C246.025 392.429 244.917 388.45 243.841 384.463C243.693 383.913 243.481 383.408 243.135 382.953C240.475 379.457 238.144 375.735 235.692 372.098C233.924 369.477 232.217 366.814 230.492 364.161C230.076 363.519 229.677 362.863 229.553 362.083C228.957 361.758 228.365 361.9 227.768 362.079C226.735 362.393 225.768 362.852 224.83 363.378C222.508 364.676 220.229 366.024 218.36 367.974C215.767 370.68 213.865 373.795 212.736 377.362C211.844 380.177 211.565 383.08 211.939 386.008C212.105 387.314 212.306 388.651 212.899 389.854C213.135 390.33 212.878 390.626 212.687 390.972C213.463 390.993 214.013 391.328 214.412 392.023C215.527 393.974 216.931 395.727 218.441 397.371C220.021 399.093 221.626 400.815 223.602 402.123C224.406 402.656 225.2 403.206 225.973 403.788C226.498 404.187 227.049 404.607 226.964 405.397C228.347 405.764 229.719 406.166 231.113 406.487C234.178 407.196 237.251 407.069 240.197 406.032C242.405 405.256 244.585 404.339 246.575 403.051C247.231 402.628 247.803 402.134 248.229 401.481H248.222V401.485Z" fill="#7A4821"/>
<path d="M300.419 80.4771C300.959 80.343 301.478 80.149 302.063 80.3254C302.395 80.4242 302.769 80.396 303.125 80.403C305.669 80.4595 308.198 80.7276 310.724 81.0063C312.139 81.1615 313.56 81.2391 314.978 81.3767C316.647 81.5389 318.312 81.733 319.981 81.9058C321.244 82.0364 322.507 82.1845 323.777 82.2621C324.401 82.301 324.976 82.4632 325.548 82.6749C325.862 81.285 326.225 79.9056 326.472 78.5051C326.807 76.6001 327.114 74.6845 327.326 72.7618C327.703 69.2975 326.909 66.1684 324.472 63.5614C321.882 60.7991 319.173 58.1674 316.227 55.7826C314.442 54.3362 312.742 52.7875 310.999 51.2917C309.715 50.1946 308.339 49.228 306.886 48.3672C305.39 47.4782 303.711 47.2171 302.042 47.0972C301.107 47.0302 300.116 47.3336 299.23 47.7463C298.073 48.2825 296.884 48.7905 295.808 49.4679C294.419 50.3463 293.311 51.5775 292.362 52.9145C291.766 53.7576 291.483 54.7525 291.476 55.8038C291.469 56.9785 291.413 58.1603 291.476 59.3315C291.589 61.4376 292.147 63.4555 292.887 65.4205C294.172 68.8248 295.964 71.9787 297.685 75.1713C298.218 76.1591 298.74 77.1574 299.223 78.1734C299.594 78.9566 300.19 79.6198 300.423 80.4736L300.419 80.4771Z" fill="#F7BB92"/>
<path d="M303.146 335.131C309.129 337.459 315.112 339.788 321.095 342.123C325.939 344.014 330.779 345.919 335.623 347.81C336.05 347.976 336.498 348.089 336.932 348.223C336.907 347.817 336.967 347.379 336.84 347.013C336.537 346.141 336.374 345.245 336.173 344.353C335.729 342.37 335.231 340.402 334.847 338.408C334.663 337.459 334.342 336.535 334.226 335.586C334.127 334.782 333.81 334.15 333.383 333.501C331.601 330.774 329.707 328.118 328.109 325.271C327.579 324.325 327.558 323.489 328.133 322.562C329.717 320.011 331.248 317.425 332.839 314.878C333.093 314.469 333.294 314.091 333.277 313.612C332.525 313.075 331.689 312.701 330.836 312.366C326.14 310.511 321.448 308.659 316.756 306.792C316.114 306.538 315.504 306.369 314.872 306.785C314.153 308.63 313.461 310.489 312.706 312.32C310.939 316.603 309.157 320.879 307.348 325.144C306.215 327.814 305.026 330.464 303.855 333.12C303.566 333.773 303.294 334.429 303.143 335.131H303.146Z" fill="#F6BB92"/>
<path d="M211.929 391.205C210.073 391.166 208.27 391.483 206.485 391.963C199.088 393.953 192.342 397.255 186.31 401.993C185.749 402.434 185.202 402.906 184.719 403.432C183.879 404.349 183.932 405.157 184.687 406.177C185.326 407.037 186.105 407.418 187.185 407.348C189.838 407.171 192.494 407.041 195.147 406.903C196.015 406.857 196.883 406.805 197.751 406.822C203.684 406.928 209.611 406.688 215.541 406.558C217.637 406.512 219.732 406.434 221.828 406.519C223.069 406.568 224.269 406.342 225.401 405.803C225.07 405.683 224.692 405.626 224.41 405.432C222.403 404.06 220.353 402.741 218.624 401.001C217.083 399.453 215.682 397.784 214.342 396.066C213.305 394.74 212.631 393.191 211.957 391.656C211.901 391.526 211.936 391.356 211.929 391.201V391.205Z" fill="#7A4922"/>
<path d="M352.792 253.751C351.918 253.335 351.039 252.936 350.171 252.506C348.019 251.433 345.769 250.647 343.458 249.987C341.059 249.303 338.653 248.646 336.212 248.145C334.028 247.694 331.844 247.235 329.629 246.918C328.581 246.766 327.512 246.72 326.468 246.445C325.597 246.216 324.637 246.382 323.755 246.071C321.762 246.177 319.808 245.584 317.811 245.736C317.201 245.782 316.583 245.757 315.973 245.736C313.461 245.655 310.995 245.916 308.593 246.685C308.628 247.087 308.625 247.496 308.706 247.891C309.03 249.437 309.126 250.996 309.101 252.569C310.209 252.421 311.334 252.347 312.424 252.1C313.084 251.952 313.729 251.899 314.393 251.885C314.647 251.878 314.918 251.924 315.158 251.86C317.021 251.363 318.922 251.677 320.802 251.592C321.677 251.553 322.489 251.962 323.378 251.902C324.239 251.846 325.092 251.934 325.957 252.114C326.842 252.301 327.77 252.368 328.677 252.453C330.208 252.594 331.682 252.982 333.181 253.25C336.854 253.906 340.399 255.046 343.895 256.312C347.021 257.445 350.03 258.831 352.761 260.771C353.286 261.145 353.756 261.667 354.472 261.724C354.246 260.641 354.027 259.554 353.798 258.475C353.466 256.901 353.128 255.328 352.792 253.751Z" fill="#4B4C47"/>
<path d="M279.965 380.854C278.914 381.203 278.346 381.997 277.936 382.977C276.906 385.45 276.381 388.015 276.419 390.696C276.434 391.617 276.455 392.538 276.412 393.455C276.345 394.954 276.691 396.379 277.065 397.808C277.735 400.369 279.044 402.592 280.656 404.652C280.946 405.019 281.157 405.417 281.334 405.841C281.644 406.017 281.937 406.271 282.269 406.356C284.551 406.938 286.752 407.767 288.989 408.494C289.183 408.557 289.391 408.575 289.589 408.614C289.719 408.518 289.818 408.381 289.712 408.24C289.564 408.035 289.381 407.855 289.201 407.675C286.795 405.319 285.14 402.514 284.039 399.339C283.457 397.656 283.013 395.945 282.646 394.206C282.572 393.86 282.575 393.501 282.565 393.144C282.551 392.583 282.505 392.04 282.371 391.486C282.233 390.904 282.223 390.269 282.269 389.669C282.378 388.258 282.501 386.844 282.925 385.482C283.165 384.706 283.503 383.965 283.524 383.132C283.528 382.949 283.687 382.766 283.775 382.586C282.978 382.427 282.272 382.046 281.567 381.665C281.037 381.383 280.498 381.125 279.961 380.854H279.965Z" fill="#DDA882"/>
<path d="M211.928 391.204C211.935 391.356 211.9 391.529 211.957 391.659C212.63 393.194 213.304 394.743 214.341 396.069C215.682 397.784 217.082 399.456 218.624 401.004C220.356 402.744 222.402 404.063 224.41 405.435C224.692 405.629 225.069 405.686 225.401 405.806C225.973 405.873 226.442 405.555 226.953 405.404C227.038 404.613 226.488 404.194 225.962 403.795C225.193 403.213 224.399 402.663 223.591 402.13C221.616 400.825 220.011 399.099 218.43 397.378C216.92 395.734 215.513 393.981 214.401 392.03C214.006 391.335 213.456 390.996 212.676 390.979C212.426 391.056 212.175 391.13 211.921 391.208H211.928V391.204Z" fill="#5C3718"/>
<path d="M166.043 357.701L165.941 357.658L165.874 357.746L165.976 357.785L166.043 357.701Z" fill="#F7BB93"/>
<path d="M333.277 313.611C333.295 314.091 333.094 314.469 332.84 314.878C331.249 317.425 329.721 320.011 328.134 322.561C327.559 323.489 327.58 324.325 328.109 325.271C329.707 328.118 331.602 330.774 333.383 333.501C333.81 334.154 334.127 334.785 334.226 335.586C334.343 336.535 334.664 337.459 334.847 338.408C335.232 340.401 335.729 342.37 336.174 344.352C336.375 345.245 336.533 346.141 336.84 347.012C336.971 347.383 336.907 347.817 336.932 348.222C337.563 348.787 338.414 348.847 339.151 349.164C340.544 349.764 341.959 350.311 343.363 350.879C343.55 349.835 343.197 348.857 342.982 347.866C342.506 345.682 341.998 343.502 341.55 341.312C341.172 339.445 340.502 337.703 339.574 336.048C339.476 335.868 339.373 335.692 339.282 335.508C337.549 332.146 335.838 328.774 334.075 325.429C333.51 324.357 333.397 323.32 333.838 322.198C334.06 321.63 334.29 321.051 334.42 320.455C334.685 319.27 335.348 318.307 336.114 317.425C336.653 316.804 337.13 316.155 337.56 315.46C336.188 314.716 334.741 314.14 333.277 313.615V313.611Z" fill="#DDA781"/>
</svg>
