<svg width="497" height="497" viewBox="0 0 497 497" fill="none" xmlns="http://www.w3.org/2000/svg">
<path d="M107.1 381.672C105.662 378.037 120.226 369.715 121.759 367.132C122.526 365.889 122.43 363.401 125.113 361.393C128.658 358.714 132.586 360.149 133.832 359.192C139.964 354.123 155.294 337.573 162.768 331.547C164.492 330.112 166.696 328.486 168.612 327.051C176.277 321.407 183.272 340.252 180.301 341.974C168.325 348.957 139.868 367.323 135.269 369.332C135.269 369.332 122.526 377.846 119.364 379.472C117.543 380.429 108.537 385.307 107.1 381.672Z" fill="#ECAD83"/>
<path d="M194.735 310.275C185.179 315.627 176.38 321.264 169 327.093C171.744 328.909 179.597 339.229 180.543 342C183.382 340.184 206.562 327.38 206.562 327.38C212.429 324.131 238.448 308.269 256.52 296.802C261.156 293.84 265.035 291.929 268.82 289.54C271.753 286.864 273.74 283.806 275.632 281.513C279.227 277.022 255.384 255.235 251.883 258.293C240.151 269.282 218.862 292.693 213.186 297.949C207.603 303.3 194.735 310.275 194.735 310.275Z" fill="#333333"/>
<path d="M277.498 285.691C277.498 285.691 281.514 278.295 282.566 271.774C284.861 258.247 277.307 249.585 277.307 249.585C277.307 249.585 247.95 241.994 246.994 248.904C245.082 262.042 243.169 272.358 242.022 278.781C241.257 283.063 260.955 289 260.955 289L277.498 285.691Z" fill="#3D3C3C"/>
<path d="M238.073 346.526C237.692 358.274 238.455 364.673 248.943 375.466C250.183 376.708 253.234 379 256.285 379C259.337 379 266.393 379 269.635 375.466C272.114 372.792 282.126 367.443 278.026 345.476C276.786 335.256 272.019 297.052 277.644 285.686C277.644 285.686 264.581 286.927 256.953 285.017C249.325 283.107 242.364 279 242.364 279C239.694 314.626 244.08 326.278 242.364 338.026C242.269 337.93 238.168 343.279 238.073 346.526Z" fill="#FF8AA0"/>
<path d="M239.286 360.674C237.667 361.419 237.095 360.86 235.952 359L229 372.674C237 372.209 249 375 249 375C249 375 245.952 372.116 243.095 368.023C240.238 363.93 239.286 360.674 239.286 360.674Z" fill="#ECAD83"/>
<path d="M213.22 344.219C208.16 340.773 203.387 343.358 200.618 345.177C192.217 350.921 191.644 356.665 192.121 363.942C192.694 373.611 218.376 375.813 222.672 374.76C233.747 371.888 237.183 356.187 236.993 349.772C236.802 342.783 234.51 344.698 231.742 345.081C231.646 345.081 231.169 344.794 231.169 344.794C230.214 344.794 228.877 344.985 227.636 344.411C227.636 344.411 226.777 344.698 226.3 344.794C226.013 344.794 225.822 344.794 225.631 344.507C225.25 343.549 224.868 342.592 224.39 342.209C223.054 340.964 215.512 345.751 213.22 344.219Z" fill="#F6BB92"/>
<path d="M228.857 349C228.857 349 229.08 348.255 228.969 344.743C228.857 344.317 228.577 343.572 228.074 344.317C227.739 344.743 228.633 346.552 228.857 349Z" fill="#D6876B"/>
<path d="M229 349C229 349 230.455 348.16 231 344.904C230.909 344.484 230.545 344.169 230.455 344.064C229.545 343.749 229.182 344.694 229.182 344.694C229.364 348.265 229 349 229 349Z" fill="#CC785E"/>
<path d="M190.069 364.976C190.75 376.713 209.019 391.288 228.455 374.157C229.719 373.021 231.274 370.466 228.261 366.964C226.123 364.503 223.402 362.894 223.402 362.894C222.625 362.421 221.653 361.948 220.681 361.38C219.612 360.812 213.684 361.853 213.49 360.717C210.963 349.359 204.452 344.816 201.245 345.006C193.762 346.899 189.389 352.483 190.069 364.976Z" fill="#602F0F"/>
<path d="M220.197 365.219C225.192 363.156 225.284 361 224.822 358L217.052 360.156L214 361.938C214.37 364.938 215.202 367.281 220.197 365.219Z" fill="#F6BB92"/>
<path d="M209.356 382.335C207.199 385.218 201.48 384.257 196.697 380.221C191.915 376.185 189.665 370.42 191.821 367.537C193.978 364.654 198.291 365.999 203.167 370.131C207.949 374.167 211.513 379.453 209.356 382.335Z" fill="#4C230C"/>
<path d="M214.814 359.558C213.859 359.749 213 359.844 212.331 359.844C211.281 359.844 210.708 359.749 210.708 359.749L212.14 363.091C212.618 363.091 213.191 362.995 213.668 362.995C213.668 362.995 213.573 362.613 213.286 362.04V362.136C214.05 361.658 215.196 360.99 216.915 360.322C216.819 360.322 217.679 358.889 214.814 359.558Z" fill="#602F0F"/>
<path d="M209.371 384.48C207.079 387.536 200.777 386.39 195.429 381.998C189.986 377.509 187.503 371.494 189.89 368.438C192.182 365.382 196.957 366.91 202.4 371.398C207.747 375.695 211.758 381.425 209.371 384.48Z" fill="#602F0F"/>
<path d="M198.963 382.91C198.677 383.287 197.149 382.438 195.526 381.117C193.903 379.795 192.758 378.38 193.044 378.097C193.33 377.719 194.572 378.474 196.195 379.89C197.818 381.117 199.25 382.532 198.963 382.91Z" fill="#4C230C"/>
<path d="M326.635 368.343C321.765 367.197 313.743 365.956 313.743 365.956C307.25 364.714 297.51 362.613 291.589 361.563C282.04 359.558 266.093 355.738 261.509 357.648C255.875 360.035 253.966 369.775 259.791 373.022C262.178 374.263 266.379 375.696 272.395 375.791C288.725 376.269 312.215 379.42 318.995 378.56C322.911 378.083 325.489 377.128 326.253 376.269C327.017 375.409 327.781 372.926 327.112 369.584C326.921 369.393 326.826 368.916 326.635 368.343Z" fill="#F6BB92"/>
<path d="M276.12 338.357C280.226 346.856 305.818 362.039 309.351 366.432C312.884 370.825 319.473 377.318 320.237 377.986C320.905 377.604 321.574 377.318 322.051 376.936C325.394 374.931 326.348 372.734 326.635 371.684C326.635 371.684 327.303 370.252 326.73 368.628C324.152 360.798 284.141 338.357 284.141 338.357H276.12Z" fill="#F6BB92"/>
<path d="M276.12 338.359C276.12 338.549 278.411 339.122 285.191 338.931C285.191 338.931 284.523 338.549 284.141 337.977C283.472 337.117 282.804 328.523 282.613 326.422C282.422 324.512 280.226 321.934 279.653 320.597C278.507 317.923 277.456 316.109 276.406 314.199C276.215 313.913 275.642 312.385 275.356 312.385C275.356 312.385 275.738 320.884 275.929 326.422C276.024 328.236 274.687 328.523 274.687 328.523C274.496 330.242 274.305 331.674 274.019 332.629L276.12 338.359Z" fill="#F6BB92"/>
<path d="M274.496 328.523C274.496 328.523 273.637 323.748 271.059 323.939C268.958 324.13 268.194 324.321 274.114 333.297C274.114 333.393 275.547 332.82 274.496 328.523Z" fill="#F6BB92"/>
<path d="M265.329 82.0586C269.149 83.0135 267.334 99.6291 268.48 102.398C269.053 103.831 271.154 105.168 271.154 108.51C271.25 112.902 267.716 115.29 267.812 116.818C268.385 124.743 272.777 146.802 273.255 156.351C273.35 158.547 273.446 161.317 273.446 163.704C273.446 173.158 254.157 167.81 254.539 164.372C255.875 150.622 257.69 116.913 258.74 112.043C258.74 112.043 259.313 96.8598 259.791 93.2311C260.173 91.1303 261.509 81.0082 265.329 82.0586Z" fill="#F6BB92"/>
<path d="M271.871 194.737C273.202 183.827 273.773 173.487 273.487 164C270.349 165.138 257.511 165.518 254.658 164.664C254.468 168.079 251.044 194.358 251.044 194.358C249.998 202.706 243.246 251.658 245.433 266.932C245.814 270.917 246.574 274.332 247.335 277.178C248.857 282.775 279.764 279.55 281 271.865C279.954 255.168 271.966 224.526 270.92 216.842C269.969 209.252 271.871 194.737 271.871 194.737Z" fill="#3D3C3C"/>
</svg>
