<svg width="497" height="497" viewBox="0 0 497 497" fill="none" xmlns="http://www.w3.org/2000/svg">
<path d="M71.1314 411.232C69.2281 406.385 88.5152 395.289 90.5454 391.845C91.5605 390.187 91.4336 386.871 94.9865 384.192C99.6814 380.621 104.884 382.534 106.533 381.259C114.654 374.499 134.956 352.433 144.854 344.398C147.138 342.485 150.056 340.316 152.594 338.403C162.745 330.878 172.008 356.005 168.074 358.3C152.213 367.611 114.527 392.1 108.437 394.778C108.437 394.778 91.5605 406.13 87.3732 408.298C84.9623 409.574 73.0348 416.078 71.1314 411.232Z" fill="#ECAD83"/>
<path d="M187.394 315.702C174.622 322.837 162.863 330.354 153 338.126C156.667 340.547 167.162 354.307 168.426 358.002C172.22 355.581 203.2 338.509 203.2 338.509C211.04 334.177 245.813 313.027 269.965 297.738C276.161 293.788 281.345 291.24 286.403 288.055C290.323 284.488 292.979 280.41 295.508 277.353C300.313 271.364 268.447 242.315 263.769 246.393C248.089 261.044 219.638 292.259 212.051 299.267C204.591 306.402 187.394 315.702 187.394 315.702Z" fill="#333333"/>
<path d="M297.753 283.539C297.753 283.539 303.043 273.562 304.428 264.767C307.451 246.521 297.501 234.838 297.501 234.838C297.501 234.838 258.837 224.599 257.577 233.919C255.058 251.64 252.539 265.555 251.028 274.219C250.021 279.994 275.965 288.002 275.965 288.002L297.753 283.539Z" fill="#3D3C3C"/>
<path d="M245.098 363.812C244.586 379.437 245.609 387.948 259.68 402.302C261.342 403.953 265.436 407.002 269.529 407.002C273.622 407.002 283.087 407.002 287.436 402.302C290.762 398.745 304.193 391.631 298.693 362.415C297.03 348.822 290.634 298.011 298.181 282.894C298.181 282.894 280.657 284.545 270.424 282.005C260.191 279.464 250.854 274.002 250.854 274.002C247.272 321.384 253.156 336.882 250.854 352.506C250.726 352.379 245.226 359.493 245.098 363.812Z" fill="#FF8AA0"/>
<path d="M246.885 383.2C244.7 384.176 243.928 383.444 242.385 381.002L233 398.95C243.8 398.339 260 402.002 260 402.002C260 402.002 255.885 398.217 252.028 392.845C248.171 387.473 246.885 383.2 246.885 383.2Z" fill="#ECAD83"/>
<path d="M212.293 360.961C205.546 356.366 199.182 359.812 195.49 362.238C184.288 369.897 183.524 377.556 184.161 387.257C184.925 400.15 219.167 403.086 224.895 401.682C239.662 397.852 244.244 376.918 243.99 368.365C243.735 359.046 240.68 361.599 236.988 362.11C236.861 362.11 236.225 361.727 236.225 361.727C234.952 361.727 233.169 361.982 231.515 361.216C231.515 361.216 230.369 361.599 229.733 361.727C229.351 361.727 229.096 361.727 228.841 361.344C228.332 360.068 227.823 358.791 227.187 358.281C225.405 356.621 215.348 363.004 212.293 360.961Z" fill="#F6BB92"/>
<path d="M232.856 367.002C232.856 367.002 233.08 366.108 232.968 361.893C232.856 361.383 232.577 360.489 232.074 361.383C231.739 361.893 232.633 364.065 232.856 367.002Z" fill="#D6876B"/>
<path d="M233 367.002C233 367.002 235.181 365.994 236 362.087C235.863 361.583 235.318 361.205 235.181 361.079C233.818 360.701 233.272 361.835 233.272 361.835C233.545 366.12 233 367.002 233 367.002Z" fill="#CC785E"/>
<path d="M181.093 388.457C182.011 404 206.676 423.303 232.914 400.616C234.62 399.111 236.719 395.727 232.652 391.089C229.766 387.83 226.092 385.7 226.092 385.7C225.043 385.073 223.731 384.446 222.419 383.694C220.976 382.942 212.973 384.321 212.71 382.817C209.299 367.775 200.51 361.759 196.18 362.009C186.078 364.516 180.175 371.912 181.093 388.457Z" fill="#602F0F"/>
<path d="M221.45 388.928C228.261 386.092 228.387 383.127 227.756 379.002L217.162 381.967L213 384.416C213.504 388.541 214.639 391.764 221.45 388.928Z" fill="#F6BB92"/>
<path d="M207.152 411.782C204.314 415.626 196.788 414.345 190.496 408.964C184.204 403.582 181.243 395.895 184.08 392.051C186.918 388.207 192.593 390.001 199.009 395.511C205.301 400.892 209.99 407.939 207.152 411.782Z" fill="#4C230C"/>
<path d="M214.427 381.539C213.156 381.794 212.012 381.921 211.122 381.921C209.723 381.921 208.96 381.794 208.96 381.794L210.867 386.243C211.503 386.243 212.266 386.116 212.902 386.116C212.902 386.116 212.774 385.608 212.393 384.845V384.972C213.41 384.336 214.936 383.446 217.224 382.556C217.097 382.556 218.241 380.649 214.427 381.539Z" fill="#602F0F"/>
<path d="M207.181 414.721C204.13 418.789 195.739 417.264 188.619 411.415C181.373 405.44 178.067 397.431 181.246 393.362C184.297 389.294 190.653 391.328 197.9 397.304C205.02 403.025 210.359 410.653 207.181 414.721Z" fill="#602F0F"/>
<path d="M192.951 412.876C192.569 413.404 190.532 412.215 188.368 410.365C186.204 408.516 184.676 406.534 185.058 406.137C185.44 405.609 187.095 406.666 189.259 408.648C191.423 410.365 193.332 412.347 192.951 412.876Z" fill="#4C230C"/>
<path d="M363.305 393.23C356.821 391.704 346.142 390.052 346.142 390.052C337.496 388.399 324.529 385.602 316.646 384.203C303.933 381.534 282.702 376.448 276.599 378.991C269.098 382.169 266.556 395.137 274.311 399.459C277.489 401.112 283.083 403.019 291.093 403.146C312.832 403.782 344.107 407.977 353.134 406.833C358.346 406.198 361.779 404.926 362.796 403.782C363.813 402.638 364.83 399.332 363.94 394.883C363.686 394.628 363.559 393.993 363.305 393.23Z" fill="#F6BB92"/>
<path d="M296.05 353.311C301.517 364.625 335.589 384.84 340.293 390.688C344.997 396.536 353.769 405.181 354.786 406.071C355.676 405.563 356.566 405.181 357.202 404.673C361.651 402.003 362.923 399.079 363.304 397.68C363.304 397.68 364.194 395.773 363.431 393.612C359.999 383.187 306.73 353.311 306.73 353.311H296.05Z" fill="#F6BB92"/>
<path d="M296.05 353.309C296.05 353.563 299.102 354.326 308.128 354.072C308.128 354.072 307.238 353.563 306.73 352.8C305.84 351.656 304.95 340.214 304.695 337.417C304.441 334.875 301.517 331.442 300.754 329.662C299.229 326.102 297.83 323.687 296.432 321.144C296.177 320.763 295.415 318.729 295.033 318.729C295.033 318.729 295.542 330.043 295.796 337.417C295.923 339.833 294.143 340.214 294.143 340.214C293.889 342.503 293.635 344.41 293.253 345.681L296.05 353.309Z" fill="#F6BB92"/>
<path d="M293.889 340.217C293.889 340.217 292.745 333.861 289.312 334.115C286.515 334.369 285.498 334.623 293.381 346.574C293.381 346.701 295.288 345.938 293.889 340.217Z" fill="#F6BB92"/>
<path d="M281.684 12.0839C286.769 13.3552 284.353 35.4765 285.879 39.1634C286.642 41.0704 289.439 42.8502 289.439 47.2999C289.566 53.1481 284.862 56.3264 284.989 58.3606C285.752 68.9127 291.6 98.2806 292.236 110.994C292.363 113.918 292.49 117.605 292.49 120.783C292.49 133.369 266.809 126.25 267.318 121.673C269.097 103.366 271.513 58.4877 272.911 52.0039C272.911 52.0039 273.674 31.7896 274.31 26.9585C274.818 24.1616 276.598 10.6854 281.684 12.0839Z" fill="#F6BB92"/>
<path d="M290.827 162.073C292.602 147.496 293.363 133.678 292.983 121.002C288.798 122.523 271.681 123.03 267.877 121.889C267.623 126.453 263.058 161.566 263.058 161.566C261.664 172.722 252.661 238.132 255.577 258.541C256.084 263.865 257.099 268.428 258.113 272.231C260.142 279.71 301.351 275.4 303 265.132C301.605 242.822 290.954 201.877 289.559 191.609C288.291 181.468 290.827 162.073 290.827 162.073Z" fill="#3D3C3C"/>
</svg>
