<svg width="500" height="500" viewBox="0 0 500 500" fill="none" xmlns="http://www.w3.org/2000/svg">
<path d="M356.54 332.196C356.886 331.882 357.147 331.501 357.337 331.078C358.611 328.231 359.973 325.412 360.798 322.393C362.481 316.222 363.257 309.932 362.657 303.547C362.216 298.845 361.147 294.269 359.175 289.93C358.329 288.064 357.482 286.208 356.409 284.458C355.983 283.76 355.626 283.026 354.97 282.49C354.748 282.306 354.635 281.985 354.476 281.728C353.76 281.671 353.291 281.153 352.765 280.775C350.035 278.835 347.026 277.449 343.9 276.316C340.404 275.05 336.858 273.91 333.186 273.254C331.687 272.986 330.212 272.601 328.681 272.457C327.774 272.372 326.847 272.305 325.961 272.118C325.097 271.935 324.24 271.846 323.382 271.906C322.493 271.966 321.682 271.557 320.807 271.596C318.927 271.681 317.025 271.37 315.163 271.864C314.923 271.928 314.655 271.885 314.397 271.889C313.734 271.903 313.088 271.956 312.429 272.104C311.342 272.351 310.217 272.425 309.105 272.573C308.94 272.901 308.714 273.141 308.358 273.289C303.849 275.173 299.746 277.773 295.71 280.49C295.456 280.662 295.185 280.821 294.973 281.036C293.985 282.045 292.736 282.631 291.512 283.269C272.378 293.271 253.246 303.279 234.112 313.287C231.801 314.497 229.48 315.69 227.173 316.914C226.566 317.235 225.97 317.418 225.271 317.337C219.581 316.653 214.042 317.605 208.571 319.009C202.316 320.611 196.252 322.784 190.395 325.501C188.452 326.4 186.543 327.413 184.723 328.538C175.399 334.313 166.53 340.698 158.603 348.318C154.906 351.871 151.477 355.66 148.376 359.752C147.515 360.888 146.478 361.893 145.501 362.937C145.377 363.071 145.138 363.1 144.951 363.174C145.187 363.516 145.483 363.791 145.832 364.017C148.933 366.003 151.833 368.271 154.846 370.385C156.31 371.411 157.827 372.364 159.27 373.422C161.327 374.932 163.288 376.572 165.496 377.867C165.623 377.828 165.747 377.793 165.874 377.754L165.944 377.666L166.047 377.708C166.84 377.684 167.521 377.338 168.213 376.996C177.688 372.268 187.164 367.541 196.643 362.821C204.334 358.99 212.031 355.173 219.722 351.338C220.325 351.038 220.911 350.798 221.602 350.756C222.153 350.724 222.699 350.516 223.239 350.368C236.892 346.593 250.551 342.85 264.193 339.03C271.337 337.029 278.576 335.428 285.776 333.674C293.675 331.755 301.588 329.882 309.497 328.002C311.286 327.575 313.088 327.194 314.88 326.792C315.508 326.375 316.122 326.545 316.764 326.799C321.453 328.665 326.148 330.517 330.844 332.373C331.697 332.711 332.533 333.082 333.285 333.618C334.752 334.144 336.195 334.719 337.568 335.463C337.963 335.297 338.224 334.976 338.485 334.662C339.945 332.884 341.473 331.166 342.824 329.293C344.203 327.381 344.471 327.353 346.997 327.547C347.198 327.561 347.392 327.645 347.59 327.698C349.181 328.122 350.694 328.732 352.099 329.589C353.146 330.228 354.205 330.852 355.164 331.625C355.559 331.946 355.986 332.246 356.544 332.2H356.54V332.196Z" fill="#696C65"/>
<path d="M352.793 273.752C352.602 272.391 352.437 271.022 352.214 269.664C351.004 262.298 349.784 254.932 348.56 247.569C347.067 238.591 345.579 229.613 344.072 220.638C343.437 216.856 342.862 213.064 342.097 209.307C341.515 206.449 340.971 203.588 340.481 200.717C340.421 200.364 340.361 200.011 340.322 199.655C340.132 197.926 340.029 196.19 339.68 194.479C339.317 192.709 339.507 190.913 339.497 189.128C339.483 186.828 339.624 184.524 339.603 182.224C339.55 176.544 339.267 170.872 338.982 165.202C338.855 162.648 338.71 160.091 338.393 157.554C338.026 154.615 337.518 151.691 336.932 148.781C336.114 144.72 335.232 140.677 334.198 136.666C333.803 135.132 333.373 133.604 332.889 132.098C331.094 126.496 329.665 120.791 328.151 115.111C327.164 111.397 326.613 107.601 325.897 103.837C325.82 103.427 325.728 103.039 325.544 102.672C324.969 102.461 324.398 102.302 323.773 102.26C322.507 102.178 321.244 102.034 319.978 101.903C318.309 101.73 316.644 101.536 314.975 101.374C313.557 101.237 312.135 101.159 310.721 101.004C308.195 100.725 305.665 100.457 303.122 100.4C302.765 100.393 302.392 100.422 302.06 100.323C301.474 100.15 300.956 100.341 300.416 100.475C299.919 101.11 299.781 101.836 299.767 102.63C299.742 103.971 299.964 105.283 300.106 106.606C300.55 110.776 301.04 114.942 301.527 119.108C301.961 122.816 302.413 126.524 302.868 130.231C303.33 133.989 303.813 137.742 304.275 141.499C304.737 145.256 305.175 149.017 305.637 152.774C306.092 156.482 306.572 160.182 307.031 163.89C307.489 167.598 307.93 171.305 308.382 175.013C308.629 177.045 308.872 179.077 309.13 181.106C309.246 182.026 309.246 182.933 309.098 183.854C308.801 185.674 308.364 187.438 307.778 189.198C306.614 192.691 305.761 196.279 304.984 199.877C304.297 203.077 303.707 206.298 303.266 209.543C303.058 211.064 302.981 212.598 302.801 214.122C302.451 217.103 302.931 220.042 303.263 222.984C303.736 227.15 304.237 231.317 304.73 235.483C305.164 239.141 305.612 242.796 306.046 246.454C306.413 249.552 306.766 252.653 307.136 255.754C307.553 259.257 307.983 262.763 308.413 266.266C308.431 266.411 308.526 266.545 308.583 266.686C310.985 265.917 313.451 265.656 315.963 265.737C316.577 265.758 317.191 265.78 317.801 265.737C319.798 265.585 321.752 266.178 323.745 266.072C324.627 266.379 325.587 266.217 326.458 266.446C327.502 266.718 328.575 266.767 329.619 266.919C331.834 267.236 334.018 267.695 336.202 268.147C338.643 268.651 341.049 269.304 343.448 269.988C345.759 270.648 348.009 271.435 350.161 272.507C351.026 272.937 351.907 273.34 352.782 273.752H352.793Z" fill="#696C65"/>
<path d="M356.539 332.197C355.978 332.246 355.555 331.943 355.16 331.622C354.2 330.849 353.142 330.225 352.094 329.586C350.69 328.729 349.177 328.115 347.586 327.695C347.388 327.643 347.194 327.558 346.993 327.544C344.467 327.353 344.196 327.378 342.82 329.29C341.472 331.16 339.941 332.881 338.481 334.659C338.223 334.973 337.959 335.294 337.563 335.46C337.133 336.155 336.657 336.804 336.117 337.425C335.351 338.307 334.688 339.267 334.424 340.455C334.29 341.052 334.064 341.627 333.842 342.198C333.401 343.32 333.514 344.361 334.078 345.43C335.842 348.774 337.553 352.147 339.285 355.508C339.38 355.688 339.479 355.868 339.578 356.048C340.506 357.703 341.176 359.446 341.553 361.312C341.998 363.502 342.506 365.683 342.986 367.866C343.201 368.858 343.554 369.835 343.367 370.879C343.963 371.528 343.966 372.378 344.143 373.169C344.675 375.56 345.31 377.935 345.667 380.365C346.249 381.741 346.418 383.223 346.753 384.659C347.745 388.931 348.641 393.224 349.597 397.503C350.408 401.137 351.251 404.763 352.084 408.394C352.13 408.591 352.204 408.785 352.239 408.986C352.288 409.261 352.094 409.505 351.823 409.494C351.519 409.484 351.216 409.445 350.913 409.399C349.907 409.244 348.902 408.969 347.893 408.947C346.051 408.902 344.238 408.489 342.393 408.57C342.188 408.577 341.984 408.57 341.779 408.542C339.299 408.224 336.801 408.097 334.307 407.963C333.803 407.935 333.274 408.02 332.833 407.67C332.628 407.691 332.423 407.744 332.222 407.734C329.52 407.586 326.821 407.43 324.119 407.272C324.017 407.265 323.918 407.222 323.819 407.219C323.092 407.194 322.704 406.778 322.577 406.1C322.016 403.07 320.817 400.248 319.78 397.366C318.916 394.956 317.582 392.899 315.723 391.146C312.918 388.5 308.311 387.04 304.092 388.895C302.314 389.679 300.553 390.49 298.839 391.393C298.119 391.771 297.421 392.219 296.786 392.723C295.431 393.806 294.133 394.963 292.789 396.06C290.693 397.771 288.587 399.468 286.463 401.147C285.663 401.779 284.805 402.347 283.786 402.583C283.698 402.767 283.542 402.947 283.535 403.13C283.514 403.963 283.176 404.707 282.936 405.48C282.516 406.841 282.389 408.256 282.279 409.667C282.234 410.27 282.244 410.902 282.382 411.484C282.512 412.038 282.562 412.581 282.576 413.142C282.586 413.498 282.583 413.858 282.657 414.204C283.024 415.939 283.468 417.65 284.05 419.337C285.148 422.512 286.806 425.316 289.212 427.673C289.392 427.849 289.575 428.033 289.723 428.237C289.829 428.382 289.73 428.516 289.6 428.611C291.734 429.433 293.769 430.513 296.013 431.049C297.107 431.31 298.2 431.515 299.319 431.663C303.654 432.238 308.001 431.843 312.343 431.924C314.643 431.966 316.961 431.818 319.247 432.016C323.537 432.386 327.837 432.072 332.12 432.326C337.179 432.626 342.248 432.347 347.297 432.647C351.897 432.922 356.497 432.725 361.094 432.908C363.655 433.01 365.93 432.231 368.075 430.961C370.7 429.409 372.961 427.415 374.75 424.946C375.875 423.394 376.542 421.623 376.605 419.668C376.634 418.8 376.616 417.94 376.817 417.079C376.93 416.592 376.941 416.038 376.828 415.555C376.605 414.592 376.63 413.625 376.584 412.659C376.535 411.583 376.295 410.535 376.002 409.505C375.163 406.559 374.323 403.613 373.455 400.675C373.109 399.5 372.675 398.353 372.298 397.186C370.986 393.153 369.645 389.132 368.386 385.082C367.264 381.477 366.241 377.836 365.158 374.216C364.692 372.65 364.184 371.094 363.704 369.535C362.336 365.093 361.009 360.638 359.58 356.218C359.136 354.838 359.302 353.529 359.489 352.164C359.75 350.245 360.215 348.358 360.339 346.417C360.399 345.454 360.617 344.502 360.737 343.539C360.917 342.071 361.055 340.6 361.249 339.136C361.425 337.795 360.949 336.765 359.958 335.873C358.97 334.984 358.06 334.01 357.107 333.079C356.846 332.825 356.603 332.571 356.55 332.193H356.539V332.197Z" fill="#F7BB92"/>
<path d="M283.778 402.587C284.801 402.35 285.655 401.786 286.456 401.151C288.58 399.472 290.686 397.775 292.781 396.064C294.125 394.967 295.42 393.809 296.778 392.726C297.413 392.218 298.112 391.774 298.831 391.396C300.549 390.493 302.306 389.682 304.084 388.899C308.303 387.043 312.914 388.504 315.715 391.15C317.574 392.903 318.908 394.963 319.772 397.369C320.806 400.248 322.005 403.073 322.57 406.104C322.697 406.781 323.081 407.194 323.812 407.222C323.914 407.226 324.013 407.268 324.111 407.275C326.814 407.43 329.513 407.589 332.215 407.737C332.416 407.748 332.62 407.695 332.825 407.674C333.986 405.924 334.963 404.075 335.813 402.156C338.424 396.272 341.045 390.391 343.68 384.514C344.305 383.117 344.813 381.66 345.659 380.369C345.303 377.938 344.668 375.567 344.135 373.172C343.959 372.382 343.955 371.532 343.359 370.879C341.951 370.311 340.537 369.764 339.147 369.164C338.41 368.847 337.559 368.79 336.928 368.222C336.49 368.085 336.042 367.976 335.619 367.81C330.775 365.919 325.935 364.014 321.092 362.123C315.112 359.788 309.125 357.463 303.142 355.131C302.119 355.512 301.043 355.579 299.974 355.657C296.849 355.882 293.794 356.471 290.774 357.283C289.74 357.562 288.724 357.914 287.708 358.267C286.773 358.588 286.043 359.241 285.26 359.819C283.045 361.463 281.559 363.594 280.748 366.229C280.035 368.533 279.541 370.879 279.192 373.26C278.356 379.01 278.356 384.789 278.649 390.571C278.783 393.224 279.15 395.863 279.414 398.509C279.598 399.292 279.781 400.071 279.961 400.854C280.497 401.123 281.037 401.384 281.566 401.666C282.275 402.043 282.977 402.428 283.775 402.587H283.778Z" fill="#8A8AD9"/>
<path d="M279.965 400.853C279.781 400.07 279.598 399.287 279.418 398.507C278.836 398.391 278.434 397.967 277.996 397.632C276.652 396.613 275.361 395.526 274.013 394.514C273.562 394.175 273.35 393.815 273.311 393.251C273.17 391.296 272.69 389.423 271.844 387.652C271.247 386.403 270.552 385.218 269.642 384.167C268.951 383.369 268.094 382.84 267.102 382.516C265.345 381.944 263.546 381.602 261.694 381.556C260.773 381.535 259.863 381.514 258.953 381.306C257.969 381.08 257.249 380.582 256.914 379.64C256.378 378.138 255.372 376.878 254.819 375.379C254.614 374.829 254.124 374.377 253.746 373.894C253.584 373.686 253.33 373.604 253.069 373.576C252.24 373.484 251.45 373.481 250.755 374.084C249.908 374.822 248.994 375.481 248.158 376.233C246.525 377.704 244.927 379.214 243.311 380.709C243.159 380.847 243.018 380.995 242.866 381.133C242.087 381.852 241.222 382.304 240.101 382.156C237.659 381.842 235.204 381.881 232.752 381.884C231.683 381.884 230.6 381.764 229.549 382.078C229.669 382.858 230.068 383.514 230.487 384.156C232.213 386.805 233.92 389.469 235.687 392.094C238.139 395.731 240.468 399.456 243.131 402.949C243.48 403.407 243.688 403.912 243.837 404.458C244.916 408.445 246.02 412.424 247.082 416.414C247.527 418.086 248.084 419.737 248.218 421.48C250.705 421.12 253.228 421.342 255.711 421.099C258.011 420.873 260.304 420.937 262.601 420.841C263.377 420.81 264.114 420.951 264.859 421.177C269.843 422.683 274.835 424.158 279.824 425.653C280.324 425.802 280.822 425.851 281.337 425.837C281.161 425.41 280.945 425.015 280.66 424.648C279.051 422.584 277.742 420.365 277.068 417.804C276.694 416.375 276.345 414.95 276.416 413.451C276.458 412.534 276.433 411.613 276.423 410.692C276.384 408.011 276.91 405.446 277.94 402.973C278.349 401.993 278.917 401.199 279.968 400.849L279.965 400.853Z" fill="#F7BB92"/>
<path d="M165.496 377.857C163.284 376.562 161.326 374.921 159.27 373.412C157.827 372.353 156.31 371.401 154.846 370.374C151.833 368.261 148.933 365.993 145.832 364.006C145.483 363.784 145.187 363.506 144.95 363.163C144.485 362.652 143.797 362.719 143.232 362.648C139.613 362.186 136.279 362.807 133.697 365.636C132.257 367.21 131.375 369.118 130.807 371.161C130.204 373.323 129.654 375.503 129.093 377.677C128.387 380.397 127.65 383.106 127.001 385.84C126.119 389.565 125.223 393.291 124.5 397.048C124.031 399.496 123.614 401.962 123.364 404.456C123.184 406.245 123.085 408.019 123.089 409.808C123.089 410.531 123.258 411.222 123.406 411.924C123.558 412.64 123.978 413.159 124.588 413.445C125.847 414.037 127.142 414.136 128.387 413.371C129.495 412.69 130.335 411.702 131.157 410.735C131.855 409.914 132.589 409.134 133.337 408.368C135.125 406.537 136.939 404.731 138.734 402.904C141.348 400.24 144.015 397.626 146.707 395.04C147.885 393.908 149.169 392.892 150.404 391.82C151.293 391.05 152.136 390.232 153.054 389.491C154.285 388.496 155.389 387.35 156.595 386.32C159.711 383.656 162.494 380.647 165.493 377.857H165.496Z" fill="#F7BB93"/>
<path d="M248.222 421.485C248.088 419.742 247.531 418.091 247.086 416.419C246.025 412.429 244.917 408.45 243.841 404.463C243.693 403.913 243.481 403.408 243.135 402.953C240.475 399.457 238.144 395.735 235.692 392.098C233.924 389.477 232.217 386.814 230.492 384.161C230.076 383.519 229.677 382.863 229.553 382.083C228.957 381.758 228.365 381.9 227.768 382.079C226.735 382.393 225.768 382.852 224.83 383.378C222.508 384.676 220.229 386.024 218.36 387.974C215.767 390.68 213.865 393.795 212.736 397.362C211.844 400.177 211.565 403.08 211.939 406.008C212.105 407.314 212.306 408.651 212.899 409.854C213.135 410.33 212.878 410.626 212.687 410.972C213.463 410.993 214.013 411.328 214.412 412.023C215.527 413.974 216.931 415.727 218.441 417.371C220.021 419.093 221.626 420.815 223.602 422.123C224.406 422.656 225.2 423.206 225.973 423.788C226.498 424.187 227.049 424.607 226.964 425.397C228.347 425.764 229.719 426.166 231.113 426.487C234.178 427.196 237.251 427.069 240.197 426.032C242.405 425.256 244.585 424.339 246.575 423.051C247.231 422.628 247.803 422.134 248.229 421.481H248.222V421.485Z" fill="#7A4821"/>
<path d="M300.419 100.477C300.959 100.343 301.478 100.149 302.063 100.325C302.395 100.424 302.769 100.396 303.125 100.403C305.669 100.459 308.198 100.728 310.724 101.006C312.139 101.161 313.56 101.239 314.978 101.377C316.647 101.539 318.312 101.733 319.981 101.906C321.244 102.036 322.507 102.185 323.777 102.262C324.401 102.301 324.976 102.463 325.548 102.675C325.862 101.285 326.225 99.9056 326.472 98.5051C326.807 96.6001 327.114 94.6845 327.326 92.7618C327.703 89.2975 326.909 86.1684 324.472 83.5614C321.882 80.7991 319.173 78.1674 316.227 75.7826C314.442 74.3362 312.742 72.7875 310.999 71.2917C309.715 70.1946 308.339 69.228 306.886 68.3672C305.39 67.4782 303.711 67.2171 302.042 67.0972C301.107 67.0302 300.116 67.3336 299.23 67.7463C298.073 68.2825 296.884 68.7905 295.808 69.4679C294.419 70.3463 293.311 71.5775 292.362 72.9145C291.766 73.7576 291.483 74.7525 291.476 75.8038C291.469 76.9785 291.413 78.1603 291.476 79.3315C291.589 81.4376 292.147 83.4555 292.887 85.4205C294.172 88.8248 295.964 91.9787 297.685 95.1713C298.218 96.1591 298.74 97.1574 299.223 98.1734C299.594 98.9566 300.19 99.6198 300.423 100.474L300.419 100.477Z" fill="#F7BB92"/>
<path d="M303.146 355.131C309.129 357.459 315.112 359.788 321.095 362.123C325.939 364.014 330.779 365.919 335.623 367.81C336.05 367.976 336.498 368.089 336.932 368.223C336.907 367.817 336.967 367.379 336.84 367.013C336.537 366.141 336.374 365.245 336.173 364.353C335.729 362.37 335.231 360.402 334.847 358.408C334.663 357.459 334.342 356.535 334.226 355.586C334.127 354.782 333.81 354.15 333.383 353.501C331.601 350.774 329.707 348.118 328.109 345.271C327.579 344.325 327.558 343.489 328.133 342.562C329.717 340.011 331.248 337.425 332.839 334.878C333.093 334.469 333.294 334.091 333.277 333.612C332.525 333.075 331.689 332.701 330.836 332.366C326.14 330.511 321.448 328.659 316.756 326.792C316.114 326.538 315.504 326.369 314.872 326.785C314.153 328.63 313.461 330.489 312.706 332.32C310.939 336.603 309.157 340.879 307.348 345.144C306.215 347.814 305.026 350.464 303.855 353.12C303.566 353.773 303.294 354.429 303.143 355.131H303.146Z" fill="#F6BB92"/>
<path d="M211.929 411.205C210.073 411.166 208.27 411.483 206.485 411.963C199.088 413.953 192.342 417.255 186.31 421.993C185.749 422.434 185.202 422.906 184.719 423.432C183.879 424.349 183.932 425.157 184.687 426.177C185.326 427.037 186.105 427.418 187.185 427.348C189.838 427.171 192.494 427.041 195.147 426.903C196.015 426.857 196.883 426.805 197.751 426.822C203.684 426.928 209.611 426.688 215.541 426.558C217.637 426.512 219.732 426.434 221.828 426.519C223.069 426.568 224.269 426.342 225.401 425.803C225.07 425.683 224.692 425.626 224.41 425.432C222.403 424.06 220.353 422.741 218.624 421.001C217.083 419.453 215.682 417.784 214.342 416.066C213.305 414.74 212.631 413.191 211.957 411.656C211.901 411.526 211.936 411.356 211.929 411.201V411.205Z" fill="#7A4922"/>
<path d="M352.792 273.751C351.918 273.335 351.039 272.936 350.171 272.506C348.019 271.433 345.769 270.647 343.458 269.987C341.059 269.303 338.653 268.646 336.212 268.145C334.028 267.694 331.844 267.235 329.629 266.918C328.581 266.766 327.512 266.72 326.468 266.445C325.597 266.216 324.637 266.382 323.755 266.071C321.762 266.177 319.808 265.584 317.811 265.736C317.201 265.782 316.583 265.757 315.973 265.736C313.461 265.655 310.995 265.916 308.593 266.685C308.628 267.087 308.625 267.496 308.706 267.891C309.03 269.437 309.126 270.996 309.101 272.569C310.209 272.421 311.334 272.347 312.424 272.1C313.084 271.952 313.729 271.899 314.393 271.885C314.647 271.878 314.918 271.924 315.158 271.86C317.021 271.363 318.922 271.677 320.802 271.592C321.677 271.553 322.489 271.962 323.378 271.902C324.239 271.846 325.092 271.934 325.957 272.114C326.842 272.301 327.77 272.368 328.677 272.453C330.208 272.594 331.682 272.982 333.181 273.25C336.854 273.906 340.399 275.046 343.895 276.312C347.021 277.445 350.03 278.831 352.761 280.771C353.286 281.145 353.756 281.667 354.472 281.724C354.246 280.641 354.027 279.554 353.798 278.475C353.466 276.901 353.128 275.328 352.792 273.751Z" fill="#4B4C47"/>
<path d="M279.965 400.854C278.914 401.203 278.346 401.997 277.936 402.977C276.906 405.45 276.381 408.015 276.419 410.696C276.434 411.617 276.455 412.538 276.412 413.455C276.345 414.954 276.691 416.379 277.065 417.808C277.735 420.369 279.044 422.592 280.656 424.652C280.946 425.019 281.157 425.417 281.334 425.841C281.644 426.017 281.937 426.271 282.269 426.356C284.551 426.938 286.752 427.767 288.989 428.494C289.183 428.557 289.391 428.575 289.589 428.614C289.719 428.518 289.818 428.381 289.712 428.24C289.564 428.035 289.381 427.855 289.201 427.675C286.795 425.319 285.14 422.514 284.039 419.339C283.457 417.656 283.013 415.945 282.646 414.206C282.572 413.86 282.575 413.501 282.565 413.144C282.551 412.583 282.505 412.04 282.371 411.486C282.233 410.904 282.223 410.269 282.269 409.669C282.378 408.258 282.501 406.844 282.925 405.482C283.165 404.706 283.503 403.965 283.524 403.132C283.528 402.949 283.687 402.766 283.775 402.586C282.978 402.427 282.272 402.046 281.567 401.665C281.037 401.383 280.498 401.125 279.961 400.854H279.965Z" fill="#DDA882"/>
<path d="M211.928 411.204C211.935 411.356 211.9 411.529 211.957 411.659C212.63 413.194 213.304 414.743 214.341 416.069C215.682 417.784 217.082 419.456 218.624 421.004C220.356 422.744 222.402 424.063 224.41 425.435C224.692 425.629 225.069 425.686 225.401 425.806C225.973 425.873 226.442 425.555 226.953 425.404C227.038 424.613 226.488 424.194 225.962 423.795C225.193 423.213 224.399 422.663 223.591 422.13C221.616 420.825 220.011 419.099 218.43 417.378C216.92 415.734 215.513 413.981 214.401 412.03C214.006 411.335 213.456 410.996 212.676 410.979C212.426 411.056 212.175 411.13 211.921 411.208H211.928V411.204Z" fill="#5C3718"/>
<path d="M166.043 377.701L165.941 377.658L165.874 377.746L165.976 377.785L166.043 377.701Z" fill="#F7BB93"/>
<path d="M333.277 333.611C333.295 334.091 333.094 334.469 332.84 334.878C331.249 337.425 329.721 340.011 328.134 342.561C327.559 343.489 327.58 344.325 328.109 345.271C329.707 348.118 331.602 350.774 333.383 353.501C333.81 354.154 334.127 354.785 334.226 355.586C334.343 356.535 334.664 357.459 334.847 358.408C335.232 360.401 335.729 362.37 336.174 364.352C336.375 365.245 336.533 366.141 336.84 367.012C336.971 367.383 336.907 367.817 336.932 368.222C337.563 368.787 338.414 368.847 339.151 369.164C340.544 369.764 341.959 370.311 343.363 370.879C343.55 369.835 343.197 368.857 342.982 367.866C342.506 365.682 341.998 363.502 341.55 361.312C341.172 359.445 340.502 357.703 339.574 356.048C339.476 355.868 339.373 355.692 339.282 355.508C337.549 352.146 335.838 348.774 334.075 345.429C333.51 344.357 333.397 343.32 333.838 342.198C334.06 341.63 334.29 341.051 334.42 340.455C334.685 339.27 335.348 338.307 336.114 337.425C336.653 336.804 337.13 336.155 337.56 335.46C336.188 334.716 334.741 334.14 333.277 333.615V333.611Z" fill="#DDA781"/>
</svg>
