<svg width="500" height="500" viewBox="0 0 500 500" fill="none" xmlns="http://www.w3.org/2000/svg">
<path d="M218.862 218.059C218.478 218.164 218.129 218.126 218.033 217.674C217.935 217.208 217.885 216.732 217.843 216.259C217.656 214.125 213.797 172.974 213.737 170.733C213.708 169.626 216.224 152.879 216.224 152.819C216.379 147.951 213.754 93.8136 213.708 93.5631C210.777 92.8046 207.789 92.3355 204.811 91.7957C202.303 91.3406 199.791 90.8891 197.283 90.4375C197.22 91.4394 196.86 92.2967 196.087 92.9599C196.052 93.1363 196.031 93.3126 195.981 93.4855C194.15 100.04 192.531 106.644 191.261 113.333C190.848 115.499 184.036 169.636 183.944 170.222C183.518 172.914 183.077 175.605 182.629 178.297C182.318 180.167 180.731 255.548 181.383 257.475C181.56 257.997 181.683 258.505 181.687 259.048C181.905 259.136 182.202 259.157 182.332 259.316C183.066 260.219 184.043 260.808 184.992 261.426C195.226 268.076 205.305 274.965 215.85 281.125C216.393 280.254 217.141 279.576 217.945 278.966C219.021 278.147 219.744 277.096 220.298 275.872C221.388 273.473 222.344 271.039 222.785 268.428C222.895 267.783 223.015 267.127 223.004 266.477C222.99 265.627 223.159 264.826 223.406 264.029C223.223 260.688 223.678 257.326 223.029 254.003C223.138 251.537 222.443 249.156 222.224 246.722C222.023 244.475 221.515 242.256 221.261 240.012C221.173 239.232 220.926 238.499 220.859 237.723C220.729 236.241 220.517 234.77 220.235 233.306C220.009 232.138 219.931 230.942 219.783 229.76C219.621 228.459 219.522 227.15 219.282 225.862C218.866 223.64 218.647 221.382 218.051 219.191C217.959 218.856 218.164 218.644 218.471 218.5C218.626 218.426 218.746 218.277 218.884 218.164L218.862 218.059Z" fill="#6A6D66"/>
<path d="M222.655 216.335C222.634 216.42 222.63 216.501 222.637 216.589C222.937 217.369 223.191 218.159 223.428 218.963C223.865 220.459 224.07 221.993 224.38 223.51C224.712 225.144 224.987 226.795 225.16 228.449C225.297 229.758 225.562 231.035 225.788 232.326C226.052 233.85 226.468 235.364 226.578 236.898C226.712 238.757 227.16 240.553 227.495 242.359C228.059 245.4 228.592 248.452 229.153 251.493C229.499 253.366 229.919 255.229 230.148 257.116C230.289 258.266 230.79 259.441 230.229 260.616C236.463 257.557 242.703 254.509 248.93 251.436C259.513 246.219 270.093 240.991 280.666 235.748C282.768 234.708 282.641 234.852 282.465 236.979C281.961 242.98 282.317 248.949 283.068 254.908C284.631 267.29 287.901 279.204 292.907 290.634C294.23 293.653 295.726 296.585 297.465 299.397C297.772 299.89 298.128 300.222 298.64 300.434C303.84 299.622 309.047 298.829 314.243 297.982C315.298 297.809 316.371 297.537 317.094 296.606C317.073 294.927 310.292 217.668 310.476 217.411C310.038 215.308 309.534 213.23 308.659 211.255C306.507 206.408 303.339 202.382 299.017 199.289C297.557 198.241 293.232 194.957 285.989 194.77C279.015 194.886 276.355 196.174 275.967 196.188" fill="#696D66"/>
<path d="M215.815 355.425C215.73 360.04 216.263 364.633 216.182 369.247C216.136 371.882 216.174 374.521 216.234 377.16C216.28 379.192 216.488 381.22 216.499 383.252C216.548 393.441 216.598 403.632 216.556 413.821C216.541 417.475 216.926 421.113 216.887 424.767C216.848 428.362 216.929 431.96 216.94 435.555C216.947 438.014 216.954 440.469 216.912 442.928C216.873 445.119 217.54 447.059 218.877 448.763C219.903 450.072 221.149 450.876 222.916 451.123C227.382 451.748 231.859 451.794 236.346 451.822C238.445 451.836 240.544 451.776 242.64 451.815C244.326 451.847 245.981 451.571 247.639 451.356C249.685 451.092 251.114 449.811 252.19 448.146C252.839 447.141 253.34 446.05 253.276 444.777C253.237 444.05 253.252 443.341 252.758 442.734C252.514 442.438 252.535 442.064 252.549 441.701C252.02 441.701 251.682 441.362 251.336 441.02C251.04 440.727 250.757 440.427 250.341 440.279C249.05 439.824 247.78 439.291 246.475 438.885C242.608 437.686 238.714 436.575 234.858 435.351C232.332 434.546 232.804 435.093 232.762 432.246C232.762 432.126 232.741 431.996 232.78 431.89C233.242 430.62 233.08 429.293 233.122 427.988C233.094 424.453 233.637 420.94 233.521 417.401C233.958 415.087 233.669 412.731 233.895 410.413C234.166 407.605 234.039 404.779 234.286 401.985C234.487 399.709 234.395 397.431 234.618 395.173C234.826 393.081 234.78 390.985 234.953 388.9C235.119 386.939 235.507 384.999 235.782 383.048C235.983 381.63 236.163 380.204 236.364 378.786C236.657 376.715 236.953 374.645 237.253 372.577C237.553 370.506 237.856 368.439 238.156 366.368C238.276 365.539 238.396 364.714 238.516 363.885C238.879 361.405 239.211 358.918 239.62 356.445C239.793 355.386 240.125 354.356 240.386 353.312C240.449 353.062 240.608 352.892 240.841 352.793C241.398 352.561 241.977 352.437 242.587 352.423C243.663 352.391 244.728 352.388 245.804 352.176C246.969 351.947 247.664 352.529 247.928 353.767C248.404 355.986 248.884 358.209 249.286 360.442C249.449 361.345 249.798 362.174 250.168 362.975C250.577 363.857 251.301 364.47 252.31 364.749C253.259 365.01 254.197 365.035 255.157 364.929C255.273 364.915 255.386 364.851 255.502 364.834C258.25 364.393 258.145 364.46 259.746 366.464C260.494 367.398 261.256 368.323 262.043 369.222C262.501 369.748 262.893 369.78 263.464 369.413C263.817 369.184 264.17 368.947 264.477 368.668C266.258 367.067 268.068 365.49 269.783 363.821C270.651 362.975 271.54 362.445 272.788 362.498C274.231 362.558 275.635 362.184 277.046 361.927C277.523 361.839 277.985 361.758 278.468 361.8C278.486 361.715 278.489 361.634 278.475 361.549C278.387 361.391 278.288 361.239 278.218 361.077C276.736 357.605 275.244 354.141 273.797 350.652C273.445 349.802 272.937 349.312 272.023 349.075C270.167 348.592 268.329 348.052 266.438 347.713C265.14 347.481 263.849 347.22 262.554 346.983C262.018 346.888 261.697 346.616 261.616 346.059C261.203 343.328 260.413 340.686 259.834 337.991C259.676 337.25 259.323 336.862 258.688 336.541C255.901 335.144 253.008 334.004 250.08 332.946C248.923 333.02 247.907 333.578 246.824 333.913C245.279 334.393 243.73 334.851 242.09 334.848C242.128 338.675 242.421 342.513 241.737 346.32C241.694 346.549 241.829 346.87 241.342 347.018C241.352 344.863 241.317 342.775 241.134 340.69C240.869 337.712 239.966 334.964 238.576 332.336C237.38 330.075 235.45 328.78 233.154 327.884C231.647 327.295 230.113 327.386 228.553 327.517C226.906 327.654 225.414 328.17 223.996 329.013C220.824 330.904 219.057 333.832 217.945 337.208C217.48 338.622 217.134 340.104 216.958 341.579C216.538 345.142 215.765 348.666 215.744 352.275" fill="#F7BB92"/>
<path d="M214.749 353.59C214.993 353.562 215.229 353.618 215.473 353.59L215.787 353.573C215.787 353.117 215.737 352.691 215.741 352.281C215.762 348.672 216.534 345.148 216.954 341.585C217.131 340.107 217.476 338.629 217.942 337.214C219.053 333.838 220.821 330.906 223.992 329.019C225.41 328.176 226.899 327.657 228.55 327.523C230.109 327.393 231.644 327.301 233.15 327.89C235.447 328.79 237.377 330.085 238.573 332.342C239.963 334.97 240.866 337.719 241.13 340.696C241.317 342.785 241.349 344.873 241.338 347.025C241.825 346.877 241.691 346.552 241.733 346.326C242.418 342.52 242.122 338.682 242.086 334.854C242.019 334.501 241.92 334.152 241.896 333.796C241.786 332.134 241.098 330.698 240.231 329.312C238.484 326.518 236.424 323.953 234.36 321.399C229.887 315.868 225.721 310.107 221.399 304.462C220.383 303.136 219.554 301.675 218.38 300.469C217.815 300.656 217.226 300.79 216.69 301.037C213.437 302.536 210.202 304.074 206.95 305.577C203.101 307.355 199.227 309.073 195.396 310.89C191.681 312.657 187.847 314.171 184.231 316.146C184.181 316.566 184.231 316.968 184.347 317.381C185.134 320.14 185.892 322.905 186.672 325.664C187.84 329.809 189.169 333.898 190.761 337.902C191.833 340.601 193.301 343.042 195.255 345.19C195.657 345.631 196.07 346.069 196.437 346.542C196.437 346.542 203.309 353.223 214.749 353.59Z" fill="#8A8AD9"/>
<path d="M184.227 316.146C187.843 314.171 191.678 312.657 195.392 310.89C199.22 309.07 203.097 307.355 206.946 305.577C210.199 304.074 213.434 302.536 216.686 301.037C217.222 300.79 217.812 300.656 218.376 300.469C217.935 299.428 217.466 298.402 217.057 297.35C216.316 295.452 215.871 293.487 215.797 291.441C215.741 289.836 215.427 288.256 215.441 286.636C215.458 284.788 215.508 282.95 215.854 281.13C205.309 274.97 195.23 268.08 184.996 261.43C184.044 260.813 183.07 260.224 182.336 259.321C182.206 259.162 181.909 259.137 181.691 259.053C181.112 259.321 180.77 259.811 180.512 260.358C180.128 261.169 179.726 261.977 179.429 262.82C178.205 266.271 177.454 269.83 176.91 273.446C176.194 278.205 176.124 282.985 176.282 287.772C176.342 289.557 176.72 291.328 176.847 293.113C177.013 295.452 177.545 297.721 178.015 300.003C178.812 303.887 180.032 307.634 181.708 311.232C182.364 312.643 183.176 313.98 183.684 315.462C183.783 315.748 183.952 315.998 184.227 316.153V316.146Z" fill="#F7BB92"/>
<path d="M317.09 296.609C316.371 297.541 315.295 297.812 314.24 297.985C309.043 298.832 303.836 299.626 298.636 300.437C297.634 302.628 297.123 304.963 296.601 307.299C296.523 307.644 296.499 308.011 296.499 308.367C296.481 311.144 297.186 313.677 298.95 315.885C300.944 318.376 303.222 320.577 305.632 322.651C306.041 323.004 306.44 323.368 306.824 323.742C309.146 326.003 311.654 328.042 314.261 329.958C315.129 330.596 316.081 331.104 317.041 331.609C318.149 332.191 319.309 332.346 320.523 332.293C322.477 332.212 323.976 330.476 323.772 328.525C323.737 328.172 323.595 327.83 323.525 327.477C322.946 324.666 322.357 321.858 321.796 319.046C321.26 316.351 320.777 313.642 320.223 310.95C319.26 306.265 318.265 301.591 317.274 296.909C317.252 296.8 317.15 296.708 317.087 296.609H317.09Z" fill="#F7BB93"/>
<path d="M291.464 326.743C292.487 326.228 293.366 325.533 294.16 324.704C295.909 322.873 296.714 320.707 296.618 318.195C296.597 317.599 296.548 317.003 296.513 316.41C296.354 316.185 296.297 315.938 296.382 315.666C296.35 315.617 296.304 315.571 296.287 315.514C294.685 310.388 290.836 307.87 285.919 306.617C284.822 306.339 283.696 306.148 282.574 305.975C278.009 305.27 273.677 306.032 269.444 307.852C266.523 309.108 263.665 310.441 260.988 312.159C260.385 312.544 259.735 312.854 259.097 313.183C256.8 314.357 254.648 315.765 252.556 317.261C251.177 318.248 251.152 318.915 252.341 320.153C252.384 320.196 252.422 320.242 252.468 320.28C254.55 321.988 256.723 323.558 259.136 324.771C259.499 324.69 259.799 324.486 260.039 324.214C260.9 323.233 262.074 322.736 263.231 322.281C265.059 321.561 266.943 320.975 268.795 320.316C271.515 319.349 274.291 318.834 277.201 318.915C279.717 318.986 282.024 319.681 284.155 320.93C286.173 322.111 287.859 323.731 289.468 325.427C289.873 325.854 290.029 326.327 290.004 326.888C290.491 326.842 290.981 326.793 291.468 326.747H291.464V326.743Z" fill="#7A4822"/>
<path d="M230.226 260.619C230.786 259.44 230.286 258.266 230.144 257.119C229.915 255.232 229.495 253.369 229.15 251.496C228.585 248.451 228.056 245.403 227.492 242.362C227.156 240.556 226.708 238.757 226.574 236.901C226.461 235.367 226.049 233.853 225.784 232.329C225.558 231.042 225.294 229.761 225.156 228.452C224.983 226.798 224.712 225.147 224.377 223.513C224.066 221.996 223.861 220.462 223.424 218.966C223.188 218.162 222.955 217.118 222.651 216.338C222.535 216.377 222.471 216.419 222.313 216.493C222.126 216.546 221.935 216.602 221.748 216.655L221.692 216.68C221.498 216.797 221.307 216.909 221.113 217.026L220.898 217.125C220.743 217.213 220.584 217.305 220.429 217.393L220.171 217.509C220.016 217.587 219.861 217.668 219.706 217.745C219.483 217.982 219.205 218.109 218.887 218.165C218.75 218.278 218.63 218.43 218.475 218.5C218.168 218.645 217.963 218.86 218.055 219.192C218.651 221.383 218.873 223.64 219.286 225.863C219.526 227.147 219.628 228.459 219.787 229.761C219.935 230.943 220.013 232.139 220.238 233.307C220.521 234.771 220.736 236.242 220.863 237.723C220.93 238.499 221.177 239.233 221.265 240.013C221.519 242.257 222.027 244.476 222.228 246.723C222.447 249.157 223.142 251.538 223.032 254.004C223.682 257.327 223.226 260.689 223.41 264.03C224.098 263.677 224.796 263.37 225.534 263.12C227.223 262.545 228.74 261.603 230.226 260.622V260.619Z" fill="#454742"/>
<path d="M233.115 427.988C233.069 429.293 233.235 430.62 232.773 431.89C232.734 431.995 232.752 432.126 232.755 432.246C232.801 435.096 232.328 434.55 234.851 435.35C238.707 436.578 242.601 437.689 246.468 438.885C247.777 439.291 249.043 439.824 250.334 440.279C250.75 440.427 251.033 440.727 251.329 441.02C251.675 441.358 252.013 441.697 252.543 441.7C253.026 441.319 253.336 440.794 253.59 440.258C255.012 437.238 254.444 435.047 251.428 433.057C250.937 432.733 250.355 432.503 249.787 432.352C244.587 430.948 239.38 429.565 234.177 428.185C233.831 428.094 233.471 428.051 233.119 427.984H233.115V427.988Z" fill="#DEA882"/>
<path d="M290 326.885C290.025 326.324 289.87 325.852 289.464 325.425C287.859 323.728 286.173 322.112 284.151 320.927C282.021 319.678 279.713 318.983 277.198 318.913C274.288 318.831 271.511 319.347 268.791 320.313C266.939 320.973 265.055 321.558 263.228 322.278C262.071 322.733 260.896 323.227 260.035 324.211C259.796 324.483 259.499 324.688 259.132 324.769C259.22 324.868 259.312 324.966 259.404 325.062C259.552 325.241 259.711 325.418 259.852 325.605C260.081 325.912 260.339 326.109 260.762 325.986C261.161 325.869 261.591 325.841 261.979 325.697C264.551 324.73 267.211 324.031 269.79 323.086C270.753 322.733 271.719 322.469 272.76 322.518C273.109 322.536 273.462 322.405 273.815 322.345C274.108 322.296 274.418 322.169 274.69 322.225C276.718 322.663 278.817 322.627 280.8 323.463C282.864 324.331 284.762 325.421 286.483 326.811C287.072 327.288 287.651 327.616 288.381 327.711C288.956 327.499 289.563 327.351 290.004 326.882L290 326.885Z" fill="#5C3717"/>
<path d="M296.382 315.662C296.298 315.934 296.354 316.177 296.513 316.406C296.926 316.078 296.756 315.853 296.382 315.662Z" fill="#DFDEDC"/>
<path d="M221.307 85.0411C221.819 84.0075 222.016 82.8927 222.214 81.7885C222.411 80.6808 222.454 79.5307 222.122 78.423C221.473 76.2534 220.743 74.1085 219.822 72.0377C218.534 69.152 217.465 66.1851 216.368 63.2288C216.174 62.7032 214.961 59.2283 214.872 59.0413C214.569 58.3958 214.333 57.7184 214.057 57.0552C213.331 55.2913 212.675 53.4921 211.846 51.7776C210.706 49.4175 208.723 48.264 206.109 48.1863C205.75 48.1758 205.39 48.2146 205.033 48.1863C203.64 48.0805 202.455 48.5603 201.428 49.4669C201.11 49.7491 199.911 50.9839 199.611 51.4072C198.969 52.3138 198.588 53.344 198.567 54.4058C198.525 56.6177 198.052 58.7944 198.168 61.0204C198.256 62.6926 198.165 64.3718 198.151 66.051C198.151 66.4109 197.851 69.6176 197.837 70.87C197.812 73.3253 197.808 75.7807 197.784 78.236C197.78 78.7123 197.438 86.3464 197.431 88.6218C197.431 89.2251 197.449 89.8283 197.001 90.3152C197.103 90.3398 197.202 90.3787 197.293 90.4316C199.802 90.8831 202.313 91.3312 204.822 91.7898C207.796 92.333 210.787 92.7987 213.719 93.5572C214.664 92.333 215.74 91.2112 216.943 90.2587C218.164 89.2886 219.264 88.2373 220.245 87.0378C220.383 86.8685 221.113 85.4433 221.314 85.0341L221.307 85.0411Z" fill="#F7BC94"/>
<path d="M197.287 90.4387C197.195 90.3822 197.1 90.3434 196.997 90.3223C196.807 90.3364 196.613 90.354 196.419 90.3681C195.9 91.1795 196.045 92.0756 196.091 92.9611C196.863 92.2978 197.227 91.4406 197.287 90.4387Z" fill="#6A6D66"/>
<path d="M251.752 330.706C252.761 329.877 253.777 329.051 254.853 328.314C256.123 327.439 257.457 326.653 258.776 325.855C259.097 325.658 259.383 325.485 259.394 325.069C259.545 325.249 259.7 325.425 259.842 325.612C260.071 325.919 260.328 326.116 260.752 325.993C261.154 325.876 261.581 325.848 261.969 325.704C264.541 324.741 267.2 324.038 269.779 323.093C270.742 322.737 271.709 322.476 272.75 322.525C273.099 322.543 273.452 322.409 273.804 322.352C274.097 322.303 274.408 322.172 274.679 322.232C276.708 322.673 278.807 322.634 280.79 323.471C282.853 324.338 284.751 325.428 286.473 326.818C287.062 327.295 287.64 327.623 288.371 327.718C288.36 327.806 288.335 327.905 288.318 327.997C289.958 329.238 294.237 333.86 292.371 347.057C292.318 347.29 292.262 347.523 292.209 347.756C292.167 347.837 292.128 347.922 292.089 348.006C287.923 361.341 278.468 361.8 278.468 361.8L278.433 361.486C278.355 361.352 278.274 361.218 278.211 361.077C276.733 357.602 275.237 354.138 273.79 350.652C273.438 349.802 272.93 349.315 272.016 349.075C270.16 348.592 268.322 348.056 266.431 347.713C265.137 347.477 263.846 347.216 262.547 346.983C262.015 346.884 261.694 346.616 261.609 346.059C261.2 343.328 260.406 340.683 259.827 337.991C259.669 337.25 259.319 336.858 258.681 336.541C255.894 335.144 253.001 334.004 250.073 332.946L250.063 332.953C250.376 332.018 251.015 331.309 251.752 330.706Z" fill="#7A4821"/>
</svg>
