<svg width="497" height="497" viewBox="0 0 497 497" fill="none" xmlns="http://www.w3.org/2000/svg">
<path d="M285.279 117.824C277.43 110.661 248.334 102.569 238.049 96.7328C236.966 96.0695 254.288 71.6622 257.13 74.1825C272.693 87.58 293.94 106.947 298 111.192C298 111.192 286.768 119.283 285.279 117.824Z" fill="#ECAD83"/>
<path d="M222.817 87.9228C227.491 90.9982 231.897 94.0735 238.039 97.0152C238.039 97.0152 242.446 88.9925 246.585 84.4463C250.19 80.4349 257 74.2842 257 74.2842C243.781 63.1862 235.769 59.1748 225.889 53.4252C214.939 47.1408 200.786 45.4026 190.905 53.1578C179.021 62.5176 197.715 146.89 201.32 161.197C204.925 175.504 219.079 190.346 229.227 186.334C229.227 186.334 237.238 174.969 240.576 157.453C240.042 160.394 222.817 87.9228 222.817 87.9228Z" fill="#333333"/>
<path d="M234.757 197.096C235.829 196.297 238.509 195.365 239.313 194.966C259.278 186.446 252.444 166.345 257 162.618C257 162.618 238.375 133.864 234.891 132C223.368 138.789 210.237 152.767 201.394 165.68C197.374 171.67 225.244 203.752 234.757 197.096Z" fill="#3D3C3C"/>
<path d="M248.856 446.986C243.08 443.648 227.498 444.182 227.767 440.71C229.244 412.933 225.752 371.269 225.752 371.269C227.095 343.492 240.393 289.809 237.975 279.526C235.557 269.243 214.2 271.781 214.065 282.464C212.991 294.883 211.513 300.759 210.439 313.712C208.827 329.604 207.08 363.122 208.558 372.203C208.827 373.405 216.618 442.312 217.826 446.585C219.17 451.126 222.125 449.924 231.662 449.657C240.125 449.523 254.094 449.924 248.856 446.986Z" fill="#ECAD83"/>
<path d="M343.562 263.814C338.383 265.827 332.541 250.933 324.706 246.237C320.59 243.687 316.872 241.138 315.943 236.576C314.747 230.538 318.864 227.452 318.864 225.305C318.466 213.497 302.133 182.368 302 173.647C302 173.647 329.088 159.155 329.487 163.986C331.213 183.307 332.541 222.622 332.408 229.599C332.408 229.599 334.665 238.052 338.649 244.761C340.242 247.444 348.21 262.07 343.562 263.814Z" fill="#F6BB92"/>
<path d="M298.298 130.823C298.964 149.713 298.831 155.38 301.894 174C312.684 169.817 324.405 171.032 330 170.762C329.334 146.744 326.936 91.8287 312.684 89.1301C297.898 86.4315 241.287 126.505 229.698 135.68C218.11 144.855 210.384 164.015 218.11 171.706C218.11 171.706 231.697 174.405 249.013 170.357C246.349 171.032 298.298 130.823 298.298 130.823Z" fill="#3D3C3C"/>
<path d="M191.333 303.613C203.786 314.311 211.552 310.968 230.968 308.427C233.378 308.159 242.483 300.537 244.358 295.589C246.5 290.106 246.5 279.809 244.626 278.204C230.968 266.302 227.487 254.133 216.908 226.05C217.444 217.625 226.549 203.985 234.717 196.897L202.447 164C156.117 218.962 178.211 273.256 187.182 290.507C187.048 290.641 186.111 299.2 191.333 303.613Z" fill="#FF8AA0"/>
<path d="M242.543 302.356C242.543 302.356 252.78 299.926 262.478 302.356L268 285.485C256.955 288.049 245.776 284 245.776 284C245.776 298.847 237.155 301.816 235 306L242.543 302.356Z" fill="#ECAD83"/>
<path d="M298.584 285.268C305.38 280.196 304.314 272.722 303.115 268.317C299.517 254.569 292.188 251.232 282.461 248.295C269.403 244.558 254.613 277.393 254.08 283.533C252.614 299.417 271.669 311.296 280.196 313.965C289.39 316.902 288.058 313.031 288.857 309.294C288.857 309.16 289.524 308.76 289.524 308.76C289.923 307.425 290.323 305.69 291.655 304.222C291.655 304.222 291.655 303.02 291.789 302.353C291.922 301.953 292.055 301.686 292.455 301.686C293.921 301.552 295.386 301.552 296.053 301.152C298.185 299.817 295.386 287.671 298.584 285.268Z" fill="#F6BB92"/>
<path d="M286 304.149C286 304.149 286.771 304.889 290.751 306C291.394 305.877 292.293 305.63 291.907 304.396C291.65 303.408 289.082 304.642 286 304.149Z" fill="#D6876B"/>
<path d="M286 304C286 304 286.24 306.631 289.48 308.971C289.96 309.117 290.56 308.678 290.68 308.532C291.52 307.362 290.44 306.339 290.44 306.339C286.72 304.877 286 304 286 304Z" fill="#CC785E"/>
<path d="M282.614 245.734C266.726 241.194 238.957 257.885 252.708 291.132C253.643 293.402 256.313 296.473 262.32 294.203C266.593 292.601 269.93 289.797 269.93 289.797C270.998 288.996 272.067 288.061 273.135 286.993C274.336 285.925 275.671 277.78 277.273 277.913C293.561 279.916 302.64 273.64 303.841 269.501C305.043 259.086 299.569 250.541 282.614 245.734Z" fill="#602F0F"/>
<path d="M268.034 285.272C268.323 293.001 271.505 294.2 276.132 295L277 283.406L276.132 278.342C271.36 277.542 267.6 277.542 268.034 285.272Z" fill="#F6BB92"/>
<path d="M249.909 262.759C247.065 258.468 251.128 251.226 258.846 246.667C266.565 242.107 275.231 241.705 278.075 245.996C280.918 250.287 276.991 255.517 269.273 260.077C261.419 264.637 252.752 267.051 249.909 262.759Z" fill="#4C230C"/>
<path d="M278.19 280.558C278.323 279.222 278.724 278.021 278.991 277.086C279.391 275.75 279.926 274.949 279.926 274.949L274.851 275.216C274.584 275.884 274.451 276.552 274.184 277.219C274.184 277.219 274.718 277.219 275.652 277.219H275.519C275.786 278.421 276.187 280.291 276.32 282.828C276.187 282.828 277.656 284.697 278.19 280.558Z" fill="#602F0F"/>
<path d="M247.877 261.864C244.939 257.324 249.346 249.713 257.758 244.638C266.171 239.564 275.252 239.163 278.323 243.57C281.261 248.11 276.988 253.585 268.575 258.659C260.029 263.734 250.815 266.271 247.877 261.864Z" fill="#602F0F"/>
<path d="M255.026 248.92C254.767 248.372 256.452 246.729 258.915 245.086C261.378 243.443 263.711 242.621 263.97 243.169C264.229 243.717 262.803 244.949 260.211 246.592C257.878 248.098 255.286 249.331 255.026 248.92Z" fill="#4C230C"/>
<path d="M244.843 450.855C239 447.519 223.239 448.053 223.51 444.583C225.005 416.828 225.956 375.194 225.956 375.194C227.315 347.439 240.766 293.796 238.321 283.521C235.875 273.246 214.271 275.782 214.135 286.457C213.048 298.867 211.554 304.738 210.467 317.682C208.836 333.561 207.07 367.055 208.564 376.128C208.836 377.329 212.233 446.318 213.456 450.588C214.815 455.125 217.804 453.924 227.451 453.657C236.011 453.39 250.142 453.791 244.843 450.855Z" fill="#F6BB92"/>
</svg>
