<svg width="497" height="497" viewBox="0 0 497 497" fill="none" xmlns="http://www.w3.org/2000/svg">
<path d="M274.7 148.1C268.9 142.7 247.4 136.6 239.8 132.2C239 131.7 251.8 113.3 253.9 115.2C265.4 125.3 281.1 139.9 284.1 143.1C284.1 143.1 275.8 149.2 274.7 148.1Z" fill="#ECAD83"/>
<path d="M228.4 125.3C231.9 127.6 235.2 129.9 239.8 132.1C239.8 132.1 243.1 126.1 246.2 122.7C248.9 119.7 254 115.1 254 115.1C244.1 106.8 238.1 103.8 230.7 99.4998C222.5 94.7998 211.9 93.4998 204.5 99.2998C195.6 106.3 209.6 169.4 212.3 180.1C215 190.8 225.6 201.9 233.2 198.9C233.2 198.9 239.2 190.4 241.7 177.3C241.3 179.5 228.4 125.3 228.4 125.3Z" fill="#333333"/>
<path d="M236.9 207.1C237.7 206.5 239.7 205.8 240.3 205.5C255.2 199.1 250.1 184 253.5 181.2C253.5 181.2 239.6 159.6 237 158.2C228.4 163.3 218.6 173.8 212 183.5C209 188 229.8 212.1 236.9 207.1Z" fill="#3D3C3C"/>
<path d="M247.3 393.9C243 391.4 231.4 391.8 231.6 389.2C232.7 368.4 230.1 337.2 230.1 337.2C231.1 316.4 241 276.2 239.2 268.5C237.4 260.8 221.5 262.7 221.4 270.7C220.6 280 219.5 284.4 218.7 294.1C217.5 306 216.2 331.1 217.3 337.9C217.5 338.8 223.3 390.4 224.2 393.6C225.2 397 227.4 396.1 234.5 395.9C240.8 395.8 251.2 396.1 247.3 393.9Z" fill="#ECAD83"/>
<path d="M318.3 256.7C314.4 258.2 310 247.1 304.1 243.6C301 241.7 298.2 239.8 297.5 236.4C296.6 231.9 299.7 229.6 299.7 228C299.4 219.2 287.1 196 287 189.5C287 189.5 307.4 178.7 307.7 182.3C309 196.7 310 226 309.9 231.2C309.9 231.2 311.6 237.5 314.6 242.5C315.8 244.5 321.8 255.4 318.3 256.7Z" fill="#F6BB92"/>
<path d="M284.4 157.5C284.9 171.5 284.8 175.7 287.1 189.5C295.2 186.4 304 187.3 308.2 187.1C307.7 169.3 305.9 128.6 295.2 126.6C284.1 124.6 241.6 154.3 232.9 161.1C224.2 167.9 218.4 182.1 224.2 187.8C224.2 187.8 234.4 189.8 247.4 186.8C245.4 187.3 284.4 157.5 284.4 157.5Z" fill="#3D3C3C"/>
<path d="M204.6 286.9C213.9 294.9 219.7 292.4 234.2 290.5C236 290.3 242.8 284.6 244.2 280.9C245.8 276.8 245.8 269.1 244.4 267.9C234.2 259 231.6 249.9 223.7 228.9C224.1 222.6 230.9 212.4 237 207.1L212.9 182.5C178.3 223.6 194.8 264.2 201.5 277.1C201.4 277.2 200.7 283.6 204.6 286.9Z" fill="#FF8AA0"/>
<path d="M242.9 285.9C242.9 285.9 250.5 284.1 257.7 285.9L261.8 273.4C253.6 275.3 245.3 272.3 245.3 272.3C245.3 283.3 238.9 285.5 237.3 288.6L242.9 285.9Z" fill="#ECAD83"/>
<path d="M284.9 273.3C290 269.5 289.2 263.9 288.3 260.6C285.6 250.3 280.1 247.8 272.8 245.6C263 242.8 251.9 267.4 251.5 272C250.4 283.9 264.7 292.8 271.1 294.8C278 297 277 294.1 277.6 291.3C277.6 291.2 278.1 290.9 278.1 290.9C278.4 289.9 278.7 288.6 279.7 287.5C279.7 287.5 279.7 286.6 279.8 286.1C279.9 285.8 280 285.6 280.3 285.6C281.4 285.5 282.5 285.5 283 285.2C284.6 284.2 282.5 275.1 284.9 273.3Z" fill="#F6BB92"/>
<path d="M275 287.5C275 287.5 275.6 288.1 278.7 289C279.2 288.9 279.9 288.7 279.6 287.7C279.4 286.9 277.4 287.9 275 287.5Z" fill="#D6876B"/>
<path d="M275 287.5C275 287.5 275.2 289.3 277.9 290.9C278.3 291 278.8 290.7 278.9 290.6C279.6 289.8 278.7 289.1 278.7 289.1C275.6 288.1 275 287.5 275 287.5Z" fill="#CC785E"/>
<path d="M272.5 243.8C260.6 240.4 239.8 252.9 250.1 277.8C250.8 279.5 252.8 281.8 257.3 280.1C260.5 278.9 263 276.8 263 276.8C263.8 276.2 264.6 275.5 265.4 274.7C266.3 273.9 267.3 267.8 268.5 267.9C280.7 269.4 287.5 264.7 288.4 261.6C289.3 253.8 285.2 247.4 272.5 243.8Z" fill="#602F0F"/>
<path d="M262.1 272.8C262.3 278.6 264.5 279.5 267.7 280.1L268.3 271.4L267.7 267.6C264.4 267 261.8 267 262.1 272.8Z" fill="#F6BB92"/>
<path d="M248.6 256.5C246.5 253.3 249.5 247.9 255.2 244.5C260.9 241.1 267.3 240.8 269.4 244C271.5 247.2 268.6 251.1 262.9 254.5C257.1 257.9 250.7 259.7 248.6 256.5Z" fill="#4C230C"/>
<path d="M269.5 269.599C269.6 268.599 269.9 267.699 270.1 266.999C270.4 265.999 270.8 265.399 270.8 265.399L267 265.599C266.8 266.099 266.7 266.599 266.5 267.099C266.5 267.099 266.9 267.099 267.6 267.099H267.5C267.7 267.999 268 269.399 268.1 271.299C268 271.299 269.1 272.699 269.5 269.599Z" fill="#602F0F"/>
<path d="M246.8 255.6C244.6 252.2 247.9 246.5 254.2 242.7C260.5 238.9 267.3 238.6 269.6 241.9C271.8 245.3 268.6 249.4 262.3 253.2C255.9 257 249 258.9 246.8 255.6Z" fill="#602F0F"/>
<path d="M251.8 245.6C251.6 245.2 252.9 244 254.8 242.8C256.7 241.6 258.5 241 258.7 241.4C258.9 241.8 257.8 242.7 255.8 243.9C254 245 252 245.9 251.8 245.6Z" fill="#4C230C"/>
<path d="M244.4 397.5C240.1 395 228.5 395.4 228.7 392.8C229.8 372 230.5 340.8 230.5 340.8C231.5 320 241.4 279.8 239.6 272.1C237.8 264.4 221.9 266.3 221.8 274.3C221 283.6 219.9 288 219.1 297.7C217.9 309.6 216.6 334.7 217.7 341.5C217.9 342.4 220.4 394.1 221.3 397.3C222.3 400.7 224.5 399.8 231.6 399.6C237.9 399.4 248.3 399.7 244.4 397.5Z" fill="#F6BB92"/>
</svg>
