<svg width="500" height="500" viewBox="0 0 500 500" fill="none" xmlns="http://www.w3.org/2000/svg">
<path d="M246.085 199.685C245.62 199.769 245.069 199.769 244.731 200.023C236.306 206.077 226.866 208.363 216.579 208.49C211.16 208.533 206.249 207.178 201.296 205.4C200.703 205.188 200.068 204.892 199.476 204.976C192.448 205.865 185.294 205.315 178.351 206.628C164.677 209.295 150.792 210.141 136.948 211.242C131.911 211.623 131.995 211.581 133.477 216.322C136.821 227.032 137.456 238.039 136.483 249.089C135.086 264.202 133.689 279.315 132.419 294.428C131.995 299.72 131.826 305.054 130.895 310.303C122.766 310.346 114.596 310.388 106.468 310.388C104.817 310.388 103.166 310.473 101.515 310.007C100.753 288.967 99.8637 267.927 99.1863 246.887C98.763 234.356 98.001 221.825 96.223 209.379C95.3763 203.622 95.207 197.78 96.6463 191.895C98.7207 183.174 104.097 177.502 111.506 173.057C116.289 170.178 121.666 169.501 126.788 168.061C142.833 163.616 159.089 159.891 175.642 157.605C189.569 155.7 203.455 153.329 217.51 152.906C226.442 152.609 235.375 152.694 244.265 153.583C243.799 158.155 243.842 162.727 244.096 167.342C244.773 178.137 245.196 188.932 246.085 199.685Z" fill="#6A6E67"/>
<path d="M358.821 224.704C365.086 226.059 371.479 226.652 377.829 227.414C387.693 228.641 397.726 228.938 407.378 231.689C413.178 233.341 418.216 236.008 421.179 241.426C423.592 245.871 424.1 250.824 423.38 255.735C420.417 276.775 414.532 297.096 408.267 317.289C406.235 323.851 403.949 330.37 401.197 336.72C398.488 342.901 392.011 347.6 385.11 347.219C378.464 346.796 371.775 347.473 365.086 346.796C363.689 346.669 362.335 347.092 360.853 346.796C355.857 345.737 353.91 343.578 353.952 338.456C353.952 337.27 354.164 336.085 354.249 334.9C355.604 333.418 357.339 332.444 359.117 331.598C362.885 329.777 366.653 327.957 370.42 326.179C374.654 324.909 378.845 323.554 383.121 322.327C384.687 321.861 385.364 320.93 385.788 319.448C388.963 308.145 390.063 296.461 392.561 285.03C394 278.384 394.72 271.61 395.99 264.922C396.879 260.265 397.049 260.307 392.307 259.291C391.926 259.207 391.545 259.08 391.164 259.08C380.454 258.995 369.785 257.683 359.075 258.021C357.509 258.064 357.085 258.614 357.466 260.011C358.101 262.212 358.694 264.456 359.329 266.657C359.541 267.419 359.837 268.224 360.98 267.843C363.435 267.081 365.848 267.927 368.304 268.097C370.801 268.224 372.537 270.213 373.172 272.626C373.934 275.59 373.468 278.638 374.019 281.601C374.611 284.819 376.178 286.47 379.311 286.681C384.052 286.978 385.491 289.306 382.867 293.201C379.184 298.662 376.39 304.292 377.321 311.108C375.966 311.193 374.654 311.277 373.299 311.404C369.955 311.743 366.78 312.632 363.52 313.309C360.472 313.944 359.329 313.309 358.186 310.431C357.17 307.848 356.238 305.224 355.392 302.599C353.148 295.868 348.915 291.084 342.226 288.502C339.136 287.316 338.67 286.3 339.39 283.041C340.279 279.019 341.125 274.997 341.93 270.933C342.395 268.689 341.676 267.927 339.432 268.266C338.67 268.393 337.95 268.774 337.188 268.986C334.14 269.959 331.685 271.991 328.806 273.346C328.637 270.975 327.621 268.859 326.816 266.657C326.351 265.43 325.673 264.244 325.843 262.847C327.028 262.763 328.213 262.89 329.399 263.059C333.801 263.736 337.188 261.577 340.448 258.995C336.638 258.826 332.955 258.614 329.483 257.09C321.44 253.576 314.921 248.411 312.888 239.479C311.788 234.653 311.915 229.53 312.888 224.577C314.37 217 321.567 211.623 329.06 212.808C334.098 213.613 338.162 216.407 340.914 220.81C341.718 222.122 342.649 222.969 344.216 223.138C349.084 223.561 353.952 224.154 358.821 224.704Z" fill="#F7BA92"/>
<path d="M358.821 224.705C353.953 224.155 349.084 223.562 344.174 223.012C342.607 222.842 341.676 221.996 340.872 220.683C338.12 216.281 334.056 213.487 329.018 212.682C321.525 211.497 314.328 216.873 312.847 224.451C311.873 229.404 311.746 234.484 312.847 239.353C314.879 248.285 321.398 253.45 329.441 256.964C332.913 258.488 336.596 258.742 340.406 258.869C337.189 261.451 333.802 263.61 329.357 262.933C328.171 262.763 327.028 262.636 325.801 262.721C315.302 260.477 307.809 254.085 302.051 245.406C299.554 241.639 297.945 237.321 295.109 233.765C289.182 226.356 281.985 220.218 274.323 214.672C273.603 214.164 272.756 213.868 272.291 213.063C273.942 211.243 275.466 209.338 277.201 207.602C287.573 197.273 298.411 187.409 309.079 177.418C310.772 177.545 311.831 178.857 313.101 179.704C319.832 184.234 327.325 186.816 335.114 188.721C339.686 189.822 344.004 191.642 348.026 194.098C351.116 195.96 353.402 198.458 354.63 201.929C357.297 209.338 359.499 216.746 358.821 224.705Z" fill="#8A8AD9"/>
<path d="M309.163 177.502C298.452 187.493 287.657 197.357 277.285 207.686C275.55 209.422 273.983 211.327 272.375 213.147C270.427 212.258 268.819 210.819 267.168 209.507C261.833 205.273 255.78 202.437 249.43 200.151C248.287 199.728 247.059 200.913 246.085 199.685C245.196 188.932 244.731 178.137 244.096 167.384C243.842 162.77 243.799 158.198 244.265 153.626C251.97 153.541 259.336 155.446 266.617 157.605C277.455 160.823 287.7 165.352 297.69 170.644C300.908 172.337 304.21 173.861 307.3 175.809C308.062 176.232 308.909 176.528 309.163 177.502Z" fill="#F7BA92"/>
<path d="M328.806 273.261C331.643 271.906 334.14 269.874 337.188 268.901C337.95 268.647 338.67 268.266 339.432 268.181C341.676 267.842 342.353 268.562 341.93 270.848C341.125 274.87 340.236 278.934 339.39 282.955C338.67 286.258 339.136 287.274 342.226 288.417C348.915 290.957 353.148 295.783 355.392 302.514C356.281 305.138 357.212 307.763 358.186 310.346C359.287 313.224 360.472 313.859 363.52 313.224C366.78 312.547 369.997 311.616 373.299 311.319C374.654 311.192 375.966 311.108 377.321 311.023C377.49 311.658 377.279 312.251 377.109 312.886C375.755 317.754 373.807 322.326 370.463 326.221C366.695 328.041 362.927 329.819 359.16 331.64C357.382 332.486 355.646 333.46 354.291 334.942C351.413 336.423 348.365 335.492 345.401 335.746C342.903 332.952 339.39 331.809 336.342 329.862C332.743 327.618 329.06 325.501 325.377 323.342C325.335 321.268 324.53 319.574 323.091 318.093C322.625 317.669 322.414 317.119 322.414 316.484C322.498 315.849 322.414 315.341 321.652 315.214C320.636 310.261 319.112 305.35 318.858 300.312C318.35 290.703 320.255 281.728 327.663 274.743C328.087 274.362 328.425 273.769 328.806 273.261Z" fill="#7B4720"/>
<path d="M101.557 310.008C103.166 310.431 104.859 310.389 106.51 310.389C114.638 310.346 122.809 310.304 130.937 310.304C131.995 317.713 132.164 325.121 130.767 332.529C130.429 334.35 129.54 336.001 128.524 337.483C127.211 339.472 125.476 340.531 122.809 340.615C110.997 340.912 99.2286 341.631 87.4174 341.97C83.7767 342.055 80.136 340.996 78.1886 337.567C75.5216 332.826 74.8866 325.883 82.0833 321.946C88.7298 318.178 95.0799 313.945 101.557 310.008Z" fill="#F7BB93"/>
<path d="M341.675 337.482C337.061 337.947 332.488 337.693 327.874 337.651C318.561 337.566 309.289 337.439 299.976 338.074C298.283 338.201 296.632 337.82 295.065 337.397C292.356 336.677 291.594 334.222 293.33 332.063C294.049 331.132 294.981 330.285 295.954 329.692C301.627 326.433 307.723 324.316 314.285 323.808C316.867 323.639 319.45 322.665 322.032 323.681C324.064 326.687 326.9 328.761 329.948 330.624C333.801 333.037 337.653 335.407 341.675 337.482Z" fill="#7B4822"/>
<path d="M341.676 337.481C337.654 335.407 333.802 332.994 329.949 330.623C326.901 328.761 324.065 326.644 322.033 323.681C322.583 323.511 323.176 323.384 323.726 323.215C324.276 323.257 324.827 323.257 325.335 323.3C328.975 325.459 332.701 327.533 336.299 329.819C339.347 331.724 342.861 332.909 345.359 335.703C344.808 337.693 343.03 337.185 341.676 337.481Z" fill="#5C3515"/>
<path d="M325.377 323.298C324.827 323.256 324.276 323.256 323.768 323.214C324.657 322.579 324.827 321.859 324.234 320.843C323.726 319.996 323.176 319.107 323.133 318.049C324.53 319.531 325.292 321.266 325.377 323.298Z" fill="#7B4822"/>
<path d="M321.652 315.213C322.414 315.34 322.499 315.848 322.414 316.483C322.033 316.144 321.694 315.763 321.652 315.213Z" fill="#7B4822"/>
</svg>
