<svg width="500" height="500" viewBox="0 0 500 500" fill="none" xmlns="http://www.w3.org/2000/svg">
<path d="M246.085 220.933C245.62 221.017 245.069 221.017 244.731 221.271C236.306 227.325 226.866 229.611 216.579 229.738C211.16 229.781 206.249 228.426 201.296 226.648C200.703 226.436 200.068 226.14 199.476 226.225C192.448 227.114 185.294 226.563 178.351 227.876C164.677 230.543 150.792 231.389 136.948 232.49C131.911 232.871 131.995 232.829 133.477 237.57C136.821 248.281 137.456 259.287 136.483 270.337C135.086 285.45 133.689 300.563 132.419 315.676C131.995 320.968 131.826 326.302 130.895 331.552C122.766 331.594 114.596 331.636 106.468 331.636C104.817 331.636 103.166 331.721 101.515 331.255C100.753 310.215 99.8637 289.175 99.1863 268.135C98.763 255.604 98.001 243.073 96.223 230.627C95.3763 224.87 95.207 219.028 96.6463 213.143C98.7207 204.423 104.097 198.75 111.506 194.305C116.289 191.426 121.666 190.749 126.788 189.309C142.833 184.864 159.089 181.139 175.642 178.853C189.569 176.948 203.455 174.577 217.51 174.154C226.442 173.857 235.375 173.942 244.265 174.831C243.799 179.403 243.842 183.975 244.096 188.59C244.773 199.385 245.196 210.18 246.085 220.933Z" fill="#6A6E67"/>
<path d="M358.82 245.952C365.086 247.307 371.478 247.9 377.828 248.662C387.692 249.889 397.725 250.186 407.378 252.938C413.177 254.589 418.215 257.256 421.178 262.674C423.591 267.119 424.099 272.072 423.38 276.983C420.416 298.023 414.532 318.344 408.267 338.537C406.234 345.099 403.948 351.618 401.197 357.968C398.487 364.149 392.01 368.848 385.11 368.467C378.463 368.044 371.775 368.721 365.086 368.044C363.689 367.917 362.334 368.34 360.852 368.044C355.857 366.985 353.91 364.826 353.952 359.704C353.952 358.519 354.164 357.333 354.248 356.148C355.603 354.666 357.339 353.692 359.117 352.846C362.884 351.025 366.652 349.205 370.42 347.427C374.653 346.157 378.844 344.802 383.12 343.575C384.686 343.109 385.364 342.178 385.787 340.696C388.962 329.393 390.063 317.709 392.561 306.278C394 299.632 394.72 292.859 395.99 286.17C396.879 281.513 397.048 281.555 392.307 280.539C391.926 280.455 391.545 280.328 391.164 280.328C380.453 280.243 369.785 278.931 359.074 279.269C357.508 279.312 357.085 279.862 357.466 281.259C358.101 283.46 358.693 285.704 359.328 287.905C359.54 288.667 359.836 289.472 360.979 289.091C363.435 288.329 365.848 289.175 368.303 289.345C370.801 289.472 372.537 291.461 373.172 293.875C373.934 296.838 373.468 299.886 374.018 302.849C374.611 306.067 376.177 307.718 379.31 307.929C384.051 308.226 385.491 310.554 382.866 314.449C379.183 319.91 376.389 325.54 377.32 332.356C375.966 332.441 374.653 332.525 373.299 332.652C369.954 332.991 366.779 333.88 363.519 334.558C360.471 335.193 359.328 334.558 358.185 331.679C357.169 329.096 356.238 326.472 355.391 323.847C353.148 317.116 348.914 312.332 342.225 309.75C339.135 308.564 338.669 307.548 339.389 304.289C340.278 300.267 341.125 296.245 341.929 292.181C342.395 289.937 341.675 289.175 339.431 289.514C338.669 289.641 337.95 290.022 337.188 290.234C334.14 291.207 331.684 293.239 328.806 294.594C328.636 292.223 327.62 290.107 326.816 287.905C326.35 286.678 325.673 285.492 325.842 284.095C327.028 284.011 328.213 284.138 329.398 284.307C333.801 284.984 337.188 282.825 340.447 280.243C336.637 280.074 332.954 279.862 329.483 278.338C321.439 274.824 314.92 269.659 312.888 260.727C311.787 255.901 311.914 250.778 312.888 245.825C314.37 238.248 321.566 232.871 329.06 234.057C334.097 234.861 338.161 237.655 340.913 242.058C341.717 243.37 342.649 244.217 344.215 244.386C349.084 244.809 353.952 245.402 358.82 245.952Z" fill="#F7BA92"/>
<path d="M358.822 245.953C353.953 245.403 349.085 244.81 344.174 244.26C342.608 244.09 341.676 243.244 340.872 241.931C338.12 237.529 334.056 234.735 329.019 233.93C321.525 232.745 314.329 238.121 312.847 245.699C311.873 250.652 311.746 255.732 312.847 260.601C314.879 269.533 321.398 274.698 329.442 278.212C332.913 279.736 336.596 279.99 340.406 280.117C337.189 282.699 333.802 284.858 329.357 284.181C328.172 284.011 327.029 283.884 325.801 283.969C315.302 281.725 307.809 275.333 302.052 266.654C299.554 262.887 297.945 258.569 295.109 255.013C289.182 247.604 281.986 241.466 274.323 235.92C273.603 235.412 272.757 235.116 272.291 234.311C273.942 232.491 275.466 230.586 277.202 228.85C287.574 218.521 298.411 208.657 309.079 198.666C310.773 198.793 311.831 200.105 313.101 200.952C319.832 205.482 327.325 208.064 335.115 209.969C339.687 211.07 344.005 212.89 348.027 215.346C351.117 217.208 353.403 219.706 354.631 223.177C357.298 230.586 359.499 237.994 358.822 245.953Z" fill="#8A8AD9"/>
<path d="M309.163 198.75C298.452 208.741 287.657 218.605 277.285 228.934C275.55 230.67 273.983 232.575 272.375 234.395C270.427 233.506 268.819 232.067 267.168 230.755C261.833 226.521 255.78 223.685 249.43 221.399C248.287 220.976 247.059 222.161 246.085 220.933C245.196 210.18 244.731 199.385 244.096 188.632C243.842 184.018 243.799 179.446 244.265 174.874C251.97 174.789 259.336 176.694 266.617 178.853C277.455 182.071 287.7 186.6 297.69 191.892C300.908 193.585 304.21 195.109 307.3 197.057C308.062 197.48 308.909 197.777 309.163 198.75Z" fill="#F7BA92"/>
<path d="M328.806 294.509C331.642 293.154 334.14 291.122 337.188 290.149C337.95 289.895 338.67 289.514 339.432 289.429C341.675 289.09 342.353 289.81 341.929 292.096C341.125 296.118 340.236 300.182 339.389 304.204C338.67 307.506 339.135 308.522 342.226 309.665C348.914 312.205 353.148 317.031 355.391 323.762C356.28 326.387 357.212 329.011 358.186 331.594C359.286 334.472 360.472 335.107 363.52 334.472C366.779 333.795 369.997 332.864 373.299 332.567C374.653 332.44 375.966 332.356 377.32 332.271C377.49 332.906 377.278 333.499 377.109 334.134C375.754 339.002 373.807 343.574 370.462 347.469C366.695 349.289 362.927 351.067 359.159 352.888C357.381 353.734 355.645 354.708 354.291 356.19C351.412 357.671 348.364 356.74 345.401 356.994C342.903 354.2 339.389 353.057 336.341 351.11C332.743 348.866 329.06 346.749 325.377 344.59C325.334 342.516 324.53 340.822 323.091 339.341C322.625 338.917 322.413 338.367 322.413 337.732C322.498 337.097 322.413 336.589 321.651 336.462C320.635 331.509 319.111 326.598 318.857 321.56C318.349 311.951 320.254 302.976 327.663 295.991C328.086 295.61 328.425 295.017 328.806 294.509Z" fill="#7B4720"/>
<path d="M101.557 331.256C103.166 331.679 104.859 331.637 106.51 331.637C114.638 331.595 122.809 331.552 130.937 331.552C131.995 338.961 132.164 346.369 130.767 353.778C130.429 355.598 129.54 357.249 128.524 358.731C127.211 360.72 125.476 361.779 122.809 361.863C110.997 362.16 99.2286 362.879 87.4174 363.218C83.7767 363.303 80.136 362.244 78.1886 358.815C75.5216 354.074 74.8866 347.131 82.0833 343.194C88.7298 339.426 95.0799 335.193 101.557 331.256Z" fill="#F7BB93"/>
<path d="M341.675 358.73C337.061 359.195 332.488 358.941 327.874 358.899C318.561 358.814 309.289 358.687 299.976 359.322C298.283 359.449 296.632 359.068 295.065 358.645C292.356 357.925 291.594 355.47 293.33 353.311C294.049 352.38 294.981 351.533 295.954 350.94C301.627 347.681 307.723 345.564 314.285 345.056C316.867 344.887 319.45 343.913 322.032 344.929C324.064 347.935 326.9 350.009 329.948 351.872C333.801 354.285 337.653 356.655 341.675 358.73Z" fill="#7B4822"/>
<path d="M341.675 358.729C337.653 356.655 333.801 354.242 329.949 351.871C326.901 350.009 324.064 347.892 322.032 344.929C322.583 344.759 323.175 344.632 323.726 344.463C324.276 344.505 324.826 344.505 325.334 344.548C328.975 346.707 332.7 348.781 336.299 351.067C339.347 352.972 342.861 354.157 345.358 356.951C344.808 358.941 343.03 358.433 341.675 358.729Z" fill="#5C3515"/>
<path d="M325.377 344.546C324.827 344.504 324.277 344.504 323.769 344.462C324.658 343.827 324.827 343.107 324.234 342.091C323.726 341.244 323.176 340.355 323.134 339.297C324.531 340.779 325.293 342.514 325.377 344.546Z" fill="#7B4822"/>
<path d="M321.651 336.461C322.413 336.588 322.498 337.096 322.413 337.731C322.032 337.392 321.694 337.011 321.651 336.461Z" fill="#7B4822"/>
</svg>
