<svg width="497" height="497" viewBox="0 0 497 497" fill="none" xmlns="http://www.w3.org/2000/svg">
<path d="M158.5 221.6C151 231.3 152.7 236 151.4 250.6C151.2 252.4 155.4 260.2 158.7 262.4C162.4 264.8 166.5 266.1 171.4 265.3C180.9 263.7 190 236.9 201.3 228.6C208.3 222.2 225.4 207.4 230.4 208.8C230.4 208.8 235.9 176.8 234 177.1C190.7 185.1 174.8 207.2 167.1 216.3C167 216.3 160.6 218.8 158.5 221.6Z" fill="#FF8AA0"/>
<path d="M156 262.1C156 262.1 155.1 266.3 152.9 273.3L167.3 281.7C165.9 273.4 169.5 265.4 169.5 265.4C158.5 264.7 156.8 258.2 153.8 256.3L156 262.1Z" fill="#ECAD83"/>
<path d="M160 301.3C162.1 307.3 167.7 308.3 171.1 308.5C181.7 309.1 185.8 304.7 190.1 298.3C195.8 289.9 175.7 271.7 171.5 269.9C160.5 265.2 147.6 276.1 143.8 281.5C139.5 287.4 142.7 287.3 145.2 288.8C145.3 288.9 145.5 289.4 145.5 289.4C146.3 290 147.5 290.7 148.2 292C148.2 292 149.1 292.3 149.5 292.5C149.8 292.7 149.9 292.8 149.8 293.2C149.5 294.3 149.2 295.3 149.4 295.9C149.8 297.7 159.1 298.5 160 301.3Z" fill="#F6BB92"/>
<path d="M149.5 287.6C149.5 287.6 148.8 287.9 146.9 290.7C146.8 291.1 146.8 292 147.9 292C148.7 292 148.5 289.7 149.5 287.6Z" fill="#D6876B"/>
<path d="M149.5 287.6C149.5 287.6 147.7 287.2 145.4 289.3C145.2 289.7 145.3 290.2 145.4 290.3C146 291.2 146.9 290.6 146.9 290.6C148.8 287.9 149.5 287.6 149.5 287.6Z" fill="#CC785E"/>
<path d="M191.9 298.6C198.8 288.3 193.3 264.6 166.4 266.9C164.6 267.1 161.8 268.3 162 273.1C162.2 276.5 163.4 279.6 163.4 279.6C163.8 280.5 164.2 281.5 164.6 282.5C165.1 283.6 170.6 286.4 170.1 287.6C164.9 298.7 167.3 306.6 170 308.4C177.3 311.5 184.5 309.6 191.9 298.6Z" fill="#602F0F"/>
<path d="M167.5 279.8C161.9 278.3 160.4 280 158.8 282.9L166.9 286.2L170.7 286.7C172.3 283.8 173.1 281.3 167.5 279.8Z" fill="#F6BB92"/>
<path d="M187.1 272C190.8 271 195 275.4 196.5 282C198 288.6 196.3 294.6 192.6 295.6C188.9 296.6 186.1 292.7 184.6 286.2C183.1 279.6 183.5 273 187.1 272Z" fill="#4C230C"/>
<path d="M168.3 287.8C169.2 288.2 170 288.7 170.6 289.1C171.5 289.7 171.9 290.2 171.9 290.2L172.8 286.5C172.4 286.2 171.9 285.9 171.5 285.6C171.5 285.6 171.4 286 171.2 286.7V286.6C170.3 286.6 168.9 286.4 167 285.8C167.1 285.9 165.5 286.5 168.3 287.8Z" fill="#602F0F"/>
<path d="M188.6 270.5C192.5 269.4 197 274.3 198.6 281.5C200.3 288.6 198.5 295.3 194.6 296.3C190.7 297.4 187.7 293 186.1 285.9C184.4 278.8 184.7 271.5 188.6 270.5Z" fill="#602F0F"/>
<path d="M196.6 278.3C197 278.2 197.8 279.9 198.3 282C198.8 284.2 198.9 286 198.4 286.2C198 286.3 197.4 284.9 196.9 282.7C196.4 280.6 196.1 278.4 196.6 278.3Z" fill="#4C230C"/>
<path d="M351.2 318.2L319.4 318.4C312 319.8 312.7 311.5 314.4 309.4C315.4 308.1 314.5 291.4 312 263.4C311.1 253.5 332.3 255.1 331.9 258.6C328.4 285.5 323.4 299.4 325.6 304.1C325.6 304.1 349.6 310.2 352.6 312.4C354.4 313.9 356.3 316.3 351.2 318.2Z" fill="#F6BB92"/>
<path d="M311.4 235.1C310.8 241.8 311.1 249.3 312 263.5C316.3 260.3 327.7 259.3 331.9 258.7C332 254.4 333.9 223.7 333.9 223.7C329.7 215.9 300.6 195.7 290.6 190.4C280.7 185.1 264 179.2 256.6 178.4C244.9 177.1 239.7 176.8 233.9 177.1L230.3 208.8C230.3 208.8 236.9 212.1 246 213.1C255.8 214.2 262.3 209.8 262.3 209.8C277.9 220.8 311.4 235.1 311.4 235.1Z" fill="#3D3C3C"/>
<path d="M104.156 274.739C109.308 274.142 117.696 272.429 117.696 272.429C124.51 271.364 133.559 270.332 139.702 269.257C149.786 267.837 156.833 266.105 159.382 266.097C163.63 266.158 169.637 265.26 172.011 261.895C175.709 256.671 175.13 247.181 168.212 246.187C158.036 244.654 116.75 257.343 107.92 261.823C104.27 263.693 102.052 265.54 101.588 266.651C101.125 267.763 101.263 270.583 103.144 273.562C103.408 273.879 103.715 274.285 104.156 274.739Z" fill="#F6BB92"/>
<path d="M129.221 307.615C119.126 288.059 117.661 281.105 116.356 275.406C115.008 269.617 111.788 263.399 111.444 262.454C110.593 262.532 109.832 262.565 109.295 262.602C105.174 263.035 103.406 264.664 102.589 265.502C102.589 265.502 99.911 268.237 100.71 271.737C101.796 277.072 114.98 299.644 120.532 308.991C121.801 311.129 124.687 311.573 126.56 309.938L129.221 307.615Z" fill="#F6BB92"/>
<path d="M121.102 310.614C120.903 310.56 120.804 309.913 122.692 306.193C122.692 306.193 124.68 306.355 128.159 306.086C132.929 305.708 139.588 306.625 142.968 307.918C145.85 309.05 147.54 311.314 146.844 313.255C146.148 315.249 131.041 312.608 126.27 312.608L121.102 310.614Z" fill="#F6BB92"/>
</svg>
