<svg width="500" height="500" viewBox="0 0 500 500" fill="none" xmlns="http://www.w3.org/2000/svg">
<path d="M253.929 199.685C254.394 199.769 254.945 199.769 255.283 200.023C263.708 206.077 273.148 208.363 283.436 208.49C288.854 208.533 293.765 207.178 298.718 205.4C299.311 205.188 299.946 204.892 300.539 204.976C307.566 205.865 314.72 205.315 321.663 206.628C335.337 209.295 349.223 210.141 363.066 211.242C368.104 211.623 368.019 211.581 366.537 216.322C363.193 227.032 362.558 238.039 363.532 249.089C364.929 264.202 366.326 279.315 367.596 294.428C368.019 299.72 368.188 305.054 369.12 310.304C377.248 310.346 385.418 310.388 393.546 310.388C395.197 310.388 396.848 310.473 398.499 310.007C399.261 288.967 400.15 267.927 400.828 246.887C401.251 234.356 402.013 221.825 403.791 209.379C404.638 203.622 404.807 197.78 403.368 191.895C401.293 183.174 395.917 177.502 388.509 173.057C383.725 170.178 378.348 169.501 373.226 168.061C357.181 163.616 340.925 159.891 324.373 157.605C310.445 155.7 296.559 153.329 282.504 152.906C273.572 152.609 264.639 152.694 255.749 153.583C256.215 158.155 256.172 162.727 255.918 167.342C255.241 178.137 254.818 188.932 253.929 199.685Z" fill="#6A6E67"/>
<path d="M141.193 224.704C134.928 226.059 128.535 226.652 122.185 227.414C112.321 228.641 102.288 228.938 92.6362 231.689C86.8364 233.341 81.7987 236.008 78.8353 241.426C76.4222 245.871 75.9142 250.824 76.6339 255.735C79.5973 276.775 85.4817 297.096 91.7472 317.289C93.7792 323.851 96.0652 330.37 98.8169 336.72C101.526 342.901 108.003 347.6 114.904 347.219C121.55 346.796 128.239 347.473 134.928 346.796C136.325 346.669 137.68 347.092 139.161 346.796C144.157 345.737 146.104 343.578 146.062 338.456C146.062 337.27 145.85 336.085 145.765 334.9C144.411 333.418 142.675 332.444 140.897 331.598C137.129 329.777 133.361 327.957 129.594 326.179C125.36 324.909 121.169 323.554 116.894 322.327C115.327 321.861 114.65 320.93 114.227 319.448C111.051 308.145 109.951 296.461 107.453 285.03C106.014 278.384 105.294 271.61 104.024 264.922C103.135 260.265 102.966 260.307 107.707 259.291C108.088 259.207 108.469 259.08 108.85 259.08C119.561 258.995 130.229 257.683 140.939 258.021C142.506 258.064 142.929 258.614 142.548 260.011C141.913 262.212 141.32 264.456 140.685 266.657C140.474 267.419 140.177 268.224 139.034 267.843C136.579 267.081 134.166 267.927 131.71 268.097C129.213 268.224 127.477 270.213 126.842 272.626C126.08 275.59 126.546 278.638 125.995 281.601C125.403 284.819 123.836 286.47 120.704 286.681C115.962 286.978 114.523 289.306 117.148 293.201C120.831 298.662 123.625 304.292 122.693 311.108C124.048 311.193 125.36 311.277 126.715 311.404C130.059 311.743 133.234 312.632 136.494 313.309C139.542 313.944 140.685 313.309 141.828 310.431C142.844 307.848 143.776 305.224 144.622 302.599C146.866 295.868 151.099 291.084 157.788 288.502C160.879 287.316 161.344 286.3 160.625 283.041C159.736 279.019 158.889 274.997 158.085 270.933C157.619 268.689 158.339 267.927 160.582 268.266C161.344 268.393 162.064 268.774 162.826 268.986C165.874 269.959 168.329 271.991 171.208 273.346C171.377 270.975 172.393 268.859 173.198 266.657C173.663 265.43 174.341 264.244 174.171 262.847C172.986 262.763 171.801 262.89 170.615 263.059C166.213 263.736 162.826 261.577 159.566 258.995C163.376 258.826 167.059 258.614 170.531 257.09C178.574 253.576 185.094 248.411 187.126 239.479C188.226 234.653 188.099 229.53 187.126 224.577C185.644 217 178.447 211.623 170.954 212.808C165.916 213.613 161.852 216.407 159.101 220.81C158.296 222.122 157.365 222.969 155.799 223.138C150.93 223.561 146.062 224.154 141.193 224.704Z" fill="#F7BA92"/>
<path d="M141.193 224.705C146.061 224.155 150.93 223.562 155.84 223.012C157.407 222.842 158.338 221.996 159.143 220.683C161.894 216.281 165.958 213.487 170.996 212.682C178.489 211.497 185.686 216.873 187.168 224.451C188.141 229.404 188.268 234.484 187.168 239.353C185.136 248.285 178.616 253.45 170.573 256.964C167.101 258.488 163.418 258.742 159.608 258.869C162.826 261.451 166.212 263.61 170.657 262.933C171.843 262.763 172.986 262.636 174.213 262.721C184.712 260.477 192.205 254.085 197.963 245.406C200.461 241.639 202.069 237.321 204.906 233.765C210.832 226.356 218.029 220.218 225.692 214.672C226.411 214.164 227.258 213.868 227.724 213.063C226.073 211.243 224.549 209.338 222.813 207.602C212.441 197.273 201.604 187.409 190.935 177.418C189.242 177.545 188.184 178.857 186.914 179.704C180.183 184.234 172.689 186.816 164.9 188.721C160.328 189.822 156.01 191.642 151.988 194.098C148.898 195.96 146.612 198.458 145.384 201.929C142.717 209.338 140.516 216.746 141.193 224.705Z" fill="#8A8AD9"/>
<path d="M190.851 177.502C201.562 187.493 212.357 197.357 222.729 207.686C224.464 209.422 226.031 211.327 227.639 213.147C229.587 212.258 231.196 210.819 232.847 209.507C238.181 205.273 244.234 202.437 250.585 200.151C251.728 199.728 252.955 200.913 253.929 199.685C254.818 188.932 255.284 178.137 255.919 167.384C256.173 162.77 256.215 158.198 255.749 153.626C248.045 153.541 240.678 155.446 233.397 157.605C222.559 160.823 212.315 165.352 202.324 170.644C199.106 172.337 195.804 173.861 192.714 175.809C191.952 176.232 191.105 176.528 190.851 177.502Z" fill="#F7BA92"/>
<path d="M171.208 273.261C168.372 271.906 165.874 269.874 162.826 268.901C162.064 268.647 161.344 268.266 160.582 268.181C158.338 267.842 157.661 268.562 158.084 270.848C158.889 274.87 159.778 278.934 160.624 282.955C161.344 286.258 160.878 287.274 157.788 288.417C151.099 290.957 146.866 295.783 144.622 302.514C143.733 305.138 142.802 307.763 141.828 310.346C140.727 313.224 139.542 313.859 136.494 313.224C133.234 312.547 130.017 311.616 126.715 311.319C125.36 311.192 124.048 311.108 122.693 311.023C122.524 311.658 122.736 312.251 122.905 312.886C124.26 317.754 126.207 322.326 129.551 326.221C133.319 328.041 137.087 329.819 140.854 331.64C142.633 332.486 144.368 333.46 145.723 334.942C148.602 336.423 151.65 335.492 154.613 335.746C157.111 332.952 160.624 331.809 163.673 329.862C167.271 327.618 170.954 325.501 174.637 323.342C174.679 321.268 175.484 319.574 176.923 318.093C177.389 317.669 177.6 317.119 177.6 316.484C177.516 315.849 177.6 315.341 178.362 315.214C179.378 310.261 180.902 305.35 181.156 300.312C181.664 290.703 179.759 281.728 172.351 274.743C171.928 274.362 171.589 273.769 171.208 273.261Z" fill="#7B4720"/>
<path d="M398.457 310.008C396.848 310.431 395.155 310.389 393.504 310.389C385.376 310.346 377.205 310.304 369.077 310.304C368.019 317.713 367.85 325.121 369.247 332.529C369.585 334.35 370.474 336.001 371.49 337.483C372.803 339.472 374.538 340.531 377.205 340.615C389.017 340.912 400.786 341.631 412.597 341.97C416.237 342.055 419.878 340.996 421.826 337.567C424.493 332.826 425.128 325.883 417.931 321.946C411.284 318.178 404.934 313.945 398.457 310.008Z" fill="#F7BB93"/>
<path d="M158.339 337.482C162.954 337.947 167.526 337.693 172.14 337.651C181.454 337.566 190.725 337.439 200.038 338.074C201.732 338.201 203.383 337.82 204.949 337.397C207.658 336.677 208.42 334.222 206.685 332.063C205.965 331.132 205.034 330.285 204.06 329.692C198.387 326.433 192.291 324.316 185.729 323.808C183.147 323.639 180.565 322.665 177.982 323.681C175.95 326.687 173.114 328.761 170.066 330.624C166.213 333.037 162.361 335.407 158.339 337.482Z" fill="#7B4822"/>
<path d="M158.338 337.481C162.36 335.407 166.213 332.994 170.065 330.623C173.113 328.761 175.949 326.644 177.981 323.681C177.431 323.511 176.838 323.384 176.288 323.215C175.738 323.257 175.187 323.257 174.679 323.3C171.039 325.459 167.313 327.533 163.715 329.819C160.667 331.724 157.153 332.909 154.655 335.703C155.206 337.693 156.984 337.185 158.338 337.481Z" fill="#5C3515"/>
<path d="M174.637 323.298C175.188 323.256 175.738 323.256 176.246 323.214C175.357 322.579 175.188 321.859 175.78 320.843C176.288 319.996 176.839 319.107 176.881 318.049C175.484 319.531 174.722 321.266 174.637 323.298Z" fill="#7B4822"/>
<path d="M178.362 315.213C177.6 315.34 177.516 315.848 177.6 316.483C177.981 316.144 178.32 315.763 178.362 315.213Z" fill="#7B4822"/>
</svg>
