<svg width="497" height="497" viewBox="0 0 497 497" fill="none" xmlns="http://www.w3.org/2000/svg">
<path d="M135.33 202.99C122.319 219.771 125.268 227.902 123.013 253.16C122.666 256.274 129.952 269.769 135.677 273.575C142.096 277.727 149.209 279.976 157.709 278.592C174.19 275.824 189.977 229.459 209.58 215.1C221.724 204.028 251.389 178.423 260.063 180.845C260.063 180.845 269.605 125.485 266.309 126.004C191.191 139.844 163.608 178.077 150.25 193.821C150.076 193.821 138.973 198.146 135.33 202.99Z" fill="#FF8AA0"/>
<path d="M131.23 273.819C131.23 273.819 129.712 280.929 126.001 292.779L150.29 307C147.929 292.949 154.001 279.406 154.001 279.406C135.447 278.22 132.579 267.217 127.519 264L131.23 273.819Z" fill="#ECAD83"/>
<path d="M137.865 340.424C141.519 350.825 151.264 352.559 157.181 352.905C175.626 353.945 182.761 346.318 190.244 335.223C200.162 320.661 165.185 289.111 157.877 285.99C138.735 277.843 116.287 296.738 109.674 306.1C102.191 316.327 107.76 316.154 112.11 318.754C112.284 318.928 112.632 319.795 112.632 319.795C114.025 320.835 116.113 322.048 117.331 324.302C117.331 324.302 118.897 324.822 119.593 325.169C120.115 325.515 120.289 325.689 120.115 326.382C119.593 328.289 119.071 330.022 119.419 331.063C120.115 334.183 136.299 335.57 137.865 340.424Z" fill="#F6BB92"/>
<path d="M120.001 318C120.001 318 118.676 318.477 115.079 322.932C114.889 323.568 114.889 325 116.972 325C118.486 325 118.108 321.341 120.001 318Z" fill="#D6876B"/>
<path d="M120.001 318.047C120.001 318.047 116.585 317.427 112.22 320.682C111.841 321.302 112.03 322.076 112.22 322.231C113.359 323.626 115.067 322.696 115.067 322.696C118.673 318.512 120.001 318.047 120.001 318.047Z" fill="#CC785E"/>
<path d="M193.265 335.83C205.322 318.102 195.711 277.31 148.707 281.269C145.562 281.613 140.669 283.678 141.019 291.94C141.368 297.792 143.465 303.128 143.465 303.128C144.164 304.677 144.863 306.398 145.562 308.119C146.436 310.012 156.046 314.831 155.172 316.897C146.086 336.002 150.28 349.599 154.998 352.697C167.753 358.033 180.334 354.762 193.265 335.83Z" fill="#602F0F"/>
<path d="M150.301 303.97C140.453 301.355 137.815 304.319 135.001 309.375L149.246 315.128L155.928 316C158.742 310.944 160.149 306.585 150.301 303.97Z" fill="#F6BB92"/>
<path d="M184.759 290.243C191.175 288.527 198.457 296.076 201.058 307.4C203.659 318.723 200.711 329.017 194.296 330.733C187.88 332.449 183.025 325.758 180.425 314.606C177.824 303.282 178.517 291.959 184.759 290.243Z" fill="#4C230C"/>
<path d="M152.047 317.714C153.606 318.407 154.992 319.273 156.031 319.966C157.591 321.006 158.284 321.872 158.284 321.872L159.843 315.462C159.15 314.942 158.284 314.422 157.591 313.902C157.591 313.902 157.417 314.595 157.071 315.808V315.635C155.512 315.635 153.086 315.288 149.794 314.249C149.968 314.422 147.196 315.462 152.047 317.714Z" fill="#602F0F"/>
<path d="M187.216 287.74C193.972 285.834 201.769 294.323 204.541 306.797C207.486 319.098 204.367 330.706 197.611 332.438C190.854 334.344 185.656 326.721 182.884 314.42C179.939 302.12 180.459 289.472 187.216 287.74Z" fill="#602F0F"/>
<path d="M201.432 301.007C202.102 300.83 203.444 303.84 204.282 307.557C205.12 311.451 205.288 314.637 204.45 314.991C203.779 315.168 202.773 312.69 201.935 308.796C201.096 305.079 200.593 301.184 201.432 301.007Z" fill="#4C230C"/>
<path d="M469.274 370.383L413.928 370.727C401.049 373.141 402.268 358.834 405.226 355.214C406.967 352.974 405.401 324.188 401.049 275.926C399.483 258.861 436.38 261.619 435.684 267.652C429.592 314.019 420.89 337.978 424.719 346.079C424.719 346.079 466.489 356.593 471.71 360.385C474.843 362.971 478.15 367.108 469.274 370.383Z" fill="#F6BB92"/>
<path d="M399.908 226.755C398.866 238.373 399.387 251.378 400.951 276C408.422 270.451 428.229 268.717 435.526 267.677C435.7 260.221 439.001 206.988 439.001 206.988C431.704 193.463 381.144 158.437 363.769 149.247C346.569 140.057 317.553 129.827 304.696 128.44C284.368 126.185 275.333 125.665 265.256 126.185L259.001 181.152C259.001 181.152 270.468 186.874 286.279 188.608C303.306 190.516 314.599 182.886 314.599 182.886C341.704 201.96 399.908 226.755 399.908 226.755Z" fill="#3D3C3C"/>
<path d="M40.9171 295.084C49.8431 294.051 64.3761 291.083 64.3761 291.083C76.1808 289.238 91.8591 287.449 102.502 285.587C119.972 283.127 132.181 280.125 136.598 280.112C143.958 280.217 154.363 278.662 158.477 272.833C164.883 263.781 163.88 247.339 151.894 245.617C134.265 242.961 62.7375 264.946 47.4382 272.707C41.1151 275.948 37.2721 279.147 36.4695 281.073C35.6669 282.998 35.9065 287.883 39.1642 293.045C39.6213 293.594 40.1536 294.299 40.9171 295.084Z" fill="#F6BB92"/>
<path d="M84.3431 352.039C66.8535 318.158 64.3148 306.111 62.0548 296.237C59.7195 286.208 54.1405 275.434 53.5441 273.798C52.0699 273.932 50.7518 273.991 49.821 274.055C42.6813 274.804 39.6186 277.627 38.203 279.079C38.203 279.079 33.563 283.817 34.948 289.881C36.9579 299.757 62.8991 343.729 71.068 357.413C72.3424 359.548 75.2304 359.994 77.1036 358.359L84.3431 352.039Z" fill="#F6BB92"/>
<path d="M70.2776 357.235C69.9332 357.141 69.761 356.021 73.0327 349.577C73.0327 349.577 76.4765 349.857 82.5032 349.39C90.7684 348.736 102.305 350.324 108.16 352.565C113.153 354.526 116.081 358.449 114.875 361.811C113.67 365.266 87.4968 360.69 79.2316 360.69L70.2776 357.235Z" fill="#F6BB92"/>
</svg>
