<svg width="500" height="500" viewBox="0 0 500 500" fill="none" xmlns="http://www.w3.org/2000/svg">
<path d="M296.272 202.721C296.966 202.794 297.286 203.38 297.714 203.8C300.847 206.86 303.734 210.152 306.699 213.371C310.541 217.541 314.392 221.704 318.258 225.852C323.134 231.082 327.999 236.324 332.659 241.744C336.116 245.764 339.685 249.68 343.166 253.677C346.08 257.023 348.959 260.4 351.881 263.742C354.275 266.478 356.722 269.169 359.108 271.913C360.076 273.027 360.955 274.222 361.853 275.394C367.627 282.929 373.655 290.261 379.645 297.627C380.74 298.972 381.669 300.406 382.451 301.959C385.6 308.219 387.959 314.745 389.154 321.663C390.55 329.75 390.349 337.737 387.559 345.554C385.944 350.075 383.531 354.13 380.505 357.838C377.838 361.107 374.781 363.947 371.312 366.357C370.152 367.162 369.065 368.083 367.97 368.981C364.859 371.525 361.556 373.78 357.933 375.538C356.487 376.239 355.019 376.872 353.485 377.346C353.465 377.099 353.419 376.852 353.427 376.61C353.454 375.472 352.93 374.628 352.112 373.881C351.465 373.287 350.748 372.84 349.965 372.466C347.348 371.217 344.627 370.234 341.929 369.186C339.747 368.342 337.558 367.517 335.407 366.599C333.765 365.898 332.177 365.069 330.859 363.816C326.125 359.314 321.392 354.816 316.662 350.31C314.118 347.89 311.563 345.477 309.05 343.025C303.098 337.213 296.954 331.596 291.173 325.61C290.359 324.766 289.527 323.945 288.74 323.074C286.713 320.835 284.658 318.626 282.334 316.687C281.96 316.375 281.571 316.059 281.367 315.589C284.577 315.519 287.757 315.982 290.953 316.136C292.919 316.232 294.888 316.363 296.843 316.599C300.331 317.019 303.823 317.289 307.331 317.439C310.715 317.585 314.099 317.755 317.48 317.94C320.247 318.09 323.011 318.283 325.778 318.433C329.529 318.641 333.283 318.834 337.034 319.015C337.35 319.031 337.781 319.223 337.966 318.676C337.816 318.503 337.658 318.322 337.5 318.14C335.353 315.681 333.206 313.222 331.063 310.763C330.334 309.926 329.637 309.067 328.893 308.242C325.84 304.854 322.887 301.385 320.081 297.789C314.431 290.542 309.347 282.906 304.525 275.089C299.275 266.586 294.561 257.806 290.86 248.505C290.432 247.425 289.847 246.396 289.249 245.394C286.624 241.008 283.995 236.625 281.32 232.269C279.678 229.594 278.144 226.846 276.24 224.341C276.101 224.16 276.086 223.886 276.013 223.655C276.764 223.616 277.208 223.084 277.686 222.614C279.258 221.06 280.708 219.395 282.215 217.78C285.942 213.791 289.754 209.879 293.508 205.916C294.476 204.895 295.355 203.796 296.272 202.728V202.721Z" fill="#696E65"/>
<path d="M281.363 315.582C281.567 316.052 281.957 316.368 282.33 316.68C284.655 318.619 286.713 320.828 288.737 323.067C289.523 323.934 290.356 324.759 291.169 325.603C296.951 331.59 303.095 337.206 309.046 343.018C311.559 345.47 314.115 347.883 316.659 350.303C321.388 354.809 326.122 359.307 330.855 363.809C332.173 365.062 333.757 365.895 335.403 366.592C337.554 367.51 339.747 368.335 341.925 369.179C344.623 370.223 347.349 371.206 349.962 372.459C350.744 372.833 351.461 373.284 352.109 373.874C352.926 374.621 353.45 375.466 353.423 376.603C353.416 376.849 353.462 377.092 353.481 377.339C353.462 378.326 353.408 379.309 353.435 380.291C353.462 381.232 353.246 382.134 353.011 383.017C352.729 384.08 352.028 384.871 350.933 385.183C349.993 385.453 349.029 385.668 348.069 385.865C344.519 386.582 340.965 387.268 337.415 387.989C336.741 388.128 336.066 388.162 335.399 388.074C333.638 387.835 331.876 387.553 330.119 387.283C328.847 387.087 327.579 386.813 326.299 386.709C325.528 386.647 324.854 386.443 324.221 386.05C321.388 384.3 318.32 383.001 315.414 381.386C314.832 381.062 314.157 380.897 313.529 380.661C313.159 380.118 312.55 379.933 312.01 379.652C310.7 378.969 309.366 378.329 308.075 377.616C306.838 376.934 305.562 376.283 304.436 375.442C302.416 373.935 300.497 372.289 298.527 370.717C294.438 367.456 290.371 364.172 286.239 360.965C283.664 358.968 280.997 357.083 278.353 355.179C275.905 353.414 273.6 351.475 271.287 349.54C268.127 346.896 264.9 344.333 261.744 341.685C258.822 339.233 255.977 336.693 253.071 334.226C248.708 330.522 244.46 326.687 240.389 322.662C240.081 322.358 239.788 322.042 239.453 321.772C235.783 318.781 232.102 315.798 228.437 312.806C228.14 312.564 227.839 312.379 227.458 312.336C227.365 311.966 227.188 311.658 226.887 311.415C224.262 309.291 221.645 307.167 219.02 305.047C216.06 302.658 213.088 300.291 210.135 297.89C207.803 295.993 205.498 294.066 203.182 292.146C201.151 290.462 199.15 288.743 197.084 287.105C196.136 286.349 195.342 285.378 194.17 284.915C193.472 284.221 192.813 283.485 192.073 282.841C189.849 280.903 187.54 279.052 185.355 277.067C181.801 273.841 178.278 270.576 174.813 267.254C171.567 264.143 168.414 260.94 165.404 257.594C163.465 255.444 161.611 253.227 159.907 250.888C157.857 248.078 156.176 245.113 155.721 241.567C155.386 238.931 155.582 236.402 156.839 234.032C157.822 232.174 159.028 230.474 160.551 229.002C161.657 227.934 162.783 226.897 164.02 225.968C166.121 224.392 168.426 223.27 170.931 222.553C173.286 221.878 175.645 221.828 178.027 222.518C179.924 223.069 181.774 223.717 183.562 224.55C187.926 226.581 192.096 228.944 195.974 231.808C196.363 232.097 196.833 232.278 197.265 232.509C197.477 233.122 197.971 233.477 198.468 233.843C199.3 234.456 200.152 235.057 200.915 235.751C202.947 237.597 204.947 239.47 206.928 241.367C207.946 242.342 209.037 243.213 210.255 243.922C212.182 246.081 214.468 247.85 216.588 249.801C216.646 250.244 216.889 250.494 217.343 250.521C217.663 250.876 217.941 251.3 218.319 251.577C219.633 252.557 220.716 253.775 221.903 254.885C222.343 255.293 222.797 255.686 223.248 256.087C223.353 256.731 223.715 257.109 224.374 257.178C225.099 257.93 225.754 258.766 226.559 259.418C227.716 260.346 228.745 261.403 229.79 262.443C234.022 266.656 238.243 270.885 242.459 275.117C243.369 276.031 244.286 276.94 245.092 277.958C245.62 278.625 246.318 279.157 246.942 279.75C246.973 280.201 247.22 280.448 247.667 280.502C250.384 283.458 253.106 286.411 255.823 289.367C255.846 289.822 256.093 290.069 256.54 290.127C257.43 291.09 258.097 292.25 259.149 293.068C259.173 293.522 259.423 293.765 259.863 293.835C260.614 294.686 261.366 295.538 262.117 296.39C262.137 296.849 262.383 297.092 262.831 297.153C263.582 298.009 264.33 298.865 265.082 299.717C265.097 300.175 265.344 300.418 265.787 300.484C266.697 301.559 267.568 302.677 268.527 303.71C271.588 306.998 274.918 310.012 278.26 313.007C279.262 313.905 280.33 314.73 281.367 315.586L281.363 315.582Z" fill="#FFB78A"/>
<path d="M197.261 232.514C196.829 232.282 196.359 232.101 195.97 231.812C192.092 228.944 187.921 226.585 183.558 224.554C181.77 223.722 179.919 223.07 178.023 222.523C175.641 221.833 173.282 221.883 170.927 222.558C168.421 223.274 166.116 224.396 164.016 225.973C162.778 226.902 161.657 227.935 160.547 229.006C159.02 230.479 157.818 232.182 156.835 234.036C155.578 236.407 155.382 238.939 155.717 241.572C156.168 245.118 157.852 248.086 159.903 250.892C161.611 253.232 163.465 255.448 165.4 257.599C168.41 260.941 171.563 264.148 174.808 267.258C178.274 270.581 181.797 273.846 185.35 277.072C187.536 279.053 189.841 280.903 192.069 282.846C192.809 283.49 193.468 284.226 194.166 284.924C194.127 285.721 194.046 286.519 194.062 287.317C194.116 289.969 193.823 292.602 193.564 295.227C193.383 297.058 193.457 298.912 193.029 300.727C192.894 301.309 192.963 301.957 193.04 302.562C193.167 303.533 193.422 304.489 193.545 305.464C193.749 307.114 194.42 308.671 194.478 310.344C192.03 310.575 189.571 310.506 187.116 310.726C184.244 310.984 181.35 310.899 178.462 311.076C174.049 311.346 169.616 311.15 165.195 311.481C162.011 311.72 158.812 311.566 155.617 311.817C152.19 312.086 148.74 311.94 145.306 312.233C142.739 312.449 140.149 312.476 137.574 312.541C132.721 312.668 127.872 313.027 123.015 313.05C121.539 313.058 120.067 313.127 118.59 313.169C117.503 311.304 116.756 309.284 115.992 307.276C114.524 303.414 113.468 299.428 112.808 295.354C112.546 293.72 112.373 292.066 112.246 290.409C112.018 287.398 111.926 284.392 111.883 281.374C111.826 277.349 112.331 273.395 113.105 269.467C114.25 263.658 115.992 258.019 118.112 252.499C119.442 249.038 121.296 245.839 123.281 242.72C125.436 239.344 127.988 236.256 130.454 233.107C131.222 232.124 132.239 231.407 133.187 230.633C136.14 228.216 139.143 225.865 142.253 223.656C142.901 223.197 143.456 222.611 144.053 222.083C145.834 221.417 147.626 220.777 149.473 220.31C151.496 219.798 153.493 219.177 155.54 218.78C158.789 218.144 162.065 217.662 165.326 217.096C168.711 216.51 172.11 216.036 175.529 215.716C177.056 215.573 178.578 215.404 180.105 215.249C182.055 215.057 184.005 214.791 185.96 214.698C188.23 214.59 190.508 214.636 192.778 214.617C193.457 215.207 193.788 215.993 194.069 216.818C194.705 218.68 195.357 220.542 196.001 222.403C196.664 224.639 197.33 226.871 197.989 229.106C198.232 229.931 198.521 230.748 198.444 231.627C198.047 231.92 197.65 232.217 197.249 232.51L197.261 232.514Z" fill="#8A8ADF"/>
<path d="M118.591 313.165C120.067 313.123 121.54 313.053 123.016 313.046C127.873 313.023 132.718 312.664 137.574 312.537C140.149 312.468 142.736 312.444 145.306 312.229C148.741 311.939 152.194 312.086 155.617 311.812C158.813 311.558 162.012 311.712 165.196 311.477C169.617 311.145 174.05 311.342 178.463 311.072C181.35 310.895 184.245 310.98 187.116 310.721C189.572 310.502 192.031 310.571 194.479 310.34C194.818 310.768 195.111 311.18 195.766 311.261C197.161 311.438 198.537 311.735 199.921 311.99C204.554 312.841 209.195 313.639 213.813 314.568C216.511 315.112 219.271 315.339 221.93 316.075C221.499 317.031 221.148 318.006 221.001 319.055C220.867 320.026 220.655 320.99 220.493 321.957C220.065 324.563 219.629 327.169 219.228 329.778C218.882 332.025 218.573 334.276 218.253 336.527C217.829 339.507 217.413 342.49 216.993 345.47C216.573 348.449 216.153 351.433 215.725 354.409C215.297 357.388 214.854 360.364 214.422 363.343C213.963 366.504 213.481 369.661 213.069 372.829C212.683 375.813 212.113 378.781 212.194 381.81C211.392 381.853 210.606 381.787 209.816 381.614C208.555 381.34 207.256 381.394 205.973 381.19C204.157 380.901 202.303 380.881 200.468 380.704C198.757 380.538 197.053 380.326 195.35 380.103C194.193 379.952 193.033 379.86 191.877 379.69C189.325 379.32 186.735 379.216 184.195 378.804C181.94 378.438 179.662 378.538 177.415 378.149C173.703 377.505 170.11 376.672 166.884 374.514C162.474 371.565 158.288 368.362 154.461 364.685C153.621 363.875 152.699 363.151 151.867 362.33C148.452 358.957 145.287 355.353 142.184 351.691C137.883 346.615 133.963 341.261 130.363 335.672C127.73 331.586 125.355 327.346 123.008 323.091C121.37 320.115 119.982 317.047 118.799 313.871C118.714 313.643 118.66 313.4 118.595 313.165H118.591Z" fill="#FFB78B"/>
<path d="M212.193 381.81C212.112 378.78 212.679 375.812 213.068 372.829C213.481 369.66 213.963 366.504 214.421 363.343C214.853 360.363 215.296 357.388 215.724 354.408C216.152 351.428 216.572 348.449 216.992 345.469C217.412 342.49 217.832 339.506 218.253 336.527C218.573 334.276 218.881 332.025 219.228 329.778C219.629 327.168 220.064 324.562 220.492 321.957C220.65 320.986 220.866 320.026 221.001 319.054C221.147 318.006 221.498 317.031 221.93 316.075C223.768 314.83 225.611 313.585 227.45 312.34C227.831 312.386 228.132 312.571 228.429 312.81C232.098 315.805 235.775 318.785 239.445 321.776C239.776 322.046 240.073 322.365 240.381 322.666C244.456 326.69 248.699 330.525 253.063 334.23C255.969 336.697 258.818 339.237 261.735 341.688C264.892 344.336 268.119 346.899 271.279 349.544C273.592 351.479 275.897 353.417 278.345 355.183C280.989 357.091 283.656 358.972 286.231 360.968C290.363 364.172 294.429 367.459 298.519 370.72C300.493 372.293 302.408 373.939 304.428 375.446C305.557 376.286 306.829 376.938 308.067 377.62C309.362 378.333 310.692 378.973 312.002 379.655C312.542 379.937 313.151 380.122 313.521 380.665C312.045 380.765 310.572 380.889 309.096 380.958C304.725 381.155 300.354 381.343 295.979 381.505C293.454 381.598 290.926 381.602 288.401 381.702C286.308 381.783 284.223 381.941 282.145 382.265C280.26 382.558 278.356 382.789 276.452 382.874C267.028 383.286 257.6 383.394 248.168 383.147C245.643 383.082 243.114 383.009 240.59 382.924C237.633 382.824 234.677 382.681 231.72 382.604C228.702 382.523 225.68 382.519 222.662 382.45C219.644 382.376 216.626 382.261 213.608 382.172C213.103 382.157 212.633 382.045 212.189 381.814L212.193 381.81Z" fill="#696E65"/>
<path d="M192.787 214.616C190.513 214.636 188.235 214.589 185.968 214.697C184.01 214.79 182.064 215.056 180.113 215.249C178.587 215.399 177.064 215.569 175.538 215.715C172.119 216.035 168.719 216.509 165.335 217.095C162.074 217.658 158.798 218.143 155.549 218.779C153.506 219.18 151.505 219.801 149.482 220.31C147.635 220.776 145.843 221.416 144.062 222.083C144.031 221.501 144.286 221.007 144.532 220.506C144.995 219.566 145.469 218.633 145.928 217.689C148.626 212.15 151.324 206.614 154.014 201.072C155.603 197.803 157.221 194.546 158.732 191.243C161.061 186.147 163.554 181.125 165.647 175.925C166.889 172.845 168.026 169.719 169.209 166.612C169.799 165.059 170.369 163.498 170.971 161.952C171.93 159.478 172.566 156.91 173.252 154.355C174.208 150.793 175.072 147.205 175.993 143.632C176.224 142.737 176.617 141.913 177.095 141.107C178.047 139.496 179.493 138.864 181.25 138.802C182.788 138.748 184.334 138.729 185.872 138.79C187.715 138.864 188.89 137.958 189.7 136.416C190.243 135.379 190.717 134.311 191.384 133.34C192.629 131.525 194.498 131.135 196.283 132.465C197.316 133.232 198.307 134.088 199.189 135.028C200.619 136.551 202.073 138.085 203.287 139.777C204.674 141.716 206.463 142.988 208.614 143.882C209.466 144.237 210.271 144.699 211.092 145.12C211.697 145.428 212.287 145.763 212.965 145.879C213.374 146.388 213.991 146.542 214.55 146.789C216.419 147.613 218.107 148.743 219.796 149.88C221.125 150.774 221.615 151.973 221.268 153.545C220.91 155.172 220.462 156.772 219.846 158.317C218.107 162.661 216.369 167.005 214.619 171.346C213.975 172.945 213.258 174.514 212.649 176.125C212.322 176.989 211.732 177.37 210.884 177.509C209.913 177.667 208.941 177.829 207.978 178.033C206.532 178.334 205.083 178.631 203.657 179.005C202.693 179.259 202.312 180.119 202.682 181.028C202.843 181.425 203.075 181.795 203.306 182.158C203.738 182.844 204.011 183.595 204.235 184.366C205.102 187.342 203.823 189.936 200.939 191.042C200.427 191.239 199.883 191.381 199.344 191.493C197.116 191.944 194.838 190.9 193.704 188.93C193.55 188.664 193.423 188.379 193.238 188.136C192.483 187.161 191.369 186.933 190.285 187.569C189.811 187.847 189.364 188.19 188.963 188.568C188.019 189.45 187.102 190.364 186.18 191.273C185.961 191.489 185.745 191.713 185.56 191.956C184.739 193.047 184.565 194.172 185.356 195.375C185.726 195.937 186.073 196.527 186.362 197.136C187.256 199.029 188.092 200.948 188.99 202.841C190.1 205.177 191.16 207.536 192.517 209.748C193.072 210.65 193.72 211.452 194.583 212.072C193.986 212.924 193.392 213.776 192.795 214.628L192.787 214.616Z" fill="#FFB78B"/>
<path d="M194.575 212.065C193.712 211.449 193.06 210.647 192.509 209.741C191.152 207.529 190.092 205.17 188.982 202.834C188.084 200.941 187.247 199.026 186.353 197.129C186.064 196.52 185.717 195.934 185.347 195.368C184.557 194.165 184.73 193.04 185.552 191.949C185.737 191.702 185.952 191.482 186.172 191.266C187.093 190.361 188.007 189.443 188.955 188.561C189.356 188.187 189.803 187.84 190.277 187.562C191.364 186.93 192.478 187.154 193.23 188.129C193.415 188.368 193.542 188.657 193.696 188.923C194.833 190.893 197.107 191.937 199.335 191.486C199.875 191.378 200.418 191.236 200.931 191.035C203.814 189.929 205.094 187.335 204.227 184.359C204.003 183.592 203.729 182.837 203.298 182.151C203.07 181.788 202.835 181.414 202.673 181.021C202.299 180.108 202.685 179.248 203.648 178.998C205.075 178.624 206.524 178.327 207.969 178.026C208.933 177.826 209.904 177.664 210.876 177.502C211.724 177.363 212.317 176.985 212.641 176.118C213.25 174.507 213.967 172.934 214.611 171.339C216.361 166.998 218.099 162.654 219.837 158.31C220.454 156.765 220.901 155.165 221.26 153.538C221.607 151.966 221.117 150.767 219.787 149.873C218.099 148.736 216.411 147.606 214.541 146.781C213.986 146.535 213.366 146.384 212.957 145.872C216.145 145.159 219.298 145.49 222.439 146.199C225.766 146.947 228.842 148.273 231.671 150.189C235.225 152.594 237.83 155.77 239.499 159.721C239.596 159.945 239.707 160.161 239.812 160.38C240.093 162.076 240.386 163.772 240.648 165.472C241.222 169.176 241.8 172.88 242.34 176.592C242.799 179.757 243.2 182.925 243.628 186.094C244.009 188.896 244.344 191.706 244.799 194.493C244.969 195.53 245.119 196.551 245.073 197.599C244.545 199.292 244.001 200.976 243.018 202.479C242.818 202.784 242.687 203.131 242.525 203.458C240.802 205.459 239.002 207.367 236.89 208.982C234.978 210.439 232.966 211.742 230.842 212.813C228.66 213.916 226.413 214.953 224.016 215.542C221.106 216.255 218.199 217.03 215.15 216.872C213.863 216.807 212.564 216.872 211.273 216.853C210.783 216.845 210.29 216.822 209.808 216.745C206.936 216.302 204.257 215.242 201.59 214.162C200.114 213.565 198.607 213.01 197.2 212.277C196.294 211.803 195.469 211.85 194.571 212.065H194.575Z" fill="#8A4101"/>
<path d="M245.081 197.6C245.127 196.552 244.973 195.53 244.807 194.493C244.356 191.703 244.017 188.893 243.635 186.094C243.207 182.926 242.803 179.757 242.348 176.593C241.812 172.881 241.23 169.177 240.656 165.473C240.394 163.773 240.097 162.077 239.819 160.381C240.999 159.201 241.916 157.825 242.83 156.441C243.99 154.676 245.624 153.554 247.629 152.907C250.095 152.109 252.239 152.764 254.147 154.345C254.948 155.008 255.654 155.802 256.328 156.596C258.722 159.402 261.069 162.246 263.463 165.052C264.739 166.548 266.088 167.986 267.395 169.458C268.535 170.746 269.673 172.041 270.802 173.34C272.051 174.781 273.277 176.234 274.525 177.676C276.738 180.235 278.954 182.787 281.174 185.339C282.142 186.453 283.094 187.582 284.088 188.669C287.249 192.115 290.236 195.707 293.243 199.284C293.875 200.036 294.615 200.695 295.297 201.404C295.679 201.798 296.145 202.133 296.276 202.715C295.359 203.779 294.48 204.881 293.513 205.899C289.758 209.861 285.946 213.773 282.219 217.763C280.712 219.378 279.263 221.043 277.69 222.596C277.212 223.071 276.769 223.603 276.017 223.637C274.298 223.618 272.606 223.31 270.921 223.032C266.82 222.361 262.734 221.621 258.637 220.947C257.438 220.75 256.247 220.396 255.006 220.554C253.399 219.883 251.973 218.95 250.824 217.62C249.016 215.535 247.798 213.161 247.278 210.439C247.047 209.233 246.8 208.034 246.561 206.831C246.549 206.531 246.572 206.219 246.515 205.926C246.175 204.207 245.983 202.468 245.751 200.734C245.613 199.685 245.682 198.56 245.096 197.592L245.081 197.6Z" fill="#FFB78A"/>
<path d="M210.672 243.125C210.352 243.295 210.309 243.615 210.255 243.923C209.037 243.214 207.95 242.343 206.929 241.367C204.948 239.471 202.947 237.594 200.916 235.751C200.153 235.057 199.301 234.456 198.468 233.843C197.971 233.477 197.478 233.126 197.266 232.51C197.663 232.217 198.06 231.924 198.461 231.627C198.638 231.793 198.831 231.943 198.985 232.128C202.196 235.998 205.869 239.371 209.881 242.389C210.167 242.605 210.413 242.874 210.676 243.121L210.672 243.125Z" fill="#F1E5DB"/>
<path d="M223.241 256.088C223.962 256.096 224.328 256.469 224.367 257.179C223.708 257.109 223.345 256.732 223.241 256.088Z" fill="#F1E5DB"/>
<path d="M216.584 249.801C217.077 249.79 217.328 250.032 217.339 250.522C216.885 250.491 216.642 250.244 216.584 249.801Z" fill="#F1E5DB"/>
<path d="M246.935 279.752C247.424 279.764 247.667 280.01 247.659 280.504C247.212 280.453 246.965 280.207 246.935 279.752Z" fill="#F1E5DB"/>
<path d="M255.819 289.363C256.309 289.379 256.548 289.633 256.536 290.123C256.093 290.061 255.842 289.818 255.819 289.363Z" fill="#F1E5DB"/>
<path d="M259.146 293.062C259.639 293.078 259.882 293.332 259.859 293.83C259.419 293.76 259.172 293.517 259.146 293.062Z" fill="#F1E5DB"/>
<path d="M262.113 296.387C262.599 296.406 262.838 296.66 262.826 297.15C262.383 297.088 262.133 296.845 262.113 296.387Z" fill="#F1E5DB"/>
<path d="M265.074 299.713C265.56 299.74 265.795 299.99 265.78 300.48C265.336 300.418 265.086 300.172 265.074 299.713Z" fill="#F1E5DB"/>
<path d="M210.671 243.123C210.409 242.877 210.163 242.607 209.877 242.391C205.865 239.373 202.191 236 198.981 232.13C198.826 231.945 198.634 231.795 198.456 231.629C198.534 230.746 198.244 229.929 198.002 229.108C197.343 226.873 196.676 224.641 196.013 222.405C196.626 222.386 197.242 222.459 197.832 222.197C198.298 221.989 198.792 222.024 199.285 222.116C202.646 222.744 206.015 223.334 209.438 223.531C209.681 223.546 209.935 223.573 210.159 223.654C212.152 224.371 214.295 224.047 216.318 224.548C216.484 224.591 216.684 224.529 216.858 224.483C218.346 224.097 219.891 224.182 221.402 223.935C222.805 223.708 224.17 223.423 225.492 222.937C228.448 221.846 231.166 220.308 233.729 218.485C234.08 218.238 234.469 218.03 234.762 217.726C236.169 216.273 237.707 214.947 238.906 213.285C239.557 212.383 239.993 211.362 240.679 210.495C241.527 209.423 242.051 208.167 242.618 206.941C243.003 206.108 243.323 205.233 243.242 204.281C244.398 205.064 245.3 206.174 246.545 206.841C246.784 208.043 247.031 209.246 247.262 210.448C247.783 213.17 249.001 215.544 250.809 217.629C251.961 218.959 253.383 219.892 254.991 220.563C255.141 221.681 255.627 222.69 256.108 223.677C257.5 226.518 258.302 229.551 259.15 232.577C260.545 237.538 261.05 242.614 261.289 247.733C261.428 250.69 261.647 253.638 262.079 256.568C262.214 257.481 262.341 258.406 262.588 259.293C262.858 260.26 262.892 261.243 262.912 262.222C262.939 263.676 262.145 264.485 260.695 264.608C259.08 264.747 257.523 264.57 255.97 264.046C249.66 261.926 243.427 259.617 237.391 256.795C236.778 256.51 236.146 256.263 235.51 256.028C226.849 252.848 218.658 248.77 211.142 243.385C210.995 243.281 210.822 243.208 210.664 243.119L210.671 243.123Z" fill="#894101"/>
<path d="M243.246 204.282C243.331 205.238 243.007 206.109 242.621 206.942C242.055 208.167 241.53 209.424 240.682 210.495C239.996 211.367 239.561 212.384 238.909 213.286C237.707 214.947 236.173 216.273 234.766 217.726C234.473 218.031 234.08 218.235 233.733 218.486C231.17 220.305 228.448 221.847 225.496 222.938C224.174 223.423 222.809 223.709 221.406 223.936C219.895 224.179 218.349 224.094 216.862 224.483C216.688 224.53 216.488 224.591 216.322 224.549C214.298 224.048 212.155 224.372 210.162 223.655C209.935 223.574 209.684 223.547 209.442 223.531C206.019 223.335 202.65 222.745 199.289 222.117C198.799 222.024 198.302 221.99 197.836 222.198C197.246 222.46 196.629 222.387 196.016 222.406C195.373 220.544 194.721 218.686 194.085 216.821C193.804 215.996 193.472 215.206 192.794 214.62C193.391 213.768 193.985 212.916 194.582 212.064C195.481 211.844 196.305 211.802 197.211 212.276C198.618 213.012 200.125 213.564 201.602 214.161C204.273 215.24 206.952 216.304 209.819 216.744C210.301 216.817 210.795 216.844 211.284 216.851C212.575 216.867 213.87 216.805 215.162 216.871C218.211 217.029 221.117 216.254 224.027 215.541C226.425 214.955 228.672 213.914 230.853 212.812C232.977 211.74 234.993 210.438 236.901 208.981C239.017 207.369 240.814 205.458 242.536 203.457C242.864 203.654 243.103 203.927 243.25 204.278L243.246 204.282Z" fill="#6C2F00"/>
</svg>
