<svg width="500" height="500" viewBox="0 0 500 500" fill="none" xmlns="http://www.w3.org/2000/svg">
<path d="M455.733 191.234C454.967 191.205 454.195 191.107 453.436 191.163C448.755 191.53 444.077 191.95 439.396 192.313C435.653 192.606 431.903 192.842 428.16 193.11C425.179 193.326 422.198 193.534 419.22 193.774C414.197 194.176 409.177 194.617 404.153 195.001C395.979 195.629 387.802 196.24 379.624 196.836C375.197 197.157 370.763 197.407 366.335 197.735C359.95 198.205 353.568 198.72 347.183 199.196C342.413 199.552 337.64 199.87 332.871 200.233C328.958 200.529 325.05 200.886 321.134 201.186C318.41 201.394 315.683 201.552 312.956 201.743C307.844 202.106 302.733 202.48 297.625 202.844C292.432 203.214 287.232 203.539 282.042 203.955C274.895 204.526 267.751 205.172 260.607 205.779C259.757 205.853 258.904 205.892 258.05 205.948C257.612 205.976 257.217 206.114 256.886 206.41C253.503 206.837 250.102 206.908 246.697 206.901C236.051 206.879 225.407 206.894 214.76 206.886C211.952 206.886 209.141 206.964 206.354 206.523C206.078 206.072 205.997 205.574 205.98 205.052C205.5 191.41 209.25 179.098 217.59 168.24C219.368 165.925 221.516 163.989 223.784 162.151C233.923 153.931 245.636 149.765 258.508 148.445C266.636 147.613 274.708 147.99 282.755 149.225C294.139 150.971 305.506 152.809 316.89 154.555C326.503 156.03 336.13 157.416 345.747 158.856C349.543 159.424 353.339 160.002 357.124 160.616C358.324 160.81 359.467 160.785 360.666 160.514C368.092 158.824 375.631 157.97 383.226 157.557C384.673 157.48 386.126 157.529 387.58 157.547C397.397 157.67 407.212 157.79 417.029 157.928C428.382 158.083 439.734 158.252 451.087 158.422C453.217 158.454 455.352 158.506 457.483 158.549C457.782 159.11 457.659 159.709 457.617 160.299C457.292 164.698 456.883 169.09 456.65 173.492C456.375 178.745 456.248 184.009 456.057 189.265C456.033 189.935 456.181 190.634 455.743 191.237L455.733 191.234Z" fill="#696E66"/>
<path d="M146.787 408.373C147.352 407.107 147.662 405.692 148.879 404.807C149.436 405.435 149.962 406.094 150.555 406.69C152.206 408.356 154.16 409.573 156.485 409.911C158.796 410.25 159.378 409.534 159.177 407.191C159.138 406.743 158.919 406.387 158.619 406.077C157.97 405.406 157.303 404.75 156.651 404.08C155.095 402.482 153.257 401.575 150.978 401.748C151.236 401.413 151.49 401.078 151.751 400.746C153.183 398.919 155.088 398.834 157.049 399.494C159.138 400.199 161.124 401.166 163.04 402.284C165.382 403.653 167.767 404.955 170.166 406.225C171.362 406.856 172.628 407.354 173.863 407.911C173.933 408.059 173.962 408.274 174.078 408.352C176.138 409.661 178.227 410.927 180.566 411.682C182.584 412.335 184.633 412.762 186.75 412.102C188.013 412.554 189.255 412.448 190.482 411.971C190.994 412.127 191.505 412.187 192.027 412.021C192.334 412.247 192.638 412.247 192.938 412C195.904 411.774 198.875 411.569 201.838 411.322C207.095 410.881 212.354 410.458 217.607 409.947C223.372 409.386 229.175 409.58 234.936 408.92C238.823 408.475 242.722 408.112 246.581 407.449C247.082 407.364 247.597 407.301 248.073 407.135C249.728 406.567 250.261 405.671 249.798 403.999C249.149 401.642 248.091 399.54 245.745 398.386C246.041 397.031 245.579 395.909 244.807 394.809C242.715 391.817 240.654 388.805 238.626 385.771C236.506 382.596 234.463 379.371 232.35 376.196C227.503 368.915 222.761 361.563 217.717 354.416C215.417 351.16 213.169 347.868 210.707 344.725C210.291 344.192 210.051 343.525 209.352 343.261C209.419 342.492 208.869 342.008 208.474 341.472C206.206 338.378 204.117 335.165 202.237 331.82C200.734 329.143 199.337 326.416 198.427 323.463C197.668 321.004 197.125 318.464 197.277 315.938C197.45 313.038 198.48 310.308 200.099 307.817C201.2 306.124 202.614 304.847 204.343 303.845C206.897 302.363 209.659 301.651 212.563 301.245C214.954 300.91 217.251 300.811 219.597 301.633C223.866 303.132 227.383 305.45 229.334 309.708C229.581 310.251 229.866 310.777 230.159 311.296C232.996 316.347 235.85 321.389 238.675 326.444C241.42 331.351 244.094 336.304 246.892 341.179C248.331 343.688 249.982 346.076 251.527 348.524C251.866 349.064 252.254 349.473 252.959 349.353C253.026 349.939 253.033 350.525 253.376 351.068C254.504 352.867 255.602 354.684 256.695 356.508C259.493 361.171 262.294 365.832 265.067 370.506C266.975 373.72 268.792 376.993 270.739 380.183C273.622 384.892 276.394 389.651 278.726 394.671C280.924 399.398 282.543 404.246 283.422 409.41C284.025 412.956 283.753 416.353 282.942 419.733C282.226 422.717 281.005 425.536 278.97 427.931C278.652 428.305 278.458 428.817 278.306 429.293C278.19 429.663 278.522 429.896 278.797 430.101C277.192 432.747 274.553 433.978 271.844 435.022C269.286 436.006 266.566 436.497 263.85 436.532C256.265 436.624 248.694 437.139 241.102 437.075C231.637 436.994 222.158 436.916 212.704 437.266C205.461 437.534 198.212 437.396 190.983 437.774C187.41 437.961 183.815 437.858 180.269 438.264C177.394 438.596 174.501 438.603 171.63 439.019C168.86 439.421 166.063 439.693 163.294 440.137C162.292 440.296 161.251 440.275 160.231 440.25C159.194 440.222 158.221 439.954 157.564 439.04C153.977 436.627 150.569 433.978 147.359 431.081C147.475 430.503 147.528 429.9 147.729 429.349C148.004 428.594 147.782 428.03 147.26 427.508C146.417 426.665 145.591 425.804 144.723 424.985C143.961 424.269 143.065 423.804 141.989 423.768C141.919 422.745 141.848 421.719 141.778 420.696H141.753C142.54 420.685 143.238 420.957 143.944 421.285C145.249 421.892 146.572 422.467 147.905 423.01C149.271 423.564 150.523 423.024 151.289 421.616C151.842 420.597 151.539 419.101 150.438 418.484C148.152 417.203 145.884 415.824 143.185 415.531C143.407 414.783 143.693 414.071 144.3 413.538C145.387 414.198 146.498 414.825 147.56 415.528C149.133 416.568 150.809 417.38 152.608 417.93C152.922 418.029 153.278 418.11 153.596 418.064C154.785 417.895 155.896 416.787 156.072 415.457C156.291 413.778 156.224 413.051 154.809 412.148C153.737 411.463 152.643 410.793 151.5 410.239C149.983 409.506 148.593 408.419 146.801 408.373H146.787Z" fill="#FFB78A"/>
<path d="M252.956 349.36C252.25 349.476 251.866 349.07 251.523 348.531C249.978 346.082 248.327 343.694 246.888 341.186C244.09 336.307 241.416 331.357 238.672 326.45C235.846 321.395 232.992 316.354 230.156 311.302C229.863 310.783 229.581 310.254 229.33 309.714C227.379 305.456 223.862 303.138 219.594 301.639C217.251 300.814 214.951 300.916 212.559 301.251C209.659 301.657 206.893 302.373 204.339 303.851C202.611 304.853 201.196 306.13 200.095 307.823C198.476 310.314 197.446 313.048 197.273 315.944C197.122 318.47 197.668 321.014 198.423 323.469C199.333 326.422 200.727 329.149 202.233 331.826C204.114 335.174 206.199 338.385 208.47 341.478C208.866 342.015 209.412 342.498 209.349 343.267C209.031 343.373 208.714 343.475 208.396 343.577C203.683 340.992 199.584 337.64 195.95 333.696C195.379 333.075 194.758 332.504 194.158 331.911C193.304 329.96 192.37 328.045 191.615 326.055C190.034 321.889 189.075 317.595 188.845 313.112C188.697 310.205 188.782 307.315 189.011 304.44C189.226 301.731 189.696 299.032 190.235 296.362C192.186 286.674 194.197 277.001 196.222 267.331C197.39 261.743 198.607 256.166 199.852 250.599C200.148 249.276 200.501 247.95 201.189 246.754C202.11 246.927 203.034 247.082 203.951 247.272C210.033 248.535 216.115 249.802 222.197 251.072C229.362 252.568 236.523 254.074 243.688 255.563C248.853 256.635 254.025 257.69 259.193 258.752C259.203 266.171 259.059 273.597 259.271 281.012C259.436 286.805 259.457 292.612 259.817 298.39C260.107 303.079 259.983 307.77 260.294 312.445C260.593 316.96 260.636 321.472 260.675 325.991C260.72 331.251 259.965 336.353 257.69 341.154C257.62 341.302 257.616 341.486 257.581 341.651C256.875 342.396 256.565 343.369 256.11 344.255C255.185 346.036 254.152 347.747 252.956 349.36Z" fill="#8B8BDF"/>
<path d="M259.189 258.751C254.021 257.689 248.853 256.638 243.685 255.562C236.52 254.073 229.358 252.567 222.194 251.071C216.112 249.801 210.03 248.535 203.948 247.272C203.031 247.081 202.106 246.926 201.186 246.753C201.013 243.483 201.87 240.354 202.579 237.221C203.588 232.758 204.593 228.289 205.207 223.759C205.549 221.251 205.945 218.728 205.92 216.167C205.885 212.946 206.502 209.747 206.35 206.515C209.137 206.956 211.952 206.879 214.757 206.879C225.404 206.889 236.051 206.872 246.694 206.893C250.102 206.9 253.499 206.833 256.882 206.402C257.126 209.281 257.348 212.163 257.623 215.038C257.867 217.575 258.17 220.104 258.445 222.637C258.491 223.061 258.579 223.48 258.586 223.904C258.618 227.139 259.02 230.356 259.285 233.57C259.828 240.209 259.62 246.845 259.719 253.484C259.736 254.761 259.662 256.038 259.627 257.319C259.613 257.834 259.57 258.342 259.186 258.744L259.189 258.751Z" fill="#FFB88C"/>
<path d="M245.741 398.393C248.087 399.543 249.146 401.645 249.795 404.002C250.257 405.674 249.724 406.574 248.07 407.138C247.593 407.3 247.078 407.364 246.577 407.452C242.718 408.112 238.82 408.475 234.932 408.923C229.171 409.583 223.368 409.389 217.604 409.95C212.354 410.461 207.094 410.885 201.834 411.325C198.868 411.576 195.901 411.781 192.934 412.003C192.63 412.01 192.327 412.017 192.024 412.024C191.501 412.19 190.99 412.13 190.478 411.975C190.21 411.103 189.928 410.235 189.674 409.36C189.371 408.327 188.866 407.346 188.863 406.238C187.903 401.363 187.674 396.481 188.33 391.531C188.722 388.589 188.838 385.611 189.424 382.683C190.443 377.575 192.013 372.654 194.151 367.909C194.856 366.343 195.724 364.893 197.114 363.82C199.051 365.277 200.356 367.288 201.81 369.165C203.584 371.454 205.345 373.751 207.048 376.09C208.139 377.582 209.44 378.252 211.374 378.193C215.455 378.066 219.547 378.224 223.636 378.203C225.435 378.196 226.744 378.94 227.647 380.45C228.085 381.181 228.508 381.921 228.896 382.676C230.618 386.003 232.367 389.316 234.015 392.678C234.802 394.286 235.93 395.465 237.514 396.244C238.125 396.544 238.731 396.858 239.324 397.193C240.248 397.722 241.219 397.927 242.27 397.708C243.395 398.079 244.542 398.364 245.738 398.386L245.741 398.393Z" fill="#8A4102"/>
<path d="M455.733 191.234C456.17 190.63 456.022 189.932 456.047 189.262C456.238 184.002 456.365 178.742 456.64 173.489C456.873 169.086 457.282 164.694 457.606 160.295C457.649 159.706 457.772 159.11 457.472 158.545C459.592 158.252 461.695 158.33 463.826 158.545C466.278 158.792 468.761 158.792 471.231 158.806C473.047 158.817 474.765 159.205 476.491 159.709C477.683 160.059 478.625 160.708 479.482 161.575C481.786 163.914 482.96 166.835 483.61 169.943C484.721 175.267 485.726 180.615 486.312 186.034C486.651 189.156 487.391 192.239 487.642 195.365C487.91 198.67 488.489 201.962 488.312 205.295C488.129 208.76 486.735 211.532 483.659 213.314C481.652 214.478 479.634 214.595 477.63 213.3C476.554 212.605 475.51 211.875 474.631 210.926C473.241 209.43 471.703 208.068 470.497 206.4C470.201 205.99 469.802 205.652 469.446 205.281C465.501 201.154 461.268 197.308 457.627 192.892C457.081 192.228 456.432 191.703 455.729 191.227L455.733 191.234Z" fill="#FFB88C"/>
<path d="M242.273 397.715C241.222 397.93 240.252 397.725 239.328 397.2C238.738 396.861 238.132 396.551 237.518 396.251C235.93 395.471 234.805 394.293 234.018 392.684C232.371 389.322 230.621 386.009 228.899 382.683C228.508 381.928 228.088 381.187 227.651 380.457C226.748 378.947 225.439 378.203 223.64 378.21C219.551 378.227 215.462 378.072 211.377 378.199C209.447 378.259 208.142 377.592 207.052 376.096C205.344 373.757 203.584 371.461 201.813 369.171C200.36 367.295 199.054 365.28 197.118 363.827C197.259 361.117 197.16 358.401 197.545 355.695C197.746 354.288 197.717 352.817 197.421 351.384C197.301 350.806 197.252 350.206 197.245 349.617C197.167 344.318 196.225 339.171 194.588 334.14C194.355 333.421 193.996 332.719 194.161 331.918C194.761 332.511 195.382 333.082 195.954 333.703C199.587 337.651 203.686 341.002 208.4 343.584C208.717 345.994 209.67 348.121 211.028 350.143C217.353 359.541 223.611 368.984 229.915 378.4C232.283 381.935 234.738 385.413 237.105 388.952C238.996 391.774 241.056 394.501 242.273 397.722V397.715Z" fill="#FEB58A"/>
<path d="M252.956 349.361C254.148 347.748 255.185 346.037 256.109 344.256C256.568 343.374 256.878 342.4 257.581 341.652C260.382 343.741 262.297 346.556 263.969 349.555C269.039 358.646 274.129 367.726 279.114 376.863C282.099 382.331 284.953 387.873 287.771 393.426C289.764 397.353 290.848 401.544 290.89 405.978C290.925 409.795 290.082 413.453 288.583 416.914C286.671 421.327 284.071 425.331 280.628 428.739C280.084 429.279 279.573 429.865 278.804 430.108C278.528 429.903 278.197 429.671 278.313 429.3C278.465 428.82 278.659 428.312 278.977 427.938C281.012 425.543 282.233 422.724 282.949 419.74C283.76 416.36 284.032 412.963 283.429 409.418C282.547 404.253 280.931 399.406 278.733 394.678C276.398 389.658 273.625 384.899 270.746 380.19C268.795 377.001 266.979 373.73 265.074 370.513C262.297 365.839 259.5 361.175 256.702 356.515C255.608 354.695 254.511 352.874 253.382 351.075C253.04 350.532 253.037 349.95 252.966 349.361H252.956Z" fill="#EAA57B"/>
<path d="M141.774 420.701C141.845 421.724 141.915 422.751 141.986 423.774C141.883 425.1 142.42 426.233 143.019 427.365C143.979 429.186 145.559 430.258 147.359 431.087C150.569 433.983 153.977 436.633 157.564 439.046C154.241 438.936 150.918 438.859 147.598 438.703C145.298 438.594 143.002 438.393 140.709 438.206C138.892 438.058 137.195 437.501 135.671 436.506C133.078 434.812 132.27 432.121 133.702 429.383C135.138 426.645 137.047 424.236 139.562 422.37C140.303 421.819 141.037 421.259 141.774 420.701Z" fill="#8C4405"/>
<path d="M146.787 408.373C148.583 408.415 149.969 409.505 151.486 410.239C152.629 410.793 153.723 411.463 154.795 412.147C156.213 413.054 156.277 413.777 156.058 415.456C155.885 416.786 154.774 417.894 153.582 418.063C153.264 418.109 152.908 418.028 152.594 417.929C150.795 417.376 149.119 416.568 147.546 415.527C146.484 414.825 145.376 414.197 144.286 413.537C144.244 411.392 145.288 409.773 146.784 408.369L146.787 408.373Z" fill="#EBA57B"/>
<path d="M150.975 401.751C153.257 401.579 155.095 402.482 156.647 404.083C157.3 404.754 157.963 405.41 158.616 406.08C158.916 406.391 159.134 406.747 159.173 407.195C159.374 409.534 158.789 410.253 156.481 409.915C154.16 409.576 152.202 408.359 150.551 406.694C149.962 406.098 149.433 405.442 148.875 404.81C149.189 403.526 149.764 402.422 150.971 401.755L150.975 401.751Z" fill="#EBA57A"/>
<path d="M143.174 415.529C145.873 415.822 148.142 417.202 150.428 418.482C151.532 419.099 151.832 420.592 151.278 421.615C150.512 423.022 149.26 423.562 147.895 423.008C146.561 422.468 145.238 421.89 143.933 421.283C143.231 420.959 142.529 420.687 141.742 420.694C141.774 419.798 141.76 418.895 141.848 418.006C141.943 417.015 142.166 416.051 143.171 415.529H143.174Z" fill="#EAA479"/>
<path d="M186.746 412.109C184.63 412.769 182.584 412.342 180.562 411.689C178.223 410.934 176.135 409.664 174.075 408.359C173.958 408.285 173.93 408.07 173.859 407.918C177.271 406.959 180.71 407.103 184.157 407.668C184.908 407.791 185.649 407.964 186.397 408.116C186.478 409.453 186.023 410.832 186.746 412.113V412.109Z" fill="#8E4709"/>
<path d="M186.746 412.109C186.023 410.828 186.478 409.445 186.397 408.112C187.473 407.819 188.182 407.046 188.866 406.238C188.866 407.35 189.374 408.33 189.678 409.364C189.935 410.239 190.214 411.107 190.482 411.978C189.254 412.454 188.013 412.564 186.75 412.109H186.746Z" fill="#69370D"/>
<path d="M242.274 397.715C241.057 394.495 238.993 391.768 237.105 388.945C234.738 385.407 232.283 381.932 229.916 378.394C223.612 368.982 217.353 359.534 211.028 350.136C209.666 348.115 208.717 345.988 208.4 343.578C208.717 343.476 209.035 343.37 209.352 343.268C210.051 343.529 210.291 344.199 210.707 344.732C213.166 347.875 215.417 351.166 217.717 354.422C222.762 361.57 227.503 368.922 232.35 376.203C234.463 379.378 236.506 382.606 238.626 385.777C240.651 388.811 242.715 391.828 244.807 394.816C245.576 395.916 246.041 397.038 245.745 398.393C244.549 398.375 243.406 398.089 242.277 397.715H242.274Z" fill="#EBA57A"/>
<path d="M147.355 431.088C145.556 430.259 143.975 429.187 143.016 427.367C142.42 426.234 141.88 425.102 141.982 423.775C143.058 423.807 143.958 424.273 144.716 424.992C145.584 425.811 146.406 426.672 147.253 427.515C147.775 428.037 147.997 428.601 147.722 429.356C147.521 429.907 147.471 430.51 147.352 431.088H147.355Z" fill="#EAA479"/>
<path d="M192.024 412.027C192.327 412.02 192.631 412.013 192.934 412.006C192.634 412.253 192.331 412.253 192.024 412.027Z" fill="#69370D"/>
</svg>
