<svg width="500" height="500" viewBox="0 0 500 500" fill="none" xmlns="http://www.w3.org/2000/svg">
<path d="M75.6124 181.234C76.378 181.205 77.1506 181.107 77.909 181.163C82.5904 181.53 87.2682 181.95 91.9496 182.313C95.6926 182.606 99.4426 182.842 103.186 183.11C106.167 183.326 109.148 183.534 112.125 183.774C117.149 184.176 122.169 184.617 127.192 185.001C135.366 185.629 143.543 186.24 151.721 186.836C156.148 187.157 160.583 187.407 165.01 187.735C171.395 188.205 177.777 188.72 184.162 189.196C188.932 189.552 193.705 189.87 198.475 190.233C202.387 190.529 206.296 190.886 210.212 191.186C212.935 191.394 215.662 191.552 218.389 191.743C223.501 192.106 228.612 192.48 233.721 192.844C238.914 193.214 244.114 193.539 249.303 193.955C256.45 194.526 263.594 195.172 270.738 195.779C271.588 195.853 272.442 195.892 273.295 195.948C273.733 195.976 274.128 196.114 274.46 196.41C277.843 196.837 281.243 196.908 284.648 196.901C295.295 196.879 305.938 196.894 316.585 196.886C319.393 196.886 322.205 196.964 324.992 196.523C325.267 196.072 325.348 195.574 325.366 195.052C325.845 181.41 322.095 169.098 313.756 158.24C311.978 155.925 309.829 153.989 307.561 152.151C297.422 143.931 285.71 139.765 272.837 138.445C264.709 137.613 256.637 137.99 248.59 139.225C237.206 140.971 225.84 142.809 214.455 144.555C204.842 146.03 195.215 147.416 185.598 148.856C181.802 149.424 178.006 150.002 174.221 150.616C173.022 150.81 171.879 150.785 170.679 150.514C163.253 148.824 155.714 147.97 148.119 147.557C146.673 147.48 145.219 147.529 143.766 147.547C133.948 147.67 124.134 147.79 114.316 147.928C102.963 148.083 91.6109 148.252 80.2585 148.422C78.1277 148.454 75.9934 148.506 73.8626 148.549C73.5628 149.11 73.6862 149.709 73.7286 150.299C74.0531 154.698 74.4623 159.09 74.6952 163.492C74.9704 168.745 75.0974 174.009 75.2879 179.265C75.3126 179.935 75.1644 180.634 75.6019 181.237L75.6124 181.234Z" fill="#696E66"/>
<path d="M384.558 398.373C383.993 397.107 383.683 395.692 382.466 394.807C381.908 395.435 381.383 396.094 380.79 396.69C379.139 398.356 377.185 399.573 374.86 399.911C372.549 400.25 371.967 399.534 372.168 397.191C372.207 396.743 372.426 396.387 372.725 396.077C373.375 395.406 374.041 394.75 374.694 394.08C376.25 392.482 378.088 391.575 380.367 391.748C380.109 391.413 379.855 391.078 379.594 390.746C378.162 388.919 376.257 388.834 374.295 389.494C372.207 390.199 370.221 391.166 368.305 392.284C365.963 393.653 363.578 394.955 361.179 396.225C359.983 396.856 358.717 397.354 357.482 397.911C357.411 398.059 357.383 398.274 357.267 398.352C355.206 399.661 353.118 400.927 350.779 401.682C348.761 402.335 346.712 402.762 344.595 402.102C343.332 402.554 342.09 402.448 340.862 401.971C340.351 402.127 339.839 402.187 339.317 402.021C339.01 402.247 338.707 402.247 338.407 402C335.44 401.774 332.47 401.569 329.507 401.322C324.25 400.881 318.99 400.458 313.737 399.947C307.973 399.386 302.17 399.58 296.409 398.92C292.521 398.475 288.623 398.112 284.764 397.449C284.263 397.364 283.748 397.301 283.271 397.135C281.617 396.567 281.084 395.671 281.546 393.999C282.195 391.642 283.254 389.54 285.6 388.386C285.303 387.031 285.766 385.909 286.538 384.809C288.63 381.817 290.69 378.805 292.719 375.771C294.839 372.596 296.882 369.371 298.995 366.196C303.842 358.915 308.583 351.563 313.628 344.416C315.928 341.16 318.175 337.868 320.638 334.725C321.054 334.192 321.294 333.525 321.992 333.261C321.925 332.492 322.476 332.008 322.871 331.472C325.139 328.378 327.228 325.165 329.108 321.82C330.611 319.143 332.008 316.416 332.918 313.463C333.676 311.004 334.22 308.464 334.068 305.938C333.895 303.038 332.865 300.308 331.246 297.817C330.145 296.124 328.73 294.847 327.002 293.845C324.448 292.363 321.685 291.651 318.782 291.245C316.39 290.91 314.094 290.811 311.748 291.633C307.479 293.132 303.962 295.45 302.011 299.708C301.764 300.251 301.478 300.777 301.186 301.296C298.349 306.347 295.495 311.389 292.669 316.444C289.925 321.351 287.251 326.304 284.453 331.179C283.014 333.688 281.363 336.076 279.818 338.524C279.479 339.064 279.091 339.473 278.385 339.353C278.318 339.939 278.311 340.525 277.969 341.068C276.84 342.867 275.743 344.684 274.649 346.508C271.852 351.171 269.051 355.832 266.278 360.506C264.37 363.72 262.553 366.993 260.605 370.183C257.723 374.892 254.95 379.651 252.618 384.671C250.421 389.398 248.801 394.246 247.923 399.41C247.32 402.956 247.591 406.353 248.403 409.733C249.119 412.717 250.34 415.536 252.375 417.931C252.693 418.305 252.887 418.817 253.038 419.293C253.155 419.663 252.823 419.896 252.548 420.101C254.153 422.747 256.792 423.978 259.501 425.022C262.059 426.006 264.779 426.497 267.495 426.532C275.08 426.624 282.651 427.139 290.242 427.075C299.707 426.994 309.187 426.916 318.641 427.266C325.884 427.534 333.133 427.396 340.362 427.774C343.935 427.961 347.53 427.858 351.075 428.264C353.951 428.596 356.843 428.603 359.715 429.019C362.484 429.421 365.282 429.693 368.051 430.137C369.053 430.296 370.094 430.275 371.113 430.25C372.15 430.222 373.124 429.954 373.78 429.04C377.368 426.627 380.776 423.978 383.986 421.081C383.87 420.503 383.817 419.9 383.616 419.349C383.341 418.594 383.563 418.03 384.085 417.508C384.928 416.665 385.754 415.804 386.621 414.985C387.383 414.269 388.279 413.804 389.355 413.768C389.426 412.745 389.497 411.719 389.567 410.696H389.592C388.805 410.685 388.107 410.957 387.401 411.285C386.096 411.892 384.773 412.467 383.439 413.01C382.074 413.564 380.822 413.024 380.056 411.616C379.502 410.597 379.806 409.101 380.906 408.484C383.192 407.203 385.461 405.824 388.16 405.531C387.937 404.783 387.652 404.071 387.045 403.538C385.958 404.198 384.847 404.825 383.785 405.528C382.212 406.568 380.536 407.38 378.737 407.93C378.423 408.029 378.067 408.11 377.749 408.064C376.56 407.895 375.449 406.787 375.273 405.457C375.054 403.778 375.121 403.051 376.535 402.148C377.608 401.463 378.702 400.793 379.845 400.239C381.361 399.506 382.751 398.419 384.544 398.373H384.558Z" fill="#FFB78A"/>
<path d="M278.389 339.36C279.095 339.476 279.479 339.07 279.821 338.531C281.366 336.082 283.017 333.694 284.457 331.186C287.254 326.307 289.928 321.357 292.673 316.45C295.499 311.395 298.353 306.354 301.189 301.302C301.482 300.783 301.764 300.254 302.015 299.714C303.965 295.456 307.483 293.138 311.751 291.639C314.094 290.814 316.394 290.916 318.786 291.251C321.685 291.657 324.451 292.373 327.005 293.851C328.734 294.853 330.149 296.13 331.249 297.823C332.869 300.314 333.899 303.048 334.072 305.944C334.223 308.47 333.676 311.014 332.921 313.469C332.011 316.422 330.618 319.149 329.111 321.826C327.231 325.174 325.146 328.385 322.874 331.478C322.479 332.015 321.932 332.498 321.996 333.267C322.313 333.373 322.631 333.475 322.948 333.577C327.662 330.992 331.761 327.64 335.394 323.696C335.966 323.075 336.587 322.504 337.187 321.911C338.04 319.96 338.975 318.045 339.73 316.055C341.311 311.889 342.27 307.595 342.499 303.112C342.648 300.205 342.563 297.315 342.334 294.44C342.118 291.731 341.649 289.032 341.109 286.362C339.159 276.674 337.148 267.001 335.123 257.331C333.955 251.743 332.738 246.166 331.493 240.599C331.196 239.276 330.844 237.95 330.156 236.754C329.235 236.927 328.311 237.082 327.393 237.272C321.312 238.535 315.23 239.802 309.148 241.072C301.983 242.568 294.821 244.074 287.656 245.563C282.492 246.635 277.32 247.69 272.152 248.752C272.141 256.171 272.286 263.597 272.074 271.012C271.908 276.805 271.887 282.612 271.527 288.39C271.238 293.079 271.362 297.77 271.051 302.445C270.751 306.96 270.709 311.472 270.67 315.991C270.624 321.251 271.379 326.353 273.655 331.154C273.725 331.302 273.729 331.486 273.764 331.651C274.47 332.396 274.78 333.369 275.235 334.255C276.159 336.036 277.193 337.747 278.389 339.36Z" fill="#8B8BDF"/>
<path d="M272.155 248.751C277.323 247.689 282.492 246.638 287.66 245.562C294.825 244.073 301.986 242.567 309.151 241.071C315.233 239.801 321.315 238.535 327.397 237.272C328.314 237.081 329.238 236.926 330.159 236.753C330.332 233.483 329.475 230.354 328.766 227.221C327.757 222.758 326.751 218.289 326.137 213.759C325.795 211.251 325.4 208.728 325.425 206.167C325.46 202.946 324.843 199.747 324.994 196.515C322.208 196.956 319.392 196.879 316.588 196.879C305.941 196.889 295.294 196.872 284.651 196.893C281.243 196.9 277.846 196.833 274.462 196.402C274.219 199.281 273.997 202.163 273.722 205.038C273.478 207.575 273.175 210.104 272.9 212.637C272.854 213.061 272.766 213.48 272.759 213.904C272.727 217.139 272.325 220.356 272.06 223.57C271.517 230.209 271.725 236.845 271.626 243.484C271.608 244.761 271.683 246.038 271.718 247.319C271.732 247.834 271.774 248.342 272.159 248.744L272.155 248.751Z" fill="#FFB88C"/>
<path d="M285.604 388.393C283.258 389.543 282.199 391.645 281.55 394.002C281.088 395.674 281.621 396.574 283.275 397.138C283.751 397.3 284.266 397.364 284.767 397.452C288.627 398.112 292.525 398.475 296.413 398.923C302.174 399.583 307.977 399.389 313.741 399.95C318.99 400.461 324.25 400.885 329.51 401.325C332.477 401.576 335.444 401.781 338.411 402.003C338.714 402.01 339.018 402.017 339.321 402.024C339.843 402.19 340.355 402.13 340.866 401.975C341.134 401.103 341.417 400.235 341.671 399.36C341.974 398.327 342.478 397.346 342.482 396.238C343.442 391.363 343.671 386.481 343.015 381.531C342.623 378.589 342.507 375.611 341.921 372.683C340.902 367.575 339.332 362.654 337.194 357.909C336.488 356.343 335.62 354.893 334.231 353.82C332.294 355.277 330.988 357.288 329.535 359.165C327.761 361.454 326 363.751 324.296 366.09C323.206 367.582 321.904 368.252 319.971 368.193C315.89 368.066 311.797 368.224 307.709 368.203C305.909 368.196 304.601 368.94 303.698 370.45C303.26 371.181 302.837 371.921 302.449 372.676C300.727 376.003 298.977 379.316 297.33 382.678C296.543 384.286 295.414 385.465 293.83 386.244C293.22 386.544 292.613 386.858 292.021 387.193C291.096 387.722 290.126 387.927 289.075 387.708C287.95 388.079 286.803 388.364 285.607 388.386L285.604 388.393Z" fill="#8A4102"/>
<path d="M75.6117 181.234C75.1743 180.63 75.3224 179.932 75.2977 179.262C75.1072 174.002 74.9802 168.742 74.705 163.489C74.4722 159.086 74.063 154.694 73.7384 150.295C73.6961 149.706 73.5726 149.11 73.8725 148.545C71.7523 148.252 69.6497 148.33 67.5189 148.545C65.0671 148.792 62.5836 148.792 60.1141 148.806C58.2973 148.817 56.5793 149.205 54.8542 149.709C53.6618 150.059 52.7199 150.708 51.8626 151.575C49.559 153.914 48.3843 156.835 47.7351 159.943C46.6239 165.267 45.6185 170.615 45.0328 176.034C44.6942 179.156 43.9533 182.239 43.7029 185.365C43.4347 188.67 42.8562 191.962 43.0326 195.295C43.216 198.76 44.6095 201.532 47.6857 203.314C49.6931 204.478 51.7109 204.595 53.7147 203.3C54.7907 202.605 55.8349 201.875 56.7133 200.926C58.1033 199.43 59.6414 198.068 60.8479 196.4C61.1442 195.99 61.5429 195.652 61.8992 195.281C65.8433 191.154 70.0766 187.308 73.7173 182.892C74.2641 182.228 74.9132 181.703 75.6152 181.227L75.6117 181.234Z" fill="#FFB88C"/>
<path d="M289.071 387.715C290.123 387.93 291.093 387.725 292.017 387.2C292.606 386.861 293.213 386.551 293.827 386.251C295.414 385.471 296.54 384.293 297.326 382.684C298.974 379.322 300.724 376.009 302.445 372.683C302.837 371.928 303.257 371.187 303.694 370.457C304.597 368.947 305.906 368.203 307.705 368.21C311.794 368.227 315.883 368.072 319.968 368.199C321.897 368.259 323.203 367.592 324.293 366.096C326 363.757 327.761 361.461 329.532 359.171C330.985 357.295 332.29 355.28 334.227 353.827C334.086 351.117 334.185 348.401 333.8 345.695C333.599 344.288 333.627 342.817 333.924 341.384C334.044 340.806 334.093 340.206 334.1 339.617C334.178 334.318 335.12 329.171 336.756 324.14C336.989 323.421 337.349 322.719 337.183 321.918C336.584 322.511 335.963 323.082 335.391 323.703C331.758 327.651 327.658 331.002 322.945 333.584C322.628 335.994 321.675 338.121 320.317 340.143C313.992 349.541 307.733 358.984 301.429 368.4C299.062 371.935 296.607 375.413 294.24 378.952C292.349 381.774 290.288 384.501 289.071 387.722V387.715Z" fill="#FEB58A"/>
<path d="M278.389 339.361C277.196 337.748 276.159 336.037 275.235 334.256C274.776 333.374 274.466 332.4 273.764 331.652C270.963 333.741 269.047 336.556 267.375 339.555C262.305 348.646 257.215 357.726 252.23 366.863C249.246 372.331 246.392 377.873 243.573 383.426C241.58 387.353 240.497 391.544 240.454 395.978C240.419 399.795 241.262 403.453 242.762 406.914C244.674 411.327 247.274 415.331 250.717 418.739C251.26 419.279 251.772 419.865 252.541 420.108C252.816 419.903 253.147 419.671 253.031 419.3C252.879 418.82 252.685 418.312 252.368 417.938C250.332 415.543 249.112 412.724 248.395 409.74C247.584 406.36 247.312 402.963 247.916 399.418C248.798 394.253 250.413 389.406 252.611 384.678C254.947 379.658 257.719 374.899 260.598 370.19C262.549 367.001 264.366 363.73 266.271 360.513C269.047 355.839 271.845 351.175 274.642 346.515C275.736 344.695 276.833 342.874 277.962 341.075C278.304 340.532 278.308 339.95 278.378 339.361H278.389Z" fill="#EAA57B"/>
<path d="M389.571 410.701C389.5 411.724 389.43 412.751 389.359 413.774C389.461 415.1 388.925 416.233 388.325 417.365C387.366 419.186 385.785 420.258 383.986 421.087C380.776 423.983 377.368 426.633 373.78 429.046C377.103 428.936 380.427 428.859 383.746 428.703C386.046 428.594 388.343 428.393 390.636 428.206C392.453 428.058 394.15 427.501 395.674 426.506C398.267 424.812 399.075 422.121 397.642 419.383C396.206 416.645 394.298 414.236 391.783 412.37C391.042 411.819 390.308 411.259 389.571 410.701Z" fill="#8C4405"/>
<path d="M384.558 398.373C382.762 398.415 381.376 399.505 379.859 400.239C378.716 400.793 377.622 401.463 376.55 402.147C375.132 403.054 375.068 403.777 375.287 405.456C375.46 406.786 376.571 407.894 377.764 408.063C378.081 408.109 378.437 408.028 378.751 407.929C380.551 407.376 382.226 406.568 383.8 405.527C384.861 404.825 385.969 404.197 387.059 403.537C387.102 401.392 386.057 399.773 384.562 398.369L384.558 398.373Z" fill="#EBA57B"/>
<path d="M380.371 391.751C378.088 391.579 376.25 392.482 374.698 394.083C374.045 394.754 373.382 395.41 372.73 396.08C372.43 396.391 372.211 396.747 372.172 397.195C371.971 399.534 372.557 400.253 374.864 399.915C377.185 399.576 379.143 398.359 380.794 396.694C381.383 396.098 381.912 395.442 382.47 394.81C382.156 393.526 381.581 392.422 380.374 391.755L380.371 391.751Z" fill="#EBA57A"/>
<path d="M388.17 405.529C385.472 405.822 383.203 407.202 380.917 408.482C379.813 409.099 379.513 410.592 380.067 411.615C380.832 413.022 382.085 413.562 383.45 413.008C384.784 412.468 386.107 411.89 387.412 411.283C388.114 410.959 388.816 410.687 389.603 410.694C389.571 409.798 389.585 408.895 389.497 408.006C389.401 407.015 389.179 406.051 388.174 405.529H388.17Z" fill="#EAA479"/>
<path d="M344.598 402.109C346.715 402.769 348.761 402.342 350.783 401.689C353.121 400.934 355.21 399.664 357.27 398.359C357.387 398.285 357.415 398.07 357.485 397.918C354.074 396.959 350.634 397.103 347.188 397.668C346.436 397.791 345.696 397.964 344.948 398.116C344.866 399.453 345.322 400.832 344.598 402.113V402.109Z" fill="#8E4709"/>
<path d="M344.599 402.109C345.322 400.828 344.867 399.445 344.948 398.112C343.872 397.819 343.163 397.046 342.479 396.238C342.479 397.35 341.97 398.33 341.667 399.364C341.41 400.239 341.131 401.107 340.863 401.978C342.09 402.454 343.332 402.564 344.595 402.109H344.599Z" fill="#69370D"/>
<path d="M289.072 387.715C290.289 384.495 292.352 381.768 294.24 378.945C296.607 375.407 299.062 371.932 301.429 368.394C307.734 358.982 313.992 349.534 320.317 340.136C321.679 338.115 322.628 335.988 322.945 333.578C322.628 333.476 322.31 333.37 321.993 333.268C321.294 333.529 321.054 334.199 320.638 334.732C318.179 337.875 315.929 341.166 313.628 344.422C308.584 351.57 303.842 358.922 298.995 366.203C296.882 369.378 294.839 372.606 292.719 375.777C290.694 378.811 288.631 381.828 286.539 384.816C285.77 385.916 285.304 387.038 285.6 388.393C286.796 388.375 287.939 388.089 289.068 387.715H289.072Z" fill="#EBA57A"/>
<path d="M383.99 421.088C385.789 420.259 387.369 419.187 388.329 417.367C388.925 416.234 389.465 415.102 389.362 413.775C388.286 413.807 387.387 414.273 386.628 414.992C385.761 415.811 384.939 416.672 384.092 417.515C383.57 418.037 383.348 418.601 383.623 419.356C383.824 419.907 383.873 420.51 383.993 421.088H383.99Z" fill="#EAA479"/>
<path d="M339.321 402.027C339.018 402.02 338.715 402.013 338.411 402.006C338.711 402.253 339.014 402.253 339.321 402.027Z" fill="#69370D"/>
</svg>
