<svg width="500" height="500" viewBox="0 0 500 500" fill="none" xmlns="http://www.w3.org/2000/svg">
<path d="M284.65 250.48C285.552 249.371 286.224 248.125 286.867 246.846C289.486 241.637 291.55 236.19 293.812 230.828C296.054 225.514 297.685 219.99 299.623 214.571C303.258 204.397 306.329 194.037 309.676 183.77C311.258 178.914 312.792 174.037 314.371 169.181C314.832 167.768 315.427 166.397 315.856 164.976C316.321 163.434 317.216 162.167 318.312 161.079C322.181 157.234 325.601 153.017 328.721 148.554C332.363 143.349 335.548 137.87 338.486 132.244C342.29 124.96 345.823 117.542 349.405 110.148C350.87 107.121 352.307 104.078 353.723 101.026C355.447 97.303 357.762 93.9521 360.222 90.6943C360.728 90.0266 361.194 89.3265 361.675 88.6425C357.916 85.6478 353.764 83.2925 349.401 81.3135C348.118 80.7308 346.884 79.9861 345.451 79.7676C344.063 81.4794 342.432 82.9566 340.842 84.4742C336.066 89.031 331.57 93.8591 327.187 98.7923C315.657 111.771 305.261 125.628 295.366 139.877C288.134 150.29 281.234 160.921 274.84 171.872C270.145 179.917 265.738 188.117 261.704 196.514C261.509 196.919 261.356 197.344 261.181 197.756C263.691 199.205 266.192 200.666 268.713 202.095C272.695 204.349 276.349 207.125 280.279 209.464C280.603 209.658 280.89 209.942 281.125 210.241C281.449 210.662 281.428 211.528 281.149 211.888C280.833 212.297 280.089 212.544 279.579 212.35C277.774 211.662 275.953 211.01 274.18 210.245C269.15 208.084 264.12 205.935 259.016 203.956C258.66 203.819 258.523 203.588 258.458 203.256C257.875 203.24 257.292 203.256 256.714 203.199C250.837 202.601 245.127 203.374 239.441 204.919C223.468 209.27 207.519 213.722 191.449 217.716C189.502 218.197 187.551 218.655 185.605 219.14C183.856 219.577 182.157 219.424 180.445 218.898C176.73 217.76 172.954 216.866 169.138 216.15C165.261 215.417 161.355 214.855 157.43 214.434C147.058 213.317 136.645 213.074 126.224 212.815C119.105 212.637 111.987 212.52 104.868 212.41C100.586 212.342 96.3655 211.658 92.1688 210.836C91.2785 210.662 90.3841 210.52 89.4938 210.363C88.4942 213.086 87.8831 215.891 87.442 218.764C87.1223 220.868 87.2234 222.997 86.8754 225.093C86.7297 225.964 86.7014 226.89 86.9928 227.773C89.5828 228.367 92.0595 229.31 94.5605 230.185C100.121 232.123 105.775 233.77 111.448 235.328C125.431 239.165 139.587 242.232 153.852 244.794C162.128 246.283 170.429 247.639 178.749 248.865C184.059 249.646 189.389 250.306 194.718 250.97C198.761 251.471 202.812 251.937 206.867 252.342C210.538 252.71 214.213 253.021 217.891 253.28C222.99 253.641 228.094 253.964 233.197 254.24C236.167 254.397 239.15 254.422 242.124 254.507C242.837 254.527 243.545 254.563 244.253 254.596C245.046 254.438 245.839 254.418 246.629 254.636C246.811 254.689 246.993 254.741 247.175 254.794C249.814 254.701 252.452 254.531 255.091 254.527C258.705 254.527 262.307 254.24 265.9 253.972C268.85 253.754 271.78 253.276 274.723 252.949C278.138 252.568 281.424 251.702 284.63 250.484L284.65 250.48Z" fill="#696E66"/>
<path d="M240.485 420.775C242.391 423.191 245.01 424.345 247.932 424.944C249.263 425.215 250.619 425.263 251.962 425.417C256.349 425.907 260.756 425.543 265.135 425.842C269.789 426.162 274.451 425.895 279.089 426.218C282.577 426.461 286.074 426.32 289.546 426.619C292.582 426.882 295.625 426.728 298.644 426.991C301.291 427.222 303.937 427.198 306.58 427.356C309.607 427.538 312.63 427.797 315.641 428.141C318.073 428.42 320.489 428.841 322.901 429.27C323.889 429.448 324.803 429.42 325.73 429.031C326.325 428.784 326.948 428.61 327.563 428.404C327.523 427.894 327.802 427.566 328.191 427.295C329.032 426.704 329.882 426.129 330.704 425.514C331.829 424.668 333.047 423.924 333.889 422.754C333.747 422.54 333.605 422.325 333.468 422.111C332.93 421.269 332.913 421.059 333.5 420.427C334.111 419.768 334.759 419.14 335.406 418.513C336.03 417.91 336.766 417.554 337.656 417.574L337.717 416.344C337.749 416.004 337.588 415.785 337.3 415.636C336.843 415.628 336.414 415.708 335.985 415.903C334.929 416.388 333.856 416.829 332.792 417.299C332.497 417.428 332.189 417.631 331.873 417.501C331.129 417.194 330.55 416.684 330.34 415.882C330.121 415.057 330.384 414.337 331.173 413.887C332.743 412.993 334.334 412.107 336.224 412.09C336.017 411.528 335.815 410.965 335.301 410.597C334.888 410.593 334.585 410.824 334.269 411.054C332.966 412.01 331.533 412.746 330.068 413.402C328.798 413.972 327.616 413.491 327.049 412.232C326.531 411.079 326.726 410.201 327.863 409.379C329.482 408.205 331.214 407.226 333.14 406.635C332.869 405.567 332.339 404.66 331.501 403.936C330.671 406.04 328.858 406.987 326.924 407.744C326.475 407.918 325.904 407.894 325.41 407.817C324.18 407.623 323.703 406.287 324.516 405.332C325.014 404.749 325.625 404.264 326.123 403.677C327.146 402.463 328.405 401.848 330.004 401.989C329.854 401.779 329.72 401.56 329.558 401.362C328.47 400.051 327.106 399.804 325.56 400.375C324.051 400.933 322.59 401.605 321.197 402.422C319.643 403.333 318.065 404.207 316.475 405.049C315.568 405.53 314.617 405.939 313.565 406.004C313.549 406.34 313.423 406.599 313.136 406.813C310.064 409.092 306.592 409.561 302.909 409.124C302.849 409.116 302.796 409.063 302.739 409.035C302.606 409.011 302.476 408.986 302.343 408.962C301.376 409.112 300.404 409.1 299.449 408.91C297.482 408.521 295.491 408.359 293.496 408.205C291.63 408.064 289.765 407.898 287.903 407.72C284.435 407.392 280.971 407.036 277.503 406.712C274.164 406.4 270.817 406.145 267.478 405.818C265.681 405.64 263.897 405.352 262.108 405.122C261.525 405.045 260.967 404.875 260.465 404.579C259.931 404.264 259.546 403.774 259.7 403.139C260.109 401.439 260.53 399.719 262.314 398.845C262.185 397.623 262.61 396.538 263.278 395.571C265.394 392.487 267.252 389.241 269.218 386.065C271.424 382.503 273.698 378.986 275.831 375.385C278.66 370.613 281.707 365.988 284.787 361.378C285.228 360.719 285.706 360.14 286.369 359.715C286.325 359.241 286.479 358.841 286.75 358.448C287.231 357.76 287.652 357.028 288.134 356.344C290.242 353.369 291.804 350.103 293.059 346.708C294.051 344.025 294.471 341.208 293.792 338.347C292.99 334.972 291.218 332.337 288.017 330.759C286.556 330.039 285.054 329.428 283.46 329.181C281.088 328.812 278.692 328.683 276.426 329.751C273.901 330.945 271.938 332.714 270.667 335.259C266.373 343.875 262.116 352.507 257.596 361.01C257.264 361.637 256.928 362.264 256.572 362.88C256.305 363.345 255.94 363.697 255.362 363.734C255.471 364.701 254.998 365.494 254.564 366.279C253.5 368.197 252.355 370.071 251.343 372.018C249.704 375.17 247.972 378.27 246.272 381.386C244.386 384.846 242.646 388.388 240.801 391.868C239.251 394.798 238.17 397.91 237.239 401.063C236.62 403.155 236.317 405.332 236.297 407.534C236.284 408.893 236.377 410.229 236.677 411.564C237.13 413.588 237.693 415.538 238.838 417.311C239.397 418.181 239.882 419.088 240.639 419.812C241.003 420.16 240.882 420.5 240.485 420.763V420.775Z" fill="#FFB78A"/>
<path d="M255.358 363.741C255.937 363.705 256.301 363.353 256.568 362.887C256.924 362.272 257.256 361.645 257.592 361.017C262.113 352.515 266.37 343.883 270.664 335.267C271.935 332.721 273.897 330.953 276.423 329.759C278.689 328.686 281.085 328.82 283.456 329.188C285.051 329.435 286.552 330.046 288.013 330.766C291.214 332.345 292.987 334.979 293.788 338.355C294.468 341.216 294.047 344.028 293.056 346.715C291.801 350.111 290.239 353.377 288.13 356.351C287.645 357.035 287.224 357.768 286.746 358.456C286.475 358.844 286.321 359.249 286.366 359.722C286.516 359.771 286.665 359.82 286.815 359.868C288.725 359.038 290.348 357.76 291.874 356.388C293.638 354.797 295.294 353.085 296.823 351.264C297.815 348.949 298.754 346.622 299.3 344.15C300.142 340.325 300.186 336.489 299.729 332.612C299.098 327.274 297.572 322.134 296.281 316.946C294.205 308.626 292.032 300.329 289.887 292.025C289.616 290.969 289.28 289.925 288.778 288.945C288.272 289.038 287.758 289.115 287.256 289.233C283.177 290.196 279.102 291.167 275.026 292.142C265.876 294.332 256.726 296.529 247.572 298.719C247.803 303.041 248.033 307.363 248.26 311.681C248.288 312.199 248.296 312.717 248.304 313.231C248.345 316.335 248.296 319.443 248.438 322.543C248.733 329.071 248.588 335.607 248.883 342.126C249.009 344.89 248.936 347.679 249.446 350.431C249.858 352.665 250.332 354.862 251.372 356.898C251.603 357.351 251.902 357.8 251.813 358.355C252.19 358.703 252.505 359.091 252.728 359.561C253.432 361.062 254.387 362.406 255.362 363.733L255.358 363.741Z" fill="#8B8BDF"/>
<path d="M247.568 298.716C256.718 296.522 265.868 294.329 275.022 292.14C279.097 291.164 283.173 290.193 287.252 289.23C287.754 289.112 288.264 289.04 288.774 288.943C288.81 286.093 288.409 283.281 288.057 280.464C287.879 279.056 287.895 277.635 287.657 276.223C287.357 274.446 287.337 272.625 287.151 270.828C286.977 269.161 286.726 267.502 286.536 265.838C286.349 264.236 286.192 262.633 286.034 261.027C285.686 257.498 285.354 253.965 284.658 250.484C281.453 251.703 278.167 252.569 274.751 252.949C271.809 253.277 268.879 253.754 265.929 253.973C262.331 254.24 258.733 254.527 255.119 254.527C252.481 254.527 249.842 254.697 247.203 254.794C247.058 259.558 247.041 264.329 246.73 269.08C246.43 273.653 246.414 278.218 246.41 282.791C246.41 284.79 246.349 286.794 246.479 288.785C246.677 291.796 246.73 294.827 247.24 297.813C247.292 298.125 247.458 298.416 247.572 298.716H247.568Z" fill="#FEB88C"/>
<path d="M87.0088 227.773C86.7214 226.891 86.7498 225.964 86.8914 225.094C87.2394 222.997 87.1342 220.869 87.458 218.764C87.8951 215.891 88.5102 213.086 89.5098 210.363C87.1787 208.303 84.6979 206.449 81.9055 205.049C78.0083 203.094 74.0828 203.086 70.1289 204.883C63.7064 207.801 57.458 211.075 51.1366 214.199C48.8177 215.345 46.511 216.522 44.2042 217.696C42.6259 218.497 41.2256 219.513 40.1977 220.986C38.8622 222.892 38.6356 224.94 39.5583 227.056C40.8938 230.112 43.2167 231.864 46.6081 231.957C48.4778 232.01 50.3474 231.99 52.2131 231.65C53.5405 231.407 54.9043 231.383 56.252 231.205C58.9999 230.84 61.772 230.642 64.528 230.318C67.2192 230.003 69.8983 229.594 72.5855 229.278C75.3414 228.954 78.1095 228.748 80.8614 228.376C82.6623 228.133 84.4551 227.995 86.2682 227.967C86.5191 227.967 86.766 227.842 87.0128 227.777L87.0088 227.773Z" fill="#FFB88D"/>
<path d="M345.459 79.7629C346.888 79.9854 348.126 80.726 349.409 81.3088C353.772 83.2878 357.92 85.6431 361.683 88.6378C364.451 87.6949 367.062 86.4403 369.449 84.7366C372.622 82.4743 374.375 79.4755 374.176 75.5095C374.079 73.5144 373.877 71.5192 373.678 69.5281C373.48 67.5411 373.233 65.554 372.995 63.571C372.784 61.843 372.553 60.119 372.339 58.3909C372.173 57.0474 372.023 55.6997 371.853 54.3561C371.574 52.1141 371.416 49.8519 370.983 47.6422C370.247 43.9069 367.381 41.24 363.355 41.2036C360.902 41.1833 358.782 41.8794 357.09 43.7208C356.329 44.5504 355.839 45.5216 355.504 46.5779C354.646 49.2894 353.767 51.9927 352.95 54.7163C351.712 58.8604 350.518 63.0206 349.308 67.1769C348.515 69.9045 347.75 72.6443 346.928 75.3638C346.572 76.5374 346.094 77.6706 345.69 78.828C345.585 79.1275 345.536 79.4472 345.463 79.7588L345.459 79.7629Z" fill="#FFB88D"/>
<path d="M262.306 398.847C260.521 399.722 260.105 401.441 259.692 403.141C259.538 403.777 259.923 404.266 260.457 404.582C260.959 404.881 261.517 405.051 262.1 405.124C263.889 405.355 265.677 405.646 267.47 405.82C270.809 406.152 274.156 406.407 277.494 406.715C280.963 407.038 284.427 407.39 287.895 407.722C289.757 407.9 291.622 408.066 293.488 408.208C295.483 408.358 297.474 408.52 299.441 408.912C300.396 409.102 301.367 409.114 302.335 408.965C302.29 407.977 302.266 406.994 303.12 406.265C303.249 406.015 303.379 405.764 303.508 405.509C303.403 405.072 303.314 404.647 303.358 404.173C303.686 400.685 303.613 397.221 302.954 393.752C302.424 390.956 301.991 388.147 301.169 385.416C300.347 382.684 299.299 380.045 298.041 377.488C297.494 376.379 296.883 375.314 295.831 374.586C295.175 375.031 294.722 375.658 294.261 376.29C292.654 378.479 291.003 380.64 289.433 382.854C288.401 384.307 287.094 384.962 285.301 384.861C282.848 384.72 280.384 384.776 277.935 384.582C276.013 384.428 274.848 385.201 274.208 386.945C274.143 387.127 274.058 387.301 273.973 387.48C272.687 390.163 271.396 392.842 270.117 395.529C269.534 396.755 268.656 397.686 267.345 398.074C266.616 398.293 265.859 398.564 265.062 398.402C264.18 398.791 263.294 399.143 262.302 398.847H262.306Z" fill="#844414"/>
<path d="M265.07 398.405C265.868 398.567 266.624 398.292 267.353 398.077C268.664 397.689 269.542 396.758 270.125 395.532C271.404 392.844 272.695 390.165 273.982 387.482C274.067 387.308 274.152 387.13 274.216 386.948C274.852 385.204 276.021 384.431 277.944 384.585C280.392 384.779 282.857 384.722 285.309 384.864C287.102 384.969 288.409 384.313 289.441 382.857C291.011 380.643 292.662 378.482 294.269 376.292C294.73 375.665 295.184 375.038 295.839 374.589C295.588 372.286 295.236 369.995 295.248 367.664C295.252 366.705 294.985 365.738 295.018 364.783C295.155 360.793 295.475 356.818 296.584 352.954C296.746 352.391 296.948 351.849 296.823 351.254C295.293 353.075 293.638 354.787 291.873 356.377C290.348 357.753 288.729 359.028 286.815 359.858C286.811 360.246 286.774 360.635 286.802 361.019C286.863 361.833 286.604 362.537 286.167 363.209C285.18 364.718 284.2 366.236 283.237 367.757C282.444 369.008 281.671 370.275 280.894 371.533C279.441 373.893 278 376.26 276.543 378.615C275.289 380.643 274.006 382.65 272.768 384.686C271.197 387.276 269.708 389.914 267.968 392.399C267.191 393.504 266.503 394.678 265.831 395.851C265.386 396.628 264.888 397.417 265.07 398.393V398.405Z" fill="#FEB58A"/>
<path d="M255.358 363.742C254.382 362.41 253.427 361.067 252.723 359.569C252.504 359.1 252.185 358.711 251.808 358.363C250.999 358.707 250.473 359.367 249.979 360.047C249.222 361.091 248.506 362.163 247.931 363.325C244.487 370.261 241.007 377.182 237.595 384.134C235.948 387.493 234.394 390.901 232.861 394.312C231.468 397.412 230.675 400.67 230.999 404.09C231.282 407.072 232.169 409.905 233.638 412.528C235.094 415.126 236.786 417.558 238.951 419.63C239.417 420.075 239.829 420.585 240.481 420.779C240.873 420.516 240.999 420.176 240.635 419.828C239.878 419.1 239.396 418.197 238.834 417.327C237.693 415.555 237.126 413.604 236.673 411.581C236.373 410.245 236.28 408.91 236.292 407.55C236.313 405.344 236.616 403.171 237.235 401.079C238.166 397.922 239.247 394.81 240.797 391.884C242.642 388.4 244.382 384.863 246.268 381.403C247.968 378.286 249.7 375.186 251.339 372.034C252.351 370.087 253.496 368.214 254.56 366.295C254.997 365.506 255.467 364.713 255.358 363.75V363.742Z" fill="#EAA57B"/>
<path d="M258.47 203.256C258.535 203.587 258.673 203.818 259.029 203.956C264.132 205.935 269.162 208.088 274.193 210.245C275.965 211.006 277.786 211.661 279.591 212.349C280.101 212.543 280.842 212.297 281.162 211.888C281.441 211.528 281.461 210.662 281.137 210.241C280.907 209.941 280.615 209.654 280.291 209.464C276.362 207.125 272.711 204.348 268.725 202.094C266.204 200.666 263.703 199.205 261.194 197.756C260.567 198.278 260.393 199.059 260.065 199.747C259.514 200.908 259 202.086 258.47 203.26V203.256Z" fill="#4A4B46"/>
<path d="M337.713 416.354C337.693 416.762 337.673 417.175 337.652 417.584C337.911 419.061 337.312 420.198 336.284 421.198C335.584 421.882 334.795 422.412 333.885 422.764C333.039 423.933 331.825 424.678 330.7 425.524C329.878 426.139 329.028 426.714 328.187 427.305C327.802 427.576 327.519 427.904 327.559 428.413C331.242 428.567 334.913 428.401 338.583 428.11C339.826 428.013 340.995 427.661 342.051 427.001C343.804 425.9 344.411 424.16 343.492 422.323C342.294 419.923 340.59 417.912 338.276 416.479C338.122 416.382 337.903 416.394 337.713 416.354Z" fill="#89481A"/>
<path d="M333.14 406.643C331.213 407.237 329.477 408.217 327.862 409.386C326.725 410.208 326.535 411.086 327.049 412.239C327.612 413.498 328.797 413.98 330.068 413.409C331.537 412.749 332.97 412.017 334.269 411.062C334.584 410.827 334.888 410.601 335.301 410.605C335.179 408.957 334.342 407.699 333.14 406.643Z" fill="#EAA57B"/>
<path d="M330.004 401.999C328.405 401.857 327.146 402.472 326.123 403.686C325.629 404.273 325.014 404.759 324.516 405.341C323.703 406.296 324.18 407.632 325.41 407.826C325.904 407.903 326.475 407.927 326.924 407.753C328.858 406.996 330.675 406.054 331.501 403.945C331.371 403.01 330.777 402.436 330 401.999H330.004Z" fill="#EAA47A"/>
<path d="M303.513 405.514C303.383 405.765 303.254 406.015 303.124 406.27C303.561 406.307 304.002 406.323 304.439 406.384C304.694 406.42 304.929 406.562 304.982 406.837C305.099 407.456 305.22 408.124 304.893 408.678C304.597 409.172 303.982 408.962 303.496 409.002C303.246 409.022 302.995 409.031 302.744 409.047C302.8 409.079 302.853 409.132 302.914 409.136C306.596 409.573 310.069 409.103 313.14 406.825C313.428 406.61 313.549 406.351 313.569 406.015C310.943 405.506 308.316 405.429 305.702 406.064C304.848 406.27 304.217 405.829 303.525 405.518L303.513 405.514Z" fill="#8D4F20"/>
<path d="M336.224 412.094C334.334 412.11 332.744 412.996 331.174 413.891C330.385 414.34 330.121 415.06 330.34 415.886C330.55 416.687 331.129 417.201 331.874 417.505C332.194 417.634 332.497 417.432 332.792 417.302C333.857 416.837 334.929 416.392 335.986 415.906C336.41 415.708 336.843 415.631 337.301 415.639C337.301 414.74 337.192 413.858 336.892 413.004C336.763 412.632 336.556 412.32 336.228 412.094H336.224Z" fill="#EAA57B"/>
<path d="M246.649 254.635C245.86 254.416 245.067 254.44 244.273 254.594C245.063 254.889 245.856 254.845 246.649 254.635Z" fill="#FEB88C"/>
<path d="M265.071 398.403C264.885 397.424 265.386 396.639 265.832 395.862C266.503 394.688 267.191 393.519 267.968 392.41C269.713 389.925 271.198 387.286 272.768 384.696C274.002 382.661 275.289 380.653 276.544 378.626C278.001 376.271 279.441 373.903 280.894 371.544C281.671 370.281 282.444 369.018 283.237 367.768C284.205 366.242 285.184 364.729 286.167 363.219C286.604 362.551 286.859 361.843 286.803 361.03C286.774 360.645 286.807 360.253 286.815 359.868C286.665 359.82 286.515 359.771 286.366 359.723C285.698 360.148 285.224 360.726 284.783 361.386C281.704 365.995 278.656 370.621 275.827 375.392C273.691 378.994 271.42 382.515 269.215 386.072C267.248 389.249 265.39 392.495 263.274 395.579C262.61 396.546 262.181 397.63 262.311 398.853C263.302 399.148 264.188 398.796 265.071 398.407V398.403Z" fill="#EAA47A"/>
<path d="M333.885 422.761C334.795 422.409 335.584 421.879 336.285 421.195C337.308 420.199 337.911 419.058 337.652 417.581C336.766 417.561 336.026 417.917 335.402 418.52C334.755 419.147 334.107 419.774 333.496 420.434C332.909 421.065 332.926 421.276 333.464 422.118C333.601 422.332 333.743 422.546 333.885 422.761Z" fill="#E8A176"/>
<path d="M302.735 409.04C302.986 409.028 303.237 409.016 303.488 408.995C303.973 408.955 304.588 409.169 304.884 408.672C305.216 408.121 305.094 407.453 304.973 406.83C304.92 406.559 304.686 406.413 304.431 406.377C303.994 406.316 303.552 406.3 303.115 406.264C302.266 406.992 302.29 407.975 302.33 408.963C302.464 408.987 302.593 409.012 302.727 409.036L302.735 409.04Z" fill="#643207"/>
</svg>
