<svg width="500" height="500" viewBox="0 0 500 500" fill="none" xmlns="http://www.w3.org/2000/svg">
<path d="M208.542 250.48C207.639 249.371 206.967 248.125 206.324 246.846C203.706 241.637 201.642 236.19 199.379 230.828C197.137 225.514 195.506 219.99 193.568 214.571C189.934 204.397 186.862 194.037 183.515 183.77C181.933 178.914 180.399 174.037 178.821 169.181C178.36 167.768 177.765 166.397 177.336 164.976C176.87 163.434 175.976 162.167 174.879 161.079C171.01 157.234 167.591 153.017 164.47 148.554C160.828 143.349 157.643 137.87 154.705 132.244C150.901 124.96 147.368 117.542 143.786 110.148C142.321 107.121 140.885 104.078 139.468 101.026C137.744 97.303 135.43 93.9521 132.969 90.6943C132.463 90.0266 131.998 89.3265 131.516 88.6425C135.276 85.6478 139.428 83.2925 143.791 81.3135C145.073 80.7308 146.308 79.9861 147.74 79.7676C149.128 81.4794 150.759 82.9566 152.35 84.4742C157.125 89.031 161.621 93.8591 166.004 98.7923C177.534 111.771 187.931 125.628 197.825 139.877C205.057 150.29 211.957 160.921 218.351 171.872C223.046 179.917 227.453 188.117 231.488 196.514C231.682 196.919 231.836 197.344 232.01 197.756C229.501 199.205 227 200.666 224.479 202.095C220.496 204.349 216.842 207.125 212.912 209.464C212.589 209.658 212.301 209.942 212.067 210.241C211.743 210.662 211.763 211.528 212.042 211.888C212.358 212.297 213.103 212.544 213.612 212.35C215.417 211.662 217.239 211.01 219.011 210.245C224.041 208.084 229.072 205.935 234.175 203.956C234.531 203.819 234.669 203.588 234.734 203.256C235.316 203.24 235.899 203.256 236.478 203.199C242.354 202.601 248.064 203.374 253.75 204.919C269.723 209.27 285.672 213.722 301.743 217.716C303.689 218.197 305.64 218.655 307.587 219.14C309.335 219.577 311.035 219.424 312.747 218.898C316.462 217.76 320.237 216.866 324.054 216.15C327.931 215.417 331.836 214.855 335.762 214.434C346.134 213.317 356.547 213.074 366.968 212.815C374.086 212.637 381.205 212.52 388.323 212.41C392.605 212.342 396.826 211.658 401.023 210.836C401.913 210.662 402.807 210.52 403.698 210.363C404.697 213.086 405.308 215.891 405.749 218.764C406.069 220.868 405.968 222.997 406.316 225.093C406.462 225.964 406.49 226.89 406.199 227.773C403.609 228.367 401.132 229.31 398.631 230.185C393.07 232.123 387.417 233.77 381.743 235.328C367.761 239.165 353.605 242.232 339.339 244.794C331.063 246.283 322.763 247.639 314.442 248.865C309.133 249.646 303.803 250.306 298.473 250.97C294.43 251.471 290.379 251.937 286.324 252.342C282.653 252.71 278.979 253.021 275.3 253.28C270.201 253.641 265.098 253.964 259.995 254.24C257.024 254.397 254.041 254.422 251.067 254.507C250.355 254.527 249.647 254.563 248.938 254.596C248.145 254.438 247.352 254.418 246.563 254.636C246.381 254.689 246.199 254.741 246.016 254.794C243.378 254.701 240.739 254.531 238.101 254.527C234.487 254.527 230.885 254.24 227.291 253.972C224.341 253.754 221.411 253.276 218.469 252.949C215.053 252.568 211.767 251.702 208.562 250.484L208.542 250.48Z" fill="#696E66"/>
<path d="M252.706 420.775C250.8 423.191 248.182 424.345 245.26 424.944C243.928 425.215 242.573 425.263 241.229 425.417C236.842 425.907 232.435 425.543 228.056 425.842C223.402 426.162 218.74 425.895 214.102 426.218C210.614 426.461 207.117 426.32 203.645 426.619C200.61 426.882 197.567 426.728 194.548 426.991C191.901 427.222 189.254 427.198 186.612 427.356C183.584 427.538 180.561 427.797 177.55 428.141C175.118 428.42 172.702 428.841 170.29 429.27C169.303 429.448 168.388 429.42 167.461 429.031C166.866 428.784 166.243 428.61 165.628 428.404C165.669 427.894 165.389 427.566 165.001 427.295C164.159 426.704 163.309 426.129 162.488 425.514C161.363 424.668 160.144 423.924 159.303 422.754C159.444 422.54 159.586 422.325 159.724 422.111C160.262 421.269 160.278 421.059 159.691 420.427C159.08 419.768 158.433 419.14 157.785 418.513C157.162 417.91 156.425 417.554 155.535 417.574L155.474 416.344C155.442 416.004 155.604 415.785 155.891 415.636C156.348 415.628 156.777 415.708 157.206 415.903C158.263 416.388 159.335 416.829 160.399 417.299C160.695 417.428 161.002 417.631 161.318 417.501C162.063 417.194 162.641 416.684 162.852 415.882C163.07 415.057 162.807 414.337 162.018 413.887C160.448 412.993 158.858 412.107 156.968 412.09C157.174 411.528 157.376 410.965 157.89 410.597C158.303 410.593 158.607 410.824 158.922 411.054C160.225 412.01 161.658 412.746 163.123 413.402C164.394 413.972 165.575 413.491 166.142 412.232C166.66 411.079 166.466 410.201 165.329 409.379C163.71 408.205 161.978 407.226 160.051 406.635C160.323 405.567 160.853 404.66 161.69 403.936C162.52 406.04 164.333 406.987 166.268 407.744C166.717 407.918 167.287 407.894 167.781 407.817C169.011 407.623 169.489 406.287 168.675 405.332C168.178 404.749 167.567 404.264 167.069 403.677C166.045 402.463 164.786 401.848 163.188 401.989C163.338 401.779 163.471 401.56 163.633 401.362C164.722 400.051 166.085 399.804 167.631 400.375C169.141 400.933 170.602 401.605 171.994 402.422C173.548 403.333 175.126 404.207 176.717 405.049C177.623 405.53 178.574 405.939 179.626 406.004C179.643 406.34 179.768 406.599 180.055 406.813C183.127 409.092 186.599 409.561 190.282 409.124C190.343 409.116 190.395 409.063 190.452 409.035C190.586 409.011 190.715 408.986 190.849 408.962C191.816 409.112 192.787 409.1 193.742 408.91C195.709 408.521 197.7 408.359 199.695 408.205C201.561 408.064 203.427 407.898 205.288 407.72C208.756 407.392 212.221 407.036 215.689 406.712C219.028 406.4 222.374 406.145 225.713 405.818C227.51 405.64 229.295 405.352 231.083 405.122C231.666 405.045 232.225 404.875 232.726 404.579C233.261 404.264 233.645 403.774 233.491 403.139C233.083 401.439 232.662 399.719 230.877 398.845C231.007 397.623 230.582 396.538 229.914 395.571C227.797 392.487 225.94 389.241 223.973 386.065C221.767 382.503 219.493 378.986 217.36 375.385C214.531 370.613 211.484 365.988 208.404 361.378C207.963 360.719 207.486 360.14 206.822 359.715C206.866 359.241 206.713 358.841 206.442 358.448C205.96 357.76 205.539 357.028 205.057 356.344C202.949 353.369 201.387 350.103 200.132 346.708C199.141 344.025 198.72 341.208 199.4 338.347C200.201 334.972 201.974 332.337 205.175 330.759C206.636 330.039 208.137 329.428 209.732 329.181C212.103 328.812 214.499 328.683 216.765 329.751C219.291 330.945 221.253 332.714 222.524 335.259C226.818 343.875 231.075 352.507 235.596 361.01C235.928 361.637 236.264 362.264 236.62 362.88C236.887 363.345 237.251 363.697 237.83 363.734C237.72 364.701 238.194 365.494 238.627 366.279C239.691 368.197 240.837 370.071 241.848 372.018C243.487 375.17 245.219 378.27 246.919 381.386C248.805 384.846 250.545 388.388 252.391 391.868C253.941 394.798 255.021 397.91 255.952 401.063C256.571 403.155 256.875 405.332 256.895 407.534C256.907 408.893 256.814 410.229 256.514 411.564C256.061 413.588 255.499 415.538 254.353 417.311C253.795 418.181 253.309 419.088 252.552 419.812C252.188 420.16 252.31 420.5 252.706 420.763V420.775Z" fill="#FFB78A"/>
<path d="M237.833 363.741C237.254 363.705 236.89 363.353 236.623 362.887C236.267 362.272 235.935 361.645 235.599 361.017C231.079 352.515 226.821 343.883 222.528 335.267C221.257 332.721 219.294 330.953 216.769 329.759C214.502 328.686 212.107 328.82 209.735 329.188C208.141 329.435 206.639 330.046 205.178 330.766C201.977 332.345 200.205 334.979 199.403 338.355C198.723 341.216 199.144 344.028 200.136 346.715C201.39 350.111 202.952 353.377 205.061 356.351C205.547 357.035 205.967 357.768 206.445 358.456C206.716 358.844 206.87 359.249 206.825 359.722C206.676 359.771 206.526 359.82 206.376 359.868C204.466 359.038 202.843 357.76 201.318 356.388C199.553 354.797 197.898 353.085 196.368 351.264C195.377 348.949 194.438 346.622 193.891 344.15C193.05 340.325 193.005 336.489 193.462 332.612C194.094 327.274 195.619 322.134 196.91 316.946C198.987 308.626 201.16 300.329 203.305 292.025C203.576 290.969 203.912 289.925 204.413 288.945C204.919 289.038 205.433 289.115 205.935 289.233C210.014 290.196 214.09 291.167 218.165 292.142C227.315 294.332 236.465 296.529 245.619 298.719C245.389 303.041 245.158 307.363 244.931 311.681C244.903 312.199 244.895 312.717 244.887 313.231C244.847 316.335 244.895 319.443 244.753 322.543C244.458 329.071 244.604 335.607 244.308 342.126C244.183 344.89 244.256 347.679 243.746 350.431C243.333 352.665 242.859 354.862 241.819 356.898C241.589 357.351 241.289 357.8 241.378 358.355C241.002 358.703 240.686 359.091 240.464 359.561C239.76 361.062 238.804 362.406 237.829 363.733L237.833 363.741Z" fill="#8B8BDF"/>
<path d="M245.624 298.716C236.474 296.522 227.324 294.329 218.169 292.14C214.094 291.164 210.019 290.193 205.939 289.23C205.438 289.112 204.928 289.04 204.418 288.943C204.381 286.093 204.782 283.281 205.134 280.464C205.312 279.056 205.296 277.635 205.535 276.223C205.834 274.446 205.855 272.625 206.041 270.828C206.215 269.161 206.466 267.502 206.656 265.838C206.842 264.236 207 262.633 207.158 261.027C207.506 257.498 207.838 253.965 208.534 250.484C211.739 251.703 215.025 252.569 218.44 252.949C221.383 253.277 224.313 253.754 227.263 253.973C230.861 254.24 234.458 254.527 238.072 254.527C240.711 254.527 243.349 254.697 245.988 254.794C246.134 259.558 246.15 264.329 246.462 269.08C246.761 273.653 246.777 278.218 246.781 282.791C246.781 284.79 246.842 286.794 246.712 288.785C246.514 291.796 246.462 294.827 245.952 297.813C245.899 298.125 245.733 298.416 245.62 298.716H245.624Z" fill="#FEB88C"/>
<path d="M406.183 227.773C406.47 226.891 406.442 225.964 406.3 225.094C405.952 222.997 406.057 220.869 405.733 218.764C405.296 215.891 404.681 213.086 403.682 210.363C406.013 208.303 408.493 206.449 411.286 205.049C415.183 203.094 419.109 203.086 423.062 204.883C429.485 207.801 435.733 211.075 442.055 214.199C444.374 215.345 446.68 216.522 448.987 217.696C450.566 218.497 451.966 219.513 452.994 220.986C454.329 222.892 454.556 224.94 453.633 227.056C452.298 230.112 449.975 231.864 446.583 231.957C444.714 232.01 442.844 231.99 440.978 231.65C439.651 231.407 438.287 231.383 436.939 231.205C434.192 230.84 431.419 230.642 428.663 230.318C425.972 230.003 423.293 229.594 420.606 229.278C417.85 228.954 415.082 228.748 412.33 228.376C410.529 228.133 408.736 227.995 406.923 227.967C406.672 227.967 406.425 227.842 406.179 227.777L406.183 227.773Z" fill="#FFB88D"/>
<path d="M147.732 79.7629C146.304 79.9854 145.065 80.726 143.783 81.3088C139.42 83.2878 135.272 85.6431 131.508 88.6378C128.74 87.6949 126.13 86.4403 123.742 84.7366C120.569 82.4743 118.817 79.4755 119.015 75.5095C119.112 73.5144 119.315 71.5192 119.513 69.5281C119.711 67.5411 119.958 65.554 120.197 63.571C120.407 61.843 120.638 60.119 120.853 58.3909C121.018 57.0474 121.168 55.6997 121.338 54.3561C121.617 52.1141 121.775 49.8519 122.208 47.6422C122.945 43.9069 125.81 41.24 129.837 41.2036C132.289 41.1833 134.41 41.8794 136.101 43.7208C136.862 44.5504 137.352 45.5216 137.688 46.5779C138.546 49.2894 139.424 51.9927 140.241 54.7163C141.48 58.8604 142.674 63.0206 143.884 67.1769C144.677 69.9045 145.442 72.6443 146.263 75.3638C146.619 76.5374 147.097 77.6706 147.502 78.828C147.607 79.1275 147.655 79.4472 147.728 79.7588L147.732 79.7629Z" fill="#FFB88D"/>
<path d="M230.885 398.847C232.67 399.722 233.087 401.441 233.5 403.141C233.653 403.777 233.269 404.266 232.735 404.582C232.233 404.881 231.674 405.051 231.092 405.124C229.303 405.355 227.514 405.646 225.721 405.82C222.383 406.152 219.036 406.407 215.697 406.715C212.229 407.038 208.765 407.39 205.296 407.722C203.435 407.9 201.569 408.066 199.704 408.208C197.708 408.358 195.717 408.52 193.75 408.912C192.795 409.102 191.824 409.114 190.857 408.965C190.901 407.977 190.926 406.994 190.072 406.265C189.942 406.015 189.813 405.764 189.683 405.509C189.788 405.072 189.878 404.647 189.833 404.173C189.505 400.685 189.578 397.221 190.238 393.752C190.768 390.956 191.201 388.147 192.022 385.416C192.844 382.684 193.892 380.045 195.151 377.488C195.697 376.379 196.308 375.314 197.36 374.586C198.016 375.031 198.469 375.658 198.931 376.29C200.537 378.479 202.188 380.64 203.759 382.854C204.791 384.307 206.098 384.962 207.89 384.861C210.343 384.72 212.808 384.776 215.256 384.582C217.178 384.428 218.344 385.201 218.983 386.945C219.048 387.127 219.133 387.301 219.218 387.48C220.505 390.163 221.796 392.842 223.075 395.529C223.657 396.755 224.536 397.686 225.847 398.074C226.575 398.293 227.332 398.564 228.129 398.402C229.012 398.791 229.898 399.143 230.889 398.847H230.885Z" fill="#844414"/>
<path d="M228.121 398.405C227.324 398.567 226.567 398.292 225.839 398.077C224.527 397.689 223.649 396.758 223.066 395.532C221.788 392.844 220.497 390.165 219.21 387.482C219.125 387.308 219.04 387.13 218.975 386.948C218.34 385.204 217.17 384.431 215.248 384.585C212.799 384.779 210.335 384.722 207.882 384.864C206.089 384.969 204.782 384.313 203.75 382.857C202.18 380.643 200.529 378.482 198.922 376.292C198.461 375.665 198.008 375.038 197.352 374.589C197.603 372.286 197.955 369.995 197.943 367.664C197.939 366.705 198.206 365.738 198.174 364.783C198.036 360.793 197.716 356.818 196.607 352.954C196.446 352.391 196.243 351.849 196.369 351.254C197.898 353.075 199.554 354.787 201.318 356.377C202.844 357.753 204.463 359.028 206.377 359.858C206.381 360.246 206.417 360.635 206.389 361.019C206.328 361.833 206.587 362.537 207.024 363.209C208.012 364.718 208.991 366.236 209.954 367.757C210.748 369.008 211.52 370.275 212.297 371.533C213.75 373.893 215.191 376.26 216.648 378.615C217.903 380.643 219.185 382.65 220.424 384.686C221.994 387.276 223.483 389.914 225.223 392.399C226 393.504 226.688 394.678 227.36 395.851C227.805 396.628 228.303 397.417 228.121 398.393V398.405Z" fill="#FEB58A"/>
<path d="M237.834 363.742C238.809 362.41 239.764 361.067 240.468 359.569C240.687 359.1 241.007 358.711 241.383 358.363C242.192 358.707 242.719 359.367 243.212 360.047C243.969 361.091 244.685 362.163 245.26 363.325C248.704 370.261 252.184 377.182 255.596 384.134C257.243 387.493 258.797 390.901 260.331 394.312C261.723 397.412 262.516 400.67 262.192 404.09C261.909 407.072 261.023 409.905 259.554 412.528C258.097 415.126 256.405 417.558 254.24 419.63C253.775 420.075 253.362 420.585 252.71 420.779C252.318 420.516 252.192 420.176 252.557 419.828C253.313 419.1 253.795 418.197 254.358 417.327C255.499 415.555 256.065 413.604 256.519 411.581C256.818 410.245 256.911 408.91 256.899 407.55C256.879 405.344 256.575 403.171 255.956 401.079C255.025 397.922 253.945 394.81 252.395 391.884C250.549 388.4 248.809 384.863 246.923 381.403C245.224 378.286 243.492 375.186 241.853 372.034C240.841 370.087 239.695 368.214 238.631 366.295C238.194 365.506 237.725 364.713 237.834 363.75V363.742Z" fill="#EAA57B"/>
<path d="M234.721 203.256C234.656 203.587 234.519 203.818 234.163 203.956C229.059 205.935 224.029 208.088 218.999 210.245C217.226 211.006 215.405 211.661 213.6 212.349C213.09 212.543 212.35 212.297 212.03 211.888C211.751 211.528 211.73 210.662 212.054 210.241C212.285 209.941 212.576 209.654 212.9 209.464C216.83 207.125 220.48 204.348 224.466 202.094C226.987 200.666 229.488 199.205 231.998 197.756C232.625 198.278 232.799 199.059 233.127 199.747C233.677 200.908 234.191 202.086 234.721 203.26V203.256Z" fill="#4A4B46"/>
<path d="M155.478 416.354C155.499 416.762 155.519 417.175 155.539 417.584C155.28 419.061 155.879 420.198 156.907 421.198C157.607 421.882 158.396 422.412 159.307 422.764C160.153 423.933 161.367 424.678 162.492 425.524C163.313 426.139 164.163 426.714 165.005 427.305C165.389 427.576 165.673 427.904 165.632 428.413C161.949 428.567 158.279 428.401 154.608 428.11C153.366 428.013 152.196 427.661 151.14 427.001C149.388 425.9 148.781 424.16 149.699 422.323C150.897 419.923 152.601 417.912 154.916 416.479C155.07 416.382 155.288 416.394 155.478 416.354Z" fill="#89481A"/>
<path d="M160.052 406.643C161.978 407.237 163.714 408.217 165.329 409.386C166.466 410.208 166.656 411.086 166.142 412.239C165.58 413.498 164.394 413.98 163.123 413.409C161.654 412.749 160.222 412.017 158.923 411.062C158.607 410.827 158.303 410.601 157.891 410.605C158.012 408.957 158.85 407.699 160.052 406.643Z" fill="#EAA57B"/>
<path d="M163.188 401.999C164.786 401.857 166.045 402.472 167.069 403.686C167.563 404.273 168.178 404.759 168.675 405.341C169.489 406.296 169.011 407.632 167.781 407.826C167.287 407.903 166.717 407.927 166.268 407.753C164.333 406.996 162.516 406.054 161.69 403.945C161.82 403.01 162.415 402.436 163.192 401.999H163.188Z" fill="#EAA47A"/>
<path d="M189.679 405.514C189.808 405.765 189.938 406.015 190.067 406.27C189.63 406.307 189.189 406.323 188.752 406.384C188.497 406.42 188.262 406.562 188.21 406.837C188.092 407.456 187.971 408.124 188.299 408.678C188.594 409.172 189.209 408.962 189.695 409.002C189.946 409.022 190.197 409.031 190.448 409.047C190.391 409.079 190.338 409.132 190.278 409.136C186.595 409.573 183.123 409.103 180.051 406.825C179.764 406.61 179.642 406.351 179.622 406.015C182.249 405.506 184.875 405.429 187.489 406.064C188.343 406.27 188.975 405.829 189.667 405.518L189.679 405.514Z" fill="#8D4F20"/>
<path d="M156.967 412.094C158.857 412.11 160.447 412.996 162.018 413.891C162.807 414.34 163.07 415.06 162.851 415.886C162.641 416.687 162.062 417.201 161.318 417.505C160.998 417.634 160.694 417.432 160.399 417.302C159.335 416.837 158.262 416.392 157.206 415.906C156.781 415.708 156.348 415.631 155.891 415.639C155.891 414.74 156 413.858 156.299 413.004C156.429 412.632 156.635 412.32 156.963 412.094H156.967Z" fill="#EAA57B"/>
<path d="M246.542 254.635C247.332 254.416 248.125 254.44 248.918 254.594C248.129 254.889 247.336 254.845 246.542 254.635Z" fill="#FEB88C"/>
<path d="M228.121 398.403C228.307 397.424 227.805 396.639 227.36 395.862C226.688 394.688 226 393.519 225.223 392.41C223.479 389.925 221.994 387.286 220.423 384.696C219.189 382.661 217.902 380.653 216.648 378.626C215.191 376.271 213.75 373.903 212.297 371.544C211.52 370.281 210.747 369.018 209.954 367.768C208.987 366.242 208.007 364.729 207.024 363.219C206.587 362.551 206.332 361.843 206.389 361.03C206.417 360.645 206.385 360.253 206.376 359.868C206.526 359.82 206.676 359.771 206.826 359.723C207.493 360.148 207.967 360.726 208.408 361.386C211.488 365.995 214.535 370.621 217.364 375.392C219.501 378.994 221.771 382.515 223.977 386.072C225.943 389.249 227.801 392.495 229.918 395.579C230.581 396.546 231.01 397.63 230.881 398.853C229.889 399.148 229.003 398.796 228.121 398.407V398.403Z" fill="#EAA47A"/>
<path d="M159.307 422.761C158.396 422.409 157.607 421.879 156.907 421.195C155.883 420.199 155.28 419.058 155.539 417.581C156.425 417.561 157.166 417.917 157.789 418.52C158.437 419.147 159.084 419.774 159.695 420.434C160.282 421.065 160.266 421.276 159.728 422.118C159.59 422.332 159.448 422.546 159.307 422.761Z" fill="#E8A176"/>
<path d="M190.456 409.04C190.205 409.028 189.955 409.016 189.704 408.995C189.218 408.955 188.603 409.169 188.307 408.672C187.976 408.121 188.097 407.453 188.218 406.83C188.271 406.559 188.506 406.413 188.761 406.377C189.198 406.316 189.639 406.3 190.076 406.264C190.926 406.992 190.902 407.975 190.861 408.963C190.728 408.987 190.598 409.012 190.464 409.036L190.456 409.04Z" fill="#643207"/>
</svg>
