<svg width="500" height="500" viewBox="0 0 500 500" fill="none" xmlns="http://www.w3.org/2000/svg">
<path d="M183.928 408.539C184.139 408.262 184.35 407.989 184.566 407.716C185.745 406.212 187.315 406.146 188.93 406.687C190.315 407.153 191.661 407.747 192.937 408.49C194.868 409.616 196.821 410.712 198.801 411.754C200.094 412.436 201.453 412.999 202.782 413.615C204.819 415.423 207.22 416.496 209.851 417.112C211.03 417.389 212.218 417.429 213.392 417.073C213.916 417.337 214.483 417.345 215.042 417.297C218.675 417.007 222.313 416.712 225.942 416.404C230.139 416.048 234.335 415.691 238.528 415.304C243.353 414.86 248.205 414.966 253.031 414.442C256.242 414.095 259.453 413.773 262.634 413.232C263.047 413.162 263.469 413.114 263.865 412.977C265.233 412.515 265.7 411.759 265.304 410.399C264.745 408.477 263.918 406.704 261.965 405.763C262.211 404.65 261.829 403.722 261.191 402.816C259.466 400.352 257.768 397.871 256.101 395.373C254.355 392.76 252.674 390.103 250.933 387.485C246.943 381.49 243.036 375.437 238.879 369.551C236.988 366.868 235.136 364.158 233.108 361.571C232.765 361.136 232.567 360.582 231.991 360.366C232.044 359.733 231.59 359.337 231.269 358.892C229.4 356.345 227.689 353.697 226.131 350.944C224.574 348.185 223.21 345.348 222.507 342.234C221.908 339.586 221.838 336.977 222.797 334.382C223.958 331.223 225.823 328.747 228.986 327.308C230.935 326.42 232.972 326.054 235.057 325.724C236.904 325.43 238.655 325.491 240.428 326.09C243.956 327.286 246.842 329.222 248.452 332.728C248.654 333.172 248.891 333.607 249.129 334.034C251.465 338.195 253.814 342.344 256.141 346.509C258.402 350.552 260.601 354.63 262.906 358.646C264.094 360.714 265.453 362.68 266.725 364.695C267.006 365.139 267.323 365.478 267.904 365.381C267.904 366.181 268.181 366.89 268.607 367.554C269.404 368.79 270.217 370.017 270.978 371.275C273.292 375.116 275.589 378.969 277.889 382.818C279.578 385.647 281.268 388.471 282.944 391.304C284.012 393.112 285.125 394.902 286.106 396.758C287.281 398.989 288.565 401.162 289.507 403.511C290.057 404.874 290.694 406.207 291.187 407.593C292.027 409.968 292.546 412.423 292.999 414.908C293.558 417.966 293.259 420.904 292.454 423.816C291.777 426.258 290.8 428.589 288.966 430.45C288.543 430.877 288.614 431.061 289.19 431.875C287.919 433.995 285.812 434.989 283.661 435.86C282.301 436.41 280.841 436.644 279.376 436.877C276.583 437.321 273.776 437.171 270.978 437.299C258.767 437.871 246.542 437.325 234.34 437.778C228.586 437.99 222.828 437.866 217.087 438.188C213.933 438.363 210.766 438.284 207.634 438.61C205.478 438.834 203.305 438.9 201.15 439.19C198.722 439.516 196.289 439.784 193.865 440.158C193.109 440.273 192.321 440.255 191.551 440.233C190.698 440.207 189.897 439.987 189.356 439.234C186.4 437.246 183.594 435.069 180.954 432.68C181.051 432.205 181.095 431.708 181.258 431.255C181.482 430.63 181.302 430.168 180.871 429.737C180.176 429.042 179.498 428.334 178.781 427.661C178.157 427.071 177.418 426.684 176.529 426.662C176.472 425.818 176.41 424.973 176.353 424.133H176.331C176.978 424.124 177.554 424.348 178.135 424.617C179.212 425.114 180.299 425.593 181.399 426.038C182.525 426.495 183.554 426.046 184.183 424.89C184.641 424.049 184.39 422.818 183.479 422.312C181.597 421.26 179.731 420.117 177.506 419.888C177.686 419.268 177.923 418.683 178.425 418.243C179.322 418.788 180.237 419.303 181.108 419.879C182.402 420.737 183.783 421.401 185.265 421.859C185.525 421.938 185.82 422.004 186.079 421.969C187.06 421.828 187.975 420.917 188.116 419.822C188.296 418.441 188.243 417.842 187.073 417.095C186.189 416.532 185.292 415.977 184.35 415.52C183.101 414.913 181.957 414.02 180.479 413.985C180.946 412.942 181.201 411.776 182.204 411.051C182.661 411.57 183.097 412.111 183.585 412.599C184.944 413.967 186.554 414.97 188.468 415.251C190.368 415.529 190.852 414.939 190.685 413.012C190.654 412.643 190.474 412.348 190.227 412.097C189.691 411.548 189.145 411.007 188.608 410.452C187.328 409.137 185.815 408.389 183.937 408.534L183.928 408.539Z" fill="#FFB78A"/>
<path d="M325.23 160.721C325.622 161.385 325.983 162.067 326.409 162.71C331.437 170.263 336.281 177.925 340.328 186.064C342.276 189.979 343.935 193.999 344.885 198.279C345.127 199.375 345.312 200.492 345.421 201.605C345.685 204.213 344.973 206.668 343.732 208.89C342.958 210.28 341.656 211.34 340.424 212.4C331.543 220.041 321.324 225.504 310.837 230.51C303.596 233.968 296.158 236.942 288.517 239.396C284.435 240.707 280.309 241.882 276.125 242.836C274.964 243.1 273.776 243.272 272.602 243.487C272.989 242.414 273.046 241.305 273.037 240.179C273.015 237.368 273.094 234.557 273.011 231.751C272.976 230.572 273.354 229.714 274.229 229.01C274.827 228.531 275.479 228.1 276.033 227.572C278.364 225.346 280.599 223.028 283.067 220.929C285.464 218.888 287.615 216.566 289.938 214.428C293.079 211.533 296.171 208.573 299.272 205.626C300.394 204.561 301.384 203.338 302.607 202.414C304.529 200.963 306.055 199.124 307.811 197.514C308.308 197.056 308.506 196.507 308.51 195.829C308.519 194.958 308.426 194.18 307.74 193.52C307.292 193.089 306.992 192.508 306.61 192.011C303.768 188.285 300.918 184.563 298.08 180.833C294.271 175.823 290.474 170.804 286.669 165.789C285.992 164.9 285.165 164.32 283.973 164.531C284.25 164.113 284.413 163.752 284.048 163.229C280.48 158.17 277.352 152.825 274.093 147.573C270.49 141.775 267.376 135.709 265.321 129.155C264.142 125.402 262.937 121.654 261.811 117.889C261.389 116.481 261.164 115.016 260.848 113.574C263.694 111.176 266.557 108.796 269.386 106.381C271.04 104.969 272.641 103.496 274.269 102.053C276.253 104.34 278.237 106.628 280.221 108.911C279.948 110.472 280.792 111.585 281.725 112.654C282.873 113.974 284.136 115.21 285.174 116.613C286.018 117.753 287.03 118.711 287.932 119.785C289.102 121.175 290.211 122.618 291.394 123.999C292.621 125.437 293.972 126.775 295.142 128.253C296.057 129.41 297.068 130.474 298.032 131.583C299.039 132.744 299.915 134.02 300.913 135.185C302.233 136.729 303.627 138.208 304.973 139.73C306.086 140.988 307.195 142.25 308.281 143.535C309.5 144.973 310.661 146.464 311.902 147.885C313.375 149.574 314.99 151.145 316.384 152.896C317.348 154.11 318.526 155.135 319.428 156.366C320.524 157.862 321.852 159.058 323.282 160.198C323.906 160.695 324.518 160.787 325.23 160.726V160.721Z" fill="#696E66"/>
<path d="M229.308 245.162C227.94 243.103 227.091 240.789 226.088 238.55C225.709 237.71 225.445 236.844 225.472 235.907C225.481 235.629 225.463 235.339 225.406 235.066C224.368 230.206 225.454 225.574 226.972 221.007C228.78 215.575 231.454 210.56 234.626 205.814C235.761 204.116 237.221 202.673 238.682 201.256C240.749 199.255 242.878 197.31 245.025 195.392C248.28 192.489 251.861 190.004 255.292 187.32C263.756 180.7 272.232 174.097 280.7 167.481C281.642 166.747 282.561 165.99 283.489 165.242C283.458 166.148 283.956 166.843 284.448 167.525C286.177 169.901 287.91 172.276 289.67 174.625C292.186 177.981 294.72 181.325 297.262 184.663C299.677 187.835 302.101 191.002 304.538 194.156C305.33 195.181 305.33 195.692 304.389 196.703C303.478 197.68 302.378 198.445 301.402 199.343C298.978 201.569 296.73 203.984 294.205 206.117C292.12 207.877 290.426 210.076 288.183 211.677C285.178 214.924 281.699 217.677 278.589 220.823C277.797 221.623 277.076 222.525 276.174 223.167C274.383 224.443 273.015 226.154 271.383 227.584C270.407 228.437 270.02 229.401 270.051 230.716C270.134 234.156 270.072 237.6 270.072 241.04C270.072 241.392 270.059 241.744 270.086 242.091C270.2 243.477 270.49 243.728 272.092 243.873C271.788 244.348 271.031 244.058 270.79 244.643C268.722 245.074 266.624 245.131 264.521 245.171C259.898 245.263 255.279 245.25 250.656 245.435C244.145 245.69 237.622 245.567 231.102 245.611C230.46 245.615 229.844 245.562 229.308 245.158V245.162Z" fill="#686D65"/>
<path d="M267.909 365.395C267.328 365.491 267.011 365.157 266.73 364.708C265.458 362.689 264.099 360.723 262.911 358.66C260.606 354.644 258.407 350.566 256.146 346.523C253.819 342.357 251.47 338.209 249.134 334.048C248.892 333.621 248.659 333.186 248.457 332.741C246.851 329.235 243.965 327.3 240.433 326.103C238.66 325.501 236.909 325.443 235.062 325.738C232.977 326.068 230.944 326.433 228.991 327.322C225.829 328.76 223.963 331.237 222.802 334.395C221.847 336.991 221.918 339.599 222.512 342.247C223.216 345.362 224.579 348.199 226.136 350.957C227.694 353.707 229.405 356.355 231.274 358.906C231.6 359.346 232.053 359.746 231.996 360.38C231.736 360.468 231.472 360.551 231.213 360.635C229.744 359.698 228.23 358.823 226.814 357.811C224.707 356.306 222.855 354.498 221.078 352.624C220.699 352.224 220.396 351.731 219.824 351.556L219.842 351.577C219.723 351.393 219.604 351.212 219.49 351.028C218.79 349.422 218.02 347.843 217.4 346.206C216.072 342.709 215.284 339.107 215.126 335.341C214.902 330.036 215.557 324.841 216.648 319.672C218.883 309.106 221.073 298.535 223.339 287.978C223.796 285.857 224.109 283.693 224.922 281.657C225.024 281.397 225.16 281.155 225.283 280.904C226.04 281.045 226.801 281.177 227.557 281.331C232.568 282.369 237.574 283.416 242.584 284.459C248.483 285.69 254.382 286.931 260.281 288.154C264.535 289.038 268.793 289.905 273.047 290.78C273.055 297.031 272.959 303.286 273.108 309.533C273.223 314.235 273.284 318.942 273.561 323.631C273.808 327.841 273.676 332.059 273.984 336.256C274.274 340.189 274.283 344.117 274.221 348.045C274.177 351.072 273.636 354.045 272.55 356.896C272.277 357.613 271.991 358.33 271.714 359.047C270.416 361.145 269.409 363.419 267.904 365.395H267.909Z" fill="#8B8BDF"/>
<path d="M273.042 290.778C268.788 289.902 264.53 289.036 260.276 288.151C254.377 286.924 248.478 285.688 242.579 284.456C237.573 283.409 232.563 282.367 227.553 281.329C226.796 281.17 226.039 281.043 225.278 280.902C225.137 278.201 225.85 275.619 226.431 273.028C227.258 269.337 228.111 265.651 228.599 261.907C228.881 259.765 229.224 257.61 229.185 255.423C229.149 253.395 229.651 251.385 229.506 249.344C229.404 247.954 229.369 246.56 229.308 245.165C229.844 245.565 230.46 245.623 231.102 245.618C237.622 245.574 244.145 245.697 250.656 245.442C255.279 245.262 259.902 245.271 264.521 245.178C266.624 245.139 268.722 245.081 270.79 244.65C270.979 246.815 271.15 248.983 271.366 251.148C271.555 253.03 271.788 254.909 272.004 256.791C272.043 257.139 272.118 257.486 272.131 257.834C272.232 260.645 272.562 263.429 272.945 266.21C272.954 266.28 272.954 266.35 272.958 266.421C273.455 274 273.627 281.588 273.42 289.185C273.407 289.739 273.477 290.324 273.042 290.782V290.778Z" fill="#FFB88B"/>
<path d="M293.224 65.8183C294.482 68.1805 295.428 70.6747 296.268 73.2041C300.205 84.9888 304.076 96.7956 308.031 108.576C309.729 113.63 311.554 118.645 313.345 123.673C315.742 130.421 318.034 137.195 319.877 144.124C320.889 147.92 322.204 151.633 323.379 155.381C323.585 156.045 323.911 156.683 323.893 157.404C323.348 157.347 323.018 156.96 322.732 156.568C320.946 154.144 318.94 151.901 317.027 149.583C316.226 148.611 315.39 147.669 314.585 146.701C313.38 145.25 312.131 143.829 310.991 142.324C310.015 141.036 308.875 139.896 307.833 138.669C305.84 136.324 303.896 133.94 301.912 131.591C300.83 130.307 299.695 129.066 298.604 127.786C297.245 126.189 295.916 124.566 294.561 122.965C293.479 121.68 292.366 120.422 291.288 119.133C290.259 117.902 289.269 116.63 288.24 115.399C286.758 113.63 285.258 111.875 283.758 110.124C282.966 109.201 282.112 108.378 280.766 108.426C280.568 107.115 280.384 105.805 280.172 104.498C279.702 101.608 279.495 98.6783 278.835 95.8146C278.69 93.4963 278.206 91.2397 277.696 88.983C276.97 85.7674 276.235 82.5562 275.505 79.3406C275.048 77.1763 274.599 75.0077 274.133 72.8478C273.869 71.6293 273.609 70.4152 273.671 69.1571C274.691 68.6732 275.751 68.4005 276.873 68.2245C280.669 67.6262 284.439 66.8784 288.24 66.3066C289.885 66.0602 291.517 65.4796 293.224 65.8183Z" fill="#696E66"/>
<path d="M261.97 405.772C263.923 406.709 264.75 408.486 265.309 410.404C265.705 411.763 265.238 412.516 263.87 412.982C263.475 413.114 263.052 413.167 262.639 413.237C259.454 413.778 256.243 414.095 253.036 414.447C248.215 414.97 243.358 414.869 238.533 415.309C234.34 415.696 230.144 416.052 225.947 416.409C222.314 416.717 218.68 417.011 215.047 417.302C214.484 417.346 213.921 417.337 213.397 417.077C213.129 416.725 213.067 416.321 213.076 415.885C213.094 415.181 213.085 414.482 213.085 413.778C213.507 413.536 213.969 413.343 214.347 413.044C214.875 412.63 215.064 412.076 214.954 411.363C214.629 409.278 214.334 407.189 214.369 405.068C214.396 403.52 214.444 401.98 214.664 400.441C214.91 398.703 214.954 396.939 215.201 395.202C215.935 390.09 217.418 385.194 219.569 380.5C220.132 379.273 220.84 378.151 221.927 377.307C223.523 378.503 224.597 380.162 225.793 381.71C227.254 383.593 228.701 385.489 230.109 387.411C231.006 388.643 232.079 389.193 233.672 389.14C237.033 389.034 240.402 389.166 243.767 389.149C245.25 389.144 246.327 389.756 247.071 391.001C247.432 391.603 247.779 392.21 248.1 392.835C249.517 395.575 250.96 398.303 252.314 401.07C252.965 402.394 253.889 403.366 255.196 404.008C255.697 404.255 256.199 404.514 256.683 404.791C257.444 405.227 258.244 405.394 259.106 405.218C260.035 405.526 260.976 405.759 261.961 405.777L261.97 405.772Z" fill="#8A4102"/>
<path d="M293.224 65.8182C291.518 65.4795 289.886 66.0601 288.24 66.3065C284.44 66.8739 280.67 67.6261 276.874 68.2244C275.752 68.4003 274.687 68.6775 273.671 69.157C273.205 68.044 272.483 67.1203 271.692 66.2053C270.737 65.1012 269.703 64.0278 269.228 62.5718C268.392 60.016 268.797 57.5702 269.866 55.208C270.561 53.6727 271.344 52.1727 272.176 50.7123C274.327 46.9292 276.482 43.1461 278.972 39.5698C280.173 37.841 281.396 36.1254 282.693 34.467C283.736 33.1385 284.976 32.008 286.419 31.0842C287.339 30.4948 288.355 30.2264 289.375 30.0461C291.214 29.7206 293.004 31.1634 293.286 32.9846C293.598 35.0037 293.651 37.036 293.647 39.0683C293.642 44.3382 293.673 49.6081 293.598 54.878C293.55 58.5248 293.348 62.1671 293.216 65.8138L293.224 65.8182Z" fill="#FFB88D"/>
<path d="M259.115 405.213C258.249 405.389 257.452 405.222 256.691 404.787C256.203 404.51 255.706 404.25 255.205 404.004C253.898 403.361 252.97 402.389 252.323 401.065C250.964 398.298 249.526 395.571 248.109 392.83C247.788 392.21 247.44 391.599 247.08 390.996C246.336 389.751 245.259 389.14 243.776 389.144C240.411 389.157 237.041 389.03 233.681 389.135C232.088 389.184 231.019 388.634 230.117 387.406C228.714 385.48 227.263 383.588 225.802 381.705C224.606 380.161 223.528 378.503 221.935 377.302C222.041 375.208 222.006 373.11 222.279 371.016C222.454 369.648 222.454 368.223 222.142 366.833C222.019 366.296 222.041 365.72 222.032 365.161C221.966 361.356 221.271 357.657 220.224 354.014C219.991 353.205 219.705 352.413 219.837 351.551C220.409 351.727 220.712 352.219 221.091 352.62C222.868 354.498 224.72 356.302 226.827 357.806C228.243 358.818 229.757 359.693 231.226 360.63C231.49 362.614 232.268 364.365 233.39 366.032C238.599 373.77 243.754 381.547 248.945 389.302C250.894 392.214 252.917 395.078 254.866 397.99C256.423 400.313 258.121 402.561 259.124 405.213H259.115Z" fill="#FEB58A"/>
<path d="M267.908 365.393C269.408 363.417 270.42 361.143 271.718 359.045C273.539 360.422 274.964 362.146 276.095 364.117C277.876 367.227 279.645 370.341 281.391 373.469C284.193 378.501 287.017 383.525 289.749 388.597C292.146 393.053 294.487 397.54 296.752 402.062C298.441 405.44 299.273 409.056 299.136 412.857C299.026 415.989 298.23 418.976 296.897 421.787C295.296 425.17 293.264 428.284 290.545 430.906C290.14 431.297 289.749 431.706 289.19 431.882C288.618 431.069 288.544 430.888 288.966 430.457C290.805 428.596 291.777 426.265 292.454 423.824C293.264 420.911 293.558 417.973 293 414.916C292.547 412.426 292.028 409.976 291.187 407.6C290.699 406.215 290.057 404.886 289.507 403.518C288.566 401.169 287.281 398.996 286.107 396.766C285.126 394.909 284.017 393.119 282.944 391.311C281.268 388.478 279.579 385.654 277.889 382.826C275.589 378.976 273.297 375.123 270.979 371.283C270.218 370.025 269.404 368.797 268.608 367.561C268.181 366.897 267.899 366.189 267.904 365.388L267.908 365.393Z" fill="#EAA57B"/>
<path d="M275.506 79.3442C276.236 82.5599 276.966 85.7711 277.696 88.9867C278.206 91.2433 278.69 93.5 278.835 95.8182C278.726 95.9062 278.589 95.9766 278.51 96.0822C277.225 97.8373 276.003 99.6409 274.564 101.277C274.393 101.471 274.362 101.792 274.269 102.052C272.646 103.494 271.041 104.968 269.387 106.38C266.558 108.795 263.699 111.179 260.848 113.572C260.686 113.44 260.47 113.339 260.373 113.172C258.807 110.44 257.078 107.792 256.124 104.748C255.53 102.857 255.187 100.943 255.345 98.9591C255.53 96.588 256.243 94.481 258.029 92.7566C260.153 90.7067 262.458 88.8855 264.759 87.0556C268.216 84.315 271.81 81.7505 275.506 79.3398V79.3442Z" fill="#FEB88D"/>
<path d="M272.087 243.878C270.486 243.728 270.196 243.477 270.081 242.096C270.051 241.749 270.068 241.392 270.068 241.045C270.068 237.605 270.13 234.16 270.046 230.72C270.015 229.405 270.402 228.442 271.379 227.588C273.011 226.159 274.379 224.448 276.169 223.172C277.071 222.53 277.793 221.623 278.584 220.827C281.694 217.686 285.17 214.933 288.179 211.682C290.422 210.081 292.116 207.881 294.201 206.122C296.726 203.988 298.973 201.578 301.397 199.347C302.374 198.45 303.474 197.685 304.384 196.708C305.326 195.696 305.33 195.19 304.534 194.161C302.097 191.007 299.673 187.84 297.258 184.668C294.715 181.329 292.182 177.986 289.665 174.63C287.901 172.276 286.168 169.905 284.444 167.53C283.951 166.852 283.454 166.157 283.485 165.247C283.538 164.93 283.621 164.64 283.978 164.53C285.17 164.319 286.001 164.899 286.674 165.788C290.479 170.803 294.275 175.822 298.085 180.832C300.922 184.563 303.773 188.284 306.614 192.01C306.997 192.511 307.296 193.092 307.745 193.519C308.431 194.179 308.524 194.957 308.515 195.828C308.51 196.506 308.312 197.055 307.815 197.513C306.065 199.123 304.534 200.962 302.611 202.413C301.388 203.337 300.399 204.56 299.277 205.625C296.176 208.572 293.083 211.528 289.942 214.427C287.62 216.565 285.469 218.887 283.071 220.928C280.608 223.027 278.373 225.345 276.037 227.571C275.483 228.099 274.837 228.53 274.234 229.009C273.359 229.713 272.98 230.575 273.015 231.75C273.095 234.556 273.015 237.367 273.042 240.178C273.051 241.309 272.993 242.417 272.606 243.486C272.435 243.618 272.263 243.746 272.092 243.878H272.087Z" fill="#494B45"/>
<path d="M280.766 108.423C282.112 108.374 282.97 109.197 283.758 110.121C285.258 111.876 286.758 113.627 288.24 115.395C289.274 116.627 290.259 117.898 291.288 119.13C292.366 120.419 293.479 121.677 294.561 122.961C295.916 124.563 297.245 126.186 298.604 127.783C299.69 129.063 300.83 130.303 301.912 131.588C303.896 133.937 305.84 136.321 307.833 138.666C308.875 139.893 310.015 141.028 310.991 142.321C312.131 143.825 313.376 145.246 314.585 146.698C315.39 147.666 316.226 148.607 317.027 149.579C318.94 151.897 320.942 154.141 322.732 156.565C323.022 156.956 323.348 157.339 323.893 157.401C324.263 158.122 324.637 158.843 325.006 159.565C325.191 159.926 325.402 160.286 325.226 160.717C324.514 160.779 323.898 160.687 323.278 160.189C321.843 159.05 320.519 157.858 319.424 156.358C318.522 155.122 317.343 154.101 316.38 152.887C314.99 151.136 313.371 149.566 311.897 147.877C310.657 146.456 309.496 144.965 308.277 143.526C307.191 142.246 306.082 140.979 304.969 139.721C303.623 138.199 302.229 136.721 300.909 135.177C299.91 134.011 299.035 132.736 298.028 131.574C297.064 130.461 296.057 129.401 295.138 128.244C293.967 126.766 292.617 125.429 291.39 123.991C290.206 122.609 289.098 121.171 287.928 119.776C287.026 118.703 286.01 117.744 285.17 116.605C284.131 115.202 282.873 113.966 281.721 112.646C280.788 111.577 279.939 110.464 280.216 108.902L280.766 108.414V108.423Z" fill="#494B45"/>
<path d="M180.95 432.694C183.594 435.083 186.4 437.26 189.352 439.248C186.616 439.156 183.88 439.095 181.148 438.967C179.257 438.879 177.365 438.712 175.473 438.558C173.978 438.439 172.579 437.973 171.325 437.155C169.192 435.769 168.532 433.552 169.711 431.291C170.89 429.03 172.46 427.055 174.532 425.515C175.144 425.062 175.746 424.6 176.353 424.143C176.41 424.987 176.472 425.832 176.529 426.672C176.446 427.763 176.89 428.695 177.378 429.628C178.17 431.128 179.472 432.008 180.95 432.69V432.694Z" fill="#8C4405"/>
<path d="M180.484 413.988C181.962 414.023 183.106 414.921 184.355 415.524C185.296 415.981 186.198 416.531 187.078 417.098C188.248 417.846 188.297 418.444 188.121 419.826C187.98 420.921 187.06 421.836 186.084 421.972C185.82 422.008 185.53 421.942 185.27 421.862C183.788 421.405 182.411 420.741 181.113 419.883C180.242 419.307 179.327 418.788 178.43 418.246C178.395 416.478 179.257 415.145 180.488 413.993L180.484 413.988Z" fill="#EAA57B"/>
<path d="M183.928 408.539C185.806 408.394 187.32 409.142 188.6 410.457C189.136 411.007 189.686 411.548 190.218 412.102C190.465 412.358 190.645 412.652 190.676 413.017C190.843 414.944 190.359 415.534 188.459 415.257C186.545 414.975 184.935 413.976 183.576 412.604C183.088 412.116 182.657 411.57 182.195 411.056C182.454 410 182.925 409.089 183.919 408.539H183.928Z" fill="#EBA57A"/>
<path d="M177.506 419.891C179.731 420.12 181.597 421.264 183.479 422.315C184.39 422.821 184.636 424.053 184.183 424.893C183.554 426.054 182.525 426.498 181.399 426.041C180.299 425.597 179.212 425.121 178.135 424.62C177.554 424.352 176.978 424.127 176.331 424.136C176.353 423.441 176.371 422.742 176.397 422.047C176.428 421.154 176.771 420.419 177.506 419.887V419.891Z" fill="#EBA57A"/>
<path d="M213.085 413.778C213.085 414.482 213.093 415.186 213.076 415.885C213.063 416.321 213.129 416.725 213.397 417.077C212.218 417.433 211.035 417.389 209.856 417.117C207.23 416.501 204.828 415.428 202.787 413.62C205.589 412.832 208.417 412.955 211.246 413.413C211.862 413.514 212.473 413.655 213.085 413.778Z" fill="#8C4405"/>
<path d="M219.489 351.023C219.608 351.208 219.727 351.389 219.841 351.573C219.547 351.503 219.485 351.287 219.489 351.023Z" fill="#FEB58A"/>
<path d="M259.114 405.213C258.111 402.561 256.413 400.313 254.856 397.99C252.907 395.078 250.884 392.214 248.935 389.302C243.744 381.551 238.593 373.774 233.381 366.032C232.259 364.369 231.48 362.614 231.216 360.63C231.476 360.547 231.74 360.459 231.999 360.375C232.576 360.591 232.774 361.14 233.117 361.58C235.145 364.167 236.997 366.877 238.888 369.56C243.045 375.446 246.947 381.499 250.941 387.494C252.683 390.112 254.363 392.764 256.11 395.382C257.777 397.88 259.475 400.361 261.199 402.825C261.833 403.731 262.216 404.655 261.974 405.772C260.988 405.754 260.047 405.521 259.119 405.213H259.114Z" fill="#EBA57A"/>
<path d="M180.95 432.694C179.468 432.012 178.166 431.128 177.378 429.632C176.886 428.699 176.441 427.767 176.529 426.676C177.418 426.702 178.157 427.085 178.782 427.674C179.494 428.347 180.176 429.06 180.871 429.751C181.302 430.182 181.482 430.644 181.258 431.268C181.095 431.721 181.051 432.218 180.955 432.694H180.95Z" fill="#EBA57A"/>
<path d="M280.766 108.423C280.582 108.586 280.401 108.749 280.216 108.912C278.232 106.624 276.249 104.337 274.265 102.054C274.361 101.794 274.388 101.473 274.559 101.279C275.998 99.643 277.221 97.8394 278.505 96.0843C278.584 95.9743 278.721 95.9039 278.831 95.8203C279.491 98.6796 279.702 101.614 280.168 104.504C280.379 105.81 280.568 107.121 280.762 108.432L280.766 108.423Z" fill="#F9F8F7"/>
</svg>
