<svg width="500" height="500" viewBox="0 0 500 500" fill="none" xmlns="http://www.w3.org/2000/svg">
<path d="M330.679 399.539C330.468 399.262 330.257 398.989 330.042 398.716C328.863 397.212 327.292 397.146 325.678 397.687C324.292 398.153 322.946 398.747 321.67 399.49C319.739 400.616 317.786 401.712 315.807 402.754C314.513 403.436 313.154 403.999 311.826 404.615C309.789 406.423 307.387 407.496 304.757 408.112C303.578 408.389 302.39 408.429 301.215 408.073C300.692 408.337 300.124 408.345 299.566 408.297C295.932 408.007 292.294 407.712 288.665 407.404C284.469 407.048 280.272 406.691 276.08 406.304C271.254 405.86 266.402 405.966 261.577 405.442C258.365 405.095 255.154 404.773 251.974 404.232C251.56 404.162 251.138 404.114 250.742 403.977C249.374 403.515 248.908 402.759 249.304 401.399C249.862 399.477 250.689 397.704 252.642 396.763C252.396 395.65 252.779 394.722 253.417 393.816C255.141 391.352 256.839 388.871 258.506 386.373C260.253 383.76 261.933 381.103 263.675 378.485C267.665 372.49 271.571 366.437 275.728 360.551C277.62 357.868 279.471 355.158 281.499 352.571C281.842 352.136 282.04 351.582 282.617 351.366C282.564 350.733 283.017 350.337 283.338 349.892C285.208 347.345 286.919 344.697 288.476 341.944C290.033 339.185 291.397 336.348 292.101 333.234C292.699 330.586 292.769 327.977 291.81 325.382C290.649 322.223 288.784 319.747 285.621 318.308C283.672 317.42 281.636 317.054 279.551 316.724C277.703 316.43 275.952 316.491 274.18 317.09C270.652 318.286 267.766 320.222 266.156 323.728C265.954 324.172 265.716 324.607 265.478 325.034C263.143 329.195 260.794 333.344 258.467 337.509C256.206 341.552 254.006 345.63 251.701 349.646C250.513 351.714 249.154 353.68 247.883 355.695C247.601 356.139 247.284 356.478 246.704 356.381C246.704 357.181 246.427 357.89 246 358.554C245.204 359.79 244.39 361.017 243.629 362.275C241.315 366.116 239.019 369.969 236.718 373.818C235.029 376.647 233.34 379.471 231.664 382.304C230.595 384.112 229.482 385.902 228.501 387.758C227.327 389.989 226.042 392.162 225.101 394.511C224.551 395.874 223.913 397.207 223.42 398.593C222.58 400.968 222.061 403.423 221.608 405.908C221.049 408.966 221.348 411.904 222.153 414.816C222.831 417.258 223.807 419.589 225.642 421.45C226.064 421.877 225.994 422.061 225.417 422.875C226.689 424.995 228.796 425.989 230.947 426.86C232.306 427.41 233.767 427.644 235.231 427.877C238.025 428.321 240.831 428.171 243.629 428.299C255.84 428.871 268.065 428.325 280.268 428.778C286.021 428.99 291.78 428.866 297.52 429.188C300.674 429.363 303.842 429.284 306.974 429.61C309.129 429.834 311.302 429.9 313.458 430.19C315.886 430.516 318.318 430.784 320.742 431.158C321.499 431.273 322.286 431.255 323.056 431.233C323.909 431.207 324.71 430.987 325.251 430.234C328.207 428.246 331.014 426.069 333.653 423.68C333.556 423.205 333.512 422.708 333.35 422.255C333.125 421.63 333.306 421.168 333.737 420.737C334.432 420.042 335.109 419.334 335.826 418.661C336.451 418.071 337.19 417.684 338.078 417.662C338.136 416.818 338.197 415.973 338.254 415.133H338.276C337.63 415.124 337.053 415.348 336.473 415.617C335.395 416.114 334.309 416.593 333.209 417.038C332.083 417.495 331.053 417.046 330.424 415.89C329.967 415.049 330.218 413.818 331.128 413.312C333.011 412.26 334.876 411.117 337.102 410.888C336.921 410.268 336.684 409.683 336.182 409.243C335.285 409.788 334.37 410.303 333.499 410.879C332.206 411.737 330.825 412.401 329.342 412.859C329.083 412.938 328.788 413.004 328.528 412.969C327.547 412.828 326.632 411.917 326.492 410.822C326.311 409.441 326.364 408.842 327.534 408.095C328.418 407.532 329.316 406.977 330.257 406.52C331.506 405.913 332.65 405.02 334.128 404.985C333.662 403.942 333.407 402.776 332.404 402.051C331.946 402.57 331.511 403.111 331.023 403.599C329.663 404.967 328.053 405.97 326.14 406.251C324.239 406.529 323.755 405.939 323.923 404.012C323.953 403.643 324.134 403.348 324.38 403.097C324.917 402.548 325.462 402.007 325.999 401.452C327.279 400.137 328.792 399.389 330.671 399.534L330.679 399.539Z" fill="#FFB78A"/>
<path d="M189.377 151.721C188.986 152.385 188.625 153.067 188.198 153.71C183.17 161.263 178.327 168.925 174.28 177.064C172.331 180.979 170.673 184.999 169.723 189.279C169.481 190.375 169.296 191.492 169.186 192.605C168.922 195.213 169.635 197.668 170.875 199.89C171.649 201.28 172.951 202.34 174.183 203.4C183.065 211.041 193.283 216.504 203.77 221.51C211.011 224.968 218.45 227.942 226.09 230.396C230.173 231.707 234.299 232.882 238.482 233.836C239.644 234.1 240.831 234.272 242.006 234.487C241.619 233.414 241.562 232.305 241.57 231.179C241.592 228.368 241.513 225.557 241.597 222.751C241.632 221.572 241.254 220.714 240.378 220.01C239.78 219.531 239.129 219.1 238.575 218.572C236.243 216.346 234.009 214.028 231.541 211.929C229.143 209.888 226.992 207.566 224.67 205.428C221.529 202.533 218.436 199.573 215.335 196.626C214.213 195.561 213.224 194.338 212.001 193.414C210.078 191.963 208.552 190.124 206.797 188.514C206.3 188.056 206.102 187.507 206.097 186.829C206.089 185.958 206.181 185.18 206.867 184.52C207.316 184.089 207.615 183.508 207.998 183.011C210.839 179.285 213.69 175.563 216.527 171.833C220.337 166.823 224.133 161.804 227.938 156.789C228.615 155.9 229.442 155.32 230.635 155.531C230.357 155.113 230.195 154.752 230.56 154.229C234.127 149.17 237.255 143.825 240.515 138.573C244.117 132.775 247.232 126.709 249.286 120.155C250.465 116.402 251.67 112.654 252.796 108.889C253.219 107.481 253.443 106.016 253.76 104.574C250.914 102.176 248.05 99.7963 245.221 97.3813C243.567 95.9692 241.966 94.4956 240.339 93.0527C238.355 95.3402 236.371 97.6276 234.387 99.9107C234.66 101.472 233.815 102.585 232.882 103.654C231.734 104.974 230.472 106.21 229.434 107.613C228.589 108.753 227.577 109.711 226.676 110.785C225.505 112.175 224.397 113.618 223.214 114.999C221.986 116.437 220.636 117.775 219.466 119.253C218.551 120.41 217.539 121.474 216.576 122.583C215.568 123.744 214.693 125.02 213.694 126.185C212.375 127.729 210.98 129.208 209.634 130.73C208.521 131.988 207.413 133.25 206.326 134.535C205.108 135.973 203.946 137.464 202.706 138.885C201.232 140.574 199.618 142.145 198.223 143.896C197.26 145.11 196.081 146.135 195.179 147.366C194.084 148.862 192.755 150.058 191.326 151.198C190.701 151.695 190.09 151.787 189.377 151.726V151.721Z" fill="#696E66"/>
<path d="M285.3 236.162C286.668 234.103 287.517 231.789 288.52 229.55C288.898 228.71 289.162 227.844 289.136 226.907C289.127 226.629 289.144 226.339 289.202 226.066C290.24 221.206 289.153 216.574 287.636 212.007C285.828 206.575 283.153 201.56 279.982 196.814C278.847 195.116 277.386 193.673 275.926 192.256C273.858 190.255 271.729 188.31 269.582 186.392C266.327 183.489 262.747 181.004 259.315 178.32C250.852 171.7 242.375 165.097 233.907 158.481C232.966 157.747 232.046 156.99 231.118 156.242C231.149 157.148 230.652 157.843 230.159 158.525C228.43 160.901 226.697 163.276 224.938 165.625C222.422 168.981 219.888 172.325 217.345 175.663C214.93 178.835 212.506 182.002 210.069 185.156C209.278 186.181 209.277 186.692 210.219 187.703C211.129 188.68 212.229 189.445 213.206 190.343C215.63 192.569 217.877 194.984 220.402 197.117C222.487 198.877 224.181 201.076 226.425 202.677C229.429 205.924 232.909 208.677 236.019 211.823C236.81 212.623 237.532 213.525 238.434 214.167C240.224 215.443 241.592 217.154 243.224 218.584C244.201 219.437 244.588 220.401 244.557 221.716C244.473 225.156 244.535 228.6 244.535 232.04C244.535 232.392 244.548 232.744 244.522 233.091C244.407 234.477 244.117 234.728 242.516 234.873C242.819 235.348 243.576 235.058 243.818 235.643C245.885 236.074 247.984 236.131 250.086 236.171C254.71 236.263 259.329 236.25 263.952 236.435C270.462 236.69 276.986 236.567 283.505 236.611C284.147 236.615 284.763 236.562 285.3 236.158V236.162Z" fill="#686D65"/>
<path d="M246.699 356.395C247.279 356.491 247.596 356.157 247.878 355.708C249.149 353.689 250.508 351.723 251.696 349.66C254.001 345.644 256.2 341.566 258.461 337.523C260.789 333.357 263.138 329.209 265.473 325.048C265.715 324.621 265.948 324.186 266.151 323.741C267.756 320.235 270.642 318.3 274.174 317.103C275.947 316.501 277.698 316.443 279.546 316.738C281.631 317.068 283.663 317.433 285.616 318.322C288.779 319.76 290.644 322.237 291.805 325.395C292.76 327.991 292.69 330.599 292.096 333.247C291.392 336.362 290.028 339.199 288.471 341.957C286.914 344.707 285.203 347.355 283.333 349.906C283.008 350.346 282.554 350.746 282.612 351.38C282.871 351.468 283.135 351.551 283.395 351.635C284.864 350.698 286.377 349.823 287.794 348.811C289.901 347.306 291.753 345.498 293.53 343.624C293.908 343.224 294.212 342.731 294.783 342.556L294.766 342.577C294.885 342.393 295.003 342.212 295.118 342.028C295.817 340.422 296.587 338.843 297.207 337.206C298.536 333.709 299.323 330.107 299.482 326.341C299.706 321.036 299.05 315.841 297.959 310.672C295.725 300.106 293.534 289.535 291.269 278.978C290.811 276.857 290.499 274.693 289.685 272.657C289.584 272.397 289.448 272.155 289.324 271.904C288.568 272.045 287.807 272.177 287.05 272.331C282.04 273.369 277.034 274.416 272.023 275.459C266.124 276.69 260.225 277.931 254.326 279.154C250.073 280.038 245.815 280.905 241.561 281.78C241.552 288.031 241.649 294.286 241.499 300.533C241.385 305.235 241.323 309.942 241.046 314.631C240.8 318.841 240.932 323.059 240.624 327.256C240.333 331.189 240.325 335.117 240.386 339.045C240.43 342.072 240.971 345.045 242.058 347.896C242.331 348.613 242.617 349.33 242.894 350.047C244.191 352.145 245.199 354.419 246.703 356.395H246.699Z" fill="#8B8BDF"/>
<path d="M241.566 281.778C245.819 280.902 250.078 280.036 254.331 279.151C260.23 277.924 266.129 276.688 272.028 275.456C277.034 274.409 282.045 273.367 287.055 272.329C287.812 272.17 288.568 272.043 289.329 271.902C289.47 269.201 288.757 266.619 288.177 264.028C287.35 260.337 286.496 256.651 286.008 252.907C285.726 250.765 285.383 248.61 285.423 246.423C285.458 244.395 284.957 242.385 285.102 240.344C285.203 238.954 285.238 237.56 285.3 236.165C284.763 236.565 284.147 236.623 283.505 236.618C276.986 236.574 270.462 236.697 263.952 236.442C259.328 236.262 254.705 236.271 250.086 236.178C247.984 236.139 245.885 236.081 243.818 235.65C243.629 237.815 243.457 239.983 243.242 242.148C243.052 244.03 242.819 245.909 242.604 247.791C242.564 248.139 242.489 248.486 242.476 248.834C242.375 251.645 242.045 254.429 241.662 257.21C241.654 257.28 241.654 257.35 241.649 257.421C241.152 265 240.981 272.588 241.187 280.185C241.2 280.739 241.13 281.324 241.566 281.782V281.778Z" fill="#FFB88B"/>
<path d="M221.383 56.8183C220.125 59.1805 219.18 61.6747 218.339 64.2041C214.402 75.9888 210.531 87.7956 206.577 99.5759C204.879 104.63 203.053 109.645 201.263 114.673C198.865 121.421 196.573 128.195 194.73 135.124C193.719 138.92 192.403 142.633 191.229 146.381C191.022 147.045 190.696 147.683 190.714 148.404C191.26 148.347 191.589 147.96 191.875 147.568C193.661 145.144 195.667 142.901 197.581 140.583C198.381 139.611 199.217 138.669 200.022 137.701C201.227 136.25 202.477 134.829 203.616 133.324C204.593 132.036 205.732 130.896 206.775 129.669C208.767 127.324 210.712 124.94 212.696 122.591C213.778 121.307 214.913 120.066 216.004 118.786C217.363 117.189 218.691 115.566 220.046 113.965C221.128 112.68 222.241 111.422 223.319 110.133C224.348 108.902 225.338 107.63 226.367 106.399C227.85 104.63 229.35 102.875 230.85 101.124C231.642 100.201 232.495 99.3779 233.841 99.4263C234.039 98.1154 234.224 96.8046 234.435 95.4981C234.906 92.608 235.112 89.6783 235.772 86.8146C235.917 84.4963 236.401 82.2397 236.912 79.983C237.637 76.7674 238.372 73.5562 239.102 70.3406C239.56 68.1763 240.008 66.0077 240.475 63.8478C240.739 62.6293 240.998 61.4152 240.937 60.1571C239.916 59.6732 238.856 59.4005 237.734 59.2245C233.938 58.6262 230.168 57.8784 226.367 57.3066C224.722 57.0602 223.09 56.4796 221.383 56.8183Z" fill="#696E66"/>
<path d="M252.637 396.772C250.684 397.709 249.857 399.486 249.299 401.404C248.903 402.763 249.369 403.516 250.737 403.982C251.133 404.114 251.555 404.167 251.969 404.237C255.154 404.778 258.365 405.095 261.572 405.447C266.393 405.97 271.249 405.869 276.075 406.309C280.267 406.696 284.464 407.052 288.66 407.409C292.294 407.717 295.927 408.011 299.561 408.302C300.124 408.346 300.687 408.337 301.21 408.077C301.479 407.725 301.54 407.321 301.531 406.885C301.514 406.181 301.523 405.482 301.523 404.778C301.1 404.536 300.638 404.343 300.26 404.044C299.732 403.63 299.543 403.076 299.653 402.363C299.979 400.278 300.273 398.189 300.238 396.068C300.212 394.52 300.163 392.98 299.943 391.441C299.697 389.703 299.653 387.939 299.407 386.202C298.672 381.09 297.19 376.194 295.039 371.5C294.476 370.273 293.767 369.151 292.681 368.307C291.084 369.503 290.011 371.162 288.814 372.71C287.354 374.593 285.906 376.489 284.499 378.411C283.601 379.643 282.528 380.193 280.936 380.14C277.575 380.034 274.205 380.166 270.84 380.149C269.358 380.144 268.28 380.756 267.537 382.001C267.176 382.603 266.828 383.21 266.507 383.835C265.091 386.575 263.648 389.303 262.293 392.07C261.642 393.394 260.718 394.366 259.412 395.008C258.91 395.255 258.409 395.514 257.925 395.791C257.164 396.227 256.363 396.394 255.501 396.218C254.573 396.526 253.631 396.759 252.646 396.777L252.637 396.772Z" fill="#8A4102"/>
<path d="M221.383 56.8182C223.09 56.4795 224.722 57.0601 226.367 57.3065C230.168 57.8739 233.938 58.6261 237.734 59.2244C238.856 59.4003 239.92 59.6775 240.936 60.157C241.403 59.044 242.124 58.1203 242.916 57.2053C243.87 56.1012 244.904 55.0278 245.379 53.5718C246.215 51.016 245.81 48.5702 244.741 46.208C244.046 44.6727 243.263 43.1727 242.432 41.7123C240.281 37.9292 238.125 34.1461 235.636 30.5698C234.435 28.841 233.212 27.1254 231.914 25.467C230.872 24.1385 229.631 23.008 228.188 22.0842C227.269 21.4948 226.253 21.2264 225.232 21.0461C223.393 20.7206 221.603 22.1634 221.321 23.9846C221.009 26.0037 220.956 28.036 220.961 30.0683C220.965 35.3382 220.934 40.6081 221.009 45.878C221.058 49.5248 221.26 53.1671 221.392 56.8138L221.383 56.8182Z" fill="#FFB88D"/>
<path d="M255.492 396.213C256.359 396.389 257.155 396.222 257.916 395.787C258.404 395.51 258.901 395.25 259.403 395.004C260.709 394.361 261.638 393.389 262.284 392.065C263.643 389.298 265.082 386.571 266.498 383.83C266.819 383.21 267.167 382.599 267.528 381.996C268.271 380.751 269.349 380.14 270.831 380.144C274.197 380.157 277.566 380.03 280.927 380.135C282.519 380.184 283.588 379.634 284.49 378.406C285.893 376.48 287.345 374.588 288.805 372.705C290.002 371.161 291.08 369.503 292.672 368.302C292.566 366.208 292.602 364.11 292.329 362.016C292.153 360.648 292.153 359.223 292.465 357.833C292.588 357.296 292.566 356.72 292.575 356.161C292.641 352.356 293.336 348.657 294.383 345.014C294.616 344.205 294.902 343.413 294.77 342.551C294.198 342.727 293.895 343.219 293.517 343.62C291.739 345.498 289.887 347.302 287.78 348.806C286.364 349.818 284.851 350.693 283.381 351.63C283.118 353.614 282.339 355.365 281.217 357.032C276.009 364.77 270.853 372.547 265.663 380.302C263.714 383.214 261.69 386.078 259.742 388.99C258.184 391.313 256.486 393.561 255.483 396.213H255.492Z" fill="#FEB58A"/>
<path d="M246.699 356.393C245.199 354.417 244.187 352.143 242.89 350.045C241.069 351.422 239.643 353.146 238.513 355.117C236.731 358.227 234.963 361.341 233.216 364.469C230.414 369.501 227.59 374.525 224.858 379.597C222.461 384.053 220.121 388.54 217.855 393.062C216.166 396.44 215.335 400.056 215.471 403.857C215.581 406.989 216.377 409.976 217.71 412.787C219.311 416.17 221.344 419.284 224.062 421.906C224.467 422.297 224.858 422.706 225.417 422.882C225.989 422.069 226.064 421.888 225.641 421.457C223.803 419.596 222.831 417.265 222.153 414.824C221.344 411.911 221.049 408.973 221.608 405.916C222.061 403.426 222.58 400.976 223.42 398.6C223.908 397.215 224.551 395.886 225.1 394.518C226.042 392.169 227.326 389.996 228.501 387.766C229.482 385.909 230.59 384.119 231.664 382.311C233.34 379.478 235.029 376.654 236.718 373.826C239.019 369.976 241.31 366.123 243.629 362.283C244.39 361.025 245.204 359.797 246 358.561C246.426 357.897 246.708 357.189 246.704 356.388L246.699 356.393Z" fill="#EAA57B"/>
<path d="M239.102 70.3442C238.372 73.5599 237.641 76.7711 236.911 79.9867C236.401 82.2433 235.917 84.5 235.772 86.8182C235.882 86.9062 236.018 86.9766 236.097 87.0822C237.382 88.8373 238.605 90.6409 240.043 92.2773C240.215 92.4709 240.246 92.792 240.338 93.0515C241.961 94.4944 243.567 95.968 245.221 97.3801C248.049 99.7951 250.909 102.179 253.759 104.572C253.922 104.44 254.137 104.339 254.234 104.172C255.8 101.44 257.529 98.7921 258.484 95.7481C259.077 93.8565 259.421 91.943 259.262 89.9591C259.077 87.588 258.365 85.481 256.579 83.7566C254.454 81.7067 252.149 79.8855 249.849 78.0556C246.391 75.315 242.797 72.7505 239.102 70.3398V70.3442Z" fill="#FEB88D"/>
<path d="M242.52 234.878C244.121 234.728 244.412 234.477 244.526 233.096C244.557 232.749 244.539 232.392 244.539 232.045C244.539 228.605 244.478 225.16 244.561 221.72C244.592 220.405 244.205 219.442 243.228 218.588C241.596 217.159 240.228 215.448 238.438 214.172C237.536 213.53 236.815 212.623 236.023 211.827C232.913 208.686 229.438 205.933 226.429 202.682C224.185 201.081 222.492 198.881 220.407 197.122C217.882 194.988 215.634 192.578 213.21 190.347C212.234 189.45 211.134 188.685 210.223 187.708C209.282 186.696 209.277 186.19 210.074 185.161C212.511 182.007 214.935 178.84 217.35 175.668C219.892 172.329 222.426 168.986 224.942 165.63C226.706 163.276 228.439 160.905 230.164 158.53C230.656 157.852 231.153 157.157 231.123 156.247C231.07 155.93 230.986 155.64 230.63 155.53C229.438 155.319 228.606 155.899 227.933 156.788C224.128 161.803 220.332 166.822 216.523 171.832C213.685 175.563 210.835 179.284 207.993 183.01C207.61 183.511 207.311 184.092 206.862 184.519C206.176 185.179 206.084 185.957 206.093 186.828C206.097 187.506 206.295 188.055 206.792 188.513C208.543 190.123 210.074 191.962 211.996 193.413C213.219 194.337 214.209 195.56 215.33 196.625C218.432 199.572 221.524 202.528 224.665 205.427C226.988 207.565 229.139 209.887 231.536 211.928C233.999 214.027 236.234 216.345 238.57 218.571C239.124 219.099 239.771 219.53 240.374 220.009C241.249 220.713 241.627 221.575 241.592 222.75C241.513 225.556 241.592 228.367 241.566 231.178C241.557 232.309 241.614 233.417 242.001 234.486C242.173 234.618 242.344 234.746 242.516 234.878H242.52Z" fill="#494B45"/>
<path d="M233.841 99.4229C232.495 99.3745 231.637 100.197 230.85 101.121C229.35 102.876 227.85 104.627 226.367 106.395C225.334 107.627 224.348 108.898 223.319 110.13C222.241 111.419 221.128 112.677 220.046 113.961C218.691 115.563 217.363 117.186 216.004 118.783C214.917 120.063 213.778 121.303 212.696 122.588C210.712 124.937 208.767 127.321 206.775 129.666C205.732 130.893 204.593 132.028 203.616 133.321C202.477 134.825 201.232 136.246 200.022 137.698C199.217 138.666 198.381 139.607 197.581 140.579C195.667 142.897 193.666 145.141 191.875 147.565C191.585 147.956 191.26 148.339 190.714 148.401C190.345 149.122 189.971 149.843 189.601 150.565C189.416 150.926 189.205 151.286 189.381 151.717C190.094 151.779 190.71 151.687 191.33 151.189C192.764 150.05 194.088 148.858 195.183 147.358C196.085 146.122 197.264 145.101 198.227 143.887C199.618 142.136 201.236 140.566 202.71 138.877C203.95 137.456 205.112 135.965 206.33 134.526C207.417 133.246 208.525 131.979 209.638 130.721C210.984 129.199 212.379 127.721 213.698 126.177C214.697 125.011 215.572 123.736 216.58 122.574C217.543 121.461 218.551 120.401 219.47 119.244C220.64 117.766 221.99 116.429 223.218 114.991C224.401 113.609 225.51 112.171 226.68 110.776C227.582 109.703 228.598 108.744 229.438 107.605C230.476 106.202 231.734 104.966 232.887 103.646C233.819 102.577 234.668 101.464 234.391 99.9023L233.841 99.4141V99.4229Z" fill="#494B45"/>
<path d="M333.657 423.694C331.014 426.083 328.207 428.26 325.255 430.248C327.991 430.156 330.728 430.095 333.459 429.967C335.351 429.879 337.242 429.712 339.134 429.558C340.63 429.439 342.028 428.973 343.282 428.155C345.416 426.769 346.075 424.552 344.897 422.291C343.718 420.03 342.147 418.055 340.075 416.515C339.464 416.062 338.861 415.6 338.254 415.143C338.197 415.987 338.135 416.832 338.078 417.672C338.162 418.763 337.717 419.695 337.229 420.628C336.437 422.128 335.135 423.008 333.657 423.69V423.694Z" fill="#8C4405"/>
<path d="M334.123 404.988C332.645 405.023 331.502 405.921 330.252 406.524C329.311 406.981 328.409 407.531 327.529 408.098C326.359 408.846 326.311 409.444 326.487 410.826C326.628 411.921 327.547 412.836 328.524 412.972C328.787 413.008 329.078 412.942 329.337 412.862C330.82 412.405 332.197 411.741 333.494 410.883C334.365 410.307 335.28 409.788 336.178 409.246C336.213 407.478 335.351 406.145 334.119 404.993L334.123 404.988Z" fill="#EAA57B"/>
<path d="M330.679 399.539C328.801 399.394 327.288 400.142 326.008 401.457C325.471 402.007 324.921 402.548 324.389 403.102C324.143 403.358 323.962 403.652 323.931 404.017C323.764 405.944 324.248 406.534 326.149 406.257C328.062 405.975 329.672 404.976 331.031 403.604C331.52 403.116 331.951 402.57 332.413 402.056C332.153 401 331.682 400.089 330.688 399.539H330.679Z" fill="#EBA57A"/>
<path d="M337.102 410.891C334.876 411.12 333.011 412.264 331.128 413.315C330.218 413.821 329.971 415.053 330.424 415.893C331.053 417.054 332.083 417.498 333.209 417.041C334.309 416.597 335.395 416.121 336.473 415.62C337.053 415.352 337.63 415.127 338.276 415.136C338.254 414.441 338.237 413.742 338.21 413.047C338.18 412.154 337.836 411.419 337.102 410.887V410.891Z" fill="#EBA57A"/>
<path d="M301.523 404.778C301.523 405.482 301.514 406.186 301.532 406.885C301.545 407.321 301.479 407.725 301.211 408.077C302.389 408.433 303.573 408.389 304.752 408.117C307.378 407.501 309.78 406.428 311.821 404.62C309.019 403.832 306.19 403.955 303.362 404.413C302.746 404.514 302.134 404.655 301.523 404.778Z" fill="#8C4405"/>
<path d="M295.118 342.023C294.999 342.208 294.88 342.389 294.766 342.573C295.061 342.503 295.122 342.287 295.118 342.023Z" fill="#FEB58A"/>
<path d="M255.493 396.213C256.496 393.561 258.194 391.313 259.751 388.99C261.7 386.078 263.723 383.214 265.672 380.302C270.863 372.551 276.014 364.774 281.227 357.032C282.349 355.369 283.127 353.614 283.391 351.63C283.132 351.547 282.868 351.459 282.608 351.375C282.032 351.591 281.834 352.14 281.491 352.58C279.463 355.167 277.611 357.877 275.719 360.56C271.562 366.446 267.661 372.499 263.666 378.494C261.924 381.112 260.244 383.764 258.498 386.382C256.83 388.88 255.132 391.361 253.408 393.825C252.775 394.731 252.392 395.655 252.634 396.772C253.619 396.754 254.561 396.521 255.489 396.213H255.493Z" fill="#EBA57A"/>
<path d="M333.657 423.694C335.14 423.012 336.442 422.128 337.229 420.632C337.722 419.699 338.166 418.767 338.078 417.676C337.19 417.702 336.451 418.085 335.826 418.674C335.113 419.347 334.431 420.06 333.736 420.751C333.305 421.182 333.125 421.644 333.349 422.268C333.512 422.721 333.556 423.218 333.653 423.694H333.657Z" fill="#EBA57A"/>
<path d="M233.841 99.4232C234.026 99.586 234.206 99.7488 234.391 99.9115C236.375 97.6241 238.359 95.3366 240.343 93.0536C240.246 92.7941 240.22 92.4729 240.048 92.2794C238.61 90.643 237.387 88.8394 236.102 87.0843C236.023 86.9743 235.887 86.9039 235.777 86.8203C235.117 89.6796 234.906 92.6137 234.439 95.5038C234.228 96.8103 234.039 98.1212 233.846 99.432L233.841 99.4232Z" fill="#F9F8F7"/>
</svg>
