<svg width="500" height="500" viewBox="0 0 500 500" fill="none" xmlns="http://www.w3.org/2000/svg">
<path d="M183.928 402.539C184.139 402.262 184.35 401.989 184.566 401.716C185.745 400.212 187.315 400.146 188.93 400.687C190.315 401.153 191.661 401.747 192.937 402.49C194.868 403.616 196.821 404.712 198.801 405.754C200.094 406.436 201.453 406.999 202.782 407.615C204.819 409.423 207.22 410.496 209.851 411.112C211.03 411.389 212.218 411.429 213.392 411.073C213.916 411.337 214.483 411.345 215.042 411.297C218.675 411.007 222.313 410.712 225.942 410.404C230.139 410.048 234.335 409.691 238.528 409.304C243.353 408.86 248.205 408.966 253.031 408.442C256.242 408.095 259.453 407.773 262.634 407.232C263.047 407.162 263.469 407.114 263.865 406.977C265.233 406.515 265.7 405.759 265.304 404.399C264.745 402.477 263.918 400.704 261.965 399.763C262.211 398.65 261.829 397.722 261.191 396.816C259.466 394.352 257.768 391.871 256.101 389.373C254.355 386.76 252.674 384.103 250.933 381.485C246.943 375.49 243.036 369.437 238.879 363.551C236.988 360.868 235.136 358.158 233.108 355.571C232.765 355.136 232.567 354.582 231.991 354.366C232.044 353.733 231.59 353.337 231.269 352.892C229.4 350.345 227.689 347.697 226.131 344.944C224.574 342.185 223.21 339.348 222.507 336.234C221.908 333.586 221.838 330.977 222.797 328.382C223.958 325.223 225.823 322.747 228.986 321.308C230.935 320.42 232.972 320.054 235.057 319.724C236.904 319.43 238.655 319.491 240.428 320.09C243.956 321.286 246.842 323.222 248.452 326.728C248.654 327.172 248.891 327.607 249.129 328.034C251.465 332.195 253.814 336.344 256.141 340.509C258.402 344.552 260.601 348.63 262.906 352.646C264.094 354.714 265.453 356.68 266.725 358.695C267.006 359.139 267.323 359.478 267.904 359.381C267.904 360.181 268.181 360.89 268.607 361.554C269.404 362.79 270.217 364.017 270.978 365.275C273.292 369.116 275.589 372.969 277.889 376.818C279.578 379.647 281.268 382.471 282.944 385.304C284.012 387.112 285.125 388.902 286.106 390.758C287.281 392.989 288.565 395.162 289.507 397.511C290.057 398.874 290.694 400.207 291.187 401.593C292.027 403.968 292.546 406.423 292.999 408.908C293.558 411.966 293.259 414.904 292.454 417.816C291.777 420.258 290.8 422.589 288.966 424.45C288.543 424.877 288.614 425.061 289.19 425.875C287.919 427.995 285.812 428.989 283.661 429.86C282.301 430.41 280.841 430.644 279.376 430.877C276.583 431.321 273.776 431.171 270.978 431.299C258.767 431.871 246.542 431.325 234.34 431.778C228.586 431.99 222.828 431.866 217.087 432.188C213.933 432.363 210.766 432.284 207.634 432.61C205.478 432.834 203.305 432.9 201.15 433.19C198.722 433.516 196.289 433.784 193.865 434.158C193.109 434.273 192.321 434.255 191.551 434.233C190.698 434.207 189.897 433.987 189.356 433.234C186.4 431.246 183.594 429.069 180.954 426.68C181.051 426.205 181.095 425.708 181.258 425.255C181.482 424.63 181.302 424.168 180.871 423.737C180.176 423.042 179.498 422.334 178.781 421.661C178.157 421.071 177.418 420.684 176.529 420.662C176.472 419.818 176.41 418.973 176.353 418.133H176.331C176.978 418.124 177.554 418.348 178.135 418.617C179.212 419.114 180.299 419.593 181.399 420.038C182.525 420.495 183.554 420.046 184.183 418.89C184.641 418.049 184.39 416.818 183.479 416.312C181.597 415.26 179.731 414.117 177.506 413.888C177.686 413.268 177.923 412.683 178.425 412.243C179.322 412.788 180.237 413.303 181.108 413.879C182.402 414.737 183.783 415.401 185.265 415.859C185.525 415.938 185.82 416.004 186.079 415.969C187.06 415.828 187.975 414.917 188.116 413.822C188.296 412.441 188.243 411.842 187.073 411.095C186.189 410.532 185.292 409.977 184.35 409.52C183.101 408.913 181.957 408.02 180.479 407.985C180.946 406.942 181.201 405.776 182.204 405.051C182.661 405.57 183.097 406.111 183.585 406.599C184.944 407.967 186.554 408.97 188.468 409.251C190.368 409.529 190.852 408.939 190.685 407.012C190.654 406.643 190.474 406.348 190.227 406.097C189.691 405.548 189.145 405.007 188.608 404.452C187.328 403.137 185.815 402.389 183.937 402.534L183.928 402.539Z" fill="#FFB78A"/>
<path d="M325.23 154.721C325.622 155.385 325.983 156.067 326.409 156.71C331.437 164.263 336.281 171.925 340.328 180.064C342.276 183.979 343.935 187.999 344.885 192.279C345.127 193.375 345.312 194.492 345.421 195.605C345.685 198.213 344.973 200.668 343.732 202.89C342.958 204.28 341.656 205.34 340.424 206.4C331.543 214.041 321.324 219.504 310.837 224.51C303.596 227.968 296.158 230.942 288.517 233.396C284.435 234.707 280.309 235.882 276.125 236.836C274.964 237.1 273.776 237.272 272.602 237.487C272.989 236.414 273.046 235.305 273.037 234.179C273.015 231.368 273.094 228.557 273.011 225.751C272.976 224.572 273.354 223.714 274.229 223.01C274.827 222.531 275.479 222.1 276.033 221.572C278.364 219.346 280.599 217.028 283.067 214.929C285.464 212.888 287.615 210.566 289.938 208.428C293.079 205.533 296.171 202.573 299.272 199.626C300.394 198.561 301.384 197.338 302.607 196.414C304.529 194.963 306.055 193.124 307.811 191.514C308.308 191.056 308.506 190.507 308.51 189.829C308.519 188.958 308.426 188.18 307.74 187.52C307.292 187.089 306.992 186.508 306.61 186.011C303.768 182.285 300.918 178.563 298.08 174.833C294.271 169.823 290.474 164.804 286.669 159.789C285.992 158.9 285.165 158.32 283.973 158.531C284.25 158.113 284.413 157.752 284.048 157.229C280.48 152.17 277.352 146.825 274.093 141.573C270.49 135.775 267.376 129.709 265.321 123.155C264.142 119.402 262.937 115.654 261.811 111.889C261.389 110.481 261.164 109.016 260.848 107.574C263.694 105.176 266.557 102.796 269.386 100.381C271.04 98.9692 272.641 97.4956 274.269 96.0527C276.253 98.3402 278.237 100.628 280.221 102.911C279.948 104.472 280.792 105.585 281.725 106.654C282.873 107.974 284.136 109.21 285.174 110.613C286.018 111.753 287.03 112.711 287.932 113.785C289.102 115.175 290.211 116.618 291.394 117.999C292.621 119.437 293.972 120.775 295.142 122.253C296.057 123.41 297.068 124.474 298.032 125.583C299.039 126.744 299.915 128.02 300.913 129.185C302.233 130.729 303.627 132.208 304.973 133.73C306.086 134.988 307.195 136.25 308.281 137.535C309.5 138.973 310.661 140.464 311.902 141.885C313.375 143.574 314.99 145.145 316.384 146.896C317.348 148.11 318.526 149.135 319.428 150.366C320.524 151.862 321.852 153.058 323.282 154.198C323.906 154.695 324.518 154.787 325.23 154.726V154.721Z" fill="#696E66"/>
<path d="M229.308 239.162C227.94 237.103 227.091 234.789 226.088 232.55C225.709 231.71 225.445 230.844 225.472 229.907C225.481 229.629 225.463 229.339 225.406 229.066C224.368 224.206 225.454 219.574 226.972 215.007C228.78 209.575 231.454 204.56 234.626 199.814C235.761 198.116 237.221 196.673 238.682 195.256C240.749 193.255 242.878 191.31 245.025 189.392C248.28 186.489 251.861 184.004 255.292 181.32C263.756 174.7 272.232 168.097 280.7 161.481C281.642 160.747 282.561 159.99 283.489 159.242C283.458 160.148 283.956 160.843 284.448 161.525C286.177 163.901 287.91 166.276 289.67 168.625C292.186 171.981 294.72 175.325 297.262 178.663C299.677 181.835 302.101 185.002 304.538 188.156C305.33 189.181 305.33 189.692 304.389 190.703C303.478 191.68 302.378 192.445 301.402 193.343C298.978 195.569 296.73 197.984 294.205 200.117C292.12 201.877 290.426 204.076 288.183 205.677C285.178 208.924 281.699 211.677 278.589 214.823C277.797 215.623 277.076 216.525 276.174 217.167C274.383 218.443 273.015 220.154 271.383 221.584C270.407 222.437 270.02 223.401 270.051 224.716C270.134 228.156 270.072 231.6 270.072 235.04C270.072 235.392 270.059 235.744 270.086 236.091C270.2 237.477 270.49 237.728 272.092 237.873C271.788 238.348 271.031 238.058 270.79 238.643C268.722 239.074 266.624 239.131 264.521 239.171C259.898 239.263 255.279 239.25 250.656 239.435C244.145 239.69 237.622 239.567 231.102 239.611C230.46 239.615 229.844 239.562 229.308 239.158V239.162Z" fill="#686D65"/>
<path d="M267.909 359.395C267.328 359.491 267.011 359.157 266.73 358.708C265.458 356.689 264.099 354.723 262.911 352.66C260.606 348.644 258.407 344.566 256.146 340.523C253.819 336.357 251.47 332.209 249.134 328.048C248.892 327.621 248.659 327.186 248.457 326.741C246.851 323.235 243.965 321.3 240.433 320.103C238.66 319.501 236.909 319.443 235.062 319.738C232.977 320.068 230.944 320.433 228.991 321.322C225.829 322.76 223.963 325.237 222.802 328.395C221.847 330.991 221.918 333.599 222.512 336.247C223.216 339.362 224.579 342.199 226.136 344.957C227.694 347.707 229.405 350.355 231.274 352.906C231.6 353.346 232.053 353.746 231.996 354.38C231.736 354.468 231.472 354.551 231.213 354.635C229.744 353.698 228.23 352.823 226.814 351.811C224.707 350.306 222.855 348.498 221.078 346.624C220.699 346.224 220.396 345.731 219.824 345.556L219.842 345.577C219.723 345.393 219.604 345.212 219.49 345.028C218.79 343.422 218.02 341.843 217.4 340.206C216.072 336.709 215.284 333.107 215.126 329.341C214.902 324.036 215.557 318.841 216.648 313.672C218.883 303.106 221.073 292.535 223.339 281.978C223.796 279.857 224.109 277.693 224.922 275.657C225.024 275.397 225.16 275.155 225.283 274.904C226.04 275.045 226.801 275.177 227.557 275.331C232.568 276.369 237.574 277.416 242.584 278.459C248.483 279.69 254.382 280.931 260.281 282.154C264.535 283.038 268.793 283.905 273.047 284.78C273.055 291.031 272.959 297.286 273.108 303.533C273.223 308.235 273.284 312.942 273.561 317.631C273.808 321.841 273.676 326.059 273.984 330.256C274.274 334.189 274.283 338.117 274.221 342.045C274.177 345.072 273.636 348.045 272.55 350.896C272.277 351.613 271.991 352.33 271.714 353.047C270.416 355.145 269.409 357.419 267.904 359.395H267.909Z" fill="#8B8BDF"/>
<path d="M273.042 284.778C268.788 283.902 264.53 283.036 260.276 282.151C254.377 280.924 248.478 279.688 242.579 278.456C237.573 277.409 232.563 276.367 227.553 275.329C226.796 275.17 226.039 275.043 225.278 274.902C225.137 272.201 225.85 269.619 226.431 267.028C227.258 263.337 228.111 259.651 228.599 255.907C228.881 253.765 229.224 251.61 229.185 249.423C229.149 247.395 229.651 245.385 229.506 243.344C229.404 241.954 229.369 240.56 229.308 239.165C229.844 239.565 230.46 239.623 231.102 239.618C237.622 239.574 244.145 239.697 250.656 239.442C255.279 239.262 259.902 239.271 264.521 239.178C266.624 239.139 268.722 239.081 270.79 238.65C270.979 240.815 271.15 242.983 271.366 245.148C271.555 247.03 271.788 248.909 272.004 250.791C272.043 251.139 272.118 251.486 272.131 251.834C272.232 254.645 272.562 257.429 272.945 260.21C272.954 260.28 272.954 260.35 272.958 260.421C273.455 268 273.627 275.588 273.42 283.185C273.407 283.739 273.477 284.324 273.042 284.782V284.778Z" fill="#FFB88B"/>
<path d="M293.224 59.8183C294.482 62.1805 295.428 64.6747 296.268 67.2041C300.205 78.9888 304.076 90.7956 308.031 102.576C309.729 107.63 311.554 112.645 313.345 117.673C315.742 124.421 318.034 131.195 319.877 138.124C320.889 141.92 322.204 145.633 323.379 149.381C323.585 150.045 323.911 150.683 323.893 151.404C323.348 151.347 323.018 150.96 322.732 150.568C320.946 148.144 318.94 145.901 317.027 143.583C316.226 142.611 315.39 141.669 314.585 140.701C313.38 139.25 312.131 137.829 310.991 136.324C310.015 135.036 308.875 133.896 307.833 132.669C305.84 130.324 303.896 127.94 301.912 125.591C300.83 124.307 299.695 123.066 298.604 121.786C297.245 120.189 295.916 118.566 294.561 116.965C293.479 115.68 292.366 114.422 291.288 113.133C290.259 111.902 289.269 110.63 288.24 109.399C286.758 107.63 285.258 105.875 283.758 104.124C282.966 103.201 282.112 102.378 280.766 102.426C280.568 101.115 280.384 99.8046 280.172 98.4981C279.702 95.608 279.495 92.6783 278.835 89.8146C278.69 87.4963 278.206 85.2397 277.696 82.983C276.97 79.7674 276.235 76.5562 275.505 73.3406C275.048 71.1763 274.599 69.0077 274.133 66.8478C273.869 65.6293 273.609 64.4152 273.671 63.1571C274.691 62.6732 275.751 62.4005 276.873 62.2245C280.669 61.6262 284.439 60.8784 288.24 60.3066C289.885 60.0602 291.517 59.4796 293.224 59.8183Z" fill="#696E66"/>
<path d="M261.97 399.772C263.923 400.709 264.75 402.486 265.309 404.404C265.705 405.763 265.238 406.516 263.87 406.982C263.475 407.114 263.052 407.167 262.639 407.237C259.454 407.778 256.243 408.095 253.036 408.447C248.215 408.97 243.358 408.869 238.533 409.309C234.34 409.696 230.144 410.052 225.947 410.409C222.314 410.717 218.68 411.011 215.047 411.302C214.484 411.346 213.921 411.337 213.397 411.077C213.129 410.725 213.067 410.321 213.076 409.885C213.094 409.181 213.085 408.482 213.085 407.778C213.507 407.536 213.969 407.343 214.347 407.044C214.875 406.63 215.064 406.076 214.954 405.363C214.629 403.278 214.334 401.189 214.369 399.068C214.396 397.52 214.444 395.98 214.664 394.441C214.91 392.703 214.954 390.939 215.201 389.202C215.935 384.09 217.418 379.194 219.569 374.5C220.132 373.273 220.84 372.151 221.927 371.307C223.523 372.503 224.597 374.162 225.793 375.71C227.254 377.593 228.701 379.489 230.109 381.411C231.006 382.643 232.079 383.193 233.672 383.14C237.033 383.034 240.402 383.166 243.767 383.149C245.25 383.144 246.327 383.756 247.071 385.001C247.432 385.603 247.779 386.21 248.1 386.835C249.517 389.575 250.96 392.303 252.314 395.07C252.965 396.394 253.889 397.366 255.196 398.008C255.697 398.255 256.199 398.514 256.683 398.791C257.444 399.227 258.244 399.394 259.106 399.218C260.035 399.526 260.976 399.759 261.961 399.777L261.97 399.772Z" fill="#8A4102"/>
<path d="M293.224 59.8182C291.518 59.4795 289.886 60.0601 288.24 60.3065C284.44 60.8739 280.67 61.6261 276.874 62.2244C275.752 62.4003 274.687 62.6775 273.671 63.157C273.205 62.044 272.483 61.1203 271.692 60.2053C270.737 59.1012 269.703 58.0278 269.228 56.5718C268.392 54.016 268.797 51.5702 269.866 49.208C270.561 47.6727 271.344 46.1727 272.176 44.7123C274.327 40.9292 276.482 37.1461 278.972 33.5698C280.173 31.841 281.396 30.1254 282.693 28.467C283.736 27.1385 284.976 26.008 286.419 25.0842C287.339 24.4948 288.355 24.2264 289.375 24.0461C291.214 23.7206 293.004 25.1634 293.286 26.9846C293.598 29.0037 293.651 31.036 293.647 33.0683C293.642 38.3382 293.673 43.6081 293.598 48.878C293.55 52.5248 293.348 56.1671 293.216 59.8138L293.224 59.8182Z" fill="#FFB88D"/>
<path d="M259.115 399.213C258.249 399.389 257.452 399.222 256.691 398.787C256.203 398.51 255.706 398.25 255.205 398.004C253.898 397.361 252.97 396.389 252.323 395.065C250.964 392.298 249.526 389.571 248.109 386.83C247.788 386.21 247.44 385.599 247.08 384.996C246.336 383.751 245.259 383.14 243.776 383.144C240.411 383.157 237.041 383.03 233.681 383.135C232.088 383.184 231.019 382.634 230.117 381.406C228.714 379.48 227.263 377.588 225.802 375.705C224.606 374.161 223.528 372.503 221.935 371.302C222.041 369.208 222.006 367.11 222.279 365.016C222.454 363.648 222.454 362.223 222.142 360.833C222.019 360.296 222.041 359.72 222.032 359.161C221.966 355.356 221.271 351.657 220.224 348.014C219.991 347.205 219.705 346.413 219.837 345.551C220.409 345.727 220.712 346.219 221.091 346.62C222.868 348.498 224.72 350.302 226.827 351.806C228.243 352.818 229.757 353.693 231.226 354.63C231.49 356.614 232.268 358.365 233.39 360.032C238.599 367.77 243.754 375.547 248.945 383.302C250.894 386.214 252.917 389.078 254.866 391.99C256.423 394.313 258.121 396.561 259.124 399.213H259.115Z" fill="#FEB58A"/>
<path d="M267.908 359.393C269.408 357.417 270.42 355.143 271.718 353.045C273.539 354.422 274.964 356.146 276.095 358.117C277.876 361.227 279.645 364.341 281.391 367.469C284.193 372.501 287.017 377.525 289.749 382.597C292.146 387.053 294.487 391.54 296.752 396.062C298.441 399.44 299.273 403.056 299.136 406.857C299.026 409.989 298.23 412.976 296.897 415.787C295.296 419.17 293.264 422.284 290.545 424.906C290.14 425.297 289.749 425.706 289.19 425.882C288.618 425.069 288.544 424.888 288.966 424.457C290.805 422.596 291.777 420.265 292.454 417.824C293.264 414.911 293.558 411.973 293 408.916C292.547 406.426 292.028 403.976 291.187 401.6C290.699 400.215 290.057 398.886 289.507 397.518C288.566 395.169 287.281 392.996 286.107 390.766C285.126 388.909 284.017 387.119 282.944 385.311C281.268 382.478 279.579 379.654 277.889 376.826C275.589 372.976 273.297 369.123 270.979 365.283C270.218 364.025 269.404 362.797 268.608 361.561C268.181 360.897 267.899 360.189 267.904 359.388L267.908 359.393Z" fill="#EAA57B"/>
<path d="M275.506 73.3442C276.236 76.5599 276.966 79.7711 277.696 82.9867C278.206 85.2433 278.69 87.5 278.835 89.8182C278.726 89.9062 278.589 89.9766 278.51 90.0822C277.225 91.8373 276.003 93.6409 274.564 95.2773C274.393 95.4709 274.362 95.792 274.269 96.0515C272.646 97.4944 271.041 98.968 269.387 100.38C266.558 102.795 263.699 105.179 260.848 107.572C260.686 107.44 260.47 107.339 260.373 107.172C258.807 104.44 257.078 101.792 256.124 98.7481C255.53 96.8565 255.187 94.943 255.345 92.9591C255.53 90.588 256.243 88.481 258.029 86.7566C260.153 84.7067 262.458 82.8855 264.759 81.0556C268.216 78.315 271.81 75.7505 275.506 73.3398V73.3442Z" fill="#FEB88D"/>
<path d="M272.087 237.878C270.486 237.728 270.196 237.477 270.081 236.096C270.051 235.749 270.068 235.392 270.068 235.045C270.068 231.605 270.13 228.16 270.046 224.72C270.015 223.405 270.402 222.442 271.379 221.588C273.011 220.159 274.379 218.448 276.169 217.172C277.071 216.53 277.793 215.623 278.584 214.827C281.694 211.686 285.17 208.933 288.179 205.682C290.422 204.081 292.116 201.881 294.201 200.122C296.726 197.988 298.973 195.578 301.397 193.347C302.374 192.45 303.474 191.685 304.384 190.708C305.326 189.696 305.33 189.19 304.534 188.161C302.097 185.007 299.673 181.84 297.258 178.668C294.715 175.329 292.182 171.986 289.665 168.63C287.901 166.276 286.168 163.905 284.444 161.53C283.951 160.852 283.454 160.157 283.485 159.247C283.538 158.93 283.621 158.64 283.978 158.53C285.17 158.319 286.001 158.899 286.674 159.788C290.479 164.803 294.275 169.822 298.085 174.832C300.922 178.563 303.773 182.284 306.614 186.01C306.997 186.511 307.296 187.092 307.745 187.519C308.431 188.179 308.524 188.957 308.515 189.828C308.51 190.506 308.312 191.055 307.815 191.513C306.065 193.123 304.534 194.962 302.611 196.413C301.388 197.337 300.399 198.56 299.277 199.625C296.176 202.572 293.083 205.528 289.942 208.427C287.62 210.565 285.469 212.887 283.071 214.928C280.608 217.027 278.373 219.345 276.037 221.571C275.483 222.099 274.837 222.53 274.234 223.009C273.359 223.713 272.98 224.575 273.015 225.75C273.095 228.556 273.015 231.367 273.042 234.178C273.051 235.309 272.993 236.417 272.606 237.486C272.435 237.618 272.263 237.746 272.092 237.878H272.087Z" fill="#494B45"/>
<path d="M280.766 102.423C282.112 102.374 282.97 103.197 283.758 104.121C285.258 105.876 286.758 107.627 288.24 109.395C289.274 110.627 290.259 111.898 291.288 113.13C292.366 114.419 293.479 115.677 294.561 116.961C295.916 118.563 297.245 120.186 298.604 121.783C299.69 123.063 300.83 124.303 301.912 125.588C303.896 127.937 305.84 130.321 307.833 132.666C308.875 133.893 310.015 135.028 310.991 136.321C312.131 137.825 313.376 139.246 314.585 140.698C315.39 141.666 316.226 142.607 317.027 143.579C318.94 145.897 320.942 148.141 322.732 150.565C323.022 150.956 323.348 151.339 323.893 151.401C324.263 152.122 324.637 152.843 325.006 153.565C325.191 153.926 325.402 154.286 325.226 154.717C324.514 154.779 323.898 154.687 323.278 154.189C321.843 153.05 320.519 151.858 319.424 150.358C318.522 149.122 317.343 148.101 316.38 146.887C314.99 145.136 313.371 143.566 311.897 141.877C310.657 140.456 309.496 138.965 308.277 137.526C307.191 136.246 306.082 134.979 304.969 133.721C303.623 132.199 302.229 130.721 300.909 129.177C299.91 128.011 299.035 126.736 298.028 125.574C297.064 124.461 296.057 123.401 295.138 122.244C293.967 120.766 292.617 119.429 291.39 117.991C290.206 116.609 289.098 115.171 287.928 113.776C287.026 112.703 286.01 111.744 285.17 110.605C284.131 109.202 282.873 107.966 281.721 106.646C280.788 105.577 279.939 104.464 280.216 102.902L280.766 102.414V102.423Z" fill="#494B45"/>
<path d="M180.95 426.694C183.594 429.083 186.4 431.26 189.352 433.248C186.616 433.156 183.88 433.095 181.148 432.967C179.257 432.879 177.365 432.712 175.473 432.558C173.978 432.439 172.579 431.973 171.325 431.155C169.192 429.769 168.532 427.552 169.711 425.291C170.89 423.03 172.46 421.055 174.532 419.515C175.144 419.062 175.746 418.6 176.353 418.143C176.41 418.987 176.472 419.832 176.529 420.672C176.446 421.763 176.89 422.695 177.378 423.628C178.17 425.128 179.472 426.008 180.95 426.69V426.694Z" fill="#8C4405"/>
<path d="M180.484 407.988C181.962 408.023 183.106 408.921 184.355 409.524C185.296 409.981 186.198 410.531 187.078 411.098C188.248 411.846 188.297 412.444 188.121 413.826C187.98 414.921 187.06 415.836 186.084 415.972C185.82 416.008 185.53 415.942 185.27 415.862C183.788 415.405 182.411 414.741 181.113 413.883C180.242 413.307 179.327 412.788 178.43 412.246C178.395 410.478 179.257 409.145 180.488 407.993L180.484 407.988Z" fill="#EAA57B"/>
<path d="M183.928 402.539C185.806 402.394 187.32 403.142 188.6 404.457C189.136 405.007 189.686 405.548 190.218 406.102C190.465 406.358 190.645 406.652 190.676 407.017C190.843 408.944 190.359 409.534 188.459 409.257C186.545 408.975 184.935 407.976 183.576 406.604C183.088 406.116 182.657 405.57 182.195 405.056C182.454 404 182.925 403.089 183.919 402.539H183.928Z" fill="#EBA57A"/>
<path d="M177.506 413.891C179.731 414.12 181.597 415.264 183.479 416.315C184.39 416.821 184.636 418.053 184.183 418.893C183.554 420.054 182.525 420.498 181.399 420.041C180.299 419.597 179.212 419.121 178.135 418.62C177.554 418.352 176.978 418.127 176.331 418.136C176.353 417.441 176.371 416.742 176.397 416.047C176.428 415.154 176.771 414.419 177.506 413.887V413.891Z" fill="#EBA57A"/>
<path d="M213.085 407.778C213.085 408.482 213.093 409.186 213.076 409.885C213.063 410.321 213.129 410.725 213.397 411.077C212.218 411.433 211.035 411.389 209.856 411.117C207.23 410.501 204.828 409.428 202.787 407.62C205.589 406.832 208.417 406.955 211.246 407.413C211.862 407.514 212.473 407.655 213.085 407.778Z" fill="#8C4405"/>
<path d="M219.489 345.023C219.608 345.208 219.727 345.389 219.841 345.573C219.547 345.503 219.485 345.287 219.489 345.023Z" fill="#FEB58A"/>
<path d="M259.114 399.213C258.111 396.561 256.413 394.313 254.856 391.99C252.907 389.078 250.884 386.214 248.935 383.302C243.744 375.551 238.593 367.774 233.381 360.032C232.259 358.369 231.48 356.614 231.216 354.63C231.476 354.547 231.74 354.459 231.999 354.375C232.576 354.591 232.774 355.14 233.117 355.58C235.145 358.167 236.997 360.877 238.888 363.56C243.045 369.446 246.947 375.499 250.941 381.494C252.683 384.112 254.363 386.764 256.11 389.382C257.777 391.88 259.475 394.361 261.199 396.825C261.833 397.731 262.216 398.655 261.974 399.772C260.988 399.754 260.047 399.521 259.119 399.213H259.114Z" fill="#EBA57A"/>
<path d="M180.95 426.694C179.468 426.012 178.166 425.128 177.378 423.632C176.886 422.699 176.441 421.767 176.529 420.676C177.418 420.702 178.157 421.085 178.782 421.674C179.494 422.347 180.176 423.06 180.871 423.751C181.302 424.182 181.482 424.644 181.258 425.268C181.095 425.721 181.051 426.218 180.955 426.694H180.95Z" fill="#EBA57A"/>
<path d="M280.766 102.423C280.582 102.586 280.401 102.749 280.216 102.912C278.232 100.624 276.249 98.3366 274.265 96.0536C274.361 95.7941 274.388 95.4729 274.559 95.2794C275.998 93.643 277.221 91.8394 278.505 90.0843C278.584 89.9743 278.721 89.9039 278.831 89.8203C279.491 92.6796 279.702 95.6137 280.168 98.5038C280.379 99.8103 280.568 101.121 280.762 102.432L280.766 102.423Z" fill="#F9F8F7"/>
</svg>
