<svg width="500" height="500" viewBox="0 0 500 500" fill="none" xmlns="http://www.w3.org/2000/svg">
<path d="M350.94 85.649C351.325 86.7461 351.706 87.8433 352.09 88.9404C351.741 89.4837 351.935 89.9176 352.372 90.2986C352.464 90.7749 352.556 91.2511 352.648 91.7274C352.245 93.4524 352.242 95.0964 352.644 96.8673C352.545 97.3436 352.447 97.8163 352.351 98.2926C351.938 98.6806 351.744 99.111 352.073 99.6508C351.515 101.736 350.626 103.687 349.705 105.63C349.035 107.045 348.174 108.29 347.095 109.426C340.643 116.214 334.218 123.026 327.784 129.831C327.597 129.549 327.375 129.288 327.223 128.988C325.985 126.511 323.914 125.248 321.247 124.836C320.404 124.243 319.575 124.179 318.767 124.903C318.273 124.938 317.783 124.97 317.289 125.005C316.71 124.716 316.318 124.945 316.036 125.464C315.063 125.792 314.092 126.123 313.119 126.451C312.487 126.278 312.113 126.547 311.94 127.146C308.42 129.076 305.305 131.514 302.673 134.551C302.024 134.601 301.71 134.946 301.745 135.599C300.821 136.954 299.897 138.308 298.976 139.663C298.348 139.808 298.069 140.174 298.221 140.824C298.108 141.116 297.999 141.409 297.886 141.702C297.286 141.892 297.021 142.273 297.219 142.905C297.085 143.36 296.951 143.815 296.817 144.267C296.309 144.492 295.833 144.732 296.446 145.346C296.379 145.671 296.312 145.995 296.245 146.316C295.702 146.786 295.6 147.322 295.938 147.925C295.949 148.955 295.889 149.992 295.981 151.015C296.277 154.286 297.459 157.002 300.789 158.283C299.83 159.38 298.898 160.502 297.903 161.567C292.21 167.663 286.562 173.798 280.776 179.806C278.529 182.137 276.92 184.558 277.164 187.951C277.255 189.225 277.022 190.523 276.934 191.807C276.299 192.996 276.289 194.199 276.85 195.416C276.783 195.825 276.716 196.234 276.649 196.644L273.272 196.908C272.761 196.369 272.267 196.39 271.787 196.951C267.776 196.996 263.758 196.894 259.757 197.138C256.177 197.356 252.603 197.399 249.022 197.43C248.179 196.841 247.34 196.834 246.507 197.455C239.96 197.494 233.408 197.536 226.861 197.575C226.695 197.519 226.529 197.459 226.367 197.402C226.176 197.12 226.018 196.809 225.792 196.555C222.716 193.091 221.65 188.777 220.754 184.427C220.275 182.099 220.14 179.7 219.848 177.333C219.982 177.026 220.119 176.722 220.246 176.415C220.779 175.103 220.518 173.692 220.758 172.344C221.435 168.541 222.338 164.795 223.735 161.186C225.474 156.695 227.531 152.374 230.181 148.324C233.391 143.409 237.448 139.211 241.297 134.844C244.535 131.168 248.285 128 251.94 124.747C254.311 122.638 256.741 120.599 259.101 118.482C261.274 116.535 263.335 114.471 265.508 112.52C269.148 109.253 272.927 106.156 276.652 102.995C281.097 99.2239 285.443 95.3363 290.026 91.7274C293.19 89.2332 296.302 86.6756 299.498 84.2238C302.151 82.1882 304.878 80.255 307.591 78.2971C310.526 76.1769 313.616 74.3177 317.07 73.1818C319.183 72.4868 321.356 71.9894 323.505 71.4073C323.931 71.4003 324.358 71.3897 324.785 71.3826C325.23 71.6084 325.628 71.5625 325.974 71.1851C326.785 71.0933 327.597 70.9981 328.408 70.9064C329.001 71.1216 329.594 71.1145 330.176 70.8711C330.811 70.9699 331.449 71.0722 332.084 71.171C332.268 71.4073 332.49 71.499 332.772 71.3544C333.4 71.4743 334.024 71.5943 334.652 71.7178C334.818 71.9612 335.037 72.0564 335.326 71.9647C335.623 72.0388 335.919 72.1129 336.219 72.187C336.384 72.4304 336.6 72.5433 336.896 72.4374C339.083 73.0019 341.098 73.9332 342.904 75.302C343.041 75.8982 343.415 76.2016 344.026 76.2122C346.04 78.0219 347.878 79.9834 349.286 82.3152C349.455 83.6205 349.977 84.7494 350.954 85.649H350.94Z" fill="#686D65"/>
<path d="M221.704 432.757C219.669 432.778 217.633 432.803 215.598 432.813C212.123 432.828 208.676 433.455 205.194 433.24C204.661 432.651 204.146 432.665 203.649 433.283C199.91 433.463 196.188 433.808 192.459 434.165C188.726 434.521 185.026 435.015 181.346 435.72C180.665 435.851 179.992 435.784 179.339 435.509C178.633 435.209 177.921 434.927 177.208 434.634C177.067 434.521 176.926 434.408 176.788 434.292L176.813 434.337C176.728 433.748 176.347 433.441 175.808 433.286C172.41 430.99 169.299 428.33 166.198 425.656C166.406 425.511 166.681 425.412 166.815 425.218C167.729 423.881 167.704 423.458 166.65 422.332C166.068 421.712 165.507 421.045 164.829 420.544C163.827 419.803 162.931 418.798 161.534 418.78C161.206 417.767 161.478 416.776 161.619 415.778C161.944 415.884 162.275 415.965 162.589 416.095C164.004 416.695 165.418 417.295 166.819 417.926C167.891 418.41 169.017 418.586 170.015 417.958C171.514 417.016 171.454 414.688 170.05 413.619C167.888 411.968 165.355 411.227 162.801 410.514C162.991 409.742 163.288 409.026 163.905 408.486C165.634 410.031 167.796 410.895 169.726 412.119C170.495 412.606 171.451 412.839 172.35 413.068C173.007 413.234 173.695 413.199 174.305 412.751C176.058 411.46 176.256 409.241 174.725 407.685C174.368 407.322 174.026 406.888 173.585 406.669C171.225 405.508 169.003 404.041 166.445 403.3C166.974 401.695 167.697 400.206 168.943 399.017C169.108 399.758 169.13 400.517 169.719 401.137C170.784 402.259 171.899 403.318 173.264 404.048C174.566 404.743 175.981 405.032 177.469 404.856C178.009 404.792 178.528 404.591 178.683 404.058C178.997 402.975 179.141 401.875 178.27 400.929C176.52 399.031 174.665 397.299 172.054 396.643C171.744 396.565 171.469 396.336 171.179 396.181C172.742 394.149 173.966 393.666 176.245 394.332C177.226 394.618 178.203 394.996 179.11 395.472C182.376 397.186 185.633 398.929 188.853 400.728C190.437 401.614 192.085 402.305 193.817 402.817C193.923 403.042 193.965 403.363 194.142 403.483C197.758 405.939 201.564 407.833 206.129 407.343C206.362 407.35 206.595 407.357 206.824 407.368C207.635 407.368 208.443 407.368 209.255 407.371C209.699 407.487 210.123 407.431 210.532 407.223C211.139 407.255 211.742 407.286 212.349 407.318C212.948 407.505 213.52 407.526 214.014 407.05C217.404 406.736 220.794 406.422 224.184 406.108C224.442 406.313 224.653 406.221 224.851 406.013C228.086 405.777 231.321 405.537 234.556 405.3C235.808 405.385 237.075 405.649 238.246 404.937C238.585 404.919 238.92 404.902 239.258 404.887C239.618 405.325 239.957 405.286 240.282 404.845C243.382 404.697 246.48 404.545 249.581 404.397C250.117 404.926 250.625 404.873 251.115 404.33C253.662 404.097 256.206 403.864 258.753 403.632C259.021 403.766 259.243 403.692 259.437 403.483L262.387 403.191C262.662 403.293 262.881 403.208 263.06 402.99C263.829 402.912 264.602 402.863 265.368 402.746C266.299 402.605 267.248 402.482 268.147 402.21C270.067 401.628 270.603 400.612 269.982 398.675C269.29 396.509 268.303 394.519 266.105 393.447C266.225 391.926 265.851 390.582 264.849 389.386C264.14 388.536 263.53 387.598 262.916 386.67C258.527 380.02 254.005 373.458 249.729 366.731C247.115 362.614 244.293 358.621 241.544 354.588C237.925 349.283 234.161 344.086 230.485 338.823C230.181 338.389 229.882 337.994 229.388 337.782C229.367 337.337 229.187 336.96 228.908 336.614C227.218 334.551 225.86 332.257 224.41 330.031C222.579 327.22 221.013 324.267 219.602 321.23C218.176 318.164 217.485 314.901 217.153 311.556C217.086 310.886 217.167 310.181 217.302 309.517C217.538 308.343 217.767 307.15 218.176 306.028C219.411 302.621 221.429 299.862 224.696 298.052C228.266 296.08 232.09 295.279 236.087 295.445C241.178 295.657 245.34 297.819 248.254 302.074C249.366 303.697 250.297 305.446 251.253 307.171C255.243 314.379 259.19 321.611 263.191 328.811C265.107 332.261 267.082 335.679 269.082 339.08C269.908 340.484 270.871 341.804 271.778 343.162C272.13 343.687 272.571 344.065 273.266 343.959C273.238 344.756 273.474 345.483 273.877 346.16C274.49 347.191 275.118 348.21 275.739 349.233C278.653 354.07 281.574 358.899 284.471 363.746C286.4 366.978 288.256 370.255 290.196 373.48C293.022 378.172 295.915 382.821 298.314 387.764C300.226 391.701 301.891 395.726 303.027 399.945C303.778 402.743 304.328 405.593 304.286 408.532C304.261 410.165 304.067 411.753 303.785 413.361C303.133 417.062 301.64 420.382 299.407 423.352C298.779 424.188 298.557 424.989 298.582 425.948C297.171 428.178 294.945 429.279 292.599 430.139C289.932 431.117 287.134 431.536 284.301 431.709C272.391 432.429 260.464 432.133 248.544 432.207C247.161 431.529 245.785 431.487 244.42 432.249C243.227 432.26 242.038 432.249 240.846 432.281C236.006 432.418 231.169 432.577 226.329 432.718C225.479 432.743 224.629 432.725 223.779 432.729C223.08 432.069 222.392 432.066 221.718 432.761H221.704V432.757Z" fill="#FFB78A"/>
<path d="M273.255 343.964C272.56 344.069 272.116 343.696 271.767 343.166C270.86 341.812 269.897 340.489 269.071 339.085C267.071 335.684 265.096 332.266 263.18 328.815C259.179 321.615 255.232 314.383 251.242 307.176C250.286 305.451 249.355 303.701 248.243 302.078C245.329 297.824 241.167 295.658 236.076 295.45C232.079 295.284 228.251 296.085 224.685 298.057C221.415 299.863 219.4 302.625 218.165 306.033C217.76 307.155 217.527 308.347 217.291 309.522C217.156 310.185 217.075 310.891 217.142 311.561C217.474 314.902 218.165 318.165 219.591 321.234C221.002 324.272 222.568 327.224 224.399 330.036C225.849 332.266 227.207 334.555 228.897 336.619C229.176 336.961 229.356 337.338 229.377 337.787C229.056 337.963 228.735 338.136 228.414 338.312C223.947 335.575 219.767 332.481 216.222 328.583C215.534 327.824 214.782 327.126 214.059 326.399C213.749 325.697 213.466 324.977 213.124 324.289C210.344 318.669 208.891 312.753 208.697 306.467C208.503 300.156 209.339 293.989 210.644 287.847C213.689 273.517 216.687 259.177 219.725 244.847C220.025 243.429 220.409 242.018 221.118 240.727C221.711 240.818 222.311 240.878 222.9 241.005C228.929 242.289 234.951 243.612 240.987 244.875C250.794 246.928 260.605 248.95 270.419 250.975C273.439 251.596 276.466 252.178 279.489 252.777C279.482 253.264 279.471 253.755 279.464 254.242C278.783 255.081 278.819 255.938 279.404 256.806C279.404 259.738 279.404 262.669 279.408 265.601C278.762 267.495 278.706 269.383 279.464 271.26C279.503 273.634 279.556 276.008 279.574 278.379C279.595 281.173 280.127 283.945 279.937 286.75C279.32 287.449 279.323 288.129 279.979 288.8C280.138 292.931 280.297 297.062 280.456 301.196C279.838 302.064 279.813 302.921 280.508 303.765C280.547 309.328 281.101 314.874 281.016 320.444C280.942 325.362 280.374 330.166 278.455 334.746C278.258 335.218 278.127 335.719 277.968 336.206C277.196 336.703 277.023 337.589 276.66 338.33C275.689 340.312 274.578 342.2 273.252 343.96L273.255 343.964Z" fill="#8B8ADF"/>
<path d="M279.492 252.777C276.469 252.177 273.442 251.595 270.422 250.974C260.612 248.953 250.797 246.928 240.99 244.875C234.958 243.612 228.932 242.292 222.903 241.005C222.318 240.881 221.718 240.818 221.122 240.726C220.981 238.387 221.489 236.115 221.937 233.851C222.734 229.818 223.693 225.821 224.501 221.793C224.886 219.866 224.985 217.884 225.366 215.954C225.955 212.994 225.683 209.967 226.195 207.004C226.399 205.833 226.269 204.605 226.283 203.406C226.304 201.603 226.318 199.8 226.332 198.001C226.505 197.86 226.678 197.719 226.851 197.578C233.398 197.539 239.949 197.497 246.497 197.458C247.34 198.065 248.18 198.079 249.012 197.433C252.593 197.401 256.167 197.359 259.747 197.14C263.744 196.893 267.766 196.999 271.774 196.953C272.285 197.493 272.779 197.483 273.259 196.911L276.635 196.646C276.864 198.248 277.153 199.846 277.309 201.455C277.566 204.09 277.704 206.736 277.954 209.375C278.198 211.922 278.536 214.462 278.808 217.005C279.034 219.129 279.298 221.253 279.401 223.384C279.665 228.852 280.142 234.309 280.036 239.791C279.969 243.301 280.015 246.815 279.972 250.325C279.962 251.161 280.117 252.057 279.482 252.781H279.492V252.777Z" fill="#FFB88B"/>
<path d="M323.498 71.4065C321.35 71.9921 319.173 72.4896 317.063 73.181C313.61 74.3169 310.519 76.1761 307.584 78.2963C304.875 80.2542 302.144 82.191 299.492 84.223C296.295 86.6748 293.184 89.2324 290.019 91.7266C285.437 95.3355 281.091 99.2231 276.646 102.994C272.92 106.155 269.142 109.253 265.501 112.519C263.328 114.47 261.268 116.534 259.095 118.481C256.731 120.598 254.301 122.637 251.933 124.747C248.279 127.999 244.529 131.167 241.29 134.843C237.441 139.214 233.384 143.412 230.174 148.323C227.528 152.373 225.468 156.694 223.729 161.185C222.332 164.794 221.429 168.541 220.751 172.344C220.511 173.688 220.773 175.102 220.24 176.415C220.113 176.725 219.975 177.028 219.841 177.332C219.023 176.824 219.224 175.977 219.178 175.236C218.822 169.112 219.181 163.069 220.832 157.111C221.781 153.692 223.069 150.432 224.717 147.321C227.687 141.701 230.703 136.11 234.566 131.023C236.538 128.426 238.457 125.784 240.366 123.141C242.779 119.801 245.185 116.456 247.541 113.077C250.54 108.776 253.863 104.73 257.059 100.581C260.467 96.1645 263.854 91.7266 267.35 87.3803C271.548 82.1627 275.901 77.0792 280.547 72.2391C284.329 68.3021 288.88 65.6633 293.808 63.5431C294.595 63.2044 295.403 62.9081 296.204 62.5976C297.41 62.1284 298.631 61.7863 299.95 61.7545C301.061 61.7263 302.162 61.4688 303.273 61.4088C309.08 61.1019 314.312 62.7776 318.951 66.2172C320.81 67.5965 322.5 69.2158 323.491 71.3995L323.498 71.4065Z" fill="#484944"/>
<path d="M212.341 407.329C211.734 407.298 211.131 407.266 210.524 407.234C210.471 407.114 210.415 406.994 210.358 406.874C209.745 405.177 209.582 403.301 208.386 401.83C208.767 400.955 208.408 400.083 208.372 399.208C208.792 398.824 208.662 398.492 208.27 398.185C208.072 396.813 207.773 395.448 207.868 394.047C208.333 392.439 208.337 391.532 207.868 389.941C208.005 388.734 208.143 387.528 208.284 386.321C208.676 386.015 208.813 385.683 208.376 385.298C208.39 382.021 209.011 378.825 209.723 375.646C210.034 375.251 210.179 374.828 209.974 374.334C210.073 374.02 210.168 373.706 210.267 373.392C210.577 373.068 210.683 372.701 210.524 372.267C211.526 368.979 212.659 365.737 214.091 362.608C214.775 361.108 215.608 359.715 216.934 358.678C217.732 358.9 218.201 359.531 218.677 360.131C220.533 362.484 222.381 364.844 224.219 367.211C225.323 368.633 226.403 370.072 227.486 371.508C228.265 372.542 229.264 373.085 230.587 372.955C230.925 372.923 231.271 372.937 231.613 372.941C235.554 372.965 239.494 373.008 243.435 373.011C245.396 373.011 246.927 373.703 247.866 375.509C248.377 376.497 248.945 377.456 249.46 378.44C251.161 381.707 252.872 384.967 254.533 388.255C255.101 389.373 255.916 390.206 256.985 390.805C257.955 391.352 258.933 391.888 259.945 392.35C260.714 392.703 261.522 393.049 262.418 392.795C263.66 392.918 264.796 393.613 266.087 393.448C268.281 394.52 269.269 396.506 269.964 398.676C270.585 400.616 270.049 401.632 268.129 402.211C267.23 402.482 266.284 402.602 265.35 402.747C264.588 402.863 263.811 402.909 263.042 402.987C262.764 402.877 262.545 402.966 262.369 403.191C261.384 403.29 260.404 403.385 259.419 403.484C259.155 403.375 258.933 403.438 258.735 403.636C256.188 403.869 253.644 404.102 251.097 404.334C250.565 403.886 250.053 403.879 249.563 404.401C246.462 404.55 243.364 404.701 240.263 404.849C239.907 404.461 239.565 404.482 239.24 404.892C238.902 404.909 238.567 404.927 238.228 404.941C236.983 404.895 235.713 404.638 234.538 405.304C231.303 405.541 228.068 405.781 224.833 406.017C224.611 406.049 224.388 406.081 224.166 406.112C220.776 406.426 217.386 406.74 213.996 407.054C213.403 406.91 212.831 406.892 212.33 407.322L212.341 407.329Z" fill="#8A4101"/>
<path d="M262.421 392.795C261.525 393.049 260.717 392.7 259.948 392.351C258.936 391.889 257.959 391.349 256.989 390.806C255.923 390.206 255.105 389.373 254.537 388.255C252.875 384.971 251.164 381.707 249.464 378.441C248.949 377.453 248.381 376.497 247.869 375.509C246.934 373.703 245.403 373.015 243.438 373.011C239.498 373.008 235.557 372.966 231.617 372.941C231.275 372.941 230.929 372.923 230.59 372.955C229.267 373.086 228.269 372.542 227.489 371.509C226.406 370.073 225.327 368.633 224.223 367.212C222.385 364.845 220.536 362.485 218.68 360.131C218.204 359.528 217.738 358.9 216.938 358.678C217.04 355.161 217.675 351.675 217.523 348.148C217.234 341.537 216.641 334.971 214.5 328.646C214.257 327.923 213.876 327.214 214.055 326.402C214.779 327.129 215.53 327.828 216.218 328.586C219.763 332.484 223.944 335.578 228.41 338.316C228.646 340.372 229.183 342.284 230.442 344.013C232.446 346.772 234.33 349.615 236.228 352.448C241.032 359.616 245.855 366.771 250.593 373.985C253.03 377.696 255.387 381.446 258.1 384.978C259.917 387.341 261.497 389.906 262.418 392.795H262.421Z" fill="#FEB58A"/>
<path d="M273.255 343.963C274.582 342.203 275.693 340.315 276.663 338.333C277.027 337.592 277.199 336.706 277.972 336.209C280.992 338.611 282.992 341.804 284.83 345.117C290.076 354.564 295.346 363.997 300.525 373.48C303.238 378.447 305.81 383.495 308.378 388.54C310.311 392.34 311.299 396.411 311.387 400.669C311.472 404.669 310.608 408.522 308.999 412.162C306.974 416.752 304.254 420.901 300.56 424.351C299.94 424.933 299.379 425.603 298.564 425.945C298.543 424.986 298.761 424.185 299.389 423.349C301.622 420.378 303.115 417.062 303.767 413.358C304.049 411.749 304.243 410.162 304.268 408.529C304.311 405.59 303.764 402.739 303.009 399.942C301.873 395.723 300.211 391.698 298.296 387.761C295.893 382.818 293.004 378.172 290.178 373.477C288.234 370.252 286.382 366.975 284.453 363.743C281.56 358.896 278.635 354.067 275.721 349.23C275.104 348.203 274.473 347.184 273.859 346.157C273.456 345.484 273.22 344.753 273.248 343.956L273.255 343.963Z" fill="#EAA57B"/>
<path d="M300.786 158.285C297.456 157.008 296.274 154.288 295.978 151.018C295.886 149.995 295.946 148.957 295.935 147.927C296.535 147.486 296.496 146.922 296.242 146.319C296.309 145.994 296.376 145.669 296.443 145.348C296.884 145.098 296.983 144.728 296.814 144.269C296.948 143.814 297.082 143.359 297.216 142.907C297.738 142.674 298.041 142.315 297.883 141.704C297.996 141.411 298.105 141.119 298.218 140.826C298.761 140.628 299.061 140.272 298.973 139.665C299.897 138.311 300.821 136.956 301.742 135.601C302.338 135.506 302.659 135.167 302.67 134.553C305.305 131.516 308.42 129.078 311.937 127.149C312.548 127.286 312.904 126.99 313.116 126.454C314.089 126.126 315.06 125.794 316.033 125.466C316.619 125.769 316.982 125.473 317.286 125.007C317.779 124.972 318.27 124.937 318.764 124.905C319.603 125.409 320.432 125.445 321.244 124.838C323.911 125.247 325.985 126.51 327.22 128.99C327.368 129.29 327.594 129.555 327.781 129.833C327.858 130.429 327.855 131.047 328.028 131.615C328.807 134.197 328.088 136.55 326.832 138.744C322.609 146.125 316.739 151.892 309.383 156.129C306.748 157.646 303.894 158.535 300.786 158.292V158.285Z" fill="#FEB88B"/>
<path d="M166.201 425.659C169.302 428.334 172.414 430.99 175.811 433.29C175.783 433.576 175.751 433.862 175.723 434.144C173.204 434.257 170.685 434.183 168.173 434.003C167.626 433.692 167.055 433.703 166.473 433.893C164.596 433.745 162.719 433.593 160.842 433.445C160.504 433.163 160.133 433.163 159.745 433.315C158.257 433.216 156.888 432.712 155.611 431.981C152.577 430.246 151.684 427.346 153.356 424.298C154.856 421.564 156.761 419.122 159.375 417.341C160.091 416.854 160.733 416.311 161.287 415.658L161.414 415.813L161.615 415.778C161.474 416.776 161.202 417.771 161.53 418.78C161.456 420.47 162.165 421.902 163.072 423.246C163.841 424.382 164.748 425.384 166.198 425.656H166.201V425.659Z" fill="#8C4304"/>
<path d="M166.438 403.311C168.995 404.051 171.218 405.519 173.578 406.68C174.019 406.895 174.361 407.329 174.717 407.696C176.248 409.251 176.051 411.47 174.297 412.761C173.691 413.21 172.999 413.245 172.343 413.079C171.443 412.85 170.487 412.617 169.718 412.13C167.785 410.906 165.626 410.042 163.898 408.496C163.799 406.306 164.952 404.729 166.438 403.314V403.311Z" fill="#EAA57B"/>
<path d="M171.172 396.191C171.461 396.35 171.737 396.576 172.047 396.654C174.654 397.313 176.513 399.045 178.263 400.94C179.134 401.885 178.99 402.986 178.676 404.069C178.521 404.602 178.002 404.803 177.462 404.866C175.973 405.043 174.559 404.753 173.257 404.058C171.892 403.328 170.777 402.27 169.712 401.148C169.123 400.527 169.098 399.769 168.936 399.028C169.059 397.592 170.121 396.893 171.176 396.191H171.172Z" fill="#EAA57B"/>
<path d="M161.615 415.785L161.414 415.821L161.287 415.665C161.319 414.907 161.329 414.145 161.393 413.386C161.488 412.258 161.823 411.234 162.793 410.525C165.348 411.238 167.884 411.979 170.043 413.63C171.444 414.699 171.507 417.027 170.008 417.969C169.013 418.597 167.884 418.417 166.812 417.937C165.411 417.306 163.996 416.706 162.582 416.106C162.271 415.972 161.936 415.891 161.612 415.789H161.615V415.785Z" fill="#EBA479"/>
<path d="M206.122 407.35C201.553 407.841 197.75 405.946 194.134 403.491C193.958 403.371 193.915 403.05 193.81 402.824C194.311 402.715 194.808 402.609 195.309 402.5C195.559 402.708 195.767 402.627 195.958 402.405C197.997 402.26 200.036 402.172 202.079 402.408C202.424 402.786 202.83 402.86 203.289 402.634C203.913 402.747 204.538 402.86 205.166 402.969C205.416 403.382 205.85 403.371 206.249 403.438C206.241 404.613 206.238 405.784 206.231 406.959C206.199 407.089 206.164 407.216 206.125 407.343V407.35H206.122Z" fill="#8C4304"/>
<path d="M206.228 406.966C206.235 405.791 206.238 404.62 206.245 403.445C206.34 403.336 206.372 403.213 206.34 403.068C207.162 402.885 207.755 402.324 208.39 401.826C209.586 403.297 209.745 405.174 210.362 406.871C209.992 407.04 209.621 407.21 209.254 407.379C208.443 407.379 207.635 407.379 206.824 407.375C206.626 407.238 206.429 407.104 206.231 406.966H206.228Z" fill="#663409"/>
<path d="M279.468 271.262C278.709 269.382 278.766 267.494 279.411 265.604C280.17 267.484 280.128 269.371 279.468 271.262Z" fill="#8B8ADF"/>
<path d="M352.641 96.8705C352.239 95.0995 352.242 93.4556 352.644 91.7305C353.346 93.445 353.374 95.1595 352.641 96.8705Z" fill="#686D65"/>
<path d="M207.875 389.941C208.34 391.532 208.337 392.439 207.875 394.048C207.518 392.679 207.518 391.31 207.875 389.941Z" fill="#B3845B"/>
<path d="M244.405 432.25C245.774 431.488 247.15 431.531 248.529 432.208C247.16 432.956 245.785 432.917 244.405 432.25Z" fill="#FFD7BD"/>
<path d="M276.843 195.419C276.286 194.202 276.293 192.999 276.928 191.811C277.393 193.024 277.351 194.227 276.843 195.419Z" fill="#686D65"/>
<path d="M350.94 85.6482C349.963 84.7486 349.441 83.6197 349.271 82.3145C350.369 83.1541 350.88 84.29 350.94 85.6482Z" fill="#686D65"/>
<path d="M279.408 256.805C278.822 255.937 278.787 255.08 279.468 254.24C280.039 255.108 280.085 255.965 279.408 256.805Z" fill="#8B8ADF"/>
<path d="M280.512 303.767C279.817 302.924 279.842 302.067 280.459 301.199C281.112 302.042 281.097 302.9 280.512 303.767Z" fill="#8B8ADF"/>
<path d="M279.979 288.804C279.323 288.133 279.32 287.449 279.937 286.754C280.565 287.424 280.569 288.109 279.979 288.804Z" fill="#8B8ADF"/>
<path d="M221.704 432.757C222.381 432.066 223.069 432.066 223.764 432.725C223.087 433.41 222.399 433.406 221.704 432.757Z" fill="#FFD7BD"/>
<path d="M203.645 433.282C204.145 432.665 204.661 432.651 205.19 433.24C204.689 433.847 204.174 433.854 203.645 433.282Z" fill="#FFD7BD"/>
<path d="M210.531 372.266C210.69 372.696 210.584 373.066 210.274 373.391C209.97 372.925 210.136 372.569 210.531 372.266Z" fill="#EAA57B"/>
<path d="M209.981 374.33C210.185 374.824 210.041 375.247 209.73 375.642C209.497 375.145 209.596 374.711 209.981 374.33Z" fill="#EAA57B"/>
<path d="M208.274 398.182C208.662 398.489 208.796 398.82 208.376 399.205C208.087 398.891 208.048 398.549 208.274 398.182Z" fill="#B3845B"/>
<path d="M344.012 76.2109C343.402 76.2004 343.028 75.897 342.891 75.3008C343.501 75.3149 343.875 75.6147 344.012 76.2109Z" fill="#686D65"/>
<path d="M352.37 90.3016C351.936 89.9206 351.738 89.4866 352.087 88.9434C352.451 89.342 352.666 89.7689 352.37 90.3016Z" fill="#686D65"/>
<path d="M352.07 99.6492C351.742 99.1095 351.936 98.6791 352.349 98.291C352.645 98.8237 352.444 99.2541 352.07 99.6492Z" fill="#686D65"/>
<path d="M208.383 385.295C208.82 385.679 208.683 386.011 208.291 386.318C208.058 385.955 208.104 385.612 208.383 385.295Z" fill="#B3845B"/>
<path d="M330.166 70.8697C329.58 71.1131 328.991 71.1202 328.398 70.905C328.981 70.464 329.57 70.4605 330.166 70.8697Z" fill="#686D65"/>
<path d="M175.723 434.147C175.751 433.861 175.779 433.575 175.811 433.293C176.351 433.448 176.732 433.755 176.816 434.344C176.453 434.281 176.086 434.214 175.723 434.15V434.147Z" fill="#B3845B"/>
<path d="M166.469 433.896C167.051 433.709 167.619 433.699 168.169 434.005C167.576 434.344 167.012 434.323 166.469 433.896Z" fill="#A9ABA6"/>
<path d="M325.964 71.1835C325.619 71.5609 325.22 71.6068 324.775 71.381C325.132 71.067 325.53 71.0388 325.964 71.1835Z" fill="#686D65"/>
<path d="M203.285 402.638C202.827 402.864 202.421 402.79 202.075 402.412C202.52 402.268 202.936 402.282 203.285 402.638Z" fill="#B3845B"/>
<path d="M206.336 403.068C206.368 403.209 206.336 403.336 206.241 403.446C205.839 403.379 205.409 403.389 205.158 402.977C205.55 403.008 205.945 403.04 206.336 403.072V403.068Z" fill="#B3845B"/>
<path d="M159.742 433.314C160.13 433.162 160.504 433.162 160.839 433.445C160.437 433.702 160.081 433.575 159.742 433.314Z" fill="#B3845B"/>
<path d="M332.765 71.3532C332.479 71.4978 332.261 71.4061 332.077 71.1697C332.349 71.071 332.582 71.1274 332.765 71.3532Z" fill="#686D65"/>
<path d="M226.855 197.577C226.682 197.718 226.509 197.859 226.336 198C226.343 197.803 226.35 197.602 226.361 197.404C226.526 197.461 226.689 197.521 226.855 197.577Z" fill="#EAA57B"/>
<path d="M336.882 72.4371C336.586 72.5394 336.371 72.4301 336.205 72.1866C336.487 72.1161 336.713 72.1972 336.882 72.4371Z" fill="#686D65"/>
<path d="M195.955 402.405C195.768 402.627 195.56 402.708 195.306 402.5C195.493 402.278 195.711 402.253 195.955 402.405Z" fill="#EAA57B"/>
<path d="M335.316 71.9648C335.027 72.0565 334.808 71.9578 334.643 71.7179C334.928 71.6367 335.151 71.7179 335.316 71.9648Z" fill="#686D65"/>
<path d="M176.788 434.295C176.929 434.408 177.07 434.524 177.208 434.637C177.067 434.524 176.926 434.408 176.788 434.295Z" fill="#B3845B"/>
<path d="M321.244 124.835C320.432 125.438 319.603 125.406 318.764 124.902C319.572 124.179 320.401 124.242 321.244 124.835Z" fill="#EAA57B"/>
<path d="M296.242 146.318C296.496 146.922 296.535 147.486 295.935 147.927C295.597 147.324 295.699 146.788 296.242 146.318Z" fill="#B3845B"/>
<path d="M297.883 141.701C298.038 142.315 297.738 142.671 297.216 142.904C297.018 142.269 297.283 141.892 297.883 141.701Z" fill="#B3845B"/>
<path d="M296.814 144.27C296.983 144.732 296.881 145.099 296.443 145.349C295.833 144.735 296.306 144.495 296.814 144.27Z" fill="#B3845B"/>
<path d="M298.973 139.662C299.061 140.269 298.762 140.629 298.218 140.823C298.067 140.174 298.345 139.803 298.973 139.662Z" fill="#B3845B"/>
<path d="M317.286 125.004C316.982 125.469 316.619 125.766 316.033 125.466C316.315 124.944 316.707 124.718 317.286 125.004Z" fill="#B3845B"/>
<path d="M313.12 126.45C312.908 126.987 312.552 127.283 311.941 127.145C312.118 126.542 312.488 126.278 313.12 126.45Z" fill="#B3845B"/>
<path d="M302.67 134.555C302.659 135.169 302.338 135.507 301.742 135.602C301.707 134.95 302.021 134.604 302.67 134.555Z" fill="#B3845B"/>
<path d="M262.421 392.794C261.5 389.901 259.92 387.337 258.103 384.977C255.39 381.449 253.03 377.695 250.596 373.984C245.862 366.77 241.036 359.615 236.231 352.447C234.333 349.614 232.445 346.771 230.445 344.012C229.189 342.283 228.649 340.371 228.413 338.315C228.734 338.138 229.055 337.965 229.376 337.789C229.87 338.001 230.17 338.392 230.473 338.83C234.146 344.093 237.913 349.29 241.533 354.595C244.285 358.628 247.103 362.621 249.717 366.738C253.993 373.469 258.512 380.027 262.904 386.677C263.515 387.605 264.125 388.543 264.837 389.394C265.839 390.589 266.213 391.934 266.093 393.454C264.802 393.616 263.663 392.925 262.424 392.801V392.794H262.421Z" fill="#EBA479"/>
<path d="M166.201 425.659C164.747 425.391 163.841 424.389 163.075 423.249C162.169 421.905 161.46 420.473 161.534 418.783C162.934 418.801 163.827 419.806 164.829 420.547C165.506 421.048 166.067 421.715 166.649 422.336C167.704 423.461 167.728 423.884 166.815 425.221C166.681 425.415 166.409 425.514 166.197 425.659H166.201Z" fill="#EBA479"/>
<path d="M234.545 405.308C235.72 404.641 236.99 404.899 238.235 404.945C237.064 405.657 235.794 405.393 234.545 405.308Z" fill="#B3845B"/>
<path d="M249.569 404.402C250.06 403.879 250.571 403.887 251.104 404.335C250.614 404.878 250.106 404.931 249.569 404.402Z" fill="#B3845B"/>
<path d="M239.251 404.891C239.576 404.482 239.918 404.461 240.274 404.849C239.949 405.29 239.611 405.328 239.251 404.891Z" fill="#B3845B"/>
<path d="M212.341 407.329C212.842 406.899 213.413 406.916 214.006 407.061C213.512 407.537 212.941 407.52 212.341 407.329Z" fill="#B3845B"/>
<path d="M209.247 407.379C209.617 407.21 209.988 407.04 210.355 406.871C210.411 406.991 210.468 407.111 210.521 407.231C210.115 407.439 209.692 407.496 209.247 407.379Z" fill="#B3845B"/>
<path d="M258.742 403.637C258.94 403.439 259.162 403.375 259.427 403.485C259.233 403.696 259.01 403.767 258.742 403.637Z" fill="#B3845B"/>
<path d="M224.177 406.115C224.399 406.083 224.621 406.051 224.843 406.02C224.646 406.231 224.434 406.319 224.177 406.115Z" fill="#B3845B"/>
<path d="M206.227 406.966C206.425 407.104 206.622 407.238 206.82 407.376C206.587 407.369 206.354 407.362 206.125 407.351C206.164 407.224 206.199 407.093 206.227 406.963V406.966Z" fill="#B3845B"/>
<path d="M262.376 403.191C262.552 402.965 262.771 402.881 263.05 402.987C262.873 403.209 262.651 403.294 262.376 403.191Z" fill="#B3845B"/>
<path d="M323.498 71.406C323.498 71.406 338.717 66.9363 347.872 78.7685C357.026 90.6007 354.423 99.0885 349.276 106.574" fill="#686D65"/>
<path d="M276.819 196.266H226.301V198.552H276.819V196.266Z" fill="#686D65"/>
<path d="M279.493 252.777L280.008 252.848L281.253 321.118L279.916 329.672L269.756 254.273L279.493 252.777Z" fill="#8B8ADF"/>
</svg>
