<svg width="500" height="500" viewBox="0 0 500 500" fill="none" xmlns="http://www.w3.org/2000/svg">
<path d="M350.94 91.649C351.325 92.7461 351.706 93.8433 352.09 94.9404C351.741 95.4837 351.935 95.9176 352.372 96.2986C352.464 96.7749 352.556 97.2511 352.648 97.7274C352.245 99.4524 352.242 101.096 352.644 102.867C352.545 103.344 352.447 103.816 352.351 104.293C351.938 104.681 351.744 105.111 352.073 105.651C351.515 107.736 350.626 109.687 349.705 111.63C349.035 113.045 348.174 114.29 347.095 115.426C340.643 122.214 334.218 129.026 327.784 135.831C327.597 135.549 327.375 135.288 327.223 134.988C325.985 132.511 323.914 131.248 321.247 130.836C320.404 130.243 319.575 130.179 318.767 130.903C318.273 130.938 317.783 130.97 317.289 131.005C316.71 130.716 316.318 130.945 316.036 131.464C315.063 131.792 314.092 132.123 313.119 132.451C312.487 132.278 312.113 132.547 311.94 133.146C308.42 135.076 305.305 137.514 302.673 140.551C302.024 140.601 301.71 140.946 301.745 141.599C300.821 142.954 299.897 144.308 298.976 145.663C298.348 145.808 298.069 146.174 298.221 146.824C298.108 147.116 297.999 147.409 297.886 147.702C297.286 147.892 297.021 148.273 297.219 148.905C297.085 149.36 296.951 149.815 296.817 150.267C296.309 150.492 295.833 150.732 296.446 151.346C296.379 151.671 296.312 151.995 296.245 152.316C295.702 152.786 295.6 153.322 295.938 153.925C295.949 154.955 295.889 155.992 295.981 157.015C296.277 160.286 297.459 163.002 300.789 164.283C299.83 165.38 298.898 166.502 297.903 167.567C292.21 173.663 286.562 179.798 280.776 185.806C278.529 188.137 276.92 190.558 277.164 193.951C277.255 195.225 277.022 196.523 276.934 197.807C276.299 198.996 276.289 200.199 276.85 201.416C276.783 201.825 276.716 202.234 276.649 202.644L273.272 202.908C272.761 202.369 272.267 202.39 271.787 202.951C267.776 202.996 263.758 202.894 259.757 203.138C256.177 203.356 252.603 203.399 249.022 203.43C248.179 202.841 247.34 202.834 246.507 203.455C239.96 203.494 233.408 203.536 226.861 203.575C226.695 203.519 226.529 203.459 226.367 203.402C226.176 203.12 226.018 202.809 225.792 202.555C222.716 199.091 221.65 194.777 220.754 190.427C220.275 188.099 220.14 185.7 219.848 183.333C219.982 183.026 220.119 182.722 220.246 182.415C220.779 181.103 220.518 179.692 220.758 178.344C221.435 174.541 222.338 170.795 223.735 167.186C225.474 162.695 227.531 158.374 230.181 154.324C233.391 149.409 237.448 145.211 241.297 140.844C244.535 137.168 248.285 134 251.94 130.747C254.311 128.638 256.741 126.599 259.101 124.482C261.274 122.535 263.335 120.471 265.508 118.52C269.148 115.253 272.927 112.156 276.652 108.995C281.097 105.224 285.443 101.336 290.026 97.7274C293.19 95.2332 296.302 92.6756 299.498 90.2238C302.151 88.1882 304.878 86.255 307.591 84.2971C310.526 82.1769 313.616 80.3177 317.07 79.1818C319.183 78.4868 321.356 77.9894 323.505 77.4073C323.931 77.4003 324.358 77.3897 324.785 77.3826C325.23 77.6084 325.628 77.5625 325.974 77.1851C326.785 77.0933 327.597 76.9981 328.408 76.9064C329.001 77.1216 329.594 77.1145 330.176 76.8711C330.811 76.9699 331.449 77.0722 332.084 77.171C332.268 77.4073 332.49 77.499 332.772 77.3544C333.4 77.4743 334.024 77.5943 334.652 77.7178C334.818 77.9612 335.037 78.0564 335.326 77.9647C335.623 78.0388 335.919 78.1129 336.219 78.187C336.384 78.4304 336.6 78.5433 336.896 78.4374C339.083 79.0019 341.098 79.9332 342.904 81.302C343.041 81.8982 343.415 82.2016 344.026 82.2122C346.04 84.0219 347.878 85.9834 349.286 88.3152C349.455 89.6205 349.977 90.7494 350.954 91.649H350.94Z" fill="#686D65"/>
<path d="M221.704 438.757C219.669 438.778 217.633 438.803 215.598 438.813C212.123 438.828 208.676 439.455 205.194 439.24C204.661 438.651 204.146 438.665 203.649 439.283C199.91 439.463 196.188 439.808 192.459 440.165C188.726 440.521 185.026 441.015 181.346 441.72C180.665 441.851 179.992 441.784 179.339 441.509C178.633 441.209 177.921 440.927 177.208 440.634C177.067 440.521 176.926 440.408 176.788 440.292L176.813 440.337C176.728 439.748 176.347 439.441 175.808 439.286C172.41 436.99 169.299 434.33 166.198 431.656C166.406 431.511 166.681 431.412 166.815 431.218C167.729 429.881 167.704 429.458 166.65 428.332C166.068 427.712 165.507 427.045 164.829 426.544C163.827 425.803 162.931 424.798 161.534 424.78C161.206 423.767 161.478 422.776 161.619 421.778C161.944 421.884 162.275 421.965 162.589 422.095C164.004 422.695 165.418 423.295 166.819 423.926C167.891 424.41 169.017 424.586 170.015 423.958C171.514 423.016 171.454 420.688 170.05 419.619C167.888 417.968 165.355 417.227 162.801 416.514C162.991 415.742 163.288 415.026 163.905 414.486C165.634 416.031 167.796 416.895 169.726 418.119C170.495 418.606 171.451 418.839 172.35 419.068C173.007 419.234 173.695 419.199 174.305 418.751C176.058 417.46 176.256 415.241 174.725 413.685C174.368 413.322 174.026 412.888 173.585 412.669C171.225 411.508 169.003 410.041 166.445 409.3C166.974 407.695 167.697 406.206 168.943 405.017C169.108 405.758 169.13 406.517 169.719 407.137C170.784 408.259 171.899 409.318 173.264 410.048C174.566 410.743 175.981 411.032 177.469 410.856C178.009 410.792 178.528 410.591 178.683 410.058C178.997 408.975 179.141 407.875 178.27 406.929C176.52 405.031 174.665 403.299 172.054 402.643C171.744 402.565 171.469 402.336 171.179 402.181C172.742 400.149 173.966 399.666 176.245 400.332C177.226 400.618 178.203 400.996 179.11 401.472C182.376 403.186 185.633 404.929 188.853 406.728C190.437 407.614 192.085 408.305 193.817 408.817C193.923 409.042 193.965 409.363 194.142 409.483C197.758 411.939 201.564 413.833 206.129 413.343C206.362 413.35 206.595 413.357 206.824 413.368C207.635 413.368 208.443 413.368 209.255 413.371C209.699 413.487 210.123 413.431 210.532 413.223C211.139 413.255 211.742 413.286 212.349 413.318C212.948 413.505 213.52 413.526 214.014 413.05C217.404 412.736 220.794 412.422 224.184 412.108C224.442 412.313 224.653 412.221 224.851 412.013C228.086 411.777 231.321 411.537 234.556 411.3C235.808 411.385 237.075 411.649 238.246 410.937C238.585 410.919 238.92 410.902 239.258 410.887C239.618 411.325 239.957 411.286 240.282 410.845C243.382 410.697 246.48 410.545 249.581 410.397C250.117 410.926 250.625 410.873 251.115 410.33C253.662 410.097 256.206 409.864 258.753 409.632C259.021 409.766 259.243 409.692 259.437 409.483L262.387 409.191C262.662 409.293 262.881 409.208 263.06 408.99C263.829 408.912 264.602 408.863 265.368 408.746C266.299 408.605 267.248 408.482 268.147 408.21C270.067 407.628 270.603 406.612 269.982 404.675C269.29 402.509 268.303 400.519 266.105 399.447C266.225 397.926 265.851 396.582 264.849 395.386C264.14 394.536 263.53 393.598 262.916 392.67C258.527 386.02 254.005 379.458 249.729 372.731C247.115 368.614 244.293 364.621 241.544 360.588C237.925 355.283 234.161 350.086 230.485 344.823C230.181 344.389 229.882 343.994 229.388 343.782C229.367 343.337 229.187 342.96 228.908 342.614C227.218 340.551 225.86 338.257 224.41 336.031C222.579 333.22 221.013 330.267 219.602 327.23C218.176 324.164 217.485 320.901 217.153 317.556C217.086 316.886 217.167 316.181 217.302 315.517C217.538 314.343 217.767 313.15 218.176 312.028C219.411 308.621 221.429 305.862 224.696 304.052C228.266 302.08 232.09 301.279 236.087 301.445C241.178 301.657 245.34 303.819 248.254 308.074C249.366 309.697 250.297 311.446 251.253 313.171C255.243 320.379 259.19 327.611 263.191 334.811C265.107 338.261 267.082 341.679 269.082 345.08C269.908 346.484 270.871 347.804 271.778 349.162C272.13 349.687 272.571 350.065 273.266 349.959C273.238 350.756 273.474 351.483 273.877 352.16C274.49 353.191 275.118 354.21 275.739 355.233C278.653 360.07 281.574 364.899 284.471 369.746C286.4 372.978 288.256 376.255 290.196 379.48C293.022 384.172 295.915 388.821 298.314 393.764C300.226 397.701 301.891 401.726 303.027 405.945C303.778 408.743 304.328 411.593 304.286 414.532C304.261 416.165 304.067 417.753 303.785 419.361C303.133 423.062 301.64 426.382 299.407 429.352C298.779 430.188 298.557 430.989 298.582 431.948C297.171 434.178 294.945 435.279 292.599 436.139C289.932 437.117 287.134 437.536 284.301 437.709C272.391 438.429 260.464 438.133 248.544 438.207C247.161 437.529 245.785 437.487 244.42 438.249C243.227 438.26 242.038 438.249 240.846 438.281C236.006 438.418 231.169 438.577 226.329 438.718C225.479 438.743 224.629 438.725 223.779 438.729C223.08 438.069 222.392 438.066 221.718 438.761H221.704V438.757Z" fill="#FFB78A"/>
<path d="M273.255 349.964C272.56 350.069 272.116 349.696 271.767 349.166C270.86 347.812 269.897 346.489 269.071 345.085C267.071 341.684 265.096 338.266 263.18 334.815C259.179 327.615 255.232 320.383 251.242 313.176C250.286 311.451 249.355 309.701 248.243 308.078C245.329 303.824 241.167 301.658 236.076 301.45C232.079 301.284 228.251 302.085 224.685 304.057C221.415 305.863 219.4 308.625 218.165 312.033C217.76 313.155 217.527 314.347 217.291 315.522C217.156 316.185 217.075 316.891 217.142 317.561C217.474 320.902 218.165 324.165 219.591 327.234C221.002 330.272 222.568 333.224 224.399 336.036C225.849 338.266 227.207 340.555 228.897 342.619C229.176 342.961 229.356 343.338 229.377 343.787C229.056 343.963 228.735 344.136 228.414 344.312C223.947 341.575 219.767 338.481 216.222 334.583C215.534 333.824 214.782 333.126 214.059 332.399C213.749 331.697 213.466 330.977 213.124 330.289C210.344 324.669 208.891 318.753 208.697 312.467C208.503 306.156 209.339 299.989 210.644 293.847C213.689 279.517 216.687 265.177 219.725 250.847C220.025 249.429 220.409 248.018 221.118 246.727C221.711 246.818 222.311 246.878 222.9 247.005C228.929 248.289 234.951 249.612 240.987 250.875C250.794 252.928 260.605 254.95 270.419 256.975C273.439 257.596 276.466 258.178 279.489 258.777C279.482 259.264 279.471 259.755 279.464 260.242C278.783 261.081 278.819 261.938 279.404 262.806C279.404 265.738 279.404 268.669 279.408 271.601C278.762 273.495 278.706 275.383 279.464 277.26C279.503 279.634 279.556 282.008 279.574 284.379C279.595 287.173 280.127 289.945 279.937 292.75C279.32 293.449 279.323 294.129 279.979 294.8C280.138 298.931 280.297 303.062 280.456 307.196C279.838 308.064 279.813 308.921 280.508 309.765C280.547 315.328 281.101 320.874 281.016 326.444C280.942 331.362 280.374 336.166 278.455 340.746C278.258 341.218 278.127 341.719 277.968 342.206C277.196 342.703 277.023 343.589 276.66 344.33C275.689 346.312 274.578 348.2 273.252 349.96L273.255 349.964Z" fill="#8B8ADF"/>
<path d="M279.492 258.777C276.469 258.177 273.442 257.595 270.422 256.974C260.612 254.953 250.797 252.928 240.99 250.875C234.958 249.612 228.932 248.292 222.903 247.005C222.318 246.881 221.718 246.818 221.122 246.726C220.981 244.387 221.489 242.115 221.937 239.851C222.734 235.818 223.693 231.821 224.501 227.793C224.886 225.866 224.985 223.884 225.366 221.954C225.955 218.994 225.683 215.967 226.195 213.004C226.399 211.833 226.269 210.605 226.283 209.406C226.304 207.603 226.318 205.8 226.332 204.001C226.505 203.86 226.678 203.719 226.851 203.578C233.398 203.539 239.949 203.497 246.497 203.458C247.34 204.065 248.18 204.079 249.012 203.433C252.593 203.401 256.167 203.359 259.747 203.14C263.744 202.893 267.766 202.999 271.774 202.953C272.285 203.493 272.779 203.483 273.259 202.911L276.635 202.646C276.864 204.248 277.153 205.846 277.309 207.455C277.566 210.09 277.704 212.736 277.954 215.375C278.198 217.922 278.536 220.462 278.808 223.005C279.034 225.129 279.298 227.253 279.401 229.384C279.665 234.852 280.142 240.309 280.036 245.791C279.969 249.301 280.015 252.815 279.972 256.325C279.962 257.161 280.117 258.057 279.482 258.781H279.492V258.777Z" fill="#FFB88B"/>
<path d="M323.498 77.4065C321.35 77.9921 319.173 78.4896 317.063 79.181C313.61 80.3169 310.519 82.1761 307.584 84.2963C304.875 86.2542 302.144 88.191 299.492 90.223C296.295 92.6748 293.184 95.2324 290.019 97.7266C285.437 101.335 281.091 105.223 276.646 108.994C272.92 112.155 269.142 115.253 265.501 118.519C263.328 120.47 261.268 122.534 259.095 124.481C256.731 126.598 254.301 128.637 251.933 130.747C248.279 133.999 244.529 137.167 241.29 140.843C237.441 145.214 233.384 149.412 230.174 154.323C227.528 158.373 225.468 162.694 223.729 167.185C222.332 170.794 221.429 174.541 220.751 178.344C220.511 179.688 220.773 181.102 220.24 182.415C220.113 182.725 219.975 183.028 219.841 183.332C219.023 182.824 219.224 181.977 219.178 181.236C218.822 175.112 219.181 169.069 220.832 163.111C221.781 159.692 223.069 156.432 224.717 153.321C227.687 147.701 230.703 142.11 234.566 137.023C236.538 134.426 238.457 131.784 240.366 129.141C242.779 125.801 245.185 122.456 247.541 119.077C250.54 114.776 253.863 110.73 257.059 106.581C260.467 102.165 263.854 97.7266 267.35 93.3803C271.548 88.1627 275.901 83.0792 280.547 78.2391C284.329 74.3021 288.88 71.6633 293.808 69.5431C294.595 69.2044 295.403 68.9081 296.204 68.5976C297.41 68.1284 298.631 67.7863 299.95 67.7545C301.061 67.7263 302.162 67.4688 303.273 67.4088C309.08 67.1019 314.312 68.7776 318.951 72.2172C320.81 73.5965 322.5 75.2158 323.491 77.3995L323.498 77.4065Z" fill="#484944"/>
<path d="M212.341 413.329C211.734 413.298 211.131 413.266 210.524 413.234C210.471 413.114 210.415 412.994 210.358 412.874C209.745 411.177 209.582 409.301 208.386 407.83C208.767 406.955 208.408 406.083 208.372 405.208C208.792 404.824 208.662 404.492 208.27 404.185C208.072 402.813 207.773 401.448 207.868 400.047C208.333 398.439 208.337 397.532 207.868 395.941C208.005 394.734 208.143 393.528 208.284 392.321C208.676 392.015 208.813 391.683 208.376 391.298C208.39 388.021 209.011 384.825 209.723 381.646C210.034 381.251 210.179 380.828 209.974 380.334C210.073 380.02 210.168 379.706 210.267 379.392C210.577 379.068 210.683 378.701 210.524 378.267C211.526 374.979 212.659 371.737 214.091 368.608C214.775 367.108 215.608 365.715 216.934 364.678C217.732 364.9 218.201 365.531 218.677 366.131C220.533 368.484 222.381 370.844 224.219 373.211C225.323 374.633 226.403 376.072 227.486 377.508C228.265 378.542 229.264 379.085 230.587 378.955C230.925 378.923 231.271 378.937 231.613 378.941C235.554 378.965 239.494 379.008 243.435 379.011C245.396 379.011 246.927 379.703 247.866 381.509C248.377 382.497 248.945 383.456 249.46 384.44C251.161 387.707 252.872 390.967 254.533 394.255C255.101 395.373 255.916 396.206 256.985 396.805C257.955 397.352 258.933 397.888 259.945 398.35C260.714 398.703 261.522 399.049 262.418 398.795C263.66 398.918 264.796 399.613 266.087 399.448C268.281 400.52 269.269 402.506 269.964 404.676C270.585 406.616 270.049 407.632 268.129 408.211C267.23 408.482 266.284 408.602 265.35 408.747C264.588 408.863 263.811 408.909 263.042 408.987C262.764 408.877 262.545 408.966 262.369 409.191C261.384 409.29 260.404 409.385 259.419 409.484C259.155 409.375 258.933 409.438 258.735 409.636C256.188 409.869 253.644 410.102 251.097 410.334C250.565 409.886 250.053 409.879 249.563 410.401C246.462 410.55 243.364 410.701 240.263 410.849C239.907 410.461 239.565 410.482 239.24 410.892C238.902 410.909 238.567 410.927 238.228 410.941C236.983 410.895 235.713 410.638 234.538 411.304C231.303 411.541 228.068 411.781 224.833 412.017C224.611 412.049 224.388 412.081 224.166 412.112C220.776 412.426 217.386 412.74 213.996 413.054C213.403 412.91 212.831 412.892 212.33 413.322L212.341 413.329Z" fill="#8A4101"/>
<path d="M262.421 398.795C261.525 399.049 260.717 398.7 259.948 398.351C258.936 397.889 257.959 397.349 256.989 396.806C255.923 396.206 255.105 395.373 254.537 394.255C252.875 390.971 251.164 387.707 249.464 384.441C248.949 383.453 248.381 382.497 247.869 381.509C246.934 379.703 245.403 379.015 243.438 379.011C239.498 379.008 235.557 378.966 231.617 378.941C231.275 378.941 230.929 378.923 230.59 378.955C229.267 379.086 228.269 378.542 227.489 377.509C226.406 376.073 225.327 374.633 224.223 373.212C222.385 370.845 220.536 368.485 218.68 366.131C218.204 365.528 217.738 364.9 216.938 364.678C217.04 361.161 217.675 357.675 217.523 354.148C217.234 347.537 216.641 340.971 214.5 334.646C214.257 333.923 213.876 333.214 214.055 332.402C214.779 333.129 215.53 333.828 216.218 334.586C219.763 338.484 223.944 341.578 228.41 344.316C228.646 346.372 229.183 348.284 230.442 350.013C232.446 352.772 234.33 355.615 236.228 358.448C241.032 365.616 245.855 372.771 250.593 379.985C253.03 383.696 255.387 387.446 258.1 390.978C259.917 393.341 261.497 395.906 262.418 398.795H262.421Z" fill="#FEB58A"/>
<path d="M273.255 349.963C274.582 348.203 275.693 346.315 276.663 344.333C277.027 343.592 277.199 342.706 277.972 342.209C280.992 344.611 282.992 347.804 284.83 351.117C290.076 360.564 295.346 369.997 300.525 379.48C303.238 384.447 305.81 389.495 308.378 394.54C310.311 398.34 311.299 402.411 311.387 406.669C311.472 410.669 310.608 414.522 308.999 418.162C306.974 422.752 304.254 426.901 300.56 430.351C299.94 430.933 299.379 431.603 298.564 431.945C298.543 430.986 298.761 430.185 299.389 429.349C301.622 426.378 303.115 423.062 303.767 419.358C304.049 417.749 304.243 416.162 304.268 414.529C304.311 411.59 303.764 408.739 303.009 405.942C301.873 401.723 300.211 397.698 298.296 393.761C295.893 388.818 293.004 384.172 290.178 379.477C288.234 376.252 286.382 372.975 284.453 369.743C281.56 364.896 278.635 360.067 275.721 355.23C275.104 354.203 274.473 353.184 273.859 352.157C273.456 351.484 273.22 350.753 273.248 349.956L273.255 349.963Z" fill="#EAA57B"/>
<path d="M300.786 164.285C297.456 163.008 296.274 160.288 295.978 157.018C295.886 155.995 295.946 154.957 295.935 153.927C296.535 153.486 296.496 152.922 296.242 152.319C296.309 151.994 296.376 151.669 296.443 151.348C296.884 151.098 296.983 150.728 296.814 150.269C296.948 149.814 297.082 149.359 297.216 148.907C297.738 148.674 298.041 148.315 297.883 147.704C297.996 147.411 298.105 147.119 298.218 146.826C298.761 146.628 299.061 146.272 298.973 145.665C299.897 144.311 300.821 142.956 301.742 141.601C302.338 141.506 302.659 141.167 302.67 140.553C305.305 137.516 308.42 135.078 311.937 133.149C312.548 133.286 312.904 132.99 313.116 132.454C314.089 132.126 315.06 131.794 316.033 131.466C316.619 131.769 316.982 131.473 317.286 131.007C317.779 130.972 318.27 130.937 318.764 130.905C319.603 131.409 320.432 131.445 321.244 130.838C323.911 131.247 325.985 132.51 327.22 134.99C327.368 135.29 327.594 135.555 327.781 135.833C327.858 136.429 327.855 137.047 328.028 137.615C328.807 140.197 328.088 142.55 326.832 144.744C322.609 152.125 316.739 157.892 309.383 162.129C306.748 163.646 303.894 164.535 300.786 164.292V164.285Z" fill="#FEB88B"/>
<path d="M166.201 431.659C169.302 434.334 172.414 436.99 175.811 439.29C175.783 439.576 175.751 439.862 175.723 440.144C173.204 440.257 170.685 440.183 168.173 440.003C167.626 439.692 167.055 439.703 166.473 439.893C164.596 439.745 162.719 439.593 160.842 439.445C160.504 439.163 160.133 439.163 159.745 439.315C158.257 439.216 156.888 438.712 155.611 437.981C152.577 436.246 151.684 433.346 153.356 430.298C154.856 427.564 156.761 425.122 159.375 423.341C160.091 422.854 160.733 422.311 161.287 421.658L161.414 421.813L161.615 421.778C161.474 422.776 161.202 423.771 161.53 424.78C161.456 426.47 162.165 427.902 163.072 429.246C163.841 430.382 164.748 431.384 166.198 431.656H166.201V431.659Z" fill="#8C4304"/>
<path d="M166.438 409.311C168.995 410.051 171.218 411.519 173.578 412.68C174.019 412.895 174.361 413.329 174.717 413.696C176.248 415.251 176.051 417.47 174.297 418.761C173.691 419.21 172.999 419.245 172.343 419.079C171.443 418.85 170.487 418.617 169.718 418.13C167.785 416.906 165.626 416.042 163.898 414.496C163.799 412.306 164.952 410.729 166.438 409.314V409.311Z" fill="#EAA57B"/>
<path d="M171.172 402.191C171.461 402.35 171.737 402.576 172.047 402.654C174.654 403.313 176.513 405.045 178.263 406.94C179.134 407.885 178.99 408.986 178.676 410.069C178.521 410.602 178.002 410.803 177.462 410.866C175.973 411.043 174.559 410.753 173.257 410.058C171.892 409.328 170.777 408.27 169.712 407.148C169.123 406.527 169.098 405.769 168.936 405.028C169.059 403.592 170.121 402.893 171.176 402.191H171.172Z" fill="#EAA57B"/>
<path d="M161.615 421.785L161.414 421.821L161.287 421.665C161.319 420.907 161.329 420.145 161.393 419.386C161.488 418.258 161.823 417.234 162.793 416.525C165.348 417.238 167.884 417.979 170.043 419.63C171.444 420.699 171.507 423.027 170.008 423.969C169.013 424.597 167.884 424.417 166.812 423.937C165.411 423.306 163.996 422.706 162.582 422.106C162.271 421.972 161.936 421.891 161.612 421.789H161.615V421.785Z" fill="#EBA479"/>
<path d="M206.122 413.35C201.553 413.841 197.75 411.946 194.134 409.491C193.958 409.371 193.915 409.05 193.81 408.824C194.311 408.715 194.808 408.609 195.309 408.5C195.559 408.708 195.767 408.627 195.958 408.405C197.997 408.26 200.036 408.172 202.079 408.408C202.424 408.786 202.83 408.86 203.289 408.634C203.913 408.747 204.538 408.86 205.166 408.969C205.416 409.382 205.85 409.371 206.249 409.438C206.241 410.613 206.238 411.784 206.231 412.959C206.199 413.089 206.164 413.216 206.125 413.343V413.35H206.122Z" fill="#8C4304"/>
<path d="M206.228 412.966C206.235 411.791 206.238 410.62 206.245 409.445C206.34 409.336 206.372 409.213 206.34 409.068C207.162 408.885 207.755 408.324 208.39 407.826C209.586 409.297 209.745 411.174 210.362 412.871C209.992 413.04 209.621 413.21 209.254 413.379C208.443 413.379 207.635 413.379 206.824 413.375C206.626 413.238 206.429 413.104 206.231 412.966H206.228Z" fill="#663409"/>
<path d="M279.468 277.262C278.709 275.382 278.766 273.494 279.411 271.604C280.17 273.484 280.128 275.371 279.468 277.262Z" fill="#8B8ADF"/>
<path d="M352.641 102.87C352.239 101.1 352.242 99.4556 352.644 97.7305C353.346 99.445 353.374 101.159 352.641 102.87Z" fill="#686D65"/>
<path d="M207.875 395.941C208.34 397.532 208.337 398.439 207.875 400.048C207.518 398.679 207.518 397.31 207.875 395.941Z" fill="#B3845B"/>
<path d="M244.405 438.25C245.774 437.488 247.15 437.531 248.529 438.208C247.16 438.956 245.785 438.917 244.405 438.25Z" fill="#FFD7BD"/>
<path d="M276.843 201.419C276.286 200.202 276.293 198.999 276.928 197.811C277.393 199.024 277.351 200.227 276.843 201.419Z" fill="#686D65"/>
<path d="M350.94 91.6482C349.963 90.7486 349.441 89.6197 349.271 88.3145C350.369 89.1541 350.88 90.29 350.94 91.6482Z" fill="#686D65"/>
<path d="M279.408 262.805C278.822 261.937 278.787 261.08 279.468 260.24C280.039 261.108 280.085 261.965 279.408 262.805Z" fill="#8B8ADF"/>
<path d="M280.512 309.767C279.817 308.924 279.842 308.067 280.459 307.199C281.112 308.042 281.097 308.9 280.512 309.767Z" fill="#8B8ADF"/>
<path d="M279.979 294.804C279.323 294.133 279.32 293.449 279.937 292.754C280.565 293.424 280.569 294.109 279.979 294.804Z" fill="#8B8ADF"/>
<path d="M221.704 438.757C222.381 438.066 223.069 438.066 223.764 438.725C223.087 439.41 222.399 439.406 221.704 438.757Z" fill="#FFD7BD"/>
<path d="M203.645 439.282C204.145 438.665 204.661 438.651 205.19 439.24C204.689 439.847 204.174 439.854 203.645 439.282Z" fill="#FFD7BD"/>
<path d="M210.531 378.266C210.69 378.696 210.584 379.066 210.274 379.391C209.97 378.925 210.136 378.569 210.531 378.266Z" fill="#EAA57B"/>
<path d="M209.981 380.33C210.185 380.824 210.041 381.247 209.73 381.642C209.497 381.145 209.596 380.711 209.981 380.33Z" fill="#EAA57B"/>
<path d="M208.274 404.182C208.662 404.489 208.796 404.82 208.376 405.205C208.087 404.891 208.048 404.549 208.274 404.182Z" fill="#B3845B"/>
<path d="M344.012 82.2109C343.402 82.2004 343.028 81.897 342.891 81.3008C343.501 81.3149 343.875 81.6147 344.012 82.2109Z" fill="#686D65"/>
<path d="M352.37 96.3016C351.936 95.9206 351.738 95.4866 352.087 94.9434C352.451 95.342 352.666 95.7689 352.37 96.3016Z" fill="#686D65"/>
<path d="M352.07 105.649C351.742 105.109 351.936 104.679 352.349 104.291C352.645 104.824 352.444 105.254 352.07 105.649Z" fill="#686D65"/>
<path d="M208.383 391.295C208.82 391.679 208.683 392.011 208.291 392.318C208.058 391.955 208.104 391.612 208.383 391.295Z" fill="#B3845B"/>
<path d="M330.166 76.8697C329.58 77.1131 328.991 77.1202 328.398 76.905C328.981 76.464 329.57 76.4605 330.166 76.8697Z" fill="#686D65"/>
<path d="M175.723 440.147C175.751 439.861 175.779 439.575 175.811 439.293C176.351 439.448 176.732 439.755 176.816 440.344C176.453 440.281 176.086 440.214 175.723 440.15V440.147Z" fill="#B3845B"/>
<path d="M166.469 439.896C167.051 439.709 167.619 439.699 168.169 440.005C167.576 440.344 167.012 440.323 166.469 439.896Z" fill="#A9ABA6"/>
<path d="M325.964 77.1835C325.619 77.5609 325.22 77.6068 324.775 77.381C325.132 77.067 325.53 77.0388 325.964 77.1835Z" fill="#686D65"/>
<path d="M203.285 408.638C202.827 408.864 202.421 408.79 202.075 408.412C202.52 408.268 202.936 408.282 203.285 408.638Z" fill="#B3845B"/>
<path d="M206.336 409.068C206.368 409.209 206.336 409.336 206.241 409.446C205.839 409.379 205.409 409.389 205.158 408.977C205.55 409.008 205.945 409.04 206.336 409.072V409.068Z" fill="#B3845B"/>
<path d="M159.742 439.314C160.13 439.162 160.504 439.162 160.839 439.445C160.437 439.702 160.081 439.575 159.742 439.314Z" fill="#B3845B"/>
<path d="M332.765 77.3532C332.479 77.4978 332.261 77.4061 332.077 77.1697C332.349 77.071 332.582 77.1274 332.765 77.3532Z" fill="#686D65"/>
<path d="M226.855 203.577C226.682 203.718 226.509 203.859 226.336 204C226.343 203.803 226.35 203.602 226.361 203.404C226.526 203.461 226.689 203.521 226.855 203.577Z" fill="#EAA57B"/>
<path d="M336.882 78.4371C336.586 78.5394 336.371 78.4301 336.205 78.1866C336.487 78.1161 336.713 78.1972 336.882 78.4371Z" fill="#686D65"/>
<path d="M195.955 408.405C195.768 408.627 195.56 408.708 195.306 408.5C195.493 408.278 195.711 408.253 195.955 408.405Z" fill="#EAA57B"/>
<path d="M335.316 77.9648C335.027 78.0565 334.808 77.9578 334.643 77.7179C334.928 77.6367 335.151 77.7179 335.316 77.9648Z" fill="#686D65"/>
<path d="M176.788 440.295C176.929 440.408 177.07 440.524 177.208 440.637C177.067 440.524 176.926 440.408 176.788 440.295Z" fill="#B3845B"/>
<path d="M321.244 130.835C320.432 131.438 319.603 131.406 318.764 130.902C319.572 130.179 320.401 130.242 321.244 130.835Z" fill="#EAA57B"/>
<path d="M296.242 152.318C296.496 152.922 296.535 153.486 295.935 153.927C295.597 153.324 295.699 152.788 296.242 152.318Z" fill="#B3845B"/>
<path d="M297.883 147.701C298.038 148.315 297.738 148.671 297.216 148.904C297.018 148.269 297.283 147.892 297.883 147.701Z" fill="#B3845B"/>
<path d="M296.814 150.27C296.983 150.732 296.881 151.099 296.443 151.349C295.833 150.735 296.306 150.495 296.814 150.27Z" fill="#B3845B"/>
<path d="M298.973 145.662C299.061 146.269 298.762 146.629 298.218 146.823C298.067 146.174 298.345 145.803 298.973 145.662Z" fill="#B3845B"/>
<path d="M317.286 131.004C316.982 131.469 316.619 131.766 316.033 131.466C316.315 130.944 316.707 130.718 317.286 131.004Z" fill="#B3845B"/>
<path d="M313.12 132.45C312.908 132.987 312.552 133.283 311.941 133.145C312.118 132.542 312.488 132.278 313.12 132.45Z" fill="#B3845B"/>
<path d="M302.67 140.555C302.659 141.169 302.338 141.507 301.742 141.602C301.707 140.95 302.021 140.604 302.67 140.555Z" fill="#B3845B"/>
<path d="M262.421 398.794C261.5 395.901 259.92 393.337 258.103 390.977C255.39 387.449 253.03 383.695 250.596 379.984C245.862 372.77 241.036 365.615 236.231 358.447C234.333 355.614 232.445 352.771 230.445 350.012C229.189 348.283 228.649 346.371 228.413 344.315C228.734 344.138 229.055 343.965 229.376 343.789C229.87 344.001 230.17 344.392 230.473 344.83C234.146 350.093 237.913 355.29 241.533 360.595C244.285 364.628 247.103 368.621 249.717 372.738C253.993 379.469 258.512 386.027 262.904 392.677C263.515 393.605 264.125 394.543 264.837 395.394C265.839 396.589 266.213 397.934 266.093 399.454C264.802 399.616 263.663 398.925 262.424 398.801V398.794H262.421Z" fill="#EBA479"/>
<path d="M166.201 431.659C164.747 431.391 163.841 430.389 163.075 429.249C162.169 427.905 161.46 426.473 161.534 424.783C162.934 424.801 163.827 425.806 164.829 426.547C165.506 427.048 166.067 427.715 166.649 428.336C167.704 429.461 167.728 429.884 166.815 431.221C166.681 431.415 166.409 431.514 166.197 431.659H166.201Z" fill="#EBA479"/>
<path d="M234.545 411.308C235.72 410.641 236.99 410.899 238.235 410.945C237.064 411.657 235.794 411.393 234.545 411.308Z" fill="#B3845B"/>
<path d="M249.569 410.402C250.06 409.879 250.571 409.887 251.104 410.335C250.614 410.878 250.106 410.931 249.569 410.402Z" fill="#B3845B"/>
<path d="M239.251 410.891C239.576 410.482 239.918 410.461 240.274 410.849C239.949 411.29 239.611 411.328 239.251 410.891Z" fill="#B3845B"/>
<path d="M212.341 413.329C212.842 412.899 213.413 412.916 214.006 413.061C213.512 413.537 212.941 413.52 212.341 413.329Z" fill="#B3845B"/>
<path d="M209.247 413.379C209.617 413.21 209.988 413.04 210.355 412.871C210.411 412.991 210.468 413.111 210.521 413.231C210.115 413.439 209.692 413.496 209.247 413.379Z" fill="#B3845B"/>
<path d="M258.742 409.637C258.94 409.439 259.162 409.375 259.427 409.485C259.233 409.696 259.01 409.767 258.742 409.637Z" fill="#B3845B"/>
<path d="M224.177 412.115C224.399 412.083 224.621 412.051 224.843 412.02C224.646 412.231 224.434 412.319 224.177 412.115Z" fill="#B3845B"/>
<path d="M206.227 412.966C206.425 413.104 206.622 413.238 206.82 413.376C206.587 413.369 206.354 413.362 206.125 413.351C206.164 413.224 206.199 413.093 206.227 412.963V412.966Z" fill="#B3845B"/>
<path d="M262.376 409.191C262.552 408.965 262.771 408.881 263.05 408.987C262.873 409.209 262.651 409.294 262.376 409.191Z" fill="#B3845B"/>
<path d="M323.498 77.406C323.498 77.406 338.717 72.9363 347.872 84.7685C357.026 96.6007 354.423 105.089 349.276 112.574" fill="#686D65"/>
<path d="M276.819 202.266H226.301V204.552H276.819V202.266Z" fill="#686D65"/>
<path d="M279.493 258.777L280.008 258.848L281.253 327.118L279.916 335.672L269.756 260.273L279.493 258.777Z" fill="#8B8ADF"/>
</svg>
