<svg width="500" height="500" viewBox="0 0 500 500" fill="none" xmlns="http://www.w3.org/2000/svg">
<path d="M145.53 81.649C145.145 82.7461 144.764 83.8433 144.38 84.9404C144.729 85.4837 144.535 85.9176 144.097 86.2986C144.006 86.7749 143.914 87.2511 143.822 87.7274C144.224 89.4524 144.228 91.0964 143.826 92.8673C143.924 93.3436 144.023 93.8163 144.118 94.2926C144.531 94.6806 144.725 95.111 144.397 95.6508C144.955 97.7357 145.844 99.6866 146.764 101.63C147.435 103.045 148.295 104.29 149.375 105.426C155.827 112.214 162.251 119.026 168.686 125.831C168.873 125.549 169.095 125.288 169.247 124.988C170.485 122.511 172.556 121.248 175.223 120.836C176.066 120.243 176.895 120.179 177.703 120.903C178.197 120.938 178.687 120.97 179.181 121.005C179.76 120.716 180.151 120.945 180.433 121.464C181.407 121.792 182.377 122.123 183.351 122.451C183.982 122.278 184.356 122.547 184.529 123.146C188.05 125.076 191.165 127.514 193.797 130.551C194.446 130.601 194.76 130.946 194.725 131.599C195.649 132.954 196.573 134.308 197.494 135.663C198.122 135.808 198.401 136.174 198.249 136.824C198.362 137.116 198.471 137.409 198.584 137.702C199.184 137.892 199.448 138.273 199.251 138.905C199.385 139.36 199.519 139.815 199.653 140.267C200.161 140.492 200.637 140.732 200.023 141.346C200.09 141.671 200.157 141.995 200.224 142.316C200.768 142.786 200.87 143.322 200.531 143.925C200.521 144.955 200.581 145.992 200.489 147.015C200.193 150.286 199.011 153.002 195.681 154.283C196.64 155.38 197.571 156.502 198.566 157.567C204.26 163.663 209.908 169.798 215.694 175.806C217.941 178.137 219.55 180.558 219.306 183.951C219.214 185.225 219.447 186.523 219.535 187.807C220.17 188.996 220.181 190.199 219.62 191.416C219.687 191.825 219.754 192.234 219.821 192.644L223.197 192.908C223.709 192.369 224.203 192.39 224.682 192.951C228.694 192.996 232.712 192.894 236.712 193.138C240.293 193.356 243.867 193.399 247.447 193.43C248.29 192.841 249.13 192.834 249.963 193.455C256.51 193.494 263.061 193.536 269.609 193.575C269.775 193.519 269.94 193.459 270.103 193.402C270.293 193.12 270.452 192.809 270.678 192.555C273.754 189.091 274.819 184.777 275.715 180.427C276.195 178.099 276.329 175.7 276.622 173.333C276.488 173.026 276.35 172.722 276.223 172.415C275.691 171.103 275.952 169.692 275.712 168.344C275.035 164.541 274.131 160.795 272.734 157.186C270.995 152.695 268.939 148.374 266.289 144.324C263.079 139.409 259.022 135.211 255.173 130.844C251.935 127.168 248.185 124 244.53 120.747C242.159 118.638 239.728 116.599 237.368 114.482C235.195 112.535 233.135 110.471 230.962 108.52C227.321 105.253 223.543 102.156 219.818 98.9951C215.373 95.2239 211.026 91.3363 206.444 87.7274C203.279 85.2332 200.168 82.6756 196.972 80.2238C194.319 78.1882 191.592 76.255 188.879 74.2971C185.944 72.1769 182.854 70.3177 179.4 69.1818C177.287 68.4868 175.114 67.9894 172.965 67.4073C172.538 67.4003 172.111 67.3897 171.685 67.3826C171.24 67.6084 170.841 67.5625 170.496 67.1851C169.684 67.0933 168.873 66.9981 168.062 66.9064C167.469 67.1216 166.876 67.1145 166.294 66.8711C165.659 66.9699 165.021 67.0722 164.386 67.171C164.202 67.4073 163.98 67.499 163.698 67.3544C163.07 67.4743 162.445 67.5943 161.817 67.7178C161.652 67.9612 161.433 68.0564 161.144 67.9647C160.847 68.0388 160.551 68.1129 160.251 68.187C160.085 68.4304 159.87 68.5433 159.574 68.4374C157.386 69.0019 155.372 69.9332 153.566 71.302C153.428 71.8982 153.054 72.2016 152.444 72.2122C150.43 74.0219 148.592 75.9834 147.184 78.3152C147.015 79.6205 146.493 80.7494 145.515 81.649H145.53Z" fill="#686D65"/>
<path d="M274.766 428.757C276.801 428.778 278.837 428.803 280.872 428.813C284.347 428.828 287.794 429.455 291.276 429.24C291.808 428.651 292.323 428.665 292.821 429.283C296.56 429.463 300.282 429.808 304.011 430.165C307.743 430.521 311.444 431.015 315.123 431.72C315.804 431.851 316.478 431.784 317.131 431.509C317.836 431.209 318.549 430.927 319.261 430.634C319.403 430.521 319.544 430.408 319.681 430.292L319.657 430.337C319.741 429.748 320.122 429.441 320.662 429.286C324.059 426.99 327.171 424.33 330.272 421.656C330.064 421.511 329.788 421.412 329.654 421.218C328.741 419.881 328.765 419.458 329.82 418.332C330.402 417.712 330.963 417.045 331.64 416.544C332.642 415.803 333.538 414.798 334.935 414.78C335.263 413.767 334.992 412.776 334.851 411.778C334.526 411.884 334.195 411.965 333.881 412.095C332.466 412.695 331.051 413.295 329.651 413.926C328.578 414.41 327.453 414.586 326.455 413.958C324.955 413.016 325.015 410.688 326.419 409.619C328.582 407.968 331.115 407.227 333.669 406.514C333.478 405.742 333.182 405.026 332.565 404.486C330.836 406.031 328.674 406.895 326.744 408.119C325.975 408.606 325.019 408.839 324.119 409.068C323.463 409.234 322.775 409.199 322.165 408.751C320.412 407.46 320.214 405.241 321.745 403.685C322.101 403.322 322.444 402.888 322.885 402.669C325.245 401.508 327.467 400.041 330.025 399.3C329.496 397.695 328.772 396.206 327.527 395.017C327.361 395.758 327.34 396.517 326.751 397.137C325.686 398.259 324.571 399.318 323.206 400.048C321.904 400.743 320.489 401.032 319 400.856C318.461 400.792 317.942 400.591 317.787 400.058C317.473 398.975 317.328 397.875 318.2 396.929C319.949 395.031 321.805 393.299 324.416 392.643C324.726 392.565 325.001 392.336 325.29 392.181C323.728 390.149 322.504 389.666 320.225 390.332C319.244 390.618 318.267 390.996 317.36 391.472C314.093 393.186 310.837 394.929 307.616 396.728C306.032 397.614 304.385 398.305 302.653 398.817C302.547 399.042 302.504 399.363 302.328 399.483C298.712 401.939 294.906 403.833 290.341 403.343C290.108 403.35 289.875 403.357 289.646 403.368C288.834 403.368 288.026 403.368 287.215 403.371C286.771 403.487 286.347 403.431 285.938 403.223C285.331 403.255 284.728 403.286 284.121 403.318C283.521 403.505 282.95 403.526 282.456 403.05C279.066 402.736 275.676 402.422 272.285 402.108C272.028 402.313 271.816 402.221 271.619 402.013C268.384 401.777 265.149 401.537 261.914 401.3C260.661 401.385 259.395 401.649 258.224 400.937C257.885 400.919 257.55 400.902 257.211 400.887C256.851 401.325 256.513 401.286 256.188 400.845C253.087 400.697 249.99 400.545 246.889 400.397C246.353 400.926 245.845 400.873 245.354 400.33C242.807 400.097 240.264 399.864 237.717 399.632C237.449 399.766 237.226 399.692 237.032 399.483L234.083 399.191C233.808 399.293 233.589 399.208 233.409 398.99C232.64 398.912 231.868 398.863 231.102 398.746C230.171 398.605 229.222 398.482 228.322 398.21C226.403 397.628 225.867 396.612 226.488 394.675C227.179 392.509 228.167 390.519 230.365 389.447C230.245 387.926 230.619 386.582 231.621 385.386C232.33 384.536 232.94 383.598 233.554 382.67C237.942 376.02 242.465 369.458 246.741 362.731C249.355 358.614 252.177 354.621 254.925 350.588C258.545 345.283 262.309 340.086 265.985 334.823C266.288 334.389 266.588 333.994 267.082 333.782C267.103 333.337 267.283 332.96 267.562 332.614C269.252 330.551 270.61 328.257 272.06 326.031C273.891 323.22 275.457 320.267 276.868 317.23C278.293 314.164 278.985 310.901 279.316 307.556C279.383 306.886 279.302 306.181 279.168 305.517C278.932 304.343 278.703 303.15 278.293 302.028C277.059 298.621 275.041 295.862 271.774 294.052C268.204 292.08 264.38 291.279 260.383 291.445C255.292 291.657 251.129 293.819 248.215 298.074C247.104 299.697 246.173 301.446 245.217 303.171C241.227 310.379 237.279 317.611 233.279 324.811C231.363 328.261 229.388 331.679 227.387 335.08C226.562 336.484 225.599 337.804 224.692 339.162C224.339 339.687 223.898 340.065 223.203 339.959C223.232 340.756 222.995 341.483 222.593 342.16C221.979 343.191 221.351 344.21 220.73 345.233C217.816 350.07 214.895 354.899 211.999 359.746C210.069 362.978 208.214 366.255 206.274 369.48C203.448 374.172 200.555 378.821 198.156 383.764C196.244 387.701 194.579 391.726 193.443 395.945C192.692 398.743 192.141 401.593 192.184 404.532C192.208 406.165 192.402 407.753 192.685 409.361C193.337 413.062 194.829 416.382 197.063 419.352C197.69 420.188 197.913 420.989 197.888 421.948C199.299 424.178 201.525 425.279 203.871 426.139C206.538 427.117 209.336 427.536 212.168 427.709C224.078 428.429 236.006 428.133 247.926 428.207C249.309 427.529 250.685 427.487 252.05 428.249C253.242 428.26 254.431 428.249 255.624 428.281C260.464 428.418 265.3 428.577 270.141 428.718C270.991 428.743 271.841 428.725 272.691 428.729C273.39 428.069 274.078 428.066 274.751 428.761H274.766V428.757Z" fill="#FFB78A"/>
<path d="M223.214 339.964C223.909 340.069 224.354 339.696 224.703 339.166C225.61 337.812 226.573 336.489 227.398 335.085C229.399 331.684 231.374 328.266 233.29 324.815C237.29 317.615 241.238 310.383 245.228 303.176C246.184 301.451 247.115 299.701 248.226 298.078C251.14 293.824 255.303 291.658 260.394 291.45C264.391 291.284 268.218 292.085 271.785 294.057C275.055 295.863 277.07 298.625 278.304 302.033C278.71 303.155 278.943 304.347 279.179 305.522C279.313 306.185 279.394 306.891 279.327 307.561C278.996 310.902 278.304 314.165 276.879 317.234C275.468 320.272 273.902 323.224 272.071 326.036C270.621 328.266 269.263 330.555 267.573 332.619C267.294 332.961 267.114 333.338 267.093 333.787C267.414 333.963 267.735 334.136 268.056 334.312C272.522 331.575 276.703 328.481 280.248 324.583C280.936 323.824 281.687 323.126 282.411 322.399C282.721 321.697 283.003 320.977 283.346 320.289C286.125 314.669 287.579 308.753 287.773 302.467C287.967 296.156 287.131 289.989 285.826 283.847C282.781 269.517 279.782 255.177 276.745 240.847C276.445 239.429 276.061 238.018 275.352 236.727C274.759 236.818 274.159 236.878 273.57 237.005C267.541 238.289 261.519 239.612 255.483 240.875C245.676 242.928 235.865 244.95 226.051 246.975C223.031 247.596 220.004 248.178 216.981 248.777C216.988 249.264 216.998 249.755 217.006 250.242C217.686 251.081 217.651 251.938 217.065 252.806C217.065 255.738 217.065 258.669 217.062 261.601C217.708 263.495 217.764 265.383 217.006 267.26C216.967 269.634 216.914 272.008 216.896 274.379C216.875 277.173 216.342 279.945 216.533 282.75C217.15 283.449 217.147 284.129 216.49 284.8C216.332 288.931 216.173 293.062 216.014 297.196C216.632 298.064 216.656 298.921 215.961 299.765C215.922 305.328 215.369 310.874 215.453 316.444C215.527 321.362 216.095 326.166 218.014 330.746C218.212 331.218 218.343 331.719 218.501 332.206C219.274 332.703 219.447 333.589 219.81 334.33C220.78 336.312 221.891 338.2 223.218 339.96L223.214 339.964Z" fill="#8B8ADF"/>
<path d="M216.977 248.777C220.001 248.177 223.027 247.595 226.047 246.974C235.858 244.953 245.672 242.928 255.48 240.875C261.512 239.612 267.538 238.292 273.567 237.005C274.152 236.881 274.752 236.818 275.348 236.726C275.489 234.387 274.981 232.115 274.533 229.851C273.736 225.818 272.776 221.821 271.968 217.793C271.584 215.866 271.485 213.884 271.104 211.954C270.515 208.994 270.787 205.967 270.275 203.004C270.07 201.833 270.201 200.605 270.187 199.406C270.166 197.603 270.152 195.8 270.138 194.001C269.965 193.86 269.792 193.719 269.619 193.578C263.071 193.539 256.52 193.497 249.973 193.458C249.13 194.065 248.29 194.079 247.457 193.433C243.877 193.401 240.303 193.359 236.722 193.14C232.725 192.893 228.704 192.999 224.696 192.953C224.185 193.493 223.691 193.483 223.211 192.911L219.835 192.646C219.606 194.248 219.316 195.846 219.161 197.455C218.903 200.09 218.766 202.736 218.515 205.375C218.272 207.922 217.933 210.462 217.662 213.005C217.436 215.129 217.171 217.253 217.069 219.384C216.804 224.852 216.328 230.309 216.434 235.791C216.501 239.301 216.455 242.815 216.498 246.325C216.508 247.161 216.353 248.057 216.988 248.781H216.977V248.777Z" fill="#FFB88B"/>
<path d="M172.972 67.4065C175.12 67.9921 177.297 68.4896 179.406 69.181C182.86 70.3169 185.95 72.1761 188.885 74.2963C191.595 76.2542 194.325 78.191 196.978 80.223C200.174 82.6748 203.286 85.2324 206.45 87.7266C211.033 91.3355 215.379 95.2231 219.824 98.9943C223.549 102.155 227.328 105.253 230.968 108.519C233.142 110.47 235.202 112.534 237.375 114.481C239.738 116.598 242.169 118.637 244.536 120.747C248.191 123.999 251.941 127.167 255.18 130.843C259.028 135.214 263.085 139.412 266.296 144.323C268.941 148.373 271.002 152.694 272.741 157.185C274.138 160.794 275.041 164.541 275.718 168.344C275.958 169.688 275.697 171.102 276.23 172.415C276.357 172.725 276.494 173.028 276.629 173.332C277.447 172.824 277.246 171.977 277.292 171.236C277.648 165.112 277.288 159.069 275.637 153.111C274.688 149.692 273.401 146.432 271.753 143.321C268.783 137.701 265.767 132.11 261.904 127.023C259.932 124.426 258.012 121.784 256.104 119.141C253.691 115.801 251.285 112.456 248.928 109.077C245.93 104.776 242.607 100.73 239.41 96.5813C236.003 92.1645 232.616 87.7266 229.12 83.3803C224.922 78.1627 220.569 73.0792 215.922 68.2391C212.141 64.3021 207.59 61.6633 202.661 59.5431C201.875 59.2044 201.067 58.9081 200.266 58.5976C199.06 58.1284 197.839 57.7863 196.52 57.7545C195.408 57.7263 194.308 57.4688 193.196 57.4088C187.39 57.1019 182.158 58.7776 177.519 62.2172C175.66 63.5965 173.97 65.2158 172.979 67.3995L172.972 67.4065Z" fill="#484944"/>
<path d="M284.129 403.329C284.735 403.298 285.339 403.266 285.945 403.234C285.998 403.114 286.055 402.994 286.111 402.874C286.725 401.177 286.887 399.301 288.083 397.83C287.702 396.955 288.062 396.083 288.097 395.208C287.678 394.824 287.808 394.492 288.2 394.185C288.397 392.813 288.697 391.448 288.602 390.047C288.136 388.439 288.133 387.532 288.602 385.941C288.464 384.734 288.327 383.528 288.186 382.321C287.794 382.015 287.656 381.683 288.094 381.298C288.08 378.021 287.459 374.825 286.746 371.646C286.436 371.251 286.291 370.828 286.496 370.334C286.397 370.02 286.302 369.706 286.203 369.392C285.893 369.068 285.787 368.701 285.945 368.267C284.944 364.979 283.811 361.737 282.379 358.608C281.694 357.108 280.862 355.715 279.535 354.678C278.738 354.9 278.269 355.531 277.793 356.131C275.937 358.484 274.089 360.844 272.251 363.211C271.146 364.633 270.067 366.072 268.984 367.508C268.204 368.542 267.206 369.085 265.883 368.955C265.544 368.923 265.199 368.937 264.856 368.941C260.916 368.965 256.975 369.008 253.035 369.011C251.073 369.011 249.542 369.703 248.604 371.509C248.092 372.497 247.524 373.456 247.009 374.44C245.309 377.707 243.598 380.967 241.936 384.255C241.368 385.373 240.553 386.206 239.485 386.805C238.514 387.352 237.537 387.888 236.525 388.35C235.756 388.703 234.948 389.049 234.052 388.795C232.81 388.918 231.674 389.613 230.383 389.448C228.189 390.52 227.201 392.506 226.506 394.676C225.885 396.616 226.421 397.632 228.34 398.211C229.24 398.482 230.185 398.602 231.12 398.747C231.882 398.863 232.658 398.909 233.427 398.987C233.706 398.877 233.925 398.966 234.101 399.191C235.085 399.29 236.066 399.385 237.05 399.484C237.315 399.375 237.537 399.438 237.735 399.636C240.282 399.869 242.825 400.102 245.372 400.334C245.905 399.886 246.417 399.879 246.907 400.401C250.008 400.55 253.105 400.701 256.206 400.849C256.563 400.461 256.905 400.482 257.229 400.892C257.568 400.909 257.903 400.927 258.242 400.941C259.487 400.895 260.757 400.638 261.932 401.304C265.167 401.541 268.402 401.781 271.637 402.017C271.859 402.049 272.081 402.081 272.304 402.112C275.694 402.426 279.084 402.74 282.474 403.054C283.067 402.91 283.638 402.892 284.139 403.322L284.129 403.329Z" fill="#8A4101"/>
<path d="M234.048 388.795C234.944 389.049 235.752 388.7 236.521 388.351C237.534 387.889 238.511 387.349 239.481 386.806C240.546 386.206 241.365 385.373 241.933 384.255C243.594 380.971 245.305 377.707 247.006 374.441C247.521 373.453 248.089 372.497 248.6 371.509C249.535 369.703 251.066 369.015 253.031 369.011C256.972 369.008 260.912 368.966 264.853 368.941C265.195 368.941 265.541 368.923 265.88 368.955C267.202 369.086 268.201 368.542 268.98 367.509C270.063 366.073 271.143 364.633 272.247 363.212C274.085 360.845 275.934 358.485 277.789 356.131C278.266 355.528 278.731 354.9 279.532 354.678C279.43 351.161 278.795 347.675 278.946 344.148C279.236 337.537 279.828 330.971 281.97 324.646C282.213 323.923 282.594 323.214 282.414 322.402C281.691 323.129 280.94 323.828 280.252 324.586C276.706 328.484 272.526 331.578 268.06 334.316C267.823 336.372 267.287 338.284 266.028 340.013C264.024 342.772 262.14 345.615 260.242 348.448C255.437 355.616 250.615 362.771 245.877 369.985C243.439 373.696 241.083 377.446 238.37 380.978C236.553 383.341 234.973 385.906 234.052 388.795H234.048Z" fill="#FEB58A"/>
<path d="M223.214 339.963C221.888 338.203 220.777 336.315 219.806 334.333C219.443 333.592 219.27 332.706 218.498 332.209C215.478 334.611 213.478 337.804 211.64 341.117C206.394 350.564 201.123 359.997 195.945 369.48C193.232 374.447 190.66 379.495 188.092 384.54C186.158 388.34 185.171 392.411 185.082 396.669C184.998 400.669 185.862 404.522 187.471 408.162C189.496 412.752 192.216 416.901 195.909 420.351C196.53 420.933 197.091 421.603 197.906 421.945C197.927 420.986 197.708 420.185 197.08 419.349C194.847 416.378 193.355 413.062 192.702 409.358C192.42 407.749 192.226 406.162 192.202 404.529C192.159 401.59 192.706 398.739 193.461 395.942C194.597 391.723 196.258 387.698 198.174 383.761C200.577 378.818 203.466 374.172 206.292 369.477C208.235 366.252 210.087 362.975 212.017 359.743C214.91 354.896 217.834 350.067 220.748 345.23C221.366 344.203 221.997 343.184 222.611 342.157C223.013 341.484 223.25 340.753 223.221 339.956L223.214 339.963Z" fill="#EAA57B"/>
<path d="M195.684 154.285C199.014 153.008 200.196 150.288 200.492 147.018C200.584 145.995 200.524 144.957 200.534 143.927C199.935 143.486 199.973 142.922 200.227 142.319C200.16 141.994 200.093 141.669 200.026 141.348C199.585 141.098 199.487 140.728 199.656 140.269C199.522 139.814 199.388 139.359 199.254 138.907C198.732 138.674 198.428 138.315 198.587 137.704C198.474 137.411 198.365 137.119 198.252 136.826C197.709 136.628 197.409 136.272 197.497 135.665C196.573 134.311 195.648 132.956 194.728 131.601C194.131 131.506 193.81 131.167 193.8 130.553C191.165 127.516 188.05 125.078 184.532 123.149C183.922 123.286 183.566 122.99 183.354 122.454C182.38 122.126 181.41 121.794 180.437 121.466C179.851 121.769 179.488 121.473 179.184 121.007C178.69 120.972 178.2 120.937 177.706 120.905C176.866 121.409 176.037 121.445 175.226 120.838C172.559 121.247 170.485 122.51 169.25 124.99C169.102 125.29 168.876 125.555 168.689 125.833C168.611 126.429 168.615 127.047 168.442 127.615C167.662 130.197 168.382 132.55 169.638 134.744C173.861 142.125 179.731 147.892 187.086 152.129C189.722 153.646 192.576 154.535 195.684 154.292V154.285Z" fill="#FEB88B"/>
<path d="M330.269 421.659C327.168 424.334 324.056 426.99 320.659 429.29C320.687 429.576 320.719 429.862 320.747 430.144C323.266 430.257 325.785 430.183 328.297 430.003C328.843 429.692 329.415 429.703 329.997 429.893C331.874 429.745 333.751 429.593 335.627 429.445C335.966 429.163 336.336 429.163 336.724 429.315C338.213 429.216 339.582 428.712 340.859 427.981C343.893 426.246 344.785 423.346 343.113 420.298C341.614 417.564 339.709 415.122 337.095 413.341C336.379 412.854 335.737 412.311 335.183 411.658L335.056 411.813L334.855 411.778C334.996 412.776 335.268 413.771 334.939 414.78C335.014 416.47 334.304 417.902 333.398 419.246C332.629 420.382 331.722 421.384 330.272 421.656H330.269V421.659Z" fill="#8C4304"/>
<path d="M330.032 399.311C327.475 400.051 325.252 401.519 322.892 402.68C322.451 402.895 322.109 403.329 321.753 403.696C320.221 405.251 320.419 407.47 322.172 408.761C322.779 409.21 323.471 409.245 324.127 409.079C325.026 408.85 325.982 408.617 326.751 408.13C328.685 406.906 330.844 406.042 332.572 404.496C332.671 402.306 331.517 400.729 330.032 399.314V399.311Z" fill="#EAA57B"/>
<path d="M325.298 392.191C325.008 392.35 324.733 392.576 324.423 392.654C321.816 393.313 319.956 395.045 318.207 396.94C317.335 397.885 317.48 398.986 317.794 400.069C317.949 400.602 318.468 400.803 319.008 400.866C320.496 401.043 321.911 400.753 323.213 400.058C324.578 399.328 325.693 398.27 326.758 397.148C327.347 396.527 327.372 395.769 327.534 395.028C327.411 393.592 326.349 392.893 325.294 392.191H325.298Z" fill="#EAA57B"/>
<path d="M334.855 411.785L335.056 411.821L335.183 411.665C335.151 410.907 335.14 410.145 335.077 409.386C334.982 408.258 334.646 407.234 333.676 406.525C331.122 407.238 328.586 407.979 326.427 409.63C325.026 410.699 324.963 413.027 326.462 413.969C327.457 414.597 328.586 414.417 329.658 413.937C331.059 413.306 332.473 412.706 333.888 412.106C334.198 411.972 334.534 411.891 334.858 411.789H334.855V411.785Z" fill="#EBA479"/>
<path d="M290.348 403.35C294.917 403.841 298.72 401.946 302.336 399.491C302.512 399.371 302.554 399.05 302.66 398.824C302.159 398.715 301.662 398.609 301.161 398.5C300.91 398.708 300.702 398.627 300.512 398.405C298.473 398.26 296.434 398.172 294.391 398.408C294.045 398.786 293.64 398.86 293.181 398.634C292.557 398.747 291.932 398.86 291.304 398.969C291.054 399.382 290.62 399.371 290.221 399.438C290.228 400.613 290.232 401.784 290.239 402.959C290.271 403.089 290.306 403.216 290.345 403.343V403.35H290.348Z" fill="#8C4304"/>
<path d="M290.242 402.966C290.235 401.791 290.232 400.62 290.225 399.445C290.129 399.336 290.098 399.213 290.129 399.068C289.307 398.885 288.715 398.324 288.08 397.826C286.884 399.297 286.725 401.174 286.108 402.871C286.478 403.04 286.848 403.21 287.215 403.379C288.027 403.379 288.835 403.379 289.646 403.375C289.844 403.238 290.041 403.104 290.239 402.966H290.242Z" fill="#663409"/>
<path d="M217.002 267.262C217.76 265.382 217.704 263.494 217.058 261.604C216.3 263.484 216.342 265.371 217.002 267.262Z" fill="#8B8ADF"/>
<path d="M143.829 92.8705C144.231 91.0995 144.228 89.4556 143.826 87.7305C143.123 89.445 143.095 91.1595 143.829 92.8705Z" fill="#686D65"/>
<path d="M288.595 385.941C288.129 387.532 288.133 388.439 288.595 390.048C288.951 388.679 288.951 387.31 288.595 385.941Z" fill="#B3845B"/>
<path d="M252.064 428.25C250.696 427.488 249.32 427.531 247.94 428.208C249.309 428.956 250.685 428.917 252.064 428.25Z" fill="#FFD7BD"/>
<path d="M219.627 191.419C220.184 190.202 220.177 188.999 219.542 187.811C219.076 189.024 219.119 190.227 219.627 191.419Z" fill="#686D65"/>
<path d="M145.53 81.6482C146.507 80.7486 147.029 79.6197 147.198 78.3145C146.101 79.1541 145.59 80.29 145.53 81.6482Z" fill="#686D65"/>
<path d="M217.062 252.805C217.647 251.937 217.683 251.08 217.002 250.24C216.43 251.108 216.385 251.965 217.062 252.805Z" fill="#8B8ADF"/>
<path d="M215.958 299.767C216.653 298.924 216.628 298.067 216.011 297.199C215.358 298.042 215.372 298.9 215.958 299.767Z" fill="#8B8ADF"/>
<path d="M216.49 284.804C217.147 284.133 217.15 283.449 216.533 282.754C215.905 283.424 215.901 284.109 216.49 284.804Z" fill="#8B8ADF"/>
<path d="M274.766 428.757C274.088 428.066 273.4 428.066 272.705 428.725C273.383 429.41 274.071 429.406 274.766 428.757Z" fill="#FFD7BD"/>
<path d="M292.825 429.282C292.324 428.665 291.809 428.651 291.28 429.24C291.781 429.847 292.296 429.854 292.825 429.282Z" fill="#FFD7BD"/>
<path d="M285.939 368.266C285.78 368.696 285.886 369.066 286.196 369.391C286.499 368.925 286.334 368.569 285.939 368.266Z" fill="#EAA57B"/>
<path d="M286.489 370.33C286.285 370.824 286.429 371.247 286.74 371.642C286.972 371.145 286.874 370.711 286.489 370.33Z" fill="#EAA57B"/>
<path d="M288.196 394.182C287.808 394.489 287.674 394.82 288.094 395.205C288.383 394.891 288.422 394.549 288.196 394.182Z" fill="#B3845B"/>
<path d="M152.457 72.2109C153.068 72.2004 153.442 71.897 153.579 71.3008C152.969 71.3149 152.595 71.6147 152.457 72.2109Z" fill="#686D65"/>
<path d="M144.1 86.3016C144.534 85.9206 144.732 85.4866 144.382 84.9434C144.019 85.342 143.804 85.7689 144.1 86.3016Z" fill="#686D65"/>
<path d="M144.4 95.6492C144.728 95.1095 144.534 94.6791 144.121 94.291C143.825 94.8237 144.026 95.2541 144.4 95.6492Z" fill="#686D65"/>
<path d="M288.087 381.295C287.65 381.679 287.787 382.011 288.179 382.318C288.412 381.955 288.366 381.612 288.087 381.295Z" fill="#B3845B"/>
<path d="M166.304 66.8697C166.889 67.1131 167.479 67.1202 168.071 66.905C167.489 66.464 166.9 66.4605 166.304 66.8697Z" fill="#686D65"/>
<path d="M320.747 430.147C320.719 429.861 320.691 429.575 320.659 429.293C320.119 429.448 319.738 429.755 319.653 430.344C320.017 430.281 320.384 430.214 320.747 430.15V430.147Z" fill="#B3845B"/>
<path d="M330.001 429.896C329.419 429.709 328.851 429.699 328.301 430.005C328.893 430.344 329.458 430.323 330.001 429.896Z" fill="#A9ABA6"/>
<path d="M170.505 67.1835C170.851 67.5609 171.25 67.6068 171.694 67.381C171.338 67.067 170.939 67.0388 170.505 67.1835Z" fill="#686D65"/>
<path d="M293.185 398.638C293.643 398.864 294.049 398.79 294.395 398.412C293.95 398.268 293.534 398.282 293.185 398.638Z" fill="#B3845B"/>
<path d="M290.133 399.068C290.101 399.209 290.133 399.336 290.228 399.446C290.631 399.379 291.061 399.389 291.312 398.977C290.92 399.008 290.525 399.04 290.133 399.072V399.068Z" fill="#B3845B"/>
<path d="M336.728 429.314C336.339 429.162 335.966 429.162 335.63 429.445C336.033 429.702 336.389 429.575 336.728 429.314Z" fill="#B3845B"/>
<path d="M163.705 67.3532C163.99 67.4978 164.209 67.4061 164.393 67.1697C164.121 67.071 163.888 67.1274 163.705 67.3532Z" fill="#686D65"/>
<path d="M269.615 193.577C269.788 193.718 269.961 193.859 270.134 194C270.127 193.803 270.12 193.602 270.109 193.404C269.943 193.461 269.781 193.521 269.615 193.577Z" fill="#EAA57B"/>
<path d="M159.587 68.4371C159.884 68.5394 160.099 68.4301 160.265 68.1866C159.982 68.1161 159.757 68.1972 159.587 68.4371Z" fill="#686D65"/>
<path d="M300.515 398.405C300.702 398.627 300.91 398.708 301.164 398.5C300.977 398.278 300.758 398.253 300.515 398.405Z" fill="#EAA57B"/>
<path d="M161.153 67.9648C161.443 68.0565 161.661 67.9578 161.827 67.7179C161.541 67.6367 161.319 67.7179 161.153 67.9648Z" fill="#686D65"/>
<path d="M319.682 430.295C319.541 430.408 319.399 430.524 319.262 430.637C319.403 430.524 319.544 430.408 319.682 430.295Z" fill="#B3845B"/>
<path d="M175.226 120.835C176.037 121.438 176.866 121.406 177.706 120.902C176.898 120.179 176.069 120.242 175.226 120.835Z" fill="#EAA57B"/>
<path d="M200.228 142.318C199.974 142.922 199.935 143.486 200.534 143.927C200.873 143.324 200.771 142.788 200.228 142.318Z" fill="#B3845B"/>
<path d="M198.587 137.701C198.432 138.315 198.732 138.671 199.254 138.904C199.451 138.269 199.187 137.892 198.587 137.701Z" fill="#B3845B"/>
<path d="M199.656 140.27C199.487 140.732 199.589 141.099 200.026 141.349C200.637 140.735 200.164 140.495 199.656 140.27Z" fill="#B3845B"/>
<path d="M197.497 135.662C197.408 136.269 197.708 136.629 198.251 136.823C198.403 136.174 198.124 135.803 197.497 135.662Z" fill="#B3845B"/>
<path d="M179.184 121.004C179.488 121.469 179.851 121.766 180.437 121.466C180.154 120.944 179.763 120.718 179.184 121.004Z" fill="#B3845B"/>
<path d="M183.35 122.45C183.562 122.987 183.918 123.283 184.528 123.145C184.352 122.542 183.982 122.278 183.35 122.45Z" fill="#B3845B"/>
<path d="M193.8 130.555C193.811 131.169 194.132 131.507 194.728 131.602C194.763 130.95 194.449 130.604 193.8 130.555Z" fill="#B3845B"/>
<path d="M234.049 388.794C234.97 385.901 236.55 383.337 238.367 380.977C241.08 377.449 243.44 373.695 245.874 369.984C250.608 362.77 255.434 355.615 260.239 348.447C262.137 345.614 264.024 342.771 266.025 340.012C267.281 338.283 267.82 336.371 268.057 334.315C267.736 334.138 267.415 333.965 267.094 333.789C266.6 334.001 266.3 334.392 265.996 334.83C262.324 340.093 258.556 345.29 254.937 350.595C252.185 354.628 249.366 358.621 246.752 362.738C242.477 369.469 237.958 376.027 233.565 382.677C232.955 383.605 232.345 384.543 231.632 385.394C230.63 386.589 230.256 387.934 230.376 389.454C231.668 389.616 232.807 388.925 234.045 388.801V388.794H234.049Z" fill="#EBA479"/>
<path d="M330.269 421.659C331.722 421.391 332.629 420.389 333.394 419.249C334.301 417.905 335.01 416.473 334.936 414.783C333.536 414.801 332.643 415.806 331.641 416.547C330.964 417.048 330.403 417.715 329.821 418.336C328.766 419.461 328.741 419.884 329.655 421.221C329.789 421.415 330.061 421.514 330.272 421.659H330.269Z" fill="#EBA479"/>
<path d="M261.925 401.308C260.75 400.641 259.48 400.899 258.235 400.945C259.406 401.657 260.676 401.393 261.925 401.308Z" fill="#B3845B"/>
<path d="M246.9 400.402C246.41 399.879 245.899 399.887 245.366 400.335C245.856 400.878 246.364 400.931 246.9 400.402Z" fill="#B3845B"/>
<path d="M257.219 400.891C256.894 400.482 256.552 400.461 256.196 400.849C256.52 401.29 256.859 401.328 257.219 400.891Z" fill="#B3845B"/>
<path d="M284.129 403.329C283.628 402.899 283.056 402.916 282.464 403.061C282.958 403.537 283.529 403.52 284.129 403.329Z" fill="#B3845B"/>
<path d="M287.223 403.379C286.852 403.21 286.482 403.04 286.115 402.871C286.058 402.991 286.002 403.111 285.949 403.231C286.355 403.439 286.778 403.496 287.223 403.379Z" fill="#B3845B"/>
<path d="M237.728 399.637C237.53 399.439 237.308 399.375 237.043 399.485C237.237 399.696 237.459 399.767 237.728 399.637Z" fill="#B3845B"/>
<path d="M272.293 402.115C272.071 402.083 271.848 402.051 271.626 402.02C271.824 402.231 272.035 402.319 272.293 402.115Z" fill="#B3845B"/>
<path d="M290.242 402.966C290.045 403.104 289.847 403.238 289.65 403.376C289.883 403.369 290.115 403.362 290.345 403.351C290.306 403.224 290.271 403.093 290.242 402.963V402.966Z" fill="#B3845B"/>
<path d="M234.094 399.191C233.917 398.965 233.699 398.881 233.42 398.987C233.596 399.209 233.819 399.294 234.094 399.191Z" fill="#B3845B"/>
<path d="M172.972 67.406C172.972 67.406 157.753 62.9363 148.598 74.7685C139.444 86.6007 142.047 95.0885 147.194 102.574" fill="#686D65"/>
<path d="M219.651 192.266H270.169V194.552H219.651V192.266Z" fill="#686D65"/>
<path d="M216.977 248.777L216.462 248.848L215.217 317.118L216.554 325.672L226.714 250.273L216.977 248.777Z" fill="#8B8ADF"/>
</svg>
