<svg width="500" height="500" viewBox="0 0 500 500" fill="none" xmlns="http://www.w3.org/2000/svg">
<path d="M130.031 280.607C135.149 280.916 140.272 281.221 145.39 281.53C145.833 281.555 146.272 281.593 146.714 281.618C154.31 282.023 161.902 282.416 169.498 282.834C178.945 283.356 188.396 283.882 197.843 284.442C204.729 284.852 211.615 285.311 218.496 285.758C220.611 285.896 222.75 285.683 224.847 286.122C225.813 286.114 226.807 285.959 227.743 286.122C230.191 286.556 232.661 286.452 235.117 286.515C239.605 286.628 243.854 285.704 247.74 283.364C250.777 281.534 253.56 279.416 255.557 276.408C255.887 275.91 256.167 275.325 256.782 275.071C256.635 274.506 256.919 274.051 257.141 273.571C258.432 270.746 259.397 267.809 259.936 264.754C260.567 261.19 261.073 257.601 261.645 254.025C262.41 249.228 263.095 244.415 263.968 239.635C265.268 232.498 265.999 225.291 266.905 218.104C267.47 213.634 267.887 209.146 268.706 204.713C268.744 202.975 269.266 201.27 269.103 199.52C268.56 197.815 268.518 196.06 268.527 194.284C268.548 187.031 268.527 179.778 268.518 172.524C268.518 171.818 268.531 171.108 268.573 170.406C268.602 169.909 268.903 169.604 269.396 169.528C269.859 169.457 270.277 169.562 270.561 169.967C270.712 170.184 270.896 170.41 270.946 170.656C271.209 171.948 271.652 173.188 271.736 174.53C271.869 176.631 271.99 178.766 272.45 180.814C272.897 182.807 272.889 184.829 273.223 186.826C273.712 189.764 273.896 192.759 274.485 195.692C275.525 195.371 276.323 194.635 277.163 194.009C283.397 189.354 289.639 184.712 295.81 179.974C303.452 174.104 311.015 168.133 318.436 161.987C319.723 160.921 320.846 159.643 322.342 158.832C322.572 156.68 322.1 154.6 321.732 152.506C320.546 145.758 318.657 139.219 315.799 132.986C312.636 126.079 308.546 119.787 303.056 114.484C297.051 108.689 290.04 104.72 281.784 103.14C273.043 101.469 264.344 101.553 255.72 103.938C253.33 104.599 250.928 105.213 248.538 105.86C242.856 107.402 238.005 110.436 233.588 114.225C228.963 118.19 225.257 122.916 222.24 128.189C219.725 132.584 217.778 137.218 216.257 142.065C213.491 150.902 211.874 159.939 210.984 169.136C209.509 184.336 209.254 199.566 209.868 214.816C210.077 220.039 210.27 225.266 210.545 230.489C210.754 234.471 211.084 238.444 211.36 242.422C211.398 242.948 211.444 243.479 211.448 244.01C211.448 244.419 211.176 244.67 210.796 244.711C210.361 244.762 209.914 244.766 209.48 244.724C203.722 244.206 197.965 244.54 192.211 244.812C191.238 244.858 190.264 244.925 189.291 244.954C178.661 245.23 168.028 245.459 157.398 245.781C147.834 246.074 138.27 246.466 128.706 246.813C128.514 248.326 128.995 249.792 129.011 251.284C129.082 256.578 129.747 261.842 129.671 267.14C129.638 269.434 129.621 271.74 129.851 274.018C130.077 276.224 130.114 278.413 130.035 280.619L130.031 280.607Z" fill="#696D65"/>
<path d="M214.661 391.973C215.563 393.118 215.939 394.489 216.324 395.851C216.854 397.731 217.536 399.544 218.388 401.303C218.977 402.519 219.763 403.572 220.757 404.475C223.164 406.656 225.875 408.21 229.126 408.799C232.786 409.463 236.43 410.065 240.177 410.002C242.998 409.956 245.805 410.487 248.651 410.466C251.408 410.449 254.108 409.931 256.844 409.756C257.793 409.693 258.766 409.501 259.727 409.376C262.769 408.966 265.289 407.7 266.897 404.93C267.482 403.923 267.574 402.941 267.156 401.888C266.659 400.639 265.949 399.536 264.963 398.6C264.332 397.998 263.488 397.58 263.204 396.661C262.075 396.761 261.165 396.189 260.241 395.688C256.823 393.841 253.251 392.391 249.524 391.296C248.597 391.025 247.707 390.632 246.779 390.365C245.07 389.867 243.574 388.923 241.991 388.163C241.297 387.833 240.9 387.31 240.854 386.525C240.712 384.035 241.197 381.64 241.953 379.288C242.145 378.686 242.672 378.574 243.165 378.398C242.237 377.667 242.371 376.702 242.588 375.724C243.273 372.62 243.955 369.515 244.648 366.411C246.779 356.843 248.91 347.275 251.053 337.711C251.939 333.745 252.829 329.78 253.769 325.828C253.991 324.888 254.446 324.006 254.743 323.078C255.244 321.516 256.427 320.876 257.931 320.693C258.545 320.617 259.167 320.63 259.786 320.63C270.591 320.63 281.396 320.513 292.201 320.713C295.994 320.785 299.797 320.964 303.599 320.989C304.48 320.993 305.362 320.893 306.239 320.83C306.59 320.805 306.962 320.659 307.284 320.734C309.377 321.215 311.525 320.964 313.627 321.269C317.308 319.74 320.913 318.044 324.331 316.013C328.234 313.698 331.748 310.882 334.38 307.105C337.852 302.12 339.761 296.756 338.19 290.622C337.167 286.632 335.286 283.143 331.392 281.292C326.859 279.14 322.087 277.912 316.998 278.563C314.287 278.91 311.579 279.32 308.872 279.7C305.291 280.201 301.71 280.703 298.125 281.204C294.891 281.66 291.67 282.199 288.428 282.545C285.712 282.834 283.017 283.448 280.259 283.285C277.301 283.711 274.326 284.033 271.397 284.614C270.16 284.86 268.886 284.639 267.729 284.994C265.243 285.754 262.602 285.107 260.145 285.967C257.037 285.946 254.129 287.309 251.02 287.279C250.936 287.279 250.857 287.35 250.769 287.363C248.254 287.785 245.751 288.315 243.223 288.575C241.886 288.712 240.629 289.001 239.354 289.364C237.01 290.037 235.092 291.445 233.083 292.732C231.278 293.885 230.099 295.448 229.31 297.378C228.909 298.36 228.445 299.313 228.098 300.311C227.547 301.891 226.786 303.378 226.368 305.02C225.934 306.729 225.416 308.396 225.228 310.168C225.015 312.173 224.634 314.162 224.354 316.159C224.125 317.814 224.02 319.493 223.703 321.127C222.967 324.925 222.035 328.686 221.38 332.496C221.054 334.393 220.485 336.277 220.615 338.245C220.661 338.951 220.481 339.637 220.343 340.334C219.85 342.833 219.27 345.34 219.098 347.872C218.935 350.245 218.217 352.568 218.467 354.975C218.492 355.23 218.467 355.527 218.367 355.761C217.916 356.772 217.97 357.833 217.958 358.894C217.953 359.425 217.983 359.976 217.853 360.478C217.038 363.641 216.884 366.908 216.474 370.125C216.178 372.465 215.53 374.813 215.814 377.22C215.843 377.479 215.831 377.776 215.731 378.005C215.212 379.188 215.329 380.433 215.296 381.67C215.279 382.288 215.288 382.919 215.146 383.512C214.582 385.873 214.54 388.225 215.158 390.578C215.313 391.163 215.146 391.614 214.657 391.957L214.661 391.973Z" fill="#FFB88B"/>
<path d="M280.263 283.289C283.02 283.451 285.715 282.837 288.431 282.549C291.673 282.202 294.899 281.663 298.129 281.208C301.71 280.706 305.29 280.205 308.875 279.704C311.583 279.323 314.29 278.914 317.002 278.567C322.091 277.911 326.858 279.144 331.396 281.296C335.29 283.142 337.174 286.635 338.194 290.625C339.765 296.755 337.855 302.124 334.383 307.109C331.751 310.886 328.233 313.702 324.335 316.017C320.913 318.047 317.307 319.744 313.63 321.273C313.881 322.76 313.868 324.26 313.826 325.76C315.962 325.919 318.038 325.426 320.111 325.063C322.981 324.557 325.714 323.554 328.396 322.376C335.545 319.226 341.699 314.767 346.793 308.843C346.855 308.571 347.031 308.412 347.298 308.354V308.35C347.445 308.145 347.591 307.944 347.737 307.74C349.066 304.247 349.868 300.628 350.353 296.93C350.411 296.492 350.44 296.049 350.457 295.606C350.528 293.839 350.595 292.075 350.833 290.312C351.029 288.833 351.038 287.279 350.821 285.804C350.478 283.51 350.595 281.204 350.403 278.914C350.048 274.686 349.763 270.461 349.145 266.25C348.247 260.099 346.667 254.124 345.151 248.12C343.116 240.056 341.252 231.951 339.268 223.874C338.85 222.169 338.532 220.414 337.667 218.848C335.996 219.14 334.492 219.938 332.888 220.414C325.609 222.583 318.322 224.735 311.015 226.807C301.246 229.582 291.456 232.289 281.667 234.997C279.636 235.561 277.639 236.313 275.487 236.359C275.5 237.153 275.395 237.967 275.541 238.736C276.018 241.272 275.926 243.833 275.967 246.386C276.03 250.356 276.118 254.329 276.043 258.294C275.947 263.237 276.264 268.151 276.736 273.06C277.275 275.02 277.785 276.988 278.357 278.935C278.805 280.464 279.344 281.964 280.263 283.293V283.289Z" fill="#8B8BDF"/>
<path d="M357.644 386.377C357.435 385.875 357.381 385.353 357.473 384.814C358.208 380.485 357.945 376.157 357.326 371.853C356.294 364.654 354.677 357.593 351.97 350.816C351.314 349.174 350.578 347.561 349.835 345.956C348.932 344.018 347.754 342.259 346.229 340.746C344.508 342.167 343.275 344.03 341.829 345.689C339.556 348.292 337.317 350.933 335.194 353.657C333.999 355.19 332.662 355.909 330.673 355.825C327.665 355.7 324.644 355.813 321.632 355.875C319.948 355.909 318.268 356.051 316.589 356.126C315.803 356.16 315.252 356.511 314.896 357.204C314.654 357.676 314.395 358.144 314.157 358.616C311.683 363.522 309.139 368.393 306.786 373.357C306.001 375.016 304.952 375.705 303.189 375.952C299.596 376.453 296.044 377.218 292.463 377.815C289.15 378.367 285.874 379.198 282.49 379.303C281.663 381.141 282.231 382.984 282.586 384.785C283.159 387.668 284.245 390.388 285.682 392.953C288.833 398.585 292.885 403.47 297.824 407.623C300.586 409.946 303.728 411.592 307.204 412.44C312.899 413.828 318.665 414.768 324.577 414.266C328.747 413.915 332.85 413.322 336.686 411.517C337.329 411.216 337.964 410.89 338.716 411.036C339.268 410.602 339.782 410.113 340.371 409.745C342.711 408.296 344.754 406.495 346.605 404.477C347.257 403.766 347.779 402.943 348.397 402.204C351.661 398.33 354.151 394.014 356.052 389.326C356.466 388.307 356.558 387.049 357.648 386.372L357.644 386.377Z" fill="#8A4101"/>
<path d="M275.488 236.356C277.635 236.31 279.632 235.557 281.667 234.993C291.457 232.286 301.246 229.578 311.015 226.804C318.323 224.732 325.61 222.58 332.888 220.411C334.493 219.935 335.997 219.137 337.668 218.845C337.718 218.13 337.601 217.449 337.426 216.751C335.203 207.835 333.055 198.902 330.786 189.998C328.321 180.321 325.764 170.67 323.211 161.014C323.015 160.27 322.944 159.426 322.338 158.824C320.842 159.635 319.718 160.913 318.431 161.979C311.007 168.125 303.448 174.096 295.806 179.966C289.639 184.704 283.393 189.346 277.159 194.001C276.319 194.628 275.525 195.363 274.481 195.685C273.06 197.485 271.176 198.634 269.095 199.512C269.258 201.267 268.736 202.967 268.698 204.705C268.961 205.813 269.308 206.903 269.479 208.027C270.482 214.629 271.857 221.159 273.336 227.665C273.996 230.573 274.485 233.531 275.488 236.356Z" fill="#FEB88B"/>
<path d="M282.481 379.3C285.866 379.2 289.142 378.369 292.455 377.813C296.036 377.215 299.587 376.451 303.18 375.949C304.944 375.703 305.992 375.014 306.778 373.355C309.13 368.391 311.675 363.519 314.148 358.614C314.386 358.138 314.646 357.674 314.888 357.202C315.239 356.508 315.795 356.157 316.58 356.124C318.26 356.049 319.944 355.911 321.623 355.873C324.636 355.81 327.657 355.698 330.665 355.823C332.654 355.907 333.991 355.188 335.186 353.654C337.308 350.93 339.552 348.294 341.821 345.687C343.271 344.024 344.499 342.16 346.22 340.744C345.727 337.267 345.193 333.787 345.126 330.269C345.063 326.922 344.996 323.563 345.243 320.233C345.485 316.911 346.066 313.61 346.977 310.385C347.119 309.879 347.186 309.353 347.29 308.839H347.035L346.78 308.826C341.691 314.755 335.532 319.209 328.384 322.359C325.701 323.542 322.973 324.541 320.098 325.046C318.03 325.41 315.953 325.903 313.814 325.744C313.739 325.79 313.643 325.823 313.593 325.886C312.005 327.9 309.878 328.238 307.451 328.159C302.504 328 297.548 328.05 292.597 327.979C291.398 327.962 290.357 328.272 289.38 328.974C288.707 329.458 288.235 330.056 287.846 330.762C286.902 332.488 286.363 334.347 286.087 336.286C285.899 337.593 285.711 338.909 285.653 340.23C285.607 341.266 285.089 341.83 284.232 342.252C281.617 343.539 278.997 344.83 276.398 346.155C274.067 347.341 273.774 348.064 274.931 350.312C276.791 353.926 278.746 357.49 280.664 361.075C280.915 361.543 281.161 362.015 281.47 362.445C283.091 364.698 283.192 367.188 282.707 369.799C282.122 372.95 282.172 376.121 282.465 379.296L282.481 379.3Z" fill="#FFB88B"/>
<path d="M130.03 280.608C130.11 278.402 130.072 276.213 129.847 274.007C129.613 271.73 129.633 269.423 129.667 267.129C129.742 261.831 129.078 256.563 129.007 251.273C128.986 249.786 128.51 248.315 128.702 246.802C127.206 244.997 125.23 244.166 122.944 243.949C120.4 243.706 117.939 244.199 115.762 245.411C111.203 247.956 106.286 249.777 101.815 252.497C97.3608 255.209 92.8692 257.858 88.3609 260.482C84.7676 262.571 81.1283 264.581 77.5058 266.611C76.0393 267.434 74.5853 268.278 73.0811 269.018C70.265 270.405 69.5254 273.025 70.2733 275.712C71.4181 279.835 75.2955 282.322 78.6632 282.23C82.9083 282.113 87.1701 282.363 91.4068 282.104C101.221 281.503 111.044 282.033 120.855 281.62C123.926 281.49 127.035 281.44 130.039 280.613L130.03 280.608Z" fill="#FFB88C"/>
<path d="M280.263 283.289C279.344 281.96 278.809 280.46 278.358 278.931C277.785 276.984 277.276 275.016 276.741 273.057C275.17 273.253 273.59 273.307 272.019 273.579C269.943 273.938 267.82 274.026 265.715 274.227C262.735 274.511 259.756 274.791 256.777 275.071C256.163 275.325 255.887 275.91 255.553 276.408C253.556 279.416 250.773 281.534 247.736 283.364C243.854 285.704 239.601 286.628 235.113 286.515C232.656 286.452 230.187 286.561 227.739 286.122C226.803 285.955 225.808 286.109 224.843 286.122C223.915 288.132 222.988 290.141 222.06 292.155C220.748 295.001 220.13 298.042 219.645 301.105C218.73 306.875 217.677 312.612 216.453 318.324C215.622 322.214 214.945 326.141 214.293 330.069C213.566 334.431 212.91 338.805 212.292 343.184C211.82 346.514 211.477 349.857 211.042 353.191C210.62 356.437 210.148 359.676 209.714 362.918C209.526 364.322 209.342 365.726 209.196 367.134C208.903 369.95 208.602 372.766 208.377 375.59C208.276 376.823 208.452 378.047 208.753 379.276C209.58 382.643 210.666 385.911 212.12 389.057C212.68 390.273 213.299 391.459 214.669 391.977C215.158 391.635 215.325 391.184 215.17 390.599C214.552 388.246 214.594 385.894 215.158 383.533C215.3 382.94 215.292 382.305 215.308 381.691C215.342 380.454 215.221 379.209 215.743 378.026C215.843 377.797 215.86 377.496 215.826 377.241C215.542 374.834 216.19 372.486 216.487 370.146C216.896 366.933 217.051 363.662 217.865 360.499C217.995 359.993 217.966 359.442 217.97 358.915C217.982 357.854 217.928 356.788 218.379 355.781C218.484 355.552 218.509 355.255 218.48 354.996C218.229 352.589 218.943 350.266 219.111 347.893C219.286 345.361 219.867 342.854 220.356 340.355C220.494 339.658 220.673 338.972 220.627 338.266C220.494 336.298 221.066 334.414 221.392 332.517C222.048 328.707 222.975 324.946 223.715 321.148C224.032 319.51 224.137 317.835 224.367 316.18C224.647 314.179 225.023 312.194 225.24 310.189C225.428 308.421 225.946 306.75 226.381 305.041C226.798 303.399 227.559 301.907 228.11 300.332C228.461 299.334 228.925 298.377 229.322 297.399C230.108 295.469 231.29 293.906 233.095 292.753C235.105 291.466 237.023 290.054 239.367 289.385C240.641 289.022 241.899 288.733 243.236 288.595C245.768 288.332 248.27 287.806 250.782 287.384C250.869 287.371 250.949 287.3 251.032 287.3C254.141 287.329 257.049 285.967 260.157 285.988C262.61 285.128 265.255 285.775 267.741 285.015C268.898 284.66 270.173 284.881 271.409 284.635C274.334 284.054 277.313 283.732 280.271 283.306L280.263 283.289Z" fill="#E9A57A"/>
<path d="M342.101 414.217C345.126 416.623 348.703 417.643 352.442 417.898C363.31 418.65 374.181 419.314 385.074 419.623C387.907 419.703 390.736 419.878 393.568 419.987C394.362 420.016 395.148 420.02 395.921 419.711C397.926 418.909 398.854 417.484 398.632 415.366C398.511 414.212 398.19 413.109 397.659 412.073C396.36 409.516 394.672 407.264 392.486 405.396C390.393 403.604 388.128 402.058 385.642 400.859C377.353 396.86 369.155 392.678 361.091 388.241C360.941 388.157 360.757 388.136 360.59 388.086C360.556 389.143 360.682 390.238 360.464 391.257C359.842 394.199 358.81 397.015 357.427 399.681C355.003 404.356 351.732 408.384 347.754 411.81C346.162 413.185 344.474 414.572 342.101 414.212V414.217Z" fill="#8A4202"/>
<path d="M243.169 378.396C242.675 378.572 242.149 378.681 241.957 379.286C241.201 381.639 240.716 384.033 240.858 386.523C240.904 387.309 241.297 387.831 241.994 388.161C243.578 388.917 245.074 389.862 246.783 390.363C247.71 390.635 248.6 391.023 249.528 391.295C253.255 392.389 256.831 393.839 260.245 395.686C261.168 396.187 262.083 396.76 263.207 396.66C265.004 396.1 266.099 394.687 267.193 393.309C268.108 392.155 268.125 390.885 267.377 389.598C266.328 387.793 264.866 386.423 263.036 385.441C259.058 383.31 254.922 381.534 250.602 380.247C248.157 379.52 245.73 378.676 243.169 378.396Z" fill="#E9A57B"/>
<path d="M342.101 414.219C344.474 414.578 346.162 413.191 347.754 411.816C351.732 408.39 354.999 404.358 357.427 399.687C358.81 397.021 359.846 394.201 360.465 391.264C360.682 390.244 360.557 389.154 360.59 388.092C359.85 387.106 358.823 386.609 357.644 386.375C356.554 387.052 356.458 388.31 356.048 389.329C354.147 394.017 351.657 398.333 348.394 402.206C347.771 402.946 347.249 403.769 346.601 404.479C344.75 406.497 342.707 408.298 340.367 409.748C339.778 410.116 339.264 410.605 338.713 411.039C339.461 412.506 340.555 413.605 342.105 414.219H342.101Z" fill="#62330A"/>
<path d="M347.729 307.732C347.583 307.937 347.437 308.138 347.29 308.342C347.579 308.242 347.716 308.033 347.729 307.732Z" fill="#DBC5C9"/>
<path d="M346.789 308.834L347.044 308.847H347.299C347.341 308.68 347.341 308.517 347.299 308.35C347.027 308.408 346.856 308.567 346.793 308.838L346.789 308.834Z" fill="#DBC5C9"/>
<path d="M269.095 199.514C271.172 198.637 273.056 197.487 274.481 195.687C273.892 192.754 273.712 189.758 273.219 186.82C272.885 184.823 272.893 182.797 272.446 180.808C271.991 178.761 271.87 176.63 271.732 174.524C271.644 173.183 271.205 171.942 270.942 170.651C270.892 170.404 270.708 170.174 270.558 169.961C270.273 169.556 269.856 169.452 269.392 169.523C268.899 169.598 268.598 169.903 268.569 170.4C268.527 171.106 268.514 171.812 268.514 172.518C268.514 179.772 268.544 187.025 268.523 194.279C268.519 196.054 268.556 197.805 269.099 199.514H269.095Z" fill="#4A4B45"/>
</svg>
