<svg width="500" height="500" viewBox="0 0 500 500" fill="none" xmlns="http://www.w3.org/2000/svg">
<path d="M398.634 280.607C393.515 280.916 388.393 281.221 383.275 281.53C382.832 281.555 382.393 281.593 381.95 281.618C374.354 282.023 366.762 282.416 359.166 282.834C349.719 283.356 340.268 283.882 330.821 284.442C323.935 284.852 317.05 285.311 310.168 285.758C308.054 285.896 305.915 285.683 303.817 286.122C302.852 286.114 301.858 285.959 300.922 286.122C298.473 286.556 296.004 286.452 293.547 286.515C289.06 286.628 284.81 285.704 280.925 283.364C277.887 281.534 275.104 279.416 273.107 276.408C272.777 275.91 272.497 275.325 271.883 275.071C272.029 274.506 271.745 274.051 271.524 273.571C270.233 270.746 269.267 267.809 268.728 264.754C268.097 261.19 267.592 257.601 267.019 254.025C266.255 249.228 265.57 244.415 264.696 239.635C263.397 232.498 262.666 225.291 261.759 218.104C261.195 213.634 260.777 209.146 259.958 204.713C259.921 202.975 259.398 201.27 259.561 199.52C260.104 197.815 260.146 196.06 260.138 194.284C260.117 187.031 260.138 179.778 260.146 172.524C260.146 171.818 260.134 171.108 260.092 170.406C260.063 169.909 259.762 169.604 259.269 169.528C258.805 169.457 258.387 169.562 258.103 169.967C257.953 170.184 257.769 170.41 257.719 170.656C257.456 171.948 257.013 173.188 256.929 174.53C256.795 176.631 256.674 178.766 256.215 180.814C255.767 182.807 255.776 184.829 255.442 186.826C254.953 189.764 254.769 192.759 254.18 195.692C253.139 195.371 252.341 194.635 251.502 194.009C245.268 189.354 239.025 184.712 232.854 179.974C225.212 174.104 217.649 168.133 210.229 161.987C208.942 160.921 207.818 159.643 206.322 158.832C206.092 156.68 206.565 154.6 206.932 152.506C208.119 145.758 210.007 139.219 212.865 132.986C216.028 126.079 220.119 119.787 225.609 114.484C231.613 108.689 238.624 104.72 246.88 103.14C255.621 101.469 264.32 101.553 272.944 103.938C275.334 104.599 277.737 105.213 280.127 105.86C285.809 107.402 290.66 110.436 295.076 114.225C299.702 118.19 303.408 122.916 306.424 128.189C308.94 132.584 310.887 137.218 312.408 142.065C315.174 150.902 316.791 159.939 317.681 169.136C319.155 184.336 319.41 199.566 318.796 214.816C318.587 220.039 318.395 225.266 318.119 230.489C317.91 234.471 317.58 238.444 317.305 242.422C317.267 242.948 317.221 243.479 317.217 244.01C317.217 244.419 317.488 244.67 317.869 244.711C318.303 244.762 318.75 244.766 319.185 244.724C324.942 244.206 330.7 244.54 336.453 244.812C337.427 244.858 338.4 244.925 339.374 244.954C350.003 245.23 360.637 245.459 371.266 245.781C380.83 246.074 390.394 246.466 399.958 246.813C400.15 248.326 399.67 249.792 399.653 251.284C399.582 256.578 398.918 261.842 398.993 267.14C399.027 269.434 399.043 271.74 398.813 274.018C398.588 276.224 398.55 278.413 398.63 280.619L398.634 280.607Z" fill="#696D65"/>
<path d="M314.004 391.973C313.101 393.118 312.725 394.489 312.341 395.851C311.81 397.731 311.129 399.544 310.277 401.303C309.688 402.519 308.902 403.572 307.908 404.475C305.501 406.656 302.789 408.21 299.539 408.799C295.878 409.463 292.235 410.065 288.487 410.002C285.667 409.956 282.859 410.487 280.014 410.466C277.256 410.449 274.557 409.931 271.82 409.756C270.872 409.693 269.898 409.501 268.937 409.376C265.895 408.966 263.376 407.7 261.767 404.93C261.182 403.923 261.09 402.941 261.508 401.888C262.006 400.639 262.716 399.536 263.702 398.6C264.333 397.998 265.177 397.58 265.461 396.661C266.589 396.761 267.5 396.189 268.423 395.688C271.841 393.841 275.413 392.391 279.14 391.296C280.068 391.025 280.958 390.632 281.886 390.365C283.594 389.867 285.09 388.923 286.674 388.163C287.367 387.833 287.764 387.31 287.81 386.525C287.952 384.035 287.468 381.64 286.711 379.288C286.519 378.686 285.993 378.574 285.5 378.398C286.427 377.667 286.294 376.702 286.076 375.724C285.391 372.62 284.71 369.515 284.016 366.411C281.886 356.843 279.755 347.275 277.611 337.711C276.725 333.745 275.835 329.78 274.895 325.828C274.674 324.888 274.219 324.006 273.922 323.078C273.42 321.516 272.238 320.876 270.734 320.693C270.12 320.617 269.497 320.63 268.879 320.63C258.074 320.63 247.269 320.513 236.464 320.713C232.67 320.785 228.868 320.964 225.066 320.989C224.184 320.993 223.303 320.893 222.425 320.83C222.074 320.805 221.702 320.659 221.381 320.734C219.287 321.215 217.14 320.964 215.038 321.269C211.357 319.74 207.751 318.044 204.333 316.013C200.431 313.698 196.917 310.882 194.285 307.105C190.813 302.12 188.903 296.756 190.474 290.622C191.498 286.632 193.378 283.143 197.272 281.292C201.806 279.14 206.577 277.912 211.666 278.563C214.378 278.91 217.085 279.32 219.793 279.7C223.374 280.201 226.954 280.703 230.539 281.204C233.773 281.66 236.995 282.199 240.237 282.545C242.953 282.834 245.648 283.448 248.405 283.285C251.364 283.711 254.338 284.033 257.267 284.614C258.504 284.86 259.779 284.639 260.936 284.994C263.422 285.754 266.063 285.107 268.519 285.967C271.628 285.946 274.536 287.309 277.645 287.279C277.728 287.279 277.808 287.35 277.895 287.363C280.411 287.785 282.913 288.315 285.441 288.575C286.778 288.712 288.036 289.001 289.31 289.364C291.654 290.037 293.572 291.445 295.582 292.732C297.387 293.885 298.565 295.448 299.355 297.378C299.756 298.36 300.22 299.313 300.566 300.311C301.118 301.891 301.878 303.378 302.296 305.02C302.731 306.729 303.249 308.396 303.437 310.168C303.65 312.173 304.03 314.162 304.31 316.159C304.54 317.814 304.644 319.493 304.962 321.127C305.697 324.925 306.629 328.686 307.285 332.496C307.611 334.393 308.179 336.277 308.05 338.245C308.004 338.951 308.183 339.637 308.321 340.334C308.814 342.833 309.395 345.34 309.566 347.872C309.729 350.245 310.448 352.568 310.197 354.975C310.172 355.23 310.197 355.527 310.298 355.761C310.749 356.772 310.694 357.833 310.707 358.894C310.711 359.425 310.682 359.976 310.811 360.478C311.626 363.641 311.781 366.908 312.19 370.125C312.487 372.465 313.135 374.813 312.85 377.22C312.821 377.479 312.834 377.776 312.934 378.005C313.452 379.188 313.335 380.433 313.369 381.67C313.385 382.288 313.377 382.919 313.519 383.512C314.083 385.873 314.125 388.225 313.506 390.578C313.352 391.163 313.519 391.614 314.008 391.957L314.004 391.973Z" fill="#FFB88B"/>
<path d="M248.402 283.289C245.644 283.451 242.949 282.837 240.233 282.549C236.991 282.202 233.765 281.663 230.536 281.208C226.955 280.706 223.374 280.205 219.789 279.704C217.082 279.323 214.374 278.914 211.663 278.567C206.574 277.911 201.806 279.144 197.269 281.296C193.374 283.142 191.49 286.635 190.471 290.625C188.9 296.755 190.809 302.124 194.281 307.109C196.913 310.886 200.432 313.702 204.33 316.017C207.752 318.047 211.358 319.744 215.034 321.273C214.784 322.76 214.796 324.26 214.838 325.76C212.703 325.919 210.626 325.426 208.554 325.063C205.684 324.557 202.951 323.554 200.269 322.376C193.12 319.226 186.965 314.767 181.872 308.843C181.809 308.571 181.634 308.412 181.366 308.354V308.35C181.22 308.145 181.074 307.944 180.928 307.74C179.599 304.247 178.797 300.628 178.312 296.93C178.253 296.492 178.224 296.049 178.208 295.606C178.136 293.839 178.07 292.075 177.831 290.312C177.635 288.833 177.627 287.279 177.844 285.804C178.187 283.51 178.07 281.204 178.262 278.914C178.617 274.686 178.901 270.461 179.519 266.25C180.418 260.099 181.997 254.124 183.514 248.12C185.549 240.056 187.412 231.951 189.397 223.874C189.815 222.169 190.132 220.414 190.997 218.848C192.668 219.14 194.173 219.938 195.777 220.414C203.055 222.583 210.342 224.735 217.65 226.807C227.419 229.582 237.208 232.289 246.998 234.997C249.029 235.561 251.026 236.313 253.178 236.359C253.165 237.153 253.269 237.967 253.123 238.736C252.647 241.272 252.739 243.833 252.697 246.386C252.634 250.356 252.547 254.329 252.622 258.294C252.718 263.237 252.4 268.151 251.928 273.06C251.389 275.02 250.88 276.988 250.307 278.935C249.86 280.464 249.321 281.964 248.402 283.293V283.289Z" fill="#8B8BDF"/>
<path d="M171.021 386.377C171.23 385.875 171.284 385.353 171.192 384.814C170.457 380.485 170.72 376.157 171.338 371.853C172.37 364.654 173.987 357.593 176.695 350.816C177.351 349.174 178.086 347.561 178.83 345.956C179.732 344.018 180.911 342.259 182.436 340.746C184.157 342.167 185.39 344.03 186.835 345.689C189.108 348.292 191.348 350.933 193.47 353.657C194.665 355.19 196.002 355.909 197.991 355.825C200.999 355.7 204.02 355.813 207.033 355.875C208.717 355.909 210.396 356.051 212.076 356.126C212.861 356.16 213.413 356.511 213.768 357.204C214.011 357.676 214.27 358.144 214.508 358.616C216.981 363.522 219.526 368.393 221.878 373.357C222.664 375.016 223.712 375.705 225.476 375.952C229.069 376.453 232.62 377.218 236.201 377.815C239.514 378.367 242.79 379.198 246.175 379.303C247.002 381.141 246.434 382.984 246.078 384.785C245.506 387.668 244.42 390.388 242.982 392.953C239.832 398.585 235.779 403.47 230.84 407.623C228.079 409.946 224.937 411.592 221.46 412.44C215.765 413.828 209.999 414.768 204.087 414.266C199.917 413.915 195.814 413.322 191.979 411.517C191.335 411.216 190.7 410.89 189.948 411.036C189.397 410.602 188.883 410.113 188.293 409.745C185.954 408.296 183.911 406.495 182.06 404.477C181.408 403.766 180.885 402.943 180.267 402.204C177.004 398.33 174.514 394.014 172.613 389.326C172.199 388.307 172.107 387.049 171.017 386.372L171.021 386.377Z" fill="#8A4101"/>
<path d="M253.177 236.356C251.029 236.31 249.032 235.557 246.997 234.993C237.208 232.286 227.418 229.578 217.649 226.804C210.342 224.732 203.055 222.58 195.776 220.411C194.172 219.935 192.668 219.137 190.997 218.845C190.946 218.13 191.063 217.449 191.239 216.751C193.462 207.835 195.609 198.902 197.878 189.998C200.343 180.321 202.9 170.67 205.453 161.014C205.65 160.27 205.721 159.426 206.326 158.824C207.822 159.635 208.946 160.913 210.233 161.979C217.658 168.125 225.216 174.096 232.858 179.966C239.025 184.704 245.272 189.346 251.506 194.001C252.346 194.628 253.139 195.363 254.184 195.685C255.605 197.485 257.489 198.634 259.57 199.512C259.407 201.267 259.929 202.967 259.967 204.705C259.703 205.813 259.357 206.903 259.185 208.027C258.183 214.629 256.808 221.159 255.329 227.665C254.669 230.573 254.18 233.531 253.177 236.356Z" fill="#FEB88B"/>
<path d="M246.183 379.3C242.799 379.2 239.523 378.369 236.21 377.813C232.629 377.215 229.077 376.451 225.484 375.949C223.721 375.703 222.672 375.014 221.887 373.355C219.534 368.391 216.99 363.519 214.516 358.614C214.278 358.138 214.019 357.674 213.777 357.202C213.426 356.508 212.87 356.157 212.085 356.124C210.405 356.049 208.721 355.911 207.041 355.873C204.029 355.81 201.008 355.698 198 355.823C196.011 355.907 194.674 355.188 193.479 353.654C191.356 350.93 189.113 348.294 186.844 345.687C185.394 344.024 184.166 342.16 182.444 340.744C182.937 337.267 183.472 333.787 183.539 330.269C183.602 326.922 183.668 323.563 183.422 320.233C183.18 316.911 182.599 313.61 181.688 310.385C181.546 309.879 181.479 309.353 181.375 308.839H181.629L181.884 308.826C186.973 314.755 193.132 319.209 200.281 322.359C202.963 323.542 205.692 324.541 208.566 325.046C210.635 325.41 212.711 325.903 214.851 325.744C214.926 325.79 215.022 325.823 215.072 325.886C216.66 327.9 218.786 328.238 221.214 328.159C226.161 328 231.116 328.05 236.068 327.979C237.267 327.962 238.307 328.272 239.285 328.974C239.957 329.458 240.43 330.056 240.818 330.762C241.763 332.488 242.301 334.347 242.577 336.286C242.765 337.593 242.953 338.909 243.012 340.23C243.058 341.266 243.576 341.83 244.432 342.252C247.048 343.539 249.668 344.83 252.267 346.155C254.598 347.341 254.891 348.064 253.733 350.312C251.874 353.926 249.918 357.49 248.001 361.075C247.75 361.543 247.503 362.015 247.194 362.445C245.573 364.698 245.473 367.188 245.957 369.799C246.542 372.95 246.492 376.121 246.2 379.296L246.183 379.3Z" fill="#FFB88B"/>
<path d="M398.634 280.608C398.554 278.402 398.592 276.213 398.818 274.007C399.051 271.73 399.031 269.423 398.997 267.129C398.922 261.831 399.586 256.563 399.657 251.273C399.678 249.786 400.155 248.315 399.962 246.802C401.458 244.997 403.434 244.166 405.72 243.949C408.265 243.706 410.725 244.199 412.902 245.411C417.461 247.956 422.379 249.777 426.849 252.497C431.303 255.209 435.795 257.858 440.303 260.482C443.896 262.571 447.536 264.581 451.158 266.611C452.625 267.434 454.079 268.278 455.583 269.018C458.399 270.405 459.139 273.025 458.391 275.712C457.246 279.835 453.369 282.322 450.001 282.23C445.756 282.113 441.494 282.363 437.257 282.104C427.443 281.503 417.62 282.033 407.809 281.62C404.738 281.49 401.629 281.44 398.625 280.613L398.634 280.608Z" fill="#FFB88C"/>
<path d="M248.401 283.289C249.321 281.96 249.855 280.46 250.307 278.931C250.879 276.984 251.389 275.016 251.924 273.057C253.495 273.253 255.074 273.307 256.645 273.579C258.722 273.938 260.844 274.026 262.95 274.227C265.929 274.511 268.908 274.791 271.887 275.071C272.501 275.325 272.777 275.91 273.111 276.408C275.109 279.416 277.891 281.534 280.929 283.364C284.811 285.704 289.064 286.628 293.551 286.515C296.008 286.452 298.478 286.561 300.926 286.122C301.862 285.955 302.856 286.109 303.821 286.122C304.749 288.132 305.677 290.141 306.604 292.155C307.916 295.001 308.535 298.042 309.019 301.105C309.934 306.875 310.987 312.612 312.211 318.324C313.043 322.214 313.72 326.141 314.372 330.069C315.099 334.431 315.755 338.805 316.373 343.184C316.845 346.514 317.188 349.857 317.622 353.191C318.044 356.437 318.516 359.676 318.951 362.918C319.139 364.322 319.323 365.726 319.469 367.134C319.761 369.95 320.062 372.766 320.288 375.59C320.388 376.823 320.213 378.047 319.912 379.276C319.085 382.643 317.998 385.911 316.544 389.057C315.984 390.273 315.366 391.459 313.995 391.977C313.507 391.635 313.34 391.184 313.494 390.599C314.112 388.246 314.071 385.894 313.507 383.533C313.365 382.94 313.373 382.305 313.356 381.691C313.323 380.454 313.444 379.209 312.922 378.026C312.821 377.797 312.805 377.496 312.838 377.241C313.122 374.834 312.475 372.486 312.178 370.146C311.768 366.933 311.614 363.662 310.799 360.499C310.67 359.993 310.699 359.442 310.695 358.915C310.682 357.854 310.736 356.788 310.285 355.781C310.181 355.552 310.156 355.255 310.185 354.996C310.436 352.589 309.721 350.266 309.554 347.893C309.379 345.361 308.798 342.854 308.309 340.355C308.171 339.658 307.991 338.972 308.037 338.266C308.171 336.298 307.599 334.414 307.273 332.517C306.617 328.707 305.689 324.946 304.95 321.148C304.632 319.51 304.528 317.835 304.298 316.18C304.018 314.179 303.642 312.194 303.425 310.189C303.237 308.421 302.718 306.75 302.284 305.041C301.866 303.399 301.106 301.907 300.554 300.332C300.203 299.334 299.739 298.377 299.342 297.399C298.557 295.469 297.374 293.906 295.569 292.753C293.56 291.466 291.642 290.054 289.298 289.385C288.024 289.022 286.766 288.733 285.429 288.595C282.897 288.332 280.394 287.806 277.883 287.384C277.795 287.371 277.716 287.3 277.632 287.3C274.524 287.329 271.616 285.967 268.507 285.988C266.054 285.128 263.41 285.775 260.924 285.015C259.766 284.66 258.492 284.881 257.255 284.635C254.33 284.054 251.351 283.732 248.393 283.306L248.401 283.289Z" fill="#E9A57A"/>
<path d="M186.564 414.217C183.539 416.623 179.962 417.643 176.222 417.898C165.355 418.65 154.483 419.314 143.59 419.623C140.758 419.703 137.929 419.878 135.096 419.987C134.302 420.016 133.517 420.02 132.744 419.711C130.738 418.909 129.811 417.484 130.032 415.366C130.153 414.212 130.475 413.109 131.006 412.073C132.305 409.516 133.993 407.264 136.178 405.396C138.272 403.604 140.536 402.058 143.022 400.859C151.312 396.86 159.51 392.678 167.574 388.241C167.724 388.157 167.908 388.136 168.075 388.086C168.108 389.143 167.983 390.238 168.2 391.257C168.823 394.199 169.855 397.015 171.238 399.681C173.661 404.356 176.933 408.384 180.91 411.81C182.502 413.185 184.19 414.572 186.564 414.212V414.217Z" fill="#8A4202"/>
<path d="M285.496 378.396C285.989 378.572 286.516 378.681 286.708 379.286C287.464 381.639 287.949 384.033 287.807 386.523C287.761 387.309 287.368 387.831 286.67 388.161C285.087 388.917 283.591 389.862 281.882 390.363C280.954 390.635 280.064 391.023 279.137 391.295C275.41 392.389 271.833 393.839 268.42 395.686C267.496 396.187 266.581 396.76 265.457 396.66C263.661 396.1 262.566 394.687 261.471 393.309C260.556 392.155 260.539 390.885 261.287 389.598C262.336 387.793 263.798 386.423 265.629 385.441C269.606 383.31 273.743 381.534 278.063 380.247C280.507 379.52 282.935 378.676 285.496 378.396Z" fill="#E9A57B"/>
<path d="M186.563 414.219C184.19 414.578 182.502 413.191 180.91 411.816C176.932 408.39 173.665 404.358 171.238 399.687C169.855 397.021 168.818 394.201 168.2 391.264C167.983 390.244 168.108 389.154 168.075 388.092C168.814 387.106 169.842 386.609 171.02 386.375C172.111 387.052 172.207 388.31 172.616 389.329C174.517 394.017 177.008 398.333 180.271 402.206C180.893 402.946 181.416 403.769 182.063 404.479C183.914 406.497 185.957 408.298 188.297 409.748C188.886 410.116 189.4 410.605 189.952 411.039C189.204 412.506 188.109 413.605 186.559 414.219H186.563Z" fill="#62330A"/>
<path d="M180.936 307.732C181.082 307.937 181.228 308.138 181.374 308.342C181.086 308.242 180.948 308.033 180.936 307.732Z" fill="#DBC5C9"/>
<path d="M181.876 308.834L181.621 308.847H181.366C181.324 308.68 181.324 308.517 181.366 308.35C181.637 308.408 181.809 308.567 181.871 308.838L181.876 308.834Z" fill="#DBC5C9"/>
<path d="M259.569 199.514C257.493 198.637 255.608 197.487 254.184 195.687C254.773 192.754 254.952 189.758 255.445 186.82C255.78 184.823 255.771 182.797 256.218 180.808C256.674 178.761 256.795 176.63 256.933 174.524C257.021 173.183 257.459 171.942 257.723 170.651C257.773 170.404 257.957 170.174 258.107 169.961C258.391 169.556 258.809 169.452 259.273 169.523C259.766 169.598 260.067 169.903 260.096 170.4C260.138 171.106 260.15 171.812 260.15 172.518C260.15 179.772 260.121 187.025 260.142 194.279C260.146 196.054 260.108 197.805 259.565 199.514H259.569Z" fill="#4A4B45"/>
</svg>
