<svg width="500" height="500" viewBox="0 0 500 500" fill="none" xmlns="http://www.w3.org/2000/svg">
<path d="M398.634 300.607C393.515 300.916 388.393 301.221 383.275 301.53C382.832 301.555 382.393 301.593 381.95 301.618C374.354 302.023 366.762 302.416 359.166 302.834C349.719 303.356 340.268 303.882 330.821 304.442C323.935 304.852 317.05 305.311 310.168 305.758C308.054 305.896 305.915 305.683 303.817 306.122C302.852 306.114 301.858 305.959 300.922 306.122C298.473 306.556 296.004 306.452 293.547 306.515C289.06 306.628 284.81 305.704 280.925 303.364C277.887 301.534 275.104 299.416 273.107 296.408C272.777 295.91 272.497 295.325 271.883 295.071C272.029 294.506 271.745 294.051 271.524 293.571C270.233 290.746 269.267 287.809 268.728 284.754C268.097 281.19 267.592 277.601 267.019 274.025C266.255 269.228 265.57 264.415 264.696 259.635C263.397 252.498 262.666 245.291 261.759 238.104C261.195 233.634 260.777 229.146 259.958 224.713C259.921 222.975 259.398 221.27 259.561 219.52C260.104 217.815 260.146 216.06 260.138 214.284C260.117 207.031 260.138 199.778 260.146 192.524C260.146 191.818 260.134 191.108 260.092 190.406C260.063 189.909 259.762 189.604 259.269 189.528C258.805 189.457 258.387 189.562 258.103 189.967C257.953 190.184 257.769 190.41 257.719 190.656C257.456 191.948 257.013 193.188 256.929 194.53C256.795 196.631 256.674 198.766 256.215 200.814C255.767 202.807 255.776 204.829 255.442 206.826C254.953 209.764 254.769 212.759 254.18 215.692C253.139 215.371 252.341 214.635 251.502 214.009C245.268 209.354 239.025 204.712 232.854 199.974C225.212 194.104 217.649 188.133 210.229 181.987C208.942 180.921 207.818 179.643 206.322 178.832C206.092 176.68 206.565 174.6 206.932 172.506C208.119 165.758 210.007 159.219 212.865 152.986C216.028 146.079 220.119 139.787 225.609 134.484C231.613 128.689 238.624 124.72 246.88 123.14C255.621 121.469 264.32 121.553 272.944 123.938C275.334 124.599 277.737 125.213 280.127 125.86C285.809 127.402 290.66 130.436 295.076 134.225C299.702 138.19 303.408 142.916 306.424 148.189C308.94 152.584 310.887 157.218 312.408 162.065C315.174 170.902 316.791 179.939 317.681 189.136C319.155 204.336 319.41 219.566 318.796 234.816C318.587 240.039 318.395 245.266 318.119 250.489C317.91 254.471 317.58 258.444 317.305 262.422C317.267 262.948 317.221 263.479 317.217 264.01C317.217 264.419 317.488 264.67 317.869 264.711C318.303 264.762 318.75 264.766 319.185 264.724C324.942 264.206 330.7 264.54 336.453 264.812C337.427 264.858 338.4 264.925 339.374 264.954C350.003 265.23 360.637 265.459 371.266 265.781C380.83 266.074 390.394 266.466 399.958 266.813C400.15 268.326 399.67 269.792 399.653 271.284C399.582 276.578 398.918 281.842 398.993 287.14C399.027 289.434 399.043 291.74 398.813 294.018C398.588 296.224 398.55 298.413 398.63 300.619L398.634 300.607Z" fill="#696D65"/>
<path d="M314.004 411.973C313.101 413.118 312.725 414.489 312.341 415.851C311.81 417.731 311.129 419.544 310.277 421.303C309.688 422.519 308.902 423.572 307.908 424.475C305.501 426.656 302.789 428.21 299.539 428.799C295.878 429.463 292.235 430.065 288.487 430.002C285.667 429.956 282.859 430.487 280.014 430.466C277.256 430.449 274.557 429.931 271.82 429.756C270.872 429.693 269.898 429.501 268.937 429.376C265.895 428.966 263.376 427.7 261.767 424.93C261.182 423.923 261.09 422.941 261.508 421.888C262.006 420.639 262.716 419.536 263.702 418.6C264.333 417.998 265.177 417.58 265.461 416.661C266.589 416.761 267.5 416.189 268.423 415.688C271.841 413.841 275.413 412.391 279.14 411.296C280.068 411.025 280.958 410.632 281.886 410.365C283.594 409.867 285.09 408.923 286.674 408.163C287.367 407.833 287.764 407.31 287.81 406.525C287.952 404.035 287.468 401.64 286.711 399.288C286.519 398.686 285.993 398.574 285.5 398.398C286.427 397.667 286.294 396.702 286.076 395.724C285.391 392.62 284.71 389.515 284.016 386.411C281.886 376.843 279.755 367.275 277.611 357.711C276.725 353.745 275.835 349.78 274.895 345.828C274.674 344.888 274.219 344.006 273.922 343.078C273.42 341.516 272.238 340.876 270.734 340.693C270.12 340.617 269.497 340.63 268.879 340.63C258.074 340.63 247.269 340.513 236.464 340.713C232.67 340.785 228.868 340.964 225.066 340.989C224.184 340.993 223.303 340.893 222.425 340.83C222.074 340.805 221.702 340.659 221.381 340.734C219.287 341.215 217.14 340.964 215.038 341.269C211.357 339.74 207.751 338.044 204.333 336.013C200.431 333.698 196.917 330.882 194.285 327.105C190.813 322.12 188.903 316.756 190.474 310.622C191.498 306.632 193.378 303.143 197.272 301.292C201.806 299.14 206.577 297.912 211.666 298.563C214.378 298.91 217.085 299.32 219.793 299.7C223.374 300.201 226.954 300.703 230.539 301.204C233.773 301.66 236.995 302.199 240.237 302.545C242.953 302.834 245.648 303.448 248.405 303.285C251.364 303.711 254.338 304.033 257.267 304.614C258.504 304.86 259.779 304.639 260.936 304.994C263.422 305.754 266.063 305.107 268.519 305.967C271.628 305.946 274.536 307.309 277.645 307.279C277.728 307.279 277.808 307.35 277.895 307.363C280.411 307.785 282.913 308.315 285.441 308.575C286.778 308.712 288.036 309.001 289.31 309.364C291.654 310.037 293.572 311.445 295.582 312.732C297.387 313.885 298.565 315.448 299.355 317.378C299.756 318.36 300.22 319.313 300.566 320.311C301.118 321.891 301.878 323.378 302.296 325.02C302.731 326.729 303.249 328.396 303.437 330.168C303.65 332.173 304.03 334.162 304.31 336.159C304.54 337.814 304.644 339.493 304.962 341.127C305.697 344.925 306.629 348.686 307.285 352.496C307.611 354.393 308.179 356.277 308.05 358.245C308.004 358.951 308.183 359.637 308.321 360.334C308.814 362.833 309.395 365.34 309.566 367.872C309.729 370.245 310.448 372.568 310.197 374.975C310.172 375.23 310.197 375.527 310.298 375.761C310.749 376.772 310.694 377.833 310.707 378.894C310.711 379.425 310.682 379.976 310.811 380.478C311.626 383.641 311.781 386.908 312.19 390.125C312.487 392.465 313.135 394.813 312.85 397.22C312.821 397.479 312.834 397.776 312.934 398.005C313.452 399.188 313.335 400.433 313.369 401.67C313.385 402.288 313.377 402.919 313.519 403.512C314.083 405.873 314.125 408.225 313.506 410.578C313.352 411.163 313.519 411.614 314.008 411.957L314.004 411.973Z" fill="#FFB88B"/>
<path d="M248.402 303.289C245.644 303.451 242.949 302.837 240.233 302.549C236.991 302.202 233.765 301.663 230.536 301.208C226.955 300.706 223.374 300.205 219.789 299.704C217.082 299.323 214.374 298.914 211.663 298.567C206.574 297.911 201.806 299.144 197.269 301.296C193.374 303.142 191.49 306.635 190.471 310.625C188.9 316.755 190.809 322.124 194.281 327.109C196.913 330.886 200.432 333.702 204.33 336.017C207.752 338.047 211.358 339.744 215.034 341.273C214.784 342.76 214.796 344.26 214.838 345.76C212.703 345.919 210.626 345.426 208.554 345.063C205.684 344.557 202.951 343.554 200.269 342.376C193.12 339.226 186.965 334.767 181.872 328.843C181.809 328.571 181.634 328.412 181.366 328.354V328.35C181.22 328.145 181.074 327.944 180.928 327.74C179.599 324.247 178.797 320.628 178.312 316.93C178.253 316.492 178.224 316.049 178.208 315.606C178.136 313.839 178.07 312.075 177.831 310.312C177.635 308.833 177.627 307.279 177.844 305.804C178.187 303.51 178.07 301.204 178.262 298.914C178.617 294.686 178.901 290.461 179.519 286.25C180.418 280.099 181.997 274.124 183.514 268.12C185.549 260.056 187.412 251.951 189.397 243.874C189.815 242.169 190.132 240.414 190.997 238.848C192.668 239.14 194.173 239.938 195.777 240.414C203.055 242.583 210.342 244.735 217.65 246.807C227.419 249.582 237.208 252.289 246.998 254.997C249.029 255.561 251.026 256.313 253.178 256.359C253.165 257.153 253.269 257.967 253.123 258.736C252.647 261.272 252.739 263.833 252.697 266.386C252.634 270.356 252.547 274.329 252.622 278.294C252.718 283.237 252.4 288.151 251.928 293.06C251.389 295.02 250.88 296.988 250.307 298.935C249.86 300.464 249.321 301.964 248.402 303.293V303.289Z" fill="#8B8BDF"/>
<path d="M171.021 406.377C171.23 405.875 171.284 405.353 171.192 404.814C170.457 400.485 170.72 396.157 171.338 391.853C172.37 384.654 173.987 377.593 176.695 370.816C177.351 369.174 178.086 367.561 178.83 365.956C179.732 364.018 180.911 362.259 182.436 360.746C184.157 362.167 185.39 364.03 186.835 365.689C189.108 368.292 191.348 370.933 193.47 373.657C194.665 375.19 196.002 375.909 197.991 375.825C200.999 375.7 204.02 375.813 207.033 375.875C208.717 375.909 210.396 376.051 212.076 376.126C212.861 376.16 213.413 376.511 213.768 377.204C214.011 377.676 214.27 378.144 214.508 378.616C216.981 383.522 219.526 388.393 221.878 393.357C222.664 395.016 223.712 395.705 225.476 395.952C229.069 396.453 232.62 397.218 236.201 397.815C239.514 398.367 242.79 399.198 246.175 399.303C247.002 401.141 246.434 402.984 246.078 404.785C245.506 407.668 244.42 410.388 242.982 412.953C239.832 418.585 235.779 423.47 230.84 427.623C228.079 429.946 224.937 431.592 221.46 432.44C215.765 433.828 209.999 434.768 204.087 434.266C199.917 433.915 195.814 433.322 191.979 431.517C191.335 431.216 190.7 430.89 189.948 431.036C189.397 430.602 188.883 430.113 188.293 429.745C185.954 428.296 183.911 426.495 182.06 424.477C181.408 423.766 180.885 422.943 180.267 422.204C177.004 418.33 174.514 414.014 172.613 409.326C172.199 408.307 172.107 407.049 171.017 406.372L171.021 406.377Z" fill="#8A4101"/>
<path d="M253.177 256.356C251.029 256.31 249.032 255.557 246.997 254.993C237.208 252.286 227.418 249.578 217.649 246.804C210.342 244.732 203.055 242.58 195.776 240.411C194.172 239.935 192.668 239.137 190.997 238.845C190.946 238.13 191.063 237.449 191.239 236.751C193.462 227.835 195.609 218.902 197.878 209.998C200.343 200.321 202.9 190.67 205.453 181.014C205.65 180.27 205.721 179.426 206.326 178.824C207.822 179.635 208.946 180.913 210.233 181.979C217.658 188.125 225.216 194.096 232.858 199.966C239.025 204.704 245.272 209.346 251.506 214.001C252.346 214.628 253.139 215.363 254.184 215.685C255.605 217.485 257.489 218.634 259.57 219.512C259.407 221.267 259.929 222.967 259.967 224.705C259.703 225.813 259.357 226.903 259.185 228.027C258.183 234.629 256.808 241.159 255.329 247.665C254.669 250.573 254.18 253.531 253.177 256.356Z" fill="#FEB88B"/>
<path d="M246.183 399.3C242.799 399.2 239.523 398.369 236.21 397.813C232.629 397.215 229.077 396.451 225.484 395.949C223.721 395.703 222.672 395.014 221.887 393.355C219.534 388.391 216.99 383.519 214.516 378.614C214.278 378.138 214.019 377.674 213.777 377.202C213.426 376.508 212.87 376.157 212.085 376.124C210.405 376.049 208.721 375.911 207.041 375.873C204.029 375.81 201.008 375.698 198 375.823C196.011 375.907 194.674 375.188 193.479 373.654C191.356 370.93 189.113 368.294 186.844 365.687C185.394 364.024 184.166 362.16 182.444 360.744C182.937 357.267 183.472 353.787 183.539 350.269C183.602 346.922 183.668 343.563 183.422 340.233C183.18 336.911 182.599 333.61 181.688 330.385C181.546 329.879 181.479 329.353 181.375 328.839H181.629L181.884 328.826C186.973 334.755 193.132 339.209 200.281 342.359C202.963 343.542 205.692 344.541 208.566 345.046C210.635 345.41 212.711 345.903 214.851 345.744C214.926 345.79 215.022 345.823 215.072 345.886C216.66 347.9 218.786 348.238 221.214 348.159C226.161 348 231.116 348.05 236.068 347.979C237.267 347.962 238.307 348.272 239.285 348.974C239.957 349.458 240.43 350.056 240.818 350.762C241.763 352.488 242.301 354.347 242.577 356.286C242.765 357.593 242.953 358.909 243.012 360.23C243.058 361.266 243.576 361.83 244.432 362.252C247.048 363.539 249.668 364.83 252.267 366.155C254.598 367.341 254.891 368.064 253.733 370.312C251.874 373.926 249.918 377.49 248.001 381.075C247.75 381.543 247.503 382.015 247.194 382.445C245.573 384.698 245.473 387.188 245.957 389.799C246.542 392.95 246.492 396.121 246.2 399.296L246.183 399.3Z" fill="#FFB88B"/>
<path d="M398.634 300.608C398.554 298.402 398.592 296.213 398.818 294.007C399.051 291.73 399.031 289.423 398.997 287.129C398.922 281.831 399.586 276.563 399.657 271.273C399.678 269.786 400.155 268.315 399.962 266.802C401.458 264.997 403.434 264.166 405.72 263.949C408.265 263.706 410.725 264.199 412.902 265.411C417.461 267.956 422.379 269.777 426.849 272.497C431.303 275.209 435.795 277.858 440.303 280.482C443.896 282.571 447.536 284.581 451.158 286.611C452.625 287.434 454.079 288.278 455.583 289.018C458.399 290.405 459.139 293.025 458.391 295.712C457.246 299.835 453.369 302.322 450.001 302.23C445.756 302.113 441.494 302.363 437.257 302.104C427.443 301.503 417.62 302.033 407.809 301.62C404.738 301.49 401.629 301.44 398.625 300.613L398.634 300.608Z" fill="#FFB88C"/>
<path d="M248.401 303.289C249.321 301.96 249.855 300.46 250.307 298.931C250.879 296.984 251.389 295.016 251.924 293.057C253.495 293.253 255.074 293.307 256.645 293.579C258.722 293.938 260.844 294.026 262.95 294.227C265.929 294.511 268.908 294.791 271.887 295.071C272.501 295.325 272.777 295.91 273.111 296.408C275.109 299.416 277.891 301.534 280.929 303.364C284.811 305.704 289.064 306.628 293.551 306.515C296.008 306.452 298.478 306.561 300.926 306.122C301.862 305.955 302.856 306.109 303.821 306.122C304.749 308.132 305.677 310.141 306.604 312.155C307.916 315.001 308.535 318.042 309.019 321.105C309.934 326.875 310.987 332.612 312.211 338.324C313.043 342.214 313.72 346.141 314.372 350.069C315.099 354.431 315.755 358.805 316.373 363.184C316.845 366.514 317.188 369.857 317.622 373.191C318.044 376.437 318.516 379.676 318.951 382.918C319.139 384.322 319.323 385.726 319.469 387.134C319.761 389.95 320.062 392.766 320.288 395.59C320.388 396.823 320.213 398.047 319.912 399.276C319.085 402.643 317.998 405.911 316.544 409.057C315.984 410.273 315.366 411.459 313.995 411.977C313.507 411.635 313.34 411.184 313.494 410.599C314.112 408.246 314.071 405.894 313.507 403.533C313.365 402.94 313.373 402.305 313.356 401.691C313.323 400.454 313.444 399.209 312.922 398.026C312.821 397.797 312.805 397.496 312.838 397.241C313.122 394.834 312.475 392.486 312.178 390.146C311.768 386.933 311.614 383.662 310.799 380.499C310.67 379.993 310.699 379.442 310.695 378.915C310.682 377.854 310.736 376.788 310.285 375.781C310.181 375.552 310.156 375.255 310.185 374.996C310.436 372.589 309.721 370.266 309.554 367.893C309.379 365.361 308.798 362.854 308.309 360.355C308.171 359.658 307.991 358.972 308.037 358.266C308.171 356.298 307.599 354.414 307.273 352.517C306.617 348.707 305.689 344.946 304.95 341.148C304.632 339.51 304.528 337.835 304.298 336.18C304.018 334.179 303.642 332.194 303.425 330.189C303.237 328.421 302.718 326.75 302.284 325.041C301.866 323.399 301.106 321.907 300.554 320.332C300.203 319.334 299.739 318.377 299.342 317.399C298.557 315.469 297.374 313.906 295.569 312.753C293.56 311.466 291.642 310.054 289.298 309.385C288.024 309.022 286.766 308.733 285.429 308.595C282.897 308.332 280.394 307.806 277.883 307.384C277.795 307.371 277.716 307.3 277.632 307.3C274.524 307.329 271.616 305.967 268.507 305.988C266.054 305.128 263.41 305.775 260.924 305.015C259.766 304.66 258.492 304.881 257.255 304.635C254.33 304.054 251.351 303.732 248.393 303.306L248.401 303.289Z" fill="#E9A57A"/>
<path d="M186.564 434.217C183.539 436.623 179.962 437.643 176.222 437.898C165.355 438.65 154.483 439.314 143.59 439.623C140.758 439.703 137.929 439.878 135.096 439.987C134.302 440.016 133.517 440.02 132.744 439.711C130.738 438.909 129.811 437.484 130.032 435.366C130.153 434.212 130.475 433.109 131.006 432.073C132.305 429.516 133.993 427.264 136.178 425.396C138.272 423.604 140.536 422.058 143.022 420.859C151.312 416.86 159.51 412.678 167.574 408.241C167.724 408.157 167.908 408.136 168.075 408.086C168.108 409.143 167.983 410.238 168.2 411.257C168.823 414.199 169.855 417.015 171.238 419.681C173.661 424.356 176.933 428.384 180.91 431.81C182.502 433.185 184.19 434.572 186.564 434.212V434.217Z" fill="#8A4202"/>
<path d="M285.496 398.396C285.989 398.572 286.516 398.681 286.708 399.286C287.464 401.639 287.949 404.033 287.807 406.523C287.761 407.309 287.368 407.831 286.67 408.161C285.087 408.917 283.591 409.862 281.882 410.363C280.954 410.635 280.064 411.023 279.137 411.295C275.41 412.389 271.833 413.839 268.42 415.686C267.496 416.187 266.581 416.76 265.457 416.66C263.661 416.1 262.566 414.687 261.471 413.309C260.556 412.155 260.539 410.885 261.287 409.598C262.336 407.793 263.798 406.423 265.629 405.441C269.606 403.31 273.743 401.534 278.063 400.247C280.507 399.52 282.935 398.676 285.496 398.396Z" fill="#E9A57B"/>
<path d="M186.563 434.219C184.19 434.578 182.502 433.191 180.91 431.816C176.932 428.39 173.665 424.358 171.238 419.687C169.855 417.021 168.818 414.201 168.2 411.264C167.983 410.244 168.108 409.154 168.075 408.092C168.814 407.106 169.842 406.609 171.02 406.375C172.111 407.052 172.207 408.31 172.616 409.329C174.517 414.017 177.008 418.333 180.271 422.206C180.893 422.946 181.416 423.769 182.063 424.479C183.914 426.497 185.957 428.298 188.297 429.748C188.886 430.116 189.4 430.605 189.952 431.039C189.204 432.506 188.109 433.605 186.559 434.219H186.563Z" fill="#62330A"/>
<path d="M180.936 327.732C181.082 327.937 181.228 328.138 181.374 328.342C181.086 328.242 180.948 328.033 180.936 327.732Z" fill="#DBC5C9"/>
<path d="M181.876 328.834L181.621 328.847H181.366C181.324 328.68 181.324 328.517 181.366 328.35C181.637 328.408 181.809 328.567 181.871 328.838L181.876 328.834Z" fill="#DBC5C9"/>
<path d="M259.569 219.514C257.493 218.637 255.608 217.487 254.184 215.687C254.773 212.754 254.952 209.758 255.445 206.82C255.78 204.823 255.771 202.797 256.218 200.808C256.674 198.761 256.795 196.63 256.933 194.524C257.021 193.183 257.459 191.942 257.723 190.651C257.773 190.404 257.957 190.174 258.107 189.961C258.391 189.556 258.809 189.452 259.273 189.523C259.766 189.598 260.067 189.903 260.096 190.4C260.138 191.106 260.15 191.812 260.15 192.518C260.15 199.772 260.121 207.025 260.142 214.279C260.146 216.054 260.108 217.805 259.565 219.514H259.569Z" fill="#4A4B45"/>
</svg>
