<svg width="500" height="500" viewBox="0 0 500 500" fill="none" xmlns="http://www.w3.org/2000/svg">
<path d="M265.359 215.384C268.068 217.435 270.084 219.025 270.779 222.465C270.892 225.057 270.843 227.599 270.735 230.191C270.714 231.161 270.693 232.13 270.672 233.128C270.596 236.215 270.481 239.298 270.359 242.384C270.325 243.35 270.292 244.317 270.258 245.313C270.015 252.366 269.682 259.413 269.335 266.462C269.227 268.729 269.12 270.996 269.013 273.263C268.732 279.191 268.446 285.119 268.157 291.047C267.872 296.942 267.592 302.837 267.312 308.731C266.928 316.789 266.542 324.846 266.151 332.904C265.683 342.575 265.224 352.248 264.783 361.921C264.65 364.821 264.516 367.722 264.382 370.622C264.3 372.429 264.219 374.235 264.138 376.042C264.029 378.507 263.916 380.972 263.801 383.438C263.771 384.146 263.741 384.855 263.71 385.585C263.139 397.603 263.139 397.603 260.359 400.384C258.479 400.611 258.479 400.611 256.226 400.579C255.017 400.569 255.017 400.569 253.784 400.56C252.943 400.543 252.101 400.526 251.234 400.509C250.384 400.5 249.535 400.491 248.659 400.481C246.559 400.458 244.459 400.422 242.359 400.384C233.902 381.668 230.047 358.008 233.359 337.759C236.837 315.337 237.489 275.907 224.359 256.384C221.634 254.663 218.873 254.16 215.726 253.599C214.846 253.411 213.966 253.223 213.06 253.03C210.125 252.418 207.182 251.868 204.234 251.321C202.149 250.908 200.065 250.494 197.981 250.079C161.626 243.002 124.428 237.425 87.3585 236.384C86.7482 232.992 86.2326 229.746 86.2609 226.298C86.2641 225.595 86.2673 224.893 86.2706 224.169C86.279 223.456 86.2874 222.743 86.296 222.009C86.3005 221.273 86.3051 220.537 86.3097 219.778C86.3214 217.98 86.3393 216.182 86.3585 214.384C97.3371 210.494 108.611 209.994 120.171 210.009C120.829 210.009 121.486 210.009 122.164 210.008C132.661 210.036 141.405 211.209 151.359 214.384C154.389 215.164 157.434 215.87 160.484 216.571C161.183 216.738 161.883 216.905 162.604 217.076C175.751 220.183 188.192 219.665 201.489 218.095C207.002 217.463 212.36 217.25 217.913 217.509C221.437 217.329 224.289 216.532 226.737 213.903C236.899 204.379 255.171 208.551 265.359 215.384Z" fill="#686C64"/>
<path d="M355.671 75.9463C359.359 76.3838 359.359 76.3838 362.109 78.5088C367.71 85.6662 367.793 91.428 367.671 100.259C367.675 101.385 367.678 102.512 367.681 103.673C367.638 110.589 367.064 117.287 366.132 124.138C365.051 132.297 364.676 140.48 364.296 148.696C364.255 149.543 364.214 150.389 364.172 151.261C363.373 167.791 362.967 184.323 362.631 200.867C362.37 213.714 361.931 226.547 361.359 239.384C359.789 240.015 358.218 240.645 356.648 241.274C355.336 241.801 355.336 241.801 353.998 242.338C350.469 243.736 346.918 245.066 343.359 246.384C345.327 248.352 346.549 249.037 349.054 250.11C349.77 250.42 350.485 250.729 351.222 251.048C352.342 251.524 352.342 251.524 353.484 252.009C354.238 252.334 354.992 252.658 355.769 252.993C357.631 253.794 359.494 254.59 361.359 255.384C361.385 262.239 361.403 269.095 361.415 275.951C361.419 278.363 361.425 280.775 361.431 283.188C361.464 296.643 361.335 310.014 360.546 323.446C359.945 334.998 361.604 345.501 364.023 356.774C365.651 364.426 366.514 372.123 367.282 379.902C368.181 388.451 369.502 398.098 374.359 405.384C378.128 407.668 382.651 408.04 386.957 408.724C389.723 409.484 391.305 410.382 393.359 412.384C393.609 416.071 393.609 416.071 393.359 419.384C387.163 422.039 381.581 422.588 374.921 422.634C373.814 422.665 373.814 422.665 372.685 422.696C367.804 422.731 364.6 422.032 360.359 419.384C359.478 418.875 358.598 418.365 357.691 417.841C354.156 414.117 353.334 409.963 352.046 405.071C351.757 404.029 351.468 402.987 351.17 401.913C350.208 398.409 349.279 394.898 348.359 391.384C348.193 390.751 348.027 390.118 347.856 389.466C346.119 382.831 344.406 376.19 342.712 369.544C338.888 354.274 338.888 354.274 334.289 339.228C331.541 327.867 332.202 315.783 332.229 304.161C332.234 301.361 332.229 298.562 332.222 295.763C332.223 293.97 332.224 292.177 332.226 290.384C332.224 289.554 332.222 288.723 332.22 287.868C332.236 283.906 332.377 280.251 333.359 276.384C332.06 276.466 330.76 276.549 329.421 276.634C322.427 276.645 316.729 273.722 311.359 269.384C310.369 269.054 309.379 268.724 308.359 268.384C308.245 258.246 308.373 248.139 308.796 238.009C308.836 237.017 308.875 236.025 308.915 235.003C308.957 234.069 308.999 233.135 309.042 232.173C309.079 231.345 309.116 230.517 309.154 229.664C309.351 227.474 309.763 225.496 310.359 223.384C311.121 223.335 311.883 223.286 312.667 223.235C318.396 222.821 323.857 222.23 329.421 220.786C331.359 220.384 331.359 220.384 335.359 220.384C335.414 219.79 335.47 219.195 335.527 218.583C335.782 215.85 336.039 213.117 336.296 210.384C336.383 209.449 336.47 208.515 336.56 207.552C336.942 203.507 337.345 199.487 337.902 195.462C338.602 190.044 338.598 184.589 338.734 179.134C339.189 164.187 339.784 148.6 342.877 133.926C343.44 130.955 343.625 128.063 343.789 125.044C343.862 123.815 343.936 122.586 344.011 121.319C344.158 118.773 344.298 116.226 344.433 113.679C344.899 106.084 345.909 98.8907 347.638 91.4783C348.503 87.7637 349.179 84.0308 349.832 80.2744C350.814 76.7509 352.145 76.4121 355.671 75.9463Z" fill="#F7BB93"/>
<path d="M354.292 273.321C354.976 273.326 355.661 273.33 356.365 273.335C358.03 273.347 359.694 273.365 361.359 273.384C361.384 277.674 361.403 281.965 361.414 286.255C361.419 287.802 361.425 289.349 361.431 290.896C361.466 300.221 361.296 309.468 360.746 318.777C359.998 332.032 361.245 343.815 364.023 356.774C365.651 364.427 366.514 372.123 367.282 379.902C368.181 388.451 369.502 398.098 374.359 405.384C378.128 407.668 382.651 408.04 386.956 408.724C389.723 409.484 391.305 410.382 393.359 412.384C393.609 416.071 393.609 416.071 393.359 419.384C387.163 422.039 381.581 422.588 374.921 422.634C374.183 422.654 373.445 422.675 372.685 422.696C367.804 422.731 364.6 422.032 360.359 419.384C359.478 418.875 358.598 418.366 357.691 417.841C354.156 414.117 353.334 409.963 352.046 405.071C351.757 404.029 351.468 402.987 351.17 401.913C350.208 398.409 349.279 394.899 348.359 391.384C348.193 390.751 348.027 390.118 347.856 389.467C346.119 382.832 344.406 376.19 342.711 369.544C338.888 354.275 338.888 354.275 334.288 339.228C331.548 327.897 332.172 315.812 332.173 304.216C332.171 301.427 332.153 298.639 332.134 295.851C332.131 294.061 332.129 292.271 332.128 290.482C332.121 289.656 332.114 288.831 332.106 287.981C332.125 283.384 332.604 279.712 334.359 275.384C341.051 273.988 347.445 273.261 354.292 273.321Z" fill="#F7BB93"/>
<path d="M361.359 219.384C361.359 225.984 361.359 232.584 361.359 239.384C355.383 241.79 349.4 244.146 343.359 246.384C345.327 248.352 346.549 249.036 349.054 250.11C349.699 250.389 350.344 250.669 351.008 250.956C351.825 251.304 352.642 251.651 353.484 252.009C356.083 253.122 358.681 254.236 361.359 255.384C361.359 261.324 361.359 267.264 361.359 273.384C359.829 273.516 358.299 273.649 356.722 273.786C354.705 273.964 352.688 274.143 350.671 274.321C349.16 274.452 349.16 274.452 347.619 274.585C346.154 274.715 346.154 274.715 344.66 274.848C343.764 274.927 342.869 275.006 341.946 275.086C339.375 275.382 336.891 275.857 334.359 276.384C325.329 277.296 318.419 275.086 311.359 269.384C310.369 269.054 309.379 268.724 308.359 268.384C308.245 258.246 308.373 248.139 308.796 238.009C308.836 237.017 308.875 236.025 308.915 235.002C308.957 234.069 308.999 233.135 309.042 232.173C309.079 231.345 309.116 230.517 309.154 229.663C309.351 227.474 309.763 225.496 310.359 223.384C311.074 223.346 311.79 223.309 312.527 223.27C317.899 222.916 322.81 222.326 327.984 220.821C338.779 218.086 350.315 219.161 361.359 219.384Z" fill="#8B8AD8"/>
<path d="M415.358 229.384C421.35 229.683 425.129 232.371 429.358 236.384C432.627 240.456 433.871 244.128 433.358 249.384C434.142 249.652 434.926 249.92 435.733 250.196C438.358 251.384 438.358 251.384 440.358 254.384C440.8 256.583 440.8 256.583 440.921 259.071C440.984 259.88 441.047 260.688 441.112 261.521C439.693 266.913 435.731 270.813 431.147 273.848C428.791 275.13 426.409 276.303 423.983 277.446C414.051 282.425 406.297 286.767 400.647 296.661C400.222 297.23 399.797 297.798 399.358 298.384C398.368 298.384 397.378 298.384 396.358 298.384C394.857 289.561 394.732 282.694 398.358 274.384C397.816 273.997 397.273 273.61 396.714 273.212C395.998 272.691 395.283 272.17 394.546 271.634C393.484 270.868 393.484 270.868 392.401 270.087C388.272 266.645 386.324 263.244 385.827 257.907C386.983 252.418 392.045 248.634 396.358 245.384C399.017 244.205 399.942 244.246 402.718 245.161C403.901 245.735 403.901 245.735 405.108 246.321C405.908 246.702 406.707 247.082 407.53 247.474C408.134 247.774 408.737 248.074 409.358 248.384C409.624 247.264 409.889 246.143 410.163 244.989C410.52 243.517 410.876 242.044 411.233 240.571C411.494 239.464 411.494 239.464 411.761 238.335C412.603 234.887 413.371 232.365 415.358 229.384Z" fill="#7B4A23"/>
<path d="M270.359 220.384C277.805 221.267 277.805 221.267 280.808 221.899C283.396 222.391 285.853 222.589 288.484 222.7C289.438 222.742 290.392 222.784 291.374 222.827C292.359 222.866 293.344 222.906 294.359 222.946C295.836 223.011 295.836 223.011 297.343 223.077C301.691 223.262 306.005 223.384 310.359 223.384C309.699 237.904 309.039 252.424 308.359 267.384C301.854 266.201 295.75 265.056 289.421 263.384C282.784 261.665 276.15 260.361 269.359 259.384C269.203 246.354 269.676 233.395 270.359 220.384Z" fill="#F6BB92"/>
<path d="M394.358 219.384C398.59 220.165 401.323 222.325 404.749 224.813C408.156 226.864 411.608 228.063 415.358 229.384C414.548 232.176 413.735 234.968 412.921 237.759C412.691 238.553 412.461 239.347 412.224 240.165C412.001 240.926 411.779 241.686 411.55 242.47C411.346 243.171 411.141 243.873 410.931 244.596C410.358 246.384 410.358 246.384 409.358 248.384C408.657 248.086 407.956 247.788 407.233 247.481C404.188 246.385 401.593 245.622 398.358 245.384C394.25 247.496 391.426 250.854 388.808 254.606C384.775 257.533 380.45 256.88 375.608 256.759C374.644 256.758 373.68 256.756 372.687 256.755C363.671 256.645 356.439 254.711 348.358 250.759C347.679 250.434 347 250.109 346.3 249.774C344.649 248.984 343.003 248.185 341.358 247.384C344.837 244.325 348.699 243.099 353.046 241.759C357.551 240.666 357.551 240.666 361.358 238.384C362.774 238.297 364.194 238.277 365.612 238.286C366.893 238.291 366.893 238.291 368.2 238.296C369.547 238.308 369.547 238.308 370.921 238.321C371.823 238.326 372.724 238.33 373.653 238.335C375.888 238.347 378.123 238.363 380.358 238.384C380.449 237.21 380.449 237.21 380.542 236.013C380.626 235.001 380.71 233.989 380.796 232.946C380.877 231.937 380.958 230.928 381.042 229.888C381.358 227.384 381.358 227.384 382.358 226.384C383.617 226.322 384.875 226.26 386.171 226.196C390.004 225.797 390.211 225.564 392.858 222.321C393.353 221.352 393.848 220.383 394.358 219.384Z" fill="#F6BB92"/>
<path d="M261.359 398.384C261.689 399.044 262.019 399.704 262.359 400.384C263.09 400.522 263.82 400.66 264.574 400.802C267.915 401.5 270.065 402.841 272.921 404.696C274.315 405.588 274.315 405.588 275.738 406.497C278.256 408.31 280.367 410.004 282.359 412.384C282.421 415.884 282.421 415.884 281.359 419.384C278.636 422.169 276.971 423.283 273.101 423.917C265.82 423.983 265.82 423.983 263.384 423.96C261.298 423.946 259.216 423.98 257.13 424.019C255.812 424.017 254.494 424.015 253.136 424.013C251.33 424.014 251.33 424.014 249.487 424.015C246.359 423.384 246.359 423.384 243.998 420.969C241.139 416.459 241.241 412.991 241.296 407.759C241.301 406.957 241.305 406.155 241.31 405.329C241.322 403.347 241.34 401.366 241.359 399.384C241.929 399.389 242.499 399.394 243.087 399.4C245.657 399.42 248.226 399.433 250.796 399.446C251.694 399.455 252.592 399.463 253.517 399.472C254.798 399.477 254.798 399.477 256.105 399.481C256.896 399.487 257.686 399.492 258.501 399.497C260.375 399.589 260.375 399.589 261.359 398.384Z" fill="#F6BB92"/>
<path d="M86.3586 214.384C89.6561 233.112 89.6561 233.112 85.9983 239.913C81.3867 245.813 75.3113 251.412 68.3586 254.384C64.7336 254.696 64.7336 254.696 61.3586 254.384C57.9366 249.251 58.7408 242.888 59.7883 236.946C62.0344 229.182 67.294 220.519 74.3586 216.384C78.4648 214.966 81.9982 214.384 86.3586 214.384Z" fill="#F6BB92"/>
<path d="M433.358 249.384C434.018 249.384 434.678 249.384 435.358 249.384C435.99 256.651 434.091 262.942 429.522 268.696C424.73 273.691 420.502 277.125 413.378 277.712C411.975 277.701 410.573 277.675 409.171 277.634C408.46 277.629 407.749 277.623 407.017 277.618C403.882 277.571 401.349 277.381 398.358 276.384C398.853 274.899 398.853 274.899 399.358 273.384C400.192 273.419 401.026 273.453 401.886 273.489C413.709 273.785 413.709 273.785 423.804 268.345C429.463 262.613 432.049 257.299 433.358 249.384Z" fill="#6C401C"/>
<path d="M225.896 214.721C224.181 217.028 219.859 225.735 219.859 230.884C219.859 243.884 222.359 250.384 224.859 256.884C224.948 257.114 225.032 257.337 225.112 257.551C224.866 257.155 224.616 256.765 224.359 256.384C223.069 255.569 221.77 255.028 220.426 254.624C218.131 249.632 215.601 242.888 215.359 235.384C215.091 227.075 216.549 221.208 218.42 217.477C221.324 217.273 223.762 216.594 225.896 214.721Z" fill="#4B4C47"/>
</svg>
