<svg width="500" height="500" viewBox="0 0 500 500" fill="none" xmlns="http://www.w3.org/2000/svg">
<path d="M104.435 224.592C102.915 224.917 101.65 225.739 100.456 226.673C86.6888 237.425 77.5561 251.192 73.8888 268.334C71.647 278.812 72.1992 289.224 76.2581 299.244C81.5443 312.299 90.9554 321.125 104.19 325.868C108.395 327.373 112.742 328.214 117.207 328.634C121.94 329.077 126.684 329.28 131.427 329.554C138.054 329.941 144.685 330.323 151.311 330.706C154.323 330.88 157.339 331.045 160.35 331.197C164.796 331.423 169.242 331.621 173.688 331.853C180.621 332.216 187.55 332.603 194.478 332.971C197.716 333.141 200.958 333.311 204.201 333.448C211.063 333.736 217.921 334.019 224.784 334.264C226.289 334.316 227.799 334.227 229.305 334.142C230.107 334.094 230.726 334.241 231.283 334.906C234.818 339.13 239.198 342.274 243.946 345.021C248 347.362 252.012 349.755 256.349 351.548C256.977 351.808 257.581 352.124 258.176 352.445C266.029 356.674 274.464 359.166 283.19 360.77C286.159 361.313 289.118 361.927 292.106 362.323C296.368 362.89 300.634 363.38 304.944 363.536C308.634 363.668 312.321 363.975 316.011 364.23C321.279 364.593 326.546 364.985 331.813 365.349C337.684 365.75 343.551 366.165 349.422 366.514C352.051 366.67 354.699 366.934 357.295 366.193C357.333 365.207 356.813 364.296 356.946 363.291C357.436 359.553 357.149 355.777 357.583 352.029C357.885 349.419 357.857 346.776 358.008 344.147C358.277 339.414 358.527 334.684 359.027 329.969C359.145 328.851 359.301 327.737 359.442 326.618C356.606 326.161 353.878 325.292 351.164 324.381C335.098 318.991 319.032 313.592 302.971 308.183C302.348 307.971 301.63 307.919 301.154 307.362C300.285 307.447 299.53 307.041 298.751 306.786C284.229 302 269.715 297.191 255.193 292.405C252.97 291.673 250.766 290.928 248.727 289.748C247.882 289.262 246.976 288.856 246.065 288.506C242.341 287.076 238.603 285.665 234.865 284.273C230.49 282.64 226.105 281.04 221.725 279.416C215.585 277.132 209.449 274.833 203.309 272.554C198.155 270.638 193.001 268.731 187.837 266.843C185.511 265.993 183.222 264.941 180.64 265.224C180.187 265.205 179.724 265.243 179.285 265.158C175.656 264.474 171.989 264.077 168.312 263.723C166.509 263.548 164.706 263.459 162.908 263.275C160.213 263.001 157.513 262.737 154.813 262.496C152.487 262.288 150.155 262.142 147.828 261.939C144.827 261.675 141.834 261.297 138.828 261.141C137.478 261.071 136.558 260.566 135.76 259.565C134.155 257.564 132.513 255.596 130.884 253.618C127.727 249.772 124.588 245.911 121.398 242.093C117.532 237.462 113.634 232.861 109.716 228.273C108.494 226.843 107.272 225.38 105.426 224.677C105.082 224.804 104.746 224.785 104.43 224.597L104.435 224.592Z" fill="#696D65"/>
<path d="M180.649 265.216C183.236 264.932 185.525 265.985 187.847 266.834C193.01 268.722 198.164 270.634 203.318 272.545C209.459 274.825 215.594 277.128 221.735 279.408C226.11 281.036 230.499 282.636 234.874 284.264C238.612 285.657 242.35 287.068 246.074 288.498C246.985 288.847 247.891 289.253 248.736 289.739C250.775 290.915 252.979 291.665 255.202 292.397C269.725 297.182 284.238 301.997 298.761 306.778C299.54 307.032 300.295 307.443 301.163 307.353C305.482 305.371 309.81 303.412 314.114 301.402C315.747 300.642 317.489 300.08 318.89 298.881C318.159 298.773 317.427 298.674 316.696 298.561C314.364 298.197 312.047 297.72 309.668 297.749C308.667 298.117 307.643 298.301 306.567 298.287C304.377 298.258 302.187 298.273 300.002 298.301C297.878 298.329 295.811 297.928 293.734 297.541C289.789 296.8 286.022 295.53 282.341 293.93C276.616 291.438 271.792 287.889 268.191 282.716C264.462 277.364 263.542 271.545 265.052 265.277C265.496 263.432 266.322 261.751 267.398 260.17C269.55 257.013 272.528 254.681 275.294 252.142C275.927 251.561 276.838 251.292 277.616 250.877C277.881 250.735 278.145 250.584 278.4 250.429C282.388 248.04 286.551 246.219 291.346 246.45C293.899 246.025 296.429 246.271 298.992 246.535C301.253 246.771 303.485 247.134 305.656 247.691C312.127 249.353 318.201 251.944 323.709 255.809C326.89 258.042 329.67 260.637 331.86 263.852C332.313 264.078 332.521 264.729 333.177 264.597C333.238 264.04 333.295 263.479 333.356 262.922C332.974 262.11 332.634 261.275 332.195 260.496C331.171 258.674 330.133 256.857 329.038 255.073C327.353 252.34 325.706 249.589 323.662 247.082C322.874 246.115 321.831 245.298 321.401 244.052C319.122 241.971 317.036 239.682 314.662 237.695C312.632 235.996 310.518 234.424 308.247 233.074C299.856 228.095 291.039 224.055 281.737 221.081C278.574 220.071 275.379 219.307 272.066 218.915C267.139 218.33 262.235 217.523 257.317 216.819C251.658 216.008 245.985 215.252 240.335 214.384C237.574 213.959 234.808 213.752 232.033 213.501C226.69 213.02 221.333 213.284 215.991 213.025C210.492 212.756 204.984 212.845 199.495 212.52C195.276 212.27 191.061 212.27 186.842 212.123C186.016 212.095 185.19 211.977 184.364 211.944C183.174 211.897 181.957 211.59 180.81 212.18C181.211 213.733 181.107 215.323 181.107 216.9C181.107 223.677 181.14 230.45 181.046 237.228C180.947 244.071 181.239 250.919 180.706 257.758C180.512 260.227 180.654 262.724 180.645 265.211L180.649 265.216Z" fill="#8989DE"/>
<path d="M413.427 281.009C414.248 281.306 415.022 281.207 415.834 280.882C417.552 280.192 418.94 279.046 420.27 277.818C426.727 271.848 430.3 264.414 431.603 255.768C432.296 251.157 432.013 246.602 431.282 242.052C430.673 238.276 428.945 234.921 427.138 231.607C426.019 229.554 424.679 227.638 423.244 225.797C421.606 223.702 419.558 222.036 417.448 220.45C416.367 219.638 415.249 218.878 414.149 218.095C412.643 217.741 411.449 216.787 410.199 215.966C409.184 215.301 408.145 214.72 406.97 214.39C405.743 214.041 404.53 213.635 403.303 213.295C399.376 212.209 395.393 211.525 391.291 211.747C390.39 211.799 389.479 211.794 388.577 211.747C386.675 211.662 384.849 212.11 383.013 212.474C378.779 213.309 374.791 214.834 370.978 216.868C365.564 219.756 361.071 223.669 357.607 228.724C355.596 231.659 354.199 234.907 353.137 238.305C352.84 239.263 352.66 240.197 352.74 241.184C353.713 241.439 354.515 241.939 355.228 242.656C356.021 243.459 356.866 244.214 357.739 244.931C363.327 249.519 368.934 254.083 374.513 258.68C375.711 259.666 377.052 260.289 378.548 260.587C379.652 260.804 380.771 260.978 381.885 261.158C386.416 261.88 390.937 262.663 395.482 263.282C396.724 263.451 397.54 263.98 398.338 264.839C401.41 268.152 404.521 271.428 407.626 274.713C409.434 276.629 411.26 278.531 413.068 280.447C413.219 280.603 413.309 280.82 413.427 281.004V281.009Z" fill="#884100"/>
<path d="M180.649 265.215C180.659 262.733 180.517 260.236 180.711 257.763C181.244 250.924 180.951 244.075 181.051 237.232C181.15 230.459 181.117 223.681 181.112 216.904C181.112 215.328 181.216 213.737 180.815 212.184C178.441 211.495 176.024 211.726 173.631 211.948C172.734 212.033 171.838 212.161 170.936 212.165C168.595 212.17 166.254 212.189 163.918 212.17C159.392 212.137 154.889 212.387 150.405 213.038C148.399 213.331 146.356 213.359 144.336 213.595C142.32 213.831 140.305 214.115 138.313 214.483C134.467 215.191 130.625 215.927 126.797 216.725C122.814 217.555 118.929 218.782 115.036 219.958C111.628 220.987 108.442 222.525 105.403 224.366C105.422 224.465 105.436 224.564 105.44 224.663C107.286 225.366 108.508 226.83 109.731 228.26C113.648 232.847 117.547 237.449 121.412 242.079C124.603 245.897 127.736 249.763 130.899 253.605C132.527 255.587 134.169 257.555 135.774 259.551C136.577 260.552 137.497 261.057 138.842 261.128C141.848 261.284 144.841 261.661 147.843 261.926C150.169 262.128 152.501 262.279 154.828 262.482C157.527 262.723 160.227 262.987 162.922 263.261C164.72 263.445 166.528 263.535 168.326 263.71C172.003 264.064 175.665 264.46 179.3 265.144C179.739 265.229 180.201 265.192 180.654 265.21L180.649 265.215Z" fill="#FFB68A"/>
<path d="M359.447 326.618C359.31 327.737 359.155 328.851 359.032 329.969C358.527 334.684 358.282 339.414 358.013 344.147C357.861 346.776 357.89 349.424 357.588 352.029C357.158 355.777 357.441 359.557 356.951 363.291C356.818 364.296 357.338 365.207 357.3 366.193C359.443 367.373 361.802 367.911 364.148 368.435C366.565 368.978 369.019 369.516 371.478 369.686C374.555 369.894 377.628 370.389 380.719 370.205C384.556 369.979 388.346 369.412 392.037 368.279C394.015 367.675 395.907 366.769 397.399 365.438C399.905 363.201 401.689 360.435 402.067 356.919C402.406 353.78 402.935 350.665 403.336 347.536C403.709 344.629 404.011 341.707 404.379 338.8C404.596 337.087 404.898 335.383 405.115 333.67C405.342 331.881 405.498 330.078 405.705 328.284C405.946 326.194 406.168 324.098 406.465 322.017C406.678 320.525 406.673 319.024 406.933 317.528C407.305 315.385 407.334 313.186 407.537 311.015C407.763 308.622 408.023 306.229 408.264 303.836C408.311 303.388 408.353 302.935 408.367 302.486C408.4 301.358 408.4 300.235 408.764 299.131C409 298.418 408.934 297.639 408.778 296.889C407.419 296.917 406.107 297.28 404.809 297.616C400.745 298.673 396.705 299.829 392.646 300.896C389.602 301.698 386.562 302.585 383.466 303.123C381.776 303.416 380.53 304.091 379.417 305.295C376.759 308.174 373.781 310.717 370.912 313.375C370.383 313.861 369.84 314.182 369.104 314.135C368.651 314.106 368.198 314.116 367.749 314.111C367.608 314.97 366.971 315.555 366.517 316.23C364.809 318.784 363.063 321.309 361.297 323.824C360.656 324.74 360.349 325.882 359.438 326.618H359.447Z" fill="#FFB68A"/>
<path d="M413.445 214.472C413.417 214.1 413.445 213.708 413.346 213.354C409.717 200.342 401.519 192.12 388.1 189.5C382.776 188.462 377.448 188.835 372.176 190.038C371.449 190.204 370.736 190.491 370.066 190.822C361.774 194.942 354.198 200.077 347.633 206.647C345.439 208.842 343.537 211.258 341.913 213.911C337.665 220.863 333.828 228.028 330.689 235.556C329.736 237.845 328.948 240.209 328.084 242.536C328.183 242.767 328.136 242.951 327.9 243.069C327.895 243.192 327.9 243.315 327.9 243.437C330.581 243.159 333.262 242.857 335.947 242.612C340.053 242.243 344.164 241.922 348.27 241.568C348.558 241.545 348.837 241.403 349.12 241.318C348.912 239.473 349.309 237.764 350.026 236.051C350.843 234.102 351.73 232.195 352.716 230.331C354.345 227.263 356.393 224.478 358.692 221.887C360.797 219.513 363.374 217.672 365.913 215.794C368.782 213.67 371.982 212.136 375.315 210.952C379.501 209.465 383.801 208.408 388.308 208.568C389.587 208.615 390.876 208.62 392.155 208.568C396.275 208.398 400.202 209.389 404.091 210.541C407.343 211.504 410.401 212.976 413.441 214.472H413.445Z" fill="#894100"/>
<path d="M349.125 241.323C348.842 241.408 348.563 241.549 348.276 241.573C344.169 241.927 340.058 242.248 335.952 242.616C333.267 242.857 330.586 243.163 327.905 243.442C325.739 243.65 323.572 243.857 321.401 244.065C321.831 245.311 322.874 246.132 323.662 247.1C325.706 249.606 327.353 252.357 329.038 255.09C330.133 256.87 331.171 258.687 332.195 260.513C332.634 261.292 332.974 262.127 333.356 262.939C334.763 262.368 336.047 262.533 337.463 263.175C339.653 264.157 341.979 264.827 344.24 265.648C345.245 266.012 346.274 266.125 347.341 266.125C354.208 266.106 361.075 266.167 367.943 266.087C370.487 266.059 373.016 265.516 375.584 265.625C375.73 265.629 375.895 265.592 376.018 265.521C376.872 265.03 377.609 265.422 378.364 265.804C380.719 266.989 382.966 268.367 385.245 269.684C389.871 272.355 394.524 274.979 399.197 277.566C402.42 279.354 405.634 281.143 408.575 283.385C410.335 282.889 411.997 282.191 413.427 281.016C413.309 280.827 413.219 280.615 413.068 280.459C411.256 278.543 409.434 276.641 407.626 274.724C404.525 271.439 401.41 268.164 398.338 264.851C397.54 263.992 396.719 263.458 395.482 263.293C390.937 262.675 386.416 261.896 381.885 261.169C380.771 260.99 379.657 260.82 378.548 260.598C377.047 260.301 375.707 259.683 374.513 258.691C368.934 254.094 363.327 249.535 357.739 244.943C356.865 244.225 356.021 243.47 355.228 242.668C354.515 241.95 353.708 241.445 352.74 241.195C351.537 241.238 350.333 241.285 349.13 241.327L349.125 241.323Z" fill="#FFB589"/>
<path d="M408.574 283.376C405.634 281.134 402.42 279.345 399.196 277.556C394.524 274.965 389.87 272.346 385.245 269.674C382.965 268.357 380.719 266.979 378.363 265.795C377.608 265.417 376.877 265.025 376.018 265.511C375.89 265.582 375.725 265.625 375.583 265.615C373.021 265.507 370.491 266.045 367.942 266.078C361.075 266.158 354.208 266.097 347.341 266.116C346.269 266.116 345.245 266.007 344.24 265.639C341.979 264.818 339.647 264.147 337.462 263.166C336.042 262.529 334.762 262.359 333.356 262.93C333.299 263.487 333.238 264.048 333.181 264.605C333.309 265.719 333.97 266.29 335.017 266.625C337.877 267.536 340.719 268.513 343.569 269.462C343.853 269.556 344.145 269.698 344.433 269.698C346.84 269.703 349.186 270.33 351.617 270.212C354.477 270.075 357.346 270.212 360.211 270.17C362.382 270.137 364.577 270.429 366.725 269.773C367.14 269.646 367.626 269.74 368.074 269.736C369.283 269.736 370.486 269.74 371.694 269.731C372.742 269.721 373.781 269.755 374.819 269.405C375.848 269.061 376.891 269.301 377.863 269.839C380.105 271.071 382.418 272.18 384.603 273.507C385.962 274.328 387.388 275.003 388.761 275.777C391.187 277.136 393.608 278.514 396.048 279.841C398.625 281.242 401.231 282.597 403.826 283.97C403.892 284.003 403.959 284.046 404.025 284.084C404.449 284.32 404.78 284.608 404.553 285.155C404.251 285.882 404.355 286.642 404.346 287.392C404.331 288.676 404.346 289.955 404.341 291.239C404.331 292.724 403.609 293.561 402.174 293.75C402.023 293.769 401.872 293.769 401.726 293.802C396.893 294.83 392.055 295.859 387.227 296.902C385.249 297.332 383.291 297.842 381.309 298.243C380.303 298.446 379.548 298.974 378.755 299.583C376.107 301.608 373.913 304.095 371.529 306.394C371.152 306.762 370.821 307.215 370.378 307.475C368.976 308.286 368.037 309.594 366.847 310.623C366.026 311.331 365.729 312.19 365.842 313.233C366.479 313.525 367.116 313.818 367.753 314.115C368.207 314.12 368.66 314.111 369.108 314.139C369.844 314.186 370.387 313.865 370.916 313.379C373.785 310.722 376.763 308.178 379.421 305.299C380.53 304.095 381.78 303.425 383.47 303.128C386.566 302.59 389.601 301.702 392.65 300.9C396.714 299.829 400.749 298.672 404.813 297.62C406.111 297.285 407.418 296.921 408.782 296.893C409.075 294.788 408.952 292.664 408.725 290.587C408.461 288.176 408.546 285.787 408.574 283.385V283.376Z" fill="#E7A47C"/>
<path d="M349.125 241.324C350.329 241.282 351.533 241.235 352.736 241.192C352.661 240.201 352.835 239.266 353.132 238.313C354.194 234.915 355.591 231.668 357.602 228.732C361.066 223.677 365.56 219.769 370.973 216.876C374.787 214.842 378.775 213.317 383.008 212.482C384.84 212.118 386.671 211.67 388.573 211.755C389.474 211.798 390.385 211.802 391.287 211.755C395.388 211.529 399.372 212.213 403.299 213.303C404.53 213.643 405.739 214.049 406.966 214.398C408.141 214.728 409.179 215.309 410.194 215.975C411.445 216.796 412.634 217.749 414.145 218.103C413.975 216.885 414.031 215.621 413.441 214.483C410.402 212.987 407.343 211.514 404.091 210.552C400.202 209.4 396.271 208.414 392.155 208.579C390.876 208.631 389.592 208.626 388.309 208.579C383.801 208.414 379.502 209.475 375.315 210.962C371.983 212.147 368.783 213.681 365.914 215.805C363.374 217.683 360.797 219.524 358.692 221.898C356.399 224.489 354.345 227.278 352.717 230.341C351.731 232.201 350.843 234.112 350.027 236.062C349.309 237.775 348.913 239.484 349.121 241.329L349.125 241.324Z" fill="#5E3816"/>
<path d="M105.436 224.672C105.431 224.573 105.417 224.474 105.398 224.375C105.077 224.446 104.756 224.521 104.435 224.592C104.756 224.781 105.086 224.8 105.431 224.672H105.436Z" fill="#C4B3AF"/>
<path d="M327.905 243.068C328.141 242.95 328.193 242.771 328.089 242.535C327.844 242.648 327.787 242.828 327.905 243.068Z" fill="#FFB589"/>
<path d="M318.89 298.896C320.599 299.141 322.307 299.41 324.016 299.623C329.038 300.255 334.088 300.118 339.133 300.066C340.403 300.052 341.672 299.807 342.942 299.651C343.73 299.552 344.348 299.779 345.009 300.279C350.475 304.423 356.143 308.26 362.246 311.432C362.845 311.743 363.407 312.125 363.987 312.475C364.568 312.824 365.129 313.216 365.847 313.225C365.738 312.182 366.031 311.328 366.852 310.62C368.046 309.591 368.981 308.283 370.383 307.472C370.826 307.217 371.157 306.759 371.534 306.391C373.918 304.092 376.112 301.605 378.76 299.58C379.553 298.976 380.308 298.443 381.313 298.24C383.296 297.839 385.254 297.329 387.232 296.899C392.065 295.852 396.898 294.828 401.731 293.799C401.877 293.766 402.028 293.766 402.179 293.747C403.611 293.558 404.333 292.721 404.346 291.236C404.355 289.952 404.336 288.673 404.35 287.389C404.36 286.639 404.256 285.879 404.558 285.152C404.785 284.605 404.459 284.317 404.03 284.081C403.963 284.043 403.902 284.005 403.831 283.967C401.235 282.594 398.635 281.239 396.053 279.838C393.608 278.511 391.192 277.133 388.766 275.774C387.388 275 385.962 274.325 384.608 273.504C382.423 272.178 380.11 271.068 377.868 269.837C376.891 269.298 375.853 269.062 374.824 269.402C373.785 269.752 372.747 269.714 371.699 269.728C370.491 269.742 369.288 269.728 368.079 269.733C367.626 269.733 367.145 269.643 366.729 269.77C364.587 270.426 362.392 270.134 360.216 270.167C357.351 270.209 354.482 270.072 351.622 270.209C349.191 270.327 346.84 269.7 344.438 269.695C344.15 269.695 343.858 269.553 343.574 269.459C340.724 268.51 337.887 267.533 335.022 266.622C333.974 266.292 333.314 265.716 333.186 264.602C332.53 264.734 332.323 264.078 331.869 263.857C330.798 263.942 329.779 263.71 328.778 263.352C327.645 262.95 326.508 262.545 325.356 262.195C320.613 260.756 315.822 259.463 311.131 257.877C306.638 256.357 302.083 255.111 297.401 254.445C295.485 254.172 293.479 254.261 291.539 254.46C289.614 254.653 287.712 255.163 285.847 255.729C281.854 256.952 278.06 258.495 275.218 261.794C274.369 262.785 273.637 263.795 273.137 264.98C272.844 265.674 272.547 266.363 272.311 267.075C271.693 268.93 270.942 270.79 271.23 272.782C271.532 274.868 272.094 276.907 273.236 278.724C274.737 281.117 276.927 282.882 278.9 284.841C279.056 284.996 279.282 285.077 279.48 285.185C281.6 286.327 283.719 287.469 285.843 288.607C286.376 288.89 286.933 289.131 287.443 289.447C292.134 292.402 297.241 294.379 302.532 295.932C304.259 296.437 306.024 296.805 307.766 297.263C308.403 297.433 309.158 297.135 309.677 297.749C312.056 297.721 314.373 298.197 316.705 298.561C317.437 298.674 318.168 298.778 318.9 298.882L318.89 298.896Z" fill="#FFB68A"/>
<path d="M309.673 297.762C309.154 297.149 308.399 297.446 307.762 297.276C306.02 296.818 304.255 296.45 302.527 295.945C297.237 294.392 292.13 292.41 287.438 289.46C286.929 289.139 286.372 288.903 285.838 288.62C283.714 287.483 281.595 286.34 279.476 285.198C279.278 285.09 279.051 285.009 278.896 284.854C276.923 282.895 274.733 281.13 273.232 278.737C272.09 276.92 271.528 274.881 271.226 272.795C270.938 270.803 271.689 268.943 272.307 267.089C272.543 266.376 272.84 265.687 273.133 264.993C273.633 263.804 274.365 262.794 275.214 261.807C278.055 258.508 281.85 256.965 285.843 255.742C287.707 255.171 289.605 254.666 291.535 254.473C293.475 254.279 295.481 254.19 297.397 254.459C302.079 255.124 306.634 256.37 311.127 257.89C315.818 259.476 320.609 260.769 325.352 262.208C326.504 262.558 327.636 262.964 328.774 263.365C329.779 263.723 330.794 263.955 331.865 263.87C329.675 260.656 326.895 258.06 323.714 255.827C318.206 251.962 312.132 249.371 305.661 247.709C303.49 247.152 301.253 246.789 298.997 246.553C296.434 246.289 293.904 246.043 291.351 246.468C286.556 246.237 282.393 248.059 278.405 250.447C278.145 250.603 277.886 250.754 277.621 250.895C276.843 251.311 275.927 251.584 275.299 252.16C272.533 254.699 269.555 257.031 267.403 260.188C266.322 261.769 265.501 263.45 265.057 265.295C263.547 271.558 264.467 277.382 268.196 282.735C271.797 287.907 276.625 291.457 282.346 293.949C286.027 295.553 289.793 296.823 293.739 297.559C295.811 297.946 297.878 298.347 300.007 298.319C302.197 298.291 304.387 298.277 306.572 298.305C307.648 298.319 308.672 298.135 309.673 297.767V297.762Z" fill="#E4A37C"/>
</svg>
