<svg width="500" height="500" viewBox="0 0 500 500" fill="none" xmlns="http://www.w3.org/2000/svg">
<path d="M227.827 381.508C228.253 382.604 229.142 383.312 230.015 384.006C233.803 387.022 237.906 389.561 242.137 391.902C243.676 392.754 245.326 393.205 247.072 393.225C250.31 393.263 253.548 393.498 256.791 393.304C263.458 392.907 270.133 392.63 276.772 391.861C278.046 391.712 279.212 391.344 280.308 390.665C280.92 390.285 281.607 390.016 282.272 389.731C287.575 387.485 292.331 384.437 296.297 380.23C298.849 377.525 300.934 374.457 302.94 371.338C305.88 366.768 308.366 361.954 310.546 356.978C311.617 354.538 312.25 351.969 312.729 349.368C313.271 346.444 313.743 343.507 314.185 340.567C314.421 338.999 314.574 337.415 314.698 335.835C315.033 331.55 315.314 327.261 315.645 322.977C315.964 318.824 316.319 314.672 316.642 310.519C316.799 308.476 316.932 306.429 317.06 304.381C317.386 299.232 317.705 294.083 318.032 288.938C318.499 281.547 318.987 274.156 319.442 266.765C319.781 261.219 320.083 255.673 320.406 250.126C320.517 248.211 320.646 246.296 320.757 244.381C320.819 243.368 321.183 242.446 321.663 241.573C322.267 240.469 322.92 239.398 323.545 238.31C323.909 237.673 324.364 237.11 324.877 236.589C328.169 233.231 331.246 229.691 333.976 225.852C334.935 224.504 336.019 223.251 336.983 221.907C340.916 216.423 344.547 210.744 347.951 204.916C355.706 191.632 361.997 177.648 367.758 163.421C369.019 160.306 369.847 157.014 370.823 153.788C371.398 151.894 372.105 150.033 372.361 148.051C371.82 148.002 371.348 147.766 370.91 147.468C368.407 145.756 365.674 144.437 363.142 142.757C359.528 140.35 355.756 138.175 352.054 135.896C351.144 135.338 351.057 135.321 350.428 136.111C348.224 138.899 346.036 141.703 343.844 144.503C343.604 144.813 343.435 145.185 343.025 145.318C342.955 145.529 342.847 145.702 342.599 145.723L342.641 145.69C342.616 145.955 342.529 146.157 342.206 146.12L342.239 146.087C342.355 146.492 342.181 146.753 341.817 146.91L341.838 146.889C341.573 147.807 340.903 148.469 340.357 149.201C331.105 161.663 321.845 174.116 312.572 186.561C310.008 190.002 307.448 193.452 304.664 196.723C304.424 197.004 304.276 197.443 303.663 197.364C304.573 191.901 305.479 186.441 306.389 180.986C306.265 180.998 306.186 180.945 306.141 180.829C305.893 181.044 305.628 181.246 305.392 181.474C301.372 185.382 297.34 189.278 293.34 193.212C290.797 195.714 288.054 197.976 285.263 200.185C282.574 202.311 279.816 204.354 277.173 206.538C274.327 208.887 271.569 211.344 268.793 213.776C266.506 215.781 264.103 217.601 261.332 218.925C259.132 219.975 257.01 221.183 254.851 222.32C254.814 222.511 254.802 222.713 254.731 222.891C253.342 226.415 251.944 229.935 250.542 233.454C250.451 233.686 250.269 233.884 250.132 234.1C250.186 234.356 250.207 234.629 250.298 234.873C251.125 237.127 251.41 239.501 251.613 241.85C251.89 245.076 251.815 248.34 250.864 251.47C249.851 254.804 249.503 258.183 249.706 261.641C249.756 262.497 249.714 263.361 249.743 264.217C249.76 264.743 249.768 265.284 249.896 265.789C250.111 266.637 250.132 267.485 250.091 268.345C250.579 269.863 250.657 271.455 250.872 273.015C251.278 275.951 251.749 278.875 252.332 281.783C253.308 286.622 254.309 291.457 255.36 296.279C255.55 297.164 255.55 298.132 256.162 298.901C256.878 297.549 257.076 296.043 257.465 294.592C258.143 292.048 258.929 289.533 259.694 287.011C260.666 283.797 261.667 280.587 262.647 277.374C264.05 272.775 265.435 268.171 266.841 263.572C267.437 261.62 268.078 259.68 268.678 257.728C270.105 253.067 271.494 248.397 272.95 243.745C273.736 241.23 274.484 238.707 275.138 236.155C275.332 235.394 275.626 234.654 275.878 233.905C276.739 231.374 278.273 229.215 279.77 227.052C282.657 222.883 285.602 218.751 288.571 214.636C291.806 210.148 295.115 205.715 298.349 201.227C299.205 200.04 300.185 198.985 301.223 197.968C301.505 197.691 301.79 197.422 302.199 197.323C302.692 197.203 303.171 197.459 303.258 197.931C303.378 198.597 303.362 199.238 303.027 199.858C302.559 200.731 302.141 201.62 301.587 202.451C298.167 207.621 294.701 212.754 291.094 217.796C288.906 220.848 286.805 223.962 284.663 227.048C283.608 228.562 282.612 230.125 281.474 231.568C280.639 232.627 280.006 233.785 279.576 235.022C278.926 236.883 278.199 238.719 277.648 240.622C276.147 245.808 274.505 250.958 272.909 256.119C271.701 260.019 270.481 263.92 269.261 267.82C267.946 272.034 266.639 276.249 265.311 280.459C264.099 284.293 262.879 288.123 261.638 291.949C260.741 294.707 259.79 297.45 258.888 300.208C258.557 301.222 257.957 301.776 256.853 301.677C256.712 302.76 257.109 303.773 257.353 304.787C257.862 306.921 258.33 309.034 257.755 311.231C257.688 311.479 257.73 311.756 257.717 312.02C257.597 314.792 257.548 317.563 257.399 320.334C257.147 325.016 257.279 329.71 256.952 334.396C256.832 336.108 256.799 337.837 256.886 339.549C256.961 340.976 256.435 342.072 255.633 343.181C250.364 350.456 245.119 357.747 239.887 365.047C237.079 368.968 234.374 372.955 231.372 376.735C230.143 378.282 228.811 379.763 227.827 381.496V381.508Z" fill="#696D65"/>
<path d="M254.865 222.333C257.024 221.196 259.145 219.988 261.346 218.938C264.117 217.614 266.516 215.794 268.807 213.788C271.582 211.356 274.341 208.9 277.186 206.55C279.829 204.367 282.588 202.324 285.276 200.198C288.068 197.989 290.81 195.727 293.354 193.225C297.349 189.291 301.382 185.395 305.406 181.487C305.642 181.259 305.902 181.057 306.15 180.842C306.233 180.738 306.336 180.664 306.469 180.631C306.804 179.965 307.387 179.514 307.896 179.001C311.721 175.179 315.535 171.345 319.398 167.561C321.557 165.443 323.571 163.185 325.99 161.32C327.86 159.881 329.506 158.139 331.222 156.51C334.328 153.561 337.418 150.595 340.516 147.638C340.706 147.456 340.884 147.245 341.107 147.117C341.326 146.993 341.595 146.964 341.843 146.894L341.823 146.914C341.81 146.559 341.93 146.278 342.245 146.091L342.211 146.125C342.356 145.98 342.501 145.839 342.646 145.694L342.604 145.727C342.745 145.591 342.89 145.459 343.03 145.322C343.44 145.19 343.609 144.813 343.849 144.507C346.037 141.707 348.225 138.903 350.434 136.116C351.058 135.326 351.149 135.342 352.059 135.9C355.761 138.179 359.533 140.355 363.148 142.762C365.675 144.445 368.413 145.765 370.915 147.473C371.353 147.771 371.825 148.006 372.367 148.056C374.203 146.017 375.452 143.639 376.498 141.12C377.797 138.006 378.955 134.85 379.671 131.545C379.724 131.289 379.848 131.037 379.865 130.78C380.072 127.079 380.217 123.381 378.914 119.812C378.711 119.253 378.508 118.691 378.227 118.17C377.177 116.23 375.634 114.915 373.487 114.228C370.154 113.161 366.767 112.301 363.379 111.424C356.803 109.72 350.21 108.07 343.655 106.283C340.921 105.534 338.725 106.316 336.735 108.09C335.544 109.153 334.535 110.34 333.927 111.871C333.216 113.662 333.509 115.37 334.097 117.086C334.246 117.525 334.465 117.934 334.63 118.364C335.048 119.439 335.04 119.435 334.109 120.291C333.572 120.784 333.092 121.321 332.678 121.929C331.264 124.001 329.795 126.036 328.397 128.121C327.798 129.018 327.074 129.734 326.172 130.329C323.476 132.112 320.692 133.775 318.194 135.847C316.209 137.493 314.128 139.007 312.003 140.462C311.738 140.644 311.494 140.905 311.043 140.686C311.407 137.906 311.25 135.073 311.32 132.248C311.37 130.234 311.027 128.315 310.357 126.425C309.649 124.427 308.917 122.45 307.676 120.705C306.94 119.671 306.059 118.803 304.988 118.108C304.016 117.479 302.982 117.09 301.828 117.111C299.057 117.161 296.274 116.917 293.523 117.45C293.457 117.463 293.391 117.467 293.325 117.463C290.545 117.367 287.791 117.789 285.028 117.975C282.203 118.166 279.358 118.149 276.549 118.612C276.032 118.699 275.491 118.707 274.965 118.678C272.906 118.575 270.891 119.038 268.848 119.113C267.951 119.146 267.169 119.584 266.512 120.122C263.745 122.393 262.285 125.3 262.433 128.936C262.454 129.415 262.624 129.833 262.88 130.23C263.434 130.197 263.645 129.779 263.852 129.362C264.77 127.484 266.255 126.069 267.777 124.717C269.01 123.625 270.519 123.108 272.174 123.621C273.39 123.997 274.411 124.733 275.201 125.747C275.702 126.388 275.941 127.112 275.937 127.943C275.925 129.527 275.259 130.871 274.498 132.186C274.006 133.038 273.452 133.853 272.943 134.697C272.715 135.077 272.757 135.441 273.141 135.735C274.188 136.529 275.222 137.34 276.272 138.121C277.48 139.023 278.712 139.892 279.916 140.802C280.677 141.376 281.273 142.063 281.082 143.13C282.001 143.457 283.022 143.461 283.858 144.04C283.978 144.061 284.102 144.077 284.222 144.09C284.664 144.218 285.103 144.367 285.553 144.474C289.656 145.463 293.763 146.443 297.866 147.436C298.635 147.622 299.396 147.845 300.157 148.064C300.401 148.135 300.699 148.151 300.774 148.474C300.844 148.784 300.621 148.966 300.418 149.115C299.094 150.099 297.771 151.084 296.431 152.051C290.537 156.299 284.648 160.547 278.737 164.773C278.1 165.228 277.526 165.816 276.707 165.973C276.417 166.238 276.152 166.539 275.834 166.763C273.365 168.521 270.887 170.274 268.406 172.007C267 172.992 265.577 173.943 264.39 175.2C264.071 175.535 263.736 175.866 263.223 175.874L263.244 175.854C263.182 176.073 263.037 176.213 262.818 176.275L262.851 176.242C262.744 176.35 262.636 176.462 262.529 176.569L262.409 176.689C262.582 177.715 262.218 178.443 261.325 179.018C259.832 179.977 258.397 181.028 256.929 182.024C252.027 185.354 247.031 188.53 241.973 191.616C239.785 192.952 237.634 194.374 235.269 195.4C234.243 195.847 233.217 196.289 232.196 196.748C229.904 197.782 227.894 199.3 225.706 200.512C223.854 201.538 222.021 202.559 219.887 202.841C215.673 203.395 211.698 204.611 208.013 206.807C205.436 208.341 203.099 210.132 201.18 212.419C200.618 213.089 200.043 213.213 199.298 213.156C197.834 215.228 196.867 217.536 196.163 219.951C195.646 221.725 195.415 223.549 195.249 225.402C195.022 227.937 195.27 230.407 195.89 232.834C196.362 234.687 197.011 236.495 197.586 238.323C198.401 240.916 199.613 243.344 200.688 245.825C202.144 249.175 203.96 252.31 205.933 255.363C207.488 257.77 209.448 259.801 211.876 261.372C214.076 262.795 216.471 263.362 219.043 263.134C220.019 263.047 220.962 262.654 221.93 262.472C224.118 262.055 225.83 260.855 227.216 259.201C230.467 255.317 232.51 250.846 233.399 245.875C233.639 244.527 234.057 243.162 233.792 241.756C233.35 241.884 232.899 241.987 232.469 242.148C229.329 243.344 226.186 244.539 223.055 245.759C222.555 245.954 222.087 246.173 221.533 246.045C220.95 245.912 220.702 245.284 221.087 244.829C221.384 244.477 221.732 244.163 222.042 243.824C224.581 241.036 227.584 238.74 230.248 236.081C231.017 235.316 231.873 234.547 232.969 234.191C232.986 233.471 233.503 233.202 234.049 232.921C236.394 231.709 238.714 230.448 241.076 229.261C242.606 228.492 244.053 227.549 245.712 227.052C246.523 226.262 247.602 225.919 248.562 225.394C250.609 224.273 252.656 223.123 254.865 222.333ZM345.756 111.941C347.712 111.929 349.267 112.52 350.715 113.289C352.514 114.245 354.23 115.366 355.935 116.486C356.811 117.061 357.626 117.744 358.4 118.455C360.951 120.792 360.827 121.429 359.797 124.762C358.954 127.496 357.328 129.854 355.992 132.352C355.69 132.914 355.149 133.361 354.669 133.808C354.164 134.279 353.709 134.254 353.052 133.833C352.572 133.522 352.39 133.051 352.642 132.459C352.928 131.798 353.201 131.082 353.66 130.544C355.459 128.443 356.472 125.949 357.353 123.389C357.849 121.938 357.725 121.586 356.617 120.647C354.446 118.815 351.997 117.388 349.607 115.878C349.052 115.527 348.453 115.221 347.832 115.002C346.517 114.53 345.26 114.472 344.23 115.688C343.634 116.391 342.935 116.983 342.418 117.773C341.992 118.426 341.401 119.005 340.785 119.485C339.842 120.217 338.803 120.784 337.525 120.701C336.864 120.655 336.413 120.354 336.078 119.816C335.912 119.551 336.028 119.104 336.31 118.956C336.483 118.865 336.665 118.757 336.851 118.745C338.162 118.662 339.097 117.88 339.78 116.908C340.776 115.486 342.083 114.373 343.233 113.107C343.994 112.268 344.83 111.734 345.756 111.941Z" fill="#F5BA92"/>
<path d="M227.827 381.508C228.812 379.775 230.143 378.29 231.372 376.748C234.374 372.967 237.079 368.98 239.888 365.059C245.12 357.76 250.364 350.468 255.633 343.193C256.436 342.084 256.961 340.988 256.886 339.561C256.795 337.849 256.833 336.12 256.953 334.408C257.279 329.726 257.143 325.028 257.399 320.346C257.548 317.575 257.602 314.804 257.718 312.033C257.73 311.768 257.689 311.491 257.755 311.243C258.33 309.046 257.862 306.933 257.354 304.799C257.11 303.781 256.713 302.772 256.853 301.689C256.411 300.816 256.311 299.861 256.167 298.918C255.555 298.152 255.559 297.181 255.364 296.295C254.314 291.473 253.313 286.638 252.337 281.799C251.754 278.896 251.278 275.971 250.877 273.031C250.662 271.472 250.583 269.879 250.095 268.361C242.766 272.088 235.032 274.768 227.132 276.948C218.993 279.189 210.746 280.951 202.338 281.915C199.256 282.266 196.187 282.676 193.081 282.659C193.95 287.651 194.843 292.635 195.993 297.578C196.8 301.039 197.35 304.559 198.144 308.025C199.277 312.967 200.41 317.918 201.763 322.803C203.239 328.138 204.765 333.465 206.871 338.602C207.094 339.152 207.292 339.71 207.479 340.277C209.129 345.219 210.775 350.162 212.413 355.104C213.492 358.363 214.721 361.577 216.168 364.679C217.818 368.203 219.82 371.553 222.173 374.671C223.365 376.251 224.535 377.848 225.755 379.403C226.363 380.18 226.988 380.954 227.831 381.512L227.827 381.508Z" fill="#F5BA92"/>
<path d="M171.947 139.308C171.496 138.552 170.731 138.341 169.945 138.196C168.431 137.919 166.905 138.006 165.408 138.245C154.448 139.999 146.61 146.12 141.217 155.629C140.303 157.242 139.682 158.991 139.136 160.761C138.942 161.39 138.748 162.015 138.549 162.643C138.586 163.433 138.466 164.198 138.359 164.98C138.173 166.337 137.672 167.664 137.813 169.062C137.949 170.427 138.02 171.813 138.301 173.153C139.434 178.55 141.668 183.509 144.563 188.174C146.329 191.02 148.24 193.774 150.68 196.111C150.87 196.293 151.044 196.496 151.18 196.719C151.854 197.799 152.735 198.663 153.798 199.354C154.303 199.685 154.758 200.057 154.878 200.698C155.606 200.851 156.214 201.248 156.801 201.678C160.987 204.768 165.594 206.993 170.582 208.461C171.091 208.61 171.591 208.742 172.121 208.788C177.671 209.268 183.056 208.664 188.184 206.356C187.986 205.583 188.358 204.937 188.664 204.284C189.698 202.071 190.79 199.883 192.122 197.836C192.589 197.116 192.738 196.397 192.519 195.586C192.449 195.33 192.382 195.077 192.32 194.821C190.712 188.224 189.065 181.636 187.514 175.022C187.167 173.533 186.497 172.388 185.351 171.399C181.997 168.512 178.999 165.253 175.822 162.176C175.318 161.688 175.127 161.134 175.028 160.439C174.333 155.48 173.58 150.525 172.853 145.57C172.546 143.486 172.245 141.401 171.943 139.317L171.947 139.308Z" fill="#894100"/>
<path d="M171.947 139.307C172.249 141.391 172.55 143.476 172.857 145.56C173.589 150.515 174.337 155.47 175.032 160.429C175.131 161.124 175.322 161.678 175.826 162.166C179.003 165.239 181.997 168.502 185.355 171.389C186.505 172.378 187.171 173.523 187.518 175.012C189.065 181.626 190.711 188.214 192.324 194.811C192.386 195.067 192.457 195.324 192.523 195.576C192.742 196.391 192.593 197.111 192.126 197.826C190.794 199.878 189.702 202.061 188.668 204.274C188.362 204.928 187.99 205.573 188.188 206.346C189.061 208.538 189.603 210.805 189.777 213.162C190.6 212.769 191.439 212.451 192.349 212.261C193.942 211.93 195.563 211.752 197.122 211.243C197.813 211.016 198.545 211.123 199.252 211.318C200.853 208.625 203.053 206.516 205.597 204.729C207.164 203.629 208.864 202.756 210.609 201.999C213.265 200.85 215.99 199.919 218.96 200.064C219.419 200.084 219.874 200.064 220.316 199.878C220.991 199.596 221.235 199.216 221.081 198.488C220.676 196.569 220.337 194.633 219.816 192.743C219.464 191.465 219.531 190.29 219.985 189.091C219.274 188.14 219.406 186.969 219.204 185.894C219.047 185.059 219.018 184.198 218.885 183.35C218.749 182.449 218.732 181.489 218.885 180.592C219.394 177.539 220.043 174.516 220.552 171.464C221.028 168.61 221.652 165.769 221.524 162.844C221.408 160.284 220.354 158.307 218.033 157.058C215.361 155.623 212.706 154.151 210.051 152.687C209.65 152.463 209.253 152.223 208.885 151.946C208.392 151.57 208.111 151.074 208.066 150.428C207.871 147.583 207.135 144.845 206.37 142.119C206.031 140.907 205.576 139.741 204.918 138.662C204.153 137.413 203.686 137.164 202.321 137.417C199.992 137.847 197.668 138.327 195.344 138.769C191.658 139.468 187.969 140.159 184.28 140.837C183.899 140.907 183.486 140.912 183.101 140.85C180.177 140.399 177.257 139.907 174.329 139.464C173.551 139.348 172.753 139.356 171.963 139.307H171.947Z" fill="#FFB68A"/>
<path d="M199.245 211.324C198.542 211.129 197.809 211.022 197.115 211.249C195.555 211.758 193.934 211.936 192.342 212.267C191.432 212.457 190.596 212.775 189.769 213.168C189.178 213.615 188.702 214.144 188.421 214.847C187.701 216.634 187.255 218.47 187.019 220.394C186.663 223.285 186.634 226.192 186.382 229.083C186.295 230.068 186.258 231.077 186.382 232.053C186.56 233.438 186.568 234.824 186.605 236.209C186.688 239.183 186.973 242.14 187.325 245.089C187.647 247.778 187.879 250.474 188.243 253.159C188.897 257.931 189.467 262.717 190.357 267.456C191.146 271.675 191.829 275.91 192.569 280.137C192.718 280.981 192.904 281.821 193.078 282.66C196.188 282.677 199.257 282.271 202.338 281.916C210.747 280.952 218.994 279.19 227.133 276.948C235.033 274.773 242.767 272.093 250.096 268.362C250.137 267.502 250.117 266.654 249.902 265.806C249.773 265.302 249.769 264.76 249.749 264.235C249.72 263.374 249.761 262.514 249.711 261.658C249.509 258.2 249.856 254.821 250.869 251.488C251.821 248.353 251.895 245.089 251.618 241.867C251.415 239.518 251.13 237.144 250.303 234.89C250.212 234.646 250.191 234.377 250.137 234.117C248.979 231.565 247.362 229.298 245.708 227.057C244.049 227.553 242.602 228.5 241.071 229.265C238.714 230.452 236.389 231.714 234.044 232.926C233.498 233.207 232.977 233.48 232.965 234.195C233.184 235.746 233.345 237.306 233.639 238.844C233.825 239.824 233.904 240.784 233.784 241.764C234.049 243.174 233.631 244.539 233.391 245.883C232.502 250.855 230.454 255.33 227.208 259.209C225.822 260.864 224.11 262.063 221.922 262.481C220.95 262.667 220.007 263.056 219.035 263.143C216.463 263.37 214.068 262.804 211.868 261.381C209.436 259.809 207.479 257.774 205.924 255.371C203.951 252.319 202.132 249.184 200.68 245.834C199.6 243.348 198.393 240.924 197.578 238.331C197.003 236.503 196.358 234.696 195.882 232.843C195.262 230.411 195.014 227.946 195.241 225.411C195.407 223.558 195.638 221.734 196.155 219.959C196.858 217.544 197.83 215.236 199.29 213.164C199.278 212.552 199.265 211.94 199.253 211.328L199.245 211.324Z" fill="#8A8ADD"/>
<path d="M263.021 130.986C262.516 131.507 262.032 132.053 261.503 132.549C259.927 134.018 258.814 135.771 258.115 137.81C257.367 139.994 256.535 142.149 255.816 144.341C255.497 145.309 255.03 146.128 254.319 146.856C251.878 149.362 249.699 152.088 247.569 154.863C245.203 157.944 242.759 160.972 240.335 164.011C237.953 166.998 235.55 169.975 233.155 172.953C231.174 175.418 229.193 177.883 227.195 180.336C225.284 182.689 223.349 185.022 221.434 187.375C221.277 187.57 221.21 187.843 221.103 188.083C221.74 189.402 222.013 190.829 222.344 192.239C222.766 194.03 223.163 195.829 223.593 197.616C223.659 197.889 223.932 198.046 224.213 197.872C225.057 197.359 225.88 196.805 226.724 196.297C228.982 194.936 231.252 193.596 233.515 192.239C237.188 190.035 240.852 187.81 244.529 185.613C246.849 184.228 249.182 182.863 251.531 181.527C253.938 180.154 256.378 178.843 258.785 177.47C259.914 176.825 261.085 176.49 262.388 176.696L262.508 176.576C262.615 176.469 262.723 176.357 262.83 176.25L262.797 176.283C262.872 176.076 262.996 175.915 263.223 175.861L263.203 175.882C263.24 175.046 263.744 174.405 264.15 173.743C266.338 170.153 268.583 166.592 270.771 163.002C272.376 160.364 274.03 157.75 275.321 154.933C276.198 153.022 277.124 151.132 277.931 149.188C278.712 147.311 279.606 145.47 280.077 143.477C279.312 143.257 278.613 142.931 277.984 142.418C275.548 140.433 273.096 138.46 270.627 136.512C270.163 136.148 269.948 135.738 269.957 135.172C269.965 134.646 269.998 134.154 270.287 133.662C270.982 132.475 271.607 131.251 272.231 130.031C272.438 129.625 272.632 129.191 272.707 128.748C272.951 127.317 272.455 126.652 271.011 126.424C270.771 126.387 270.486 126.432 270.258 126.527C269.539 126.842 268.807 127.152 268.257 127.76C267.421 128.686 266.441 129.46 265.763 130.543C265.175 131.486 264.745 131.532 263.567 131.18C263.376 131.123 263.194 131.056 263.008 130.99L263.021 130.986Z" fill="#F5BA92"/>
<path d="M135.03 166.415C134.282 166.675 133.537 166.936 132.789 167.192C128.363 168.723 125.319 171.841 123.073 175.803C121.8 178.049 120.857 180.448 120.323 182.996C119.546 186.718 119.988 190.362 120.923 193.981C122.048 198.34 124.223 202.174 126.941 205.714C131.552 211.728 137.309 216.426 143.807 220.248C148.212 222.841 152.865 224.88 157.869 226.009C159.995 226.489 162.15 226.841 164.296 227.196C166.157 227.502 167.994 227.213 169.785 226.696C171.724 226.138 172.337 224.041 171.067 222.452C170.819 222.142 170.537 221.865 170.26 221.58C166.224 217.39 162.187 213.205 158.15 209.015C156.455 207.253 154.775 205.479 153.071 203.721C152.819 203.46 152.699 203.191 152.707 202.844C152.31 202.836 151.909 202.848 151.599 202.534C150.768 201.686 149.825 200.921 149.122 199.978C146.33 196.235 143.538 192.488 141.16 188.463C140.324 187.049 139.506 185.614 138.794 184.129C138.083 182.648 137.479 181.114 136.9 179.575C135.763 176.544 134.89 173.454 135.006 170.166C135.051 168.913 135.022 167.66 135.026 166.402L135.03 166.415Z" fill="#894100"/>
<path d="M262.396 176.688C261.098 176.481 259.927 176.816 258.794 177.461C256.387 178.834 253.947 180.146 251.54 181.519C249.19 182.859 246.858 184.224 244.537 185.605C240.856 187.801 237.196 190.026 233.523 192.231C231.261 193.587 228.99 194.927 226.732 196.288C225.884 196.797 225.065 197.351 224.222 197.864C223.94 198.038 223.667 197.88 223.601 197.607C223.167 195.817 222.77 194.022 222.352 192.231C222.021 190.82 221.748 189.393 221.111 188.074C220.524 188.182 220.309 188.699 219.982 189.092C219.527 190.291 219.461 191.47 219.813 192.744C220.334 194.63 220.673 196.569 221.078 198.488C221.231 199.216 220.987 199.597 220.313 199.878C219.871 200.064 219.416 200.085 218.957 200.064C215.991 199.924 213.266 200.85 210.606 202C208.861 202.757 207.161 203.625 205.593 204.729C203.05 206.516 200.845 208.621 199.249 211.318C199.261 211.93 199.274 212.542 199.286 213.154C200.031 213.212 200.606 213.088 201.168 212.418C203.087 210.131 205.424 208.344 208.001 206.806C211.686 204.61 215.656 203.394 219.875 202.839C222.009 202.558 223.845 201.532 225.694 200.511C227.882 199.299 229.892 197.781 232.183 196.747C233.205 196.288 234.231 195.841 235.256 195.399C237.626 194.373 239.773 192.946 241.961 191.614C247.019 188.533 252.015 185.353 256.916 182.023C258.384 181.026 259.82 179.976 261.313 179.016C262.206 178.442 262.57 177.714 262.396 176.688Z" fill="#E7A47C"/>
<path d="M135.031 166.415C135.026 167.668 135.051 168.925 135.01 170.178C134.894 173.466 135.763 176.556 136.904 179.588C137.483 181.126 138.087 182.66 138.798 184.141C139.51 185.622 140.329 187.057 141.164 188.476C143.542 192.5 146.334 196.247 149.126 199.99C149.829 200.933 150.772 201.698 151.603 202.546C151.913 202.86 152.319 202.848 152.712 202.856C153.431 202.137 154.155 201.417 154.879 200.697C154.759 200.056 154.304 199.684 153.799 199.353C152.741 198.658 151.856 197.794 151.181 196.719C151.045 196.499 150.867 196.293 150.681 196.111C148.237 193.778 146.33 191.023 144.564 188.174C141.669 183.508 139.435 178.553 138.302 173.152C138.021 171.812 137.951 170.426 137.814 169.062C137.673 167.664 138.174 166.34 138.36 164.979C138.468 164.198 138.587 163.433 138.55 162.643C137.173 163.71 135.969 164.938 135.031 166.415Z" fill="#5E3816"/>
<path d="M263.021 130.987C263.207 131.049 263.393 131.12 263.579 131.178C264.762 131.529 265.188 131.48 265.776 130.541C266.454 129.453 267.438 128.68 268.27 127.757C268.82 127.149 269.548 126.839 270.271 126.525C270.495 126.425 270.784 126.38 271.024 126.421C272.468 126.653 272.96 127.319 272.72 128.746C272.645 129.188 272.451 129.627 272.244 130.028C271.62 131.252 270.991 132.476 270.3 133.659C270.011 134.151 269.978 134.644 269.969 135.169C269.961 135.735 270.176 136.141 270.639 136.509C273.109 138.457 275.557 140.43 277.997 142.415C278.626 142.928 279.325 143.255 280.09 143.474C280.417 143.362 280.748 143.25 281.079 143.139C281.269 142.072 280.673 141.385 279.912 140.81C278.709 139.9 277.476 139.032 276.268 138.13C275.218 137.344 274.184 136.534 273.138 135.744C272.753 135.454 272.712 135.09 272.939 134.706C273.444 133.862 273.998 133.043 274.494 132.195C275.255 130.88 275.921 129.536 275.933 127.952C275.938 127.116 275.698 126.396 275.197 125.755C274.407 124.742 273.386 124.006 272.17 123.63C270.515 123.117 269.006 123.63 267.773 124.726C266.251 126.074 264.766 127.488 263.848 129.37C263.646 129.788 263.431 130.206 262.876 130.239C262.926 130.491 262.971 130.739 263.021 130.992V130.987Z" fill="#E7A47C"/>
<path d="M256.163 298.917C256.308 299.86 256.407 300.82 256.85 301.688C257.954 301.787 258.554 301.233 258.885 300.22C259.782 297.461 260.738 294.719 261.635 291.96C262.876 288.135 264.1 284.305 265.308 280.471C266.636 276.261 267.943 272.046 269.258 267.831C270.474 263.931 271.698 260.035 272.906 256.131C274.502 250.969 276.144 245.824 277.645 240.634C278.196 238.727 278.923 236.895 279.573 235.034C280.003 233.797 280.636 232.643 281.471 231.58C282.613 230.132 283.609 228.573 284.66 227.059C286.802 223.974 288.908 220.864 291.091 217.807C294.702 212.766 298.164 207.633 301.584 202.463C302.134 201.632 302.556 200.738 303.024 199.87C303.354 199.249 303.371 198.608 303.255 197.942C303.168 197.471 302.689 197.21 302.196 197.335C301.787 197.434 301.502 197.703 301.22 197.98C300.182 198.997 299.202 200.052 298.346 201.239C295.111 205.726 291.807 210.16 288.568 214.648C285.603 218.763 282.654 222.895 279.767 227.064C278.27 229.227 276.736 231.386 275.875 233.917C275.623 234.665 275.329 235.402 275.135 236.167C274.481 238.719 273.733 241.242 272.947 243.756C271.491 248.409 270.102 253.079 268.675 257.74C268.075 259.692 267.438 261.632 266.838 263.584C265.432 268.183 264.047 272.786 262.644 277.385C261.664 280.599 260.663 283.804 259.691 287.022C258.926 289.545 258.14 292.06 257.462 294.603C257.073 296.059 256.875 297.561 256.159 298.913L256.163 298.917Z" fill="#494A45"/>
<path d="M342.24 146.091C341.926 146.277 341.802 146.562 341.818 146.914C342.187 146.757 342.356 146.496 342.24 146.091Z" fill="#FBFAFA"/>
<path d="M343.026 145.322C342.886 145.459 342.741 145.595 342.6 145.728C342.849 145.707 342.956 145.533 343.026 145.322Z" fill="#FBFAFA"/>
<path d="M342.639 145.693C342.494 145.838 342.349 145.979 342.204 146.123C342.527 146.161 342.61 145.958 342.639 145.693Z" fill="#FBFAFA"/>
<path d="M306.395 180.995C306.473 180.883 306.498 180.759 306.465 180.627C306.337 180.664 306.229 180.734 306.147 180.838C306.192 180.95 306.271 181.003 306.395 180.991V180.995Z" fill="#FFB68A"/>
<path d="M276.698 165.971C277.517 165.814 278.092 165.227 278.729 164.772C284.635 160.545 290.529 156.297 296.422 152.05C297.762 151.086 299.086 150.102 300.409 149.113C300.612 148.96 300.835 148.782 300.765 148.472C300.691 148.154 300.393 148.133 300.149 148.063C299.388 147.843 298.627 147.62 297.858 147.434C293.755 146.441 289.648 145.465 285.545 144.473C285.098 144.365 284.656 144.216 284.213 144.088C284.139 144.208 284.068 144.332 283.994 144.452C284.122 145.407 283.804 146.28 283.485 147.148C282.124 150.871 280.755 154.589 279.407 158.315C278.489 160.859 277.6 163.415 276.694 165.963L276.698 165.971Z" fill="#6E7067"/>
<path d="M345.756 111.939C344.834 111.729 343.994 112.266 343.233 113.106C342.083 114.376 340.776 115.484 339.779 116.907C339.097 117.879 338.166 118.66 336.851 118.743C336.665 118.755 336.483 118.867 336.309 118.954C336.024 119.099 335.912 119.55 336.078 119.814C336.413 120.352 336.864 120.654 337.525 120.699C338.803 120.782 339.841 120.215 340.784 119.483C341.405 119.004 341.996 118.425 342.418 117.771C342.935 116.981 343.634 116.386 344.23 115.687C345.255 114.471 346.517 114.529 347.832 115C348.448 115.223 349.048 115.529 349.606 115.877C352.001 117.382 354.445 118.813 356.617 120.646C357.729 121.584 357.853 121.936 357.353 123.388C356.472 125.952 355.459 128.442 353.66 130.543C353.201 131.081 352.928 131.792 352.642 132.458C352.39 133.045 352.572 133.521 353.052 133.831C353.709 134.253 354.164 134.278 354.669 133.806C355.149 133.359 355.695 132.913 355.992 132.35C357.324 129.852 358.954 127.491 359.797 124.761C360.827 121.427 360.951 120.79 358.399 118.454C357.626 117.746 356.811 117.06 355.934 116.485C354.226 115.364 352.514 114.243 350.715 113.288C349.267 112.518 347.712 111.927 345.756 111.939Z" fill="#E7A47C"/>
<path d="M233.787 241.764C233.903 240.78 233.825 239.82 233.643 238.844C233.353 237.31 233.188 235.746 232.968 234.195C231.872 234.555 231.016 235.32 230.247 236.085C227.583 238.745 224.577 241.04 222.041 243.828C221.731 244.171 221.384 244.481 221.086 244.833C220.701 245.288 220.949 245.917 221.533 246.049C222.087 246.177 222.554 245.958 223.055 245.764C226.186 244.543 229.325 243.348 232.468 242.153C232.898 241.992 233.349 241.888 233.791 241.76L233.787 241.764Z" fill="#E6A37C"/>
<path d="M283.849 144.043C283.899 144.184 283.948 144.32 283.994 144.457C284.068 144.333 284.138 144.213 284.213 144.089C284.089 144.076 283.969 144.064 283.849 144.039V144.043Z" fill="#E6A37C"/>
<path d="M263.231 175.853C263.004 175.91 262.88 176.068 262.805 176.274C263.021 176.208 263.165 176.072 263.231 175.853Z" fill="#FBFAFA"/>
</svg>
