<svg width="500" height="500" viewBox="0 0 500 500" fill="none" xmlns="http://www.w3.org/2000/svg">
<path d="M229.201 414.222C229.695 415.494 230.727 416.314 231.74 417.121C236.137 420.62 240.898 423.567 245.809 426.284C247.594 427.273 249.509 427.796 251.535 427.82C255.293 427.863 259.052 428.137 262.815 427.911C270.552 427.45 278.299 427.129 286.003 426.236C287.481 426.063 288.835 425.636 290.107 424.849C290.817 424.407 291.614 424.095 292.387 423.764C298.541 421.157 304.06 417.62 308.664 412.738C311.625 409.599 314.044 406.038 316.372 402.419C319.785 397.115 322.67 391.528 325.199 385.753C326.442 382.921 327.177 379.941 327.734 376.921C328.362 373.528 328.91 370.12 329.423 366.707C329.697 364.888 329.874 363.05 330.018 361.216C330.407 356.243 330.734 351.266 331.118 346.293C331.487 341.474 331.9 336.655 332.274 331.836C332.457 329.465 332.61 327.089 332.759 324.713C333.138 318.737 333.508 312.761 333.887 306.79C334.43 298.212 334.996 289.635 335.524 281.057C335.918 274.621 336.268 268.184 336.642 261.747C336.772 259.525 336.921 257.302 337.05 255.08C337.122 253.904 337.545 252.834 338.101 251.821C338.802 250.539 339.561 249.296 340.285 248.034C340.708 247.295 341.236 246.642 341.831 246.037C345.652 242.139 349.223 238.031 352.391 233.576C353.504 232.012 354.762 230.557 355.88 228.997C360.445 222.633 364.659 216.042 368.61 209.279C377.61 193.862 384.91 177.633 391.597 161.122C393.061 157.507 394.021 153.686 395.153 149.943C395.821 147.744 396.641 145.584 396.939 143.285C396.31 143.227 395.763 142.954 395.254 142.608C392.35 140.621 389.177 139.09 386.24 137.141C382.045 134.348 377.667 131.823 373.371 129.178C372.315 128.53 372.215 128.511 371.485 129.428C368.927 132.663 366.387 135.917 363.843 139.167C363.565 139.527 363.368 139.959 362.893 140.112C362.812 140.357 362.687 140.559 362.399 140.583L362.447 140.544C362.418 140.851 362.317 141.087 361.943 141.043L361.981 141.005C362.116 141.475 361.914 141.778 361.492 141.96L361.516 141.936C361.208 143.002 360.431 143.77 359.797 144.619C349.06 159.082 338.313 173.534 327.551 187.977C324.575 191.971 321.604 195.974 318.374 199.771C318.095 200.097 317.923 200.606 317.212 200.515C318.268 194.174 319.319 187.838 320.375 181.507C320.231 181.521 320.14 181.459 320.087 181.324C319.799 181.574 319.492 181.809 319.219 182.073C314.553 186.609 309.873 191.131 305.232 195.695C302.28 198.599 299.097 201.225 295.857 203.788C292.737 206.255 289.536 208.626 286.469 211.161C283.166 213.887 279.965 216.738 276.744 219.561C274.09 221.889 271.301 224.001 268.085 225.537C265.531 226.756 263.069 228.157 260.564 229.477C260.52 229.698 260.506 229.933 260.424 230.14C258.812 234.229 257.189 238.314 255.562 242.399C255.456 242.667 255.245 242.898 255.087 243.147C255.149 243.445 255.173 243.762 255.279 244.045C256.239 246.661 256.57 249.416 256.805 252.143C257.127 255.886 257.04 259.674 255.936 263.307C254.76 267.176 254.357 271.097 254.592 275.11C254.65 276.104 254.602 277.107 254.636 278.101C254.655 278.71 254.664 279.339 254.813 279.924C255.063 280.908 255.087 281.892 255.039 282.891C255.605 284.652 255.696 286.5 255.946 288.31C256.416 291.718 256.964 295.111 257.64 298.486C258.773 304.102 259.935 309.713 261.154 315.31C261.375 316.337 261.375 317.46 262.085 318.353C262.915 316.783 263.146 315.036 263.597 313.351C264.384 310.399 265.296 307.481 266.184 304.553C267.312 300.823 268.474 297.099 269.611 293.369C271.239 288.032 272.847 282.689 274.478 277.352C275.17 275.086 275.914 272.835 276.61 270.569C278.266 265.16 279.878 259.741 281.568 254.341C282.48 251.423 283.349 248.495 284.107 245.533C284.333 244.65 284.674 243.791 284.966 242.922C285.965 239.984 287.745 237.479 289.483 234.968C292.833 230.13 296.251 225.335 299.697 220.559C303.451 215.351 307.291 210.206 311.044 204.998C312.038 203.62 313.175 202.396 314.38 201.215C314.707 200.894 315.038 200.582 315.513 200.467C316.084 200.327 316.641 200.625 316.742 201.172C316.881 201.945 316.862 202.689 316.473 203.409C315.931 204.422 315.446 205.454 314.803 206.418C310.833 212.418 306.811 218.375 302.625 224.226C300.086 227.769 297.648 231.383 295.161 234.964C293.937 236.72 292.781 238.535 291.461 240.21C290.491 241.439 289.757 242.783 289.257 244.218C288.504 246.378 287.659 248.509 287.021 250.717C285.278 256.736 283.373 262.712 281.52 268.702C280.118 273.229 278.702 277.755 277.286 282.281C275.76 287.172 274.243 292.064 272.703 296.95C271.296 301.399 269.88 305.844 268.44 310.284C267.399 313.486 266.295 316.668 265.248 319.869C264.864 321.045 264.168 321.689 262.887 321.573C262.723 322.831 263.184 324.007 263.467 325.183C264.058 327.66 264.6 330.113 263.933 332.661C263.856 332.949 263.904 333.271 263.89 333.578C263.751 336.794 263.693 340.01 263.52 343.226C263.227 348.659 263.381 354.107 263.002 359.546C262.863 361.533 262.824 363.539 262.925 365.526C263.011 367.182 262.402 368.454 261.471 369.741C255.356 378.184 249.269 386.646 243.197 395.118C239.938 399.668 236.799 404.295 233.314 408.682C231.889 410.478 230.343 412.196 229.201 414.207V414.222Z" fill="#696D65"/>
<path d="M260.578 229.492C263.084 228.172 265.546 226.77 268.099 225.551C271.315 224.015 274.099 221.903 276.758 219.575C279.979 216.753 283.181 213.902 286.483 211.176C289.55 208.641 292.752 206.27 295.872 203.803C299.112 201.24 302.294 198.614 305.246 195.71C309.883 191.145 314.563 186.624 319.233 182.088C319.507 181.824 319.809 181.589 320.097 181.339C320.193 181.219 320.313 181.133 320.467 181.094C320.855 180.322 321.532 179.798 322.123 179.203C326.563 174.768 330.988 170.319 335.471 165.927C337.977 163.469 340.314 160.848 343.122 158.684C345.292 157.013 347.202 154.992 349.194 153.101C352.799 149.679 356.384 146.237 359.98 142.805C360.2 142.594 360.407 142.349 360.666 142.201C360.92 142.057 361.232 142.023 361.52 141.941L361.496 141.965C361.482 141.553 361.621 141.226 361.986 141.01L361.948 141.049C362.116 140.881 362.284 140.717 362.452 140.549L362.404 140.588C362.567 140.429 362.735 140.276 362.898 140.117C363.373 139.964 363.57 139.527 363.848 139.172C366.387 135.922 368.927 132.668 371.49 129.433C372.215 128.516 372.32 128.535 373.376 129.183C377.672 131.828 382.05 134.353 386.245 137.146C389.178 139.1 392.355 140.631 395.259 142.613C395.768 142.959 396.315 143.233 396.944 143.29C399.075 140.924 400.525 138.164 401.739 135.241C403.246 131.626 404.59 127.964 405.42 124.129C405.483 123.831 405.627 123.538 405.646 123.241C405.886 118.945 406.054 114.654 404.542 110.511C404.307 109.864 404.072 109.211 403.745 108.606C402.526 106.355 400.736 104.828 398.245 104.032C394.376 102.793 390.445 101.795 386.514 100.777C378.882 98.7997 371.231 96.8845 363.623 94.8109C360.45 93.9422 357.901 94.8493 355.592 96.9085C354.21 98.1421 353.039 99.5197 352.333 101.296C351.508 103.374 351.849 105.356 352.53 107.348C352.703 107.857 352.957 108.332 353.149 108.832C353.634 110.08 353.624 110.075 352.545 111.068C351.921 111.639 351.364 112.263 350.884 112.969C349.242 115.374 347.538 117.735 345.916 120.155C345.22 121.196 344.38 122.027 343.333 122.718C340.204 124.786 336.974 126.716 334.074 129.121C331.77 131.031 329.356 132.788 326.889 134.478C326.582 134.689 326.299 134.991 325.775 134.737C326.198 131.511 326.015 128.223 326.097 124.945C326.155 122.607 325.756 120.38 324.979 118.187C324.158 115.868 323.308 113.574 321.868 111.548C321.014 110.348 319.991 109.34 318.748 108.534C317.62 107.804 316.42 107.353 315.081 107.377C311.865 107.435 308.635 107.152 305.443 107.771C305.366 107.785 305.289 107.79 305.212 107.785C301.987 107.675 298.79 108.164 295.584 108.38C292.305 108.601 289.003 108.582 285.744 109.12C285.144 109.22 284.515 109.23 283.906 109.196C281.515 109.076 279.178 109.614 276.807 109.7C275.765 109.739 274.858 110.248 274.095 110.871C270.883 113.507 269.189 116.881 269.362 121.1C269.386 121.657 269.583 122.142 269.88 122.603C270.523 122.564 270.768 122.079 271.008 121.595C272.074 119.415 273.797 117.774 275.563 116.204C276.994 114.937 278.746 114.337 280.666 114.932C282.077 115.369 283.262 116.223 284.179 117.399C284.76 118.143 285.038 118.983 285.034 119.948C285.019 121.787 284.246 123.347 283.363 124.873C282.792 125.862 282.149 126.807 281.558 127.786C281.294 128.228 281.342 128.65 281.789 128.991C283.003 129.913 284.203 130.854 285.422 131.761C286.824 132.807 288.254 133.815 289.651 134.871C290.534 135.538 291.225 136.335 291.005 137.573C292.07 137.953 293.256 137.957 294.225 138.629C294.365 138.653 294.509 138.673 294.648 138.687C295.161 138.836 295.67 139.009 296.193 139.133C300.955 140.281 305.721 141.418 310.483 142.57C311.376 142.786 312.259 143.045 313.142 143.3C313.425 143.381 313.771 143.401 313.857 143.775C313.939 144.135 313.68 144.346 313.444 144.519C311.908 145.661 310.372 146.804 308.817 147.927C301.977 152.856 295.142 157.786 288.283 162.691C287.544 163.219 286.877 163.901 285.926 164.083C285.59 164.391 285.283 164.741 284.914 165C282.048 167.04 279.173 169.075 276.293 171.087C274.661 172.229 273.01 173.333 271.632 174.792C271.263 175.181 270.874 175.565 270.279 175.574L270.303 175.55C270.231 175.805 270.063 175.968 269.808 176.04L269.847 176.002C269.722 176.126 269.597 176.256 269.472 176.381L269.333 176.52C269.535 177.71 269.112 178.555 268.075 179.222C266.343 180.336 264.677 181.555 262.973 182.712C257.285 186.576 251.487 190.262 245.617 193.843C243.077 195.393 240.581 197.045 237.836 198.235C236.646 198.753 235.455 199.267 234.27 199.8C231.61 201 229.278 202.761 226.739 204.168C224.588 205.358 222.462 206.544 219.985 206.87C215.094 207.513 210.481 208.924 206.204 211.473C203.214 213.254 200.502 215.332 198.275 217.987C197.622 218.764 196.955 218.908 196.091 218.841C194.392 221.246 193.269 223.924 192.453 226.727C191.853 228.786 191.584 230.903 191.392 233.054C191.128 235.996 191.416 238.861 192.136 241.679C192.683 243.829 193.437 245.927 194.104 248.049C195.049 251.058 196.456 253.876 197.704 256.756C199.393 260.644 201.501 264.282 203.79 267.824C205.595 270.618 207.87 272.975 210.688 274.799C213.241 276.45 216.02 277.107 219.006 276.843C220.139 276.742 221.233 276.286 222.356 276.075C224.895 275.59 226.882 274.199 228.49 272.279C232.263 267.771 234.634 262.583 235.666 256.813C235.945 255.248 236.43 253.664 236.122 252.032C235.609 252.181 235.086 252.301 234.586 252.488C230.943 253.876 227.295 255.263 223.662 256.679C223.081 256.904 222.539 257.159 221.895 257.01C221.219 256.856 220.931 256.127 221.377 255.599C221.723 255.191 222.126 254.826 222.486 254.432C225.433 251.197 228.918 248.533 232.009 245.447C232.902 244.559 233.895 243.666 235.167 243.253C235.186 242.418 235.786 242.106 236.42 241.78C239.142 240.373 241.834 238.909 244.575 237.532C246.351 236.639 248.031 235.545 249.956 234.969C250.897 234.052 252.149 233.654 253.263 233.044C255.639 231.743 258.015 230.409 260.578 229.492ZM366.061 101.377C368.331 101.363 370.136 102.049 371.816 102.942C373.904 104.051 375.896 105.352 377.874 106.652C378.891 107.32 379.837 108.112 380.734 108.937C383.696 111.649 383.552 112.388 382.357 116.257C381.378 119.43 379.491 122.166 377.941 125.065C377.591 125.718 376.962 126.236 376.405 126.754C375.819 127.302 375.291 127.273 374.528 126.783C373.971 126.423 373.76 125.876 374.053 125.19C374.384 124.422 374.701 123.591 375.234 122.967C377.322 120.529 378.498 117.635 379.52 114.663C380.096 112.979 379.952 112.571 378.666 111.481C376.146 109.355 373.304 107.699 370.53 105.947C369.887 105.539 369.191 105.184 368.471 104.929C366.944 104.382 365.485 104.315 364.29 105.726C363.599 106.542 362.788 107.228 362.188 108.145C361.693 108.904 361.007 109.576 360.292 110.132C359.197 110.982 357.992 111.639 356.509 111.543C355.741 111.491 355.218 111.14 354.829 110.516C354.637 110.209 354.772 109.691 355.098 109.518C355.3 109.412 355.511 109.288 355.727 109.273C357.248 109.177 358.333 108.27 359.125 107.142C360.282 105.491 361.799 104.2 363.133 102.731C364.016 101.756 364.986 101.137 366.061 101.377Z" fill="#FFB78A"/>
<path d="M229.2 414.222C230.343 412.211 231.888 410.487 233.314 408.697C236.799 404.31 239.938 399.683 243.197 395.132C249.269 386.661 255.355 378.198 261.47 369.755C262.401 368.469 263.011 367.197 262.925 365.541C262.819 363.554 262.862 361.547 263.001 359.56C263.381 354.127 263.222 348.674 263.52 343.24C263.693 340.024 263.755 336.809 263.889 333.593C263.904 333.285 263.856 332.964 263.933 332.676C264.6 330.127 264.057 327.674 263.467 325.198C263.184 324.017 262.723 322.846 262.886 321.588C262.373 320.575 262.257 319.466 262.089 318.372C261.379 317.484 261.384 316.356 261.158 315.329C259.939 309.732 258.778 304.121 257.645 298.505C256.968 295.136 256.416 291.742 255.95 288.329C255.701 286.52 255.61 284.672 255.043 282.91C246.538 287.235 237.562 290.345 228.394 292.875C218.948 295.476 209.377 297.521 199.618 298.64C196.043 299.048 192.481 299.523 188.876 299.503C189.884 305.297 190.921 311.081 192.255 316.817C193.191 320.834 193.83 324.919 194.751 328.941C196.067 334.677 197.382 340.423 198.951 346.092C200.665 352.283 202.436 358.466 204.879 364.427C205.138 365.066 205.369 365.714 205.585 366.371C207.5 372.107 209.41 377.843 211.311 383.579C212.564 387.361 213.989 391.091 215.669 394.691C217.585 398.78 219.908 402.668 222.639 406.287C224.021 408.121 225.38 409.974 226.796 411.779C227.501 412.681 228.226 413.578 229.205 414.226L229.2 414.222Z" fill="#FFB78A"/>
<path d="M164.349 133.138C163.826 132.259 162.938 132.015 162.026 131.847C160.269 131.525 158.498 131.626 156.76 131.904C144.04 133.939 134.945 141.043 128.685 152.078C127.625 153.95 126.905 155.981 126.271 158.035C126.045 158.765 125.82 159.489 125.589 160.219C125.633 161.136 125.493 162.024 125.369 162.931C125.153 164.505 124.572 166.046 124.735 167.668C124.893 169.252 124.975 170.86 125.301 172.415C126.617 178.679 129.209 184.434 132.569 189.849C134.618 193.151 136.836 196.348 139.668 199.06C139.888 199.271 140.09 199.506 140.248 199.765C141.031 201.018 142.053 202.021 143.287 202.823C143.872 203.207 144.4 203.639 144.54 204.383C145.384 204.561 146.09 205.021 146.772 205.521C151.629 209.106 156.976 211.688 162.765 213.392C163.355 213.565 163.936 213.719 164.55 213.772C170.992 214.328 177.241 213.628 183.193 210.949C182.963 210.052 183.395 209.303 183.75 208.545C184.95 205.977 186.217 203.437 187.763 201.061C188.305 200.226 188.478 199.391 188.224 198.45C188.142 198.153 188.065 197.86 187.993 197.562C186.126 189.906 184.216 182.26 182.416 174.585C182.013 172.857 181.235 171.527 179.905 170.38C176.013 167.03 172.533 163.248 168.846 159.676C168.261 159.11 168.04 158.467 167.925 157.661C167.118 151.905 166.245 146.155 165.4 140.405C165.045 137.986 164.694 135.566 164.344 133.147L164.349 133.138Z" fill="#894100"/>
<path d="M164.349 133.138C164.7 135.557 165.05 137.977 165.405 140.396C166.255 146.146 167.124 151.896 167.93 157.651C168.045 158.458 168.266 159.101 168.852 159.667C172.538 163.234 176.013 167.021 179.911 170.371C181.245 171.518 182.018 172.848 182.421 174.576C184.216 182.251 186.127 189.897 187.999 197.553C188.071 197.851 188.152 198.148 188.229 198.441C188.483 199.387 188.311 200.222 187.768 201.052C186.223 203.433 184.955 205.967 183.755 208.535C183.4 209.294 182.968 210.043 183.199 210.94C184.211 213.484 184.84 216.114 185.042 218.85C185.997 218.394 186.971 218.025 188.027 217.804C189.875 217.42 191.757 217.214 193.566 216.623C194.368 216.359 195.218 216.484 196.038 216.71C197.896 213.585 200.45 211.137 203.402 209.063C205.221 207.787 207.194 206.774 209.219 205.895C212.301 204.561 215.464 203.481 218.91 203.649C219.443 203.673 219.971 203.649 220.484 203.433C221.267 203.107 221.55 202.665 221.372 201.82C220.902 199.593 220.508 197.347 219.904 195.153C219.496 193.67 219.573 192.307 220.1 190.915C219.275 189.811 219.428 188.453 219.193 187.205C219.011 186.235 218.977 185.237 218.824 184.253C218.665 183.206 218.646 182.093 218.824 181.051C219.414 177.509 220.168 174 220.758 170.458C221.31 167.146 222.035 163.848 221.886 160.455C221.752 157.483 220.528 155.189 217.835 153.739C214.734 152.074 211.653 150.365 208.571 148.666C208.105 148.407 207.645 148.128 207.217 147.807C206.646 147.37 206.32 146.794 206.267 146.045C206.042 142.743 205.187 139.565 204.299 136.402C203.906 134.996 203.378 133.642 202.614 132.389C201.726 130.94 201.184 130.652 199.6 130.945C196.898 131.444 194.2 132.001 191.503 132.514C187.226 133.325 182.944 134.127 178.663 134.914C178.221 134.996 177.741 135.001 177.295 134.929C173.901 134.405 170.512 133.834 167.114 133.321C166.212 133.186 165.285 133.196 164.369 133.138H164.349Z" fill="#FFB68A"/>
<path d="M196.028 216.715C195.212 216.49 194.363 216.365 193.556 216.629C191.747 217.219 189.865 217.426 188.017 217.81C186.961 218.031 185.992 218.4 185.032 218.856C184.345 219.375 183.793 219.989 183.467 220.805C182.632 222.879 182.113 225.01 181.84 227.242C181.427 230.597 181.393 233.971 181.101 237.326C181 238.469 180.957 239.64 181.101 240.773C181.307 242.381 181.317 243.989 181.36 245.597C181.456 249.048 181.787 252.48 182.195 255.902C182.569 259.022 182.838 262.152 183.26 265.267C184.019 270.806 184.681 276.359 185.713 281.86C186.63 286.756 187.422 291.671 188.281 296.577C188.454 297.556 188.67 298.53 188.872 299.505C192.481 299.524 196.043 299.053 199.619 298.641C209.377 297.522 218.948 295.477 228.394 292.876C237.562 290.351 246.538 287.241 255.043 282.911C255.091 281.913 255.067 280.929 254.818 279.945C254.669 279.359 254.664 278.73 254.64 278.121C254.607 277.123 254.655 276.124 254.597 275.131C254.362 271.118 254.765 267.196 255.941 263.328C257.045 259.689 257.131 255.902 256.81 252.163C256.575 249.437 256.243 246.681 255.283 244.065C255.178 243.782 255.154 243.47 255.091 243.168C253.747 240.206 251.871 237.576 249.951 234.974C248.026 235.55 246.346 236.65 244.57 237.538C241.834 238.915 239.136 240.379 236.415 241.785C235.781 242.112 235.176 242.429 235.162 243.259C235.416 245.059 235.604 246.869 235.944 248.654C236.16 249.792 236.252 250.905 236.112 252.043C236.42 253.68 235.935 255.264 235.656 256.824C234.624 262.593 232.248 267.787 228.481 272.289C226.873 274.209 224.885 275.601 222.346 276.086C221.218 276.302 220.124 276.753 218.996 276.854C216.01 277.118 213.231 276.46 210.678 274.809C207.855 272.985 205.585 270.623 203.78 267.835C201.491 264.292 199.379 260.654 197.694 256.766C196.441 253.881 195.04 251.069 194.094 248.059C193.427 245.937 192.678 243.84 192.126 241.689C191.406 238.867 191.118 236.006 191.382 233.064C191.574 230.914 191.843 228.797 192.443 226.738C193.259 223.935 194.387 221.256 196.081 218.851C196.067 218.141 196.052 217.431 196.038 216.72L196.028 216.715Z" fill="#8A8ADD"/>
<path d="M270.043 123.481C269.458 124.086 268.896 124.72 268.282 125.296C266.453 127 265.162 129.035 264.351 131.401C263.482 133.935 262.517 136.436 261.682 138.98C261.312 140.103 260.77 141.054 259.944 141.899C257.113 144.807 254.583 147.97 252.111 151.191C249.365 154.767 246.529 158.281 243.716 161.809C240.951 165.274 238.162 168.73 235.383 172.186C233.084 175.047 230.785 177.908 228.467 180.754C226.249 183.485 224.003 186.192 221.78 188.923C221.598 189.149 221.521 189.466 221.396 189.744C222.135 191.275 222.452 192.931 222.836 194.568C223.326 196.646 223.787 198.734 224.286 200.808C224.363 201.125 224.679 201.307 225.006 201.106C225.985 200.51 226.94 199.867 227.919 199.277C230.54 197.698 233.175 196.142 235.801 194.568C240.063 192.01 244.316 189.427 248.583 186.879C251.276 185.271 253.983 183.687 256.709 182.136C259.503 180.543 262.335 179.021 265.128 177.428C266.439 176.679 267.797 176.29 269.309 176.53L269.448 176.391C269.573 176.266 269.698 176.136 269.823 176.012L269.784 176.05C269.871 175.81 270.015 175.623 270.279 175.56L270.255 175.584C270.298 174.615 270.883 173.871 271.354 173.103C273.893 168.937 276.499 164.804 279.039 160.637C280.901 157.575 282.821 154.542 284.318 151.273C285.336 149.055 286.411 146.862 287.347 144.606C288.254 142.427 289.291 140.291 289.838 137.977C288.95 137.723 288.139 137.343 287.41 136.748C284.582 134.444 281.736 132.155 278.871 129.894C278.333 129.472 278.083 128.996 278.093 128.339C278.103 127.729 278.141 127.158 278.477 126.587C279.283 125.209 280.008 123.788 280.733 122.372C280.973 121.902 281.199 121.398 281.285 120.884C281.568 119.224 280.992 118.451 279.317 118.187C279.039 118.144 278.707 118.197 278.443 118.307C277.608 118.672 276.759 119.032 276.12 119.737C275.151 120.812 274.013 121.71 273.226 122.968C272.544 124.062 272.045 124.115 270.677 123.707C270.456 123.64 270.245 123.563 270.029 123.486L270.043 123.481Z" fill="#FFB78A"/>
<path d="M121.505 164.598C120.636 164.901 119.772 165.203 118.903 165.501C113.767 167.277 110.235 170.896 107.628 175.494C106.15 178.101 105.056 180.885 104.436 183.841C103.534 188.161 104.048 192.39 105.132 196.59C106.438 201.649 108.963 206.099 112.116 210.207C117.468 217.186 124.15 222.639 131.69 227.074C136.802 230.084 142.202 232.45 148.01 233.76C150.477 234.317 152.978 234.725 155.469 235.138C157.629 235.493 159.76 235.157 161.839 234.557C164.09 233.909 164.8 231.476 163.327 229.633C163.039 229.273 162.712 228.951 162.391 228.62C157.706 223.757 153.021 218.9 148.337 214.038C146.369 211.993 144.42 209.934 142.442 207.894C142.149 207.591 142.01 207.279 142.02 206.876C141.559 206.867 141.093 206.881 140.733 206.516C139.769 205.532 138.674 204.644 137.858 203.55C134.618 199.206 131.378 194.857 128.618 190.187C127.649 188.545 126.698 186.88 125.873 185.156C125.047 183.438 124.347 181.657 123.675 179.872C122.355 176.353 121.342 172.768 121.476 168.952C121.529 167.498 121.495 166.043 121.5 164.584L121.505 164.598Z" fill="#894100"/>
<path d="M269.319 176.52C267.812 176.28 266.453 176.669 265.138 177.417C262.345 179.011 259.513 180.533 256.719 182.126C253.993 183.681 251.285 185.265 248.593 186.869C244.321 189.417 240.073 192 235.811 194.558C233.185 196.132 230.55 197.688 227.929 199.267C226.945 199.857 225.995 200.5 225.015 201.096C224.689 201.297 224.372 201.115 224.296 200.798C223.792 198.72 223.331 196.636 222.846 194.558C222.462 192.921 222.145 191.265 221.406 189.734C220.724 189.859 220.475 190.459 220.096 190.915C219.568 192.307 219.491 193.675 219.899 195.153C220.504 197.342 220.897 199.593 221.368 201.82C221.545 202.665 221.262 203.107 220.48 203.433C219.966 203.649 219.438 203.673 218.905 203.649C215.464 203.486 212.301 204.561 209.214 205.895C207.189 206.774 205.216 207.782 203.397 209.063C200.445 211.137 197.886 213.58 196.034 216.71C196.048 217.42 196.062 218.13 196.077 218.841C196.941 218.908 197.608 218.764 198.261 217.986C200.488 215.332 203.2 213.259 206.19 211.473C210.467 208.924 215.075 207.513 219.971 206.87C222.448 206.543 224.579 205.353 226.724 204.167C229.263 202.761 231.596 201 234.255 199.8C235.441 199.267 236.631 198.748 237.822 198.235C240.572 197.044 243.063 195.388 245.602 193.843C251.473 190.267 257.271 186.576 262.959 182.712C264.663 181.555 266.328 180.336 268.061 179.222C269.098 178.555 269.52 177.71 269.319 176.52Z" fill="#E7A47C"/>
<path d="M121.505 164.598C121.5 166.053 121.529 167.512 121.481 168.966C121.347 172.782 122.355 176.368 123.68 179.886C124.352 181.672 125.052 183.452 125.878 185.171C126.704 186.889 127.654 188.555 128.623 190.201C131.383 194.871 134.623 199.22 137.863 203.564C138.679 204.658 139.774 205.546 140.738 206.53C141.098 206.895 141.569 206.881 142.025 206.89C142.86 206.055 143.7 205.22 144.54 204.385C144.401 203.641 143.873 203.209 143.287 202.825C142.058 202.018 141.031 201.015 140.249 199.767C140.091 199.513 139.884 199.273 139.668 199.062C136.831 196.355 134.619 193.158 132.569 189.851C129.209 184.436 126.617 178.686 125.302 172.417C124.976 170.862 124.894 169.254 124.736 167.67C124.572 166.048 125.153 164.512 125.369 162.933C125.494 162.025 125.633 161.137 125.59 160.221C123.992 161.459 122.595 162.885 121.505 164.598Z" fill="#5E3816"/>
<path d="M270.044 123.482C270.26 123.554 270.476 123.636 270.692 123.703C272.064 124.111 272.559 124.053 273.24 122.964C274.028 121.701 275.17 120.804 276.135 119.733C276.773 119.028 277.618 118.668 278.458 118.303C278.717 118.188 279.053 118.135 279.331 118.183C281.007 118.452 281.578 119.224 281.299 120.88C281.213 121.394 280.987 121.903 280.747 122.368C280.023 123.789 279.293 125.21 278.491 126.583C278.155 127.154 278.117 127.725 278.107 128.335C278.098 128.992 278.347 129.463 278.885 129.89C281.751 132.151 284.592 134.44 287.424 136.744C288.154 137.339 288.965 137.719 289.853 137.973C290.232 137.843 290.616 137.714 291 137.584C291.221 136.346 290.53 135.549 289.646 134.882C288.25 133.826 286.819 132.818 285.418 131.771C284.199 130.859 282.999 129.919 281.784 129.002C281.338 128.666 281.29 128.243 281.554 127.797C282.139 126.818 282.783 125.868 283.359 124.884C284.242 123.357 285.015 121.797 285.029 119.959C285.034 118.989 284.755 118.154 284.175 117.41C283.258 116.234 282.072 115.38 280.661 114.943C278.741 114.348 276.989 114.943 275.559 116.215C273.792 117.78 272.069 119.421 271.004 121.605C270.768 122.09 270.519 122.575 269.876 122.613C269.933 122.906 269.986 123.194 270.044 123.487V123.482Z" fill="#E7A47C"/>
<path d="M262.085 318.372C262.253 319.466 262.368 320.58 262.882 321.588C264.163 321.703 264.859 321.06 265.243 319.884C266.285 316.682 267.394 313.5 268.435 310.299C269.875 305.859 271.296 301.414 272.698 296.964C274.238 292.078 275.755 287.187 277.281 282.296C278.693 277.769 280.113 273.248 281.515 268.717C283.368 262.726 285.273 256.755 287.016 250.731C287.654 248.519 288.499 246.392 289.253 244.232C289.752 242.797 290.486 241.458 291.456 240.224C292.78 238.544 293.937 236.735 295.156 234.978C297.643 231.397 300.086 227.788 302.62 224.241C306.811 218.39 310.828 212.433 314.798 206.433C315.436 205.468 315.926 204.431 316.468 203.423C316.852 202.703 316.871 201.959 316.737 201.187C316.636 200.639 316.079 200.337 315.508 200.481C315.033 200.596 314.702 200.908 314.375 201.23C313.171 202.411 312.033 203.635 311.039 205.012C307.286 210.22 303.451 215.366 299.692 220.574C296.251 225.349 292.828 230.145 289.478 234.983C287.741 237.493 285.96 239.999 284.961 242.936C284.669 243.805 284.328 244.66 284.102 245.548C283.344 248.509 282.475 251.437 281.563 254.355C279.873 259.755 278.261 265.174 276.605 270.584C275.909 272.849 275.17 275.101 274.474 277.366C272.842 282.704 271.234 288.046 269.606 293.384C268.469 297.113 267.307 300.833 266.179 304.567C265.291 307.495 264.379 310.414 263.592 313.366C263.141 315.055 262.911 316.798 262.08 318.367L262.085 318.372Z" fill="#494A45"/>
<path d="M361.981 141.012C361.616 141.228 361.472 141.559 361.492 141.967C361.919 141.785 362.116 141.482 361.981 141.012Z" fill="#FBFAFA"/>
<path d="M362.893 140.119C362.73 140.278 362.562 140.436 362.399 140.59C362.687 140.566 362.811 140.364 362.893 140.119Z" fill="#FBFAFA"/>
<path d="M362.442 140.549C362.274 140.717 362.106 140.88 361.938 141.048C362.312 141.091 362.408 140.856 362.442 140.549Z" fill="#FBFAFA"/>
<path d="M320.38 181.519C320.472 181.389 320.5 181.245 320.462 181.092C320.313 181.135 320.188 181.217 320.092 181.337C320.145 181.466 320.236 181.529 320.38 181.514V181.519Z" fill="#FFB68A"/>
<path d="M285.917 164.084C286.867 163.901 287.534 163.22 288.273 162.692C295.128 157.786 301.968 152.857 308.808 147.927C310.363 146.809 311.899 145.667 313.435 144.519C313.67 144.342 313.929 144.135 313.847 143.775C313.761 143.406 313.415 143.382 313.132 143.3C312.249 143.046 311.366 142.787 310.473 142.571C305.712 141.419 300.945 140.286 296.184 139.134C295.665 139.009 295.152 138.836 294.638 138.688C294.552 138.827 294.47 138.971 294.384 139.11C294.533 140.219 294.163 141.231 293.793 142.239C292.214 146.559 290.625 150.874 289.061 155.199C287.995 158.151 286.963 161.118 285.912 164.074L285.917 164.084Z" fill="#6E7067"/>
<path d="M366.061 101.377C364.991 101.133 364.016 101.757 363.133 102.731C361.799 104.205 360.282 105.491 359.125 107.142C358.333 108.27 357.253 109.177 355.727 109.273C355.511 109.288 355.3 109.417 355.098 109.518C354.767 109.686 354.637 110.209 354.829 110.517C355.218 111.141 355.741 111.491 356.509 111.544C357.992 111.64 359.197 110.982 360.292 110.133C361.012 109.576 361.698 108.904 362.188 108.145C362.788 107.229 363.599 106.537 364.29 105.726C365.48 104.315 366.944 104.382 368.471 104.929C369.186 105.189 369.882 105.544 370.53 105.947C373.309 107.694 376.146 109.355 378.666 111.481C379.957 112.571 380.101 112.979 379.52 114.664C378.498 117.64 377.322 120.529 375.234 122.968C374.701 123.592 374.384 124.417 374.053 125.19C373.76 125.872 373.971 126.424 374.528 126.783C375.291 127.273 375.819 127.302 376.405 126.755C376.962 126.236 377.595 125.718 377.941 125.065C379.486 122.166 381.378 119.425 382.357 116.257C383.552 112.389 383.696 111.649 380.734 108.937C379.837 108.117 378.891 107.32 377.874 106.653C375.891 105.352 373.904 104.051 371.816 102.942C370.136 102.049 368.331 101.363 366.061 101.377Z" fill="#E7A47C"/>
<path d="M236.117 252.044C236.252 250.901 236.161 249.788 235.949 248.655C235.613 246.874 235.421 245.06 235.167 243.26C233.895 243.677 232.902 244.565 232.009 245.453C228.918 248.54 225.428 251.204 222.486 254.439C222.126 254.837 221.722 255.197 221.377 255.605C220.931 256.133 221.219 256.863 221.895 257.016C222.538 257.165 223.081 256.911 223.662 256.685C227.295 255.269 230.938 253.882 234.586 252.495C235.085 252.308 235.609 252.188 236.122 252.039L236.117 252.044Z" fill="#E6A37C"/>
<path d="M294.216 138.636C294.273 138.799 294.331 138.957 294.384 139.116C294.47 138.972 294.552 138.832 294.638 138.688C294.494 138.674 294.355 138.66 294.216 138.631V138.636Z" fill="#E6A37C"/>
<path d="M270.288 175.551C270.024 175.618 269.88 175.8 269.794 176.04C270.043 175.964 270.211 175.805 270.288 175.551Z" fill="#FBFAFA"/>
</svg>
