<svg width="500" height="500" viewBox="0 0 500 500" fill="none" xmlns="http://www.w3.org/2000/svg">
<path d="M84.0653 310.141C83.5298 310.632 83.0707 311.145 82.8817 311.892C81.9816 315.443 80.9735 318.971 80.1499 322.54C79.1868 326.743 78.2418 330.956 77.5352 335.204C76.6441 340.595 76.005 346.032 76.3876 351.523C76.6936 355.942 77.7017 360.217 79.5064 364.236C81.9366 369.646 86.0545 373.431 91.5045 375.78C97.3686 378.309 103.485 379.722 109.857 380.235C119.367 381.005 128.638 380.001 137.796 377.337C142.409 375.991 147.067 374.763 151.819 373.903C157.625 372.85 163.286 371.18 168.966 369.596C182.494 365.82 195.631 360.951 208.619 355.649C214.213 353.368 219.852 351.212 225.469 348.989C229.146 347.535 232.877 346.207 236.378 344.344C237.107 343.957 237.715 344.088 238.403 344.416C244.51 347.324 250.815 349.772 257.044 352.387C264.74 355.618 272.651 358.251 280.694 360.501C290.46 363.228 300.248 365.847 310.194 367.837C317.318 369.259 324.469 370.51 331.715 371.144C333.866 371.333 336.008 371.608 338.16 371.747C340.095 371.873 342.035 371.851 343.974 371.918C347.062 372.026 350.149 372.139 353.236 372.283C356.625 372.44 359.996 372.103 363.362 371.833C367.804 371.482 372.228 370.924 376.625 370.195C377.894 369.983 379.136 369.601 380.392 369.295C380.432 367.931 380.428 366.563 380.527 365.204C380.747 362.274 381.031 359.349 381.269 356.419C381.463 354.061 381.593 351.698 381.818 349.34C382.007 347.342 382.3 345.357 382.516 343.363C382.61 342.508 382.642 341.644 382.66 340.784C382.669 340.289 382.376 340.01 381.868 339.961C381.238 339.898 380.563 340.073 379.987 339.664C376.917 339.457 373.974 338.593 370.986 337.963C369.888 337.729 368.731 337.657 367.746 337.018C366.949 337.063 366.175 336.914 365.405 336.73C363.029 336.167 360.648 335.631 358.272 335.073C348.628 332.814 338.979 330.573 329.343 328.269C326.904 327.684 324.411 327.297 322.035 326.451C320.05 326.68 318.281 325.911 316.486 325.258C316.121 325.294 315.806 325.222 315.635 324.848L315.671 324.839C315.014 324.943 314.393 324.763 313.763 324.601C307.363 322.949 300.977 321.239 294.555 319.691C286.103 317.657 277.687 315.497 269.281 313.282C264.281 311.968 259.227 310.857 254.213 309.592C253.052 309.299 251.787 309.236 250.802 308.404C250.446 308.372 250.077 308.39 249.735 308.296C246.954 307.522 244.146 306.991 241.243 307.022C240.671 307.027 240.1 306.905 239.524 306.883C238.304 306.838 237.075 306.73 235.865 306.811C231.846 307.081 227.823 307.103 223.799 307.099C217.332 307.09 210.865 307.049 204.398 307.045C200.662 307.045 196.923 307.148 193.187 307.085C186.221 306.964 179.249 306.766 172.283 306.572C168.691 306.473 165.105 306.325 161.513 306.194C160.231 305.942 158.957 306.176 157.679 306.221C152.143 306.419 146.608 306.581 141.077 306.757C140.501 306.775 139.916 306.734 139.353 306.82C135.717 307.355 132.035 307.117 128.381 307.477C124.452 307.864 120.487 307.895 116.536 308.08C116.392 308.084 116.248 308.093 116.104 308.102C111.873 308.363 107.643 308.633 103.413 308.89C100.613 309.061 97.8141 309.214 95.0194 309.376C94.8753 309.385 94.7314 309.403 94.5873 309.412C91.077 309.646 87.5667 309.885 84.0563 310.119L84.0653 310.141Z" fill="#696D65"/>
<path d="M191.5 211.5C213.86 208.128 236.165 206.713 258.583 204.034C274.326 190.194 290.585 179.08 311 173C323.893 169.151 337.395 167.494 350.262 163.557C350.748 163.409 351.094 163.562 351.342 163.976C351.486 164.219 351.634 164.471 351.724 164.741C352.341 166.563 353.556 168.121 354.028 170.006C357.761 184.936 373.074 206.11 380 221C382.05 225.441 394.5 257.5 394.5 261.5C394.5 265.5 387.408 285.193 389.204 289.596C390.969 293.924 396.755 302.287 399.937 305.469C400.144 305.411 400.392 305.406 400.545 305.28C401.179 304.763 401.859 304.488 402.71 304.547C403.619 304.61 404.316 305.033 405.014 305.564C406.094 306.383 407.192 307.184 408.079 308.219C409.154 309.479 410.617 310.289 411.778 311.45C412.16 311.833 412.647 311.905 413.16 311.9C414.519 311.891 415.873 311.9 417.232 311.9C419.141 311.9 420.888 312.328 422.475 313.183C422.534 313.215 422.615 313.215 422.682 313.228C424.585 305.224 424.696 296.277 424.901 288.084C425.774 247.497 403.229 188.151 386.778 151.55C385.896 149.579 385.149 147.558 384.325 145.564C381.953 139.836 378.737 131.313 372.773 128.49C356.69 120.879 312.365 137.671 295.703 143.053C292.836 143.976 289.965 144.894 287.134 145.906C278.082 149.155 268.799 151.669 259.983 155.641C257.764 156.645 255.604 157.774 253.444 158.899C241.051 165.391 224.585 177.209 214.501 186.977C207.128 194.128 196.687 201.459 191.5 211.5Z" fill="#FFB68A"/>
<path d="M258.583 204.029C227.672 207.723 197.826 206.482 168.304 217.688C161.471 220.286 155.183 224.208 148.827 227.769C148.079 228.187 147.278 228.538 146.725 229.236C147.283 229.735 147.517 230.428 147.809 231.081C149.038 233.835 150.262 236.59 151.464 239.357C153.552 244.164 155.604 248.988 157.697 253.79C159.875 258.795 162.089 263.781 164.272 268.781C167.085 275.23 169.893 281.684 172.688 288.142C173.858 290.842 174.979 293.565 176.14 296.27C176.459 297.008 176.675 297.755 176.662 298.56C177.089 298.515 177.539 298.543 177.935 298.416C181.77 297.188 185.694 296.414 189.672 295.82C194.069 295.167 198.462 294.533 202.926 294.6C205.581 294.641 208.241 294.582 210.888 294.771C215.032 295.068 219.164 295.514 223.327 295.563C224.69 295.581 226.049 295.622 227.386 295.946C228.381 294.704 229.569 293.682 230.914 292.822C234.366 290.631 237.823 288.453 241.234 286.198C248.412 281.45 255.649 276.792 262.998 272.309C266.675 270.068 270.37 267.859 274.33 266.139C274.195 264.573 273.862 263.052 273.525 261.517C272.975 259.02 272.179 256.571 271.945 254.006C271.346 252.836 271.297 251.531 270.995 250.284C269.213 242.895 267.408 235.514 265.662 228.115C265.235 226.306 264.668 224.515 264.614 222.634C264.11 221.995 264.006 221.216 263.835 220.451C263.309 218.093 262.813 215.726 261.922 213.462C261.427 212.206 260.937 210.942 260.559 209.65C260.136 208.214 259.623 206.815 259.033 205.442C258.84 204.992 258.736 204.497 258.592 204.024L258.583 204.029Z" fill="#8989DE"/>
<path d="M176.662 298.562C176.671 297.756 176.455 297.009 176.14 296.271C174.974 293.566 173.854 290.844 172.688 288.143C169.893 281.685 167.089 275.232 164.272 268.783C162.089 263.783 159.875 258.792 157.697 253.792C155.604 248.985 153.552 244.165 151.464 239.359C150.262 236.591 149.043 233.837 147.81 231.082C147.517 230.43 147.283 229.737 146.725 229.237C145.82 229.341 145.145 229.917 144.443 230.398C141.545 232.392 138.638 234.377 135.789 236.442C132.648 238.72 129.628 241.141 126.869 243.895C124.02 246.744 121.293 249.71 118.629 252.721C113.489 258.526 108.575 264.53 104.034 270.826C100.542 275.664 97.2518 280.637 94.259 285.794C90.6136 292.086 87.5038 298.638 85.2131 305.556C84.718 307.05 84.1645 308.539 84.0655 310.142C87.5758 309.908 91.0862 309.669 94.5965 309.435C94.7405 309.426 94.8845 309.403 95.0285 309.399C97.8278 309.237 100.627 309.084 103.422 308.913C107.652 308.656 111.883 308.386 116.113 308.125C116.257 308.116 116.401 308.112 116.545 308.103C120.496 307.918 124.461 307.891 128.39 307.5C132.045 307.14 135.726 307.378 139.362 306.843C139.929 306.757 140.51 306.798 141.086 306.78C146.621 306.604 152.157 306.442 157.688 306.244C158.966 306.199 160.24 305.965 161.522 306.217C161.968 305.448 162.661 304.948 163.399 304.489C166.387 302.644 169.452 300.947 172.809 299.84C174.092 299.417 175.375 298.994 176.657 298.571L176.662 298.562Z" fill="#FFB68A"/>
<path d="M379.996 339.669C380.576 340.074 381.247 339.898 381.877 339.966C382.39 340.02 382.678 340.299 382.669 340.79C382.656 341.649 382.62 342.513 382.525 343.368C382.309 345.362 382.017 347.347 381.828 349.345C381.607 351.699 381.472 354.066 381.279 356.424C381.04 359.354 380.752 362.279 380.536 365.209C380.432 366.568 380.441 367.936 380.401 369.3C380.509 369.39 380.608 369.543 380.729 369.565C383.326 370.074 385.851 370.929 388.515 371.113C389.438 371.176 390.36 371.361 391.269 371.555C394.33 372.203 397.422 371.942 400.504 371.915C400.864 371.915 401.233 371.915 401.575 371.825C404.001 371.181 406.476 370.74 408.844 369.876C409.663 369.579 410.41 369.192 411.143 368.728C414.843 366.397 416.994 362.95 418.529 358.958C420.315 354.309 421.323 349.475 422.291 344.624C422.781 342.167 423.272 339.696 423.502 337.207C423.857 333.355 424.334 329.48 423.956 325.605C423.736 323.382 423.659 321.168 423.61 318.944C423.592 318.134 423.362 317.387 423.133 316.636C422.403 316.672 422.012 317.225 421.544 317.662C421.229 317.959 420.923 318.319 420.468 318.332C419.177 318.373 417.966 318.926 416.638 318.832C415.279 318.737 413.907 318.8 412.539 318.814C411.454 318.823 410.383 318.836 409.415 318.206C408.862 317.846 408.317 317.959 407.849 318.418C407.593 318.67 407.332 318.917 407.079 319.174C405.243 321.001 403.376 322.801 401.589 324.674C399.748 326.6 397.503 328.067 395.725 330.061C395.306 330.533 394.672 330.803 394.199 331.235C393.182 332.167 392.071 332.315 390.837 331.757C390.689 332.077 390.608 332.468 390.374 332.707C388.308 334.813 386.211 336.892 384.132 338.98C383.7 339.417 383.187 339.583 382.575 339.579C381.715 339.579 380.855 339.633 379.991 339.664L379.996 339.669Z" fill="#FFB68A"/>
<path d="M390.838 331.756C392.071 332.319 393.178 332.166 394.2 331.234C394.672 330.802 395.307 330.532 395.725 330.06C397.503 328.066 399.749 326.594 401.589 324.673C403.38 322.801 405.248 321.005 407.08 319.173C407.336 318.921 407.593 318.669 407.849 318.417C408.317 317.954 408.862 317.846 409.415 318.206C410.383 318.836 411.454 318.827 412.539 318.813C413.907 318.8 415.28 318.732 416.639 318.831C417.962 318.926 419.172 318.372 420.469 318.332C420.919 318.318 421.229 317.954 421.544 317.661C422.012 317.225 422.404 316.671 423.133 316.635C422.98 315.496 422.827 314.362 422.669 313.224C422.597 313.21 422.521 313.215 422.458 313.183C420.868 312.328 419.12 311.901 417.215 311.901C415.856 311.901 414.501 311.896 413.142 311.901C412.624 311.901 412.138 311.833 411.76 311.45C410.599 310.289 409.141 309.479 408.061 308.219C407.174 307.184 406.076 306.383 404.996 305.564C404.298 305.037 403.601 304.61 402.692 304.547C401.846 304.488 401.166 304.763 400.527 305.28C400.374 305.406 400.127 305.411 399.92 305.469C399.663 306.838 400.145 308.039 400.892 309.11C401.621 310.163 402.449 311.158 403.326 312.094C405.001 313.89 405.077 313.912 403.241 315.649C399.492 319.196 396.288 323.26 392.552 326.819C391.99 327.355 391.589 328.057 391.121 328.687C390.541 329.466 390.284 330.339 390.392 331.311C390.541 331.459 390.689 331.612 390.838 331.761V331.756Z" fill="#E7A37B"/>
<path d="M274.326 266.145C270.366 267.869 266.675 270.074 262.994 272.315C255.645 276.793 248.408 281.456 241.23 286.204C237.819 288.458 234.362 290.636 230.911 292.828C229.565 293.683 228.377 294.705 227.382 295.951C228.354 296.726 229.497 297.162 230.627 297.612C235.154 299.43 239.695 301.208 244.223 303.022C244.952 303.314 245.739 303.602 246.311 304.106C247.864 305.479 249.317 306.969 250.811 308.413C251.793 309.246 253.062 309.309 254.223 309.601C259.236 310.866 264.29 311.973 269.29 313.292C277.697 315.506 286.113 317.666 294.565 319.7C300.987 321.248 307.373 322.959 313.772 324.61C314.403 324.772 315.019 324.952 315.681 324.849C314.101 322.031 312.238 319.394 310.37 316.77C306.878 311.865 303.3 307.023 299.79 302.131C296.734 297.882 293.737 293.593 290.685 289.34C285.168 281.654 279.619 273.989 274.331 266.141L274.326 266.145Z" fill="#FFB68A"/>
<path d="M322.665 326.145C322.458 326.249 322.251 326.357 322.044 326.46C324.42 327.306 326.913 327.693 329.353 328.278C338.988 330.583 348.637 332.824 358.281 335.083C360.658 335.641 363.038 336.172 365.414 336.739C366.189 336.924 366.958 337.072 367.755 337.023C373.101 334.394 378.313 331.528 383.313 328.274C385.086 327.122 385.239 327.149 386.855 328.53C387.017 328.67 387.17 328.823 387.332 328.967C388.286 329.836 389.289 330.637 390.396 331.298C390.284 330.326 390.54 329.453 391.125 328.674C391.593 328.044 391.999 327.342 392.557 326.807C396.292 323.247 399.496 319.183 403.245 315.637C405.077 313.904 405.005 313.877 403.331 312.081C402.458 311.145 401.629 310.151 400.896 309.098C400.153 308.026 399.672 306.825 399.924 305.457L399.784 305.317C398.817 305.056 397.863 304.741 396.881 304.539C394.852 304.111 392.809 303.733 390.765 303.364C390.423 303.301 390.045 303.342 389.703 303.418C388.583 303.675 387.453 303.895 386.368 304.26C383.034 305.376 379.685 306.469 376.4 307.725C372.035 309.395 367.525 310.578 363.056 311.915C360.099 312.801 357.134 313.666 354.226 314.687C348.002 316.883 341.81 319.183 335.604 321.424C332.903 322.396 330.19 323.328 327.485 324.273C327.143 324.453 326.778 324.395 326.418 324.354L326.4 324.368C326.252 324.791 325.919 324.863 325.532 324.818C325.392 324.818 325.266 324.863 325.149 324.939C324.321 325.34 323.493 325.74 322.665 326.136V326.145Z" fill="#FFB68A"/>
<path d="M321.773 189.326C321.058 189.231 320.347 189.231 319.636 189.398C319.15 189.51 318.646 189.605 318.151 189.587C316.341 189.533 314.586 189.938 312.813 190.163C311.395 190.343 310 190.689 308.587 190.887C307.089 191.094 305.653 191.009 304.163 190.442C299.204 188.556 294.19 186.828 289.19 185.05C288.857 184.933 288.493 184.911 288.142 184.839C287.512 185.208 286.846 185.401 286.103 185.356C285.351 185.311 284.514 185.527 284.181 186.103C283.619 187.076 282.498 187.418 281.976 188.363C281.535 190.41 281.598 192.494 281.553 194.573C281.553 194.645 281.544 194.717 281.553 194.789C281.625 195.932 281.013 196.693 280.122 197.26C279.64 197.566 279.1 197.782 278.569 198.003C275.185 199.407 271.963 201.139 268.686 202.769C266.076 204.069 264.974 206.805 265.82 209.659C266.513 211.994 267.26 214.312 267.971 216.643C268.304 217.737 268.637 218.835 268.925 219.947C269.118 220.685 268.956 221.018 268.241 221.301C267.044 221.778 265.82 222.192 264.609 222.638C264.663 224.519 265.23 226.31 265.658 228.12C267.404 235.518 269.208 242.899 270.991 250.289C271.292 251.535 271.342 252.84 271.94 254.011C277.435 252.296 282.93 250.577 288.425 248.862C289.334 248.34 289.91 247.512 290.369 246.612C291.058 245.271 291.733 243.921 292.359 242.548C295.225 236.274 298.088 229.996 300.918 223.709C301.265 222.944 301.711 222.431 302.498 222.075C304.397 221.22 306.242 220.253 308.119 219.344C309.681 218.588 310.693 217.404 311.377 215.788C314.708 207.913 317.827 199.956 320.653 191.887C320.959 191.009 321.391 190.181 321.764 189.326H321.773Z" fill="#FFB68A"/>
<path d="M321.774 189.328C321.4 190.178 320.968 191.011 320.662 191.888C317.836 199.958 314.722 207.914 311.387 215.79C310.703 217.406 309.69 218.589 308.128 219.345C306.252 220.255 304.407 221.222 302.507 222.077C301.72 222.433 301.27 222.941 300.928 223.711C298.097 229.998 295.235 236.276 292.368 242.55C291.742 243.922 291.067 245.272 290.379 246.614C289.915 247.514 289.344 248.342 288.435 248.864C288.754 250.389 289.686 251.596 290.577 252.802C291.211 253.666 291.904 254.503 292.669 255.254C297.809 260.304 303.745 264.116 310.523 266.578C312.552 267.311 314.641 267.802 316.81 267.937C317.449 267.977 318.079 268.148 318.709 268.261C318.835 268.094 319.037 267.941 319.074 267.757C319.213 267.023 319.65 266.654 320.356 266.51C320.842 266.411 321.31 266.24 321.796 266.136C324.924 265.47 328.038 264.759 331.085 263.787C333.866 262.905 336.648 262.014 339.303 260.781C340.095 260.412 340.806 260.425 341.472 261.046C341.625 261.19 341.832 261.271 342.012 261.384C346.504 258.81 350.199 255.34 353.259 251.191C354.366 249.692 355.352 248.099 356.346 246.519C358.16 243.639 359.379 240.507 360.27 237.23C360.536 236.263 360.793 235.286 361.13 234.341C361.715 232.698 361.963 231.006 361.999 229.269C362.111 223.342 361.369 217.496 359.856 211.789C356.922 200.732 349.528 193.824 338.961 190.12C333.349 188.153 327.588 187.829 321.778 189.323L321.774 189.328Z" fill="#884100"/>
<path d="M343.552 296.713C346.215 287.38 349.253 271.339 342.044 263.009C341.783 264.44 340.721 265.214 339.565 265.786C337.701 266.704 335.789 267.532 333.858 268.306C330.519 269.638 326.99 270.34 323.512 271.155C321.945 271.524 320.231 271.632 318.656 270.853C318.161 271.335 318.107 272.019 317.922 272.622C314.193 284.617 303.269 319.383 321.617 325.133C334.072 324.515 340.746 306.545 343.552 296.713Z" fill="#894100"/>
<path d="M318.655 270.858C320.23 271.641 321.945 271.528 323.511 271.159C326.99 270.345 330.523 269.643 333.858 268.311C335.788 267.541 337.701 266.713 339.564 265.79C340.721 265.219 341.783 264.44 342.044 263.013C342.03 262.469 342.021 261.924 342.008 261.38C341.828 261.267 341.621 261.186 341.468 261.042C340.802 260.426 340.091 260.408 339.299 260.777C336.643 262.01 333.862 262.901 331.081 263.783C328.034 264.751 324.915 265.466 321.792 266.132C321.306 266.236 320.838 266.407 320.352 266.506C319.645 266.65 319.209 267.019 319.069 267.752C319.033 267.937 318.831 268.09 318.705 268.257C318.498 269.116 318.475 269.985 318.655 270.853V270.858Z" fill="#5D3717"/>
</svg>
