<svg width="500" height="500" viewBox="0 0 500 500" fill="none" xmlns="http://www.w3.org/2000/svg">
<path d="M84.0653 310.141C83.5298 310.632 83.0707 311.145 82.8817 311.892C81.9816 315.443 80.9735 318.971 80.1499 322.54C79.1868 326.743 78.2418 330.956 77.5352 335.204C76.6441 340.595 76.005 346.032 76.3876 351.523C76.6936 355.942 77.7017 360.217 79.5064 364.236C81.9366 369.646 86.0545 373.431 91.5045 375.78C97.3686 378.309 103.485 379.722 109.857 380.235C119.367 381.005 128.638 380.001 137.796 377.337C142.409 375.991 147.067 374.763 151.819 373.903C157.625 372.85 163.286 371.18 168.966 369.596C182.494 365.82 195.631 360.951 208.619 355.649C214.213 353.368 219.852 351.212 225.469 348.989C229.146 347.535 232.877 346.207 236.378 344.344C237.107 343.957 237.715 344.088 238.403 344.416C244.51 347.324 250.815 349.772 257.044 352.387C264.74 355.618 272.651 358.251 280.694 360.501C290.46 363.228 300.248 365.847 310.194 367.837C317.318 369.259 324.469 370.51 331.715 371.144C333.866 371.333 336.008 371.608 338.16 371.747C340.095 371.873 342.035 371.851 343.974 371.918C347.062 372.026 350.149 372.139 353.236 372.283C356.625 372.44 359.996 372.103 363.362 371.833C367.804 371.482 372.228 370.924 376.625 370.195C377.894 369.983 379.136 369.601 380.392 369.295C380.432 367.931 380.428 366.563 380.527 365.204C380.747 362.274 381.031 359.349 381.269 356.419C381.463 354.061 381.593 351.698 381.818 349.34C382.007 347.342 382.3 345.357 382.516 343.363C382.61 342.508 382.642 341.644 382.66 340.784C382.669 340.289 382.376 340.01 381.868 339.961C381.238 339.898 380.563 340.073 379.987 339.664C376.917 339.457 373.974 338.593 370.986 337.963C369.888 337.729 368.731 337.657 367.746 337.018C366.949 337.063 366.175 336.914 365.405 336.73C363.029 336.167 360.648 335.631 358.272 335.073C348.628 332.814 338.979 330.573 329.343 328.269C326.904 327.684 324.411 327.297 322.035 326.451C320.05 326.68 318.281 325.911 316.486 325.258C316.121 325.294 315.806 325.222 315.635 324.848L315.671 324.839C315.014 324.943 314.393 324.763 313.763 324.601C307.363 322.949 300.977 321.239 294.555 319.691C286.103 317.657 277.687 315.497 269.281 313.282C264.281 311.968 259.227 310.857 254.213 309.592C253.052 309.299 251.787 309.236 250.802 308.404C250.446 308.372 250.077 308.39 249.735 308.296C246.954 307.522 244.146 306.991 241.243 307.022C240.671 307.027 240.1 306.905 239.524 306.883C238.304 306.838 237.075 306.73 235.865 306.811C231.846 307.081 227.823 307.103 223.799 307.099C217.332 307.09 210.865 307.049 204.398 307.045C200.662 307.045 196.923 307.148 193.187 307.085C186.221 306.964 179.249 306.766 172.283 306.572C168.691 306.473 165.105 306.325 161.513 306.194C160.231 305.942 158.957 306.176 157.679 306.221C152.143 306.419 146.608 306.581 141.077 306.757C140.501 306.775 139.916 306.734 139.353 306.82C135.717 307.355 132.035 307.117 128.381 307.477C124.452 307.864 120.487 307.895 116.536 308.08C116.392 308.084 116.248 308.093 116.104 308.102C111.873 308.363 107.643 308.633 103.413 308.89C100.613 309.061 97.8141 309.214 95.0194 309.376C94.8753 309.385 94.7314 309.403 94.5873 309.412C91.077 309.646 87.5667 309.885 84.0563 310.119L84.0653 310.141Z" fill="#696D65"/>
<path d="M210.289 191.037C209.204 191.766 208.16 192.536 207.611 193.782C207.656 194.277 207.778 194.804 207.436 195.227C206.036 196.96 204.236 198.215 202.4 199.43C202.143 199.601 201.855 199.498 201.662 199.237C199.893 200.618 198.25 202.131 196.918 203.949C197.422 204.354 197.382 204.808 196.995 205.254C196.617 205.681 196.256 205.6 195.959 205.137C195.428 205.497 194.983 205.924 194.726 206.528C195.082 207.131 195.068 207.23 194.551 207.351C194.357 207.396 194.15 207.378 193.948 207.392C193.246 208.355 192.161 208.985 191.599 210.074C192.166 209.988 192.751 209.97 193.3 209.813C195.793 209.093 198.3 208.508 200.923 208.629C201.067 208.634 201.216 208.629 201.351 208.602C204.033 207.995 206.783 208.292 209.497 207.932C212.616 207.518 215.793 207.527 218.948 207.351C219.164 207.338 219.384 207.351 219.591 207.306C222.417 206.699 225.311 207.036 228.169 206.622C231 206.213 233.889 206.226 236.756 206.05C236.9 206.042 237.048 206.05 237.183 206.019C239.717 205.411 242.327 205.735 244.893 205.321C247.363 204.925 249.893 204.93 252.399 204.754C252.615 204.741 252.827 204.718 253.043 204.691C254.888 204.471 256.738 204.255 258.583 204.034C259.402 203.314 259.681 202.212 260.478 201.451C261.877 200.11 263.34 198.863 264.969 197.815C270.086 194.52 275.523 191.78 280.734 188.643C281.121 188.409 281.531 188.346 281.972 188.377C282.498 187.432 283.614 187.09 284.177 186.118C284.505 185.547 285.347 185.331 286.099 185.371C286.841 185.416 287.507 185.223 288.137 184.853C288.083 184.205 288.614 184.016 289.028 183.769C291.063 182.563 293.11 181.375 295.158 180.196C295.464 180.02 295.802 179.876 296.139 179.777C301.292 178.233 306.445 176.699 311.598 175.164C319.361 172.846 327.125 170.533 334.888 168.215C335.707 167.972 336.544 167.779 337.291 167.324C337.615 166.208 337.93 166.118 339.001 166.829C339.285 166.798 339.577 166.802 339.847 166.721C341.89 166.105 343.929 165.466 345.968 164.845C347.399 164.408 348.835 163.994 350.261 163.557C350.747 163.409 351.094 163.562 351.341 163.976C351.485 164.219 351.634 164.471 351.724 164.741C352.34 166.564 353.556 168.121 354.028 170.007C354.091 170.259 354.343 170.466 354.505 170.695C355.176 170.637 355.725 170.781 356.008 171.492C356.278 172.167 356.476 172.81 355.738 173.328C355.963 174.773 356.701 175.983 357.498 177.162C358.143 177.324 358.277 177.629 357.898 178.076C358.124 179.385 358.668 180.538 359.618 181.483C359.964 181.51 360.351 181.559 360.477 181.91C360.752 182.666 361.157 183.409 360.95 184.264C361.35 186.447 362.421 188.332 363.565 190.191C363.731 190.083 363.916 189.876 364.064 189.898C364.208 189.921 364.406 190.168 364.424 190.33C364.469 190.749 364.424 191.172 364.411 191.595C364.429 191.802 364.397 192.036 364.474 192.216C364.964 193.377 365.455 194.534 365.995 195.673C366.566 196.874 367.084 198.112 367.894 199.187C368.407 199.201 368.848 199.367 369.096 199.844C369.343 200.321 369.739 200.776 369.559 201.37C369.505 201.541 369.294 201.667 369.154 201.816C369.177 202.158 369.271 202.464 369.568 202.675C370.18 202.852 370.474 203.337 370.45 204.129C370.936 206.469 372.025 208.535 373.371 210.479C374.307 210.308 374.492 211.154 374.933 211.645C375.288 212.041 375.333 212.54 375.171 213.026C375.113 213.206 374.901 213.332 374.762 213.485C375.846 215.884 376.922 218.287 378.033 220.677C378.33 221.32 378.753 221.906 379.118 222.518C380.059 222.738 380.063 222.752 379.532 223.409C379.73 224.412 380.306 225.249 380.765 226.136C381.224 227.027 381.746 227.896 382.097 228.827C382.754 230.578 383.618 232.23 384.42 233.913C384.699 234.502 385.041 235.042 385.536 235.474C386.409 235.438 386.814 236.005 387.111 236.703C387.439 237.473 388.092 238.179 387.601 239.111C387.538 239.228 387.394 239.304 387.291 239.399C387.466 240.38 388.047 241.154 388.591 241.946C389.195 242.156 389.484 242.653 389.46 243.436C389.424 243.868 389.658 244.201 389.879 244.538C390.126 244.633 390.513 244.655 390.603 244.831C390.977 245.555 391.274 246.325 391.553 247.094C391.593 247.202 391.35 247.409 391.242 247.571C391.638 248.643 391.827 249.705 391.251 250.785C391.161 250.956 391.193 251.194 391.166 251.401C391.823 251.82 391.787 252.49 391.611 253.071C391.427 253.692 391.463 254.484 390.716 254.831C390.594 254.885 390.446 254.885 390.311 254.912C390.27 255.308 390.23 255.708 390.194 256.104C390.405 256.239 390.702 256.325 390.639 256.649C390.558 257.067 390.18 257.013 389.879 257.067C389.762 257.499 389.645 257.932 389.528 258.359C389.955 258.409 390.369 258.53 390.311 259.061C390.257 259.592 389.816 259.615 389.393 259.606C388.965 260.137 389.077 260.771 389.064 261.379C389.973 261.689 390.041 261.932 389.357 262.522C389.258 262.607 389.118 262.643 388.992 262.706C388.92 262.823 388.906 262.945 388.951 263.071C389.073 263.125 389.217 263.156 389.316 263.242C390.041 263.886 390 264.327 389.168 264.745C388.996 264.831 388.771 264.808 388.573 264.835C388.263 265.371 388.146 265.947 388.209 266.559C388.641 266.608 389.064 266.716 389.014 267.261C388.96 267.801 388.51 267.819 388.087 267.805C387.673 268.346 387.79 268.976 387.79 269.583C388.002 269.592 388.218 269.583 388.425 269.619C388.83 269.696 389.055 269.921 388.888 270.362C388.672 270.933 388.357 271.374 387.642 271.257C387.192 271.946 387.358 272.72 387.327 273.467C387.759 273.512 388.191 273.616 388.15 274.156C388.11 274.7 387.66 274.723 387.232 274.714C386.715 275.699 386.976 276.757 386.94 277.783C387.354 277.81 387.867 277.715 388.074 278.17C388.389 278.859 388.218 279.538 387.876 280.2C387.597 280.74 387.142 280.807 386.634 280.812C386.593 281.676 386.553 282.54 386.512 283.404C387.858 283.615 387.921 283.683 387.543 284.763C387.385 285.209 387.399 285.762 386.881 286.023C387.655 287.216 388.411 288.422 389.204 289.597C390.122 290.956 391.071 292.288 392.012 293.629C393.978 296.433 395.954 299.227 397.907 302.036C398.632 303.075 399.496 304.043 399.798 305.33L399.937 305.47C400.144 305.411 400.392 305.407 400.545 305.281C401.179 304.763 401.859 304.488 402.709 304.547C403.618 304.61 404.316 305.033 405.014 305.564C406.094 306.383 407.192 307.184 408.078 308.219C409.154 309.479 410.617 310.29 411.778 311.451C412.16 311.833 412.646 311.905 413.159 311.901C414.518 311.892 415.873 311.901 417.232 311.901C419.14 311.901 420.888 312.328 422.475 313.183C422.534 313.215 422.615 313.215 422.682 313.228C422.988 311.941 423.335 310.663 423.186 309.317C422.831 309.254 422.453 309.2 422.426 308.737C422.394 308.143 422.826 308.075 423.276 308.048C423.825 307.234 423.596 306.32 423.605 305.434C423.402 305.425 423.191 305.434 422.993 305.398C422.606 305.321 422.385 305.101 422.543 304.682C422.741 304.146 423.015 303.687 423.695 303.728C424.113 303.26 424.023 302.675 424.037 302.126C424.064 301.217 424.055 300.303 424.064 299.389C423.798 299.358 423.452 299.331 423.411 299.043C423.344 298.561 423.776 298.588 424.095 298.534C424.41 298.197 424.433 297.774 424.437 297.351C424.451 295.87 424.46 294.389 424.469 292.913C423.987 292.873 423.42 292.985 423.272 292.315C423.137 291.694 423.321 291.185 423.906 290.884C424.086 290.789 424.32 290.794 424.527 290.753C424.968 289.907 424.878 288.984 424.901 288.084C424.919 287.247 424.91 286.41 424.91 285.573C423.618 285.353 423.555 285.326 423.843 284.349C424.05 283.638 424.091 282.976 423.924 282.256C423.704 281.298 423.744 281.289 424.878 280.825C424.878 280.542 424.883 280.258 424.887 279.97C424.397 280.209 423.947 280.29 423.74 279.624C423.578 279.102 423.762 278.868 424.478 278.683C424.608 278.647 424.752 278.669 424.892 278.665C424.905 277.778 425.126 276.869 424.59 276.041C424.167 276.055 423.78 275.969 423.492 275.623C423.087 275.137 423.24 274.592 423.87 274.385C424.059 274.322 424.275 274.354 424.478 274.345C424.527 273.458 424.563 272.576 424.122 271.757C424.05 271.752 423.983 271.748 423.911 271.739C423.402 271.649 422.858 271.482 422.979 270.857C423.083 270.33 423.65 270.51 424.046 270.461C424.091 269.574 424.122 268.688 423.681 267.868C423.614 267.864 423.542 267.859 423.474 267.85C422.966 267.76 422.435 267.594 422.547 266.973C422.646 266.446 423.209 266.622 423.596 266.572C423.596 264.799 423.344 263.066 422.853 261.365C422.646 261.316 422.304 261.329 422.25 261.212C421.823 260.254 421.305 259.304 421.085 258.296C420.72 256.622 420.22 255.002 419.689 253.373C419.19 251.838 418.956 250.218 418.087 248.809C417.988 248.647 418.06 248.382 418.015 248.175C417.925 247.761 417.867 247.324 417.682 246.946C417.331 246.221 417.129 245.492 417.129 244.678C417.129 244.268 416.962 243.845 416.805 243.454C416.562 242.855 416.256 242.293 416.278 241.617C416.292 241.248 416.161 240.911 415.864 240.672C415.437 240.33 415.302 239.804 415.234 239.34C415.049 238.058 414.473 236.892 414.19 235.659C413.744 233.71 413.258 231.788 412.489 229.943C412.354 229.615 412.264 229.264 412.169 228.922C411.998 228.301 412.426 228.206 412.871 228.134C412.592 226.793 412.309 225.456 411.598 224.255C410.77 224.345 410.207 224.007 409.973 223.206C409.874 222.869 409.905 222.491 409.793 222.158C409.208 220.407 408.978 218.571 408.308 216.829C407.309 214.237 406.476 211.573 405.648 208.917C405.405 208.13 405.194 207.234 405.959 206.523C405.923 205.101 405.428 203.836 404.667 202.657C404.401 202.635 404.131 202.63 403.87 202.585C403.569 202.531 403.416 202.302 403.411 202.018C403.411 201.73 403.56 201.514 403.857 201.433C403.987 201.397 404.118 201.375 404.248 201.348C403.879 200.267 403.488 199.192 403.141 198.103C402.885 197.284 402.525 196.496 402.48 195.619C402.457 195.182 402.277 194.804 402.066 194.417C401.76 193.854 401.454 193.256 401.341 192.639C400.828 189.795 399.618 187.194 398.6 184.52C397.3 184.412 397.066 183.4 396.881 182.414C396.778 181.856 396.751 181.325 396.409 180.812C395.063 178.814 394.811 176.447 394.293 174.174C394.208 173.805 394.411 173.485 394.73 173.269C394.744 172.306 394.266 171.514 393.848 170.7C392.961 170.704 392.601 170.083 392.331 169.395C391.755 167.932 391.233 166.451 390.833 164.926C390.491 163.62 390.207 162.257 389.6 161.069C388.875 159.647 388.681 158.053 387.921 156.663C387.696 156.249 387.822 155.821 388.267 155.556C388.006 154.134 387.358 152.842 386.778 151.55C385.896 149.579 385.149 147.558 384.325 145.565C382.925 142.185 381.544 138.792 379.609 135.659C379.384 135.979 379.037 136.213 378.767 135.866C378.272 135.223 377.84 134.521 377.484 133.792C377.3 133.418 377.439 132.968 377.849 132.693C376.611 130.74 374.807 129.453 372.772 128.49C371.089 127.693 369.33 127.045 367.48 126.712C367.444 126.973 367.399 127.275 367.097 127.32C366.751 127.374 366.697 127.059 366.638 126.802C366.625 126.739 366.625 126.672 366.616 126.604C365.378 126.055 364.1 125.704 362.727 125.803C362.696 126.069 362.664 126.406 362.372 126.442C361.899 126.501 361.926 126.069 361.863 125.758C360.149 125.092 358.358 125.484 356.602 125.389C356.022 125.358 355.477 125.488 354.955 125.749C354.892 126.064 354.924 126.501 354.447 126.442C354.154 126.406 354.123 126.064 354.091 125.799C352.268 125.79 350.54 126.19 348.911 127.009C348.848 127.324 348.911 127.766 348.43 127.743C348.124 127.725 348.083 127.387 348.047 127.117C347.255 127.036 346.584 127.396 345.896 127.707C345.464 127.905 345.027 128.094 344.591 128.292C344.046 129.723 343.371 129.885 342.431 128.814C341.517 128.94 340.662 129.237 339.838 129.638C339.429 130.686 339.177 130.754 338.115 130.11C336.796 130.646 335.374 130.844 334.073 131.46C333.371 131.793 332.579 132.005 331.805 132.104C329.937 132.347 328.232 133.144 326.409 133.549C325.72 133.702 325.063 134.039 324.429 134.372C323.97 134.611 323.488 134.719 322.993 134.809C322.971 135.146 322.921 135.479 322.674 135.74C322.431 135.997 322.143 136.15 321.778 136.069C321.368 135.979 321.314 135.637 321.265 135.304C319.483 135.695 317.714 136.114 316.085 136.973C315.41 138.378 314.568 138.625 313.052 137.864C312.224 137.819 311.684 138.571 310.905 138.652C310.9 138.724 310.901 138.792 310.882 138.859C310.824 139.125 310.783 139.467 310.414 139.404C310.099 139.35 310.072 139.026 310.036 138.751C308.925 138.67 308.038 139.395 307.012 139.62C306.661 140.587 306.535 140.628 305.707 140.025C304.744 139.989 303.943 140.461 303.124 140.871C303.115 141.492 302.836 141.946 302.264 142.185C301.625 142.455 300.977 142.707 300.32 142.932C299.591 143.184 299.118 142.842 298.803 142.203C297.687 142.189 296.72 142.725 295.703 143.053C292.836 143.976 289.964 144.894 287.134 145.907C285.316 146.559 283.398 146.946 281.693 147.927C281.279 148.166 280.721 148.157 280.23 148.26C280.226 148.4 280.226 148.535 280.217 148.675C280.194 149.035 280.113 149.386 279.694 149.449C279.136 149.53 279.001 149.138 278.938 148.697C277.683 149.093 276.436 149.516 275.167 149.876C274.6 150.038 274.159 150.34 273.754 150.74C273.362 151.865 273.061 151.951 271.999 151.222C269.861 151.604 267.93 152.545 265.977 153.427C265.491 154.849 265.014 155.029 263.794 154.251C262.404 154.377 261.211 155.088 259.983 155.641C257.764 156.645 255.604 157.774 253.443 158.899C252.687 159.296 252.008 159.836 251.292 160.308C251.151 160.902 250.863 161.058 250.428 160.776C249.533 160.889 248.93 161.523 248.245 162.005C247.926 163.391 247.584 163.571 246.535 162.918C243.484 164.192 240.473 165.542 237.903 167.684C238.363 168.022 238.273 168.382 237.922 168.724C237.075 169.548 236 169.773 234.87 169.845C234.722 169.962 234.569 170.079 234.42 170.2C234.303 171.127 234.294 171.132 233.61 170.763C232.377 171.645 231.112 172.5 230.1 173.652C230.1 173.854 230.145 174.066 230.104 174.259C229.951 175.038 229.717 175.101 228.849 174.633C228.079 175.007 227.525 175.614 227.017 176.276C227.147 176.433 227.39 176.595 227.386 176.748C227.363 177.41 226.841 177.716 226.328 177.963C225.973 178.134 225.635 177.99 225.397 177.662C224.636 178.04 224.078 178.647 223.565 179.3C223.979 179.561 224.114 179.899 223.736 180.268C223.295 180.704 222.814 180.79 222.368 180.245C221.733 180.43 221.481 181.033 221.058 181.442C221.054 181.645 221.081 181.852 221.036 182.045C220.86 182.819 220.644 182.878 219.776 182.401C219.011 182.779 218.453 183.386 217.935 184.039C218.349 184.295 218.502 184.633 218.124 185.011C217.683 185.457 217.201 185.538 216.751 184.988C215.82 185.448 215.221 186.28 214.501 186.978C213.313 188.13 212.179 189.331 211.022 190.515C211.333 190.713 211.571 190.952 211.328 191.343C211.18 191.577 210.968 191.793 210.662 191.717C210.352 191.64 210.302 191.352 210.271 191.078L210.289 191.037Z" fill="#FFB68A"/>
<path d="M258.583 204.029C256.738 204.249 254.888 204.47 253.043 204.686C252.827 204.713 252.616 204.736 252.399 204.749C249.893 204.925 247.364 204.92 244.893 205.316C242.328 205.73 239.717 205.406 237.184 206.014C237.044 206.045 236.895 206.036 236.756 206.045C233.889 206.216 231 206.207 228.169 206.617C225.316 207.026 222.418 206.693 219.591 207.301C219.384 207.346 219.164 207.337 218.948 207.346C215.797 207.521 212.62 207.512 209.497 207.926C206.783 208.286 204.033 207.989 201.351 208.597C201.212 208.628 201.063 208.633 200.924 208.624C198.3 208.498 195.793 209.087 193.3 209.807C192.755 209.965 192.17 209.983 191.599 210.068C190.901 210.451 190.154 210.676 189.389 210.892C182.278 212.895 175.217 215.064 168.304 217.688C164.943 218.966 161.747 220.595 158.592 222.305C155.316 224.083 152.08 225.946 148.827 227.769C148.079 228.187 147.278 228.538 146.725 229.236C147.283 229.735 147.517 230.428 147.809 231.081C149.038 233.835 150.262 236.59 151.464 239.357C153.552 244.164 155.604 248.988 157.697 253.79C159.875 258.795 162.089 263.781 164.272 268.781C167.085 275.23 169.893 281.684 172.688 288.142C173.858 290.842 174.979 293.565 176.14 296.27C176.459 297.008 176.675 297.755 176.662 298.56C177.089 298.515 177.539 298.542 177.935 298.416C181.77 297.188 185.694 296.414 189.672 295.82C194.069 295.167 198.462 294.533 202.926 294.6C205.581 294.641 208.241 294.582 210.888 294.771C215.032 295.068 219.164 295.514 223.327 295.563C224.69 295.581 226.049 295.622 227.386 295.946C228.381 294.704 229.569 293.682 230.914 292.822C234.366 290.631 237.823 288.453 241.234 286.198C248.412 281.45 255.649 276.792 262.998 272.309C266.675 270.068 270.37 267.859 274.33 266.139C274.195 264.573 273.862 263.052 273.525 261.517C272.975 259.02 272.179 256.571 271.945 254.006C271.346 252.836 271.297 251.531 270.995 250.284C269.213 242.895 267.408 235.514 265.662 228.115C265.235 226.306 264.668 224.515 264.614 222.634C264.11 221.995 264.006 221.216 263.835 220.451C263.309 218.093 262.813 215.726 261.922 213.462C261.427 212.206 260.937 210.942 260.559 209.65C260.136 208.214 259.623 206.815 259.033 205.442C258.84 204.992 258.736 204.497 258.592 204.024L258.583 204.029Z" fill="#8989DE"/>
<path d="M176.662 298.562C176.671 297.756 176.455 297.009 176.14 296.271C174.974 293.566 173.854 290.844 172.688 288.143C169.893 281.685 167.089 275.232 164.272 268.783C162.089 263.783 159.875 258.792 157.697 253.792C155.604 248.985 153.552 244.165 151.464 239.359C150.262 236.591 149.043 233.837 147.81 231.082C147.517 230.43 147.283 229.737 146.725 229.237C145.82 229.341 145.145 229.917 144.443 230.398C141.545 232.392 138.638 234.377 135.789 236.442C132.648 238.72 129.628 241.141 126.869 243.895C124.02 246.744 121.293 249.71 118.629 252.721C113.489 258.526 108.575 264.53 104.034 270.826C100.542 275.664 97.2518 280.637 94.259 285.794C90.6136 292.086 87.5038 298.638 85.2131 305.556C84.718 307.05 84.1645 308.539 84.0655 310.142C87.5758 309.908 91.0862 309.669 94.5965 309.435C94.7405 309.426 94.8845 309.403 95.0285 309.399C97.8278 309.237 100.627 309.084 103.422 308.913C107.652 308.656 111.883 308.386 116.113 308.125C116.257 308.116 116.401 308.112 116.545 308.103C120.496 307.918 124.461 307.891 128.39 307.5C132.045 307.14 135.726 307.378 139.362 306.843C139.929 306.757 140.51 306.798 141.086 306.78C146.621 306.604 152.157 306.442 157.688 306.244C158.966 306.199 160.24 305.965 161.522 306.217C161.968 305.448 162.661 304.948 163.399 304.489C166.387 302.644 169.452 300.947 172.809 299.84C174.092 299.417 175.375 298.994 176.657 298.571L176.662 298.562Z" fill="#FFB68A"/>
<path d="M379.996 339.669C380.576 340.074 381.247 339.898 381.877 339.966C382.39 340.02 382.678 340.299 382.669 340.79C382.656 341.649 382.62 342.513 382.525 343.368C382.309 345.362 382.017 347.347 381.828 349.345C381.607 351.699 381.472 354.066 381.279 356.424C381.04 359.354 380.752 362.279 380.536 365.209C380.432 366.568 380.441 367.936 380.401 369.3C380.509 369.39 380.608 369.543 380.729 369.565C383.326 370.074 385.851 370.929 388.515 371.113C389.438 371.176 390.36 371.361 391.269 371.555C394.33 372.203 397.422 371.942 400.504 371.915C400.864 371.915 401.233 371.915 401.575 371.825C404.001 371.181 406.476 370.74 408.844 369.876C409.663 369.579 410.41 369.192 411.143 368.728C414.843 366.397 416.994 362.95 418.529 358.958C420.315 354.309 421.323 349.475 422.291 344.624C422.781 342.167 423.272 339.696 423.502 337.207C423.857 333.355 424.334 329.48 423.956 325.605C423.736 323.382 423.659 321.168 423.61 318.944C423.592 318.134 423.362 317.387 423.133 316.636C422.403 316.672 422.012 317.225 421.544 317.662C421.229 317.959 420.923 318.319 420.468 318.332C419.177 318.373 417.966 318.926 416.638 318.832C415.279 318.737 413.907 318.8 412.539 318.814C411.454 318.823 410.383 318.836 409.415 318.206C408.862 317.846 408.317 317.959 407.849 318.418C407.593 318.67 407.332 318.917 407.079 319.174C405.243 321.001 403.376 322.801 401.589 324.674C399.748 326.6 397.503 328.067 395.725 330.061C395.306 330.533 394.672 330.803 394.199 331.235C393.182 332.167 392.071 332.315 390.837 331.757C390.689 332.077 390.608 332.468 390.374 332.707C388.308 334.813 386.211 336.892 384.132 338.98C383.7 339.417 383.187 339.583 382.575 339.579C381.715 339.579 380.855 339.633 379.991 339.664L379.996 339.669Z" fill="#FFB68A"/>
<path d="M390.838 331.756C392.071 332.319 393.178 332.166 394.2 331.234C394.672 330.802 395.307 330.532 395.725 330.06C397.503 328.066 399.749 326.594 401.589 324.673C403.38 322.801 405.248 321.005 407.08 319.173C407.336 318.921 407.593 318.669 407.849 318.417C408.317 317.954 408.862 317.846 409.415 318.206C410.383 318.836 411.454 318.827 412.539 318.813C413.907 318.8 415.28 318.732 416.639 318.831C417.962 318.926 419.172 318.372 420.469 318.332C420.919 318.318 421.229 317.954 421.544 317.661C422.012 317.225 422.404 316.671 423.133 316.635C422.98 315.496 422.827 314.362 422.669 313.224C422.597 313.21 422.521 313.215 422.458 313.183C420.868 312.328 419.12 311.901 417.215 311.901C415.856 311.901 414.501 311.896 413.142 311.901C412.624 311.901 412.138 311.833 411.76 311.45C410.599 310.289 409.141 309.479 408.061 308.219C407.174 307.184 406.076 306.383 404.996 305.564C404.298 305.037 403.601 304.61 402.692 304.547C401.846 304.488 401.166 304.763 400.527 305.28C400.374 305.406 400.127 305.411 399.92 305.469C399.663 306.838 400.145 308.039 400.892 309.11C401.621 310.163 402.449 311.158 403.326 312.094C405.001 313.89 405.077 313.912 403.241 315.649C399.492 319.196 396.288 323.26 392.552 326.819C391.99 327.355 391.589 328.057 391.121 328.687C390.541 329.466 390.284 330.339 390.392 331.311C390.541 331.459 390.689 331.612 390.838 331.761V331.756Z" fill="#E7A37B"/>
<path d="M412.867 228.106C412.417 228.178 411.989 228.273 412.165 228.894C412.259 229.24 412.345 229.587 412.484 229.915C413.249 231.765 413.74 233.682 414.185 235.631C414.469 236.868 415.045 238.03 415.229 239.312C415.297 239.776 415.432 240.302 415.859 240.644C416.161 240.887 416.287 241.22 416.273 241.589C416.251 242.264 416.557 242.831 416.8 243.426C416.958 243.817 417.124 244.24 417.124 244.65C417.124 245.464 417.327 246.193 417.678 246.918C417.858 247.291 417.916 247.732 418.011 248.147C418.056 248.354 417.984 248.615 418.083 248.781C418.951 250.19 419.185 251.81 419.685 253.344C420.216 254.974 420.711 256.594 421.08 258.268C421.3 259.281 421.818 260.23 422.246 261.184C422.3 261.301 422.642 261.288 422.849 261.337C422.822 260.55 422.727 259.785 422.507 259.011C421.417 255.154 420.31 251.306 419.095 247.485C417.25 241.688 415.495 235.865 413.681 230.059C413.47 229.389 413.398 228.646 412.871 228.102L412.867 228.106Z" fill="#FFB68A"/>
<path d="M405.963 206.501C405.194 207.208 405.405 208.108 405.653 208.895C406.481 211.55 407.309 214.215 408.313 216.807C408.983 218.549 409.213 220.385 409.798 222.136C409.91 222.469 409.879 222.847 409.978 223.184C410.212 223.985 410.774 224.323 411.603 224.233C411.423 223.396 411.306 222.541 411.044 221.73C409.492 216.825 407.903 211.929 406.319 207.028C406.256 206.834 406.085 206.676 405.968 206.501H405.963Z" fill="#FFB68A"/>
<path d="M388.267 155.527C387.822 155.793 387.696 156.22 387.921 156.634C388.677 158.03 388.87 159.618 389.599 161.04C390.207 162.229 390.49 163.592 390.832 164.897C391.233 166.423 391.759 167.904 392.331 169.366C392.601 170.055 392.966 170.676 393.848 170.671C393.699 169.015 392.975 167.525 392.435 165.995C391.354 162.913 390.157 159.87 388.992 156.814C388.816 156.355 388.672 155.865 388.267 155.532V155.527Z" fill="#FFB68A"/>
<path d="M394.73 173.246C394.411 173.467 394.208 173.782 394.294 174.151C394.816 176.423 395.063 178.791 396.409 180.789C396.751 181.297 396.778 181.833 396.881 182.391C397.066 183.377 397.304 184.389 398.601 184.497C398.569 184.214 398.587 183.917 398.497 183.651C397.34 180.289 396.166 176.927 394.991 173.575C394.946 173.449 394.816 173.354 394.726 173.246H394.73Z" fill="#FFB68A"/>
<path d="M201.661 199.236C201.855 199.497 202.143 199.6 202.399 199.429C204.231 198.219 206.036 196.959 207.435 195.226C207.777 194.803 207.656 194.276 207.611 193.781C205.253 195.19 203.38 197.13 201.666 199.236H201.661Z" fill="#FFB68A"/>
<path d="M298.812 142.172C299.127 142.811 299.6 143.153 300.329 142.901C300.986 142.676 301.634 142.419 302.273 142.154C302.845 141.915 303.124 141.456 303.133 140.84C301.639 141.11 300.136 141.353 298.812 142.176V142.172Z" fill="#FFB68A"/>
<path d="M424.869 280.807C423.735 281.27 423.695 281.279 423.915 282.238C424.082 282.958 424.041 283.619 423.834 284.33C423.546 285.307 423.609 285.33 424.901 285.555C425.013 283.97 425.063 282.386 424.869 280.807Z" fill="#FFB68A"/>
<path d="M377.849 132.667C377.444 132.942 377.304 133.387 377.484 133.765C377.84 134.494 378.272 135.196 378.767 135.84C379.037 136.191 379.383 135.952 379.608 135.633C379.199 134.539 378.591 133.563 377.844 132.667H377.849Z" fill="#FFB68A"/>
<path d="M234.884 169.808C236.013 169.74 237.085 169.511 237.935 168.687C238.286 168.35 238.376 167.989 237.917 167.647C236.796 168.21 235.721 168.84 234.884 169.803V169.808Z" fill="#FFB68A"/>
<path d="M313.057 137.833C314.578 138.594 315.415 138.347 316.09 136.942C314.992 136.942 313.97 137.212 313.057 137.833Z" fill="#FFB68A"/>
<path d="M424.519 290.74C424.312 290.781 424.082 290.781 423.897 290.871C423.312 291.168 423.123 291.681 423.263 292.302C423.411 292.972 423.983 292.86 424.46 292.9C424.478 292.18 424.496 291.46 424.519 290.74Z" fill="#FFB68A"/>
<path d="M225.406 177.617C225.645 177.941 225.982 178.085 226.338 177.918C226.851 177.671 227.373 177.365 227.395 176.703C227.4 176.55 227.157 176.388 227.026 176.23C226.284 176.455 225.771 176.951 225.406 177.617Z" fill="#FFB68A"/>
<path d="M342.436 128.787C343.376 129.858 344.051 129.691 344.596 128.265C343.853 128.355 343.048 128.175 342.436 128.787Z" fill="#FFB68A"/>
<path d="M263.804 154.219C265.023 154.997 265.5 154.817 265.986 153.395C265.149 153.381 264.429 153.67 263.804 154.219Z" fill="#FFB68A"/>
<path d="M424.47 274.331C424.267 274.34 424.046 274.309 423.862 274.372C423.232 274.579 423.079 275.123 423.484 275.609C423.772 275.956 424.159 276.037 424.582 276.028C424.546 275.461 424.506 274.898 424.47 274.331Z" fill="#FFB68A"/>
<path d="M222.382 180.206C222.828 180.75 223.309 180.665 223.75 180.228C224.128 179.855 223.993 179.517 223.579 179.261C223.026 179.382 222.621 179.688 222.382 180.21V180.206Z" fill="#FFB68A"/>
<path d="M424.883 278.646C424.743 278.651 424.599 278.633 424.469 278.664C423.753 278.849 423.564 279.083 423.731 279.605C423.942 280.271 424.392 280.19 424.878 279.951C424.878 279.515 424.878 279.078 424.878 278.642L424.883 278.646Z" fill="#FFB68A"/>
<path d="M195.963 205.135C196.261 205.599 196.621 205.68 196.999 205.252C197.386 204.811 197.422 204.357 196.922 203.947C196.4 204.177 196.094 204.586 195.968 205.135H195.963Z" fill="#FFB68A"/>
<path d="M423.686 303.719C423.002 303.679 422.732 304.138 422.534 304.673C422.376 305.096 422.597 305.313 422.984 305.389C423.182 305.43 423.389 305.416 423.596 305.425C423.627 304.853 423.659 304.286 423.69 303.715L423.686 303.719Z" fill="#FFB68A"/>
<path d="M216.765 184.952C217.215 185.501 217.696 185.42 218.137 184.974C218.516 184.596 218.362 184.258 217.948 184.002C217.404 184.132 216.994 184.434 216.765 184.952Z" fill="#FFB68A"/>
<path d="M321.275 135.278C321.329 135.615 321.383 135.953 321.788 136.043C322.152 136.124 322.44 135.975 322.683 135.714C322.931 135.453 322.976 135.12 323.003 134.783C322.373 134.756 321.801 134.94 321.275 135.273V135.278Z" fill="#FFB68A"/>
<path d="M404.248 201.324C404.118 201.351 403.987 201.374 403.857 201.41C403.56 201.491 403.407 201.707 403.411 201.995C403.411 202.278 403.569 202.508 403.87 202.562C404.131 202.607 404.401 202.611 404.667 202.634C404.653 202.157 404.68 201.666 404.248 201.324Z" fill="#FFB68A"/>
<path d="M246.545 162.887C247.593 163.54 247.935 163.355 248.255 161.974C247.602 162.122 246.995 162.356 246.545 162.887Z" fill="#FFB68A"/>
<path d="M338.119 130.088C339.181 130.731 339.433 130.659 339.843 129.615C339.24 129.66 338.587 129.543 338.119 130.088Z" fill="#FFB68A"/>
<path d="M278.948 148.67C279.011 149.111 279.146 149.507 279.704 149.421C280.127 149.358 280.203 149.007 280.226 148.647C280.235 148.508 280.235 148.373 280.239 148.233C279.749 148.197 279.344 148.431 278.943 148.67H278.948Z" fill="#FFB68A"/>
<path d="M219.79 182.359C220.658 182.836 220.874 182.778 221.05 182.003C221.095 181.81 221.068 181.603 221.072 181.4C220.483 181.504 220.046 181.805 219.79 182.359Z" fill="#FFB68A"/>
<path d="M228.857 174.589C229.726 175.061 229.96 174.994 230.113 174.215C230.149 174.021 230.113 173.81 230.109 173.607C229.551 173.751 229.105 174.039 228.862 174.584L228.857 174.589Z" fill="#FFB68A"/>
<path d="M210.29 191.038C210.317 191.313 210.371 191.601 210.681 191.677C210.987 191.754 211.199 191.538 211.347 191.304C211.59 190.912 211.347 190.678 211.041 190.476C210.704 190.548 210.434 190.705 210.294 191.038H210.29Z" fill="#FFB68A"/>
<path d="M423.591 266.555C423.204 266.604 422.637 266.429 422.543 266.955C422.43 267.576 422.961 267.743 423.47 267.833C423.537 267.846 423.609 267.846 423.677 267.851C423.65 267.419 423.623 266.987 423.596 266.555H423.591Z" fill="#FFB68A"/>
<path d="M272.008 151.191C273.07 151.92 273.371 151.834 273.763 150.709C273.146 150.758 272.494 150.668 272.008 151.191Z" fill="#FFB68A"/>
<path d="M424.038 270.441C423.646 270.491 423.075 270.311 422.971 270.837C422.85 271.463 423.39 271.63 423.903 271.72C423.97 271.733 424.042 271.733 424.114 271.738C424.087 271.305 424.065 270.873 424.038 270.441Z" fill="#FFB68A"/>
<path d="M423.263 308.04C422.813 308.067 422.381 308.134 422.412 308.728C422.435 309.192 422.817 309.246 423.173 309.309C423.204 308.886 423.236 308.463 423.263 308.035V308.04Z" fill="#FFB68A"/>
<path d="M305.716 139.992C306.54 140.595 306.67 140.555 307.021 139.587C306.54 139.578 306.058 139.56 305.716 139.992Z" fill="#FFB68A"/>
<path d="M193.948 207.388C194.15 207.379 194.357 207.392 194.551 207.347C195.068 207.225 195.082 207.126 194.726 206.523C194.339 206.694 194.069 206.973 193.948 207.388Z" fill="#FFB68A"/>
<path d="M354.096 125.772C354.127 126.038 354.159 126.38 354.451 126.416C354.928 126.474 354.897 126.038 354.96 125.723C354.672 125.741 354.384 125.754 354.096 125.772Z" fill="#FFB68A"/>
<path d="M361.868 125.73C361.931 126.045 361.904 126.473 362.377 126.415C362.669 126.379 362.701 126.041 362.732 125.775C362.444 125.762 362.156 125.744 361.868 125.73Z" fill="#FFB68A"/>
<path d="M424.091 298.524C423.771 298.578 423.339 298.547 423.407 299.033C423.447 299.321 423.794 299.348 424.059 299.379C424.068 299.096 424.082 298.808 424.091 298.524Z" fill="#FFB68A"/>
<path d="M233.619 170.721C234.307 171.09 234.316 171.09 234.429 170.158C234.082 170.235 233.776 170.37 233.619 170.721Z" fill="#FFB68A"/>
<path d="M250.443 160.744C250.878 161.026 251.166 160.87 251.307 160.276C250.947 160.299 250.636 160.411 250.443 160.744Z" fill="#FFB68A"/>
<path d="M310.041 138.719C310.072 138.994 310.104 139.318 310.419 139.372C310.788 139.435 310.828 139.097 310.887 138.827C310.9 138.76 310.9 138.688 310.909 138.62C310.621 138.652 310.333 138.683 310.045 138.719H310.041Z" fill="#FFB68A"/>
<path d="M348.052 127.089C348.088 127.359 348.128 127.697 348.434 127.715C348.916 127.742 348.858 127.296 348.916 126.981C348.628 127.017 348.34 127.053 348.052 127.089Z" fill="#FFB68A"/>
<path d="M366.621 126.577C366.63 126.645 366.63 126.712 366.644 126.775C366.702 127.032 366.756 127.347 367.103 127.293C367.404 127.248 367.449 126.946 367.485 126.685C367.197 126.649 366.909 126.613 366.621 126.582V126.577Z" fill="#FFB68A"/>
<path d="M274.326 266.145C270.366 267.869 266.675 270.074 262.994 272.315C255.645 276.793 248.408 281.456 241.23 286.204C237.819 288.458 234.362 290.636 230.911 292.828C229.565 293.683 228.377 294.705 227.382 295.951C228.354 296.726 229.497 297.162 230.627 297.612C235.154 299.43 239.695 301.208 244.223 303.022C244.952 303.314 245.739 303.602 246.311 304.106C247.864 305.479 249.317 306.969 250.811 308.413C251.793 309.246 253.062 309.309 254.223 309.601C259.236 310.866 264.29 311.973 269.29 313.292C277.697 315.506 286.113 317.666 294.565 319.7C300.987 321.248 307.373 322.959 313.772 324.61C314.403 324.772 315.019 324.952 315.681 324.849C314.101 322.031 312.238 319.394 310.37 316.77C306.878 311.865 303.3 307.023 299.79 302.131C296.734 297.882 293.737 293.593 290.685 289.34C285.168 281.654 279.619 273.989 274.331 266.141L274.326 266.145Z" fill="#FFB68A"/>
<path d="M322.665 326.145C322.458 326.249 322.251 326.357 322.044 326.46C324.42 327.306 326.913 327.693 329.353 328.278C338.988 330.583 348.637 332.824 358.281 335.083C360.658 335.641 363.038 336.172 365.414 336.739C366.189 336.924 366.958 337.072 367.755 337.023C373.101 334.394 378.313 331.528 383.313 328.274C385.086 327.122 385.239 327.149 386.855 328.53C387.017 328.67 387.17 328.823 387.332 328.967C388.286 329.836 389.289 330.637 390.396 331.298C390.284 330.326 390.54 329.453 391.125 328.674C391.593 328.044 391.999 327.342 392.557 326.807C396.292 323.247 399.496 319.183 403.245 315.637C405.077 313.904 405.005 313.877 403.331 312.081C402.458 311.145 401.629 310.151 400.896 309.098C400.153 308.026 399.672 306.825 399.924 305.457L399.784 305.317C398.817 305.056 397.863 304.741 396.881 304.539C394.852 304.111 392.809 303.733 390.765 303.364C390.423 303.301 390.045 303.342 389.703 303.418C388.583 303.675 387.453 303.895 386.368 304.26C383.034 305.376 379.685 306.469 376.4 307.725C372.035 309.395 367.525 310.578 363.056 311.915C360.099 312.801 357.134 313.666 354.226 314.687C348.002 316.883 341.81 319.183 335.604 321.424C332.903 322.396 330.19 323.328 327.485 324.273C327.143 324.453 326.778 324.395 326.418 324.354L326.4 324.368C326.252 324.791 325.919 324.863 325.532 324.818C325.392 324.818 325.266 324.863 325.149 324.939C324.321 325.34 323.493 325.74 322.665 326.136V326.145Z" fill="#FFB68A"/>
<path d="M316.494 325.271C316.301 324.947 316.017 324.808 315.644 324.862C315.815 325.235 316.13 325.303 316.494 325.271Z" fill="#E7A37B"/>
<path d="M321.773 189.326C321.058 189.231 320.347 189.231 319.636 189.398C319.15 189.51 318.646 189.605 318.151 189.587C316.341 189.533 314.586 189.938 312.813 190.163C311.395 190.343 310 190.689 308.587 190.887C307.089 191.094 305.653 191.009 304.163 190.442C299.204 188.556 294.19 186.828 289.19 185.05C288.857 184.933 288.493 184.911 288.142 184.839C287.512 185.208 286.846 185.401 286.103 185.356C285.351 185.311 284.514 185.527 284.181 186.103C283.619 187.076 282.498 187.418 281.976 188.363C281.535 190.41 281.598 192.494 281.553 194.573C281.553 194.645 281.544 194.717 281.553 194.789C281.625 195.932 281.013 196.693 280.122 197.26C279.64 197.566 279.1 197.782 278.569 198.003C275.185 199.407 271.963 201.139 268.686 202.769C266.076 204.069 264.974 206.805 265.82 209.659C266.513 211.994 267.26 214.312 267.971 216.643C268.304 217.737 268.637 218.835 268.925 219.947C269.118 220.685 268.956 221.018 268.241 221.301C267.044 221.778 265.82 222.192 264.609 222.638C264.663 224.519 265.23 226.31 265.658 228.12C267.404 235.518 269.208 242.899 270.991 250.289C271.292 251.535 271.342 252.84 271.94 254.011C277.435 252.296 282.93 250.577 288.425 248.862C289.334 248.34 289.91 247.512 290.369 246.612C291.058 245.271 291.733 243.921 292.359 242.548C295.225 236.274 298.088 229.996 300.918 223.709C301.265 222.944 301.711 222.431 302.498 222.075C304.397 221.22 306.242 220.253 308.119 219.344C309.681 218.588 310.693 217.404 311.377 215.788C314.708 207.913 317.827 199.956 320.653 191.887C320.959 191.009 321.391 190.181 321.764 189.326H321.773Z" fill="#FFB68A"/>
<path d="M385.523 235.461C385.721 236.942 386.454 238.184 387.278 239.385C387.381 239.291 387.525 239.214 387.588 239.097C388.083 238.166 387.431 237.459 387.098 236.69C386.796 235.992 386.396 235.421 385.523 235.461Z" fill="#FFB68A"/>
<path d="M386.922 277.784C386.818 278.792 386.715 279.8 386.611 280.808C387.124 280.808 387.579 280.736 387.858 280.196C388.2 279.534 388.371 278.855 388.056 278.166C387.849 277.716 387.336 277.811 386.922 277.779V277.784Z" fill="#FFB68A"/>
<path d="M391.148 251.392C390.464 252.463 390.288 253.66 390.297 254.898C390.432 254.871 390.581 254.871 390.702 254.817C391.454 254.47 391.413 253.683 391.598 253.057C391.769 252.477 391.805 251.806 391.152 251.388L391.148 251.392Z" fill="#FFB68A"/>
<path d="M386.495 283.4C386.225 284.327 385.923 285.264 386.864 286.02C387.377 285.754 387.368 285.205 387.526 284.76C387.904 283.679 387.836 283.616 386.495 283.4Z" fill="#FFB68A"/>
<path d="M373.362 210.464C373.6 211.572 374.037 212.584 374.757 213.466C374.896 213.313 375.108 213.187 375.166 213.007C375.324 212.521 375.283 212.022 374.928 211.626C374.487 211.135 374.302 210.293 373.366 210.46L373.362 210.464Z" fill="#FFB68A"/>
<path d="M354.497 170.687C354.686 171.668 355.136 172.528 355.73 173.32C356.468 172.802 356.27 172.163 356 171.488C355.716 170.777 355.167 170.633 354.497 170.691V170.687Z" fill="#FFB68A"/>
<path d="M389.861 244.523C389.987 245.68 390.477 246.675 391.22 247.557C391.333 247.395 391.571 247.188 391.531 247.08C391.256 246.31 390.955 245.545 390.581 244.816C390.491 244.64 390.108 244.613 389.856 244.523H389.861Z" fill="#FFB68A"/>
<path d="M367.881 199.179C368.074 200.164 368.524 201.024 369.145 201.807C369.285 201.658 369.496 201.537 369.546 201.361C369.726 200.767 369.334 200.313 369.082 199.836C368.835 199.363 368.394 199.192 367.881 199.179Z" fill="#FFB68A"/>
<path d="M359.609 181.468C359.672 182.575 360.104 183.506 360.941 184.249C361.148 183.394 360.743 182.651 360.469 181.895C360.343 181.544 359.956 181.499 359.609 181.468Z" fill="#FFB68A"/>
<path d="M387.772 269.579C387.723 270.137 387.678 270.695 387.628 271.253C388.339 271.366 388.659 270.929 388.87 270.358C389.037 269.917 388.812 269.692 388.407 269.615C388.2 269.575 387.984 269.588 387.772 269.579Z" fill="#FFB68A"/>
<path d="M388.938 263.066C388.655 263.62 388.506 264.205 388.56 264.831C388.758 264.804 388.983 264.826 389.154 264.741C389.987 264.322 390.027 263.881 389.303 263.237C389.208 263.152 389.06 263.125 388.938 263.066Z" fill="#FFB68A"/>
<path d="M337.287 167.315C337.876 167.216 338.529 167.337 338.997 166.82C337.926 166.109 337.611 166.199 337.287 167.315Z" fill="#FFB68A"/>
<path d="M363.551 190.177C363.596 190.785 363.92 191.231 364.393 191.586C364.402 191.163 364.447 190.74 364.406 190.321C364.388 190.155 364.19 189.912 364.046 189.889C363.898 189.867 363.718 190.074 363.547 190.182L363.551 190.177Z" fill="#FFB68A"/>
<path d="M387.314 273.461C387.283 273.879 387.251 274.294 387.215 274.712C387.643 274.721 388.093 274.694 388.133 274.154C388.174 273.609 387.742 273.51 387.31 273.465L387.314 273.461Z" fill="#FFB68A"/>
<path d="M389.51 258.35C389.465 258.768 389.424 259.182 389.379 259.601C389.798 259.61 390.239 259.587 390.293 259.056C390.347 258.525 389.937 258.404 389.51 258.354V258.35Z" fill="#FFB68A"/>
<path d="M388.191 266.555C388.15 266.969 388.11 267.387 388.069 267.801C388.492 267.81 388.942 267.797 388.996 267.257C389.05 266.717 388.623 266.604 388.191 266.555Z" fill="#FFB68A"/>
<path d="M389.051 261.369C389.029 261.81 389.006 262.251 388.984 262.697C389.105 262.638 389.245 262.598 389.344 262.512C390.028 261.923 389.96 261.68 389.051 261.369Z" fill="#FFB68A"/>
<path d="M369.56 202.667C369.636 203.284 369.942 203.756 370.442 204.116C370.466 203.324 370.172 202.841 369.56 202.667Z" fill="#FFB68A"/>
<path d="M388.578 241.933C388.61 242.581 388.938 243.049 389.447 243.422C389.471 242.639 389.181 242.143 388.578 241.933Z" fill="#FFB68A"/>
<path d="M379.11 222.5C379.123 222.856 379.213 223.175 379.524 223.391C380.055 222.734 380.05 222.721 379.11 222.5Z" fill="#FFB68A"/>
<path d="M357.489 177.152C357.507 177.508 357.592 177.832 357.889 178.066C358.267 177.619 358.134 177.314 357.489 177.152Z" fill="#FFB68A"/>
<path d="M390.176 256.09C389.91 256.36 389.856 256.697 389.861 257.053C390.162 257.003 390.54 257.053 390.621 256.634C390.684 256.306 390.387 256.22 390.176 256.09Z" fill="#FFB68A"/>
<path d="M321.774 189.328C321.4 190.178 320.968 191.011 320.662 191.888C317.836 199.958 314.722 207.914 311.387 215.79C310.703 217.406 309.69 218.589 308.128 219.345C306.252 220.255 304.407 221.222 302.507 222.077C301.72 222.433 301.27 222.941 300.928 223.711C298.097 229.998 295.235 236.276 292.368 242.55C291.742 243.922 291.067 245.272 290.379 246.614C289.915 247.514 289.344 248.342 288.435 248.864C288.754 250.389 289.686 251.596 290.577 252.802C291.211 253.666 291.904 254.503 292.669 255.254C297.809 260.304 303.745 264.116 310.523 266.578C312.552 267.311 314.641 267.802 316.81 267.937C317.449 267.977 318.079 268.148 318.709 268.261C318.835 268.094 319.037 267.941 319.074 267.757C319.213 267.023 319.65 266.654 320.356 266.51C320.842 266.411 321.31 266.24 321.796 266.136C324.924 265.47 328.038 264.759 331.085 263.787C333.866 262.905 336.648 262.014 339.303 260.781C340.095 260.412 340.806 260.425 341.472 261.046C341.625 261.19 341.832 261.271 342.012 261.384C346.504 258.81 350.199 255.34 353.259 251.191C354.366 249.692 355.352 248.099 356.346 246.519C358.16 243.639 359.379 240.507 360.27 237.23C360.536 236.263 360.793 235.286 361.13 234.341C361.715 232.698 361.963 231.006 361.999 229.269C362.111 223.342 361.369 217.496 359.856 211.789C356.922 200.732 349.528 193.824 338.961 190.12C333.349 188.153 327.588 187.829 321.778 189.323L321.774 189.328Z" fill="#884100"/>
<path d="M327.674 323.544C330.855 321.118 333.394 318.108 335.572 314.782C339.231 309.201 341.729 303.099 343.551 296.713C345.459 290.025 346.301 283.207 345.9 276.249C345.743 273.513 345.338 270.813 344.555 268.189C344.001 266.335 343.344 264.512 342.044 263.009C341.783 264.44 340.72 265.214 339.564 265.786C337.701 266.704 335.788 267.532 333.857 268.306C330.518 269.638 326.99 270.34 323.511 271.155C321.945 271.524 320.23 271.632 318.655 270.853C318.16 271.335 318.106 272.019 317.921 272.622C316.49 277.226 315.424 281.911 314.757 286.69C314.649 287.473 314.523 288.252 314.402 289.035C314.69 289.341 314.613 289.611 314.321 289.863C314.199 290.884 314.082 291.902 313.961 292.923C314.249 293.22 314.195 293.495 313.902 293.751C313.776 295.925 313.65 298.099 313.524 300.272C313.74 300.574 313.767 300.92 313.767 301.276C313.763 302.752 313.758 304.228 313.763 305.704C313.763 306.06 313.74 306.406 313.529 306.708C313.65 308.306 313.772 309.903 313.898 311.501C314.195 311.748 314.267 312.019 313.974 312.325C314.312 314.588 314.744 316.825 315.46 319.003C316.108 320.979 317.17 322.586 319.051 323.607C319.924 324.08 320.64 324.827 321.616 325.133C322.795 325.074 323.974 325.016 325.153 324.953C325.27 324.876 325.396 324.836 325.536 324.831C325.739 324.512 326.04 324.386 326.405 324.381L326.423 324.368C326.715 323.904 327.116 323.607 327.674 323.553V323.544Z" fill="#894100"/>
<path d="M318.655 270.858C320.23 271.641 321.945 271.528 323.511 271.159C326.99 270.345 330.523 269.643 333.858 268.311C335.788 267.541 337.701 266.713 339.564 265.79C340.721 265.219 341.783 264.44 342.044 263.013C342.03 262.469 342.021 261.924 342.008 261.38C341.828 261.267 341.621 261.186 341.468 261.042C340.802 260.426 340.091 260.408 339.299 260.777C336.643 262.01 333.862 262.901 331.081 263.783C328.034 264.751 324.915 265.466 321.792 266.132C321.306 266.236 320.838 266.407 320.352 266.506C319.645 266.65 319.209 267.019 319.069 267.752C319.033 267.937 318.831 268.09 318.705 268.257C318.498 269.116 318.475 269.985 318.655 270.853V270.858Z" fill="#5D3717"/>
<path d="M313.529 306.699C313.745 306.398 313.768 306.051 313.763 305.696C313.763 304.22 313.763 302.743 313.768 301.267C313.768 300.912 313.745 300.565 313.525 300.264C313.286 300.552 313.223 300.894 313.223 301.254C313.223 302.739 313.219 304.224 313.223 305.709C313.223 306.069 313.291 306.411 313.529 306.699Z" fill="#894100"/>
<path d="M325.149 324.948C323.97 325.007 322.791 325.065 321.612 325.128C321.824 325.614 322.535 325.578 322.665 326.15C323.493 325.749 324.321 325.349 325.149 324.953V324.948Z" fill="#E7A37B"/>
<path d="M314.321 289.857C314.613 289.61 314.69 289.335 314.402 289.029C314.078 289.277 314.01 289.547 314.321 289.857Z" fill="#894100"/>
<path d="M313.907 293.746C314.2 293.49 314.254 293.215 313.966 292.918C313.646 293.17 313.597 293.445 313.907 293.746Z" fill="#894100"/>
<path d="M313.97 312.315C314.262 312.009 314.19 311.739 313.893 311.491C313.578 311.797 313.641 312.067 313.97 312.315Z" fill="#894100"/>
<path d="M327.674 323.543C327.116 323.597 326.715 323.894 326.423 324.358C326.787 324.403 327.147 324.457 327.489 324.277C327.548 324.034 327.611 323.786 327.674 323.543Z" fill="#E7A37B"/>
<path d="M326.4 324.37C326.036 324.375 325.734 324.505 325.532 324.82C325.923 324.861 326.252 324.793 326.4 324.37Z" fill="#E7A37B"/>
</svg>
