<svg width="500" height="500" viewBox="0 0 500 500" fill="none" xmlns="http://www.w3.org/2000/svg">
<path d="M417.209 310.14C417.745 310.631 418.204 311.144 418.393 311.891C419.293 315.442 420.301 318.97 421.124 322.539C422.088 326.742 423.033 330.955 423.739 335.203C424.63 340.594 425.269 346.031 424.887 351.522C424.581 355.941 423.573 360.216 421.768 364.235C419.338 369.645 415.22 373.43 409.77 375.779C403.906 378.308 397.79 379.721 391.417 380.234C381.908 381.004 372.637 380 363.478 377.336C358.866 375.99 354.208 374.762 349.455 373.902C343.65 372.849 337.988 371.179 332.308 369.595C318.78 365.819 305.643 360.95 292.655 355.648C287.061 353.367 281.422 351.211 275.806 348.988C272.129 347.534 268.398 346.207 264.897 344.343C264.167 343.956 263.56 344.087 262.871 344.415C256.764 347.323 250.459 349.771 244.231 352.386C236.535 355.617 228.623 358.25 220.581 360.5C210.815 363.227 201.026 365.846 191.08 367.836C183.956 369.258 176.805 370.509 169.559 371.143C167.408 371.332 165.266 371.607 163.115 371.746C161.18 371.872 159.24 371.85 157.3 371.917C154.213 372.025 151.126 372.138 148.038 372.282C144.649 372.44 141.279 372.102 137.912 371.832C133.47 371.481 129.046 370.923 124.65 370.194C123.38 369.982 122.138 369.6 120.883 369.294C120.842 367.93 120.847 366.562 120.748 365.203C120.527 362.273 120.244 359.348 120.005 356.418C119.812 354.06 119.681 351.697 119.456 349.339C119.267 347.341 118.974 345.356 118.758 343.362C118.664 342.507 118.632 341.643 118.614 340.783C118.605 340.288 118.898 340.009 119.407 339.96C120.037 339.897 120.712 340.072 121.288 339.663C124.357 339.456 127.3 338.592 130.289 337.962C131.387 337.728 132.543 337.656 133.529 337.017C134.325 337.062 135.1 336.913 135.869 336.729C138.245 336.166 140.626 335.63 143.002 335.072C152.647 332.813 162.296 330.572 171.931 328.268C174.37 327.683 176.864 327.296 179.24 326.45C181.224 326.679 182.993 325.91 184.789 325.257C185.153 325.293 185.468 325.221 185.639 324.847L185.603 324.838C186.26 324.942 186.882 324.762 187.512 324.6C193.911 322.948 200.297 321.238 206.719 319.69C215.171 317.656 223.587 315.496 231.994 313.281C236.994 311.967 242.048 310.856 247.061 309.591C248.222 309.298 249.487 309.235 250.473 308.403C250.828 308.371 251.197 308.389 251.539 308.295C254.32 307.521 257.129 306.99 260.032 307.021C260.603 307.026 261.175 306.904 261.751 306.882C262.97 306.837 264.199 306.729 265.41 306.81C269.428 307.08 273.452 307.102 277.475 307.098C283.942 307.089 290.409 307.048 296.877 307.044C300.612 307.044 304.352 307.147 308.087 307.084C315.054 306.963 322.025 306.765 328.992 306.571C332.583 306.472 336.17 306.324 339.761 306.193C341.044 305.941 342.317 306.175 343.596 306.22C349.131 306.418 354.667 306.58 360.198 306.756C360.774 306.774 361.359 306.733 361.921 306.819C365.558 307.354 369.239 307.116 372.893 307.476C376.822 307.863 380.787 307.894 384.738 308.079C384.883 308.083 385.027 308.092 385.171 308.101C389.401 308.362 393.631 308.632 397.862 308.889C400.661 309.06 403.46 309.213 406.255 309.375C406.399 309.384 406.543 309.402 406.687 309.411C410.197 309.645 413.708 309.884 417.218 310.118L417.209 310.14Z" fill="#696D65"/>
<path d="M290.985 191.035C292.07 191.764 293.114 192.534 293.663 193.78C293.618 194.275 293.496 194.802 293.838 195.225C295.238 196.958 297.038 198.213 298.874 199.428C299.131 199.599 299.419 199.496 299.612 199.235C301.381 200.617 303.024 202.129 304.356 203.947C303.852 204.352 303.892 204.806 304.279 205.252C304.657 205.68 305.017 205.599 305.314 205.135C305.846 205.495 306.291 205.923 306.548 206.526C306.192 207.129 306.206 207.228 306.723 207.349C306.917 207.394 307.124 207.376 307.326 207.39C308.028 208.353 309.113 208.983 309.675 210.072C309.108 209.986 308.523 209.968 307.974 209.811C305.481 209.091 302.974 208.506 300.35 208.627C300.206 208.632 300.058 208.627 299.923 208.6C297.241 207.993 294.491 208.29 291.777 207.93C288.658 207.516 285.481 207.525 282.326 207.349C282.11 207.336 281.89 207.349 281.683 207.304C278.856 206.697 275.963 207.034 273.105 206.62C270.274 206.211 267.385 206.224 264.518 206.049C264.374 206.04 264.226 206.049 264.09 206.017C261.557 205.409 258.947 205.734 256.381 205.319C253.911 204.923 251.381 204.928 248.875 204.752C248.659 204.739 248.447 204.716 248.231 204.689C246.386 204.469 244.536 204.253 242.691 204.032C241.872 203.312 241.593 202.21 240.796 201.449C239.397 200.108 237.934 198.861 236.305 197.813C231.188 194.518 225.751 191.778 220.54 188.641C220.153 188.407 219.743 188.344 219.302 188.375C218.776 187.43 217.66 187.088 217.097 186.116C216.768 185.545 215.927 185.329 215.175 185.369C214.433 185.414 213.767 185.221 213.137 184.852C213.191 184.203 212.66 184.014 212.246 183.767C210.211 182.561 208.164 181.373 206.116 180.194C205.81 180.018 205.472 179.874 205.135 179.775C199.982 178.231 194.829 176.697 189.676 175.162C181.913 172.844 174.149 170.531 166.386 168.213C165.567 167.97 164.73 167.777 163.983 167.322C163.659 166.206 163.344 166.116 162.273 166.827C161.989 166.796 161.697 166.8 161.427 166.719C159.383 166.103 157.345 165.464 155.306 164.843C153.875 164.406 152.439 163.992 151.013 163.555C150.527 163.407 150.18 163.56 149.933 163.974C149.789 164.217 149.64 164.469 149.55 164.739C148.933 166.562 147.718 168.119 147.246 170.005C147.183 170.257 146.931 170.464 146.769 170.693C146.098 170.635 145.549 170.779 145.266 171.49C144.996 172.165 144.798 172.808 145.536 173.326C145.311 174.771 144.573 175.981 143.776 177.16C143.131 177.322 142.997 177.627 143.375 178.074C143.15 179.384 142.606 180.536 141.656 181.481C141.31 181.508 140.923 181.557 140.797 181.908C140.522 182.664 140.117 183.407 140.324 184.262C139.924 186.445 138.852 188.33 137.709 190.189C137.543 190.081 137.358 189.874 137.21 189.897C137.066 189.919 136.868 190.167 136.85 190.329C136.805 190.747 136.85 191.17 136.863 191.593C136.845 191.8 136.877 192.034 136.8 192.214C136.31 193.375 135.819 194.532 135.279 195.671C134.708 196.872 134.19 198.11 133.38 199.185C132.867 199.199 132.426 199.365 132.178 199.842C131.931 200.32 131.535 200.774 131.715 201.368C131.769 201.539 131.98 201.665 132.12 201.814C132.097 202.156 132.003 202.462 131.706 202.673C131.094 202.85 130.8 203.335 130.824 204.127C130.338 206.467 129.249 208.533 127.903 210.477C126.967 210.306 126.782 211.152 126.341 211.643C125.986 212.039 125.941 212.538 126.103 213.024C126.161 213.204 126.373 213.33 126.512 213.483C125.428 215.882 124.352 218.285 123.24 220.675C122.943 221.319 122.52 221.904 122.156 222.516C121.215 222.736 121.211 222.75 121.742 223.407C121.544 224.41 120.968 225.247 120.509 226.134C120.05 227.025 119.528 227.894 119.177 228.825C118.52 230.576 117.655 232.228 116.854 233.911C116.575 234.5 116.233 235.04 115.738 235.472C114.865 235.436 114.46 236.003 114.163 236.701C113.835 237.471 113.182 238.177 113.673 239.109C113.736 239.226 113.88 239.302 113.983 239.397C113.808 240.378 113.227 241.152 112.682 241.944C112.079 242.154 111.79 242.651 111.814 243.434C111.85 243.866 111.616 244.199 111.395 244.536C111.148 244.631 110.761 244.653 110.671 244.829C110.297 245.553 110 246.323 109.721 247.092C109.681 247.201 109.924 247.408 110.032 247.57C109.636 248.641 109.447 249.703 110.023 250.783C110.113 250.954 110.081 251.192 110.108 251.399C109.451 251.818 109.487 252.489 109.663 253.069C109.847 253.69 109.811 254.482 110.558 254.829C110.68 254.883 110.828 254.883 110.963 254.91C111.004 255.306 111.044 255.706 111.08 256.102C110.869 256.237 110.572 256.323 110.635 256.647C110.716 257.065 111.094 257.011 111.395 257.065C111.512 257.498 111.629 257.93 111.746 258.357C111.319 258.407 110.905 258.528 110.963 259.059C111.017 259.59 111.458 259.613 111.881 259.604C112.309 260.135 112.196 260.769 112.21 261.377C111.301 261.687 111.233 261.93 111.917 262.52C112.016 262.605 112.156 262.641 112.282 262.704C112.354 262.822 112.367 262.943 112.322 263.069C112.201 263.123 112.057 263.155 111.958 263.24C111.233 263.884 111.274 264.325 112.106 264.743C112.277 264.829 112.502 264.806 112.7 264.833C113.011 265.369 113.128 265.945 113.065 266.557C112.633 266.606 112.21 266.714 112.259 267.259C112.313 267.799 112.763 267.817 113.187 267.803C113.601 268.344 113.484 268.974 113.484 269.581C113.272 269.59 113.056 269.581 112.849 269.617C112.444 269.694 112.219 269.919 112.385 270.36C112.601 270.931 112.917 271.372 113.632 271.255C114.082 271.944 113.916 272.718 113.947 273.465C113.515 273.51 113.083 273.614 113.124 274.154C113.164 274.698 113.614 274.721 114.042 274.712C114.559 275.697 114.298 276.755 114.334 277.781C113.92 277.808 113.407 277.713 113.2 278.168C112.885 278.857 113.056 279.536 113.398 280.198C113.677 280.738 114.132 280.805 114.64 280.81C114.681 281.674 114.721 282.538 114.762 283.402C113.416 283.614 113.353 283.681 113.731 284.761C113.889 285.207 113.875 285.76 114.393 286.021C113.619 287.214 112.862 288.42 112.07 289.595C111.152 290.954 110.203 292.286 109.262 293.627C107.295 296.431 105.32 299.226 103.367 302.034C102.642 303.073 101.778 304.041 101.476 305.328L101.337 305.468C101.13 305.409 100.882 305.405 100.729 305.279C100.095 304.761 99.4152 304.487 98.5646 304.545C97.6555 304.608 96.958 305.031 96.2604 305.562C95.1803 306.381 94.0822 307.182 93.1956 308.217C92.12 309.477 90.6574 310.288 89.4963 311.449C89.1137 311.831 88.6277 311.903 88.1146 311.899C86.7555 311.89 85.4009 311.899 84.0417 311.899C82.1335 311.899 80.3859 312.326 78.7987 313.181C78.7402 313.213 78.6592 313.213 78.5917 313.226C78.2857 311.939 77.9391 310.661 78.0877 309.315C78.4432 309.252 78.8212 309.198 78.8482 308.735C78.8797 308.141 78.4477 308.073 77.9976 308.046C77.4486 307.232 77.6781 306.318 77.6691 305.432C77.8716 305.423 78.0831 305.432 78.2812 305.396C78.6682 305.319 78.8887 305.099 78.7312 304.68C78.5332 304.144 78.2587 303.685 77.5791 303.726C77.1606 303.258 77.2506 302.673 77.2371 302.124C77.2101 301.215 77.2191 300.301 77.2101 299.388C77.4756 299.356 77.8221 299.329 77.8626 299.041C77.9301 298.559 77.4981 298.586 77.1786 298.532C76.8635 298.195 76.841 297.772 76.8365 297.349C76.823 295.868 76.814 294.388 76.805 292.911C77.2866 292.871 77.8536 292.983 78.0021 292.313C78.1372 291.692 77.9526 291.183 77.3676 290.882C77.1876 290.787 76.9535 290.792 76.7465 290.751C76.3055 289.905 76.3955 288.983 76.373 288.082C76.355 287.245 76.364 286.408 76.364 285.571C77.6556 285.351 77.7186 285.324 77.4306 284.347C77.2236 283.636 77.1831 282.974 77.3496 282.254C77.5701 281.296 77.5296 281.287 76.3955 280.823C76.3955 280.54 76.391 280.256 76.3865 279.968C76.877 280.207 77.3271 280.288 77.5341 279.622C77.6961 279.1 77.5116 278.866 76.796 278.681C76.6655 278.645 76.5215 278.668 76.382 278.663C76.3685 277.776 76.148 276.867 76.6835 276.039C77.1066 276.053 77.4936 275.967 77.7816 275.621C78.1867 275.135 78.0337 274.59 77.4036 274.383C77.2146 274.32 76.9986 274.352 76.796 274.343C76.7465 273.456 76.7105 272.574 77.1516 271.755C77.2236 271.75 77.2911 271.746 77.3631 271.737C77.8716 271.647 78.4162 271.48 78.2947 270.855C78.1912 270.328 77.6241 270.508 77.2281 270.459C77.1831 269.572 77.1516 268.686 77.5926 267.867C77.6601 267.862 77.7321 267.857 77.7996 267.848C78.3082 267.758 78.8392 267.592 78.7267 266.971C78.6277 266.444 78.0651 266.62 77.6781 266.57C77.6781 264.797 77.9301 263.065 78.4207 261.363C78.6277 261.314 78.9697 261.327 79.0238 261.21C79.4513 260.252 79.9688 259.302 80.1894 258.294C80.5539 256.62 81.0534 255 81.5845 253.371C82.084 251.836 82.3181 250.216 83.1867 248.807C83.2857 248.645 83.2136 248.38 83.2586 248.173C83.3487 247.759 83.4072 247.322 83.5917 246.944C83.9427 246.219 84.1452 245.49 84.1452 244.676C84.1452 244.266 84.3117 243.843 84.4693 243.452C84.7123 242.853 85.0183 242.291 84.9958 241.615C84.9823 241.246 85.1128 240.909 85.4099 240.67C85.8374 240.328 85.9724 239.802 86.0399 239.338C86.2244 238.056 86.8005 236.89 87.084 235.657C87.5296 233.708 88.0156 231.787 88.7852 229.941C88.9202 229.613 89.0102 229.262 89.1047 228.92C89.2757 228.299 88.8482 228.204 88.4026 228.132C88.6817 226.791 88.9652 225.454 89.6763 224.253C90.5043 224.343 91.0669 224.005 91.3009 223.204C91.3999 222.867 91.3684 222.489 91.4809 222.156C92.066 220.405 92.2955 218.569 92.9661 216.827C93.9652 214.235 94.7978 211.571 95.6258 208.915C95.8689 208.128 96.0804 207.232 95.3153 206.521C95.3513 205.099 95.8464 203.834 96.6069 202.655C96.8725 202.633 97.1425 202.628 97.4035 202.583C97.705 202.529 97.8581 202.3 97.8626 202.016C97.8626 201.728 97.714 201.512 97.417 201.431C97.2865 201.395 97.156 201.373 97.0255 201.346C97.3945 200.266 97.786 199.19 98.1326 198.101C98.3891 197.282 98.7491 196.494 98.7941 195.617C98.8166 195.18 98.9967 194.802 99.2082 194.415C99.5142 193.852 99.8202 193.254 99.9328 192.637C100.446 189.793 101.656 187.192 102.674 184.518C103.974 184.41 104.208 183.398 104.393 182.412C104.496 181.854 104.523 181.323 104.865 180.81C106.211 178.812 106.463 176.445 106.98 174.172C107.066 173.803 106.863 173.483 106.544 173.267C106.53 172.304 107.007 171.512 107.426 170.698C108.313 170.702 108.673 170.081 108.943 169.393C109.519 167.93 110.041 166.449 110.441 164.924C110.783 163.618 111.067 162.255 111.674 161.067C112.399 159.645 112.592 158.051 113.353 156.661C113.578 156.247 113.452 155.819 113.007 155.554C113.268 154.132 113.916 152.84 114.496 151.548C115.378 149.577 116.125 147.556 116.949 145.563C118.349 142.183 119.73 138.79 121.665 135.657C121.89 135.977 122.237 136.211 122.507 135.864C123.002 135.221 123.434 134.519 123.79 133.79C123.974 133.416 123.835 132.966 123.425 132.692C124.663 130.738 126.467 129.451 128.501 128.488C130.185 127.692 131.944 127.043 133.794 126.71C133.83 126.971 133.875 127.273 134.177 127.318C134.523 127.372 134.577 127.057 134.636 126.8C134.649 126.737 134.649 126.67 134.658 126.602C135.896 126.053 137.174 125.702 138.546 125.801C138.578 126.067 138.609 126.404 138.902 126.44C139.375 126.499 139.348 126.067 139.411 125.756C141.125 125.09 142.916 125.482 144.672 125.387C145.252 125.356 145.797 125.486 146.319 125.747C146.382 126.062 146.35 126.499 146.827 126.44C147.12 126.404 147.151 126.062 147.183 125.797C149.005 125.788 150.734 126.188 152.363 127.007C152.426 127.323 152.363 127.764 152.844 127.741C153.15 127.723 153.191 127.386 153.227 127.115C154.019 127.034 154.69 127.395 155.378 127.705C155.81 127.903 156.247 128.092 156.683 128.29C157.228 129.721 157.903 129.883 158.843 128.812C159.757 128.938 160.612 129.235 161.436 129.636C161.845 130.684 162.097 130.752 163.159 130.108C164.478 130.644 165.9 130.842 167.201 131.458C167.903 131.791 168.695 132.003 169.469 132.102C171.337 132.345 173.042 133.142 174.865 133.547C175.553 133.7 176.211 134.037 176.845 134.37C177.304 134.609 177.786 134.717 178.281 134.807C178.303 135.144 178.353 135.477 178.6 135.738C178.843 135.995 179.131 136.148 179.496 136.067C179.905 135.977 179.959 135.635 180.009 135.302C181.791 135.693 183.56 136.112 185.189 136.971C185.864 138.376 186.706 138.623 188.222 137.863C189.05 137.818 189.59 138.569 190.369 138.65C190.373 138.722 190.373 138.79 190.391 138.857C190.45 139.123 190.49 139.465 190.859 139.402C191.175 139.348 191.202 139.024 191.238 138.749C192.349 138.668 193.236 139.393 194.262 139.618C194.613 140.585 194.739 140.626 195.567 140.023C196.53 139.987 197.331 140.459 198.15 140.869C198.159 141.49 198.438 141.944 199.01 142.183C199.649 142.453 200.297 142.705 200.954 142.93C201.683 143.182 202.156 142.84 202.471 142.201C203.587 142.187 204.554 142.723 205.571 143.052C208.438 143.974 211.309 144.892 214.14 145.905C215.958 146.557 217.876 146.944 219.581 147.925C219.995 148.164 220.553 148.155 221.044 148.259C221.048 148.398 221.048 148.533 221.057 148.673C221.08 149.033 221.161 149.384 221.579 149.447C222.137 149.528 222.272 149.136 222.336 148.695C223.591 149.091 224.838 149.514 226.107 149.874C226.674 150.036 227.115 150.338 227.52 150.738C227.912 151.863 228.213 151.949 229.275 151.22C231.413 151.602 233.344 152.543 235.297 153.425C235.783 154.847 236.26 155.027 237.479 154.249C238.87 154.375 240.063 155.086 241.291 155.639C243.51 156.643 245.67 157.772 247.83 158.898C248.587 159.294 249.266 159.834 249.982 160.306C250.123 160.9 250.411 161.056 250.846 160.774C251.741 160.887 252.344 161.521 253.028 162.003C253.348 163.389 253.69 163.569 254.739 162.916C257.79 164.19 260.801 165.54 263.37 167.682C262.911 168.02 263.001 168.38 263.352 168.722C264.199 169.546 265.274 169.771 266.404 169.843C266.552 169.96 266.705 170.077 266.854 170.198C266.971 171.125 266.98 171.13 267.664 170.761C268.897 171.643 270.162 172.498 271.174 173.65C271.174 173.852 271.129 174.064 271.17 174.258C271.323 175.036 271.557 175.099 272.425 174.631C273.195 175.005 273.748 175.612 274.257 176.274C274.126 176.431 273.883 176.593 273.888 176.746C273.91 177.408 274.432 177.714 274.946 177.961C275.301 178.132 275.639 177.988 275.877 177.66C276.638 178.038 277.196 178.645 277.709 179.298C277.295 179.559 277.16 179.897 277.538 180.266C277.979 180.702 278.46 180.788 278.906 180.243C279.54 180.428 279.793 181.031 280.216 181.44C280.22 181.643 280.193 181.85 280.238 182.043C280.414 182.817 280.63 182.876 281.498 182.399C282.263 182.777 282.821 183.384 283.339 184.037C282.925 184.293 282.772 184.631 283.15 185.009C283.591 185.455 284.072 185.536 284.522 184.987C285.454 185.446 286.053 186.278 286.773 186.976C287.961 188.128 289.095 189.329 290.252 190.513C289.941 190.711 289.702 190.95 289.945 191.341C290.094 191.575 290.306 191.791 290.612 191.715C290.922 191.638 290.972 191.35 291.003 191.076L290.985 191.035Z" fill="#FFB68A"/>
<path d="M242.691 204.028C244.537 204.248 246.386 204.469 248.231 204.685C248.447 204.712 248.659 204.735 248.875 204.748C251.382 204.924 253.911 204.919 256.382 205.315C258.947 205.729 261.557 205.405 264.091 206.013C264.23 206.044 264.379 206.035 264.518 206.044C267.385 206.215 270.274 206.206 273.105 206.616C275.959 207.025 278.857 206.692 281.683 207.3C281.89 207.345 282.111 207.336 282.327 207.345C285.477 207.52 288.654 207.511 291.778 207.925C294.491 208.285 297.241 207.988 299.923 208.596C300.063 208.627 300.211 208.632 300.351 208.623C302.975 208.497 305.481 209.086 307.975 209.807C308.519 209.964 309.104 209.982 309.676 210.068C310.373 210.45 311.12 210.675 311.885 210.891C318.996 212.894 326.057 215.063 332.97 217.687C336.332 218.965 339.527 220.594 342.682 222.304C345.958 224.082 349.194 225.945 352.448 227.768C353.195 228.186 353.996 228.537 354.55 229.235C353.992 229.734 353.758 230.427 353.465 231.08C352.236 233.834 351.012 236.589 349.811 239.356C347.722 244.163 345.67 248.987 343.578 253.789C341.399 258.794 339.185 263.78 337.002 268.78C334.19 275.229 331.381 281.683 328.587 288.141C327.416 290.841 326.296 293.564 325.135 296.269C324.815 297.007 324.599 297.754 324.613 298.56C324.185 298.514 323.735 298.542 323.339 298.416C319.505 297.187 315.58 296.413 311.602 295.819C307.205 295.166 302.813 294.532 298.348 294.599C295.693 294.64 293.033 294.581 290.387 294.77C286.242 295.067 282.111 295.513 277.948 295.562C276.584 295.58 275.225 295.621 273.888 295.945C272.894 294.703 271.706 293.681 270.36 292.821C266.908 290.63 263.452 288.452 260.041 286.197C252.862 281.449 245.626 276.791 238.276 272.309C234.6 270.067 230.905 267.858 226.944 266.138C227.079 264.572 227.412 263.051 227.75 261.516C228.299 259.019 229.096 256.57 229.33 254.005C229.928 252.835 229.978 251.53 230.279 250.283C232.061 242.894 233.866 235.513 235.612 228.114C236.04 226.305 236.607 224.514 236.661 222.633C237.165 221.994 237.268 221.215 237.439 220.45C237.966 218.092 238.461 215.725 239.352 213.461C239.847 212.205 240.338 210.941 240.716 209.649C241.139 208.213 241.652 206.814 242.241 205.441C242.435 204.991 242.538 204.496 242.682 204.023L242.691 204.028Z" fill="#8989DE"/>
<path d="M324.613 298.561C324.604 297.755 324.82 297.008 325.135 296.27C326.3 293.565 327.421 290.843 328.586 288.142C331.381 281.684 334.185 275.231 337.002 268.782C339.185 263.782 341.399 258.791 343.577 253.791C345.67 248.984 347.722 244.164 349.81 239.358C351.012 236.59 352.232 233.836 353.465 231.081C353.757 230.429 353.991 229.736 354.549 229.236C355.454 229.34 356.129 229.916 356.831 230.397C359.729 232.391 362.637 234.376 365.485 236.442C368.627 238.719 371.647 241.14 374.405 243.894C377.254 246.743 379.981 249.709 382.646 252.72C387.785 258.525 392.7 264.529 397.241 270.825C400.733 275.663 404.023 280.636 407.015 285.793C410.661 292.085 413.771 298.637 416.061 305.555C416.556 307.049 417.11 308.538 417.209 310.141C413.699 309.907 410.188 309.668 406.678 309.434C406.534 309.425 406.39 309.403 406.246 309.398C403.447 309.236 400.647 309.083 397.853 308.912C393.622 308.655 389.392 308.385 385.161 308.124C385.017 308.115 384.873 308.111 384.729 308.102C380.778 307.917 376.813 307.89 372.884 307.499C369.23 307.139 365.548 307.377 361.912 306.842C361.345 306.756 360.765 306.797 360.188 306.779C354.653 306.603 349.117 306.441 343.586 306.243C342.308 306.198 341.035 305.964 339.752 306.216C339.306 305.447 338.613 304.947 337.875 304.488C334.887 302.643 331.822 300.946 328.465 299.839C327.182 299.416 325.9 298.993 324.617 298.57L324.613 298.561Z" fill="#FFB68A"/>
<path d="M121.279 339.668C120.698 340.073 120.027 339.897 119.397 339.965C118.884 340.019 118.596 340.298 118.605 340.789C118.619 341.648 118.655 342.512 118.749 343.367C118.965 345.361 119.258 347.346 119.447 349.344C119.667 351.698 119.802 354.065 119.996 356.423C120.234 359.353 120.522 362.278 120.738 365.208C120.842 366.567 120.833 367.935 120.873 369.299C120.765 369.389 120.666 369.542 120.545 369.564C117.948 370.073 115.423 370.928 112.759 371.112C111.837 371.175 110.914 371.36 110.005 371.554C106.945 372.202 103.853 371.941 100.77 371.914C100.41 371.914 100.041 371.914 99.6989 371.824C97.2732 371.18 94.798 370.739 92.4308 369.875C91.6117 369.578 90.8646 369.191 90.131 368.727C86.4317 366.396 84.2805 362.949 82.7458 358.957C80.9592 354.308 79.9511 349.474 78.9835 344.623C78.4929 342.166 78.0024 339.695 77.7728 337.206C77.4173 333.354 76.9403 329.479 77.3183 325.604C77.5388 323.381 77.6153 321.167 77.6648 318.943C77.6828 318.133 77.9124 317.386 78.1419 316.635C78.871 316.671 79.2625 317.224 79.7305 317.661C80.0456 317.958 80.3516 318.318 80.8061 318.331C82.0978 318.372 83.3084 318.925 84.636 318.831C85.9951 318.736 87.3678 318.799 88.7359 318.813C89.8205 318.822 90.8916 318.835 91.8592 318.205C92.4128 317.845 92.9573 317.958 93.4254 318.417C93.6819 318.669 93.9429 318.916 94.1949 319.173C96.0311 321 97.8988 322.8 99.6854 324.673C101.526 326.599 103.772 328.066 105.55 330.06C105.968 330.532 106.603 330.802 107.075 331.234C108.092 332.166 109.204 332.314 110.437 331.756C110.585 332.076 110.667 332.467 110.901 332.706C112.966 334.812 115.063 336.891 117.143 338.979C117.575 339.416 118.088 339.582 118.7 339.578C119.559 339.578 120.419 339.632 121.283 339.663L121.279 339.668Z" fill="#FFB68A"/>
<path d="M110.437 331.756C109.204 332.319 108.096 332.166 107.075 331.234C106.602 330.802 105.968 330.532 105.549 330.06C103.772 328.066 101.526 326.594 99.6852 324.673C97.894 322.801 96.0263 321.005 94.1946 319.173C93.9381 318.921 93.6816 318.669 93.4251 318.417C92.957 317.954 92.4125 317.846 91.8589 318.206C90.8913 318.836 89.8202 318.827 88.7356 318.813C87.3675 318.8 85.9949 318.732 84.6357 318.831C83.3126 318.926 82.102 318.372 80.8059 318.332C80.3558 318.318 80.0453 317.954 79.7303 317.661C79.2622 317.225 78.8707 316.671 78.1416 316.635C78.2946 315.496 78.4476 314.362 78.6051 313.224C78.6772 313.21 78.7537 313.215 78.8167 313.183C80.4068 312.328 82.1545 311.901 84.0597 311.901C85.4188 311.901 86.7734 311.896 88.1326 311.901C88.6501 311.901 89.1362 311.833 89.5142 311.45C90.6753 310.289 92.1335 309.479 93.2136 308.219C94.1001 307.184 95.1982 306.383 96.2783 305.564C96.9759 305.037 97.6735 304.61 98.5826 304.547C99.4286 304.488 100.108 304.763 100.747 305.28C100.9 305.406 101.148 305.411 101.355 305.469C101.611 306.838 101.13 308.039 100.383 309.11C99.6537 310.163 98.8256 311.158 97.948 312.094C96.2738 313.89 96.1973 313.912 98.0335 315.649C101.782 319.196 104.987 323.26 108.722 326.819C109.285 327.355 109.685 328.057 110.153 328.687C110.734 329.466 110.99 330.339 110.882 331.311C110.734 331.459 110.585 331.612 110.437 331.761V331.756Z" fill="#E7A37B"/>
<path d="M88.4077 228.104C88.8578 228.176 89.2853 228.271 89.1098 228.892C89.0153 229.238 88.9298 229.585 88.7903 229.913C88.0252 231.763 87.5347 233.68 87.0891 235.629C86.8056 236.866 86.2295 238.028 86.045 239.31C85.9775 239.774 85.8425 240.3 85.415 240.642C85.1134 240.885 84.9874 241.218 85.0009 241.587C85.0234 242.262 84.7174 242.83 84.4744 243.424C84.3168 243.815 84.1503 244.238 84.1503 244.648C84.1503 245.462 83.9478 246.191 83.5968 246.916C83.4168 247.289 83.3583 247.731 83.2637 248.145C83.2187 248.352 83.2907 248.613 83.1917 248.779C82.3232 250.188 82.0891 251.808 81.5896 253.343C81.0585 254.972 80.5635 256.592 80.1944 258.266C79.9739 259.279 79.4564 260.228 79.0288 261.182C78.9748 261.299 78.6328 261.286 78.4258 261.335C78.4528 260.548 78.5473 259.783 78.7678 259.009C79.8569 255.152 80.964 251.304 82.1791 247.483C84.0243 241.686 85.7795 235.863 87.5932 230.057C87.8047 229.387 87.8767 228.644 88.4032 228.1L88.4077 228.104Z" fill="#FFB68A"/>
<path d="M95.3114 206.5C96.081 207.207 95.8695 208.107 95.6219 208.894C94.7939 211.549 93.9658 214.214 92.9622 216.806C92.2916 218.548 92.0621 220.384 91.477 222.135C91.3645 222.468 91.396 222.846 91.297 223.183C91.063 223.984 90.5004 224.322 89.6724 224.232C89.8524 223.395 89.9694 222.54 90.2304 221.729C91.7831 216.824 93.3717 211.928 94.9559 207.027C95.0189 206.833 95.1899 206.676 95.3069 206.5H95.3114Z" fill="#FFB68A"/>
<path d="M113.007 155.527C113.452 155.793 113.578 156.22 113.353 156.634C112.597 158.03 112.404 159.618 111.675 161.04C111.067 162.229 110.784 163.592 110.442 164.897C110.041 166.423 109.514 167.904 108.943 169.366C108.673 170.055 108.308 170.676 107.426 170.671C107.575 169.015 108.299 167.525 108.839 165.995C109.92 162.913 111.117 159.87 112.282 156.814C112.458 156.355 112.602 155.865 113.007 155.532V155.527Z" fill="#FFB68A"/>
<path d="M106.544 173.244C106.863 173.465 107.066 173.78 106.98 174.149C106.458 176.421 106.211 178.789 104.865 180.787C104.523 181.295 104.496 181.831 104.393 182.389C104.208 183.375 103.969 184.387 102.673 184.495C102.705 184.212 102.687 183.915 102.777 183.649C103.933 180.287 105.108 176.925 106.283 173.573C106.328 173.447 106.458 173.352 106.548 173.244H106.544Z" fill="#FFB68A"/>
<path d="M299.613 199.236C299.42 199.497 299.132 199.6 298.875 199.429C297.043 198.219 295.239 196.959 293.839 195.226C293.497 194.803 293.619 194.276 293.664 193.781C296.022 195.19 297.894 197.13 299.609 199.236H299.613Z" fill="#FFB68A"/>
<path d="M202.462 142.17C202.146 142.809 201.674 143.151 200.945 142.899C200.288 142.674 199.64 142.418 199.001 142.152C198.429 141.913 198.15 141.454 198.141 140.838C199.635 141.108 201.138 141.351 202.462 142.175V142.17Z" fill="#FFB68A"/>
<path d="M76.405 280.805C77.5391 281.268 77.5796 281.277 77.3591 282.236C77.1926 282.956 77.2331 283.617 77.4401 284.329C77.7281 285.305 77.6651 285.328 76.3735 285.553C76.261 283.968 76.2115 282.384 76.405 280.805Z" fill="#FFB68A"/>
<path d="M123.426 132.666C123.831 132.941 123.97 133.386 123.79 133.764C123.435 134.493 123.003 135.195 122.508 135.839C122.238 136.19 121.891 135.951 121.666 135.632C122.076 134.538 122.683 133.562 123.43 132.666H123.426Z" fill="#FFB68A"/>
<path d="M266.39 169.807C265.261 169.739 264.189 169.51 263.339 168.686C262.988 168.349 262.898 167.989 263.357 167.646C264.477 168.209 265.553 168.839 266.39 169.802V169.807Z" fill="#FFB68A"/>
<path d="M188.218 137.832C186.697 138.593 185.86 138.346 185.185 136.941C186.283 136.941 187.305 137.211 188.218 137.832Z" fill="#FFB68A"/>
<path d="M76.7559 290.74C76.9629 290.781 77.1924 290.781 77.3769 290.871C77.962 291.168 78.151 291.681 78.0115 292.302C77.863 292.972 77.2914 292.86 76.8144 292.9C76.7964 292.18 76.7784 291.46 76.7559 290.74Z" fill="#FFB68A"/>
<path d="M275.868 177.617C275.63 177.941 275.292 178.085 274.937 177.918C274.424 177.671 273.901 177.365 273.879 176.703C273.874 176.55 274.117 176.388 274.248 176.23C274.991 176.455 275.504 176.951 275.868 177.617Z" fill="#FFB68A"/>
<path d="M158.839 128.786C157.898 129.857 157.223 129.69 156.679 128.264C157.421 128.354 158.227 128.174 158.839 128.786Z" fill="#FFB68A"/>
<path d="M237.471 154.219C236.251 154.997 235.774 154.817 235.288 153.395C236.125 153.381 236.845 153.67 237.471 154.219Z" fill="#FFB68A"/>
<path d="M76.8054 274.33C77.0079 274.339 77.2284 274.308 77.4129 274.371C78.043 274.578 78.196 275.122 77.791 275.608C77.5029 275.955 77.1159 276.036 76.6929 276.027C76.7289 275.46 76.7694 274.897 76.8054 274.33Z" fill="#FFB68A"/>
<path d="M278.892 180.205C278.447 180.749 277.965 180.664 277.524 180.227C277.146 179.854 277.281 179.516 277.695 179.26C278.249 179.381 278.654 179.687 278.892 180.209V180.205Z" fill="#FFB68A"/>
<path d="M76.3911 278.645C76.5306 278.65 76.6746 278.632 76.8051 278.663C77.5207 278.848 77.7097 279.082 77.5432 279.604C77.3317 280.27 76.8817 280.189 76.3956 279.95C76.3956 279.514 76.3956 279.077 76.3956 278.641L76.3911 278.645Z" fill="#FFB68A"/>
<path d="M305.31 205.135C305.013 205.599 304.653 205.68 304.275 205.252C303.888 204.811 303.852 204.357 304.352 203.947C304.874 204.177 305.18 204.586 305.306 205.135H305.31Z" fill="#FFB68A"/>
<path d="M77.5885 303.717C78.2726 303.677 78.5426 304.136 78.7406 304.671C78.8981 305.095 78.6776 305.311 78.2906 305.387C78.0925 305.428 77.8855 305.414 77.6785 305.423C77.647 304.851 77.6155 304.284 77.584 303.713L77.5885 303.717Z" fill="#FFB68A"/>
<path d="M284.509 184.952C284.059 185.501 283.577 185.42 283.136 184.974C282.758 184.596 282.911 184.258 283.325 184.002C283.87 184.132 284.28 184.434 284.509 184.952Z" fill="#FFB68A"/>
<path d="M180 135.277C179.946 135.614 179.892 135.952 179.487 136.042C179.123 136.123 178.835 135.975 178.592 135.713C178.344 135.452 178.299 135.119 178.272 134.782C178.902 134.755 179.474 134.939 180 135.272V135.277Z" fill="#FFB68A"/>
<path d="M97.0255 201.322C97.156 201.349 97.2865 201.372 97.417 201.408C97.714 201.489 97.8671 201.705 97.8626 201.993C97.8626 202.276 97.705 202.506 97.4035 202.56C97.1425 202.605 96.8725 202.609 96.6069 202.632C96.6204 202.155 96.5934 201.664 97.0255 201.322Z" fill="#FFB68A"/>
<path d="M254.73 162.886C253.682 163.539 253.34 163.354 253.02 161.973C253.673 162.121 254.28 162.355 254.73 162.886Z" fill="#FFB68A"/>
<path d="M163.155 130.086C162.093 130.729 161.841 130.657 161.432 129.613C162.035 129.658 162.687 129.541 163.155 130.086Z" fill="#FFB68A"/>
<path d="M222.327 148.669C222.264 149.11 222.129 149.506 221.571 149.42C221.148 149.357 221.071 149.006 221.049 148.646C221.04 148.507 221.04 148.372 221.035 148.232C221.526 148.196 221.931 148.43 222.331 148.669H222.327Z" fill="#FFB68A"/>
<path d="M281.485 182.359C280.616 182.836 280.4 182.778 280.225 182.003C280.18 181.81 280.207 181.603 280.202 181.4C280.792 181.504 281.228 181.805 281.485 182.359Z" fill="#FFB68A"/>
<path d="M272.416 174.587C271.548 175.059 271.314 174.992 271.161 174.213C271.125 174.019 271.161 173.808 271.165 173.605C271.723 173.749 272.169 174.038 272.412 174.582L272.416 174.587Z" fill="#FFB68A"/>
<path d="M290.985 191.037C290.958 191.312 290.904 191.6 290.594 191.676C290.288 191.753 290.076 191.537 289.928 191.303C289.685 190.911 289.928 190.677 290.234 190.475C290.571 190.547 290.841 190.704 290.981 191.037H290.985Z" fill="#FFB68A"/>
<path d="M77.6827 266.553C78.0697 266.602 78.6368 266.427 78.7313 266.953C78.8438 267.574 78.3127 267.741 77.8042 267.831C77.7367 267.844 77.6647 267.844 77.5972 267.849C77.6242 267.417 77.6512 266.985 77.6782 266.553H77.6827Z" fill="#FFB68A"/>
<path d="M229.266 151.189C228.204 151.918 227.903 151.832 227.511 150.707C228.128 150.757 228.78 150.667 229.266 151.189Z" fill="#FFB68A"/>
<path d="M77.2372 270.439C77.6287 270.489 78.2002 270.309 78.3038 270.835C78.4253 271.461 77.8852 271.628 77.3722 271.718C77.3047 271.731 77.2327 271.731 77.1606 271.736C77.1876 271.304 77.2102 270.871 77.2372 270.439Z" fill="#FFB68A"/>
<path d="M78.0112 308.038C78.4613 308.065 78.8933 308.132 78.8618 308.726C78.8393 309.19 78.4568 309.244 78.1012 309.307C78.0697 308.884 78.0382 308.461 78.0112 308.033V308.038Z" fill="#FFB68A"/>
<path d="M195.558 139.99C194.734 140.593 194.604 140.553 194.253 139.585C194.734 139.576 195.216 139.558 195.558 139.99Z" fill="#FFB68A"/>
<path d="M307.326 207.388C307.124 207.379 306.917 207.392 306.723 207.347C306.206 207.225 306.192 207.126 306.548 206.523C306.935 206.694 307.205 206.973 307.326 207.388Z" fill="#FFB68A"/>
<path d="M147.179 125.772C147.147 126.038 147.116 126.38 146.823 126.416C146.346 126.474 146.377 126.038 146.314 125.723C146.602 125.741 146.891 125.754 147.179 125.772Z" fill="#FFB68A"/>
<path d="M139.407 125.73C139.344 126.045 139.371 126.473 138.898 126.415C138.605 126.379 138.574 126.041 138.542 125.775C138.831 125.762 139.119 125.744 139.407 125.73Z" fill="#FFB68A"/>
<path d="M77.1836 298.523C77.5031 298.577 77.9352 298.546 77.8677 299.032C77.8272 299.32 77.4806 299.347 77.2151 299.379C77.2061 299.095 77.1926 298.807 77.1836 298.523Z" fill="#FFB68A"/>
<path d="M267.655 170.721C266.967 171.09 266.958 171.09 266.845 170.158C267.192 170.235 267.498 170.37 267.655 170.721Z" fill="#FFB68A"/>
<path d="M250.832 160.743C250.397 161.025 250.109 160.869 249.968 160.275C250.328 160.298 250.639 160.41 250.832 160.743Z" fill="#FFB68A"/>
<path d="M191.233 138.718C191.202 138.993 191.17 139.317 190.855 139.371C190.486 139.434 190.446 139.096 190.387 138.826C190.374 138.759 190.374 138.687 190.365 138.619C190.653 138.651 190.941 138.682 191.229 138.718H191.233Z" fill="#FFB68A"/>
<path d="M153.222 127.088C153.186 127.359 153.146 127.696 152.84 127.714C152.358 127.741 152.417 127.295 152.358 126.98C152.646 127.016 152.934 127.052 153.222 127.088Z" fill="#FFB68A"/>
<path d="M134.654 126.576C134.645 126.644 134.645 126.711 134.631 126.774C134.573 127.031 134.519 127.346 134.172 127.292C133.871 127.247 133.826 126.945 133.79 126.684C134.078 126.648 134.366 126.612 134.654 126.581V126.576Z" fill="#FFB68A"/>
<path d="M226.949 266.145C230.909 267.869 234.599 270.074 238.281 272.315C245.63 276.793 252.867 281.456 260.045 286.204C263.456 288.458 266.913 290.636 270.364 292.828C271.71 293.683 272.898 294.705 273.893 295.951C272.921 296.726 271.778 297.162 270.648 297.612C266.12 299.43 261.58 301.208 257.052 303.022C256.323 303.314 255.535 303.602 254.964 304.106C253.411 305.479 251.958 306.969 250.463 308.413C249.482 309.246 248.213 309.309 247.052 309.601C242.039 310.866 236.985 311.973 231.985 313.292C223.578 315.506 215.162 317.666 206.71 319.7C200.288 321.248 193.902 322.959 187.502 324.61C186.872 324.772 186.256 324.952 185.594 324.849C187.174 322.031 189.037 319.394 190.905 316.77C194.397 311.865 197.975 307.023 201.485 302.131C204.541 297.882 207.538 293.593 210.59 289.34C216.107 281.654 221.656 273.989 226.944 266.141L226.949 266.145Z" fill="#FFB68A"/>
<path d="M178.61 326.144C178.817 326.248 179.024 326.356 179.231 326.459C176.854 327.305 174.361 327.692 171.922 328.277C162.286 330.582 152.638 332.823 142.993 335.082C140.617 335.64 138.236 336.171 135.86 336.738C135.086 336.923 134.316 337.071 133.52 337.022C128.173 334.394 122.962 331.527 117.962 328.273C116.189 327.121 116.036 327.148 114.42 328.529C114.258 328.669 114.105 328.822 113.943 328.966C112.989 329.835 111.985 330.636 110.878 331.297C110.991 330.325 110.734 329.452 110.149 328.673C109.681 328.043 109.276 327.341 108.718 326.806C104.982 323.246 101.778 319.182 98.0293 315.636C96.1976 313.903 96.2697 313.876 97.9438 312.08C98.8169 311.144 99.645 310.15 100.379 309.097C101.121 308.025 101.603 306.824 101.351 305.456L101.49 305.316C102.458 305.055 103.412 304.74 104.393 304.538C106.423 304.11 108.466 303.732 110.509 303.363C110.851 303.3 111.229 303.341 111.571 303.417C112.692 303.674 113.821 303.894 114.906 304.259C118.241 305.375 121.589 306.468 124.874 307.724C129.24 309.394 133.749 310.577 138.218 311.914C141.175 312.8 144.141 313.665 147.048 314.686C153.272 316.882 159.465 319.182 165.671 321.423C168.371 322.395 171.085 323.327 173.79 324.272C174.132 324.452 174.496 324.394 174.856 324.353L174.874 324.367C175.023 324.79 175.356 324.862 175.743 324.817C175.882 324.817 176.008 324.862 176.125 324.938C176.953 325.339 177.781 325.739 178.61 326.135V326.144Z" fill="#FFB68A"/>
<path d="M184.78 325.27C184.973 324.946 185.257 324.807 185.63 324.861C185.459 325.234 185.144 325.302 184.78 325.27Z" fill="#E7A37B"/>
<path d="M179.501 189.325C180.217 189.23 180.928 189.23 181.639 189.397C182.125 189.509 182.629 189.604 183.124 189.586C184.933 189.532 186.688 189.937 188.461 190.162C189.879 190.342 191.274 190.688 192.687 190.886C194.186 191.093 195.622 191.008 197.111 190.441C202.071 188.555 207.084 186.827 212.084 185.049C212.417 184.932 212.782 184.91 213.133 184.838C213.763 185.207 214.429 185.4 215.171 185.355C215.923 185.31 216.76 185.526 217.093 186.103C217.656 187.075 218.776 187.417 219.298 188.362C219.739 190.409 219.676 192.493 219.721 194.572C219.721 194.644 219.73 194.716 219.721 194.788C219.649 195.931 220.261 196.692 221.152 197.259C221.634 197.565 222.174 197.781 222.705 198.002C226.089 199.406 229.312 201.138 232.588 202.768C235.198 204.068 236.301 206.805 235.455 209.658C234.762 211.994 234.015 214.311 233.304 216.642C232.971 217.736 232.638 218.834 232.35 219.946C232.156 220.684 232.318 221.017 233.034 221.3C234.231 221.777 235.455 222.191 236.665 222.637C236.611 224.518 236.044 226.309 235.617 228.119C233.871 235.517 232.066 242.898 230.284 250.288C229.982 251.534 229.933 252.839 229.334 254.01C223.839 252.295 218.344 250.576 212.849 248.861C211.94 248.339 211.364 247.511 210.905 246.611C210.216 245.27 209.541 243.92 208.916 242.547C206.049 236.273 203.187 229.995 200.356 223.708C200.009 222.943 199.564 222.43 198.776 222.074C196.877 221.219 195.032 220.252 193.155 219.343C191.594 218.587 190.581 217.403 189.897 215.787C186.567 207.912 183.448 199.955 180.622 191.886C180.316 191.008 179.883 190.18 179.51 189.325H179.501Z" fill="#FFB68A"/>
<path d="M115.752 235.461C115.554 236.942 114.821 238.184 113.997 239.385C113.894 239.291 113.75 239.214 113.687 239.097C113.191 238.166 113.844 237.459 114.177 236.69C114.479 235.992 114.879 235.421 115.752 235.461Z" fill="#FFB68A"/>
<path d="M114.352 277.782C114.456 278.79 114.559 279.798 114.663 280.806C114.15 280.806 113.695 280.734 113.416 280.194C113.074 279.533 112.903 278.853 113.218 278.164C113.425 277.714 113.938 277.809 114.352 277.777V277.782Z" fill="#FFB68A"/>
<path d="M110.127 251.391C110.811 252.462 110.986 253.659 110.977 254.897C110.842 254.87 110.694 254.87 110.572 254.816C109.821 254.47 109.861 253.682 109.677 253.056C109.506 252.476 109.47 251.805 110.122 251.387L110.127 251.391Z" fill="#FFB68A"/>
<path d="M114.78 283.398C115.05 284.326 115.351 285.262 114.411 286.018C113.898 285.752 113.907 285.203 113.749 284.758C113.371 283.677 113.439 283.614 114.78 283.398Z" fill="#FFB68A"/>
<path d="M127.912 210.463C127.674 211.571 127.237 212.583 126.517 213.465C126.378 213.312 126.166 213.186 126.108 213.006C125.95 212.52 125.991 212.021 126.346 211.625C126.787 211.134 126.972 210.292 127.908 210.459L127.912 210.463Z" fill="#FFB68A"/>
<path d="M146.778 170.685C146.589 171.666 146.139 172.526 145.545 173.318C144.807 172.8 145.005 172.161 145.275 171.486C145.558 170.775 146.107 170.631 146.778 170.689V170.685Z" fill="#FFB68A"/>
<path d="M111.413 244.523C111.287 245.68 110.797 246.675 110.054 247.557C109.942 247.395 109.703 247.188 109.744 247.08C110.018 246.31 110.32 245.545 110.693 244.816C110.783 244.64 111.166 244.613 111.418 244.523H111.413Z" fill="#FFB68A"/>
<path d="M133.394 199.178C133.2 200.163 132.75 201.023 132.129 201.806C131.989 201.657 131.778 201.536 131.728 201.36C131.548 200.766 131.94 200.312 132.192 199.835C132.439 199.362 132.881 199.191 133.394 199.178Z" fill="#FFB68A"/>
<path d="M141.665 181.467C141.602 182.574 141.17 183.505 140.333 184.248C140.126 183.393 140.531 182.65 140.806 181.894C140.932 181.543 141.319 181.498 141.665 181.467Z" fill="#FFB68A"/>
<path d="M113.502 269.578C113.552 270.136 113.597 270.694 113.646 271.252C112.935 271.365 112.615 270.928 112.404 270.357C112.237 269.916 112.462 269.691 112.868 269.614C113.075 269.574 113.291 269.587 113.502 269.578Z" fill="#FFB68A"/>
<path d="M112.336 263.064C112.619 263.618 112.768 264.203 112.714 264.829C112.516 264.802 112.291 264.824 112.12 264.739C111.287 264.32 111.247 263.879 111.971 263.235C112.066 263.15 112.214 263.123 112.336 263.064Z" fill="#FFB68A"/>
<path d="M163.988 167.314C163.398 167.215 162.745 167.336 162.277 166.819C163.348 166.108 163.663 166.198 163.988 167.314Z" fill="#FFB68A"/>
<path d="M137.723 190.176C137.678 190.784 137.354 191.23 136.882 191.585C136.873 191.162 136.828 190.739 136.868 190.32C136.886 190.154 137.084 189.911 137.228 189.888C137.377 189.866 137.557 190.073 137.728 190.181L137.723 190.176Z" fill="#FFB68A"/>
<path d="M113.961 273.461C113.992 273.879 114.024 274.294 114.06 274.712C113.632 274.721 113.182 274.694 113.142 274.154C113.101 273.609 113.533 273.51 113.965 273.465L113.961 273.461Z" fill="#FFB68A"/>
<path d="M111.765 258.348C111.81 258.766 111.85 259.18 111.895 259.599C111.477 259.608 111.036 259.585 110.982 259.054C110.928 258.523 111.337 258.402 111.765 258.352V258.348Z" fill="#FFB68A"/>
<path d="M113.083 266.553C113.124 266.967 113.164 267.385 113.205 267.799C112.782 267.808 112.332 267.795 112.278 267.255C112.224 266.715 112.651 266.602 113.083 266.553Z" fill="#FFB68A"/>
<path d="M112.224 261.369C112.246 261.81 112.269 262.251 112.291 262.697C112.169 262.638 112.03 262.598 111.931 262.512C111.247 261.923 111.314 261.68 112.224 261.369Z" fill="#FFB68A"/>
<path d="M131.715 202.666C131.638 203.283 131.332 203.755 130.833 204.115C130.809 203.323 131.103 202.84 131.715 202.666Z" fill="#FFB68A"/>
<path d="M112.697 241.932C112.665 242.58 112.337 243.048 111.828 243.421C111.804 242.638 112.094 242.142 112.697 241.932Z" fill="#FFB68A"/>
<path d="M122.165 222.5C122.152 222.856 122.062 223.175 121.751 223.391C121.22 222.734 121.225 222.721 122.165 222.5Z" fill="#FFB68A"/>
<path d="M143.785 177.152C143.767 177.508 143.682 177.832 143.385 178.066C143.007 177.619 143.14 177.314 143.785 177.152Z" fill="#FFB68A"/>
<path d="M111.098 256.088C111.364 256.358 111.418 256.695 111.413 257.051C111.112 257.001 110.734 257.051 110.653 256.632C110.59 256.304 110.887 256.218 111.098 256.088Z" fill="#FFB68A"/>
<path d="M179.501 189.327C179.874 190.177 180.306 191.01 180.612 191.887C183.439 199.957 186.553 207.913 189.888 215.789C190.572 217.405 191.584 218.588 193.146 219.345C195.023 220.254 196.868 221.221 198.767 222.076C199.555 222.432 200.005 222.94 200.347 223.71C203.177 229.997 206.04 236.275 208.906 242.549C209.532 243.921 210.207 245.271 210.896 246.613C211.359 247.513 211.931 248.341 212.84 248.863C212.52 250.388 211.589 251.595 210.698 252.801C210.063 253.665 209.37 254.502 208.605 255.253C203.465 260.303 197.529 264.115 190.752 266.577C188.722 267.31 186.634 267.801 184.465 267.936C183.826 267.976 183.196 268.147 182.565 268.26C182.439 268.093 182.237 267.94 182.201 267.756C182.061 267.022 181.625 266.653 180.918 266.509C180.432 266.41 179.964 266.239 179.478 266.135C176.35 265.469 173.236 264.758 170.189 263.786C167.408 262.904 164.627 262.013 161.971 260.78C161.179 260.411 160.468 260.424 159.802 261.045C159.649 261.19 159.442 261.271 159.262 261.383C154.771 258.809 151.076 255.339 148.016 251.19C146.909 249.691 145.923 248.098 144.928 246.518C143.115 243.638 141.895 240.506 141.004 237.229C140.738 236.262 140.482 235.285 140.144 234.34C139.559 232.697 139.312 231.005 139.276 229.268C139.163 223.341 139.906 217.495 141.418 211.788C144.352 200.731 151.746 193.823 162.314 190.119C167.926 188.152 173.686 187.828 179.496 189.322L179.501 189.327Z" fill="#884100"/>
<path d="M173.6 323.543C170.418 321.117 167.88 318.107 165.702 314.781C162.043 309.2 159.545 303.098 157.723 296.712C155.815 290.024 154.973 283.206 155.373 276.248C155.531 273.512 155.936 270.812 156.719 268.188C157.273 266.334 157.93 264.511 159.23 263.008C159.491 264.439 160.553 265.213 161.71 265.785C163.573 266.703 165.486 267.531 167.417 268.305C170.756 269.637 174.284 270.339 177.763 271.154C179.329 271.523 181.044 271.631 182.619 270.852C183.114 271.334 183.168 272.018 183.353 272.621C184.784 277.225 185.85 281.91 186.516 286.689C186.624 287.472 186.751 288.251 186.872 289.034C186.584 289.34 186.661 289.61 186.953 289.862C187.075 290.884 187.192 291.901 187.313 292.922C187.025 293.219 187.079 293.494 187.372 293.75C187.498 295.924 187.624 298.098 187.75 300.271C187.534 300.573 187.507 300.919 187.507 301.275C187.511 302.751 187.516 304.227 187.511 305.703C187.511 306.059 187.534 306.405 187.745 306.707C187.624 308.305 187.502 309.902 187.376 311.5C187.079 311.747 187.007 312.018 187.3 312.324C186.962 314.587 186.53 316.824 185.814 319.002C185.166 320.978 184.104 322.585 182.223 323.606C181.35 324.079 180.634 324.826 179.658 325.132C178.479 325.073 177.3 325.015 176.12 324.952C176.003 324.875 175.877 324.835 175.738 324.83C175.535 324.511 175.234 324.385 174.869 324.38L174.851 324.367C174.559 323.903 174.158 323.606 173.6 323.552V323.543Z" fill="#894100"/>
<path d="M182.62 270.857C181.045 271.64 179.33 271.527 177.764 271.158C174.285 270.344 170.752 269.642 167.417 268.31C165.487 267.54 163.574 266.712 161.711 265.789C160.554 265.218 159.492 264.439 159.231 263.013C159.244 262.468 159.253 261.923 159.267 261.379C159.447 261.266 159.654 261.185 159.807 261.041C160.473 260.425 161.184 260.407 161.976 260.776C164.631 262.009 167.413 262.9 170.194 263.782C173.241 264.75 176.36 265.465 179.483 266.131C179.969 266.235 180.437 266.406 180.923 266.505C181.63 266.649 182.066 267.018 182.206 267.751C182.242 267.936 182.444 268.089 182.57 268.256C182.777 269.115 182.8 269.984 182.62 270.852V270.857Z" fill="#5D3717"/>
<path d="M187.745 306.697C187.529 306.396 187.507 306.049 187.511 305.694C187.511 304.218 187.511 302.741 187.507 301.265C187.507 300.91 187.529 300.563 187.75 300.262C187.988 300.55 188.051 300.892 188.051 301.252C188.051 302.737 188.056 304.222 188.051 305.707C188.051 306.067 187.984 306.409 187.745 306.697Z" fill="#894100"/>
<path d="M176.125 324.947C177.305 325.006 178.484 325.064 179.663 325.127C179.451 325.613 178.74 325.577 178.61 326.149C177.782 325.748 176.954 325.348 176.125 324.952V324.947Z" fill="#E7A37B"/>
<path d="M186.953 289.855C186.661 289.608 186.584 289.333 186.872 289.027C187.196 289.275 187.264 289.545 186.953 289.855Z" fill="#894100"/>
<path d="M187.367 293.746C187.075 293.49 187.021 293.215 187.309 292.918C187.628 293.17 187.678 293.445 187.367 293.746Z" fill="#894100"/>
<path d="M187.304 312.314C187.012 312.008 187.084 311.738 187.381 311.49C187.696 311.796 187.633 312.066 187.304 312.314Z" fill="#894100"/>
<path d="M173.601 323.541C174.159 323.595 174.559 323.892 174.852 324.356C174.487 324.401 174.127 324.455 173.785 324.275C173.727 324.032 173.664 323.784 173.601 323.541Z" fill="#E7A37B"/>
<path d="M174.875 324.369C175.239 324.374 175.541 324.504 175.743 324.819C175.352 324.86 175.023 324.792 174.875 324.369Z" fill="#E7A37B"/>
</svg>
