<svg width="500" height="500" viewBox="0 0 500 500" fill="none" xmlns="http://www.w3.org/2000/svg">
<path d="M222.956 399.418C223.257 399.505 223.557 399.593 223.858 399.675C224.144 399.617 224.368 399.709 224.518 399.956C224.819 400.039 225.12 400.117 225.42 400.199C225.707 400.136 225.925 400.223 226.085 400.471C226.391 400.548 226.691 400.631 226.997 400.708C227.278 400.631 227.502 400.708 227.662 400.951C228.127 401.063 228.588 401.179 229.054 401.291C229.345 401.203 229.568 401.295 229.733 401.543C230.039 401.611 230.344 401.684 230.655 401.751C230.941 401.679 231.16 401.756 231.315 402.013C231.62 402.096 231.926 402.183 232.232 402.266C232.678 402.159 233.071 402.232 233.372 402.61C233.687 402.668 234.002 402.731 234.313 402.79C234.764 402.678 235.157 402.761 235.453 403.139C235.768 403.197 236.079 403.26 236.394 403.318C236.845 403.207 237.238 403.294 237.534 403.677C237.845 403.74 238.155 403.799 238.466 403.862C238.747 403.789 238.97 403.871 239.135 404.114C239.601 404.221 240.067 404.323 240.532 404.429C240.819 404.337 241.042 404.42 241.216 404.662C241.697 404.74 242.177 404.813 242.657 404.89C243.099 404.769 243.497 404.813 243.817 405.172C244.302 405.249 244.782 405.332 245.267 405.409C245.709 405.288 246.107 405.341 246.427 405.7C246.912 405.773 247.397 405.851 247.882 405.924C248.324 405.807 248.722 405.861 249.037 406.224C249.522 406.297 250.007 406.375 250.487 406.448C251.094 406.317 251.671 406.312 252.151 406.787C252.806 406.865 253.461 406.942 254.116 407.02C254.563 406.87 254.96 406.928 255.29 407.287C256.12 407.369 256.949 407.447 257.774 407.529C258.385 407.355 258.963 407.35 259.458 407.825C260.287 407.903 261.117 407.981 261.946 408.053C262.378 407.898 262.776 407.922 263.13 408.247C264.134 408.349 265.134 408.451 266.138 408.553C267.579 408.451 269.034 408.175 270.427 408.83C274.109 408.883 277.791 408.941 281.478 408.985C282.157 408.995 282.861 409.033 283.457 408.592C283.574 408.48 283.71 408.432 283.875 408.451C284.049 408.451 284.219 408.432 284.384 408.388C284.709 407.03 285.32 405.788 285.941 404.546C287.222 401.979 288.285 399.326 289.211 396.614C290.836 391.85 292.088 386.994 293.044 382.05C294.645 373.778 295.727 365.463 295.45 357.007C295.363 354.397 295.096 351.826 294.586 349.274C294.383 348.255 294.344 347.203 293.81 346.276C293.107 346.257 292.403 346.237 291.7 346.218C291.389 346.295 291.084 346.373 290.773 346.446C290.618 346.688 290.405 346.8 290.113 346.713C289.808 346.785 289.497 346.863 289.192 346.936C289.027 347.169 288.828 347.3 288.532 347.164C288.226 347.256 287.921 347.348 287.615 347.44C287.46 347.673 287.266 347.819 286.965 347.702C286.664 347.794 286.363 347.891 286.063 347.984C285.907 348.216 285.704 348.343 285.408 348.26L284.505 348.527C284.35 348.77 284.141 348.886 283.85 348.804C283.545 348.886 283.244 348.968 282.938 349.051C282.57 349.473 282.191 349.657 281.784 349.099C280.401 346.465 278.577 344.156 276.554 341.997C274.293 339.586 271.863 337.359 269.228 335.36C258.196 326.992 245.859 321.471 232.363 318.478C232.081 318.604 231.863 318.511 231.688 318.279C231.043 318.167 230.398 318.051 229.757 317.939C229.481 318.08 229.263 317.992 229.078 317.76C228.258 317.638 227.443 317.517 226.623 317.401C226.352 317.556 226.133 317.483 225.939 317.255C224.77 317.134 223.601 317.008 222.432 316.886C221.83 317.163 221.258 317.143 220.744 316.683C217.445 316.479 214.141 316.435 210.837 316.532C208.926 316.59 207.014 316.629 205.103 316.687C203.953 316.721 202.924 316.488 201.886 315.887C188.87 308.358 175.665 301.173 162.488 293.939C158.83 291.931 155.172 289.932 151.519 287.914C150.918 287.579 150.345 287.186 149.812 286.754C149.506 286.507 149.55 286.09 149.812 285.828C150.112 285.532 150.491 285.299 150.859 285.081C152.446 284.149 153.843 282.985 155.129 281.68C157.647 279.128 159.723 276.237 161.6 273.2C166.243 265.699 169.697 257.641 172.797 249.418C176.97 238.347 180.244 227 183.053 215.517C182.733 214.973 182.947 214.542 183.335 214.149C183.446 213.731 183.577 213.319 183.674 212.902C185.222 206.095 186.58 199.25 187.822 192.381C187.424 191.978 187.546 191.638 187.958 191.337C188.089 190.639 188.22 189.945 188.351 189.246C187.958 188.844 188.065 188.504 188.477 188.203C188.788 186.287 189.098 184.376 189.404 182.459C189.006 182.066 189.108 181.722 189.515 181.416C189.675 180.301 189.84 179.185 190 178.064C190.66 173.426 191.082 168.749 192.091 164.165C192.315 163.151 192.465 162.118 192.644 161.089C185.94 156.951 179.221 152.842 172.54 148.66C169.387 146.685 166.127 144.866 163.172 142.586C161.421 145.07 159.99 147.743 158.651 150.46C154.842 158.164 151.078 165.892 147.323 173.625C139.512 189.717 131.721 205.814 123.925 221.911C119.384 231.289 114.799 240.647 110.346 250.063C109.269 252.344 108.129 254.58 106.911 256.778C102.142 265.369 98.9691 274.495 97.6544 284.251C98.0522 284.634 97.9601 284.979 97.5623 285.294C97.373 287.458 97.082 289.612 97.1499 291.79C97.2857 296.171 98.0522 300.348 99.9103 304.404C102.03 309.037 104.771 313.204 107.876 317.192C112.529 323.164 117.458 328.889 122.804 334.254C124.827 336.282 126.923 338.242 129.038 340.178C132.182 343.05 135.175 346.077 138.435 348.828C143.286 352.927 148.414 356.663 153.47 360.49C154.023 360.908 154.61 361.291 155.129 361.752C162.197 368 170.081 373.08 178.173 377.849C189.937 384.781 202.066 391.001 214.689 396.226C216.693 397.055 218.73 397.802 220.753 398.588C221.03 398.525 221.248 398.603 221.399 398.85C221.699 398.943 222 399.04 222.301 399.132C222.587 399.064 222.81 399.151 222.956 399.408V399.418Z" fill="#696D65"/>
<path d="M163.172 142.596C166.127 144.881 169.387 146.695 172.54 148.67C179.216 152.852 185.94 156.961 192.645 161.099C192.902 161.075 193.183 161.109 193.421 161.017C197.894 159.285 201.266 155.491 201.46 150.169C201.722 143.042 201.363 135.925 200.873 128.813C200.848 128.469 200.795 128.12 200.712 127.785C200.32 126.16 200.47 124.496 200.407 122.851C200.397 122.633 200.538 122.361 200.693 122.201C200.916 121.973 201.198 122.152 201.401 122.298C203.318 123.651 205.219 125.02 207.131 126.378C207.718 126.795 208.087 127.368 208.392 128.003C210.75 132.854 213.399 137.546 216.057 142.232C218.032 145.706 219.992 149.189 221.971 152.658C224.208 156.583 226.459 160.498 228.71 164.418C231.131 168.638 233.571 172.844 235.982 177.07C238.912 182.198 242.104 187.18 244.622 192.541C245.549 194.52 246.805 196.296 248.096 198.042C252.292 203.714 257.338 208.643 261.976 213.926C263.921 216.143 266.027 218.219 268.011 220.412C273.144 226.079 278.422 231.614 283.656 237.188C286.868 240.608 290.099 244.009 293.345 247.4C293.961 248.041 294.441 248.739 294.756 249.564C296.547 254.27 298.303 258.99 300.156 263.672C301.592 267.306 302.897 270.993 304.629 274.505C305.56 276.392 306.104 278.396 306.317 280.487C308.462 283.859 311.562 286.26 314.797 288.419C319.382 291.475 324.51 293.377 329.856 294.653C331.282 294.992 332.762 295.104 334.208 295.376C337.225 295.948 340.272 295.841 343.285 295.57C346.205 295.303 349.106 294.706 351.983 294.1C356.548 293.144 360.745 291.305 364.272 288.196C368.924 284.101 373.058 279.555 375.872 273.962C377.395 270.934 378.729 267.834 378.875 264.37C378.326 263.599 377.783 262.828 377.23 262.061C376.163 260.596 375.183 259.058 374.004 257.69C371.399 254.668 368.376 252.033 365.257 249.593C360.638 245.984 355.743 242.733 350.969 239.318C349.218 238.061 347.486 236.771 345.735 235.515C345.191 235.126 345.002 234.573 344.881 233.967C344.299 234.132 343.925 233.797 343.537 233.438C342.169 232.157 340.956 230.707 339.399 229.625C338.948 229.314 338.807 228.81 338.734 228.286C337.264 227.379 335.954 226.287 334.693 225.099C330.972 221.596 327.183 218.166 323.443 214.683C319.008 210.554 314.603 206.397 310.184 202.249C308.593 200.817 306.967 199.42 305.425 197.941C304.129 196.699 302.659 195.626 301.592 194.157C300.83 193.885 300.35 193.249 299.782 192.735C298.633 191.697 297.502 190.639 296.367 189.591C293.335 186.792 290.303 183.993 287.271 181.189C286.703 180.665 286.092 180.165 285.971 179.326C285.301 179.316 284.855 178.918 284.418 178.477C281.973 176.007 279.513 173.553 277.073 171.074C276.651 170.642 276.248 170.171 275.943 169.652C269.927 159.489 263.276 149.728 256.78 139.874C252.433 133.277 248.091 126.679 243.754 120.076C241.464 116.593 239.15 113.129 236.928 109.602C235.832 107.865 234.483 106.458 232.693 105.483C229.175 103.567 225.978 101.165 222.636 98.987C218.274 96.1392 213.957 93.2187 209.188 91.0598C207.844 90.4534 206.466 89.9149 205.142 89.2648C202.692 88.0666 200.242 88.2072 197.845 89.2988C194.367 90.8852 190.966 92.6317 187.944 95.0186C186.716 95.984 185.494 96.9543 184.261 97.9148C182.559 99.2441 181.423 100.932 180.987 103.067C183.073 102.994 185.125 103.285 187.163 103.693C187.837 103.829 188.502 104.105 189.181 104.134C192.145 104.265 194.939 105.211 197.802 105.827C199.354 106.162 200.407 107.191 200.659 108.84C200.955 110.795 201.236 112.755 201.45 114.72C201.571 115.831 201.372 116.961 201.833 118.053C202.115 118.718 201.95 119.406 201.591 120.052C201.309 120.551 200.94 120.838 200.353 120.823C199.669 120.809 199.155 120.483 198.971 119.843C198.709 118.931 198.515 118 198.35 117.063C197.971 114.856 197.603 112.648 197.283 110.431C197.181 109.723 196.768 109.384 196.191 109.112C195.619 108.84 195.007 108.826 194.406 108.86C192.31 108.976 190.311 108.292 188.24 108.151C186.445 108.025 184.684 107.516 182.889 107.302C181.816 107.176 181.093 106.72 180.681 105.769C180.511 105.376 180.468 104.925 180.065 104.668C179.09 105.9 178.445 107.317 177.824 108.733C174.171 117.058 170.542 125.398 166.898 133.728C165.821 136.187 164.71 138.628 163.633 141.087C163.425 141.558 163.318 142.072 163.163 142.567L163.172 142.596Z" fill="#FFB68A"/>
<path d="M378.869 264.369C378.724 267.833 377.389 270.933 375.866 273.96C373.052 279.558 368.919 284.099 364.266 288.194C360.74 291.299 356.543 293.137 351.978 294.098C349.101 294.7 346.2 295.301 343.279 295.568C340.272 295.844 337.22 295.946 334.202 295.374C332.757 295.102 331.277 294.991 329.851 294.651C324.505 293.375 319.382 291.473 314.792 288.417C311.551 286.258 308.456 283.857 306.312 280.485C305.604 280.839 305.419 281.475 305.317 282.197C304.987 284.516 304.939 286.869 304.638 289.179C304.158 292.885 304.24 296.616 303.886 300.332C303.411 305.334 303.372 310.374 303.144 315.395C303.134 315.657 303.125 315.915 303.11 316.177C302.814 321.193 302.518 326.209 302.222 331.226C302.673 331.589 302.654 331.939 302.183 332.269C302.096 334.296 302.135 336.329 301.815 338.347C301.645 339.424 301.659 340.545 301.912 341.637C305.065 342.573 308.219 343.5 311.367 344.455C317.334 346.26 323.287 348.099 329.259 349.894C337.467 352.358 345.681 354.798 353.889 357.248C358.784 358.709 363.694 360.116 368.565 361.649C370.365 362.216 372.271 362.541 373.887 363.623C374.813 362.682 375.415 361.518 376.036 360.382C378.248 356.346 380.392 352.276 382.624 348.249C383.803 346.124 385.079 344.053 386.365 341.996C386.675 341.496 387.17 341.084 387.645 340.725C392.39 337.12 395.369 332.317 397.12 326.714C398.26 323.056 398.779 319.296 398.867 315.439C399.065 306.333 397.028 297.712 393.68 289.329C391.032 282.687 387.582 276.468 383.648 270.511C382.265 268.415 380.805 266.367 379.379 264.301C379.204 264.325 379.029 264.349 378.855 264.374L378.869 264.369Z" fill="#8989DE"/>
<path d="M373.896 363.625C372.281 362.543 370.374 362.218 368.575 361.651C363.704 360.118 358.794 358.711 353.899 357.25C345.686 354.8 337.472 352.365 329.269 349.896C323.301 348.101 317.344 346.262 311.377 344.457C308.228 343.506 305.075 342.58 301.921 341.639C300.995 342.808 299.894 343.696 298.419 344.123C296.861 344.574 295.333 345.137 293.79 345.651C293.79 345.859 293.795 346.068 293.8 346.277C294.339 347.203 294.378 348.261 294.581 349.275C295.091 351.831 295.362 354.398 295.445 357.008C295.721 365.464 294.635 373.774 293.039 382.051C292.083 386.994 290.831 391.85 289.206 396.615C288.279 399.326 287.217 401.98 285.936 404.546C285.315 405.788 284.704 407.03 284.379 408.389C284.782 408.952 285.417 408.961 286.004 409.083C290.103 409.936 294.217 410.305 298.404 409.704C300.544 409.398 302.717 409.32 304.866 409C312.376 407.884 319.648 405.973 326.571 402.805C329.176 401.611 331.854 400.564 334.426 399.307C339.816 396.668 344.992 393.645 349.921 390.216C353.855 387.479 357.46 384.345 360.972 381.114C363.854 378.465 366.357 375.448 368.589 372.222C370.122 370.01 371.573 367.739 373.096 365.517C373.504 364.925 373.79 364.319 373.882 363.615L373.896 363.625Z" fill="#FFB68A"/>
<path d="M310.183 202.257C314.603 206.4 319.008 210.558 323.442 214.692C327.183 218.175 330.972 221.605 334.693 225.107C335.954 226.296 337.264 227.388 338.734 228.295C341.354 228.688 343.973 229.081 346.588 229.479C347.491 228.499 347.961 227.271 348.437 226.068C351.993 217.107 355.524 208.137 359.071 199.172C359.43 198.265 359.507 197.421 359.309 196.407C358.236 191.051 357.31 185.666 356.296 180.295C356.155 179.558 356.296 178.98 356.631 178.326C359.91 171.907 363.151 165.465 366.411 159.032C366.804 158.26 367.25 157.518 367.667 156.761C367.842 155.432 367.275 154.53 366.217 153.719C364.073 152.075 361.671 150.944 359.226 149.882C357.717 149.654 356.267 149.246 354.937 148.475C354.632 148.402 354.331 148.329 354.025 148.257C353.569 148.451 353.186 148.329 352.847 148C352.177 147.883 351.503 147.767 350.833 147.65C350.586 147.878 350.377 147.796 350.188 147.568C347.597 147.35 345.007 147.398 342.411 147.534C341.897 147.907 341.349 148.034 340.742 147.776C340.422 147.835 340.102 147.888 339.782 147.946C339.277 148.32 338.729 148.46 338.118 148.247C337.642 148.363 337.162 148.48 336.687 148.601C336.522 148.829 336.323 148.96 336.032 148.815C335.716 148.907 335.406 148.999 335.09 149.091C334.93 149.314 334.741 149.445 334.46 149.305C334.154 149.411 333.844 149.523 333.538 149.63C333.392 149.867 333.203 150.018 332.902 149.916C324 153.559 317.684 159.866 313.706 168.574C313.754 169.045 313.492 169.312 313.104 169.501C312.677 170.898 312.25 172.29 311.818 173.688C310.407 178.224 309.563 182.852 309.499 187.611C309.485 188.644 309.499 189.663 309.14 190.677C308.854 191.492 308.946 192.375 309.16 193.234C309.305 193.816 309.495 194.413 309.47 195C309.398 197.096 309.732 199.109 310.416 201.083C310.567 201.525 310.504 201.928 310.174 202.277L310.183 202.257Z" fill="#894100"/>
<path d="M367.672 156.762C367.25 157.519 366.804 158.261 366.416 159.032C363.155 165.465 359.915 171.903 356.635 178.326C356.3 178.981 356.16 179.563 356.3 180.296C357.314 185.666 358.246 191.051 359.313 196.407C359.517 197.421 359.434 198.26 359.075 199.173C355.529 208.138 351.997 217.108 348.441 226.069C347.966 227.272 347.495 228.494 346.593 229.479C346.53 229.629 346.52 229.785 346.564 229.945C348.14 229.877 349.659 230.134 351.143 230.702C355.539 232.38 359.716 234.534 363.655 237.052C368.463 240.128 373.144 243.432 377.074 247.662C378.612 249.316 380.436 250.636 382.255 251.955C383.119 250.306 383.211 248.458 383.531 246.687C384.21 242.942 384.681 239.162 385.292 235.403C385.889 231.73 386.636 228.082 387.146 224.4C387.315 223.163 387.864 222.338 388.683 221.528C390.905 219.33 393.079 217.079 395.301 214.881C396.606 213.586 397.649 212.106 398.629 210.564C399.871 208.604 400.201 206.551 399.347 204.363C399.065 203.636 398.755 202.918 398.425 202.214C397.139 199.464 395.888 196.698 394.52 193.986C393.947 192.851 393.981 191.895 394.578 190.799C395.786 188.592 396.834 186.307 397.77 183.963C398.352 182.503 398.731 180.994 399.104 179.486C399.269 178.826 399.264 178.108 399.25 177.419C399.221 175.978 398.561 174.979 397.173 174.426C393.952 173.135 390.75 171.816 387.553 170.472C385.394 169.565 383.25 168.618 381.12 167.653C379.049 166.712 377.234 165.417 375.604 163.806C373.382 161.613 371.063 159.522 368.788 157.383C368.468 157.082 368.138 156.805 367.677 156.771L367.672 156.762Z" fill="#FFB68A"/>
<path d="M382.25 251.951C380.431 250.631 378.607 249.312 377.069 247.658C373.144 243.427 368.458 240.123 363.65 237.048C359.716 234.53 355.534 232.376 351.139 230.697C349.654 230.13 348.14 229.872 346.559 229.94C345.996 231.284 345.433 232.633 344.871 233.977C344.992 234.583 345.181 235.131 345.724 235.524C347.476 236.781 349.203 238.071 350.959 239.328C355.728 242.743 360.628 245.994 365.246 249.603C368.366 252.043 371.388 254.678 373.993 257.7C375.172 259.068 376.157 260.606 377.22 262.071C377.773 262.838 378.316 263.609 378.864 264.38C379.039 264.356 379.214 264.332 379.388 264.308C380.237 261.047 381.106 257.797 381.921 254.527C382.129 253.693 382.144 252.815 382.25 251.956V251.951Z" fill="#E6A47C"/>
<path d="M285.97 179.335C286.091 180.174 286.703 180.669 287.27 181.198C290.302 184.002 293.334 186.801 296.367 189.601C297.502 190.648 298.632 191.706 299.782 192.744C300.35 193.258 300.83 193.894 301.592 194.166C301.625 192.254 301.781 190.338 301.659 188.436C301.48 185.637 302.232 182.93 302.266 180.16C302.266 179.825 302.47 179.5 302.538 179.16C303.454 174.721 304.89 170.467 307.049 166.469C306.86 166.328 306.676 166.188 306.487 166.042C306.2 166.154 306.006 166.018 305.836 165.809C305.521 165.741 305.201 165.674 304.886 165.606C304.439 165.761 304.056 165.649 303.726 165.324C303.061 165.329 302.402 165.334 301.737 165.344C301.402 165.674 301.014 165.771 300.568 165.601C300.243 165.664 299.918 165.722 299.598 165.785C299.433 166.003 299.239 166.105 298.977 165.95C295.954 167.1 293.16 168.613 290.836 170.918C288.449 173.29 286.698 176.017 285.965 179.34L285.97 179.335Z" fill="#894100"/>
<path d="M307.05 166.469C304.891 170.466 303.46 174.721 302.538 179.16C302.47 179.5 302.266 179.825 302.266 180.159C302.232 182.929 301.48 185.637 301.66 188.436C301.781 190.338 301.626 192.254 301.592 194.165C302.659 195.64 304.129 196.712 305.424 197.954C306.972 199.434 308.592 200.831 310.184 202.262C310.513 201.913 310.577 201.51 310.426 201.069C309.747 199.099 309.407 197.081 309.48 194.985C309.499 194.398 309.31 193.801 309.17 193.219C308.956 192.361 308.864 191.478 309.15 190.663C309.504 189.649 309.495 188.63 309.509 187.597C309.572 182.837 310.416 178.209 311.828 173.673C312.26 172.281 312.687 170.884 313.114 169.486C312.769 169.2 312.299 169.059 312.114 168.594C311.935 168.501 311.755 168.414 311.576 168.327C311.314 168.404 311.134 168.327 311.076 168.045C310.766 167.89 310.455 167.73 310.145 167.575C309.858 167.725 309.698 167.58 309.582 167.332C309.417 167.255 309.247 167.182 309.082 167.109C308.791 167.245 308.636 167.095 308.519 166.852C308.03 166.726 307.54 166.6 307.05 166.469Z" fill="#5E3816"/>
<path d="M180.069 104.69C180.472 104.948 180.515 105.399 180.685 105.792C181.098 106.743 181.82 107.199 182.893 107.325C184.683 107.533 186.449 108.048 188.244 108.174C190.315 108.319 192.314 108.998 194.41 108.882C195.011 108.848 195.623 108.863 196.195 109.134C196.772 109.406 197.185 109.746 197.287 110.454C197.607 112.671 197.976 114.878 198.354 117.086C198.514 118.022 198.713 118.953 198.975 119.866C199.159 120.506 199.669 120.826 200.358 120.845C200.945 120.86 201.313 120.574 201.595 120.074C201.954 119.429 202.119 118.74 201.837 118.075C201.376 116.984 201.575 115.853 201.454 114.742C201.241 112.778 200.959 110.818 200.663 108.863C200.416 107.218 199.363 106.185 197.806 105.85C194.943 105.234 192.149 104.288 189.185 104.157C188.506 104.128 187.841 103.851 187.167 103.715C185.129 103.303 183.077 103.017 180.991 103.089C180.457 103.497 180.122 104.021 180.074 104.705L180.069 104.69Z" fill="#E6A47C"/>
<path d="M354.937 148.477C356.267 149.248 357.717 149.655 359.226 149.883C357.635 148.806 356.732 148.506 354.937 148.477Z" fill="#E6A47C"/>
<path d="M338.117 148.236C338.729 148.45 339.277 148.309 339.781 147.935C339.146 147.596 338.622 147.863 338.117 148.236Z" fill="#E6A47C"/>
<path d="M312.114 168.595C312.294 169.06 312.769 169.201 313.114 169.487C313.502 169.303 313.764 169.031 313.715 168.561C313.187 168.837 312.648 168.648 312.114 168.59V168.595Z" fill="#7D8B85"/>
<path d="M352.847 147.994C353.186 148.323 353.569 148.445 354.025 148.251C353.725 147.751 353.336 147.639 352.847 147.994Z" fill="#E6A47C"/>
<path d="M97.5668 285.295C97.9597 284.98 98.0567 284.64 97.6589 284.252C97.2611 284.567 97.1981 284.912 97.5668 285.295Z" fill="#696D65"/>
<path d="M340.747 147.767C341.354 148.029 341.902 147.903 342.416 147.525C341.824 147.365 341.257 147.34 340.747 147.767Z" fill="#E6A47C"/>
<path d="M303.726 165.319C304.056 165.644 304.439 165.75 304.886 165.6C304.575 165.188 304.173 165.163 303.726 165.319Z" fill="#E6A47C"/>
<path d="M300.568 165.596C301.014 165.765 301.403 165.673 301.737 165.338C301.291 165.169 300.888 165.198 300.568 165.596Z" fill="#E6A47C"/>
<path d="M308.519 166.848C308.636 167.09 308.791 167.246 309.082 167.105C308.985 166.819 308.786 166.761 308.519 166.848Z" fill="#7D8B85"/>
<path d="M298.977 165.942C299.239 166.102 299.433 165.995 299.598 165.777C299.346 165.66 299.137 165.704 298.977 165.942Z" fill="#E6A47C"/>
<path d="M350.188 147.563C350.377 147.791 350.586 147.874 350.833 147.646C350.639 147.437 350.426 147.418 350.188 147.563Z" fill="#E6A47C"/>
<path d="M336.036 148.807C336.323 148.953 336.522 148.822 336.691 148.594C336.415 148.487 336.192 148.535 336.036 148.807Z" fill="#E6A47C"/>
<path d="M334.465 149.297C334.746 149.438 334.935 149.307 335.095 149.084C334.828 148.982 334.61 149.035 334.465 149.297Z" fill="#E6A47C"/>
<path d="M332.912 149.908C333.213 150.01 333.397 149.859 333.547 149.621C333.261 149.549 333.043 149.626 332.912 149.908Z" fill="#E6A47C"/>
<path d="M305.837 165.805C306.007 166.018 306.201 166.149 306.487 166.038C306.341 165.771 306.118 165.708 305.837 165.805Z" fill="#E6A47C"/>
<path d="M311.076 168.04C311.134 168.327 311.314 168.399 311.576 168.322C311.488 168.089 311.343 167.953 311.076 168.04Z" fill="#7D8B85"/>
<path d="M309.582 167.332C309.699 167.58 309.859 167.725 310.145 167.575C310.038 167.303 309.835 167.255 309.582 167.332Z" fill="#7D8B85"/>
<path d="M293.795 345.657C293 345.492 292.306 345.7 291.695 346.229C292.398 346.249 293.102 346.268 293.805 346.287C293.805 346.079 293.8 345.87 293.795 345.657Z" fill="#ADB4B0"/>
<path d="M189.398 182.465C189.801 182.159 189.893 181.815 189.51 181.422C189.098 181.728 188.996 182.067 189.398 182.465Z" fill="#ADB4B0"/>
<path d="M188.341 189.252C188.744 188.951 188.846 188.607 188.467 188.209C188.055 188.51 187.943 188.849 188.341 189.252Z" fill="#ADB4B0"/>
<path d="M187.817 192.387C188.22 192.086 188.326 191.746 187.953 191.344C187.541 191.645 187.419 191.979 187.817 192.387Z" fill="#ADB4B0"/>
<path d="M183.049 215.522C183.427 215.125 183.64 214.693 183.33 214.154C182.937 214.547 182.728 214.984 183.049 215.522Z" fill="#ADB4B0"/>
<path d="M222.432 316.895C221.908 316.507 221.335 316.527 220.743 316.692C221.258 317.152 221.825 317.172 222.432 316.895Z" fill="#ADB4B0"/>
<path d="M282.938 349.061C282.555 349.075 282.167 349.095 281.783 349.109C282.191 349.672 282.569 349.483 282.938 349.061Z" fill="#ADB4B0"/>
<path d="M290.773 346.455C290.487 346.377 290.264 346.465 290.113 346.722C290.404 346.809 290.613 346.698 290.773 346.455Z" fill="#ADB4B0"/>
<path d="M289.191 346.945C288.915 346.867 288.697 346.935 288.532 347.173C288.828 347.309 289.026 347.173 289.191 346.945Z" fill="#ADB4B0"/>
<path d="M287.615 347.449C287.338 347.386 287.115 347.459 286.965 347.711C287.265 347.828 287.46 347.687 287.615 347.449Z" fill="#ADB4B0"/>
<path d="M286.062 347.991C285.776 347.923 285.558 348.01 285.408 348.267C285.699 348.355 285.902 348.229 286.062 347.991Z" fill="#ADB4B0"/>
<path d="M284.505 348.532C284.214 348.459 283.995 348.551 283.85 348.808C284.141 348.891 284.35 348.77 284.505 348.532Z" fill="#ADB4B0"/>
<path d="M232.363 318.487C232.188 318.245 231.965 318.182 231.688 318.288C231.863 318.521 232.081 318.613 232.363 318.487Z" fill="#ADB4B0"/>
<path d="M226.618 317.41C226.429 317.192 226.201 317.138 225.934 317.264C226.123 317.488 226.346 317.565 226.618 317.41Z" fill="#ADB4B0"/>
<path d="M229.752 317.947C229.573 317.714 229.345 317.656 229.073 317.768C229.253 318.001 229.471 318.083 229.752 317.947Z" fill="#ADB4B0"/>
<path d="M302.232 331.23C301.766 331.56 301.752 331.91 302.193 332.274C302.664 331.944 302.683 331.594 302.232 331.23Z" fill="#C0C0ED"/>
</svg>
