<svg width="500" height="500" viewBox="0 0 500 500" fill="none" xmlns="http://www.w3.org/2000/svg">
<path d="M170.821 398.209C170.864 396.668 170.957 395.122 170.945 393.58C170.918 390.144 171.065 386.72 171.255 383.291C171.503 378.751 171.647 374.203 171.813 369.659C172.073 362.543 172.305 355.423 172.572 348.307C172.983 337.417 173.436 326.528 173.831 315.639C174.091 308.523 174.362 301.402 174.463 294.282C174.513 290.839 174.827 287.433 175.249 284.028C176.237 276.025 177.248 268.026 178.248 260.026C179.204 252.368 180.177 244.709 181.118 237.047C181.901 230.663 182.644 224.271 183.408 217.883C184.202 211.239 185.058 204.603 185.786 197.956C186.619 190.367 187.645 182.801 188.075 175.174C187.921 173.721 187.824 172.261 188.126 170.82C189.025 166.543 189.962 162.278 190.845 157.997C192.329 150.78 193.793 143.56 195.246 136.339C195.904 133.065 196.513 129.784 197.148 126.503C194.367 124.783 191.407 123.396 188.385 122.191C182.238 119.739 175.916 117.841 169.373 116.764C165.813 116.175 162.222 116.017 158.6 116.249C155.768 116.431 152.975 116.826 150.17 117.19C146.455 117.675 142.992 118.914 139.68 120.541C135.504 122.59 131.556 124.996 128.674 128.82C127.59 130.257 126.28 131.52 125.199 132.957C121.759 137.512 119.985 142.762 118.943 148.305C118.254 151.958 118.257 155.654 118.277 159.338C118.3 163.626 118.401 167.922 118.947 172.187C119.307 174.996 119.761 177.789 120.113 180.597C120.772 185.873 121.457 191.149 121.992 196.441C122.511 201.566 123.201 206.664 123.875 211.766C124.657 217.72 125.42 223.674 126.183 229.632C126.981 235.846 127.772 242.059 128.558 248.269C129.313 254.227 130.069 260.185 130.82 266.143C131.227 269.378 131.587 272.62 132.044 275.847C132.18 276.808 132.165 277.695 131.866 278.624C128.903 287.84 127.64 297.327 127.086 306.961C126.664 314.267 126.857 321.554 127.349 328.833C128.113 340.145 129.747 351.348 132.118 362.438C133.714 369.907 135.666 377.283 137.929 384.581C138.587 386.708 139.033 388.901 139.645 391.043C140.567 394.262 141.628 397.435 143.337 400.34C144.104 400.328 144.871 400.352 145.638 400.301C148.187 400.135 150.736 399.953 153.281 399.755C155.826 399.557 158.383 399.414 160.916 399.1C164.213 398.694 167.498 398.217 170.825 398.213L170.821 398.209Z" fill="#6A6E66"/>
<path d="M265.254 240.2C265.246 242.513 265.25 244.814 264.924 247.127C264.641 249.153 264.862 251.245 264.742 253.302C264.487 257.753 264.378 262.211 264.107 266.655C263.921 269.649 264.06 272.678 263.642 275.63C263.061 279.721 263.599 283.87 262.801 287.934C262.77 288.1 262.77 288.278 262.778 288.449C262.933 292.66 262.36 296.84 262.12 301.031C261.934 304.285 261.527 307.539 261.779 310.785C262.24 316.697 261.93 322.631 262.34 328.527C262.646 332.901 262.445 337.282 262.829 341.633C263.247 346.347 262.96 351.077 263.355 355.764C263.723 360.138 263.479 364.523 263.874 368.869C264.219 372.643 264.177 376.408 264.304 380.177C264.324 380.692 264.312 381.208 264.316 381.723C264.32 382.385 264.072 382.924 263.441 383.164C260.419 384.311 259.361 386.891 258.622 389.711C258.226 391.21 258.017 392.732 258.037 394.29C258.068 396.695 257.936 399.109 258.118 401.499C258.312 404.052 258.699 406.601 259.16 409.122C260.183 414.689 261.515 420.186 263.336 425.547C264.08 427.736 264.901 429.909 265.846 432.021C267.252 435.166 270.162 436.266 273.284 435.755C275.085 435.461 276.29 434.155 277.135 432.594C277.537 431.846 277.836 431.021 278.049 430.196C279.823 423.312 281.586 416.425 283.309 409.525C284.224 405.872 285.084 402.2 285.92 398.527C286.571 395.68 286.722 392.767 286.881 389.866C287.114 385.674 287.327 381.487 287.83 377.318C287.842 377.233 287.853 377.148 287.853 377.063C287.803 373.882 288.206 370.733 288.419 367.572C288.721 363.043 288.841 358.503 289.395 353.994C289.415 353.824 289.426 353.649 289.418 353.479C289.271 349.353 289.786 345.251 290.123 341.16C290.445 337.232 290.185 333.265 290.925 329.372C290.956 329.205 290.952 329.031 290.96 328.857C291.166 324.146 291.266 319.428 291.603 314.729C291.921 310.278 292.022 305.823 292.122 301.368C292.161 299.664 292.428 297.955 292.703 296.27C293.312 292.551 293.757 288.817 294.168 285.075C294.606 281.077 295.152 277.095 295.593 273.097C295.857 270.714 295.977 268.317 296.229 265.934C296.469 263.637 296.821 261.355 297.081 259.058C297.321 256.931 297.48 254.797 297.705 252.666C298.007 249.773 298.352 246.887 298.65 243.993C298.886 241.692 299.053 239.387 299.297 237.086C299.549 234.703 299.824 232.325 300.141 229.95C300.378 228.168 300.459 226.371 300.691 224.585C300.931 222.722 301.16 220.851 301.377 218.98C301.373 217.949 301.354 216.919 301.365 215.888C301.4 213.37 300.908 210.941 300.075 208.586C298.89 205.247 297.135 202.272 294.799 199.541C292.153 196.445 289 194.261 285.25 192.847C282.601 191.847 279.854 191.181 277.096 190.546C274.303 189.903 271.475 189.903 268.651 190.065C266.865 190.17 265.044 190.34 263.324 190.794C260.911 191.425 258.602 192.506 256.611 193.978C251.451 197.794 248.499 203.039 247.814 209.38C247.271 214.397 248.894 218.952 252.315 222.625C256.29 226.89 260.427 231.015 264.796 234.885C265.548 235.552 265.85 236.234 265.579 237.132C265.273 238.139 265.381 239.178 265.246 240.193L265.254 240.2Z" fill="#FFB68B"/>
<path d="M374.546 211.543C374.717 211.554 374.914 211.624 375.054 211.566C380.977 209.09 385.505 205.182 387.977 199.108C389.243 195.989 389.999 192.751 390.452 189.439C390.708 187.575 390.866 185.696 390.971 183.818C391.157 180.428 390.433 177.201 389.193 174.048C386.539 167.284 382.948 161.113 377.947 155.802C377.599 155.43 377.204 155.085 377.122 154.539C375.511 154.683 374.182 154.113 372.818 153.234C371.114 152.13 369.371 151.061 367.368 150.433C364.707 149.6 361.906 150.224 359.268 149.437C357.226 150.127 354.968 149.581 352.984 150.468C351.698 151.045 350.676 150.638 349.614 150.022C348.82 149.561 348.773 149.166 349.498 148.744C350.985 147.876 352.547 147.179 354.228 146.803C355.886 146.431 357.552 145.994 359.237 145.839C361.449 145.633 363.692 145.552 365.9 145.897C368.263 146.269 370.556 146.962 372.787 147.83C375.375 148.837 377.719 150.201 379.284 152.61C381.662 151.936 383.204 150.317 384.471 148.267C387.434 143.479 387.601 138.552 385.273 133.528C382.995 128.616 379.307 125.214 374.081 123.58C369.677 122.201 365.195 121.848 360.6 122.313C354.143 122.968 348.014 124.904 341.913 126.942C338.093 128.217 334.316 129.634 330.551 131.068C327.498 132.23 324.399 133.206 321.207 133.892C320.622 134.016 320.026 134.147 319.48 134.376C317.682 135.116 317.396 136.785 318.899 137.982C320.312 139.106 321.905 139.943 323.586 140.628C328.111 142.48 332.713 144.119 337.326 145.738C340.883 146.989 344.439 148.24 348.127 149.538C347.793 150.127 347.255 150.274 346.732 150.406C343.137 151.332 340.228 153.431 337.489 155.81C333.263 159.482 329.528 163.627 325.999 167.954C323.776 170.678 321.672 173.502 319.507 176.271C319.143 176.74 318.74 177.182 318.356 177.635C318.263 178.518 318.515 179.142 319.511 179.281C320.189 179.378 320.851 179.587 321.529 179.645C324.171 179.882 326.817 180.072 329.462 180.292C330.4 180.37 331.334 180.505 332.271 180.56C333.813 180.649 334.715 181.451 335.382 182.834C337.086 186.382 338.891 189.888 340.693 193.39C342.091 196.109 342.176 196.229 345.272 196.02C349.893 195.706 354.522 195.885 359.136 195.617C360.302 195.551 361.038 195.935 361.77 196.795C363.765 199.146 365.865 201.405 367.887 203.733C370.13 206.313 372.33 208.932 374.55 211.531L374.546 211.543Z" fill="#894100"/>
<path d="M197.144 126.496C196.513 129.773 195.901 133.058 195.242 136.332C193.789 143.556 192.329 150.777 190.841 157.99C189.962 162.271 189.021 166.536 188.122 170.813C187.82 172.258 187.913 173.714 188.072 175.167C189.753 176.623 191.469 178.037 193.112 179.54C196.273 182.434 199.372 185.398 202.529 188.295C205.81 191.309 209.138 194.273 212.434 197.271C216.234 200.73 220.031 204.201 223.815 207.68C224.889 208.668 225.888 209.737 226.977 210.701C229.797 213.2 232.64 215.668 235.491 218.135C235.669 218.29 235.964 218.317 236.204 218.407C236.425 217.318 236.649 216.229 236.863 215.141C237.994 209.264 239.102 203.384 240.26 197.511C241.534 191.053 242.855 184.603 244.153 178.15C245.466 171.611 246.803 165.079 248.073 158.533C248.592 155.848 249.336 153.202 249.487 150.452C248.995 149.805 248.252 149.538 247.558 149.22C240.306 145.908 233.252 142.173 225.791 139.307C222.192 137.924 218.733 136.188 215.212 134.616C210.672 132.59 206.128 130.567 201.587 128.538C200.104 127.871 198.628 127.182 197.152 126.5L197.144 126.496Z" fill="#FFB68A"/>
<path d="M249.483 150.449C249.332 153.199 248.592 155.849 248.069 158.529C246.799 165.076 245.462 171.608 244.149 178.147C242.851 184.6 241.53 191.05 240.256 197.508C239.098 203.381 237.99 209.261 236.858 215.138C236.649 216.23 236.421 217.315 236.2 218.403C236.494 218.822 236.738 219.29 237.091 219.651C239.663 222.281 242.169 224.985 244.866 227.484C248.887 231.206 253.191 234.592 257.886 237.443C260.16 238.826 262.503 240.066 265.254 240.201C265.389 239.186 265.285 238.148 265.587 237.141C265.858 236.242 265.556 235.561 264.804 234.894C260.435 231.024 256.293 226.899 252.323 222.634C248.902 218.961 247.279 214.402 247.821 209.389C248.503 203.047 251.459 197.802 256.619 193.987C258.614 192.511 260.919 191.434 263.332 190.802C265.056 190.353 266.873 190.179 268.659 190.074C271.483 189.907 274.311 189.907 277.104 190.554C279.862 191.19 282.608 191.86 285.258 192.855C289.008 194.269 292.161 196.454 294.807 199.549C297.139 202.277 298.898 205.252 300.083 208.595C300.916 210.946 301.408 213.379 301.373 215.897C301.358 216.927 301.377 217.958 301.385 218.988C304.077 216.761 306.723 214.495 308.857 211.694C309.547 210.791 310.078 209.85 310.136 208.692C309.446 208.091 309.663 207.282 309.644 206.534C309.566 203.385 309.71 200.235 309.156 197.093C308.772 194.924 308.679 192.693 308.555 190.485C308.466 188.955 308.563 187.413 308.536 185.875C308.478 182.543 309.222 179.258 309.078 175.923C309.067 175.632 309.353 175.33 309.5 175.032C309.28 174.652 308.985 174.37 308.567 174.195C303.275 171.976 298.011 169.698 292.7 167.532C281.121 162.806 269.519 158.134 257.924 153.439C256.018 152.668 254.124 151.87 252.199 151.15C251.331 150.824 250.487 150.325 249.491 150.46L249.483 150.449Z" fill="#9188DA"/>
<path d="M309.493 175.023C309.346 175.322 309.059 175.624 309.071 175.914C309.214 179.25 308.467 182.539 308.529 185.866C308.556 187.404 308.459 188.946 308.548 190.476C308.676 192.684 308.769 194.912 309.148 197.085C309.702 200.227 309.559 203.376 309.637 206.525C309.656 207.273 309.439 208.083 310.129 208.683C311.759 208.629 313.367 208.683 314.994 208.95C316.334 209.171 317.733 209.02 319.108 209.036C319.623 209.043 320.139 209.094 320.654 209.063C321.603 209.005 322.01 209.621 322.381 210.337C323.842 213.157 325.326 215.962 326.778 218.786C327.917 220.998 328.913 223.284 330.342 225.341C331.253 226.654 332.388 227.63 334.003 227.979C335.037 228.203 336.037 228.172 337.044 227.835C338.915 227.208 340.821 226.689 342.657 225.976C343.939 225.476 344.892 225.681 345.954 226.541C347.546 227.835 349.281 228.963 350.963 230.148C351.381 230.442 351.815 230.733 352.272 230.958C353.682 231.647 354.387 231.496 355.321 230.14C357.846 226.464 360.368 222.784 362.793 219.046C363.429 218.065 364.134 217.333 365.168 216.803C367.918 215.396 370.634 213.924 373.361 212.472C373.81 212.231 374.314 212.053 374.55 211.538C372.331 208.939 370.13 206.32 367.887 203.74C365.865 201.412 363.766 199.153 361.771 196.802C361.042 195.942 360.302 195.555 359.136 195.624C354.519 195.892 349.89 195.714 345.272 196.027C342.177 196.236 342.092 196.116 340.693 193.397C338.892 189.895 337.087 186.393 335.382 182.841C334.72 181.458 333.813 180.656 332.271 180.567C331.334 180.513 330.4 180.377 329.463 180.3C326.817 180.083 324.171 179.889 321.529 179.653C320.851 179.591 320.185 179.381 319.511 179.288C318.519 179.149 318.264 178.525 318.357 177.642C317.617 176.995 316.629 177.038 315.761 176.817C313.65 176.282 311.554 175.717 309.489 175.02L309.493 175.023Z" fill="#FFB78A"/>
<path d="M170.821 398.211C167.49 398.215 164.209 398.691 160.912 399.098C158.378 399.412 155.826 399.555 153.277 399.753C150.732 399.95 148.183 400.132 145.634 400.299C144.87 400.349 144.1 400.326 143.333 400.338C143.243 401.384 142.767 402.313 142.426 403.278C141.678 405.378 140.768 407.427 140.168 409.565C138.796 414.469 138.641 419.42 140.787 424.135C143.019 429.035 146.951 431.712 152.378 432.301C156.996 432.804 161.625 432.653 166.246 432.824C168.04 432.889 169.814 433.242 171.623 433.176C177.105 432.982 182.59 432.858 188.071 432.649C189.78 432.583 191.492 432.425 193.181 432.165C198.926 431.282 204.357 424.991 201.765 417.851C201.111 416.046 199.778 414.648 198.147 413.609C196.702 412.687 195.234 411.804 193.747 410.948C187.951 407.613 182.156 404.27 176.334 400.985C174.544 399.974 172.657 399.129 170.817 398.211H170.821Z" fill="#FFB68B"/>
<path d="M379.284 152.609C377.719 150.199 375.375 148.836 372.788 147.829C370.56 146.961 368.263 146.267 365.9 145.896C363.696 145.551 361.449 145.632 359.237 145.837C357.552 145.992 355.89 146.43 354.228 146.802C352.547 147.178 350.986 147.879 349.498 148.743C348.774 149.165 348.82 149.56 349.615 150.021C350.676 150.637 351.699 151.04 352.985 150.467C354.968 149.58 357.227 150.126 359.268 149.436C361.91 150.223 364.707 149.603 367.368 150.432C369.371 151.056 371.114 152.129 372.819 153.233C374.178 154.112 375.511 154.681 377.123 154.538C377.952 154.019 378.831 153.554 379.28 152.613L379.284 152.609Z" fill="#653409"/>
</svg>
