<svg width="500" height="500" viewBox="0 0 500 500" fill="none" xmlns="http://www.w3.org/2000/svg">
<path d="M189.761 324.957C188.789 324.581 187.779 324.481 186.738 324.454C173.811 324.12 160.879 323.816 147.951 323.382C135.181 322.952 122.414 322.587 109.64 322.342C108.45 322.319 107.259 322.196 106.072 322.246C103.729 322.345 101.502 321.858 99.3089 321.116C90.3677 318.105 83.0167 312.997 78.0276 304.836C74.813 299.582 73.1269 293.867 73.0078 287.687C72.8081 277.379 76.4299 268.449 82.7286 260.476C84.2534 258.544 85.9855 256.796 87.7791 255.107C90.0643 252.956 92.699 251.393 95.5411 250.11C99.5201 248.312 103.595 246.749 107.751 245.436C109.706 244.817 111.753 244.472 113.777 244.084C122.971 242.332 132.231 240.961 141.526 239.878C147.356 239.198 153.205 238.711 159.055 238.227C173.161 237.067 187.276 237.324 201.398 237.608C204.651 237.674 207.904 237.781 211.153 237.927C212.817 238 214.472 238.192 216.131 238.353C217.944 238.526 219.757 238.726 221.566 238.914C221.785 241.837 221.865 244.767 222.023 247.694C222.338 253.547 222.157 259.416 222.491 265.281C222.768 270.104 222.664 274.951 222.722 279.791C222.729 280.344 222.722 280.901 222.656 281.45C222.58 282.072 222.165 282.433 221.558 282.525C221.17 282.583 220.767 282.598 220.371 282.575C216.972 282.375 213.569 282.199 210.174 281.949C207.255 281.738 204.344 281.423 201.425 281.189C198.664 280.97 195.879 280.924 193.137 280.559C191.086 280.286 189.027 280.275 186.98 280.071C184.146 279.791 181.311 279.48 178.473 279.284C176.257 279.13 174.064 278.869 171.882 278.45C170.135 278.112 168.48 278.212 166.786 278.965C161.935 281.12 157.027 283.144 152.138 285.206C149.879 286.159 147.509 286.858 145.505 288.344C145.324 287.983 145.105 287.633 144.713 287.499C143.669 287.134 142.636 286.685 141.556 286.481C138.538 285.917 135.5 285.456 132.469 284.968C130.138 284.595 127.799 284.242 125.468 283.873C122.672 283.432 119.868 283.017 117.068 282.571C115.436 282.31 113.815 281.995 112.183 281.734C110.005 281.381 107.828 281.05 105.646 280.728C105.258 280.67 104.851 280.678 104.459 280.716C103.537 280.805 102.792 281.504 102.662 282.345C102.547 283.101 102.942 283.942 103.741 284.284C104.459 284.591 105.239 284.899 106.007 284.929C108.699 285.049 111.292 285.79 113.965 286.055C117.011 286.358 120.022 287.019 123.067 287.418C124.392 287.595 125.721 287.783 127.046 287.967C128.682 288.194 130.299 288.544 131.939 288.766C133.887 289.031 135.834 289.316 137.781 289.596C139.955 289.911 142.125 290.548 144.364 290.16C144.506 290.771 144.529 291.447 144.813 291.985C145.781 293.798 146.818 295.572 147.87 297.335C148.654 298.652 149.833 299.386 151.392 299.363C152.418 299.347 153.459 299.344 154.465 299.163C159.98 298.18 165.484 297.147 170.995 296.129C172.566 295.841 174.106 295.845 175.685 296.248C179.28 297.162 182.909 297.946 186.519 298.794C188.436 299.244 190.345 299.72 192.253 300.185C192.269 300.68 192.288 301.179 192.307 301.675C191.892 304.882 191.355 308.07 191.132 311.303C191.013 313.032 190.752 314.752 190.579 316.477C190.299 319.3 190.034 322.127 189.765 324.949L189.761 324.957Z" fill="#6B6D65"/>
<path d="M145.505 288.344C147.51 286.858 149.879 286.159 152.138 285.206C157.031 283.144 161.939 281.124 166.786 278.965C168.48 278.212 170.135 278.113 171.883 278.451C174.06 278.869 176.257 279.13 178.473 279.284C181.315 279.48 184.146 279.791 186.98 280.071C189.028 280.275 191.086 280.286 193.137 280.559C195.879 280.92 198.664 280.966 201.425 281.189C204.344 281.423 207.255 281.734 210.174 281.949C213.57 282.195 216.972 282.376 220.371 282.575C220.763 282.598 221.166 282.583 221.558 282.525C222.165 282.433 222.58 282.068 222.657 281.45C222.726 280.901 222.73 280.344 222.722 279.791C222.664 274.952 222.768 270.105 222.491 265.281C222.157 259.416 222.338 253.548 222.023 247.694C221.865 244.768 221.785 241.837 221.566 238.914C221.643 238.903 221.723 238.884 221.8 238.884C227.173 238.688 232.546 238.465 237.919 238.315C239.206 238.277 240.424 238.089 241.633 237.662C245.885 236.161 250.133 234.655 254.404 233.223C255.886 232.723 257.369 232.105 258.997 232.239C258.744 233.288 259.193 234.275 259.301 235.293C259.623 238.358 259.992 241.419 260.395 244.472C260.975 248.858 261.593 253.236 262.204 257.615C262.458 259.412 262.796 261.202 262.995 263.003C263.245 265.285 263.737 267.531 263.994 269.801C264.251 272.083 264.628 274.341 265.004 276.599C265.246 278.066 265.576 278.316 267.02 278.354C268.937 278.408 270.796 277.94 272.67 277.679C277.363 277.018 282.034 276.215 286.704 275.416C289.039 275.017 291.363 274.529 293.679 274.018C294.742 273.784 295.015 273.442 295.073 272.398C295.192 270.182 295.691 268.015 295.914 265.818C296.148 263.526 297.016 261.532 298.241 259.666C300.219 256.651 302.842 254.204 305.596 251.946C309.345 248.873 313.539 246.45 317.971 244.476C321.013 243.12 324.127 241.96 327.45 241.495C327.791 241.687 328.179 241.826 328.464 242.079C330.522 243.93 332.577 245.782 334.597 247.675C336.502 249.461 338.449 251.193 340.523 252.776C341.03 253.163 341.441 253.624 341.81 254.154C342.209 254.734 342.716 255.249 343.173 255.787C343.15 256.186 343.193 256.566 343.442 256.908C345.393 259.57 345.881 262.654 345.989 265.842C346.019 266.71 345.958 267.581 346 268.449C346.112 270.769 345.585 272.989 344.906 275.171C344.364 276.899 343.715 278.589 342.928 280.233C341.46 283.294 339.897 286.286 337.608 288.828C337.082 289.412 336.89 290.026 336.967 290.771C336.076 292.154 334.643 292.926 333.357 293.813C329.789 296.271 325.894 297.961 321.516 298.38C318.762 298.645 316.016 298.971 313.27 299.286C310.992 299.547 308.722 299.862 306.445 300.089C304.555 300.273 302.662 300.373 300.776 300.642C297.961 301.041 295.123 301.299 292.292 301.571C290.011 301.794 287.718 301.929 285.433 302.151C282.917 302.393 280.405 302.689 277.889 302.962C276.161 303.15 274.425 303.192 272.689 303.438C270.112 303.803 267.485 303.834 264.885 304.056C262.05 304.298 259.22 304.598 256.389 304.871C254.262 305.074 252.134 305.251 250.01 305.474C247.575 305.727 245.144 306.034 242.705 306.28C240.424 306.511 238.135 306.699 235.849 306.895C234.981 306.968 234.109 307.006 233.238 307.06C232.769 304.901 232.6 304.798 230.53 304.498C227.734 304.095 224.949 303.599 222.157 303.177C220.682 302.954 219.196 302.789 217.71 302.616C215.993 302.413 214.245 302.359 212.559 302.005C209.552 301.376 206.499 301.122 203.465 300.703C201.829 300.477 200.173 300.365 198.564 300.027C197.7 299.847 196.843 299.839 195.987 299.736C194.689 299.578 193.513 300.2 192.25 300.204C190.337 299.739 188.428 299.263 186.516 298.814C182.905 297.965 179.276 297.178 175.681 296.267C174.099 295.868 172.563 295.86 170.992 296.148C165.484 297.166 159.977 298.199 154.461 299.183C153.459 299.363 152.414 299.367 151.389 299.382C149.829 299.405 148.654 298.668 147.867 297.354C146.815 295.592 145.778 293.817 144.81 292.004C144.525 291.47 144.502 290.794 144.36 290.18C144.741 289.573 145.121 288.966 145.501 288.359L145.505 288.344ZM231.29 283.981C233.718 284.304 236.103 283.516 238.549 283.374C240.508 283.259 242.448 282.86 244.395 282.591C244.863 282.525 245.336 282.487 245.804 282.41C247.36 282.161 248.908 281.865 250.463 281.657C253.194 281.289 255.944 281.043 258.663 280.594C259.677 280.425 260.676 280.248 261.701 280.167C262.396 280.114 263.084 279.841 263.748 279.591C264.359 279.361 264.624 278.719 264.501 278.013C264.397 277.421 264.017 276.987 263.399 276.937C262.373 276.853 261.363 276.853 260.33 277.064C258.713 277.398 257.069 277.598 255.429 277.821C253.866 278.032 252.261 278.04 250.744 278.424C247.898 279.138 244.959 279.142 242.106 279.729C241.18 279.922 240.247 280.06 239.31 280.206C237.754 280.444 236.168 280.551 234.643 280.92C232.462 281.45 230.349 281.719 228.172 280.889C227.046 280.459 225.814 280.651 224.635 280.763C224.151 280.809 223.774 281.162 223.686 281.696C223.594 282.23 223.828 282.629 224.285 282.871C224.562 283.017 224.884 283.071 225.18 283.178C227.142 283.877 229.159 284.204 231.29 283.985V283.981Z" fill="#FFB68A"/>
<path d="M403.277 241.295C415.033 243.572 425.084 255.075 426.809 267.147C427.642 272.988 426.678 278.676 424.397 284.126C423.352 286.619 422.054 288.973 420.51 291.193C419.6 292.499 418.766 293.843 418.494 295.452C417.011 295.303 415.79 295.817 414.503 296.582C411.788 298.191 408.969 299.646 405.892 300.491C404.982 300.741 404.06 300.964 403.154 301.237C401.491 301.736 399.835 302.25 398.061 302.139C397.669 302.116 397.235 302.101 396.886 302.243C395.818 302.684 394.708 302.611 393.606 302.592C391.559 302.558 389.527 302.681 387.476 302.208C385.967 301.859 384.331 302.27 382.79 301.705C382.303 301.525 381.692 301.644 381.139 301.674C380.536 301.705 380.079 301.997 379.902 302.6C379.641 303.483 379.849 304.474 380.455 304.735C382.333 305.546 384.215 306.379 386.32 306.414C386.954 306.425 387.63 306.31 388.206 306.498C389.681 306.982 391.179 306.867 392.673 306.875C395.115 306.886 397.543 306.848 399.981 306.448C403.104 305.938 406.199 305.473 409.038 303.956C410.781 303.022 412.563 302.162 414.338 301.286C415.77 300.58 417.253 300.061 418.889 300.211C419.223 303.952 417.756 307.028 415.306 309.701C413.228 311.967 410.628 313.473 407.793 314.602C404.536 315.9 401.137 316.699 397.708 317.344C390.825 318.639 383.862 319.088 376.876 319.284C367.904 319.534 358.944 319.357 349.991 318.762C348.962 318.692 347.929 318.708 346.899 318.669C346.508 318.654 346.104 318.642 345.724 318.554C345.332 318.462 344.983 318.243 344.914 317.786C344.852 317.36 345.006 316.976 345.348 316.745C345.87 316.392 346.427 316.088 346.991 315.804C356.47 310.992 366.156 306.621 375.87 302.3C376.649 301.955 377.54 301.774 378.12 301.068C377.928 300.361 377.306 300.103 376.818 299.731C375.121 298.425 373.388 297.165 371.699 295.844C369.444 294.077 367.316 292.172 365.534 289.918C365.05 289.303 364.432 288.75 364.409 287.875C364.927 287.687 365.461 287.533 365.961 287.306C370.854 285.083 375.747 282.851 380.632 280.608C381.277 280.312 381.892 279.944 382.514 279.598C385.506 277.924 386.428 275.189 386.316 271.982C386.278 270.799 386.143 269.608 385.901 268.449C385.306 265.591 385.794 262.772 386.093 259.945C386.186 259.081 386.512 258.255 387.057 257.549C387.829 256.546 388.594 255.548 389.565 254.71C392.915 251.811 396.21 248.853 399.186 245.554C400.262 244.36 401.214 243.135 401.721 241.598L403.281 241.299L403.277 241.295Z" fill="#894100"/>
<path d="M327.45 241.487C324.124 241.955 321.009 243.115 317.971 244.467C313.539 246.441 309.345 248.861 305.596 251.937C302.843 254.192 300.219 256.642 298.241 259.657C297.016 261.523 296.144 263.517 295.914 265.81C295.691 268.006 295.192 270.169 295.073 272.389C295.015 273.437 294.739 273.775 293.679 274.009C291.363 274.516 289.043 275.008 286.704 275.407C282.034 276.206 277.36 277.009 272.67 277.67C270.796 277.935 268.937 278.403 267.02 278.346C265.576 278.303 265.246 278.058 265.004 276.59C264.632 274.332 264.255 272.074 263.994 269.792C263.737 267.523 263.245 265.276 262.995 262.994C262.796 261.189 262.458 259.403 262.204 257.606C261.59 253.228 260.971 248.845 260.395 244.463C259.992 241.41 259.623 238.349 259.301 235.284C259.193 234.266 258.748 233.283 258.997 232.23C259.854 231.747 260.81 231.724 261.751 231.593C264.647 231.182 267.535 230.706 270.431 230.26C272.62 229.922 274.809 229.561 277.006 229.285C277.836 229.181 278.473 228.87 279.122 228.351C281.231 226.669 283.428 225.125 285.844 223.889C289.769 221.88 293.901 221.753 298.134 222.306C303.138 222.959 307.436 225.294 311.63 227.917C315.344 230.245 318.689 233.022 321.881 236.002C323.617 237.627 325.357 239.251 327.085 240.887C327.25 241.045 327.331 241.287 327.454 241.487H327.45Z" fill="#8A89DE"/>
<path d="M401.717 241.595C401.21 243.132 400.261 244.357 399.182 245.551C396.206 248.85 392.91 251.808 389.561 254.708C388.59 255.549 387.825 256.543 387.053 257.546C386.508 258.252 386.182 259.078 386.089 259.942C385.79 262.769 385.302 265.588 385.897 268.446C386.139 269.602 386.27 270.796 386.312 271.979C386.42 275.186 385.502 277.921 382.51 279.595C381.888 279.945 381.273 280.31 380.628 280.605C375.743 282.848 370.853 285.08 365.956 287.303C365.457 287.53 364.923 287.684 364.405 287.872C363.064 287.741 361.747 287.799 360.418 288.102C358.809 288.467 357.142 288.406 355.498 288.663C352.241 289.17 348.938 289.381 345.662 289.773C344.18 289.95 342.724 290.372 341.211 290.169C341.311 289.873 341.33 289.508 341.518 289.293C343.289 287.265 344.41 284.792 346.077 282.691C346.511 282.145 346.803 281.469 347.091 280.824C348.9 276.742 349.925 272.494 349.803 268C349.791 267.605 349.783 267.209 349.803 266.813C350.006 263.049 348.915 259.654 346.853 256.54C346.626 256.198 346.48 255.848 346.453 255.445C346.799 255.034 347.295 255.08 347.755 254.996C349.096 254.746 349.303 254.492 349.361 253.114C349.38 252.641 349.353 252.165 349.353 251.689C349.33 247.967 349.33 244.245 349.269 240.524C349.249 239.199 349.618 238.016 350.306 236.929C351.293 235.362 352.637 234.386 354.607 234.479C356.109 234.548 357.618 234.49 359.12 234.559C362.139 234.701 365.115 234.202 368.111 234.018C369.747 233.918 370.922 233.035 371.714 231.644C372.182 230.818 372.536 229.927 373.008 229.106C374.056 227.281 375.839 226.816 377.651 227.861C378.477 228.337 379.238 228.898 379.902 229.593C381.431 231.195 382.982 232.766 384.419 234.463C387.153 237.697 390.614 239.84 394.854 240.558C395.319 240.639 395.799 240.693 396.267 240.678C398.092 240.624 399.9 240.708 401.686 241.115C401.694 241.277 401.698 241.438 401.706 241.599L401.717 241.595Z" fill="#FFB68A"/>
<path d="M189.761 324.956C190.03 322.133 190.295 319.307 190.575 316.484C190.748 314.759 191.009 313.039 191.128 311.31C191.347 308.08 191.888 304.889 192.303 301.682C193.306 302.1 194.277 302.707 195.322 302.907C198.552 303.521 201.813 304.001 205.066 304.493C206.617 304.727 208.184 304.831 209.736 305.065C212.444 305.476 215.14 305.987 217.851 306.375C220.567 306.763 223.313 306.947 226.013 307.427C227.33 307.662 228.705 307.619 229.957 308.023C231.052 308.376 231.958 308.165 232.926 307.811C234.14 309.06 235.369 310.296 236.567 311.56C239.455 314.609 242.213 317.774 244.433 321.354C245.954 323.808 246.868 326.5 246.933 329.411C246.964 330.832 246.933 332.269 246.753 333.675C246.48 335.837 245.424 337.719 244.325 339.558C243.918 340.246 243.369 340.837 242.685 341.256C239.763 343.03 236.702 343.856 233.195 343.376C227.641 342.616 222.449 340.738 217.325 338.656C211.975 336.478 206.664 334.185 201.529 331.524C198.087 329.738 194.665 327.921 191.251 326.082C190.709 325.79 190.095 325.54 189.757 324.952L189.761 324.956Z" fill="#FFB68A"/>
<path d="M418.889 300.21C417.253 300.061 415.77 300.579 414.338 301.286C412.563 302.161 410.781 303.022 409.037 303.955C406.199 305.472 403.104 305.937 399.981 306.448C397.542 306.847 395.115 306.885 392.672 306.874C391.178 306.866 389.68 306.981 388.206 306.498C387.63 306.309 386.95 306.421 386.32 306.413C384.215 306.378 382.333 305.545 380.455 304.735C379.848 304.473 379.645 303.483 379.902 302.599C380.079 301.992 380.536 301.704 381.139 301.674C381.692 301.643 382.299 301.528 382.79 301.704C384.33 302.269 385.966 301.858 387.476 302.207C389.523 302.68 391.559 302.557 393.606 302.592C394.708 302.611 395.814 302.684 396.886 302.242C397.235 302.1 397.669 302.111 398.061 302.138C399.835 302.254 401.491 301.735 403.154 301.236C404.06 300.963 404.978 300.74 405.892 300.491C408.972 299.646 411.791 298.19 414.503 296.581C415.789 295.817 417.015 295.302 418.493 295.452C418.827 295.786 418.923 296.228 419.027 296.662C418.847 297.637 418.824 298.601 419.181 299.55L418.889 300.21Z" fill="#5E3818"/>
<path d="M232.926 307.811C231.958 308.164 231.052 308.376 229.957 308.022C228.705 307.619 227.33 307.661 226.013 307.427C223.317 306.947 220.567 306.763 217.852 306.375C215.14 305.987 212.444 305.476 209.736 305.065C208.185 304.831 206.618 304.727 205.066 304.493C201.813 304.001 198.552 303.521 195.322 302.907C194.277 302.707 193.306 302.1 192.303 301.681C192.284 301.186 192.269 300.687 192.25 300.191C193.513 300.191 194.688 299.565 195.987 299.723C196.843 299.826 197.696 299.834 198.564 300.015C200.173 300.353 201.832 300.464 203.464 300.691C206.498 301.109 209.548 301.363 212.559 301.993C214.245 302.346 215.993 302.4 217.709 302.603C219.192 302.78 220.678 302.941 222.157 303.164C224.949 303.586 227.734 304.086 230.53 304.485C232.604 304.781 232.769 304.888 233.237 307.047C233.134 307.304 233.03 307.558 232.922 307.811H232.926Z" fill="#E7A47C"/>
<path d="M346.461 255.446C346.488 255.849 346.634 256.195 346.861 256.54C348.923 259.651 350.014 263.046 349.81 266.814C349.787 267.21 349.799 267.605 349.81 268.001C349.933 272.494 348.908 276.742 347.099 280.825C346.811 281.474 346.519 282.146 346.085 282.691C344.418 284.792 343.297 287.266 341.526 289.294C341.338 289.509 341.319 289.874 341.219 290.169C339.859 290.757 338.4 290.661 336.971 290.765C336.898 290.023 337.09 289.405 337.612 288.821C339.898 286.279 341.461 283.287 342.932 280.226C343.719 278.582 344.372 276.892 344.91 275.164C345.589 272.982 346.116 270.766 346.004 268.443C345.962 267.575 346.023 266.703 345.993 265.835C345.885 262.647 345.397 259.563 343.446 256.901C343.197 256.559 343.154 256.179 343.178 255.78C344.245 255.392 345.355 255.403 346.465 255.442L346.461 255.446Z" fill="#E7A47C"/>
<path d="M419.181 299.546C418.824 298.602 418.847 297.634 419.027 296.658C419.699 297.588 419.653 298.556 419.181 299.546Z" fill="#896952"/>
<path d="M401.717 241.594C401.71 241.433 401.706 241.272 401.698 241.11C402.274 240.745 402.804 240.761 403.277 241.295C402.758 241.395 402.24 241.494 401.717 241.594Z" fill="#D8AA94"/>
<path d="M145.505 288.342C145.124 288.949 144.744 289.556 144.364 290.163C142.121 290.554 139.955 289.913 137.781 289.598C135.834 289.318 133.89 289.03 131.939 288.768C130.303 288.546 128.682 288.196 127.046 287.97C125.721 287.785 124.392 287.597 123.067 287.42C120.022 287.017 117.011 286.356 113.965 286.057C111.292 285.792 108.699 285.051 106.007 284.932C105.243 284.897 104.463 284.594 103.741 284.286C102.942 283.945 102.547 283.103 102.662 282.347C102.792 281.506 103.537 280.807 104.459 280.718C104.851 280.68 105.258 280.676 105.646 280.73C107.827 281.052 110.005 281.383 112.183 281.736C113.815 282.001 115.436 282.312 117.068 282.573C119.864 283.023 122.668 283.438 125.468 283.875C127.799 284.244 130.138 284.597 132.469 284.97C135.503 285.454 138.538 285.919 141.556 286.483C142.636 286.683 143.669 287.136 144.713 287.501C145.105 287.639 145.324 287.985 145.505 288.346V288.342Z" fill="#494A45"/>
<path d="M231.291 283.982C229.159 284.205 227.143 283.875 225.18 283.176C224.885 283.068 224.558 283.015 224.285 282.869C223.828 282.627 223.594 282.227 223.686 281.693C223.779 281.159 224.151 280.806 224.635 280.76C225.814 280.649 227.043 280.46 228.172 280.887C230.35 281.716 232.462 281.451 234.644 280.918C236.169 280.545 237.755 280.441 239.31 280.203C240.244 280.061 241.181 279.919 242.106 279.727C244.96 279.135 247.898 279.135 250.744 278.421C252.261 278.041 253.866 278.029 255.43 277.818C257.066 277.595 258.713 277.399 260.33 277.061C261.363 276.846 262.377 276.85 263.399 276.935C264.014 276.985 264.398 277.419 264.501 278.01C264.624 278.717 264.359 279.358 263.749 279.589C263.084 279.838 262.397 280.111 261.701 280.165C260.672 280.245 259.674 280.426 258.663 280.591C255.944 281.04 253.194 281.286 250.464 281.655C248.904 281.866 247.356 282.162 245.805 282.408C245.336 282.481 244.864 282.523 244.395 282.588C242.448 282.857 240.509 283.256 238.55 283.372C236.107 283.514 233.722 284.297 231.291 283.979V283.982Z" fill="#E7A47C"/>
</svg>
