<svg width="500" height="500" viewBox="0 0 500 500" fill="none" xmlns="http://www.w3.org/2000/svg">
<path d="M102.554 360.871C121.182 367.4 139.805 373.933 158.432 380.453C168.422 383.95 178.417 387.429 188.416 390.891C193.015 392.48 197.716 393.734 202.454 394.818C204.393 395.261 206.421 395.377 208.418 395.507C209.784 395.597 211.092 395.064 212.395 394.697C214.674 394.052 216.796 393.04 218.919 391.988C226.11 388.419 232.827 384.044 239.714 379.951C244.572 377.063 249.417 374.153 254.258 371.233C255.296 370.606 256.322 369.943 257.294 369.218C265.479 363.079 273.656 356.922 281.819 350.756C282.432 350.29 283.189 349.959 283.551 349.202C283.471 348.651 283.108 348.347 282.656 348.078C279.521 346.229 276.36 344.42 273.279 342.49C270.324 340.641 267.261 338.979 264.525 336.745C261.113 333.96 258.328 330.655 255.695 327.185C255.462 326.876 255.171 326.495 255.355 326.016C255.462 325.725 255.982 325.891 256.564 326.527C258.852 329.03 261.597 330.946 264.427 332.76C266.11 333.839 267.87 334.788 269.59 335.8C272.563 337.542 275.599 339.091 278.935 340.014C282.307 340.945 285.723 341.603 289.234 341.635C291.665 341.657 294.101 341.635 296.533 341.639C297.088 341.639 297.697 341.496 298.118 342.047C298.731 342.047 299.166 341.635 299.663 341.37C313.786 333.736 327.904 326.097 342.023 318.462C342.587 318.157 343.165 317.875 343.733 317.584C343.863 312.583 343.312 307.603 343.227 302.611C343.227 302.396 343.214 302.181 343.173 301.97C342.654 299.378 342.52 296.745 342.287 294.116C342.112 292.128 341.991 290.135 341.839 288.143C341.633 285.514 341.338 282.895 341.132 280.266C340.917 277.566 340.782 274.857 340.572 272.157C340.433 270.384 340.218 268.615 340.039 266.842C339.157 266.869 338.463 267.397 337.688 267.719C335.297 268.722 332.933 269.788 330.394 270.388C329.843 271.163 328.921 271.23 328.137 271.512C323.511 273.187 318.863 274.808 314.233 276.478C313.544 276.729 312.872 276.836 312.147 276.809C307.584 276.657 303.034 276.16 298.463 276.218C298.319 276.218 298.176 276.218 298.033 276.196C293.922 275.618 289.771 275.78 285.643 275.574C280.73 275.332 275.809 275.063 270.888 274.987C269.751 274.969 268.609 274.866 267.472 274.799C267.118 275.041 266.737 275.247 266.419 275.529C262.474 279.062 258.512 282.581 254.611 286.164C252.977 287.664 251.428 289.258 249.932 290.892C247.093 293.995 245.186 297.68 243.538 301.509C242.687 303.484 241.975 305.521 241.505 307.608C241.084 309.484 240.842 311.414 240.681 313.335C240.542 314.996 239.893 316.357 238.796 317.553C238.164 318.238 237.537 318.923 236.897 319.599C226.777 330.23 216.653 340.855 206.538 351.49C204.908 353.201 203.264 354.902 201.706 356.676C200.913 357.576 200.09 357.692 199.037 357.307C198.012 356.931 197.121 356.358 196.252 355.722C192.191 352.766 187.932 350.142 183.405 347.962C175.739 344.263 167.702 341.823 159.265 340.676C155.074 340.108 150.861 339.866 146.656 339.526C141.233 339.087 135.806 338.72 130.384 338.33C128.386 338.187 126.385 338.052 124.388 337.914C119.892 337.605 115.392 337.287 110.892 336.991C110.18 336.946 109.463 336.996 108.747 337.005C108.42 338.164 108.075 339.32 107.762 340.484C106.356 345.759 104.927 351.029 103.579 356.322C103.194 357.826 102.549 359.277 102.563 360.871H102.554Z" fill="#6A6C65"/>
<path d="M340.035 266.838C340.214 268.611 340.429 270.38 340.567 272.153C340.778 274.853 340.912 277.562 341.127 280.263C341.338 282.891 341.633 285.511 341.835 288.139C341.991 290.127 342.108 292.12 342.282 294.112C342.515 296.741 342.645 299.369 343.169 301.967C343.209 302.177 343.218 302.392 343.223 302.607C343.308 307.6 343.863 312.579 343.729 317.581C344.051 317.925 344.074 318.355 344.06 318.785C343.912 324.584 344.45 330.369 344.629 336.159C344.763 340.444 344.75 344.747 345.086 349.019C345.363 352.525 345.171 356.036 345.466 359.52C345.833 363.877 345.766 368.238 345.896 372.599C345.923 373.522 346.111 374.44 346.205 375.362C346.299 376.316 346.053 377.144 345.542 377.995C344.105 380.386 342.784 382.845 341.432 385.285C340.872 386.293 340.527 387.376 340.214 388.482C339.381 391.429 340.03 394.084 341.49 396.704C342.439 398.41 343.8 399.426 345.591 399.883C346.827 400.201 348.09 400.496 349.393 400.46C350.038 400.442 350.683 400.456 351.328 400.496C359.835 401.043 368.348 400.962 376.865 400.94C379.605 400.931 382.247 400.537 384.893 399.784C386.599 399.301 387.822 398.365 388.896 397.093C389.125 396.82 389.304 396.506 389.487 396.198C389.908 395.494 390.531 395.19 391.305 395.436C392.635 395.853 393.997 395.795 395.353 395.795C404.734 395.795 414.115 395.772 423.501 395.777C425.467 395.777 427.329 395.432 429.098 394.532C432.192 392.96 433.715 390.394 433.97 386.991C434.221 383.691 432.891 381.215 430.262 379.258C428.292 377.794 426.089 376.764 423.967 375.591C418.517 372.582 413.018 369.667 407.542 366.702C407.166 366.501 406.83 366.228 406.476 365.99C405.782 366.232 405.061 366.125 404.354 366.12C400.221 366.08 396.097 365.896 391.968 365.789C385.345 365.623 378.723 365.43 372.105 365.202C371.54 366.675 371.222 368.193 371.03 369.77C370.864 371.131 370.631 372.447 371.021 373.795C371.057 373.925 371.061 374.091 371.017 374.216C370.972 374.328 370.855 374.449 370.743 374.498C370.511 374.597 370.318 374.462 370.224 374.265C370.134 374.086 370.036 373.844 370.085 373.67C370.399 372.546 370.305 371.395 370.327 370.258C370.591 355.454 370.116 340.646 370.667 325.842C370.922 318.982 370.788 312.104 370.824 305.235C370.824 304.443 370.833 303.664 371.164 302.925C371.115 300.426 371.308 297.945 371.505 295.451C371.764 292.187 371.688 288.9 371.961 285.623C372.203 282.712 372.136 279.788 372.351 276.864C372.624 273.17 372.664 269.458 372.808 265.754C372.969 261.55 373.202 257.35 373.39 253.149C373.354 251.793 373.296 250.436 373.64 249.101C373.726 248.761 373.708 248.39 373.703 248.036C373.591 240.321 374.263 232.619 374.223 224.908C374.209 222.127 374.751 219.364 374.549 216.575C374.272 212.737 374.173 208.891 373.86 205.053C373.497 200.58 372.387 196.344 370.708 192.233C370.009 190.518 369.154 188.862 368.29 187.223C367.931 186.538 367.389 185.937 366.87 185.355C366.346 184.764 365.831 184.173 365.486 183.461C365.374 183.425 365.294 183.354 365.245 183.246C364.931 183.076 364.568 182.964 364.313 182.731C361.891 180.551 359.074 178.997 356.132 177.676C352.443 176.024 348.618 174.913 344.503 175.276C342.336 175.468 340.236 175.916 338.521 177.331C337.531 178.146 336.582 179.055 335.816 180.076C333.649 182.955 332.037 186.121 331.164 189.654C330.336 192.986 329.736 196.331 329.35 199.752C329.019 202.716 329.288 205.595 329.556 208.501C329.668 209.697 329.995 210.883 330.604 211.967C332.046 214.537 333.546 217.045 336.26 218.523C337.052 218.952 337.33 219.655 337.093 220.524C336.86 221.37 336.766 222.23 336.949 223.072C337.182 224.138 337.173 225.203 337.178 226.274C337.205 230.133 337.805 233.971 337.719 237.835C337.719 237.979 337.72 238.126 337.751 238.261C338.333 240.715 338.114 243.236 338.414 245.721C338.839 249.258 338.969 252.831 339.305 256.387C339.632 259.866 339.806 263.354 340.052 266.843L340.035 266.838ZM390.92 392.297C390.965 393.211 390.602 393.694 389.877 393.887C389.371 394.021 389.013 393.681 388.798 392.853C388.672 392.373 388.48 391.899 388.431 391.406C388.346 390.6 387.969 389.92 387.661 389.199C386.675 386.884 383.254 382.858 380.277 380.763C377.944 379.124 375.682 377.382 373.121 376.092C372.996 376.029 372.875 375.944 372.776 375.846C372.602 375.68 372.575 375.456 372.709 375.273C372.83 375.112 373.014 374.901 373.179 374.888C373.443 374.865 373.735 374.959 373.985 375.062C377.156 376.37 380.2 377.812 382.905 380.042C385.547 382.218 387.732 384.685 389.367 387.636C390.19 389.123 390.688 390.779 390.925 392.297H390.92Z" fill="#FFB68A"/>
<path d="M372.105 365.212C378.728 365.44 385.346 365.633 391.968 365.798C396.097 365.901 400.225 366.085 404.354 366.13C405.062 366.139 405.782 366.242 406.477 366C408.012 359.243 409.557 352.486 411.084 345.724C413.601 334.57 416.122 323.42 418.62 312.262C420.805 302.5 423.009 292.743 425.113 282.963C426.591 276.099 426.004 269.427 422.615 263.176C418.638 255.846 412.441 251.328 404.426 249.268C400.431 248.242 396.375 248.086 392.295 248.73C392.013 248.775 391.727 248.811 391.44 248.825C385.502 249.071 379.923 250.822 374.402 252.841C374.066 252.962 373.721 253.056 373.385 253.164C373.193 257.364 372.965 261.564 372.803 265.769C372.66 269.472 372.62 273.188 372.347 276.878C372.132 279.798 372.199 282.726 371.957 285.637C371.684 288.91 371.76 292.197 371.5 295.465C371.303 297.955 371.111 300.44 371.16 302.939C372.606 302.321 374.03 301.658 375.351 300.789C375.893 300.436 376.453 300.127 377.098 299.997C377.89 299.836 378.508 300.257 378.665 301.063C378.705 301.273 378.741 301.488 378.723 301.698C378.625 303.051 378.548 304.408 378.396 305.76C377.886 310.233 377.326 314.698 376.824 319.171C376.086 325.776 375.401 332.389 374.653 338.99C374.003 344.744 373.229 350.48 372.642 356.238C372.338 359.22 371.966 362.207 372.105 365.221V365.212Z" fill="#6B6D66"/>
<path d="M329.498 106.925C321.55 106.902 316.078 110.735 312.756 117.797C311.224 121.052 310.392 124.536 309.72 128.055C308.627 133.769 308.363 139.559 308.256 145.353C308.103 153.736 308.591 162.087 309.541 170.411C309.644 171.333 309.612 172.269 309.711 173.192C309.814 174.19 310.799 174.58 311.623 173.989C312.102 173.644 312.389 173.151 312.684 172.659C317.054 165.356 321.237 157.945 325.226 150.422C326.498 148.022 327.765 145.617 329.051 143.222C329.409 142.555 329.673 142.537 330.157 143.141C331.321 144.592 332.463 146.061 333.613 147.52C335.167 149.486 336.748 151.434 338.606 153.127C339.761 154.179 340.863 155.325 342.376 155.894C342.717 155.11 343.066 154.327 343.402 153.543C344.45 151.116 345.444 148.667 346.554 146.271C347.186 144.91 347.857 143.567 348.31 142.134C348.659 141.032 349.169 140.007 349.778 139.044C350.723 137.553 351.986 136.492 353.79 136.057C355.147 135.73 356.495 135.668 357.829 135.874C360.758 136.33 363.66 136.254 366.579 135.815C367.752 135.636 368.773 135.26 369.705 134.539C370.56 133.881 371.321 133.142 371.997 132.3C374.558 129.126 377.326 126.139 380.245 123.291C381.235 122.324 382.327 121.563 383.662 121.173C383.805 120.304 383.604 119.471 383.38 118.639C382.681 116.059 381.548 113.673 379.99 111.51C375.557 105.353 369.687 101.287 362.276 99.5362C357.48 98.4033 352.761 98.9407 348.104 100.342C344.58 101.403 341.364 103.101 338.391 105.254C337.227 106.101 336.045 106.889 334.607 107.198C334.796 109.132 333.748 110.596 332.749 112.083C332.033 113.144 331.021 114.022 330.546 115.226C329.762 117.215 329.037 119.234 328.379 121.272C327.788 123.103 327.474 125.019 327.362 126.927C327.121 131.141 327.425 135.327 328.468 139.447C328.607 139.989 328.58 140.58 328.567 141.144C328.553 141.61 328.271 142.022 327.833 142.102C326.077 142.416 325.038 142.353 324.201 140.741C323.198 138.802 322.504 136.823 322.589 134.611C322.607 134.114 322.643 133.572 322.477 133.124C322.146 132.215 322.173 131.297 322.173 130.37C322.173 128.02 322.047 125.655 322.616 123.34C323.041 121.616 323.256 119.852 324.04 118.209C324.998 116.212 326.059 114.286 327.264 112.428C328.356 110.744 329.324 108.998 329.485 106.929L329.498 106.925Z" fill="#894100"/>
<path d="M340.035 266.837C339.793 263.353 339.614 259.86 339.287 256.381C338.956 252.826 338.821 249.252 338.396 245.715C338.096 243.23 338.315 240.704 337.733 238.255C337.702 238.116 337.697 237.968 337.702 237.829C337.787 233.965 337.187 230.128 337.16 226.268C337.151 225.197 337.165 224.132 336.932 223.066C336.748 222.224 336.842 221.36 337.075 220.518C337.312 219.649 337.035 218.946 336.242 218.517C333.533 217.039 332.033 214.531 330.587 211.961C329.978 210.877 329.651 209.691 329.539 208.495C329.266 205.589 328.997 202.71 329.333 199.746C329.718 196.325 330.318 192.98 331.146 189.648C332.024 186.115 333.632 182.949 335.799 180.07C336.565 179.054 337.518 178.14 338.503 177.325C340.223 175.91 342.323 175.462 344.486 175.27C348.601 174.907 352.425 176.018 356.115 177.67C359.061 178.991 361.873 180.545 364.296 182.725C364.551 182.958 364.914 183.07 365.227 183.24C365.137 182.475 364.632 181.964 364.143 181.436C362.003 179.121 359.634 177.106 356.948 175.404C352.138 172.355 346.926 171.379 341.374 171.997C339.117 172.247 336.856 172.65 334.751 173.618C334.308 173.824 333.856 174.083 333.327 174.025L333.35 174.012C333.273 174.244 333.108 174.356 332.875 174.383C329.633 176.264 326.696 178.53 324.237 181.36C321.748 184.23 319.63 187.369 317.758 190.678C314.592 196.28 311.368 201.85 308.211 207.456C306.666 210.197 305.162 212.964 303.738 215.767C300.232 222.654 296.448 229.384 292.593 236.079C291.164 238.559 289.736 241.035 288.334 243.525C288.021 244.08 287.81 244.694 287.555 245.285C293.958 249.458 300.693 253.054 307.396 256.703C310.902 258.615 314.319 260.689 317.749 262.735C321.976 265.26 326.172 267.831 330.381 270.383C332.92 269.783 335.284 268.717 337.675 267.714C338.445 267.392 339.144 266.863 340.026 266.837H340.035Z" fill="#8A8ADE"/>
<path d="M333.336 174.024C333.864 174.078 334.316 173.819 334.76 173.617C336.864 172.65 339.121 172.247 341.382 171.996C346.935 171.378 352.151 172.354 356.956 175.404C359.643 177.105 362.007 179.12 364.152 181.435C364.64 181.959 365.146 182.47 365.235 183.24C365.285 183.347 365.365 183.423 365.477 183.459C367.107 180.853 368.719 178.234 370.38 175.654C371.679 173.639 371.692 173.608 373.981 172.914C377.67 171.795 381.324 170.559 385.081 169.677C385.981 169.466 386.872 169.162 387.714 168.781C389.801 167.827 390.849 166.135 390.911 163.86C390.943 162.79 390.929 161.719 390.701 160.658C390.414 159.315 390.428 157.931 390.629 156.601C390.858 155.106 390.893 153.615 390.925 152.115C390.943 151.318 391.055 150.556 391.399 149.826C391.78 149.02 392.29 148.371 393.114 147.991C393.764 147.691 394.391 147.346 395.031 147.028C395.685 146.696 396.204 146.226 396.567 145.581C396.938 144.919 397.05 144.243 396.737 143.531C396.414 142.81 396.101 142.08 395.546 141.507C394.355 140.275 393.168 139.03 391.82 137.96C389.913 136.442 388.135 134.794 386.742 132.766C385.198 130.523 384.351 128.073 384.436 125.324C384.481 123.9 384.387 122.485 383.671 121.195C382.336 121.585 381.248 122.346 380.254 123.313C377.335 126.161 374.567 129.148 372.006 132.323C371.33 133.164 370.569 133.903 369.713 134.562C368.782 135.278 367.757 135.659 366.588 135.838C363.668 136.281 360.767 136.353 357.838 135.896C356.504 135.69 355.156 135.757 353.799 136.08C351.995 136.514 350.732 137.575 349.787 139.066C349.178 140.029 348.663 141.054 348.318 142.156C347.866 143.589 347.194 144.932 346.563 146.293C345.453 148.689 344.454 151.138 343.411 153.565C343.07 154.349 342.726 155.133 342.385 155.916C342.546 156.731 342.314 157.407 341.861 158.119C339.04 162.575 336.528 167.205 334.052 171.857C333.689 172.538 333.174 173.183 333.336 174.042V174.024Z" fill="#FFB68A"/>
<path d="M102.554 360.871C102.541 359.277 103.19 357.822 103.571 356.322C104.919 351.029 106.347 345.758 107.753 340.484C108.062 339.319 108.407 338.164 108.738 337.004C105.259 336.664 101.771 336.409 98.3094 335.961C94.3511 335.451 90.3792 335.07 86.4343 334.421C84.6879 334.134 82.9192 333.771 81.1146 333.865C80.8325 333.879 80.5415 333.843 80.2594 333.794C76.8115 333.171 73.7889 334.233 70.9634 336.109C67.6319 338.325 66.3065 341.639 66.1319 345.441C65.9886 348.512 65.908 351.611 66.1856 354.665C66.4006 357.074 66.3289 359.514 66.8081 361.91C67.0857 363.303 67.1125 364.744 67.2737 366.159C67.6409 369.352 68.1559 372.518 68.6977 375.679C69.6067 380.954 70.8381 386.162 72.0605 391.374C72.4367 392.968 73.3143 394.087 74.6398 394.889C76.4309 395.973 78.3922 396.783 80.4609 396.953C84.5178 397.28 87.9075 395.91 90.2091 392.381C90.9435 391.253 91.1584 389.959 90.8808 388.669C90.5942 387.321 90.5449 385.969 90.5718 384.617C90.6255 381.751 90.2181 378.912 90.1554 376.06C90.1464 375.702 90.1733 375.343 90.133 374.985C90.0344 374.058 90.3658 373.36 91.0375 372.701C92.8823 370.901 94.6869 369.065 96.4691 367.207C98.202 365.403 99.8811 363.549 101.596 361.726C101.887 361.417 102.232 361.158 102.554 360.871Z" fill="#FFB68B"/>
<path d="M330.394 270.385C326.185 267.833 321.99 265.263 317.763 262.737C314.333 260.691 310.916 258.613 307.41 256.706C300.707 253.052 293.972 249.456 287.569 245.287C286.915 245.565 286.7 246.227 286.351 246.747C282.598 252.322 279.061 258.031 275.604 263.794C273.835 266.745 271.843 269.53 269.505 272.055C268.726 272.897 268.068 273.829 267.477 274.805C268.614 274.868 269.751 274.975 270.893 274.993C275.814 275.069 280.736 275.338 285.648 275.58C289.776 275.781 293.927 275.624 298.038 276.202C298.177 276.22 298.324 276.224 298.468 276.224C303.04 276.166 307.589 276.663 312.152 276.815C312.877 276.838 313.549 276.73 314.238 276.484C318.869 274.809 323.517 273.193 328.142 271.518C328.926 271.236 329.848 271.164 330.399 270.394L330.394 270.385Z" fill="#F5BA91"/>
<path d="M329.498 106.923C329.337 108.988 328.369 110.738 327.277 112.422C326.072 114.28 325.011 116.206 324.053 118.203C323.265 119.846 323.05 121.611 322.629 123.335C322.06 125.65 322.186 128.014 322.186 130.365C322.186 131.292 322.159 132.21 322.49 133.119C322.656 133.571 322.62 134.108 322.602 134.605C322.517 136.817 323.211 138.801 324.214 140.735C325.047 142.347 326.09 142.41 327.846 142.097C328.284 142.02 328.567 141.604 328.58 141.138C328.593 140.574 328.62 139.983 328.481 139.441C327.443 135.326 327.134 131.139 327.375 126.921C327.483 125.014 327.801 123.097 328.392 121.266C329.05 119.228 329.776 117.213 330.559 115.221C331.034 114.016 332.046 113.139 332.762 112.077C333.761 110.595 334.809 109.131 334.621 107.192C333.3 106.597 331.916 106.364 330.479 106.565C330.143 106.614 329.825 106.794 329.498 106.914V106.923Z" fill="#5D3818"/>
<path d="M298.113 342.04C297.692 341.49 297.088 341.633 296.528 341.633C294.097 341.624 291.661 341.651 289.229 341.628C285.719 341.597 282.302 340.939 278.93 340.007C275.594 339.085 272.558 337.536 269.585 335.794C267.861 334.786 266.106 333.832 264.422 332.753C261.588 330.94 258.843 329.023 256.559 326.52C255.977 325.884 255.462 325.723 255.35 326.01C255.171 326.489 255.458 326.869 255.691 327.178C258.323 330.649 261.109 333.953 264.521 336.739C267.257 338.973 270.32 340.63 273.275 342.484C276.36 344.414 279.517 346.223 282.651 348.072C283.104 348.341 283.471 348.645 283.547 349.196C285.289 348.336 286.749 347.06 288.249 345.869C289.288 345.045 290.411 344.552 291.674 344.261C293.895 343.746 296.121 343.236 298.104 342.04H298.113Z" fill="#4A4B46"/>
<path d="M332.883 174.383C333.116 174.356 333.286 174.245 333.358 174.012C333.103 174.012 332.977 174.177 332.883 174.383Z" fill="#FFB68A"/>
<path d="M390.92 392.296C390.683 390.778 390.186 389.121 389.362 387.634C387.727 384.684 385.542 382.216 382.9 380.04C380.196 377.81 377.146 376.368 373.98 375.061C373.725 374.958 373.439 374.864 373.174 374.886C373.004 374.9 372.821 375.11 372.704 375.271C372.57 375.455 372.597 375.679 372.771 375.844C372.874 375.943 372.991 376.028 373.116 376.091C375.677 377.38 377.939 379.122 380.272 380.761C383.249 382.857 386.67 386.882 387.656 389.197C387.965 389.918 388.341 390.599 388.426 391.405C388.475 391.893 388.668 392.368 388.793 392.851C389.012 393.68 389.366 394.02 389.872 393.886C390.593 393.693 390.956 393.209 390.915 392.296H390.92Z" fill="#E8A47C"/>
</svg>
