<svg width="500" height="500" viewBox="0 0 500 500" fill="none" xmlns="http://www.w3.org/2000/svg">
<path d="M328.078 258.556C328.321 257.485 328.133 256.465 327.793 255.433C327.031 253.103 325.948 250.938 324.596 248.902C324.045 248.069 323.474 247.252 322.888 246.443C322.587 246.029 322.337 245.614 322.348 245.087C321.887 245.837 321.215 246.044 320.441 245.704C319.761 245.407 319.089 245.055 318.479 244.633C316.575 243.324 314.574 242.19 312.491 241.198C308.164 239.138 303.618 238.012 298.822 237.946C297.576 237.93 296.325 238 295.082 237.93C293.507 237.844 291.975 238.169 290.466 238.466C287.593 239.036 284.775 239.861 282.238 241.389C281.07 242.093 279.932 242.23 278.697 241.678C278.521 242.347 277.97 242.667 277.454 243.019C275.906 244.082 274.476 245.282 273.1 246.56C270.313 249.144 268.144 252.173 266.428 255.534C262.965 262.316 259.537 269.121 256.086 275.91C251.392 285.15 246.678 294.378 241.769 303.505C241.386 304.22 241.014 304.943 240.604 305.643C239.83 306.956 238.822 308.039 237.504 308.832C228.456 314.273 220.49 321.074 212.923 328.375C207.619 333.491 202.585 338.877 197.512 344.224C194.201 347.711 190.828 351.143 187.627 354.731C183.382 359.495 178.618 363.732 174.185 368.301C173.665 368.837 173.157 369.388 172.645 369.931C173.884 370.553 174.885 371.459 175.874 372.425C178.504 374.989 181.193 377.49 183.871 380.008C184.136 380.258 184.476 380.434 184.781 380.645C188.209 378.714 191.672 376.849 195.057 374.844C207.482 367.48 219.372 359.315 230.918 350.65C246.365 339.057 261.319 326.866 275.711 313.984C280.554 309.649 285.307 305.22 289.954 300.683C290.396 300.253 290.759 299.721 291.369 299.487C291.556 299.24 291.717 298.971 291.932 298.756C298.693 292.013 305.326 285.15 311.58 277.919C316.317 272.443 321.027 266.951 325.643 261.374C326.437 260.416 327.109 259.353 328.082 258.548L328.078 258.556Z" fill="#696D65"/>
<path d="M303.915 94.51C303.564 95.9014 303.227 97.2929 302.688 98.6335C300.515 104.027 298.791 109.57 297.126 115.132C293.921 125.845 291.31 136.707 289.09 147.667C287.617 154.949 286.299 162.262 285.127 169.598C284.083 176.133 283.13 182.684 282.301 189.25C281.5 195.571 280.804 201.903 280.253 208.246C279.858 212.788 279.659 217.345 279.323 221.891C278.951 226.878 279.025 231.881 278.811 236.873C278.783 237.498 278.748 238.123 279.025 238.714C279.612 238.667 280.085 238.354 280.542 238.037C281.316 237.502 282.172 237.146 283.032 236.779C285.787 235.595 288.641 234.743 291.603 234.316C293.198 234.086 294.808 233.898 296.415 233.855C298.4 233.804 300.378 233.797 302.372 234.133C303.892 234.391 305.436 234.547 306.956 234.844C309.415 235.325 311.748 236.146 314.023 237.185C316.298 238.225 318.479 239.398 320.281 241.176C320.672 241.563 320.992 242.067 321.633 242.099C321.797 240.523 321.379 238.995 321.215 237.451C320.84 233.91 320.359 230.381 319.878 226.851C319.358 223.013 318.788 219.182 318.252 215.344C317.787 212.002 317.353 208.657 316.888 205.315C316.442 202.098 315.954 198.885 315.532 195.664C315.184 193.003 314.914 190.329 314.59 187.66C314.387 186.002 314.711 184.423 315.239 182.875C317.279 176.88 318.631 170.728 319.487 164.462C320.527 156.833 320.969 149.16 320.992 141.468C321.019 131.528 321.051 121.589 320.984 111.653C320.953 106.802 321.664 102.065 322.618 97.3437C322.716 96.8512 322.856 96.3744 322.806 95.8662C321.156 95.5614 319.495 95.3073 317.861 94.9321C316.63 94.6468 315.383 94.7171 314.148 94.5529C310.924 94.1269 307.683 94.2872 304.451 94.3771C304.267 94.381 304.087 94.467 303.908 94.5139L303.915 94.51Z" fill="#696E66"/>
<path d="M377.667 413.105C377.581 412.617 377.362 412.218 376.904 411.983C376.256 412.026 375.759 412.402 375.22 412.71C374.145 413.32 373.07 413.957 371.933 414.434C370.025 415.235 368.399 413.777 368.618 412.038C368.708 411.338 369.095 410.932 369.619 410.565C371.202 409.458 372.996 408.743 374.684 407.836C374.352 406.965 374.137 406.019 373.226 405.515C372.675 406.437 371.87 407.145 371.073 407.829C370.057 408.704 368.845 409.154 367.457 408.997C366.765 408.919 366.308 408.532 366.081 407.903C365.902 407.399 366.035 406.922 366.422 406.531C366.992 405.956 367.543 405.362 368.133 404.815C369.118 403.896 370.252 403.306 371.647 403.365C371.366 403.037 371.131 402.65 370.799 402.384C369.99 401.735 369.107 401.461 368.028 401.758C366.265 402.243 364.655 403.044 363.099 403.959C361.434 404.94 359.703 405.784 357.991 406.676C357.315 407.027 356.607 407.223 355.853 407.281C355.853 407.371 355.853 407.457 355.841 407.547C355.786 407.657 355.763 407.797 355.677 407.868C353.742 409.427 351.561 410.377 349.056 410.432C347.266 410.471 345.471 410.412 343.681 410.393C343.247 410.389 342.814 410.365 342.434 410.103C340.148 409.861 337.865 409.603 335.579 409.384C333.597 409.197 331.612 409.071 329.63 408.884C326.288 408.567 322.946 408.212 319.604 407.899C316.384 407.598 313.159 407.352 309.942 407.031C308.582 406.894 307.234 406.644 305.889 406.414C305.467 406.343 305.037 406.214 304.65 406.031C303.923 405.687 303.642 405.136 303.837 404.346C304.232 402.747 304.799 401.239 306.362 400.375C306.296 399.421 306.432 398.538 306.98 397.701C308.582 395.255 310.149 392.78 311.701 390.298C313.186 387.922 314.633 385.522 316.094 383.13C318.334 379.464 320.523 375.766 322.817 372.135C324.646 369.239 326.609 366.429 328.5 363.572C328.782 363.149 329.091 362.77 329.52 362.493C329.618 361.852 330.005 361.351 330.361 360.839C332.397 357.912 334.125 354.82 335.512 351.525C336.423 349.368 336.916 347.128 337.045 344.822C337.177 342.453 336.392 340.272 335.211 338.252C334.34 336.766 333.093 335.676 331.537 334.886C329.739 333.972 327.855 333.389 325.882 333.01C324.045 332.655 322.25 332.866 320.55 333.495C317.889 334.484 315.86 336.235 314.562 338.842C311.67 344.65 308.715 350.431 305.76 356.212C304.228 359.213 302.653 362.192 301.085 365.174C300.8 365.721 300.593 366.335 299.999 366.659C299.209 368.207 298.451 369.771 297.619 371.295C295.801 374.625 293.925 377.924 292.111 381.254C290.743 383.771 289.438 386.32 288.105 388.856C288.019 389.02 287.941 389.192 287.843 389.353C285.807 392.585 284.4 396.111 283.059 399.66C282.289 401.696 281.883 403.822 281.503 405.972C280.976 408.989 281.175 411.905 282.094 414.794C282.781 416.955 283.825 418.917 285.432 420.559C285.768 420.899 285.643 421.098 284.963 421.399C286.882 423.697 289.344 425.022 292.279 425.546C294.429 425.929 296.587 426.144 298.768 426.261C305.436 426.625 312.119 426.469 318.784 426.727C322.274 426.863 325.776 426.797 329.247 427.094C332.116 427.336 334.989 427.192 337.838 427.446C340.766 427.708 343.701 427.59 346.617 427.833C348.544 427.993 350.474 428.036 352.398 428.173C354.133 428.294 355.857 428.575 357.588 428.74C360.254 428.99 362.888 429.439 365.519 429.951C366.07 430.057 366.629 429.986 367.172 429.767C367.922 429.467 368.692 429.216 369.455 428.947C369.337 428.697 369.357 428.442 369.548 428.263C369.771 428.052 370.049 427.895 370.291 427.708C372.007 426.375 373.946 425.316 375.384 423.635C375.384 423.17 375.114 422.834 374.86 422.486C374.708 422.279 374.68 422.025 374.821 421.79C375.802 420.156 376.99 418.812 379.089 418.741C379.121 418.261 379.152 417.776 379.183 417.295C379.167 416.955 379.038 416.678 378.73 416.506C377.373 416.92 376.088 417.506 374.798 418.089C373.324 418.753 371.851 417.655 372.019 416.06C372.058 415.665 372.202 415.317 372.554 415.142C374.196 414.305 375.759 413.265 377.674 413.113L377.667 413.105Z" fill="#FFB689"/>
<path d="M299.995 366.665C300.59 366.34 300.797 365.726 301.082 365.179C302.649 362.197 304.225 359.219 305.757 356.217C308.708 350.436 311.667 344.659 314.559 338.847C315.857 336.24 317.881 334.489 320.547 333.5C322.247 332.867 324.041 332.66 325.878 333.015C327.852 333.395 329.732 333.977 331.534 334.892C333.09 335.681 334.336 336.768 335.208 338.257C336.392 340.278 337.174 342.459 337.041 344.827C336.912 347.133 336.42 349.369 335.509 351.53C334.121 354.825 332.394 357.917 330.357 360.845C330.002 361.357 329.619 361.853 329.517 362.498C329.677 362.623 329.838 362.744 329.998 362.869C333.281 361.048 336.154 358.734 338.491 355.779C338.835 355.345 339.261 354.982 339.652 354.587C340.406 352.613 341.309 350.698 341.821 348.626C342.802 344.644 342.943 340.649 342.482 336.576C341.95 331.913 340.676 327.418 339.55 322.896C337.42 314.317 335.177 305.769 332.949 297.213C332.687 296.2 332.253 295.227 331.897 294.238C328.266 295.106 324.635 295.978 321.004 296.838C313.621 298.592 306.234 300.347 298.846 302.098C296.607 302.63 294.363 303.142 292.124 303.662C292.124 304.971 292.088 306.285 292.342 307.582C292.413 307.946 292.417 308.329 292.425 308.7C292.597 315.005 292.831 321.309 292.976 327.618C293.116 333.613 293.073 339.613 293.363 345.601C293.492 348.271 293.437 350.96 293.886 353.625C294.285 355.986 294.891 358.253 295.946 360.399C296.079 360.669 296.114 360.989 296.192 361.286C296.716 361.751 296.904 362.428 297.275 362.99C298.112 364.265 298.69 365.73 299.988 366.668L299.995 366.665Z" fill="#8A8ADE"/>
<path d="M184.781 380.649C184.477 380.438 184.137 380.262 183.871 380.012C181.193 377.495 178.504 374.993 175.874 372.429C174.885 371.468 173.884 370.557 172.645 369.936C172.536 369.994 172.391 370.025 172.325 370.115C170.777 372.148 169.21 374.153 168.068 376.471C166.528 379.609 164.93 382.713 163.882 386.062C163.339 387.798 163.018 389.549 163.026 391.39C163.038 393.852 163.71 396.08 165.098 398.07C166.2 399.653 167.412 401.165 168.608 402.678C170.929 405.609 173.255 408.537 175.616 411.441C177.66 413.958 179.759 416.428 181.819 418.93C182.69 419.989 183.507 421.095 184.535 422.018C185.516 422.897 186.572 423.616 187.865 424.023C189.937 424.668 191.688 424.027 193.294 422.834C195.018 421.552 196.062 419.809 196.363 417.659C196.578 416.135 196.23 414.677 195.761 413.254C194.842 410.472 193.877 407.704 192.915 404.937C190.789 398.812 188.647 392.691 186.525 386.563C185.852 384.62 185.2 382.67 184.785 380.649H184.781Z" fill="#FFB78C"/>
<path d="M303.915 94.5085C304.095 94.4616 304.275 94.3756 304.458 94.3717C307.695 94.2857 310.931 94.1255 314.156 94.5476C315.387 94.7117 316.638 94.6414 317.869 94.9267C319.503 95.3019 321.164 95.556 322.813 95.8609C323.857 95.2199 324.416 94.1294 325.178 93.2343C326.511 91.6669 327.672 89.9745 328.598 88.1179C329.309 86.6913 329.602 85.1787 329.88 83.6504C329.946 83.2908 329.903 82.9 329.845 82.5365C329.493 80.4336 328.891 78.4481 327.734 76.6032C324.424 71.3227 321.215 65.9757 317.943 60.6718C316.438 58.2328 314.867 55.8329 313.343 53.4057C312.839 52.6005 312.209 51.9165 311.474 51.3302C308.598 49.0242 304.885 49.1336 302.039 50.9589C301.105 51.5608 300.249 52.2683 299.584 53.222C298.521 54.7424 298.213 56.4661 298.349 58.1976C298.545 60.6718 299.014 63.1264 299.385 65.5849C299.71 67.7385 300.053 69.8843 300.401 72.0341C300.812 74.5512 301.246 77.0644 301.66 79.5777C302.121 82.3997 302.567 85.2256 303.02 88.0515C303.137 88.7902 303.208 89.5407 303.399 90.2559C303.778 91.6552 303.61 93.1092 303.919 94.5124L303.915 94.5085Z" fill="#FFB78C"/>
<path d="M306.366 400.375C304.803 401.239 304.24 402.748 303.841 404.346C303.646 405.132 303.927 405.687 304.654 406.031C305.041 406.215 305.471 406.34 305.893 406.414C307.242 406.645 308.59 406.895 309.946 407.032C313.163 407.352 316.388 407.598 319.608 407.899C322.95 408.212 326.292 408.568 329.634 408.884C331.616 409.072 333.601 409.193 335.583 409.385C337.869 409.604 340.156 409.862 342.439 410.104C343.306 410.088 344.174 410.073 345.042 410.057C344.979 409.639 344.96 409.228 345.1 408.818C345.475 407.735 345.757 407.563 347.117 407.598L347.238 407.501C346.976 407.333 346.699 407.184 346.453 406.996C346.077 406.715 345.894 406.32 345.952 405.855C346.226 403.686 346.23 401.509 346.101 399.332C346.085 399.085 346.124 398.831 346.089 398.585C345.284 393.285 344.44 387.993 342.302 383.017C341.762 381.759 341.172 380.52 340.566 379.292C340.125 378.393 339.585 377.553 338.678 377.033C338.112 377.35 337.776 377.874 337.404 378.378C335.704 380.692 333.961 382.974 332.276 385.304C331.475 386.414 330.482 386.938 329.095 386.879C326.351 386.766 323.603 386.918 320.859 386.68C319.722 386.582 318.78 387.024 318.256 388.126C318.151 388.353 318.033 388.575 317.928 388.798C316.665 391.448 315.387 394.086 314.148 396.748C313.12 398.96 311.486 400.153 308.981 399.969C308.141 400.325 307.292 400.633 306.354 400.379L306.366 400.375Z" fill="#844414"/>
<path d="M292.131 303.658C294.371 303.138 296.614 302.622 298.854 302.095C306.241 300.343 313.625 298.592 321.012 296.834C324.643 295.97 328.274 295.098 331.905 294.234C331.925 291.432 331.518 288.668 331.209 285.889C331.045 284.412 330.967 282.923 330.772 281.441C330.486 279.292 330.283 277.13 330.06 274.969C329.896 273.362 329.771 271.756 329.595 270.15C329.415 268.484 329.196 266.827 329.005 265.162C328.821 263.56 328.638 261.957 328.489 260.351C328.43 259.729 328.415 259.108 328.075 258.553C327.101 259.358 326.429 260.421 325.636 261.379C321.02 266.956 316.31 272.448 311.573 277.924C305.319 285.155 298.686 292.018 291.924 298.76C291.709 298.975 291.549 299.245 291.361 299.491C291.518 300.723 291.662 301.958 291.838 303.185C291.862 303.353 292.026 303.498 292.123 303.654L292.131 303.658Z" fill="#FFB78A"/>
<path d="M308.993 399.963C311.498 400.146 313.132 398.954 314.16 396.742C315.399 394.084 316.677 391.442 317.94 388.792C318.045 388.565 318.162 388.346 318.268 388.12C318.792 387.018 319.734 386.576 320.871 386.674C323.615 386.912 326.363 386.76 329.107 386.873C330.494 386.932 331.487 386.408 332.288 385.298C333.973 382.972 335.716 380.69 337.416 378.372C337.787 377.867 338.124 377.34 338.69 377.027C338.44 374.377 338.159 371.731 337.956 369.081C337.862 367.85 337.803 366.603 338.053 365.372C338.128 365.008 338.182 364.633 338.178 364.266C338.147 361.385 338.792 358.61 339.503 355.85C339.613 355.424 339.757 355.022 339.664 354.576C339.273 354.971 338.847 355.338 338.503 355.768C336.162 358.723 333.293 361.037 330.005 362.858C330.162 364.363 329.689 365.661 328.821 366.884C328.032 367.998 327.348 369.19 326.628 370.359C324.604 373.646 322.587 376.933 320.562 380.22C319.226 382.394 317.893 384.571 316.544 386.736C315.129 389.007 313.828 391.348 312.288 393.545C311.213 395.073 310.189 396.64 309.419 398.356C309.188 398.872 308.923 399.369 308.993 399.959V399.963Z" fill="#FFB488"/>
<path d="M299.996 366.663C298.698 365.729 298.123 364.26 297.283 362.985C296.912 362.426 296.724 361.746 296.2 361.281C294.993 361.922 294.32 363.067 293.601 364.142C292.944 365.123 292.389 366.179 291.858 367.234C289.865 371.186 287.867 375.137 285.936 379.12C283.353 384.448 280.832 389.806 278.276 395.145C277.107 397.584 276.372 400.148 276.091 402.834C275.856 405.097 276.208 407.336 276.911 409.466C278.424 414.055 281 417.987 284.635 421.2C284.725 421.282 284.846 421.329 284.955 421.392C285.635 421.091 285.76 420.891 285.424 420.551C283.818 418.914 282.774 416.947 282.086 414.786C281.168 411.898 280.969 408.982 281.496 405.964C281.871 403.815 282.282 401.688 283.052 399.652C284.392 396.103 285.8 392.577 287.836 389.345C287.934 389.189 288.012 389.017 288.098 388.849C289.431 386.312 290.736 383.763 292.104 381.246C293.918 377.912 295.794 374.617 297.611 371.287C298.444 369.763 299.202 368.199 299.992 366.652L299.996 366.663Z" fill="#E9A47A"/>
<path d="M321.637 242.099C321 242.068 320.676 241.56 320.285 241.177C318.483 239.402 316.302 238.23 314.027 237.186C311.756 236.147 309.419 235.326 306.961 234.845C305.44 234.548 303.896 234.388 302.376 234.134C300.382 233.797 298.405 233.805 296.419 233.856C294.813 233.899 293.198 234.087 291.608 234.317C288.641 234.743 285.792 235.595 283.036 236.78C282.176 237.151 281.32 237.507 280.546 238.038C280.085 238.355 279.616 238.671 279.03 238.714C278.6 239.668 278.412 240.649 278.697 241.685C279.933 242.236 281.07 242.099 282.239 241.396C284.775 239.868 287.593 239.039 290.466 238.472C291.975 238.171 293.507 237.851 295.082 237.937C296.325 238.003 297.576 237.937 298.823 237.952C303.619 238.019 308.164 239.144 312.491 241.204C314.578 242.197 316.576 243.331 318.479 244.64C319.093 245.062 319.761 245.414 320.441 245.711C321.215 246.047 321.887 245.84 322.349 245.093C322.544 244.663 322.435 244.257 322.271 243.843C322.044 243.268 321.844 242.686 321.637 242.103V242.099Z" fill="#494A45"/>
<path d="M379.179 417.293C379.148 417.774 379.117 418.258 379.085 418.739C379.316 420.318 378.53 421.456 377.405 422.378C376.799 422.874 376.064 423.218 375.384 423.629C373.946 425.309 372.007 426.369 370.291 427.702C370.045 427.893 369.771 428.045 369.548 428.257C369.357 428.44 369.337 428.694 369.455 428.941C372.687 429.089 375.912 428.917 379.136 428.769C380.192 428.722 381.231 428.546 382.228 428.159C382.869 427.909 383.475 427.6 383.983 427.131C385.042 426.15 385.503 424.903 384.925 423.59C383.721 420.877 381.986 418.575 379.179 417.289V417.293Z" fill="#88471B"/>
<path d="M374.689 407.834C373 408.741 371.206 409.456 369.623 410.562C369.099 410.93 368.712 411.336 368.622 412.036C368.4 413.779 370.03 415.233 371.937 414.432C373.074 413.955 374.149 413.318 375.224 412.708C375.763 412.403 376.26 412.028 376.909 411.981C376.776 410.273 375.932 408.948 374.693 407.83L374.689 407.834Z" fill="#E9A47A"/>
<path d="M371.652 403.358C370.257 403.299 369.123 403.889 368.138 404.808C367.548 405.359 366.993 405.949 366.426 406.523C366.039 406.914 365.906 407.391 366.086 407.895C366.309 408.525 366.766 408.908 367.462 408.99C368.846 409.15 370.057 408.697 371.077 407.821C371.871 407.137 372.676 406.434 373.231 405.507C373.118 404.487 372.457 403.87 371.652 403.358Z" fill="#E9A47A"/>
<path d="M345.05 410.05C344.182 410.066 343.314 410.082 342.447 410.097C342.822 410.359 343.26 410.382 343.693 410.386C345.484 410.406 347.278 410.465 349.068 410.425C351.573 410.371 353.754 409.417 355.689 407.861C355.775 407.791 355.798 407.65 355.853 407.541C355.45 407.486 355.04 407.459 354.723 407.158C352.464 406.939 350.209 406.88 347.985 407.455C347.754 407.514 347.5 407.482 347.254 407.494C347.254 407.494 347.133 407.592 347.133 407.588C347.84 408.221 347.809 409.073 347.461 409.765C347.156 410.375 346.367 410.07 345.781 410.097C345.538 410.109 345.296 410.062 345.054 410.042L345.05 410.05Z" fill="#8B4E1F"/>
<path d="M377.667 413.105C375.755 413.258 374.192 414.302 372.546 415.134C372.195 415.314 372.05 415.658 372.011 416.053C371.847 417.647 373.32 418.749 374.79 418.081C376.08 417.499 377.366 416.912 378.722 416.498C378.824 415.615 378.519 414.79 378.323 413.954C378.237 413.586 377.995 413.297 377.659 413.102L377.667 413.105Z" fill="#E9A47A"/>
<path d="M354.716 407.16C355.032 407.461 355.443 407.489 355.845 407.543C355.857 407.453 355.857 407.367 355.857 407.278C355.49 407.106 355.11 407.055 354.716 407.16Z" fill="#E9A47A"/>
<path d="M308.993 399.96C308.923 399.37 309.188 398.869 309.419 398.357C310.185 396.642 311.213 395.074 312.288 393.546C313.832 391.353 315.129 389.012 316.544 386.737C317.893 384.572 319.226 382.395 320.562 380.222C322.583 376.934 324.604 373.643 326.629 370.36C327.348 369.195 328.032 368.003 328.821 366.885C329.689 365.662 330.162 364.364 330.006 362.86C329.845 362.735 329.685 362.613 329.525 362.488C329.099 362.766 328.786 363.145 328.505 363.567C326.613 366.424 324.651 369.235 322.822 372.131C320.527 375.762 318.338 379.459 316.099 383.126C314.641 385.518 313.191 387.918 311.706 390.294C310.154 392.776 308.586 395.246 306.984 397.697C306.437 398.533 306.3 399.417 306.366 400.37C307.304 400.624 308.153 400.312 308.993 399.96Z" fill="#EBA37A"/>
<path d="M375.384 423.632C376.06 423.218 376.795 422.877 377.405 422.381C378.531 421.455 379.316 420.317 379.086 418.742C376.987 418.813 375.799 420.157 374.818 421.791C374.677 422.021 374.708 422.279 374.857 422.487C375.115 422.838 375.38 423.175 375.38 423.636L375.384 423.632Z" fill="#EBA37A"/>
<path d="M345.049 410.049C345.292 410.068 345.534 410.115 345.776 410.103C346.362 410.072 347.152 410.381 347.457 409.771C347.801 409.075 347.836 408.227 347.129 407.594C345.764 407.559 345.483 407.727 345.108 408.814C344.967 409.224 344.987 409.634 345.049 410.053V410.049Z" fill="#643106"/>
</svg>
