<svg width="500" height="500" viewBox="0 0 500 500" fill="none" xmlns="http://www.w3.org/2000/svg">
<path d="M142.814 292.538C143.091 292.339 143.373 292.139 143.65 291.943C144.204 291.975 144.563 291.721 144.731 291.194C145.367 290.695 146.134 290.558 146.897 290.417C147.156 290.526 147.36 290.449 147.524 290.236C151.884 289.259 156.257 289.418 160.635 290.09C162.161 290.717 163.755 290.976 165.399 290.962C165.835 291.04 166.276 291.117 166.712 291.199C166.857 291.426 167.052 291.498 167.307 291.398C168.052 291.626 168.796 291.853 169.546 292.08C169.682 292.302 169.873 292.402 170.136 292.334C172.125 293.056 174.119 293.774 176.108 294.496C176.226 294.723 176.408 294.809 176.658 294.755C178.52 295.427 180.377 296.099 182.239 296.771C182.376 296.998 182.566 297.098 182.834 297.021C183.102 297.107 183.37 297.193 183.638 297.275C183.765 297.507 183.952 297.607 184.215 297.53C187.471 298.697 190.723 299.864 193.979 301.027C194.106 301.258 194.293 301.358 194.556 301.281C197.022 302.144 199.493 303.011 201.959 303.874C202.081 304.101 202.268 304.192 202.522 304.128C206.255 305.436 209.988 306.744 213.721 308.052C213.858 308.275 214.048 308.375 214.312 308.298C214.584 308.379 214.852 308.456 215.125 308.538C215.256 308.77 215.447 308.87 215.71 308.783C216.451 309.024 217.196 309.265 217.936 309.506C218.063 309.733 218.249 309.823 218.508 309.755C218.785 309.833 219.067 309.91 219.344 309.987C219.466 310.214 219.653 310.305 219.907 310.237C220.188 310.314 220.47 310.391 220.752 310.464C220.874 310.691 221.06 310.777 221.315 310.709C226.869 312.521 232.428 314.329 237.978 316.154C240.494 316.981 243.014 317.803 245.503 318.72C248.146 319.692 250.894 320.264 253.601 320.987C257.216 321.949 260.84 322.858 264.464 323.793C265.018 324.316 265.704 324.352 266.412 324.356C267.961 324.365 269.51 324.393 271.058 324.411C271.358 324.824 271.671 324.851 271.994 324.438C274.664 324.443 277.307 325.006 279.987 324.879C280.287 325.296 280.595 325.324 280.927 324.915C283.284 324.947 285.614 325.469 287.98 325.328C288.43 325.851 288.897 325.864 289.383 325.378C290.387 325.415 291.395 325.437 292.399 325.496C296.564 325.746 300.728 326.01 304.893 326.268C305.192 326.682 305.501 326.704 305.828 326.3C308.335 326.446 310.842 326.591 313.354 326.736C313.649 327.149 313.962 327.172 314.289 326.772C316.796 326.922 319.303 327.072 321.81 327.222C321.96 327.436 322.141 327.59 322.423 327.585C322.655 328.675 322.882 329.765 323.113 330.855C322.85 331.264 322.936 331.618 323.272 331.941C323.549 333.671 323.831 335.397 324.108 337.127C323.758 337.481 323.849 337.781 324.212 338.054C324.335 338.998 324.458 339.943 324.58 340.888C324.221 341.224 324.29 341.528 324.648 341.81C324.78 342.913 324.916 344.012 325.048 345.116C324.689 345.456 324.771 345.761 325.125 346.038C325.411 347.078 325.475 348.131 325.37 349.208C325.261 350.348 325.198 351.488 325.112 352.632C324.748 352.914 324.68 353.218 325.043 353.554C324.458 358.795 323.154 363.836 320.82 368.577C316.128 378.101 308.762 384.763 298.971 388.769C297.526 389.359 296.028 389.809 294.556 390.327C294.166 390.231 293.834 390.34 293.571 390.645C293.116 390.722 292.662 390.799 292.208 390.881C291.967 390.767 291.763 390.817 291.595 391.022C288.652 391.153 285.714 391.29 282.771 391.421C281.536 391.09 280.296 391.153 279.051 391.344C278.733 391.335 278.42 391.326 278.102 391.317C277.93 391.262 277.757 391.203 277.584 391.149C277.475 389.673 277.589 388.206 277.239 386.721C276.158 382.17 272.643 379.064 267.657 378.928C264.078 378.828 260.926 380.172 257.824 381.68C255.354 382.879 253.169 384.545 250.898 386.071C250.844 385.676 250.762 385.295 250.367 385.086C249.817 384.791 249.263 384.495 248.705 384.214C244.25 381.952 239.653 379.986 235.135 377.865C228.277 374.645 221.555 371.139 214.702 367.901C209.407 365.394 204.189 362.728 199.048 359.912C194.597 357.473 189.946 355.421 185.518 352.918C182.189 351.038 178.683 349.485 175.35 347.591C172.23 345.82 168.974 344.289 165.799 342.609C159.727 339.393 153.591 336.305 147.687 332.785C146.107 331.845 144.472 331.691 142.742 332.222C142.446 332.313 142.142 332.363 141.838 332.431C142.024 331.868 141.838 331.364 141.57 330.878C139.826 327.663 138.731 324.175 137.296 320.828C137.501 320.396 137.437 320.033 137.033 319.756C136.969 319.488 136.906 319.215 136.838 318.947C137.133 318.412 136.91 318.044 136.461 317.744C135.743 316.145 135.357 314.438 134.862 312.766C135.08 312.399 135.016 312.067 134.726 311.767C134.699 309.451 134.517 307.126 135.13 304.846C135.493 304.501 135.689 304.115 135.416 303.624C135.775 302.407 136.297 301.258 136.888 300.136C137.346 299.887 137.578 299.528 137.482 298.992C138.014 298.097 138.55 297.203 139.081 296.308C139.626 296.181 139.903 295.845 139.908 295.281C140.539 294.655 141.17 294.033 141.801 293.406C142.365 293.388 142.701 293.106 142.814 292.557V292.538Z" fill="#696D65"/>
<path d="M319.862 103.663C320.557 103.595 321.279 103.623 321.946 103.436C325.421 102.478 328.577 103.332 331.574 105.071C332.451 105.58 333.273 106.175 334.118 106.733C334.136 107.079 334.29 107.292 334.658 107.31C336.761 109.822 338.241 112.669 339.218 115.785C338.273 115.844 337.814 116.362 337.787 117.293C337.755 118.387 337.887 119.522 337.628 120.562C337.356 121.652 337.324 122.72 337.315 123.81C337.301 125.608 337.315 127.411 337.301 129.21C337.301 129.755 337.378 130.349 337.197 130.84C336.77 131.984 336.883 133.152 336.843 134.319C336.77 136.417 337.079 138.538 336.42 140.609C336.284 141.036 336.379 141.54 336.379 142.012C336.375 143.42 336.388 144.828 336.366 146.24C336.357 146.94 336.429 147.689 336.22 148.334C335.898 149.338 335.862 150.337 335.912 151.35C336.066 154.247 335.144 157.076 335.407 159.978C334.822 161.641 334.99 163.371 334.949 165.088C334.94 165.474 334.949 165.896 334.808 166.241C334.445 167.15 334.504 168.085 334.486 169.021C334.467 170.033 334.535 171.042 334.168 172.036C333.986 172.531 334.036 173.117 334.022 173.658C333.986 175.138 333.8 176.605 333.673 178.067C333.455 180.543 333.237 183.031 333.128 185.516C333.019 188.009 332.337 190.457 332.583 192.968C331.997 194.471 332.178 196.047 332.128 197.605C332.115 197.991 332.101 198.404 331.96 198.754C331.633 199.585 331.697 200.444 331.665 201.302C331.638 202.001 331.692 202.737 331.497 203.391C331.238 204.24 331.211 205.08 331.197 205.939C331.188 206.407 331.247 206.906 331.116 207.338C330.439 209.527 330.78 211.82 330.335 214.05C330.098 215.249 329.976 216.507 329.708 217.72C329.29 219.618 328.859 221.525 328.291 223.383C327.169 227.025 326.52 230.826 324.626 234.21C323.145 236.027 321.515 237.707 319.839 239.342C317.509 241.608 314.807 243.284 311.819 244.519C309.285 245.568 306.637 246.141 303.925 246.59C300.515 247.158 297.222 246.79 293.998 245.8C292.217 245.255 290.555 244.356 289.088 243.13C284.774 239.528 282.48 234.814 281.94 229.346C281.477 224.686 281.622 219.995 282.78 215.385C283.984 210.594 285.723 206.012 287.83 201.556C288.194 200.784 288.534 199.953 289.315 199.494C290.178 198.986 290.428 198.25 290.337 197.314C290.301 196.928 290.319 196.533 290.315 196.143C290.446 195.857 290.623 195.584 290.701 195.289C291.218 193.254 291.741 191.22 292.199 189.171C292.472 187.959 292.567 186.705 292.858 185.502C293.498 182.854 293.907 180.161 294.475 177.5C295.383 173.24 296.314 168.984 297.281 164.738C298.076 161.241 298.98 157.776 300.079 154.352C301.314 150.496 302.272 146.549 303.417 142.666C303.798 141.372 304.048 140.091 303.921 138.747C304.048 137.82 304.189 136.894 304.307 135.967C304.875 131.471 305.792 127.048 307.264 122.761C308.254 119.881 309.453 117.088 310.906 114.404C312.94 110.648 315.547 107.387 319.103 104.949C319.557 104.635 320.03 104.34 319.862 103.663Z" fill="#FFB68A"/>
<path d="M141.833 332.42C142.133 332.352 142.442 332.298 142.737 332.211C144.468 331.68 146.103 331.834 147.683 332.775C153.587 336.294 159.727 339.383 165.795 342.598C168.969 344.278 172.225 345.809 175.346 347.58C178.679 349.474 182.185 351.027 185.514 352.907C189.942 355.405 194.593 357.462 199.043 359.901C204.184 362.717 209.403 365.387 214.698 367.89C221.551 371.132 228.273 374.634 235.13 377.854C239.649 379.979 244.245 381.941 248.7 384.203C249.259 384.485 249.809 384.78 250.363 385.075C250.753 385.284 250.84 385.665 250.894 386.06C250.676 386.283 250.476 386.528 250.24 386.728C246.375 389.921 242.937 393.559 239.431 397.119C238.405 398.164 237.415 398.913 235.921 399.176C233.795 399.553 232.296 400.902 231.388 402.878C231.016 403.682 231.007 404.544 230.948 405.403C230.92 405.852 230.675 406.107 230.325 406.316C229.83 406.089 229.367 405.675 228.804 405.762C227.487 405.966 226.356 405.435 225.193 404.976C206.228 397.487 187.267 389.993 168.297 382.518C162.048 380.057 155.835 377.495 149.413 375.479C147.015 374.725 144.854 373.417 142.755 372.059C140.394 370.533 138.055 368.952 135.83 367.24C132.473 364.661 130.112 361.277 128.49 357.385C127.6 355.255 127.341 353.012 127.473 350.723C127.528 349.787 127.618 348.852 127.696 347.916C127.991 347.634 128.104 347.335 127.809 346.985C129.385 339.151 134.603 334.814 141.833 332.42Z" fill="#494A45"/>
<path d="M290.315 196.14C290.319 196.53 290.301 196.925 290.337 197.311C290.428 198.247 290.178 198.983 289.316 199.491C288.534 199.95 288.198 200.781 287.831 201.553C285.723 206.008 283.984 210.591 282.78 215.382C281.622 219.992 281.477 224.683 281.94 229.343C282.485 234.811 284.779 239.525 289.089 243.126C290.555 244.353 292.222 245.252 293.998 245.797C297.222 246.787 300.515 247.155 303.926 246.587C306.637 246.137 309.28 245.561 311.819 244.516C314.807 243.281 317.509 241.605 319.839 239.339C321.52 237.704 323.146 236.023 324.626 234.207C324.603 238.644 324.844 243.081 324.249 247.509C323.949 249.734 323.99 252.005 323.768 254.258C323.445 257.505 323.168 260.757 322.809 263.999C322.405 267.628 321.978 271.275 321.906 274.917C321.833 278.505 321.293 282.056 321.315 285.64C321.315 286.253 321.397 286.902 320.857 287.384C318.195 287.365 315.534 287.347 312.873 287.329C311.624 286.648 310.37 286.675 309.112 287.302C305.715 287.197 302.318 287.334 298.921 286.961C296.546 286.702 294.13 286.87 291.727 286.848C291.268 286.298 290.796 286.294 290.315 286.82C286.232 286.92 282.181 286.203 278.098 286.375C277.794 285.944 277.48 285.926 277.158 286.353C273.556 286.207 269.955 286.057 266.354 285.912C265.895 285.363 265.427 285.354 264.941 285.88C264.215 285.853 263.492 285.83 262.766 285.803C262.071 284.704 262.03 283.419 261.817 282.202C260.672 275.739 259.55 269.276 258.479 262.8C257.479 256.765 257.021 250.683 257.47 244.57C257.738 240.892 258.633 237.327 259.714 233.807C262.053 226.177 265.718 219.201 270.414 212.784C272.208 210.332 274.31 208.093 276.354 205.831C278.761 203.156 281.413 200.708 283.743 197.956C284.547 197.007 285.419 196.09 286.518 195.449C287.14 195.717 287.79 195.69 288.444 195.622C289.07 195.799 289.693 195.971 290.319 196.149L290.315 196.14Z" fill="#8A89DE"/>
<path d="M291.732 286.849C294.13 286.871 296.551 286.703 298.926 286.962C302.327 287.335 305.72 287.194 309.117 287.303C310.366 287.984 311.619 287.957 312.877 287.33C315.539 287.348 318.2 287.366 320.861 287.385C320.861 289.328 320.866 291.277 320.861 293.22C320.861 293.765 320.934 294.356 320.752 294.842C320.325 295.982 320.407 297.14 320.403 298.302C320.389 300.328 320.394 302.349 320.403 304.374C320.403 304.919 320.316 305.505 320.489 305.996C320.97 307.363 320.848 308.762 320.861 310.151C320.87 311.01 320.848 311.868 321.316 312.635C321.293 315.992 321.815 319.302 322.142 322.631C322.278 324.026 322.224 325.434 322.256 326.837C322.106 326.964 321.956 327.096 321.811 327.227C319.304 327.078 316.797 326.928 314.29 326.778C313.995 326.351 313.681 326.319 313.354 326.741C310.847 326.596 308.34 326.451 305.829 326.306C305.534 325.879 305.22 325.856 304.893 326.274C300.729 326.015 296.564 325.751 292.4 325.502C291.396 325.443 290.388 325.42 289.384 325.384C288.934 324.834 288.467 324.811 287.981 325.334C285.614 325.47 283.285 324.952 280.928 324.92C280.632 324.48 280.319 324.453 279.988 324.884C277.308 325.007 274.669 324.448 271.994 324.443C271.695 324.003 271.381 323.985 271.059 324.416C269.51 324.398 267.962 324.366 266.413 324.362C265.704 324.362 265.019 324.321 264.465 323.799C264.455 320.865 263.856 317.958 264.015 315.015C264.465 314.706 264.451 314.407 263.997 314.116C263.847 310.188 263.697 306.255 263.552 302.326C263.997 302.017 263.983 301.718 263.529 301.427C263.529 297.371 262.934 293.338 262.984 289.278C262.998 288.129 262.448 286.994 262.771 285.809C263.497 285.836 264.224 285.859 264.946 285.886C265.405 286.454 265.872 286.463 266.358 285.918C269.96 286.063 273.561 286.213 277.163 286.358C277.467 286.808 277.78 286.821 278.103 286.381C282.186 286.208 286.237 286.926 290.32 286.826C290.778 287.394 291.251 287.403 291.732 286.853V286.849Z" fill="#FFB68A"/>
<path d="M321.315 312.634C320.848 311.862 320.87 311.008 320.861 310.15C320.848 308.756 320.97 307.362 320.489 305.995C320.316 305.504 320.402 304.918 320.402 304.373C320.393 302.348 320.389 300.327 320.402 298.301C320.407 297.139 320.33 295.98 320.752 294.84C320.934 294.355 320.857 293.764 320.861 293.219C320.87 291.275 320.861 289.327 320.861 287.383C321.397 286.902 321.324 286.252 321.32 285.639C321.297 282.052 321.838 278.505 321.91 274.917C321.983 271.27 322.41 267.628 322.814 263.999C323.173 260.752 323.45 257.505 323.772 254.257C323.995 252.005 323.954 249.738 324.254 247.509C324.849 243.076 324.608 238.639 324.631 234.206C326.524 230.828 327.174 227.022 328.296 223.379C328.868 221.522 329.299 219.619 329.713 217.716C329.981 216.503 330.099 215.246 330.339 214.047C330.78 211.817 330.444 209.523 331.12 207.334C331.252 206.898 331.198 206.403 331.202 205.935C331.216 205.077 331.243 204.237 331.502 203.388C331.702 202.734 331.647 201.998 331.67 201.298C331.702 200.44 331.638 199.582 331.965 198.751C332.101 198.401 332.12 197.988 332.133 197.602C332.183 196.044 332.002 194.468 332.587 192.965C332.342 190.453 333.023 188.005 333.132 185.512C333.241 183.028 333.459 180.539 333.677 178.064C333.809 176.597 333.995 175.13 334.027 173.654C334.041 173.109 333.991 172.523 334.172 172.033C334.536 171.038 334.472 170.03 334.49 169.017C334.504 168.082 334.445 167.146 334.813 166.238C334.954 165.888 334.944 165.47 334.954 165.084C334.994 163.372 334.826 161.642 335.412 159.975C335.149 157.073 336.071 154.244 335.916 151.346C335.862 150.338 335.898 149.334 336.225 148.33C336.434 147.686 336.361 146.941 336.37 146.237C336.389 144.829 336.38 143.421 336.384 142.009C336.384 141.541 336.289 141.037 336.425 140.605C337.083 138.539 336.775 136.418 336.847 134.315C336.888 133.148 336.775 131.981 337.202 130.836C337.383 130.346 337.306 129.756 337.306 129.206C337.32 127.408 337.306 125.605 337.32 123.806C337.329 122.716 337.361 121.649 337.633 120.559C337.892 119.523 337.76 118.384 337.792 117.289C337.819 116.353 338.278 115.84 339.223 115.781C339.84 116.753 340.181 117.82 340.358 118.947C339.318 119.86 339.2 121.081 339.2 122.348C339.2 125.323 339.2 128.298 339.191 131.277C339.191 131.904 339.286 132.576 339.086 133.144C338.655 134.37 338.737 135.614 338.732 136.859C338.718 139.833 338.732 142.808 338.723 145.787C338.723 146.414 338.823 147.086 338.628 147.654C338.146 149.034 338.296 150.438 338.26 151.837C338.228 153.09 338.419 154.389 338.142 155.579C337.815 156.982 337.819 158.363 337.787 159.766C337.774 160.393 337.892 161.065 337.706 161.633C337.202 163.168 337.356 164.73 337.315 166.283C337.301 166.828 337.392 167.423 337.211 167.914C336.761 169.135 336.879 170.384 336.847 171.629C336.829 172.255 336.943 172.927 336.747 173.495C336.298 174.799 336.407 176.12 336.38 177.446C336.361 178.15 336.493 178.904 336.284 179.549C335.835 180.934 335.939 182.333 335.907 183.732C335.898 184.2 335.984 184.708 335.835 185.131C335.303 186.657 335.476 188.223 335.435 189.781C335.421 190.326 335.512 190.921 335.33 191.411C334.881 192.633 334.999 193.882 334.967 195.126C334.949 195.753 335.063 196.425 334.867 196.993C334.418 198.296 334.527 199.618 334.495 200.94C334.481 201.485 334.581 202.08 334.409 202.57C333.9 204.023 334.063 205.508 334.023 206.989C334.009 207.538 334.113 208.124 333.945 208.624C333.459 210.077 333.582 211.558 333.55 213.038C333.541 213.506 333.541 213.983 333.468 214.442C333.055 217.13 332.778 219.851 331.502 222.321C331.397 222.526 331.325 222.757 331.266 222.984C330.353 226.545 329.086 229.983 327.851 233.439C327.351 234.829 326.933 236.255 326.565 237.685C326.343 238.562 326.883 239.261 327.778 239.325C328.791 239.393 329.813 239.334 330.83 239.375C333.396 239.479 335.653 238.471 337.524 236.94C340.308 234.656 342.697 231.949 344.323 228.661C344.595 228.112 344.759 227.476 345.363 227.144C345.44 229.193 344.886 231.168 344.668 233.185C344.341 236.205 343.841 239.207 343.392 242.213C342.679 246.991 341.929 251.764 341.239 256.551C341.071 257.704 341.035 258.885 341.03 260.052C341.003 265.52 341.071 270.993 340.98 276.461C340.912 280.753 340.726 285.044 340.471 289.327C340.272 292.674 339.913 296.008 339.586 299.346C339.459 300.663 339.263 301.975 339.036 303.283C338.609 305.795 337.388 307.984 336.134 310.145C335.744 310.822 335.117 311.322 334.458 311.758C331.148 313.969 327.592 314.623 323.75 313.434C322.932 313.179 322.119 312.902 321.306 312.634H321.315Z" fill="#E6A47C"/>
<path d="M288.439 195.611C287.785 195.684 287.136 195.707 286.513 195.439C286.532 194.031 286.568 192.636 286.236 191.242C286.059 190.497 286.168 189.684 286.109 188.908C285.937 186.655 285.75 184.403 285.546 182.15C285.51 181.764 285.346 181.396 285.283 181.01C285.169 180.311 284.769 179.916 284.097 179.72C281.926 179.089 279.769 178.403 277.585 177.808C275.555 177.254 273.497 176.805 271.454 176.291C270.922 176.16 270.405 175.983 269.887 175.801C266.926 174.784 265.786 172.295 265.859 169.861C265.945 167.049 265.945 164.234 265.872 161.418C265.822 159.629 265.613 157.844 265.386 156.063C265.205 154.651 264.342 153.638 263.134 152.948C262.321 152.485 261.44 152.135 260.631 151.667C258.778 150.591 258.31 148.901 259.464 147.112C260.39 145.672 261.444 144.292 262.825 143.229C264.878 141.649 266.721 139.837 268.438 137.92C270.745 135.345 272.153 132.352 272.076 128.796C272.035 126.925 272.099 125.067 272.839 123.301C274.56 123.932 275.973 124.981 277.28 126.271C280.064 129.019 282.826 131.784 285.342 134.786C286.295 135.926 287.313 137.007 288.543 137.87C289.325 138.42 290.142 138.856 291.087 139.01C293.094 139.332 295.124 139.473 297.154 139.437C298.794 139.41 300.424 139.173 302.064 139.033C302.064 140.704 301.437 142.23 300.965 143.788C300.124 146.54 299.153 149.26 298.394 152.035C297.268 156.154 296.151 160.278 295.292 164.47C294.543 168.121 293.548 171.718 292.69 175.342C291.614 179.875 290.51 184.398 289.52 188.949C289.043 191.142 288.793 193.381 288.444 195.602L288.439 195.611Z" fill="#FFB68A"/>
<path d="M230.33 406.312C230.68 406.108 230.925 405.849 230.952 405.399C231.007 404.545 231.02 403.683 231.393 402.874C232.301 400.899 233.804 399.55 235.925 399.173C237.419 398.909 238.409 398.155 239.436 397.115C242.942 393.555 246.38 389.917 250.245 386.724C250.485 386.529 250.681 386.279 250.899 386.057C253.169 384.535 255.354 382.864 257.825 381.665C260.931 380.162 264.083 378.818 267.657 378.913C272.644 379.049 276.159 382.156 277.24 386.706C277.594 388.191 277.476 389.663 277.585 391.134C277.38 391.266 277.235 391.43 277.267 391.693C277.217 393.11 276.831 394.427 276.34 395.767C274.469 400.908 271.522 405.358 268.034 409.518C266.726 411.081 265.35 412.566 263.888 413.969C263.134 414.696 262.689 415.486 262.434 416.544C261.812 419.174 260.177 421.127 257.82 422.457C256.984 422.925 256.09 423.102 255.131 423.152C251.862 423.32 248.778 422.512 245.758 421.417C244.145 420.831 242.615 420.037 241.03 419.378C238.6 418.365 236.629 416.762 234.804 414.896C232.996 413.047 231.82 410.89 231.202 408.428C231.007 407.656 230.78 406.948 230.335 406.303L230.33 406.312Z" fill="#FFB68A"/>
<path d="M345.367 227.149C344.763 227.476 344.599 228.116 344.327 228.666C342.697 231.949 340.312 234.66 337.528 236.945C335.662 238.475 333.405 239.484 330.834 239.379C329.817 239.338 328.795 239.397 327.782 239.329C326.887 239.266 326.347 238.566 326.57 237.69C326.937 236.259 327.355 234.833 327.855 233.443C329.09 229.992 330.357 226.549 331.27 222.989C331.329 222.762 331.397 222.535 331.506 222.326C332.778 219.851 333.059 217.13 333.473 214.446C333.545 213.983 333.545 213.511 333.554 213.043C333.586 211.562 333.464 210.082 333.95 208.628C334.118 208.133 334.009 207.543 334.027 206.993C334.068 205.517 333.904 204.028 334.413 202.575C334.585 202.08 334.485 201.489 334.499 200.944C334.531 199.623 334.422 198.296 334.871 196.998C335.067 196.43 334.953 195.758 334.971 195.131C335.003 193.887 334.885 192.638 335.335 191.416C335.516 190.925 335.421 190.331 335.439 189.786C335.48 188.228 335.307 186.661 335.839 185.135C335.989 184.713 335.898 184.204 335.912 183.736C335.943 182.333 335.839 180.939 336.288 179.553C336.497 178.909 336.366 178.155 336.384 177.451C336.416 176.129 336.307 174.803 336.752 173.5C336.947 172.932 336.833 172.26 336.852 171.633C336.883 170.389 336.765 169.14 337.215 167.918C337.397 167.428 337.301 166.833 337.319 166.288C337.365 164.73 337.206 163.172 337.71 161.637C337.896 161.069 337.778 160.397 337.792 159.771C337.823 158.367 337.819 156.987 338.146 155.583C338.423 154.389 338.237 153.09 338.264 151.841C338.3 150.442 338.15 149.039 338.632 147.658C338.827 147.095 338.727 146.418 338.727 145.792C338.736 142.817 338.727 139.842 338.736 136.863C338.741 135.619 338.659 134.374 339.091 133.148C339.29 132.585 339.195 131.908 339.195 131.281C339.204 128.307 339.204 125.332 339.204 122.353C339.204 121.086 339.322 119.864 340.362 118.951C341.039 120.7 341.579 122.489 341.861 124.342C342.015 125.341 342.038 126.363 342.152 127.367C342.569 131.009 343.019 134.647 343.419 138.289C343.818 141.931 344.15 145.583 344.536 149.23C345.131 154.811 345.712 160.397 346.375 165.974C346.62 168.032 346.493 170.198 347.674 172.064C347.02 172.491 347.152 173.159 347.202 173.758C347.37 175.775 347.574 177.787 347.783 179.799C348.042 182.274 348.324 184.744 348.601 187.22C348.832 189.304 349.073 191.393 349.318 193.478C349.364 193.864 349.441 194.245 349.477 194.631C349.786 197.806 350.127 200.976 350.376 204.155C350.522 206.012 350.499 207.875 350.885 209.727C351.153 211.017 350.921 212.352 350.503 213.647C349.504 216.767 348.469 219.878 346.984 222.803C346.28 224.197 345.935 225.705 345.367 227.135V227.149Z" fill="#FFB68A"/>
<path d="M302.059 139.042C300.424 139.187 298.789 139.419 297.149 139.446C295.124 139.482 293.094 139.341 291.082 139.019C290.137 138.869 289.32 138.429 288.538 137.879C287.308 137.016 286.29 135.935 285.337 134.795C282.821 131.793 280.059 129.028 277.275 126.28C275.972 124.99 274.555 123.941 272.834 123.31C272.752 121.393 273.383 119.627 274.06 117.887C275.704 113.677 278.329 110.13 281.644 107.092C284.714 104.281 288.162 102.051 292.076 100.579C292.58 100.72 292.953 100.502 293.275 100.143C297.349 98.6129 301.559 98.4357 305.828 98.8581C306.114 99.1578 306.414 99.2532 306.759 98.9489C311.437 99.6483 315.77 101.311 319.852 103.663C320.02 104.34 319.548 104.635 319.094 104.948C315.533 107.383 312.927 110.643 310.896 114.404C309.448 117.083 308.244 119.881 307.254 122.76C305.783 127.052 304.861 131.471 304.298 135.967C304.18 136.893 304.043 137.82 303.912 138.746C303.303 138.901 302.635 138.687 302.054 139.042H302.059Z" fill="#894100"/>
<path d="M347.665 172.068C346.489 170.197 346.612 168.035 346.366 165.978C345.699 160.406 345.122 154.82 344.527 149.233C344.136 145.587 343.805 141.94 343.41 138.293C343.01 134.651 342.56 131.013 342.143 127.37C342.029 126.362 342.002 125.345 341.852 124.346C341.57 122.493 341.035 120.703 340.353 118.955C340.176 117.829 339.836 116.757 339.218 115.785C338.237 112.67 336.756 109.822 334.658 107.311C334.917 107.179 335.176 107.047 335.43 106.92C336.416 107.142 337.415 107.306 338.378 107.597C342.974 108.977 346.453 111.816 349.014 115.835C350.445 118.083 351.394 120.549 352.211 123.065C352.525 124.023 352.779 125.004 353.061 125.972C352.847 126.408 352.997 126.757 353.319 127.062C353.392 127.325 353.46 127.588 353.533 127.852C353.31 128.279 353.447 128.628 353.764 128.942C353.86 129.36 353.951 129.777 354.046 130.191C353.796 130.609 353.91 130.967 354.232 131.29C354.341 131.862 354.45 132.434 354.555 133.007C354.287 133.411 354.378 133.774 354.691 134.11C354.818 135.05 354.945 135.995 355.072 136.935C354.664 137.444 354.804 137.902 355.195 138.338C355.313 139.592 355.431 140.845 355.549 142.103C355.131 142.907 355.19 143.688 355.658 144.447C356.135 151.808 356.099 159.17 355.636 166.532C355.191 167.136 355.141 167.763 355.545 168.408C355.422 169.975 355.299 171.541 355.177 173.108C354.786 173.553 354.664 174.017 355.081 174.516C355.009 175.761 354.954 177.005 354.85 178.249C354.814 178.708 354.673 179.158 354.577 179.612C354.341 179.612 354.178 179.703 354.132 179.952C353.11 180.266 352.47 179.684 351.98 178.94C351.244 177.832 350.585 176.673 349.895 175.538C349.927 174.998 349.722 174.602 349.177 174.434C348.673 173.644 348.165 172.854 347.661 172.059L347.665 172.068Z" fill="#894100"/>
<path d="M165.4 290.957C163.756 290.975 162.162 290.717 160.636 290.085C162.298 289.981 163.897 290.194 165.4 290.957Z" fill="#696D65"/>
<path d="M355.663 144.453C355.195 143.69 355.136 142.909 355.554 142.109C356.004 142.872 355.99 143.658 355.663 144.453Z" fill="#894100"/>
<path d="M279.052 391.339C280.296 391.153 281.541 391.09 282.771 391.417C281.522 391.775 280.283 391.866 279.052 391.339Z" fill="#DFD2D0"/>
<path d="M355.549 168.411C355.15 167.766 355.195 167.139 355.64 166.535C355.981 167.18 355.963 167.807 355.549 168.411Z" fill="#894100"/>
<path d="M355.2 138.341C354.81 137.9 354.669 137.442 355.077 136.938C355.459 137.378 355.536 137.841 355.2 138.341Z" fill="#894100"/>
<path d="M335.435 106.92C335.176 107.051 334.922 107.183 334.663 107.31C334.295 107.292 334.136 107.079 334.123 106.734C334.599 106.525 335.04 106.561 335.44 106.92H335.435Z" fill="#894100"/>
<path d="M355.086 174.521C354.668 174.022 354.791 173.558 355.181 173.113C355.499 173.608 355.472 174.076 355.086 174.521Z" fill="#894100"/>
<path d="M306.764 98.9498C306.423 99.2586 306.119 99.1632 305.833 98.8589C306.174 98.5637 306.482 98.6001 306.764 98.9498Z" fill="#894100"/>
<path d="M293.28 100.144C292.958 100.503 292.585 100.721 292.081 100.58C292.349 100.072 292.771 99.9944 293.28 100.144Z" fill="#894100"/>
<path d="M353.329 127.061C353.002 126.756 352.856 126.407 353.07 125.971C353.474 126.257 353.619 126.607 353.329 127.061Z" fill="#894100"/>
<path d="M353.774 128.942C353.451 128.633 353.32 128.278 353.542 127.852C353.942 128.147 354.069 128.496 353.774 128.942Z" fill="#894100"/>
<path d="M354.242 131.288C353.919 130.966 353.806 130.607 354.055 130.189C354.414 130.507 354.546 130.862 354.242 131.288Z" fill="#894100"/>
<path d="M354.7 134.109C354.387 133.773 354.296 133.41 354.564 133.006C354.891 133.337 355.013 133.696 354.7 134.109Z" fill="#894100"/>
<path d="M349.182 174.443C349.727 174.616 349.927 175.007 349.899 175.547C349.382 175.361 349.173 174.97 349.182 174.443Z" fill="#894100"/>
<path d="M144.731 291.189C144.563 291.72 144.204 291.97 143.65 291.938C143.8 291.384 144.159 291.134 144.731 291.189Z" fill="#696D65"/>
<path d="M142.815 292.537C142.701 293.087 142.365 293.368 141.802 293.386C141.906 292.823 142.238 292.537 142.815 292.537Z" fill="#696D65"/>
<path d="M323.268 331.939C322.927 331.621 322.845 331.262 323.109 330.854C323.404 331.181 323.658 331.512 323.268 331.939Z" fill="#C4A5AD"/>
<path d="M137.487 298.973C137.583 299.509 137.351 299.872 136.892 300.117C136.729 299.549 136.952 299.177 137.487 298.973Z" fill="#696D65"/>
<path d="M325.044 353.553C324.681 353.217 324.753 352.912 325.112 352.631C325.457 352.967 325.394 353.271 325.044 353.553Z" fill="#C4A5AD"/>
<path d="M263.525 301.424C263.979 301.71 263.997 302.01 263.547 302.323C263.098 302.037 263.079 301.737 263.525 301.424Z" fill="#DFD2D0"/>
<path d="M135.421 303.605C135.693 304.1 135.498 304.482 135.135 304.827C134.826 304.323 135.021 303.942 135.421 303.605Z" fill="#696D65"/>
<path d="M324.208 338.048C323.84 337.78 323.754 337.475 324.103 337.121C324.453 337.394 324.539 337.693 324.208 338.048Z" fill="#C4A5AD"/>
<path d="M134.73 311.754C135.021 312.054 135.08 312.385 134.867 312.753C134.426 312.471 134.181 312.167 134.73 311.754Z" fill="#696D65"/>
<path d="M139.908 295.262C139.908 295.825 139.626 296.161 139.081 296.288C139.063 295.711 139.345 295.371 139.908 295.262Z" fill="#696D65"/>
<path d="M325.125 346.035C324.766 345.754 324.689 345.454 325.048 345.113C325.398 345.395 325.461 345.699 325.125 346.035Z" fill="#C4A5AD"/>
<path d="M127.814 346.984C128.109 347.334 127.995 347.638 127.7 347.915C127.346 347.557 127.419 347.252 127.814 346.984Z" fill="#494A45"/>
<path d="M324.649 341.807C324.29 341.525 324.222 341.221 324.581 340.885C324.926 341.171 324.985 341.475 324.649 341.807Z" fill="#C4A5AD"/>
<path d="M263.992 314.109C264.446 314.4 264.459 314.7 264.01 315.009C263.56 314.718 263.546 314.418 263.992 314.109Z" fill="#DFD2D0"/>
<path d="M136.461 317.727C136.911 318.026 137.138 318.394 136.838 318.93C136.429 318.617 136.22 318.244 136.461 317.727Z" fill="#696D65"/>
<path d="M137.033 319.742C137.437 320.024 137.5 320.387 137.296 320.814C136.951 320.519 136.606 320.224 137.033 319.742Z" fill="#696D65"/>
<path d="M321.806 327.225C321.956 327.093 322.106 326.966 322.251 326.834C322.305 327.084 322.36 327.334 322.414 327.588C322.137 327.588 321.951 327.438 321.801 327.225H321.806Z" fill="#C1997F"/>
<path d="M293.571 390.642C293.834 390.338 294.161 390.234 294.556 390.325C294.307 390.674 293.966 390.733 293.571 390.642Z" fill="#DFD2D0"/>
<path d="M277.271 391.703C277.24 391.44 277.385 391.276 277.589 391.145C277.762 391.199 277.935 391.258 278.107 391.313C277.903 391.599 277.58 391.644 277.271 391.703Z" fill="#DFD2D0"/>
<path d="M354.137 179.962C354.182 179.712 354.346 179.621 354.582 179.621C354.568 179.907 354.427 180.034 354.137 179.962Z" fill="#894100"/>
<path d="M147.524 290.232C147.36 290.445 147.156 290.522 146.897 290.413C147.065 290.204 147.274 290.145 147.524 290.232Z" fill="#696D65"/>
<path d="M182.83 297.018C182.566 297.096 182.376 296.991 182.235 296.769C182.494 296.709 182.694 296.791 182.83 297.018Z" fill="#696D65"/>
<path d="M184.215 297.529C183.952 297.601 183.766 297.506 183.639 297.274C183.898 297.215 184.088 297.297 184.215 297.529Z" fill="#696D65"/>
<path d="M194.556 301.28C194.293 301.358 194.107 301.258 193.979 301.026C194.238 300.963 194.429 301.049 194.556 301.28Z" fill="#C1997F"/>
<path d="M202.522 304.128C202.268 304.196 202.082 304.105 201.959 303.874C202.213 303.806 202.4 303.896 202.522 304.128Z" fill="#C1997F"/>
<path d="M215.71 308.788C215.447 308.874 215.256 308.774 215.125 308.542C215.379 308.479 215.574 308.561 215.71 308.788Z" fill="#C1997F"/>
<path d="M218.508 309.756C218.249 309.829 218.063 309.738 217.936 309.507C218.19 309.438 218.381 309.529 218.508 309.756Z" fill="#C1997F"/>
<path d="M219.907 310.235C219.653 310.303 219.467 310.212 219.344 309.985C219.599 309.917 219.785 310.008 219.907 310.235Z" fill="#C1997F"/>
<path d="M221.315 310.707C221.061 310.775 220.879 310.684 220.752 310.461C221.006 310.389 221.188 310.484 221.315 310.707Z" fill="#C1997F"/>
<path d="M214.312 308.297C214.049 308.375 213.858 308.275 213.722 308.052C213.981 307.989 214.176 308.07 214.312 308.297Z" fill="#C1997F"/>
<path d="M176.658 294.751C176.408 294.81 176.226 294.719 176.108 294.492C176.363 294.424 176.54 294.524 176.658 294.751Z" fill="#696D65"/>
<path d="M167.312 291.392C167.057 291.492 166.862 291.415 166.717 291.193C166.967 291.106 167.166 291.174 167.312 291.392Z" fill="#696D65"/>
<path d="M291.596 391.017C291.764 390.812 291.968 390.762 292.209 390.876C292.045 391.094 291.841 391.135 291.596 391.017Z" fill="#DFD2D0"/>
<path d="M170.137 292.329C169.873 292.398 169.683 292.298 169.546 292.075C169.805 292.016 170.001 292.098 170.137 292.329Z" fill="#696D65"/>
<path d="M287.976 325.332C288.462 324.81 288.934 324.833 289.379 325.382C288.893 325.868 288.426 325.855 287.976 325.332Z" fill="#C1997F"/>
<path d="M304.893 326.272C305.22 325.854 305.528 325.877 305.828 326.304C305.501 326.708 305.192 326.685 304.893 326.272Z" fill="#C1997F"/>
<path d="M313.354 326.738C313.681 326.316 313.994 326.348 314.289 326.775C313.962 327.174 313.649 327.152 313.354 326.738Z" fill="#C1997F"/>
<path d="M279.987 324.883C280.319 324.452 280.628 324.474 280.927 324.92C280.6 325.328 280.287 325.301 279.987 324.883Z" fill="#C1997F"/>
<path d="M271.059 324.41C271.386 323.978 271.694 324.001 271.994 324.437C271.667 324.85 271.358 324.823 271.059 324.41Z" fill="#C1997F"/>
<path d="M302.059 139.043C302.635 138.689 303.303 138.902 303.916 138.748C304.048 140.092 303.794 141.373 303.412 142.667C302.268 146.555 301.305 150.497 300.074 154.353C298.98 157.777 298.071 161.238 297.276 164.739C296.314 168.986 295.378 173.241 294.47 177.501C293.902 180.162 293.498 182.855 292.853 185.503C292.562 186.707 292.467 187.96 292.194 189.173C291.736 191.221 291.209 193.256 290.696 195.29C290.619 195.59 290.441 195.862 290.31 196.144C289.683 195.967 289.061 195.794 288.434 195.617C288.788 193.396 289.034 191.157 289.51 188.964C290.5 184.413 291.604 179.885 292.68 175.357C293.543 171.729 294.538 168.132 295.283 164.485C296.141 160.293 297.254 156.169 298.385 152.05C299.143 149.275 300.115 146.559 300.955 143.803C301.427 142.245 302.059 140.719 302.054 139.048L302.059 139.043Z" fill="#E7A47C"/>
<path d="M312.877 287.328C311.619 287.955 310.366 287.978 309.117 287.301C310.375 286.674 311.628 286.647 312.877 287.328Z" fill="#C4A5AD"/>
<path d="M266.358 285.912C265.877 286.452 265.404 286.443 264.946 285.88C265.427 285.353 265.9 285.362 266.358 285.912Z" fill="#C4A5AD"/>
<path d="M291.732 286.847C291.25 287.392 290.778 287.387 290.319 286.82C290.801 286.293 291.273 286.298 291.732 286.847Z" fill="#C4A5AD"/>
<path d="M278.102 286.374C277.78 286.819 277.462 286.801 277.162 286.351C277.485 285.925 277.798 285.938 278.102 286.374Z" fill="#C4A5AD"/>
<path d="M264.464 323.794L164.101 290.268C164.101 290.268 142.992 282.811 137.024 299.101C131.057 315.392 138.051 325.356 141.838 332.423" fill="#696E66"/>
<path d="M262.625 285.802L262.743 287.509L321.051 288.631L321.31 286.306L263.001 284.93L262.625 285.802Z" fill="#8A89DE"/>
</svg>
