<svg width="500" height="500" viewBox="0 0 500 500" fill="none" xmlns="http://www.w3.org/2000/svg">
<path d="M346.923 294.551C346.628 294.339 346.329 294.126 346.034 293.918C345.445 293.952 345.063 293.682 344.884 293.121C344.208 292.59 343.392 292.445 342.58 292.295C342.305 292.411 342.087 292.329 341.913 292.102C337.276 291.063 332.624 291.233 327.967 291.947C326.344 292.614 324.649 292.889 322.9 292.875C322.436 292.957 321.967 293.039 321.504 293.126C321.349 293.368 321.141 293.445 320.871 293.339C320.079 293.58 319.286 293.822 318.489 294.063C318.344 294.3 318.142 294.406 317.861 294.334C315.746 295.102 313.625 295.865 311.509 296.633C311.383 296.875 311.19 296.967 310.925 296.909C308.944 297.624 306.968 298.338 304.988 299.053C304.843 299.295 304.64 299.401 304.355 299.319C304.07 299.411 303.785 299.503 303.5 299.59C303.365 299.836 303.166 299.942 302.886 299.86C299.423 301.102 295.964 302.343 292.5 303.58C292.365 303.826 292.167 303.932 291.887 303.85C289.264 304.768 286.636 305.691 284.013 306.609C283.882 306.85 283.684 306.947 283.414 306.879C279.443 308.27 275.472 309.662 271.501 311.053C271.357 311.29 271.154 311.396 270.873 311.314C270.584 311.401 270.299 311.483 270.009 311.57C269.869 311.816 269.666 311.922 269.386 311.831C268.598 312.087 267.806 312.343 267.019 312.599C266.883 312.84 266.685 312.937 266.41 312.864C266.115 312.946 265.816 313.029 265.521 313.111C265.391 313.352 265.193 313.449 264.922 313.376C264.623 313.458 264.323 313.541 264.024 313.618C263.893 313.859 263.695 313.951 263.425 313.879C257.517 315.806 251.604 317.729 245.701 319.671C243.025 320.55 240.344 321.424 237.696 322.4C234.885 323.434 231.962 324.042 229.083 324.811C225.238 325.835 221.383 326.801 217.528 327.796C216.939 328.351 216.21 328.39 215.456 328.395C213.809 328.405 212.161 328.434 210.514 328.453C210.195 328.892 209.862 328.921 209.519 328.482C206.679 328.487 203.867 329.086 201.017 328.95C200.698 329.395 200.37 329.424 200.017 328.989C197.51 329.023 195.032 329.578 192.515 329.429C192.037 329.984 191.539 329.999 191.022 329.482C189.955 329.52 188.882 329.545 187.815 329.607C183.385 329.873 178.955 330.153 174.526 330.429C174.207 330.868 173.878 330.892 173.53 330.462C170.864 330.617 168.197 330.772 165.526 330.926C165.212 331.366 164.879 331.39 164.531 330.965C161.864 331.124 159.198 331.284 156.531 331.443C156.372 331.67 156.179 331.834 155.879 331.83C155.633 332.989 155.391 334.148 155.145 335.308C155.425 335.742 155.333 336.119 154.976 336.462C154.681 338.303 154.382 340.138 154.087 341.979C154.459 342.356 154.362 342.674 153.976 342.964C153.845 343.969 153.715 344.974 153.585 345.979C153.966 346.336 153.894 346.66 153.512 346.959C153.372 348.133 153.227 349.302 153.087 350.476C153.469 350.838 153.382 351.162 153.005 351.457C152.701 352.563 152.633 353.684 152.744 354.828C152.86 356.041 152.928 357.253 153.019 358.471C153.406 358.77 153.478 359.094 153.092 359.451C153.715 365.026 155.101 370.388 157.584 375.431C162.575 385.561 170.41 392.648 180.825 396.908C182.361 397.536 183.955 398.015 185.52 398.565C185.936 398.464 186.288 398.58 186.568 398.903C187.052 398.986 187.535 399.068 188.018 399.155C188.274 399.034 188.491 399.087 188.67 399.304C191.8 399.444 194.926 399.589 198.056 399.73C199.37 399.377 200.689 399.445 202.012 399.647C202.35 399.638 202.684 399.628 203.022 399.618C203.205 399.56 203.389 399.498 203.572 399.44C203.688 397.87 203.568 396.309 203.94 394.73C205.089 389.889 208.828 386.585 214.132 386.44C217.939 386.334 221.291 387.764 224.591 389.368C227.219 390.643 229.542 392.416 231.957 394.039C232.015 393.619 232.102 393.213 232.523 392.991C233.107 392.677 233.697 392.363 234.291 392.063C239.03 389.658 243.918 387.566 248.725 385.31C256.019 381.885 263.168 378.156 270.458 374.711C276.091 372.045 281.641 369.209 287.109 366.214C291.843 363.62 296.79 361.437 301.5 358.775C305.041 356.775 308.77 355.123 312.316 353.109C315.634 351.225 319.098 349.597 322.475 347.809C328.933 344.389 335.46 341.104 341.739 337.361C343.421 336.361 345.16 336.196 347 336.762C347.314 336.858 347.638 336.911 347.961 336.984C347.763 336.385 347.961 335.849 348.246 335.332C350.101 331.912 351.266 328.202 352.792 324.642C352.575 324.183 352.642 323.796 353.072 323.501C353.14 323.216 353.207 322.927 353.28 322.642C352.966 322.072 353.203 321.68 353.681 321.361C354.444 319.661 354.855 317.845 355.381 316.067C355.149 315.676 355.217 315.323 355.526 315.004C355.555 312.541 355.748 310.067 355.096 307.642C354.71 307.275 354.502 306.865 354.792 306.343C354.41 305.048 353.855 303.826 353.227 302.633C352.739 302.367 352.493 301.986 352.594 301.416C352.029 300.464 351.459 299.512 350.894 298.561C350.314 298.425 350.019 298.068 350.014 297.469C349.343 296.802 348.671 296.141 348 295.474C347.401 295.455 347.044 295.155 346.923 294.571V294.551Z" fill="#696D65"/>
<path d="M158.604 93.6505C157.865 93.5781 157.097 93.6071 156.387 93.409C152.692 92.3897 149.334 93.2979 146.146 95.148C145.214 95.6891 144.339 96.3219 143.441 96.9161C143.421 97.2832 143.257 97.5102 142.866 97.5296C140.629 100.201 139.055 103.23 138.016 106.544C139.021 106.606 139.509 107.157 139.538 108.147C139.571 109.312 139.431 110.519 139.707 111.625C139.997 112.785 140.03 113.92 140.04 115.079C140.055 116.992 140.04 118.91 140.055 120.823C140.055 121.403 139.972 122.036 140.166 122.557C140.62 123.775 140.499 125.016 140.542 126.258C140.62 128.489 140.291 130.745 140.992 132.948C141.137 133.402 141.035 133.938 141.035 134.441C141.04 135.938 141.025 137.436 141.05 138.938C141.059 139.682 140.982 140.479 141.204 141.165C141.547 142.233 141.586 143.295 141.533 144.373C141.368 147.455 142.349 150.464 142.069 153.551C142.692 155.319 142.513 157.159 142.557 158.985C142.566 159.396 142.557 159.845 142.707 160.212C143.093 161.179 143.03 162.174 143.05 163.169C143.069 164.246 142.996 165.318 143.388 166.376C143.581 166.903 143.528 167.526 143.542 168.101C143.581 169.676 143.779 171.236 143.914 172.791C144.146 175.424 144.378 178.071 144.494 180.714C144.61 183.366 145.334 185.97 145.074 188.641C145.697 190.24 145.504 191.916 145.557 193.573C145.571 193.984 145.586 194.423 145.735 194.795C146.083 195.679 146.016 196.592 146.049 197.505C146.078 198.249 146.02 199.032 146.228 199.727C146.503 200.631 146.532 201.524 146.547 202.437C146.557 202.935 146.494 203.466 146.634 203.925C147.354 206.254 146.991 208.693 147.465 211.065C147.716 212.34 147.846 213.678 148.131 214.968C148.576 216.987 149.035 219.016 149.639 220.992C150.832 224.866 151.523 228.909 153.537 232.508C155.112 234.441 156.846 236.228 158.628 237.967C161.107 240.377 163.981 242.16 167.159 243.474C169.855 244.59 172.671 245.198 175.555 245.677C179.183 246.281 182.685 245.889 186.115 244.836C188.009 244.257 189.777 243.3 191.337 241.996C195.926 238.165 198.366 233.151 198.94 227.335C199.433 222.378 199.279 217.388 198.047 212.485C196.767 207.389 194.917 202.515 192.675 197.776C192.289 196.955 191.926 196.071 191.095 195.583C190.178 195.042 189.912 194.259 190.009 193.264C190.047 192.853 190.028 192.433 190.033 192.018C189.893 191.713 189.704 191.423 189.622 191.109C189.071 188.945 188.516 186.781 188.028 184.602C187.738 183.313 187.637 181.979 187.328 180.699C186.646 177.883 186.212 175.018 185.608 172.188C184.642 167.656 183.651 163.13 182.622 158.613C181.777 154.894 180.816 151.208 179.647 147.566C178.333 143.464 177.314 139.267 176.096 135.136C175.69 133.76 175.425 132.397 175.56 130.968C175.425 129.982 175.275 128.997 175.149 128.011C174.546 123.229 173.57 118.524 172.005 113.964C170.952 110.901 169.676 107.93 168.13 105.075C165.966 101.08 163.193 97.6117 159.411 95.0176C158.928 94.6843 158.426 94.3703 158.604 93.6505Z" fill="#FFB68A"/>
<path d="M347.967 336.972C347.648 336.9 347.319 336.842 347.005 336.75C345.165 336.185 343.426 336.349 341.745 337.349C335.465 341.093 328.934 344.378 322.48 347.798C319.103 349.585 315.64 351.213 312.321 353.097C308.775 355.112 305.046 356.764 301.505 358.764C296.795 361.42 291.849 363.609 287.114 366.203C281.646 369.198 276.096 372.038 270.463 374.7C263.174 378.149 256.024 381.874 248.73 385.299C243.923 387.559 239.035 389.646 234.296 392.052C233.702 392.351 233.117 392.665 232.528 392.979C232.112 393.202 232.021 393.607 231.963 394.028C232.195 394.264 232.407 394.525 232.658 394.738C236.769 398.134 240.426 402.003 244.155 405.79C245.247 406.901 246.3 407.698 247.889 407.979C250.15 408.38 251.744 409.814 252.71 411.916C253.107 412.771 253.116 413.688 253.179 414.601C253.208 415.08 253.469 415.35 253.841 415.572C254.367 415.331 254.86 414.891 255.459 414.983C256.86 415.2 258.063 414.635 259.299 414.147C279.472 406.182 299.64 398.211 319.818 390.26C326.465 387.641 333.074 384.917 339.904 382.772C342.455 381.97 344.754 380.579 346.986 379.135C349.498 377.511 351.986 375.83 354.353 374.009C357.923 371.265 360.434 367.667 362.159 363.527C363.106 361.261 363.381 358.875 363.241 356.44C363.183 355.445 363.087 354.45 363.004 353.455C362.69 353.155 362.57 352.836 362.884 352.464C361.207 344.132 355.657 339.518 347.967 336.972Z" fill="#494A45"/>
<path d="M190.033 192.015C190.028 192.431 190.047 192.851 190.009 193.262C189.912 194.257 190.178 195.039 191.096 195.581C191.927 196.068 192.284 196.952 192.675 197.774C194.917 202.513 196.767 207.387 198.047 212.483C199.279 217.386 199.433 222.376 198.941 227.333C198.361 233.149 195.922 238.163 191.337 241.994C189.777 243.298 188.004 244.254 186.115 244.834C182.685 245.887 179.183 246.278 175.555 245.675C172.671 245.196 169.86 244.583 167.16 243.472C163.981 242.158 161.107 240.375 158.629 237.965C156.841 236.226 155.112 234.438 153.537 232.506C153.561 237.226 153.305 241.945 153.938 246.655C154.257 249.022 154.213 251.438 154.45 253.834C154.793 257.288 155.088 260.746 155.469 264.195C155.899 268.055 156.353 271.934 156.431 275.808C156.508 279.625 157.083 283.402 157.059 287.214C157.059 287.866 156.972 288.557 157.547 289.069C160.377 289.049 163.208 289.03 166.039 289.011C167.367 288.286 168.701 288.315 170.039 288.982C173.652 288.871 177.265 289.015 180.879 288.619C183.405 288.344 185.975 288.523 188.531 288.499C189.018 287.914 189.521 287.909 190.033 288.47C194.376 288.576 198.685 287.813 203.027 287.996C203.351 287.537 203.684 287.518 204.027 287.972C207.858 287.817 211.689 287.658 215.52 287.503C216.007 286.919 216.505 286.909 217.022 287.47C217.795 287.441 218.563 287.417 219.336 287.388C220.075 286.219 220.118 284.851 220.345 283.557C221.563 276.683 222.756 269.809 223.896 262.92C224.959 256.5 225.447 250.032 224.968 243.53C224.683 239.617 223.732 235.825 222.582 232.081C220.094 223.966 216.196 216.546 211.201 209.72C209.293 207.111 207.056 204.73 204.882 202.324C202.322 199.479 199.501 196.875 197.023 193.948C196.168 192.938 195.24 191.962 194.071 191.281C193.41 191.566 192.719 191.537 192.023 191.465C191.357 191.653 190.695 191.837 190.028 192.025L190.033 192.015Z" fill="#8A89DE"/>
<path d="M188.525 288.501C185.975 288.525 183.4 288.346 180.873 288.622C177.255 289.018 173.647 288.868 170.033 288.984C168.705 289.708 167.372 289.679 166.034 289.013C163.203 289.032 160.372 289.051 157.541 289.071C157.541 291.138 157.536 293.211 157.541 295.278C157.541 295.858 157.464 296.486 157.657 297.003C158.111 298.215 158.024 299.447 158.029 300.684C158.044 302.838 158.039 304.988 158.029 307.142C158.029 307.722 158.121 308.345 157.937 308.867C157.425 310.321 157.556 311.809 157.541 313.287C157.532 314.2 157.556 315.113 157.058 315.929C157.082 319.499 156.527 323.021 156.179 326.562C156.034 328.045 156.092 329.542 156.058 331.035C156.218 331.17 156.377 331.31 156.532 331.45C159.198 331.291 161.865 331.131 164.531 330.972C164.845 330.518 165.179 330.484 165.526 330.933C168.193 330.779 170.859 330.624 173.531 330.47C173.845 330.016 174.178 329.991 174.526 330.436C178.956 330.161 183.385 329.88 187.815 329.615C188.883 329.552 189.955 329.528 191.023 329.489C191.501 328.905 191.998 328.88 192.515 329.436C195.032 329.581 197.51 329.03 200.017 328.996C200.331 328.528 200.665 328.499 201.017 328.958C203.867 329.088 206.674 328.494 209.519 328.489C209.838 328.021 210.171 328.001 210.514 328.46C212.162 328.441 213.809 328.407 215.456 328.402C216.21 328.402 216.939 328.359 217.529 327.803C217.538 324.683 218.176 321.591 218.007 318.461C217.529 318.132 217.543 317.813 218.026 317.504C218.186 313.326 218.345 309.142 218.5 304.964C218.026 304.635 218.041 304.316 218.524 304.007C218.524 299.693 219.157 295.404 219.103 291.085C219.089 289.863 219.673 288.655 219.33 287.395C218.558 287.424 217.785 287.448 217.017 287.477C216.529 288.081 216.031 288.09 215.514 287.51C211.683 287.665 207.853 287.824 204.022 287.979C203.698 288.457 203.365 288.472 203.022 288.003C198.679 287.82 194.37 288.583 190.028 288.477C189.54 289.08 189.037 289.09 188.525 288.506V288.501Z" fill="#FFB68A"/>
<path d="M157.058 315.927C157.556 315.105 157.532 314.197 157.541 313.284C157.556 311.801 157.425 310.318 157.938 308.864C158.121 308.342 158.029 307.719 158.029 307.14C158.039 304.985 158.044 302.836 158.029 300.681C158.024 299.444 158.107 298.213 157.657 297C157.464 296.483 157.546 295.855 157.541 295.276C157.532 293.208 157.541 291.136 157.541 289.068C156.971 288.556 157.049 287.865 157.053 287.213C157.078 283.397 156.503 279.624 156.426 275.808C156.348 271.929 155.894 268.055 155.464 264.195C155.083 260.741 154.788 257.287 154.445 253.833C154.208 251.437 154.252 249.027 153.933 246.655C153.3 241.94 153.556 237.22 153.532 232.506C151.518 228.912 150.827 224.864 149.634 220.989C149.025 219.014 148.566 216.99 148.126 214.966C147.841 213.676 147.716 212.338 147.46 211.062C146.991 208.69 147.349 206.251 146.629 203.923C146.489 203.459 146.547 202.932 146.542 202.435C146.527 201.522 146.498 200.628 146.223 199.725C146.011 199.029 146.069 198.247 146.044 197.503C146.011 196.59 146.078 195.677 145.73 194.793C145.585 194.421 145.566 193.981 145.552 193.57C145.499 191.914 145.692 190.237 145.069 188.638C145.329 185.967 144.605 183.363 144.489 180.711C144.373 178.069 144.141 175.422 143.909 172.789C143.769 171.229 143.571 169.668 143.537 168.098C143.523 167.519 143.576 166.895 143.383 166.374C142.996 165.316 143.064 164.243 143.045 163.166C143.03 162.171 143.093 161.176 142.702 160.21C142.552 159.838 142.561 159.393 142.552 158.983C142.508 157.162 142.687 155.321 142.064 153.548C142.344 150.462 141.363 147.452 141.528 144.37C141.586 143.298 141.547 142.23 141.199 141.162C140.977 140.477 141.054 139.684 141.045 138.936C141.025 137.438 141.035 135.941 141.03 134.438C141.03 133.941 141.132 133.404 140.987 132.945C140.286 130.748 140.615 128.492 140.537 126.255C140.494 125.014 140.615 123.772 140.161 122.555C139.967 122.033 140.05 121.405 140.05 120.82C140.035 118.908 140.05 116.99 140.035 115.077C140.025 113.917 139.992 112.782 139.702 111.623C139.426 110.521 139.566 109.309 139.533 108.145C139.504 107.15 139.016 106.604 138.011 106.541C137.354 107.575 136.992 108.71 136.803 109.908C137.91 110.879 138.035 112.178 138.035 113.526C138.035 116.69 138.035 119.854 138.045 123.023C138.045 123.69 137.943 124.405 138.156 125.009C138.615 126.313 138.528 127.637 138.533 128.96C138.547 132.124 138.533 135.288 138.542 138.457C138.542 139.124 138.436 139.839 138.644 140.443C139.156 141.911 138.996 143.404 139.035 144.892C139.069 146.225 138.866 147.607 139.161 148.872C139.508 150.365 139.504 151.833 139.537 153.326C139.552 153.993 139.426 154.708 139.624 155.312C140.161 156.944 139.996 158.606 140.04 160.258C140.054 160.838 139.958 161.471 140.151 161.992C140.629 163.292 140.504 164.62 140.537 165.944C140.557 166.61 140.436 167.325 140.644 167.929C141.122 169.316 141.006 170.721 141.035 172.132C141.054 172.881 140.914 173.683 141.136 174.369C141.615 175.842 141.504 177.33 141.537 178.818C141.547 179.315 141.455 179.856 141.615 180.305C142.18 181.929 141.996 183.595 142.04 185.252C142.054 185.832 141.958 186.465 142.151 186.986C142.629 188.286 142.504 189.614 142.537 190.938C142.557 191.604 142.436 192.319 142.644 192.923C143.122 194.31 143.006 195.715 143.04 197.121C143.054 197.701 142.948 198.334 143.131 198.855C143.673 200.401 143.499 201.981 143.542 203.555C143.557 204.14 143.445 204.763 143.624 205.295C144.141 206.84 144.011 208.415 144.044 209.99C144.054 210.487 144.054 210.995 144.131 211.483C144.571 214.342 144.866 217.236 146.223 219.864C146.334 220.081 146.412 220.328 146.474 220.569C147.445 224.356 148.793 228.013 150.107 231.689C150.638 233.168 151.083 234.684 151.474 236.206C151.711 237.138 151.136 237.882 150.184 237.95C149.107 238.022 148.02 237.96 146.938 238.003C144.209 238.114 141.808 237.042 139.818 235.414C136.856 232.984 134.316 230.105 132.586 226.607C132.296 226.023 132.122 225.347 131.48 224.994C131.398 227.173 131.987 229.274 132.219 231.419C132.567 234.631 133.098 237.824 133.576 241.022C134.335 246.104 135.132 251.181 135.866 256.273C136.045 257.5 136.084 258.756 136.088 259.997C136.117 265.813 136.045 271.634 136.142 277.45C136.214 282.015 136.412 286.58 136.683 291.136C136.895 294.696 137.277 298.242 137.625 301.792C137.76 303.193 137.968 304.589 138.209 305.98C138.663 308.652 139.963 310.98 141.296 313.279C141.711 313.999 142.378 314.531 143.078 314.994C146.6 317.347 150.382 318.042 154.469 316.777C155.339 316.506 156.203 316.212 157.068 315.927H157.058Z" fill="#E6A47C"/>
<path d="M192.028 191.455C192.724 191.532 193.414 191.556 194.076 191.271C194.057 189.774 194.018 188.291 194.371 186.808C194.559 186.016 194.443 185.151 194.506 184.325C194.69 181.929 194.888 179.533 195.105 177.137C195.144 176.726 195.318 176.335 195.385 175.924C195.506 175.18 195.931 174.76 196.646 174.553C198.955 173.881 201.25 173.152 203.573 172.519C205.733 171.929 207.921 171.451 210.095 170.905C210.66 170.765 211.211 170.577 211.761 170.384C214.911 169.302 216.123 166.654 216.046 164.065C215.954 161.075 215.954 158.08 216.032 155.085C216.085 153.182 216.307 151.283 216.548 149.39C216.742 147.887 217.659 146.81 218.944 146.076C219.809 145.583 220.746 145.211 221.606 144.713C223.577 143.569 224.075 141.772 222.848 139.868C221.862 138.337 220.741 136.868 219.273 135.738C217.09 134.057 215.128 132.13 213.302 130.091C210.848 127.352 209.351 124.169 209.433 120.386C209.476 118.396 209.409 116.42 208.621 114.541C206.79 115.212 205.288 116.328 203.897 117.7C200.936 120.623 197.999 123.565 195.322 126.758C194.308 127.97 193.226 129.12 191.917 130.038C191.086 130.622 190.216 131.086 189.212 131.25C187.076 131.593 184.917 131.743 182.758 131.704C181.014 131.675 179.28 131.424 177.536 131.274C177.536 133.052 178.203 134.675 178.705 136.332C179.599 139.26 180.632 142.153 181.439 145.105C182.637 149.486 183.825 153.872 184.738 158.331C185.536 162.215 186.593 166.041 187.506 169.896C188.651 174.717 189.825 179.528 190.878 184.368C191.385 186.702 191.651 189.083 192.023 191.445L192.028 191.455Z" fill="#FFB68A"/>
<path d="M253.836 415.568C253.464 415.351 253.204 415.076 253.175 414.598C253.117 413.689 253.102 412.772 252.706 411.912C251.74 409.81 250.141 408.376 247.885 407.975C246.296 407.694 245.243 406.893 244.151 405.786C240.422 401.999 236.765 398.13 232.654 394.734C232.398 394.526 232.19 394.26 231.958 394.024C229.543 392.405 227.219 390.628 224.591 389.352C221.287 387.753 217.935 386.324 214.133 386.425C208.829 386.57 205.09 389.874 203.94 394.714C203.564 396.294 203.689 397.859 203.573 399.424C203.791 399.564 203.945 399.738 203.911 400.019C203.965 401.526 204.375 402.927 204.897 404.352C206.887 409.82 210.022 414.554 213.732 418.979C215.123 420.641 216.587 422.22 218.143 423.713C218.944 424.486 219.418 425.326 219.688 426.452C220.35 429.249 222.089 431.326 224.596 432.742C225.485 433.239 226.437 433.427 227.456 433.481C230.934 433.659 234.214 432.8 237.427 431.635C239.141 431.012 240.769 430.167 242.455 429.466C245.04 428.389 247.136 426.684 249.078 424.698C251.001 422.732 252.252 420.438 252.909 417.82C253.117 416.998 253.358 416.245 253.832 415.559L253.836 415.568Z" fill="#FFB68A"/>
<path d="M131.476 224.998C132.118 225.346 132.292 226.027 132.582 226.612C134.316 230.104 136.852 232.988 139.813 235.418C141.799 237.046 144.2 238.118 146.934 238.007C148.016 237.964 149.103 238.026 150.18 237.954C151.132 237.886 151.706 237.142 151.47 236.21C151.078 234.688 150.634 233.172 150.103 231.693C148.789 228.022 147.441 224.36 146.47 220.573C146.407 220.332 146.335 220.09 146.219 219.868C144.866 217.235 144.567 214.342 144.127 211.487C144.05 210.994 144.05 210.492 144.04 209.994C144.006 208.419 144.137 206.844 143.62 205.299C143.441 204.772 143.557 204.144 143.538 203.56C143.494 201.99 143.668 200.405 143.127 198.859C142.944 198.333 143.05 197.705 143.035 197.125C143.002 195.719 143.118 194.309 142.639 192.927C142.432 192.323 142.552 191.608 142.533 190.942C142.499 189.618 142.625 188.29 142.147 186.99C141.953 186.469 142.055 185.836 142.035 185.256C141.992 183.599 142.176 181.933 141.61 180.31C141.451 179.86 141.548 179.319 141.533 178.822C141.499 177.329 141.61 175.846 141.132 174.373C140.91 173.687 141.05 172.885 141.031 172.136C140.997 170.73 141.113 169.32 140.639 167.933C140.432 167.33 140.552 166.615 140.533 165.948C140.499 164.624 140.625 163.296 140.147 161.996C139.953 161.475 140.055 160.842 140.036 160.262C139.987 158.605 140.156 156.948 139.62 155.316C139.422 154.712 139.548 153.997 139.533 153.33C139.499 151.838 139.504 150.369 139.156 148.876C138.862 147.606 139.06 146.224 139.031 144.896C138.992 143.408 139.152 141.915 138.639 140.447C138.432 139.848 138.538 139.128 138.538 138.461C138.528 135.297 138.538 132.133 138.528 128.964C138.524 127.641 138.61 126.317 138.152 125.013C137.939 124.414 138.04 123.694 138.04 123.027C138.031 119.863 138.031 116.699 138.031 113.53C138.031 112.183 137.905 110.883 136.799 109.912C136.079 111.772 135.504 113.675 135.205 115.646C135.041 116.709 135.016 117.796 134.896 118.863C134.451 122.738 133.973 126.607 133.548 130.481C133.123 134.355 132.77 138.239 132.36 142.118C131.727 148.055 131.108 153.997 130.403 159.929C130.142 162.117 130.278 164.421 129.022 166.407C129.717 166.861 129.577 167.571 129.524 168.209C129.345 170.354 129.128 172.494 128.906 174.633C128.63 177.266 128.331 179.894 128.036 182.527C127.79 184.744 127.534 186.966 127.273 189.183C127.225 189.594 127.142 190 127.104 190.41C126.775 193.787 126.413 197.159 126.147 200.54C125.993 202.516 126.017 204.497 125.606 206.468C125.321 207.84 125.568 209.26 126.012 210.637C127.075 213.955 128.176 217.264 129.756 220.375C130.505 221.858 130.872 223.462 131.476 224.984V224.998Z" fill="#FFB68A"/>
<path d="M177.541 131.282C179.28 131.437 181.019 131.683 182.763 131.712C184.918 131.751 187.077 131.601 189.217 131.258C190.222 131.099 191.091 130.63 191.922 130.046C193.231 129.128 194.313 127.978 195.328 126.766C198.004 123.573 200.941 120.631 203.902 117.708C205.289 116.336 206.796 115.22 208.627 114.549C208.714 112.51 208.042 110.631 207.322 108.781C205.574 104.303 202.782 100.53 199.255 97.2986C195.99 94.3084 192.323 91.9366 188.159 90.3714C187.623 90.5212 187.227 90.2893 186.884 89.9077C182.551 88.2798 178.073 88.0914 173.532 88.5406C173.227 88.8594 172.909 88.9609 172.542 88.6372C167.566 89.3812 162.957 91.1492 158.615 93.6515C158.436 94.3712 158.938 94.6852 159.421 95.0186C163.209 97.6078 165.981 101.076 168.141 105.076C169.682 107.926 170.962 110.902 172.015 113.964C173.58 118.529 174.561 123.23 175.16 128.012C175.285 128.998 175.43 129.983 175.57 130.968C176.218 131.133 176.928 130.906 177.546 131.282H177.541Z" fill="#894100"/>
<path d="M129.031 166.411C130.282 164.421 130.152 162.122 130.413 159.933C131.123 154.006 131.736 148.064 132.369 142.123C132.785 138.244 133.137 134.365 133.558 130.486C133.983 126.611 134.461 122.742 134.905 118.868C135.026 117.795 135.055 116.713 135.214 115.651C135.514 113.68 136.084 111.776 136.809 109.917C136.997 108.719 137.359 107.578 138.016 106.545C139.06 103.231 140.634 100.202 142.866 97.5307C142.591 97.3906 142.316 97.2505 142.045 97.1152C140.997 97.3519 139.934 97.5259 138.91 97.835C134.021 99.3035 130.321 102.323 127.596 106.598C126.075 108.989 125.065 111.612 124.196 114.288C123.862 115.308 123.592 116.351 123.292 117.38C123.519 117.844 123.36 118.216 123.017 118.539C122.94 118.819 122.867 119.1 122.79 119.38C123.027 119.834 122.882 120.206 122.544 120.539C122.442 120.984 122.345 121.428 122.244 121.868C122.51 122.312 122.389 122.694 122.046 123.037C121.93 123.645 121.814 124.254 121.703 124.863C121.988 125.293 121.891 125.679 121.558 126.037C121.423 127.036 121.288 128.041 121.152 129.041C121.587 129.582 121.437 130.07 121.022 130.534C120.896 131.867 120.771 133.2 120.645 134.538C121.09 135.394 121.027 136.224 120.529 137.031C120.022 144.862 120.061 152.692 120.553 160.523C121.027 161.165 121.08 161.832 120.65 162.518C120.78 164.184 120.911 165.851 121.041 167.518C121.457 167.991 121.587 168.484 121.143 169.015C121.22 170.339 121.278 171.662 121.389 172.986C121.428 173.474 121.577 173.952 121.679 174.435C121.93 174.435 122.104 174.532 122.152 174.797C123.239 175.131 123.92 174.512 124.442 173.72C125.225 172.541 125.925 171.31 126.659 170.102C126.625 169.527 126.843 169.107 127.423 168.928C127.959 168.088 128.5 167.247 129.036 166.402L129.031 166.411Z" fill="#894100"/>
<path d="M322.9 292.87C324.649 292.889 326.344 292.614 327.967 291.942C326.199 291.831 324.499 292.058 322.9 292.87Z" fill="#696D65"/>
<path d="M120.524 137.038C121.022 136.226 121.084 135.395 120.64 134.545C120.162 135.356 120.176 136.192 120.524 137.038Z" fill="#894100"/>
<path d="M202.013 399.642C200.689 399.444 199.365 399.376 198.056 399.724C199.385 400.106 200.704 400.203 202.013 399.642Z" fill="#DFD2D0"/>
<path d="M120.645 162.522C121.07 161.836 121.022 161.17 120.548 160.527C120.186 161.213 120.205 161.88 120.645 162.522Z" fill="#894100"/>
<path d="M121.016 130.538C121.432 130.069 121.581 129.581 121.147 129.045C120.741 129.513 120.659 130.006 121.016 130.538Z" fill="#894100"/>
<path d="M142.04 97.1155C142.315 97.2556 142.586 97.3957 142.861 97.5309C143.252 97.5116 143.422 97.2846 143.436 96.9174C142.929 96.6952 142.46 96.7339 142.035 97.1155H142.04Z" fill="#894100"/>
<path d="M121.138 169.021C121.582 168.49 121.452 167.997 121.036 167.523C120.698 168.05 120.727 168.548 121.138 169.021Z" fill="#894100"/>
<path d="M172.536 88.6381C172.898 88.9666 173.222 88.8652 173.526 88.5415C173.164 88.2275 172.836 88.2662 172.536 88.6381Z" fill="#894100"/>
<path d="M186.878 89.9084C187.221 90.29 187.617 90.5219 188.153 90.3721C187.868 89.8311 187.419 89.749 186.878 89.9084Z" fill="#894100"/>
<path d="M123.007 118.54C123.355 118.217 123.509 117.845 123.282 117.381C122.852 117.685 122.698 118.057 123.007 118.54Z" fill="#894100"/>
<path d="M122.533 120.54C122.876 120.212 123.017 119.835 122.78 119.381C122.355 119.695 122.219 120.067 122.533 120.54Z" fill="#894100"/>
<path d="M122.036 123.034C122.379 122.691 122.5 122.31 122.234 121.865C121.852 122.203 121.712 122.58 122.036 123.034Z" fill="#894100"/>
<path d="M121.548 126.035C121.882 125.678 121.978 125.291 121.693 124.861C121.345 125.214 121.215 125.596 121.548 126.035Z" fill="#894100"/>
<path d="M127.418 168.938C126.838 169.121 126.625 169.537 126.654 170.111C127.205 169.913 127.427 169.498 127.418 168.938Z" fill="#894100"/>
<path d="M344.885 293.115C345.064 293.68 345.445 293.946 346.035 293.912C345.875 293.323 345.494 293.057 344.885 293.115Z" fill="#696D65"/>
<path d="M346.923 294.551C347.044 295.135 347.401 295.435 348 295.454C347.889 294.855 347.537 294.551 346.923 294.551Z" fill="#696D65"/>
<path d="M154.982 336.459C155.344 336.121 155.431 335.739 155.151 335.305C154.837 335.652 154.567 336.005 154.982 336.459Z" fill="#C4A5AD"/>
<path d="M352.59 301.396C352.489 301.967 352.735 302.353 353.223 302.614C353.397 302.01 353.16 301.614 352.59 301.396Z" fill="#696D65"/>
<path d="M153.093 359.449C153.479 359.092 153.402 358.768 153.02 358.469C152.653 358.826 152.721 359.15 153.093 359.449Z" fill="#C4A5AD"/>
<path d="M218.529 304.002C218.045 304.306 218.026 304.625 218.504 304.958C218.983 304.654 219.002 304.335 218.529 304.002Z" fill="#DFD2D0"/>
<path d="M354.788 306.322C354.498 306.849 354.706 307.255 355.092 307.622C355.421 307.086 355.213 306.68 354.788 306.322Z" fill="#696D65"/>
<path d="M153.982 342.958C154.373 342.673 154.465 342.349 154.093 341.973C153.721 342.262 153.629 342.581 153.982 342.958Z" fill="#C4A5AD"/>
<path d="M355.522 314.99C355.213 315.309 355.15 315.662 355.377 316.053C355.845 315.753 356.106 315.43 355.522 314.99Z" fill="#696D65"/>
<path d="M350.015 297.447C350.015 298.046 350.314 298.404 350.894 298.539C350.913 297.926 350.614 297.563 350.015 297.447Z" fill="#696D65"/>
<path d="M153.006 351.455C153.387 351.156 153.47 350.837 153.088 350.475C152.716 350.774 152.648 351.098 153.006 351.455Z" fill="#C4A5AD"/>
<path d="M362.879 352.463C362.565 352.835 362.686 353.159 363 353.453C363.376 353.072 363.299 352.748 362.879 352.463Z" fill="#494A45"/>
<path d="M153.512 346.957C153.894 346.658 153.966 346.334 153.585 345.977C153.218 346.281 153.155 346.605 153.512 346.957Z" fill="#C4A5AD"/>
<path d="M218.032 317.494C217.549 317.803 217.534 318.122 218.012 318.451C218.49 318.141 218.505 317.823 218.032 317.494Z" fill="#DFD2D0"/>
<path d="M353.681 321.344C353.203 321.663 352.961 322.054 353.28 322.624C353.715 322.291 353.937 321.894 353.681 321.344Z" fill="#696D65"/>
<path d="M353.073 323.488C352.643 323.788 352.576 324.174 352.793 324.628C353.16 324.314 353.527 324 353.073 323.488Z" fill="#696D65"/>
<path d="M156.537 331.447C156.377 331.307 156.218 331.171 156.063 331.031C156.005 331.297 155.947 331.563 155.889 331.833C156.184 331.833 156.382 331.674 156.542 331.447H156.537Z" fill="#C1997F"/>
<path d="M186.569 398.901C186.289 398.577 185.941 398.466 185.521 398.563C185.787 398.935 186.149 398.998 186.569 398.901Z" fill="#DFD2D0"/>
<path d="M203.906 400.03C203.94 399.75 203.786 399.576 203.568 399.436C203.385 399.494 203.201 399.556 203.018 399.614C203.235 399.919 203.578 399.967 203.906 400.03Z" fill="#DFD2D0"/>
<path d="M122.147 174.808C122.099 174.542 121.925 174.445 121.674 174.445C121.689 174.75 121.838 174.885 122.147 174.808Z" fill="#894100"/>
<path d="M341.914 292.097C342.088 292.324 342.306 292.407 342.581 292.291C342.402 292.068 342.18 292.006 341.914 292.097Z" fill="#696D65"/>
<path d="M304.361 299.317C304.641 299.399 304.844 299.288 304.994 299.051C304.718 298.988 304.506 299.075 304.361 299.317Z" fill="#696D65"/>
<path d="M302.886 299.859C303.167 299.936 303.365 299.834 303.5 299.588C303.225 299.525 303.022 299.612 302.886 299.859Z" fill="#696D65"/>
<path d="M291.888 303.851C292.168 303.933 292.366 303.827 292.501 303.58C292.226 303.513 292.023 303.604 291.888 303.851Z" fill="#C1997F"/>
<path d="M283.414 306.878C283.685 306.95 283.883 306.854 284.013 306.607C283.743 306.535 283.545 306.632 283.414 306.878Z" fill="#C1997F"/>
<path d="M269.387 311.834C269.667 311.926 269.87 311.819 270.01 311.573C269.739 311.505 269.532 311.592 269.387 311.834Z" fill="#C1997F"/>
<path d="M266.41 312.865C266.686 312.943 266.884 312.846 267.019 312.6C266.749 312.527 266.546 312.624 266.41 312.865Z" fill="#C1997F"/>
<path d="M264.922 313.375C265.193 313.448 265.391 313.351 265.521 313.109C265.251 313.037 265.053 313.134 264.922 313.375Z" fill="#C1997F"/>
<path d="M263.425 313.876C263.695 313.949 263.889 313.852 264.024 313.615C263.753 313.538 263.56 313.64 263.425 313.876Z" fill="#C1997F"/>
<path d="M270.874 311.312C271.154 311.394 271.357 311.288 271.502 311.051C271.227 310.984 271.019 311.071 270.874 311.312Z" fill="#C1997F"/>
<path d="M310.926 296.903C311.191 296.966 311.385 296.869 311.51 296.628C311.24 296.555 311.051 296.662 310.926 296.903Z" fill="#696D65"/>
<path d="M320.867 293.331C321.137 293.437 321.345 293.355 321.5 293.119C321.234 293.027 321.021 293.099 320.867 293.331Z" fill="#696D65"/>
<path d="M188.67 399.299C188.492 399.082 188.274 399.028 188.018 399.149C188.192 399.381 188.41 399.425 188.67 399.299Z" fill="#DFD2D0"/>
<path d="M317.862 294.329C318.142 294.402 318.345 294.295 318.49 294.059C318.214 293.996 318.007 294.083 317.862 294.329Z" fill="#696D65"/>
<path d="M192.521 329.435C192.004 328.879 191.501 328.903 191.028 329.488C191.545 330.005 192.042 329.99 192.521 329.435Z" fill="#C1997F"/>
<path d="M174.526 330.434C174.179 329.989 173.85 330.013 173.531 330.467C173.879 330.897 174.208 330.873 174.526 330.434Z" fill="#C1997F"/>
<path d="M165.527 330.929C165.179 330.48 164.846 330.514 164.532 330.968C164.88 331.393 165.213 331.369 165.527 330.929Z" fill="#C1997F"/>
<path d="M201.018 328.956C200.665 328.497 200.336 328.521 200.018 328.994C200.365 329.429 200.699 329.4 201.018 328.956Z" fill="#C1997F"/>
<path d="M210.515 328.453C210.167 327.994 209.838 328.018 209.52 328.482C209.867 328.921 210.196 328.892 210.515 328.453Z" fill="#C1997F"/>
<path d="M177.541 131.285C176.928 130.908 176.218 131.135 175.565 130.971C175.425 132.401 175.696 133.763 176.102 135.14C177.319 139.275 178.343 143.468 179.652 147.569C180.816 151.211 181.782 154.892 182.628 158.617C183.652 163.133 184.647 167.66 185.613 172.191C186.217 175.022 186.647 177.886 187.333 180.703C187.642 181.983 187.744 183.316 188.033 184.606C188.521 186.784 189.082 188.948 189.628 191.113C189.71 191.431 189.898 191.721 190.038 192.021C190.705 191.832 191.367 191.649 192.033 191.46C191.656 189.098 191.396 186.717 190.888 184.383C189.835 179.543 188.661 174.727 187.517 169.911C186.599 166.051 185.541 162.225 184.749 158.346C183.836 153.887 182.652 149.501 181.449 145.12C180.642 142.168 179.609 139.279 178.715 136.347C178.213 134.69 177.541 133.067 177.546 131.29L177.541 131.285Z" fill="#E7A47C"/>
<path d="M166.034 289.011C167.372 289.677 168.705 289.702 170.034 288.982C168.696 288.315 167.362 288.286 166.034 289.011Z" fill="#C4A5AD"/>
<path d="M215.514 287.503C216.026 288.078 216.529 288.068 217.017 287.469C216.505 286.909 216.002 286.919 215.514 287.503Z" fill="#C4A5AD"/>
<path d="M188.525 288.499C189.038 289.078 189.54 289.073 190.028 288.47C189.516 287.909 189.013 287.914 188.525 288.499Z" fill="#C4A5AD"/>
<path d="M203.023 287.995C203.365 288.468 203.704 288.449 204.022 287.971C203.679 287.517 203.346 287.531 203.023 287.995Z" fill="#C4A5AD"/>
<path d="M217.529 327.796L324.282 292.136C324.282 292.136 346.735 284.204 353.082 301.532C359.43 318.859 351.991 329.458 347.962 336.975" fill="#696E66"/>
<path d="M219.486 287.386L219.36 289.203L157.339 290.396L157.064 287.923L219.085 286.459L219.486 287.386Z" fill="#8A89DE"/>
</svg>
