<?xml version="1.0" encoding="UTF-8"?>
<svg width="1417.3" height="1417.3" xmlns="http://www.w3.org/2000/svg" version="1.1" viewBox="0 0 1417.3 1417.3">
  <g>
    <g>
      <g>
        <path fill="#696f6a" d="M 1135.6 849.7 c -1.4 0 -2.9 .3 -4.3 .3 -28.3 -.4 -56.6 -.9 -84.9 -1.4 -18.2 -.3 -36.4 -.6 -54.7 -1 -11.5 -.2 -23 -.5 -34.5 -1 -5.3 -.2 -10.5 .4 -15.8 .5 -12.6 .4 -25.2 1 -37.8 1.6 -1.4 0 -2.9 .2 -4.3 .6 -6.5 1.7 -13.3 1.8 -19.9 2.8 -6.9 1 -13.7 .7 -20.6 .8 -16.8 0 -33.6 0 -50.3 0 -12.8 0 -25.6 0 -38.3 -.1 -14.4 0 -28.8 0 -43.1 0 -8.6 0 -17.3 -.1 -25.9 -.2 -9.7 0 -19.5 -.2 -29.2 -.2 -7.8 0 -15.6 0 -23.5 .2 -4.6 .1 -9.2 .6 -13.9 .9 -4 .3 -8 .5 -12 .3 -1.8 -.1 -3.5 -.3 -4.8 -1.8 -.6 -7.5 -1.4 -14.9 -1.4 -22.4 0 -5.1 -.3 -10.2 -.7 -15.3 -.6 -8.2 -.4 -16.5 -1 -24.8 -.6 -7.1 -.4 -14.3 -.9 -21.5 -.6 -10 -.3 -20 -1.2 -30 .5 -.2 1.1 -.3 1.6 -.5 .5 .3 .9 .1 1.3 -.3 3.1 -.8 6.2 -1.5 9.2 -2.5 8 -2.8 16 -5.3 24.4 -6.9 5.8 -1.1 11.6 -1.9 17.5 -2.4 9.2 -.8 18.2 .6 27.1 2.5 4.1 .9 8.1 2 12.1 3.1 9.2 2.6 17.4 7.1 25.5 12 3 1.8 6.1 3.5 9.1 5.4 3.6 2.3 7.6 3.2 11.8 3.4 8.3 .4 16.6 1.4 24.7 3.1 3 .6 6 .9 9 1.2 18.8 1.9 37.5 3.8 56.3 5.8 3.6 .4 7.3 1.2 10.8 2.1 6.2 1.6 12.5 2.6 18.8 3.6 .9 .1 1.9 .2 2.8 .5 7.2 2.4 14.8 2.6 22.3 2.6 4.6 0 9.3 -.2 13.9 -.4 14.4 -.7 28.7 -1.8 43.1 -1.7 13 0 25.9 .8 38.8 1.8 5.9 .5 11.8 .6 17.7 1.1 6.5 .6 13 1.2 19.5 2.2 11.5 1.6 23.1 3.5 34.6 5.3 7.1 1.1 14.2 2.5 21.3 3.5 11.4 1.7 22.7 3.7 34 5.9 5.2 1 10.4 1.5 15.6 2.2 .4 4.3 .6 8.5 .4 12.8 -.3 7.2 -.1 14.3 0 21.5 0 1.7 .7 3.5 .4 5.2 -.6 3.3 -.3 6.7 -.4 10 -.1 3.2 .3 6.4 -.3 9.5 Z"/>
        <path fill="#ffb68b" d="M 306.6 747.4 c 8.3 2.2 16.8 3.4 25.4 2.7 6.1 -.5 12.3 -1 18.3 -2.6 .4 -.1 .9 0 1.4 0 -4.4 7.7 -5.9 16.2 -6.7 24.9 -2 -1.2 -3.7 -1.1 -5.7 .3 -2.2 1.4 -3.8 3.3 -6 4.7 -3.1 2 -5.9 4.3 -8.8 6.5 -6.8 5.2 -13.6 10.5 -20.4 15.7 -2.9 2.2 -5.8 4.4 -8.7 6.6 -5.3 4.1 -10.5 8.2 -15.8 12.3 -4.3 3.3 -8.7 6.5 -12.9 9.8 -5.3 4.1 -10.6 8.1 -15.8 12.3 -2.2 1.8 -4.8 3.1 -6.7 5.4 -.9 1.1 -.4 2.6 1 3 1 .2 1.9 .2 2.8 -.3 1.3 -.9 2.6 -1.8 3.9 -2.8 3.9 -3 7.8 -6 11.8 -8.9 2.8 -2.1 5.6 -4.2 8.3 -6.4 5.3 -4.1 10.5 -8.2 15.8 -12.3 8.3 -6.4 16.7 -12.7 25.1 -19 8.1 -6.2 16.2 -12.3 24.1 -18.6 2.8 -2.2 6.2 -4 8.1 -7.3 2.1 0 3.5 -1.4 5 -2.6 8.4 -7.1 17.1 -13.8 26.7 -19.3 3.6 -2.1 7.4 -3.6 11.3 -5.1 3.3 -1.2 6.6 -1.1 9.9 -.6 1.3 .2 2.5 .5 3.7 .8 8 1.8 15 5.5 20.5 11.6 4.6 5 7.6 10.9 9.3 17.6 1.1 4.4 .9 8.9 .9 13.3 0 4.7 -1.2 9.1 -2.7 13.5 -2.7 7.7 -7.2 14.2 -13.1 19.8 -9.9 9.3 -21.5 14.7 -35.4 14.5 -2.4 0 -4.8 0 -7.2 0 -4.5 -3.4 -8.4 -2.2 -12.6 1 -8.4 6.5 -17.1 12.8 -25.7 19.2 -15.9 11.8 -31.7 23.6 -47.5 35.5 -11 8.2 -21.9 16.5 -32.9 24.7 -5.1 3.8 -10.6 7 -17 8.4 -4.4 .9 -9 .9 -13.3 .2 -4.1 -.7 -7.7 -3 -10.4 -6.3 -2.8 -3.5 -5.7 -6.8 -7.5 -11 -1.7 -4.1 -2.6 -8.1 -1.3 -12.5 2.6 -9 6.7 -17.2 13.4 -24 5.1 -5.1 10.2 -10.1 15.3 -15.1 1.6 -1.6 3.4 -2.9 5 -4.4 .8 -.8 .7 -1.8 -.2 -2.4 -3.4 -2.5 -6.9 -5 -11.4 -5.5 -1.7 -.2 -3.4 -.8 -5.1 -1.2 -.4 -.6 -1 -.7 -1.7 -.6 -1.6 0 -3.2 -.1 -4.9 -.2 .3 -.4 .5 -.8 .8 -1.2 11.3 -12.7 22.6 -25.3 33.7 -38 1.8 -2.1 3.8 -3.2 6.3 -3.9 7.9 -1.9 15.9 -3.6 23.8 -5.6 4.6 -1.2 8.2 -3.3 11.3 -6.7 3.9 -4.2 6.5 -9.1 8.5 -14.4 1.8 -4.8 2.8 -9.8 3.9 -14.8 .7 -3.4 .6 -7 1.8 -10.4 Z"/>
        <path fill="#8a8adf" d="M 374.1 836.7 c 2.4 0 4.8 0 7.2 0 13.9 .2 25.4 -5.2 35.4 -14.5 5.9 -5.5 10.4 -12.1 13.1 -19.8 1.6 -4.4 2.7 -8.8 2.7 -13.5 0 -4.5 .2 -8.9 -.9 -13.3 -1.7 -6.7 -4.7 -12.6 -9.3 -17.6 -5.6 -6.1 -12.6 -9.7 -20.5 -11.6 -1.2 -.3 -2.5 -.6 -3.7 -.8 -3.3 -.5 -6.7 -.6 -9.9 .6 -3.9 1.4 -7.7 3 -11.3 5.1 -9.6 5.5 -18.3 12.2 -26.7 19.3 -1.5 1.2 -2.9 2.6 -5 2.6 0 -.3 0 -.7 0 -1 .8 -8.7 2.3 -17.2 6.7 -24.9 .2 -.3 .4 -.5 .5 -.8 4.2 -7.3 10.6 -12.1 18.1 -15.9 9.3 -4.6 19.1 -7 29.1 -9.3 5.1 -1.2 10.1 0 15.2 .3 1.3 0 2.5 .4 3.8 .4 8.5 .4 16.8 1.6 25.2 2.6 8.1 .9 16.1 2.2 24.2 3.4 7.2 1.1 14.5 2.4 21.7 3.5 5.5 .8 11.1 1.4 16.6 2.1 6.2 .7 12.4 1.4 18.5 2.1 -.1 2.9 -.2 5.7 -.4 8.6 -.4 4.4 -1.1 8.8 -1.5 13.3 -.5 4.7 -.6 9.5 -1.3 14.3 -.5 3.3 -.6 6.7 -1 10 -.5 4.7 -1.2 9.5 -1.6 14.2 -.5 4.6 -.7 9.2 -1.2 13.8 -.8 7.7 -1.8 15.5 -2.6 23.2 -.6 5.5 -.9 11.1 -1.4 16.7 -6.5 .4 -13 .7 -19.5 1.3 -5.2 .5 -10.4 1.2 -15.6 2.5 -9.4 2.3 -19 3.9 -28.7 5.3 -8.9 1.2 -17.8 2 -26.7 1.5 -8 -.5 -15.9 -1.7 -23.2 -5.2 -2.9 -1.4 -5.7 -2.9 -8.3 -4.7 -5.5 -3.8 -11 -7.6 -16.1 -12 -.6 -.5 -1 -1.2 -1.5 -1.8 Z"/>
        <path fill="#894201" d="M 306.6 747.4 c -1.3 3.3 -1.1 6.9 -1.8 10.4 -1.1 5 -2.1 10 -3.9 14.8 -2 5.3 -4.6 10.2 -8.5 14.4 -3.1 3.4 -6.7 5.5 -11.3 6.7 -7.9 2 -15.9 3.7 -23.8 5.6 -2.6 .6 -4.5 1.8 -6.3 3.9 -11.2 12.7 -22.5 25.4 -33.7 38 -.3 .3 -.5 .8 -.8 1.2 -.3 0 -.6 .2 -.9 .4 -.7 0 -1.4 0 -2.1 -.1 -6.8 -5.5 -11.8 -12.5 -15.7 -20.3 -6.8 -13.8 -11.2 -28.2 -11.2 -43.7 0 -4.7 .3 -9.3 1.8 -13.7 .5 -1.4 .6 -2.7 -.1 -4.2 -4.7 -9.3 -4.1 -18.9 -.9 -28.4 5 -14.7 14.4 -25.9 27.7 -33.7 17 -10 34.8 -10.8 53.1 -4.4 5.7 2 10.4 5.6 14.8 9.6 4.4 4 8.6 8.1 12.7 12.4 4.7 4.8 8.1 10.7 11.7 16.3 .3 .5 .6 1.1 .8 1.7 .9 2.5 1 4.5 -2 6 -1.1 .6 -2.2 1.2 -3.5 1.9 1 2.2 3.4 3.1 3.9 5.5 Z M 243 722.4 c -3.1 .2 -6.4 .8 -9.7 1.2 -8 1 -15.3 4.2 -22.1 8.5 -2.5 1.6 -5.2 3.1 -7.3 5.3 -3.3 3.4 -6.7 6.8 -10.2 10.2 -1.4 1.4 -2.4 3 -3.2 4.7 -1.4 3.1 -1.1 4.6 1.6 6.6 1.7 1.3 4.1 1.3 5.7 0 1.1 -.9 1.9 -2.1 2.7 -3.3 2.2 -3.1 4.2 -6.4 6.9 -9.1 4.7 -4.8 10.1 -8.8 16.2 -11.7 9 -4.3 18.4 -5.8 28.3 -3.9 1.4 .3 2.9 .1 4.3 0 .4 0 .9 -.4 1.2 -.7 .9 -1.4 .3 -4 -1.2 -4.6 -4.2 -1.5 -8.4 -3 -13.1 -3.3 Z"/>
        <path fill="#ffb78c" d="M 513.6 849.9 c .5 -5.6 .8 -11.1 1.4 -16.7 .8 -7.7 1.8 -15.5 2.6 -23.2 .5 -4.6 .7 -9.2 1.2 -13.8 .5 -4.7 1.1 -9.5 1.6 -14.2 .4 -3.3 .5 -6.6 1 -10 .7 -4.7 .8 -9.5 1.3 -14.3 .4 -4.4 1.1 -8.8 1.5 -13.3 .3 -2.9 .3 -5.7 .4 -8.6 1.1 0 2.3 -.2 3.3 0 5 1.1 10.2 .4 15.3 1 6.4 .7 12.7 .8 19.1 .8 4.2 1.4 8.6 .5 12.8 1.6 .9 .2 2 .3 2.9 0 3.5 -.9 7 -.7 10.5 -.6 6.6 .2 13 -1.2 19.6 -1 1.6 0 3.2 0 4.8 0 .8 10 .5 20.1 1.2 30 .5 7.2 .3 14.3 .9 21.5 .7 8.3 .4 16.6 1 24.8 .4 5.1 .7 10.2 .7 15.3 0 7.5 .8 14.9 1.4 22.4 -5.3 .6 -10.5 .1 -15.8 .2 -5 0 -9.9 0 -14.9 -.1 -8.8 -.3 -17.5 -.9 -26.3 -.8 -6.9 0 -13.7 0 -20.6 -.2 -8.9 -.2 -17.9 -.6 -26.8 -1 Z"/>
        <path fill="#ffb68a" d="M 1135.6 849.7 c .6 -3.2 .2 -6.4 .3 -9.5 .1 -3.3 -.2 -6.7 .4 -10 .3 -1.7 -.4 -3.5 -.4 -5.2 0 -7.2 -.2 -14.4 0 -21.5 .2 -4.3 0 -8.5 -.4 -12.8 .6 -.6 1.4 -.8 2.2 -.8 6.5 -.3 13.1 -.5 19.6 0 6.2 .6 12.3 1.6 18.4 2.9 3.9 .8 7.6 2.4 11.1 4.4 6.8 4 13.1 8.6 18.2 14.7 3.4 4 7.1 7.7 10.4 11.9 4 5.2 8.3 10.2 11.6 15.8 3 5 4.3 10.6 5.4 16.3 -.7 10 -4.3 18.3 -13.4 23.4 -3.6 2 -7.6 2.3 -11.5 .6 -10.7 -4.6 -21.4 -9.2 -32.1 -13.7 -11.4 -4.9 -22.9 -9.8 -34.3 -14.7 -1.8 -.7 -3.6 -1.2 -5.5 -1.7 Z"/>
        <path fill="#cabeab" d="M 221.2 842.5 c .7 0 1.3 0 1.7 .6 -1.1 .9 -1.1 .9 -1.7 -.6 Z"/>
        <path fill="#cabeab" d="M 213.5 842.6 c .7 0 1.4 0 2.1 .1 -.7 .9 -1.4 .8 -2.1 -.1 Z"/>
        <path fill="#c7b4b0" d="M 615.8 737 c -.4 .4 -.8 .6 -1.3 .3 .4 -.4 .8 -.5 1.3 -.3 Z"/>
        <path fill="#e7a47c" d="M 345 772.3 c 0 .3 0 .7 0 1 -1.9 3.3 -5.3 5.1 -8.1 7.3 -8 6.3 -16.1 12.5 -24.1 18.6 -8.3 6.4 -16.7 12.7 -25.1 19 -5.3 4.1 -10.5 8.2 -15.8 12.3 -2.8 2.1 -5.6 4.2 -8.3 6.4 -3.9 3 -7.8 6 -11.8 8.9 -1.3 1 -2.6 1.9 -3.9 2.8 -.8 .6 -1.8 .5 -2.8 .3 -1.4 -.3 -1.9 -1.8 -1 -3 1.8 -2.3 4.4 -3.6 6.7 -5.4 5.2 -4.2 10.5 -8.3 15.8 -12.3 4.3 -3.3 8.7 -6.5 12.9 -9.8 5.3 -4.1 10.5 -8.2 15.8 -12.3 2.9 -2.2 5.8 -4.4 8.7 -6.6 6.8 -5.2 13.6 -10.5 20.4 -15.7 2.9 -2.2 5.8 -4.5 8.8 -6.5 2.2 -1.4 3.8 -3.3 6 -4.7 2.1 -1.3 3.8 -1.5 5.7 -.3 Z"/>
        <path fill="#5d3717" d="M 243 722.4 c 4.7 .2 8.9 1.8 13.1 3.3 1.5 .5 2.1 3.2 1.2 4.6 -.2 .4 -.8 .7 -1.2 .7 -1.4 0 -2.9 .2 -4.3 0 -9.9 -2 -19.3 -.4 -28.3 3.9 -6.1 2.9 -11.5 6.8 -16.2 11.7 -2.7 2.8 -4.8 6 -6.9 9.1 -.8 1.2 -1.6 2.4 -2.7 3.3 -1.7 1.4 -4 1.4 -5.7 0 -2.7 -2.1 -3 -3.5 -1.6 -6.6 .8 -1.8 1.8 -3.3 3.2 -4.7 3.4 -3.3 6.8 -6.7 10.2 -10.2 2.1 -2.2 4.8 -3.7 7.3 -5.3 6.8 -4.3 14.1 -7.5 22.1 -8.5 3.3 -.4 6.6 -1 9.7 -1.2 Z"/>
      </g>
    </g>
  </g>
</svg>