<svg width="500" height="500" viewBox="0 0 500 500" fill="none" xmlns="http://www.w3.org/2000/svg">
<path d="M73.4144 322.279C73.9934 322.279 74.6138 322.403 75.1928 322.403C86.8973 322.238 98.6017 322.031 110.306 321.824C117.833 321.7 125.361 321.576 132.929 321.41C137.686 321.328 142.442 321.204 147.198 320.997C149.39 320.914 151.541 321.162 153.733 321.204C158.944 321.369 164.155 321.617 169.366 321.865C169.945 321.865 170.566 321.948 171.145 322.114C173.833 322.817 176.645 322.858 179.375 323.272C182.229 323.685 185.041 323.561 187.895 323.602C194.843 323.602 201.791 323.602 208.698 323.602C213.992 323.602 219.286 323.602 224.538 323.561C230.494 323.561 236.45 323.561 242.364 323.561C245.921 323.561 249.519 323.52 253.076 323.478C257.088 323.478 261.141 323.396 265.153 323.396C268.378 323.396 271.604 323.396 274.872 323.478C276.774 323.52 278.677 323.727 280.621 323.851C282.275 323.975 283.929 324.057 285.584 323.975C286.328 323.933 287.031 323.851 287.569 323.23C287.817 320.128 288.148 317.068 288.148 313.966C288.148 311.857 288.272 309.747 288.437 307.638C288.686 304.247 288.603 300.814 288.851 297.381C289.099 294.445 289.016 291.467 289.223 288.489C289.471 284.353 289.347 280.217 289.719 276.082C289.513 275.999 289.265 275.957 289.058 275.875C288.851 275.999 288.686 275.916 288.52 275.751C287.238 275.42 285.956 275.13 284.715 274.717C281.406 273.559 278.098 272.525 274.624 271.863C272.225 271.408 269.826 271.077 267.386 270.87C263.581 270.54 259.859 271.119 256.178 271.904C254.482 272.277 252.828 272.731 251.173 273.186C247.368 274.262 243.977 276.123 240.627 278.149C239.386 278.894 238.104 279.597 236.863 280.383C235.374 281.334 233.72 281.706 231.983 281.789C228.55 281.954 225.117 282.368 221.767 283.071C220.527 283.319 219.286 283.443 218.045 283.567C210.27 284.353 202.536 285.139 194.76 285.966C193.271 286.132 191.741 286.463 190.294 286.835C187.729 287.496 185.124 287.91 182.518 288.324C182.146 288.365 181.732 288.406 181.36 288.53C178.382 289.523 175.239 289.606 172.137 289.606C170.235 289.606 168.291 289.523 166.388 289.44C160.433 289.151 154.518 288.696 148.563 288.737C143.186 288.737 137.851 289.068 132.516 289.482C130.076 289.688 127.635 289.73 125.195 289.937C122.507 290.185 119.819 290.433 117.13 290.847C112.374 291.508 107.577 292.294 102.82 293.039C99.8839 293.493 96.9474 294.072 94.0109 294.486C89.2961 295.189 84.6226 296.016 79.949 296.926C77.7984 297.34 75.6478 297.547 73.4971 297.836C73.3317 299.615 73.249 301.352 73.3317 303.13C73.4558 306.108 73.373 309.044 73.3317 312.022C73.3317 312.725 73.0422 313.47 73.1663 314.173C73.4144 315.538 73.2903 316.944 73.3317 318.309C73.373 319.632 73.2076 320.956 73.4558 322.238L73.4144 322.279Z" fill="#696F6A"/>
<path d="M416.277 279.967C412.844 280.877 409.328 281.374 405.772 281.084C403.249 280.877 400.685 280.67 398.203 280.009C398.038 279.967 397.831 280.009 397.624 280.009C399.444 283.193 400.064 286.709 400.395 290.307C401.222 289.811 401.925 289.852 402.752 290.431C403.662 291.01 404.324 291.796 405.234 292.375C406.516 293.202 407.674 294.153 408.874 295.063C411.686 297.214 414.498 299.406 417.311 301.556C418.51 302.466 419.709 303.376 420.909 304.286C423.101 305.982 425.252 307.678 427.444 309.373C429.222 310.738 431.042 312.062 432.779 313.426C434.971 315.122 437.163 316.776 439.313 318.513C440.223 319.258 441.299 319.796 442.084 320.747C442.457 321.202 442.25 321.822 441.671 321.988C441.257 322.07 440.885 322.07 440.513 321.864C439.975 321.491 439.437 321.119 438.9 320.705C437.287 319.465 435.674 318.224 434.02 317.025C432.861 316.156 431.703 315.288 430.587 314.378C428.395 312.682 426.244 310.986 424.052 309.291C420.619 306.644 417.145 304.038 413.671 301.432C410.321 298.868 406.971 296.345 403.704 293.74C402.546 292.83 401.139 292.085 400.354 290.721C399.485 290.721 398.906 290.142 398.286 289.645C394.812 286.709 391.213 283.938 387.243 281.663C385.754 280.795 384.182 280.174 382.57 279.554C381.205 279.057 379.84 279.099 378.475 279.306C377.937 279.388 377.441 279.512 376.945 279.636C373.636 280.381 370.741 281.911 368.466 284.434C366.564 286.502 365.323 288.942 364.62 291.713C364.165 293.533 364.248 295.394 364.248 297.214C364.248 299.158 364.744 300.977 365.364 302.797C366.481 305.982 368.342 308.67 370.782 310.986C374.877 314.833 379.674 317.066 385.423 316.983C386.416 316.983 387.408 316.983 388.401 316.983C390.262 315.577 391.875 316.073 393.612 317.397C397.086 320.085 400.685 322.691 404.241 325.338C410.817 330.218 417.352 335.098 423.887 340.02C428.436 343.411 432.944 346.844 437.494 350.235C439.603 351.807 441.878 353.131 444.525 353.71C446.344 354.082 448.247 354.082 450.025 353.792C451.721 353.503 453.21 352.552 454.327 351.187C455.485 349.739 456.684 348.374 457.428 346.637C458.132 344.942 458.504 343.287 457.966 341.467C456.891 337.745 455.195 334.354 452.424 331.541C450.315 329.432 448.205 327.364 446.096 325.296C445.434 324.635 444.69 324.097 444.028 323.476C443.697 323.146 443.739 322.732 444.111 322.484C445.517 321.45 446.965 320.416 448.826 320.209C449.529 320.126 450.232 319.878 450.935 319.713C451.101 319.465 451.349 319.423 451.638 319.465C452.3 319.465 452.962 319.423 453.665 319.382C453.541 319.217 453.458 319.051 453.334 318.886C448.66 313.633 443.987 308.422 439.396 303.169C438.652 302.301 437.824 301.846 436.791 301.556C433.523 300.771 430.215 300.068 426.947 299.24C425.045 298.744 423.556 297.876 422.274 296.469C420.661 294.732 419.585 292.706 418.758 290.514C418.014 288.529 417.6 286.461 417.145 284.393C416.856 282.986 416.897 281.498 416.401 280.091L416.277 279.967Z" fill="#FFB68B"/>
<path d="M388.36 316.901C387.367 316.901 386.374 316.901 385.382 316.901C379.633 316.984 374.877 314.75 370.741 310.904C368.301 308.629 366.44 305.9 365.323 302.715C364.661 300.895 364.206 299.076 364.206 297.132C364.206 295.271 364.124 293.451 364.579 291.631C365.282 288.86 366.522 286.42 368.425 284.352C370.741 281.829 373.636 280.34 376.903 279.554C377.4 279.43 377.937 279.306 378.434 279.223C379.798 279.017 381.205 278.975 382.528 279.472C384.141 280.051 385.713 280.712 387.202 281.581C391.172 283.856 394.77 286.627 398.244 289.563C398.865 290.059 399.444 290.638 400.312 290.638C400.312 290.514 400.312 290.349 400.312 290.225C399.981 286.627 399.361 283.111 397.541 279.926C397.459 279.802 397.376 279.72 397.334 279.596C395.597 276.576 392.95 274.591 389.849 273.02C386.002 271.117 381.949 270.125 377.813 269.173C375.704 268.677 373.636 269.173 371.527 269.297C370.989 269.297 370.493 269.463 369.955 269.463C366.44 269.628 363.007 270.125 359.533 270.538C356.183 270.91 352.874 271.448 349.524 271.944C346.546 272.399 343.527 272.937 340.549 273.392C338.274 273.723 335.958 273.971 333.684 274.26C331.119 274.55 328.555 274.839 326.032 275.129C326.074 276.328 326.115 277.486 326.198 278.686C326.363 280.506 326.653 282.325 326.818 284.186C327.025 286.13 327.066 288.115 327.356 290.101C327.563 291.466 327.604 292.872 327.769 294.237C327.976 296.18 328.266 298.166 328.431 300.109C328.638 302.012 328.721 303.914 328.927 305.817C329.258 309.002 329.672 312.227 330.003 315.412C330.251 317.687 330.375 320.003 330.582 322.319C333.27 322.484 335.958 322.608 338.647 322.857C340.797 323.063 342.948 323.353 345.099 323.891C348.986 324.842 352.957 325.504 356.969 326.083C360.649 326.579 364.33 326.91 368.011 326.703C371.32 326.496 374.587 326 377.606 324.552C378.806 323.973 379.964 323.353 381.039 322.608C383.314 321.037 385.589 319.465 387.698 317.645C387.946 317.439 388.111 317.149 388.318 316.901H388.36Z" fill="#8A8ADF"/>
<path d="M416.277 279.968C416.814 281.333 416.731 282.822 417.021 284.269C417.476 286.337 417.89 288.405 418.634 290.39C419.461 292.582 420.536 294.609 422.149 296.346C423.432 297.752 424.92 298.621 426.823 299.117C430.09 299.944 433.399 300.647 436.666 301.433C437.742 301.681 438.527 302.178 439.272 303.046C443.904 308.299 448.578 313.551 453.21 318.762C453.334 318.886 453.416 319.093 453.541 319.259C453.665 319.259 453.789 319.341 453.913 319.424C454.202 319.424 454.492 319.424 454.781 319.383C457.594 317.108 459.662 314.213 461.275 310.987C464.087 305.279 465.907 299.324 465.907 292.913C465.907 290.969 465.783 289.067 465.162 287.247C464.956 286.668 464.914 286.13 465.204 285.51C467.148 281.664 466.899 277.693 465.576 273.764C463.508 267.685 459.62 263.052 454.12 259.826C447.089 255.691 439.727 255.36 432.158 258.007C429.801 258.834 427.857 260.323 426.037 261.977C424.217 263.631 422.48 265.327 420.785 267.105C418.841 269.091 417.435 271.531 415.946 273.847C415.822 274.054 415.698 274.302 415.615 274.55C415.243 275.584 415.201 276.411 416.442 277.032C416.897 277.28 417.352 277.528 417.89 277.817C417.476 278.727 416.483 279.099 416.277 280.092V279.968ZM442.581 269.628C443.863 269.711 445.228 269.959 446.592 270.125C449.901 270.538 452.92 271.862 455.733 273.64C456.767 274.302 457.883 274.922 458.752 275.832C460.117 277.238 461.523 278.644 462.97 280.051C463.549 280.63 463.963 281.291 464.294 281.995C464.873 283.277 464.749 283.897 463.632 284.724C462.929 285.262 461.936 285.262 461.275 284.724C460.82 284.352 460.489 283.856 460.158 283.359C459.248 282.077 458.421 280.712 457.304 279.596C455.36 277.611 453.127 275.956 450.604 274.757C446.882 272.978 442.994 272.358 438.9 273.144C438.321 273.268 437.7 273.185 437.121 273.144C436.956 273.144 436.749 272.978 436.625 272.854C436.253 272.275 436.501 271.2 437.121 270.952C438.858 270.331 440.595 269.711 442.539 269.587L442.581 269.628Z" fill="#894201"/>
<path d="M330.665 322.36C330.458 320.044 330.334 317.769 330.086 315.453C329.755 312.268 329.341 309.042 329.01 305.858C328.803 303.955 328.721 302.053 328.514 300.15C328.307 298.206 328.059 296.221 327.852 294.277C327.687 292.912 327.645 291.548 327.439 290.141C327.149 288.198 327.108 286.212 326.901 284.227C326.735 282.407 326.446 280.588 326.281 278.726C326.156 277.527 326.156 276.369 326.115 275.17C325.66 275.17 325.164 275.087 324.75 275.17C322.682 275.625 320.532 275.335 318.422 275.583C315.775 275.873 313.17 275.914 310.523 275.914C308.786 276.493 306.966 276.121 305.229 276.576C304.857 276.658 304.402 276.7 304.03 276.576C302.582 276.204 301.135 276.286 299.687 276.328C296.957 276.41 294.31 275.831 291.581 275.914C290.919 275.914 290.257 275.914 289.596 275.914C289.265 280.05 289.389 284.227 289.099 288.322C288.892 291.299 288.975 294.236 288.727 297.214C288.437 300.646 288.562 304.079 288.313 307.471C288.148 309.58 288.024 311.689 288.024 313.798C288.024 316.9 287.693 319.961 287.445 323.063C289.637 323.311 291.788 323.104 293.98 323.145C296.047 323.145 298.074 323.145 300.142 323.104C303.781 322.98 307.38 322.732 311.019 322.773C313.873 322.773 316.685 322.773 319.539 322.691C323.22 322.608 326.942 322.442 330.623 322.277L330.665 322.36Z" fill="#FFB78C"/>
<path d="M73.4145 322.278C73.1663 320.955 73.3317 319.631 73.2904 318.349C73.249 316.984 73.3731 315.578 73.1249 314.213C73.0008 313.51 73.2904 312.766 73.2904 312.063C73.2904 309.085 73.3731 306.107 73.2904 303.171C73.2076 301.392 73.2904 299.655 73.4558 297.877C73.2077 297.629 72.8768 297.546 72.5459 297.546C69.8576 297.422 67.1279 297.339 64.4396 297.546C61.8754 297.794 59.3526 298.208 56.8297 298.745C55.2167 299.076 53.6864 299.738 52.2389 300.565C49.4265 302.219 46.8209 304.122 44.7116 306.645C43.3055 308.299 41.7752 309.829 40.4103 311.566C38.756 313.717 36.9776 315.785 35.6128 318.101C34.372 320.169 33.8343 322.485 33.3794 324.842C33.6689 328.978 35.1578 332.411 38.9214 334.52C40.4104 335.348 42.0647 335.472 43.6777 334.769C48.103 332.866 52.5284 330.964 56.9538 329.102C61.6686 327.076 66.4249 325.049 71.1397 323.023C71.8842 322.733 72.6287 322.526 73.4145 322.32V322.278Z" fill="#FFB68A"/>
<path d="M451.597 319.301C451.307 319.301 451.059 319.301 450.894 319.549C451.349 319.921 451.349 319.921 451.597 319.301Z" fill="#CABEAB"/>
<path d="M454.781 319.342C454.492 319.342 454.202 319.342 453.913 319.383C454.202 319.755 454.492 319.714 454.781 319.342Z" fill="#CABEAB"/>
<path d="M288.396 275.666C288.562 275.832 288.727 275.915 288.934 275.79C288.768 275.625 288.603 275.584 288.396 275.666Z" fill="#C7B4B0"/>
<path d="M400.395 290.265C400.395 290.389 400.395 290.555 400.395 290.679C401.181 292.044 402.587 292.788 403.745 293.698C407.054 296.303 410.404 298.868 413.712 301.391C417.145 304.038 420.619 306.643 424.093 309.249C426.285 310.944 428.436 312.64 430.628 314.336C431.786 315.204 432.944 316.073 434.061 316.983C435.674 318.223 437.287 319.464 438.941 320.664C439.479 321.077 440.016 321.449 440.554 321.822C440.885 322.07 441.299 322.028 441.712 321.946C442.291 321.822 442.498 321.201 442.126 320.705C441.381 319.754 440.306 319.216 439.355 318.472C437.204 316.735 435.012 315.039 432.82 313.385C431.042 312.02 429.222 310.696 427.485 309.331C425.293 307.636 423.142 305.94 420.95 304.244C419.751 303.334 418.551 302.425 417.352 301.515C414.54 299.364 411.727 297.172 408.915 295.021C407.715 294.111 406.516 293.16 405.275 292.333C404.365 291.754 403.704 290.968 402.794 290.389C401.925 289.852 401.222 289.769 400.436 290.265H400.395Z" fill="#E7A47C"/>
<path d="M442.581 269.629C440.637 269.712 438.9 270.373 437.163 270.994C436.542 271.201 436.294 272.317 436.666 272.896C436.749 273.062 436.997 273.186 437.163 273.186C437.742 273.186 438.362 273.268 438.941 273.186C443.036 272.359 446.923 273.02 450.646 274.799C453.168 275.998 455.402 277.611 457.346 279.638C458.462 280.796 459.331 282.119 460.199 283.401C460.53 283.898 460.861 284.394 461.316 284.766C462.019 285.345 462.97 285.345 463.673 284.766C464.79 283.898 464.914 283.319 464.335 282.036C464.004 281.292 463.591 280.672 463.012 280.093C461.606 278.728 460.199 277.322 458.793 275.874C457.925 274.964 456.808 274.344 455.774 273.682C452.962 271.904 449.942 270.58 446.634 270.167C445.269 270.001 443.904 269.753 442.622 269.67L442.581 269.629Z" fill="#5D3717"/>
</svg>
