<svg width="500" height="500" viewBox="0 0 500 500" fill="none" xmlns="http://www.w3.org/2000/svg">
<path d="M302.766 297.119C304.912 307.069 307.691 316.844 310.943 326.491C312.252 330.372 313.436 334.295 314.749 338.172C315.768 341.175 316.795 344.178 318.125 347.061C319.185 349.355 320.718 351.352 322.189 353.386C322.806 354.243 323.593 354.753 324.5 355.175C324.931 355.374 325.361 355.49 325.838 355.486C328.219 355.465 330.622 355.643 332.979 355.386C336.417 355.014 339.867 354.985 343.276 355.221C348.371 355.573 353.453 355.337 358.54 355.449C359.405 355.469 360.25 355.357 361.095 355.183C361.501 355.101 361.845 354.985 362.098 354.628C362.553 353.982 363.125 353.423 363.46 352.686C363.8 351.948 363.916 351.265 363.792 350.412C363.378 347.608 363.133 344.778 362.81 341.962C362.719 341.175 362.582 340.396 362.466 339.613H362.272H362.077C361.758 339.526 361.439 339.452 361.124 339.356C358.407 338.536 355.781 337.443 353.014 336.772C348.213 335.612 343.433 334.353 338.612 333.28C336.649 332.841 335.431 331.801 334.789 329.97C334.636 329.535 334.457 329.105 334.35 328.657C333.492 325.137 332.291 321.711 331.624 318.136C330.962 314.578 330.191 311.041 329.441 307.504C328.584 303.448 327.698 299.398 326.819 295.347C326.571 294.187 326.335 293.027 326.053 291.875C325.941 291.416 326.07 291.093 326.434 290.856C327.764 289.995 329.081 289.108 330.638 288.686C331.479 287.717 332.589 287.137 333.72 286.594C335.75 285.625 337.8 284.705 339.813 283.707C343.541 281.852 347.207 279.876 350.848 277.85C354.717 275.696 358.672 273.7 362.541 271.542C365.71 269.773 369.019 268.265 371.923 266.012C373.807 264.55 375.618 263.079 377.187 261.249C379.093 259.024 379.892 256.448 380.302 253.677C380.427 252.832 380.364 251.966 380.054 251.134C379.751 250.33 379.503 249.506 379.229 248.694C378.583 246.776 377.415 245.186 376.069 243.719C374.764 242.299 373.178 241.441 371.21 241.362C370.883 241.35 370.564 241.209 370.237 241.184C367.996 241.014 365.768 240.816 363.543 241.42C360.221 242.328 356.962 243.375 353.876 244.925C351.809 245.96 349.746 247.029 347.629 247.953C343.682 249.676 340.004 251.904 336.185 253.872C334.238 254.874 332.482 256.179 330.605 257.285C328.443 258.56 326.331 259.915 324.28 261.369C323.27 262.085 322.354 262.997 321.103 263.336C320.772 263.941 320.213 264.264 319.645 264.625C316.75 266.443 313.85 268.249 311.063 270.233C310.193 270.854 309.522 271.679 308.652 272.267C304.812 274.872 302.853 278.625 302.029 283.073C301.863 283.976 301.631 284.85 301.611 285.795C301.553 288.259 302.041 290.629 302.6 292.998C302.766 293.702 303.035 294.386 303.147 295.094C303.259 295.79 303.458 296.548 302.779 297.119H302.766Z" fill="#FFB68A"/>
<path d="M321.094 263.336C322.349 262.997 323.26 262.09 324.271 261.369C326.321 259.915 328.434 258.56 330.596 257.285C332.472 256.175 334.229 254.874 336.175 253.872C339.994 251.904 343.673 249.676 347.62 247.953C349.741 247.029 351.799 245.96 353.866 244.925C356.952 243.376 360.216 242.328 363.534 241.42C365.758 240.816 367.991 241.015 370.228 241.184C370.555 241.209 370.874 241.35 371.201 241.362C373.168 241.441 374.755 242.303 376.06 243.719C377.41 245.186 378.574 246.776 379.22 248.694C379.493 249.506 379.746 250.33 380.044 251.134C380.355 251.966 380.417 252.832 380.293 253.677C379.887 256.452 379.083 259.024 377.178 261.249C375.608 263.08 373.798 264.55 371.913 266.012C369.01 268.265 365.7 269.773 362.532 271.542C358.667 273.7 354.711 275.701 350.838 277.85C347.197 279.876 343.536 281.852 339.804 283.707C337.791 284.71 335.74 285.629 333.711 286.594C332.58 287.133 331.474 287.717 330.629 288.686C331.027 288.914 331.068 289.374 331.304 289.705C332.497 290.413 333.719 291.084 334.879 291.846C337.294 293.433 339.932 294.394 342.761 294.932C346.236 295.595 349.703 295.744 353.204 295.127C354.392 294.916 355.507 294.555 356.559 293.976C359.872 292.149 362.979 290.053 365.622 287.294C368.455 284.333 371.23 281.321 373.98 278.281C377.046 274.889 379.883 271.326 382.679 267.723C384.75 265.051 386.44 262.131 387.815 259.037C388.055 258.498 388.37 257.993 388.652 257.471C388.722 257.015 388.776 256.556 388.867 256.108C389.372 253.582 389.898 251.055 389.803 248.462C389.762 247.344 389.53 246.234 389.484 245.115C389.426 243.719 389.194 242.357 388.859 241.01C388.196 238.347 386.875 235.969 385.442 233.666C384.025 231.392 382.004 229.657 379.966 227.967C378.611 226.844 376.996 226.252 375.273 225.975C374.684 225.879 374.092 225.813 373.558 225.519C373.293 225.519 373.028 225.548 372.767 225.527C368.558 225.241 364.482 226.008 360.431 227.031C356.774 227.954 353.224 229.205 349.683 230.489C347.757 231.189 345.81 231.827 343.855 232.432C339.245 233.865 334.784 235.713 330.227 237.295C326.168 238.703 322.129 240.17 318.17 241.831C316.832 242.394 315.543 243.081 314.226 243.694C313.609 243.984 313.141 244.436 312.714 244.95C312.656 246.176 313.133 247.261 313.642 248.325C315.535 252.289 317.449 256.241 319.354 260.201C319.582 260.673 319.777 261.158 319.984 261.634C320.593 262.04 320.771 262.727 321.081 263.328L321.094 263.336Z" fill="#8A8ADE"/>
<path d="M373.571 225.518C374.105 225.817 374.693 225.879 375.285 225.974C377.009 226.256 378.624 226.844 379.978 227.966C382.016 229.656 384.038 231.392 385.454 233.666C386.888 235.969 388.209 238.346 388.872 241.01C389.207 242.356 389.439 243.719 389.497 245.115C389.543 246.233 389.779 247.343 389.816 248.461C389.907 251.054 389.385 253.581 388.88 256.108C388.789 256.559 388.735 257.015 388.664 257.471C389.05 257.222 389.48 257.023 389.816 256.721C393.275 253.643 396.92 250.794 400.532 247.898C403.34 245.649 406.476 243.955 409.524 242.095C410.986 241.205 412.378 241.2 413.853 241.913C415.46 242.692 417.075 243.466 418.674 244.257C419.449 244.642 420.24 244.937 421.089 245.127C423.4 245.637 424.78 245.077 425.836 242.99C426.552 241.573 427.161 240.107 427.791 238.649C428.367 237.315 428.876 235.948 429.468 234.623C429.845 233.778 430.284 232.958 430.765 232.171C431.916 230.286 433.627 229.089 435.665 228.323C436.978 227.83 438.221 227.246 439.161 226.144C440.163 224.976 440.296 223.625 439.405 222.341C438.954 221.695 438.436 221.078 437.869 220.531C436.195 218.912 434.737 217.131 433.536 215.13C433.097 214.397 432.55 213.722 432.049 213.026C430.802 211.286 430.268 209.447 430.653 207.248C431.005 205.239 431.129 203.184 431.515 201.175C431.589 200.778 431.531 200.384 431.336 200.02C431.15 200.036 430.968 200.049 430.781 200.065C429.199 200.736 427.542 201.188 425.894 201.672C419.56 203.528 413.227 205.396 406.89 207.239C405.912 207.525 405.117 208.006 404.392 208.739C401.323 211.837 398.179 214.861 395.126 217.971C394.173 218.941 393.2 219.384 391.812 219.276C388.913 219.057 386.009 219.14 383.106 219.405C381.341 219.566 379.548 219.715 377.771 219.425C376.159 221.314 374.962 223.489 373.562 225.522L373.571 225.518Z" fill="#FFB78C"/>
<path d="M377.779 219.421C379.56 219.711 381.35 219.562 383.114 219.4C386.018 219.135 388.921 219.052 391.821 219.272C393.209 219.375 394.182 218.932 395.135 217.967C398.191 214.856 401.331 211.833 404.4 208.734C405.125 208.005 405.916 207.521 406.898 207.235C413.236 205.392 419.569 203.528 425.902 201.668C427.551 201.183 429.208 200.736 430.79 200.061C430.844 199.506 430.898 198.955 430.947 198.4C430.823 198.068 430.699 197.737 430.574 197.406C430.239 197.161 430.061 196.846 430.144 196.42C427.46 190.459 423.603 185.485 418.057 181.893C415.998 180.56 413.836 179.466 411.471 178.791C410.539 178.779 409.628 178.683 408.833 178.12C407.959 177.979 407.085 177.834 406.211 177.693C405.523 177.896 404.831 177.876 404.144 177.693C403.112 177.793 402.064 177.805 401.058 178.099C400.805 178.327 400.528 178.207 400.258 178.161C400.039 178.592 399.732 178.899 399.223 178.994C398.577 179.114 397.943 179.296 397.297 179.421C392.268 180.394 388.197 183.066 384.535 186.516C383.47 187.518 382.592 188.674 381.706 189.809C380.492 191.358 379.2 192.841 378.243 194.601C377.622 195.749 377.299 197.07 376.367 198.048C376.396 198.76 376.437 199.481 375.915 200.073C375.857 200.409 375.799 200.744 375.745 201.084C375.99 201.593 375.99 202.066 375.538 202.471C374.954 205.491 374.938 208.511 375.489 211.534C375.986 211.932 375.994 212.433 375.787 212.976C375.841 213.183 375.895 213.39 375.948 213.597C376.81 215.134 377.17 216.82 377.373 218.547L377.775 219.429L377.779 219.421Z" fill="#894100"/>
<path d="M319.997 261.642C319.786 261.162 319.591 260.677 319.367 260.209C317.466 256.249 315.553 252.298 313.656 248.334C313.146 247.269 312.67 246.184 312.728 244.958C311.767 244.879 310.905 245.248 310.052 245.592C305.81 247.294 301.445 248.549 296.971 249.46C294.776 249.908 292.618 250.546 290.431 251.039C287.407 251.714 284.371 252.331 281.339 252.973C280.498 253.151 279.665 253.35 278.903 253.777C279.073 254.883 279.172 256.005 279.425 257.094C280.109 260.048 280.668 263.018 281.161 266.012C281.79 269.848 282.685 273.638 283.484 277.44C284.731 283.376 286.003 289.303 287.237 295.239C287.399 296.009 287.395 296.813 287.465 297.604C287.593 297.588 287.726 297.559 287.854 297.555C291.334 297.381 294.809 297.186 298.288 297.045C299.15 297.008 299.987 296.867 300.823 296.693C299.912 293.943 299.398 291.097 298.926 288.251C298.744 287.158 298.727 285.986 298.922 284.896C299.336 282.577 299.846 280.294 300.695 278.049C301.888 274.889 303.893 272.441 306.382 270.345C308.188 268.829 310.093 267.425 312.119 266.178C314.703 264.587 317.276 262.993 319.997 261.647V261.642Z" fill="#FFB68A"/>
<path d="M331.321 289.706C331.085 289.375 331.044 288.915 330.646 288.688C329.089 289.106 327.771 289.996 326.442 290.858C326.077 291.094 325.949 291.417 326.061 291.877C326.342 293.028 326.578 294.188 326.827 295.348C327.701 299.399 328.591 303.45 329.449 307.505C330.199 311.047 330.969 314.584 331.632 318.138C332.299 321.713 333.5 325.138 334.357 328.659C334.465 329.106 334.643 329.537 334.796 329.972C335.438 331.803 336.656 332.842 338.619 333.281C343.441 334.354 348.221 335.609 353.022 336.773C355.789 337.44 358.415 338.538 361.132 339.358C361.447 339.453 361.766 339.532 362.085 339.615C362.093 339.205 361.985 338.766 362.366 338.443C362.043 336.806 361.028 335.895 359.496 335.237C353.775 332.784 347.782 331.165 341.867 329.297C340.608 328.899 339.349 328.506 338.077 328.158C337.128 327.897 336.714 327.338 336.577 326.339C335.989 322.027 335.306 317.728 334.689 313.42C334.088 309.241 333.55 305.053 332.949 300.874C332.506 297.804 332.005 294.747 331.545 291.682C331.445 291.032 331.396 290.369 331.325 289.715L331.321 289.706Z" fill="#D99771"/>
<path d="M319.996 261.641C317.275 262.983 314.703 264.582 312.118 266.172C310.093 267.419 308.187 268.823 306.381 270.339C303.892 272.435 301.887 274.883 300.694 278.044C299.849 280.289 299.34 282.571 298.921 284.891C298.727 285.976 298.743 287.152 298.925 288.246C299.398 291.091 299.907 293.937 300.823 296.687C301.469 296.828 302.115 296.973 302.765 297.114C303.444 296.542 303.246 295.784 303.134 295.088C303.018 294.38 302.753 293.697 302.587 292.992C302.032 290.623 301.543 288.254 301.597 285.789C301.618 284.845 301.85 283.971 302.015 283.068C302.84 278.619 304.799 274.867 308.639 272.261C309.509 271.669 310.18 270.849 311.049 270.227C313.837 268.243 316.736 266.433 319.632 264.619C320.199 264.263 320.758 263.94 321.09 263.331C320.779 262.73 320.601 262.047 319.992 261.637L319.996 261.641Z" fill="#EAA47A"/>
<path d="M399.977 176.918C397.637 176.902 395.375 177.341 393.225 178.231C389.667 179.706 386.296 181.491 383.574 184.308C382.564 185.356 381.47 186.325 380.501 187.41C378.107 190.107 376.33 193.164 375.294 196.643C375.12 197.231 375.406 197.666 375.576 198.151C375.841 198.113 376.106 198.08 376.371 198.043C377.303 197.065 377.626 195.744 378.248 194.597C379.2 192.836 380.497 191.349 381.71 189.804C382.597 188.669 383.475 187.518 384.539 186.511C388.201 183.065 392.273 180.389 397.301 179.416C397.947 179.292 398.581 179.114 399.227 178.989C399.733 178.894 400.043 178.592 400.263 178.157C400.292 178.02 400.317 177.887 400.346 177.751C400.3 177.506 400.259 177.258 400.213 177.013C400.118 177.013 400.043 176.984 399.977 176.914V176.918Z" fill="#63350E"/>
<path d="M377.377 218.54C377.17 216.812 376.814 215.131 375.952 213.59C376.076 215.276 376.582 217.02 377.377 218.54Z" fill="#894100"/>
<path d="M260.612 252.479C262.281 252.644 263.88 252.255 265.475 251.857C263.797 251.621 262.19 251.948 260.612 252.479Z" fill="#AB9A95"/>
<path d="M408.837 178.121C409.632 178.684 410.544 178.78 411.476 178.792C410.68 178.241 409.835 177.885 408.837 178.121Z" fill="#894100"/>
<path d="M376.371 198.043C376.106 198.08 375.84 198.113 375.575 198.151C375.534 198.279 375.493 198.407 375.451 198.536C375.787 198.693 375.927 198.946 375.861 199.319C375.816 199.571 375.749 199.832 375.919 200.068C376.441 199.476 376.4 198.76 376.371 198.043Z" fill="#894100"/>
<path d="M430.951 198.398C430.897 198.953 430.843 199.504 430.793 200.059C430.98 200.043 431.166 200.03 431.348 200.014C431.481 199.409 431.564 198.817 430.951 198.398Z" fill="#894100"/>
<path d="M375.542 202.468C375.989 202.062 375.994 201.59 375.749 201.08C375.43 201.507 375.352 201.967 375.542 202.468Z" fill="#894100"/>
<path d="M375.791 212.971C375.998 212.428 375.99 211.927 375.493 211.529C375.364 212.055 375.36 212.557 375.791 212.971Z" fill="#894100"/>
<path d="M362.362 338.439C361.981 338.758 362.089 339.197 362.08 339.612H362.275H362.47C362.809 339.185 362.822 338.792 362.362 338.439Z" fill="#FFB78C"/>
<path d="M96.4877 290.827C97.1546 291.257 97.8339 291.233 98.5215 290.889C97.8505 290.661 97.1711 290.69 96.4877 290.827Z" fill="#696D65"/>
<path d="M430.144 196.416C430.061 196.843 430.239 197.157 430.575 197.402C430.674 196.967 430.575 196.619 430.144 196.416Z" fill="#894100"/>
<path d="M353.138 202.168C353.481 201.924 353.655 201.605 353.56 201.174C353.158 201.393 353.051 201.741 353.138 202.168Z" fill="#D99771"/>
<path d="M357.338 207.768C356.911 207.734 356.58 207.913 356.307 208.219C356.795 208.401 357.147 208.273 357.338 207.768Z" fill="#C9B8B5"/>
<path d="M269.803 251.842C270.317 252.285 270.905 252.185 271.493 252.074C270.975 251.672 270.395 251.717 269.803 251.842Z" fill="#AB9A95"/>
<path d="M212.174 353.065C211.892 352.717 211.635 352.779 211.399 353.119C211.673 353.359 211.929 353.322 212.174 353.065Z" fill="#AB9A95"/>
<path d="M208.996 353.111C208.76 352.78 208.503 352.718 208.226 353.066C208.466 353.331 208.723 353.351 208.996 353.111Z" fill="#AB9A95"/>
<path d="M99.3471 316.076C99.3305 316.221 99.3181 316.362 99.3016 316.507C99.7158 316.482 100.13 316.461 100.54 316.441C100.225 316.039 99.7613 316.147 99.3471 316.08V316.076Z" fill="#696D65"/>
<path d="M276.165 253.006C276.53 253.412 276.981 253.379 277.449 253.271C277.081 252.898 276.629 252.923 276.165 253.006Z" fill="#AB9A95"/>
<path d="M272.98 252.23C273.224 252.528 273.531 252.573 273.879 252.466C273.63 252.184 273.324 252.13 272.98 252.23Z" fill="#AB9A95"/>
<path d="M214.195 352.756C213.889 352.673 213.607 352.69 213.375 352.934C213.698 353.091 213.963 353 214.195 352.756Z" fill="#AB9A95"/>
<path d="M354.127 208.904C353.907 208.821 353.717 208.862 353.568 209.053C353.8 209.173 353.982 209.111 354.127 208.904Z" fill="#C9B8B5"/>
<path d="M99.2592 290.86C99.4166 291.046 99.574 291.042 99.7314 290.855C99.574 290.855 99.4166 290.855 99.2592 290.86Z" fill="#696D65"/>
<path d="M254.236 254.453C254.464 254.499 254.634 254.412 254.75 254.221C254.522 254.18 254.352 254.263 254.236 254.453Z" fill="#AB9A95"/>
<path d="M255.404 254.028C255.64 254.086 255.81 253.995 255.935 253.8C255.707 253.759 255.529 253.833 255.404 254.028Z" fill="#AB9A95"/>
<path d="M101.749 316.824C101.633 316.633 101.467 316.571 101.256 316.641C101.372 316.836 101.529 316.911 101.749 316.824Z" fill="#696D65"/>
<path d="M256.589 253.614C256.826 253.68 257 253.593 257.128 253.399C256.9 253.353 256.722 253.419 256.589 253.614Z" fill="#AB9A95"/>
<path d="M103.353 317.168C103.22 316.994 103.05 316.948 102.847 317.035C102.98 317.217 103.141 317.288 103.353 317.168Z" fill="#696D65"/>
<path d="M257.787 253.223C258.019 253.289 258.193 253.206 258.325 253.016C258.102 252.966 257.919 253.032 257.787 253.223Z" fill="#AB9A95"/>
<path d="M259.008 252.865C259.228 252.927 259.402 252.865 259.53 252.674C259.311 252.608 259.141 252.683 259.008 252.865Z" fill="#AB9A95"/>
<path d="M205.049 352.523C204.925 352.357 204.767 352.316 204.581 352.399C204.705 352.565 204.85 352.639 205.049 352.523Z" fill="#AB9A95"/>
<path d="M274.955 252.677C275.079 252.863 275.253 252.93 275.469 252.872C275.34 252.694 275.175 252.611 274.955 252.677Z" fill="#AB9A95"/>
<path d="M207.435 352.961C207.306 352.779 207.14 352.733 206.938 352.833C207.07 353.011 207.232 353.065 207.435 352.961Z" fill="#AB9A95"/>
<path d="M60.5673 329.457C60.6336 329.233 60.7123 328.98 60.7993 328.711C60.8987 328.367 60.9981 328.024 61.0975 327.68C61.1099 327.676 61.1182 327.667 61.1306 327.659C61.8555 325.389 62.7668 322.631 62.7668 322.631C62.7668 322.631 70.4503 304.795 72.0409 302.409C72.4551 301.531 72.8694 300.653 73.2794 299.77C74.6836 296.747 76.8043 294.415 79.6003 292.592C82.3506 290.803 85.2874 289.871 88.5596 289.937C90.6141 289.978 92.6148 290.343 94.5906 290.869C94.545 291.523 94.1349 292.107 94.2633 292.799C94.4332 293.702 94.5574 294.613 94.7438 295.516C95.8788 300.984 97.0013 306.456 98.19 311.915C98.4966 313.319 98.6912 314.769 99.3457 316.082C99.3291 316.227 99.3167 316.368 99.3001 316.513C98.8694 317.254 98.4344 317.991 98.0078 318.737C94.7894 324.358 91.6828 330.037 88.8206 335.848C88.2366 337.033 87.665 338.226 87.0892 339.414C87.2756 340.798 87.8099 342.086 88.2987 343.37C89.2555 345.901 89.533 348.502 89.2969 351.161C89.0898 353.481 88.481 355.672 87.1389 357.66C85.3412 360.324 82.7731 361.314 79.7784 360.953C77.231 360.647 74.7333 359.868 72.5794 358.34C70.4214 356.807 68.4621 355.076 66.7639 353.017C64.0425 349.72 62.3318 345.984 61.4578 341.833C61.4371 341.9 61.4288 341.937 61.4288 341.937C61.4288 341.937 60.5259 339.7 60.2111 336.208C59.8963 332.717 59.8963 331.656 60.5631 329.461L60.5673 329.457Z" fill="#FFB68B"/>
<path d="M94.5912 290.868C95.2166 290.545 95.8545 290.735 96.4882 290.822C97.1551 291.253 97.8344 291.228 98.522 290.884C98.7664 290.876 99.015 290.863 99.2593 290.855C99.4167 291.042 99.5741 291.037 99.7315 290.851C103.948 290.723 108.165 290.718 112.382 290.897C112.58 290.772 112.763 290.805 112.932 290.955C117.754 291.071 122.575 291.091 127.388 291.385L127.372 291.365C127.372 291.365 157.721 292.587 172.62 298.796C172.844 298.779 173.034 298.874 173.204 299.044C173.527 299.185 173.842 299.33 174.149 299.475C174.149 299.475 174.149 299.475 174.153 299.475C175.83 300.03 177.516 300.56 179.165 301.194C182.934 302.644 186.6 304.342 190.203 306.173C191.454 306.811 191.835 306.769 192.854 305.825C193.873 304.88 194.867 303.907 195.841 302.917C197.001 301.732 198.136 300.531 199.457 299.52C199.979 299.119 200.447 298.642 200.927 298.191C204.581 294.728 208.18 291.207 211.892 287.811C215.412 284.592 218.908 281.353 222.33 278.027C225.13 275.306 227.868 272.518 230.908 270.045C235.692 266.16 240.65 262.507 245.592 258.833C248.226 256.873 251.171 255.556 254.232 254.458C254.46 254.504 254.63 254.417 254.746 254.226C254.965 254.16 255.181 254.098 255.4 254.032C255.636 254.09 255.806 253.999 255.93 253.804C256.15 253.742 256.365 253.68 256.585 253.618C256.821 253.684 256.995 253.597 257.123 253.402C257.343 253.344 257.562 253.282 257.782 253.224C258.014 253.29 258.188 253.208 258.32 253.017C258.548 252.967 258.776 252.918 259.004 252.864C259.223 252.926 259.397 252.864 259.526 252.673C259.886 252.611 260.251 252.545 260.611 252.483C262.28 252.648 263.879 252.259 265.474 251.861C266.915 251.762 268.357 251.725 269.802 251.845C270.316 252.288 270.904 252.189 271.492 252.077C271.989 252.131 272.486 252.184 272.979 252.234C273.224 252.532 273.53 252.578 273.878 252.47C274.234 252.541 274.595 252.611 274.951 252.681C275.075 252.868 275.249 252.934 275.465 252.876C275.697 252.922 275.929 252.963 276.161 253.009C276.525 253.415 276.977 253.382 277.445 253.274C277.929 253.439 278.41 253.605 278.894 253.775C279.064 254.881 279.164 256.003 279.416 257.093C280.1 260.046 280.659 263.016 281.152 266.011C281.781 269.846 282.676 273.636 283.475 277.439C284.722 283.375 285.994 289.302 287.228 295.238C287.39 296.008 287.386 296.812 287.456 297.603C286.971 298.568 286.242 299.322 285.451 300.042C282.9 302.362 280.154 304.441 277.395 306.5C265.673 315.248 253.913 323.955 242.187 332.699C235.183 337.922 228.037 342.95 221.178 348.368C220.242 349.106 219.347 349.897 218.386 350.597C217.102 351.533 215.777 352.411 214.186 352.763C213.88 352.68 213.598 352.697 213.366 352.941C212.969 352.983 212.567 353.028 212.165 353.07C211.883 352.722 211.626 352.784 211.39 353.123C210.591 353.123 209.787 353.119 208.988 353.115C208.752 352.784 208.495 352.722 208.218 353.07C207.952 353.036 207.691 353.003 207.426 352.97C207.298 352.788 207.132 352.742 206.929 352.842C206.3 352.738 205.67 352.635 205.041 352.531C204.916 352.365 204.759 352.324 204.572 352.407C204.2 352.336 203.827 352.262 203.454 352.192C203.243 352.27 203.09 352.192 202.982 352.005C202.742 351.939 202.501 351.873 202.261 351.81C202.046 351.873 201.901 351.781 201.797 351.595C198.252 350.137 194.652 348.824 191.04 347.536C185.436 345.531 179.732 343.816 174.215 341.579C172.131 340.734 170.094 339.778 167.985 339.003C162.584 337.023 157.191 335.018 151.736 333.196C136.998 328.271 122.231 323.437 107.473 318.566C106.094 318.11 104.719 317.642 103.339 317.178C103.207 317.004 103.037 316.959 102.834 317.046C102.469 316.975 102.101 316.905 101.736 316.83C101.62 316.64 101.455 316.578 101.243 316.648C101.007 316.582 100.771 316.516 100.531 316.449C100.216 316.047 99.7522 316.155 99.338 316.089C98.6836 314.776 98.4889 313.326 98.1824 311.922C96.9936 306.463 95.8711 300.995 94.7361 295.523C94.5497 294.624 94.4255 293.709 94.2556 292.806C94.1231 292.119 94.5373 291.53 94.5829 290.876L94.5912 290.868Z" fill="#696D65"/>
<path d="M351.199 206.411C351.319 206.042 351.51 205.698 351.671 205.346C352.16 204.286 352.649 203.23 353.137 202.169C353.481 201.925 353.655 201.606 353.56 201.175C354.972 197.609 356.335 194.022 357.806 190.48C359.657 186.019 361.542 181.571 364.234 177.524C366.102 173.788 368.099 171.505 369.242 170.383L369.292 170.321C369.292 170.321 369.304 170.312 369.317 170.312C369.59 170.047 369.805 169.853 369.954 169.724C369.975 169.645 369.996 169.567 370.004 169.476C372.191 166.825 374.697 164.617 377.882 163.345C380.74 161.403 387.268 162.339 387.268 162.339L387.227 162.388C387.637 162.463 388.051 162.529 388.457 162.616C391.141 163.192 393.374 164.505 395.126 166.634C396.485 168.283 397.611 170.064 398.431 172.035C398.991 173.377 399.5 174.744 400.03 176.099C400.014 176.372 399.997 176.641 399.981 176.915C397.64 176.898 395.379 177.337 393.229 178.228C389.671 179.702 386.299 181.488 383.578 184.304C382.567 185.352 381.474 186.322 380.504 187.407C378.11 190.103 376.333 193.16 375.298 196.64C375.124 197.228 375.41 197.663 375.579 198.151C375.538 198.28 375.497 198.408 375.455 198.533C372.444 200.156 369.515 201.937 366.413 203.399C363.377 204.829 360.361 206.307 357.338 207.765C356.911 207.732 356.58 207.91 356.306 208.217C355.581 208.445 354.852 208.672 354.127 208.9C353.908 208.817 353.717 208.859 353.568 209.049C353.187 208.995 352.785 209 352.425 208.879C351.352 208.523 350.847 207.492 351.199 206.407V206.411Z" fill="#894100"/>
</svg>
