<svg width="500" height="500" viewBox="0 0 500 500" fill="none" xmlns="http://www.w3.org/2000/svg">
<path d="M202.997 358.63C201.87 349.648 200.66 340.679 199.631 331.687C198.152 318.739 195.046 304.909 192.884 292.06C189.779 273.6 185.394 255.782 189.69 237.713C190.341 234.98 190.017 232.983 188.169 230.747C166.621 204.642 163.398 174.864 147.615 145.206C142.808 136.173 140.932 126.21 140.875 115.964C140.779 98.6004 154.464 84.9923 171.853 85.4082C177.301 85.5384 182.816 85.5384 188.166 86.9513C189.036 88.9198 189.865 90.9105 190.786 92.8568C199.495 111.316 208.216 129.769 216.935 148.226C219.859 163.358 222.869 178.474 225.679 193.628C228.232 207.405 232.204 220.975 233.156 234.973C233.804 244.482 233.032 254.093 233.836 263.64C225.711 279.506 221.421 296.708 216.367 313.647C211.893 328.636 207.448 343.638 202.99 358.63H202.997Z" fill="#6A6C65"/>
<path d="M202.997 358.63C207.454 343.635 211.896 328.636 216.373 313.647C221.428 296.711 225.717 279.506 233.842 263.64C236.623 259.367 239.373 255.071 242.195 250.826C247.421 242.955 253.714 235.843 258.645 227.763C263.55 222.53 267.291 216.403 271.669 210.767C272.396 209.83 272.177 208.83 272.015 207.833C270.697 199.769 269.402 191.701 268.018 183.646C266.589 175.328 270.164 168.076 277.317 165.009C284.909 161.751 292.726 164.199 297.739 171.454C302.72 178.661 307.981 185.716 310.499 194.301C311.63 203.604 309.286 212.202 305.216 220.454C301.549 226.052 298.796 232.233 294.443 237.396C287.995 246.213 281.473 254.976 275.13 263.866C271.761 268.587 267.608 272.784 265.325 278.249C261.493 290.288 257.508 302.283 253.86 314.377C248.799 331.157 242.075 347.321 236.017 363.736C234.89 366.79 232.893 369.635 233.229 373.137C230.27 375.902 229.946 379.9 228.568 383.376C226.463 388.688 226.711 388.529 232.026 390.371C237.607 392.304 242.751 395.21 246.697 399.747C252.203 406.071 252.016 409.097 246.091 414.107C243.989 415.301 241.897 413.987 239.785 414.025C230.079 414.209 220.367 414.053 210.661 414.145C208.493 414.164 207.124 413.498 206.022 411.58C203.228 406.713 200.25 401.953 197.332 397.156C194.646 392.739 194.329 388.148 195.84 383.221C198.342 375.061 200.619 366.834 202.993 358.637L202.997 358.63Z" fill="#F6BB92"/>
<path d="M310.5 194.301C307.982 185.716 302.721 178.661 297.739 171.454C292.726 164.196 284.909 161.751 277.318 165.008C270.164 168.076 266.586 175.327 268.018 183.646C269.402 191.698 270.695 199.768 272.015 207.833C272.177 208.83 272.396 209.83 271.669 210.767C267.291 216.402 263.551 222.53 258.642 227.762C250.997 224.105 245.802 218.307 243.335 210.16C240.929 202.216 242.72 194.79 246.301 187.653C247.406 185.452 247.428 183.579 246.501 181.214C243.751 174.191 240.453 167.507 235.998 161.411C250.952 144.666 265.907 127.921 280.861 111.176C281.664 111.176 282.315 111.503 282.934 112.018C301.981 127.845 313.681 147.441 313.44 172.841C313.373 180.045 312.862 187.341 310.506 194.304L310.5 194.301Z" fill="#8A8AD9"/>
<path d="M280.854 111.174C265.9 127.918 250.945 144.663 235.991 161.405C230.359 155.973 224.606 150.712 216.935 148.223C208.216 129.766 199.491 111.313 190.785 92.8537C189.868 90.9074 189.039 88.9167 188.166 86.9482C195.081 86.4434 201.866 87.8626 208.683 88.5262C220.815 89.7105 233.007 90.6185 244.872 93.7745C256.778 96.9431 268.125 101.337 278.225 108.557C279.238 109.281 280.546 109.729 280.854 111.17V111.174Z" fill="#F6BB92"/>
<path d="M294.443 237.392C298.796 232.229 301.549 226.048 305.216 220.45C314.113 223.07 322.364 226.864 329.035 233.531C330.575 235.716 332.197 237.849 333.642 240.094C341.907 252.956 341.325 271.228 329.362 282.169C327.165 284.179 323.939 285.154 322.78 288.278C322.047 287.576 321.323 287.643 320.415 288.062C314.567 290.761 308.391 290.964 302.121 290.31C301.851 288.573 302.702 287.071 303.216 285.525C305.064 279.994 307.023 274.505 308.912 268.99C309.401 267.561 309.671 266.269 308.763 264.694C304.886 257.976 301.212 251.14 297.466 244.348C296.771 241.894 294.72 240.027 294.443 237.392Z" fill="#7A4922"/>
<path d="M332.772 231.658C340.792 229.385 347.755 231.395 353.403 237.319C359.102 243.294 360.433 250.508 357.886 258.303C355.905 264.364 353.549 270.304 351.492 276.343C347.698 287.475 349.473 298.867 350.082 310.195C350.212 312.583 350.4 314.967 350.603 317.955C339.119 309.849 328.641 301.67 323.031 288.84C337.982 284.56 347.634 268.945 343.783 251.422C342.097 243.748 337.703 237.545 332.769 231.658H332.772Z" fill="#7A4922"/>
<path d="M297.466 244.349C301.212 251.14 304.889 257.976 308.763 264.695C309.671 266.269 309.401 267.562 308.912 268.99C307.023 274.505 305.064 279.998 303.216 285.526C302.702 287.069 301.851 288.574 302.121 290.311C295.151 290.863 287.274 288.526 281.219 292.019C276.711 294.622 277.524 291.26 276.952 288.936C276.133 285.602 275.365 282.16 271.39 281.011C271.364 279.242 272.285 277.896 273.282 276.537C278.762 269.073 284.106 261.504 289.709 254.134C292.224 250.826 293.951 246.87 297.463 244.349H297.466Z" fill="#F4BA92"/>
<path d="M237.89 376.296C247.872 381.389 257.267 387.485 266.617 393.609C271.196 396.61 272.323 401.601 270.593 406.443C268.815 411.424 265.084 414.018 259.499 414.088C257.08 414.12 254.66 414.047 252.241 414.021C257.889 409.526 258.181 407.211 253.984 401.344C249.45 395.009 242.824 391.907 235.75 389.564C234.153 389.034 232.435 388.723 233.394 386.681C235.001 383.262 235.604 379.414 237.89 376.299V376.296Z" fill="#F6BB92"/>
<path d="M332.772 231.659C337.706 237.545 342.1 243.749 343.786 251.423C347.637 268.946 337.985 284.561 323.034 288.841C322.834 288.707 322.749 288.523 322.78 288.285C323.939 285.161 327.165 284.186 329.362 282.176C341.326 271.235 341.907 252.963 333.642 240.101C332.197 237.853 330.575 235.723 329.035 233.538C330.14 232.633 331.308 231.852 332.772 231.662V231.659Z" fill="#5C381A"/>
<path d="M297.466 244.349C293.954 246.87 292.227 250.826 289.712 254.135C284.109 261.507 278.765 269.073 273.285 276.537C272.288 277.896 271.37 279.243 271.393 281.011C269.37 280.087 267.348 279.166 265.325 278.242C267.608 272.781 271.761 268.581 275.13 263.86C281.473 254.97 287.995 246.207 294.443 237.39C294.719 240.025 296.77 241.892 297.466 244.346V244.349Z" fill="#DCA782"/>
<path d="M237.89 376.296C235.604 379.411 234.998 383.259 233.394 386.678C232.435 388.72 234.153 389.034 235.75 389.561C242.824 391.904 249.45 395.006 253.984 401.34C258.182 407.208 257.889 409.525 252.241 414.018C250.193 414.047 248.145 414.072 246.098 414.101C252.022 409.091 252.213 406.068 246.704 399.74C242.754 395.203 237.614 392.298 232.032 390.364C226.717 388.523 226.47 388.685 228.575 383.37C229.953 379.896 230.273 375.896 233.236 373.13C235.01 373.857 236.709 374.692 237.89 376.29V376.296Z" fill="#DCA782"/>
</svg>
