<svg width="497" height="497" viewBox="0 0 497 497" fill="none" xmlns="http://www.w3.org/2000/svg">
<path d="M166.367 424.546C172.01 428.872 187.434 403.29 194.394 397.271L197.215 385.797C240.855 337.079 256.091 310.18 256.091 310.18C277.158 288.737 303.492 256.007 317.788 236.069C322.114 230.049 303.869 178.322 289.009 205.032C279.792 219.328 282.049 218.387 278.663 224.406C269.634 236.069 244.052 284.034 237.093 294.944C236.152 296.449 184.613 375.639 184.613 375.639C184.613 375.639 182.167 378.649 176.524 382.223C168.812 387.114 161.288 397.835 159.595 405.359C158.09 412.131 160.724 420.219 166.367 424.546Z" fill="#ECAD83"/>
<path d="M186.495 402.725C186.495 402.725 180.099 409.685 183.485 413.447C186.306 416.645 187.623 417.397 194.583 397.458C194.395 397.27 191.949 395.765 186.495 402.725Z" fill="#ECAD83"/>
<path d="M239.51 220.06C248.666 240.388 257.447 241.329 281.737 253.187C288.276 256.387 321.721 259.21 325.831 254.505C327.326 252.999 328.447 251.117 329.381 249.046C332.371 242.647 336.855 224.013 316.489 185.239C308.268 166.793 297.805 119.172 281.55 94.7035C262.305 65.9054 248.105 58 248.105 58L228.86 71.3638L207 86.6099C222.882 155.311 238.016 175.828 241.752 198.979C241.752 198.791 236.708 214.225 239.51 220.06Z" fill="#FF8AA0"/>
<path d="M292.962 258.585C292.962 258.585 297.417 271.268 300.572 287.073L325.443 290C321.174 274.195 326 253.512 326 253.512C302.799 255.073 298.53 250.585 277 250L292.962 258.585Z" fill="#ECAD83"/>
<path d="M282.251 316.982C276.415 327.541 282.251 336.592 286.393 341.494C299.006 356.955 310.49 357.144 324.609 355.07C343.623 352.241 343.435 301.333 340.611 293.225C333.081 271.919 301.642 267.77 289.216 269.279C275.662 270.787 279.615 275.124 280.933 280.403C280.933 280.592 280.368 281.535 280.368 281.535C280.557 283.42 281.121 285.871 280.18 288.7C280.18 288.7 280.933 290.397 281.121 291.151C281.31 291.716 281.31 292.094 280.557 292.471C278.674 293.413 276.98 294.356 276.227 295.299C274.344 298.127 284.887 312.08 282.251 316.982Z" fill="#F6BB92"/>
<path d="M287 285.165C287 285.165 285.615 284.707 280.077 285.317C279.385 285.622 278.346 286.537 279.558 287.757C280.423 288.825 283.019 286.08 287 285.165Z" fill="#D6876B"/>
<path d="M287 285.8C287 285.8 285.295 282.6 279.424 282C278.666 282.2 278.098 283 278.098 283.4C277.53 285.4 279.613 286 279.613 286C285.485 285.2 287 285.8 287 285.8Z" fill="#CC785E"/>
<path d="M325.471 357.139C348.63 353.791 374.424 316.41 337.333 282.377C334.885 280.145 329.613 277.728 323.212 284.051C318.693 288.514 315.869 294.094 315.869 294.094C315.116 295.767 314.174 297.627 313.421 299.487C312.48 301.533 315.681 312.691 313.233 313.435C291.016 320.316 283.297 333.52 284.05 339.471C288.945 353.047 300.807 360.672 325.471 357.139Z" fill="#602F0F"/>
<path d="M320.856 299.771C316.087 290.082 311.869 290.268 306 291.759L311.685 307.038L315.537 313C321.406 311.509 325.807 309.46 320.856 299.771Z" fill="#F6BB92"/>
<path d="M356.883 317.934C363.007 321.622 362.242 332.869 354.969 343.194C347.697 353.335 336.788 358.498 330.664 354.81C324.54 351.122 326.454 342.272 333.726 332.131C340.998 321.991 350.759 314.247 356.883 317.934Z" fill="#4C230C"/>
<path d="M311.017 311.314C311.581 313.195 311.958 314.888 311.958 316.205C312.146 318.086 312.146 319.403 312.146 319.403L318.541 316.017C318.353 315.076 318.353 314.136 318.165 313.007C318.165 313.007 317.413 313.384 316.284 313.948H316.472C315.343 312.631 313.839 310.374 312.334 307.176C312.146 307.176 309.324 305.671 311.017 311.314Z" fill="#602F0F"/>
<path d="M360.864 317.71C367.259 321.66 366.13 334.263 358.23 345.549C350.33 356.835 338.856 362.854 332.46 358.904C326.065 354.954 328.322 345.173 336.034 333.887C344.123 322.412 354.468 313.572 360.864 317.71Z" fill="#602F0F"/>
<path d="M359.791 339.03C360.537 339.386 359.231 342.414 356.806 345.799C354.381 349.005 351.956 351.32 351.209 350.964C350.463 350.608 351.769 348.114 354.194 344.908C356.433 341.524 359.044 338.674 359.791 339.03Z" fill="#4C230C"/>
<path d="M235.77 57C193.813 58.3137 184.217 70.3245 174.809 84.3996C174.809 84.3996 166.343 98.2871 165.214 111.049C162.956 137.322 179.325 152.711 179.325 152.711C179.325 152.711 238.028 162.282 238.969 148.77C239.533 137.698 240.286 127.563 241.038 118.555C241.791 110.486 248 57.7507 248 57.7507C246.118 57 235.77 57 235.77 57Z" fill="#3D3C3C"/>
<path d="M237.117 432.72C229.656 431.018 208.391 432.72 205.593 432.53C198.877 432.341 192.348 428.559 193.654 422.13C194.587 417.213 197.012 412.864 196.639 409.838C195.146 394.142 188.245 347.055 186.752 328.145C186.379 323.796 186.193 319.257 186.006 314.529C185.446 295.808 223.5 306.398 222.941 313.206C221.075 340.437 216.598 404.732 214.733 414.566C214.733 414.566 250.735 416.835 249.989 423.832C249.615 427.992 244.579 434.421 237.117 432.72Z" fill="#D89D75"/>
<path d="M228.779 438.722C221.121 437.033 199.296 438.722 196.425 438.534C189.533 438.346 182.832 434.594 184.172 428.214C185.13 423.335 187.618 419.02 187.235 416.017C185.704 400.443 186.661 353.722 185.13 334.958C184.747 330.642 184.555 326.139 184.364 321.448C183.789 302.872 222.844 313.379 222.27 320.134C220.355 347.154 207.72 410.951 205.805 420.708C205.805 420.708 242.754 422.96 241.988 429.903C241.605 434.031 236.436 440.41 228.779 438.722Z" fill="#ECAD83"/>
<path d="M188.005 259.32C185.379 280.858 184.254 301.272 184.817 320C191.006 317.753 216.326 317.004 221.953 318.689C222.328 311.947 229.08 260.069 229.08 260.069C231.143 243.588 244.459 146.95 240.145 116.798C239.395 109.119 237.895 102.19 236.394 96.5711C233.393 85.5214 172.438 91.889 170 107.059C172.063 140.021 187.818 200.513 189.881 215.683C191.756 230.666 188.005 259.32 188.005 259.32Z" fill="#3D3C3C"/>
<path d="M171.068 438.466C176.899 442.416 191.007 416.082 197.59 409.687L199.66 398.212C240.477 347.237 254.209 319.398 254.209 319.398C279.979 290.054 313.837 240.96 320.232 227.417C331.142 205.033 294.65 184.906 281.295 212.557C272.831 227.229 275.088 226.288 272.078 232.496C263.614 244.722 240.854 293.816 234.458 305.291C233.518 306.795 186.492 388.807 186.492 388.807C186.492 388.807 184.235 391.817 178.78 395.767C171.444 401.034 164.485 412.132 163.168 419.844C162.227 426.428 165.237 434.328 171.068 438.466Z" fill="#F6BB92"/>
<path d="M190.067 415.518C190.067 415.518 184.048 422.854 187.622 426.428C190.631 429.438 191.948 430.19 197.779 409.875C197.591 409.687 195.146 408.37 190.067 415.518Z" fill="#F6BB92"/>
</svg>
