<svg width="500" height="500" viewBox="0 0 500 500" fill="none" xmlns="http://www.w3.org/2000/svg">
<path d="M202.994 375.231C201.867 366.249 200.657 357.28 199.629 348.288C198.149 335.341 195.044 321.51 192.882 308.661C189.777 290.201 185.392 272.383 189.688 254.314C190.339 251.581 190.015 249.584 188.167 247.348C166.618 221.243 163.396 191.465 147.613 161.807C142.806 152.774 140.929 142.811 140.872 132.566C140.777 115.201 154.461 101.593 171.851 102.009C177.299 102.139 182.814 102.139 188.164 103.552C189.034 105.521 189.862 107.512 190.783 109.458C199.492 127.917 208.214 146.37 216.933 164.827C219.857 179.959 222.867 195.075 225.676 210.229C228.229 224.006 232.201 237.576 233.154 251.574C233.801 261.083 233.03 270.694 233.833 280.241C225.708 296.107 221.419 313.309 216.364 330.248C211.891 345.237 207.446 360.239 202.988 375.231H202.994Z" fill="#6A6C65"/>
<path d="M202.995 375.231C207.452 360.236 211.894 345.237 216.371 330.248C221.426 313.312 225.715 296.107 233.84 280.242C236.621 275.968 239.371 271.672 242.193 267.427C247.419 259.556 253.712 252.444 258.643 244.364C263.548 239.132 267.289 233.004 271.667 227.368C272.394 226.432 272.175 225.431 272.013 224.434C270.695 216.37 269.4 208.302 268.016 200.247C266.587 191.929 270.162 184.677 277.315 181.61C284.907 178.352 292.724 180.8 297.737 188.055C302.718 195.262 307.979 202.317 310.497 210.903C311.628 220.205 309.284 228.803 305.214 237.055C301.547 242.653 298.794 248.834 294.441 253.997C287.993 262.814 281.471 271.577 275.128 280.467C271.759 285.188 267.606 289.386 265.323 294.85C261.491 306.889 257.506 318.884 253.858 330.978C248.797 347.758 242.073 363.922 236.015 380.337C234.888 383.391 232.891 386.236 233.227 389.738C230.268 392.503 229.944 396.501 228.566 399.977C226.461 405.289 226.709 405.13 232.024 406.972C237.605 408.905 242.749 411.811 246.695 416.348C252.201 422.672 252.014 425.698 246.089 430.708C243.987 431.902 241.895 430.588 239.784 430.626C230.078 430.81 220.365 430.654 210.659 430.746C208.491 430.765 207.122 430.099 206.02 428.181C203.226 423.314 200.248 418.554 197.331 413.757C194.644 409.34 194.327 404.749 195.838 399.822C198.34 391.662 200.617 383.436 202.992 375.238L202.995 375.231Z" fill="#F6BB92"/>
<path d="M310.497 210.903C307.979 202.317 302.718 195.263 297.736 188.055C292.723 180.797 284.906 178.353 277.315 181.61C270.161 184.677 266.583 191.929 268.015 200.247C269.399 208.299 270.692 216.37 272.012 224.435C272.174 225.431 272.393 226.432 271.666 227.368C267.288 233.004 263.548 239.132 258.639 244.364C250.994 240.706 245.8 234.909 243.333 226.762C240.926 218.818 242.717 211.392 246.298 204.254C247.403 202.054 247.425 200.181 246.498 197.815C243.748 190.792 240.45 184.109 235.995 178.013C250.949 161.268 265.904 144.523 280.858 127.778C281.661 127.778 282.312 128.105 282.931 128.619C301.978 144.447 313.678 164.043 313.437 189.443C313.37 196.647 312.859 203.943 310.503 210.906L310.497 210.903Z" fill="#8A8AD9"/>
<path d="M280.852 127.775C265.898 144.52 250.943 161.265 235.989 178.006C230.357 172.574 224.604 167.313 216.933 164.824C208.214 146.367 199.489 127.914 190.783 109.455C189.866 107.509 189.037 105.518 188.164 103.549C195.079 103.044 201.864 104.464 208.681 105.127C220.813 106.312 233.005 107.22 244.87 110.376C256.776 113.544 268.123 117.938 278.223 125.158C279.236 125.882 280.544 126.33 280.852 127.771V127.775Z" fill="#F6BB92"/>
<path d="M294.44 253.994C298.793 248.831 301.546 242.649 305.213 237.052C314.11 239.671 322.361 243.465 329.032 250.133C330.572 252.317 332.194 254.451 333.639 256.696C341.904 269.557 341.323 287.83 329.359 298.771C327.162 300.78 323.936 301.755 322.777 304.879C322.044 304.178 321.32 304.244 320.412 304.663C314.564 307.362 308.388 307.565 302.118 306.911C301.848 305.175 302.699 303.673 303.213 302.127C305.061 296.596 307.02 291.106 308.909 285.591C309.398 284.162 309.668 282.87 308.76 281.295C304.883 274.577 301.21 267.741 297.463 260.95C296.768 258.496 294.717 256.629 294.44 253.994Z" fill="#7A4922"/>
<path d="M332.769 248.26C340.789 245.986 347.752 247.996 353.4 253.921C359.1 259.896 360.43 267.11 357.884 274.904C355.902 280.965 353.546 286.906 351.489 292.945C347.695 304.076 349.47 315.468 350.079 326.797C350.21 329.184 350.397 331.569 350.6 334.556C339.116 326.45 328.639 318.272 323.028 305.441C337.979 301.162 347.631 285.547 343.78 268.024C342.094 260.35 337.7 254.146 332.766 248.26H332.769Z" fill="#7A4922"/>
<path d="M297.464 260.95C301.21 267.742 304.887 274.577 308.76 281.296C309.668 282.87 309.398 284.163 308.909 285.591C307.02 291.106 305.061 296.599 303.213 302.127C302.699 303.67 301.848 305.175 302.118 306.912C295.149 307.464 287.272 305.127 281.217 308.62C276.709 311.223 277.521 307.861 276.95 305.537C276.131 302.203 275.362 298.761 271.387 297.612C271.362 295.844 272.283 294.497 273.28 293.138C278.76 285.674 284.103 278.105 289.707 270.736C292.222 267.427 293.949 263.471 297.46 260.95H297.464Z" fill="#F4BA92"/>
<path d="M237.888 392.897C247.87 397.99 257.265 404.086 266.615 410.211C271.193 413.211 272.32 418.202 270.59 423.044C268.812 428.026 265.081 430.62 259.497 430.69C257.077 430.721 254.658 430.648 252.239 430.623C257.887 426.127 258.179 423.812 253.982 417.945C249.448 411.611 242.822 408.509 235.748 406.166C234.151 405.636 232.433 405.324 233.392 403.283C234.998 399.863 235.602 396.015 237.888 392.901V392.897Z" fill="#F6BB92"/>
<path d="M332.77 248.26C337.704 254.146 342.098 260.35 343.784 268.024C347.635 285.547 337.983 301.162 323.032 305.442C322.832 305.308 322.746 305.124 322.778 304.886C323.937 301.762 327.163 300.787 329.36 298.777C341.323 287.836 341.904 269.564 333.64 256.702C332.195 254.454 330.573 252.324 329.033 250.139C330.138 249.234 331.306 248.453 332.77 248.263V248.26Z" fill="#5C381A"/>
<path d="M297.464 260.95C293.952 263.471 292.225 267.427 289.71 270.736C284.107 278.108 278.763 285.674 273.283 293.139C272.286 294.497 271.368 295.844 271.391 297.612C269.368 296.688 267.346 295.767 265.323 294.844C267.606 289.383 271.759 285.182 275.128 280.461C281.471 271.571 287.993 262.808 294.441 253.991C294.717 256.626 296.769 258.493 297.464 260.947V260.95Z" fill="#DCA782"/>
<path d="M237.887 392.897C235.601 396.012 234.995 399.86 233.391 403.279C232.433 405.321 234.15 405.635 235.747 406.162C242.821 408.505 249.447 411.607 253.981 417.941C258.179 423.809 257.887 426.127 252.238 430.619C250.19 430.648 248.142 430.673 246.095 430.702C252.019 425.692 252.21 422.669 246.701 416.341C242.751 411.804 237.611 408.899 232.029 406.965C226.714 405.124 226.467 405.286 228.572 399.971C229.95 396.497 230.27 392.497 233.233 389.731C235.007 390.459 236.706 391.294 237.887 392.891V392.897Z" fill="#DCA782"/>
</svg>
