<svg width="500" height="500" viewBox="0 0 500 500" fill="none" xmlns="http://www.w3.org/2000/svg">
<path d="M202.994 358.631C201.867 349.649 200.657 340.679 199.629 331.688C198.149 318.74 195.044 304.91 192.882 292.06C189.777 273.601 185.392 255.783 189.688 237.714C190.339 234.98 190.015 232.983 188.167 230.748C166.618 204.643 163.396 174.865 147.613 145.207C142.806 136.174 140.929 126.211 140.872 115.965C140.777 98.6009 154.461 84.9928 171.851 85.4087C177.299 85.5389 182.814 85.5389 188.164 86.9518C189.034 88.9203 189.862 90.911 190.783 92.8573C199.492 111.317 208.214 129.77 216.933 148.226C219.857 163.358 222.867 178.474 225.677 193.629C228.229 207.405 232.201 220.975 233.154 234.974C233.801 244.483 233.03 254.094 233.833 263.641C225.708 279.506 221.419 296.709 216.364 313.647C211.891 328.636 207.446 343.638 202.988 358.631H202.994Z" fill="#6A6C65"/>
<path d="M202.994 358.631C207.452 343.635 211.894 328.636 216.371 313.647C221.425 296.712 225.715 279.506 233.839 263.641C236.621 259.367 239.37 255.072 242.193 250.827C247.419 242.956 253.712 235.844 258.643 227.763C263.548 222.531 267.288 216.403 271.666 210.768C272.394 209.831 272.174 208.831 272.013 207.834C270.695 199.769 269.399 191.702 268.015 183.647C266.586 175.328 270.161 168.076 277.315 165.009C284.906 161.752 292.723 164.2 297.736 171.455C302.718 178.662 307.979 185.717 310.497 194.302C311.627 203.605 309.284 212.203 305.214 220.454C301.546 226.052 298.794 232.234 294.441 237.396C287.992 246.213 281.471 254.976 275.127 263.866C271.759 268.588 267.606 272.785 265.323 278.249C261.491 290.289 257.506 302.284 253.858 314.378C248.797 331.157 242.072 347.321 236.014 363.736C234.887 366.791 232.89 369.635 233.227 373.137C230.268 375.903 229.944 379.9 228.566 383.377C226.461 388.689 226.708 388.53 232.023 390.371C237.605 392.305 242.748 395.21 246.695 399.747C252.2 406.072 252.013 409.097 246.089 414.108C243.987 415.301 241.894 413.987 239.783 414.025C230.077 414.209 220.365 414.054 210.659 414.146C208.49 414.165 207.122 413.498 206.02 411.58C203.226 406.713 200.248 401.954 197.33 397.156C194.644 392.74 194.326 388.149 195.838 383.221C198.34 375.061 200.616 366.835 202.991 358.637L202.994 358.631Z" fill="#F6BB92"/>
<path d="M310.497 194.302C307.979 185.717 302.718 178.662 297.736 171.455C292.723 164.197 284.906 161.752 277.315 165.009C270.161 168.077 266.583 175.328 268.015 183.647C269.399 191.699 270.692 199.769 272.012 207.834C272.174 208.831 272.393 209.831 271.666 210.768C267.288 216.403 263.548 222.531 258.639 227.763C250.994 224.106 245.8 218.308 243.333 210.161C240.926 202.217 242.717 194.791 246.298 187.654C247.403 185.453 247.425 183.58 246.498 181.215C243.748 174.192 240.45 167.508 235.995 161.412C250.949 144.667 265.904 127.922 280.858 111.177C281.661 111.177 282.312 111.504 282.931 112.019C301.978 127.846 313.678 147.442 313.437 172.842C313.37 180.046 312.859 187.342 310.503 194.305L310.497 194.302Z" fill="#8A8AD9"/>
<path d="M280.852 111.174C265.897 127.919 250.943 144.664 235.989 161.406C230.356 155.973 224.603 150.712 216.932 148.223C208.214 129.767 199.489 111.314 190.783 92.8542C189.865 90.9079 189.037 88.9172 188.164 86.9487C195.079 86.4439 201.864 87.8631 208.68 88.5267C220.812 89.711 233.004 90.619 244.869 93.775C256.775 96.9436 268.123 101.338 278.223 108.558C279.235 109.282 280.544 109.729 280.852 111.171V111.174Z" fill="#F6BB92"/>
<path d="M294.44 237.393C298.793 232.23 301.546 226.049 305.213 220.451C314.11 223.071 322.361 226.865 329.032 233.532C330.572 235.717 332.194 237.85 333.639 240.095C341.904 252.957 341.323 271.229 329.359 282.17C327.162 284.18 323.936 285.155 322.777 288.279C322.044 287.577 321.32 287.644 320.412 288.063C314.564 290.762 308.388 290.965 302.118 290.311C301.848 288.574 302.699 287.072 303.213 285.526C305.061 279.995 307.02 274.506 308.909 268.991C309.398 267.562 309.668 266.27 308.76 264.695C304.883 257.977 301.21 251.141 297.463 244.349C296.768 241.895 294.717 240.028 294.44 237.393Z" fill="#7A4922"/>
<path d="M332.769 231.659C340.789 229.386 347.752 231.395 353.4 237.32C359.1 243.295 360.43 250.509 357.884 258.304C355.902 264.365 353.546 270.305 351.489 276.344C347.695 287.476 349.47 298.868 350.079 310.196C350.21 312.584 350.397 314.968 350.6 317.956C339.116 309.85 328.639 301.671 323.028 288.841C337.979 284.561 347.631 268.946 343.78 251.423C342.094 243.749 337.7 237.545 332.766 231.659H332.769Z" fill="#7A4922"/>
<path d="M297.464 244.35C301.21 251.141 304.887 257.977 308.76 264.695C309.668 266.27 309.398 267.562 308.909 268.991C307.02 274.506 305.061 279.999 303.213 285.526C302.699 287.069 301.848 288.574 302.118 290.311C295.149 290.863 287.272 288.527 281.217 292.019C276.709 294.623 277.521 291.26 276.95 288.936C276.131 285.602 275.362 282.161 271.387 281.011C271.362 279.243 272.283 277.897 273.28 276.538C278.76 269.073 284.103 261.504 289.707 254.135C292.222 250.827 293.949 246.871 297.46 244.35H297.464Z" fill="#F4BA92"/>
<path d="M237.887 376.297C247.869 381.39 257.264 387.486 266.615 393.61C271.193 396.611 272.32 401.602 270.59 406.444C268.812 411.425 265.081 414.019 259.496 414.089C257.077 414.121 254.657 414.048 252.238 414.022C257.886 409.527 258.179 407.212 253.981 401.345C249.447 395.01 242.821 391.908 235.747 389.565C234.15 389.035 232.432 388.724 233.391 386.682C234.998 383.263 235.601 379.415 237.887 376.3V376.297Z" fill="#F6BB92"/>
<path d="M332.77 231.659C337.704 237.546 342.098 243.75 343.784 251.424C347.635 268.946 337.983 284.561 323.032 288.841C322.832 288.708 322.746 288.524 322.778 288.285C323.937 285.161 327.163 284.186 329.36 282.177C341.323 271.236 341.904 252.963 333.64 240.102C332.195 237.854 330.573 235.723 329.033 233.539C330.138 232.634 331.306 231.853 332.77 231.662V231.659Z" fill="#5C381A"/>
<path d="M297.463 244.35C293.952 246.871 292.225 250.827 289.71 254.135C284.106 261.507 278.763 269.074 273.282 276.538C272.286 277.897 271.368 279.243 271.39 281.012C269.368 280.088 267.345 279.167 265.323 278.243C267.606 272.782 271.758 268.581 275.127 263.86C281.471 254.97 287.992 246.207 294.441 237.39C294.717 240.025 296.768 241.892 297.463 244.347V244.35Z" fill="#DCA782"/>
<path d="M237.888 376.296C235.602 379.411 234.995 383.259 233.392 386.679C232.433 388.72 234.151 389.034 235.748 389.562C242.822 391.905 249.448 395.007 253.982 401.341C258.179 407.208 257.887 409.526 252.239 414.019C250.191 414.047 248.143 414.073 246.095 414.101C252.02 409.091 252.21 406.068 246.701 399.741C242.752 395.204 237.611 392.298 232.03 390.365C226.715 388.523 226.467 388.685 228.572 383.37C229.95 379.897 230.271 375.896 233.233 373.131C235.008 373.858 236.707 374.693 237.888 376.29V376.296Z" fill="#DCA782"/>
</svg>
