<svg width="497" height="497" viewBox="0 0 497 497" fill="none" xmlns="http://www.w3.org/2000/svg">
<path d="M185.9 388.523C190.391 391.966 202.668 371.605 208.207 366.814L210.453 357.681C245.188 318.904 257.315 297.495 257.315 297.495C274.083 280.427 295.044 254.376 306.422 238.506C309.866 233.715 295.343 192.543 283.515 213.803C276.179 225.181 277.976 224.433 275.281 229.224C268.094 238.506 247.733 276.684 242.193 285.368C241.445 286.565 200.422 349.596 200.422 349.596C200.422 349.596 198.476 351.992 193.984 354.836C187.846 358.729 181.857 367.263 180.51 373.252C179.312 378.642 181.408 385.079 185.9 388.523Z" fill="#ECAD83"/>
<path d="M201.919 371.155C201.919 371.155 196.829 376.695 199.524 379.689C201.77 382.234 202.818 382.833 208.357 366.963C208.207 366.814 206.261 365.616 201.919 371.155Z" fill="#ECAD83"/>
<path d="M244.008 225.671C251.333 241.811 258.358 242.558 277.789 251.973C283.021 254.513 309.777 256.755 313.065 253.019C314.261 251.823 315.158 250.329 315.905 248.685C318.296 243.604 321.884 228.809 305.591 198.024C299.014 183.378 290.644 145.569 277.64 126.141C262.244 103.277 250.884 97 250.884 97L235.488 107.61L218 119.715C230.705 174.262 242.813 190.551 245.802 208.933C245.802 208.784 241.766 221.038 244.008 225.671Z" fill="#FF8AA0"/>
<path d="M286.705 256.654C286.705 256.654 290.25 266.483 292.761 278.732L312.557 281C309.159 268.751 313 252.722 313 252.722C294.534 253.932 291.136 250.454 274 250L286.705 256.654Z" fill="#ECAD83"/>
<path d="M277.925 303.055C273.327 311.429 277.925 318.607 281.188 322.495C291.126 334.758 300.174 334.907 311.298 333.262C326.279 331.019 326.131 290.643 323.906 284.213C317.973 267.315 293.202 264.025 283.413 265.221C272.734 266.417 275.848 269.857 276.887 274.044C276.887 274.194 276.442 274.941 276.442 274.941C276.59 276.437 277.035 278.381 276.293 280.624C276.293 280.624 276.887 281.97 277.035 282.568C277.183 283.016 277.183 283.316 276.59 283.615C275.107 284.362 273.772 285.11 273.179 285.858C271.695 288.101 280.002 299.167 277.925 303.055Z" fill="#F6BB92"/>
<path d="M282 277.165C282 277.165 280.962 276.707 276.808 277.317C276.288 277.622 275.51 278.537 276.418 279.757C277.067 280.825 279.014 278.08 282 277.165Z" fill="#D6876B"/>
<path d="M282 277.85C282 277.85 280.674 275.45 276.108 275C275.518 275.15 275.076 275.75 275.076 276.05C274.634 277.55 276.255 278 276.255 278C280.821 277.4 282 277.85 282 277.85Z" fill="#CC785E"/>
<path d="M312.831 335.304C331.165 332.601 351.585 302.408 322.222 274.92C320.284 273.117 316.111 271.165 311.043 276.272C307.465 279.877 305.23 284.383 305.23 284.383C304.633 285.735 303.888 287.237 303.292 288.739C302.547 290.392 305.08 299.404 303.143 300.005C285.554 305.563 279.443 316.228 280.039 321.035C283.915 332 293.305 338.158 312.831 335.304Z" fill="#602F0F"/>
<path d="M309.234 289.176C305.307 281.249 301.833 281.401 297 282.621L301.682 295.122L304.854 300C309.687 298.78 313.312 297.104 309.234 289.176Z" fill="#F6BB92"/>
<path d="M337.731 303.743C342.594 306.674 341.986 315.614 336.211 323.821C330.436 331.882 321.773 335.985 316.91 333.054C312.046 330.123 313.566 323.088 319.341 315.028C325.116 306.967 332.867 300.811 337.731 303.743Z" fill="#4C230C"/>
<path d="M301.032 298.393C301.481 299.89 301.781 301.238 301.781 302.286C301.931 303.783 301.931 304.831 301.931 304.831L307.021 302.136C306.871 301.388 306.871 300.639 306.721 299.741C306.721 299.741 306.123 300.04 305.224 300.489H305.374C304.476 299.441 303.278 297.645 302.08 295.099C301.931 295.099 299.685 293.902 301.032 298.393Z" fill="#602F0F"/>
<path d="M340.707 303.484C345.798 306.628 344.9 316.659 338.611 325.642C332.323 334.625 323.191 339.416 318.1 336.272C313.01 333.128 314.806 325.343 320.945 316.36C327.383 307.227 335.617 300.19 340.707 303.484Z" fill="#602F0F"/>
<path d="M339.837 320.025C340.417 320.322 339.402 322.845 337.516 325.665C335.629 328.337 333.743 330.267 333.163 329.97C332.583 329.673 333.598 327.595 335.484 324.923C337.225 322.103 339.257 319.728 339.837 320.025Z" fill="#4C230C"/>
<path d="M241.275 96C207.911 97.0483 200.281 106.633 192.8 117.864C192.8 117.864 186.068 128.946 185.17 139.13C183.375 160.095 196.391 172.375 196.391 172.375C196.391 172.375 243.07 180.013 243.819 169.231C244.267 160.395 244.866 152.308 245.464 145.12C246.063 138.68 251 96.599 251 96.599C249.504 96 241.275 96 241.275 96Z" fill="#3D3C3C"/>
<path d="M241.734 394.778C235.788 393.433 218.843 394.778 216.613 394.629C211.262 394.479 206.059 391.489 207.099 386.405C207.843 382.517 209.775 379.078 209.478 376.686C208.289 364.275 202.789 327.044 201.599 312.091C201.302 308.652 201.154 305.064 201.005 301.326C200.559 286.523 230.883 294.896 230.437 300.279C228.951 321.81 225.383 372.649 223.897 380.424C223.897 380.424 252.585 382.218 251.991 387.751C251.694 391.04 247.68 396.124 241.734 394.778Z" fill="#D89D75"/>
<path d="M235.514 399.778C229.441 398.433 212.132 399.778 209.854 399.629C204.388 399.479 199.074 396.489 200.137 391.405C200.896 387.517 202.87 384.078 202.566 381.686C201.351 369.275 202.111 332.044 200.896 317.091C200.592 313.652 200.44 310.064 200.289 306.326C199.833 291.523 230.807 299.896 230.352 305.279C228.833 326.81 218.812 377.649 217.294 385.424C217.294 385.424 246.598 387.218 245.991 392.751C245.687 396.04 241.587 401.124 235.514 399.778Z" fill="#ECAD83"/>
<path d="M203.201 257.509C201.13 274.72 200.243 291.034 200.686 306C205.568 304.204 225.539 303.605 229.977 304.952C230.273 299.565 235.598 258.108 235.598 258.108C237.225 244.937 247.728 167.711 244.326 143.616C243.734 137.479 242.551 131.942 241.367 127.452C239 118.622 190.923 123.71 189 135.833C190.627 162.174 203.053 210.515 204.681 222.638C206.16 234.611 203.201 257.509 203.201 257.509Z" fill="#3D3C3C"/>
<path d="M189.642 399.602C194.284 402.747 205.512 381.786 210.753 376.696L212.399 367.563C244.888 326.99 255.817 304.831 255.817 304.831C276.329 281.475 303.278 242.399 308.368 231.62C317.052 213.803 288.007 197.783 277.377 219.792C270.639 231.47 272.436 230.721 270.041 235.662C263.303 245.394 245.188 284.47 240.097 293.603C239.349 294.8 201.919 360.077 201.919 360.077C201.919 360.077 200.123 362.473 195.781 365.617C189.942 369.809 184.402 378.642 183.354 384.78C182.606 390.021 185.001 396.309 189.642 399.602Z" fill="#F6BB92"/>
<path d="M204.764 381.337C204.764 381.337 199.973 387.176 202.818 390.021C205.213 392.416 206.261 393.015 210.902 376.845C210.753 376.696 208.806 375.648 204.764 381.337Z" fill="#F6BB92"/>
</svg>
