<svg width="500" height="500" viewBox="0 0 500 500" fill="none" xmlns="http://www.w3.org/2000/svg">
<path d="M205.608 352.595C204.543 344.112 203.401 335.641 202.429 327.149C201.032 314.921 198.099 301.859 196.057 289.723C193.125 272.289 188.984 255.461 193.041 238.396C193.655 235.814 193.35 233.928 191.604 231.817C171.253 207.162 168.209 179.038 153.303 151.028C148.763 142.497 146.991 133.087 146.937 123.411C146.847 107.011 159.771 94.1594 176.195 94.5522C181.34 94.6752 186.549 94.6752 191.601 96.0096C192.423 97.8687 193.206 99.7488 194.075 101.587C202.3 119.021 210.538 136.449 218.772 153.88C221.534 168.171 224.376 182.448 227.03 196.76C229.441 209.771 233.192 222.587 234.092 235.808C234.704 244.789 233.975 253.866 234.734 262.883C227.06 277.867 223.009 294.113 218.235 310.111C214.01 324.267 209.812 338.436 205.602 352.595H205.608Z" fill="#6A6C65"/>
<path d="M205.608 352.596C209.818 338.433 214.013 324.268 218.241 310.111C223.015 294.117 227.066 277.867 234.74 262.883C237.366 258.847 239.963 254.79 242.629 250.781C247.565 243.347 253.508 236.63 258.165 228.999C262.798 224.057 266.33 218.27 270.465 212.947C271.152 212.062 270.945 211.118 270.792 210.176C269.548 202.56 268.324 194.94 267.017 187.333C265.667 179.476 269.044 172.628 275.8 169.731C282.969 166.654 290.352 168.966 295.087 175.818C299.792 182.625 304.76 189.288 307.138 197.396C308.206 206.182 305.993 214.302 302.149 222.096C298.685 227.382 296.085 233.221 291.974 238.096C285.884 246.424 279.725 254.7 273.734 263.096C270.552 267.555 266.63 271.519 264.474 276.68C260.855 288.05 257.091 299.379 253.646 310.801C248.866 326.649 242.515 341.915 236.794 357.417C235.729 360.302 233.843 362.989 234.161 366.296C231.366 368.908 231.06 372.683 229.759 375.967C227.771 380.984 228.005 380.834 233.024 382.573C238.296 384.399 243.154 387.143 246.881 391.428C252.081 397.401 251.904 400.259 246.308 404.99C244.323 406.118 242.347 404.877 240.353 404.913C231.186 405.086 222.014 404.939 212.847 405.026C210.799 405.044 209.506 404.415 208.466 402.604C205.827 398.007 203.014 393.512 200.259 388.981C197.722 384.81 197.422 380.474 198.849 375.82C201.212 368.113 203.362 360.344 205.605 352.602L205.608 352.596Z" fill="#F6BB92"/>
<path d="M307.138 197.396C304.761 189.288 299.792 182.625 295.087 175.818C290.352 168.963 282.97 166.654 275.8 169.731C269.044 172.627 265.665 179.476 267.017 187.333C268.324 194.937 269.545 202.56 270.792 210.176C270.945 211.118 271.152 212.062 270.465 212.947C266.33 218.269 262.798 224.057 258.162 228.998C250.941 225.544 246.036 220.068 243.706 212.374C241.433 204.871 243.124 197.858 246.506 191.117C247.55 189.039 247.571 187.27 246.695 185.036C244.099 178.403 240.983 172.091 236.776 166.333C250.899 150.519 265.023 134.704 279.146 118.889C279.905 118.889 280.52 119.198 281.104 119.684C299.093 134.632 310.143 153.139 309.915 177.128C309.852 183.932 309.369 190.823 307.144 197.399L307.138 197.396Z" fill="#8A8AD9"/>
<path d="M279.14 118.887C265.017 134.701 250.893 150.516 236.77 166.328C231.45 161.197 226.017 156.228 218.772 153.878C210.538 136.447 202.298 119.019 194.075 101.585C193.209 99.7465 192.426 97.8664 191.602 96.0072C198.133 95.5305 204.541 96.8708 210.979 97.4976C222.436 98.616 233.951 99.4736 245.157 102.454C256.402 105.447 267.119 109.597 276.657 116.416C277.614 117.1 278.849 117.522 279.14 118.884V118.887Z" fill="#F6BB92"/>
<path d="M291.975 238.093C296.086 233.217 298.686 227.379 302.149 222.092C310.551 224.566 318.344 228.149 324.645 234.447C326.099 236.51 327.631 238.525 328.996 240.645C336.801 252.792 336.252 270.049 324.953 280.382C322.878 282.281 319.832 283.201 318.737 286.152C318.045 285.489 317.361 285.552 316.503 285.948C310.98 288.497 305.148 288.689 299.225 288.071C298.97 286.431 299.774 285.012 300.26 283.552C302.005 278.328 303.855 273.144 305.639 267.935C306.101 266.586 306.356 265.365 305.498 263.878C301.837 257.533 298.368 251.077 294.829 244.663C294.173 242.345 292.235 240.582 291.975 238.093Z" fill="#7A4922"/>
<path d="M328.174 232.677C335.748 230.53 342.324 232.428 347.659 238.024C353.041 243.667 354.298 250.48 351.893 257.842C350.022 263.566 347.797 269.176 345.854 274.88C342.27 285.393 343.947 296.152 344.522 306.851C344.645 309.106 344.822 311.358 345.014 314.18C334.168 306.524 324.273 298.8 318.974 286.682C333.095 282.64 342.21 267.893 338.573 251.344C336.981 244.096 332.831 238.237 328.171 232.677H328.174Z" fill="#7A4922"/>
<path d="M294.829 244.663C298.367 251.077 301.84 257.533 305.498 263.878C306.355 265.366 306.101 266.586 305.639 267.935C303.855 273.144 302.005 278.332 300.259 283.552C299.774 285.009 298.97 286.431 299.225 288.071C292.643 288.593 285.203 286.386 279.485 289.684C275.227 292.143 275.994 288.968 275.455 286.773C274.681 283.624 273.955 280.374 270.201 279.288C270.177 277.618 271.047 276.346 271.988 275.063C277.164 268.013 282.211 260.865 287.503 253.905C289.878 250.78 291.509 247.044 294.826 244.663H294.829Z" fill="#F4BA92"/>
<path d="M238.563 369.279C247.991 374.089 256.863 379.846 265.694 385.631C270.018 388.464 271.083 393.178 269.449 397.751C267.769 402.456 264.246 404.906 258.971 404.972C256.687 405.002 254.402 404.933 252.117 404.909C257.451 400.663 257.727 398.477 253.763 392.935C249.481 386.953 243.223 384.024 236.542 381.811C235.033 381.31 233.411 381.016 234.317 379.088C235.834 375.858 236.404 372.224 238.563 369.282V369.279Z" fill="#F6BB92"/>
<path d="M328.174 232.678C332.834 238.237 336.984 244.096 338.576 251.344C342.213 267.893 333.097 282.641 318.977 286.683C318.788 286.557 318.707 286.383 318.737 286.158C319.832 283.207 322.878 282.287 324.953 280.389C336.252 270.055 336.801 252.798 328.995 240.651C327.631 238.528 326.099 236.516 324.644 234.453C325.688 233.598 326.791 232.861 328.174 232.681V232.678Z" fill="#5C381A"/>
<path d="M294.829 244.664C291.513 247.045 289.881 250.781 287.506 253.906C282.214 260.868 277.167 268.014 271.992 275.064C271.05 276.347 270.183 277.619 270.204 279.289C268.294 278.416 266.384 277.547 264.474 276.674C266.63 271.516 270.552 267.549 273.734 263.09C279.725 254.694 285.884 246.418 291.974 238.091C292.235 240.58 294.172 242.343 294.829 244.661V244.664Z" fill="#DCA782"/>
<path d="M238.563 369.28C236.404 372.221 235.831 375.856 234.317 379.085C233.411 381.013 235.034 381.31 236.542 381.808C243.223 384.021 249.481 386.951 253.763 392.933C257.727 398.474 257.451 400.663 252.117 404.906C250.183 404.933 248.248 404.957 246.314 404.984C251.91 400.252 252.09 397.398 246.887 391.421C243.157 387.136 238.302 384.393 233.03 382.567C228.011 380.827 227.777 380.98 229.765 375.961C231.066 372.68 231.369 368.902 234.167 366.29C235.843 366.977 237.447 367.765 238.563 369.274V369.28Z" fill="#DCA782"/>
</svg>
