<svg width="500" height="500" viewBox="0 0 500 500" fill="none" xmlns="http://www.w3.org/2000/svg">
<path d="M215.412 362.104C214.244 352.822 212.995 343.551 211.933 334.259C210.402 320.878 208.727 307.504 207.626 294.085C206.038 274.745 209.852 255.942 214.29 237.273C214.96 234.447 214.625 232.384 212.72 230.073C190.453 203.099 174.496 172.2 158.188 141.554C153.22 132.219 151.28 121.925 151.224 111.338C151.125 93.3959 165.264 79.3341 183.238 79.7645C188.869 79.8986 194.566 79.8986 200.098 81.3591C200.997 83.3946 201.854 85.4513 202.803 87.4621C211.803 106.54 220.816 125.608 229.826 144.679C232.846 160.318 235.961 175.939 238.861 191.595C241.5 205.83 245.602 219.853 246.587 234.32C247.257 244.145 246.46 254.076 247.289 263.943C238.893 280.337 234.462 298.117 229.237 315.615C224.612 331.105 220.023 346.606 215.415 362.1L215.412 362.104Z" fill="#6A6C65"/>
<path d="M215.412 362.104C220.019 346.61 224.609 331.109 229.234 315.618C234.458 298.117 238.889 280.34 247.285 263.943C250.16 259.526 253 255.088 255.914 250.7C261.315 242.568 267.817 235.22 272.915 226.866C277.984 221.458 281.847 215.126 286.373 209.301C287.125 208.335 286.899 207.301 286.729 206.271C285.368 197.938 284.031 189.598 282.598 181.276C281.12 172.683 284.817 165.186 292.208 162.018C300.054 158.653 308.129 161.179 313.311 168.679C318.458 176.126 323.895 183.418 326.498 192.287C327.666 201.9 325.246 210.786 321.041 219.313C317.248 225.099 314.405 231.484 309.907 236.818C303.243 245.93 296.505 254.986 289.947 264.172C286.465 269.051 282.175 273.39 279.818 279.035C275.857 291.477 271.743 303.87 267.972 316.369C262.74 333.708 255.794 350.413 249.536 367.374C248.372 370.528 246.308 373.47 246.657 377.09C243.599 379.947 243.264 384.078 241.842 387.67C239.665 393.159 239.923 392.993 245.416 394.894C251.183 396.891 256.496 399.897 260.578 404.582C266.268 411.119 266.074 414.244 259.95 419.42C257.78 420.651 255.618 419.293 253.434 419.335C243.405 419.525 233.368 419.363 223.339 419.458C221.098 419.48 219.684 418.788 218.544 416.805C215.659 411.775 212.579 406.857 209.563 401.901C206.786 397.339 206.458 392.594 208.021 387.5C210.607 379.069 212.96 370.567 215.412 362.097V362.104Z" fill="#F6BB92"/>
<path d="M326.502 192.29C323.898 183.421 318.462 176.129 313.315 168.682C308.132 161.182 300.057 158.656 292.212 162.022C284.821 165.193 281.124 172.686 282.602 181.28C284.034 189.602 285.368 197.942 286.733 206.274C286.902 207.304 287.128 208.338 286.377 209.305C281.85 215.129 277.988 221.461 272.915 226.866C265.016 223.084 259.647 217.098 257.096 208.677C254.609 200.468 256.461 192.795 260.158 185.418C261.298 183.143 261.322 181.209 260.366 178.765C257.526 171.508 254.119 164.601 249.511 158.3C264.963 140.996 280.418 123.692 295.87 106.389C296.702 106.389 297.373 106.724 298.015 107.257C317.696 123.611 329.786 143.861 329.536 170.108C329.465 177.551 328.936 185.09 326.502 192.287V192.29Z" fill="#4E965A"/>
<path d="M295.866 106.392C280.415 123.696 264.959 141 249.508 158.3C243.687 152.688 237.743 147.251 229.816 144.68C220.806 125.608 211.792 106.541 202.793 87.4624C201.844 85.4515 200.986 83.3948 200.087 81.3593C207.231 80.8372 214.244 82.3012 221.289 82.9891C233.827 84.2133 246.424 85.1517 258.683 88.4113C270.988 91.6851 282.711 96.2254 293.15 103.687C294.198 104.435 295.549 104.897 295.866 106.389V106.392Z" fill="#F6BB92"/>
<path d="M309.911 236.821C314.409 231.487 317.252 225.098 321.044 219.316C330.234 222.026 338.764 225.942 345.658 232.835C347.249 235.093 348.928 237.294 350.417 239.619C358.957 252.911 358.358 271.792 345.993 283.099C343.721 285.177 340.391 286.182 339.191 289.41C338.436 288.687 337.685 288.754 336.747 289.184C330.7 291.971 324.322 292.183 317.845 291.505C317.566 289.71 318.444 288.158 318.977 286.563C320.886 280.848 322.911 275.175 324.865 269.474C325.373 267.996 325.652 266.663 324.71 265.036C320.706 258.094 316.906 251.031 313.036 244.011C312.317 241.474 310.196 239.548 309.911 236.821Z" fill="#7A4922"/>
<path d="M349.517 230.895C357.804 228.545 365 230.619 370.839 236.744C376.727 242.921 378.102 250.372 375.471 258.425C373.425 264.691 370.99 270.826 368.863 277.066C364.94 288.57 366.775 300.343 367.406 312.048C367.54 314.514 367.734 316.98 367.946 320.066C356.078 311.691 345.252 303.239 339.456 289.982C354.907 285.558 364.88 269.422 360.901 251.317C359.158 243.387 354.618 236.973 349.52 230.895H349.517Z" fill="#7A4922"/>
<path d="M313.033 244.011C316.906 251.031 320.702 258.094 324.706 265.037C325.644 266.663 325.366 268 324.861 269.475C322.907 275.172 320.885 280.848 318.973 286.563C318.441 288.158 317.566 289.71 317.841 291.506C310.641 292.077 303.43 292.55 296.244 293.269C293.587 293.534 292.427 292.486 291.834 290.084C290.987 286.641 290.194 283.085 286.087 281.896C286.063 280.068 287.012 278.675 288.042 277.271C293.704 269.556 299.228 261.738 305.017 254.118C307.614 250.7 309.399 246.611 313.029 244.004L313.033 244.011Z" fill="#F4BA92"/>
<path d="M251.466 380.357C261.781 385.62 271.489 391.917 281.149 398.246C285.879 401.343 287.044 406.501 285.258 411.507C283.42 416.654 279.568 419.335 273.797 419.406C271.295 419.437 268.794 419.363 266.297 419.339C272.132 414.692 272.435 412.301 268.096 406.236C263.411 399.689 256.563 396.486 249.254 394.066C247.603 393.519 245.828 393.198 246.82 391.085C248.478 387.55 249.102 383.574 251.466 380.353V380.357Z" fill="#F6BB92"/>
<path d="M349.517 230.895C354.614 236.977 359.155 243.39 360.897 251.317C364.877 269.425 354.904 285.561 339.452 289.982C339.244 289.844 339.156 289.653 339.187 289.406C340.387 286.179 343.717 285.17 345.989 283.095C358.354 271.789 358.95 252.908 350.413 239.615C348.921 237.294 347.245 235.089 345.654 232.831C346.797 231.897 348.003 231.089 349.517 230.891V230.895Z" fill="#5C381A"/>
<path d="M313.032 244.011C309.402 246.615 307.617 250.703 305.021 254.125C299.232 261.742 293.711 269.563 288.045 277.278C287.015 278.682 286.066 280.076 286.091 281.903C283.999 280.951 281.91 279.995 279.818 279.042C282.178 273.398 286.468 269.059 289.95 264.18C296.505 254.993 303.246 245.937 309.91 236.825C310.196 239.549 312.316 241.478 313.036 244.015L313.032 244.011Z" fill="#DCA782"/>
<path d="M251.466 380.356C249.102 383.574 248.478 387.553 246.82 391.088C245.828 393.198 247.603 393.522 249.254 394.069C256.563 396.489 263.411 399.696 268.096 406.24C272.435 412.304 272.131 414.696 266.296 419.342C264.18 419.37 262.067 419.398 259.95 419.427C266.074 414.251 266.268 411.126 260.578 404.589C256.496 399.9 251.183 396.898 245.416 394.901C239.923 393 239.665 393.166 241.842 387.677C243.264 384.085 243.599 379.954 246.657 377.097C248.488 377.848 250.245 378.709 251.466 380.36V380.356Z" fill="#DCA782"/>
</svg>
