<svg width="497" height="497" viewBox="0 0 497 497" fill="none" xmlns="http://www.w3.org/2000/svg">
<path d="M177.392 404.211C182.385 408.039 196.033 385.404 202.191 380.078L204.688 369.925C243.3 326.818 256.782 303.018 256.782 303.018C275.422 284.045 298.723 255.085 311.372 237.443C315.2 232.117 299.056 186.348 285.908 209.981C277.752 222.63 279.75 221.798 276.754 227.124C268.765 237.443 246.13 279.884 239.972 289.537C239.14 290.869 193.536 360.938 193.536 360.938C193.536 360.938 191.373 363.601 186.38 366.763C179.556 371.09 172.899 380.577 171.401 387.234C170.069 393.226 172.399 400.383 177.392 404.211Z" fill="#ECAD83"/>
<path d="M195.202 384.903C195.202 384.903 189.543 391.061 192.539 394.39C195.036 397.22 196.201 397.885 202.359 380.243C202.192 380.077 200.029 378.745 195.202 384.903Z" fill="#ECAD83"/>
<path d="M242.111 223.278C250.212 241.265 257.982 242.097 279.473 252.59C285.26 255.421 314.852 257.919 318.489 253.755C319.812 252.423 320.804 250.758 321.63 248.926C324.275 243.263 328.243 226.775 310.223 192.468C302.949 176.146 293.691 134.011 279.308 112.361C262.28 86.8796 249.716 79.8848 249.716 79.8848L232.688 91.7093L213.345 105.199C227.397 165.987 240.788 184.141 244.095 204.625C244.095 204.459 239.631 218.115 242.111 223.278Z" fill="#FF8AA0"/>
<path d="M289.406 257.366C289.406 257.366 293.347 268.588 296.139 282.572L318.146 285.162C314.368 271.178 318.638 252.877 318.638 252.877C298.11 254.258 294.333 250.287 275.282 249.77L289.406 257.366Z" fill="#ECAD83"/>
<path d="M279.928 309.037C274.765 318.379 279.928 326.387 283.593 330.725C294.754 344.405 304.915 344.572 317.408 342.737C334.232 340.234 334.065 295.189 331.567 288.016C324.904 269.163 297.086 265.493 286.092 266.828C274.098 268.162 277.596 272 278.762 276.671C278.762 276.838 278.263 277.672 278.263 277.672C278.429 279.34 278.929 281.509 278.096 284.012C278.096 284.012 278.762 285.513 278.929 286.18C279.096 286.681 279.096 287.015 278.429 287.348C276.763 288.182 275.264 289.017 274.598 289.851C272.932 292.353 282.26 304.699 279.928 309.037Z" fill="#F6BB92"/>
<path d="M284.13 280.884C284.13 280.884 282.905 280.479 278.005 281.019C277.392 281.289 276.473 282.098 277.545 283.178C278.311 284.123 280.608 281.694 284.13 280.884Z" fill="#D6876B"/>
<path d="M284.13 281.446C284.13 281.446 282.622 278.615 277.427 278.084C276.757 278.261 276.254 278.969 276.254 279.323C275.751 281.092 277.595 281.623 277.595 281.623C282.79 280.915 284.13 281.446 284.13 281.446Z" fill="#CC785E"/>
<path d="M318.17 344.568C338.661 341.606 361.485 308.531 328.666 278.417C326.5 276.443 321.835 274.303 316.171 279.898C312.173 283.848 309.674 288.784 309.674 288.784C309.008 290.265 308.175 291.911 307.509 293.556C306.676 295.366 309.508 305.239 307.342 305.898C287.684 311.986 280.854 323.669 281.52 328.935C285.851 340.948 296.347 347.694 318.17 344.568Z" fill="#602F0F"/>
<path d="M314.086 293.807C309.867 285.234 306.135 285.399 300.942 286.718L305.972 300.237L309.38 305.513C314.573 304.194 318.468 302.38 314.086 293.807Z" fill="#F6BB92"/>
<path d="M345.964 309.879C351.383 313.142 350.706 323.093 344.271 332.229C337.836 341.202 328.184 345.77 322.765 342.507C317.347 339.244 319.04 331.414 325.475 322.441C331.909 313.468 340.546 306.616 345.964 309.879Z" fill="#4C230C"/>
<path d="M305.381 304.022C305.881 305.686 306.214 307.184 306.214 308.349C306.38 310.013 306.38 311.179 306.38 311.179L312.039 308.183C311.872 307.351 311.872 306.518 311.706 305.52C311.706 305.52 311.04 305.853 310.042 306.352H310.208C309.209 305.187 307.878 303.19 306.546 300.36C306.38 300.36 303.883 299.029 305.381 304.022Z" fill="#602F0F"/>
<path d="M349.487 309.68C355.145 313.176 354.147 324.327 347.156 334.313C340.166 344.299 330.014 349.625 324.355 346.13C318.696 342.634 320.693 333.98 327.517 323.994C334.674 313.841 343.828 306.019 349.487 309.68Z" fill="#602F0F"/>
<path d="M348.537 328.545C349.197 328.86 348.042 331.54 345.896 334.534C343.75 337.371 341.604 339.42 340.944 339.104C340.284 338.789 341.439 336.583 343.585 333.746C345.566 330.752 347.877 328.23 348.537 328.545Z" fill="#4C230C"/>
<path d="M238.802 79C201.677 80.1624 193.187 90.7897 184.863 103.244C184.863 103.244 177.371 115.532 176.372 126.823C174.375 150.07 188.858 163.687 188.858 163.687C188.858 163.687 240.8 172.155 241.632 160.2C242.131 150.403 242.797 141.436 243.463 133.465C244.129 126.325 249.623 79.6642 249.623 79.6642C247.958 79 238.802 79 238.802 79Z" fill="#3D3C3C"/>
<path d="M239.994 411.443C233.392 409.937 214.576 411.443 212.1 411.276C206.158 411.108 200.381 407.762 201.537 402.073C202.362 397.723 204.508 393.874 204.178 391.197C202.857 377.309 196.75 335.646 195.43 318.914C195.1 315.065 194.935 311.049 194.77 306.866C194.274 290.301 227.945 299.672 227.45 305.695C225.799 329.79 221.838 386.679 220.188 395.38C220.188 395.38 252.043 397.388 251.382 403.579C251.052 407.26 246.596 412.949 239.994 411.443Z" fill="#D89D75"/>
<path d="M232.616 416.754C225.84 415.26 206.529 416.754 203.988 416.588C197.89 416.422 191.961 413.101 193.147 407.457C193.994 403.14 196.196 399.321 195.857 396.665C194.502 382.885 195.349 341.544 193.994 324.942C193.655 321.123 193.486 317.139 193.317 312.988C192.808 296.551 227.364 305.849 226.856 311.826C225.162 335.734 213.982 392.182 212.288 400.815C212.288 400.815 244.981 402.808 244.304 408.951C243.965 412.603 239.391 418.248 232.616 416.754Z" fill="#ECAD83"/>
<path d="M196.538 258.017C194.215 277.073 193.219 295.136 193.717 311.707C199.193 309.718 221.597 309.056 226.576 310.547C226.907 304.581 232.882 258.679 232.882 258.679C234.707 244.097 246.49 158.59 242.673 131.91C242.009 125.116 240.681 118.985 239.354 114.013C236.699 104.236 182.764 109.871 180.607 123.293C182.432 152.458 196.372 205.983 198.198 219.406C199.857 232.663 196.538 258.017 196.538 258.017Z" fill="#3D3C3C"/>
<path d="M181.552 416.527C186.712 420.022 199.194 396.722 205.02 391.063L206.85 380.91C242.967 335.806 255.116 311.174 255.116 311.174C277.918 285.21 307.876 241.771 313.535 229.787C323.188 209.982 290.9 192.173 279.083 216.639C271.593 229.621 273.591 228.789 270.928 234.281C263.438 245.099 243.3 288.539 237.641 298.691C236.809 300.023 195.2 372.588 195.2 372.588C195.2 372.588 193.203 375.251 188.376 378.747C181.885 383.407 175.727 393.226 174.562 400.05C173.73 405.875 176.393 412.866 181.552 416.527Z" fill="#F6BB92"/>
<path d="M198.363 396.223C198.363 396.223 193.037 402.714 196.199 405.876C198.862 408.539 200.027 409.205 205.187 391.23C205.02 391.063 202.857 389.898 198.363 396.223Z" fill="#F6BB92"/>
</svg>
