<svg width="500" height="500" viewBox="0 0 500 500" fill="none" xmlns="http://www.w3.org/2000/svg">
<path d="M197.772 370.7C196.519 360.72 195.175 350.754 194.032 340.763C192.388 326.377 188.938 311.01 186.536 296.733C183.086 276.223 178.214 256.425 182.987 236.348C183.71 233.311 183.35 231.092 181.297 228.608C157.354 199.603 153.773 166.516 136.237 133.562C130.896 123.526 128.811 112.456 128.747 101.072C128.641 81.7781 143.846 66.658 163.168 67.1202C169.221 67.2648 175.349 67.2648 181.293 68.8347C182.26 71.0219 183.181 73.2338 184.204 75.3964C193.881 95.9069 203.571 116.41 213.259 136.917C216.508 153.731 219.852 170.527 222.974 187.365C225.811 202.672 230.224 217.75 231.282 233.304C232.002 243.869 231.145 254.548 232.037 265.156C223.01 282.784 218.244 301.898 212.627 320.719C207.657 337.373 202.718 354.042 197.765 370.7H197.772Z" fill="#6A6C65"/>
<path d="M197.772 370.7C202.725 354.038 207.66 337.373 212.634 320.718C218.251 301.901 223.017 282.784 232.044 265.156C235.135 260.407 238.19 255.634 241.326 250.918C247.133 242.172 254.125 234.27 259.603 225.292C265.054 219.478 269.21 212.669 274.074 206.408C274.882 205.367 274.639 204.256 274.459 203.148C272.995 194.187 271.556 185.223 270.017 176.273C268.43 167.03 272.402 158.973 280.35 155.565C288.785 151.946 297.471 154.666 303.041 162.727C308.576 170.735 314.422 178.573 317.219 188.113C318.475 198.449 315.872 208.002 311.349 217.171C307.274 223.39 304.216 230.259 299.379 235.995C292.214 245.792 284.968 255.528 277.92 265.406C274.177 270.652 269.562 275.316 267.026 281.387C262.768 294.765 258.34 308.092 254.287 321.53C248.664 340.174 241.192 358.134 234.461 376.373C233.208 379.766 230.99 382.927 231.363 386.819C228.076 389.891 227.716 394.333 226.185 398.196C223.846 404.098 224.121 403.921 230.026 405.967C236.228 408.116 241.943 411.344 246.328 416.385C252.446 423.412 252.237 426.774 245.655 432.341C243.319 433.668 240.994 432.207 238.648 432.249C227.864 432.454 217.072 432.281 206.288 432.383C203.878 432.405 202.358 431.664 201.134 429.533C198.029 424.125 194.72 418.837 191.478 413.506C188.494 408.599 188.141 403.498 189.82 398.023C192.6 388.956 195.13 379.816 197.768 370.707L197.772 370.7Z" fill="#F6BB92"/>
<path d="M317.219 188.113C314.421 178.574 308.576 170.735 303.041 162.727C297.47 154.662 288.785 151.946 280.35 155.566C272.402 158.973 268.426 167.031 270.017 176.274C271.555 185.22 272.991 194.188 274.459 203.148C274.639 204.256 274.882 205.367 274.074 206.408C269.209 212.67 265.054 219.478 259.6 225.292C251.105 221.228 245.333 214.786 242.592 205.734C239.918 196.908 241.908 188.656 245.887 180.726C247.115 178.281 247.139 176.2 246.109 173.571C243.054 165.768 239.389 158.342 234.439 151.569C251.055 132.963 267.671 114.357 284.287 95.752C285.18 95.752 285.903 96.1153 286.591 96.6868C307.754 114.273 320.754 136.046 320.486 164.269C320.412 172.273 319.844 180.38 317.226 188.116L317.219 188.113Z" fill="#8A8AD9"/>
<path d="M284.28 95.7481C267.664 114.354 251.048 132.959 234.432 151.561C228.174 145.525 221.782 139.68 213.259 136.914C203.571 116.407 193.877 95.9034 184.204 75.3928C183.184 73.2303 182.264 71.0184 181.293 68.8311C188.977 68.2702 196.516 69.8471 204.09 70.5844C217.57 71.9003 231.116 72.9092 244.3 76.4159C257.529 79.9366 270.137 84.8191 281.359 92.8412C282.484 93.6456 283.938 94.143 284.28 95.7446V95.7481Z" fill="#F6BB92"/>
<path d="M299.379 235.992C304.215 230.256 307.274 223.387 311.349 217.167C321.234 220.078 330.402 224.294 337.814 231.702C339.525 234.129 341.328 236.5 342.933 238.994C352.116 253.285 351.47 273.587 338.177 285.744C335.736 287.977 332.152 289.06 330.864 292.532C330.049 291.752 329.245 291.826 328.236 292.292C321.738 295.29 314.876 295.516 307.909 294.789C307.609 292.86 308.555 291.191 309.126 289.473C311.179 283.328 313.356 277.228 315.455 271.1C315.998 269.513 316.298 268.077 315.289 266.327C310.982 258.862 306.9 251.267 302.737 243.721C301.965 240.994 299.686 238.92 299.379 235.992Z" fill="#7A4922"/>
<path d="M341.966 229.621C350.877 227.095 358.614 229.328 364.89 235.911C371.222 242.55 372.7 250.565 369.871 259.226C367.67 265.96 365.052 272.561 362.766 279.271C358.55 291.639 360.522 304.297 361.2 316.884C361.344 319.537 361.553 322.186 361.778 325.506C349.018 316.499 337.377 307.412 331.143 293.156C347.755 288.401 358.48 271.051 354.201 251.581C352.327 243.055 347.445 236.161 341.963 229.621H341.966Z" fill="#7A4922"/>
<path d="M302.737 243.721C306.9 251.267 310.985 258.862 315.289 266.327C316.298 268.077 315.998 269.513 315.455 271.1C313.356 277.228 311.179 283.331 309.126 289.473C308.555 291.188 307.609 292.86 307.909 294.789C300.166 295.403 291.413 292.807 284.686 296.687C279.676 299.58 280.579 295.844 279.944 293.262C279.034 289.558 278.181 285.734 273.764 284.457C273.736 282.492 274.759 280.996 275.866 279.486C281.955 271.192 287.893 262.782 294.119 254.594C296.913 250.918 298.832 246.522 302.734 243.721H302.737Z" fill="#F4BA92"/>
<path d="M236.542 390.329C247.633 395.988 258.072 402.761 268.461 409.566C273.548 412.9 274.801 418.446 272.878 423.825C270.902 429.361 266.757 432.243 260.552 432.32C257.864 432.356 255.176 432.274 252.487 432.246C258.763 427.251 259.088 424.679 254.424 418.16C249.387 411.122 242.024 407.675 234.164 405.072C232.39 404.483 230.481 404.137 231.546 401.869C233.332 398.069 234.002 393.793 236.542 390.333V390.329Z" fill="#F6BB92"/>
<path d="M341.967 229.621C347.449 236.161 352.331 243.054 354.204 251.581C358.484 271.051 347.759 288.401 331.147 293.156C330.925 293.008 330.829 292.803 330.865 292.539C332.152 289.067 335.736 287.984 338.178 285.751C351.47 273.594 352.116 253.292 342.933 239.001C341.328 236.503 339.525 234.136 337.814 231.709C339.042 230.704 340.34 229.836 341.967 229.624V229.621Z" fill="#5C381A"/>
<path d="M302.738 243.721C298.836 246.522 296.917 250.918 294.123 254.594C287.896 262.785 281.959 271.192 275.87 279.486C274.762 280.996 273.743 282.492 273.767 284.457C271.52 283.43 269.273 282.407 267.026 281.38C269.562 275.312 274.177 270.645 277.92 265.399C284.968 255.522 292.214 245.785 299.379 235.988C299.686 238.916 301.965 240.991 302.738 243.718V243.721Z" fill="#DCA782"/>
<path d="M236.542 390.329C234.002 393.789 233.328 398.065 231.547 401.865C230.481 404.133 232.39 404.482 234.164 405.068C242.024 407.671 249.387 411.118 254.424 418.156C259.088 424.675 258.764 427.251 252.488 432.242C250.212 432.274 247.937 432.302 245.661 432.334C252.244 426.767 252.456 423.409 246.335 416.378C241.947 411.337 236.235 408.109 230.033 405.96C224.128 403.914 223.853 404.094 226.192 398.189C227.723 394.329 228.079 389.884 231.37 386.812C233.342 387.619 235.23 388.547 236.542 390.322V390.329Z" fill="#DCA782"/>
</svg>
