<svg width="500" height="500" viewBox="0 0 500 500" fill="none" xmlns="http://www.w3.org/2000/svg">
<path d="M186.575 325.03C185.78 325.658 185.529 326.537 185.487 327.499C185.361 329.425 185.194 331.351 185.11 333.276C184.943 339.221 184.105 345.165 184.315 351.11C184.566 358.226 185.612 365.217 188.291 371.915C191.389 379.618 196.162 386.023 203.069 390.753C207.59 393.851 212.571 395.902 217.93 397.074C220.86 397.702 223.832 398.121 226.846 398.288C228.563 398.372 230.321 398.665 231.995 399C235.596 399.712 239.238 400.172 242.921 400.633C245.643 400.967 248.364 401.302 251.085 401.637C252.885 401.847 254.685 402.056 256.485 402.223C260.42 402.6 264.355 402.977 268.29 403.312C270.341 403.479 272.434 403.437 274.527 403.521C278.421 403.688 282.272 404.023 286.165 404.107C292.654 404.233 299.142 404.358 305.631 404.191C309.566 404.107 313.543 404.023 317.478 403.772C320.952 403.563 324.385 402.977 327.818 402.516C329.325 402.307 330.832 402.056 332.339 401.679C334.725 401.093 336.86 400.046 338.828 398.623C343.767 395.149 347.242 390.418 349.879 385.06C350.172 384.474 350.381 383.804 350.507 383.176C351.177 380.162 351.512 377.106 351.344 374.008C351.261 372.25 350.926 370.534 350.381 368.901C348.958 364.84 346.823 361.282 343.558 358.436C341.8 356.887 340 355.38 337.907 354.291C337.739 354.207 337.614 354.04 337.446 353.914C337.53 353.286 337.99 352.826 338.325 352.366C340.125 349.812 341.297 347.007 341.842 343.909C342.135 342.109 342.595 340.393 342.595 338.551C342.595 333.653 340.586 329.593 336.986 326.369C335.437 324.988 333.72 323.816 332.004 322.685C328.822 320.634 325.348 319.671 321.664 319.127C316.306 318.332 310.906 318.08 305.463 317.829C302.659 317.704 299.854 317.578 297.049 317.662C294.244 317.704 291.44 318.039 288.635 318.248C284.114 318.625 279.593 319.294 275.113 319.881C272.267 320.257 269.378 320.425 266.532 320.802C261.969 321.388 257.406 322.141 253.01 323.564C252.173 323.816 251.378 324.15 250.582 324.485C251.085 325.03 251.796 325.071 252.424 325.155C253.847 325.364 255.145 325.867 256.401 326.495C256.987 326.788 257.615 327.039 258.243 327.332C261.299 328.713 264.187 330.346 266.908 332.272C268.499 333.402 269.964 334.658 271.513 335.788C272.602 336.584 273.523 337.546 274.36 338.593C276.369 341.063 276.411 341.565 274.904 344.286C276.369 344.495 277.793 344.705 279.258 344.872C280.723 345.082 282.146 345.207 283.611 345.5C284.491 345.668 285.328 345.668 286.207 345.668C286.542 345.668 286.877 345.584 287.17 345.416C289.723 343.951 292.277 342.486 294.789 341.021C297.51 339.43 300.189 337.839 302.868 336.207C305.547 334.616 308.268 332.983 310.947 331.393C312.329 330.597 313.752 329.802 315.175 329.048C315.929 328.63 316.431 328.797 316.934 329.425C317.101 329.634 317.227 329.886 317.352 330.095C317.687 330.765 317.687 330.974 317.143 331.518C316.641 332.062 316.096 332.523 315.427 332.9C312.58 334.49 309.733 336.165 306.929 337.798C303.915 339.556 300.942 341.272 297.97 343.072C296.421 343.993 294.914 344.998 293.407 345.961C293.198 346.086 292.905 346.254 293.072 346.589C293.156 346.714 293.407 346.84 293.575 346.84C295.207 346.714 296.756 347.217 298.347 347.384C299.645 347.51 300.984 347.635 302.324 347.844C303.915 348.096 305.463 348.305 307.054 348.514C308.561 348.682 310.152 348.682 311.617 349.017C312.789 349.31 314.003 349.184 315.175 349.435C316.473 349.728 317.813 350.021 319.11 350.063C321.706 350.147 324.26 350.733 326.855 351.026C328.948 351.235 331.083 351.57 333.176 351.738C333.846 351.779 334.474 352.031 335.102 352.24C335.897 352.533 336.274 353.287 336.19 353.998C336.065 354.71 335.437 355.254 334.641 355.338C334.39 355.338 334.097 355.338 333.846 355.338C331.962 355.338 330.162 354.919 328.278 354.752C326.688 354.626 325.139 354.333 323.548 354.124C322.041 353.956 320.45 353.956 318.985 353.58C317.478 353.203 315.929 353.286 314.422 352.993C313.334 352.784 312.203 352.533 311.073 352.491C309.608 352.407 308.184 352.156 306.719 351.989C304.919 351.779 303.161 351.528 301.403 351.319C299.896 351.152 298.347 351.026 296.84 350.817C295.249 350.607 293.7 350.272 292.109 350.147C290.644 350.021 289.179 349.812 287.756 349.603C286.039 349.31 284.323 349.351 282.607 348.975C280.807 348.556 278.923 348.347 277.081 348.221C275.658 348.137 274.318 347.844 272.937 347.719C271.43 347.593 269.881 347.468 268.374 347.216C266.448 346.923 264.564 346.505 262.639 346.463C262.304 346.463 261.969 346.379 261.634 346.337C260.336 346.128 258.997 345.835 257.699 345.709C255.731 345.5 253.764 345.207 251.754 344.998C250.373 344.83 248.991 344.537 247.61 344.495C246.145 344.495 244.722 343.993 243.256 343.993C242.168 343.993 241.414 343.03 241.456 341.984C241.456 341.607 241.707 341.23 241.833 340.853C241.707 340.728 241.582 340.56 241.456 340.435C240.87 340.477 240.493 340.895 240.117 341.272C239.238 342.109 238.275 342.821 237.228 343.449C235.679 344.412 234.047 345.082 232.163 344.956C231.368 344.914 230.572 344.956 229.777 344.956C228.605 344.998 227.558 344.663 226.553 344.077C225.005 343.156 223.497 342.193 221.949 341.272C220.274 340.267 218.641 339.221 216.967 338.3C213.911 336.625 210.981 334.825 208.302 332.565C207.213 331.644 206.334 330.555 206.083 329.132C205.999 328.63 205.706 328.295 205.329 328.044C204.743 328.002 204.115 328.044 203.529 327.918C200.348 327.332 197.166 326.704 193.985 326.16C191.557 325.741 189.212 325.113 186.743 325.071L186.575 325.03Z" fill="#6A6C65"/>
<path d="M203.362 187.763C202.315 188.684 201.269 189.605 200.18 190.526C198.255 192.117 196.706 194 195.324 196.094C192.603 200.238 190.468 204.633 189.254 209.489C188.501 212.545 187.957 215.601 187.454 218.699C187.454 223.89 187.454 229.123 187.454 234.314C187.454 235.528 186.952 236.658 187.119 237.872C187.705 237.202 188.04 236.449 188.292 235.569C189.38 231.509 190.51 227.448 191.515 223.346C192.394 219.746 193.524 216.271 194.78 212.796C195.743 210.075 196.873 207.438 198.171 204.885C199.72 201.787 201.98 199.233 204.618 197.014C205.539 196.219 206.585 195.675 207.757 195.256C210.018 194.419 212.362 193.875 214.748 193.582C216.339 193.372 217.93 193.289 219.521 193.707C220.274 193.917 221.111 194 221.865 194.21C224.628 194.921 227.265 195.926 229.442 197.768C232.958 200.74 235.47 204.382 236.642 208.861C237.019 210.368 237.27 211.876 237.521 213.383C238.107 216.941 238.024 220.457 237.27 223.932C236.14 229.081 234.005 233.811 230.698 237.956C229.149 239.881 227.181 241.221 224.795 241.932C224.084 242.142 223.414 242.477 222.702 242.644C221.865 242.853 221.321 243.398 220.818 244.026C219.521 245.742 218.223 247.416 216.967 249.175C213.869 253.528 210.52 257.715 207.423 262.068C204.325 266.422 200.976 270.608 197.752 274.878C195.241 278.185 195.743 277.306 195.576 281.074C195.534 282.832 195.534 284.548 195.534 286.306C195.534 287.102 195.701 287.227 196.455 287.353C198.255 287.646 200.013 287.897 201.813 288.148C204.869 288.609 207.883 289.027 210.939 289.488C214.958 290.116 218.976 290.744 222.995 291.372C225.381 291.748 227.726 292.125 230.112 292.502C232.875 292.921 235.638 293.339 238.442 293.758C241.666 294.26 244.889 294.804 248.154 295.223C250.08 295.474 251.964 295.976 253.931 295.809C254.643 293.841 255.103 291.832 255.48 289.823C256.192 285.637 257.448 281.618 258.871 277.683C260.001 274.585 261.173 271.571 262.429 268.515C262.848 267.552 263.392 266.631 264.104 265.794C267.327 262.026 269.127 257.589 270.132 252.817C270.592 250.682 271.011 248.463 270.509 246.244C270.425 245.868 270.425 245.449 270.425 245.03C270.425 240.886 269.295 237.118 267.16 233.602C264.481 229.29 262.053 224.811 259.122 220.667C256.987 217.611 254.769 214.555 252.592 211.499C251.461 209.908 250.373 208.317 249.285 206.726C248.28 205.303 247.317 203.88 246.187 202.54C244.847 200.991 243.549 199.317 242.252 197.726C241.415 196.68 240.41 195.759 239.405 194.88C238.652 194.21 237.773 193.666 237.396 192.703C236.768 192.493 236.224 192.075 235.679 191.656C231.535 188.349 226.972 186.047 221.697 185.084C219.06 184.623 216.423 184.33 213.744 184.372C211.441 184.372 209.264 184.916 207.171 185.879C205.957 186.465 204.785 187.051 203.571 187.596L203.362 187.763Z" fill="#8A89DE"/>
<path d="M253.764 295.851C251.796 296.019 249.912 295.516 247.987 295.265C244.763 294.846 241.54 294.302 238.275 293.8C235.512 293.381 232.749 292.963 229.944 292.544C227.558 292.167 225.214 291.791 222.828 291.414C218.809 290.786 214.79 290.116 210.771 289.53C207.757 289.069 204.701 288.651 201.645 288.19C199.845 287.939 198.087 287.646 196.287 287.395C195.534 287.269 195.366 287.144 195.366 286.348C195.366 284.59 195.366 282.874 195.408 281.116C195.534 277.348 195.073 278.227 197.585 274.92C200.808 270.65 204.157 266.464 207.255 262.11C210.353 257.757 213.702 253.57 216.799 249.217C218.013 247.459 219.353 245.784 220.651 244.068C221.153 243.398 221.697 242.854 222.535 242.686C223.246 242.519 223.916 242.226 224.628 241.975C227.014 241.263 228.981 239.923 230.53 237.998C233.879 233.853 235.972 229.123 237.103 223.974C237.856 220.499 237.982 216.983 237.354 213.425C237.103 211.918 236.851 210.411 236.475 208.904C235.302 204.424 232.791 200.782 229.274 197.81C227.098 195.968 224.46 194.964 221.697 194.252C220.902 194.043 220.107 193.959 219.353 193.75C217.762 193.289 216.213 193.415 214.581 193.624C212.195 193.917 209.85 194.461 207.59 195.298C206.418 195.717 205.371 196.303 204.45 197.057C201.813 199.275 199.594 201.829 198.003 204.927C196.706 207.522 195.575 210.159 194.613 212.839C193.357 216.313 192.226 219.788 191.347 223.388C190.343 227.49 189.212 231.509 188.124 235.612C187.915 236.449 187.58 237.244 186.952 237.914C186.952 238.458 186.826 238.961 186.575 239.463C185.863 240.97 185.11 242.477 184.566 244.026C183.142 247.919 181.384 251.645 179.752 255.454C179.124 257.003 178.286 258.468 177.742 260.017C176.947 262.361 175.775 264.538 174.854 266.841C174.142 268.641 173.556 270.483 172.593 272.199C172.384 272.576 172.384 272.994 172.593 273.329C172.802 273.664 172.97 274.041 173.221 274.334C174.728 275.925 176.068 277.683 177.658 279.232C180.379 281.827 182.975 284.507 185.612 287.144C185.989 287.521 186.324 287.939 186.784 288.232C188.668 289.488 190.091 291.33 191.933 292.67C192.854 293.339 193.566 294.219 194.487 294.888C195.617 295.684 196.664 296.647 197.668 297.609C199.05 298.865 200.515 300.037 201.98 301.168C203.278 302.172 204.618 303.219 205.915 304.224C208.176 305.982 210.436 307.74 212.697 309.498C214.33 310.754 216.046 311.926 217.679 313.182C218.181 313.559 218.683 313.768 219.269 313.894C222.953 314.815 226.637 315.652 230.279 316.74C234.549 317.996 238.861 319.126 243.173 320.257C243.884 320.466 244.554 320.759 245.098 321.261C245.517 321.68 245.894 322.182 246.563 322.266C247.108 320.34 247.736 318.415 248.238 316.489C249.745 310.796 251.252 305.145 252.675 299.451C252.968 298.237 253.638 297.065 253.513 295.767L253.764 295.851Z" fill="#FFB68A"/>
<path d="M204.701 98.9734C204.366 98.8897 204.031 98.6804 203.738 98.7222C202.273 98.9316 200.808 98.6385 199.343 98.5129C197.92 98.4292 196.538 98.6804 195.198 99.099C193.524 99.6432 191.933 100.229 190.259 100.815C189.422 101.108 188.752 101.653 188.082 102.239C185.11 104.918 182.891 108.183 181.007 111.658C178.454 116.43 176.905 121.495 176.109 126.854C175.649 129.826 175.188 132.798 174.854 135.77C174.477 139.37 174.519 142.97 174.854 146.571C175.23 150.757 175.942 154.943 176.988 159.004C178.202 163.776 180.128 168.255 182.765 172.4C183.268 173.195 183.896 173.865 184.566 174.534C185.445 175.414 186.533 175.288 187.287 174.283C187.705 173.697 188.124 173.069 188.417 172.4C189.84 169.385 191.222 166.329 192.143 163.106C192.812 160.72 193.65 158.418 194.571 156.115C195.492 153.813 196.078 151.385 197.124 149.166C197.417 148.496 197.71 147.826 198.003 147.199C198.631 147.366 198.715 147.868 198.966 148.287C199.929 149.878 200.85 151.552 201.855 153.101C203.32 155.445 205.078 157.538 207.129 159.38C207.799 159.004 208.092 158.292 208.469 157.664C211.357 152.975 214.246 148.329 217.092 143.64C217.804 142.51 218.558 141.38 219.562 140.501C221.111 139.119 222.869 138.282 225.004 138.324C227.014 138.366 229.023 138.617 230.949 139.245C232.958 139.915 235.009 140.166 237.102 139.956C238.484 139.831 239.907 139.705 241.289 139.412C243.591 138.91 245.768 138.114 247.61 136.566C248.363 135.938 249.242 135.352 250.08 134.849C252.047 133.593 254.015 132.337 256.024 131.123C258.201 129.826 260.42 128.57 262.638 127.314C263.057 126.435 262.889 125.472 262.806 124.551C262.513 120.491 261.299 116.681 259.331 113.123C256.108 107.22 251.629 102.574 245.852 99.1827C239.74 95.5826 233.126 94.4942 226.176 95.2058C221.488 95.6663 217.009 97.0478 212.781 99.099C212.194 99.392 211.567 99.6432 210.939 99.8944C209.85 100.355 208.762 100.48 207.632 100.146C207.632 100.815 207.171 101.234 206.752 101.653C205.58 102.825 204.366 104.039 203.194 105.211C201.31 107.053 199.845 109.23 198.589 111.49C196.957 114.421 195.575 117.476 194.696 120.7C194.11 122.877 193.566 125.095 193.524 127.356C193.524 127.691 193.524 128.026 193.44 128.361C192.98 130.077 193.064 131.751 193.398 133.51C193.65 134.807 193.608 136.147 193.901 137.445C193.901 137.57 193.901 137.696 193.901 137.863C193.901 138.449 193.65 138.742 193.064 138.784C192.184 138.784 191.305 138.784 190.468 138.784C189.673 138.784 189.17 138.366 188.961 137.696C188.668 136.691 188.249 135.686 188.291 134.598C188.375 131.793 188.124 128.989 188.626 126.226C189.128 123.672 189.547 121.118 190.384 118.649C191.891 114.127 194.068 109.899 196.873 106.048C197.668 104.96 198.547 103.955 199.468 102.992C200.013 102.406 200.766 102.029 201.31 101.485C202.315 100.48 203.487 99.6851 204.743 99.099L204.701 98.9734Z" fill="#894100"/>
<path d="M246.773 322.35C246.103 322.266 245.726 321.764 245.308 321.345C244.763 320.801 244.135 320.508 243.382 320.341C239.07 319.21 234.758 318.08 230.488 316.824C226.846 315.736 223.163 314.899 219.479 313.978C218.893 313.81 218.39 313.643 217.888 313.266C216.255 312.01 214.539 310.838 212.906 309.582C210.646 307.866 208.385 306.066 206.125 304.308C204.827 303.303 203.487 302.256 202.19 301.252C200.724 300.121 199.259 298.949 197.878 297.693C196.873 296.731 195.827 295.768 194.696 294.972C193.734 294.303 193.022 293.423 192.143 292.754C190.301 291.414 188.919 289.572 186.994 288.316C186.575 288.023 186.198 287.605 185.822 287.228C183.184 284.591 180.547 281.911 177.868 279.316C176.277 277.767 174.937 276.009 173.43 274.418C173.179 274.125 173.012 273.748 172.802 273.413C172.593 273.037 172.551 272.66 172.802 272.283C173.765 270.567 174.351 268.725 175.063 266.925C175.984 264.622 177.156 262.445 177.952 260.101C178.454 258.51 179.291 257.045 179.961 255.538C181.552 251.729 183.352 248.003 184.775 244.11C185.361 242.561 186.073 241.054 186.784 239.547C187.036 239.045 187.119 238.542 187.161 237.998C186.994 236.784 187.496 235.612 187.496 234.44C187.496 229.249 187.496 224.016 187.496 218.825C185.947 220.918 184.398 223.011 182.808 225.063C180.296 228.286 177.742 231.426 175.189 234.649C172.635 237.914 170.04 241.138 167.486 244.445C164.849 247.877 162.253 251.394 159.616 254.827C158.444 256.375 157.23 257.883 156.1 259.431C155.597 260.143 155.137 260.855 154.676 261.608C153.755 263.073 152.834 264.58 151.997 266.087C149.946 269.813 148.397 273.706 148.564 278.06C148.564 278.814 148.648 279.525 148.899 280.237C149.736 283.042 150.992 285.595 153.002 287.73C153.965 288.735 154.844 289.865 155.848 290.828C157.732 292.712 159.742 294.47 161.918 296.061C166.732 299.452 171.421 303.01 176.151 306.484C178.245 308.033 180.38 309.54 182.473 311.089C183.394 311.759 184.356 312.387 185.068 313.266C185.319 313.308 185.654 313.308 185.822 313.433C187.287 314.564 188.836 315.61 190.343 316.699C193.734 319.127 197.082 321.638 200.473 324.108C201.938 325.155 203.362 326.243 204.785 327.29C205.078 327.499 205.162 327.792 205.246 328.127C205.664 328.378 205.915 328.713 205.999 329.216C206.25 330.639 207.129 331.727 208.218 332.648C210.855 334.909 213.827 336.709 216.883 338.383C218.6 339.304 220.232 340.351 221.865 341.356C223.414 342.276 224.921 343.239 226.47 344.16C227.474 344.746 228.521 345.081 229.693 345.039C230.488 345.039 231.284 344.998 232.079 345.039C233.963 345.165 235.596 344.453 237.144 343.532C238.149 342.904 239.154 342.193 240.033 341.356C240.41 340.979 240.787 340.602 241.373 340.518C241.373 340.1 241.624 339.807 241.875 339.472C243.256 337.63 244.638 335.746 245.517 333.527C246.605 330.723 247.61 327.918 247.443 324.862C247.484 324.025 246.982 323.313 246.898 322.518L246.773 322.35Z" fill="#E6A37B"/>
<path d="M262.597 127.272C260.378 128.528 258.159 129.784 255.982 131.082C253.973 132.296 252.006 133.552 250.038 134.808C249.201 135.352 248.322 135.896 247.568 136.524C245.726 138.073 243.549 138.868 241.247 139.37C239.866 139.664 238.484 139.789 237.061 139.915C234.968 140.124 232.916 139.831 230.907 139.203C228.981 138.575 227.014 138.324 224.963 138.282C222.828 138.24 221.069 139.077 219.521 140.459C218.516 141.38 217.762 142.468 217.051 143.599C214.162 148.287 211.316 152.934 208.427 157.622C208.05 158.25 207.757 158.962 207.088 159.339C207.088 162.604 207.255 165.911 207.088 169.176C206.878 173.111 206.292 177.004 205.204 180.772C204.576 183.074 203.948 185.419 203.362 187.721C204.576 187.135 205.748 186.549 206.962 186.005C209.055 185.042 211.232 184.498 213.534 184.498C216.213 184.498 218.851 184.707 221.488 185.209C226.763 186.13 231.326 188.475 235.47 191.782C235.972 192.2 236.517 192.619 237.186 192.828C237.731 190.986 238.317 189.144 238.861 187.261C239.238 185.963 239.698 184.707 240.368 183.535C240.703 182.907 241.205 182.488 241.875 182.279C243.089 181.902 244.345 181.567 245.601 181.86C248.154 182.447 250.624 181.986 253.136 181.4C254.224 181.149 255.355 180.814 256.275 180.186C259.331 178.135 261.09 175.288 261.341 171.562C261.508 169.427 261.969 167.334 262.597 165.283C263.225 163.106 264.606 161.557 266.867 160.888C267.746 160.595 268.667 160.343 269.546 160.05C270.006 159.925 270.425 159.757 270.843 159.548C272.895 158.627 273.565 157.329 272.727 154.776C272.267 153.436 271.471 152.264 270.634 151.134C269.546 149.71 268.415 148.287 267.243 146.906C266.322 145.817 265.527 144.687 264.815 143.473C263.099 140.626 262.052 137.529 262.262 134.138C262.345 132.966 262.639 131.752 262.806 130.579C262.973 129.449 263.141 128.319 262.639 127.23L262.597 127.272Z" fill="#FFB68A"/>
<path d="M247.317 324.694C247.484 327.749 246.48 330.554 245.391 333.359C244.512 335.578 243.173 337.42 241.749 339.303C241.498 339.638 241.289 339.931 241.247 340.35C241.373 340.476 241.498 340.643 241.624 340.769C242.587 341.02 243.549 341.355 244.554 341.48C248.28 341.941 252.005 342.359 255.689 342.778C259.792 343.238 263.894 343.783 268.039 344.243C270.257 344.494 272.518 345.039 274.778 344.243C276.286 341.522 276.244 341.02 274.234 338.55C273.397 337.503 272.434 336.582 271.388 335.745C269.839 334.573 268.374 333.317 266.783 332.229C264.062 330.303 261.131 328.67 258.117 327.289C257.531 326.996 256.903 326.745 256.275 326.452C255.02 325.824 253.722 325.321 252.299 325.112C251.671 325.028 250.959 324.987 250.457 324.442C249.41 324.819 248.364 324.945 247.275 324.735L247.317 324.694Z" fill="#FDB589"/>
<path d="M204.701 98.9743C203.445 99.6023 202.273 100.398 201.269 101.36C200.683 101.905 199.971 102.323 199.427 102.868C198.506 103.83 197.627 104.835 196.831 105.923C194.027 109.817 191.85 114.003 190.343 118.524C189.505 120.994 189.087 123.547 188.584 126.101C188.04 128.906 188.333 131.711 188.25 134.473C188.25 135.562 188.626 136.567 188.919 137.571C189.129 138.283 189.631 138.701 190.426 138.66C191.305 138.66 192.185 138.66 193.022 138.66C193.566 138.66 193.817 138.325 193.859 137.739C193.859 137.613 193.859 137.446 193.859 137.32C193.524 136.022 193.608 134.683 193.357 133.385C193.022 131.627 192.938 129.952 193.399 128.236C193.482 127.901 193.482 127.566 193.482 127.231C193.524 124.971 194.027 122.752 194.654 120.575C195.534 117.352 196.915 114.296 198.548 111.366C199.845 109.105 201.311 106.928 203.152 105.086C204.325 103.914 205.539 102.742 206.711 101.528C207.129 101.109 207.59 100.691 207.59 100.021C206.753 99.3511 205.79 98.9325 204.701 98.8906V98.9743Z" fill="#5D3818"/>
<path d="M205.162 328.044C205.12 327.709 205.036 327.416 204.701 327.206C203.236 326.16 201.813 325.071 200.389 324.025C197.04 321.555 193.691 319.043 190.259 316.615C188.752 315.527 187.203 314.48 185.738 313.35C185.57 313.224 185.235 313.224 184.984 313.183C185.486 314.564 185.947 315.946 186.784 317.16C187.496 318.164 187.538 319.211 187.287 320.383C186.91 321.932 186.575 323.481 186.533 325.113C189.003 325.113 191.389 325.783 193.775 326.202C196.957 326.746 200.138 327.416 203.32 327.96C203.906 328.086 204.492 328.044 205.12 328.086L205.162 328.044Z" fill="#FDB58A"/>
<path d="M274.82 344.244C272.56 345.039 270.299 344.495 268.08 344.244C263.978 343.825 259.834 343.281 255.731 342.778C252.005 342.36 248.28 341.941 244.596 341.481C243.591 341.355 242.67 341.02 241.707 340.769C241.582 341.146 241.372 341.522 241.331 341.899C241.289 342.946 242 343.909 243.131 343.909C244.638 343.909 246.019 344.369 247.484 344.411C248.866 344.411 250.247 344.746 251.629 344.913C253.596 345.123 255.564 345.458 257.573 345.625C258.913 345.751 260.21 346.044 261.508 346.253C261.843 346.295 262.178 346.378 262.513 346.378C264.438 346.378 266.322 346.797 268.248 347.132C269.755 347.383 271.304 347.467 272.811 347.634C274.192 347.76 275.574 348.053 276.955 348.137C278.797 348.262 280.681 348.472 282.481 348.89C284.197 349.267 285.914 349.225 287.63 349.518C289.053 349.769 290.518 349.937 291.984 350.062C293.574 350.188 295.123 350.523 296.714 350.732C298.221 350.941 299.77 351.067 301.277 351.235C303.077 351.444 304.835 351.695 306.594 351.904C308.059 352.072 309.482 352.323 310.947 352.407C312.077 352.49 313.208 352.7 314.296 352.909C315.803 353.202 317.352 353.16 318.859 353.495C320.324 353.872 321.915 353.83 323.422 354.039C325.013 354.249 326.562 354.5 328.152 354.667C329.994 354.835 331.836 355.295 333.72 355.253C333.971 355.253 334.264 355.253 334.516 355.253C335.311 355.17 335.939 354.625 336.064 353.914C336.19 353.202 335.771 352.49 334.976 352.155C334.348 351.904 333.72 351.695 333.05 351.653C330.915 351.486 328.822 351.151 326.729 350.941C324.134 350.69 321.622 350.062 318.985 349.979C317.687 349.979 316.347 349.644 315.05 349.351C313.878 349.1 312.664 349.225 311.491 348.932C310.026 348.555 308.435 348.597 306.928 348.43C305.338 348.22 303.747 348.053 302.198 347.76C300.9 347.551 299.561 347.425 298.221 347.299C296.63 347.132 295.081 346.672 293.449 346.755C293.281 346.755 293.03 346.63 292.946 346.504C292.737 346.169 293.072 346.044 293.281 345.876C294.788 344.913 296.295 343.909 297.844 342.988C300.817 341.229 303.831 339.471 306.803 337.713C309.649 336.08 312.454 334.406 315.301 332.815C315.971 332.438 316.515 331.978 317.017 331.434C317.52 330.89 317.561 330.68 317.226 330.01C317.101 329.759 316.975 329.55 316.808 329.341C316.306 328.713 315.803 328.587 315.05 328.964C313.626 329.717 312.245 330.471 310.822 331.308C308.101 332.899 305.421 334.49 302.742 336.122C300.063 337.713 297.342 339.346 294.663 340.936C292.109 342.402 289.598 343.867 287.044 345.332C286.751 345.499 286.416 345.583 286.081 345.583C285.202 345.583 284.365 345.583 283.486 345.416C282.062 345.123 280.597 344.997 279.132 344.788C277.667 344.578 276.244 344.369 274.778 344.202L274.82 344.244Z" fill="#4A4B44"/>
</svg>
