<?xml version="1.0" encoding="UTF-8"?>
<svg xmlns="http://www.w3.org/2000/svg" version="1.1" viewBox="0 0 1417.3 1417.3">
  <defs>
    <style>
      .cls-1 {
        fill: #8a89de;
      }

      .cls-2 {
        fill: #4a4b44;
      }

      .cls-3 {
        fill: #e6a37b;
      }

      .cls-4 {
        fill: #6a6c65;
      }

      .cls-5 {
        fill: #5d3818;
      }

      .cls-6 {
        fill: #fdb589;
      }

      .cls-7 {
        fill: #ffb68a;
      }

      .cls-8 {
        fill: #894100;
      }

      .cls-9 {
        fill: #fdb58a;
      }
    </style>
  </defs>
  <!-- Generator: Adobe Illustrator 28.7.1, SVG Export Plug-In . SVG Version: 1.2.0 Build 142)  -->
  <g>
    <g id="_레이어_1" data-name="레이어_1">
      <g>
        <path class="cls-4" d="M860,932.3c1.9,1.5,2.5,3.6,2.6,5.9.3,4.6.7,9.2.9,13.8.4,14.2,2.4,28.4,1.9,42.6-.6,17-3.1,33.7-9.5,49.7-7.4,18.4-18.8,33.7-35.3,45-10.8,7.4-22.7,12.3-35.5,15.1-7,1.5-14.1,2.5-21.3,2.9-4.1.2-8.3.9-12.3,1.7-8.6,1.7-17.3,2.8-26.1,3.9-6.5.8-13,1.6-19.5,2.4-4.3.5-8.6,1-12.9,1.4-9.4.9-18.8,1.8-28.2,2.6-4.9.4-9.9.3-14.9.5-9.3.4-18.5,1.2-27.8,1.4-15.5.3-31,.6-46.5.2-9.4-.2-18.9-.4-28.3-1-8.3-.5-16.5-1.9-24.7-3-3.6-.5-7.2-1.1-10.8-2-5.7-1.4-10.8-3.9-15.5-7.3-11.8-8.3-20.1-19.6-26.4-32.4-.7-1.4-1.2-3-1.5-4.5-1.6-7.2-2.4-14.5-2-21.9.2-4.2,1-8.3,2.3-12.2,3.4-9.7,8.5-18.2,16.3-25,4.2-3.7,8.5-7.3,13.5-9.9.4-.2.7-.6,1.1-.9-.2-1.5-1.3-2.6-2.1-3.7-4.3-6.1-7.1-12.8-8.4-20.2-.7-4.3-1.8-8.4-1.8-12.8,0-11.7,4.8-21.4,13.4-29.1,3.7-3.3,7.8-6.1,11.9-8.8,7.6-4.9,15.9-7.2,24.7-8.5,12.8-1.9,25.7-2.5,38.7-3.1,6.7-.3,13.4-.6,20.1-.4,6.7.1,13.4.9,20.1,1.4,10.8.9,21.6,2.5,32.3,3.9,6.8.9,13.7,1.3,20.5,2.2,10.9,1.4,21.8,3.2,32.3,6.6,2,.6,3.9,1.4,5.8,2.2-1.2,1.3-2.9,1.4-4.4,1.6-3.4.5-6.5,1.7-9.5,3.2-1.4.7-2.9,1.3-4.4,2-7.3,3.3-14.2,7.2-20.7,11.8-3.8,2.7-7.3,5.7-11,8.4-2.6,1.9-4.8,4.2-6.8,6.7-4.8,5.9-4.9,7.1-1.3,13.6-3.5.5-6.9,1-10.4,1.4-3.5.5-6.9.8-10.4,1.5-2.1.4-4.1.4-6.2.4-.8,0-1.6-.2-2.3-.6-6.1-3.5-12.2-7-18.2-10.5-6.5-3.8-12.9-7.6-19.3-11.5-6.4-3.8-12.9-7.7-19.3-11.5-3.3-1.9-6.7-3.8-10.1-5.6-1.8-1-3-.6-4.2.9-.4.5-.7,1.1-1,1.6-.8,1.6-.8,2.1.5,3.4,1.2,1.3,2.5,2.4,4.1,3.3,6.8,3.8,13.6,7.8,20.3,11.7,7.2,4.2,14.3,8.3,21.4,12.6,3.7,2.2,7.3,4.6,10.9,6.9.5.3,1.2.7.8,1.5-.2.3-.8.6-1.2.6-3.9-.3-7.6.9-11.4,1.3-3.1.3-6.3.6-9.5,1.1-3.8.6-7.5,1.1-11.3,1.6-3.6.4-7.4.4-10.9,1.2-2.8.7-5.7.4-8.5,1-3.1.7-6.3,1.4-9.4,1.5-6.2.2-12.3,1.6-18.5,2.3-5,.5-10.1,1.3-15.1,1.7-1.6.1-3.1.7-4.6,1.2-1.9.7-2.8,2.5-2.6,4.2.3,1.7,1.8,3,3.7,3.2.6,0,1.3,0,1.9,0,4.5,0,8.8-1,13.3-1.4,3.8-.3,7.5-1,11.3-1.5,3.6-.4,7.4-.4,10.9-1.3,3.6-.9,7.3-.7,10.9-1.4,2.6-.5,5.3-1.1,8-1.2,3.5-.2,6.9-.8,10.4-1.2,4.3-.5,8.5-1.1,12.7-1.6,3.6-.4,7.3-.7,10.9-1.2,3.8-.5,7.5-1.3,11.3-1.6,3.5-.3,7-.8,10.4-1.3,4.1-.7,8.2-.6,12.3-1.5,4.3-1,8.8-1.5,13.2-1.8,3.4-.2,6.6-.9,9.9-1.2,3.6-.3,7.3-.6,10.9-1.2,4.6-.7,9.1-1.7,13.7-1.8.8,0,1.6-.2,2.4-.3,3.1-.5,6.3-1.2,9.4-1.5,4.7-.5,9.4-1.2,14.2-1.7,3.3-.4,6.6-1.1,9.9-1.2,3.5,0,6.9-1.2,10.4-1.2,2.6,0,4.4-2.3,4.3-4.8,0-.9-.6-1.8-.9-2.7.3-.3.6-.7.9-1,1.4.1,2.3,1.1,3.2,2,2.1,2,4.4,3.7,6.9,5.2,3.7,2.3,7.6,3.9,12.1,3.6,1.9-.1,3.8,0,5.7,0,2.8.1,5.3-.7,7.7-2.1,3.7-2.2,7.3-4.5,11-6.7,4-2.4,7.9-4.9,11.9-7.1,7.3-4,14.3-8.3,20.7-13.7,2.6-2.2,4.7-4.8,5.3-8.2.2-1.2.9-2,1.8-2.6,1.4-.1,2.9,0,4.3-.3,7.6-1.4,15.2-2.9,22.8-4.2,5.8-1,11.4-2.5,17.3-2.6Z"/>
        <path class="cls-1" d="M819.9,604.4c2.5,2.2,5,4.4,7.6,6.6,4.6,3.8,8.3,8.3,11.6,13.3,6.5,9.9,11.6,20.4,14.5,32,1.8,7.3,3.1,14.6,4.3,22,0,12.4,0,24.9,0,37.3,0,2.9,1.2,5.6.8,8.5-1.4-1.6-2.2-3.4-2.8-5.5-2.6-9.7-5.3-19.4-7.7-29.2-2.1-8.6-4.8-16.9-7.8-25.2-2.3-6.5-5-12.8-8.1-18.9-3.7-7.4-9.1-13.5-15.4-18.8-2.2-1.9-4.7-3.2-7.5-4.2-5.4-2-11-3.3-16.7-4-3.8-.5-7.6-.7-11.4.3-1.8.5-3.8.7-5.6,1.2-6.6,1.7-12.9,4.1-18.1,8.5-8.4,7.1-14.4,15.8-17.2,26.5-.9,3.6-1.5,7.2-2.1,10.8-1.4,8.5-1.2,16.9.6,25.2,2.7,12.3,7.8,23.6,15.7,33.5,3.7,4.6,8.4,7.8,14.1,9.5,1.7.5,3.3,1.3,5,1.7,2,.5,3.3,1.8,4.5,3.3,3.1,4.1,6.2,8.1,9.2,12.3,7.4,10.4,15.4,20.4,22.8,30.8,7.4,10.4,15.4,20.4,23.1,30.6,6,7.9,4.8,5.8,5.2,14.8.1,4.2.1,8.3.1,12.5,0,1.9-.4,2.2-2.2,2.5-4.3.7-8.5,1.3-12.8,1.9-7.3,1.1-14.5,2.1-21.8,3.2-9.6,1.5-19.2,3-28.8,4.5-5.7.9-11.3,1.8-17,2.7-6.6,1-13.2,2-19.9,3-7.7,1.2-15.4,2.5-23.2,3.5-4.6.6-9.1,1.8-13.8,1.4-1.7-4.7-2.8-9.5-3.7-14.3-1.7-10-4.7-19.6-8.1-29-2.7-7.4-5.5-14.6-8.5-21.9-1-2.3-2.3-4.5-4-6.5-7.7-9-12-19.6-14.4-31-1.1-5.1-2.1-10.4-.9-15.7.2-.9.2-1.9.2-2.9,0-9.9,2.7-18.9,7.8-27.3,6.4-10.3,12.2-21,19.2-30.9,5.1-7.3,10.4-14.6,15.6-21.9,2.7-3.8,5.3-7.6,7.9-11.4,2.4-3.4,4.7-6.8,7.4-10,3.2-3.7,6.3-7.7,9.4-11.5,2-2.5,4.4-4.7,6.8-6.8,1.8-1.6,3.9-2.9,4.8-5.2,1.5-.5,2.8-1.5,4.1-2.5,9.9-7.9,20.8-13.4,33.4-15.7,6.3-1.1,12.6-1.8,19-1.7,5.5,0,10.7,1.3,15.7,3.6,2.9,1.4,5.7,2.8,8.6,4.1Z"/>
        <path class="cls-7" d="M699.5,862.6c4.7.4,9.2-.8,13.8-1.4,7.7-1,15.4-2.3,23.2-3.5,6.6-1,13.2-2,19.9-3,5.7-.9,11.3-1.8,17-2.7,9.6-1.5,19.2-3.1,28.8-4.5,7.2-1.1,14.5-2.1,21.8-3.2,4.3-.6,8.5-1.3,12.8-1.9,1.8-.3,2.2-.6,2.2-2.5,0-4.2,0-8.3-.1-12.5-.3-9,.8-6.9-5.2-14.8-7.7-10.2-15.7-20.2-23.1-30.6-7.4-10.4-15.4-20.4-22.8-30.8-2.9-4.2-6.1-8.2-9.2-12.3-1.2-1.6-2.5-2.9-4.5-3.3-1.7-.4-3.3-1.1-5-1.7-5.7-1.7-10.4-4.9-14.1-9.5-8-9.9-13-21.2-15.7-33.5-1.8-8.3-2.1-16.7-.6-25.2.6-3.6,1.2-7.2,2.1-10.8,2.8-10.7,8.8-19.4,17.2-26.5,5.2-4.4,11.5-6.8,18.1-8.5,1.9-.5,3.8-.7,5.6-1.2,3.8-1.1,7.5-.8,11.4-.3,5.7.7,11.3,2,16.7,4,2.8,1,5.3,2.4,7.5,4.2,6.3,5.3,11.6,11.4,15.4,18.8,3.1,6.2,5.8,12.5,8.1,18.9,3,8.3,5.7,16.6,7.8,25.2,2.4,9.8,5.1,19.4,7.7,29.2.5,2,1.3,3.9,2.8,5.5,0,1.3.3,2.5.9,3.7,1.7,3.6,3.5,7.2,4.8,10.9,3.4,9.3,7.6,18.2,11.5,27.3,1.5,3.7,3.5,7.2,4.8,10.9,1.9,5.6,4.7,10.8,6.9,16.3,1.7,4.3,3.1,8.7,5.4,12.8.5.9.5,1.9,0,2.7-.5.8-.9,1.7-1.5,2.4-3.6,3.8-6.8,8-10.6,11.7-6.5,6.2-12.7,12.6-19,18.9-.9.9-1.7,1.9-2.8,2.6-4.5,3-7.9,7.4-12.3,10.6-2.2,1.6-3.9,3.7-6.1,5.3-2.7,1.9-5.2,4.2-7.6,6.5-3.3,3-6.8,5.8-10.3,8.5-3.1,2.4-6.3,4.9-9.4,7.3-5.4,4.2-10.8,8.4-16.2,12.6-3.9,3-8,5.8-11.9,8.8-1.2.9-2.4,1.4-3.8,1.7-8.8,2.2-17.6,4.2-26.3,6.8-10.2,3-20.5,5.7-30.8,8.4-1.7.5-3.3,1.2-4.6,2.4-1,1-1.9,2.2-3.5,2.4-1.3-4.6-2.8-9.2-4-13.8-3.6-13.6-7.2-27.1-10.6-40.7-.7-2.9-2.3-5.7-2-8.8Z"/>
        <path class="cls-8" d="M816.7,392.3c.8-.2,1.6-.7,2.3-.6,3.5.5,7-.2,10.5-.5,3.4-.2,6.7.4,9.9,1.4,4,1.3,7.8,2.7,11.8,4.1,2,.7,3.6,2,5.2,3.4,7.1,6.4,12.4,14.2,16.9,22.5,6.1,11.4,9.8,23.5,11.7,36.3,1.1,7.1,2.2,14.2,3,21.3.9,8.6.8,17.2,0,25.8-.9,10-2.6,20-5.1,29.7-2.9,11.4-7.5,22.1-13.8,32-1.2,1.9-2.7,3.5-4.3,5.1-2.1,2.1-4.7,1.8-6.5-.6-1-1.4-2-2.9-2.7-4.5-3.4-7.2-6.7-14.5-8.9-22.2-1.6-5.7-3.6-11.2-5.8-16.7-2.2-5.5-3.6-11.3-6.1-16.6-.7-1.6-1.4-3.2-2.1-4.7-1.5.4-1.7,1.6-2.3,2.6-2.3,3.8-4.5,7.8-6.9,11.5-3.5,5.6-7.7,10.6-12.6,15-1.6-.9-2.3-2.6-3.2-4.1-6.9-11.2-13.8-22.3-20.6-33.5-1.7-2.7-3.5-5.4-5.9-7.5-3.7-3.3-7.9-5.3-13-5.2-4.8.1-9.6.7-14.2,2.2-4.8,1.6-9.7,2.2-14.7,1.7-3.3-.3-6.7-.6-10-1.3-5.5-1.2-10.7-3.1-15.1-6.8-1.8-1.5-3.9-2.9-5.9-4.1-4.7-3-9.4-6-14.2-8.9-5.2-3.1-10.5-6.1-15.8-9.1-1-2.1-.6-4.4-.4-6.6.7-9.7,3.6-18.8,8.3-27.3,7.7-14.1,18.4-25.2,32.2-33.3,14.6-8.6,30.4-11.2,47-9.5,11.2,1.1,21.9,4.4,32,9.3,1.4.7,2.9,1.3,4.4,1.9,2.6,1.1,5.2,1.4,7.9.6,0,1.6,1.1,2.6,2.1,3.6,2.8,2.8,5.7,5.7,8.5,8.5,4.5,4.4,8,9.6,11,15,3.9,7,7.2,14.3,9.3,22,1.4,5.2,2.7,10.5,2.8,15.9,0,.8,0,1.6.2,2.4,1.1,4.1.9,8.1.1,12.3-.6,3.1-.5,6.3-1.2,9.4,0,.3,0,.6,0,1,0,1.4.6,2.1,2,2.2,2.1,0,4.2,0,6.2,0,1.9,0,3.1-1,3.6-2.6.7-2.4,1.7-4.8,1.6-7.4-.2-6.7.4-13.4-.8-20-1.2-6.1-2.2-12.2-4.2-18.1-3.6-10.8-8.8-20.9-15.5-30.1-1.9-2.6-4-5-6.2-7.3-1.3-1.4-3.1-2.3-4.4-3.6-2.4-2.4-5.2-4.3-8.2-5.7Z"/>
        <path class="cls-3" d="M716.2,925.9c1.6-.2,2.5-1.4,3.5-2.4,1.3-1.3,2.8-2,4.6-2.4,10.3-2.7,20.6-5.4,30.8-8.4,8.7-2.6,17.5-4.6,26.3-6.8,1.4-.4,2.6-.8,3.8-1.7,3.9-3,8-5.8,11.9-8.8,5.4-4.1,10.8-8.4,16.2-12.6,3.1-2.4,6.3-4.9,9.4-7.3,3.5-2.7,7-5.5,10.3-8.5,2.4-2.3,4.9-4.6,7.6-6.5,2.3-1.6,4-3.7,6.1-5.3,4.4-3.2,7.7-7.6,12.3-10.6,1-.7,1.9-1.7,2.8-2.6,6.3-6.3,12.6-12.7,19-18.9,3.8-3.7,7-7.9,10.6-11.7.6-.7,1-1.6,1.5-2.4.5-.9.6-1.8,0-2.7-2.3-4.1-3.7-8.5-5.4-12.8-2.2-5.5-5-10.7-6.9-16.3-1.2-3.8-3.2-7.3-4.8-10.9-3.8-9.1-8.1-18-11.5-27.3-1.4-3.7-3.1-7.3-4.8-10.9-.6-1.2-.8-2.4-.9-3.7.4-2.9-.8-5.7-.8-8.5,0-12.4,0-24.9,0-37.3,3.7,5,7.4,10,11.2,14.9,6,7.7,12.1,15.2,18.2,22.9,6.1,7.8,12.3,15.5,18.4,23.4,6.3,8.2,12.5,16.6,18.8,24.8,2.8,3.7,5.7,7.3,8.4,11,1.2,1.7,2.3,3.4,3.4,5.2,2.2,3.5,4.4,7.1,6.4,10.7,4.9,8.9,8.6,18.2,8.2,28.6,0,1.8-.2,3.5-.8,5.2-2,6.7-5,12.8-9.8,17.9-2.3,2.4-4.4,5.1-6.8,7.4-4.5,4.5-9.3,8.7-14.5,12.5-11.5,8.1-22.7,16.6-34,24.9-5,3.7-10.1,7.3-15.1,11-2.2,1.6-4.5,3.1-6.2,5.2-.6.1-1.4.1-1.8.4-3.5,2.7-7.2,5.2-10.8,7.8-8.1,5.8-16.1,11.8-24.2,17.7-3.5,2.5-6.9,5.1-10.3,7.6-.7.5-.9,1.2-1.1,2-1,.6-1.6,1.4-1.8,2.6-.6,3.4-2.7,6-5.3,8.2-6.3,5.4-13.4,9.7-20.7,13.7-4.1,2.2-8,4.7-11.9,7.1-3.7,2.2-7.3,4.5-11,6.7-2.4,1.4-4.9,2.2-7.7,2.1-1.9,0-3.8-.1-5.7,0-4.5.3-8.4-1.4-12.1-3.6-2.4-1.5-4.8-3.2-6.9-5.2-.9-.9-1.8-1.8-3.2-2,0-1-.6-1.7-1.2-2.5-3.3-4.4-6.6-8.9-8.7-14.2-2.6-6.7-5-13.4-4.6-20.7-.1-2,1.1-3.7,1.3-5.6Z"/>
        <path class="cls-7" d="M678.4,459.9c5.3,3,10.6,6,15.8,9.1,4.8,2.9,9.5,5.9,14.2,8.9,2,1.3,4.1,2.6,5.9,4.1,4.4,3.7,9.6,5.6,15.1,6.8,3.3.7,6.6,1,10,1.3,5,.5,9.9-.2,14.7-1.7,4.6-1.5,9.3-2.1,14.2-2.2,5.1-.1,9.3,1.9,13,5.2,2.4,2.2,4.2,4.8,5.9,7.5,6.9,11.2,13.7,22.3,20.6,33.5.9,1.5,1.6,3.2,3.2,4.1,0,7.8-.4,15.7,0,23.5.5,9.4,1.9,18.7,4.5,27.7,1.5,5.5,3,11.1,4.4,16.6-2.9-1.4-5.7-2.8-8.6-4.1-5-2.3-10.2-3.6-15.7-3.6-6.4,0-12.7.5-19,1.7-12.6,2.2-23.5,7.8-33.4,15.7-1.2,1-2.5,2-4.1,2.5-1.3-4.4-2.7-8.8-4-13.3-.9-3.1-2-6.1-3.6-8.9-.8-1.5-2-2.5-3.6-3-2.9-.9-5.9-1.7-8.9-1-6.1,1.4-12,.3-18-1.1-2.6-.6-5.3-1.4-7.5-2.9-7.3-4.9-11.5-11.7-12.1-20.6-.4-5.1-1.5-10.1-3-15-1.5-5.2-4.8-8.9-10.2-10.5-2.1-.7-4.3-1.3-6.4-2-1.1-.3-2.1-.7-3.1-1.2-4.9-2.2-6.5-5.3-4.5-11.4,1.1-3.2,3-6,5-8.7,2.6-3.4,5.3-6.8,8.1-10.1,2.2-2.6,4.1-5.3,5.8-8.2,4.1-6.8,6.6-14.2,6.1-22.3-.2-2.8-.9-5.7-1.3-8.5-.4-2.7-.8-5.4.4-8Z"/>
        <path class="cls-6" d="M714.9,931.5c-.4,7.3,2,14,4.6,20.7,2.1,5.3,5.3,9.7,8.7,14.2.6.8,1.1,1.5,1.2,2.5-.3.3-.6.7-.9,1-2.3.6-4.6,1.4-7,1.7-8.9,1.1-17.8,2.1-26.6,3.1-9.8,1.1-19.6,2.4-29.5,3.5-5.3.6-10.7,1.9-16.1,0-3.6-6.5-3.5-7.7,1.3-13.6,2-2.5,4.3-4.7,6.8-6.7,3.7-2.8,7.2-5.8,11-8.4,6.5-4.6,13.5-8.5,20.7-11.8,1.4-.7,2.9-1.3,4.4-2,3-1.5,6.1-2.7,9.5-3.2,1.5-.2,3.2-.3,4.4-1.6,2.5.9,5,1.2,7.6.7Z"/>
        <path class="cls-5" d="M816.7,392.3c3,1.5,5.8,3.4,8.2,5.7,1.4,1.3,3.1,2.3,4.4,3.6,2.2,2.3,4.3,4.7,6.2,7.3,6.7,9.3,11.9,19.3,15.5,30.1,2,5.9,3,12,4.2,18.1,1.3,6.7.6,13.4.8,20,0,2.6-.9,5-1.6,7.4-.5,1.7-1.7,2.7-3.6,2.6-2.1,0-4.2,0-6.2,0-1.3,0-1.9-.8-2-2.2,0-.3,0-.7,0-1,.8-3.1.6-6.3,1.2-9.4.8-4.2,1-8.2-.1-12.3-.2-.8-.2-1.6-.2-2.4-.1-5.4-1.3-10.7-2.8-15.9-2.1-7.7-5.4-15-9.3-22-3.1-5.4-6.6-10.6-11-15-2.8-2.8-5.7-5.6-8.5-8.5-1-1-2.1-2-2.1-3.6,2-1.6,4.3-2.6,6.9-2.7Z"/>
        <path class="cls-9" d="M815.6,939.5c.1-.8.3-1.5,1.1-2,3.5-2.5,6.9-5.1,10.3-7.6,8-5.9,16-11.9,24.2-17.7,3.6-2.6,7.3-5.1,10.8-7.8.4-.3,1.2-.3,1.8-.4-1.2,3.3-2.3,6.6-4.3,9.5-1.7,2.4-1.8,4.9-1.2,7.7.9,3.7,1.7,7.4,1.8,11.3-5.9,0-11.6,1.6-17.3,2.6-7.6,1.3-15.2,2.9-22.8,4.2-1.4.3-2.8.2-4.3.3Z"/>
        <path class="cls-2" d="M649.2,978.2c5.4,1.9,10.8.6,16.1,0,9.8-1,19.7-2.3,29.5-3.5,8.9-1,17.8-2,26.6-3.1,2.4-.3,4.6-1.1,6.9-1.7.3.9.8,1.8.9,2.7.1,2.5-1.6,4.8-4.3,4.8-3.6,0-6.9,1.1-10.4,1.2-3.3,0-6.6.8-9.9,1.2-4.7.5-9.4,1.3-14.2,1.7-3.2.3-6.3,1-9.4,1.5-.8.1-1.6.3-2.4.3-4.6,0-9.1,1-13.7,1.8-3.6.6-7.3.8-10.9,1.2-3.3.3-6.6,1-9.9,1.2-4.4.3-8.9.8-13.2,1.8-4.1.9-8.2.8-12.3,1.5-3.4.6-6.9,1-10.4,1.3-3.8.3-7.5,1.1-11.3,1.6-3.6.5-7.3.8-10.9,1.2-4.3.5-8.5,1.1-12.7,1.6-3.5.4-6.9,1-10.4,1.2-2.7.2-5.4.7-8,1.2-3.6.7-7.3.6-10.9,1.4-3.5.9-7.3.8-10.9,1.3-3.8.5-7.5,1.1-11.3,1.5-4.4.4-8.8,1.5-13.3,1.4-.6,0-1.3,0-1.9,0-1.9-.2-3.4-1.5-3.7-3.2-.3-1.7.7-3.4,2.6-4.2,1.5-.6,3-1.1,4.6-1.2,5.1-.4,10.1-1.2,15.1-1.7,6.2-.6,12.2-2.1,18.5-2.3,3.1,0,6.3-.8,9.4-1.5,2.8-.6,5.7-.3,8.5-1,3.5-.9,7.3-.8,10.9-1.2,3.8-.5,7.6-.9,11.3-1.6,3.1-.5,6.3-.8,9.5-1.1,3.8-.4,7.5-1.5,11.4-1.3.4,0,1-.3,1.2-.6.5-.8-.3-1.1-.8-1.5-3.6-2.3-7.2-4.7-10.9-6.9-7.1-4.2-14.3-8.4-21.4-12.6-6.8-3.9-13.5-7.9-20.3-11.7-1.6-.9-2.9-2-4.1-3.3-1.2-1.3-1.3-1.8-.5-3.4.3-.6.6-1.1,1-1.6,1.2-1.5,2.4-1.8,4.2-.9,3.4,1.8,6.7,3.6,10.1,5.6,6.5,3.8,12.9,7.6,19.3,11.5,6.4,3.8,12.9,7.7,19.3,11.5,6.1,3.5,12.1,7,18.2,10.5.7.4,1.5.6,2.3.6,2.1,0,4.1,0,6.2-.4,3.4-.7,6.9-1,10.4-1.5,3.5-.5,6.9-1,10.4-1.4Z"/>
      </g>
    </g>
  </g>
</svg>