<svg width="500" height="500" viewBox="0 0 500 500" fill="none" xmlns="http://www.w3.org/2000/svg">
<path d="M313.364 325.03C314.159 325.658 314.41 326.537 314.452 327.499C314.578 329.425 314.745 331.351 314.829 333.276C314.996 339.221 315.834 345.165 315.624 351.11C315.373 358.226 314.327 365.217 311.648 371.915C308.55 379.618 303.777 386.023 296.87 390.753C292.349 393.851 287.367 395.902 282.009 397.074C279.079 397.702 276.107 398.121 273.093 398.288C271.376 398.372 269.618 398.665 267.943 399C264.343 399.712 260.701 400.172 257.017 400.633C254.296 400.967 251.575 401.302 248.854 401.637C247.054 401.847 245.254 402.056 243.454 402.223C239.519 402.6 235.584 402.977 231.649 403.312C229.598 403.479 227.505 403.437 225.412 403.521C221.518 403.688 217.667 404.023 213.774 404.107C207.285 404.233 200.797 404.358 194.308 404.191C190.373 404.107 186.396 404.023 182.461 403.772C178.987 403.563 175.554 402.977 172.121 402.516C170.614 402.307 169.107 402.056 167.6 401.679C165.214 401.093 163.079 400.046 161.111 398.623C156.172 395.149 152.697 390.418 150.06 385.06C149.767 384.474 149.558 383.804 149.432 383.176C148.762 380.162 148.427 377.106 148.595 374.008C148.678 372.25 149.013 370.534 149.558 368.901C150.981 364.84 153.116 361.282 156.381 358.436C158.139 356.887 159.939 355.38 162.032 354.291C162.2 354.207 162.325 354.04 162.493 353.914C162.409 353.286 161.949 352.826 161.614 352.366C159.814 349.812 158.642 347.007 158.097 343.909C157.804 342.109 157.344 340.393 157.344 338.551C157.344 333.653 159.353 329.593 162.953 326.369C164.502 324.988 166.219 323.816 167.935 322.685C171.116 320.634 174.591 319.671 178.275 319.127C183.633 318.332 189.033 318.08 194.476 317.829C197.28 317.704 200.085 317.578 202.89 317.662C205.695 317.704 208.499 318.039 211.304 318.248C215.825 318.625 220.346 319.294 224.826 319.881C227.672 320.257 230.561 320.425 233.407 320.802C237.97 321.388 242.533 322.141 246.929 323.564C247.766 323.816 248.561 324.15 249.357 324.485C248.854 325.03 248.143 325.071 247.515 325.155C246.091 325.364 244.794 325.867 243.538 326.495C242.952 326.788 242.324 327.039 241.696 327.332C238.64 328.713 235.752 330.346 233.03 332.272C231.44 333.402 229.975 334.658 228.426 335.788C227.337 336.584 226.416 337.546 225.579 338.593C223.57 341.063 223.528 341.565 225.035 344.286C223.57 344.495 222.146 344.705 220.681 344.872C219.216 345.082 217.793 345.207 216.328 345.5C215.448 345.668 214.611 345.668 213.732 345.668C213.397 345.668 213.062 345.584 212.769 345.416C210.216 343.951 207.662 342.486 205.15 341.021C202.429 339.43 199.75 337.839 197.071 336.207C194.392 334.616 191.671 332.983 188.992 331.393C187.61 330.597 186.187 329.802 184.764 329.048C184.01 328.63 183.508 328.797 183.005 329.425C182.838 329.634 182.712 329.886 182.587 330.095C182.252 330.765 182.252 330.974 182.796 331.518C183.298 332.062 183.843 332.523 184.512 332.9C187.359 334.49 190.206 336.165 193.01 337.798C196.024 339.556 198.997 341.272 201.969 343.072C203.518 343.993 205.025 344.998 206.532 345.961C206.741 346.086 207.034 346.254 206.867 346.589C206.783 346.714 206.532 346.84 206.364 346.84C204.732 346.714 203.183 347.217 201.592 347.384C200.294 347.51 198.955 347.635 197.615 347.844C196.024 348.096 194.476 348.305 192.885 348.514C191.378 348.682 189.787 348.682 188.322 349.017C187.15 349.31 185.936 349.184 184.764 349.435C183.466 349.728 182.126 350.021 180.828 350.063C178.233 350.147 175.679 350.733 173.084 351.026C170.991 351.235 168.856 351.57 166.763 351.738C166.093 351.779 165.465 352.031 164.837 352.24C164.042 352.533 163.665 353.287 163.749 353.998C163.874 354.71 164.502 355.254 165.298 355.338C165.549 355.338 165.842 355.338 166.093 355.338C167.977 355.338 169.777 354.919 171.661 354.752C173.251 354.626 174.8 354.333 176.391 354.124C177.898 353.956 179.489 353.956 180.954 353.58C182.461 353.203 184.01 353.286 185.517 352.993C186.605 352.784 187.736 352.533 188.866 352.491C190.331 352.407 191.754 352.156 193.22 351.989C195.02 351.779 196.778 351.528 198.536 351.319C200.043 351.152 201.592 351.026 203.099 350.817C204.69 350.607 206.239 350.272 207.83 350.147C209.295 350.021 210.76 349.812 212.183 349.603C213.9 349.31 215.616 349.351 217.332 348.975C219.132 348.556 221.016 348.347 222.858 348.221C224.281 348.137 225.621 347.844 227.002 347.719C228.509 347.593 230.058 347.468 231.565 347.216C233.491 346.923 235.375 346.505 237.3 346.463C237.635 346.463 237.97 346.379 238.305 346.337C239.603 346.128 240.942 345.835 242.24 345.709C244.208 345.5 246.175 345.207 248.185 344.998C249.566 344.83 250.947 344.537 252.329 344.495C253.794 344.495 255.217 343.993 256.683 343.993C257.771 343.993 258.525 343.03 258.483 341.984C258.483 341.607 258.231 341.23 258.106 340.853C258.231 340.728 258.357 340.56 258.483 340.435C259.069 340.477 259.445 340.895 259.822 341.272C260.701 342.109 261.664 342.821 262.711 343.449C264.26 344.412 265.892 345.082 267.776 344.956C268.571 344.914 269.367 344.956 270.162 344.956C271.334 344.998 272.381 344.663 273.386 344.077C274.934 343.156 276.441 342.193 277.99 341.272C279.665 340.267 281.297 339.221 282.972 338.3C286.028 336.625 288.958 334.825 291.637 332.565C292.726 331.644 293.605 330.555 293.856 329.132C293.94 328.63 294.233 328.295 294.61 328.044C295.196 328.002 295.824 328.044 296.41 327.918C299.591 327.332 302.773 326.704 305.954 326.16C308.382 325.741 310.727 325.113 313.196 325.071L313.364 325.03Z" fill="#6A6C65"/>
<path d="M296.577 187.763C297.624 188.684 298.67 189.605 299.759 190.526C301.684 192.117 303.233 194 304.615 196.094C307.336 200.238 309.471 204.633 310.685 209.489C311.438 212.545 311.982 215.601 312.485 218.699C312.485 223.89 312.485 229.123 312.485 234.314C312.485 235.528 312.987 236.658 312.82 237.872C312.234 237.202 311.899 236.449 311.647 235.569C310.559 231.509 309.429 227.448 308.424 223.346C307.545 219.746 306.415 216.271 305.159 212.796C304.196 210.075 303.066 207.438 301.768 204.885C300.219 201.787 297.959 199.233 295.321 197.014C294.4 196.219 293.354 195.675 292.182 195.256C289.921 194.419 287.577 193.875 285.191 193.582C283.6 193.372 282.009 193.289 280.418 193.707C279.665 193.917 278.828 194 278.074 194.21C275.311 194.921 272.674 195.926 270.497 197.768C266.981 200.74 264.469 204.382 263.297 208.861C262.92 210.368 262.669 211.876 262.418 213.383C261.832 216.941 261.915 220.457 262.669 223.932C263.799 229.081 265.934 233.811 269.241 237.956C270.79 239.881 272.758 241.221 275.144 241.932C275.855 242.142 276.525 242.477 277.237 242.644C278.074 242.853 278.618 243.398 279.121 244.026C280.418 245.742 281.716 247.416 282.972 249.175C286.07 253.528 289.419 257.715 292.516 262.068C295.614 266.422 298.963 270.608 302.187 274.878C304.698 278.185 304.196 277.306 304.363 281.074C304.405 282.832 304.405 284.548 304.405 286.306C304.405 287.102 304.238 287.227 303.484 287.353C301.684 287.646 299.926 287.897 298.126 288.148C295.07 288.609 292.056 289.027 289 289.488C284.981 290.116 280.963 290.744 276.944 291.372C274.558 291.748 272.213 292.125 269.827 292.502C267.064 292.921 264.301 293.339 261.497 293.758C258.273 294.26 255.05 294.804 251.785 295.223C249.859 295.474 247.975 295.976 246.008 295.809C245.296 293.841 244.836 291.832 244.459 289.823C243.747 285.637 242.491 281.618 241.068 277.683C239.938 274.585 238.766 271.571 237.51 268.515C237.091 267.552 236.547 266.631 235.835 265.794C232.612 262.026 230.812 257.589 229.807 252.817C229.347 250.682 228.928 248.463 229.43 246.244C229.514 245.868 229.514 245.449 229.514 245.03C229.514 240.886 230.644 237.118 232.779 233.602C235.458 229.29 237.886 224.811 240.817 220.667C242.952 217.611 245.17 214.555 247.347 211.499C248.478 209.908 249.566 208.317 250.654 206.726C251.659 205.303 252.622 203.88 253.752 202.54C255.092 200.991 256.389 199.317 257.687 197.726C258.524 196.68 259.529 195.759 260.534 194.88C261.287 194.21 262.166 193.666 262.543 192.703C263.171 192.493 263.715 192.075 264.26 191.656C268.404 188.349 272.967 186.047 278.241 185.084C280.879 184.623 283.516 184.33 286.195 184.372C288.498 184.372 290.675 184.916 292.768 185.879C293.982 186.465 295.154 187.051 296.368 187.596L296.577 187.763Z" fill="#8A89DE"/>
<path d="M246.175 295.851C248.143 296.019 250.027 295.516 251.952 295.265C255.176 294.846 258.399 294.302 261.664 293.8C264.427 293.381 267.19 292.963 269.995 292.544C272.381 292.167 274.725 291.791 277.111 291.414C281.13 290.786 285.149 290.116 289.168 289.53C292.182 289.069 295.238 288.651 298.294 288.19C300.094 287.939 301.852 287.646 303.652 287.395C304.405 287.269 304.573 287.144 304.573 286.348C304.573 284.59 304.573 282.874 304.531 281.116C304.405 277.348 304.866 278.227 302.354 274.92C299.131 270.65 295.782 266.464 292.684 262.11C289.586 257.757 286.237 253.57 283.14 249.217C281.926 247.459 280.586 245.784 279.288 244.068C278.786 243.398 278.242 242.854 277.404 242.686C276.693 242.519 276.023 242.226 275.311 241.975C272.925 241.263 270.958 239.923 269.409 237.998C266.06 233.853 263.967 229.123 262.836 223.974C262.083 220.499 261.957 216.983 262.585 213.425C262.836 211.918 263.088 210.411 263.464 208.904C264.636 204.424 267.148 200.782 270.665 197.81C272.841 195.968 275.479 194.964 278.242 194.252C279.037 194.043 279.832 193.959 280.586 193.75C282.177 193.289 283.726 193.415 285.358 193.624C287.744 193.917 290.089 194.461 292.349 195.298C293.521 195.717 294.568 196.303 295.489 197.057C298.126 199.275 300.345 201.829 301.936 204.927C303.233 207.522 304.364 210.159 305.326 212.839C306.582 216.313 307.713 219.788 308.592 223.388C309.596 227.49 310.727 231.509 311.815 235.612C312.024 236.449 312.359 237.244 312.987 237.914C312.987 238.458 313.113 238.961 313.364 239.463C314.076 240.97 314.829 242.477 315.373 244.026C316.797 247.919 318.555 251.645 320.187 255.454C320.815 257.003 321.653 258.468 322.197 260.017C322.992 262.361 324.164 264.538 325.085 266.841C325.797 268.641 326.383 270.483 327.346 272.199C327.555 272.576 327.555 272.994 327.346 273.329C327.137 273.664 326.969 274.041 326.718 274.334C325.211 275.925 323.871 277.683 322.281 279.232C319.56 281.827 316.964 284.507 314.327 287.144C313.95 287.521 313.615 287.939 313.155 288.232C311.271 289.488 309.848 291.33 308.006 292.67C307.085 293.339 306.373 294.219 305.452 294.888C304.322 295.684 303.275 296.647 302.27 297.609C300.889 298.865 299.424 300.037 297.959 301.168C296.661 302.172 295.321 303.219 294.024 304.224C291.763 305.982 289.503 307.74 287.242 309.498C285.609 310.754 283.893 311.926 282.26 313.182C281.758 313.559 281.256 313.768 280.67 313.894C276.986 314.815 273.302 315.652 269.66 316.74C265.39 317.996 261.078 319.126 256.766 320.257C256.055 320.466 255.385 320.759 254.841 321.261C254.422 321.68 254.045 322.182 253.376 322.266C252.831 320.34 252.203 318.415 251.701 316.489C250.194 310.796 248.687 305.145 247.264 299.451C246.971 298.237 246.301 297.065 246.426 295.767L246.175 295.851Z" fill="#FFB68A"/>
<path d="M295.238 98.9734C295.573 98.8897 295.908 98.6804 296.201 98.7222C297.666 98.9316 299.131 98.6385 300.596 98.5129C302.019 98.4292 303.401 98.6804 304.74 99.099C306.415 99.6432 308.006 100.229 309.68 100.815C310.517 101.108 311.187 101.653 311.857 102.239C314.829 104.918 317.048 108.183 318.932 111.658C321.485 116.43 323.034 121.495 323.83 126.854C324.29 129.826 324.751 132.798 325.085 135.77C325.462 139.37 325.42 142.97 325.085 146.571C324.709 150.757 323.997 154.943 322.951 159.004C321.737 163.776 319.811 168.255 317.174 172.4C316.671 173.195 316.043 173.865 315.373 174.534C314.494 175.414 313.406 175.288 312.652 174.283C312.234 173.697 311.815 173.069 311.522 172.4C310.099 169.385 308.717 166.329 307.796 163.106C307.127 160.72 306.289 158.418 305.368 156.115C304.447 153.813 303.861 151.385 302.815 149.166C302.522 148.496 302.229 147.826 301.936 147.199C301.308 147.366 301.224 147.868 300.973 148.287C300.01 149.878 299.089 151.552 298.084 153.101C296.619 155.445 294.861 157.538 292.81 159.38C292.14 159.004 291.847 158.292 291.47 157.664C288.582 152.975 285.693 148.329 282.847 143.64C282.135 142.51 281.381 141.38 280.377 140.501C278.828 139.119 277.07 138.282 274.935 138.324C272.925 138.366 270.916 138.617 268.99 139.245C266.981 139.915 264.93 140.166 262.837 139.956C261.455 139.831 260.032 139.705 258.65 139.412C256.348 138.91 254.171 138.114 252.329 136.566C251.576 135.938 250.697 135.352 249.859 134.849C247.892 133.593 245.924 132.337 243.915 131.123C241.738 129.826 239.519 128.57 237.301 127.314C236.882 126.435 237.05 125.472 237.133 124.551C237.426 120.491 238.64 116.681 240.608 113.123C243.831 107.22 248.31 102.574 254.087 99.1827C260.199 95.5826 266.813 94.4942 273.763 95.2058C278.451 95.6663 282.93 97.0478 287.158 99.099C287.744 99.392 288.372 99.6432 289 99.8944C290.089 100.355 291.177 100.48 292.307 100.146C292.307 100.815 292.768 101.234 293.187 101.653C294.359 102.825 295.573 104.039 296.745 105.211C298.629 107.053 300.094 109.23 301.35 111.49C302.982 114.421 304.364 117.476 305.243 120.7C305.829 122.877 306.373 125.095 306.415 127.356C306.415 127.691 306.415 128.026 306.499 128.361C306.959 130.077 306.875 131.751 306.541 133.51C306.289 134.807 306.331 136.147 306.038 137.445C306.038 137.57 306.038 137.696 306.038 137.863C306.038 138.449 306.289 138.742 306.875 138.784C307.755 138.784 308.634 138.784 309.471 138.784C310.266 138.784 310.769 138.366 310.978 137.696C311.271 136.691 311.69 135.686 311.648 134.598C311.564 131.793 311.815 128.989 311.313 126.226C310.81 123.672 310.392 121.118 309.555 118.649C308.048 114.127 305.871 109.899 303.066 106.048C302.271 104.96 301.392 103.955 300.471 102.992C299.926 102.406 299.173 102.029 298.629 101.485C297.624 100.48 296.452 99.6851 295.196 99.099L295.238 98.9734Z" fill="#894100"/>
<path d="M253.166 322.35C253.836 322.266 254.213 321.764 254.631 321.345C255.176 320.801 255.803 320.508 256.557 320.341C260.869 319.21 265.181 318.08 269.451 316.824C273.093 315.736 276.776 314.899 280.46 313.978C281.046 313.81 281.549 313.643 282.051 313.266C283.684 312.01 285.4 310.838 287.033 309.582C289.293 307.866 291.554 306.066 293.814 304.308C295.112 303.303 296.452 302.256 297.749 301.252C299.214 300.121 300.68 298.949 302.061 297.693C303.066 296.731 304.112 295.768 305.243 294.972C306.205 294.303 306.917 293.423 307.796 292.754C309.638 291.414 311.02 289.572 312.945 288.316C313.364 288.023 313.741 287.605 314.117 287.228C316.755 284.591 319.392 281.911 322.071 279.316C323.662 277.767 325.002 276.009 326.509 274.418C326.76 274.125 326.927 273.748 327.136 273.413C327.346 273.037 327.388 272.66 327.136 272.283C326.174 270.567 325.588 268.725 324.876 266.925C323.955 264.622 322.783 262.445 321.987 260.101C321.485 258.51 320.648 257.045 319.978 255.538C318.387 251.729 316.587 248.003 315.164 244.11C314.578 242.561 313.866 241.054 313.155 239.547C312.903 239.045 312.82 238.542 312.778 237.998C312.945 236.784 312.443 235.612 312.443 234.44C312.443 229.249 312.443 224.016 312.443 218.825C313.992 220.918 315.541 223.011 317.131 225.063C319.643 228.286 322.197 231.426 324.75 234.649C327.304 237.914 329.899 241.138 332.453 244.445C335.09 247.877 337.686 251.394 340.323 254.827C341.495 256.375 342.709 257.883 343.839 259.431C344.342 260.143 344.802 260.855 345.263 261.608C346.184 263.073 347.105 264.58 347.942 266.087C349.993 269.813 351.542 273.706 351.375 278.06C351.375 278.814 351.291 279.525 351.04 280.237C350.202 283.042 348.947 285.595 346.937 287.73C345.974 288.735 345.095 289.865 344.091 290.828C342.207 292.712 340.197 294.47 338.021 296.061C333.206 299.452 328.518 303.01 323.788 306.484C321.694 308.033 319.559 309.54 317.466 311.089C316.545 311.759 315.583 312.387 314.871 313.266C314.62 313.308 314.285 313.308 314.117 313.433C312.652 314.564 311.103 315.61 309.596 316.699C306.205 319.127 302.856 321.638 299.466 324.108C298 325.155 296.577 326.243 295.154 327.29C294.861 327.499 294.777 327.792 294.693 328.127C294.275 328.378 294.024 328.713 293.94 329.216C293.689 330.639 292.81 331.727 291.721 332.648C289.084 334.909 286.112 336.709 283.056 338.383C281.339 339.304 279.707 340.351 278.074 341.356C276.525 342.276 275.018 343.239 273.469 344.16C272.465 344.746 271.418 345.081 270.246 345.039C269.451 345.039 268.655 344.998 267.86 345.039C265.976 345.165 264.343 344.453 262.794 343.532C261.79 342.904 260.785 342.193 259.906 341.356C259.529 340.979 259.152 340.602 258.566 340.518C258.566 340.1 258.315 339.807 258.064 339.472C256.683 337.63 255.301 335.746 254.422 333.527C253.334 330.723 252.329 327.918 252.496 324.862C252.455 324.025 252.957 323.313 253.041 322.518L253.166 322.35Z" fill="#E6A37B"/>
<path d="M237.342 127.272C239.561 128.528 241.78 129.784 243.957 131.082C245.966 132.296 247.933 133.552 249.901 134.808C250.738 135.352 251.617 135.896 252.371 136.524C254.213 138.073 256.39 138.868 258.692 139.37C260.073 139.664 261.455 139.789 262.878 139.915C264.971 140.124 267.023 139.831 269.032 139.203C270.958 138.575 272.925 138.324 274.976 138.282C277.111 138.24 278.869 139.077 280.418 140.459C281.423 141.38 282.177 142.468 282.888 143.599C285.777 148.287 288.623 152.934 291.512 157.622C291.889 158.25 292.182 158.962 292.851 159.339C292.851 162.604 292.684 165.911 292.851 169.176C293.061 173.111 293.647 177.004 294.735 180.772C295.363 183.074 295.991 185.419 296.577 187.721C295.363 187.135 294.191 186.549 292.977 186.005C290.884 185.042 288.707 184.498 286.405 184.498C283.725 184.498 281.088 184.707 278.451 185.209C273.176 186.13 268.613 188.475 264.469 191.782C263.967 192.2 263.422 192.619 262.753 192.828C262.208 190.986 261.622 189.144 261.078 187.261C260.701 185.963 260.241 184.707 259.571 183.535C259.236 182.907 258.734 182.488 258.064 182.279C256.85 181.902 255.594 181.567 254.338 181.86C251.785 182.447 249.315 181.986 246.803 181.4C245.715 181.149 244.584 180.814 243.663 180.186C240.608 178.135 238.849 175.288 238.598 171.562C238.431 169.427 237.97 167.334 237.342 165.283C236.714 163.106 235.333 161.557 233.072 160.888C232.193 160.595 231.272 160.343 230.393 160.05C229.933 159.925 229.514 159.757 229.095 159.548C227.044 158.627 226.374 157.329 227.212 154.776C227.672 153.436 228.468 152.264 229.305 151.134C230.393 149.71 231.523 148.287 232.696 146.906C233.617 145.817 234.412 144.687 235.124 143.473C236.84 140.626 237.887 137.529 237.677 134.138C237.593 132.966 237.3 131.752 237.133 130.579C236.966 129.449 236.798 128.319 237.3 127.23L237.342 127.272Z" fill="#FFB68A"/>
<path d="M252.622 324.694C252.455 327.749 253.459 330.554 254.548 333.359C255.427 335.578 256.766 337.42 258.19 339.303C258.441 339.638 258.65 339.931 258.692 340.35C258.566 340.476 258.441 340.643 258.315 340.769C257.352 341.02 256.39 341.355 255.385 341.48C251.659 341.941 247.933 342.359 244.25 342.778C240.147 343.238 236.045 343.783 231.9 344.243C229.682 344.494 227.421 345.039 225.16 344.243C223.653 341.522 223.695 341.02 225.705 338.55C226.542 337.503 227.505 336.582 228.551 335.745C230.1 334.573 231.565 333.317 233.156 332.229C235.877 330.303 238.808 328.67 241.822 327.289C242.408 326.996 243.036 326.745 243.664 326.452C244.919 325.824 246.217 325.321 247.64 325.112C248.268 325.028 248.98 324.987 249.482 324.442C250.529 324.819 251.575 324.945 252.664 324.735L252.622 324.694Z" fill="#FDB589"/>
<path d="M295.238 98.9743C296.493 99.6023 297.666 100.398 298.67 101.36C299.256 101.905 299.968 102.323 300.512 102.868C301.433 103.83 302.312 104.835 303.108 105.923C305.912 109.817 308.089 114.003 309.596 118.524C310.434 120.994 310.852 123.547 311.355 126.101C311.899 128.906 311.606 131.711 311.689 134.473C311.689 135.562 311.313 136.567 311.02 137.571C310.81 138.283 310.308 138.701 309.513 138.66C308.633 138.66 307.754 138.66 306.917 138.66C306.373 138.66 306.122 138.325 306.08 137.739C306.08 137.613 306.08 137.446 306.08 137.32C306.415 136.022 306.331 134.683 306.582 133.385C306.917 131.627 307.001 129.952 306.54 128.236C306.457 127.901 306.457 127.566 306.457 127.231C306.415 124.971 305.912 122.752 305.285 120.575C304.405 117.352 303.024 114.296 301.391 111.366C300.094 109.105 298.628 106.928 296.787 105.086C295.614 103.914 294.4 102.742 293.228 101.528C292.81 101.109 292.349 100.691 292.349 100.021C293.186 99.3511 294.149 98.9325 295.238 98.8906V98.9743Z" fill="#5D3818"/>
<path d="M294.777 328.044C294.819 327.709 294.903 327.416 295.238 327.206C296.703 326.16 298.126 325.071 299.55 324.025C302.899 321.555 306.248 319.043 309.68 316.615C311.187 315.527 312.736 314.48 314.201 313.35C314.369 313.224 314.704 313.224 314.955 313.183C314.453 314.564 313.992 315.946 313.155 317.16C312.443 318.164 312.401 319.211 312.652 320.383C313.029 321.932 313.364 323.481 313.406 325.113C310.936 325.113 308.55 325.783 306.164 326.202C302.982 326.746 299.801 327.416 296.619 327.96C296.033 328.086 295.447 328.044 294.819 328.086L294.777 328.044Z" fill="#FDB58A"/>
<path d="M225.119 344.244C227.379 345.039 229.64 344.495 231.859 344.244C235.961 343.825 240.105 343.281 244.208 342.778C247.934 342.36 251.659 341.941 255.343 341.481C256.348 341.355 257.269 341.02 258.232 340.769C258.357 341.146 258.567 341.522 258.608 341.899C258.65 342.946 257.939 343.909 256.808 343.909C255.301 343.909 253.92 344.369 252.455 344.411C251.073 344.411 249.692 344.746 248.31 344.913C246.343 345.123 244.375 345.458 242.366 345.625C241.026 345.751 239.729 346.044 238.431 346.253C238.096 346.295 237.761 346.379 237.426 346.379C235.501 346.379 233.617 346.797 231.691 347.132C230.184 347.383 228.635 347.467 227.128 347.634C225.747 347.76 224.365 348.053 222.984 348.137C221.142 348.262 219.258 348.472 217.458 348.89C215.742 349.267 214.025 349.225 212.309 349.518C210.886 349.769 209.42 349.937 207.955 350.062C206.365 350.188 204.816 350.523 203.225 350.732C201.718 350.941 200.169 351.067 198.662 351.235C196.862 351.444 195.104 351.695 193.345 351.904C191.88 352.072 190.457 352.323 188.992 352.407C187.862 352.49 186.731 352.7 185.643 352.909C184.136 353.202 182.587 353.16 181.08 353.495C179.615 353.872 178.024 353.83 176.517 354.039C174.926 354.249 173.377 354.5 171.786 354.667C169.945 354.835 168.103 355.295 166.219 355.253C165.968 355.253 165.675 355.253 165.423 355.253C164.628 355.17 164 354.625 163.875 353.914C163.749 353.202 164.168 352.49 164.963 352.155C165.591 351.904 166.219 351.695 166.889 351.653C169.024 351.486 171.117 351.151 173.21 350.941C175.805 350.69 178.317 350.062 180.954 349.979C182.252 349.979 183.592 349.644 184.889 349.351C186.061 349.1 187.275 349.225 188.448 348.932C189.913 348.555 191.504 348.597 193.011 348.43C194.601 348.22 196.192 348.053 197.741 347.76C199.039 347.551 200.378 347.425 201.718 347.299C203.309 347.132 204.858 346.672 206.49 346.755C206.658 346.755 206.909 346.63 206.992 346.504C207.202 346.169 206.867 346.044 206.658 345.876C205.151 344.913 203.644 343.909 202.095 342.988C199.122 341.229 196.108 339.471 193.136 337.713C190.29 336.08 187.485 334.406 184.638 332.815C183.968 332.438 183.424 331.978 182.922 331.434C182.419 330.89 182.378 330.68 182.712 330.01C182.838 329.759 182.964 329.55 183.131 329.341C183.633 328.713 184.136 328.587 184.889 328.964C186.313 329.717 187.694 330.471 189.117 331.308C191.838 332.899 194.518 334.49 197.197 336.122C199.876 337.713 202.597 339.346 205.276 340.936C207.83 342.402 210.341 343.867 212.895 345.332C213.188 345.499 213.523 345.583 213.858 345.583C214.737 345.583 215.574 345.583 216.453 345.416C217.877 345.123 219.342 344.997 220.807 344.788C222.272 344.578 223.695 344.369 225.161 344.202L225.119 344.244Z" fill="#4A4B44"/>
</svg>
