<?xml version="1.0" encoding="UTF-8"?>
<svg xmlns="http://www.w3.org/2000/svg" version="1.1" viewBox="0 0 1417.3 1417.3">
  <defs>
    <style>
      .cls-1 {
        fill: #8a89de;
      }

      .cls-2 {
        fill: #e8a47c;
      }

      .cls-3 {
        fill: #696d65;
      }

      .cls-4 {
        fill: #ffb68b;
      }

      .cls-5 {
        fill: #494a45;
      }

      .cls-6 {
        fill: #633407;
      }

      .cls-7 {
        fill: #894100;
      }

      .cls-8 {
        fill: #ffb78a;
      }

      .cls-9 {
        fill: #e7a47c;
      }
    </style>
  </defs>
  <!-- Generator: Adobe Illustrator 28.7.1, SVG Export Plug-In . SVG Version: 1.2.0 Build 142)  -->
  <g>
    <g id="_레이어_1" data-name="레이어_1">
      <g>
        <path class="cls-3" d="M1004.9,1071.5c-5.4-4.3-10.9-8.5-16.3-12.8-12.3-9.8-24.3-19.8-36.7-29.4-10.5-8.1-21.4-15.8-32.2-23.7-13.7-10.1-27.3-20.4-41.3-30-13.1-9-24.8-19.7-37-29.8-37.8-31.6-75.4-63.3-113.1-95-2.7-2.3-5.4-4.5-8.1-6.9-1.8-1.5-3.7-3-5.8-4.1-2.3-1.2-4.3-2.7-6.1-4.5-7.8-7.9-15.5-15.9-21.6-25.4-2.9-4.6-5.2-9.5-7.1-14.5-1.8-4.9-3.9-9.7-4.2-15-.1-2.1-.6-4.4-2.6-5.8.8-1,2.9-.5,2.9-2.3,0-4.9.2-9.8-.3-14.6-.3-2.5-.6-5-.6-7.5,0-2.2.3-4.5-.2-6.5-1.1-4.3-.9-8.7-.8-13,0-2.8-1.1-5.2-1.2-8,0-.6-.5-1.2-.9-1.7-1.1-1.5-2.6-1.6-3.8-.3-1.2,1.3-1.8,2.8-2.3,4.4-1.3,4.2-2.6,8.3-3.8,12.5-2.3,8.1-4.6,16.1-6.7,24.2-1,4-3.1,7.9-2.6,12.2-2.3.5-4.2-1-6.4-1.3-8.2-1.1-16.3-2.5-24.5-3.8-12.3-1.9-24.7-3.7-37-5.6-14.5-2.2-29-4.4-43.5-6.7-3.7-.6-7.3-1.2-10.9-2.2-6.5-1.8-13.2-2.5-19.8-3.7-7-1.3-14-1.9-21.1-1.1-5.4.6-10.7,1.5-16,2.4-13.6,2.4-27.2,5-40.8,7.4-4.5.8-9,1.3-13.6,1.5-6.6.3-13.1.9-19.7,1.4-2.5.2-5,.4-7.6.4-23.1.3-46.2.6-69.3,1-19.9.3-39.8-1-59.6-2.6-5-.4-10.1-.8-15.1-1.7-.2-2.5,0-5.1-.5-7.5-2.4-13.4-5-26.8-7.3-40.2-.7-3.8-1.8-7.5-1.5-11.5,2.1-1.8,4.8-1.5,7.2-1.9,17-2.6,34-5,51-7.5,17-2.5,34-5.1,51-7.6,15-2.2,30-4.3,45-6.5,15-2.2,30-4.5,45-6.7,7.2-1.1,14.3-2.1,21.5-3.2,3.2-.5,6.3-1,9.4-1.9,10.1-2.9,20.4-4.3,30.9-4.5,3,0,6.1-.3,9.1-.6,14.6-1.3,29.2-2.8,43.7-4.9,7.5-1.1,15.1-1.6,22.6-2.3,9.7-1,19.4-1.9,29.2-2.8,8.6-.8,17.1-1.6,25.7-2.4,8.7-.8,17.4-1.7,26.2-2.5,1.7-.2,3.4-.4,5-.4,9.4-.4,18.9-.7,28.3-1.1,15.3-.6,30.7-1.2,46-1.9,15.5-.6,31-1.2,46.5-1.8,3.2-.1,6.4-.2,9.6-.2-1.6,2.9-1.4,5.7-.4,8.8,1.9,5.8,3.4,11.6,5.1,17.4,8,27.6,16,55.3,23.9,82.9,1,3.6,2.7,6.4,5.8,8.4.3,1.4,1.4,2.3,2.2,3.3,13.4,15.2,26.8,30.4,40.2,45.5,22.2,25.2,44.4,50.4,66.5,75.6,1.1,1.3,2.3,2.6,2.9,4.1,1.1,2.8,3.1,4.8,5.1,6.8,26.7,25.8,53.4,51.6,80,77.4,15.4,14.9,30.8,29.8,46.1,44.7,4,3.9,7.9,7.8,11.9,11.7-.9,1-2.2.8-3.3.8-11,0-21.7,1.9-32.2,5.2-9.7,3-18.7,7.3-26.7,13.7-8.3,6.6-13.3,14.9-13.8,25.7Z"/>
        <path class="cls-8" d="M1061.6,741.7c-.7,3.8-1.7,7.6-1.9,11.4-.2,3,.5,6,1.1,9,2.2,11.4,4.4,22.8,6.8,34.1,1.4,6.7,3,13.4,4.5,20.2.9,4.1,1.7,8.2,2.7,12.3,1.1,4.6,2.5,9.1,5.2,13,1.1,1.5,1.9,3.2,3,4.7,5.3,7,9.2,14.9,12.4,23,1.7,4.2,3.5,8.4,5.4,12.5,5.1,10.6,10,21.4,15.4,31.8,7.2,13.9,13.7,28.1,19.6,42.7,1,2.5,2.3,4.5,4.4,6,4.5,3.1,7.4,7.8,11.3,11.5.8.8,1.3,1.9,1.8,3,2.4,5,4.5,10.2,5.8,15.6.2.7.4,1.3.5,2,1.2,10.4,1.3,20.8.9,31.3-.2,5.2-1.8,10.3-3.3,15.2-1,3.1-3.3,5.1-6.2,6.2-3.8,1.4-7.6,2.6-11.6,3.2-2.4-.8-4.9-.9-7.4-1-3.7-.2-7.3.8-10.9,1-6.5.3-13.1.1-19.6,0-3.6,0-5.7-1.6-6.4-5-.4-1.9-.9-3.9-1.2-5.9-.7-4.3-.6-9.1-4-12.6-.1-2.9,0-5.7-.4-8.6-.5-4.7-.7-9.4.1-14.1.6-3.3.1-6.3-1.6-9.2-2.9-5.1-5.6-10.4-8.3-15.6-3.4-6.4-6.8-12.8-10.2-19.2-8.4-15.8-16.8-31.5-25.1-47.3-1.4-2.7-2.9-5.3-4.3-8-4.3-8.2-8.8-16.3-12.2-25-2.1-5.3-4.2-10.7-7.3-15.5-2.8-4.3-4.8-8.9-6.4-13.7-5.6-17.3-11.8-34.4-17.9-51.5-3.3-9.4-5.5-19.1-9.1-28.4-2.1-5.4-5-9.9-9.7-13.1-.9-1.4-2.2-2.6-3.6-3.6-6.9-4.8-11-11.7-14-19.3-2.8-6.9-3.1-14.2-2.4-21.4.6-5.9,2.8-11.4,7-15.9,8-8.6,17.3-14.9,29.1-16.9,2-.3,4-.5,6-.8,7.7-1.2,15.4-1.2,23.1.2,5.8,1.1,11.6,2.7,16.6,5.9,7.1,4.4,13.1,10,17.7,17.1,3,4.6,4.7,9.6,4.7,15.2,0,7.9,0,15.8,0,23.8Z"/>
        <path class="cls-1" d="M1061.6,741.7c0-7.9,0-15.8,0-23.8,0-5.6-1.7-10.6-4.7-15.2-4.6-7.1-10.6-12.7-17.7-17.1-5-3.1-10.8-4.8-16.6-5.9-7.7-1.4-15.4-1.4-23.1-.2-2,.3-4,.5-6,.8-11.8,2-21.2,8.3-29.1,16.9-4.2,4.5-6.4,10-7,15.9-.7,7.2-.4,14.5,2.4,21.4,3.1,7.6,7.2,14.5,14,19.3,1.4,1,2.6,2.1,3.6,3.6-1.8,0-3.7.2-5.5.1-4.5-.2-9-.6-13.5-.7-16.6-.1-33.2-.1-49.8-.2-1.8,0-3.7-.2-5.5.6-1.6.7-2.9,0-4.2-.8-1.3-9.3-1.3-18.8-2.1-28.2-.7-9.6-.9-19.2-1.3-28.7,0-.3,0-.7,0-1-1.5-8-.5-16.1-1.6-24.1-.8-5.5-.5-11.1-1-16.6-.8-9.7-.9-19.5-1.4-29.2,0-1.9,0-3.7-.1-5.6,6.2-1.6,12.3-3.3,18.5-4.8,14.7-3.6,29.4-7.2,44.1-10.8,1-.2,2-.6,3-.6,15.7-.8,30.8,1.4,45.2,8.2,10.3,4.9,19.7,11.1,28.4,18.3,6.3,5.2,12.5,10.7,17.8,17.1,4.7,5.5,9.6,10.8,14.4,16.2.7.8,1.6,1.2,2.6,1.4,1,1.6,1.8,3.2,2.9,4.7,2.5,3.6,4.3,7.5,5.7,11.7,1.3,3.7,1.7,7.5,2.4,11.3,1,4.8,1.5,9.6,1.6,14.4,0,3.7-.4,7.3-.9,11-3.4,6.8-7.3,13.3-13,18.6-.7.7-1.5,1.2-2.3,1.8Z"/>
        <path class="cls-7" d="M1205.3,632.4c.8,0,1.7-.1,2.5,0,17.7,4.3,32.5,13.1,42.3,28.9,7,11.3,9.6,23.6,8.1,36.8-1.1,9.7-4.2,18.7-9,27.1-1.7,2.9-3.4,5.8-4.3,9.1-.8.6-1.8,1.1-2.3,1.9-3,4.5-7.3,7.4-11.7,10.1-6.2,3.8-13,6.4-20,8.3-5.7,1.5-11.5,2.4-17.4,2.2-4.5-.2-9.1,0-13.7,0-1,0-2,0-3,0-1.1,0-1.9,1-1.7,2.1.4,1.6.8,3.3,1.5,4.8.8,1.5,2.7,1,4.1,1.3,1.3.3,2.6.8,3.9.8,7.2.3,14.5.3,21.6-1.2,5.9-1.3,11.9-2.4,17.4-5,5-2.3,10.1-4.6,14.2-8.5,2.1-1.9,4.5-3.5,6.5-5.6.6-.6,1.4-.9,2.3-1,1.3,4.5.6,9.1-.4,13.5-2.6,11.8-9.8,20.1-20.1,25.9-6.8,3.8-14.2,6.2-21.7,8.2-11.6,3.1-23.4,4.9-35.3,6.2-19.3,2.1-38.7,2.2-58.1,2-1.2,0-2.4,0-3.5-.2-.8-.1-1-.9-.7-1.6.5-1.5,1.5-2.6,2.7-3.6,1.7-1.4,3.4-2.7,5.2-4,16-11.5,32.3-22.5,48.9-33.3,1.5-1,3.2-1.7,4.4-3.5-1.8-.8-3.2-1.4-4.8-2.1-9.4-3.9-18.2-8.8-26.9-13.8-5-2.9-9.7-6.1-13.3-10.7-.7-.9-1.8-1.5-2.7-2.2-.4-3.3,1.7-5.3,3.6-7.4,3.7-4.1,7.5-8.2,11.2-12.3,2.2-2.4,4.4-4.7,6.4-7.1,4.9-5.8,8.3-12.2,8.2-20.1,0-2.8.3-5.7.8-8.5,1.2-7.2,4.4-12.9,11.3-16.3,8.9-4.4,17.7-9.1,26.4-13.8,4.2-2.2,8.5-4,13.1-5.4,1.5-.4,2.9-.8,4-2Z"/>
        <path class="cls-8" d="M891.3,623.3c0,1.9,0,3.7.1,5.6.4,9.7.5,19.5,1.4,29.2.5,5.5.2,11.1,1,16.6,1.1,8,.1,16.2,1.6,24.1,0,.3,0,.7,0,1,.4,9.6.6,19.2,1.3,28.7.7,9.4.7,18.8,2.1,28.2-2,0-4,.1-6,.1-22.3,0-44.6.1-67,.2-3.1-2-4.8-4.8-5.8-8.4-7.9-27.7-15.9-55.3-23.9-82.9-1.7-5.8-3.3-11.7-5.1-17.4-1-3.1-1.2-5.9.4-8.8,7.1-.3,14-1.8,20.9-2.9,9.1-1.5,18.3-2.9,27.4-4.4,7.1-1.2,14.2-2.5,21.4-3.7,4.6-.8,9.3-1.6,13.9-2.2,4.9-.6,9.6-1.6,14.3-2.9.6-.2,1.3-.1,2-.2Z"/>
        <path class="cls-4" d="M238.6,700.2c-.3,3.9.9,7.7,1.5,11.5,2.3,13.4,4.9,26.8,7.3,40.2.4,2.5.4,5,.5,7.5-5.9,1.5-11.7,3-17.6,4.3-5.9,1.3-11.9,2.3-17.8,3.6-1.7.4-3.3.6-5,.5-5.9-.4-11.7-1.2-17-4.2-2.4-1.3-4.4-3-6.1-5.1-3.6-4.3-5.9-9.4-7.6-14.7-1.8-5.6-3.5-11.2-5.1-16.9-2-7.1-4.3-14.2-5.9-21.4-2.1-9.3-4.3-18.6-5.5-28.2-.4-3.3-.7-6.7-1.4-10-.9-4,.3-8,1.3-11.9,2.6-10.2,9.2-17,18.7-21.1,10.6-4.5,21.8.4,26.2,8.7,5.6,10.5,11.7,20.9,17.5,31.3,4.5,8.1,9.1,16.1,13.6,24.2.5,1,1.2,1.6,2.3,1.7Z"/>
        <path class="cls-8" d="M1004.9,1071.5c.5-10.8,5.5-19.1,13.8-25.7,8-6.4,17-10.7,26.7-13.7,10.5-3.3,21.2-5.2,32.2-5.2,1.2,0,2.4.2,3.3-.8,1.6.8,3.3.8,5,1,0,1.1-.5,1.9-1.2,2.7-.8,1-.9,2.1-.7,3.3,1,5.2,1.9,10.5,3,15.7.3,1.7.9,3.3,2.5,4.2,2.1,1.2,3.6,3,5.3,4.6,1,.9,2,1.8,3.5,1.8,3,0,6.2.5,9-.2,5-1.2,10-.6,15-.8,2.5,0,5.1.4,7.5-.2,3.2-.8,6.3-.7,9.5-.9,1.4,8.4-1.5,15.6-6.9,21.9-4.7,5.4-10.3,9.6-16.7,12.9-11,5.9-22.7,9-35,10.9-9.6,1.5-19.2,1.4-28.7.6-10.8-.8-21.2-3.7-30.7-9.2-6.5-3.7-11.6-8.7-14.4-15.7-.9-2.3-1.4-4.8-2-7.3Z"/>
        <path class="cls-8" d="M1205.3,632.4c-1.1,1.2-2.5,1.6-4,2-4.5,1.3-8.9,3.1-13.1,5.4-8.8,4.6-17.6,9.3-26.4,13.8-6.8,3.4-10.1,9.2-11.3,16.3-.5,2.8-.8,5.7-.8,8.5,0,7.9-3.3,14.3-8.2,20.1-2.1,2.4-4.3,4.8-6.4,7.1-3.7,4.1-7.5,8.2-11.2,12.3-1.9,2.1-4,4.2-3.6,7.4-5.2.6-10.2-.8-15.3-1.4-3.1-.3-6.2-1.1-9.3-1.8-.6-.1-1.2-.5-1.8-.8,0-1-.2-2.1.1-3,1.4-4.8.7-9.7,1-14.5.2-4.1-.7-8-1.6-11.9-1.5-6.6-3.9-12.8-6.9-18.9-.8-1.7-1.9-3.2-1.8-5.2,5.4-1,11-1.5,16.3-3.1,2.5-.8,4.2-1.9,5.2-4.3.9-2.2,1.9-4.3,2.6-6.6,1.8-6,5.5-10.2,10.9-13.3,6.8-4,14.1-5.9,22-6.5,7.6-.5,15.1-.5,22.6-1.2,12.2-1,24.5-2,36.7-1.6,1.5,0,3.1-.4,4.3.9Z"/>
        <path class="cls-2" d="M1084.7,668c0,2,1,3.5,1.8,5.2,2.9,6.1,5.4,12.3,6.9,18.9.9,3.9,1.8,7.8,1.6,11.9-.3,4.8.4,9.7-1,14.5-.3.9,0,2-.1,3-5.7,0-11.4-.2-17-.2.5-3.6.9-7.3.9-11,0-4.9-.6-9.7-1.6-14.4-.7-3.8-1.1-7.6-2.4-11.3-1.4-4.2-3.3-8.1-5.7-11.7-1-1.5-1.9-3.1-2.9-4.7,6.5-1.8,13-1.2,19.5-.2Z"/>
        <path class="cls-5" d="M652.6,774.1c-.4-4.4,1.6-8.2,2.6-12.2,2-8.1,4.4-16.2,6.7-24.2,1.2-4.2,2.6-8.3,3.8-12.5.5-1.6,1.1-3.2,2.3-4.4,1.3-1.3,2.7-1.3,3.8.3.4.5.9,1.2.9,1.7,0,2.7,1.2,5.2,1.2,8,0,4.4-.2,8.7.8,13,.5,2.1.1,4.4.2,6.5,0,2.5.4,5,.6,7.5.5,4.8.3,9.7.3,14.6,0,1.9-2.1,1.4-2.9,2.3-5.5.2-11,.4-16.5.5-1.4,0-2.6-.3-3.8-1.1Z"/>
        <path class="cls-6" d="M1246.6,744.6c-.9,0-1.7.3-2.3,1-2,2.1-4.4,3.6-6.5,5.6-4.2,3.9-9.2,6.2-14.2,8.5-5.5,2.5-11.5,3.7-17.4,5-7.1,1.5-14.4,1.5-21.6,1.2-1.3,0-2.6-.6-3.9-.8-1.4-.3-3.3.2-4.1-1.3-.8-1.4-1.2-3.1-1.5-4.8-.2-1.1.6-2,1.7-2.1,1,0,2,0,3,0,4.6,0,9.1-.2,13.7,0,6,.3,11.7-.7,17.4-2.2,7-1.8,13.8-4.5,20-8.3,4.4-2.7,8.7-5.6,11.7-10.1.5-.8,1.5-1.3,2.3-1.9,1.4,3.2,2,6.6,1.8,10.1Z"/>
        <path class="cls-9" d="M1139.2,1057.3c-3.2.2-6.3,0-9.5.9-2.4.6-5,.1-7.5.2-5,.2-10-.3-15,.8-2.9.7-6,.1-9,.2-1.5,0-2.5-.8-3.5-1.8-1.7-1.6-3.2-3.4-5.3-4.6-1.5-.9-2.1-2.5-2.5-4.2-1-5.2-2-10.5-3-15.7-.2-1.2-.1-2.3.7-3.3.7-.8,1.2-1.6,1.2-2.7,1.3,0,2.6-.2,3.9-.3,3.3,3.6,3.3,8.3,4,12.6.3,2,.7,3.9,1.2,5.9.8,3.4,2.9,5,6.4,5,6.5,0,13.1.2,19.6,0,3.6-.1,7.2-1.1,10.9-1,2.5.1,5,.2,7.4,1,.3,2.4.3,4.7-.1,7Z"/>
      </g>
    </g>
  </g>
</svg>