<svg width="500" height="500" viewBox="0 0 500 500" fill="none" xmlns="http://www.w3.org/2000/svg">
<path d="M192.148 334.051C191.55 337.835 191.742 341.665 191.476 345.467C191.191 349.532 191.488 353.581 191.886 357.618C192.218 360.991 192.668 364.352 193.559 367.639C194.024 369.347 194.634 370.965 195.642 372.442C196.631 373.892 197.471 375.44 198.425 376.913C200.324 379.837 202.868 382.189 205.378 384.558C207.758 386.805 210.357 388.802 212.975 390.76C216.254 393.211 219.924 394.95 223.77 396.286C227.666 397.639 231.684 398.553 235.788 399.03C236.569 399.12 237.359 399.155 238.144 399.167C239.719 399.19 241.294 399.151 242.869 399.194C245.242 399.257 247.583 399.014 249.92 398.655C250.518 398.565 251.124 398.452 251.722 398.467C254.469 398.541 257.142 397.975 259.831 397.568C265.1 396.771 270.364 395.954 275.624 395.126C281.186 394.25 286.747 393.371 292.301 392.456C296.663 391.737 301.024 391.03 305.351 390.127C307.785 389.619 310.189 389.005 312.526 388.169C313.206 387.927 313.781 387.954 314.441 388.216C322.922 391.557 331.751 393.672 340.646 395.532C347.642 396.994 354.696 398.123 361.782 399.038C366.046 399.589 370.321 400.003 374.613 400.339C380.475 400.796 386.337 401.078 392.215 400.98C395.127 400.929 398.019 400.66 400.915 400.406C403.205 400.202 405.507 400.089 407.798 399.882C410.69 399.62 413.59 399.37 416.443 398.795C417.095 398.663 417.771 398.561 418.373 398.299C419.28 397.9 420.218 397.748 421.176 397.639C421.215 394.684 421.293 391.729 421.394 388.775C421.547 384.37 421.512 379.958 421.559 375.549C421.562 375.065 421.543 374.576 421.613 374.103C421.879 372.243 421.859 370.371 421.856 368.503C421.078 368.405 420.296 368.307 419.518 368.213C419.038 368.155 418.557 368.065 418.076 368.057C414.055 367.967 410.182 366.92 406.25 366.263C399.805 365.181 393.376 363.989 386.943 362.847C381.104 361.812 375.261 360.784 369.422 359.752C366.98 359.322 364.537 358.881 362.091 358.462C360.148 358.13 360.144 358.146 359.093 356.524C351.527 344.83 343.972 333.129 336.39 321.447C331.215 313.474 325.994 305.525 320.8 297.564C320.405 296.958 319.928 296.395 319.776 295.657C319.026 295.266 318.756 294.48 318.326 293.839C314.855 288.677 311.447 283.471 307.875 278.371C305.964 275.643 303.924 273.028 301.685 270.574C299.011 267.642 295.838 265.356 292.27 263.605C290.175 262.577 287.967 262.022 285.669 261.807C281.264 261.393 277.149 262.421 273.268 264.453C271.982 265.126 270.86 266.017 269.946 267.201C269.254 268.1 268.66 269.104 267.718 269.796C267.62 270.015 267.546 270.249 267.417 270.449C264.314 275.357 261.414 280.387 258.514 285.413C256.701 288.555 255.063 291.799 253.101 294.852C252.386 295.966 251.851 297.197 250.991 298.221C250.6 299.678 250.354 301.163 250.233 302.668C250.107 304.231 250.049 305.81 249.779 307.354C249.166 310.868 249.017 314.436 248.454 317.953C247.958 321.053 247.536 324.16 247.137 327.274C246.907 329.061 246.371 330.827 246.66 332.66C247.794 332.469 248.505 332.988 248.931 334.001C249.119 334.446 249.318 334.884 249.513 335.322C250.19 336.865 250.874 338.405 251.538 339.953C251.827 340.625 252.257 340.969 253.039 341.02C254.352 341.102 255.657 341.317 256.966 341.477C258.631 341.68 260.292 341.895 261.961 342.083C263.392 342.243 264.853 342.255 266.249 342.564C267.21 342.779 268.175 342.677 269.109 342.884C270.813 343.267 272.556 343.31 274.28 343.513C275.613 343.67 276.871 343.928 278.005 344.666C278.853 343.47 279.31 342.083 279.912 340.766C282.132 335.923 284.543 331.167 286.595 326.247C287.154 324.906 287.76 323.585 288.354 322.26C288.576 321.764 288.819 321.271 289.245 320.904C289.628 320.572 290.261 320.599 290.527 321.033C290.839 321.545 291.101 322.096 291.308 322.659C292.637 326.239 294.134 329.741 296.026 333.07C298.3 337.08 300.743 340.977 303.611 344.592C304.702 345.964 305.781 347.355 307.203 348.418C307.551 347.758 308.102 347.539 308.845 347.519C310.549 347.476 312.198 347.871 313.867 348.098C314.938 348.242 316.001 348.457 317.071 348.633C318.912 348.938 320.753 349.235 322.59 349.54C324.431 349.845 326.268 350.146 328.108 350.458C329.945 350.767 331.782 351.095 333.619 351.4C335.397 351.697 337.183 351.979 338.962 352.276C340.802 352.58 342.639 352.885 344.476 353.21C346.016 353.483 347.548 353.812 349.092 354.062C351.585 354.468 354.086 354.828 356.584 355.215C357.369 355.336 357.917 355.766 358.147 356.543C358.237 356.844 358.19 357.161 357.948 357.384C357.494 357.806 356.983 358.118 356.322 358.005C354.841 357.755 353.356 357.509 351.878 357.251C350.1 356.938 348.33 356.606 346.551 356.289C344.715 355.965 342.878 355.644 341.041 355.332C339.321 355.039 337.601 354.753 335.878 354.464C333.447 354.058 331.012 353.655 328.581 353.241C326.803 352.936 325.029 352.604 323.254 352.287C321.417 351.963 319.584 351.639 317.748 351.318C315.375 350.904 313.003 350.509 310.638 350.071C309.517 349.864 308.387 349.641 307.391 349.016C302.232 348.34 297.081 347.625 291.914 346.992C287.65 346.468 283.429 345.655 279.146 345.307C278.712 345.272 278.313 345.17 277.969 344.897C277.414 345.983 276.547 346.331 275.406 345.925C274.815 345.714 274.218 345.749 273.616 345.725C273.135 345.71 272.642 345.741 272.17 345.659C270.274 345.327 268.382 345.026 266.452 344.983C266.213 344.979 265.975 344.92 265.737 344.889C264.072 344.682 262.407 344.463 260.738 344.275C259.308 344.111 257.85 344.084 256.443 343.814C254.786 343.494 253.105 343.447 251.44 343.224C250.674 343.122 250.213 342.88 249.928 342.196C249.74 341.751 249.498 341.332 249.306 340.887C248.642 339.339 248.009 337.772 247.321 336.236C246.844 335.173 246.551 334.087 246.563 332.918C244.757 333.121 242.94 333.133 241.13 333.258C237.449 333.512 233.748 333.543 230.058 333.614C220.19 333.797 210.314 333.727 200.445 334.118C199.961 334.137 199.476 334.126 198.991 334.145C198.569 334.161 198.143 334.176 197.725 334.231C195.857 334.481 193.993 334.559 192.148 334.059V334.051Z" fill="#696D65"/>
<path d="M206.206 201.931C205.416 202.247 204.604 202.435 203.748 202.443C201.399 202.47 199.069 202.795 196.728 202.935C194.833 203.049 192.906 203.326 191.073 203.94C190.596 205.933 190.088 207.918 189.651 209.915C188.63 214.566 187.614 219.217 186.653 223.876C185.566 229.124 184.539 234.389 183.487 239.645C182.827 242.956 182.178 246.266 181.521 249.572C180.814 253.117 180.099 256.658 179.387 260.203C180.345 260.766 180.763 261.555 180.849 262.712C180.998 264.693 181.529 266.624 182.045 268.547C182.624 270.7 183.347 272.823 183.808 274.999C184.933 280.307 186.508 285.509 187.399 290.867C187.603 292.098 187.798 293.364 188.404 294.502C189.252 294.502 190.116 294.4 190.94 294.537C192.625 294.818 194.317 294.767 196.005 294.783C198.245 294.806 200.484 294.806 202.724 294.803C211.552 294.783 220.381 294.763 229.21 294.529C236.589 294.334 243.971 294.42 251.354 294.38C251.569 293.747 251.71 293.102 251.714 292.43C251.717 291.942 251.784 291.473 252.081 291.054C252.831 289.995 253.109 288.745 253.476 287.537C254.328 284.708 255.149 281.866 255.985 279.033C257.252 274.753 258.522 270.474 259.792 266.194C260.257 264.631 260.734 263.075 261.187 261.512C261.289 261.16 261.515 261.039 261.84 261.012C261.59 259.464 261.359 257.916 261.082 256.373C260.382 252.457 259.663 248.544 258.959 244.628C258.33 241.127 257.721 237.625 257.08 234.127C256.384 230.332 255.677 226.541 254.95 222.75C254.242 219.08 253.539 215.406 252.761 211.752C252.183 209.04 251.487 206.351 250.846 203.65C249.416 202.787 247.821 202.572 246.195 202.486C243.807 202.361 241.415 202.263 239.027 202.107C237.957 202.036 236.897 201.853 235.83 201.724C235.178 201.829 234.525 202.005 233.872 202.025C228.815 202.157 223.758 202.052 218.704 202.372C215.523 202.576 212.318 202.474 209.125 202.501C208.523 202.505 207.922 202.478 207.32 202.466C206.866 202.458 206.519 202.24 206.218 201.923L206.206 201.931Z" fill="#8989DE"/>
<path d="M179.388 260.213C180.099 256.669 180.814 253.128 181.521 249.583C182.182 246.273 182.831 242.962 183.487 239.656C184.535 234.399 185.567 229.135 186.653 223.886C187.618 219.224 188.631 214.573 189.651 209.926C190.088 207.925 190.596 205.939 191.073 203.95C188.654 204.208 186.282 204.775 184.093 205.783C180.798 207.3 177.527 208.898 174.491 210.911C172.873 211.986 171.376 213.193 169.984 214.561C167.604 216.898 165.267 219.278 163.309 221.971C161.64 224.269 160.139 226.688 158.627 229.096C156.309 232.785 154.05 236.51 151.764 240.215C149.192 244.385 146.621 248.559 144.049 252.729C140.809 257.982 137.569 263.234 134.329 268.483C132.043 272.192 129.757 275.897 127.466 279.606C124.668 284.136 121.866 288.661 119.075 293.195C116.031 298.139 112.994 303.091 109.958 308.043C107.425 312.17 104.892 316.293 102.372 320.424C99.1551 325.692 95.9269 330.949 92.7495 336.237C90.2248 340.438 87.6961 344.635 85.3629 348.95C84.2412 351.025 83.1195 353.105 81.9002 355.125C81.0247 356.571 79.9851 357.916 79.0237 359.311C78.4414 360.159 77.8395 360.991 77.3041 361.867C76.7491 362.774 76.03 363.469 75.0607 363.911C72.4149 365.111 69.7885 366.35 67.0176 367.245C63.2148 368.472 59.4707 369.848 55.8752 371.614C54.5737 372.251 53.2019 372.74 51.8653 373.31C51.4197 373.498 50.9977 373.744 50.5521 373.928C48.4534 374.803 47.4724 376.316 47.6639 378.637C47.7929 380.204 47.7616 381.783 47.7577 383.358C47.7577 384.339 47.9648 385.285 48.1954 386.219C48.7113 388.295 50.3059 389.307 52.1311 389.369C53.1589 389.404 54.1907 389.397 55.2185 389.393C62.6677 389.365 70.1207 389.334 77.5699 389.311C79.9304 389.303 82.2949 389.311 84.6555 389.35C85.5192 389.365 86.3439 389.186 87.1568 388.959C88.4231 388.611 89.4548 387.896 90.1661 386.77C91.5223 384.621 92.8198 382.436 94.2268 380.322C97.7521 375.038 101.309 369.773 104.892 364.528C108.101 359.835 111.368 355.18 114.604 350.506C119.009 344.139 123.406 337.765 127.814 331.402C130.777 327.126 133.759 322.863 136.733 318.595C141.298 312.045 145.859 305.49 150.424 298.944C153.019 295.223 155.614 291.503 158.22 287.79C162.043 282.346 165.92 276.937 169.683 271.453C171.978 268.108 174.393 264.86 177.023 261.773C177.664 261.022 178.356 260.362 179.391 260.213H179.388Z" fill="#FFB78B"/>
<path d="M250.837 203.662C251.482 206.362 252.174 209.047 252.752 211.763C253.53 215.418 254.234 219.091 254.941 222.761C255.672 226.548 256.379 230.343 257.071 234.138C257.712 237.636 258.322 241.142 258.951 244.64C259.654 248.556 260.377 252.468 261.073 256.384C261.347 257.928 261.577 259.475 261.831 261.023C262.363 261.746 262.863 262.5 263.438 263.188C264.942 264.994 266.244 266.92 267.19 269.078C267.307 269.34 267.537 269.551 267.717 269.785C268.659 269.093 269.253 268.085 269.945 267.186C270.855 266.002 271.977 265.111 273.267 264.439C277.148 262.406 281.263 261.379 285.668 261.793C287.966 262.008 290.174 262.563 292.269 263.591C295.837 265.342 299.01 267.628 301.684 270.559C303.923 273.013 305.967 275.632 307.874 278.356C311.443 283.452 314.851 288.658 318.325 293.825C318.755 294.462 319.025 295.251 319.775 295.642C320.088 295.552 320.291 295.361 320.396 295.044C320.944 293.379 321.471 291.742 321.592 289.948C321.811 286.692 322.077 283.441 322.3 280.189C322.526 276.875 322.796 273.561 323.031 270.246C323.257 267.053 323.445 263.852 323.781 260.671C324.012 258.506 323.82 256.31 324.348 254.176C324.375 254.058 324.363 253.933 324.371 253.812C324.516 251.276 324.52 248.724 324.852 246.215C325.137 244.049 324.934 241.853 325.43 239.719C325.458 239.602 325.454 239.477 325.458 239.356C325.594 236.456 325.735 233.556 325.864 230.656C325.911 229.569 325.848 228.475 326.149 227.408C326.231 227.123 326.216 226.806 326.216 226.505C326.204 223.961 326.548 221.448 326.888 218.931C327.107 217.317 327.162 215.679 327.353 214.061C327.646 211.544 327.99 209.031 328.307 206.518C328.463 205.26 328.498 203.994 328.713 202.735C328.975 201.192 329.006 199.609 329.178 198.049C329.35 196.49 329.593 194.938 329.776 193.379C329.921 192.179 329.999 190.975 330.151 189.776C330.515 186.962 330.644 184.116 331.007 181.302C331.222 179.614 331.34 177.934 331.371 176.241C331.379 175.757 331.394 175.268 331.324 174.791C331.207 173.971 330.812 173.302 330.034 172.935C329.542 172.7 329.045 172.47 328.533 172.298C325.028 171.149 321.514 170.019 318.001 168.886C317.657 168.776 317.293 168.722 316.949 168.612C315.785 168.241 314.8 168.55 313.995 169.429C311.955 171.665 309.926 173.908 307.898 176.151C306.6 177.59 305.311 179.036 304.021 180.478C302.973 181.65 301.938 182.838 300.879 183.999C300.023 184.937 299.87 186.008 300.109 187.212C300.472 189.045 300.808 190.885 301.117 192.73C301.586 195.532 302.082 198.331 302.809 201.074C303.524 203.771 303.802 206.538 304.263 209.278C304.408 210.13 304.134 211.075 303.954 211.959C303.126 216.043 302.52 220.162 301.836 224.27C301.293 227.545 300.683 230.808 300.14 234.079C299.597 237.355 299.096 240.637 298.577 243.917C298.131 246.719 297.701 249.521 297.213 252.315C297.095 252.98 297.447 253.777 296.74 254.309C296.087 253.969 295.982 253.242 295.63 252.698C293.336 249.142 291.085 245.562 288.826 241.982C288.568 241.572 288.321 241.153 288.106 240.72C286.582 237.624 284.82 234.65 283.206 231.606C281.189 227.799 278.84 224.211 276.401 220.674C274.545 217.985 272.571 215.402 270.214 213.104C268.073 211.009 265.685 209.297 263.101 207.824C259.494 205.768 255.598 204.494 251.553 203.634C251.326 203.587 251.072 203.654 250.833 203.665L250.837 203.662Z" fill="#FFB78B"/>
<path d="M232.043 127.86C231.836 127.868 231.629 127.879 231.421 127.887C231.246 127.93 231.101 127.887 230.999 127.735C220.725 123.154 210.411 122.892 200.148 127.68C194.805 130.173 190.588 133.992 187.821 139.272C187.008 140.82 186.273 142.414 186.043 144.181C187.215 145.623 188.388 147.065 189.486 148.57C190.768 150.328 191.976 152.142 193.304 153.857C194.969 156.007 196.724 158.082 198.451 160.185C199.104 160.978 199.847 161.69 200.675 162.307C201.371 162.827 202.113 163.159 202.997 163.222C204.443 163.327 205.881 163.542 207.327 163.609C209.117 163.691 210.415 164.523 211.384 165.965C211.755 166.516 212.134 167.067 212.455 167.65C213.502 169.557 214.991 170.999 216.855 172.105C220.494 174.262 224.097 176.478 227.732 178.64C228.873 179.32 230.065 179.914 231.249 180.516C232.066 180.934 232.938 181.172 233.872 181.078C236.729 179.867 238.921 177.87 240.758 175.404C242.193 173.477 243.619 171.527 245.522 170.006C245.163 169.471 245.057 168.912 245.331 168.295C245.476 167.966 245.53 167.595 245.69 167.275C246.664 165.316 247.211 163.226 247.625 161.099C247.797 160.216 248.051 159.321 248.039 158.434C248.02 156.273 248.18 154.119 247.762 151.942C247.156 148.792 246.335 145.74 244.995 142.817C244.366 141.441 243.572 140.175 242.83 138.873C241.927 137.29 240.778 135.899 239.578 134.555C237.561 132.3 235.228 130.396 232.762 128.649C232.457 128.434 232.187 128.215 232.047 127.864L232.043 127.86Z" fill="#814414"/>
<path d="M251.351 294.395C243.968 294.435 236.581 294.345 229.206 294.544C220.378 294.779 211.549 294.794 202.72 294.818C200.481 294.821 198.241 294.822 196.002 294.798C194.314 294.779 192.621 294.829 190.937 294.552C190.112 294.415 189.248 294.521 188.4 294.517C188.69 295.99 188.959 297.467 189.276 298.937C189.995 302.286 190.683 305.64 191.042 309.055C191.257 311.084 191.66 313.093 191.961 315.113C192.023 315.527 192.031 315.953 192.035 316.376C192.074 319.029 191.941 321.699 192.18 324.333C192.422 326.994 192.07 329.613 192.082 332.255C192.082 332.857 192.121 333.458 192.145 334.056C193.989 334.557 195.853 334.482 197.722 334.228C198.14 334.174 198.566 334.158 198.988 334.142C199.472 334.123 199.957 334.135 200.442 334.115C210.31 333.72 220.182 333.795 230.055 333.611C233.744 333.541 237.445 333.509 241.127 333.255C242.936 333.13 244.753 333.118 246.559 332.915C246.567 332.817 246.602 332.732 246.661 332.653C246.368 330.82 246.907 329.054 247.138 327.264C247.536 324.153 247.958 321.042 248.455 317.943C249.021 314.425 249.166 310.857 249.779 307.344C250.049 305.804 250.104 304.221 250.233 302.658C250.354 301.153 250.6 299.668 250.991 298.21C250.991 297.51 251.018 296.823 251.194 296.127C251.335 295.572 251.3 294.97 251.343 294.392L251.351 294.395Z" fill="#FFB78A"/>
<path d="M421.855 368.496C421.859 370.368 421.879 372.236 421.613 374.096C421.546 374.573 421.566 375.062 421.558 375.542C421.511 379.951 421.546 384.363 421.394 388.768C421.292 391.722 421.214 394.677 421.175 397.632C422.289 398.456 423.547 398.804 424.919 398.796C427.338 398.785 429.777 398.949 432.177 398.73C435.725 398.409 439.231 397.757 442.526 396.272C443.694 395.744 444.734 395.005 445.75 394.255C448.279 392.395 450.198 390.014 451.519 387.158C451.855 386.431 452.081 385.696 452.074 384.891C452.07 384.226 452.121 383.574 452.273 382.913C452.547 381.756 452.081 380.639 451.921 379.513C451.632 377.481 451.296 375.456 451.304 373.397C451.315 370.43 451.159 367.448 451.409 364.505C451.644 361.723 451.628 358.952 451.698 356.173C451.722 355.145 451.71 354.113 451.679 353.085C451.55 348.689 450.671 344.448 448.818 340.45C447.489 337.581 445.559 335.264 442.604 333.869C439.098 332.211 433.693 332.934 430.774 335.827C428.698 337.882 427.585 340.368 427.002 343.119C425.646 349.494 424.372 355.884 423.074 362.27C422.652 364.341 422.262 366.416 421.859 368.488L421.855 368.496Z" fill="#FFB78A"/>
<path d="M233.873 181.076C232.939 181.169 232.067 180.931 231.251 180.513C230.066 179.907 228.874 179.313 227.733 178.637C224.098 176.476 220.495 174.26 216.856 172.102C214.992 170.996 213.503 169.554 212.456 167.647C212.135 167.064 211.756 166.517 211.385 165.962C210.416 164.52 209.118 163.684 207.328 163.606C205.882 163.539 204.444 163.324 202.998 163.219C202.115 163.156 201.376 162.82 200.676 162.304C199.844 161.687 199.105 160.979 198.453 160.182C196.725 158.083 194.97 156.004 193.305 153.855C191.973 152.139 190.765 150.325 189.487 148.567C188.393 147.062 187.22 145.62 186.044 144.178C185.821 145.624 185.931 147.078 185.962 148.524C186.013 151.037 185.317 153.28 183.883 155.332C182.253 157.669 180.486 159.865 178.263 161.687C177.098 162.644 176.054 163.754 174.968 164.802C174.753 165.009 174.55 165.243 174.386 165.493C173.967 166.142 173.834 166.803 174.229 167.541C174.604 168.245 175.011 168.897 175.695 169.347C176.402 169.808 177.102 170.285 177.794 170.773C180.338 172.556 182.601 174.603 184.277 177.273C185 178.422 185.434 179.665 185.821 180.931C186.267 182.385 186.802 183.8 187.599 185.089C188.811 187.051 190.448 188.505 192.735 189.15C193.509 189.369 194.286 189.404 195.068 189.4C197.429 189.388 199.785 189.338 202.146 189.322C204.303 189.306 204.577 189.537 205.022 191.702C205.257 192.824 205.253 193.977 205.46 195.11C205.73 196.587 205.796 198.104 205.898 199.608C205.949 200.394 206.347 201.125 206.21 201.93C206.507 202.247 206.859 202.461 207.313 202.473C207.914 202.485 208.516 202.516 209.118 202.508C212.311 202.481 215.516 202.583 218.697 202.379C223.755 202.059 228.812 202.164 233.865 202.032C234.522 202.016 235.171 201.836 235.823 201.731C235.604 200.668 235.409 199.601 235.159 198.545C234.616 196.251 234.381 193.922 234.178 191.573C233.932 188.74 233.881 185.906 233.842 183.069C233.834 182.404 233.861 181.74 233.873 181.076Z" fill="#FFB78A"/>
<path d="M247.32 171.946C247.809 177.43 248.286 182.913 248.786 188.396C248.903 189.67 249.173 190.909 249.9 191.999C250.068 192.25 250.205 192.543 250.427 192.734C251.655 193.782 252.55 193.926 253.613 192.906C254.492 192.062 255.238 191.124 255.789 190.03C256.556 188.517 257.232 186.966 257.826 185.379C259.78 180.169 261.707 174.952 263.102 169.554C264.681 163.438 265.693 157.232 265.904 150.924C266.064 146.183 265.447 141.497 263.966 136.967C262.817 133.446 260.941 130.382 257.994 128.045C257.376 127.556 256.81 127.005 256.188 126.525C250.932 122.44 245.237 121.757 239.129 124.363C239.023 124.406 238.949 124.516 238.859 124.594C239.015 124.684 239.183 124.762 239.328 124.871C241.157 126.251 242.963 127.654 244.764 129.073C247.527 131.246 249.665 133.892 251.416 136.874C253.421 140.282 254.773 143.963 255.606 147.828C255.782 148.653 256.028 149.486 256.032 150.314C256.04 152.784 256.309 155.274 255.692 157.712C255.278 159.346 255.047 161.038 254.351 162.586C253.378 164.736 252.331 166.854 250.916 168.753C250.083 169.875 249.048 170.813 248 171.727C247.836 171.872 247.551 171.876 247.32 171.946Z" fill="#824515"/>
<path d="M247.32 171.945C247.551 171.875 247.836 171.871 248 171.726C249.048 170.812 250.083 169.87 250.916 168.752C252.331 166.849 253.378 164.734 254.351 162.585C255.051 161.037 255.281 159.345 255.692 157.711C256.309 155.273 256.044 152.783 256.032 150.313C256.032 149.484 255.786 148.648 255.606 147.827C254.773 143.962 253.421 140.284 251.416 136.872C249.665 133.89 247.527 131.245 244.764 129.072C242.967 127.657 241.157 126.25 239.328 124.87C239.183 124.761 239.015 124.687 238.859 124.593C238.656 124.671 238.453 124.745 238.249 124.823C238.183 124.995 238.054 125.054 237.878 125.027C237.761 125.077 237.64 125.124 237.522 125.175C237.456 125.351 237.323 125.414 237.143 125.386C236.299 125.785 235.459 126.18 234.615 126.578C234.529 126.77 234.384 126.844 234.177 126.809C234.06 126.793 233.966 126.828 233.888 126.914C233.798 127.106 233.649 127.192 233.438 127.164C233.325 127.149 233.235 127.184 233.161 127.27C233.067 127.461 232.915 127.551 232.7 127.52C232.438 127.555 232.184 127.606 232.035 127.86C232.176 128.212 232.446 128.431 232.75 128.646C235.216 130.389 237.55 132.296 239.566 134.551C240.77 135.892 241.915 137.287 242.818 138.87C243.564 140.171 244.354 141.441 244.983 142.813C246.324 145.736 247.148 148.785 247.75 151.939C248.168 154.112 248.008 156.265 248.028 158.43C248.036 159.318 247.785 160.213 247.613 161.096C247.199 163.226 246.652 165.313 245.679 167.271C245.519 167.591 245.464 167.963 245.319 168.291C245.046 168.908 245.151 169.467 245.511 170.003C245.941 170.808 246.453 171.539 247.313 171.945H247.32Z" fill="#62350E"/>
<path d="M237.887 125.024C238.062 125.052 238.191 124.993 238.258 124.821C238.07 124.77 237.957 124.856 237.887 125.024Z" fill="#865437"/>
<path d="M237.151 125.383C237.331 125.41 237.464 125.348 237.53 125.172C237.339 125.121 237.222 125.215 237.151 125.383Z" fill="#865437"/>
<path d="M234.186 126.805C234.393 126.84 234.538 126.766 234.624 126.574C234.413 126.531 234.276 126.621 234.186 126.805Z" fill="#865437"/>
<path d="M233.447 127.162C233.658 127.193 233.807 127.107 233.896 126.912C233.682 126.877 233.533 126.966 233.447 127.162Z" fill="#865437"/>
<path d="M232.708 127.521C232.923 127.553 233.075 127.463 233.169 127.271C232.95 127.236 232.798 127.326 232.708 127.521Z" fill="#865437"/>
<path d="M231 127.737C231.105 127.889 231.246 127.932 231.422 127.889C231.316 127.737 231.18 127.682 231 127.737Z" fill="#865437"/>
<path d="M307.207 348.411C307.269 348.611 307.328 348.81 307.391 349.009C308.383 349.631 309.513 349.853 310.638 350.065C313.003 350.502 315.379 350.897 317.747 351.311C319.584 351.632 321.421 351.952 323.254 352.281C325.029 352.597 326.803 352.929 328.581 353.234C331.012 353.652 333.447 354.051 335.878 354.457C337.597 354.747 339.321 355.032 341.041 355.325C342.878 355.638 344.714 355.958 346.551 356.283C348.326 356.599 350.1 356.931 351.878 357.244C353.359 357.506 354.841 357.748 356.322 357.998C356.986 358.112 357.494 357.795 357.948 357.377C358.19 357.154 358.237 356.838 358.147 356.537C357.916 355.763 357.369 355.329 356.584 355.208C354.086 354.821 351.585 354.461 349.092 354.055C347.548 353.805 346.016 353.473 344.476 353.203C342.639 352.878 340.802 352.574 338.961 352.269C337.183 351.972 335.397 351.694 333.619 351.393C331.782 351.085 329.945 350.76 328.108 350.451C326.271 350.143 324.431 349.838 322.59 349.533C320.749 349.228 318.908 348.931 317.071 348.626C316.004 348.45 314.941 348.235 313.867 348.091C312.198 347.868 310.552 347.473 308.844 347.512C308.102 347.532 307.551 347.751 307.203 348.411H307.207Z" fill="#494A45"/>
<path d="M277.965 344.894C278.016 344.824 278.031 344.749 278.008 344.664C276.875 343.925 275.616 343.671 274.283 343.511C272.56 343.307 270.817 343.264 269.113 342.881C268.179 342.67 267.213 342.772 266.252 342.561C264.857 342.252 263.395 342.244 261.965 342.08C260.3 341.893 258.635 341.674 256.97 341.474C255.661 341.314 254.355 341.103 253.042 341.017C252.26 340.966 251.83 340.622 251.541 339.95C250.877 338.403 250.193 336.863 249.517 335.319C249.325 334.877 249.122 334.44 248.934 333.998C248.508 332.986 247.797 332.466 246.664 332.657C246.601 332.736 246.57 332.822 246.562 332.919C246.55 334.084 246.843 335.174 247.32 336.237C248.008 337.777 248.641 339.34 249.306 340.888C249.497 341.33 249.74 341.752 249.927 342.197C250.212 342.881 250.678 343.124 251.44 343.225C253.105 343.448 254.785 343.495 256.442 343.815C257.853 344.085 259.307 344.116 260.737 344.277C262.406 344.464 264.071 344.683 265.736 344.89C265.974 344.921 266.213 344.98 266.451 344.984C268.378 345.027 270.273 345.332 272.169 345.66C272.642 345.742 273.13 345.707 273.615 345.727C274.217 345.746 274.815 345.715 275.405 345.926C276.542 346.332 277.414 345.985 277.969 344.898L277.965 344.894Z" fill="#4A4B46"/>
</svg>
