<svg width="500" height="500" viewBox="0 0 500 500" fill="none" xmlns="http://www.w3.org/2000/svg">
<path d="M100.211 400.433C101.627 399.651 103.154 399.167 104.718 398.869C112.279 397.305 119.654 395.032 126.992 392.723C143.306 387.62 159.21 381.4 174.891 374.547C189.902 367.991 204.726 360.952 219.252 353.391C223.2 351.342 227.111 349.219 231.022 347.133C231.208 347.021 231.395 346.947 231.581 346.835C238.397 342.365 245.511 338.455 252.588 334.506C257.691 331.676 262.421 328.286 267.301 325.083C271.882 322.066 276.426 318.974 280.97 315.92C281.529 315.548 282.199 315.287 282.572 314.654C282.423 314.542 282.274 314.319 282.088 314.281C280.635 314.17 279.182 314.021 277.73 314.356C276.873 314.542 276.128 314.617 275.271 314.356C274.899 314.244 274.452 314.207 274.042 314.207C271.472 314.132 268.939 314.132 266.369 313.834C263.203 313.499 260.075 313.015 256.983 312.345C251.992 311.264 247.076 309.812 242.382 307.726C239.328 306.348 236.46 304.783 233.741 302.809C232.959 302.251 232.251 301.543 231.469 300.984C229.309 299.383 227.745 297.334 226.59 294.913C225.957 293.609 226.18 292.902 227.298 292.045C228.042 291.486 229.048 291.486 229.793 292.12C230.203 292.492 230.575 292.902 230.873 293.386C231.32 294.094 231.767 294.801 232.326 295.397C234.449 297.818 236.982 299.755 239.775 301.282C244.468 303.89 249.422 305.789 254.637 307.056C258.734 308.061 262.831 308.955 267.077 309.179C267.226 309.179 267.375 309.179 267.487 309.216C268.604 309.663 269.796 309.514 270.988 309.551C272.776 309.626 274.601 309.328 276.352 309.886C276.612 309.961 276.91 309.961 277.171 309.886C278.81 309.328 280.486 309.626 282.125 309.588C283.652 309.588 284.546 310.519 284.62 312.009C284.62 312.419 284.62 312.829 284.62 313.276C284.918 313.127 285.254 313.015 285.552 312.829C286.148 312.382 286.818 312.307 287.526 312.382C288.569 312.494 289.574 312.531 290.617 312.643C291.958 312.047 293.299 312.084 294.677 312.456C295.087 312.568 295.496 312.754 295.869 312.754C298.662 312.643 301.381 313.238 304.138 313.462C305.739 313.574 307.304 313.723 308.905 313.909C312.295 314.281 315.647 314.654 319.036 315.026C321.308 315.287 323.581 315.511 325.853 315.734C327.864 315.92 329.838 316.107 331.849 316.255C332.93 316.33 333.079 316.181 333.339 315.25C333.786 313.723 334.196 312.196 334.68 310.668C337.064 302.698 339.485 294.727 341.906 286.756C342.129 286.086 342.278 285.415 342.129 284.707C339.634 284.186 337.213 283.478 334.792 282.696C331.291 281.504 327.752 280.35 324.251 279.158C323.916 279.083 323.581 279.009 323.245 278.897C315.386 276.327 307.564 273.794 299.705 271.224C287.786 267.313 275.867 263.44 263.911 259.529C263.129 259.268 262.272 259.193 261.639 258.597C259.516 258.337 257.356 258.076 255.195 258.188C252.327 258.299 249.571 259.044 246.964 260.236C238.621 263.998 232.326 269.92 228.191 278.152C226.441 281.616 225.51 285.303 225.808 289.214C225.882 290.183 226.068 291.263 225.733 292.082C225.361 292.902 224.43 293.46 223.685 294.094C211.952 304.113 200.182 314.095 188.449 324.077C187.183 325.157 185.916 326.238 184.65 327.355C183.905 328.025 183.086 328.51 182.117 328.733C176.716 330.074 171.502 332.011 166.399 334.208C157.832 337.896 149.712 342.44 141.816 347.394C132.914 352.981 124.273 358.903 115.557 364.714C112.205 366.948 108.89 369.22 105.575 371.53C101.59 374.361 97.2316 376.521 92.762 378.458C92.0543 378.756 91.3466 379.054 90.6762 379.389C90.192 379.612 89.9312 379.985 89.8195 380.506C90.1547 381.102 90.5272 381.698 90.8252 382.331C92.6503 386.13 94.4009 389.967 96.226 393.766C97.0827 395.591 97.9394 397.379 98.796 399.204C99.094 399.837 99.4664 400.433 100.249 400.545L100.211 400.433Z" fill="#696D65"/>
<path d="M345.221 195.315C341.943 193.527 338.666 191.777 335.425 189.989C331.738 187.977 328.05 185.929 324.363 183.918C324.065 183.769 323.73 183.657 323.432 183.508C323.283 183.769 323.171 183.992 323.022 184.253C320.973 187.493 318.739 190.547 316.467 193.639C312.556 199.04 308.421 204.254 304.138 209.357C300.786 213.343 297.471 217.328 294.156 221.351C293.82 221.723 293.523 222.058 293.038 222.244C292.293 223.66 291.399 224.926 290.319 226.118C289.798 226.677 289.314 227.236 288.829 227.832C289.165 228.092 289.463 228.353 289.835 228.576C294.975 231.78 299.631 235.616 303.952 239.862C306.596 242.432 309.166 245.077 311.736 247.684C312.332 248.28 312.928 248.876 313.45 249.509C315.871 252.452 318.329 255.357 320.713 258.337C324.698 263.328 328.199 268.617 331.44 274.129C332.259 273.906 332.967 273.459 333.637 273.012C336.803 270.926 340.007 268.878 343.21 266.829C344.066 266.27 344.96 265.712 345.817 265.153C346.636 264.631 347.456 264.482 348.387 264.892C348.797 264.333 349.207 263.812 349.877 263.477C351.069 262.881 352.186 262.21 353.341 261.614C359.673 258.448 366.005 255.282 372.337 252.116C375.019 250.776 377.7 249.546 380.419 248.243C381.872 247.572 383.25 246.753 384.479 245.747C384.405 244.965 383.958 244.332 383.585 243.661C379.451 236.436 375.354 229.21 371.182 222.021C370.4 220.643 369.841 219.153 368.836 217.887C367.122 218.408 365.409 218.93 363.658 219.451C356.954 221.425 350.212 223.362 343.508 225.299C342.912 225.485 342.316 225.634 341.683 225.746C340.602 225.932 339.969 225.299 340.156 224.181C340.156 223.995 340.267 223.772 340.305 223.585C340.9 220.233 341.496 216.918 342.092 213.566C342.763 209.804 343.396 206.079 344.029 202.317C344.439 200.008 344.96 197.699 345.147 195.352L345.221 195.315Z" fill="#8A89DE"/>
<path d="M333.898 334.618C333.823 337.188 334.196 339.758 334.457 342.291C335.425 351.603 336.989 360.84 338.703 370.04C340.044 377.191 341.236 384.38 342.614 391.494C343.284 395.033 343.768 398.608 344.215 402.184C344.588 405.35 345.109 408.479 345.593 411.645C346.227 411.645 346.823 411.645 347.456 411.607C349.169 411.421 350.882 411.123 352.596 410.937C357.103 410.453 361.647 410.006 366.154 409.522C366.154 407.92 366.489 406.356 366.824 404.791C367.755 400.433 368.314 396.038 368.835 391.643C369.431 386.764 369.953 381.847 370.363 376.931C370.735 372.573 371.033 368.215 371.257 363.857C372.001 349.033 371.927 334.171 371.592 319.31C371.554 317.224 371.554 315.138 371.405 313.052C371.108 309.03 370.921 305.044 369.99 301.096C369.32 298.34 368.165 295.882 366.34 293.721C365.558 294.094 365.446 294.913 365.185 295.621C360.641 306.981 356.134 318.304 351.59 329.664C350.249 333.054 347.94 335.512 344.402 336.667C343.359 337.002 342.39 337.188 341.347 336.89C340.416 336.63 339.485 336.369 338.554 336.071C337.027 335.587 335.5 335.102 334.01 334.618H333.898Z" fill="#696E66"/>
<path d="M333.898 334.618C335.425 335.102 336.952 335.586 338.442 336.07C339.373 336.368 340.305 336.629 341.236 336.89C342.279 337.188 343.247 337.002 344.29 336.666C347.828 335.474 350.138 333.053 351.479 329.664C356.023 318.304 360.53 306.981 365.074 295.62C365.334 294.913 365.446 294.093 366.228 293.721C366.117 292.715 366.564 291.821 366.899 290.927C371.48 279.492 376.061 268.095 380.643 256.66C381.909 253.531 383.138 250.365 384.368 247.199C384.591 246.678 384.852 246.194 384.368 245.672C383.101 246.678 381.76 247.46 380.308 248.168C377.626 249.434 374.907 250.701 372.225 252.042C365.893 255.17 359.561 258.374 353.229 261.539C352.037 262.135 350.92 262.843 349.765 263.402C349.095 263.737 348.685 264.259 348.275 264.817C348.35 265.227 348.201 265.637 348.052 266.009C347.419 268.058 346.86 270.106 346.227 272.155C345.147 275.805 344.029 279.418 342.912 283.068C342.726 283.664 342.577 284.26 342.055 284.67C342.204 285.377 342.055 286.048 341.832 286.718C339.411 294.689 336.99 302.66 334.606 310.631C334.159 312.158 333.712 313.685 333.265 315.212C332.967 316.181 332.818 316.292 331.775 316.218C329.764 316.069 327.752 315.883 325.778 315.696C323.506 315.473 321.234 315.212 318.962 314.989C315.573 314.616 312.22 314.244 308.831 313.871C307.229 313.685 305.665 313.536 304.063 313.424C301.307 313.201 298.588 312.605 295.795 312.717C295.385 312.717 295.012 312.53 294.603 312.419C293.225 312.046 291.846 312.009 290.543 312.605C290.841 313.201 290.468 313.685 290.208 314.132C288.904 316.404 287.563 318.713 286.259 320.985C285.44 322.438 284.583 323.853 283.764 325.306C283.466 325.865 283.205 326.423 283.019 327.019C282.535 328.509 282.87 329.589 284.099 330.521C285.105 331.266 286.148 331.899 287.377 332.271C288.345 332.569 289.165 332.42 289.947 331.899C291.288 331.005 292.591 330.111 293.895 329.18C295.757 327.839 297.582 326.461 299.408 325.12C299.892 324.747 300.45 324.412 300.972 324.114C301.344 323.891 301.754 323.816 302.164 324.002C302.499 324.114 302.834 324.189 303.169 324.3C312.965 327.578 322.761 330.856 332.52 334.134C332.967 334.283 333.414 334.469 333.861 334.655L333.898 334.618Z" fill="#FFB78C"/>
<path d="M378.036 199.896C383.362 199.971 388.353 198.742 392.897 195.911C393.53 195.538 394.126 194.682 394.871 195.054C395.393 195.315 395.653 196.134 396.063 196.73C396.324 197.14 396.584 197.55 396.882 197.922C399.266 201.051 401.613 204.254 403.699 207.606C405.375 210.251 407.2 212.784 409.025 215.317C409.844 216.434 410.738 217.514 411.632 218.557C412.526 219.563 413.941 219.376 414.612 218.222C414.724 218.036 414.761 217.849 414.835 217.663C416.437 213.566 418.523 209.73 420.385 205.781C421.354 203.696 422.322 201.647 423.253 199.524C425.637 194.011 427.201 188.275 427.872 182.279C428.17 179.485 427.983 176.766 426.941 174.084C425.562 170.546 423.067 168.013 419.938 166.076C417.405 164.512 414.649 164.586 411.856 165.033C409.658 165.369 407.498 165.853 405.3 166.262C405.039 166.3 404.779 166.337 404.555 166.374C404.146 166.039 404.071 165.592 403.959 165.22C402.693 160.34 399.713 156.69 395.728 153.785C391.668 150.805 387.086 149.129 382.058 148.607C380.382 148.421 378.743 148.272 377.067 148.347C376.508 148.347 375.95 148.458 375.465 148.682C375.354 150.358 375.503 151.997 375.726 153.673C376.099 156.578 376.434 159.446 376.769 162.352C377.104 165.108 377.291 167.901 377.775 170.62C378.073 172.222 377.775 173.6 377.142 175.053C375.689 178.666 374.311 182.316 372.858 185.892C372.56 186.599 372.597 187.195 372.97 187.866C374.423 190.473 375.391 193.341 376.397 196.134C376.881 197.438 377.44 198.704 377.961 200.008L378.036 199.896ZM405.896 166.56C407.088 166.56 407.721 166.821 407.945 168.199C408.168 169.54 408.503 170.881 408.503 172.296C408.503 174.792 408.131 177.25 407.609 179.671C406.529 184.439 404.63 188.871 401.762 192.857C400.98 193.937 400.123 194.905 398.894 195.501C398.484 195.687 398.112 195.762 397.702 195.501C396.473 194.756 396.175 193.453 397.069 192.335C397.553 191.739 398.186 191.255 398.596 190.659C401.389 186.636 403.55 182.353 404.257 177.437C404.369 176.692 404.704 175.984 404.704 175.202C404.704 172.855 404.779 170.509 404.108 168.199C403.848 167.268 404.146 166.784 405.114 166.598C405.449 166.523 405.784 166.523 405.896 166.523V166.56Z" fill="#894100"/>
<path d="M378.035 199.897C377.514 198.593 376.955 197.327 376.471 196.023C375.428 193.23 374.497 190.399 373.044 187.754C372.672 187.084 372.672 186.488 372.933 185.78C374.385 182.167 375.726 178.517 377.216 174.941C377.812 173.489 378.11 172.111 377.849 170.509C377.365 167.79 377.179 164.996 376.844 162.24C376.508 159.335 376.173 156.43 375.801 153.562C375.577 151.886 375.428 150.247 375.54 148.571C374.721 148.459 374.087 148.906 373.417 149.316C371.815 150.321 370.214 151.29 368.575 152.146C367.271 152.817 365.93 152.966 364.552 152.631C363.137 152.333 361.684 152.109 360.269 151.811C358.518 151.401 356.842 150.768 355.129 150.172C354.458 149.949 353.825 149.763 353.117 149.763C352.186 149.763 351.516 150.172 351.032 150.917C350.547 151.774 350.138 152.631 350.175 153.673C350.175 154.381 350.175 155.052 350.175 155.759C350.175 157.882 349.43 159.67 348.126 161.272C346.227 163.656 344.029 165.779 341.794 167.902C340.491 169.131 340.267 170.435 340.826 172.036C341.273 173.414 341.943 174.755 342.651 175.984C344.402 178.964 346.189 181.944 348.424 184.626C348.648 184.886 348.797 185.184 349.02 185.482C349.653 186.413 349.691 187.307 349.095 188.35C348.089 190.101 347.27 191.926 346.338 193.714C346.04 194.272 345.854 194.868 345.296 195.204C345.109 197.55 344.588 199.859 344.178 202.169C343.545 205.931 342.874 209.655 342.241 213.417C341.645 216.77 341.049 220.085 340.453 223.437C340.453 223.623 340.342 223.846 340.304 224.033C340.118 225.15 340.751 225.821 341.832 225.597C342.428 225.485 343.061 225.299 343.657 225.15C350.361 223.213 357.103 221.239 363.807 219.302C365.521 218.781 367.271 218.259 368.985 217.738C368.985 216.174 369.655 214.795 370.363 213.455C372.001 210.4 373.715 207.421 375.428 204.441C376.322 202.914 377.514 201.536 378.147 199.822L378.035 199.897Z" fill="#FFB78C"/>
<path d="M331.402 274.018C328.162 268.505 324.661 263.216 320.675 258.225C318.291 255.245 315.833 252.34 313.412 249.397C312.891 248.764 312.295 248.168 311.699 247.572C309.092 244.965 306.521 242.32 303.914 239.75C299.594 235.504 294.938 231.668 289.798 228.465C289.462 228.241 289.127 227.98 288.792 227.72C287.786 228.39 287.041 229.321 286.259 230.178C284.211 232.525 282.237 234.946 280.225 237.292C280.039 237.516 279.89 237.739 279.667 237.925C276.836 240.57 274.377 243.624 271.696 246.418C269.871 248.317 268.195 250.329 266.444 252.303C265.885 252.936 265.326 253.532 264.731 254.128C263.39 255.394 262.421 256.847 261.639 258.486C262.272 259.082 263.129 259.156 263.911 259.417C275.83 263.328 287.749 267.201 299.705 271.112C307.564 273.682 315.386 276.252 323.245 278.785C323.581 278.897 323.916 278.934 324.251 279.046C324.437 278.86 324.586 278.599 324.772 278.45C326.337 277.444 327.901 276.439 329.428 275.433C330.099 274.986 330.881 274.651 331.365 273.98L331.402 274.018Z" fill="#FFB78A"/>
<path d="M100.211 400.433C99.4292 400.322 99.0567 399.726 98.7588 399.092C97.9021 397.267 97.0454 395.479 96.1888 393.654C94.4009 389.855 92.6131 386.019 90.788 382.22C90.49 381.586 90.1175 381.028 89.7823 380.395C86.2066 381.698 82.6309 383.039 79.5766 385.423C78.3103 386.391 77.1929 387.509 76.2617 388.85C74.9208 390.861 73.5427 392.872 72.7977 395.219C72.1273 397.379 71.7921 399.502 72.239 401.774C72.537 403.264 72.7233 404.754 73.0957 406.244C73.9897 409.782 75.554 413.023 77.4164 416.114C80.6196 421.552 84.903 426.096 89.5588 430.268C92.5013 432.913 95.6673 435.259 98.9823 437.419C100.845 438.611 102.744 438.984 104.904 438.462C108.145 437.68 110.529 435.743 111.981 432.838C113.36 430.156 113.173 427.326 111.907 424.606C110.789 422.148 109.598 419.727 108.406 417.269C105.985 412.352 103.526 407.473 101.068 402.556C100.733 401.886 100.323 401.216 100.174 400.471L100.211 400.433Z" fill="#FFB78C"/>
<path d="M366.154 409.559C361.647 410.043 357.103 410.49 352.596 410.974C350.883 411.16 349.169 411.421 347.456 411.644C346.86 411.719 346.227 411.644 345.594 411.682C344.7 414.028 344.029 416.375 343.768 418.87C343.396 422.148 343.359 425.389 343.433 428.629C343.433 430.231 343.768 431.795 344.402 433.285C345.556 436.078 347.791 437.419 350.585 437.978C352.298 438.313 354.011 438.425 355.762 438.425C366.526 438.425 377.291 438.425 388.092 438.499C390.997 438.499 393.567 437.717 395.877 436.004C399.005 433.657 400.495 430.529 400.123 426.618C399.974 425.091 399.117 423.936 397.925 422.967C396.994 422.223 395.914 421.738 394.834 421.254C392.264 420.174 389.694 419.131 387.124 418.051C381.425 415.704 375.689 413.395 369.953 411.048C369.32 410.788 368.687 410.453 368.091 410.155C367.457 409.857 366.824 409.596 366.117 409.559H366.154Z" fill="#FFB78C"/>
<path d="M293.001 222.207C293.485 222.021 293.821 221.685 294.119 221.313C297.434 217.328 300.748 213.305 304.101 209.32C308.384 204.217 312.518 199.002 316.429 193.601C318.664 190.51 320.936 187.456 322.985 184.215C323.134 183.992 323.246 183.731 323.395 183.47C322.873 182.763 322.054 182.465 321.309 182.167C319.558 181.496 317.77 180.937 315.908 180.714C315.759 180.714 315.61 180.714 315.498 180.677C313.114 179.895 310.842 180.565 308.57 181.273C305.814 182.129 303.319 183.47 301.195 185.407C300.897 185.668 300.637 186.04 300.376 186.338C298.178 188.759 296.987 191.739 296.055 194.793C294.901 198.555 294.119 202.429 293.523 206.34C293.262 208.165 293.15 210.064 292.889 211.927C292.517 214.758 292.629 217.588 292.554 220.456C292.554 221.09 292.48 221.723 293.001 222.207Z" fill="#FFB78B"/>
<path d="M284.62 313.276C284.62 312.866 284.62 312.456 284.62 312.009C284.546 310.519 283.652 309.551 282.125 309.588C280.486 309.588 278.81 309.327 277.171 309.886C276.91 309.961 276.612 309.998 276.352 309.886C274.601 309.327 272.776 309.663 270.988 309.551C269.833 309.476 268.641 309.663 267.487 309.216C267.375 309.178 267.226 309.178 267.077 309.178C262.868 308.955 258.734 308.098 254.637 307.055C249.422 305.752 244.468 303.889 239.775 301.282C236.982 299.718 234.449 297.818 232.326 295.397C231.767 294.764 231.32 294.056 230.873 293.386C230.575 292.902 230.24 292.492 229.793 292.119C229.048 291.486 228.042 291.486 227.297 292.045C226.18 292.902 225.957 293.609 226.59 294.913C227.744 297.334 229.309 299.383 231.469 300.984C232.251 301.543 232.922 302.251 233.741 302.809C236.46 304.783 239.328 306.348 242.382 307.726C247.076 309.849 251.992 311.264 256.983 312.344C260.075 313.015 263.203 313.462 266.369 313.834C268.939 314.132 271.472 314.095 274.042 314.207C274.452 314.207 274.899 314.207 275.271 314.356C276.091 314.616 276.873 314.542 277.73 314.356C279.145 314.058 280.635 314.17 282.088 314.281C282.274 314.281 282.423 314.505 282.572 314.654C283.354 314.356 284.024 313.872 284.62 313.313V313.276Z" fill="#494A45"/>
<path d="M405.896 166.561C405.822 166.561 405.449 166.561 405.114 166.635C404.183 166.821 403.848 167.305 404.108 168.237C404.779 170.546 404.704 172.893 404.704 175.239C404.704 176.021 404.369 176.729 404.257 177.474C403.587 182.39 401.389 186.674 398.596 190.696C398.149 191.33 397.516 191.777 397.069 192.373C396.175 193.49 396.473 194.794 397.702 195.539C398.112 195.762 398.484 195.725 398.894 195.539C400.123 194.943 400.98 193.974 401.762 192.894C404.63 188.909 406.529 184.476 407.609 179.709C408.168 177.288 408.503 174.829 408.503 172.334C408.503 170.918 408.168 169.578 407.945 168.237C407.721 166.859 407.125 166.561 405.896 166.598V166.561Z" fill="#62340E"/>
</svg>
