<?xml version="1.0" encoding="UTF-8"?>
<svg xmlns="http://www.w3.org/2000/svg" version="1.1" viewBox="0 0 1417.3 1417.3">
  <defs>
    <style>
      .cls-1 {
        fill: #8a89de;
      }

      .cls-2 {
        fill: #ffb78b;
      }

      .cls-3 {
        fill: #696d65;
      }

      .cls-4 {
        fill: #696e66;
      }

      .cls-5 {
        fill: #ffb78c;
      }

      .cls-6 {
        fill: #62340e;
      }

      .cls-7 {
        fill: #494a45;
      }

      .cls-8 {
        fill: #894100;
      }

      .cls-9 {
        fill: #ffb78a;
      }
    </style>
  </defs>
  <!-- Generator: Adobe Illustrator 28.7.1, SVG Export Plug-In . SVG Version: 1.2.0 Build 142)  -->
  <g>
    <g id="_레이어_1" data-name="레이어_1">
      <g>
        <path class="cls-3" d="M1110.9,1032.2c-3.8-2.1-7.9-3.4-12.1-4.2-20.3-4.2-40.1-10.3-59.8-16.5-43.8-13.7-86.5-30.4-128.6-48.8-40.3-17.6-80.1-36.5-119.1-56.8-10.6-5.5-21.1-11.2-31.6-16.8-.5-.3-1-.5-1.5-.8-18.3-12-37.4-22.5-56.4-33.1-13.7-7.6-26.4-16.7-39.5-25.3-12.3-8.1-24.5-16.4-36.7-24.6-1.5-1-3.3-1.7-4.3-3.4.4-.3.8-.9,1.3-1,3.9-.3,7.8-.7,11.7.2,2.3.5,4.3.7,6.6,0,1-.3,2.2-.4,3.3-.4,6.9-.2,13.7-.2,20.6-1,8.5-.9,16.9-2.2,25.2-4,13.4-2.9,26.6-6.8,39.2-12.4,8.2-3.7,15.9-7.9,23.2-13.2,2.1-1.5,4-3.4,6.1-4.9,5.8-4.3,10-9.8,13.1-16.3,1.7-3.5,1.1-5.4-1.9-7.7-2-1.5-4.7-1.5-6.7.2-1.1,1-2.1,2.1-2.9,3.4-1.2,1.9-2.4,3.8-3.9,5.4-5.7,6.5-12.5,11.7-20,15.8-12.6,7-25.9,12.1-39.9,15.5-11,2.7-22,5.1-33.4,5.7-.4,0-.8,0-1.1.1-3,1.2-6.2.8-9.4.9-4.8.2-9.7-.6-14.4.9-.7.2-1.5.2-2.2,0-4.4-1.5-8.9-.7-13.3-.8-4.1,0-6.5,2.5-6.7,6.5,0,1.1,0,2.2,0,3.4-.8-.4-1.7-.7-2.5-1.2-1.6-1.2-3.4-1.4-5.3-1.2-2.8.3-5.5.4-8.3.7-3.6-1.6-7.2-1.5-10.9-.5-1.1.3-2.2.8-3.2.8-7.5-.3-14.8,1.3-22.2,1.9-4.3.3-8.5.7-12.8,1.2-9.1,1-18.1,2-27.2,3-6.1.7-12.2,1.3-18.3,1.9-5.4.5-10.7,1-16.1,1.4-2.9.2-3.3-.2-4-2.7-1.2-4.1-2.3-8.2-3.6-12.3-6.4-21.4-12.9-42.8-19.4-64.2-.6-1.8-1-3.6-.6-5.5,6.7-1.4,13.2-3.3,19.7-5.4,9.4-3.2,18.9-6.3,28.3-9.5.9-.2,1.8-.4,2.7-.7,21.1-6.9,42.1-13.7,63.2-20.6,32-10.5,64-20.9,96.1-31.4,2.1-.7,4.4-.9,6.1-2.5,5.7-.7,11.5-1.4,17.3-1.1,7.7.3,15.1,2.3,22.1,5.5,22.4,10.1,39.3,26,50.4,48.1,4.7,9.3,7.2,19.2,6.4,29.7-.2,2.6-.7,5.5.2,7.7,1,2.2,3.5,3.7,5.5,5.4,31.5,26.9,63.1,53.7,94.6,80.5,3.4,2.9,6.8,5.8,10.2,8.8,2,1.8,4.2,3.1,6.8,3.7,14.5,3.6,28.5,8.8,42.2,14.7,23,9.9,44.8,22.1,66,35.4,23.9,15,47.1,30.9,70.5,46.5,9,6,17.9,12.1,26.8,18.3,10.7,7.6,22.4,13.4,34.4,18.6,1.9.8,3.8,1.6,5.6,2.5,1.3.6,2,1.6,2.3,3-.9,1.6-1.9,3.2-2.7,4.9-4.9,10.2-9.6,20.5-14.5,30.7-2.3,4.9-4.6,9.7-6.9,14.6-.8,1.7-1.8,3.3-3.9,3.6Z"/>
        <path class="cls-1" d="M453.1,481.5c8.8-4.8,17.6-9.5,26.3-14.3,9.9-5.4,19.8-10.9,29.7-16.3.8-.4,1.7-.7,2.5-1.1.4.7.7,1.3,1.1,2,5.5,8.7,11.5,16.9,17.6,25.2,10.5,14.5,21.6,28.5,33.1,42.2,9,10.7,17.9,21.4,26.8,32.2.9,1,1.7,1.9,3,2.4,2,3.8,4.4,7.2,7.3,10.4,1.4,1.5,2.7,3,4,4.6-.9.7-1.7,1.4-2.7,2-13.8,8.6-26.3,18.9-37.9,30.3-7.1,6.9-14,14-20.9,21-1.6,1.6-3.2,3.2-4.6,4.9-6.5,7.9-13.1,15.7-19.5,23.7-10.7,13.4-20.1,27.6-28.8,42.4-2.2-.6-4.1-1.8-5.9-3-8.5-5.6-17.1-11.1-25.7-16.6-2.3-1.5-4.7-3-7-4.5-2.2-1.4-4.4-1.8-6.9-.7-1.1-1.5-2.2-2.9-4-3.8-3.2-1.6-6.2-3.4-9.3-5-17-8.5-34-17-51-25.5-7.2-3.6-14.4-6.9-21.7-10.4-3.9-1.8-7.6-4-10.9-6.7.2-2.1,1.4-3.8,2.4-5.6,11.1-19.4,22.1-38.8,33.3-58.1,2.1-3.7,3.6-7.7,6.3-11.1,4.6,1.4,9.2,2.8,13.9,4.2,18,5.3,36.1,10.5,54.1,15.7,1.6.5,3.2.9,4.9,1.2,2.9.5,4.6-1.2,4.1-4.2,0-.5-.3-1.1-.4-1.6-1.6-9-3.2-17.9-4.8-26.9-1.8-10.1-3.5-20.1-5.2-30.2-1.1-6.2-2.5-12.4-3-18.7Z"/>
        <path class="cls-4" d="M483.5,855.5c.2,6.9-.8,13.8-1.5,20.6-2.6,25-6.8,49.8-11.4,74.5-3.6,19.2-6.8,38.5-10.5,57.6-1.8,9.5-3.1,19.1-4.3,28.7-1,8.5-2.4,16.9-3.7,25.4-1.7,0-3.3,0-5-.1-4.6-.5-9.2-1.3-13.8-1.8-12.1-1.3-24.3-2.5-36.4-3.8,0-4.3-.9-8.5-1.8-12.7-2.5-11.7-4-23.5-5.4-35.3-1.6-13.1-3-26.3-4.1-39.5-1-11.7-1.8-23.4-2.4-35.1-2-39.8-1.8-79.7-.9-119.6.1-5.6.1-11.2.5-16.8.8-10.8,1.3-21.5,3.8-32.1,1.8-7.4,4.9-14,9.8-19.8,2.1,1,2.4,3.2,3.1,5.1,12.2,30.5,24.3,60.9,36.5,91.4,3.6,9.1,9.8,15.7,19.3,18.8,2.8.9,5.4,1.4,8.2.6,2.5-.7,5-1.4,7.5-2.2,4.1-1.3,8.2-2.6,12.2-3.9Z"/>
        <path class="cls-5" d="M483.5,855.5c-4.1,1.3-8.2,2.6-12.2,3.9-2.5.8-5,1.5-7.5,2.2-2.8.8-5.4.3-8.2-.6-9.5-3.2-15.7-9.7-19.3-18.8-12.2-30.5-24.3-60.9-36.5-91.4-.7-1.9-1-4.1-3.1-5.1.3-2.7-.9-5.1-1.8-7.5-12.3-30.7-24.6-61.3-36.9-92-3.4-8.4-6.7-16.9-10-25.4-.6-1.4-1.3-2.7,0-4.1,3.4,2.7,7,4.8,10.9,6.7,7.2,3.4,14.5,6.8,21.7,10.4,17,8.4,34,17,51,25.5,3.2,1.6,6.2,3.5,9.3,5,1.8.9,2.9,2.3,4,3.8-.2,1.1.2,2.2.6,3.2,1.7,5.5,3.2,11,4.9,16.5,2.9,9.8,5.9,19.5,8.9,29.3.5,1.6.9,3.2,2.3,4.3-.4,1.9,0,3.7.6,5.5,6.5,21.4,13,42.8,19.4,64.2,1.2,4.1,2.4,8.2,3.6,12.3.8,2.6,1.2,2.9,4,2.7,5.4-.4,10.8-.9,16.1-1.4,6.1-.6,12.2-1.3,18.3-1.9,9.1-1,18.1-2,27.2-3,4.3-.5,8.5-.9,12.8-1.2,7.4-.6,14.7-2.2,22.2-1.9,1.1,0,2.1-.5,3.2-.8,3.7-1,7.4-1.1,10.9.5-.8,1.6.2,2.9.9,4.1,3.5,6.1,7.1,12.3,10.6,18.4,2.2,3.9,4.5,7.7,6.7,11.6.8,1.5,1.5,3,2,4.6,1.3,4,.4,6.9-2.9,9.4-2.7,2-5.5,3.7-8.8,4.7-2.6.8-4.8.4-6.9-1-3.6-2.4-7.1-4.8-10.6-7.3-5-3.6-9.9-7.3-14.8-10.9-1.3-1-2.8-1.9-4.2-2.7-1-.6-2.1-.8-3.2-.3-.9.3-1.8.5-2.7.8-26.3,8.8-52.6,17.6-78.8,26.4-1.2.4-2.4.9-3.6,1.4Z"/>
        <path class="cls-8" d="M365,493.8c-14.3.2-27.7-3.1-39.9-10.7-1.7-1-3.3-3.3-5.3-2.3-1.4.7-2.1,2.9-3.2,4.5-.7,1.1-1.4,2.2-2.2,3.2-6.4,8.4-12.7,17-18.3,26-4.5,7.1-9.4,13.9-14.3,20.7-2.2,3-4.6,5.9-7,8.7-2.4,2.7-6.2,2.2-8-.9-.3-.5-.4-1-.6-1.5-4.3-11-9.9-21.3-14.9-31.9-2.6-5.6-5.2-11.1-7.7-16.8-6.4-14.8-10.6-30.2-12.4-46.3-.8-7.5-.3-14.8,2.5-22,3.7-9.5,10.4-16.3,18.8-21.5,6.8-4.2,14.2-4,21.7-2.8,5.9.9,11.7,2.2,17.6,3.3.7.1,1.4.2,2,.3,1.1-.9,1.3-2.1,1.6-3.1,3.4-13.1,11.4-22.9,22.1-30.7,10.9-8,23.2-12.5,36.7-13.9,4.5-.5,8.9-.9,13.4-.7,1.5,0,3,.3,4.3.9.3,4.5-.1,8.9-.7,13.4-1,7.8-1.9,15.5-2.8,23.3-.9,7.4-1.4,14.9-2.7,22.2-.8,4.3,0,8,1.7,11.9,3.9,9.7,7.6,19.5,11.5,29.1.8,1.9.7,3.5-.3,5.3-3.9,7-6.5,14.7-9.2,22.2-1.3,3.5-2.8,6.9-4.2,10.4ZM290.2,404.3c-3.2,0-4.9.7-5.5,4.4-.6,3.6-1.5,7.2-1.5,11,0,6.7,1,13.3,2.4,19.8,2.9,12.8,8,24.7,15.7,35.4,2.1,2.9,4.4,5.5,7.7,7.1,1.1.5,2.1.7,3.2,0,3.3-2,4.1-5.5,1.7-8.5-1.3-1.6-3-2.9-4.1-4.5-7.5-10.8-13.3-22.3-15.2-35.5-.3-2-1.2-3.9-1.2-6,0-6.3-.2-12.6,1.6-18.8.7-2.5-.1-3.8-2.7-4.3-.9-.2-1.8-.2-2.1-.2Z"/>
        <path class="cls-5" d="M365,493.8c1.4-3.5,2.9-6.9,4.2-10.4,2.8-7.5,5.3-15.1,9.2-22.2,1-1.8,1-3.4.3-5.3-3.9-9.7-7.5-19.5-11.5-29.1-1.6-3.9-2.4-7.6-1.7-11.9,1.3-7.3,1.8-14.8,2.7-22.2.9-7.8,1.8-15.6,2.8-23.3.6-4.5,1-8.9.7-13.4,2.2-.3,3.9.9,5.7,2,4.3,2.7,8.6,5.3,13,7.6,3.5,1.8,7.1,2.2,10.8,1.3,3.8-.8,7.7-1.4,11.5-2.2,4.7-1.1,9.2-2.8,13.8-4.4,1.8-.6,3.5-1.1,5.4-1.1,2.5,0,4.3,1.1,5.6,3.1,1.3,2.3,2.4,4.6,2.3,7.4,0,1.9,0,3.7,0,5.6,0,5.7,2,10.5,5.5,14.8,5.1,6.4,11,12.1,17,17.8,3.5,3.3,4.1,6.8,2.6,11.1-1.2,3.7-3,7.3-4.9,10.6-4.7,8-9.5,16-15.5,23.2-.6.7-1,1.5-1.6,2.3-1.7,2.5-1.8,4.9-.2,7.7,2.7,4.7,4.9,9.6,7.4,14.4.8,1.5,1.3,3.1,2.8,4,.5,6.3,1.9,12.5,3,18.7,1.7,10.1,3.5,20.1,5.2,30.2,1.6,9,3.2,17.9,4.8,26.9,0,.5.3,1.1.4,1.6.5,3-1.2,4.8-4.1,4.2-1.6-.3-3.3-.8-4.9-1.2-18-5.2-36.1-10.5-54.1-15.7-4.6-1.4-9.3-2.8-13.9-4.2,0-4.2-1.8-7.9-3.7-11.5-4.4-8.2-9-16.2-13.6-24.2-2.4-4.1-5.6-7.8-7.3-12.4Z"/>
        <path class="cls-9" d="M490.2,692.8c8.7-14.8,18.1-29,28.8-42.4,6.4-8,13-15.8,19.5-23.7,1.4-1.7,3-3.3,4.6-4.9,7-7,13.9-14.1,20.9-21,11.6-11.4,24.1-21.7,37.9-30.3.9-.6,1.8-1.3,2.7-2,2.7,1.8,4.7,4.3,6.8,6.6,5.5,6.3,10.8,12.8,16.2,19.1.5.6.9,1.2,1.5,1.7,7.6,7.1,14.2,15.3,21.4,22.8,4.9,5.1,9.4,10.5,14.1,15.8,1.5,1.7,3,3.3,4.6,4.9,3.6,3.4,6.2,7.3,8.3,11.7-1.7,1.6-4,1.8-6.1,2.5-32,10.5-64,20.9-96.1,31.4-21.1,6.9-42.1,13.8-63.2,20.6-.9.3-1.8.4-2.7.7-.5-.5-.9-1.2-1.4-1.6-4.2-2.7-8.4-5.4-12.5-8.1-1.8-1.2-3.9-2.1-5.2-3.9Z"/>
        <path class="cls-5" d="M1110.9,1032.2c2.1-.3,3.1-1.9,3.9-3.6,2.3-4.9,4.6-9.7,6.9-14.6,4.8-10.2,9.6-20.5,14.5-30.7.8-1.7,1.8-3.2,2.7-4.9,9.6,3.5,19.2,7.1,27.4,13.5,3.4,2.6,6.4,5.6,8.9,9.2,3.6,5.4,7.3,10.8,9.3,17.1,1.8,5.8,2.7,11.5,1.5,17.6-.8,4-1.3,8-2.3,12-2.4,9.5-6.6,18.2-11.6,26.5-8.6,14.6-20.1,26.8-32.6,38-7.9,7.1-16.4,13.4-25.3,19.2-5,3.2-10.1,4.2-15.9,2.8-8.7-2.1-15.1-7.3-19-15.1-3.7-7.2-3.2-14.8.2-22.1,3-6.6,6.2-13.1,9.4-19.7,6.5-13.2,13.1-26.3,19.7-39.5.9-1.8,2-3.6,2.4-5.6Z"/>
        <path class="cls-5" d="M396.9,1056.7c12.1,1.3,24.3,2.5,36.4,3.8,4.6.5,9.2,1.2,13.8,1.8,1.6.2,3.3,0,5,.1,2.4,6.3,4.2,12.6,4.9,19.3,1,8.8,1.1,17.5.9,26.2,0,4.3-.9,8.5-2.6,12.5-3.1,7.5-9.1,11.1-16.6,12.6-4.6.9-9.2,1.2-13.9,1.2-28.9,0-57.8,0-86.8.2-7.8,0-14.7-2.1-20.9-6.7-8.4-6.3-12.4-14.7-11.4-25.2.4-4.1,2.7-7.2,5.9-9.8,2.5-2,5.4-3.3,8.3-4.6,6.9-2.9,13.8-5.7,20.7-8.6,15.3-6.3,30.7-12.5,46.1-18.8,1.7-.7,3.4-1.6,5-2.4,1.7-.8,3.4-1.5,5.3-1.6Z"/>
        <path class="cls-2" d="M593.3,553.7c-1.3-.5-2.2-1.4-3-2.4-8.9-10.7-17.8-21.5-26.8-32.2-11.5-13.7-22.6-27.7-33.1-42.2-6-8.3-12.1-16.5-17.6-25.2-.4-.6-.7-1.3-1.1-2,1.4-1.9,3.6-2.7,5.6-3.5,4.7-1.8,9.5-3.3,14.5-3.9.4,0,.8,0,1.1-.1,6.4-2.1,12.5-.3,18.6,1.6,7.4,2.3,14.1,5.9,19.8,11.1.8.7,1.5,1.7,2.2,2.5,5.9,6.5,9.1,14.5,11.6,22.7,3.1,10.1,5.2,20.5,6.8,31,.7,4.9,1,10,1.7,15,1,7.6.7,15.2.9,22.9,0,1.7.2,3.4-1.2,4.7Z"/>
        <path class="cls-7" d="M615.8,798.2c0-1.1,0-2.2,0-3.4.2-4,2.6-6.6,6.7-6.5,4.4,0,8.9-.7,13.3.8.7.2,1.5.3,2.2,0,4.7-1.5,9.6-.6,14.4-.9,3.1-.2,6.3.3,9.4-.9.3-.1.7-.1,1.1-.1,11.3-.6,22.4-2.9,33.4-5.7,14-3.5,27.3-8.5,39.9-15.5,7.5-4.2,14.3-9.3,20-15.8,1.5-1.7,2.7-3.6,3.9-5.4.8-1.3,1.7-2.4,2.9-3.4,2-1.7,4.7-1.7,6.7-.2,3,2.3,3.6,4.2,1.9,7.7-3.1,6.5-7.3,12-13.1,16.3-2.1,1.5-3.9,3.4-6.1,4.9-7.3,5.3-15,9.5-23.2,13.2-12.6,5.7-25.8,9.5-39.2,12.4-8.3,1.8-16.7,3-25.2,4-6.9.8-13.7.7-20.6,1-1.1,0-2.3,0-3.3.4-2.2.7-4.3.5-6.6,0-3.8-.8-7.8-.5-11.7-.2-.5,0-.9.6-1.3,1-2.1-.8-3.9-2.1-5.5-3.6Z"/>
        <path class="cls-6" d="M290.2,404.3c.2,0,1.2,0,2.1.2,2.5.5,3.4,1.8,2.7,4.3-1.8,6.2-1.6,12.5-1.6,18.8,0,2.1.9,4,1.2,6,1.8,13.2,7.7,24.7,15.2,35.5,1.2,1.7,2.9,2.9,4.1,4.5,2.4,3,1.6,6.5-1.7,8.5-1.1.6-2.1.5-3.2,0-3.3-1.6-5.6-4.2-7.7-7.1-7.7-10.7-12.8-22.6-15.7-35.4-1.5-6.5-2.4-13.1-2.4-19.8,0-3.8.9-7.4,1.5-11,.6-3.7,2.2-4.5,5.5-4.4Z"/>
      </g>
    </g>
  </g>
</svg>