<svg width="500" height="500" viewBox="0 0 500 500" fill="none" xmlns="http://www.w3.org/2000/svg">
<path d="M206.326 241.481C206.538 243.386 206.891 245.221 207.455 247.055C210.489 257.145 213.312 267.27 216.098 277.43C219.873 291.048 223.613 304.7 227.352 318.318C227.352 318.424 227.423 318.565 227.458 318.67C227.705 319.694 227.705 320.082 226.506 320.47C223.895 321.281 221.32 322.128 218.78 323.116C211.477 325.903 204.527 329.43 197.754 333.311C186.853 339.555 176.163 346.188 165.545 352.855C164.028 353.808 162.475 354.654 160.923 355.536C158.277 357.018 155.596 358.464 152.915 359.946C152.844 360.722 153.197 361.428 153.444 362.133C155.067 366.755 156.937 371.306 158.771 375.857C159.018 376.492 159.441 377.091 159.371 377.832C171.824 375.716 183.96 372.329 195.99 368.519C209.466 364.215 222.66 359.135 235.713 353.737C237.583 352.961 239.453 352.15 241.323 351.409C244.109 350.315 246.72 348.904 249.401 347.599C249.86 347.387 250.213 346.999 250.777 347.034L251.377 347.563C251.589 347.14 251.694 346.999 252.188 347.246C252.082 346.611 252.188 345.764 252.541 345.517C253.952 344.635 255.011 343.436 256.139 342.272C256.351 342.06 257.833 342.342 258.08 342.166C258.221 341.707 258.08 341.213 257.621 340.543C258.08 339.132 258.75 337.756 259.032 336.274C259.914 332.006 260.479 327.702 260.655 323.327C260.796 319.482 261.008 315.637 261.22 311.791C260.973 311.227 260.761 310.627 260.443 310.063C258.856 307.311 257.268 304.594 255.646 301.878C254.305 299.585 252.894 297.327 251.518 295.069C250.954 294.646 250.495 294.117 250.107 293.517C249.437 292.529 248.766 291.506 248.096 290.518C242.734 282.334 237.407 274.184 232.044 266C231.409 265.047 230.81 264.095 230.21 263.107C229.54 261.978 229.575 261.661 230.492 260.814C230.915 260.426 231.339 260.038 231.797 259.685C238.571 254.534 245.309 249.384 252.082 244.233C254.869 242.116 257.656 240.07 260.479 237.989C260.867 237.707 261.255 237.319 261.784 237.283C261.89 236.437 261.784 235.661 261.608 234.849C260.902 232.097 259.773 229.593 258.221 227.229C255.61 223.278 252.47 219.821 248.943 216.681C247.673 215.552 246.367 214.423 245.027 213.329C242.557 211.283 239.841 209.66 236.948 208.355C235.925 207.896 235.149 207.261 234.514 206.344C230.316 200.523 226.082 194.738 221.849 188.952C219.838 186.2 217.792 183.413 215.887 180.556C215.005 179.25 214.44 177.839 214.193 176.358C212.818 167.856 210.207 159.742 206.856 151.804C203.998 145.03 200.647 138.469 197.225 131.942C193.803 125.486 190.345 119.066 186.888 112.645C186.641 112.186 186.429 111.728 186.147 111.304C183.254 106.542 181.208 101.462 179.691 96.0994C179.55 95.5349 179.338 95.0057 179.162 94.4766C177.539 94.7235 175.952 95.2174 174.435 95.7819C170.801 97.0872 167.344 98.7805 163.957 100.65C163.146 101.109 162.37 101.673 161.558 102.203C162.687 106.895 163.005 111.728 163.887 116.455C165.968 127.744 168.614 138.927 171.754 149.969C177.892 171.278 185.23 192.127 193.803 212.553C197.013 220.209 200.435 227.793 204.245 235.202C204.986 236.613 205.621 238.024 205.868 239.612C207.455 238.553 207.596 238.553 208.937 239.823C208.972 239.859 209.043 239.894 209.078 239.964C211.865 242.893 214.934 245.574 217.51 248.714C218.885 250.372 220.473 251.818 221.884 253.476C223.719 255.628 225.729 257.674 227.705 259.72C228.058 260.108 228.34 260.496 228.552 260.99C228.869 261.766 228.728 262.366 228.128 262.86C227.564 263.354 226.611 263.389 226.012 262.931C225.659 262.648 225.377 262.331 225.059 262.013C223.683 260.708 222.484 259.226 221.214 257.815C219.485 255.875 217.686 254.005 215.922 252.1C215.852 251.994 215.746 251.924 215.675 251.818C214.193 250.089 212.747 248.361 211.195 246.667C209.96 245.327 208.796 243.88 207.667 242.469C207.314 242.011 206.997 241.517 206.362 241.481H206.326Z" fill="#696E66"/>
<path d="M247.038 365.273C247.038 365.908 246.967 366.543 246.967 367.178C246.967 386.969 247.003 406.795 247.003 426.586C247.003 427.927 247.179 429.232 247.496 430.537C248.026 432.901 249.543 434.453 251.73 435.335C254.27 436.358 256.951 436.888 259.703 436.888C261.22 436.888 262.737 436.888 264.254 437.17C265.065 437.311 265.912 437.276 266.723 437.276C270.392 437.276 274.096 437.276 277.765 437.276C278.753 437.276 279.635 437.064 280.552 436.711C281.611 436.288 282.351 435.512 282.669 434.418C283.128 433.007 283.304 431.561 283.128 430.114C282.951 428.668 282.246 427.468 280.976 426.692C279.953 426.057 278.929 425.422 277.871 424.822C275.084 423.27 272.332 421.753 269.545 420.236C267.923 419.354 266.335 418.472 264.677 417.626C264.183 417.379 263.866 417.026 263.76 416.497C263.76 416.038 263.654 415.579 263.76 415.191C264.465 413.181 263.724 411.029 264.465 409.018C264.218 406.654 264.959 404.396 264.853 402.033C264.853 401.503 264.853 401.009 265.347 400.657C265.065 399.14 265.206 397.623 265.347 396.106C265.453 395.294 265.559 394.483 265.559 393.636C265.559 390.92 265.912 388.203 266.265 385.522C266.265 385.381 266.3 385.275 266.3 385.134C266.476 382.418 266.617 379.701 266.794 376.985C266.9 375.539 267.005 374.092 267.217 372.646C267.393 371.446 267.958 370.388 268.875 369.506C273.285 365.308 277.554 360.969 282.034 356.841C284.292 354.724 286.479 352.502 288.772 350.42C291.489 347.951 294.099 345.376 296.745 342.8C296.886 342.659 297.063 342.589 297.204 342.483C298.05 341.072 299.497 340.366 300.731 339.414C301.825 338.567 303.06 337.932 304.224 337.156C305.812 336.097 307.293 334.933 308.599 333.557C310.045 332.076 311.597 330.629 313.079 329.183C313.185 327.278 313.255 325.408 313.502 323.503C313.784 321.351 313.361 319.199 313.185 317.082C312.903 313.166 311.738 309.639 308.74 306.922C308.457 306.675 308.175 306.393 307.928 306.146C306.411 304.629 304.647 303.535 302.672 302.795C300.661 302.018 298.509 301.525 296.357 301.807C291.7 302.371 287.82 304.453 284.997 308.298C281.858 312.567 280.834 317.294 281.787 322.48C281.928 323.256 281.822 323.82 281.258 324.35C279.953 325.62 278.683 326.96 277.412 328.301C276.566 329.183 275.754 330.065 274.943 330.947C274.661 331.229 274.379 331.441 273.955 331.441C273.955 331.829 273.779 332.181 273.497 332.464C271.415 334.58 269.298 336.662 267.358 338.92C265.383 341.213 263.125 343.259 261.079 345.517C258.362 348.515 255.505 351.373 252.718 354.301C251.201 355.888 249.895 357.511 249.013 359.522C248.378 360.898 247.743 362.274 247.638 363.826C247.602 364.426 247.355 364.92 246.932 365.343L247.038 365.273Z" fill="#FFB78B"/>
<path d="M370.018 345.023C370.159 345.023 370.3 345.058 370.406 345.023C373.546 343.612 376.58 342.095 379.12 339.696C381.448 337.473 382.648 334.792 382.789 331.582C382.859 329.853 382.859 328.125 382.471 326.467C381.625 322.974 379.931 319.975 377.144 317.682C374.287 315.319 371.218 313.378 367.937 311.65C363.104 309.074 357.953 307.275 352.732 305.688C347.828 304.206 342.818 303.006 338.021 301.137C337.774 301.031 337.527 300.96 337.28 300.925C336.292 300.854 335.445 301.525 335.269 302.548C335.163 303.077 335.269 303.571 335.445 304.029C335.798 305.123 336.327 306.146 336.892 307.134C338.938 310.485 340.949 313.872 343.03 317.224C344.124 318.988 345.394 320.681 346.558 322.41C346.911 322.903 347.299 323.397 347.475 324.032C346.805 324.244 346.24 324.032 345.676 323.997C342.113 323.609 338.55 323.644 335.093 324.561C332.588 325.232 330.154 326.149 327.825 327.313C327.437 327.807 327.402 328.372 327.508 328.936C327.684 329.994 327.86 331.053 328.002 332.111C328.39 335.11 329.06 338.108 328.919 341.178C328.884 342.236 329.307 342.942 330.083 343.577C333.47 346.364 336.786 349.186 340.137 351.973C340.878 352.608 341.443 353.278 341.795 354.231C343.595 358.817 345.394 363.438 347.264 367.989C348.463 370.917 349.451 373.916 350.968 376.738C351.567 376.809 352.097 376.562 352.591 376.315C359.329 372.858 364.656 367.954 367.76 360.898C369.771 356.312 370.547 351.549 369.242 346.61C369.101 346.046 368.96 345.482 369.63 345.129C368.677 345.235 368.113 344.847 367.866 343.859C367.654 343.012 367.302 342.165 367.019 341.354C366.596 339.943 365.89 338.673 365.114 337.438C363.068 334.192 360.317 331.582 357.177 329.395C354.743 327.701 352.238 326.114 349.38 325.126C348.886 324.95 348.463 324.703 348.145 324.244C348.004 324.032 347.934 323.785 348.04 323.538C348.181 323.291 348.392 323.15 348.639 323.115C348.745 323.115 348.886 323.115 349.027 323.115C350.686 323.574 352.344 323.926 353.861 324.703C357.6 326.572 360.916 329.042 363.739 332.182C365.749 334.439 367.372 336.874 368.677 339.555C369.489 341.283 370.018 343.083 369.948 345.023H370.018Z" fill="#894100"/>
<path d="M274.061 331.37C274.484 331.37 274.766 331.158 275.049 330.876C275.86 329.994 276.671 329.112 277.518 328.23C278.788 326.925 280.058 325.584 281.363 324.279C281.928 323.715 282.034 323.185 281.893 322.409C280.905 317.223 281.963 312.496 285.103 308.227C287.925 304.382 291.771 302.301 296.463 301.736C298.615 301.454 300.767 301.983 302.777 302.724C304.753 303.465 306.517 304.558 308.034 306.075C308.316 306.358 308.563 306.605 308.845 306.851C311.844 309.568 313.008 313.096 313.29 317.012C313.431 319.164 313.855 321.316 313.608 323.432C313.361 325.337 313.326 327.207 313.184 329.112C313.89 328.795 314.419 328.23 314.772 327.56C315.513 326.219 316.218 324.879 316.748 323.468C316.959 322.868 317.03 322.233 317.488 321.739C317.63 320.857 317.7 319.975 317.912 319.128C318.653 315.918 318.123 312.849 317.171 309.78C316.007 305.828 313.996 302.336 311.597 299.02C309.798 296.55 307.716 294.328 305.67 292.07C302.072 288.048 298.368 284.132 294.734 280.181C291.735 276.935 288.737 273.655 285.703 270.409C284.715 269.351 283.621 268.363 282.563 267.375C282.034 268.186 281.152 268.645 280.446 269.28C277.236 272.138 274.026 274.96 270.815 277.817C267.323 280.922 263.83 284.026 260.338 287.131C257.409 289.741 254.517 292.387 251.588 294.998C252.964 297.256 254.375 299.514 255.716 301.807C257.339 304.523 258.926 307.275 260.514 309.991C260.831 310.52 261.043 311.155 261.29 311.72C261.643 312.002 261.854 312.39 262.101 312.778C262.948 314.26 263.795 315.742 264.641 317.259C266.723 320.963 268.769 324.667 270.85 328.371" fill="#8A8ADE"/>
<path d="M251.518 294.999C254.411 292.388 257.339 289.742 260.267 287.132C263.76 284.027 267.252 280.923 270.745 277.818C273.955 274.961 277.201 272.138 280.376 269.281C281.082 268.646 281.964 268.223 282.493 267.376C282.069 266.106 281.187 265.047 280.447 263.954C278.365 260.849 276.248 257.78 274.132 254.711C270.392 249.278 266.688 243.88 262.948 238.448C262.631 237.989 262.313 237.495 261.784 237.213C261.22 237.213 260.867 237.601 260.479 237.918C257.692 240 254.87 242.046 252.083 244.163C245.309 249.313 238.571 254.464 231.798 259.615C231.339 259.967 230.916 260.32 230.492 260.744C229.575 261.625 229.54 261.908 230.21 263.037C230.81 264.024 231.41 264.977 232.045 265.929C237.407 274.114 242.734 282.263 248.096 290.448C248.767 291.471 249.402 292.459 250.107 293.447C250.495 294.011 250.919 294.575 251.518 294.999Z" fill="#FFB78A"/>
<path d="M350.968 376.703C349.451 373.916 348.463 370.882 347.264 367.954C345.394 363.367 343.595 358.781 341.795 354.195C341.443 353.278 340.878 352.572 340.137 351.937C336.786 349.15 333.434 346.328 330.083 343.541C329.272 342.871 328.848 342.2 328.919 341.142C329.06 338.073 328.39 335.109 328.002 332.075C327.86 331.017 327.684 329.959 327.508 328.9C327.402 328.336 327.472 327.771 327.825 327.278C327.402 327.242 326.979 327.172 326.555 326.925C325.215 326.113 323.803 325.373 322.428 324.596C322.216 324.491 321.934 324.455 321.722 324.385C321.616 326.113 320.699 327.489 319.746 328.83C318.194 331.052 316.36 333.063 314.455 334.968C312.761 336.662 310.997 338.32 309.128 339.801C306.376 341.989 303.518 344.105 300.238 345.517C300.379 345.799 300.484 346.116 300.696 346.328C303.025 349.08 305.388 351.831 307.717 354.583C308.457 355.465 309.163 356.347 309.904 357.194C311.139 358.569 311.28 360.122 310.786 361.815C310.115 364.179 309.445 366.578 308.669 368.906C308.14 370.529 308.387 372.046 308.881 373.563C309.233 374.621 310.08 375.327 310.997 375.926C311.809 376.42 312.726 376.703 313.643 376.985C315.266 377.514 316.889 378.008 318.547 378.537C320.77 379.243 322.392 380.654 323.662 382.594C324.121 383.3 324.509 384.005 324.897 384.746C325.215 385.381 325.673 385.91 326.167 386.404C327.543 387.709 329.201 387.745 330.542 386.369C331.282 385.593 332.094 384.852 332.764 384.005C333.717 382.77 334.81 381.783 336.01 380.83C337.209 379.913 338.373 378.925 339.573 377.973C340.278 377.408 341.09 377.161 342.007 377.02C343.348 376.844 344.618 376.773 345.958 377.02C347.334 377.232 348.745 377.126 350.121 377.126C350.439 377.126 350.756 377.055 350.933 376.738L350.968 376.703Z" fill="#FFB78C"/>
<path d="M161.559 102.202C162.335 101.673 163.111 101.109 163.957 100.65C167.344 98.8155 170.801 97.0869 174.435 95.7816C175.987 95.2171 177.54 94.7232 179.162 94.4763C179.656 92.1126 180.15 89.7843 180.432 87.3853C180.609 85.8331 180.503 84.3514 180.291 82.8697C180.044 80.9999 179.268 79.3419 178.069 77.9307C177.046 76.7313 175.811 75.7435 174.435 74.9321C168.156 71.2278 161.911 67.4883 155.561 63.9605C154.009 63.1138 152.492 62.1966 150.94 61.3146C149.846 60.6796 148.647 60.2563 147.412 59.9741C145.613 59.586 143.849 59.8682 142.297 60.7855C139.439 62.4788 137.816 65.0541 137.781 68.4056C137.781 70.24 138.628 71.8629 139.686 73.274C142.508 77.084 145.401 80.8236 148.294 84.5983C151.434 88.7259 154.573 92.8535 157.748 96.9458C158.842 98.3569 159.9 99.768 160.853 101.25C161.065 101.567 161.347 101.814 161.594 102.096L161.559 102.202Z" fill="#FFB78C"/>
<path d="M159.371 377.797C159.442 377.057 159.018 376.457 158.771 375.822C156.937 371.271 155.067 366.755 153.444 362.099C153.198 361.393 152.845 360.687 152.915 359.911C152.386 359.241 151.645 358.924 150.834 358.641C147.8 357.618 144.837 357.936 141.944 359.135C139.862 359.982 138.028 361.217 136.299 362.628C130.725 367.179 125.786 372.329 120.812 377.48C119.577 378.75 118.625 380.267 117.672 381.784C117.284 382.384 117.072 383.054 117.108 383.759C117.108 384.253 117.108 384.783 117.108 385.276C116.967 386.864 117.602 388.134 118.766 389.157C120.565 390.78 122.611 391.556 125.045 390.956C126.703 390.533 128.362 390.11 129.984 389.58C132.277 388.875 134.606 388.205 136.864 387.358C142.05 385.488 147.2 383.548 152.351 381.607C154.503 380.796 156.478 379.702 158.525 378.644C158.913 378.432 159.301 378.186 159.477 377.762L159.371 377.797Z" fill="#FFB78C"/>
<path d="M265.383 400.586C264.889 400.939 264.889 401.433 264.889 401.962C264.995 404.29 264.254 406.583 264.501 408.947C263.76 410.958 264.501 413.11 263.795 415.121C263.654 415.509 263.795 416.003 263.795 416.426C267.64 416.744 271.486 416.602 275.331 416.602C276.354 416.602 277.342 416.426 278.33 416.214C279.953 415.862 280.976 414.733 281.223 413.11C281.293 412.475 281.258 411.84 281.328 411.205C281.54 409.3 280.552 408.065 279 407.218C276.848 406.019 274.661 404.89 272.438 403.796C270.463 402.809 268.452 401.891 266.441 400.939C266.088 400.762 265.735 400.692 265.383 400.551V400.586Z" fill="#EAA47B"/>
<path d="M300.238 345.553C303.519 344.142 306.341 342.025 309.128 339.838C310.998 338.356 312.761 336.698 314.455 335.005C316.395 333.1 318.194 331.089 319.747 328.866C320.664 327.526 321.616 326.15 321.722 324.421C320.487 323.257 318.97 322.516 317.489 321.775C317.03 322.269 316.96 322.904 316.748 323.504C316.219 324.915 315.513 326.256 314.772 327.596C314.42 328.267 313.89 328.831 313.185 329.149C311.703 330.595 310.151 332.041 308.704 333.523C307.364 334.899 305.882 336.063 304.33 337.121C303.166 337.898 301.931 338.533 300.837 339.379C299.603 340.332 298.156 341.073 297.31 342.449C298.297 343.507 299.179 344.636 300.308 345.518L300.238 345.553Z" fill="#E9A47A"/>
<path d="M206.327 241.481C206.997 241.516 207.279 242.01 207.632 242.468C208.761 243.915 209.925 245.326 211.16 246.667C212.677 248.325 214.158 250.089 215.64 251.817C215.711 251.923 215.817 251.994 215.887 252.099C217.651 254.004 219.45 255.874 221.179 257.815C222.449 259.226 223.648 260.707 225.024 262.013C225.342 262.33 225.624 262.648 225.977 262.93C226.576 263.389 227.529 263.318 228.093 262.859C228.693 262.365 228.834 261.73 228.517 260.99C228.34 260.531 228.023 260.108 227.67 259.72C225.73 257.638 223.719 255.627 221.849 253.475C220.438 251.817 218.851 250.371 217.475 248.713C214.899 245.573 211.83 242.892 209.043 239.964C209.008 239.928 208.937 239.858 208.902 239.823C207.561 238.553 207.42 238.553 205.833 239.611C205.762 240.281 206.044 240.881 206.256 241.516L206.327 241.481Z" fill="#494A45"/>
<path d="M370.018 345.023C370.124 343.083 369.559 341.248 368.748 339.555C367.478 336.874 365.82 334.44 363.809 332.182C360.987 329.007 357.67 326.573 353.931 324.703C352.379 323.927 350.721 323.574 349.098 323.115C348.992 323.115 348.851 323.115 348.71 323.115C348.463 323.186 348.251 323.292 348.11 323.539C347.969 323.786 348.039 324.032 348.216 324.244C348.533 324.667 348.957 324.95 349.451 325.126C352.273 326.114 354.778 327.701 357.247 329.395C360.387 331.582 363.103 334.193 365.185 337.438C365.961 338.673 366.631 339.943 367.09 341.354C367.372 342.201 367.689 343.012 367.936 343.859C368.183 344.811 368.713 345.235 369.7 345.129C369.841 345.129 369.983 345.058 370.088 345.023H370.018Z" fill="#63350E"/>
<path d="M274.061 331.37C274.061 331.758 273.885 332.11 273.602 332.393C271.521 334.509 269.404 336.591 267.464 338.849C265.488 341.142 263.231 343.188 261.184 345.446C258.468 348.444 255.61 351.302 252.823 354.23C251.306 355.818 250.001 357.44 249.119 359.451C248.484 360.827 247.849 362.203 247.743 363.755C247.708 364.355 247.461 364.849 247.038 365.272C247.038 364.002 247.038 362.732 247.038 361.497C246.967 359.275 247.179 357.088 247.426 354.9C247.496 354.301 247.602 353.701 247.743 353.136C247.955 350.314 249.79 347.774 249.79 347.774L255.857 342.059L270.78 328.406" fill="#E9A47B"/>
</svg>
