<svg width="500" height="500" viewBox="0 0 500 500" fill="none" xmlns="http://www.w3.org/2000/svg">
<path d="M277.503 310.207C277.802 310.036 278.144 309.95 278.443 309.737C279.041 309.309 279.725 309.224 280.451 309.267C283.186 309.48 285.963 309.694 288.697 309.95C292.713 310.292 296.729 310.677 300.745 311.018C304.676 311.36 308.692 311.446 312.58 312.044C317.28 312.77 322.022 312.941 326.722 313.582C327.747 313.71 327.875 313.838 327.833 314.949C327.747 317.128 327.576 319.35 327.491 321.529C327.363 326.357 327.619 331.142 327.961 335.97C328.815 346.864 330.695 357.588 332.661 368.312C333.985 375.49 335.224 382.667 336.591 389.802C337.275 393.263 337.787 396.766 338.215 400.27C338.642 403.731 339.197 407.149 339.667 410.566C340.308 410.566 340.949 410.566 341.547 410.481C342.872 410.182 344.196 410.182 345.521 410.139C345.948 409.669 346.503 409.755 347.059 409.712C347.059 408.772 347.144 407.875 347.144 406.935C347.059 392.793 347.23 378.609 346.93 364.467C346.76 356.819 346.845 349.171 346.93 341.524C346.93 337.337 347.23 333.192 347.358 329.005C347.358 328.92 347.358 328.877 347.358 328.792C347.913 325.417 347.614 321.999 347.999 318.623C348.298 316.017 348.212 313.411 348.426 310.805C348.768 306.917 348.81 303.029 348.981 299.141C349.152 295.808 349.28 292.519 349.451 289.186C349.451 288.887 349.451 288.631 349.537 288.332C349.793 287.093 349.793 285.811 349.75 284.529C343.299 282.863 336.89 281.239 330.482 279.53C328.516 279.018 326.551 278.462 324.714 277.522C319.672 276.155 314.759 274.404 309.76 272.737C309.205 272.609 308.649 272.481 308.137 272.31C301.087 270.003 293.995 267.696 286.945 265.389C276.051 261.8 265.156 258.254 254.261 254.665C253.663 254.451 253.022 254.195 252.424 254.195C249.091 254.024 245.759 253.725 242.512 254.878C242.255 254.964 241.956 254.921 241.657 254.964C241.016 255.263 240.376 255.519 239.692 255.818C231.019 259.493 224.482 265.56 220.124 273.891C218.159 277.651 217.133 281.667 217.475 285.982C217.561 286.879 217.86 287.904 217.39 288.673C216.963 289.357 216.194 289.87 215.553 290.425C203.675 300.551 191.798 310.634 179.963 320.717C178.468 321.999 176.93 323.28 175.434 324.605C174.665 325.288 173.811 325.716 172.828 325.972C167.445 327.296 162.275 329.219 157.191 331.398C148.304 335.2 139.888 339.9 131.727 345.027C126.686 348.189 121.602 351.265 116.859 354.896C109.681 360.322 102.632 365.919 95.4969 371.431C88.0628 377.199 80.6288 382.966 73.152 388.777C71.5712 389.973 70.0758 391.255 68.4523 392.451C67.256 393.306 66.6151 394.374 66.8287 395.869C67.4696 396.98 68.4523 397.578 69.6485 397.963C72.5111 398.945 75.3736 400.014 78.2361 401.039C82.9786 402.748 87.721 404.414 92.4207 406.123C93.7879 406.636 94.9841 406.55 96.1804 405.653C97.9321 404.329 99.7266 403.09 101.521 401.808C103.614 400.355 105.665 398.817 108.143 398.048C108.442 397.877 108.741 397.706 109.083 397.536C123.311 391.212 137.538 384.846 151.808 378.651C161.549 374.422 171.333 370.277 180.989 365.834C192.481 360.493 203.889 354.939 215.083 348.958C217.689 347.548 220.338 346.181 222.944 344.771C223.115 344.685 223.329 344.557 223.499 344.472C230.335 339.943 237.556 335.97 244.734 331.996C252.296 327.766 259.174 322.554 266.438 317.897C269.044 316.231 271.607 314.436 274.171 312.685C274.555 312.428 275.068 312.257 275.282 311.745C275.111 311.488 274.897 311.317 274.598 311.317C274.085 311.317 273.615 311.275 273.103 311.317C272.034 311.317 270.924 311.104 269.941 311.488C268.787 311.916 267.719 311.232 266.608 311.275C262.806 311.446 259.003 311.061 255.244 310.463C252.894 310.078 250.501 309.779 248.194 309.181C245.716 308.54 243.238 307.985 240.846 307.216C238.624 306.49 236.488 305.592 234.309 304.695C231.66 303.584 229.267 302.174 226.875 300.679C225.636 299.867 224.568 298.842 223.371 297.987C221.235 296.449 219.911 294.313 218.543 292.177C218.372 291.878 218.202 291.536 218.073 291.237C217.732 290.254 218.073 289.443 219.099 288.716C219.782 288.246 220.808 288.246 221.491 288.802C222.004 289.186 222.346 289.699 222.688 290.254C223.158 291.023 223.713 291.792 224.311 292.476C226.789 295.168 229.694 297.261 232.942 298.927C236.659 300.85 240.547 302.345 244.563 303.499C248.237 304.567 251.954 305.336 255.714 305.891C257.038 306.105 258.405 306.062 259.687 306.361C261.396 306.746 263.062 306.661 264.771 306.703C266.053 306.746 267.335 306.575 268.574 307.002C268.958 307.13 269.428 307.13 269.813 307.002C271.564 306.447 273.316 306.746 275.111 306.703C276.392 306.703 277.375 307.686 277.46 308.968C277.46 309.48 277.46 309.95 277.46 310.463L277.503 310.207Z" fill="#696E66"/>
<path d="M309.804 272.694C314.76 274.318 319.673 276.112 324.757 277.479C327.235 276.24 329.756 275.215 332.362 274.361C337.874 272.566 343.385 270.814 348.896 269.105C349.623 268.892 350.349 268.465 351.118 268.55C351.844 268.251 352.528 267.909 353.254 267.653C356.416 266.585 359.535 265.517 362.696 264.448C367.439 262.825 372.224 261.244 376.966 259.621C377.009 259.193 376.924 258.809 376.753 258.382C373.848 250.905 370.985 243.385 368.122 235.908C367.482 234.2 366.883 232.448 366.243 230.739C365.687 230.867 365.132 230.995 364.576 231.081C361.073 231.508 357.569 231.935 354.066 232.362C350.093 232.832 346.077 233.26 342.103 233.73C340.48 233.943 338.899 234.242 337.275 234.413C336.293 234.541 335.31 234.499 334.327 234.499C333.857 234.499 333.601 234.114 333.558 233.644C333.516 233.046 333.772 232.533 333.986 232.021C336.506 225.868 338.984 219.716 341.505 213.606C342.701 210.744 343.684 207.796 345.137 205.019C344.966 204.805 344.795 204.549 344.581 204.421C340.181 201.259 335.78 198.14 331.422 194.978C330.653 194.423 329.713 193.996 329.243 193.056C328.602 192.885 328.004 192.757 327.449 193.269C327.064 193.611 326.637 193.825 326.252 194.124C321.98 197.2 317.665 200.319 313.392 203.395C309.462 206.258 305.531 209.078 301.558 211.94C298.909 213.82 296.26 215.657 293.611 217.537C290.663 219.93 287.501 222.066 284.382 224.202C284.083 224.416 283.784 224.587 283.443 224.715C281.093 225.441 279.341 227.107 277.376 228.474C277.205 228.603 277.119 228.774 276.948 228.944C279.17 230.525 281.05 232.448 282.973 234.285C287.074 238.301 290.748 242.702 294.209 247.273C299.806 254.622 304.719 262.355 308.864 270.601C309.205 271.284 309.675 271.925 309.718 272.737L309.804 272.694Z" fill="#8A89DE"/>
<path d="M293.654 217.495C296.303 215.615 298.952 213.778 301.601 211.898C305.574 209.078 309.505 206.215 313.435 203.353C317.708 200.277 322.023 197.158 326.296 194.082C326.68 193.783 327.15 193.569 327.492 193.227C328.047 192.714 328.645 192.843 329.286 193.013C329.97 192.501 330.44 191.774 330.995 191.134C333.345 188.271 335.695 185.494 338.045 182.631C340.352 179.854 342.616 177.035 344.881 174.257C347.231 171.438 349.58 168.618 351.93 165.755C354.707 162.38 357.527 159.005 360.261 155.587C361.244 154.348 362.27 153.194 363.38 152.126C367.61 148.067 371.797 143.923 376.155 139.95C379.787 136.66 383.247 133.199 386.708 129.739C389.613 126.833 392.561 123.971 395.338 120.937C399.995 115.896 404.994 111.153 409.694 106.155C412.727 102.865 415.931 99.7459 419.008 96.5416C421.144 94.3199 422.767 91.7992 424.348 89.193C427.253 84.3224 429.518 79.1527 431.141 73.684C431.483 72.5304 431.868 71.3769 432.124 70.2233C432.21 69.8815 432.252 69.5397 432.295 69.1979C432.679 66.6772 431.782 64.7546 429.561 63.4728C428.877 63.0883 428.193 62.7038 427.553 62.3193C426.613 61.7639 425.801 61.9775 424.989 62.6183C424.562 62.9601 424.177 63.3874 423.75 63.7719C421.016 66.3781 418.58 69.1979 416.017 71.9323C413.838 74.2394 411.659 76.5893 409.523 78.9391C408.412 80.2208 407.472 81.6307 406.404 82.9979C406.062 83.4252 405.72 83.8951 405.336 84.3224C401.234 88.4239 397.133 92.5682 392.988 96.627C391.322 98.2506 389.485 99.7032 387.733 101.241C386.494 102.309 385.341 103.42 384.059 104.488C381.282 106.795 378.633 109.273 375.941 111.623C373.164 114.059 370.387 116.451 367.567 118.844C366.457 119.826 365.388 120.852 364.235 121.792C362.312 123.373 360.561 125.082 358.681 126.748C356.587 128.628 354.408 130.465 352.315 132.387C348.427 135.891 344.496 139.352 340.95 143.282C338.344 146.187 335.738 149.05 333.131 151.955C330.098 155.33 327.107 158.748 324.117 162.124C322.408 164.004 320.656 165.883 318.947 167.763C316.725 170.241 314.504 172.719 312.282 175.197C311.385 176.18 310.445 177.163 309.462 178.103C306.685 180.752 304.463 183.828 302.541 187.16C298.781 193.74 296.26 200.747 294.551 208.095C293.825 211.214 293.355 214.333 293.483 217.537L293.654 217.495Z" fill="#FFB78B"/>
<path d="M377.009 259.621C372.267 261.245 367.482 262.825 362.739 264.449C359.578 265.517 356.416 266.585 353.297 267.653C352.571 267.91 351.845 268.251 351.161 268.551C351.161 271.071 351.075 273.635 350.734 276.155C350.435 278.463 350.392 280.77 350.178 283.12C350.178 283.59 349.922 284.06 349.794 284.529C349.836 285.811 349.836 287.093 349.58 288.332C349.537 288.588 349.495 288.887 349.495 289.186C349.324 292.519 349.153 295.809 349.025 299.141C348.854 303.029 348.768 306.917 348.469 310.805C348.256 313.411 348.341 316.06 348.042 318.624C347.658 321.999 347.957 325.417 347.401 328.792C347.401 328.877 347.401 328.92 347.401 329.006C347.23 333.193 347.017 337.337 346.974 341.524C346.931 349.172 346.846 356.819 346.974 364.467C347.273 378.609 347.102 392.793 347.188 406.935C347.188 407.875 347.145 408.772 347.102 409.712C347.7 409.755 348.17 409.969 348.512 410.524C348.854 411.165 348.982 411.848 348.982 412.575C348.982 414.326 348.982 416.121 348.982 417.873C348.982 418.513 348.982 419.154 349.153 419.752C349.409 420.607 349.409 421.419 349.409 422.273C349.281 425.862 349.537 429.451 349.879 433.04C349.922 433.681 350.136 433.937 350.819 433.98C351.887 434.022 352.998 433.852 353.981 434.108C355.305 434.45 356.63 434.407 357.997 434.407C360.56 434.407 363.081 434.407 365.645 434.407C366.157 434.407 366.67 434.322 367.14 434.45C368.593 434.92 370.088 434.791 371.541 434.791C374.019 434.791 376.497 434.791 378.975 434.791C379.872 434.791 380.812 434.792 381.709 435.091C382.136 435.261 382.692 435.176 383.162 435.176C383.546 435.176 383.802 434.92 383.888 434.535C384.102 433.339 383.888 432.356 382.692 431.673C380.513 430.391 378.419 428.938 376.24 427.571C372.737 425.349 369.233 423.085 365.645 420.991C364.064 420.094 363.722 418.727 363.508 417.146C363.466 416.719 363.508 416.292 363.508 415.865C363.508 415.138 363.508 414.455 363.252 413.771C363.124 413.387 363.124 412.959 363.081 412.532C363.081 411.891 363.081 411.293 363.551 410.738C364.021 410.182 364.619 410.097 365.26 410.097C365.089 408.046 365.132 405.995 365.474 403.987C365.474 403.774 365.559 403.56 365.559 403.346C365.73 401.039 365.773 398.689 366.115 396.382C366.456 393.99 366.285 391.554 366.798 389.204C366.841 388.991 366.841 388.777 366.841 388.564C367.012 386.256 367.012 383.907 367.396 381.599C367.738 379.421 367.524 377.199 368.08 375.063C368.123 374.849 368.08 374.635 368.123 374.422C368.293 371.944 368.293 369.466 368.678 367.03C369.02 364.851 368.763 362.63 369.362 360.494C369.362 360.365 369.362 360.195 369.362 360.066C369.532 357.46 369.532 354.811 369.917 352.248C370.259 349.941 370.131 347.591 370.558 345.284C370.814 343.788 370.643 342.165 370.686 340.627C370.686 338.576 370.686 336.525 370.686 334.474C370.686 332.851 370.686 331.227 371.028 329.604C371.327 328.023 371.199 326.357 371.455 324.733C371.797 322.512 371.797 320.247 372.01 317.983C372.224 315.676 372.48 313.368 372.737 311.019C372.737 310.805 372.78 310.591 372.78 310.378C372.865 307.259 373.249 304.183 373.591 301.107C373.848 298.799 373.933 296.45 374.104 294.142C374.318 291.964 374.574 289.785 374.788 287.606C374.788 287.392 374.83 287.178 374.83 286.965C375.001 284.658 375.001 282.308 375.386 280.001C375.728 277.822 375.514 275.6 376.069 273.464C376.112 273.25 376.112 273.037 376.112 272.823C376.24 269.79 376.625 266.756 376.924 263.765C377.052 262.355 377.137 260.946 376.967 259.536L377.009 259.621Z" fill="#FFB78A"/>
<path d="M376.24 222.451C378.034 223.306 380 223.69 381.922 224.203C383.759 224.715 385.682 224.715 387.604 224.758C389.57 224.758 391.492 224.245 393.543 224.16C393.671 224.587 393.757 224.929 393.8 225.271C394.099 228.518 394.868 231.68 395.423 234.884C395.509 235.311 395.637 235.738 395.637 236.123C395.637 239.028 396.363 241.891 396.748 244.753C396.918 245.949 397.217 247.146 397.26 248.342C397.388 250.478 398.115 252.486 398.499 254.58C398.841 256.374 400.507 256.887 401.874 255.605C407.13 250.521 413.026 246.206 418.366 241.25C422.681 237.234 426.569 232.833 429.774 227.877C430.628 226.553 431.397 225.228 432.123 223.818C434.986 218.221 434.473 212.71 431.269 207.455C429.944 205.276 427.979 203.78 425.501 203.011C423.279 202.328 421.015 201.772 418.665 201.388C417.64 201.217 416.614 201.003 415.674 200.79C415.418 200.149 415.632 199.636 415.674 199.166C416.529 194.167 415.375 189.596 412.812 185.323C409.437 179.727 404.438 176.18 398.414 173.959C397.816 173.745 397.218 173.574 396.534 173.66C396.107 174.642 395.637 175.582 395.295 176.565C393.159 182.546 391.065 188.528 389.014 194.552C388.502 196.005 387.818 197.201 386.665 198.226C383.759 200.918 380.982 203.738 378.12 206.429C377.308 207.198 376.881 208.01 376.923 209.206C377.009 210.531 376.966 211.898 376.795 213.223C376.453 215.829 376.154 218.392 375.855 220.998C375.77 221.511 375.983 221.981 376.154 222.408L376.24 222.451ZM395.722 224.673C395.594 223.818 396.064 223.263 396.961 222.836C397.987 222.366 398.969 221.853 399.952 221.255C402.729 219.546 405.122 217.324 407.429 215.017C410.078 212.368 411.957 209.249 413.453 205.874C413.752 205.19 414.094 204.421 414.051 203.652C414.051 203.14 414.265 202.712 414.478 202.242C414.777 201.559 415.333 201.302 416.016 201.388C416.358 201.388 416.7 201.473 417.042 201.644C417.982 202.029 418.409 202.883 418.067 203.866C417.597 205.361 417.084 206.814 416.529 208.267C415.119 211.77 412.769 214.761 410.334 217.58C408.71 219.46 406.959 221.212 404.908 222.622C403.071 223.946 401.148 225.143 399.097 226.083C398.585 226.296 398.072 226.467 397.474 226.467C396.235 226.467 395.808 226.083 395.765 224.715L395.722 224.673Z" fill="#894100"/>
<path d="M376.24 222.451C376.069 221.981 375.855 221.554 375.941 221.041C376.283 218.435 376.539 215.872 376.881 213.265C377.052 211.941 377.052 210.574 377.009 209.249C376.966 208.096 377.393 207.241 378.205 206.472C381.068 203.738 383.887 200.961 386.75 198.269C387.861 197.244 388.587 196.047 389.1 194.595C391.151 188.571 393.287 182.589 395.38 176.608C395.722 175.625 396.192 174.642 396.619 173.702C396.32 173.318 395.893 173.318 395.466 173.403C393.714 173.702 392.005 174.002 390.253 174.386C388.288 174.813 386.494 174.557 384.827 173.318C383.289 172.164 381.58 171.31 380.128 170.028C379.401 169.387 378.547 168.789 377.949 168.02C376.325 166.055 373.975 166.952 372.779 168.704C372.395 169.302 372.096 169.943 371.796 170.584C370.429 173.361 368.336 175.326 365.388 176.437C362.952 177.377 360.603 178.53 358.21 179.556C357.142 180.026 356.501 180.837 356.245 181.906C355.775 184.213 355.604 186.52 355.903 188.87C355.988 189.553 356.117 190.28 356.117 190.963C356.117 192.886 356.544 194.766 356.8 196.646C356.843 197.073 356.928 197.457 356.971 197.885C357.057 198.696 356.8 199.423 356.117 199.935C355.348 200.533 354.578 201.174 353.809 201.815C352.058 203.268 350.306 204.678 348.554 206.13C347.828 206.729 347.401 206.729 346.674 206.13C346.204 205.746 345.777 205.19 345.136 205.02C343.684 207.797 342.701 210.745 341.505 213.607C338.984 219.717 336.463 225.912 333.985 232.021C333.772 232.534 333.515 233.047 333.558 233.645C333.601 234.115 333.814 234.499 334.327 234.499C335.31 234.499 336.292 234.499 337.275 234.414C338.899 234.243 340.479 233.901 342.103 233.73C346.076 233.26 350.092 232.833 354.066 232.363C357.569 231.936 361.073 231.509 364.576 231.081C365.131 230.996 365.687 230.868 366.242 230.74C366.755 229.8 367.609 229.159 368.421 228.475C370.728 226.553 373.078 224.673 375.428 222.793C375.642 222.622 375.941 222.579 376.197 222.451H376.24Z" fill="#FFB78C"/>
<path d="M309.803 272.694C309.76 271.883 309.29 271.242 308.948 270.558C304.804 262.312 299.848 254.579 294.294 247.231C290.833 242.659 287.159 238.259 283.057 234.242C281.135 232.363 279.255 230.44 277.033 228.902C275.068 229.5 273.658 230.995 272.077 232.149C269.898 233.73 267.847 235.439 265.668 237.062C263.276 238.814 260.798 240.48 258.405 242.189C253.748 245.522 249.091 248.854 244.434 252.229C243.409 252.998 242.469 253.853 241.743 254.921C242.042 254.921 242.341 254.921 242.597 254.836C245.844 253.725 249.177 254.024 252.509 254.152C253.15 254.152 253.748 254.451 254.346 254.622C265.241 258.168 276.136 261.757 287.031 265.346C294.08 267.653 301.13 269.96 308.222 272.267C308.735 272.438 309.333 272.566 309.845 272.694H309.803Z" fill="#FFB78A"/>
<path d="M108.272 397.963C105.794 398.732 103.743 400.27 101.65 401.723C99.8555 403.005 98.061 404.244 96.3093 405.568C95.113 406.465 93.9167 406.551 92.5495 406.038C87.8499 404.286 83.1075 402.62 78.365 400.954C75.5025 399.928 72.64 398.86 69.7774 397.878C68.5811 397.45 67.5985 396.852 66.9576 395.784C66.8722 395.955 66.7012 396.169 66.7012 396.34C66.6585 399.458 65.9749 402.535 66.1458 405.654C66.1458 406.209 66.1458 406.807 66.1458 407.363C66.0177 410.011 66.4876 412.575 67.043 415.138C67.3421 416.548 68.0257 417.787 69.0084 418.855C70.5037 420.479 72.2554 421.761 74.3916 422.487C77.3396 423.47 80.3304 424.196 83.492 424.41C85.0301 424.495 86.5682 424.751 88.149 424.666C96.2666 424.281 104.128 422.743 111.348 418.77C113.826 417.403 115.834 415.566 117.629 413.429C118.825 411.977 119.551 410.225 119.637 408.388C119.722 406.508 119.039 404.799 117.8 403.346C115.877 401.039 113.356 399.672 110.537 398.775C109.81 398.519 109.084 398.262 108.358 398.049L108.272 397.963Z" fill="#FFB78C"/>
<path d="M365.174 410.139C364.533 410.139 363.935 410.268 363.465 410.78C362.995 411.336 362.995 411.934 362.995 412.575C362.995 413.002 362.995 413.429 363.166 413.814C363.423 414.497 363.423 415.181 363.423 415.907C363.423 416.334 363.423 416.762 363.423 417.189C363.636 418.727 363.978 420.094 365.559 421.034C369.148 423.128 372.651 425.392 376.154 427.614C378.291 428.981 380.384 430.391 382.606 431.715C383.802 432.399 384.016 433.382 383.802 434.578C383.717 434.962 383.46 435.219 383.076 435.219C382.563 435.219 382.05 435.304 381.623 435.133C380.726 434.791 379.829 434.834 378.889 434.834C376.411 434.834 373.933 434.834 371.455 434.834C369.959 434.834 368.507 434.962 367.054 434.492C366.584 434.322 366.072 434.45 365.559 434.45C362.995 434.45 360.475 434.45 357.911 434.45C356.587 434.45 355.262 434.45 353.895 434.151C352.912 433.894 351.802 434.065 350.733 434.022C350.093 434.022 349.879 433.766 349.793 433.082C349.452 429.494 349.238 425.905 349.324 422.316C349.324 421.461 349.324 420.65 349.067 419.795C348.896 419.197 348.896 418.556 348.896 417.915C348.896 416.164 348.896 414.369 348.896 412.617C348.896 411.891 348.768 411.208 348.426 410.567C348.127 410.011 347.615 409.798 347.016 409.755C346.461 409.755 345.906 409.712 345.478 410.182C344.752 411.72 344.966 413.386 345.179 414.967C345.35 416.035 345.436 417.061 345.478 418.086C345.478 419.923 345.478 421.761 345.478 423.598C345.478 424.153 345.436 424.751 345.606 425.264C345.906 426.161 345.906 427.058 345.906 427.956C345.906 429.707 345.991 431.459 345.906 433.253C345.82 434.877 346.205 436.287 347.23 437.569C348.255 437.825 349.324 437.91 350.392 437.91C351.887 437.91 353.382 437.91 354.835 437.953C360.774 438.295 366.755 438.167 372.694 438.466C376.283 438.637 379.914 438.679 383.503 438.808C383.93 438.808 384.358 438.808 384.785 438.808C385.725 438.85 386.451 438.594 386.878 437.697C386.964 437.526 387.092 437.355 387.22 437.184C387.22 436.543 387.092 435.86 387.306 435.304C387.647 434.322 387.519 433.339 387.605 432.356C387.733 431.032 387.092 430.305 385.981 429.665C384.358 428.767 382.862 427.742 381.281 426.759C378.846 425.221 376.368 423.683 373.933 422.145C371.967 420.906 370.045 419.624 368.037 418.385C367.524 418.043 367.268 417.659 367.14 417.061C366.67 415.095 366.755 413.13 366.712 411.165C366.2 410.823 365.772 410.31 365.089 410.268L365.174 410.139Z" fill="#EAA47A"/>
<path d="M277.504 310.206C277.504 309.694 277.547 309.224 277.504 308.711C277.419 307.429 276.479 306.447 275.154 306.447C273.402 306.447 271.608 306.19 269.856 306.746C269.472 306.874 268.959 306.874 268.617 306.746C267.378 306.319 266.097 306.489 264.815 306.447C263.106 306.404 261.44 306.447 259.731 306.105C258.449 305.806 257.082 305.849 255.757 305.635C251.997 305.079 248.28 304.268 244.606 303.242C240.59 302.089 236.702 300.551 232.985 298.671C229.738 297.005 226.833 294.911 224.355 292.219C223.757 291.536 223.201 290.767 222.731 289.998C222.389 289.442 222.005 288.93 221.535 288.545C220.851 287.99 219.869 287.99 219.142 288.46C218.074 289.186 217.732 289.998 218.117 290.98C218.245 291.322 218.373 291.664 218.587 291.92C219.954 294.057 221.279 296.193 223.415 297.731C224.611 298.585 225.679 299.653 226.918 300.423C229.311 301.918 231.746 303.371 234.352 304.439C236.488 305.336 238.667 306.233 240.889 306.959C243.282 307.728 245.802 308.284 248.238 308.925C250.545 309.523 252.937 309.865 255.287 310.206C259.047 310.805 262.849 311.189 266.652 311.018C267.806 310.975 268.831 311.659 269.984 311.232C271.01 310.847 272.078 311.104 273.146 311.061C273.659 311.061 274.129 311.061 274.641 311.061C274.941 311.061 275.154 311.232 275.325 311.488C276.137 311.189 276.82 310.719 277.419 310.121L277.504 310.206Z" fill="#494A45"/>
<path d="M366.797 411.079C366.797 413.044 366.712 415.01 367.225 416.975C367.396 417.573 367.609 418 368.122 418.3C370.087 419.539 372.053 420.82 374.018 422.059C376.453 423.597 378.931 425.135 381.366 426.674C382.905 427.656 384.443 428.682 386.066 429.579C387.177 430.177 387.818 430.903 387.69 432.27C387.604 433.253 387.69 434.236 387.391 435.218C387.177 435.774 387.305 436.457 387.305 437.098C392.218 436.073 395.936 430.989 395.337 425.862C395.124 424.067 394.269 422.657 392.688 421.718C391.706 421.119 390.68 420.649 389.655 420.222C382.648 417.317 375.641 414.454 368.635 411.592C368.036 411.335 367.481 411.036 366.797 411.122V411.079Z" fill="#FFB88C"/>
<path d="M347.273 437.483C346.248 436.244 345.863 434.791 345.948 433.168C346.034 431.416 345.948 429.664 345.948 427.87C345.948 426.973 345.948 426.076 345.649 425.178C345.479 424.666 345.521 424.068 345.521 423.512C345.521 421.675 345.521 419.838 345.521 418.001C345.521 416.933 345.393 415.907 345.222 414.882C344.966 413.301 344.795 411.677 345.521 410.097C344.197 410.139 342.872 410.182 341.548 410.438C340.95 410.567 340.309 410.524 339.668 410.524C339.369 410.738 339.241 411.079 339.155 411.421C338.856 412.66 338.514 413.856 338.173 415.095C338.087 415.352 337.959 415.651 337.959 415.907C337.703 418.428 337.446 420.949 337.19 423.469C337.745 425.905 337.19 428.383 337.874 430.818C338.728 434.151 340.736 436.244 344.026 437.141C344.923 437.398 345.82 437.526 346.718 437.654C346.888 437.654 347.102 437.526 347.273 437.44V437.483Z" fill="#FFB88C"/>
<path d="M395.723 224.673C395.723 226.04 396.193 226.424 397.432 226.424C398.03 226.424 398.543 226.253 399.055 226.04C401.149 225.1 403.029 223.861 404.866 222.579C406.917 221.126 408.668 219.375 410.292 217.538C412.77 214.718 415.077 211.77 416.487 208.224C417.085 206.771 417.555 205.318 418.025 203.823C418.367 202.84 417.939 201.986 417 201.601C416.7 201.473 416.316 201.388 415.974 201.345C415.291 201.26 414.735 201.516 414.436 202.199C414.222 202.669 414.009 203.097 414.009 203.609C414.009 204.421 413.71 205.147 413.411 205.831C411.915 209.206 410.035 212.325 407.387 214.974C405.079 217.281 402.687 219.46 399.91 221.212C398.927 221.81 397.944 222.323 396.919 222.793C396.065 223.22 395.552 223.775 395.68 224.63L395.723 224.673Z" fill="#62340E"/>
</svg>
