<svg width="500" height="500" viewBox="0 0 500 500" fill="none" xmlns="http://www.w3.org/2000/svg">
<path d="M191.502 273.309C196.792 271.68 201.862 269.531 206.717 266.873C207.053 266.689 207.4 266.527 207.749 266.372C212.051 264.46 216.236 262.314 220.335 260.012C223.049 258.488 225.802 256.993 228.361 255.231C231.152 253.31 234.146 251.697 236.784 249.55C237.248 249.173 237.794 248.896 238.302 248.576C239.55 247.791 240.851 247.083 241.931 246.052C241.969 246.013 242.013 245.979 242.061 245.953C244.753 244.483 247.078 242.454 249.716 240.902C250.754 240.292 251.735 239.603 252.681 238.854C253.405 238.279 254.209 237.797 255.002 237.32C255.99 236.73 256.936 236.098 257.841 235.38C258.692 234.701 259.641 234.145 260.568 233.564C261.448 233.012 262.314 232.453 263.118 231.783C263.743 231.262 264.458 230.843 265.153 230.411C266.502 229.576 267.782 228.646 269.061 227.703C270.995 226.278 272.992 224.935 274.973 223.569C275.751 223.036 276.653 222.766 277.558 222.56C278.783 222.28 280.025 222.08 281.253 221.829C281.949 221.687 282.657 221.569 283.32 221.334C285.184 220.68 287.118 220.296 289.045 219.921C291.734 219.404 294.36 218.661 296.957 217.813C297.735 217.559 298.497 217.245 299.284 217.026C302.513 216.124 305.539 214.724 308.546 213.282C312.391 211.434 316.213 209.539 320.061 207.704C331.269 202.363 342.414 196.893 353.52 191.349C354.301 190.959 355.094 190.594 355.723 189.965C354.809 188.635 354.152 187.136 353.104 185.892C352.567 186.742 352.208 186.822 351.735 186.117C351.015 185.044 350.481 183.872 350.176 182.609C350.097 182.285 350.186 181.964 350.516 181.777C350.167 181.227 349.818 180.678 349.465 180.129C349.36 180.151 349.24 180.148 349.151 180.199C348.259 180.71 348.281 180.697 347.722 179.938C347.303 179.37 346.957 178.764 346.69 178.116C346.338 177.268 346.033 176.398 346.278 175.455C346.141 175.157 346.001 174.855 345.865 174.557C345.646 174.322 345.43 174.087 345.211 173.849C345.112 174.039 345.03 174.246 344.909 174.423C344.617 174.846 344.296 174.858 344.042 174.439C343.398 173.376 342.823 172.277 342.372 171.118C342.21 170.702 342.156 170.267 342.61 169.956C342.534 169.505 342.255 169.166 341.953 168.854C340.442 167.305 338.962 165.721 337.314 164.311C336.143 164.765 334.994 165.298 333.79 165.657C332.32 166.095 330.885 166.619 329.463 167.188C328.599 167.534 327.723 167.845 326.85 168.156C323.605 169.315 320.36 170.464 317.115 171.623C316.756 171.753 316.413 171.931 316.055 172.068C313.248 173.147 310.349 173.969 307.59 175.176C307.492 175.22 307.374 175.214 307.273 175.252C303.875 176.468 300.465 177.652 297.09 178.926C295.811 179.408 294.525 179.872 293.233 180.319C290.343 181.323 287.467 182.361 284.584 183.393C284.276 183.504 283.987 183.666 283.679 183.783C282.711 184.161 281.739 184.517 280.755 184.853C277.443 185.987 274.167 187.209 270.874 188.403C270.722 188.46 270.579 188.546 270.427 188.606C269.049 189.14 267.68 189.692 266.293 190.197C263.724 191.13 261.146 192.042 258.571 192.956C256.819 193.578 255.066 194.191 253.313 194.813C252.024 195.271 250.722 195.693 249.459 196.207C246.014 197.607 242.594 199.061 239.153 200.465C236.521 201.538 233.873 202.576 231.228 203.614C230.669 203.834 230.091 204.094 229.51 204.132C228.602 204.189 227.818 204.526 227.012 204.872C226.408 205.129 225.792 205.367 225.167 205.554C223.173 206.158 221.246 206.932 219.338 207.758C218.938 207.932 218.528 208.098 218.109 208.221C214.588 209.25 211.292 210.904 207.79 211.993C206.228 212.479 204.733 213.178 203.196 213.752C199.611 215.092 196.014 216.403 192.436 217.756C190.953 218.318 189.524 219.026 187.988 219.442C186.765 219.772 185.613 220.267 184.466 220.785C183.32 221.302 182.161 221.785 180.939 222.102C180.828 222.503 180.59 222.525 180.272 222.331C180.066 222.379 179.863 222.426 179.656 222.471C179.545 222.864 179.374 223.226 179.05 223.493C179.771 224.15 180.491 224.808 181.212 225.465C181.784 225.986 182.257 226.576 182.568 227.287C183.511 229.437 184.365 231.605 184.66 233.964C184.797 235.05 184.908 236.101 184.743 237.203C184.527 238.641 183.99 239.921 183.266 241.149C183.866 243.346 184.463 245.547 185.063 247.744C185.676 249.995 186.292 252.243 186.905 254.494C187.934 258.263 188.959 262.031 189.985 265.803C190.566 267.95 191.131 270.099 191.728 272.242C191.845 272.668 191.68 272.979 191.486 273.306L191.502 273.309Z" fill="#6A6D66"/>
<path d="M183.282 241.152C184.006 239.923 184.542 238.641 184.758 237.205C184.923 236.101 184.812 235.053 184.676 233.967C184.381 231.608 183.526 229.436 182.583 227.29C182.272 226.579 181.796 225.988 181.228 225.467C180.507 224.81 179.786 224.153 179.066 223.496C178.491 223.553 177.983 223.356 177.522 223.048C177.024 222.718 176.538 222.362 176.059 222.004C174.055 220.502 172.16 218.863 170.042 217.511C169.68 217.279 169.35 216.965 169.083 216.628C167.083 214.091 165.461 211.304 164.016 208.437C162.94 206.303 162.168 204.014 161.244 201.804C160.279 199.49 159.361 197.15 158.298 194.883C156.952 192.016 155.478 189.212 154.189 186.316C153.694 185.202 153.284 184.094 153.427 182.849C153.091 182.745 152.891 182.522 152.773 182.183C152.542 181.513 152.265 180.859 152.024 180.192C151.367 178.388 151.351 178.801 152.637 177.814C153.157 177.414 153.653 176.982 154.32 176.845C154.586 176.576 154.828 176.271 155.126 176.039C158.114 173.743 161.085 171.419 164.118 169.184C168.337 166.073 172.604 163.021 176.859 159.958C178.986 158.424 181.136 156.929 183.418 155.621C184.885 154.779 186.311 153.855 187.695 152.884C189.349 151.722 190.931 150.461 192.556 149.258C194.179 148.054 195.845 146.905 197.433 145.657C198.547 144.781 199.655 143.867 200.602 142.819C202.738 140.454 203.758 137.618 203.739 134.424C203.732 133.605 203.624 132.786 203.65 131.967C203.71 129.966 203.002 128.227 201.938 126.591C201.672 126.182 201.351 125.794 201.306 125.277C200.252 124.261 199.217 123.226 198.141 122.229C196.865 121.048 195.515 119.918 193.89 119.283C191.007 118.162 188.064 117.228 184.901 117.403C184.577 117.422 184.25 117.403 183.923 117.397C183.672 117.501 183.431 117.66 183.171 117.708C181.91 117.93 180.764 118.441 179.669 119.067C178.481 119.743 177.303 120.438 176.151 121.172C174.516 122.21 173.236 123.642 171.963 125.077C170.08 127.201 168.375 129.49 166.099 131.24C165.883 131.405 165.702 131.617 165.502 131.805C163.152 134.018 160.835 136.266 158.444 138.431C155.647 140.965 152.865 143.511 150.116 146.095C148.125 147.966 146.087 149.791 144.013 151.569C141.562 153.671 139.289 155.963 136.847 158.068C135.311 159.392 133.844 160.777 132.425 162.221C131.771 162.885 131.18 163.596 130.599 164.326C130.116 164.936 129.758 165.609 129.491 166.327C128.897 167.917 128.421 169.54 128.231 171.235C128.196 171.559 128.17 171.896 128.224 172.216C128.535 174.099 128.827 175.988 129.212 177.858C129.44 178.979 129.751 180.084 130.259 181.129C131.669 184.03 133.009 186.967 134.454 189.85C136.266 193.467 138.165 197.045 140.013 200.642C140.438 201.468 140.829 202.312 141.223 203.157C141.515 203.782 141.569 204.398 141.143 205.014C140.772 205.554 140.521 206.189 140.095 206.671C139.47 207.386 139.051 208.205 138.635 209.034C138.365 209.573 138.035 210.066 137.673 210.551C137.228 211.151 136.628 211.697 136.597 212.532C139.867 213.39 143.131 214.263 146.407 215.092C147.312 215.32 147.957 215.736 148.398 216.596C149.071 217.905 149.922 219.121 150.586 220.432C151.573 222.391 153.183 223.785 154.748 225.22C155.228 225.658 155.875 225.871 156.482 226.122C158.399 226.909 160.317 227.693 162.209 228.538C165.159 229.852 167.591 231.789 169.439 234.488C170.855 236.555 172.417 238.526 173.954 240.507C174.487 241.193 175.151 241.777 175.735 242.425C176.332 243.082 177.072 243.346 177.938 243.267C178.481 243.216 179.021 243.13 179.561 243.057C179.989 242.616 180.586 242.479 181.11 242.216C181.831 241.854 182.561 241.508 183.285 241.155L183.282 241.152Z" fill="#F7BB92"/>
<path d="M347.849 143.667C346.522 142.458 345.211 141.226 343.855 140.051C343.274 139.549 342.652 139.083 342.207 138.46C340.845 136.546 338.95 135.4 336.768 134.723C334.371 133.984 331.895 133.574 329.418 133.145C326.64 132.663 323.859 132.869 321.077 132.818C318.261 132.768 315.556 133.374 312.867 134.136C311.454 134.536 310.003 134.806 308.565 135.104C303.866 136.076 299.16 137.022 294.464 137.994C288.965 139.134 283.457 140.245 277.974 141.451C273.659 142.401 269.369 143.467 265.077 144.512C264.464 144.661 263.918 144.661 263.321 144.461C260.679 143.575 257.971 142.925 255.282 142.213C250.322 140.902 245.369 139.565 240.41 138.26C233.444 136.425 226.462 134.657 219.512 132.771C215.248 131.612 210.933 130.631 206.717 129.297C206.466 129.218 206.177 129.256 205.904 129.24C206.034 129.882 206.168 130.52 206.291 131.161C206.669 133.142 206.974 135.139 207.438 137.098C208.866 143.147 210.209 149.211 211.254 155.339C211.346 155.882 211.505 156.402 211.905 156.812C212.419 156.774 212.86 157.009 213.311 157.199C216.48 158.536 219.801 159.054 223.217 159.088C224.31 159.098 225.421 159.034 226.494 159.196C229.402 159.638 232.298 160.177 235.193 160.692C236.375 160.901 237.543 161.209 238.73 161.365C242.036 161.8 245.255 162.654 248.522 163.286C252.164 163.991 255.742 164.981 259.431 165.464C261.108 165.683 262.689 165.435 264.277 165.092C265.82 164.756 267.325 164.238 268.858 163.845C272.347 162.946 275.748 161.743 279.253 160.882C282.326 160.127 285.384 159.32 288.486 158.676C290.356 158.288 292.248 158.025 294.122 157.676C297.874 156.977 301.621 156.244 305.364 155.501C308.095 154.958 310.819 154.386 313.473 153.539C316.702 152.51 319.995 151.738 323.287 150.954C324.843 150.583 326.421 150.535 328.008 150.576C328.51 150.589 328.974 150.729 329.447 150.862C329.853 150.976 330.12 151.205 330.285 151.576C330.418 151.875 330.568 152.17 330.672 152.481C331.06 153.631 331.641 154.675 332.307 155.685C333.511 157.507 334.66 159.368 335.997 161.101C336.562 161.835 337.079 162.606 337.619 163.362C338.311 163.33 338.896 163.603 339.426 164.016C339.683 164.216 339.908 164.499 340.2 164.61C341.912 165.258 343.045 166.531 344.109 167.947C344.833 168.906 345.503 169.896 346.163 170.893C346.687 171.681 347.401 172.271 348.055 172.922C348.255 173.119 348.513 173.22 348.795 173.224C349.668 173.227 350.545 173.249 351.418 173.217C352.04 173.195 352.57 172.9 353.021 172.481C353.342 172.182 353.653 171.874 353.951 171.557C355.085 170.36 355.682 168.934 355.717 167.283C355.758 165.261 355.364 163.289 355.079 161.298C354.593 157.917 353.459 154.732 351.942 151.722C350.843 149.541 349.833 147.277 348.297 145.341C347.881 144.817 347.814 144.268 347.846 143.658L347.849 143.667Z" fill="#F7BB92"/>
<path d="M211.901 156.818C211.501 156.408 211.343 155.887 211.251 155.345C210.206 149.217 208.863 143.153 207.434 137.104C206.971 135.145 206.669 133.145 206.288 131.167C206.164 130.526 206.031 129.887 205.901 129.246C204.993 128.119 204.088 126.989 203.173 125.865C202.903 125.531 202.608 125.217 202.322 124.893C201.98 125.02 201.633 125.15 201.291 125.277C201.335 125.795 201.659 126.182 201.922 126.592C202.986 128.23 203.691 129.967 203.634 131.967C203.608 132.783 203.719 133.605 203.723 134.424C203.742 137.618 202.719 140.454 200.586 142.819C199.64 143.867 198.532 144.781 197.417 145.658C195.83 146.905 194.163 148.052 192.54 149.258C190.918 150.461 189.334 151.722 187.679 152.884C186.295 153.855 184.869 154.779 183.403 155.621C181.123 156.929 178.973 158.424 176.843 159.958C172.589 163.022 168.321 166.073 164.102 169.184C161.07 171.42 158.101 173.744 155.11 176.039C154.812 176.268 154.57 176.576 154.304 176.846C154.659 177.474 155.015 178.103 155.37 178.735C155.78 178.887 156.19 179.036 156.596 179.189C168.086 183.561 179.577 187.923 191.061 192.314C192.74 192.956 194.483 193.451 196.065 194.337C196.836 194.365 197.563 194.223 198.303 193.962C202.205 192.575 205.45 190.216 208.266 187.244C209.431 186.015 210.514 184.688 211.079 183.05C211.562 181.656 212.019 180.252 212.387 178.827C212.781 177.293 213.105 175.731 213.073 174.137C213.01 171.026 212.908 167.911 212.816 164.8C212.803 164.419 212.743 164.038 212.698 163.66C212.432 161.383 212.162 159.104 211.895 156.827L211.901 156.818Z" fill="#8A8AD9"/>
<path d="M141.807 421.356C141.74 421.731 141.604 422.106 141.616 422.477C141.737 426.303 141.229 430.113 141.299 433.936C141.318 434.974 141.312 436.015 141.27 437.054C141.216 438.539 141.407 439.975 141.816 441.413C142.563 444.035 144.363 446.321 146.836 447.512C147.274 447.725 147.643 448.039 148.132 448.195C149.335 448.576 150.526 448.887 151.815 448.83C153.561 448.75 155.332 448.938 157.057 448.718C159.057 448.464 161.092 448.652 163.07 448.179C163.435 448.093 163.832 448.137 164.213 448.125C164.813 448.106 165.416 448.144 165.997 447.931C166.197 447.858 166.426 447.817 166.639 447.826C169.045 447.922 171.417 447.347 173.827 447.448C174.697 447.487 175.56 447.404 176.43 447.245C177.335 447.08 178.281 447.163 179.212 447.134C180.028 447.112 180.844 447.156 181.647 446.896C181.999 446.782 182.406 446.807 182.787 446.823C184.336 446.887 185.813 446.48 187.298 446.144C188.064 445.972 188.664 445.47 189.229 444.962C190.092 444.188 190.677 443.226 191.153 442.156C191.674 440.987 191.823 439.749 192.07 438.53C192.305 437.358 191.95 436.209 191.397 435.218C190.572 433.729 189.416 432.526 187.838 431.716C185.371 430.453 182.968 429.072 180.539 427.735C179.586 427.211 178.64 426.684 177.694 426.154C176.935 425.725 176.183 425.284 175.424 424.855C173.157 423.569 170.89 422.28 168.614 421.013C168.385 420.886 168.086 420.88 167.826 420.817C166.639 420.744 165.458 420.74 164.257 420.794C161.149 420.937 158.038 421.058 154.926 421.159C150.935 421.293 146.941 421.236 142.947 421.267C142.569 421.267 142.191 421.325 141.81 421.356H141.807Z" fill="#F7BC94"/>
<path d="M349.475 180.126C349.824 180.675 350.173 181.224 350.522 181.774C351.621 182.996 352.465 184.38 353.11 185.888C354.158 187.133 354.815 188.632 355.729 189.962C356.193 190.06 356.587 189.86 356.977 189.66C359.454 188.381 362.009 187.257 364.394 185.803C364.534 185.717 364.705 185.672 364.823 185.564C366.785 183.761 368.998 182.208 370.328 179.786C371.049 178.472 371.5 177.087 371.763 175.627C371.811 175.36 371.808 175.077 371.773 174.808C371.506 172.642 371.226 170.483 370.236 168.483C368.725 165.435 366.95 162.568 364.68 160.022C363.41 158.596 362.206 157.11 360.93 155.688C359.358 153.938 357.695 152.284 355.879 150.776C354.789 149.871 353.831 148.807 352.796 147.833C352.364 147.426 352.037 146.89 351.433 146.68C351.453 147.007 351.456 147.337 351.665 147.617C352.348 148.534 353.021 149.458 353.713 150.37C354.983 152.046 355.799 153.932 356.402 155.932C356.987 157.866 357.377 159.841 357.625 161.831C357.818 163.39 358.171 164.946 358.038 166.543C357.977 167.248 358.015 167.965 358.031 168.677C358.069 170.699 357.25 172.255 355.542 173.344C354.897 173.753 354.253 174.166 353.64 174.62C352.923 175.147 352.196 175.608 351.259 175.566C349.84 176.189 348.579 175.773 347.427 174.919C346.938 174.557 346.427 174.538 345.877 174.547C346.014 174.846 346.153 175.147 346.29 175.446C346.458 175.576 346.684 175.674 346.792 175.843C347.7 177.259 348.586 178.691 349.478 180.119L349.475 180.126Z" fill="#F7BB92"/>
<path d="M184.343 114.203C185.016 112.492 185.695 110.783 186.394 109.082C186.438 108.97 186.664 108.929 186.803 108.856C186.968 108.624 187.054 108.37 187.029 108.081C186.889 107.65 186.952 107.319 187.46 107.215C187.626 106.983 187.711 106.729 187.683 106.44C187.543 106.008 187.607 105.678 188.115 105.573C188.359 105.287 188.527 104.973 188.505 104.583C188.207 104.173 188.232 104.113 188.775 103.929C188.94 103.697 189.023 103.443 188.997 103.157C188.854 102.722 188.918 102.392 189.432 102.287C189.597 102.055 189.68 101.801 189.654 101.512C189.515 101.077 189.578 100.747 190.093 100.642C190.334 100.357 190.502 100.039 190.483 99.6486C190.207 99.4391 190.235 99.1819 190.401 98.9342C190.994 98.0484 190.816 97.2293 190.35 96.3244C189.68 95.0226 189.108 93.6669 188.622 92.2763C188.175 90.9967 187.641 89.7426 187.064 88.5139C186.289 86.8629 185.889 85.1103 185.632 83.3354C185.527 82.6179 185.159 81.9289 185.441 81.0971C185.67 80.4271 185.301 79.6143 185.578 78.8746C185.613 78.7793 185.594 78.6555 185.587 78.5475C185.467 76.5695 186.152 74.8042 187.006 73.0802C187.175 72.7404 187.276 72.3658 187.435 72.0229C187.734 71.3784 188.01 70.718 188.575 70.2385C188.657 70.1687 188.753 70.0957 188.8 70.0004C189.461 68.7241 190.534 67.7684 191.385 66.6444C192.398 65.3046 193.544 64.206 195.096 63.5298C196.096 63.0916 197.058 62.5646 198.036 62.0724C198.182 61.9994 198.332 61.9168 198.449 61.8057C198.513 61.7454 198.551 61.6089 198.532 61.5231C198.513 61.4374 198.417 61.3263 198.335 61.3041C197.957 61.2056 197.586 61.2501 197.205 61.3517C196.363 61.5771 195.515 61.774 194.668 61.9803C193.445 62.2788 192.328 62.8059 191.264 63.4758C190.81 63.7615 190.401 64.114 189.845 64.2727C189.391 64.3997 188.943 64.7013 188.6 65.0379C187.235 66.3714 185.733 67.5779 184.673 69.2035C184.257 69.8417 183.654 70.3814 183.346 71.0609C182.447 73.0389 181.523 74.9884 181.266 77.2236C181.091 78.7507 181.047 80.262 180.99 81.786C180.942 83.0084 181.171 84.1705 181.536 85.323C182.184 87.3518 182.917 89.3457 183.844 91.2698C184.695 93.0383 185.416 94.8702 186.206 96.6705C186.676 97.7436 186.581 98.712 186.063 99.801C185.152 101.719 184.435 103.729 183.641 105.703C182.647 108.183 181.657 110.666 180.669 113.149C180.387 113.857 180.028 114.539 180.025 115.33C180.129 115.368 180.234 115.406 180.339 115.444C181.33 115.352 182.317 115.263 183.308 115.171" fill="#5D3718"/>
<path d="M183.282 241.153C182.558 241.505 181.828 241.848 181.107 242.213C180.583 242.477 179.987 242.613 179.558 243.054C180.123 245.931 180.707 248.801 181.25 251.681C181.733 254.24 182.171 256.809 182.638 259.371C182.879 260.707 183.133 262.041 183.393 263.371C183.79 265.394 184.2 267.416 184.593 269.439C184.927 271.144 185.251 272.849 185.562 274.557C185.619 274.874 185.597 275.208 185.613 275.535C185.702 275.446 185.787 275.354 185.876 275.265C185.933 275.074 186.067 275.02 186.248 275.055C188 274.471 189.75 273.89 191.502 273.306C191.696 272.979 191.864 272.668 191.744 272.242C191.147 270.099 190.582 267.95 190 265.803C188.978 262.035 187.949 258.266 186.921 254.494C186.308 252.243 185.692 249.995 185.079 247.744C184.479 245.547 183.882 243.347 183.282 241.149V241.153Z" fill="#454742"/>
<path d="M203.761 119.814C203.669 119.236 203.31 118.823 202.894 118.458C201.745 117.455 200.624 116.42 199.427 115.477C197.976 114.334 196.461 113.277 194.969 112.184C194.75 112.026 194.525 111.857 194.28 111.753C193.124 111.267 191.966 110.791 190.797 110.33C189.981 110.009 189.143 109.759 188.244 109.854C187.733 109.908 187.279 109.705 186.825 109.514C186.47 109.819 186.463 110.289 186.295 110.683C185.87 111.68 185.492 112.699 185.079 113.702C184.936 114.048 184.666 113.785 184.015 114.508C183.926 114.921 183.92 115.102 183.596 115.28C183.644 115.994 184.066 116.652 183.911 117.395C184.238 117.395 184.565 117.417 184.889 117.401C188.054 117.223 190.997 118.157 193.877 119.28C195.506 119.915 196.852 121.046 198.128 122.227C199.201 123.221 200.24 124.256 201.294 125.275C201.637 125.148 201.983 125.018 202.326 124.891C202.288 123.662 202.872 122.608 203.281 121.509C203.488 120.954 203.729 120.417 203.761 119.814Z" fill="#D8A47F"/>
<path d="M345.874 174.554C346.424 174.541 346.935 174.56 347.424 174.925C348.576 175.779 349.837 176.195 351.256 175.573C352.193 175.614 352.92 175.154 353.637 174.627C354.253 174.176 354.894 173.763 355.539 173.351C357.247 172.262 358.066 170.706 358.028 168.683C358.016 167.972 357.977 167.258 358.035 166.55C358.168 164.953 357.815 163.397 357.622 161.838C357.374 159.847 356.984 157.872 356.399 155.939C355.796 153.939 354.98 152.053 353.71 150.376C353.021 149.465 352.345 148.541 351.662 147.624C351.453 147.341 351.45 147.014 351.431 146.687C350.497 145.696 349.522 144.747 348.446 143.909C348.284 143.782 348.049 143.747 347.849 143.667C347.817 144.277 347.884 144.826 348.3 145.35C349.84 147.287 350.85 149.551 351.945 151.732C353.463 154.745 354.596 157.926 355.082 161.308C355.368 163.295 355.761 165.27 355.72 167.293C355.685 168.941 355.088 170.369 353.955 171.566C353.653 171.884 353.342 172.192 353.024 172.49C352.574 172.912 352.043 173.208 351.421 173.227C350.548 173.259 349.672 173.236 348.798 173.233C348.516 173.233 348.256 173.132 348.059 172.932C347.401 172.281 346.69 171.69 346.166 170.903C345.503 169.906 344.833 168.915 344.112 167.956C343.045 166.54 341.912 165.267 340.204 164.619C339.912 164.508 339.689 164.226 339.429 164.026C338.899 163.613 338.315 163.34 337.622 163.372C337.524 163.686 337.422 163.997 337.324 164.311C338.975 165.721 340.451 167.302 341.963 168.855C342.264 169.163 342.544 169.503 342.62 169.957C343.712 171.103 344.534 172.433 345.223 173.852C345.442 174.087 345.658 174.322 345.877 174.56L345.874 174.554Z" fill="#DDA882"/>
<path d="M185.625 276.693C185.13 277.217 185.165 277.767 185.549 278.332C185.79 277.795 185.825 277.249 185.625 276.693Z" fill="#8D8F89"/>
<path d="M129.421 235.317C129.888 234.79 129.863 234.244 129.478 233.685C129.231 234.222 129.221 234.765 129.421 235.317Z" fill="#8D8F89"/>
<path d="M129.469 242.207C129.876 241.75 129.863 241.315 129.409 240.896C129.183 241.343 129.237 241.778 129.469 242.207Z" fill="#8D8F89"/>
<path d="M129.809 246.474C130.171 246.121 130.13 245.797 129.742 245.496C129.542 245.839 129.584 246.162 129.809 246.474Z" fill="#8D8F89"/>
<path d="M183.6 115.283C183.923 115.105 184.266 114.95 184.352 114.534C183.791 114.491 183.441 114.702 183.301 115.165C183.4 115.204 183.498 115.242 183.596 115.28L183.6 115.283Z" fill="#D8A47F"/>
<path d="M130.129 249.429C130.434 249.185 130.377 248.969 130.072 248.778C129.897 249.013 129.935 249.229 130.129 249.429Z" fill="#8D8F89"/>
<path d="M130.793 253.37C131.158 253.084 130.993 252.871 130.694 252.681C130.567 252.935 130.612 253.16 130.793 253.37Z" fill="#8D8F89"/>
<path d="M132.222 259.141C132.409 258.773 132.342 258.475 131.971 258.265C131.86 258.611 131.983 258.894 132.222 259.141Z" fill="#8D8F89"/>
<path d="M138.804 282.129C138.953 281.799 138.924 281.51 138.604 281.291C138.407 281.634 138.54 281.897 138.804 282.129Z" fill="#8D8F89"/>
<path d="M129.732 232.072C130.018 231.878 130.18 231.665 129.821 231.389C129.643 231.599 129.612 231.824 129.732 232.072Z" fill="#8D8F89"/>
<path d="M129.421 235.317C129.888 234.79 129.863 234.244 129.478 233.685C129.444 233.129 129.52 232.59 129.729 232.072C130.015 231.879 130.177 231.666 129.818 231.39C130.469 227.64 131.507 223.985 132.73 220.388C133.673 217.61 134.825 214.914 136.59 212.533C139.861 213.39 143.125 214.267 146.401 215.092C147.306 215.321 147.951 215.737 148.392 216.597C149.065 217.905 149.916 219.121 150.58 220.433C151.567 222.392 153.177 223.785 154.742 225.221C155.221 225.659 155.869 225.871 156.476 226.122C158.393 226.91 160.311 227.694 162.203 228.538C165.153 229.853 167.585 231.79 169.433 234.488C170.849 236.555 172.411 238.527 173.948 240.508C174.481 241.194 175.145 241.778 175.729 242.426C176.326 243.083 177.065 243.347 177.932 243.267C178.475 243.216 179.015 243.131 179.555 243.058C180.12 245.934 180.704 248.808 181.247 251.687C181.73 254.246 182.168 256.815 182.634 259.377C182.876 260.714 183.13 262.047 183.39 263.378C183.787 265.4 184.196 267.423 184.59 269.445C184.924 271.15 185.247 272.855 185.559 274.563C185.616 274.881 185.593 275.214 185.609 275.541C185.87 275.925 185.673 276.31 185.622 276.697C185.127 277.221 185.162 277.77 185.546 278.335C185.613 279.551 185.406 280.751 185.282 281.955C185.52 282.618 185.498 283.272 185.222 283.92C185.244 285.46 185.162 286.997 184.952 288.524C185.162 288.971 185.111 289.406 184.879 289.829C184.955 291.591 184.819 293.343 184.625 295.093C184.889 295.864 184.812 296.63 184.552 297.385C184.59 298.49 184.524 299.589 184.304 300.675C184.508 301.017 184.46 301.344 184.235 301.656C184.282 302.548 184.095 303.415 183.968 304.288C184.162 304.735 184.127 305.17 183.895 305.596C183.806 306.583 183.717 307.574 183.628 308.561C183.809 308.793 183.774 309.009 183.581 309.212C183.593 309.873 183.552 310.523 183.323 311.152C183.454 311.4 183.419 311.628 183.238 311.838C183.158 312.387 183.079 312.933 183 313.483C183.209 314.041 183.181 314.587 182.901 315.118C182.822 315.778 182.746 316.435 182.666 317.096C182.866 317.442 182.809 317.769 182.584 318.077C182.625 318.753 182.476 319.401 182.326 320.052C182.533 320.588 182.514 321.09 182.104 321.534C182.082 321.696 182.063 321.855 182.041 322.017C182.196 322.265 182.203 322.544 182.136 322.808C181.701 324.471 181.803 326.17 181.793 327.862C181.79 328.796 181.745 329.72 181.396 330.599C181.171 331.17 181.164 331.774 181.155 332.374C181.136 333.463 181.206 334.561 180.653 335.577C180.529 335.803 180.488 336.111 180.507 336.374C180.663 338.53 179.605 340.537 179.739 342.689C179.748 342.845 179.672 343.01 179.609 343.162C179.177 344.185 179.104 345.283 178.974 346.36C178.869 347.23 178.777 348.09 178.472 348.919C178.361 349.22 178.313 349.557 178.294 349.884C178.224 351.081 178.224 352.281 177.71 353.415C177.561 353.742 177.618 354.167 177.599 354.548C177.551 355.529 177.558 356.507 177.097 357.428C176.935 357.752 176.945 358.171 176.926 358.549C176.878 359.53 176.891 360.508 176.421 361.428C176.256 361.749 176.259 362.171 176.246 362.549C176.202 363.695 176.265 364.854 175.675 365.905C175.665 367.661 175.167 369.34 174.919 371.058C174.779 372.026 174.767 373.011 174.408 373.941C174.313 374.192 174.23 374.471 174.236 374.735C174.294 377.16 173.208 379.427 173.246 381.85C173.246 382.005 173.195 382.18 173.116 382.32C172.671 383.123 172.703 384.003 172.652 384.876C172.62 385.419 172.674 386.035 172.433 386.479C172.014 387.254 172.02 388.054 171.985 388.864C171.944 389.791 171.973 390.718 171.512 391.581C171.366 391.854 171.347 392.216 171.338 392.537C171.3 393.629 171.322 394.718 170.792 395.737C170.649 396.01 170.652 396.379 170.655 396.703C170.671 397.808 170.56 398.884 170.115 399.909C170.071 401.821 169.531 403.662 169.312 405.545C169.223 406.304 169.201 407.075 168.963 407.799C168.62 408.85 168.55 409.936 168.388 411.012C168.321 411.441 168.296 411.889 168.153 412.292C167.855 413.13 167.763 413.991 167.737 414.867C167.718 415.464 167.769 416.08 167.474 416.632C167.067 417.388 167.105 418.213 167.061 419.032C167.032 419.515 167.175 419.877 167.591 420.147C167.826 420.299 168.01 420.506 167.817 420.82C166.629 420.747 165.448 420.744 164.248 420.798C161.14 420.941 158.028 421.061 154.917 421.163C150.926 421.296 146.931 421.239 142.937 421.271C142.559 421.271 142.182 421.328 141.801 421.36C141.575 421.29 141.407 421.153 141.41 420.906C141.426 419.648 141.334 418.372 141.509 417.137C141.677 415.934 141.699 414.743 141.709 413.543C141.737 410.149 141.553 406.742 141.826 403.37C142.096 400.03 141.966 396.706 142.036 393.375C142.074 391.515 142.077 389.654 142.099 387.794C142.102 387.409 142.061 387.012 142.15 386.647C142.486 385.298 142.398 383.93 142.404 382.564C142.417 379.662 142.407 376.764 142.42 373.862C142.42 373.316 142.398 372.75 142.531 372.23C142.721 371.471 142.734 370.715 142.747 369.95C142.829 364.924 142.661 359.901 143.026 354.869C143.306 351.002 143.093 347.103 143.106 343.216C143.106 342.778 143.048 342.318 143.16 341.908C143.496 340.67 143.436 339.413 143.439 338.159C143.445 335.641 143.433 333.123 143.404 330.605C143.382 328.745 143.353 326.884 143.048 325.043C142.871 323.966 142.556 322.906 142.464 321.823C142.264 319.429 142.14 317.026 142.039 314.622C141.997 313.632 141.861 312.667 141.674 311.698C141.391 310.254 141.185 308.799 141.083 307.326C140.883 304.5 141.029 301.637 140.185 298.878C140.153 298.776 140.15 298.662 140.15 298.55C140.118 296.582 139.718 294.642 139.731 292.667C139.743 290.311 139.435 287.984 138.946 285.676C138.734 284.673 138.629 283.628 138.899 282.599C138.962 282.634 139.016 282.675 139.064 282.72C139.016 282.675 138.959 282.637 138.899 282.599C138.867 282.444 138.835 282.285 138.803 282.129C138.953 281.799 138.924 281.51 138.603 281.291C137.721 278.027 136.921 274.741 136.051 271.474C135.222 268.359 134.384 265.264 133.212 262.257C132.815 261.244 132.406 260.225 132.225 259.139C132.412 258.771 132.345 258.472 131.974 258.263C131.396 256.675 131.063 255.031 130.796 253.37C131.161 253.084 130.996 252.872 130.698 252.681C130.406 251.618 130.244 250.529 130.132 249.43C130.437 249.185 130.38 248.97 130.075 248.779C129.92 248.017 129.774 247.255 129.812 246.474C130.174 246.122 130.132 245.798 129.745 245.496C129.577 244.407 129.424 243.315 129.472 242.207C129.878 241.75 129.866 241.315 129.412 240.896C129.351 239.035 129.221 237.178 129.424 235.317H129.421ZM139.365 283.187C139.324 283.072 139.27 282.961 139.194 282.86C139.27 282.958 139.324 283.069 139.365 283.187Z" fill="#696C65"/>
<path d="M178.707 115.778C178.44 115.702 178.196 115.718 178.002 115.946C178.282 116.073 178.504 115.968 178.707 115.778Z" fill="#B1937C"/>
<path d="M186.248 275.058C186.063 275.023 185.93 275.077 185.876 275.267C186.057 275.296 186.168 275.201 186.248 275.058Z" fill="#8D8F89"/>
<path d="M179.669 222.47C179.764 221.937 179.787 221.4 179.682 220.867C178.659 220.229 178.024 219.121 176.919 218.578C175.145 216.796 173.002 215.463 171.087 213.847C170.519 213.367 170.109 212.869 169.782 212.234C167.623 208.062 165.604 203.823 163.381 199.68C160.952 195.156 158.749 190.511 156.463 185.91C156.076 185.129 155.768 184.31 155.412 183.516C155.126 182.875 154.653 182.456 153.939 182.354C153.764 182.519 153.593 182.681 153.418 182.846C153.275 184.091 153.682 185.196 154.18 186.313C155.469 189.209 156.942 192.016 158.289 194.879C159.355 197.146 160.27 199.486 161.235 201.801C162.159 204.014 162.93 206.3 164.007 208.434C165.455 211.301 167.077 214.088 169.074 216.625C169.341 216.962 169.671 217.276 170.033 217.508C172.147 218.86 174.046 220.502 176.05 222C176.529 222.359 177.012 222.715 177.513 223.045C177.977 223.353 178.482 223.55 179.056 223.493C179.38 223.223 179.552 222.864 179.663 222.47H179.669Z" fill="#DDA882"/>
<path d="M346.79 175.851C347.698 177.268 348.583 178.699 349.476 180.128C349.371 180.15 349.25 180.147 349.161 180.198C348.269 180.709 348.291 180.697 347.733 179.938C347.313 179.369 346.967 178.763 346.701 178.115C346.348 177.268 346.043 176.398 346.285 175.455C346.453 175.585 346.678 175.683 346.786 175.851H346.79Z" fill="#6A6D66"/>
<path d="M350.527 181.773C351.625 182.995 352.47 184.38 353.114 185.888C352.578 186.739 352.219 186.818 351.746 186.113C351.025 185.04 350.492 183.868 350.187 182.605C350.108 182.281 350.196 181.96 350.527 181.773Z" fill="#6A6D66"/>
<path d="M342.618 169.953C343.71 171.099 344.532 172.429 345.221 173.848C345.123 174.039 345.04 174.245 344.92 174.423C344.627 174.845 344.307 174.858 344.053 174.439C343.408 173.375 342.834 172.277 342.383 171.118C342.221 170.702 342.167 170.267 342.621 169.956L342.618 169.953Z" fill="#6A6D66"/>
<path d="M189.949 99.5569C190.81 98.3441 191.343 98.4393 192.794 97.6043C193.194 97.036 193.655 96.5724 194.429 96.6359C194.68 96.4518 194.915 96.2327 195.261 96.2454C196.353 94.9849 197.662 94.0165 199.211 93.3847C199.259 93.3656 199.316 93.3783 199.37 93.3783C199.414 93.318 199.475 93.2958 199.548 93.318C199.633 93.0481 199.811 92.8735 200.043 92.7084C201.141 91.9274 202.424 91.4416 203.478 90.5748C203.659 90.4256 203.993 90.4573 204.256 90.4065L204.262 90.4129C204.44 89.9366 204.812 89.7747 205.285 89.7747C205.332 89.7112 205.393 89.6922 205.466 89.7144C205.977 88.9778 206.625 88.4666 207.564 88.4222C207.612 88.3618 207.672 88.346 207.745 88.3777C208.669 87.2919 209.889 86.6696 211.19 86.1774C211.317 86.006 211.409 85.7806 211.578 85.6758C213.572 84.4439 215.572 83.2215 217.585 82.0182C217.801 81.888 218.109 81.9102 218.375 81.8594L218.385 81.8658C218.896 81.072 219.585 80.8244 220.474 81.1863C220.677 81.2689 220.887 81.326 221.09 81.4086C225.595 83.2151 230.104 85.0185 234.6 86.8442C235.222 87.095 235.841 87.2474 236.508 87.2284C236.527 87.3585 236.546 87.4887 236.565 87.6157C236.511 87.8475 236.416 88.0539 236.206 88.1904C236.2 88.3555 236.228 88.5269 236.187 88.6793C235.593 90.7748 235.324 92.9561 234.581 95.0135C234.222 96.0104 234.073 97.0264 234.244 98.0742C234.393 98.9886 234.581 99.8935 234.749 100.805C235.209 103.322 235.679 105.837 236.124 108.358C236.276 109.225 236.003 109.742 235.238 110.088C234.393 110.469 233.53 110.803 232.676 111.165C231.571 111.635 230.472 112.117 229.367 112.581C228.631 112.892 228.085 113.375 227.757 114.124C227.278 115.226 226.764 116.311 226.268 117.404C225.478 119.14 224.763 120.909 223.319 122.271C222.141 123.385 220.763 123.693 219.252 123.49C218.448 123.382 217.651 123.122 216.896 122.82C213.2 121.344 209.517 119.829 205.831 118.328C205.186 118.064 204.85 118.169 204.475 118.775C204.256 119.131 204.291 119.658 203.767 119.807C203.675 119.229 203.316 118.816 202.9 118.451C201.751 117.448 200.63 116.413 199.433 115.47C197.982 114.327 196.468 113.27 194.976 112.178C194.756 112.019 194.531 111.851 194.287 111.746C193.131 111.26 191.972 110.784 190.804 110.323C189.988 110.003 189.149 109.752 188.251 109.847C187.74 109.901 187.286 109.698 186.832 109.507C186.825 109.288 186.406 109.291 186.397 109.069C186.562 108.837 189.975 99.9379 189.953 99.5474L189.949 99.5569ZM211.451 86.1933C211.733 86.1933 211.994 86.1393 212.254 86.0441C211.994 86.1393 211.73 86.1901 211.451 86.1933ZM212.336 86.0123C212.378 85.9965 212.419 85.9806 212.46 85.9647C212.419 85.9838 212.378 85.9965 212.336 86.0123ZM212.492 85.9488C212.549 85.9234 212.606 85.898 212.667 85.8695C212.61 85.898 212.549 85.9234 212.492 85.9488ZM217.912 82.8087C218.01 82.7643 218.093 82.7071 218.163 82.6436C218.096 82.7071 218.01 82.7611 217.912 82.8087ZM211.416 86.1965C211.352 86.1965 211.286 86.1901 211.219 86.1838C211.286 86.1901 211.352 86.1933 211.416 86.1965ZM211.111 86.6346C211.111 86.6346 211.108 86.6537 211.105 86.66C211.105 86.6505 211.108 86.641 211.111 86.6346ZM205.069 90.3303C204.999 90.397 204.907 90.4256 204.755 90.4319C204.907 90.4288 204.999 90.397 205.069 90.3303ZM200.379 93.3656C200.303 93.3942 200.224 93.4069 200.144 93.4101C200.224 93.4069 200.303 93.391 200.379 93.3656ZM199.328 93.8165C199.287 93.9467 199.214 94.061 199.113 94.1594C199.214 94.0641 199.287 93.9498 199.328 93.8165Z" fill="#F7BB92"/>
<path d="M155.381 178.729C155.133 179.389 154.892 180.052 154.631 180.707C154.409 181.259 154.327 181.872 153.946 182.354C154.66 182.456 155.133 182.875 155.419 183.516C155.774 184.313 156.082 185.133 156.47 185.91C158.756 190.511 160.959 195.156 163.388 199.68C165.611 203.821 167.63 208.062 169.789 212.234C170.119 212.869 170.525 213.368 171.094 213.847C173.008 215.46 175.151 216.794 176.926 218.578C178.031 219.121 178.663 220.229 179.688 220.867C180.114 219.575 180.549 218.283 180.968 216.987C182.184 213.222 183.924 209.717 186.127 206.434C186.886 205.303 187.594 204.135 188.331 202.986C188.566 202.617 188.794 202.239 189.074 201.909C190.029 200.788 191.007 199.687 191.976 198.579C192.881 197.544 193.982 196.734 195.09 195.94C195.656 195.534 196.018 195.032 196.081 194.33C194.5 193.445 192.757 192.949 191.077 192.308C179.596 187.917 168.103 183.555 156.613 179.183C156.206 179.027 155.793 178.878 155.387 178.729H155.381Z" fill="#F7BB92"/>
<path d="M184.362 114.524C184.803 114.428 184.937 114.054 185.079 113.708C185.492 112.704 185.87 111.685 186.295 110.688C186.464 110.295 186.47 109.825 186.826 109.52C186.816 109.301 186.645 109.463 186.635 109.244C186.495 109.317 186.438 108.971 186.391 109.082C185.692 110.784 185.013 112.492 184.34 114.203C184.305 114.292 184.349 114.416 184.359 114.524H184.362Z" fill="#D8A47F"/>
<path d="M149.98 116.568C150.005 116.435 150.065 116.302 150.17 116.184C150.764 115.514 151.126 114.727 151.548 113.962C151.707 113.679 151.885 113.384 152.123 113.171C152.24 113.066 152.348 112.955 152.45 112.841C152.805 112.301 153.19 111.714 153.596 111.092C153.631 111.025 153.666 110.961 153.698 110.895C153.945 110.412 154.18 109.853 154.587 109.539C154.609 109.523 154.625 109.504 154.644 109.485C155.012 108.92 155.393 108.333 155.78 107.732C155.853 107.602 155.933 107.478 156.022 107.358C159.774 101.544 164.261 94.3974 166.347 90.3334C166.347 90.327 167.274 85.2851 168.109 79.6558C168.103 79.5669 168.122 79.4717 168.15 79.3701C168.658 75.9189 169.125 72.274 169.319 69.4514C169.319 69.4514 170.373 60.482 174.249 57.4022C174.643 56.9292 175.151 56.5545 175.627 56.164C177.443 54.6654 179.38 53.3382 181.688 52.7032C183.003 52.3413 184.327 52.0142 185.689 51.8714C187.505 51.684 189.264 52.2428 191.064 52.2587C191.325 52.2587 191.588 52.4048 191.842 52.5032C192.709 52.8397 193.579 53.1636 194.43 53.5351C195.23 53.8875 195.944 54.3637 196.627 54.9384C197.459 55.6401 198.303 56.3227 199.113 57.0562C200.234 58.0753 200.291 57.9166 201.269 59.0786C201.564 58.9707 201.862 58.8691 202.161 58.7675C210.171 56.0179 215.705 55.4687 223.402 58.5802C232.654 62.3235 238.305 75.214 237.562 80.5068C237.543 81.7164 237.403 82.8721 237.086 84.0405C237.064 84.1199 237.048 84.2025 237.029 84.2818C236.686 86.7044 236.556 87.6251 236.556 87.6251L219.039 83.7389C219.017 83.7897 218.322 83.2023 217.264 84.8184C216.652 85.755 214.026 90.0159 207.562 92.2987C200.135 94.9245 190.944 99.0075 190.944 99.0075C190.813 99.179 190.096 99.4615 189.902 99.7282C189.626 99.5187 190.226 99.1885 190.391 98.9408C190.636 98.5757 190.744 98.2233 190.759 97.8709L190.613 96.9533C190.543 96.7501 190.451 96.5405 190.34 96.3278C189.67 95.0261 189.099 93.6703 188.613 92.2797C188.165 91.0001 187.632 89.746 187.054 88.5173C186.279 86.8663 185.879 85.1137 185.622 83.3389C185.517 82.6213 185.149 81.9323 185.432 81.1005C185.66 80.4306 185.292 79.6177 185.568 78.878C185.603 78.7827 185.584 78.6589 185.578 78.5509C185.457 76.5729 186.143 74.8076 186.997 73.0836C187.165 72.7439 187.267 72.3692 187.426 72.0263C187.724 71.3818 188 70.7214 188.565 70.242C188.648 70.1721 188.743 70.0991 188.791 70.0038C189.451 68.7275 190.524 67.7718 191.375 66.6478C192.388 65.308 193.534 64.2094 195.087 63.5332C196.087 63.095 197.049 62.568 198.027 62.0758C198.173 62.0028 198.322 61.9203 198.44 61.8091C198.503 61.7488 198.541 61.6123 198.522 61.5266C198.503 61.4408 198.408 61.3297 198.325 61.3075C197.948 61.2091 197.576 61.2535 197.195 61.3551C196.354 61.5805 195.506 61.7774 194.658 61.9838C193.436 62.2822 192.318 62.8093 191.255 63.4792C190.801 63.7649 190.391 64.1174 189.835 64.2761C189.381 64.4031 188.934 64.7047 188.591 65.0413C187.226 66.3748 185.724 67.5813 184.663 69.2069C184.247 69.8451 183.644 70.3848 183.336 71.0643C182.438 73.0423 181.514 74.9918 181.257 77.227C181.082 78.7541 181.037 80.2654 180.98 81.7895C180.933 83.0118 181.161 84.1739 181.526 85.3264C182.174 87.3584 182.908 89.3491 183.835 91.2732C184.686 93.0417 185.406 94.8737 186.197 96.6739C186.667 97.747 186.572 98.7154 186.054 99.8044C185.143 101.722 184.425 103.732 183.631 105.707C182.923 107.472 182.219 109.241 181.517 111.006L183.298 115.171C183.298 115.171 180.641 115.689 176.697 116.283C176.57 116.308 176.446 116.327 176.316 116.34C168.906 117.442 157.276 118.756 149.957 117.53V116.597C149.957 116.597 149.964 116.588 149.973 116.572L149.98 116.568Z" fill="#7A4821"/>
</svg>
