<svg width="500" height="500" viewBox="0 0 500 500" fill="none" xmlns="http://www.w3.org/2000/svg">
<path d="M227.352 271.012C232.112 269.546 236.676 267.611 241.045 265.22C241.348 265.054 241.659 264.908 241.973 264.768C245.845 263.048 249.612 261.116 253.301 259.045C255.744 257.673 258.221 256.327 260.524 254.741C263.036 253.012 265.731 251.561 268.105 249.629C268.523 249.289 269.014 249.04 269.471 248.752C270.594 248.046 271.766 247.409 272.737 246.48C272.772 246.446 272.812 246.414 272.855 246.391C275.278 245.068 277.369 243.242 279.744 241.845C280.678 241.297 281.561 240.676 282.413 240.002C283.064 239.485 283.787 239.051 284.502 238.622C285.39 238.09 286.242 237.522 287.056 236.876C287.822 236.264 288.677 235.764 289.511 235.241C290.302 234.744 291.083 234.241 291.806 233.638C292.368 233.17 293.011 232.793 293.637 232.404C294.852 231.652 296.003 230.815 297.155 229.967C298.895 228.684 300.692 227.475 302.475 226.246C303.176 225.766 303.987 225.523 304.801 225.337C305.904 225.086 307.022 224.906 308.128 224.68C308.753 224.552 309.391 224.446 309.988 224.234C311.665 223.646 313.405 223.3 315.14 222.963C317.56 222.497 319.923 221.828 322.261 221.065C322.961 220.837 323.647 220.554 324.355 220.357C327.261 219.545 329.985 218.285 332.691 216.988C336.151 215.325 339.592 213.619 343.055 211.967C353.142 207.161 363.172 202.237 373.167 197.248C373.87 196.897 374.585 196.568 375.15 196.002C374.327 194.805 373.736 193.456 372.793 192.336C372.31 193.102 371.987 193.173 371.561 192.539C370.913 191.573 370.433 190.519 370.158 189.381C370.087 189.09 370.167 188.801 370.464 188.633C370.15 188.138 369.835 187.644 369.518 187.15C369.424 187.17 369.315 187.167 369.235 187.213C368.432 187.673 368.452 187.661 367.949 186.978C367.572 186.467 367.261 185.921 367.021 185.338C366.704 184.575 366.429 183.792 366.649 182.943C366.526 182.675 366.401 182.403 366.278 182.135C366.081 181.923 365.886 181.712 365.689 181.498C365.601 181.669 365.526 181.855 365.418 182.015C365.155 182.395 364.866 182.406 364.638 182.029C364.058 181.072 363.54 180.083 363.135 179.04C362.989 178.666 362.94 178.274 363.349 177.994C363.28 177.588 363.029 177.283 362.757 177.003C361.397 175.608 360.066 174.182 358.583 172.914C357.528 173.322 356.494 173.802 355.411 174.125C354.088 174.519 352.796 174.991 351.516 175.502C350.739 175.814 349.95 176.094 349.164 176.374C346.244 177.417 343.323 178.451 340.403 179.494C340.08 179.612 339.772 179.772 339.449 179.894C336.923 180.866 334.314 181.606 331.831 182.692C331.742 182.732 331.636 182.726 331.545 182.761C328.487 183.855 325.418 184.921 322.381 186.067C321.229 186.501 320.072 186.918 318.909 187.321C316.309 188.224 313.72 189.158 311.125 190.087C310.848 190.187 310.588 190.333 310.311 190.439C309.439 190.779 308.565 191.099 307.679 191.402C304.699 192.422 301.75 193.522 298.786 194.596C298.649 194.648 298.521 194.725 298.384 194.779C297.143 195.259 295.912 195.756 294.663 196.211C292.351 197.051 290.031 197.871 287.714 198.694C286.136 199.254 284.559 199.806 282.982 200.366C281.821 200.777 280.65 201.157 279.513 201.62C276.412 202.88 273.335 204.189 270.237 205.452C267.868 206.418 265.485 207.352 263.105 208.287C262.602 208.484 262.082 208.718 261.559 208.752C260.742 208.804 260.036 209.107 259.31 209.418C258.767 209.65 258.213 209.864 257.65 210.033C255.855 210.575 254.121 211.273 252.403 212.016C252.043 212.173 251.675 212.321 251.298 212.433C248.129 213.359 245.162 214.847 242.011 215.828C240.605 216.265 239.259 216.893 237.876 217.411C234.65 218.617 231.412 219.797 228.192 221.014C226.857 221.52 225.571 222.157 224.188 222.531C223.088 222.828 222.051 223.274 221.019 223.74C219.988 224.206 218.945 224.64 217.845 224.926C217.745 225.286 217.53 225.306 217.245 225.132C217.059 225.174 216.876 225.217 216.69 225.257C216.59 225.612 216.436 225.937 216.145 226.177C216.793 226.769 217.442 227.36 218.09 227.952C218.605 228.421 219.031 228.952 219.311 229.592C220.159 231.527 220.928 233.478 221.194 235.602C221.317 236.579 221.417 237.525 221.268 238.516C221.074 239.811 220.591 240.962 219.939 242.068C220.479 244.045 221.017 246.026 221.557 248.003C222.108 250.029 222.662 252.052 223.214 254.078C224.14 257.47 225.063 260.862 225.986 264.257C226.509 266.188 227.017 268.123 227.555 270.052C227.66 270.435 227.512 270.715 227.337 271.009L227.352 271.012Z" fill="#6A6D66"/>
<path d="M219.953 242.07C220.605 240.965 221.088 239.81 221.282 238.519C221.43 237.524 221.33 236.581 221.208 235.604C220.942 233.481 220.173 231.526 219.324 229.595C219.044 228.954 218.616 228.423 218.104 227.954C217.456 227.363 216.807 226.771 216.158 226.18C215.641 226.231 215.184 226.054 214.77 225.777C214.321 225.48 213.884 225.16 213.452 224.837C211.649 223.485 209.943 222.011 208.037 220.793C207.712 220.585 207.414 220.302 207.174 219.999C205.374 217.716 203.914 215.207 202.614 212.627C201.645 210.706 200.951 208.646 200.119 206.657C199.25 204.574 198.425 202.468 197.467 200.428C196.256 197.848 194.93 195.324 193.77 192.718C193.324 191.715 192.955 190.718 193.084 189.598C192.781 189.504 192.601 189.304 192.495 188.998C192.287 188.395 192.038 187.806 191.821 187.206C191.229 185.583 191.215 185.955 192.372 185.066C192.841 184.706 193.287 184.317 193.887 184.194C194.127 183.952 194.344 183.677 194.613 183.469C197.302 181.403 199.976 179.311 202.705 177.299C206.503 174.499 210.343 171.753 214.172 168.995C216.087 167.615 218.021 166.269 220.076 165.092C221.396 164.335 222.679 163.503 223.925 162.629C225.414 161.583 226.837 160.449 228.3 159.366C229.76 158.283 231.26 157.248 232.689 156.125C233.692 155.337 234.689 154.514 235.541 153.571C237.464 151.442 238.381 148.89 238.364 146.015C238.358 145.278 238.261 144.541 238.284 143.804C238.338 142.003 237.701 140.437 236.744 138.966C236.504 138.597 236.215 138.249 236.175 137.783C235.226 136.868 234.295 135.937 233.326 135.04C232.178 133.977 230.963 132.959 229.5 132.388C226.905 131.379 224.257 130.539 221.41 130.696C221.119 130.713 220.825 130.696 220.53 130.691C220.305 130.785 220.087 130.928 219.853 130.971C218.719 131.171 217.687 131.631 216.701 132.194C215.633 132.802 214.572 133.428 213.535 134.088C212.064 135.023 210.912 136.311 209.766 137.603C208.072 139.515 206.537 141.575 204.488 143.149C204.294 143.298 204.131 143.489 203.951 143.658C201.837 145.65 199.751 147.673 197.599 149.622C195.081 151.902 192.578 154.194 190.104 156.52C188.312 158.203 186.477 159.846 184.611 161.446C182.406 163.338 180.36 165.401 178.162 167.295C176.779 168.487 175.459 169.733 174.182 171.033C173.593 171.63 173.061 172.27 172.539 172.927C172.104 173.476 171.781 174.082 171.541 174.728C171.007 176.159 170.578 177.619 170.407 179.145C170.375 179.437 170.353 179.74 170.401 180.028C170.681 181.723 170.944 183.423 171.29 185.106C171.496 186.115 171.776 187.109 172.233 188.049C173.501 190.661 174.707 193.304 176.008 195.899C177.639 199.154 179.348 202.374 181.011 205.611C181.394 206.354 181.745 207.115 182.1 207.875C182.363 208.438 182.411 208.992 182.028 209.546C181.694 210.032 181.468 210.604 181.085 211.038C180.522 211.681 180.145 212.418 179.771 213.164C179.528 213.65 179.231 214.093 178.905 214.53C178.505 215.07 177.965 215.561 177.936 216.313C180.88 217.084 183.817 217.87 186.766 218.616C187.58 218.822 188.161 219.196 188.558 219.97C189.163 221.148 189.929 222.242 190.527 223.422C191.415 225.185 192.864 226.44 194.273 227.731C194.704 228.126 195.287 228.317 195.833 228.543C197.559 229.252 199.285 229.957 200.988 230.718C203.642 231.901 205.831 233.644 207.494 236.072C208.769 237.933 210.175 239.707 211.558 241.49C212.038 242.108 212.635 242.633 213.161 243.216C213.698 243.808 214.364 244.045 215.144 243.973C215.633 243.928 216.118 243.851 216.604 243.785C216.99 243.388 217.527 243.265 217.999 243.028C218.647 242.702 219.304 242.39 219.956 242.073L219.953 242.07Z" fill="#F7BB92"/>
<path d="M368.064 154.334C366.869 153.245 365.689 152.137 364.469 151.079C363.946 150.628 363.386 150.208 362.986 149.648C361.76 147.925 360.054 146.893 358.091 146.285C355.934 145.619 353.705 145.25 351.476 144.864C348.976 144.43 346.473 144.616 343.969 144.57C341.435 144.524 339 145.07 336.58 145.756C335.308 146.116 334.002 146.359 332.708 146.627C328.479 147.502 324.244 148.353 320.018 149.228C315.069 150.254 310.111 151.254 305.176 152.34C301.293 153.194 297.432 154.154 293.569 155.094C293.017 155.229 292.526 155.229 291.988 155.048C289.611 154.251 287.174 153.665 284.753 153.025C280.29 151.845 275.832 150.642 271.369 149.468C265.099 147.816 258.816 146.225 252.561 144.527C248.723 143.484 244.84 142.601 241.045 141.401C240.819 141.33 240.559 141.364 240.313 141.35C240.431 141.927 240.551 142.501 240.662 143.078C241.002 144.861 241.276 146.659 241.694 148.422C242.979 153.865 244.188 159.323 245.128 164.838C245.211 165.327 245.354 165.796 245.714 166.164C246.177 166.13 246.574 166.341 246.98 166.513C249.832 167.716 252.821 168.182 255.895 168.213C256.878 168.222 257.878 168.164 258.844 168.31C261.462 168.707 264.068 169.193 266.674 169.656C267.737 169.845 268.788 170.122 269.857 170.262C272.832 170.653 275.729 171.422 278.67 171.991C281.947 172.625 285.168 173.517 288.488 173.951C289.997 174.148 291.42 173.925 292.849 173.617C294.237 173.314 295.592 172.848 296.972 172.494C300.112 171.685 303.173 170.602 306.327 169.828C309.094 169.147 311.845 168.422 314.637 167.842C316.32 167.493 318.023 167.256 319.709 166.941C323.087 166.313 326.459 165.653 329.828 164.984C332.285 164.495 334.737 163.981 337.126 163.218C340.032 162.292 342.995 161.598 345.958 160.892C347.358 160.558 348.779 160.515 350.207 160.552C350.659 160.563 351.076 160.689 351.502 160.809C351.868 160.912 352.108 161.118 352.256 161.452C352.376 161.721 352.51 161.987 352.605 162.267C352.953 163.301 353.476 164.241 354.076 165.15C355.159 166.79 356.194 168.464 357.397 170.025C357.905 170.685 358.371 171.379 358.857 172.059C359.48 172.031 360.006 172.276 360.483 172.648C360.714 172.828 360.917 173.082 361.18 173.182C362.72 173.765 363.74 174.911 364.698 176.185C365.349 177.048 365.952 177.94 366.547 178.837C367.018 179.546 367.661 180.077 368.25 180.663C368.43 180.84 368.661 180.932 368.915 180.935C369.701 180.937 370.49 180.957 371.276 180.929C371.836 180.909 372.313 180.643 372.719 180.266C373.007 179.997 373.287 179.72 373.556 179.434C374.576 178.357 375.113 177.074 375.145 175.588C375.182 173.768 374.828 171.994 374.57 170.202C374.133 167.159 373.113 164.293 371.747 161.584C370.758 159.621 369.85 157.583 368.467 155.84C368.092 155.369 368.032 154.874 368.061 154.326L368.064 154.334Z" fill="#F7BB92"/>
<path d="M245.711 166.169C245.351 165.801 245.208 165.332 245.125 164.843C244.185 159.328 242.976 153.871 241.69 148.427C241.273 146.664 241.002 144.864 240.659 143.083C240.547 142.506 240.427 141.932 240.31 141.355C239.493 140.34 238.678 139.323 237.855 138.311C237.613 138.011 237.347 137.728 237.09 137.437C236.781 137.551 236.47 137.668 236.161 137.783C236.201 138.249 236.492 138.597 236.73 138.966C237.687 140.44 238.321 142.003 238.27 143.804C238.247 144.538 238.347 145.278 238.35 146.015C238.367 148.89 237.447 151.442 235.527 153.57C234.675 154.513 233.678 155.336 232.675 156.125C231.246 157.248 229.746 158.28 228.286 159.366C226.825 160.449 225.4 161.583 223.911 162.629C222.665 163.503 221.382 164.335 220.062 165.092C218.01 166.269 216.076 167.615 214.158 168.995C210.329 171.753 206.489 174.499 202.691 177.299C199.962 179.311 197.29 181.403 194.599 183.469C194.33 183.674 194.113 183.951 193.873 184.194C194.193 184.76 194.513 185.326 194.833 185.895C195.201 186.032 195.57 186.166 195.936 186.303C206.277 190.238 216.618 194.164 226.954 198.116C228.466 198.693 230.034 199.139 231.457 199.936C232.152 199.962 232.806 199.834 233.472 199.599C236.984 198.35 239.904 196.227 242.439 193.553C243.488 192.447 244.462 191.252 244.971 189.778C245.405 188.524 245.816 187.26 246.148 185.977C246.502 184.597 246.794 183.191 246.765 181.757C246.708 178.957 246.617 176.153 246.534 173.353C246.522 173.01 246.468 172.667 246.428 172.327C246.188 170.278 245.945 168.227 245.705 166.178L245.711 166.169Z" fill="#8A8AD9"/>
<path d="M182.626 404.254C182.566 404.591 182.443 404.928 182.454 405.263C182.563 408.706 182.106 412.135 182.169 415.575C182.186 416.51 182.18 417.447 182.143 418.381C182.094 419.719 182.266 421.01 182.634 422.305C183.306 424.665 184.926 426.722 187.152 427.794C187.546 427.985 187.878 428.268 188.318 428.408C189.401 428.751 190.473 429.031 191.633 428.98C193.204 428.908 194.799 429.077 196.35 428.88C198.151 428.651 199.982 428.82 201.763 428.394C202.091 428.317 202.448 428.357 202.791 428.346C203.331 428.328 203.874 428.363 204.397 428.171C204.577 428.105 204.783 428.068 204.974 428.077C207.14 428.163 209.275 427.645 211.444 427.737C212.227 427.771 213.004 427.697 213.787 427.554C214.601 427.405 215.453 427.48 216.29 427.454C217.024 427.434 217.759 427.474 218.482 427.24C218.799 427.137 219.165 427.16 219.508 427.174C220.902 427.231 222.231 426.865 223.568 426.562C224.257 426.408 224.797 425.957 225.306 425.499C226.083 424.802 226.609 423.936 227.037 422.973C227.506 421.922 227.64 420.807 227.863 419.71C228.074 418.656 227.754 417.621 227.257 416.73C226.514 415.39 225.474 414.307 224.054 413.578C221.834 412.441 219.671 411.198 217.485 409.995C216.627 409.523 215.776 409.049 214.924 408.572C214.241 408.186 213.564 407.789 212.881 407.403C210.841 406.246 208.801 405.085 206.752 403.945C206.546 403.831 206.277 403.825 206.043 403.768C204.974 403.702 203.911 403.7 202.831 403.748C200.034 403.877 197.233 403.985 194.433 404.077C190.841 404.197 187.246 404.145 183.652 404.174C183.312 404.174 182.972 404.225 182.629 404.254H182.626Z" fill="#F7BC94"/>
<path d="M369.527 187.146C369.841 187.641 370.155 188.135 370.47 188.629C371.458 189.73 372.219 190.975 372.799 192.333C373.742 193.453 374.333 194.802 375.156 195.999C375.573 196.088 375.928 195.907 376.279 195.727C378.508 194.576 380.808 193.564 382.954 192.256C383.08 192.178 383.234 192.138 383.34 192.041C385.106 190.418 387.098 189.021 388.295 186.841C388.944 185.658 389.349 184.412 389.586 183.097C389.629 182.857 389.626 182.603 389.595 182.36C389.355 180.411 389.104 178.468 388.212 176.668C386.852 173.925 385.254 171.344 383.211 169.053C382.068 167.77 380.985 166.432 379.837 165.152C378.422 163.578 376.925 162.089 375.29 160.732C374.31 159.917 373.447 158.96 372.516 158.083C372.127 157.717 371.833 157.234 371.29 157.045C371.307 157.34 371.31 157.637 371.498 157.888C372.113 158.714 372.719 159.546 373.342 160.366C374.485 161.875 375.219 163.572 375.762 165.372C376.288 167.112 376.639 168.89 376.862 170.681C377.036 172.084 377.353 173.485 377.233 174.922C377.179 175.556 377.213 176.202 377.228 176.842C377.262 178.662 376.525 180.063 374.987 181.043C374.407 181.411 373.827 181.783 373.276 182.191C372.63 182.666 371.976 183.08 371.133 183.043C369.855 183.603 368.721 183.229 367.684 182.46C367.244 182.134 366.784 182.117 366.289 182.126C366.412 182.394 366.538 182.666 366.661 182.934C366.812 183.052 367.015 183.14 367.112 183.292C367.929 184.566 368.727 185.855 369.53 187.141L369.527 187.146Z" fill="#F7BB92"/>
<path d="M220.908 127.816C221.514 126.276 222.125 124.739 222.754 123.207C222.794 123.107 222.997 123.07 223.123 123.004C223.271 122.796 223.348 122.567 223.325 122.307C223.2 121.918 223.257 121.621 223.714 121.527C223.863 121.318 223.94 121.09 223.914 120.83C223.788 120.441 223.846 120.144 224.303 120.049C224.523 119.792 224.674 119.509 224.654 119.158C224.386 118.789 224.408 118.735 224.897 118.569C225.046 118.361 225.12 118.132 225.097 117.875C224.969 117.483 225.026 117.186 225.489 117.092C225.637 116.883 225.711 116.655 225.689 116.395C225.563 116.003 225.62 115.706 226.083 115.612C226.3 115.355 226.452 115.069 226.434 114.717C226.186 114.529 226.212 114.297 226.36 114.074C226.894 113.277 226.734 112.54 226.314 111.726C225.711 110.554 225.197 109.334 224.76 108.082C224.357 106.931 223.877 105.802 223.357 104.696C222.66 103.21 222.3 101.633 222.068 100.035C221.974 99.3897 221.642 98.7696 221.897 98.021C222.102 97.418 221.771 96.6865 222.02 96.0207C222.051 95.935 222.034 95.8235 222.028 95.7264C221.92 93.9461 222.537 92.3574 223.305 90.8057C223.457 90.5 223.548 90.1628 223.691 89.8542C223.96 89.2741 224.208 88.6798 224.717 88.2483C224.791 88.1854 224.877 88.1197 224.92 88.034C225.514 86.8853 226.48 86.0251 227.246 85.0136C228.157 83.8077 229.189 82.819 230.586 82.2104C231.486 81.816 232.352 81.3417 233.232 80.8988C233.364 80.8331 233.498 80.7588 233.604 80.6587C233.661 80.6045 233.695 80.4816 233.678 80.4044C233.661 80.3273 233.575 80.2273 233.501 80.2073C233.161 80.1187 232.827 80.1587 232.484 80.2501C231.727 80.453 230.964 80.6302 230.201 80.8159C229.1 81.0845 228.095 81.5589 227.137 82.1618C226.729 82.419 226.36 82.7362 225.86 82.879C225.451 82.9933 225.049 83.2648 224.74 83.5677C223.511 84.7678 222.16 85.8537 221.205 87.3167C220.831 87.8911 220.288 88.3769 220.011 88.9884C219.202 90.7686 218.371 92.5231 218.139 94.5348C217.982 95.9093 217.942 97.2694 217.89 98.641C217.848 99.7412 218.053 100.787 218.382 101.824C218.965 103.65 219.625 105.445 220.459 107.176C221.225 108.768 221.874 110.417 222.585 112.037C223.008 113.003 222.923 113.874 222.457 114.855C221.637 116.58 220.991 118.389 220.276 120.167C219.382 122.398 218.491 124.633 217.602 126.867C217.348 127.505 217.025 128.119 217.022 128.831C217.116 128.865 217.21 128.899 217.305 128.933C218.196 128.851 219.085 128.771 219.976 128.688" fill="#5D3718"/>
<path d="M219.954 242.071C219.302 242.388 218.645 242.697 217.996 243.025C217.525 243.262 216.988 243.385 216.602 243.782C217.11 246.371 217.636 248.954 218.125 251.546C218.559 253.849 218.954 256.161 219.374 258.467C219.591 259.67 219.819 260.87 220.054 262.068C220.411 263.888 220.779 265.708 221.134 267.528C221.434 269.063 221.725 270.597 222.005 272.135C222.057 272.42 222.037 272.72 222.051 273.015C222.131 272.935 222.208 272.852 222.288 272.772C222.34 272.6 222.46 272.552 222.623 272.583C224.2 272.057 225.774 271.534 227.352 271.009C227.526 270.714 227.678 270.434 227.569 270.051C227.032 268.123 226.523 266.188 226 264.256C225.08 260.865 224.154 257.473 223.228 254.078C222.677 252.052 222.123 250.029 221.571 248.003C221.031 246.026 220.494 244.045 219.954 242.068V242.071Z" fill="#454742"/>
<path d="M238.384 132.866C238.301 132.346 237.979 131.974 237.604 131.646C236.57 130.743 235.561 129.811 234.484 128.963C233.178 127.934 231.815 126.982 230.472 125.999C230.275 125.856 230.072 125.705 229.852 125.611C228.812 125.174 227.769 124.745 226.717 124.331C225.983 124.042 225.228 123.816 224.42 123.902C223.96 123.951 223.551 123.768 223.142 123.596C222.822 123.871 222.817 124.293 222.665 124.648C222.282 125.545 221.942 126.462 221.571 127.365C221.442 127.677 221.199 127.44 220.613 128.091C220.533 128.463 220.528 128.625 220.236 128.785C220.279 129.428 220.659 130.02 220.519 130.689C220.813 130.689 221.108 130.709 221.399 130.694C224.248 130.534 226.897 131.374 229.489 132.386C230.955 132.957 232.166 133.975 233.315 135.038C234.281 135.932 235.215 136.864 236.164 137.781C236.473 137.667 236.784 137.549 237.093 137.435C237.058 136.329 237.584 135.381 237.953 134.392C238.139 133.892 238.356 133.409 238.384 132.866Z" fill="#D8A47F"/>
<path d="M366.287 182.132C366.781 182.12 367.241 182.138 367.681 182.466C368.718 183.235 369.853 183.609 371.13 183.049C371.973 183.086 372.627 182.672 373.273 182.198C373.828 181.792 374.405 181.42 374.985 181.049C376.522 180.069 377.259 178.669 377.225 176.848C377.214 176.208 377.179 175.565 377.231 174.928C377.351 173.491 377.034 172.091 376.859 170.687C376.636 168.896 376.285 167.118 375.759 165.378C375.216 163.578 374.482 161.881 373.339 160.372C372.719 159.552 372.11 158.72 371.496 157.894C371.307 157.64 371.304 157.346 371.287 157.051C370.447 156.16 369.57 155.306 368.601 154.551C368.455 154.437 368.244 154.405 368.064 154.334C368.035 154.883 368.095 155.377 368.47 155.848C369.856 157.592 370.764 159.629 371.75 161.592C373.116 164.304 374.136 167.167 374.573 170.21C374.831 171.999 375.185 173.776 375.148 175.597C375.116 177.08 374.579 178.366 373.559 179.443C373.288 179.729 373.007 180.006 372.722 180.274C372.316 180.654 371.839 180.92 371.279 180.937C370.493 180.966 369.704 180.946 368.918 180.943C368.664 180.943 368.43 180.852 368.253 180.672C367.661 180.086 367.021 179.554 366.55 178.846C365.952 177.948 365.349 177.057 364.701 176.194C363.741 174.919 362.72 173.774 361.183 173.191C360.92 173.091 360.72 172.836 360.486 172.656C360.009 172.285 359.483 172.039 358.86 172.068C358.771 172.351 358.68 172.631 358.591 172.913C360.077 174.182 361.406 175.605 362.766 177.003C363.038 177.28 363.289 177.586 363.358 177.994C364.341 179.026 365.081 180.223 365.701 181.5C365.898 181.712 366.092 181.923 366.289 182.138L366.287 182.132Z" fill="#DDA882"/>
<path d="M222.062 274.058C221.616 274.529 221.648 275.023 221.994 275.532C222.211 275.049 222.242 274.558 222.062 274.058Z" fill="#8D8F89"/>
<path d="M171.478 236.819C171.899 236.345 171.876 235.853 171.53 235.35C171.307 235.833 171.298 236.322 171.478 236.819Z" fill="#8D8F89"/>
<path d="M171.522 243.02C171.888 242.608 171.876 242.217 171.468 241.839C171.265 242.242 171.313 242.634 171.522 243.02Z" fill="#8D8F89"/>
<path d="M171.828 246.86C172.153 246.542 172.116 246.251 171.768 245.979C171.588 246.288 171.625 246.58 171.828 246.86Z" fill="#8D8F89"/>
<path d="M220.239 128.788C220.531 128.628 220.839 128.488 220.917 128.114C220.412 128.076 220.096 128.265 219.971 128.682C220.059 128.717 220.148 128.751 220.236 128.785L220.239 128.788Z" fill="#D8A47F"/>
<path d="M172.116 249.52C172.39 249.3 172.338 249.106 172.064 248.934C171.907 249.146 171.941 249.34 172.116 249.52Z" fill="#8D8F89"/>
<path d="M172.713 253.066C173.042 252.809 172.893 252.618 172.625 252.446C172.51 252.675 172.55 252.878 172.713 253.066Z" fill="#8D8F89"/>
<path d="M173.999 258.261C174.167 257.929 174.107 257.661 173.773 257.472C173.673 257.784 173.784 258.038 173.999 258.261Z" fill="#8D8F89"/>
<path d="M179.923 278.95C180.057 278.653 180.031 278.392 179.743 278.195C179.566 278.504 179.686 278.741 179.923 278.95Z" fill="#8D8F89"/>
<path d="M171.759 233.898C172.016 233.724 172.162 233.532 171.839 233.284C171.679 233.472 171.65 233.675 171.759 233.898Z" fill="#8D8F89"/>
<path d="M171.479 236.819C171.899 236.345 171.876 235.853 171.53 235.35C171.499 234.85 171.567 234.364 171.756 233.899C172.013 233.724 172.159 233.533 171.836 233.284C172.422 229.909 173.356 226.62 174.456 223.383C175.305 220.883 176.342 218.457 177.931 216.313C180.874 217.085 183.812 217.874 186.76 218.617C187.575 218.822 188.155 219.197 188.552 219.971C189.158 221.148 189.924 222.243 190.521 223.423C191.41 225.186 192.858 226.44 194.267 227.732C194.699 228.126 195.282 228.318 195.827 228.544C197.553 229.252 199.279 229.958 200.982 230.718C203.637 231.901 205.826 233.644 207.489 236.073C208.763 237.933 210.169 239.708 211.552 241.491C212.032 242.108 212.63 242.634 213.155 243.217C213.693 243.808 214.358 244.046 215.138 243.974C215.627 243.928 216.113 243.851 216.599 243.786C217.107 246.374 217.633 248.96 218.122 251.552C218.556 253.855 218.95 256.167 219.37 258.473C219.588 259.676 219.816 260.876 220.05 262.074C220.408 263.894 220.776 265.714 221.131 267.534C221.431 269.069 221.722 270.603 222.002 272.141C222.054 272.426 222.034 272.726 222.048 273.021C222.282 273.366 222.105 273.712 222.059 274.061C221.614 274.532 221.645 275.027 221.991 275.535C222.051 276.63 221.865 277.71 221.754 278.793C221.968 279.39 221.948 279.979 221.699 280.562C221.719 281.948 221.645 283.331 221.456 284.705C221.645 285.108 221.599 285.499 221.391 285.879C221.459 287.465 221.336 289.043 221.162 290.617C221.399 291.312 221.331 292 221.096 292.68C221.131 293.675 221.071 294.663 220.873 295.641C221.056 295.949 221.013 296.244 220.811 296.524C220.853 297.327 220.685 298.107 220.571 298.893C220.745 299.295 220.713 299.687 220.505 300.07C220.425 300.959 220.345 301.85 220.265 302.739C220.428 302.947 220.396 303.142 220.222 303.325C220.233 303.919 220.196 304.505 219.99 305.07C220.108 305.293 220.076 305.499 219.913 305.688C219.842 306.182 219.77 306.674 219.699 307.168C219.888 307.671 219.862 308.162 219.61 308.639C219.539 309.234 219.47 309.825 219.399 310.42C219.579 310.731 219.528 311.025 219.325 311.303C219.362 311.911 219.227 312.494 219.093 313.08C219.279 313.563 219.262 314.014 218.893 314.415C218.873 314.56 218.856 314.703 218.836 314.849C218.976 315.072 218.982 315.323 218.922 315.56C218.53 317.058 218.622 318.586 218.613 320.11C218.61 320.95 218.57 321.781 218.256 322.573C218.053 323.087 218.047 323.63 218.039 324.17C218.022 325.15 218.084 326.139 217.587 327.053C217.476 327.256 217.439 327.533 217.456 327.77C217.596 329.711 216.644 331.517 216.764 333.454C216.773 333.594 216.704 333.743 216.647 333.88C216.259 334.8 216.193 335.789 216.076 336.757C215.981 337.54 215.899 338.315 215.624 339.06C215.524 339.332 215.481 339.635 215.464 339.929C215.401 341.006 215.401 342.087 214.938 343.107C214.804 343.401 214.856 343.784 214.838 344.127C214.796 345.01 214.801 345.89 214.387 346.719C214.241 347.01 214.25 347.387 214.233 347.727C214.19 348.61 214.201 349.49 213.778 350.319C213.63 350.608 213.632 350.988 213.621 351.328C213.581 352.359 213.638 353.402 213.107 354.348C213.098 355.928 212.65 357.44 212.427 358.986C212.301 359.857 212.289 360.743 211.967 361.581C211.881 361.806 211.807 362.058 211.812 362.295C211.864 364.478 210.886 366.518 210.921 368.699C210.921 368.839 210.875 368.996 210.804 369.121C210.404 369.844 210.432 370.636 210.386 371.422C210.358 371.91 210.406 372.465 210.189 372.865C209.812 373.562 209.818 374.282 209.786 375.011C209.749 375.845 209.775 376.68 209.361 377.457C209.229 377.703 209.212 378.028 209.203 378.317C209.169 379.3 209.189 380.28 208.712 381.197C208.583 381.443 208.586 381.774 208.589 382.066C208.603 383.06 208.503 384.029 208.103 384.952C208.063 386.672 207.577 388.33 207.38 390.024C207.3 390.707 207.28 391.401 207.066 392.053C206.757 392.999 206.694 393.976 206.549 394.945C206.489 395.331 206.466 395.733 206.337 396.096C206.069 396.851 205.986 397.625 205.963 398.414C205.946 398.951 205.992 399.505 205.726 400.003C205.36 400.683 205.394 401.426 205.354 402.163C205.329 402.597 205.457 402.923 205.832 403.166C206.043 403.303 206.209 403.489 206.034 403.772C204.966 403.706 203.903 403.703 202.823 403.752C200.025 403.88 197.225 403.989 194.424 404.08C190.832 404.2 187.238 404.149 183.643 404.177C183.303 404.177 182.963 404.229 182.62 404.257C182.417 404.194 182.266 404.072 182.269 403.849C182.283 402.717 182.2 401.568 182.357 400.457C182.509 399.374 182.529 398.302 182.537 397.222C182.563 394.167 182.397 391.101 182.643 388.067C182.886 385.061 182.769 382.069 182.831 379.071C182.866 377.397 182.869 375.722 182.889 374.048C182.891 373.702 182.854 373.345 182.934 373.016C183.237 371.802 183.157 370.57 183.163 369.341C183.174 366.73 183.166 364.121 183.177 361.509C183.177 361.018 183.157 360.509 183.277 360.04C183.449 359.357 183.46 358.677 183.472 357.989C183.546 353.465 183.394 348.945 183.723 344.415C183.974 340.935 183.783 337.426 183.794 333.928C183.794 333.534 183.743 333.12 183.843 332.751C184.146 331.637 184.092 330.505 184.094 329.376C184.1 327.11 184.089 324.844 184.063 322.578C184.043 320.904 184.017 319.229 183.743 317.572C183.583 316.603 183.3 315.649 183.217 314.675C183.037 312.52 182.926 310.357 182.834 308.194C182.797 307.302 182.674 306.433 182.506 305.562C182.251 304.262 182.066 302.953 181.974 301.627C181.794 299.084 181.926 296.507 181.166 294.023C181.137 293.932 181.134 293.829 181.134 293.729C181.106 291.957 180.745 290.211 180.757 288.434C180.768 286.314 180.491 284.219 180.051 282.142C179.86 281.239 179.765 280.299 180.008 279.373C180.065 279.404 180.114 279.441 180.157 279.481C180.114 279.441 180.063 279.407 180.008 279.373C179.98 279.233 179.951 279.09 179.923 278.95C180.057 278.653 180.031 278.393 179.742 278.196C178.948 275.258 178.228 272.301 177.445 269.36C176.699 266.557 175.945 263.771 174.89 261.065C174.533 260.153 174.165 259.236 174.002 258.259C174.17 257.927 174.11 257.659 173.776 257.47C173.256 256.041 172.956 254.561 172.716 253.067C173.044 252.81 172.896 252.618 172.627 252.447C172.364 251.489 172.219 250.509 172.119 249.521C172.393 249.301 172.342 249.106 172.067 248.935C171.927 248.249 171.796 247.563 171.83 246.86C172.156 246.543 172.119 246.252 171.77 245.98C171.619 245 171.481 244.017 171.524 243.02C171.89 242.608 171.879 242.217 171.47 241.84C171.416 240.165 171.299 238.493 171.481 236.819H171.479ZM180.428 279.902C180.391 279.799 180.343 279.699 180.274 279.607C180.343 279.696 180.391 279.796 180.428 279.902Z" fill="#696C65"/>
<path d="M215.836 129.234C215.596 129.165 215.376 129.179 215.202 129.385C215.453 129.499 215.653 129.405 215.836 129.234Z" fill="#B1937C"/>
<path d="M222.623 272.586C222.457 272.554 222.337 272.603 222.288 272.774C222.451 272.8 222.551 272.714 222.623 272.586Z" fill="#8D8F89"/>
<path d="M216.702 225.256C216.787 224.776 216.807 224.293 216.713 223.813C215.793 223.239 215.221 222.242 214.227 221.753C212.63 220.15 210.701 218.95 208.978 217.495C208.466 217.064 208.098 216.615 207.803 216.044C205.86 212.289 204.043 208.474 202.043 204.745C199.857 200.673 197.874 196.493 195.816 192.352C195.468 191.649 195.19 190.912 194.87 190.198C194.613 189.62 194.187 189.243 193.544 189.152C193.387 189.3 193.233 189.446 193.076 189.595C192.947 190.715 193.313 191.709 193.762 192.715C194.922 195.321 196.248 197.847 197.459 200.425C198.419 202.465 199.242 204.571 200.111 206.654C200.943 208.646 201.637 210.703 202.606 212.623C203.909 215.204 205.369 217.713 207.166 219.996C207.406 220.299 207.703 220.582 208.029 220.79C209.932 222.007 211.641 223.485 213.444 224.834C213.876 225.156 214.31 225.476 214.761 225.774C215.179 226.051 215.633 226.228 216.15 226.177C216.442 225.934 216.596 225.611 216.696 225.256H216.702Z" fill="#DDA882"/>
<path d="M367.11 183.3C367.928 184.574 368.725 185.863 369.528 187.149C369.434 187.169 369.325 187.166 369.245 187.211C368.442 187.672 368.462 187.66 367.959 186.977C367.582 186.466 367.27 185.92 367.03 185.337C366.713 184.574 366.439 183.791 366.656 182.942C366.807 183.06 367.01 183.148 367.108 183.3H367.11Z" fill="#6A6D66"/>
<path d="M370.473 188.629C371.462 189.729 372.222 190.975 372.802 192.332C372.319 193.098 371.996 193.169 371.571 192.535C370.922 191.569 370.442 190.515 370.168 189.378C370.096 189.086 370.176 188.797 370.473 188.629Z" fill="#6A6D66"/>
<path d="M363.356 177.991C364.339 179.022 365.079 180.22 365.699 181.497C365.61 181.668 365.536 181.854 365.427 182.014C365.164 182.394 364.876 182.406 364.647 182.028C364.067 181.071 363.55 180.082 363.144 179.039C362.998 178.665 362.95 178.274 363.358 177.994L363.356 177.991Z" fill="#6A6D66"/>
<path d="M225.954 114.635C226.729 113.543 227.209 113.629 228.515 112.877C228.875 112.366 229.289 111.949 229.986 112.006C230.212 111.84 230.423 111.643 230.735 111.654C231.718 110.52 232.895 109.648 234.29 109.08C234.333 109.063 234.384 109.074 234.433 109.074C234.473 109.02 234.527 109 234.593 109.02C234.67 108.777 234.83 108.62 235.038 108.471C236.027 107.768 237.181 107.331 238.13 106.551C238.293 106.417 238.593 106.445 238.83 106.399L238.836 106.405C238.996 105.976 239.33 105.831 239.756 105.831C239.799 105.774 239.853 105.756 239.919 105.776C240.379 105.114 240.962 104.653 241.808 104.613C241.851 104.559 241.905 104.545 241.971 104.573C242.802 103.596 243.899 103.036 245.071 102.593C245.185 102.439 245.268 102.236 245.42 102.142C247.214 101.033 249.014 99.9328 250.826 98.8498C251.02 98.7327 251.298 98.7527 251.538 98.707L251.546 98.7127C252.006 97.9983 252.626 97.7754 253.426 98.1012C253.609 98.1755 253.798 98.2269 253.981 98.3012C258.036 99.9271 262.093 101.55 266.139 103.193C266.699 103.419 267.257 103.556 267.857 103.539C267.874 103.656 267.891 103.773 267.908 103.888C267.86 104.096 267.774 104.282 267.585 104.405C267.58 104.553 267.605 104.708 267.568 104.845C267.034 106.731 266.791 108.694 266.122 110.546C265.799 111.443 265.665 112.357 265.819 113.3C265.954 114.123 266.122 114.938 266.274 115.758C266.688 118.024 267.111 120.287 267.511 122.556C267.648 123.336 267.402 123.802 266.714 124.113C265.954 124.456 265.176 124.756 264.408 125.082C263.413 125.505 262.425 125.939 261.43 126.356C260.767 126.636 260.276 127.071 259.981 127.745C259.55 128.737 259.087 129.714 258.641 130.697C257.93 132.26 257.287 133.851 255.987 135.077C254.927 136.08 253.686 136.357 252.326 136.175C251.603 136.077 250.886 135.843 250.206 135.572C246.88 134.243 243.565 132.88 240.248 131.528C239.667 131.291 239.365 131.385 239.027 131.931C238.83 132.251 238.862 132.726 238.39 132.86C238.307 132.34 237.984 131.968 237.61 131.64C236.576 130.737 235.567 129.805 234.49 128.957C233.184 127.928 231.821 126.976 230.478 125.993C230.281 125.85 230.078 125.699 229.858 125.605C228.818 125.167 227.775 124.739 226.723 124.325C225.989 124.036 225.234 123.81 224.426 123.896C223.965 123.944 223.557 123.762 223.148 123.59C223.143 123.393 222.765 123.396 222.757 123.196C222.905 122.987 225.977 114.978 225.957 114.626L225.954 114.635ZM245.305 102.607C245.56 102.607 245.794 102.559 246.028 102.473C245.794 102.559 245.557 102.605 245.305 102.607ZM246.103 102.445C246.14 102.43 246.177 102.416 246.214 102.402C246.177 102.419 246.14 102.43 246.103 102.445ZM246.243 102.387C246.294 102.365 246.345 102.342 246.4 102.316C246.348 102.342 246.294 102.365 246.243 102.387ZM251.12 99.5614C251.209 99.5214 251.283 99.4699 251.346 99.4128C251.286 99.4699 251.209 99.5185 251.12 99.5614ZM245.274 102.61C245.217 102.61 245.157 102.605 245.097 102.599C245.157 102.605 245.217 102.607 245.274 102.61ZM245 103.005C245 103.005 244.997 103.022 244.994 103.028C244.994 103.019 244.997 103.01 245 103.005ZM239.562 106.331C239.499 106.391 239.416 106.417 239.279 106.422C239.416 106.419 239.499 106.391 239.562 106.331ZM235.341 109.063C235.273 109.088 235.201 109.1 235.13 109.103C235.201 109.1 235.273 109.085 235.341 109.063ZM234.395 109.468C234.358 109.585 234.293 109.688 234.201 109.777C234.293 109.691 234.358 109.588 234.395 109.468Z" fill="#F7BB92"/>
<path d="M194.842 185.889C194.619 186.484 194.402 187.081 194.168 187.669C193.968 188.167 193.894 188.718 193.551 189.152C194.194 189.244 194.619 189.621 194.877 190.198C195.197 190.916 195.474 191.653 195.822 192.353C197.88 196.493 199.863 200.674 202.049 204.746C204.049 208.472 205.867 212.29 207.81 216.044C208.107 216.616 208.473 217.065 208.984 217.496C210.707 218.948 212.636 220.148 214.233 221.754C215.228 222.242 215.796 223.24 216.719 223.814C217.102 222.651 217.494 221.488 217.871 220.322C218.965 216.933 220.531 213.778 222.514 210.824C223.197 209.806 223.835 208.755 224.497 207.721C224.709 207.389 224.915 207.049 225.166 206.752C226.026 205.743 226.906 204.752 227.778 203.754C228.592 202.823 229.584 202.094 230.581 201.38C231.09 201.014 231.416 200.562 231.473 199.931C230.05 199.134 228.481 198.688 226.969 198.111C216.637 194.159 206.292 190.233 195.951 186.298C195.585 186.158 195.214 186.023 194.848 185.889H194.842Z" fill="#F7BB92"/>
<path d="M220.925 128.105C221.322 128.019 221.442 127.682 221.571 127.37C221.942 126.467 222.282 125.55 222.665 124.653C222.817 124.299 222.823 123.876 223.143 123.601C223.134 123.404 222.98 123.55 222.971 123.353C222.845 123.418 222.794 123.107 222.751 123.207C222.122 124.739 221.511 126.276 220.905 127.816C220.874 127.896 220.914 128.008 220.922 128.105H220.925Z" fill="#D8A47F"/>
<path d="M189.981 129.945C190.004 129.825 190.058 129.705 190.153 129.599C190.687 128.996 191.013 128.288 191.393 127.599C191.536 127.345 191.696 127.079 191.91 126.887C192.016 126.793 192.113 126.693 192.204 126.59C192.524 126.105 192.87 125.576 193.236 125.016C193.267 124.956 193.299 124.899 193.327 124.839C193.55 124.404 193.762 123.901 194.127 123.619C194.147 123.604 194.162 123.587 194.179 123.57C194.51 123.061 194.853 122.533 195.202 121.993C195.268 121.875 195.339 121.764 195.419 121.655C198.797 116.423 202.834 109.991 204.712 106.333C204.712 106.328 205.546 101.79 206.298 96.7237C206.292 96.6437 206.309 96.5579 206.335 96.4665C206.792 93.3604 207.212 90.08 207.386 87.5396C207.386 87.5396 208.335 79.4672 211.824 76.6954C212.178 76.2696 212.635 75.9325 213.064 75.581C214.699 74.2322 216.442 73.0378 218.519 72.4663C219.702 72.1405 220.894 71.8462 222.12 71.7176C223.754 71.549 225.337 72.052 226.957 72.0662C227.192 72.0662 227.429 72.1977 227.657 72.2863C228.438 72.5892 229.22 72.8806 229.986 73.215C230.706 73.5321 231.349 73.9608 231.964 74.478C232.712 75.1095 233.472 75.7239 234.201 76.3839C235.21 77.3012 235.261 77.1583 236.141 78.2042C236.407 78.107 236.676 78.0156 236.944 77.9241C244.154 75.4495 249.134 74.9552 256.061 77.7555C264.388 81.1245 269.474 92.726 268.805 97.4895C268.788 98.5782 268.663 99.6183 268.377 100.67C268.357 100.741 268.343 100.816 268.325 100.887C268.017 103.067 267.9 103.896 267.9 103.896L252.135 100.398C252.115 100.444 251.489 99.9155 250.537 101.37C249.986 102.213 247.623 106.048 241.805 108.102C235.121 110.465 226.849 114.14 226.849 114.14C226.732 114.294 226.086 114.549 225.911 114.789C225.663 114.6 226.203 114.303 226.352 114.08C226.572 113.752 226.669 113.434 226.683 113.117L226.552 112.291C226.489 112.108 226.406 111.92 226.306 111.728C225.703 110.557 225.189 109.337 224.751 108.085C224.348 106.934 223.868 105.805 223.348 104.699C222.651 103.213 222.291 101.636 222.06 100.038C221.965 99.3926 221.634 98.7725 221.888 98.0238C222.094 97.4209 221.762 96.6894 222.011 96.0236C222.042 95.9378 222.025 95.8264 222.02 95.7293C221.911 93.949 222.528 92.3603 223.297 90.8086C223.448 90.5029 223.54 90.1657 223.683 89.8571C223.951 89.277 224.2 88.6826 224.708 88.2512C224.783 88.1883 224.868 88.1226 224.911 88.0368C225.506 86.8881 226.472 86.028 227.237 85.0165C228.149 83.8106 229.18 82.8219 230.578 82.2132C231.478 81.8189 232.344 81.3446 233.224 80.9017C233.355 80.8359 233.49 80.7616 233.595 80.6616C233.652 80.6073 233.687 80.4845 233.67 80.4073C233.652 80.3302 233.567 80.2301 233.492 80.2101C233.152 80.1216 232.818 80.1616 232.475 80.253C231.718 80.4559 230.955 80.633 230.192 80.8188C229.092 81.0874 228.086 81.5617 227.129 82.1647C226.72 82.4218 226.352 82.739 225.851 82.8819C225.443 82.9962 225.04 83.2677 224.731 83.5706C223.503 84.7707 222.151 85.8566 221.197 87.3196C220.822 87.894 220.279 88.3797 220.002 88.9913C219.193 90.7715 218.362 92.526 218.13 94.5377C217.973 95.9121 217.933 97.2723 217.882 98.6439C217.839 99.744 218.045 100.79 218.373 101.827C218.956 103.656 219.616 105.448 220.451 107.179C221.217 108.771 221.865 110.42 222.577 112.04C223 113.006 222.914 113.877 222.448 114.857C221.628 116.583 220.982 118.392 220.268 120.17C219.631 121.758 218.996 123.35 218.365 124.939L219.968 128.688C219.968 128.688 217.576 129.153 214.027 129.688C213.913 129.711 213.801 129.728 213.684 129.739C207.015 130.731 196.548 131.914 189.961 130.811V129.971C189.961 129.971 189.967 129.962 189.975 129.948L189.981 129.945Z" fill="#7A4821"/>
</svg>
