<svg width="497" height="497" viewBox="0 0 497 497" fill="none" xmlns="http://www.w3.org/2000/svg">
<path d="M355.786 173.24C343.626 172.978 334.866 168.402 324.407 166.049C316.823 164.349 306.756 164.48 305.448 164.48C305.187 165.526 304.925 166.441 304.664 167.226C303.487 172.455 304.795 175.463 305.579 176.77C305.579 176.77 307.932 181.215 312.509 181.738C321.399 182.784 359.316 183.569 359.316 183.569L355.786 173.24Z" fill="#D89D75"/>
<path d="M323.491 179.386C320.484 173.241 314.731 163.435 314.731 163.435C310.417 155.59 308.586 147.615 304.664 140.555C298.519 128.657 296.819 124.996 295.773 121.727C293.943 116.497 290.282 109.437 285.052 107.999C276.945 105.776 265.57 110.613 267.27 119.635C269.754 132.84 296.557 171.542 305.971 180.432C309.894 184.093 313.162 186.054 314.601 186.185C316.17 186.316 319.569 184.878 322.315 181.217C322.707 180.694 323.099 180.171 323.491 179.386Z" fill="#D89D75"/>
<path d="M355.784 173.241C355.523 173.372 355.653 175.072 359.314 183.57C359.314 183.57 361.799 182.786 366.505 182.917C372.912 183.047 381.28 179.648 385.202 175.987C388.602 172.849 390.171 167.096 388.602 162.389C387.033 157.682 368.205 166.704 361.929 167.488L355.784 173.241Z" fill="#D89D75"/>
<path d="M368.469 167.49C368.469 167.49 374.875 165.921 374.352 162.521C373.96 159.645 373.568 158.73 361.801 167.62C361.801 167.49 362.716 169.32 368.469 167.49Z" fill="#D89D75"/>
<path d="M375.635 154.578C378.9 160.118 386.604 177.66 386.865 179.639C387.518 184.387 385.821 189.399 381.25 189.267C377.855 189.136 374.59 188.08 372.501 188.608C362.054 191.51 329.931 198.237 317.133 200.083C314.13 200.479 308.645 201.798 306.556 201.798C293.628 201.798 300.157 174.495 305.12 174.627C323.924 174.758 366.494 175.286 373.285 175.286C373.285 175.286 358.92 149.698 363.099 149.038C368.975 148.115 372.893 149.83 375.635 154.578Z" fill="#ECAD83"/>
<path d="M264.58 201.545C279.636 203.143 294.038 202.61 307 201.944C305.298 197.683 304.512 178.504 305.56 174.508C300.846 174.242 264.449 172.511 264.449 172.511C252.927 171.312 185.107 163.188 164.159 166.651C158.791 167.316 153.947 168.382 150.019 169.581C142.425 171.845 139.152 212.466 149.757 213.798C172.8 211.8 223.338 202.477 233.812 200.879C244.548 199.281 264.58 201.545 264.58 201.545Z" fill="#333333"/>
<path d="M269.104 167.377C284.79 163.97 285.443 149.949 299.952 137.239C301.782 135.666 304.919 124.528 303.743 119.549C302.436 113.914 300.083 108.411 294.462 105.266C290.149 102.907 277.47 98.9763 249.628 111.818C236.427 116.797 158 149.949 158 149.949L180.613 192.798C188.978 186.901 240.087 166.329 256.164 164.756C256.295 164.756 264.66 168.425 269.104 167.377Z" fill="#FF8AA0"/>
<path d="M303.753 135.233C303.753 135.233 315.274 130.407 325.735 127.276L326 109.798C315.671 113.841 301.502 111.885 301.502 111.885C304.151 128.059 298.589 135.363 297 139.798L303.753 135.233Z" fill="#ECAD83"/>
<path d="M356.94 129.865C365.122 128.282 367.33 121.155 368.24 116.667C370.967 102.941 366.032 96.7381 358.628 89.875C348.887 80.9002 321.741 103.601 318.754 108.748C310.701 122.211 322.261 141.084 328.495 147.155C335.379 153.886 335.769 149.795 338.107 146.759C338.237 146.627 338.886 146.495 338.886 146.495C339.795 145.571 340.834 144.119 342.653 143.46C342.653 143.46 343.172 142.404 343.562 141.876C343.822 141.48 344.081 141.348 344.471 141.612C345.77 142.14 347.069 142.8 347.848 142.668C350.446 142.536 353.173 130.525 356.94 129.865Z" fill="#F6BB92"/>
<path d="M337 140.798C337 140.798 337.292 141.836 340.948 144.692C341.533 144.822 342.703 145.081 342.995 143.653C343.142 142.615 339.778 142.615 337 140.798Z" fill="#D6876B"/>
<path d="M337.145 140.798C337.145 140.798 336.297 143.065 338.701 146.531C339.267 146.931 339.833 146.798 340.116 146.665C341.53 145.998 340.823 144.798 340.823 144.798C337.428 141.865 337.145 140.798 337.145 140.798Z" fill="#CC785E"/>
<path d="M359.296 88.3401C347.164 77.649 315.252 80.354 313.01 115.004C312.879 117.322 313.933 121.186 320.263 121.702C324.747 122.088 328.966 121.186 328.966 121.186C330.285 120.929 331.604 120.542 333.054 120.156C334.636 119.769 339.252 113.2 340.702 114.102C354.285 122.861 364.966 121.186 367.867 118.095C373.405 109.465 372.218 99.8041 359.296 88.3401Z" fill="#602F0F"/>
<path d="M330.48 115.909C327.48 122.91 329.436 125.156 332.827 127.798L338.565 117.758L340 112.871C336.609 110.361 333.479 108.908 330.48 115.909Z" fill="#F6BB92"/>
<path d="M324.046 89.5824C323.384 84.4508 330.002 79.7244 338.872 78.9141C347.741 78.1039 355.418 81.615 355.948 86.7465C356.61 91.8781 350.918 94.849 342.049 95.6593C333.312 96.3345 324.707 94.5789 324.046 89.5824Z" fill="#4C230C"/>
<path d="M341.013 116.626C341.666 115.45 342.451 114.665 343.235 113.881C344.15 112.835 344.935 112.312 344.935 112.312L340.359 110.351C339.836 110.874 339.444 111.397 338.921 111.92C338.921 111.92 339.444 112.181 340.228 112.573H340.097C339.836 113.75 339.313 115.58 338.398 117.803C338.267 117.803 338.79 120.026 341.013 116.626Z" fill="#602F0F"/>
<path d="M322.317 87.0772C321.663 81.8473 328.854 77.0097 338.399 76.2252C347.943 75.4408 356.18 78.9709 356.834 84.2008C357.488 89.4307 351.342 92.4379 341.798 93.3531C332.384 94.0068 322.97 92.3071 322.317 87.0772Z" fill="#602F0F"/>
<path d="M334.005 78.2904C333.88 77.783 336.128 77.0219 338.875 76.8951C341.622 76.6414 343.994 76.8951 343.994 77.5293C344.119 78.0367 342.246 78.5441 339.374 78.7979C336.752 78.7979 334.13 78.7978 334.005 78.2904Z" fill="#4C230C"/>
<path d="M158.644 149.798C140.317 159.649 133.902 178.958 133.117 187.89C131.546 206.28 146.339 218.496 146.339 218.496C146.339 218.496 187.183 225.195 187.837 215.737C188.23 207.988 189.539 193.801 188.754 185.263C187.445 173.573 158.644 149.798 158.644 149.798Z" fill="#3D3C3C"/>
<path d="M200.68 408.603C195.485 407.418 180.029 408.603 178.081 408.471C173.406 408.339 168.86 405.706 169.769 401.23C170.418 397.807 172.496 394.647 171.847 392.672C168.34 380.692 157.041 347.12 156.002 333.822C155.742 330.794 181.848 328.951 181.588 333.691C180.289 352.649 183.406 386.616 184.705 393.857C184.705 393.857 209.511 397.412 208.992 402.283C208.732 405.311 206.005 409.788 200.68 408.603Z" fill="#F6BB92"/>
<path d="M152.426 292.402C151.261 307.45 154.627 323.152 156.18 334.798C160.451 333.228 177.796 332.704 181.679 333.882C181.938 329.171 180.773 292.925 180.773 292.925C182.197 281.41 191.387 213.89 188.41 192.822C187.892 187.457 186.857 182.616 185.821 178.69C183.75 170.97 141.683 175.419 140 186.018C141.424 209.048 152.297 251.314 153.721 261.913C155.015 272.381 152.426 292.402 152.426 292.402Z" fill="#3D3C3C"/>
<path d="M356.573 178.208C328.201 182.653 319.049 181.738 311.335 181.084C303.621 180.431 294.599 181.738 293.161 181.869C292.9 182.915 292.638 183.83 292.377 184.615C291.2 189.844 292.507 192.852 293.292 194.159C293.292 194.159 295.645 198.605 300.221 199.128C309.112 200.174 360.627 188.406 360.627 188.406L356.573 178.208Z" fill="#F6BB92"/>
<path d="M307.542 194.29C306.366 187.622 303.358 176.901 303.358 176.901C301.266 168.141 299.174 156.373 297.344 148.528C294.598 135.454 293.945 131.401 293.814 128.001C293.552 122.51 291.853 114.665 287.146 111.919C279.955 107.605 267.664 109.174 267.011 118.326C265.965 131.662 283.877 179.516 290.545 190.629C293.291 195.205 295.906 197.951 297.344 198.474C298.782 198.997 302.443 198.605 306.104 195.859C306.496 195.336 307.019 194.944 307.542 194.29Z" fill="#F6BB92"/>
<path d="M356.573 178.208C356.312 178.339 356.443 180.039 360.103 188.537C360.103 188.537 362.588 187.753 367.295 187.883C373.701 188.014 382.069 184.615 385.991 180.954C389.391 177.816 390.96 172.063 389.391 167.356C387.822 162.649 368.994 171.671 362.718 172.455L356.573 178.208Z" fill="#F6BB92"/>
<path d="M369.125 172.454C369.125 172.454 375.532 170.885 375.009 167.486C374.616 164.609 374.224 163.563 362.457 172.585C362.457 172.454 363.372 174.285 369.125 172.454Z" fill="#F6BB92"/>
</svg>
