<svg width="501" height="501" viewBox="0 0 501 501" fill="none" xmlns="http://www.w3.org/2000/svg">
<path d="M301.857 237.752C301.206 236.612 300.646 235.455 300.454 234.114C300.301 233.053 300.355 232.042 300.49 230.993C300.766 228.831 301.434 226.807 302.328 224.833C302.748 223.904 303.308 223.103 304.07 222.435C304.661 221.916 305.239 221.379 305.824 220.848C306.235 220.797 306.652 220.815 307.021 220.536C307.731 220 308.481 219.514 309.204 218.992C311.111 217.607 312.871 216.024 314.877 214.773C315.195 214.575 315.462 214.329 315.669 214.017C317.543 211.226 319.462 208.461 320.802 205.354C321.759 203.138 322.694 200.914 323.624 198.686C324.955 195.492 326.083 192.209 327.903 189.234C328.068 188.967 328.194 188.673 328.32 188.382C328.899 187.033 329.408 185.648 330.071 184.34C330.524 183.453 330.698 182.571 330.629 181.608C330.674 181.584 330.731 181.566 330.764 181.53C331.711 180.472 331.798 179.036 332.383 177.818C332.428 177.722 332.332 177.482 332.23 177.407C331.435 176.835 330.806 175.992 329.75 175.83C329.201 175.026 328.359 174.556 327.615 173.98C325.282 172.175 323.015 170.277 320.595 168.597C316.31 165.623 312.181 162.435 307.926 159.425C306.034 158.087 304.145 156.75 302.133 155.589C300.265 154.513 298.439 153.358 296.717 152.042C294.585 150.411 292.375 148.882 290.222 147.274C288.534 146.015 286.849 144.752 285.383 143.22C284.381 142.174 283.622 140.995 283.089 139.658C282.438 138.024 282.063 136.341 282.15 134.572C282.192 133.679 282.249 132.782 282.273 131.888C282.3 130.923 282.513 130.005 282.942 129.148C283.32 128.395 283.733 127.66 284.168 126.941C284.369 126.608 284.513 126.293 284.378 125.906C284.843 125.894 285.149 125.66 285.383 125.261C285.76 124.62 286.303 124.125 286.909 123.696C287.164 123.516 287.434 123.345 287.653 123.123C288.927 121.84 290.432 120.916 292.064 120.164C293.071 119.699 294.169 119.546 295.209 119.189C296.406 118.778 297.626 118.527 298.903 118.592C299.689 118.634 300.478 118.592 301.266 118.592C301.722 118.715 302.181 118.832 302.634 118.961C303.039 119.078 303.467 119.156 303.833 119.348C305.932 120.443 308.061 121.507 309.881 123.039C311.168 124.122 312.304 125.369 313.372 126.683C314.268 127.783 315.288 128.782 316.292 129.789C317.819 131.319 319.351 132.839 320.928 134.314C323.54 136.758 326.155 139.202 328.836 141.571C330.062 142.65 331.202 143.817 332.434 144.884C335.058 147.157 337.472 149.661 340.197 151.826C341.349 152.741 342.413 153.778 343.463 154.801C346.027 157.299 348.803 159.566 351.286 162.153C353.193 164.141 354.18 166.483 354.69 169.125C355.092 171.2 354.66 173.203 354.285 175.203C353.748 178.067 352.759 180.772 351.241 183.282C350.729 184.13 350.372 185.075 349.988 185.995C349.217 187.846 348.252 189.591 347.316 191.36C345.568 194.664 343.946 198.032 342.263 201.372C342.024 201.849 342.074 202.245 342.38 202.689C343.361 204.119 344.258 205.6 345.058 207.145C345.511 208.023 346.171 208.797 346.716 209.628C346.857 209.84 346.923 210.104 347.022 210.341C346.494 210.329 345.979 210.359 345.46 210.5C342.623 211.283 339.787 212.065 336.935 212.791C336.308 212.95 335.924 213.265 335.624 213.796C334.74 215.349 333.888 216.923 332.932 218.431C331.561 220.593 329.879 222.42 327.393 223.373C325.579 224.069 323.78 224.816 322.02 225.64C320.544 226.33 319.135 227.169 317.858 228.189C317.03 228.849 316.43 229.733 315.792 230.564C314.253 232.564 312.733 234.579 311.243 236.615C310.679 237.386 310.004 238.045 309.375 238.747C308.421 239.812 307.279 240.069 305.944 239.617C305.746 239.551 305.539 239.518 305.335 239.47C304.178 238.897 303.018 238.321 301.86 237.749L301.857 237.752Z" fill="#FFB78A"/>
<path d="M143.298 143.849C144.633 142.347 146.231 141.139 147.742 139.831C148.063 139.555 148.393 139.298 148.636 138.947C149.88 137.127 151.677 136.059 153.695 135.345C155.983 134.539 158.352 134.059 160.762 133.783C161.701 133.675 162.643 133.57 163.572 133.402C165.353 133.078 167.128 133.126 168.907 133.387C169.168 133.426 169.431 133.444 169.695 133.438C171.98 133.399 174.208 133.813 176.37 134.479C178.037 134.992 179.741 135.282 181.435 135.639C185.342 136.464 189.261 137.223 193.174 138.02C196.623 138.725 200.071 139.43 203.514 140.161C206.494 140.794 209.469 141.457 212.447 142.116C215.166 142.719 217.883 143.328 220.597 143.954C221.517 144.167 222.429 144.437 223.332 144.713C223.706 144.827 224.036 144.806 224.405 144.692C230.843 142.728 237.389 141.157 243.893 139.433C251.923 137.304 259.96 135.213 267.99 133.081C271.648 132.11 275.289 131.072 278.941 130.08C279.289 129.984 279.667 129.999 280.032 129.963C279.832 130.94 279.592 131.909 279.439 132.893C279.1 135.076 278.665 137.238 278.152 139.385C276.905 144.596 275.816 149.844 274.908 155.124C274.818 155.652 274.647 156.144 274.278 156.546C273.36 156.579 272.542 156.983 271.717 157.298C269.423 158.177 267.063 158.642 264.614 158.516C262.329 158.399 260.089 158.747 257.885 159.202C254.952 159.811 251.977 160.147 249.042 160.717C247.186 161.077 245.32 161.382 243.47 161.763C238.945 162.696 234.462 163.832 229.902 164.597C227.539 164.996 225.203 165.044 222.9 164.198C222.114 163.91 221.28 163.754 220.468 163.538C219.196 163.2 217.901 162.942 216.663 162.51C213.031 161.241 209.289 160.384 205.571 159.439C202.368 158.624 199.133 157.94 195.852 157.439C192.689 156.956 189.558 156.255 186.413 155.658C182.952 155.001 179.51 154.291 176.139 153.247C173.228 152.345 170.262 151.637 167.299 150.92C165.689 150.53 164.07 150.53 162.436 150.542C161.953 150.545 161.506 150.677 161.047 150.806C160.54 150.947 160.235 151.217 160.085 151.73C159.815 152.638 159.488 153.538 158.963 154.333C157.104 157.133 155.413 160.057 153.158 162.579C152.387 162.687 151.869 163.239 151.275 163.658C151.02 163.838 150.813 164.084 150.486 164.156C149.674 164.327 149.104 164.867 148.534 165.425C147.589 166.345 146.711 167.311 146.054 168.468C145.745 169.014 145.308 169.488 144.996 170.033C144.54 170.834 143.82 171.374 143.205 172.015C142.981 172.249 142.696 172.387 142.363 172.387C141.625 172.387 140.885 172.432 140.153 172.369C139.583 172.321 138.98 172.18 138.534 171.818C136.821 170.441 135.763 168.714 135.718 166.435C135.697 165.32 135.97 164.246 136.018 163.155C136.069 162.045 136.285 160.966 136.492 159.895C137.364 155.406 139.325 151.349 141.598 147.427C141.967 146.791 142.312 146.122 142.801 145.589C143.292 145.052 143.352 144.488 143.304 143.843L143.298 143.849Z" fill="#FFB78A"/>
<path d="M252.463 71.7807C252.517 71.6938 252.571 71.6068 252.628 71.5199C252.951 71.28 253.137 70.9651 253.137 70.5543C254.076 68.95 255.338 67.6007 256.577 66.2333C257.045 65.7175 257.602 65.3217 258.226 65.0248C259.65 64.3442 261.078 63.6575 262.517 63.0098C263.483 62.578 264.493 62.2991 265.564 62.2271C266.457 62.1672 267.351 62.0622 268.229 61.9003C270.697 61.4445 273.162 61.5674 275.633 61.8613C277.306 62.0592 279 62.1342 280.638 62.578C281.45 62.7969 282.263 63.0278 283.058 63.3036C283.636 63.5045 284.062 63.3576 284.482 62.9438C285.639 61.7983 286.743 60.5779 288.008 59.5644C290.155 57.8492 292.437 56.3978 295.307 56.053C296.881 55.8641 298.429 55.7021 300.012 55.8251C302.998 56.056 305.589 57.2614 307.973 58.9826C309.299 59.9422 310.357 61.1506 311.35 62.47C312.393 63.8524 313.074 65.3547 313.626 66.95C313.796 67.4447 313.871 67.9725 313.967 68.4882C314.084 69.109 314.165 69.7357 314.291 70.3534C314.429 71.0251 314.48 71.7088 314.588 72.3805C314.861 74.0417 314.888 75.7329 315.293 77.3762C315.419 77.8829 315.443 78.4137 315.512 78.9354C315.572 79.4032 315.59 79.883 315.701 80.3418C315.847 80.9625 315.919 81.5832 315.934 82.2189C315.961 83.3794 316.204 84.5219 316.381 85.6583C316.807 88.4081 317.215 91.1848 318.375 93.7636C318.828 94.7741 319.248 95.7997 319.701 96.8102C320.07 97.6288 320.498 98.4085 321.053 99.1251C321.503 99.7069 321.875 100.352 322.241 100.99C322.582 101.587 322.924 102.178 323.419 102.663C323.494 102.735 323.572 102.816 323.62 102.906C324.4 104.346 325.386 105.647 326.325 106.982C327.47 108.616 328.586 110.271 329.71 111.917C330.007 112.352 330.316 112.781 330.574 113.24C330.988 113.977 331.446 114.667 331.989 115.324C332.487 115.923 332.832 116.655 333.212 117.345C333.374 117.636 333.173 118.025 332.853 118.094C332.547 118.16 332.229 118.211 331.917 118.208C328.814 118.175 325.71 118.088 322.606 118.1C319.815 118.109 317.029 117.968 314.243 117.822C312.246 117.717 310.252 117.498 308.258 117.318C307.047 117.21 305.871 116.916 304.702 116.601C304.801 116.364 304.992 116.154 304.888 115.863C304.762 115.519 304.66 115.165 304.522 114.823C302.645 110.202 300.761 105.581 298.875 100.96C298.581 100.238 298.572 99.5299 298.914 98.8253C299.097 98.4474 299.301 98.0756 299.463 97.6858C300.665 94.7741 301.838 91.8505 303.067 88.9508C303.715 87.4245 303.964 85.8293 304.033 84.207C304.09 82.8456 303.961 81.4933 303.79 80.1319C303.652 79.0224 303.448 77.9579 303.07 76.9264C302.726 75.9908 302.306 75.0822 301.91 74.1676C301.826 73.9757 301.718 73.7898 301.595 73.6249C300.405 72.0236 299.193 70.4493 297.736 69.061C296.455 67.8405 294.95 66.9979 293.421 66.2003C292.926 65.9424 292.437 65.6036 291.871 65.4656C290.65 65.1658 289.433 64.8449 288.209 64.5541C288.017 64.5091 287.801 64.5691 287.595 64.59C287.55 64.596 287.484 64.644 287.478 64.68C287.466 64.776 287.442 64.9229 287.493 64.9649C287.69 65.1298 287.906 65.2857 288.137 65.4057C289.076 65.8855 290.02 66.3532 290.965 66.818C292.119 67.3848 293.124 68.1164 293.751 69.2769C293.979 69.6997 294.254 70.0745 294.602 70.4044C296.225 71.9397 297.49 73.7178 298.315 75.8079C298.971 77.4661 299.742 79.0884 299.625 80.9475C299.607 81.2534 299.67 81.5832 299.772 81.8741C299.937 82.3359 299.88 82.8096 299.934 83.2774C300.021 84.0361 299.706 84.7258 299.628 85.4514C299.43 87.2386 298.974 88.9688 298.315 90.621C297.637 92.3153 296.875 93.9795 296.177 95.6677C295.775 96.6393 295.487 97.6708 294.986 98.5764C294.659 99.1701 294.59 99.7518 294.479 100.364C294.392 100.385 294.302 100.391 294.212 100.385C294.021 100.025 293.697 99.9048 293.313 99.9018V99.9078C293.106 99.341 292.647 99.2091 292.11 99.2091L292.053 99.308L292.104 99.2061C291.957 98.4954 291.334 98.4444 290.8 98.2705C290.47 98.0876 290.14 97.9047 289.81 97.7188C289.667 97.254 289.334 97.0591 288.863 97.0681C288.761 96.9661 288.656 96.8642 288.554 96.7622C287.595 95.6977 286.368 95.062 285.061 94.5432C284.935 94.2824 284.707 94.1984 284.437 94.1924C284.305 94.0335 284.206 93.8266 284.038 93.7246C281.276 92.0154 278.506 90.3152 275.729 88.633C275.522 88.507 275.228 88.534 274.973 88.489V88.498C274.799 88.0422 274.47 87.8443 273.99 87.8773C273.939 87.8233 273.879 87.8023 273.807 87.8203C273.717 87.4935 273.474 87.3136 273.207 87.1277C271.573 85.9882 269.843 85.0046 268.136 83.9821C267.21 83.4274 266.415 83.3494 265.477 83.7482C264.223 84.282 262.958 84.7977 261.692 85.3045C258.088 86.7468 254.481 88.1802 250.876 89.6195C250.445 89.1907 250.223 88.654 250.199 88.0632C250.16 87.1067 249.917 86.1951 249.689 85.2775C249.626 85.0226 249.554 84.7617 249.551 84.5039C249.518 82.4018 249.551 80.3178 250.067 78.2458C250.502 76.4946 251.248 74.8873 251.971 73.2561C252.181 72.7823 252.52 72.3445 252.451 71.7777L252.463 71.7807Z" fill="#814617"/>
<path d="M274.272 156.549C274.64 156.147 274.811 155.655 274.901 155.127C275.81 149.844 276.898 144.599 278.146 139.388C278.659 137.241 279.093 135.079 279.432 132.896C279.585 131.912 279.825 130.941 280.026 129.966C280.902 128.878 281.771 127.783 282.65 126.701C282.911 126.38 283.199 126.08 283.474 125.771C283.774 125.816 284.074 125.858 284.374 125.903C284.509 126.29 284.365 126.602 284.164 126.937C283.729 127.657 283.315 128.392 282.938 129.144C282.509 130.002 282.296 130.92 282.269 131.885C282.245 132.782 282.188 133.675 282.146 134.569C282.062 136.338 282.437 138.023 283.085 139.655C283.615 140.992 284.374 142.17 285.379 143.217C286.845 144.749 288.53 146.012 290.218 147.271C292.371 148.878 294.581 150.408 296.713 152.039C298.435 153.355 300.261 154.51 302.129 155.586C304.144 156.747 306.033 158.081 307.922 159.421C312.18 162.432 316.306 165.62 320.591 168.594C323.011 170.273 325.278 172.172 327.611 173.977C328.358 174.555 329.197 175.023 329.746 175.83C329.392 176.445 329.038 177.059 328.685 177.671C328.532 177.707 328.373 177.725 328.226 177.782C324.936 179.035 321.647 180.295 318.357 181.545C310.303 184.61 302.243 187.659 294.191 190.739C292.626 191.339 291.001 191.804 289.538 192.658C288.905 192.661 288.299 192.616 287.681 192.4C283.87 191.072 280.656 188.838 277.891 185.947C276.731 184.733 275.63 183.428 275.069 181.8C274.607 180.46 274.164 179.107 273.807 177.734C273.435 176.31 273.117 174.858 273.144 173.377C273.198 170.222 273.312 167.068 273.402 163.913C273.408 163.704 273.435 163.494 273.459 163.284C273.729 161.038 273.999 158.795 274.269 156.549H274.272Z" fill="#8A8AD9"/>
<path d="M294.221 100.382C294.311 100.388 294.401 100.382 294.488 100.361C294.551 100.532 294.611 100.703 294.674 100.871C294.566 101.269 294.767 101.512 295.084 101.701C295.069 101.98 295.147 102.229 295.312 102.454C295.201 102.853 295.402 103.096 295.72 103.281C295.702 103.56 295.783 103.812 295.948 104.034C295.834 104.433 296.038 104.676 296.353 104.862C296.335 105.141 296.419 105.389 296.584 105.614C296.467 106.013 296.671 106.256 296.989 106.442C297.138 107.518 297.618 108.472 298.113 109.417C298.032 109.986 298.467 110.445 298.458 111C297.882 111.309 297.258 111.342 296.62 111.333C296.149 111.327 295.687 111.33 295.219 111.474C293.402 112.037 291.684 112.796 290.11 113.873C288.514 114.964 287.078 116.28 285.384 117.234C285.249 117.309 285.15 117.444 285.03 117.549C284.196 118.266 283.369 118.988 282.52 119.687C282.37 119.813 281.753 120.101 281.558 120.17C280.688 119.108 280.871 118.742 280.022 119.078C276.337 120.544 272.922 122.116 269.239 123.594C268.951 123.711 268.772 123.798 268.31 124.104C267.284 124.467 266.226 124.329 265.179 124.275C264.526 124.242 263.983 123.906 263.512 123.456C262.63 122.608 261.872 121.666 261.362 120.553C260.816 119.357 260.306 118.143 259.785 116.934C259.701 116.742 259.626 116.544 259.554 116.346C259.071 114.997 258.297 114.034 256.807 113.582C255.257 113.111 253.796 112.343 252.309 111.684C250.828 111.027 250.792 110.883 251.092 109.276C251.389 107.674 251.601 106.061 251.88 104.457C252.105 103.164 252.345 101.872 252.633 100.592C252.906 99.3742 252.855 98.1988 252.444 97.0203C252.027 95.8299 251.757 94.5944 251.518 93.356C251.419 92.8402 251.278 92.3305 251.11 91.8327C250.957 91.3769 250.846 90.9241 250.885 90.4414C252.318 89.9316 253.769 89.4638 255.182 88.9001C258.693 87.4967 262.193 86.0574 265.689 84.618C266.307 84.3632 266.936 84.3062 267.53 84.5581C268.151 84.8219 268.724 85.2028 269.308 85.5416C270.394 86.1713 271.515 86.7411 272.496 87.5297C272.907 87.8595 273.329 87.9525 273.821 87.8146C273.893 87.7966 273.953 87.8146 274.004 87.8715C274.175 88.5192 274.184 88.5252 274.985 88.4923V88.4833C275.009 88.6362 274.976 88.8611 275.063 88.9301C275.674 89.4068 276.166 90.0605 277 90.2195C277.249 90.2674 277.522 90.3964 277.698 90.5733C278.898 91.7877 280.613 92.2015 281.885 93.329C282.451 93.8328 283.243 94.0907 283.948 94.4325C284.16 94.5345 284.343 94.3935 284.448 94.1836C284.718 94.1896 284.943 94.2706 285.072 94.5345C285.06 94.8643 285.165 95.1462 285.444 95.3321C285.954 95.6739 286.514 95.9498 286.982 96.3426C287.468 96.7474 287.993 96.7894 288.565 96.7534C288.667 96.8554 288.772 96.9574 288.874 97.0593C288.976 97.4751 289.292 97.692 289.822 97.71C290.152 97.8929 290.482 98.0758 290.811 98.2617C290.97 99.2183 291.057 99.2813 292.116 99.1973L292.065 99.2993L292.122 99.2003C292.026 99.6711 292.242 99.896 292.698 99.911C292.907 99.917 293.117 99.902 293.324 99.899V99.893C293.462 100.589 293.534 100.625 294.224 100.376L294.221 100.382Z" fill="#FFB78A"/>
<path d="M341.791 411.416C342.064 412.016 342.004 412.654 342.007 413.284C342.022 416.654 342.025 420.028 342.037 423.398C342.037 424.079 342.106 424.751 342.208 425.434C342.397 426.676 342.469 427.944 342.103 429.189C341.956 429.692 341.776 430.202 341.743 430.718C341.668 431.899 340.975 432.778 340.328 433.645C339.317 434.994 338.127 436.19 336.529 436.859C335.329 437.36 334.151 437.93 332.786 437.879C331.47 437.831 330.132 437.996 328.84 437.813C326.651 437.501 324.444 437.597 322.252 437.33C320.651 437.132 319.032 436.85 317.394 436.904C316.765 436.925 316.144 436.817 315.517 436.715C314.693 436.58 313.838 436.607 312.998 436.598C310.578 436.571 308.18 436.133 305.757 436.253C303.748 435.816 301.679 435.99 299.658 435.651C297.448 435.282 295.66 434.295 294.653 432.262C294.173 431.294 293.813 430.232 293.633 429.141C293.6 428.934 293.633 428.712 293.579 428.514C293.067 426.694 293.681 425.117 294.617 423.608C294.926 423.107 295.334 422.7 295.843 422.403C297.199 421.614 298.557 420.823 299.918 420.046C301.918 418.906 303.895 417.722 305.931 416.651C309.262 414.897 312.489 412.954 315.817 411.197C316.09 411.053 316.411 411.008 316.708 410.915C317.943 410.6 319.215 410.606 320.453 410.783C321.395 410.918 322.324 410.966 323.266 410.975C324.366 410.987 325.47 411.029 326.567 411.008C328.456 410.975 330.315 411.35 332.21 411.314C335.041 411.263 337.872 411.314 340.706 411.332C341.068 411.332 341.431 411.389 341.794 411.419L341.791 411.416Z" fill="#FFB88C"/>
<path d="M141.991 178.63C141.532 179.077 141.244 179.635 140.974 180.205C140.677 180.343 140.509 180.6 140.341 180.867C139.625 182.007 138.896 183.14 138.185 184.286C138.053 184.502 137.993 184.76 137.9 184.999C137.34 185.827 136.725 186.625 136.35 187.566C135.915 187.743 135.786 188.136 135.663 188.535C135.322 188.406 134.965 188.307 134.641 188.148C132.614 187.14 130.596 186.115 128.569 185.104C127.477 184.562 126.458 183.926 125.624 183.02C125.447 182.828 125.258 182.631 125.042 182.49C123.531 181.521 122.598 180.046 121.639 178.6C120.868 177.44 120.544 176.103 120.284 174.756C120.233 174.501 120.233 174.228 120.263 173.968C120.52 171.722 120.844 169.506 121.894 167.437C122.97 165.316 124.203 163.301 125.594 161.385C126.332 160.366 127.168 159.412 128.023 158.486C129.486 156.899 130.857 155.238 132.293 153.631C133.163 152.656 134.185 151.805 135.217 150.992C136.38 150.075 137.394 149.007 138.452 147.987C138.788 147.664 139.061 147.253 139.532 147.088C139.532 147.403 139.538 147.724 139.349 148.002C138.878 148.698 138.479 149.463 137.918 150.072C136.674 151.418 135.957 153.028 135.361 154.716C134.293 157.751 133.903 160.924 133.546 164.09C133.376 165.598 133.489 167.14 133.522 168.666C133.549 169.883 134.062 170.984 134.959 171.719C136.695 173.143 138.491 174.537 140.863 174.816C141.292 174.867 141.67 174.87 142.093 174.771C142.785 174.606 143.331 174.195 143.889 173.815C144.344 173.503 144.785 173.281 145.343 173.362C145.157 173.746 144.971 174.129 144.788 174.513C143.967 175.32 142.608 177.326 141.997 178.633L141.991 178.63Z" fill="#FFB78B"/>
<path d="M295.945 104.036C295.78 103.811 295.699 103.562 295.717 103.284C295.843 102.879 295.783 102.564 295.309 102.456C295.147 102.231 295.067 101.982 295.082 101.703C295.21 101.295 295.148 100.981 294.671 100.873C294.608 100.702 294.548 100.531 294.485 100.363C294.596 99.7542 294.665 99.1695 294.992 98.5758C295.492 97.6672 295.78 96.6386 296.182 95.6671C296.878 93.9759 297.642 92.3146 298.32 90.6204C298.98 88.9682 299.436 87.238 299.633 85.4508C299.714 84.7251 300.026 84.0355 299.939 83.2768C299.885 82.809 299.939 82.3352 299.777 81.8735C299.675 81.5826 299.609 81.2527 299.63 80.9469C299.747 79.0877 298.977 77.4685 298.32 75.8072C297.495 73.7202 296.23 71.942 294.608 70.4037C294.26 70.0739 293.984 69.6991 293.756 69.2763C293.132 68.1158 292.125 67.3841 290.97 66.8174C290.026 66.3526 289.081 65.8848 288.143 65.405C287.912 65.2881 287.699 65.1322 287.498 64.9642C287.447 64.9223 287.471 64.7753 287.483 64.6794C287.489 64.6434 287.555 64.5954 287.6 64.5894C287.804 64.5684 288.023 64.5085 288.215 64.5534C289.438 64.8443 290.656 65.1652 291.876 65.465C292.443 65.603 292.929 65.9418 293.426 66.1997C294.956 66.9973 296.458 67.8399 297.741 69.0604C299.199 70.4487 300.41 72.023 301.601 73.6243C301.726 73.7922 301.834 73.9781 301.915 74.167C302.311 75.0816 302.731 75.9902 303.076 76.9257C303.457 77.9573 303.658 79.0218 303.796 80.1313C303.966 81.4956 304.095 82.848 304.038 84.2064C303.969 85.8316 303.721 87.4269 303.073 88.9502C301.843 91.8499 300.671 94.7735 299.469 97.6852C299.307 98.075 299.103 98.4438 298.92 98.8246C298.578 99.5293 298.587 100.237 298.881 100.96C300.767 105.578 302.647 110.198 304.527 114.822C304.665 115.161 304.767 115.515 304.893 115.863C304.998 116.154 304.806 116.364 304.707 116.6C304.338 116.63 303.984 116.57 303.646 116.421C303.58 116.37 303.508 116.361 303.433 116.394C302.998 116.4 302.563 116.409 302.128 116.415C302.035 116.37 301.939 116.325 301.846 116.28C301.723 115.668 301.271 115.758 300.839 115.809C300.839 115.704 300.869 115.59 300.836 115.5C300.098 113.578 299.355 111.656 298.608 109.737C298.524 109.524 298.32 109.458 298.113 109.419C297.618 108.471 297.139 107.521 296.989 106.441C297.112 106.039 297.055 105.724 296.584 105.614C296.419 105.389 296.335 105.14 296.353 104.861C296.479 104.456 296.419 104.144 295.948 104.033L295.945 104.036Z" fill="#63350F"/>
<path d="M301.856 237.751C303.013 238.324 304.173 238.899 305.331 239.472C305.079 241.016 304.836 242.561 304.566 244.102C304.188 246.258 303.793 248.411 303.397 250.567C303.181 251.749 302.947 252.924 302.716 254.102C302.323 256.097 301.921 258.091 301.529 260.088C300.917 263.209 300.305 266.331 299.708 269.455C299.631 269.863 299.631 270.289 299.595 270.706C299.49 270.733 299.412 270.7 299.361 270.604C299.256 270.553 299.151 270.502 299.046 270.451L299.004 270.403C298.857 270.166 298.635 270.118 298.38 270.163C296.749 269.761 295.166 269.215 293.612 268.574C293.729 267.365 294.122 266.223 294.428 265.059C295.079 262.577 295.765 260.1 296.44 257.623C297.211 254.792 297.987 251.961 298.758 249.128C299.571 246.144 300.38 243.16 301.19 240.177C301.409 239.367 301.631 238.561 301.849 237.751H301.856Z" fill="#454742"/>
<path d="M301.848 116.28C301.941 116.325 302.037 116.37 302.13 116.415C301.288 116.922 301.165 117.714 301.267 118.592C300.478 118.595 299.689 118.634 298.904 118.592C297.623 118.526 296.406 118.775 295.209 119.189C294.172 119.546 293.074 119.699 292.064 120.164C290.433 120.916 288.927 121.84 287.653 123.123C287.434 123.342 287.164 123.516 286.909 123.696C286.303 124.125 285.761 124.617 285.383 125.261C285.149 125.657 284.843 125.894 284.378 125.906C284.078 125.861 283.779 125.819 283.479 125.774C283.461 125.309 283.062 125.114 283.044 124.65C283.086 123.957 282.75 123.369 282.516 122.751C282.189 121.897 281.877 121.033 281.557 120.176C281.752 120.107 282.369 119.816 282.519 119.693C283.368 118.994 284.195 118.272 285.029 117.555C285.149 117.453 285.248 117.318 285.383 117.24C287.077 116.286 288.513 114.97 290.109 113.879C291.683 112.802 293.401 112.043 295.218 111.48C295.686 111.336 296.151 111.33 296.619 111.339C297.254 111.348 297.878 111.315 298.457 111.006C298.541 111.135 298.649 111.255 298.706 111.393C299.168 112.559 299.614 113.729 300.079 114.895C300.232 115.276 300.349 115.708 300.844 115.81C301.165 116.385 301.201 116.4 301.851 116.28H301.848Z" fill="#E2A078"/>
<path d="M145.34 173.362C144.782 173.281 144.341 173.503 143.885 173.815C143.327 174.196 142.782 174.606 142.089 174.771C141.666 174.87 141.288 174.867 140.86 174.816C138.491 174.537 136.695 173.143 134.955 171.719C134.059 170.984 133.546 169.881 133.519 168.666C133.486 167.14 133.372 165.596 133.543 164.09C133.903 160.924 134.29 157.751 135.357 154.717C135.951 153.028 136.671 151.418 137.915 150.072C138.479 149.46 138.875 148.698 139.345 148.003C139.534 147.724 139.525 147.406 139.528 147.088C140.611 145.808 141.753 144.593 143.297 143.853C143.345 144.494 143.285 145.061 142.794 145.598C142.305 146.131 141.96 146.803 141.591 147.436C139.318 151.358 137.354 155.418 136.485 159.904C136.278 160.975 136.062 162.054 136.011 163.164C135.96 164.255 135.687 165.329 135.711 166.444C135.756 168.726 136.814 170.45 138.527 171.827C138.973 172.186 139.576 172.327 140.146 172.378C140.878 172.441 141.618 172.396 142.356 172.396C142.692 172.396 142.974 172.261 143.199 172.025C143.813 171.383 144.536 170.84 144.989 170.042C145.301 169.497 145.738 169.023 146.047 168.477C146.704 167.32 147.582 166.357 148.527 165.434C149.1 164.876 149.667 164.336 150.479 164.165C150.806 164.096 151.013 163.85 151.268 163.667C151.859 163.248 152.38 162.696 153.151 162.588C153.262 162.972 153.37 163.359 153.481 163.742C152.734 164.222 151.999 164.711 151.529 165.497C151.334 165.82 151.013 165.997 150.728 166.225C149.7 167.044 148.884 168.039 148.314 169.233C147.286 170.141 146.713 171.347 146.146 172.555C145.876 172.825 145.606 173.095 145.337 173.365L145.34 173.362Z" fill="#E6A47C"/>
<path d="M273.822 87.8235C273.33 87.9615 272.907 87.8685 272.496 87.5387C271.516 86.75 270.391 86.1773 269.309 85.5506C268.721 85.2117 268.151 84.8309 267.531 84.567C266.937 84.3121 266.307 84.3721 265.69 84.627C262.19 86.0663 258.694 87.5087 255.182 88.909C253.77 89.4728 252.319 89.9406 250.885 90.4503C250.849 90.3754 250.843 90.2944 250.861 90.2134C250.87 90.0185 250.879 89.8206 250.888 89.6257C254.496 88.1894 258.103 86.753 261.704 85.3107C262.97 84.8039 264.235 84.2882 265.489 83.7544C266.427 83.3526 267.222 83.4336 268.148 83.9883C269.858 85.0108 271.585 85.9944 273.219 87.1338C273.486 87.3198 273.729 87.4997 273.819 87.8265L273.822 87.8235Z" fill="#E2A078"/>
<path d="M299.599 272.067C300.064 272.574 300.037 273.102 299.671 273.645C299.428 273.129 299.395 272.604 299.599 272.067Z" fill="#686C64"/>
<path d="M353.748 232.207C353.292 231.697 353.319 231.169 353.688 230.629C353.927 231.145 353.945 231.673 353.748 232.207Z" fill="#8F918A"/>
<path d="M353.69 238.843C353.303 238.402 353.318 237.982 353.75 237.581C353.969 238.012 353.921 238.432 353.69 238.843Z" fill="#8F918A"/>
<path d="M353.362 242.954C353.018 242.615 353.06 242.303 353.425 242.009C353.62 242.339 353.584 242.651 353.362 242.954Z" fill="#8F918A"/>
<path d="M352.733 247.7C352.382 247.422 352.547 247.218 352.832 247.032C352.955 247.278 352.91 247.5 352.733 247.7Z" fill="#8F918A"/>
<path d="M353.051 245.803C352.76 245.566 352.82 245.362 353.108 245.176C353.282 245.401 353.246 245.611 353.051 245.803Z" fill="#8F918A"/>
<path d="M353.456 229.082C353.177 228.893 353.018 228.686 353.369 228.417C353.543 228.62 353.579 228.842 353.456 229.082Z" fill="#8F918A"/>
<path d="M353.746 232.207C353.291 231.697 353.318 231.169 353.686 230.629C353.713 230.099 353.662 229.577 353.456 229.082C353.177 228.893 353.018 228.686 353.369 228.416C353.336 228.155 353.327 227.892 353.267 227.637C352.535 224.398 351.716 221.187 350.655 218.038C349.743 215.333 348.586 212.746 347.017 210.353C346.49 210.344 345.974 210.371 345.458 210.515C342.622 211.297 339.785 212.08 336.933 212.805C336.306 212.964 335.923 213.279 335.623 213.81C334.738 215.363 333.887 216.938 332.93 218.449C331.56 220.611 329.877 222.437 327.392 223.391C325.577 224.086 323.778 224.833 322.018 225.658C320.543 226.347 319.133 227.187 317.856 228.206C317.028 228.866 316.429 229.751 315.79 230.581C314.252 232.581 312.731 234.596 311.241 236.632C310.677 237.403 310.003 238.063 309.373 238.765C308.419 239.829 307.277 240.087 305.942 239.634C305.745 239.568 305.538 239.535 305.334 239.487C305.079 241.031 304.839 242.576 304.569 244.117C304.191 246.273 303.795 248.426 303.4 250.582C303.184 251.764 302.95 252.939 302.719 254.117C302.326 256.112 301.924 258.106 301.531 260.103C300.92 263.224 300.308 266.346 299.711 269.47C299.633 269.878 299.633 270.304 299.597 270.721C299.328 271.177 299.552 271.629 299.597 272.085C300.062 272.592 300.035 273.12 299.669 273.662C299.609 274.835 299.837 275.986 299.921 277.15C299.669 277.789 299.714 278.421 299.978 279.045C299.945 280.529 300.071 282.008 300.239 283.48C300.032 283.912 300.08 284.329 300.308 284.739C300.233 286.437 300.38 288.125 300.551 289.81C300.284 290.557 300.371 291.288 300.623 292.02C300.584 293.084 300.668 294.143 300.866 295.19C300.665 295.519 300.71 295.834 300.932 296.134C301.019 296.98 301.103 297.825 301.19 298.671C300.995 299.103 301.025 299.52 301.256 299.93C301.334 300.776 301.415 301.622 301.493 302.467C301.283 302.8 301.337 303.112 301.558 303.415C301.552 304.047 301.597 304.674 301.81 305.28C301.681 305.52 301.714 305.742 301.891 305.943C301.966 306.47 302.044 307.001 302.119 307.529C301.912 308.069 301.936 308.593 302.212 309.103C302.287 309.739 302.362 310.375 302.44 311.01C302.245 311.343 302.293 311.658 302.521 311.955C302.593 312.483 302.665 313.01 302.734 313.538C302.566 314.153 302.524 314.752 302.983 315.277C303.004 315.436 303.025 315.595 303.049 315.754C302.803 316.288 302.884 316.762 303.307 317.169C303.328 317.331 303.352 317.493 303.373 317.655C303.136 319.331 303.31 321.014 303.31 322.696C303.31 322.852 303.328 323.026 303.4 323.158C303.957 324.183 303.873 325.302 303.891 326.405C303.903 327.146 303.912 327.88 304.281 328.558C304.488 328.936 304.536 329.362 304.524 329.788C304.491 330.906 304.698 331.974 305.037 333.044C305.37 334.097 305.043 335.26 305.454 336.322C305.879 337.419 305.858 338.594 306.053 339.731C306.122 340.145 306.128 340.58 306.269 340.969C306.581 341.827 306.659 342.712 306.701 343.611C306.725 344.136 306.677 344.679 306.923 345.164C307.271 345.848 307.298 346.577 307.325 347.32C307.352 348.001 307.271 348.703 307.601 349.339C307.928 349.971 307.952 350.652 307.976 351.339C308 351.965 307.934 352.613 308.245 353.198C308.581 353.824 308.611 354.505 308.626 355.195C308.638 355.774 308.551 356.412 308.764 356.916C309.217 357.972 309.262 359.054 309.304 360.161C309.319 360.571 309.415 361.006 309.58 361.384C309.979 362.29 309.877 363.246 309.952 364.185C310.027 365.132 310.596 365.966 310.578 366.946C310.569 367.465 310.674 367.99 310.752 368.509C310.983 370.068 311.466 371.585 311.478 373.181C311.478 373.435 311.553 373.711 311.67 373.939C311.988 374.575 312.027 375.253 312.057 375.939C312.081 376.515 311.988 377.13 312.258 377.654C312.716 378.542 312.683 379.49 312.728 380.434C312.758 381.061 312.677 381.706 312.992 382.293C313.301 382.869 313.349 383.496 313.358 384.134C313.367 384.659 313.289 385.247 313.493 385.697C313.967 386.746 314.006 387.832 314.045 388.938C314.06 389.349 314.18 389.769 314.321 390.162C314.569 390.869 314.683 391.586 314.668 392.333C314.656 392.965 314.656 393.598 314.914 394.201C315.232 394.941 315.313 395.715 315.325 396.516C315.334 396.984 315.448 397.454 315.559 397.913C315.757 398.732 315.952 399.538 315.997 400.39C316.039 401.17 316.165 401.973 316.42 402.708C316.668 403.425 316.77 404.132 316.788 404.873C316.809 405.716 316.821 406.552 317.232 407.335C317.481 407.812 317.397 408.366 317.451 408.891C317.514 409.518 317.385 410.028 316.809 410.381C316.627 410.495 316.567 410.714 316.698 410.93C317.934 410.615 319.205 410.621 320.444 410.798C321.385 410.933 322.315 410.981 323.256 410.99C324.357 411.002 325.46 411.044 326.558 411.023C328.447 410.99 330.306 411.365 332.201 411.329C335.032 411.278 337.863 411.329 340.696 411.347C341.059 411.347 341.422 411.404 341.785 411.434C342.007 411.38 342.184 411.266 342.181 411.02C342.166 409.704 342.25 408.372 342.085 407.074C341.944 405.967 341.905 404.873 341.896 403.769C341.875 400.552 342.058 397.319 341.788 394.126C341.509 390.803 341.656 387.493 341.581 384.179C341.545 382.545 341.548 380.911 341.53 379.277C341.527 378.908 341.569 378.527 341.491 378.173C341.101 376.401 341.248 374.605 341.236 372.818C341.218 370.341 341.227 367.861 341.212 365.384C341.209 364.859 341.236 364.314 341.104 363.813C340.915 363.084 340.912 362.353 340.9 361.618C340.819 356.934 340.981 352.253 340.645 347.563C340.376 343.785 340.573 339.974 340.561 336.178C340.561 335.755 340.618 335.314 340.511 334.918C340.172 333.674 340.244 332.405 340.238 331.146C340.226 328.774 340.244 326.399 340.271 324.027C340.292 322.234 340.319 320.441 340.609 318.666C340.78 317.628 341.122 316.606 341.17 315.565C341.278 313.25 341.653 310.953 341.593 308.629C341.569 307.673 341.749 306.743 341.938 305.811C342.211 304.47 342.394 303.121 342.496 301.756C342.708 298.983 342.547 296.17 343.374 293.459C343.404 293.36 343.404 293.249 343.407 293.144C343.515 290.937 343.845 288.745 343.836 286.526C343.83 285.051 344.004 283.585 344.319 282.14C344.721 280.289 344.79 278.403 344.876 276.52C345.062 275.779 345.248 275.039 345.434 274.298C345.089 274.001 345.278 273.806 345.56 273.629C346.136 271.554 346.721 269.482 347.278 267.401C347.536 266.439 347.74 265.461 347.968 264.49C347.623 264.205 347.8 264.004 348.079 263.821C348.211 263.359 348.343 262.897 348.475 262.436C348.325 262.07 348.409 261.785 348.778 261.608C349.341 260.088 349.947 258.582 350.463 257.047C351.282 254.618 352.001 252.159 352.4 249.617C352.055 249.341 352.22 249.137 352.496 248.948C352.661 248.555 352.727 248.141 352.724 247.718C352.373 247.44 352.538 247.236 352.823 247.05C353.006 246.66 353.06 246.246 353.042 245.82C352.751 245.583 352.811 245.379 353.099 245.194C353.183 244.453 353.27 243.712 353.354 242.972C353.009 242.633 353.051 242.321 353.417 242.027C353.569 240.977 353.722 239.925 353.68 238.857C353.294 238.417 353.309 237.997 353.74 237.595C353.797 235.805 353.917 234.015 353.734 232.225L353.746 232.207Z" fill="#686C64"/>
<path d="M347.976 264.469C347.632 264.184 347.809 263.983 348.087 263.8C348.201 264.049 348.156 264.271 347.976 264.469Z" fill="#8F918A"/>
<path d="M352.409 249.599C352.065 249.323 352.23 249.119 352.505 248.93C352.628 249.176 352.589 249.395 352.409 249.599Z" fill="#8F918A"/>
<path d="M345.441 274.278C345.096 273.981 345.285 273.786 345.567 273.609C345.684 273.861 345.627 274.083 345.441 274.278Z" fill="#8F918A"/>
<path d="M348.482 262.415C348.332 262.049 348.416 261.764 348.784 261.587C348.859 261.929 348.734 262.196 348.482 262.415Z" fill="#8F918A"/>
<path d="M298.384 270.164C298.642 270.119 298.861 270.167 299.008 270.403C298.75 270.448 298.558 270.335 298.384 270.164Z" fill="#696D65"/>
<path d="M303.433 116.394C303.511 116.361 303.58 116.37 303.646 116.421L303.532 116.487L303.433 116.394Z" fill="#814617"/>
<path d="M299.049 270.451C299.154 270.502 299.259 270.553 299.364 270.604C299.202 270.667 299.106 270.604 299.049 270.451Z" fill="#8F918A"/>
<path d="M305.327 219.717C305.237 219.136 305.237 218.554 305.318 217.972C305.588 217.954 305.846 217.894 306.038 217.693C306.839 216.857 307.738 216.134 308.647 215.417C310.254 214.155 311.813 212.83 313.454 211.612C314.068 211.156 314.518 210.656 314.854 209.975C316.956 205.729 319.082 201.492 321.211 197.258C321.517 196.649 321.895 196.067 322.204 195.468C324.084 191.818 325.934 188.151 327.709 184.448C328.138 183.551 328.555 182.642 328.972 181.734C329.154 181.332 329.421 181.029 329.82 180.84C330.243 180.933 330.357 181.35 330.627 181.605C330.696 182.568 330.522 183.449 330.069 184.337C329.403 185.644 328.897 187.029 328.318 188.379C328.192 188.67 328.066 188.961 327.901 189.23C326.081 192.202 324.953 195.489 323.622 198.682C322.692 200.91 321.757 203.135 320.8 205.351C319.46 208.458 317.538 211.222 315.667 214.014C315.457 214.326 315.193 214.572 314.875 214.77C312.869 216.023 311.109 217.606 309.202 218.989C308.479 219.513 307.729 219.996 307.019 220.533C306.647 220.812 306.233 220.794 305.822 220.845C305.672 220.461 305.342 220.155 305.327 219.711V219.717Z" fill="#E6A47C"/>
<path d="M305.329 219.717C303.982 219.439 302.69 218.998 301.439 218.416C300.819 218.128 300.186 217.855 299.544 217.618C296.285 216.407 293.022 215.214 289.763 214.008C288.872 213.681 287.958 213.402 287.103 213.001C285.091 212.053 282.905 211.594 280.878 210.713C279.037 209.912 277.16 209.231 275.249 208.623C274.65 208.431 274.074 208.155 273.486 207.927C272.209 207.432 270.949 206.886 269.645 206.473C267.882 205.912 266.2 205.156 264.481 204.487C262.568 203.744 260.568 203.234 258.7 202.367C258.604 202.322 258.505 202.271 258.403 202.265C256.517 202.137 254.883 201.231 253.171 200.562C251.356 199.855 249.533 199.162 247.731 198.427C244.613 197.156 241.509 195.845 238.384 194.58C237.068 194.046 235.74 193.528 234.384 193.102C232.471 192.502 230.606 191.788 228.732 191.087C226.66 190.313 224.579 189.563 222.486 188.856C220.986 188.349 219.49 187.842 218.054 187.179C217.67 187.003 217.286 186.823 216.884 186.703C213.706 185.749 210.695 184.319 207.508 183.38C206.299 183.023 205.157 182.451 203.975 182.004C203.238 181.725 202.476 181.509 201.732 181.248C200.788 180.918 199.834 180.606 198.914 180.223C197.792 179.755 196.653 179.356 195.498 178.984C194.497 178.663 193.51 178.283 192.533 177.899C191.207 177.377 189.882 176.87 188.508 176.489C187.699 176.264 186.928 175.905 186.146 175.599C185.852 175.485 185.573 175.329 185.276 175.221C182.502 174.228 179.729 173.23 176.946 172.264C175.701 171.833 174.43 171.473 173.24 170.903C173.144 170.858 173.048 170.813 172.949 170.777C169.977 169.706 167.014 168.603 164.025 167.58C162.777 167.155 161.53 166.738 160.327 166.201C159.944 166.03 159.554 165.862 159.152 165.739C157.236 165.155 155.341 164.525 153.497 163.739C152.75 164.219 152.015 164.708 151.545 165.493C151.35 165.817 151.029 165.994 150.744 166.222C149.715 167.041 148.9 168.036 148.33 169.23C147.301 170.138 146.729 171.344 146.162 172.552C145.892 172.822 145.622 173.092 145.352 173.362C145.166 173.746 144.981 174.129 144.795 174.513C143.973 175.32 142.615 177.326 142.003 178.633C141.544 179.08 141.256 179.638 140.983 180.208C140.687 180.349 140.519 180.603 140.351 180.87C139.634 182.01 138.905 183.143 138.195 184.289C138.063 184.505 138.003 184.763 137.91 185.002C137.349 185.83 136.734 186.628 136.36 187.566C135.925 187.743 135.796 188.136 135.673 188.535C135.934 189.132 136.533 189.284 137.037 189.542C140.408 191.267 143.778 192.997 147.167 194.682C151.314 196.745 155.482 198.766 159.635 200.811C167.38 204.622 175.03 208.638 183.03 211.906C183.507 212.101 183.933 212.479 184.508 212.344C185.252 212.86 186.092 213.183 186.937 213.471C188.88 214.134 190.82 214.806 192.785 215.402C194.695 215.984 196.617 216.551 198.563 216.998C200.971 217.552 203.418 217.933 205.766 218.74C206.407 218.959 207.097 219.043 207.766 219.181C208.95 219.424 210.144 219.633 211.322 219.909C212.141 220.101 212.938 220.386 213.643 220.878C215.667 222.299 217.697 223.715 219.721 225.133C220.627 225.769 221.493 226.461 222.432 227.04C224.762 228.482 226.852 230.276 229.266 231.586C229.404 231.661 229.536 231.757 229.647 231.865C230.69 232.854 231.952 233.523 233.149 234.288C233.815 234.714 234.501 235.112 235.119 235.598C236.324 236.543 237.596 237.379 238.921 238.147C239.377 238.411 239.851 238.669 240.232 239.023C241.323 240.039 242.628 240.735 243.872 241.52C244.229 241.745 244.634 241.91 244.945 242.183C246.427 243.469 248.118 244.438 249.773 245.464C250.175 245.712 250.601 245.949 250.94 246.273C251.71 247.011 252.613 247.557 253.521 248.081C254.709 248.771 255.833 249.545 256.955 250.333C257.645 250.816 258.334 251.308 259.069 251.713C262.802 253.776 266.344 256.169 270.167 258.079C271.297 258.642 272.455 259.152 273.558 259.761C275.957 261.086 278.527 262.055 280.92 263.401C282.383 264.226 283.96 264.85 285.487 265.563C288.114 266.796 290.845 267.737 293.622 268.559C293.739 267.35 294.132 266.208 294.438 265.045C295.088 262.562 295.775 260.085 296.45 257.608C297.22 254.777 297.997 251.947 298.768 249.113C299.58 246.129 300.39 243.146 301.2 240.162C301.418 239.352 301.64 238.546 301.859 237.736C301.208 236.597 300.648 235.439 300.456 234.099C300.303 233.037 300.357 232.027 300.492 230.977C300.768 228.815 301.436 226.791 302.33 224.818C302.75 223.889 303.311 223.088 304.072 222.419C304.663 221.9 305.242 221.364 305.826 220.833C305.676 220.449 305.347 220.143 305.332 219.699L305.329 219.717Z" fill="#696D65"/>
<path d="M284.452 94.195C284.347 94.4049 284.161 94.5458 283.951 94.4439C283.246 94.102 282.455 93.8442 281.888 93.3404C280.62 92.2129 278.901 91.7991 277.702 90.5847C277.528 90.4077 277.252 90.2788 277.003 90.2308C276.17 90.0719 275.678 89.4152 275.066 88.9414C274.976 88.8725 275.009 88.6476 274.988 88.4946C275.243 88.5396 275.54 88.5126 275.744 88.6356C278.524 90.3178 281.291 92.018 284.053 93.7272C284.218 93.8292 284.32 94.0391 284.452 94.195Z" fill="#E2A078"/>
<path d="M288.57 96.7619C287.998 96.8009 287.473 96.7559 286.987 96.3511C286.519 95.9613 285.962 95.6824 285.449 95.3406C285.173 95.1547 285.065 94.8728 285.077 94.543C286.381 95.0587 287.611 95.6974 288.57 96.7619Z" fill="#E2A078"/>
<path d="M292.116 99.2061C291.06 99.29 290.97 99.2271 290.812 98.2705C291.345 98.4444 291.966 98.4954 292.116 99.2061Z" fill="#E2A078"/>
<path d="M293.325 99.9077C293.115 99.9137 292.905 99.9287 292.698 99.9197C292.239 99.9047 292.026 99.6798 292.122 99.209C292.659 99.209 293.118 99.3409 293.328 99.9077H293.325Z" fill="#E2A078"/>
<path d="M294.222 100.381C293.532 100.633 293.463 100.594 293.322 99.8984C293.706 99.8984 294.03 100.018 294.222 100.381Z" fill="#E2A078"/>
<path d="M274.985 88.4982C274.185 88.5312 274.176 88.5252 274.005 87.8775C274.485 87.8445 274.815 88.0454 274.985 88.4982Z" fill="#E2A078"/>
<path d="M289.823 97.7189C289.295 97.7009 288.979 97.484 288.875 97.0682C289.346 97.0592 289.676 97.2541 289.823 97.7189Z" fill="#E2A078"/>
<path d="M328.685 177.671C329.393 178.609 329.611 179.725 329.818 180.843C329.42 181.032 329.153 181.335 328.97 181.737C328.553 182.643 328.136 183.554 327.707 184.451C325.932 188.154 324.082 191.818 322.202 195.471C321.893 196.07 321.515 196.652 321.209 197.261C319.08 201.495 316.954 205.729 314.852 209.978C314.516 210.659 314.07 211.159 313.452 211.615C311.812 212.833 310.252 214.155 308.645 215.42C307.737 216.137 306.837 216.86 306.036 217.696C305.844 217.897 305.587 217.957 305.317 217.975C305.092 217.801 305.053 217.546 304.978 217.292C304.228 214.722 303.371 212.191 302.264 209.753C301.547 208.176 300.669 206.683 299.733 205.225C298.969 204.035 298.153 202.877 297.406 201.675C295.982 199.381 294.183 197.411 292.243 195.561C291.637 194.985 290.929 194.517 290.3 193.968C289.91 193.627 289.493 193.27 289.541 192.661C291.004 191.806 292.629 191.342 294.195 190.742C302.243 187.662 310.303 184.613 318.361 181.548C321.65 180.298 324.94 179.035 328.229 177.785C328.376 177.728 328.535 177.71 328.688 177.674L328.685 177.671Z" fill="#FFB78A"/>
<path d="M300.839 115.806C300.344 115.705 300.227 115.273 300.074 114.892C299.609 113.728 299.163 112.556 298.701 111.39C298.644 111.249 298.536 111.132 298.452 111.003C298.461 110.448 298.029 109.989 298.107 109.419C298.317 109.458 298.521 109.524 298.605 109.737C299.355 111.656 300.095 113.576 300.833 115.501C300.866 115.591 300.836 115.705 300.836 115.806H300.839Z" fill="#814617"/>
<path d="M295.313 102.453C295.787 102.561 295.847 102.876 295.721 103.281C295.403 103.095 295.202 102.852 295.313 102.453Z" fill="#814617"/>
<path d="M295.945 104.037C296.416 104.148 296.476 104.46 296.35 104.865C296.032 104.679 295.831 104.433 295.945 104.037Z" fill="#814617"/>
<path d="M296.581 105.617C297.052 105.728 297.109 106.04 296.986 106.445C296.668 106.259 296.464 106.016 296.581 105.617Z" fill="#814617"/>
<path d="M294.674 100.874C295.151 100.981 295.211 101.296 295.085 101.704C294.767 101.518 294.566 101.272 294.674 100.874Z" fill="#814617"/>
<path d="M301.846 116.28C301.196 116.4 301.16 116.385 300.839 115.81C301.271 115.759 301.72 115.669 301.846 116.28Z" fill="#814617"/>
</svg>
