<svg width="497" height="497" viewBox="0 0 497 497" fill="none" xmlns="http://www.w3.org/2000/svg">
<path d="M330.6 209.3C321.3 209.1 314.6 205.6 306.6 203.8C300.8 202.5 293.1 202.6 292.1 202.6C291.9 203.4 291.7 204.1 291.5 204.7C290.6 208.7 291.6 211 292.2 212C292.2 212 294 215.4 297.5 215.8C304.3 216.6 333.3 217.2 333.3 217.2L330.6 209.3Z" fill="#D89D75"/>
<path d="M305.9 214C303.6 209.3 299.2 201.8 299.2 201.8C295.9 195.8 294.5 189.7 291.5 184.3C286.8 175.2 285.5 172.4 284.7 169.9C283.3 165.9 280.5 160.5 276.5 159.4C270.3 157.7 261.6 161.4 262.9 168.3C264.8 178.4 285.3 208 292.5 214.8C295.5 217.6 298 219.1 299.1 219.2C300.3 219.3 302.9 218.2 305 215.4C305.3 215 305.6 214.6 305.9 214Z" fill="#D89D75"/>
<path d="M330.6 209.3C330.4 209.4 330.5 210.7 333.3 217.2C333.3 217.2 335.2 216.6 338.8 216.7C343.7 216.8 350.1 214.2 353.1 211.4C355.7 209 356.9 204.6 355.7 201C354.5 197.4 340.1 204.3 335.3 204.9L330.6 209.3Z" fill="#D89D75"/>
<path d="M340.3 204.9C340.3 204.9 345.2 203.7 344.8 201.1C344.5 198.9 344.2 198.2 335.2 205C335.2 204.9 335.9 206.3 340.3 204.9Z" fill="#D89D75"/>
<path d="M345.9 195.2C348.4 199.4 354.3 212.7 354.5 214.2C355 217.8 353.7 221.6 350.2 221.5C347.6 221.4 345.1 220.6 343.5 221C335.5 223.2 310.9 228.3 301.1 229.7C298.8 230 294.6 231 293 231C283.1 231 288.1 210.3 291.9 210.4C306.3 210.5 338.9 210.9 344.1 210.9C344.1 210.9 333.1 191.5 336.3 191C340.8 190.3 343.8 191.6 345.9 195.2Z" fill="#ECAD83"/>
<path d="M260.6 230.8C272.1 232 283.1 231.6 293 231.1C291.7 227.9 291.1 213.5 291.9 210.5C288.3 210.3 260.5 209 260.5 209C251.7 208.1 199.9 202 183.9 204.6C179.8 205.1 176.1 205.9 173.1 206.8C167.3 208.5 164.8 239 172.9 240C190.5 238.5 229.1 231.5 237.1 230.3C245.3 229.1 260.6 230.8 260.6 230.8Z" fill="#333333"/>
<path d="M264.6 204.8C276.6 202.2 277.1 191.5 288.2 181.8C289.6 180.6 292 172.1 291.1 168.3C290.1 164 288.3 159.8 284 157.4C280.7 155.6 271 152.6 249.7 162.4C239.6 166.2 179.6 191.5 179.6 191.5L196.9 224.2C203.3 219.7 242.4 204 254.7 202.8C254.8 202.8 261.2 205.6 264.6 204.8Z" fill="#FF8AA0"/>
<path d="M291.1 180.5C291.1 180.5 299.8 176.8 307.7 174.4L307.9 161C300.1 164.1 289.4 162.6 289.4 162.6C291.4 175 287.2 180.6 286 184L291.1 180.5Z" fill="#ECAD83"/>
<path d="M331.4 176.1C337.7 174.9 339.4 169.5 340.1 166.1C342.2 155.7 338.4 151 332.7 145.8C325.2 139 304.3 156.2 302 160.1C295.8 170.3 304.7 184.6 309.5 189.2C314.8 194.3 315.1 191.2 316.9 188.9C317 188.8 317.5 188.7 317.5 188.7C318.2 188 319 186.9 320.4 186.4C320.4 186.4 320.8 185.6 321.1 185.2C321.3 184.9 321.5 184.8 321.8 185C322.8 185.4 323.8 185.9 324.4 185.8C326.4 185.7 328.5 176.6 331.4 176.1Z" fill="#F6BB92"/>
<path d="M316.4 184.5C316.4 184.5 316.6 185.3 319.1 187.5C319.5 187.6 320.3 187.8 320.5 186.7C320.6 185.9 318.3 185.9 316.4 184.5Z" fill="#D6876B"/>
<path d="M316.4 184.5C316.4 184.5 315.8 186.2 317.5 188.8C317.9 189.1 318.3 189 318.5 188.9C319.5 188.4 319 187.5 319 187.5C316.6 185.3 316.4 184.5 316.4 184.5Z" fill="#CC785E"/>
<path d="M333.3 144.1C324.1 135.8 299.9 137.9 298.2 164.8C298.1 166.6 298.9 169.6 303.7 170C307.1 170.3 310.3 169.6 310.3 169.6C311.3 169.4 312.3 169.1 313.4 168.8C314.6 168.5 318.1 163.4 319.2 164.1C329.5 170.9 337.6 169.6 339.8 167.2C344 160.5 343.1 153 333.3 144.1Z" fill="#602F0F"/>
<path d="M311.2 165.6C308.9 170.9 310.4 172.6 313 174.6L317.4 167L318.5 163.3C315.9 161.4 313.5 160.3 311.2 165.6Z" fill="#F6BB92"/>
<path d="M306.3 145.1C305.8 141.3 310.8 137.8 317.5 137.2C324.2 136.6 330 139.2 330.4 143C330.9 146.8 326.6 149 319.9 149.6C313.3 150.1 306.8 148.8 306.3 145.1Z" fill="#4C230C"/>
<path d="M319.3 166C319.8 165.1 320.4 164.5 321 163.9C321.7 163.1 322.3 162.7 322.3 162.7L318.8 161.2C318.4 161.6 318.1 162 317.7 162.4C317.7 162.4 318.1 162.6 318.7 162.9H318.6C318.4 163.8 318 165.2 317.3 166.9C317.2 166.9 317.6 168.6 319.3 166Z" fill="#602F0F"/>
<path d="M305 143.4C304.5 139.4 310 135.7 317.3 135.1C324.6 134.5 330.9 137.2 331.4 141.2C331.9 145.2 327.2 147.5 319.9 148.2C312.7 148.7 305.5 147.4 305 143.4Z" fill="#602F0F"/>
<path d="M313.9 136.7C313.8 136.3 315.6 135.7 317.8 135.6C320 135.4 321.9 135.6 321.9 136.1C322 136.5 320.5 136.9 318.2 137.1C316.1 137.1 314 137.1 313.9 136.7Z" fill="#4C230C"/>
<path d="M179.7 191.5C165.7 199 160.8 213.7 160.2 220.5C159 234.5 170.3 243.8 170.3 243.8C170.3 243.8 201.5 248.9 202 241.7C202.3 235.8 203.3 225 202.7 218.5C201.7 209.6 179.7 191.5 179.7 191.5Z" fill="#3D3C3C"/>
<path d="M212.1 389.2C208.1 388.3 196.2 389.2 194.7 389.1C191.1 389 187.6 387 188.3 383.6C188.8 381 190.4 378.6 189.9 377.1C187.2 368 178.5 342.5 177.7 332.4C177.5 330.1 197.6 328.7 197.4 332.3C196.4 346.7 198.8 372.5 199.8 378C199.8 378 218.9 380.7 218.5 384.4C218.3 386.7 216.2 390.1 212.1 389.2Z" fill="#F6BB92"/>
<path d="M174.8 300.6C173.9 312.1 176.5 324.1 177.7 333C181 331.8 194.4 331.4 197.4 332.3C197.6 328.7 196.7 301 196.7 301C197.8 292.2 204.9 240.6 202.6 224.5C202.2 220.4 201.4 216.7 200.6 213.7C199 207.8 166.5 211.2 165.2 219.3C166.3 236.9 174.7 269.2 175.8 277.3C176.8 285.3 174.8 300.6 174.8 300.6Z" fill="#3D3C3C"/>
<path d="M331.2 213.1C309.5 216.5 302.5 215.8 296.6 215.3C290.7 214.8 283.8 215.8 282.7 215.9C282.5 216.7 282.3 217.4 282.1 218C281.2 222 282.2 224.3 282.8 225.3C282.8 225.3 284.6 228.7 288.1 229.1C294.9 229.9 334.3 220.9 334.3 220.9L331.2 213.1Z" fill="#F6BB92"/>
<path d="M293.7 225.4C292.8 220.3 290.5 212.1 290.5 212.1C288.9 205.4 287.3 196.4 285.9 190.4C283.8 180.4 283.3 177.3 283.2 174.7C283 170.5 281.7 164.5 278.1 162.4C272.6 159.1 263.2 160.3 262.7 167.3C261.9 177.5 275.6 214.1 280.7 222.6C282.8 226.1 284.8 228.2 285.9 228.6C287 229 289.8 228.7 292.6 226.6C292.9 226.2 293.3 225.9 293.7 225.4Z" fill="#F6BB92"/>
<path d="M331.2 213.1C331 213.2 331.1 214.5 333.9 221C333.9 221 335.8 220.4 339.4 220.5C344.3 220.6 350.7 218 353.7 215.2C356.3 212.8 357.5 208.4 356.3 204.8C355.1 201.2 340.7 208.1 335.9 208.7L331.2 213.1Z" fill="#F6BB92"/>
<path d="M340.8 208.7C340.8 208.7 345.7 207.5 345.3 204.9C345 202.7 344.7 201.9 335.7 208.8C335.7 208.7 336.4 210.1 340.8 208.7Z" fill="#F6BB92"/>
</svg>
