<svg width="501" height="501" viewBox="0 0 501 501" fill="none" xmlns="http://www.w3.org/2000/svg">
<path d="M305.639 237.217C304.95 236.01 304.356 234.785 304.153 233.365C303.991 232.241 304.048 231.171 304.191 230.06C304.483 227.771 305.191 225.628 306.138 223.539C306.582 222.554 307.176 221.707 307.982 220.999C308.608 220.449 309.22 219.881 309.84 219.319C310.275 219.265 310.716 219.284 311.106 218.989C311.859 218.421 312.653 217.906 313.418 217.354C315.437 215.887 317.301 214.21 319.425 212.887C319.761 212.677 320.044 212.417 320.263 212.086C322.248 209.13 324.28 206.203 325.699 202.914C326.712 200.567 327.702 198.212 328.686 195.853C330.096 192.471 331.29 188.995 333.217 185.845C333.392 185.562 333.525 185.251 333.659 184.943C334.271 183.515 334.811 182.048 335.513 180.663C335.992 179.724 336.176 178.79 336.103 177.771C336.151 177.746 336.211 177.726 336.246 177.688C337.249 176.568 337.342 175.047 337.961 173.758C338.008 173.656 337.907 173.402 337.799 173.323C336.957 172.716 336.291 171.824 335.173 171.653C334.592 170.802 333.7 170.303 332.912 169.694C330.442 167.782 328.042 165.773 325.48 163.995C320.943 160.845 316.571 157.47 312.065 154.282C310.062 152.866 308.062 151.45 305.931 150.221C303.953 149.082 302.02 147.859 300.197 146.465C297.94 144.738 295.6 143.119 293.32 141.417C291.533 140.084 289.748 138.747 288.196 137.125C287.135 136.016 286.332 134.769 285.767 133.353C285.078 131.622 284.681 129.841 284.773 127.968C284.817 127.022 284.878 126.072 284.903 125.126C284.932 124.104 285.157 123.132 285.611 122.224C286.011 121.427 286.449 120.649 286.91 119.887C287.122 119.535 287.275 119.202 287.132 118.792C287.624 118.779 287.948 118.532 288.196 118.109C288.596 117.43 289.17 116.906 289.812 116.452C290.082 116.262 290.367 116.081 290.599 115.846C291.948 114.487 293.542 113.509 295.27 112.712C296.336 112.22 297.498 112.058 298.6 111.68C299.867 111.245 301.159 110.978 302.512 111.048C303.344 111.093 304.179 111.048 305.014 111.048C305.496 111.178 305.982 111.302 306.461 111.439C306.89 111.563 307.344 111.645 307.731 111.848C309.954 113.007 312.208 114.134 314.135 115.757C315.497 116.903 316.701 118.224 317.831 119.614C318.78 120.78 319.86 121.837 320.924 122.904C322.54 124.523 324.162 126.133 325.832 127.695C328.598 130.282 331.366 132.87 334.205 135.378C335.503 136.521 336.71 137.756 338.015 138.887C340.793 141.293 343.349 143.944 346.235 146.237C347.454 147.205 348.581 148.304 349.692 149.386C352.407 152.031 355.347 154.431 357.976 157.172C359.995 159.277 361.04 161.756 361.58 164.553C362.005 166.75 361.548 168.871 361.151 170.989C360.583 174.021 359.535 176.885 357.928 179.543C357.385 180.441 357.008 181.441 356.601 182.416C355.785 184.375 354.763 186.223 353.772 188.096C351.921 191.595 350.203 195.16 348.422 198.697C348.168 199.202 348.222 199.621 348.546 200.091C349.584 201.606 350.534 203.174 351.381 204.809C351.861 205.74 352.559 206.559 353.137 207.438C353.286 207.664 353.356 207.943 353.461 208.194C352.902 208.181 352.356 208.213 351.807 208.362C348.803 209.191 345.8 210.019 342.78 210.788C342.117 210.956 341.71 211.289 341.393 211.851C340.456 213.496 339.554 215.163 338.542 216.76C337.091 219.049 335.31 220.983 332.677 221.992C330.757 222.729 328.852 223.52 326.988 224.393C325.426 225.123 323.933 226.012 322.581 227.091C321.705 227.79 321.07 228.727 320.393 229.606C318.765 231.724 317.155 233.857 315.577 236.013C314.98 236.829 314.266 237.528 313.599 238.271C312.589 239.398 311.379 239.671 309.967 239.191C309.757 239.122 309.538 239.087 309.322 239.036C308.097 238.429 306.868 237.82 305.642 237.213L305.639 237.217Z" fill="#FFB78A"/>
<path d="M137.754 137.791C139.167 136.201 140.859 134.921 142.46 133.537C142.799 133.245 143.149 132.972 143.406 132.6C144.723 130.673 146.625 129.543 148.762 128.787C151.184 127.933 153.693 127.425 156.245 127.133C157.239 127.019 158.236 126.907 159.22 126.73C161.106 126.387 162.986 126.438 164.869 126.714C165.145 126.755 165.424 126.774 165.704 126.768C168.123 126.726 170.482 127.165 172.771 127.869C174.537 128.412 176.34 128.72 178.134 129.098C182.271 129.971 186.421 130.775 190.564 131.619C194.215 132.365 197.867 133.111 201.512 133.886C204.667 134.556 207.817 135.258 210.97 135.956C213.85 136.594 216.726 137.239 219.6 137.902C220.574 138.128 221.539 138.414 222.495 138.706C222.892 138.826 223.241 138.804 223.632 138.684C230.449 136.604 237.38 134.94 244.266 133.115C252.769 130.86 261.278 128.647 269.78 126.39C273.654 125.361 277.508 124.263 281.376 123.212C281.744 123.11 282.144 123.126 282.531 123.088C282.319 124.123 282.065 125.148 281.903 126.19C281.544 128.501 281.084 130.79 280.541 133.064C279.22 138.582 278.067 144.138 277.105 149.729C277.01 150.288 276.829 150.809 276.438 151.234C275.467 151.269 274.6 151.698 273.727 152.031C271.298 152.962 268.799 153.454 266.205 153.32C263.786 153.196 261.414 153.565 259.081 154.047C255.976 154.692 252.826 155.048 249.718 155.651C247.752 156.032 245.777 156.356 243.818 156.759C239.027 157.746 234.281 158.95 229.452 159.759C226.95 160.181 224.476 160.232 222.038 159.337C221.206 159.032 220.323 158.867 219.463 158.638C218.117 158.28 216.745 158.007 215.434 157.549C211.589 156.206 207.627 155.298 203.69 154.298C200.299 153.435 196.873 152.711 193.399 152.18C190.05 151.669 186.735 150.926 183.404 150.295C179.74 149.599 176.096 148.847 172.527 147.742C169.444 146.786 166.304 146.037 163.167 145.278C161.462 144.865 159.747 144.865 158.017 144.878C157.506 144.881 157.033 145.021 156.547 145.157C156.01 145.307 155.687 145.592 155.528 146.135C155.242 147.097 154.896 148.05 154.34 148.891C152.372 151.857 150.581 154.952 148.194 157.622C147.378 157.737 146.828 158.321 146.2 158.765C145.93 158.956 145.711 159.216 145.365 159.292C144.504 159.473 143.901 160.045 143.298 160.636C142.298 161.61 141.367 162.633 140.672 163.858C140.345 164.436 139.881 164.938 139.551 165.516C139.069 166.363 138.307 166.935 137.656 167.614C137.418 167.862 137.116 168.008 136.764 168.008C135.983 168.008 135.198 168.056 134.424 167.989C133.82 167.938 133.182 167.789 132.709 167.405C130.896 165.947 129.775 164.118 129.728 161.705C129.706 160.524 129.994 159.388 130.045 158.232C130.099 157.057 130.328 155.914 130.547 154.781C131.471 150.028 133.547 145.732 135.954 141.579C136.344 140.906 136.71 140.198 137.227 139.633C137.748 139.065 137.811 138.468 137.761 137.785L137.754 137.791Z" fill="#FFB78A"/>
<path d="M253.34 61.4831C253.397 61.391 253.454 61.2989 253.514 61.2068C253.857 60.9528 254.054 60.6194 254.054 60.1845C255.048 58.4858 256.384 57.0571 257.696 55.6093C258.191 55.0632 258.782 54.6441 259.442 54.3298C260.95 53.609 262.461 52.882 263.985 52.1962C265.008 51.739 266.078 51.4437 267.211 51.3675C268.157 51.304 269.104 51.1929 270.034 51.0214C272.647 50.5388 275.257 50.669 277.873 50.9801C279.645 51.1897 281.438 51.2691 283.172 51.739C284.032 51.9707 284.893 52.2152 285.734 52.5073C286.347 52.72 286.798 52.5645 287.242 52.1263C288.468 50.9135 289.636 49.6212 290.976 48.5481C293.249 46.732 295.666 45.1953 298.704 44.8301C300.371 44.6301 302.009 44.4587 303.686 44.5888C306.848 44.8333 309.591 46.1097 312.115 47.9321C313.519 48.9481 314.639 50.2277 315.69 51.6247C316.795 53.0883 317.516 54.679 318.1 56.3681C318.281 56.892 318.361 57.4508 318.462 57.9969C318.586 58.6541 318.672 59.3177 318.805 59.9717C318.951 60.6829 319.005 61.4069 319.119 62.1181C319.408 63.877 319.437 65.6677 319.866 67.4076C319.999 67.9442 320.024 68.5062 320.097 69.0586C320.161 69.5539 320.18 70.0619 320.297 70.5477C320.453 71.2049 320.529 71.8621 320.545 72.5352C320.574 73.764 320.831 74.9737 321.018 76.177C321.469 79.0885 321.901 82.0285 323.129 84.759C323.609 85.829 324.053 86.9149 324.533 87.9848C324.923 88.8516 325.377 89.6771 325.965 90.4359C326.441 91.0519 326.835 91.7345 327.222 92.4108C327.584 93.0426 327.946 93.6681 328.47 94.1824C328.549 94.2586 328.632 94.3444 328.683 94.4396C329.508 95.9636 330.553 97.3416 331.546 98.7545C332.759 100.485 333.94 102.237 335.131 103.981C335.445 104.441 335.772 104.895 336.045 105.381C336.484 106.162 336.969 106.892 337.544 107.587C338.071 108.222 338.436 108.997 338.839 109.727C339.011 110.035 338.798 110.448 338.458 110.521C338.134 110.591 337.798 110.645 337.468 110.642C334.182 110.607 330.895 110.515 327.609 110.527C324.653 110.537 321.704 110.388 318.754 110.232C316.64 110.121 314.528 109.889 312.417 109.699C311.134 109.584 309.89 109.273 308.651 108.94C308.756 108.689 308.959 108.467 308.848 108.159C308.715 107.794 308.607 107.419 308.461 107.057C306.473 102.164 304.479 97.2717 302.482 92.379C302.171 91.6139 302.162 90.8646 302.524 90.1184C302.717 89.7184 302.933 89.3247 303.105 88.9119C304.378 85.829 305.619 82.7334 306.921 79.6631C307.607 78.0471 307.87 76.358 307.943 74.6403C308.004 73.1988 307.867 71.7669 307.686 70.3254C307.54 69.1507 307.324 68.0236 306.924 66.9314C306.559 65.9408 306.115 64.9787 305.695 64.0104C305.607 63.8072 305.492 63.6103 305.362 63.4357C304.102 61.7402 302.819 60.0733 301.276 58.6033C299.92 57.3111 298.326 56.4189 296.707 55.5744C296.183 55.3013 295.666 54.9425 295.066 54.7965C293.773 54.479 292.484 54.1393 291.189 53.8313C290.986 53.7837 290.757 53.8472 290.538 53.8694C290.49 53.8757 290.42 53.9265 290.414 53.9646C290.401 54.0662 290.376 54.2218 290.43 54.2663C290.64 54.4409 290.868 54.606 291.113 54.733C292.106 55.241 293.107 55.7363 294.107 56.2284C295.329 56.8285 296.393 57.6032 297.056 58.8319C297.298 59.2796 297.59 59.6765 297.958 60.0257C299.676 61.6513 301.015 63.5341 301.889 65.7471C302.584 67.5029 303.4 69.2205 303.276 71.189C303.257 71.5129 303.324 71.8621 303.432 72.1701C303.606 72.6591 303.546 73.1607 303.603 73.656C303.695 74.4593 303.362 75.1896 303.279 75.9579C303.07 77.8502 302.587 79.6822 301.889 81.4316C301.171 83.2255 300.365 84.9876 299.625 86.7752C299.199 87.8039 298.895 88.8961 298.364 89.8549C298.018 90.4836 297.945 91.0995 297.828 91.7472C297.736 91.7694 297.64 91.7758 297.545 91.7694C297.342 91.3884 296.999 91.2614 296.593 91.2583V91.2646C296.374 90.6645 295.888 90.5248 295.32 90.5248L295.259 90.6296L295.313 90.5217C295.158 89.7692 294.497 89.7152 293.932 89.5311C293.583 89.3374 293.234 89.1437 292.884 88.9469C292.732 88.4547 292.379 88.2484 291.881 88.2579C291.773 88.1499 291.662 88.042 291.554 87.934C290.538 86.8069 289.239 86.1338 287.855 85.5845C287.722 85.3083 287.48 85.2194 287.195 85.2131C287.055 85.0448 286.95 84.8257 286.772 84.7177C283.848 82.908 280.915 81.1078 277.974 79.3266C277.755 79.1932 277.444 79.2218 277.174 79.1742V79.1837C276.99 78.7011 276.641 78.4916 276.133 78.5265C276.079 78.4693 276.016 78.4471 275.939 78.4662C275.844 78.1201 275.587 77.9296 275.304 77.7327C273.574 76.5262 271.742 75.4848 269.935 74.4022C268.954 73.8148 268.113 73.7322 267.119 74.1545C265.792 74.7197 264.452 75.2658 263.112 75.8023C259.296 77.3295 255.476 78.8472 251.66 80.3712C251.203 79.9171 250.968 79.3488 250.942 78.7233C250.901 77.7105 250.644 76.7453 250.403 75.7738C250.336 75.5039 250.26 75.2277 250.257 74.9546C250.222 72.7289 250.257 70.5223 250.803 68.3284C251.263 66.4742 252.054 64.7724 252.819 63.0452C253.041 62.5435 253.4 62.08 253.327 61.4799L253.34 61.4831Z" fill="#814617"/>
<path d="M276.432 151.238C276.822 150.812 277.003 150.292 277.099 149.733C278.061 144.138 279.213 138.585 280.534 133.067C281.077 130.794 281.537 128.505 281.896 126.193C282.058 125.152 282.312 124.123 282.525 123.091C283.452 121.939 284.373 120.78 285.303 119.634C285.579 119.294 285.884 118.976 286.176 118.649C286.493 118.697 286.811 118.741 287.128 118.789C287.271 119.199 287.119 119.529 286.906 119.884C286.446 120.646 286.008 121.424 285.608 122.221C285.154 123.129 284.928 124.101 284.9 125.123C284.874 126.073 284.814 127.019 284.769 127.965C284.68 129.838 285.077 131.622 285.763 133.35C286.325 134.766 287.128 136.014 288.192 137.122C289.745 138.744 291.529 140.081 293.317 141.414C295.596 143.116 297.936 144.735 300.194 146.462C302.016 147.856 303.95 149.079 305.928 150.219C308.061 151.447 310.061 152.86 312.062 154.279C316.57 157.467 320.939 160.842 325.476 163.992C328.038 165.77 330.439 167.779 332.909 169.691C333.699 170.304 334.588 170.799 335.169 171.653C334.795 172.304 334.42 172.955 334.045 173.602C333.884 173.641 333.715 173.66 333.56 173.72C330.077 175.047 326.594 176.381 323.111 177.705C314.583 180.949 306.048 184.178 297.523 187.439C295.866 188.074 294.145 188.566 292.596 189.471C291.926 189.474 291.284 189.427 290.63 189.198C286.595 187.792 283.191 185.426 280.264 182.365C279.035 181.08 277.87 179.698 277.276 177.974C276.787 176.555 276.318 175.123 275.94 173.669C275.546 172.161 275.209 170.624 275.238 169.056C275.295 165.716 275.416 162.376 275.511 159.035C275.517 158.813 275.546 158.591 275.571 158.369C275.857 155.991 276.143 153.616 276.429 151.238H276.432Z" fill="#8A8AD9"/>
<path d="M297.555 91.7665C297.65 91.7728 297.745 91.7665 297.837 91.7442C297.904 91.9252 297.967 92.1062 298.034 92.284C297.92 92.7063 298.132 92.9635 298.469 93.1635C298.453 93.4588 298.536 93.7223 298.71 93.9604C298.593 94.3827 298.806 94.6399 299.142 94.8367C299.123 95.132 299.209 95.3987 299.383 95.6336C299.263 96.0559 299.479 96.3131 299.812 96.5099C299.793 96.8052 299.882 97.0687 300.057 97.3069C299.933 97.7291 300.149 97.9863 300.485 98.1832C300.644 99.323 301.152 100.333 301.676 101.333C301.59 101.936 302.05 102.422 302.041 103.009C301.431 103.336 300.771 103.371 300.095 103.362C299.596 103.355 299.107 103.358 298.612 103.511C296.688 104.108 294.869 104.911 293.202 106.051C291.513 107.207 289.992 108.6 288.198 109.61C288.055 109.689 287.95 109.832 287.823 109.943C286.941 110.702 286.064 111.467 285.166 112.207C285.007 112.341 284.353 112.645 284.147 112.718C283.226 111.594 283.42 111.207 282.521 111.563C278.619 113.115 275.003 114.779 271.104 116.344C270.799 116.468 270.608 116.56 270.119 116.884C269.034 117.268 267.913 117.122 266.805 117.065C266.113 117.03 265.538 116.674 265.039 116.198C264.106 115.3 263.303 114.303 262.763 113.125C262.185 111.858 261.645 110.572 261.093 109.293C261.004 109.089 260.925 108.88 260.848 108.67C260.337 107.241 259.518 106.222 257.94 105.743C256.299 105.244 254.752 104.432 253.178 103.733C251.609 103.038 251.571 102.885 251.889 101.184C252.203 99.4881 252.428 97.7799 252.724 96.0813C252.962 94.7129 253.216 93.3445 253.52 91.9887C253.809 90.6997 253.755 89.4551 253.32 88.2073C252.879 86.9468 252.593 85.6387 252.339 84.3274C252.235 83.7813 252.085 83.2416 251.908 82.7145C251.746 82.2319 251.628 81.7525 251.669 81.2413C253.187 80.7016 254.724 80.2063 256.219 79.6094C259.937 78.1235 263.642 76.5995 267.344 75.0755C267.999 74.8056 268.665 74.7453 269.294 75.012C269.951 75.2914 270.558 75.6946 271.177 76.0534C272.326 76.7201 273.513 77.3234 274.552 78.1584C274.987 78.5077 275.434 78.6061 275.955 78.46C276.031 78.441 276.095 78.46 276.149 78.5204C276.33 79.2062 276.339 79.2125 277.187 79.1776V79.168C277.212 79.33 277.177 79.5681 277.27 79.6411C277.917 80.146 278.438 80.8381 279.321 81.0064C279.584 81.0572 279.873 81.1937 280.06 81.381C281.33 82.6669 283.146 83.1051 284.493 84.2989C285.093 84.8323 285.931 85.1053 286.677 85.4673C286.903 85.5752 287.096 85.426 287.207 85.2037C287.493 85.2101 287.731 85.2958 287.868 85.5752C287.855 85.9245 287.966 86.2229 288.261 86.4198C288.801 86.7817 289.395 87.0738 289.89 87.4897C290.405 87.9184 290.96 87.9628 291.567 87.9247C291.675 88.0327 291.786 88.1406 291.894 88.2486C292.002 88.6888 292.336 88.9185 292.897 88.9375C293.246 89.1312 293.595 89.3249 293.945 89.5217C294.113 90.5346 294.205 90.6012 295.326 90.5123L295.272 90.6203L295.332 90.5155C295.231 91.014 295.459 91.2521 295.942 91.268C296.164 91.2743 296.386 91.2585 296.605 91.2553V91.2489C296.751 91.9856 296.828 92.0237 297.558 91.7601L297.555 91.7665Z" fill="#FFB78A"/>
<path d="M347.923 421.097C348.212 421.732 348.149 422.408 348.152 423.075C348.168 426.644 348.171 430.216 348.184 433.784C348.184 434.505 348.257 435.216 348.364 435.94C348.565 437.255 348.641 438.598 348.253 439.915C348.098 440.449 347.907 440.988 347.872 441.534C347.793 442.785 347.06 443.716 346.374 444.633C345.304 446.062 344.043 447.329 342.351 448.037C341.081 448.567 339.833 449.17 338.389 449.116C336.995 449.066 335.579 449.24 334.21 449.047C331.893 448.716 329.556 448.818 327.235 448.535C325.539 448.326 323.825 448.027 322.091 448.084C321.425 448.107 320.767 447.992 320.104 447.884C319.231 447.742 318.326 447.77 317.437 447.761C314.875 447.732 312.335 447.268 309.769 447.395C307.642 446.932 305.451 447.116 303.311 446.757C300.971 446.367 299.079 445.322 298.012 443.17C297.504 442.144 297.123 441.02 296.933 439.864C296.898 439.645 296.933 439.41 296.875 439.201C296.332 437.274 296.983 435.604 297.974 434.007C298.301 433.476 298.733 433.044 299.273 432.73C300.708 431.895 302.146 431.057 303.587 430.235C305.705 429.028 307.797 427.774 309.953 426.64C313.481 424.783 316.897 422.726 320.421 420.865C320.71 420.713 321.05 420.665 321.364 420.567C322.672 420.233 324.019 420.24 325.33 420.427C326.327 420.57 327.311 420.621 328.308 420.63C329.473 420.643 330.642 420.687 331.804 420.665C333.804 420.63 335.772 421.027 337.779 420.989C340.776 420.935 343.773 420.989 346.774 421.008C347.158 421.008 347.542 421.068 347.926 421.1L347.923 421.097Z" fill="#FFB88C"/>
<path d="M136.369 174.618C135.884 175.091 135.579 175.682 135.293 176.285C134.979 176.431 134.801 176.704 134.623 176.987C133.864 178.193 133.093 179.393 132.34 180.606C132.201 180.835 132.137 181.108 132.039 181.362C131.445 182.238 130.794 183.083 130.397 184.08C129.937 184.267 129.8 184.683 129.67 185.105C129.308 184.969 128.93 184.864 128.588 184.696C126.441 183.629 124.304 182.543 122.158 181.473C121.002 180.898 119.923 180.225 119.04 179.266C118.853 179.063 118.653 178.854 118.424 178.704C116.824 177.679 115.837 176.117 114.821 174.586C114.005 173.358 113.662 171.942 113.386 170.516C113.332 170.246 113.332 169.957 113.363 169.681C113.636 167.303 113.979 164.957 115.091 162.766C116.23 160.521 117.535 158.387 119.009 156.359C119.79 155.279 120.675 154.269 121.58 153.288C123.13 151.609 124.581 149.85 126.102 148.148C127.022 147.116 128.105 146.215 129.197 145.354C130.429 144.383 131.502 143.252 132.623 142.173C132.979 141.83 133.267 141.395 133.766 141.22C133.766 141.554 133.772 141.893 133.572 142.189C133.074 142.925 132.652 143.735 132.058 144.379C130.74 145.805 129.981 147.51 129.35 149.297C128.219 152.511 127.806 155.87 127.429 159.223C127.248 160.82 127.368 162.451 127.403 164.068C127.432 165.357 127.975 166.522 128.924 167.3C130.762 168.808 132.664 170.284 135.176 170.58C135.63 170.633 136.03 170.637 136.477 170.532C137.211 170.357 137.789 169.922 138.379 169.519C138.862 169.189 139.329 168.954 139.919 169.04C139.722 169.446 139.525 169.852 139.332 170.259C138.462 171.113 137.024 173.237 136.376 174.621L136.369 174.618Z" fill="#FFB78B"/>
<path d="M299.38 95.6361C299.206 95.3979 299.12 95.1344 299.139 94.8391C299.272 94.4105 299.209 94.0772 298.707 93.9628C298.536 93.7247 298.45 93.4612 298.466 93.1659C298.603 92.7341 298.536 92.4007 298.031 92.2864C297.964 92.1055 297.901 91.9245 297.834 91.7467C297.952 91.1022 298.025 90.483 298.371 89.8544C298.901 88.8924 299.206 87.8033 299.631 86.7746C300.368 84.9839 301.177 83.225 301.895 81.4311C302.593 79.6817 303.076 77.8497 303.286 75.9574C303.371 75.189 303.702 74.4588 303.609 73.6555C303.552 73.1602 303.609 72.6586 303.438 72.1696C303.33 71.8616 303.26 71.5124 303.282 71.1885C303.406 69.22 302.59 67.5055 301.895 65.7466C301.022 63.5368 299.682 61.654 297.964 60.0252C297.596 59.676 297.304 59.2791 297.063 58.8314C296.402 57.6027 295.335 56.828 294.113 56.2279C293.113 55.7358 292.113 55.2405 291.119 54.7325C290.875 54.6086 290.649 54.4435 290.436 54.2657C290.382 54.2213 290.408 54.0657 290.421 53.9641C290.427 53.926 290.497 53.8752 290.544 53.8689C290.76 53.8466 290.992 53.7831 291.195 53.8308C292.491 54.1387 293.78 54.4785 295.072 54.796C295.672 54.942 296.186 55.3008 296.713 55.5738C298.333 56.4184 299.923 57.3106 301.282 58.6028C302.825 60.0728 304.108 61.7397 305.368 63.4352C305.502 63.613 305.616 63.8098 305.702 64.0098C306.121 64.9782 306.565 65.9402 306.931 66.9308C307.334 68.023 307.547 69.1502 307.693 70.3249C307.874 71.7696 308.01 73.2015 307.95 74.6398C307.877 76.3606 307.613 78.0497 306.927 79.6626C305.626 82.7328 304.384 85.8285 303.111 88.9114C302.94 89.3242 302.724 89.7147 302.53 90.1179C302.168 90.864 302.178 91.6133 302.489 92.3785C304.486 97.268 306.477 102.161 308.467 107.057C308.613 107.415 308.721 107.79 308.855 108.158C308.966 108.466 308.763 108.689 308.658 108.939C308.267 108.971 307.893 108.908 307.534 108.749C307.464 108.695 307.388 108.685 307.308 108.72C306.848 108.727 306.388 108.736 305.927 108.743C305.829 108.695 305.727 108.647 305.629 108.6C305.499 107.952 305.019 108.047 304.562 108.101C304.562 107.99 304.594 107.869 304.559 107.774C303.778 105.739 302.99 103.704 302.2 101.672C302.111 101.446 301.895 101.376 301.676 101.335C301.152 100.332 300.644 99.3254 300.485 98.1824C300.615 97.757 300.555 97.4236 300.057 97.3061C299.882 97.068 299.793 96.8045 299.812 96.5092C299.946 96.0806 299.882 95.7504 299.384 95.6329L299.38 95.6361Z" fill="#63350F"/>
<path d="M305.638 237.216C306.864 237.823 308.093 238.432 309.318 239.039C309.051 240.674 308.794 242.309 308.508 243.941C308.108 246.224 307.689 248.503 307.27 250.786C307.042 252.037 306.794 253.282 306.549 254.53C306.134 256.641 305.708 258.752 305.292 260.867C304.644 264.172 303.997 267.477 303.365 270.786C303.282 271.217 303.282 271.668 303.244 272.11C303.133 272.138 303.051 272.103 302.997 272.002C302.886 271.948 302.774 271.894 302.663 271.84L302.619 271.789C302.463 271.538 302.228 271.487 301.958 271.535C300.231 271.109 298.555 270.532 296.91 269.852C297.034 268.573 297.45 267.363 297.774 266.131C298.463 263.502 299.19 260.88 299.904 258.257C300.72 255.26 301.542 252.263 302.358 249.262C303.219 246.103 304.076 242.944 304.933 239.785C305.165 238.928 305.4 238.074 305.632 237.216H305.638Z" fill="#454742"/>
<path d="M305.63 108.6C305.728 108.648 305.83 108.695 305.928 108.743C305.036 109.279 304.906 110.118 305.014 111.048C304.179 111.051 303.344 111.092 302.512 111.048C301.156 110.978 299.867 111.242 298.6 111.68C297.502 112.058 296.34 112.219 295.27 112.712C293.543 113.509 291.949 114.486 290.599 115.845C290.368 116.077 290.082 116.261 289.812 116.452C289.171 116.906 288.596 117.426 288.196 118.109C287.948 118.528 287.624 118.779 287.132 118.792C286.815 118.744 286.497 118.7 286.18 118.652C286.161 118.16 285.738 117.954 285.719 117.461C285.764 116.728 285.408 116.106 285.161 115.452C284.814 114.547 284.484 113.632 284.145 112.724C284.351 112.651 285.005 112.343 285.164 112.213C286.062 111.473 286.939 110.708 287.821 109.949C287.948 109.841 288.053 109.699 288.196 109.616C289.99 108.606 291.511 107.212 293.2 106.057C294.867 104.917 296.686 104.114 298.61 103.517C299.105 103.364 299.597 103.358 300.093 103.368C300.766 103.377 301.426 103.342 302.039 103.015C302.128 103.152 302.242 103.279 302.302 103.425C302.791 104.66 303.264 105.898 303.757 107.133C303.918 107.536 304.042 107.994 304.566 108.101C304.906 108.711 304.944 108.727 305.633 108.6H305.63Z" fill="#E2A078"/>
<path d="M139.916 169.04C139.325 168.954 138.859 169.189 138.376 169.519C137.785 169.922 137.208 170.357 136.474 170.532C136.026 170.637 135.626 170.634 135.172 170.58C132.664 170.284 130.762 168.808 128.921 167.3C127.971 166.522 127.428 165.353 127.4 164.068C127.365 162.452 127.244 160.816 127.425 159.223C127.806 155.87 128.216 152.511 129.346 149.297C129.975 147.51 130.737 145.805 132.054 144.379C132.651 143.732 133.07 142.925 133.569 142.189C133.769 141.893 133.759 141.557 133.763 141.22C134.909 139.865 136.118 138.579 137.754 137.794C137.804 138.474 137.741 139.074 137.22 139.642C136.703 140.207 136.338 140.919 135.947 141.589C133.54 145.741 131.461 150.04 130.54 154.79C130.321 155.924 130.092 157.067 130.038 158.241C129.984 159.397 129.695 160.534 129.721 161.715C129.768 164.131 130.889 165.957 132.702 167.414C133.175 167.795 133.813 167.944 134.417 167.998C135.191 168.065 135.976 168.017 136.757 168.017C137.112 168.017 137.411 167.874 137.649 167.624C138.3 166.944 139.065 166.369 139.544 165.525C139.875 164.947 140.338 164.445 140.665 163.868C141.36 162.642 142.291 161.623 143.291 160.645C143.897 160.054 144.497 159.483 145.358 159.302C145.704 159.229 145.923 158.969 146.193 158.775C146.818 158.33 147.371 157.746 148.187 157.632C148.304 158.038 148.418 158.448 148.536 158.854C147.745 159.362 146.967 159.88 146.469 160.712C146.263 161.055 145.923 161.242 145.621 161.483C144.532 162.35 143.669 163.404 143.065 164.668C141.976 165.63 141.37 166.906 140.77 168.186C140.484 168.471 140.198 168.757 139.913 169.043L139.916 169.04Z" fill="#E6A47C"/>
<path d="M275.955 78.4693C275.435 78.6153 274.987 78.5169 274.552 78.1677C273.514 77.3326 272.323 76.7262 271.177 76.0626C270.555 75.7039 269.951 75.3006 269.294 75.0212C268.665 74.7514 267.999 74.8149 267.345 75.0847C263.639 76.6087 259.937 78.1359 256.219 79.6186C254.724 80.2155 253.187 80.7108 251.67 81.2506C251.631 81.1712 251.625 81.0855 251.644 80.9998C251.654 80.7934 251.663 80.5838 251.673 80.3775C255.492 78.8566 259.312 77.3358 263.125 75.8086C264.465 75.2721 265.805 74.7259 267.132 74.1608C268.126 73.7353 268.967 73.8211 269.948 74.4084C271.758 75.4911 273.587 76.5325 275.317 77.739C275.6 77.9359 275.857 78.1264 275.952 78.4725L275.955 78.4693Z" fill="#E2A078"/>
<path d="M303.248 273.551C303.74 274.088 303.712 274.647 303.324 275.221C303.067 274.675 303.032 274.12 303.248 273.551Z" fill="#686C64"/>
<path d="M360.582 231.346C360.099 230.806 360.128 230.247 360.518 229.676C360.772 230.222 360.792 230.781 360.582 231.346Z" fill="#8F918A"/>
<path d="M360.522 238.372C360.112 237.906 360.128 237.461 360.585 237.036C360.817 237.493 360.766 237.937 360.522 238.372Z" fill="#8F918A"/>
<path d="M360.175 242.725C359.81 242.366 359.854 242.036 360.242 241.725C360.448 242.074 360.41 242.405 360.175 242.725Z" fill="#8F918A"/>
<path d="M359.509 247.751C359.138 247.456 359.312 247.24 359.614 247.043C359.744 247.303 359.697 247.538 359.509 247.751Z" fill="#8F918A"/>
<path d="M359.846 245.741C359.538 245.49 359.601 245.274 359.906 245.078C360.09 245.316 360.052 245.538 359.846 245.741Z" fill="#8F918A"/>
<path d="M360.274 228.037C359.979 227.837 359.81 227.618 360.182 227.333C360.366 227.548 360.404 227.783 360.274 228.037Z" fill="#8F918A"/>
<path d="M360.582 231.346C360.099 230.806 360.128 230.247 360.518 229.676C360.547 229.114 360.493 228.561 360.274 228.037C359.979 227.837 359.81 227.618 360.182 227.332C360.147 227.056 360.137 226.777 360.074 226.507C359.299 223.078 358.432 219.678 357.308 216.344C356.343 213.48 355.118 210.74 353.457 208.206C352.898 208.197 352.352 208.225 351.806 208.378C348.803 209.206 345.799 210.035 342.78 210.803C342.116 210.972 341.71 211.305 341.392 211.867C340.456 213.512 339.554 215.179 338.541 216.779C337.09 219.068 335.309 221.002 332.677 222.011C330.756 222.748 328.851 223.538 326.987 224.411C325.425 225.142 323.933 226.031 322.58 227.11C321.704 227.809 321.069 228.745 320.393 229.625C318.764 231.743 317.154 233.876 315.576 236.032C314.979 236.848 314.265 237.546 313.598 238.289C312.588 239.417 311.379 239.69 309.966 239.21C309.756 239.14 309.537 239.105 309.321 239.055C309.052 240.69 308.798 242.325 308.512 243.957C308.112 246.24 307.693 248.519 307.274 250.802C307.045 252.053 306.797 253.298 306.553 254.545C306.137 256.657 305.711 258.768 305.295 260.883C304.648 264.188 304 267.493 303.368 270.801C303.286 271.233 303.286 271.684 303.248 272.125C302.962 272.608 303.2 273.087 303.248 273.57C303.74 274.107 303.711 274.665 303.324 275.24C303.26 276.482 303.502 277.701 303.591 278.933C303.324 279.609 303.371 280.279 303.651 280.939C303.616 282.511 303.749 284.076 303.927 285.635C303.708 286.092 303.759 286.534 304 286.969C303.921 288.766 304.076 290.553 304.257 292.338C303.975 293.128 304.067 293.903 304.333 294.678C304.292 295.805 304.381 296.925 304.591 298.034C304.378 298.383 304.426 298.716 304.66 299.034C304.753 299.929 304.841 300.824 304.934 301.72C304.727 302.177 304.759 302.618 305.003 303.053C305.086 303.949 305.172 304.844 305.254 305.739C305.032 306.092 305.089 306.422 305.324 306.743C305.318 307.412 305.365 308.076 305.591 308.717C305.454 308.971 305.489 309.206 305.677 309.419C305.756 309.978 305.838 310.54 305.918 311.099C305.699 311.67 305.724 312.226 306.016 312.766C306.096 313.439 306.175 314.112 306.258 314.785C306.051 315.137 306.102 315.471 306.343 315.785C306.419 316.344 306.496 316.903 306.569 317.461C306.391 318.112 306.346 318.747 306.832 319.303C306.854 319.471 306.877 319.639 306.902 319.808C306.642 320.373 306.727 320.875 307.175 321.306C307.197 321.478 307.223 321.649 307.245 321.821C306.994 323.595 307.178 325.377 307.178 327.158C307.178 327.323 307.197 327.507 307.274 327.647C307.864 328.733 307.775 329.917 307.794 331.085C307.807 331.87 307.816 332.647 308.207 333.365C308.426 333.765 308.477 334.216 308.464 334.667C308.429 335.851 308.648 336.981 309.007 338.115C309.36 339.229 309.013 340.461 309.448 341.585C309.899 342.747 309.877 343.992 310.083 345.195C310.156 345.633 310.163 346.094 310.312 346.506C310.642 347.414 310.725 348.351 310.769 349.304C310.795 349.859 310.744 350.434 311.004 350.948C311.372 351.672 311.401 352.444 311.43 353.231C311.458 353.952 311.372 354.695 311.722 355.368C312.068 356.038 312.093 356.758 312.119 357.486C312.144 358.149 312.074 358.835 312.404 359.454C312.76 360.118 312.792 360.838 312.808 361.569C312.82 362.181 312.728 362.858 312.954 363.391C313.433 364.509 313.481 365.655 313.525 366.826C313.541 367.261 313.643 367.722 313.817 368.122C314.24 369.081 314.132 370.093 314.211 371.087C314.29 372.091 314.894 372.973 314.875 374.011C314.865 374.561 314.976 375.116 315.059 375.666C315.303 377.317 315.814 378.923 315.827 380.612C315.827 380.882 315.906 381.174 316.03 381.416C316.367 382.089 316.408 382.806 316.44 383.533C316.465 384.143 316.367 384.794 316.653 385.349C317.138 386.289 317.103 387.292 317.151 388.293C317.183 388.956 317.097 389.639 317.43 390.261C317.757 390.871 317.808 391.534 317.818 392.211C317.827 392.766 317.745 393.388 317.961 393.865C318.462 394.976 318.504 396.125 318.545 397.297C318.561 397.732 318.688 398.176 318.837 398.592C319.1 399.342 319.221 400.1 319.205 400.891C319.193 401.561 319.193 402.231 319.466 402.869C319.802 403.653 319.888 404.472 319.901 405.32C319.91 405.815 320.031 406.314 320.148 406.8C320.358 407.666 320.564 408.521 320.612 409.422C320.656 410.248 320.79 411.099 321.059 411.877C321.323 412.635 321.431 413.385 321.45 414.169C321.472 415.061 321.485 415.947 321.92 416.776C322.183 417.28 322.094 417.868 322.152 418.423C322.218 419.087 322.082 419.627 321.472 420.001C321.278 420.122 321.215 420.354 321.355 420.582C322.663 420.249 324.009 420.255 325.32 420.443C326.317 420.586 327.301 420.636 328.298 420.646C329.464 420.659 330.632 420.703 331.794 420.681C333.794 420.646 335.763 421.043 337.769 421.005C340.767 420.951 343.764 421.005 346.764 421.024C347.148 421.024 347.533 421.084 347.917 421.116C348.152 421.059 348.339 420.938 348.336 420.678C348.32 419.284 348.409 417.874 348.234 416.499C348.085 415.328 348.044 414.169 348.034 413C348.012 409.594 348.206 406.171 347.92 402.79C347.625 399.272 347.78 395.767 347.701 392.258C347.663 390.528 347.666 388.797 347.647 387.067C347.644 386.677 347.688 386.273 347.606 385.899C347.193 384.022 347.348 382.12 347.336 380.228C347.317 377.606 347.326 374.98 347.31 372.357C347.307 371.802 347.336 371.224 347.196 370.694C346.996 369.922 346.993 369.147 346.98 368.369C346.894 363.41 347.066 358.454 346.71 353.488C346.425 349.488 346.634 345.452 346.621 341.433C346.621 340.985 346.682 340.518 346.567 340.099C346.209 338.782 346.285 337.439 346.278 336.105C346.266 333.594 346.285 331.079 346.313 328.568C346.336 326.669 346.364 324.77 346.672 322.891C346.853 321.792 347.215 320.709 347.266 319.608C347.38 317.157 347.777 314.725 347.714 312.264C347.688 311.251 347.879 310.267 348.079 309.279C348.368 307.86 348.561 306.431 348.669 304.987C348.895 302.05 348.723 299.072 349.6 296.202C349.631 296.097 349.631 295.979 349.634 295.868C349.749 293.531 350.098 291.21 350.088 288.861C350.082 287.299 350.266 285.746 350.6 284.216C351.025 282.257 351.098 280.26 351.19 278.266C351.387 277.482 351.584 276.697 351.781 275.913C351.416 275.599 351.616 275.393 351.914 275.205C352.524 273.008 353.143 270.814 353.733 268.611C354.006 267.592 354.222 266.556 354.464 265.528C354.099 265.226 354.286 265.013 354.581 264.82C354.721 264.331 354.861 263.842 355 263.353C354.841 262.966 354.93 262.664 355.321 262.477C355.918 260.867 356.559 259.273 357.105 257.647C357.972 255.076 358.734 252.472 359.156 249.78C358.791 249.488 358.966 249.272 359.258 249.072C359.433 248.656 359.502 248.218 359.499 247.77C359.128 247.475 359.302 247.259 359.604 247.062C359.798 246.649 359.855 246.211 359.836 245.76C359.528 245.509 359.591 245.293 359.896 245.097C359.985 244.312 360.077 243.528 360.166 242.744C359.801 242.385 359.845 242.055 360.233 241.744C360.395 240.633 360.556 239.518 360.512 238.388C360.102 237.921 360.118 237.477 360.576 237.051C360.636 235.156 360.763 233.26 360.569 231.365L360.582 231.346Z" fill="#686C64"/>
<path d="M354.473 265.506C354.108 265.204 354.295 264.992 354.59 264.798C354.711 265.061 354.663 265.296 354.473 265.506Z" fill="#8F918A"/>
<path d="M359.166 249.761C358.801 249.469 358.976 249.253 359.268 249.053C359.398 249.314 359.357 249.545 359.166 249.761Z" fill="#8F918A"/>
<path d="M351.788 275.892C351.423 275.577 351.623 275.371 351.921 275.184C352.045 275.45 351.985 275.685 351.788 275.892Z" fill="#8F918A"/>
<path d="M355.006 263.331C354.848 262.944 354.936 262.642 355.327 262.455C355.406 262.817 355.273 263.099 355.006 263.331Z" fill="#8F918A"/>
<path d="M301.962 271.535C302.235 271.487 302.467 271.538 302.622 271.789C302.349 271.837 302.146 271.716 301.962 271.535Z" fill="#696D65"/>
<path d="M307.309 108.721C307.391 108.686 307.464 108.695 307.534 108.749L307.413 108.819L307.309 108.721Z" fill="#814617"/>
<path d="M302.667 271.84C302.778 271.894 302.889 271.948 303 272.002C302.829 272.068 302.727 272.002 302.667 271.84Z" fill="#8F918A"/>
<path d="M309.315 218.122C309.22 217.506 309.22 216.89 309.305 216.274C309.591 216.255 309.864 216.192 310.067 215.979C310.915 215.093 311.868 214.328 312.83 213.569C314.531 212.232 316.182 210.829 317.919 209.54C318.57 209.057 319.046 208.527 319.402 207.806C321.628 203.311 323.879 198.824 326.133 194.341C326.457 193.697 326.857 193.081 327.184 192.446C329.175 188.582 331.134 184.699 333.013 180.778C333.467 179.828 333.908 178.866 334.35 177.904C334.543 177.479 334.826 177.158 335.248 176.958C335.696 177.056 335.817 177.498 336.102 177.768C336.175 178.787 335.991 179.72 335.512 180.66C334.807 182.044 334.27 183.511 333.658 184.94C333.524 185.248 333.391 185.556 333.216 185.842C331.289 188.988 330.095 192.468 328.686 195.849C327.701 198.208 326.711 200.564 325.698 202.911C324.279 206.2 322.243 209.127 320.262 212.083C320.04 212.413 319.761 212.674 319.424 212.883C317.3 214.21 315.436 215.887 313.417 217.35C312.652 217.906 311.858 218.417 311.106 218.986C310.712 219.281 310.274 219.262 309.839 219.316C309.68 218.909 309.331 218.586 309.315 218.116V218.122Z" fill="#E6A47C"/>
<path d="M309.315 218.122C307.89 217.827 306.521 217.36 305.197 216.744C304.54 216.439 303.87 216.15 303.191 215.9C299.739 214.617 296.285 213.353 292.834 212.077C291.891 211.731 290.922 211.436 290.017 211.01C287.887 210.007 285.572 209.521 283.426 208.588C281.477 207.74 279.489 207.019 277.467 206.375C276.832 206.171 276.222 205.879 275.6 205.638C274.247 205.114 272.914 204.536 271.533 204.098C269.666 203.504 267.885 202.704 266.065 201.996C264.04 201.209 261.922 200.669 259.944 199.752C259.842 199.704 259.737 199.65 259.63 199.644C257.632 199.507 255.902 198.548 254.089 197.84C252.168 197.091 250.238 196.357 248.33 195.58C245.028 194.233 241.742 192.846 238.433 191.506C237.039 190.941 235.633 190.392 234.198 189.941C232.172 189.306 230.197 188.55 228.213 187.807C226.019 186.988 223.815 186.194 221.599 185.445C220.012 184.908 218.427 184.372 216.907 183.67C216.5 183.483 216.094 183.292 215.668 183.165C212.303 182.156 209.115 180.641 205.74 179.647C204.461 179.27 203.251 178.663 202 178.19C201.219 177.895 200.412 177.666 199.625 177.39C198.625 177.041 197.615 176.71 196.641 176.304C195.453 175.809 194.247 175.387 193.024 174.993C191.964 174.653 190.919 174.25 189.884 173.843C188.481 173.291 187.077 172.754 185.623 172.351C184.766 172.113 183.95 171.732 183.121 171.408C182.81 171.288 182.515 171.122 182.201 171.008C179.264 169.957 176.327 168.9 173.38 167.878C172.063 167.42 170.717 167.039 169.456 166.436C169.355 166.389 169.253 166.341 169.148 166.303C166.002 165.169 162.865 164.001 159.699 162.918C158.379 162.467 157.058 162.026 155.785 161.458C155.378 161.277 154.965 161.099 154.54 160.969C152.511 160.35 150.505 159.683 148.552 158.851C147.761 159.359 146.983 159.877 146.485 160.708C146.279 161.051 145.939 161.239 145.637 161.48C144.548 162.347 143.685 163.401 143.081 164.665C141.992 165.627 141.386 166.903 140.786 168.182C140.5 168.468 140.214 168.754 139.929 169.04C139.732 169.446 139.535 169.852 139.338 170.259C138.468 171.113 137.03 173.237 136.382 174.621C135.896 175.094 135.592 175.685 135.303 176.288C134.988 176.437 134.81 176.707 134.633 176.99C133.874 178.196 133.102 179.397 132.35 180.609C132.21 180.838 132.147 181.111 132.048 181.365C131.455 182.241 130.804 183.086 130.407 184.08C129.946 184.267 129.81 184.683 129.68 185.105C129.956 185.737 130.591 185.899 131.124 186.172C134.693 187.998 138.262 189.83 141.849 191.614C146.241 193.798 150.654 195.938 155.051 198.104C163.252 202.139 171.352 206.39 179.823 209.851C180.327 210.058 180.778 210.458 181.388 210.315C182.175 210.861 183.064 211.204 183.96 211.509C186.017 212.21 188.071 212.921 190.151 213.553C192.173 214.169 194.209 214.769 196.269 215.242C198.819 215.83 201.409 216.233 203.895 217.087C204.575 217.319 205.305 217.408 206.013 217.554C207.267 217.811 208.531 218.033 209.779 218.325C210.646 218.528 211.49 218.83 212.236 219.351C214.379 220.856 216.529 222.354 218.672 223.856C219.631 224.529 220.548 225.263 221.542 225.875C224.009 227.403 226.222 229.301 228.778 230.689C228.924 230.768 229.064 230.87 229.181 230.984C230.286 232.032 231.623 232.74 232.89 233.549C233.594 234 234.322 234.423 234.976 234.937C236.252 235.937 237.598 236.823 239.001 237.636C239.484 237.915 239.986 238.188 240.389 238.563C241.545 239.639 242.926 240.376 244.243 241.208C244.621 241.446 245.05 241.62 245.38 241.909C246.949 243.271 248.739 244.297 250.492 245.383C250.917 245.646 251.368 245.897 251.727 246.24C252.543 247.021 253.499 247.599 254.461 248.154C255.718 248.885 256.909 249.704 258.096 250.539C258.826 251.05 259.556 251.571 260.334 251.999C264.287 254.184 268.037 256.717 272.085 258.74C273.282 259.337 274.508 259.877 275.676 260.521C278.216 261.924 280.937 262.95 283.471 264.376C285.02 265.249 286.69 265.909 288.306 266.665C291.087 267.97 293.98 268.967 296.92 269.837C297.044 268.557 297.46 267.347 297.784 266.115C298.473 263.487 299.2 260.864 299.914 258.241C300.73 255.244 301.552 252.247 302.368 249.247C303.229 246.088 304.086 242.928 304.943 239.769C305.175 238.912 305.41 238.058 305.642 237.201C304.953 235.994 304.359 234.769 304.156 233.349C303.994 232.225 304.051 231.155 304.194 230.044C304.486 227.755 305.194 225.612 306.14 223.523C306.585 222.539 307.178 221.691 307.985 220.983C308.61 220.434 309.223 219.865 309.842 219.303C309.683 218.897 309.334 218.573 309.318 218.103L309.315 218.122Z" fill="#696D65"/>
<path d="M287.211 85.2159C287.1 85.4381 286.903 85.5873 286.681 85.4794C285.934 85.1174 285.096 84.8444 284.496 84.311C283.153 83.1172 281.334 82.679 280.064 81.3932C279.88 81.2058 279.588 81.0693 279.324 81.0185C278.441 80.8502 277.921 80.1549 277.273 79.6532C277.178 79.5802 277.213 79.3421 277.19 79.1802C277.46 79.2278 277.775 79.1992 277.991 79.3294C280.934 81.1106 283.864 82.9108 286.788 84.7206C286.963 84.8285 287.071 85.0508 287.211 85.2159Z" fill="#E2A078"/>
<path d="M291.571 87.934C290.964 87.9753 290.409 87.9276 289.895 87.499C289.399 87.0863 288.809 86.791 288.266 86.429C287.974 86.2322 287.859 85.9337 287.872 85.5845C289.253 86.1306 290.555 86.8068 291.571 87.934Z" fill="#E2A078"/>
<path d="M295.325 90.5219C294.208 90.6108 294.113 90.5441 293.944 89.5312C294.509 89.7154 295.167 89.7694 295.325 90.5219Z" fill="#E2A078"/>
<path d="M296.606 91.2647C296.383 91.271 296.161 91.2869 295.942 91.2774C295.456 91.2615 295.231 91.0234 295.333 90.5249C295.901 90.5249 296.387 90.6646 296.609 91.2647H296.606Z" fill="#E2A078"/>
<path d="M297.555 91.7661C296.825 92.0328 296.752 91.9915 296.603 91.2549C297.009 91.2549 297.352 91.3819 297.555 91.7661Z" fill="#E2A078"/>
<path d="M277.188 79.1839C276.34 79.2188 276.33 79.2124 276.149 78.5266C276.657 78.4917 277.007 78.7044 277.188 79.1839Z" fill="#E2A078"/>
<path d="M292.898 88.9471C292.339 88.9281 292.005 88.6984 291.895 88.2581C292.393 88.2486 292.742 88.455 292.898 88.9471Z" fill="#E2A078"/>
<path d="M334.045 173.602C334.795 174.596 335.026 175.777 335.245 176.961C334.823 177.161 334.541 177.482 334.347 177.907C333.906 178.866 333.464 179.831 333.01 180.781C331.131 184.702 329.172 188.582 327.181 192.449C326.854 193.084 326.454 193.7 326.13 194.344C323.876 198.827 321.625 203.311 319.399 207.81C319.043 208.53 318.57 209.061 317.916 209.543C316.18 210.832 314.529 212.232 312.827 213.572C311.865 214.331 310.912 215.096 310.064 215.982C309.861 216.195 309.588 216.258 309.302 216.277C309.064 216.093 309.023 215.823 308.944 215.553C308.15 212.832 307.242 210.153 306.07 207.571C305.311 205.901 304.381 204.32 303.391 202.777C302.581 201.517 301.717 200.291 300.927 199.018C299.419 196.589 297.514 194.503 295.459 192.544C294.818 191.935 294.069 191.439 293.402 190.858C292.989 190.496 292.548 190.118 292.599 189.474C294.148 188.569 295.869 188.077 297.526 187.442C306.048 184.181 314.582 180.952 323.114 177.707C326.597 176.383 330.08 175.047 333.563 173.723C333.718 173.662 333.887 173.643 334.048 173.605L334.045 173.602Z" fill="#FFB78A"/>
<path d="M304.563 108.099C304.039 107.991 303.915 107.534 303.753 107.13C303.261 105.898 302.788 104.657 302.299 103.422C302.238 103.273 302.124 103.149 302.035 103.012C302.045 102.425 301.588 101.939 301.67 101.336C301.892 101.377 302.108 101.447 302.197 101.672C302.991 103.704 303.775 105.736 304.556 107.775C304.591 107.87 304.559 107.991 304.559 108.099H304.563Z" fill="#814617"/>
<path d="M298.711 93.96C299.213 94.0743 299.276 94.4076 299.143 94.8363C298.807 94.6394 298.594 94.3822 298.711 93.96Z" fill="#814617"/>
<path d="M299.381 95.6367C299.879 95.7542 299.943 96.0844 299.809 96.513C299.473 96.3162 299.26 96.0558 299.381 95.6367Z" fill="#814617"/>
<path d="M300.054 97.3101C300.552 97.4275 300.613 97.7577 300.482 98.1864C300.146 97.9895 299.93 97.7323 300.054 97.3101Z" fill="#814617"/>
<path d="M298.035 92.2871C298.54 92.4014 298.603 92.7348 298.47 93.1666C298.133 92.9697 297.921 92.7094 298.035 92.2871Z" fill="#814617"/>
<path d="M305.628 108.6C304.939 108.727 304.901 108.711 304.562 108.102C305.019 108.048 305.495 107.953 305.628 108.6Z" fill="#814617"/>
</svg>
