<svg width="500" height="500" viewBox="0 0 500 500" fill="none" xmlns="http://www.w3.org/2000/svg">
<path d="M353.96 138.782C354.007 138.245 354.058 137.705 354.105 137.168C359.22 131.003 378.778 113.389 383.953 107.276C386.168 104.659 388.744 102.41 392.539 104C396.266 105.562 396.675 108.83 396.37 112.34C395.646 120.748 392.347 129.129 389.472 136.627C386.747 143.737 385.794 147.225 378.097 147.432C372.726 147.577 372.059 148.175 366.682 148.052C360.696 146.816 353.372 145.68 353.959 138.785L353.96 138.782Z" fill="#F6BB92"/>
<path d="M374.045 95.0671C364.253 95.7397 356.507 99.8547 348.319 104.716C344.311 107.092 340.288 109.449 336.283 111.824C331.592 114.607 326.884 117.37 322.229 120.204C318.566 122.435 314.961 124.756 311.347 127.06C310.831 127.389 310.331 127.569 309.723 127.597C307.032 127.721 304.352 128.066 301.67 128.353C285.545 130.081 270.15 133.695 253.996 134.698C253.742 134.714 253.489 134.842 253.234 134.919C256.501 140.099 256.889 165.282 263.183 165.445C274.396 165.729 285.9 157.826 296.743 153.021C307.586 148.215 309.048 147.475 312.576 146.664C314.179 146.295 315.552 145.562 316.902 144.747C318.213 143.952 319.434 143.016 320.718 142.176C323.641 140.261 326.389 138.118 329.338 136.231C331.923 134.575 334.478 132.881 337.123 131.31C338.719 130.363 340.372 129.514 341.982 128.599C345.207 126.767 348.415 124.907 351.618 123.041C353.954 121.678 356.276 120.293 358.449 118.698C361.093 116.76 363.874 115.018 366.651 113.265C368.308 112.219 370.298 111.331 372.267 111.15C377.606 110.657 392.693 127.613 398.029 116.5C403.182 105.869 383.409 94.4353 374.045 95.0671Z" fill="#F7BB92"/>
<path d="M378.013 113.473C376.833 114.639 375.559 115.88 374.233 117.164C379.609 121.52 388.63 127.189 393.611 125.189C394.184 123.381 394.706 121.549 395.145 119.703C390.516 122.041 383.425 116.743 378.013 113.473Z" fill="#E7A37B"/>
<path d="M354.056 137.289C354.02 137.321 309.372 177.453 298.903 187.084L298.908 187.078L256.25 227.212C239.375 227.068 223.27 227.121 206.029 227.5C197.59 247.584 199.322 277.658 202.863 298.693C204.405 308.172 204.621 317.395 204.677 326.979C204.816 344.588 206.394 361.09 209.803 378.385C210.957 384.514 211.846 390.682 212.757 396.852C213.077 399.013 213.399 401.175 213.725 403.336L214.126 406.051C214.533 408.336 214.534 408.336 215.549 411.382H240.93C241.773 398.373 242.134 385.438 242.133 372.402C242.135 369.32 242.154 366.238 242.173 363.156C242.206 351.327 241.563 339.806 240.139 328.067C239.659 323.87 239.448 319.661 239.28 315.441L239.17 312.799C239.067 310.127 238.98 307.454 238.899 304.781L238.811 302.127C238.67 297.407 238.28 293.634 239.958 286.62C240.983 282.337 245.058 279.693 249.438 279.231C264.144 277.683 273.805 270.064 285.529 259L285.526 258.993L316.758 211.619C344.225 193.382 366.419 148.559 366.419 148.559L354.056 137.289Z" fill="#6A6D66"/>
<path d="M206.029 135C203.03 146.5 202.156 155.05 195.529 165.5C184.962 170.011 174.764 171.418 166.929 180.074C161.976 185.539 157.964 191.823 152.974 197.253C152.786 197.458 152.779 197.666 152.925 197.886C153.558 198.832 154.402 199.921 155.272 200.641C161.771 206.018 168.618 218.598 174.342 225.544C176.053 227.608 188.959 241.347 190.937 242.293C192.915 243.239 204.329 244.39 206.082 246.32C207.804 248.216 210.571 253.056 211.391 255.381C211.313 255.47 211.253 255.591 211.154 255.637C210.748 255.828 210.452 256.1 210.279 256.534C210.095 256.998 210.14 257.443 210.237 257.914C210.387 258.642 210.523 259.374 210.825 260.057C211.194 260.887 211.248 261.802 211.548 262.651C211.646 262.93 211.567 263.188 211.444 263.44C211.118 264.11 210.802 264.782 210.48 265.454C210.029 266.397 209.827 267.363 209.874 268.35C209.876 268.386 209.857 268.426 209.847 268.463C205.44 267.511 200.99 265.449 196.891 263.612C176.616 254.444 152.606 229.26 138.4 212.468C137.634 211.566 136.811 210.719 136.02 209.84C133.749 207.312 130.296 203.706 130.311 200.089C130.37 185.926 149.645 171.316 159.178 161.866C172.448 148.738 186.081 135.61 206.029 135Z" fill="#F7BB92"/>
<path d="M240.929 411.383C232.554 411.383 224.178 411.383 215.548 411.383C214.878 414.084 214.208 416.785 213.518 419.568C213.306 420.405 213.094 421.241 212.875 422.103C211.766 426.698 210.825 431.009 211.487 435.749C214.465 438.86 217.542 438.998 221.652 439.199C223.572 439.207 225.493 439.199 227.414 439.175C228.879 439.193 228.879 439.193 230.374 439.211C231.773 439.205 231.773 439.205 233.2 439.199C234.475 439.194 234.475 439.194 235.777 439.188C236.472 439.058 237.167 438.928 237.884 438.794C241.693 433.081 241.066 426.219 240.993 419.568C240.972 416.867 240.951 414.166 240.929 411.383Z" fill="#F6BB92"/>
<path d="M257.755 134.58C256.047 134.39 254.339 134.182 252.63 134.012C251.089 133.861 249.543 133.748 247.998 133.631C246.282 133.497 244.565 133.377 242.849 133.25C241.574 133.497 240.553 134.178 239.56 134.866C237.613 136.21 235.71 137.607 233.787 138.983C233.207 139.399 232.623 139.812 232.031 140.214C231.785 140.38 231.495 140.401 231.233 140.232C230.998 140.084 230.788 139.911 230.561 139.752C227.685 137.72 224.809 135.692 221.936 133.663C221.48 133.342 220.991 133.085 220.407 133C219.902 133.085 219.402 133.194 218.897 133.254C216.406 133.543 213.915 133.826 211.424 134.104C210.121 134.249 208.818 134.408 207.511 134.52C206.935 134.57 206.383 134.669 205.843 134.849C205.811 135.879 205.549 136.877 205.239 137.861C204.897 138.944 204.52 140.02 204.146 141.093C201.902 147.489 199.661 153.884 197.404 160.277C196.801 161.984 196.157 163.681 195.529 165.382C196.709 166.789 196.987 168.49 197.341 170.13C198.163 173.947 198.886 177.782 199.558 181.623C200.392 186.375 201.345 191.106 202.307 195.84C202.478 196.684 202.561 197.573 203.042 198.352C204.393 198.43 205.66 198.091 206.939 197.774C208.489 197.386 210.058 197.043 211.631 196.74C214.67 196.154 217.725 195.696 220.828 195.428C223.462 195.202 226.088 194.888 228.742 194.881C230.128 194.881 231.511 194.853 232.897 194.853C237.335 194.846 241.765 194.891 246.174 195.47C249.714 195.932 253.218 196.486 256.595 197.569C257.413 197.83 258.236 198.063 259.126 197.932C259.686 197.414 259.761 196.761 259.833 196.084C260.143 193.18 260.484 190.277 260.806 187.374C260.957 185.998 261.08 184.619 261.239 183.243C261.414 181.715 261.621 180.191 261.811 178.664C261.97 177.39 262.109 176.117 262.292 174.847C262.662 172.257 262.948 169.657 263.663 167.117C263.814 166.577 263.893 166.002 264.386 165.586C264.314 165.184 264.267 164.775 264.167 164.376C263.79 162.877 263.377 161.388 263.015 159.889C261.784 154.738 260.548 149.584 259.348 144.427C258.589 141.174 257.783 137.921 257.759 134.573L257.755 134.58Z" fill="#8989DE"/>
<path d="M259.114 197.941C258.224 198.068 257.401 197.839 256.583 197.578C253.206 196.498 249.702 195.944 246.162 195.479C241.753 194.9 237.323 194.858 232.885 194.861C231.499 194.861 230.116 194.89 228.73 194.89C226.076 194.893 223.45 195.207 220.816 195.436C217.713 195.704 214.654 196.163 211.619 196.749C210.046 197.052 208.476 197.398 206.927 197.782C205.648 198.1 204.381 198.439 203.03 198.361C202.923 199.649 203.387 200.89 203.439 202.164C203.713 210.8 205.188 219.345 205.819 227.952C220.816 227.952 241.521 227.836 256.333 227.836C256.53 226.5 256.469 226.094 256.599 224.819C256.603 224.778 256.607 224.736 256.612 224.694C257.379 217.359 257.788 209.986 258.689 202.675C258.879 201.106 259.292 199.543 259.118 197.945L259.114 197.941Z" fill="#F7BB92"/>
<path d="M245.588 127.654C251.874 120.938 252.97 112.504 253.453 103.869C252.816 103.263 252.697 102.44 252.83 101.684C253.385 98.5394 251.655 97.4577 249.116 95.8926C238.951 89.6213 229.088 88.8369 219.016 95.821C218.175 96.4048 217.107 96.6698 216.137 97.053C215.134 97.447 214.883 98.303 214.733 99.2342C214.812 100.796 214.944 102.354 214.966 103.915C215.077 112.235 215.875 120.347 221.738 126.977C229.618 129.699 237.572 129.871 245.592 127.657L245.588 127.654Z" fill="#F7BB92"/>
<path d="M245.175 67.7254C245.534 67.1881 245.569 66.5434 245.569 65.8988C245.498 63.0335 244.602 60.5263 242.382 58.6281C239.445 56.121 236.078 54.939 232.282 55.2972C228.091 55.6912 225.047 57.8401 223.328 61.7441C222.504 63.5707 222.289 65.469 222.54 67.4388C222.647 67.4388 222.719 67.4388 222.79 67.4747C224.545 67.403 226.264 66.9016 228.055 67.0449C228.234 67.0449 228.413 67.0449 228.557 66.9374C229.201 66.6509 229.918 66.6867 230.598 66.7225C233.893 66.83 237.188 66.5076 240.483 67.0091C242.059 67.2598 243.635 67.403 245.175 67.7254Z" fill="#7A4821"/>
<path d="M245.175 67.7259C243.635 67.4036 242.023 67.2603 240.483 67.0096C237.188 66.4723 233.893 66.8305 230.598 66.723C229.917 66.723 229.237 66.6514 228.556 66.9379C228.413 67.0096 228.234 67.0454 228.055 67.0454C226.264 66.9021 224.545 67.4036 222.79 67.4752C222.826 67.7259 222.79 67.9408 222.575 68.0841C222.575 68.9795 222.933 69.7316 223.112 70.5554C223.255 71.2001 223.614 71.8447 223.291 72.5611C225.691 72.0955 228.162 72.2387 230.598 72.2029C230.777 72.2029 230.956 72.2029 231.099 72.2029C232.926 71.6657 234.824 71.9522 236.686 71.8806C237.295 71.8806 237.94 71.8447 238.549 72.0955C238.656 72.1313 238.764 72.1671 238.871 72.1671C240.626 72.0238 242.345 72.6327 244.1 72.5611C244.029 72.0596 244.136 71.594 244.315 71.0926C244.709 69.9823 245.175 68.9078 245.139 67.7259H245.175Z" fill="#62350F"/>
<path d="M222.574 68.0841C222.789 67.9409 222.824 67.726 222.789 67.4753C222.717 67.4753 222.61 67.4395 222.538 67.4395C222.395 67.6543 222.431 67.8693 222.61 68.0841H222.574Z" fill="#6A6C64"/>
<path d="M214.73 99.2266C215.235 98.5103 215.755 98.034 216.593 97.4681C217.431 96.9022 218.176 96.3972 219.017 95.8134C229.085 88.8329 238.952 89.6173 249.117 95.885C251.656 97.4502 253.386 98.5318 252.831 101.676C252.698 102.432 252.817 103.256 253.454 103.861C253.895 101.01 254.278 98.1521 254.79 95.312C257.619 79.6427 245.474 67.1394 229.759 69.6286C221.055 71.0029 214.608 78.3057 212.936 86.752C212.101 90.9711 211.679 95.4302 214.734 99.2266H214.73Z" fill="#7A4821"/>
<path d="M222.104 131.607C222.036 132.381 221.964 133.154 221.896 133.928C225.714 141.825 229.532 149.723 233.826 158.605C238.059 149.834 241.899 141.883 245.738 133.932C245.677 133.136 245.613 132.345 245.552 131.55C237.741 133.842 229.926 133.713 222.107 131.604L222.104 131.607Z" fill="#F7BB92"/>
<path d="M222.104 131.607C229.926 133.713 237.741 133.846 245.549 131.553C245.56 130.253 245.574 128.953 245.585 127.653C237.566 129.867 229.611 129.695 221.732 126.973C221.854 128.52 221.979 130.064 222.101 131.611L222.104 131.607Z" fill="#DEA882"/>
</svg>
