<svg width="500" height="500" viewBox="0 0 500 500" fill="none" xmlns="http://www.w3.org/2000/svg">
<path d="M133.569 138.782C133.522 138.245 133.471 137.705 133.424 137.168C128.309 131.003 108.751 113.389 103.576 107.276C101.361 104.659 98.7852 102.41 94.9902 104C91.263 105.562 90.8544 108.83 91.1588 112.34C91.8833 120.748 95.1822 129.129 98.0576 136.627C100.783 143.737 101.735 147.225 109.432 147.432C114.803 147.577 115.47 148.175 120.848 148.052C126.834 146.816 134.157 145.68 133.57 138.785L133.569 138.782Z" fill="#F6BB92"/>
<path d="M113.485 95.0671C123.277 95.7397 131.022 99.8547 139.21 104.716C143.219 107.092 147.241 109.449 151.247 111.824C155.937 114.607 160.645 117.37 165.3 120.204C168.964 122.435 172.568 124.756 176.182 127.06C176.698 127.389 177.198 127.569 177.806 127.597C180.497 127.721 183.178 128.066 185.859 128.353C201.985 130.081 217.379 133.695 233.533 134.698C233.787 134.714 234.04 134.842 234.295 134.919C231.029 140.099 230.64 165.282 224.347 165.445C213.134 165.729 201.629 157.826 190.786 153.021C179.943 148.215 178.481 147.475 174.953 146.664C173.35 146.295 171.977 145.562 170.628 144.747C169.317 143.952 168.096 143.016 166.811 142.176C163.888 140.261 161.14 138.118 158.191 136.231C155.606 134.575 153.051 132.881 150.406 131.31C148.811 130.363 147.157 129.514 145.548 128.599C142.323 126.767 139.114 124.907 135.911 123.041C133.575 121.678 131.254 120.293 129.081 118.698C126.436 116.76 123.655 115.018 120.878 113.265C119.222 112.219 117.231 111.331 115.263 111.15C109.924 110.657 94.8363 127.613 89.5 116.5C84.347 105.869 104.12 94.4353 113.485 95.0671Z" fill="#F7BB92"/>
<path d="M109.517 113.473C110.697 114.639 111.971 115.88 113.296 117.164C107.92 121.52 98.8996 127.189 93.918 125.189C93.3454 123.381 92.8231 121.549 92.3848 119.703C97.0135 122.041 104.104 116.743 109.517 113.473Z" fill="#E7A37B"/>
<path d="M133.474 137.289C133.51 137.321 178.157 177.453 188.626 187.084L188.621 187.078L231.279 227.212C248.154 227.068 264.26 227.121 281.5 227.5C289.94 247.584 288.207 277.658 284.666 298.693C283.124 308.172 282.908 317.395 282.853 326.979C282.713 344.588 281.135 361.09 277.727 378.385C276.572 384.514 275.683 390.682 274.772 396.852C274.453 399.013 274.13 401.175 273.805 403.336L273.403 406.051C272.996 408.336 272.996 408.336 271.98 411.382H246.6C245.757 398.373 245.395 385.438 245.396 372.402C245.394 369.32 245.376 366.238 245.356 363.156C245.323 351.327 245.966 339.806 247.391 328.067C247.87 323.87 248.081 319.661 248.249 315.441L248.359 312.799C248.462 310.127 248.549 307.454 248.63 304.781L248.719 302.127C248.86 297.407 249.249 293.634 247.571 286.62C246.547 282.337 242.471 279.693 238.092 279.231C223.386 277.683 213.724 270.064 202 259L202.003 258.993L170.771 211.619C143.304 193.382 121.11 148.559 121.11 148.559L133.474 137.289Z" fill="#6A6D66"/>
<path d="M281.5 135C284.5 146.5 285.373 155.049 292 165.5C302.567 170.011 312.765 171.418 320.6 180.074C325.553 185.539 329.565 191.823 334.555 197.253C334.744 197.458 334.75 197.666 334.604 197.886C333.972 198.832 333.127 199.921 332.258 200.641C325.759 206.018 318.911 218.598 313.187 225.544C311.476 227.608 298.57 241.347 296.592 242.293C294.614 243.239 283.2 244.39 281.448 246.32C279.725 248.216 276.959 253.056 276.138 255.381C276.216 255.47 276.277 255.591 276.375 255.637C276.781 255.828 277.078 256.1 277.25 256.534C277.434 256.998 277.39 257.443 277.292 257.914C277.143 258.642 277.006 259.374 276.704 260.057C276.336 260.887 276.281 261.802 275.981 262.651C275.883 262.93 275.962 263.188 276.086 263.44C276.412 264.11 276.728 264.782 277.049 265.454C277.5 266.397 277.702 267.363 277.655 268.35C277.653 268.386 277.673 268.426 277.682 268.463C282.089 267.511 286.539 265.449 290.639 263.612C310.913 254.444 334.924 229.26 349.129 212.468C349.895 211.566 350.718 210.719 351.509 209.84C353.78 207.312 357.233 203.706 357.219 200.089C357.16 185.926 337.884 171.316 328.351 161.866C315.081 148.738 301.448 135.61 281.5 135Z" fill="#F7BB92"/>
<path d="M246.6 411.383C254.976 411.383 263.351 411.383 271.981 411.383C272.651 414.084 273.321 416.785 274.011 419.568C274.223 420.405 274.435 421.241 274.654 422.103C275.763 426.698 276.705 431.009 276.042 435.749C273.064 438.86 269.988 438.998 265.878 439.199C263.957 439.207 262.036 439.199 260.115 439.175C258.65 439.193 258.65 439.193 257.155 439.211C255.756 439.205 255.756 439.205 254.329 439.199C253.054 439.194 253.054 439.194 251.753 439.188C251.057 439.058 250.362 438.928 249.646 438.794C245.837 433.081 246.463 426.219 246.536 419.568C246.557 416.867 246.578 414.166 246.6 411.383Z" fill="#F6BB92"/>
<path d="M229.774 134.58C231.482 134.39 233.191 134.182 234.899 134.012C236.44 133.861 237.986 133.748 239.531 133.631C241.248 133.497 242.964 133.377 244.68 133.25C245.955 133.497 246.976 134.178 247.97 134.866C249.916 136.21 251.819 137.607 253.742 138.983C254.322 139.399 254.906 139.812 255.498 140.214C255.744 140.38 256.034 140.401 256.297 140.232C256.531 140.084 256.741 139.911 256.968 139.752C259.844 137.72 262.721 135.692 265.593 133.663C266.05 133.342 266.538 133.085 267.122 133C267.627 133.085 268.127 133.194 268.632 133.254C271.123 133.543 273.614 133.826 276.105 134.104C277.408 134.249 278.711 134.408 280.018 134.52C280.594 134.57 281.146 134.669 281.687 134.849C281.718 135.879 281.981 136.877 282.291 137.861C282.632 138.944 283.01 140.02 283.383 141.093C285.628 147.489 287.868 153.884 290.125 160.277C290.729 161.984 291.372 163.681 292 165.382C290.82 166.789 290.542 168.49 290.188 170.13C289.366 173.947 288.643 177.782 287.972 181.623C287.137 186.375 286.184 191.106 285.222 195.84C285.052 196.684 284.968 197.573 284.487 198.352C283.137 198.43 281.869 198.091 280.59 197.774C279.041 197.386 277.471 197.043 275.898 196.74C272.859 196.154 269.804 195.696 266.701 195.428C264.067 195.202 261.441 194.888 258.787 194.881C257.401 194.881 256.018 194.853 254.632 194.853C250.194 194.846 245.765 194.891 241.355 195.47C237.815 195.932 234.311 196.486 230.934 197.569C230.116 197.83 229.293 198.063 228.404 197.932C227.843 197.414 227.768 196.761 227.696 196.084C227.387 193.18 227.045 190.277 226.723 187.374C226.572 185.998 226.449 184.619 226.29 183.243C226.115 181.715 225.909 180.191 225.718 178.664C225.559 177.39 225.42 176.117 225.237 174.847C224.868 172.257 224.582 169.657 223.867 167.117C223.716 166.577 223.636 166.002 223.144 165.586C223.215 165.184 223.263 164.775 223.362 164.376C223.739 162.877 224.153 161.388 224.514 159.889C225.746 154.738 226.981 149.584 228.181 144.427C228.94 141.174 229.746 137.921 229.77 134.573L229.774 134.58Z" fill="#8989DE"/>
<path d="M228.416 197.941C229.306 198.068 230.128 197.839 230.947 197.578C234.324 196.498 237.828 195.944 241.367 195.479C245.777 194.9 250.207 194.858 254.644 194.861C256.031 194.861 257.413 194.89 258.8 194.89C261.454 194.893 264.08 195.207 266.714 195.436C269.817 195.704 272.876 196.163 275.911 196.749C277.484 197.052 279.053 197.398 280.603 197.782C281.882 198.1 283.149 198.439 284.5 198.361C284.607 199.649 284.142 200.89 284.091 202.164C283.817 210.8 282.342 219.345 281.711 227.952C266.714 227.952 246.009 227.836 231.197 227.836C231 226.5 231.061 226.094 230.931 224.819C230.927 224.778 230.922 224.736 230.918 224.694C230.151 217.359 229.741 209.986 228.841 202.675C228.65 201.106 228.237 199.543 228.412 197.945L228.416 197.941Z" fill="#F7BB92"/>
<path d="M241.941 127.654C235.656 120.938 234.56 112.504 234.076 103.869C234.714 103.263 234.832 102.44 234.699 101.684C234.144 98.5394 235.874 97.4577 238.413 95.8926C248.578 89.6213 258.442 88.8369 268.513 95.821C269.355 96.4048 270.422 96.6698 271.392 97.053C272.395 97.447 272.646 98.303 272.796 99.2342C272.718 100.796 272.585 102.354 272.564 103.915C272.453 112.235 271.654 120.347 265.791 126.977C257.911 129.699 249.957 129.871 241.938 127.657L241.941 127.654Z" fill="#F7BB92"/>
<path d="M242.354 67.7254C241.996 67.1881 241.96 66.5434 241.96 65.8988C242.032 63.0335 242.927 60.5263 245.148 58.6281C248.084 56.121 251.451 54.939 255.248 55.2972C259.438 55.6912 262.483 57.8401 264.202 61.7441C265.026 63.5707 265.24 65.469 264.99 67.4388C264.882 67.4388 264.811 67.4388 264.739 67.4747C262.984 67.403 261.265 66.9016 259.474 67.0449C259.295 67.0449 259.116 67.0449 258.973 66.9374C258.328 66.6509 257.612 66.6867 256.931 66.7225C253.636 66.83 250.341 66.5076 247.046 67.0091C245.47 67.2598 243.894 67.403 242.354 67.7254Z" fill="#7A4821"/>
<path d="M242.354 67.7259C243.895 67.4036 245.506 67.2603 247.046 67.0096C250.341 66.4723 253.637 66.8305 256.932 66.723C257.612 66.723 258.293 66.6514 258.973 66.9379C259.116 67.0096 259.296 67.0454 259.475 67.0454C261.265 66.9021 262.985 67.4036 264.74 67.4752C264.704 67.7259 264.74 67.9408 264.954 68.0841C264.954 68.9795 264.596 69.7316 264.417 70.5554C264.274 71.2001 263.916 71.8447 264.238 72.5611C261.838 72.0955 259.367 72.2387 256.932 72.2029C256.753 72.2029 256.573 72.2029 256.43 72.2029C254.604 71.6657 252.705 71.9522 250.843 71.8806C250.234 71.8806 249.589 71.8447 248.98 72.0955C248.873 72.1313 248.766 72.1671 248.658 72.1671C246.903 72.0238 245.184 72.6327 243.429 72.5611C243.501 72.0596 243.393 71.594 243.214 71.0926C242.82 69.9823 242.355 68.9078 242.39 67.7259H242.354Z" fill="#62350F"/>
<path d="M264.956 68.0841C264.741 67.9409 264.705 67.726 264.741 67.4753C264.812 67.4753 264.92 67.4395 264.991 67.4395C265.135 67.6543 265.099 67.8693 264.92 68.0841H264.956Z" fill="#6A6C64"/>
<path d="M272.799 99.2266C272.294 98.5103 271.775 98.034 270.937 97.4681C270.098 96.9022 269.354 96.3972 268.512 95.8134C258.444 88.8329 248.577 89.6173 238.412 95.885C235.873 97.4502 234.143 98.5318 234.698 101.676C234.831 102.432 234.713 103.256 234.075 103.861C233.635 101.01 233.251 98.1521 232.739 95.312C229.91 79.6427 242.055 67.1394 257.771 69.6286C266.474 71.0029 272.922 78.3057 274.593 86.752C275.428 90.9711 275.85 95.4302 272.795 99.2266H272.799Z" fill="#7A4821"/>
<path d="M265.426 131.607C265.494 132.381 265.565 133.154 265.633 133.928C261.816 141.825 257.998 149.723 253.703 158.605C249.47 149.834 245.63 141.883 241.791 133.932C241.852 133.136 241.916 132.345 241.977 131.55C249.789 133.842 257.604 133.713 265.422 131.604L265.426 131.607Z" fill="#F7BB92"/>
<path d="M265.425 131.607C257.603 133.713 249.788 133.846 241.98 131.553C241.969 130.253 241.955 128.953 241.944 127.653C249.963 129.867 257.918 129.695 265.798 126.973C265.676 128.52 265.55 130.064 265.429 131.611L265.425 131.607Z" fill="#DEA882"/>
</svg>
