<svg width="500" height="500" viewBox="0 0 500 500" fill="none" xmlns="http://www.w3.org/2000/svg">
<path d="M200.348 84.7539C200.048 78.7621 197.361 74.9828 193.348 70.7539C189.276 67.4856 185.603 66.2411 180.348 66.7539C180.08 65.9702 179.811 65.1864 179.535 64.3789C178.348 61.7539 178.348 61.7539 175.348 59.7539C173.148 59.3125 173.148 59.3125 170.66 59.1914C169.852 59.1282 169.044 59.0651 168.211 59C162.819 60.4197 158.918 64.3816 155.884 68.9656C154.601 71.321 153.429 73.7034 152.285 76.1289C147.306 86.0613 142.964 93.8158 133.07 99.4648C132.502 99.8902 131.933 100.316 131.348 100.754C131.348 101.744 131.348 102.734 131.348 103.754C140.17 105.256 147.038 105.38 155.348 101.754C155.734 102.297 156.121 102.839 156.52 103.398C157.04 104.114 157.561 104.829 158.098 105.566C158.863 106.628 158.863 106.628 159.645 107.711C163.087 111.84 166.487 113.789 171.824 114.285C177.314 113.13 181.098 108.068 184.348 103.754C185.526 101.095 185.485 100.171 184.57 97.3945C183.996 96.2112 183.996 96.2112 183.41 95.0039C183.03 94.2047 182.65 93.4055 182.258 92.582C181.957 91.9787 181.657 91.3755 181.348 90.7539C182.468 90.4884 183.588 90.2228 184.742 89.9492C186.215 89.5928 187.688 89.236 189.16 88.8789C190.267 88.6179 190.267 88.6179 191.396 88.3516C194.845 87.509 197.367 86.7411 200.348 84.7539Z" fill="#7B4A23"/>
<path d="M339.312 246.294C339.643 245.994 339.977 245.694 340.308 245.394C346.888 244.521 368.694 244.808 375.281 244C378.101 243.654 380.933 243.735 382.348 246.837C383.736 249.884 382.146 252.102 379.987 254.066C374.816 258.773 368.095 262.016 362.127 264.96C356.47 267.753 353.648 270.203 348.848 266C345.499 263.067 345.038 262.19 341.836 259.09C338.89 254.971 335.073 250.16 339.309 246.296L339.312 246.294Z" fill="#F6BB92"/>
<path d="M155.785 229.753C156.669 222.307 156.669 222.307 157.301 219.304C157.792 216.716 157.99 214.258 158.102 211.628C158.143 210.674 158.185 209.72 158.229 208.737C158.268 207.752 158.307 206.768 158.348 205.753C158.412 204.276 158.412 204.276 158.479 202.769C158.664 198.421 158.785 194.106 158.785 189.753C173.305 190.413 187.825 191.073 202.785 191.753C201.603 198.257 200.457 204.362 198.785 210.69C197.067 217.328 194.825 226.209 193.848 233C180.818 233.155 168.796 230.435 155.785 229.753Z" fill="#F6BB92"/>
<path d="M210.348 105.754C209.566 101.523 207.406 98.7894 204.918 95.3633C202.867 91.9559 201.669 88.5041 200.348 84.7539C197.555 85.5641 194.764 86.377 191.973 87.1914C191.179 87.4215 190.385 87.6516 189.566 87.8887C188.806 88.111 188.045 88.3334 187.262 88.5625C186.56 88.7667 185.858 88.971 185.135 89.1814C183.348 89.7539 183.348 89.7539 181.348 90.7539C181.645 91.4552 181.943 92.1564 182.25 92.8789C183.347 95.9243 184.109 98.5196 184.348 101.754C182.236 105.862 178.877 108.687 175.125 111.305C172.198 115.338 172.852 119.663 172.973 124.504C172.974 125.468 172.975 126.432 172.977 127.426C173.087 136.441 175.021 143.673 178.973 151.754C179.298 152.433 179.622 153.113 179.957 153.812C180.747 155.463 181.547 157.109 182.348 158.754C185.406 155.275 186.633 151.413 187.973 147.066C189.066 142.562 189.066 142.562 191.348 138.754C191.434 137.338 191.455 135.918 191.445 134.5C191.44 133.219 191.44 133.219 191.436 131.912C191.423 130.565 191.423 130.565 191.41 129.191C191.406 128.29 191.401 127.388 191.396 126.459C191.385 124.224 191.368 121.989 191.348 119.754C192.521 119.663 192.521 119.663 193.719 119.57C194.731 119.487 195.743 119.403 196.785 119.316C197.794 119.235 198.804 119.154 199.844 119.07C202.348 118.754 202.348 118.754 203.348 117.754C203.41 116.496 203.471 115.238 203.535 113.941C203.934 110.108 204.168 109.901 207.41 107.254C208.38 106.759 209.349 106.264 210.348 105.754Z" fill="#F6BB92"/>
<path d="M186.706 414.384C187.036 415.044 187.366 415.704 187.706 416.384C188.437 416.522 189.168 416.66 189.921 416.802C193.263 417.5 195.412 418.841 198.269 420.696C199.663 421.588 199.663 421.588 201.085 422.497C203.604 424.31 205.714 426.004 207.706 428.384C207.769 431.884 207.769 431.884 206.706 435.384C203.984 438.169 202.319 439.283 198.448 439.917C191.168 439.983 191.168 439.983 188.731 439.96C186.645 439.946 184.564 439.98 182.478 440.019C181.16 440.017 179.842 440.015 178.484 440.013C176.678 440.014 176.678 440.014 174.835 440.015C171.706 439.384 171.706 439.384 169.345 436.969C166.487 432.459 166.589 428.991 166.644 423.759C166.648 422.957 166.653 422.155 166.658 421.329C166.669 419.347 166.687 417.366 166.706 415.384C167.277 415.389 167.847 415.394 168.435 415.4C171.004 415.42 173.574 415.433 176.144 415.446C177.042 415.455 177.94 415.463 178.865 415.472C180.146 415.477 180.146 415.477 181.452 415.481C182.243 415.487 183.034 415.492 183.849 415.497C185.722 415.589 185.722 415.589 186.706 414.384Z" fill="#F6BB92"/>
<path d="M180.348 66.7539C180.348 66.0939 180.348 65.4339 180.348 64.7539C173.08 64.122 166.79 66.0211 161.035 70.5898C156.041 75.3825 152.607 79.6106 152.02 86.7344C152.03 88.1369 152.056 89.5394 152.098 90.9414C152.103 91.6523 152.108 92.3632 152.113 93.0957C152.16 96.2299 152.351 98.763 153.348 101.754C154.833 101.259 154.833 101.259 156.348 100.754C156.313 99.9199 156.278 99.0859 156.242 98.2266C155.947 86.4032 155.947 86.4032 161.387 76.3086C167.119 70.6495 172.433 68.0631 180.348 66.7539Z" fill="#6C401C"/>
<path d="M334.49 244.742C331.598 244.581 328.701 244.489 325.807 244.381C321.275 244.213 316.74 244.063 312.208 243.89C305.273 243.625 298.338 243.332 291.402 243.076C286.87 242.908 282.335 242.733 277.801 242.668C275.607 242.635 273.439 242.432 271.27 242.159C266.173 241.521 261.078 240.867 255.983 240.221C251.106 239.602 246.228 238.973 241.348 238.365C237.282 237.859 233.211 237.378 229.142 236.884C224.911 236.371 220.685 235.817 216.451 235.346C210.86 234.723 207.348 234.5 201.348 234C198.624 233.419 193.728 232.646 191.002 232.075C186.406 231.116 181.807 230.169 177.208 229.23C175.123 228.804 173.033 228.411 170.944 228C169.848 229.798 168.965 231.712 168.198 233.666C166.636 237.641 165.427 241.728 164.741 245.959C164.366 248.261 164.265 250.583 164.413 252.925C164.529 254.756 164.781 256.562 165.013 258.375C165.321 260.777 166.11 263.016 167.147 265.158C168.452 267.858 169.984 270.41 172.419 272.274C173.334 272.975 174.139 273.822 175.054 274.521C177.955 276.745 181.299 277.892 184.829 278.566C187.156 279.012 189.509 279.009 191.856 278.997C194.587 278.981 197.323 278.916 200.039 278.563C201.828 278.33 203.607 278.037 205.396 277.809C208.756 277.383 212.116 276.94 215.487 276.594C218.751 276.259 221.997 275.813 225.247 275.377C229.039 274.871 232.831 274.378 236.625 273.884C240.583 273.368 244.54 272.857 248.495 272.349C252.29 271.861 256.084 271.372 259.879 270.886C261.939 270.623 264.004 270.39 266.059 270.095C266.671 270.007 267.236 270.017 267.828 270.21C273.698 272.126 279.74 272.943 285.876 273.301C290.529 273.574 295.17 273.449 299.806 273.13C307.01 272.637 314.145 271.58 321.209 270.047C325.965 269.015 330.663 267.753 335.311 266.29C336.666 265.864 338.062 265.576 339.426 265.18C341.477 264.584 343.497 263.898 345.348 262.793C345.259 256.852 344.348 250.952 344.348 245C341.848 245 338.021 244.94 334.49 244.742Z" fill="#6A6E66"/>
<path d="M170.944 228C173.033 228.411 175.124 228.804 177.208 229.229C181.807 230.169 186.406 231.116 191.002 232.075C193.348 232.5 193.624 232.419 196.348 233C196.352 233.001 201.348 234 201.348 234C201.348 248.587 204.698 263.662 204 278C200.5 279 194.313 278.983 191.856 278.996C189.51 279.009 187.156 279.011 184.829 278.565C181.299 277.892 177.956 276.745 175.054 274.521C174.139 273.822 173.335 272.975 172.419 272.273C169.984 270.41 168.452 267.858 167.147 265.158C166.111 263.017 165.321 260.777 165.013 258.375C164.781 256.562 164.529 254.756 164.413 252.925C164.265 250.583 164.367 248.261 164.742 245.959C165.427 241.729 166.636 237.641 168.198 233.666C168.965 231.712 169.848 229.798 170.944 228Z" fill="#5A5F56"/>
<path d="M193.848 232.5C191.613 231.716 193.348 232 190.848 231C188.348 230 162.246 220.379 152.085 229.903C141.923 239.428 136.575 252.861 149.706 272.384C162.836 291.906 162.184 331.337 158.706 353.759C155.394 374.008 159.249 397.668 167.706 416.384C169.806 416.422 171.906 416.458 174.006 416.481L176.581 416.509L179.131 416.559L181.573 416.579C183.826 416.611 183.826 416.611 185.706 416.384C188.487 413.603 188.487 413.603 189.057 401.585L189.057 401.585L189.149 399.437C189.263 396.972 189.376 394.507 189.486 392.042C189.566 390.235 189.647 388.429 189.73 386.622C189.863 383.722 189.997 380.821 190.13 377.921C190.571 368.248 191.03 358.575 191.499 348.903C191.889 340.846 192.275 332.789 192.659 324.731L192.715 323.546C192.977 318.047 193.238 312.547 193.504 307.047C193.793 301.119 194.08 295.191 194.36 289.263C194.467 286.996 194.574 284.729 194.682 282.462C195.513 265.602 193.848 249.278 193.848 232.5Z" fill="#6A6E66"/>
<path d="M173.348 131.5C184.848 136 197.348 131.5 206.636 157.217C207.768 161.295 207.37 162.722 206.685 166.774C205.284 175.062 204.229 183.412 202.906 191.715C202.776 192.532 202.713 193.395 202.347 194.151C191.04 194.979 170.206 195.713 159.676 193.744C159.25 193.241 159.193 192.608 159.138 191.951C158.666 186.314 158.184 180.681 157.633 175.052C157.512 173.817 157.406 172.582 157.267 171.35C155.623 156.659 155.437 133.19 173.348 131.5Z" fill="#8989DE"/>
<path d="M156.848 234.5C165.348 236.5 175.874 228.564 171.848 226.5C167.822 224.436 163.348 220.5 161.348 217.5C159.348 214.5 153.159 197.31 149.596 185.577C149.318 184.655 149.675 183.952 150.34 183.362C158.139 176.437 168.088 169.701 177.42 165.075C178.687 163.109 179.863 161.088 180.836 158.969C181.948 156.551 182.706 154.02 182.717 151.319C182.732 147.755 181.865 144.529 179.062 142.091C177.238 140.506 172.348 137.899 167.348 140C162.348 142.101 134.651 164.723 129.024 178.147C128.537 179.305 128.489 180.453 128.751 181.648C134.348 195 139.506 207.566 147.848 219.5C151.58 224.84 148.348 232.5 156.848 234.5Z" fill="#FFB88B"/>
</svg>
