<svg width="500" height="500" viewBox="0 0 500 500" fill="none" xmlns="http://www.w3.org/2000/svg">
<path d="M129.837 377.674C130.294 377.674 130.802 377.624 131.26 377.573C132.378 377.065 133.547 376.963 134.715 377.217C135.173 377.217 135.63 377.115 136.138 377.065C136.952 376.709 137.714 376.353 138.629 376.709C138.934 376.709 139.239 376.607 139.543 376.607C139.848 376.302 140.204 376.251 140.611 376.353C141.221 376.251 141.83 376.201 142.44 376.099C142.745 375.743 143.101 375.743 143.508 375.845C143.965 375.794 144.422 375.692 144.88 375.642C145.185 375.286 145.54 375.235 145.947 375.337C146.404 375.286 146.862 375.184 147.319 375.133C147.624 374.778 147.98 374.727 148.386 374.828C148.742 374.778 149.098 374.727 149.505 374.676C150.165 374.117 151.029 374.32 151.842 374.117C161.702 371.677 171.205 368.12 180.353 363.698C181.37 363.19 182.386 362.733 183.403 362.225C184.724 362.58 185.131 363.851 185.893 364.766C189.806 369.34 193.567 373.964 197.43 378.538C198.903 380.266 200.174 382.147 202.003 383.519C203.172 384.281 204.494 384.18 205.764 383.976C207.746 383.621 209.779 383.468 211.71 382.858C211.863 382.655 212.066 382.604 212.32 382.706C213.083 382.655 213.896 382.553 214.658 382.503C214.963 382.147 215.319 382.096 215.776 382.248C216.386 382.147 216.996 382.045 217.606 381.943C217.911 381.639 218.266 381.588 218.673 381.689C219.13 381.639 219.588 381.537 220.045 381.486C220.35 381.13 220.706 381.079 221.112 381.181C221.57 381.13 222.027 381.029 222.485 380.978C222.637 380.775 222.84 380.673 223.095 380.775C223.552 380.673 224.009 380.622 224.416 380.52C224.721 380.165 225.077 380.165 225.483 380.266C226.093 380.165 226.703 380.114 227.313 380.012C227.618 379.656 227.973 379.656 228.38 379.758C228.837 379.707 229.295 379.606 229.752 379.555C230.057 379.199 230.413 379.148 230.819 379.25C231.277 379.199 231.734 379.097 232.192 379.047C232.497 378.691 232.852 378.64 233.259 378.742C233.716 378.691 234.174 378.589 234.631 378.538C234.784 378.284 234.987 378.233 235.241 378.335C235.546 378.284 235.8 378.233 236.105 378.132C236.41 377.776 236.766 377.674 237.172 377.827C237.782 377.725 238.392 377.624 239.002 377.522C239.154 377.319 239.358 377.268 239.612 377.319C244.745 376.099 249.878 374.981 254.96 373.71C258.721 372.745 262.329 371.22 265.734 369.34C266.75 368.781 267.716 368.272 268.733 367.713C273.866 364.766 278.185 360.903 281.184 355.719C283.318 352.111 284.589 348.198 284.843 344.03C284.335 342.557 284.335 341.693 284.843 340.168C284.691 338.084 284.386 336.001 283.674 334.018C283.471 333.51 283.369 332.951 283.268 332.392C282.912 331.477 282.505 330.613 282.149 329.699C281.133 327.005 279.558 324.616 277.677 322.482C275.289 319.839 272.544 317.552 269.546 315.57C266.547 313.588 263.345 312.063 260.144 310.386C257.094 308.811 253.994 307.439 250.742 306.371C244.694 304.44 238.544 303.119 232.293 301.95C226.703 300.883 221.011 300.527 215.37 300.324C210.338 300.12 205.307 300.019 200.276 300.578C196.82 300.934 193.313 301.34 189.806 301.289C189.247 301.289 188.688 301.442 188.129 301.493C186.249 301.594 184.47 302.306 182.59 302.102C182.386 302.255 182.234 302.458 182.031 302.509C180.252 302.865 178.473 303.322 176.643 303.17C176.237 303.525 175.779 303.525 175.271 303.627C173.594 303.83 171.866 303.983 170.24 304.288C166.174 304.999 162.108 305.711 158.093 306.626C153.519 307.642 148.895 308.557 144.422 310.031C144.575 311.149 144.321 312.063 143.152 312.623C142.288 313.08 141.576 313.741 140.814 314.35C138.425 316.028 136.088 317.756 133.699 319.433C132.225 320.449 130.751 321.466 129.277 322.38C128.566 322.838 127.753 322.736 127.295 322.177C126.838 321.669 126.787 320.856 127.295 320.144C127.448 319.941 127.6 319.788 127.753 319.585C129.023 317.908 130.345 316.282 131.615 314.605C133.445 312.216 135.224 309.827 137.002 307.439C137.561 306.727 138.171 306.066 139.137 305.965C138.629 305.457 138.12 304.898 137.561 304.44C133.597 301.086 129.633 297.732 125.72 294.327C121.705 290.922 117.741 287.415 113.777 284.01C108.237 279.233 102.698 274.506 97.1581 269.78C95.8876 268.712 94.7187 267.391 93.0924 266.781C92.4825 266.934 91.8726 267.137 91.3644 267.594C87.9085 271.152 84.3002 274.557 81.2509 278.419C75.0506 286.348 70.4766 295.14 67.5798 304.796C67.8339 305.304 67.6306 305.711 67.2241 306.066C66.97 306.981 66.7158 307.947 66.4617 308.862C66.9191 309.319 66.5634 309.675 66.2584 309.98C66.1568 310.437 66.0552 310.844 65.9535 311.301C66.4109 311.759 66.106 312.063 65.801 312.419C65.6994 312.877 65.5977 313.283 65.5469 313.741C66.0551 314.35 65.8011 314.859 65.3437 315.316C65.242 316.078 65.1403 316.841 65.0387 317.603C65.4961 318.315 65.4453 318.924 64.8863 319.534C64.4289 323.295 64.5305 327.005 64.8863 330.766C65.2929 331.071 65.3437 331.376 64.9371 331.732C65.0896 332.697 65.1912 333.663 65.3437 334.679C65.7503 334.984 65.8519 335.289 65.4453 335.645C66.3093 340.371 67.6815 344.894 69.6635 349.316C71.0865 352.518 72.8653 355.516 74.8473 358.362C76.2703 360.395 78.1 361.92 80.082 363.393C86.079 367.917 92.7366 371.169 99.8008 373.659C102.088 374.473 104.426 375.184 106.763 375.692C107.018 375.591 107.221 375.692 107.373 375.896C107.831 375.997 108.288 376.099 108.695 376.201C109.101 376.099 109.457 376.201 109.762 376.506C110.219 376.556 110.677 376.658 111.134 376.709C111.541 376.607 111.896 376.658 112.201 376.963C112.659 377.014 113.116 377.065 113.574 377.166C113.98 377.065 114.336 377.065 114.641 377.369C114.946 377.369 115.251 377.471 115.556 377.522C116.623 377.217 117.588 377.471 118.554 377.929C119.011 377.929 119.469 377.979 119.977 378.03C120.434 377.573 120.943 377.573 121.451 378.03C121.756 378.03 122.061 378.03 122.366 377.979C123.992 377.369 125.669 377.624 127.346 377.725C127.651 377.725 127.956 377.725 128.261 377.725C128.718 377.268 129.227 377.217 129.735 377.674H129.837Z" fill="#696D65"/>
<path d="M176.694 303.119C178.524 303.271 180.303 302.814 182.081 302.458C182.285 302.458 182.488 302.204 182.64 302.052C182.03 300.832 181.421 299.561 180.76 298.342C179.337 295.75 178.727 293.056 179.388 290.159C179.489 289.702 179.54 289.194 179.591 288.736C179.794 286.246 180.201 283.756 181.014 281.367C181.827 279.08 182.64 276.742 183.708 274.557C185.334 271.152 187.468 268.103 190.569 265.867C192.144 264.748 193.821 263.681 195.346 262.462C197.328 260.835 199.615 259.819 201.953 258.802C205.154 257.379 208.356 256.058 211.558 254.686C217.199 252.246 222.891 249.807 228.532 247.367C230.819 246.351 233.106 245.284 235.444 244.267C236.257 243.912 236.766 243.353 236.867 242.438C236.867 242.133 237.121 241.828 237.071 241.472C237.02 239.185 237.884 237.152 238.646 235.119C240.984 228.767 245.507 224.65 252.012 222.617C256.129 221.347 260.347 221.347 264.514 222.211C271.07 223.583 276.915 226.48 281.743 231.206C283.674 233.087 285.402 235.119 287.181 237.152C289.569 239.897 291.399 242.895 292.822 246.199C293.534 247.825 294.347 249.451 294.702 251.179C295.414 254.381 295.363 257.583 294.702 260.835C293.838 265.511 291.247 269.17 287.841 272.321C285.809 274.201 283.369 275.269 280.879 276.285C277.423 277.708 273.865 278.877 270.054 278.724C267.919 278.674 265.836 278.674 263.701 278.674C262.634 278.674 261.567 278.623 260.55 278.826C256.434 279.588 252.266 280.452 248.15 281.266C238.392 283.197 228.583 285.128 218.825 287.059C218.165 287.212 217.402 287.212 216.894 287.822C217.148 288.787 218.114 288.736 218.825 289.041C219.029 289.143 219.283 289.245 219.486 289.295C225.686 291.227 231.887 293.107 238.087 295.038C241.899 296.207 245.659 297.427 249.471 298.596C256.434 300.832 263.549 302.56 270.308 305.355C270.46 305.406 270.613 305.355 270.765 305.406C271.223 305.101 271.68 304.796 272.188 304.542C274.17 303.475 276.051 302.204 277.779 300.73C280.523 298.393 283.369 296.055 285.91 293.514C286.927 292.497 288.045 291.582 289.315 290.82C290.281 289.956 291.247 289.143 292.161 288.228C294.194 286.348 295.871 284.213 297.599 282.028C298.87 280.452 300.14 278.928 301.208 277.2C303.8 273.032 305.527 268.509 307.052 263.935C307.408 262.868 307.662 261.801 307.865 260.632C308.119 259.311 308.119 257.888 308.729 256.617C308.729 253.314 308.831 249.959 308.729 246.656C308.628 243.2 307.865 239.897 306.391 236.797C305.273 234.459 303.698 232.375 302.122 230.342C297.701 224.752 292.161 220.432 286.114 216.671C277.83 211.538 268.834 208.184 259.432 205.795C255.976 204.931 252.47 204.321 248.912 203.915C245.761 203.559 242.661 203.203 239.459 203C239.154 203.356 238.9 203.356 238.595 203C235.444 203 232.344 203 229.193 203C228.939 203.356 228.634 203.407 228.329 203C221.621 203.407 214.912 204.169 208.407 205.948C204.646 206.964 201.038 208.438 197.43 209.861C183.555 215.35 169.681 220.838 155.806 226.327C154.942 226.683 154.129 226.988 153.723 227.852C154.942 231.206 156.264 234.51 157.382 237.915C158.805 242.285 160.075 246.758 161.397 251.179C163.582 258.345 165.768 265.46 167.953 272.575C169.02 276.082 170.138 279.538 171.104 283.044C172.984 289.702 174.763 296.309 176.593 302.966L176.694 303.119Z" fill="#8A89DE"/>
<path d="M343.085 365.783C344.101 366.139 345.169 366.494 346.185 366.901C346.693 366.596 347.151 366.748 347.456 367.206C347.761 367.308 348.015 367.358 348.32 367.46C348.777 367.003 349.133 367.308 349.438 367.663C349.895 367.765 350.352 367.816 350.81 367.917C351.369 367.409 351.826 367.562 352.284 368.07C353.097 368.171 353.91 368.273 354.723 368.375C356.4 367.968 358.891 367.968 360.517 368.375C361.482 368.273 362.499 368.171 363.465 368.07C363.922 367.612 364.379 367.46 364.938 367.917C365.396 367.816 365.853 367.714 366.26 367.612C366.514 367.46 366.819 367.206 367.073 367.155C369.157 366.748 371.139 366.088 373.121 365.427C373.527 365.275 373.883 365.173 374.29 365.275C374.696 365.122 375.103 364.97 375.458 364.766C376.678 363.75 378 363.039 379.575 362.683C380.693 361.971 381.76 361.26 382.878 360.548C383.031 359.989 383.387 359.684 383.946 359.684C384.556 359.176 385.165 358.617 385.826 358.109C386.283 356.991 387.097 356.178 388.215 355.669C390.095 353.586 391.823 351.4 393.246 349.012C393.195 348.453 393.399 348.046 393.958 347.843C394.212 347.385 394.415 346.979 394.669 346.521C394.872 345.302 395.381 344.285 396.194 343.37C396.346 342.964 396.549 342.557 396.702 342.202C396.854 340.372 397.718 338.746 398.277 337.018C398.43 336.611 398.786 336.408 399.243 336.51C399.7 336.611 400.209 336.611 400.514 337.018C401.174 337.373 401.835 337.628 402.445 338.034C406.053 340.728 410.017 342.913 413.88 345.302C414.795 345.861 415.659 346.42 416.573 346.979C416.827 346.979 417.031 347.08 417.132 347.335C417.234 347.385 417.386 347.487 417.539 347.487C417.844 347.487 417.996 347.538 418.149 347.792C418.301 347.843 418.403 347.894 418.555 347.944C418.809 347.894 419.013 347.944 419.114 348.249C419.572 348.453 420.029 348.707 420.487 348.91C420.741 348.91 420.944 348.961 421.046 349.215C421.198 349.266 421.3 349.367 421.452 349.367C421.706 349.317 421.91 349.367 422.011 349.622C422.265 349.723 422.57 349.825 422.824 349.876C423.129 349.825 423.333 349.876 423.434 350.181C423.739 350.231 423.993 350.282 424.298 350.384C424.705 350.231 425.111 350.333 425.365 350.689C425.67 350.689 425.975 350.79 426.28 350.841C427.805 350.79 429.279 350.994 430.702 351.349C431.312 351.349 431.769 351.095 432.176 350.638C433.344 349.317 434.056 347.792 434.513 346.166C435.276 343.421 435.631 340.626 435.327 337.729C435.276 337.17 435.327 336.611 435.327 336.052C435.377 333.206 435.581 330.36 435.479 327.514C435.479 326.091 435.022 324.617 434.615 323.245C433.446 319.332 431.972 315.571 430.092 311.963C428.771 309.422 427.602 306.83 426.077 304.441C423.434 300.426 421.046 296.309 417.691 292.803C417.082 292.193 416.624 291.38 416.167 290.617C407.324 277.048 395.177 267.798 379.778 262.767C379.219 262.615 378.66 262.513 378.101 262.361C377.796 262.462 377.593 262.361 377.441 262.157C377.034 262.056 376.577 262.005 376.17 261.903C375.916 262.005 375.662 261.903 375.509 261.7C374.899 261.598 374.34 261.497 373.731 261.446C373.273 261.649 372.917 261.598 372.612 261.192C371.85 261.09 371.037 261.039 370.275 260.938C367.937 261.09 365.599 261.09 363.261 260.938C362.651 260.988 362.042 261.039 361.432 261.141C361.127 261.497 360.771 261.598 360.314 261.395C359.856 261.497 359.45 261.547 358.992 261.649C358.687 262.005 358.382 262.106 357.925 262.005C353.758 263.123 350.2 265.257 347.303 268.51C346.693 269.221 345.982 269.577 345.067 269.831C342.526 270.594 339.883 271.102 337.495 272.372C337.342 272.576 337.139 272.728 336.885 272.627C336.732 272.627 336.631 272.728 336.529 272.779C336.427 273.033 336.224 273.186 335.97 273.135C335.208 273.694 334.445 274.253 333.632 274.812C333.53 275.422 333.632 275.879 334.191 276.235C336.478 277.861 338.714 279.538 341.001 281.165C341.357 281.419 341.865 281.52 342.323 281.724C342.628 281.724 342.831 281.825 342.882 282.13C343.136 282.791 343.339 283.502 343.644 284.163C345.982 289.652 348.37 295.191 350.759 300.68C351.979 303.425 352.843 306.271 353.453 309.218C353.656 310.184 353.605 311.149 353.453 312.115C353.148 313.945 352.284 315.469 351.013 316.791C348.929 318.824 346.947 320.958 344.711 322.889C342.018 325.227 340.137 328.124 338.867 331.427C338.613 332.037 338.409 332.647 338.155 333.257C337.596 334.527 337.393 335.9 337.444 337.272C337.444 339.711 337.495 342.151 337.545 344.539C337.85 344.844 337.952 345.251 337.952 345.657C337.952 347.03 337.952 348.402 337.952 349.774C337.952 350.181 337.85 350.587 337.545 350.892C337.545 351.959 337.545 352.976 337.545 354.043C337.545 356.381 337.393 358.719 336.783 361.006C336.885 361.514 337.037 362.022 337.139 362.581C337.444 362.784 337.749 362.988 338.003 363.191C338.562 363.14 338.968 363.343 339.172 363.902C340.086 364.36 340.95 364.766 341.865 365.224C342.424 365.071 342.831 365.224 343.085 365.783ZM351.42 280.199C351.064 280.199 350.251 280.199 349.438 280.199C347.608 280.25 346.338 279.284 345.474 277.861C344.203 275.777 345.219 272.881 347.456 271.966C348.167 271.661 353.402 270.899 354.164 271C354.469 271 354.774 271.153 355.13 271.204C357.518 271.61 359.907 272.067 362.296 272.423C364.532 272.779 366.768 273.186 368.902 273.846C371.24 274.558 373.375 275.676 375.662 276.591C377.542 277.353 379.372 278.217 381.252 278.878C382.574 279.386 383.793 279.945 384.454 281.266C384.708 281.724 385.115 281.927 385.47 282.232C387.3 283.807 389.18 285.332 390.959 287.009C394.263 290.16 396.956 293.768 399.345 297.682C401.886 301.9 403.715 306.372 404.935 311.099C405.189 312.115 405.494 313.131 405.392 314.199C405.392 314.758 405.494 315.317 405.647 315.876C406.002 317.401 406.46 318.824 407.425 320.094C407.73 320.45 407.832 320.856 407.476 321.212C406.307 322.432 405.291 323.804 403.766 324.668C401.784 325.786 401.022 325.583 399.955 323.499C399.751 323.093 399.599 322.584 399.497 322.127C398.684 318.824 398.023 315.52 397.159 312.217C395.584 306.271 392.585 301.188 388.418 296.716C386.538 294.683 384.556 292.803 382.37 291.075C381.354 290.262 380.439 289.347 379.321 288.686C378.05 287.924 376.78 287.212 375.611 286.348C375.204 286.043 374.798 285.84 374.34 285.688C370.58 284.265 366.768 282.842 362.804 281.876C359.195 281.012 355.587 280.097 351.369 280.199H351.42Z" fill="#894100"/>
<path d="M270.765 305.457C270.613 305.457 270.41 305.457 270.308 305.406C263.549 302.611 256.434 300.883 249.471 298.647C245.71 297.427 241.899 296.258 238.087 295.089C231.887 293.158 225.687 291.278 219.486 289.346C219.232 289.296 219.029 289.194 218.826 289.092C218.114 288.787 217.199 288.889 216.894 287.873C217.403 287.263 218.165 287.263 218.826 287.11C228.583 285.179 238.392 283.248 248.15 281.317C252.266 280.503 256.383 279.639 260.55 278.877C261.567 278.674 262.634 278.725 263.701 278.725C265.836 278.725 267.919 278.725 270.054 278.776C273.866 278.928 277.423 277.708 280.879 276.336C283.369 275.32 285.809 274.252 287.842 272.372C291.247 269.221 293.839 265.613 294.703 260.886C295.312 257.634 295.363 254.432 294.703 251.23C294.296 249.451 293.483 247.876 292.822 246.25C291.399 242.946 289.57 239.948 287.181 237.203C285.402 235.17 283.674 233.138 281.743 231.257C276.864 226.531 271.07 223.634 264.514 222.262C260.347 221.398 256.129 221.398 252.012 222.668C245.558 224.65 241.035 228.767 238.646 235.17C237.884 237.203 237.02 239.236 237.071 241.523C237.071 241.828 236.867 242.133 236.867 242.489C236.766 243.404 236.257 243.963 235.444 244.318C233.157 245.335 230.87 246.402 228.533 247.418C222.891 249.858 217.199 252.297 211.558 254.737C208.356 256.109 205.155 257.481 201.953 258.853C199.666 259.87 197.379 260.886 195.346 262.513C193.821 263.732 192.195 264.749 190.569 265.918C187.418 268.154 185.334 271.203 183.708 274.608C182.64 276.793 181.827 279.08 181.014 281.418C180.201 283.807 179.744 286.297 179.591 288.787C179.591 289.296 179.49 289.753 179.388 290.21C178.778 293.107 179.388 295.852 180.76 298.393C181.421 299.612 182.031 300.832 182.64 302.103C184.521 302.306 186.3 301.544 188.18 301.493C188.739 301.493 189.298 301.29 189.857 301.29C193.364 301.29 196.82 300.985 200.326 300.578C205.358 300.019 210.389 300.172 215.421 300.324C221.062 300.527 226.754 300.934 232.344 301.95C238.595 303.119 244.745 304.441 250.793 306.372C254.045 307.439 257.145 308.811 260.195 310.387C263.346 312.013 266.598 313.588 269.597 315.571C272.595 317.553 275.339 319.84 277.728 322.482C279.608 324.617 281.235 326.955 282.2 329.699C282.556 330.614 282.912 331.478 283.318 332.393C283.623 332.291 283.928 332.138 284.233 332.037C286.063 331.325 286.774 329.902 286.317 328.022C286.317 327.869 286.215 327.717 286.164 327.564C284.64 323.397 283.115 319.23 281.54 315.062C280.676 312.826 279.304 310.946 277.322 309.523C276.661 309.065 276 308.608 275.39 308.049C274.018 306.829 272.443 306.118 270.765 305.406V305.457Z" fill="#FFB68A"/>
<path d="M342.424 281.774C341.967 281.621 341.459 281.52 341.103 281.215C338.816 279.589 336.58 277.911 334.293 276.285C333.734 275.879 333.581 275.472 333.734 274.862C332.768 275.015 332.006 274.557 331.294 273.998C326.924 270.796 322.604 267.544 318.233 264.291C317.979 264.088 317.725 263.885 317.522 263.631C314.93 260.886 311.779 258.904 308.831 256.668C308.221 257.939 308.17 259.311 307.967 260.683C307.764 261.801 307.51 262.919 307.154 263.986C305.578 268.56 303.901 273.083 301.309 277.251C300.242 278.979 298.921 280.503 297.701 282.079C296.024 284.213 294.296 286.399 292.263 288.279C291.348 289.143 290.332 290.007 289.417 290.871C290.688 292.447 292.009 293.971 293.178 295.648C295.821 299.307 295.719 300.68 293.127 304.39C292.466 305.304 291.755 306.168 291.043 307.083C289.112 309.472 287.791 312.216 287.181 315.113C286.317 319.433 287.181 323.499 290.383 326.802C292.365 328.835 294.398 330.868 296.38 332.85C297.549 334.019 298.311 335.442 298.819 337.017C299.226 338.237 299.277 339.406 298.972 340.626C298.565 342.099 298.158 343.573 297.65 345.047C297.294 346.064 297.142 347.08 297.193 348.147C297.294 349.926 298.057 350.993 299.734 351.552C302.326 352.416 304.969 352.62 307.662 352.264C311.474 351.756 315.285 351.705 319.046 352.01C323.62 352.416 327.635 354.297 330.888 357.651C332.209 359.023 333.632 360.192 335.157 361.259C335.462 361.513 335.868 361.564 336.224 361.767C336.427 361.564 336.631 361.31 336.834 361.107C337.444 358.82 337.647 356.482 337.596 354.144C337.596 353.077 337.596 352.061 337.596 350.993C337.444 350.688 337.19 350.434 337.19 350.129C337.19 348.605 337.19 347.029 337.19 345.504C337.19 345.2 337.444 344.945 337.596 344.641C337.596 342.201 337.596 339.762 337.495 337.373C337.495 336.001 337.647 334.629 338.206 333.358C338.46 332.748 338.663 332.138 338.918 331.529C340.188 328.225 342.018 325.379 344.762 322.99C346.947 321.059 348.98 318.975 351.064 316.892C352.385 315.621 353.198 314.046 353.503 312.216C353.656 311.251 353.707 310.285 353.503 309.319C352.894 306.372 352.03 303.526 350.81 300.781C348.421 295.293 346.033 289.804 343.695 284.264C343.39 283.604 343.187 282.892 342.932 282.231C342.729 282.079 342.577 281.977 342.373 281.825L342.424 281.774Z" fill="#FFB68A"/>
<path d="M176.694 303.119C174.865 296.462 173.035 289.804 171.206 283.197C170.189 279.691 169.122 276.184 168.055 272.728C165.869 265.613 163.684 258.447 161.499 251.332C160.126 246.911 158.907 242.438 157.484 238.068C156.366 234.663 155.044 231.359 153.825 228.005C151.944 228.97 150.013 229.834 148.234 230.902C145.795 232.376 143.152 233.494 140.56 234.561C137.562 235.831 134.766 237.458 131.92 239.084C126.076 242.438 120.435 246.047 114.895 249.96C110.067 253.365 105.188 256.719 100.36 260.124C100.004 260.378 99.6485 260.531 99.3435 260.785C97.6156 262.36 95.8877 263.936 94.1597 265.562C93.7531 265.969 93.4482 266.426 93.0925 266.884C94.7696 267.493 95.8877 268.815 97.1582 269.882C102.749 274.608 108.237 279.335 113.777 284.112C117.792 287.568 121.756 291.024 125.72 294.429C129.633 297.783 133.597 301.137 137.562 304.542C138.121 305 138.578 305.559 139.137 306.067C139.95 306.22 140.509 306.779 141.119 307.338C142.186 308.303 143.152 309.371 144.422 310.082C148.895 308.659 153.52 307.744 158.094 306.677C162.108 305.762 166.174 305.051 170.24 304.339C171.917 304.034 173.594 303.882 175.271 303.679C175.78 303.628 176.237 303.628 176.643 303.221L176.694 303.119Z" fill="#FFB68A"/>
<path d="M202.003 383.52C200.174 382.148 198.852 380.267 197.429 378.539C193.567 373.965 189.755 369.29 185.893 364.767C185.131 363.852 184.724 362.581 183.403 362.226C182.386 362.734 181.37 363.191 180.353 363.699C171.205 368.121 161.753 371.678 151.842 374.118C151.08 374.321 150.216 374.118 149.504 374.677C150.216 374.829 150.521 375.338 150.927 375.897C152.198 377.675 153.57 379.353 155.4 380.674C158.297 382.707 161.448 384.079 164.954 384.638C168.969 385.299 173.035 384.994 177.101 385.095C179.693 385.146 182.285 385.095 184.876 385.045C187.773 385.045 190.67 384.587 193.567 384.282C193.872 384.282 194.228 384.181 194.533 384.181C197.074 384.231 199.564 383.876 202.054 383.571L202.003 383.52Z" fill="#FFB68A"/>
<path d="M144.473 309.98C143.203 309.268 142.237 308.201 141.17 307.235C140.56 306.727 140.001 306.117 139.188 305.965C138.222 306.066 137.612 306.727 137.053 307.439C135.224 309.827 133.445 312.216 131.666 314.605C130.396 316.282 129.074 317.908 127.804 319.585C127.651 319.788 127.448 319.941 127.346 320.144C126.889 320.856 126.889 321.618 127.346 322.177C127.804 322.685 128.617 322.838 129.328 322.38C130.853 321.415 132.327 320.449 133.75 319.433C136.139 317.756 138.476 316.078 140.865 314.35C141.678 313.791 142.39 313.08 143.203 312.623C144.372 312.013 144.575 311.149 144.473 310.031V309.98Z" fill="#4A4A44"/>
<path d="M351.42 280.199C355.638 280.098 359.246 281.012 362.855 281.876C366.819 282.842 370.58 284.265 374.391 285.688C374.849 285.84 375.306 286.095 375.662 286.349C376.831 287.213 378.101 287.924 379.372 288.686C380.49 289.347 381.405 290.262 382.421 291.075C384.556 292.803 386.588 294.683 388.469 296.716C392.636 301.189 395.584 306.271 397.21 312.217C398.074 315.52 398.735 318.824 399.548 322.127C399.65 322.585 399.802 323.093 400.005 323.499C401.073 325.583 401.835 325.837 403.817 324.668C405.342 323.804 406.358 322.432 407.527 321.212C407.832 320.857 407.73 320.45 407.476 320.094C406.511 318.875 406.002 317.401 405.697 315.876C405.596 315.317 405.443 314.758 405.443 314.199C405.545 313.132 405.24 312.115 404.986 311.099C403.715 306.372 401.937 301.9 399.396 297.682C397.058 293.769 394.313 290.16 391.01 287.009C389.282 285.332 387.402 283.757 385.521 282.232C385.165 281.927 384.708 281.673 384.505 281.266C383.844 279.945 382.624 279.386 381.303 278.878C379.423 278.217 377.593 277.302 375.713 276.591C373.476 275.676 371.291 274.558 368.953 273.847C366.768 273.186 364.583 272.779 362.346 272.423C359.958 272.068 357.569 271.61 355.181 271.204C354.876 271.153 354.571 271.051 354.215 271C353.453 270.899 348.269 271.661 347.506 271.966C345.22 272.881 344.203 275.778 345.524 277.861C346.439 279.335 347.659 280.301 349.489 280.199C350.302 280.199 351.115 280.199 351.471 280.199H351.42Z" fill="#5D3718"/>
</svg>
