<?xml version="1.0" encoding="UTF-8"?>
<svg xmlns="http://www.w3.org/2000/svg" version="1.1" viewBox="0 0 1417.3 1417.3">
  <defs>
    <style>
      .cls-1 {
        fill: #696d65;
      }

      .cls-2 {
        fill: #e6a37b;
      }

      .cls-3 {
        fill: #5c3718;
      }

      .cls-4 {
        fill: #8989de;
      }

      .cls-5 {
        fill: #ffb68a;
      }

      .cls-6 {
        fill: #958b7c;
      }

      .cls-7 {
        fill: #894100;
      }
    </style>
  </defs>
  <!-- Generator: Adobe Illustrator 28.7.1, SVG Export Plug-In . SVG Version: 1.2.0 Build 142)  -->
  <g>
    <g id="_레이어_1" data-name="레이어_1">
      <g>
        <path class="cls-1" d="M822.3,1097.5c0,3.5-1.7,6.4-3.9,9.1-5.7,7.1-12.1,13.6-19.1,19.5-19.7,16.6-42,27.9-67.3,33.1-23.1,4.7-45.9,3.4-67.7-5.8-29.2-12.3-48.1-34.1-57.1-64.5-2.4-8.1-3.8-16.5-4-25-.1-4-1.1-7.9-1-11.9.1-6.4,0-12.8.2-19.2.1-4.8-.2-9.6-.5-14.4-.4-5.9-.2-11.8,0-17.7.3-8.5.6-16.9.1-25.4-.5-8.8-.4-17.6-.8-26.4-.8-16.1-.6-32.3-1.1-48.4-.6-20.3-1.2-40.6-1.9-60.9-.6-16.3-1.1-32.6-1-48.9,0-3,0-6.1.2-9.1,0-2-.5-3.7-1.8-5.3-1-1.1-1.7-2.3-2.6-3.4-5.6-7.1-10.1-14.8-13.7-23-4.5-10.2-8.8-20.6-13.1-30.9-1.2-2.9-2.1-6-3.1-9.1-1.3-3.9-2.5-7.9-4-11.8-6.4-15.9-10.5-32.5-13.8-49.3-1.8-9.1-3-18.3-4.3-27.5-.8-5.9-1.5-11.7-2.2-17.6-.6-5.9-1.2-11.8-1.6-17.7-.6-8.9-1-17.9-1.2-26.8-.2-10.5-.9-21.1-1.5-31.6-.3-6.4-.7-12.8-1-19.2-.7-16.4-1.4-32.9-2.1-49.4,0-.6,0-1.3,0-1.9,1.1-1.7,3-2,4.8-2.6.8-.2,1.5-.4,2.3-.8.4-.2.8-.4,1.1-.5.8-.4,1.7-.6,2.6-.4,1.9.9,2.1,2.7,2.6,4.3,13.2,42.6,26.2,85.2,39.6,127.7,6.8,21.5,14.6,42.6,21.9,63.9,2.9,8.3,9,14.7,14.7,21.2,10.5,12,21.1,23.9,32.1,35.5,13,13.7,26.6,26.7,39.1,40.8,1,1.1,1.9,2.2,2.4,3.5,7.9,26.8,15.3,53.8,22.2,80.8,8.3,32.7,16.5,65.4,26.5,97.6.6,1.8,1.2,3.6,1.3,5.6,1.9,16.3,2.5,32.7,3.1,49.1.5,13.2,1.2,26.4,1.7,39.6.1,2.7,1,4.8,3,6.7,17.6,16,35.1,32,52.8,48,5,4.5,9.7,9.3,14.2,14.2,1.5,1.6,3.2,3.3,2.7,5.8Z"/>
        <path class="cls-5" d="M693.7,749.9c-.4-.5-.7-1.1-1.1-1.5-4.7-5-9.4-10-14.2-14.9-12.7-13.1-25.4-26.2-38-39.3-.9-.9-1.9-1.8-2.4-2.9-1.4-2.8-3.5-5-5.8-7-5.1-4.5-9.1-9.9-13.4-15-1.9-2.3-3.8-4.7-5.7-7.1-4-5-7.1-10.5-9.2-16.7-6.4-19.1-13.2-38-19.5-57.1-5.2-15.8-9.8-31.7-14.8-47.6-3.4-11-6.9-21.9-10.3-32.9-5.2-16.9-10.4-33.9-15.7-50.8-.3-.9-.6-1.8-1-2.7-.3-.7-1-.7-1.6-.9-1.8.3-1.3-1-1.1-1.7,1.1-3,0-5.7-1.3-8.2-4.7-9-9.3-18.2-14.2-27.1-1.9-3.4-3.9-6.5-7.6-8.2.4-1.6,0-3.1-.6-4.7-1.4-4.1-2.9-8.1-3.6-12.4-.4-2.8-1.1-5.6-1.4-8.5-.3-4.3.2-8.5,1.3-12.8,2.6-10.2,7.5-19.3,12.8-28.3,2-3.4,4.9-5.8,8.3-7.7,2.6-1.5,5.4-1.8,8.4-1.1.8.2,1.5.4,2.3.6,2.3.6,2.3.5,3.7-1.7,2.5-4.1,4.8-8.2,7.8-12.1,3.3-4.2,7.2-7.7,11-11.3,2.1-2.1,4.9-3,7.6-4,2.4-.9,4.8-1.8,7.3-2.1,3.3-.4,6.7.2,9.6,1.9,3.5,2.1,6.1,5,8,8.7,2.3,4.3,3.2,9.1,3.8,13.8.5,4.1,1.5,8.2,2.4,12.2,1.8,7.4,3.3,14.9,4.6,22.5,1.5,9,2.8,17.9,3.9,27,.7,6.2,1.2,12.4,2,18.5.7,4.9.3,9.9,1.4,14.8.5,2,.6,4.2-.8,6-6.8,4.1-14.4,5.7-21.9,7.6-2.8-.3-2.4-2.5-2.4-4.4.5-29.5-8.7-56.2-23.4-81.3-2.5-4.3-5.9-8-9-11.8-.8-1-1.8-1.8-2.9-2.5-1.7-1.1-3.6-2.8-5.5-.8-1.9,2.1-.3,3.9,1.1,5.4,17.7,18.1,25.6,40.8,31,64.8,1.7,7.6,2.9,15.4,2.7,23.3-.1,3.8,2.2,7,2.7,10.6,14.9,31.7,29.9,63.5,44,95.6,5.8,13.1,11.7,26.2,17.8,39.2.8.9,0,2.7,1.7,3.1,2.7,8.9,6.1,17.4,10.1,25.7,1.3,2.7,2.5,5.5,3.6,8.3,1.6,3.8,4.4,6.8,7.7,8.9,8.8,5.5,17.7,10.8,26.5,16.2,3.8,2.3,7.7,4.5,11.5,6.8,5,3.1,10,6.3,15.1,9.3,6,3.6,12.1,7.1,18.2,10.6,4,2.3,8,4.7,12,6.9,1,.5,2,.9,3.1,1.3,7.2,3.1,13.4,8,19.7,12.6,7.5,5.5,14.8,11.2,21.9,17.2,7.4,6.3,13.4,13.7,18.2,22.1,4.8,8.3,6,17.6,6.7,26.7,1.1,15.2,2.1,30.6-1.7,45.7-4.1,16.2-9.8,31.4-22.4,43.2-15.2,14.1-35.5,14.4-51.2-3-5.8-6.4-9.7-13.9-12.7-21.9-2.6-7-5.8-13.9-7.6-21.2-.6-2.4-1.9-4.3-3.8-6-10.9-9.6-20-21.1-30.5-31.2-1.4-1.3-2.3-3.1-3.3-4.7Z"/>
        <path class="cls-4" d="M693.7,749.9c1.3,1.2,2.6,2.3,3.9,3.6,8.5,8.7,16.9,17.5,25.3,26.2,2,2.1,4.1,4,6.3,5.9,1.4,1.2,2.3,2.6,2.8,4.3,1.8,7.8,5.3,15,8,22.5,2.9,8.1,7.1,15.8,13.1,22.2,5.9,6.3,13,10.9,21.7,12.1,5.8.8,11.4-.3,16.8-2.7,7.1-3.1,12.5-8.3,17.1-14.3,8-10.7,12.5-22.9,15.4-35.8,1.4-6.2,1.9-12.6,2.7-18.9.4-3,.5-6.1-.3-9-.6-2-.4-4.1-.3-6.2,0-8-1.1-15.8-2.4-23.7-1.5-9.3-6.2-16.6-11.7-23.7-4.8-6.2-10.8-11.3-16.9-16.2-5.1-4.1-10.2-8.2-15.5-12.1-5-3.7-10.2-7.1-15.4-10.5-1.3-.9-2.7-1.7-3.6-3.1,1.2-1.1,2.7-1.7,4.2-2.4,3-3.6,7.3-3.4,11.4-3.8,23.8-2.7,42.8,8.4,61,21.5,4.8,3.5,10.2,6.6,12.9,12.5.9,2.6,2.5,4.9,4.5,6.7,5.8,5.4,9,12.3,11.7,19.5,2.3,6.3,3.9,12.8,5,19.4,1.2,7.2,2.5,14.4,3.1,21.8.5,6,1.6,12,2.5,18,0,.3.1.6.1,1,.2,7.5.9,15,1.3,22.4.6,10.1.5,20.1.6,30.1.2,10.5.2,21.1,0,31.6,0,3.5-.7,7-1.2,10.5-1.4,10.3-3,20.5-4.3,30.8-1.1,8.5-2,17.1-3.2,25.6-.5,3.8-.6,7.6-2,11.3-7.8,1.3-15.6-.3-23.3-1.1-24.5-2.4-48.9-4.9-73.4-7.3-7.3-.7-14.6-1.5-21.9-2.2-2-.2-4.2-.5-5.8-1.9-.2-1.1-.3-2.2-.7-3.3-3.5-9.6-6-19.5-8.7-29.3-4-14.1-7.7-28.3-11.4-42.5-3.4-12.9-6.6-25.9-10-38.9-4.7-18-9.3-36.1-14.8-53.9-1.7-5.5-3.3-11-4.3-16.6Z"/>
        <path class="cls-7" d="M712.6,506.3c1.5-11.3,6-21.5,12.7-30.6,11.5-15.6,26.5-26.6,45.2-32.1,10.6-3.1,21.4-3.4,32.3-2.2,12.2,1.3,23.7,5.1,34.5,10.7,1.4.7,2.9,1.4,4.3,2.1,2.7,1.2,5.4,1.8,8.4,1.2,0,6,4,10,7.7,13.8,16.4,16.8,22.8,37.3,22.4,60.3-.3,14.5-5.4,27.5-11.8,40.1-3,6-6.2,11.9-10.7,17-3.2,3.7-3.1,7.8-.4,10.4,2.8,2.7,7.2,2.4,10.8-.8,11.2-10.1,17-23.4,21.8-37.2,2.1-6,3.3-12.4,5.3-18.4.3-.9.6-1.9.5-2.8-.7-20.9-3.1-41.5-15-59.6-2.7-4.2-5.6-8.2-9.2-11.6-1.3-1.2-2.7-2.3-3.7-3.8-3-4.5-6.3-8.6-12.1-9.4,1.7-1.2,3.7-1,5.6-.8,2.6.3,5.1.2,7.7,0,4.5-.3,8.9.3,13.3,1.2,3.9.8,7.6,2.5,11,4.7,6.5,4.2,12,9.5,16.3,16,6.9,10.4,11.2,21.9,13.5,34.1,1.4,7.3,1.7,14.6,1.3,21.9,0,.9-.1,2,0,2.8.7,2.5.5,5.1.4,7.6-.2,7.5-.4,15-.8,22.5-1.1,18.1-4.6,35.8-11.5,52.7-2.6,6.4-5.7,12.5-9.5,18.3-1.4,2.1-2.7,4.4-4.1,6.5-3.6,5.3-8.1,9.4-14.4,11.4-3.3,1-6.6,1-10,.6-1.3-.1-2.4-.8-3.5-1.5-4.4-2.8-8-6.3-10.5-10.9-5.9-10.7-9.9-22.1-12.4-34.1-.5-2.5-.8-5-1.1-7.6-.1-.9-.2-1.9-.9-2.7-.3-.2-.5-.4-.8-.6l-.2-.2c-4-2.2-5.1-6.4-7.1-9.9-6.9-11.8-13.1-24.1-21.5-35-4.8-6.2-11-8.4-18.6-7.3-4.4.6-8.8,1.4-13.2,2-14.5,1.9-27.7-.4-39.3-10.5-9.2-8.1-19.2-15.4-30.1-21.1-3.2-1.7-3.4-4.2-2.7-7.3Z"/>
        <path class="cls-5" d="M712.6,506.3c0,1,.1,1.9.1,2.9,0,1.3.6,2.1,1.7,2.6,9.1,4.1,16.7,10.5,24.7,16.4,4,2.9,7.8,6.1,11.7,9.2,2.8,2.3,5.8,4,9.3,4.7,2.2.4,4.3,1.1,6.5,1.7,5.2,1.5,10.4,1.3,15.7.6,4.7-.6,9.5-1.5,14.2-2.2,2.2-.3,4.5-.4,6.7-.4,5.1.1,9.3,2.2,12.6,6,3.6,4.1,6.7,8.5,9.4,13.3,5.3,9.3,11,18.4,15.9,27.9,1.2,2.2,2.6,4.4,3.9,6.5-.7.7-1,1.6-.9,2.6.3,4.6-.3,9.3.8,13.8.3,1.4.1,2.9.2,4.3.2,10.7.9,21.3,1.9,32,0,.2,0,.3,0,.5-.2,8,1.1,15.9,1.1,23.9,0,6.2,1.2,12.4,1,18.6,0,2.3,1,4.7.7,7.1-4.6-4.1-9.2-8.3-14.2-12-9.4-6.9-19.5-12.7-30.4-16.9-.9-.3-1.8-.7-2.7-1.1-4.7-2-9.6-3.3-14.9-2.9-2.9.2-5.7.1-8.6,0-5-.2-9.8.7-14.4,2.7,0-2.3-.6-4.4-1-6.6-.6-3.8-1.4-7.5-2-11.3-.6-3.6-2.6-5.8-6.1-6.6-2.3-.6-4.6-1.1-7.1-1-2.2.1-4.5,0-6.7,0-5.8,0-11.5-1.1-16.7-3.6-8.6-4.1-13.5-11.2-14.2-20.7-.4-5.1-1.1-10.2-2.2-15.1-1.2-5.4-4-9.7-9.5-11.7-2.3-.8-4.5-1.7-6.7-2.6-1.6-.6-3.3-1.2-4.8-2.1-3.6-2.1-4.8-4.5-3.3-9.4.9-2.9,2.8-5.4,4.7-7.7,2.8-3.5,5.8-6.8,9-10,3.9-3.8,7.2-8.1,9.9-12.8,4.3-7.3,5.6-15.2,4.3-23.5-.3-2.2-.5-4.4-.6-6.7,0-2.2,0-4.5,0-6.7,0-1.2-.3-2.6.8-3.6Z"/>
        <path class="cls-5" d="M743.6,934.4c4.4.3,8.9.6,13.3,1,5.2.5,10.4,1.1,15.7,1.7,4.9.5,9.8,1,14.7,1.6,3.5.4,7,.4,10.5,1,4.5.8,9.2.8,13.8,1.3,4.7.5,9.5,1,14.2,1.6,3.5.4,7,.4,10.5,1,4.5.8,9.2.7,13.8,1.3,4.8.6,9.5.9,14.3,1.1,1.2,0,2.4.6,3.7,1,.5,3.6-.7,7-1.3,10.4-1.2,6.7-2.9,13.4-4,20.1-3.3,21.7-9.4,42.5-16.5,63.2-2.4,6.9-4.8,13.9-7.8,20.5-.7,1.6-1.1,3.3-1.6,5-2.9,9.8-6.8,19.2-11.8,28.2-.7,1.3-1.5,2.5-2.8,3.2-1.9-3.2-4.3-5.9-7-8.5-8-8-16.5-15.6-24.9-23.2-4.2-3.7-8.2-7.6-12.4-11.3-9.1-8.3-18.1-16.6-27.3-24.8-1.7-1.5-2.4-3.2-2.5-5.4-.3-10.9-.5-21.7-1.2-32.6-.5-8.1-.4-16.3-1-24.4-.4-5.3-.4-10.5-.8-15.8-.3-4.3-.9-8.6-1.4-12.8-.2-1.4-.4-2.8-.2-4.3Z"/>
        <path class="cls-3" d="M855.6,453.3c1.9,0,3.8,0,5.7.1,1.4,0,2.4.5,2.9,2,1.1,3.1,3.1,5.5,5.5,7.7,7.5,6.7,12.9,15,17.1,24,3.3,7.1,5.9,14.4,7.2,22.2.5,3.1,1.2,6.2,1.7,9.4.2,1.4.1,2.9.2,4.3.2,4.3-.4,8.6.9,12.8.4,1.5.3,3.2-.3,4.7-2.4,5.9-3.6,12.2-5.3,18.3-1.6,5.7-3.8,11.1-6.9,16.2-1.5,2.5-2.8,5-4,7.6-2,4.2-4.6,8-8.1,11.2-1.5,1.4-2.9,3-4.5,4.4-2.9,2.5-7.1,2.9-10.3,1.1-3.7-2.1-5.1-7.2-2.9-10.8.6-1.1,1.3-2.3,2.2-3.1,3.7-3.5,5.9-7.9,8.2-12.3,1.6-3.1,3.2-6.2,4.7-9.4,3-6.7,5.8-13.4,7.5-20.6.1-.5.4-.9.5-1.4.7-7.1,1.8-14.3,1-21.4-1-9.2-2.4-18.3-6-26.9-1-2.3-2.2-4.6-3.6-6.8-3.8-6.1-8-11.8-13-17-1.9-1.9-3.4-4.2-5.2-6.2-2.1-2.3-2.7-5.1-.9-7.9,1.7-1.2,3.5-2,5.6-2Z"/>
        <path class="cls-1" d="M650.5,574.2c-1.2-2.2-2.5-4.5-3.2-6.9-.2-.6-.5-1.2-.8-1.7-5.9-9.4-9.4-19.9-13.8-30-8.5-19.3-17.6-38.3-26.4-57.5-5.4-11.8-10.8-23.5-16.3-35.2-.6-1.3-1.3-2.6-1.9-3.8-1-2.9,1.2-3.5,3.1-4.3,1.2-.5,2.6.4,3.7-.5,6.4-2.1,12.8-4.2,19.2-6.2.9-.3,1.8-.4,2.7-.5,0,.4.2.8.3,1.1.4.8,0,1.7.5,2.5,1.2,8.1,3.5,15.9,5.5,23.8,9.4,38.5,18.8,77,28.2,115.5.2.6.2,1.3.2,1.9.4,1,.9,2-1,1.9Z"/>
        <path class="cls-2" d="M516.9,408.2c3.1-.3,4.9,1.1,6.4,3.8,4.8,8.4,9.5,16.8,13.6,25.5,1.2,2.6,2.8,4.9,3.9,7.6,1.1,2.7,1.7,5-.1,7.5,0,.1.2.5.4.8-.5.7-1.2.9-2,.8-3.5.5-5.7-1.2-7.2-4.3-4.9-9.9-10.2-19.5-15.6-29.1-1.2-2.2-1.3-4.6-1.9-6.8-.7-2.6.3-4.5,2.6-5.9Z"/>
        <path class="cls-5" d="M514.3,414.1c3.8,7.8,8,15.4,12.2,22.9,2.2,3.9,4.1,7.9,6,11.9,1.2,2.6,2.6,4.7,5.9,4.8.2,0,.5.4.7.6,0,0,0,0,0,0-.5.6-1.3.4-1.9.8-1.8.9-3.6,1.7-5.7,2.1-1.3-1.4-2.5-3-4-4.1-3.2-2.2-5.6-5.2-8.4-7.7-1.9-1.8-3.1-4.1-3.8-6.6-1-3.8-1.8-7.7-2.7-11.6-.2-1,0-1.9,0-2.8.6-3.4,1.1-6.9,1.6-10.4Z"/>
        <path class="cls-6" d="M650.5,574.2c.8-.4.8-1.2,1-1.9,1.1,1.1.9,2.6,1.2,4-.4.3-.8.6-1.2,0-.4-.6-.7-1.4-1-2.1Z"/>
        <path class="cls-5" d="M617.6,431.1c-.8-.7-.8-1.6-.5-2.5.8.7.8,1.6.5,2.5Z"/>
        <path class="cls-5" d="M845.3,595.5c.5,0,.8,0,.8.6-.4,0-.7-.1-.8-.6Z"/>
        <path class="cls-2" d="M537.2,455.1c.4-.7,1.1-.9,1.9-.8-.4.7-1.1,1-1.9.8Z"/>
        <path class="cls-2" d="M594.8,434.2c-1.6,1.2-3.5,1.5-5.2,2.1-1.3.4-1.6,1.5-1.5,2.7-1.8-1-.1-2.7-.8-3.9-.7-1.2-2.1-2-2.1-3.6,0-.8,0-1.6,0-2.4.2-8-1-15.8-2.6-23.6-1.4-6.7-2.9-13.3-5.1-19.8-3.2-9.7-7.4-19-12.4-27.9-3-5.4-6.4-10.6-11.1-14.8-1.5-1.4-3.1-2.7-4.2-4.6-1.3-2.3-1.2-3.2.6-5.1.2-.2.5-.4.7-.7,1-1,2.2-1.3,3.5-.6,2.9,1.7,5.7,3.3,7.7,6.2,2.3,3.2,5.1,6.1,7.2,9.5,4.3,6.9,8,14.1,11.3,21.6,2.6,5.9,4.4,11.9,6.5,17.9,2.1,6,3.4,12.2,4.6,18.5,1.9,9.1,2.6,18.2,1.6,27.5,0,.8.7.9,1.3,1.1Z"/>
      </g>
    </g>
  </g>
</svg>