<svg width="500" height="500" viewBox="0 0 500 500" fill="none" xmlns="http://www.w3.org/2000/svg">
<path d="M207.364 366.694C207.364 368.118 208.056 369.298 208.951 370.397C211.27 373.287 213.875 375.932 216.724 378.333C224.74 385.088 233.815 389.687 244.111 391.803C253.512 393.715 262.79 393.186 271.662 389.442C283.544 384.437 291.236 375.565 294.898 363.194C295.875 359.898 296.445 356.48 296.526 353.021C296.567 351.393 296.974 349.806 296.933 348.178C296.892 345.573 296.933 342.969 296.852 340.364C296.811 338.411 296.933 336.458 297.055 334.504C297.218 332.103 297.136 329.702 297.055 327.301C296.933 323.842 296.811 320.424 297.014 316.965C297.218 313.384 297.177 309.803 297.34 306.222C297.665 299.67 297.584 293.077 297.788 286.525C298.032 278.264 298.276 270.003 298.561 261.742C298.805 255.109 299.008 248.476 298.968 241.842C298.968 240.622 298.968 239.36 298.886 238.139C298.886 237.325 299.09 236.633 299.619 235.982C300.026 235.535 300.311 235.046 300.677 234.599C302.956 231.709 304.787 228.576 306.252 225.239C308.083 221.088 309.833 216.856 311.583 212.664C312.071 211.484 312.438 210.223 312.845 208.961C313.374 207.374 313.862 205.746 314.472 204.159C317.077 197.689 318.745 190.933 320.088 184.096C320.821 180.393 321.309 176.649 321.838 172.905C322.164 170.504 322.449 168.144 322.733 165.743C322.978 163.342 323.222 160.941 323.385 158.54C323.629 154.918 323.792 151.256 323.873 147.634C323.954 143.361 324.239 139.047 324.483 134.774C324.605 132.17 324.768 129.565 324.89 126.961C325.175 120.287 325.46 113.572 325.745 106.858C325.745 106.614 325.745 106.329 325.745 106.085C325.297 105.393 324.524 105.271 323.792 105.026C323.466 104.945 323.181 104.864 322.856 104.701C322.693 104.62 322.53 104.538 322.408 104.497C322.082 104.335 321.716 104.253 321.35 104.335C320.577 104.701 320.495 105.433 320.292 106.085C314.92 123.421 309.63 140.757 304.177 158.052C301.409 166.801 298.235 175.388 295.264 184.056C294.084 187.433 291.602 190.038 289.282 192.683C285.009 197.566 280.696 202.409 276.219 207.13C270.929 212.705 265.394 217.995 260.308 223.733C259.901 224.181 259.534 224.628 259.331 225.158C256.116 236.064 253.105 247.051 250.297 258.039C246.919 271.346 243.582 284.653 239.513 297.757C239.268 298.49 239.024 299.222 238.984 300.036C238.21 306.669 237.966 313.343 237.722 320.017C237.519 325.389 237.234 330.761 237.03 336.132C236.99 337.231 236.623 338.086 235.809 338.859C228.647 345.37 221.526 351.881 214.323 358.392C212.288 360.224 210.375 362.177 208.544 364.171C207.933 364.822 207.242 365.514 207.445 366.531L207.364 366.694Z" fill="#696D65"/>
<path d="M259.697 225.239C259.86 225.036 259.982 224.791 260.145 224.629C262.057 222.594 263.97 220.559 265.923 218.565C271.092 213.234 276.26 207.903 281.387 202.572C281.754 202.206 282.161 201.84 282.364 201.392C282.934 200.252 283.788 199.357 284.724 198.543C286.8 196.712 288.428 194.515 290.178 192.439C290.951 191.503 291.724 190.526 292.497 189.55C294.125 187.515 295.386 185.277 296.241 182.754C298.845 174.981 301.613 167.29 304.177 159.517C306.293 153.087 308.165 146.617 310.199 140.146C311.583 135.67 313.007 131.234 314.391 126.758C316.507 119.88 318.623 112.962 320.78 106.085C320.902 105.719 321.024 105.352 321.187 104.986C321.309 104.701 321.594 104.701 321.838 104.62C322.571 104.742 322.367 104.213 322.286 103.928C321.838 102.707 322.286 101.608 322.815 100.591C324.727 96.9284 326.599 93.1845 328.593 89.5627C329.367 88.179 330.181 86.9175 331.686 86.2257C331.523 85.5746 331.686 84.9642 331.93 84.313C332.5 82.6445 333.111 81.0168 333.395 79.2669C333.558 78.1274 333.843 76.988 333.965 75.8078C334.087 74.0579 333.884 72.3488 333.436 70.5989C332.378 66.448 330.384 62.7448 328.227 59.0823C327.413 57.6986 326.233 56.722 324.849 55.9488C323.791 55.3383 322.652 55.2162 321.431 55.5011C321.106 55.5825 320.821 55.6639 320.495 55.7453C319.559 55.9895 319.559 55.9488 318.989 55.0535C317.972 53.385 317.036 51.7165 315.815 50.1294C314.472 48.4202 312.885 46.9959 311.339 45.5309C310.484 44.6763 309.345 44.31 308.246 43.9031C307.269 43.5368 306.293 43.1706 305.275 43.0485C303.932 42.8857 302.549 43.1299 301.369 43.8217C299.944 44.6763 298.886 45.8564 298.113 47.3622C297.177 49.112 296.811 51.0654 296.567 52.978C296.363 54.6465 295.956 56.315 295.59 57.9428C294.857 60.9542 294.247 64.0063 293.718 67.0991C293.108 70.7617 292.578 74.3835 292.131 78.0867C291.846 80.6098 291.643 83.1329 291.317 85.6153C291.032 87.6093 291.195 89.6441 290.747 91.6381C290.544 92.452 290.503 93.3473 291.073 94.0798C293.84 95.7483 296.933 96.3994 299.985 97.1726C301.124 97.0505 300.962 96.1552 300.962 95.382C300.758 83.377 304.502 72.5115 310.484 62.2971C311.502 60.5473 312.885 59.0416 314.147 57.4952C314.472 57.0882 314.879 56.7627 315.327 56.4778C316.019 56.0302 316.792 55.3383 317.565 56.1522C318.338 57.0068 317.687 57.7393 317.117 58.3497C309.914 65.7155 306.7 74.9532 304.502 84.72C303.81 87.8128 303.322 90.987 303.403 94.2019C303.444 95.7483 302.508 97.0505 302.305 98.5155C296.241 111.416 290.137 124.357 284.399 137.42C282.039 142.751 279.638 148.082 277.155 153.372C276.83 153.738 277.155 154.471 276.463 154.634C275.365 158.255 273.981 161.715 272.353 165.092C271.824 166.191 271.336 167.33 270.888 168.47C270.237 170.016 269.098 171.237 267.755 172.092C264.174 174.33 260.552 176.487 256.971 178.684C255.424 179.62 253.837 180.516 252.291 181.452C250.256 182.713 248.221 184.015 246.146 185.236C243.704 186.701 241.222 188.125 238.739 189.55C237.111 190.486 235.484 191.462 233.856 192.358C233.449 192.561 233.042 192.724 232.594 192.887C229.664 194.148 227.141 196.142 224.577 198.014C221.525 200.253 218.555 202.572 215.665 205.014C212.654 207.578 210.212 210.589 208.259 214.007C206.306 217.385 205.817 221.17 205.532 224.873C205.085 231.058 204.678 237.325 206.224 243.47C207.893 250.063 210.212 256.249 215.34 261.051C221.525 266.789 229.786 266.911 236.176 259.83C238.536 257.225 240.123 254.173 241.344 250.918C242.402 248.069 243.704 245.261 244.437 242.29C244.681 241.314 245.21 240.54 245.983 239.849C250.419 235.942 254.122 231.262 258.395 227.152C258.965 226.623 259.331 225.89 259.738 225.239H259.697Z" fill="#FFB68A"/>
<path d="M259.697 225.239C259.168 225.727 258.639 226.175 258.11 226.704C254.651 230.245 251.232 233.826 247.814 237.366C247 238.221 246.146 238.994 245.25 239.767C244.681 240.255 244.314 240.825 244.111 241.517C243.378 244.691 241.954 247.621 240.855 250.673C239.675 253.97 237.966 257.103 235.524 259.708C233.123 262.271 230.234 264.143 226.694 264.632C224.333 264.957 222.054 264.51 219.857 263.533C216.968 262.271 214.77 260.155 212.898 257.714C209.642 253.359 207.811 248.394 206.631 243.145C206.061 240.622 205.858 238.017 205.532 235.453C205.369 234.233 205.329 232.971 205.654 231.791C205.899 230.977 205.817 230.122 205.776 229.268C205.776 226.012 206.224 222.838 206.753 219.623C207.364 215.839 209.276 212.868 211.514 209.979C213.468 207.455 215.909 205.38 218.392 203.386C220.467 201.717 222.543 200.049 224.699 198.462C226.734 196.956 228.85 195.573 230.967 194.189C231.496 193.823 232.065 193.497 232.432 192.927C231.943 192.48 231.333 192.236 230.722 191.951C229.501 190.486 227.752 190.567 226.083 190.404C216.398 189.306 208.666 193.823 201.259 199.154C199.306 200.578 197.108 201.84 196.01 204.241C195.643 205.299 194.992 206.235 194.178 206.967C191.818 209.165 190.516 211.973 189.417 214.903C188.481 217.466 187.83 220.112 187.382 222.797C186.894 225.727 186.365 228.657 186.121 231.669C185.917 234.111 185.47 236.552 185.103 238.994C185.103 239.116 185.063 239.238 185.063 239.401C184.981 242.453 184.697 245.505 184.534 248.516C184.29 252.627 184.33 256.696 184.29 260.766C184.208 265.039 184.208 269.352 184.29 273.625C184.29 275.049 184.574 276.474 184.778 277.898C185.348 282.09 185.999 286.241 186.528 290.432C186.975 293.891 187.342 297.391 187.83 300.85C188.033 302.396 188.074 303.943 188.644 305.449C191.818 305.978 194.992 305.326 198.126 305.001C208.096 304.024 218.026 303.007 227.996 302.03C230.967 301.745 233.937 301.42 236.908 301.135C237.722 301.053 238.617 300.931 239.268 300.362C239.35 299.914 239.39 299.466 239.553 299.019C240.977 295.112 241.995 291.083 243.094 287.095C244.721 281.357 246.227 275.579 247.733 269.8C249.116 264.55 250.419 259.26 251.802 253.97C253.715 246.645 255.587 239.279 257.825 232.035C258.517 229.797 259.168 227.559 259.575 225.28L259.697 225.239Z" fill="#8989DE"/>
<path d="M252.006 126.106C251.395 121.508 249.564 117.357 246.838 113.654C242.158 107.305 236.054 102.829 228.444 100.591C224.13 99.3292 219.735 99.2071 215.299 99.6954C210.334 100.224 205.655 101.771 201.259 104.05C200.69 104.335 200.079 104.62 199.51 104.904C198.411 105.393 197.312 105.637 196.091 105.393C196.091 107.834 194.463 109.462 192.958 111.009C186.284 117.845 183.679 126.188 183.842 135.548C183.964 141.448 186.04 146.739 188.644 151.866C189.865 154.308 191.167 156.709 192.998 158.784C194.301 160.29 194.26 161.958 193.161 163.017C192.022 164.115 190.231 163.993 188.766 162.691C184.208 158.581 181.848 153.168 179.895 147.553C179.04 145.111 178.552 142.506 177.738 140.065C177.616 139.698 177.494 139.291 177.534 138.925C177.819 130.42 178.796 122.037 183.639 114.671C184.737 112.962 185.918 111.334 187.383 109.951C187.912 109.462 188.481 109.015 188.888 108.404C190.109 106.573 191.452 104.904 193.812 104.579C193.121 104.09 192.307 104.172 191.533 104.253C190.475 104.375 189.458 104.335 188.4 104.253C186.569 104.131 184.778 104.375 182.987 104.742C181.4 105.067 179.895 105.759 178.511 106.654C175.866 108.363 173.628 110.52 171.878 113.165C169.07 117.398 167.32 122.078 166.384 127.042C165.814 130.013 165.692 132.984 165.855 135.955C165.855 136.321 165.896 136.768 165.855 137.094C165.57 138.111 165.652 139.169 165.692 140.187C165.774 143.239 165.855 146.291 166.018 149.343C166.465 156.709 167.89 163.912 170.698 170.789C171.756 173.394 173.017 175.876 174.564 178.236C175.133 179.091 175.662 180.027 176.232 180.882C177.697 183.038 179.528 184.707 182.092 185.521C183.435 185.928 184.778 185.928 186.162 185.765C186.691 185.724 187.138 185.439 187.586 185.155C189.377 184.015 190.842 182.591 191.859 180.719C194.26 176.364 195.888 171.725 196.905 166.842C197.109 165.825 197.231 164.807 197.353 163.749C197.393 163.383 197.434 162.976 197.719 162.65C197.841 162.569 197.922 162.488 198.045 162.406L198.126 162.325C199.754 161.429 200.201 159.72 201.015 158.296C203.823 153.494 206.346 148.489 209.765 144.053C211.718 141.53 214.241 140.634 217.334 141.082C219.124 141.326 220.915 141.652 222.706 141.896C228.606 142.669 233.978 141.733 238.699 137.623C242.443 134.327 246.512 131.356 250.948 129.036C252.25 128.345 252.331 127.327 252.047 126.066L252.006 126.106Z" fill="#894100"/>
<path d="M252.006 126.106C252.006 126.513 251.965 126.88 251.965 127.287C251.965 127.816 251.721 128.141 251.273 128.345C247.57 130.013 244.477 132.618 241.222 135.019C239.594 136.199 238.048 137.501 236.46 138.763C235.321 139.699 234.1 140.39 232.676 140.675C231.781 140.838 230.926 141.123 230.031 141.367C227.915 141.977 225.798 141.896 223.642 141.611C221.729 141.367 219.776 141.001 217.863 140.716C216.968 140.594 216.032 140.553 215.136 140.553C213.061 140.594 211.352 141.448 210.009 142.995C208.544 144.663 207.282 146.454 206.184 148.407C204.027 152.192 201.707 155.895 199.713 159.761C199.225 160.656 198.655 161.552 198.126 162.406C198.411 162.691 198.533 163.057 198.492 163.464C198.37 165.336 198.614 167.249 198.167 169.08C198.045 169.65 198.126 170.26 198.085 170.83C198.004 175.184 197.719 179.498 197.312 183.852C197.312 183.934 197.312 183.974 197.312 184.056C197.393 187.311 196.864 190.526 196.864 193.782C196.864 196.305 196.376 198.828 196.457 201.351C196.457 202.287 196.051 203.264 196.173 204.24C198.045 202.572 199.917 200.863 201.951 199.357C205.777 196.549 209.887 194.189 214.322 192.48C214.689 192.358 215.055 192.195 215.421 192.032C217.334 191.218 219.328 190.689 221.485 190.852C222.665 190.933 223.804 190.893 224.985 190.852C227.019 190.77 228.973 191.137 230.845 191.951C230.845 191.015 231.089 190.16 231.252 189.265C231.496 187.718 231.821 186.213 232.065 184.666C232.31 183.201 233.124 182.306 234.548 181.98C235.484 181.736 236.42 181.533 237.437 181.573C238.332 181.614 239.268 181.573 240.164 181.573C242.524 181.573 244.844 181.126 246.96 180.108C250.459 178.44 252.454 175.551 252.738 171.685C252.901 169.609 253.186 167.534 253.634 165.54C254.122 163.342 255.261 161.592 257.5 160.778C258.436 160.453 259.331 160.087 260.226 159.72C260.877 159.476 261.569 159.232 262.18 158.866C263.645 158.011 264.133 157.035 263.523 155.04C263.156 153.86 262.383 152.843 261.61 151.907C260.47 150.483 259.25 149.14 257.947 147.837C256.36 146.291 255.017 144.541 253.919 142.629C252.169 139.658 251.64 136.443 252.169 133.065C252.291 132.17 252.372 131.275 252.413 130.339C252.413 129.443 252.413 128.507 252.413 127.612C252.413 127.124 252.535 126.554 252.087 126.147L252.006 126.106Z" fill="#FFB68A"/>
<path d="M239.391 300.32C237.6 300.442 235.769 300.564 233.978 300.727C231.862 300.931 229.746 301.175 227.589 301.419C225.595 301.623 223.601 301.826 221.607 302.07C220.183 302.233 218.758 302.233 217.334 302.477C215.503 302.803 213.59 302.803 211.718 303.006C209.805 303.21 207.852 303.413 205.939 303.657C204.515 303.82 203.091 303.82 201.667 304.064C199.835 304.39 197.923 304.349 196.051 304.593C194.097 304.837 192.185 304.96 190.231 305.041C189.743 305.041 189.255 305.285 188.726 305.448C188.522 306.913 189.01 308.296 189.255 309.68C189.743 312.407 190.435 315.133 190.882 317.86C192.225 326.691 194.708 335.155 197.597 343.579C198.574 346.387 199.55 349.235 200.771 351.921C201.056 352.572 201.219 353.264 201.422 353.956C202.602 357.944 204.19 361.769 206.224 365.432C206.509 365.961 206.835 366.449 207.364 366.734C208.137 365.432 209.114 364.333 210.212 363.275C213.468 360.02 216.927 356.927 220.345 353.834C222.055 352.328 223.682 350.741 225.392 349.235C229.095 345.858 232.757 342.48 236.501 339.143C237.193 338.533 237.478 337.841 237.519 336.946C237.641 332.51 237.722 328.115 238.007 323.679C238.21 320.383 238.17 317.046 238.414 313.75C238.577 311.593 238.577 309.477 238.739 307.32C238.862 305.57 239.106 303.82 239.309 302.111C239.391 301.541 239.472 300.971 239.391 300.361V300.32Z" fill="#FFB68A"/>
<path d="M193.812 104.538C193.039 104.538 192.266 104.538 191.493 104.579C190.923 104.579 190.516 104.782 190.313 105.393C189.865 106.654 189.051 107.631 188.074 108.526C185.022 111.253 182.825 114.63 181.116 118.293C179.773 121.182 178.715 124.153 178.186 127.327C177.982 128.589 177.697 129.85 177.494 131.152C177.412 131.722 177.453 132.333 177.412 132.902C177.331 134.652 177.575 136.402 177.046 138.111C176.883 138.722 176.924 139.414 177.168 140.024C178.145 142.425 178.633 144.989 179.325 147.471C179.976 149.791 180.871 151.988 182.133 154.064C182.743 155.081 183.272 156.098 183.761 157.156C184.575 158.866 185.633 160.412 187.057 161.714C187.667 162.284 188.237 162.935 188.888 163.505C190.068 164.522 191.778 164.685 193.08 163.952C194.586 163.098 195.155 161.022 194.26 159.557C194.016 159.11 193.731 158.621 193.365 158.296C191.859 156.872 190.964 155.081 190.028 153.29C189.377 152.029 188.726 150.767 188.115 149.465C186.894 146.739 185.755 144.012 185.063 141.082C185.022 140.879 184.9 140.716 184.859 140.512C184.575 137.623 184.127 134.693 184.453 131.804C184.859 128.06 185.429 124.356 186.894 120.857C187.301 119.921 187.79 118.985 188.359 118.089C189.906 115.607 191.615 113.287 193.65 111.171C194.423 110.398 195.033 109.462 195.766 108.648C196.62 107.712 196.864 106.573 196.132 105.433C195.44 104.945 194.708 104.619 193.853 104.619L193.812 104.538Z" fill="#5C3718"/>
<path d="M277.277 153.739C277.766 152.843 278.295 151.907 278.58 150.931C278.661 150.687 278.783 150.442 278.905 150.239C281.306 146.414 282.731 142.141 284.521 138.03C287.98 130.176 291.683 122.444 295.265 114.631C297.462 109.829 299.66 105.068 301.898 100.306C302.142 99.7773 302.427 99.2483 302.671 98.76C303.078 97.5798 302.183 97.3357 301.409 97.0101C300.921 96.8066 300.351 97.1729 299.904 96.8066C297.299 95.952 294.695 95.0974 292.09 94.2836C291.724 94.1615 291.358 94.1208 290.992 94.0801C290.992 94.2429 290.91 94.4056 290.87 94.5277C290.707 94.8533 290.87 95.2195 290.666 95.5451C290.178 98.8414 289.242 102.016 288.428 105.23C284.603 120.898 280.777 136.565 276.952 152.233C276.871 152.477 276.871 152.762 276.871 153.006C276.708 153.413 276.504 153.82 277.277 153.779V153.739Z" fill="#696D65"/>
<path d="M331.646 86.1843C330.384 86.0622 329.652 86.6319 329.041 87.7306C327.088 91.149 325.175 94.5674 323.507 98.1078C323.018 99.1659 322.367 100.102 321.92 101.201C321.472 102.299 321.228 103.235 321.96 104.253C321.96 104.293 321.879 104.456 321.798 104.578C322.001 104.863 322.286 104.945 322.611 104.904C324.036 105.107 324.931 104.416 325.541 103.154C327.535 99.1252 329.692 95.2185 331.89 91.3118C332.378 90.4165 332.419 89.4398 332.663 88.5445C332.948 87.4865 332.541 86.7133 331.605 86.1436L331.646 86.1843Z" fill="#E6A37B"/>
<path d="M332.704 88.5866C331.157 91.7608 329.448 94.8536 327.739 97.9057C326.844 99.4928 326.071 101.121 325.297 102.748C324.809 103.806 324.239 104.661 322.896 104.702C322.815 104.702 322.693 104.865 322.612 104.946C322.815 105.19 323.141 105.109 323.385 105.271C324.117 105.638 324.85 105.963 325.704 106.126C326.233 105.556 326.722 104.905 327.332 104.458C328.634 103.562 329.611 102.341 330.751 101.324C331.524 100.592 332.012 99.6556 332.297 98.6382C332.704 97.0918 333.029 95.5047 333.396 93.9176C333.477 93.5107 333.396 93.1444 333.396 92.7782C333.152 91.3945 332.948 89.9702 332.745 88.5459L332.704 88.5866Z" fill="#FFB68A"/>
<path d="M277.277 153.739C276.952 153.576 276.952 153.251 276.87 152.966C276.423 153.413 276.504 154.024 276.382 154.594C276.545 154.716 276.708 154.838 276.87 154.594C277.033 154.349 277.155 154.024 277.277 153.739Z" fill="#958B7C"/>
<path d="M290.666 95.5037C290.992 95.2188 290.992 94.8526 290.869 94.4863C290.544 94.7712 290.544 95.1374 290.666 95.5037Z" fill="#FFB68A"/>
<path d="M198.004 162.406C197.8 162.406 197.678 162.406 197.678 162.65C197.841 162.65 197.963 162.61 198.004 162.406Z" fill="#FFB68A"/>
<path d="M323.385 105.271C323.222 104.986 322.937 104.905 322.611 104.945C322.774 105.23 323.059 105.352 323.385 105.271Z" fill="#E6A37B"/>
<path d="M299.944 96.7658C300.595 97.2542 301.369 97.3763 302.06 97.6204C302.589 97.7832 302.712 98.2309 302.671 98.7192C303.403 98.3122 302.712 97.6204 302.996 97.1321C303.281 96.6438 303.851 96.3182 303.851 95.6671C303.851 95.3415 303.851 95.016 303.851 94.6904C303.77 91.4348 304.258 88.2606 304.909 85.0864C305.479 82.3599 306.089 79.674 306.985 77.0289C308.287 73.0815 309.996 69.2968 312.031 65.675C313.252 63.4775 314.635 61.3614 316.548 59.6522C317.158 59.0825 317.809 58.5534 318.257 57.7802C318.786 56.8442 318.745 56.478 318.013 55.7048C317.931 55.6234 317.809 55.542 317.728 55.4199C317.321 55.013 316.833 54.8909 316.304 55.1758C315.123 55.8676 313.984 56.5187 313.17 57.6988C312.234 59.0011 311.095 60.1812 310.24 61.5648C308.49 64.3728 306.985 67.3028 305.642 70.3549C304.584 72.7559 303.851 75.1976 302.996 77.6393C302.142 80.081 301.613 82.6041 301.124 85.1678C300.351 88.8711 300.066 92.5743 300.473 96.3589C300.473 96.6845 300.188 96.7251 299.944 96.8065V96.7658Z" fill="#E6A37B"/>
</svg>
