<svg width="500" height="500" viewBox="0 0 500 500" fill="none" xmlns="http://www.w3.org/2000/svg">
<path d="M241.483 286.773C241.093 286.773 240.742 286.734 240.352 286.695C239.845 286.305 239.26 286.383 238.714 286.5C238.441 286.5 238.207 286.5 237.934 286.461C237.7 286.188 237.427 286.188 237.154 286.422C236.764 286.422 236.413 286.344 236.023 286.344C235.633 286.032 235.204 286.032 234.775 286.188C233.878 286.11 232.981 286.032 232.084 285.954C230.992 285.486 229.822 285.525 228.652 285.525C228.613 285.525 228.535 285.603 228.496 285.642C228.106 285.642 227.755 285.564 227.365 285.525C226.468 285.175 225.532 285.058 224.557 285.252C224.05 285.214 223.543 285.175 223.036 285.136C222.139 284.785 221.203 284.668 220.228 284.863C219.838 284.863 219.487 284.824 219.097 284.785C218.59 284.356 218.005 284.473 217.42 284.59C217.186 284.59 216.913 284.59 216.679 284.551C216.445 284.239 216.172 284.2 215.899 284.512C215.392 284.473 214.885 284.434 214.379 284.395C213.482 284.044 212.546 283.927 211.571 284.122C211.181 284.122 210.83 284.044 210.44 284.044C209.933 283.654 209.348 283.732 208.763 283.849C208.529 283.849 208.256 283.849 208.022 283.81C207.788 283.498 207.515 283.459 207.242 283.771C206.852 283.771 206.501 283.693 206.111 283.693C205.214 283.225 204.2 283.342 203.225 283.225C203.147 283.225 203.03 283.342 202.913 283.42C202.523 283.42 202.172 283.342 201.782 283.342C200.885 282.874 199.871 282.991 198.896 282.874C198.818 282.874 198.701 282.991 198.584 283.069C197.687 283.069 196.79 283.03 195.893 282.991C195.191 282.601 194.528 282.601 193.826 282.991C192.851 283.03 191.876 283.225 190.901 283.381C189.653 283.576 188.522 284.083 187.508 284.863C185.714 286.266 183.881 287.67 182.165 289.152C178.226 292.506 174.054 295.509 169.686 298.278C160.95 303.738 151.746 308.184 142.464 312.63C133.612 316.842 124.603 320.742 115.711 324.797C112.162 326.435 108.652 328.268 105.142 329.945C103.855 330.569 102.724 331.505 101.554 332.324C100.579 331.583 99.7604 330.647 98.9805 329.672C97.1475 327.293 95.2365 324.992 93.3646 322.653C91.5316 320.352 89.5817 318.168 88.0217 315.672C90.4007 313.488 92.9356 311.538 95.4705 309.588C113.293 295.821 130.999 281.938 148.899 268.288C154.203 264.232 159.624 260.371 165.201 256.666C167.658 255.028 170.037 253.312 172.572 251.791C175.614 249.997 178.733 248.32 182.009 247.033C184.076 246.214 186.182 245.474 188.21 244.538C188.912 244.226 189.653 243.953 190.433 243.797C192.422 243.329 194.333 242.744 196.205 241.925C197.258 241.457 198.428 241.106 199.52 240.716C201.626 240.014 203.732 239.312 205.76 238.376C206.813 237.908 207.983 237.596 209.075 237.206C214.769 235.256 220.462 233.345 226.156 231.395C230.251 229.991 234.463 229.016 238.597 227.846C238.831 227.963 238.987 227.846 239.104 227.69C239.455 227.612 239.806 227.534 240.196 227.456C240.391 227.573 240.586 227.456 240.703 227.3C241.054 227.222 241.444 227.183 241.795 227.105C242.146 227.222 242.419 227.144 242.653 226.871C242.887 226.832 243.121 226.793 243.394 226.715C243.745 226.832 244.018 226.715 244.252 226.481C244.486 226.442 244.759 226.403 244.993 226.364C245.344 226.481 245.617 226.403 245.851 226.13C246.202 226.052 246.592 226.013 246.943 225.935C247.294 226.052 247.567 225.974 247.801 225.701C248.152 225.623 248.542 225.545 248.893 225.467C249.127 225.584 249.283 225.467 249.4 225.311C249.751 225.233 250.141 225.194 250.492 225.116C250.843 225.233 251.116 225.194 251.35 224.921C251.74 224.882 252.091 224.804 252.481 224.765C252.832 224.882 253.105 224.804 253.339 224.531C253.729 224.453 254.079 224.336 254.469 224.258C254.664 224.375 254.82 224.258 254.937 224.102C255.288 224.024 255.678 223.946 256.029 223.868C256.341 224.024 256.614 223.868 256.848 223.673C257.238 223.595 257.589 223.517 257.979 223.439C258.291 223.595 258.564 223.478 258.798 223.283C259.188 223.205 259.539 223.166 259.929 223.088C260.241 223.244 260.553 223.127 260.787 222.893C261.177 222.854 261.528 222.776 261.918 222.737C262.269 222.854 262.542 222.737 262.776 222.542C263.283 222.464 263.751 222.425 264.258 222.347C264.726 222.503 265.116 222.425 265.506 222.113C265.896 222.035 266.247 221.996 266.637 221.918C267.222 222.035 267.768 221.996 268.236 221.645C268.47 221.645 268.743 221.567 268.977 221.528C269.328 221.645 269.601 221.528 269.835 221.333C270.342 221.294 270.849 221.216 271.317 221.177C272.253 221.294 273.228 221.333 274.086 220.865C274.866 220.826 275.646 220.787 276.426 220.748C277.518 220.865 278.571 220.904 279.585 220.475C280.092 220.475 280.599 220.397 281.145 220.358C281.847 220.514 282.549 220.553 283.173 220.163C285.786 220.007 288.399 220.241 291.012 219.929C291.636 219.968 292.26 220.007 292.884 220.046C294.053 220.046 295.223 220.085 296.354 220.124C296.666 220.124 296.978 220.085 297.251 219.851C298.577 219.695 299.864 219.734 301.19 219.773C301.58 220.202 301.97 220.202 302.36 219.773C303.14 219.773 303.881 219.773 304.661 219.812C304.778 221.372 304.505 222.932 304.427 224.492C304.232 228.665 304.076 232.838 303.92 237.011C303.569 237.245 303.569 237.518 303.92 237.791C303.92 238.844 303.998 239.897 303.842 240.911C303.452 244.148 303.647 247.423 303.608 250.66C303.569 256.003 303.53 261.346 303.491 266.689C302.516 267.352 301.58 268.054 300.566 268.678C293.975 272.539 287.424 276.439 280.794 280.261C277.362 282.25 273.696 283.888 270.03 285.408C269.172 285.759 268.314 286.071 267.417 286.188C267.222 286.11 267.066 286.188 266.91 286.344C266.559 286.422 266.169 286.5 265.818 286.578C265.467 286.5 265.194 286.539 264.96 286.812C264.609 286.89 264.258 286.929 263.868 287.007C263.673 286.929 263.478 287.007 263.361 287.124C262.854 287.202 262.386 287.28 261.879 287.358C261.567 287.241 261.255 287.28 260.982 287.553C260.748 287.553 260.475 287.631 260.241 287.67C259.383 287.397 258.603 287.631 257.823 287.943C256.419 288.06 255.015 288.06 253.573 287.943C252.91 287.514 252.208 287.631 251.506 287.748C251.272 287.748 250.999 287.748 250.765 287.709C250.531 287.397 250.258 287.358 249.985 287.67C249.595 287.67 249.244 287.592 248.854 287.592C248.347 287.202 247.762 287.28 247.216 287.397C246.982 287.397 246.709 287.397 246.475 287.358C246.241 287.046 245.968 287.007 245.695 287.319C245.461 287.319 245.188 287.319 244.954 287.28C244.603 286.929 244.174 286.968 243.706 287.007C243.589 287.007 243.433 287.046 243.316 287.085C242.926 287.085 242.536 287.046 242.146 287.007C241.912 286.734 241.639 286.734 241.366 286.968L241.483 286.773Z" fill="#686D65"/>
<path d="M395.178 341.489C395.373 341.411 395.607 341.333 395.802 341.294C396.153 341.294 396.426 341.099 396.465 340.709C396.465 339.656 396.738 338.564 396.387 337.511C396.504 336.731 396.582 335.951 396.699 335.132C396.972 334.898 397.011 334.625 396.777 334.352C398.064 326.669 400.365 319.259 403.017 311.927C403.134 311.888 403.173 311.771 403.173 311.655C403.797 311.304 404.304 311.498 404.733 312.005C405.669 313.097 406.644 314.189 407.541 315.281C408.828 316.841 410.076 318.44 411.324 320.039C412.143 321.131 413.118 321.677 414.521 321.443C416.315 321.17 418.148 320.975 419.981 320.78C421.931 320.546 423.881 320.39 425.831 320.117C426.962 319.961 427.625 320.429 428.21 321.365C430.511 325.031 432.851 328.658 435.152 332.324C435.62 333.065 436.166 333.455 437.024 333.533C438.506 333.65 440.027 333.845 441.509 334.04C445.448 334.547 449.426 335.054 453.364 335.6C453.481 335.756 453.638 335.834 453.832 335.678C453.91 335.678 453.949 335.756 453.988 335.795C453.871 336.107 453.91 336.419 454.183 336.653C454.3 337.433 454.378 338.252 454.495 339.032C454.105 340.202 454.144 341.372 454.495 342.542C454.222 345.545 453.248 348.314 451.532 350.77C448.217 355.606 444.044 359.506 438.857 362.275C438.623 362.236 438.467 362.314 438.389 362.509C438.272 362.548 438.155 362.587 438.038 362.626C437.804 362.548 437.648 362.626 437.57 362.821C437.336 362.899 437.102 362.977 436.868 363.016C436.634 362.938 436.478 363.016 436.4 363.211C436.166 363.25 435.932 363.328 435.698 363.367C435.347 363.289 435.074 363.328 434.84 363.601C434.489 363.679 434.099 363.718 433.748 363.796C433.553 363.679 433.358 363.718 433.241 363.913C432.734 363.991 432.266 364.069 431.759 364.147C431.447 364.03 431.135 364.069 430.901 364.342C430.394 364.42 429.926 364.498 429.419 364.537C429.107 364.42 428.795 364.42 428.561 364.693C427.664 364.771 426.767 364.849 425.909 364.966C424.31 364.849 422.75 364.849 421.151 364.966C420.137 364.888 419.084 364.81 418.07 364.693C417.329 364.303 416.51 364.186 415.691 364.381C415.301 364.303 414.911 364.342 414.599 364.576C414.326 363.445 413.586 362.86 412.572 362.431C411.207 361.846 409.764 361.378 408.477 360.598C406.176 359.194 404.694 357.01 403.134 354.943C401.847 353.305 400.95 351.394 400.326 349.367C399.936 348.119 399.078 347.456 397.947 346.988C397.635 346.871 397.323 347.105 397.323 347.495C397.323 347.807 397.323 348.158 397.401 348.47C398.025 351.16 398.844 353.734 400.209 356.191C401.379 358.258 402.783 360.169 404.421 361.807C406.02 363.406 407.853 364.849 409.959 365.824C411.168 366.409 412.416 367.111 413.859 366.877C413.742 368.086 413.079 368.905 412.026 369.451C411.363 369.841 410.661 370.153 409.959 370.465C409.725 370.387 409.569 370.465 409.452 370.66C408.945 370.699 408.438 370.777 407.97 370.816C407.151 370.699 406.332 370.621 405.552 371.011C405.318 371.011 405.084 371.011 404.85 371.011C404.187 370.621 403.524 370.699 402.822 370.816C402.198 370.738 401.574 370.66 400.95 370.582C400.716 370.309 400.404 370.309 400.092 370.426C399.585 370.387 399.078 370.309 398.571 370.27C398.337 369.997 398.025 369.958 397.713 370.075C397.206 369.997 396.738 369.919 396.231 369.841C395.997 369.568 395.685 369.568 395.373 369.685C394.866 369.607 394.398 369.529 393.891 369.451C393.423 369.022 392.799 369.139 392.253 369.022C390.537 368.671 388.86 368.398 387.144 368.125C386.793 368.086 386.403 368.008 386.052 367.969C385.818 367.696 385.545 367.618 385.194 367.735C384.96 367.696 384.726 367.657 384.453 367.579C384.102 367.189 383.673 367.228 383.205 367.345C382.815 367.306 382.464 367.228 382.074 367.189C381.84 366.877 381.528 366.877 381.216 366.955C380.865 366.916 380.475 366.838 380.124 366.799C379.89 366.487 379.617 366.448 379.266 366.565C378.915 366.487 378.525 366.37 378.174 366.292C378.057 366.097 377.901 366.097 377.706 366.175C377.472 366.136 377.238 366.058 377.004 366.019C376.887 365.824 376.731 365.746 376.497 365.824C376.263 365.746 376.029 365.707 375.795 365.629C375.678 365.434 375.522 365.356 375.288 365.395C375.054 365.317 374.82 365.239 374.586 365.2C374.508 364.966 374.314 364.927 374.119 365.005C374.002 365.005 373.885 364.966 373.768 364.888C373.69 364.693 373.495 364.576 373.3 364.654C373.066 364.537 372.871 364.459 372.637 364.342C372.559 364.147 372.403 364.108 372.247 364.147C371.155 363.64 370.18 363.016 369.244 362.275C368.464 361.651 367.801 360.949 367.294 360.091C366.319 358.414 366.28 356.737 367.177 355.021C367.606 354.202 368.191 353.5 368.893 352.876C370.258 351.628 371.818 350.654 373.534 349.991C380.514 347.222 387.534 344.492 394.554 341.762C394.671 341.723 394.788 341.684 394.944 341.645C395.178 341.723 395.334 341.645 395.451 341.411L395.178 341.489Z" fill="#894100"/>
<path d="M303.92 236.895C304.076 232.722 304.232 228.549 304.427 224.376C304.505 222.816 304.778 221.256 304.661 219.696C305.753 219.579 306.884 219.579 307.976 219.813C308.561 219.93 309.146 219.93 309.731 219.969C311.759 220.008 313.787 220.047 315.815 220.047C317.063 220.047 318.272 220.164 319.52 220.398C322.406 220.944 325.292 221.412 328.178 221.958C332.585 222.738 337.069 223.323 341.437 224.298C342.022 224.415 342.607 224.454 343.192 224.298C343.387 224.571 343.66 224.727 344.011 224.805C344.947 225 345.922 225.195 346.858 225.39C349.822 226.092 352.786 226.794 355.75 227.613C358.324 228.315 360.82 229.212 363.277 230.265C363.901 230.538 364.642 230.772 364.954 231.513C364.564 232.41 364.174 233.307 363.745 234.204C359.377 243.095 354.97 251.987 350.602 260.879C347.833 266.495 345.025 272.111 342.217 277.688C341.866 278.389 341.437 279.052 341.359 279.832C340.735 279.832 340.228 279.598 339.682 279.364C335.666 277.493 331.571 275.777 327.437 274.178C322.874 272.423 318.233 270.902 313.553 269.381C310.238 268.328 306.923 267.353 303.569 266.651C303.608 261.308 303.647 255.965 303.686 250.622C303.686 247.385 303.53 244.109 303.92 240.872C304.037 239.858 303.959 238.806 303.998 237.753C304.349 237.519 304.349 237.246 303.998 236.973L303.92 236.895Z" fill="#FFB78A"/>
<path d="M341.32 279.753C341.398 278.934 341.866 278.271 342.178 277.608C344.947 271.993 347.755 266.377 350.563 260.8C354.97 251.908 359.338 243.016 363.706 234.125C364.135 233.267 364.525 232.331 364.915 231.434C365.305 231.473 365.695 231.512 366.046 231.59C368.269 232.214 370.492 232.838 372.715 233.462C372.871 234.047 373.027 234.593 373.183 235.177C374.703 241.183 376.224 247.228 377.745 253.234C379.227 259.123 380.709 265.012 382.23 270.901C382.542 272.032 382.386 272.851 381.684 273.787C378.759 277.53 377.979 281.781 379.11 286.383C379.929 289.737 381.684 292.545 384.219 294.807C386.247 296.601 388.587 297.888 391.161 298.746C393.735 299.604 396.27 299.76 398.844 298.746C403.017 297.069 406.02 294.183 407.502 289.932C408.087 288.333 408.672 286.695 408.516 284.979C408.36 283.302 408.243 281.625 407.697 279.987C405.396 273.241 403.173 266.455 400.911 259.708C399 253.936 397.089 248.164 395.178 242.392C395.802 242.353 396.348 242.587 396.855 242.899C397.908 243.445 398.883 244.069 399.936 244.576C402.315 245.707 404.499 247.15 406.566 248.71C409.14 250.699 411.168 253.117 412.415 256.159C413.819 259.552 414.482 263.14 415.613 266.65C415.808 267.274 415.808 267.937 416.042 268.561C416.315 269.302 416.198 270.121 416.744 270.784C416.822 271.291 416.861 271.798 416.939 272.344C417.485 275.736 418.109 279.129 418.616 282.522C418.811 283.731 418.694 284.979 418.733 286.227C418.733 287.085 418.811 287.904 418.85 288.762C418.811 289.347 418.733 289.932 418.694 290.517C418.538 292.974 417.836 295.275 416.588 297.381C416.237 297.927 415.925 298.512 415.574 299.058C413.741 301.866 411.363 304.011 408.204 305.298C407.346 305.649 406.527 306.039 405.708 306.39C403.992 307.17 402.198 307.833 400.326 308.145C400.014 308.184 399.702 308.262 399.429 308.496C398.571 308.496 397.713 308.574 396.894 308.613C393.54 308.652 390.264 308.067 387.066 307.092C386.52 306.936 385.974 306.663 385.428 306.429C379.11 303.621 373.494 299.682 367.918 295.665C365.773 294.144 363.589 292.701 361.444 291.258C360.313 290.478 359.143 289.737 358.051 288.918C355.906 287.358 353.41 286.5 351.187 285.174C348.613 283.653 345.961 282.21 343.192 280.962C342.529 280.689 341.944 280.221 341.359 279.87L341.32 279.753Z" fill="#8A8ADE"/>
<path d="M395.1 242.355C397.011 248.127 398.922 253.899 400.833 259.67C403.095 266.417 405.318 273.203 407.619 279.95C408.165 281.588 408.282 283.265 408.438 284.942C408.594 286.658 408.009 288.335 407.424 289.895C405.903 294.146 402.939 297.032 398.766 298.708C396.192 299.722 393.657 299.566 391.083 298.708C388.509 297.851 386.169 296.564 384.141 294.77C381.606 292.508 379.851 289.661 379.032 286.346C377.94 281.744 378.72 277.493 381.606 273.749C382.347 272.813 382.464 271.994 382.152 270.863C380.592 264.974 379.149 259.086 377.667 253.197C376.146 247.191 374.625 241.146 373.104 235.14C372.948 234.555 372.792 234.009 372.636 233.424C372.636 233.307 372.636 233.151 372.636 233.034C372.09 230.538 372.051 228.081 372.987 225.624C373.221 224.961 373.572 224.337 373.494 223.557C374.04 223.284 374.313 222.738 374.703 222.309C377.082 219.502 380.046 217.864 383.829 217.63C386.13 217.474 388.275 217.981 390.303 218.878C391.59 219.463 392.799 220.32 394.008 221.061C399.078 224.259 404.148 227.496 409.257 230.694C410.739 231.63 412.337 232.449 414.053 232.917C415.808 233.385 417.056 234.399 417.992 235.92C418.772 237.168 419.318 238.455 419.825 239.82C420.956 242.667 422.087 245.514 423.296 248.361C424.037 250.116 423.959 251.793 423.296 253.509C422.672 255.03 422.165 256.59 421.58 258.111C421.229 259.007 420.644 259.709 419.591 259.748C417.914 259.631 417.875 259.631 417.524 258.072C416.978 255.732 416.432 253.392 416.081 251.013C415.925 249.882 415.34 249.219 414.482 248.712C411.83 247.152 409.179 245.67 406.527 244.11C405.357 243.447 404.148 242.745 402.978 242.082C400.209 240.483 397.479 238.845 394.71 237.246C394.554 237.168 394.359 237.051 394.164 237.051C394.008 237.051 393.735 237.207 393.735 237.324C393.696 237.636 393.696 237.987 393.774 238.26C394.242 239.625 394.71 240.951 395.178 242.316L395.1 242.355Z" fill="#FFB78A"/>
<path d="M88.0607 315.439C89.6206 317.935 91.5706 320.119 93.4035 322.42C95.2755 324.76 97.1865 327.061 99.0194 329.44C99.7994 330.415 100.618 331.351 101.593 332.092C101.515 333.925 100.618 335.485 99.7604 337.006C99.3314 337.747 98.9804 338.527 98.6294 339.268C97.3814 341.803 96.0945 344.299 94.2615 346.444C92.0776 348.94 89.2307 350.344 85.9547 350.89C84.1218 351.202 82.3278 351.202 80.4949 351.241C78.4669 351.241 76.439 351.163 74.411 351.319C69.8481 351.709 65.2463 351.358 60.6834 351.709C57.7585 351.943 54.7945 352.021 51.8696 352.021C49.6857 352.021 47.6187 351.397 45.7858 350.11C43.2898 348.355 42.0419 345.859 41.9249 342.934C41.8469 340.477 42.7438 338.176 44.3818 336.304C44.7718 335.836 45.2788 335.524 45.8248 335.29C50.4266 333.106 55.0285 330.922 59.6304 328.738C59.9424 328.582 60.2154 328.465 60.5274 328.309C64.5833 326.359 68.6782 324.409 72.7341 322.459C75.62 321.094 78.4669 319.612 81.4308 318.364C83.6538 317.428 85.8767 316.453 88.0607 315.439Z" fill="#FFB78B"/>
<path d="M399.429 308.38C399.663 308.146 400.014 308.107 400.326 308.029C402.198 307.717 403.953 307.054 405.708 306.274C406.527 305.884 407.385 305.494 408.204 305.182C411.324 303.895 413.741 301.789 415.574 298.942C415.925 298.396 416.276 297.811 416.588 297.265C417.875 295.159 418.577 292.858 418.694 290.401C418.694 289.816 418.811 289.231 418.85 288.646C420.137 289.699 420.917 291.142 421.892 292.429C423.257 294.262 424.583 296.134 425.597 298.162C426.104 299.176 426.572 299.332 427.664 299.176C429.536 298.942 431.408 298.747 433.28 298.513C434.138 298.396 434.957 298.318 435.776 298.162C437.687 297.733 439.676 297.889 441.587 297.538C443.576 297.187 446.267 298.201 447.242 300.814C447.749 302.14 448.1 303.544 448.49 304.948C449.192 307.678 448.997 307.405 451.415 308.302C452.935 308.848 454.456 309.433 455.977 310.018C458.161 310.876 458.395 311.422 457.537 313.528C456.094 317.077 454.651 320.665 453.169 324.214C452.857 324.994 452.779 325.735 452.896 326.515C453.325 329.478 453.676 332.442 453.754 335.445C453.598 335.484 453.442 335.523 453.286 335.562C449.348 335.055 445.37 334.509 441.431 334.002C439.949 333.807 438.428 333.612 436.946 333.495C436.088 333.417 435.542 333.066 435.074 332.286C432.812 328.62 430.433 324.994 428.132 321.328C427.547 320.392 426.884 319.924 425.753 320.08C423.803 320.314 421.853 320.509 419.903 320.743C418.07 320.938 416.276 321.133 414.443 321.406C413.04 321.64 412.065 321.094 411.246 320.002C410.037 318.403 408.75 316.804 407.463 315.244C406.566 314.113 405.591 313.06 404.655 311.968C404.226 311.461 403.719 311.266 403.095 311.617C403.017 311.617 402.9 311.539 402.822 311.5C401.535 310.876 400.404 309.979 399.507 308.848C399.39 308.731 399.429 308.458 399.351 308.302L399.429 308.38Z" fill="#FFB78A"/>
<path d="M373.494 223.597C373.611 224.338 373.26 225.001 372.987 225.664C372.051 228.121 372.129 230.578 372.636 233.074C372.636 233.191 372.636 233.347 372.636 233.464C370.413 232.84 368.191 232.216 365.968 231.592C365.617 231.475 365.227 231.475 364.837 231.436C364.525 230.695 363.784 230.5 363.16 230.188C360.703 229.096 358.207 228.238 355.633 227.536C352.708 226.717 349.705 226.054 346.741 225.313C345.805 225.079 344.83 224.884 343.894 224.728C343.543 224.65 343.27 224.494 343.075 224.221C343.582 221.53 344.83 219.19 346.429 217.006C347.677 215.29 349.315 214.822 351.421 215.056C353.8 215.329 355.945 216.304 358.09 217.201C363.199 219.346 368.347 221.491 373.455 223.636L373.494 223.597Z" fill="#E6A47C"/>
<path d="M395.1 242.355C394.632 240.99 394.125 239.664 393.696 238.299C393.618 237.987 393.618 237.675 393.657 237.363C393.657 237.246 393.93 237.09 394.086 237.09C394.281 237.09 394.476 237.207 394.632 237.285C397.401 238.884 400.131 240.522 402.9 242.121C404.07 242.823 405.279 243.486 406.449 244.149C409.101 245.67 411.752 247.191 414.404 248.751C415.262 249.258 415.847 249.921 416.003 251.051C416.354 253.43 416.939 255.77 417.446 258.11C417.797 259.67 417.836 259.67 419.513 259.787C419.357 261.074 419.786 262.244 420.02 263.453C420.215 264.545 420.293 265.637 420.254 266.768C420.254 268.601 419.474 269.888 417.68 270.512C417.368 270.629 417.056 270.707 416.744 270.785C416.198 270.161 416.315 269.303 416.042 268.562C415.808 267.938 415.808 267.275 415.613 266.651C414.482 263.18 413.819 259.592 412.415 256.16C411.129 253.118 409.14 250.7 406.566 248.712C404.499 247.113 402.315 245.67 399.936 244.578C398.883 244.071 397.869 243.447 396.855 242.901C396.348 242.628 395.802 242.355 395.178 242.394L395.1 242.355Z" fill="#E5A37D"/>
<path d="M413.624 366.996C412.181 367.23 410.933 366.489 409.725 365.943C407.619 364.968 405.786 363.564 404.187 361.926C402.549 360.249 401.145 358.377 399.975 356.31C398.61 353.892 397.791 351.279 397.167 348.588C397.089 348.276 397.089 347.925 397.089 347.613C397.089 347.223 397.401 346.989 397.713 347.106C398.844 347.574 399.702 348.237 400.092 349.485C400.716 351.474 401.613 353.385 402.9 355.062C404.499 357.129 405.981 359.313 408.243 360.717C409.53 361.497 410.973 361.965 412.337 362.55C413.39 363.018 414.131 363.603 414.365 364.695C414.092 365.436 413.78 366.216 413.507 366.957L413.624 366.996Z" fill="#633409"/>
</svg>
