<?xml version="1.0" encoding="UTF-8"?>
<svg xmlns="http://www.w3.org/2000/svg" version="1.1" viewBox="0 0 1417.3 1417.3">
  <defs>
    <style>
      .cls-1 {
        fill: #686d65;
      }

      .cls-2 {
        fill: #e6a47c;
      }

      .cls-3 {
        fill: #e5a37d;
      }

      .cls-4 {
        fill: #ffb78b;
      }

      .cls-5 {
        fill: #8a8ade;
      }

      .cls-6 {
        fill: #633409;
      }

      .cls-7 {
        fill: #894100;
      }

      .cls-8 {
        fill: #ffb78a;
      }
    </style>
  </defs>
  <!-- Generator: Adobe Illustrator 28.7.1, SVG Export Plug-In . SVG Version: 1.2.0 Build 142)  -->
  <g>
    <g id="_레이어_1" data-name="레이어_1">
      <g>
        <path class="cls-1" d="M686.8,760.6c-1,0-1.9-.1-2.9-.2-1.3-1-2.8-.8-4.2-.5-.7,0-1.3,0-2-.1-.6-.7-1.3-.7-2-.1-1,0-1.9-.2-2.9-.2-1-.8-2.1-.8-3.2-.4-2.3-.2-4.6-.4-6.9-.6-2.8-1.2-5.8-1.1-8.8-1.1-.1,0-.3.2-.4.3-1,0-1.9-.2-2.9-.3-2.3-.9-4.7-1.2-7.2-.7-1.3-.1-2.6-.2-3.9-.3-2.3-.9-4.7-1.2-7.2-.7-1,0-1.9-.1-2.9-.2-1.3-1.1-2.8-.8-4.3-.5-.6,0-1.3,0-1.9-.1-.6-.8-1.3-.9-2-.1-1.3-.1-2.6-.2-3.9-.3-2.3-.9-4.7-1.2-7.2-.7-1,0-1.9-.2-2.9-.2-1.3-1-2.8-.8-4.3-.5-.6,0-1.3,0-1.9-.1-.6-.8-1.3-.9-2-.1-1,0-1.9-.2-2.9-.2-2.3-1.2-4.9-.9-7.4-1.2-.2,0-.5.3-.8.5-1,0-1.9-.2-2.9-.2-2.3-1.2-4.9-.9-7.4-1.2-.2,0-.5.3-.8.5-2.3,0-4.6-.1-6.9-.2-1.8-1-3.5-1-5.3,0-2.5.1-5,.6-7.5,1-3.2.5-6.1,1.8-8.7,3.8-4.6,3.6-9.3,7.2-13.7,11-10.1,8.6-20.8,16.3-32,23.4-22.4,14-46,25.4-69.8,36.8-22.7,10.8-45.8,20.8-68.6,31.2-9.1,4.2-18.1,8.9-27.1,13.2-3.3,1.6-6.2,4-9.2,6.1-2.5-1.9-4.6-4.3-6.6-6.8-4.7-6.1-9.6-12-14.4-18-4.7-5.9-9.7-11.5-13.7-17.9,6.1-5.6,12.6-10.6,19.1-15.6,45.7-35.3,91.1-70.9,137-105.9,13.6-10.4,27.5-20.3,41.8-29.8,6.3-4.2,12.4-8.6,18.9-12.5,7.8-4.6,15.8-8.9,24.2-12.2,5.3-2.1,10.7-4,15.9-6.4,1.8-.8,3.7-1.5,5.7-1.9,5.1-1.2,10-2.7,14.8-4.8,2.7-1.2,5.7-2.1,8.5-3.1,5.4-1.8,10.8-3.6,16-6,2.7-1.2,5.7-2,8.5-3,14.6-5,29.2-9.9,43.8-14.9,10.5-3.6,21.3-6.1,31.9-9.1.6.3,1,0,1.3-.4.9-.2,1.8-.4,2.8-.6.5.3,1,0,1.3-.4.9-.2,1.9-.3,2.8-.5.9.3,1.6.1,2.2-.6.6-.1,1.2-.2,1.9-.4.9.3,1.6,0,2.2-.6.6-.1,1.3-.2,1.9-.3.9.3,1.6.1,2.2-.6.9-.2,1.9-.3,2.8-.5.9.3,1.6.1,2.2-.6.9-.2,1.9-.4,2.8-.6.6.3,1,0,1.3-.4.9-.2,1.9-.3,2.8-.5.9.3,1.6.2,2.2-.5,1-.1,1.9-.3,2.9-.4.9.3,1.6.1,2.2-.6,1-.2,1.9-.5,2.9-.7.5.3.9,0,1.2-.4.9-.2,1.9-.4,2.8-.6.8.4,1.5,0,2.1-.5,1-.2,1.9-.4,2.9-.6.8.4,1.5.1,2.1-.4,1-.2,1.9-.3,2.9-.5.8.4,1.6.1,2.2-.5,1-.1,1.9-.3,2.9-.4.9.3,1.6,0,2.2-.5,1.3-.2,2.5-.3,3.8-.5,1.2.4,2.2.2,3.2-.6,1-.2,1.9-.3,2.9-.5,1.5.3,2.9.2,4.1-.7.6,0,1.3-.2,1.9-.3.9.3,1.6,0,2.2-.5,1.3-.1,2.6-.3,3.8-.4,2.4.3,4.9.4,7.1-.8,2-.1,4-.2,6-.3,2.8.3,5.5.4,8.1-.7,1.3,0,2.6-.2,4-.3,1.8.4,3.6.5,5.2-.5,6.7-.4,13.4.2,20.1-.6,1.6.1,3.2.2,4.8.3,3,0,6,.1,8.9.2.8,0,1.6-.1,2.3-.7,3.4-.4,6.7-.3,10.1-.2,1,1.1,2,1.1,3,0,2,0,3.9,0,5.9.1.3,4-.4,8-.6,12-.5,10.7-.9,21.4-1.3,32.1-.9.6-.9,1.3,0,2,0,2.7.2,5.4-.2,8-1,8.3-.5,16.7-.6,25-.1,13.7-.2,27.4-.3,41.1-2.5,1.7-4.9,3.5-7.5,5.1-16.9,9.9-33.7,19.9-50.7,29.7-8.8,5.1-18.2,9.3-27.6,13.2-2.2.9-4.4,1.7-6.7,2-.5-.2-.9,0-1.3.4-.9.2-1.9.4-2.8.6-.9-.2-1.6-.1-2.2.6-.9.2-1.8.3-2.8.5-.5-.2-1,0-1.3.3-1.3.2-2.5.4-3.8.6-.8-.3-1.6-.2-2.3.5-.6,0-1.3.2-1.9.3-2.2-.7-4.2-.1-6.2.7-3.6.3-7.2.3-10.9,0-1.7-1.1-3.5-.8-5.3-.5-.6,0-1.3,0-1.9-.1-.6-.8-1.3-.9-2-.1-1,0-1.9-.2-2.9-.2-1.3-1-2.8-.8-4.2-.5-.6,0-1.3,0-1.9-.1-.6-.8-1.3-.9-2-.1-.6,0-1.3,0-1.9-.1-.9-.9-2-.8-3.2-.7-.3,0-.7.1-1,.2-1,0-2-.1-3-.2-.6-.7-1.3-.7-2-.1Z"/>
        <path class="cls-7" d="M1080.9,900.9c.5-.2,1.1-.4,1.6-.5.9,0,1.6-.5,1.7-1.5,0-2.7.7-5.5-.2-8.2.3-2,.5-4,.8-6.1.7-.6.8-1.3.2-2,3.3-19.7,9.2-38.7,16-57.5.3-.1.4-.4.4-.7,1.6-.9,2.9-.4,4,.9,2.4,2.8,4.9,5.6,7.2,8.4,3.3,4,6.5,8.1,9.7,12.2,2.1,2.8,4.6,4.2,8.2,3.6,4.6-.7,9.3-1.2,14-1.7,5-.6,10-1,15-1.7,2.9-.4,4.6.8,6.1,3.2,5.9,9.4,11.9,18.7,17.8,28.1,1.2,1.9,2.6,2.9,4.8,3.1,3.8.3,7.7.8,11.5,1.3,10.1,1.3,20.3,2.6,30.4,4,.3.4.7.6,1.2.2.2,0,.3.2.4.3-.3.8-.2,1.6.5,2.2.3,2,.5,4.1.8,6.1-1,3-.9,6,0,9-.7,7.7-3.2,14.8-7.6,21.1-8.5,12.4-19.2,22.4-32.5,29.5-.6-.1-1,.1-1.2.6-.3.1-.6.2-.9.3-.6-.2-1,0-1.2.5-.6.2-1.2.4-1.8.5-.6-.2-1,0-1.2.5-.6.1-1.2.3-1.8.4-.9-.2-1.6-.1-2.2.6-.9.2-1.9.3-2.8.5-.5-.3-1-.2-1.3.3-1.3.2-2.5.4-3.8.6-.8-.3-1.6-.2-2.2.5-1.3.2-2.5.4-3.8.5-.8-.3-1.6-.3-2.2.4-2.3.2-4.6.4-6.8.7-4.1-.3-8.1-.3-12.2,0-2.6-.2-5.3-.4-7.9-.7-1.9-1-4-1.3-6.1-.8-1-.2-2-.1-2.8.5-.7-2.9-2.6-4.4-5.2-5.5-3.5-1.5-7.2-2.7-10.5-4.7-5.9-3.6-9.7-9.2-13.7-14.5-3.3-4.2-5.6-9.1-7.2-14.3-1-3.2-3.2-4.9-6.1-6.1-.8-.3-1.6.3-1.6,1.3,0,.8,0,1.7.2,2.5,1.6,6.9,3.7,13.5,7.2,19.8,3,5.3,6.6,10.2,10.8,14.4,4.1,4.1,8.8,7.8,14.2,10.3,3.1,1.5,6.3,3.3,10,2.7-.3,3.1-2,5.2-4.7,6.6-1.7,1-3.5,1.8-5.3,2.6-.6-.2-1,0-1.3.5-1.3.1-2.6.3-3.8.4-2.1-.3-4.2-.5-6.2.5-.6,0-1.2,0-1.8,0-1.7-1-3.4-.8-5.2-.5-1.6-.2-3.2-.4-4.8-.6-.6-.7-1.4-.7-2.2-.4-1.3-.1-2.6-.3-3.9-.4-.6-.7-1.4-.8-2.2-.5-1.3-.2-2.5-.4-3.8-.6-.6-.7-1.4-.7-2.2-.4-1.3-.2-2.5-.4-3.8-.6-1.2-1.1-2.8-.8-4.2-1.1-4.4-.9-8.7-1.6-13.1-2.3-.9-.1-1.9-.3-2.8-.4-.6-.7-1.3-.9-2.2-.6-.6-.1-1.2-.2-1.9-.4-.9-1-2-.9-3.2-.6-1-.1-1.9-.3-2.9-.4-.6-.8-1.4-.8-2.2-.6-.9-.1-1.9-.3-2.8-.4-.6-.8-1.3-.9-2.2-.6-.9-.2-1.9-.5-2.8-.7-.3-.5-.7-.5-1.2-.3-.6-.1-1.2-.3-1.8-.4-.3-.5-.7-.7-1.3-.5-.6-.2-1.2-.3-1.8-.5-.3-.5-.7-.7-1.3-.6-.6-.2-1.2-.4-1.8-.5-.2-.6-.7-.7-1.2-.5-.3,0-.6-.1-.9-.3-.2-.5-.7-.8-1.2-.6-.6-.3-1.1-.5-1.7-.8-.2-.5-.6-.6-1-.5-2.8-1.3-5.3-2.9-7.7-4.8-2-1.6-3.7-3.4-5-5.6-2.5-4.3-2.6-8.6-.3-13,1.1-2.1,2.6-3.9,4.4-5.5,3.5-3.2,7.5-5.7,11.9-7.4,17.9-7.1,35.9-14.1,53.9-21.1.3-.1.6-.2,1-.3.6.2,1,0,1.3-.6Z"/>
        <path class="cls-8" d="M846.9,632.7c.4-10.7.8-21.4,1.3-32.1.2-4,.9-8,.6-12,2.8-.3,5.7-.3,8.5.3,1.5.3,3,.3,4.5.4,5.2.1,10.4.2,15.6.2,3.2,0,6.3.3,9.5.9,7.4,1.4,14.8,2.6,22.2,4,11.3,2,22.8,3.5,34,6,1.5.3,3,.4,4.5,0,.5.7,1.2,1.1,2.1,1.3,2.4.5,4.9,1,7.3,1.5,7.6,1.8,15.2,3.6,22.8,5.7,6.6,1.8,13,4.1,19.3,6.8,1.6.7,3.5,1.3,4.3,3.2-1,2.3-2,4.6-3.1,6.9-11.2,22.8-22.5,45.6-33.7,68.4-7.1,14.4-14.3,28.8-21.5,43.1-.9,1.8-2,3.5-2.2,5.5-1.6,0-2.9-.6-4.3-1.2-10.3-4.8-20.8-9.2-31.4-13.3-11.7-4.5-23.6-8.4-35.6-12.3-8.5-2.7-17-5.2-25.6-7,.1-13.7.2-27.4.3-41.1,0-8.3-.4-16.7.6-25,.3-2.6.1-5.3.2-8,.9-.6.9-1.3,0-2Z"/>
        <path class="cls-5" d="M942.8,742.6c.2-2.1,1.4-3.8,2.2-5.5,7.1-14.4,14.3-28.8,21.5-43.1,11.3-22.8,22.5-45.6,33.7-68.4,1.1-2.2,2.1-4.6,3.1-6.9,1,.1,2,.2,2.9.4,5.7,1.6,11.4,3.2,17.1,4.8.4,1.5.8,2.9,1.2,4.4,3.9,15.4,7.8,30.9,11.7,46.3,3.8,15.1,7.6,30.2,11.5,45.3.8,2.9.4,5-1.4,7.4-7.5,9.6-9.5,20.5-6.6,32.3,2.1,8.6,6.6,15.8,13.1,21.6,5.2,4.6,11.2,7.9,17.8,10.1,6.6,2.2,13.1,2.6,19.7,0,10.7-4.3,18.4-11.7,22.2-22.6,1.5-4.1,3-8.3,2.6-12.7-.4-4.3-.7-8.6-2.1-12.8-5.9-17.3-11.6-34.7-17.4-52-4.9-14.8-9.8-29.6-14.7-44.4,1.6-.1,3,.5,4.3,1.3,2.7,1.4,5.2,3,7.9,4.3,6.1,2.9,11.7,6.6,17,10.6,6.6,5.1,11.8,11.3,15,19.1,3.6,8.7,5.3,17.9,8.2,26.9.5,1.6.5,3.3,1.1,4.9.7,1.9.4,4,1.8,5.7.2,1.3.3,2.6.5,4,1.4,8.7,3,17.4,4.3,26.1.5,3.1.2,6.3.3,9.5,0,2.2.2,4.3.3,6.5-.1,1.5-.3,3-.4,4.5-.4,6.3-2.2,12.2-5.4,17.6-.9,1.4-1.7,2.9-2.6,4.3-4.7,7.2-10.8,12.7-18.9,16-2.2.9-4.3,1.9-6.4,2.8-4.4,2-9,3.7-13.8,4.5-.8.1-1.6.3-2.3.9-2.2,0-4.4.2-6.5.3-8.6.1-17-1.4-25.2-3.9-1.4-.4-2.8-1.1-4.2-1.7-16.2-7.2-30.6-17.3-44.9-27.6-5.5-3.9-11.1-7.6-16.6-11.3-2.9-2-5.9-3.9-8.7-6-5.5-4-11.9-6.2-17.6-9.6-6.6-3.9-13.4-7.6-20.5-10.8-1.7-.7-3.2-1.9-4.7-2.8Z"/>
        <path class="cls-8" d="M1080.7,646.7c4.9,14.8,9.8,29.6,14.7,44.4,5.8,17.3,11.5,34.7,17.4,52,1.4,4.2,1.7,8.5,2.1,12.8.4,4.4-1.1,8.7-2.6,12.7-3.9,10.9-11.5,18.3-22.2,22.6-6.6,2.6-13.1,2.2-19.7,0-6.6-2.2-12.6-5.5-17.8-10.1-6.5-5.8-11-13.1-13.1-21.6-2.8-11.8-.8-22.7,6.6-32.3,1.9-2.4,2.2-4.5,1.4-7.4-4-15.1-7.7-30.2-11.5-45.3-3.9-15.4-7.8-30.9-11.7-46.3-.4-1.5-.8-2.9-1.2-4.4,0-.3,0-.7,0-1-1.4-6.4-1.5-12.7.9-19,.6-1.7,1.5-3.3,1.3-5.3,1.4-.7,2.1-2.1,3.1-3.2,6.1-7.2,13.7-11.4,23.4-12,5.9-.4,11.4.9,16.6,3.2,3.3,1.5,6.4,3.7,9.5,5.6,13,8.2,26,16.5,39.1,24.7,3.8,2.4,7.9,4.5,12.3,5.7,4.5,1.2,7.7,3.8,10.1,7.7,2,3.2,3.4,6.5,4.7,10,2.9,7.3,5.8,14.6,8.9,21.9,1.9,4.5,1.7,8.8,0,13.2-1.6,3.9-2.9,7.9-4.4,11.8-.9,2.3-2.4,4.1-5.1,4.2-4.3-.3-4.4-.3-5.3-4.3-1.4-6-2.8-12-3.7-18.1-.4-2.9-1.9-4.6-4.1-5.9-6.8-4-13.6-7.8-20.4-11.8-3-1.7-6.1-3.5-9.1-5.2-7.1-4.1-14.1-8.3-21.2-12.4-.4-.2-.9-.5-1.4-.5-.4,0-1.1.4-1.1.7-.1.8-.1,1.7.1,2.4,1.2,3.5,2.4,6.9,3.6,10.4Z"/>
        <path class="cls-4" d="M293.4,834.1c4,6.4,9,12,13.7,17.9,4.8,6,9.7,11.9,14.4,18,2,2.5,4.1,4.9,6.6,6.8-.2,4.7-2.5,8.7-4.7,12.6-1.1,1.9-2,3.9-2.9,5.8-3.2,6.5-6.5,12.9-11.2,18.4-5.6,6.4-12.9,10-21.3,11.4-4.7.8-9.3.8-14,.9-5.2,0-10.4-.2-15.6.2-11.7,1-23.5.1-35.2,1-7.5.6-15.1.8-22.6.8-5.6,0-10.9-1.6-15.6-4.9-6.4-4.5-9.6-10.9-9.9-18.4-.2-6.3,2.1-12.2,6.3-17,1-1.2,2.3-2,3.7-2.6,11.8-5.6,23.6-11.2,35.4-16.8.8-.4,1.5-.7,2.3-1.1,10.4-5,20.9-10,31.3-15,7.4-3.5,14.7-7.3,22.3-10.5,5.7-2.4,11.4-4.9,17-7.5Z"/>
        <path class="cls-8" d="M1091.8,816c.6-.6,1.5-.7,2.3-.9,4.8-.8,9.3-2.5,13.8-4.5,2.1-1,4.3-2,6.4-2.8,8-3.3,14.2-8.7,18.9-16,.9-1.4,1.8-2.9,2.6-4.3,3.3-5.4,5.1-11.3,5.4-17.6,0-1.5.3-3,.4-4.5,3.3,2.7,5.3,6.4,7.8,9.7,3.5,4.7,6.9,9.5,9.5,14.7,1.3,2.6,2.5,3,5.3,2.6,4.8-.6,9.6-1.1,14.4-1.7,2.2-.3,4.3-.5,6.4-.9,4.9-1.1,10-.7,14.9-1.6,5.1-.9,12,1.7,14.5,8.4,1.3,3.4,2.2,7,3.2,10.6,1.8,7,1.3,6.3,7.5,8.6,3.9,1.4,7.8,2.9,11.7,4.4,5.6,2.2,6.2,3.6,4,9-3.7,9.1-7.4,18.3-11.2,27.4-.8,2-1,3.9-.7,5.9,1.1,7.6,2,15.2,2.2,22.9-.4.1-.8.2-1.2.3-10.1-1.3-20.3-2.7-30.4-4-3.8-.5-7.7-1-11.5-1.3-2.2-.2-3.6-1.1-4.8-3.1-5.8-9.4-11.9-18.7-17.8-28.1-1.5-2.4-3.2-3.6-6.1-3.2-5,.6-10,1.1-15,1.7-4.7.5-9.3,1-14,1.7-3.6.6-6.1-.8-8.2-3.6-3.1-4.1-6.4-8.2-9.7-12.2-2.3-2.9-4.8-5.6-7.2-8.4-1.1-1.3-2.4-1.8-4-.9-.2,0-.5-.2-.7-.3-3.3-1.6-6.2-3.9-8.5-6.8-.3-.3-.2-1-.4-1.4Z"/>
        <path class="cls-2" d="M1025.3,598.6c.3,1.9-.6,3.6-1.3,5.3-2.4,6.3-2.2,12.6-.9,19,0,.3,0,.7,0,1-5.7-1.6-11.4-3.2-17.1-4.8-.9-.3-1.9-.3-2.9-.4-.8-1.9-2.7-2.4-4.3-3.2-6.3-2.8-12.7-5-19.3-6.8-7.5-2.1-15.2-3.8-22.8-5.7-2.4-.6-4.9-1.1-7.3-1.5-.9-.2-1.6-.6-2.1-1.3,1.3-6.9,4.5-12.9,8.6-18.5,3.2-4.4,7.4-5.6,12.8-5,6.1.7,11.6,3.2,17.1,5.5,13.1,5.5,26.3,11,39.4,16.5Z"/>
        <path class="cls-3" d="M1080.7,646.7c-1.2-3.5-2.5-6.9-3.6-10.4-.2-.8-.2-1.6-.1-2.4,0-.3.7-.7,1.1-.7.5,0,1,.3,1.4.5,7.1,4.1,14.1,8.3,21.2,12.4,3,1.8,6.1,3.5,9.1,5.2,6.8,3.9,13.6,7.8,20.4,11.8,2.2,1.3,3.7,3,4.1,5.9.9,6.1,2.4,12.1,3.7,18.1.9,4,1,4,5.3,4.3-.4,3.3.7,6.3,1.3,9.4.5,2.8.7,5.6.6,8.5,0,4.7-2,8-6.6,9.6-.8.3-1.6.5-2.4.7-1.4-1.6-1.1-3.8-1.8-5.7-.6-1.6-.6-3.3-1.1-4.9-2.9-8.9-4.6-18.1-8.2-26.9-3.3-7.8-8.4-14-15-19.1-5.3-4.1-10.9-7.8-17-10.6-2.7-1.3-5.3-2.9-7.9-4.3-1.3-.7-2.7-1.4-4.3-1.3Z"/>
        <path class="cls-6" d="M1128.2,966.3c-3.7.6-6.9-1.3-10-2.7-5.4-2.5-10.1-6.1-14.2-10.3-4.2-4.3-7.8-9.1-10.8-14.4-3.5-6.2-5.6-12.9-7.2-19.8-.2-.8-.2-1.7-.2-2.5,0-1,.8-1.6,1.6-1.3,2.9,1.2,5.1,2.9,6.1,6.1,1.6,5.1,3.9,10,7.2,14.3,4.1,5.3,7.9,10.9,13.7,14.5,3.3,2,7,3.2,10.5,4.7,2.7,1.2,4.6,2.7,5.2,5.5-.7,1.9-1.5,3.9-2.2,5.8Z"/>
      </g>
    </g>
  </g>
</svg>