<?xml version="1.0" encoding="UTF-8"?>
<svg width="1417.3" height="1417.3" xmlns="http://www.w3.org/2000/svg" version="1.1" viewBox="0 0 1417.3 1417.3">
  <g>
    <g>
      <g>
        <path fill="#686d65" d="M 696.5 990.2 l -.3 -.2 h -.4 c -1.8 -.9 -4 .4 -5.7 -.9 h 0 c -1.3 -1.1 -3.1 .1 -4.3 -1 l -.3 -.2 h -.4 c -1.1 -.6 -2.6 0 -3.6 -.9 h 0 c -.9 -.9 -2.4 0 -3.3 -1 l -.3 -.2 h -.3 c -.9 -.2 -1.9 -.2 -2.6 -.9 h 0 c -.8 -1 -2.4 0 -3.2 -1.2 h 0 c -.7 -.4 -1.6 -.3 -2.3 -1 h 0 c -.6 -.6 -1.6 -.4 -2.2 -1 h 0 c -.7 -1.2 -2.5 0 -3 -1.4 h .1 c -.8 -.3 -1.8 0 -2.2 -1.1 h .1 c -.6 0 -.9 -.4 -1.3 -.7 h 0 c -.5 -.7 -1.6 -.5 -2.1 -1.2 h 0 c -.6 -.6 -1.7 -.4 -2.1 -1.2 h .1 c -.5 0 -.8 -.5 -1.3 -.8 h 0 c -.5 -.8 -1.6 -.5 -2 -1.3 h 0 c -.5 -.1 -.8 -.6 -1.2 -.9 h 0 c -.5 -.8 -1.6 -.5 -2 -1.4 h .1 c -.5 0 -.9 -.5 -1.2 -.9 h 0 c -1 -.8 -2.4 -1.2 -3.1 -2.4 h .1 c -.6 0 -1 -.5 -1.2 -1 h 0 c -.5 -.2 -.9 -.6 -1.2 -1 h 0 c -.4 -.3 -.8 -.7 -1.1 -1 h 0 c -2.9 -2.1 -5.4 -4.6 -7.5 -7.5 h 0 c -.4 -.4 -.8 -.7 -1 -1.2 h 0 c -.4 -.3 -.8 -.6 -1.1 -1.2 h 0 c -.5 -.2 -1 -.5 -1.1 -1.2 h .1 c -1.2 -.6 -1.6 -2 -2.4 -3.1 h 0 c -.4 -.3 -.9 -.7 -1 -1.2 h .1 c -.9 -.2 -.6 -1.4 -1.3 -1.9 h 0 c -.3 -.4 -.8 -.7 -1 -1.3 h .1 c -.9 -.3 -.6 -1.4 -1.3 -2 h 0 c -.4 -.4 -.8 -.7 -.9 -1.3 h .1 c -1 -.3 -.7 -1.4 -1.2 -2 h 0 c -.8 -.4 -.6 -1.5 -1.2 -2.1 h 0 c -.7 -.5 -.5 -1.5 -1.1 -2.1 h 0 c -.7 -.5 -.5 -1.5 -1.1 -2.2 h 0 c -.7 -.5 -.6 -1.5 -1.1 -2.2 h 0 c -.8 -.6 -.7 -1.6 -1.1 -2.5 .1 -.3 0 -.5 -.2 -.6 -.7 -1.1 -1.4 -2.2 -2 -3.3 h 0 c -.5 -.3 -.9 -.6 -1 -1.2 h .1 c -1 -.2 -.7 -1.4 -1.3 -1.9 h 0 c -.4 -.3 -.9 -.7 -1 -1.2 h .1 c -.9 -.2 -.7 -1.4 -1.3 -1.9 h 0 c -.4 -.4 -.8 -.7 -1 -1.3 h .1 c -.9 -.3 -.6 -1.4 -1.3 -1.9 h 0 c -.3 -.5 -.7 -.8 -1 -1.3 h 0 c -1 -.8 -1.5 -2.1 -2.2 -3.2 h 0 c -.5 -.3 -.9 -.6 -1 -1.2 h .1 c -1 -.2 -.7 -1.4 -1.3 -1.9 h 0 c -.4 -.3 -.9 -.7 -1 -1.2 h .1 c -.9 -.2 -.7 -1.4 -1.3 -1.9 h 0 c -.4 -.4 -.8 -.7 -1 -1.3 h .1 c -.9 -.3 -.6 -1.4 -1.3 -1.9 h 0 c -.3 -.4 -.8 -.8 -1 -1.3 h 0 c -1 -.8 -1.5 -2.1 -2.2 -3.2 h 0 c -.9 -.9 -1.5 -2.1 -2.2 -3.2 h 0 c -.4 -.3 -.9 -.7 -1 -1.2 h .1 c -.9 -.2 -.7 -1.4 -1.3 -1.9 h 0 c -.4 -.4 -.8 -.7 -1 -1.3 h .1 c -.9 -.3 -.6 -1.4 -1.3 -1.9 h 0 c -.3 -.4 -.8 -.8 -1 -1.3 h 0 c -1 -.8 -1.6 -2 -2.2 -3.2 h 0 c -1 -.9 -1.5 -2.1 -2.2 -3.2 h 0 c -.4 -.3 -.9 -.7 -1 -1.2 h .1 c -.9 -.2 -.7 -1.4 -1.3 -1.9 h 0 c -.4 -.4 -.8 -.7 -1 -1.3 h .1 c -.9 -.3 -.6 -1.4 -1.3 -1.9 h 0 c -.3 -.4 -.8 -.8 -1 -1.3 h 0 c -1 -.8 -1.6 -2 -2.2 -3.2 h 0 c -1 -.9 -1.5 -2.1 -2.2 -3.2 h 0 c -.4 -.3 -.9 -.7 -1 -1.2 h .1 c -1 -.2 -.7 -1.4 -1.3 -1.9 h 0 c -.4 -.4 -.8 -.7 -1 -1.3 h .1 c -.9 -.3 -.6 -1.4 -1.3 -1.9 h 0 c -.3 -.4 -.8 -.8 -1 -1.3 h 0 c -1 -.8 -1.6 -2 -2.2 -3.2 h 0 c -1 -.9 -1.5 -2.1 -2.2 -3.2 h 0 c -.4 -.3 -.9 -.6 -1 -1.2 h .1 c -1 -.2 -.7 -1.4 -1.3 -1.9 h 0 c -.4 -.4 -.8 -.7 -1 -1.3 h .1 c -.9 -.3 -.6 -1.4 -1.3 -1.9 h 0 c -.3 -.4 -.8 -.7 -1 -1.3 h 0 c -1 -.8 -1.6 -2 -2.2 -3.2 h 0 c -1 -.9 -1.5 -2.1 -2.2 -3.2 h 0 c -.5 -.3 -.9 -.6 -1 -1.2 h .1 c -1 -.2 -.7 -1.4 -1.3 -1.9 h 0 c -.4 -.3 -.8 -.7 -1 -1.3 h .1 c -.9 -.3 -.6 -1.4 -1.3 -1.9 h 0 c -.3 -.4 -.8 -.7 -1 -1.3 h 0 c -1 -.8 -1.6 -2 -2.2 -3.2 h 0 c -1 -.9 -1.5 -2.1 -2.2 -3.2 h 0 c -.5 -.3 -.9 -.6 -1 -1.2 h .1 c -1 -.2 -.7 -1.4 -1.3 -1.9 h 0 c -.4 -.3 -.8 -.7 -1 -1.2 h .1 c -.9 -.3 -.6 -1.4 -1.3 -1.9 h 0 c -.3 -.4 -.8 -.7 -1 -1.3 h 0 c -1 -.8 -1.6 -2 -2.2 -3.2 h 0 c -1 -.9 -1.5 -2.1 -2.2 -3.2 h 0 c -.5 -.3 -.9 -.6 -1 -1.2 h .1 c -1 -.2 -.7 -1.4 -1.3 -1.9 h 0 c -.4 -.3 -.8 -.7 -1 -1.3 h .1 c -.9 -.3 -.6 -1.4 -1.3 -1.9 h 0 c -.3 -.4 -.8 -.7 -1 -1.3 h 0 c -1.1 -.8 -1.6 -2 -2.3 -3.2 h 0 c -1 -.8 -1.5 -2.1 -2.2 -3.2 h 0 c -.5 -.3 -.9 -.6 -1 -1.2 h .1 c -1 -.2 -.7 -1.4 -1.3 -1.9 h 0 c -.4 -.3 -.8 -.7 -1 -1.2 h .1 c -.9 -.3 -.6 -1.4 -1.3 -1.9 h 0 c -.4 -.4 -.8 -.7 -1 -1.3 h .1 c -.9 -.3 -.6 -1.4 -1.3 -1.9 h 0 c -.3 -.5 -.7 -.8 -.9 -1.3 h 0 c -1 -.8 -1.5 -2.1 -2.2 -3.2 h 0 c -.5 -.2 -.9 -.6 -1 -1.2 h .1 c -1.4 -1.1 -2.6 -2.5 -3.4 -4.2 h 0 c -.6 -.1 -1 -.5 -1.1 -1.1 h .1 c -.6 0 -1 -.4 -1.2 -1 h .1 c -.6 0 -.9 -.5 -1.2 -1 h 0 c -1.7 -1.2 -3.8 -1.8 -5.4 -3.2 h 0 c -.7 -.5 -1.7 -.3 -2.2 -1.1 h 0 c -.7 -.4 -1.7 -.3 -2.2 -1.1 h 0 c -.7 -.4 -1.7 -.3 -2.2 -1.1 h 0 c -.7 -.4 -1.7 -.3 -2.2 -1 h 0 c -2.6 -.9 -5.1 -2 -7.5 -3.4 h .1 c -.8 -.3 -1.8 -.1 -2.3 -1 h 0 c -.7 -.4 -1.7 -.2 -2.3 -1 h 0 c -.7 -.4 -1.7 -.3 -2.2 -1 h 0 c -3 -1.1 -6 -2.3 -8.7 -4.3 h 0 c -.6 -.5 -1.7 -.3 -2.2 -1.1 h 0 c -.7 -.5 -1.7 -.3 -2.2 -1.1 h 0 c -.7 -.4 -1.8 -.2 -2.2 -1.2 h .1 c -1.3 -.3 -2.4 -1.1 -3.4 -2 h 0 c -1.7 -1.2 -4 -1.6 -5.3 -3.4 h .1 c -.6 0 -1 -.4 -1.3 -.9 h 0 c -1.1 -.7 -2.3 -1.2 -3.3 -2.2 h 0 c -1.1 -.6 -2.3 -1.2 -3.3 -2.1 h 0 c -1.7 -1.2 -3.9 -1.6 -5.4 -3.4 h .1 c -.6 0 -.9 -.5 -1.3 -.9 h 0 c -.6 -.6 -1.7 -.3 -2.1 -1.3 h .1 c -1.3 -.4 -2.5 -1 -3.3 -2.2 h .1 c -.6 0 -.9 -.4 -1.3 -.9 h 0 c -1.1 -.7 -2.3 -1.2 -3.2 -2.2 h 0 c -1.1 -.6 -2.4 -1.1 -3.2 -2.2 h 0 c -1.8 -.6 -3 -2 -4.4 -3.2 h 0 c -1.7 -.7 -3 -2 -4.4 -3.2 h .1 c -.5 0 -.9 -.5 -1.2 -.9 h 0 c -1.6 -.9 -3 -2.1 -4.3 -3.3 h 0 c -2.2 -.9 -3.6 -2.9 -5.5 -4.3 h 0 c -1.7 -.8 -3.1 -1.9 -4.3 -3.3 h .1 c -.6 0 -1 -.4 -1.3 -.9 h 0 c -1.6 -.8 -3 -2 -4.3 -3.3 h .1 c -.6 0 -.9 -.5 -1.2 -1 h 0 c -1.6 -.9 -3 -2 -4.3 -3.3 h .1 c -.6 0 -1 -.5 -1.2 -1 h 0 c -2.1 -1 -3.6 -2.9 -5.4 -4.4 h .1 c -.6 0 -.9 -.5 -1.2 -1 h 0 c -2.1 -1.1 -3.7 -2.8 -5.4 -4.4 h .1 c -.6 0 -1 -.4 -1.2 -1 h 0 c -.5 -.1 -.9 -.5 -1.2 -1 h 0 c -1.5 -.9 -3 -2 -4.2 -3.4 h .1 c -.6 0 -1 -.4 -1.2 -1 h 0 c -2.6 -1.2 -4.3 -3.7 -6.5 -5.4 h .1 c -.5 -.1 -.9 -.5 -1.2 -1 h 0 c -2.1 -1.1 -3.6 -2.9 -5.4 -4.4 h .1 c -.6 0 -.9 -.5 -1.2 -1 h 0 c -2.1 -1.1 -3.7 -2.8 -5.4 -4.4 h .1 c -.6 0 -1 -.4 -1.2 -1 h .1 c -.6 -.1 -.9 -.5 -1.2 -1 h 0 c -2.6 -1.3 -4.2 -3.7 -6.4 -5.5 h .1 c -.6 0 -1 -.5 -1.2 -1 h 0 c -.5 -.2 -.9 -.5 -1.2 -1 h 0 c -2.5 -1.4 -4.2 -3.7 -6.4 -5.5 h .1 c -.6 0 -1 -.4 -1.2 -1 h 0 c -.5 -.1 -.9 -.5 -1.2 -1 h 0 c -2.6 -1.3 -4.2 -3.7 -6.5 -5.5 h .1 c -.6 0 -1 -.5 -1.2 -1 h 0 c -2.2 -1 -3.7 -2.8 -5.4 -4.4 h .1 c -.6 0 -1 -.4 -1.2 -1 h 0 c -2.2 -1 -3.7 -2.8 -5.4 -4.4 h .1 c -.6 0 -1 -.4 -1.3 -1 h 0 c -1.7 -.8 -3.1 -2 -4.3 -3.3 h .1 c -.6 0 -1 -.4 -1.3 -1 h 0 c -1.7 -.8 -3 -2 -4.3 -3.3 h .1 c -.5 0 -.9 -.5 -1.2 -1 h 0 c -1.6 -.9 -3 -2.1 -4.3 -3.4 h .1 c -.6 0 -.9 -.5 -1.2 -1 h 0 c -1.6 -.8 -3 -2.1 -4.4 -3.2 h 0 c -2.3 -1.6 -5.4 -2.1 -7.2 -4.5 -.7 -1.8 -.4 -3.5 .4 -5.1 7.4 -14.3 13.7 -29.2 21.5 -43.4 1 -1.8 1.8 -3.9 4.4 -4.3 2.3 .6 4.4 1.7 6.5 2.9 h -.1 c .8 .3 1.8 .1 2.3 1.1 h 0 c .7 .3 1.8 .1 2.3 1.1 h 0 c .7 .3 1.8 .2 2.3 1.1 h 0 c .7 .4 1.7 .2 2.2 1.1 h 0 c .7 .4 1.7 .2 2.2 1.1 h 0 c .7 .4 1.7 .2 2.2 1.1 h 0 c .7 .4 1.7 .2 2.2 1.1 h 0 c .7 .4 1.7 .2 2.2 1.1 h 0 c .7 .4 1.7 .2 2.2 1.1 h 0 c .7 .4 1.7 .2 2.2 1.1 h 0 c .7 .4 1.8 .2 2.2 1.1 h 0 c .7 .4 1.8 .2 2.2 1.1 h 0 c .7 .4 1.8 .2 2.2 1.1 h 0 c .7 .3 1.8 .2 2.2 1.1 h 0 c .7 .3 1.8 .1 2.2 1.1 h -.1 c .7 .3 1.8 .1 2.2 1.1 h -.1 c 4 2.1 8.2 3.7 12 6.3 h 0 c .6 .5 1.7 .3 2.2 1.1 h 0 c .7 .5 1.7 .3 2.2 1.1 h 0 c .7 .4 1.7 .3 2.2 1.1 h 0 c .7 .4 1.8 .2 2.2 1.1 h 0 c .7 .4 1.8 .2 2.2 1.1 h -.1 c 8.9 4.7 18.3 8.6 27 13.8 h 0 c .6 .5 1.7 .3 2.2 1.1 h 0 c .7 .5 1.7 .3 2.2 1.1 h 0 c .7 .5 1.7 .3 2.2 1.1 h 0 c .7 .5 1.7 .3 2.2 1.1 h 0 c .7 .4 1.7 .3 2.2 1.1 h 0 c .7 .4 1.7 .2 2.2 1.1 h 0 c .7 .4 1.8 .2 2.2 1.1 h 0 c .7 .3 1.8 .2 2.2 1.1 h 0 c .7 .3 1.8 .1 2.2 1.1 h -.1 c .7 .3 1.8 .1 2.2 1.1 h -.1 c 7.5 3.9 15.4 7.2 22.7 11.6 h 0 c .6 .5 1.7 .3 2.2 1.1 h 0 c .6 .5 1.7 .3 2.2 1.1 h 0 c .7 .5 1.7 .3 2.2 1.1 h 0 c .7 .5 1.7 .3 2.2 1.1 h 0 c .7 .4 1.7 .2 2.2 1.1 h 0 c .7 .4 1.8 .2 2.2 1.1 h 0 c .7 .3 1.8 .2 2.2 1.1 h -.1 c 3.9 2.1 8.3 3.7 12 6.3 h 0 c .7 .5 1.7 .3 2.2 1.1 h 0 c .7 .4 1.7 .3 2.2 1.1 h 0 c .7 .4 1.8 .2 2.2 1.1 h 0 c .7 .3 1.8 .2 2.2 1.1 h -.1 c 4.7 2.5 9.7 4.4 14.1 7.4 h 0 c .6 .5 1.7 .3 2.2 1.1 h 0 c .7 .5 1.7 .3 2.2 1.1 h 0 c .7 .4 1.7 .2 2.2 1.1 h 0 c .7 .4 1.8 .2 2.2 1.1 h 0 c .7 .4 1.8 .2 2.2 1.1 h -.1 c 3.9 2.1 8.3 3.6 12 6.3 h 0 c .7 .5 1.7 .3 2.2 1.1 h 0 c .7 .4 1.8 .2 2.2 1.1 h -.1 c 1.3 .4 2.4 1.1 3.4 2 h 0 c .6 .6 1.7 .3 2.1 1.2 h 0 c 1.2 .5 2.3 1.2 3.4 2 h 0 c .6 .5 1.7 .3 2.1 1.2 h -.1 c 1.3 .4 2.4 1.1 3.4 2 h 0 c .7 .5 1.8 .2 2.2 1.2 h -.1 c 1.3 .4 2.4 1.1 3.4 2 h 0 c .7 .5 1.7 .3 2.2 1.2 h 0 c 1.8 1 4 1.6 5.4 3.2 h -.1 c .6 0 .9 .5 1.3 .9 h 0 c 2.3 1.7 5.4 2.3 7.5 4.4 h 0 c 1.8 1.1 3.9 1.6 5.4 3.3 h 0 c 1.2 .5 2.4 1.1 3.4 2 h 0 c .6 .5 1.7 .3 2.1 1.2 h -.1 c .6 0 .9 .4 1.3 .9 h 0 c 1.1 .8 2.4 1.1 3.2 2.3 h -.1 c .6 0 1 .4 1.3 .9 h 0 c 1.1 .6 2.4 1.2 3.3 2.2 h 0 c .5 .1 .9 .5 1.2 .9 h 0 c 1 .8 2.4 1.2 3.2 2.3 h -.1 c .6 0 .9 .5 1.2 1 h 0 c .5 .2 .9 .6 1.2 1 h 0 c 1.6 .9 2.9 2.1 4.3 3.3 h 0 c .5 .1 .8 .6 1.2 .8 h 0 c .8 1.1 2.3 1.3 3 2.5 h -.1 c .6 0 1 .5 1.2 1 h 0 c .5 .2 .9 .5 1.2 1 h 0 c .4 .2 .8 .6 1.2 1 h 0 c 1.4 1.1 3 2.1 4.2 3.5 h -.1 c .6 0 1 .5 1.2 1 h 0 c .5 .2 .9 .6 1.2 1 h 0 c .4 .3 .8 .6 1.2 1 h 0 c .9 1 2.4 1.2 3 2.5 h -.1 c .6 0 1 .4 1.2 1 h -.1 c .6 0 .9 .5 1.2 1 h 0 c .5 .2 .8 .6 1.2 1 h 0 c .4 .3 .7 .7 1.1 1 h 0 c .9 1 2.4 1.2 3 2.5 h -.1 c .6 0 1 .4 1.2 1 h 0 c .5 .1 .9 .5 1.2 1 h 0 c .5 .2 .8 .6 1.2 1 h 0 c .4 .3 .7 .7 1.1 1 h 0 c .9 1 2.3 1.3 3 2.5 h -.1 c .6 0 1 .4 1.2 1 h 0 c .5 .1 .9 .5 1.2 1 h 0 c .5 .2 .8 .6 1.2 1 h 0 c 1.5 1.1 3 2.1 4.2 3.5 h -.1 c .6 0 1 .5 1.2 1 h 0 c .5 .1 .9 .5 1.2 1 h 0 c .4 .2 .8 .6 1.2 1 h 0 c 1.4 1.1 3 2.1 4.2 3.5 h -.1 c .6 0 1 .5 1.2 1 h 0 c .5 .2 .9 .6 1.2 1 h 0 c 1.5 1 3 2 4.2 3.4 h -.1 c .7 0 1 .4 1.2 1 h -.1 c .6 0 .9 .5 1.2 1 h 0 c .5 .2 .9 .6 1.2 1 h 0 c .4 .3 .7 .7 1.1 1 h 0 c .9 1 2.4 1.2 3 2.5 h -.1 c .6 0 1 .4 1.2 1 h -.1 c .6 0 .9 .5 1.2 1 h 0 c .5 .2 .8 .6 1.2 1 h 0 c .4 .3 .7 .7 1.1 1 h 0 c .9 1 2.3 1.3 3 2.5 h -.1 c .6 0 1 .4 1.2 1 h 0 c .5 .1 .9 .5 1.2 1 h 0 c .5 .2 .8 .6 1.2 1 h 0 c .4 .3 .7 .7 1.1 1 h 0 c .9 1 2.3 1.3 3 2.5 h -.1 c .6 0 1 .4 1.2 1 h 0 c .5 .1 .9 .5 1.2 1 h 0 c .5 .2 .8 .6 1.2 1 h 0 c 1.4 1.1 3 2.1 4.2 3.5 h -.1 c .6 0 1 .5 1.2 1 h 0 c .5 .2 .9 .6 1.2 1 h 0 c .4 .2 .8 .6 1.2 1 h 0 c 1.4 1.1 2.9 2.1 4.2 3.5 h -.1 c .6 0 .9 .5 1.2 1 h 0 c .5 .2 .9 .6 1.2 1 h 0 c 1.5 1 3 2 4.2 3.4 h -.1 c .6 0 1 .4 1.2 1 h -.1 c .6 0 .9 .5 1.2 1 h 0 c .5 .2 .8 .6 1.2 1 h 0 c .4 .3 .7 .7 1.1 1 h 0 c .9 1 2.3 1.2 3 2.5 h -.1 c .6 0 1 .4 1.2 1 h 0 c .5 .1 .9 .5 1.2 1 h 0 c .5 .2 .8 .6 1.2 1 h 0 c .4 .3 .7 .7 1.1 1 h 0 c .9 1 2.3 1.3 3 2.5 h -.1 c .6 0 1 .4 1.2 1 h 0 c .5 .1 .9 .5 1.2 1 h 0 c .5 .2 .8 .6 1.2 1 h 0 c 1.5 1.1 3 2.1 4.2 3.5 h -.1 c .6 0 1 .5 1.2 1 h 0 c .5 .1 .9 .5 1.2 1 h 0 c 2.2 1 3.4 3.6 6 3.9 13.7 11.5 27.6 22.7 40.4 35 13.5 13.1 26.7 26.7 38.4 41.6 5.2 6.6 11.6 12.1 16.5 19 1.2 1.7 3.1 3.1 2.5 5.6 0 .8 0 1.6 -.7 2.1 h 0 c -.2 .4 -.6 .8 -1 1.1 h 0 c -.8 1 -1.3 2.3 -2.3 3.2 h 0 c -.2 .4 -.6 .7 -1 1.1 h 0 c -.7 .5 -.4 1.7 -1.4 2 h .1 c 0 .5 -.5 .9 -1.1 1.1 h 0 c -.2 .4 -.6 .8 -1.1 1.1 h 0 c -.3 .4 -.7 .7 -1 1.1 h 0 c -1 .9 -1.2 2.4 -2.5 3.1 h .1 c -.1 .5 -.5 .9 -1.1 1.1 h .1 c -.2 .5 -.6 .8 -1.1 1.1 h 0 c -.2 .4 -.6 .8 -1.1 1.1 h 0 c -.3 .4 -.7 .8 -1.1 1.1 h 0 c -.3 .4 -.7 .8 -1.1 1.1 h 0 c -.3 .4 -.7 .8 -1.1 1.1 h 0 c -.3 .4 -.7 .8 -1.1 1.1 h 0 c -.3 .4 -.7 .8 -1.1 1.1 h 0 c -.3 .4 -.7 .8 -1.2 1.1 h 0 c -.3 .4 -.7 .8 -1.2 1.1 h 0 c -.3 .4 -.6 .8 -1.2 1 h .1 c -.2 .5 -.6 .9 -1.2 1 h .1 c -.7 1.1 -2.1 1.3 -3 2.3 h 0 c -.4 .4 -.8 .7 -1.1 1 h 0 c -.4 .4 -.7 .8 -1.2 1 h 0 c -.3 .4 -.7 .8 -1.2 1 h .1 c -.8 1.1 -2.1 1.4 -3.1 2.2 h 0 c -.3 .4 -.7 .8 -1.2 1 h 0 c -.8 1 -2.1 1.4 -3.2 2.2 h 0 c -.3 .4 -.7 .9 -1.3 1 h .1 c -.3 .8 -1.5 .6 -2.1 1.2 h 0 c -.4 .4 -.7 .8 -1.3 1 h .1 c -.4 .8 -1.5 .6 -2.1 1.2 h 0 c -.4 .4 -.7 .9 -1.3 .9 h .1 c -.4 .9 -1.5 .6 -2.1 1.2 h 0 c -.5 .7 -1.5 .5 -2.1 1.2 h 0 c -.4 .4 -.7 .8 -1.3 .9 h .1 c -.4 .9 -1.5 .7 -2.2 1.1 h 0 c -.5 .8 -1.5 .6 -2.2 1.1 h 0 c -.5 .7 -1.5 .5 -2.2 1.1 h 0 c -.5 .7 -1.6 .5 -2.2 1.1 h 0 c -.6 .7 -1.6 .5 -2.2 1.1 h 0 c -.6 .7 -1.6 .5 -2.2 1.1 h 0 c -.6 .7 -1.5 .6 -2.3 1 h 0 c -.7 1.2 -2.3 .1 -3.1 1.2 h 0 c -.6 .6 -1.6 .5 -2.2 1 h 0 c -.7 .7 -1.7 .7 -2.6 1 h -.3 c 0 0 -.3 .2 -.3 .2 -.6 .6 -1.6 .5 -2.3 .9 h 0 c -.8 1.2 -2.4 .2 -3.3 1.1 h 0 c -.8 1.1 -2.4 .3 -3.3 1.1 h 0 c -1.1 1.4 -3.1 0 -4.3 1.2 h 0 c -1.2 1.2 -3.1 0 -4.3 1.1 h 0 c -1.3 1.2 -3.1 0 -4.4 1 h 0 c -2 1.5 -4.6 -.2 -6.7 1.1 h -.4 c 0 -.1 -.4 0 -.4 0 -6.4 .8 -12.9 .9 -19.3 0 Z"/>
        <path fill="#884000" d="M 1058.5 982.7 l -.4 -.2 h -.4 c -2.5 -1.1 -5.4 .5 -7.8 -.8 l -.4 -.2 h -.4 c -2.5 -1.1 -5.4 .6 -7.8 -.9 h 0 c -3.1 -1.4 -6.6 .6 -9.7 -1.1 h 0 c -2.9 -.7 -5.9 -.9 -8.7 -2.2 h 0 c -.9 -.8 -2.4 0 -3.3 -1 h 0 c -.9 -.9 -2.4 0 -3.2 -1.1 h 0 c -1.8 -.8 -3.8 -.9 -5.4 -2.2 h .1 c -.7 -.3 -1.8 -.2 -2.3 -1.1 h .1 c -.7 -.3 -1.8 -.1 -2.2 -1.1 h .1 c -1.3 -.3 -2.4 -1 -3.4 -2 h .1 c -.5 0 -.9 -.5 -1.3 -.9 h 0 c -.9 -.9 -2.4 -1.2 -3 -2.5 h .1 c -.7 0 -1.1 -.3 -1.2 -1.1 h .1 c -1.3 -.5 -1.6 -2 -2.5 -2.9 h 0 c -.4 -.4 -.9 -.7 -.9 -1.3 v .2 c -1.4 -.6 -.2 -2.3 -1.3 -3.1 h 0 c -.8 -3.2 -.9 -6.4 .1 -9.6 h 0 c .5 -.6 .4 -1.6 1 -2.2 h 0 c .6 -.6 .4 -1.6 1.3 -2.1 h 0 c .2 -.4 .6 -.8 1 -1.1 h 0 c 1.1 -1.8 2.6 -3.2 4.3 -4.3 h 0 c .4 -.3 .7 -.8 1.2 -1 h 0 c .3 -.4 .7 -.9 1.3 -.9 h -.1 c .3 -.9 1.5 -.6 2 -1.2 h 0 c .4 -.4 .7 -.9 1.4 -.9 h -.1 c .3 -.9 1.5 -.7 2.1 -1.2 h 0 c .5 -.8 1.5 -.6 2.2 -1.1 h 0 c .8 -1.1 2.4 -.1 3.2 -1.2 h 0 c .6 -.6 1.6 -.5 2.3 -1 h 0 c .6 -.8 1.5 -.7 2.3 -.9 h -.1 c .6 -1.4 2.3 -.3 3.2 -1.2 h 0 c .6 -.7 1.6 -.6 2.3 -1 h -.1 c 1.6 -1.2 3.6 -1.4 5.4 -2.2 h 0 c .6 -.8 1.5 -.7 2.3 -.9 h -.1 c .6 -1.4 2.3 -.3 3.2 -1.3 h 0 c .6 -.7 1.6 -.6 2.3 -1 h -.1 c .7 -1.3 2.3 -.2 3.1 -1.2 h 0 c .6 -.6 1.6 -.5 2.3 -1 h 0 c .6 -.8 1.5 -.7 2.3 -.9 h -.1 c .6 -1.4 2.3 -.3 3.2 -1.3 h 0 c .6 -.7 1.6 -.6 2.3 -1 h -.1 c .7 -1.3 2.3 -.2 3.2 -1.2 h 0 c .6 -.6 1.6 -.5 2.3 -1 h 0 c .7 -.8 1.7 -.8 2.6 -1 h .3 c 0 0 .2 -.2 .2 -.2 .6 -.6 1.6 -.4 2.2 -1 h 0 c .6 -.7 1.6 -.6 2.3 -1 h -.1 c .7 -1.3 2.3 -.2 3.2 -1.2 h 0 c .6 -.6 1.6 -.5 2.3 -1 h 0 c 1.3 -1 3.1 -1.1 4.4 -2.2 h 0 c 1.5 -5.3 -.6 -10.9 1.1 -16.2 h 0 c 1.4 -2.3 -.5 -5.2 1.2 -7.5 h 0 c 1.1 -1.6 -.3 -3.8 1.1 -5.4 h 0 c 1 -1.3 0 -3.2 .9 -4.6 .4 -6.9 2.1 -13.6 4.3 -20.1 1.1 -3.6 2.8 -7 3.3 -10.8 1.9 -4.3 3 -9 6.2 -12.7 5.2 -2.2 8.3 -1.5 12.2 3.1 3.4 4.1 6.7 8.4 9.7 12.8 3.1 4.6 6.9 6.2 12.3 5.1 7 -1.4 14.2 -1.7 21.2 -3 6.7 -1.2 11.6 .7 15.1 7.1 4.5 8.3 9.7 16.2 14.4 24.4 2.1 3.7 4.7 5.8 9.1 6.3 11.9 1.4 23.7 3.2 35.5 4.9 2.3 .3 4.6 .7 6.3 2.5 .8 1.9 -.1 4 .8 5.9 l -.2 .3 .2 .3 c .9 5 1.1 10 0 15 h 0 c -1.2 1.6 .3 3.8 -1.1 5.4 h 0 c -1.2 1.1 .4 3.2 -1.3 4.2 h 0 c -.3 .7 -.2 1.6 -.9 2.2 h 0 c -1 .8 0 2.5 -1.3 3.1 h 0 c -.3 .7 -.1 1.7 -1.1 2.1 h 0 c -.4 .7 -.1 1.7 -1.2 2.1 h 0 c -.3 1.3 -1.1 2.4 -2.1 3.3 h 0 c -.6 1.1 -1.1 2.4 -2.3 3.2 h .1 c -.1 .5 -.6 .8 -1 1.2 h 0 c -.8 1 -1.1 2.4 -2.4 3.1 h .1 c 0 .5 -.5 .9 -1.1 1.1 h 0 c -.2 .5 -.6 .8 -1.1 1.1 h 0 c -2.7 3.7 -5.9 6.9 -9.7 9.7 h 0 c -.3 .4 -.7 .8 -1.2 1.1 h 0 c -.3 .4 -.7 .8 -1.2 1 h .1 c -.2 .5 -.6 .9 -1.3 1 h .1 c -1.2 1.3 -2.6 2.5 -4.3 3.3 h 0 c -.9 1 -2.1 1.5 -3.2 2.2 h 0 c -1 .9 -2.1 1.6 -3.4 2 h .1 c -.5 .9 -1.5 .7 -2.2 1.1 h 0 c -.5 .8 -1.5 .7 -2.3 1 h .1 c -.7 1.3 -2.3 .3 -3.2 1.2 h 0 c -.9 1.1 -2.4 .3 -3.3 1 h .1 c -1.2 1.4 -3.1 .1 -4.4 1.1 h .1 c -1.9 1.7 -4.5 -.2 -6.5 1.2 h 0 c -1.6 1.3 -3.8 0 -5.5 1 h 0 c -2.7 1.7 -5.9 -.2 -8.7 1.1 h 0 c -2.7 1.4 -5.6 .6 -8.4 .6 -5.5 0 -10.8 -1 -16.3 -1.7 h 0 c -1.9 -.7 -3.8 -.6 -5.6 0 h 0 c -.4 .4 -.9 .4 -1.3 0 -1.7 -2.9 -4.2 -4.8 -7.3 -6.1 -15.9 -6.6 -24.4 -19.6 -30.5 -34.8 -1 -2.6 -1.5 -5.6 -4.8 -6.6 -1.6 1.7 -.6 3.4 -.2 5 5.1 20.8 15.8 37.3 36.1 46.3 .7 .3 1.2 .7 1.7 1.3 .3 .6 .1 .9 -.5 1.1 h .2 c -.3 1 -1.4 .7 -2.1 1.2 h 0 c -.5 .8 -1.5 .6 -2.2 1.1 h 0 c -.8 1.1 -2.4 .2 -3.2 1.1 h 0 c -1.2 1.2 -3.1 0 -4.4 1.1 h 0 c -1.7 1.3 -4 0 -5.8 1 l -.3 -.2 -.3 .2 c -6.1 .9 -12.2 1 -18.2 0 h 0 c -3.9 -1.4 -8 .5 -11.9 -1 l -.4 -.2 -.4 .2 c -2.5 -1.2 -5.3 .4 -7.8 -1 Z"/>
        <path fill="#ffb78a" d="M 819.4 923.6 c -3.1 -5.5 -7.3 -10.1 -11.6 -14.6 -6.5 -6.9 -12.4 -14.3 -18.6 -21.4 -1.5 -1.8 -3 -3.5 -4.6 -5.2 -6.1 -6.5 -12.6 -12.6 -18.5 -19.3 -4.5 -5.1 -9.8 -9.4 -15 -13.6 -2.6 -2.1 -5.2 -4.4 -7.7 -6.6 -6.6 -5.7 -13.2 -11.5 -19.8 -17.2 -.9 -.8 -1.7 -1.8 -2.5 -2.7 -.3 -.3 -.4 -.6 -.2 -.8 .2 -.2 .3 -.3 .4 -.3 h 0 c .6 -.7 1.6 -.5 2.2 -1.1 h 0 c .5 -.7 1.6 -.5 2.2 -1.1 h 0 c .6 -.7 1.6 -.5 2.2 -1.1 h 0 c .6 -.7 1.6 -.5 2.2 -1.1 h 0 c .6 -.6 1.6 -.4 2.1 -1.1 h 0 c .6 -.6 1.6 -.4 2.1 -1.1 h 0 c .6 -.6 1.6 -.4 2.1 -1.1 h 0 c .4 -.4 .8 -.8 1.3 -1 .3 0 .6 0 .8 -.2 .4 -.4 .8 -.7 1.3 -.9 .3 0 .6 0 .9 -.2 .4 -.3 .8 -.6 1.1 -.9 h 0 c .5 -.7 1.6 -.5 2.2 -1.1 h 0 c .6 -.7 1.6 -.5 2.2 -1.1 h 0 c .6 -.7 1.6 -.5 2.2 -1.1 h 0 c .6 -.6 1.6 -.5 2.2 -1.1 h 0 c .6 -.6 1.6 -.4 2.1 -1.1 h 0 c .6 -.6 1.6 -.4 2.1 -1.1 h 0 c .4 -.4 .8 -.8 1.4 -1 .3 0 .6 0 .8 -.1 .4 -.4 .8 -.7 1.3 -.9 .3 0 .6 0 .8 -.2 .4 -.3 .8 -.6 1.1 -.9 h 0 c .5 -.7 1.6 -.5 2.2 -1.1 h 0 c .5 -.7 1.6 -.5 2.2 -1.1 h 0 c .6 -.7 1.6 -.5 2.2 -1.1 h 0 c .6 -.7 1.6 -.5 2.2 -1.1 h 0 c .6 -.6 1.6 -.4 2.2 -1.1 h 0 c .6 -.6 1.6 -.4 2.1 -1.1 h 0 c .6 -.6 1.6 -.4 2.1 -1.1 h 0 c .4 -.4 .8 -.8 1.4 -1 .3 0 .6 0 .8 -.2 .4 -.4 .8 -.7 1.3 -.9 .3 0 .6 0 .9 -.2 .4 -.3 .8 -.6 1.1 -.9 h 0 c .5 -.7 1.6 -.5 2.2 -1.1 h 0 c .6 -.7 1.6 -.5 2.2 -1.1 h 0 c .6 -.7 1.6 -.5 2.2 -1.1 h 0 c .6 -.7 1.6 -.5 2.2 -1.1 h 0 c .6 -.6 1.6 -.4 2.1 -1.1 h 0 c .6 -.6 1.6 -.4 2.1 -1.1 h 0 c .4 -.4 .8 -.8 1.4 -1 .3 0 .6 0 .8 -.1 .4 -.4 .8 -.7 1.3 -.9 .3 0 .6 0 .9 -.2 .4 -.3 .8 -.6 1.1 -.9 h 0 c .5 -.7 1.6 -.5 2.2 -1.1 h 0 c .5 -.7 1.6 -.5 2.2 -1.1 h 0 c .6 -.7 1.6 -.5 2.2 -1.1 h 0 c .6 -.7 1.6 -.5 2.2 -1.1 h 0 c .6 -.7 1.6 -.5 2.2 -1.1 h 0 c .6 -.7 1.6 -.5 2.3 -1 .3 0 .6 0 .9 -.1 .6 -.6 1.6 -.4 2.1 -1 h 0 c .6 -.6 1.6 -.5 2.3 -1 .3 0 .6 0 .9 -.1 .6 -.6 1.6 -.4 2.2 -1 h 0 c .9 -1 2.4 0 3.2 -1.1 h 0 c .6 -.6 1.6 -.5 2.2 -1 h 0 c .8 -1.1 2.4 -.1 3.2 -1.1 h 0 c .6 -.6 1.6 -.4 2.2 -1 h 0 c .6 -.7 1.6 -.5 2.3 -1 .3 0 .6 0 .9 -.1 .6 -.6 1.6 -.4 2.2 -1 h 0 c .8 -1 2.4 0 3.2 -1.1 h 0 c .6 -.6 1.6 -.4 2.2 -1.1 h 0 c .6 -.6 1.6 -.5 2.2 -1.1 h 0 c .6 -.6 1.6 -.5 2.2 -1 h 0 c .8 -1 2.4 -.1 3.2 -1.1 h 0 c .7 -.7 1.6 -.5 2.4 -1 .3 0 .6 0 .8 -.1 .6 -.6 1.6 -.4 2.2 -1 h 0 c .8 -1.1 2.4 -.1 3.2 -1.1 h 0 c .7 -.6 1.6 -.5 2.4 -1 .3 0 .6 0 .8 -.1 .9 -.9 2.4 0 3.2 -1.1 h 0 c .7 -.6 1.6 -.5 2.4 -1 .3 0 .6 0 .8 0 .6 -.4 1.1 -.3 1.6 .2 1.5 1.5 1.8 3.5 2.2 5.4 10 44.9 18.9 90.1 28.8 135 .3 1.2 .5 2.4 .2 3.7 -.3 1 -1.1 1.4 -1.9 1.7 h -.4 s -.4 .1 -.4 .1 c -.9 .9 -2.4 .1 -3.4 1 h -.5 s -.5 0 -.5 0 c -1 .9 -2.4 .1 -3.4 1 h -.5 s -.4 0 -.4 0 c -1 .9 -2.4 .2 -3.4 1 h -.5 s -.4 0 -.4 0 c -1 .9 -2.4 .1 -3.4 1 h -.5 s -.5 0 -.5 0 c -.9 .9 -2.4 0 -3.3 1 h -.5 s -.5 .1 -.5 .1 c -.9 .9 -2.3 0 -3.2 1 h 0 c -.9 .9 -2.4 .2 -3.4 1 h -.5 s -.5 .1 -.5 .1 c -.7 .6 -1.6 .4 -2.4 .9 h -.4 s -.4 0 -.4 0 c -.9 1 -2.4 0 -3.3 1 h 0 c -.9 1 -2.4 .1 -3.3 1.1 h 0 c -.9 1 -2.4 .2 -3.4 1.1 h -.5 s -.5 .1 -.5 .1 c -.7 .6 -1.6 .4 -2.3 .9 h -.5 s -.5 .1 -.5 .1 c -.7 .6 -1.6 .4 -2.3 1 -.3 0 -.6 0 -.9 .1 -.6 .6 -1.6 .4 -2.2 1 h 0 c -.8 1 -2.4 .1 -3.3 1.1 h 0 c -.9 1 -2.4 .1 -3.2 1.1 h 0 c -.9 1 -2.4 0 -3.2 1.1 h 0 c -.7 .6 -1.6 .5 -2.3 1 h -.5 s -.4 .1 -.4 .1 c -.6 .6 -1.6 .4 -2.2 1 h 0 c -.8 1 -2.4 .1 -3.2 1.1 h 0 c -.7 .7 -1.6 .5 -2.4 1 h -.4 s -.4 .1 -.4 .1 c -.6 .6 -1.6 .4 -2.2 1 h 0 c -.5 .7 -1.5 .4 -2.1 1.1 h 0 c -.2 0 -.4 0 -.7 0 Z"/>
        <path fill="#8989de" d="M 899.7 897.6 c -.7 -2.4 -1.6 -4.7 -2.1 -7.2 -4.7 -21.9 -9.4 -43.8 -13.9 -65.8 -4.5 -21.8 -8.9 -43.6 -13.9 -65.3 -.5 -2.1 -.8 -4.2 -1.2 -6.3 .3 -.5 .7 -.8 1.3 -.9 2.8 -.2 4.7 1.7 6.7 3.1 29.6 20.3 59 41.2 88.6 61.5 3.3 2.2 4.5 5.3 5.3 8.9 4.9 21.7 19.2 33.7 40.4 37.9 14.1 2.7 27.6 -.2 39.7 -7.6 11.1 -6.9 15.6 -18.2 16.1 -30.6 .8 -19.4 -7.1 -34.4 -24.2 -44.6 -27 -16.1 -54.3 -32 -80.8 -48.9 -1.9 -1.2 -4.4 -1.9 -4.6 -4.8 .8 -2.5 3.1 -2.7 5.1 -3.1 12.4 -2.5 24.9 -3 37.4 -.2 2.5 .5 4.7 2 7.2 2.6 .8 .3 1.7 .1 2.3 .9 h 0 c .6 .5 1.6 .3 2.2 1.1 h 0 c .6 .5 1.7 .3 2.2 1.1 h 0 c .6 .5 1.6 .4 2.2 1 h 0 c .6 .6 1.6 .4 2.2 1 h 0 c .6 .6 1.6 .4 2.2 1.1 h 0 c .6 .6 1.6 .4 2.1 1.1 h 0 c 1.7 1.2 3.8 1.9 5.4 3.2 h 0 c .6 .6 1.6 .4 2.2 1.1 h 0 c 1.1 .7 2.3 1.3 3.3 2.1 h 0 c 1.1 .7 2.3 1.3 3.3 2.2 h 0 c .4 .2 .8 .6 1.2 1 h 0 c .9 .9 2.3 1.3 3.1 2.3 h 0 c .5 .2 .8 .6 1.2 1 h 0 c .4 .2 .8 .6 1.2 1 h 0 c 1 .9 2.3 1.3 3.1 2.3 h 0 c .5 .2 .8 .6 1.2 1 h 0 c .4 .3 .8 .6 1.1 1 h 0 c 1 .8 2.3 1.2 3.2 2.3 h 0 c .5 .2 .9 .5 1.2 1 h 0 c .5 .2 .8 .6 1.2 1 h 0 c .5 .2 .8 .6 1.1 1.1 h 0 c .4 .3 .8 .6 1.1 1.1 h 0 c .4 .3 .8 .6 1.1 1 h 0 c .4 .3 .7 .7 1.1 1 h 0 c .3 .4 .7 .7 1.1 1 h 0 c 1.4 1.1 2.9 2.2 4.2 3.4 h 0 c .5 .2 .9 .6 1.2 1 h 0 c .5 .2 .8 .6 1.1 1 h 0 c .4 .3 .8 .7 1.1 1.1 h 0 c .4 .3 .8 .7 1.1 1.1 h 0 c .4 .3 .8 .7 1.1 1.1 h 0 c .4 .3 .8 .7 1.1 1.1 h 0 c .4 .3 .8 .7 1.1 1.1 h 0 c .4 .3 .8 .6 1.1 1.1 h 0 c .5 .2 .9 .6 1.1 1.1 h 0 c 1 .8 1.4 2.1 2.3 3.1 h 0 c .3 .4 .7 .8 1 1.1 h 0 c .4 .3 .8 .7 1.1 1.1 h 0 c .4 .3 .8 .6 1.1 1.1 h 0 c .5 .2 .8 .6 1.1 1.1 h 0 c .5 .2 .9 .6 1.1 1.1 h 0 c .4 .4 .8 .8 1.1 1.3 10.7 9.7 15.7 32.6 9.7 44.7 -1.9 3.7 -2.7 7.9 -5.1 11.4 -.9 2.9 -2.2 5.6 -3.4 8.4 -4.9 7.8 -9.7 15.8 -18.4 20.1 -.6 .3 -1.4 .6 -2 1 h 0 c -.5 .7 -1.6 .5 -2.1 1.1 h 0 c -.4 .4 -.7 .8 -1.2 1 h 0 c -.5 .7 -1.5 .5 -2.2 1.1 h 0 c -.5 .7 -1.5 .5 -2.2 1.1 h 0 c -.5 .7 -1.6 .5 -2.2 1.1 h 0 c -.6 .7 -1.6 .5 -2.2 1.1 h 0 c -.6 .7 -1.6 .5 -2.2 1.1 h 0 c -.8 1.1 -2.4 .1 -3.2 1.2 h 0 c -.6 .6 -1.6 .5 -2.2 1 h 0 c -1.6 1.4 -3.8 -.2 -5.4 1.1 h 0 c -1.2 1.2 -3.1 0 -4.4 1.1 h 0 c -2 1.5 -4.5 -.2 -6.5 1.1 h 0 c -1.6 1.4 -3.8 -.2 -5.4 1.1 h 0 c -3.1 1.6 -6.7 -.3 -9.8 1.1 h -.4 c 0 0 -.4 0 -.4 0 -4.3 1.6 -8.8 -.4 -13.1 1 h -.4 c 0 -.1 -.4 0 -.4 0 -4.5 1.3 -9.2 .3 -13.8 .6 -1.9 .1 -3.9 -.4 -5.8 .5 h -.4 c 0 -.1 -.4 0 -.4 0 -4.3 1.6 -8.8 -.4 -13.1 1.1 h -.4 c 0 0 -.4 0 -.4 0 -4.3 1.6 -8.8 -.4 -13.1 1 h -.4 c 0 0 -.4 0 -.4 0 -2 1.5 -4.5 -.2 -6.5 1.1 h 0 c -1.6 1.4 -3.8 -.2 -5.4 1.1 h 0 c -1.7 1.3 -3.8 -.1 -5.5 1 h -.5 c 0 0 -.4 0 -.4 0 -2 1.3 -4.5 -.3 -6.5 1 h 0 c -2.1 1.4 -4.6 -.2 -6.7 1 h -.4 c 0 0 -.4 0 -.4 0 -1.3 1.2 -3.1 0 -4.4 1.1 h 0 c -1.3 1.2 -3.2 0 -4.5 1.1 h -.4 s -.4 .1 -.4 .1 c -1.7 1.2 -3.8 -.2 -5.4 1 h 0 c -.4 .5 -.7 .4 -.9 -.2 Z"/>
        <path fill="#ffb78a" d="M 316.2 562.6 c -.6 .6 -1.4 1.1 -1.8 1.9 -2.8 5.1 -5.6 10.3 -8.1 15.6 -4.2 9 -8.8 17.9 -13.2 26.8 -1.3 2.7 -2.7 5.4 -2.8 8.5 -.8 1 -2.2 .2 -3.1 1 h 0 c -5 1 -10 .9 -15 0 -2.4 0 -4.9 0 -7.3 0 -3.9 -1.4 -8.1 .5 -12 -1.1 h 0 c -2 -1.4 -4.5 .4 -6.5 -1.1 h 0 c -.9 -.9 -2.4 0 -3.3 -1.1 h 0 c -.6 -.5 -1.6 -.4 -2.2 -1 h 0 c -.6 -.6 -1.6 -.4 -2.2 -1.1 h 0 c -.6 -.6 -1.6 -.4 -2.2 -1.1 h 0 c -1.1 -.7 -2.3 -1.3 -3.3 -2.2 h 0 c -.4 -.2 -.8 -.6 -1.1 -1 h 0 c -2.2 -1.4 -4 -3.2 -5.4 -5.4 h 0 c -.4 -.3 -.8 -.7 -1.1 -1.1 h 0 c -.9 -.9 -1.5 -2.1 -2.2 -3.2 h 0 c -.7 -.5 -.5 -1.5 -1.1 -2.1 h 0 c -.7 -.5 -.5 -1.5 -1.1 -2.1 h 0 c -1.5 -1.9 -2.2 -4.3 -3.3 -6.4 h 0 c -1.2 -1.7 -2 -3.7 -3.1 -5.5 h 0 c -.8 -.5 -.6 -1.5 -1.1 -2.1 h 0 c -.7 -.5 -.6 -1.5 -1.1 -2.1 h 0 c -.7 -.5 -.6 -1.5 -1.1 -2.1 h 0 c -.7 -.5 -.6 -1.5 -1.1 -2.1 h 0 c -.7 -.5 -.6 -1.5 -1.1 -2.1 h 0 c -.7 -.5 -.6 -1.5 -1.1 -2.1 h 0 c -.7 -.5 -.6 -1.5 -1.1 -2.1 h 0 c -.7 -.5 -.6 -1.5 -1.1 -2.1 h 0 c -.7 -.5 -.6 -1.5 -1.1 -2.2 h 0 c -1.2 -2.4 -2.2 -5 -3.3 -7.5 h 0 c -.6 -.6 -.5 -1.6 -1.1 -2.2 h 0 c -.7 -.6 -.5 -1.5 -1.1 -2.2 h 0 c -.7 -.5 -.5 -1.5 -1.1 -2.2 h 0 c -.7 -.5 -.5 -1.5 -1.1 -2.1 h 0 c -.7 -.5 -.5 -1.5 -1.1 -2.1 h 0 c -.7 -.5 -.5 -1.5 -1.1 -2.1 h 0 c -1.3 -1.6 -2 -3.7 -3.2 -5.4 h 0 c -.7 -.5 -.6 -1.5 -1.1 -2.1 h 0 c -.7 -.5 -.5 -1.5 -1.1 -2.1 h 0 c -.7 -.5 -.5 -1.5 -1.1 -2.1 h 0 c -.7 -.5 -.5 -1.5 -1.1 -2.1 h 0 c -.7 -.5 -.5 -1.5 -1.1 -2.1 h 0 c -.6 -.6 -.5 -1.6 -1.1 -2.1 h 0 c -1.2 -1.2 -1.4 -2.9 -2.1 -4.3 h 0 c -.6 -.6 -.5 -1.6 -1.1 -2.2 h 0 c -.7 -.6 -.5 -1.5 -1.1 -2.2 h 0 c -1.1 -.8 -.2 -2.3 -1.1 -3.2 h 0 c -1.5 -2 .2 -4.5 -1.1 -6.5 0 -1 0 -1.9 0 -2.9 1.3 -2 -.4 -4.6 1.1 -6.6 h 0 c .9 -.8 0 -2.4 1.1 -3.2 h 0 c .5 -.6 .4 -1.6 1.1 -2.1 h 0 c .3 -.4 .7 -.7 1 -1.1 h 0 c .7 -.6 .4 -1.6 1.2 -2.1 h 0 c .3 -.4 .7 -.8 1.1 -1.1 h 0 c .3 -.4 .7 -.8 1.1 -1.1 h 0 c .3 -.4 .7 -.8 1.1 -1.1 h 0 c .3 -.4 .7 -.8 1.1 -1.1 h 0 c .5 -.7 1.6 -.5 2.1 -1.1 h 0 c .4 -.3 .7 -.7 1.2 -1 h 0 c .5 -.7 1.5 -.5 2.2 -1 h 0 c 6 -2.3 12.1 -2.1 18.2 -1.1 h 0 c 1.4 .7 3.2 .9 4.3 2.2 h 0 c .4 .3 .8 .6 1.1 1 h 0 c .4 .3 .7 .7 1.1 1 h 0 c .9 .9 2.2 1.3 3.1 2.3 h 0 c .5 .2 .8 .6 1.1 1 h 0 c .4 .3 .8 .7 1.1 1 h 0 c 1 .8 2.3 1.3 3.2 2.3 h 0 c .5 .2 .8 .6 1.1 1 h 0 c .4 .2 .8 .6 1.1 1 h 0 c .4 .3 .8 .7 1.1 1 1 .9 2.3 1.3 3.2 2.3 h 0 c .5 .2 .8 .6 1.1 1 h 0 c .4 .3 .8 .6 1.1 1 h 0 c .4 .3 .7 .7 1.1 1 h 0 c 1 .9 2.2 1.3 3.2 2.3 h 0 c .5 .2 .8 .6 1.1 1 h 0 c .4 .3 .8 .6 1.1 1 h 0 c .4 .3 .7 .7 1.1 1 h 0 c .9 .9 2.2 1.3 3.1 2.3 h 0 c .5 .2 .8 .6 1.1 1 h 0 c .4 .3 .8 .7 1.1 1 h 0 c 1 .8 2.3 1.3 3.2 2.2 h 0 c .5 .2 .8 .6 1.1 1 h 0 c .4 .2 .8 .6 1.1 1 h 0 c .4 .3 .8 .7 1.1 1 h 0 c 1 .9 2.3 1.3 3.2 2.3 h 0 c .5 .2 .8 .6 1.1 1 h 0 c .4 .3 .8 .6 1.1 1 h 0 c .4 .3 .7 .7 1.1 1 h 0 c 1 .9 2.3 1.3 3.2 2.3 h 0 c .5 .2 .8 .6 1.1 1 h 0 c .4 .3 .8 .6 1.1 1 h 0 c .4 .3 .7 .7 1.1 1 h 0 c .9 .9 2.2 1.3 3.1 2.3 h 0 c .5 .2 .8 .6 1.1 1 h 0 c .4 .3 .8 .7 1.1 1 h 0 c 1.5 1 2.9 2.2 4.3 3.3 h 0 c .4 .2 .8 .6 1.1 1 h 0 c .4 .3 .8 .7 1.1 1 h 0 c .4 .3 .7 .7 1.1 1 h 0 c .9 .9 2.2 1.3 3.1 2.3 h 0 c .4 .2 .8 .6 1.1 1 h 0 c .4 .3 .8 .7 1.1 1 h 0 c 1 .8 2.3 1.3 3.2 2.3 h 0 c .5 .2 .8 .6 1.1 1 h 0 c .4 .3 .8 .6 1.1 1 h 0 c .4 .3 .7 .7 1.1 1 h 0 c 1 .9 2.2 1.3 3.2 2.3 h 0 c .5 .2 .8 .6 1.1 1 h 0 c .4 .3 .8 .6 1.1 1 h 0 c .4 .3 .7 .7 1.1 1 h 0 c .9 .9 2.2 1.3 3.1 2.3 h 0 c .5 .2 .8 .6 1.1 1 h 0 c .4 .3 .8 .6 1.1 1.1 h 0 c .5 .3 .8 .6 1.1 1.1 h 0 c .5 .2 .8 .6 1.1 1.1 h 0 c .4 .3 .8 .6 1.1 1 h 0 c .4 .3 .7 .7 1.1 1 h 0 c .5 .7 1.6 .4 2.1 1.2 h 0 c .5 .2 .8 .6 1.1 1 h 0 c .4 .2 .8 .6 1.1 1 h 0 c .6 .6 1.6 .4 2.1 1.1 h 0 c .4 .2 .5 .4 .4 .6 -.1 .2 -.3 .3 -.4 .3 Z"/>
        <path fill="#ffb78a" d="M 1090.6 829.1 c .1 -2.3 .2 -4.6 .7 -6.9 .4 -1.7 .6 -3.6 .3 -5.3 -.7 -5.5 -.9 -11 -2.4 -16.3 -1.1 -4.1 -3.6 -7.4 -5.5 -10.9 -1 -1.9 -2.3 -3.6 -3.5 -5.4 .2 -.5 .4 -.6 .8 -.2 1 0 2.1 0 3.1 0 3.2 1.4 6.6 -.4 9.8 1 .7 0 1.3 0 2 0 3.5 1.4 7.4 -.4 10.9 1 .3 0 .6 0 1 0 2.4 1.4 5.2 -.3 7.6 1 .3 .1 .6 .1 1 0 4.2 1.4 8.8 -.4 13 1 h 2 c 6.5 .9 13.1 .8 19.6 0 1.4 0 2.8 0 4.1 0 2.1 -1.3 4.6 .2 6.6 -1 .3 0 .6 0 .9 0 2.4 -1.4 5.2 .3 7.7 -1.1 .3 0 .6 0 .9 0 2.4 -1.4 5.2 .3 7.6 -1.1 h 0 c 2 -1.4 4.6 .2 6.6 -1 .3 0 .6 0 .9 0 4.3 -1 8.6 -.8 12.9 0 .3 .1 .6 .2 .9 .1 .7 .5 1.7 .3 2.3 1.1 h 0 c .4 .2 .8 .6 1.2 1 h 0 c .3 .4 .7 .7 1.1 1 h 0 c .3 .4 .7 .8 1 1.1 h 0 c .4 .4 .8 .7 1 1.1 h 0 c .7 .5 .5 1.5 1.1 2.1 h 0 c .7 .6 .5 1.6 1.1 2.3 0 .3 0 .6 .1 .9 .9 .9 0 2.4 1 3.2 h 0 c .9 1 .2 2.4 1 3.4 0 .3 0 .6 0 .9 1.2 1.2 0 3.1 1.1 4.3 h 0 c 1 .9 .2 2.4 1 3.4 0 .3 0 .6 .2 .9 .3 .4 .6 .7 1 1 h 0 c .8 1.1 2.3 .1 3.1 1.2 h 0 c .9 .9 2.4 0 3.3 1.1 h 0 c .6 .5 1.6 .4 2.2 1 h 0 c .8 1 2.4 0 3.2 1.1 h 0 c .6 .5 1.6 .4 2.2 1 h 0 c .8 1 2.4 0 3.2 1.1 h 0 c .6 .5 1.6 .3 2.2 1.1 h 0 c .6 .5 1.6 .3 2.2 1.1 h 0 c .8 .4 .5 1.5 1.2 2 .7 1.1 .8 2.2 0 3.2 h 0 c -.9 .9 0 2.4 -1.1 3.2 h 0 c -.6 .6 -.4 1.6 -1 2.2 -.1 .3 -.2 .5 -.1 .8 -.5 .7 -.3 1.7 -1 2.4 h 0 c -.6 .6 -.4 1.5 -1 2.1 -.1 .3 -.2 .6 -.1 .9 -.5 .7 -.4 1.7 -1 2.3 h 0 c -1 .8 0 2.4 -1.1 3.2 h 0 c -.6 .6 -.4 1.6 -1 2.2 h 0 c -1 .8 0 2.4 -1.1 3.2 h 0 c -.6 .6 -.4 1.5 -1 2.1 -.1 .3 -.2 .6 -.1 .9 -.5 .7 -.4 1.7 -1 2.4 h 0 c -1 .8 0 2.4 -1.1 3.2 h 0 c -.6 .6 -.4 1.6 -1.1 2.2 h 0 c -.9 2.9 -.8 5.8 0 8.8 0 .7 0 1.3 0 2 1.4 2.8 -.3 5.9 1 8.7 0 .3 0 .6 0 .9 1.4 3.2 -.3 6.7 1 9.9 0 .3 0 .6 .1 .9 .3 .3 .4 .6 .2 .8 -.1 .2 -.3 .3 -.4 .3 -3.4 -1.4 -7 -1.3 -10.5 -1.9 -9 -1.4 -18 -2.5 -27.1 -3.7 -2.8 -.4 -5.7 -.8 -8.5 -1.1 -1.8 -.2 -2.8 -1.1 -3.7 -2.6 -5.7 -9.7 -11.4 -19.4 -17.3 -29 -4.1 -6.7 -2.5 -6.4 -11.5 -5.6 -8.7 .8 -17.4 2.1 -26 3.5 -3.5 .6 -5.9 -.4 -7.9 -3.1 -2.6 -3.4 -5.1 -6.9 -7.7 -10.3 -1.7 -2.3 -3.5 -4.5 -5.2 -6.8 -1.4 -1.9 -3.4 -2.4 -5.6 -2.9 -1.7 -.4 -3.2 -.1 -4.5 1.1 Z"/>
        <path fill="#623307" d="M 1116.3 978.2 c -.4 0 -.8 .1 -1.1 .2 -5.7 -1.4 -10.3 -4.5 -14.9 -8 -10.6 -8.3 -17.2 -19.4 -21.8 -31.7 -1.2 -3.3 -1.9 -6.9 -2.7 -10.3 -.3 -1.4 0 -2.8 0 -4.3 0 -.7 1 -1.2 1.6 -.9 2.7 1.4 5 3.2 5.9 6.5 1.3 4.8 3.2 9.5 6 13.6 4 5.9 8.1 11.7 13.4 16.6 1.2 1.1 2.7 1.8 4.1 2.5 3.5 1.8 7 3.5 10.6 5.3 2.3 1.1 3.6 2.8 3.5 5.5 -.4 .7 -.9 1.3 -1.3 2 -.6 0 -1 .4 -1.2 1 -.6 .1 -.9 .5 -1 1.1 -.6 .1 -1 .5 -1.1 1 Z"/>
        <path fill="#ffb78a" d="M 678.3 538.1 c .4 -.4 .7 -.7 1.1 -1.1 .4 -.4 .7 -.7 1.1 -1.1 .4 -.4 .7 -.7 1.1 -1.1 1.2 -2.5 3.2 -4.3 5.1 -6.2 4.3 -4.2 8 -4.8 13 -1.5 15.7 10.6 31.1 21.7 46.6 32.6 4.1 2.9 6.5 7.6 10.2 11 11.6 10.7 24.1 20.3 36.1 30.4 30.2 25.2 60.7 50.1 90.9 75.3 3.9 3.2 8.1 5.9 12.3 8.6 18.8 12.4 37.5 25 56.3 37.5 2.3 1.5 4.3 3.1 5.6 5.5 5.8 3.5 11.6 7.1 17.4 10.6 15.3 9.2 30.6 18.4 46 27.6 8.7 5.3 17.5 10.4 26.2 15.8 9.1 5.6 14.9 13.9 18.3 23.8 2.1 6 3.4 12.3 2.9 18.9 -.7 10.2 -4.4 19.1 -10.5 27.1 -2.4 3.2 -6 5.1 -9.5 6.9 -10.8 5.5 -22.2 7.9 -34.3 6.7 -10 -1 -19.1 -4.6 -27.1 -10.7 -9.4 -7.1 -15.1 -16.5 -17.7 -27.9 -1.5 -6.7 -1.6 -6.7 -7 -10.5 -18.8 -13.1 -37.5 -26.2 -56.3 -39.2 -10.7 -7.5 -21.5 -14.9 -32.2 -22.3 -1.3 -.9 -2.5 -2.1 -4.2 -2.3 -.5 -1 -1.2 -1.7 -2.2 -2 -.4 -.8 -1.2 -1.1 -2 -1.3 -.4 -.3 -.8 -.6 -1.2 -.9 -.4 -.3 -.8 -.7 -1.1 -1 -.5 -.8 -1.2 -1.1 -2.1 -1.2 -.4 -.3 -.8 -.6 -1.2 -1 -.4 -.8 -1.2 -1.1 -2 -1.2 -.4 -.3 -.8 -.6 -1.2 -.9 -.4 -.8 -1.2 -1.1 -2 -1.3 -.4 -.3 -.8 -.6 -1.2 -.9 -.4 -.8 -1.2 -1.1 -2 -1.3 -.4 -.3 -.8 -.6 -1.2 -.9 -.4 -.3 -.8 -.7 -1.2 -1 -.4 -.8 -1.2 -1.1 -2 -1.2 -.4 -.3 -.8 -.7 -1.2 -1 -.4 -.4 -.7 -.7 -1.1 -1.1 -.3 -.4 -.7 -.7 -1 -1.1 -.3 -.4 -.7 -.8 -1 -1.1 -.3 -.4 -.7 -.8 -1 -1.1 -1.3 -3.3 -4 -5.2 -6.6 -7.4 -.4 -.4 -.7 -.7 -1.1 -1.1 -.4 -.4 -.7 -.7 -1.1 -1.1 -.4 -.4 -.7 -.7 -1.1 -1.1 -.4 -.4 -.7 -.7 -1.1 -1.1 -.4 -.4 -.7 -.7 -1.1 -1.1 -.4 -.4 -.7 -.7 -1.1 -1.1 -.4 -.4 -.7 -.7 -1.1 -1.1 -.4 -.4 -.7 -.7 -1.1 -1.1 -.4 -.4 -.7 -.7 -1.1 -1.1 -.4 -.4 -.7 -.7 -1.1 -1.1 -.4 -.4 -.7 -.7 -1.1 -1.1 -.4 -.4 -.7 -.7 -1.1 -1.1 -.4 -.4 -.7 -.7 -1.1 -1.1 -.4 -.4 -.7 -.7 -1.1 -1.1 -.4 -.4 -.7 -.7 -1.1 -1.1 -.4 -.4 -.7 -.7 -1.1 -1.1 -.4 -.4 -.7 -.7 -1.1 -1.1 -.4 -.4 -.7 -.7 -1.1 -1.1 -.4 -.4 -.7 -.7 -1.1 -1.1 -.4 -.4 -.7 -.7 -1.1 -1.1 -.4 -.4 -.7 -.7 -1.1 -1.1 -.3 -.4 -.7 -.7 -1 -1.1 -2.1 -3.9 -5.6 -6.6 -8.8 -9.5 -.4 -.4 -.7 -.7 -1.1 -1.1 -.4 -.4 -.7 -.7 -1.1 -1.1 -.4 -.4 -.7 -.7 -1.1 -1.1 -.4 -.4 -.7 -.7 -1.1 -1.1 -.4 -.4 -.7 -.7 -1.1 -1.1 -.4 -.4 -.7 -.7 -1.1 -1.1 -.4 -.4 -.7 -.7 -1.1 -1.1 -.4 -.4 -.7 -.7 -1.1 -1.1 -.4 -.4 -.7 -.7 -1.1 -1.1 -.4 -.4 -.7 -.7 -1.1 -1.1 -.4 -.4 -.7 -.7 -1.1 -1.1 -.4 -.4 -.7 -.7 -1.1 -1.1 -.4 -.4 -.7 -.7 -1.1 -1.1 -.4 -.4 -.7 -.7 -1.1 -1.1 -.4 -.4 -.7 -.7 -1.1 -1.1 -.4 -.4 -.7 -.7 -1.1 -1.1 -.4 -.4 -.7 -.7 -1.1 -1.1 -.4 -.4 -.7 -.7 -1.1 -1.1 -.4 -.4 -.7 -.7 -1.1 -1.1 -.4 -.4 -.7 -.7 -1.1 -1.1 -.4 -.4 -.7 -.7 -1.1 -1.1 -.3 -.4 -.7 -.7 -1 -1.1 -.3 -1.2 -1.1 -2.2 -2 -3 -2.7 -2.5 -4.9 -5.4 -7.9 -7.5 -.4 -.4 -.7 -.7 -1.1 -1.1 -.4 -.4 -.7 -.7 -1.1 -1.1 -.4 -.4 -.7 -.7 -1.1 -1.1 -.4 -.4 -.7 -.7 -1.1 -1.1 -.4 -.4 -.7 -.7 -1.1 -1.1 -.4 -.4 -.7 -.7 -1.1 -1.1 -.4 -.4 -.7 -.7 -1.1 -1.1 -.4 -.4 -.7 -.7 -1.1 -1.1 -.4 -.4 -.7 -.7 -1.1 -1.1 -.4 -.4 -.7 -.7 -1.1 -1.1 -.4 -.4 -.7 -.7 -1.1 -1.1 -.4 -.4 -.7 -.7 -1.1 -1.1 -.4 -.4 -.7 -.7 -1.1 -1.1 -.4 -.4 -.7 -.7 -1.1 -1.1 -.4 -.4 -.7 -.7 -1.1 -1.1 -.4 -.4 -.7 -.7 -1.1 -1.1 -.4 -.4 -.7 -.7 -1.1 -1.1 -.4 -.4 -.7 -.7 -1.1 -1.1 -.4 -.4 -.7 -.7 -1.1 -1.1 -.4 -.4 -.7 -.7 -1.1 -1.1 -.4 -.4 -.7 -.7 -1.1 -1.1 -.4 -.4 -.7 -.7 -1.1 -1.1 -.3 -.4 -.7 -.7 -1 -1.1 -2.1 -3.9 -5.6 -6.6 -8.8 -9.5 l -1.1 -1.1 c -.4 -.4 -.7 -.7 -1.1 -1.1 -.4 -.4 -.7 -.7 -1.1 -1.1 -.4 -.4 -.7 -.7 -1.1 -1.1 -.4 -.4 -.7 -.7 -1.1 -1.1 -.4 -.4 -.7 -.7 -1.1 -1.1 -.4 -.4 -.7 -.7 -1.1 -1.1 -.4 -.4 -.7 -.7 -1.1 -1.1 -.4 -.4 -.7 -.7 -1.1 -1.1 -.4 -.4 -.7 -.7 -1.1 -1.1 -.4 -.4 -.7 -.7 -1.1 -1.1 -.4 -.4 -.7 -.7 -1.1 -1.1 -.4 -.4 -.7 -.7 -1.1 -1.1 -.4 -.4 -.7 -.7 -1.1 -1.1 -.4 -.4 -.7 -.7 -1.1 -1.1 -.4 -.4 -.7 -.7 -1.1 -1.1 -.4 -.4 -.7 -.7 -1.1 -1.1 -.4 -.4 -.7 -.7 -1.1 -1.1 -.4 -.4 -.7 -.7 -1.1 -1.1 -.4 -.4 -.7 -.7 -1.1 -1.1 -.4 -.4 -.7 -.7 -1.1 -1.1 -.3 -.4 -.7 -.7 -1 -1.1 -.5 -1.7 -1.5 -2.8 -3.3 -3.2 -.4 -.3 -.8 -.7 -1.1 -1 -.4 -.4 -.7 -.7 -1.1 -1.1 -.3 -.4 -.7 -.7 -1 -1.1 -.3 -.4 -.7 -.7 -1 -1.1 -.3 -1.4 -1.1 -2.4 -2.4 -3 -.4 -.4 -.7 -.7 -1.1 -1.1 -.3 -.4 -.7 -.7 -1 -1.1 -.3 -.4 -.7 -.8 -1 -1.1 -.3 -.4 -.7 -.8 -1 -1.1 -.3 -.4 -.7 -.8 -1 -1.1 -.3 -1.4 -1.1 -2.4 -2.4 -3 -.3 -.4 -.7 -.7 -1 -1.1 -.3 -.4 -.7 -.8 -1 -1.2 -.3 -1.4 -1 -2.5 -2.3 -3.1 -.3 -.4 -.7 -.8 -1 -1.1 -.3 -.4 -.6 -.8 -1 -1.2 -.3 -1.4 -1 -2.5 -2.3 -3.1 -.3 -.4 -.6 -.8 -1 -1.2 -.3 -1.4 -1 -2.5 -2.3 -3.1 -.3 -.4 -.6 -.8 -.9 -1.2 -.1 -.8 -.4 -1.6 -1.2 -2 -.3 -.4 -.6 -.8 -.9 -1.2 -.1 -.9 -.4 -1.6 -1.2 -2 -.3 -.4 -.6 -.8 -1 -1.2 -.1 -.9 -.4 -1.6 -1.2 -2.1 -.3 -.4 -.6 -.8 -.9 -1.2 -.1 -.8 -.4 -1.6 -1.1 -2.1 -.2 -1.1 -.2 -2.3 -1.3 -3.1 0 -1.8 0 -3.5 .1 -5.3 .3 -.4 .7 -.7 1 -1.1 .3 -.4 .7 -.8 1 -1.1 .3 -.4 .7 -.7 1 -1.1 .4 -.4 .7 -.7 1.1 -1.1 Z"/>
        <path fill="#e6a37b" d="M 957.6 728.1 c -18.7 -12.5 -37.3 -25 -56 -37.5 -5.3 -3.6 -10.7 -7 -16 -10.7 -2.9 -2 -5.6 -4.4 -8.3 -6.7 -5.9 -4.8 -11.8 -9.7 -17.7 -14.6 -4.7 -3.9 -9.2 -7.8 -13.9 -11.7 -7.5 -6.1 -14.6 -12.5 -22.3 -18.2 -3.1 -2.3 -5.9 -5.1 -8.9 -7.6 -3.3 -2.7 -6.6 -5.4 -9.9 -8.1 -2.6 -2.1 -5.1 -4.4 -7.8 -6.5 -6 -4.7 -11.9 -9.6 -17.8 -14.5 -4.9 -4.1 -9.6 -8.5 -14.7 -12.4 -3.7 -2.8 -7.1 -6 -10.3 -9.4 -2.1 -2.2 -3.9 -4.6 -5.9 -6.9 -1.6 -1.7 -3.4 -3.1 -5.3 -4.4 -9.8 -6.8 -19.5 -13.7 -29.3 -20.6 -5 -3.5 -9.9 -7 -14.9 -10.4 -3.8 -2.5 -6.8 -2.2 -10.3 .8 -1.1 .9 -2 2 -3.1 3 -1.2 1.1 -2.1 2.4 -3.6 3.1 0 -1 .1 -2 .2 -3 .3 -.4 .7 -.8 1 -1.1 1.5 -1.1 2.7 -2.4 3.3 -4.2 .3 -.4 .7 -.7 1 -1.1 .3 -.4 .7 -.7 1 -1.1 .3 -.4 .7 -.7 1 -1.1 .3 -.4 .7 -.7 1 -1.1 .6 -.2 .9 -.5 1 -1.1 1.8 -1.7 3.7 -3.5 5.5 -5.2 2.4 -.4 4.9 -.3 7.3 0 .5 .7 1.2 1 2.1 1.1 .4 .3 .8 .6 1.2 .9 .4 .8 1.2 1.1 2 1.2 .8 1.2 1.8 1.9 3.2 2.1 .8 1.2 1.8 1.9 3.3 2.1 .4 .8 1.2 1.1 2 1.3 .4 .3 .8 .6 1.3 .9 .4 .8 1.2 1.1 2 1.3 .4 .3 .8 .6 1.2 .9 .4 .8 1.2 1.1 2 1.2 .4 .3 .8 .6 1.2 .9 .4 .8 1.2 1.1 2 1.2 .8 1.2 1.9 1.9 3.3 2.1 .8 1.2 1.8 1.9 3.2 2.1 .8 1.2 1.8 1.9 3.3 2.1 .4 .8 1.2 1.1 2 1.3 .4 .3 .8 .6 1.3 .9 .4 .8 1.2 1.1 2 1.3 .4 .3 .8 .6 1.3 .9 .4 .8 1.2 1.1 2 1.3 .4 .3 .8 .6 1.2 .9 .4 .8 1.2 1.1 2 1.2 .4 .3 .8 .6 1.2 .9 .4 .8 1.2 1.1 2 1.3 .4 .3 .8 .6 1.2 .9 .8 1.4 1.9 2.4 3.3 3.2 .3 .4 .7 .8 1 1.1 .3 .4 .7 .8 1 1.2 .3 .4 .7 .8 1 1.1 .4 .4 .7 .7 1.1 1.1 .4 .4 .7 .7 1.1 1 .4 .3 .8 .7 1.1 1 .4 .3 .8 .7 1.1 1 .4 .3 .8 .7 1.1 1 .4 .3 .7 .7 1.1 1 .7 1.2 1.7 2 3 2.4 .4 .3 .8 .6 1.2 .9 .4 .3 .8 .6 1.2 1 .7 1.3 1.7 2 3.1 2.3 .4 .3 .8 .6 1.2 .9 .7 1.3 1.7 2 3.1 2.3 .4 .3 .8 .6 1.2 .9 .4 .3 .8 .7 1.2 1 .4 .8 1.1 1.1 1.9 1.3 .4 .3 .8 .6 1.2 .9 .4 .3 .8 .6 1.2 1 .7 1.3 1.7 2 3.1 2.3 .4 .3 .8 .6 1.2 .9 .7 1.3 1.7 2 3.1 2.3 .4 .3 .8 .6 1.2 .9 .7 1.3 1.7 2 3.1 2.3 .4 .3 .8 .6 1.2 .9 .4 .3 .8 .7 1.2 1 .4 .8 1.1 1.1 1.9 1.3 .4 .3 .8 .6 1.2 .9 .4 .3 .8 .6 1.2 1 .7 1.3 1.7 2 3.1 2.3 .4 .3 .8 .6 1.2 .9 .7 1.3 1.7 2 3.1 2.3 .4 .3 .8 .6 1.2 .9 .4 .3 .8 .7 1.2 1 .4 .8 1.1 1.1 1.9 1.4 .4 .3 .8 .6 1.2 .9 .4 .3 .8 .6 1.2 1 .7 1.3 1.7 2 3.1 2.3 .4 .3 .8 .6 1.2 .9 .7 1.3 1.7 2 3.1 2.3 .4 .3 .8 .6 1.2 .9 .4 .3 .8 .7 1.2 1 .4 .8 1.1 1.1 1.9 1.3 .4 .3 .8 .6 1.2 .9 .4 .3 .8 .6 1.2 1 .7 1.3 1.7 2 3.1 2.3 .4 .3 .8 .6 1.2 .9 .7 1.3 1.7 2 3.1 2.3 .4 .3 .8 .6 1.2 .9 .7 1.2 1.7 2 3.1 2.3 .4 .3 .8 .6 1.2 .9 .4 .3 .8 .6 1.2 1 .7 1.3 1.7 2 3.1 2.3 .4 .3 .8 .6 1.2 .9 .7 1.3 1.7 2 3.1 2.3 .4 .3 .8 .6 1.2 .9 .7 1.3 1.7 2 3.1 2.3 .4 .3 .8 .6 1.2 .9 .4 .3 .8 .7 1.2 1 .4 .8 1.1 1.1 1.9 1.3 .4 .3 .8 .6 1.2 .9 .4 .3 .8 .6 1.2 1 .7 1.3 1.7 2 3.1 2.3 .4 .3 .8 .6 1.2 .9 .7 1.3 1.7 2 3.1 2.3 .4 .3 .8 .6 1.2 .9 .4 .3 .8 .7 1.2 1 .4 .8 1.1 1.1 1.9 1.3 .4 .3 .8 .6 1.2 .9 .4 .3 .8 .6 1.2 1 .7 1.3 1.7 2 3.1 2.3 .4 .3 .8 .6 1.2 .9 .7 1.3 1.7 2 3.1 2.3 .4 .3 .8 .6 1.2 .9 .4 .3 .8 .7 1.2 1 .4 .8 1.1 1.1 1.9 1.3 .4 .3 .8 .6 1.2 .9 .4 .3 .8 .6 1.2 1 .7 1.3 1.7 2 3.1 2.3 .4 .3 .8 .6 1.2 .9 .5 .8 1.2 1.1 2.1 1.1 .5 .8 1.2 1.1 2.1 1.2 .8 1.2 1.9 1.9 3.3 2.1 .4 .8 1.2 1.1 2 1.2 .4 .3 .8 .6 1.3 .9 .5 .8 1.2 1.1 2.1 1.2 .5 .8 1.2 1.1 2 1.2 .4 .3 .8 .6 1.3 .8 .4 .8 1.2 1.1 2 1.2 .8 1.2 1.9 1.9 3.3 2 .4 .8 1.2 1.1 2 1.2 .8 1.1 1.9 1.9 3.3 2 .4 .8 1.2 1.1 2 1.2 .4 .3 .8 .6 1.3 .9 .5 .8 1.2 1.1 2.1 1.2 .5 .8 1.2 1 2 1.2 .4 .3 .8 .6 1.3 .8 .4 .8 1.2 1.1 2 1.2 .8 1.2 1.9 1.9 3.3 2 .4 .8 1.2 1.1 2 1.2 .4 .3 .8 .6 1.2 .9 .5 .8 1.2 1.1 2.1 1.2 .4 .8 1.2 1.1 2 1.2 .4 .3 .8 .6 1.3 .9 .5 .8 1.2 1.1 2.1 1.2 .5 .8 1.2 1 2 1.2 .4 .3 .8 .6 1.3 .8 .4 .8 1.2 1.1 2 1.2 .8 1.2 1.9 1.9 3.3 2 .4 .8 1.2 1.1 2 1.2 .4 .3 .8 .6 1.2 .9 .5 .8 1.2 1.1 2.1 1.2 .4 .8 1.2 1.1 2 1.2 .4 .3 .8 .6 1.3 .9 .4 .8 1.2 1.1 2.1 1.2 .5 .8 1.2 1 2 1.2 .4 .3 .9 .6 1.3 .8 .4 .8 1.2 1.1 2 1.2 .5 .8 1.2 1 2 1.2 .4 .3 .9 .5 1.3 .8 .5 .8 1.2 1.1 2.1 1.2 .5 .8 1.2 1 2.1 1.2 .5 .7 1.3 1 2.1 1.1 .4 .3 .9 .6 1.3 .8 .5 .8 1.2 1.1 2.1 1.1 .5 .8 1.2 1.1 2.1 1.1 .5 .8 1.3 1 2.1 1.1 .5 .8 1.3 1 2.1 1.2 .9 1.1 2 1.8 3.4 1.9 .5 .8 1.2 1.1 2.1 1.1 .5 .8 1.2 1 2.1 1.1 .5 .8 1.2 1 2.1 1.1 0 .3 .2 .6 .3 .8 .2 1 0 1.5 -1.2 1.2 -6.5 -.7 -13 -1.3 -19.5 -2 -1.4 -.1 -2.9 -.3 -4.2 0 -5.6 1.6 -11.6 1.5 -17.2 2.9 -1.2 .3 -1.9 .8 -1.9 2.1 Z"/>
      </g>
    </g>
  </g>
</svg>