<svg width="500" height="500" viewBox="0 0 500 500" fill="none" xmlns="http://www.w3.org/2000/svg">
<path d="M245.714 349.327L245.608 349.257H245.467C244.832 348.939 244.056 349.398 243.456 348.939C242.997 348.551 242.362 348.975 241.939 348.587L241.833 348.516H241.692C241.304 348.304 240.775 348.516 240.422 348.199C240.105 347.881 239.575 348.199 239.258 347.846L239.152 347.775H239.046C238.729 347.705 238.376 347.705 238.129 347.458C237.847 347.105 237.282 347.458 237 347.034C236.753 346.893 236.436 346.929 236.189 346.682C235.977 346.47 235.624 346.541 235.413 346.329C235.166 345.905 234.531 346.329 234.354 345.835H234.389C234.107 345.729 233.754 345.835 233.613 345.447H233.649C233.437 345.447 233.331 345.306 233.19 345.2C233.014 344.953 232.626 345.024 232.449 344.777C232.238 344.565 231.849 344.635 231.708 344.353H231.744C231.567 344.353 231.461 344.177 231.285 344.071C231.109 343.789 230.721 343.895 230.579 343.612C230.403 343.577 230.297 343.401 230.156 343.295C229.98 343.013 229.592 343.119 229.451 342.801H229.486C229.309 342.801 229.168 342.625 229.062 342.483C228.71 342.201 228.216 342.06 227.969 341.637H228.004C227.792 341.637 227.651 341.46 227.581 341.284C227.404 341.213 227.263 341.072 227.157 340.931C227.016 340.825 226.875 340.684 226.769 340.578C225.746 339.838 224.864 338.956 224.123 337.933C223.982 337.791 223.841 337.686 223.771 337.509C223.63 337.403 223.488 337.298 223.383 337.086C223.206 337.015 223.03 336.91 222.995 336.663H223.03C222.607 336.451 222.465 335.957 222.183 335.569C222.042 335.463 221.866 335.322 221.83 335.146H221.866C221.548 335.075 221.654 334.652 221.407 334.475C221.301 334.334 221.125 334.228 221.054 334.017H221.09C220.772 333.911 220.878 333.523 220.631 333.311C220.49 333.17 220.349 333.064 220.313 332.853H220.349C219.996 332.747 220.102 332.359 219.925 332.147C219.643 332.006 219.714 331.618 219.502 331.406C219.255 331.23 219.326 330.877 219.114 330.665C218.867 330.489 218.938 330.136 218.726 329.889C218.479 329.713 218.514 329.36 218.338 329.113C218.056 328.901 218.091 328.549 217.95 328.231C217.985 328.125 217.95 328.055 217.879 328.019C217.632 327.631 217.385 327.243 217.174 326.855C216.997 326.749 216.856 326.644 216.821 326.432H216.856C216.503 326.361 216.609 325.938 216.398 325.762C216.256 325.656 216.08 325.515 216.045 325.338H216.08C215.763 325.268 215.833 324.844 215.621 324.668C215.48 324.527 215.339 324.421 215.269 324.209H215.304C214.986 324.103 215.092 323.715 214.845 323.539C214.739 323.363 214.598 323.257 214.493 323.08C214.14 322.798 213.963 322.34 213.716 321.951C213.54 321.846 213.399 321.74 213.364 321.528H213.399C213.046 321.458 213.152 321.034 212.94 320.858C212.799 320.752 212.623 320.611 212.587 320.435H212.623C212.305 320.364 212.376 319.941 212.164 319.764C212.023 319.623 211.882 319.517 211.811 319.306H211.847C211.529 319.2 211.635 318.812 211.388 318.635C211.282 318.494 211.106 318.353 211.035 318.177C210.682 317.894 210.506 317.436 210.259 317.048C209.942 316.73 209.73 316.307 209.483 315.919C209.342 315.813 209.165 315.672 209.13 315.496H209.165C208.848 315.425 208.919 315.002 208.707 314.825C208.566 314.684 208.425 314.578 208.354 314.367H208.389C208.072 314.261 208.178 313.873 207.931 313.696C207.825 313.555 207.649 313.414 207.578 313.238C207.225 312.956 207.013 312.532 206.802 312.109C206.449 311.791 206.273 311.368 206.026 310.98C205.885 310.874 205.708 310.733 205.673 310.557H205.708C205.391 310.486 205.461 310.063 205.25 309.886C205.108 309.745 204.967 309.639 204.897 309.428H204.932C204.615 309.322 204.72 308.934 204.473 308.757C204.368 308.616 204.191 308.475 204.121 308.299C203.768 308.017 203.556 307.593 203.345 307.17C202.992 306.852 202.815 306.429 202.568 306.041C202.427 305.935 202.251 305.794 202.216 305.618H202.251C201.898 305.547 202.004 305.124 201.792 304.947C201.651 304.806 201.51 304.7 201.44 304.489H201.475C201.157 304.383 201.263 303.995 201.016 303.818C200.91 303.677 200.734 303.536 200.663 303.36C200.311 303.078 200.099 302.654 199.887 302.231C199.534 301.913 199.358 301.49 199.111 301.102C198.97 300.996 198.794 300.89 198.758 300.679H198.794C198.441 300.608 198.547 300.185 198.335 300.008C198.194 299.867 198.053 299.761 197.982 299.55H198.018C197.7 299.444 197.806 299.056 197.559 298.879C197.453 298.738 197.277 298.633 197.206 298.421C196.853 298.139 196.642 297.715 196.43 297.292C196.077 296.974 195.901 296.551 195.654 296.163C195.477 296.057 195.336 295.951 195.301 295.74H195.336C194.984 295.669 195.089 295.246 194.878 295.069C194.737 294.964 194.596 294.822 194.525 294.611H194.56C194.243 294.505 194.349 294.117 194.102 293.94C193.996 293.799 193.819 293.694 193.749 293.482C193.396 293.2 193.184 292.776 192.973 292.353C192.62 292.035 192.444 291.612 192.197 291.224C192.02 291.118 191.879 291.012 191.844 290.801H191.879C191.526 290.73 191.632 290.307 191.42 290.13C191.279 290.025 191.138 289.883 191.068 289.707H191.103C190.785 289.601 190.891 289.213 190.644 289.037C190.539 288.896 190.362 288.79 190.292 288.578C189.939 288.296 189.727 287.873 189.515 287.449C189.163 287.132 188.986 286.708 188.739 286.32C188.563 286.215 188.422 286.109 188.387 285.897H188.422C188.069 285.826 188.175 285.403 187.963 285.227C187.822 285.121 187.681 284.98 187.61 284.768H187.646C187.328 284.662 187.434 284.274 187.187 284.098C187.081 283.957 186.905 283.851 186.834 283.639C186.446 283.357 186.27 282.934 186.023 282.51C185.67 282.228 185.494 281.769 185.247 281.381C185.07 281.276 184.929 281.17 184.894 280.958H184.929C184.576 280.888 184.682 280.464 184.471 280.288C184.33 280.182 184.188 280.041 184.118 279.864H184.153C183.836 279.759 183.941 279.371 183.695 279.194C183.553 279.053 183.412 278.947 183.342 278.736H183.377C183.059 278.63 183.165 278.242 182.918 278.065C182.813 277.889 182.671 277.783 182.601 277.607C182.248 277.324 182.072 276.866 181.825 276.478C181.648 276.407 181.507 276.266 181.472 276.054H181.507C181.013 275.666 180.59 275.172 180.308 274.573C180.096 274.537 179.955 274.396 179.92 274.185H179.955C179.743 274.185 179.602 274.044 179.532 273.832H179.567C179.355 273.832 179.249 273.655 179.144 273.479C178.544 273.056 177.803 272.844 177.239 272.35C176.992 272.174 176.639 272.244 176.462 271.962C176.216 271.821 175.863 271.856 175.686 271.574C175.439 271.433 175.087 271.468 174.91 271.186C174.663 271.045 174.31 271.08 174.134 270.833C173.217 270.516 172.335 270.128 171.488 269.634H171.523C171.241 269.528 170.888 269.598 170.712 269.281C170.465 269.14 170.112 269.21 169.901 268.928C169.654 268.787 169.301 268.822 169.125 268.575C168.066 268.187 167.008 267.764 166.055 267.058C165.844 266.882 165.456 266.953 165.279 266.67C165.032 266.494 164.679 266.564 164.503 266.282C164.256 266.141 163.868 266.212 163.727 265.859H163.762C163.304 265.753 162.916 265.471 162.563 265.153C161.963 264.73 161.152 264.589 160.693 263.954H160.728C160.517 263.954 160.376 263.813 160.27 263.636C159.882 263.389 159.458 263.213 159.106 262.86C158.717 262.649 158.294 262.437 157.941 262.119C157.342 261.696 156.565 261.555 156.036 260.92H156.072C155.86 260.92 155.754 260.744 155.613 260.602C155.401 260.391 155.013 260.497 154.872 260.144H154.907C154.449 260.003 154.025 259.791 153.743 259.368H153.778C153.567 259.368 153.461 259.227 153.32 259.05C152.932 258.803 152.508 258.627 152.191 258.274C151.803 258.062 151.344 257.886 151.062 257.498C150.427 257.286 150.004 256.792 149.51 256.369C148.91 256.122 148.451 255.663 147.958 255.24H147.993C147.816 255.24 147.675 255.064 147.569 254.923C147.005 254.605 146.511 254.182 146.053 253.758C145.276 253.441 144.782 252.735 144.112 252.241C143.512 251.959 143.019 251.571 142.595 251.077H142.631C142.419 251.077 142.278 250.936 142.172 250.76C141.607 250.478 141.114 250.054 140.655 249.596H140.69C140.479 249.596 140.373 249.419 140.267 249.243C139.702 248.925 139.209 248.537 138.75 248.079H138.785C138.574 248.079 138.432 247.902 138.362 247.726C137.621 247.373 137.092 246.703 136.457 246.174H136.492C136.28 246.174 136.175 245.997 136.069 245.821C135.328 245.433 134.763 244.833 134.164 244.269H134.199C133.987 244.269 133.846 244.127 133.776 243.916C133.599 243.881 133.458 243.739 133.352 243.563C132.823 243.246 132.294 242.857 131.871 242.364H131.906C131.694 242.364 131.553 242.222 131.483 242.011C130.565 241.587 129.966 240.705 129.189 240.106H129.225C129.048 240.07 128.907 239.929 128.801 239.753C128.061 239.365 127.531 238.73 126.896 238.201H126.932C126.72 238.201 126.614 238.024 126.508 237.848C125.767 237.46 125.203 236.86 124.603 236.296H124.639C124.427 236.296 124.286 236.155 124.215 235.943H124.251C124.039 235.908 123.933 235.767 123.827 235.59C122.91 235.131 122.345 234.285 121.569 233.65H121.605C121.393 233.65 121.252 233.473 121.181 233.297C121.005 233.226 120.864 233.121 120.758 232.944C119.876 232.45 119.276 231.639 118.5 231.004H118.535C118.324 231.004 118.183 230.863 118.112 230.651C117.936 230.616 117.795 230.475 117.689 230.298C116.771 229.84 116.207 228.993 115.396 228.358H115.431C115.219 228.358 115.078 228.182 115.008 228.005C114.231 227.652 113.702 227.017 113.103 226.453H113.138C112.926 226.453 112.785 226.312 112.714 226.1C111.938 225.747 111.409 225.112 110.809 224.548H110.845C110.633 224.548 110.492 224.407 110.386 224.195C109.786 223.913 109.292 223.49 108.869 223.031H108.904C108.693 223.031 108.552 222.89 108.446 222.678C107.846 222.396 107.387 221.973 106.929 221.514H106.964C106.788 221.514 106.647 221.338 106.541 221.161C105.976 220.844 105.482 220.42 105.024 219.962H105.059C104.847 219.962 104.742 219.785 104.636 219.609C104.071 219.327 103.577 218.868 103.083 218.48C102.272 217.916 101.178 217.739 100.543 216.893C100.297 216.258 100.402 215.658 100.685 215.093C103.295 210.049 105.518 204.792 108.269 199.783C108.622 199.148 108.904 198.407 109.822 198.266C110.633 198.477 111.374 198.865 112.115 199.289H112.079C112.362 199.395 112.714 199.324 112.891 199.677C113.138 199.783 113.526 199.712 113.702 200.065C113.949 200.171 114.337 200.135 114.514 200.453C114.761 200.594 115.113 200.523 115.29 200.841C115.537 200.982 115.89 200.912 116.066 201.229C116.313 201.37 116.666 201.3 116.842 201.617C117.089 201.758 117.442 201.688 117.618 202.005C117.865 202.146 118.218 202.076 118.394 202.393C118.641 202.534 118.994 202.464 119.17 202.781C119.417 202.922 119.77 202.852 119.947 203.169C120.193 203.31 120.582 203.24 120.723 203.557C120.97 203.698 121.358 203.628 121.499 203.945C121.746 204.087 122.134 204.016 122.275 204.334C122.522 204.439 122.91 204.404 123.051 204.722C123.298 204.827 123.686 204.757 123.827 205.11H123.792C124.039 205.215 124.427 205.145 124.568 205.498H124.533C125.944 206.239 127.426 206.803 128.766 207.72C128.978 207.897 129.366 207.826 129.542 208.108C129.789 208.285 130.142 208.214 130.318 208.496C130.565 208.637 130.918 208.602 131.095 208.884C131.341 209.026 131.73 208.955 131.871 209.272C132.118 209.414 132.506 209.343 132.647 209.661H132.611C135.751 211.319 139.067 212.694 142.137 214.529C142.348 214.705 142.736 214.635 142.913 214.917C143.16 215.093 143.512 215.023 143.689 215.305C143.936 215.481 144.289 215.411 144.465 215.693C144.712 215.87 145.065 215.799 145.241 216.081C145.488 216.222 145.841 216.187 146.017 216.469C146.264 216.61 146.617 216.54 146.793 216.857C147.04 216.998 147.428 216.928 147.569 217.245C147.816 217.351 148.204 217.316 148.346 217.633C148.593 217.739 148.981 217.669 149.122 218.021H149.086C149.333 218.127 149.721 218.057 149.863 218.41H149.827C152.473 219.785 155.26 220.95 157.835 222.502C158.047 222.678 158.435 222.608 158.612 222.89C158.823 223.066 159.211 222.996 159.388 223.278C159.635 223.454 159.987 223.384 160.164 223.666C160.411 223.842 160.764 223.772 160.94 224.054C161.187 224.195 161.54 224.125 161.716 224.442C161.963 224.583 162.351 224.513 162.492 224.83C162.739 224.936 163.127 224.901 163.268 225.218H163.233C164.609 225.959 166.161 226.524 167.466 227.441C167.713 227.617 168.066 227.547 168.243 227.829C168.49 227.97 168.842 227.935 169.019 228.217C169.266 228.358 169.654 228.287 169.795 228.605C170.042 228.711 170.43 228.676 170.571 228.993H170.536C172.194 229.875 173.958 230.545 175.51 231.604C175.722 231.78 176.11 231.709 176.286 231.992C176.533 232.168 176.886 232.098 177.062 232.38C177.309 232.521 177.662 232.45 177.838 232.768C178.085 232.909 178.473 232.838 178.614 233.156C178.861 233.297 179.249 233.226 179.391 233.544H179.355C180.731 234.285 182.283 234.814 183.589 235.767C183.836 235.943 184.188 235.872 184.365 236.155C184.612 236.296 185 236.225 185.141 236.543H185.106C185.564 236.684 185.952 236.931 186.305 237.248C186.517 237.46 186.905 237.354 187.046 237.672C187.469 237.848 187.857 238.095 188.245 238.377C188.457 238.553 188.845 238.483 188.986 238.8H188.951C189.41 238.942 189.798 239.189 190.15 239.506C190.397 239.682 190.785 239.577 190.927 239.929H190.891C191.35 240.07 191.738 240.317 192.091 240.635C192.338 240.811 192.69 240.741 192.867 241.058C193.502 241.411 194.278 241.623 194.772 242.187H194.737C194.948 242.187 195.054 242.364 195.195 242.505C196.007 243.104 197.1 243.316 197.841 244.057C198.476 244.445 199.217 244.621 199.746 245.221C200.169 245.397 200.593 245.609 200.946 245.927C201.157 246.103 201.545 246.032 201.686 246.35H201.651C201.863 246.35 201.969 246.491 202.11 246.668C202.498 246.95 202.956 247.056 203.239 247.479H203.203C203.415 247.479 203.556 247.62 203.662 247.796C204.05 248.008 204.509 248.22 204.826 248.573C205.003 248.608 205.144 248.749 205.25 248.89C205.602 249.172 206.096 249.313 206.378 249.701H206.343C206.555 249.701 206.661 249.878 206.767 250.054C206.943 250.125 207.084 250.266 207.19 250.407C207.754 250.725 208.213 251.148 208.707 251.571C208.883 251.606 208.989 251.783 209.13 251.853C209.412 252.242 209.942 252.312 210.189 252.735H210.153C210.365 252.735 210.506 252.912 210.577 253.088C210.753 253.159 210.894 253.265 211 253.441C211.141 253.512 211.282 253.653 211.423 253.794C211.917 254.182 212.482 254.535 212.905 255.028H212.87C213.081 255.028 213.222 255.205 213.293 255.381C213.469 255.452 213.611 255.593 213.716 255.734C213.857 255.84 213.999 255.946 214.14 256.087C214.457 256.44 214.986 256.51 215.198 256.969H215.163C215.374 256.969 215.516 257.11 215.586 257.322H215.551C215.763 257.322 215.868 257.498 215.974 257.674C216.151 257.745 216.256 257.886 216.398 258.027C216.539 258.133 216.644 258.274 216.786 258.38C217.103 258.733 217.632 258.803 217.844 259.262H217.809C218.02 259.262 218.161 259.403 218.232 259.615C218.408 259.65 218.55 259.791 218.655 259.967C218.832 260.038 218.938 260.179 219.079 260.32C219.22 260.426 219.326 260.567 219.467 260.673C219.784 261.026 220.278 261.132 220.525 261.555H220.49C220.701 261.555 220.843 261.696 220.913 261.908C221.09 261.943 221.231 262.084 221.337 262.261C221.513 262.331 221.619 262.472 221.76 262.613C222.289 263.001 222.818 263.354 223.242 263.848H223.206C223.418 263.848 223.559 264.024 223.63 264.201C223.806 264.236 223.947 264.377 224.053 264.554C224.194 264.624 224.335 264.765 224.476 264.906C224.97 265.294 225.535 265.647 225.958 266.141H225.923C226.134 266.141 226.275 266.318 226.346 266.494C226.522 266.565 226.664 266.706 226.769 266.847C227.299 267.2 227.828 267.552 228.251 268.046H228.216C228.463 268.046 228.569 268.187 228.639 268.399H228.604C228.816 268.399 228.921 268.575 229.027 268.752C229.204 268.822 229.345 268.963 229.451 269.105C229.592 269.21 229.697 269.351 229.839 269.457C230.156 269.81 230.685 269.881 230.897 270.339H230.862C231.073 270.339 231.214 270.48 231.285 270.692H231.25C231.461 270.692 231.567 270.868 231.673 271.045C231.849 271.115 231.955 271.257 232.096 271.398C232.238 271.503 232.343 271.645 232.484 271.75C232.802 272.103 233.296 272.209 233.543 272.632H233.508C233.719 272.632 233.86 272.773 233.931 272.985C234.107 273.02 234.248 273.162 234.354 273.338C234.531 273.408 234.636 273.55 234.778 273.691C234.919 273.797 235.024 273.938 235.166 274.044C235.483 274.396 235.977 274.502 236.224 274.925H236.189C236.4 274.925 236.541 275.067 236.612 275.278C236.788 275.314 236.93 275.455 237.035 275.631C237.212 275.702 237.318 275.843 237.459 275.984C237.953 276.372 238.517 276.725 238.94 277.219H238.905C239.117 277.219 239.258 277.395 239.328 277.571C239.505 277.642 239.646 277.783 239.752 277.924C239.893 277.995 240.034 278.136 240.175 278.277C240.669 278.665 241.198 279.018 241.657 279.512H241.622C241.833 279.512 241.939 279.688 242.045 279.864C242.221 279.935 242.362 280.076 242.468 280.217C242.997 280.57 243.527 280.923 243.95 281.417H243.915C244.126 281.417 244.267 281.558 244.338 281.769H244.303C244.514 281.769 244.62 281.946 244.726 282.122C244.902 282.193 245.008 282.334 245.149 282.475C245.291 282.581 245.396 282.722 245.537 282.828C245.855 283.181 246.349 283.251 246.596 283.71H246.561C246.772 283.71 246.913 283.851 246.984 284.063C247.16 284.098 247.301 284.239 247.407 284.415C247.584 284.486 247.689 284.627 247.831 284.768C247.972 284.874 248.077 285.015 248.219 285.121C248.536 285.474 249.03 285.58 249.277 286.003H249.242C249.453 286.003 249.594 286.144 249.665 286.356C249.841 286.391 249.983 286.532 250.088 286.708C250.265 286.779 250.371 286.92 250.512 287.061C251.041 287.449 251.57 287.802 251.993 288.296H251.958C252.17 288.296 252.311 288.472 252.381 288.649C252.558 288.684 252.699 288.825 252.805 289.002C253.581 289.354 254.004 290.272 254.921 290.377C259.755 294.434 264.658 298.386 269.174 302.725C273.937 307.346 278.593 312.144 282.721 317.401C284.555 319.729 286.813 321.669 288.542 324.103C288.965 324.703 289.635 325.197 289.424 326.079C289.424 326.361 289.424 326.644 289.177 326.82C289.106 326.961 288.965 327.102 288.824 327.208C288.542 327.561 288.365 328.019 288.013 328.337C287.942 328.478 287.801 328.584 287.66 328.725C287.413 328.901 287.519 329.325 287.166 329.431H287.201C287.201 329.607 287.025 329.748 286.813 329.819C286.743 329.96 286.601 330.101 286.425 330.207C286.319 330.348 286.178 330.454 286.072 330.595C285.719 330.912 285.649 331.441 285.19 331.688H285.226C285.19 331.865 285.049 332.006 284.838 332.076H284.873C284.802 332.253 284.661 332.359 284.485 332.464C284.414 332.606 284.273 332.747 284.097 332.853C283.991 332.994 283.85 333.135 283.709 333.241C283.603 333.382 283.462 333.523 283.321 333.629C283.215 333.77 283.074 333.911 282.932 334.017C282.827 334.158 282.686 334.299 282.544 334.405C282.439 334.546 282.297 334.687 282.156 334.793C282.051 334.934 281.909 335.075 281.733 335.181C281.627 335.322 281.486 335.463 281.31 335.569C281.204 335.71 281.098 335.851 280.886 335.922H280.922C280.851 336.098 280.71 336.239 280.498 336.275H280.534C280.287 336.663 279.793 336.733 279.475 337.086C279.334 337.227 279.193 337.333 279.087 337.439C278.946 337.58 278.84 337.721 278.664 337.791C278.558 337.933 278.417 338.074 278.24 338.144H278.276C277.994 338.532 277.535 338.638 277.182 338.92C277.076 339.062 276.935 339.203 276.759 339.273C276.477 339.626 276.018 339.767 275.63 340.049C275.524 340.19 275.383 340.367 275.171 340.402H275.207C275.101 340.684 274.677 340.614 274.466 340.825C274.325 340.967 274.219 341.108 274.007 341.178H274.042C273.901 341.46 273.513 341.39 273.302 341.602C273.16 341.743 273.055 341.919 272.843 341.919H272.878C272.737 342.237 272.349 342.131 272.137 342.342C271.961 342.589 271.608 342.519 271.396 342.766C271.255 342.907 271.15 343.048 270.938 343.083H270.973C270.832 343.401 270.444 343.33 270.197 343.471C270.021 343.754 269.668 343.683 269.421 343.859C269.244 344.106 268.892 344.036 268.645 344.247C268.468 344.494 268.08 344.424 267.869 344.635C267.657 344.882 267.304 344.812 267.093 345.024C266.881 345.27 266.528 345.2 266.316 345.412C266.105 345.659 265.787 345.623 265.505 345.764C265.258 346.188 264.694 345.8 264.411 346.188C264.2 346.399 263.847 346.364 263.635 346.541C263.388 346.787 263.036 346.787 262.718 346.893H262.612L262.506 346.964C262.295 347.176 261.942 347.14 261.695 347.281C261.413 347.705 260.848 347.352 260.531 347.669C260.249 348.057 259.684 347.775 259.367 348.057C258.978 348.551 258.273 348.057 257.85 348.481C257.426 348.904 256.756 348.481 256.333 348.869C255.874 349.292 255.239 348.869 254.78 349.222C254.075 349.751 253.158 349.151 252.417 349.61H252.276C252.276 349.574 252.134 349.61 252.134 349.61C249.877 349.892 247.584 349.927 245.326 349.61L245.714 349.327Z" fill="#686D65"/>
<path d="M373.421 346.681L373.28 346.61H373.139C372.257 346.222 371.234 346.787 370.388 346.328L370.246 346.257H370.105C369.223 345.869 368.2 346.469 367.354 345.94C366.26 345.446 365.025 346.152 363.932 345.552C362.908 345.305 361.85 345.234 360.862 344.776C360.545 344.493 360.016 344.776 359.698 344.423C359.381 344.105 358.851 344.423 358.569 344.035C357.934 343.753 357.229 343.717 356.664 343.259H356.699C356.453 343.153 356.064 343.188 355.888 342.871H355.923C355.676 342.765 355.288 342.835 355.147 342.483H355.183C354.724 342.377 354.336 342.13 353.983 341.777H354.018C353.842 341.777 353.701 341.601 353.56 341.46C353.242 341.142 352.713 341.036 352.501 340.578H352.537C352.29 340.578 352.149 340.472 352.113 340.19H352.149C351.69 340.013 351.584 339.484 351.267 339.166C351.126 339.025 350.949 338.92 350.949 338.708V338.778C350.455 338.567 350.879 337.967 350.491 337.685C350.208 336.556 350.173 335.427 350.526 334.298C350.702 334.086 350.667 333.734 350.879 333.522C351.09 333.31 351.02 332.957 351.337 332.781C351.408 332.64 351.549 332.499 351.69 332.393C352.078 331.758 352.607 331.264 353.207 330.876C353.348 330.77 353.454 330.594 353.63 330.523C353.736 330.382 353.877 330.206 354.089 330.206H354.054C354.159 329.888 354.583 329.994 354.759 329.782C354.9 329.641 355.006 329.465 355.253 329.465H355.218C355.324 329.147 355.747 329.218 355.959 329.042C356.135 328.759 356.488 328.83 356.735 328.654C357.017 328.265 357.581 328.618 357.864 328.23C358.075 328.019 358.428 328.054 358.675 327.877C358.887 327.595 359.204 327.63 359.486 327.56H359.451C359.663 327.066 360.263 327.454 360.58 327.137C360.792 326.89 361.145 326.925 361.392 326.784H361.356C361.921 326.36 362.626 326.29 363.261 326.008C363.473 325.725 363.79 325.761 364.073 325.69H364.037C364.249 325.196 364.849 325.584 365.166 325.232C365.378 324.985 365.731 325.02 365.978 324.879H365.942C366.189 324.42 366.754 324.808 367.036 324.455C367.248 324.244 367.6 324.279 367.847 324.103C368.059 323.82 368.377 323.856 368.659 323.785H368.624C368.835 323.291 369.435 323.679 369.752 323.326C369.964 323.08 370.317 323.115 370.564 322.974H370.529C370.776 322.515 371.34 322.903 371.658 322.55C371.869 322.339 372.222 322.374 372.469 322.198C372.716 321.915 373.069 321.915 373.386 321.845H373.492L373.563 321.774C373.774 321.563 374.127 321.633 374.339 321.421C374.55 321.175 374.903 321.21 375.15 321.069H375.115C375.362 320.61 375.926 320.998 376.244 320.645C376.455 320.434 376.808 320.469 377.055 320.293C377.514 319.94 378.149 319.904 378.607 319.516C379.137 317.647 378.396 315.671 378.995 313.801C379.489 312.99 378.819 311.967 379.419 311.155C379.807 310.591 379.313 309.815 379.807 309.25C380.16 308.792 379.807 308.122 380.124 307.628C380.265 305.193 380.865 302.83 381.641 300.537C382.029 299.267 382.629 298.067 382.805 296.727C383.476 295.21 383.864 293.552 384.993 292.246C386.827 291.47 387.921 291.717 389.297 293.34C390.496 294.786 391.66 296.303 392.719 297.856C393.812 299.478 395.153 300.043 397.058 299.655C399.527 299.161 402.067 299.055 404.537 298.596C406.901 298.173 408.629 298.843 409.864 301.101C411.452 304.029 413.286 306.816 414.944 309.709C415.685 311.014 416.602 311.755 418.154 311.932C422.353 312.425 426.515 313.06 430.678 313.66C431.49 313.766 432.301 313.907 432.901 314.542C433.183 315.212 432.865 315.953 433.183 316.624L433.112 316.729L433.183 316.835C433.5 318.599 433.571 320.363 433.183 322.127C432.76 322.691 433.289 323.468 432.795 324.032C432.372 324.42 432.936 325.161 432.336 325.514C432.23 325.761 432.266 326.078 432.019 326.29C431.666 326.572 432.019 327.172 431.56 327.383C431.454 327.63 431.525 327.983 431.172 328.124C431.031 328.371 431.137 328.724 430.749 328.865C430.643 329.324 430.361 329.712 430.008 330.029C429.796 330.417 429.62 330.876 429.196 331.158H429.232C429.196 331.335 429.02 331.441 428.879 331.582C428.597 331.934 428.491 332.428 428.032 332.675H428.068C428.068 332.852 427.891 332.993 427.68 333.063C427.609 333.24 427.468 333.346 427.291 333.451C426.339 334.757 425.21 335.886 423.869 336.873C423.764 337.014 423.623 337.156 423.446 337.261C423.34 337.403 423.199 337.544 423.023 337.614H423.058C422.988 337.791 422.846 337.932 422.599 337.967H422.635C422.211 338.426 421.717 338.849 421.118 339.131C420.8 339.484 420.377 339.66 419.989 339.907C419.636 340.225 419.248 340.472 418.789 340.613H418.825C418.648 340.93 418.295 340.86 418.049 341.001C417.872 341.283 417.519 341.248 417.237 341.354H417.272C417.025 341.812 416.461 341.46 416.144 341.777C415.826 342.165 415.297 341.883 414.979 342.13H415.015C414.591 342.624 413.921 342.165 413.462 342.518H413.498C412.827 343.118 411.91 342.447 411.205 342.941C410.64 343.4 409.864 342.941 409.264 343.294C408.312 343.894 407.183 343.223 406.195 343.682C405.243 344.176 404.219 343.894 403.232 343.894C401.291 343.894 399.422 343.541 397.481 343.294C396.811 343.047 396.141 343.082 395.506 343.294C395.365 343.435 395.188 343.435 395.047 343.294C394.447 342.271 393.565 341.601 392.472 341.142C386.862 338.814 383.864 334.228 381.712 328.865C381.359 327.948 381.183 326.89 380.018 326.537C379.454 327.137 379.807 327.736 379.948 328.301C381.747 335.639 385.522 341.46 392.683 344.635C392.93 344.74 393.107 344.882 393.283 345.093C393.389 345.305 393.318 345.411 393.107 345.481H393.177C393.071 345.834 392.683 345.728 392.436 345.905C392.26 346.187 391.907 346.116 391.66 346.293C391.378 346.681 390.814 346.363 390.531 346.681C390.108 347.104 389.438 346.681 388.979 347.069C388.379 347.527 387.568 347.069 386.933 347.422L386.827 347.351L386.721 347.422C384.569 347.739 382.417 347.774 380.301 347.422C378.925 346.928 377.478 347.598 376.103 347.069L375.961 346.998L375.82 347.069C374.938 346.645 373.951 347.21 373.069 346.716L373.421 346.681Z" fill="#884000"/>
<path d="M289.071 325.831C287.977 323.89 286.495 322.268 284.978 320.68C282.685 318.246 280.604 315.635 278.417 313.13C277.888 312.495 277.358 311.896 276.794 311.296C274.642 309.003 272.349 306.851 270.267 304.487C268.68 302.688 266.81 301.171 264.976 299.689C264.058 298.949 263.141 298.137 262.259 297.361C259.931 295.35 257.602 293.304 255.274 291.293C254.957 291.011 254.674 290.658 254.392 290.341C254.286 290.235 254.251 290.129 254.322 290.058C254.392 289.988 254.427 289.953 254.463 289.953C254.674 289.706 255.027 289.776 255.239 289.564C255.415 289.318 255.803 289.388 256.015 289.176C256.227 288.929 256.579 289 256.791 288.788C257.003 288.541 257.356 288.612 257.567 288.4C257.779 288.189 258.132 288.259 258.308 288.012C258.52 287.801 258.873 287.871 259.049 287.624C259.261 287.413 259.613 287.483 259.79 287.236C259.931 287.095 260.072 286.954 260.248 286.883C260.354 286.883 260.46 286.883 260.531 286.813C260.672 286.672 260.813 286.566 260.989 286.495C261.095 286.495 261.201 286.495 261.307 286.425C261.448 286.319 261.589 286.213 261.695 286.107C261.871 285.86 262.259 285.931 262.471 285.719C262.683 285.472 263.035 285.543 263.247 285.331C263.459 285.084 263.811 285.155 264.023 284.943C264.235 284.731 264.588 284.767 264.799 284.555C265.011 284.343 265.364 284.414 265.54 284.167C265.752 283.955 266.105 284.026 266.281 283.779C266.422 283.638 266.563 283.497 266.775 283.426C266.881 283.426 266.987 283.426 267.057 283.391C267.198 283.25 267.339 283.144 267.516 283.073C267.622 283.073 267.727 283.073 267.798 283.003C267.939 282.897 268.08 282.791 268.186 282.685C268.362 282.438 268.75 282.509 268.962 282.297C269.139 282.05 269.527 282.121 269.738 281.909C269.95 281.662 270.303 281.733 270.514 281.521C270.726 281.274 271.079 281.345 271.29 281.133C271.502 280.921 271.855 280.992 272.067 280.745C272.278 280.533 272.631 280.604 272.807 280.357C273.019 280.145 273.372 280.216 273.548 279.969C273.689 279.828 273.831 279.687 274.042 279.616C274.148 279.616 274.254 279.616 274.324 279.545C274.466 279.404 274.607 279.299 274.783 279.228C274.889 279.228 274.995 279.228 275.101 279.157C275.242 279.052 275.383 278.946 275.489 278.84C275.665 278.593 276.053 278.663 276.265 278.452C276.476 278.205 276.829 278.275 277.041 278.064C277.253 277.817 277.605 277.887 277.817 277.676C278.029 277.429 278.381 277.499 278.593 277.288C278.805 277.076 279.158 277.147 279.334 276.9C279.546 276.688 279.898 276.758 280.075 276.512C280.216 276.37 280.357 276.229 280.569 276.159C280.675 276.159 280.78 276.159 280.851 276.123C280.992 275.982 281.133 275.877 281.31 275.806C281.415 275.806 281.521 275.806 281.627 275.735C281.768 275.63 281.909 275.524 282.015 275.418C282.192 275.171 282.58 275.241 282.791 275.03C282.968 274.783 283.356 274.853 283.567 274.642C283.779 274.395 284.132 274.465 284.343 274.254C284.555 274.007 284.908 274.077 285.12 273.866C285.331 273.619 285.684 273.689 285.896 273.478C286.107 273.231 286.46 273.301 286.707 273.125C286.813 273.125 286.919 273.125 287.025 273.09C287.236 272.878 287.589 272.948 287.765 272.737C287.977 272.525 288.33 272.56 288.577 272.384C288.683 272.384 288.789 272.384 288.894 272.349C289.106 272.137 289.459 272.208 289.671 271.996C289.988 271.643 290.517 271.996 290.799 271.608C291.011 271.396 291.364 271.431 291.576 271.255C291.858 270.867 292.422 271.22 292.704 270.867C292.916 270.655 293.269 270.726 293.481 270.514C293.692 270.267 294.045 270.338 294.292 270.161C294.398 270.161 294.504 270.161 294.609 270.126C294.821 269.914 295.174 269.985 295.386 269.773C295.668 269.421 296.232 269.773 296.515 269.385C296.726 269.174 297.079 269.244 297.291 268.997C297.502 268.786 297.855 268.821 298.067 268.609C298.278 268.398 298.631 268.433 298.843 268.256C299.125 267.904 299.69 268.221 299.972 267.868C300.219 267.621 300.536 267.692 300.818 267.516C300.924 267.516 301.03 267.516 301.101 267.48C301.312 267.269 301.665 267.339 301.877 267.127C302.159 266.739 302.724 267.092 303.006 266.739C303.253 266.528 303.57 266.563 303.852 266.387C303.958 266.387 304.064 266.387 304.135 266.351C304.452 266.034 304.981 266.351 305.264 265.963C305.51 265.752 305.828 265.787 306.11 265.611C306.216 265.611 306.322 265.611 306.392 265.611C306.604 265.469 306.781 265.505 306.957 265.681C307.486 266.21 307.592 266.916 307.733 267.586C311.261 283.426 314.401 299.372 317.893 315.212C317.999 315.635 318.07 316.059 317.964 316.517C317.858 316.87 317.576 317.011 317.293 317.117H317.152L317.011 317.152C316.694 317.47 316.165 317.187 315.812 317.505H315.635H315.459C315.106 317.822 314.612 317.54 314.26 317.858H314.083H313.942C313.589 318.175 313.095 317.928 312.743 318.211H312.566H312.425C312.072 318.528 311.578 318.246 311.226 318.563H311.049H310.873C310.555 318.881 310.026 318.563 309.709 318.916H309.532L309.356 318.951C309.038 319.269 308.544 318.951 308.227 319.304C307.909 319.622 307.38 319.375 307.027 319.657H306.851L306.675 319.692C306.428 319.904 306.11 319.833 305.828 320.01H305.687H305.546C305.228 320.362 304.699 320.01 304.382 320.362C304.064 320.715 303.535 320.398 303.217 320.751C302.9 321.103 302.371 320.821 302.018 321.139H301.842L301.665 321.174C301.418 321.386 301.101 321.315 300.854 321.491H300.677L300.501 321.527C300.254 321.738 299.937 321.668 299.69 321.879C299.584 321.879 299.478 321.879 299.372 321.915C299.16 322.126 298.808 322.056 298.596 322.268C298.314 322.62 297.749 322.303 297.432 322.656C297.114 323.008 296.585 322.691 296.303 323.044C295.985 323.396 295.456 323.044 295.174 323.432C294.927 323.643 294.609 323.608 294.363 323.784H294.186L294.045 323.82C293.833 324.031 293.481 323.961 293.269 324.173C292.987 324.525 292.422 324.208 292.14 324.561C291.893 324.808 291.576 324.737 291.293 324.913H291.152L291.011 324.949C290.799 325.16 290.447 325.09 290.235 325.301C290.059 325.548 289.706 325.443 289.494 325.69C289.424 325.69 289.353 325.69 289.247 325.69L289.071 325.831Z" fill="#FFB78A"/>
<path d="M317.399 316.659C317.152 315.812 316.835 315.001 316.658 314.119C315 306.393 313.342 298.667 311.755 290.905C310.167 283.215 308.615 275.524 306.851 267.869C306.675 267.128 306.569 266.387 306.428 265.646C306.534 265.47 306.675 265.364 306.886 265.329C307.874 265.258 308.544 265.928 309.25 266.422C319.692 273.584 330.064 280.957 340.507 288.118C341.671 288.895 342.094 289.988 342.376 291.258C344.105 298.914 349.15 303.147 356.629 304.629C361.603 305.581 366.366 304.558 370.634 301.948C374.55 299.513 376.138 295.527 376.314 291.152C376.596 284.308 373.809 279.017 367.777 275.418C358.252 269.738 348.621 264.129 339.272 258.167C338.602 257.744 337.72 257.497 337.649 256.474C337.931 255.592 338.743 255.521 339.448 255.38C343.823 254.498 348.233 254.322 352.642 255.31C353.524 255.486 354.3 256.015 355.182 256.227C355.465 256.333 355.782 256.262 355.994 256.544C356.205 256.721 356.558 256.65 356.77 256.932C356.982 257.109 357.37 257.038 357.546 257.32C357.758 257.497 358.111 257.462 358.322 257.673C358.534 257.885 358.887 257.814 359.098 258.026C359.31 258.238 359.663 258.167 359.874 258.414C360.086 258.626 360.439 258.555 360.615 258.802C361.215 259.225 361.956 259.472 362.52 259.931C362.732 260.143 363.085 260.072 363.296 260.319C363.685 260.566 364.108 260.778 364.461 261.06C364.849 261.307 365.272 261.519 365.625 261.836C365.766 261.907 365.907 262.048 366.048 262.189C366.366 262.506 366.86 262.647 367.142 263C367.318 263.071 367.424 263.212 367.565 263.353C367.706 263.424 367.847 263.565 367.988 263.706C368.341 264.023 368.8 264.164 369.082 264.517C369.258 264.588 369.364 264.729 369.505 264.87C369.647 264.976 369.788 265.082 369.893 265.223C370.246 265.505 370.705 265.646 371.022 266.034C371.199 266.105 371.34 266.211 371.446 266.387C371.622 266.457 371.728 266.599 371.869 266.74C372.045 266.81 372.151 266.951 372.257 267.128C372.398 267.234 372.539 267.339 372.645 267.516C372.786 267.622 372.927 267.728 373.033 267.869C373.174 267.974 373.28 268.116 373.421 268.221C373.527 268.363 373.668 268.468 373.809 268.574C374.303 268.962 374.832 269.35 375.291 269.774C375.467 269.844 375.609 269.985 375.714 270.126C375.891 270.197 375.997 270.338 376.102 270.479C376.244 270.585 376.385 270.726 376.491 270.867C376.632 270.973 376.773 271.114 376.879 271.255C377.02 271.361 377.161 271.502 377.267 271.643C377.408 271.749 377.549 271.89 377.655 272.031C377.796 272.137 377.937 272.278 378.043 272.42C378.184 272.525 378.325 272.631 378.431 272.808C378.607 272.878 378.748 273.019 378.819 273.196C379.172 273.478 379.313 273.937 379.63 274.289C379.736 274.43 379.877 274.572 379.983 274.677C380.124 274.783 380.265 274.924 380.371 275.065C380.512 275.171 380.653 275.277 380.759 275.453C380.936 275.524 381.041 275.665 381.147 275.842C381.324 275.912 381.465 276.053 381.535 276.23C381.676 276.371 381.818 276.512 381.923 276.688C385.698 280.11 387.462 288.189 385.345 292.458C384.675 293.763 384.393 295.245 383.546 296.479C383.229 297.502 382.77 298.455 382.347 299.443C380.618 302.194 378.925 305.017 375.856 306.534C375.644 306.64 375.362 306.745 375.15 306.886C374.974 307.133 374.586 307.063 374.409 307.275C374.268 307.416 374.162 307.557 373.986 307.627C373.809 307.874 373.457 307.804 373.21 308.015C373.033 308.262 372.68 308.192 372.434 308.403C372.257 308.65 371.869 308.58 371.657 308.792C371.446 309.038 371.093 308.968 370.881 309.18C370.67 309.427 370.317 309.356 370.105 309.568C369.823 309.956 369.258 309.603 368.976 309.991C368.765 310.203 368.412 310.167 368.2 310.344C367.636 310.838 366.86 310.273 366.295 310.732C365.872 311.155 365.201 310.732 364.743 311.12C364.037 311.649 363.155 311.049 362.45 311.508C361.885 312.002 361.109 311.437 360.545 311.896C359.451 312.46 358.181 311.79 357.087 312.284H356.946H356.805C355.288 312.849 353.701 312.143 352.184 312.637H352.043C352.043 312.602 351.902 312.637 351.902 312.637C350.314 313.095 348.656 312.743 347.033 312.849C346.363 312.884 345.657 312.707 344.987 313.025H344.846C344.846 312.99 344.705 313.025 344.705 313.025C343.188 313.589 341.6 312.884 340.083 313.413H339.942H339.801C338.284 313.977 336.697 313.272 335.18 313.766H335.038H334.897C334.192 314.295 333.31 313.695 332.604 314.154C332.04 314.648 331.264 314.083 330.699 314.542C330.1 315 329.359 314.507 328.759 314.895H328.583H328.441C327.736 315.353 326.854 314.789 326.148 315.247C325.407 315.741 324.526 315.177 323.785 315.6H323.644H323.502C323.044 316.024 322.409 315.6 321.95 315.988C321.492 316.412 320.821 315.988 320.363 316.376H320.222L320.08 316.412C319.481 316.835 318.74 316.341 318.175 316.764C318.034 316.941 317.928 316.906 317.858 316.694L317.399 316.659Z" fill="#8989DE"/>
<path d="M111.55 198.477C111.339 198.688 111.056 198.865 110.915 199.147C109.927 200.946 108.94 202.781 108.058 204.65C106.576 207.825 104.953 210.965 103.401 214.105C102.942 215.057 102.448 216.01 102.413 217.104C102.131 217.456 101.637 217.174 101.319 217.456C99.5556 217.809 97.7917 217.774 96.0277 217.456C95.1811 217.456 94.2991 217.456 93.4524 217.456C92.0766 216.962 90.5949 217.633 89.219 217.068C88.5134 216.574 87.6315 217.209 86.9259 216.68C86.6084 216.363 86.0792 216.68 85.7617 216.292C85.5501 216.116 85.1973 216.151 84.9856 215.939C84.7739 215.728 84.4212 215.798 84.2095 215.551C83.9978 215.34 83.645 215.41 83.4334 215.163C83.0453 214.916 82.622 214.705 82.2692 214.387C82.1281 214.317 81.987 214.175 81.8811 214.034C81.105 213.54 80.47 212.905 79.9761 212.129C79.835 212.023 79.6939 211.882 79.588 211.741C79.2705 211.424 79.0588 211 78.8119 210.612C78.565 210.436 78.6355 210.083 78.4238 209.871C78.1769 209.695 78.2474 209.342 78.0358 209.131C77.5066 208.46 77.2597 207.614 76.8716 206.873C76.4483 206.273 76.166 205.568 75.778 204.933C75.4957 204.756 75.5663 204.403 75.3899 204.192C75.143 204.015 75.1782 203.663 75.0018 203.451C74.7549 203.274 74.7902 202.922 74.6138 202.71C74.3668 202.534 74.4021 202.181 74.2257 201.969C73.9788 201.793 74.014 201.44 73.8377 201.228C73.5907 201.052 73.626 200.699 73.4496 200.487C73.2026 200.311 73.2379 199.958 73.0615 199.747C72.8146 199.57 72.8499 199.217 72.6735 199.006C72.4265 198.829 72.4618 198.477 72.2854 198.23C71.8621 197.383 71.5093 196.466 71.1212 195.584C70.9096 195.372 70.9448 195.019 70.7332 194.808C70.4862 194.596 70.5568 194.278 70.3451 194.032C70.0981 193.855 70.1687 193.502 69.957 193.255C69.7101 193.079 69.7806 192.726 69.569 192.515C69.322 192.338 69.3926 191.985 69.1809 191.774C68.934 191.597 69.0045 191.245 68.7929 191.033C68.3342 190.468 68.0873 189.728 67.6639 189.128C67.417 188.951 67.4523 188.599 67.2759 188.387C67.0289 188.211 67.0995 187.858 66.8878 187.646C66.6409 187.47 66.7114 187.117 66.4998 186.905C66.2528 186.729 66.3234 186.376 66.1117 186.164C65.8647 185.988 65.9353 185.635 65.7236 185.424C65.512 185.212 65.5472 184.859 65.3356 184.683C64.9122 184.259 64.8417 183.66 64.5947 183.166C64.3831 182.954 64.4183 182.601 64.2067 182.39C63.9597 182.178 64.0303 181.86 63.8186 181.614C63.4305 181.331 63.748 180.802 63.4305 180.485C62.9014 179.779 63.5011 178.897 63.0425 178.192C63.0425 177.839 63.0425 177.521 63.0425 177.168C63.5011 176.463 62.9014 175.546 63.4305 174.84C63.748 174.558 63.4305 173.993 63.8186 173.711C63.995 173.5 63.9597 173.147 64.2067 172.97C64.3125 172.829 64.4536 172.723 64.5595 172.582C64.8064 172.371 64.7006 172.018 64.9828 171.841C65.0886 171.7 65.2297 171.559 65.3709 171.453C65.4767 171.312 65.6178 171.171 65.7589 171.065C65.8647 170.924 66.0059 170.783 66.147 170.677C66.2528 170.536 66.3939 170.395 66.535 170.289C66.7114 170.042 67.0995 170.113 67.2759 169.901C67.417 169.795 67.5228 169.654 67.6992 169.548C67.8756 169.301 68.2284 169.372 68.4753 169.196C70.592 168.384 72.744 168.455 74.896 168.807C75.3899 169.054 76.0249 169.125 76.413 169.584C76.5541 169.689 76.6952 169.795 76.801 169.936C76.9421 170.042 77.048 170.183 77.1891 170.289C77.5066 170.607 77.9652 170.748 78.2827 171.101C78.4591 171.171 78.565 171.312 78.6708 171.453C78.8119 171.559 78.953 171.7 79.0589 171.806C79.4116 172.088 79.8703 172.265 80.1878 172.618C80.3641 172.688 80.47 172.829 80.5758 172.97C80.7169 173.041 80.858 173.182 80.9639 173.323C81.105 173.429 81.2461 173.57 81.3519 173.676C81.7047 173.993 82.1633 174.135 82.4809 174.487C82.6572 174.558 82.7631 174.699 82.8689 174.84C83.01 174.946 83.1511 175.052 83.257 175.193C83.3981 175.299 83.5039 175.44 83.645 175.546C83.9978 175.863 84.4212 176.004 84.7739 176.357C84.9503 176.428 85.0562 176.569 85.162 176.71C85.3031 176.816 85.4442 176.922 85.5501 177.063C85.6912 177.168 85.797 177.31 85.9381 177.415C86.2556 177.733 86.7142 177.874 87.0318 178.227C87.2081 178.297 87.314 178.438 87.4198 178.58C87.5609 178.685 87.702 178.827 87.8079 178.932C88.1607 179.215 88.6193 179.391 88.9368 179.709C89.1132 179.779 89.219 179.92 89.3248 180.061C89.466 180.132 89.6071 180.273 89.7129 180.414C89.854 180.52 89.9951 180.661 90.101 180.767C90.4538 181.084 90.9124 181.225 91.2299 181.578C91.4063 181.649 91.5121 181.79 91.6179 181.931C91.7591 182.037 91.9002 182.143 92.006 182.284C92.1471 182.39 92.2529 182.531 92.3941 182.637C92.7468 182.954 93.2055 183.095 93.523 183.448C93.6994 183.519 93.8052 183.66 93.911 183.801C94.0522 183.907 94.1933 184.012 94.2991 184.154C94.4402 184.259 94.546 184.401 94.6872 184.506C95.0047 184.824 95.4633 184.965 95.7808 185.318C95.9572 185.388 96.063 185.529 96.1688 185.671C96.31 185.776 96.4511 185.917 96.5569 186.023C97.0861 186.376 97.58 186.799 98.0739 187.188C98.215 187.258 98.3561 187.399 98.4619 187.54C98.6031 187.646 98.7442 187.787 98.85 187.893C98.9911 187.999 99.0969 188.14 99.2381 188.246C99.5556 188.563 100.014 188.704 100.332 189.057C100.473 189.128 100.614 189.269 100.72 189.41C100.861 189.516 101.002 189.657 101.108 189.763C101.461 190.045 101.919 190.221 102.237 190.574C102.413 190.645 102.519 190.786 102.625 190.927C102.766 191.033 102.907 191.139 103.013 191.28C103.154 191.386 103.26 191.527 103.401 191.633C103.754 191.95 104.177 192.091 104.53 192.444C104.706 192.515 104.812 192.656 104.918 192.797C105.059 192.903 105.2 193.008 105.306 193.15C105.447 193.255 105.553 193.397 105.694 193.502C106.012 193.82 106.47 193.961 106.788 194.314C106.964 194.384 107.07 194.525 107.176 194.667C107.317 194.772 107.458 194.878 107.564 195.055C107.74 195.16 107.846 195.266 107.952 195.443C108.128 195.513 108.234 195.654 108.34 195.831C108.481 195.937 108.622 196.042 108.728 196.183C108.869 196.289 108.975 196.43 109.116 196.536C109.292 196.783 109.68 196.677 109.857 196.96C110.033 197.03 110.139 197.171 110.245 197.312C110.386 197.383 110.527 197.524 110.633 197.665C110.845 197.877 111.197 197.806 111.374 198.053C111.515 198.124 111.55 198.194 111.515 198.265C111.48 198.335 111.409 198.371 111.374 198.371L111.55 198.477Z" fill="#FFB78A"/>
<path d="M384.746 292.493C384.781 291.682 384.816 290.87 384.993 290.059C385.134 289.459 385.204 288.789 385.098 288.189C384.851 286.249 384.781 284.309 384.252 282.439C383.864 280.993 382.982 279.828 382.311 278.594C381.959 277.923 381.5 277.324 381.077 276.689C381.147 276.512 381.218 276.477 381.359 276.618C381.712 276.618 382.1 276.618 382.453 276.618C383.581 277.112 384.781 276.477 385.91 276.971C386.157 276.971 386.368 276.971 386.615 276.971C387.85 277.465 389.226 276.83 390.461 277.324C390.567 277.324 390.672 277.324 390.814 277.324C391.66 277.817 392.648 277.218 393.495 277.676C393.6 277.712 393.706 277.712 393.847 277.676C395.329 278.17 396.952 277.535 398.434 278.029H399.139C401.432 278.347 403.761 278.311 406.054 278.029C406.548 278.029 407.042 278.029 407.5 278.029C408.241 277.571 409.123 278.1 409.829 277.676C409.934 277.676 410.04 277.676 410.146 277.676C410.993 277.182 411.981 277.782 412.862 277.288C412.968 277.288 413.074 277.288 413.18 277.288C414.027 276.794 415.014 277.394 415.861 276.9C416.567 276.406 417.484 276.971 418.19 276.547C418.295 276.547 418.401 276.547 418.507 276.547C420.024 276.195 421.541 276.265 423.058 276.547C423.164 276.583 423.27 276.618 423.375 276.583C423.622 276.759 423.975 276.689 424.187 276.971C424.328 277.041 424.469 277.182 424.61 277.324C424.716 277.465 424.857 277.571 424.998 277.676C425.104 277.817 425.245 277.959 425.351 278.064C425.492 278.206 425.633 278.311 425.704 278.452C425.951 278.629 425.88 278.982 426.092 279.193C426.339 279.405 426.268 279.758 426.48 280.005C426.48 280.111 426.48 280.216 426.515 280.322C426.833 280.64 426.515 281.169 426.868 281.451C427.185 281.804 426.939 282.298 427.221 282.651C427.221 282.756 427.221 282.862 427.221 282.968C427.644 283.391 427.221 284.062 427.609 284.485C427.962 284.803 427.679 285.332 427.962 285.685C427.962 285.79 427.962 285.896 428.032 286.002C428.138 286.143 428.244 286.249 428.385 286.355C428.667 286.743 429.196 286.39 429.479 286.778C429.796 287.096 430.325 286.778 430.643 287.166C430.854 287.343 431.207 287.307 431.419 287.519C431.701 287.872 432.266 287.519 432.548 287.907C432.759 288.083 433.112 288.048 433.324 288.26C433.606 288.613 434.171 288.26 434.453 288.648C434.664 288.824 435.017 288.754 435.229 289.036C435.441 289.212 435.793 289.142 436.005 289.424C436.287 289.565 436.181 289.953 436.428 290.13C436.675 290.518 436.711 290.906 436.428 291.259C436.111 291.576 436.428 292.105 436.04 292.387C435.829 292.599 435.899 292.952 435.688 293.164C435.652 293.269 435.617 293.34 435.652 293.446C435.476 293.693 435.546 294.046 435.3 294.292C435.088 294.504 435.158 294.822 434.947 295.033C434.911 295.139 434.876 295.245 434.911 295.351C434.735 295.598 434.77 295.951 434.559 296.162C434.206 296.444 434.559 297.009 434.171 297.291C433.959 297.503 434.029 297.856 433.818 298.067C433.465 298.349 433.818 298.914 433.43 299.196C433.218 299.408 433.289 299.725 433.077 299.937C433.042 300.043 433.006 300.149 433.042 300.254C432.865 300.501 432.901 300.854 432.689 301.101C432.336 301.383 432.689 301.948 432.301 302.23C432.089 302.442 432.16 302.795 431.913 303.006C431.595 304.029 431.631 305.052 431.913 306.111C431.913 306.358 431.913 306.569 431.913 306.816C432.407 307.804 431.807 308.898 432.266 309.885C432.266 309.991 432.266 310.097 432.266 310.203C432.759 311.332 432.16 312.567 432.618 313.696C432.618 313.801 432.618 313.907 432.654 314.013C432.759 314.119 432.795 314.225 432.724 314.295C432.689 314.366 432.618 314.401 432.583 314.401C431.384 313.907 430.114 313.942 428.879 313.731C425.704 313.237 422.529 312.849 419.318 312.426C418.331 312.284 417.308 312.143 416.32 312.037C415.685 311.967 415.332 311.649 415.014 311.12C413.004 307.698 410.993 304.276 408.911 300.89C407.465 298.526 408.029 298.632 404.854 298.914C401.785 299.196 398.716 299.655 395.682 300.149C394.447 300.36 393.6 300.008 392.895 299.055C391.978 297.856 391.096 296.621 390.178 295.421C389.579 294.61 388.944 293.834 388.344 293.022C387.85 292.352 387.145 292.176 386.368 291.999C385.769 291.858 385.24 291.964 384.781 292.387L384.746 292.493Z" fill="#FFB78A"/>
<path d="M393.812 345.093C393.671 345.093 393.53 345.128 393.424 345.163C391.413 344.669 389.791 343.576 388.168 342.341C384.428 339.413 382.1 335.497 380.477 331.158C380.054 329.993 379.807 328.723 379.525 327.524C379.419 327.03 379.525 326.536 379.525 326.007C379.525 325.76 379.877 325.584 380.089 325.69C381.042 326.183 381.853 326.818 382.17 327.983C382.629 329.676 383.299 331.334 384.287 332.78C385.698 334.862 387.145 336.908 389.014 338.637C389.438 339.025 389.967 339.272 390.461 339.519C391.696 340.154 392.93 340.753 394.2 341.388C395.012 341.776 395.47 342.376 395.435 343.329C395.294 343.576 395.118 343.787 394.976 344.034C394.765 344.034 394.624 344.175 394.553 344.387C394.341 344.422 394.236 344.563 394.2 344.775C393.989 344.81 393.848 344.952 393.812 345.128V345.093Z" fill="#623307"/>
<path d="M239.293 189.833C239.434 189.692 239.54 189.586 239.681 189.445C239.822 189.304 239.928 189.198 240.069 189.057C240.21 188.916 240.316 188.81 240.457 188.669C240.881 187.787 241.586 187.152 242.256 186.481C243.773 185 245.079 184.788 246.843 185.952C252.381 189.692 257.814 193.608 263.282 197.453C264.729 198.476 265.575 200.134 266.881 201.333C270.973 205.108 275.383 208.495 279.616 212.058C290.27 220.948 301.03 229.733 311.684 238.623C313.06 239.752 314.542 240.704 316.023 241.657C322.656 246.031 329.253 250.476 335.885 254.886C336.697 255.415 337.402 255.98 337.861 256.826C339.907 258.061 341.953 259.331 343.999 260.566C349.397 263.811 354.794 267.057 360.227 270.303C363.296 272.172 366.401 273.972 369.47 275.877C372.681 277.852 374.727 280.78 375.926 284.273C376.667 286.39 377.126 288.612 376.949 290.94C376.702 294.539 375.397 297.679 373.245 300.501C372.398 301.63 371.128 302.3 369.894 302.935C366.083 304.875 362.062 305.722 357.793 305.299C354.265 304.946 351.055 303.676 348.233 301.524C344.916 299.019 342.906 295.703 341.988 291.681C341.459 289.318 341.424 289.318 339.519 287.977C332.887 283.356 326.289 278.734 319.657 274.148C315.882 271.502 312.072 268.891 308.298 266.281C307.839 265.963 307.416 265.54 306.816 265.47C306.639 265.117 306.393 264.87 306.04 264.764C305.899 264.482 305.616 264.376 305.334 264.305C305.193 264.199 305.052 264.094 304.911 263.988C304.77 263.882 304.629 263.741 304.523 263.635C304.346 263.353 304.099 263.247 303.782 263.212C303.641 263.106 303.5 263 303.359 262.859C303.217 262.577 302.935 262.471 302.653 262.436C302.512 262.33 302.371 262.224 302.23 262.118C302.089 261.836 301.806 261.73 301.524 261.659C301.383 261.554 301.242 261.448 301.101 261.342C300.96 261.06 300.677 260.954 300.395 260.883C300.254 260.777 300.113 260.672 299.972 260.566C299.831 260.46 299.69 260.319 299.548 260.213C299.407 259.931 299.125 259.825 298.843 259.79C298.702 259.684 298.561 259.543 298.42 259.437C298.278 259.296 298.173 259.19 298.032 259.049C297.926 258.908 297.785 258.802 297.679 258.661C297.573 258.52 297.432 258.379 297.326 258.273C297.22 258.132 297.079 257.99 296.973 257.885C296.515 256.72 295.562 256.05 294.645 255.274C294.504 255.133 294.398 255.027 294.257 254.886C294.116 254.745 294.01 254.639 293.869 254.498C293.728 254.357 293.622 254.251 293.481 254.11C293.34 253.969 293.234 253.863 293.093 253.722C292.951 253.581 292.846 253.475 292.705 253.334C292.563 253.193 292.458 253.087 292.316 252.946C292.175 252.805 292.069 252.699 291.928 252.558C291.787 252.417 291.681 252.311 291.54 252.17C291.399 252.028 291.293 251.923 291.152 251.782C291.011 251.64 290.905 251.535 290.764 251.393C290.623 251.252 290.517 251.146 290.376 251.005C290.235 250.864 290.129 250.758 289.988 250.617C289.847 250.476 289.741 250.37 289.6 250.229C289.459 250.088 289.353 249.982 289.212 249.841C289.071 249.7 288.965 249.594 288.824 249.453C288.683 249.312 288.577 249.206 288.436 249.065C288.295 248.924 288.189 248.818 288.048 248.677C287.907 248.536 287.801 248.43 287.66 248.289C287.519 248.148 287.413 248.042 287.272 247.901C287.131 247.76 287.025 247.654 286.884 247.513C286.742 247.372 286.637 247.266 286.496 247.125C286.39 246.984 286.249 246.878 286.143 246.737C285.402 245.361 284.167 244.408 283.038 243.385C282.897 243.244 282.791 243.138 282.65 242.997C282.509 242.856 282.403 242.75 282.262 242.609C282.121 242.468 282.015 242.362 281.874 242.221C281.733 242.08 281.627 241.974 281.486 241.833C281.345 241.692 281.239 241.586 281.098 241.445C280.957 241.304 280.851 241.198 280.71 241.057C280.569 240.916 280.463 240.81 280.322 240.669C280.181 240.528 280.075 240.422 279.934 240.281C279.793 240.14 279.687 240.034 279.546 239.893C279.405 239.752 279.299 239.646 279.158 239.505C279.017 239.364 278.911 239.258 278.77 239.117C278.628 238.975 278.523 238.87 278.381 238.729C278.24 238.587 278.135 238.482 277.993 238.34C277.852 238.199 277.746 238.094 277.605 237.952C277.464 237.811 277.358 237.705 277.217 237.564C277.076 237.423 276.97 237.317 276.829 237.176C276.688 237.035 276.582 236.929 276.441 236.788C276.3 236.647 276.194 236.541 276.053 236.4C275.912 236.259 275.806 236.153 275.665 236.012C275.524 235.871 275.418 235.765 275.277 235.624C275.136 235.483 275.03 235.377 274.889 235.236C274.783 235.095 274.642 234.989 274.536 234.848C274.43 234.425 274.148 234.072 273.831 233.79C272.878 232.908 272.102 231.885 271.044 231.144C270.902 231.003 270.797 230.897 270.656 230.756C270.514 230.614 270.409 230.509 270.267 230.368C270.126 230.226 270.021 230.121 269.879 229.979C269.738 229.838 269.632 229.733 269.491 229.591C269.35 229.45 269.244 229.344 269.103 229.203C268.962 229.062 268.856 228.956 268.715 228.815C268.574 228.674 268.468 228.568 268.327 228.427C268.186 228.286 268.08 228.18 267.939 228.039C267.798 227.898 267.692 227.792 267.551 227.651C267.41 227.51 267.304 227.404 267.163 227.263C267.022 227.122 266.916 227.016 266.775 226.875C266.634 226.734 266.528 226.628 266.387 226.487C266.246 226.346 266.14 226.24 265.999 226.099C265.858 225.958 265.752 225.852 265.611 225.711C265.47 225.57 265.364 225.464 265.223 225.323C265.082 225.182 264.976 225.076 264.835 224.935C264.694 224.794 264.588 224.688 264.447 224.547C264.305 224.406 264.2 224.3 264.058 224.159C263.917 224.017 263.812 223.912 263.67 223.77C263.529 223.629 263.423 223.524 263.282 223.382C263.141 223.241 263.035 223.135 262.894 222.994C262.753 222.853 262.647 222.747 262.506 222.606C262.4 222.465 262.259 222.359 262.153 222.218C261.413 220.842 260.178 219.89 259.049 218.867L258.661 218.479C258.52 218.338 258.414 218.232 258.273 218.091C258.132 217.95 258.026 217.844 257.885 217.703C257.744 217.562 257.638 217.456 257.497 217.315C257.356 217.173 257.25 217.068 257.109 216.927C256.968 216.785 256.862 216.68 256.721 216.538C256.579 216.397 256.474 216.291 256.333 216.15C256.191 216.009 256.086 215.903 255.944 215.762C255.803 215.621 255.698 215.515 255.556 215.374C255.415 215.233 255.309 215.127 255.168 214.986C255.027 214.845 254.921 214.739 254.78 214.598C254.639 214.457 254.533 214.351 254.392 214.21C254.251 214.069 254.145 213.963 254.004 213.822C253.863 213.681 253.757 213.575 253.616 213.434C253.475 213.293 253.369 213.187 253.228 213.046C253.087 212.905 252.981 212.799 252.84 212.658C252.699 212.517 252.593 212.411 252.452 212.27C252.311 212.129 252.205 212.023 252.064 211.882C251.923 211.741 251.817 211.635 251.676 211.494C251.535 211.353 251.429 211.247 251.288 211.106C251.147 210.964 251.041 210.859 250.9 210.718C250.794 210.576 250.653 210.471 250.547 210.329C250.37 209.73 250.018 209.342 249.383 209.201C249.242 209.095 249.1 208.954 248.995 208.848C248.854 208.707 248.748 208.601 248.607 208.46C248.501 208.319 248.36 208.213 248.254 208.072C248.148 207.931 248.007 207.825 247.901 207.684C247.795 207.19 247.513 206.837 247.054 206.625C246.913 206.484 246.807 206.378 246.666 206.237C246.56 206.096 246.419 205.99 246.313 205.849C246.208 205.708 246.067 205.567 245.961 205.461C245.855 205.32 245.714 205.179 245.608 205.073C245.502 204.932 245.361 204.791 245.255 204.685C245.149 204.191 244.867 203.838 244.408 203.627C244.303 203.485 244.161 203.38 244.056 203.238C243.95 203.097 243.809 202.956 243.703 202.815C243.597 202.321 243.35 201.933 242.891 201.722C242.786 201.58 242.645 201.439 242.539 201.333C242.433 201.192 242.327 201.051 242.186 200.91C242.08 200.416 241.833 200.028 241.375 199.817C241.269 199.675 241.163 199.534 241.022 199.393C240.916 198.899 240.669 198.511 240.21 198.3C240.104 198.158 239.999 198.017 239.893 197.876C239.858 197.594 239.752 197.312 239.469 197.171C239.364 197.03 239.258 196.888 239.152 196.747C239.117 196.43 239.011 196.183 238.729 196.042C238.623 195.901 238.517 195.759 238.376 195.618C238.341 195.301 238.235 195.054 237.953 194.878C237.847 194.736 237.741 194.595 237.635 194.454C237.6 194.172 237.494 193.89 237.247 193.713C237.176 193.325 237.176 192.902 236.788 192.62C236.788 191.985 236.788 191.385 236.824 190.75C236.929 190.609 237.071 190.503 237.176 190.362C237.282 190.221 237.423 190.08 237.529 189.974C237.635 189.833 237.776 189.727 237.882 189.586C238.023 189.445 238.129 189.339 238.27 189.198L239.293 189.833Z" fill="#FFB78A"/>
<path d="M337.826 256.862C331.228 252.452 324.667 248.042 318.07 243.633C316.2 242.363 314.295 241.163 312.425 239.858C311.402 239.152 310.45 238.306 309.497 237.494C307.416 235.801 305.334 234.072 303.253 232.344C301.595 230.968 300.007 229.592 298.349 228.216C295.703 226.064 293.198 223.806 290.482 221.795C289.388 220.984 288.401 219.996 287.342 219.114C286.178 218.162 285.014 217.209 283.85 216.257C282.932 215.516 282.05 214.704 281.098 213.964C278.981 212.306 276.9 210.577 274.818 208.848C273.09 207.402 271.432 205.85 269.632 204.474C268.327 203.486 267.128 202.357 265.999 201.158C265.258 200.381 264.623 199.535 263.917 198.723C263.353 198.124 262.718 197.63 262.048 197.171C258.59 194.772 255.168 192.338 251.711 189.904C249.947 188.669 248.219 187.434 246.455 186.235C245.114 185.353 244.056 185.459 242.821 186.517C242.433 186.835 242.115 187.223 241.727 187.575C241.304 187.963 240.986 188.422 240.457 188.669C240.457 188.316 240.493 187.963 240.528 187.611C240.634 187.47 240.775 187.328 240.881 187.223C241.41 186.835 241.833 186.376 242.045 185.741C242.151 185.6 242.292 185.494 242.398 185.353C242.503 185.212 242.645 185.106 242.75 184.965C242.856 184.824 242.997 184.718 243.103 184.577C243.209 184.436 243.35 184.33 243.456 184.189C243.668 184.118 243.773 184.012 243.809 183.801C244.444 183.201 245.114 182.566 245.749 181.966C246.596 181.825 247.478 181.86 248.324 181.966C248.501 182.213 248.748 182.319 249.065 182.354C249.206 182.46 249.347 182.566 249.489 182.672C249.63 182.954 249.912 183.06 250.194 183.095C250.476 183.518 250.829 183.765 251.323 183.836C251.605 184.259 251.958 184.506 252.487 184.577C252.628 184.859 252.911 184.965 253.193 185.035C253.334 185.141 253.475 185.247 253.651 185.353C253.792 185.635 254.075 185.741 254.357 185.811C254.498 185.917 254.639 186.023 254.78 186.129C254.921 186.411 255.204 186.517 255.486 186.552C255.627 186.658 255.768 186.764 255.909 186.87C256.05 187.152 256.333 187.258 256.615 187.293C256.897 187.717 257.285 187.963 257.779 188.034C258.061 188.457 258.414 188.704 258.908 188.775C259.19 189.198 259.543 189.445 260.072 189.516C260.213 189.798 260.495 189.904 260.778 189.974C260.919 190.08 261.06 190.186 261.236 190.292C261.377 190.574 261.66 190.68 261.942 190.75C262.083 190.856 262.224 190.962 262.4 191.068C262.542 191.35 262.824 191.456 263.106 191.527C263.247 191.632 263.388 191.738 263.529 191.844C263.67 192.126 263.953 192.232 264.235 192.267C264.376 192.373 264.517 192.479 264.658 192.585C264.799 192.867 265.082 192.973 265.364 193.044C265.505 193.149 265.646 193.255 265.787 193.361C266.069 193.855 266.457 194.208 266.951 194.49C267.057 194.631 267.198 194.772 267.304 194.878C267.41 195.019 267.551 195.16 267.657 195.301C267.763 195.442 267.904 195.584 268.01 195.689C268.151 195.831 268.257 195.936 268.398 196.077C268.539 196.219 268.645 196.324 268.786 196.43C268.927 196.536 269.068 196.677 269.174 196.783C269.315 196.889 269.456 197.03 269.562 197.136C269.703 197.242 269.844 197.383 269.95 197.489C270.091 197.594 270.197 197.736 270.338 197.841C270.585 198.265 270.938 198.547 271.396 198.688C271.538 198.794 271.679 198.9 271.82 199.006C271.961 199.111 272.102 199.217 272.243 199.358C272.49 199.817 272.843 200.064 273.337 200.17C273.478 200.276 273.619 200.381 273.76 200.487C274.007 200.946 274.36 201.193 274.854 201.299C274.995 201.404 275.136 201.51 275.277 201.616C275.418 201.722 275.559 201.863 275.7 201.969C275.841 202.251 276.088 202.357 276.371 202.428C276.512 202.533 276.653 202.639 276.794 202.745C276.935 202.851 277.076 202.957 277.217 203.098C277.464 203.556 277.817 203.803 278.311 203.909C278.452 204.015 278.593 204.121 278.734 204.227C278.981 204.685 279.334 204.932 279.828 205.038C279.969 205.144 280.11 205.25 280.251 205.356C280.498 205.814 280.851 206.061 281.345 206.167C281.486 206.273 281.627 206.379 281.768 206.485C281.909 206.59 282.05 206.732 282.192 206.837C282.333 207.12 282.58 207.225 282.862 207.296C283.003 207.402 283.144 207.508 283.285 207.613C283.426 207.719 283.567 207.825 283.709 207.966C283.955 208.425 284.308 208.672 284.802 208.778C284.943 208.883 285.084 208.989 285.226 209.095C285.472 209.554 285.825 209.801 286.319 209.907C286.46 210.012 286.601 210.118 286.742 210.224C286.884 210.33 287.025 210.471 287.166 210.577C287.307 210.859 287.554 210.965 287.836 211.071C287.977 211.177 288.118 211.282 288.259 211.388C288.401 211.494 288.542 211.6 288.683 211.741C288.93 212.2 289.283 212.447 289.776 212.552C289.918 212.658 290.059 212.764 290.2 212.87C290.447 213.329 290.799 213.576 291.293 213.681C291.434 213.787 291.576 213.893 291.717 213.999C291.858 214.105 291.999 214.246 292.14 214.352C292.281 214.634 292.528 214.74 292.81 214.81C292.951 214.916 293.093 215.022 293.234 215.128C293.375 215.234 293.516 215.339 293.657 215.481C293.904 215.939 294.257 216.186 294.751 216.292C294.892 216.398 295.033 216.504 295.174 216.609C295.421 217.068 295.774 217.315 296.268 217.421C296.409 217.527 296.55 217.633 296.691 217.738C296.938 218.162 297.291 218.444 297.785 218.55C297.926 218.656 298.067 218.761 298.208 218.867C298.349 218.973 298.49 219.079 298.631 219.22C298.878 219.679 299.231 219.926 299.725 220.031C299.866 220.137 300.007 220.243 300.148 220.349C300.395 220.808 300.748 221.055 301.242 221.16C301.383 221.266 301.524 221.372 301.665 221.478C301.912 221.936 302.265 222.183 302.759 222.289C302.9 222.395 303.041 222.501 303.182 222.607C303.323 222.713 303.464 222.854 303.606 222.96C303.747 223.242 303.994 223.348 304.276 223.418C304.417 223.524 304.558 223.63 304.699 223.736C304.84 223.842 304.981 223.947 305.122 224.088C305.369 224.547 305.722 224.794 306.216 224.9C306.357 225.006 306.498 225.112 306.639 225.217C306.886 225.676 307.239 225.923 307.733 226.029C307.874 226.135 308.015 226.24 308.156 226.346C308.298 226.452 308.439 226.593 308.58 226.699C308.721 226.981 308.968 227.087 309.25 227.158C309.391 227.264 309.532 227.369 309.673 227.475C309.815 227.581 309.956 227.687 310.097 227.828C310.344 228.287 310.696 228.534 311.19 228.639C311.331 228.745 311.473 228.851 311.614 228.957C311.861 229.416 312.213 229.662 312.707 229.768C312.848 229.874 312.99 229.98 313.131 230.086C313.272 230.192 313.413 230.333 313.554 230.439C313.695 230.721 313.942 230.827 314.224 230.897C314.365 231.003 314.507 231.109 314.648 231.215C314.789 231.321 314.93 231.426 315.071 231.567C315.318 232.026 315.671 232.273 316.165 232.379C316.306 232.485 316.447 232.591 316.588 232.696C316.764 232.979 317.011 233.084 317.329 233.084C317.505 233.367 317.752 233.473 318.07 233.508C318.352 233.931 318.74 234.178 319.234 234.249C319.375 234.531 319.657 234.637 319.939 234.672C320.081 234.778 320.222 234.884 320.398 234.989C320.574 235.272 320.821 235.378 321.139 235.413C321.315 235.695 321.562 235.801 321.844 235.836C321.986 235.942 322.127 236.048 322.303 236.118C322.444 236.401 322.726 236.506 323.009 236.542C323.291 236.965 323.679 237.212 324.173 237.247C324.314 237.53 324.596 237.635 324.878 237.671C325.161 238.059 325.549 238.341 326.043 238.376C326.184 238.658 326.466 238.764 326.748 238.8C326.889 238.905 327.03 239.011 327.207 239.117C327.383 239.399 327.63 239.505 327.948 239.54C328.124 239.823 328.371 239.893 328.653 239.964C328.794 240.07 328.935 240.175 329.112 240.246C329.253 240.528 329.535 240.634 329.817 240.669C330.1 241.093 330.488 241.34 330.982 241.375C331.123 241.657 331.405 241.763 331.687 241.798C331.828 241.904 331.969 242.01 332.11 242.116C332.287 242.398 332.534 242.504 332.851 242.539C332.992 242.821 333.275 242.927 333.557 242.962C333.698 243.068 333.839 243.174 334.015 243.28C334.192 243.562 334.439 243.668 334.756 243.703C334.933 243.985 335.18 244.056 335.462 244.127C335.603 244.232 335.744 244.338 335.92 244.409C336.062 244.691 336.344 244.797 336.626 244.832C336.908 245.255 337.296 245.502 337.79 245.538C337.931 245.82 338.214 245.926 338.496 245.961C338.637 246.067 338.778 246.173 338.919 246.279C339.096 246.561 339.342 246.667 339.66 246.702C339.801 246.984 340.083 247.09 340.366 247.125C340.507 247.231 340.648 247.337 340.824 247.443C340.965 247.725 341.248 247.831 341.565 247.866C341.741 248.148 341.988 248.219 342.271 248.289C342.412 248.395 342.588 248.501 342.729 248.572C342.87 248.854 343.153 248.96 343.435 248.995C343.611 249.277 343.858 249.348 344.14 249.418C344.281 249.524 344.458 249.595 344.599 249.701C344.775 249.983 345.022 250.089 345.34 250.124C345.516 250.406 345.763 250.477 346.081 250.547C346.257 250.794 346.539 250.9 346.821 250.935C346.963 251.041 347.139 251.147 347.28 251.218C347.457 251.5 347.703 251.606 348.021 251.606C348.197 251.888 348.444 251.994 348.762 251.994C348.938 252.276 349.22 252.346 349.503 252.382C349.679 252.664 349.961 252.734 350.243 252.805C350.561 253.193 350.949 253.44 351.443 253.475C351.619 253.758 351.866 253.863 352.184 253.863C352.36 254.146 352.607 254.216 352.925 254.251C353.101 254.534 353.348 254.604 353.665 254.64C353.665 254.745 353.736 254.851 353.771 254.922C353.842 255.275 353.771 255.451 353.348 255.345C351.055 255.098 348.762 254.886 346.469 254.64C345.975 254.604 345.446 254.534 344.987 254.64C343.011 255.204 340.895 255.169 338.919 255.663C338.496 255.768 338.249 255.945 338.249 256.403L337.826 256.862Z" fill="#E6A37B"/>
</svg>
