<svg width="500" height="500" viewBox="0 0 500 500" fill="none" xmlns="http://www.w3.org/2000/svg">
<path d="M175.837 370.561H175.976L176.114 370.607C176.991 371.115 178.006 370.515 178.883 371.022H179.067C179.067 370.976 179.206 371.022 179.206 371.022C180.636 371.668 182.205 370.884 183.681 371.484C184.558 372.037 185.573 371.438 186.45 371.899H186.588C186.588 371.853 186.727 371.899 186.727 371.899C187.096 372.222 187.557 372.13 187.973 372.13C198.077 372.13 208.136 372.13 218.241 372.13C234.252 372.13 250.263 372.084 266.273 372.084C266.919 372.084 267.611 372.268 268.211 371.853C268.442 371.853 268.719 371.853 268.95 371.853C271.487 371.253 274.071 372.13 276.609 371.392C278.039 370.838 279.654 371.622 281.085 370.976L281.223 370.884H281.361C282.423 370.469 283.622 371.115 284.637 370.515C285.33 370.007 286.206 370.607 286.898 370.1C287.729 369.546 288.744 370.284 289.574 369.638C289.944 369.269 290.543 369.638 290.959 369.223L291.097 369.131H291.236C291.835 368.808 292.62 369.315 293.173 368.715C293.496 368.577 293.866 368.623 294.096 368.346C294.373 368.116 294.788 368.208 295.019 367.885C295.296 367.654 295.665 367.746 295.942 367.47C296.634 367.054 297.465 367.008 298.157 366.501C298.434 366.316 298.849 366.408 299.079 366.085C299.356 365.855 299.772 365.947 300.002 365.67C300.233 365.439 300.694 365.532 300.879 365.209C301.156 364.978 301.571 365.07 301.756 364.747C302.263 364.517 302.725 364.24 303.14 363.917C303.371 363.686 303.878 363.778 304.017 363.363H303.97C304.247 363.363 304.386 363.178 304.478 362.994C304.663 362.948 304.801 362.763 304.986 362.625C305.355 362.256 305.954 362.117 306.231 361.61C306.508 361.61 306.647 361.425 306.739 361.194C306.97 361.194 307.154 361.01 307.246 360.779C307.477 360.733 307.616 360.548 307.754 360.364C307.985 360.318 308.123 360.133 308.262 359.949C308.446 359.856 308.584 359.718 308.723 359.533C308.907 359.441 309.092 359.256 309.184 359.072C309.415 358.98 309.553 358.841 309.646 358.564H309.6C311.999 357.042 312.368 354.366 313.199 351.966C313.798 351.551 313.199 350.72 313.706 350.259C314.168 349.705 313.752 348.921 314.121 348.321C314.029 348.229 314.029 348.137 314.121 348.044C314.767 346.891 313.983 345.599 314.583 344.445C314.998 343.615 314.952 342.692 314.583 341.815C314.491 341.723 314.491 341.585 314.583 341.492C314.121 340.754 314.675 339.877 314.168 339.185C314.075 339.093 314.029 339.001 314.121 338.908C313.845 338.447 314.121 337.801 313.66 337.432C313.337 337.063 313.66 336.463 313.199 336.094C312.829 335.771 313.199 335.079 312.691 334.802C312.506 334.525 312.599 334.11 312.183 333.925H312.23C312.183 333.741 311.999 333.602 311.814 333.464C311.538 332.91 311.03 332.495 310.522 332.126C310.246 331.895 310.338 331.48 310.015 331.249C309.784 331.018 309.876 330.557 309.507 330.372C309.415 330.188 309.277 330.049 309.092 329.911C308.446 328.942 307.569 328.158 306.785 327.327H306.831C306.785 327.096 306.6 326.958 306.37 326.866C306.277 326.681 306.139 326.497 305.908 326.404C305.816 326.22 305.678 326.035 305.401 325.989C305.308 325.804 305.17 325.62 304.893 325.574C304.801 325.343 304.663 325.205 304.386 325.158C304.109 324.697 303.509 324.605 303.14 324.189C302.955 324.051 302.817 323.867 302.678 323.774C302.54 323.59 302.402 323.451 302.171 323.359C302.079 323.174 301.894 322.99 301.663 322.944H301.71C301.571 322.575 301.11 322.713 300.879 322.436C300.694 322.298 300.556 322.113 300.371 322.021C300.233 321.836 300.095 321.652 299.864 321.606H299.91C299.772 321.283 299.31 321.375 299.079 321.098C298.941 320.96 298.803 320.775 298.572 320.683C298.387 320.36 297.926 320.498 297.741 320.175C297.557 320.037 297.418 319.852 297.234 319.76C296.865 319.391 296.357 319.16 295.896 318.883C295.711 318.56 295.25 318.699 295.065 318.376C294.881 318.237 294.742 318.053 294.558 318.007C294.373 317.684 293.912 317.776 293.681 317.545C293.543 317.407 293.404 317.222 293.127 317.176H293.173C292.989 316.853 292.574 316.945 292.297 316.715C292.112 316.392 291.651 316.53 291.42 316.253C291.236 316.115 291.097 315.93 290.866 315.884H290.913C290.728 315.515 290.313 315.607 289.99 315.423C289.805 315.1 289.344 315.192 289.113 314.961C288.882 314.684 288.467 314.777 288.236 314.5C288.052 314.362 287.913 314.177 287.683 314.131H287.729C287.544 313.762 287.129 313.854 286.806 313.669C286.621 313.346 286.16 313.439 285.883 313.208C285.653 312.885 285.237 312.977 285.007 312.747C284.776 312.47 284.361 312.562 284.13 312.285C283.899 312.008 283.484 312.101 283.253 311.824C283.022 311.547 282.607 311.639 282.377 311.362C282.146 311.132 281.731 311.178 281.5 310.901C281.269 310.67 280.854 310.716 280.623 310.44C280.392 310.209 279.977 310.255 279.747 309.978C279.516 309.747 279.101 309.794 278.87 309.563C278.639 309.286 278.224 309.378 277.993 309.148C277.762 308.871 277.347 308.963 277.07 308.732C276.84 308.455 276.424 308.502 276.148 308.317C275.917 308.04 275.502 308.086 275.225 307.902C274.994 307.579 274.579 307.625 274.302 307.487C274.025 306.979 273.333 307.394 273.01 306.979C272.733 306.748 272.364 306.794 272.087 306.564C271.856 306.287 271.441 306.333 271.164 306.148C270.887 305.825 270.472 305.872 270.103 305.733C270.011 305.779 269.919 305.733 269.826 305.641C269.549 305.41 269.18 305.456 268.903 305.226C268.673 304.949 268.257 304.995 267.981 304.81C267.473 304.072 266.643 303.934 265.858 303.611C264.289 302.872 262.628 302.596 260.967 302.411C256.63 301.857 252.431 300.658 248.509 298.72C246.617 297.797 244.818 297.428 242.788 297.889C239.558 298.535 236.282 299.089 233.006 299.689C232.36 299.827 231.668 299.873 231.206 300.381C230.976 300.704 230.837 301.073 230.883 301.396C231.806 306.841 229.222 311.132 225.854 314.777C217.872 323.497 207.905 328.85 196.232 330.603C193.002 331.064 189.634 331.064 186.358 330.096C180.036 328.158 177.822 323.405 180.498 317.361C180.913 316.392 181.467 315.515 181.974 314.638C183.266 312.562 183.266 312.101 181.19 310.624C173.946 305.503 166.702 300.473 159.458 295.398C147.461 286.954 135.372 278.649 123.422 270.159C122.36 269.374 121.345 268.498 119.869 268.544C119.638 268.59 119.453 268.728 119.361 268.959C119.084 268.959 118.946 269.144 118.854 269.374C118.577 269.374 118.438 269.559 118.346 269.79C118.115 269.79 117.931 269.974 117.839 270.251C117.608 270.251 117.423 270.436 117.331 270.712C117.1 270.712 116.916 270.897 116.823 271.174C116.593 271.174 116.408 271.358 116.316 271.635C116.085 271.635 115.901 271.82 115.854 272.097H115.901C114.886 273.25 113.547 274.173 112.717 275.603C112.486 275.696 112.348 275.834 112.255 276.065H112.302C111.748 276.526 111.287 277.126 110.917 277.772C110.687 277.864 110.548 278.003 110.456 278.279H110.502C109.995 278.556 109.81 279.11 109.533 279.571C109.072 280.125 108.472 280.633 108.241 281.371C107.826 281.463 107.964 281.925 107.688 282.201C107.503 282.34 107.318 282.478 107.272 282.709H107.318C106.903 282.801 106.995 283.263 106.765 283.539C106.396 283.909 106.119 284.37 105.888 284.878C105.058 285.754 104.688 286.954 104.089 287.969C103.719 288.107 103.766 288.569 103.581 288.846C103.212 288.984 103.304 289.446 103.12 289.722C102.751 289.907 102.797 290.322 102.658 290.599C102.105 291.568 101.643 292.583 101.274 293.69C100.813 294.336 100.674 295.167 100.351 295.905C99.5207 297.566 99.0131 299.412 98.5517 301.211C97.9057 301.627 98.5056 302.457 98.0442 302.965C97.3059 305.226 96.9829 307.625 96.6599 310.024C96.2908 313.762 95.6448 317.453 96.2447 321.283C96.6599 324.005 96.7984 326.773 97.5366 329.45C97.998 329.957 97.4443 330.741 97.998 331.203C98.3672 332.172 98.4133 333.325 98.967 334.294C99.2438 335.033 99.3823 335.817 99.8437 336.509C100.213 337.201 100.259 338.078 100.813 338.724C100.951 339.001 100.905 339.416 101.274 339.601C101.459 339.877 101.366 340.293 101.735 340.477C101.92 340.708 101.828 341.169 102.197 341.354C102.381 341.585 102.289 342.046 102.704 342.231C102.889 342.738 103.166 343.153 103.535 343.569C103.766 343.799 103.673 344.261 104.042 344.445C104.227 344.907 104.504 345.414 104.965 345.783H104.919C104.965 345.968 105.15 346.106 105.334 346.245C106.257 348.09 107.688 349.429 109.303 350.674C109.487 350.813 109.626 350.997 109.764 351.09C109.902 351.274 110.041 351.413 110.271 351.505C110.594 351.92 111.148 352.105 111.61 352.428C111.748 352.612 111.886 352.797 112.117 352.843H112.071C112.209 353.166 112.671 353.074 112.901 353.35C113.04 353.489 113.178 353.673 113.409 353.766H113.363C113.547 354.089 113.963 353.996 114.24 354.227C114.655 354.55 115.116 354.873 115.624 355.104C115.808 355.427 116.27 355.335 116.5 355.565C116.731 355.842 117.146 355.75 117.377 356.027C117.839 356.303 118.254 356.673 118.808 356.811C118.992 357.18 119.407 357.088 119.73 357.272C119.915 357.642 120.33 357.549 120.653 357.734C121.253 358.288 122.176 358.241 122.822 358.703C123.052 358.98 123.468 358.887 123.745 359.118C123.975 359.395 124.391 359.349 124.667 359.533C124.944 360.041 125.636 359.626 126.005 360.041C126.236 360.318 126.651 360.272 126.974 360.456C127.297 360.964 127.943 360.548 128.312 360.918C128.635 361.379 129.281 361.01 129.651 361.379C130.02 361.794 130.62 361.425 130.989 361.84C131.358 362.256 131.958 361.933 132.327 362.256C132.696 362.671 133.296 362.348 133.711 362.671C134.08 363.132 134.68 362.809 135.095 363.086C135.418 363.594 136.064 363.225 136.433 363.548C136.895 364.101 137.725 363.548 138.233 364.009C138.556 364.47 139.202 364.055 139.571 364.47C140.217 365.024 141.14 364.424 141.786 364.886C142.201 365.301 142.801 365.024 143.262 365.301H143.401L143.539 365.347C143.816 365.624 144.185 365.532 144.508 365.716C144.877 366.178 145.523 365.855 145.984 366.178H146.123C146.123 366.131 146.261 366.178 146.261 366.178C146.953 366.731 147.83 366.131 148.522 366.593C148.845 367.054 149.491 366.685 149.86 367.054C150.875 367.7 152.029 366.962 153.044 367.516H153.229C153.229 367.47 153.367 367.516 153.367 367.516C153.874 367.977 154.659 367.516 155.166 367.931C155.859 368.485 156.781 367.931 157.52 368.346H157.658C157.658 368.3 157.796 368.346 157.796 368.346C158.442 368.946 159.365 368.254 160.011 368.808C160.565 369.269 161.349 368.808 161.949 369.223C162.18 369.223 162.411 369.223 162.687 369.223C164.118 369.823 165.687 369.084 167.163 369.638C167.947 370.284 169.009 369.546 169.839 370.1C171.777 370.746 173.807 369.961 175.745 370.515L175.837 370.561Z" fill="#696D65"/>
<path d="M324.411 301.534C324.457 301.672 324.457 301.764 324.411 301.903C324.964 303.195 324.226 304.671 324.826 305.963C325.149 310.208 325.933 314.315 328.379 317.914C328.933 318.836 329.671 319.575 330.594 320.128C331.009 320.497 331.516 320.728 331.932 321.005C332.716 321.651 333.685 321.974 334.608 322.343C336.684 322.712 338.668 322.804 340.837 322.712C344.99 322.574 349.511 322.066 352.372 326.311C353.433 327.834 353.941 329.679 355.048 331.156C355.187 331.34 355.325 331.479 355.51 331.617C355.648 331.756 355.787 331.94 355.971 332.079C357.217 333.048 358.555 333.048 359.939 332.494C360.17 332.263 360.585 332.356 360.816 332.033C361.277 331.756 361.785 331.525 362.154 331.156C362.339 331.064 362.477 330.925 362.615 330.741C362.8 330.648 362.938 330.464 363.077 330.325C363.815 329.91 364.415 329.31 364.876 328.572C365.061 328.434 365.199 328.295 365.338 328.111C365.522 327.972 365.661 327.834 365.799 327.649C365.984 327.557 366.122 327.372 366.26 327.188C366.722 326.634 367.229 326.08 367.645 325.434C367.783 325.296 367.968 325.158 368.106 324.973C368.291 324.835 368.429 324.696 368.568 324.512C369.767 323.081 371.105 321.743 372.582 320.544C372.766 320.451 372.905 320.267 373.043 320.128C373.458 319.805 373.966 319.621 374.381 319.205C374.843 318.929 375.304 318.698 375.719 318.329C375.95 318.098 376.365 318.144 376.596 317.867C379.226 316.76 381.994 316.114 384.901 316.299C385.686 316.345 386.516 316.575 387.255 316.068C388.085 315.514 389.1 316.252 389.931 315.606C390.115 315.514 390.346 315.376 390.531 315.237C390.531 315.145 390.577 315.007 390.623 314.914C390.023 311.961 387.531 310.3 385.732 308.27C383.286 305.455 380.518 302.872 377.703 300.426C372.074 295.489 370.413 289.029 371.336 281.831C371.659 279.34 371.336 276.941 370.828 274.633C370.367 272.649 369.167 271.034 367.368 269.973C365.292 268.727 363.215 267.482 360.908 266.605C355.971 264.713 351.08 262.591 346.189 260.607C343.559 259.545 341.298 257.931 339.314 255.946C339.13 255.762 338.899 255.808 338.714 255.946C338.53 256.085 338.391 256.085 338.207 255.946C338.022 255.623 337.561 255.762 337.33 255.439C337.192 255.3 337.007 255.116 336.869 255.024C336.73 254.885 336.592 254.701 336.407 254.608C336.223 254.332 335.761 254.424 335.531 254.147C335.392 254.009 335.254 253.824 335.069 253.732C334.839 253.455 334.423 253.547 334.193 253.27C334.054 253.132 333.916 252.947 333.731 252.855C333.501 252.578 333.085 252.67 332.855 252.394C332.716 252.255 332.578 252.071 332.393 251.978C332.162 251.702 331.747 251.794 331.516 251.517C331.378 251.379 331.24 251.194 331.055 251.102C330.824 250.825 330.409 250.917 330.178 250.64C330.04 250.502 329.902 250.317 329.717 250.225C329.486 249.948 329.071 250.04 328.84 249.764C328.702 249.625 328.563 249.441 328.379 249.348C328.194 249.072 327.733 249.164 327.502 248.887C327.364 248.749 327.225 248.564 327.041 248.472C326.856 248.195 326.395 248.287 326.21 248.01C326.026 247.872 325.887 247.733 325.749 247.595C325.61 247.457 325.472 247.272 325.287 247.18C325.103 246.903 324.641 246.995 324.457 246.718C324.272 246.58 324.134 246.441 323.996 246.303C323.857 246.165 323.719 245.98 323.534 245.888C323.303 245.611 322.888 245.703 322.657 245.426C322.519 245.288 322.381 245.103 322.196 245.011C321.965 244.734 321.55 244.827 321.319 244.55C321.181 244.411 321.043 244.227 320.858 244.134C320.627 243.858 320.212 243.95 319.981 243.673C319.658 243.396 319.335 243.396 319.012 243.673C318.643 245.703 318.966 247.78 319.012 249.81C319.151 260.007 315.782 269.004 309.83 277.171C309.507 277.586 309.184 278.002 309 278.463C308.861 278.648 308.815 278.971 308.585 279.109C308.723 278.878 308.907 278.602 309 278.325C309.969 276.571 310.015 274.633 310.246 272.742C311.261 262.821 309.969 253.455 303.509 245.334C297.926 238.321 289.621 235.275 281.731 237.536C278.824 238.367 276.286 239.843 274.025 241.735C272.595 242.935 271.257 243.073 269.596 242.197C261.706 237.905 253.954 233.245 246.156 228.816C238.081 224.248 230.053 219.495 221.978 214.927C221.332 214.558 220.732 214.143 219.948 214.189C218.61 215.343 217.133 215.435 215.426 215.25C212.796 214.973 210.12 215.25 207.49 215.02C205.321 214.881 203.937 216.127 203.107 218.065C200.846 223.325 198.631 228.631 196.509 233.983C195.678 236.106 194.34 237.998 194.109 240.351C194.34 241.228 195.078 241.597 195.724 242.058C202.738 246.949 210.166 251.194 217.503 255.577C234.206 265.59 250.862 275.649 267.565 285.615C270.334 287.276 273.01 289.168 275.825 290.783C280.854 293.736 286.206 295.766 292.205 294.982C292.758 294.612 293.404 294.428 294.004 294.151H294.189H294.373C294.788 293.782 295.388 294.151 295.757 293.69C296.034 293.459 296.403 293.551 296.68 293.32C296.772 293.274 296.911 293.228 297.049 293.274C297.326 293.09 297.741 293.136 298.018 292.813C298.295 292.582 298.71 292.675 298.895 292.352C299.08 292.259 299.218 292.121 299.356 291.936C299.587 291.659 300.002 291.752 300.233 291.475C300.418 291.383 300.556 291.198 300.694 291.06C300.833 290.921 301.017 290.783 301.156 290.644C301.34 290.321 301.802 290.414 301.986 290.137C302.171 290.044 302.309 289.906 302.448 289.722C302.632 289.629 302.771 289.445 302.909 289.306C303.094 289.168 303.232 289.029 303.371 288.845C303.555 288.706 303.694 288.568 303.832 288.383C304.017 288.291 304.155 288.107 304.293 287.922C304.616 287.737 304.478 287.322 304.801 287.091C304.939 286.907 305.078 286.769 305.216 286.63C305.355 286.492 305.539 286.353 305.632 286.169C306.093 285.43 306.647 285.2 307.431 285.753C307.616 285.892 307.754 286.076 307.985 286.169C308.123 286.169 308.215 286.169 308.354 286.261C308.492 286.399 308.677 286.538 308.815 286.63C309 286.907 309.461 286.769 309.646 287.091C309.83 287.23 309.969 287.368 310.107 287.507C310.246 287.645 310.384 287.83 310.569 287.922C310.938 288.291 311.491 288.476 311.907 288.845C312.045 288.983 312.184 289.168 312.368 289.26C312.506 289.399 312.645 289.583 312.829 289.675C313.014 289.952 313.475 289.86 313.66 290.137C313.845 290.275 313.983 290.414 314.121 290.552C314.26 290.69 314.398 290.875 314.583 290.967C314.721 291.106 314.86 291.29 315.044 291.383C315.413 291.752 315.967 291.936 316.336 292.305C316.475 292.444 316.613 292.628 316.798 292.721C317.028 292.998 317.444 292.905 317.674 293.182C317.813 293.32 317.951 293.505 318.136 293.597C318.274 293.736 318.413 293.92 318.597 294.013C318.782 294.289 319.243 294.197 319.428 294.474C319.612 294.612 319.751 294.751 319.889 294.889C320.027 295.028 320.166 295.212 320.35 295.305C320.72 295.674 321.227 295.858 321.688 296.181C321.827 296.32 321.965 296.504 322.15 296.596C322.334 296.873 322.796 296.781 322.98 297.058C323.119 297.196 323.303 297.335 323.396 297.473C323.765 298.027 323.811 298.765 324.319 299.227C324.595 299.457 324.503 299.872 324.734 300.103C324.78 300.195 324.78 300.334 324.734 300.472C324.918 300.749 324.872 301.164 325.149 301.441L324.411 301.534Z" fill="#FFB68A"/>
<path d="M119.915 268.728C120.93 268.82 121.668 269.42 122.453 269.974C127.39 273.434 132.327 276.941 137.264 280.401C145.477 286.169 153.69 291.891 161.857 297.658C167.301 301.442 172.746 305.225 178.191 309.055C179.344 309.839 180.498 310.67 181.651 311.454C182.62 312.146 182.943 312.377 182.066 313.531C181.421 314.407 180.913 315.422 180.359 316.391C179.483 317.96 178.975 319.667 178.883 321.467C178.698 324.743 180.036 327.327 182.851 329.08C185.019 330.418 187.419 331.11 189.957 331.295C196.186 331.756 202.092 330.372 207.813 327.973C213.119 325.804 217.918 322.805 222.255 319.114C225.531 316.345 228.346 313.161 230.284 309.239C230.976 307.763 231.437 306.194 231.668 304.625C231.76 303.979 231.668 303.287 231.622 302.641C231.529 301.995 231.391 301.349 231.253 300.703C231.299 299.135 230.33 298.12 229.222 297.197C226.731 295.167 223.87 294.105 220.732 293.921C217.226 293.736 213.673 293.828 210.212 294.705C209.336 294.936 208.459 294.936 207.582 294.705C202.368 297.704 196.509 299.458 191.71 303.241C190.741 303.979 190.003 304.026 189.034 303.195C177.868 293.828 166.563 284.508 155.397 275.095C152.583 272.742 151.337 270.066 152.398 266.19C154.29 259.223 155.582 252.071 157.104 245.012C157.243 244.366 157.427 243.72 157.612 243.074C158.166 241.09 159.227 240.259 160.703 240.72C162.457 241.228 162.318 242.658 162.041 243.996C160.519 251.287 159.042 258.623 157.197 265.821C156.412 268.82 157.104 270.573 159.504 272.558C169.747 280.909 179.852 289.353 189.957 297.889C191.341 299.042 192.587 299.319 194.155 298.304C195.816 297.243 197.478 296.135 199.231 295.167C200.477 294.474 200.8 293.505 200.108 292.214C199.877 291.752 199.646 291.291 199.415 290.829C194.063 280.54 189.91 269.743 185.158 259.177C184.466 257.654 184.466 256.178 185.02 254.655C189.68 241.597 193.648 228.262 199.462 215.666C201.076 212.205 203.568 210.498 207.398 210.452C211.504 210.452 215.519 210.452 219.256 212.436C219.579 212.621 219.994 212.575 220.363 212.575C225.347 210.96 230.284 209.299 235.497 208.56C244.956 207.176 254.415 207.038 263.874 208.191C264.981 208.33 266.089 208.514 267.104 207.96C267.335 207.776 267.427 207.545 267.288 207.268C267.104 207.13 266.965 206.945 266.735 206.853C266.596 206.853 266.504 206.853 266.366 206.761C266.227 206.622 266.043 206.484 265.904 206.392C265.674 206.115 265.258 206.207 265.028 205.93C264.797 205.653 264.382 205.746 264.151 205.469C263.92 205.192 263.505 205.284 263.274 205.007C263.09 204.869 262.951 204.684 262.721 204.592C262.582 204.592 262.49 204.592 262.398 204.546C262.259 204.408 262.075 204.269 261.936 204.131C261.705 203.854 261.29 203.946 261.013 203.669C260.783 203.393 260.367 203.485 260.137 203.208C259.906 202.931 259.491 203.023 259.26 202.747C259.029 202.47 258.614 202.562 258.383 202.285C258.153 202.008 257.737 202.101 257.507 201.824C257.276 201.593 256.861 201.639 256.63 201.362C256.399 201.132 255.984 201.178 255.753 200.901C255.523 200.67 255.107 200.763 254.877 200.44C254.646 200.209 254.231 200.301 254 199.978C253.815 199.84 253.677 199.655 253.446 199.563C253.308 199.563 253.216 199.563 253.123 199.517C252.939 199.378 252.8 199.194 252.57 199.148C252.431 199.148 252.339 199.148 252.247 199.101C252.062 198.963 251.924 198.778 251.693 198.732C251.554 198.732 251.462 198.732 251.37 198.686C251.139 198.455 250.724 198.548 250.493 198.271C250.263 198.04 249.847 198.132 249.617 197.81C249.386 197.579 248.971 197.671 248.74 197.348C248.509 197.117 248.094 197.164 247.863 196.887C247.632 196.656 247.217 196.702 246.987 196.425C246.756 196.195 246.341 196.241 246.11 196.01C245.879 195.733 245.464 195.825 245.233 195.595C245.002 195.318 244.587 195.41 244.31 195.179C244.08 194.903 243.664 194.995 243.388 194.718C243.157 194.441 242.742 194.487 242.465 194.303C242.234 194.026 241.819 194.072 241.496 193.888C241.357 193.888 241.265 193.888 241.127 193.841C240.896 193.611 240.481 193.703 240.25 193.426C240.019 193.195 239.604 193.242 239.373 193.011C239.143 192.734 238.727 192.826 238.451 192.596C238.22 192.319 237.805 192.411 237.528 192.18C237.297 191.903 236.836 191.95 236.559 191.765C236.42 191.765 236.328 191.765 236.19 191.719C235.959 191.488 235.544 191.58 235.313 191.304C235.082 191.073 234.667 191.119 234.39 190.888C234.159 190.612 233.744 190.704 233.467 190.473C233.19 190.196 232.775 190.242 232.498 190.058C232.36 190.058 232.268 190.058 232.129 190.012C231.899 189.781 231.483 189.873 231.253 189.596C231.022 189.32 230.607 189.412 230.33 189.181C230.053 188.904 229.638 188.95 229.361 188.766C229.222 188.766 229.13 188.766 228.992 188.72C228.761 188.489 228.346 188.535 228.115 188.304C227.838 188.028 227.423 188.074 227.146 187.889C227.008 187.889 226.869 187.889 226.777 187.843C226.546 187.612 226.131 187.705 225.9 187.428C225.67 187.197 225.254 187.243 224.977 187.013C224.654 186.597 224.008 187.013 223.639 186.551C223.362 186.32 222.993 186.367 222.716 186.136C222.394 185.721 221.748 186.136 221.378 185.674C221.148 185.444 220.732 185.49 220.456 185.259C220.133 184.844 219.487 185.259 219.118 184.798C218.841 184.521 218.425 184.613 218.149 184.383C218.01 184.383 217.872 184.383 217.779 184.336C217.549 184.106 217.133 184.198 216.903 183.921C216.626 183.644 216.211 183.69 215.934 183.506C215.795 183.506 215.703 183.506 215.611 183.46C215.334 183.183 214.919 183.275 214.642 183.044C214.503 183.044 214.365 183.044 214.273 182.998C213.996 182.768 213.627 182.86 213.396 182.583C213.027 182.168 212.427 182.583 212.058 182.122C211.689 181.706 211.089 182.122 210.72 181.66C210.443 181.383 210.028 181.43 209.751 181.245C209.613 181.245 209.52 181.245 209.428 181.245C209.151 180.968 208.736 181.06 208.459 180.83C208.321 180.83 208.228 180.83 208.136 180.83C207.767 180.414 207.167 180.83 206.798 180.414C206.429 179.999 205.829 180.414 205.46 179.953C205.091 179.538 204.491 179.907 204.076 179.538C203.937 179.538 203.799 179.538 203.66 179.492C203.384 179.261 203.014 179.307 202.691 179.122C202.553 179.122 202.461 179.122 202.322 179.122C201.953 178.753 201.353 179.122 200.938 178.707C200.8 178.707 200.661 178.707 200.523 178.661C200.154 178.338 199.554 178.661 199.185 178.246C198.677 177.738 197.893 178.246 197.385 177.831C197.247 177.831 197.108 177.831 196.97 177.831C196.416 177.415 195.678 177.877 195.17 177.415C195.032 177.415 194.894 177.415 194.755 177.415C193.925 176.908 192.91 177.554 192.079 177C191.248 177 190.372 177 189.541 177C189.126 177.369 188.572 177.046 188.157 177.369C188.019 177.415 187.926 177.461 187.788 177.415C187.511 177.646 187.096 177.554 186.865 177.877C186.496 178.246 185.85 177.877 185.527 178.338C185.25 178.569 184.881 178.477 184.604 178.753C184.235 179.169 183.635 178.753 183.266 179.215C183.035 179.445 182.62 179.399 182.343 179.63C182.113 179.907 181.697 179.815 181.467 180.091C181.236 180.368 180.821 180.276 180.59 180.553C180.405 180.645 180.267 180.83 180.129 180.968C179.898 181.245 179.483 181.153 179.298 181.476C179.113 181.568 178.975 181.706 178.837 181.891C178.652 181.983 178.514 182.168 178.375 182.306C178.191 182.398 178.052 182.583 177.914 182.768C177.729 182.86 177.591 183.044 177.452 183.229C177.268 183.321 177.129 183.506 176.991 183.69C176.668 183.875 176.76 184.29 176.483 184.521C176.345 184.706 176.207 184.844 176.068 185.029C175.791 185.213 175.884 185.674 175.607 185.859C175.468 186.044 175.284 186.182 175.191 186.413C175.191 186.551 175.192 186.643 175.145 186.736C175.007 186.92 174.869 187.059 174.776 187.289C174.776 187.428 174.776 187.52 174.73 187.612C174.499 187.843 174.592 188.258 174.315 188.489C173.9 188.812 174.315 189.458 173.853 189.827C173.438 190.196 173.853 190.796 173.438 191.165C173.161 191.396 173.207 191.811 173.023 192.088C172.423 192.734 173.069 193.611 172.561 194.303C172.146 194.626 172.515 195.272 172.1 195.641C171.685 195.964 172.1 196.61 171.639 196.933C171.27 197.302 171.639 197.902 171.223 198.271C170.808 198.594 171.177 199.24 170.762 199.609C170.347 199.978 170.762 200.578 170.301 200.947C169.885 201.316 170.301 201.916 169.839 202.285C169.424 202.654 169.839 203.254 169.378 203.623C168.963 203.992 169.332 204.592 168.916 204.961C168.501 205.33 168.824 205.93 168.501 206.346C168.501 206.484 168.501 206.576 168.501 206.715C168.132 207.084 168.501 207.684 168.086 208.053C167.671 208.422 167.994 209.022 167.624 209.437C167.624 209.575 167.624 209.714 167.624 209.852C167.255 210.221 167.624 210.821 167.209 211.19C166.84 211.559 167.163 212.159 166.794 212.528C166.379 212.898 166.702 213.497 166.379 213.913C166.379 214.051 166.379 214.143 166.379 214.282C165.963 214.651 166.379 215.251 165.963 215.62C165.548 215.989 165.871 216.589 165.548 217.004C165.548 217.142 165.548 217.235 165.548 217.373C165.133 217.742 165.548 218.342 165.133 218.711C164.718 219.08 165.041 219.68 164.718 220.095C164.718 220.234 164.718 220.326 164.718 220.465C164.348 220.834 164.718 221.434 164.302 221.803C163.795 222.264 164.302 223.049 163.841 223.556C163.472 223.925 163.749 224.525 163.426 224.94C163.426 225.079 163.426 225.171 163.426 225.309C163.056 225.679 163.426 226.278 163.01 226.647C162.503 227.109 163.01 227.893 162.549 228.401C162.134 228.77 162.457 229.37 162.134 229.785C162.134 229.923 162.134 230.016 162.134 230.154C161.718 230.523 162.088 231.169 161.718 231.538C161.718 231.677 161.718 231.769 161.718 231.908C161.349 232.323 161.672 232.923 161.303 233.292C161.303 233.43 161.303 233.522 161.303 233.661C160.934 234.03 161.257 234.63 160.888 235.045C160.888 235.184 160.888 235.322 160.888 235.46C160.519 235.876 160.842 236.429 160.519 236.845C160.519 236.983 160.519 237.075 160.519 237.214C160.15 237.583 160.519 238.183 160.057 238.506C159.827 238.829 159.411 238.69 159.227 239.013C158.95 239.244 158.535 239.152 158.35 239.475C157.889 239.751 157.381 239.982 157.012 240.351C156.551 240.628 156.089 240.905 155.674 241.228C155.443 241.459 155.028 241.413 154.797 241.689C154.336 241.966 153.874 242.197 153.459 242.566C153.229 242.797 152.813 242.751 152.583 243.027C152.121 243.304 151.66 243.535 151.244 243.904C151.014 244.135 150.598 244.089 150.368 244.366C150.183 244.458 150.045 244.642 149.906 244.781C149.676 245.058 149.26 244.965 149.03 245.242C148.845 245.334 148.707 245.519 148.568 245.657C148.338 245.934 147.922 245.842 147.692 246.165C147.507 246.257 147.369 246.442 147.23 246.58C146.999 246.857 146.584 246.765 146.354 247.042C146.169 247.134 146.031 247.319 145.892 247.457C145.661 247.734 145.246 247.642 145.015 247.965C144.831 248.057 144.692 248.195 144.554 248.38C144.416 248.518 144.231 248.657 144.093 248.749C143.908 249.072 143.447 248.98 143.262 249.256C143.078 249.349 142.939 249.533 142.801 249.626C142.616 249.949 142.155 249.856 141.97 250.133C141.786 250.225 141.647 250.41 141.509 250.548C141.278 250.825 140.863 250.733 140.632 251.056C140.448 251.148 140.309 251.333 140.171 251.471C139.94 251.748 139.525 251.656 139.294 251.979C139.109 252.071 138.971 252.256 138.833 252.394C138.602 252.671 138.187 252.579 137.956 252.855C137.771 252.948 137.633 253.086 137.495 253.271C137.264 253.501 136.802 253.455 136.618 253.732C136.433 253.824 136.295 253.963 136.156 254.147C136.018 254.286 135.833 254.424 135.695 254.516C135.51 254.839 135.049 254.747 134.864 255.024C134.68 255.116 134.541 255.301 134.403 255.393C134.172 255.716 133.757 255.578 133.573 255.901C133.388 255.993 133.25 256.178 133.111 256.316C132.88 256.593 132.465 256.501 132.234 256.824C132.05 256.916 131.911 257.1 131.773 257.239C131.358 257.608 130.85 257.792 130.481 258.162C130.297 258.254 130.158 258.438 130.02 258.577C129.881 258.715 129.743 258.854 129.558 258.992C129.189 259.361 128.635 259.546 128.266 259.961C128.082 260.053 127.943 260.192 127.805 260.376C127.62 260.469 127.482 260.653 127.344 260.792C127.205 260.93 127.067 261.068 126.882 261.207C126.328 261.714 125.729 262.13 125.175 262.591C124.99 262.683 124.852 262.868 124.714 263.006C124.575 263.145 124.437 263.283 124.252 263.376C124.068 263.745 123.606 263.606 123.422 263.929C123.237 264.021 123.099 264.206 122.96 264.344C122.776 264.483 122.637 264.621 122.499 264.76C122.36 264.898 122.222 265.037 122.037 265.175C121.899 265.36 121.76 265.498 121.622 265.636C121.484 265.775 121.299 265.913 121.161 266.098C120.976 266.236 120.838 266.375 120.699 266.559C120.515 266.698 120.376 266.836 120.238 266.975C120.099 267.113 119.915 267.251 119.776 267.436C119.453 267.99 119.361 268.589 119.776 269.143L119.915 268.728Z" fill="#FFB68A"/>
<path d="M267.473 207.729C264.704 207.453 261.936 207.222 259.121 206.945C258.475 206.899 257.783 206.807 257.137 206.807C253.169 206.807 249.201 206.714 245.233 206.807C242.834 206.899 240.388 207.176 237.989 207.499C235.497 207.822 233.052 208.191 230.606 208.745C227.607 209.391 224.654 210.267 221.793 211.513C221.194 211.79 220.548 211.928 219.902 212.113C218.979 212.667 218.794 213.405 219.44 214.328C223.039 216.358 226.638 218.388 230.191 220.464C234.621 223.002 239.004 225.54 243.434 228.078C247.771 230.569 252.108 233.107 256.445 235.598C260.229 237.767 264.012 239.936 267.796 242.058C268.58 242.473 269.411 242.843 270.195 243.212C270.98 243.581 271.856 243.673 272.641 242.935C273.01 242.566 273.471 242.289 273.886 242.012C276.424 240.074 279.1 238.413 282.284 237.721C287.267 236.614 291.927 237.306 296.311 239.982C301.479 243.166 304.893 247.78 307.154 253.317C308.769 257.238 309.599 261.345 309.507 265.59C309.415 268.589 309.507 271.634 309 274.634C308.769 275.926 308.4 277.217 308.123 278.509C307.984 278.971 308.169 279.109 308.584 278.971C311.676 275.556 313.89 271.588 315.69 267.389C317.397 263.329 318.735 259.084 319.104 254.701C319.427 251.148 319.52 247.503 318.874 243.95C318.874 243.812 318.874 243.673 318.874 243.535C318.92 242.935 319.058 242.381 318.689 241.827C318.643 241.735 318.597 241.597 318.689 241.505C318.366 241.089 318.689 240.443 318.228 240.074C317.997 239.843 318.043 239.428 317.812 239.197C317.397 238.874 317.812 238.228 317.351 237.859C317.12 237.629 317.166 237.213 316.936 236.983C316.659 236.752 316.751 236.337 316.474 236.106C316.244 235.875 316.336 235.414 315.967 235.229C315.875 235.045 315.69 234.906 315.552 234.768C315.321 234.537 315.413 234.076 315.044 233.891C314.952 233.707 314.767 233.568 314.583 233.43C314.26 233.015 314.075 232.507 313.66 232.138C313.567 231.953 313.383 231.815 313.198 231.676C313.06 231.538 312.921 231.354 312.783 231.215C312.368 230.615 311.906 230.015 311.399 229.462C311.307 229.277 311.122 229.139 310.937 229C310.845 228.816 310.661 228.677 310.476 228.539C310.338 228.354 310.199 228.216 310.015 228.078C309.876 227.893 309.738 227.755 309.553 227.616C309.415 227.432 309.276 227.293 309.092 227.155C308.953 226.97 308.815 226.832 308.63 226.693C308.492 226.509 308.354 226.37 308.169 226.232C308.077 226.047 307.892 225.909 307.708 225.817C307.154 225.355 306.554 224.894 305.954 224.479C305.816 224.34 305.677 224.156 305.493 224.063C305.354 223.925 305.216 223.74 305.031 223.648C304.662 223.279 304.109 223.094 303.739 222.725C303.601 222.587 303.463 222.402 303.278 222.31C302.909 221.941 302.401 221.756 301.94 221.433C301.802 221.295 301.663 221.11 301.432 221.018C301.248 220.741 300.786 220.833 300.556 220.557C300.417 220.418 300.279 220.234 300.048 220.141C299.864 219.818 299.402 219.911 299.172 219.68C298.756 219.357 298.295 219.08 297.787 218.803C297.557 218.48 297.141 218.573 296.911 218.342C296.495 218.019 296.034 217.742 295.573 217.465C295.342 217.188 294.927 217.234 294.696 217.004C293.312 216.081 291.789 215.435 290.266 214.789C290.036 214.512 289.62 214.558 289.344 214.374C289.021 213.912 288.375 214.328 288.005 213.912C287.775 213.635 287.36 213.728 287.083 213.497C286.391 213.082 285.56 212.989 284.868 212.62C284.176 212.205 283.345 212.067 282.607 211.744C281.638 211.328 280.531 211.236 279.516 210.821C279.146 210.406 278.547 210.775 278.177 210.406C277.808 209.99 277.162 210.313 276.747 209.99C276.609 209.99 276.516 209.99 276.424 209.944C276.055 209.575 275.455 209.944 275.086 209.529C274.579 209.021 273.794 209.529 273.287 209.068C272.733 208.56 271.995 209.068 271.441 208.652C271.303 208.652 271.21 208.652 271.072 208.652C270.518 208.191 269.78 208.652 269.226 208.237C269.088 208.237 268.995 208.237 268.903 208.237C268.257 207.914 267.565 207.914 266.873 207.868L267.473 207.729Z" fill="#8989DE"/>
<path d="M376.227 221.434C376.135 221.572 376.042 221.572 375.95 221.434C375.396 221.849 374.566 221.295 374.058 221.895H374.104C373.781 222.033 373.412 221.987 373.135 222.218C372.905 222.495 372.489 222.402 372.259 222.633L372.166 222.725H372.028C371.659 222.818 371.244 222.818 370.967 223.141C370.69 223.325 370.275 223.233 370.044 223.556C369.536 224.017 368.752 223.418 368.291 224.064C367.968 224.202 367.598 224.156 367.322 224.433C366.999 224.848 366.353 224.433 366.03 224.94C365.753 225.125 365.338 225.079 365.107 225.309L365.015 225.402H364.876C364.415 225.632 363.769 225.309 363.4 225.863H363.446C363.123 225.955 362.708 225.909 362.477 226.278C362.2 226.463 361.785 226.371 361.554 226.74C361.277 226.924 360.816 226.832 360.677 227.247H360.724C360.493 227.247 360.308 227.432 360.17 227.616C359.755 227.939 359.201 228.078 358.878 228.585H358.924C358.693 228.585 358.555 228.77 358.37 228.908C358.14 229.185 357.724 229.093 357.494 229.37C357.263 229.6 356.802 229.508 356.617 229.877H356.663C356.432 229.877 356.294 230.062 356.156 230.246C355.74 230.569 355.14 230.708 354.864 231.262H354.91C354.633 231.262 354.495 231.4 354.356 231.631C354.125 231.631 353.987 231.815 353.849 232C353.664 232.138 353.526 232.277 353.387 232.415C353.203 232.553 353.064 232.692 352.972 232.876C352.787 232.969 352.603 233.107 352.51 233.338C352.326 233.43 352.187 233.569 352.049 233.753C351.864 233.845 351.726 234.03 351.588 234.168C351.403 234.491 350.896 234.353 350.757 234.722H350.803C350.573 234.722 350.388 234.907 350.296 235.137C350.065 235.183 349.927 235.368 349.788 235.506C349.557 235.783 349.096 235.645 348.958 236.06H349.004C348.773 236.06 348.635 236.245 348.45 236.383C348.081 236.752 347.481 236.891 347.158 237.398H347.204C346.974 237.398 346.789 237.583 346.697 237.813C346.466 237.86 346.328 238.044 346.189 238.229C346.005 238.321 345.866 238.506 345.728 238.644C345.359 239.013 344.759 239.152 344.482 239.659H344.528C344.251 239.659 344.113 239.844 344.021 240.074C343.79 240.121 343.605 240.305 343.559 240.536H343.605C343.098 240.766 342.959 241.366 342.59 241.782C342.406 241.92 342.267 242.058 342.175 242.289C341.944 242.335 341.76 242.52 341.76 242.797H341.806C341.252 243.027 341.114 243.581 340.791 244.043C340.468 244.227 340.56 244.642 340.329 244.919C340.052 245.196 340.052 245.611 339.914 245.98V246.119L339.822 246.211C339.545 246.488 339.591 246.857 339.453 247.18C338.899 247.457 339.314 248.103 338.945 248.472C338.622 248.703 338.668 249.026 338.853 249.395C339.729 249.533 340.099 248.795 340.606 248.287C345.774 243.027 351.957 239.336 358.601 236.199C364.322 233.476 370.275 232.923 376.365 232.738C380.979 232.6 385.593 233.338 390.069 234.768C394.729 236.245 399.159 238.136 403.035 241.182C404.419 242.289 405.941 243.858 408.156 242.658C408.664 238.459 407.51 234.676 405.203 231.215C404.88 230.569 404.373 230.016 403.819 229.462C402.204 226.924 399.62 225.632 397.175 224.156C396.16 223.279 394.868 222.818 393.576 222.402C392.93 221.895 392.099 221.803 391.315 221.526C388.639 220.142 385.824 220.095 382.917 220.603L382.779 220.695H382.64C380.841 221.157 378.949 220.418 377.15 221.018C376.642 221.48 375.858 220.972 375.35 221.48L376.227 221.434Z" fill="#814414"/>
<path d="M289.805 296.597C289.99 296.458 290.128 296.32 290.313 296.228C290.82 295.628 291.374 295.074 291.882 294.474C290.866 294.474 289.805 294.474 288.79 294.474C287.452 294.52 286.114 294.382 284.868 294.013C281.039 292.905 277.301 291.66 274.025 289.214C271.026 286.953 267.658 285.246 264.428 283.308C256.538 278.556 248.648 273.803 240.758 269.097C233.883 264.99 226.962 260.838 220.087 256.731C215.288 253.87 210.535 250.917 205.644 248.149C201.538 245.796 197.847 242.843 193.786 240.443C192.633 240.536 192.541 241.597 192.264 242.335C190.833 246.534 190.003 250.871 189.08 255.208C188.849 256.224 189.265 257.1 189.634 257.977C194.848 269.466 199.508 281.186 205.368 292.352C205.875 293.321 206.337 294.336 207.398 294.936C207.859 295.628 208.413 295.858 209.243 295.582C212.981 294.428 216.857 294.244 220.779 294.474C223.132 294.613 225.393 295.305 227.423 296.504C229.13 297.473 230.33 298.95 231.253 300.611C231.437 300.519 231.622 300.334 231.852 300.288C235.959 299.55 240.112 298.811 244.218 298.027C245.279 297.842 246.248 298.027 247.171 298.581C250.309 300.288 253.677 301.349 257.138 302.18C258.983 302.595 260.875 302.964 262.767 303.149C263.874 303.287 264.889 303.749 265.95 304.025C266.689 303.426 267.658 303.702 268.488 303.564C270.703 303.241 272.964 303.056 275.179 302.826C275.686 302.364 276.332 302.41 276.978 302.41C277.486 301.903 278.132 301.995 278.731 301.949C279.101 301.534 279.608 301.534 280.07 301.534C280.439 301.118 280.9 301.118 281.408 301.072C282.054 300.519 282.792 300.242 283.622 300.196C283.853 299.873 284.176 299.78 284.545 299.78C284.776 299.457 285.053 299.365 285.422 299.319C285.606 298.996 285.929 298.904 286.299 298.858C286.483 298.535 286.806 298.442 287.129 298.396C287.452 297.935 287.913 297.658 288.467 297.519C288.79 297.058 289.205 296.735 289.759 296.597H289.805Z" fill="#8989DE"/>
<path d="M285.422 333.417C287.498 333.417 288.144 332.724 288.144 330.971C288.144 329.587 287.913 329.125 286.529 328.664C284.499 327.972 282.469 327.372 280.439 326.818C276.009 325.573 271.533 324.327 267.058 323.081C262.951 321.928 258.845 320.82 254.738 319.667C251.554 318.79 248.371 317.867 245.187 316.99C240.804 315.791 236.42 314.545 232.037 313.345C230.007 312.792 228.53 314.13 228.761 316.16C228.807 316.714 229.084 317.129 229.453 317.498C229.961 317.959 230.56 318.19 231.206 318.375C236.697 319.897 242.234 321.466 247.725 323.035C253.446 324.604 259.168 326.172 264.935 327.787C268.257 328.71 271.58 329.679 274.902 330.648C277.993 331.525 281.131 332.448 284.222 333.278C284.73 333.417 285.237 333.463 285.376 333.463L285.422 333.417Z" fill="#484944"/>
<path d="M409.817 303.701C409.817 303.471 409.956 303.286 410.232 303.24C410.555 302.548 410.971 301.948 411.617 301.533C411.709 301.348 411.755 301.118 411.894 300.933C414.016 297.98 415.723 294.842 417.015 291.428C417.107 291.243 417.246 291.059 417.338 290.874C417.384 290.505 417.43 290.136 417.523 289.813C420.014 282.292 419.461 274.863 417.2 267.435C416.554 265.312 415.677 263.282 414.708 261.298C414.524 260.929 414.385 260.468 414.201 260.098C413.878 259.914 413.739 259.591 413.739 259.222C413.139 258.576 412.678 257.837 412.401 257.007C411.94 256.684 411.663 256.223 411.524 255.669C410.648 254.977 410.186 253.962 409.54 253.085C408.618 251.701 408.11 250.224 408.618 248.517C406.218 249.624 404.28 248.517 402.389 247.225C397.544 243.903 392.468 241.088 386.562 240.073C374.012 237.951 362.754 241.088 352.418 248.194C350.065 249.809 347.712 251.47 345.682 253.546C342.821 256.407 340.422 255.807 339.13 252.024C338.991 251.655 338.899 251.332 338.576 251.101C338.437 251.101 338.345 251.193 338.207 251.193C338.207 251.655 338.114 252.116 337.745 252.485C337.791 252.624 337.791 252.716 337.745 252.854C338.114 253.223 338.253 253.685 338.207 254.146C338.668 254.7 338.53 255.392 338.484 255.992C338.576 256.592 338.668 257.099 339.268 257.468C340.514 258.253 341.667 259.176 342.913 260.006C343.374 260.329 343.928 260.606 344.482 260.79C349.788 262.959 355.14 265.128 360.447 267.25C362.661 268.127 364.738 269.28 366.676 270.572C368.706 271.91 369.813 273.802 370.09 276.248C370.321 278.324 370.321 280.354 370.182 282.43C369.998 284.922 369.767 287.414 370.413 289.905C371.059 292.489 372.166 294.889 373.366 297.288C373.781 298.072 374.427 298.672 375.073 299.318C376.688 300.841 378.303 302.317 379.964 303.84C382.779 306.47 385.316 309.331 387.946 312.145C388.823 313.068 389.377 314.175 390.069 315.237C390.207 315.237 390.3 315.237 390.392 315.375C393.345 314.914 396.113 313.852 398.79 312.514C399.389 312.237 399.943 311.961 400.543 311.684C401.327 310.946 402.204 310.346 403.219 309.93C403.68 309.331 404.28 308.869 404.972 308.592C405.019 308.362 405.203 308.223 405.434 308.177C406.91 306.701 408.387 305.224 409.863 303.748L409.817 303.701Z" fill="#814414"/>
<path d="M207.444 294.935C205.598 291.336 203.706 287.737 201.953 284.092C200.2 280.447 198.585 276.709 196.924 273.018C195.586 269.973 194.248 266.974 192.909 263.928C191.894 261.575 190.833 259.222 189.818 256.869C189.587 256.315 189.495 255.808 189.634 255.162C190.279 252.624 190.972 250.04 191.433 247.456C191.848 245.195 192.54 243.027 193.371 240.904C193.463 240.719 193.648 240.535 193.74 240.396C194.294 238.966 194.847 237.536 195.447 236.152C196.831 232.829 198.17 229.507 199.554 226.231C200.753 223.417 201.907 220.556 203.153 217.741C203.522 216.957 203.983 216.126 204.906 215.85C205.737 215.573 206.475 215.25 207.444 215.527C208.505 215.803 209.612 215.619 210.72 215.665C212.75 215.757 214.826 215.342 216.857 216.034C217.456 216.219 218.01 216.034 218.425 215.527C218.748 215.157 219.071 214.742 219.394 214.373C219.394 213.589 219.302 212.804 219.856 212.158C219.717 212.158 219.533 212.158 219.44 212.066C216.81 210.405 213.904 209.897 210.812 209.897C209.336 209.897 207.859 209.897 206.383 209.897C203.291 209.897 200.569 211.789 199.323 214.65C197.708 218.341 196.047 222.032 194.478 225.77C193.279 228.538 192.402 231.445 191.479 234.306C189.772 239.381 188.019 244.457 186.219 249.532C185.619 251.286 184.973 252.993 184.373 254.746C183.82 256.361 183.912 257.884 184.604 259.453C185.988 262.452 187.234 265.543 188.572 268.542C189.218 270.019 190.003 271.449 190.556 272.972C191.11 274.495 191.941 275.925 192.494 277.401C194.617 282.984 197.57 288.198 200.107 293.505C200.015 294.197 199.415 294.381 199.046 294.612C197.062 295.904 195.032 297.104 193.048 298.349C192.402 298.765 191.802 298.672 191.202 298.257C190.925 298.026 190.649 297.796 190.372 297.519C189.034 296.135 187.511 295.027 185.942 293.874C184.881 293.089 183.958 292.12 182.897 291.336C180.636 289.583 178.56 287.599 176.345 285.799C174.222 284 172.008 282.292 169.839 280.539C168.593 279.524 167.394 278.417 166.148 277.401C164.81 276.294 163.426 275.187 162.041 274.033C160.473 272.741 158.904 271.403 157.289 270.065C156.966 269.788 156.92 269.465 157.012 269.096C157.566 266.512 158.166 263.928 158.719 261.391C159.596 257.33 160.473 253.224 161.349 249.163C161.672 247.594 162.041 246.026 162.457 244.457C162.687 243.672 162.687 242.842 162.595 242.058C162.457 241.042 161.718 240.304 160.703 240.166C160.057 240.074 159.365 240.027 158.719 240.304C158.027 240.581 157.427 240.996 157.243 241.827C156.874 243.396 156.366 244.918 156.043 246.533C155.397 249.486 154.843 252.439 154.197 255.346C153.228 259.868 152.167 264.344 151.198 268.865C150.921 270.203 150.921 271.542 152.213 272.464C153.459 274.771 155.582 276.248 157.566 277.863C158.765 278.832 159.873 279.893 161.072 280.862C163.379 282.708 165.64 284.553 167.901 286.399C169.147 287.414 170.347 288.521 171.592 289.536C172.931 290.644 174.315 291.797 175.699 292.859C176.76 293.689 177.683 294.612 178.744 295.396C181.005 297.15 183.128 299.088 185.296 300.933C186.265 301.718 187.234 302.502 188.203 303.286C188.434 303.471 188.711 303.609 188.895 303.794C189.311 304.209 189.357 304.947 190.095 304.947C190.741 304.947 191.064 304.301 191.525 303.978C194.894 301.579 198.585 299.687 202.276 297.934C202.876 297.657 203.476 297.38 204.122 297.242C205.506 296.965 206.475 296.135 207.213 294.981L207.444 294.935Z" fill="#E6A37B"/>
<path d="M338.576 251.056C338.437 252.625 338.807 253.963 340.098 255.024C341.575 256.27 343.467 256.316 344.943 255.117C345.451 254.701 345.912 254.194 346.374 253.732C347.758 252.256 349.373 251.148 350.942 249.949C353.941 247.688 357.309 246.027 360.631 244.227C363.261 242.843 365.937 241.736 368.844 241.09C370.505 240.721 372.12 240.259 373.827 240.444C374.197 240.444 374.612 240.536 374.935 240.444C377.103 239.798 379.318 239.982 381.533 240.075C385.224 240.259 388.777 240.859 392.238 242.243C395.837 243.674 399.066 245.658 402.25 247.78C403.173 248.38 404.142 248.888 405.157 249.395C405.526 249.58 405.988 249.718 406.403 249.764C407.279 249.903 408.018 249.718 408.295 248.749C408.295 248.657 408.525 248.565 408.618 248.472C409.402 246.534 409.54 244.596 408.618 242.659C407.602 242.797 406.726 242.52 405.895 242.013C405.157 241.551 404.326 241.182 403.68 240.582C399.574 237.029 394.591 235.276 389.469 233.8C387.577 233.246 385.639 232.923 383.702 232.554C383.148 232.461 382.548 232.508 381.948 232.461C381.118 232.461 380.333 232.415 379.549 232.185C378.349 231.862 377.011 231.862 375.811 232.185C374.658 232.461 373.504 232.461 372.305 232.508C371.29 232.508 370.228 232.415 369.259 232.831C369.075 232.923 368.798 232.923 368.613 232.831C367.414 232.185 366.26 232.646 365.245 233.154C362.384 234.492 359.431 235.553 356.525 236.799C354.033 237.86 351.68 239.152 349.511 240.813C348.173 241.828 346.743 242.751 345.312 243.674C343.328 245.012 341.713 246.673 340.283 248.565C340.052 248.888 339.868 249.164 339.499 249.303C339.36 249.441 339.176 249.58 339.037 249.764C338.899 250.18 338.714 250.641 338.576 251.056Z" fill="#5C3718"/>
</svg>
