<svg width="500" height="500" viewBox="0 0 500 500" fill="none" xmlns="http://www.w3.org/2000/svg">
<path d="M339.321 370.561H339.183L339.044 370.607C338.167 371.115 337.152 370.515 336.276 371.022H336.091C336.091 370.976 335.953 371.022 335.953 371.022C334.522 371.668 332.954 370.884 331.477 371.484C330.6 372.037 329.585 371.438 328.709 371.899H328.57C328.57 371.853 328.432 371.899 328.432 371.899C328.063 372.222 327.601 372.13 327.186 372.13C317.081 372.13 307.022 372.13 296.918 372.13C280.907 372.13 264.896 372.084 248.885 372.084C248.239 372.084 247.547 372.268 246.947 371.853C246.716 371.853 246.44 371.853 246.209 371.853C243.671 371.253 241.087 372.13 238.55 371.392C237.119 370.838 235.504 371.622 234.074 370.976L233.935 370.884H233.797C232.736 370.469 231.536 371.115 230.521 370.515C229.829 370.007 228.952 370.607 228.26 370.1C227.43 369.546 226.414 370.284 225.584 369.638C225.215 369.269 224.615 369.638 224.2 369.223L224.061 369.131H223.923C223.323 368.808 222.539 369.315 221.985 368.715C221.662 368.577 221.293 368.623 221.062 368.346C220.785 368.116 220.37 368.208 220.139 367.885C219.863 367.654 219.493 367.746 219.217 367.47C218.524 367.054 217.694 367.008 217.002 366.501C216.725 366.316 216.31 366.408 216.079 366.085C215.802 365.855 215.387 365.947 215.156 365.67C214.925 365.439 214.464 365.532 214.279 365.209C214.003 364.978 213.587 365.07 213.403 364.747C212.895 364.517 212.434 364.24 212.019 363.917C211.788 363.686 211.28 363.778 211.142 363.363H211.188C210.911 363.363 210.773 363.178 210.68 362.994C210.496 362.948 210.357 362.763 210.173 362.625C209.804 362.256 209.204 362.117 208.927 361.61C208.65 361.61 208.512 361.425 208.42 361.194C208.189 361.194 208.004 361.01 207.912 360.779C207.681 360.733 207.543 360.548 207.404 360.364C207.174 360.318 207.035 360.133 206.897 359.949C206.712 359.856 206.574 359.718 206.436 359.533C206.251 359.441 206.066 359.256 205.974 359.072C205.743 358.98 205.605 358.841 205.513 358.564H205.559C203.16 357.042 202.79 354.366 201.96 351.966C201.36 351.551 201.96 350.72 201.452 350.259C200.991 349.705 201.406 348.921 201.037 348.321C201.129 348.229 201.129 348.137 201.037 348.044C200.391 346.891 201.175 345.599 200.576 344.445C200.16 343.615 200.207 342.692 200.576 341.815C200.668 341.723 200.668 341.585 200.576 341.492C201.037 340.754 200.483 339.877 200.991 339.185C201.083 339.093 201.129 339.001 201.037 338.908C201.314 338.447 201.037 337.801 201.498 337.432C201.821 337.063 201.498 336.463 201.96 336.094C202.329 335.771 201.96 335.079 202.467 334.802C202.652 334.525 202.56 334.11 202.975 333.925H202.929C202.975 333.741 203.16 333.602 203.344 333.464C203.621 332.91 204.128 332.495 204.636 332.126C204.913 331.895 204.821 331.48 205.144 331.249C205.374 331.018 205.282 330.557 205.651 330.372C205.743 330.188 205.882 330.049 206.066 329.911C206.712 328.942 207.589 328.158 208.373 327.327H208.327C208.373 327.096 208.558 326.958 208.789 326.866C208.881 326.681 209.019 326.497 209.25 326.404C209.342 326.22 209.481 326.035 209.758 325.989C209.85 325.804 209.988 325.62 210.265 325.574C210.357 325.343 210.496 325.205 210.773 325.158C211.05 324.697 211.649 324.605 212.019 324.189C212.203 324.051 212.342 323.867 212.48 323.774C212.618 323.59 212.757 323.451 212.988 323.359C213.08 323.174 213.264 322.99 213.495 322.944H213.449C213.587 322.575 214.049 322.713 214.279 322.436C214.464 322.298 214.602 322.113 214.787 322.021C214.925 321.836 215.064 321.652 215.295 321.606H215.248C215.387 321.283 215.848 321.375 216.079 321.098C216.217 320.96 216.356 320.775 216.587 320.683C216.771 320.36 217.232 320.498 217.417 320.175C217.602 320.037 217.74 319.852 217.925 319.76C218.294 319.391 218.801 319.16 219.263 318.883C219.447 318.56 219.909 318.699 220.093 318.376C220.278 318.237 220.416 318.053 220.601 318.007C220.785 317.684 221.247 317.776 221.477 317.545C221.616 317.407 221.754 317.222 222.031 317.176H221.985C222.17 316.853 222.585 316.945 222.862 316.715C223.046 316.392 223.508 316.53 223.738 316.253C223.923 316.115 224.061 315.93 224.292 315.884H224.246C224.43 315.515 224.846 315.607 225.169 315.423C225.353 315.1 225.815 315.192 226.045 314.961C226.276 314.684 226.691 314.777 226.922 314.5C227.107 314.362 227.245 314.177 227.476 314.131H227.43C227.614 313.762 228.029 313.854 228.352 313.669C228.537 313.346 228.998 313.439 229.275 313.208C229.506 312.885 229.921 312.977 230.152 312.747C230.383 312.47 230.798 312.562 231.029 312.285C231.259 312.008 231.675 312.101 231.905 311.824C232.136 311.547 232.551 311.639 232.782 311.362C233.013 311.132 233.428 311.178 233.659 310.901C233.889 310.67 234.305 310.716 234.535 310.44C234.766 310.209 235.181 310.255 235.412 309.978C235.643 309.747 236.058 309.794 236.289 309.563C236.519 309.286 236.935 309.378 237.165 309.148C237.396 308.871 237.811 308.963 238.088 308.732C238.319 308.455 238.734 308.502 239.011 308.317C239.242 308.04 239.657 308.086 239.934 307.902C240.164 307.579 240.58 307.625 240.857 307.487C241.133 306.979 241.826 307.394 242.149 306.979C242.425 306.748 242.794 306.794 243.071 306.564C243.302 306.287 243.717 306.333 243.994 306.148C244.271 305.825 244.686 305.872 245.055 305.733C245.148 305.779 245.24 305.733 245.332 305.641C245.609 305.41 245.978 305.456 246.255 305.226C246.486 304.949 246.901 304.995 247.178 304.81C247.685 304.072 248.516 303.934 249.3 303.611C250.869 302.872 252.53 302.596 254.191 302.411C258.528 301.857 262.727 300.658 266.649 298.72C268.541 297.797 270.341 297.428 272.371 297.889C275.601 298.535 278.877 299.089 282.153 299.689C282.798 299.827 283.491 299.873 283.952 300.381C284.183 300.704 284.321 301.073 284.275 301.396C283.352 306.841 285.936 311.132 289.304 314.777C297.287 323.497 307.253 328.85 318.927 330.603C322.157 331.064 325.525 331.064 328.801 330.096C335.122 328.158 337.337 323.405 334.661 317.361C334.245 316.392 333.692 315.515 333.184 314.638C331.892 312.562 331.892 312.101 333.969 310.624C341.213 305.503 348.457 300.473 355.701 295.398C367.698 286.954 379.786 278.649 391.737 270.159C392.798 269.374 393.813 268.498 395.29 268.544C395.52 268.59 395.705 268.728 395.797 268.959C396.074 268.959 396.213 269.144 396.305 269.374C396.582 269.374 396.72 269.559 396.812 269.79C397.043 269.79 397.228 269.974 397.32 270.251C397.551 270.251 397.735 270.436 397.827 270.712C398.058 270.712 398.243 270.897 398.335 271.174C398.566 271.174 398.75 271.358 398.843 271.635C399.073 271.635 399.258 271.82 399.304 272.097H399.258C400.273 273.25 401.611 274.173 402.442 275.603C402.672 275.696 402.811 275.834 402.903 276.065H402.857C403.41 276.526 403.872 277.126 404.241 277.772C404.472 277.864 404.61 278.003 404.702 278.279H404.656C405.164 278.556 405.348 279.11 405.625 279.571C406.087 280.125 406.686 280.633 406.917 281.371C407.332 281.463 407.194 281.925 407.471 282.201C407.655 282.34 407.84 282.478 407.886 282.709H407.84C408.255 282.801 408.163 283.263 408.394 283.539C408.763 283.909 409.04 284.37 409.27 284.878C410.101 285.754 410.47 286.954 411.07 287.969C411.439 288.107 411.393 288.569 411.577 288.846C411.947 288.984 411.854 289.446 412.039 289.722C412.408 289.907 412.362 290.322 412.5 290.599C413.054 291.568 413.515 292.583 413.884 293.69C414.346 294.336 414.484 295.167 414.807 295.905C415.638 297.566 416.145 299.412 416.607 301.211C417.253 301.627 416.653 302.457 417.114 302.965C417.853 305.226 418.176 307.625 418.499 310.024C418.868 313.762 419.514 317.453 418.914 321.283C418.499 324.005 418.36 326.773 417.622 329.45C417.16 329.957 417.714 330.741 417.16 331.203C416.791 332.172 416.745 333.325 416.191 334.294C415.915 335.033 415.776 335.817 415.315 336.509C414.946 337.201 414.9 338.078 414.346 338.724C414.207 339.001 414.254 339.416 413.884 339.601C413.7 339.877 413.792 340.293 413.423 340.477C413.238 340.708 413.331 341.169 412.962 341.354C412.777 341.585 412.869 342.046 412.454 342.231C412.27 342.738 411.993 343.153 411.624 343.569C411.393 343.799 411.485 344.261 411.116 344.445C410.931 344.907 410.655 345.414 410.193 345.783H410.239C410.193 345.968 410.009 346.106 409.824 346.245C408.901 348.09 407.471 349.429 405.856 350.674C405.671 350.813 405.533 350.997 405.395 351.09C405.256 351.274 405.118 351.413 404.887 351.505C404.564 351.92 404.01 352.105 403.549 352.428C403.41 352.612 403.272 352.797 403.041 352.843H403.087C402.949 353.166 402.488 353.074 402.257 353.35C402.119 353.489 401.98 353.673 401.749 353.766H401.796C401.611 354.089 401.196 353.996 400.919 354.227C400.504 354.55 400.042 354.873 399.535 355.104C399.35 355.427 398.889 355.335 398.658 355.565C398.427 355.842 398.012 355.75 397.781 356.027C397.32 356.303 396.905 356.673 396.351 356.811C396.166 357.18 395.751 357.088 395.428 357.272C395.244 357.642 394.828 357.549 394.505 357.734C393.905 358.288 392.983 358.241 392.337 358.703C392.106 358.98 391.691 358.887 391.414 359.118C391.183 359.395 390.768 359.349 390.491 359.533C390.214 360.041 389.522 359.626 389.153 360.041C388.922 360.318 388.507 360.272 388.184 360.456C387.861 360.964 387.215 360.548 386.846 360.918C386.523 361.379 385.877 361.01 385.508 361.379C385.139 361.794 384.539 361.425 384.17 361.84C383.801 362.256 383.201 361.933 382.832 362.256C382.463 362.671 381.863 362.348 381.447 362.671C381.078 363.132 380.479 362.809 380.063 363.086C379.74 363.594 379.094 363.225 378.725 363.548C378.264 364.101 377.433 363.548 376.926 364.009C376.603 364.47 375.957 364.055 375.588 364.47C374.942 365.024 374.019 364.424 373.373 364.886C372.958 365.301 372.358 365.024 371.896 365.301H371.758L371.619 365.347C371.343 365.624 370.974 365.532 370.651 365.716C370.281 366.178 369.635 365.855 369.174 366.178H369.036C369.036 366.131 368.897 366.178 368.897 366.178C368.205 366.731 367.328 366.131 366.636 366.593C366.313 367.054 365.667 366.685 365.298 367.054C364.283 367.7 363.13 366.962 362.115 367.516H361.93C361.93 367.47 361.792 367.516 361.792 367.516C361.284 367.977 360.5 367.516 359.992 367.931C359.3 368.485 358.377 367.931 357.639 368.346H357.5C357.5 368.3 357.362 368.346 357.362 368.346C356.716 368.946 355.793 368.254 355.147 368.808C354.594 369.269 353.809 368.808 353.209 369.223C352.979 369.223 352.748 369.223 352.471 369.223C351.041 369.823 349.472 369.084 347.995 369.638C347.211 370.284 346.15 369.546 345.319 370.1C343.381 370.746 341.351 369.961 339.413 370.515L339.321 370.561Z" fill="#696D65"/>
<path d="M190.748 301.534C190.702 301.672 190.702 301.764 190.748 301.903C190.194 303.195 190.932 304.671 190.332 305.963C190.009 310.208 189.225 314.315 186.78 317.914C186.226 318.836 185.488 319.575 184.565 320.128C184.15 320.497 183.642 320.728 183.227 321.005C182.442 321.651 181.473 321.974 180.551 322.343C178.474 322.712 176.49 322.804 174.322 322.712C170.169 322.574 165.647 322.066 162.786 326.311C161.725 327.834 161.218 329.679 160.11 331.156C159.972 331.34 159.833 331.479 159.649 331.617C159.51 331.756 159.372 331.94 159.187 332.079C157.942 333.048 156.603 333.048 155.219 332.494C154.989 332.263 154.573 332.356 154.343 332.033C153.881 331.756 153.374 331.525 153.005 331.156C152.82 331.064 152.682 330.925 152.543 330.741C152.359 330.648 152.22 330.464 152.082 330.325C151.343 329.91 150.744 329.31 150.282 328.572C150.098 328.434 149.959 328.295 149.821 328.111C149.636 327.972 149.498 327.834 149.359 327.649C149.175 327.557 149.036 327.372 148.898 327.188C148.437 326.634 147.929 326.08 147.514 325.434C147.375 325.296 147.191 325.158 147.052 324.973C146.868 324.835 146.729 324.696 146.591 324.512C145.391 323.081 144.053 321.743 142.577 320.544C142.392 320.451 142.254 320.267 142.115 320.128C141.7 319.805 141.192 319.621 140.777 319.205C140.316 318.929 139.854 318.698 139.439 318.329C139.208 318.098 138.793 318.144 138.562 317.867C135.932 316.76 133.164 316.114 130.257 316.299C129.473 316.345 128.642 316.575 127.904 316.068C127.073 315.514 126.058 316.252 125.228 315.606C125.043 315.514 124.812 315.376 124.628 315.237C124.628 315.145 124.582 315.007 124.536 314.914C125.135 311.961 127.627 310.3 129.427 308.27C131.872 305.455 134.64 302.872 137.455 300.426C143.084 295.489 144.745 289.029 143.822 281.831C143.499 279.34 143.822 276.941 144.33 274.633C144.791 272.649 145.991 271.034 147.791 269.973C149.867 268.727 151.943 267.482 154.25 266.605C159.187 264.713 164.078 262.591 168.969 260.607C171.599 259.545 173.86 257.931 175.844 255.946C176.029 255.762 176.259 255.808 176.444 255.946C176.629 256.085 176.767 256.085 176.952 255.946C177.136 255.623 177.598 255.762 177.828 255.439C177.967 255.3 178.151 255.116 178.29 255.024C178.428 254.885 178.566 254.701 178.751 254.608C178.936 254.332 179.397 254.424 179.628 254.147C179.766 254.009 179.905 253.824 180.089 253.732C180.32 253.455 180.735 253.547 180.966 253.27C181.104 253.132 181.243 252.947 181.427 252.855C181.658 252.578 182.073 252.67 182.304 252.394C182.442 252.255 182.581 252.071 182.765 251.978C182.996 251.702 183.411 251.794 183.642 251.517C183.78 251.379 183.919 251.194 184.103 251.102C184.334 250.825 184.749 250.917 184.98 250.64C185.118 250.502 185.257 250.317 185.441 250.225C185.672 249.948 186.087 250.04 186.318 249.764C186.457 249.625 186.595 249.441 186.78 249.348C186.964 249.072 187.426 249.164 187.656 248.887C187.795 248.749 187.933 248.564 188.118 248.472C188.302 248.195 188.764 248.287 188.948 248.01C189.133 247.872 189.271 247.733 189.41 247.595C189.548 247.457 189.686 247.272 189.871 247.18C190.056 246.903 190.517 246.995 190.702 246.718C190.886 246.58 191.025 246.441 191.163 246.303C191.301 246.165 191.44 245.98 191.624 245.888C191.855 245.611 192.27 245.703 192.501 245.426C192.639 245.288 192.778 245.103 192.962 245.011C193.193 244.734 193.608 244.827 193.839 244.55C193.978 244.411 194.116 244.227 194.3 244.134C194.531 243.858 194.946 243.95 195.177 243.673C195.5 243.396 195.823 243.396 196.146 243.673C196.515 245.703 196.192 247.78 196.146 249.81C196.008 260.007 199.376 269.004 205.328 277.171C205.651 277.586 205.974 278.002 206.159 278.463C206.297 278.648 206.343 278.971 206.574 279.109C206.436 278.878 206.251 278.602 206.159 278.325C205.19 276.571 205.144 274.633 204.913 272.742C203.898 262.821 205.19 253.455 211.649 245.334C217.232 238.321 225.538 235.275 233.428 237.536C236.335 238.367 238.872 239.843 241.133 241.735C242.564 242.935 243.902 243.073 245.563 242.197C253.453 237.905 261.205 233.245 269.002 228.816C277.077 224.248 285.106 219.495 293.18 214.927C293.826 214.558 294.426 214.143 295.21 214.189C296.548 215.343 298.025 215.435 299.732 215.25C302.362 214.973 305.038 215.25 307.668 215.02C309.837 214.881 311.221 216.127 312.052 218.065C314.313 223.325 316.527 228.631 318.65 233.983C319.48 236.106 320.818 237.998 321.049 240.351C320.818 241.228 320.08 241.597 319.434 242.058C312.421 246.949 304.992 251.194 297.656 255.577C280.953 265.59 264.296 275.649 247.593 285.615C244.825 287.276 242.148 289.168 239.334 290.783C234.305 293.736 228.952 295.766 222.954 294.982C222.4 294.612 221.754 294.428 221.154 294.151H220.97H220.785C220.37 293.782 219.77 294.151 219.401 293.69C219.124 293.459 218.755 293.551 218.478 293.32C218.386 293.274 218.248 293.228 218.109 293.274C217.832 293.09 217.417 293.136 217.14 292.813C216.863 292.582 216.448 292.675 216.263 292.352C216.079 292.259 215.941 292.121 215.802 291.936C215.571 291.659 215.156 291.752 214.925 291.475C214.741 291.383 214.602 291.198 214.464 291.06C214.326 290.921 214.141 290.783 214.003 290.644C213.818 290.321 213.357 290.414 213.172 290.137C212.987 290.044 212.849 289.906 212.711 289.722C212.526 289.629 212.388 289.445 212.249 289.306C212.065 289.168 211.926 289.029 211.788 288.845C211.603 288.706 211.465 288.568 211.326 288.383C211.142 288.291 211.003 288.107 210.865 287.922C210.542 287.737 210.68 287.322 210.357 287.091C210.219 286.907 210.081 286.769 209.942 286.63C209.804 286.492 209.619 286.353 209.527 286.169C209.066 285.43 208.512 285.2 207.727 285.753C207.543 285.892 207.404 286.076 207.174 286.169C207.035 286.169 206.943 286.169 206.805 286.261C206.666 286.399 206.482 286.538 206.343 286.63C206.159 286.907 205.697 286.769 205.513 287.091C205.328 287.23 205.19 287.368 205.051 287.507C204.913 287.645 204.774 287.83 204.59 287.922C204.221 288.291 203.667 288.476 203.252 288.845C203.113 288.983 202.975 289.168 202.79 289.26C202.652 289.399 202.514 289.583 202.329 289.675C202.144 289.952 201.683 289.86 201.498 290.137C201.314 290.275 201.175 290.414 201.037 290.552C200.899 290.69 200.76 290.875 200.576 290.967C200.437 291.106 200.299 291.29 200.114 291.383C199.745 291.752 199.191 291.936 198.822 292.305C198.684 292.444 198.545 292.628 198.361 292.721C198.13 292.998 197.715 292.905 197.484 293.182C197.346 293.32 197.207 293.505 197.023 293.597C196.884 293.736 196.746 293.92 196.561 294.013C196.377 294.289 195.915 294.197 195.731 294.474C195.546 294.612 195.408 294.751 195.269 294.889C195.131 295.028 194.993 295.212 194.808 295.305C194.439 295.674 193.931 295.858 193.47 296.181C193.332 296.32 193.193 296.504 193.009 296.596C192.824 296.873 192.363 296.781 192.178 297.058C192.04 297.196 191.855 297.335 191.763 297.473C191.394 298.027 191.347 298.765 190.84 299.227C190.563 299.457 190.655 299.872 190.425 300.103C190.379 300.195 190.379 300.334 190.425 300.472C190.24 300.749 190.286 301.164 190.009 301.441L190.748 301.534Z" fill="#FFB68A"/>
<path d="M395.244 268.728C394.228 268.82 393.49 269.42 392.706 269.974C387.769 273.434 382.832 276.941 377.895 280.401C369.682 286.169 361.469 291.891 353.302 297.658C347.857 301.442 342.412 305.225 336.968 309.055C335.814 309.839 334.661 310.67 333.507 311.454C332.538 312.146 332.215 312.377 333.092 313.531C333.738 314.407 334.245 315.422 334.799 316.391C335.676 317.96 336.183 319.667 336.276 321.467C336.46 324.743 335.122 327.327 332.308 329.08C330.139 330.418 327.74 331.11 325.202 331.295C318.973 331.756 313.067 330.372 307.345 327.973C302.039 325.804 297.241 322.805 292.903 319.114C289.627 316.345 286.813 313.161 284.875 309.239C284.183 307.763 283.721 306.194 283.491 304.625C283.398 303.979 283.491 303.287 283.537 302.641C283.629 301.995 283.767 301.349 283.906 300.703C283.86 299.135 284.829 298.12 285.936 297.197C288.428 295.167 291.288 294.105 294.426 293.921C297.933 293.736 301.486 293.828 304.946 294.705C305.823 294.936 306.699 294.936 307.576 294.705C312.79 297.704 318.65 299.458 323.449 303.241C324.417 303.979 325.156 304.026 326.125 303.195C337.291 293.828 348.595 284.508 359.761 275.095C362.576 272.742 363.822 270.066 362.76 266.19C360.869 259.223 359.577 252.071 358.054 245.012C357.916 244.366 357.731 243.72 357.547 243.074C356.993 241.09 355.932 240.259 354.455 240.72C352.702 241.228 352.84 242.658 353.117 243.996C354.64 251.287 356.116 258.623 357.962 265.821C358.746 268.82 358.054 270.573 355.655 272.558C345.412 280.909 335.307 289.353 325.202 297.889C323.818 299.042 322.572 299.319 321.003 298.304C319.342 297.243 317.681 296.135 315.928 295.167C314.682 294.474 314.359 293.505 315.051 292.214C315.282 291.752 315.512 291.291 315.743 290.829C321.095 280.54 325.248 269.743 330.001 259.177C330.693 257.654 330.693 256.178 330.139 254.655C325.479 241.597 321.511 228.262 315.697 215.666C314.082 212.205 311.59 210.498 307.761 210.452C303.654 210.452 299.64 210.452 295.903 212.436C295.58 212.621 295.164 212.575 294.795 212.575C289.812 210.96 284.875 209.299 279.661 208.56C270.202 207.176 260.743 207.038 251.284 208.191C250.177 208.33 249.07 208.514 248.055 207.96C247.824 207.776 247.732 207.545 247.87 207.268C248.055 207.13 248.193 206.945 248.424 206.853C248.562 206.853 248.654 206.853 248.793 206.761C248.931 206.622 249.116 206.484 249.254 206.392C249.485 206.115 249.9 206.207 250.131 205.93C250.362 205.653 250.777 205.746 251.008 205.469C251.238 205.192 251.654 205.284 251.884 205.007C252.069 204.869 252.207 204.684 252.438 204.592C252.576 204.592 252.669 204.592 252.761 204.546C252.899 204.408 253.084 204.269 253.222 204.131C253.453 203.854 253.868 203.946 254.145 203.669C254.376 203.393 254.791 203.485 255.022 203.208C255.252 202.931 255.668 203.023 255.898 202.747C256.129 202.47 256.544 202.562 256.775 202.285C257.006 202.008 257.421 202.101 257.652 201.824C257.883 201.593 258.298 201.639 258.528 201.362C258.759 201.132 259.174 201.178 259.405 200.901C259.636 200.67 260.051 200.763 260.282 200.44C260.513 200.209 260.928 200.301 261.159 199.978C261.343 199.84 261.481 199.655 261.712 199.563C261.851 199.563 261.943 199.563 262.035 199.517C262.22 199.378 262.358 199.194 262.589 199.148C262.727 199.148 262.82 199.148 262.912 199.101C263.096 198.963 263.235 198.778 263.466 198.732C263.604 198.732 263.696 198.732 263.789 198.686C264.019 198.455 264.435 198.548 264.665 198.271C264.896 198.04 265.311 198.132 265.542 197.81C265.773 197.579 266.188 197.671 266.419 197.348C266.649 197.117 267.065 197.164 267.295 196.887C267.526 196.656 267.941 196.702 268.172 196.425C268.403 196.195 268.818 196.241 269.049 196.01C269.279 195.733 269.695 195.825 269.925 195.595C270.156 195.318 270.571 195.41 270.848 195.179C271.079 194.903 271.494 194.995 271.771 194.718C272.002 194.441 272.417 194.487 272.694 194.303C272.924 194.026 273.34 194.072 273.663 193.888C273.801 193.888 273.893 193.888 274.032 193.841C274.262 193.611 274.678 193.703 274.908 193.426C275.139 193.195 275.554 193.242 275.785 193.011C276.016 192.734 276.431 192.826 276.708 192.596C276.939 192.319 277.354 192.411 277.631 192.18C277.861 191.903 278.323 191.95 278.6 191.765C278.738 191.765 278.83 191.765 278.969 191.719C279.2 191.488 279.615 191.58 279.846 191.304C280.076 191.073 280.491 191.119 280.768 190.888C280.999 190.612 281.414 190.704 281.691 190.473C281.968 190.196 282.383 190.242 282.66 190.058C282.799 190.058 282.891 190.058 283.029 190.012C283.26 189.781 283.675 189.873 283.906 189.596C284.137 189.32 284.552 189.412 284.829 189.181C285.106 188.904 285.521 188.95 285.798 188.766C285.936 188.766 286.028 188.766 286.167 188.72C286.398 188.489 286.813 188.535 287.043 188.304C287.32 188.028 287.736 188.074 288.012 187.889C288.151 187.889 288.289 187.889 288.382 187.843C288.612 187.612 289.028 187.705 289.258 187.428C289.489 187.197 289.904 187.243 290.181 187.013C290.504 186.597 291.15 187.013 291.519 186.551C291.796 186.32 292.165 186.367 292.442 186.136C292.765 185.721 293.411 186.136 293.78 185.674C294.011 185.444 294.426 185.49 294.703 185.259C295.026 184.844 295.672 185.259 296.041 184.798C296.318 184.521 296.733 184.613 297.01 184.383C297.148 184.383 297.287 184.383 297.379 184.336C297.61 184.106 298.025 184.198 298.256 183.921C298.533 183.644 298.948 183.69 299.225 183.506C299.363 183.506 299.455 183.506 299.548 183.46C299.824 183.183 300.24 183.275 300.517 183.044C300.655 183.044 300.793 183.044 300.886 182.998C301.163 182.768 301.532 182.86 301.762 182.583C302.132 182.168 302.731 182.583 303.1 182.122C303.47 181.706 304.069 182.122 304.439 181.66C304.715 181.383 305.131 181.43 305.408 181.245C305.546 181.245 305.638 181.245 305.73 181.245C306.007 180.968 306.423 181.06 306.699 180.83C306.838 180.83 306.93 180.83 307.022 180.83C307.392 180.414 307.991 180.83 308.361 180.414C308.73 179.999 309.329 180.414 309.699 179.953C310.068 179.538 310.668 179.907 311.083 179.538C311.221 179.538 311.36 179.538 311.498 179.492C311.775 179.261 312.144 179.307 312.467 179.122C312.605 179.122 312.698 179.122 312.836 179.122C313.205 178.753 313.805 179.122 314.22 178.707C314.359 178.707 314.497 178.707 314.636 178.661C315.005 178.338 315.605 178.661 315.974 178.246C316.481 177.738 317.266 178.246 317.773 177.831C317.912 177.831 318.05 177.831 318.189 177.831C318.742 177.415 319.48 177.877 319.988 177.415C320.126 177.415 320.265 177.415 320.403 177.415C321.234 176.908 322.249 177.554 323.079 177C323.91 177 324.787 177 325.617 177C326.032 177.369 326.586 177.046 327.001 177.369C327.14 177.415 327.232 177.461 327.37 177.415C327.647 177.646 328.063 177.554 328.293 177.877C328.662 178.246 329.308 177.877 329.631 178.338C329.908 178.569 330.277 178.477 330.554 178.753C330.923 179.169 331.523 178.753 331.892 179.215C332.123 179.445 332.538 179.399 332.815 179.63C333.046 179.907 333.461 179.815 333.692 180.091C333.922 180.368 334.338 180.276 334.568 180.553C334.753 180.645 334.891 180.83 335.03 180.968C335.261 181.245 335.676 181.153 335.86 181.476C336.045 181.568 336.183 181.706 336.322 181.891C336.506 181.983 336.645 182.168 336.783 182.306C336.968 182.398 337.106 182.583 337.245 182.768C337.429 182.86 337.568 183.044 337.706 183.229C337.891 183.321 338.029 183.506 338.167 183.69C338.49 183.875 338.398 184.29 338.675 184.521C338.813 184.706 338.952 184.844 339.09 185.029C339.367 185.213 339.275 185.674 339.552 185.859C339.69 186.044 339.875 186.182 339.967 186.413C339.967 186.551 339.967 186.643 340.013 186.736C340.152 186.92 340.29 187.059 340.382 187.289C340.382 187.428 340.382 187.52 340.428 187.612C340.659 187.843 340.567 188.258 340.844 188.489C341.259 188.812 340.844 189.458 341.305 189.827C341.72 190.196 341.305 190.796 341.72 191.165C341.997 191.396 341.951 191.811 342.136 192.088C342.735 192.734 342.089 193.611 342.597 194.303C343.012 194.626 342.643 195.272 343.058 195.641C343.474 195.964 343.058 196.61 343.52 196.933C343.889 197.302 343.52 197.902 343.935 198.271C344.35 198.594 343.981 199.24 344.396 199.609C344.812 199.978 344.396 200.578 344.858 200.947C345.273 201.316 344.858 201.916 345.319 202.285C345.735 202.654 345.319 203.254 345.781 203.623C346.196 203.992 345.827 204.592 346.242 204.961C346.657 205.33 346.334 205.93 346.657 206.346C346.657 206.484 346.657 206.576 346.657 206.715C347.026 207.084 346.657 207.684 347.073 208.053C347.488 208.422 347.165 209.022 347.534 209.437C347.534 209.575 347.534 209.714 347.534 209.852C347.903 210.221 347.534 210.821 347.949 211.19C348.318 211.559 347.995 212.159 348.365 212.528C348.78 212.898 348.457 213.497 348.78 213.913C348.78 214.051 348.78 214.143 348.78 214.282C349.195 214.651 348.78 215.251 349.195 215.62C349.61 215.989 349.287 216.589 349.61 217.004C349.61 217.142 349.61 217.235 349.61 217.373C350.026 217.742 349.61 218.342 350.026 218.711C350.441 219.08 350.118 219.68 350.441 220.095C350.441 220.234 350.441 220.326 350.441 220.465C350.81 220.834 350.441 221.434 350.856 221.803C351.364 222.264 350.856 223.048 351.318 223.556C351.687 223.925 351.41 224.525 351.733 224.94C351.733 225.079 351.733 225.171 351.733 225.309C352.102 225.679 351.733 226.278 352.148 226.647C352.656 227.109 352.148 227.893 352.61 228.401C353.025 228.77 352.702 229.37 353.025 229.785C353.025 229.923 353.025 230.016 353.025 230.154C353.44 230.523 353.071 231.169 353.44 231.538C353.44 231.677 353.44 231.769 353.44 231.908C353.809 232.323 353.486 232.923 353.855 233.292C353.855 233.43 353.855 233.522 353.855 233.661C354.224 234.03 353.901 234.63 354.271 235.045C354.271 235.184 354.271 235.322 354.271 235.46C354.64 235.876 354.317 236.429 354.64 236.845C354.64 236.983 354.64 237.075 354.64 237.214C355.009 237.583 354.64 238.183 355.101 238.506C355.332 238.829 355.747 238.69 355.932 239.013C356.208 239.244 356.624 239.152 356.808 239.475C357.27 239.751 357.777 239.982 358.146 240.351C358.608 240.628 359.069 240.905 359.484 241.228C359.715 241.459 360.13 241.413 360.361 241.689C360.823 241.966 361.284 242.197 361.699 242.566C361.93 242.797 362.345 242.751 362.576 243.027C363.037 243.304 363.499 243.535 363.914 243.904C364.145 244.135 364.56 244.089 364.791 244.366C364.975 244.458 365.114 244.642 365.252 244.781C365.483 245.058 365.898 244.965 366.129 245.242C366.313 245.334 366.452 245.519 366.59 245.657C366.821 245.934 367.236 245.842 367.467 246.165C367.651 246.257 367.79 246.442 367.928 246.58C368.159 246.857 368.574 246.765 368.805 247.042C368.99 247.134 369.128 247.319 369.266 247.457C369.497 247.734 369.912 247.642 370.143 247.965C370.328 248.057 370.466 248.195 370.604 248.38C370.743 248.518 370.927 248.657 371.066 248.749C371.25 249.072 371.712 248.98 371.896 249.256C372.081 249.349 372.219 249.533 372.358 249.626C372.542 249.949 373.004 249.856 373.188 250.133C373.373 250.225 373.511 250.41 373.65 250.548C373.88 250.825 374.296 250.733 374.526 251.056C374.711 251.148 374.849 251.333 374.988 251.471C375.218 251.748 375.634 251.656 375.864 251.979C376.049 252.071 376.187 252.256 376.326 252.394C376.557 252.671 376.972 252.579 377.203 252.855C377.387 252.948 377.526 253.086 377.664 253.271C377.895 253.501 378.356 253.455 378.541 253.732C378.725 253.824 378.864 253.963 379.002 254.147C379.14 254.286 379.325 254.424 379.463 254.516C379.648 254.839 380.109 254.747 380.294 255.024C380.479 255.116 380.617 255.301 380.755 255.393C380.986 255.716 381.401 255.578 381.586 255.901C381.77 255.993 381.909 256.178 382.047 256.316C382.278 256.593 382.693 256.501 382.924 256.824C383.109 256.916 383.247 257.1 383.385 257.239C383.801 257.608 384.308 257.792 384.677 258.162C384.862 258.254 385 258.438 385.139 258.577C385.277 258.715 385.416 258.854 385.6 258.992C385.969 259.361 386.523 259.546 386.892 259.961C387.077 260.053 387.215 260.192 387.354 260.376C387.538 260.469 387.676 260.653 387.815 260.792C387.953 260.93 388.092 261.068 388.276 261.207C388.83 261.714 389.43 262.13 389.984 262.591C390.168 262.683 390.307 262.868 390.445 263.006C390.583 263.145 390.722 263.283 390.906 263.376C391.091 263.745 391.552 263.606 391.737 263.929C391.921 264.022 392.06 264.206 392.198 264.344C392.383 264.483 392.521 264.621 392.66 264.76C392.798 264.898 392.937 265.037 393.121 265.175C393.26 265.36 393.398 265.498 393.536 265.636C393.675 265.775 393.859 265.913 393.998 266.098C394.182 266.236 394.321 266.375 394.459 266.559C394.644 266.698 394.782 266.836 394.921 266.974C395.059 267.113 395.244 267.251 395.382 267.436C395.705 267.99 395.797 268.589 395.382 269.143L395.244 268.728Z" fill="#FFB68A"/>
<path d="M247.686 207.729C250.454 207.453 253.222 207.222 256.037 206.945C256.683 206.899 257.375 206.807 258.021 206.807C261.989 206.807 265.957 206.714 269.925 206.807C272.325 206.899 274.77 207.176 277.17 207.499C279.661 207.822 282.107 208.191 284.552 208.745C287.551 209.391 290.504 210.267 293.365 211.513C293.965 211.79 294.611 211.928 295.257 212.113C296.18 212.667 296.364 213.405 295.718 214.328C292.119 216.358 288.52 218.388 284.967 220.464C280.538 223.002 276.154 225.54 271.725 228.078C267.388 230.569 263.05 233.107 258.713 235.598C254.93 237.767 251.146 239.936 247.363 242.058C246.578 242.473 245.748 242.843 244.963 243.212C244.179 243.581 243.302 243.673 242.518 242.935C242.149 242.566 241.687 242.289 241.272 242.012C238.734 240.074 236.058 238.413 232.874 237.721C227.891 236.614 223.231 237.306 218.848 239.982C213.68 243.166 210.265 247.78 208.005 253.317C206.39 257.238 205.559 261.345 205.651 265.59C205.744 268.589 205.651 271.634 206.159 274.634C206.39 275.926 206.759 277.217 207.036 278.509C207.174 278.971 206.989 279.109 206.574 278.971C203.483 275.556 201.268 271.588 199.469 267.389C197.761 263.329 196.423 259.084 196.054 254.701C195.731 251.148 195.639 247.503 196.285 243.95C196.285 243.812 196.285 243.673 196.285 243.535C196.239 242.935 196.1 242.381 196.469 241.827C196.516 241.735 196.562 241.597 196.469 241.505C196.792 241.089 196.469 240.443 196.931 240.074C197.161 239.843 197.115 239.428 197.346 239.197C197.761 238.874 197.346 238.228 197.807 237.859C198.038 237.629 197.992 237.213 198.223 236.983C198.5 236.752 198.407 236.337 198.684 236.106C198.915 235.875 198.823 235.414 199.192 235.229C199.284 235.045 199.469 234.906 199.607 234.768C199.838 234.537 199.745 234.076 200.114 233.891C200.207 233.707 200.391 233.568 200.576 233.43C200.899 233.015 201.083 232.507 201.499 232.138C201.591 231.953 201.776 231.815 201.96 231.676C202.099 231.538 202.237 231.354 202.375 231.215C202.791 230.615 203.252 230.015 203.76 229.462C203.852 229.277 204.036 229.139 204.221 229C204.313 228.816 204.498 228.677 204.682 228.539C204.821 228.354 204.959 228.216 205.144 228.078C205.282 227.893 205.421 227.755 205.605 227.616C205.744 227.432 205.882 227.293 206.067 227.155C206.205 226.97 206.343 226.832 206.528 226.693C206.666 226.509 206.805 226.37 206.989 226.232C207.082 226.047 207.266 225.909 207.451 225.817C208.005 225.355 208.604 224.894 209.204 224.479C209.343 224.34 209.481 224.156 209.666 224.063C209.804 223.925 209.942 223.74 210.127 223.648C210.496 223.279 211.05 223.094 211.419 222.725C211.557 222.587 211.696 222.402 211.88 222.31C212.249 221.941 212.757 221.756 213.218 221.433C213.357 221.295 213.495 221.11 213.726 221.018C213.911 220.741 214.372 220.833 214.603 220.557C214.741 220.418 214.88 220.234 215.11 220.141C215.295 219.818 215.756 219.911 215.987 219.68C216.402 219.357 216.864 219.08 217.371 218.803C217.602 218.48 218.017 218.573 218.248 218.342C218.663 218.019 219.124 217.742 219.586 217.465C219.817 217.188 220.232 217.234 220.463 217.004C221.847 216.081 223.369 215.435 224.892 214.789C225.123 214.512 225.538 214.558 225.815 214.374C226.138 213.912 226.784 214.328 227.153 213.912C227.384 213.635 227.799 213.728 228.076 213.497C228.768 213.082 229.598 212.989 230.291 212.62C230.983 212.205 231.813 212.067 232.551 211.744C233.52 211.328 234.628 211.236 235.643 210.821C236.012 210.406 236.612 210.775 236.981 210.406C237.35 209.99 237.996 210.313 238.411 209.99C238.55 209.99 238.642 209.99 238.734 209.944C239.103 209.575 239.703 209.944 240.072 209.529C240.58 209.021 241.364 209.529 241.872 209.068C242.426 208.56 243.164 209.068 243.717 208.652C243.856 208.652 243.948 208.652 244.087 208.652C244.64 208.191 245.379 208.652 245.932 208.237C246.071 208.237 246.163 208.237 246.255 208.237C246.901 207.914 247.593 207.914 248.285 207.868L247.686 207.729Z" fill="#8989DE"/>
<path d="M138.932 221.434C139.024 221.572 139.116 221.572 139.208 221.434C139.762 221.849 140.593 221.295 141.1 221.895H141.054C141.377 222.033 141.746 221.987 142.023 222.218C142.254 222.495 142.669 222.402 142.9 222.633L142.992 222.725H143.13C143.5 222.818 143.915 222.818 144.192 223.141C144.469 223.325 144.884 223.233 145.115 223.556C145.622 224.017 146.406 223.418 146.868 224.064C147.191 224.202 147.56 224.156 147.837 224.433C148.16 224.848 148.806 224.433 149.129 224.94C149.406 225.125 149.821 225.079 150.052 225.309L150.144 225.402H150.282C150.744 225.632 151.39 225.309 151.759 225.863H151.713C152.036 225.955 152.451 225.909 152.682 226.278C152.958 226.463 153.374 226.371 153.604 226.74C153.881 226.924 154.343 226.832 154.481 227.247H154.435C154.666 227.247 154.85 227.432 154.989 227.616C155.404 227.939 155.958 228.078 156.281 228.585H156.234C156.465 228.585 156.604 228.77 156.788 228.908C157.019 229.185 157.434 229.093 157.665 229.37C157.895 229.6 158.357 229.508 158.541 229.877H158.495C158.726 229.877 158.864 230.062 159.003 230.246C159.418 230.569 160.018 230.708 160.295 231.262H160.249C160.526 231.262 160.664 231.4 160.802 231.631C161.033 231.631 161.171 231.815 161.31 232C161.494 232.138 161.633 232.277 161.771 232.415C161.956 232.553 162.094 232.692 162.187 232.876C162.371 232.969 162.556 233.107 162.648 233.338C162.833 233.43 162.971 233.569 163.109 233.753C163.294 233.845 163.432 234.03 163.571 234.168C163.755 234.491 164.263 234.353 164.401 234.722H164.355C164.586 234.722 164.77 234.907 164.863 235.137C165.093 235.183 165.232 235.368 165.37 235.506C165.601 235.783 166.062 235.645 166.201 236.06H166.155C166.385 236.06 166.524 236.245 166.708 236.383C167.078 236.752 167.677 236.891 168 237.398H167.954C168.185 237.398 168.369 237.583 168.462 237.813C168.692 237.86 168.831 238.044 168.969 238.229C169.154 238.321 169.292 238.506 169.431 238.644C169.8 239.013 170.4 239.152 170.676 239.659H170.63C170.907 239.659 171.046 239.844 171.138 240.074C171.369 240.121 171.553 240.305 171.599 240.536H171.553C172.061 240.766 172.199 241.366 172.568 241.782C172.753 241.92 172.891 242.058 172.984 242.289C173.214 242.335 173.399 242.52 173.399 242.797H173.353C173.906 243.027 174.045 243.581 174.368 244.043C174.691 244.227 174.598 244.642 174.829 244.919C175.106 245.196 175.106 245.611 175.244 245.98V246.119L175.337 246.211C175.614 246.488 175.567 246.857 175.706 247.18C176.26 247.457 175.844 248.103 176.213 248.472C176.536 248.703 176.49 249.026 176.306 249.395C175.429 249.533 175.06 248.795 174.552 248.287C169.385 243.027 163.202 239.336 156.557 236.199C150.836 233.476 144.884 232.923 138.793 232.738C134.179 232.6 129.565 233.338 125.089 234.768C120.429 236.245 116 238.136 112.124 241.182C110.74 242.289 109.217 243.858 107.002 242.658C106.495 238.459 107.648 234.676 109.955 231.215C110.278 230.569 110.786 230.016 111.339 229.462C112.954 226.924 115.538 225.632 117.984 224.156C118.999 223.279 120.291 222.818 121.583 222.402C122.229 221.895 123.059 221.803 123.844 221.526C126.52 220.142 129.334 220.095 132.241 220.603L132.38 220.695H132.518C134.318 221.157 136.209 220.418 138.009 221.018C138.516 221.48 139.301 220.972 139.808 221.48L138.932 221.434Z" fill="#814414"/>
<path d="M225.353 296.597C225.169 296.458 225.03 296.32 224.846 296.228C224.338 295.628 223.784 295.074 223.277 294.474C224.292 294.474 225.353 294.474 226.368 294.474C227.706 294.52 229.044 294.382 230.29 294.013C234.12 292.905 237.857 291.66 241.133 289.214C244.132 286.953 247.501 285.246 250.731 283.308C258.621 278.556 266.511 273.803 274.401 269.097C281.276 264.99 288.197 260.838 295.072 256.731C299.871 253.87 304.623 250.917 309.514 248.149C313.62 245.796 317.312 242.843 321.372 240.443C322.526 240.536 322.618 241.597 322.895 242.335C324.325 246.534 325.156 250.871 326.078 255.208C326.309 256.224 325.894 257.1 325.525 257.977C320.311 269.466 315.651 281.186 309.791 292.352C309.283 293.321 308.822 294.336 307.761 294.936C307.299 295.628 306.745 295.858 305.915 295.582C302.178 294.428 298.302 294.244 294.38 294.474C292.027 294.613 289.766 295.305 287.736 296.504C286.028 297.473 284.829 298.95 283.906 300.611C283.721 300.519 283.537 300.334 283.306 300.288C279.199 299.55 275.047 298.811 270.94 298.027C269.879 297.842 268.91 298.027 267.987 298.581C264.85 300.288 261.481 301.349 258.021 302.18C256.175 302.595 254.283 302.964 252.392 303.149C251.284 303.287 250.269 303.749 249.208 304.025C248.47 303.426 247.501 303.702 246.67 303.564C244.455 303.241 242.195 303.056 239.98 302.826C239.472 302.364 238.826 302.41 238.18 302.41C237.673 301.903 237.027 301.995 236.427 301.949C236.058 301.534 235.55 301.534 235.089 301.534C234.72 301.118 234.258 301.118 233.751 301.072C233.105 300.519 232.367 300.242 231.536 300.196C231.305 299.873 230.982 299.78 230.613 299.78C230.383 299.457 230.106 299.365 229.737 299.319C229.552 298.996 229.229 298.904 228.86 298.858C228.675 298.535 228.352 298.442 228.029 298.396C227.706 297.935 227.245 297.658 226.691 297.519C226.368 297.058 225.953 296.735 225.399 296.597H225.353Z" fill="#8989DE"/>
<path d="M229.737 333.417C227.66 333.417 227.014 332.724 227.014 330.971C227.014 329.587 227.245 329.125 228.629 328.664C230.66 327.972 232.69 327.372 234.72 326.818C239.149 325.573 243.625 324.327 248.101 323.081C252.207 321.928 256.314 320.82 260.42 319.667C263.604 318.79 266.788 317.867 269.971 316.99C274.355 315.791 278.738 314.545 283.122 313.345C285.152 312.792 286.628 314.13 286.398 316.16C286.351 316.714 286.075 317.129 285.705 317.498C285.198 317.959 284.598 318.19 283.952 318.375C278.461 319.897 272.924 321.466 267.434 323.035C261.712 324.604 255.991 326.172 250.223 327.787C246.901 328.71 243.579 329.679 240.257 330.648C237.165 331.525 234.028 332.448 230.936 333.278C230.429 333.417 229.921 333.463 229.783 333.463L229.737 333.417Z" fill="#484944"/>
<path d="M105.341 303.701C105.341 303.471 105.203 303.286 104.926 303.24C104.603 302.548 104.188 301.948 103.542 301.533C103.449 301.348 103.403 301.118 103.265 300.933C101.142 297.98 99.4352 294.842 98.1433 291.428C98.051 291.243 97.9126 291.059 97.8203 290.874C97.7741 290.505 97.728 290.136 97.6357 289.813C95.1441 282.292 95.6978 274.863 97.9587 267.435C98.6047 265.312 99.4814 263.282 100.45 261.298C100.635 260.929 100.773 260.468 100.958 260.098C101.281 259.914 101.419 259.591 101.419 259.222C102.019 258.576 102.481 257.837 102.757 257.007C103.219 256.684 103.496 256.223 103.634 255.669C104.511 254.977 104.972 253.962 105.618 253.085C106.541 251.701 107.048 250.224 106.541 248.517C108.94 249.624 110.878 248.517 112.77 247.225C117.615 243.903 122.69 241.088 128.596 240.073C141.146 237.951 152.405 241.088 162.74 248.194C165.094 249.809 167.447 251.47 169.477 253.546C172.338 256.407 174.737 255.807 176.029 252.024C176.167 251.655 176.26 251.332 176.583 251.101C176.721 251.101 176.813 251.193 176.952 251.193C176.952 251.655 177.044 252.116 177.413 252.485C177.367 252.624 177.367 252.716 177.413 252.854C177.044 253.223 176.906 253.685 176.952 254.146C176.49 254.7 176.629 255.392 176.675 255.992C176.583 256.592 176.49 257.099 175.89 257.468C174.645 258.253 173.491 259.176 172.245 260.006C171.784 260.329 171.23 260.606 170.677 260.79C165.37 262.959 160.018 265.128 154.712 267.25C152.497 268.127 150.421 269.28 148.483 270.572C146.453 271.91 145.345 273.802 145.068 276.248C144.838 278.324 144.838 280.354 144.976 282.43C145.161 284.922 145.391 287.414 144.745 289.905C144.099 292.489 142.992 294.889 141.792 297.288C141.377 298.072 140.731 298.672 140.085 299.318C138.47 300.841 136.855 302.317 135.194 303.84C132.38 306.47 129.842 309.331 127.212 312.145C126.335 313.068 125.782 314.175 125.089 315.237C124.951 315.237 124.859 315.237 124.766 315.375C121.813 314.914 119.045 313.852 116.369 312.514C115.769 312.237 115.215 311.961 114.616 311.684C113.831 310.946 112.954 310.346 111.939 309.93C111.478 309.331 110.878 308.869 110.186 308.592C110.14 308.362 109.955 308.223 109.725 308.177C108.248 306.701 106.772 305.224 105.295 303.748L105.341 303.701Z" fill="#814414"/>
<path d="M307.715 294.935C309.56 291.336 311.452 287.737 313.205 284.092C314.959 280.447 316.574 276.709 318.235 273.018C319.573 269.973 320.911 266.974 322.249 263.928C323.264 261.575 324.325 259.222 325.34 256.869C325.571 256.315 325.663 255.808 325.525 255.162C324.879 252.624 324.187 250.04 323.725 247.456C323.31 245.195 322.618 243.027 321.788 240.904C321.695 240.719 321.511 240.535 321.418 240.397C320.865 238.966 320.311 237.536 319.711 236.152C318.327 232.829 316.989 229.507 315.605 226.231C314.405 223.417 313.252 220.556 312.006 217.741C311.637 216.957 311.175 216.126 310.252 215.85C309.422 215.573 308.684 215.25 307.715 215.527C306.653 215.803 305.546 215.619 304.439 215.665C302.408 215.757 300.332 215.342 298.302 216.034C297.702 216.219 297.148 216.034 296.733 215.527C296.41 215.157 296.087 214.742 295.764 214.373C295.764 213.589 295.856 212.804 295.303 212.158C295.441 212.158 295.626 212.158 295.718 212.066C298.348 210.405 301.255 209.897 304.346 209.897C305.823 209.897 307.299 209.897 308.776 209.897C311.867 209.897 314.59 211.789 315.835 214.65C317.45 218.341 319.111 222.032 320.68 225.77C321.88 228.538 322.756 231.445 323.679 234.306C325.387 239.381 327.14 244.457 328.939 249.532C329.539 251.286 330.185 252.993 330.785 254.746C331.339 256.361 331.246 257.884 330.554 259.453C329.17 262.452 327.924 265.543 326.586 268.542C325.94 270.019 325.156 271.449 324.602 272.972C324.048 274.495 323.218 275.925 322.664 277.401C320.542 282.984 317.589 288.198 315.051 293.505C315.143 294.197 315.743 294.381 316.112 294.612C318.096 295.904 320.126 297.103 322.111 298.349C322.757 298.765 323.356 298.672 323.956 298.257C324.233 298.026 324.51 297.796 324.787 297.519C326.125 296.135 327.647 295.027 329.216 293.874C330.277 293.089 331.2 292.12 332.262 291.336C334.522 289.583 336.599 287.599 338.814 285.799C340.936 284 343.151 282.292 345.319 280.539C346.565 279.524 347.765 278.417 349.011 277.401C350.349 276.294 351.733 275.187 353.117 274.033C354.686 272.741 356.255 271.403 357.87 270.065C358.193 269.788 358.239 269.465 358.146 269.096C357.593 266.512 356.993 263.928 356.439 261.391C355.563 257.33 354.686 253.224 353.809 249.163C353.486 247.594 353.117 246.026 352.702 244.457C352.471 243.672 352.471 242.842 352.563 242.058C352.702 241.042 353.44 240.304 354.455 240.166C355.101 240.074 355.793 240.027 356.439 240.304C357.131 240.581 357.731 240.996 357.916 241.827C358.285 243.396 358.792 244.918 359.115 246.533C359.761 249.486 360.315 252.439 360.961 255.346C361.93 259.868 362.991 264.344 363.96 268.865C364.237 270.203 364.237 271.542 362.945 272.464C361.699 274.771 359.577 276.248 357.593 277.863C356.393 278.832 355.286 279.893 354.086 280.862C351.779 282.708 349.518 284.553 347.257 286.399C346.011 287.414 344.812 288.521 343.566 289.536C342.228 290.644 340.844 291.797 339.459 292.859C338.398 293.689 337.475 294.612 336.414 295.396C334.153 297.15 332.031 299.088 329.862 300.933C328.893 301.718 327.924 302.502 326.955 303.286C326.725 303.471 326.448 303.609 326.263 303.794C325.848 304.209 325.802 304.947 325.064 304.947C324.418 304.947 324.095 304.301 323.633 303.978C320.265 301.579 316.574 299.687 312.882 297.934C312.283 297.657 311.683 297.38 311.037 297.242C309.653 296.965 308.684 296.135 307.945 294.981L307.715 294.935Z" fill="#E6A37B"/>
<path d="M176.583 251.056C176.721 252.625 176.352 253.963 175.06 255.024C173.583 256.27 171.692 256.316 170.215 255.117C169.708 254.701 169.246 254.194 168.785 253.732C167.401 252.256 165.786 251.148 164.217 249.949C161.218 247.688 157.849 246.027 154.527 244.227C151.897 242.843 149.221 241.736 146.314 241.09C144.653 240.721 143.038 240.259 141.331 240.444C140.962 240.444 140.547 240.536 140.224 240.444C138.055 239.798 135.84 239.982 133.626 240.075C129.934 240.259 126.381 240.859 122.921 242.243C119.322 243.674 116.092 245.658 112.908 247.78C111.986 248.38 111.017 248.888 110.001 249.395C109.632 249.58 109.171 249.718 108.756 249.764C107.879 249.903 107.141 249.718 106.864 248.749C106.864 248.657 106.633 248.565 106.541 248.472C105.757 246.534 105.618 244.596 106.541 242.659C107.556 242.797 108.433 242.52 109.263 242.013C110.001 241.551 110.832 241.182 111.478 240.582C115.585 237.029 120.568 235.276 125.689 233.8C127.581 233.246 129.519 232.923 131.457 232.554C132.011 232.461 132.61 232.508 133.21 232.461C134.041 232.461 134.825 232.415 135.61 232.185C136.809 231.862 138.147 231.862 139.347 232.185C140.501 232.461 141.654 232.461 142.854 232.508C143.869 232.508 144.93 232.415 145.899 232.831C146.084 232.923 146.36 232.923 146.545 232.831C147.745 232.185 148.898 232.646 149.913 233.154C152.774 234.492 155.727 235.553 158.634 236.799C161.125 237.86 163.479 239.152 165.647 240.813C166.985 241.828 168.416 242.751 169.846 243.674C171.83 245.012 173.445 246.673 174.875 248.565C175.106 248.888 175.291 249.164 175.66 249.303C175.798 249.441 175.983 249.58 176.121 249.764C176.26 250.18 176.444 250.641 176.583 251.056Z" fill="#5C3718"/>
</svg>
