<?xml version="1.0" encoding="UTF-8"?>
<svg xmlns="http://www.w3.org/2000/svg" version="1.1" viewBox="0 0 1417.3 1417.3">
  <defs>
    <style>
      .cls-1 {
        fill: #814414;
      }

      .cls-2 {
        fill: #484944;
      }

      .cls-3 {
        fill: #696d65;
      }

      .cls-4 {
        fill: #e6a37b;
      }

      .cls-5 {
        fill: #5c3718;
      }

      .cls-6 {
        fill: #8989de;
      }

      .cls-7 {
        fill: #ffb68a;
      }
    </style>
  </defs>
  <!-- Generator: Adobe Illustrator 28.7.1, SVG Export Plug-In . SVG Version: 1.2.0 Build 142)  -->
  <g>
    <g id="_레이어_1" data-name="레이어_1">
      <g>
        <path class="cls-3" d="M887,966.1h-.3c0,0-.3.1-.3.1-1.9,1.1-4.1-.2-6,.9h-.4c0-.1-.3,0-.3,0-3.1,1.4-6.5-.3-9.7,1h0c-1.9,1.2-4.1-.1-6,.9h-.3c0-.1-.3,0-.3,0-.8.7-1.8.5-2.7.5-21.9,0-43.7,0-65.6,0-.9,0-1.9.2-2.7-.5l-.3-.2h-.3c-1.3-.7-2.9.3-4.2-.8h0c-8.1-.7-16.3-.6-24.4,0-.9-.3-1.7-.2-2.5,0-5.6,1.1-11.2.2-16.8.5-1.9,0-3.8-.4-5.6.4-.5,0-1,0-1.5,0-1.3,1-2.8.5-4.2.5-13.9,0-27.7,0-41.6,0-1.4,0-2.9.4-4.2-.5-.5,0-1.1,0-1.6,0-5.5-1.3-11.1.6-16.6-1h0c-3.1-1.2-6.6.5-9.7-.9l-.3-.2h-.3c-2.3-.9-4.9.5-7.1-.8h0c-1.5-1.1-3.4.2-4.9-.9h0c-1.8-1.2-4,.4-5.8-1h0c-.8-.8-2.1,0-3-.9l-.3-.2h-.3c-1.3-.7-3,.4-4.2-.9h0c-.7-.3-1.5-.2-2-.8h0c-.6-.5-1.5-.3-2-1h0c-.6-.5-1.4-.3-2-.9h0c-1.5-.9-3.3-1-4.8-2.1h0c-.6-.4-1.5-.2-2-.9h0c-.6-.5-1.5-.3-2-.9h0c-.5-.5-1.5-.3-1.9-1h0c-.6-.5-1.5-.3-1.9-1h0c-1.1-.5-2.1-1.1-3-1.8h0c-.5-.5-1.6-.3-1.9-1.2h.1c-.6,0-.9-.4-1.1-.8h0c-.4-.1-.7-.5-1.1-.8h0c-.8-.8-2.1-1.1-2.7-2.2h0c-.6,0-.9-.4-1.1-.9h0c-.5,0-.9-.4-1.1-.9h0c-.5-.1-.8-.5-1.1-.9h0c-.5-.1-.8-.5-1.1-.9h0c-.4-.2-.7-.5-1-.9h0c-.4-.2-.8-.6-1-1h0c-.5-.2-.8-.5-1-1.1h.1c-5.2-3.3-6-9.1-7.8-14.3h0c-1.3-.9,0-2.7-1.1-3.7h0c-1-1.2-.1-2.9-.9-4.2.2-.2.2-.4,0-.6-1.4-2.5.3-5.3-1-7.8h0c-.9-1.8-.8-3.8,0-5.7.2-.2.2-.5,0-.7,1-1.6-.2-3.5.9-5,.2-.2.3-.4.1-.6.6-1,0-2.4,1-3.2h0c.7-.8,0-2.1,1-2.9h0c.8-.7,0-2.2,1.1-2.8h0c.4-.6.2-1.5,1.1-1.9h-.1c.1-.4.5-.7.9-1h0c.6-1.2,1.7-2.1,2.8-2.9h0c.6-.5.4-1.4,1.1-1.9h0c.5-.5.3-1.5,1.1-1.9h0c.2-.4.5-.7.9-1h0c1.4-2.1,3.3-3.8,5-5.6h-.1c.1-.5.5-.8,1-1h0c.2-.4.5-.8,1-1h0c.2-.4.5-.8,1.1-.9h0c.2-.4.5-.8,1.1-.9h0c.2-.5.5-.8,1.1-.9h0c.6-1,1.9-1.2,2.7-2.1h0c.4-.3.7-.7,1-.9h0c.3-.4.6-.7,1.1-.9h0c.2-.4.6-.8,1.1-.9h-.1c.3-.8,1.3-.5,1.8-1.1h0c.4-.3.7-.7,1.1-.9h0c.3-.4.6-.8,1.1-.9h-.1c.3-.7,1.3-.5,1.8-1.1h0c.3-.3.6-.7,1.1-.9h0c.4-.7,1.4-.4,1.8-1.1h0c.4-.3.7-.7,1.1-.9h0c.8-.8,1.9-1.3,2.9-1.9h0c.4-.7,1.4-.4,1.8-1.1h0c.4-.3.7-.7,1.1-.8h0c.4-.7,1.4-.5,1.9-1h0c.3-.3.6-.7,1.2-.8h-.1c.4-.7,1.3-.5,1.9-1h0c.4-.7,1.4-.4,1.9-1h0c.4-.3.7-.7,1.2-.8h-.1c.4-.8,1.3-.6,2-1h0c.4-.7,1.4-.5,1.9-1h0c.5-.6,1.4-.4,1.9-1h0c.4-.3.7-.7,1.2-.8h-.1c.4-.8,1.3-.6,2-1h0c.4-.7,1.4-.5,2-1h0c.5-.7,1.4-.5,1.9-1h0c.5-.6,1.4-.4,1.9-1h0c.5-.6,1.4-.4,1.9-1h0c.5-.6,1.4-.4,1.9-1h0c.5-.5,1.4-.4,1.9-1h0c.5-.5,1.4-.4,1.9-1h0c.5-.5,1.4-.4,1.9-1h0c.5-.5,1.4-.4,1.9-.9h0c.5-.6,1.4-.4,1.9-.9h0c.5-.6,1.4-.4,2-.9h0c.5-.6,1.4-.5,2-.9h0c.5-.6,1.4-.5,2-.9h0c.5-.7,1.4-.6,2-.9h0c.6-1.1,2.1-.2,2.8-1.1h0c.6-.5,1.4-.4,2-.9h0c.5-.6,1.4-.5,2-.9h0c.6-.7,1.5-.6,2.3-.9.2.1.4,0,.6-.2.6-.5,1.4-.4,2-.9h0c.5-.6,1.4-.5,2-.9h0c1.1-1.6,2.9-1.9,4.6-2.6,3.4-1.6,7-2.2,10.6-2.6,9.4-1.2,18.5-3.8,27-8,4.1-2,8-2.8,12.4-1.8,7,1.4,14.1,2.6,21.2,3.9,1.4.3,2.9.4,3.9,1.5.5.7.8,1.5.7,2.2-2,11.8,3.6,21.1,10.9,29,17.3,18.9,38.9,30.5,64.2,34.3,7,1,14.3,1,21.4-1.1,13.7-4.2,18.5-14.5,12.7-27.6-.9-2.1-2.1-4-3.2-5.9-2.8-4.5-2.8-5.5,1.7-8.7,15.7-11.1,31.4-22,47.1-33,26-18.3,52.2-36.3,78.1-54.7,2.3-1.7,4.5-3.6,7.7-3.5.5.1.9.4,1.1.9h0c.6,0,.9.4,1.1.9h0c.6,0,.9.4,1.1.9h0c.5,0,.9.4,1.1,1h0c.5,0,.9.4,1.1,1h0c.5,0,.9.4,1.1,1h0c.5,0,.9.4,1.1,1h0c.5,0,.9.4,1,1h-.1c2.2,2.5,5.1,4.5,6.9,7.6h0c.5.2.8.5,1,1h-.1c1.2,1,2.2,2.3,3,3.7h0c.5.2.8.5,1,1.1h-.1c1.1.6,1.5,1.8,2.1,2.8h0c1,1.2,2.3,2.3,2.8,3.9h0c.9.2.6,1.2,1.2,1.8h0c.4.3.8.6.9,1.1h-.1c.9.2.7,1.2,1.2,1.8h0c.8.8,1.4,1.8,1.9,2.9h0c1.8,1.9,2.6,4.5,3.9,6.7h0c.8.3.7,1.3,1.1,1.9h0c.8.3.6,1.3,1,1.9h0c.8.4.7,1.3,1,1.9h0c1.2,2.1,2.2,4.3,3,6.7h0c1,1.4,1.3,3.2,2,4.8h0c1.8,3.6,2.9,7.6,3.9,11.5h0c1.4.9.1,2.7,1.1,3.8h0c1.6,4.9,2.3,10.1,3,15.3h0c.8,8.1,2.2,16.1.9,24.4-.9,5.9-1.2,11.9-2.8,17.7h0c-1,1.1.2,2.8-1,3.8h0c-.8,2.1-.9,4.6-2.1,6.7h0c-.6,1.6-.9,3.3-1.9,4.8h0c-.8,1.5-.9,3.4-2.1,4.8h0c-.3.6-.2,1.5-1,1.9h0c-.4.6-.2,1.5-1,1.9h0c-.4.5-.2,1.5-1,1.9h0c-.4.5-.2,1.5-1.1,1.9h0c-.4,1.1-1,2-1.8,2.9h0c-.5.5-.3,1.5-1.1,1.9h0c-.4,1-1,2.1-2,2.9h.1c-.1.4-.5.7-.9,1h0c-2,4-5.1,6.9-8.6,9.6h0c-.4.3-.7.7-1,.9h0c-.3.4-.6.7-1.1.9h0c-.7.9-1.9,1.3-2.9,2h0c-.3.4-.6.8-1.1.9h.1c-.3.7-1.3.5-1.8,1.1h0c-.3.3-.6.7-1.1.9h.1c-.4.7-1.3.5-1.9,1h0c-.9.7-1.9,1.4-3,1.9h0c-.4.7-1.4.5-1.9,1h0c-.5.6-1.4.4-1.9,1h0c-1,.6-1.9,1.4-3.1,1.7h0c-.4.8-1.3.6-2,1h0c-.4.8-1.3.6-2,1h0c-1.3,1.2-3.3,1.1-4.7,2.1h0c-.5.6-1.4.4-2,.9h0c-.5.6-1.4.5-2,.9h0c-.6,1.1-2.1.2-2.9,1.1h0c-.5.6-1.4.5-2.1.9h0c-.7,1.1-2.1.2-2.9,1h0c-.7,1-2.1.2-2.9,1h0c-.8.9-2.1.1-2.9,1h0c-.8.9-2.1.2-2.9.9h0c-.8.9-2.1.2-3,.9h0c-.8,1-2.1.3-3,.9h0c-.7,1.1-2.1.3-2.9,1h0c-1,1.2-2.8,0-3.9,1h0c-.7,1-2.1.1-2.9,1h0c-1.4,1.2-3.4-.1-4.8.9h0c-.9.9-2.2.3-3.2.9h-.3c0,0-.3.1-.3.1-.6.6-1.4.4-2.1.8h0c-.8,1-2.2.3-3.2,1h-.3c0-.1-.3,0-.3,0-1.5,1.2-3.4-.1-4.9.9h0c-.7,1-2.1.2-2.9,1h0c-2.2,1.4-4.7-.2-6.9,1h-.4c0-.1-.3,0-.3,0-1.1,1-2.8,0-3.9.9h0c-1.5,1.2-3.5,0-5.1.9h-.3c0-.1-.3,0-.3,0-1.4,1.3-3.4-.2-4.8,1h0c-1.2,1-2.9,0-4.2.9-.5,0-1,0-1.6,0-3.1,1.3-6.5-.3-9.7.9h0c-1.7,1.4-4-.2-5.8,1h0c-4.2,1.4-8.6-.3-12.8.9Z"/>
        <path class="cls-7" d="M565,816.5c-.1.3-.1.5,0,.8-1.2,2.8.4,6-.9,8.8h0c-.7,9.2-2.4,18.1-7.7,25.9h0c-1.2,2-2.8,3.6-4.8,4.8h0c-.9.8-2,1.3-2.9,1.9h0c-1.7,1.4-3.8,2.1-5.8,2.9h0c-4.5.8-8.8,1-13.5.8-9-.3-18.8-1.4-25,7.8h0c-2.3,3.3-3.4,7.3-5.8,10.5h0c-.3.4-.6.7-1,1h0c-.3.3-.6.7-1,1h0c-2.7,2.1-5.6,2.1-8.6.9h0c-.5-.5-1.4-.3-1.9-1h0c-1-.6-2.1-1.1-2.9-1.9h0c-.4-.2-.7-.5-1-.9h0c-.4-.2-.7-.6-1-.9h0c-1.6-.9-2.9-2.2-3.9-3.8h0c-.4-.3-.7-.6-1-1h0c-.4-.3-.7-.6-1-1h0c-.4-.2-.7-.6-1-1h0c-1-1.2-2.1-2.4-3-3.8h0c-.3-.3-.7-.6-1-1h0c-.4-.3-.7-.6-1-1h0c-2.6-3.1-5.5-6-8.7-8.6h0c-.4-.2-.7-.6-1-.9h0c-.9-.7-2-1.1-2.9-2h0c-1-.6-2-1.1-2.9-1.9h0c-.5-.5-1.4-.4-1.9-1h0c-5.7-2.4-11.7-3.8-18-3.4-1.7.1-3.5.6-5.1-.5h0c-1.8-1.2-4,.4-5.8-1h0c-.4-.2-.9-.5-1.3-.8,0-.2-.1-.5-.2-.7,1.3-6.4,6.7-10,10.6-14.4,5.3-6.1,11.3-11.7,17.4-17,12.2-10.7,15.8-24.7,13.8-40.3-.7-5.4,0-10.6,1.1-15.6,1-4.3,3.6-7.8,7.5-10.1,4.5-2.7,9-5.4,14-7.3,10.7-4.1,21.3-8.7,31.9-13,5.7-2.3,10.6-5.8,14.9-10.1.4-.4.9-.3,1.3,0h0c.4.3.7.3,1.1,0h0c.4-.7,1.4-.4,1.9-1.1h0c.3-.3.7-.7,1-.9h0c.3-.3.6-.7,1-.9h0c.4-.6,1.4-.4,1.9-1h0c.3-.3.6-.7,1-.9h0c.5-.6,1.4-.4,1.9-1h0c.3-.3.6-.7,1-.9h0c.5-.6,1.4-.4,1.9-1h0c.3-.3.6-.7,1-.9h0c.5-.6,1.4-.4,1.9-1h0c.3-.3.6-.7,1-.9h0c.5-.6,1.4-.4,1.9-1h0c.3-.3.6-.7,1-.9h0c.5-.6,1.4-.4,1.9-1h0c.3-.3.6-.7,1-.9h0c.4-.6,1.4-.4,1.9-1h0c.3-.3.6-.7,1-.9h0c.4-.6,1.4-.4,1.8-1h0c.4-.3.7-.6,1-.9h0c.3-.3.6-.7,1-.9h0c.4-.6,1.4-.4,1.8-1h0c.4-.3.7-.6,1-.9h0c.3-.3.6-.7,1-.9h0c.5-.6,1.4-.4,1.9-1h0c.3-.3.6-.7,1-.9h0c.5-.6,1.4-.4,1.9-1h0c.3-.3.6-.7,1-.9h0c.5-.6,1.4-.4,1.9-1h0c.7-.6,1.4-.6,2.1,0,.8,4.4.1,8.9,0,13.3-.3,22.1,7,41.6,19.9,59.3.7.9,1.4,1.8,1.8,2.8.3.4.4,1.1.9,1.4-.3-.5-.7-1.1-.9-1.7-2.1-3.8-2.2-8-2.7-12.1-2.2-21.5.6-41.8,14.6-59.4,12.1-15.2,30.1-21.8,47.2-16.9,6.3,1.8,11.8,5,16.7,9.1,3.1,2.6,6,2.9,9.6,1,17.1-9.3,33.9-19.4,50.8-29,17.5-9.9,34.9-20.2,52.4-30.1,1.4-.8,2.7-1.7,4.4-1.6,2.9,2.5,6.1,2.7,9.8,2.3,5.7-.6,11.5,0,17.2-.5,4.7-.3,7.7,2.4,9.5,6.6,4.9,11.4,9.7,22.9,14.3,34.5,1.8,4.6,4.7,8.7,5.2,13.8-.5,1.9-2.1,2.7-3.5,3.7-15.2,10.6-31.3,19.8-47.2,29.3-36.2,21.7-72.3,43.5-108.5,65.1-6,3.6-11.8,7.7-17.9,11.2-10.9,6.4-22.5,10.8-35.5,9.1-1.2-.8-2.6-1.2-3.9-1.8h-.4c0,0-.4,0-.4,0-.9-.8-2.2,0-3-1h0c-.6-.5-1.4-.3-2-.8-.2-.1-.5-.2-.8-.1-.6-.4-1.5-.3-2.1-1h0c-.6-.5-1.5-.3-1.9-1h0c-.4-.2-.7-.5-1-.9h0c-.5-.6-1.4-.4-1.9-1h0c-.4-.2-.7-.6-1-.9h0c-.3-.3-.7-.6-1-.9h0c-.4-.7-1.4-.5-1.8-1.1h0c-.4-.2-.7-.5-1-.9h0c-.4-.2-.7-.6-1-.9h0c-.4-.3-.7-.6-1-1h0c-.4-.3-.7-.6-1-1h0c-.4-.2-.7-.6-1-1h0c-.7-.4-.4-1.3-1.1-1.8h0c-.3-.4-.6-.7-.9-1h0c-.3-.3-.7-.6-.9-1h0c-1-1.6-2.2-2.1-3.9-.9h0c-.4.3-.7.7-1.2.9-.3,0-.5,0-.8.2-.3.3-.7.6-1,.8h0c-.4.6-1.4.3-1.8,1h0c-.4.3-.7.6-1,.9h0c-.3.3-.6.7-1,.9h0c-.8.8-2,1.2-2.9,2h0c-.3.3-.6.7-1,.9h0c-.3.3-.6.7-1,.9h0c-.4.6-1.4.4-1.8,1h0c-.4.3-.7.6-1,.9h0c-.3.3-.6.7-1,.9h0c-.3.3-.6.7-1,.9h0c-.8.8-2,1.2-2.8,2h0c-.3.3-.6.7-1,.9h0c-.5.6-1.4.4-1.9,1h0c-.3.3-.6.7-1,.9h0c-.3.3-.6.7-1,.9h0c-.4.6-1.4.4-1.8,1h0c-.4.3-.7.6-1,.9h0c-.3.3-.6.7-1,.9h0c-.8.8-1.9,1.2-2.9,1.9h0c-.3.3-.6.7-1,.9h0c-.4.6-1.4.4-1.8,1h0c-.3.3-.7.6-.9.9h0c-.8,1.2-.9,2.8-2,3.8h0c-.6.5-.4,1.4-.9,1.9-.1.2-.1.5,0,.8-.4.6-.3,1.5-.9,2.1Z"/>
        <path class="cls-7" d="M1008.2,745.4c-2.2.2-3.8,1.5-5.5,2.7-10.7,7.5-21.4,15.1-32.1,22.6-17.8,12.5-35.6,24.9-53.3,37.4-11.8,8.2-23.6,16.4-35.4,24.7-2.5,1.7-5,3.5-7.5,5.2-2.1,1.5-2.8,2-.9,4.5,1.4,1.9,2.5,4.1,3.7,6.2,1.9,3.4,3,7.1,3.2,11,.4,7.1-2.5,12.7-8.6,16.5-4.7,2.9-9.9,4.4-15.4,4.8-13.5,1-26.3-2-38.7-7.2-11.5-4.7-21.9-11.2-31.3-19.2-7.1-6-13.2-12.9-17.4-21.4-1.5-3.2-2.5-6.6-3-10-.2-1.4,0-2.9.1-4.3.2-1.4.5-2.8.8-4.2-.1-3.4,2-5.6,4.4-7.6,5.4-4.4,11.6-6.7,18.4-7.1,7.6-.4,15.3-.2,22.8,1.7,1.9.5,3.8.5,5.7,0,11.3,6.5,24,10.3,34.4,18.5,2.1,1.6,3.7,1.7,5.8-.1,24.2-20.3,48.7-40.5,72.9-60.9,6.1-5.1,8.8-10.9,6.5-19.3-4.1-15.1-6.9-30.6-10.2-45.9-.3-1.4-.7-2.8-1.1-4.2-1.2-4.3-3.5-6.1-6.7-5.1-3.8,1.1-3.5,4.2-2.9,7.1,3.3,15.8,6.5,31.7,10.5,47.3,1.7,6.5.2,10.3-5,14.6-22.2,18.1-44.1,36.4-66,54.9-3,2.5-5.7,3.1-9.1.9-3.6-2.3-7.2-4.7-11-6.8-2.7-1.5-3.4-3.6-1.9-6.4.5-1,1-2,1.5-3,11.6-22.3,20.6-45.7,30.9-68.6,1.5-3.3,1.5-6.5.3-9.8-10.1-28.3-18.7-57.2-31.3-84.5-3.5-7.5-8.9-11.2-17.2-11.3-8.9,0-17.6,0-25.7,4.3-.7.4-1.6.3-2.4.3-10.8-3.5-21.5-7.1-32.8-8.7-20.5-3-41-3.3-61.5-.8-2.4.3-4.8.7-7-.5-.5-.4-.7-.9-.4-1.5h0c.4-.3.7-.7,1.2-.9.3,0,.5,0,.8-.2.3-.3.7-.6,1-.8h0c.5-.6,1.4-.4,1.9-1h0c.5-.6,1.4-.4,1.9-1h0c.5-.6,1.4-.4,1.9-1h0c.4-.3.7-.7,1.2-.9.3,0,.5,0,.7-.1.3-.3.7-.6,1-.9h0c.5-.6,1.4-.4,2-1h0c.5-.6,1.4-.4,1.9-1h0c.5-.6,1.4-.4,1.9-1h0c.5-.6,1.4-.4,1.9-1h0c.5-.6,1.4-.4,1.9-1h0c.5-.5,1.4-.4,1.9-1h0c.5-.5,1.4-.4,1.9-1h0c.5-.5,1.4-.3,1.9-1h0c.5-.5,1.4-.3,1.9-1h0c.4-.3.7-.7,1.2-.9.3,0,.5,0,.7-.1.4-.3.7-.7,1.2-.8.3,0,.5,0,.7-.1.4-.3.7-.7,1.2-.8.3,0,.5,0,.7-.1.5-.5,1.4-.3,1.9-.9h0c.5-.5,1.4-.3,1.9-1h0c.5-.5,1.4-.3,1.9-1h0c.5-.5,1.4-.4,1.9-1h0c.5-.5,1.4-.4,1.9-1h0c.5-.5,1.4-.4,1.9-.9h0c.5-.6,1.4-.4,1.9-.9h0c.5-.6,1.4-.4,2-.9h0c.5-.6,1.4-.4,2-1h0c.5-.6,1.4-.5,2-.9h0c.5-.6,1.4-.5,2.1-.9.3,0,.5,0,.8-.1.5-.5,1.4-.3,1.9-.9h0c.5-.5,1.4-.4,1.9-.9h0c.5-.6,1.4-.4,2-.9h0c.5-.6,1.4-.4,2-.9h0c.5-.6,1.5-.5,2.1-.9.3,0,.5,0,.8-.1.5-.5,1.4-.3,1.9-.9h0c.5-.5,1.4-.4,2-.9h0c.5-.6,1.4-.4,2-.9h0c.6-.6,1.5-.5,2.1-.9.3,0,.5,0,.8-.1.5-.5,1.4-.3,1.9-.9h0c.5-.6,1.4-.4,2-.9h0c.6-.6,1.5-.5,2.1-.9.3,0,.5,0,.8-.1.5-.5,1.4-.4,1.9-.9h0c.6-.6,1.5-.5,2.1-.9.3,0,.6,0,.8-.1.5-.5,1.4-.3,1.9-.9h0c.5-.5,1.4-.4,2-.9h0c.7-.9,2.1,0,2.9-1h0c.6-.5,1.4-.4,2-.9h0c.7-.9,2.1,0,2.9-1h0c.5-.5,1.4-.4,2-.9h0c.7-.9,2.1,0,2.9-1h0c.6-.6,1.5-.4,2.1-.9.3,0,.6,0,.8-.1.5-.5,1.4-.3,1.9-.9h0c.6-.6,1.5-.5,2.1-.9.3,0,.5,0,.7-.1.6-.6,1.5-.4,2.1-.9.3,0,.6,0,.8-.1.6-.5,1.4-.3,1.9-.9h0c.8-.9,2.1,0,2.9-1h0c.8-.9,2.1,0,2.9-1h0c.6-.6,1.5-.5,2.1-.9.3,0,.5,0,.7,0,.6-.6,1.5-.4,2.1-.9.3,0,.5,0,.7,0,.8-.9,2.1,0,2.9-.9h0c.8-.9,2.1,0,2.9-1h0c.8-.9,2.1-.1,3-.9.3,0,.6,0,.9-.1.6-.5,1.4-.4,2.1-.8.3,0,.5,0,.8,0,.8-.8,2.1,0,3-.9.3,0,.6,0,.9-.1.8-.7,2.1,0,2.9-.9h0c1.1-1.1,2.8,0,3.9-.9.3,0,.6,0,.9,0,1.2-.9,2.8.1,3.9-.9.3,0,.6,0,.9,0,1.8-1.1,4,.3,5.8-.9,1.8,0,3.7,0,5.5,0,.9.8,2.1.1,3,.8.3.1.5.2.8.1.6.5,1.5.3,2,1h0c.8.8,2.2,0,2.9,1h0c.6.5,1.4.3,2,.9h0c.8.9,2.1,0,2.9,1h0c.5.5,1.4.4,2,.9h0c.5.6,1.4.4,1.9,1h0c.5.6,1.4.4,1.9,1h0c.4.2.7.6,1,.9h0c.5.6,1.4.4,1.8,1.1h0c.4.2.7.5,1,.9h0c.4.2.7.6,1,.9h0c.4.2.7.6,1,1h0c.4.2.7.6,1,1h0c.4.2.7.6,1,1h0c.7.4.5,1.3,1.1,1.8h0c.3.4.6.7.9,1.1h0c.6.4.4,1.4,1,1.8h0c.3.4.7.7.9,1.2,0,.3,0,.5.1.7.3.4.6.7.8,1.2,0,.3,0,.5.1.7.5.5.3,1.4.9,1.9h0c.9.7,0,2.1,1,2.9h0c.9.8,0,2.1.9,2.9h0c.6.5.5,1.4.9,2h0c1.3,1.4-.1,3.3,1,4.8h0c.9.7.1,2.1,1,2.9h0c.9.7,0,2.1,1,2.8h0c.8.8,0,2.1.9,2.9h0c.9.7.1,2.1,1,2.9h0c.9.8,0,2.1,1,2.9h0c.9.8,0,2.1,1,2.9h0c.9.8,0,2.1,1,2.9h0c.9.8.1,2.1,1,2.9h0c.9.8.2,2.1.9,3,0,.3,0,.5,0,.8.8.8,0,2.1.9,2.9h0c.9.8.2,2.1,1,3,0,.3,0,.6,0,.9.8.8,0,2.1.9,2.9h0c.8.8.1,2.1.9,2.9h0c.9.8.2,2.1.9,3,0,.3,0,.5,0,.8.9.8,0,2.1.9,2.9h0c.9.8.2,2.1.9,3,0,.3,0,.5,0,.8.9.8,0,2.1.9,2.9h0c.9.8.2,2.1.9,3,0,.3,0,.5,0,.8.8.8,0,2.1.9,2.9h0c1.1,1,0,2.7,1,3.8h0c.8.8.2,2.1.9,3,0,.3,0,.5,0,.8.8.8,0,2.1.9,2.9h0c1.1,1,0,2.7,1,3.8h0c.9.8.2,2.1.9,3,0,.3,0,.5,0,.8.9.8.1,2.2.9,3,0,.3,0,.5,0,.8.8.9.1,2.2.9,3,0,.3,0,.5,0,.8.8.8.1,2.1.9,3,0,.3,0,.6,0,.9.8.9.1,2.1.8,3,0,.3,0,.5,0,.8.8.8,0,2.1,1,2.8h0c.5.7,1.4.4,1.8,1.1h0c.6.5,1.5.3,1.9,1h0c1,.6,2.1,1.1,2.9,1.9h0c1,.6,2,1.2,2.9,1.9h0c.5.5,1.4.4,1.9,1h0c1,.6,2,1.1,2.9,1.9h0c.5.5,1.4.4,1.9,1h0c1,.6,2,1.1,2.9,1.9h0c.5.5,1.4.4,1.9,1h0c.4.2.7.6,1,.9h0c.5.6,1.4.4,1.9,1h0c.4.2.7.6,1,.9h0c.5.6,1.4.4,1.9,1.1h0c.4.2.7.6,1,.9.5.6,1.4.4,1.9,1h0c.4.2.7.6,1,.9h0c.5.6,1.4.4,1.9,1.1h0c.4.2.7.5,1,.9h0c.3.3.7.6,1,.8h0c.4.7,1.4.5,1.8,1.1h0c.4.2.7.6,1,.8h0c.4.7,1.4.5,1.8,1.1h0c.4.2.7.6,1,.9h0c.5.6,1.4.4,1.9,1.1h0c.4.2.7.6,1,.9h0c.5.6,1.4.4,1.9,1.1h0c.4.2.7.6,1,.9h0c.5.6,1.4.4,1.9,1h0c.4.2.7.5,1,.9h0c.5.5,1.5.4,1.9,1h0c.4.2.7.5,1,.9h0c.3.3.7.6,1,.8h0c.4.7,1.4.5,1.8,1.1h0c.4.2.7.6,1,.8h0c.5.7,1.4.4,1.8,1.1h0c.4.2.7.6,1,.9h0c.5.6,1.4.4,1.9,1.1h0c.4.2.7.6,1,.9h0c.9.8,2,1.2,2.8,2h0c.4.2.7.6,1,.9h0c.3.3.6.6,1,.9h0c.8.8,2,1.2,2.8,2.1h0c.4.2.7.5,1,.9h0c.4.2.7.6,1,.9h0c.3.3.6.6,1,.9h0c1.2,1.1,2.5,2,3.7,3h0c.4.2.7.6,1,.9h0c.3.3.6.6,1,.8h0c.4.8,1.4.5,1.8,1.2h0c.4.2.7.6,1,.9h0c.4.3.7.6,1,.9h0c.3.3.6.6,1,.9h0c.3.4.6.7.9,1h0c.3.3.7.6,1,1h0c.4.3.7.6,1,1h0c.4.3.7.6,1,.9h0c.3.3.7.6,1,1h0c.7,1.2.9,2.5,0,3.7Z"/>
        <path class="cls-6" d="M688.4,613.2c6-.6,12-1.1,18.1-1.7,1.4-.1,2.9-.3,4.3-.3,8.6,0,17.2-.2,25.8,0,5.2.2,10.5.8,15.7,1.5,5.4.7,10.7,1.5,16,2.7,6.5,1.4,12.9,3.3,19.1,6,1.3.6,2.7.9,4.1,1.3,2,1.2,2.4,2.8,1,4.8-7.8,4.4-15.6,8.8-23.3,13.3-9.6,5.5-19.1,11-28.7,16.5-9.4,5.4-18.8,10.9-28.2,16.3-8.2,4.7-16.4,9.4-24.6,14-1.7.9-3.5,1.7-5.2,2.5s-3.6,1-5.3-.6c-.8-.8-1.8-1.4-2.7-2-5.5-4.2-11.3-7.8-18.2-9.3-10.8-2.4-20.9-.9-30.4,4.9-11.2,6.9-18.6,16.9-23.5,28.9-3.5,8.5-5.3,17.4-5.1,26.6.2,6.5,0,13.1,1.1,19.6.5,2.8,1.3,5.6,1.9,8.4.3,1-.1,1.3-1,1-6.7-7.4-11.5-16-15.4-25.1-3.7-8.8-6.6-18-7.4-27.5-.7-7.7-.9-15.6.5-23.3,0-.3,0-.6,0-.9-.1-1.3-.4-2.5.4-3.7.1-.2.2-.5,0-.7.7-.9,0-2.3,1-3.1h0c.5-.5.4-1.4.9-1.9h0c.9-.7,0-2.1,1-2.9h0c.5-.5.4-1.4.9-1.9h0c.6-.5.4-1.4,1-1.9h0c.5-.5.3-1.5,1.1-1.9h0c.2-.4.6-.7.9-1h0c.5-.5.3-1.5,1.1-1.9h0c.2-.4.6-.7,1-1h0c.7-.9,1.1-2,2-2.8h0c.2-.4.6-.7,1-1h0c.3-.3.6-.7.9-1h0c.9-1.3,1.9-2.6,3-3.8h0c.2-.4.6-.7,1-1h0c.2-.4.6-.7,1-1h0c.3-.4.6-.7,1-1h0c.3-.4.6-.7,1-1h0c.3-.4.6-.7,1-1h0c.3-.4.6-.7,1-1h0c.3-.4.6-.7,1-1h0c.2-.4.6-.7,1-.9h0c1.2-1,2.5-2,3.8-2.9h0c.3-.3.6-.7,1-.9h0c.3-.3.6-.7,1-.9h0c.8-.8,2-1.2,2.8-2h0c.3-.3.6-.7,1-.9h0c.8-.8,1.9-1.2,2.9-1.9h0c.3-.3.6-.7,1.1-.9h0c.4-.6,1.4-.4,1.9-1h0c.3-.3.6-.7,1.1-.9h0c.4-.7,1.4-.5,1.9-1h0c.9-.7,1.9-1.3,3-1.9h0c.5-.7,1.4-.5,1.9-1h0c.9-.7,1.9-1.3,2.9-1.9h0c.5-.6,1.4-.5,1.9-1h0c3-2,6.3-3.4,9.6-4.8h0c.5-.6,1.4-.5,2-.9h0c.7-1,2.1-.1,2.9-1h0c.5-.6,1.4-.4,2-.9h0c1.5-.9,3.3-1.1,4.8-1.9h0c1.5-.9,3.3-1.2,4.9-1.9h0c2.1-.9,4.5-1.1,6.7-2h0c.8-.9,2.1-.1,2.9-.9h0c.8-.9,2.2-.2,3.1-.9.3,0,.5,0,.7-.1.8-.8,2.1,0,2.9-.9h0c1.1-1.1,2.8,0,3.9-1h0c1.2-1.1,2.8,0,4-.9.3,0,.5,0,.8,0,1.2-1,2.8,0,4-.9.3,0,.5,0,.7,0,1.4-.7,2.9-.7,4.4-.8Z"/>
        <path class="cls-1" d="M452.7,642.9c.2.3.4.3.6,0,1.2.9,3-.3,4.1,1h-.1c.7.3,1.5.2,2.1.7h0c.5.6,1.4.4,1.9.9l.2.2h.3c.8.2,1.7.2,2.3.9h0c.6.4,1.5.2,2,.9h0c1.1,1,2.8-.3,3.8,1.1h0c.7.3,1.5.2,2.1.8h0c.7.9,2.1,0,2.8,1.1h0c.6.4,1.5.3,2,.8l.2.2h.3c1,.5,2.4-.2,3.2,1h-.1c.7.2,1.6.1,2.1.9h0c.6.4,1.5.2,2,1h0c.6.4,1.6.2,1.9,1.1h-.1c.5,0,.9.4,1.2.8h0c.9.7,2.1,1,2.8,2.1h-.1c.5,0,.8.4,1.2.7h0c.5.6,1.4.4,1.9,1h0c.5.5,1.5.3,1.9,1.1h-.1c.5,0,.8.4,1.1.8h0c.9.7,2.2,1,2.8,2.2h-.1c.6,0,.9.3,1.2.8h0c.5,0,.8.4,1.1.8h0c.4.3.7.6,1,.9h0c.4.3.7.6.9,1h0c.4.2.8.5,1,1h0c.4.2.7.5,1,.9h0c.4.2.7.6,1,.9h0c.4.7,1.5.4,1.8,1.2h-.1c.5,0,.9.4,1.1.9h0c.5.1.8.5,1.1.8h0c.5.6,1.5.3,1.8,1.2h-.1c.5,0,.8.4,1.2.7h0c.8.8,2.1,1.1,2.8,2.2h-.1c.5,0,.9.4,1.1.9h0c.5.1.8.5,1.1.9h0c.4.2.7.6,1,.9h0c.8.8,2.1,1.1,2.7,2.2h-.1c.6,0,.9.4,1.1.9h0c.5.1.9.5,1,1h-.1c1.1.5,1.4,1.8,2.2,2.7h0c.4.3.7.6.9,1.1h0c.5.1.9.5.9,1.1h-.1c1.2.5,1.5,1.7,2.2,2.7h0c.7.4.5,1.3,1,1.9h0c.6.6.6,1.5.9,2.3v.3c0,0,.2.2.2.2.6.6.5,1.4.8,2.1h0c1.2.6.3,2,1.1,2.8h0c.7.5.6,1.2.2,2-1.9.3-2.7-1.3-3.8-2.4-11.2-11.4-24.6-19.4-39-26.2-12.4-5.9-25.3-7.1-38.5-7.5-10-.3-20,1.3-29.7,4.4-10.1,3.2-19.7,7.3-28.1,13.9-3,2.4-6.3,5.8-11.1,3.2-1.1-9.1,1.4-17.3,6.4-24.8h0c.7-1.4,1.8-2.6,3-3.8h0c3.5-5.5,9.1-8.3,14.4-11.5h0c2.2-1.9,5-2.9,7.8-3.8h0c1.4-1.1,3.2-1.3,4.9-1.9h0c5.8-3,11.9-3.1,18.2-2l.3.2h.3c3.9,1,8-.6,11.9.7h0c1.1,1,2.8-.1,3.9,1Z"/>
        <path class="cls-6" d="M640,805.8c-.4-.3-.7-.6-1.1-.8-1.1-1.3-2.3-2.5-3.4-3.8,2.2,0,4.5,0,6.7,0,2.9.1,5.8-.2,8.5-1,8.3-2.4,16.4-5.1,23.5-10.4,6.5-4.9,13.8-8.6,20.8-12.8,17.1-10.3,34.2-20.6,51.3-30.8,14.9-8.9,29.9-17.9,44.8-26.8,10.4-6.2,20.7-12.6,31.3-18.6,8.9-5.1,16.9-11.5,25.7-16.7,2.5.2,2.7,2.5,3.3,4.1,3.1,9.1,4.9,18.5,6.9,27.9.5,2.2-.4,4.1-1.2,6-11.3,24.9-21.4,50.3-34.1,74.5-1.1,2.1-2.1,4.3-4.4,5.6-1,1.5-2.2,2-4,1.4-8.1-2.5-16.5-2.9-25-2.4-5.1.3-10,1.8-14.4,4.4-3.7,2.1-6.3,5.3-8.3,8.9-.4-.2-.8-.6-1.3-.7-8.9-1.6-17.9-3.2-26.8-4.9-2.3-.4-4.4,0-6.4,1.2-6.8,3.7-14.1,6-21.6,7.8-4,.9-8.1,1.7-12.2,2.1-2.4.3-4.6,1.3-6.9,1.9-1.6-1.3-3.7-.7-5.5-1-4.8-.7-9.7-1.1-14.5-1.6-1.1-1-2.5-.9-3.9-.9-1.1-1.1-2.5-.9-3.8-1-.8-.9-1.9-.9-2.9-.9-.8-.9-1.8-.9-2.9-1-1.4-1.2-3-1.8-4.8-1.9-.5-.7-1.2-.9-2-.9-.5-.7-1.1-.9-1.9-1-.4-.7-1.1-.9-1.9-1-.4-.7-1.1-.9-1.8-1-.7-1-1.7-1.6-2.9-1.9-.7-1-1.6-1.7-2.8-2Z"/>
        <path class="cls-2" d="M649.5,885.6c-4.5,0-5.9-1.5-5.9-5.3,0-3,.5-4,3.5-5,4.4-1.5,8.8-2.8,13.2-4,9.6-2.7,19.3-5.4,29-8.1,8.9-2.5,17.8-4.9,26.7-7.4,6.9-1.9,13.8-3.9,20.7-5.8,9.5-2.6,19-5.3,28.5-7.9,4.4-1.2,7.6,1.7,7.1,6.1-.1,1.2-.7,2.1-1.5,2.9-1.1,1-2.4,1.5-3.8,1.9-11.9,3.3-23.9,6.7-35.8,10.1-12.4,3.4-24.8,6.8-37.3,10.3-7.2,2-14.4,4.1-21.6,6.2-6.7,1.9-13.5,3.9-20.2,5.7-1.1.3-2.2.4-2.5.4Z"/>
        <path class="cls-1" d="M379.9,821.2c0-.5-.3-.9-.9-1-.7-1.5-1.6-2.8-3-3.7-.2-.4-.3-.9-.6-1.3-4.6-6.4-8.3-13.2-11.1-20.6-.2-.4-.5-.8-.7-1.2-.1-.8-.2-1.6-.4-2.3-5.4-16.3-4.2-32.4.7-48.5,1.4-4.6,3.3-9,5.4-13.3.4-.8.7-1.8,1.1-2.6.7-.4,1-1.1,1-1.9,1.3-1.4,2.3-3,2.9-4.8,1-.7,1.6-1.7,1.9-2.9,1.9-1.5,2.9-3.7,4.3-5.6,2-3,3.1-6.2,2-9.9,5.2,2.4,9.4,0,13.5-2.8,10.5-7.2,21.5-13.3,34.3-15.5,27.2-4.6,51.6,2.2,74,17.6,5.1,3.5,10.2,7.1,14.6,11.6,6.2,6.2,11.4,4.9,14.2-3.3.3-.8.5-1.5,1.2-2,.3,0,.5.2.8.2,0,1,.2,2,1,2.8-.1.3-.1.5,0,.8-.8.8-1.1,1.8-1,2.8-1,1.2-.7,2.7-.6,4-.2,1.3-.4,2.4-1.7,3.2-2.7,1.7-5.2,3.7-7.9,5.5-1,.7-2.2,1.3-3.4,1.7-11.5,4.7-23.1,9.4-34.6,14-4.8,1.9-9.3,4.4-13.5,7.2-4.4,2.9-6.8,7-7.4,12.3-.5,4.5-.5,8.9-.2,13.4.4,5.4.9,10.8-.5,16.2-1.4,5.6-3.8,10.8-6.4,16-.9,1.7-2.3,3-3.7,4.4-3.5,3.3-7,6.5-10.6,9.8-6.1,5.7-11.6,11.9-17.3,18-1.9,2-3.1,4.4-4.6,6.7-.3,0-.5,0-.7.3-6.4-1-12.4-3.3-18.2-6.2-1.3-.6-2.5-1.2-3.8-1.8-1.7-1.6-3.6-2.9-5.8-3.8-1-1.3-2.3-2.3-3.8-2.9-.1-.5-.5-.8-1-.9-3.2-3.2-6.4-6.4-9.6-9.6Z"/>
        <path class="cls-4" d="M818.5,802.2c4-7.8,8.1-15.6,11.9-23.5,3.8-7.9,7.3-16,10.9-24,2.9-6.6,5.8-13.1,8.7-19.7,2.2-5.1,4.5-10.2,6.7-15.3.5-1.2.7-2.3.4-3.7-1.4-5.5-2.9-11.1-3.9-16.7-.9-4.9-2.4-9.6-4.2-14.2-.2-.4-.6-.8-.8-1.1-1.2-3.1-2.4-6.2-3.7-9.2-3-7.2-5.9-14.4-8.9-21.5-2.6-6.1-5.1-12.3-7.8-18.4-.8-1.7-1.8-3.5-3.8-4.1-1.8-.6-3.4-1.3-5.5-.7-2.3.6-4.7.2-7.1.3-4.4.2-8.9-.7-13.3.8-1.3.4-2.5,0-3.4-1.1-.7-.8-1.4-1.7-2.1-2.5,0-1.7.2-3.4-1-4.8.3,0,.7,0,.9-.2,5.7-3.6,12-4.7,18.7-4.7,3.2,0,6.4,0,9.6,0,6.7,0,12.6,4.1,15.3,10.3,3.5,8,7.1,16,10.5,24.1,2.6,6,4.5,12.3,6.5,18.5,3.7,11,7.5,22,11.4,33,1.3,3.8,2.7,7.5,4,11.3,1.2,3.5,1,6.8-.5,10.2-3,6.5-5.7,13.2-8.6,19.7-1.4,3.2-3.1,6.3-4.3,9.6-1.2,3.3-3,6.4-4.2,9.6-4.6,12.1-11,23.4-16.5,34.9.2,1.5,1.5,1.9,2.3,2.4,4.3,2.8,8.7,5.4,13,8.1,1.4.9,2.7.7,4-.2.6-.5,1.2-1,1.8-1.6,2.9-3,6.2-5.4,9.6-7.9,2.3-1.7,4.3-3.8,6.6-5.5,4.9-3.8,9.4-8.1,14.2-12,4.6-3.9,9.4-7.6,14.1-11.4,2.7-2.2,5.3-4.6,8-6.8,2.9-2.4,5.9-4.8,8.9-7.3,3.4-2.8,6.8-5.7,10.3-8.6.7-.6.8-1.3.6-2.1-1.2-5.6-2.5-11.2-3.7-16.7-1.9-8.8-3.8-17.7-5.7-26.5-.7-3.4-1.5-6.8-2.4-10.2-.5-1.7-.5-3.5-.3-5.2.3-2.2,1.9-3.8,4.1-4.1,1.4-.2,2.9-.3,4.3.3,1.5.6,2.8,1.5,3.2,3.3.8,3.4,1.9,6.7,2.6,10.2,1.4,6.4,2.6,12.8,4,19.1,2.1,9.8,4.4,19.5,6.5,29.3.6,2.9.6,5.8-2.2,7.8-2.7,5-7.3,8.2-11.6,11.7-2.6,2.1-5,4.4-7.6,6.5-5,4-9.9,8-14.8,12-2.7,2.2-5.3,4.6-8,6.8-2.9,2.4-5.9,4.9-8.9,7.2-2.3,1.8-4.3,3.8-6.6,5.5-4.9,3.8-9.5,8-14.2,12-2.1,1.7-4.2,3.4-6.3,5.1-.5.4-1.1.7-1.5,1.1-.9.9-1,2.5-2.6,2.5-1.4,0-2.1-1.4-3.1-2.1-7.3-5.2-15.3-9.3-23.3-13.1-1.3-.6-2.6-1.2-4-1.5-3-.6-5.1-2.4-6.7-4.9Z"/>
        <path class="cls-5" d="M534.3,707.1c.3,3.4-.5,6.3-3.3,8.6-3.2,2.7-7.3,2.8-10.5.2-1.1-.9-2.1-2-3.1-3-3-3.2-6.5-5.6-9.9-8.2-6.5-4.9-13.8-8.5-21-12.4-5.7-3-11.5-5.4-17.8-6.8-3.6-.8-7.1-1.8-10.8-1.4-.8,0-1.7.2-2.4,0-4.7-1.4-9.5-1-14.3-.8-8,.4-15.7,1.7-23.2,4.7-7.8,3.1-14.8,7.4-21.7,12-2,1.3-4.1,2.4-6.3,3.5-.8.4-1.8.7-2.7.8-1.9.3-3.5-.1-4.1-2.2,0-.2-.5-.4-.7-.6-1.7-4.2-2-8.4,0-12.6,2.2.3,4.1-.3,5.9-1.4,1.6-1,3.4-1.8,4.8-3.1,8.9-7.7,19.7-11.5,30.8-14.7,4.1-1.2,8.3-1.9,12.5-2.7,1.2-.2,2.5-.1,3.8-.2,1.8,0,3.5-.1,5.2-.6,2.6-.7,5.5-.7,8.1,0,2.5.6,5,.6,7.6.7,2.2,0,4.5-.2,6.6.7.4.2,1,.2,1.4,0,2.6-1.4,5.1-.4,7.3.7,6.2,2.9,12.6,5.2,18.9,7.9,5.4,2.3,10.5,5.1,15.2,8.7,2.9,2.2,6,4.2,9.1,6.2,4.3,2.9,7.8,6.5,10.9,10.6.5.7.9,1.3,1.7,1.6.3.3.7.6,1,1,.3.9.7,1.9,1,2.8Z"/>
      </g>
    </g>
  </g>
</svg>