<svg width="500" height="500" viewBox="0 0 500 500" fill="none" xmlns="http://www.w3.org/2000/svg">
<path d="M194.905 383.208C194.076 384.535 192.916 385.198 191.341 385.405C190.015 385.571 188.688 385.612 187.362 385.488C183.922 385.198 180.565 384.41 177.167 383.913C172.318 383.167 167.593 381.924 162.827 380.763C160.714 380.266 158.559 379.934 156.404 379.52C152.425 378.774 148.529 377.738 144.675 376.453C142.52 375.748 140.365 375.127 138.168 374.588C137.132 374.339 136.096 374.132 135.101 373.718C131.579 372.309 127.89 371.48 124.45 369.946C123.207 369.366 121.839 369.035 120.513 368.579C116.244 367.211 112.266 365.305 108.412 363.15C107.044 362.362 105.593 361.658 104.184 360.912C101.615 359.502 99.1696 357.969 97.0145 355.938C93.7405 352.871 91.461 349.224 90.5078 344.79C90.3421 343.961 90.0105 343.132 89.7618 342.345C88.5185 338.573 88.6843 334.926 90.3421 331.321C91.9169 327.922 93.8233 324.772 96.31 321.954C97.5947 320.504 98.7966 319.053 100.081 317.603C101.739 315.738 103.646 314.287 106.008 313.375C108.412 312.422 110.815 311.51 113.343 310.889C116.452 310.101 119.643 310.018 122.793 309.936C124.368 309.936 125.984 309.853 127.559 309.811C131.662 309.645 135.765 309.563 139.868 309.645C144.219 309.77 148.612 310.06 152.964 310.06C155.533 310.06 158.103 310.474 160.672 310.64C163.656 310.847 166.64 310.972 169.583 311.22C172.898 311.51 176.172 311.883 179.446 312.256C179.695 312.256 179.985 312.339 180.234 312.381C183.218 312.671 182.969 312.878 182.306 310.143C182.099 309.314 181.85 308.485 181.726 307.615C181.56 306.827 181.311 306.081 181.519 305.252C182.43 304.879 183.384 304.589 184.378 304.424C189.476 303.553 194.532 302.6 199.588 301.73C204.727 300.859 209.908 300.03 215.047 299.16C220.269 298.29 225.449 297.378 230.671 296.466C235.644 295.637 240.576 294.85 245.549 293.938C246.503 293.772 247.539 293.855 248.409 293.275C249.611 294.104 250.854 294.891 252.222 295.389C254.128 296.135 256.035 296.922 257.983 297.585C264.158 299.699 269.504 303.18 274.353 307.49C276.84 309.687 279.078 312.174 280.984 314.867C282.89 317.603 284.341 320.587 285.418 323.736C286.33 326.513 286.537 325.933 288.693 326.555C288.941 326.637 289.231 326.596 289.48 326.637C291.511 326.969 293.541 327.218 295.531 327.632C300.297 328.71 305.104 329.58 309.953 330.45C312.316 330.865 314.636 331.362 316.957 331.818C323.257 333.02 329.639 333.683 335.939 335.051C339.254 335.755 342.57 336.294 345.885 336.957C349.325 337.62 352.765 338.283 356.246 338.905C357.407 339.112 358.608 339.195 359.81 339.319C360.183 339.319 360.598 339.236 360.971 339.112C361.758 338.905 362.255 338.408 362.297 337.579C362.297 336.708 362.338 335.838 362.297 335.009C362.173 333.683 361.924 332.398 361.882 331.072C361.717 326.43 361.344 321.83 361.509 317.188C361.592 314.66 361.758 312.174 361.8 309.645C361.8 306.91 362.131 304.216 362.38 301.522C362.794 296.756 363.374 292.032 363.872 287.307C364.038 285.608 364.203 283.867 364.369 282.168C364.701 278.687 365.074 275.206 365.405 271.683C365.571 269.984 365.654 268.243 365.861 266.544C366.11 264.845 366.151 263.104 366.276 261.405C366.276 260.949 366.276 260.493 366.358 259.996C366.607 257.426 366.814 254.857 367.063 252.287C367.685 252.411 368.058 252.909 368.472 253.323C370.337 255.188 372.036 257.219 373.777 259.208C374.647 260.203 375.6 261.156 376.512 262.068C376.968 262.565 377.548 262.897 378.211 263.021C378.999 263.187 379.786 263.353 380.574 263.394C383.268 263.56 385.961 263.85 388.655 264.223C390.23 264.43 391.805 264.596 393.38 264.762C394.499 264.886 395.618 264.886 396.654 265.383C396.861 268.74 397.027 272.139 397.276 275.496C397.524 279.143 397.897 282.748 398.187 286.395C398.187 286.851 398.187 287.307 398.27 287.805C398.519 291.161 398.768 294.56 398.975 297.917C399.099 299.948 399.182 302.02 399.389 304.051C399.679 307.159 399.762 310.267 399.969 313.375C400.135 315.821 400.384 318.266 400.55 320.711C400.55 320.918 400.591 321.125 400.591 321.291C400.757 324.275 400.923 327.259 401.13 330.202C401.296 332.44 401.503 334.678 401.71 336.916C401.876 338.946 401.917 341.018 402.124 343.049C402.415 345.619 402.497 348.188 402.663 350.758C402.746 352.125 402.912 353.535 402.953 354.902C403.119 359.047 402.249 363.067 401.005 367.004C400.632 368.206 399.969 369.283 399.348 370.402C397.193 374.132 394.084 376.826 390.313 378.815C389.07 379.478 387.743 379.893 386.334 379.851C385.215 379.851 384.096 379.851 382.977 380.1C382.48 380.224 381.941 380.183 381.403 380.183C374.398 380.059 367.353 380.266 360.349 380.307C355.79 380.307 351.19 380.307 346.631 380.307C341.078 380.307 335.483 379.934 329.971 379.396C324.044 378.857 318.118 378.069 312.274 376.992C307.508 376.121 302.701 375.666 297.893 375.127C294.329 374.712 290.806 374.339 287.283 373.718C285.377 373.386 283.471 373.096 281.606 372.847C281.025 372.765 280.404 372.765 279.824 372.765C279.16 372.765 278.497 372.765 277.834 372.682C272.737 372.226 267.722 371.355 262.707 370.485C256.698 369.449 250.688 368.496 244.679 367.46C242.068 367.004 239.499 366.424 236.888 365.885C236.971 364.849 236.349 364.351 235.561 363.896C233.655 362.818 231.749 361.823 229.925 360.621C227.853 359.254 225.864 357.72 223.833 356.228C222.258 355.068 220.683 353.825 219.191 352.54C217.699 351.255 216.083 350.136 214.674 348.686C214.176 348.147 213.679 347.567 213.099 347.152C210.861 345.577 209.162 343.422 207.048 341.764C204.644 339.858 202.987 337.289 200.79 335.175C200.749 335.133 200.707 335.092 200.666 335.009C199.298 332.73 197.433 330.823 196.024 328.627C195.734 328.171 195.444 327.756 194.988 327.466C193.952 326.762 192.211 327.466 192.045 328.668C191.88 329.787 191.88 330.906 192.501 331.942C193.786 333.932 195.071 335.921 196.19 338.035C196.811 339.195 197.516 340.314 198.221 341.433C199.298 343.174 200.5 344.831 201.743 346.448C202.075 346.862 202.365 347.277 202.365 347.857C200.417 348.81 198.345 349.473 196.438 350.592C195.527 351.131 194.698 351.794 193.662 352.125C193.662 350.882 192.957 350.178 191.88 349.763C191.507 349.639 191.134 349.515 190.761 349.39C186.906 348.188 183.052 347.028 179.239 345.785C174.763 344.375 170.287 342.925 165.853 341.474C163.283 340.645 160.672 339.817 158.103 338.988C151.638 336.916 145.131 334.885 138.666 332.771C135.765 331.818 132.905 330.823 129.962 329.994C128.719 329.663 128.139 329.829 127.434 330.865C127.103 331.362 127.103 332.025 127.434 332.523C127.89 333.103 128.429 333.517 129.175 333.724C131.703 334.47 134.231 335.299 136.718 336.087C139.785 337.081 142.893 338.076 145.96 339.071C152.011 340.977 158.061 342.883 164.112 344.831C167.635 345.95 171.158 347.111 174.68 348.23C179.446 349.763 184.254 351.255 189.02 352.871C190.346 353.327 191.672 353.617 193.081 353.493C193.081 353.825 193.206 354.156 193.206 354.488C192.999 358.383 193.62 362.279 193.537 366.175C193.537 366.424 193.537 366.714 193.579 366.962C194.118 369.822 193.869 372.765 194.242 375.624C194.573 378.028 194.656 380.473 194.822 382.918L194.905 383.208Z" fill="#696E66"/>
<path d="M396.695 265.508C395.659 264.969 394.499 265.011 393.421 264.886C391.846 264.721 390.272 264.555 388.697 264.348C386.003 263.975 383.309 263.684 380.615 263.519C379.828 263.477 379.04 263.311 378.253 263.146C377.59 263.021 377.01 262.648 376.554 262.192C375.642 261.239 374.689 260.328 373.818 259.333C372.078 257.344 370.378 255.313 368.514 253.448C368.099 253.033 367.726 252.536 367.104 252.412C366.317 250.298 364.742 248.765 363.209 247.19C362.836 246.817 362.297 246.651 361.758 246.527C358.981 245.946 356.205 245.408 353.386 244.869C349.242 244.04 345.098 243.253 340.953 242.424C337.182 241.678 333.452 240.89 329.681 240.103C326.531 239.44 323.34 238.694 320.148 238.155C316.874 237.616 313.683 236.87 310.451 236.249C306.472 235.503 302.576 234.632 298.598 233.803C298.39 233.803 298.225 233.762 298.017 233.721C295.987 233.555 293.915 233.43 291.884 233.265C291.552 233.265 291.221 233.223 290.889 233.182C288.651 232.975 286.413 232.726 284.175 232.519C282.144 232.353 280.072 232.27 278.041 232.021C275.472 231.69 272.944 231.317 270.374 231.275C270.126 231.275 269.836 231.275 269.587 231.234C267.183 230.902 264.738 230.571 262.293 230.529C261.961 230.529 261.63 230.529 261.298 230.446C259.516 229.949 257.61 230.115 255.786 229.866C253.424 229.493 251.062 229.493 248.658 229.327C248.409 229.327 248.119 229.327 247.87 229.245C246.751 228.913 245.632 228.996 244.513 228.954C244.182 228.872 243.892 228.706 243.56 228.664C241.447 228.499 239.333 228.333 237.261 228.167C236.225 228.084 235.147 228.084 234.111 227.877C233.075 227.67 231.997 227.711 230.961 227.711C230.298 227.711 230.049 227.918 229.842 228.623C229.759 228.872 229.759 229.162 229.676 229.41C228.599 232.684 227.604 235.917 225.242 238.652C223.211 240.973 220.807 242.59 218.031 243.667C217.202 243.999 216.373 244.123 215.503 244.082C214.259 244.082 212.975 244.082 211.731 244.082C210.819 244.082 209.908 243.957 208.996 243.75C207.172 243.377 205.515 242.507 203.857 241.719C203.401 241.512 202.904 241.18 202.572 240.766C201.453 239.357 200.293 237.989 199.505 236.414C198.179 233.803 197.226 231.068 196.438 228.25C195.858 226.136 195.361 224.023 194.781 221.909C194.325 220.168 193.91 218.469 193.952 216.646C193.952 216.19 193.952 215.734 193.869 215.278C193.372 212.626 193.662 210.015 194.242 207.404C194.781 205.083 195.775 202.886 196.77 200.731C198.345 197.457 200.5 194.68 203.069 192.152C204.354 190.909 205.763 190.039 207.421 189.5C208.955 189.003 210.488 188.837 212.063 188.588C215.627 188.049 219.025 188.588 222.424 189.624C225.698 190.66 228.93 191.821 232.08 193.188C234.277 194.142 236.473 195.053 238.753 195.758C240.535 196.297 242.317 196.794 244.182 196.67C245.052 197.208 246.088 197.167 247.041 197.374C250.896 198.203 254.791 198.949 258.687 199.695C263.868 200.69 269.09 201.643 274.27 202.638C277.793 203.301 281.274 204.005 284.755 204.71C289.563 205.622 294.37 206.533 299.136 207.487C302.576 208.15 306.016 208.854 309.456 209.517C314.139 210.429 318.781 211.341 323.464 212.253C328.893 213.33 334.364 214.408 339.793 215.527C342.528 216.107 345.222 216.687 347.916 217.35C349.781 217.806 351.604 218.428 353.469 218.925C356.205 219.63 359.064 220.003 361.8 220.79C362.546 220.997 363.374 221.039 364.162 220.79C364.245 221.163 364.369 221.536 364.784 221.743C365.239 221.992 365.695 222.241 366.193 222.448C370.627 224.064 375.103 225.68 379.538 227.297C381.195 227.918 382.895 228.499 384.552 229.12C386.832 229.949 389.111 230.778 391.391 231.648C392.965 232.27 394.457 232.27 395.866 231.192C397.441 231.897 398.975 232.643 400.384 233.596C401.337 234.218 401.834 235.047 402.083 236.166C402.622 238.901 402.953 241.636 402.871 244.413C402.788 248.06 402.788 251.666 402.829 255.313C402.829 256.929 402.539 258.463 402.373 260.037C402.207 261.654 401.213 262.938 400.342 264.265C399.969 264.803 399.389 265.176 398.643 265.135C397.98 265.135 397.358 265.259 396.695 265.467V265.508Z" fill="#FFB68B"/>
<path d="M244.223 196.711C242.358 196.794 240.535 196.297 238.794 195.8C236.515 195.136 234.318 194.225 232.122 193.23C228.972 191.821 225.739 190.702 222.465 189.666C219.108 188.588 215.71 188.091 212.104 188.63C210.529 188.878 208.955 189.044 207.463 189.542C205.805 190.08 204.396 190.951 203.111 192.194C200.5 194.722 198.345 197.499 196.811 200.773C195.775 202.928 194.781 205.083 194.283 207.445C193.703 210.056 193.413 212.667 193.91 215.32C193.993 215.776 194.035 216.231 193.993 216.687C193.952 218.511 194.366 220.21 194.822 221.951C195.402 224.064 195.9 226.178 196.48 228.292C197.267 231.11 198.221 233.845 199.547 236.456C200.376 238.072 201.495 239.44 202.614 240.808C202.945 241.222 203.401 241.512 203.898 241.761C205.598 242.507 207.214 243.419 209.037 243.792C209.949 243.999 210.861 244.123 211.773 244.123C213.016 244.123 214.301 244.123 215.544 244.123C216.414 244.123 217.243 243.999 218.072 243.709C220.89 242.59 223.253 241.015 225.283 238.694C227.646 236 228.64 232.726 229.718 229.452C229.801 229.203 229.801 228.913 229.884 228.665C230.091 227.96 230.34 227.753 231.003 227.753C232.08 227.753 233.158 227.753 234.152 227.919C235.189 228.126 236.266 228.126 237.302 228.209C239.416 228.374 241.529 228.54 243.602 228.706C243.933 228.706 244.223 228.872 244.555 228.996C244.43 232.353 244.016 235.71 243.602 239.067C243.394 240.766 243.229 242.465 242.897 244.165C242.4 246.485 242.068 248.848 241.737 251.21C241.529 252.868 241.322 254.484 240.908 256.1C240.618 257.261 240.452 258.421 240.452 259.623C240.452 260.162 240.452 260.701 240.328 261.198C240.203 261.944 240.245 262.649 240.328 263.353C240.576 265.301 240.742 267.29 240.949 269.28C238.545 269.777 236.183 270.274 233.779 270.73C230.464 271.352 227.148 271.932 223.874 272.554C220.186 273.258 216.497 274.004 212.809 274.709C209.369 275.372 205.929 275.993 202.489 276.657C200.334 277.071 198.221 277.485 196.065 277.9C192.626 278.563 189.186 279.185 185.746 279.806C182.389 280.428 178.991 281.05 175.634 281.63C174.888 279.931 174.639 278.066 174.225 276.284C173.396 272.968 172.525 269.611 171.945 266.254C171.448 263.395 170.785 260.576 170.08 257.758C169.79 256.598 169.583 255.437 169.251 254.277C168.837 252.785 168.754 251.293 168.547 249.801C168.091 245.988 168.049 242.134 168.174 238.321C168.298 233.886 168.671 229.493 169.749 225.183C170.495 222.241 171.448 219.34 172.277 216.439C173.064 213.828 173.893 211.258 175.178 208.854C175.592 208.025 176.007 207.197 176.463 206.409C179.239 201.767 182.223 197.25 185.829 193.147C188.481 190.163 191.631 187.967 194.946 185.936C195.278 185.729 195.61 185.521 195.941 185.273C198.096 184.444 200.251 183.615 202.406 182.828C204.686 181.957 206.924 181.004 209.369 180.631C210.944 180.382 212.519 180.217 214.052 179.968C215.751 179.678 217.451 179.719 219.15 179.968C221.844 180.424 224.413 181.128 226.983 182.04C227.148 182.123 227.314 182.289 227.48 182.33C231.21 183.656 234.277 186.019 237.385 188.34C238.504 189.169 239.54 190.039 240.535 190.992C242.234 192.608 243.519 194.515 244.099 196.794L244.223 196.711Z" fill="#8A89DE"/>
<path d="M178.576 116.683C178.369 115.937 178.7 115.233 178.99 114.57C180.897 110.135 183.839 106.529 187.694 103.67C192.584 100.023 198.137 97.992 204.188 97.2874C212.477 96.2928 220.269 97.9091 227.646 101.68C228.474 102.095 229.262 102.634 230.256 102.509C230.256 103.131 230.671 103.421 231.168 103.711C234.359 105.825 236.763 108.726 238.877 111.834C240.369 114.031 241.405 116.434 242.441 118.88C243.85 122.195 244.555 125.676 244.928 129.199C245.218 131.976 245.052 134.753 244.472 137.488C243.643 141.549 242.773 145.611 240.576 149.217C240.493 149.299 240.493 149.424 240.493 149.548C239.25 150.75 238.048 151.952 236.805 153.154C236.059 153.9 235.354 154.687 234.65 155.475C232.95 157.381 230.878 158.79 228.682 159.992C228.143 160.282 227.48 160.116 227.065 160.614C225.656 160.738 224.496 160.033 223.377 159.329C221.139 157.837 218.901 156.221 216.704 154.646C214.798 153.278 213.306 151.537 211.938 149.631C210.073 146.979 208.125 144.368 206.26 141.757C205.514 140.721 204.603 139.892 203.65 139.063C202.489 138.068 201.163 137.612 199.671 137.447C198.303 137.322 196.894 137.198 195.527 136.991C192.874 136.618 190.719 135.664 189.144 133.219C185.912 128.205 182.389 123.397 179.654 118.092C179.405 117.595 179.198 116.973 178.659 116.642L178.576 116.683Z" fill="#884100"/>
<path d="M178.576 116.683C179.115 117.014 179.322 117.594 179.571 118.133C182.306 123.438 185.829 128.287 189.061 133.26C190.636 135.705 192.791 136.659 195.444 137.032C196.811 137.239 198.22 137.363 199.588 137.487C201.08 137.612 202.406 138.109 203.567 139.104C204.52 139.933 205.432 140.762 206.178 141.798C208.084 144.45 209.99 147.02 211.855 149.672C213.182 151.578 214.715 153.319 216.622 154.687C218.818 156.262 221.056 157.836 223.294 159.37C224.372 160.116 225.532 160.82 226.982 160.655C226.692 161.193 226.609 161.774 226.609 162.354C226.609 163.141 226.568 163.929 226.609 164.716C226.651 167.659 226.278 170.601 226.278 173.544C226.278 175.906 226.402 178.268 226.941 180.548C227.024 181.004 227.024 181.459 227.024 181.915C224.454 181.004 221.885 180.299 219.191 179.843C217.492 179.553 215.793 179.512 214.093 179.843C212.56 180.133 210.944 180.258 209.41 180.506C206.965 180.879 204.727 181.874 202.448 182.703C200.293 183.532 198.138 184.319 195.982 185.148C195.775 182.993 195.734 180.796 195.485 178.641C195.236 176.611 195.361 174.538 194.863 172.549C194.698 171.927 194.781 171.223 194.781 170.56C194.781 169.772 194.615 168.985 194.449 168.197C194.283 167.078 193.537 166.664 192.543 166.498C192.004 166.415 191.465 166.457 190.968 166.457C188.647 166.415 186.326 166.457 184.047 166.084C181.27 165.669 179.032 164.509 177.374 162.229C176.38 160.862 175.675 159.37 175.302 157.754C175.136 157.09 174.97 156.469 174.846 155.806C174.142 152.324 172.401 149.382 169.914 146.937C168.629 145.693 167.428 144.367 165.936 143.331C165.314 142.875 164.734 142.295 164.236 141.673C162.91 140.098 163.076 138.482 164.734 137.197C166.516 135.83 168.298 134.503 170.08 133.094C172.318 131.312 174.349 129.282 175.924 126.919C177.291 124.889 177.996 122.651 178.079 120.205C178.12 119.003 178.079 117.802 178.535 116.683H178.576Z" fill="#FFB78A"/>
<path d="M175.675 281.547C179.032 280.925 182.43 280.345 185.787 279.723C189.227 279.101 192.667 278.438 196.107 277.817C198.262 277.402 200.376 276.988 202.531 276.573C205.971 275.91 209.41 275.289 212.85 274.625C216.539 273.921 220.227 273.175 223.916 272.47C227.231 271.849 230.547 271.268 233.821 270.647C236.225 270.191 238.587 269.652 240.991 269.196C241.074 269.445 241.239 269.694 241.281 269.942C241.571 272.636 242.11 275.289 242.524 277.982C242.98 280.925 243.56 283.826 244.555 286.644C245.342 288.924 246.337 291.037 248.119 292.778C248.285 292.944 248.409 293.234 248.575 293.441C247.705 293.98 246.668 293.897 245.715 294.104C240.783 295.016 235.81 295.762 230.837 296.632C225.615 297.502 220.434 298.414 215.213 299.326C210.073 300.196 204.893 300.984 199.754 301.896C194.656 302.766 189.6 303.678 184.544 304.589C183.549 304.755 182.638 305.087 181.684 305.418C181.146 304.258 181.063 303.014 180.731 301.813C180.027 299.492 179.405 297.129 178.783 294.767C177.83 290.996 177.043 287.183 175.924 283.453C175.758 282.873 175.758 282.293 175.675 281.712V281.547Z" fill="#FFB68A"/>
<path d="M193.703 352.333C194.739 352.002 195.568 351.338 196.48 350.8C198.386 349.681 200.458 349.018 202.406 348.064C204.23 347.774 206.095 347.691 207.918 347.816C210.073 347.981 212.063 348.52 213.803 349.888C214.798 350.675 215.585 351.629 216.331 352.623C217.036 353.576 217.741 354.53 218.487 355.483C220.724 358.425 222.88 361.409 224.62 364.683C225.076 365.554 225.449 366.507 226.237 367.17C226.237 367.253 226.278 367.336 226.319 367.419C226.237 367.75 226.402 368.082 226.527 368.372C227.853 371.19 229.345 373.884 230.92 376.578C230.92 376.619 231.003 376.702 231.044 376.744C232.826 380.059 234.65 383.333 236.39 386.69C236.929 387.726 237.302 388.887 237.675 390.006C238.007 391 238.338 391.995 238.918 392.907C239.333 393.57 239.416 394.274 239.291 395.02C238.628 398.004 237.136 400.367 234.36 401.859C232.743 402.729 231.044 403.185 229.303 403.433C228.143 403.599 227.065 403.268 226.029 402.812C224.289 402.066 222.589 401.113 221.098 399.869C220.144 399.082 219.108 398.336 218.031 397.673C216.539 396.802 215.13 395.808 213.679 394.896C209.162 392.036 204.644 389.177 200.127 386.317C198.842 385.488 197.557 384.659 196.314 383.789C195.858 383.457 195.444 383.167 194.905 383.209C194.739 380.764 194.615 378.318 194.325 375.915C193.952 373.014 194.2 370.113 193.662 367.253C193.62 367.004 193.62 366.714 193.62 366.465C193.662 362.57 193.081 358.674 193.289 354.778C193.289 354.447 193.206 354.115 193.164 353.784C193.33 353.286 193.537 352.83 193.703 352.333Z" fill="#FFB689"/>
<path d="M237.758 99.6913C239.25 98.8624 240.866 98.6138 242.524 98.4894C246.503 98.1164 250.15 99.0696 253.548 101.142C255.579 102.385 257.527 103.753 259.019 105.701C259.392 106.157 259.806 106.612 260.221 107.027C263.37 110.218 265.194 114.155 266.562 118.341C267.225 120.455 267.39 122.651 267.598 124.806C268.136 131.396 268.509 138.027 268.219 144.658C268.012 149.217 267.639 153.776 267.1 158.334C266.893 159.909 266.686 161.484 266.52 163.059C266.106 167.701 264.531 171.969 262.624 176.114C261.754 177.979 260.345 179.512 258.563 180.631C256.242 182.082 253.092 181.377 251.352 179.015C250.937 178.435 250.564 177.772 250.316 177.108C248.824 173.088 247.373 169.027 246.503 164.8C245.798 161.401 245.55 157.961 245.425 154.522C245.425 153.61 245.342 152.657 245.342 151.745C245.342 151.206 245.301 150.709 245.011 150.211C245.508 149.797 245.757 149.134 246.42 148.844C246.751 148.678 247.041 148.346 247.249 148.015C249.197 145.155 250.896 142.171 251.849 138.856C252.429 136.825 252.968 134.794 253.009 132.639C253.009 131.064 253.092 129.531 253.009 127.956C252.927 126.298 252.678 124.682 252.346 123.066C251.559 119.419 250.15 116.02 248.326 112.746C247.663 111.544 246.917 110.384 246.13 109.223C245.342 108.063 244.182 107.234 243.519 105.991C242.939 104.955 242.11 104.084 241.239 103.255C240.079 102.095 238.794 101.017 237.8 99.6913H237.758Z" fill="#894100"/>
<path d="M365.737 217.765C366.193 216.729 366.773 215.776 367.353 214.823C367.809 214.118 368.099 213.289 368.555 212.543C369.218 211.507 370.006 210.513 370.71 209.476C372.409 206.948 374.026 204.379 375.808 201.934C378.336 198.411 380.739 194.764 383.641 191.49C385.174 189.791 387.039 188.796 389.07 188.009C391.639 186.972 394.375 186.268 397.068 185.771C399.016 185.439 401.006 185.398 402.953 185.936C404.611 186.392 406.228 186.931 407.802 187.718C410.372 189.003 411.449 191.49 410.828 194.349C410.538 195.676 410.082 196.919 409.419 198.038C407.719 201.022 406.062 204.047 404.155 206.907C402.249 209.808 400.715 212.875 399.348 216.025C398.229 218.636 397.193 221.288 396.24 223.94C395.867 225.018 395.535 226.054 395.618 227.214C395.618 227.546 395.535 227.878 395.535 228.209C394.872 227.96 394.209 227.67 393.504 227.422C389.733 226.054 385.92 224.769 382.149 223.36C381.278 223.029 380.408 222.78 379.662 222.241C380.822 221.661 381.195 220.459 381.61 219.382C381.776 218.926 381.61 218.47 381.237 218.138C380.864 217.848 380.201 217.807 379.745 218.138C379.538 218.304 379.33 218.47 379.165 218.636C378.957 218.801 378.792 219.009 378.584 219.174C377.963 219.672 377.341 219.464 377.01 218.718C376.844 218.345 376.761 217.972 376.595 217.599C376.429 217.309 376.264 216.978 375.973 216.853C375.269 216.439 374.772 215.859 374.357 215.154C373.984 214.533 373.445 214.284 372.699 214.284C371.995 214.284 371.249 214.408 370.544 214.077C369.881 213.787 369.425 214.077 368.969 214.533C368.472 215.03 368.182 215.569 368.223 216.273C368.223 216.936 368.223 217.599 368.223 218.263C367.477 217.765 366.607 217.931 365.737 217.848V217.765ZM396.157 215.154C395.825 213.87 395.618 212.668 395.618 211.383C395.618 210.761 395.245 210.347 394.665 210.264C394.084 210.181 393.587 210.347 393.338 210.886C393.048 211.466 392.717 212.087 392.51 212.668C391.846 214.408 391.018 216.066 390.023 217.641C388.904 219.423 387.785 221.247 386.707 223.029C386.583 223.194 386.583 223.443 386.832 223.526C386.915 223.567 387.08 223.526 387.205 223.526C387.619 223.319 387.868 222.904 388.117 222.531C389.65 220.045 391.225 217.599 392.468 214.988C392.841 214.201 393.256 213.455 393.67 212.709C393.753 212.502 393.919 212.419 394.126 212.419C394.416 212.419 394.665 212.668 394.706 212.875C394.913 214.367 395.038 215.9 394.623 217.392C394.375 218.221 394.043 219.009 393.67 219.755C392.841 221.329 392.427 223.112 391.805 224.769C391.722 224.935 391.805 225.142 391.805 225.349C391.805 225.391 391.888 225.474 391.929 225.515C392.054 225.515 392.219 225.515 392.302 225.515C392.51 225.267 392.717 224.976 392.8 224.686C393.38 222.697 394.209 220.832 395.038 218.967C395.576 217.765 395.784 216.439 396.157 215.196V215.154ZM387.702 192.111C387.702 193.272 388.365 193.728 389.36 193.272C389.65 193.148 389.94 192.94 390.23 192.775C391.308 192.07 392.344 191.407 393.711 191.531C393.919 191.531 394.084 191.49 394.292 191.407C394.996 191.117 395.452 190.247 395.203 189.625C394.996 189.086 394.209 188.755 393.546 188.879C391.929 189.21 390.396 189.832 388.862 190.454C388.158 190.744 387.702 191.324 387.744 192.153L387.702 192.111Z" fill="#FFB68B"/>
<path d="M237.758 99.6914C238.753 101.059 240.038 102.095 241.198 103.256C242.027 104.126 242.897 104.955 243.477 105.991C244.141 107.234 245.301 108.063 246.088 109.224C246.876 110.384 247.622 111.544 248.285 112.746C250.108 115.979 251.518 119.419 252.305 123.066C252.637 124.682 252.885 126.298 252.968 127.956C253.051 129.531 252.968 131.064 252.968 132.639C252.968 134.794 252.429 136.825 251.808 138.856C250.854 142.213 249.155 145.197 247.207 148.015C247 148.347 246.71 148.678 246.379 148.844C245.715 149.134 245.467 149.797 244.969 150.212C244.431 150.046 243.933 149.88 243.395 149.714C242.98 149.258 242.566 149.3 242.11 149.714C241.861 149.714 241.612 149.714 241.405 149.673C241.198 149.383 240.825 149.383 240.576 149.258C242.773 145.653 243.643 141.55 244.472 137.53C245.011 134.794 245.177 132.018 244.928 129.241C244.596 125.718 243.85 122.237 242.441 118.921C241.405 116.476 240.369 114.031 238.877 111.876C236.764 108.768 234.318 105.867 231.169 103.753C230.713 103.463 230.298 103.173 230.257 102.551C232.702 101.473 235.189 100.437 237.8 99.7329L237.758 99.6914Z" fill="#62350E"/>
<path d="M226.237 367.17C225.449 366.507 225.076 365.554 224.62 364.684C222.88 361.409 220.683 358.426 218.487 355.483C217.782 354.53 217.078 353.577 216.332 352.623C215.586 351.629 214.798 350.676 213.804 349.888C212.063 348.52 210.074 347.982 207.919 347.816C206.054 347.692 204.23 347.774 202.407 348.065C202.407 347.484 202.158 347.07 201.785 346.655C200.542 345.039 199.298 343.381 198.262 341.641C197.558 340.522 196.853 339.403 196.231 338.242C195.112 336.129 193.828 334.139 192.543 332.15C191.88 331.114 191.921 329.995 192.087 328.876C192.253 327.633 193.993 326.97 195.03 327.674C195.485 327.964 195.776 328.379 196.066 328.835C197.516 331.031 199.381 332.938 200.707 335.217C200.707 335.258 200.79 335.341 200.832 335.383C203.028 337.496 204.727 340.107 207.09 341.972C209.203 343.671 210.903 345.785 213.141 347.36C213.721 347.774 214.218 348.355 214.715 348.893C216.083 350.344 217.699 351.463 219.233 352.748C220.766 354.032 222.3 355.276 223.874 356.436C225.905 357.928 227.895 359.462 229.967 360.829C231.79 362.031 233.697 363.026 235.603 364.103C236.391 364.559 237.054 365.057 236.929 366.093C233.821 366.134 230.754 366.424 227.729 367.004C227.19 366.922 226.693 367.004 226.195 367.17H226.237Z" fill="#4A4B46"/>
<path d="M379.745 222.158C380.491 222.738 381.361 222.987 382.232 223.277C386.003 224.645 389.774 225.971 393.587 227.339C394.25 227.587 394.913 227.877 395.618 228.126C396.198 229.121 396.115 230.157 395.867 231.234C394.458 232.312 392.966 232.27 391.391 231.69C389.111 230.82 386.832 229.991 384.553 229.162C382.895 228.54 381.196 227.96 379.538 227.339C375.103 225.722 370.627 224.106 366.193 222.49C365.696 222.324 365.24 222.034 364.784 221.785C364.369 221.578 364.286 221.205 364.162 220.832C364.411 219.671 365.157 218.718 365.778 217.724C366.607 217.807 367.478 217.641 368.224 218.138C371.166 219.216 374.15 220.293 377.093 221.412C377.963 221.744 378.792 222.158 379.745 222.158Z" fill="#E7A37B"/>
<path d="M226.237 367.169C226.734 366.962 227.231 366.879 227.77 367.004C227.356 367.418 226.817 367.335 226.361 367.418C226.319 367.335 226.278 367.252 226.278 367.169H226.237Z" fill="#8A89DE"/>
<path d="M242.11 149.672C242.524 149.258 242.939 149.216 243.394 149.672C242.98 149.755 242.566 149.797 242.11 149.672Z" fill="#8F8571"/>
<path d="M240.535 149.216C240.825 149.34 241.198 149.34 241.364 149.63C241.032 149.713 240.742 149.713 240.452 149.547C240.452 149.423 240.452 149.34 240.535 149.216Z" fill="#8F8571"/>
<path d="M193.703 352.333C193.537 352.83 193.33 353.286 193.164 353.784C191.755 353.949 190.429 353.618 189.103 353.162C184.337 351.587 179.529 350.095 174.763 348.52C171.241 347.401 167.718 346.241 164.195 345.122C158.144 343.174 152.094 341.309 146.043 339.361C142.976 338.366 139.868 337.372 136.801 336.377C134.273 335.59 131.786 334.761 129.258 334.015C128.512 333.808 127.973 333.393 127.517 332.813C127.144 332.316 127.144 331.653 127.517 331.155C128.222 330.119 128.761 329.953 130.045 330.285C132.988 331.072 135.848 332.108 138.749 333.062C145.214 335.134 151.721 337.206 158.186 339.278C160.755 340.107 163.366 340.936 165.936 341.765C170.412 343.215 174.846 344.666 179.322 346.075C183.176 347.277 187.031 348.479 190.844 349.681C191.217 349.805 191.59 349.929 191.963 350.054C193.04 350.468 193.745 351.173 193.745 352.416L193.703 352.333Z" fill="#494A45"/>
<path d="M379.745 222.158C378.792 222.158 377.963 221.743 377.093 221.412C374.15 220.334 371.166 219.257 368.224 218.138C368.224 217.474 368.224 216.811 368.224 216.148C368.224 215.444 368.472 214.864 368.97 214.408C369.426 213.993 369.881 213.62 370.544 213.952C371.249 214.283 371.995 214.159 372.7 214.159C373.446 214.159 374.026 214.449 374.357 215.029C374.772 215.734 375.269 216.314 375.974 216.728C376.222 216.894 376.43 217.184 376.595 217.474C376.761 217.806 376.885 218.22 377.01 218.593C377.341 219.339 377.963 219.505 378.585 219.049C378.792 218.884 378.958 218.676 379.165 218.511C379.372 218.345 379.538 218.138 379.745 218.013C380.201 217.723 380.864 217.723 381.237 218.013C381.651 218.345 381.776 218.801 381.61 219.257C381.196 220.376 380.864 221.536 379.662 222.116L379.745 222.158Z" fill="#FFB68B"/>
<path d="M396.157 215.154C395.784 216.397 395.576 217.765 395.038 218.926C394.167 220.791 393.38 222.656 392.8 224.645C392.717 224.935 392.468 225.225 392.302 225.474C392.261 225.557 392.054 225.515 391.929 225.474C391.888 225.474 391.805 225.391 391.805 225.308C391.805 225.101 391.722 224.893 391.805 224.728C392.427 223.07 392.841 221.288 393.67 219.713C394.084 218.967 394.416 218.138 394.623 217.351C395.038 215.859 394.913 214.325 394.706 212.833C394.706 212.585 394.457 212.377 394.126 212.377C393.919 212.377 393.753 212.502 393.67 212.668C393.255 213.414 392.841 214.201 392.468 214.947C391.225 217.558 389.608 220.003 388.116 222.49C387.868 222.904 387.619 223.277 387.205 223.484C387.122 223.526 386.915 223.567 386.832 223.484C386.624 223.36 386.624 223.153 386.707 222.987C387.826 221.164 388.904 219.381 390.023 217.599C391.017 216.024 391.846 214.367 392.509 212.626C392.758 212.004 393.048 211.424 393.338 210.844C393.628 210.305 394.084 210.139 394.665 210.222C395.203 210.305 395.618 210.678 395.618 211.341C395.618 212.626 395.825 213.828 396.157 215.113V215.154Z" fill="#FFB68B"/>
<path d="M387.702 192.111C387.661 191.282 388.075 190.743 388.821 190.411C390.354 189.79 391.888 189.21 393.504 188.837C394.209 188.671 394.996 189.044 395.162 189.583C395.411 190.204 394.955 191.075 394.25 191.365C394.084 191.448 393.877 191.53 393.67 191.489C392.302 191.406 391.266 192.069 390.189 192.732C389.899 192.898 389.65 193.105 389.318 193.23C388.324 193.686 387.661 193.23 387.661 192.069L387.702 192.111Z" fill="#FFB68B"/>
</svg>
