<svg width="500" height="500" viewBox="0 0 500 500" fill="none" xmlns="http://www.w3.org/2000/svg">
<path d="M305.041 383.208C305.869 384.535 307.03 385.198 308.605 385.405C309.931 385.571 311.257 385.612 312.583 385.488C316.023 385.198 319.38 384.41 322.779 383.913C327.627 383.167 332.352 381.924 337.118 380.763C339.232 380.266 341.387 379.934 343.542 379.52C347.521 378.774 351.416 377.738 355.271 376.453C357.426 375.748 359.581 375.127 361.777 374.588C362.813 374.339 363.849 374.132 364.844 373.718C368.367 372.309 372.055 371.48 375.495 369.946C376.738 369.366 378.106 369.035 379.432 368.579C383.701 367.211 387.68 365.305 391.534 363.15C392.902 362.362 394.352 361.658 395.761 360.912C398.331 359.502 400.776 357.969 402.931 355.938C406.205 352.871 408.485 349.224 409.438 344.79C409.604 343.961 409.935 343.132 410.184 342.345C411.427 338.573 411.261 334.926 409.603 331.321C408.029 327.922 406.122 324.772 403.636 321.954C402.351 320.504 401.149 319.053 399.864 317.603C398.206 315.738 396.3 314.287 393.938 313.375C391.534 312.422 389.13 311.51 386.602 310.889C383.494 310.101 380.303 310.018 377.153 309.936C375.578 309.936 373.962 309.853 372.387 309.811C368.284 309.645 364.181 309.563 360.078 309.645C355.726 309.77 351.333 310.06 346.982 310.06C344.412 310.06 341.843 310.474 339.273 310.64C336.289 310.847 333.305 310.972 330.363 311.22C327.047 311.51 323.773 311.883 320.499 312.256C320.25 312.256 319.96 312.339 319.712 312.381C316.728 312.671 316.976 312.878 317.64 310.143C317.847 309.314 318.095 308.485 318.22 307.615C318.385 306.827 318.634 306.081 318.427 305.252C317.515 304.879 316.562 304.589 315.567 304.424C310.47 303.553 305.414 302.6 300.357 301.73C295.218 300.859 290.038 300.03 284.899 299.16C279.677 298.29 274.496 297.378 269.274 296.466C264.301 295.637 259.369 294.85 254.396 293.938C253.443 293.772 252.407 293.855 251.536 293.275C250.335 294.104 249.091 294.891 247.724 295.389C245.817 296.135 243.911 296.922 241.963 297.585C235.788 299.699 230.442 303.18 225.593 307.49C223.106 309.687 220.868 312.174 218.962 314.867C217.055 317.603 215.605 320.587 214.527 323.736C213.615 326.513 213.408 325.933 211.253 326.555C211.004 326.637 210.714 326.596 210.466 326.637C208.435 326.969 206.404 327.218 204.415 327.632C199.649 328.71 194.841 329.58 189.992 330.45C187.63 330.865 185.309 331.362 182.988 331.818C176.689 333.02 170.306 333.683 164.007 335.051C160.691 335.755 157.376 336.294 154.06 336.957C150.621 337.62 147.181 338.283 143.699 338.905C142.539 339.112 141.337 339.195 140.135 339.319C139.762 339.319 139.348 339.236 138.975 339.112C138.187 338.905 137.69 338.408 137.649 337.579C137.649 336.708 137.607 335.838 137.649 335.009C137.773 333.683 138.022 332.398 138.063 331.072C138.229 326.43 138.602 321.83 138.436 317.188C138.353 314.66 138.187 312.174 138.146 309.645C138.146 306.91 137.814 304.216 137.566 301.522C137.151 296.756 136.571 292.032 136.074 287.307C135.908 285.608 135.742 283.867 135.576 282.168C135.245 278.687 134.872 275.206 134.54 271.683C134.375 269.984 134.292 268.243 134.085 266.544C133.836 264.845 133.794 263.104 133.67 261.405C133.67 260.949 133.67 260.493 133.587 259.996C133.339 257.426 133.131 254.857 132.883 252.287C132.261 252.411 131.888 252.909 131.474 253.323C129.609 255.188 127.909 257.219 126.169 259.208C125.298 260.203 124.345 261.156 123.433 262.068C122.978 262.565 122.397 262.897 121.734 263.021C120.947 263.187 120.159 263.353 119.372 263.394C116.678 263.56 113.984 263.85 111.29 264.223C109.716 264.43 108.141 264.596 106.566 264.762C105.447 264.886 104.328 264.886 103.292 265.383C103.084 268.74 102.919 272.139 102.67 275.496C102.421 279.143 102.048 282.748 101.758 286.395C101.758 286.851 101.758 287.307 101.675 287.805C101.427 291.161 101.178 294.56 100.971 297.917C100.846 299.948 100.764 302.02 100.556 304.051C100.266 307.159 100.183 310.267 99.9762 313.375C99.8104 315.821 99.5617 318.266 99.3959 320.711C99.3959 320.918 99.3545 321.125 99.3545 321.291C99.1888 324.275 99.0229 327.259 98.8157 330.202C98.6499 332.44 98.4428 334.678 98.2355 336.916C98.0698 338.946 98.0283 341.018 97.8211 343.049C97.531 345.619 97.4481 348.188 97.2823 350.758C97.1994 352.125 97.0337 353.535 96.9922 354.902C96.8264 359.047 97.6967 363.067 98.9401 367.004C99.3131 368.206 99.9762 369.283 100.598 370.402C102.753 374.132 105.861 376.826 109.633 378.815C110.876 379.478 112.202 379.893 113.611 379.851C114.73 379.851 115.849 379.851 116.968 380.1C117.465 380.224 118.004 380.183 118.543 380.183C125.547 380.059 132.592 380.266 139.597 380.307C144.155 380.307 148.756 380.307 153.314 380.307C158.868 380.307 164.463 379.934 169.975 379.396C175.901 378.857 181.828 378.069 187.671 376.992C192.437 376.121 197.245 375.666 202.052 375.127C205.617 374.712 209.139 374.339 212.662 373.718C214.569 373.386 216.475 373.096 218.34 372.847C218.92 372.765 219.542 372.765 220.122 372.765C220.785 372.765 221.448 372.765 222.111 372.682C227.209 372.226 232.224 371.355 237.238 370.485C243.248 369.449 249.257 368.496 255.266 367.46C257.877 367.004 260.447 366.424 263.058 365.885C262.975 364.849 263.597 364.351 264.384 363.896C266.291 362.818 268.197 361.823 270.02 360.621C272.093 359.254 274.082 357.72 276.113 356.228C277.688 355.068 279.262 353.825 280.754 352.54C282.246 351.255 283.863 350.136 285.272 348.686C285.769 348.147 286.266 347.567 286.847 347.152C289.085 345.577 290.784 343.422 292.897 341.764C295.301 339.858 296.959 337.289 299.156 335.175C299.197 335.133 299.238 335.092 299.28 335.009C300.648 332.73 302.512 330.823 303.922 328.627C304.212 328.171 304.502 327.756 304.958 327.466C305.994 326.762 307.734 327.466 307.9 328.668C308.066 329.787 308.066 330.906 307.444 331.942C306.16 333.932 304.875 335.921 303.756 338.035C303.134 339.195 302.43 340.314 301.725 341.433C300.647 343.174 299.446 344.831 298.202 346.448C297.871 346.862 297.581 347.277 297.581 347.857C299.529 348.81 301.601 349.473 303.507 350.592C304.419 351.131 305.248 351.794 306.284 352.125C306.284 350.882 306.988 350.178 308.066 349.763C308.439 349.639 308.812 349.515 309.185 349.39C313.039 348.188 316.894 347.028 320.706 345.785C325.182 344.375 329.658 342.925 334.093 341.474C336.662 340.645 339.273 339.817 341.843 338.988C348.308 336.916 354.815 334.885 361.28 332.771C364.181 331.818 367.041 330.823 369.983 329.994C371.226 329.663 371.807 329.829 372.511 330.865C372.843 331.362 372.843 332.025 372.511 332.522C372.055 333.103 371.517 333.517 370.771 333.724C368.242 334.47 365.714 335.299 363.228 336.087C360.161 337.081 357.053 338.076 353.986 339.071C347.935 340.977 341.884 342.883 335.833 344.831C332.311 345.95 328.788 347.111 325.265 348.23C320.499 349.763 315.692 351.255 310.926 352.871C309.599 353.327 308.273 353.617 306.864 353.493C306.864 353.825 306.74 354.156 306.74 354.488C306.947 358.383 306.325 362.279 306.408 366.175C306.408 366.424 306.408 366.714 306.367 366.962C305.828 369.822 306.077 372.765 305.704 375.624C305.372 378.028 305.289 380.473 305.123 382.918L305.041 383.208Z" fill="#696E66"/>
<path d="M103.25 265.508C104.286 264.969 105.447 265.011 106.524 264.886C108.099 264.721 109.674 264.555 111.249 264.348C113.943 263.975 116.637 263.684 119.33 263.519C120.118 263.477 120.905 263.311 121.693 263.146C122.356 263.021 122.936 262.648 123.392 262.192C124.304 261.239 125.257 260.328 126.127 259.333C127.868 257.344 129.567 255.313 131.432 253.448C131.846 253.033 132.219 252.536 132.841 252.412C133.629 250.298 135.203 248.765 136.737 247.19C137.11 246.817 137.649 246.651 138.187 246.527C140.964 245.946 143.741 245.408 146.559 244.869C150.703 244.04 154.848 243.253 158.992 242.424C162.764 241.678 166.494 240.89 170.265 240.103C173.415 239.44 176.606 238.694 179.797 238.155C183.071 237.616 186.262 236.87 189.495 236.249C193.474 235.503 197.369 234.632 201.348 233.803C201.555 233.803 201.721 233.762 201.928 233.721C203.959 233.555 206.031 233.43 208.062 233.265C208.393 233.265 208.725 233.223 209.056 233.182C211.294 232.975 213.532 232.726 215.77 232.519C217.801 232.353 219.873 232.27 221.904 232.021C224.474 231.69 227.002 231.317 229.571 231.275C229.82 231.275 230.11 231.275 230.359 231.234C232.762 230.902 235.208 230.571 237.653 230.529C237.984 230.529 238.316 230.529 238.647 230.446C240.429 229.949 242.336 230.115 244.159 229.866C246.522 229.493 248.884 229.493 251.288 229.327C251.536 229.327 251.827 229.327 252.075 229.245C253.194 228.913 254.313 228.996 255.432 228.954C255.764 228.872 256.054 228.706 256.385 228.664C258.499 228.499 260.613 228.333 262.685 228.167C263.721 228.084 264.799 228.084 265.835 227.877C266.871 227.67 267.948 227.711 268.984 227.711C269.647 227.711 269.896 227.918 270.103 228.623C270.186 228.872 270.186 229.162 270.269 229.41C271.347 232.684 272.341 235.917 274.704 238.652C276.734 240.973 279.138 242.59 281.915 243.667C282.744 243.999 283.573 244.123 284.443 244.082C285.686 244.082 286.971 244.082 288.214 244.082C289.126 244.082 290.038 243.957 290.95 243.75C292.773 243.377 294.431 242.507 296.089 241.719C296.545 241.512 297.042 241.18 297.373 240.766C298.492 239.357 299.653 237.989 300.44 236.414C301.766 233.803 302.72 231.068 303.507 228.25C304.087 226.136 304.585 224.023 305.165 221.909C305.621 220.168 306.035 218.469 305.994 216.646C305.994 216.19 305.994 215.734 306.077 215.278C306.574 212.626 306.284 210.015 305.704 207.404C305.165 205.083 304.17 202.886 303.176 200.731C301.601 197.457 299.446 194.68 296.876 192.152C295.591 190.909 294.182 190.039 292.524 189.5C290.991 189.003 289.458 188.837 287.883 188.588C284.319 188.049 280.92 188.588 277.522 189.624C274.248 190.66 271.015 191.821 267.865 193.188C265.669 194.142 263.472 195.053 261.193 195.758C259.411 196.297 257.629 196.794 255.764 196.67C254.893 197.208 253.857 197.167 252.904 197.374C249.05 198.203 245.154 198.949 241.258 199.695C236.078 200.69 230.856 201.643 225.675 202.638C222.153 203.301 218.671 204.005 215.19 204.71C210.383 205.622 205.575 206.533 200.809 207.487C197.369 208.15 193.929 208.854 190.49 209.517C185.806 210.429 181.165 211.341 176.482 212.253C171.052 213.33 165.582 214.408 160.153 215.527C157.417 216.107 154.724 216.687 152.03 217.35C150.165 217.806 148.341 218.428 146.476 218.925C143.741 219.63 140.881 220.003 138.146 220.79C137.4 220.997 136.571 221.039 135.784 220.79C135.701 221.163 135.576 221.536 135.162 221.743C134.706 221.992 134.25 222.241 133.753 222.448C129.318 224.064 124.842 225.68 120.408 227.297C118.75 227.918 117.051 228.499 115.393 229.12C113.114 229.949 110.834 230.778 108.555 231.648C106.98 232.27 105.488 232.27 104.079 231.192C102.504 231.897 100.971 232.643 99.5617 233.596C98.6085 234.218 98.1112 235.047 97.8625 236.166C97.3237 238.901 96.9922 241.636 97.0751 244.413C97.1579 248.06 97.1579 251.666 97.1165 255.313C97.1165 256.929 97.4066 258.463 97.5724 260.037C97.7381 261.654 98.7328 262.938 99.6031 264.265C99.9761 264.803 100.556 265.176 101.302 265.135C101.965 265.135 102.587 265.259 103.25 265.467V265.508Z" fill="#FFB68B"/>
<path d="M255.722 196.711C257.587 196.794 259.411 196.297 261.151 195.8C263.431 195.136 265.627 194.225 267.824 193.23C270.974 191.821 274.206 190.702 277.48 189.666C280.837 188.588 284.236 188.091 287.841 188.63C289.416 188.878 290.991 189.044 292.483 189.542C294.141 190.08 295.55 190.951 296.835 192.194C299.446 194.722 301.601 197.499 303.134 200.773C304.17 202.928 305.165 205.083 305.662 207.445C306.242 210.056 306.533 212.667 306.035 215.32C305.952 215.776 305.911 216.231 305.952 216.687C305.994 218.511 305.579 220.21 305.123 221.951C304.543 224.064 304.046 226.178 303.466 228.292C302.678 231.11 301.725 233.845 300.399 236.456C299.57 238.072 298.451 239.44 297.332 240.808C297 241.222 296.545 241.512 296.047 241.761C294.348 242.507 292.732 243.419 290.908 243.792C289.996 243.999 289.085 244.123 288.173 244.123C286.93 244.123 285.645 244.123 284.401 244.123C283.531 244.123 282.702 243.999 281.873 243.709C279.055 242.59 276.693 241.015 274.662 238.694C272.3 236 271.305 232.726 270.228 229.452C270.145 229.203 270.145 228.913 270.062 228.665C269.855 227.96 269.606 227.753 268.943 227.753C267.865 227.753 266.788 227.753 265.793 227.919C264.757 228.126 263.68 228.126 262.643 228.209C260.53 228.374 258.416 228.54 256.344 228.706C256.012 228.706 255.722 228.872 255.391 228.996C255.515 232.353 255.929 235.71 256.344 239.067C256.551 240.766 256.717 242.465 257.048 244.165C257.546 246.485 257.877 248.848 258.209 251.21C258.416 252.868 258.623 254.484 259.038 256.1C259.328 257.261 259.494 258.421 259.494 259.623C259.494 260.162 259.494 260.701 259.618 261.198C259.742 261.944 259.701 262.649 259.618 263.353C259.369 265.301 259.204 267.29 258.996 269.28C261.4 269.777 263.762 270.274 266.166 270.73C269.482 271.352 272.797 271.932 276.071 272.554C279.76 273.258 283.448 274.004 287.137 274.709C290.577 275.372 294.016 275.993 297.456 276.657C299.611 277.071 301.725 277.485 303.88 277.9C307.32 278.563 310.76 279.185 314.2 279.806C317.557 280.428 320.955 281.05 324.312 281.63C325.058 279.931 325.307 278.066 325.721 276.284C326.55 272.968 327.42 269.611 328 266.254C328.498 263.395 329.161 260.576 329.865 257.758C330.156 256.598 330.363 255.437 330.694 254.277C331.109 252.785 331.192 251.293 331.399 249.801C331.855 245.988 331.896 242.134 331.772 238.321C331.647 233.886 331.275 229.493 330.197 225.183C329.451 222.241 328.498 219.34 327.669 216.439C326.881 213.828 326.053 211.258 324.768 208.854C324.353 208.025 323.939 207.197 323.483 206.409C320.706 201.767 317.722 197.25 314.117 193.147C311.464 190.163 308.315 187.967 304.999 185.936C304.668 185.729 304.336 185.521 304.004 185.273C301.849 184.444 299.694 183.615 297.539 182.828C295.26 181.957 293.022 181.004 290.577 180.631C289.002 180.382 287.427 180.217 285.893 179.968C284.194 179.678 282.495 179.719 280.796 179.968C278.102 180.424 275.532 181.128 272.963 182.04C272.797 182.123 272.631 182.289 272.466 182.33C268.736 183.656 265.669 186.019 262.561 188.34C261.442 189.169 260.405 190.039 259.411 190.992C257.712 192.608 256.427 194.515 255.847 196.794L255.722 196.711Z" fill="#8A89DE"/>
<path d="M321.37 116.683C321.577 115.937 321.245 115.233 320.955 114.57C319.049 110.135 316.106 106.529 312.252 103.67C307.362 100.023 301.808 97.992 295.757 97.2874C287.469 96.2928 279.677 97.9091 272.3 101.68C271.471 102.095 270.684 102.634 269.689 102.509C269.689 103.131 269.275 103.421 268.777 103.711C265.586 105.825 263.182 108.726 261.069 111.834C259.577 114.031 258.541 116.434 257.505 118.88C256.095 122.195 255.391 125.676 255.018 129.199C254.728 131.976 254.894 134.753 255.474 137.488C256.303 141.549 257.173 145.611 259.37 149.217C259.452 149.299 259.452 149.424 259.452 149.548C260.696 150.75 261.898 151.952 263.141 153.154C263.887 153.9 264.591 154.687 265.296 155.475C266.995 157.381 269.067 158.79 271.264 159.992C271.803 160.282 272.466 160.116 272.88 160.614C274.289 160.738 275.45 160.033 276.569 159.329C278.807 157.837 281.045 156.221 283.241 154.646C285.148 153.278 286.64 151.537 288.007 149.631C289.872 146.979 291.82 144.368 293.685 141.757C294.431 140.721 295.343 139.892 296.296 139.063C297.456 138.068 298.783 137.612 300.275 137.447C301.642 137.322 303.051 137.198 304.419 136.991C307.071 136.618 309.227 135.664 310.801 133.219C314.034 128.205 317.557 123.397 320.292 118.092C320.541 117.595 320.748 116.973 321.287 116.642L321.37 116.683Z" fill="#884100"/>
<path d="M321.37 116.683C320.831 117.014 320.624 117.594 320.375 118.133C317.64 123.438 314.117 128.287 310.884 133.26C309.309 135.705 307.154 136.659 304.502 137.032C303.134 137.239 301.725 137.363 300.357 137.487C298.866 137.612 297.539 138.109 296.379 139.104C295.426 139.933 294.514 140.762 293.768 141.798C291.861 144.45 289.955 147.02 288.09 149.672C286.764 151.578 285.23 153.319 283.324 154.687C281.128 156.262 278.89 157.836 276.652 159.37C275.574 160.116 274.414 160.82 272.963 160.655C273.253 161.193 273.336 161.774 273.336 162.354C273.336 163.141 273.378 163.929 273.336 164.716C273.295 167.659 273.668 170.601 273.668 173.544C273.668 175.906 273.543 178.268 273.005 180.548C272.922 181.004 272.922 181.459 272.922 181.915C275.491 181.004 278.061 180.299 280.755 179.843C282.454 179.553 284.153 179.512 285.852 179.843C287.386 180.133 289.002 180.258 290.535 180.506C292.98 180.879 295.218 181.874 297.498 182.703C299.653 183.532 301.808 184.319 303.963 185.148C304.17 182.993 304.212 180.796 304.46 178.641C304.709 176.611 304.585 174.538 305.082 172.549C305.248 171.927 305.165 171.223 305.165 170.56C305.165 169.772 305.331 168.985 305.497 168.197C305.662 167.078 306.408 166.664 307.403 166.498C307.942 166.415 308.48 166.457 308.978 166.457C311.299 166.415 313.62 166.457 315.899 166.084C318.676 165.669 320.914 164.509 322.571 162.229C323.566 160.862 324.271 159.37 324.644 157.754C324.809 157.09 324.975 156.469 325.099 155.806C325.804 152.324 327.545 149.382 330.031 146.937C331.316 145.693 332.518 144.367 334.01 143.331C334.632 142.875 335.212 142.295 335.709 141.673C337.035 140.098 336.87 138.482 335.212 137.197C333.43 135.83 331.648 134.503 329.866 133.094C327.628 131.312 325.597 129.282 324.022 126.919C322.654 124.889 321.95 122.651 321.867 120.205C321.825 119.003 321.867 117.802 321.411 116.683H321.37Z" fill="#FFB78A"/>
<path d="M324.271 281.547C320.914 280.925 317.515 280.345 314.158 279.723C310.718 279.101 307.279 278.438 303.839 277.817C301.684 277.402 299.57 276.988 297.415 276.573C293.975 275.91 290.535 275.289 287.095 274.625C283.407 273.921 279.718 273.175 276.03 272.47C272.714 271.849 269.399 271.268 266.125 270.647C263.721 270.191 261.359 269.652 258.955 269.196C258.872 269.445 258.706 269.694 258.665 269.942C258.375 272.636 257.836 275.289 257.422 277.982C256.966 280.925 256.385 283.826 255.391 286.644C254.603 288.924 253.609 291.037 251.827 292.778C251.661 292.944 251.536 293.234 251.371 293.441C252.241 293.98 253.277 293.897 254.23 294.104C259.162 295.016 264.135 295.762 269.109 296.632C274.331 297.502 279.511 298.414 284.733 299.326C289.872 300.196 295.053 300.984 300.192 301.896C305.289 302.766 310.345 303.678 315.402 304.589C316.396 304.755 317.308 305.087 318.261 305.418C318.8 304.258 318.883 303.014 319.214 301.813C319.919 299.492 320.541 297.129 321.162 294.767C322.115 290.996 322.903 287.183 324.022 283.453C324.188 282.873 324.188 282.293 324.271 281.712V281.547Z" fill="#FFB68A"/>
<path d="M306.242 352.333C305.206 352.002 304.378 351.338 303.466 350.8C301.559 349.681 299.487 349.018 297.539 348.064C295.716 347.774 293.851 347.691 292.027 347.816C289.872 347.981 287.883 348.52 286.142 349.888C285.148 350.675 284.36 351.629 283.614 352.623C282.91 353.576 282.205 354.53 281.459 355.483C279.221 358.425 277.066 361.409 275.325 364.683C274.869 365.554 274.496 366.507 273.709 367.17C273.709 367.253 273.668 367.336 273.626 367.419C273.709 367.75 273.543 368.082 273.419 368.372C272.093 371.19 270.601 373.884 269.026 376.578C269.026 376.619 268.943 376.702 268.902 376.744C267.119 380.059 265.296 383.333 263.555 386.69C263.017 387.726 262.643 388.887 262.271 390.006C261.939 391 261.607 391.995 261.027 392.907C260.613 393.57 260.53 394.274 260.654 395.02C261.317 398.004 262.809 400.367 265.586 401.859C267.202 402.729 268.902 403.185 270.642 403.433C271.803 403.599 272.88 403.268 273.916 402.812C275.657 402.066 277.356 401.113 278.848 399.869C279.801 399.082 280.837 398.336 281.915 397.673C283.407 396.802 284.816 395.808 286.267 394.896C290.784 392.036 295.301 389.177 299.819 386.317C301.103 385.488 302.388 384.659 303.632 383.789C304.087 383.457 304.502 383.167 305.041 383.209C305.206 380.764 305.331 378.318 305.621 375.915C305.994 373.014 305.745 370.113 306.284 367.253C306.325 367.004 306.325 366.714 306.325 366.465C306.284 362.57 306.864 358.674 306.657 354.778C306.657 354.447 306.74 354.115 306.781 353.784C306.615 353.286 306.408 352.83 306.242 352.333Z" fill="#FFB689"/>
<path d="M262.188 99.6913C260.696 98.8624 259.079 98.6138 257.421 98.4894C253.443 98.1164 249.796 99.0696 246.397 101.142C244.367 102.385 242.419 103.753 240.927 105.701C240.554 106.157 240.139 106.612 239.725 107.027C236.575 110.218 234.752 114.155 233.384 118.341C232.721 120.455 232.555 122.651 232.348 124.806C231.809 131.396 231.436 138.027 231.726 144.658C231.933 149.217 232.306 153.776 232.845 158.334C233.052 159.909 233.26 161.484 233.425 163.059C233.84 167.701 235.415 171.969 237.321 176.114C238.191 177.979 239.601 179.512 241.383 180.631C243.704 182.082 246.853 181.377 248.594 179.015C249.008 178.435 249.381 177.772 249.63 177.108C251.122 173.088 252.573 169.027 253.443 164.8C254.147 161.401 254.396 157.961 254.52 154.522C254.52 153.61 254.603 152.657 254.603 151.745C254.603 151.206 254.645 150.709 254.935 150.211C254.437 149.797 254.189 149.134 253.526 148.844C253.194 148.678 252.904 148.346 252.697 148.015C250.749 145.155 249.05 142.171 248.097 138.856C247.516 136.825 246.978 134.794 246.936 132.639C246.936 131.064 246.853 129.531 246.936 127.956C247.019 126.298 247.268 124.682 247.599 123.066C248.387 119.419 249.796 116.02 251.619 112.746C252.282 111.544 253.028 110.384 253.816 109.223C254.603 108.063 255.764 107.234 256.427 105.991C257.007 104.955 257.836 104.084 258.706 103.255C259.867 102.095 261.151 101.017 262.146 99.6913H262.188Z" fill="#894100"/>
<path d="M134.209 217.765C133.753 216.729 133.173 215.776 132.592 214.823C132.137 214.118 131.846 213.289 131.391 212.543C130.727 211.507 129.94 210.513 129.235 209.476C127.536 206.948 125.92 204.379 124.138 201.934C121.61 198.411 119.206 194.764 116.305 191.49C114.772 189.791 112.907 188.796 110.876 188.009C108.306 186.972 105.571 186.268 102.877 185.771C100.929 185.439 98.94 185.398 96.9922 185.936C95.3344 186.392 93.7181 186.931 92.1432 187.718C89.5737 189.003 88.4962 191.49 89.1178 194.349C89.4079 195.676 89.8638 196.919 90.5269 198.038C92.2261 201.022 93.8839 204.047 95.7903 206.907C97.6967 209.808 99.2301 212.875 100.598 216.025C101.717 218.636 102.753 221.288 103.706 223.94C104.079 225.018 104.411 226.054 104.328 227.214C104.328 227.546 104.411 227.878 104.411 228.209C105.074 227.96 105.737 227.67 106.441 227.422C110.213 226.054 114.026 224.769 117.797 223.36C118.667 223.029 119.538 222.78 120.284 222.241C119.123 221.661 118.75 220.459 118.336 219.382C118.17 218.926 118.336 218.47 118.709 218.138C119.082 217.848 119.745 217.807 120.201 218.138C120.408 218.304 120.615 218.47 120.781 218.636C120.988 218.801 121.154 219.009 121.361 219.174C121.983 219.672 122.604 219.464 122.936 218.718C123.102 218.345 123.185 217.972 123.35 217.599C123.516 217.309 123.682 216.978 123.972 216.853C124.677 216.439 125.174 215.859 125.588 215.154C125.961 214.533 126.5 214.284 127.246 214.284C127.951 214.284 128.697 214.408 129.401 214.077C130.064 213.787 130.52 214.077 130.976 214.533C131.473 215.03 131.764 215.569 131.722 216.273C131.722 216.936 131.722 217.599 131.722 218.263C132.468 217.765 133.338 217.931 134.209 217.848V217.765ZM103.789 215.154C104.12 213.87 104.328 212.668 104.328 211.383C104.328 210.761 104.701 210.347 105.281 210.264C105.861 210.181 106.358 210.347 106.607 210.886C106.897 211.466 107.229 212.087 107.436 212.668C108.099 214.408 108.928 216.066 109.923 217.641C111.042 219.423 112.161 221.247 113.238 223.029C113.362 223.194 113.362 223.443 113.114 223.526C113.031 223.567 112.865 223.526 112.741 223.526C112.326 223.319 112.078 222.904 111.829 222.531C110.296 220.045 108.721 217.599 107.477 214.988C107.104 214.201 106.69 213.455 106.276 212.709C106.193 212.502 106.027 212.419 105.82 212.419C105.53 212.419 105.281 212.668 105.239 212.875C105.032 214.367 104.908 215.9 105.322 217.392C105.571 218.221 105.903 219.009 106.276 219.755C107.104 221.329 107.519 223.112 108.141 224.769C108.223 224.935 108.141 225.142 108.141 225.349C108.141 225.391 108.058 225.474 108.016 225.515C107.892 225.515 107.726 225.515 107.643 225.515C107.436 225.267 107.229 224.976 107.146 224.686C106.566 222.697 105.737 220.832 104.908 218.967C104.369 217.765 104.162 216.439 103.789 215.196V215.154ZM112.243 192.111C112.243 193.272 111.58 193.728 110.586 193.272C110.296 193.148 110.006 192.94 109.715 192.775C108.638 192.07 107.602 191.407 106.234 191.531C106.027 191.531 105.861 191.49 105.654 191.407C104.949 191.117 104.493 190.247 104.742 189.625C104.949 189.086 105.737 188.755 106.4 188.879C108.016 189.21 109.55 189.832 111.083 190.454C111.788 190.744 112.243 191.324 112.202 192.153L112.243 192.111Z" fill="#FFB68B"/>
<path d="M262.187 99.6914C261.193 101.059 259.908 102.095 258.748 103.256C257.919 104.126 257.048 104.955 256.468 105.991C255.805 107.234 254.645 108.063 253.857 109.224C253.07 110.384 252.324 111.544 251.661 112.746C249.837 115.979 248.428 119.419 247.641 123.066C247.309 124.682 247.06 126.298 246.977 127.956C246.895 129.531 246.977 131.064 246.977 132.639C246.977 134.794 247.516 136.825 248.138 138.856C249.091 142.213 250.79 145.197 252.738 148.015C252.945 148.347 253.235 148.678 253.567 148.844C254.23 149.134 254.479 149.797 254.976 150.212C255.515 150.046 256.012 149.88 256.551 149.714C256.965 149.258 257.38 149.3 257.836 149.714C258.084 149.714 258.333 149.714 258.54 149.673C258.748 149.383 259.121 149.383 259.369 149.258C257.173 145.653 256.302 141.55 255.473 137.53C254.935 134.794 254.769 132.018 255.018 129.241C255.349 125.718 256.095 122.237 257.504 118.921C258.54 116.476 259.576 114.031 261.068 111.876C263.182 108.768 265.627 105.867 268.777 103.753C269.233 103.463 269.647 103.173 269.689 102.551C267.244 101.473 264.757 100.437 262.146 99.7329L262.187 99.6914Z" fill="#62350E"/>
<path d="M273.709 367.17C274.496 366.507 274.869 365.554 275.325 364.684C277.066 361.409 279.262 358.426 281.459 355.483C282.163 354.53 282.868 353.577 283.614 352.623C284.36 351.629 285.147 350.676 286.142 349.888C287.883 348.52 289.872 347.982 292.027 347.816C293.892 347.692 295.715 347.774 297.539 348.065C297.539 347.484 297.788 347.07 298.161 346.655C299.404 345.039 300.647 343.381 301.683 341.641C302.388 340.522 303.092 339.403 303.714 338.242C304.833 336.129 306.118 334.139 307.403 332.15C308.066 331.114 308.024 329.995 307.859 328.876C307.693 327.633 305.952 326.97 304.916 327.674C304.46 327.964 304.17 328.379 303.88 328.835C302.429 331.031 300.564 332.938 299.238 335.217C299.238 335.258 299.155 335.341 299.114 335.383C296.917 337.496 295.218 340.107 292.856 341.972C290.742 343.671 289.043 345.785 286.805 347.36C286.225 347.774 285.727 348.355 285.23 348.893C283.863 350.344 282.246 351.463 280.713 352.748C279.179 354.032 277.646 355.276 276.071 356.436C274.04 357.928 272.051 359.462 269.979 360.829C268.155 362.031 266.249 363.026 264.342 364.103C263.555 364.559 262.892 365.057 263.016 366.093C266.125 366.134 269.191 366.424 272.217 367.004C272.756 366.922 273.253 367.004 273.75 367.17H273.709Z" fill="#4A4B46"/>
<path d="M120.201 222.158C119.455 222.738 118.584 222.987 117.714 223.277C113.943 224.645 110.171 225.971 106.358 227.339C105.695 227.587 105.032 227.877 104.328 228.126C103.747 229.121 103.83 230.157 104.079 231.234C105.488 232.312 106.98 232.27 108.555 231.69C110.834 230.82 113.114 229.991 115.393 229.162C117.051 228.54 118.75 227.96 120.408 227.339C124.842 225.722 129.318 224.106 133.753 222.49C134.25 222.324 134.706 222.034 135.162 221.785C135.576 221.578 135.659 221.205 135.783 220.832C135.535 219.671 134.789 218.718 134.167 217.724C133.338 217.807 132.468 217.641 131.722 218.138C128.779 219.216 125.795 220.293 122.853 221.412C121.983 221.744 121.154 222.158 120.201 222.158Z" fill="#E7A37B"/>
<path d="M273.709 367.169C273.212 366.962 272.714 366.879 272.176 367.004C272.59 367.418 273.129 367.335 273.585 367.418C273.626 367.335 273.668 367.252 273.668 367.169H273.709Z" fill="#8A89DE"/>
<path d="M257.836 149.672C257.421 149.258 257.007 149.216 256.551 149.672C256.966 149.755 257.38 149.797 257.836 149.672Z" fill="#8F8571"/>
<path d="M259.411 149.216C259.121 149.34 258.748 149.34 258.582 149.63C258.913 149.713 259.204 149.713 259.494 149.547C259.494 149.423 259.494 149.34 259.411 149.216Z" fill="#8F8571"/>
<path d="M306.242 352.333C306.408 352.83 306.615 353.286 306.781 353.784C308.19 353.949 309.516 353.618 310.843 353.162C315.609 351.587 320.416 350.095 325.182 348.52C328.705 347.401 332.228 346.241 335.75 345.122C341.801 343.174 347.852 341.309 353.903 339.361C356.97 338.366 360.078 337.372 363.145 336.377C365.673 335.59 368.16 334.761 370.688 334.015C371.434 333.808 371.972 333.393 372.428 332.813C372.801 332.316 372.801 331.653 372.428 331.155C371.724 330.119 371.185 329.953 369.9 330.285C366.958 331.072 364.098 332.108 361.197 333.062C354.732 335.134 348.225 337.206 341.76 339.278C339.19 340.107 336.579 340.936 334.01 341.765C329.534 343.215 325.099 344.666 320.623 346.075C316.769 347.277 312.915 348.479 309.102 349.681C308.729 349.805 308.356 349.929 307.983 350.054C306.905 350.468 306.201 351.173 306.201 352.416L306.242 352.333Z" fill="#494A45"/>
<path d="M120.201 222.158C121.154 222.158 121.983 221.743 122.853 221.412C125.795 220.334 128.779 219.257 131.722 218.138C131.722 217.474 131.722 216.811 131.722 216.148C131.722 215.444 131.473 214.864 130.976 214.408C130.52 213.993 130.064 213.62 129.401 213.952C128.697 214.283 127.951 214.159 127.246 214.159C126.5 214.159 125.92 214.449 125.588 215.029C125.174 215.734 124.676 216.314 123.972 216.728C123.723 216.894 123.516 217.184 123.35 217.474C123.185 217.806 123.06 218.22 122.936 218.593C122.604 219.339 121.983 219.505 121.361 219.049C121.154 218.884 120.988 218.676 120.781 218.511C120.574 218.345 120.408 218.138 120.201 218.013C119.745 217.723 119.082 217.723 118.709 218.013C118.294 218.345 118.17 218.801 118.336 219.257C118.75 220.376 119.082 221.536 120.283 222.116L120.201 222.158Z" fill="#FFB68B"/>
<path d="M103.789 215.154C104.162 216.397 104.369 217.765 104.908 218.926C105.778 220.791 106.566 222.656 107.146 224.645C107.229 224.935 107.478 225.225 107.643 225.474C107.685 225.557 107.892 225.515 108.016 225.474C108.058 225.474 108.141 225.391 108.141 225.308C108.141 225.101 108.224 224.893 108.141 224.728C107.519 223.07 107.105 221.288 106.276 219.713C105.861 218.967 105.53 218.138 105.322 217.351C104.908 215.859 105.032 214.325 105.24 212.833C105.24 212.585 105.488 212.377 105.82 212.377C106.027 212.377 106.193 212.502 106.276 212.668C106.69 213.414 107.105 214.201 107.478 214.947C108.721 217.558 110.337 220.003 111.829 222.49C112.078 222.904 112.327 223.277 112.741 223.484C112.824 223.526 113.031 223.567 113.114 223.484C113.321 223.36 113.321 223.153 113.238 222.987C112.119 221.164 111.042 219.381 109.923 217.599C108.928 216.024 108.099 214.367 107.436 212.626C107.187 212.004 106.897 211.424 106.607 210.844C106.317 210.305 105.861 210.139 105.281 210.222C104.742 210.305 104.328 210.678 104.328 211.341C104.328 212.626 104.121 213.828 103.789 215.113V215.154Z" fill="#FFB68B"/>
<path d="M112.243 192.111C112.285 191.282 111.871 190.743 111.125 190.411C109.591 189.79 108.058 189.21 106.441 188.837C105.737 188.671 104.949 189.044 104.784 189.583C104.535 190.204 104.991 191.075 105.695 191.365C105.861 191.448 106.068 191.53 106.276 191.489C107.643 191.406 108.679 192.069 109.757 192.732C110.047 192.898 110.296 193.105 110.627 193.23C111.622 193.686 112.285 193.23 112.285 192.069L112.243 192.111Z" fill="#FFB68B"/>
</svg>
