<?xml version="1.0" encoding="UTF-8"?>
<svg xmlns="http://www.w3.org/2000/svg" version="1.1" viewBox="0 0 1417.3 1417.3">
  <defs>
    <style>
      .cls-1 {
        fill: #686d65;
      }

      .cls-2 {
        fill: #80776a;
      }

      .cls-3 {
        fill: #814414;
      }

      .cls-4 {
        fill: #484944;
      }

      .cls-5 {
        fill: #884000;
      }

      .cls-6 {
        fill: #696d65;
      }

      .cls-7 {
        fill: #e6a37b;
      }

      .cls-8 {
        fill: #b59bbe;
      }

      .cls-9 {
        fill: #8989de;
      }

      .cls-10 {
        fill: #ffb68a;
      }

      .cls-11 {
        fill: #fcb489;
      }

      .cls-12 {
        fill: #623307;
      }

      .cls-13 {
        fill: #ffb78a;
      }
    </style>
  </defs>
  <!-- Generator: Adobe Illustrator 28.7.1, SVG Export Plug-In . SVG Version: 1.2.0 Build 142)  -->
  <g>
    <g id="_레이어_1" data-name="레이어_1">
      <g>
        <path class="cls-13" d="M985,747c13,3.6,25.9,7.4,38.9,10.7,12.8,3.3,25.5,7.4,38.8,8.6,4.5.4,9.1.9,13.6.9,9.5,0,19,1.5,28.5,1.4,2.5,0,5.1.6,7.6,1.2,3.9,1,6.7,3.5,8.5,7,1.1,2.1,1.9,4.4,2.2,6.7.6,4.9,1.2,9.9,1.2,14.8,0,3.9,1.7,6.3,4.9,8.1,4.6,2.7,9.2,5.6,13.7,8.4,1.2.7,2.3,1.5,3.4,2.4,2,1.7,2.3,2.9,1.2,5.2-1,2.2-2.1,4.3-3.3,6.3-5.4,9-10.8,18-16.5,26.9-2,3.2-2.9,6.5-3.1,10.1-.6,9.3-1.1,18.6-1.6,27.9-2.5.7-4.7-.7-6.9-1.4-13-4.2-26-8.8-39-12.9-4.8-1.5-7.6-4.2-9.3-9-3.7-10.7-8.2-21.1-11.9-31.8-1.9-5.6-5.6-8-11.2-7.6-9.2.6-18.2-1.5-27.3-1.3-5,.1-8.2-2.5-10.4-6.6-3.1-5.8-5.8-11.7-8.9-17.5-1.5-2.8-3-5.9-6.7-6-3.6,0-4.8,3.1-6.2,5.7-5.7,10.2-11.5,20.4-16.7,30.9-.8,1.6-1,4.1-3.7,4-9-3.1-18.1-5.9-26.9-9.3-4.5-1.7-8.3-1.2-12.6.5-23,9.1-46.2,17.9-69.2,27.1-12.1,4.8-24.1,10.2-36.1,15.4-10.4,4.5-20.5,9.4-31,13.6-7.7,3-15.8,5.1-23.8,7.5-4.9,1.5-10,2.6-14.8,4.4-10.4,3.9-21.2,4.6-32.2,4.2-.8,0-1.6,0-2.4-.1-3.5-.6-6.7.4-9.5,2.4-4.1-4.7-9.9-5.5-15.5-6.5-27-4.8-54-9.3-80.9-13.9-29.5-5.1-59-10.3-88.6-15.1-7.6-1.2-15.3-2.3-23.1-2.1-5.9.2-11.4-1.6-16.9-3.1-11.5-3.1-23.3-5-34.4-9.3-11.3-12.6-28-13.8-42.3-20.2-.7-.3-1.5-.5-2.2-.8-3.6-1.4-8-2.1-7-7.8,1.2-6.8,3.8-10,9.7-9.8,11.9.4,23.7-1.7,35.6-1.3,3.2,0,6.3-.2,8.9-2.6,2-1.9,4.6-2,7.2-2.1,4.1-.2,8.3.5,12.4-.6.7-.2,1.3-.4,2-.5,10.9-.8,21.9-.3,32.7,1,1.1.1,2.1.2,3.1.5,4.8,1.3,9.7.6,14.6.6,28.5,1.1,57,2.5,85.4,5.1,36.6,7.8,73.6,13.9,110.6,19.6,3.3.5,6.3-.4,9.2-1.8,11.6-5.7,23-11.7,34.4-17.8,2.9-1.6,4.7-4.2,7.1-6.2,20.1-10.7,41.1-19.7,61.7-29.5,7.9-3.8,15.7-7.7,23.7-11,3-1.3,5.4-3.2,6.5-6.5,10.8-31.8,48.7-46.1,81.4-31.2,3.1,1.4,6.1,2.9,8.9,4.7,19,11.9,27,35.9,18.8,57.1-1.6,4-3,8.2-5.5,11.8-1.9,1.8-3.6,3.9-5.4,5.8-.3.2-.6.4-.8.6.2-.2.5-.4.8-.6,1.9-1.8,3.5-3.9,5.5-5.7,9.6-11.4,14.4-25,18.7-38.9,1.2-4.1.7-8.3.8-12.4.1-2.7-.7-5.6,1.6-7.9Z"/>
        <path class="cls-1" d="M447.2,854.3c6.5,1.7,13,3.4,19.5,5.1,7.7,2,15.4,3.8,23,5.9,2.9.8,5.8,1.2,8.8,1.1,9.1-.2,18.2,1,27.2,2.5,10.7,1.8,21.4,3.7,32.2,5.6,18.1,3.1,36.3,6.3,54.4,9.4,22.2,3.8,44.5,7.3,66.7,11.3,7.4,1.3,14.9,2.3,22.1,4.4,3.3,1,5.3,2.4,5.1,6-.5,2.4-1.9,4.3-3.2,6.3-10.9,16.8-25.3,30-42.5,40.1-16.8,9.9-34.9,16.1-54.1,19.3-14.6,2.5-29.3,3.2-43.9,2-20.4-1.7-40.9-1.8-61.3-2.2-17.3-.3-34.6-.7-51.8-1.1-14.1-.4-28.2,1-42.3,1.7-6,.3-11.9-.2-17.8-.4-8.1-.3-16.3-.7-24.4-1.4-4.9-.4-9.8-1.3-14.7-2.2-6-1.1-12.1-2.4-18-3.8-9.5-2.2-18.6-5.7-27.5-9.7-8.6-3.8-16.3-9.1-22.6-16.2-11.2-12.6-15.1-27.1-12-43.7,1.4-7.6,3.3-15,6.2-22.3,4.1-10.4,11-18.2,20-24.5.8-.6,1.8-1,2.4-1.7.4-.5.4-1.4.6-2.2,8.8-3.6,17.8-6.3,27.3-7.9,14.5-2.4,29.1-3.9,43.6-6.4,3.1-.6,6.3-1.2,9.5-.7,2.8,3.1-.5,5.1-1.8,7-5.2,7.9-8.7,16.2-9.1,26-.8,15.7,12.9,24.9,27.2,22.9,15.4-2.1,27.6-10.5,38.8-20.6,1.5-1.3,2.8-2.8,4.2-4.2,3-1.5,3.5-6.6,8.2-5.4Z"/>
        <path class="cls-3" d="M964.7,840c.3-.3.7-.5.8-.8,5.2-12.7,12.6-24.3,18.9-36.4.3-.5.6-1.1.9-1.5,1.3-1.7,2.4-4.2,4.7-4.1,3.2.1,6.3,1.5,7.9,4.5,3,5.6,5.7,11.3,8.6,17,.8,1.6,1.6,3.2,2.4,4.8,1.6,3.1,4,4.6,7.6,4.7,9.5.3,19,.8,28.5,1.3.4,0,.8,0,1.2,0,7.9.4,8,.5,10.7,7.7,4.4,11.7,8.9,23.4,13.1,35.1.9,2.6,2.3,3.9,4.7,4.7,14,4.6,27.9,9.2,41.8,13.8,2.3.7,4.6,1.3,6.4,3-.2,2.2-.6,4.3-.7,6.5-.7,14.6-6,27.4-16,38.1-10.7,11.5-23.5,20-37.8,26.3-6.2,2.7-12.9,3.6-19.7,4-18,.9-35.6-1.2-52.5-7.6-1.3-.5-2.6-.8-4-.4-3.5-4.4-7.6-8-12.4-10.8-5.8-3.3-8.9-8.9-12-14.5-4.7-8.5-8.7-17.4-9.7-27.3-.3-2.7-1.2-5.4-4.7-7.3-.6,12.1,1.5,23.2,6,33.8,5.5,12.9,14.1,23.3,25.9,31-3.1,2.4-6.8,3.1-10.6,3.3-10.4.7-20.5-.7-30.6-3.4-16.1-4.3-31.9-9.5-47.8-14.5-11.3-3.5-21.4-9.4-30.2-17.4-2.5-2.3-4.7-4.9-6.4-7.8-5-8.6-3.5-17.1,4.2-23.4,5.3-4.4,11.5-7,18.2-8.5,22.5-4.9,45-9.7,67.5-14.5,2.2-.5,3.6-1.2,4-3.6,1.8-11.3,5.9-21.8,10-32.3.4-1.1.7-2.2,1.1-3.4Z"/>
        <path class="cls-9" d="M962.1,806.4c3.2-6.4,6.6-12.7,7.9-19.8,1.1-6.3,1.3-12.6-.2-18.9-.9-4.1-2.1-8-3.5-12-2.1-5.7-6.1-9.7-10.7-13.2-8.3-6.3-17.6-10.8-27.9-12.9-18.1-3.7-34.6-.3-49.4,11.1-7.8,6-13.2,13.7-16.3,22.9-1.2,3.7-3.1,6-6.7,7.6-21.1,9.7-42.1,19.7-63.1,29.6-7.7,3.6-15.5,7.2-23.2,10.8-3.9-.5-4.8-4.2-7-6.5-7.8-18.7-13.7-38.1-21-57-3.6-9.3-6.8-18.7-10.3-28-.8-2.2-2.2-4.3-.9-6.8.8-.5,1.6-1.1,2.5-1.6,16-8.7,32.4-16.7,49-24.3.4-.2.7-.3,1.1-.5,14-7.5,28.9-13,44-17.9,5.7-1.8,11.3-3.6,17-5.3,2.1-.6,4.3-.7,6.5-1,15.9-2.1,31.2-.1,46.1,5.8,15.3,6,29.1,14.4,42.5,23.8,6,4.2,12.4,7.9,17.9,12.8,3.7,3.3,7.7,6.3,11.2,9.8,7.7,7.7,13.6,16.5,15.9,27.4.3,1.5.9,3,1.4,4.5,0,4,0,7.9.2,11.9.2,4.6-.7,9.1-2.4,13.3-2.6,6.2-3.9,12.9-7.1,18.9-2.4,4.4-5,8.5-7.8,12.6-1.1,1.6-2.5,3.1-4.2,4.2-1.2.2-1.7-.3-1.5-1.5Z"/>
        <path class="cls-4" d="M380.6,829.3c-4.8.8-9.7,1.5-14.5,2.3-4.3.7-8.5,1.4-12.8,2.1-.2,0-.4.1-.6,0-6.6-.4-12.9,1.6-19.3,2.6-5.6.8-11.4,1.3-16.9,2.6-4.4,1-8.6,2.9-12.7,4.8-1.7.7-3,.5-4.5-.2-10.6-17.5-11.7-35.5-2.7-53.9,5.8-11.7,14.6-20.6,26.6-26.3,9.2-4.3,18.9-7.3,28.9-8.9,20.4-3.2,40.8-3,61,.9,11.7,2.3,23.1,5.8,34.6,8.7,6.2,1.6,12.3,3,18.5,4.5.7.4,1.6.4,2.3.7.4.1.7.2,1.1.3,1.3,1.3,1.1,2.9.7,4.5-2.2,9.8-1.2,19.6.3,29.3.4,2.7,1.2,5.5-1,7.8h0c-8.9,1.1-17.9,2.5-25.4-4.5-8.9-5.3-18.1-3.8-27.4-1.3-2.1.5-4,1.5-6,2.3-3.3,1.3-6.9,1.5-10.4,1.7-5.3.2-8.9,2.7-10.4,7.9-1,3.2-2.4,6.2-4.6,8.8-1.4,1.6-2.4,3.6-5.1,3.2Z"/>
        <path class="cls-13" d="M729.9,713.4c6.1,16.7,12.3,33.4,18.4,50.1,4.4,12.1,8.8,24.1,13.2,36.2.7,1.8,1.2,3.8,1.7,5.6.2,1.9-1.3,2.3-2.5,2.8-11.1,4.8-21.7,10.6-32.5,16-4.3,2.2-8.5,2.7-13.2,1.9-26.8-4.3-53.6-8.1-80.4-12.5-4.9-.8-9.4-.8-13.3,2.8-2.3.8-3.9-.4-5.3-1.9-6.1-6.6-13.1-12-20.8-16.6,6.2-1.3,10.7-5.7,15.6-9.2,12.1-8.6,24.1-17.4,36.1-26.1,5.1-3.7,10.4-7.3,15.4-11.1,4.9-3.7,10.2-6.7,15.6-9.8,8.9-5.1,17.7-10.5,26.7-15.5,7.8-4.4,15.7-8.4,23.6-12.6.5-.3,1.1-.3,1.7-.4Z"/>
        <path class="cls-7" d="M469.8,811.2c.7-4.2-.9-8.2-1.5-12.3-1.4-9.9-1.3-19.7,1.5-29.3.6-1.2,1.2-2.5,1.9-3.7,6.3-11.4,19.3-14.9,30.9-7.1,6.6,4.4,11.1,10.6,15.2,17.2,1.1,1.8,2.3,3.7,3.4,5.5,5.4,6.4,7.9,14.1,9.8,22.1,0,4.4-2.6,6.3-6.5,6.8-2.5.3-5,.6-7.5,1.2-4.1.4-8.2.7-12.3.8-3.2,0-6.3.3-9.4-.7-1.6-.5-3.5-.4-5.3-.4-6.7,0-13.4,0-20.2,0Z"/>
        <path class="cls-6" d="M516.4,810.2c2.5-.6,4.9-1.3,7.4-1.3,1,0,1.9-.2,2.9-.4,2-.4,3-1.6,2.8-3.7,0-.6,0-1.2.1-1.7,2,.3,2.9,2.6,5.7,2.1,17.9-3,35.9-5.1,53.8-8,2.1,0,3.9,1.8,6.1.9,2.5-.1,4.5.7,6.5,2.2,4.6,3.5,9.1,6.9,13.1,11.1,1.6,1.7,3.5,3.2,5.2,4.8,2.3,1.9,1.6,2.9-1,2.9-3.6,0-7.3.6-10.9-.4-8.7-.5-17.4-.9-26-1.7-8.9-.8-17.7-.8-26.6-1.7-11.2-1.1-22.5-1.2-33.7-1.7-.2,0-.4,0-.6,0-3.1-1.2-6.4,0-9.5-.7-.4-4.2,3.7-.8,4.6-2.7Z"/>
        <path class="cls-4" d="M589.1,797.1c.2.9.9,2.1-.7,2.2-8.2.7-16.4,2.1-24.5,3.4-6.8,1.1-13.7,1.6-20.5,2.7-3.9.6-7.8,1.3-12,1.4-1.4-.7-.2-3-1.8-3.9-1.7-5.7-3.9-11.1-6.4-16.5-.7-1.6-1.3-3.3-2-4.9,7.7,1.6,15.4,3.2,23.1,5,13.8,3.1,27.6,6.3,41.5,9.5,1.1.3,2.2.7,3.4,1.1Z"/>
        <path class="cls-12" d="M985.3,965.4c-3.6-.2-6.2-2.4-8.7-4.6-10.7-9.4-17.6-21.2-21.8-34.7-.7-2.2-1.2-4.6-1.6-6.9-1.1-6.6-2.1-13.3-1.5-20,0-.6.2-1.3.9-1.4.5,0,1.2,0,1.6.3,3.3,2.3,5.5,5.5,5.5,9.3,0,5.8,2.1,10.9,4.1,16,2.7,7.2,6.7,13.9,11.2,20.2,1,1.4,2.4,2.6,3.9,3.6,2.7,1.7,5.4,3.3,7.9,5.2,2.7,2,5.5,4.1,5.4,8,0,0,0,0,0,0-.6.2-.9.7-1.2,1.2-1.9,1.2-3.9,2.5-5.8,3.7Z"/>
        <path class="cls-7" d="M468.7,769.3c-.9.3-1.7,0-2.3-.7.9-.3,1.7-.1,2.3.7Z"/>
        <path class="cls-5" d="M991.1,961.7c.1-.7.5-1.1,1.2-1.2,0,.8-.4,1.2-1.2,1.2Z"/>
        <path class="cls-7" d="M608.2,818.6c3.6,0,7.3,0,10.9,0,1.9,0,1.3-1.4,1-2.5,3.1-5.6,8.2-5.4,13.4-4.4,1.7.3,3.5.6,5.2.9,6.4,1,12.8,2.1,19.2,3.2,3.1.5,6.2.7,9.4,1.3,7.5,1.4,15.1,2.5,22.7,3.6,9.9,1.4,19.9,2.7,29.7,4.7,1.3.2,2.3,0,3.4-.6,2.8-1.4,5.7-2.8,8.5-4.2,3.7-1.9,7.4-3.7,11.2-5.6,3.4-1.7,6.8-3.2,10.1-5.1,3.2-1.9,6.9-2.7,10.2-4.4,1.5.9,2.7,2.1,3.7,3.6.6,1,1.5,1.7,2.2,2.6-2.2,4-5.8,6.1-9.7,8.3-10.6,5.8-21.5,11.1-32.2,16.6-3.7,1.9-7.2,2.8-11.4,1.5-3.1-1-6.6-.9-9.9-1.5-9.1-1.7-18.2-3.2-27.4-4.7-8.2-1.3-16.4-2.5-24.5-3.8-8.7-1.5-17.4-3.1-26.2-4.6-1.8-.3-3.6-.7-4.9-1.8-2-1.8-4.3-1.9-6.7-1.8-1.8,0-3.6,0-5.4,0-1,0-2-.3-2.7-1.1Z"/>
        <path class="cls-7" d="M444.9,805.3c2.6,1.3,5.5,2.2,7,5.1.6,1.2,2,1.1,3.2,1.1,4.9,0,9.9-.2,14.8-.3-.9,1.4-2.3,1.3-3.7,1.3-3.8,0-7.5,0-11.3,0-1.8,0-3.5.2-4.6,2-1.4,2.3-3.6,2.8-6.2,2.7-3.6-.1-7.1,0-10.7,0-3,0-5.9-.1-8.8.9-1.6.5-3.5.3-5.3.3-5.5,0-11.1,0-16.6,0-1.8,0-3,.8-3.7,2.4-.2.5-.4,1.1-.6,1.7-2.7,8.7-3.8,7.5,5,10.5,11.2,3.8,22.3,7.9,33.5,11.9,2.5.9,4.7,2.3,6,4.6,1.1,1.9,2.8,3.2,4.4,4.7-1.2.2-2,.6-2.7,1.7-1.1,1.8-2.6,3.2-4.5,4.1-7.1,0-13.3-3.3-19.8-5.6-9.3-3.3-18.7-6.4-28-9.6-11-3.8-12.4-6.7-8.2-17.5.2-.6.3-1.1.2-1.7,2.1-2.6,3.6-5.5,4.4-8.8.2-.9.6-1.9,1-2.7,1.7-3.6,4.2-6,8.5-6.1,1,0,2-.2,2.9-.1,3.2.1,6.2-.3,9.2-1.4,11.5-.7,23.1-.9,34.6-1.3Z"/>
        <path class="cls-7" d="M511.7,812.4c2.1,0,4.2.2,6.3.3,1.2,0,2.3.1,3.2.9-3.7,0-7.5,0-11.2,0-1.2,0-2.4-.1-3.2-1.1,1.6-1.1,3.2-.9,4.9-.2Z"/>
        <path class="cls-8" d="M962.1,806.4c.5.5,1,1,1.5,1.5-1.6,2.1-3.1,4.3-6.1,4.6h0c1-2.3,2.3-4.6,4.5-6.1Z"/>
        <path class="cls-2" d="M511.7,812.4c-1.6,0-3.3.2-4.9.2-.7,0-1.5-.1-2.2-.2,3.8-1.6,7.6-2.5,11.7-2.3-.6.8-1.4,1.1-2.3,1.2-.9,0-1.8.2-2.4,1.1Z"/>
        <path class="cls-8" d="M957.5,812.5c0,.2-.2.5-.2.5-.4,0-.3-.2.3-.4,0,0,0,0,0,0Z"/>
        <path class="cls-10" d="M384.3,825.7c.8.7,1,1.6.7,2.7-.5,1.9-1.1,3.8-1.6,5.7-.7,2.9.4,5.6,3.1,7,1.2.6,2.6,1,3.9,1.5,6.7,2.3,13.5,4.5,20.2,6.8,9.3,3.2,18.7,6.4,28,9.7.5.2,1,.7,1.4,1-11.8,13.7-26,23.1-44.1,25.9-8.6,1.3-20.3-1.6-25.7-11.3-1.7-3-2.7-6.1-3-9.5-.8-9.7,2.1-18.4,7.1-26.6,2-3.2,4.2-6.2,6.3-9.4,1.2-1.2,2.5-2.4,3.7-3.5Z"/>
        <path class="cls-11" d="M444.9,805.3c-.3.3-.5.7-.8.8-3.3.6-6.6,1.5-9.8,1.6-6.9.2-13.8,0-20.8,0-1.2,0-2.4-.1-3.2-1.2,7.7-4.2,16-5.6,24.7-4.8,3.6.3,7,1.2,9.9,3.6Z"/>
      </g>
    </g>
  </g>
</svg>