<svg width="500" height="500" viewBox="0 0 500 500" fill="none" xmlns="http://www.w3.org/2000/svg">
<path d="M347.492 263.529C352.078 264.799 356.629 266.14 361.215 267.304C365.731 268.468 370.211 269.914 374.903 270.338C376.49 270.479 378.113 270.655 379.701 270.655C383.052 270.655 386.404 271.184 389.755 271.149C390.637 271.149 391.554 271.361 392.436 271.573C393.812 271.925 394.8 272.807 395.435 274.042C395.823 274.783 396.105 275.594 396.211 276.406C396.423 278.134 396.634 279.898 396.634 281.627C396.634 283.003 397.234 283.849 398.363 284.484C399.986 285.437 401.609 286.46 403.196 287.448C403.62 287.695 404.008 287.977 404.396 288.294C405.101 288.894 405.207 289.318 404.819 290.129C404.466 290.905 404.078 291.646 403.655 292.352C401.75 295.527 399.845 298.702 397.834 301.841C397.128 302.97 396.811 304.134 396.74 305.404C396.529 308.685 396.352 311.966 396.176 315.247C395.294 315.494 394.518 315 393.742 314.753C389.155 313.272 384.569 311.649 379.983 310.202C378.29 309.673 377.302 308.721 376.702 307.027C375.397 303.253 373.809 299.584 372.504 295.809C371.834 293.833 370.528 292.987 368.553 293.128C365.307 293.339 362.132 292.598 358.922 292.669C357.158 292.704 356.029 291.787 355.253 290.341C354.159 288.294 353.207 286.213 352.113 284.167C351.584 283.179 351.055 282.086 349.75 282.05C348.48 282.05 348.056 283.144 347.562 284.061C345.551 287.659 343.505 291.258 341.671 294.962C341.389 295.527 341.318 296.408 340.365 296.373C337.19 295.28 333.98 294.292 330.876 293.092C329.288 292.493 327.948 292.669 326.431 293.269C318.317 296.479 310.132 299.584 302.018 302.829C297.749 304.523 293.516 306.428 289.282 308.262C285.613 309.85 282.05 311.578 278.346 313.06C275.63 314.118 272.772 314.859 269.95 315.706C268.221 316.235 266.422 316.623 264.729 317.258C261.06 318.634 257.25 318.881 253.369 318.74C253.087 318.74 252.805 318.74 252.522 318.704C251.288 318.493 250.159 318.846 249.171 319.551C247.725 317.893 245.678 317.611 243.703 317.258C234.178 315.565 224.653 313.977 215.163 312.354C204.756 310.555 194.348 308.721 183.906 307.027C181.225 306.604 178.508 306.216 175.757 306.286C173.675 306.357 171.735 305.722 169.795 305.193C165.738 304.099 161.575 303.429 157.659 301.912C153.672 297.467 147.781 297.044 142.736 294.786C142.489 294.68 142.207 294.609 141.96 294.503C140.69 294.01 139.138 293.763 139.491 291.752C139.914 289.353 140.831 288.224 142.913 288.294C147.111 288.436 151.274 287.695 155.472 287.836C156.601 287.836 157.694 287.765 158.611 286.919C159.317 286.248 160.234 286.213 161.151 286.178C162.598 286.107 164.08 286.354 165.526 285.966C165.773 285.896 165.985 285.825 166.232 285.79C170.077 285.507 173.958 285.684 177.768 286.143C178.156 286.178 178.508 286.213 178.861 286.319C180.555 286.778 182.283 286.531 184.012 286.531C194.066 286.919 204.121 287.413 214.14 288.33C227.051 291.081 240.104 293.233 253.157 295.244C254.322 295.421 255.38 295.103 256.403 294.609C260.495 292.598 264.517 290.482 268.539 288.33C269.562 287.765 270.197 286.848 271.044 286.143C278.134 282.368 285.543 279.193 292.81 275.735C295.597 274.395 298.349 273.019 301.171 271.855C302.23 271.396 303.076 270.726 303.464 269.562C307.274 258.343 320.645 253.298 332.181 258.555C333.275 259.049 334.333 259.578 335.321 260.213C342.024 264.411 344.846 272.878 341.953 280.357C341.389 281.768 340.895 283.25 340.013 284.52C339.342 285.155 338.743 285.896 338.108 286.566C338.778 285.931 339.342 285.19 340.048 284.555C343.435 280.533 345.128 275.735 346.645 270.832C347.068 269.385 346.892 267.904 346.927 266.457C346.963 265.505 346.68 264.482 347.492 263.67V263.529Z" fill="#FFB78A"/>
<path d="M157.765 301.382C160.058 301.982 162.351 302.582 164.644 303.181C167.361 303.887 170.077 304.522 172.758 305.263C173.781 305.545 174.804 305.686 175.863 305.651C179.073 305.58 182.283 306.004 185.458 306.533C189.233 307.168 193.008 307.838 196.818 308.508C203.203 309.602 209.624 310.731 216.009 311.825C223.841 313.165 231.708 314.4 239.54 315.811C242.151 316.27 244.797 316.622 247.337 317.363C248.501 317.716 249.206 318.21 249.136 319.48C248.959 320.327 248.465 320.997 248.007 321.703C244.162 327.629 239.081 332.286 233.014 335.849C227.087 339.342 220.701 341.529 213.928 342.658C208.777 343.54 203.591 343.787 198.441 343.363C191.244 342.764 184.012 342.728 176.815 342.587C170.712 342.482 164.609 342.34 158.541 342.199C153.567 342.058 148.592 342.552 143.618 342.799C141.502 342.905 139.42 342.728 137.339 342.658C134.481 342.552 131.588 342.411 128.731 342.164C127.002 342.023 125.273 341.705 123.545 341.388C121.428 341 119.276 340.541 117.195 340.047C113.843 339.271 110.633 338.036 107.493 336.625C104.459 335.285 101.743 333.415 99.5203 330.91C95.5691 326.465 94.1933 321.35 95.2869 315.494C95.7808 312.812 96.4511 310.202 97.4742 307.627C98.9206 303.958 101.355 301.206 104.53 298.983C104.812 298.772 105.165 298.631 105.377 298.384C105.518 298.207 105.518 297.89 105.588 297.607C108.693 296.337 111.868 295.385 115.219 294.82C120.335 293.974 125.485 293.445 130.601 292.563C131.694 292.351 132.823 292.139 133.952 292.316C134.94 293.409 133.776 294.115 133.317 294.785C131.482 297.572 130.248 300.5 130.107 303.958C129.824 309.496 134.658 312.742 139.702 312.036C145.135 311.295 149.439 308.332 153.39 304.769C153.92 304.31 154.378 303.781 154.872 303.287C155.93 302.758 156.107 300.959 157.765 301.382Z" fill="#686D65"/>
<path d="M340.33 296.338C340.436 296.233 340.577 296.162 340.612 296.056C342.447 291.576 345.057 287.484 347.28 283.215C347.386 283.038 347.492 282.827 347.597 282.686C348.056 282.086 348.444 281.204 349.256 281.239C350.384 281.275 351.478 281.768 352.043 282.827C353.101 284.802 354.053 286.813 355.077 288.824C355.359 289.389 355.641 289.953 355.923 290.518C356.488 291.611 357.334 292.14 358.604 292.176C361.956 292.281 365.307 292.458 368.659 292.634C368.8 292.634 368.941 292.634 369.082 292.634C371.869 292.775 371.904 292.811 372.857 295.351C374.409 299.478 375.997 303.606 377.478 307.733C377.796 308.651 378.29 309.109 379.136 309.391C384.075 311.014 388.979 312.637 393.883 314.26C394.694 314.507 395.506 314.718 396.141 315.318C396.07 316.094 395.929 316.835 395.894 317.611C395.647 322.762 393.777 327.278 390.249 331.052C386.474 335.109 381.959 338.108 376.914 340.331C374.727 341.283 372.363 341.601 369.964 341.742C363.614 342.059 357.405 341.318 351.443 339.061C350.984 338.884 350.526 338.778 350.032 338.919C348.797 337.367 347.351 336.097 345.657 335.109C343.611 333.945 342.517 331.97 341.424 329.994C339.766 326.995 338.355 323.856 338.002 320.363C337.896 319.41 337.578 318.458 336.344 317.788C336.132 322.056 336.873 325.972 338.46 329.712C340.401 334.263 343.435 337.932 347.597 340.648C346.504 341.495 345.199 341.742 343.858 341.812C340.189 342.059 336.626 341.565 333.063 340.613C327.383 339.096 321.809 337.261 316.2 335.497C312.213 334.263 308.65 332.181 305.546 329.359C304.664 328.548 303.888 327.63 303.288 326.607C301.524 323.573 302.053 320.575 304.77 318.352C306.639 316.8 308.827 315.883 311.19 315.353C319.128 313.625 327.065 311.931 335.003 310.238C335.779 310.062 336.273 309.815 336.414 308.968C337.049 304.982 338.496 301.277 339.942 297.573C340.083 297.185 340.189 296.797 340.33 296.374V296.338Z" fill="#814414"/>
<path d="M339.413 284.485C340.542 282.227 341.741 280.004 342.2 277.5C342.588 275.277 342.659 273.054 342.13 270.832C341.812 269.386 341.389 268.01 340.895 266.599C340.154 264.588 338.743 263.177 337.12 261.942C334.192 259.719 330.911 258.132 327.277 257.391C320.892 256.086 315.071 257.285 309.85 261.307C307.098 263.424 305.193 266.14 304.099 269.386C303.676 270.691 303.006 271.502 301.736 272.067C294.292 275.489 286.884 279.017 279.475 282.509C276.759 283.779 274.007 285.049 271.291 286.319C269.915 286.143 269.597 284.837 268.821 284.026C266.069 277.429 263.988 270.585 261.413 263.917C260.143 260.637 259.014 257.32 257.779 254.039C257.497 253.263 257.003 252.522 257.462 251.641C257.744 251.464 258.026 251.252 258.343 251.076C263.988 248.007 269.774 245.185 275.63 242.503C275.771 242.433 275.877 242.398 276.018 242.327C280.957 239.681 286.213 237.741 291.54 236.012C293.551 235.377 295.527 234.742 297.538 234.142C298.279 233.931 299.055 233.896 299.831 233.79C305.44 233.049 310.838 233.754 316.094 235.836C321.492 237.953 326.36 240.916 331.087 244.232C333.204 245.714 335.462 247.019 337.402 248.748C338.708 249.912 340.119 250.97 341.353 252.205C344.07 254.921 346.151 258.026 346.963 261.871C347.069 262.4 347.28 262.93 347.457 263.459C347.457 264.87 347.457 266.246 347.527 267.657C347.598 269.28 347.28 270.867 346.68 272.349C345.763 274.536 345.305 276.9 344.176 279.017C343.329 280.569 342.412 282.015 341.424 283.462C341.036 284.026 340.542 284.555 339.942 284.943C339.519 285.014 339.343 284.837 339.413 284.414V284.485Z" fill="#8989DE"/>
<path d="M134.269 292.563C132.576 292.845 130.847 293.092 129.154 293.375C127.637 293.622 126.155 293.868 124.638 294.115C124.568 294.115 124.497 294.151 124.427 294.115C122.098 293.974 119.876 294.68 117.618 295.033C115.643 295.315 113.596 295.491 111.656 295.95C110.104 296.303 108.622 296.973 107.176 297.643C106.576 297.89 106.117 297.82 105.588 297.573C101.849 291.399 101.461 285.049 104.636 278.558C106.682 274.43 109.786 271.29 114.02 269.279C117.265 267.762 120.687 266.704 124.215 266.14C131.412 265.011 138.609 265.081 145.735 266.457C149.863 267.269 153.884 268.503 157.941 269.526C160.129 270.091 162.28 270.585 164.468 271.114C164.715 271.255 165.032 271.255 165.279 271.361C165.42 271.396 165.526 271.431 165.667 271.467C166.126 271.925 166.055 272.49 165.914 273.054C165.138 276.512 165.491 279.969 166.02 283.391C166.161 284.343 166.443 285.331 165.667 286.143C162.527 286.531 159.352 287.024 156.707 284.555C153.567 282.685 150.321 283.214 147.04 284.096C146.299 284.273 145.629 284.626 144.924 284.908C143.759 285.366 142.489 285.437 141.255 285.507C139.385 285.578 138.115 286.46 137.586 288.294C137.233 289.423 136.739 290.482 135.963 291.399C135.469 291.963 135.116 292.669 134.164 292.528L134.269 292.563Z" fill="#484944"/>
<path d="M257.497 251.676C259.649 257.568 261.836 263.459 263.988 269.351C265.54 273.619 267.092 277.853 268.645 282.121C268.892 282.756 269.068 283.462 269.244 284.097C269.315 284.767 268.786 284.908 268.362 285.085C264.447 286.778 260.707 288.824 256.897 290.729C255.38 291.505 253.898 291.682 252.24 291.4C242.786 289.883 233.331 288.542 223.876 286.99C222.148 286.708 220.56 286.708 219.184 287.978C218.373 288.26 217.809 287.836 217.315 287.307C215.163 284.979 212.693 283.074 209.977 281.451C212.164 280.992 213.752 279.44 215.48 278.205C219.749 275.172 223.982 272.067 228.216 268.998C230.015 267.693 231.885 266.423 233.649 265.082C235.377 263.777 237.247 262.718 239.152 261.625C242.292 259.825 245.396 257.92 248.571 256.156C251.323 254.604 254.11 253.193 256.897 251.711C257.073 251.606 257.285 251.606 257.497 251.57V251.676Z" fill="#FFB78A"/>
<path d="M165.738 286.179C165.985 284.697 165.42 283.286 165.209 281.84C164.715 278.347 164.75 274.89 165.738 271.503C165.949 271.08 166.161 270.621 166.408 270.198C168.631 266.176 173.217 264.941 177.309 267.693C179.637 269.245 181.225 271.433 182.671 273.761C183.059 274.396 183.483 275.066 183.871 275.701C185.776 277.959 186.658 280.675 187.328 283.498C187.328 285.05 186.411 285.72 185.035 285.897C184.153 286.002 183.271 286.108 182.389 286.32C180.943 286.461 179.496 286.567 178.05 286.602C176.921 286.602 175.827 286.708 174.734 286.355C174.169 286.179 173.499 286.214 172.864 286.214C170.5 286.214 168.137 286.214 165.738 286.214V286.179Z" fill="#E6A37B"/>
<path d="M182.178 285.824C183.059 285.613 183.906 285.366 184.788 285.366C185.141 285.366 185.458 285.295 185.811 285.225C186.517 285.084 186.87 284.66 186.799 283.919C186.799 283.708 186.799 283.496 186.834 283.32C187.54 283.426 187.857 284.237 188.845 284.061C195.16 283.002 201.51 282.261 207.825 281.238C208.566 281.238 209.201 281.873 209.977 281.556C210.859 281.52 211.564 281.803 212.27 282.332C213.893 283.567 215.48 284.766 216.891 286.248C217.456 286.848 218.126 287.377 218.726 287.941C219.537 288.611 219.29 288.964 218.373 288.964C217.103 288.964 215.798 289.176 214.528 288.823C211.459 288.647 208.389 288.506 205.355 288.223C202.216 287.941 199.111 287.941 195.971 287.624C192.02 287.236 188.034 287.2 184.083 287.024C184.012 287.024 183.941 287.024 183.871 287.024C182.777 286.601 181.613 287.024 180.519 286.777C180.378 285.295 181.825 286.495 182.142 285.824H182.178Z" fill="#696D65"/>
<path d="M207.825 281.205C207.895 281.522 208.142 281.945 207.578 281.981C204.685 282.228 201.792 282.722 198.935 283.18C196.536 283.568 194.102 283.745 191.703 284.133C190.327 284.344 188.951 284.591 187.469 284.627C186.975 284.38 187.399 283.568 186.834 283.251C186.234 281.24 185.458 279.335 184.576 277.43C184.329 276.865 184.118 276.266 183.871 275.701C186.587 276.266 189.304 276.83 192.02 277.465C196.889 278.559 201.757 279.688 206.661 280.817C207.049 280.922 207.437 281.063 207.86 281.205H207.825Z" fill="#484944"/>
<path d="M347.598 340.577C346.327 340.506 345.41 339.73 344.528 338.954C340.754 335.638 338.319 331.475 336.838 326.712C336.591 325.936 336.414 325.089 336.273 324.278C335.885 321.95 335.532 319.586 335.744 317.222C335.744 317.011 335.815 316.764 336.061 316.729C336.238 316.729 336.485 316.729 336.626 316.834C337.79 317.646 338.566 318.775 338.566 320.115C338.566 322.161 339.307 323.961 340.013 325.76C340.965 328.3 342.376 330.663 343.964 332.886C344.317 333.38 344.811 333.803 345.34 334.156C346.292 334.756 347.245 335.32 348.127 335.991C349.079 336.696 350.067 337.437 350.032 338.813C349.82 338.883 349.714 339.06 349.608 339.236C348.938 339.659 348.233 340.118 347.562 340.541L347.598 340.577Z" fill="#623307"/>
<path d="M165.35 271.397C165.032 271.503 164.75 271.397 164.538 271.15C164.856 271.044 165.138 271.115 165.35 271.397Z" fill="#E6A37B"/>
<path d="M349.644 339.271C349.679 339.024 349.82 338.883 350.067 338.848C350.067 339.13 349.926 339.271 349.644 339.271Z" fill="#884000"/>
<path d="M214.563 288.789C215.833 288.789 217.138 288.789 218.408 288.789C219.079 288.789 218.867 288.296 218.761 287.907C219.855 285.932 221.654 286.002 223.488 286.355C224.088 286.461 224.723 286.567 225.323 286.673C227.581 287.026 229.839 287.414 232.096 287.802C233.19 287.978 234.284 288.049 235.412 288.26C238.058 288.754 240.74 289.142 243.421 289.53C246.913 290.024 250.441 290.483 253.898 291.188C254.357 291.259 254.71 291.188 255.098 290.977C256.086 290.483 257.109 289.989 258.096 289.495C259.402 288.825 260.707 288.19 262.048 287.519C263.247 286.92 264.447 286.391 265.611 285.72C266.74 285.05 268.045 284.768 269.209 284.168C269.738 284.485 270.162 284.909 270.514 285.438C270.726 285.791 271.044 286.038 271.291 286.355C270.514 287.766 269.244 288.507 267.869 289.283C264.129 291.329 260.284 293.199 256.509 295.14C255.204 295.81 253.969 296.127 252.487 295.669C251.394 295.316 250.159 295.351 248.995 295.14C245.784 294.54 242.574 294.011 239.328 293.481C236.436 293.023 233.543 292.599 230.685 292.141C227.616 291.612 224.547 291.047 221.442 290.518C220.807 290.412 220.172 290.271 219.714 289.883C219.008 289.248 218.197 289.213 217.35 289.248C216.715 289.248 216.08 289.248 215.445 289.248C215.092 289.248 214.739 289.142 214.492 288.86L214.563 288.789Z" fill="#E6A37B"/>
<path d="M156.954 284.096C157.871 284.554 158.894 284.872 159.423 285.895C159.635 286.318 160.129 286.283 160.552 286.283C162.281 286.283 164.044 286.213 165.773 286.177C165.456 286.671 164.962 286.636 164.468 286.636C163.127 286.636 161.822 286.636 160.481 286.636C159.846 286.636 159.247 286.706 158.859 287.341C158.365 288.153 157.589 288.329 156.671 288.294C155.401 288.259 154.167 288.294 152.897 288.294C151.838 288.294 150.815 288.259 149.792 288.611C149.228 288.788 148.557 288.717 147.922 288.717C145.982 288.717 144.006 288.717 142.066 288.717C141.431 288.717 141.008 289 140.761 289.564C140.69 289.74 140.62 289.952 140.549 290.164C139.597 293.233 139.209 292.81 142.313 293.868C146.264 295.208 150.18 296.655 154.131 298.066C155.013 298.384 155.789 298.877 156.248 299.689C156.636 300.359 157.236 300.818 157.8 301.347C157.377 301.417 157.095 301.559 156.848 301.947C156.46 302.582 155.93 303.076 155.26 303.393C152.755 303.393 150.568 302.229 148.275 301.417C144.994 300.253 141.678 299.16 138.397 298.031C134.517 296.69 134.023 295.667 135.504 291.857C135.575 291.645 135.61 291.469 135.575 291.257C136.316 290.34 136.845 289.317 137.127 288.153C137.198 287.835 137.339 287.483 137.48 287.2C138.08 285.93 138.962 285.084 140.479 285.048C140.831 285.048 141.184 284.978 141.502 285.013C142.631 285.048 143.689 284.907 144.747 284.519C148.804 284.272 152.897 284.202 156.954 284.061V284.096Z" fill="#E6A37B"/>
<path d="M180.519 286.601C181.26 286.601 182.001 286.672 182.742 286.707C183.165 286.707 183.553 286.743 183.871 287.025C182.566 287.025 181.225 287.025 179.92 287.025C179.496 287.025 179.073 286.989 178.791 286.637C179.355 286.249 179.92 286.319 180.519 286.566V286.601Z" fill="#E6A37B"/>
<path d="M339.413 284.484C339.589 284.661 339.766 284.837 339.942 285.014C339.378 285.754 338.849 286.531 337.79 286.636C338.143 285.825 338.602 285.014 339.378 284.484H339.413Z" fill="#B59BBE"/>
<path d="M180.519 286.6C179.955 286.6 179.355 286.671 178.791 286.671C178.544 286.671 178.262 286.636 178.015 286.6C179.355 286.036 180.696 285.718 182.142 285.789C181.931 286.071 181.648 286.177 181.331 286.212C181.013 286.212 180.696 286.283 180.484 286.6H180.519Z" fill="#80776A"/>
<path d="M337.79 286.637C337.79 286.707 337.72 286.813 337.72 286.813C337.579 286.813 337.614 286.743 337.826 286.672L337.79 286.637Z" fill="#B59BBE"/>
<path d="M135.575 291.293C135.857 291.54 135.927 291.857 135.822 292.245C135.645 292.916 135.434 293.586 135.257 294.256C135.01 295.279 135.398 296.232 136.351 296.726C136.774 296.937 137.268 297.079 137.727 297.255C140.09 298.066 142.489 298.843 144.853 299.654C148.134 300.783 151.45 301.912 154.731 303.076C154.907 303.146 155.084 303.323 155.225 303.429C151.062 308.262 146.052 311.578 139.667 312.566C136.633 313.024 132.505 312.001 130.6 308.579C130.001 307.521 129.648 306.427 129.542 305.228C129.26 301.806 130.283 298.737 132.047 295.844C132.752 294.715 133.529 293.657 134.269 292.528C134.693 292.104 135.151 291.681 135.575 291.293Z" fill="#FFB68A"/>
<path d="M156.953 284.096C156.848 284.202 156.777 284.343 156.671 284.378C155.507 284.59 154.343 284.907 153.214 284.942C150.78 285.013 148.345 284.942 145.876 284.942C145.453 284.942 145.029 284.907 144.747 284.519C147.464 283.037 150.392 282.544 153.461 282.826C154.731 282.932 155.93 283.249 156.953 284.096Z" fill="#FCB489"/>
</svg>
