<?xml version="1.0" encoding="UTF-8"?>
<svg xmlns="http://www.w3.org/2000/svg" version="1.1" viewBox="0 0 1417.3 1417.3">
  <defs>
    <style>
      .cls-1 {
        fill: #a98170;
      }

      .cls-2 {
        fill: #884100;
      }

      .cls-3 {
        fill: #e6a47c;
      }

      .cls-4 {
        fill: #8a89de;
      }

      .cls-5 {
        fill: #bfa3b0;
      }

      .cls-6 {
        fill: #696d65;
      }

      .cls-7 {
        fill: #ffb68b;
      }

      .cls-8 {
        fill: #5d3818;
      }

      .cls-9 {
        fill: #494a45;
      }

      .cls-10 {
        fill: #ffb68a;
      }
    </style>
  </defs>
  <!-- Generator: Adobe Illustrator 28.7.1, SVG Export Plug-In . SVG Version: 1.2.0 Build 142)  -->
  <g>
    <g id="_레이어_1" data-name="레이어_1">
      <g>
        <path class="cls-6" d="M738.4,939c-.9-.1-1.8-.3-2.8-.4-.5-.7-1.2-.8-2-.5-.9-.1-1.8-.3-2.8-.4-.5-.7-1.2-.7-2-.5-.9-.1-1.8-.3-2.8-.4-.3-.4-.7-.6-1.1-.4-.6-.1-1.2-.3-1.8-.4-.5-.7-1.2-.8-2-.6-1.2-.2-2.4-.4-3.7-.6-.3-.4-.7-.5-1.1-.4-10.1-2.4-20.2-4.6-30.3-7.2-7.5-1.9-14.5-4.9-21.2-8.6-3.4-1.8-6.7-3.6-10-5.7-8.2-5.2-14.8-12.1-20.1-20.2-.8-1.6-1.7-3.1-2.4-4.7-2.8-6-4.7-12.2-5.2-18.8-.6-7.7.5-15.2,3.1-22.6,1-2.9,2-5.7,3-8.6,3.1-5,6.4-10,10.4-14.4,1.1-.9,2.2-1.9,3.2-2.8,3.1-2.8,6.2-5.5,9.7-7.7,4.9-3,9.9-5.8,14.9-8.6,10.2-5.7,21.1-9.7,32.4-12.8,8.4-2.3,16.9-4.4,25.6-5.5,2.2-.3,4.4-.5,6.4-1.7,1.9,0,3.8-.1,5.7-.2,1,0,1.9,0,2.7-.8,1.8,0,3.5,0,5.3,0,5.1-.3,10.2-.7,15.3-.8,7-.1,14.1,0,21.1,0,1.1,0,2.2,0,3.4.1,7.6.9,15.2,1.5,22.9,1.8,3.7.2,7.4.4,10.9,1.2,8.4,1.9,17,3,25.5,4.2,10.4,1.5,20.7,3.5,31,5.8,6.4,1.4,12.7,2.9,19.1,4.4,2,1.4,3.9.6,5.8-.1-.1.6-.2,1.3-.3,1.9-.9,3.1-.9,3.1,1.4,4.7,8.2,5.8,16.3,11.6,24.5,17.4,1,.7,2.1,1.5,3.2,2.1,1.5.9,3,.7,3.9-.3.9-1,1-2.6,0-4-1.1-1.6-2.3-3-3.5-4.6-5.1-6.7-10.3-13.3-15.4-20-.5-.6-1-1.2-1.6-1.8-1.9-1.8-3.5-1.9-5.5-.3-.6.5-1.2,1.1-1.7,1.7-.8.8-1.9,1.1-3.1,1.1,0-.3-.1-.6-.1-.9,1.6-1.6,3.2-3.1,4.8-4.7,1.1-1.2,2.4-2,4.1-2.3,1.9-.3,3.7-.9,5.2-2.2,6.9-6,13.8-11.9,20.7-17.8,5.5-4.7,10.9-9.4,16.3-14.1,7.8-6.6,15.6-13.3,23.3-19.9,6.7-5.7,13.4-11.4,20-17.2,1.3-1.1,2.6-1.8,4.3-2,.9.2,1.8.6,2.5,1.3,6.9,7.1,14,13.9,20.2,21.7,12.2,15.6,21.2,32.8,26.8,51.8-.5,1-.1,1.8.7,2.5.5,1.8,1,3.7,1.5,5.5-.9.9-.2,1.5.4,2.2.2.9.4,1.7.6,2.6-.9.9-.3,1.5.3,2.2.2.9.4,1.8.5,2.6-1,1.2-.5,2.2.4,3.1.2,1.5.4,3,.6,4.5-.9,1-.7,2,.2,2.8.9,7.7.8,15.4,0,23.1-.8.6-.9,1.2-.1,1.9-.3,1.9-.5,3.9-.8,5.8-.8.5-1,1.1-.2,1.9-1.6,9-4.2,17.7-7.9,26-2.2,5.1-5,10-7.9,14.7-3.5,5.7-8,10.2-13.3,14.2-11.7,8.8-24.7,15.1-38.5,19.9-4.5,1.6-9.1,3-13.7,4-.5-.2-.8,0-1.1.4-.9.2-1.8.4-2.7.6-.8-.2-1.5-.1-2,.6-.9.1-1.8.3-2.7.4-.8-.2-1.5-.1-2,.5-.9.1-1.9.3-2.8.4-.8-.2-1.4-.2-2,.4-.6,0-1.2.2-1.9.3-2-.6-3.9-.1-5.8.7-.9,0-1.9.2-2.8.2-.9-.8-1.9-.9-2.8,0-.6,0-1.3-.1-1.9-.2-3.2-1.2-6.4-.7-9.7-.5-.6,0-1.3,0-1.9,0-.9-.9-1.8-1-2.8-.1-1,0-1.9-.1-2.9-.2-2.2-1-4.4-1.1-6.7-.7-.9-.1-1.9-.2-2.8-.3-1.5-.7-3.1-1.4-4.8-.7-.6,0-1.2-.2-1.9-.3-.6-.6-1.3-.7-2.1-.4-1.2-.2-2.5-.3-3.7-.5-.6-.6-1.3-.7-2-.5-.9-.1-1.8-.3-2.8-.4-.6-.7-1.2-.8-2-.5-.9-.2-1.8-.3-2.8-.5-.5-.7-1.2-.8-2-.5-.6-.1-1.2-.2-1.8-.3-.5-.7-1.3-.8-2.1-.6-17.2-3.9-33.7-9.6-49.8-16.9-4.7-2.1-9.2-4.4-13.8-6.6-1.7-.8-2-.8-3.3.7-1,1.2-2,2.5-3,3.7-7.9,9.4-15.7,18.9-23.7,28.3-2.6,3-4.8,6.4-8.1,8.7-2.2,1.4-4.6,1.3-6.9.9-4.1-.7-8.2-1-12.2-2.3-.3-.4-.7-.5-1.1-.3-1.6-.1-3.1-.3-4.7-.4-.6-.6-1.3-.7-2.1-.5-1.2-.2-2.4-.4-3.7-.6-.6-.6-1.3-.7-2-.5-.9-.1-1.9-.3-2.8-.4-1.8-1.2-3.8-1.7-5.9-1.4-.9-.2-1.8-.4-2.7-.5-.6-.6-1.3-.7-2-.5-1.2-.2-2.5-.3-3.7-.5-.6-.6-1.3-.7-2-.5Z"/>
        <path class="cls-4" d="M736,784.5c-2,1.2-4.2,1.4-6.4,1.7-8.7,1.1-17.2,3.2-25.6,5.5-11.2,3.1-22.2,7.1-32.4,12.8-5,2.8-10,5.6-14.9,8.6-3.5,2.2-6.7,4.9-9.7,7.7-1.1,1-2.2,1.9-3.2,2.8-2.3-2.3-5.3-3.4-7.9-5.2-3.7-2.5-7.5-4.7-11.3-7.1-3.4-3.4-7.7-5.7-11.8-8-4.8-2.7-8.9-6.1-13-9.7-7-6.3-13.7-12.9-18.9-20.9-1.8-2.8-3.5-5.6-5.3-8.5-.2-1.6-1.1-3-1.9-4.4-6.5-12.5-9.8-25.9-9.8-40,0-1.6,0-3.2,0-4.8,0-3.9.6-7.7,1.6-11.3,1.8-6.5,3.9-12.8,7.2-18.7,1.3-2.4,2.6-4.7,4.1-7.1,2.8-4.5,5.1-9.2,8.4-13.3,2.6-3.2,5-6.6,7.5-9.9,0,0,0,0,0,0,.4-.3.7-.7,1.1-1,.7-.6,1.5-1.2,2.2-1.9,5.2-5.7,11.4-10.2,17.9-14.3,2.7-1.7,5.5-3.2,8.4-4.6,4.3-2.1,8.7-4,13-6.1,6.5-3.1,13.4-4,20.4-4.6,15.6-1.5,31.3-1.2,46.9-1.2,2.7,0,5.4,0,8.1.1,9.1.3,18.1,1.1,27.1,2.7,4.6.8,9.1,1.4,13.7,2.2,2.5.4,4.9,1.3,7.4,1.8,9.8,2,19.7,3.7,29.6,5.8,11.7,2.5,23.3,5.2,35,8,3.2.8,6.3,2.1,9.5,3.1,2.7.8,5.5,1.6,8.3,2.3,4.8,1.3,9.5,2.6,14.3,3.9,1.4.4,2.7,1,4,1.5-.3.9-.7,1.8-.8,2.7-1.2,6.1-2.5,12.1-3.3,18.3-1,7.9-2.4,15.7-3.7,23.6-1.2,7.1-2.4,14.1-3.5,21.2-.8,5.3-1.5,10.7-2.3,16.1-1.2.7-2.2,1.7-2.7,2.9-.8-.1-1.6-.2-2.4-.4-9-2.3-18-4.4-26.8-7.1-7-2.1-14.2-3.5-21.4-5.1-13.8-3.2-27.7-6.3-41.5-9.5-8.9-2-17.7-4-26.6-5.9-4.2-.9-8.4-1.9-12.6-2.9-2.1-.5-3.7-1.5-4.3-3.9-.9-4.3-3.1-8-5.3-11.7-3.9-6.7-9.1-12-15.9-15.6-10.7-5.7-22.1-7-33.9-4.7-8.4,1.6-16.3,4.4-23.6,8.9-7.4,4.5-14.2,9.8-19.6,16.6-3.7,4.6-6.7,9.7-10,14.6-3.4,5.3-5.9,10.9-7.6,17-1,3.5-2.3,7.1-2.6,10.7-.9,9.7,1.7,18.7,7.1,26.8,4,6,9.7,10.2,15.9,13.5,8.6,4.6,18.2,5.9,27.7,6.6,7.5.6,15-.5,22.3-2.4,3.4-.9,6.8-1.3,10.4-1.3,4.2,0,8.3.6,12.4.7,4.8.2,9.6.1,14.4.2.6.9,1.3.9,1.9,0,11.2-.3,22.4,1,33.6.9.4.4.9.7,1.3,1.1Z"/>
        <path class="cls-10" d="M592.6,654.7c-2.5,3.3-4.9,6.7-7.5,9.9-3.3,4.1-5.7,8.9-8.4,13.3-1.4,2.3-2.7,4.7-4.1,7.1-3.3,5.9-5.5,12.3-7.2,18.7-1,3.7-1.7,7.4-1.6,11.3,0,1.6,0,3.2,0,4.8,0,14.1,3.3,27.5,9.8,40,.7,1.4,1.6,2.8,1.9,4.4-8.5,4.3-17.3,8.2-26.1,11.8-5,2-8.6,5.4-11.6,9.6-5.9,8.3-11.6,16.8-17.2,25.3-3,4.5-6.5,8.7-10.4,12.5-4.8,4.7-10.6,6.9-17.2,7.1-4.4.1-8.5-.8-12.4-2.8-4.5-2.4-9.1-4.6-13.7-6.8-2.9-1.4-6-2.1-9.3-1.9-2.5.1-4.7.7-6.7,2.1-2.1,1.4-4.2,2.9-6.3,4.4-1.6,1.1-3.1,2.3-4.8,3.2-3.3,1.8-6.5,1.2-9.2-1.4-1.2-1.1-2-2.5-2.7-3.9-2.3-4.4-3.7-9.2-5-13.9-1.2-4.3-2.1-8.7-3.6-12.9-2.5-6.9-6-13-11.4-18-2.9-2.6-6.1-4.7-9.5-6.3-3.8-1.8-7.2-4-10.3-6.9,0-.4,0-.8.1-1.3,2.4-1.9,5-3.3,7.8-4.4,3.1-1.2,6.2-2.3,9.3-3.4,2,0,4-.3,5.2-2.2,2.1-.6,4.2-1.3,6.2-1.9,3.1,0,5.8-.8,8.2-2.7,2.4-.7,4.8-1.4,7.1-2,1.2.6,1.9,0,2.4-1,1.2-.7,2.6-1.2,3.7-2.1,11.5-9.8,12-9.6,18.1-23.4.3-.6.4-1.2.7-1.8,1.7-3.6,3.5-7.2,5.3-10.7,1.8-3.5,4.6-6.1,8.3-7.6,2.2-1,4.5-1.4,7-1.5,1,.9,2,.8,2.8-.2,3.2,0,6.4,0,9.6,0,.9,1.1,1.8,1.2,2.8.2,3.2.2,6.4.5,9.6.7,2.7,1.4,5.4,1.8,7.8-.6,4.9-2.6,9.8-5.3,14.7-7.9,2.8-1.5,5.5-3.2,8.2-4.8,4.7-2.2,9.2-4.6,13.5-7.5.7-.3,1.5-.5,2.2-.9,5.3-2.9,10.6-5.8,16-8.7,4.5-2.5,8.9-4.9,13.4-7.4.9-.5,1.6-1,1.8-2.1,2.9-.1,5.1-1.8,7.4-3.2,1.7-.9,3.2-2.2,5.3-2Z"/>
        <path class="cls-2" d="M533.1,686.5c-2.7,1.6-5.4,3.2-8.2,4.8-4.9,2.7-9.8,5.3-14.7,7.9-1.9,0-3.7,0-5.6,0-.8,0-1.5.1-2.2.7-3.2-.2-6.4-.5-9.6-.7-.9-1.1-1.8-1.2-2.8-.2-3.2,0-6.4,0-9.6,0-1-1-2-.9-2.8.2-2.4,0-4.8.5-7,1.5-3.6,1.6-6.4,4.1-8.3,7.6-1.8,3.5-3.5,7.1-5.3,10.7-.3.6-.5,1.2-.7,1.8-6.1,13.9-6.6,13.6-18.1,23.4-1.1.9-2.5,1.4-3.7,2.1-1.1-.3-1.8.2-2.4,1-2.4.7-4.8,1.4-7.1,2-3,0-5.8.9-8.2,2.7-2.1.6-4.2,1.3-6.2,1.9-2,0-3.9.3-5.2,2.2-3.1,1.1-6.2,2.2-9.3,3.4-2.8,1.1-5.4,2.5-7.8,4.4-1-.1-2-.3-3-.4-.2-.2-.4-.3-.7-.4-.3-.5-.6-1.2-1-1.5-3.4-2.8-5.9-6.5-9.5-9-.1-.2-.3-.4-.4-.6-.2-1.5-1.1-2.6-2.4-3.2-.1-.2-.2-.5-.4-.7-.3-1.7-1-3.2-2.6-4.1,0-.2-.2-.5-.4-.7-.2-.6-.2-1.3-.5-1.8-3.9-7.7-6.8-15.8-8.4-24.4-.1-.6-.5-1.1-.8-1.7-.1-.6-.2-1.1-.3-1.7.5-1.7.5-3.4-.5-5-.5-5.1-.6-10.3,0-15.4,1.1-1.9,1.1-3.9.7-5.9.1-.6.2-1.1.3-1.7,1.2-2.1,1.8-4.4,1.6-6.9.4-1.1.8-2.3,1.3-3.4.9-.5,1.2-1.2,1.1-2.2.8-1.7,1.6-3.4,2.3-5.1.8-1.8,2.2-3.4,2.4-5.5.2-.2.3-.5.4-.7,1.6-.9,2.3-2.3,2.6-4,.2-.2.3-.5.4-.7,1-.4,1.5-1.1,1.5-2.2.4-.6.8-1.2,1.3-1.7,1.4-.6,2.3-1.6,2.5-3.1.8-.9,1.5-1.8,2.3-2.7,3.1-2,5.6-4.5,7.7-7.6,3.4-3.1,6.7-6.2,10.1-9.4,4.4-4.1,9.2-7.8,14.6-10.4.5.2.8,0,1-.6.9-.7,1.9-1.4,2.8-2.2.2,1.1,0,2.3.8,3.2,1.1,1,2.4,1.7,3.8,1.8,1.9.1,3.8,0,5.7-.3,4.5-.8,9-1.7,13.7-1.6,3.4,0,6.7,0,10.1,0,4,0,7.9,0,11.9.9,4.3,1.1,8.7,2,12.7,4,4.9,2.4,9.8,4.4,14.6,7.1,6.3,3.6,11.9,8,17.2,12.8,5.3,4.7,8.9,10.8,13,16.4,5.2,7.1,9.5,14.7,12.7,22.9.5,1.4,1.4,2,2.8,2.1Z"/>
        <path class="cls-10" d="M845.8,734.4c.7-5.4,1.4-10.7,2.3-16.1,1.1-7.1,2.4-14.1,3.5-21.2,1.3-7.8,2.7-15.7,3.7-23.6.8-6.2,2-12.2,3.3-18.3.2-.9.6-1.8.8-2.7,3.7.4,7.1,1.7,10.6,2.8,7.3,2.3,14.5,4.9,21.7,7.3,2.6.9,5.2,1.5,7.8,2.4,8.5,2.9,16.7,6.3,24.9,9.7,10.2,4.1,20.1,9,29.9,14,3,1.5,6,3,9,4.5,10.5,5.3,21,10.7,31.1,16.8,3.7,2.2,7.5,4.2,11,6.7-1.6.2-3,.9-4.3,2-6.6,5.8-13.3,11.5-20,17.2-7.8,6.6-15.6,13.3-23.3,19.9-5.5,4.7-10.9,9.4-16.3,14.1-6.9,5.9-13.8,11.8-20.7,17.8-1.5,1.3-3.3,1.9-5.2,2.2-1.7.3-2.9,1.1-4.1,2.3-1.5,1.6-3.2,3.1-4.8,4.7-.8-.5-1-1.1-.7-2,.8-2.4,2-4.8,2.3-7.3.7-6.9.2-13.6-2.9-20-3.7-7.8-9.4-13.8-16.3-18.9-4.8-3.5-10-6.1-15.5-8.3-8.9-3.7-18.2-5.2-27.7-6Z"/>
        <path class="cls-2" d="M579.9,659.9c-.1,1.1-.9,1.6-1.8,2.1-4.5,2.5-8.9,4.9-13.4,7.4-5.3,2.9-10.6,5.8-16,8.7-.7.4-1.5.6-2.2.9,0-.6,0-1.3-.2-1.9-1.6-3.6-2.7-7.4-5-10.8-2.3-3.4-4-7.2-6.1-10.8-1.3-2.2-2.4-4.6-4-6.5-4.1-5-8.5-9.9-12.8-14.8-1.8-2-3.9-3.8-5.3-6.1-1.2-1.9-3.1-3.4-5.4-3.7-1.7-.2-2.9-1.1-4.3-1.9-3.5-2.2-6.8-4.8-10.5-6.5-8.8-4.2-17.7-7.9-27.4-9.5-3.9-.6-7.8-1.7-11.8-1.4-1.9.1-3.8.1-5.7-.6-.9-.3-2-.5-2.8-.2-3,1-6,.8-9,.8-1.3,0-2.5.3-3.7.7-4.5,1.7-9,1.6-13.6.3-.4-2.3.3-4.3,1.6-6.2,2-3,4-6.1,6.4-8.9,5.4-6.2,12.2-10.5,19.6-14,.5.2.9,0,1.1-.6,1.6-.5,3.1-.9,4.7-1.4.3,0,.7.1,1,.2.5,0,.9-.1,1.1-.6,2.1-.2,4.2-.4,6.4-.6,1.4.5,2.9.7,4.2-.4,1.9,0,3.8,0,5.7,0,1,.9,2.1.9,3.2.4,1.5.2,3,.3,4.5.5.6.7,1.4.9,2.2.5,1.8.5,3.6.9,5.4,1.4.3.4.6.6,1.1.3.9.2,1.8.5,2.7.7.2.5.6.7,1.1.5.6.2,1.2.3,1.8.5.3.4.6.7,1.1.4.6.2,1.2.3,1.8.5.3.4.6.7,1.1.5.6.2,1.1.4,1.7.6.2.5.6.7,1.1.5,1.2.5,2.4.9,3.7,1.4.2.5.6.7,1.1.6,8.6,4,16.3,9.4,23.8,15.1,9.3,7.1,17.5,15.3,24.4,24.8.6.8,1.2,1.5,1.8,2.2,9.7,10.9,18,22.7,25.5,35.2Z"/>
        <path class="cls-10" d="M790.3,946.4c3.3-2.3,5.5-5.7,8.1-8.7,7.9-9.4,15.8-18.8,23.7-28.3,1-1.2,2-2.5,3-3.7,1.2-1.4,1.5-1.5,3.3-.7,4.6,2.2,9.2,4.5,13.8,6.6,16,7.2,32.6,12.9,49.8,16.9,0,.3,0,.5,0,.8-6.4,11.2-16.2,17.1-28.7,19.3-8.1,1.4-16.2.7-24.4.9-4.9.1-9.9,0-14.9-.1-5.7,0-11.4-.9-17.1-1.5-.6,0-1.3-.2-1.9-.2-5,.1-9.9-.6-14.8-1.2Z"/>
        <path class="cls-8" d="M419,605.9c4.6,1.4,9.1,1.4,13.6-.3,1.2-.5,2.4-.7,3.7-.7,3,0,6,.2,9-.8.8-.3,2-.1,2.8.2,1.9.7,3.8.7,5.7.6,4-.2,7.9.8,11.8,1.4,9.7,1.5,18.6,5.3,27.4,9.5,3.7,1.8,7.1,4.3,10.5,6.5,1.3.9,2.6,1.7,4.3,1.9,2.3.3,4.2,1.8,5.4,3.7,1.5,2.4,3.5,4.1,5.3,6.1,4.3,4.9,8.6,9.8,12.8,14.8,1.6,1.9,2.7,4.3,4,6.5,2,3.6,3.8,7.4,6.1,10.8,2.3,3.4,3.4,7.2,5,10.8.2.6.1,1.3.2,1.9-4.3,2.9-8.8,5.4-13.5,7.5-1.4-.1-2.3-.8-2.8-2.1-3.2-8.2-7.6-15.9-12.7-22.9-4.1-5.6-7.8-11.7-13-16.4-5.3-4.8-10.9-9.2-17.2-12.8-4.7-2.7-9.7-4.7-14.6-7.1-4-2-8.4-2.9-12.7-4-3.9-1-7.9-.9-11.9-.9-3.4,0-6.7,0-10.1,0-4.6-.1-9.2.8-13.7,1.6-1.9.3-3.8.4-5.7.3-1.5,0-2.8-.8-3.8-1.8-.9-.9-.7-2.1-.8-3.2.9-4.1,2.6-7.8,5.1-11.3Z"/>
        <path class="cls-7" d="M633.2,838c-1,2.9-2,5.7-3,8.6-2.5,7.3-3.6,14.8-3.1,22.6.5,6.6,2.4,12.8,5.2,18.8.7,1.6,1.6,3.1,2.4,4.7-10.5.4-21,.8-31.5,1.3-1.9,0-3.8,0-5.7.6-.7.2-1.6.2-2.4.2-5.1,0-10.2.2-15.3.1-3.6,0-4.8-.8-5.8-4.5-1.6-6-3-12.1-4.4-18.1-.7-3,.4-5.4,3.1-6.8,2.1-1.2,4.3-2.2,6.4-3.3.5,0,1,0,1.4-.3,8.2-3.9,16.3-7.8,24.4-11.7,1.4-.7,2.7-1.6,4.1-2.3,5.9-2.7,11.8-5.3,17.7-8.1,2.1-1,4.1-1.7,6.4-1.6Z"/>
        <path class="cls-3" d="M633.2,838c-2.3,0-4.3.7-6.4,1.6-5.9,2.8-11.8,5.4-17.7,8.1-1.4.7-2.7,1.6-4.1,2.3-8.1,3.9-16.3,7.8-24.4,11.7-.4.2-.9.2-1.4.3-.4-6.2-.2-12.5,0-18.7,0-2.5.6-5.1,1.2-7.5.6-2.4,1.8-4.4,3.8-5.9.8-.6,1.5-1.2,2.4-1.6,5.7-2.8,11-6.5,17-8.8,5-2,9.7-5,14.8-6.7,2-.6,3.8-1.7,6-1.5,3.8,2.3,7.6,4.6,11.3,7.1,2.6,1.8,5.6,2.9,7.9,5.2-4.1,4.4-7.3,9.4-10.4,14.4Z"/>
        <path class="cls-5" d="M358.1,715.3c.3.6.7,1.1.8,1.7,1.6,8.5,4.5,16.6,8.4,24.4.3.5.3,1.2.5,1.8-.9-.2-1.3-.8-1.7-1.5-4.1-7.8-6.7-16-8.5-24.6-.1-.6,0-1.3.4-1.8Z"/>
        <path class="cls-5" d="M374,752.5c3.6,2.5,6.1,6.2,9.5,9,.5.4.7,1,1,1.5-.8,0-1.6-.2-2.1-.8-2.5-2.5-5.1-5.1-7.6-7.6-.6-.6-.8-1.3-.8-2.1Z"/>
        <path class="cls-5" d="M385.4,639.6c-2,3.1-4.6,5.6-7.7,7.6,1.6-3.5,4.1-6.1,7.7-7.6Z"/>
        <path class="cls-5" d="M366.8,662.4c-.2,2.1-1.6,3.7-2.4,5.5-.7,1.7-1.5,3.4-2.3,5.1-.2,0-.5,0-.7.1.9-4,2.3-7.8,5.4-10.7Z"/>
        <path class="cls-5" d="M359.8,678.6c.2,2.5-.4,4.8-1.6,6.9-.4-2.6,0-4.4,1.6-6.9Z"/>
        <path class="cls-5" d="M357.9,687.2c.5,2.1.4,4.1-.7,5.9-.9-2.1-.8-4.1.7-5.9Z"/>
        <path class="cls-5" d="M937.1,935.2c3.2-.2,6.5-.7,9.7.5-3.3.3-6.5.7-9.7-.5Z"/>
        <path class="cls-5" d="M357.3,708.6c1,1.6,1.1,3.3.5,5-1.4-1.5-1.4-3.2-.5-5Z"/>
        <path class="cls-5" d="M922.7,934c2.3-.4,4.6-.3,6.7.7-2.3.3-4.6.5-6.7-.7Z"/>
        <path class="cls-5" d="M368.2,743.9c1.6.9,2.3,2.4,2.6,4.1-1.8-.7-2.4-2.3-2.6-4.1Z"/>
        <path class="cls-5" d="M748.9,941c2.1-.3,4.1.2,5.9,1.4-2.1.2-4.1,0-5.9-1.4Z"/>
        <path class="cls-5" d="M954.3,935.6c1.9-.8,3.8-1.3,5.8-.7-1.8,1.3-3.8,1.1-5.8.7Z"/>
        <path class="cls-5" d="M369.8,657.6c-.3,1.7-1,3.1-2.6,4,.2-1.8.8-3.3,2.6-4Z"/>
        <path class="cls-5" d="M371.2,748.6c1.3.7,2.2,1.7,2.4,3.2-1.6-.5-2.5-1.5-2.4-3.2Z"/>
        <path class="cls-5" d="M915.1,933c1.7-.7,3.3,0,4.8.7-1.7.4-3.4.4-4.8-.7Z"/>
        <path class="cls-5" d="M375.5,649.9c-.2,1.5-1.1,2.5-2.5,3.1,0-1.7,1-2.6,2.5-3.1Z"/>
        <path class="cls-5" d="M385.2,763.5c1,.1,2,.3,3,.4,0,.4,0,.8-.1,1.3-1.3,0-2.5-.2-2.9-1.7Z"/>
        <path class="cls-5" d="M1059.2,812.5c-.9-.9-1.4-1.9-.4-3.1,1,.9,1,2,.4,3.1Z"/>
        <path class="cls-5" d="M1060,819.9c-.9-.9-1.1-1.8-.2-2.8.9.9,1,1.8.2,2.8Z"/>
        <path class="cls-5" d="M932.3,934.9c1-.9,1.9-.8,2.8.1-1,.8-1.9.7-2.8-.1Z"/>
        <path class="cls-5" d="M948.7,935.8c.9-.9,1.9-.8,2.8,0-.9.9-1.9.9-2.8,0Z"/>
        <path class="cls-1" d="M465,573.5c-1.3,1.1-2.7.9-4.2.4,1.3-.8,2.7-.7,4.2-.4Z"/>
        <path class="cls-5" d="M1055.4,794.2c-.8-.7-1.2-1.5-.7-2.5.8.7,1.2,1.5.7,2.5Z"/>
        <path class="cls-5" d="M1059.9,844.8c-.8-.7-.6-1.3.1-1.9.7.7.6,1.3-.1,1.9Z"/>
        <path class="cls-5" d="M1058.8,852.5c-.8-.7-.5-1.3.2-1.9.7.7.5,1.3-.2,1.9Z"/>
        <path class="cls-5" d="M371.7,654.7c0,1.1-.5,1.8-1.5,2.2-.1-1.2.4-1.9,1.5-2.2Z"/>
        <path class="cls-5" d="M1057.3,801.9c-.7-.6-1.3-1.3-.4-2.2.7.6.9,1.3.4,2.2Z"/>
        <path class="cls-5" d="M1058.3,806.7c-.7-.6-1.2-1.3-.3-2.2.7.6.9,1.3.3,2.2Z"/>
        <path class="cls-1" d="M361.4,673.1c.3,0,.5,0,.7-.1,0,1-.2,1.7-1.1,2.2-.3-.8,0-1.4.3-2.1Z"/>
        <path class="cls-1" d="M473.9,573.8c-1.1.5-2.2.6-3.2-.4,1.1-.3,2.2-.3,3.2.4Z"/>
        <path class="cls-5" d="M733.6,938c.8-.2,1.5-.1,2,.5-.8.3-1.5,0-2-.5Z"/>
        <path class="cls-5" d="M738.4,939c.8-.2,1.5-.1,2,.5-.8.3-1.5.1-2-.5Z"/>
        <path class="cls-1" d="M480.6,574.8c-.9.4-1.6.2-2.2-.5.8-.2,1.6-.2,2.2.5Z"/>
        <path class="cls-5" d="M744.2,940c.8-.2,1.5-.2,2,.5-.8.3-1.5.1-2-.5Z"/>
        <path class="cls-5" d="M757.6,942.8c.8-.2,1.5-.2,2,.5-.8.4-1.5.1-2-.5Z"/>
        <path class="cls-5" d="M763.3,943.9c.8-.3,1.5-.2,2.1.5-.8.3-1.5.2-2.1-.5Z"/>
        <path class="cls-5" d="M892,929.3c0-.3,0-.5,0-.8.8-.2,1.5-.1,2.1.6-.7,0-1.3.2-2,.2Z"/>
        <path class="cls-5" d="M900.6,930.4c.8-.2,1.5-.1,2,.5-.8.3-1.5.1-2-.5Z"/>
        <path class="cls-5" d="M905.4,931.3c.8-.2,1.5-.2,2,.5-.8.3-1.5.1-2-.5Z"/>
        <path class="cls-5" d="M911.1,932.3c.8-.3,1.5-.2,2.1.4-.8.3-1.5.2-2.1-.4Z"/>
        <path class="cls-5" d="M895.8,929.4c.8-.2,1.5-.1,2,.5-.8.3-1.5,0-2-.5Z"/>
        <path class="cls-5" d="M971.6,932.8c.5-.7,1.2-.8,2-.6-.6.6-1.2.9-2,.6Z"/>
        <path class="cls-5" d="M966.8,933.8c.6-.7,1.3-.8,2-.5-.6.6-1.2.8-2,.5Z"/>
        <path class="cls-5" d="M962,934.6c.6-.6,1.3-.6,2-.4-.6.6-1.3.8-2,.4Z"/>
        <path class="cls-5" d="M721.1,935.2c.8-.3,1.5-.1,2,.6-.8.2-1.5,0-2-.6Z"/>
        <path class="cls-5" d="M728.8,937c.8-.2,1.5-.1,2,.5-.8.3-1.5,0-2-.5Z"/>
        <path class="cls-3" d="M453.3,575c-.3,0-.7-.1-1-.2.2-.5.6-.6,1.1-.5,0,.2,0,.5-.1.7Z"/>
        <path class="cls-1" d="M453.3,575c0-.2,0-.5.1-.7.3,0,.7,0,1,0-.2.5-.6.7-1.1.6Z"/>
        <path class="cls-10" d="M593.6,653.8c-.4.3-.7.7-1.1,1,.1-.6.5-.9,1.1-1Z"/>
        <path class="cls-5" d="M411.2,619.3c-.2.5-.5.7-1,.6.2-.5.5-.6,1-.6Z"/>
        <path class="cls-3" d="M504.4,582.6c-.6.2-.9,0-1.1-.6.5-.1.9,0,1.1.6Z"/>
        <path class="cls-5" d="M724.9,936.2c.5-.2.9,0,1.1.4-.5.2-.9,0-1.1-.4Z"/>
        <path class="cls-3" d="M499.6,580.6c-.5.2-.9,0-1.1-.5.5-.2.9,0,1.1.5Z"/>
        <path class="cls-5" d="M491,577.7c-.5.2-.9,0-1.1-.5.5-.2.9,0,1.1.5Z"/>
        <path class="cls-3" d="M496.8,579.5c-.5.2-.9,0-1.1-.5.5-.2.9,0,1.1.5Z"/>
        <path class="cls-5" d="M716.3,934.2c.5-.2.9,0,1.1.4-.5.3-.9,0-1.1-.4Z"/>
        <path class="cls-3" d="M447.7,576.2c-.2.5-.6.7-1.1.6.2-.5.6-.7,1.1-.6Z"/>
        <path class="cls-5" d="M487.1,576.5c-.5.3-.8,0-1.1-.3.5-.2.8-.1,1.1.3Z"/>
        <path class="cls-5" d="M976.3,931.7c.3-.4.7-.5,1.1-.4-.3.4-.6.6-1.1.4Z"/>
        <path class="cls-5" d="M770.1,944.8c.5-.2.8-.1,1.1.3-.5.3-.8.1-1.1-.3Z"/>
        <path class="cls-5" d="M493.8,578.6c-.5.2-.9,0-1.1-.4.5-.2.9,0,1.1.4Z"/>
        <path class="cls-10" d="M734.6,783.4c-11.2,0-22.4-1.3-33.6-.9-.6-.9-1.3-.9-1.9,0-4.8,0-9.6,0-14.4-.2-4.1-.1-8.3-.7-12.4-.7-3.6,0-7,.4-10.4,1.3-7.3,1.9-14.8,3-22.3,2.4-9.6-.7-19.1-2.1-27.7-6.6-6.2-3.3-11.9-7.5-15.9-13.5-5.4-8.1-8-17.1-7.1-26.8.3-3.6,1.6-7.1,2.6-10.7,1.7-6,4.2-11.7,7.6-17,3.2-4.9,6.3-10,10-14.6,5.5-6.8,12.3-12.1,19.6-16.6,7.3-4.5,15.2-7.3,23.6-8.9,11.8-2.2,23.2-.9,33.9,4.7,6.8,3.6,12,8.9,15.9,15.6,2.2,3.7,4.4,7.5,5.3,11.7.5,2.4,2.1,3.4,4.3,3.9,4.2,1,8.4,1.9,12.6,2.9,8.9,2,17.8,3.9,26.6,5.9,13.8,3.1,27.7,6.3,41.5,9.5,7.1,1.6,14.4,3,21.4,5.1,8.9,2.7,17.9,4.8,26.8,7.1.8.2,1.6.3,2.4.4.3,2.4,1.8,3.8,4.2,3.8,2.6,0,5,.6,7.6.9,5.4.8,10.5,2.2,15.7,4.1,4.1,1.5,7.8,3.7,11.4,5.9,3.2,2,6.4,4.3,9.1,6.9,2.8,2.8,5.1,6.1,7.1,9.6,2.5,4.4,3.6,9.1,3.7,14.2,0,4.3-1.2,8.2-3,12-.9,2-.9,3.6,0,5.4-6.4-1.5-12.7-3-19.1-4.4-10.3-2.3-20.6-4.3-31-5.8-8.5-1.2-17.1-2.3-25.5-4.2-3.5-.8-7.3-1-10.9-1.2-7.7-.3-15.3-1-22.9-1.8-1.1-.1-2.2-.1-3.4-.1-7,0-14.1-.1-21.1,0-5.1.1-10.2.5-15.3.8-1.8,0-3.5,0-5.3,0-3-.2-6-.5-9-.6-.2,0-.5.3-.8.5Z"/>
        <path class="cls-3" d="M898.8,800.1c-.9-1.8-1-3.5,0-5.4,1.7-3.7,3-7.6,3-12,0-5.1-1.1-9.8-3.7-14.2-2-3.5-4.2-6.8-7.1-9.6-2.7-2.6-5.9-4.9-9.1-6.9-3.6-2.3-7.3-4.4-11.4-5.9-5.1-1.8-10.3-3.3-15.7-4.1-2.5-.4-5-1-7.6-.9-2.4,0-3.8-1.3-4.2-3.8.6-1.3,1.5-2.2,2.7-2.9,9.5.9,18.8,2.4,27.7,6,5.5,2.3,10.7,4.8,15.5,8.3,6.9,5,12.6,11.1,16.3,18.9,3,6.4,3.5,13.2,2.9,20-.2,2.5-1.4,4.9-2.3,7.3-.3.9,0,1.5.7,2,0,.3,0,.6.1.9-1,.4-1.7,1.1-2.1,2.1-1.9.7-3.9,1.5-5.8.1Z"/>
        <path class="cls-9" d="M904.6,800c.4-1,1.1-1.7,2.1-2.1,1.1,0,2.2-.3,3.1-1.1.6-.6,1.1-1.1,1.7-1.7,2-1.6,3.6-1.6,5.5.3.6.5,1.1,1.2,1.6,1.8,5.1,6.7,10.3,13.3,15.4,20,1.2,1.5,2.4,3,3.5,4.6.9,1.3.9,2.9,0,4-.9,1-2.5,1.2-3.9.3-1.1-.6-2.1-1.4-3.2-2.1-8.2-5.8-16.3-11.6-24.5-17.4-2.3-1.6-2.3-1.6-1.4-4.7.2-.6.2-1.2.3-1.9Z"/>
        <path class="cls-5" d="M734.6,783.4c.3-.2.5-.5.8-.5,3,.2,6,.4,9,.6-.8.7-1.7.8-2.7.8-1.9,0-3.8.1-5.7.2-.4-.4-.9-.7-1.3-1.1Z"/>
        <path class="cls-5" d="M699.1,782.4c.7-.9,1.3-.9,1.9,0-.7.9-1.3.9-1.9,0Z"/>
        <path class="cls-1" d="M502.4,699.8c.6-.6,1.4-.7,2.2-.7,1.9,0,3.7,0,5.6,0-2.4,2.4-5,2.1-7.8.6Z"/>
        <path class="cls-1" d="M416.7,752c2.5-1.7,5.2-2.6,8.2-2.7-2.4,1.9-5.2,2.8-8.2,2.7Z"/>
        <path class="cls-1" d="M405.2,756.1c1.3-1.8,3.2-2.1,5.2-2.2-1.3,1.9-3.2,2.2-5.2,2.2Z"/>
        <path class="cls-1" d="M477.4,699.1c.9-1.1,1.8-1.2,2.8-.2-.9,1.1-1.8,1.2-2.8.2Z"/>
        <path class="cls-1" d="M489.9,698.9c1-1,2-.9,2.8.2-1,1-2,.8-2.8-.2Z"/>
        <path class="cls-1" d="M432,747.3c.6-.9,1.3-1.3,2.4-1-.5,1.1-1.2,1.6-2.4,1Z"/>
      </g>
    </g>
  </g>
</svg>