<svg width="500" height="500" viewBox="0 0 500 500" fill="none" xmlns="http://www.w3.org/2000/svg">
<path d="M234.355 375.285C234.825 375.233 235.296 375.129 235.819 375.076C236.08 374.71 236.447 374.658 236.865 374.815C237.336 374.763 237.806 374.658 238.329 374.606C238.591 374.24 238.957 374.24 239.375 374.344C239.846 374.292 240.316 374.187 240.839 374.135C240.996 373.926 241.205 373.821 241.414 373.926C241.728 373.874 242.042 373.769 242.356 373.717C242.617 373.351 242.983 373.298 243.402 373.403C244.029 373.298 244.657 373.194 245.337 373.089C245.493 372.88 245.703 372.828 245.912 372.88C251.193 371.625 256.475 370.474 261.757 369.115C265.679 368.121 269.339 366.552 272.843 364.618C274.621 363.676 276.347 362.735 278.073 361.637C282.361 358.917 285.812 355.309 288.584 351.073C289.002 350.237 289.473 349.452 289.839 348.616C291.303 345.478 292.296 342.236 292.558 338.784C292.872 334.758 292.296 330.836 290.937 326.966C290.414 325.449 289.891 323.985 289.368 322.469C287.747 319.854 286.021 317.239 283.929 314.938C283.354 314.468 282.779 313.945 282.256 313.474C280.635 312.01 279.014 310.598 277.184 309.447C274.621 307.879 272.006 306.414 269.392 304.95C264.058 301.969 258.358 299.878 252.448 298.256C248.056 297.054 243.611 295.956 239.061 295.38C237.911 295.223 236.76 295.119 235.714 294.491C234.721 294.491 233.727 294.439 232.734 294.387C232.211 294.387 231.74 294.387 231.322 293.968C230.38 293.968 229.491 293.968 228.55 293.968C225.883 293.812 223.216 293.602 220.549 293.55C216.889 293.498 213.176 293.55 209.515 293.55C208.94 293.55 208.365 293.55 207.737 293.602C203.763 294.073 199.788 294.387 195.762 294.544C193.827 294.648 191.892 294.753 190.062 295.171C185.669 296.165 181.172 296.74 176.727 297.367C171.288 298.152 165.902 299.198 160.516 300.401C157.169 301.133 153.874 301.917 150.528 302.701C149.482 303.434 148.488 303.015 147.495 302.649C147.547 302.963 147.599 303.329 147.651 303.643C148.122 305.264 148.122 305.264 146.919 306.101C142.631 309.134 138.395 312.167 134.107 315.2C133.584 315.566 133.009 315.984 132.434 316.298C131.649 316.769 130.865 316.664 130.394 316.141C129.924 315.618 129.871 314.781 130.394 314.049C130.97 313.213 131.597 312.48 132.225 311.644C134.892 308.14 137.611 304.689 140.278 301.185C140.539 300.871 140.801 300.557 141.115 300.244C142.108 299.302 142.945 299.25 143.991 300.087C144.305 300.348 144.618 300.662 144.88 300.976C145.298 301.394 145.873 301.551 146.501 301.551C146.501 301.394 146.553 301.237 146.553 301.08C145.717 300.244 144.88 299.459 144.043 298.623C143.468 297.995 142.788 297.577 141.899 297.42C140.905 297.263 139.964 296.949 139.18 296.269C135.571 293.132 131.963 290.046 128.355 286.961C125.479 284.503 122.655 282.045 119.831 279.588C115.752 276.136 111.673 272.632 107.647 269.181C104.143 266.2 100.639 263.22 97.1877 260.187C96.5079 259.611 95.8281 259.245 94.9391 259.141C94.4685 259.245 93.9978 259.454 93.6318 259.82C90.0235 263.533 86.3106 267.089 83.0684 271.168C76.6885 279.326 71.9821 288.321 69.0536 298.256C69.3151 298.779 69.1059 299.198 68.6876 299.564C68.4261 300.505 68.1646 301.499 67.9032 302.44C68.3738 302.911 68.0077 303.224 67.694 303.59C67.5894 304.061 67.4848 304.479 67.3802 304.95C67.8509 305.421 67.5371 305.735 67.2233 306.101C67.1187 306.571 67.0141 307.042 66.9618 307.46C67.4848 308.088 67.2233 308.611 66.7527 309.081C66.6481 309.866 66.5435 310.65 66.4389 311.435C66.9096 311.958 66.805 312.48 66.3343 312.899C65.8637 316.925 65.916 320.952 66.3343 324.979C66.7527 325.292 66.805 325.606 66.3866 325.972C66.5435 326.966 66.6481 328.012 66.8049 329.005C67.2233 329.267 67.3279 329.581 66.9096 329.999C67.7463 334.705 69.1059 339.255 71.0408 343.595C72.1913 346.262 73.6554 348.825 75.172 351.283C77.0023 354.263 79.3555 356.617 82.1271 358.708C88.2455 363.31 95.0437 366.605 102.26 369.115C104.613 369.952 107.019 370.684 109.425 371.207C109.686 371.102 109.843 371.207 110 371.416C110.47 371.52 110.941 371.625 111.412 371.73C111.83 371.625 112.196 371.677 112.458 372.043C112.928 372.096 113.399 372.2 113.87 372.252C114.288 372.148 114.654 372.2 114.915 372.514C115.386 372.566 115.909 372.671 116.38 372.723C116.798 372.618 117.112 372.618 117.426 372.932C117.739 372.932 118.053 373.037 118.419 373.089C119.465 372.775 120.459 373.037 121.452 373.455C121.923 373.455 122.446 373.56 122.916 373.56C123.387 373.141 123.91 373.089 124.381 373.56C124.694 373.56 125.06 373.507 125.374 373.455C127.048 372.828 128.721 373.089 130.447 373.194C130.76 373.194 131.127 373.194 131.44 373.194C131.911 372.723 132.382 372.671 132.905 373.141C133.427 373.141 133.898 373.089 134.421 373.037C135.572 372.514 136.722 372.462 137.925 372.671C138.395 372.618 138.918 372.566 139.389 372.514C140.173 372.148 141.01 371.782 141.899 372.148C142.213 372.148 142.527 372.043 142.893 371.991C143.206 371.677 143.572 371.625 143.991 371.782C144.618 371.677 145.298 371.625 145.926 371.52C146.239 371.207 146.606 371.154 146.972 371.259C147.442 371.207 147.913 371.102 148.436 371.05C148.75 370.684 149.063 370.631 149.482 370.788C149.952 370.684 150.423 370.631 150.946 370.527C151.207 370.161 151.573 370.108 151.992 370.265C152.306 370.213 152.619 370.161 152.933 370.108C153.195 369.742 153.613 369.69 154.031 369.795C163.026 367.755 171.654 364.774 180.074 360.957C182.531 359.859 184.885 358.656 187.29 357.506C188.179 357.087 188.336 357.087 189.016 357.872C189.539 358.499 190.062 359.179 190.585 359.806C194.716 364.722 198.795 369.69 202.978 374.606C204.338 376.174 205.489 377.952 207.214 379.155C208.365 379.887 209.62 379.835 210.822 379.626C212.967 379.26 215.111 379.103 217.202 378.423C217.359 378.214 217.568 378.162 217.778 378.266C218.614 378.214 219.399 378.109 220.235 378.057C220.549 377.743 220.915 377.691 221.334 377.796C221.961 377.691 222.589 377.586 223.268 377.482C223.582 377.168 223.948 377.116 224.314 377.22C224.785 377.168 225.308 377.063 225.779 377.011C226.72 376.384 227.766 376.122 228.864 376.279C229.335 376.174 229.805 376.07 230.276 376.018C230.59 375.704 230.956 375.652 231.322 375.756C231.949 375.652 232.629 375.599 233.257 375.495C233.57 375.181 233.936 375.129 234.302 375.233L234.355 375.285Z" fill="#696D65"/>
<path d="M235.61 294.492C236.656 295.119 237.806 295.224 238.957 295.381C243.506 295.956 247.951 297.054 252.344 298.257C258.201 299.878 263.953 301.97 269.287 304.951C271.902 306.415 274.516 307.879 277.079 309.448C278.909 310.598 280.583 312.01 282.151 313.475C282.727 313.998 283.302 314.468 283.825 314.939C285.028 313.736 286.596 313.161 287.956 312.22C289.891 310.912 291.878 309.762 293.865 308.507C295.643 306.729 297.892 305.526 300.036 304.323C302.546 302.911 304.69 301.133 306.834 299.251C310.495 295.956 313.998 292.505 316.718 288.321C317.659 286.857 318.548 285.393 319.489 283.876C319.594 283.04 320.065 282.307 320.483 281.575C323.882 275.039 325.608 268.031 325.608 260.658C325.608 259.821 325.608 258.984 325.608 258.148C325.608 256.108 325.294 254.121 324.771 252.238C323.83 248.839 322.732 245.545 321.006 242.459C320.326 241.204 319.646 240.002 318.862 238.747C317.398 236.393 316.195 233.936 314.469 231.791C313.109 230.118 311.854 228.34 310.547 226.614C310.338 226.458 310.181 226.248 309.972 226.091C309.606 225.778 309.187 225.464 308.821 225.098C306.102 222.117 302.86 219.764 299.461 217.62C298.049 216.731 296.585 215.946 295.068 215.214C292.819 214.116 290.518 213.123 288.27 212.024C284.871 210.403 281.262 209.933 277.602 209.619C269.444 208.834 261.234 208.991 253.076 208.991C251.664 208.991 250.252 208.991 248.84 209.044C244.081 209.2 239.375 209.619 234.669 210.456C232.263 210.874 229.91 211.188 227.504 211.606C226.197 211.815 224.942 212.286 223.634 212.547C218.51 213.593 213.333 214.482 208.155 215.58C202.037 216.888 195.971 218.3 189.853 219.764C188.179 220.182 186.558 220.862 184.885 221.385C183.473 221.803 182.008 222.222 180.544 222.588C178.034 223.268 175.576 223.947 173.066 224.627C172.334 224.836 171.654 225.15 170.974 225.412C171.131 225.882 171.341 226.353 171.393 226.824C172.02 230.013 172.7 233.151 173.119 236.393C173.641 240.525 174.374 244.604 175.053 248.735C175.681 252.448 176.308 256.108 176.884 259.821C177.302 262.593 177.668 265.416 178.086 268.24C178.714 268.606 179.237 269.129 179.498 269.757C179.917 269.705 180.335 269.652 180.753 269.548C185.46 268.345 190.166 267.247 194.768 265.835C198.429 264.737 202.194 264.005 205.959 263.168C213.176 261.494 220.445 259.873 227.661 258.2C232.315 257.154 236.917 256.108 241.571 255.115C243.768 254.644 245.964 254.121 248.16 253.598C249.259 253.337 250.095 252.814 250.409 251.559C250.88 249.31 252.03 247.375 253.181 245.44C255.22 241.937 257.939 239.165 261.495 237.282C267.091 234.302 273.052 233.622 279.223 234.825C283.616 235.661 287.747 237.125 291.564 239.479C295.434 241.832 298.99 244.604 301.814 248.16C303.749 250.565 305.318 253.232 307.043 255.794C308.821 258.566 310.129 261.494 311.018 264.684C311.541 266.515 312.22 268.397 312.377 270.28C312.848 275.352 311.488 280.059 308.664 284.295C306.573 287.432 303.592 289.629 300.35 291.354C295.852 293.76 290.832 294.44 285.864 294.806C281.942 295.119 278.02 294.544 274.203 293.551C272.425 293.08 270.647 292.871 268.764 292.871C266.568 292.871 264.424 293.185 262.28 293.237C259.77 293.341 257.259 293.289 254.749 293.341C254.436 293.812 254.07 293.812 253.756 293.341C247.899 293.185 242.042 293.864 236.185 293.812C235.976 294.021 235.714 294.178 235.505 294.387L235.61 294.492Z" fill="#8A89DE"/>
<path d="M310.599 226.614C311.907 228.34 313.162 230.118 314.521 231.791C316.247 233.935 317.502 236.446 318.914 238.746C319.646 239.949 320.326 241.204 321.058 242.459C322.784 245.545 323.934 248.891 324.823 252.238C325.346 254.173 325.712 256.108 325.66 258.148C325.66 258.984 325.66 259.821 325.66 260.658C325.66 268.031 323.934 275.038 320.535 281.575C320.169 282.307 319.698 283.039 319.541 283.876C323.986 286.125 328.588 288.164 333.19 290.047C335.805 291.093 337.687 292.871 339.256 295.067C342.342 299.407 345.322 303.852 348.251 308.297C349.82 310.651 351.65 312.847 353.689 314.834C356.199 317.292 359.233 318.442 362.684 318.547C364.985 318.599 367.129 318.129 369.168 317.083C371.522 315.828 373.927 314.677 376.333 313.527C377.849 312.795 379.47 312.429 381.196 312.533C382.503 312.586 383.654 312.899 384.7 313.631C385.798 314.363 386.896 315.148 387.994 315.932C388.831 316.508 389.615 317.135 390.504 317.606C392.23 318.547 393.903 318.233 395.315 316.874C395.943 316.298 396.361 315.566 396.727 314.834C397.93 312.533 398.662 310.023 399.342 307.565C399.97 305.317 400.44 303.016 401.225 300.819C402.532 297.211 404.362 294.021 407.186 291.406C408.703 290.047 410.376 288.949 412.154 288.112C414.141 287.171 415.919 286.02 417.54 284.504C417.54 284.294 417.54 284.085 417.488 283.824C416.233 282.83 414.873 282.098 413.409 281.523C411.788 280.895 410.167 280.32 408.546 279.745C407.5 279.745 406.454 279.588 405.826 278.594C404.728 278.281 403.63 277.915 402.584 277.601C400.963 277.601 399.551 277.183 398.296 276.189C397.041 275.823 395.786 275.457 394.583 275.143C393.956 275.457 393.59 275.143 393.328 274.62C392.701 274.254 391.969 273.993 391.393 273.522C385.38 268.397 385.118 268.502 381.928 261.285C381.771 260.971 381.719 260.658 381.562 260.344C380.673 258.461 379.732 256.579 378.79 254.748C377.849 252.918 376.385 251.558 374.45 250.774C373.3 250.251 372.097 250.042 370.789 249.99C370.267 250.46 369.744 250.408 369.325 249.885C367.652 249.885 365.978 249.885 364.305 249.885C363.834 250.46 363.364 250.513 362.841 249.99C361.167 250.094 359.494 250.251 357.821 250.356C356.409 251.088 354.997 251.297 353.742 250.042C351.179 248.682 348.617 247.27 346.054 245.911C344.59 245.126 343.178 244.237 341.766 243.401C339.309 242.25 336.955 240.995 334.707 239.479C334.341 239.322 333.922 239.217 333.556 239.008C330.785 237.491 328.013 235.975 325.189 234.458C322.836 233.151 320.535 231.896 318.182 230.589C317.711 230.327 317.345 230.066 317.24 229.49C315.724 229.438 314.574 228.549 313.371 227.817C312.482 227.346 311.697 226.667 310.599 226.771V226.614Z" fill="#FFB68A"/>
<path d="M341.714 243.244C343.126 244.081 344.538 244.917 346.002 245.754C348.565 247.166 351.127 248.526 353.689 249.885C354.683 249.885 355.624 249.885 356.618 249.885C357.036 249.885 357.402 249.938 357.768 250.251C359.442 250.147 361.115 249.99 362.789 249.885C363.259 249.31 363.73 249.258 364.253 249.781C365.926 249.781 367.6 249.781 369.273 249.781C369.796 249.258 370.319 249.31 370.737 249.885C371.992 249.885 373.247 250.147 374.398 250.67C376.28 251.507 377.745 252.814 378.738 254.644C379.68 256.474 380.569 258.357 381.51 260.24C381.667 260.553 381.771 260.867 381.876 261.181C385.066 268.45 385.327 268.293 391.341 273.418C391.916 273.888 392.648 274.15 393.276 274.516C393.851 274.359 394.217 274.62 394.531 275.039C395.786 275.405 397.041 275.771 398.244 276.085C399.813 276.085 401.277 276.555 402.532 277.497C403.63 277.81 404.728 278.176 405.774 278.49C406.82 278.49 407.814 278.647 408.494 279.641C410.115 280.216 411.736 280.791 413.357 281.419C414.821 281.994 416.181 282.726 417.436 283.72C417.959 283.667 418.482 283.563 419.005 283.51C419.109 283.406 419.214 283.354 419.371 283.301C419.528 283.04 419.684 282.674 419.894 282.517C421.672 281.053 422.979 279.118 424.862 277.81C424.914 277.706 425.018 277.601 425.071 277.497C425.175 276.712 425.646 276.137 426.326 275.823C426.378 275.719 426.43 275.562 426.535 275.457C426.692 274.568 427.058 273.784 427.895 273.313C427.895 273.208 427.999 273.052 428.104 272.947C428.208 272.633 428.208 272.267 428.365 272.006C430.405 267.979 431.921 263.743 432.758 259.246C432.81 258.932 433.019 258.671 433.176 258.357C433.229 258.043 433.281 257.782 433.333 257.468C433.072 256.579 433.072 255.69 433.595 254.853C433.856 252.186 433.908 249.467 433.595 246.8C433.019 245.806 433.019 244.761 433.229 243.715C433.176 243.401 433.124 243.139 433.072 242.826C432.444 241.728 432.13 240.525 432.235 239.217C432.026 238.642 431.817 238.015 431.555 237.439C431.085 237.178 430.928 236.812 430.98 236.289C430.562 235.4 430.143 234.511 429.777 233.622C429.359 232.681 428.627 231.844 428.522 230.746C428.418 230.641 428.365 230.484 428.313 230.38C427.476 229.909 427.11 229.177 426.953 228.288C426.849 228.183 426.796 228.027 426.744 227.922C426.221 227.713 425.96 227.347 425.96 226.771C425.751 226.458 425.541 226.144 425.28 225.882C424.548 225.569 424.077 225.046 423.973 224.261C423.554 223.791 423.188 223.32 422.77 222.849C421.149 221.804 419.841 220.496 418.743 218.875C416.965 217.254 415.239 215.633 413.461 213.959C411.161 211.815 408.65 209.881 405.827 208.521C405.565 208.625 405.408 208.521 405.304 208.207C404.833 207.841 404.31 207.475 403.839 207.057C403.735 207.632 403.839 208.259 403.421 208.73C402.846 209.253 402.166 209.619 401.434 209.671C400.44 209.724 399.447 209.671 398.453 209.514C396.1 209.096 393.747 208.625 391.289 208.678C389.511 208.678 387.785 208.678 386.007 208.678C383.915 208.678 381.876 208.678 379.784 209.148C377.536 209.724 375.235 210.194 373.143 211.24C370.58 212.495 368.018 213.541 365.508 214.953C362.213 216.836 359.285 219.137 356.513 221.647C353.742 224.104 351.859 227.294 349.715 230.223C346.996 233.936 344.747 237.91 343.074 242.198C342.812 242.93 342.342 243.244 341.61 243.296L341.714 243.244Z" fill="#884100"/>
<path d="M178.191 268.294C177.825 265.47 177.459 262.698 176.988 259.874C176.413 256.161 175.733 252.501 175.158 248.788C174.478 244.709 173.746 240.578 173.223 236.447C172.805 233.204 172.177 230.067 171.497 226.877C171.393 226.406 171.184 225.935 171.079 225.465C169.144 225.674 167.366 226.354 165.536 226.929C161.718 228.132 157.953 229.491 154.188 230.747C152.828 231.217 151.469 231.531 150.109 232.002C145.664 233.518 141.376 235.296 137.088 237.074C131.754 239.218 126.577 241.781 121.452 244.395C119.883 245.18 118.314 245.964 116.746 246.748C111.255 249.52 105.764 252.344 100.482 255.534C98.5472 256.684 96.56 257.73 94.7298 259.038C95.5665 259.142 96.2986 259.508 96.9784 260.083C100.43 263.116 103.934 266.097 107.437 269.078C111.516 272.529 115.595 276.033 119.622 279.484C122.498 281.942 125.322 284.4 128.146 286.858C131.754 289.943 135.362 293.029 138.97 296.166C139.755 296.846 140.696 297.16 141.69 297.317C142.579 297.474 143.206 297.892 143.834 298.52C144.618 299.356 145.507 300.141 146.344 300.977C146.762 300.716 146.867 300.402 146.71 299.931C146.292 298.676 145.664 297.421 145.507 296.114C145.141 292.506 145.403 289.002 147.024 285.655C148.959 281.576 151.939 278.439 155.548 275.772C158.058 273.941 160.777 272.582 163.653 271.431C168.307 269.496 173.171 268.712 178.139 268.294H178.191Z" fill="#FFB68A"/>
<path d="M317.24 229.334C317.293 229.909 317.711 230.17 318.182 230.432C320.535 231.739 322.836 232.994 325.189 234.302C327.961 235.818 330.732 237.335 333.556 238.851C333.922 239.06 334.341 239.165 334.707 239.322C334.707 239.008 334.707 238.642 334.811 238.328C335.648 236.446 336.223 234.459 337.426 232.681C338.629 230.903 339.518 228.915 340.616 227.033C341.296 225.882 341.871 224.627 342.708 223.634C344.852 221.019 347.153 218.457 349.401 215.894C350.343 214.848 351.441 213.907 352.173 212.704C352.8 211.711 353.794 210.926 354.997 210.769C355.886 210.665 356.513 210.194 357.245 209.776C359.076 208.625 360.801 207.266 362.736 206.377C367.338 204.18 371.992 202.246 377.065 201.409C379.104 201.095 381.144 200.52 383.235 200.677C384.229 200.729 385.223 200.729 386.216 200.363C386.687 200.206 387.262 200.101 387.68 200.258C389.249 200.781 390.818 200.677 392.387 200.677C393.067 200.677 393.694 200.834 394.322 201.043C396.675 201.932 399.028 201.879 401.434 201.2C401.643 199.997 401.277 198.951 400.597 197.957C399.551 196.389 398.505 194.767 397.25 193.303C394.426 190.061 390.87 187.812 387.001 185.982C386.739 186.087 386.53 185.982 386.425 185.668C385.589 185.407 384.804 185.198 383.968 184.936C383.811 184.936 383.601 184.989 383.445 185.041C383.183 185.041 382.974 184.989 382.869 184.727C381.771 184.622 380.673 184.518 379.523 184.413C378.79 184.675 378.006 184.779 377.326 184.204C376.333 184.204 375.339 184.204 374.345 184.204C373.822 184.675 373.247 184.675 372.672 184.413C371.888 184.518 371.103 184.57 370.319 184.675C370.005 185.041 369.587 185.145 369.168 184.936C368.227 185.198 367.286 185.407 366.344 185.668C366.188 185.878 366.031 185.982 365.769 185.825C365.299 185.93 364.828 186.087 364.357 186.191C364.253 186.453 364.044 186.557 363.782 186.453C363.468 186.557 363.155 186.61 362.841 186.714C362.684 186.923 362.527 187.08 362.266 186.923C361.952 187.028 361.638 187.08 361.324 187.185C361.167 187.394 361.01 187.551 360.749 187.446C360.435 187.551 360.174 187.656 359.86 187.76C359.755 188.022 359.546 188.126 359.285 188.022C358.657 188.283 358.03 188.492 357.35 188.754C357.245 189.015 357.036 189.12 356.775 189.067C352.277 191.159 348.251 193.983 344.329 196.964C339.465 200.677 335.177 204.965 331.569 209.933C331.255 210.351 330.941 210.717 330.628 211.083C325.555 216.783 321.215 222.954 317.293 229.491L317.24 229.334Z" fill="#884100"/>
<path d="M207.214 379.157C205.488 377.954 204.338 376.176 202.978 374.607C198.847 369.691 194.716 364.776 190.585 359.808C190.062 359.18 189.539 358.501 189.016 357.873C188.388 357.141 188.231 357.089 187.29 357.507C184.885 358.657 182.479 359.86 180.074 360.958C171.706 364.724 163.026 367.704 154.031 369.796C154.031 369.953 154.031 370.057 154.031 370.214C157.378 376.071 162.503 379.157 169.039 380.307C173.275 381.039 177.511 380.673 181.799 380.778C184.362 380.83 186.976 380.778 189.591 380.725C192.572 380.725 195.553 380.255 198.533 379.941C198.847 379.941 199.213 379.836 199.527 379.836C202.142 379.889 204.704 379.523 207.266 379.209L207.214 379.157Z" fill="#FFB68A"/>
<path d="M401.381 201.096C398.976 201.828 396.623 201.828 394.269 200.939C393.642 200.678 393.014 200.573 392.335 200.573C390.766 200.573 389.197 200.678 387.628 200.155C387.21 199.998 386.582 200.102 386.164 200.259C385.17 200.625 384.177 200.625 383.183 200.573C381.091 200.469 379.052 200.991 377.012 201.305C371.94 202.09 367.286 204.077 362.684 206.273C360.749 207.214 358.971 208.522 357.193 209.672C356.513 210.143 355.833 210.561 354.944 210.666C353.742 210.823 352.748 211.607 352.121 212.601C351.336 213.856 350.29 214.745 349.349 215.791C347.1 218.353 344.852 220.915 342.655 223.53C341.819 224.524 341.243 225.779 340.564 226.929C339.518 228.812 338.576 230.799 337.374 232.577C336.171 234.355 335.596 236.342 334.759 238.225C334.654 238.539 334.707 238.905 334.654 239.218C336.903 240.735 339.256 242.042 341.714 243.14C342.446 243.088 342.917 242.722 343.178 242.042C344.852 237.754 347.153 233.727 349.82 230.067C351.964 227.138 353.899 223.949 356.618 221.491C359.389 218.981 362.318 216.68 365.612 214.797C368.07 213.385 370.685 212.339 373.247 211.084C375.339 210.038 377.64 209.568 379.889 208.992C381.928 208.47 384.02 208.522 386.112 208.522C387.89 208.522 389.615 208.522 391.393 208.522C393.799 208.469 396.204 208.94 398.558 209.359C399.551 209.515 400.545 209.568 401.538 209.515C402.323 209.515 403.003 209.097 403.526 208.574C403.996 208.103 403.892 207.476 403.944 206.901C403.473 204.757 402.584 202.822 401.277 200.991L401.381 201.096Z" fill="#5D3818"/>
<path d="M289.368 322.47C289.891 323.986 290.414 325.45 290.937 326.967C292.244 330.784 292.82 334.707 292.558 338.785C292.297 342.237 291.303 345.479 289.839 348.617C289.473 349.453 289.002 350.238 288.584 351.075C294.075 351.284 299.565 351.493 305.056 351.754C306.05 351.754 307.043 351.754 308.037 352.068C308.403 352.173 308.874 352.173 309.292 352.173C311.959 352.173 314.626 352.277 317.293 352.225C319.176 352.225 319.803 351.807 320.326 349.872C321.163 346.734 321.895 343.544 322.627 340.407C322.993 338.838 322.418 337.583 321.006 336.851C319.908 336.223 318.757 335.7 317.659 335.125C317.398 335.125 317.136 335.125 316.927 334.968C312.639 332.929 308.403 330.889 304.167 328.85C303.435 328.484 302.755 328.013 302.023 327.647C298.938 326.235 295.853 324.875 292.767 323.411C291.669 322.888 290.623 322.522 289.42 322.574L289.368 322.47Z" fill="#FFB68B"/>
<path d="M289.368 322.47C290.571 322.47 291.616 322.836 292.715 323.307C295.8 324.771 298.885 326.131 301.971 327.543C302.703 327.909 303.383 328.379 304.115 328.745C308.351 330.785 312.639 332.824 316.874 334.864C317.084 334.968 317.345 334.968 317.607 335.021C317.816 331.778 317.711 328.484 317.607 325.242C317.607 323.934 317.293 322.575 316.979 321.32C316.665 320.065 316.038 319.019 314.992 318.234C314.573 317.921 314.207 317.607 313.737 317.398C310.756 315.933 307.984 313.999 304.847 312.796C302.232 311.75 299.774 310.181 297.107 309.292C296.061 308.978 295.12 308.403 293.97 308.508C291.982 309.71 289.995 310.913 288.06 312.221C286.701 313.162 285.132 313.737 283.929 314.94C286.073 317.241 287.747 319.855 289.368 322.47Z" fill="#E6A47C"/>
<path d="M433.229 258.305C433.072 258.618 432.863 258.88 432.81 259.194C431.974 263.639 430.457 267.874 428.418 271.953C428.261 272.215 428.261 272.581 428.156 272.895C428.627 272.79 428.836 272.476 429.045 272.11C431.189 268.031 432.549 263.743 433.49 259.246C433.542 258.932 433.49 258.566 433.281 258.305H433.229Z" fill="#BFA3B0"/>
<path d="M424.914 277.759C423.031 279.066 421.724 281.001 419.946 282.465C419.685 282.674 419.58 282.988 419.423 283.25C419.842 283.25 420.26 283.145 420.521 282.831C421.829 281.524 423.188 280.164 424.496 278.857C424.809 278.543 424.914 278.177 424.914 277.759Z" fill="#BFA3B0"/>
<path d="M418.952 218.719C419.998 220.34 421.358 221.647 422.979 222.693C422.142 220.863 420.835 219.503 418.952 218.719Z" fill="#BFA3B0"/>
<path d="M428.679 230.641C428.784 231.739 429.516 232.576 429.934 233.517C430.3 234.406 430.719 235.295 431.137 236.184C431.241 236.184 431.398 236.184 431.503 236.236C431.032 234.144 430.3 232.157 428.679 230.641Z" fill="#BFA3B0"/>
<path d="M432.34 239.112C432.235 240.42 432.549 241.622 433.176 242.721C433.385 241.361 433.176 240.42 432.34 239.112Z" fill="#BFA3B0"/>
<path d="M433.333 243.61C433.072 244.709 433.124 245.754 433.699 246.696C434.17 245.598 434.118 244.552 433.333 243.61Z" fill="#BFA3B0"/>
<path d="M130.447 373.299C128.773 373.194 127.048 372.933 125.374 373.561C127.1 373.717 128.773 373.927 130.447 373.299Z" fill="#BFA3B0"/>
<path d="M433.647 254.801C433.124 255.637 433.072 256.526 433.386 257.415C434.118 256.631 434.118 255.742 433.647 254.801Z" fill="#BFA3B0"/>
<path d="M137.977 372.671C136.774 372.462 135.572 372.514 134.473 373.037C135.676 373.194 136.879 373.299 137.977 372.671Z" fill="#BFA3B0"/>
<path d="M427.947 273.261C427.11 273.731 426.744 274.516 426.587 275.405C427.529 275.039 427.842 274.202 427.947 273.261Z" fill="#BFA3B0"/>
<path d="M228.864 376.333C227.766 376.176 226.72 376.437 225.779 377.065C226.877 377.169 227.923 377.065 228.864 376.333Z" fill="#BFA3B0"/>
<path d="M121.452 373.508C120.459 373.09 119.465 372.829 118.419 373.142C119.36 373.822 120.406 373.718 121.452 373.508Z" fill="#BFA3B0"/>
<path d="M427.11 228.131C427.267 229.02 427.633 229.752 428.47 230.223C428.365 229.281 428.052 228.497 427.11 228.131Z" fill="#BFA3B0"/>
<path d="M426.378 275.719C425.698 276.085 425.228 276.608 425.123 277.392C425.96 277.131 426.43 276.608 426.378 275.719Z" fill="#BFA3B0"/>
<path d="M141.951 372.149C141.062 371.783 140.226 372.149 139.441 372.515C140.33 372.724 141.219 372.724 141.951 372.149Z" fill="#BFA3B0"/>
<path d="M424.13 224.104C424.234 224.888 424.705 225.411 425.437 225.725C425.437 224.836 424.914 224.365 424.13 224.104Z" fill="#BFA3B0"/>
<path d="M419.057 283.51C418.534 283.562 418.011 283.667 417.488 283.719C417.488 283.928 417.488 284.137 417.541 284.399C418.22 284.399 418.848 284.294 419.057 283.51Z" fill="#BFA3B0"/>
<path d="M66.5958 309.135C67.0665 308.664 67.3279 308.141 66.805 307.514C66.282 307.984 66.2821 308.56 66.5958 309.135Z" fill="#BFA3B0"/>
<path d="M66.1773 313.003C66.648 312.533 66.7525 312.062 66.2819 311.539C65.8112 312.01 65.759 312.48 66.1773 313.003Z" fill="#BFA3B0"/>
<path d="M132.957 373.142C132.434 372.672 131.963 372.724 131.493 373.195C132.016 373.613 132.486 373.561 132.957 373.142Z" fill="#BFA3B0"/>
<path d="M124.381 373.612C123.91 373.141 123.387 373.194 122.916 373.612C123.387 374.083 123.91 374.083 124.381 373.612Z" fill="#BFA3B0"/>
<path d="M377.327 184.151C378.006 184.727 378.739 184.622 379.523 184.361C378.843 183.942 378.111 183.995 377.327 184.151Z" fill="#A98170"/>
<path d="M68.5828 299.565C69.0012 299.199 69.2104 298.781 68.9489 298.258C68.5305 298.624 68.3213 299.042 68.5828 299.565Z" fill="#BFA3B0"/>
<path d="M66.2296 326.026C66.6479 325.66 66.5433 325.346 66.1773 325.032C65.8112 325.398 65.8635 325.712 66.2296 326.026Z" fill="#BFA3B0"/>
<path d="M66.8048 330.051C67.2232 329.685 67.0663 329.371 66.7003 329.058C66.3342 329.424 66.4388 329.737 66.8048 330.051Z" fill="#BFA3B0"/>
<path d="M426.117 226.614C426.117 227.189 426.378 227.556 426.901 227.765C426.953 227.137 426.692 226.771 426.117 226.614Z" fill="#BFA3B0"/>
<path d="M67.5895 303.592C67.9555 303.278 68.2693 302.912 67.7987 302.441C67.4326 302.755 67.328 303.121 67.5895 303.592Z" fill="#BFA3B0"/>
<path d="M67.0665 306.102C67.4326 305.788 67.6941 305.422 67.2235 304.951C66.8574 305.265 66.7528 305.631 67.0665 306.102Z" fill="#BFA3B0"/>
<path d="M431.503 236.236C431.346 236.236 431.241 236.236 431.137 236.184C431.137 236.707 431.241 237.073 431.712 237.334C431.869 236.916 431.712 236.602 431.555 236.236H431.503Z" fill="#A98170"/>
<path d="M372.672 184.309C373.248 184.57 373.823 184.623 374.346 184.1C373.77 183.943 373.195 183.943 372.672 184.309Z" fill="#A98170"/>
<path d="M236.865 374.764C236.446 374.659 236.08 374.712 235.819 375.025C236.237 375.182 236.603 375.025 236.865 374.764Z" fill="#BFA3B0"/>
<path d="M234.354 375.286C233.936 375.182 233.57 375.234 233.309 375.548C233.727 375.705 234.093 375.6 234.354 375.286Z" fill="#BFA3B0"/>
<path d="M369.169 184.831C369.639 185.041 370.005 184.936 370.319 184.57C369.901 184.465 369.482 184.465 369.169 184.831Z" fill="#A98170"/>
<path d="M231.322 375.81C230.903 375.706 230.537 375.706 230.276 376.072C230.694 376.229 231.06 376.124 231.322 375.81Z" fill="#BFA3B0"/>
<path d="M224.314 377.273C223.896 377.168 223.53 377.168 223.268 377.535C223.687 377.744 224.053 377.587 224.314 377.273Z" fill="#BFA3B0"/>
<path d="M221.333 377.848C220.915 377.691 220.549 377.743 220.235 378.11C220.654 378.266 221.02 378.214 221.333 377.848Z" fill="#BFA3B0"/>
<path d="M154.031 370.214C154.031 370.057 154.031 369.953 154.031 369.796C153.613 369.691 153.247 369.743 152.933 370.109C153.299 370.109 153.613 370.214 153.979 370.214H154.031Z" fill="#BFA3B0"/>
<path d="M149.534 370.788C149.116 370.684 148.75 370.736 148.488 371.05C148.906 371.207 149.272 371.102 149.534 370.788Z" fill="#BFA3B0"/>
<path d="M147.024 371.26C146.605 371.156 146.239 371.156 145.978 371.522C146.396 371.679 146.762 371.574 147.024 371.26Z" fill="#BFA3B0"/>
<path d="M144.043 371.782C143.625 371.625 143.259 371.677 142.945 371.991C143.363 372.148 143.729 372.096 144.043 371.782Z" fill="#BFA3B0"/>
<path d="M152.044 370.266C151.626 370.161 151.26 370.213 150.998 370.527C151.416 370.684 151.782 370.527 152.044 370.266Z" fill="#BFA3B0"/>
<path d="M112.405 372.045C112.144 371.679 111.778 371.627 111.359 371.731C111.673 372.045 111.987 372.202 112.405 372.045Z" fill="#BFA3B0"/>
<path d="M114.915 372.567C114.602 372.2 114.235 372.148 113.869 372.305C114.183 372.619 114.497 372.723 114.915 372.567Z" fill="#BFA3B0"/>
<path d="M117.425 372.986C117.112 372.672 116.745 372.672 116.379 372.776C116.693 373.09 117.059 373.195 117.425 372.986Z" fill="#BFA3B0"/>
<path d="M243.402 373.298C242.983 373.141 242.617 373.246 242.356 373.612C242.774 373.716 243.14 373.612 243.402 373.298Z" fill="#BFA3B0"/>
<path d="M239.375 374.241C238.956 374.137 238.59 374.189 238.329 374.503C238.747 374.66 239.113 374.503 239.375 374.241Z" fill="#BFA3B0"/>
<path d="M383.445 184.936C383.602 184.936 383.811 184.884 383.968 184.831C383.863 184.57 383.654 184.518 383.393 184.57C383.393 184.675 383.393 184.831 383.445 184.936Z" fill="#E6A47C"/>
<path d="M383.445 184.936C383.445 184.832 383.445 184.675 383.393 184.57C383.236 184.57 383.026 184.57 382.87 184.57C382.974 184.832 383.183 184.936 383.445 184.884V184.936Z" fill="#A98170"/>
<path d="M310.076 226.144C310.286 226.3 310.442 226.51 310.652 226.666C310.599 226.353 310.39 226.196 310.076 226.144Z" fill="#FFB68A"/>
<path d="M405.461 208.103C405.565 208.364 405.722 208.469 405.984 208.416C405.879 208.155 405.722 208.103 405.461 208.103Z" fill="#BFA3B0"/>
<path d="M356.723 188.911C357.036 189.015 357.193 188.911 357.298 188.597C357.036 188.544 356.827 188.597 356.723 188.911Z" fill="#E6A47C"/>
<path d="M241.415 373.822C241.153 373.718 240.944 373.822 240.839 374.031C241.101 374.136 241.31 374.031 241.415 373.822Z" fill="#BFA3B0"/>
<path d="M359.233 187.864C359.494 187.969 359.703 187.864 359.808 187.603C359.546 187.498 359.337 187.603 359.233 187.864Z" fill="#E6A47C"/>
<path d="M363.73 186.348C363.991 186.453 364.201 186.348 364.305 186.087C364.044 185.982 363.835 186.087 363.73 186.348Z" fill="#BFA3B0"/>
<path d="M360.697 187.29C360.958 187.394 361.168 187.29 361.272 187.028C361.011 186.924 360.802 187.028 360.697 187.29Z" fill="#E6A47C"/>
<path d="M245.912 372.776C245.65 372.672 245.441 372.776 245.336 372.986C245.598 373.142 245.807 372.986 245.912 372.776Z" fill="#BFA3B0"/>
<path d="M386.373 185.564C386.478 185.825 386.687 185.93 386.949 185.878C386.844 185.616 386.635 185.512 386.373 185.564Z" fill="#E6A47C"/>
<path d="M365.769 185.721C366.031 185.878 366.188 185.721 366.345 185.564C366.083 185.459 365.926 185.512 365.769 185.721Z" fill="#BFA3B0"/>
<path d="M109.948 371.468C109.791 371.259 109.581 371.207 109.372 371.259C109.529 371.468 109.686 371.573 109.948 371.468Z" fill="#BFA3B0"/>
<path d="M217.778 378.319C217.516 378.214 217.359 378.267 217.202 378.476C217.464 378.633 217.621 378.528 217.778 378.319Z" fill="#BFA3B0"/>
<path d="M362.266 186.819C362.527 186.923 362.736 186.819 362.841 186.609C362.579 186.505 362.37 186.609 362.266 186.819Z" fill="#BFA3B0"/>
<path d="M236.342 293.917C242.199 293.917 248.056 293.237 253.913 293.446C254.226 292.976 254.593 292.976 254.906 293.446C257.416 293.446 259.926 293.446 262.437 293.342C264.581 293.29 266.777 292.976 268.921 292.976C270.804 292.976 272.582 293.185 274.36 293.656C278.177 294.649 282.099 295.224 286.021 294.911C291.041 294.545 296.009 293.812 300.507 291.459C303.749 289.734 306.73 287.537 308.821 284.4C311.645 280.164 313.005 275.457 312.534 270.385C312.377 268.502 311.697 266.672 311.175 264.789C310.286 261.652 308.978 258.671 307.2 255.899C305.527 253.337 303.906 250.67 301.971 248.264C299.095 244.708 295.539 241.937 291.721 239.584C287.904 237.23 283.773 235.766 279.38 234.929C273.209 233.779 267.248 234.459 261.652 237.387C258.096 239.27 255.377 242.041 253.337 245.545C252.187 247.48 251.036 249.467 250.566 251.664C250.304 252.919 249.468 253.442 248.317 253.703C246.121 254.226 243.925 254.697 241.728 255.22C237.074 256.265 232.42 257.259 227.818 258.305C220.601 259.926 213.333 261.599 206.116 263.273C202.403 264.109 198.586 264.842 194.925 265.94C190.271 267.352 185.564 268.45 180.91 269.653C180.492 269.757 180.074 269.81 179.655 269.862C179.498 271.117 178.714 271.849 177.459 271.849C176.099 271.849 174.844 272.163 173.485 272.32C170.661 272.738 167.994 273.47 165.274 274.464C163.13 275.248 161.195 276.399 159.313 277.549C157.639 278.595 155.966 279.798 154.554 281.157C153.09 282.622 151.887 284.347 150.841 286.178C149.534 288.478 148.959 290.936 148.906 293.603C148.906 295.852 149.534 297.891 150.475 299.879C150.946 300.924 150.946 301.761 150.475 302.702C153.822 301.918 157.117 301.134 160.463 300.401C165.85 299.199 171.236 298.153 176.674 297.368C181.119 296.741 185.617 296.166 190.009 295.172C191.84 294.754 193.827 294.649 195.71 294.545C199.736 294.388 203.71 294.022 207.685 293.603C208.26 293.551 208.835 293.551 209.463 293.551C213.123 293.551 216.836 293.499 220.497 293.551C223.164 293.603 225.831 293.812 228.498 293.969C229.439 293.969 230.328 293.969 231.269 293.969C232.838 293.865 234.407 293.708 235.976 293.656C236.08 293.656 236.237 293.812 236.394 293.917H236.342Z" fill="#FFB68A"/>
<path d="M150.475 302.65C150.946 301.709 150.998 300.82 150.475 299.826C149.586 297.891 148.906 295.852 148.906 293.551C148.906 290.884 149.482 288.426 150.841 286.125C151.887 284.295 153.038 282.569 154.554 281.105C155.966 279.745 157.64 278.543 159.313 277.497C161.195 276.294 163.13 275.196 165.274 274.411C167.941 273.47 170.661 272.686 173.485 272.267C174.792 272.058 176.099 271.744 177.459 271.797C178.714 271.797 179.446 271.117 179.655 269.809C179.342 269.13 178.871 268.659 178.243 268.293C173.275 268.764 168.412 269.548 163.758 271.431C160.882 272.633 158.162 273.941 155.652 275.771C152.044 278.386 149.063 281.576 147.128 285.655C145.56 289.001 145.298 292.557 145.612 296.113C145.717 297.421 146.344 298.676 146.815 299.931C146.972 300.401 146.815 300.715 146.449 300.977C146.449 301.134 146.449 301.29 146.396 301.447C146.919 301.656 147.285 302.023 147.494 302.546C148.488 302.912 149.534 303.33 150.528 302.598L150.475 302.65Z" fill="#E6A47C"/>
<path d="M147.442 302.597C147.233 302.074 146.867 301.708 146.344 301.499C145.769 301.499 145.194 301.342 144.723 300.924C144.409 300.61 144.148 300.349 143.834 300.035C142.788 299.198 141.951 299.198 140.958 300.192C140.644 300.453 140.383 300.819 140.121 301.133C137.454 304.637 134.735 308.088 132.068 311.592C131.44 312.376 130.813 313.161 130.238 313.997C129.767 314.677 129.767 315.514 130.238 316.089C130.708 316.612 131.545 316.717 132.277 316.246C132.852 315.932 133.375 315.514 133.95 315.148C138.239 312.115 142.474 309.082 146.762 306.049C147.965 305.212 147.965 305.212 147.495 303.591C147.39 303.277 147.39 302.963 147.338 302.597H147.442Z" fill="#494A45"/>
<path d="M236.342 293.918C236.185 293.813 236.08 293.656 235.923 293.656C234.355 293.761 232.786 293.865 231.217 293.97C231.635 294.336 232.106 294.388 232.629 294.388C233.622 294.388 234.616 294.441 235.61 294.493C235.819 294.284 236.08 294.127 236.289 293.918H236.342Z" fill="#BFA3B0"/>
<path d="M254.906 293.394C254.54 292.923 254.226 292.923 253.913 293.394C254.279 293.865 254.592 293.865 254.906 293.394Z" fill="#BFA3B0"/>
<path d="M357.769 250.199C357.455 249.885 357.036 249.833 356.618 249.833C355.624 249.833 354.683 249.833 353.69 249.833C354.945 251.088 356.304 250.931 357.769 250.147V250.199Z" fill="#A98170"/>
<path d="M402.584 277.497C401.277 276.608 399.865 276.137 398.296 276.085C399.551 277.079 401.015 277.549 402.584 277.497Z" fill="#A98170"/>
<path d="M408.598 279.64C407.919 278.698 406.925 278.542 405.879 278.489C406.559 279.483 407.553 279.64 408.598 279.64Z" fill="#A98170"/>
<path d="M370.842 249.833C370.371 249.258 369.901 249.206 369.378 249.729C369.848 250.304 370.319 250.356 370.842 249.833Z" fill="#A98170"/>
<path d="M364.305 249.729C363.782 249.206 363.259 249.258 362.841 249.833C363.364 250.356 363.887 250.252 364.305 249.729Z" fill="#A98170"/>
<path d="M394.583 275.038C394.27 274.568 393.904 274.358 393.328 274.515C393.59 275.091 393.956 275.352 394.583 275.038Z" fill="#A98170"/>
</svg>
