<svg width="501" height="501" viewBox="0 0 501 501" fill="none" xmlns="http://www.w3.org/2000/svg">
<path d="M233.085 226.796C233.085 226.796 227.995 235.916 226.662 243.955C223.754 260.635 233.327 271.315 233.327 271.315C233.327 271.315 270.53 280.675 271.742 272.155C274.166 255.955 276.59 243.235 278.044 235.316C279.013 230.036 254.05 222.716 254.05 222.716L233.085 226.796Z" fill="#3D3C3C"/>
<path d="M286.539 149.603C287.024 134.791 274.658 127.204 266.535 111.429C265.565 109.502 256.351 104.083 251.501 103.963C246.167 103.842 240.711 104.685 236.589 109.021C233.437 112.392 227.132 122.869 232.346 150.566C233.922 163.451 239.984 211.62 232.83 225.95C232.83 225.95 249.44 224.385 259.139 226.793C268.838 229.202 277.689 234.38 277.689 234.38C281.083 189.462 278.901 175.132 281.083 160.32C281.205 160.441 286.418 153.818 286.539 149.603Z" fill="#FF8AA0"/>
<path d="M262.775 105.05C262.775 105.05 263.009 99.918 264.415 91.2054L246.259 83.8057C249.304 93.3537 246.376 104.334 246.376 104.334C259.261 103.141 262.541 109.705 266.406 111.376L262.775 105.05Z" fill="#ECAD83"/>
<path d="M276.569 67.0539C281.332 60.9459 278.401 54.7182 276.202 51.245C269.607 40.3464 262.278 39.2686 252.873 39.2686C240.414 39.2686 235.773 71.3654 236.872 76.7548C239.681 90.7673 259.469 96.2765 267.53 96.516C276.447 96.7555 274.248 93.7614 273.882 90.2882C273.882 90.1685 274.37 89.6894 274.37 89.6894C274.37 88.4918 274.248 86.8151 275.103 85.2581C275.103 85.2581 274.737 84.1802 274.737 83.5814C274.737 83.2221 274.737 82.9826 275.225 82.7431C276.569 82.264 277.79 81.9047 278.279 81.4256C279.989 79.6292 274.492 69.8085 276.569 67.0539Z" fill="#F6BB92"/>
<path d="M269.587 86.6811C269.587 86.6811 270.371 86.9259 274.067 86.9871C274.515 86.8647 275.3 86.6198 274.627 86.0689C274.179 85.5792 272.275 86.4974 269.587 86.6811Z" fill="#D6876B"/>
<path d="M269.587 86.9873C269.587 86.9873 270.395 89.2406 273.857 90.1685C274.318 90.0359 274.78 89.6383 274.78 89.3732C275.241 88.0477 274.087 87.5175 274.087 87.5175C270.395 87.5175 269.587 86.9873 269.587 86.9873Z" fill="#CC785E"/>
<path d="M252.492 37.1475C237.515 37.1475 217.586 58.6077 237.998 83.7845C239.327 85.4629 242.467 87.5011 247.178 84.0243C250.439 81.6265 252.734 78.3895 252.734 78.3895C253.338 77.4303 254.062 76.3513 254.787 75.1524C255.633 73.8337 254.666 66.5204 256.116 66.2806C270.851 64.0027 277.011 56.3298 277.011 52.3734C275.2 43.1419 268.436 37.1475 252.492 37.1475Z" fill="#602F0F"/>
<path d="M249.179 74.2037C251.564 80.5328 254.612 80.8781 258.984 80.5328L256.599 70.7514L254.347 66.8389C250.107 67.069 246.795 67.8745 249.179 74.2037Z" fill="#F6BB92"/>
<path d="M228.992 59.5411C225.513 56.5757 227.193 49.4586 232.591 43.6463C237.989 37.834 245.307 35.4616 248.786 38.4271C252.265 41.3926 250.226 46.7304 244.707 52.5426C239.189 58.3549 232.471 62.388 228.992 59.5411Z" fill="#4C230C"/>
<path d="M257.066 67.9412C256.825 66.7332 256.825 65.6461 256.825 64.8005C256.825 63.4718 257.066 62.7471 257.066 62.7471L252.718 64.3174C252.718 64.9213 252.718 65.6461 252.718 66.2501C252.718 66.2501 253.201 66.1293 254.046 65.8877H253.926C254.53 66.854 255.254 68.3035 255.979 70.5986C255.979 70.4778 257.67 71.6857 257.066 67.9412Z" fill="#602F0F"/>
<path d="M226.022 59.3648C222.399 56.2242 224.211 48.3727 230.25 41.8499C236.29 35.3271 244.141 32.6697 247.765 35.8103C251.389 38.9509 249.094 44.8697 243.175 51.3925C237.135 57.9153 229.767 62.5054 226.022 59.3648Z" fill="#602F0F"/>
<path d="M228.309 45.5875C227.913 45.2689 229.102 43.5695 231.083 41.8701C233.064 40.1707 235.046 39.0024 235.574 39.321C235.97 39.6396 234.914 40.9142 232.8 42.7198C230.819 44.4192 228.706 45.9062 228.309 45.5875Z" fill="#4C230C"/>
<path d="M270.105 455.82C265.205 454.729 247.564 455.82 245.727 455.699C241.317 455.578 237.029 453.153 237.887 449.031C238.499 445.878 240.092 443.089 239.847 441.149C238.867 431.086 239.479 400.896 238.499 388.771C238.254 385.982 238.132 383.072 238.009 380.041C237.642 368.038 262.632 374.828 262.265 379.192C261.04 396.652 252.954 437.876 251.729 444.181C251.729 444.181 275.372 445.636 274.882 450.122C274.637 452.789 275.005 456.912 270.105 455.82Z" fill="#F6BB92"/>
<path d="M240.857 341.376C239.171 355.338 238.448 368.572 238.809 380.713C242.784 379.256 259.045 378.77 262.658 379.863C262.899 375.492 267.235 341.862 267.235 341.862C268.56 331.177 277.112 268.53 274.342 248.983C273.86 244.005 272.896 239.513 271.933 235.87C270.006 228.707 230.86 232.835 229.294 242.669C230.619 264.038 240.737 303.253 242.061 313.087C243.266 322.8 240.857 341.376 240.857 341.376Z" fill="#3D3C3C"/>
<path d="M259.12 287.784C263.71 287.784 261.294 268.699 262.502 262.901L259.362 256.016C262.14 214.101 254.651 195.861 254.651 195.861C257.429 170.857 260.449 122.661 258.758 113.239C257.187 103.817 237.86 104.904 237.136 114.568C236.411 124.11 236.773 132.687 236.894 142.229C236.894 151.772 238.344 187.406 239.189 195.74C239.31 196.827 249.094 256.016 249.094 256.016C249.094 256.016 248.973 258.432 247.645 262.418C245.712 267.974 246.195 276.309 248.249 280.778C250.061 284.644 254.53 287.784 259.12 287.784Z" fill="#F6BB92"/>
<path d="M260.571 268.699C260.571 268.699 260.088 274.739 263.228 275.343C265.886 275.826 266.852 275.705 262.503 262.901C262.503 262.901 260.691 263.022 260.571 268.699Z" fill="#F6BB92"/>
</svg>
