<svg width="500" height="500" viewBox="0 0 500 500" fill="none" xmlns="http://www.w3.org/2000/svg">
<path d="M229.959 297.722C231.886 310.281 233.769 322.843 235.777 335.388C236.133 337.611 235.523 339.639 235.001 341.632C231.131 356.499 229.508 371.485 231.042 386.873C232.147 397.936 232.397 409.08 233.029 420.189C240 421.66 247.055 422.419 254.164 422.701C254.622 408.149 255.31 393.6 255.465 379.045C255.571 368.927 256.552 359.049 259.692 349.383C264.179 335.568 264.645 321.044 266.821 306.827C269.933 286.483 270.871 266.028 269.435 245.479C269.361 244.428 269.231 243.38 269.125 242.329C263.075 240.738 257.875 236.141 251.07 237.235C250.008 237.277 248.942 237.319 247.881 237.362C247.186 238.117 247.26 239.066 247.21 239.986C246.681 249.624 246.085 259.259 245.672 268.9C245.573 271.204 244.43 274.037 246.367 275.783C252.449 281.269 251.564 287.044 247.789 293.217C247.175 294.223 246.642 295.351 246.395 296.494C245.75 299.451 243.87 299.722 241.33 299.296C237.558 298.661 233.752 298.241 229.959 297.729V297.722Z" fill="#6A6D66"/>
<path d="M229.959 297.722C233.751 298.234 237.558 298.657 241.329 299.289C243.869 299.716 245.749 299.448 246.395 296.488C246.645 295.345 247.175 294.216 247.788 293.21C251.563 287.04 252.452 281.262 246.367 275.776C244.43 274.03 245.573 271.197 245.672 268.893C246.088 259.252 246.681 249.618 247.21 239.98C247.259 239.059 247.185 238.11 247.88 237.355C247.499 229.82 249.221 222.358 248.688 214.812C248.632 214.001 248.769 213.225 249.492 212.689C250.364 206.85 251.302 201.022 252.078 195.17C252.533 191.748 253.987 189.352 256.869 187.133C263.187 182.276 267.241 175.735 268.578 167.713C266.602 163.825 262.669 161.719 260.086 158.389C255.176 153.246 248.804 153.711 242.521 153.821C232.831 158.424 230.227 166.408 230.354 176.624C230.682 202.984 230.601 229.354 230.202 255.71C230.012 268.414 229.613 281.114 229.599 293.824C229.599 295.122 229.243 296.474 229.959 297.715V297.722Z" fill="#F7BB92"/>
<path d="M268.581 167.72C267.244 175.742 263.194 182.282 256.873 187.14C253.987 189.359 252.533 191.755 252.082 195.176C251.306 201.029 250.367 206.857 249.496 212.695C250.575 212.84 251.789 212.406 252.674 213.412C259.857 214.008 267.036 214.604 274.219 215.2C274.455 214.47 274.822 213.754 274.91 213.006C275.679 206.427 276.9 200.172 281.451 194.785C284.657 190.985 284.851 185.98 282.223 181.743C278.752 176.141 273.979 171.569 268.581 167.72Z" fill="#8A8AD9"/>
<path d="M260.34 151.467C261.099 144.154 261.106 143.97 268.726 144.32C272.539 144.493 274.737 143.893 274.293 139.395C274.092 137.349 274.766 135.225 274.974 133.13C275.118 131.683 275.669 130.438 277.126 130.145C279.955 129.577 280.477 127.82 278.999 125.848C276.925 123.075 273.735 120.786 272.603 117.882C271.647 115.431 272.183 113.039 272.187 110.019C268.705 112.199 265.77 115.06 262.838 117.875C260.855 119.777 259.025 120.497 256.16 119.967C247.774 118.426 247.602 118.648 243.795 126.261C242.677 128.494 241.685 130.791 240.634 133.055C240.659 138.188 241.255 143.258 242.32 148.278C248.819 146.56 254.682 148.447 260.34 151.471V151.467Z" fill="#F7BB92"/>
<path d="M240.673 133.077C241.718 130.809 242.705 128.512 243.82 126.275C247.613 118.655 247.785 118.43 256.175 119.957C259.043 120.479 260.874 119.756 262.849 117.851C265.777 115.032 268.705 112.164 272.184 109.977C268.624 94.7264 253.652 88.4293 240.381 96.589C239.721 96.9947 238.973 97.2629 238.267 97.5945C236.955 100.904 233.907 103.066 232.694 106.527C230.884 111.691 230.916 116.814 231.988 122.046C234.584 125.958 236.736 130.219 240.673 133.077Z" fill="#7A4821"/>
<path d="M274.219 215.2C267.036 214.604 259.857 214.008 252.675 213.412C251.422 221.303 251.659 229.297 251.073 237.231C257.878 236.138 263.082 240.734 269.128 242.325C268.895 232.92 270.769 223.914 274.219 215.2Z" fill="#F7BB92"/>
<path d="M222.745 102.012C225.271 98.4697 229.585 96.4589 234.408 96.8293C234.323 98.3109 233.046 99.0094 232.252 100.004C229.349 103.645 227.881 107.628 227.313 111.833L232.037 121.982L228.509 127.461C228.509 127.461 218.677 142.271 217.351 143.336C216.024 144.401 216.049 143.618 216.049 143.618C215.058 110.023 222.741 102.015 222.745 102.012Z" fill="#7A4821"/>
<path d="M260.341 151.467C254.682 148.447 248.819 146.556 242.321 148.274C242.388 150.126 242.455 151.975 242.522 153.827C248.801 153.721 255.176 153.256 260.087 158.396C260.75 156.106 260.647 153.788 260.341 151.467Z" fill="#DEA881"/>
<path d="M234.408 96.8323C234.323 98.314 233.046 99.0125 232.252 100.007C227.444 106.04 226.562 113.018 227.222 120.384C228.534 121.714 230.146 122.172 231.97 122.007C230.908 116.771 230.887 111.649 232.707 106.488C233.928 103.031 236.979 100.872 238.299 97.5661C237.025 97.1992 235.829 96.4266 234.411 96.8288L234.408 96.8323Z" fill="#5C3717"/>
<path d="M251.073 237.232C251.658 229.294 251.422 221.304 252.674 213.412C251.789 212.407 250.575 212.84 249.496 212.696C248.773 213.228 248.631 214.008 248.691 214.82C249.224 222.362 247.503 229.823 247.884 237.362C248.945 237.32 250.011 237.277 251.073 237.235V237.232Z" fill="#DEA881"/>
<path d="M253.362 419.833C253.017 419.882 252.667 419.967 252.322 419.971C250.251 419.981 248.169 420.08 246.109 419.939C243.862 419.784 241.618 419.805 239.375 419.854C237.974 419.886 236.574 419.988 235.17 419.981C234.679 419.981 234.185 419.956 233.695 419.942C233.441 419.967 233.187 419.988 232.933 420.013C232.7 420.75 232.421 421.466 232.1 422.172C231.793 422.842 231.564 423.548 231.296 424.236C231.014 424.955 230.725 425.675 230.432 426.395C229.857 427.799 229.278 429.206 229.052 430.723C228.922 431.588 229.134 432.42 229.306 433.253C229.642 434.861 230.541 436.163 231.525 437.423C231.836 437.825 232.273 438.075 232.668 438.354C233.473 438.918 234.362 439.405 235.307 439.613C236.115 439.79 236.955 439.913 237.805 439.91C241.424 439.896 245.044 439.91 248.663 439.917C249.118 439.917 249.57 439.91 250.022 440.04C250.318 440.125 250.646 440.104 250.963 440.104C256.163 440.111 261.363 440.111 266.567 440.125C267.272 440.125 267.946 439.97 268.638 439.846C269.932 439.613 270.807 438.777 271.739 437.973C272.162 437.61 272.324 437.091 272.575 436.636C273.189 435.528 273.513 434.293 273.263 433.041C273.04 431.94 272.681 430.861 271.873 429.993C271.019 429.079 270.077 428.328 268.92 427.83C268.119 427.485 267.382 426.994 266.613 426.575C265.325 425.873 264.002 425.227 262.75 424.465C261.67 423.809 260.488 423.343 259.462 422.592C259.321 422.489 259.169 422.391 259.014 422.317C257.62 421.667 256.245 420.979 254.936 420.161C254.791 420.073 254.608 420.055 254.442 420.006C254.093 419.907 253.75 419.755 253.373 419.837L253.362 419.833Z" fill="#F7BC94"/>
</svg>
