<svg width="500" height="500" viewBox="0 0 500 500" fill="none" xmlns="http://www.w3.org/2000/svg">
<path d="M229.959 281.163C231.886 293.722 233.769 306.284 235.777 318.829C236.133 321.052 235.523 323.08 235.001 325.073C231.131 339.939 229.508 354.925 231.042 370.314C232.147 381.377 232.397 392.521 233.029 403.63C240 405.101 247.055 405.86 254.164 406.142C254.622 391.59 255.31 377.041 255.465 362.486C255.571 352.368 256.552 342.49 259.692 332.824C264.179 319.009 264.645 304.485 266.821 290.268C269.933 269.924 270.871 249.469 269.435 228.92C269.361 227.869 269.231 226.821 269.125 225.77C263.075 224.179 257.875 219.582 251.07 220.676C250.008 220.718 248.942 220.76 247.881 220.803C247.186 221.558 247.26 222.507 247.21 223.427C246.681 233.065 246.085 242.7 245.672 252.341C245.573 254.645 244.43 257.477 246.367 259.224C252.449 264.709 251.564 270.484 247.789 276.658C247.175 277.663 246.642 278.792 246.395 279.935C245.75 282.892 243.87 283.163 241.33 282.736C237.558 282.101 233.752 281.682 229.959 281.17V281.163Z" fill="#6A6D66"/>
<path d="M229.959 281.163C233.751 281.675 237.558 282.098 241.329 282.73C243.869 283.157 245.749 282.888 246.395 279.929C246.645 278.786 247.175 277.657 247.788 276.651C251.563 270.481 252.452 264.703 246.367 259.217C244.43 257.471 245.573 254.638 245.672 252.334C246.088 242.693 246.681 233.059 247.21 223.421C247.259 222.5 247.185 221.551 247.88 220.796C247.499 213.261 249.221 205.799 248.688 198.253C248.632 197.442 248.769 196.666 249.492 196.13C250.364 190.291 251.302 184.463 252.078 178.611C252.533 175.189 253.987 172.793 256.869 170.574C263.187 165.717 267.241 159.176 268.578 151.154C266.602 147.266 262.669 145.16 260.086 141.83C255.176 136.686 248.804 137.152 242.521 137.261C232.831 141.865 230.227 149.849 230.354 160.065C230.682 186.425 230.601 212.795 230.202 239.151C230.012 251.855 229.613 264.555 229.599 277.265C229.599 278.563 229.243 279.915 229.959 281.156V281.163Z" fill="#F7BB92"/>
<path d="M268.581 151.161C267.244 159.183 263.194 165.723 256.873 170.581C253.987 172.8 252.533 175.195 252.082 178.617C251.306 184.47 250.367 190.298 249.496 196.136C250.575 196.281 251.789 195.847 252.674 196.853C259.857 197.449 267.036 198.045 274.219 198.641C274.455 197.911 274.822 197.195 274.91 196.447C275.679 189.867 276.9 183.613 281.451 178.226C284.657 174.426 284.851 169.42 282.223 165.184C278.752 159.581 273.979 155.009 268.581 151.161Z" fill="#8A8AD9"/>
<path d="M260.34 134.908C261.099 127.595 261.106 127.411 268.726 127.761C272.539 127.933 274.737 127.334 274.293 122.836C274.092 120.79 274.766 118.666 274.974 116.57C275.118 115.124 275.669 113.879 277.126 113.586C279.955 113.018 280.477 111.261 278.999 109.289C276.925 106.516 273.735 104.227 272.603 101.323C271.647 98.8716 272.183 96.4797 272.187 93.46C268.705 95.6401 265.77 98.5012 262.838 101.316C260.855 103.218 259.025 103.937 256.16 103.408C247.774 101.867 247.602 102.089 243.795 109.702C242.677 111.935 241.685 114.232 240.634 116.496C240.659 121.629 241.255 126.699 242.32 131.719C248.819 130.001 254.682 131.888 260.34 134.911V134.908Z" fill="#F7BB92"/>
<path d="M240.673 116.518C241.718 114.249 242.705 111.953 243.82 109.716C247.613 102.096 247.785 101.87 256.175 103.398C259.043 103.92 260.874 103.197 262.849 101.292C265.777 98.4732 268.705 95.6051 272.184 93.4179C268.624 78.1673 253.652 71.8702 240.381 80.03C239.721 80.4357 238.973 80.7038 238.267 81.0354C236.955 84.3444 233.907 86.507 232.694 89.9677C230.884 95.1324 230.916 100.255 231.988 105.486C234.584 109.399 236.736 113.66 240.673 116.518Z" fill="#7A4821"/>
<path d="M274.219 198.641C267.036 198.045 259.857 197.449 252.675 196.853C251.422 204.744 251.659 212.738 251.073 220.672C257.878 219.579 263.082 224.175 269.128 225.766C268.895 216.361 270.769 207.355 274.219 198.641Z" fill="#F7BB92"/>
<path d="M222.745 85.4525C225.271 81.9106 229.585 79.8998 234.408 80.2702C234.323 81.7519 233.046 82.4504 232.252 83.4452C229.349 87.0859 227.881 91.0687 227.313 95.2739L232.037 105.423L228.509 110.902C228.509 110.902 218.677 125.712 217.351 126.777C216.024 127.842 216.049 127.059 216.049 127.059C215.058 93.4641 222.741 85.456 222.745 85.4525Z" fill="#7A4821"/>
<path d="M260.341 134.908C254.682 131.888 248.819 129.997 242.321 131.715C242.388 133.567 242.455 135.416 242.522 137.268C248.801 137.162 255.176 136.696 260.087 141.836C260.75 139.547 260.647 137.229 260.341 134.908Z" fill="#DEA881"/>
<path d="M234.408 80.2733C234.323 81.7549 233.046 82.4534 232.252 83.4483C227.444 89.4808 226.562 96.4587 227.222 103.825C228.534 105.155 230.146 105.613 231.97 105.448C230.908 100.212 230.887 95.09 232.707 89.9288C233.928 86.4716 236.979 84.3126 238.299 81.007C237.025 80.6402 235.829 79.8676 234.411 80.2697L234.408 80.2733Z" fill="#5C3717"/>
<path d="M251.073 220.672C251.658 212.735 251.422 204.745 252.674 196.853C251.789 195.847 250.575 196.281 249.496 196.137C248.773 196.669 248.631 197.449 248.691 198.26C249.224 205.803 247.503 213.264 247.884 220.803C248.945 220.761 250.011 220.718 251.073 220.676V220.672Z" fill="#DEA881"/>
<path d="M253.362 403.274C253.017 403.323 252.667 403.408 252.322 403.411C250.251 403.422 248.169 403.521 246.109 403.38C243.862 403.224 241.618 403.246 239.375 403.295C237.974 403.327 236.574 403.429 235.17 403.422C234.679 403.422 234.185 403.397 233.695 403.383C233.441 403.408 233.187 403.429 232.933 403.454C232.7 404.191 232.421 404.907 232.1 405.613C231.793 406.283 231.564 406.989 231.296 407.677C231.014 408.396 230.725 409.116 230.432 409.836C229.857 411.24 229.278 412.647 229.052 414.164C228.922 415.028 229.134 415.861 229.306 416.694C229.642 418.302 230.541 419.604 231.525 420.863C231.836 421.266 232.273 421.516 232.668 421.795C233.473 422.359 234.362 422.846 235.307 423.054C236.115 423.231 236.955 423.354 237.805 423.351C241.424 423.336 245.044 423.35 248.663 423.358C249.118 423.358 249.57 423.351 250.022 423.481C250.318 423.566 250.646 423.545 250.963 423.545C256.163 423.552 261.363 423.552 266.567 423.566C267.272 423.566 267.946 423.41 268.638 423.287C269.932 423.054 270.807 422.218 271.739 421.414C272.162 421.05 272.324 420.532 272.575 420.077C273.189 418.969 273.513 417.734 273.263 416.482C273.04 415.381 272.681 414.302 271.873 413.434C271.019 412.52 270.077 411.769 268.92 411.271C268.119 410.926 267.382 410.435 266.613 410.015C265.325 409.313 264.002 408.668 262.75 407.906C261.67 407.25 260.488 406.784 259.462 406.033C259.321 405.93 259.169 405.832 259.014 405.757C257.62 405.108 256.245 404.42 254.936 403.602C254.791 403.514 254.608 403.496 254.442 403.447C254.093 403.348 253.75 403.196 253.373 403.277L253.362 403.274Z" fill="#F7BC94"/>
</svg>
