<svg width="500" height="500" viewBox="0 0 500 500" fill="none" xmlns="http://www.w3.org/2000/svg">
<path fill-rule="evenodd" clip-rule="evenodd" d="M260.9 211.423C260.94 211.428 260.981 211.432 261.021 211.437C261.027 211.438 261.034 211.439 261.04 211.439" fill="#6A6C65"/>
<path fill-rule="evenodd" clip-rule="evenodd" d="M261.021 211.437L260.9 211.423L260.441 211.369C259.708 211.283 258.054 210.818 257.808 210.628C254.338 207.988 249.344 206.509 245.292 205.102C240.93 203.586 236.508 202.354 232.03 201.243C230.737 200.923 230.446 200.788 229.021 199.844C213.777 189.753 198.105 180.218 183.224 169.594C182.82 169.304 182.835 168.837 183.263 168.348C199.261 149.959 201.261 122.428 207.402 99.5923C202.853 96.5978 196.817 94.9386 191.774 92.9643C191.605 92.8979 191.431 92.8298 191.262 92.7637C178.156 116.393 166.603 141.168 155.263 165.671C154.876 166.507 154.354 168.383 154.173 169.591C153.317 175.286 155.706 182.709 159.834 186.9C163.203 190.29 166.261 194.016 169.579 197.467C184.212 212.683 200.139 226.528 215.019 241.466C216.442 262.331 220.566 282.865 222.187 303.67C222.897 312.829 224.542 322.134 224.983 331.214C225.03 332.165 225.166 333.465 225.286 334.105C225.602 335.793 225.608 342.137 225.294 343.392C219.568 366.26 223.395 399.379 229.835 421.927C235.99 421.972 242.146 422.019 248.301 422.064C248.301 410.925 248.696 399.861 248.985 388.738C249.346 375.12 250.989 361.339 252.19 347.763C252.301 346.524 252.459 345.109 252.543 344.621C257.011 318.469 258.995 290.751 260.609 264.311C260.802 261.16 261.222 256.808 261.517 254.899C261.562 254.612 261.758 254.279 262.025 254.034C262.446 253.647 264.287 252.487 265.81 251.65C266.224 251.423 266.978 250.982 268.409 250.106C267.955 248.962 267.122 246.257 266.223 243.004C263.506 233.178 261.974 224.018 261.294 213.536C261.258 212.984 261.222 212.43 261.187 211.877L261.159 211.453L261.04 211.439L261.021 211.437Z" fill="#6A6C65"/>
<path fill-rule="evenodd" clip-rule="evenodd" d="M248.301 422.063C248.601 423.216 249.412 424.598 250.043 425.033C250.251 425.177 250.851 425.531 251.378 425.821C251.903 426.11 252.395 426.392 252.472 426.448C253.001 426.834 253.785 427.331 254.473 427.718C254.728 427.861 255.766 428.521 256.782 429.185C257.798 429.847 259.116 430.683 259.711 431.041C261.091 431.871 261.739 432.276 261.912 432.411C261.987 432.47 262.725 432.961 263.553 433.503C264.381 434.044 265.119 434.536 265.195 434.593C265.439 434.782 266.144 435.234 266.494 435.427C267.044 435.73 269.596 437.075 271.061 437.835C272.803 438.737 273.983 439.702 274.423 440.58C274.699 441.13 274.771 441.509 274.815 442.655C274.865 443.962 274.844 444.106 274.495 444.821C273.777 446.285 272.282 447.338 270.256 447.805C269.397 448.004 267.648 448.022 253.226 447.984C247.868 447.97 242.511 447.957 237.153 447.942C236.766 447.789 236.378 447.634 235.99 447.48C235.35 447.226 234.581 446.848 234.281 446.641C233.597 446.169 232.732 445.256 232.42 444.676C231.702 443.337 231.161 440.751 230.918 437.497C230.854 436.634 230.71 434.943 230.598 433.741C230.488 432.539 230.392 431.003 230.386 430.327C230.381 429.651 230.314 428.851 230.24 428.551C230.165 428.251 230.043 426.637 229.969 424.966C229.924 423.952 229.88 422.94 229.835 421.927C235.99 421.972 242.146 422.018 248.301 422.063Z" fill="#F4BA92"/>
<path fill-rule="evenodd" clip-rule="evenodd" d="M261.159 211.453C263.001 210.69 263.111 210.641 263.419 210.458C263.983 210.12 264.724 209.342 265.698 208.062C266.249 207.338 266.792 206.641 266.904 206.514C267.235 206.142 267.361 205.964 267.859 205.17C268.119 204.757 268.367 204.389 268.409 204.351C268.453 204.313 268.81 203.761 269.204 203.122C269.598 202.483 269.967 201.899 270.024 201.824C270.082 201.749 270.366 201.226 270.657 200.663C270.946 200.101 271.328 199.47 271.506 199.263C271.614 199.138 271.721 199.013 271.829 198.888C272.66 199.744 273.493 200.6 274.325 201.457C276.62 203.82 280.241 207.303 287.781 214.402C289.37 215.898 292.417 218.785 294.552 220.819C296.687 222.852 299.342 225.357 302.469 228.253C301.446 229.21 301.394 229.253 300.986 229.471C300.818 229.56 300.053 230.091 299.285 230.651C297.412 232.017 295.758 233.163 295.066 233.58C294.753 233.768 294.429 233.983 294.345 234.059C294.262 234.134 293.762 234.478 293.236 234.821C292.709 235.165 291.57 235.91 290.706 236.475C287.755 238.404 287.081 238.837 286.875 238.938C286.713 239.017 285.186 240 283.319 241.231C283.207 241.305 282.836 241.534 282.498 241.74C282.16 241.947 281.699 242.239 281.474 242.389C281.249 242.539 280.911 242.747 280.721 242.852C280.277 243.097 279.664 243.445 279.374 243.618C277.897 244.501 277.232 244.909 276.48 245.39C275.991 245.704 275.497 246 275.385 246.05C275.273 246.099 274.954 246.279 274.677 246.45C273.896 246.932 269.84 249.311 269.085 249.731C268.86 249.856 268.635 249.98 268.409 250.106C267.955 248.962 267.122 246.257 266.223 243.004C263.507 233.178 261.975 224.018 261.295 213.536C261.25 212.842 261.204 212.147 261.159 211.453Z" fill="#F4BA92"/>
<path fill-rule="evenodd" clip-rule="evenodd" d="M271.829 198.888C274.979 191.202 278.951 179.951 281.951 171.435C281.925 171.81 281.9 172.186 281.875 172.562C281.43 179.083 281.635 182.262 282.706 185.459C283.403 187.538 284.665 189.264 286.378 190.474C288.275 191.817 289.468 192.195 291.808 192.195C297.08 192.195 301.644 189.82 305.06 185.298C308.128 181.237 309.794 176.988 310.345 171.83C310.692 168.579 310.514 166.418 309.575 162.493C309.432 161.893 309.366 161.352 309.428 161.291C309.49 161.228 309.98 161.698 310.518 162.334C311.098 163.023 312.073 163.94 312.922 164.597C314.917 166.139 318.986 168.459 320.388 168.852C320.726 168.946 321.081 169.075 321.346 169.249C322.384 170.054 322.939 170.89 323.342 172.254C323.44 172.592 323.652 173.299 323.812 173.825C325.447 179.204 326.841 184.745 327.362 190.351C328.688 204.655 321.066 213.078 310.749 221.78C308.548 223.634 305.078 226.441 302.469 228.253C292.986 219.472 283.331 210.729 274.325 201.457C273.494 200.601 272.661 199.744 271.829 198.888Z" fill="#8385D6"/>
<path fill-rule="evenodd" clip-rule="evenodd" d="M289.5 121C289.278 121.124 287.087 125.885 285.5 128C283.448 130.736 278 138 275 138C273.802 138.035 273.263 132.854 272.632 124.177C272 115.5 274.858 100.184 284.652 95.3058C285.277 94.9952 286.15 94.694 286.773 95.2339C286.867 95.3159 287.712 95.8972 288.653 96.5254C291.088 98.1519 291.025 98.0844 291.091 99.1263C291.162 100.234 290.956 103.463 290.355 110.624C289.653 119.006 290.008 120.215 289.5 121Z" fill="#7A4922"/>
<path fill-rule="evenodd" clip-rule="evenodd" d="M322.439 94.1038C326.421 95.0687 330.103 96.7513 333.038 99.66C334.932 101.54 336.131 103.835 337.315 106.186C338.153 107.85 338.494 109.776 338.717 111.611C338.638 111.612 338.557 111.613 338.478 111.613C338.297 111.615 338.282 111.643 338.419 111.729C338.53 111.8 338.242 111.873 337.667 111.922C336.063 112.057 334.719 112.645 332.22 114.302C330.734 115.287 327.271 117.323 325.973 117.975C323.43 119.251 321.68 119.772 317.968 120.356C315.651 120.721 314.837 119.404 312.591 119.396C311.295 119.182 309.739 122.045 308.749 122.928C308.768 114.079 310.36 104.979 310.539 96.0408C310.587 95.9717 310.636 95.9023 310.684 95.8332C312.137 93.7688 320.25 93.5741 322.439 94.1038Z" fill="#7A4922"/>
<path fill-rule="evenodd" clip-rule="evenodd" d="M312.591 119.398C312.488 119.437 312.386 119.477 312.284 119.516C312.117 119.579 312.011 119.703 311.894 120.171L311.77 120.764C311.769 121.276 311.767 121.788 311.766 122.3C311.755 126.89 311.187 132.618 310.316 136.95C310.195 137.551 310.015 138.688 309.914 139.476C309.812 140.265 309.66 141.187 309.578 141.525C309.494 141.864 309.251 143.062 309.036 144.188C308.585 146.564 308.006 148.957 307.766 149.447C307.622 149.736 307.586 149.468 307.529 147.671C307.289 140.417 307.921 131.608 309.036 124.398C309.107 122.258 309.609 120.819 309.855 120.491C310.795 119.652 311.226 119.375 311.419 119.335C311.535 119.311 311.654 119.286 311.77 119.262L312.591 119.398Z" fill="#DCA782"/>
<path fill-rule="evenodd" clip-rule="evenodd" d="M245.74 71.4346C238.524 68.5021 238.701 68.4529 231.01 70.5671C229.094 71.094 222.949 69.7277 221.74 70.9346C221.025 71.6478 220.46 74.8985 220.318 76.8751C220.225 78.1756 220.462 81.1015 220.766 82.3851C221.043 83.5575 221.169 87.8394 220.97 89.3186C220.686 91.4277 219.957 92.835 218.619 93.8534C217.44 94.7515 216.852 94.8917 213.638 95.0406C210.42 95.1897 209.858 95.329 208.898 96.216C207.974 97.0696 207.615 98.3902 207.141 99.5262C206.292 98.9673 205.651 98.6747 202.551 97.4294C199.683 96.2777 197.282 95.2809 196.266 94.8218C195.574 94.5087 194.039 93.887 191.513 92.8981C191.342 92.8309 191.171 92.764 191 92.6971C195.262 83.8595 199.821 75.3243 204.727 66.8158C205.18 66.0293 205.239 65.8329 205.152 65.4027C204.682 63.054 205.524 61.55 206.683 59.6293C208.898 55.9569 210.855 49.9997 222.047 50C233.24 50.0003 231.952 50.9884 236.822 52.4768C237.733 52.7554 240.517 54.9716 240.517 55.418C240.517 55.4674 241.142 55.7102 241.908 55.9569C242.673 56.2039 243.456 56.4885 243.652 56.5901C250.579 60.1949 258.739 62.1059 266.165 64.6441C270.41 66.0947 274.607 67.7697 278.817 69.3311C287.721 72.6391 298.778 77.1585 306.329 83.024C307.173 83.6791 308.522 85.1651 308.849 85.7991C308.965 86.0247 309.239 86.4858 309.456 86.824C310.128 87.8708 310.5 89.2825 310.689 91.5001C311.265 98.2544 310.164 105.642 309.818 112.433C309.224 124.168 306.879 135.817 307.269 147.603C307.327 149.402 307.362 149.669 307.506 149.379C307.746 148.888 308.325 146.497 308.776 144.12C309.235 141.715 309.571 139.277 310.057 136.882C310.927 132.55 311.494 126.823 311.505 122.233C311.507 121.721 311.508 121.209 311.509 120.696C311.633 120.017 311.691 119.574 312.33 119.331C314.577 119.338 315.39 120.655 317.707 120.291C321.42 119.706 323.169 119.186 325.712 117.909C327.01 117.257 330.474 115.221 331.959 114.236C333.742 113.054 336.22 111.561 338.456 111.545C338.97 115.617 338.841 119.9 341.46 123.341C341.796 123.781 342.463 124.549 342.945 125.048C343.426 125.547 344.061 126.252 344.354 126.616C344.835 127.214 345.195 127.283 345.195 128.001C345.195 128.702 344.494 129.212 344.031 129.624C343.56 130.042 342.87 130.545 342.496 130.742C340.949 131.558 340.307 132.742 340.092 135.174C339.859 137.812 339.965 143.193 338.058 145.319C337.164 146.317 336.379 146.804 335.139 147.128C333.826 147.473 330.541 147.631 326.794 147.531C325.184 147.488 322.939 146.949 321.915 148.587C319.891 151.842 318.421 156.352 317.226 159.964C316.469 162.251 318.68 165.643 319.901 167.442C320.295 168.022 320.691 168.603 321.084 169.183C320.819 169.008 320.465 168.88 320.127 168.786C318.725 168.392 314.656 166.073 312.661 164.531C311.812 163.874 310.836 162.956 310.256 162.268C309.719 161.632 309.229 161.162 309.166 161.225C309.105 161.286 309.17 161.827 309.314 162.427C310.252 166.352 310.43 168.513 310.084 171.763C309.533 176.922 307.867 181.171 304.799 185.232C301.383 189.754 296.818 192.129 291.547 192.129C289.206 192.129 288.013 191.751 286.116 190.408C284.404 189.198 283.141 187.472 282.445 185.393C281.374 182.196 281.169 179.017 281.613 172.495C281.639 172.12 281.664 171.744 281.69 171.369C281.69 167.434 281.644 163.107 282.147 159.203C282.65 155.299 283.658 151.691 284.997 148.013C286.513 143.866 287.689 140.394 288.052 135.941C288.746 127.483 289.386 119.018 290.094 110.559C290.695 103.397 290.901 100.168 290.83 99.0604C290.764 98.0186 290.827 98.0861 288.392 96.4596C275.267 87.6967 260.607 77.4667 245.74 71.4346Z" fill="#F4BA92"/>
<path d="M205.087 65.0205C208.648 68.0408 215.247 70.9836 222.5 70.5C222.71 70.486 222.913 70.4759 223.109 70.4688C222.486 70.5349 221.999 70.6756 221.739 70.9346C221.272 71.4009 220.87 72.9509 220.607 74.5205C215.314 74.335 207.62 71.4084 203.621 68.7432C203.988 68.1004 204.356 67.4578 204.727 66.8154C205.18 66.0292 205.239 65.8325 205.152 65.4023C205.126 65.2726 205.105 65.1453 205.087 65.0205Z" fill="#DCA782"/>
</svg>
