<svg width="500" height="500" viewBox="0 0 500 500" fill="none" xmlns="http://www.w3.org/2000/svg">
<path d="M306.864 321.188C306.297 320.864 305.731 321.066 305.164 321.228C303.788 321.633 302.453 322.118 301.117 322.523C297.152 323.697 293.105 324.506 289.058 325.356C281.896 326.812 274.692 328.107 267.489 329.119C263.281 329.686 259.032 330.333 254.783 330.495C250.088 330.697 245.354 330.94 240.66 331.304C235.642 331.709 230.583 331.992 225.606 332.64C221.397 333.206 217.148 333.732 212.899 334.137C210.795 334.339 208.65 334.258 206.506 334.299C203.066 334.38 199.667 334.42 196.227 334.501C193.758 334.542 191.33 334.582 188.862 334.42C185.26 334.218 181.618 334.097 178.017 333.975C173.161 333.813 168.305 333.651 163.489 333.449C156.974 333.166 150.459 332.802 143.903 332.478C139.249 332.235 134.596 332.033 129.942 331.83C129.416 331.507 128.849 331.547 128.283 331.709C128.04 331.709 127.797 331.628 127.554 331.628C128 331.021 128.728 330.859 129.375 330.576C130.347 330.09 130.954 329.402 131.156 328.229C131.925 324.223 132.856 320.257 133.624 316.291C133.827 315.239 134.312 314.591 135.203 314.025C138.359 312.002 141.516 309.978 144.672 307.914C147.545 306.012 150.459 304.313 153.615 302.937C155.76 302.937 157.864 302.937 160.009 302.937C161.425 302.937 162.842 303.139 164.258 303.22C166.079 303.261 167.86 303.423 169.681 303.665C173.201 304.11 176.762 304.434 180.242 305.082C181.133 305.244 182.063 305.244 182.954 305.082C185.503 304.677 188.053 304.272 190.602 303.746C195.62 302.775 200.597 301.723 205.615 300.671C208.407 300.064 211.159 299.457 213.911 298.769C217.715 297.798 221.519 296.786 225.363 295.815C229.814 294.682 234.266 293.549 238.677 292.416C239.001 292.335 239.324 292.254 239.486 291.97C240.781 291.566 242.076 291.202 243.33 290.716C247.256 289.34 251.343 288.247 254.904 285.941C256.118 285.172 257.211 284.363 257.98 283.108C258.748 281.854 259.558 280.64 260.488 279.466C262.309 277.159 264.414 275.217 266.761 273.477C269.391 271.494 272.345 270.078 275.623 269.309C278.577 268.621 281.491 267.812 284.526 267.852C285.173 267.852 285.78 267.609 286.428 267.488C288.127 267.488 289.787 267.488 291.486 267.447C292.457 267.488 293.388 267.569 294.359 267.286C295.047 267.083 295.776 267.083 296.464 267.286C297.03 267.447 297.597 267.488 298.163 267.488C300.106 267.488 302.008 267.488 303.95 267.528C304.314 267.609 304.678 267.771 305.043 267.812C306.742 268.054 308.401 268.297 310.101 268.54C310.708 269.066 310.991 269.794 311.275 270.523C311.72 271.535 312.165 272.546 312.61 273.558C313.986 276.633 315.362 279.668 316.738 282.744C318.923 287.64 321.068 292.577 323.212 297.474C324.588 300.59 326.005 303.746 327.38 306.862C327.947 308.157 328.513 309.452 329.12 310.747C329.485 311.516 329.727 311.556 330.456 311.071C330.901 310.788 331.306 310.504 331.71 310.14C334.3 307.793 336.85 305.405 338.833 302.492C342.556 297.11 345.995 291.566 348.949 285.738C349.273 285.131 349.475 284.403 350.163 284.039C354.493 284.363 358.823 284.646 363.153 284.97C367.847 285.293 372.582 285.658 377.276 286.022C379.34 286.184 381.404 286.305 383.468 286.467C390.104 286.912 396.781 287.357 403.418 287.802C410.581 288.288 417.743 288.774 424.906 289.34C431.623 289.866 438.3 290.514 444.977 291.525C447.446 291.889 449.712 292.82 451.978 293.751C452.909 294.115 453.637 294.763 454.285 295.491C455.782 297.15 456.875 299.052 457.765 301.075C458.089 301.844 458.251 302.694 458.372 303.503C458.736 306.053 459.181 308.602 458.736 311.233C458.089 314.875 456.753 318.193 454.447 321.107C452.909 323.049 451.493 325.032 449.672 326.691C447.527 328.593 445.139 330.09 442.752 331.668C438.422 334.501 433.687 336.322 428.831 337.981C428.143 338.224 427.496 338.426 426.808 338.71C424.137 339.721 421.426 340.49 418.633 341.057C416.367 341.502 414.101 342.19 411.835 342.676C407.748 343.566 403.62 344.375 399.493 345.225C397.388 345.67 395.324 346.156 393.22 346.52C389.295 347.248 385.37 348.139 381.323 348.341C380.918 348.341 380.554 348.381 380.19 348.503C378.49 348.948 376.75 349.11 375.01 349.231C372.42 349.434 369.871 349.676 367.281 350.041C360.968 350.85 354.655 351.133 348.302 351.052C345.995 351.052 343.648 351.052 341.342 351.052C340.411 351.052 339.52 351.012 338.833 350.283C339.197 350.162 339.561 350.04 339.925 349.919C340.815 349.636 340.896 349.555 340.694 348.746C339.804 345.306 339.278 341.826 338.549 338.346C337.983 335.634 337.457 332.923 336.931 330.212C336.809 329.564 336.566 328.998 335.919 328.674C332.722 327.136 329.566 325.518 326.369 324.02C324.75 323.251 323.05 322.604 321.189 322.563C320.744 322.563 320.299 322.361 319.854 322.28C319.854 321.633 320.339 321.268 320.744 320.823C322.322 319.205 323.941 317.626 325.519 316.008C325.924 315.603 326.369 315.198 326.571 314.632C326.652 314.389 326.773 314.146 326.571 313.903C326.369 313.701 326.085 313.742 325.843 313.742C325.721 313.742 325.6 313.782 325.478 313.823C323.374 314.632 321.27 315.441 319.125 316.21C315.321 317.626 311.598 319.326 307.673 320.338C307.228 320.459 307.066 320.783 306.985 321.188H306.864ZM339.237 330.05C339.642 329.928 340.289 329.767 340.896 329.564C344.943 328.188 348.949 326.772 352.956 325.396C360.199 322.928 367.483 320.459 374.767 317.991C382.78 315.279 390.752 312.568 398.764 309.857C402.204 308.683 405.603 307.55 409.043 306.417C409.488 306.255 409.893 306.134 410.297 305.932C411.188 305.446 411.592 304.313 411.268 303.423C410.945 302.492 410.014 301.925 408.962 302.087C408.476 302.168 407.95 302.33 407.465 302.532C405.077 303.382 402.73 304.232 400.342 305.041C393.706 307.307 386.988 309.452 380.352 311.799C373.675 314.187 366.876 316.291 360.199 318.679C353.886 320.945 347.452 322.928 341.099 325.072C340.047 325.437 339.035 325.801 338.023 326.246C337.012 326.651 336.647 327.419 336.85 328.391C337.052 329.281 338.064 330.09 339.197 330.05H339.237Z" fill="#696D65"/>
<path d="M153.534 302.896C150.378 304.271 147.464 305.971 144.591 307.873C141.475 309.937 138.319 311.96 135.122 313.984C134.232 314.55 133.746 315.198 133.544 316.25C132.775 320.256 131.844 324.222 131.075 328.187C130.873 329.361 130.266 330.049 129.295 330.535C128.688 330.858 127.959 331.02 127.474 331.587C127.352 331.627 127.231 331.708 127.069 331.749C126.422 331.87 125.815 331.991 125.208 332.275C122.456 333.529 119.664 334.743 116.952 336.038C115.698 336.645 114.524 336.766 113.229 336.281C110.761 335.31 108.292 334.419 105.864 333.327C104.408 332.679 103.032 331.789 102.222 330.292C102.222 329.442 102.101 328.633 102.465 327.823C103.558 325.314 104.65 322.846 106.026 320.539C107.928 317.423 109.951 314.307 111.853 311.191C112.46 310.22 113.189 309.289 113.472 308.156C113.472 308.035 113.472 307.954 113.472 307.833C113.634 307.752 113.877 307.671 113.958 307.509C115.455 305.202 117.721 303.786 119.947 302.41C122.699 300.71 125.329 298.849 128.04 297.068C130.185 295.652 132.33 294.155 134.515 292.819C136.983 291.282 139.492 289.865 142.001 288.368C144.713 286.749 147.424 285.09 150.095 283.431C156.246 279.668 162.437 275.904 168.588 272.141C172.149 269.955 175.71 267.73 179.312 265.545C182.306 263.724 185.301 261.943 188.255 260.162C189.469 259.434 190.724 258.706 191.897 257.937C192.626 257.451 193.313 256.844 194.001 256.237C195.418 255.023 196.834 253.809 198.25 252.595C199.343 251.664 200.436 250.774 201.488 249.843C203.673 247.941 205.858 245.999 208.043 244.138C209.905 242.559 211.807 241.022 213.709 239.443C216.218 237.38 218.686 235.356 221.195 233.292C223.38 231.512 225.606 229.731 227.832 227.951C229.734 226.413 231.595 224.794 233.497 223.297C235.804 221.436 237.827 219.25 240.053 217.267C242.117 215.406 244.302 213.706 246.447 211.926C248.065 210.631 249.684 209.336 251.303 208.081C251.424 207.96 251.545 207.839 251.626 207.717C251.95 207.555 252.355 207.394 252.638 207.191C255.066 205.411 257.656 204.035 260.489 203.064C261.986 202.578 263.402 201.971 264.981 202.618C265.142 202.699 265.345 202.659 265.547 202.699C269.351 203.023 272.872 204.237 275.947 206.503C277.444 207.596 278.901 208.81 280.398 209.902C281.896 210.995 283.11 212.29 284.162 213.747C285.781 215.932 287.156 218.239 287.925 220.909C288.492 222.933 288.613 224.956 288.249 227.02C287.682 230.176 286.023 232.645 283.555 234.587C282.017 235.801 280.358 236.732 278.375 237.056C277.161 237.258 275.947 237.258 274.733 237.299C272.022 237.42 269.513 236.732 267.206 235.275C266.559 234.871 265.871 234.466 265.223 234.102C264.616 233.778 263.928 233.414 263.2 233.576C261.177 234.061 259.477 235.154 257.939 236.57C258.344 237.177 258.708 237.622 258.991 238.108C259.841 239.565 261.015 240.779 262.31 241.871C263.928 243.247 265.709 244.178 267.894 244.34C268.339 244.34 268.784 244.542 269.189 244.664C268.582 247.051 267.894 249.398 267.328 251.786C267.004 253.162 266.275 253.89 264.94 254.254C262.067 255.023 259.234 255.913 256.402 256.763C255.592 257.006 254.783 257.289 254.014 257.532C253.286 257.775 252.8 258.22 252.719 259.029C252.719 259.232 252.638 259.394 252.598 259.596C251.95 263.724 251.222 267.892 250.655 272.019C250.534 272.95 250.21 273.517 249.401 274.002C246.609 275.621 243.857 277.32 241.065 278.98C239.082 280.153 237.058 281.327 235.035 282.46C234.873 282.055 234.671 281.65 234.509 281.205C233.78 278.939 233.012 276.673 232.364 274.366C232.04 273.193 231.433 272.303 230.543 271.453C228.196 269.227 225.93 266.92 223.664 264.654C223.259 264.25 222.773 263.885 222.531 263.359C222.693 263.238 222.854 263.036 222.976 263.076C223.34 263.117 223.745 263.197 224.068 263.4C224.756 263.764 225.201 263.481 225.768 263.036C228.52 261.012 231.312 259.029 234.064 257.046C235.642 255.913 237.139 254.74 238.677 253.566C241.065 251.826 243.452 250.086 245.84 248.346C248.025 246.768 250.17 245.149 252.355 243.531C253.528 242.64 254.783 241.831 255.795 240.698C256.563 239.808 256.523 238.553 255.795 237.703C254.864 236.692 253.286 236.53 252.152 237.38C249.644 239.241 247.094 241.143 244.585 243.004C242.764 244.34 240.903 245.635 239.122 246.93C236.33 248.994 233.497 251.017 230.786 253.162C228.398 255.023 225.768 256.561 223.542 258.625C222.086 259.232 222.085 260.608 221.843 261.822C221.762 262.267 221.843 262.712 221.843 263.157C221.276 263.602 220.75 264.047 220.184 264.452C214.761 268.499 209.338 272.586 203.956 276.633C202.904 277.401 201.892 278.17 200.678 278.656C199.829 278.98 198.979 279.303 198.21 279.708C193.192 282.217 188.174 284.726 183.197 287.356C178.988 289.622 174.699 291.727 170.45 293.952C165.189 296.664 159.888 299.375 154.627 302.127C154.222 302.329 153.777 302.45 153.534 302.896Z" fill="#FFB68A"/>
<path d="M269.311 244.582C268.865 244.461 268.461 244.299 268.016 244.259C265.871 244.097 264.05 243.126 262.431 241.79C261.136 240.698 260.003 239.484 259.113 238.027C258.83 237.541 258.465 237.056 258.061 236.489C259.558 235.073 261.258 233.98 263.321 233.495C264.05 233.333 264.697 233.697 265.345 234.021C266.033 234.385 266.68 234.789 267.328 235.194C269.634 236.691 272.143 237.339 274.855 237.217C276.069 237.177 277.283 237.137 278.497 236.975C280.52 236.651 282.179 235.72 283.676 234.506C286.145 232.564 287.804 230.095 288.37 226.939C288.735 224.875 288.613 222.852 288.047 220.828C287.278 218.157 285.902 215.891 284.283 213.666C283.231 212.209 281.977 210.873 280.52 209.821C279.023 208.729 277.566 207.515 276.069 206.422C272.953 204.156 269.472 202.942 265.669 202.618C265.466 202.618 265.264 202.618 265.102 202.537C263.524 201.93 262.107 202.497 260.61 202.982C257.777 203.954 255.188 205.329 252.76 207.11C252.436 207.353 252.072 207.474 251.748 207.636C251.626 207.07 251.869 206.624 252.072 206.179C253.083 204.196 254.378 202.456 255.835 200.797C256.199 200.352 256.644 199.947 256.887 199.421C257.939 197.155 259.679 195.375 261.622 193.877C265.466 190.923 269.553 188.293 273.721 185.824C274.328 185.46 274.976 185.136 275.623 184.853C278.254 183.639 280.925 182.425 283.595 181.292C286.307 180.119 289.18 179.754 292.134 180.159C294.562 180.523 296.99 180.806 299.378 181.494C301.077 181.98 302.696 182.668 304.193 183.518C306.904 185.015 309.494 186.715 311.599 189.062C312.408 189.952 313.42 190.68 314.188 191.692C314.391 191.975 314.795 192.178 315.119 192.38C315.402 192.542 315.686 192.663 316.009 192.785C321.108 194.808 325.6 197.843 329.849 201.242C332.803 203.549 335.636 206.017 337.983 208.971C339.602 210.995 341.463 212.816 343.001 214.88C345.753 218.481 348.221 222.285 350.325 226.291C351.418 228.355 352.632 230.338 353.522 232.483C354.008 233.737 354.534 234.992 354.858 236.327C355.424 238.593 355.991 240.819 356.557 243.085C356.638 243.409 356.557 243.733 356.557 244.056C354.332 244.502 352.146 244.947 349.921 245.351C345.915 246.08 341.949 246.808 337.943 247.537C334.22 248.224 330.456 248.912 326.733 249.6C322.686 250.329 318.599 251.098 314.553 251.826C312.529 252.19 310.465 252.514 308.442 252.838C308.199 252.474 307.957 252.109 307.714 251.705C306.621 249.843 305.245 248.265 303.303 247.172C300.106 245.351 296.747 243.895 293.267 242.6C292.579 242.357 291.891 242.276 291.163 242.316C289.868 242.316 288.573 242.397 287.278 242.316C285.578 242.276 283.919 242.478 282.3 242.923C281.167 243.207 280.034 243.49 278.942 243.854C278.254 244.056 277.566 244.218 276.878 244.299C274.328 244.542 271.779 244.744 269.23 244.542L269.311 244.582Z" fill="#8A89DE"/>
<path d="M308.482 252.838C310.506 252.514 312.57 252.191 314.593 251.826C318.64 251.098 322.727 250.369 326.774 249.601C330.496 248.913 334.26 248.184 337.983 247.537C341.989 246.808 345.995 246.08 349.961 245.352C352.187 244.947 354.372 244.461 356.598 244.057C356.719 244.421 356.921 244.785 356.962 245.149C357.043 248.144 357.771 251.138 357.205 254.173C357.043 255.023 357.205 255.954 357.205 256.844C357.083 258.989 356.719 261.053 356.395 263.157C356.112 265.059 355.788 266.961 355.303 268.822C354.412 272.384 353.037 275.783 351.661 279.182C351.175 280.436 350.649 281.691 350.204 282.945C350.082 283.31 350.123 283.714 350.123 284.078C349.435 284.443 349.233 285.171 348.909 285.778C345.955 291.605 342.515 297.149 338.792 302.531C336.769 305.405 334.26 307.833 331.67 310.18C331.306 310.544 330.861 310.827 330.416 311.11C329.687 311.596 329.404 311.556 329.08 310.787C328.473 309.492 327.907 308.197 327.34 306.902C325.964 303.786 324.548 300.629 323.172 297.514C320.987 292.617 318.842 287.68 316.697 282.784C315.321 279.708 313.945 276.633 312.57 273.598C312.124 272.586 311.72 271.574 311.234 270.563C310.91 269.875 310.668 269.106 310.061 268.58C310.384 267.325 310.425 266.03 310.465 264.776C310.465 263.683 310.142 262.631 310.101 261.538C310.101 258.584 309.615 255.671 308.523 252.878L308.482 252.838Z" fill="#FFB78A"/>
<path d="M99.9559 330.332C97.3661 330.454 94.8166 330.697 92.2267 330.899C87.4516 331.304 82.6361 330.939 77.9014 331.304C72.4789 331.708 67.0158 331.385 61.6337 331.668C57.7489 331.87 53.864 331.83 50.0197 332.032C46.5395 332.194 44.3138 330.454 42.5333 327.783C40.3481 324.546 41.0765 319.366 43.7878 316.857C44.9208 315.805 46.0944 314.834 47.5107 314.105C50.8695 312.446 54.3497 311.03 57.7489 309.492C58.3964 309.209 59.0438 308.925 59.6913 308.602C64.9925 305.89 70.3746 303.381 75.8376 300.953C80.4509 298.93 84.9022 299.335 89.1917 301.965C92.0244 303.705 94.6143 305.729 97.2447 307.671C97.9731 308.197 98.7015 308.764 99.4299 309.29C99.4299 310.463 99.268 311.596 99.3894 312.77C99.5513 314.388 99.5513 315.967 99.5917 317.585C99.7131 321.834 99.4703 326.083 100.037 330.292L99.9559 330.332Z" fill="#FFB78B"/>
<path d="M319.732 322.279C320.177 322.401 320.622 322.563 321.068 322.563C322.929 322.563 324.629 323.25 326.247 324.019C329.444 325.517 332.601 327.135 335.798 328.673C336.445 328.997 336.688 329.523 336.809 330.211C337.335 332.922 337.861 335.633 338.428 338.345C339.156 341.825 339.682 345.305 340.573 348.745C340.775 349.554 340.694 349.635 339.804 349.918C339.44 350.04 339.075 350.161 338.711 350.282C338.388 350.323 338.064 350.363 337.74 350.404C335.433 350.97 333.127 351.618 330.78 352.144C328.149 352.71 325.479 353.196 322.808 353.722C319.894 354.289 316.98 354.855 314.067 355.422C309.696 356.272 305.326 357.162 300.956 358.012C297.84 358.619 294.764 359.185 291.648 359.833C289.868 360.197 288.249 360.035 286.59 359.185C283.312 357.567 281.653 354.855 281.41 351.335C281.289 349.595 281.774 347.895 282.705 346.357C283.676 344.779 284.931 343.524 286.428 342.472C288.451 341.056 290.475 339.68 292.538 338.345C295.088 336.686 297.516 334.905 300.025 333.165C303.06 331.061 306.095 328.956 309.089 326.852C310.263 326.043 311.517 325.355 312.448 324.303C312.812 324.222 313.217 324.181 313.541 324.019C315.119 323.25 316.778 322.724 318.559 322.603C318.923 322.603 319.328 322.441 319.692 322.36L319.732 322.279Z" fill="#FFB78A"/>
<path d="M99.9559 330.332C99.4298 326.123 99.6322 321.874 99.5108 317.625C99.4703 316.006 99.4703 314.428 99.3084 312.809C99.187 311.676 99.3084 310.503 99.3489 309.329C100.239 308.844 101.21 308.884 102.141 308.844C104.893 308.641 107.645 308.479 110.396 308.277C111.044 308.237 111.691 308.156 112.298 308.115C112.703 308.318 113.108 308.237 113.512 308.196C113.229 309.37 112.501 310.26 111.894 311.231C109.951 314.347 107.968 317.463 106.066 320.579C104.65 322.886 103.557 325.395 102.505 327.863C102.141 328.672 102.263 329.522 102.263 330.332C101.494 330.332 100.725 330.332 99.9559 330.332Z" fill="#6B6F67"/>
<path d="M319.732 322.28C319.368 322.361 318.963 322.523 318.599 322.523C316.819 322.604 315.159 323.17 313.581 323.939C313.258 324.101 312.853 324.142 312.489 324.223C311.153 323.656 309.777 323.089 308.442 322.482C307.794 322.199 307.107 321.956 306.864 321.187C306.945 320.823 307.107 320.459 307.552 320.338C311.517 319.326 315.2 317.626 319.004 316.21C321.108 315.441 323.212 314.632 325.357 313.823C325.479 313.782 325.6 313.742 325.721 313.742C325.964 313.742 326.247 313.701 326.45 313.903C326.652 314.146 326.531 314.389 326.45 314.632C326.247 315.198 325.802 315.603 325.398 316.008C323.779 317.626 322.201 319.205 320.623 320.823C320.218 321.228 319.732 321.592 319.732 322.28Z" fill="#4A4B46"/>
<path d="M128.243 331.709C128.809 331.547 129.376 331.506 129.902 331.83C129.335 332.032 128.769 332.113 128.243 331.709Z" fill="#AAC0BC"/>
<path d="M113.553 308.197C113.148 308.237 112.744 308.278 112.339 308.116C112.703 307.833 113.148 307.873 113.553 307.873C113.553 307.994 113.553 308.075 113.553 308.197Z" fill="#AAC0BC"/>
<path d="M251.788 207.717C251.667 207.838 251.545 207.96 251.464 208.081C251.464 207.879 251.586 207.717 251.788 207.717Z" fill="#8A89DE"/>
<path d="M127.15 331.789C127.271 331.748 127.393 331.667 127.555 331.627C127.474 331.829 127.352 331.87 127.15 331.789Z" fill="#AAC0BC"/>
<path d="M239.405 292.01C237.139 289.461 235.925 286.385 235.075 283.148C234.994 282.905 235.075 282.662 235.116 282.379C237.139 281.205 239.122 280.072 241.145 278.899C243.937 277.239 246.689 275.58 249.481 273.921C250.291 273.476 250.614 272.869 250.736 271.938C251.302 267.77 252.031 263.643 252.678 259.515C252.678 259.313 252.8 259.151 252.8 258.948C252.881 258.139 253.366 257.694 254.095 257.451C254.904 257.208 255.673 256.925 256.482 256.682C259.315 255.832 262.188 254.983 265.021 254.173C266.356 253.809 267.085 253.081 267.408 251.705C267.975 249.317 268.622 246.97 269.27 244.583C271.819 244.785 274.369 244.583 276.918 244.34C277.808 245.352 278.658 246.404 279.629 247.375C280.358 248.103 281.208 248.629 282.341 248.548C283.433 248.467 284.526 248.548 285.618 248.548C286.387 248.548 287.156 248.548 287.925 248.832C289.382 249.358 290.839 249.843 292.295 250.41C293.388 250.815 294.359 251.502 295.128 252.393C295.735 253.081 296.423 253.647 297.152 254.173C298.406 255.104 299.418 256.278 300.187 257.653C300.874 258.908 301.481 260.162 301.927 261.538C302.574 263.562 303.181 265.585 303.829 267.608C301.886 267.608 299.984 267.608 298.042 267.568C297.475 267.568 296.909 267.568 296.342 267.366C295.654 267.163 294.926 267.123 294.238 267.366C293.307 267.649 292.336 267.568 291.365 267.527C291.365 266.637 291.365 265.706 291.365 264.816C291.365 264.371 291.365 263.926 291.203 263.481C290.798 261.943 290.434 260.365 289.827 258.867C288.815 256.48 287.804 254.133 286.104 252.15C285.457 251.422 284.769 250.774 284.081 250.086C283.838 249.843 283.514 249.681 283.19 249.843C282.3 250.248 281.45 250.653 280.601 251.098C280.034 251.422 279.994 252.109 280.439 252.595C280.641 252.838 280.924 253.04 281.167 253.202C282.057 253.769 282.705 254.538 283.312 255.387C284.404 256.966 284.971 258.746 285.497 260.527C286.144 262.833 286.428 265.18 286.306 267.608C285.659 267.73 285.052 267.973 284.404 267.973C281.329 267.973 278.415 268.741 275.502 269.429C272.224 270.198 269.31 271.615 266.639 273.597C264.333 275.338 262.188 277.28 260.367 279.587C259.436 280.76 258.627 281.974 257.858 283.229C257.089 284.483 255.997 285.252 254.783 286.061C251.221 288.368 247.134 289.42 243.209 290.836C241.955 291.282 240.619 291.646 239.365 292.091L239.405 292.01Z" fill="#894100"/>
<path d="M339.237 330.049C338.104 330.049 337.093 329.24 336.89 328.39C336.688 327.378 337.052 326.65 338.064 326.245C339.075 325.841 340.087 325.436 341.139 325.072C347.493 322.927 353.927 320.944 360.24 318.678C366.917 316.291 373.715 314.227 380.392 311.799C387.029 309.411 393.706 307.307 400.383 305.041C402.77 304.231 405.118 303.382 407.505 302.532C407.991 302.37 408.476 302.168 409.002 302.087C410.095 301.925 410.985 302.451 411.309 303.422C411.592 304.312 411.188 305.445 410.338 305.931C409.933 306.133 409.488 306.295 409.083 306.417C405.644 307.59 402.244 308.723 398.805 309.856C390.792 312.568 382.82 315.279 374.808 317.99C367.524 320.459 360.28 322.927 352.996 325.396C348.949 326.771 344.943 328.188 340.937 329.564C340.33 329.766 339.723 329.928 339.278 330.049H339.237Z" fill="#494A45"/>
<path d="M286.347 267.527C286.468 265.14 286.225 262.752 285.537 260.446C285.011 258.665 284.445 256.885 283.352 255.306C282.745 254.457 282.098 253.688 281.207 253.121C280.924 252.959 280.681 252.757 280.479 252.514C279.993 252.029 280.074 251.341 280.641 251.017C281.491 250.531 282.34 250.127 283.231 249.762C283.554 249.601 283.878 249.762 284.121 250.005C284.809 250.693 285.537 251.341 286.144 252.069C287.844 254.052 288.856 256.399 289.867 258.787C290.474 260.284 290.839 261.862 291.243 263.4C291.365 263.845 291.365 264.29 291.405 264.735C291.405 265.625 291.405 266.556 291.405 267.446C289.705 267.446 288.046 267.447 286.347 267.487V267.527Z" fill="#633207"/>
<path d="M222.652 263.278C222.409 263.278 222.166 263.197 221.923 263.157C221.923 262.712 221.842 262.226 221.923 261.822C222.166 260.567 222.126 259.191 223.623 258.625C225.849 256.561 228.479 255.023 230.867 253.162C233.618 251.017 236.411 248.993 239.203 246.93C241.024 245.594 242.885 244.299 244.666 243.004C247.215 241.143 249.724 239.241 252.233 237.379C253.366 236.53 254.944 236.651 255.875 237.703C256.644 238.553 256.644 239.808 255.875 240.698C254.904 241.831 253.65 242.64 252.436 243.53C250.25 245.109 248.106 246.727 245.92 248.346C243.533 250.086 241.145 251.826 238.758 253.566C237.22 254.699 235.682 255.913 234.144 257.046C231.393 259.07 228.6 261.012 225.849 263.036C225.282 263.481 224.837 263.723 224.149 263.4C223.825 263.238 223.421 263.157 223.056 263.076C222.935 263.076 222.773 263.278 222.611 263.359L222.652 263.278Z" fill="#E7A37B"/>
</svg>
