<svg width="500" height="500" viewBox="0 0 500 500" fill="none" xmlns="http://www.w3.org/2000/svg">
<path d="M111.054 255.91C110.92 259.251 111.054 262.593 111.054 265.934C111.188 269.677 111.455 273.419 111.589 277.161C111.722 281.438 111.856 285.715 112.123 289.992C112.257 294.002 112.524 298.012 112.791 302.022C113.192 308.972 113.727 315.788 114.128 322.738C114.395 326.347 114.663 329.956 114.93 333.565C115.197 336.371 115.465 339.045 115.465 341.851C115.465 345.193 116.133 348.401 116.534 351.742C117.068 355.618 117.469 359.628 118.004 363.504C118.539 368.315 119.073 373.127 119.608 377.805C119.608 378.34 119.875 379.008 120.009 379.543C122.281 386.894 125.489 393.844 130.167 399.992C132.84 403.601 135.914 406.809 139.523 409.616C144.335 413.358 149.815 415.897 155.695 417.1C158.101 417.635 160.507 417.902 162.913 418.036C164.517 418.036 166.121 418.437 167.858 418.303C170.665 418.303 173.472 417.635 176.279 417.1C176.947 417.1 177.615 416.833 178.15 416.699C181.759 416.031 185.1 414.695 188.174 412.69C189.11 412.155 190.045 411.62 190.847 411.086C193.654 409.616 196.193 407.744 198.867 406.007C201.673 404.002 204.614 401.997 207.421 399.859C211.43 396.784 215.173 393.443 218.782 389.968C219.717 389.032 220.653 388.23 221.722 387.295C224.93 384.622 228.004 382.082 230.944 379.142C231.613 378.473 232.415 377.805 233.083 377.137C239.632 371.523 245.647 365.509 251.661 359.36C253.8 357.088 256.206 354.95 258.21 352.544C259.28 351.341 260.483 350.405 261.685 349.336C262.354 348.668 263.156 348.133 263.69 347.465C263.022 347.331 262.487 347.465 261.953 347.732C258.478 348.802 255.003 349.47 251.26 349.336C249.389 349.336 247.651 349.336 245.78 349.069C244.444 348.802 242.973 348.802 241.637 348.534C234.954 347.064 228.672 344.525 222.925 340.916C218.782 338.376 214.772 335.436 211.297 331.827C210.896 331.293 210.361 330.892 209.827 330.491C208.49 329.689 207.955 328.352 206.886 327.283C206.351 326.614 206.351 325.813 206.886 325.144C207.287 324.476 207.955 324.075 208.891 324.075C209.559 324.075 210.094 324.342 210.628 324.877C212.633 326.882 214.638 329.02 216.91 330.892C218.782 332.495 220.786 334.099 222.791 335.436C225.197 337.04 227.737 338.376 230.41 339.713C233.617 341.317 236.959 342.52 240.3 343.455C243.775 344.257 247.25 344.926 250.859 344.792C252.329 344.792 253.8 344.792 255.404 344.391C257.141 344.124 258.879 343.856 260.616 343.322C262.086 342.921 263.423 342.386 264.76 341.584C265.695 341.049 266.363 341.317 267.165 341.851C267.566 342.252 267.967 342.787 268.368 343.188C269.839 341.584 271.576 340.515 273.447 339.446C276.12 338.109 278.794 336.505 281.333 334.768C282.269 334.233 283.204 333.698 284.14 333.297C294.03 328.486 303.921 323.808 313.812 318.996C319.024 316.457 324.237 313.65 329.583 311.11C330.92 310.442 332.256 309.907 333.593 309.373C333.994 309.239 334.395 309.105 334.662 309.105C335.865 308.972 336.4 309.373 336.266 310.576C336.132 312.046 335.865 313.516 335.598 315.12C335.598 315.655 335.464 316.323 335.464 316.858C335.197 321.402 334.93 326.08 335.063 330.624C335.063 333.832 335.331 337.04 335.598 340.248C335.731 343.054 335.999 345.861 336.266 348.668C336.533 350.94 336.801 353.212 337.202 355.484C337.87 360.162 338.672 364.707 339.34 369.385C339.608 371.256 340.009 373.127 340.543 374.998C341.345 378.34 342.147 381.815 342.414 385.29C344.152 385.29 345.889 385.156 347.761 385.156C353.508 385.156 359.121 384.889 364.869 384.622C368.344 384.488 371.685 384.622 375.16 384.221C375.561 378.607 375.428 372.993 375.695 367.38C375.962 362.301 376.096 357.222 376.363 352.143C376.497 347.198 376.631 342.252 376.764 337.307C376.898 332.629 377.165 327.817 377.299 323.139C377.299 319.664 377.7 316.189 377.299 312.714C377.299 312.313 377.299 311.912 377.299 311.511C377.165 307.368 376.898 303.225 376.764 299.081C376.764 297.611 376.497 296.141 376.363 294.804C376.23 292.532 376.096 290.393 375.962 288.121C375.829 286.116 375.428 284.245 374.893 282.24C373.824 278.632 372.487 275.29 370.75 271.949C369.814 270.078 368.611 268.474 367.007 267.137C364.601 264.865 361.928 262.86 359.121 261.256C356.849 259.92 354.443 259.118 352.038 258.449C350.968 258.182 350.033 257.781 348.964 257.514C346.558 256.846 344.152 256.578 341.746 256.578C336.667 256.578 331.722 257.781 326.776 259.118C323.97 259.92 321.029 260.588 318.222 261.524C316.218 262.192 314.213 263.127 312.208 263.929C311.807 264.063 311.406 264.33 310.871 264.464C309.936 264.999 309 265.4 308.064 265.934C305.926 266.87 303.787 267.805 301.783 268.607C294.966 271.548 288.15 274.622 281.333 277.562C274.517 280.503 267.7 283.443 260.884 286.384C258.077 287.587 255.404 288.79 252.463 289.725C251.795 289.859 251.394 289.859 250.859 289.458C248.587 287.854 246.315 286.25 244.176 284.646C242.305 283.31 240.3 282.107 238.696 280.503C236.424 280.904 234.419 282.107 232.415 283.443C230.543 284.78 228.538 286.25 226.667 287.587C222.658 290.527 219.182 294.269 215.975 298.146C212.633 302.289 209.96 306.833 207.955 311.779C206.619 315.12 205.95 318.461 205.817 321.936C205.683 324.61 205.817 323.941 204.079 325.679C203.812 325.946 203.545 326.08 203.411 326.347C196.728 332.763 190.045 339.045 183.362 345.46C177.348 351.207 171.2 356.955 165.319 362.836C165.185 362.969 164.918 363.237 164.784 363.37C163.982 363.905 163.047 363.771 162.512 362.969C162.245 362.568 162.111 362.034 162.111 361.499C162.111 359.227 161.977 356.955 161.71 354.816C161.175 350.94 161.042 346.93 160.774 343.054C160.373 339.045 159.972 334.901 159.304 330.892C158.369 324.61 157.032 318.328 155.562 312.046C153.29 302.022 150.349 292.265 146.206 282.909C145.805 281.973 145.404 280.904 145.136 279.968C143.8 274.355 142.33 268.875 140.993 263.261C140.459 260.855 139.79 258.583 139.523 256.044C137.785 256.445 136.048 256.445 134.177 256.177C133.642 256.177 133.107 256.044 132.573 256.044C127.093 256.044 121.479 256.044 115.999 255.643C114.395 255.643 112.658 255.643 111.054 255.643V255.91Z" fill="#686D65"/>
<path d="M111.054 255.911C112.658 255.911 114.395 255.911 115.999 255.911C121.479 256.312 127.093 256.178 132.573 256.312C133.107 256.312 133.642 256.312 134.177 256.446C135.914 256.713 137.652 256.579 139.523 256.312C140.191 254.708 141.26 253.372 142.463 252.169C143.666 250.832 144.602 249.362 145.404 247.758C145.805 246.822 146.206 245.753 145.938 244.684C145.671 243.481 145.537 242.278 145.136 241.209C143.666 237.333 141.795 233.59 139.657 230.115C136.181 224.502 132.172 219.289 128.162 214.076C127.093 212.74 126.157 211.403 125.222 210.067C124.553 211.938 123.885 212.339 122.147 211.804C121.345 211.537 120.41 211.671 119.608 211.403C118.94 211.27 118.672 211.403 118.405 212.072C117.469 214.878 116.4 217.552 115.465 220.492C114.529 223.833 113.326 227.041 112.257 230.383C112.257 230.784 111.989 231.051 111.589 231.318C111.188 231.719 110.519 231.853 109.985 231.586C109.316 231.185 109.049 230.65 109.183 229.982C109.316 229.313 109.45 228.645 109.717 228.11C111.722 222.23 113.593 216.349 115.598 210.601C115.732 210.067 115.999 209.666 116.267 209.131C116.667 208.463 117.202 208.062 117.87 208.196C120.143 208.597 122.548 208.329 124.687 209.666C124.687 209.666 124.954 209.666 125.088 209.666C125.89 208.73 125.756 207.661 125.623 206.725C125.355 205.121 124.954 203.651 124.687 202.047C123.885 198.706 122.949 195.364 122.281 191.889C122.281 191.221 122.281 190.686 122.281 190.018C123.217 186.944 124.152 183.736 125.222 180.529C126.558 176.251 127.895 171.841 129.231 167.564C130.167 164.356 131.236 161.148 132.172 157.94C132.84 155.668 133.642 153.262 134.31 150.99C134.444 150.589 134.578 150.188 135.112 149.921C135.246 149.386 135.112 148.718 135.379 148.05C135.379 146.713 136.048 145.377 136.449 144.04C137.384 141.233 138.053 138.293 139.122 135.62C139.122 135.085 139.256 134.55 139.523 134.15C139.924 133.214 140.325 132.412 140.726 131.476C140.859 131.075 141.26 131.075 141.528 131.209C141.795 131.343 142.062 131.476 142.33 131.744C143.8 132.813 145.27 133.882 146.74 135.085C151.017 138.159 155.161 141.367 159.438 144.441C163.715 147.649 167.992 150.857 172.269 153.931C176.68 157.272 181.09 160.48 185.635 163.821C186.036 164.089 186.57 164.356 186.704 165.024C187.372 165.024 187.907 165.559 188.441 165.826C189.778 166.762 191.114 167.831 192.451 168.633C196.995 171.574 201.272 174.915 205.817 177.722C206.218 177.989 206.619 178.256 206.886 178.524C206.886 178.524 207.153 178.791 207.287 178.791C208.49 178.925 209.426 179.593 210.361 180.128C213.168 181.731 216.108 183.202 219.182 184.004C222.39 184.806 225.464 186.142 228.672 186.543C231.078 186.81 233.484 187.345 235.89 187.078C239.097 186.677 242.038 185.607 244.577 183.603C248.721 180.128 251.127 175.851 251.928 170.504C252.329 167.831 252.062 165.158 251.127 162.752C250.458 160.747 249.389 158.742 248.186 157.005C247.785 156.47 247.384 155.936 246.983 155.535C244.845 153.262 242.171 151.659 239.231 150.456C238.563 150.188 237.761 149.921 237.093 149.386C238.295 148.183 239.766 147.649 241.37 147.248C242.305 147.114 243.241 146.847 244.043 146.713C245.513 146.312 247.117 146.045 248.721 146.045C249.255 146.045 249.79 146.045 250.191 145.644C249.924 145.243 249.656 145.109 249.255 144.842C244.176 141.501 239.097 138.159 234.018 135.085C232.682 134.283 231.479 133.481 230.142 132.546C229.073 131.877 227.87 131.075 226.801 130.407C226.266 130.14 225.732 129.739 225.331 129.338C224.395 128.536 224.128 127.734 224.529 126.531C224.662 125.996 224.93 125.462 225.197 124.927C226.133 122.922 227.068 120.917 228.004 118.779C228.672 117.175 229.207 115.438 229.34 113.7C229.474 110.492 228.271 107.953 226.266 105.547C225.331 104.478 224.261 103.408 223.059 102.606C220.385 100.468 218.381 97.7948 217.044 94.587C215.975 92.1812 215.306 89.7754 214.905 87.2359C214.772 86.1666 214.371 85.231 214.103 84.1618C213.97 83.4935 213.569 82.9588 213.034 82.4242C212.232 81.4886 211.163 81.0876 209.96 81.6223C209.158 82.0232 208.223 82.2906 207.421 82.6915C204.881 84.0281 202.342 85.0974 199.669 86.1666C197.396 86.9686 195.124 87.6368 192.852 88.0378C189.912 88.4388 187.105 87.7705 184.432 86.7012C183.63 86.3003 182.694 86.033 181.892 85.632C181.491 85.4983 181.09 85.231 180.556 85.3647C180.556 86.033 181.09 86.4339 181.358 86.9686C184.031 91.1119 186.837 95.1216 188.976 99.666C189.377 100.468 189.912 101.27 190.313 102.072C191.515 104.344 192.852 106.75 193.788 109.156C194.59 111.16 194.59 113.165 194.055 115.17C193.654 116.64 193.253 118.111 192.852 119.581C192.317 121.719 192.585 123.858 193.654 125.863C193.921 126.264 194.055 126.665 194.322 127.066C195.659 128.937 196.594 130.942 197.396 132.947C197.664 132.947 197.931 132.947 198.198 132.679C199 132.011 199.936 132.011 200.871 132.145C201.406 132.145 201.941 132.412 202.342 132.546C204.079 133.348 205.95 133.882 207.688 134.55C211.564 136.021 215.44 137.625 219.316 139.095C224.395 140.966 229.34 142.837 234.419 144.708C236.157 145.377 236.558 146.045 236.291 147.916C236.291 148.451 236.023 148.718 235.489 148.985C234.687 149.386 233.885 149.52 233.083 149.253C230.944 148.451 228.806 147.783 226.801 146.847C221.989 144.708 216.91 143.105 212.099 141.233C208.089 139.629 204.079 138.293 200.069 136.689C198.867 136.288 197.931 135.486 197.396 134.15C196.995 133.882 196.594 133.749 196.193 133.481C191.916 130.674 187.506 127.868 183.229 125.061C176.145 120.516 169.061 115.838 161.977 111.294C157.166 108.086 152.087 105.28 146.874 102.606C146.473 102.473 146.206 102.205 146.072 101.805C145.136 101.938 144.201 101.537 143.399 101.136C140.726 100.201 138.053 99.5323 135.246 99.7996C133.776 99.9333 132.439 100.201 131.102 100.735C129.9 101.27 128.83 102.072 128.028 103.141C126.558 104.879 125.222 106.616 124.152 108.621C121.88 112.23 120.276 116.106 118.672 119.982C117.87 121.853 117.068 123.724 116.267 125.595C113.994 131.343 112.123 137.224 110.653 143.238C109.316 148.317 108.113 153.396 106.376 158.475C104.772 163.019 103.302 167.564 101.698 172.108C101.163 173.712 100.762 175.45 100.228 177.053C99.2921 179.593 98.4901 181.999 97.4209 184.405C96.3516 187.078 95.6833 189.885 95.015 192.691C95.015 192.825 95.015 193.092 95.015 193.226C95.015 195.632 94.7477 197.904 94.4804 200.31C94.2131 202.849 94.4804 205.389 93.8121 207.928C93.8121 207.928 93.8121 208.196 93.8121 208.329C93.6785 212.74 93.2775 217.284 93.2775 221.695C93.2775 222.096 93.2775 222.497 93.2775 222.898C93.4111 223.833 93.9458 224.635 94.8814 225.036C97.1536 225.972 99.1584 227.308 101.297 228.511C103.168 229.714 105.173 230.516 107.044 231.586C107.579 231.853 107.98 232.12 108.381 232.254C108.782 232.521 109.049 232.788 109.049 233.323C109.049 235.194 109.316 237.065 109.45 239.07C109.717 241.877 109.851 244.684 110.118 247.491C110.386 250.164 110.787 252.837 110.653 255.51L111.054 255.911Z" fill="#FFB78A"/>
<path d="M250.191 145.509C249.79 145.91 249.256 145.91 248.721 145.91C247.117 145.91 245.647 146.177 244.043 146.578C243.107 146.845 242.305 146.979 241.37 147.113C239.766 147.514 238.429 148.048 237.093 149.251C237.761 149.786 238.563 149.919 239.231 150.32C242.172 151.523 244.845 152.993 246.983 155.399C247.384 155.934 247.919 156.335 248.186 156.87C249.389 158.607 250.459 160.612 251.127 162.617C252.062 165.156 252.196 167.829 251.929 170.369C251.26 175.715 248.721 180.126 244.578 183.467C242.038 185.606 239.098 186.541 235.89 186.942C233.484 187.21 231.078 186.675 228.672 186.408C225.331 186.007 222.391 184.67 219.183 183.868C215.975 183.066 213.168 181.73 210.361 179.992C209.426 179.458 208.49 178.789 207.287 178.656C207.287 178.923 207.287 179.19 207.287 179.458C207.956 181.462 208.891 183.467 210.228 185.205C212.366 188.012 214.505 190.818 216.643 193.759C220.386 198.838 224.262 203.649 227.603 208.996C228.539 210.466 229.608 211.936 230.677 213.406C232.548 215.946 234.553 218.352 236.425 220.891C239.766 225.436 243.107 230.114 246.315 234.925C248.053 237.598 249.389 240.272 250.191 243.346C251.528 243.078 252.864 242.544 254.067 241.875C257.943 239.737 261.819 237.732 265.695 235.594C267.567 234.524 269.571 233.589 271.443 232.519C278.126 228.911 284.808 225.302 291.491 221.827C295.1 219.956 298.709 218.084 302.317 216.08C305.124 214.609 307.931 213.005 310.872 211.535C312.208 210.867 313.545 210.199 314.881 209.53C315.015 207.659 314.748 205.654 314.347 203.783C313.545 198.971 312.342 194.293 310.471 189.883C307.931 184.002 304.991 178.388 301.115 173.176C299.11 170.503 296.838 168.097 294.565 165.825C291.759 163.018 288.952 160.478 285.878 158.072C282.67 155.533 279.195 153.528 275.586 151.791C272.779 150.454 269.705 149.385 266.898 148.048C265.562 147.514 264.092 147.246 262.755 146.979C259.414 146.444 255.938 145.91 252.597 145.642C251.795 145.642 250.993 145.375 250.191 145.375V145.509Z" fill="#8A89DE"/>
<path d="M315.015 209.399C313.678 210.068 312.342 210.736 311.005 211.404C308.198 212.874 305.391 214.478 302.451 215.948C298.842 217.82 295.234 219.691 291.625 221.696C284.942 225.304 278.259 228.913 271.576 232.388C269.705 233.458 267.7 234.393 265.829 235.462C261.953 237.601 258.077 239.606 254.201 241.744C252.998 242.413 251.661 242.947 250.325 243.215C250.057 243.883 249.79 244.551 249.79 245.219C249.523 247.224 249.389 249.095 248.988 251.1C248.053 255.912 247.251 260.724 245.914 265.535C245.513 267.139 244.978 268.877 244.177 270.347C242.439 273.421 240.835 276.495 239.098 279.436C238.83 279.837 238.697 280.238 238.697 280.772C240.3 282.376 242.305 283.579 244.177 284.916C246.449 286.519 248.721 288.123 250.859 289.727C251.394 290.128 251.795 290.128 252.463 289.994C255.404 289.193 258.077 287.856 260.884 286.653C267.7 283.713 274.517 280.772 281.333 277.832C288.15 274.891 294.966 271.817 301.783 268.877C303.921 267.941 306.06 267.139 308.065 266.204C309 265.803 309.936 265.268 310.871 264.733C311.139 262.862 311.941 261.125 312.609 259.253C313.411 256.981 313.812 254.709 314.213 252.303C314.614 249.897 315.015 247.492 315.282 245.086C315.549 243.616 315.683 242.145 315.817 240.541C316.485 232.789 316.218 225.171 316.218 217.419C316.218 215.681 315.817 214.077 315.683 212.34C315.683 211.671 315.549 211.003 315.416 210.335C315.416 209.934 315.416 209.533 315.015 209.266V209.399Z" fill="#FFB68A"/>
<path d="M375.16 384.621C371.819 385.022 368.344 384.888 364.869 385.022C359.122 385.289 353.508 385.423 347.761 385.557C346.023 385.557 344.286 385.824 342.414 385.69C342.414 386.359 342.281 387.027 342.281 387.695C342.281 390.769 342.281 393.71 342.281 396.784C342.281 399.724 342.682 402.665 343.484 405.605C344.553 409.348 346.691 412.422 349.632 414.828C350.968 415.897 352.439 416.565 354.176 416.699C357.117 417.1 360.191 417.768 363.131 418.035C365.537 418.303 367.809 418.303 370.215 418.436C373.423 418.436 376.497 418.303 379.705 418.436C382.912 418.436 385.987 418.436 389.194 418.436C390.397 418.436 391.6 418.035 392.937 418.169C393.204 418.169 393.605 418.169 393.872 418.169C395.744 418.436 397.615 418.169 399.486 417.768C400.422 417.634 401.491 417.768 402.426 417.233C404.565 416.431 406.035 415.095 406.436 412.689C406.436 412.154 406.703 411.486 406.837 410.952C407.238 408.412 406.837 405.873 406.302 403.333C405.768 401.462 404.431 399.992 402.827 398.922C400.823 397.452 398.55 396.383 396.145 395.447C395.343 395.18 394.541 394.779 393.739 394.378C389.595 392.24 385.318 390.235 381.175 388.096C379.571 387.294 378.101 386.359 376.363 385.69C375.829 385.423 375.294 385.156 374.893 384.621H375.16Z" fill="#FFB689"/>
<path d="M146.607 101.938C146.74 102.339 147.008 102.606 147.409 102.74C152.621 105.413 157.567 108.22 162.512 111.428C169.596 115.972 176.68 120.65 183.764 125.194C188.041 128.001 192.451 130.808 196.728 133.615C197.129 133.882 197.53 134.149 197.931 134.283C197.931 133.882 197.931 133.347 197.931 132.946C197.129 130.808 196.194 128.803 194.857 127.065C194.59 126.664 194.322 126.263 194.189 125.862C193.12 123.858 192.852 121.719 193.387 119.581C193.788 118.11 194.189 116.64 194.59 115.17C195.124 113.165 194.991 111.16 194.322 109.155C193.387 106.75 192.05 104.344 190.847 102.072C190.446 101.27 189.912 100.468 189.511 99.6657C187.372 95.255 184.565 91.1116 181.892 86.9683C181.625 86.4336 181.09 86.0327 181.09 85.3644C180.823 85.3644 180.689 85.2307 180.689 84.9634C180.155 84.6961 179.62 84.5624 178.952 84.5624C173.338 84.1615 168.126 85.0971 163.047 87.5029C156.898 90.4433 151.953 94.854 147.943 100.334C147.542 100.869 147.141 101.403 146.874 101.938H146.607Z" fill="#894100"/>
<path d="M268.635 343.457C268.235 343.056 267.967 342.521 267.433 342.12C266.764 341.585 265.962 341.318 265.027 341.853C263.69 342.655 262.354 343.189 260.883 343.59C259.146 344.125 257.408 344.392 255.671 344.66C254.201 344.927 252.73 344.927 251.126 345.061C247.518 345.061 244.043 344.526 240.568 343.724C237.092 342.922 233.751 341.585 230.677 339.982C228.137 338.645 225.598 337.308 223.058 335.705C220.92 334.368 219.049 332.764 217.178 331.16C214.905 329.289 212.9 327.284 210.896 325.146C210.361 324.611 209.826 324.344 209.158 324.344C208.223 324.344 207.688 324.745 207.153 325.413C206.619 326.215 206.619 327.017 207.153 327.552C208.089 328.621 208.757 329.957 210.094 330.759C210.628 331.16 211.029 331.561 211.564 332.096C215.039 335.705 219.049 338.511 223.192 341.185C228.939 344.793 235.355 347.199 241.904 348.803C243.241 349.07 244.577 349.204 246.047 349.338C247.919 349.605 249.656 349.605 251.527 349.605C255.136 349.605 258.745 349.07 262.22 348.001C262.755 347.867 263.289 347.6 263.958 347.734C264.893 347.199 265.829 346.664 266.764 346.13C267.967 345.595 268.636 344.66 268.502 343.189L268.635 343.457Z" fill="#494A45"/>
<path d="M180.422 84.8301C180.422 85.0974 180.556 85.231 180.823 85.231C180.823 84.9637 180.689 84.8301 180.422 84.8301Z" fill="#FFB78A"/>
<path d="M135.246 149.787C135.914 154.733 136.449 159.678 137.251 164.623C138.053 168.9 138.587 173.044 139.523 177.321C140.726 183.469 142.463 189.617 144.602 195.632C145.671 198.438 146.473 201.379 147.542 204.186C148.879 207.661 150.617 211.002 152.755 214.21C155.027 217.418 158.235 219.289 162.245 219.556C163.047 219.556 163.849 219.556 164.651 219.556C165.853 219.69 166.789 219.155 167.591 218.353C168.794 217.15 169.863 215.947 170.799 214.611C171.467 213.542 172.002 212.472 172.269 211.136C172.937 207.794 173.739 204.453 174.274 201.112C174.675 198.706 174.942 196.3 175.343 193.894C176.011 190.018 176.68 186.276 177.482 182.4C178.15 179.325 178.952 176.251 179.62 173.177C179.62 172.776 179.62 172.375 179.62 171.974C179.219 171.974 178.685 171.974 178.284 172.242C175.878 172.776 173.472 173.311 170.932 173.177C169.329 173.177 167.725 173.177 165.987 172.91C162.913 172.509 160.106 171.707 157.299 170.504C152.755 168.633 148.745 165.692 145.137 162.217C144.201 161.415 143.666 160.346 142.864 159.544C141.261 157.807 139.924 155.802 138.721 153.797C137.518 151.926 136.583 149.787 135.513 147.916C135.112 148.451 135.513 149.119 135.246 149.787Z" fill="#894100"/>
<path d="M181.491 166.358C182.026 166.358 182.56 166.358 182.961 166.091C184.164 165.556 185.501 165.155 186.837 164.754C186.837 164.22 186.303 163.952 185.768 163.551C181.357 160.21 176.947 157.002 172.402 153.661C168.125 150.453 163.848 147.245 159.571 144.171C155.294 141.097 151.151 137.889 146.874 134.815C145.404 133.746 143.933 132.677 142.463 131.474C142.196 131.34 141.929 131.073 141.661 130.939C141.26 130.805 140.993 130.939 140.859 131.206C140.458 132.142 140.057 132.944 139.656 133.88C139.389 134.414 139.255 134.815 139.255 135.35C139.656 135.35 139.924 135.617 140.057 136.152C140.592 138.29 141.394 140.429 142.33 142.434C143.666 145.107 145.136 147.78 147.275 150.052C148.611 151.656 149.948 153.26 151.285 154.864C151.953 155.666 152.889 156.067 153.557 156.735C154.492 157.804 155.695 158.606 156.765 159.274C160.373 161.547 164.249 163.418 168.393 164.621C169.863 165.022 171.467 165.423 172.937 165.69C174.407 165.957 175.744 166.091 177.214 166.225C178.551 166.225 180.021 166.225 181.357 166.225L181.491 166.358Z" fill="#894100"/>
<path d="M181.491 166.359C180.155 166.359 178.684 166.359 177.348 166.359C175.878 166.359 174.541 166.092 173.071 165.825C171.467 165.557 169.997 165.156 168.526 164.755C164.383 163.552 160.507 161.681 156.898 159.409C155.695 158.607 154.626 157.939 153.69 156.87C153.022 156.201 152.087 155.8 151.418 154.998C150.082 153.394 148.745 151.791 147.409 150.187C145.404 147.914 143.933 145.241 142.463 142.568C141.394 140.563 140.592 138.425 140.191 136.286C140.191 135.885 139.924 135.618 139.389 135.484C138.32 138.291 137.518 141.098 136.716 143.905C136.315 145.241 135.78 146.444 135.647 147.914C136.716 149.786 137.652 151.924 138.855 153.795C140.191 155.8 141.394 157.805 142.998 159.543C143.8 160.345 144.468 161.414 145.27 162.216C148.879 165.557 152.889 168.498 157.433 170.503C160.24 171.705 163.046 172.507 166.121 172.908C167.724 173.176 169.328 173.176 171.066 173.176C173.605 173.176 176.011 172.775 178.417 172.24C178.818 172.24 179.353 171.973 179.754 171.973C180.021 171.572 180.155 171.171 180.021 170.636C180.021 169.567 180.422 168.631 181.224 167.963C181.892 167.428 181.625 166.894 181.491 166.359Z" fill="#62350E"/>
<path d="M197.797 132.812C197.797 133.213 197.797 133.748 197.797 134.149C198.198 135.485 199.268 136.153 200.471 136.688C204.48 138.158 208.49 139.629 212.5 141.232C217.311 143.237 222.39 144.841 227.202 146.846C229.207 147.782 231.345 148.45 233.484 149.252C234.286 149.653 235.088 149.519 235.89 148.985C236.291 148.717 236.558 148.45 236.692 147.915C236.959 146.178 236.558 145.376 234.82 144.707C229.741 142.836 224.662 140.965 219.717 139.094C215.841 137.624 211.965 136.02 208.089 134.55C206.351 133.881 204.48 133.213 202.743 132.545C202.208 132.277 201.807 132.144 201.272 132.144C200.337 132.144 199.401 132.01 198.599 132.678C198.466 132.812 198.065 132.812 197.797 132.946V132.812Z" fill="#E6A37B"/>
<path d="M125.088 210.067C125.088 209.933 125.088 209.799 125.088 209.666C125.088 209.666 124.821 209.666 124.687 209.666C122.549 208.329 120.143 208.73 117.871 208.195C117.202 208.195 116.668 208.463 116.267 209.131C115.999 209.532 115.732 210.067 115.598 210.601C113.594 216.482 111.722 222.363 109.717 228.11C109.45 228.779 109.316 229.313 109.183 229.981C109.049 230.65 109.183 231.318 109.985 231.585C110.519 231.853 111.188 231.719 111.589 231.318C111.856 231.051 112.123 230.783 112.257 230.382C113.326 227.041 114.529 223.833 115.465 220.492C116.267 217.685 117.336 214.878 118.405 212.071C118.672 211.403 118.806 211.269 119.608 211.403C120.41 211.67 121.346 211.537 122.148 211.804C123.885 212.339 124.553 211.804 125.222 210.067H125.088Z" fill="#E7A47C"/>
<path d="M207.02 178.391C207.02 178.524 207.02 178.658 207.421 178.658C207.421 178.658 207.154 178.391 207.02 178.391Z" fill="#8A89DE"/>
</svg>
