<svg width="500" height="500" viewBox="0 0 500 500" fill="none" xmlns="http://www.w3.org/2000/svg">
<path d="M214.02 203.232C207.293 202.127 200.473 202.265 193.699 202.265C190.105 202.265 186.465 202.265 182.87 202.265C181.258 202.265 179.645 202.08 178.032 201.942C174.622 201.62 171.212 201.205 167.802 200.975C165.498 200.836 163.194 200.882 160.89 200.882C158.033 200.882 155.177 201.021 152.274 201.021C148.91 201.021 145.546 200.929 142.182 200.882C138.311 200.836 134.441 200.652 130.616 200.744C126.607 200.836 122.644 200.929 118.635 200.79C113.751 200.652 108.913 200.929 104.074 201.021C101.586 201.021 99.0977 201.251 96.6094 201.574C94.9044 201.804 93.1534 201.85 91.4024 202.08C88.3151 202.495 85.2277 202.91 82.2326 203.739C81.311 203.97 80.4354 204.2 79.5138 204.292C77.2559 204.477 75.0902 204.984 72.9244 205.675C68.4086 207.149 64.1693 209.223 60.2065 211.895C59.4692 212.402 58.778 212.909 58.1329 213.508C57.2113 214.292 56.5202 215.167 55.9211 216.227C54.7691 218.254 53.7093 220.282 53.1102 222.54C52.0504 226.411 52.0965 230.189 53.8014 233.875C54.3083 235.027 55.0456 236.041 55.8289 237.009C58.5476 240.28 61.8654 242.769 65.5978 244.704C66.7498 245.303 67.9939 245.764 69.2381 246.179C73.3852 247.561 77.5785 248.805 81.91 249.404C84.3983 249.727 86.8405 250.095 89.3288 250.326C96.5172 251.017 103.752 251.155 110.986 251.247C115.041 251.293 119.05 251.616 123.105 252.077C128.358 252.676 133.611 253.505 138.91 253.828C139.325 253.828 139.786 253.782 140.201 254.289C139.786 254.565 139.279 254.473 138.864 254.565C138.357 254.657 137.897 254.796 137.39 254.842C131.446 255.717 125.501 256.178 119.511 256.408C116.977 256.5 114.396 256.731 111.862 256.915C110.065 257.053 108.268 257.1 106.47 256.961C104.259 256.823 102.001 257.053 99.7428 257.284C96.4711 257.652 93.1534 257.929 89.8818 258.252C89.8357 258.252 89.7435 258.252 89.6974 258.252C86.6101 258.804 83.4767 258.712 80.4354 259.311C75.8736 260.141 71.4499 261.385 67.3488 263.597C65.0448 264.841 62.787 266.177 60.5751 267.56C57.7182 269.311 55.6907 271.799 54.2161 274.748C52.972 277.236 52.2347 279.863 52.0965 282.628C51.9122 286.544 53.1563 289.954 55.7368 292.949C58.4555 296.037 61.681 298.433 65.3213 300.276C66.4733 300.875 67.7175 301.29 68.9616 301.705C72.8784 303.041 76.7952 304.147 80.8962 304.792C83.2463 305.161 85.5964 305.437 87.9464 305.667C92.8309 306.22 97.7614 306.359 102.692 306.589C106.793 306.773 110.894 306.727 115.041 306.819C120.893 307.004 126.745 306.819 132.598 306.635C137.897 306.497 143.196 306.22 148.495 305.944C153.61 305.667 158.679 305.299 163.793 304.976C169.277 304.654 174.76 304.423 180.244 304.055C183.976 303.778 187.709 303.824 191.441 303.64C194.436 303.502 197.432 303.363 200.427 303.271L200.519 303.179L200.611 303.271C201.256 303.271 201.947 303.271 202.592 303.225C203.837 302.903 205.173 302.995 206.463 302.81C208.214 302.58 210.011 302.304 211.808 302.35C214.573 302.35 217.384 302.35 220.149 302.35C220.149 301.474 220.149 300.599 220.195 299.769C220.195 299.539 220.195 299.262 220.149 299.032C220.057 290.922 220.149 282.858 219.872 274.748C219.826 273.181 219.872 271.615 219.872 270.094C219.734 256.454 219.872 242.815 219.504 229.221C219.458 226.779 219.504 224.383 219.504 221.941C219.504 216.826 219.504 211.711 219.504 206.642C219.504 205.905 219.504 205.168 219.458 204.384C218.259 203.832 216.969 203.693 215.633 203.601C215.126 203.601 214.619 203.693 214.158 203.371L214.02 203.232Z" fill="#696D65"/>
<path d="M364.608 233.415C363.641 232.493 363.318 231.341 362.995 230.097C361.475 223.876 360 217.655 358.48 211.435C357.374 206.873 356.176 202.265 355.024 197.703C354.978 197.473 354.839 197.242 354.747 197.012C353.319 197.38 351.89 197.841 350.416 198.118C344.564 199.224 338.712 200.329 332.813 201.251C328.436 201.896 324.15 202.91 319.819 203.601C317.377 203.97 314.981 204.753 312.446 204.569C312.262 204.569 312.078 204.569 311.893 204.615C309.635 204.937 307.331 205.352 305.073 205.629C302.032 205.997 299.037 206.596 296.042 207.103C294.106 207.426 292.125 207.794 290.144 207.933C288.024 208.071 285.904 208.209 283.831 208.347C283.646 208.347 283.462 208.347 283.278 208.439C278.025 209.361 272.772 210.283 267.472 210.974C266.32 211.112 265.122 211.389 263.97 211.342C263.832 211.342 263.694 211.342 263.602 211.389C263.325 211.481 263.187 211.665 263.233 211.942C263.233 212.126 263.325 212.31 263.371 212.494C264.938 218.531 265.998 224.613 266.643 230.834C266.781 232.263 266.827 233.691 267.012 235.12C267.38 237.976 267.565 240.833 267.611 243.69C267.703 251.893 267.979 260.141 267.288 268.343C267.104 270.555 267.104 272.813 266.781 275.024C266.597 276.315 266.597 277.651 266.413 278.941C266.09 281.291 265.721 283.595 265.399 285.945C265.076 288.434 264.662 290.876 264.155 293.318C264.155 293.825 264.201 294.286 264.247 294.793C264.754 294.793 265.261 294.839 265.721 294.931C268.071 295.299 270.375 295.668 272.772 295.576C276.135 295.438 279.499 295.945 282.863 295.991C283.047 295.991 283.232 295.991 283.416 296.083C284.245 296.359 285.121 296.359 285.996 296.359C290.466 296.359 294.982 296.359 299.452 296.359C301.71 296.359 303.968 296.267 306.179 296.451C308.437 296.682 310.649 296.636 312.907 296.682C315.718 296.728 318.483 296.544 321.293 297.004C323.874 297.419 326.5 297.557 329.081 297.88C332.675 298.295 336.223 298.802 339.817 299.262C340.969 299.401 342.167 299.539 343.319 299.677C344.886 299.861 346.407 299.954 347.974 300.184C351.107 300.691 354.24 301.244 357.328 301.797C357.835 301.29 358.019 300.645 358.157 299.954C359.217 294.839 360.323 289.724 361.337 284.609C361.936 281.568 362.443 278.48 362.995 275.439C363.456 272.997 364.009 270.555 364.47 268.113C364.608 267.467 364.931 266.961 365.207 266.408C364.885 265.855 364.608 265.302 364.286 264.795C361.751 260.878 359.171 257.007 356.636 253.091C356.268 252.538 355.899 251.939 355.531 251.386C355.024 250.694 355.024 250.003 355.484 249.312C355.623 249.128 355.715 248.851 355.853 248.667C358.019 245.027 360.185 241.386 362.304 237.746C363.134 236.364 364.101 235.027 364.654 233.507L364.608 233.415Z" fill="#8989DE"/>
<path d="M264.109 293.273C264.616 290.831 265.03 288.389 265.353 285.9C265.675 283.55 266.044 281.246 266.367 278.896C266.551 277.606 266.551 276.316 266.735 274.979C267.012 272.768 267.058 270.51 267.242 268.298C267.887 260.096 267.657 251.848 267.565 243.645C267.565 240.788 267.334 237.932 266.966 235.075C266.781 233.646 266.735 232.218 266.597 230.789C265.998 224.568 264.892 218.486 263.325 212.449C263.279 212.265 263.233 212.081 263.187 211.897C263.187 211.62 263.279 211.436 263.556 211.344C263.694 211.344 263.786 211.297 263.924 211.297C265.122 211.297 266.274 211.067 267.426 210.929C272.726 210.238 277.979 209.316 283.232 208.394C283.416 208.394 283.6 208.348 283.785 208.302C285.904 208.164 288.024 208.026 290.098 207.888C292.079 207.749 294.06 207.381 295.996 207.058C298.991 206.551 301.986 205.998 305.027 205.584C307.285 205.307 309.589 204.939 311.847 204.57C312.031 204.57 312.216 204.524 312.4 204.524C314.934 204.708 317.331 203.925 319.773 203.556C324.15 202.865 328.436 201.897 332.767 201.206C338.665 200.284 344.518 199.179 350.37 198.073C351.844 197.796 353.273 197.335 354.701 196.967C354.701 196.782 354.701 196.598 354.701 196.414C353.734 193.326 352.489 190.331 350.784 187.567C350.231 186.691 349.54 186.046 348.619 185.539C346.223 184.249 343.734 183.465 341.016 183.097C337.652 182.636 334.288 182.912 330.924 182.82C329.864 182.82 328.804 182.82 327.745 182.82C325.072 182.82 322.399 183.189 319.773 183.419C317.561 183.65 315.349 184.064 313.137 184.341C310.142 184.71 307.147 185.263 304.106 185.723C301.848 186.046 299.544 186.276 297.286 186.599C295.811 186.829 294.337 187.106 292.862 187.382C288.347 188.212 283.831 189.087 279.315 189.963C277.472 190.331 275.675 190.7 273.832 191.069C270.56 191.714 267.242 192.313 263.924 192.912C260.192 193.603 256.506 194.478 252.819 195.262C250.884 195.677 248.949 196.137 246.967 196.368C245.539 196.506 244.156 196.829 242.774 197.151C238.535 198.073 234.249 198.994 230.01 199.87C227.982 200.284 226.001 200.745 223.973 201.068C222.821 201.252 221.715 201.713 220.563 201.989C218.398 202.496 216.186 202.865 213.974 203.187C214.435 203.464 214.942 203.372 215.449 203.418C216.739 203.51 218.029 203.648 219.273 204.201C219.734 203.925 220.195 203.602 220.702 203.326C221.07 203.095 221.531 202.957 221.946 203.141C222.637 203.464 223.42 203.372 224.158 203.51C227.199 204.109 230.194 204.708 233.235 205.261C236.507 205.86 239.825 206.321 243.096 206.874C245.953 207.335 248.81 207.842 251.667 208.348C254.386 208.855 257.151 209.316 259.869 209.823C260.376 209.915 260.837 210.053 261.298 210.284C261.943 210.606 262.219 211.251 262.266 211.989C262.312 212.634 261.943 213.049 261.436 213.371C261.114 213.601 260.745 213.555 260.33 213.555C258.717 213.601 257.151 213.233 255.538 213.002C253.879 212.772 252.266 212.357 250.607 212.081C248.119 211.666 245.585 211.39 243.096 210.837C240.562 210.284 237.982 209.961 235.447 209.454C233.512 209.04 231.577 208.671 229.595 208.394C228.121 208.21 226.692 207.749 225.218 207.611C223.19 207.427 221.163 207.058 219.227 206.459C219.227 211.574 219.227 216.689 219.227 221.758C219.227 224.2 219.227 226.596 219.227 229.038C219.596 242.678 219.458 256.271 219.596 269.911C219.596 271.477 219.596 273.044 219.596 274.565C219.872 282.629 219.78 290.739 219.872 298.849C219.872 299.079 219.872 299.356 219.918 299.586C220.471 299.586 221.024 299.586 221.577 299.448C223.236 299.171 224.849 298.757 226.508 298.48C229.134 298.065 231.761 297.697 234.387 297.282C237.014 296.867 239.594 296.268 242.221 295.9C245.216 295.439 248.211 294.978 251.16 294.379C251.898 294.241 252.635 294.103 253.372 294.01C255.4 293.688 257.427 293.503 259.409 293.089C260.975 292.766 262.496 292.766 263.97 293.227L264.109 293.273Z" fill="#FFB78A"/>
<path d="M440.409 275.302C440.455 274.381 441.008 273.69 441.469 272.952C444.095 268.667 445.985 264.105 446.998 259.175C448.519 251.664 448.104 244.291 445.294 237.149C443.358 232.172 440.455 227.933 436.262 224.523C434.833 223.371 433.359 222.403 431.7 221.574C431.147 221.297 430.594 220.929 429.949 220.975C429.673 221.113 429.396 221.297 429.12 221.435C426.908 222.495 424.696 223.509 422.53 224.569C418.936 226.32 415.572 228.486 412.116 230.467C410.964 231.112 409.904 231.896 408.845 232.587C406.909 233.831 405.757 235.628 405.158 237.794C404.79 239.13 404.329 240.42 403.914 241.71C403.453 243.277 402.44 244.429 401.057 245.305C400.089 245.904 399.076 246.411 398.108 246.917C395.712 248.162 393.592 249.774 391.933 251.94C390.597 253.645 389.215 255.35 387.832 257.009C385.897 259.313 384.008 261.617 382.257 264.013C381.427 265.165 380.552 266.317 380.413 267.838C380.506 267.976 380.69 268.114 380.736 268.298C381.335 271.294 382.994 273.782 385.068 275.948C387.141 278.159 389.215 280.371 391.012 282.813C391.426 282.813 391.887 282.813 392.21 283.136C393.5 284.334 395.159 284.979 396.772 285.624C399.629 286.776 402.67 287.56 405.665 288.251C407.186 288.573 408.752 288.481 410.273 288.712C412.623 289.08 414.973 288.573 417.277 288.251C419.673 287.928 421.977 287.145 424.235 286.316C429.074 284.611 433.497 282.122 437.091 278.344C438.105 277.284 439.073 276.132 440.317 275.256L440.409 275.302Z" fill="#884100"/>
<path d="M357.328 301.707C354.194 301.154 351.107 300.601 347.974 300.094C346.453 299.864 344.886 299.772 343.32 299.588C342.168 299.449 340.97 299.357 339.818 299.173C336.223 298.712 332.675 298.205 329.081 297.79C326.501 297.468 323.874 297.33 321.294 296.915C318.483 296.454 315.718 296.638 312.907 296.592C310.649 296.592 308.437 296.592 306.18 296.362C303.968 296.132 301.71 296.27 299.452 296.27C294.982 296.27 290.466 296.27 285.997 296.27C285.121 296.27 284.246 296.27 283.416 295.993C283.232 295.947 283.048 295.901 282.863 295.901C279.499 295.901 276.182 295.348 272.772 295.486C270.376 295.579 268.072 295.21 265.722 294.841C265.215 294.749 264.708 294.749 264.247 294.703C264.109 295.901 263.187 296.454 262.174 296.546C261.16 296.638 260.238 296.915 259.224 297.007C257.381 297.238 255.584 297.606 253.741 297.929C251.852 298.251 249.962 298.574 248.073 298.85C246.184 299.173 244.295 299.495 242.405 299.818C240.562 300.141 238.765 300.463 236.922 300.74C235.079 301.016 233.282 301.477 231.438 301.661C230.194 301.753 228.996 302.076 227.798 302.26C225.955 302.583 224.112 302.767 222.315 303.228C221.209 303.504 220.518 303.228 220.011 302.214C217.246 302.214 214.435 302.306 211.67 302.214C209.873 302.214 208.076 302.445 206.325 302.675C205.035 302.859 203.745 302.767 202.454 303.09C203.468 303.274 204.528 303.596 205.542 303.643C208.307 303.827 210.933 304.518 213.606 304.979C216.094 305.394 218.628 305.854 221.117 306.315C224.342 306.868 227.614 307.375 230.747 308.343C231.3 308.527 231.853 308.573 232.406 308.527C234.987 308.435 237.521 308.757 240.055 308.988C242.221 309.172 244.387 309.356 246.506 309.863C247.889 310.186 249.317 310.186 250.746 310.37C252.22 310.555 253.695 310.785 255.169 311.015C255.354 311.015 255.538 311.061 255.722 311.061C257.658 310.969 259.593 311.292 261.482 311.522C263.602 311.799 265.676 311.799 267.795 312.075C269.638 312.352 271.482 312.49 273.371 312.582C275.537 312.72 277.702 312.997 279.868 313.227C280.098 313.227 280.375 313.273 280.605 313.319C283.969 313.596 287.287 313.826 290.651 314.149C293.369 314.425 296.088 314.656 298.807 314.932C301.111 315.162 303.415 315.024 305.719 315.301C308.944 315.669 312.216 315.393 315.395 315.9C315.534 315.9 315.626 315.9 315.764 315.9C319.635 316.038 323.459 316.176 327.33 316.361C330.694 316.499 334.012 316.821 337.422 316.775C337.744 316.775 338.021 316.821 338.343 316.913C339.08 317.098 339.818 316.96 340.555 316.775C344.149 315.808 347.283 313.964 350.232 311.707C352.443 310.048 354.379 308.158 355.807 305.762C356.591 304.472 357.097 303.09 357.282 301.569L357.328 301.707Z" fill="#FFB78B"/>
<path d="M380.506 267.836C380.598 266.315 381.473 265.163 382.349 264.011C384.1 261.615 386.035 259.265 387.925 257.007C389.353 255.348 390.689 253.643 392.026 251.938C393.684 249.773 395.804 248.16 398.2 246.916C399.214 246.409 400.182 245.902 401.149 245.303C402.532 244.474 403.499 243.322 404.006 241.709C404.421 240.419 404.882 239.128 405.25 237.792C405.849 235.626 407.001 233.829 408.937 232.585C410.043 231.848 411.103 231.11 412.208 230.465C415.664 228.484 419.028 226.318 422.622 224.567C424.788 223.507 427 222.494 429.212 221.434C429.488 221.296 429.765 221.111 430.041 220.973C428.797 220.512 427.507 220.604 426.217 220.328C424.005 219.867 421.839 219.406 419.95 218.07C419.627 217.84 419.351 217.655 419.074 217.379C416.632 215.121 414.328 212.771 412.531 210.006C411.563 208.485 410.504 207.011 409.536 205.49C407.877 202.91 406.172 203.048 404.145 204.891C402.716 206.181 401.426 207.656 400.043 208.992C398.523 210.467 396.772 211.665 394.883 212.679C393.085 213.6 391.196 214.107 389.215 214.384C387.602 214.614 386.035 214.937 384.515 215.536C380.966 216.918 378.847 219.498 378.11 223.185C377.833 224.521 377.649 225.857 377.603 227.24C377.603 228.53 377.372 229.82 377.188 231.11C377.142 231.525 377.004 231.94 376.865 232.355C376.589 233.23 375.99 233.691 375.068 233.783C374.746 233.783 374.423 233.783 374.147 233.783C371.797 233.783 369.401 233.783 367.05 233.783C366.221 233.783 365.438 233.691 364.654 233.461C364.101 234.981 363.134 236.317 362.304 237.7C360.185 241.34 357.973 244.98 355.853 248.621C355.715 248.851 355.623 249.082 355.484 249.266C355.024 249.957 355.024 250.648 355.531 251.339C355.945 251.892 356.268 252.491 356.636 253.044C359.171 256.961 361.751 260.832 364.286 264.749C364.608 265.255 364.931 265.808 365.207 266.361C366.958 266.361 368.663 266.454 370.414 266.638C372.119 266.822 373.87 266.96 375.575 267.191C377.234 267.375 378.893 267.375 380.506 267.928V267.836Z" fill="#FFB78A"/>
<path d="M388.385 284.98C387.74 285.672 387.003 286.225 386.266 286.824C384.745 288.022 383.271 289.266 381.796 290.464C380.736 291.339 379.676 292.215 378.616 293.09C377.142 294.335 375.575 295.394 374.147 296.777C372.442 298.482 370.46 299.956 368.617 301.523C367.603 302.399 366.82 303.366 366.267 304.61C365.576 306.131 366.129 307.928 367.926 308.85C368.433 309.08 368.986 309.218 369.539 309.31C372.073 309.725 374.608 309.956 377.142 310.14C381.197 310.416 385.252 310.14 389.307 310.14C392.072 310.094 394.79 310.186 397.509 310.37C401.933 310.647 406.356 310.739 410.78 310.416C412.761 310.278 414.743 310.186 416.724 309.863C417.692 309.725 418.706 309.771 419.719 309.771C422.669 309.679 425.572 309.264 428.382 308.389C430.732 307.652 432.898 306.546 434.741 304.933C435.755 304.103 436.769 303.274 437.737 302.398C442.944 297.514 444.787 291.524 443.312 284.566C443.22 284.197 443.082 283.874 442.944 283.506C442.667 283.644 442.391 283.782 442.16 284.013C440.962 285.211 439.718 286.317 438.428 287.377C436.492 288.897 434.465 290.418 432.299 291.616C429.995 292.86 427.691 294.104 425.249 294.98C422.208 296.086 419.12 296.961 415.849 297.099C415.48 297.099 415.112 297.099 414.743 297.238C414.19 297.422 413.637 297.422 413.084 297.422C412.07 297.422 411.103 297.422 410.135 297.145C408.937 296.869 407.693 296.961 406.449 296.731C403.085 296.04 399.905 294.888 396.91 293.137C395.343 292.215 393.869 291.155 392.532 290.003C390.874 288.621 389.215 287.146 388.431 285.026L388.385 284.98Z" fill="#894100"/>
<path d="M388.385 284.977C389.169 287.097 390.874 288.572 392.486 289.954C393.823 291.106 395.297 292.166 396.864 293.087C399.859 294.839 402.993 295.991 406.402 296.682C407.647 296.958 408.891 296.866 410.089 297.096C411.103 297.327 412.07 297.327 413.038 297.373C413.591 297.373 414.144 297.373 414.697 297.189C415.019 297.05 415.434 297.05 415.803 297.05C419.074 296.912 422.162 295.991 425.203 294.931C427.645 294.055 429.995 292.811 432.253 291.567C434.419 290.369 436.4 288.894 438.382 287.328C439.718 286.268 440.916 285.162 442.114 283.964C442.345 283.733 442.621 283.641 442.897 283.457C442.206 280.692 441.423 277.973 440.409 275.301C439.165 276.13 438.197 277.328 437.184 278.388C433.589 282.167 429.212 284.609 424.327 286.36C422.069 287.143 419.766 287.973 417.369 288.295C415.065 288.618 412.669 289.125 410.365 288.756C408.845 288.48 407.278 288.618 405.757 288.295C402.716 287.604 399.721 286.821 396.864 285.669C395.251 285.024 393.638 284.378 392.302 283.18C391.933 282.858 391.519 282.858 391.104 282.858C390.551 283.134 389.998 283.365 389.491 283.687C388.984 284.01 388.477 284.332 388.385 285.024V284.977Z" fill="#62350E"/>
<path d="M200.473 303.227L200.38 303.135L200.288 303.227L200.38 303.319L200.473 303.227Z" fill="#FFB78B"/>
<path d="M220.011 302.212C220.518 303.18 221.163 303.456 222.315 303.226C224.112 302.811 225.955 302.581 227.798 302.258C228.996 302.074 230.24 301.752 231.438 301.659C233.282 301.521 235.079 301.014 236.922 300.738C238.765 300.461 240.562 300.139 242.405 299.816C244.295 299.494 246.184 299.171 248.073 298.849C249.962 298.526 251.852 298.203 253.741 297.927C255.584 297.604 257.381 297.236 259.224 297.005C260.192 296.867 261.16 296.591 262.173 296.545C263.187 296.452 264.063 295.946 264.247 294.701C264.247 294.194 264.201 293.734 264.155 293.227C262.634 292.72 261.16 292.766 259.593 293.089C257.612 293.503 255.584 293.688 253.557 294.01C252.819 294.102 252.082 294.241 251.345 294.379C248.396 294.978 245.401 295.439 242.405 295.899C239.779 296.314 237.198 296.867 234.572 297.282C231.945 297.697 229.319 298.065 226.692 298.48C225.033 298.756 223.421 299.125 221.762 299.448C221.209 299.54 220.656 299.54 220.103 299.586C220.103 300.461 220.103 301.337 220.057 302.166L220.011 302.212Z" fill="#E9A47A"/>
<path d="M219.319 206.46C221.255 207.059 223.282 207.427 225.31 207.612C226.784 207.75 228.213 208.211 229.687 208.395C231.623 208.626 233.604 209.04 235.539 209.455C238.074 209.962 240.654 210.284 243.189 210.837C245.677 211.39 248.165 211.667 250.7 212.081C252.358 212.358 253.971 212.727 255.63 213.003C257.197 213.233 258.81 213.648 260.422 213.556C260.791 213.556 261.16 213.556 261.528 213.372C262.035 213.049 262.404 212.634 262.358 211.989C262.266 211.298 262.035 210.653 261.39 210.284C260.975 210.054 260.468 209.916 259.962 209.824C257.243 209.317 254.478 208.81 251.759 208.349C248.902 207.842 246.046 207.335 243.189 206.874C239.917 206.322 236.599 205.861 233.328 205.262C230.286 204.709 227.245 204.11 224.25 203.511C223.513 203.372 222.775 203.511 222.038 203.142C221.623 202.958 221.163 203.096 220.794 203.326C220.333 203.603 219.826 203.925 219.365 204.202C219.365 204.939 219.365 205.676 219.412 206.46H219.319Z" fill="#E8A37A"/>
</svg>
