<svg width="500" height="500" viewBox="0 0 500 500" fill="none" xmlns="http://www.w3.org/2000/svg">
<path d="M232.367 391.187C232.793 391.187 233.078 391.33 233.504 391.472C234.073 391.472 234.5 391.472 234.784 391.899C235.211 391.899 235.496 392.041 235.922 392.183C236.207 392.183 236.491 392.183 236.633 392.468C237.202 392.468 237.771 392.752 238.34 392.752C238.625 392.752 238.909 392.752 239.051 393.036C239.478 393.036 239.763 393.179 240.189 393.321C240.758 393.321 241.185 393.321 241.469 393.748C241.896 393.748 242.18 393.89 242.607 394.032C243.176 394.032 243.603 394.032 243.887 394.459C244.314 394.459 244.598 394.601 245.025 394.743C246.447 394.743 247.585 394.885 248.865 395.597C249.576 395.597 250.43 395.881 251.141 396.023C251.425 396.023 251.71 396.023 251.852 396.308C252.563 396.308 253.417 396.592 254.128 396.734C254.412 396.734 254.697 396.734 254.839 397.019C255.55 397.019 256.403 397.303 257.115 397.446C258.821 397.303 260.528 397.588 262.093 398.299C262.519 398.299 262.804 398.299 263.231 398.299C264.511 398.015 265.791 398.157 266.929 398.726C267.924 398.726 268.92 398.868 269.915 399.01C270.626 398.868 271.195 398.868 271.907 399.295C272.902 399.295 273.898 399.437 274.893 399.579C276.6 399.579 278.307 399.152 279.871 399.864C284.138 399.864 288.405 399.864 292.53 400.006C293.81 400.006 294.948 399.721 296.086 399.295C296.655 398.015 297.223 396.734 297.792 395.454C299.499 391.756 301.064 388.058 302.344 384.218C304.477 377.818 305.9 371.275 307.18 364.59C308.033 359.897 308.602 355.061 309.029 350.225C309.313 345.674 309.313 341.122 309.029 336.571C308.744 333.158 308.602 329.744 307.18 326.473C306.611 326.473 305.9 326.473 305.331 326.757C303.339 327.326 301.49 327.895 299.499 328.606C297.792 329.175 297.792 329.175 296.512 327.611C295.375 326.331 294.379 324.908 293.241 323.628C287.267 317.086 280.156 312.108 272.191 308.267C262.377 303.432 251.994 300.871 241.185 300.302C238.767 300.587 236.207 300.587 233.789 300.302C232.224 300.302 230.66 300.587 229.095 300.729C228.669 301.156 228.242 301.156 227.673 301.014C226.677 301.014 225.824 301.298 224.828 301.44C224.402 301.867 223.975 301.867 223.406 301.725C222.837 301.725 222.268 301.867 221.699 302.009C221.415 302.436 220.846 302.578 220.419 302.436C219.139 302.863 217.859 303.005 216.721 303.574C215.299 304.285 214.161 304 212.739 303.289C202.356 297.458 191.973 291.626 181.448 285.795C168.363 278.541 155.42 271.003 142.193 264.034C141.482 263.607 140.628 263.465 140.201 262.611C140.344 262.327 140.486 262.043 140.628 261.9C143.473 259.625 146.175 257.207 149.304 255.216C161.678 247.108 173.91 238.859 186.142 230.752C196.951 223.64 207.476 216.102 218.997 210.271C219.993 209.702 220.846 208.991 221.415 207.995C220.277 204.866 219.139 201.737 218.144 198.608C215.014 189.363 212.028 180.26 209.325 170.873C204.774 172.295 200.365 174.144 196.098 175.993C180.737 182.82 165.518 189.505 150.158 196.332C133.374 203.728 116.591 211.266 99.8081 218.662C97.5325 219.658 95.399 220.511 93.2655 221.791C90.7054 223.356 88.003 224.92 85.7273 226.912C78.1891 233.597 73.2111 241.846 71.3621 251.944C70.7932 255.215 70.9354 258.629 71.5043 261.9C71.931 262.327 72.0732 262.754 71.6465 263.323C73.78 273.848 78.4736 283.377 84.7317 292.053C91.4165 301.298 99.097 309.832 107.346 317.655C121.854 331.451 137.926 342.971 155.136 353.212C160.114 356.199 164.949 359.328 169.785 362.315C185.146 371.56 200.934 379.809 217.575 386.352C217.859 386.352 218.144 386.352 218.286 386.636C218.428 386.636 218.712 386.636 218.855 386.778C219.139 386.778 219.424 386.778 219.566 387.063C219.85 387.063 220.277 387.347 220.561 387.347C220.846 387.347 221.13 387.347 221.273 387.632C221.699 387.632 221.984 387.916 222.41 387.916C222.695 387.916 222.979 387.916 223.122 388.201C223.264 388.201 223.548 388.201 223.691 388.343C223.975 388.343 224.259 388.343 224.402 388.627C224.686 388.627 225.113 388.912 225.397 388.912C225.682 388.912 225.966 388.912 226.108 389.196C226.535 389.196 226.82 389.339 227.246 389.481C227.531 389.481 227.815 389.481 227.957 389.765C228.384 389.765 228.669 389.907 229.095 390.05C229.664 390.05 230.091 390.05 230.375 390.476C230.802 390.476 231.086 390.619 231.513 390.761C231.798 390.761 232.082 390.761 232.224 391.045L232.367 391.187Z" fill="#696D65"/>
<path d="M209.183 170.587C211.886 179.974 214.872 189.077 218.001 198.322C218.997 201.451 220.135 204.58 221.273 207.709C222.268 207.709 223.264 207.709 224.26 207.567C224.971 207.567 225.682 207.567 226.393 207.424C229.38 206.429 232.509 205.433 235.211 203.584C238.909 201.024 242.465 198.18 245.736 195.05C248.723 192.206 251.425 189.077 253.701 185.663C254.128 184.952 254.555 184.241 255.408 183.957C255.55 183.672 255.692 183.53 255.977 183.245C256.404 182.392 256.972 183.245 257.541 183.103C262.377 182.676 267.071 181.681 271.622 179.974C273.471 179.263 275.178 178.552 277.027 177.983C282.005 176.418 286.983 174.712 291.819 172.863C294.095 172.009 296.086 170.729 297.935 169.165C298.646 168.453 299.499 167.742 300.21 167.173C301.064 166.462 301.064 166.462 301.917 167.6C302.202 167.316 302.628 167.173 302.913 166.889C304.335 165.324 306.184 164.613 308.175 164.329C311.304 163.76 314.433 163.049 317.562 162.338C323.678 160.773 329.936 159.635 336.052 158.213C342.026 156.791 348.142 155.795 353.973 154.088C358.24 152.808 362.792 152.239 367.059 150.817C368.054 150.532 369.05 150.532 370.045 150.532C372.037 150.532 373.459 151.955 373.601 153.946C373.601 156.079 373.601 158.071 373.032 160.204C372.463 163.191 371.894 166.178 371.325 169.022C369.903 175.707 367.912 182.25 366.205 188.935C365.921 190.072 365.494 191.21 365.067 192.348C365.067 192.348 364.783 192.633 364.641 192.633C364.498 192.633 364.214 192.633 364.072 192.348C363.218 191.21 363.218 189.93 363.503 188.65C364.214 185.805 363.929 182.819 364.498 179.974C364.783 177.983 364.498 175.992 365.067 174C364.214 173.289 364.356 172.151 364.214 171.156C363.787 168.311 362.08 166.462 359.663 165.324C358.809 164.898 358.098 164.471 357.245 164.187C354.4 162.906 351.698 161.484 348.853 160.204C348.426 161.057 347.857 161.342 347.004 161.484C345.013 161.911 342.879 162.48 340.888 162.906C337.19 163.76 333.492 164.755 329.794 165.467C322.825 167.031 315.856 168.453 309.029 170.018C306.753 170.587 304.62 170.587 302.486 169.733C302.486 172.009 303.624 173.716 305.473 174.996C307.037 176.134 308.602 177.556 310.167 178.836C314.007 182.108 317.705 185.521 321.545 188.792C323.394 190.357 324.958 192.206 326.807 193.77C328.656 195.335 329.51 197.184 329.652 199.46C329.936 203.015 330.363 206.713 330.932 210.269C331.785 216.385 332.781 222.359 332.923 228.617C333.919 228.759 334.63 228.19 335.483 227.763C337.759 226.483 340.035 225.203 342.311 223.781C345.44 221.932 348.711 220.367 351.555 218.092C352.693 217.238 353.973 216.812 355.253 216.101C355.822 215.816 356.391 215.958 356.96 216.385C357.529 216.812 357.529 217.381 357.245 218.092C356.534 219.941 355.822 221.647 355.253 223.496C354.685 225.345 353.831 226.768 352.267 227.906C349.991 229.755 348.853 232.172 348.426 234.875C348 238.288 347.857 241.702 348.426 245.115C349.706 252.654 352.551 259.623 357.387 265.739C359.947 269.01 362.507 272.281 366.063 274.557C370.33 277.402 375.023 278.397 380.144 277.259C385.548 276.122 389.815 273.135 393.229 269.152C400.625 260.334 404.038 249.951 404.607 238.573C404.607 236.297 404.607 234.164 404.607 231.888C404.607 231.035 404.892 230.466 405.745 230.324C406.03 226.483 406.741 222.785 407.31 218.945C407.879 215.389 408.305 211.976 408.874 208.562C409.443 205.007 410.012 201.451 410.439 197.753C410.865 194.482 411.292 191.21 411.861 187.939C412.43 184.099 412.999 180.401 413.568 176.561C414.137 172.863 414.563 169.165 414.99 165.467C415.275 162.906 415.843 160.346 415.986 157.644C416.27 153.235 416.555 148.826 415.843 144.417C415.701 143.421 415.843 142.425 415.559 141.43C414.706 136.594 413.568 131.758 410.865 127.491C410.154 126.353 409.585 125.215 409.016 124.078C407.31 120.949 405.034 118.531 401.905 116.682C400.625 115.971 399.203 115.117 397.922 114.548C395.22 113.41 392.376 112.699 389.389 112.699C384.553 112.699 379.717 113.126 375.023 114.406C362.08 117.819 348.995 120.949 336.052 124.22C324.674 127.064 313.438 130.194 302.059 133.038C301.348 133.18 300.495 133.323 299.784 133.607C298.219 134.176 296.512 134.176 294.948 133.607C287.552 131.474 280.44 132.611 273.471 135.74C268.635 137.874 264.084 140.434 259.675 143.279C258.964 143.705 258.11 144.274 257.399 144.843C254.412 147.972 250.572 149.821 246.732 151.67C239.478 155.368 232.224 158.924 224.971 162.48C220.135 164.898 215.157 167.173 210.179 169.449C209.752 169.591 209.325 170.018 208.899 170.302L209.183 170.587ZM272.333 155.226C272.618 157.217 271.907 159.066 271.053 160.915C270.058 163.049 269.062 165.04 267.924 167.173C265.791 171.014 263.515 174.569 260.813 177.983C260.244 178.694 259.533 179.405 258.821 179.832C257.541 180.685 256.119 179.832 255.977 178.41C255.977 177.272 256.404 176.276 256.972 175.28C259.533 170.16 262.093 165.04 264.653 159.92C265.222 158.782 265.506 157.644 266.075 156.648C266.36 155.937 266.075 155.51 265.648 155.084C264.653 154.088 263.231 153.661 261.951 153.093C261.239 152.808 260.386 152.666 259.675 152.381C258.395 151.812 257.257 149.821 257.399 148.683C257.826 146.692 259.39 145.554 261.382 145.839C261.808 145.839 262.235 145.839 262.519 146.123C264.795 146.834 267.071 147.83 269.062 149.11C271.195 150.532 272.76 152.524 272.333 155.51V155.226Z" fill="#FFB68A"/>
<path d="M405.603 230.465C404.75 230.749 404.465 231.176 404.465 232.029C404.465 234.305 404.465 236.438 404.465 238.714C403.896 250.093 400.483 260.475 393.087 269.294C389.673 273.276 385.406 276.405 380.002 277.401C374.881 278.539 370.188 277.401 365.921 274.698C362.365 272.423 359.805 269.151 357.245 265.88C352.409 259.764 349.564 252.795 348.284 245.257C347.715 241.843 347.715 238.43 348.284 235.016C348.711 232.314 349.849 229.754 352.124 228.047C353.547 226.909 354.542 225.487 355.111 223.638C355.68 221.789 356.391 220.082 357.103 218.233C357.387 217.664 357.387 217.095 356.818 216.526C356.249 216.1 355.68 215.957 355.111 216.242C353.831 216.811 352.409 217.38 351.413 218.233C348.569 220.509 345.297 222.073 342.168 223.922C339.893 225.344 337.617 226.625 335.341 227.905C334.63 228.331 333.777 228.9 332.781 228.758C332.497 229.896 332.212 231.034 331.928 232.172C332.07 232.598 332.354 232.883 332.354 233.309C332.497 236.012 333.066 238.714 333.492 241.416C334.061 245.399 334.63 249.381 334.772 253.506C335.057 259.764 335.057 266.022 334.772 272.28C334.63 276.547 334.061 280.672 333.208 284.939C331.786 291.481 329.937 297.882 327.376 303.998C325.67 308.265 323.678 312.389 320.549 315.803C319.412 316.941 318.416 318.221 317.989 319.927C317.847 320.639 317.278 321.065 316.851 321.776C317.278 321.919 317.563 322.203 317.989 322.345C320.549 323.057 323.252 323.91 325.812 324.621C333.208 326.897 340.604 329.172 348.142 331.448C359.236 334.719 370.33 337.991 381.566 341.404C387.824 343.253 394.082 345.244 400.34 347.093C401.336 346.24 401.905 344.96 402.474 343.822C404.181 340.978 405.887 337.991 407.31 335.146C409.443 330.879 411.719 326.755 414.421 322.772C414.848 322.061 415.417 321.492 415.986 320.923C424.377 314.238 428.075 305.278 428.929 294.895C429.071 292.762 429.498 290.628 429.355 288.495C428.786 280.103 427.222 271.854 424.235 264.031C421.675 257.062 418.546 250.377 414.563 244.119C412.003 240.136 409.443 236.154 406.883 232.172C406.599 231.745 406.03 231.318 405.745 230.749L405.603 230.465Z" fill="#8A89DE"/>
<path d="M400.34 346.811C394.082 344.962 387.824 342.971 381.566 341.122C370.472 337.851 359.378 334.579 348.142 331.166C340.746 328.89 333.208 326.614 325.812 324.339C323.252 323.485 320.549 322.774 317.989 322.063C317.562 322.063 317.278 321.779 316.851 321.494C315.287 323.059 313.296 324.054 311.162 324.765C309.598 325.192 308.175 325.903 306.611 326.33C308.033 329.459 308.317 333.015 308.46 336.428C308.744 340.98 308.744 345.531 308.46 350.082C308.175 354.918 307.464 359.754 306.611 364.448C305.473 371.132 303.908 377.675 301.775 384.075C300.495 387.916 298.93 391.614 297.224 395.312C296.655 396.592 296.086 397.872 295.517 399.152C297.081 400.005 298.788 400.29 300.495 400.432C302.628 400.716 304.619 401.001 306.753 401.001C311.447 401.001 316.14 400.29 320.834 399.579C323.963 399.01 326.95 398.441 330.079 397.729C335.91 396.307 341.457 394.174 346.862 391.756C349.849 390.476 352.978 389.053 355.965 387.489C363.929 383.507 371.468 378.671 378.295 373.124C383.842 368.572 388.962 363.594 393.229 357.763C393.94 356.909 394.509 355.914 395.078 355.06C396.073 353.354 397.211 351.647 398.349 350.082C399.06 349.087 400.056 348.233 399.914 346.953L400.34 346.811Z" fill="#FFB68A"/>
<path d="M262.093 397.872C260.528 397.161 258.821 396.734 257.115 397.019C258.679 397.73 260.386 398.157 262.093 397.872Z" fill="#CBB9B6"/>
<path d="M279.729 399.72C278.165 399.009 276.458 399.293 274.751 399.436C276.316 400.289 278.022 400.005 279.729 399.72Z" fill="#CBB9B6"/>
<path d="M248.723 395.455C247.585 394.744 246.305 394.46 244.883 394.602C246.021 395.455 247.301 395.74 248.723 395.455Z" fill="#CBB9B6"/>
<path d="M266.928 398.44C265.791 397.729 264.511 397.587 263.23 398.013C264.368 398.867 265.648 398.582 266.928 398.44Z" fill="#CBB9B6"/>
<path d="M71.6464 262.895C72.0731 262.326 71.9309 261.899 71.5042 261.473C71.0775 262.042 71.362 262.468 71.6464 262.895Z" fill="#696D65"/>
<path d="M271.764 399.008C271.195 398.439 270.484 398.44 269.773 398.724C270.342 399.293 271.053 399.293 271.764 399.008Z" fill="#CBB9B6"/>
<path d="M230.518 390.617C230.233 390.19 229.807 390.048 229.238 390.19C229.522 390.617 229.949 390.759 230.518 390.617Z" fill="#CBB9B6"/>
<path d="M234.785 391.898C234.5 391.471 234.074 391.329 233.505 391.471C233.789 391.898 234.216 392.04 234.785 391.898Z" fill="#CBB9B6"/>
<path d="M241.469 393.603C241.185 393.176 240.616 393.034 240.189 393.176C240.474 393.603 240.901 393.745 241.469 393.603Z" fill="#CBB9B6"/>
<path d="M243.887 394.314C243.603 393.887 243.176 393.745 242.607 393.887C242.892 394.314 243.318 394.456 243.887 394.314Z" fill="#CBB9B6"/>
<path d="M226.251 389.338C226.109 389.054 225.824 388.912 225.54 389.054C225.682 389.338 225.966 389.481 226.251 389.338Z" fill="#CBB9B6"/>
<path d="M228.1 389.905C227.958 389.62 227.673 389.478 227.389 389.62C227.531 389.905 227.815 390.047 228.1 389.905Z" fill="#CBB9B6"/>
<path d="M232.367 391.186C232.224 390.901 231.94 390.759 231.656 390.902C231.798 391.186 232.082 391.328 232.367 391.186Z" fill="#CBB9B6"/>
<path d="M239.052 393.036C238.909 392.751 238.625 392.609 238.34 392.751C238.483 393.036 238.767 393.178 239.052 393.036Z" fill="#CBB9B6"/>
<path d="M218.428 386.35C218.286 386.066 218.002 385.923 217.717 386.066C217.859 386.35 218.144 386.492 218.428 386.35Z" fill="#CBB9B6"/>
<path d="M219.708 386.918C219.566 386.634 219.281 386.492 218.997 386.634C219.139 386.918 219.424 387.061 219.708 386.918Z" fill="#CBB9B6"/>
<path d="M236.634 392.467C236.492 392.183 236.207 392.041 235.923 392.183C236.065 392.467 236.349 392.609 236.634 392.467Z" fill="#CBB9B6"/>
<path d="M254.839 396.592C254.697 396.308 254.412 396.166 254.128 396.308C254.27 396.592 254.554 396.734 254.839 396.592Z" fill="#CBB9B6"/>
<path d="M221.415 387.629C221.273 387.345 220.988 387.203 220.704 387.345C220.846 387.629 221.13 387.772 221.415 387.629Z" fill="#CBB9B6"/>
<path d="M223.264 388.2C223.122 387.915 222.837 387.773 222.553 387.915C222.695 388.2 222.979 388.342 223.264 388.2Z" fill="#CBB9B6"/>
<path d="M224.544 388.627C224.402 388.343 224.117 388.201 223.833 388.343C223.975 388.627 224.26 388.77 224.544 388.627Z" fill="#CBB9B6"/>
<path d="M251.852 396.022C251.71 395.737 251.426 395.595 251.141 395.737C251.283 396.022 251.568 396.164 251.852 396.022Z" fill="#CBB9B6"/>
<path d="M240.758 300.159C238.483 299.59 235.638 299.59 233.362 300.159C235.78 300.444 238.34 300.444 240.758 300.159Z" fill="#CBB9B6"/>
<path d="M224.402 301.013C223.833 300.871 223.406 301.013 222.98 301.297C223.548 301.44 223.975 301.297 224.402 301.013Z" fill="#BF9F83"/>
<path d="M228.669 300.444C228.1 300.302 227.673 300.444 227.246 300.729C227.815 301.013 228.242 300.871 228.669 300.444Z" fill="#BF9F83"/>
<path d="M221.415 301.725C220.846 301.583 220.419 301.725 220.135 302.152C220.704 302.294 221.13 302.152 221.415 301.725Z" fill="#BF9F83"/>
<path d="M302.77 239.428C307.18 239.855 311.589 239.997 315.856 239.428C316.14 239.144 316.282 239.001 316.709 239.286C318.558 239.001 320.407 238.575 322.256 238.148C325.954 237.01 329.225 235.303 331.928 232.317C332.212 231.179 332.497 230.041 332.781 228.903C332.781 222.787 331.643 216.671 330.79 210.555C330.221 207 329.794 203.302 329.51 199.746C329.367 197.328 328.372 195.621 326.665 194.057C324.816 192.492 323.252 190.501 321.403 189.079C317.42 185.95 313.864 182.394 310.024 179.123C308.46 177.842 307.037 176.42 305.331 175.282C303.482 174.002 302.344 172.295 302.344 170.02C301.917 169.309 301.917 168.455 301.917 167.744C301.064 166.464 301.064 166.464 300.21 167.317C299.499 168.029 298.646 168.597 297.935 169.309C296.086 170.873 294.094 172.153 291.819 173.007C286.983 174.998 282.005 176.562 277.027 178.127C275.178 178.696 273.471 179.407 271.622 180.118C267.071 181.825 262.377 182.678 257.541 183.247C256.972 183.247 256.403 182.678 255.977 183.389C255.977 183.674 255.977 183.958 255.977 184.243C255.977 185.95 255.977 187.799 256.119 189.505C256.688 190.074 256.688 190.643 256.261 191.354C256.688 193.203 256.972 195.052 257.399 196.759C257.826 197.044 257.826 197.328 257.968 197.755C258.821 202.022 260.67 205.862 262.804 209.702C263.657 211.124 264.511 212.689 265.506 214.111C267.071 216.671 268.635 219.231 271.338 220.796C271.907 221.08 272.333 221.792 272.902 222.218C274.467 223.783 276.031 225.347 277.596 226.912C280.156 229.472 283 231.748 286.272 233.312C287.125 233.739 287.694 234.45 287.836 235.446C290.396 236.441 292.957 237.579 295.659 238.148C295.943 238.148 296.228 238.148 296.512 238.432C298.504 238.717 300.353 239.144 302.344 239.428C302.628 239.286 302.913 239.428 303.197 239.57L302.77 239.428Z" fill="#884000"/>
<path d="M301.917 167.599C301.917 168.31 301.917 169.164 302.344 169.875C304.477 170.728 306.611 170.728 308.886 170.159C315.856 168.595 322.825 167.173 329.652 165.608C333.35 164.755 337.048 163.901 340.746 163.048C342.737 162.621 344.871 162.052 346.862 161.626C347.715 161.483 348.426 161.057 348.711 160.345C349.137 159.492 349.849 159.35 350.702 159.208C352.551 158.923 354.4 158.496 356.391 158.212C359.805 157.501 363.361 156.932 366.774 156.221C366.774 156.221 366.916 156.221 367.059 156.221C368.339 156.079 368.765 156.505 368.481 157.643C367.343 163.19 366.205 168.595 365.067 174.142C364.498 176.133 364.783 178.124 364.498 180.115C364.072 182.96 364.214 185.947 363.503 188.791C363.218 190.072 363.218 191.352 364.072 192.489C364.072 192.489 364.356 192.774 364.641 192.774C364.783 192.774 365.067 192.774 365.067 192.489C365.494 191.352 365.921 190.214 366.205 189.076C368.054 182.533 369.903 175.849 371.325 169.164C372.037 166.177 372.605 163.332 373.032 160.345C373.459 158.212 373.601 156.221 373.601 154.087C373.601 152.096 372.179 150.816 370.045 150.674C369.05 150.674 368.054 150.674 367.059 150.958C362.792 152.523 358.24 152.95 353.973 154.23C348.142 156.079 342.026 157.074 336.052 158.354C329.936 159.777 323.678 161.057 317.562 162.479C314.433 163.19 311.304 163.901 308.175 164.47C306.042 164.755 304.335 165.324 302.913 167.03C302.628 167.315 302.202 167.457 301.917 167.741V167.599Z" fill="#E7A47C"/>
<path d="M272.333 155.227C272.76 152.24 271.196 150.248 269.062 148.826C267.071 147.546 264.795 146.408 262.52 145.839C262.093 145.839 261.666 145.697 261.382 145.555C259.39 145.413 257.826 146.551 257.399 148.4C257.115 149.537 258.253 151.529 259.675 152.097C260.386 152.382 261.239 152.524 261.951 152.809C263.231 153.235 264.653 153.804 265.649 154.8C266.075 155.227 266.36 155.795 266.075 156.364C265.649 157.502 265.222 158.64 264.653 159.636C262.093 164.756 259.533 169.876 256.973 174.997C256.546 175.992 255.977 176.988 255.977 178.126C255.977 179.548 257.541 180.401 258.822 179.548C259.533 179.121 260.244 178.41 260.813 177.699C263.515 174.285 265.791 170.73 267.924 166.889C269.062 164.898 270.058 162.765 271.053 160.631C271.907 158.782 272.618 156.933 272.333 154.942V155.227Z" fill="#E7A37B"/>
<path d="M255.692 183.957C255.692 183.672 255.692 183.388 255.692 183.104C255.55 183.388 255.408 183.53 255.123 183.815H255.266H255.55L255.692 183.957Z" fill="#BF9F83"/>
<path d="M238.198 214.821C237.487 218.093 236.918 221.222 237.06 224.493C237.629 226.342 237.629 227.338 237.06 229.329C237.06 232.316 237.772 235.16 238.483 238.005C239.621 242.414 240.901 246.823 242.607 250.948C245.879 259.197 247.87 267.731 249.719 276.265C250.146 277.972 250.43 279.821 250.999 281.527C251.71 284.23 253.559 285.225 256.404 284.372C258.11 283.945 259.533 282.95 260.671 281.67C267.924 274.558 273.471 266.309 277.596 257.064C279.303 253.081 281.294 249.241 282.858 245.116C283.427 243.694 283.854 242.272 284.281 240.85C281.721 240.85 279.587 239.996 277.596 238.574C275.605 237.009 273.614 235.587 271.765 233.738C269.631 231.605 267.64 229.187 265.222 227.338C262.804 225.631 261.097 223.213 259.248 220.937C255.408 216.102 252.563 210.555 250.857 204.581C250.43 202.874 249.719 201.167 249.719 199.318C247.301 199.603 245.452 200.741 243.745 202.447C242.038 204.154 240.901 206.145 240.047 208.279C239.478 209.843 238.909 211.55 238.34 213.115C238.625 213.684 238.483 214.11 238.056 214.537L238.198 214.821Z" fill="#894100"/>
<path d="M249.861 199.458C249.861 201.307 250.43 203.014 250.999 204.721C252.705 210.695 255.55 216.242 259.39 221.077C261.097 223.353 262.804 225.629 265.364 227.478C267.782 229.184 269.773 231.602 271.907 233.878C273.756 235.727 275.747 237.149 277.738 238.714C279.729 240.278 281.863 241.132 284.423 240.99C285.134 238.856 286.556 237.149 287.694 235.3C287.694 234.305 286.983 233.594 286.13 233.167C282.858 231.46 280.014 229.327 277.454 226.767C275.889 225.202 274.324 223.637 272.76 222.073C272.191 221.646 271.764 220.935 271.195 220.651C268.493 219.086 266.929 216.526 265.364 213.966C264.511 212.544 263.515 211.121 262.662 209.557C260.528 205.859 258.537 201.876 257.826 197.609C257.399 197.609 256.972 197.609 256.688 197.609C254.412 198.036 252.137 198.178 250.145 199.458H249.861Z" fill="#5D3816"/>
<path d="M237.202 229.328C237.771 227.479 237.771 226.341 237.202 224.492C236.776 226.057 236.634 227.763 237.202 229.328Z" fill="#894100"/>
<path d="M255.977 191.07C256.403 190.359 256.261 189.79 255.835 189.221C255.266 189.932 255.55 190.501 255.977 191.07Z" fill="#884000"/>
<path d="M238.198 214.823C238.625 214.396 238.767 213.969 238.483 213.4C238.056 213.827 237.771 214.254 238.198 214.823Z" fill="#894100"/>
<path d="M302.771 239.425C302.486 239.141 302.202 239.141 301.917 239.283C302.202 239.567 302.486 239.71 302.771 239.425Z" fill="#BF9F83"/>
<path d="M316.709 239.285C316.425 239.143 316.14 239.285 315.856 239.428C316.14 239.57 316.425 239.428 316.709 239.285Z" fill="#BF9F83"/>
<path d="M296.086 238.289C295.943 238.005 295.659 237.863 295.232 238.005C295.375 238.289 295.659 238.432 296.086 238.289Z" fill="#BF9F83"/>
</svg>
