<?xml version="1.0" encoding="UTF-8"?>
<svg xmlns="http://www.w3.org/2000/svg" version="1.1" viewBox="0 0 500 500">
  <defs>
    <style>
      .cls-1 {
        fill: #bf9f83;
      }

      .cls-2 {
        fill: #8a89de;
      }

      .cls-3 {
        fill: #cbb9b6;
      }

      .cls-4 {
        fill: #884000;
      }

      .cls-5 {
        fill: #e7a37b;
      }

      .cls-6 {
        fill: #5d3816;
      }

      .cls-7 {
        fill: #696d65;
      }

      .cls-8 {
        fill: #ffb68a;
      }

      .cls-9 {
        fill: #894100;
      }

      .cls-10 {
        fill: #e7a47c;
      }
    </style>
  </defs>
  <!-- Generator: Adobe Illustrator 28.7.1, SVG Export Plug-In . SVG Version: 1.2.0 Build 142)  -->
  <g>
    <g id="_레이어_1" data-name="레이어_1">
      <g>
        <path class="cls-7" d="M283.6,343.3c-.3,0-.5.1-.8.2-.4,0-.7,0-.9.3-.3,0-.5.1-.8.2-.2,0-.4,0-.5.2-.4,0-.8.2-1.2.2-.2,0-.4,0-.5.2-.3,0-.5.1-.8.2-.4,0-.7,0-.9.3-.3,0-.5.1-.8.2-.4,0-.7,0-.9.3-.3,0-.5.1-.8.2-1,0-1.8.1-2.7.6-.5,0-1.1.2-1.6.3-.2,0-.4,0-.5.2-.5,0-1.1.2-1.6.3-.2,0-.4,0-.5.2-.5,0-1.1.2-1.6.3-1.2-.1-2.4.1-3.5.6-.3,0-.5,0-.8,0-.9-.2-1.8-.1-2.6.3-.7,0-1.4.1-2.1.2-.5-.1-.9-.1-1.4.2-.7,0-1.4.1-2.1.2-1.2,0-2.4-.3-3.5.2-3,0-6,0-8.9.1-.9,0-1.7-.2-2.5-.5-.4-.9-.8-1.8-1.2-2.7-1.2-2.6-2.3-5.2-3.2-7.9-1.5-4.5-2.5-9.1-3.4-13.8-.6-3.3-1-6.7-1.3-10.1-.2-3.2-.2-6.4,0-9.6.2-2.4.3-4.8,1.3-7.1.4,0,.9,0,1.3.2,1.4.4,2.7.8,4.1,1.3,1.2.4,1.2.4,2.1-.7.8-.9,1.5-1.9,2.3-2.8,4.2-4.6,9.2-8.1,14.8-10.8,6.9-3.4,14.2-5.2,21.8-5.6,1.7.2,3.5.2,5.2,0,1.1,0,2.2.2,3.3.3.3.3.6.3,1,.2.7,0,1.3.2,2,.3.3.3.6.3,1,.2.4,0,.8.1,1.2.2.2.3.6.4.9.3.9.3,1.8.4,2.6.8,1,.5,1.8.3,2.8-.2,7.3-4.1,14.6-8.2,22-12.3,9.2-5.1,18.3-10.4,27.6-15.3.5-.3,1.1-.4,1.4-1-.1-.2-.2-.4-.3-.5-2-1.6-3.9-3.3-6.1-4.7-8.7-5.7-17.3-11.5-25.9-17.2-7.6-5-15-10.3-23.1-14.4-.7-.4-1.3-.9-1.7-1.6.8-2.2,1.6-4.4,2.3-6.6,2.2-6.5,4.3-12.9,6.2-19.5,3.2,1,6.3,2.3,9.3,3.6,10.8,4.8,21.5,9.5,32.3,14.3,11.8,5.2,23.6,10.5,35.4,15.7,1.6.7,3.1,1.3,4.6,2.2,1.8,1.1,3.7,2.2,5.3,3.6,5.3,4.7,8.8,10.5,10.1,17.6.4,2.3.3,4.7-.1,7-.3.3-.4.6-.1,1-1.5,7.4-4.8,14.1-9.2,20.2-4.7,6.5-10.1,12.5-15.9,18-10.2,9.7-21.5,17.8-33.6,25-3.5,2.1-6.9,4.3-10.3,6.4-10.8,6.5-21.9,12.3-33.6,16.9-.2,0-.4,0-.5.2-.1,0-.3,0-.4.1-.2,0-.4,0-.5.2-.2,0-.5.2-.7.2-.2,0-.4,0-.5.2-.3,0-.5.2-.8.2-.2,0-.4,0-.5.2-.1,0-.3,0-.4.1-.2,0-.4,0-.5.2-.2,0-.5.2-.7.2-.2,0-.4,0-.5.2-.3,0-.5.1-.8.2-.2,0-.4,0-.5.2-.3,0-.5.1-.8.2-.4,0-.7,0-.9.3-.3,0-.5.1-.8.2-.2,0-.4,0-.5.2Z"/>
        <path class="cls-8" d="M299.9,188.2c-1.9,6.6-4,13-6.2,19.5-.7,2.2-1.5,4.4-2.3,6.6-.7,0-1.4,0-2.1-.1-.5,0-1,0-1.5-.1-2.1-.7-4.3-1.4-6.2-2.7-2.6-1.8-5.1-3.8-7.4-6-2.1-2-4-4.2-5.6-6.6-.3-.5-.6-1-1.2-1.2-.1-.2-.2-.3-.4-.5-.3-.6-.7,0-1.1-.1-3.4-.3-6.7-1-9.9-2.2-1.3-.5-2.5-1-3.8-1.4-3.5-1.1-7-2.3-10.4-3.6-1.6-.6-3-1.5-4.3-2.6-.5-.5-1.1-1-1.6-1.4-.6-.5-.6-.5-1.2.3-.2-.2-.5-.3-.7-.5-1-1.1-2.3-1.6-3.7-1.8-2.2-.4-4.4-.9-6.6-1.4-4.3-1.1-8.7-1.9-13-2.9-4.2-1-8.5-1.7-12.6-2.9-3-.9-6.2-1.3-9.2-2.3-.7-.2-1.4-.2-2.1-.2-1.4,0-2.4,1-2.5,2.4,0,1.5,0,2.9.4,4.4.4,2.1.8,4.2,1.2,6.2,1,4.7,2.4,9.3,3.6,14,.2.8.5,1.6.8,2.4,0,0,.2.2.3.2.1,0,.3,0,.4-.2.6-.8.6-1.7.4-2.6-.5-2-.3-4.1-.7-6.1-.2-1.4,0-2.8-.4-4.2.6-.5.5-1.3.6-2,.3-2,1.5-3.3,3.2-4.1.6-.3,1.1-.6,1.7-.8,2-.9,3.9-1.9,5.9-2.8.3.6.7.8,1.3.9,1.4.3,2.9.7,4.3,1,2.6.6,5.2,1.3,7.8,1.8,4.9,1.1,9.8,2.1,14.6,3.2,1.6.4,3.1.4,4.6-.2,0,1.6-.8,2.8-2.1,3.7-1.1.8-2.2,1.8-3.3,2.7-2.7,2.3-5.3,4.7-8,7-1.3,1.1-2.4,2.4-3.7,3.5-1.3,1.1-1.9,2.4-2,4-.2,2.5-.5,5.1-.9,7.6-.6,4.3-1.3,8.5-1.4,12.9-.7.1-1.2-.3-1.8-.6-1.6-.9-3.2-1.8-4.8-2.8-2.2-1.3-4.5-2.4-6.5-4-.8-.6-1.7-.9-2.6-1.4-.4-.2-.8-.1-1.2.2-.4.3-.4.7-.2,1.2.5,1.3,1,2.5,1.4,3.8.4,1.3,1,2.3,2.1,3.1,1.6,1.3,2.4,3,2.7,4.9.3,2.4.4,4.8,0,7.2-.9,5.3-2.9,10.2-6.3,14.5-1.8,2.3-3.6,4.6-6.1,6.2-3,2-6.3,2.7-9.9,1.9-3.8-.8-6.8-2.9-9.2-5.7-5.2-6.2-7.6-13.5-8-21.5,0-1.6,0-3.1,0-4.7,0-.6-.2-1-.8-1.1-.2-2.7-.7-5.3-1.1-8-.4-2.5-.7-4.9-1.1-7.3-.4-2.5-.8-5-1.1-7.6-.3-2.3-.6-4.6-1-6.9-.4-2.7-.8-5.3-1.2-8-.4-2.6-.7-5.2-1-7.8-.2-1.8-.6-3.6-.7-5.5-.2-3.1-.4-6.2.1-9.3.1-.7,0-1.4.2-2.1.6-3.4,1.4-6.8,3.3-9.8.5-.8.9-1.6,1.3-2.4,1.2-2.2,2.8-3.9,5-5.2.9-.5,1.9-1.1,2.8-1.5,1.9-.8,3.9-1.3,6-1.3,3.4,0,6.8.3,10.1,1.2,9.1,2.4,18.3,4.6,27.4,6.9,8,2,15.9,4.2,23.9,6.2.5.1,1.1.2,1.6.4,1.1.4,2.3.4,3.4,0,5.2-1.5,10.2-.7,15.1,1.5,3.4,1.5,6.6,3.3,9.7,5.3.5.3,1.1.7,1.6,1.1,2.1,2.2,4.8,3.5,7.5,4.8,5.1,2.6,10.2,5.1,15.3,7.6,3.4,1.7,6.9,3.3,10.4,4.9.3.1.6.4.9.6ZM255.5,177.4c-.2,1.4.3,2.7.9,4,.7,1.5,1.4,2.9,2.2,4.4,1.5,2.7,3.1,5.2,5,7.6.4.5.9,1,1.4,1.3.9.6,1.9,0,2-1,0-.8-.3-1.5-.7-2.2-1.8-3.6-3.6-7.2-5.4-10.8-.4-.8-.6-1.6-1-2.3-.2-.5,0-.8.3-1.1.7-.7,1.7-1,2.6-1.4.5-.2,1.1-.3,1.6-.5.9-.4,1.7-1.8,1.6-2.6-.3-1.4-1.4-2.2-2.8-2-.3,0-.6,0-.8.2-1.6.5-3.2,1.2-4.6,2.1-1.5,1-2.6,2.4-2.3,4.5Z"/>
        <path class="cls-2" d="M161.8,230.3c.6.2.8.5.8,1.1,0,1.6,0,3.1,0,4.7.4,8,2.8,15.3,8,21.5,2.4,2.8,5.4,5,9.2,5.7,3.6.8,6.9,0,9.9-1.9,2.5-1.6,4.3-3.9,6.1-6.2,3.4-4.3,5.4-9.2,6.3-14.5.4-2.4.4-4.8,0-7.2-.3-1.9-1.1-3.7-2.7-4.9-1-.8-1.7-1.8-2.1-3.1-.4-1.3-.9-2.5-1.4-3.8-.2-.4-.2-.8.2-1.2.4-.3.8-.4,1.2-.2.9.4,1.9.8,2.6,1.4,2,1.6,4.3,2.7,6.5,4,1.6,1,3.2,1.9,4.8,2.8.5.3,1.1.7,1.8.6.2.8.4,1.6.6,2.4-.1.3-.3.5-.3.8-.1,1.9-.5,3.8-.8,5.7-.4,2.8-.8,5.6-.9,8.5-.2,4.4-.2,8.8,0,13.2.1,3,.5,5.9,1.1,8.9,1,4.6,2.3,9.1,4.1,13.4,1.2,3,2.6,5.9,4.8,8.3.8.8,1.5,1.7,1.8,2.9.1.5.5.8.8,1.3-.3.1-.5.3-.8.4-1.8.5-3.7,1.1-5.5,1.6-5.2,1.6-10.4,3.2-15.7,4.8-7.8,2.3-15.6,4.6-23.5,7-4.4,1.3-8.8,2.7-13.2,4-.7-.6-1.1-1.5-1.5-2.3-1.2-2-2.4-4.1-3.4-6.1-1.5-3-3.1-5.9-5-8.7-.3-.5-.7-.9-1.1-1.3-5.9-4.7-8.5-11-9.1-18.3-.1-1.5-.4-3-.3-4.5.4-5.9,1.5-11.7,3.6-17.2,1.8-4.9,4-9.6,6.8-14,1.8-2.8,3.6-5.6,5.4-8.4.2-.3.6-.6.8-1Z"/>
        <path class="cls-8" d="M165.5,312.1c4.4-1.3,8.8-2.7,13.2-4,7.8-2.3,15.6-4.6,23.5-7,5.2-1.6,10.5-3.2,15.7-4.8,1.8-.6,3.7-1.1,5.5-1.6.3,0,.5-.2.8-.4,1.1,1.1,2.5,1.8,4,2.3,1.1.3,2.1.8,3.2,1.1-1,2.2-1.2,4.7-1.3,7.1-.2,3.2-.2,6.4,0,9.6.2,3.4.7,6.8,1.3,10.1.8,4.7,1.9,9.3,3.4,13.8.9,2.7,2,5.3,3.2,7.9.4.9.8,1.8,1.2,2.7-1.1.6-2.3.8-3.5.9-1.5.2-2.9.4-4.4.4-3.3,0-6.6-.5-9.9-1-2.2-.4-4.3-.8-6.5-1.3-4.1-1-8-2.5-11.8-4.2-2.1-.9-4.3-1.9-6.4-3-5.6-2.8-10.9-6.2-15.7-10.1-3.9-3.2-7.5-6.7-10.5-10.8-.5-.6-.9-1.3-1.3-1.9-.7-1.2-1.5-2.4-2.3-3.5-.5-.7-1.2-1.3-1.1-2.2Z"/>
        <path class="cls-3" d="M262.7,348c1.1-.5,2.3-.8,3.5-.6-1.1.5-2.3.8-3.5.6Z"/>
        <path class="cls-3" d="M250.3,349.3c1.1-.5,2.3-.3,3.5-.2-1.1.6-2.3.4-3.5.2Z"/>
        <path class="cls-3" d="M272.1,346.3c.8-.5,1.7-.7,2.7-.6-.8.6-1.7.8-2.7.6Z"/>
        <path class="cls-3" d="M259.3,348.4c.8-.5,1.7-.6,2.6-.3-.8.6-1.7.4-2.6.3Z"/>
        <path class="cls-7" d="M396.6,253.1c-.3-.4-.2-.7.1-1,.3.4.1.7-.1,1Z"/>
        <path class="cls-3" d="M255.9,348.8c.4-.4.9-.4,1.4-.2-.4.4-.9.4-1.4.2Z"/>
        <path class="cls-3" d="M284.9,342.9c.2-.3.5-.4.9-.3-.2.3-.5.4-.9.3Z"/>
        <path class="cls-3" d="M281.9,343.8c.2-.3.5-.4.9-.3-.2.3-.5.4-.9.3Z"/>
        <path class="cls-3" d="M277.2,345c.2-.3.6-.4.9-.3-.2.3-.5.4-.9.3Z"/>
        <path class="cls-3" d="M275.5,345.5c.2-.3.5-.4.9-.3-.2.3-.5.4-.9.3Z"/>
        <path class="cls-3" d="M287.9,342c.1-.2.3-.3.5-.2-.1.2-.3.3-.5.2Z"/>
        <path class="cls-3" d="M286.6,342.4c.1-.2.3-.3.5-.2-.1.2-.3.3-.5.2Z"/>
        <path class="cls-3" d="M283.6,343.3c.1-.2.3-.3.5-.2-.1.2-.3.3-.5.2Z"/>
        <path class="cls-3" d="M278.9,344.6c.1-.2.3-.3.5-.2-.1.2-.3.3-.5.2Z"/>
        <path class="cls-3" d="M293.4,339.9c.1-.2.3-.3.5-.2-.1.2-.3.3-.5.2Z"/>
        <path class="cls-3" d="M292.5,340.3c.1-.2.3-.3.5-.2-.1.2-.3.3-.5.2Z"/>
        <path class="cls-3" d="M280.6,344.2c.1-.2.3-.3.5-.2-.1.2-.3.3-.5.2Z"/>
        <path class="cls-3" d="M267.8,347.1c.1-.2.3-.3.5-.2-.1.2-.3.3-.5.2Z"/>
        <path class="cls-3" d="M291.3,340.8c.1-.2.3-.3.5-.2-.1.2-.3.3-.5.2Z"/>
        <path class="cls-3" d="M290,341.2c.1-.2.3-.3.5-.2-.1.2-.3.3-.5.2Z"/>
        <path class="cls-3" d="M289.1,341.5c.1-.2.3-.3.5-.2-.1.2-.3.3-.5.2Z"/>
        <path class="cls-3" d="M269.9,346.7c.1-.2.3-.3.5-.2-.1.2-.3.3-.5.2Z"/>
        <path class="cls-3" d="M277.7,279.3c1.6-.4,3.6-.4,5.2,0-1.7.2-3.5.2-5.2,0Z"/>
        <path class="cls-1" d="M289.2,279.9c.4-.1.7,0,1,.2-.4.1-.7,0-1-.2Z"/>
        <path class="cls-1" d="M286.2,279.5c.4-.1.7,0,1,.2-.4.2-.7.1-1-.2Z"/>
        <path class="cls-1" d="M291.3,280.4c.4-.1.7,0,.9.3-.4.1-.7,0-.9-.3Z"/>
        <path class="cls-4" d="M234.1,236.6c-3.1.3-6.2.4-9.2,0-.2-.2-.3-.3-.6-.1-1.3-.2-2.6-.5-3.9-.8-2.6-.8-4.9-2-6.8-4.1-.2-.8-.4-1.6-.6-2.4,0-4.3.8-8.6,1.4-12.9.4-2.5.7-5.1.9-7.6.1-1.7.8-2.9,2-4,1.3-1.1,2.4-2.5,3.7-3.5,2.8-2.2,5.3-4.7,8-7,1.1-.9,2.1-1.9,3.3-2.7,1.3-.9,2.1-2.1,2.1-3.7.3-.5.3-1.1.3-1.6.6-.9.6-.9,1.2-.3.5.5,1.1.9,1.6,1.4,1.3,1.1,2.7,2,4.3,2.6,3.4,1.4,6.9,2.5,10.4,3.6,1.3.4,2.5.9,3.8,1.4,3.2,1.2,6.5,1.8,9.9,2.2.4,0,.8-.4,1.1.1,0,.2,0,.4,0,.6,0,1.2,0,2.5-.1,3.7-.4.4-.4.8-.1,1.3-.3,1.3-.5,2.6-.8,3.8-.3.2-.3.4-.4.7-.6,3-1.9,5.7-3.4,8.4-.6,1-1.2,2.1-1.9,3.1-1.1,1.8-2.2,3.6-4.1,4.7-.4.2-.7.7-1.1,1-1.1,1.1-2.2,2.2-3.3,3.3-1.8,1.8-3.8,3.4-6.1,4.5-.6.3-1,.8-1.1,1.5-1.8.7-3.6,1.5-5.5,1.9-.2,0-.4,0-.6.2-1.4.2-2.7.5-4.1.7-.2-.1-.4,0-.6.1Z"/>
        <path class="cls-10" d="M234.7,186.1c0,.5,0,1.1-.3,1.6-1.5.6-3,.6-4.6.2-4.9-1.1-9.8-2.1-14.6-3.2-2.6-.6-5.2-1.2-7.8-1.8-1.4-.3-2.9-.7-4.3-1-.6-.1-1.1-.4-1.3-.9-.3-.6-.8-.7-1.4-.8-1.3-.2-2.6-.5-4-.7-2.4-.5-4.9-.9-7.3-1.4,0,0-.1,0-.2,0-.9-.1-1.2.2-1,1,.8,3.9,1.6,7.7,2.4,11.6.4,1.4.2,2.8.4,4.2.3,2,.2,4.1.7,6.1.2.9.2,1.8-.4,2.6,0,0-.2.2-.4.2-.1,0-.3,0-.3-.2-.3-.8-.6-1.6-.8-2.4-1.3-4.6-2.6-9.3-3.6-14-.5-2.1-.9-4.1-1.2-6.2-.3-1.5-.4-2.9-.4-4.4,0-1.4,1-2.3,2.5-2.4.7,0,1.4,0,2.1.2,3,1.1,6.2,1.4,9.2,2.3,4.1,1.3,8.4,2,12.6,2.9,4.3,1,8.7,1.9,13,2.9,2.2.5,4.4,1,6.6,1.4,1.5.2,2.7.6,3.7,1.8.2.2.5.3.7.5Z"/>
        <path class="cls-5" d="M255.5,177.4c-.3-2.1.8-3.5,2.3-4.5,1.4-.9,3-1.7,4.6-2.1.3,0,.6-.1.8-.2,1.4-.1,2.5.7,2.8,2,.2.8-.6,2.2-1.6,2.6-.5.2-1.1.3-1.6.5-.9.3-1.9.7-2.6,1.4-.3.3-.5.7-.3,1.1.3.8.6,1.6,1,2.3,1.8,3.6,3.6,7.2,5.4,10.8.3.7.7,1.4.7,2.2,0,1-1.1,1.6-2,1-.5-.3-1-.8-1.4-1.3-1.9-2.4-3.5-4.9-5-7.6-.8-1.4-1.5-2.9-2.2-4.4-.6-1.3-1.1-2.6-.9-4Z"/>
        <path class="cls-1" d="M267.2,197.6c0-.2,0-.4,0-.6.1.2.2.3.4.5,0,0-.1,0-.1,0h-.2Z"/>
        <path class="cls-9" d="M279.5,219.3c.5,2.3.9,4.5.8,6.8-.4,1.3-.4,2,0,3.4,0,2.1-.5,4.1-1,6.1-.8,3.1-1.7,6.2-2.9,9.1-2.3,5.8-3.7,11.8-5,17.8-.3,1.2-.5,2.5-.9,3.7-.5,1.9-1.8,2.6-3.8,2-1.2-.3-2.2-1-3-1.9-5.1-5-9-10.8-11.9-17.3-1.2-2.8-2.6-5.5-3.7-8.4-.4-1-.7-2-1-3,1.8,0,3.3-.6,4.7-1.6,1.4-1.1,2.8-2.1,4.1-3.4,1.5-1.5,2.9-3.2,4.6-4.5,1.7-1.2,2.9-2.9,4.2-4.5,2.7-3.4,4.7-7.3,5.9-11.5.3-1.2.8-2.4.8-3.7,1.7.2,3,1,4.2,2.2,1.2,1.2,2,2.6,2.6,4.1.4,1.1.8,2.3,1.2,3.4-.2.4-.1.7.2,1Z"/>
        <path class="cls-6" d="M271.3,208.5c0,1.3-.4,2.5-.8,3.7-1.2,4.2-3.2,8.1-5.9,11.5-1.2,1.6-2.4,3.2-4.2,4.5-1.7,1.2-3.1,2.9-4.6,4.5-1.3,1.3-2.7,2.3-4.1,3.4-1.4,1.1-2.9,1.7-4.7,1.6-.5-1.5-1.5-2.7-2.3-4,0-.7.5-1.2,1.1-1.5,2.3-1.2,4.3-2.7,6.1-4.5,1.1-1.1,2.2-2.2,3.3-3.3.4-.3.7-.8,1.1-1,1.9-1.1,3-2.9,4.1-4.7.6-1,1.3-2,1.9-3.1,1.5-2.6,2.9-5.4,3.4-8.4.3,0,.6,0,.8,0,1.6.3,3.2.4,4.6,1.3Z"/>
        <path class="cls-9" d="M280.2,229.5c-.4-1.3-.4-2.1,0-3.4.3,1.1.4,2.3,0,3.4Z"/>
        <path class="cls-4" d="M267,202.6c-.3-.5-.2-.9.1-1.3.4.5.2.9-.1,1.3Z"/>
        <path class="cls-9" d="M279.5,219.3c-.3-.3-.4-.6-.2-1,.3.3.5.6.2,1Z"/>
        <path class="cls-1" d="M234.1,236.6c.2-.2.4-.2.6-.1-.2.2-.4.3-.6.1Z"/>
        <path class="cls-1" d="M224.3,236.5c.2-.1.4,0,.6.1-.2.1-.4,0-.6-.1Z"/>
        <path class="cls-1" d="M238.8,235.8c.1-.2.3-.3.6-.2-.1.2-.3.3-.6.2Z"/>
      </g>
    </g>
  </g>
</svg>