<?xml version="1.0" encoding="UTF-8"?>
<svg width="500" height="500" xmlns="http://www.w3.org/2000/svg" version="1.1" viewBox="0 0 500 500">
  <g>
    <g>
      <g>
        <path fill="#696d65" d="M 283.6 343.3 c -.3 0 -.5 .1 -.8 .2 -.4 0 -.7 0 -.9 .3 -.3 0 -.5 .1 -.8 .2 -.2 0 -.4 0 -.5 .2 -.4 0 -.8 .2 -1.2 .2 -.2 0 -.4 0 -.5 .2 -.3 0 -.5 .1 -.8 .2 -.4 0 -.7 0 -.9 .3 -.3 0 -.5 .1 -.8 .2 -.4 0 -.7 0 -.9 .3 -.3 0 -.5 .1 -.8 .2 -1 0 -1.8 .1 -2.7 .6 -.5 0 -1.1 .2 -1.6 .3 -.2 0 -.4 0 -.5 .2 -.5 0 -1.1 .2 -1.6 .3 -.2 0 -.4 0 -.5 .2 -.5 0 -1.1 .2 -1.6 .3 -1.2 -.1 -2.4 .1 -3.5 .6 -.3 0 -.5 0 -.8 0 -.9 -.2 -1.8 -.1 -2.6 .3 -.7 0 -1.4 .1 -2.1 .2 -.5 -.1 -.9 -.1 -1.4 .2 -.7 0 -1.4 .1 -2.1 .2 -1.2 0 -2.4 -.3 -3.5 .2 -3 0 -6 0 -8.9 .1 -.9 0 -1.7 -.2 -2.5 -.5 -.4 -.9 -.8 -1.8 -1.2 -2.7 -1.2 -2.6 -2.3 -5.2 -3.2 -7.9 -1.5 -4.5 -2.5 -9.1 -3.4 -13.8 -.6 -3.3 -1 -6.7 -1.3 -10.1 -.2 -3.2 -.2 -6.4 0 -9.6 .2 -2.4 .3 -4.8 1.3 -7.1 .4 0 .9 0 1.3 .2 1.4 .4 2.7 .8 4.1 1.3 1.2 .4 1.2 .4 2.1 -.7 .8 -.9 1.5 -1.9 2.3 -2.8 4.2 -4.6 9.2 -8.1 14.8 -10.8 6.9 -3.4 14.2 -5.2 21.8 -5.6 1.7 .2 3.5 .2 5.2 0 1.1 0 2.2 .2 3.3 .3 .3 .3 .6 .3 1 .2 .7 0 1.3 .2 2 .3 .3 .3 .6 .3 1 .2 .4 0 .8 .1 1.2 .2 .2 .3 .6 .4 .9 .3 .9 .3 1.8 .4 2.6 .8 1 .5 1.8 .3 2.8 -.2 7.3 -4.1 14.6 -8.2 22 -12.3 9.2 -5.1 18.3 -10.4 27.6 -15.3 .5 -.3 1.1 -.4 1.4 -1 -.1 -.2 -.2 -.4 -.3 -.5 -2 -1.6 -3.9 -3.3 -6.1 -4.7 -8.7 -5.7 -17.3 -11.5 -25.9 -17.2 -7.6 -5 -15 -10.3 -23.1 -14.4 -.7 -.4 -1.3 -.9 -1.7 -1.6 .8 -2.2 1.6 -4.4 2.3 -6.6 2.2 -6.5 4.3 -12.9 6.2 -19.5 3.2 1 6.3 2.3 9.3 3.6 10.8 4.8 21.5 9.5 32.3 14.3 11.8 5.2 23.6 10.5 35.4 15.7 1.6 .7 3.1 1.3 4.6 2.2 1.8 1.1 3.7 2.2 5.3 3.6 5.3 4.7 8.8 10.5 10.1 17.6 .4 2.3 .3 4.7 -.1 7 -.3 .3 -.4 .6 -.1 1 -1.5 7.4 -4.8 14.1 -9.2 20.2 -4.7 6.5 -10.1 12.5 -15.9 18 -10.2 9.7 -21.5 17.8 -33.6 25 -3.5 2.1 -6.9 4.3 -10.3 6.4 -10.8 6.5 -21.9 12.3 -33.6 16.9 -.2 0 -.4 0 -.5 .2 -.1 0 -.3 0 -.4 .1 -.2 0 -.4 0 -.5 .2 -.2 0 -.5 .2 -.7 .2 -.2 0 -.4 0 -.5 .2 -.3 0 -.5 .2 -.8 .2 -.2 0 -.4 0 -.5 .2 -.1 0 -.3 0 -.4 .1 -.2 0 -.4 0 -.5 .2 -.2 0 -.5 .2 -.7 .2 -.2 0 -.4 0 -.5 .2 -.3 0 -.5 .1 -.8 .2 -.2 0 -.4 0 -.5 .2 -.3 0 -.5 .1 -.8 .2 -.4 0 -.7 0 -.9 .3 -.3 0 -.5 .1 -.8 .2 -.2 0 -.4 0 -.5 .2 Z"/>
        <path fill="#ffb68a" d="M 299.9 188.2 c -1.9 6.6 -4 13 -6.2 19.5 -.7 2.2 -1.5 4.4 -2.3 6.6 -.7 0 -1.4 0 -2.1 -.1 -.5 0 -1 0 -1.5 -.1 -2.1 -.7 -4.3 -1.4 -6.2 -2.7 -2.6 -1.8 -5.1 -3.8 -7.4 -6 -2.1 -2 -4 -4.2 -5.6 -6.6 -.3 -.5 -.6 -1 -1.2 -1.2 -.1 -.2 -.2 -.3 -.4 -.5 -.3 -.6 -.7 0 -1.1 -.1 -3.4 -.3 -6.7 -1 -9.9 -2.2 -1.3 -.5 -2.5 -1 -3.8 -1.4 -3.5 -1.1 -7 -2.3 -10.4 -3.6 -1.6 -.6 -3 -1.5 -4.3 -2.6 -.5 -.5 -1.1 -1 -1.6 -1.4 -.6 -.5 -.6 -.5 -1.2 .3 -.2 -.2 -.5 -.3 -.7 -.5 -1 -1.1 -2.3 -1.6 -3.7 -1.8 -2.2 -.4 -4.4 -.9 -6.6 -1.4 -4.3 -1.1 -8.7 -1.9 -13 -2.9 -4.2 -1 -8.5 -1.7 -12.6 -2.9 -3 -.9 -6.2 -1.3 -9.2 -2.3 -.7 -.2 -1.4 -.2 -2.1 -.2 -1.4 0 -2.4 1 -2.5 2.4 0 1.5 0 2.9 .4 4.4 .4 2.1 .8 4.2 1.2 6.2 1 4.7 2.4 9.3 3.6 14 .2 .8 .5 1.6 .8 2.4 0 0 .2 .2 .3 .2 .1 0 .3 0 .4 -.2 .6 -.8 .6 -1.7 .4 -2.6 -.5 -2 -.3 -4.1 -.7 -6.1 -.2 -1.4 0 -2.8 -.4 -4.2 .6 -.5 .5 -1.3 .6 -2 .3 -2 1.5 -3.3 3.2 -4.1 .6 -.3 1.1 -.6 1.7 -.8 2 -.9 3.9 -1.9 5.9 -2.8 .3 .6 .7 .8 1.3 .9 1.4 .3 2.9 .7 4.3 1 2.6 .6 5.2 1.3 7.8 1.8 4.9 1.1 9.8 2.1 14.6 3.2 1.6 .4 3.1 .4 4.6 -.2 0 1.6 -.8 2.8 -2.1 3.7 -1.1 .8 -2.2 1.8 -3.3 2.7 -2.7 2.3 -5.3 4.7 -8 7 -1.3 1.1 -2.4 2.4 -3.7 3.5 -1.3 1.1 -1.9 2.4 -2 4 -.2 2.5 -.5 5.1 -.9 7.6 -.6 4.3 -1.3 8.5 -1.4 12.9 -.7 .1 -1.2 -.3 -1.8 -.6 -1.6 -.9 -3.2 -1.8 -4.8 -2.8 -2.2 -1.3 -4.5 -2.4 -6.5 -4 -.8 -.6 -1.7 -.9 -2.6 -1.4 -.4 -.2 -.8 -.1 -1.2 .2 -.4 .3 -.4 .7 -.2 1.2 .5 1.3 1 2.5 1.4 3.8 .4 1.3 1 2.3 2.1 3.1 1.6 1.3 2.4 3 2.7 4.9 .3 2.4 .4 4.8 0 7.2 -.9 5.3 -2.9 10.2 -6.3 14.5 -1.8 2.3 -3.6 4.6 -6.1 6.2 -3 2 -6.3 2.7 -9.9 1.9 -3.8 -.8 -6.8 -2.9 -9.2 -5.7 -5.2 -6.2 -7.6 -13.5 -8 -21.5 0 -1.6 0 -3.1 0 -4.7 0 -.6 -.2 -1 -.8 -1.1 -.2 -2.7 -.7 -5.3 -1.1 -8 -.4 -2.5 -.7 -4.9 -1.1 -7.3 -.4 -2.5 -.8 -5 -1.1 -7.6 -.3 -2.3 -.6 -4.6 -1 -6.9 -.4 -2.7 -.8 -5.3 -1.2 -8 -.4 -2.6 -.7 -5.2 -1 -7.8 -.2 -1.8 -.6 -3.6 -.7 -5.5 -.2 -3.1 -.4 -6.2 .1 -9.3 .1 -.7 0 -1.4 .2 -2.1 .6 -3.4 1.4 -6.8 3.3 -9.8 .5 -.8 .9 -1.6 1.3 -2.4 1.2 -2.2 2.8 -3.9 5 -5.2 .9 -.5 1.9 -1.1 2.8 -1.5 1.9 -.8 3.9 -1.3 6 -1.3 3.4 0 6.8 .3 10.1 1.2 9.1 2.4 18.3 4.6 27.4 6.9 8 2 15.9 4.2 23.9 6.2 .5 .1 1.1 .2 1.6 .4 1.1 .4 2.3 .4 3.4 0 5.2 -1.5 10.2 -.7 15.1 1.5 3.4 1.5 6.6 3.3 9.7 5.3 .5 .3 1.1 .7 1.6 1.1 2.1 2.2 4.8 3.5 7.5 4.8 5.1 2.6 10.2 5.1 15.3 7.6 3.4 1.7 6.9 3.3 10.4 4.9 .3 .1 .6 .4 .9 .6 Z M 255.5 177.4 c -.2 1.4 .3 2.7 .9 4 .7 1.5 1.4 2.9 2.2 4.4 1.5 2.7 3.1 5.2 5 7.6 .4 .5 .9 1 1.4 1.3 .9 .6 1.9 0 2 -1 0 -.8 -.3 -1.5 -.7 -2.2 -1.8 -3.6 -3.6 -7.2 -5.4 -10.8 -.4 -.8 -.6 -1.6 -1 -2.3 -.2 -.5 0 -.8 .3 -1.1 .7 -.7 1.7 -1 2.6 -1.4 .5 -.2 1.1 -.3 1.6 -.5 .9 -.4 1.7 -1.8 1.6 -2.6 -.3 -1.4 -1.4 -2.2 -2.8 -2 -.3 0 -.6 0 -.8 .2 -1.6 .5 -3.2 1.2 -4.6 2.1 -1.5 1 -2.6 2.4 -2.3 4.5 Z"/>
        <path fill="#8a89de" d="M 161.8 230.3 c .6 .2 .8 .5 .8 1.1 0 1.6 0 3.1 0 4.7 .4 8 2.8 15.3 8 21.5 2.4 2.8 5.4 5 9.2 5.7 3.6 .8 6.9 0 9.9 -1.9 2.5 -1.6 4.3 -3.9 6.1 -6.2 3.4 -4.3 5.4 -9.2 6.3 -14.5 .4 -2.4 .4 -4.8 0 -7.2 -.3 -1.9 -1.1 -3.7 -2.7 -4.9 -1 -.8 -1.7 -1.8 -2.1 -3.1 -.4 -1.3 -.9 -2.5 -1.4 -3.8 -.2 -.4 -.2 -.8 .2 -1.2 .4 -.3 .8 -.4 1.2 -.2 .9 .4 1.9 .8 2.6 1.4 2 1.6 4.3 2.7 6.5 4 1.6 1 3.2 1.9 4.8 2.8 .5 .3 1.1 .7 1.8 .6 .2 .8 .4 1.6 .6 2.4 -.1 .3 -.3 .5 -.3 .8 -.1 1.9 -.5 3.8 -.8 5.7 -.4 2.8 -.8 5.6 -.9 8.5 -.2 4.4 -.2 8.8 0 13.2 .1 3 .5 5.9 1.1 8.9 1 4.6 2.3 9.1 4.1 13.4 1.2 3 2.6 5.9 4.8 8.3 .8 .8 1.5 1.7 1.8 2.9 .1 .5 .5 .8 .8 1.3 -.3 .1 -.5 .3 -.8 .4 -1.8 .5 -3.7 1.1 -5.5 1.6 -5.2 1.6 -10.4 3.2 -15.7 4.8 -7.8 2.3 -15.6 4.6 -23.5 7 -4.4 1.3 -8.8 2.7 -13.2 4 -.7 -.6 -1.1 -1.5 -1.5 -2.3 -1.2 -2 -2.4 -4.1 -3.4 -6.1 -1.5 -3 -3.1 -5.9 -5 -8.7 -.3 -.5 -.7 -.9 -1.1 -1.3 -5.9 -4.7 -8.5 -11 -9.1 -18.3 -.1 -1.5 -.4 -3 -.3 -4.5 .4 -5.9 1.5 -11.7 3.6 -17.2 1.8 -4.9 4 -9.6 6.8 -14 1.8 -2.8 3.6 -5.6 5.4 -8.4 .2 -.3 .6 -.6 .8 -1 Z"/>
        <path fill="#ffb68a" d="M 165.5 312.1 c 4.4 -1.3 8.8 -2.7 13.2 -4 7.8 -2.3 15.6 -4.6 23.5 -7 5.2 -1.6 10.5 -3.2 15.7 -4.8 1.8 -.6 3.7 -1.1 5.5 -1.6 .3 0 .5 -.2 .8 -.4 1.1 1.1 2.5 1.8 4 2.3 1.1 .3 2.1 .8 3.2 1.1 -1 2.2 -1.2 4.7 -1.3 7.1 -.2 3.2 -.2 6.4 0 9.6 .2 3.4 .7 6.8 1.3 10.1 .8 4.7 1.9 9.3 3.4 13.8 .9 2.7 2 5.3 3.2 7.9 .4 .9 .8 1.8 1.2 2.7 -1.1 .6 -2.3 .8 -3.5 .9 -1.5 .2 -2.9 .4 -4.4 .4 -3.3 0 -6.6 -.5 -9.9 -1 -2.2 -.4 -4.3 -.8 -6.5 -1.3 -4.1 -1 -8 -2.5 -11.8 -4.2 -2.1 -.9 -4.3 -1.9 -6.4 -3 -5.6 -2.8 -10.9 -6.2 -15.7 -10.1 -3.9 -3.2 -7.5 -6.7 -10.5 -10.8 -.5 -.6 -.9 -1.3 -1.3 -1.9 -.7 -1.2 -1.5 -2.4 -2.3 -3.5 -.5 -.7 -1.2 -1.3 -1.1 -2.2 Z"/>
        <path fill="#cbb9b6" d="M 262.7 348 c 1.1 -.5 2.3 -.8 3.5 -.6 -1.1 .5 -2.3 .8 -3.5 .6 Z"/>
        <path fill="#cbb9b6" d="M 250.3 349.3 c 1.1 -.5 2.3 -.3 3.5 -.2 -1.1 .6 -2.3 .4 -3.5 .2 Z"/>
        <path fill="#cbb9b6" d="M 272.1 346.3 c .8 -.5 1.7 -.7 2.7 -.6 -.8 .6 -1.7 .8 -2.7 .6 Z"/>
        <path fill="#cbb9b6" d="M 259.3 348.4 c .8 -.5 1.7 -.6 2.6 -.3 -.8 .6 -1.7 .4 -2.6 .3 Z"/>
        <path fill="#696d65" d="M 396.6 253.1 c -.3 -.4 -.2 -.7 .1 -1 .3 .4 .1 .7 -.1 1 Z"/>
        <path fill="#cbb9b6" d="M 255.9 348.8 c .4 -.4 .9 -.4 1.4 -.2 -.4 .4 -.9 .4 -1.4 .2 Z"/>
        <path fill="#cbb9b6" d="M 284.9 342.9 c .2 -.3 .5 -.4 .9 -.3 -.2 .3 -.5 .4 -.9 .3 Z"/>
        <path fill="#cbb9b6" d="M 281.9 343.8 c .2 -.3 .5 -.4 .9 -.3 -.2 .3 -.5 .4 -.9 .3 Z"/>
        <path fill="#cbb9b6" d="M 277.2 345 c .2 -.3 .6 -.4 .9 -.3 -.2 .3 -.5 .4 -.9 .3 Z"/>
        <path fill="#cbb9b6" d="M 275.5 345.5 c .2 -.3 .5 -.4 .9 -.3 -.2 .3 -.5 .4 -.9 .3 Z"/>
        <path fill="#cbb9b6" d="M 287.9 342 c .1 -.2 .3 -.3 .5 -.2 -.1 .2 -.3 .3 -.5 .2 Z"/>
        <path fill="#cbb9b6" d="M 286.6 342.4 c .1 -.2 .3 -.3 .5 -.2 -.1 .2 -.3 .3 -.5 .2 Z"/>
        <path fill="#cbb9b6" d="M 283.6 343.3 c .1 -.2 .3 -.3 .5 -.2 -.1 .2 -.3 .3 -.5 .2 Z"/>
        <path fill="#cbb9b6" d="M 278.9 344.6 c .1 -.2 .3 -.3 .5 -.2 -.1 .2 -.3 .3 -.5 .2 Z"/>
        <path fill="#cbb9b6" d="M 293.4 339.9 c .1 -.2 .3 -.3 .5 -.2 -.1 .2 -.3 .3 -.5 .2 Z"/>
        <path fill="#cbb9b6" d="M 292.5 340.3 c .1 -.2 .3 -.3 .5 -.2 -.1 .2 -.3 .3 -.5 .2 Z"/>
        <path fill="#cbb9b6" d="M 280.6 344.2 c .1 -.2 .3 -.3 .5 -.2 -.1 .2 -.3 .3 -.5 .2 Z"/>
        <path fill="#cbb9b6" d="M 267.8 347.1 c .1 -.2 .3 -.3 .5 -.2 -.1 .2 -.3 .3 -.5 .2 Z"/>
        <path fill="#cbb9b6" d="M 291.3 340.8 c .1 -.2 .3 -.3 .5 -.2 -.1 .2 -.3 .3 -.5 .2 Z"/>
        <path fill="#cbb9b6" d="M 290 341.2 c .1 -.2 .3 -.3 .5 -.2 -.1 .2 -.3 .3 -.5 .2 Z"/>
        <path fill="#cbb9b6" d="M 289.1 341.5 c .1 -.2 .3 -.3 .5 -.2 -.1 .2 -.3 .3 -.5 .2 Z"/>
        <path fill="#cbb9b6" d="M 269.9 346.7 c .1 -.2 .3 -.3 .5 -.2 -.1 .2 -.3 .3 -.5 .2 Z"/>
        <path fill="#cbb9b6" d="M 277.7 279.3 c 1.6 -.4 3.6 -.4 5.2 0 -1.7 .2 -3.5 .2 -5.2 0 Z"/>
        <path fill="#bf9f83" d="M 289.2 279.9 c .4 -.1 .7 0 1 .2 -.4 .1 -.7 0 -1 -.2 Z"/>
        <path fill="#bf9f83" d="M 286.2 279.5 c .4 -.1 .7 0 1 .2 -.4 .2 -.7 .1 -1 -.2 Z"/>
        <path fill="#bf9f83" d="M 291.3 280.4 c .4 -.1 .7 0 .9 .3 -.4 .1 -.7 0 -.9 -.3 Z"/>
        <path fill="#884000" d="M 234.1 236.6 c -3.1 .3 -6.2 .4 -9.2 0 -.2 -.2 -.3 -.3 -.6 -.1 -1.3 -.2 -2.6 -.5 -3.9 -.8 -2.6 -.8 -4.9 -2 -6.8 -4.1 -.2 -.8 -.4 -1.6 -.6 -2.4 0 -4.3 .8 -8.6 1.4 -12.9 .4 -2.5 .7 -5.1 .9 -7.6 .1 -1.7 .8 -2.9 2 -4 1.3 -1.1 2.4 -2.5 3.7 -3.5 2.8 -2.2 5.3 -4.7 8 -7 1.1 -.9 2.1 -1.9 3.3 -2.7 1.3 -.9 2.1 -2.1 2.1 -3.7 .3 -.5 .3 -1.1 .3 -1.6 .6 -.9 .6 -.9 1.2 -.3 .5 .5 1.1 .9 1.6 1.4 1.3 1.1 2.7 2 4.3 2.6 3.4 1.4 6.9 2.5 10.4 3.6 1.3 .4 2.5 .9 3.8 1.4 3.2 1.2 6.5 1.8 9.9 2.2 .4 0 .8 -.4 1.1 .1 0 .2 0 .4 0 .6 0 1.2 0 2.5 -.1 3.7 -.4 .4 -.4 .8 -.1 1.3 -.3 1.3 -.5 2.6 -.8 3.8 -.3 .2 -.3 .4 -.4 .7 -.6 3 -1.9 5.7 -3.4 8.4 -.6 1 -1.2 2.1 -1.9 3.1 -1.1 1.8 -2.2 3.6 -4.1 4.7 -.4 .2 -.7 .7 -1.1 1 -1.1 1.1 -2.2 2.2 -3.3 3.3 -1.8 1.8 -3.8 3.4 -6.1 4.5 -.6 .3 -1 .8 -1.1 1.5 -1.8 .7 -3.6 1.5 -5.5 1.9 -.2 0 -.4 0 -.6 .2 -1.4 .2 -2.7 .5 -4.1 .7 -.2 -.1 -.4 0 -.6 .1 Z"/>
        <path fill="#e7a47c" d="M 234.7 186.1 c 0 .5 0 1.1 -.3 1.6 -1.5 .6 -3 .6 -4.6 .2 -4.9 -1.1 -9.8 -2.1 -14.6 -3.2 -2.6 -.6 -5.2 -1.2 -7.8 -1.8 -1.4 -.3 -2.9 -.7 -4.3 -1 -.6 -.1 -1.1 -.4 -1.3 -.9 -.3 -.6 -.8 -.7 -1.4 -.8 -1.3 -.2 -2.6 -.5 -4 -.7 -2.4 -.5 -4.9 -.9 -7.3 -1.4 0 0 -.1 0 -.2 0 -.9 -.1 -1.2 .2 -1 1 .8 3.9 1.6 7.7 2.4 11.6 .4 1.4 .2 2.8 .4 4.2 .3 2 .2 4.1 .7 6.1 .2 .9 .2 1.8 -.4 2.6 0 0 -.2 .2 -.4 .2 -.1 0 -.3 0 -.3 -.2 -.3 -.8 -.6 -1.6 -.8 -2.4 -1.3 -4.6 -2.6 -9.3 -3.6 -14 -.5 -2.1 -.9 -4.1 -1.2 -6.2 -.3 -1.5 -.4 -2.9 -.4 -4.4 0 -1.4 1 -2.3 2.5 -2.4 .7 0 1.4 0 2.1 .2 3 1.1 6.2 1.4 9.2 2.3 4.1 1.3 8.4 2 12.6 2.9 4.3 1 8.7 1.9 13 2.9 2.2 .5 4.4 1 6.6 1.4 1.5 .2 2.7 .6 3.7 1.8 .2 .2 .5 .3 .7 .5 Z"/>
        <path fill="#e7a37b" d="M 255.5 177.4 c -.3 -2.1 .8 -3.5 2.3 -4.5 1.4 -.9 3 -1.7 4.6 -2.1 .3 0 .6 -.1 .8 -.2 1.4 -.1 2.5 .7 2.8 2 .2 .8 -.6 2.2 -1.6 2.6 -.5 .2 -1.1 .3 -1.6 .5 -.9 .3 -1.9 .7 -2.6 1.4 -.3 .3 -.5 .7 -.3 1.1 .3 .8 .6 1.6 1 2.3 1.8 3.6 3.6 7.2 5.4 10.8 .3 .7 .7 1.4 .7 2.2 0 1 -1.1 1.6 -2 1 -.5 -.3 -1 -.8 -1.4 -1.3 -1.9 -2.4 -3.5 -4.9 -5 -7.6 -.8 -1.4 -1.5 -2.9 -2.2 -4.4 -.6 -1.3 -1.1 -2.6 -.9 -4 Z"/>
        <path fill="#bf9f83" d="M 267.2 197.6 c 0 -.2 0 -.4 0 -.6 .1 .2 .2 .3 .4 .5 0 0 -.1 0 -.1 0 h -.2 Z"/>
        <path fill="#894100" d="M 279.5 219.3 c .5 2.3 .9 4.5 .8 6.8 -.4 1.3 -.4 2 0 3.4 0 2.1 -.5 4.1 -1 6.1 -.8 3.1 -1.7 6.2 -2.9 9.1 -2.3 5.8 -3.7 11.8 -5 17.8 -.3 1.2 -.5 2.5 -.9 3.7 -.5 1.9 -1.8 2.6 -3.8 2 -1.2 -.3 -2.2 -1 -3 -1.9 -5.1 -5 -9 -10.8 -11.9 -17.3 -1.2 -2.8 -2.6 -5.5 -3.7 -8.4 -.4 -1 -.7 -2 -1 -3 1.8 0 3.3 -.6 4.7 -1.6 1.4 -1.1 2.8 -2.1 4.1 -3.4 1.5 -1.5 2.9 -3.2 4.6 -4.5 1.7 -1.2 2.9 -2.9 4.2 -4.5 2.7 -3.4 4.7 -7.3 5.9 -11.5 .3 -1.2 .8 -2.4 .8 -3.7 1.7 .2 3 1 4.2 2.2 1.2 1.2 2 2.6 2.6 4.1 .4 1.1 .8 2.3 1.2 3.4 -.2 .4 -.1 .7 .2 1 Z"/>
        <path fill="#5d3816" d="M 271.3 208.5 c 0 1.3 -.4 2.5 -.8 3.7 -1.2 4.2 -3.2 8.1 -5.9 11.5 -1.2 1.6 -2.4 3.2 -4.2 4.5 -1.7 1.2 -3.1 2.9 -4.6 4.5 -1.3 1.3 -2.7 2.3 -4.1 3.4 -1.4 1.1 -2.9 1.7 -4.7 1.6 -.5 -1.5 -1.5 -2.7 -2.3 -4 0 -.7 .5 -1.2 1.1 -1.5 2.3 -1.2 4.3 -2.7 6.1 -4.5 1.1 -1.1 2.2 -2.2 3.3 -3.3 .4 -.3 .7 -.8 1.1 -1 1.9 -1.1 3 -2.9 4.1 -4.7 .6 -1 1.3 -2 1.9 -3.1 1.5 -2.6 2.9 -5.4 3.4 -8.4 .3 0 .6 0 .8 0 1.6 .3 3.2 .4 4.6 1.3 Z"/>
        <path fill="#894100" d="M 280.2 229.5 c -.4 -1.3 -.4 -2.1 0 -3.4 .3 1.1 .4 2.3 0 3.4 Z"/>
        <path fill="#884000" d="M 267 202.6 c -.3 -.5 -.2 -.9 .1 -1.3 .4 .5 .2 .9 -.1 1.3 Z"/>
        <path fill="#894100" d="M 279.5 219.3 c -.3 -.3 -.4 -.6 -.2 -1 .3 .3 .5 .6 .2 1 Z"/>
        <path fill="#bf9f83" d="M 234.1 236.6 c .2 -.2 .4 -.2 .6 -.1 -.2 .2 -.4 .3 -.6 .1 Z"/>
        <path fill="#bf9f83" d="M 224.3 236.5 c .2 -.1 .4 0 .6 .1 -.2 .1 -.4 0 -.6 -.1 Z"/>
        <path fill="#bf9f83" d="M 238.8 235.8 c .1 -.2 .3 -.3 .6 -.2 -.1 .2 -.3 .3 -.6 .2 Z"/>
      </g>
    </g>
  </g>
</svg>