<svg width="500" height="500" viewBox="0 0 500 500" fill="none" xmlns="http://www.w3.org/2000/svg">
<path d="M236.029 404.732C230.839 404.292 225.648 404.204 220.414 404.116C215.223 404.028 209.988 403.676 204.798 403.588C199.475 403.456 194.153 403.06 188.83 402.796C187.291 402.708 185.707 402.532 184.167 402.356C183.86 402.356 183.596 402.312 183.288 402.268C180.165 402.136 177.041 401.96 173.918 401.873C171.279 401.785 168.596 401.521 165.956 401.301C163.977 401.125 162.041 400.861 160.106 400.597C156.499 400.069 152.936 399.365 149.373 398.529C147.349 398.046 145.326 397.606 143.259 397.298C139.344 396.682 135.649 395.406 132.086 393.647C127.643 391.403 123.288 389.028 119.197 386.125C115.326 383.398 112.027 380.098 109.52 376.052C108.068 373.72 107.276 371.081 107.057 368.354C106.969 367.386 107.232 366.374 107.408 365.45C108.596 359.512 111.279 354.322 115.458 349.967C117.482 347.855 119.769 346.14 122.364 344.776C122.936 344.468 123.508 344.204 124.036 343.852C126.631 342.137 129.402 340.905 132.394 340.069C135.649 339.19 138.86 338.266 142.159 337.606C144.27 337.21 146.382 336.902 148.493 336.682C153.156 336.155 157.819 335.759 162.481 335.231C166.484 334.791 170.531 334.219 174.534 333.735C177.349 333.383 180.165 333.163 182.98 332.855C184.079 332.723 185.179 332.591 186.235 332.504C189.93 332.108 193.625 331.976 197.32 331.712C200.751 331.492 204.138 331.448 207.569 331.404C209.592 331.404 211.572 330.92 213.595 330.7C214.079 330.656 214.255 330.392 214.211 329.82C213.859 325.377 213.551 320.935 213.199 316.492C213.155 315.788 213.199 315.128 213.419 314.468C213.947 314.117 214.519 314.161 215.091 314.117C222.085 314.029 229.035 314.029 236.029 313.853C242.891 313.633 249.753 313.721 256.616 313.677C257.187 313.677 257.759 313.677 258.331 313.589C260.706 313.369 263.038 313.413 265.413 313.545C265.281 314.292 264.577 314.644 264.269 315.26C263.126 317.548 261.894 319.747 260.75 321.99C258.771 325.817 256.792 329.688 254.812 333.515C254.68 333.779 254.548 333.999 254.372 334.263C253.228 336.242 254.372 338.354 256.704 338.398C257.935 338.398 258.771 337.826 259.299 336.726C260.311 334.703 261.366 332.723 262.422 330.744C264.709 326.477 266.909 322.122 269.108 317.812C269.328 317.416 269.548 316.976 269.724 316.58C270.076 315.612 270.12 314.688 269.24 313.897C268.976 313.677 268.8 313.369 268.58 313.105C268.844 312.445 269.064 311.785 269.372 311.169C271 307.782 272.627 304.439 274.079 300.964C274.959 298.897 275.75 296.785 276.586 294.718C276.718 294.542 276.894 294.366 276.982 294.146C278.698 290.363 280.413 286.58 282.173 282.797C283.448 280.07 284.372 277.211 285.868 274.571C287.055 272.46 288.023 270.217 289.035 268.017C289.299 267.489 289.519 266.961 289.782 266.434C290.398 267.005 290.706 267.753 291.058 268.457C296.029 278.266 300.999 288.032 305.926 297.885C306.762 299.557 307.51 301.228 308.477 302.812C309.269 304.087 309.885 305.451 310.413 306.859C310.721 307.606 311.029 308.354 311.381 309.058C313.228 312.841 315.076 316.668 316.923 320.451C317.143 320.935 317.407 321.375 317.451 321.902C316.747 323.794 316.307 325.773 315.867 327.753C315.427 329.952 314.724 332.108 314.064 334.263C313.096 337.342 312.084 340.421 311.073 343.5C310.765 344.424 310.545 345.392 310.237 346.316C308.741 350.758 306.762 355.025 304.474 359.116C302.847 362.107 300.823 364.879 299.064 367.782C297.524 370.245 295.721 372.489 293.653 374.512C291.938 376.228 290.046 377.767 288.199 379.307C287.803 379.307 287.407 379.131 287.055 378.955C285.34 378.031 283.536 377.459 281.601 377.283C279.489 377.107 277.334 376.843 275.179 376.887C272.099 376.887 269.064 376.887 265.985 376.887C265.501 376.887 265.061 376.887 264.577 376.931C262.158 377.327 259.739 377.283 257.319 377.459C254.372 377.723 251.425 377.855 248.522 378.295C245.751 378.691 243.111 379.439 240.824 381.198C240.648 380.626 240.472 380.098 240.34 379.527C240.208 379.043 239.9 378.735 239.46 378.559C239.152 378.427 238.8 378.339 238.493 378.251C235.985 377.679 233.434 377.107 230.927 376.535C229.079 376.096 227.232 375.612 225.384 375.216C221.117 374.248 216.85 373.324 212.584 372.401C209.416 371.697 206.293 371.037 203.126 370.289C201.235 369.849 199.299 369.453 197.408 368.97C194.769 368.354 192.129 367.826 189.49 367.21C186.059 366.418 182.628 365.802 179.197 365.011C175.634 364.131 172.027 363.339 168.42 362.591C164.637 361.799 160.898 360.832 157.159 359.996C155.971 359.732 154.827 359.38 153.552 359.512C152.408 359.644 151.176 361.184 151.484 362.283C151.836 363.383 152.32 364.483 153.684 364.747C153.948 364.791 154.212 364.967 154.52 365.011C156.543 365.494 158.522 366.022 160.59 366.418C163.889 367.034 167.1 367.826 170.355 368.53C171.763 368.838 173.126 369.321 174.534 369.541C176.294 369.805 178.009 370.245 179.769 370.641C181.66 371.037 183.596 371.565 185.487 371.961C189.754 372.928 194.021 373.852 198.288 374.82C200.751 375.392 203.258 375.876 205.678 376.491C209.373 377.415 213.111 378.119 216.806 378.955C218.83 379.395 220.809 379.967 222.877 380.318C226 380.89 229.035 381.682 232.158 382.342C234.358 382.782 236.513 383.442 238.756 383.618C238.317 384.673 237.877 385.773 237.481 386.829C237.173 387.576 236.865 388.324 236.865 389.16C236.865 392.239 236.469 395.274 236.557 398.31C236.601 399.849 236.557 401.433 236.557 402.972C236.557 403.368 236.557 403.764 236.513 404.204C236.513 404.556 236.161 404.644 235.897 404.776L236.029 404.732Z" fill="#696D65"/>
<path d="M317.451 321.857C317.407 321.329 317.143 320.889 316.923 320.405C315.076 316.622 313.228 312.839 311.381 309.012C311.029 308.265 310.721 307.561 310.413 306.813C309.885 305.405 309.225 304.042 308.477 302.766C307.51 301.183 306.762 299.511 305.926 297.84C300.999 288.03 296.029 278.221 291.058 268.412C290.706 267.708 290.354 266.96 289.783 266.388C289.783 265.772 289.519 265.288 289.255 264.761C288.111 262.517 286.923 260.274 285.78 257.986C284.768 255.963 283.756 253.984 282.744 251.96C282.525 251.52 282.349 250.992 281.821 250.728C281.733 249.805 281.425 248.925 281.821 248.001C282.612 246.022 283.008 243.91 283.448 241.799C283.58 241.051 283.624 240.303 283.756 239.555C284.592 235.201 285.428 230.846 286.351 226.491C287.187 222.488 287.935 218.441 289.255 214.57C289.695 214.57 290.046 214.746 290.354 215.01C291.63 215.978 292.994 216.902 294.269 217.869C295.545 218.881 296.821 219.849 297.832 221.125C300.208 224.116 302.583 227.063 304.694 230.23C304.694 230.714 304.87 231.11 305.046 231.55C306.278 234.277 307.51 237.004 308.741 239.775C310.413 243.514 312.084 247.253 313.756 250.992C316.087 256.227 318.375 261.417 320.706 266.652C322.422 270.567 324.181 274.438 325.897 278.353C326.073 278.749 326.205 279.101 326.6 279.321C326.82 279.98 327.04 280.64 327.304 281.256C328.932 285.347 330.559 289.394 332.231 293.485C333.023 295.464 333.946 297.4 334.738 299.379C335.794 301.93 336.85 304.526 337.905 307.077C339.401 310.772 340.941 314.467 342.436 318.162C343.8 321.461 345.119 324.804 346.439 328.147C348.594 333.514 350.706 338.88 353.081 344.159C354.841 348.074 356.512 351.989 358.096 355.948C359.24 358.763 360.251 361.666 361.351 364.525C362.671 368 364.034 371.431 365.354 374.862C365.662 375.654 366.102 376.094 366.805 376.446C371.336 378.777 375.867 381.109 380.354 383.44C382.553 384.584 384.753 385.771 386.952 386.959C388.14 387.575 389.327 388.147 390.515 388.719C390.911 388.939 391.307 389.158 391.703 389.422C392.538 389.95 392.978 390.742 392.978 391.754C392.978 393.029 393.066 394.305 392.89 395.581C392.626 397.384 392.714 399.144 392.626 400.947C392.538 403.499 390.999 404.818 388.404 404.862C387.128 404.862 385.896 404.642 384.621 404.686C383.345 404.686 382.069 404.686 380.794 404.686C372.744 404.686 364.694 404.686 356.644 404.642C355.764 404.642 354.929 404.51 354.093 404.334C352.553 404.026 351.63 403.059 351.058 401.739C349.914 399.012 348.77 396.285 347.671 393.601C345.999 389.598 344.328 385.595 342.656 381.593C339.797 374.73 336.938 367.824 334.034 360.962C331.571 355.024 329.064 349.129 326.6 343.235C324.665 338.66 322.817 334.042 320.882 329.467C319.958 327.223 318.991 324.98 318.067 322.737C317.935 322.429 317.715 322.165 317.495 321.857H317.451Z" fill="#FFB78A"/>
<path d="M289.167 214.614C287.847 218.529 287.099 222.531 286.263 226.534C285.34 230.889 284.504 235.244 283.668 239.599C283.536 240.347 283.492 241.094 283.36 241.842C282.964 243.954 282.524 246.021 281.733 248.044C281.381 248.968 281.689 249.848 281.733 250.772C281.601 251.432 281.469 252.135 281.381 252.795C281.205 254.203 281.073 255.654 280.897 257.106C280.589 259.569 280.281 262.033 279.973 264.452C279.665 266.783 279.357 269.115 279.049 271.49C278.741 273.953 278.433 276.417 278.17 278.88C278.082 279.012 277.994 279.188 277.906 279.32C277.554 280.024 277.51 280.068 276.894 279.848C275.046 279.188 273.111 278.792 271.175 278.396C267.832 277.692 264.489 277.164 261.102 276.813C259.783 276.681 258.463 276.593 257.143 276.417C254.68 276.065 252.173 275.977 249.709 275.889C243.595 275.625 237.437 275.713 231.322 275.889C230.927 275.889 230.531 275.889 230.091 275.889C227.627 276.109 225.164 276.285 222.657 276.505C220.985 276.637 219.314 276.813 217.642 276.989C215.047 277.252 212.496 277.648 209.856 277.56C208.581 275.625 208.185 273.382 207.701 271.226C206.909 267.795 206.161 264.364 205.413 260.933C204.666 257.502 203.962 254.027 203.566 250.552C203.39 249.012 203.302 247.429 203.214 245.889C203.126 243.998 203.478 242.106 203.654 240.215C203.83 238.543 204.182 236.915 204.446 235.288C204.534 234.98 204.71 234.628 204.754 234.32C205.809 229.482 207.613 224.819 209.064 220.068C210.428 215.669 211.88 211.27 213.287 206.872C213.463 206.344 213.727 205.772 213.727 205.2C213.815 203.968 214.607 203.397 215.575 202.913C216.103 202.649 216.674 202.649 217.246 202.605C219.27 202.473 221.293 202.385 223.273 202.165C225.34 201.989 227.407 201.725 229.475 201.505C230.179 201.637 230.839 201.197 231.498 201.197C231.63 201.505 231.806 201.813 231.894 202.165C232.29 204.188 232.642 206.256 233.082 208.279C233.698 211.051 234.314 213.778 234.753 216.593C234.753 216.857 234.885 217.165 235.017 217.429C235.457 218.441 236.469 218.748 237.437 218.177C238.756 217.385 240.12 216.549 241.44 215.757C247.026 212.502 252.657 209.291 258.287 206.08C259.079 205.64 259.915 205.2 260.53 204.452C261.278 204.848 262.026 205.288 262.818 205.596C265.281 206.476 267.788 207.268 270.296 208.103C270.472 208.147 270.604 208.235 270.78 208.279C272.495 208.895 274.211 209.643 276.014 209.907C276.366 210.347 276.894 210.435 277.378 210.611C279.137 211.227 280.853 211.798 282.612 212.37C284.768 213.118 286.923 213.954 289.079 214.746L289.167 214.614Z" fill="#8989DE"/>
<path d="M326.512 279.276C326.116 279.056 325.984 278.704 325.808 278.308C324.093 274.394 322.333 270.523 320.618 266.608C318.286 261.373 315.999 256.183 313.668 250.948C311.996 247.209 310.325 243.47 308.653 239.731C307.421 237.004 306.19 234.277 304.958 231.505C304.782 231.065 304.606 230.669 304.606 230.186C305.75 227.986 307.026 225.831 307.641 223.411C307.685 223.192 307.817 222.972 307.905 222.752C313.272 209.599 318.594 196.403 324.225 183.338C325.413 180.567 326.556 177.796 328.052 175.201C328.624 174.189 328.976 173.089 329.415 172.034C330.075 170.45 330.691 168.822 331.351 167.239C332.231 165.171 333.198 163.148 333.814 160.949C334.034 160.157 334.342 159.409 334.65 158.661C337.201 152.635 339.797 146.653 342.304 140.626C344.195 136.139 346.307 131.785 347.846 127.166C348.11 126.418 348.55 125.846 349.078 125.318C353.037 126.33 357.128 126.814 361.175 127.43C363.33 127.738 365.53 128.002 367.685 128.266C370.016 128.573 372.348 128.837 374.723 129.189C375.867 129.365 377.01 129.321 378.11 129.761C376.746 132.092 376.175 134.688 375.823 137.327C375.295 141.462 374.679 145.553 373.887 149.644C373.139 153.559 372.48 157.474 371.776 161.388C371.248 164.424 370.368 167.327 369.62 170.318C368.609 174.365 367.113 178.236 365.793 182.195C364.342 186.506 362.67 190.772 361.131 195.083C359.943 198.426 358.491 201.637 357.04 204.849C354.533 210.303 352.157 215.846 349.826 221.388C348.902 223.631 347.538 225.699 346.439 227.81C344.723 231.153 342.568 234.277 340.72 237.532C338.609 241.315 336.234 244.966 333.858 248.573C333.242 249.54 332.583 250.508 331.879 251.388C331.307 252.092 330.999 252.883 330.823 253.719C330.207 257.238 329.547 260.757 328.976 264.32C328.404 267.927 327.876 271.534 327.304 275.097C327.084 276.461 326.82 277.825 326.556 279.188L326.512 279.276Z" fill="#6A6E66"/>
<path d="M378.066 129.806C377.011 129.322 375.823 129.41 374.679 129.234C372.348 128.882 370.016 128.618 367.641 128.311C365.486 128.047 363.286 127.783 361.131 127.475C357.084 126.859 353.037 126.419 349.034 125.363C349.122 124.616 348.858 124.044 348.462 123.428C347.539 122.108 346.483 120.877 345.339 119.689C344.855 119.161 344.328 119.029 343.624 119.073C342.7 119.073 341.776 119.337 340.896 119.425C338.785 119.689 336.674 119.909 334.562 120.217C331.351 120.657 328.184 121.097 324.973 121.536C323.653 121.712 322.334 121.932 321.058 122.108C319.958 122.284 318.902 122.372 317.803 122.548C315.515 122.856 313.228 123.208 310.941 123.516C309.929 123.648 308.873 123.824 307.862 123.956C305.618 124.22 303.375 124.484 301.175 124.748C299.196 125.011 297.172 125.363 295.193 125.671C293.126 125.935 291.058 126.111 289.035 126.463C287.935 126.639 286.879 126.727 285.78 126.859C284.416 127.079 283.052 127.211 281.689 127.475C279.709 127.827 277.686 127.915 275.75 128.53C275.266 128.53 274.915 128.179 274.475 128.003C273.199 127.431 271.967 126.815 270.692 126.287C267.261 124.967 263.742 124.22 260.047 124.308C256 124.396 252.173 125.319 248.434 126.859C244.739 128.399 241.528 130.554 238.756 133.413C237.173 135.041 235.985 136.932 234.842 138.912C234.27 138.912 233.698 138.912 233.126 138.912C232.818 138.912 232.598 139.044 232.466 139.352C232.07 140.495 231.718 141.639 231.278 142.783C230.355 145.422 229.167 147.885 226.968 149.733C226.308 150.305 225.648 150.832 224.944 151.316C223.449 152.372 221.997 153.472 220.281 154.175C220.545 153.296 220.765 152.372 221.073 151.536C222.393 148.237 223.361 144.85 224.416 141.507C224.9 139.923 225.428 138.296 225.912 136.712C227.1 132.709 228.859 128.926 230.443 125.099C231.63 122.24 233.214 119.645 234.886 117.094C236.337 114.85 238.361 113.047 241.088 112.387C242.275 112.123 243.463 111.991 244.695 111.903C246.542 111.771 248.346 111.507 250.193 111.243C251.513 111.067 252.833 110.979 254.152 110.803C256.484 110.495 258.859 110.188 261.19 109.88C262.202 109.748 263.258 109.66 264.269 109.528C266.733 109.176 269.196 109 271.659 108.736C273.155 108.56 274.651 108.34 276.102 108.164C276.234 108.164 276.322 108.164 276.454 108.164C278.434 108.032 280.369 107.988 282.305 107.724C284.328 107.416 286.351 107.592 288.331 107.152C288.375 107.152 288.463 107.152 288.507 107.152C290.442 107.02 292.422 106.888 294.357 106.756C296.601 106.58 298.844 106.361 301.087 106.185C301.219 106.185 301.307 106.185 301.439 106.185C303.507 106.053 305.574 105.921 307.686 105.789C310.677 105.613 313.668 105.481 316.659 105.129C316.791 105.129 316.879 105.129 317.011 105.129C319.65 104.997 322.334 104.953 324.973 104.689C327.392 104.469 329.811 104.425 332.231 104.337C332.539 104.337 332.803 104.293 333.067 104.205C334.034 103.985 334.122 103.941 334.122 102.973C334.122 101.742 334.386 100.554 334.694 99.4105C335.134 97.6949 336.234 96.5952 337.861 96.0234C339.005 95.6275 340.193 95.3636 341.424 95.3636C342.48 95.3636 343.492 95.4076 344.547 95.3636C346.483 95.2316 348.33 95.6715 350.178 96.1553C350.266 96.1553 350.354 96.2873 350.442 96.3753C349.87 96.8592 349.342 97.387 348.99 98.0468C348.242 99.4105 347.451 100.73 346.703 102.138C345.779 103.853 346.131 105.569 347.319 106.976C348.594 108.516 350.134 109.836 351.981 110.759C354.357 111.947 356.82 112.915 359.283 113.926C360.691 114.498 362.099 114.85 363.638 114.894C365.134 114.894 366.409 114.41 367.465 113.531C369.005 112.255 370.5 110.847 371.556 109.088C371.908 108.516 372.304 107.9 372.612 107.284C373.272 106.053 373.975 104.865 373.711 103.369C375.823 103.853 377.67 104.909 379.518 106.009C380.75 106.712 381.717 107.856 382.597 109.044C383.301 109.968 383.609 111.111 383.741 112.255C383.917 113.575 383.961 114.894 383.565 116.214C382.861 118.545 382.289 120.877 381.497 123.164C380.662 125.627 379.43 127.915 378.066 130.07V129.806Z" fill="#FFB78A"/>
<path d="M209.988 277.473C212.584 277.605 215.179 277.21 217.774 276.902C219.446 276.726 221.117 276.594 222.789 276.418C225.252 276.198 227.716 276.022 230.223 275.802C230.619 275.802 231.015 275.802 231.455 275.802C237.569 275.67 243.727 275.582 249.841 275.802C252.305 275.89 254.812 275.978 257.275 276.33C258.595 276.506 259.915 276.594 261.234 276.726C264.621 277.078 267.964 277.605 271.308 278.309C273.243 278.705 275.135 279.101 277.026 279.761C277.642 279.981 277.686 279.937 278.038 279.233C278.126 279.101 278.214 278.925 278.302 278.793C278.39 279.981 277.95 281.168 278.17 282.356C277.73 284.468 277.51 286.623 277.202 288.778C277.07 289.922 277.114 291.066 276.806 292.165C276.63 292.957 276.586 293.749 276.586 294.541C275.75 296.608 274.959 298.72 274.079 300.787C272.627 304.262 271 307.605 269.372 310.992C269.064 311.608 268.844 312.268 268.58 312.928C267.525 312.796 266.425 312.708 265.457 313.368C263.082 313.236 260.75 313.192 258.375 313.412C257.803 313.456 257.231 313.5 256.66 313.5C249.797 313.544 242.935 313.5 236.073 313.676C229.079 313.896 222.129 313.852 215.135 313.939C214.563 313.939 213.991 313.939 213.463 314.291C213.199 311.08 212.848 307.869 212.408 304.702C212.188 303.206 212.144 301.711 211.968 300.215C211.792 298.676 211.572 297.136 211.396 295.597C211.264 294.453 211.088 293.309 211 292.165C210.736 289.57 210.604 286.975 210.164 284.424C209.856 282.532 210.076 280.641 209.636 278.749C209.505 278.265 209.417 277.693 210.076 277.386L209.988 277.473Z" fill="#FFB78A"/>
<path d="M240.868 381.152C243.155 379.392 245.794 378.645 248.566 378.249C251.469 377.809 254.416 377.677 257.363 377.413C259.783 377.193 262.202 377.281 264.621 376.885C265.061 376.797 265.545 376.841 266.029 376.841C269.108 376.841 272.143 376.841 275.222 376.841C277.378 376.841 279.489 377.061 281.645 377.237C283.536 377.413 285.383 377.985 287.099 378.909C287.451 379.084 287.803 379.26 288.243 379.26C288.551 379.744 289.078 380.052 289.518 380.404C291.938 382.384 293.829 384.759 294.445 387.926C294.929 390.521 294.269 392.721 292.158 394.392C291.762 394.7 291.366 394.876 290.926 395.008C289.474 395.448 288.023 395.8 286.615 396.284C284.416 397.032 282.084 397.208 279.841 397.647C277.29 398.131 274.738 398.527 272.187 398.967C269.196 399.451 266.161 399.979 263.126 400.463C260.75 400.858 258.375 401.298 255.956 401.694C253.624 402.09 251.293 402.486 248.961 402.882C246.586 403.278 244.211 403.718 241.791 404.114C240.208 404.378 238.624 404.685 237.041 404.905C236.689 404.949 236.337 404.993 236.073 404.729C236.337 404.597 236.645 404.509 236.689 404.158C236.689 403.762 236.733 403.366 236.733 402.926C236.733 401.386 236.733 399.803 236.733 398.263C236.601 395.184 237.041 392.149 237.041 389.114C237.041 388.278 237.349 387.53 237.657 386.782C238.052 385.727 238.492 384.627 238.932 383.571C239.988 383.087 240.912 382.472 241 381.152H240.868Z" fill="#FFB68A"/>
<path d="M229.651 201.374C227.583 201.594 225.516 201.858 223.449 202.034C221.425 202.21 219.446 202.342 217.422 202.474C216.85 202.474 216.279 202.518 215.751 202.782C214.783 203.266 213.991 203.838 213.903 205.069C213.903 205.641 213.639 206.169 213.463 206.741C212.056 211.14 210.56 215.495 209.24 219.937C207.789 224.688 206.029 229.307 204.93 234.189C204.842 234.541 204.71 234.849 204.622 235.157C203.874 233.794 203.434 232.298 203.258 230.714C202.95 228.251 202.51 225.788 202.334 223.324C202.202 221.125 202.026 218.926 202.466 216.77C202.554 216.418 202.554 216.066 202.554 215.715C202.466 213.427 202.906 211.228 203.39 209.028C204.358 204.762 205.326 200.451 206.513 196.272C207.965 191.213 209.548 186.199 211.396 181.272C211.704 180.524 211.924 179.732 212.188 178.985C213.507 174.85 214.783 170.715 216.103 166.624C216.191 166.316 216.366 165.964 216.498 165.656C217.246 166.096 217.73 166.844 218.39 167.416C219.094 167.988 219.27 168.691 219.27 169.571C219.27 171.419 218.874 173.266 218.434 175.026C217.994 176.873 217.774 178.589 218.17 180.48C218.566 182.372 219.006 184.219 220.281 185.671C221.733 187.342 223.449 188.706 225.384 189.762C226.616 190.421 227.759 191.169 229.035 191.697C230.663 192.313 231.146 193.677 230.795 195.348C230.355 197.372 230.003 199.395 229.607 201.418L229.651 201.374Z" fill="#FFB78B"/>
<path d="M351.893 96.2427C353.389 94.9671 355.193 94.7911 356.952 95.275C361.439 96.5946 365.882 98.0902 369.885 100.598C370.632 101.081 371.248 101.697 371.776 102.313C371.336 102.533 371.028 102.841 370.764 103.237C370.324 103.985 369.841 104.688 369.489 105.48C368.653 107.328 367.333 108.735 365.926 110.099C364.694 111.287 363.374 111.683 361.703 110.891C360.031 110.099 358.272 109.527 356.6 108.823C355.237 108.207 353.873 107.504 352.553 106.844C351.981 106.536 351.498 106.184 351.014 105.744C349.694 104.6 349.518 103.985 350.354 102.445C350.882 101.433 351.498 100.466 352.201 99.5418C352.817 98.7501 352.773 97.9583 352.377 97.1225C352.245 96.8146 351.981 96.5507 351.937 96.1988L351.893 96.2427Z" fill="#FFB78A"/>
<path d="M229.651 201.375C230.047 199.352 230.399 197.328 230.839 195.305C231.19 193.633 230.707 192.269 229.079 191.654C227.759 191.126 226.616 190.378 225.428 189.718C223.493 188.662 221.777 187.299 220.325 185.627C219.006 184.132 218.61 182.284 218.214 180.437C217.818 178.589 218.038 176.83 218.478 174.982C218.918 173.223 219.314 171.419 219.314 169.528C219.314 168.648 219.138 167.944 218.434 167.372C217.774 166.8 217.29 166.053 216.543 165.613C216.191 164.997 215.619 164.601 215.135 164.117C213.683 162.534 213.595 159.85 215.047 158.267C215.927 157.255 217.07 156.551 218.17 155.803C218.918 155.32 219.798 154.924 220.369 154.176C222.085 153.472 223.581 152.416 225.032 151.317C225.736 150.833 226.396 150.261 227.056 149.733C229.255 147.886 230.443 145.422 231.366 142.783C231.762 141.639 232.158 140.496 232.554 139.352C232.642 139.044 232.906 138.912 233.214 138.912C233.786 138.912 234.358 138.912 234.929 138.912C234.886 139.352 234.841 139.792 235.017 140.232C234.666 140.32 234.358 140.408 234.226 140.804C233.83 141.947 233.038 142.959 233.082 144.235C232.158 147.622 230.399 150.481 227.364 152.372C226 153.252 224.592 154.044 223.141 154.704C221.249 155.54 219.402 156.551 217.73 157.739C217.246 158.091 216.85 158.487 216.455 158.927C215.575 159.982 215.531 161.17 216.455 162.226C216.894 162.754 217.378 163.325 217.95 163.677C218.698 164.161 219.27 164.821 219.93 165.349C221.601 166.756 222.041 168.648 221.689 170.671C221.381 172.343 221.117 174.058 220.545 175.73C220.194 176.874 219.842 178.061 220.018 179.293C220.457 182.196 221.821 184.572 224.328 186.287C226.176 187.563 228.111 188.487 230.223 189.146C231.059 189.41 231.806 189.85 232.51 190.334C233.17 190.73 233.478 191.346 233.522 192.05C233.566 192.841 233.61 193.633 233.39 194.469C233.038 195.877 232.686 197.284 232.554 198.692C232.466 199.571 232.246 200.363 231.762 201.111C231.059 201.111 230.443 201.551 229.739 201.419L229.651 201.375Z" fill="#E7A47C"/>
<path d="M351.893 96.2433C351.893 96.5952 352.201 96.8591 352.333 97.167C352.729 98.0028 352.773 98.7946 352.157 99.5864C351.453 100.51 350.881 101.478 350.31 102.49C349.474 104.029 349.606 104.645 350.969 105.789C351.453 106.185 351.981 106.58 352.509 106.888C353.829 107.592 355.192 108.296 356.556 108.868C358.227 109.616 360.031 110.187 361.659 110.935C363.33 111.727 364.65 111.331 365.881 110.143C367.289 108.78 368.653 107.372 369.444 105.525C369.796 104.733 370.28 104.029 370.72 103.281C370.94 102.885 371.292 102.578 371.732 102.358C372.48 102.358 373.271 102.314 373.755 103.105C374.019 104.601 373.315 105.789 372.656 107.02C372.304 107.636 371.952 108.208 371.6 108.824C370.544 110.583 369.049 111.991 367.509 113.267C366.453 114.146 365.178 114.674 363.682 114.63C362.142 114.63 360.735 114.278 359.327 113.663C356.864 112.651 354.401 111.683 352.025 110.495C350.178 109.572 348.638 108.252 347.362 106.712C346.175 105.305 345.867 103.589 346.747 101.874C347.494 100.51 348.242 99.1465 349.034 97.7829C349.386 97.1231 349.914 96.5952 350.486 96.1113C350.925 96.1113 351.365 96.1993 351.849 96.2433H351.893Z" fill="#E7A47C"/>
<path d="M240.868 381.152C240.78 382.472 239.856 383.088 238.8 383.572C236.557 383.396 234.402 382.736 232.202 382.296C229.123 381.636 226.044 380.844 222.921 380.272C220.897 379.921 218.874 379.349 216.85 378.909C213.155 378.073 209.416 377.369 205.721 376.445C203.258 375.83 200.795 375.346 198.332 374.774C194.065 373.806 189.798 372.882 185.531 371.915C183.64 371.475 181.748 370.991 179.813 370.595C178.053 370.199 176.338 369.759 174.578 369.495C173.17 369.275 171.807 368.792 170.399 368.484C167.144 367.78 163.889 366.944 160.634 366.372C158.61 365.976 156.587 365.449 154.564 364.965C154.3 364.921 154.036 364.745 153.728 364.701C152.364 364.437 151.88 363.381 151.528 362.237C151.22 361.138 152.408 359.598 153.596 359.466C154.827 359.334 156.015 359.686 157.203 359.95C160.986 360.786 164.725 361.71 168.464 362.545C172.071 363.337 175.678 364.129 179.241 364.965C182.672 365.8 186.103 366.416 189.534 367.164C192.173 367.78 194.812 368.308 197.452 368.924C199.343 369.363 201.279 369.803 203.17 370.243C206.293 370.991 209.46 371.651 212.628 372.355C216.894 373.278 221.161 374.246 225.428 375.17C227.276 375.566 229.123 376.05 230.971 376.489C233.478 377.061 236.029 377.633 238.536 378.205C238.888 378.293 239.196 378.381 239.504 378.513C239.944 378.689 240.252 378.997 240.384 379.481C240.516 380.053 240.692 380.58 240.868 381.152Z" fill="#494A45"/>
<path d="M265.457 313.412C266.425 312.752 267.48 312.84 268.58 312.972C268.8 313.236 269.02 313.544 269.24 313.763C270.12 314.555 270.076 315.479 269.724 316.447C269.548 316.887 269.328 317.283 269.108 317.678C266.908 321.989 264.709 326.344 262.422 330.611C261.366 332.59 260.31 334.57 259.299 336.593C258.771 337.693 257.935 338.265 256.703 338.265C254.416 338.265 253.228 336.153 254.372 334.13C254.504 333.866 254.68 333.646 254.812 333.382C256.791 329.555 258.771 325.684 260.75 321.857C261.938 319.614 263.126 317.37 264.269 315.127C264.577 314.511 265.281 314.159 265.413 313.412H265.457Z" fill="#494A45"/>
<path d="M275.75 128.531C276.014 128.751 276.234 129.014 276.542 129.19C279.577 131.082 282.26 133.413 284.636 136.097C285.516 137.108 286.483 137.944 287.671 138.604C287.583 139.22 287.143 139.792 287.407 140.451C287.803 141.463 287.935 142.563 288.419 143.574C288.903 144.63 289.386 145.686 289.65 146.786C290.09 148.589 290.662 150.305 290.926 152.152C291.234 154.088 291.278 155.979 291.058 157.827C290.662 160.686 289.914 163.457 289.035 166.228C288.683 167.372 288.287 168.516 287.495 169.527C287.275 169.791 287.099 170.143 287.055 170.451C286.923 171.155 286.483 171.727 286.043 172.255C284.504 174.102 282.876 175.95 281.293 177.753C280.457 178.721 279.357 179.381 278.477 180.304C277.114 181.668 275.574 182.768 273.903 183.692C273.331 183.999 272.891 184.439 272.451 184.923C271.967 185.495 271.835 187.255 272.275 187.87C272.759 188.53 273.331 189.102 274.079 189.454C274.475 189.63 274.87 189.718 275.266 189.586C276.498 189.146 277.818 188.838 278.961 188.09C280.149 187.255 281.381 186.507 282.392 185.451C283.184 184.615 284.064 183.867 285.032 183.208C285.867 182.636 286.615 181.976 287.187 181.228C288.243 179.865 289.43 178.633 290.354 177.137C291.058 175.994 291.85 174.938 292.73 173.97C293.433 173.222 294.049 172.387 293.961 171.199C293.961 170.891 294.137 170.539 294.225 170.187C294.577 169.044 295.017 167.9 295.369 166.712C296.205 163.941 296.864 161.17 296.732 158.222C296.732 157.299 296.732 156.375 296.732 155.451C296.732 154 296.732 152.592 296.381 151.14C295.765 148.369 295.237 145.598 293.785 143.135C293.345 142.431 293.169 141.639 293.213 140.803C293.213 140.407 293.213 140.011 293.213 139.572C295.413 139.967 297.392 140.891 299.284 142.079C300.471 142.827 301.483 143.794 302.319 144.894C304.122 147.269 305.398 149.909 306.014 152.856C306.894 156.991 306.938 161.126 306.278 165.261C305.794 168.12 304.914 170.891 303.815 173.53C303.639 173.882 303.551 174.278 303.419 174.674C303.199 175.378 303.023 176.126 302.715 176.829C301.835 179.029 300.955 181.228 300.032 183.428C297.436 189.366 294.181 194.864 289.958 199.747C287.847 202.166 285.56 204.366 282.964 206.213C282.744 206.389 282.48 206.521 282.26 206.741C280.501 208.325 278.433 209.336 276.102 209.732C274.255 209.468 272.583 208.721 270.868 208.105C270.692 208.061 270.56 207.973 270.384 207.929C269.988 206.961 269.24 206.213 268.844 205.202C268.184 203.574 267.964 201.859 267.876 200.099C267.612 195.612 267.744 191.169 268.888 186.815C269.064 186.155 269.064 185.583 268.536 185.055C268.404 184.219 268.316 183.34 268.184 182.504C268.008 181.184 267.832 179.865 267.612 178.545C267.217 176.082 266.777 173.662 266.381 171.199C266.073 169.175 265.545 167.24 264.797 165.349C264.225 163.809 263.214 162.665 261.718 162.005C261.19 161.786 260.662 161.566 260.091 161.434C258.639 161.082 257.187 160.642 255.692 160.422C252.349 159.938 249.357 158.662 246.762 156.507C246.674 156.419 246.586 156.375 246.498 156.287C245.487 155.583 244.695 154.659 244.079 153.604C241.967 149.865 239.636 146.302 237.173 142.783C236.513 141.815 235.765 140.935 234.841 140.231C234.665 139.792 234.709 139.352 234.753 138.912C235.853 136.932 237.085 135.041 238.668 133.413C241.44 130.554 244.695 128.399 248.346 126.859C252.041 125.319 255.912 124.396 259.959 124.308C263.654 124.22 267.173 124.968 270.604 126.287C271.879 126.771 273.111 127.431 274.387 128.003C274.782 128.179 275.134 128.531 275.662 128.531H275.75Z" fill="#894100"/>
<path d="M234.93 140.231C235.853 140.934 236.601 141.814 237.261 142.782C239.724 146.301 242.056 149.864 244.167 153.603C244.783 154.659 245.531 155.582 246.586 156.286C246.674 156.33 246.762 156.418 246.85 156.506C249.446 158.705 252.437 159.937 255.78 160.421C257.275 160.641 258.727 161.081 260.179 161.433C260.75 161.565 261.278 161.785 261.806 162.005C263.302 162.708 264.313 163.852 264.885 165.348C265.589 167.239 266.117 169.175 266.469 171.198C266.865 173.661 267.305 176.081 267.701 178.544C267.92 179.864 268.096 181.183 268.272 182.503C268.404 183.339 268.492 184.219 268.624 185.054C267.964 185.802 267.657 186.726 267.261 187.65C266.469 189.541 265.633 191.477 264.841 193.368C263.698 196.183 262.51 198.998 261.41 201.814C261.102 202.605 260.662 203.397 260.706 204.277C260.091 204.981 259.255 205.421 258.463 205.905C252.833 209.116 247.246 212.371 241.616 215.582C240.252 216.374 238.932 217.165 237.613 218.001C236.645 218.573 235.677 218.265 235.193 217.253C235.061 216.99 234.974 216.726 234.93 216.418C234.49 213.602 233.874 210.875 233.258 208.104C232.818 206.081 232.466 204.013 232.07 201.99C231.982 201.638 231.806 201.33 231.674 201.022C232.114 200.274 232.378 199.482 232.466 198.603C232.642 197.195 232.994 195.787 233.302 194.38C233.478 193.588 233.478 192.752 233.434 191.96C233.39 191.257 233.082 190.641 232.422 190.245C231.674 189.761 230.971 189.365 230.135 189.057C228.067 188.397 226.088 187.474 224.24 186.198C221.733 184.482 220.369 182.151 219.93 179.204C219.754 177.972 220.062 176.785 220.457 175.641C220.985 173.969 221.293 172.298 221.601 170.582C221.953 168.559 221.513 166.667 219.842 165.26C219.182 164.688 218.61 164.072 217.862 163.588C217.29 163.236 216.806 162.664 216.367 162.137C215.487 161.037 215.487 159.893 216.367 158.837C216.719 158.398 217.158 158.002 217.642 157.65C219.314 156.418 221.161 155.45 223.053 154.615C224.548 153.955 225.912 153.163 227.276 152.283C230.311 150.348 232.07 147.533 232.994 144.145C232.994 142.87 233.742 141.858 234.138 140.714C234.27 140.319 234.578 140.231 234.93 140.143V140.231Z" fill="#FFB68A"/>
<path d="M293.214 139.617C293.214 140.013 293.214 140.409 293.214 140.849C293.126 141.685 293.345 142.433 293.785 143.18C295.237 145.688 295.765 148.415 296.381 151.186C296.689 152.638 296.689 154.045 296.733 155.497C296.733 156.421 296.733 157.345 296.733 158.268C296.865 161.172 296.205 163.987 295.369 166.758C295.017 167.902 294.621 169.045 294.225 170.233C294.137 170.541 293.917 170.893 293.961 171.245C294.049 172.388 293.433 173.224 292.73 174.016C291.85 174.984 291.014 176.083 290.354 177.183C289.431 178.679 288.243 179.91 287.187 181.274C286.615 182.022 285.868 182.682 285.032 183.253C284.064 183.913 283.184 184.661 282.392 185.497C281.381 186.553 280.149 187.3 278.961 188.136C277.862 188.884 276.542 189.192 275.266 189.632C274.871 189.764 274.475 189.676 274.079 189.5C273.287 189.148 272.759 188.576 272.275 187.916C271.835 187.3 271.967 185.541 272.451 184.969C272.891 184.485 273.287 184.045 273.903 183.737C275.574 182.814 277.114 181.714 278.478 180.35C279.357 179.471 280.457 178.767 281.293 177.799C282.876 175.995 284.504 174.148 286.043 172.3C286.483 171.773 286.923 171.245 287.055 170.497C287.143 170.189 287.319 169.837 287.495 169.573C288.243 168.605 288.639 167.462 289.035 166.274C289.914 163.547 290.662 160.732 291.058 157.872C291.322 156.025 291.234 154.089 290.926 152.198C290.662 150.35 290.09 148.591 289.65 146.831C289.387 145.732 288.903 144.632 288.419 143.62C287.935 142.609 287.803 141.509 287.407 140.497C287.143 139.837 287.627 139.266 287.671 138.65C288.507 138.65 289.387 138.518 290.222 138.562C291.322 138.606 292.378 138.87 293.214 139.617Z" fill="#5E3819"/>
</svg>
