<?xml version="1.0" encoding="UTF-8"?>
<svg width="1417.3" height="1417.3" xmlns="http://www.w3.org/2000/svg" version="1.1" viewBox="0 0 1417.3 1417.3">
  <g>
    <g>
      <g>
        <path fill="#696d65" d="M 676.9 1060.4 c -11.8 -1 -23.6 -1.2 -35.5 -1.4 -11.8 -.2 -23.7 -1 -35.5 -1.2 -12.1 -.3 -24.2 -1.2 -36.3 -1.8 -3.5 -.2 -7.1 -.6 -10.6 -1 -.7 0 -1.3 -.1 -2 -.2 -7.1 -.3 -14.2 -.7 -21.3 -.9 -6 -.2 -12.1 -.8 -18.1 -1.3 -4.5 -.4 -8.9 -1 -13.3 -1.6 -8.2 -1.2 -16.3 -2.8 -24.4 -4.7 -4.6 -1.1 -9.2 -2.1 -13.9 -2.8 -8.9 -1.4 -17.3 -4.3 -25.4 -8.3 -10.1 -5.1 -20 -10.5 -29.3 -17.1 -8.8 -6.2 -16.3 -13.7 -22 -22.9 -3.3 -5.3 -5.1 -11.3 -5.6 -17.5 -.2 -2.2 .4 -4.5 .8 -6.6 2.7 -13.5 8.8 -25.3 18.3 -35.2 4.6 -4.8 9.8 -8.7 15.7 -11.8 1.3 -.7 2.6 -1.3 3.8 -2.1 5.9 -3.9 12.2 -6.7 19 -8.6 7.4 -2 14.7 -4.1 22.2 -5.6 4.8 -.9 9.6 -1.6 14.4 -2.1 10.6 -1.2 21.2 -2.1 31.8 -3.3 9.1 -1 18.3 -2.3 27.4 -3.4 6.4 -.8 12.8 -1.3 19.2 -2 2.5 -.3 5 -.6 7.4 -.8 8.4 -.9 16.8 -1.2 25.2 -1.8 7.8 -.5 15.5 -.6 23.3 -.7 4.6 0 9.1 -1.1 13.7 -1.6 1.1 -.1 1.5 -.7 1.4 -2 -.8 -10.1 -1.5 -20.2 -2.3 -30.3 -.1 -1.6 0 -3.1 .5 -4.6 1.2 -.8 2.5 -.7 3.8 -.8 15.9 -.2 31.7 -.2 47.6 -.6 15.6 -.5 31.2 -.3 46.8 -.4 1.3 0 2.6 0 3.9 -.2 5.4 -.5 10.7 -.4 16.1 -.1 -.3 1.7 -1.9 2.5 -2.6 3.9 -2.6 5.2 -5.4 10.2 -8 15.3 -4.5 8.7 -9 17.5 -13.5 26.2 -.3 .6 -.6 1.1 -1 1.7 -2.6 4.5 0 9.3 5.3 9.4 2.8 0 4.7 -1.3 5.9 -3.8 2.3 -4.6 4.7 -9.1 7.1 -13.6 5.2 -9.7 10.2 -19.6 15.2 -29.4 .5 -.9 1 -1.9 1.4 -2.8 .8 -2.2 .9 -4.3 -1.1 -6.1 -.6 -.5 -1 -1.2 -1.5 -1.8 .6 -1.5 1.1 -3 1.8 -4.4 3.7 -7.7 7.4 -15.3 10.7 -23.2 2 -4.7 3.8 -9.5 5.7 -14.2 .3 -.4 .7 -.8 .9 -1.3 3.9 -8.6 7.8 -17.2 11.8 -25.8 2.9 -6.2 5 -12.7 8.4 -18.7 2.7 -4.8 4.9 -9.9 7.2 -14.9 .6 -1.2 1.1 -2.4 1.7 -3.6 1.4 1.3 2.1 3 2.9 4.6 11.3 22.3 22.6 44.5 33.8 66.9 1.9 3.8 3.6 7.6 5.8 11.2 1.8 2.9 3.2 6 4.4 9.2 .7 1.7 1.4 3.4 2.2 5 4.2 8.6 8.4 17.3 12.6 25.9 .5 1.1 1.1 2.1 1.2 3.3 -1.6 4.3 -2.6 8.8 -3.6 13.3 -1 5 -2.6 9.9 -4.1 14.8 -2.2 7 -4.5 14 -6.8 21 -.7 2.1 -1.2 4.3 -1.9 6.4 -3.4 10.1 -7.9 19.8 -13.1 29.1 -3.7 6.8 -8.3 13.1 -12.3 19.7 -3.5 5.6 -7.6 10.7 -12.3 15.3 -3.9 3.9 -8.2 7.4 -12.4 10.9 -.9 0 -1.8 -.4 -2.6 -.8 -3.9 -2.1 -8 -3.4 -12.4 -3.8 -4.8 -.4 -9.7 -1 -14.6 -.9 -7 0 -13.9 0 -20.9 0 -1.1 0 -2.1 0 -3.2 .1 -5.5 .9 -11 .8 -16.5 1.2 -6.7 .6 -13.4 .9 -20 1.9 -6.3 .9 -12.3 2.6 -17.5 6.6 -.4 -1.3 -.8 -2.5 -1.1 -3.8 -.3 -1.1 -1 -1.8 -2 -2.2 -.7 -.3 -1.5 -.5 -2.2 -.7 -5.7 -1.3 -11.5 -2.6 -17.2 -3.9 -4.2 -1 -8.4 -2.1 -12.6 -3 -9.7 -2.2 -19.4 -4.3 -29.1 -6.4 -7.2 -1.6 -14.3 -3.1 -21.5 -4.8 -4.3 -1 -8.7 -1.9 -13 -3 -6 -1.4 -12 -2.6 -18 -4 -7.8 -1.8 -15.6 -3.2 -23.4 -5 -8.1 -2 -16.3 -3.8 -24.5 -5.5 -8.6 -1.8 -17.1 -4 -25.6 -5.9 -2.7 -.6 -5.3 -1.4 -8.2 -1.1 -2.6 .3 -5.4 3.8 -4.7 6.3 .8 2.5 1.9 5 5 5.6 .6 .1 1.2 .5 1.9 .6 4.6 1.1 9.1 2.3 13.8 3.2 7.5 1.4 14.8 3.2 22.2 4.8 3.2 .7 6.3 1.8 9.5 2.3 4 .6 7.9 1.6 11.9 2.5 4.3 .9 8.7 2.1 13 3 9.7 2.2 19.4 4.3 29.1 6.5 5.6 1.3 11.3 2.4 16.8 3.8 8.4 2.1 16.9 3.7 25.3 5.6 4.6 1 9.1 2.3 13.8 3.1 7.1 1.3 14 3.1 21.1 4.6 5 1 9.9 2.5 15 2.9 -1 2.4 -2 4.9 -2.9 7.3 -.7 1.7 -1.4 3.4 -1.4 5.3 0 7 -.9 13.9 -.7 20.8 .1 3.5 0 7.1 0 10.6 0 .9 0 1.8 -.1 2.8 0 .8 -.8 1 -1.4 1.3 Z"/>
        <path fill="#ffb78a" d="M 862 872 c -.1 -1.2 -.7 -2.2 -1.2 -3.3 -4.2 -8.6 -8.4 -17.2 -12.6 -25.9 -.8 -1.7 -1.5 -3.3 -2.2 -5 -1.2 -3.2 -2.7 -6.3 -4.4 -9.2 -2.2 -3.6 -3.9 -7.4 -5.8 -11.2 -11.2 -22.3 -22.5 -44.6 -33.8 -66.9 -.8 -1.6 -1.6 -3.3 -2.9 -4.6 0 -1.4 -.6 -2.5 -1.2 -3.7 -2.6 -5.1 -5.3 -10.2 -7.9 -15.4 -2.3 -4.6 -4.6 -9.1 -6.9 -13.7 -.5 -1 -.9 -2.2 -2.1 -2.8 -.2 -2.1 -.9 -4.1 0 -6.2 1.8 -4.5 2.7 -9.3 3.7 -14.1 .3 -1.7 .4 -3.4 .7 -5.1 1.9 -9.9 3.8 -19.8 5.9 -29.7 1.9 -9.1 3.6 -18.3 6.6 -27.1 1 0 1.8 .4 2.5 1 2.9 2.2 6 4.3 8.9 6.5 2.9 2.3 5.8 4.5 8.1 7.4 5.4 6.8 10.8 13.5 15.6 20.7 0 1.1 .4 2 .8 3 2.8 6.2 5.6 12.4 8.4 18.7 3.8 8.5 7.6 17 11.4 25.5 5.3 11.9 10.5 23.7 15.8 35.6 3.9 8.9 7.9 17.7 11.8 26.6 .4 .9 .7 1.7 1.6 2.2 .5 1.5 1 3 1.6 4.4 3.7 9.3 7.4 18.5 11.2 27.8 1.8 4.5 3.9 8.9 5.7 13.4 2.4 5.8 4.8 11.7 7.2 17.5 3.4 8.4 6.9 16.8 10.3 25.2 3.1 7.5 6.1 15.1 9.1 22.7 4.9 12.2 9.7 24.4 15.1 36.4 4 8.9 7.8 17.8 11.4 26.8 2.6 6.4 4.9 13 7.4 19.5 3 7.9 6.1 15.7 9.1 23.5 .7 1.8 1.7 2.8 3.3 3.6 10.3 5.3 20.6 10.6 30.8 15.9 5 2.6 10 5.3 15 8 2.7 1.4 5.4 2.7 8.1 4 .9 .5 1.8 1 2.7 1.6 1.9 1.2 2.9 3 2.9 5.3 0 2.9 .2 5.8 -.2 8.7 -.6 4.1 -.4 8.1 -.6 12.2 -.2 5.8 -3.7 8.8 -9.6 8.9 -2.9 0 -5.7 -.5 -8.6 -.4 -2.9 0 -5.8 0 -8.7 0 -18.3 0 -36.6 0 -54.9 -.1 -2 0 -3.9 -.3 -5.8 -.7 -3.5 -.7 -5.6 -2.9 -6.9 -5.9 -2.6 -6.2 -5.2 -12.4 -7.7 -18.5 -3.8 -9.1 -7.6 -18.2 -11.4 -27.3 -6.5 -15.6 -13 -31.3 -19.6 -46.9 -5.6 -13.5 -11.3 -26.9 -16.9 -40.3 -4.4 -10.4 -8.6 -20.9 -13 -31.3 -2.1 -5.1 -4.3 -10.2 -6.4 -15.3 -.3 -.7 -.8 -1.3 -1.3 -2 Z"/>
        <path fill="#8989de" d="M 797.7 628.2 c -3 8.9 -4.7 18 -6.6 27.1 -2.1 9.9 -4 19.8 -5.9 29.7 -.3 1.7 -.4 3.4 -.7 5.1 -.9 4.8 -1.9 9.5 -3.7 14.1 -.8 2.1 -.1 4.1 0 6.2 -.3 1.5 -.6 3.1 -.8 4.6 -.4 3.2 -.7 6.5 -1.1 9.8 -.7 5.6 -1.4 11.2 -2.1 16.7 -.7 5.3 -1.4 10.6 -2.1 16 -.7 5.6 -1.4 11.2 -2 16.8 -.2 .3 -.4 .7 -.6 1 -.8 1.6 -.9 1.7 -2.3 1.2 -4.2 -1.5 -8.6 -2.4 -13 -3.3 -7.6 -1.6 -15.2 -2.8 -22.9 -3.6 -3 -.3 -6 -.5 -9 -.9 -5.6 -.8 -11.3 -1 -16.9 -1.2 -13.9 -.6 -27.9 -.4 -41.8 0 -.9 0 -1.8 0 -2.8 0 -5.6 .5 -11.2 .9 -16.9 1.4 -3.8 .3 -7.6 .7 -11.4 1.1 -5.9 .6 -11.7 1.5 -17.7 1.3 -2.9 -4.4 -3.8 -9.5 -4.9 -14.4 -1.8 -7.8 -3.5 -15.6 -5.2 -23.4 -1.7 -7.8 -3.3 -15.7 -4.2 -23.6 -.4 -3.5 -.6 -7.1 -.8 -10.6 -.2 -4.3 .6 -8.6 1 -12.9 .4 -3.8 1.2 -7.5 1.8 -11.2 .2 -.7 .6 -1.5 .7 -2.2 2.4 -11 6.5 -21.6 9.8 -32.4 3.1 -10 6.4 -20 9.6 -30 .4 -1.2 1 -2.5 1 -3.8 .2 -2.8 2 -4.1 4.2 -5.2 1.2 -.6 2.5 -.6 3.8 -.7 4.6 -.3 9.2 -.5 13.7 -1 4.7 -.4 9.4 -1 14.1 -1.5 1.6 .3 3.1 -.7 4.6 -.7 .3 .7 .7 1.4 .9 2.2 .9 4.6 1.7 9.3 2.7 13.9 1.4 6.3 2.8 12.5 3.8 18.9 0 .6 .3 1.3 .6 1.9 1 2.3 3.3 3 5.5 1.7 3 -1.8 6.1 -3.7 9.1 -5.5 12.7 -7.4 25.5 -14.7 38.3 -22 1.8 -1 3.7 -2 5.1 -3.7 1.7 .9 3.4 1.9 5.2 2.6 5.6 2 11.3 3.8 17 5.7 .4 .1 .7 .3 1.1 .4 3.9 1.4 7.8 3.1 11.9 3.7 .8 1 2 1.2 3.1 1.6 4 1.4 7.9 2.7 11.9 4 4.9 1.7 9.8 3.6 14.7 5.4 Z"/>
        <path fill="#6a6e66" d="M 882.6 775.2 c -.9 -.5 -1.2 -1.3 -1.6 -2.2 -3.9 -8.9 -7.9 -17.7 -11.8 -26.6 -5.3 -11.9 -10.5 -23.7 -15.8 -35.6 -3.8 -8.5 -7.6 -17 -11.4 -25.5 -2.8 -6.2 -5.6 -12.4 -8.4 -18.7 -.4 -1 -.8 -1.9 -.8 -3 2.6 -5 5.5 -9.9 6.9 -15.4 .1 -.5 .4 -1 .6 -1.5 12.2 -29.9 24.3 -59.9 37.1 -89.6 2.7 -6.3 5.3 -12.6 8.7 -18.5 1.3 -2.3 2.1 -4.8 3.1 -7.2 1.5 -3.6 2.9 -7.3 4.4 -10.9 2 -4.7 4.2 -9.3 5.6 -14.3 .5 -1.8 1.2 -3.5 1.9 -5.2 5.8 -13.7 11.7 -27.3 17.4 -41 4.3 -10.2 9.1 -20.1 12.6 -30.6 .6 -1.7 1.6 -3 2.8 -4.2 9 2.3 18.3 3.4 27.5 4.8 4.9 .7 9.9 1.3 14.8 1.9 5.3 .7 10.6 1.3 16 2.1 2.6 .4 5.2 .3 7.7 1.3 -3.1 5.3 -4.4 11.2 -5.2 17.2 -1.2 9.4 -2.6 18.7 -4.4 28 -1.7 8.9 -3.2 17.8 -4.8 26.7 -1.2 6.9 -3.2 13.5 -4.9 20.3 -2.3 9.2 -5.7 18 -8.7 27 -3.3 9.8 -7.1 19.5 -10.6 29.3 -2.7 7.6 -6 14.9 -9.3 22.2 -5.7 12.4 -11.1 25 -16.4 37.6 -2.1 5.1 -5.2 9.8 -7.7 14.6 -3.9 7.6 -8.8 14.7 -13 22.1 -4.8 8.6 -10.2 16.9 -15.6 25.1 -1.4 2.2 -2.9 4.4 -4.5 6.4 -1.3 1.6 -2 3.4 -2.4 5.3 -1.4 8 -2.9 16 -4.2 24.1 -1.3 8.2 -2.5 16.4 -3.8 24.5 -.5 3.1 -1.1 6.2 -1.7 9.3 Z"/>
        <path fill="#ffb78a" d="M 999.8 435.4 c -2.4 -1.1 -5.1 -.9 -7.7 -1.3 -5.3 -.8 -10.6 -1.4 -16 -2.1 -4.9 -.6 -9.9 -1.2 -14.8 -1.9 -9.2 -1.4 -18.4 -2.4 -27.5 -4.8 .2 -1.7 -.4 -3 -1.3 -4.4 -2.1 -3 -4.5 -5.8 -7.1 -8.5 -1.1 -1.2 -2.3 -1.5 -3.9 -1.4 -2.1 0 -4.2 .6 -6.2 .8 -4.8 .6 -9.6 1.1 -14.4 1.8 -7.3 1 -14.5 2 -21.8 3 -3 .4 -6 .9 -8.9 1.3 -2.5 .4 -4.9 .6 -7.4 1 -5.2 .7 -10.4 1.5 -15.6 2.2 -2.3 .3 -4.7 .7 -7 1 -5.1 .6 -10.2 1.2 -15.2 1.8 -4.5 .6 -9.1 1.4 -13.6 2.1 -4.7 .6 -9.4 1 -14 1.8 -2.5 .4 -4.9 .6 -7.4 .9 -3.1 .5 -6.2 .8 -9.3 1.4 -4.5 .8 -9.1 1 -13.5 2.4 -1.1 0 -1.9 -.8 -2.9 -1.2 -2.9 -1.3 -5.7 -2.7 -8.6 -3.9 -7.8 -3 -15.8 -4.7 -24.2 -4.5 -9.2 .2 -17.9 2.3 -26.4 5.8 -8.4 3.5 -15.7 8.4 -22 14.9 -3.6 3.7 -6.3 8 -8.9 12.5 -1.3 0 -2.6 0 -3.9 0 -.7 0 -1.2 .3 -1.5 1 -.9 2.6 -1.7 5.2 -2.7 7.8 -2.1 6 -4.8 11.6 -9.8 15.8 -1.5 1.3 -3 2.5 -4.6 3.6 -3.4 2.4 -6.7 4.9 -10.6 6.5 .6 -2 1.1 -4.1 1.8 -6 3 -7.5 5.2 -15.2 7.6 -22.8 1.1 -3.6 2.3 -7.3 3.4 -10.9 2.7 -9.1 6.7 -17.7 10.3 -26.4 2.7 -6.5 6.3 -12.4 10.1 -18.2 3.3 -5.1 7.9 -9.2 14.1 -10.7 2.7 -.6 5.4 -.9 8.2 -1.1 4.2 -.3 8.3 -.9 12.5 -1.5 3 -.4 6 -.6 9 -1 5.3 -.7 10.7 -1.4 16 -2.1 2.3 -.3 4.7 -.5 7 -.8 5.6 -.8 11.2 -1.2 16.8 -1.8 3.4 -.4 6.8 -.9 10.1 -1.3 .3 0 .5 0 .8 0 4.5 -.3 8.9 -.4 13.3 -1 4.6 -.7 9.2 -.3 13.7 -1.3 .1 0 .3 0 .4 0 4.4 -.3 8.9 -.6 13.3 -.9 5.1 -.4 10.2 -.9 15.3 -1.3 .3 0 .5 0 .8 0 4.7 -.3 9.4 -.6 14.2 -.9 6.8 -.4 13.6 -.7 20.4 -1.5 .3 0 .5 0 .8 0 6 -.3 12.1 -.4 18.1 -1 5.5 -.5 11 -.6 16.5 -.8 .7 0 1.3 -.1 1.9 -.3 2.2 -.5 2.4 -.6 2.4 -2.8 0 -2.8 .6 -5.5 1.3 -8.1 1 -3.9 3.5 -6.4 7.2 -7.7 2.6 -.9 5.3 -1.5 8.1 -1.5 2.4 0 4.7 .1 7.1 0 4.4 -.3 8.6 .7 12.8 1.8 .2 0 .4 .3 .6 .5 -1.3 1.1 -2.5 2.3 -3.3 3.8 -1.7 3.1 -3.5 6.1 -5.2 9.3 -2.1 3.9 -1.3 7.8 1.4 11 2.9 3.5 6.4 6.5 10.6 8.6 5.4 2.7 11 4.9 16.6 7.2 3.2 1.3 6.4 2.1 9.9 2.2 3.4 0 6.3 -1.1 8.7 -3.1 3.5 -2.9 6.9 -6.1 9.3 -10.1 .8 -1.3 1.7 -2.7 2.4 -4.1 1.5 -2.8 3.1 -5.5 2.5 -8.9 4.8 1.1 9 3.5 13.2 6 2.8 1.6 5 4.2 7 6.9 1.6 2.1 2.3 4.7 2.6 7.3 .4 3 .5 6 -.4 9 -1.6 5.3 -2.9 10.6 -4.7 15.8 -1.9 5.6 -4.7 10.8 -7.8 15.7 Z"/>
        <path fill="#ffb78a" d="M 617.7 771.1 c 5.9 .3 11.8 -.6 17.7 -1.3 3.8 -.4 7.6 -.7 11.4 -1.1 5.6 -.5 11.2 -.9 16.9 -1.4 .9 0 1.8 0 2.8 0 13.9 -.3 27.9 -.5 41.8 0 5.6 .2 11.3 .4 16.9 1.2 3 .4 6 .6 9 .9 7.7 .8 15.3 2 22.9 3.6 4.4 .9 8.7 1.8 13 3.3 1.4 .5 1.5 .4 2.3 -1.2 .2 -.3 .4 -.7 .6 -1 .2 2.7 -.8 5.4 -.3 8.1 -1 4.8 -1.5 9.7 -2.2 14.6 -.3 2.6 -.2 5.2 -.9 7.7 -.4 1.8 -.5 3.6 -.5 5.4 -1.9 4.7 -3.7 9.5 -5.7 14.2 -3.3 7.9 -7 15.5 -10.7 23.2 -.7 1.4 -1.2 2.9 -1.8 4.4 -2.4 -.3 -4.9 -.5 -7.1 1 -5.4 -.3 -10.7 -.4 -16.1 .1 -1.3 .1 -2.6 .2 -3.9 .2 -15.6 .1 -31.2 0 -46.8 .4 -15.9 .5 -31.7 .4 -47.6 .6 -1.3 0 -2.6 0 -3.8 .8 -.6 -7.3 -1.4 -14.6 -2.4 -21.8 -.5 -3.4 -.6 -6.8 -1 -10.2 -.4 -3.5 -.9 -7 -1.3 -10.5 -.3 -2.6 -.7 -5.2 -.9 -7.8 -.6 -5.9 -.9 -11.8 -1.9 -17.6 -.7 -4.3 -.2 -8.6 -1.2 -12.9 -.3 -1.1 -.5 -2.4 1 -3.1 Z"/>
        <path fill="#ffb68a" d="M 687.9 1006.8 c 5.2 -4 11.2 -5.7 17.5 -6.6 6.6 -1 13.3 -1.3 20 -1.9 5.5 -.5 11 -.3 16.5 -1.2 1 -.2 2.1 -.1 3.2 -.1 7 0 13.9 0 20.9 0 4.9 0 9.7 .5 14.6 .9 4.3 .4 8.5 1.7 12.4 3.8 .8 .4 1.6 .8 2.6 .8 .7 1.1 1.9 1.8 2.9 2.6 5.5 4.5 9.8 9.9 11.2 17.1 1.1 5.9 -.4 10.9 -5.2 14.7 -.9 .7 -1.8 1.1 -2.8 1.4 -3.3 1 -6.6 1.8 -9.8 2.9 -5 1.7 -10.3 2.1 -15.4 3.1 -5.8 1.1 -11.6 2 -17.4 3 -6.8 1.1 -13.7 2.3 -20.6 3.4 -5.4 .9 -10.8 1.9 -16.3 2.8 -5.3 .9 -10.6 1.8 -15.9 2.7 -5.4 .9 -10.8 1.9 -16.3 2.8 -3.6 .6 -7.2 1.3 -10.8 1.8 -.8 .1 -1.6 .2 -2.2 -.4 .6 -.3 1.3 -.5 1.4 -1.3 0 -.9 .1 -1.8 .1 -2.8 0 -3.5 0 -7.1 0 -10.6 -.3 -7 .7 -13.9 .7 -20.8 0 -1.9 .7 -3.6 1.4 -5.3 .9 -2.4 1.9 -4.9 2.9 -7.3 2.4 -1.1 4.5 -2.5 4.7 -5.5 Z"/>
        <path fill="#ffb78b" d="M 662.4 598.1 c -4.7 .5 -9.4 1.1 -14.1 1.5 -4.6 .4 -9.1 .7 -13.7 1 -1.3 0 -2.6 .1 -3.8 .7 -2.2 1.1 -4 2.4 -4.2 5.2 0 1.3 -.6 2.5 -1 3.8 -3.2 10 -6.6 19.9 -9.6 30 -3.3 10.8 -7.3 21.3 -9.8 32.4 -.2 .8 -.5 1.5 -.7 2.2 -1.7 -3.1 -2.7 -6.5 -3.1 -10.1 -.7 -5.6 -1.7 -11.2 -2.1 -16.8 -.3 -5 -.7 -10 .3 -14.9 .2 -.8 .2 -1.6 .2 -2.4 -.2 -5.2 .8 -10.2 1.9 -15.2 2.2 -9.7 4.4 -19.5 7.1 -29 3.3 -11.5 6.9 -22.9 11.1 -34.1 .7 -1.7 1.2 -3.5 1.8 -5.2 3 -9.4 5.9 -18.8 8.9 -28.1 .2 -.7 .6 -1.5 .9 -2.2 1.7 1 2.8 2.7 4.3 4 1.6 1.3 2 2.9 2 4.9 0 4.2 -.9 8.4 -1.9 12.4 -1 4.2 -1.5 8.1 -.6 12.4 .9 4.3 1.9 8.5 4.8 11.8 3.3 3.8 7.2 6.9 11.6 9.3 2.8 1.5 5.4 3.2 8.3 4.4 3.7 1.4 4.8 4.5 4 8.3 -1 4.6 -1.8 9.2 -2.7 13.8 Z"/>
        <path fill="#ffb78a" d="M 940.3 359.1 c 3.4 -2.9 7.5 -3.3 11.5 -2.2 10.2 3 20.3 6.4 29.4 12.1 1.7 1.1 3.1 2.5 4.3 3.9 -1 .5 -1.7 1.2 -2.3 2.1 -1 1.7 -2.1 3.3 -2.9 5.1 -1.9 4.2 -4.9 7.4 -8.1 10.5 -2.8 2.7 -5.8 3.6 -9.6 1.8 -3.8 -1.8 -7.8 -3.1 -11.6 -4.7 -3.1 -1.4 -6.2 -3 -9.2 -4.5 -1.3 -.7 -2.4 -1.5 -3.5 -2.5 -3 -2.6 -3.4 -4 -1.5 -7.5 1.2 -2.3 2.6 -4.5 4.2 -6.6 1.4 -1.8 1.3 -3.6 .4 -5.5 -.3 -.7 -.9 -1.3 -1 -2.1 Z"/>
        <path fill="#e7a47c" d="M 662.4 598.1 c .9 -4.6 1.7 -9.2 2.7 -13.8 .8 -3.8 -.3 -6.9 -4 -8.3 -3 -1.2 -5.6 -2.9 -8.3 -4.4 -4.4 -2.4 -8.3 -5.5 -11.6 -9.3 -3 -3.4 -3.9 -7.6 -4.8 -11.8 -.9 -4.2 -.4 -8.2 .6 -12.4 1 -4 1.9 -8.1 1.9 -12.4 0 -2 -.4 -3.6 -2 -4.9 -1.5 -1.3 -2.6 -3 -4.3 -4 -.8 -1.4 -2.1 -2.3 -3.2 -3.4 -3.3 -3.6 -3.5 -9.7 -.2 -13.3 2 -2.3 4.6 -3.9 7.1 -5.6 1.7 -1.1 3.7 -2 5 -3.7 3.9 -1.6 7.3 -4 10.6 -6.5 1.6 -1.1 3.1 -2.4 4.6 -3.6 5 -4.2 7.7 -9.8 9.8 -15.8 .9 -2.6 1.8 -5.2 2.7 -7.8 .2 -.7 .8 -1 1.5 -1 1.3 0 2.6 0 3.9 0 -.1 1 -.2 2 .2 3 -.8 .2 -1.5 .4 -1.8 1.3 -.9 2.6 -2.7 4.9 -2.6 7.8 -2.1 7.7 -6.1 14.2 -13 18.5 -3.1 2 -6.3 3.8 -9.6 5.3 -4.3 1.9 -8.5 4.2 -12.3 6.9 -1.1 .8 -2 1.7 -2.9 2.7 -2 2.4 -2.1 5.1 0 7.5 1 1.2 2.1 2.5 3.4 3.3 1.7 1.1 3 2.6 4.5 3.8 3.8 3.2 4.8 7.5 4 12.1 -.7 3.8 -1.3 7.7 -2.6 11.5 -.8 2.6 -1.6 5.3 -1.2 8.1 1 6.6 4.1 12 9.8 15.9 4.2 2.9 8.6 5 13.4 6.5 1.9 .6 3.6 1.6 5.2 2.7 1.5 .9 2.2 2.3 2.3 3.9 .1 1.8 .2 3.6 -.3 5.5 -.8 3.2 -1.6 6.4 -1.9 9.6 -.2 2 -.7 3.8 -1.8 5.5 -1.6 0 -3 1 -4.6 .7 Z"/>
        <path fill="#e7a47c" d="M 940.3 359.1 c 0 .8 .7 1.4 1 2.1 .9 1.9 1 3.7 -.4 5.5 -1.6 2.1 -2.9 4.3 -4.2 6.6 -1.9 3.5 -1.6 4.9 1.5 7.5 1.1 .9 2.3 1.8 3.5 2.5 3 1.6 6.1 3.2 9.2 4.5 3.8 1.7 7.9 3 11.6 4.7 3.8 1.8 6.8 .9 9.6 -1.8 3.2 -3.1 6.3 -6.3 8.1 -10.5 .8 -1.8 1.9 -3.4 2.9 -5.1 .5 -.9 1.3 -1.6 2.3 -2.1 1.7 0 3.5 -.1 4.6 1.7 .6 3.4 -1 6.1 -2.5 8.9 -.8 1.4 -1.6 2.7 -2.4 4.1 -2.4 4 -5.8 7.2 -9.3 10.1 -2.4 2 -5.3 3.2 -8.7 3.1 -3.5 0 -6.7 -.8 -9.9 -2.2 -5.6 -2.3 -11.2 -4.5 -16.6 -7.2 -4.2 -2.1 -7.7 -5.1 -10.6 -8.6 -2.7 -3.2 -3.4 -7.1 -1.4 -11 1.7 -3.1 3.4 -6.2 5.2 -9.3 .8 -1.5 2 -2.7 3.3 -3.8 1 0 2 .2 3.1 .3 Z"/>
        <path fill="#494a45" d="M 687.9 1006.8 c -.2 3 -2.3 4.4 -4.7 5.5 -5.1 -.4 -10 -1.9 -15 -2.9 -7 -1.5 -14 -3.3 -21.1 -4.6 -4.6 -.8 -9.2 -2.1 -13.8 -3.1 -8.4 -1.9 -16.9 -3.5 -25.3 -5.6 -5.6 -1.4 -11.2 -2.5 -16.8 -3.8 -9.7 -2.2 -19.4 -4.3 -29.1 -6.5 -4.3 -1 -8.6 -2.1 -13 -3 -4 -.9 -7.9 -1.9 -11.9 -2.5 -3.2 -.5 -6.3 -1.6 -9.5 -2.3 -7.4 -1.6 -14.8 -3.5 -22.2 -4.8 -4.6 -.9 -9.2 -2.1 -13.8 -3.2 -.6 -.1 -1.2 -.5 -1.9 -.6 -3.1 -.6 -4.2 -3 -5 -5.6 -.7 -2.5 2 -6 4.7 -6.3 2.8 -.3 5.5 .5 8.2 1.1 8.6 1.9 17.1 4 25.6 5.9 8.2 1.8 16.4 3.6 24.5 5.5 7.8 1.9 15.6 3.3 23.4 5 6 1.4 12 2.6 18 4 4.3 1 8.7 2 13 3 7.1 1.7 14.3 3.2 21.5 4.8 9.7 2.1 19.4 4.3 29.1 6.4 4.2 .9 8.4 2 12.6 3 5.7 1.3 11.5 2.6 17.2 3.9 .8 .2 1.5 .4 2.2 .7 1 .4 1.7 1.1 2 2.2 .3 1.3 .7 2.5 1.1 3.8 Z"/>
        <path fill="#494a45" d="M 743.8 852.8 c 2.2 -1.5 4.6 -1.3 7.1 -1 .5 .6 1 1.3 1.5 1.8 2 1.8 1.9 3.9 1.1 6.1 -.4 1 -.9 1.9 -1.4 2.8 -5 9.8 -10 19.7 -15.2 29.4 -2.4 4.5 -4.8 9 -7.1 13.6 -1.2 2.5 -3.1 3.8 -5.9 3.8 -5.2 0 -7.9 -4.8 -5.3 -9.4 .3 -.6 .7 -1.1 1 -1.7 4.5 -8.7 9 -17.5 13.5 -26.2 2.7 -5.1 5.4 -10.2 8 -15.3 .7 -1.4 2.3 -2.2 2.6 -3.9 Z"/>
        <path fill="#894100" d="M 767.2 432.5 c .6 .5 1.1 1.1 1.8 1.5 6.9 4.3 13 9.6 18.4 15.7 2 2.3 4.2 4.2 6.9 5.7 -.2 1.4 -1.2 2.7 -.6 4.2 .9 2.3 1.2 4.8 2.3 7.1 1.1 2.4 2.2 4.8 2.8 7.3 1 4.1 2.3 8 2.9 12.2 .7 4.4 .8 8.7 .3 12.9 -.9 6.5 -2.6 12.8 -4.6 19.1 -.8 2.6 -1.7 5.2 -3.5 7.5 -.5 .6 -.9 1.4 -1 2.1 -.3 1.6 -1.3 2.9 -2.3 4.1 -3.5 4.2 -7.2 8.4 -10.8 12.5 -1.9 2.2 -4.4 3.7 -6.4 5.8 -3.1 3.1 -6.6 5.6 -10.4 7.7 -1.3 .7 -2.3 1.7 -3.3 2.8 -1.1 1.3 -1.4 5.3 -.4 6.7 1.1 1.5 2.4 2.8 4.1 3.6 .9 .4 1.8 .6 2.7 .3 2.8 -1 5.8 -1.7 8.4 -3.4 2.7 -1.9 5.5 -3.6 7.8 -6 1.8 -1.9 3.8 -3.6 6 -5.1 1.9 -1.3 3.6 -2.8 4.9 -4.5 2.4 -3.1 5.1 -5.9 7.2 -9.3 1.6 -2.6 3.4 -5 5.4 -7.2 1.6 -1.7 3 -3.6 2.8 -6.3 0 -.7 .4 -1.5 .6 -2.3 .8 -2.6 1.8 -5.2 2.6 -7.9 1.9 -6.3 3.4 -12.6 3.1 -19.3 0 -2.1 0 -4.2 0 -6.3 0 -3.3 0 -6.5 -.8 -9.8 -1.4 -6.3 -2.6 -12.6 -5.9 -18.2 -1 -1.6 -1.4 -3.4 -1.3 -5.3 0 -.9 0 -1.8 0 -2.8 5 .9 9.5 3 13.8 5.7 2.7 1.7 5 3.9 6.9 6.4 4.1 5.4 7 11.4 8.4 18.1 2 9.4 2.1 18.8 .6 28.2 -1.1 6.5 -3.1 12.8 -5.6 18.8 -.4 .8 -.6 1.7 -.9 2.6 -.5 1.6 -.9 3.3 -1.6 4.9 -2 5 -4 10 -6.1 15 -5.9 13.5 -13.3 26 -22.9 37.1 -4.8 5.5 -10 10.5 -15.9 14.7 -.5 .4 -1.1 .7 -1.6 1.2 -4 3.6 -8.7 5.9 -14 6.8 -4.2 -.6 -8 -2.3 -11.9 -3.7 -.4 -.1 -.7 -.3 -1.1 -.4 -.9 -2.2 -2.6 -3.9 -3.5 -6.2 -1.5 -3.7 -2 -7.6 -2.2 -11.6 -.6 -10.2 -.3 -20.3 2.3 -30.2 .4 -1.5 .4 -2.8 -.8 -4 -.3 -1.9 -.5 -3.9 -.8 -5.8 -.4 -3 -.8 -6 -1.3 -9 -.9 -5.6 -1.9 -11.1 -2.8 -16.7 -.7 -4.6 -1.9 -9 -3.6 -13.3 -1.3 -3.5 -3.6 -6.1 -7 -7.6 -1.2 -.5 -2.4 -1 -3.7 -1.3 -3.3 -.8 -6.6 -1.8 -10 -2.3 -7.6 -1.1 -14.4 -4 -20.3 -8.9 -.2 -.2 -.4 -.3 -.6 -.5 -2.3 -1.6 -4.1 -3.7 -5.5 -6.1 -4.8 -8.5 -10.1 -16.6 -15.7 -24.6 -1.5 -2.2 -3.2 -4.2 -5.3 -5.8 -.4 -1 -.3 -2 -.2 -3 2.5 -4.5 5.3 -8.8 8.9 -12.5 6.3 -6.5 13.7 -11.4 22 -14.9 8.4 -3.5 17.2 -5.6 26.4 -5.8 8.4 -.2 16.4 1.5 24.2 4.5 2.9 1.1 5.7 2.6 8.6 3.9 .9 .4 1.7 1.2 2.9 1.2 Z"/>
        <path fill="#ffb68a" d="M 674.4 459.1 c 2.1 1.6 3.8 3.6 5.3 5.8 5.6 8 10.9 16.1 15.7 24.6 1.4 2.4 3.1 4.5 5.5 6.1 .2 .1 .4 .3 .6 .5 5.9 5 12.7 7.8 20.3 8.9 3.4 .5 6.7 1.5 10 2.3 1.3 .3 2.5 .8 3.7 1.3 3.4 1.6 5.7 4.2 7 7.6 1.6 4.3 2.8 8.7 3.6 13.3 .9 5.6 1.9 11.1 2.8 16.7 .5 3 .9 6 1.3 9 .3 1.9 .5 3.9 .8 5.8 -1.5 1.7 -2.2 3.8 -3.1 5.9 -1.8 4.3 -3.7 8.7 -5.5 13 -2.6 6.4 -5.3 12.8 -7.8 19.2 -.7 1.8 -1.7 3.6 -1.6 5.6 -1.4 1.6 -3.3 2.6 -5.1 3.7 -12.8 7.3 -25.5 14.7 -38.3 22 -3.1 1.8 -6.1 3.6 -9.1 5.5 -2.2 1.3 -4.4 .6 -5.5 -1.7 -.3 -.6 -.5 -1.2 -.6 -1.9 -1 -6.4 -2.4 -12.6 -3.8 -18.9 -1 -4.6 -1.8 -9.3 -2.7 -13.9 -.2 -.8 -.6 -1.5 -.9 -2.2 1 -1.7 1.6 -3.5 1.8 -5.5 .4 -3.2 1.2 -6.4 1.9 -9.6 .4 -1.8 .4 -3.7 .3 -5.5 -.1 -1.6 -.8 -3 -2.3 -3.9 -1.7 -1.1 -3.3 -2 -5.2 -2.7 -4.7 -1.5 -9.2 -3.6 -13.4 -6.5 -5.7 -3.9 -8.8 -9.2 -9.8 -15.9 -.4 -2.8 .3 -5.5 1.2 -8.1 1.2 -3.8 1.9 -7.6 2.6 -11.5 .8 -4.6 -.2 -8.9 -4 -12.1 -1.5 -1.3 -2.8 -2.7 -4.5 -3.8 -1.3 -.8 -2.4 -2.1 -3.4 -3.3 -2 -2.5 -2 -5.1 0 -7.5 .8 -1 1.8 -1.9 2.9 -2.7 3.8 -2.8 8 -5 12.3 -6.9 3.4 -1.5 6.5 -3.3 9.6 -5.3 6.9 -4.4 10.9 -10.8 13 -18.5 0 -2.9 1.7 -5.2 2.6 -7.8 .3 -.9 1 -1.1 1.8 -1.3 Z"/>
        <path fill="#5e3819" d="M 806.9 457.7 c 0 .9 0 1.8 0 2.8 -.2 1.9 .3 3.6 1.3 5.3 3.3 5.7 4.5 11.9 5.9 18.2 .7 3.3 .7 6.5 .8 9.8 0 2.1 0 4.2 0 6.3 .3 6.6 -1.2 13 -3.1 19.3 -.8 2.6 -1.7 5.2 -2.6 7.9 -.2 .7 -.7 1.5 -.6 2.3 .2 2.6 -1.2 4.5 -2.8 6.3 -2 2.2 -3.9 4.7 -5.4 7.2 -2.1 3.4 -4.8 6.2 -7.2 9.3 -1.3 1.7 -3 3.2 -4.9 4.5 -2.2 1.5 -4.2 3.2 -6 5.1 -2.3 2.4 -5.1 4.1 -7.8 6 -2.5 1.7 -5.5 2.4 -8.4 3.4 -.9 .3 -1.8 .1 -2.7 -.3 -1.8 -.8 -3 -2.1 -4.1 -3.6 -1 -1.4 -.7 -5.4 .4 -6.7 1 -1.1 1.9 -2.1 3.3 -2.8 3.8 -2.1 7.3 -4.6 10.4 -7.7 2 -2 4.5 -3.6 6.4 -5.8 3.6 -4.1 7.3 -8.3 10.8 -12.5 1 -1.2 2 -2.4 2.3 -4.1 .2 -.7 .6 -1.5 1 -2.1 1.7 -2.2 2.6 -4.8 3.5 -7.5 2 -6.2 3.7 -12.6 4.6 -19.1 .6 -4.2 .4 -8.6 -.3 -12.9 -.6 -4.2 -1.9 -8.2 -2.9 -12.2 -.6 -2.5 -1.7 -5 -2.8 -7.3 -1.1 -2.3 -1.4 -4.8 -2.3 -7.1 -.6 -1.5 .5 -2.8 .6 -4.2 1.9 0 3.9 -.3 5.8 -.2 2.5 .1 4.9 .7 6.8 2.4 Z"/>
      </g>
    </g>
  </g>
</svg>