<svg width="500" height="500" viewBox="0 0 500 500" fill="none" xmlns="http://www.w3.org/2000/svg">
<path d="M174.161 277.855C172.452 277.724 170.831 278.162 169.209 278.512C164.958 279.476 160.664 279.871 156.369 280.484C151.811 281.142 147.21 281.755 142.652 282.325C139.322 282.719 135.991 283.026 132.617 283.377C127.884 283.903 123.195 284.56 118.505 285.305C113.86 286.05 109.215 286.576 104.57 287.102C104.044 287.146 103.605 287.014 103.211 286.664C102.291 283.859 101.896 280.966 101.37 278.074C101.02 276.234 100.757 274.349 100.406 272.509C99.9681 270.405 99.4423 268.302 99.267 266.11C99.1355 264.577 98.7849 263.087 98.4781 261.553C98.522 260.895 98.3028 260.194 98.6096 259.537C100.231 259.186 101.853 258.748 103.474 258.441C104.789 258.178 106.016 257.784 107.287 257.346C109.522 256.601 111.713 255.68 114.035 255.242C115.043 256.469 116.227 256.732 117.76 256.206C121.179 255.023 124.685 253.971 128.147 252.832C134.238 250.816 140.373 248.8 146.465 246.784C150.584 245.426 154.704 244.067 158.779 242.665C160.181 242.183 160.576 240.605 159.656 239.466C159.48 239.247 159.261 239.071 159.042 238.896C161.452 239.247 163.731 238.896 166.054 238.107C172.058 236.048 178.149 234.119 184.197 232.147C187.396 231.095 190.551 230 193.663 228.641C194.671 228.203 195.766 227.853 196.818 227.502C204.794 224.873 212.945 222.769 221.008 220.49C228.897 218.255 236.741 215.933 244.629 213.829C255.848 210.849 266.935 207.343 278.11 204.232C282.098 203.136 286.13 202.347 290.162 201.427C291.17 201.208 292.221 200.945 293.229 200.726C294.413 200.507 295.552 200.288 296.735 200.112C298.62 199.849 300.46 199.499 302.301 199.061C304.974 198.491 307.603 197.877 310.32 197.439C312.161 197.132 314.089 197.089 315.93 196.957C315.93 197.483 315.842 198.009 315.623 198.535C315.185 199.586 314.834 200.682 314.44 201.734C313.958 201.821 313.476 201.909 312.994 202.041C309.575 203.005 306.113 203.925 302.695 204.889C301.512 205.24 300.285 205.59 299.321 206.467C298.181 206.686 297.261 207.256 296.341 207.913C294.895 208.877 293.448 209.885 291.958 210.761C290.556 211.55 289.198 212.383 287.927 213.435C287.226 214.004 286.524 214.574 285.779 215.144C279.951 219.614 274.122 224.084 268.294 228.598C261.107 234.163 253.876 239.729 246.689 245.294C243.884 247.485 241.079 249.677 238.231 251.868C237.267 252.613 236.566 253.577 235.864 254.541C235.295 255.374 235.076 256.338 234.813 257.258C234.725 257.652 234.944 257.959 235.295 258.047C235.645 258.135 235.996 258.134 236.347 258.178C239.852 258.354 243.314 258.529 246.82 258.748C247.171 258.748 247.522 258.748 247.872 258.792C250.721 259.274 253.613 259.099 256.461 259.405C259.792 259.8 263.166 259.537 266.497 258.967C266.848 261.421 267.067 261.64 269.521 261.64C269.609 261.64 269.652 261.64 269.74 261.64C278.811 261.64 287.883 261.64 296.954 261.64C297.436 261.64 297.962 261.728 298.4 261.597C299.847 261.158 301.293 261.29 302.739 261.29C305.237 261.29 305.237 261.29 307.165 259.975C307.384 260.238 307.647 260.501 307.823 260.764C309.313 263.087 311.153 265.102 313.3 266.812C317.551 270.23 322.416 272.509 327.675 273.911C330.655 274.7 333.635 275.445 336.702 275.708C339.77 275.971 342.794 276.409 345.861 276.365C347.132 276.365 348.359 276.058 349.63 276.058C351.514 276.058 353.399 275.751 355.239 275.489C360.016 274.787 364.705 273.604 369.219 271.851C371.805 270.843 374.434 269.792 376.801 268.302C377.326 267.951 377.852 267.6 378.51 267.6C378.51 268.564 378.378 269.529 378.203 270.493C375.705 282.325 366.283 294.376 356.028 299.723C351.339 302.177 346.387 303.842 341.172 304.631C336.001 305.42 330.874 305.42 325.702 304.763C321.758 304.281 317.77 303.886 313.826 303.448C313.476 303.448 313.125 303.36 312.775 303.404C310.189 303.536 307.603 303.01 305.062 302.747C302.345 302.484 299.671 302.046 296.954 301.783C293.887 301.476 290.863 300.818 287.839 300.293C280.696 299.022 273.553 297.663 266.366 296.349C265.884 296.261 265.401 296.261 264.919 296.261C264.525 296.129 264.131 295.954 263.692 295.91C260.888 295.647 258.171 294.99 255.41 294.508C251.29 293.807 247.127 293.106 243.008 292.404C241.342 292.141 239.721 291.659 238.056 291.616C235.908 290.914 233.673 290.695 231.482 290.345C224.777 289.205 218.116 288.066 211.499 286.576C209.877 286.225 208.256 285.699 206.634 285.261C200.017 283.464 193.268 282.194 186.563 280.704C183.276 279.959 179.99 279.257 176.703 278.556C176.352 278.469 176.002 278.425 175.783 278.162C176.002 277.548 176.571 277.461 177.097 277.241C180.735 275.971 184.328 274.656 187.922 273.341C191.252 272.114 194.583 270.843 197.913 269.616C200.981 268.477 204.093 267.381 207.16 266.242C212.594 264.226 218.028 262.21 223.462 260.238C226.399 259.142 229.379 258.091 232.315 257.039C232.841 256.864 233.367 256.601 233.805 256.25C234.331 255.856 234.681 255.33 234.55 254.629C234.331 253.226 232.928 252.35 231.614 252.788C229.247 253.577 226.881 254.453 224.514 255.286C219.913 256.995 215.355 258.704 210.798 260.413C207.467 261.64 204.093 262.824 200.762 264.051C195.854 265.847 190.946 267.688 186.037 269.485C182.575 270.756 179.069 271.983 175.607 273.254C174.906 273.517 174.161 273.779 173.46 274.13C172.233 274.787 172.058 276.365 173.066 277.285C173.372 277.548 173.767 277.767 174.117 277.986L174.161 277.855Z" fill="#696D65"/>
<path d="M400.421 208.221C401.955 208.177 403.314 208.791 404.584 209.492C406.469 210.544 408.309 211.727 410.019 213.085C412.21 214.882 413.787 217.205 415.102 219.703C415.628 220.711 416.154 221.675 416.68 222.639C419.134 227.021 420.624 231.71 421.851 236.575C422.421 238.897 423.122 241.132 423.779 243.455C424.393 245.69 424.962 247.925 425.576 250.116C426.54 253.534 427.46 256.996 428.556 260.371C430.002 264.841 431.317 269.311 432.763 273.781C433.815 276.98 434.998 280.135 436.05 283.29C436.882 285.832 437.671 288.33 438.065 291.003C438.46 293.326 438.46 295.605 438.065 297.884C437.277 302.354 436.532 306.824 435.743 311.294C434.998 315.413 434.121 319.532 433.42 323.652C432.368 329.831 430.747 335.922 429.608 342.101C429.52 342.583 429.608 343.109 429.432 343.548C428.819 345.081 429.651 345.914 430.747 346.703C431.974 347.623 433.201 348.543 434.472 349.42C436.488 350.778 438.065 352.531 439.818 354.153C441.966 356.213 441.44 359.236 440.695 360.989C440.432 361.603 439.95 361.997 439.293 362.129C438.328 362.304 437.408 362.567 436.4 362.567C433.376 362.567 430.353 362.567 427.373 362.611C425.225 362.655 423.034 363.005 420.887 362.874C417.249 362.655 413.612 362.698 409.975 362.479C408.178 362.348 406.381 361.997 404.584 361.69C403.051 361.384 402.393 360.726 402.262 359.149C402.13 357.79 401.692 356.432 402.174 354.986C402.437 354.197 402.744 353.408 403.138 352.663C404.409 350.296 405.417 347.842 406.863 345.607C407.784 344.205 408.003 342.583 408.046 341.006C408.134 338.114 408.397 335.309 408.879 332.46C408.923 332.11 408.879 331.759 408.879 331.409C408.879 328.385 409.274 325.405 409.668 322.425C409.887 320.891 409.799 319.357 410.062 317.823C410.413 315.764 410.413 313.66 410.632 311.557C410.851 309.409 411.07 307.262 411.289 305.115C411.377 304.413 411.377 303.712 411.421 303.011C411.465 302.178 411.465 301.346 411.684 300.513C411.991 299.33 411.815 298.19 411.333 297.051C409.011 291.442 406.688 285.788 404.497 280.135C402.656 275.358 401.079 270.494 399.369 265.717C398.318 262.737 397.31 259.757 396.258 256.777C395.995 256.032 395.688 255.331 395.425 254.63C395.031 253.666 394.374 253.184 393.322 253.228C392.884 253.228 392.489 253.359 392.095 253.403C392.139 253.008 392.095 252.57 392.226 252.176C392.752 250.204 393.147 248.232 393.453 246.26C394.154 241.658 394.987 237.057 395.776 232.455C396.784 226.495 397.792 220.492 398.844 214.532C399.238 212.428 399.501 210.237 400.465 208.265L400.421 208.221Z" fill="#FFB78B"/>
<path d="M400.421 208.22C399.501 210.192 399.194 212.34 398.8 214.487C397.748 220.447 396.74 226.451 395.732 232.411C394.943 237.012 394.067 241.614 393.41 246.215C393.103 248.231 392.708 250.203 392.183 252.131C392.095 252.526 392.095 252.964 392.051 253.358C390.955 254.98 389.904 256.601 388.721 258.135C386.486 261.071 383.812 263.613 380.788 265.76C380.043 266.286 379.255 266.681 378.685 267.426C378.028 267.426 377.502 267.82 376.976 268.127C374.609 269.617 371.98 270.669 369.394 271.677C364.881 273.473 360.235 274.613 355.415 275.314C353.574 275.577 351.69 275.884 349.805 275.884C348.534 275.884 347.307 276.147 346.037 276.19C342.969 276.234 339.901 275.796 336.877 275.533C333.81 275.27 330.83 274.525 327.85 273.736C322.591 272.334 317.727 270.055 313.476 266.637C311.328 264.928 309.488 262.912 307.998 260.589C307.823 260.282 307.56 260.063 307.34 259.8C307.253 258.53 306.771 257.434 305.894 256.514C305.368 253.446 304.667 250.422 304.667 247.267C304.667 246.566 304.36 245.908 304.229 245.251C304.054 243.498 304.01 241.745 303.659 240.08C303.44 238.897 303.44 237.713 303.265 236.53C303.002 234.733 302.783 232.937 302.564 231.14C302.388 229.606 302.213 228.072 302.038 226.582C301.643 223.471 301.249 220.359 300.855 217.248C300.635 215.539 300.373 213.786 300.153 212.077C299.934 210.192 299.408 208.396 299.496 206.467C300.46 205.591 301.687 205.24 302.87 204.89C306.289 203.926 309.707 202.961 313.169 202.041C313.651 201.91 314.133 201.866 314.615 201.734C314.484 202.479 314.396 203.268 314.265 204.013C313.476 207.957 313.476 211.901 314.133 215.889C315.141 222.156 317.595 227.809 321.276 232.937C321.452 233.2 321.583 233.594 322.021 233.594C322.46 234.076 322.547 234.733 322.679 235.347C323.029 237.275 323.599 239.16 324.125 241.044C325.177 244.813 326.491 248.494 328.332 252C328.858 253.008 329.427 253.928 330.172 254.805C333.065 258.223 336.79 259.844 341.216 259.932C344.941 259.976 348.622 259.888 352.347 259.932C356.247 260.019 359.797 258.836 363.215 257.127C365.363 256.032 367.116 254.454 368.343 252.307C369.482 250.291 370.534 248.231 371.366 246.084C372.725 242.402 373.996 238.721 374.303 234.733C374.96 234.208 375.442 233.506 375.88 232.805C380.526 225.311 382.848 217.16 382.673 208.352C382.673 206.467 382.673 204.583 382.673 202.698C388.282 204.364 393.892 206.029 399.501 207.694C399.895 207.826 400.29 208.001 400.684 208.133L400.421 208.22Z" fill="#8989DD"/>
<path d="M321.802 233.683C321.364 233.683 321.276 233.289 321.057 233.026C317.376 227.899 314.922 222.245 313.914 215.979C313.256 212.034 313.256 208.047 314.045 204.102C314.177 203.357 314.308 202.569 314.396 201.824C314.79 200.728 315.141 199.676 315.579 198.625C315.798 198.099 315.886 197.573 315.886 197.047C316.412 196.74 316.587 196.214 316.806 195.688C319.742 189.816 324.168 185.434 330.085 182.585C331.224 182.059 332.363 181.49 333.503 181.008C334.335 180.657 335.124 180.219 335.782 179.561C336.001 179.561 336.22 179.605 336.395 179.561C338.411 178.904 340.558 179.43 342.53 178.773C346.475 178.948 350.462 178.334 354.363 179.123C354.757 179.211 355.195 179.123 355.59 179.123C357.124 179.123 358.657 179.123 360.191 179.123C360.717 179.649 361.374 179.824 362.076 179.956C365.888 180.745 369.131 182.585 371.98 185.127C376.099 188.72 379.298 193.015 381.095 198.23C381.577 199.676 381.928 201.21 382.322 202.656C382.322 204.541 382.322 206.425 382.322 208.31C382.497 217.162 380.175 225.269 375.529 232.763C375.091 233.464 374.609 234.165 373.952 234.691C373.908 232.807 373.908 230.922 374.127 229.038C374.39 226.978 374.609 224.875 374.565 222.771C374.565 221.939 374.39 221.237 373.82 220.668C371.848 218.477 370.095 216.11 367.422 214.708C367.072 214.532 366.721 214.269 366.414 213.963C365.757 213.262 365.012 213.174 364.135 213.174C361.287 213.174 358.394 213.174 355.546 213.174C352.741 213.174 349.937 213.086 347.132 212.999C342.399 212.823 337.622 212.604 332.889 212.385C331.925 212.341 331.18 212.648 330.435 213.305C328.375 215.277 326.36 217.337 324.125 219.134C322.328 220.58 321.802 222.158 321.89 224.393C322.021 227.46 322.109 230.528 321.67 233.596L321.802 233.683Z" fill="#894100"/>
<path d="M238.099 291.527C239.765 291.571 241.43 292.009 243.051 292.316C247.171 293.017 251.334 293.762 255.453 294.42C258.214 294.902 260.931 295.559 263.736 295.822C264.13 295.822 264.525 296.041 264.963 296.173C265.095 298.758 265.401 301.3 265.752 303.886C266.015 305.814 266.103 307.786 266.278 309.714C266.497 312.081 266.76 314.447 267.023 316.77C267.023 317.12 267.11 317.471 267.11 317.821C267.198 320.319 267.549 322.817 267.855 325.315C268.118 327.463 268.206 329.61 268.381 331.801C268.469 332.984 268.381 334.168 268.732 335.351C268.863 335.745 268.82 336.183 268.82 336.622C268.951 338.769 269.126 340.96 269.258 343.107C269.302 343.984 269.696 344.729 270.134 345.43C271.712 347.928 272.808 350.689 274.254 353.231C275.525 355.509 275.218 357.832 274.604 360.155C274.429 360.9 273.815 361.294 273.114 361.513C272.238 361.776 271.361 362.083 270.485 362.171C268.118 362.39 265.752 362.697 263.385 362.697C260.581 362.697 257.776 363.003 255.015 362.959C252.517 362.916 249.976 362.653 247.478 362.653C245.155 362.653 242.876 362.653 240.554 362.653C239.633 362.653 238.757 362.477 237.88 362.258C237.223 362.083 236.741 361.645 236.478 361.075C235.47 358.709 235.251 356.43 237.354 354.326C240.028 351.653 242.832 349.111 246.031 347.095C247.697 346.044 248.047 344.817 247.653 343.064C246.557 338.287 245.725 333.466 244.585 328.733C243.796 325.403 243.358 322.028 242.745 318.654C242.306 316.2 241.868 313.702 241.386 311.248C240.641 307.216 239.808 303.184 239.063 299.109C238.801 297.619 238.669 296.041 238.538 294.551C238.45 293.587 238.012 292.667 238.143 291.659L238.099 291.527Z" fill="#FFB78B"/>
<path d="M98.4341 261.638C98.6971 263.172 99.0915 264.662 99.223 266.196C99.3983 268.387 99.9241 270.447 100.362 272.594C100.757 274.435 100.976 276.319 101.326 278.16C101.852 281.052 102.247 283.945 103.167 286.749C101.326 287.801 99.4421 288.677 97.47 289.466C95.1912 290.387 93.0877 290.299 90.8527 289.072C88.4862 287.801 86.4265 286.179 84.586 284.207C82.7454 282.279 80.9048 280.395 78.626 278.949C77.618 278.335 76.6539 277.634 75.5583 277.108C73.893 276.319 72.403 275.267 71.0007 274.128C67.6263 271.367 64.4272 268.519 61.9293 264.881C60.1763 262.296 58.8616 259.491 58.2919 256.467C57.6784 253.224 57.9413 250.069 59.9572 247.264C61.6663 244.898 63.989 243.452 66.7937 242.707C68.8972 242.137 70.9569 242.444 72.9728 243.145C73.7616 243.408 74.4189 243.364 75.1639 242.97C77.7057 241.611 80.3789 240.516 83.1836 239.902C84.8927 239.508 86.6018 239.245 88.3109 238.982C89.4942 238.806 90.6336 238.412 91.6853 237.886C92.8248 237.316 93.9642 236.834 95.0597 236.221C97.4262 234.906 100.012 234.293 102.597 233.679C104.219 233.285 105.928 233.197 107.593 233.328C109.259 233.416 110.836 234.161 112.326 234.994C113.772 235.826 115.087 236.878 116.139 238.193C115.92 240.34 115.701 242.444 115.701 244.591C115.701 246.037 115.701 247.483 115.525 248.93C115.394 250.113 115.306 251.252 115.394 252.435C114.474 253.18 114.123 254.188 113.991 255.328C111.669 255.766 109.478 256.686 107.243 257.431C105.972 257.87 104.745 258.22 103.43 258.527C101.809 258.878 100.187 259.272 98.5656 259.623C98.0836 259.535 97.5577 259.623 97.1633 259.272C96.5497 258.702 95.7609 258.746 94.9721 258.702C93.5698 258.702 92.3427 259.184 91.2033 259.798C89.8886 260.543 88.4862 260.937 87.0401 261.2C84.6298 261.595 82.3071 262.34 80.0721 263.435C79.0204 263.961 77.9248 264.399 76.7854 264.838C76.0404 265.144 75.2954 265.057 74.5504 264.662C73.7178 264.224 73.0166 263.61 72.666 262.778C72.0086 261.244 71.4828 259.623 71.4389 257.957C71.4389 256.336 71.4389 254.758 71.4389 253.137C71.4389 252.435 71.5704 251.778 71.8772 251.121C72.4907 249.85 73.2357 248.71 74.2436 247.703C75.4269 246.519 74.901 244.679 73.3672 244.197C73.1042 244.109 72.7975 244.109 72.5345 244.197C71.3951 244.46 70.4748 245.029 69.8175 245.993C68.1522 248.491 67.2757 251.208 67.2319 254.232C67.2319 255.284 67.2319 256.336 67.2319 257.388C67.1442 260.192 68.0207 262.734 69.2039 265.232C69.8613 266.634 71.0445 267.774 72.4031 268.475C74.4628 269.57 76.6539 269.746 78.8451 268.782C79.9845 268.256 81.1239 267.73 82.3071 267.248C83.3151 266.81 84.323 266.24 85.4186 266.021C88.3986 265.451 91.2909 264.838 93.9642 263.304C94.6653 262.909 95.4542 263.085 96.1992 262.953C97.0318 262.778 97.3824 261.682 98.3465 261.726L98.4341 261.638Z" fill="#FFB78A"/>
<path d="M334.599 173.732C333.678 170.051 334.511 166.764 337.009 164.003C340.515 160.234 344.985 158.569 350.068 159.095C357.694 159.884 361.988 166.369 361.55 172.943C361.55 173.206 361.375 173.469 361.331 173.732C360.936 173.6 360.542 173.381 360.148 173.337C358.132 173.25 356.16 172.636 354.1 172.855C353.837 172.855 353.53 172.855 353.267 172.768C352.259 172.329 351.208 172.417 350.156 172.461C347.22 172.549 344.327 172.329 341.391 172.768C339.156 173.118 336.834 173.337 334.599 173.688V173.732Z" fill="#894200"/>
<path d="M115.394 252.394C115.306 251.211 115.394 250.071 115.525 248.888C115.657 247.442 115.701 245.996 115.701 244.55C115.701 242.402 115.92 240.255 116.139 238.152C120.872 238.108 125.605 238.152 130.382 238.414C136.561 238.765 142.784 239.072 149.006 238.94C150.935 238.94 152.907 238.809 154.835 239.072C154.791 239.379 154.66 239.598 154.353 239.685C151.767 240.518 149.182 241.307 146.596 242.183C137.744 245.119 128.848 248.099 119.995 251.036C118.462 251.518 117.015 252.219 115.394 252.438V252.394Z" fill="#6C6E66"/>
<path d="M174.161 277.855C173.811 277.636 173.416 277.461 173.109 277.154C172.101 276.19 172.277 274.612 173.504 273.998C174.161 273.648 174.906 273.385 175.651 273.122C179.113 271.851 182.619 270.624 186.081 269.353C190.989 267.556 195.897 265.716 200.806 263.919C204.136 262.692 207.511 261.553 210.841 260.282C215.443 258.573 220 256.864 224.558 255.154C226.924 254.278 229.291 253.445 231.657 252.656C233.016 252.218 234.374 253.095 234.594 254.497C234.725 255.198 234.374 255.724 233.849 256.119C233.41 256.425 232.884 256.688 232.359 256.907C229.422 258.003 226.442 259.055 223.506 260.106C218.072 262.122 212.638 264.138 207.204 266.11C204.136 267.25 201.025 268.345 197.957 269.485C194.627 270.712 191.296 271.983 187.965 273.21C184.372 274.524 180.735 275.839 177.141 277.11C176.615 277.285 176.046 277.417 175.826 278.03C175.257 277.986 174.687 277.943 174.117 277.855H174.161Z" fill="#494A45"/>
<path d="M115.394 252.395C117.015 252.176 118.462 251.519 119.995 250.993C128.892 248.057 137.744 245.077 146.596 242.141C149.182 241.308 151.767 240.475 154.353 239.643C154.66 239.555 154.791 239.292 154.835 239.029C155.668 238.898 156.5 238.985 157.289 238.635C157.903 238.372 158.516 238.503 159.042 238.942C159.261 239.117 159.48 239.292 159.656 239.511C160.576 240.651 160.181 242.228 158.779 242.71C154.66 244.113 150.584 245.471 146.465 246.83C140.373 248.846 134.282 250.905 128.147 252.878C124.684 254.017 121.222 255.025 117.76 256.252C116.227 256.778 115.043 256.515 114.035 255.288C114.123 254.148 114.474 253.14 115.438 252.395H115.394Z" fill="#494A45"/>
<path d="M334.599 173.732C336.877 173.337 339.156 173.118 341.391 172.812C344.327 172.373 347.264 172.592 350.156 172.505C351.208 172.505 352.259 172.373 353.267 172.812C353.53 172.899 353.837 172.899 354.1 172.899C356.16 172.68 358.132 173.294 360.148 173.381C360.542 173.381 360.936 173.644 361.331 173.776C361.419 174.608 361.243 175.397 360.98 176.23C360.674 177.238 360.323 178.202 360.279 179.254C358.745 179.254 357.211 179.254 355.678 179.254C355.239 179.254 354.845 179.297 354.451 179.254C350.507 178.465 346.562 179.078 342.618 178.903C340.602 179.56 338.455 179.035 336.483 179.692C336.308 179.736 336.089 179.692 335.87 179.692C336.001 179.122 335.913 178.596 335.694 178.07C335.125 176.712 334.686 175.31 334.599 173.82V173.732Z" fill="#62350F"/>
<path d="M299.364 206.557C299.321 208.442 299.847 210.282 300.022 212.167C300.197 213.876 300.504 215.629 300.723 217.338C301.117 220.449 301.512 223.561 301.906 226.672C302.082 228.206 302.257 229.74 302.432 231.23C302.651 233.027 302.87 234.823 303.133 236.62C303.309 237.803 303.309 238.987 303.528 240.17C303.834 241.879 303.922 243.632 304.097 245.341C303.352 245.56 302.651 245.779 301.906 246.042C293.229 249.285 284.552 252.572 275.875 255.815C275.218 256.078 274.56 256.253 274.035 256.779C272.851 256.998 271.712 257.086 270.529 257.042C269.784 257.042 268.995 257.042 268.25 257.305C267.417 257.568 266.716 258.006 266.541 258.926C263.21 259.496 259.836 259.759 256.505 259.364C253.657 259.058 250.764 259.233 247.916 258.751C247.565 258.707 247.215 258.751 246.864 258.707C243.358 258.532 239.896 258.357 236.39 258.137C236.04 258.137 235.689 258.137 235.339 258.006C234.988 257.918 234.725 257.611 234.856 257.217C235.119 256.253 235.339 255.289 235.908 254.5C236.609 253.536 237.311 252.572 238.275 251.827C241.123 249.679 243.928 247.444 246.733 245.253C253.92 239.688 261.107 234.122 268.338 228.557C274.166 224.087 279.995 219.617 285.823 215.103C286.524 214.533 287.269 214.007 287.97 213.394C289.197 212.342 290.6 211.553 292.002 210.72C293.536 209.844 294.938 208.836 296.385 207.872C297.305 207.258 298.269 206.645 299.364 206.426V206.557Z" fill="#FFB68A"/>
<path d="M98.4344 261.639C97.4703 261.595 97.1197 262.69 96.287 262.866C95.542 263.041 94.7532 262.866 94.052 263.216C91.4226 264.706 88.4865 265.364 85.5065 265.933C84.4109 266.152 83.4029 266.722 82.395 267.16C81.2556 267.642 80.0724 268.168 78.933 268.694C76.7418 269.702 74.5506 269.483 72.4909 268.387C71.1324 267.686 69.993 266.547 69.2918 265.145C68.1086 262.69 67.2321 260.105 67.3198 257.3C67.3198 256.248 67.3198 255.197 67.3198 254.145C67.3636 251.121 68.24 248.404 69.9053 245.906C70.5627 244.898 71.483 244.328 72.6224 244.109C72.8853 244.065 73.1921 244.109 73.455 244.109C74.9889 244.591 75.5147 246.432 74.3315 247.615C73.3236 248.623 72.5786 249.763 71.965 251.033C71.6583 251.691 71.5268 252.348 71.5268 253.049C71.5268 254.671 71.5268 256.292 71.5268 257.87C71.5268 259.579 72.0965 261.157 72.7539 262.69C73.1044 263.567 73.8056 264.137 74.6383 264.575C75.3833 264.969 76.1283 265.057 76.8733 264.75C77.9688 264.312 79.0644 263.874 80.16 263.348C82.3512 262.252 84.6738 261.551 87.1279 261.113C88.5741 260.85 89.9764 260.455 91.2911 259.71C92.4744 259.053 93.7014 258.571 95.06 258.615C95.8488 258.615 96.5938 258.615 97.2511 259.185C97.6455 259.535 98.1714 259.448 98.6535 259.535C98.3467 260.193 98.5658 260.894 98.522 261.551L98.4344 261.639Z" fill="#EBA379"/>
<path d="M266.541 258.968C266.76 258.048 267.417 257.61 268.25 257.347C268.995 257.128 269.74 257.084 270.529 257.084C271.712 257.084 272.895 257.04 274.034 256.821C274.692 257.04 275.393 256.996 276.094 256.996C284.158 256.996 292.265 256.996 300.328 256.996C300.811 256.996 301.336 257.084 301.775 256.952C303.089 256.514 304.404 256.645 305.719 256.645C306.595 257.566 307.077 258.661 307.165 259.932C305.237 261.247 305.237 261.247 302.739 261.247C301.293 261.247 299.803 261.115 298.4 261.554C297.962 261.685 297.436 261.597 296.954 261.597C287.883 261.597 278.811 261.597 269.74 261.597C269.652 261.597 269.608 261.597 269.521 261.597C267.067 261.597 266.847 261.378 266.497 258.924L266.541 258.968Z" fill="#4A4A44"/>
<path d="M321.802 233.683C322.24 230.616 322.153 227.548 322.021 224.48C321.89 222.289 322.46 220.668 324.256 219.222C326.491 217.425 328.507 215.365 330.567 213.393C331.268 212.736 332.013 212.429 333.021 212.473C337.754 212.692 342.531 212.911 347.264 213.086C350.068 213.174 352.873 213.218 355.678 213.262C358.526 213.262 361.419 213.262 364.267 213.262C365.144 213.262 365.932 213.349 366.546 214.05C366.809 214.357 367.203 214.62 367.554 214.795C370.227 216.198 371.98 218.608 373.952 220.755C374.478 221.369 374.653 222.07 374.697 222.859C374.741 224.963 374.522 227.066 374.259 229.126C374.04 231.01 373.996 232.895 374.084 234.779C373.777 238.723 372.55 242.448 371.147 246.129C370.315 248.277 369.263 250.336 368.124 252.352C366.897 254.499 365.144 256.077 362.996 257.173C359.578 258.882 356.028 260.065 352.128 259.977C348.403 259.89 344.722 259.977 340.997 259.977C336.571 259.89 332.846 258.268 329.953 254.85C329.208 253.974 328.639 253.053 328.113 252.045C326.272 248.583 324.958 244.858 323.906 241.09C323.38 239.205 322.81 237.321 322.46 235.392C322.372 234.779 322.24 234.122 321.802 233.64V233.683Z" fill="#FFB78A"/>
<path d="M305.763 256.601C304.448 256.601 303.134 256.513 301.819 256.907C301.381 257.039 300.855 256.951 300.373 256.951C292.309 256.951 284.202 256.951 276.138 256.951C275.437 256.951 274.736 256.995 274.079 256.776C274.561 256.25 275.262 256.031 275.919 255.812C284.596 252.525 293.273 249.282 301.95 246.039C302.651 245.776 303.396 245.557 304.141 245.338C304.317 245.995 304.58 246.653 304.58 247.354C304.58 250.465 305.281 253.533 305.807 256.601H305.763Z" fill="#6B6D65"/>
</svg>
