<?xml version="1.0" encoding="UTF-8"?>
<svg xmlns="http://www.w3.org/2000/svg" version="1.1" viewBox="0 0 1417.3 1417.3">
  <defs>
    <style>
      .cls-1 {
        fill: #62350f;
      }

      .cls-2 {
        fill: #ffb78b;
      }

      .cls-3 {
        fill: #696d65;
      }

      .cls-4 {
        fill: #8989dd;
      }

      .cls-5 {
        fill: #894200;
      }

      .cls-6 {
        fill: #eba379;
      }

      .cls-7 {
        fill: #6b6d65;
      }

      .cls-8 {
        fill: #6c6e66;
      }

      .cls-9 {
        fill: #494a45;
      }

      .cls-10 {
        fill: #4a4a44;
      }

      .cls-11 {
        fill: #ffb68a;
      }

      .cls-12 {
        fill: #894100;
      }

      .cls-13 {
        fill: #ffb78a;
      }
    </style>
  </defs>
  <!-- Generator: Adobe Illustrator 28.7.1, SVG Export Plug-In . SVG Version: 1.2.0 Build 142)  -->
  <g>
    <g id="_레이어_1" data-name="레이어_1">
      <g>
        <path class="cls-3" d="M536.4,747.2c-3.9-.3-7.6.7-11.3,1.5-9.7,2.2-19.5,3.1-29.3,4.5-10.4,1.5-20.9,2.9-31.3,4.2-7.6.9-15.2,1.6-22.9,2.4-10.8,1.2-21.5,2.7-32.2,4.4-10.6,1.7-21.2,2.9-31.8,4.1-1.2.1-2.2-.2-3.1-1-2.1-6.4-3-13-4.2-19.6-.8-4.2-1.4-8.5-2.2-12.7-1-4.8-2.2-9.6-2.6-14.6-.3-3.5-1.1-6.9-1.8-10.4.1-1.5-.4-3.1.3-4.6,3.7-.8,7.4-1.8,11.1-2.5,3-.6,5.8-1.5,8.7-2.5,5.1-1.7,10.1-3.8,15.4-4.8,2.3,2.8,5,3.4,8.5,2.2,7.8-2.7,15.8-5.1,23.7-7.7,13.9-4.6,27.9-9.2,41.8-13.8,9.4-3.1,18.8-6.2,28.1-9.4,3.2-1.1,4.1-4.7,2-7.3-.4-.5-.9-.9-1.4-1.3,5.5.8,10.7,0,16-1.8,13.7-4.7,27.6-9.1,41.4-13.6,7.3-2.4,14.5-4.9,21.6-8,2.3-1,4.8-1.8,7.2-2.6,18.2-6,36.8-10.8,55.2-16,18-5.1,35.9-10.4,53.9-15.2,25.6-6.8,50.9-14.8,76.4-21.9,9.1-2.5,18.3-4.3,27.5-6.4,2.3-.5,4.7-1.1,7-1.6,2.7-.5,5.3-1,8-1.4,4.3-.6,8.5-1.4,12.7-2.4,6.1-1.3,12.1-2.7,18.3-3.7,4.2-.7,8.6-.8,12.8-1.1,0,1.2-.2,2.4-.7,3.6-1,2.4-1.8,4.9-2.7,7.3-1.1.2-2.2.4-3.3.7-7.8,2.2-15.7,4.3-23.5,6.5-2.7.8-5.5,1.6-7.7,3.6-2.6.5-4.7,1.8-6.8,3.3-3.3,2.2-6.6,4.5-10,6.5-3.2,1.8-6.3,3.7-9.2,6.1-1.6,1.3-3.2,2.6-4.9,3.9-13.3,10.2-26.6,20.4-39.9,30.7-16.4,12.7-32.9,25.4-49.3,38.1-6.4,5-12.8,10-19.3,15-2.2,1.7-3.8,3.9-5.4,6.1-1.3,1.9-1.8,4.1-2.4,6.2-.2.9.3,1.6,1.1,1.8.8.2,1.6.2,2.4.3,8,.4,15.9.8,23.9,1.3.8,0,1.6,0,2.4.1,6.5,1.1,13.1.7,19.6,1.4,7.6.9,15.3.3,22.9-1,.8,5.6,1.3,6.1,6.9,6.1.2,0,.3,0,.5,0,20.7,0,41.4,0,62.1,0,1.1,0,2.3.2,3.3-.1,3.3-1,6.6-.7,9.9-.7,5.7,0,5.7,0,10.1-3,.5.6,1.1,1.2,1.5,1.8,3.4,5.3,7.6,9.9,12.5,13.8,9.7,7.8,20.8,13,32.8,16.2,6.8,1.8,13.6,3.5,20.6,4.1,7,.6,13.9,1.6,20.9,1.5,2.9,0,5.7-.7,8.6-.7,4.3,0,8.6-.7,12.8-1.3,10.9-1.6,21.6-4.3,31.9-8.3,5.9-2.3,11.9-4.7,17.3-8.1,1.2-.8,2.4-1.6,3.9-1.6,0,2.2-.3,4.4-.7,6.6-5.7,27-27.2,54.5-50.6,66.7-10.7,5.6-22,9.4-33.9,11.2-11.8,1.8-23.5,1.8-35.3.3-9-1.1-18.1-2-27.1-3-.8,0-1.6-.2-2.4-.1-5.9.3-11.8-.9-17.6-1.5-6.2-.6-12.3-1.6-18.5-2.2-7-.7-13.9-2.2-20.8-3.4-16.3-2.9-32.6-6-49-9-1.1-.2-2.2-.2-3.3-.2-.9-.3-1.8-.7-2.8-.8-6.4-.6-12.6-2.1-18.9-3.2-9.4-1.6-18.9-3.2-28.3-4.8-3.8-.6-7.5-1.7-11.3-1.8-4.9-1.6-10-2.1-15-2.9-15.3-2.6-30.5-5.2-45.6-8.6-3.7-.8-7.4-2-11.1-3-15.1-4.1-30.5-7-45.8-10.4-7.5-1.7-15-3.3-22.5-4.9-.8-.2-1.6-.3-2.1-.9.5-1.4,1.8-1.6,3-2.1,8.3-2.9,16.5-5.9,24.7-8.9,7.6-2.8,15.2-5.7,22.8-8.5,7-2.6,14.1-5.1,21.1-7.7,12.4-4.6,24.8-9.2,37.2-13.7,6.7-2.5,13.5-4.9,20.2-7.3,1.2-.4,2.4-1,3.4-1.8,1.2-.9,2-2.1,1.7-3.7-.5-3.2-3.7-5.2-6.7-4.2-5.4,1.8-10.8,3.8-16.2,5.7-10.5,3.9-20.9,7.8-31.3,11.7-7.6,2.8-15.3,5.5-22.9,8.3-11.2,4.1-22.4,8.3-33.6,12.4-7.9,2.9-15.9,5.7-23.8,8.6-1.6.6-3.3,1.2-4.9,2-2.8,1.5-3.2,5.1-.9,7.2.7.6,1.6,1.1,2.4,1.6Z"/>
        <path class="cls-2" d="M1052.7,588.3c3.5-.1,6.6,1.3,9.5,2.9,4.3,2.4,8.5,5.1,12.4,8.2,5,4.1,8.6,9.4,11.6,15.1,1.2,2.3,2.4,4.5,3.6,6.7,5.6,10,9,20.7,11.8,31.8,1.3,5.3,2.9,10.4,4.4,15.7,1.4,5.1,2.7,10.2,4.1,15.2,2.2,7.8,4.3,15.7,6.8,23.4,3.3,10.2,6.3,20.4,9.6,30.6,2.4,7.3,5.1,14.5,7.5,21.7,1.9,5.8,3.7,11.5,4.6,17.6.9,5.3.9,10.5,0,15.7-1.8,10.2-3.5,20.4-5.3,30.6-1.7,9.4-3.7,18.8-5.3,28.2-2.4,14.1-6.1,28-8.7,42.1-.2,1.1,0,2.3-.4,3.3-1.4,3.5.5,5.4,3,7.2,2.8,2.1,5.6,4.2,8.5,6.2,4.6,3.1,8.2,7.1,12.2,10.8,4.9,4.7,3.7,11.6,2,15.6-.6,1.4-1.7,2.3-3.2,2.6-2.2.4-4.3,1-6.6,1-6.9,0-13.8,0-20.6.1-4.9.1-9.9.9-14.8.6-8.3-.5-16.6-.4-24.9-.9-4.1-.3-8.2-1.1-12.3-1.8-3.5-.7-5-2.2-5.3-5.8-.3-3.1-1.3-6.2-.2-9.5.6-1.8,1.3-3.6,2.2-5.3,2.9-5.4,5.2-11,8.5-16.1,2.1-3.2,2.6-6.9,2.7-10.5.2-6.6.8-13,1.9-19.5.1-.8,0-1.6,0-2.4,0-6.9.9-13.7,1.8-20.5.5-3.5.3-7,.9-10.5.8-4.7.8-9.5,1.3-14.3.5-4.9,1-9.8,1.5-14.7.2-1.6.2-3.2.3-4.8.1-1.9.1-3.8.6-5.7.7-2.7.3-5.3-.8-7.9-5.3-12.8-10.6-25.7-15.6-38.6-4.2-10.9-7.8-22-11.7-32.9-2.4-6.8-4.7-13.6-7.1-20.4-.6-1.7-1.3-3.3-1.9-4.9-.9-2.2-2.4-3.3-4.8-3.2-1,0-1.9.3-2.8.4.1-.9,0-1.9.3-2.8,1.2-4.5,2.1-9,2.8-13.5,1.6-10.5,3.5-21,5.3-31.5,2.3-13.6,4.6-27.3,7-40.9.9-4.8,1.5-9.8,3.7-14.3Z"/>
        <path class="cls-4" d="M1052.7,588.3c-2.1,4.5-2.8,9.4-3.7,14.3-2.4,13.6-4.7,27.3-7,40.9-1.8,10.5-3.8,21-5.3,31.5-.7,4.6-1.6,9.1-2.8,13.5-.2.9-.2,1.9-.3,2.8-2.5,3.7-4.9,7.4-7.6,10.9-5.1,6.7-11.2,12.5-18.1,17.4-1.7,1.2-3.5,2.1-4.8,3.8-1.5,0-2.7.9-3.9,1.6-5.4,3.4-11.4,5.8-17.3,8.1-10.3,4.1-20.9,6.7-31.9,8.3-4.2.6-8.5,1.3-12.8,1.3-2.9,0-5.7.6-8.6.7-7,.1-14-.9-20.9-1.5-7-.6-13.8-2.3-20.6-4.1-12-3.2-23.1-8.4-32.8-16.2-4.9-3.9-9.1-8.5-12.5-13.8-.4-.7-1-1.2-1.5-1.8-.2-2.9-1.3-5.4-3.3-7.5-1.2-7-2.8-13.9-2.8-21.1,0-1.6-.7-3.1-1-4.6-.4-4-.5-8-1.3-11.8-.5-2.7-.5-5.4-.9-8.1-.6-4.1-1.1-8.2-1.6-12.3-.4-3.5-.8-7-1.2-10.4-.9-7.1-1.8-14.2-2.7-21.3-.5-3.9-1.1-7.9-1.6-11.8-.5-4.3-1.7-8.4-1.5-12.8,2.2-2,5-2.8,7.7-3.6,7.8-2.2,15.6-4.4,23.5-6.5,1.1-.3,2.2-.4,3.3-.7-.3,1.7-.5,3.5-.8,5.2-1.8,9-1.8,18-.3,27.1,2.3,14.3,7.9,27.2,16.3,38.9.4.6.7,1.5,1.7,1.5,1,1.1,1.2,2.6,1.5,4,.8,4.4,2.1,8.7,3.3,13,2.4,8.6,5.4,17,9.6,25,1.2,2.3,2.5,4.4,4.2,6.4,6.6,7.8,15.1,11.5,25.2,11.7,8.5.1,16.9-.1,25.4,0,8.9.2,17-2.5,24.8-6.4,4.9-2.5,8.9-6.1,11.7-11,2.6-4.6,5-9.3,6.9-14.2,3.1-8.4,6-16.8,6.7-25.9,1.5-1.2,2.6-2.8,3.6-4.4,10.6-17.1,15.9-35.7,15.5-55.8,0-4.3,0-8.6,0-12.9,12.8,3.8,25.6,7.6,38.4,11.4.9.3,1.8.7,2.7,1Z"/>
        <path class="cls-12" d="M873.3,646.4c-1,0-1.2-.9-1.7-1.5-8.4-11.7-14-24.6-16.3-38.9-1.5-9-1.5-18.1.3-27.1.3-1.7.6-3.5.8-5.2.9-2.5,1.7-4.9,2.7-7.3.5-1.2.7-2.4.7-3.6,1.2-.7,1.6-1.9,2.1-3.1,6.7-13.4,16.8-23.4,30.3-29.9,2.6-1.2,5.2-2.5,7.8-3.6,1.9-.8,3.7-1.8,5.2-3.3.5,0,1,.1,1.4,0,4.6-1.5,9.5-.3,14-1.8,9,.4,18.1-1,27,.8.9.2,1.9,0,2.8,0,3.5,0,7,0,10.5,0,1.2,1.2,2.7,1.6,4.3,1.9,8.7,1.8,16.1,6,22.6,11.8,9.4,8.2,16.7,18,20.8,29.9,1.1,3.3,1.9,6.8,2.8,10.1,0,4.3,0,8.6,0,12.9.4,20.2-4.9,38.7-15.5,55.8-1,1.6-2.1,3.2-3.6,4.4-.1-4.3-.1-8.6.4-12.9.6-4.7,1.1-9.5,1-14.3,0-1.9-.4-3.5-1.7-4.8-4.5-5-8.5-10.4-14.6-13.6-.8-.4-1.6-1-2.3-1.7-1.5-1.6-3.2-1.8-5.2-1.8-6.5,0-13.1,0-19.6,0-6.4,0-12.8-.2-19.2-.4-10.8-.4-21.7-.9-32.5-1.4-2.2-.1-3.9.6-5.6,2.1-4.7,4.5-9.3,9.2-14.4,13.3-4.1,3.3-5.3,6.9-5.1,12,.3,7,.5,14-.5,21Z"/>
        <path class="cls-2" d="M682.3,778.4c3.8.1,7.6,1.1,11.3,1.8,9.4,1.6,18.9,3.3,28.3,4.8,6.3,1.1,12.5,2.6,18.9,3.2.9,0,1.8.5,2.8.8.3,5.9,1,11.7,1.8,17.6.6,4.4.8,8.9,1.2,13.3.5,5.4,1.1,10.8,1.7,16.1,0,.8.2,1.6.2,2.4.2,5.7,1,11.4,1.7,17.1.6,4.9.8,9.8,1.2,14.8.2,2.7,0,5.4.8,8.1.3.9.2,1.9.2,2.9.3,4.9.7,9.9,1,14.8.1,2,1,3.7,2,5.3,3.6,5.7,6.1,12,9.4,17.8,2.9,5.2,2.2,10.5.8,15.8-.4,1.7-1.8,2.6-3.4,3.1-2,.6-4,1.3-6,1.5-5.4.5-10.8,1.2-16.2,1.2-6.4,0-12.8.7-19.1.6-5.7-.1-11.5-.7-17.2-.7-5.3,0-10.5,0-15.8,0-2.1,0-4.1-.4-6.1-.9-1.5-.4-2.6-1.4-3.2-2.7-2.3-5.4-2.8-10.6,2-15.4,6.1-6.1,12.5-11.9,19.8-16.5,3.8-2.4,4.6-5.2,3.7-9.2-2.5-10.9-4.4-21.9-7-32.7-1.8-7.6-2.8-15.3-4.2-23-1-5.6-2-11.3-3.1-16.9-1.7-9.2-3.6-18.4-5.3-27.7-.6-3.4-.9-7-1.2-10.4-.2-2.2-1.2-4.3-.9-6.6Z"/>
        <path class="cls-13" d="M363.6,710.2c.6,3.5,1.5,6.9,1.8,10.4.4,5,1.6,9.7,2.6,14.6.9,4.2,1.4,8.5,2.2,12.7,1.2,6.6,2.1,13.2,4.2,19.6-4.2,2.4-8.5,4.4-13,6.2-5.2,2.1-10,1.9-15.1-.9-5.4-2.9-10.1-6.6-14.3-11.1-4.2-4.4-8.4-8.7-13.6-12-2.3-1.4-4.5-3-7-4.2-3.8-1.8-7.2-4.2-10.4-6.8-7.7-6.3-15-12.8-20.7-21.1-4-5.9-7-12.3-8.3-19.2-1.4-7.4-.8-14.6,3.8-21,3.9-5.4,9.2-8.7,15.6-10.4,4.8-1.3,9.5-.6,14.1,1,1.8.6,3.3.5,5-.4,5.8-3.1,11.9-5.6,18.3-7,3.9-.9,7.8-1.5,11.7-2.1,2.7-.4,5.3-1.3,7.7-2.5,2.6-1.3,5.2-2.4,7.7-3.8,5.4-3,11.3-4.4,17.2-5.8,3.7-.9,7.6-1.1,11.4-.8,3.8.2,7.4,1.9,10.8,3.8,3.3,1.9,6.3,4.3,8.7,7.3-.5,4.9-1,9.7-1,14.6,0,3.3,0,6.6-.4,9.9-.3,2.7-.5,5.3-.3,8-2.1,1.7-2.9,4-3.2,6.6-5.3,1-10.3,3.1-15.4,4.8-2.9,1-5.7,1.8-8.7,2.5-3.7.8-7.4,1.7-11.1,2.5-1.1-.2-2.3,0-3.2-.8-1.4-1.3-3.2-1.2-5-1.3-3.2,0-6,1.1-8.6,2.5-3,1.7-6.2,2.6-9.5,3.2-5.5.9-10.8,2.6-15.9,5.1-2.4,1.2-4.9,2.2-7.5,3.2-1.7.7-3.4.5-5.1-.4-1.9-1-3.5-2.4-4.3-4.3-1.5-3.5-2.7-7.2-2.8-11,0-3.7,0-7.3,0-11,0-1.6.3-3.1,1-4.6,1.4-2.9,3.1-5.5,5.4-7.8,2.7-2.7,1.5-6.9-2-8-.6-.2-1.3-.2-1.9,0-2.6.6-4.7,1.9-6.2,4.1-3.8,5.7-5.8,11.9-5.9,18.8,0,2.4,0,4.8,0,7.2-.2,6.4,1.8,12.2,4.5,17.9,1.5,3.2,4.2,5.8,7.3,7.4,4.7,2.5,9.7,2.9,14.7.7,2.6-1.2,5.2-2.4,7.9-3.5,2.3-1,4.6-2.3,7.1-2.8,6.8-1.3,13.4-2.7,19.5-6.2,1.6-.9,3.4-.5,5.1-.8,1.9-.4,2.7-2.9,4.9-2.8Z"/>
        <path class="cls-5" d="M902.5,509.6c-2.1-8.4-.2-15.9,5.5-22.2,8-8.6,18.2-12.4,29.8-11.2,17.4,1.8,27.2,16.6,26.2,31.6,0,.6-.4,1.2-.5,1.8-.9-.3-1.8-.8-2.7-.9-4.6-.2-9.1-1.6-13.8-1.1-.6,0-1.3,0-1.9-.2-2.3-1-4.7-.8-7.1-.7-6.7.2-13.3-.3-20,.7-5.1.8-10.4,1.3-15.5,2.1Z"/>
        <path class="cls-8" d="M402.3,689.1c-.2-2.7,0-5.3.3-8,.3-3.3.4-6.6.4-9.9,0-4.9.5-9.8,1-14.6,10.8-.1,21.6,0,32.5.6,14.1.8,28.3,1.5,42.5,1.2,4.4,0,8.9-.3,13.3.3-.1.7-.4,1.2-1.1,1.4-5.9,1.9-11.8,3.7-17.7,5.7-20.2,6.7-40.5,13.5-60.7,20.2-3.5,1.1-6.8,2.7-10.5,3.2Z"/>
        <path class="cls-9" d="M536.4,747.2c-.8-.5-1.7-.9-2.4-1.6-2.3-2.2-1.9-5.8.9-7.2,1.5-.8,3.2-1.4,4.9-2,7.9-2.9,15.9-5.7,23.8-8.6,11.2-4.1,22.4-8.3,33.6-12.4,7.6-2.8,15.3-5.4,22.9-8.3,10.5-3.9,20.9-7.8,31.3-11.7,5.4-2,10.8-3.9,16.2-5.7,3.1-1,6.2,1,6.7,4.2.3,1.6-.5,2.8-1.7,3.7-1,.7-2.2,1.3-3.4,1.8-6.7,2.5-13.5,4.9-20.2,7.3-12.4,4.6-24.8,9.2-37.2,13.7-7,2.6-14.1,5.1-21.1,7.7-7.6,2.8-15.2,5.7-22.8,8.5-8.2,3-16.5,6-24.7,8.9-1.2.4-2.5.7-3,2.1-1.3-.1-2.6-.2-3.9-.4Z"/>
        <path class="cls-9" d="M402.3,689.1c3.7-.5,7-2,10.5-3.2,20.3-6.7,40.5-13.5,60.7-20.2,5.9-1.9,11.8-3.8,17.7-5.7.7-.2,1-.8,1.1-1.4,1.9-.3,3.8-.1,5.6-.9,1.4-.6,2.8-.3,4,.7.5.4,1,.8,1.4,1.3,2.1,2.6,1.2,6.2-2,7.3-9.4,3.2-18.7,6.3-28.1,9.4-13.9,4.6-27.8,9.3-41.8,13.8-7.9,2.6-15.8,4.9-23.7,7.7-3.5,1.2-6.2.6-8.5-2.2.2-2.6,1-4.9,3.2-6.6Z"/>
        <path class="cls-1" d="M902.5,509.6c5.2-.9,10.4-1.4,15.5-2.1,6.7-1,13.4-.5,20-.7,2.4,0,4.8-.3,7.1.7.6.2,1.3.2,1.9.2,4.7-.5,9.2.9,13.8,1.1.9,0,1.8.6,2.7.9.2,1.9-.2,3.7-.8,5.6-.7,2.3-1.5,4.5-1.6,6.9-3.5,0-7,0-10.5,0-1,0-1.9.1-2.8,0-9-1.8-18-.4-27-.8-4.6,1.5-9.5.3-14,1.8-.4.1-.9,0-1.4,0,.3-1.3.1-2.5-.4-3.7-1.3-3.1-2.3-6.3-2.5-9.7Z"/>
        <path class="cls-11" d="M822.1,584.5c-.1,4.3,1.1,8.5,1.5,12.8.4,3.9,1.1,7.9,1.6,11.8.9,7.1,1.8,14.2,2.7,21.3.4,3.5.8,7,1.2,10.4.5,4.1,1,8.2,1.6,12.3.4,2.7.4,5.4.9,8.1.7,3.9.9,7.9,1.3,11.8-1.7.5-3.3,1-5,1.6-19.8,7.4-39.6,14.9-59.4,22.3-1.5.6-3,1-4.2,2.2-2.7.5-5.3.7-8,.6-1.7,0-3.5,0-5.2.6-1.9.6-3.5,1.6-3.9,3.7-7.6,1.3-15.3,1.9-22.9,1-6.5-.7-13.1-.3-19.6-1.4-.8-.1-1.6,0-2.4-.1-8-.4-15.9-.8-23.9-1.3-.8,0-1.6,0-2.4-.3-.8-.2-1.4-.9-1.1-1.8.6-2.2,1.1-4.4,2.4-6.2,1.6-2.2,3.2-4.4,5.4-6.1,6.5-4.9,12.9-10,19.3-15,16.4-12.7,32.8-25.4,49.3-38.1,13.3-10.2,26.6-20.4,39.9-30.7,1.6-1.3,3.3-2.5,4.9-3.9,2.8-2.4,6-4.2,9.2-6.1,3.5-2,6.7-4.3,10-6.5,2.1-1.4,4.3-2.8,6.8-3.3Z"/>
        <path class="cls-6" d="M363.6,710.2c-2.2-.1-3,2.4-4.9,2.8-1.7.4-3.5,0-5.1.8-6,3.4-12.7,4.9-19.5,6.2-2.5.5-4.8,1.8-7.1,2.8-2.6,1.1-5.3,2.3-7.9,3.5-5,2.3-10,1.8-14.7-.7-3.1-1.6-5.7-4.2-7.3-7.4-2.7-5.6-4.7-11.5-4.5-17.9,0-2.4,0-4.8,0-7.2.1-6.9,2.1-13.1,5.9-18.8,1.5-2.3,3.6-3.6,6.2-4.1.6-.1,1.3,0,1.9,0,3.5,1.1,4.7,5.3,2,8-2.3,2.3-4,4.9-5.4,7.8-.7,1.5-1,3-1,4.6,0,3.7,0,7.4,0,11,0,3.9,1.3,7.5,2.8,11,.8,2,2.4,3.3,4.3,4.3,1.7.9,3.4,1.1,5.1.4,2.5-1,5-2,7.5-3.2,5-2.5,10.3-4.1,15.9-5.1,3.3-.6,6.5-1.5,9.5-3.2,2.7-1.5,5.5-2.6,8.6-2.5,1.8,0,3.5,0,5,1.3.9.8,2.1.6,3.2.8-.7,1.5-.2,3.1-.3,4.6Z"/>
        <path class="cls-10" d="M747.2,704.1c.5-2.1,2-3.1,3.9-3.7,1.7-.5,3.4-.6,5.2-.6,2.7,0,5.4-.1,8-.6,1.5.5,3.1.4,4.7.4,18.4,0,36.9,0,55.3,0,1.1,0,2.3.2,3.3-.1,3-1,6-.7,9-.7,2,2.1,3.1,4.6,3.3,7.5-4.4,3-4.4,3-10.1,3-3.3,0-6.7-.3-9.9.7-1,.3-2.2.1-3.3.1-20.7,0-41.4,0-62.1,0-.2,0-.3,0-.5,0-5.6,0-6.1-.5-6.9-6.1Z"/>
        <path class="cls-13" d="M873.3,646.4c1-7,.8-14,.5-21-.3-5,1-8.7,5.1-12,5.1-4.1,9.7-8.8,14.4-13.3,1.6-1.5,3.3-2.2,5.6-2.1,10.8.5,21.7,1,32.5,1.4,6.4.2,12.8.3,19.2.4,6.5,0,13.1,0,19.6,0,2,0,3.8.2,5.2,1.8.6.7,1.5,1.3,2.3,1.7,6.1,3.2,10.1,8.7,14.6,13.6,1.2,1.4,1.6,3,1.7,4.8.1,4.8-.4,9.6-1,14.3-.5,4.3-.6,8.6-.4,12.9-.7,9-3.5,17.5-6.7,25.9-1.9,4.9-4.3,9.6-6.9,14.2-2.8,4.9-6.8,8.5-11.7,11-7.8,3.9-15.9,6.6-24.8,6.4-8.5-.2-16.9,0-25.4,0-10.1-.2-18.6-3.9-25.2-11.7-1.7-2-3-4.1-4.2-6.4-4.2-7.9-7.2-16.4-9.6-25-1.2-4.3-2.5-8.6-3.3-13-.2-1.4-.5-2.9-1.5-4Z"/>
        <path class="cls-7" d="M836.7,698.7c-3,0-6-.2-9,.7-1,.3-2.2.1-3.3.1-18.4,0-36.9,0-55.3,0-1.6,0-3.2.1-4.7-.4,1.1-1.2,2.7-1.7,4.2-2.2,19.8-7.5,39.6-14.9,59.4-22.3,1.6-.6,3.3-1.1,5-1.6.4,1.5,1,3,1,4.6,0,7.1,1.6,14.1,2.8,21.1Z"/>
      </g>
    </g>
  </g>
</svg>