<svg width="500" height="500" viewBox="0 0 500 500" fill="none" xmlns="http://www.w3.org/2000/svg">
<path d="M79.3057 349.501C80.2935 348.937 81.2813 348.443 82.1985 347.808C82.9394 347.279 83.7155 346.82 84.5269 346.432C91.4062 343.116 98.5677 340.541 105.906 338.565C109.927 337.471 113.984 336.519 118.112 335.778C122.204 335.037 126.332 334.438 130.495 334.049C134.869 333.661 139.279 333.379 143.653 333.591C148.098 333.767 152.544 334.191 156.883 335.355C157.447 335.496 157.976 335.531 158.541 335.425C163.55 334.508 168.595 333.908 173.605 333.168C175.933 332.815 178.261 332.25 180.555 331.686C192.69 328.899 204.826 326.077 216.962 323.29C219.361 322.725 221.795 322.161 224.194 321.631C224.97 321.455 225.288 321.067 225.499 320.326C228.039 312.071 230.579 303.851 233.155 295.631C235.942 286.635 238.764 277.675 241.551 268.679C244.091 260.459 246.631 252.204 249.171 243.949C250.476 239.68 251.852 235.446 253.157 231.213C253.722 229.379 254.039 227.474 254.674 225.674C255.38 223.699 255.345 221.794 255.062 219.712C254.569 216.185 254.463 212.657 254.745 209.094C255.168 204.084 255.944 199.11 256.932 194.206C257.708 190.467 258.484 186.692 259.543 183.023C261.166 177.519 262.506 171.91 264.235 166.442C265.364 162.844 266.493 159.245 267.48 155.576C268.151 153.072 268.75 150.532 269.456 148.062C270.267 145.063 271.114 142.1 272.172 139.172C272.455 139.207 272.737 139.242 273.019 139.278C278.487 140.618 283.92 141.994 289.388 143.37C290.623 143.688 291.893 143.934 293.163 144.217C292.881 147.004 292.105 149.755 291.964 152.578C291.787 155.964 291.399 159.316 291.082 162.703C290.835 165.631 290.588 168.559 290.306 171.452C289.988 174.874 289.67 178.296 289.388 181.718C289.141 184.646 288.859 187.574 288.612 190.467C288.33 193.783 288.012 197.099 287.695 200.415C287.413 203.378 287.201 206.377 286.919 209.341C286.495 213.715 286.072 218.09 286.072 222.499C286.072 223.134 286.072 223.734 285.966 224.369C285.613 227.579 285.296 230.754 284.873 233.965C284.061 240.174 283.179 246.383 282.368 252.556C281.627 258.095 280.886 263.634 280.181 269.173C279.51 274.535 278.875 279.932 278.205 285.295C277.958 287.27 277.817 289.246 277.429 291.151C276.476 295.914 275.771 300.711 274.536 305.403C273.972 307.52 273.548 309.672 273.196 311.859C272.984 313.2 272.561 314.47 272.419 315.846C271.82 316.693 271.784 317.751 271.361 318.668C270.797 319.868 270.797 321.067 270.797 322.302C270.902 327.135 270.867 331.968 271.008 336.801C271.22 344.21 271.114 351.653 271.185 359.062C271.185 360.085 271.079 361.073 270.726 362.025C269.668 362.237 268.609 362.307 267.586 362.695C267.163 362.837 266.704 362.837 266.246 362.837C262.365 362.872 258.449 362.978 254.569 363.295C252.558 363.472 250.547 363.789 248.536 364.071C247.936 364.177 247.301 364.248 246.701 364.248C243.138 364.248 239.611 364.248 236.047 364.318C230.756 364.389 225.464 364.354 220.172 364.53C215.057 364.671 209.906 364.636 204.791 364.671C201.192 364.671 197.559 364.777 193.96 364.777C192.514 364.777 191.032 364.953 189.586 364.777C188.598 364.671 187.575 364.777 186.552 364.812C180.696 364.918 174.839 364.989 168.948 364.953C166.796 364.953 164.679 365.341 162.563 365.482C162.21 365.482 161.892 365.624 161.54 365.588C159.317 365.553 157.13 365.8 154.942 366.012C151.238 366.329 147.499 366.435 143.83 366.894C142.771 367.035 141.678 366.964 140.619 367.07C136.845 367.352 133.105 367.67 129.33 367.952C123.933 368.375 118.535 368.834 113.138 369.222C110.88 369.398 108.622 369.504 106.399 369.681C103.965 369.857 101.566 370.069 99.1674 370.245C97.1566 370.386 95.1104 370.527 93.0996 370.704C90.6301 370.88 88.1606 371.056 85.6911 371.233C85.2325 371.233 84.7739 371.339 84.3505 371.339C83.0805 371.339 81.881 371.621 80.7521 372.185C80.5052 372.044 80.2582 371.938 80.1524 371.621C79.976 370.915 79.9055 370.174 79.9055 369.434C79.7643 364.706 79.6232 359.979 79.4468 355.216C79.4468 354.864 79.4116 354.546 79.3763 354.193C79.1646 352.606 79.1646 351.054 79.2704 349.466L79.3057 349.501Z" fill="#696D65"/>
<path d="M364.496 375.114C362.45 374.832 360.368 374.549 358.322 374.267C357.087 374.091 355.888 373.914 354.653 373.738C352.748 373.456 350.878 373.174 348.973 372.891C347.809 372.715 346.645 372.574 345.481 372.433C344.634 372.327 343.823 372.221 342.976 372.115C339.307 371.586 335.638 370.951 331.969 370.528C328.9 370.21 325.866 369.611 322.762 369.293C320.01 369.011 317.329 368.482 314.577 368.058C312.919 367.811 311.225 367.635 309.567 367.317C307.204 366.894 304.84 366.365 302.476 365.871C301.947 365.765 301.348 365.695 300.889 365.307C300.889 364.813 300.995 364.283 300.889 363.79C300.536 361.496 300.607 359.168 300.642 356.875C300.713 348.479 300.536 340.118 300.854 331.722C301.101 325.195 300.96 318.669 300.995 312.142C301.877 312.001 302.794 311.93 303.641 311.683C306.428 310.943 309.215 310.378 312.037 309.955C315.036 309.461 317.999 308.932 320.998 308.438C324.702 307.838 328.406 307.238 332.11 306.639C334.439 306.251 336.732 305.827 339.06 305.404C343.258 304.663 347.456 303.957 351.654 303.252C353.56 302.793 355.429 303.005 357.299 303.464C357.581 303.534 357.828 303.605 358.11 303.64C360.968 304.169 363.826 304.698 366.683 305.263C369.364 305.757 372.081 306.251 374.762 306.78C376.526 307.133 378.254 307.485 380.018 307.873C380.724 308.473 380.83 309.355 381.041 310.131C381.782 312.953 382.488 315.776 383.193 318.598C383.476 319.692 383.758 320.785 384.005 321.879C384.111 322.267 384.111 322.655 384.181 323.043C383.017 323.713 381.888 324.384 380.759 325.16C375.291 328.899 369.752 332.604 364.249 336.308C363.931 336.519 363.579 336.731 363.296 336.978C362.944 337.225 362.838 337.578 362.838 338.001C362.838 338.742 363.155 339.306 363.896 339.553C364.284 339.694 364.637 339.8 365.025 339.941C372.892 342.587 380.794 345.233 388.697 347.879C389.05 347.985 389.473 348.02 389.861 348.091C390.284 348.444 390.602 348.867 390.743 349.467C390.884 350.102 391.131 350.737 391.343 351.372C392.295 353.912 392.965 356.558 393.742 359.168C390.073 361.003 386.368 362.837 382.735 364.742C377.055 367.705 371.128 370.21 365.731 373.738C365.131 374.126 364.566 374.444 364.461 375.184L364.496 375.114Z" fill="#8989DE"/>
<path d="M380.089 307.839C378.325 307.487 376.596 307.098 374.832 306.746C372.151 306.216 369.435 305.723 366.754 305.229C363.896 304.7 361.038 304.17 358.181 303.606C357.899 303.571 357.652 303.465 357.37 303.429C355.5 302.971 353.63 302.759 351.725 303.218C351.302 301.348 350.843 299.514 350.42 297.644C349.291 292.528 348.197 287.448 346.998 282.333C346.363 279.546 345.728 276.759 345.057 273.972C343.928 269.386 343.047 264.764 342.023 260.143C341.036 255.698 339.977 251.288 338.954 246.843C337.896 242.08 336.873 237.283 335.814 232.52C335.462 230.862 335.144 229.204 334.65 227.616C333.768 224.759 332.781 221.972 331.863 219.114C330.77 215.728 329.747 212.341 328.688 208.954C327.136 204.086 325.584 199.182 323.996 194.314C322.303 189.022 320.61 183.695 318.916 178.403C317.717 174.664 316.517 170.924 315.282 167.149C314.542 164.786 313.801 162.422 313.025 160.058C312.884 159.564 312.742 159.106 312.742 158.577C312.813 155.649 312.848 152.72 312.495 149.792C312.319 148.275 312.107 146.794 311.966 145.277C312.919 145.03 313.66 144.501 313.73 143.513C313.836 142.172 313.73 140.832 313.73 139.491C312.989 138.009 313.801 137.057 314.859 136.175C315.036 136.034 315.212 135.893 315.388 135.752C316.658 134.905 317.823 133.952 318.846 132.859C319.234 132.435 319.622 132.083 320.151 131.836C320.504 131.659 320.786 131.765 321.068 132.012C321.491 132.4 321.703 132.929 321.88 133.458C322.444 135.046 323.044 136.598 323.573 138.186C323.855 139.068 324.42 139.491 325.302 139.42C325.16 140.232 325.443 140.973 325.76 141.714C327.101 144.818 328.512 147.887 329.817 150.992C330.699 153.073 331.475 155.19 332.251 157.307C333.274 160.094 334.368 162.881 335.25 165.738C336.097 168.596 337.226 171.383 338.037 174.24C338.884 177.239 340.154 180.061 341.247 182.954C341.847 184.577 342.447 186.235 342.976 187.893C344.352 192.126 345.657 196.395 346.998 200.628C349.15 207.437 351.337 214.281 353.454 221.09C355.112 226.311 356.699 231.532 358.357 236.718C360.192 242.645 362.062 248.536 363.931 254.463C365.589 259.72 367.212 265.011 368.87 270.268C370.034 274.043 371.234 277.782 372.398 281.557C373.104 283.885 373.633 286.249 374.338 288.542C375.044 290.87 375.855 293.128 376.667 295.421C377.725 298.385 378.783 301.383 379.489 304.453C379.736 305.546 379.807 306.675 379.983 307.769L380.089 307.839Z" fill="#FFB78B"/>
<path d="M364.496 375.114C364.602 374.373 365.201 374.02 365.766 373.667C371.163 370.175 377.09 367.635 382.77 364.671C386.404 362.766 390.108 360.967 393.777 359.097C396.74 359.239 399.739 359.168 402.702 359.415C406.301 359.697 409.899 359.45 413.497 359.768C417.131 360.05 420.8 359.838 424.469 360.121C428.067 360.403 431.666 360.085 435.264 360.473C436.111 360.579 437.028 360.72 437.91 360.332C437.804 359.38 437.099 358.815 436.57 358.11C436.287 357.757 436.04 357.404 435.758 357.016C434.1 354.829 432.266 352.747 430.819 350.384C428.985 347.42 426.797 344.669 425.104 341.635C424.54 340.612 423.905 339.589 423.481 338.495C423.375 338.177 423.234 337.86 423.34 337.507C423.552 336.766 423.411 335.92 423.728 335.179C423.834 335.002 423.799 334.72 423.799 334.508C423.799 334.226 423.587 334.085 423.34 334.156C423.023 334.226 422.67 334.332 422.423 334.544C421.682 335.038 420.835 335.39 420.024 335.743C415.544 337.719 410.852 338.812 405.913 338.565C404.784 338.495 403.655 338.601 402.596 338.989C402.42 338.777 402.314 338.46 402.103 338.319C400.55 337.295 399.386 335.814 398.046 334.579C397.375 333.979 396.846 333.274 396.352 332.498C395.294 330.875 394.2 329.252 393.107 327.594C392.86 327.206 392.577 326.853 392.472 326.43C392.26 325.654 391.907 324.948 391.519 324.278C391.096 323.537 391.06 322.69 390.708 321.914C390.32 321.067 390.108 320.115 390.002 319.162C390.355 318.527 390.743 317.892 390.884 317.152C391.202 315.529 392.013 314.118 392.895 312.706C394.835 309.602 397.164 306.78 399.774 304.169C400.974 302.97 402.138 301.77 403.302 300.571C403.408 300.465 403.478 300.359 403.584 300.218H403.549C404.149 300.218 404.572 299.795 405.031 299.512C406.83 298.348 408.594 297.149 410.358 295.949C411.157 295.432 412.039 295.279 413.004 295.491C414.909 295.949 416.849 296.373 418.754 296.866C421.4 297.572 420.8 296.937 422.352 299.477C426.233 305.757 429.972 312.107 434.135 318.21C434.664 318.986 434.806 319.727 434.664 320.574C434.382 322.408 434.1 324.242 433.783 326.077C433.677 326.606 433.783 327.241 433.359 327.664C432.336 328.017 431.525 328.652 430.713 329.358C430.643 329.428 430.643 329.57 430.643 329.675C430.537 329.675 430.431 329.675 430.325 329.675C430.29 329.675 430.184 329.711 430.184 329.746C430.184 329.887 430.29 329.922 430.396 329.852C430.466 329.781 430.537 329.711 430.607 329.64C431.666 329.499 432.618 329.076 433.359 328.264C434.1 327.911 434.876 327.523 435.617 327.171C439.639 325.089 443.696 323.008 447.717 320.962C448.952 320.327 449.376 320.432 450.363 321.455C450.646 321.738 450.787 322.126 451.245 322.196C451.386 323.008 451.845 323.643 452.233 324.313C452.48 324.736 452.762 325.195 453.009 325.618C453.538 326.571 453.362 327.453 452.727 328.299C452.515 328.582 452.268 328.793 452.021 329.04C450.469 330.593 448.917 332.18 447.329 333.662C445.742 335.179 444.013 336.519 442.285 337.86C441.897 338.177 441.473 338.495 441.156 338.848C440.238 339.765 440.133 340.682 440.873 341.741C441.72 342.975 442.673 344.21 443.59 345.409C445.213 347.561 446.871 349.713 448.529 351.83C450.716 354.688 452.939 357.51 455.126 360.367C457.384 363.296 459.712 366.224 461.899 369.222C462.711 370.316 462.958 371.657 462.534 373.068C461.97 374.867 460.735 376.031 459.218 376.948C457.243 378.113 455.161 378.853 452.798 378.712C451.845 378.677 450.893 378.712 449.94 378.924C449.305 379.065 448.599 378.994 447.929 378.994C444.93 378.994 441.932 378.889 438.968 379.065C435.158 379.277 431.313 379.171 427.503 379.453C424.293 379.665 421.082 379.735 417.872 379.629C415.861 379.594 413.85 379.277 411.839 379.1C411.663 379.1 411.487 379.065 411.346 379.065C409.052 378.924 406.724 378.924 404.431 378.642C401.961 378.324 399.492 378.536 397.023 378.077C396.952 378.077 396.917 378.077 396.846 378.077C394.553 377.936 392.225 377.83 389.932 377.654C387.85 377.513 385.804 377.301 383.723 377.125C383.546 377.125 383.405 377.089 383.229 377.054C380.865 376.913 378.501 376.772 376.138 376.666C374.621 376.596 373.104 376.384 371.622 376.137C371.128 376.066 370.599 376.031 370.105 375.996C368.765 375.855 367.424 375.784 366.083 375.572C365.554 375.502 364.955 375.431 364.531 375.008L364.496 375.114Z" fill="#FFB78A"/>
<path d="M300.995 312.142C300.995 318.668 301.101 325.23 300.854 331.721C300.536 340.117 300.713 348.478 300.642 356.875C300.642 359.168 300.536 361.496 300.889 363.789C300.96 364.283 300.889 364.812 300.889 365.306C299.478 365.024 298.032 364.671 296.62 364.459C294.116 364.071 291.681 363.366 289.177 363.189C287.448 363.048 285.719 362.766 284.026 362.449C283.285 362.308 282.58 362.272 281.839 362.237C279.652 362.237 277.464 362.202 275.242 362.166C274.783 362.166 274.324 362.202 273.901 362.096C273.231 361.955 272.596 361.919 271.926 362.096C271.537 362.202 271.149 362.166 270.797 361.955C271.149 361.002 271.255 360.014 271.255 358.991C271.185 351.583 271.255 344.139 271.079 336.731C270.938 331.898 270.973 327.064 270.867 322.231C270.867 320.997 270.867 319.797 271.432 318.598C271.855 317.716 271.89 316.622 272.49 315.775C273.16 315.67 273.831 315.564 274.501 315.493C276.512 315.211 278.523 315.07 280.498 314.646C282.721 314.188 284.943 314.117 287.201 313.835C288.718 313.659 290.235 313.482 291.717 313.341C293.763 313.129 295.844 312.918 297.89 312.494C298.913 312.283 299.972 311.93 301.065 312.106L300.995 312.142Z" fill="#FFB78A"/>
<path d="M433.359 327.736C433.818 327.312 433.712 326.677 433.783 326.148C434.1 324.314 434.347 322.479 434.665 320.645C434.806 319.763 434.665 319.057 434.135 318.281C429.973 312.178 426.233 305.828 422.352 299.548C420.8 297.008 421.435 297.643 418.754 296.938C416.849 296.444 414.944 296.02 413.004 295.562C412.039 295.327 411.157 295.48 410.358 296.02C408.559 297.185 406.795 298.384 405.031 299.584C404.572 299.901 404.149 300.289 403.549 300.289C406.689 291.575 412.298 285.261 421.188 282.262C427.574 280.11 433.747 280.78 439.568 284.273C440.38 284.767 441.191 285.261 442.002 285.79C442.567 286.178 443.167 286.425 443.872 286.46C443.872 286.813 444.049 287.095 444.296 287.342C445.001 288.048 445.636 288.824 446.271 289.6C448.458 292.316 450.187 295.315 451.986 298.278C452.692 299.407 453.186 300.677 454.068 301.7C453.997 302.159 454.068 302.582 454.244 303.006C455.902 307.063 455.585 311.155 454.491 315.282C453.821 317.787 452.727 320.151 451.245 322.303C450.822 322.232 450.646 321.844 450.363 321.562C449.376 320.539 448.952 320.433 447.718 321.068C443.696 323.114 439.639 325.196 435.617 327.277C434.876 327.665 434.1 328.018 433.359 328.371C433.359 328.159 433.359 327.947 433.359 327.736Z" fill="#894100"/>
<path d="M79.3057 349.502C79.1999 351.089 79.1999 352.642 79.4116 354.229C79.4469 354.547 79.4821 354.9 79.4821 355.252C79.6232 359.98 79.7996 364.707 79.9407 369.469C79.9407 370.21 80.0113 370.916 80.1877 371.657C80.2583 371.974 80.5405 372.08 80.7874 372.221C78.9882 372.821 77.1538 373.421 75.3546 374.02C72.744 374.902 70.0628 375.643 67.3464 376.031C63.6069 376.56 59.9379 377.337 56.1984 377.901C53.3056 378.324 50.4481 378.959 47.5552 379.418C44.9799 379.841 42.5104 379.524 40.2526 378.077C38.2065 376.737 37.0776 374.796 36.5484 372.433C35.9134 369.716 36.7953 367.317 38.3123 365.13C40.1115 362.59 42.581 360.826 45.2269 359.309C47.7669 357.863 50.4833 356.769 53.3056 355.852C56.5159 354.794 59.7263 353.771 62.866 352.465C64.7005 351.689 66.4644 350.842 68.1578 349.784C70.8742 348.056 73.767 347.526 76.8715 348.479C77.7182 348.726 78.6354 348.832 79.3057 349.537V349.502Z" fill="#FFB78B"/>
<path d="M293.198 144.217C291.928 143.935 290.694 143.688 289.424 143.371C283.955 142.03 278.523 140.654 273.054 139.278C272.772 139.208 272.49 139.208 272.208 139.173C272.596 137.232 273.443 135.433 274.113 133.599C275.348 130.212 277.147 127.072 279.122 124.073C280.463 122.027 282.544 120.863 285.014 120.546C285.684 120.475 286.354 120.475 287.025 120.299C287.448 120.193 287.942 120.158 288.365 120.228C290.129 120.51 291.928 120.722 293.657 121.251C296.409 122.098 299.196 122.698 302.124 122.521C302.23 122.521 302.335 122.521 302.477 122.521C305.828 122.098 309.038 122.945 312.249 123.685C313.836 124.038 315.388 124.603 316.905 125.202C318.493 125.837 319.869 126.79 321.245 127.778C321.421 127.919 321.527 128.13 321.668 128.307C320.821 128.307 319.975 128.307 319.269 128.871C318.422 129.612 317.47 130.177 316.694 131.023C316.165 131.623 315.565 132.117 314.93 132.54C313.695 133.387 312.566 134.41 311.508 135.504C311.014 136.033 310.767 136.562 310.767 137.303C310.802 138.996 310.838 140.654 310.767 142.348C310.732 143.406 310.943 144.359 311.473 145.24C308.051 145.417 304.664 144.782 301.242 144.817C301.171 144.817 301.136 144.817 301.065 144.817C298.455 144.605 295.809 144.429 293.198 144.217Z" fill="#FFB78A"/>
<path d="M389.896 348.057C389.508 347.986 389.12 347.951 388.732 347.845C380.83 345.199 372.963 342.553 365.06 339.907C364.672 339.766 364.319 339.66 363.931 339.519C363.191 339.272 362.908 338.708 362.873 337.967C362.873 337.544 362.979 337.191 363.332 336.944C363.649 336.697 363.967 336.485 364.284 336.274C369.788 332.569 375.291 328.865 380.794 325.126C381.888 324.385 383.052 323.714 384.216 323.009C384.993 322.515 385.804 322.056 386.58 321.562C387.074 324.314 388.309 326.784 389.508 329.253C390.355 331.017 391.519 332.64 392.683 334.192C394.306 336.415 396.246 338.39 398.434 340.048C398.751 340.295 399.033 340.578 399.139 340.966C398.998 341.107 398.857 341.318 398.681 341.424C396.352 342.835 393.989 344.246 391.942 346.046C391.237 346.681 390.461 347.245 389.896 348.021V348.057Z" fill="#FFB68A"/>
<path d="M446.835 283.214C447.047 282.649 447.541 282.332 448 282.049C450.222 280.709 452.551 280.18 455.126 280.92C458.23 281.873 460.7 283.672 462.287 286.494C464.192 289.846 464.157 293.268 462.076 296.584C461.017 298.242 459.606 299.477 457.772 300.218C457.842 299.512 457.595 298.912 457.278 298.277C455.726 295.067 453.856 292.068 451.81 289.176C450.575 287.447 449.305 285.683 447.682 284.272C447.329 283.99 447.012 283.672 446.835 283.214Z" fill="#894200"/>
<path d="M399.175 340.964C399.033 340.576 398.751 340.294 398.469 340.047C396.246 338.389 394.341 336.413 392.719 334.191C391.554 332.603 390.39 330.98 389.544 329.252C388.344 326.782 387.145 324.313 386.615 321.561C387.639 320.644 388.767 319.832 390.002 319.162C390.108 320.115 390.284 321.032 390.708 321.914C391.061 322.69 391.096 323.537 391.519 324.277C391.907 324.948 392.26 325.653 392.472 326.429C392.578 326.853 392.86 327.241 393.107 327.594C394.165 329.216 395.259 330.839 396.352 332.497C396.846 333.238 397.411 333.944 398.046 334.579C399.386 335.849 400.55 337.295 402.103 338.318C402.314 338.459 402.42 338.777 402.597 338.989C401.538 339.8 400.409 340.505 399.175 340.999V340.964Z" fill="#E7A47C"/>
<path d="M311.473 145.241C310.943 144.359 310.732 143.406 310.767 142.348C310.837 140.655 310.802 138.997 310.767 137.303C310.767 136.562 311.014 136.033 311.508 135.504C312.566 134.411 313.695 133.387 314.93 132.541C315.6 132.082 316.2 131.588 316.694 131.024C317.435 130.177 318.422 129.577 319.269 128.872C319.975 128.272 320.821 128.272 321.668 128.307C324.173 130.001 325.584 132.329 326.042 135.328C326.113 135.716 326.078 136.104 326.219 136.492C326.607 137.691 326.36 138.679 325.407 139.526C324.49 139.561 323.961 139.138 323.679 138.291C323.15 136.704 322.55 135.116 321.985 133.564C321.809 133.035 321.597 132.505 321.174 132.117C320.892 131.87 320.645 131.8 320.257 131.941C319.728 132.188 319.304 132.541 318.951 132.964C317.928 134.093 316.729 135.01 315.494 135.857C315.318 135.998 315.141 136.139 314.965 136.28C313.907 137.162 313.095 138.115 313.836 139.596C313.836 140.937 313.942 142.278 313.836 143.618C313.766 144.606 313.025 145.135 312.072 145.382C311.896 145.382 311.684 145.347 311.508 145.312L311.473 145.241Z" fill="#E7A47C"/>
<path d="M446.836 283.215C446.977 283.673 447.329 283.956 447.682 284.273C449.305 285.684 450.575 287.448 451.81 289.177C453.856 292.07 455.726 295.068 457.278 298.279C457.56 298.914 457.842 299.513 457.772 300.219C457.313 300.642 456.678 300.748 456.114 300.96C455.443 301.207 454.773 301.454 454.103 301.701C453.221 300.678 452.727 299.408 452.021 298.279C450.187 295.351 448.494 292.317 446.306 289.6C445.671 288.824 445.036 288.048 444.331 287.342C444.084 287.095 443.907 286.813 443.907 286.46C444.296 286.214 444.507 285.825 444.789 285.508C445.424 284.697 445.989 283.815 446.906 283.25L446.836 283.215Z" fill="#62350F"/>
<path d="M403.549 300.254C403.443 300.36 403.373 300.466 403.267 300.607C403.267 300.43 403.337 300.289 403.549 300.254Z" fill="#894100"/>
<path d="M433.359 327.734C433.359 327.946 433.359 328.158 433.359 328.369C432.618 329.181 431.666 329.604 430.607 329.745C430.607 329.675 430.607 329.498 430.678 329.463C431.454 328.757 432.301 328.087 433.324 327.77L433.359 327.734Z" fill="#B8703C"/>
<path d="M430.643 329.711C430.572 329.781 430.537 329.887 430.431 329.923C430.325 329.993 430.219 329.923 430.219 329.817C430.219 329.817 430.29 329.746 430.361 329.746C430.466 329.746 430.572 329.746 430.678 329.746L430.643 329.711Z" fill="#B8703C"/>
</svg>
