<?xml version="1.0" encoding="UTF-8"?>
<svg width="500" height="500" viewBox="0 0 500 500" version="1.1" xmlns="http://www.w3.org/2000/svg">
  <g opacity=".5">
    <path fill="#6a6d66" d="M 270 294.6 c -3.8 .5 -7.6 .9 -11.4 1.6 -2.5 .4 -4.4 .2 -5.1 -2.8 -.2 -1.1 -.8 -2.3 -1.4 -3.3 -3.8 -6.2 -4.7 -11.9 1.4 -17.4 1.9 -1.7 .8 -4.6 .7 -6.9 -.4 -9.6 -1 -19.3 -1.5 -28.9 0 -.9 0 -1.9 -.7 -2.6 -1.1 0 -2.1 0 -3.2 -.1 -6.8 -1.1 -12 3.5 -18.1 5.1 -.1 1.1 -.2 2.1 -.3 3.2 -1.4 20.5 -.5 41 2.6 61.3 2.2 14.2 2.6 28.7 7.1 42.6 3.1 9.7 4.1 19.5 4.2 29.7 .2 14.6 .8 29.1 1.3 43.7 7.1 -.3 14.2 -1 21.1 -2.5 .6 -11.1 .9 -22.3 2 -33.3 1.5 -15.4 0 -30.4 -4 -45.2 -.5 -2 -1.1 -4 -.8 -6.2 2 -12.5 3.9 -25.1 5.8 -37.7 h 0 l .3 -.3 h 0 Z"/>
    <path fill="#f7bb92" d="M 270 294.6 c .7 -1.2 .4 -2.6 .4 -3.9 0 -12.7 -.4 -25.4 -.6 -38.1 -.4 -26.4 -.5 -52.7 -.2 -79.1 .1 -10.2 -2.5 -18.2 -12.2 -22.8 -6.3 -.1 -12.7 -.6 -17.6 4.6 -2.6 3.3 -6.5 5.4 -8.5 9.3 1.3 8 5.4 14.6 11.7 19.4 2.9 2.2 4.3 4.6 4.8 8 .8 5.9 1.7 11.7 2.6 17.5 .7 .5 .9 1.3 .8 2.1 -.5 7.5 1.2 15 .8 22.5 .7 .8 .6 1.7 .7 2.6 .5 9.6 1.1 19.3 1.5 28.9 0 2.3 1.2 5.1 -.7 6.9 -6.1 5.5 -5.2 11.3 -1.4 17.4 .6 1 1.1 2.1 1.4 3.3 .6 3 2.5 3.2 5.1 2.8 3.8 -.6 7.6 -1.1 11.4 -1.6 h 0 v .2 h 0 Z"/>
    <path fill="#8a8ad9" d="M 217.8 178.6 c -2.6 4.2 -2.4 9.2 .8 13 4.6 5.4 5.8 11.6 6.5 18.2 0 .7 .5 1.5 .7 2.2 7.2 -.6 14.4 -1.2 21.5 -1.8 .9 -1 2.1 -.6 3.2 -.7 -.9 -5.8 -1.8 -11.7 -2.6 -17.5 -.5 -3.4 -1.9 -5.8 -4.8 -8 -6.3 -4.9 -10.4 -11.4 -11.7 -19.4 -5.4 3.8 -10.2 8.4 -13.6 14 h 0 Z"/>
    <path fill="#f7bb92" d="M 239.7 148.4 c 5.7 -3 11.5 -4.9 18 -3.2 1.1 -5 1.7 -10.1 1.7 -15.2 -1.1 -2.3 -2 -4.6 -3.2 -6.8 -3.8 -7.6 -4 -7.8 -12.4 -6.3 -2.9 .5 -4.7 -.2 -6.7 -2.1 -2.9 -2.8 -5.9 -5.7 -9.3 -7.9 0 3 .5 5.4 -.4 7.9 -1.1 2.9 -4.3 5.2 -6.4 8 -1.5 2 -1 3.7 1.9 4.3 1.5 .3 2 1.5 2.2 3 .2 2.1 .9 4.2 .7 6.3 -.4 4.5 1.8 5.1 5.6 4.9 7.6 -.4 7.6 -.2 8.4 7.1 h -.1 Z"/>
    <path fill="#894100" d="M 268 118.9 c 1.1 -5.2 1.1 -10.4 -.7 -15.5 -1.2 -3.5 -4.3 -5.6 -5.6 -8.9 -.7 -.3 -1.5 -.6 -2.1 -1 -13.3 -8.2 -28.2 -1.9 -31.8 13.4 3.5 2.2 6.4 5.1 9.3 7.9 2 1.9 3.8 2.6 6.7 2.1 8.4 -1.5 8.6 -1.3 12.4 6.3 1.1 2.2 2.1 4.5 3.1 6.8 3.9 -2.9 6.1 -7.1 8.7 -11 h 0 Z"/>
    <path fill="#f7bb92" d="M 230.9 239.2 c 6 -1.6 11.3 -6.2 18.1 -5.1 -.6 -7.9 -.3 -15.9 -1.6 -23.8 -7.2 .6 -14.4 1.2 -21.5 1.8 3.4 8.7 5.3 17.7 5.1 27.1 h -.1 Z"/>
    <path fill="#894100" d="M 284 140.5 s 0 .8 -1.3 -.3 -11.2 -15.9 -11.2 -15.9 l -3.5 -5.5 4.7 -10.1 c -.6 -4.2 -2 -8.2 -4.9 -11.8 -.8 -1 -2.1 -1.7 -2.2 -3.2 4.8 -.4 9.1 1.6 11.7 5.2 0 0 7.7 8 6.7 41.6 h 0 Z"/>
    <path fill="#dea881" d="M 239.9 155.3 c 4.9 -5.1 11.3 -4.7 17.6 -4.6 0 -1.9 .1 -3.7 .2 -5.6 -6.5 -1.7 -12.4 .2 -18 3.2 -.3 2.3 -.4 4.6 .3 6.9 h -.1 Z"/>
    <path fill="#5c3717" d="M 265.6 93.7 c -1.4 -.4 -2.6 .4 -3.9 .7 1.3 3.3 4.4 5.5 5.6 8.9 1.8 5.2 1.8 10.3 .7 15.5 1.8 .2 3.4 -.3 4.7 -1.6 .7 -7.4 -.2 -14.3 -5 -20.4 -.8 -1 -2.1 -1.7 -2.2 -3.2 h 0 Z"/>
    <path fill="#dea881" d="M 248.9 234.1 c 1.1 0 2.1 0 3.2 .1 .4 -7.5 -1.3 -15 -.8 -22.5 0 -.8 0 -1.6 -.8 -2.1 -1.1 .1 -2.3 -.3 -3.2 .7 1.3 7.9 1 15.9 1.6 23.8 h 0 Z"/>
    <path fill="#f7bc94" d="M 246.6 416.7 c -.4 0 -.7 0 -1.1 .2 -.2 0 -.3 0 -.5 .2 -1.3 .8 -2.7 1.5 -4.1 2.2 -.2 0 -.3 .2 -.4 .3 -1 .8 -2.2 1.2 -3.3 1.9 -1.3 .8 -2.6 1.4 -3.9 2.1 -.8 .4 -1.5 .9 -2.3 1.3 -1.2 .5 -2.1 1.2 -3 2.2 -.8 .9 -1.2 1.9 -1.4 3 -.3 1.3 0 2.5 .7 3.6 .3 .5 .4 1 .8 1.3 .9 .8 1.8 1.6 3.1 1.9 .7 .1 1.4 .3 2.1 .3 h 16.5 c .5 -.1 .9 -.1 1.4 -.1 h 10.9 c .8 0 1.7 -.1 2.5 -.3 .9 -.2 1.8 -.7 2.6 -1.3 .4 -.3 .8 -.5 1.1 -.9 1 -1.3 1.9 -2.6 2.2 -4.2 .2 -.8 .4 -1.7 .3 -2.5 -.2 -1.5 -.8 -2.9 -1.4 -4.3 -.3 -.7 -.6 -1.4 -.9 -2.2 -.3 -.7 -.5 -1.4 -.8 -2.1 s -.6 -1.4 -.8 -2.2 h -2.3 c -1.4 0 -2.8 0 -4.2 -.1 h -6.7 c -2.1 .1 -4.1 0 -6.2 0 s -.7 0 -1 -.1 h 0 v -.2 h 0 Z"/>
  </g>
  <g>
    <path fill="#6a6d66" d="M 332.8 311.3 c -.5 0 -1 -.1 -1.5 -.3 -.8 -.2 -1.7 -.4 -2.5 -.6 s -1.6 -.4 -2.4 -.6 c -.5 -.2 -.8 0 -1.1 .3 -.4 .5 -.9 1 -1.3 1.5 -1.2 1.4 -2.5 2.7 -3.9 3.9 -1 .9 -2.1 1.7 -3.2 2.5 -1.9 1.4 -4 2.5 -6.1 3.5 -1.6 .7 -3.3 1.4 -5.1 1.9 -.8 .2 -1.6 .5 -2.4 .6 -1 .2 -2 .5 -3.1 .5 h 0 c -1.8 .4 -3.6 .3 -5.4 .7 -.6 .1 -1.3 .1 -1.9 .2 -1.5 .2 -3 .4 -4.6 .5 -.8 0 -1.5 .2 -2.3 .3 -.3 0 -.5 .1 -.7 .3 -6.2 3.6 -12.3 7.2 -18.5 10.9 -4.4 2.6 -6.2 4.3 -10.6 6.8 -.3 .2 -.6 .4 -1 .6 -.2 .2 -.3 .4 -.2 .7 .3 .8 .6 1.5 1 2.3 1 1.8 1.8 3.7 2.5 5.6 .7 2.2 1.5 4.4 2.2 6.6 s 1.1 4.5 1.4 6.8 c 0 .5 .2 1 .3 1.5 .4 1.9 .6 3.9 .8 5.9 .2 2.1 .3 4.2 .4 6.3 0 1.1 .2 2.2 .2 3.3 v 9.4 c 0 2.4 -.2 4.8 -.3 7.3 v 1.1 c 0 2 -.2 4.1 -.3 6.1 v .9 c 0 1.7 -.2 3.4 -.3 5.1 0 .3 0 .6 -.1 .8 0 .3 -.4 .4 -.3 .7 0 .2 .2 .5 .2 .7 -1 0 -1.9 .1 -2.8 .3 -.7 0 -1.4 0 -2.1 .2 -.8 .1 -1.6 .2 -2.4 .3 -1.8 0 -6.1 1 -7.8 1.1 -.5 0 -1 0 -1.5 .1 -.5 0 -1 .2 -1.5 0 .3 -.2 .4 -.4 .3 -.6 -.4 -.8 -.5 -1.6 -.6 -2.4 -.9 -5.1 -1.8 -10.3 -2.7 -15.4 -.3 -1.7 -.8 -3.4 -1.2 -5 -.7 -2.9 -1.6 -5.7 -2.4 -8.6 -1.4 -4.6 -2.8 -9.2 -4.2 -13.8 s -1.4 -4.7 -2.1 -7 c -1.1 -3.6 -2.2 -7.2 -3.3 -10.8 -.7 -2.3 -1.1 -4.6 -1 -7.1 0 -1.3 .1 -2.5 .4 -3.8 .2 -.9 .4 -1.7 .7 -2.6 .6 -2 1.6 -3.7 2.6 -5.5 s 1 -1.8 1.5 -2.6 c .7 -1.2 1.6 -2.4 2.5 -3.5 1.8 -2.2 3.7 -4.4 5.6 -6.5 2.1 -2.3 4.2 -4.6 6.5 -6.7 1.6 -1.5 3.2 -3 4.8 -4.4 2.5 -2.2 5 -4.3 7.6 -6.3 4.5 -3.5 9.2 -6.7 14.1 -9.6 3 -1.8 6 -3.5 9.1 -5.1 1.5 -.8 3 -1.5 4.6 -2.2 1.8 -.8 3.6 -1.6 5.4 -2.4 1.6 -.7 3.3 -1.2 5 -1.8 1.2 -.4 2.4 -.8 3.6 -1.1 1.2 -.3 2.3 -.6 3.5 -.9 1.1 -.3 2.1 -.5 3.2 -.7 s 2.1 -.4 3.2 -.6 h .3 c 1.2 -.3 2.5 -.3 3.7 -.5 s 2.3 -.2 3.5 -.4 c 1.6 -.2 3.2 -.2 4.8 -.3 h 2.3 c .2 0 .4 0 .6 .1 .5 1.1 1 2.2 1.5 3.2 1 2.1 1.9 4.2 2.5 6.5 .7 2.4 1.5 4.8 1.8 7.3 .2 1.2 .3 2.4 .5 3.6 .2 1.1 .2 2.3 .2 3.4 v .5 c .2 1.4 .3 2.8 .4 4.3 v 2.8 h -.6 Z"/>
    <path fill="#f7bb92" d="M 387 346.2 c .1 .9 .3 1.8 .3 2.6 0 1.3 .3 2.5 .3 3.8 s .2 2.2 .2 3.2 .2 2 .3 3 c .1 .9 .2 1.8 .3 2.7 0 .6 .1 1.3 .2 1.9 .1 .9 .1 1.8 .3 2.7 .1 .9 .1 1.8 .4 2.6 .1 .4 .2 .9 .1 1.3 0 1.3 .2 2.5 .3 3.8 0 .8 .1 1.6 .2 2.4 .2 1 .2 2 .3 3 v .4 c -.2 1.5 -.3 2.9 -.5 4.4 0 .9 -.2 1.8 -.2 2.7 s -.2 1.6 -.3 2.5 c -.1 .9 -.3 1.8 -.3 2.7 s -.2 1.8 -.3 2.7 c 0 .8 0 1.5 -.2 2.3 -.2 1 -.3 2 -.5 3 -.3 1.7 -.6 3.4 -.9 5.2 -.3 1.6 -.6 3.1 -.8 4.7 -.3 1.6 -.6 3.3 -.9 4.9 s -.6 3.3 -.9 4.9 c -.2 1.3 -.5 2.6 -.7 3.9 0 .6 -.3 1.1 -.7 1.5 -1.3 1.6 -2.6 3.3 -3.9 5 -.5 .6 -1.1 1 -2 .9 h -12.1 c -3.3 0 -6.7 0 -10 .1 h -1 c -.5 -.1 -1 -.3 -1.4 -.7 -.2 -.2 -.6 -.4 -.9 -.6 -.2 -.5 -.2 -.9 -.2 -1.4 v -.7 c -.1 -.3 0 -.6 0 -.9 0 -.5 0 -1.1 -.1 -1.6 -.2 -1 0 -1.6 1 -2.1 h .2 c .8 -.3 1.6 -.7 2.4 -1 1.2 -.4 2.5 -.7 3.8 -1 1.3 -.4 2.6 -.7 3.9 -1.1 1.4 -.4 2.8 -.8 4.2 -1.2 1.2 -.3 2.4 -.7 3.6 -1 .2 0 .4 -.2 .4 -.5 0 -.8 .3 -1.5 .2 -2.3 v -.6 c .1 -.4 .1 -.8 .1 -1.1 v -.9 c .2 -.5 .1 -1 .2 -1.5 v -.7 c .2 -.4 .1 -.9 .1 -1.3 v -.8 c .2 -.4 .1 -.9 .1 -1.3 v -.7 c .2 -.6 .2 -1.1 .2 -1.7 v -.5 c .2 -.5 .1 -1 .2 -1.5 v -.7 c .1 -.4 .1 -.8 .1 -1.2 0 -1 .3 -1.9 .2 -2.8 v -.2 c .2 -.4 .1 -.7 .1 -1.1 v -.7 c .2 -.5 .1 -1 .2 -1.5 v -.6 c .2 -1.4 .6 -2.8 .7 -4.2 .2 -1.4 .5 -2.8 .7 -4.2 .1 -1.1 .4 -2.2 .3 -3.3 0 -.2 0 -.4 .1 -.7 0 -.3 .1 -.7 0 -1 -.4 -.8 -.6 -1.7 -.9 -2.6 -.8 -2.4 -1.7 -4.7 -2.6 -7.1 -.6 -1.6 -1.1 -3.2 -1.7 -4.8 -.9 -2.5 -1.8 -5 -2.7 -7.4 -.3 -.7 -.6 -1.4 -.9 -2.1 -.3 -.5 -.6 -1.1 -1.3 -1.1 0 -.2 0 -.3 -.1 -.5 -1 -2.4 -1.8 -4.9 -2.5 -7.4 -.3 -1.2 -.7 -2.4 -1 -3.6 -.4 -1.8 -.5 -3.7 -.5 -5.6 v -1 c .3 -2 .9 -3.8 1.6 -5.7 1.1 -2.9 3 -5.1 5.8 -6.5 s .5 -.2 .7 -.3 c .6 -.4 1.3 -.6 2 -.7 1.9 -.3 3.8 -.3 5.7 0 2.1 .4 3.9 1.3 5.5 2.7 2.1 1.8 3.6 4 4.4 6.7 .3 1 .5 2 .5 3 v 3.9 c 0 .8 0 1.6 -.1 2.4 v 3 c 0 .3 0 .6 .4 .8 h .3 0 Z"/>
    <path fill="#8a8ad9" d="M 387 346.2 c -.3 -.2 -.4 -.5 -.4 -.8 v -3 c 0 -.8 .1 -1.6 .1 -2.4 v -3.9 c 0 -1 -.2 -2 -.5 -3 -.8 -2.6 -2.3 -4.9 -4.4 -6.7 -1.6 -1.4 -3.5 -2.2 -5.5 -2.7 -1.9 -.4 -3.8 -.4 -5.7 0 -.7 .1 -1.4 .3 -2 .7 -.2 .1 -.5 .2 -.7 .3 -2.8 1.4 -4.7 3.6 -5.8 6.5 -.7 1.9 -1.3 3.7 -1.6 5.7 v 1 c 0 1.9 .1 3.8 .5 5.6 .2 1.2 .6 2.4 1 3.6 .7 2.5 1.5 5 2.5 7.4 0 .1 0 .3 .1 .5 -.2 .6 -.6 1 -1.3 1 h -.1 c -2.1 -3.9 -3.9 -7.9 -5.7 -11.9 -.4 -.9 -.9 -1.8 -1.5 -2.7 -3.5 -5.7 -7 -11.5 -10.4 -17.2 -1.7 -2.8 -3.3 -5.5 -5 -8.3 -.5 -.8 -1.1 -1.6 -1.8 -2.3 s -.5 -.5 -.5 -.9 c .9 -.9 1.8 -1.9 2.7 -2.8 4.8 -4.9 9.7 -9.8 14.5 -14.7 2.8 -2.9 5.7 -5.7 8.5 -8.6 .3 -.3 .5 -.6 .8 -.8 .1 0 .3 0 .4 .1 1.2 .8 2.3 1.6 3.5 2.4 1.9 1.2 3.7 2.5 5.5 3.9 .6 .5 1.4 .8 2.1 1.1 1.3 .5 2.7 .9 4 1.4 1.8 .7 3.7 1.2 5.4 2.1 1.4 .7 2.6 1.7 3.8 2.7 1 .9 1.8 2 2.6 3.1 1.3 1.9 2 4.1 2.3 6.4 .2 1.9 .4 3.7 .3 5.6 -.1 2.8 -.3 5.5 -.6 8.3 -.2 1.4 -.3 2.7 -.6 4.1 -.2 .7 -.2 1.5 -.3 2.2 -.6 2.9 -1.5 5.7 -2.5 8.4 -1 2.8 -2.2 5.6 -3.3 8.3 0 .1 -.1 .2 -.2 .3 h -.2 0 Z"/>
    <path fill="#894100" d="M 363.2 356 h .1 c .2 .2 .4 .3 .4 .6 0 .5 .2 .9 .4 1.4 .6 1.7 1.3 3.5 1.9 5.2 .9 2.3 1.8 4.6 2.6 7 .2 .6 .5 1.1 .5 1.7 -.1 .4 -.3 .8 -.4 1.2 -.7 2.5 -1.4 5.1 -2.2 7.6 -.2 .5 -.2 1 0 1.6 .8 3 1.6 6 2.4 8.9 .2 .7 .3 1.5 .7 2.2 0 .3 0 .6 -.3 .7 -.3 .2 -.5 .3 -.8 .5 -.9 .5 -1.9 .8 -2.8 1.1 -1.2 .3 -2.4 .4 -3.7 .6 -.7 0 -1.5 0 -2.2 -.2 -2.5 -.2 -4.8 -1 -7 -2.2 -.2 -.1 -.4 -.2 -.7 -.4 -.2 0 -.3 0 -.4 .1 0 -.3 -.2 -.6 -.5 -.8 -.3 -.2 -.6 -.4 -.8 -.6 -1.1 -1.2 -2.4 -2.2 -3.4 -3.5 -1.4 -1.8 -2.4 -3.9 -3.3 -6 -.6 -1.5 -1 -3.2 -1.3 -4.8 -.2 -.8 -.3 -1.7 -.3 -2.6 v -2.2 c 0 -.5 -.1 -1 -.6 -1.4 .3 -.9 .6 -1.9 .9 -2.8 .4 -1.4 1 -2.6 1.9 -3.7 1.1 -1.5 2.4 -2.8 3.8 -4 2.5 -2.1 5.3 -3.8 8.4 -4.9 1.1 -.4 2.3 -.7 3.4 -.8 1.1 -.1 2.2 0 3.2 .4 h 0 Z"/>
    <path fill="#f6bb92" d="M 364.8 285.8 c -.3 .3 -.5 .6 -.8 .8 -2.8 2.9 -5.7 5.7 -8.5 8.6 -4.8 4.9 -9.7 9.8 -14.5 14.7 -.9 .9 -1.8 1.9 -2.7 2.8 -1.6 -.3 -3.2 -.9 -4.8 -1.2 -.2 0 -.5 -.1 -.7 -.3 .2 -.5 .2 -1.1 0 -1.6 v -1.2 c 0 -1.4 -.2 -2.9 -.4 -4.3 v -.5 c 0 -1.1 0 -2.3 -.2 -3.4 -.2 -1.2 -.3 -2.4 -.5 -3.6 -.3 -2.5 -1.1 -4.9 -1.8 -7.3 -.7 -2.2 -1.5 -4.4 -2.5 -6.5 -.5 -1.1 -1 -2.1 -1.5 -3.2 .5 -.2 .9 -.2 1.4 -.2 h 16 c 1.3 0 2.5 0 3.8 .2 1.4 .2 2.8 .3 4.1 .6 .7 .2 1.4 .2 2.1 .4 .8 .2 1.7 .5 2.5 .7 1.2 .4 2.5 .8 3.7 1.4 1.1 .5 2.2 1 3.3 1.6 .6 .3 1.1 .7 1.7 1 .1 0 .2 .2 .3 .4 h 0 Z"/>
    <path fill="#dda781" d="M 369.1 371.9 c 0 -.6 -.3 -1.2 -.5 -1.7 -.9 -2.3 -1.7 -4.6 -2.6 -7 -.6 -1.7 -1.3 -3.5 -1.9 -5.2 -.2 -.4 -.4 -.9 -.4 -1.4 s -.2 -.4 -.4 -.6 c .7 0 1 -.4 1.3 -1 .7 0 1.1 .6 1.3 1.1 .3 .7 .6 1.4 .9 2.1 .9 2.5 1.8 5 2.7 7.4 .6 1.6 1.2 3.2 1.7 4.8 .8 2.4 1.7 4.7 2.6 7.1 .3 .9 .5 1.8 .9 2.6 .1 .3 .1 .7 0 1 0 .2 -.1 .4 -.1 .7 0 1.1 -.2 2.2 -.3 3.3 -.2 1.4 -.5 2.8 -.7 4.2 -.2 1.4 -.5 2.8 -.7 4.2 v .6 c 0 .5 0 1 -.2 1.5 v .7 c 0 .4 0 .8 -.1 1.1 v .2 c 0 1 -.2 1.9 -.2 2.8 s 0 .8 -.1 1.2 v .7 c 0 .5 0 1 -.2 1.5 v .5 c 0 .6 0 1.1 -.2 1.7 v .7 c 0 .4 0 .9 -.1 1.3 v .8 c 0 .4 0 .9 -.1 1.3 v .7 c 0 .5 0 1 -.2 1.5 v .9 c 0 .4 0 .8 -.1 1.1 v .6 c 0 .8 -.2 1.5 -.2 2.3 s -.2 .4 -.4 .5 c -1.2 .3 -2.4 .7 -3.6 1 -1.4 .4 -2.8 .8 -4.2 1.2 -1.3 .4 -2.6 .8 -3.9 1.1 -1.3 .3 -2.5 .6 -3.8 1 -.8 .3 -1.6 .6 -2.4 1 h -.2 c -.9 .5 -1.2 1.1 -1 2.1 s .1 1.1 .1 1.6 v 1.6 c 0 .5 0 .9 .2 1.4 h -8.1 c -.7 0 -1.3 -.2 -1.8 -.7 h -.1 c -.8 -.5 -1 -1.2 -1 -2 s -.2 -2.3 -.3 -3.4 c -.1 -1 .1 -1.5 1 -1.9 1.4 -.6 2.8 -1.1 4.3 -1.5 3.5 -1 7 -1.9 10.5 -2.9 1 -.3 2.1 -.6 3.1 -.9 .3 0 .5 -.2 .5 -.6 s .1 -1.1 .2 -1.6 c .1 -1.1 .2 -2.2 .3 -3.2 0 -.8 0 -1.5 .2 -2.3 .1 -1 .2 -2 .3 -3 0 -1 .2 -2.1 .3 -3.1 0 -.9 .2 -1.8 .2 -2.8 s .1 -1.9 .2 -2.9 c 0 -.2 0 -.4 .1 -.7 1.2 -.2 2.5 -.3 3.7 -.6 1 -.3 1.9 -.6 2.8 -1.1 .3 -.1 .5 -.3 .8 -.5 s .4 -.4 .3 -.7 c .3 0 .5 -.2 .7 -.4 .3 -.4 .7 -.8 1 -1.3 .4 -.5 .7 -1.1 .6 -1.8 v -.4 c .2 -.5 .1 -1 .1 -1.5 v -1.3 c .1 -.5 .1 -1 .1 -1.5 v -.8 c .2 -.5 .1 -1.1 .2 -1.6 v -.8 c .2 -.7 .1 -1.4 -.2 -2 -.5 -1.2 -.9 -2.4 -1.3 -3.6 -.5 -1.2 -.9 -2.4 -1.4 -3.7 -.1 -.3 -.2 -.7 -.5 -.9 h 0 l .3 .2 h 0 Z"/>
    <path fill="#894100" d="M 351.5 394 c 0 .7 0 1.3 -.2 2 -.5 3.1 -.9 6.2 -1.4 9.3 -.3 1.6 -.5 3.3 -.8 4.9 v .4 c -.2 .6 -.8 1 -1.4 .8 -.5 -.2 -1 -.4 -1.5 -.7 -.9 -.6 -1.8 -1.3 -2.6 -2.1 -1.2 -1.2 -2.3 -2.4 -3.4 -3.6 -3.2 -3.8 -5.8 -8 -7.7 -12.6 -1 -2.5 -1.7 -5.1 -1.9 -7.9 -.2 -2.2 0 -4.3 .7 -6.4 1.5 -4.3 5.5 -6.8 9.9 -6.2 -.3 .3 -.7 .1 -1 .2 -.3 0 -.6 .1 -.8 .3 -.1 .2 -.3 .3 -.4 .5 -.6 1 -.8 2.2 -.9 3.4 0 .6 .1 1.3 .2 1.9 0 .6 .1 1.3 .3 1.9 .4 1.7 .9 3.3 1.6 4.9 .3 .7 .6 1.4 1 2 .6 1.1 1.3 2 2 3 .3 .4 .6 .8 .9 1.1 .6 .6 1.1 1.2 1.8 1.8 .8 .7 1.6 1.3 2.6 1.6 1 .3 1.9 .4 2.8 -.3 h .3 v -.2 h -.1 Z"/>
    <path fill="#5b3617" d="M 351.5 394 h -.3 c -.9 .7 -1.8 .6 -2.8 .3 -1 -.3 -1.8 -.9 -2.6 -1.6 -.6 -.5 -1.2 -1.2 -1.8 -1.8 s -.6 -.7 -.9 -1.1 c -.7 -1 -1.4 -2 -2 -3 -.4 -.7 -.7 -1.3 -1 -2 -.7 -1.6 -1.2 -3.2 -1.6 -4.9 -.1 -.6 -.2 -1.2 -.3 -1.9 0 -.6 -.3 -1.2 -.2 -1.9 .1 -1.2 .3 -2.3 .9 -3.4 .1 -.2 .3 -.4 .4 -.5 .2 -.2 .4 -.3 .8 -.3 s .7 .1 1 -.2 h .4 c .4 .3 .6 .8 .6 1.4 v 2.2 c 0 .9 .1 1.7 .3 2.6 .3 1.6 .7 3.2 1.3 4.8 .8 2.2 1.9 4.2 3.3 6 1 1.3 2.2 2.3 3.4 3.5 .2 .3 .6 .4 .8 .6 .2 .2 .5 .4 .5 .8 v .3 h -.2 0 Z"/>
    <path fill="#f6ba90" d="M 369.1 371.9 c .3 .2 .4 .6 .5 .9 .5 1.2 .9 2.4 1.4 3.7 .4 1.2 .8 2.4 1.3 3.6 .3 .7 .3 1.4 .2 2 v .8 c 0 .5 0 1.1 -.2 1.6 v .8 c 0 .5 0 1 -.1 1.5 -.1 .4 0 .9 0 1.3 s 0 1 -.1 1.5 v .4 c 0 .7 -.2 1.2 -.6 1.8 -.3 .4 -.7 .9 -1 1.3 -.2 .2 -.4 .4 -.7 .4 -.3 -.7 -.5 -1.4 -.7 -2.2 -.8 -3 -1.6 -6 -2.4 -8.9 -.1 -.5 -.1 -1.1 0 -1.6 .7 -2.5 1.4 -5.1 2.2 -7.6 .1 -.4 .3 -.8 .4 -1.2 h -.2 0 Z"/>
    <path fill="#f7bc94" d="M 244.7 416.8 c -.4 0 .4 -.2 0 0 -.2 0 -.3 0 -.5 .2 -1.3 .8 -2.7 1.5 -4.1 2.2 -.2 0 -.3 .2 -.4 .3 -1 .8 -2.2 1.2 -3.3 1.9 -1.3 .8 -2.6 1.4 -3.9 2.1 -.8 .4 -1.5 .9 -2.3 1.3 -1.2 .5 -2.1 1.2 -3 2.2 -.8 .9 -1.2 1.9 -1.4 3 -.3 1.3 0 2.5 .7 3.6 .3 .5 .4 1 .8 1.3 .9 .8 1.8 1.6 3.1 1.9 .7 .1 1.4 .3 2.1 .3 h 16.5 c .5 -.1 .9 -.1 1.4 -.1 h 10.9 c .8 0 1.7 -.1 2.5 -.3 .9 -.2 1.8 -.7 2.6 -1.3 .4 -.3 .8 -.5 1.1 -.9 1 -1.3 1.9 -2.6 2.2 -4.2 .2 -.8 .4 -1.7 .3 -2.5 -.2 -1.5 -1.6 -4 -2.2 -5.4 -.7 -1.1 -.8 -1.3 -1.4 -2.2 -1 -1.2 -1.1 -1.5 -1.8 -2.3 s -1.7 -1.5 -1.9 -2.3 h -.8 c -.5 0 -1.1 .1 -1.6 .2 -1.5 .2 -2.2 .4 -3.8 .6 -2.1 .2 -1.6 .2 -3.7 .4 -2.1 .1 -4.1 0 -6.2 0 s -.7 0 -1 -.1 h -1 0 Z"/>
  </g>
</svg>
