<svg width="500" height="500" viewBox="0 0 500 500" fill="none" xmlns="http://www.w3.org/2000/svg">
<path d="M165.064 359.097C167.555 355.474 170.176 351.95 172.85 348.461C182.513 335.835 192.147 323.188 201.767 310.53C205.246 305.951 208.685 301.344 212.093 296.708C214.033 294.066 216.189 291.607 218.362 289.166C221.586 285.543 224.765 281.885 227.714 278.029C228.847 276.547 230.099 275.175 231.355 273.802C239.306 265.103 247.061 256.231 254.614 247.182C260.466 240.169 266.326 233.162 272.185 226.156C272.471 225.814 272.708 225.412 273.145 225.225C273.127 224.72 273.103 224.237 273.501 223.81C274.454 222.784 275.346 221.704 276.302 220.685C278.486 218.353 280.821 216.169 282.938 213.763C285.489 210.86 288.473 208.351 290.953 205.367C292.177 203.896 293.723 202.756 295.141 201.483C295.494 201.169 295.871 200.975 296.351 200.985C296.742 200.996 297.137 200.982 297.529 200.978C297.73 200.213 297.822 199.433 297.829 198.639C297.832 198.075 297.857 197.511 297.91 196.953C298.086 195.108 298.295 193.263 298.471 191.418C298.736 188.621 298.933 185.812 299.258 183.022C299.388 181.904 299.476 180.782 299.596 179.667C299.773 178.048 299.988 176.432 300.154 174.809C300.316 173.243 300.358 171.659 300.612 170.11C300.824 168.826 300.828 167.531 301.004 166.251C301.216 164.692 301.374 163.125 301.54 161.559C301.699 160.049 301.819 158.536 301.981 157.026C302.285 154.232 302.577 151.438 302.93 148.651C303.099 147.324 303.085 145.945 303.749 144.717C303.614 144.668 303.48 144.615 303.346 144.566C302.99 144.774 302.708 144.626 302.454 144.368C300.912 143.969 299.367 143.574 297.825 143.176C297.554 143.426 297.339 143.331 297.145 143.073C296.693 142.989 296.245 142.9 295.793 142.816C295.532 143.07 295.31 142.996 295.113 142.731C294.908 142.703 294.703 142.675 294.499 142.646C294.319 142.735 294.167 142.696 294.037 142.548C293.832 142.523 293.627 142.502 293.423 142.477C293.059 142.777 292.721 142.717 292.403 142.399C290.262 142.213 288.117 142.23 285.976 142.407C285.655 142.721 285.316 142.78 284.956 142.477C284.751 142.498 284.543 142.519 284.339 142.541C284.208 142.685 284.056 142.724 283.88 142.632C283.675 142.661 283.471 142.689 283.266 142.717C283.069 142.989 282.846 143.052 282.585 142.798C282.173 142.879 281.76 142.957 281.347 143.038C281.111 143.257 280.874 143.465 280.553 143.169C272.397 144.922 265.275 148.834 258.632 153.727C257.408 154.63 256.254 155.629 255.058 156.571C253.086 158.126 251.566 160.077 250.116 162.099C247.248 166.096 244.856 170.364 242.563 174.71C230.618 197.348 219.279 220.297 207.846 243.192C206.336 246.219 204.819 249.242 203.337 252.283C202.953 253.073 202.469 253.729 201.69 254.142C196.394 256.964 192.489 261.349 188.672 265.816C183.059 272.391 178.163 279.493 173.467 286.735C166.31 297.767 159.885 309.218 154.089 321.022C151.951 325.372 149.934 329.781 148.014 334.233C146.963 336.671 146.275 339.232 145.418 341.737C144.194 345.314 143.333 348.987 142.476 352.663C143.04 352.652 143.584 352.754 144.127 352.917C146.109 353.516 148.106 354.074 150.092 354.67C154.865 356.106 159.709 357.305 164.394 359.023C164.599 359.097 164.835 359.08 165.057 359.104L165.064 359.097Z" fill="#696E66"/>
<path d="M342.978 313.666C342.336 311.585 341.983 309.437 341.549 307.309C341.327 306.219 341.115 305.126 340.917 304.028C340.829 303.538 340.776 303.037 340.748 302.54C340.734 302.3 340.921 302.148 341.154 302.085C341.164 301.972 341.111 301.905 340.999 301.884C340.462 301.929 340.533 301.506 340.462 301.192C340.476 301.009 340.491 300.822 340.505 300.638C340.039 300.377 340.043 299.876 339.961 299.456C339.782 298.5 339.386 297.64 338.938 296.793C338.543 296.049 338.148 295.301 337.778 294.546C336.751 292.447 335.344 290.648 333.569 289.124C332.631 288.319 331.724 287.476 330.796 286.661C329.487 285.511 328.189 284.35 326.859 283.229C325.402 282.004 325.24 281.306 326.108 279.602C326.185 279.454 326.291 279.316 326.369 279.168C327.24 277.57 328.489 276.272 329.706 274.949C330.391 274.205 331.138 273.52 331.858 272.808C332.109 272.561 332.25 272.282 332.204 271.908C331.992 270.183 331.872 268.44 331.569 266.729C331.262 264.979 331.209 263.275 331.724 261.568C330.913 258.474 329.953 255.423 328.979 252.375C327.716 248.42 326.514 244.441 325.3 240.472C325.155 239.996 324.898 239.53 325.046 239.001C324.429 238.175 323.529 237.667 322.735 237.064C319.853 234.877 317.281 232.4 315.221 229.412C314.053 227.715 313.157 225.934 313.369 223.785C313.397 223.507 313.358 223.225 313.376 222.942C313.432 221.99 313.136 221.185 312.431 220.522C311.894 220.018 311.457 219.432 311.277 218.698C310.102 217.7 309.372 216.349 308.487 215.128C305.781 211.406 303.078 207.688 299.967 204.284C299.477 203.748 299.032 203.173 298.563 202.615C298.429 202.795 298.33 203.042 298.154 203.141C297.349 203.589 296.743 204.259 296.122 204.905C292.407 208.75 288.505 212.405 284.9 216.367C281.679 219.905 278.172 223.182 274.786 226.569C274.592 226.763 274.338 226.901 274.112 227.066C274.084 227.493 274.348 227.814 274.517 228.16C276.987 233.162 279.418 238.186 281.961 243.149C284.614 248.318 286.935 253.634 289.352 258.912C292.94 266.75 296.527 274.586 300.115 282.424C300.327 282.886 300.517 283.359 300.757 283.804C301.226 284.679 301.329 285.571 301.23 286.569C300.867 290.376 301.47 294.098 302.369 297.784C303.911 304.099 306.183 310.163 308.843 316.083C313.637 326.74 319.275 336.943 325.6 346.768C329.967 353.552 334.67 360.089 339.725 366.379C340.293 367.084 340.815 367.811 341.15 368.657C341.45 368.509 341.761 368.386 342.046 368.209C345.437 366.139 348.834 364.071 352.21 361.979C354.447 360.596 356.736 359.295 358.832 357.697C357.396 353.559 355.893 349.445 354.545 345.279C352.813 339.927 350.679 334.727 348.834 329.421C347.155 324.592 345.465 319.766 343.447 315.063C343.316 314.756 343.239 314.425 343.136 314.104C342.985 313.994 342.911 313.857 342.971 313.67L342.978 313.666Z" fill="#696D65"/>
<path d="M298.57 202.615C299.036 203.173 299.484 203.748 299.974 204.284C303.086 207.685 305.788 211.406 308.494 215.128C309.379 216.345 310.109 217.7 311.288 218.695C312.667 217.128 314.226 215.753 315.726 214.306C318.453 211.682 321.391 209.336 324.432 207.099C325.519 206.298 326.651 205.564 327.784 204.831C328.133 204.605 328.443 204.732 328.584 205.127C329.022 206.344 329.428 207.572 329.858 208.789C331.266 212.768 332.698 216.737 334.091 220.72C336.081 226.403 338.018 232.104 340.208 237.713C340.403 238.21 340.417 238.694 340.42 239.198C341.958 239.043 342.812 239.738 343.249 241.223C343.532 242.183 344.078 243.068 344.537 243.971C346.23 247.291 348.28 250.332 351.123 252.812C352.245 253.789 353.431 254.622 354.785 255.179C355.763 255.585 356.793 255.959 357.886 255.804C359.989 255.5 361.64 254.505 362.885 252.717C365.118 249.503 365.937 245.859 366.173 242.077C366.378 238.828 366.247 235.572 365.549 232.354C365.058 230.107 364.624 227.856 363.887 225.669C363.224 223.697 362.494 221.753 361.774 219.802C361.315 218.554 360.775 217.294 360.797 215.911C360.5 215.509 360.158 215.128 359.911 214.698C358.821 212.803 357.773 210.881 356.683 208.986C355.23 206.457 353.762 203.938 352.284 201.426C350.975 199.2 349.681 196.974 348.739 194.558C347.941 194.35 347.303 193.891 346.83 193.238C346.403 192.649 346.019 192.021 345.67 191.379C345.077 190.293 344.576 189.164 343.892 188.119C343.433 187.417 343.07 186.638 342.759 185.855C342.35 184.817 342.293 183.823 343.144 182.881C344.082 181.844 344.9 180.697 345.782 179.61C346.774 178.393 347.769 177.18 348.785 175.984C349.293 175.384 349.765 174.597 350.499 174.396C351.684 174.075 353.014 173.938 354.041 174.841C355.18 175.843 356.235 176.95 357.258 178.076C358.348 179.279 359.304 180.609 360.419 181.787C361.121 182.528 361.657 183.385 362.321 184.151C362.818 184.726 362.917 185.477 362.804 186.232C362.723 186.779 362.257 187.312 361.728 187.4C360.987 187.523 360.317 187.47 359.7 186.885C358.059 185.336 356.634 183.597 355.166 181.893C354.362 180.962 353.628 179.967 352.856 179.007C352.714 178.834 352.542 178.683 352.365 178.545C352.115 178.347 351.847 178.355 351.603 178.566C351.392 178.753 351.19 178.951 350.989 179.145C349.455 180.634 348.248 182.426 346.647 183.858C346.163 184.288 346.142 184.846 346.417 185.407C346.767 186.112 347.091 186.839 347.522 187.495C348.294 188.684 348.866 189.968 349.469 191.238C349.857 192.053 350.072 192.935 349.963 193.859C351.579 193.415 353.184 192.924 354.814 192.529C358.02 191.75 361.273 191.199 364.533 190.681C364.55 189.859 363.996 189.227 363.799 188.472C363.566 187.59 363.506 187.559 364.219 187.103C364.924 186.655 365.386 185.879 366.233 185.639C366.24 185.47 366.194 185.276 366.265 185.138C366.745 184.193 366.526 183.279 366.173 182.369C365.076 179.547 363.968 176.728 362.885 173.899C362.74 173.525 362.621 173.162 362.317 172.886C361.53 172.167 360.843 171.362 359.954 170.735C358.906 169.994 357.971 169.091 357.001 168.244C355.904 167.288 354.866 166.247 353.716 165.362C351.406 163.58 349.275 161.594 347.081 159.682C346.784 159.424 346.534 159.118 346.114 159.04C344.96 158.821 343.814 158.581 342.66 158.373C342.452 158.334 342.216 158.408 341.997 158.447C340.988 158.631 340.11 159.089 339.281 159.689C338.632 160.158 338.423 160.112 337.824 159.551C337.665 159.403 337.563 159.192 337.432 159.008C337.076 159.015 336.797 158.846 336.511 158.652C331.65 155.385 326.468 152.672 321.151 150.266C316.713 148.259 312.184 146.4 307.393 145.324C306.19 145.056 304.994 144.749 303.752 144.707C303.089 145.934 303.103 147.314 302.934 148.64C302.581 151.427 302.285 154.221 301.985 157.015C301.823 158.525 301.703 160.038 301.544 161.548C301.382 163.115 301.223 164.681 301.008 166.24C300.831 167.524 300.828 168.815 300.616 170.1C300.362 171.648 300.323 173.232 300.158 174.799C299.988 176.418 299.773 178.037 299.6 179.656C299.48 180.775 299.388 181.893 299.261 183.011C298.937 185.802 298.739 188.61 298.475 191.407C298.302 193.252 298.094 195.097 297.914 196.942C297.861 197.503 297.836 198.068 297.833 198.629C297.826 199.422 297.734 200.202 297.533 200.968C297.695 201.634 298.355 201.984 298.581 202.612L298.57 202.615ZM319.144 182.881C319.059 182.288 319.257 181.688 319.804 181.18C320.044 180.958 320.185 180.626 320.368 180.344C322.633 176.855 325.247 173.617 327.713 170.272C329.41 167.969 331.149 165.693 332.899 163.432C333.689 162.412 334.451 161.365 335.428 160.497C335.845 160.126 336.289 159.982 336.818 160.042C337.873 160.162 338.498 161.202 338.222 162.233C338.011 163.026 337.52 163.637 337.062 164.268C336.406 165.175 335.679 166.036 335.001 166.928C333.545 168.854 332.123 170.805 330.648 172.714C329.04 174.802 327.403 176.869 325.752 178.926C324.979 179.889 324.203 180.863 323.325 181.724C322.608 182.426 322.432 183.032 322.94 183.946C323.286 184.567 323.31 185.357 323.593 186.024C324.598 188.416 325.297 190.91 326.143 193.355C326.895 195.531 327.628 197.715 328.136 199.969C328.278 200.59 328.306 201.193 328.263 201.811C328.232 202.248 327.988 202.541 327.551 202.64C327.138 202.732 326.732 202.675 326.482 202.319C326.094 201.768 325.667 201.218 325.42 200.601C324.252 197.68 323.12 194.741 322.016 191.795C321.109 189.375 320.273 186.927 319.37 184.503C319.186 184.006 319.158 183.519 319.151 182.888L319.144 182.881Z" fill="#FFB68A"/>
<path d="M341.002 301.88C341.115 301.901 341.168 301.968 341.157 302.081C341.461 302.814 342.096 303.294 342.54 303.922C343.281 304.275 343.853 304.804 344.209 305.549C344.661 305.919 345.112 306.289 345.56 306.66C345.92 306.674 346.163 306.847 346.269 307.196C346.364 307.256 346.456 307.312 346.551 307.372C346.911 307.362 347.162 307.517 347.289 307.859C347.603 308.043 347.92 308.226 348.234 308.406C349.049 308.544 349.741 308.932 350.372 309.447C350.898 309.655 351.427 309.867 351.952 310.075C352.146 310.011 352.298 310.061 352.404 310.24C352.806 310.353 353.205 310.466 353.607 310.579C353.928 310.435 354.196 310.54 354.44 310.763C354.648 310.798 354.856 310.837 355.064 310.872C355.427 310.618 355.741 310.664 356.009 311.02C356.821 311.211 357.632 311.362 358.472 311.288C359.114 310.925 359.759 310.921 360.401 311.292C362.455 311.299 364.43 310.851 366.381 310.272C366.755 310.159 367.108 309.944 367.517 310.121C367.651 310.096 367.785 310.071 367.919 310.046L367.94 310.036C367.993 309.87 368.106 309.792 368.283 309.807L368.371 309.74C368.473 309.496 368.625 309.316 368.914 309.313C369.284 309.062 369.63 308.773 370.025 308.568C372.78 307.122 375.155 305.203 377.173 302.839C377.681 302.243 378.21 301.664 378.728 301.079C379.039 299.992 379.43 298.948 380.072 298.006C381.448 295.992 382.316 293.741 383.06 291.441C383.371 290.485 383.632 289.501 383.78 288.509C383.897 287.737 383.942 286.961 384.073 286.181C384.239 285.193 384.281 284.184 384.45 283.186C384.574 282.477 384.56 281.708 384.426 280.999C383.889 278.198 383.318 275.4 382.679 272.62C382.51 271.883 382.429 271.191 382.567 270.461C382.531 270.324 382.492 270.186 382.457 270.048C382.15 269.583 381.833 269.121 381.533 268.648C379.892 266.055 377.829 263.864 375.31 262.107C373.779 261.038 372.124 260.231 370.332 259.708C370.149 259.814 370.018 259.737 369.909 259.585C369.591 259.543 369.274 259.5 368.953 259.458C367.972 260.153 367.249 261.095 366.483 261.994C363.012 266.076 359.541 270.161 356.073 274.243C354.013 276.67 354.489 275.799 353.97 278.861C354.291 279.231 354.044 279.468 353.773 279.697C353.699 282.519 352.979 285.257 352.63 288.04C352.584 288.403 352.316 288.615 352.072 288.852C348.696 292.161 345.327 295.473 341.951 298.782C341.387 299.336 340.865 299.918 340.494 300.624C340.48 300.807 340.466 300.994 340.452 301.178C340.734 301.326 340.875 301.587 340.988 301.869L341.002 301.88Z" fill="#884100"/>
<path d="M340.508 300.634C340.879 299.929 341.397 299.347 341.965 298.793C345.341 295.487 348.71 292.171 352.087 288.862C352.33 288.626 352.595 288.414 352.644 288.051C352.997 285.264 353.713 282.53 353.787 279.708C353.692 279.39 353.678 279.094 353.984 278.872C354.503 275.813 354.023 276.681 356.087 274.254C359.555 270.168 363.026 266.087 366.498 262.005C367.263 261.106 367.986 260.16 368.967 259.469C368.805 258.245 368.695 257.006 368.455 255.796C368.35 255.257 368.378 254.819 368.628 254.346C370.597 250.677 371.599 246.702 372.332 242.645C372.812 239.978 373.006 237.29 372.978 234.58C372.957 232.661 373.056 230.738 372.925 228.83C372.766 226.533 372.735 224.223 372.382 221.937C372.184 220.66 372.149 219.358 371.955 218.081C371.634 215.971 371.486 213.833 370.89 211.77C370.286 211.904 369.673 212.009 369.08 212.175C366.628 212.863 364.243 213.713 362.148 215.213C363.358 215.738 364.007 216.751 364.476 217.915C364.603 218.225 364.684 218.561 364.832 218.86C366.219 221.64 367.189 224.565 368.022 227.553C368.896 230.696 369.63 233.85 369.613 237.141C369.613 237.526 369.711 237.917 369.796 238.298C370.008 239.247 370.046 240.211 369.796 241.142C369.63 241.756 369.609 242.362 369.602 242.98C369.595 243.431 369.655 243.894 369.577 244.331C369.147 246.758 368.724 249.185 367.725 251.475C366.741 253.729 365.422 255.726 363.538 257.331C362.892 257.881 362.215 258.393 361.432 258.717C358.017 260.139 354.732 259.747 351.575 257.931C350.256 257.172 349.13 256.146 347.952 255.19C347.553 254.865 347.183 254.558 346.894 254.128C346.615 253.711 346.255 253.348 345.909 252.978C345.486 252.526 345.102 252.05 344.735 251.549C343.186 249.45 341.99 247.153 340.91 244.804C340.325 243.534 339.732 242.25 339.443 240.86C338.134 242.955 337.136 245.206 336.12 247.45C336.222 247.584 336.3 247.742 336.423 247.848C337.446 248.723 338.469 249.594 339.506 250.452C339.898 250.776 340.3 251.076 340.48 251.581C340.858 252.642 341.189 253.704 341.207 254.851C341.217 255.496 341.002 255.902 340.417 256.184C339.051 256.844 337.707 257.546 336.349 258.227C335.344 258.731 334.352 259.268 333.485 259.987C332.881 260.488 332.32 261.039 331.738 261.568C331.223 263.275 331.276 264.983 331.583 266.729C331.886 268.44 332.006 270.179 332.218 271.908C332.264 272.282 332.123 272.56 331.872 272.807C331.153 273.52 330.405 274.204 329.72 274.949C328.503 276.272 327.254 277.57 326.383 279.168C326.302 279.316 326.196 279.45 326.122 279.602C325.251 281.306 325.416 282.004 326.873 283.228C328.207 284.35 329.505 285.511 330.81 286.661C331.738 287.476 332.645 288.319 333.583 289.123C335.354 290.647 336.762 292.443 337.792 294.545C338.162 295.304 338.557 296.048 338.953 296.793C339.401 297.639 339.796 298.497 339.976 299.456C340.053 299.872 340.053 300.377 340.519 300.638L340.508 300.634Z" fill="#FFB68A"/>
<path d="M165.064 359.097C164.842 359.072 164.602 359.09 164.401 359.016C159.716 357.298 154.869 356.098 150.099 354.662C148.113 354.066 146.116 353.509 144.134 352.909C143.591 352.743 143.047 352.644 142.483 352.655C141.823 353.22 141.418 353.953 141.121 354.754C140.536 356.342 140.059 357.961 139.756 359.626C139.375 361.729 138.874 363.817 139.005 365.98C139.005 366.036 139.004 366.092 138.997 366.149C138.44 369.92 139.699 373.247 141.566 376.397C143.005 378.831 145.27 379.928 148.039 380.052C148.995 380.094 149.958 380.084 150.914 380.087C159.092 380.101 167.273 380.048 175.45 380.165C177.708 380.196 179.38 379.367 180.773 377.773C181.779 376.619 182.534 375.332 182.858 373.776C183.07 372.763 182.943 371.86 182.506 370.996C181.571 369.158 180.262 367.609 178.526 366.48C176.685 365.285 174.812 364.138 172.914 363.03C171.404 362.152 169.855 361.337 168.299 360.547C167.244 360.014 166.144 359.573 165.064 359.09V359.097Z" fill="#FFB68A"/>
<path d="M358.839 357.693C356.743 359.291 354.45 360.593 352.217 361.976C348.837 364.068 345.444 366.135 342.053 368.206C341.771 368.379 341.457 368.506 341.157 368.654C341.006 369.878 341.535 370.975 341.817 372.114C342.304 374.09 342.956 376.006 343.891 377.819C344.625 379.244 345.613 380.454 346.805 381.516C347.684 382.299 348.728 382.673 349.878 382.761C350.439 382.804 351.007 382.786 351.571 382.79C360.825 382.804 370.078 382.818 379.328 382.832C379.554 382.832 379.783 382.807 380.005 382.832C383.346 383.192 387.505 378.983 386.384 374.499C386.013 373.014 385.551 371.557 384.27 370.548C384.006 370.34 383.755 370.107 383.466 369.941C382.538 369.409 381.61 368.872 380.658 368.386C374.985 365.482 369.309 362.589 363.629 359.7C362.426 359.086 361.202 358.511 359.992 357.912C359.625 357.732 359.241 357.686 358.842 357.7L358.839 357.693Z" fill="#FFB68A"/>
<path d="M381.466 302.547C380.171 305.214 378.852 307.87 377.585 310.555C376.319 313.239 375.105 315.949 373.878 318.648C373.67 319.106 373.469 319.572 373.31 320.048C372.968 321.092 373.109 321.498 374.033 322.204C374.163 322.302 374.336 322.338 374.492 322.405C374.993 322.221 375.497 322.087 375.977 322.465C377.324 322.415 378.492 321.83 379.554 321.096C382.052 319.371 384.609 317.73 386.948 315.776C388.991 314.072 390.825 312.181 392.381 310.029C393.831 308.025 395.281 306.018 396.695 303.986C398.731 301.062 400.368 297.932 401.38 294.496C402.072 292.15 402.276 289.751 402.118 287.317C401.913 287.113 401.867 286.894 402.054 286.651C401.536 283.476 400.16 280.727 398.057 278.293C396.456 276.438 394.579 274.995 392.349 273.996C391.996 274.053 391.721 273.912 391.485 273.665C390.539 273.372 389.58 273.174 388.585 273.171C388.292 273.453 387.908 273.428 387.544 273.467C387.537 273.958 387.209 274.37 387.4 274.935C388.052 276.861 388.243 278.861 388.232 280.893C388.225 281.916 387.943 282.89 387.897 283.892C387.812 285.691 387.495 287.465 387.047 289.183C386.412 291.618 385.798 294.066 384.824 296.412C384.002 298.387 383.121 300.321 381.974 302.127C381.861 302.303 381.639 302.409 381.466 302.55V302.547Z" fill="#894100"/>
<path d="M362.144 215.216C364.24 213.713 366.625 212.867 369.076 212.179C369.673 212.013 370.283 211.907 370.886 211.773C370.632 209.533 370.068 207.353 369.535 205.169C368.491 200.897 367.228 196.695 365.503 192.638C365.217 191.968 364.991 191.263 364.519 190.688C361.262 191.206 358.006 191.756 354.8 192.536C353.17 192.931 351.565 193.418 349.949 193.866C349.543 194.099 349.137 194.332 348.732 194.565C349.674 196.978 350.968 199.207 352.277 201.433C353.755 203.945 355.223 206.467 356.676 208.993C357.766 210.888 358.814 212.81 359.904 214.705C360.151 215.135 360.493 215.516 360.79 215.918C361.238 215.685 361.689 215.453 362.137 215.22L362.144 215.216Z" fill="#8A8ADD"/>
<path d="M381.466 302.547C381.639 302.405 381.861 302.3 381.974 302.123C383.12 300.317 384.006 298.384 384.824 296.408C385.798 294.062 386.412 291.614 387.047 289.18C387.495 287.462 387.812 285.687 387.897 283.888C387.943 282.886 388.225 281.913 388.232 280.889C388.243 278.854 388.052 276.854 387.399 274.931C387.209 274.367 387.537 273.954 387.544 273.463C387.488 273.379 387.466 273.291 387.477 273.188C387.17 273.015 386.867 272.846 386.56 272.673C386.189 272.652 385.921 272.49 385.794 272.126C385.699 272.102 385.618 272.056 385.547 271.989C384.958 271.872 384.429 271.661 384.087 271.128C383.995 271.107 383.914 271.065 383.843 271.001C383.339 271.015 382.997 270.627 382.566 270.465C382.429 271.195 382.506 271.887 382.679 272.624C383.318 275.404 383.889 278.198 384.426 281.002C384.56 281.711 384.57 282.48 384.45 283.19C384.277 284.188 384.235 285.197 384.073 286.185C383.942 286.961 383.896 287.74 383.78 288.513C383.632 289.504 383.367 290.489 383.06 291.445C382.316 293.745 381.448 295.995 380.072 298.01C379.43 298.952 379.035 299.996 378.728 301.083C379.744 301.379 380.534 302.091 381.466 302.547Z" fill="#5E3818"/>
<path d="M298.57 202.615C298.344 201.987 297.684 201.638 297.522 200.971C297.13 200.975 296.735 200.989 296.344 200.978C295.864 200.968 295.487 201.158 295.134 201.476C293.716 202.749 292.17 203.889 290.946 205.36C288.463 208.344 285.482 210.849 282.931 213.756C280.814 216.165 278.483 218.346 276.295 220.677C275.339 221.697 274.447 222.776 273.494 223.803C273.099 224.23 273.12 224.713 273.138 225.218C273.466 225.831 273.791 226.449 274.119 227.063C274.345 226.9 274.599 226.763 274.793 226.565C278.179 223.179 281.686 219.901 284.907 216.363C288.512 212.401 292.414 208.746 296.129 204.901C296.753 204.256 297.356 203.585 298.161 203.137C298.341 203.038 298.436 202.792 298.57 202.612V202.615Z" fill="#494A45"/>
<path d="M337.428 159.008C337.555 159.191 337.658 159.403 337.82 159.551C338.42 160.112 338.628 160.158 339.277 159.689C340.106 159.089 340.984 158.63 341.993 158.447C342.212 158.408 342.445 158.334 342.657 158.373C343.81 158.578 344.96 158.817 346.11 159.04C346.527 159.121 346.781 159.428 347.077 159.682C349.271 161.594 351.402 163.58 353.713 165.361C354.863 166.25 355.9 167.288 356.997 168.244C357.967 169.09 358.902 169.993 359.95 170.734C360.835 171.362 361.527 172.17 362.313 172.886C362.613 173.161 362.737 173.521 362.881 173.899C363.961 176.728 365.072 179.547 366.169 182.369C366.522 183.279 366.741 184.193 366.261 185.138C366.191 185.276 366.236 185.47 366.229 185.639C366.699 185.502 366.956 185.106 367.224 184.761C367.69 184.154 367.842 183.484 367.605 182.708C366.54 179.208 365.474 175.712 364.134 172.304C363.88 171.662 363.531 171.108 363.037 170.625C360.67 168.293 358.267 166.004 355.724 163.862C354.39 162.74 353.046 161.608 351.847 160.349C350.319 158.743 348.453 157.777 346.428 157.039C345.37 156.655 344.279 156.366 343.228 155.96C342.35 155.621 341.542 155.752 340.822 156.249C339.623 157.078 338.437 157.943 337.432 159.011L337.428 159.008Z" fill="#E8A67F"/>
<path d="M344.212 305.549C343.856 304.801 343.285 304.272 342.544 303.922C342.854 304.72 343.387 305.284 344.212 305.549Z" fill="#E7A37B"/>
<path d="M360.401 311.292C359.759 310.922 359.117 310.925 358.472 311.289C359.114 311.479 359.756 311.472 360.401 311.292Z" fill="#696D65"/>
<path d="M350.379 309.447C349.747 308.932 349.056 308.544 348.241 308.406C348.788 309.091 349.497 309.45 350.379 309.447Z" fill="#E7A37B"/>
<path d="M375.977 322.465C375.497 322.087 374.996 322.225 374.491 322.405C374.978 322.673 375.472 322.666 375.977 322.465Z" fill="#696D65"/>
<path d="M292.403 142.392C292.721 142.71 293.059 142.77 293.423 142.47C293.105 142.128 292.77 142.085 292.403 142.392Z" fill="#C2B1AE"/>
<path d="M284.953 142.47C285.316 142.773 285.651 142.713 285.972 142.399C285.609 142.085 285.27 142.131 284.953 142.47Z" fill="#C2B1AE"/>
<path d="M356.013 311.02C355.745 310.664 355.431 310.618 355.067 310.872C355.357 311.08 355.667 311.154 356.013 311.02Z" fill="#696D65"/>
<path d="M295.109 142.721C295.307 142.985 295.529 143.059 295.79 142.805C295.592 142.53 295.37 142.463 295.109 142.721Z" fill="#C2B1AE"/>
<path d="M391.488 273.661C391.725 273.908 392 274.049 392.353 273.993C392.166 273.622 391.869 273.527 391.488 273.661Z" fill="#894100"/>
<path d="M402.054 286.65C401.863 286.894 401.913 287.113 402.117 287.317C402.389 287.067 402.34 286.848 402.054 286.65Z" fill="#894100"/>
<path d="M282.586 142.791C282.847 143.045 283.069 142.982 283.267 142.71C283.006 142.445 282.783 142.523 282.586 142.791Z" fill="#C2B1AE"/>
<path d="M302.45 144.357C302.708 144.611 302.986 144.763 303.343 144.555C303.089 144.294 302.807 144.156 302.45 144.357Z" fill="#C2B1AE"/>
<path d="M346.272 307.196C346.167 306.844 345.923 306.674 345.563 306.66C345.637 307.055 345.891 307.214 346.272 307.196Z" fill="#E7A37B"/>
<path d="M280.553 143.161C280.874 143.461 281.111 143.249 281.347 143.031C281.044 142.84 280.783 142.893 280.553 143.161Z" fill="#C2B1AE"/>
<path d="M297.141 143.063C297.332 143.324 297.551 143.419 297.822 143.165C297.635 142.879 297.413 142.805 297.141 143.063Z" fill="#C2B1AE"/>
<path d="M347.296 307.859C347.169 307.517 346.918 307.362 346.559 307.373C346.657 307.761 346.918 307.898 347.296 307.859Z" fill="#E7A37B"/>
<path d="M354.443 310.763C354.199 310.541 353.935 310.435 353.61 310.579C353.843 310.844 354.111 310.936 354.443 310.763Z" fill="#E7A37B"/>
<path d="M387.481 273.192C387.47 273.29 387.491 273.382 387.548 273.467C387.911 273.428 388.292 273.453 388.588 273.171C388.218 273.033 387.851 273.121 387.484 273.192H387.481Z" fill="#894100"/>
<path d="M368.914 309.313C368.625 309.317 368.473 309.496 368.371 309.74C368.66 309.736 368.826 309.574 368.914 309.313Z" fill="#C2B1AE"/>
<path d="M368.283 309.807C368.106 309.793 367.993 309.867 367.941 310.036C368.124 310.068 368.247 310.001 368.283 309.807Z" fill="#C2B1AE"/>
<path d="M367.919 310.047C367.785 310.072 367.651 310.096 367.517 310.121C367.704 310.393 367.831 310.311 367.919 310.047Z" fill="#C2B1AE"/>
<path d="M352.411 310.244C352.305 310.065 352.154 310.015 351.96 310.079C352.065 310.259 352.214 310.322 352.411 310.244Z" fill="#C2B1AE"/>
<path d="M283.88 142.622C284.057 142.713 284.208 142.678 284.339 142.53C284.162 142.445 284.011 142.48 283.88 142.622Z" fill="#C2B1AE"/>
<path d="M342.978 313.666C342.921 313.853 342.992 313.994 343.143 314.1C343.196 313.913 343.136 313.768 342.978 313.666Z" fill="#C2B1AE"/>
<path d="M369.916 259.592C370.025 259.744 370.152 259.822 370.339 259.716C370.237 259.547 370.092 259.515 369.916 259.592Z" fill="#E7A37B"/>
<path d="M294.037 142.537C294.167 142.685 294.319 142.724 294.499 142.636C294.368 142.491 294.217 142.452 294.037 142.537Z" fill="#C2B1AE"/>
<path d="M336.109 247.446C337.125 245.203 338.123 242.952 339.432 240.86C339.496 240.355 339.721 239.928 340.088 239.576C340.155 239.396 340.247 239.244 340.466 239.223L340.42 239.198C340.42 238.694 340.402 238.21 340.208 237.713C338.018 232.104 336.077 226.403 334.091 220.72C332.698 216.737 331.269 212.768 329.858 208.789C329.427 207.572 329.022 206.34 328.584 205.127C328.443 204.732 328.129 204.605 327.783 204.831C326.651 205.564 325.515 206.298 324.432 207.099C321.395 209.336 318.452 211.682 315.725 214.306C314.226 215.749 312.667 217.128 311.288 218.695C311.467 219.432 311.905 220.018 312.441 220.522C313.147 221.185 313.443 221.99 313.387 222.942C313.369 223.221 313.408 223.507 313.379 223.785C313.168 225.937 314.064 227.719 315.232 229.412C317.288 232.4 319.864 234.877 322.746 237.064C323.54 237.667 324.439 238.175 325.056 239.001C325.346 239.015 325.589 239.135 325.815 239.318C327.6 240.772 329.371 242.236 331.177 243.661C332.803 244.945 334.469 246.187 336.116 247.446H336.109Z" fill="#8A89DD"/>
<path d="M341.002 301.88C340.889 301.598 340.751 301.337 340.466 301.188C340.533 301.502 340.466 301.926 341.002 301.88Z" fill="#C2B1AE"/>
<path d="M340.088 239.575C339.722 239.928 339.496 240.352 339.432 240.86C339.722 242.246 340.314 243.53 340.9 244.8C341.983 247.153 343.179 249.45 344.724 251.545C345.094 252.046 345.479 252.522 345.899 252.974C346.244 253.344 346.604 253.708 346.883 254.124C347.172 254.554 347.543 254.865 347.941 255.186C349.12 256.142 350.245 257.168 351.564 257.927C354.722 259.744 358.01 260.135 361.421 258.714C362.201 258.389 362.882 257.874 363.527 257.327C365.407 255.722 366.73 253.725 367.715 251.471C368.713 249.185 369.136 246.758 369.567 244.327C369.644 243.89 369.588 243.428 369.591 242.976C369.602 242.359 369.62 241.756 369.785 241.138C370.036 240.207 369.997 239.247 369.785 238.295C369.701 237.914 369.598 237.522 369.602 237.138C369.62 233.85 368.886 230.696 368.011 227.549C367.182 224.561 366.208 221.637 364.822 218.857C364.674 218.557 364.589 218.225 364.465 217.911C363.996 216.747 363.347 215.735 362.137 215.209C361.689 215.442 361.238 215.675 360.79 215.908C360.768 217.29 361.308 218.55 361.767 219.799C362.483 221.75 363.213 223.693 363.88 225.665C364.617 227.853 365.051 230.103 365.541 232.351C366.24 235.564 366.367 238.824 366.166 242.073C365.93 245.851 365.111 249.499 362.878 252.713C361.636 254.501 359.985 255.496 357.879 255.8C356.786 255.958 355.755 255.581 354.778 255.175C353.424 254.614 352.238 253.785 351.116 252.808C348.273 250.328 346.223 247.287 344.53 243.967C344.071 243.064 343.521 242.179 343.242 241.219C342.808 239.734 341.955 239.039 340.413 239.194C340.413 239.194 340.459 239.219 340.455 239.219C340.328 239.336 340.205 239.455 340.078 239.572L340.088 239.575Z" fill="#E7A37B"/>
<path d="M319.144 182.881C319.151 183.512 319.179 183.999 319.363 184.496C320.266 186.92 321.102 189.368 322.009 191.788C323.113 194.734 324.245 197.673 325.413 200.594C325.66 201.211 326.087 201.761 326.475 202.312C326.725 202.668 327.131 202.724 327.544 202.633C327.985 202.534 328.228 202.241 328.256 201.804C328.299 201.186 328.271 200.583 328.129 199.962C327.618 197.708 326.888 195.524 326.136 193.347C325.29 190.903 324.591 188.409 323.586 186.017C323.303 185.35 323.279 184.56 322.933 183.939C322.425 183.025 322.605 182.418 323.318 181.716C324.196 180.856 324.972 179.882 325.745 178.919C327.396 176.862 329.033 174.795 330.641 172.706C332.116 170.794 333.538 168.843 334.995 166.921C335.672 166.025 336.399 165.168 337.055 164.261C337.51 163.629 338.004 163.019 338.215 162.225C338.491 161.195 337.866 160.155 336.811 160.035C336.282 159.975 335.838 160.119 335.421 160.49C334.444 161.358 333.679 162.405 332.892 163.425C331.142 165.69 329.403 167.962 327.706 170.265C325.24 173.61 322.63 176.844 320.361 180.337C320.178 180.619 320.037 180.951 319.797 181.173C319.25 181.681 319.056 182.284 319.137 182.873L319.144 182.881Z" fill="#E7A37B"/>
<path d="M348.739 194.561C349.144 194.328 349.55 194.096 349.956 193.863C350.065 192.939 349.846 192.057 349.462 191.242C348.858 189.972 348.287 188.688 347.514 187.499C347.088 186.843 346.763 186.116 346.41 185.41C346.132 184.853 346.156 184.292 346.64 183.862C348.241 182.433 349.448 180.637 350.982 179.148C351.183 178.951 351.384 178.753 351.596 178.57C351.839 178.355 352.108 178.351 352.358 178.549C352.534 178.686 352.711 178.838 352.848 179.011C353.625 179.97 354.355 180.965 355.159 181.897C356.627 183.6 358.052 185.34 359.692 186.888C360.31 187.47 360.98 187.527 361.721 187.403C362.25 187.315 362.716 186.783 362.797 186.236C362.91 185.481 362.814 184.729 362.313 184.154C361.65 183.389 361.114 182.532 360.412 181.791C359.297 180.612 358.341 179.282 357.251 178.079C356.232 176.954 355.173 175.846 354.034 174.845C353.007 173.941 351.677 174.079 350.492 174.4C349.758 174.598 349.285 175.384 348.777 175.988C347.761 177.183 346.767 178.397 345.775 179.614C344.89 180.701 344.071 181.847 343.136 182.884C342.286 183.826 342.343 184.825 342.752 185.858C343.062 186.641 343.426 187.421 343.884 188.123C344.565 189.167 345.07 190.296 345.662 191.383C346.012 192.021 346.393 192.649 346.823 193.242C347.296 193.895 347.934 194.353 348.731 194.561H348.739Z" fill="#E7A37B"/>
<path d="M353.981 278.872C353.674 279.094 353.688 279.39 353.784 279.708C354.055 279.478 354.299 279.242 353.981 278.872Z" fill="#E7A37B"/>
<path d="M340.088 239.575C340.215 239.459 340.339 239.339 340.466 239.223C340.251 239.244 340.155 239.396 340.088 239.575Z" fill="#FFB68A"/>
</svg>
