<svg width="500" height="500" viewBox="0 0 500 500" fill="none" xmlns="http://www.w3.org/2000/svg">
<path d="M165.065 396.912C167.555 393.289 170.176 389.764 172.851 386.275C182.513 373.649 192.148 361.002 201.768 348.345C205.246 343.766 208.686 339.158 212.094 334.523C214.034 331.88 216.189 329.422 218.362 326.98C221.587 323.357 224.765 319.699 227.715 315.843C228.847 314.361 230.099 312.989 231.355 311.617C239.307 302.917 247.061 294.045 254.614 284.996C260.467 277.983 266.326 270.977 272.186 263.971C272.472 263.628 272.708 263.226 273.145 263.039C273.128 262.535 273.103 262.051 273.502 261.625C274.454 260.598 275.347 259.519 276.303 258.499C278.487 256.167 280.822 253.983 282.939 251.578C285.489 248.674 288.474 246.166 290.954 243.181C292.178 241.71 293.723 240.571 295.141 239.297C295.494 238.983 295.871 238.789 296.351 238.8C296.743 238.81 297.138 238.796 297.53 238.793C297.731 238.027 297.822 237.248 297.829 236.454C297.833 235.889 297.858 235.325 297.911 234.768C298.087 232.923 298.295 231.078 298.471 229.233C298.736 226.435 298.934 223.627 299.258 220.836C299.389 219.718 299.477 218.596 299.597 217.481C299.773 215.862 299.988 214.246 300.154 212.624C300.316 211.057 300.359 209.473 300.613 207.925C300.824 206.641 300.828 205.346 301.004 204.065C301.216 202.506 301.375 200.94 301.541 199.373C301.699 197.863 301.819 196.35 301.982 194.84C302.285 192.046 302.578 189.252 302.931 186.465C303.1 185.139 303.086 183.759 303.749 182.532C303.615 182.482 303.481 182.429 303.347 182.38C302.991 182.588 302.708 182.44 302.454 182.182C300.913 181.784 299.368 181.389 297.826 180.99C297.554 181.241 297.339 181.145 297.145 180.888C296.693 180.803 296.245 180.715 295.794 180.63C295.533 180.884 295.311 180.81 295.113 180.546C294.908 180.517 294.704 180.489 294.499 180.461C294.319 180.549 294.168 180.51 294.037 180.362C293.832 180.337 293.628 180.316 293.423 180.292C293.06 180.591 292.721 180.531 292.404 180.214C290.262 180.027 288.117 180.045 285.976 180.221C285.655 180.535 285.316 180.595 284.957 180.292C284.752 180.313 284.544 180.334 284.339 180.355C284.209 180.5 284.057 180.538 283.881 180.447C283.676 180.475 283.471 180.503 283.267 180.531C283.069 180.803 282.847 180.867 282.586 180.613C282.173 180.694 281.76 180.771 281.348 180.852C281.111 181.071 280.875 181.279 280.554 180.983C272.398 182.736 265.275 186.649 258.632 191.542C257.408 192.445 256.254 193.443 255.059 194.385C253.086 195.941 251.566 197.892 250.116 199.913C247.248 203.91 244.856 208.179 242.563 212.525C230.618 235.163 219.28 258.111 207.846 281.006C206.336 284.033 204.819 287.056 203.338 290.097C202.953 290.888 202.47 291.544 201.69 291.957C196.395 294.779 192.49 299.164 188.673 303.63C183.06 310.206 178.163 317.307 173.468 324.55C166.31 335.581 159.886 347.032 154.09 358.836C151.952 363.186 149.934 367.596 148.015 372.048C146.964 374.486 146.276 377.047 145.418 379.551C144.194 383.129 143.334 386.801 142.476 390.477C143.041 390.466 143.584 390.569 144.127 390.731C146.11 391.331 148.107 391.888 150.093 392.484C154.866 393.92 159.71 395.12 164.394 396.838C164.599 396.912 164.835 396.894 165.058 396.919L165.065 396.912Z" fill="#696E66"/>
<path d="M342.978 351.481C342.336 349.399 341.983 347.251 341.549 345.124C341.327 344.034 341.116 342.94 340.918 341.843C340.83 341.353 340.777 340.852 340.749 340.354C340.735 340.114 340.921 339.963 341.154 339.899C341.165 339.786 341.112 339.719 340.999 339.698C340.463 339.744 340.533 339.321 340.463 339.007C340.477 338.823 340.491 338.636 340.505 338.453C340.04 338.192 340.043 337.691 339.962 337.271C339.782 336.315 339.387 335.454 338.939 334.607C338.544 333.863 338.149 333.115 337.778 332.36C336.752 330.261 335.344 328.462 333.57 326.938C332.631 326.134 331.725 325.291 330.797 324.476C329.488 323.326 328.19 322.165 326.86 321.043C325.403 319.819 325.24 319.12 326.108 317.417C326.186 317.268 326.292 317.131 326.369 316.983C327.241 315.385 328.49 314.086 329.707 312.763C330.391 312.019 331.139 311.335 331.859 310.622C332.109 310.375 332.25 310.096 332.204 309.722C331.993 307.997 331.873 306.255 331.569 304.544C331.262 302.794 331.209 301.09 331.725 299.382C330.913 296.289 329.954 293.237 328.98 290.189C327.717 286.234 326.514 282.255 325.3 278.286C325.156 277.81 324.898 277.344 325.046 276.815C324.429 275.99 323.53 275.482 322.736 274.878C319.854 272.691 317.282 270.215 315.222 267.227C314.054 265.53 313.158 263.748 313.369 261.6C313.398 261.321 313.359 261.039 313.377 260.757C313.433 259.804 313.137 259 312.431 258.337C311.895 257.832 311.457 257.247 311.277 256.513C310.103 255.514 309.373 254.163 308.487 252.943C305.781 249.221 303.079 245.503 299.967 242.098C299.477 241.562 299.033 240.987 298.563 240.43C298.429 240.61 298.331 240.857 298.154 240.955C297.35 241.403 296.743 242.074 296.122 242.719C292.407 246.565 288.506 250.219 284.9 254.181C281.679 257.719 278.173 260.997 274.786 264.383C274.592 264.577 274.338 264.715 274.112 264.881C274.084 265.308 274.349 265.629 274.518 265.974C276.987 270.977 279.418 276 281.962 280.964C284.615 286.132 286.936 291.448 289.352 296.726C292.94 304.565 296.528 312.4 300.116 320.239C300.327 320.701 300.518 321.174 300.758 321.618C301.227 322.493 301.329 323.386 301.23 324.384C300.867 328.19 301.47 331.912 302.37 335.599C303.911 341.913 306.183 347.978 308.843 353.897C313.638 364.555 319.275 374.757 325.6 384.582C329.968 391.366 334.67 397.903 339.726 404.193C340.294 404.899 340.816 405.625 341.151 406.472C341.451 406.324 341.761 406.2 342.047 406.024C345.437 403.953 348.834 401.886 352.21 399.794C354.447 398.411 356.737 397.109 358.832 395.511C357.396 391.373 355.893 387.26 354.546 383.093C352.814 377.742 350.679 372.542 348.834 367.236C347.155 362.406 345.465 357.58 343.447 352.878C343.317 352.571 343.239 352.239 343.137 351.918C342.985 351.809 342.911 351.671 342.971 351.484L342.978 351.481Z" fill="#696D65"/>
<path d="M298.57 240.43C299.035 240.987 299.483 241.562 299.974 242.098C303.085 245.499 305.787 249.221 308.493 252.943C309.379 254.16 310.109 255.514 311.287 256.509C312.667 254.943 314.226 253.567 315.725 252.121C318.452 249.496 321.391 247.15 324.432 244.913C325.518 244.113 326.651 243.379 327.783 242.645C328.132 242.419 328.443 242.546 328.584 242.941C329.021 244.158 329.427 245.386 329.858 246.603C331.265 250.583 332.697 254.551 334.091 258.534C336.081 264.217 338.017 269.918 340.208 275.528C340.402 276.025 340.416 276.508 340.42 277.013C341.958 276.857 342.812 277.552 343.249 279.038C343.531 279.997 344.078 280.883 344.537 281.786C346.23 285.105 348.28 288.146 351.123 290.626C352.245 291.604 353.43 292.436 354.785 292.994C355.762 293.399 356.792 293.773 357.886 293.618C359.988 293.315 361.639 292.32 362.885 290.531C365.118 287.317 365.936 283.673 366.173 279.891C366.377 276.642 366.247 273.386 365.548 270.169C365.058 267.922 364.624 265.671 363.887 263.484C363.223 261.512 362.493 259.568 361.773 257.617C361.315 256.368 360.775 255.109 360.796 253.726C360.5 253.324 360.158 252.943 359.911 252.512C358.821 250.618 357.773 248.695 356.683 246.801C355.229 244.271 353.762 241.752 352.284 239.241C350.975 237.015 349.68 234.789 348.738 232.372C347.941 232.164 347.302 231.705 346.83 231.053C346.403 230.464 346.018 229.836 345.669 229.194C345.076 228.107 344.575 226.978 343.891 225.934C343.432 225.232 343.069 224.452 342.759 223.669C342.349 222.632 342.293 221.637 343.143 220.695C344.082 219.658 344.9 218.511 345.782 217.425C346.773 216.208 347.768 214.994 348.784 213.798C349.292 213.199 349.765 212.412 350.499 212.211C351.684 211.89 353.014 211.752 354.04 212.655C355.18 213.657 356.235 214.765 357.258 215.89C358.348 217.093 359.304 218.423 360.419 219.602C361.121 220.342 361.657 221.2 362.32 221.965C362.818 222.54 362.916 223.292 362.803 224.047C362.722 224.593 362.257 225.126 361.727 225.214C360.987 225.338 360.316 225.285 359.699 224.699C358.059 223.15 356.633 221.411 355.166 219.707C354.361 218.776 353.628 217.781 352.855 216.822C352.714 216.649 352.541 216.497 352.365 216.36C352.114 216.162 351.846 216.169 351.603 216.381C351.391 216.568 351.19 216.765 350.989 216.959C349.454 218.448 348.248 220.24 346.646 221.672C346.163 222.103 346.142 222.66 346.417 223.221C346.766 223.927 347.091 224.653 347.521 225.309C348.294 226.498 348.865 227.782 349.468 229.052C349.857 229.867 350.072 230.749 349.962 231.674C351.578 231.229 353.183 230.739 354.813 230.344C358.02 229.564 361.272 229.014 364.532 228.495C364.55 227.673 363.996 227.042 363.798 226.287C363.565 225.405 363.506 225.373 364.218 224.918C364.924 224.47 365.386 223.694 366.232 223.454C366.24 223.285 366.194 223.091 366.264 222.953C366.744 222.007 366.525 221.094 366.173 220.184C365.075 217.361 363.968 214.543 362.885 211.713C362.74 211.339 362.62 210.976 362.317 210.701C361.53 209.981 360.842 209.177 359.953 208.549C358.905 207.808 357.97 206.905 357 206.058C355.903 205.102 354.866 204.062 353.716 203.176C351.405 201.395 349.274 199.409 347.08 197.496C346.784 197.239 346.533 196.932 346.114 196.854C344.96 196.636 343.813 196.396 342.66 196.188C342.452 196.149 342.215 196.223 341.997 196.262C340.988 196.445 340.109 196.904 339.28 197.503C338.631 197.973 338.423 197.927 337.823 197.366C337.664 197.218 337.562 197.006 337.432 196.823C337.075 196.83 336.797 196.66 336.511 196.466C331.65 193.2 326.467 190.487 321.151 188.081C316.713 186.073 312.183 184.214 307.393 183.138C306.19 182.87 304.994 182.563 303.752 182.521C303.089 183.749 303.103 185.128 302.933 186.454C302.581 189.241 302.284 192.035 301.984 194.829C301.822 196.339 301.702 197.853 301.543 199.363C301.381 200.929 301.222 202.495 301.007 204.055C300.831 205.339 300.827 206.63 300.616 207.914C300.362 209.463 300.323 211.047 300.157 212.613C299.988 214.232 299.773 215.852 299.6 217.471C299.48 218.589 299.388 219.707 299.261 220.826C298.936 223.616 298.739 226.424 298.474 229.222C298.301 231.067 298.093 232.912 297.913 234.757C297.86 235.318 297.836 235.882 297.832 236.443C297.825 237.237 297.733 238.017 297.532 238.782C297.695 239.449 298.354 239.798 298.58 240.426L298.57 240.43ZM319.144 220.695C319.059 220.102 319.257 219.503 319.803 218.995C320.043 218.773 320.184 218.441 320.368 218.159C322.633 214.67 325.247 211.431 327.713 208.087C329.409 205.783 331.149 203.508 332.898 201.246C333.689 200.227 334.451 199.179 335.428 198.311C335.844 197.941 336.289 197.796 336.818 197.856C337.873 197.976 338.497 199.017 338.222 200.047C338.01 200.841 337.52 201.451 337.061 202.083C336.405 202.989 335.678 203.85 335.001 204.743C333.544 206.669 332.122 208.62 330.648 210.528C329.039 212.617 327.402 214.684 325.751 216.741C324.979 217.704 324.202 218.677 323.324 219.538C322.608 220.24 322.431 220.847 322.939 221.761C323.285 222.381 323.31 223.172 323.592 223.838C324.598 226.23 325.296 228.724 326.143 231.169C326.894 233.346 327.628 235.53 328.136 237.784C328.277 238.405 328.305 239.008 328.263 239.625C328.231 240.063 327.988 240.355 327.55 240.454C327.138 240.546 326.732 240.49 326.481 240.133C326.093 239.583 325.666 239.033 325.42 238.415C324.252 235.494 323.119 232.556 322.015 229.61C321.109 227.19 320.272 224.742 319.369 222.318C319.186 221.821 319.158 221.334 319.151 220.702L319.144 220.695Z" fill="#FFB68A"/>
<path d="M341.002 339.694C341.115 339.715 341.168 339.782 341.157 339.895C341.461 340.629 342.096 341.109 342.54 341.737C343.281 342.089 343.853 342.619 344.209 343.363C344.661 343.733 345.112 344.104 345.56 344.474C345.92 344.488 346.163 344.661 346.269 345.01C346.364 345.07 346.456 345.127 346.551 345.187C346.911 345.176 347.162 345.331 347.289 345.674C347.603 345.857 347.92 346.041 348.234 346.22C349.049 346.358 349.741 346.746 350.372 347.261C350.898 347.469 351.427 347.681 351.952 347.889C352.146 347.826 352.298 347.875 352.404 348.055C352.806 348.168 353.205 348.281 353.607 348.394C353.928 348.249 354.196 348.355 354.44 348.577C354.648 348.612 354.856 348.651 355.064 348.686C355.427 348.432 355.741 348.478 356.009 348.835C356.821 349.025 357.632 349.177 358.472 349.103C359.114 348.739 359.759 348.736 360.401 349.106C362.455 349.113 364.43 348.665 366.381 348.087C366.755 347.974 367.108 347.759 367.517 347.935C367.651 347.91 367.785 347.886 367.919 347.861L367.94 347.85C367.993 347.685 368.106 347.607 368.283 347.621L368.371 347.554C368.473 347.311 368.625 347.131 368.914 347.127C369.284 346.877 369.63 346.587 370.025 346.383C372.78 344.936 375.155 343.017 377.173 340.654C377.681 340.057 378.21 339.479 378.728 338.893C379.039 337.807 379.43 336.762 380.072 335.821C381.448 333.806 382.316 331.555 383.06 329.255C383.371 328.299 383.632 327.315 383.78 326.324C383.897 325.551 383.942 324.775 384.073 323.995C384.239 323.008 384.281 321.999 384.45 321C384.574 320.291 384.56 319.522 384.426 318.813C383.889 316.012 383.318 313.215 382.679 310.435C382.51 309.697 382.429 309.006 382.567 308.276C382.531 308.138 382.492 308 382.457 307.863C382.15 307.397 381.833 306.935 381.533 306.462C379.892 303.869 377.829 301.679 375.31 299.922C373.779 298.853 372.124 298.045 370.332 297.523C370.149 297.629 370.018 297.551 369.909 297.399C369.591 297.357 369.274 297.315 368.953 297.272C367.972 297.967 367.249 298.909 366.483 299.809C363.012 303.891 359.541 307.976 356.073 312.057C354.013 314.485 354.489 313.613 353.97 316.675C354.291 317.046 354.044 317.282 353.773 317.511C353.699 320.334 352.979 323.071 352.63 325.855C352.584 326.218 352.316 326.43 352.072 326.666C348.696 329.975 345.327 333.288 341.951 336.597C341.387 337.151 340.865 337.733 340.494 338.438C340.48 338.622 340.466 338.809 340.452 338.992C340.734 339.14 340.875 339.401 340.988 339.684L341.002 339.694Z" fill="#884100"/>
<path d="M340.508 338.449C340.879 337.743 341.397 337.161 341.965 336.607C345.341 333.302 348.71 329.986 352.087 326.677C352.33 326.44 352.595 326.229 352.644 325.865C352.997 323.078 353.713 320.344 353.787 317.522C353.692 317.205 353.678 316.908 353.984 316.686C354.503 313.627 354.023 314.495 356.087 312.068C359.555 307.983 363.026 303.901 366.498 299.82C367.263 298.92 367.986 297.975 368.967 297.283C368.805 296.059 368.695 294.821 368.455 293.611C368.35 293.071 368.378 292.634 368.628 292.161C370.597 288.492 371.599 284.516 372.332 280.459C372.812 277.792 373.006 275.104 372.978 272.395C372.957 270.476 373.056 268.553 372.925 266.644C372.766 264.348 372.735 262.037 372.382 259.751C372.184 258.474 372.149 257.172 371.955 255.895C371.634 253.786 371.486 251.648 370.89 249.584C370.286 249.718 369.673 249.824 369.08 249.99C366.628 250.678 364.243 251.528 362.148 253.027C363.358 253.553 364.007 254.565 364.476 255.729C364.603 256.04 364.684 256.375 364.832 256.675C366.219 259.455 367.189 262.379 368.022 265.367C368.896 268.511 369.63 271.664 369.613 274.956C369.613 275.34 369.711 275.732 369.796 276.113C370.008 277.062 370.046 278.025 369.796 278.956C369.63 279.57 369.609 280.177 369.602 280.794C369.595 281.246 369.655 281.708 369.577 282.145C369.147 284.573 368.724 287 367.725 289.289C366.741 291.543 365.422 293.54 363.538 295.145C362.892 295.696 362.215 296.207 361.432 296.532C358.017 297.953 354.732 297.562 351.575 295.745C350.256 294.987 349.13 293.96 347.952 293.004C347.553 292.679 347.183 292.372 346.894 291.942C346.615 291.526 346.255 291.162 345.909 290.792C345.486 290.34 345.102 289.864 344.735 289.363C343.186 287.264 341.99 284.968 340.91 282.618C340.325 281.348 339.732 280.064 339.443 278.674C338.134 280.77 337.136 283.02 336.12 285.264C336.222 285.398 336.3 285.557 336.423 285.663C337.446 286.538 338.469 287.409 339.506 288.266C339.898 288.591 340.3 288.891 340.48 289.395C340.858 290.457 341.189 291.519 341.207 292.665C341.217 293.311 341.002 293.717 340.417 293.999C339.051 294.658 337.707 295.361 336.349 296.041C335.344 296.546 334.352 297.082 333.485 297.802C332.881 298.303 332.32 298.853 331.738 299.382C331.223 301.09 331.276 302.797 331.583 304.543C331.886 306.254 332.006 307.994 332.218 309.722C332.264 310.096 332.123 310.375 331.872 310.622C331.153 311.334 330.405 312.019 329.72 312.763C328.503 314.086 327.254 315.384 326.383 316.982C326.302 317.13 326.196 317.265 326.122 317.416C325.251 319.12 325.416 319.819 326.873 321.043C328.207 322.165 329.505 323.325 330.81 324.475C331.738 325.29 332.645 326.133 333.583 326.938C335.354 328.462 336.762 330.257 337.792 332.36C338.162 333.118 338.557 333.863 338.953 334.607C339.401 335.454 339.796 336.311 339.976 337.271C340.053 337.687 340.053 338.191 340.519 338.452L340.508 338.449Z" fill="#FFB68A"/>
<path d="M165.065 396.911C164.842 396.887 164.603 396.904 164.402 396.83C159.717 395.112 154.869 393.913 150.1 392.477C148.114 391.881 146.117 391.323 144.134 390.724C143.591 390.558 143.048 390.459 142.483 390.47C141.824 391.034 141.418 391.768 141.122 392.569C140.536 394.156 140.06 395.775 139.756 397.44C139.375 399.543 138.874 401.631 139.005 403.794C139.005 403.85 139.005 403.907 138.998 403.963C138.441 407.735 139.7 411.061 141.566 414.211C143.006 416.646 145.27 417.743 148.04 417.866C148.996 417.909 149.959 417.898 150.915 417.902C159.092 417.916 167.273 417.863 175.451 417.979C177.708 418.011 179.38 417.182 180.774 415.587C181.779 414.434 182.534 413.146 182.859 411.59C183.071 410.578 182.944 409.675 182.506 408.81C181.571 406.972 180.262 405.424 178.527 404.295C176.685 403.099 174.812 401.952 172.914 400.845C171.404 399.966 169.855 399.151 168.3 398.361C167.245 397.828 166.144 397.388 165.065 396.904V396.911Z" fill="#FFB68A"/>
<path d="M358.839 395.508C356.743 397.106 354.45 398.408 352.217 399.791C348.837 401.883 345.444 403.95 342.053 406.021C341.771 406.193 341.457 406.32 341.157 406.469C341.006 407.693 341.535 408.79 341.817 409.929C342.304 411.905 342.956 413.821 343.891 415.634C344.625 417.059 345.613 418.269 346.805 419.331C347.684 420.114 348.728 420.488 349.878 420.576C350.439 420.619 351.007 420.601 351.571 420.604C360.825 420.619 370.078 420.633 379.328 420.647C379.554 420.647 379.783 420.622 380.005 420.647C383.346 421.007 387.505 416.798 386.384 412.314C386.013 410.829 385.551 409.372 384.27 408.363C384.006 408.155 383.755 407.922 383.466 407.756C382.538 407.224 381.61 406.687 380.658 406.201C374.985 403.297 369.309 400.404 363.629 397.515C362.426 396.901 361.202 396.326 359.992 395.727C359.625 395.547 359.241 395.501 358.842 395.515L358.839 395.508Z" fill="#FFB68A"/>
<path d="M381.466 340.361C380.171 343.028 378.851 345.685 377.585 348.369C376.318 351.054 375.105 353.763 373.877 356.462C373.669 356.921 373.468 357.386 373.309 357.863C372.967 358.907 373.108 359.312 374.032 360.018C374.163 360.117 374.336 360.152 374.491 360.219C374.992 360.036 375.497 359.902 375.976 360.279C377.324 360.23 378.492 359.644 379.553 358.91C382.051 357.185 384.609 355.545 386.948 353.59C388.99 351.886 390.825 349.996 392.38 347.844C393.83 345.84 395.28 343.833 396.695 341.801C398.73 338.876 400.367 335.747 401.38 332.311C402.071 329.965 402.276 327.566 402.117 325.132C401.913 324.927 401.867 324.708 402.054 324.465C401.535 321.29 400.159 318.542 398.057 316.108C396.455 314.252 394.578 312.809 392.349 311.811C391.996 311.867 391.721 311.726 391.484 311.479C390.539 311.186 389.579 310.989 388.585 310.985C388.292 311.268 387.907 311.243 387.544 311.282C387.537 311.772 387.209 312.185 387.399 312.749C388.052 314.675 388.242 316.676 388.232 318.708C388.225 319.731 387.943 320.704 387.897 321.706C387.812 323.505 387.495 325.28 387.046 326.998C386.411 329.432 385.798 331.88 384.824 334.226C384.002 336.202 383.12 338.135 381.974 339.941C381.861 340.118 381.638 340.224 381.466 340.365V340.361Z" fill="#894100"/>
<path d="M362.144 253.031C364.239 251.528 366.624 250.681 369.076 249.993C369.672 249.827 370.282 249.722 370.886 249.588C370.632 247.347 370.067 245.167 369.535 242.984C368.49 238.711 367.227 234.51 365.502 230.453C365.217 229.783 364.991 229.077 364.518 228.502C361.262 229.021 358.006 229.571 354.799 230.351C353.169 230.746 351.564 231.232 349.948 231.68C349.543 231.913 349.137 232.146 348.731 232.379C349.673 234.792 350.968 237.022 352.277 239.248C353.755 241.759 355.222 244.282 356.676 246.808C357.766 248.702 358.814 250.625 359.904 252.519C360.151 252.949 360.493 253.33 360.789 253.733C361.237 253.5 361.689 253.267 362.137 253.034L362.144 253.031Z" fill="#8A8ADD"/>
<path d="M381.466 340.361C381.639 340.22 381.861 340.114 381.974 339.938C383.12 338.131 384.006 336.198 384.824 334.223C385.798 331.877 386.412 329.428 387.047 326.994C387.495 325.276 387.812 323.502 387.897 321.703C387.943 320.701 388.225 319.727 388.232 318.704C388.243 316.668 388.052 314.668 387.399 312.745C387.209 312.181 387.537 311.768 387.544 311.278C387.488 311.193 387.466 311.105 387.477 311.003C387.17 310.83 386.867 310.661 386.56 310.488C386.189 310.467 385.921 310.304 385.794 309.941C385.699 309.916 385.618 309.87 385.547 309.803C384.958 309.687 384.429 309.475 384.087 308.943C383.995 308.921 383.914 308.879 383.843 308.816C383.339 308.83 382.997 308.442 382.566 308.279C382.429 309.01 382.506 309.701 382.679 310.438C383.318 313.218 383.889 316.012 384.426 318.817C384.56 319.526 384.57 320.295 384.45 321.004C384.277 322.002 384.235 323.011 384.073 323.999C383.942 324.775 383.896 325.555 383.78 326.327C383.632 327.319 383.367 328.303 383.06 329.259C382.316 331.559 381.448 333.81 380.072 335.824C379.43 336.766 379.035 337.81 378.728 338.897C379.744 339.193 380.534 339.906 381.466 340.361Z" fill="#5E3818"/>
<path d="M298.57 240.43C298.345 239.802 297.685 239.452 297.523 238.786C297.131 238.789 296.736 238.803 296.344 238.793C295.865 238.782 295.487 238.973 295.134 239.29C293.716 240.564 292.171 241.703 290.947 243.174C288.463 246.159 285.482 248.663 282.932 251.57C280.815 253.98 278.483 256.16 276.296 258.492C275.34 259.511 274.447 260.591 273.495 261.617C273.1 262.044 273.121 262.528 273.139 263.032C273.467 263.646 273.791 264.263 274.119 264.877C274.345 264.715 274.599 264.577 274.793 264.38C278.18 260.993 281.686 257.716 284.907 254.177C288.513 250.216 292.414 246.561 296.129 242.716C296.753 242.07 297.357 241.4 298.161 240.952C298.341 240.853 298.436 240.606 298.57 240.426V240.43Z" fill="#494A45"/>
<path d="M337.428 196.822C337.555 197.006 337.657 197.218 337.82 197.366C338.419 197.927 338.627 197.972 339.277 197.503C340.106 196.904 340.984 196.445 341.993 196.261C342.212 196.223 342.445 196.149 342.656 196.187C343.81 196.392 344.96 196.632 346.11 196.854C346.526 196.935 346.78 197.242 347.077 197.496C349.271 199.408 351.402 201.394 353.712 203.176C354.862 204.065 355.899 205.102 356.997 206.058C357.967 206.905 358.902 207.808 359.949 208.549C360.835 209.177 361.526 209.985 362.313 210.701C362.613 210.976 362.736 211.336 362.881 211.713C363.96 214.542 365.072 217.361 366.169 220.183C366.522 221.094 366.74 222.007 366.261 222.953C366.19 223.09 366.236 223.284 366.229 223.454C366.698 223.316 366.956 222.921 367.224 222.575C367.689 221.968 367.841 221.298 367.605 220.522C366.539 217.022 365.474 213.526 364.133 210.119C363.879 209.477 363.53 208.923 363.036 208.439C360.669 206.108 358.267 203.818 355.723 201.677C354.39 200.555 353.046 199.422 351.846 198.163C350.319 196.558 348.452 195.591 346.427 194.854C345.369 194.469 344.279 194.18 343.228 193.774C342.349 193.436 341.541 193.566 340.822 194.064C339.622 194.893 338.437 195.757 337.432 196.826L337.428 196.822Z" fill="#E8A67F"/>
<path d="M344.213 343.363C343.857 342.615 343.285 342.086 342.544 341.737C342.855 342.534 343.387 343.099 344.213 343.363Z" fill="#E7A37B"/>
<path d="M360.401 349.107C359.759 348.736 359.117 348.74 358.472 349.103C359.114 349.293 359.756 349.286 360.401 349.107Z" fill="#696D65"/>
<path d="M350.379 347.261C349.747 346.746 349.056 346.358 348.241 346.221C348.788 346.905 349.497 347.265 350.379 347.261Z" fill="#E7A37B"/>
<path d="M375.977 360.279C375.497 359.902 374.996 360.039 374.491 360.219C374.978 360.487 375.472 360.48 375.977 360.279Z" fill="#696D65"/>
<path d="M292.403 180.207C292.721 180.524 293.059 180.584 293.423 180.284C293.105 179.942 292.77 179.9 292.403 180.207Z" fill="#C2B1AE"/>
<path d="M284.953 180.284C285.316 180.588 285.652 180.528 285.973 180.214C285.609 179.9 285.271 179.946 284.953 180.284Z" fill="#C2B1AE"/>
<path d="M356.013 348.835C355.745 348.478 355.431 348.432 355.067 348.686C355.357 348.895 355.667 348.969 356.013 348.835Z" fill="#696D65"/>
<path d="M295.109 180.535C295.307 180.8 295.529 180.874 295.79 180.62C295.592 180.344 295.37 180.277 295.109 180.535Z" fill="#C2B1AE"/>
<path d="M391.488 311.476C391.725 311.723 392 311.864 392.353 311.807C392.166 311.437 391.869 311.342 391.488 311.476Z" fill="#894100"/>
<path d="M402.054 324.465C401.863 324.708 401.913 324.927 402.117 325.132C402.389 324.881 402.34 324.662 402.054 324.465Z" fill="#894100"/>
<path d="M282.586 180.606C282.847 180.86 283.069 180.796 283.267 180.524C283.006 180.26 282.783 180.337 282.586 180.606Z" fill="#C2B1AE"/>
<path d="M302.45 182.172C302.708 182.426 302.986 182.578 303.343 182.369C303.089 182.108 302.807 181.971 302.45 182.172Z" fill="#C2B1AE"/>
<path d="M346.272 345.011C346.167 344.658 345.923 344.489 345.563 344.475C345.637 344.87 345.891 345.028 346.272 345.011Z" fill="#E7A37B"/>
<path d="M280.554 180.976C280.875 181.275 281.111 181.064 281.348 180.845C281.044 180.655 280.783 180.707 280.554 180.976Z" fill="#C2B1AE"/>
<path d="M297.141 180.877C297.332 181.138 297.551 181.233 297.822 180.979C297.635 180.694 297.413 180.62 297.141 180.877Z" fill="#C2B1AE"/>
<path d="M347.296 345.674C347.169 345.332 346.918 345.176 346.559 345.187C346.657 345.575 346.918 345.713 347.296 345.674Z" fill="#E7A37B"/>
<path d="M354.443 348.577C354.2 348.355 353.935 348.249 353.611 348.394C353.844 348.659 354.112 348.75 354.443 348.577Z" fill="#E7A37B"/>
<path d="M387.481 311.006C387.471 311.105 387.492 311.197 387.548 311.281C387.912 311.243 388.293 311.267 388.589 310.985C388.218 310.847 387.852 310.936 387.485 311.006H387.481Z" fill="#894100"/>
<path d="M368.914 347.127C368.625 347.131 368.473 347.311 368.371 347.554C368.66 347.551 368.826 347.388 368.914 347.127Z" fill="#C2B1AE"/>
<path d="M368.282 347.621C368.106 347.607 367.993 347.681 367.94 347.851C368.123 347.882 368.247 347.815 368.282 347.621Z" fill="#C2B1AE"/>
<path d="M367.919 347.861C367.785 347.886 367.651 347.911 367.517 347.935C367.704 348.207 367.831 348.126 367.919 347.861Z" fill="#C2B1AE"/>
<path d="M352.411 348.059C352.305 347.879 352.154 347.83 351.96 347.893C352.065 348.073 352.214 348.137 352.411 348.059Z" fill="#C2B1AE"/>
<path d="M283.88 180.436C284.057 180.528 284.208 180.492 284.339 180.344C284.162 180.26 284.011 180.295 283.88 180.436Z" fill="#C2B1AE"/>
<path d="M342.978 351.48C342.921 351.667 342.992 351.809 343.143 351.914C343.196 351.727 343.136 351.583 342.978 351.48Z" fill="#C2B1AE"/>
<path d="M369.916 297.407C370.025 297.559 370.152 297.636 370.339 297.53C370.237 297.361 370.092 297.329 369.916 297.407Z" fill="#E7A37B"/>
<path d="M294.037 180.351C294.167 180.5 294.319 180.538 294.499 180.45C294.368 180.306 294.217 180.267 294.037 180.351Z" fill="#C2B1AE"/>
<path d="M336.109 285.261C337.125 283.017 338.123 280.766 339.432 278.674C339.496 278.17 339.721 277.743 340.088 277.39C340.155 277.21 340.247 277.059 340.466 277.037L340.42 277.013C340.42 276.508 340.402 276.025 340.208 275.528C338.018 269.918 336.077 264.217 334.091 258.534C332.698 254.551 331.269 250.583 329.858 246.603C329.427 245.386 329.022 244.155 328.584 242.941C328.443 242.546 328.129 242.419 327.783 242.645C326.651 243.379 325.515 244.113 324.432 244.913C321.395 247.15 318.452 249.496 315.725 252.121C314.226 253.563 312.667 254.943 311.288 256.509C311.467 257.247 311.905 257.832 312.441 258.337C313.147 259 313.443 259.804 313.387 260.757C313.369 261.035 313.408 261.321 313.379 261.6C313.168 263.752 314.064 265.533 315.232 267.227C317.288 270.215 319.864 272.691 322.746 274.878C323.54 275.482 324.439 275.99 325.056 276.815C325.346 276.829 325.589 276.949 325.815 277.133C327.6 278.586 329.371 280.05 331.177 281.475C332.803 282.759 334.469 284.001 336.116 285.261H336.109Z" fill="#8A89DD"/>
<path d="M341.002 339.694C340.889 339.412 340.751 339.151 340.466 339.003C340.533 339.317 340.466 339.74 341.002 339.694Z" fill="#C2B1AE"/>
<path d="M340.088 277.39C339.722 277.743 339.496 278.166 339.432 278.674C339.722 280.06 340.314 281.344 340.9 282.615C341.983 284.968 343.179 287.264 344.724 289.36C345.094 289.861 345.479 290.337 345.899 290.788C346.244 291.159 346.604 291.522 346.883 291.938C347.172 292.369 347.543 292.679 347.941 293C349.12 293.956 350.245 294.983 351.564 295.741C354.722 297.558 358.01 297.95 361.421 296.528C362.201 296.204 362.882 295.688 363.527 295.142C365.407 293.537 366.73 291.54 367.715 289.286C368.713 287 369.136 284.572 369.567 282.142C369.644 281.704 369.588 281.242 369.591 280.791C369.602 280.173 369.62 279.57 369.785 278.953C370.036 278.021 369.997 277.062 369.785 276.109C369.701 275.728 369.598 275.337 369.602 274.952C369.62 271.664 368.886 268.51 368.011 265.364C367.182 262.376 366.208 259.451 364.822 256.671C364.674 256.371 364.589 256.04 364.465 255.726C363.996 254.562 363.347 253.549 362.137 253.023C361.689 253.256 361.238 253.489 360.79 253.722C360.768 255.105 361.308 256.364 361.767 257.613C362.483 259.564 363.213 261.508 363.88 263.48C364.617 265.667 365.051 267.918 365.541 270.165C366.24 273.379 366.367 276.638 366.166 279.888C365.93 283.666 365.111 287.314 362.878 290.527C361.636 292.316 359.985 293.311 357.879 293.614C356.786 293.773 355.755 293.395 354.778 292.99C353.424 292.429 352.238 291.6 351.116 290.623C348.273 288.143 346.223 285.102 344.53 281.782C344.071 280.879 343.521 279.993 343.242 279.034C342.808 277.549 341.955 276.854 340.413 277.009C340.413 277.009 340.459 277.034 340.455 277.034C340.328 277.15 340.205 277.27 340.078 277.386L340.088 277.39Z" fill="#E7A37B"/>
<path d="M319.144 220.695C319.151 221.326 319.179 221.813 319.363 222.311C320.266 224.734 321.102 227.183 322.009 229.603C323.113 232.548 324.245 235.487 325.413 238.408C325.66 239.025 326.087 239.576 326.475 240.126C326.725 240.482 327.131 240.539 327.544 240.447C327.985 240.348 328.228 240.055 328.256 239.618C328.299 239.001 328.271 238.397 328.129 237.777C327.618 235.522 326.888 233.339 326.136 231.162C325.29 228.717 324.591 226.223 323.586 223.831C323.303 223.164 323.279 222.374 322.933 221.753C322.425 220.84 322.605 220.233 323.318 219.531C324.196 218.67 324.972 217.696 325.745 216.733C327.396 214.677 329.033 212.609 330.641 210.521C332.116 208.609 333.538 206.658 334.995 204.735C335.672 203.839 336.399 202.982 337.055 202.075C337.51 201.444 338.004 200.834 338.215 200.04C338.491 199.01 337.866 197.969 336.811 197.849C336.282 197.789 335.838 197.934 335.421 198.304C334.444 199.172 333.679 200.22 332.892 201.239C331.142 203.504 329.403 205.776 327.706 208.08C325.24 211.424 322.63 214.659 320.361 218.151C320.178 218.434 320.037 218.765 319.797 218.988C319.25 219.496 319.056 220.099 319.137 220.688L319.144 220.695Z" fill="#E7A37B"/>
<path d="M348.739 232.376C349.145 232.143 349.55 231.91 349.956 231.677C350.065 230.753 349.847 229.871 349.462 229.056C348.859 227.786 348.287 226.502 347.515 225.313C347.088 224.657 346.763 223.93 346.411 223.225C346.132 222.667 346.157 222.106 346.64 221.676C348.242 220.247 349.448 218.452 350.983 216.963C351.184 216.765 351.385 216.568 351.597 216.384C351.84 216.169 352.108 216.166 352.359 216.363C352.535 216.501 352.711 216.652 352.849 216.825C353.625 217.785 354.355 218.78 355.16 219.711C356.627 221.415 358.052 223.154 359.693 224.703C360.31 225.285 360.98 225.341 361.721 225.218C362.25 225.13 362.716 224.597 362.797 224.05C362.91 223.295 362.815 222.544 362.314 221.969C361.651 221.203 361.115 220.346 360.412 219.605C359.298 218.427 358.342 217.097 357.252 215.894C356.232 214.769 355.174 213.661 354.034 212.659C353.008 211.756 351.678 211.893 350.492 212.214C349.759 212.412 349.286 213.199 348.778 213.802C347.762 214.998 346.767 216.211 345.776 217.429C344.89 218.515 344.072 219.662 343.137 220.699C342.287 221.641 342.343 222.639 342.752 223.673C343.063 224.456 343.426 225.236 343.885 225.938C344.566 226.982 345.07 228.111 345.663 229.197C346.012 229.836 346.393 230.464 346.823 231.056C347.296 231.709 347.935 232.168 348.732 232.376H348.739Z" fill="#E7A37B"/>
<path d="M353.981 316.686C353.674 316.908 353.688 317.205 353.783 317.522C354.055 317.293 354.298 317.056 353.981 316.686Z" fill="#E7A37B"/>
<path d="M340.088 277.39C340.215 277.273 340.339 277.154 340.466 277.037C340.251 277.058 340.155 277.21 340.088 277.39Z" fill="#FFB68A"/>
</svg>
