<svg width="500" height="500" viewBox="0 0 500 500" fill="none" xmlns="http://www.w3.org/2000/svg">
<path d="M122.071 367.18C125.104 362.768 128.296 358.475 131.553 354.226C143.321 338.849 155.055 323.446 166.772 308.03C171.008 302.453 175.197 296.841 179.348 291.196C181.711 287.978 184.336 284.983 186.983 282.01C190.91 277.597 194.781 273.142 198.373 268.446C199.752 266.641 201.278 264.97 202.807 263.298C212.492 252.703 221.935 241.897 231.134 230.877C238.262 222.335 245.399 213.802 252.535 205.269C252.883 204.852 253.171 204.363 253.704 204.135C253.683 203.52 253.652 202.932 254.138 202.412C255.298 201.162 256.385 199.847 257.549 198.605C260.209 195.765 263.053 193.106 265.631 190.175C268.738 186.639 272.373 183.584 275.393 179.95C276.884 178.158 278.766 176.77 280.493 175.219C280.923 174.837 281.382 174.6 281.967 174.613C282.444 174.626 282.925 174.609 283.402 174.605C283.647 173.672 283.758 172.723 283.767 171.756C283.771 171.069 283.801 170.381 283.866 169.702C284.081 167.455 284.334 165.208 284.549 162.961C284.871 159.554 285.112 156.134 285.507 152.735C285.666 151.373 285.773 150.007 285.92 148.649C286.134 146.677 286.396 144.709 286.598 142.733C286.796 140.825 286.848 138.896 287.157 137.01C287.415 135.446 287.419 133.869 287.634 132.309C287.892 130.41 288.085 128.503 288.287 126.595C288.48 124.756 288.626 122.913 288.824 121.074C289.193 117.671 289.55 114.268 289.98 110.874C290.186 109.258 290.169 107.579 290.977 106.083C290.813 106.023 290.65 105.959 290.487 105.899C290.053 106.152 289.709 105.972 289.4 105.658C287.522 105.172 285.64 104.691 283.763 104.206C283.432 104.511 283.17 104.395 282.933 104.081C282.383 103.978 281.838 103.871 281.288 103.767C280.97 104.077 280.699 103.987 280.459 103.664C280.209 103.63 279.96 103.596 279.711 103.561C279.492 103.669 279.307 103.621 279.148 103.441C278.899 103.411 278.65 103.385 278.401 103.355C277.958 103.72 277.546 103.647 277.159 103.26C274.551 103.033 271.939 103.054 269.331 103.269C268.94 103.651 268.527 103.725 268.089 103.355C267.84 103.381 267.586 103.407 267.337 103.432C267.178 103.608 266.993 103.656 266.778 103.544C266.529 103.578 266.28 103.613 266.031 103.647C265.79 103.978 265.52 104.055 265.202 103.746C264.699 103.845 264.196 103.939 263.693 104.038C263.406 104.305 263.118 104.558 262.727 104.197C252.793 106.333 244.118 111.097 236.028 117.057C234.537 118.157 233.132 119.373 231.676 120.52C229.274 122.414 227.422 124.79 225.656 127.252C222.163 132.12 219.25 137.319 216.457 142.613C201.909 170.183 188.1 198.133 174.175 226.017C172.336 229.704 170.488 233.386 168.684 237.089C168.216 238.052 167.627 238.851 166.677 239.354C160.228 242.791 155.472 248.131 150.823 253.571C143.987 261.58 138.024 270.229 132.305 279.049C123.587 292.485 115.763 306.431 108.704 320.808C106.1 326.105 103.643 331.476 101.305 336.898C100.025 339.867 99.1873 342.986 98.1432 346.037C96.6523 350.394 95.6039 354.866 94.5599 359.343C95.2473 359.33 95.909 359.455 96.5707 359.653C98.9854 360.383 101.417 361.062 103.836 361.788C109.649 363.537 115.549 364.998 121.254 367.09C121.504 367.18 121.791 367.159 122.062 367.189L122.071 367.18Z" fill="#696E66"/>
<path d="M338.754 311.85C337.972 309.315 337.542 306.698 337.014 304.107C336.743 302.78 336.485 301.448 336.245 300.111C336.137 299.514 336.073 298.904 336.039 298.298C336.021 298.006 336.249 297.821 336.533 297.744C336.546 297.607 336.481 297.525 336.344 297.499C335.691 297.555 335.777 297.039 335.691 296.657C335.708 296.434 335.725 296.206 335.742 295.982C335.175 295.665 335.179 295.054 335.081 294.543C334.861 293.379 334.38 292.33 333.835 291.299C333.353 290.393 332.872 289.482 332.421 288.562C331.171 286.006 329.456 283.815 327.295 281.959C326.152 280.979 325.048 279.952 323.918 278.96C322.324 277.559 320.743 276.145 319.123 274.779C317.349 273.288 317.151 272.437 318.208 270.362C318.303 270.182 318.431 270.014 318.526 269.834C319.587 267.887 321.108 266.306 322.59 264.695C323.424 263.788 324.335 262.955 325.211 262.087C325.516 261.786 325.688 261.447 325.632 260.991C325.375 258.89 325.229 256.768 324.859 254.684C324.485 252.553 324.421 250.478 325.048 248.398C324.06 244.63 322.891 240.914 321.705 237.201C320.167 232.385 318.702 227.538 317.224 222.705C317.048 222.125 316.734 221.558 316.915 220.913C316.163 219.908 315.067 219.289 314.1 218.554C310.59 215.891 307.458 212.874 304.949 209.235C303.527 207.169 302.435 204.999 302.693 202.382C302.728 202.043 302.68 201.699 302.702 201.355C302.77 200.195 302.41 199.216 301.55 198.408C300.897 197.793 300.364 197.08 300.145 196.187C298.715 194.971 297.825 193.325 296.747 191.838C293.451 187.306 290.16 182.777 286.371 178.631C285.773 177.978 285.232 177.277 284.661 176.599C284.497 176.818 284.377 177.119 284.162 177.239C283.183 177.784 282.444 178.601 281.687 179.387C277.163 184.07 272.411 188.522 268.02 193.347C264.097 197.656 259.826 201.647 255.702 205.772C255.465 206.008 255.156 206.176 254.881 206.378C254.847 206.898 255.169 207.289 255.375 207.71C258.383 213.802 261.343 219.921 264.441 225.966C267.672 232.26 270.499 238.735 273.442 245.163C277.812 254.71 282.181 264.252 286.551 273.799C286.809 274.362 287.041 274.938 287.333 275.479C287.904 276.545 288.029 277.632 287.909 278.848C287.466 283.484 288.201 288.017 289.297 292.507C291.174 300.197 293.941 307.583 297.181 314.793C303.02 327.773 309.886 340.198 317.589 352.164C322.908 360.426 328.636 368.388 334.793 376.049C335.484 376.908 336.12 377.793 336.528 378.824C336.894 378.644 337.272 378.493 337.62 378.279C341.749 375.756 345.886 373.239 349.998 370.691C352.722 369.007 355.511 367.421 358.063 365.475C356.314 360.435 354.484 355.425 352.842 350.351C350.733 343.833 348.133 337.5 345.886 331.038C343.841 325.156 341.783 319.278 339.326 313.551C339.167 313.177 339.072 312.773 338.947 312.382C338.763 312.249 338.672 312.082 338.745 311.854L338.754 311.85Z" fill="#696D65"/>
<path d="M284.669 176.597C285.236 177.276 285.782 177.976 286.379 178.629C290.169 182.771 293.46 187.304 296.756 191.837C297.834 193.319 298.723 194.969 300.158 196.181C301.838 194.273 303.737 192.597 305.563 190.836C308.885 187.639 312.464 184.782 316.167 182.058C317.491 181.083 318.87 180.189 320.249 179.295C320.674 179.02 321.052 179.175 321.224 179.656C321.757 181.139 322.251 182.634 322.775 184.116C324.49 188.963 326.234 193.796 327.931 198.647C330.355 205.569 332.713 212.512 335.381 219.344C335.618 219.949 335.635 220.538 335.639 221.152C337.513 220.963 338.552 221.81 339.085 223.619C339.429 224.787 340.095 225.866 340.653 226.966C342.716 231.009 345.212 234.712 348.675 237.733C350.041 238.923 351.485 239.937 353.135 240.616C354.325 241.11 355.58 241.565 356.911 241.376C359.472 241.007 361.483 239.795 363 237.617C365.719 233.703 366.716 229.264 367.004 224.658C367.253 220.701 367.094 216.736 366.244 212.817C365.646 210.08 365.118 207.339 364.22 204.675C363.412 202.273 362.523 199.906 361.646 197.53C361.088 196.009 360.43 194.475 360.456 192.791C360.095 192.301 359.678 191.837 359.378 191.313C358.05 189.006 356.774 186.664 355.446 184.357C353.676 181.276 351.889 178.208 350.089 175.149C348.495 172.438 346.918 169.727 345.771 166.784C344.8 166.53 344.022 165.972 343.446 165.177C342.926 164.459 342.458 163.695 342.033 162.913C341.311 161.589 340.701 160.214 339.867 158.943C339.309 158.088 338.866 157.138 338.488 156.184C337.989 154.921 337.921 153.709 338.956 152.562C340.099 151.299 341.096 149.903 342.17 148.579C343.377 147.097 344.589 145.619 345.826 144.163C346.445 143.432 347.021 142.474 347.915 142.229C349.358 141.838 350.978 141.671 352.228 142.77C353.616 143.991 354.901 145.34 356.147 146.71C357.474 148.175 358.639 149.795 359.996 151.23C360.851 152.133 361.504 153.177 362.312 154.109C362.918 154.809 363.038 155.725 362.901 156.644C362.802 157.31 362.235 157.959 361.59 158.066C360.688 158.217 359.872 158.152 359.12 157.439C357.122 155.553 355.386 153.434 353.599 151.359C352.619 150.225 351.726 149.013 350.785 147.845C350.613 147.634 350.402 147.449 350.187 147.282C349.882 147.041 349.556 147.05 349.259 147.308C349.002 147.535 348.757 147.776 348.512 148.012C346.643 149.825 345.173 152.008 343.223 153.752C342.634 154.277 342.608 154.955 342.943 155.639C343.369 156.498 343.764 157.383 344.288 158.182C345.229 159.63 345.925 161.194 346.66 162.741C347.133 163.733 347.395 164.807 347.261 165.933C349.229 165.392 351.184 164.795 353.169 164.313C357.075 163.364 361.036 162.694 365.006 162.062C365.028 161.061 364.353 160.292 364.112 159.372C363.829 158.298 363.756 158.259 364.624 157.705C365.483 157.16 366.046 156.214 367.077 155.922C367.086 155.716 367.03 155.48 367.116 155.312C367.7 154.161 367.434 153.048 367.004 151.939C365.668 148.502 364.319 145.069 363 141.623C362.824 141.168 362.677 140.725 362.308 140.39C361.35 139.514 360.512 138.534 359.429 137.769C358.153 136.867 357.015 135.767 355.833 134.736C354.497 133.572 353.234 132.304 351.833 131.226C349.019 129.056 346.424 126.637 343.751 124.308C343.39 123.995 343.085 123.621 342.574 123.526C341.169 123.26 339.773 122.968 338.368 122.714C338.114 122.667 337.826 122.757 337.56 122.804C336.331 123.028 335.261 123.586 334.251 124.317C333.461 124.888 333.207 124.832 332.477 124.149C332.284 123.969 332.159 123.711 332 123.488C331.566 123.496 331.227 123.29 330.879 123.054C324.958 119.075 318.646 115.771 312.172 112.841C306.766 110.396 301.25 108.132 295.415 106.821C293.95 106.495 292.493 106.121 290.981 106.069C290.173 107.565 290.19 109.244 289.984 110.86C289.555 114.254 289.194 117.657 288.828 121.06C288.631 122.899 288.485 124.742 288.291 126.581C288.094 128.489 287.9 130.396 287.638 132.295C287.423 133.859 287.419 135.432 287.161 136.996C286.852 138.882 286.805 140.811 286.603 142.719C286.397 144.691 286.134 146.663 285.924 148.635C285.778 149.997 285.666 151.359 285.511 152.721C285.116 156.12 284.876 159.54 284.553 162.947C284.343 165.194 284.089 167.441 283.87 169.688C283.806 170.371 283.776 171.059 283.771 171.742C283.763 172.709 283.651 173.658 283.406 174.591C283.604 175.403 284.407 175.828 284.682 176.593L284.669 176.597ZM309.727 152.562C309.624 151.84 309.864 151.11 310.53 150.491C310.822 150.221 310.994 149.817 311.218 149.473C313.976 145.224 317.16 141.28 320.163 137.206C322.23 134.401 324.348 131.629 326.479 128.875C327.441 127.634 328.37 126.358 329.56 125.301C330.067 124.85 330.608 124.673 331.253 124.746C332.537 124.893 333.298 126.16 332.963 127.415C332.705 128.381 332.108 129.125 331.549 129.894C330.75 130.998 329.865 132.046 329.04 133.133C327.265 135.479 325.534 137.855 323.738 140.18C321.779 142.723 319.785 145.241 317.774 147.746C316.833 148.919 315.888 150.105 314.818 151.153C313.946 152.008 313.731 152.747 314.35 153.86C314.771 154.616 314.801 155.578 315.145 156.39C316.369 159.304 317.22 162.341 318.251 165.319C319.166 167.97 320.06 170.629 320.679 173.375C320.851 174.131 320.885 174.866 320.833 175.618C320.795 176.15 320.498 176.507 319.965 176.627C319.463 176.739 318.969 176.67 318.664 176.236C318.191 175.566 317.671 174.896 317.37 174.144C315.948 170.586 314.569 167.007 313.224 163.42C312.12 160.472 311.102 157.49 310.002 154.539C309.778 153.933 309.744 153.34 309.735 152.571L309.727 152.562Z" fill="#FFB68A"/>
<path d="M336.348 297.494C336.486 297.52 336.55 297.602 336.537 297.739C336.907 298.633 337.68 299.217 338.221 299.982C339.124 300.411 339.82 301.056 340.254 301.963C340.804 302.414 341.354 302.865 341.899 303.316C342.338 303.333 342.634 303.544 342.763 303.969C342.879 304.042 342.991 304.111 343.107 304.184C343.545 304.171 343.85 304.36 344.005 304.777C344.387 305 344.774 305.224 345.156 305.443C346.149 305.61 346.991 306.083 347.76 306.71C348.4 306.964 349.044 307.222 349.685 307.475C349.921 307.398 350.106 307.458 350.235 307.677C350.724 307.814 351.21 307.952 351.7 308.089C352.091 307.913 352.417 308.042 352.714 308.313C352.967 308.356 353.221 308.403 353.474 308.446C353.917 308.137 354.299 308.193 354.626 308.626C355.614 308.858 356.602 309.043 357.625 308.953C358.407 308.51 359.193 308.506 359.975 308.957C362.475 308.966 364.882 308.42 367.258 307.716C367.713 307.578 368.143 307.316 368.641 307.531C368.804 307.501 368.968 307.471 369.131 307.441L369.157 307.428C369.221 307.226 369.359 307.131 369.573 307.148L369.681 307.067C369.805 306.77 369.99 306.551 370.342 306.547C370.794 306.242 371.215 305.89 371.696 305.64C375.051 303.879 377.943 301.541 380.401 298.663C381.019 297.937 381.664 297.232 382.295 296.519C382.674 295.195 383.15 293.924 383.932 292.777C385.608 290.323 386.665 287.582 387.572 284.781C387.95 283.616 388.268 282.418 388.448 281.21C388.59 280.269 388.646 279.324 388.805 278.374C389.007 277.171 389.058 275.943 389.264 274.727C389.415 273.863 389.398 272.926 389.234 272.063C388.581 268.651 387.885 265.244 387.108 261.859C386.901 260.961 386.803 260.118 386.97 259.229C386.927 259.061 386.88 258.894 386.837 258.726C386.463 258.159 386.076 257.596 385.711 257.021C383.713 253.863 381.2 251.195 378.132 249.055C376.267 247.753 374.252 246.769 372.07 246.133C371.846 246.262 371.687 246.168 371.554 245.983C371.167 245.931 370.781 245.88 370.39 245.828C369.195 246.675 368.314 247.822 367.382 248.917C363.154 253.888 358.927 258.864 354.703 263.835C352.194 266.791 352.774 265.73 352.142 269.459C352.533 269.91 352.232 270.198 351.902 270.477C351.811 273.915 350.935 277.249 350.51 280.639C350.454 281.081 350.127 281.339 349.831 281.627C345.719 285.657 341.616 289.692 337.504 293.722C336.816 294.396 336.181 295.105 335.729 295.965C335.712 296.188 335.695 296.416 335.678 296.639C336.022 296.82 336.193 297.138 336.331 297.481L336.348 297.494Z" fill="#884100"/>
<path d="M335.747 295.977C336.198 295.118 336.829 294.409 337.521 293.734C341.633 289.708 345.736 285.67 349.848 281.64C350.144 281.352 350.467 281.094 350.527 280.651C350.957 277.257 351.829 273.927 351.919 270.49C351.803 270.103 351.786 269.742 352.16 269.472C352.791 265.747 352.207 266.804 354.72 263.848C358.944 258.872 363.172 253.901 367.399 248.93C368.332 247.834 369.213 246.683 370.407 245.841C370.209 244.35 370.076 242.842 369.784 241.368C369.655 240.711 369.689 240.178 369.995 239.602C372.392 235.134 373.612 230.291 374.506 225.35C375.09 222.102 375.327 218.828 375.292 215.529C375.266 213.191 375.387 210.85 375.228 208.525C375.034 205.728 374.996 202.914 374.566 200.13C374.325 198.574 374.282 196.989 374.046 195.434C373.655 192.864 373.475 190.261 372.749 187.747C372.014 187.91 371.266 188.039 370.545 188.241C367.558 189.079 364.654 190.114 362.102 191.941C363.576 192.581 364.366 193.814 364.938 195.232C365.092 195.61 365.191 196.018 365.371 196.383C367.06 199.769 368.242 203.331 369.256 206.97C370.321 210.798 371.215 214.639 371.193 218.648C371.193 219.116 371.314 219.593 371.417 220.057C371.674 221.213 371.722 222.386 371.417 223.52C371.215 224.268 371.189 225.007 371.18 225.759C371.172 226.309 371.245 226.871 371.15 227.404C370.626 230.36 370.111 233.316 368.895 236.105C367.696 238.85 366.089 241.282 363.795 243.237C363.008 243.907 362.183 244.53 361.23 244.926C357.071 246.657 353.07 246.18 349.225 243.967C347.618 243.044 346.248 241.793 344.812 240.629C344.327 240.234 343.876 239.86 343.524 239.336C343.184 238.829 342.746 238.386 342.325 237.935C341.809 237.385 341.341 236.805 340.894 236.195C339.008 233.638 337.551 230.841 336.237 227.98C335.523 226.433 334.802 224.869 334.449 223.176C332.855 225.729 331.639 228.47 330.402 231.202C330.526 231.366 330.621 231.559 330.771 231.688C332.017 232.753 333.263 233.815 334.527 234.859C335.003 235.254 335.493 235.619 335.712 236.234C336.172 237.527 336.576 238.82 336.597 240.216C336.61 241.003 336.348 241.497 335.635 241.841C333.972 242.644 332.335 243.499 330.681 244.328C329.457 244.943 328.249 245.596 327.192 246.472C326.458 247.082 325.774 247.753 325.066 248.397C324.438 250.477 324.503 252.556 324.876 254.683C325.246 256.767 325.392 258.885 325.65 260.99C325.706 261.446 325.534 261.785 325.229 262.086C324.352 262.954 323.441 263.787 322.608 264.694C321.126 266.305 319.605 267.886 318.543 269.833C318.445 270.013 318.316 270.176 318.225 270.361C317.164 272.436 317.366 273.287 319.141 274.778C320.765 276.144 322.346 277.558 323.936 278.958C325.066 279.951 326.17 280.978 327.313 281.957C329.47 283.814 331.184 286.001 332.438 288.561C332.89 289.485 333.371 290.392 333.852 291.298C334.398 292.329 334.879 293.373 335.098 294.542C335.193 295.049 335.193 295.663 335.76 295.981L335.747 295.977Z" fill="#FFB68A"/>
<path d="M122.071 367.179C121.8 367.149 121.508 367.171 121.263 367.081C115.557 364.988 109.654 363.527 103.845 361.779C101.426 361.053 98.994 360.374 96.5794 359.643C95.9177 359.441 95.256 359.321 94.5686 359.334C93.7651 360.021 93.2711 360.915 92.9101 361.89C92.1969 363.824 91.6169 365.796 91.2474 367.824C90.7834 370.385 90.1732 372.928 90.3322 375.562C90.3322 375.631 90.3322 375.699 90.3236 375.768C89.6448 380.361 91.1786 384.413 93.4515 388.25C95.2045 391.214 97.9629 392.551 101.336 392.701C102.5 392.753 103.673 392.74 104.837 392.744C114.797 392.761 124.76 392.697 134.72 392.838C137.47 392.877 139.506 391.867 141.203 389.925C142.428 388.52 143.347 386.952 143.743 385.057C144 383.824 143.846 382.724 143.313 381.672C142.174 379.433 140.58 377.547 138.466 376.172C136.224 374.716 133.942 373.319 131.631 371.97C129.792 370.9 127.905 369.908 126.011 368.945C124.726 368.297 123.386 367.759 122.071 367.171V367.179Z" fill="#FFB68A"/>
<path d="M358.071 365.471C355.519 367.417 352.727 369.002 350.007 370.687C345.891 373.235 341.757 375.752 337.628 378.274C337.285 378.485 336.902 378.64 336.537 378.82C336.352 380.311 336.997 381.647 337.341 383.035C337.934 385.441 338.728 387.774 339.867 389.983C340.761 391.718 341.964 393.192 343.416 394.485C344.486 395.439 345.758 395.895 347.158 396.002C347.841 396.054 348.533 396.032 349.221 396.036C360.49 396.054 371.76 396.071 383.026 396.088C383.301 396.088 383.58 396.058 383.851 396.088C387.92 396.526 392.985 391.4 391.619 385.939C391.168 384.131 390.605 382.356 389.045 381.127C388.723 380.874 388.418 380.59 388.066 380.388C386.936 379.74 385.806 379.086 384.646 378.494C377.737 374.957 370.824 371.434 363.906 367.915C362.441 367.168 360.95 366.468 359.476 365.737C359.03 365.518 358.561 365.462 358.076 365.479L358.071 365.471Z" fill="#FFB68A"/>
<path d="M385.629 298.307C384.053 301.555 382.446 304.79 380.903 308.06C379.361 311.329 377.883 314.629 376.388 317.916C376.134 318.475 375.889 319.042 375.696 319.622C375.279 320.894 375.451 321.388 376.577 322.247C376.736 322.367 376.946 322.41 377.135 322.492C377.745 322.268 378.36 322.105 378.944 322.565C380.585 322.505 382.007 321.792 383.301 320.898C386.343 318.797 389.458 316.799 392.306 314.419C394.794 312.343 397.028 310.041 398.923 307.42C400.689 304.979 402.455 302.534 404.178 300.06C406.657 296.498 408.65 292.687 409.883 288.502C410.726 285.645 410.975 282.723 410.781 279.758C410.532 279.509 410.476 279.243 410.704 278.946C410.072 275.079 408.397 271.732 405.836 268.768C403.885 266.508 401.6 264.751 398.884 263.535C398.455 263.603 398.119 263.432 397.832 263.131C396.68 262.774 395.511 262.534 394.3 262.529C393.943 262.873 393.475 262.843 393.032 262.89C393.024 263.487 392.624 263.99 392.856 264.678C393.651 267.023 393.883 269.46 393.87 271.934C393.862 273.18 393.518 274.366 393.462 275.586C393.359 277.778 392.972 279.939 392.427 282.031C391.653 284.996 390.906 287.978 389.72 290.835C388.719 293.241 387.644 295.596 386.248 297.795C386.111 298.01 385.84 298.139 385.629 298.311V298.307Z" fill="#894100"/>
<path d="M362.097 191.945C364.649 190.115 367.554 189.084 370.54 188.246C371.266 188.044 372.009 187.915 372.744 187.752C372.435 185.023 371.747 182.368 371.099 179.709C369.827 174.505 368.289 169.388 366.188 164.447C365.84 163.631 365.565 162.772 364.989 162.071C361.023 162.703 357.057 163.373 353.152 164.323C351.167 164.804 349.212 165.397 347.244 165.942C346.75 166.226 346.256 166.51 345.762 166.793C346.909 169.732 348.486 172.447 350.08 175.159C351.88 178.218 353.667 181.29 355.438 184.366C356.765 186.673 358.041 189.015 359.369 191.322C359.67 191.846 360.087 192.31 360.447 192.8C360.993 192.517 361.543 192.233 362.089 191.949L362.097 191.945Z" fill="#8A8ADD"/>
<path d="M385.629 298.306C385.84 298.134 386.111 298.005 386.248 297.791C387.644 295.591 388.723 293.236 389.72 290.83C390.905 287.973 391.653 284.991 392.426 282.027C392.972 279.934 393.359 277.773 393.462 275.582C393.518 274.362 393.862 273.176 393.87 271.93C393.883 269.451 393.651 267.014 392.856 264.673C392.624 263.985 393.024 263.483 393.032 262.885C392.964 262.782 392.938 262.675 392.951 262.55C392.577 262.34 392.207 262.134 391.834 261.923C391.382 261.897 391.056 261.7 390.901 261.257C390.785 261.227 390.686 261.171 390.6 261.09C389.883 260.948 389.238 260.69 388.822 260.041C388.71 260.015 388.611 259.964 388.525 259.886C387.911 259.904 387.494 259.431 386.97 259.233C386.802 260.123 386.897 260.965 387.107 261.863C387.885 265.249 388.581 268.651 389.234 272.067C389.397 272.931 389.41 273.867 389.264 274.731C389.054 275.947 389.002 277.176 388.804 278.379C388.645 279.324 388.59 280.274 388.448 281.215C388.267 282.422 387.945 283.621 387.571 284.785C386.665 287.586 385.608 290.328 383.932 292.781C383.15 293.928 382.669 295.2 382.295 296.523C383.533 296.884 384.495 297.752 385.629 298.306Z" fill="#5E3818"/>
<path d="M284.669 176.598C284.394 175.833 283.591 175.408 283.393 174.596C282.916 174.6 282.435 174.617 281.958 174.604C281.374 174.591 280.914 174.823 280.484 175.21C278.757 176.761 276.875 178.149 275.384 179.941C272.36 183.575 268.729 186.626 265.623 190.166C263.045 193.101 260.205 195.756 257.541 198.596C256.376 199.838 255.289 201.153 254.129 202.403C253.648 202.923 253.674 203.511 253.695 204.126C254.095 204.873 254.49 205.625 254.89 206.373C255.165 206.175 255.474 206.008 255.71 205.767C259.835 201.642 264.106 197.651 268.029 193.342C272.42 188.517 277.172 184.065 281.696 179.382C282.456 178.596 283.191 177.779 284.171 177.234C284.39 177.113 284.506 176.813 284.669 176.594V176.598Z" fill="#494A45"/>
<path d="M331.996 123.489C332.15 123.712 332.275 123.97 332.473 124.15C333.203 124.833 333.457 124.889 334.247 124.318C335.257 123.587 336.327 123.029 337.555 122.805C337.822 122.758 338.105 122.668 338.363 122.715C339.768 122.964 341.169 123.257 342.57 123.527C343.077 123.626 343.386 124 343.747 124.309C346.419 126.638 349.014 129.057 351.829 131.227C353.229 132.309 354.492 133.573 355.829 134.737C357.01 135.768 358.149 136.868 359.425 137.77C360.503 138.535 361.345 139.519 362.304 140.391C362.669 140.726 362.819 141.165 362.995 141.624C364.31 145.07 365.663 148.503 367 151.94C367.429 153.049 367.696 154.162 367.111 155.313C367.025 155.481 367.081 155.717 367.073 155.923C367.644 155.756 367.958 155.274 368.284 154.853C368.852 154.114 369.036 153.298 368.748 152.353C367.451 148.091 366.153 143.833 364.521 139.682C364.211 138.9 363.786 138.226 363.184 137.637C360.301 134.797 357.375 132.009 354.278 129.401C352.654 128.034 351.017 126.655 349.556 125.121C347.695 123.166 345.422 121.989 342.956 121.091C341.667 120.623 340.34 120.271 339.059 119.776C337.989 119.364 337.006 119.523 336.129 120.129C334.668 121.138 333.225 122.191 332 123.493L331.996 123.489Z" fill="#E8A67F"/>
<path d="M340.258 301.963C339.824 301.052 339.128 300.408 338.226 299.982C338.604 300.953 339.253 301.641 340.258 301.963Z" fill="#E7A37B"/>
<path d="M359.975 308.957C359.193 308.506 358.411 308.511 357.625 308.953C358.407 309.185 359.189 309.177 359.975 308.957Z" fill="#696D65"/>
<path d="M347.768 306.71C346.999 306.083 346.157 305.61 345.165 305.442C345.831 306.276 346.694 306.714 347.768 306.71Z" fill="#E7A37B"/>
<path d="M378.944 322.565C378.36 322.105 377.75 322.273 377.135 322.492C377.728 322.818 378.33 322.81 378.944 322.565Z" fill="#696D65"/>
<path d="M277.159 103.252C277.546 103.638 277.958 103.711 278.401 103.346C278.014 102.929 277.606 102.878 277.159 103.252Z" fill="#C2B1AE"/>
<path d="M268.084 103.345C268.527 103.715 268.935 103.642 269.326 103.259C268.884 102.877 268.471 102.933 268.084 103.345Z" fill="#C2B1AE"/>
<path d="M354.63 308.627C354.304 308.193 353.921 308.137 353.479 308.447C353.831 308.7 354.209 308.79 354.63 308.627Z" fill="#696D65"/>
<path d="M280.454 103.651C280.695 103.973 280.966 104.063 281.284 103.754C281.043 103.419 280.772 103.337 280.454 103.651Z" fill="#C2B1AE"/>
<path d="M397.836 263.126C398.124 263.427 398.459 263.599 398.889 263.53C398.661 263.079 398.3 262.963 397.836 263.126Z" fill="#894100"/>
<path d="M410.704 278.946C410.472 279.243 410.532 279.509 410.781 279.758C411.112 279.453 411.052 279.187 410.704 278.946Z" fill="#894100"/>
<path d="M265.202 103.737C265.519 104.046 265.79 103.969 266.031 103.638C265.713 103.315 265.442 103.41 265.202 103.737Z" fill="#C2B1AE"/>
<path d="M289.395 105.644C289.709 105.954 290.048 106.139 290.482 105.885C290.173 105.567 289.829 105.4 289.395 105.644Z" fill="#C2B1AE"/>
<path d="M342.767 303.969C342.638 303.54 342.342 303.334 341.904 303.316C341.994 303.798 342.303 303.991 342.767 303.969Z" fill="#E7A37B"/>
<path d="M262.727 104.188C263.118 104.553 263.405 104.295 263.693 104.029C263.324 103.797 263.006 103.861 262.727 104.188Z" fill="#C2B1AE"/>
<path d="M282.929 104.067C283.161 104.385 283.427 104.501 283.758 104.192C283.531 103.844 283.26 103.754 282.929 104.067Z" fill="#C2B1AE"/>
<path d="M344.013 304.777C343.859 304.36 343.553 304.171 343.115 304.184C343.235 304.657 343.553 304.824 344.013 304.777Z" fill="#E7A37B"/>
<path d="M352.718 308.313C352.421 308.042 352.099 307.913 351.704 308.09C351.987 308.412 352.314 308.524 352.718 308.313Z" fill="#E7A37B"/>
<path d="M392.955 262.555C392.942 262.676 392.968 262.787 393.037 262.89C393.479 262.843 393.943 262.873 394.304 262.53C393.853 262.362 393.406 262.469 392.959 262.555H392.955Z" fill="#894100"/>
<path d="M370.343 306.547C369.99 306.551 369.805 306.77 369.681 307.067C370.033 307.062 370.235 306.865 370.343 306.547Z" fill="#C2B1AE"/>
<path d="M369.573 307.149C369.358 307.131 369.221 307.222 369.156 307.428C369.38 307.466 369.53 307.385 369.573 307.149Z" fill="#C2B1AE"/>
<path d="M369.131 307.441C368.968 307.471 368.804 307.502 368.641 307.532C368.869 307.862 369.023 307.764 369.131 307.441Z" fill="#C2B1AE"/>
<path d="M350.243 307.681C350.114 307.462 349.929 307.402 349.693 307.479C349.822 307.699 350.002 307.776 350.243 307.681Z" fill="#C2B1AE"/>
<path d="M266.778 103.531C266.993 103.643 267.178 103.6 267.337 103.42C267.122 103.317 266.937 103.359 266.778 103.531Z" fill="#C2B1AE"/>
<path d="M338.754 311.849C338.685 312.076 338.771 312.248 338.956 312.377C339.021 312.149 338.948 311.973 338.754 311.849Z" fill="#C2B1AE"/>
<path d="M371.563 245.991C371.696 246.176 371.85 246.271 372.078 246.142C371.954 245.935 371.777 245.897 371.563 245.991Z" fill="#E7A37B"/>
<path d="M279.148 103.427C279.307 103.607 279.492 103.655 279.711 103.547C279.552 103.371 279.367 103.324 279.148 103.427Z" fill="#C2B1AE"/>
<path d="M330.389 231.198C331.626 228.465 332.842 225.724 334.436 223.176C334.513 222.562 334.788 222.042 335.235 221.612C335.317 221.393 335.428 221.209 335.695 221.183L335.639 221.153C335.639 220.538 335.617 219.95 335.381 219.344C332.713 212.512 330.35 205.569 327.931 198.647C326.234 193.797 324.494 188.963 322.775 184.116C322.251 182.634 321.757 181.135 321.224 179.657C321.052 179.175 320.67 179.021 320.249 179.296C318.87 180.189 317.486 181.083 316.167 182.058C312.468 184.782 308.884 187.64 305.563 190.836C303.737 192.594 301.838 194.273 300.158 196.181C300.377 197.079 300.91 197.792 301.563 198.407C302.422 199.215 302.783 200.194 302.715 201.354C302.693 201.694 302.74 202.042 302.706 202.381C302.448 205.002 303.539 207.172 304.962 209.234C307.467 212.873 310.603 215.889 314.113 218.553C315.08 219.288 316.176 219.907 316.928 220.912C317.28 220.929 317.576 221.075 317.851 221.299C320.025 223.069 322.182 224.852 324.382 226.588C326.363 228.152 328.391 229.664 330.397 231.198H330.389Z" fill="#8A89DD"/>
<path d="M336.348 297.494C336.211 297.151 336.043 296.833 335.695 296.652C335.777 297.035 335.695 297.55 336.348 297.494Z" fill="#C2B1AE"/>
<path d="M335.235 221.613C334.789 222.042 334.514 222.558 334.436 223.177C334.789 224.865 335.51 226.429 336.224 227.976C337.543 230.842 338.999 233.639 340.881 236.191C341.332 236.801 341.801 237.381 342.312 237.931C342.733 238.382 343.171 238.825 343.511 239.332C343.863 239.856 344.314 240.234 344.8 240.625C346.235 241.789 347.605 243.04 349.212 243.963C353.058 246.176 357.062 246.653 361.217 244.922C362.166 244.526 362.995 243.899 363.782 243.233C366.072 241.278 367.683 238.846 368.882 236.101C370.098 233.317 370.613 230.361 371.137 227.4C371.232 226.867 371.163 226.305 371.167 225.755C371.18 225.003 371.202 224.268 371.404 223.516C371.709 222.382 371.662 221.213 371.404 220.053C371.301 219.589 371.176 219.112 371.18 218.644C371.202 214.639 370.308 210.798 369.243 206.966C368.233 203.327 367.047 199.765 365.359 196.379C365.178 196.014 365.075 195.61 364.925 195.228C364.353 193.81 363.563 192.577 362.089 191.937C361.543 192.22 360.993 192.504 360.448 192.787C360.422 194.472 361.079 196.005 361.638 197.526C362.51 199.902 363.399 202.27 364.211 204.671C365.109 207.335 365.638 210.077 366.235 212.813C367.086 216.728 367.24 220.698 366.996 224.655C366.708 229.256 365.711 233.699 362.991 237.613C361.479 239.791 359.468 241.003 356.903 241.373C355.571 241.566 354.316 241.106 353.126 240.612C351.476 239.929 350.033 238.919 348.666 237.729C345.203 234.709 342.707 231.005 340.645 226.962C340.086 225.862 339.416 224.784 339.077 223.615C338.548 221.806 337.508 220.96 335.631 221.149C335.631 221.149 335.687 221.179 335.682 221.179C335.528 221.321 335.377 221.467 335.223 221.608L335.235 221.613Z" fill="#E7A37B"/>
<path d="M309.727 152.563C309.735 153.332 309.77 153.925 309.993 154.531C311.093 157.483 312.111 160.464 313.215 163.412C314.56 166.999 315.939 170.578 317.361 174.136C317.662 174.888 318.182 175.558 318.655 176.228C318.96 176.662 319.454 176.731 319.957 176.619C320.494 176.499 320.79 176.143 320.825 175.61C320.876 174.858 320.842 174.123 320.67 173.367C320.047 170.621 319.157 167.962 318.242 165.311C317.211 162.333 316.36 159.296 315.136 156.383C314.792 155.571 314.762 154.608 314.341 153.852C313.722 152.739 313.941 152 314.809 151.145C315.879 150.097 316.824 148.911 317.765 147.738C319.776 145.233 321.77 142.715 323.729 140.172C325.525 137.843 327.256 135.467 329.031 133.125C329.856 132.034 330.741 130.99 331.54 129.886C332.094 129.117 332.696 128.374 332.954 127.407C333.289 126.152 332.528 124.885 331.244 124.739C330.599 124.666 330.058 124.842 329.551 125.293C328.361 126.35 327.428 127.626 326.47 128.868C324.339 131.626 322.221 134.393 320.154 137.199C317.151 141.272 313.972 145.212 311.209 149.465C310.985 149.809 310.814 150.213 310.521 150.484C309.855 151.102 309.619 151.837 309.718 152.554L309.727 152.563Z" fill="#E7A37B"/>
<path d="M345.77 166.789C346.265 166.505 346.759 166.222 347.253 165.938C347.386 164.812 347.12 163.738 346.651 162.746C345.917 161.199 345.221 159.635 344.28 158.187C343.76 157.388 343.364 156.503 342.935 155.644C342.595 154.965 342.625 154.282 343.214 153.757C345.165 152.017 346.634 149.83 348.503 148.017C348.748 147.777 348.993 147.536 349.251 147.313C349.547 147.05 349.874 147.046 350.179 147.287C350.394 147.454 350.608 147.639 350.776 147.85C351.721 149.018 352.611 150.23 353.59 151.364C355.378 153.439 357.113 155.558 359.111 157.444C359.863 158.153 360.68 158.221 361.582 158.071C362.226 157.964 362.793 157.315 362.892 156.649C363.03 155.729 362.914 154.814 362.304 154.114C361.496 153.182 360.843 152.138 359.988 151.235C358.63 149.8 357.466 148.18 356.138 146.715C354.896 145.345 353.607 143.996 352.22 142.775C350.969 141.675 349.35 141.843 347.906 142.234C347.012 142.475 346.436 143.433 345.818 144.167C344.58 145.624 343.369 147.102 342.161 148.584C341.083 149.908 340.086 151.304 338.948 152.567C337.912 153.714 337.981 154.93 338.479 156.189C338.857 157.143 339.3 158.093 339.858 158.948C340.688 160.219 341.302 161.594 342.024 162.918C342.449 163.695 342.913 164.46 343.437 165.182C344.013 165.977 344.791 166.535 345.762 166.789H345.77Z" fill="#E7A37B"/>
<path d="M352.155 269.473C351.781 269.743 351.799 270.104 351.915 270.491C352.245 270.212 352.542 269.924 352.155 269.473Z" fill="#E7A37B"/>
<path d="M335.235 221.612C335.39 221.47 335.54 221.324 335.695 221.183C335.433 221.208 335.317 221.393 335.235 221.612Z" fill="#FFB68A"/>
</svg>
