<svg width="500" height="500" viewBox="0 0 500 500" fill="none" xmlns="http://www.w3.org/2000/svg">
<path d="M155.065 376.912C157.555 373.289 160.176 369.764 162.851 366.275C172.513 353.649 182.148 341.002 191.768 328.345C195.246 323.766 198.686 319.158 202.094 314.523C204.034 311.88 206.189 309.422 208.362 306.98C211.587 303.357 214.765 299.699 217.715 295.843C218.847 294.361 220.099 292.989 221.355 291.617C229.307 282.917 237.061 274.045 244.614 264.996C250.467 257.983 256.326 250.977 262.186 243.971C262.472 243.628 262.708 243.226 263.145 243.039C263.128 242.535 263.103 242.051 263.502 241.625C264.454 240.598 265.347 239.519 266.303 238.499C268.487 236.167 270.822 233.983 272.939 231.578C275.489 228.674 278.474 226.166 280.954 223.181C282.178 221.71 283.723 220.571 285.141 219.297C285.494 218.983 285.871 218.789 286.351 218.8C286.743 218.81 287.138 218.796 287.53 218.793C287.731 218.027 287.822 217.248 287.829 216.454C287.833 215.889 287.858 215.325 287.911 214.768C288.087 212.923 288.295 211.078 288.471 209.233C288.736 206.435 288.934 203.627 289.258 200.836C289.389 199.718 289.477 198.596 289.597 197.481C289.773 195.862 289.988 194.246 290.154 192.624C290.316 191.057 290.359 189.473 290.613 187.925C290.824 186.641 290.828 185.346 291.004 184.065C291.216 182.506 291.375 180.94 291.541 179.373C291.699 177.863 291.819 176.35 291.982 174.84C292.285 172.046 292.578 169.252 292.931 166.465C293.1 165.139 293.086 163.759 293.749 162.532C293.615 162.482 293.481 162.429 293.347 162.38C292.991 162.588 292.708 162.44 292.454 162.182C290.913 161.784 289.368 161.389 287.826 160.99C287.554 161.241 287.339 161.145 287.145 160.888C286.693 160.803 286.245 160.715 285.794 160.63C285.533 160.884 285.311 160.81 285.113 160.546C284.908 160.517 284.704 160.489 284.499 160.461C284.319 160.549 284.168 160.51 284.037 160.362C283.832 160.337 283.628 160.316 283.423 160.292C283.06 160.591 282.721 160.531 282.404 160.214C280.262 160.027 278.117 160.045 275.976 160.221C275.655 160.535 275.316 160.595 274.957 160.292C274.752 160.313 274.544 160.334 274.339 160.355C274.209 160.5 274.057 160.538 273.881 160.447C273.676 160.475 273.471 160.503 273.267 160.531C273.069 160.803 272.847 160.867 272.586 160.613C272.173 160.694 271.76 160.771 271.348 160.852C271.111 161.071 270.875 161.279 270.554 160.983C262.398 162.736 255.275 166.649 248.632 171.542C247.408 172.445 246.254 173.443 245.059 174.385C243.086 175.941 241.566 177.892 240.116 179.913C237.248 183.91 234.856 188.179 232.563 192.525C220.618 215.163 209.28 238.111 197.846 261.006C196.336 264.033 194.819 267.056 193.338 270.097C192.953 270.888 192.47 271.544 191.69 271.957C186.395 274.779 182.49 279.164 178.673 283.63C173.06 290.206 168.163 297.307 163.468 304.55C156.31 315.581 149.886 327.032 144.09 338.836C141.952 343.186 139.934 347.596 138.015 352.048C136.964 354.486 136.276 357.047 135.418 359.551C134.194 363.129 133.334 366.801 132.476 370.477C133.041 370.466 133.584 370.569 134.127 370.731C136.11 371.331 138.107 371.888 140.093 372.484C144.866 373.92 149.71 375.12 154.394 376.838C154.599 376.912 154.835 376.894 155.058 376.919L155.065 376.912Z" fill="#696E66"/>
<path d="M332.978 331.481C332.336 329.399 331.983 327.251 331.549 325.124C331.327 324.034 331.116 322.94 330.918 321.843C330.83 321.353 330.777 320.852 330.749 320.354C330.735 320.114 330.921 319.963 331.154 319.899C331.165 319.786 331.112 319.719 330.999 319.698C330.463 319.744 330.533 319.321 330.463 319.007C330.477 318.823 330.491 318.636 330.505 318.453C330.04 318.192 330.043 317.691 329.962 317.271C329.782 316.315 329.387 315.454 328.939 314.607C328.544 313.863 328.149 313.115 327.778 312.36C326.752 310.261 325.344 308.462 323.57 306.938C322.631 306.134 321.725 305.291 320.797 304.476C319.488 303.326 318.19 302.165 316.86 301.043C315.403 299.819 315.24 299.12 316.108 297.417C316.186 297.268 316.292 297.131 316.369 296.983C317.241 295.385 318.49 294.086 319.707 292.763C320.391 292.019 321.139 291.335 321.859 290.622C322.109 290.375 322.25 290.096 322.204 289.722C321.993 287.997 321.873 286.255 321.569 284.544C321.262 282.794 321.209 281.09 321.725 279.382C320.913 276.289 319.954 273.237 318.98 270.189C317.717 266.234 316.514 262.255 315.3 258.286C315.156 257.81 314.898 257.344 315.046 256.815C314.429 255.99 313.53 255.482 312.736 254.878C309.854 252.691 307.282 250.215 305.222 247.227C304.054 245.53 303.158 243.748 303.369 241.6C303.398 241.321 303.359 241.039 303.377 240.757C303.433 239.804 303.137 239 302.431 238.337C301.895 237.832 301.457 237.247 301.277 236.513C300.103 235.514 299.373 234.163 298.487 232.943C295.781 229.221 293.079 225.503 289.967 222.098C289.477 221.562 289.033 220.987 288.563 220.43C288.429 220.61 288.331 220.857 288.154 220.955C287.35 221.403 286.743 222.074 286.122 222.719C282.407 226.565 278.506 230.219 274.9 234.181C271.679 237.719 268.173 240.997 264.786 244.383C264.592 244.577 264.338 244.715 264.112 244.881C264.084 245.308 264.349 245.629 264.518 245.974C266.987 250.977 269.418 256 271.962 260.964C274.615 266.132 276.936 271.448 279.352 276.726C282.94 284.565 286.528 292.4 290.116 300.239C290.327 300.701 290.518 301.174 290.758 301.618C291.227 302.493 291.329 303.386 291.23 304.384C290.867 308.19 291.47 311.912 292.37 315.599C293.911 321.913 296.183 327.978 298.843 333.897C303.638 344.555 309.275 354.757 315.6 364.582C319.968 371.366 324.67 377.903 329.726 384.193C330.294 384.899 330.816 385.625 331.151 386.472C331.451 386.324 331.761 386.2 332.047 386.024C335.437 383.953 338.834 381.886 342.21 379.794C344.447 378.411 346.737 377.109 348.832 375.511C347.396 371.373 345.893 367.26 344.546 363.093C342.814 357.742 340.679 352.542 338.834 347.236C337.155 342.406 335.465 337.58 333.447 332.878C333.317 332.571 333.239 332.239 333.137 331.918C332.985 331.809 332.911 331.671 332.971 331.484L332.978 331.481Z" fill="#696D65"/>
<path d="M288.57 220.43C289.035 220.987 289.483 221.562 289.974 222.098C293.085 225.499 295.787 229.221 298.493 232.943C299.379 234.16 300.109 235.514 301.287 236.509C302.667 234.943 304.226 233.567 305.725 232.121C308.452 229.496 311.391 227.15 314.432 224.913C315.518 224.113 316.651 223.379 317.783 222.645C318.132 222.419 318.443 222.546 318.584 222.941C319.021 224.158 319.427 225.386 319.858 226.603C321.265 230.583 322.697 234.551 324.091 238.534C326.081 244.217 328.017 249.918 330.208 255.528C330.402 256.025 330.416 256.508 330.42 257.013C331.958 256.857 332.812 257.552 333.249 259.038C333.531 259.997 334.078 260.883 334.537 261.786C336.23 265.105 338.28 268.146 341.123 270.626C342.245 271.604 343.43 272.436 344.785 272.994C345.762 273.399 346.792 273.773 347.886 273.618C349.988 273.315 351.639 272.32 352.885 270.531C355.118 267.317 355.936 263.673 356.173 259.891C356.377 256.642 356.247 253.386 355.548 250.169C355.058 247.922 354.624 245.671 353.887 243.484C353.223 241.512 352.493 239.568 351.773 237.617C351.315 236.368 350.775 235.109 350.796 233.726C350.5 233.324 350.158 232.943 349.911 232.512C348.821 230.618 347.773 228.695 346.683 226.801C345.229 224.271 343.762 221.752 342.284 219.241C340.975 217.015 339.68 214.789 338.738 212.372C337.941 212.164 337.302 211.705 336.83 211.053C336.403 210.464 336.018 209.836 335.669 209.194C335.076 208.107 334.575 206.978 333.891 205.934C333.432 205.232 333.069 204.452 332.759 203.669C332.349 202.632 332.293 201.637 333.143 200.695C334.082 199.658 334.9 198.511 335.782 197.425C336.773 196.208 337.768 194.994 338.784 193.798C339.292 193.199 339.765 192.412 340.499 192.211C341.684 191.89 343.014 191.752 344.04 192.655C345.18 193.657 346.235 194.765 347.258 195.89C348.348 197.093 349.304 198.423 350.419 199.602C351.121 200.342 351.657 201.2 352.32 201.965C352.818 202.54 352.916 203.292 352.803 204.047C352.722 204.593 352.257 205.126 351.727 205.214C350.987 205.338 350.316 205.285 349.699 204.699C348.059 203.15 346.633 201.411 345.166 199.707C344.361 198.776 343.628 197.781 342.855 196.822C342.714 196.649 342.541 196.497 342.365 196.36C342.114 196.162 341.846 196.169 341.603 196.381C341.391 196.568 341.19 196.765 340.989 196.959C339.454 198.448 338.248 200.24 336.646 201.672C336.163 202.103 336.142 202.66 336.417 203.221C336.766 203.927 337.091 204.653 337.521 205.309C338.294 206.498 338.865 207.782 339.468 209.052C339.857 209.867 340.072 210.749 339.962 211.674C341.578 211.229 343.183 210.739 344.813 210.344C348.02 209.564 351.272 209.014 354.532 208.495C354.55 207.673 353.996 207.042 353.798 206.287C353.565 205.405 353.506 205.373 354.218 204.918C354.924 204.47 355.386 203.694 356.232 203.454C356.24 203.285 356.194 203.091 356.264 202.953C356.744 202.007 356.525 201.094 356.173 200.184C355.075 197.361 353.968 194.543 352.885 191.713C352.74 191.339 352.62 190.976 352.317 190.701C351.53 189.981 350.842 189.177 349.953 188.549C348.905 187.808 347.97 186.905 347 186.058C345.903 185.102 344.866 184.062 343.716 183.176C341.405 181.395 339.274 179.409 337.08 177.496C336.784 177.239 336.533 176.932 336.114 176.854C334.96 176.636 333.813 176.396 332.66 176.188C332.452 176.149 332.215 176.223 331.997 176.262C330.988 176.445 330.109 176.904 329.28 177.503C328.631 177.973 328.423 177.927 327.823 177.366C327.664 177.218 327.562 177.006 327.432 176.823C327.075 176.83 326.797 176.66 326.511 176.466C321.65 173.2 316.467 170.487 311.151 168.081C306.713 166.073 302.183 164.214 297.393 163.138C296.19 162.87 294.994 162.563 293.752 162.521C293.089 163.749 293.103 165.128 292.933 166.454C292.581 169.241 292.284 172.035 291.984 174.829C291.822 176.339 291.702 177.853 291.543 179.363C291.381 180.929 291.222 182.495 291.007 184.055C290.831 185.339 290.827 186.63 290.616 187.914C290.362 189.463 290.323 191.047 290.157 192.613C289.988 194.232 289.773 195.852 289.6 197.471C289.48 198.589 289.388 199.707 289.261 200.826C288.936 203.616 288.739 206.424 288.474 209.222C288.301 211.067 288.093 212.912 287.913 214.757C287.86 215.318 287.836 215.882 287.832 216.443C287.825 217.237 287.733 218.017 287.532 218.782C287.695 219.449 288.354 219.798 288.58 220.426L288.57 220.43ZM309.144 200.695C309.059 200.102 309.257 199.503 309.803 198.995C310.043 198.773 310.184 198.441 310.368 198.159C312.633 194.67 315.247 191.431 317.713 188.087C319.409 185.783 321.149 183.508 322.898 181.246C323.689 180.227 324.451 179.179 325.428 178.311C325.844 177.941 326.289 177.796 326.818 177.856C327.873 177.976 328.497 179.017 328.222 180.047C328.01 180.841 327.52 181.451 327.061 182.083C326.405 182.989 325.678 183.85 325.001 184.743C323.544 186.669 322.122 188.62 320.648 190.528C319.039 192.617 317.402 194.684 315.751 196.741C314.979 197.704 314.202 198.677 313.324 199.538C312.608 200.24 312.431 200.847 312.939 201.761C313.285 202.381 313.31 203.172 313.592 203.838C314.598 206.23 315.296 208.724 316.143 211.169C316.894 213.346 317.628 215.53 318.136 217.784C318.277 218.405 318.305 219.008 318.263 219.625C318.231 220.063 317.988 220.355 317.55 220.454C317.138 220.546 316.732 220.49 316.481 220.133C316.093 219.583 315.666 219.033 315.42 218.415C314.252 215.494 313.119 212.556 312.015 209.61C311.109 207.19 310.272 204.742 309.369 202.318C309.186 201.821 309.158 201.334 309.151 200.702L309.144 200.695Z" fill="#FFB68A"/>
<path d="M331.002 319.694C331.115 319.715 331.168 319.782 331.157 319.895C331.461 320.629 332.096 321.109 332.54 321.737C333.281 322.089 333.853 322.619 334.209 323.363C334.661 323.733 335.112 324.104 335.56 324.474C335.92 324.488 336.163 324.661 336.269 325.01C336.364 325.07 336.456 325.127 336.551 325.187C336.911 325.176 337.162 325.331 337.289 325.674C337.603 325.857 337.92 326.041 338.234 326.22C339.049 326.358 339.741 326.746 340.372 327.261C340.898 327.469 341.427 327.681 341.952 327.889C342.146 327.826 342.298 327.875 342.404 328.055C342.806 328.168 343.205 328.281 343.607 328.394C343.928 328.249 344.196 328.355 344.44 328.577C344.648 328.612 344.856 328.651 345.064 328.686C345.427 328.432 345.741 328.478 346.009 328.835C346.821 329.025 347.632 329.177 348.472 329.103C349.114 328.739 349.759 328.736 350.401 329.106C352.455 329.113 354.43 328.665 356.381 328.087C356.755 327.974 357.108 327.759 357.517 327.935C357.651 327.91 357.785 327.886 357.919 327.861L357.94 327.85C357.993 327.685 358.106 327.607 358.283 327.621L358.371 327.554C358.473 327.311 358.625 327.131 358.914 327.127C359.284 326.877 359.63 326.587 360.025 326.383C362.78 324.936 365.155 323.017 367.173 320.654C367.681 320.057 368.21 319.479 368.728 318.893C369.039 317.807 369.43 316.762 370.072 315.821C371.448 313.806 372.316 311.555 373.06 309.255C373.371 308.299 373.632 307.315 373.78 306.324C373.897 305.551 373.942 304.775 374.073 303.995C374.239 303.008 374.281 301.999 374.45 301C374.574 300.291 374.56 299.522 374.426 298.813C373.889 296.012 373.318 293.215 372.679 290.435C372.51 289.697 372.429 289.006 372.567 288.276C372.531 288.138 372.492 288 372.457 287.863C372.15 287.397 371.833 286.935 371.533 286.462C369.892 283.869 367.829 281.679 365.31 279.922C363.779 278.853 362.124 278.045 360.332 277.523C360.149 277.629 360.018 277.551 359.909 277.399C359.591 277.357 359.274 277.315 358.953 277.272C357.972 277.967 357.249 278.909 356.483 279.809C353.012 283.891 349.541 287.976 346.073 292.057C344.013 294.485 344.489 293.613 343.97 296.675C344.291 297.046 344.044 297.282 343.773 297.511C343.699 300.334 342.979 303.071 342.63 305.855C342.584 306.218 342.316 306.43 342.072 306.666C338.696 309.975 335.327 313.288 331.951 316.597C331.387 317.151 330.865 317.733 330.494 318.438C330.48 318.622 330.466 318.809 330.452 318.992C330.734 319.14 330.875 319.401 330.988 319.684L331.002 319.694Z" fill="#884100"/>
<path d="M330.508 318.449C330.879 317.743 331.397 317.161 331.965 316.607C335.341 313.302 338.71 309.986 342.087 306.677C342.33 306.44 342.595 306.229 342.644 305.865C342.997 303.078 343.713 300.344 343.787 297.522C343.692 297.205 343.678 296.908 343.984 296.686C344.503 293.627 344.023 294.495 346.087 292.068C349.555 287.983 353.026 283.901 356.498 279.82C357.263 278.92 357.986 277.975 358.967 277.283C358.805 276.059 358.695 274.821 358.455 273.611C358.35 273.071 358.378 272.634 358.628 272.161C360.597 268.492 361.599 264.516 362.332 260.459C362.812 257.792 363.006 255.104 362.978 252.395C362.957 250.476 363.056 248.553 362.925 246.644C362.766 244.348 362.735 242.037 362.382 239.751C362.184 238.474 362.149 237.172 361.955 235.895C361.634 233.786 361.486 231.648 360.89 229.584C360.286 229.718 359.673 229.824 359.08 229.99C356.628 230.678 354.243 231.528 352.148 233.027C353.358 233.553 354.007 234.565 354.476 235.729C354.603 236.04 354.684 236.375 354.832 236.675C356.219 239.455 357.189 242.379 358.022 245.367C358.896 248.511 359.63 251.664 359.613 254.956C359.613 255.34 359.711 255.732 359.796 256.113C360.008 257.062 360.046 258.025 359.796 258.956C359.63 259.57 359.609 260.177 359.602 260.794C359.595 261.246 359.655 261.708 359.577 262.145C359.147 264.573 358.724 267 357.725 269.289C356.741 271.543 355.422 273.54 353.538 275.145C352.892 275.696 352.215 276.207 351.432 276.532C348.017 277.953 344.732 277.562 341.575 275.745C340.256 274.987 339.13 273.96 337.952 273.004C337.553 272.679 337.183 272.372 336.894 271.942C336.615 271.526 336.255 271.162 335.909 270.792C335.486 270.34 335.102 269.864 334.735 269.363C333.186 267.264 331.99 264.968 330.91 262.618C330.325 261.348 329.732 260.064 329.443 258.674C328.134 260.77 327.136 263.02 326.12 265.264C326.222 265.398 326.3 265.557 326.423 265.663C327.446 266.538 328.469 267.409 329.506 268.266C329.898 268.591 330.3 268.891 330.48 269.395C330.858 270.457 331.189 271.519 331.207 272.665C331.217 273.311 331.002 273.717 330.417 273.999C329.051 274.658 327.707 275.361 326.349 276.041C325.344 276.546 324.352 277.082 323.485 277.802C322.881 278.303 322.32 278.853 321.738 279.382C321.223 281.09 321.276 282.797 321.583 284.543C321.886 286.254 322.006 287.994 322.218 289.722C322.264 290.096 322.123 290.375 321.872 290.622C321.153 291.334 320.405 292.019 319.72 292.763C318.503 294.086 317.254 295.384 316.383 296.982C316.302 297.13 316.196 297.265 316.122 297.416C315.251 299.12 315.416 299.819 316.873 301.043C318.207 302.165 319.505 303.325 320.81 304.475C321.738 305.29 322.645 306.133 323.583 306.938C325.354 308.462 326.762 310.257 327.792 312.36C328.162 313.118 328.557 313.863 328.953 314.607C329.401 315.454 329.796 316.311 329.976 317.271C330.053 317.687 330.053 318.191 330.519 318.452L330.508 318.449Z" fill="#FFB68A"/>
<path d="M155.065 376.911C154.842 376.887 154.603 376.904 154.402 376.83C149.717 375.112 144.869 373.913 140.1 372.477C138.114 371.881 136.117 371.323 134.134 370.724C133.591 370.558 133.048 370.459 132.483 370.47C131.824 371.034 131.418 371.768 131.122 372.569C130.536 374.156 130.06 375.775 129.756 377.44C129.375 379.543 128.874 381.631 129.005 383.794C129.005 383.85 129.005 383.907 128.998 383.963C128.441 387.735 129.7 391.061 131.566 394.211C133.006 396.646 135.27 397.743 138.04 397.866C138.996 397.909 139.959 397.898 140.915 397.902C149.092 397.916 157.273 397.863 165.451 397.979C167.708 398.011 169.38 397.182 170.774 395.587C171.779 394.434 172.534 393.146 172.859 391.59C173.071 390.578 172.944 389.675 172.506 388.81C171.571 386.972 170.262 385.424 168.527 384.295C166.685 383.099 164.812 381.952 162.914 380.845C161.404 379.966 159.855 379.151 158.3 378.361C157.245 377.828 156.144 377.388 155.065 376.904V376.911Z" fill="#FFB68A"/>
<path d="M348.839 375.508C346.743 377.106 344.45 378.408 342.217 379.791C338.837 381.883 335.444 383.95 332.053 386.021C331.771 386.193 331.457 386.32 331.157 386.469C331.006 387.693 331.535 388.79 331.817 389.929C332.304 391.905 332.956 393.821 333.891 395.634C334.625 397.059 335.613 398.269 336.805 399.331C337.684 400.114 338.728 400.488 339.878 400.576C340.439 400.619 341.007 400.601 341.571 400.604C350.825 400.619 360.078 400.633 369.328 400.647C369.554 400.647 369.783 400.622 370.005 400.647C373.346 401.007 377.505 396.798 376.384 392.314C376.013 390.829 375.551 389.372 374.27 388.363C374.006 388.155 373.755 387.922 373.466 387.756C372.538 387.224 371.61 386.687 370.658 386.201C364.985 383.297 359.309 380.404 353.629 377.515C352.426 376.901 351.202 376.326 349.992 375.727C349.625 375.547 349.241 375.501 348.842 375.515L348.839 375.508Z" fill="#FFB68A"/>
<path d="M371.466 320.361C370.171 323.028 368.851 325.685 367.585 328.369C366.318 331.054 365.105 333.763 363.877 336.462C363.669 336.921 363.468 337.386 363.309 337.863C362.967 338.907 363.108 339.312 364.032 340.018C364.163 340.117 364.336 340.152 364.491 340.219C364.992 340.036 365.497 339.902 365.976 340.279C367.324 340.23 368.492 339.644 369.553 338.91C372.051 337.185 374.609 335.545 376.948 333.59C378.99 331.886 380.825 329.996 382.38 327.844C383.83 325.84 385.28 323.833 386.695 321.801C388.73 318.876 390.367 315.747 391.38 312.311C392.071 309.965 392.276 307.566 392.117 305.132C391.913 304.927 391.867 304.708 392.054 304.465C391.535 301.29 390.159 298.542 388.057 296.108C386.455 294.252 384.578 292.809 382.349 291.811C381.996 291.867 381.721 291.726 381.484 291.479C380.539 291.186 379.579 290.989 378.585 290.985C378.292 291.268 377.907 291.243 377.544 291.282C377.537 291.772 377.209 292.185 377.399 292.749C378.052 294.675 378.242 296.676 378.232 298.708C378.225 299.731 377.943 300.704 377.897 301.706C377.812 303.505 377.495 305.28 377.046 306.998C376.411 309.432 375.798 311.88 374.824 314.226C374.002 316.202 373.12 318.135 371.974 319.941C371.861 320.118 371.638 320.224 371.466 320.365V320.361Z" fill="#894100"/>
<path d="M352.144 233.031C354.239 231.528 356.624 230.681 359.076 229.993C359.672 229.827 360.282 229.722 360.886 229.588C360.632 227.347 360.067 225.167 359.535 222.984C358.49 218.711 357.227 214.51 355.502 210.453C355.217 209.783 354.991 209.077 354.518 208.502C351.262 209.021 348.006 209.571 344.799 210.351C343.169 210.746 341.564 211.232 339.948 211.68C339.543 211.913 339.137 212.146 338.731 212.379C339.673 214.792 340.968 217.022 342.277 219.248C343.755 221.759 345.222 224.282 346.676 226.808C347.766 228.702 348.814 230.625 349.904 232.519C350.151 232.949 350.493 233.33 350.789 233.733C351.237 233.5 351.689 233.267 352.137 233.034L352.144 233.031Z" fill="#8A8ADD"/>
<path d="M371.466 320.361C371.639 320.22 371.861 320.114 371.974 319.938C373.12 318.131 374.006 316.198 374.824 314.223C375.798 311.877 376.412 309.428 377.047 306.994C377.495 305.276 377.812 303.502 377.897 301.703C377.943 300.701 378.225 299.727 378.232 298.704C378.243 296.668 378.052 294.668 377.399 292.745C377.209 292.181 377.537 291.768 377.544 291.278C377.488 291.193 377.466 291.105 377.477 291.003C377.17 290.83 376.867 290.661 376.56 290.488C376.189 290.467 375.921 290.304 375.794 289.941C375.699 289.916 375.618 289.87 375.547 289.803C374.958 289.687 374.429 289.475 374.087 288.943C373.995 288.921 373.914 288.879 373.843 288.816C373.339 288.83 372.997 288.442 372.566 288.279C372.429 289.01 372.506 289.701 372.679 290.438C373.318 293.218 373.889 296.012 374.426 298.817C374.56 299.526 374.57 300.295 374.45 301.004C374.277 302.002 374.235 303.011 374.073 303.999C373.942 304.775 373.896 305.555 373.78 306.327C373.632 307.319 373.367 308.303 373.06 309.259C372.316 311.559 371.448 313.81 370.072 315.824C369.43 316.766 369.035 317.81 368.728 318.897C369.744 319.193 370.534 319.906 371.466 320.361Z" fill="#5E3818"/>
<path d="M288.57 220.43C288.345 219.802 287.685 219.452 287.523 218.786C287.131 218.789 286.736 218.803 286.344 218.793C285.865 218.782 285.487 218.973 285.134 219.29C283.716 220.564 282.171 221.703 280.947 223.174C278.463 226.159 275.482 228.663 272.932 231.57C270.815 233.98 268.483 236.16 266.296 238.492C265.34 239.511 264.447 240.591 263.495 241.617C263.1 242.044 263.121 242.528 263.139 243.032C263.467 243.646 263.791 244.263 264.119 244.877C264.345 244.715 264.599 244.577 264.793 244.38C268.18 240.993 271.686 237.716 274.907 234.177C278.513 230.216 282.414 226.561 286.129 222.716C286.753 222.07 287.357 221.4 288.161 220.952C288.341 220.853 288.436 220.606 288.57 220.426V220.43Z" fill="#494A45"/>
<path d="M327.428 176.822C327.555 177.006 327.657 177.218 327.82 177.366C328.419 177.927 328.627 177.972 329.277 177.503C330.106 176.904 330.984 176.445 331.993 176.261C332.212 176.223 332.445 176.149 332.656 176.187C333.81 176.392 334.96 176.632 336.11 176.854C336.526 176.935 336.78 177.242 337.077 177.496C339.271 179.408 341.402 181.394 343.712 183.176C344.862 184.065 345.899 185.102 346.997 186.058C347.967 186.905 348.902 187.808 349.949 188.549C350.835 189.177 351.526 189.985 352.313 190.701C352.613 190.976 352.736 191.336 352.881 191.713C353.96 194.542 355.072 197.361 356.169 200.183C356.522 201.094 356.74 202.007 356.261 202.953C356.19 203.09 356.236 203.284 356.229 203.454C356.698 203.316 356.956 202.921 357.224 202.575C357.689 201.968 357.841 201.298 357.605 200.522C356.539 197.022 355.474 193.526 354.133 190.119C353.879 189.477 353.53 188.923 353.036 188.439C350.669 186.108 348.267 183.818 345.723 181.677C344.39 180.555 343.046 179.422 341.846 178.163C340.319 176.558 338.452 175.591 336.427 174.854C335.369 174.469 334.279 174.18 333.228 173.774C332.349 173.436 331.541 173.566 330.822 174.064C329.622 174.893 328.437 175.757 327.432 176.826L327.428 176.822Z" fill="#E8A67F"/>
<path d="M334.213 323.363C333.857 322.615 333.285 322.086 332.544 321.737C332.855 322.534 333.387 323.099 334.213 323.363Z" fill="#E7A37B"/>
<path d="M350.401 329.107C349.759 328.736 349.117 328.74 348.472 329.103C349.114 329.293 349.756 329.286 350.401 329.107Z" fill="#696D65"/>
<path d="M340.379 327.261C339.747 326.746 339.056 326.358 338.241 326.221C338.788 326.905 339.497 327.265 340.379 327.261Z" fill="#E7A37B"/>
<path d="M365.977 340.279C365.497 339.902 364.996 340.039 364.491 340.219C364.978 340.487 365.472 340.48 365.977 340.279Z" fill="#696D65"/>
<path d="M282.403 160.207C282.721 160.524 283.059 160.584 283.423 160.284C283.105 159.942 282.77 159.9 282.403 160.207Z" fill="#C2B1AE"/>
<path d="M274.953 160.284C275.316 160.588 275.652 160.528 275.973 160.214C275.609 159.9 275.271 159.946 274.953 160.284Z" fill="#C2B1AE"/>
<path d="M346.013 328.835C345.745 328.478 345.431 328.432 345.067 328.686C345.357 328.895 345.667 328.969 346.013 328.835Z" fill="#696D65"/>
<path d="M285.109 160.535C285.307 160.8 285.529 160.874 285.79 160.62C285.592 160.344 285.37 160.277 285.109 160.535Z" fill="#C2B1AE"/>
<path d="M381.488 291.476C381.725 291.723 382 291.864 382.353 291.807C382.166 291.437 381.869 291.342 381.488 291.476Z" fill="#894100"/>
<path d="M392.054 304.465C391.863 304.708 391.913 304.927 392.117 305.132C392.389 304.881 392.34 304.662 392.054 304.465Z" fill="#894100"/>
<path d="M272.586 160.606C272.847 160.86 273.069 160.796 273.267 160.524C273.006 160.26 272.783 160.337 272.586 160.606Z" fill="#C2B1AE"/>
<path d="M292.45 162.172C292.708 162.426 292.986 162.578 293.343 162.369C293.089 162.108 292.807 161.971 292.45 162.172Z" fill="#C2B1AE"/>
<path d="M336.272 325.011C336.167 324.658 335.923 324.489 335.563 324.475C335.637 324.87 335.891 325.028 336.272 325.011Z" fill="#E7A37B"/>
<path d="M270.554 160.976C270.875 161.275 271.111 161.064 271.348 160.845C271.044 160.655 270.783 160.707 270.554 160.976Z" fill="#C2B1AE"/>
<path d="M287.141 160.877C287.332 161.138 287.551 161.233 287.822 160.979C287.635 160.694 287.413 160.62 287.141 160.877Z" fill="#C2B1AE"/>
<path d="M337.296 325.674C337.169 325.332 336.918 325.176 336.559 325.187C336.657 325.575 336.918 325.713 337.296 325.674Z" fill="#E7A37B"/>
<path d="M344.443 328.577C344.2 328.355 343.935 328.249 343.611 328.394C343.844 328.659 344.112 328.75 344.443 328.577Z" fill="#E7A37B"/>
<path d="M377.481 291.006C377.471 291.105 377.492 291.197 377.548 291.281C377.912 291.243 378.293 291.267 378.589 290.985C378.218 290.847 377.852 290.936 377.485 291.006H377.481Z" fill="#894100"/>
<path d="M358.914 327.127C358.625 327.131 358.473 327.311 358.371 327.554C358.66 327.551 358.826 327.388 358.914 327.127Z" fill="#C2B1AE"/>
<path d="M358.282 327.621C358.106 327.607 357.993 327.681 357.94 327.851C358.123 327.882 358.247 327.815 358.282 327.621Z" fill="#C2B1AE"/>
<path d="M357.919 327.861C357.785 327.886 357.651 327.911 357.517 327.935C357.704 328.207 357.831 328.126 357.919 327.861Z" fill="#C2B1AE"/>
<path d="M342.411 328.059C342.305 327.879 342.154 327.83 341.96 327.893C342.065 328.073 342.214 328.137 342.411 328.059Z" fill="#C2B1AE"/>
<path d="M273.88 160.436C274.057 160.528 274.208 160.492 274.339 160.344C274.162 160.26 274.011 160.295 273.88 160.436Z" fill="#C2B1AE"/>
<path d="M332.978 331.48C332.921 331.667 332.992 331.809 333.143 331.914C333.196 331.727 333.136 331.583 332.978 331.48Z" fill="#C2B1AE"/>
<path d="M359.916 277.407C360.025 277.559 360.152 277.636 360.339 277.53C360.237 277.361 360.092 277.329 359.916 277.407Z" fill="#E7A37B"/>
<path d="M284.037 160.351C284.167 160.5 284.319 160.538 284.499 160.45C284.368 160.306 284.217 160.267 284.037 160.351Z" fill="#C2B1AE"/>
<path d="M326.109 265.261C327.125 263.017 328.123 260.766 329.432 258.674C329.496 258.17 329.721 257.743 330.088 257.39C330.155 257.21 330.247 257.059 330.466 257.037L330.42 257.013C330.42 256.508 330.402 256.025 330.208 255.528C328.018 249.918 326.077 244.217 324.091 238.534C322.698 234.551 321.269 230.583 319.858 226.603C319.427 225.386 319.022 224.155 318.584 222.941C318.443 222.546 318.129 222.419 317.783 222.645C316.651 223.379 315.515 224.113 314.432 224.913C311.395 227.15 308.452 229.496 305.725 232.121C304.226 233.563 302.667 234.943 301.288 236.509C301.467 237.247 301.905 237.832 302.441 238.337C303.147 239 303.443 239.804 303.387 240.757C303.369 241.035 303.408 241.321 303.379 241.6C303.168 243.752 304.064 245.533 305.232 247.227C307.288 250.215 309.864 252.691 312.746 254.878C313.54 255.482 314.439 255.99 315.056 256.815C315.346 256.829 315.589 256.949 315.815 257.133C317.6 258.586 319.371 260.05 321.177 261.475C322.803 262.759 324.469 264.001 326.116 265.261H326.109Z" fill="#8A89DD"/>
<path d="M331.002 319.694C330.889 319.412 330.751 319.151 330.466 319.003C330.533 319.317 330.466 319.74 331.002 319.694Z" fill="#C2B1AE"/>
<path d="M330.088 257.39C329.722 257.743 329.496 258.166 329.432 258.674C329.722 260.06 330.314 261.344 330.9 262.615C331.983 264.968 333.179 267.264 334.724 269.36C335.094 269.861 335.479 270.337 335.899 270.788C336.244 271.159 336.604 271.522 336.883 271.938C337.172 272.369 337.543 272.679 337.941 273C339.12 273.956 340.245 274.983 341.564 275.741C344.722 277.558 348.01 277.95 351.421 276.528C352.201 276.204 352.882 275.688 353.527 275.142C355.407 273.537 356.73 271.54 357.715 269.286C358.713 267 359.136 264.572 359.567 262.142C359.644 261.704 359.588 261.242 359.591 260.791C359.602 260.173 359.62 259.57 359.785 258.953C360.036 258.021 359.997 257.062 359.785 256.109C359.701 255.728 359.598 255.337 359.602 254.952C359.62 251.664 358.886 248.51 358.011 245.364C357.182 242.376 356.208 239.451 354.822 236.671C354.674 236.371 354.589 236.04 354.465 235.726C353.996 234.562 353.347 233.549 352.137 233.023C351.689 233.256 351.238 233.489 350.79 233.722C350.768 235.105 351.308 236.364 351.767 237.613C352.483 239.564 353.213 241.508 353.88 243.48C354.617 245.667 355.051 247.918 355.541 250.165C356.24 253.379 356.367 256.638 356.166 259.888C355.93 263.666 355.111 267.314 352.878 270.527C351.636 272.316 349.985 273.311 347.879 273.614C346.786 273.773 345.755 273.395 344.778 272.99C343.424 272.429 342.238 271.6 341.116 270.623C338.273 268.143 336.223 265.102 334.53 261.782C334.071 260.879 333.521 259.993 333.242 259.034C332.808 257.549 331.955 256.854 330.413 257.009C330.413 257.009 330.459 257.034 330.455 257.034C330.328 257.15 330.205 257.27 330.078 257.386L330.088 257.39Z" fill="#E7A37B"/>
<path d="M309.144 200.695C309.151 201.326 309.179 201.813 309.363 202.311C310.266 204.734 311.102 207.183 312.009 209.603C313.113 212.548 314.245 215.487 315.413 218.408C315.66 219.025 316.087 219.576 316.475 220.126C316.725 220.482 317.131 220.539 317.544 220.447C317.985 220.348 318.228 220.055 318.256 219.618C318.299 219.001 318.271 218.397 318.129 217.777C317.618 215.522 316.888 213.339 316.136 211.162C315.29 208.717 314.591 206.223 313.586 203.831C313.303 203.164 313.279 202.374 312.933 201.753C312.425 200.84 312.605 200.233 313.318 199.531C314.196 198.67 314.972 197.696 315.745 196.733C317.396 194.677 319.033 192.609 320.641 190.521C322.116 188.609 323.538 186.658 324.995 184.735C325.672 183.839 326.399 182.982 327.055 182.075C327.51 181.444 328.004 180.834 328.215 180.04C328.491 179.01 327.866 177.969 326.811 177.849C326.282 177.789 325.838 177.934 325.421 178.304C324.444 179.172 323.679 180.22 322.892 181.239C321.142 183.504 319.403 185.776 317.706 188.08C315.24 191.424 312.63 194.659 310.361 198.151C310.178 198.434 310.037 198.765 309.797 198.988C309.25 199.496 309.056 200.099 309.137 200.688L309.144 200.695Z" fill="#E7A37B"/>
<path d="M338.739 212.376C339.145 212.143 339.55 211.91 339.956 211.677C340.065 210.753 339.847 209.871 339.462 209.056C338.859 207.786 338.287 206.502 337.515 205.313C337.088 204.657 336.763 203.93 336.411 203.225C336.132 202.667 336.157 202.106 336.64 201.676C338.242 200.247 339.448 198.452 340.983 196.963C341.184 196.765 341.385 196.568 341.597 196.384C341.84 196.169 342.108 196.166 342.359 196.363C342.535 196.501 342.711 196.652 342.849 196.825C343.625 197.785 344.355 198.78 345.16 199.711C346.627 201.415 348.052 203.154 349.693 204.703C350.31 205.285 350.98 205.341 351.721 205.218C352.25 205.13 352.716 204.597 352.797 204.05C352.91 203.295 352.815 202.544 352.314 201.969C351.651 201.203 351.115 200.346 350.412 199.605C349.298 198.427 348.342 197.097 347.252 195.894C346.232 194.769 345.174 193.661 344.034 192.659C343.008 191.756 341.678 191.893 340.492 192.214C339.759 192.412 339.286 193.199 338.778 193.802C337.762 194.998 336.767 196.211 335.776 197.429C334.89 198.515 334.072 199.662 333.137 200.699C332.287 201.641 332.343 202.639 332.752 203.673C333.063 204.456 333.426 205.236 333.885 205.938C334.566 206.982 335.07 208.111 335.663 209.197C336.012 209.836 336.393 210.464 336.823 211.056C337.296 211.709 337.935 212.168 338.732 212.376H338.739Z" fill="#E7A37B"/>
<path d="M343.981 296.686C343.674 296.908 343.688 297.205 343.783 297.522C344.055 297.293 344.298 297.056 343.981 296.686Z" fill="#E7A37B"/>
<path d="M330.088 257.39C330.215 257.273 330.339 257.154 330.466 257.037C330.251 257.058 330.155 257.21 330.088 257.39Z" fill="#FFB68A"/>
</svg>
