<?xml version="1.0" encoding="UTF-8"?>
<svg width="500" height="500" viewBox="0 0 500 500" version="1.1" xmlns="http://www.w3.org/2000/svg">
  <defs>
    <style>
      .cls-1 {
        fill: #f7bc94;
      }

      .cls-2 {
        fill: #f6bb92;
      }

      .cls-3 {
        fill: #6a6d66;
      }

      .cls-4 {
        fill: #dda781;
      }

      .cls-5 {
        fill: #8a8ad9;
      }

      .cls-6 {
        fill: #f7bb92;
      }

      .cls-7 {
        fill: #7a4821;
      }

      .cls-8 {
        fill: #dea881;
      }

      .cls-9 {
        fill: #5c3717;
      }

      .cls-10 {
        fill: #f6ba90;
      }

      .cls-11 {
        opacity: .5;
      }

      .cls-12 {
        fill: #894100;
      }

      .cls-13 {
        fill: #5b3617;
      }
    </style>
  </defs>
  <g>
    <path class="cls-3" d="M270,294.6c-3.8.5-7.6.9-11.4,1.6-2.5.4-4.4.2-5.1-2.8-.2-1.1-.8-2.3-1.4-3.3-3.8-6.2-4.7-11.9,1.4-17.4,1.9-1.7.8-4.6.7-6.9-.4-9.6-1-19.3-1.5-28.9,0-.9,0-1.9-.7-2.6-1.1,0-2.1,0-3.2-.1-6.8-1.1-12,3.5-18.1,5.1-.1,1.1-.2,2.1-.3,3.2-1.4,20.5-.5,41,2.6,61.3,2.2,14.2,2.6,28.7,7.1,42.6,3.1,9.7,4.1,19.5,4.2,29.7.2,14.6.8,29.1,1.3,43.7,7.1-.3,14.2-1,21.1-2.5.6-11.1.9-22.3,2-33.3,1.5-15.4,0-30.4-4-45.2-.5-2-1.1-4-.8-6.2,2-12.5,3.9-25.1,5.8-37.7h0l.3-.3h0Z"/>
    <path class="cls-6" d="M270,294.6c.7-1.2.4-2.6.4-3.9,0-12.7-.4-25.4-.6-38.1-.4-26.4-.5-52.7-.2-79.1.1-10.2-2.5-18.2-12.2-22.8-6.3-.1-12.7-.6-17.6,4.6-2.6,3.3-6.5,5.4-8.5,9.3,1.3,8,5.4,14.6,11.7,19.4,2.9,2.2,4.3,4.6,4.8,8,.8,5.9,1.7,11.7,2.6,17.5.7.5.9,1.3.8,2.1-.5,7.5,1.2,15,.8,22.5.7.8.6,1.7.7,2.6.5,9.6,1.1,19.3,1.5,28.9,0,2.3,1.2,5.1-.7,6.9-6.1,5.5-5.2,11.3-1.4,17.4.6,1,1.1,2.1,1.4,3.3.6,3,2.5,3.2,5.1,2.8,3.8-.6,7.6-1.1,11.4-1.6h0v.2h0Z"/>
    <path class="cls-5" d="M217.8,178.6c-2.6,4.2-2.4,9.2.8,13,4.6,5.4,5.8,11.6,6.5,18.2,0,.7.5,1.5.7,2.2,7.2-.6,14.4-1.2,21.5-1.8.9-1,2.1-.6,3.2-.7-.9-5.8-1.8-11.7-2.6-17.5-.5-3.4-1.9-5.8-4.8-8-6.3-4.9-10.4-11.4-11.7-19.4-5.4,3.8-10.2,8.4-13.6,14h0Z"/>
    <path class="cls-6" d="M239.7,148.4c5.7-3,11.5-4.9,18-3.2,1.1-5,1.7-10.1,1.7-15.2-1.1-2.3-2-4.6-3.2-6.8-3.8-7.6-4-7.8-12.4-6.3-2.9.5-4.7-.2-6.7-2.1-2.9-2.8-5.9-5.7-9.3-7.9,0,3,.5,5.4-.4,7.9-1.1,2.9-4.3,5.2-6.4,8-1.5,2-1,3.7,1.9,4.3,1.5.3,2,1.5,2.2,3,.2,2.1.9,4.2.7,6.3-.4,4.5,1.8,5.1,5.6,4.9,7.6-.4,7.6-.2,8.4,7.1h-.1Z"/>
    <path class="cls-12" d="M268,118.9c1.1-5.2,1.1-10.4-.7-15.5-1.2-3.5-4.3-5.6-5.6-8.9-.7-.3-1.5-.6-2.1-1-13.3-8.2-28.2-1.9-31.8,13.4,3.5,2.2,6.4,5.1,9.3,7.9,2,1.9,3.8,2.6,6.7,2.1,8.4-1.5,8.6-1.3,12.4,6.3,1.1,2.2,2.1,4.5,3.1,6.8,3.9-2.9,6.1-7.1,8.7-11h0Z"/>
    <path class="cls-6" d="M230.9,239.2c6-1.6,11.3-6.2,18.1-5.1-.6-7.9-.3-15.9-1.6-23.8-7.2.6-14.4,1.2-21.5,1.8,3.4,8.7,5.3,17.7,5.1,27.1h-.1Z"/>
    <path class="cls-12" d="M284,140.5s0,.8-1.3-.3-11.2-15.9-11.2-15.9l-3.5-5.5,4.7-10.1c-.6-4.2-2-8.2-4.9-11.8-.8-1-2.1-1.7-2.2-3.2,4.8-.4,9.1,1.6,11.7,5.2,0,0,7.7,8,6.7,41.6h0Z"/>
    <path class="cls-8" d="M239.9,155.3c4.9-5.1,11.3-4.7,17.6-4.6,0-1.9.1-3.7.2-5.6-6.5-1.7-12.4.2-18,3.2-.3,2.3-.4,4.6.3,6.9h-.1Z"/>
    <path class="cls-9" d="M265.6,93.7c-1.4-.4-2.6.4-3.9.7,1.3,3.3,4.4,5.5,5.6,8.9,1.8,5.2,1.8,10.3.7,15.5,1.8.2,3.4-.3,4.7-1.6.7-7.4-.2-14.3-5-20.4-.8-1-2.1-1.7-2.2-3.2h0Z"/>
    <path class="cls-8" d="M248.9,234.1c1.1,0,2.1,0,3.2.1.4-7.5-1.3-15-.8-22.5,0-.8,0-1.6-.8-2.1-1.1.1-2.3-.3-3.2.7,1.3,7.9,1,15.9,1.6,23.8h0Z"/>
    <path class="cls-1" d="M246.6,416.7c-.4,0-.7,0-1.1.2-.2,0-.3,0-.5.2-1.3.8-2.7,1.5-4.1,2.2-.2,0-.3.2-.4.3-1,.8-2.2,1.2-3.3,1.9-1.3.8-2.6,1.4-3.9,2.1-.8.4-1.5.9-2.3,1.3-1.2.5-2.1,1.2-3,2.2-.8.9-1.2,1.9-1.4,3-.3,1.3,0,2.5.7,3.6.3.5.4,1,.8,1.3.9.8,1.8,1.6,3.1,1.9.7.1,1.4.3,2.1.3h16.5c.5-.1.9-.1,1.4-.1h10.9c.8,0,1.7-.1,2.5-.3.9-.2,1.8-.7,2.6-1.3.4-.3.8-.5,1.1-.9,1-1.3,1.9-2.6,2.2-4.2.2-.8.4-1.7.3-2.5-.2-1.5-.8-2.9-1.4-4.3-.3-.7-.6-1.4-.9-2.2-.3-.7-.5-1.4-.8-2.1s-.6-1.4-.8-2.2h-2.3c-1.4,0-2.8,0-4.2-.1h-6.7c-2.1.1-4.1,0-6.2,0s-.7,0-1-.1h0v-.2h0Z"/>
  </g>
  <g class="cls-11">
    <path class="cls-3" d="M332.8,311.3c-.5,0-1-.1-1.5-.3-.8-.2-1.7-.4-2.5-.6s-1.6-.4-2.4-.6c-.5-.2-.8,0-1.1.3-.4.5-.9,1-1.3,1.5-1.2,1.4-2.5,2.7-3.9,3.9-1,.9-2.1,1.7-3.2,2.5-1.9,1.4-4,2.5-6.1,3.5-1.6.7-3.3,1.4-5.1,1.9-.8.2-1.6.5-2.4.6-1,.2-2,.5-3.1.5h0c-1.8.4-3.6.3-5.4.7-.6.1-1.3.1-1.9.2-1.5.2-3,.4-4.6.5-.8,0-1.5.2-2.3.3-.3,0-.5.1-.7.3-6.2,3.6-12.3,7.2-18.5,10.9-4.4,2.6-6.2,4.3-10.6,6.8-.3.2-.6.4-1,.6-.2.2-.3.4-.2.7.3.8.6,1.5,1,2.3,1,1.8,1.8,3.7,2.5,5.6.7,2.2,1.5,4.4,2.2,6.6s1.1,4.5,1.4,6.8c0,.5.2,1,.3,1.5.4,1.9.6,3.9.8,5.9.2,2.1.3,4.2.4,6.3,0,1.1.2,2.2.2,3.3v9.4c0,2.4-.2,4.8-.3,7.3v1.1c0,2-.2,4.1-.3,6.1v.9c0,1.7-.2,3.4-.3,5.1,0,.3,0,.6-.1.8,0,.3-.4.4-.3.7,0,.2.2.5.2.7-1,0-1.9.1-2.8.3-.7,0-1.4,0-2.1.2-.8.1-1.6.2-2.4.3-1.8,0-6.1,1-7.8,1.1-.5,0-1,0-1.5.1-.5,0-1,.2-1.5,0,.3-.2.4-.4.3-.6-.4-.8-.5-1.6-.6-2.4-.9-5.1-1.8-10.3-2.7-15.4-.3-1.7-.8-3.4-1.2-5-.7-2.9-1.6-5.7-2.4-8.6-1.4-4.6-2.8-9.2-4.2-13.8s-1.4-4.7-2.1-7c-1.1-3.6-2.2-7.2-3.3-10.8-.7-2.3-1.1-4.6-1-7.1,0-1.3.1-2.5.4-3.8.2-.9.4-1.7.7-2.6.6-2,1.6-3.7,2.6-5.5s1-1.8,1.5-2.6c.7-1.2,1.6-2.4,2.5-3.5,1.8-2.2,3.7-4.4,5.6-6.5,2.1-2.3,4.2-4.6,6.5-6.7,1.6-1.5,3.2-3,4.8-4.4,2.5-2.2,5-4.3,7.6-6.3,4.5-3.5,9.2-6.7,14.1-9.6,3-1.8,6-3.5,9.1-5.1,1.5-.8,3-1.5,4.6-2.2,1.8-.8,3.6-1.6,5.4-2.4,1.6-.7,3.3-1.2,5-1.8,1.2-.4,2.4-.8,3.6-1.1,1.2-.3,2.3-.6,3.5-.9,1.1-.3,2.1-.5,3.2-.7s2.1-.4,3.2-.6h.3c1.2-.3,2.5-.3,3.7-.5s2.3-.2,3.5-.4c1.6-.2,3.2-.2,4.8-.3h2.3c.2,0,.4,0,.6.1.5,1.1,1,2.2,1.5,3.2,1,2.1,1.9,4.2,2.5,6.5.7,2.4,1.5,4.8,1.8,7.3.2,1.2.3,2.4.5,3.6.2,1.1.2,2.3.2,3.4v.5c.2,1.4.3,2.8.4,4.3v2.8h-.6Z"/>
    <path class="cls-6" d="M387,346.2c.1.9.3,1.8.3,2.6,0,1.3.3,2.5.3,3.8s.2,2.2.2,3.2.2,2,.3,3c.1.9.2,1.8.3,2.7,0,.6.1,1.3.2,1.9.1.9.1,1.8.3,2.7.1.9.1,1.8.4,2.6.1.4.2.9.1,1.3,0,1.3.2,2.5.3,3.8,0,.8.1,1.6.2,2.4.2,1,.2,2,.3,3v.4c-.2,1.5-.3,2.9-.5,4.4,0,.9-.2,1.8-.2,2.7s-.2,1.6-.3,2.5c-.1.9-.3,1.8-.3,2.7s-.2,1.8-.3,2.7c0,.8,0,1.5-.2,2.3-.2,1-.3,2-.5,3-.3,1.7-.6,3.4-.9,5.2-.3,1.6-.6,3.1-.8,4.7-.3,1.6-.6,3.3-.9,4.9s-.6,3.3-.9,4.9c-.2,1.3-.5,2.6-.7,3.9,0,.6-.3,1.1-.7,1.5-1.3,1.6-2.6,3.3-3.9,5-.5.6-1.1,1-2,.9h-12.1c-3.3,0-6.7,0-10,.1h-1c-.5-.1-1-.3-1.4-.7-.2-.2-.6-.4-.9-.6-.2-.5-.2-.9-.2-1.4v-.7c-.1-.3,0-.6,0-.9,0-.5,0-1.1-.1-1.6-.2-1,0-1.6,1-2.1h.2c.8-.3,1.6-.7,2.4-1,1.2-.4,2.5-.7,3.8-1,1.3-.4,2.6-.7,3.9-1.1,1.4-.4,2.8-.8,4.2-1.2,1.2-.3,2.4-.7,3.6-1,.2,0,.4-.2.4-.5,0-.8.3-1.5.2-2.3v-.6c.1-.4.1-.8.1-1.1v-.9c.2-.5.1-1,.2-1.5v-.7c.2-.4.1-.9.1-1.3v-.8c.2-.4.1-.9.1-1.3v-.7c.2-.6.2-1.1.2-1.7v-.5c.2-.5.1-1,.2-1.5v-.7c.1-.4.1-.8.1-1.2,0-1,.3-1.9.2-2.8v-.2c.2-.4.1-.7.1-1.1v-.7c.2-.5.1-1,.2-1.5v-.6c.2-1.4.6-2.8.7-4.2.2-1.4.5-2.8.7-4.2.1-1.1.4-2.2.3-3.3,0-.2,0-.4.1-.7,0-.3.1-.7,0-1-.4-.8-.6-1.7-.9-2.6-.8-2.4-1.7-4.7-2.6-7.1-.6-1.6-1.1-3.2-1.7-4.8-.9-2.5-1.8-5-2.7-7.4-.3-.7-.6-1.4-.9-2.1-.3-.5-.6-1.1-1.3-1.1,0-.2,0-.3-.1-.5-1-2.4-1.8-4.9-2.5-7.4-.3-1.2-.7-2.4-1-3.6-.4-1.8-.5-3.7-.5-5.6v-1c.3-2,.9-3.8,1.6-5.7,1.1-2.9,3-5.1,5.8-6.5s.5-.2.7-.3c.6-.4,1.3-.6,2-.7,1.9-.3,3.8-.3,5.7,0,2.1.4,3.9,1.3,5.5,2.7,2.1,1.8,3.6,4,4.4,6.7.3,1,.5,2,.5,3v3.9c0,.8,0,1.6-.1,2.4v3c0,.3,0,.6.4.8h.3,0Z"/>
    <path class="cls-5" d="M387,346.2c-.3-.2-.4-.5-.4-.8v-3c0-.8.1-1.6.1-2.4v-3.9c0-1-.2-2-.5-3-.8-2.6-2.3-4.9-4.4-6.7-1.6-1.4-3.5-2.2-5.5-2.7-1.9-.4-3.8-.4-5.7,0-.7.1-1.4.3-2,.7-.2.1-.5.2-.7.3-2.8,1.4-4.7,3.6-5.8,6.5-.7,1.9-1.3,3.7-1.6,5.7v1c0,1.9.1,3.8.5,5.6.2,1.2.6,2.4,1,3.6.7,2.5,1.5,5,2.5,7.4,0,.1,0,.3.1.5-.2.6-.6,1-1.3,1h-.1c-2.1-3.9-3.9-7.9-5.7-11.9-.4-.9-.9-1.8-1.5-2.7-3.5-5.7-7-11.5-10.4-17.2-1.7-2.8-3.3-5.5-5-8.3-.5-.8-1.1-1.6-1.8-2.3s-.5-.5-.5-.9c.9-.9,1.8-1.9,2.7-2.8,4.8-4.9,9.7-9.8,14.5-14.7,2.8-2.9,5.7-5.7,8.5-8.6.3-.3.5-.6.8-.8.1,0,.3,0,.4.1,1.2.8,2.3,1.6,3.5,2.4,1.9,1.2,3.7,2.5,5.5,3.9.6.5,1.4.8,2.1,1.1,1.3.5,2.7.9,4,1.4,1.8.7,3.7,1.2,5.4,2.1,1.4.7,2.6,1.7,3.8,2.7,1,.9,1.8,2,2.6,3.1,1.3,1.9,2,4.1,2.3,6.4.2,1.9.4,3.7.3,5.6-.1,2.8-.3,5.5-.6,8.3-.2,1.4-.3,2.7-.6,4.1-.2.7-.2,1.5-.3,2.2-.6,2.9-1.5,5.7-2.5,8.4-1,2.8-2.2,5.6-3.3,8.3,0,.1-.1.2-.2.3h-.2,0Z"/>
    <path class="cls-7" d="M363.2,356h.1c.2.2.4.3.4.6,0,.5.2.9.4,1.4.6,1.7,1.3,3.5,1.9,5.2.9,2.3,1.8,4.6,2.6,7,.2.6.5,1.1.5,1.7-.1.4-.3.8-.4,1.2-.7,2.5-1.4,5.1-2.2,7.6-.2.5-.2,1,0,1.6.8,3,1.6,6,2.4,8.9.2.7.3,1.5.7,2.2,0,.3,0,.6-.3.7-.3.2-.5.3-.8.5-.9.5-1.9.8-2.8,1.1-1.2.3-2.4.4-3.7.6-.7,0-1.5,0-2.2-.2-2.5-.2-4.8-1-7-2.2-.2-.1-.4-.2-.7-.4-.2,0-.3,0-.4.1,0-.3-.2-.6-.5-.8-.3-.2-.6-.4-.8-.6-1.1-1.2-2.4-2.2-3.4-3.5-1.4-1.8-2.4-3.9-3.3-6-.6-1.5-1-3.2-1.3-4.8-.2-.8-.3-1.7-.3-2.6v-2.2c0-.5-.1-1-.6-1.4.3-.9.6-1.9.9-2.8.4-1.4,1-2.6,1.9-3.7,1.1-1.5,2.4-2.8,3.8-4,2.5-2.1,5.3-3.8,8.4-4.9,1.1-.4,2.3-.7,3.4-.8,1.1-.1,2.2,0,3.2.4h0Z"/>
    <path class="cls-2" d="M364.8,285.8c-.3.3-.5.6-.8.8-2.8,2.9-5.7,5.7-8.5,8.6-4.8,4.9-9.7,9.8-14.5,14.7-.9.9-1.8,1.9-2.7,2.8-1.6-.3-3.2-.9-4.8-1.2-.2,0-.5-.1-.7-.3.2-.5.2-1.1,0-1.6v-1.2c0-1.4-.2-2.9-.4-4.3v-.5c0-1.1,0-2.3-.2-3.4-.2-1.2-.3-2.4-.5-3.6-.3-2.5-1.1-4.9-1.8-7.3-.7-2.2-1.5-4.4-2.5-6.5-.5-1.1-1-2.1-1.5-3.2.5-.2.9-.2,1.4-.2h16c1.3,0,2.5,0,3.8.2,1.4.2,2.8.3,4.1.6.7.2,1.4.2,2.1.4.8.2,1.7.5,2.5.7,1.2.4,2.5.8,3.7,1.4,1.1.5,2.2,1,3.3,1.6.6.3,1.1.7,1.7,1,.1,0,.2.2.3.4h0Z"/>
    <path class="cls-4" d="M369.1,371.9c0-.6-.3-1.2-.5-1.7-.9-2.3-1.7-4.6-2.6-7-.6-1.7-1.3-3.5-1.9-5.2-.2-.4-.4-.9-.4-1.4s-.2-.4-.4-.6c.7,0,1-.4,1.3-1,.7,0,1.1.6,1.3,1.1.3.7.6,1.4.9,2.1.9,2.5,1.8,5,2.7,7.4.6,1.6,1.2,3.2,1.7,4.8.8,2.4,1.7,4.7,2.6,7.1.3.9.5,1.8.9,2.6.1.3.1.7,0,1,0,.2-.1.4-.1.7,0,1.1-.2,2.2-.3,3.3-.2,1.4-.5,2.8-.7,4.2-.2,1.4-.5,2.8-.7,4.2v.6c0,.5,0,1-.2,1.5v.7c0,.4,0,.8-.1,1.1v.2c0,1-.2,1.9-.2,2.8s0,.8-.1,1.2v.7c0,.5,0,1-.2,1.5v.5c0,.6,0,1.1-.2,1.7v.7c0,.4,0,.9-.1,1.3v.8c0,.4,0,.9-.1,1.3v.7c0,.5,0,1-.2,1.5v.9c0,.4,0,.8-.1,1.1v.6c0,.8-.2,1.5-.2,2.3s-.2.4-.4.5c-1.2.3-2.4.7-3.6,1-1.4.4-2.8.8-4.2,1.2-1.3.4-2.6.8-3.9,1.1-1.3.3-2.5.6-3.8,1-.8.3-1.6.6-2.4,1h-.2c-.9.5-1.2,1.1-1,2.1s.1,1.1.1,1.6v1.6c0,.5,0,.9.2,1.4h-8.1c-.7,0-1.3-.2-1.8-.7h-.1c-.8-.5-1-1.2-1-2s-.2-2.3-.3-3.4c-.1-1,.1-1.5,1-1.9,1.4-.6,2.8-1.1,4.3-1.5,3.5-1,7-1.9,10.5-2.9,1-.3,2.1-.6,3.1-.9.3,0,.5-.2.5-.6s.1-1.1.2-1.6c.1-1.1.2-2.2.3-3.2,0-.8,0-1.5.2-2.3.1-1,.2-2,.3-3,0-1,.2-2.1.3-3.1,0-.9.2-1.8.2-2.8s.1-1.9.2-2.9c0-.2,0-.4.1-.7,1.2-.2,2.5-.3,3.7-.6,1-.3,1.9-.6,2.8-1.1.3-.1.5-.3.8-.5s.4-.4.3-.7c.3,0,.5-.2.7-.4.3-.4.7-.8,1-1.3.4-.5.7-1.1.6-1.8v-.4c.2-.5.1-1,.1-1.5v-1.3c.1-.5.1-1,.1-1.5v-.8c.2-.5.1-1.1.2-1.6v-.8c.2-.7.1-1.4-.2-2-.5-1.2-.9-2.4-1.3-3.6-.5-1.2-.9-2.4-1.4-3.7-.1-.3-.2-.7-.5-.9h0l.3.2h0Z"/>
    <path class="cls-7" d="M351.5,394c0,.7,0,1.3-.2,2-.5,3.1-.9,6.2-1.4,9.3-.3,1.6-.5,3.3-.8,4.9v.4c-.2.6-.8,1-1.4.8-.5-.2-1-.4-1.5-.7-.9-.6-1.8-1.3-2.6-2.1-1.2-1.2-2.3-2.4-3.4-3.6-3.2-3.8-5.8-8-7.7-12.6-1-2.5-1.7-5.1-1.9-7.9-.2-2.2,0-4.3.7-6.4,1.5-4.3,5.5-6.8,9.9-6.2-.3.3-.7.1-1,.2-.3,0-.6.1-.8.3-.1.2-.3.3-.4.5-.6,1-.8,2.2-.9,3.4,0,.6.1,1.3.2,1.9,0,.6.1,1.3.3,1.9.4,1.7.9,3.3,1.6,4.9.3.7.6,1.4,1,2,.6,1.1,1.3,2,2,3,.3.4.6.8.9,1.1.6.6,1.1,1.2,1.8,1.8.8.7,1.6,1.3,2.6,1.6,1,.3,1.9.4,2.8-.3h.3v-.2h-.1Z"/>
    <path class="cls-13" d="M351.5,394h-.3c-.9.7-1.8.6-2.8.3-1-.3-1.8-.9-2.6-1.6-.6-.5-1.2-1.2-1.8-1.8s-.6-.7-.9-1.1c-.7-1-1.4-2-2-3-.4-.7-.7-1.3-1-2-.7-1.6-1.2-3.2-1.6-4.9-.1-.6-.2-1.2-.3-1.9,0-.6-.3-1.2-.2-1.9.1-1.2.3-2.3.9-3.4.1-.2.3-.4.4-.5.2-.2.4-.3.8-.3s.7.1,1-.2h.4c.4.3.6.8.6,1.4v2.2c0,.9.1,1.7.3,2.6.3,1.6.7,3.2,1.3,4.8.8,2.2,1.9,4.2,3.3,6,1,1.3,2.2,2.3,3.4,3.5.2.3.6.4.8.6.2.2.5.4.5.8v.3h-.2,0Z"/>
    <path class="cls-10" d="M369.1,371.9c.3.2.4.6.5.9.5,1.2.9,2.4,1.4,3.7.4,1.2.8,2.4,1.3,3.6.3.7.3,1.4.2,2v.8c0,.5,0,1.1-.2,1.6v.8c0,.5,0,1-.1,1.5-.1.4,0,.9,0,1.3s0,1-.1,1.5v.4c0,.7-.2,1.2-.6,1.8-.3.4-.7.9-1,1.3-.2.2-.4.4-.7.4-.3-.7-.5-1.4-.7-2.2-.8-3-1.6-6-2.4-8.9-.1-.5-.1-1.1,0-1.6.7-2.5,1.4-5.1,2.2-7.6.1-.4.3-.8.4-1.2h-.2,0Z"/>
    <path class="cls-1" d="M244.7,416.8c-.4,0,.4-.2,0,0-.2,0-.3,0-.5.2-1.3.8-2.7,1.5-4.1,2.2-.2,0-.3.2-.4.3-1,.8-2.2,1.2-3.3,1.9-1.3.8-2.6,1.4-3.9,2.1-.8.4-1.5.9-2.3,1.3-1.2.5-2.1,1.2-3,2.2-.8.9-1.2,1.9-1.4,3-.3,1.3,0,2.5.7,3.6.3.5.4,1,.8,1.3.9.8,1.8,1.6,3.1,1.9.7.1,1.4.3,2.1.3h16.5c.5-.1.9-.1,1.4-.1h10.9c.8,0,1.7-.1,2.5-.3.9-.2,1.8-.7,2.6-1.3.4-.3.8-.5,1.1-.9,1-1.3,1.9-2.6,2.2-4.2.2-.8.4-1.7.3-2.5-.2-1.5-1.6-4-2.2-5.4-.7-1.1-.8-1.3-1.4-2.2-1-1.2-1.1-1.5-1.8-2.3s-1.7-1.5-1.9-2.3h-.8c-.5,0-1.1.1-1.6.2-1.5.2-2.2.4-3.8.6-2.1.2-1.6.2-3.7.4-2.1.1-4.1,0-6.2,0s-.7,0-1-.1h-1,0Z"/>
  </g>
</svg>
