<svg width="500" height="500" viewBox="0 0 500 500" fill="none" xmlns="http://www.w3.org/2000/svg">
<path d="M88.2433 410.135C89.8313 412.104 91.4563 414.037 93.0962 415.963C93.4004 416.324 93.7046 416.685 94.018 417.058C94.3133 417.404 94.6087 417.751 94.9129 418.108C95.1783 418.42 95.4436 418.733 95.717 419.056C96.5906 420.023 96.5906 420.023 98.2342 421.029C97.9289 421.286 97.6236 421.543 97.309 421.808C93.2642 425.154 93.2642 425.154 90.7607 429.652C90.6495 431.731 90.5782 433.808 90.5159 435.889C90.1331 437.99 90.5159 440 87.8863 440C81.9641 439.95 76.041 439.783 70.1191 439.774C68.0891 439.72 66.8486 439.594 65.1833 438.389C64.1301 436.855 63.9225 435.602 64.0224 433.75C65.0202 429.591 69.2766 426.382 72.3284 423.652C75.2215 421.013 77.7869 418.438 80.0759 415.247C81.7675 413.176 83.9084 411.533 86.1616 410.106C87.0238 409.56 87.4328 409.13 88.2433 410.135Z" fill="#F5B489"/>
<path d="M244.255 275.007C263.504 276.226 282.265 279.618 301.744 280.181C302.335 285.028 301.135 292.942 305.663 296.119C311.361 300.116 321.767 298.81 328.665 299.465C336.835 300.285 344.938 301.351 353.053 302.602C353.525 302.674 353.997 302.746 354.483 302.82C389.795 308.234 389.795 308.234 396.32 316.327C400.643 322.67 400.1 331.014 400.353 338.391C400.377 339.073 400.4 339.756 400.425 340.459C400.732 349.935 400.824 359.416 400.931 368.896C400.954 370.901 400.979 372.906 401.004 374.911C401.153 386.724 401.2 401.28 401.2 411.543C389.989 412.98 388.552 413.555 383.378 413.555C381.891 407.946 380.141 402.389 379.136 396.668C378.317 392.143 377.299 387.68 376.239 383.207C372.749 368.362 370.927 354.646 371.305 339.395C360.935 337.785 350.102 338.736 339.684 339.56C318.213 341.259 298.161 340.897 277.098 335.918C265.927 333.349 258.076 335.51 248.172 341.191C242.672 344.303 237.198 347.459 231.768 350.691C222.764 356.028 213.689 361.245 204.588 366.414C193.353 372.815 181.991 379.142 169.715 383.346C157.1 387.678 145.142 394.839 133.59 401.446C123.107 407.436 112.197 412.682 101.864 418.928C100.286 419.843 99.384 420.741 97.6593 421.316C95.9025 420.531 94.5988 418.678 93.3477 417.22C92.6818 416.446 92.6818 416.446 92.0025 415.657C90.5382 413.856 88.3207 411.455 87.0239 409.531C99.3305 397.224 111.872 384.896 125.829 374.463C129.301 371.848 132.965 369.531 136.68 367.277C147.218 360.735 158.715 355.876 169.053 348.988C180.572 341.175 190.757 331.413 200.607 321.631C204.77 317.499 208.864 313.314 212.528 308.722C218.337 301.702 225.39 294.713 232.933 289.638C238.14 286.007 241.071 280.37 244.255 275.007Z" fill="#6A6A63"/>
<path d="M127.553 60C143.622 62.2772 158.516 74.4626 172.5 82.5C189.393 92.2112 211.603 105.548 224.5 121C233.703 131.4 246.282 141.374 254 153C258.421 159.669 283.735 196.176 287.659 203.147C296.865 219.449 206.849 221.822 216.661 205.878C218.213 202.739 218.362 199.681 217.81 196.248C216.957 194.288 215.877 192.59 214.361 191.074C213.196 191.215 212.032 191.355 210.867 191.496C165.775 195.596 170.679 125.484 216.086 140.772C212.459 134.346 204.618 127.669 198.365 123.848C192.289 119.902 186.688 115.199 181.197 110.484C174.956 105.141 168.489 100.051 162.175 94.7922C156.43 90.0468 156.43 90.0468 149.226 88.787C144.32 88.6521 139.626 85.0076 134.452 80.121C129.278 75.2345 126.651 69.1982 126.116 66.6112C125.581 64.0242 124.832 60.0938 127.553 60Z" fill="#F6B489"/>
<path d="M216.5 141.5L233.335 149.235C234.277 149.668 234.733 150.749 234.384 151.725L233.136 155.218C232.779 156.218 233.268 157.332 234.133 157.948C237.345 160.239 241.577 165.429 242 170.5C240.5 174.5 236.833 177 235 178.5L240.5 183" stroke="#E7A37B" stroke-width="3" stroke-linecap="round"/>
<path d="M239.656 181.876C250.88 181.143 265.218 181.224 274.21 189.062C275.604 190.44 276.88 191.902 278.174 193.374C279.077 194.093 279.998 194.791 280.94 195.458C287.722 200.625 291.142 207.981 292.442 216.245C292.927 219.174 293.758 221.825 294.809 224.598C296.163 228.191 297.156 231.76 297.935 235.521C298.032 235.984 298.128 236.448 298.227 236.926C298.631 238.969 298.87 240.712 298.87 242.814C298.306 242.947 297.742 243.08 297.161 243.216C292.477 244.34 287.935 245.656 283.377 247.223C280.806 248.088 278.199 248.808 275.587 249.533C271.866 250.569 268.175 251.679 264.502 252.875C264.113 253.002 263.723 253.128 263.322 253.259C261.391 253.889 259.462 254.524 257.535 255.166C252.959 256.671 248.395 257.92 243.68 258.911C243.419 258.473 243.157 258.035 242.888 257.583C239.91 252.641 236.581 248.673 231.608 245.689C231.839 243.784 232.364 242.395 233.332 240.766C236.212 235.818 236.106 227.986 234.725 222.529C232.41 216.158 228.199 212.056 222.295 208.986C219.987 208.033 217.998 207.828 215.511 207.746C215.977 206.895 216.444 206.045 216.912 205.195C217.172 204.722 217.433 204.248 217.7 203.76C218.385 202.572 218.385 202.572 218.96 201.997C220.067 201.932 221.174 201.87 222.282 201.831C229.568 201.573 236.77 201.228 242.531 196.249C242.845 195.982 243.159 195.715 243.483 195.44C245.056 193.867 245.655 192.37 245.872 190.212C245.788 188.488 245.592 187.828 244.41 186.547C242.893 185.398 241.357 184.451 239.656 183.601C239.656 183.032 239.656 182.463 239.656 181.876Z" fill="#988AD5"/>
<path d="M217.99 207.207C222.828 207.749 227.334 210.87 230.539 214.407C234.518 219.572 235.988 223.872 236.027 230.31C236.031 230.834 236.035 231.357 236.04 231.896C235.906 236.883 235.063 241.987 231.608 245.689C228.23 244.036 227.655 243.461 227.009 242.814C225.67 242.603 224.329 242.41 222.985 242.239C220.114 259.977 208.707 277.565 201.099 293.546C197.211 301.688 192.087 309.085 186.598 316.216C183.475 320.262 180.269 324.223 176.952 328.112C169.756 335.804 168.858 335.912 165.496 345.431C165.032 350.776 160.935 363.856 156.01 366.99C152.848 369.002 145.566 371.458 141.925 370.439C135 368.5 155.51 337.529 157.436 333.644C165.296 317.81 174 298.5 181 286C188 273.5 196.432 253.093 198 238.5C199.193 229.206 202.957 221.151 209.596 214.301C210.936 212.941 210.936 212.941 212.084 211.413C215.212 207.419 215.212 207.419 217.99 207.207Z" fill="#F6B589"/>
<path d="M214.759 140.06C215.416 140.593 215.416 140.593 216.086 141.136C216.086 141.515 216.086 141.895 216.086 142.285C213.435 141.906 210.784 141.527 208.053 141.136C209.576 145.144 210.364 148.907 210.348 153.772C210.332 158.637 209.774 163.98 209.774 169.28C206.968 169.435 203.109 168.421 201.741 170.715C200.373 173.009 201.454 175.914 202.888 177.32C204.323 178.727 205.314 178.78 207.192 179.295C209.736 180.004 210.749 181.019 212.141 183.225C213.301 185.506 214.121 188.487 214.074 191.004C209.001 193.976 201.367 192.177 195.79 191.004C190.39 189.309 188.099 187.595 185 183.5C183.575 183.5 183.141 205.5 174.5 225C169.5 218.5 165.849 212.899 163.296 207.186C159.13 197.764 157.485 188.457 161.382 178.292C163.85 173.315 167.297 169.79 172.497 167.853C173.624 167.557 173.624 167.557 175.92 167.557C175.893 167.063 175.866 166.569 175.839 166.06C175.603 158.314 177.25 152.299 182.231 146.306C182.682 145.758 182.682 145.758 183.141 145.199C191.32 136.194 204.327 133.57 214.759 140.06Z" fill="#784721"/>
<path d="M298.87 242.814C299.727 245.571 300.24 248.133 300.509 251.022C300.546 251.413 300.583 251.805 300.62 252.208C300.737 253.472 300.846 254.736 300.954 256.001C300.992 256.431 301.03 256.862 301.069 257.305C301.735 264.938 301.964 272.519 301.744 280.182C282.575 280.423 262.966 279.597 244.256 275.008C244.303 269.633 243.968 264.66 243.681 258.911C250.067 256.766 257.061 254.726 263.476 252.67C265.327 252.076 267.178 251.479 269.027 250.88C274.306 249.178 279.59 247.547 284.945 246.098C288.145 245.232 291.295 244.257 294.444 243.216C295.99 242.816 297.281 242.736 298.87 242.814Z" fill="#F5B388"/>
<path d="M407.811 418.154C415.973 423.611 434.669 430.779 435.756 431.664C436.843 432.549 437.705 436.102 435.756 437.489C420.625 439.227 405.496 437.606 390.336 437.866C388.018 437.83 387.01 437.587 385.189 436.102C383.282 433.685 383.364 431.93 383.385 428.951C383.394 423.749 383.415 418.546 383.441 413.344C389.339 412.582 395.311 411.255 401.263 411.255C402.987 415.854 404.649 416.04 407.811 418.154Z" fill="#F3B48B"/>
</svg>
