<svg width="500" height="500" viewBox="0 0 500 500" fill="none" xmlns="http://www.w3.org/2000/svg">
<path d="M136.821 336.585C136.814 334.334 136.691 332.08 136.832 329.84C137.03 326.746 137.03 323.659 136.994 320.565C136.955 317.059 137.368 313.609 138.197 310.204C138.437 309.22 138.666 308.236 138.846 307.241C139.182 305.41 139.721 303.639 140.381 301.9C140.78 300.852 141.108 299.776 141.468 298.711C142.589 296.887 144 295.282 145.274 293.574C146.738 291.606 148.534 290.004 150.562 288.664C153.381 286.801 156.288 285.093 159.322 283.598C160.944 282.797 162.627 282.197 164.352 281.671C166.338 281.068 168.293 280.352 170.261 279.682C170.568 279.647 170.875 279.611 171.182 279.579C171.373 279.643 171.51 279.565 171.62 279.41C175.105 278.084 178.675 277.078 182.365 276.489C183.533 276.302 184.697 276.083 185.851 275.815C191.393 274.524 196.928 273.205 202.47 271.907C211.575 269.769 220.684 267.649 229.786 265.497C231.313 265.137 232.872 264.872 234.308 264.177C234.531 264.163 234.767 264.184 234.979 264.124C237.3 263.447 239.618 262.748 241.942 262.078C242.599 261.888 243.043 261.556 243.152 260.847C243.195 260.572 243.29 260.3 243.371 260.032C244.412 256.525 245.382 252.998 246.518 249.523C247.516 246.475 248.719 243.494 249.795 240.47C251.57 235.486 253.425 230.526 254.851 225.428C255.306 223.802 255.676 222.158 256.385 220.616C256.565 220.606 256.745 220.598 256.925 220.588C257.112 220.754 257.316 220.775 257.539 220.655C258.1 220.704 258.661 220.8 259.221 220.796C264.005 220.757 268.648 221.71 273.223 222.952C279.065 224.535 284.614 226.878 289.924 229.813C293.282 231.669 296.637 233.514 299.869 235.588C306.526 239.867 312.798 244.654 318.809 249.787C328.49 258.053 337.309 267.158 345.204 277.149C347.339 279.848 349.399 282.606 351.3 285.474C352.549 287.358 353.879 289.172 355.399 290.851C357.707 293.401 359.975 295.991 362.243 298.577C363.041 299.487 363.997 300.104 365.108 300.598C369.44 302.524 373.596 304.8 377.67 307.22C380.337 308.8 383.022 310.356 385.58 312.113C389.806 315.016 394.251 317.598 398.347 320.692C402.305 323.684 406.228 326.725 409.65 330.351C411.428 332.239 413.276 334.063 415.097 335.915C416.797 337.647 418.356 339.506 419.961 341.323C422.579 344.283 425.087 347.324 427.546 350.41C431.169 354.958 434.584 359.653 437.205 364.871C437.685 365.827 437.981 366.875 438.638 367.742C436.955 367.485 435.558 368.12 434.27 369.118C433.427 369.774 432.549 370.381 431.713 371.044C430.037 372.371 428.396 373.733 426.717 375.052C424.152 377.063 421.581 379.063 419.185 381.278C418.568 381.85 417.954 382.432 417.104 382.661C417.09 380.559 416.032 379.074 414.384 377.871C411.29 375.613 408.327 373.182 405.353 370.766C402.686 368.6 399.97 366.494 397.278 364.356C394.632 362.253 391.997 360.133 389.34 358.041C386.864 356.09 384.356 354.175 381.876 352.224C380.457 351.109 379.067 349.962 377.674 348.816C375.719 347.204 373.776 345.574 371.825 343.955C369.916 342.374 368.008 340.794 366.085 339.227C364.949 338.303 363.817 337.372 362.635 336.511C359.904 334.518 357.41 332.214 354.609 330.313C354.098 329.967 353.657 329.519 353.152 329.159C351.865 328.242 350.524 327.448 349.028 326.877C347.021 326.115 345.239 324.883 343.38 323.825C328.736 315.475 314.103 307.107 299.477 298.732C295.318 296.351 291.187 293.92 287.052 291.503C286.569 291.221 286.124 290.875 285.659 290.558C285.733 289.955 285.341 289.62 284.918 289.334C284.078 288.773 283.228 288.223 282.364 287.704C280.681 286.692 278.995 285.686 277.287 284.709C274.317 283.005 271.403 281.199 268.337 279.664C267.635 279.311 266.944 278.941 266.281 278.511C265.339 277.9 264.333 277.396 263.349 276.856C263.081 276.708 262.813 276.736 262.587 276.972C262.372 277.202 262.284 277.502 262.425 277.749C262.728 278.285 263.07 278.803 263.451 279.287C264.566 280.694 265.663 282.109 266.849 283.46C268.291 285.1 269.614 286.84 270.987 288.544C271.795 289.549 272.525 290.625 273.41 291.553C274.26 292.442 274.754 293.655 275.89 294.276C273.505 295.285 271.117 296.284 268.644 297.06C267.406 297.448 266.203 297.917 265.025 298.471C261.754 300.012 258.325 301.141 254.932 302.362C238.429 308.289 221.696 313.506 204.964 318.734C196.734 321.306 188.479 323.797 180.231 326.323C179.532 326.538 178.823 326.732 178.114 326.908C177.141 327.145 176.541 327.741 176.301 328.704C176.082 329.579 175.835 330.447 175.676 331.332C174.643 337.044 173.606 342.752 172.611 348.47C171.387 355.519 170.187 362.574 169.002 369.63C167.915 376.075 166.857 382.524 165.792 388.973C165.167 392.751 164.55 396.533 163.94 400.314C163.742 401.535 163.721 402.78 163.276 403.959C163.132 404.336 162.962 404.675 162.698 404.971C161.424 404.453 160.105 404.308 158.729 404.322C153.709 404.368 148.689 404.35 143.669 404.375C142.036 404.382 140.409 404.52 138.797 404.816C138.194 404.925 137.947 404.802 137.802 404.262C137.746 404.043 137.717 403.821 137.679 403.599C137.047 399.866 136.973 396.088 136.807 392.32C136.716 390.243 136.663 388.151 136.959 386.073C137.044 385.466 137.012 384.824 136.917 384.217C136.8 383.487 136.786 382.757 136.783 382.026C136.744 376.837 136.712 371.648 136.666 366.458C136.659 365.841 136.606 365.22 136.529 364.606C136.409 363.65 136.37 362.68 136.5 361.738C136.649 360.669 136.68 359.604 136.687 358.535C136.726 353.458 136.744 348.382 136.783 343.305C136.79 342.575 136.899 341.848 136.924 341.115C136.977 339.605 137.227 338.088 136.839 336.589L136.821 336.585Z" fill="#696E66"/>
<path d="M161.075 189.342C159.576 187.433 158.394 185.313 157.071 183.288C152.944 176.966 148.852 170.623 144.756 164.28C141.701 159.546 138.66 154.805 135.612 150.067C131.311 143.389 126.965 136.739 122.735 130.015C121.021 127.292 119.197 124.649 117.257 122.102C115.863 120.271 114.526 118.391 113.059 116.606C111.813 115.092 110.628 113.508 109.39 111.981C108.152 110.453 106.941 108.898 105.559 107.49C104.811 106.728 104.151 105.885 103.453 105.077C101.502 102.823 99.5578 100.562 97.5999 98.3143C97.1201 97.7605 96.598 97.2419 96.0936 96.7127C95.074 95.6508 94.2591 94.4549 93.5394 93.1638C92.4105 91.1459 91.4404 89.0433 90.2939 87.043C89.2214 85.1698 88.8828 83.1554 88.657 81.0776C88.5123 79.737 88.3677 78.3964 88.1772 77.0629C87.9161 75.2285 87.5034 73.4082 87.3588 71.5667C87.2459 70.1591 87.5351 68.755 88.6005 67.6614C89.5848 66.6525 90.5479 65.6153 91.772 64.8886C92.4635 64.4758 93.0209 63.9608 93.4548 63.2693C94.5519 61.5089 96.6192 61.2056 98.3372 62.2886C98.7747 62.5638 99.1663 62.8848 99.4802 63.2799C101.244 65.4918 103.301 67.4109 105.432 69.2595C107.097 70.7059 108.476 72.4239 109.894 74.1031C110.258 74.5335 110.596 74.9851 110.988 75.3872C113.253 77.7438 115.299 80.2909 117.292 82.8732C118.118 83.9457 119.088 84.884 119.903 85.9706C121.451 88.0414 123.138 90.0099 124.774 92.0137C125.593 93.0156 126.418 94.014 127.254 94.9982C129.996 98.2155 132.447 101.659 135.005 105.017C137.393 108.15 139.831 111.247 142.131 114.443C143.281 116.041 144.572 117.523 145.705 119.142C147.543 121.764 149.554 124.268 151.561 126.766C153.251 128.868 154.972 130.946 156.563 133.126C157.061 133.807 157.65 134.428 158.218 135.039C159.798 136.742 160.977 138.736 162.402 140.545C164.561 143.287 166.681 146.059 168.794 148.839C170.124 150.589 171.436 152.349 172.696 154.149C175.186 157.698 177.783 161.187 180.069 164.87C183.106 169.766 186.659 174.278 190.077 178.892C192.423 182.06 194.787 185.218 197.136 188.386C197.267 188.562 197.334 188.788 197.429 188.989C196.858 189.271 196.244 189.303 195.619 189.31C194.215 189.324 192.811 189.363 191.407 189.359C181.97 189.335 172.534 189.299 163.097 189.275C162.423 189.275 161.753 189.321 161.079 189.349L161.075 189.342Z" fill="#FFB88C"/>
<path d="M161.075 189.342C161.749 189.318 162.419 189.268 163.093 189.268C172.53 189.293 181.967 189.328 191.404 189.353C192.808 189.356 194.212 189.318 195.616 189.303C196.237 189.296 196.851 189.265 197.426 188.982C198.794 189.547 199.934 190.482 201.109 191.335C206.069 194.937 211.015 198.56 215.929 202.222C217.139 203.125 218.434 203.951 219.39 205.164C219.002 206.466 218.427 207.683 217.82 208.893C211.967 220.57 206.129 232.254 200.258 243.924C199.098 246.235 197.828 248.489 196.607 250.768C196.452 250.835 196.29 250.884 196.142 250.966C192.487 253.019 188.613 253.312 184.585 252.408C180.221 251.428 176.407 249.385 173.024 246.492C172.089 245.692 171.161 244.88 170.233 244.072C169.997 243.293 169.514 242.682 168.907 242.157C165.199 238.95 161.513 235.726 157.787 232.536C154.193 229.46 150.548 226.444 146.961 223.354C146.23 222.726 145.486 222.352 144.537 222.369C144.622 221.752 144.855 221.184 145.13 220.63C146.326 218.224 147.504 215.808 148.735 213.416C149.169 212.573 149.726 211.797 150.227 210.989C152.432 210.812 154.602 211.253 156.779 211.469C157.95 211.585 159.132 211.613 160.299 211.797C161.795 212.029 163.308 212.16 164.815 212.322C166.713 212.523 168.611 212.728 170.512 212.904C172.47 213.088 174.449 212.95 176.4 213.282C176.531 213.303 176.742 213.211 176.82 213.102C176.986 212.873 176.785 212.679 176.643 212.516C175.091 210.738 173.56 208.936 171.966 207.196C168.847 203.796 165.686 200.434 162.554 197.047C161.753 196.179 161.005 195.265 160.2 194.398C159.837 194.002 159.689 193.533 159.555 193.046L161.068 189.339L161.075 189.342Z" fill="#8B8ADF"/>
<path d="M196.603 250.768C197.824 248.489 199.094 246.235 200.254 243.924C206.121 232.254 211.963 220.57 217.816 208.893C218.422 207.683 218.998 206.466 219.386 205.164C220.895 205.912 222.448 206.586 223.908 207.425C226.014 208.635 228.223 209.598 230.477 210.477C234.089 211.884 237.698 213.299 241.314 214.7C246.031 216.527 250.751 218.34 255.468 220.168C255.778 220.288 256.071 220.464 256.371 220.616C255.665 222.157 255.291 223.801 254.84 225.428C253.415 230.529 251.559 235.485 249.785 240.47C248.709 243.493 247.506 246.474 246.507 249.522C245.371 252.997 244.401 256.525 243.36 260.032C243.279 260.3 243.184 260.571 243.142 260.847C243.032 261.556 242.588 261.887 241.932 262.078C239.607 262.748 237.289 263.447 234.968 264.124C234.756 264.184 234.523 264.163 234.298 264.177C233.567 263.881 232.837 263.591 232.107 263.291C230.544 262.656 229.002 261.951 227.411 261.39C223.538 260.021 219.64 258.716 215.748 257.389C209.356 255.209 202.907 253.191 196.6 250.764L196.603 250.768Z" fill="#FFB88B"/>
<path d="M127.678 199.808C125.462 202.405 122.898 204.588 119.952 206.313C116.357 208.419 112.48 209.432 108.303 209.241C108.19 209.238 108.077 209.231 107.964 209.224C106.338 209.104 106.282 209.104 106.19 210.801C105.971 214.833 105.054 218.714 103.692 222.506C102.027 227.149 99.6777 231.452 97.2258 235.707C97.1412 235.852 97.0459 236 96.9225 236.106C96.7955 236.215 96.5908 236.275 96.4991 236.077C96.3404 235.721 96.2063 235.347 96.097 234.973C94.8658 230.75 93.6557 226.521 92.4104 222.301C91.3909 218.837 90.2303 215.419 88.671 212.152C87.5738 209.855 86.258 207.689 84.741 205.643C82.2257 202.246 79.7104 198.845 77.2021 195.441C76.1614 194.03 75.2301 192.552 74.5457 190.932C72.108 185.189 72.683 179.672 75.9568 174.447C77.6854 171.688 80.2748 170.048 83.5028 169.473C83.8344 169.413 84.173 169.36 84.5082 169.339C85.0797 169.3 85.4219 168.993 85.6653 168.496C85.9899 167.839 86.325 167.183 86.7166 166.566C90.9852 159.877 97.1729 156.84 105.012 157.133C107.767 157.235 110.508 157.665 113.256 157.944C113.284 158.448 113.281 158.942 113.164 159.45C111.898 164.985 110.653 170.524 109.4 176.063C109.055 177.597 108.691 179.128 108.352 180.666C108.166 181.524 108.37 181.76 109.28 181.824C109.506 181.838 109.732 181.834 109.954 181.838C112.939 181.859 115.92 181.88 118.904 181.901C119.412 181.905 119.917 181.908 120.425 181.919C121.546 181.947 122.351 182.494 122.838 183.482C123.06 183.933 123.222 184.416 123.367 184.9C124.224 187.814 125.085 190.724 125.914 193.645C126.496 195.698 127.272 197.699 127.674 199.805L127.678 199.808ZM81.506 183.457C81.5166 186.092 81.94 188.237 82.3915 190.375C82.836 192.474 83.5522 194.499 84.5752 196.379C85.8946 198.806 87.4892 201.039 89.5388 202.941C91.0346 204.327 92.6644 205.484 94.453 206.469C96.806 207.76 99.3496 208.444 101.957 208.885C103.054 209.072 104.204 208.928 105.333 208.924C105.58 208.924 105.767 208.769 105.827 208.539C105.883 208.317 105.82 208.088 105.647 207.922C105.527 207.806 105.386 207.714 105.252 207.612C104.521 207.054 103.699 206.726 102.796 206.571C99.8893 206.077 97.4058 204.602 95.0915 202.93C93.5569 201.819 92.2658 200.351 91.0452 198.87C89.821 197.381 88.9073 195.705 88.0854 193.973C86.4943 190.629 85.6829 187.098 85.5947 183.4C85.5665 182.162 85.5877 180.92 85.5947 179.679C85.5947 179.284 85.5771 178.881 85.6582 178.5C86.0392 176.691 86.3462 174.87 86.8683 173.089C87.0905 172.337 87.2987 171.579 87.5244 170.824C87.6938 170.259 87.3869 169.797 86.8048 169.723C86.4167 169.674 86.0181 169.674 85.623 169.688C84.5858 169.723 84.554 169.769 84.1766 170.75C83.4287 172.697 82.9807 174.726 82.4832 176.744C81.9011 179.097 81.6754 181.485 81.5131 183.457H81.506Z" fill="#834515"/>
<path d="M127.677 199.808C127.279 197.702 126.503 195.702 125.917 193.648C125.088 190.727 124.227 187.813 123.37 184.903C123.229 184.42 123.063 183.933 122.841 183.485C122.354 182.497 121.55 181.95 120.428 181.922C119.92 181.908 119.415 181.908 118.907 181.904C115.923 181.883 112.942 181.862 109.957 181.841C109.731 181.841 109.506 181.841 109.283 181.827C108.37 181.763 108.169 181.527 108.356 180.67C108.691 179.132 109.054 177.601 109.403 176.066C110.656 170.527 111.901 164.989 113.167 159.454C113.284 158.946 113.287 158.455 113.259 157.947C114.459 158.028 115.542 158.501 116.604 158.995C118.907 160.064 121.31 160.459 123.828 160.223C124.728 160.138 125.585 159.873 126.453 159.63C128.4 159.083 130.355 158.565 132.306 158.039C133.523 157.711 134.768 157.806 135.999 157.873C136.917 157.923 137.661 158.713 137.717 159.658C137.788 160.836 137.841 162.025 137.544 163.186C137.403 163.743 137.336 164.304 137.407 164.858C137.583 166.238 138.017 167.448 139.344 168.224C140.317 168.792 141.319 169.3 142.325 169.801C143.387 170.33 144.388 170.947 145.341 171.649C146.618 172.591 147.108 173.847 146.692 175.332C146.512 175.978 146.244 176.606 145.958 177.216C145.359 178.49 144.709 179.738 144.099 181.005C143.708 181.82 143.39 182.652 143.415 183.587C143.439 184.434 143.732 185.122 144.448 185.594C144.872 185.873 145.281 186.187 145.743 186.385C149.832 188.142 153.719 190.304 157.713 192.262C158.119 192.46 158.514 192.675 158.923 192.862C159.124 192.953 159.35 192.996 159.561 193.063C159.695 193.553 159.84 194.022 160.203 194.414C161.004 195.282 161.752 196.195 162.556 197.063C165.689 200.45 168.85 203.812 171.969 207.213C173.563 208.952 175.094 210.755 176.646 212.533C176.788 212.695 176.989 212.889 176.823 213.118C176.745 213.228 176.534 213.319 176.403 213.298C174.452 212.967 172.473 213.104 170.515 212.921C168.614 212.744 166.716 212.54 164.818 212.339C163.311 212.176 161.798 212.046 160.302 211.813C159.135 211.63 157.953 211.601 156.782 211.485C154.605 211.27 152.439 210.825 150.23 211.005C149.031 210.391 147.835 209.777 146.636 209.164C140.942 206.253 135.251 203.343 129.558 200.436C128.965 200.132 128.4 199.73 127.677 199.819V199.808Z" fill="#FEB88C"/>
<path d="M144.54 222.372C145.489 222.354 146.234 222.728 146.964 223.356C150.548 226.443 154.192 229.463 157.791 232.539C161.512 235.724 165.202 238.952 168.91 242.159C169.517 242.685 170 243.291 170.237 244.075C169.951 245.059 169.912 246.068 169.926 247.087C170.036 255.533 169.729 263.982 170.159 272.427C170.282 274.844 170.233 277.271 170.265 279.691C168.296 280.358 166.342 281.074 164.356 281.681C162.631 282.206 160.948 282.806 159.325 283.607C156.291 285.103 153.384 286.81 150.566 288.673C148.537 290.013 146.742 291.615 145.278 293.584C144.008 295.295 142.593 296.9 141.471 298.72C141.485 296.243 141.404 293.774 141.697 291.294C141.912 289.456 141.75 287.572 141.827 285.713C142.163 277.599 141.94 269.475 142.24 261.368C142.473 255.11 142.29 248.851 142.551 242.6C142.663 239.908 142.635 237.195 143.076 234.518C143.104 234.352 143.101 234.179 143.111 234.013C143.249 231.766 143.369 229.515 143.524 227.268C143.598 226.203 143.828 225.155 143.831 224.079C143.831 223.444 144.279 222.936 144.544 222.379L144.54 222.372Z" fill="#FFB88B"/>
<path d="M136.822 336.585C137.21 338.088 136.959 339.601 136.906 341.111C136.881 341.842 136.769 342.572 136.765 343.302C136.726 348.379 136.709 353.455 136.67 358.532C136.663 359.6 136.631 360.666 136.483 361.735C136.352 362.677 136.388 363.647 136.511 364.603C136.589 365.217 136.642 365.838 136.649 366.455C136.695 371.644 136.726 376.834 136.765 382.023C136.772 382.753 136.786 383.484 136.899 384.214C136.994 384.821 137.026 385.463 136.941 386.069C136.645 388.151 136.698 390.239 136.79 392.317C136.956 396.085 137.03 399.863 137.661 403.595C137.7 403.818 137.725 404.043 137.785 404.259C137.926 404.798 138.173 404.922 138.779 404.813C140.388 404.516 142.014 404.379 143.651 404.372C148.671 404.347 153.691 404.364 158.711 404.319C160.084 404.308 161.407 404.449 162.68 404.968C163.604 406.721 164.268 408.552 164.508 410.542C164.642 411.66 164.829 412.771 164.758 413.9C164.603 416.377 164.285 418.828 163.393 421.167C162.825 422.656 161.943 423.965 160.945 425.193C160.444 425.81 159.816 426.283 159.096 426.642C157.833 427.274 156.549 427.828 155.152 428.121C153.06 428.555 150.993 429.098 148.894 429.482C145.853 430.036 142.805 430.579 139.743 430.968C135.657 431.483 131.537 431.539 127.423 431.38C124.788 431.282 122.53 430.227 120.636 428.371C119.003 426.773 118.742 424.886 119.334 422.772C119.712 421.432 120.544 420.352 121.335 419.266C123.303 416.564 125.698 414.249 128.26 412.119C130.207 410.499 132.274 409.028 134.282 407.483C134.356 407.427 134.391 407.3 134.405 407.201C134.426 407.063 134.338 407 134.19 407.003C133.008 407.028 131.812 406.957 130.644 407.106C129.745 407.218 128.856 407.286 127.953 407.3C125.868 407.328 123.772 407.247 121.698 407.409C119.786 407.561 117.877 407.568 115.965 407.638C114.6 407.688 113.274 407.402 111.929 407.293C111.051 407.222 110.31 406.788 109.94 405.92C109.407 404.671 109.016 403.377 108.963 402.011C108.91 400.734 109.308 400.163 110.494 399.68C113.619 398.399 116.755 397.14 119.874 395.848C121.278 395.266 122.668 394.649 124.054 394.025C125.903 393.192 127.745 392.342 129.586 391.492C129.942 391.329 130.281 391.132 130.63 390.955C131.586 390.472 131.928 389.685 132.02 388.631C132.264 385.889 132.62 383.159 132.916 380.421C133.054 379.137 133.05 377.843 133.251 376.555C133.512 374.893 133.445 373.179 133.721 371.517C134.024 369.676 133.833 367.799 134.264 365.979C134.303 365.816 134.299 365.644 134.31 365.474C134.444 363.509 134.546 361.544 134.719 359.583C134.857 358.016 135.086 356.457 135.262 354.894C135.308 354.503 135.326 354.108 135.336 353.713C135.382 351.853 135.604 350.012 135.933 348.181C135.954 348.072 135.978 347.959 135.985 347.846C136.112 345.937 136.296 344.029 136.345 342.12C136.391 340.261 136.656 338.427 136.822 336.578V336.585Z" fill="#FEB88C"/>
<path d="M417.083 382.661C417.93 382.432 418.547 381.85 419.165 381.278C421.56 379.063 424.132 377.063 426.697 375.052C428.376 373.733 430.02 372.371 431.692 371.044C432.528 370.381 433.406 369.771 434.25 369.118C435.537 368.116 436.934 367.481 438.617 367.742C438.673 367.749 438.755 367.735 438.783 367.767C439.749 368.854 440.829 369.87 441.647 371.059C443.023 373.048 444.166 375.182 445.066 377.447C445.591 378.777 445.729 380.174 446.082 381.532C446.237 382.129 446.304 382.75 446.371 383.36C446.413 383.748 446.435 384.154 446.382 384.538C445.944 387.6 445.256 390.588 444.177 393.513C442.981 396.741 441.704 399.923 440.141 402.985C438.557 406.093 436.878 409.155 434.934 412.051C433.117 414.764 430.821 416.955 427.744 418.239C425.889 419.015 424.033 419.068 422.142 418.451C421.137 418.123 420.378 417.47 419.821 416.577C419.285 415.72 418.734 414.867 418.209 414.002C417.468 412.785 417.013 411.448 416.731 410.065C416.459 408.746 416.268 407.409 416.081 406.075C416.021 405.634 415.983 405.147 416.103 404.731C416.413 403.676 416.332 402.607 416.346 401.542C416.367 399.962 416.357 398.385 416.374 396.804C416.385 395.905 416.318 394.998 416.625 394.123C416.678 393.968 416.671 393.788 416.674 393.619C416.745 390.186 417.267 386.768 417.006 383.325C416.988 383.106 417.052 382.88 417.08 382.658L417.083 382.661Z" fill="#FEB98C"/>
<path d="M275.865 294.276C274.73 293.652 274.236 292.442 273.385 291.553C272.5 290.625 271.77 289.549 270.962 288.543C269.593 286.839 268.267 285.1 266.824 283.46C265.635 282.109 264.538 280.694 263.426 279.286C263.045 278.803 262.703 278.285 262.4 277.748C262.262 277.501 262.347 277.202 262.562 276.972C262.788 276.732 263.056 276.708 263.324 276.856C264.308 277.396 265.317 277.9 266.256 278.51C266.919 278.941 267.61 279.311 268.312 279.664C271.382 281.199 274.292 283.005 277.262 284.709C278.966 285.686 280.653 286.691 282.339 287.704C283.203 288.226 284.053 288.773 284.893 289.334C285.316 289.616 285.712 289.954 285.634 290.558C283.778 291.302 281.926 292.043 280.071 292.787C279.093 293.179 278.113 293.57 277.143 293.976C276.73 294.149 276.324 294.325 275.862 294.276H275.865Z" fill="#494A45"/>
<path d="M257.521 220.657C257.302 220.777 257.098 220.756 256.907 220.59C257.129 220.46 257.334 220.467 257.521 220.657Z" fill="#FFB88B"/>
<path d="M171.179 279.582C171.285 279.427 171.433 279.374 171.616 279.413C171.507 279.564 171.373 279.642 171.179 279.582Z" fill="#C3B5B0"/>
<path d="M81.5061 183.457C81.6684 181.485 81.8941 179.096 82.4762 176.743C82.9772 174.725 83.4217 172.697 84.1696 170.75C84.547 169.765 84.5823 169.72 85.6159 169.688C86.0075 169.674 86.4097 169.674 86.7978 169.723C87.3798 169.797 87.6868 170.259 87.5174 170.824C87.2916 171.575 87.08 172.334 86.8613 173.089C86.3391 174.87 86.0322 176.69 85.6512 178.5C85.5701 178.881 85.5913 179.287 85.5877 179.678C85.5807 180.92 85.556 182.159 85.5877 183.4C85.6759 187.097 86.4838 190.625 88.0783 193.973C88.9038 195.705 89.814 197.381 91.0382 198.87C92.2588 200.351 93.5535 201.822 95.0845 202.93C97.3987 204.606 99.8823 206.077 102.789 206.571C103.692 206.726 104.514 207.054 105.245 207.611C105.379 207.714 105.52 207.806 105.64 207.922C105.816 208.088 105.88 208.317 105.82 208.539C105.76 208.772 105.573 208.924 105.326 208.924C104.2 208.927 103.047 209.068 101.95 208.885C99.3426 208.444 96.799 207.763 94.446 206.468C92.6574 205.488 91.0276 204.331 89.5318 202.941C87.4857 201.039 85.8876 198.806 84.5682 196.379C83.5451 194.499 82.829 192.474 82.3845 190.375C81.9294 188.237 81.5096 186.092 81.499 183.457H81.5061Z" fill="#643408"/>
</svg>
