<svg width="500" height="500" viewBox="0 0 500 500" fill="none" xmlns="http://www.w3.org/2000/svg">
<path d="M382.636 336.584C382.643 334.334 382.767 332.08 382.625 329.839C382.428 326.746 382.428 323.659 382.463 320.565C382.502 317.058 382.089 313.608 381.26 310.204C381.02 309.219 380.791 308.235 380.611 307.24C380.276 305.409 379.736 303.639 379.077 301.899C378.678 300.852 378.35 299.776 377.99 298.71C376.868 296.886 375.457 295.281 374.184 293.574C372.719 291.605 370.924 290.004 368.895 288.663C366.077 286.8 363.17 285.093 360.136 283.597C358.513 282.796 356.83 282.197 355.105 281.671C353.119 281.068 351.165 280.352 349.196 279.681C348.889 279.646 348.582 279.611 348.275 279.579C348.085 279.643 347.947 279.565 347.838 279.41C344.353 278.083 340.782 277.078 337.092 276.489C335.925 276.302 334.76 276.083 333.607 275.815C328.065 274.524 322.53 273.204 316.988 271.906C307.882 269.768 298.774 267.648 289.672 265.496C288.144 265.136 286.585 264.872 285.149 264.177C284.927 264.163 284.691 264.184 284.479 264.124C282.158 263.446 279.84 262.748 277.515 262.078C276.859 261.887 276.414 261.556 276.305 260.846C276.263 260.571 276.168 260.3 276.086 260.032C275.046 256.525 274.076 252.997 272.94 249.522C271.941 246.474 270.738 243.493 269.662 240.47C267.888 235.485 266.032 230.525 264.607 225.428C264.152 223.801 263.781 222.157 263.072 220.616C262.892 220.605 262.713 220.598 262.533 220.587C262.346 220.753 262.141 220.774 261.919 220.654C261.358 220.704 260.797 220.799 260.236 220.796C255.452 220.757 250.81 221.709 246.234 222.951C240.392 224.535 234.843 226.877 229.534 229.813C226.175 231.668 222.82 233.513 219.589 235.588C212.932 239.867 206.66 244.654 200.648 249.787C190.968 258.052 182.149 267.158 174.253 277.148C172.119 279.847 170.059 282.606 168.157 285.474C166.908 287.358 165.579 289.171 164.058 290.85C161.751 293.401 159.483 295.99 157.214 298.576C156.417 299.486 155.461 300.104 154.35 300.598C150.017 302.524 145.862 304.799 141.787 307.219C139.12 308.8 136.435 310.355 133.878 312.112C129.652 315.016 125.207 317.598 121.111 320.692C117.153 323.683 113.23 326.724 109.808 330.351C108.03 332.238 106.181 334.062 104.361 335.914C102.66 337.646 101.101 339.506 99.4961 341.322C96.8784 344.282 94.3702 347.323 91.9113 350.41C88.2883 354.957 84.8734 359.653 82.2523 364.87C81.7725 365.826 81.4761 366.874 80.8199 367.742C82.5027 367.484 83.8997 368.119 85.1873 369.118C86.0305 369.774 86.9089 370.381 87.745 371.044C89.4207 372.37 91.0611 373.732 92.7404 375.051C95.3051 377.062 97.8768 379.063 100.272 381.278C100.89 381.85 101.503 382.432 102.354 382.661C102.368 380.558 103.426 379.073 105.073 377.87C108.167 375.612 111.131 373.182 114.105 370.765C116.772 368.599 119.488 366.493 122.18 364.355C124.826 362.253 127.461 360.132 130.117 358.04C132.594 356.09 135.102 354.174 137.582 352.223C139 351.108 140.39 349.962 141.784 348.815C143.738 347.203 145.682 345.573 147.633 343.954C149.541 342.374 151.45 340.793 153.372 339.227C154.508 338.303 155.641 337.371 156.823 336.51C159.553 334.517 162.047 332.214 164.848 330.312C165.36 329.966 165.801 329.518 166.305 329.159C167.593 328.241 168.933 327.448 170.429 326.876C172.437 326.114 174.218 324.883 176.077 323.825C190.721 315.474 205.354 307.106 219.98 298.731C224.14 296.35 228.271 293.919 232.405 291.503C232.889 291.221 233.333 290.875 233.799 290.557C233.725 289.954 234.116 289.619 234.54 289.333C235.379 288.772 236.229 288.222 237.094 287.704C238.777 286.691 240.463 285.686 242.17 284.708C245.141 283.005 248.055 281.198 251.12 279.664C251.822 279.311 252.514 278.94 253.177 278.51C254.119 277.9 255.124 277.395 256.109 276.856C256.377 276.707 256.645 276.736 256.871 276.972C257.086 277.201 257.174 277.501 257.033 277.748C256.729 278.284 256.387 278.803 256.006 279.286C254.891 280.694 253.794 282.108 252.609 283.46C251.166 285.1 249.843 286.839 248.471 288.543C247.663 289.549 246.933 290.625 246.047 291.552C245.197 292.441 244.703 293.655 243.567 294.276C245.952 295.285 248.34 296.283 250.813 297.059C252.052 297.447 253.255 297.916 254.433 298.47C257.703 300.012 261.132 301.141 264.526 302.361C281.029 308.288 297.761 313.506 314.493 318.734C322.724 321.306 330.979 323.796 339.227 326.322C339.925 326.537 340.634 326.731 341.343 326.908C342.317 327.144 342.917 327.74 343.157 328.703C343.375 329.578 343.622 330.446 343.781 331.332C344.815 337.043 345.852 342.751 346.847 348.47C348.071 355.518 349.27 362.574 350.456 369.629C351.542 376.075 352.601 382.523 353.666 388.972C354.29 392.75 354.908 396.532 355.518 400.314C355.716 401.535 355.737 402.78 356.181 403.958C356.326 404.336 356.495 404.674 356.76 404.971C358.033 404.452 359.353 404.307 360.729 404.321C365.749 404.367 370.769 404.35 375.789 404.374C377.422 404.381 379.048 404.519 380.661 404.815C381.264 404.925 381.511 404.801 381.655 404.262C381.712 404.043 381.74 403.821 381.779 403.598C382.41 399.866 382.484 396.088 382.65 392.32C382.742 390.242 382.795 388.15 382.498 386.072C382.414 385.465 382.446 384.823 382.541 384.217C382.657 383.486 382.671 382.756 382.675 382.026C382.714 376.837 382.745 371.647 382.791 366.458C382.798 365.84 382.851 365.22 382.929 364.606C383.049 363.65 383.088 362.68 382.957 361.738C382.809 360.669 382.777 359.603 382.77 358.534C382.731 353.458 382.714 348.381 382.675 343.305C382.668 342.575 382.558 341.848 382.534 341.114C382.481 339.604 382.23 338.087 382.618 336.588L382.636 336.584Z" fill="#696E66"/>
<path d="M358.383 189.342C359.882 187.433 361.064 185.313 362.387 183.288C366.514 176.966 370.606 170.623 374.702 164.28C377.757 159.546 380.798 154.805 383.846 150.067C388.147 143.389 392.493 136.739 396.723 130.015C398.437 127.292 400.261 124.649 402.201 122.102C403.595 120.271 404.932 118.391 406.399 116.606C407.645 115.092 408.83 113.508 410.068 111.981C411.306 110.453 412.517 108.898 413.899 107.49C414.647 106.728 415.307 105.885 416.005 105.077C417.956 102.823 419.9 100.562 421.858 98.3143C422.338 97.7605 422.86 97.2419 423.364 96.7127C424.384 95.6508 425.199 94.4549 425.919 93.1638C427.047 91.1459 428.018 89.0433 429.164 87.043C430.237 85.1698 430.575 83.1554 430.801 81.0776C430.946 79.737 431.09 78.3964 431.281 77.0629C431.542 75.2285 431.955 73.4082 432.099 71.5667C432.212 70.1591 431.923 68.755 430.857 67.6614C429.873 66.6525 428.91 65.6153 427.686 64.8886C426.995 64.4758 426.437 63.9608 426.003 63.2693C424.906 61.5089 422.839 61.2056 421.121 62.2886C420.683 62.5638 420.292 62.8848 419.978 63.2799C418.214 65.4918 416.157 67.4109 414.026 69.2595C412.361 70.7059 410.982 72.4239 409.564 74.1031C409.2 74.5335 408.862 74.9851 408.47 75.3872C406.205 77.7438 404.159 80.2909 402.166 82.8732C401.34 83.9457 400.37 84.884 399.555 85.9706C398.007 88.0414 396.32 90.0099 394.684 92.0137C393.865 93.0156 393.04 94.014 392.204 94.9982C389.462 98.2155 387.011 101.659 384.453 105.017C382.065 108.15 379.627 111.247 377.327 114.443C376.177 116.041 374.886 117.523 373.753 119.142C371.915 121.764 369.904 124.268 367.897 126.766C366.207 128.868 364.486 130.946 362.895 133.126C362.397 133.807 361.808 134.428 361.24 135.039C359.66 136.742 358.481 138.736 357.056 140.545C354.897 143.287 352.777 146.059 350.664 148.839C349.334 150.589 348.022 152.349 346.762 154.149C344.272 157.698 341.675 161.187 339.389 164.87C336.352 169.766 332.799 174.278 329.381 178.892C327.035 182.06 324.671 185.218 322.322 188.386C322.191 188.562 322.124 188.788 322.029 188.989C322.6 189.271 323.214 189.303 323.839 189.31C325.243 189.324 326.647 189.363 328.051 189.359C337.488 189.335 346.924 189.299 356.361 189.275C357.035 189.275 357.705 189.321 358.379 189.349L358.383 189.342Z" fill="#FFB88C"/>
<path d="M358.383 189.342C357.709 189.317 357.039 189.268 356.365 189.268C346.928 189.292 337.491 189.328 328.054 189.352C326.65 189.356 325.246 189.317 323.842 189.303C323.221 189.296 322.607 189.264 322.032 188.982C320.664 189.546 319.524 190.481 318.349 191.335C313.389 194.937 308.443 198.56 303.529 202.222C302.319 203.125 301.024 203.95 300.068 205.164C300.456 206.466 301.031 207.683 301.638 208.893C307.491 220.57 313.329 232.254 319.2 243.924C320.36 246.234 321.63 248.489 322.851 250.768C323.006 250.835 323.168 250.884 323.316 250.965C326.971 253.018 330.845 253.311 334.873 252.408C339.237 251.427 343.051 249.385 346.434 246.492C347.369 245.691 348.297 244.88 349.225 244.072C349.461 243.292 349.944 242.682 350.551 242.156C354.259 238.949 357.945 235.725 361.671 232.536C365.265 229.46 368.91 226.443 372.497 223.353C373.228 222.725 373.972 222.351 374.921 222.369C374.836 221.752 374.603 221.184 374.328 220.63C373.132 218.224 371.954 215.807 370.723 213.415C370.289 212.572 369.732 211.796 369.231 210.988C367.026 210.812 364.856 211.253 362.679 211.468C361.508 211.584 360.326 211.613 359.159 211.796C357.663 212.029 356.15 212.159 354.643 212.322C352.745 212.523 350.847 212.727 348.946 212.904C346.988 213.087 345.009 212.95 343.058 213.281C342.927 213.302 342.716 213.211 342.638 213.101C342.472 212.872 342.673 212.678 342.815 212.516C344.367 210.738 345.898 208.935 347.492 207.196C350.611 203.795 353.772 200.433 356.904 197.046C357.705 196.179 358.453 195.265 359.258 194.397C359.621 194.002 359.769 193.533 359.903 193.046L358.39 189.338L358.383 189.342Z" fill="#8B8ADF"/>
<path d="M322.854 250.768C321.634 248.489 320.364 246.235 319.203 243.924C313.336 232.254 307.494 220.57 301.642 208.893C301.035 207.683 300.46 206.466 300.072 205.164C298.562 205.912 297.01 206.586 295.549 207.425C293.443 208.635 291.235 209.598 288.981 210.477C285.368 211.884 281.759 213.299 278.143 214.7C273.427 216.527 268.706 218.34 263.99 220.168C263.679 220.288 263.387 220.464 263.087 220.616C263.792 222.157 264.166 223.801 264.618 225.428C266.043 230.529 267.899 235.485 269.673 240.47C270.749 243.493 271.952 246.474 272.95 249.522C274.086 252.997 275.056 256.525 276.097 260.032C276.178 260.3 276.274 260.571 276.316 260.847C276.425 261.556 276.87 261.887 277.526 262.078C279.851 262.748 282.168 263.447 284.49 264.124C284.701 264.184 284.934 264.163 285.16 264.177C285.89 263.881 286.62 263.591 287.351 263.291C288.914 262.656 290.455 261.951 292.046 261.39C295.92 260.021 299.818 258.716 303.709 257.389C310.101 255.209 316.55 253.191 322.858 250.764L322.854 250.768Z" fill="#FFB88B"/>
<path d="M391.78 199.809C393.996 202.405 396.56 204.589 399.506 206.314C403.101 208.42 406.978 209.432 411.155 209.242C411.268 209.238 411.381 209.231 411.494 209.224C413.12 209.104 413.176 209.104 413.268 210.801C413.487 214.834 414.404 218.714 415.766 222.506C417.431 227.149 419.78 231.453 422.232 235.707C422.317 235.852 422.412 236 422.536 236.106C422.663 236.215 422.867 236.275 422.959 236.078C423.118 235.722 423.252 235.348 423.361 234.974C424.592 230.751 425.802 226.521 427.048 222.302C428.067 218.838 429.228 215.419 430.787 212.152C431.884 209.856 433.2 207.69 434.717 205.644C437.232 202.246 439.748 198.846 442.256 195.441C443.297 194.03 444.228 192.552 444.912 190.933C447.35 185.19 446.775 179.672 443.501 174.447C441.773 171.689 439.183 170.048 435.955 169.473C435.624 169.413 435.285 169.36 434.95 169.339C434.378 169.3 434.036 168.993 433.793 168.496C433.468 167.84 433.133 167.184 432.741 166.566C428.473 159.878 422.285 156.84 414.446 157.133C411.691 157.235 408.95 157.666 406.202 157.944C406.174 158.449 406.177 158.943 406.294 159.451C407.56 164.986 408.805 170.525 410.058 176.063C410.404 177.598 410.767 179.129 411.106 180.667C411.292 181.524 411.088 181.761 410.178 181.824C409.952 181.838 409.726 181.835 409.504 181.838C406.519 181.859 403.538 181.88 400.554 181.902C400.046 181.905 399.541 181.909 399.033 181.919C397.912 181.947 397.107 182.494 396.62 183.482C396.398 183.934 396.236 184.417 396.091 184.9C395.234 187.814 394.373 190.725 393.544 193.646C392.962 195.699 392.186 197.699 391.784 199.805L391.78 199.809ZM437.952 183.457C437.941 186.093 437.518 188.238 437.066 190.375C436.622 192.474 435.906 194.499 434.883 196.38C433.563 198.807 431.969 201.04 429.919 202.941C428.423 204.328 426.794 205.485 425.005 206.469C422.652 207.76 420.108 208.445 417.501 208.886C416.404 209.073 415.254 208.928 414.125 208.924C413.878 208.924 413.691 208.769 413.631 208.54C413.575 208.318 413.638 208.088 413.811 207.923C413.931 207.806 414.072 207.714 414.206 207.612C414.937 207.055 415.759 206.727 416.662 206.571C419.569 206.078 422.052 204.603 424.366 202.931C425.901 201.82 427.192 200.352 428.413 198.87C429.637 197.382 430.551 195.706 431.373 193.974C432.964 190.629 433.775 187.098 433.863 183.401C433.891 182.163 433.87 180.921 433.863 179.679C433.863 179.284 433.881 178.882 433.8 178.501C433.419 176.691 433.112 174.871 432.59 173.089C432.367 172.338 432.159 171.579 431.934 170.824C431.764 170.26 432.071 169.798 432.653 169.724C433.041 169.674 433.44 169.674 433.835 169.688C434.872 169.724 434.904 169.77 435.281 170.75C436.029 172.698 436.477 174.726 436.975 176.744C437.557 179.097 437.783 181.485 437.945 183.457H437.952Z" fill="#834515"/>
<path d="M391.78 199.809C392.179 197.703 392.955 195.703 393.541 193.649C394.37 190.728 395.23 187.814 396.088 184.904C396.229 184.421 396.395 183.934 396.617 183.486C397.104 182.498 397.908 181.951 399.03 181.923C399.538 181.909 400.042 181.909 400.55 181.905C403.535 181.884 406.516 181.863 409.5 181.842C409.726 181.842 409.952 181.842 410.174 181.828C411.088 181.764 411.289 181.528 411.102 180.671C410.767 179.133 410.403 177.601 410.054 176.067C408.802 170.528 407.556 164.99 406.29 159.455C406.174 158.947 406.17 158.456 406.198 157.948C404.999 158.029 403.916 158.502 402.854 158.996C400.55 160.065 398.148 160.46 395.629 160.224C394.729 160.139 393.872 159.874 393.004 159.631C391.057 159.084 389.103 158.566 387.152 158.04C385.935 157.712 384.689 157.807 383.458 157.874C382.541 157.923 381.797 158.714 381.74 159.659C381.67 160.837 381.617 162.026 381.913 163.187C382.054 163.744 382.121 164.305 382.051 164.859C381.874 166.238 381.44 167.449 380.114 168.225C379.14 168.793 378.138 169.301 377.133 169.802C376.071 170.331 375.069 170.948 374.117 171.65C372.84 172.592 372.349 173.848 372.765 175.333C372.945 175.979 373.214 176.607 373.499 177.217C374.099 178.49 374.748 179.739 375.358 181.006C375.75 181.821 376.067 182.653 376.043 183.588C376.018 184.435 375.725 185.123 375.009 185.595C374.586 185.874 374.177 186.188 373.714 186.386C369.626 188.143 365.738 190.305 361.745 192.263C361.339 192.461 360.944 192.676 360.535 192.863C360.334 192.954 360.108 192.997 359.896 193.064C359.762 193.554 359.617 194.023 359.254 194.415C358.453 195.283 357.705 196.196 356.901 197.064C353.768 200.451 350.607 203.813 347.489 207.214C345.894 208.953 344.363 210.756 342.811 212.534C342.67 212.696 342.469 212.89 342.635 213.119C342.712 213.229 342.924 213.32 343.054 213.299C345.005 212.968 346.984 213.105 348.942 212.922C350.844 212.745 352.742 212.541 354.64 212.34C356.146 212.177 357.66 212.047 359.155 211.814C360.323 211.631 361.505 211.602 362.676 211.486C364.853 211.271 367.019 210.826 369.227 211.006C370.427 210.392 371.622 209.778 372.822 209.165C378.516 206.254 384.206 203.344 389.9 200.437C390.493 200.133 391.057 199.731 391.78 199.819V199.809Z" fill="#FEB88C"/>
<path d="M374.917 222.372C373.968 222.355 373.224 222.728 372.494 223.356C368.909 226.443 365.265 229.463 361.667 232.539C357.945 235.725 354.255 238.953 350.547 242.16C349.941 242.685 349.457 243.292 349.221 244.075C349.507 245.059 349.545 246.068 349.531 247.088C349.422 255.533 349.729 263.982 349.299 272.428C349.175 274.844 349.224 277.272 349.193 279.692C351.161 280.358 353.116 281.075 355.102 281.681C356.827 282.207 358.51 282.807 360.132 283.607C363.166 285.103 366.073 286.811 368.892 288.673C370.92 290.014 372.716 291.616 374.18 293.584C375.45 295.295 376.865 296.9 377.986 298.72C377.972 296.244 378.053 293.775 377.761 291.295C377.545 289.457 377.708 287.573 377.63 285.714C377.295 277.6 377.517 269.475 377.217 261.368C376.985 255.11 377.168 248.852 376.907 242.601C376.794 239.909 376.822 237.196 376.381 234.518C376.353 234.353 376.357 234.18 376.346 234.014C376.208 231.767 376.089 229.516 375.933 227.269C375.859 226.203 375.63 225.156 375.626 224.08C375.626 223.445 375.178 222.937 374.914 222.379L374.917 222.372Z" fill="#FFB88B"/>
<path d="M382.636 336.584C382.248 338.087 382.499 339.6 382.552 341.11C382.577 341.841 382.689 342.571 382.693 343.301C382.732 348.378 382.749 353.454 382.788 358.531C382.795 359.599 382.827 360.665 382.975 361.734C383.106 362.676 383.07 363.646 382.947 364.602C382.869 365.216 382.816 365.837 382.809 366.454C382.763 371.643 382.732 376.833 382.693 382.022C382.686 382.752 382.672 383.483 382.559 384.213C382.464 384.82 382.432 385.462 382.517 386.068C382.813 388.15 382.76 390.238 382.668 392.316C382.502 396.084 382.428 399.862 381.797 403.594C381.758 403.817 381.733 404.043 381.673 404.258C381.532 404.797 381.285 404.921 380.679 404.812C379.07 404.515 377.444 404.378 375.807 404.371C370.787 404.346 365.767 404.364 360.747 404.318C359.374 404.307 358.051 404.448 356.778 404.967C355.854 406.72 355.19 408.551 354.95 410.541C354.816 411.659 354.629 412.77 354.7 413.899C354.855 416.376 355.173 418.827 356.065 421.166C356.633 422.655 357.515 423.964 358.514 425.192C359.014 425.809 359.642 426.282 360.362 426.641C361.625 427.273 362.909 427.827 364.306 428.12C366.398 428.554 368.465 429.097 370.564 429.481C373.605 430.035 376.653 430.579 379.715 430.967C383.801 431.482 387.921 431.538 392.035 431.379C394.67 431.281 396.928 430.226 398.822 428.37C400.455 426.772 400.716 424.885 400.124 422.772C399.746 421.431 398.914 420.351 398.123 419.265C396.155 416.563 393.76 414.248 391.198 412.118C389.251 410.498 387.184 409.027 385.176 407.482C385.102 407.426 385.067 407.299 385.053 407.2C385.032 407.062 385.12 406.999 385.268 407.002C386.45 407.027 387.646 406.956 388.814 407.105C389.713 407.218 390.602 407.285 391.505 407.299C393.59 407.327 395.686 407.246 397.76 407.408C399.672 407.56 401.581 407.567 403.493 407.637C404.858 407.687 406.184 407.401 407.529 407.292C408.407 407.221 409.148 406.787 409.518 405.919C410.051 404.67 410.442 403.376 410.495 402.011C410.548 400.733 410.15 400.162 408.964 399.679C405.839 398.398 402.703 397.139 399.584 395.847C398.18 395.265 396.79 394.648 395.404 394.024C393.555 393.191 391.713 392.341 389.872 391.491C389.516 391.328 389.177 391.131 388.828 390.954C387.872 390.471 387.53 389.684 387.438 388.63C387.194 385.889 386.838 383.158 386.542 380.42C386.404 379.136 386.408 377.842 386.207 376.554C385.946 374.892 386.013 373.178 385.737 371.516C385.434 369.675 385.625 367.798 385.194 365.978C385.155 365.815 385.159 365.643 385.148 365.473C385.014 363.508 384.912 361.543 384.739 359.582C384.601 358.016 384.372 356.456 384.196 354.893C384.15 354.502 384.132 354.107 384.122 353.712C384.076 351.852 383.854 350.011 383.525 348.18C383.504 348.071 383.48 347.958 383.473 347.845C383.346 345.936 383.162 344.028 383.113 342.119C383.067 340.26 382.802 338.426 382.636 336.577V336.584Z" fill="#FEB88C"/>
<path d="M102.375 382.661C101.528 382.432 100.911 381.85 100.294 381.278C97.8984 379.063 95.3266 377.062 92.7619 375.051C91.0827 373.732 89.4388 372.37 87.7666 371.044C86.9305 370.381 86.0521 369.77 85.209 369.118C83.9213 368.116 82.5243 367.481 80.8416 367.742C80.7851 367.749 80.7039 367.735 80.6757 367.767C79.7091 368.853 78.6296 369.869 77.8112 371.058C76.4353 373.048 75.2923 375.182 74.3928 377.447C73.8671 378.777 73.7295 380.174 73.3767 381.532C73.2215 382.128 73.1545 382.749 73.0874 383.359C73.0451 383.747 73.024 384.153 73.0769 384.538C73.5143 387.6 74.2023 390.588 75.2818 393.512C76.4777 396.74 77.7547 399.922 79.3175 402.984C80.9015 406.092 82.5807 409.155 84.5245 412.051C86.3414 414.764 88.6379 416.955 91.7142 418.239C93.5698 419.015 95.4254 419.068 97.3163 418.45C98.3217 418.122 99.0802 417.47 99.6376 416.577C100.174 415.72 100.724 414.866 101.25 414.002C101.991 412.785 102.446 411.448 102.728 410.065C103 408.745 103.19 407.408 103.377 406.075C103.437 405.634 103.476 405.147 103.356 404.731C103.045 403.676 103.127 402.607 103.112 401.542C103.091 399.961 103.102 398.384 103.084 396.804C103.074 395.904 103.141 394.998 102.834 394.123C102.781 393.967 102.788 393.788 102.784 393.618C102.714 390.186 102.192 386.767 102.453 383.324C102.47 383.105 102.407 382.88 102.379 382.657L102.375 382.661Z" fill="#FEB98C"/>
<path d="M243.592 294.276C244.728 293.651 245.222 292.441 246.072 291.552C246.958 290.624 247.688 289.548 248.496 288.543C249.864 286.839 251.191 285.1 252.634 283.459C253.823 282.108 254.92 280.694 256.031 279.286C256.412 278.803 256.754 278.284 257.058 277.748C257.195 277.501 257.111 277.201 256.895 276.972C256.67 276.732 256.401 276.707 256.133 276.855C255.149 277.395 254.14 277.9 253.202 278.51C252.539 278.94 251.847 279.311 251.145 279.663C248.076 281.198 245.165 283.004 242.195 284.708C240.491 285.685 238.805 286.691 237.119 287.703C236.254 288.225 235.404 288.772 234.564 289.333C234.141 289.615 233.746 289.954 233.824 290.557C235.679 291.302 237.531 292.042 239.387 292.787C240.364 293.178 241.345 293.57 242.315 293.976C242.728 294.149 243.133 294.325 243.596 294.276H243.592Z" fill="#494A45"/>
<path d="M261.936 220.658C262.155 220.778 262.36 220.757 262.55 220.591C262.328 220.46 262.123 220.467 261.936 220.658Z" fill="#FFB88B"/>
<path d="M348.279 279.582C348.173 279.427 348.025 279.374 347.842 279.413C347.951 279.565 348.085 279.642 348.279 279.582Z" fill="#C3B5B0"/>
<path d="M437.952 183.457C437.79 181.485 437.564 179.097 436.982 176.744C436.481 174.726 436.036 172.697 435.288 170.75C434.911 169.766 434.876 169.72 433.842 169.688C433.45 169.674 433.048 169.674 432.66 169.724C432.078 169.798 431.771 170.26 431.941 170.824C432.166 171.576 432.378 172.334 432.597 173.089C433.119 174.871 433.426 176.691 433.807 178.501C433.888 178.882 433.867 179.287 433.87 179.679C433.877 180.921 433.902 182.159 433.87 183.401C433.782 187.098 432.974 190.626 431.38 193.974C430.554 195.706 429.644 197.381 428.42 198.87C427.199 200.352 425.905 201.823 424.373 202.931C422.059 204.606 419.576 206.077 416.669 206.571C415.766 206.727 414.944 207.055 414.213 207.612C414.079 207.714 413.938 207.806 413.818 207.922C413.642 208.088 413.578 208.318 413.638 208.54C413.698 208.773 413.885 208.924 414.132 208.924C415.258 208.928 416.411 209.069 417.508 208.886C420.115 208.445 422.659 207.764 425.012 206.469C426.801 205.488 428.43 204.331 429.926 202.941C431.972 201.04 433.57 198.807 434.89 196.38C435.913 194.499 436.629 192.474 437.074 190.375C437.529 188.237 437.948 186.092 437.959 183.457H437.952Z" fill="#643408"/>
</svg>
