<svg width="500" height="500" viewBox="0 0 500 500" fill="none" xmlns="http://www.w3.org/2000/svg">
<path d="M136.821 346.585C136.814 344.334 136.691 342.08 136.832 339.84C137.03 336.746 137.03 333.659 136.994 330.565C136.955 327.059 137.368 323.609 138.197 320.204C138.437 319.22 138.666 318.236 138.846 317.241C139.182 315.41 139.721 313.639 140.381 311.9C140.78 310.852 141.108 309.776 141.468 308.711C142.589 306.887 144 305.282 145.274 303.574C146.738 301.606 148.534 300.004 150.562 298.664C153.381 296.801 156.288 295.093 159.322 293.598C160.944 292.797 162.627 292.197 164.352 291.671C166.338 291.068 168.293 290.352 170.261 289.682C170.568 289.647 170.875 289.611 171.182 289.579C171.373 289.643 171.51 289.565 171.62 289.41C175.105 288.084 178.675 287.078 182.365 286.489C183.533 286.302 184.697 286.083 185.851 285.815C191.393 284.524 196.928 283.205 202.47 281.907C211.575 279.769 220.684 277.649 229.786 275.497C231.313 275.137 232.872 274.872 234.308 274.177C234.531 274.163 234.767 274.184 234.979 274.124C237.3 273.447 239.618 272.748 241.942 272.078C242.599 271.888 243.043 271.556 243.152 270.847C243.195 270.572 243.29 270.3 243.371 270.032C244.412 266.525 245.382 262.998 246.518 259.523C247.516 256.475 248.719 253.494 249.795 250.47C251.57 245.486 253.425 240.526 254.851 235.428C255.306 233.802 255.676 232.158 256.385 230.616C256.565 230.606 256.745 230.598 256.925 230.588C257.112 230.754 257.316 230.775 257.539 230.655C258.1 230.704 258.661 230.8 259.221 230.796C264.005 230.757 268.648 231.71 273.223 232.952C279.065 234.535 284.614 236.878 289.924 239.813C293.282 241.669 296.637 243.514 299.869 245.588C306.526 249.867 312.798 254.654 318.809 259.787C328.49 268.053 337.309 277.158 345.204 287.149C347.339 289.848 349.399 292.606 351.3 295.474C352.549 297.358 353.879 299.172 355.399 300.851C357.707 303.401 359.975 305.991 362.243 308.577C363.041 309.487 363.997 310.104 365.108 310.598C369.44 312.524 373.596 314.8 377.67 317.22C380.337 318.8 383.022 320.356 385.58 322.113C389.806 325.016 394.251 327.598 398.347 330.692C402.305 333.684 406.228 336.725 409.65 340.351C411.428 342.239 413.276 344.063 415.097 345.915C416.797 347.647 418.356 349.506 419.961 351.323C422.579 354.283 425.087 357.324 427.546 360.41C431.169 364.958 434.584 369.653 437.205 374.871C437.685 375.827 437.981 376.875 438.638 377.742C436.955 377.485 435.558 378.12 434.27 379.118C433.427 379.774 432.549 380.381 431.713 381.044C430.037 382.371 428.396 383.733 426.717 385.052C424.152 387.063 421.581 389.063 419.185 391.278C418.568 391.85 417.954 392.432 417.104 392.661C417.09 390.559 416.032 389.074 414.384 387.871C411.29 385.613 408.327 383.182 405.353 380.766C402.686 378.6 399.97 376.494 397.278 374.356C394.632 372.253 391.997 370.133 389.34 368.041C386.864 366.09 384.356 364.175 381.876 362.224C380.457 361.109 379.067 359.962 377.674 358.816C375.719 357.204 373.776 355.574 371.825 353.955C369.916 352.374 368.008 350.794 366.085 349.227C364.949 348.303 363.817 347.372 362.635 346.511C359.904 344.518 357.41 342.214 354.609 340.313C354.098 339.967 353.657 339.519 353.152 339.159C351.865 338.242 350.524 337.448 349.028 336.877C347.021 336.115 345.239 334.883 343.38 333.825C328.736 325.475 314.103 317.107 299.477 308.732C295.318 306.351 291.187 303.92 287.052 301.503C286.569 301.221 286.124 300.875 285.659 300.558C285.733 299.955 285.341 299.62 284.918 299.334C284.078 298.773 283.228 298.223 282.364 297.704C280.681 296.692 278.995 295.686 277.287 294.709C274.317 293.005 271.403 291.199 268.337 289.664C267.635 289.311 266.944 288.941 266.281 288.511C265.339 287.9 264.333 287.396 263.349 286.856C263.081 286.708 262.813 286.736 262.587 286.972C262.372 287.202 262.284 287.502 262.425 287.749C262.728 288.285 263.07 288.803 263.451 289.287C264.566 290.694 265.663 292.109 266.849 293.46C268.291 295.1 269.614 296.84 270.987 298.544C271.795 299.549 272.525 300.625 273.41 301.553C274.26 302.442 274.754 303.655 275.89 304.276C273.505 305.285 271.117 306.284 268.644 307.06C267.406 307.448 266.203 307.917 265.025 308.471C261.754 310.012 258.325 311.141 254.932 312.362C238.429 318.289 221.696 323.506 204.964 328.734C196.734 331.306 188.479 333.797 180.231 336.323C179.532 336.538 178.823 336.732 178.114 336.908C177.141 337.145 176.541 337.741 176.301 338.704C176.082 339.579 175.835 340.447 175.676 341.332C174.643 347.044 173.606 352.752 172.611 358.47C171.387 365.519 170.187 372.574 169.002 379.63C167.915 386.075 166.857 392.524 165.792 398.973C165.167 402.751 164.55 406.533 163.94 410.314C163.742 411.535 163.721 412.78 163.276 413.959C163.132 414.336 162.962 414.675 162.698 414.971C161.424 414.453 160.105 414.308 158.729 414.322C153.709 414.368 148.689 414.35 143.669 414.375C142.036 414.382 140.409 414.52 138.797 414.816C138.194 414.925 137.947 414.802 137.802 414.262C137.746 414.043 137.717 413.821 137.679 413.599C137.047 409.866 136.973 406.088 136.807 402.32C136.716 400.243 136.663 398.151 136.959 396.073C137.044 395.466 137.012 394.824 136.917 394.217C136.8 393.487 136.786 392.757 136.783 392.026C136.744 386.837 136.712 381.648 136.666 376.458C136.659 375.841 136.606 375.22 136.529 374.606C136.409 373.65 136.37 372.68 136.5 371.738C136.649 370.669 136.68 369.604 136.687 368.535C136.726 363.458 136.744 358.382 136.783 353.305C136.79 352.575 136.899 351.848 136.924 351.115C136.977 349.605 137.227 348.088 136.839 346.589L136.821 346.585Z" fill="#696E66"/>
<path d="M161.075 199.342C159.576 197.433 158.394 195.313 157.071 193.288C152.944 186.966 148.852 180.623 144.756 174.28C141.701 169.546 138.66 164.805 135.612 160.067C131.311 153.389 126.965 146.739 122.735 140.015C121.021 137.292 119.197 134.649 117.257 132.102C115.863 130.271 114.526 128.391 113.059 126.606C111.813 125.092 110.628 123.508 109.39 121.981C108.152 120.453 106.941 118.898 105.559 117.49C104.811 116.728 104.151 115.885 103.453 115.077C101.502 112.823 99.5578 110.562 97.5999 108.314C97.1201 107.76 96.598 107.242 96.0936 106.713C95.074 105.651 94.2591 104.455 93.5394 103.164C92.4105 101.146 91.4404 99.0433 90.2939 97.043C89.2214 95.1698 88.8828 93.1554 88.657 91.0776C88.5123 89.737 88.3677 88.3964 88.1772 87.0629C87.9161 85.2285 87.5034 83.4082 87.3588 81.5667C87.2459 80.1591 87.5351 78.755 88.6005 77.6614C89.5848 76.6525 90.5479 75.6153 91.772 74.8886C92.4635 74.4758 93.0209 73.9608 93.4548 73.2693C94.5519 71.5089 96.6192 71.2056 98.3372 72.2886C98.7747 72.5638 99.1663 72.8848 99.4802 73.2799C101.244 75.4918 103.301 77.4109 105.432 79.2595C107.097 80.7059 108.476 82.4239 109.894 84.1031C110.258 84.5335 110.596 84.9851 110.988 85.3872C113.253 87.7438 115.299 90.2909 117.292 92.8732C118.118 93.9457 119.088 94.884 119.903 95.9706C121.451 98.0414 123.138 100.01 124.774 102.014C125.593 103.016 126.418 104.014 127.254 104.998C129.996 108.216 132.447 111.659 135.005 115.017C137.393 118.15 139.831 121.247 142.131 124.443C143.281 126.041 144.572 127.523 145.705 129.142C147.543 131.764 149.554 134.268 151.561 136.766C153.251 138.868 154.972 140.946 156.563 143.126C157.061 143.807 157.65 144.428 158.218 145.039C159.798 146.742 160.977 148.736 162.402 150.545C164.561 153.287 166.681 156.059 168.794 158.839C170.124 160.589 171.436 162.349 172.696 164.149C175.186 167.698 177.783 171.187 180.069 174.87C183.106 179.766 186.659 184.278 190.077 188.892C192.423 192.06 194.787 195.218 197.136 198.386C197.267 198.562 197.334 198.788 197.429 198.989C196.858 199.271 196.244 199.303 195.619 199.31C194.215 199.324 192.811 199.363 191.407 199.359C181.97 199.335 172.534 199.299 163.097 199.275C162.423 199.275 161.753 199.321 161.079 199.349L161.075 199.342Z" fill="#FFB88C"/>
<path d="M161.075 199.342C161.749 199.318 162.419 199.268 163.093 199.268C172.53 199.293 181.967 199.328 191.404 199.353C192.808 199.356 194.212 199.318 195.616 199.303C196.237 199.296 196.851 199.265 197.426 198.982C198.794 199.547 199.934 200.482 201.109 201.335C206.069 204.937 211.015 208.56 215.929 212.222C217.139 213.125 218.434 213.951 219.39 215.164C219.002 216.466 218.427 217.683 217.82 218.893C211.967 230.57 206.129 242.254 200.258 253.924C199.098 256.235 197.828 258.489 196.607 260.768C196.452 260.835 196.29 260.884 196.142 260.966C192.487 263.019 188.613 263.312 184.585 262.408C180.221 261.428 176.407 259.385 173.024 256.492C172.089 255.692 171.161 254.88 170.233 254.072C169.997 253.293 169.514 252.682 168.907 252.157C165.199 248.95 161.513 245.726 157.787 242.536C154.193 239.46 150.548 236.444 146.961 233.354C146.23 232.726 145.486 232.352 144.537 232.369C144.622 231.752 144.855 231.184 145.13 230.63C146.326 228.224 147.504 225.808 148.735 223.416C149.169 222.573 149.726 221.797 150.227 220.989C152.432 220.812 154.602 221.253 156.779 221.469C157.95 221.585 159.132 221.613 160.299 221.797C161.795 222.029 163.308 222.16 164.815 222.322C166.713 222.523 168.611 222.728 170.512 222.904C172.47 223.088 174.449 222.95 176.4 223.282C176.531 223.303 176.742 223.211 176.82 223.102C176.986 222.873 176.785 222.679 176.643 222.516C175.091 220.738 173.56 218.936 171.966 217.196C168.847 213.796 165.686 210.434 162.554 207.047C161.753 206.179 161.005 205.265 160.2 204.398C159.837 204.002 159.689 203.533 159.555 203.046L161.068 199.339L161.075 199.342Z" fill="#8B8ADF"/>
<path d="M196.603 260.768C197.824 258.489 199.094 256.235 200.254 253.924C206.121 242.254 211.963 230.57 217.816 218.893C218.422 217.683 218.998 216.466 219.386 215.164C220.895 215.912 222.448 216.586 223.908 217.425C226.014 218.635 228.223 219.598 230.477 220.477C234.089 221.884 237.698 223.299 241.314 224.7C246.031 226.527 250.751 228.34 255.468 230.168C255.778 230.288 256.071 230.464 256.371 230.616C255.665 232.157 255.291 233.801 254.84 235.428C253.415 240.529 251.559 245.485 249.785 250.47C248.709 253.493 247.506 256.474 246.507 259.522C245.371 262.997 244.401 266.525 243.36 270.032C243.279 270.3 243.184 270.571 243.142 270.847C243.032 271.556 242.588 271.887 241.932 272.078C239.607 272.748 237.289 273.447 234.968 274.124C234.756 274.184 234.523 274.163 234.298 274.177C233.567 273.881 232.837 273.591 232.107 273.291C230.544 272.656 229.002 271.951 227.411 271.39C223.538 270.021 219.64 268.716 215.748 267.389C209.356 265.209 202.907 263.191 196.6 260.764L196.603 260.768Z" fill="#FFB88B"/>
<path d="M127.678 209.808C125.462 212.405 122.898 214.588 119.952 216.313C116.357 218.419 112.48 219.432 108.303 219.241C108.19 219.238 108.077 219.231 107.964 219.224C106.338 219.104 106.282 219.104 106.19 220.801C105.971 224.833 105.054 228.714 103.692 232.506C102.027 237.149 99.6777 241.452 97.2258 245.707C97.1412 245.852 97.0459 246 96.9225 246.106C96.7955 246.215 96.5908 246.275 96.4991 246.077C96.3404 245.721 96.2063 245.347 96.097 244.973C94.8658 240.75 93.6557 236.521 92.4104 232.301C91.3909 228.837 90.2303 225.419 88.671 222.152C87.5738 219.855 86.258 217.689 84.741 215.643C82.2257 212.246 79.7104 208.845 77.2021 205.441C76.1614 204.03 75.2301 202.552 74.5457 200.932C72.108 195.189 72.683 189.672 75.9568 184.447C77.6854 181.688 80.2748 180.048 83.5028 179.473C83.8344 179.413 84.173 179.36 84.5082 179.339C85.0797 179.3 85.4219 178.993 85.6653 178.496C85.9899 177.839 86.325 177.183 86.7166 176.566C90.9852 169.877 97.1729 166.84 105.012 167.133C107.767 167.235 110.508 167.665 113.256 167.944C113.284 168.448 113.281 168.942 113.164 169.45C111.898 174.985 110.653 180.524 109.4 186.063C109.055 187.597 108.691 189.128 108.352 190.666C108.166 191.524 108.37 191.76 109.28 191.824C109.506 191.838 109.732 191.834 109.954 191.838C112.939 191.859 115.92 191.88 118.904 191.901C119.412 191.905 119.917 191.908 120.425 191.919C121.546 191.947 122.351 192.494 122.838 193.482C123.06 193.933 123.222 194.416 123.367 194.9C124.224 197.814 125.085 200.724 125.914 203.645C126.496 205.698 127.272 207.699 127.674 209.805L127.678 209.808ZM81.506 193.457C81.5166 196.092 81.94 198.237 82.3915 200.375C82.836 202.474 83.5522 204.499 84.5752 206.379C85.8946 208.806 87.4892 211.039 89.5388 212.941C91.0346 214.327 92.6644 215.484 94.453 216.469C96.806 217.76 99.3496 218.444 101.957 218.885C103.054 219.072 104.204 218.928 105.333 218.924C105.58 218.924 105.767 218.769 105.827 218.539C105.883 218.317 105.82 218.088 105.647 217.922C105.527 217.806 105.386 217.714 105.252 217.612C104.521 217.054 103.699 216.726 102.796 216.571C99.8893 216.077 97.4058 214.602 95.0915 212.93C93.5569 211.819 92.2658 210.351 91.0452 208.87C89.821 207.381 88.9073 205.705 88.0854 203.973C86.4943 200.629 85.6829 197.098 85.5947 193.4C85.5665 192.162 85.5877 190.92 85.5947 189.679C85.5947 189.284 85.5771 188.881 85.6582 188.5C86.0392 186.691 86.3462 184.87 86.8683 183.089C87.0905 182.337 87.2987 181.579 87.5244 180.824C87.6938 180.259 87.3869 179.797 86.8048 179.723C86.4167 179.674 86.0181 179.674 85.623 179.688C84.5858 179.723 84.554 179.769 84.1766 180.75C83.4287 182.697 82.9807 184.726 82.4832 186.744C81.9011 189.097 81.6754 191.485 81.5131 193.457H81.506Z" fill="#834515"/>
<path d="M127.677 209.808C127.279 207.702 126.503 205.702 125.917 203.648C125.088 200.727 124.227 197.813 123.37 194.903C123.229 194.42 123.063 193.933 122.841 193.485C122.354 192.497 121.55 191.95 120.428 191.922C119.92 191.908 119.415 191.908 118.907 191.904C115.923 191.883 112.942 191.862 109.957 191.841C109.731 191.841 109.506 191.841 109.283 191.827C108.37 191.763 108.169 191.527 108.356 190.67C108.691 189.132 109.054 187.601 109.403 186.066C110.656 180.527 111.901 174.989 113.167 169.454C113.284 168.946 113.287 168.455 113.259 167.947C114.459 168.028 115.542 168.501 116.604 168.995C118.907 170.064 121.31 170.459 123.828 170.223C124.728 170.138 125.585 169.873 126.453 169.63C128.4 169.083 130.355 168.565 132.306 168.039C133.523 167.711 134.768 167.806 135.999 167.873C136.917 167.923 137.661 168.713 137.717 169.658C137.788 170.836 137.841 172.025 137.544 173.186C137.403 173.743 137.336 174.304 137.407 174.858C137.583 176.238 138.017 177.448 139.344 178.224C140.317 178.792 141.319 179.3 142.325 179.801C143.387 180.33 144.388 180.947 145.341 181.649C146.618 182.591 147.108 183.847 146.692 185.332C146.512 185.978 146.244 186.606 145.958 187.216C145.359 188.49 144.709 189.738 144.099 191.005C143.708 191.82 143.39 192.652 143.415 193.587C143.439 194.434 143.732 195.122 144.448 195.594C144.872 195.873 145.281 196.187 145.743 196.385C149.832 198.142 153.719 200.304 157.713 202.262C158.119 202.46 158.514 202.675 158.923 202.862C159.124 202.953 159.35 202.996 159.561 203.063C159.695 203.553 159.84 204.022 160.203 204.414C161.004 205.282 161.752 206.195 162.556 207.063C165.689 210.45 168.85 213.812 171.969 217.213C173.563 218.952 175.094 220.755 176.646 222.533C176.788 222.695 176.989 222.889 176.823 223.118C176.745 223.228 176.534 223.319 176.403 223.298C174.452 222.967 172.473 223.104 170.515 222.921C168.614 222.744 166.716 222.54 164.818 222.339C163.311 222.176 161.798 222.046 160.302 221.813C159.135 221.63 157.953 221.601 156.782 221.485C154.605 221.27 152.439 220.825 150.23 221.005C149.031 220.391 147.835 219.777 146.636 219.164C140.942 216.253 135.251 213.343 129.558 210.436C128.965 210.132 128.4 209.73 127.677 209.819V209.808Z" fill="#FEB88C"/>
<path d="M144.54 232.372C145.489 232.354 146.234 232.728 146.964 233.356C150.548 236.443 154.192 239.463 157.791 242.539C161.512 245.724 165.202 248.952 168.91 252.159C169.517 252.685 170 253.291 170.237 254.075C169.951 255.059 169.912 256.068 169.926 257.087C170.036 265.533 169.729 273.982 170.159 282.427C170.282 284.844 170.233 287.271 170.265 289.691C168.296 290.358 166.342 291.074 164.356 291.681C162.631 292.206 160.948 292.806 159.325 293.607C156.291 295.103 153.384 296.81 150.566 298.673C148.537 300.013 146.742 301.615 145.278 303.584C144.008 305.295 142.593 306.9 141.471 308.72C141.485 306.243 141.404 303.774 141.697 301.294C141.912 299.456 141.75 297.572 141.827 295.713C142.163 287.599 141.94 279.475 142.24 271.368C142.473 265.11 142.29 258.851 142.551 252.6C142.663 249.908 142.635 247.195 143.076 244.518C143.104 244.352 143.101 244.179 143.111 244.013C143.249 241.766 143.369 239.515 143.524 237.268C143.598 236.203 143.828 235.155 143.831 234.079C143.831 233.444 144.279 232.936 144.544 232.379L144.54 232.372Z" fill="#FFB88B"/>
<path d="M136.822 346.585C137.21 348.088 136.959 349.601 136.906 351.111C136.881 351.842 136.769 352.572 136.765 353.302C136.726 358.379 136.709 363.455 136.67 368.532C136.663 369.6 136.631 370.666 136.483 371.735C136.352 372.677 136.388 373.647 136.511 374.603C136.589 375.217 136.642 375.838 136.649 376.455C136.695 381.644 136.726 386.834 136.765 392.023C136.772 392.753 136.786 393.484 136.899 394.214C136.994 394.821 137.026 395.463 136.941 396.069C136.645 398.151 136.698 400.239 136.79 402.317C136.956 406.085 137.03 409.863 137.661 413.595C137.7 413.818 137.725 414.043 137.785 414.259C137.926 414.798 138.173 414.922 138.779 414.813C140.388 414.516 142.014 414.379 143.651 414.372C148.671 414.347 153.691 414.364 158.711 414.319C160.084 414.308 161.407 414.449 162.68 414.968C163.604 416.721 164.268 418.552 164.508 420.542C164.642 421.66 164.829 422.771 164.758 423.9C164.603 426.377 164.285 428.828 163.393 431.167C162.825 432.656 161.943 433.965 160.945 435.193C160.444 435.81 159.816 436.283 159.096 436.642C157.833 437.274 156.549 437.828 155.152 438.121C153.06 438.555 150.993 439.098 148.894 439.482C145.853 440.036 142.805 440.579 139.743 440.968C135.657 441.483 131.537 441.539 127.423 441.38C124.788 441.282 122.53 440.227 120.636 438.371C119.003 436.773 118.742 434.886 119.334 432.772C119.712 431.432 120.544 430.352 121.335 429.266C123.303 426.564 125.698 424.249 128.26 422.119C130.207 420.499 132.274 419.028 134.282 417.483C134.356 417.427 134.391 417.3 134.405 417.201C134.426 417.063 134.338 417 134.19 417.003C133.008 417.028 131.812 416.957 130.644 417.106C129.745 417.218 128.856 417.286 127.953 417.3C125.868 417.328 123.772 417.247 121.698 417.409C119.786 417.561 117.877 417.568 115.965 417.638C114.6 417.688 113.274 417.402 111.929 417.293C111.051 417.222 110.31 416.788 109.94 415.92C109.407 414.671 109.016 413.377 108.963 412.011C108.91 410.734 109.308 410.163 110.494 409.68C113.619 408.399 116.755 407.14 119.874 405.848C121.278 405.266 122.668 404.649 124.054 404.025C125.903 403.192 127.745 402.342 129.586 401.492C129.942 401.329 130.281 401.132 130.63 400.955C131.586 400.472 131.928 399.685 132.02 398.631C132.264 395.889 132.62 393.159 132.916 390.421C133.054 389.137 133.05 387.843 133.251 386.555C133.512 384.893 133.445 383.179 133.721 381.517C134.024 379.676 133.833 377.799 134.264 375.979C134.303 375.816 134.299 375.644 134.31 375.474C134.444 373.509 134.546 371.544 134.719 369.583C134.857 368.016 135.086 366.457 135.262 364.894C135.308 364.503 135.326 364.108 135.336 363.713C135.382 361.853 135.604 360.012 135.933 358.181C135.954 358.072 135.978 357.959 135.985 357.846C136.112 355.937 136.296 354.029 136.345 352.12C136.391 350.261 136.656 348.427 136.822 346.578V346.585Z" fill="#FEB88C"/>
<path d="M417.083 392.661C417.93 392.432 418.547 391.85 419.165 391.278C421.56 389.063 424.132 387.063 426.697 385.052C428.376 383.733 430.02 382.371 431.692 381.044C432.528 380.381 433.406 379.771 434.25 379.118C435.537 378.116 436.934 377.481 438.617 377.742C438.673 377.749 438.755 377.735 438.783 377.767C439.749 378.854 440.829 379.87 441.647 381.059C443.023 383.048 444.166 385.182 445.066 387.447C445.591 388.777 445.729 390.174 446.082 391.532C446.237 392.129 446.304 392.75 446.371 393.36C446.413 393.748 446.435 394.154 446.382 394.538C445.944 397.6 445.256 400.588 444.177 403.513C442.981 406.741 441.704 409.923 440.141 412.985C438.557 416.093 436.878 419.155 434.934 422.051C433.117 424.764 430.821 426.955 427.744 428.239C425.889 429.015 424.033 429.068 422.142 428.451C421.137 428.123 420.378 427.47 419.821 426.577C419.285 425.72 418.734 424.867 418.209 424.002C417.468 422.785 417.013 421.448 416.731 420.065C416.459 418.746 416.268 417.409 416.081 416.075C416.021 415.634 415.983 415.147 416.103 414.731C416.413 413.676 416.332 412.607 416.346 411.542C416.367 409.962 416.357 408.385 416.374 406.804C416.385 405.905 416.318 404.998 416.625 404.123C416.678 403.968 416.671 403.788 416.674 403.619C416.745 400.186 417.267 396.768 417.006 393.325C416.988 393.106 417.052 392.88 417.08 392.658L417.083 392.661Z" fill="#FEB98C"/>
<path d="M275.865 304.276C274.73 303.652 274.236 302.442 273.385 301.553C272.5 300.625 271.77 299.549 270.962 298.543C269.593 296.839 268.267 295.1 266.824 293.46C265.635 292.109 264.538 290.694 263.426 289.286C263.045 288.803 262.703 288.285 262.4 287.748C262.262 287.501 262.347 287.202 262.562 286.972C262.788 286.732 263.056 286.708 263.324 286.856C264.308 287.396 265.317 287.9 266.256 288.51C266.919 288.941 267.61 289.311 268.312 289.664C271.382 291.199 274.292 293.005 277.262 294.709C278.966 295.686 280.653 296.691 282.339 297.704C283.203 298.226 284.053 298.773 284.893 299.334C285.316 299.616 285.712 299.954 285.634 300.558C283.778 301.302 281.926 302.043 280.071 302.787C279.093 303.179 278.113 303.57 277.143 303.976C276.73 304.149 276.324 304.325 275.862 304.276H275.865Z" fill="#494A45"/>
<path d="M257.521 230.657C257.302 230.777 257.098 230.756 256.907 230.59C257.129 230.46 257.334 230.467 257.521 230.657Z" fill="#FFB88B"/>
<path d="M171.179 289.582C171.285 289.427 171.433 289.374 171.616 289.413C171.507 289.564 171.373 289.642 171.179 289.582Z" fill="#C3B5B0"/>
<path d="M81.5061 193.457C81.6684 191.485 81.8941 189.096 82.4762 186.743C82.9772 184.725 83.4217 182.697 84.1696 180.75C84.547 179.765 84.5823 179.72 85.6159 179.688C86.0075 179.674 86.4097 179.674 86.7978 179.723C87.3798 179.797 87.6868 180.259 87.5174 180.824C87.2916 181.575 87.08 182.334 86.8613 183.089C86.3391 184.87 86.0322 186.69 85.6512 188.5C85.5701 188.881 85.5913 189.287 85.5877 189.678C85.5807 190.92 85.556 192.159 85.5877 193.4C85.6759 197.097 86.4838 200.625 88.0783 203.973C88.9038 205.705 89.814 207.381 91.0382 208.87C92.2588 210.351 93.5535 211.822 95.0845 212.93C97.3987 214.606 99.8823 216.077 102.789 216.571C103.692 216.726 104.514 217.054 105.245 217.611C105.379 217.714 105.52 217.806 105.64 217.922C105.816 218.088 105.88 218.317 105.82 218.539C105.76 218.772 105.573 218.924 105.326 218.924C104.2 218.927 103.047 219.068 101.95 218.885C99.3426 218.444 96.799 217.763 94.446 216.468C92.6574 215.488 91.0276 214.331 89.5318 212.941C87.4857 211.039 85.8876 208.806 84.5682 206.379C83.5451 204.499 82.829 202.474 82.3845 200.375C81.9294 198.237 81.5096 196.092 81.499 193.457H81.5061Z" fill="#643408"/>
</svg>
