<svg width="500" height="500" viewBox="0 0 500 500" fill="none" xmlns="http://www.w3.org/2000/svg">
<path d="M382.636 336.584C382.643 334.334 382.766 332.08 382.625 329.839C382.427 326.746 382.427 323.659 382.463 320.565C382.502 317.058 382.089 313.608 381.26 310.204C381.02 309.219 380.791 308.235 380.611 307.24C380.276 305.409 379.736 303.639 379.076 301.899C378.677 300.852 378.349 299.776 377.989 298.71C376.868 296.886 375.457 295.281 374.183 293.574C372.719 291.605 370.923 290.004 368.895 288.663C366.076 286.8 363.169 285.093 360.135 283.597C358.513 282.796 356.83 282.197 355.105 281.671C353.119 281.068 351.164 280.352 349.196 279.681C348.889 279.646 348.582 279.611 348.275 279.579C348.084 279.643 347.947 279.565 347.838 279.41C344.352 278.083 340.782 277.078 337.092 276.489C335.924 276.302 334.76 276.083 333.606 275.815C328.064 274.524 322.529 273.204 316.987 271.906C307.882 269.768 298.773 267.648 289.671 265.496C288.144 265.136 286.585 264.872 285.149 264.177C284.927 264.163 284.69 264.184 284.478 264.124C282.157 263.446 279.839 262.748 277.515 262.078C276.858 261.887 276.414 261.556 276.305 260.846C276.262 260.571 276.167 260.3 276.086 260.032C275.045 256.525 274.075 252.997 272.939 249.522C271.941 246.474 270.738 243.493 269.662 240.47C267.887 235.485 266.032 230.525 264.606 225.428C264.151 223.801 263.781 222.157 263.072 220.616C262.892 220.605 262.712 220.598 262.532 220.587C262.345 220.753 262.141 220.774 261.918 220.654C261.357 220.704 260.796 220.799 260.236 220.796C255.452 220.757 250.809 221.709 246.234 222.951C240.392 224.535 234.843 226.877 229.533 229.813C226.175 231.668 222.82 233.513 219.588 235.588C212.931 239.867 206.659 244.654 200.648 249.787C190.967 258.052 182.148 267.158 174.253 277.148C172.119 279.847 170.058 282.606 168.157 285.474C166.908 287.358 165.578 289.171 164.058 290.85C161.75 293.401 159.482 295.99 157.214 298.576C156.416 299.486 155.46 300.104 154.349 300.598C150.017 302.524 145.861 304.799 141.787 307.219C139.12 308.8 136.435 310.355 133.877 312.112C129.651 315.016 125.206 317.598 121.11 320.692C117.152 323.683 113.229 326.724 109.807 330.351C108.029 332.238 106.181 334.062 104.36 335.914C102.66 337.646 101.101 339.506 99.4956 341.322C96.878 344.282 94.3697 347.323 91.9108 350.41C88.2878 354.957 84.8729 359.653 82.2518 364.87C81.772 365.826 81.4756 366.874 80.8195 367.742C82.5022 367.484 83.8992 368.119 85.1869 369.118C86.03 369.774 86.9084 370.381 87.7445 371.044C89.4202 372.37 91.0606 373.732 92.7399 375.051C95.3046 377.062 97.8763 379.063 100.272 381.278C100.889 381.85 101.503 382.432 102.353 382.661C102.367 380.558 103.426 379.073 105.073 377.87C108.167 375.612 111.13 373.182 114.104 370.765C116.771 368.599 119.488 366.493 122.179 364.355C124.825 362.253 127.46 360.132 130.117 358.04C132.593 356.09 135.102 354.174 137.582 352.223C139 351.108 140.39 349.962 141.783 348.815C143.738 347.203 145.681 345.573 147.632 343.954C149.541 342.374 151.449 340.793 153.372 339.227C154.508 338.303 155.64 337.371 156.822 336.51C159.553 334.517 162.047 332.214 164.848 330.312C165.359 329.966 165.8 329.518 166.305 329.159C167.592 328.241 168.933 327.448 170.429 326.876C172.436 326.114 174.218 324.883 176.077 323.825C190.721 315.474 205.354 307.106 219.98 298.731C224.139 296.35 228.27 293.919 232.405 291.503C232.888 291.221 233.333 290.875 233.798 290.557C233.724 289.954 234.116 289.619 234.539 289.333C235.379 288.772 236.229 288.222 237.093 287.704C238.776 286.691 240.462 285.686 242.17 284.708C245.14 283.005 248.054 281.198 251.12 279.664C251.822 279.311 252.513 278.94 253.176 278.51C254.118 277.9 255.124 277.395 256.108 276.856C256.376 276.707 256.644 276.736 256.87 276.972C257.085 277.201 257.173 277.501 257.032 277.748C256.729 278.284 256.387 278.803 256.006 279.286C254.891 280.694 253.794 282.108 252.608 283.46C251.166 285.1 249.843 286.839 248.47 288.543C247.663 289.549 246.932 290.625 246.047 291.552C245.197 292.441 244.703 293.655 243.567 294.276C245.952 295.285 248.34 296.283 250.813 297.059C252.051 297.447 253.254 297.916 254.432 298.47C257.703 300.012 261.132 301.141 264.525 302.361C281.028 308.288 297.761 313.506 314.493 318.734C322.723 321.306 330.978 323.796 339.226 326.322C339.925 326.537 340.634 326.731 341.343 326.908C342.317 327.144 342.916 327.74 343.156 328.703C343.375 329.578 343.622 330.446 343.781 331.332C344.814 337.043 345.851 342.751 346.846 348.47C348.07 355.518 349.27 362.574 350.455 369.629C351.542 376.075 352.6 382.523 353.665 388.972C354.29 392.75 354.907 396.532 355.518 400.314C355.715 401.535 355.736 402.78 356.181 403.958C356.325 404.336 356.495 404.674 356.759 404.971C358.033 404.452 359.352 404.307 360.728 404.321C365.748 404.367 370.768 404.35 375.788 404.374C377.422 404.381 379.048 404.519 380.66 404.815C381.263 404.925 381.51 404.801 381.655 404.262C381.711 404.043 381.74 403.821 381.778 403.598C382.41 399.866 382.484 396.088 382.65 392.32C382.741 390.242 382.794 388.15 382.498 386.072C382.413 385.465 382.445 384.823 382.54 384.217C382.657 383.486 382.671 382.756 382.674 382.026C382.713 376.837 382.745 371.647 382.791 366.458C382.798 365.84 382.851 365.22 382.928 364.606C383.048 363.65 383.087 362.68 382.957 361.738C382.808 360.669 382.777 359.603 382.77 358.534C382.731 353.458 382.713 348.381 382.674 343.305C382.667 342.575 382.558 341.848 382.533 341.114C382.48 339.604 382.23 338.087 382.618 336.588L382.636 336.584Z" fill="#696E66"/>
<path d="M358.382 189.342C359.881 187.433 361.063 185.313 362.386 183.288C366.513 176.966 370.605 170.623 374.701 164.28C377.756 159.546 380.797 154.805 383.845 150.067C388.146 143.389 392.492 136.739 396.722 130.015C398.436 127.292 400.26 124.649 402.2 122.102C403.594 120.271 404.931 118.391 406.398 116.606C407.644 115.092 408.829 113.508 410.067 111.981C411.306 110.453 412.516 108.898 413.898 107.49C414.646 106.728 415.306 105.885 416.005 105.077C417.955 102.823 419.899 100.562 421.857 98.3143C422.337 97.7605 422.859 97.2419 423.363 96.7127C424.383 95.6508 425.198 94.4549 425.918 93.1638C427.046 91.1459 428.017 89.0433 429.163 87.043C430.236 85.1698 430.574 83.1554 430.8 81.0776C430.945 79.737 431.089 78.3964 431.28 77.0629C431.541 75.2285 431.954 73.4082 432.098 71.5667C432.211 70.1591 431.922 68.755 430.856 67.6614C429.872 66.6525 428.909 65.6153 427.685 64.8886C426.994 64.4758 426.436 63.9608 426.002 63.2693C424.905 61.5089 422.838 61.2056 421.12 62.2886C420.682 62.5638 420.291 62.8848 419.977 63.2799C418.213 65.4918 416.156 67.4109 414.025 69.2595C412.36 70.7059 410.981 72.4239 409.563 74.1031C409.199 74.5335 408.861 74.9851 408.469 75.3872C406.204 77.7438 404.158 80.2909 402.165 82.8732C401.34 83.9457 400.369 84.884 399.554 85.9706C398.006 88.0414 396.319 90.0099 394.683 92.0137C393.864 93.0156 393.039 94.014 392.203 94.9982C389.461 98.2155 387.01 101.659 384.452 105.017C382.064 108.15 379.626 111.247 377.326 114.443C376.176 116.041 374.885 117.523 373.752 119.142C371.914 121.764 369.903 124.268 367.896 126.766C366.206 128.868 364.485 130.946 362.894 133.126C362.396 133.807 361.807 134.428 361.239 135.039C359.659 136.742 358.48 138.736 357.055 140.545C354.896 143.287 352.776 146.059 350.663 148.839C349.333 150.589 348.021 152.349 346.761 154.149C344.271 157.698 341.674 161.187 339.388 164.87C336.351 169.766 332.798 174.278 329.38 178.892C327.034 182.06 324.67 185.218 322.321 188.386C322.19 188.562 322.123 188.788 322.028 188.989C322.599 189.271 323.213 189.303 323.838 189.31C325.242 189.324 326.646 189.363 328.05 189.359C337.487 189.335 346.923 189.299 356.36 189.275C357.034 189.275 357.704 189.321 358.378 189.349L358.382 189.342Z" fill="#FFB88C"/>
<path d="M358.382 189.342C357.708 189.317 357.038 189.268 356.364 189.268C346.927 189.292 337.49 189.328 328.053 189.352C326.649 189.356 325.245 189.317 323.841 189.303C323.22 189.296 322.606 189.264 322.031 188.982C320.663 189.546 319.523 190.481 318.348 191.335C313.388 194.937 308.442 198.56 303.528 202.222C302.318 203.125 301.023 203.95 300.067 205.164C300.455 206.466 301.03 207.683 301.637 208.893C307.49 220.57 313.328 232.254 319.199 243.924C320.359 246.234 321.629 248.489 322.85 250.768C323.005 250.835 323.167 250.884 323.315 250.965C326.97 253.018 330.844 253.311 334.873 252.408C339.236 251.427 343.05 249.385 346.433 246.492C347.368 245.691 348.296 244.88 349.224 244.072C349.46 243.292 349.943 242.682 350.55 242.156C354.258 238.949 357.944 235.725 361.67 232.536C365.264 229.46 368.909 226.443 372.496 223.353C373.227 222.725 373.971 222.351 374.92 222.369C374.835 221.752 374.602 221.184 374.327 220.63C373.131 218.224 371.953 215.807 370.722 213.415C370.288 212.572 369.731 211.796 369.23 210.988C367.025 210.812 364.855 211.253 362.679 211.468C361.507 211.584 360.325 211.613 359.158 211.796C357.662 212.029 356.149 212.159 354.642 212.322C352.744 212.523 350.846 212.727 348.945 212.904C346.987 213.087 345.008 212.95 343.057 213.281C342.926 213.302 342.715 213.211 342.637 213.101C342.471 212.872 342.672 212.678 342.814 212.516C344.366 210.738 345.897 208.935 347.491 207.196C350.61 203.795 353.771 200.433 356.904 197.046C357.704 196.179 358.452 195.265 359.257 194.397C359.62 194.002 359.768 193.533 359.902 193.046L358.389 189.338L358.382 189.342Z" fill="#8B8ADF"/>
<path d="M322.854 250.768C321.633 248.489 320.363 246.235 319.203 243.924C313.336 232.254 307.494 220.57 301.641 208.893C301.035 207.683 300.46 206.466 300.071 205.164C298.562 205.912 297.009 206.586 295.549 207.425C293.443 208.635 291.234 209.598 288.98 210.477C285.368 211.884 281.759 213.299 278.143 214.7C273.426 216.527 268.706 218.34 263.989 220.168C263.679 220.288 263.386 220.464 263.086 220.616C263.792 222.157 264.166 223.801 264.617 225.428C266.042 230.529 267.898 235.485 269.673 240.47C270.749 243.493 271.951 246.474 272.95 249.522C274.086 252.997 275.056 256.525 276.097 260.032C276.178 260.3 276.273 260.571 276.315 260.847C276.425 261.556 276.869 261.887 277.525 262.078C279.85 262.748 282.168 263.447 284.489 264.124C284.701 264.184 284.934 264.163 285.159 264.177C285.89 263.881 286.62 263.591 287.35 263.291C288.913 262.656 290.455 261.951 292.046 261.39C295.919 260.021 299.817 258.716 303.709 257.389C310.101 255.209 316.55 253.191 322.857 250.764L322.854 250.768Z" fill="#FFB88B"/>
<path d="M391.779 199.809C393.995 202.405 396.559 204.589 399.505 206.314C403.1 208.42 406.977 209.432 411.154 209.242C411.267 209.238 411.38 209.231 411.493 209.224C413.119 209.104 413.175 209.104 413.267 210.801C413.486 214.834 414.403 218.714 415.765 222.506C417.43 227.149 419.779 231.453 422.231 235.707C422.316 235.852 422.411 236 422.535 236.106C422.662 236.215 422.866 236.275 422.958 236.078C423.117 235.722 423.251 235.348 423.36 234.974C424.591 230.751 425.801 226.521 427.047 222.302C428.066 218.838 429.227 215.419 430.786 212.152C431.883 209.856 433.199 207.69 434.716 205.644C437.231 202.246 439.747 198.846 442.255 195.441C443.296 194.03 444.227 192.552 444.911 190.933C447.349 185.19 446.774 179.672 443.5 174.447C441.772 171.689 439.182 170.048 435.954 169.473C435.623 169.413 435.284 169.36 434.949 169.339C434.377 169.3 434.035 168.993 433.792 168.496C433.467 167.84 433.132 167.184 432.74 166.566C428.472 159.878 422.284 156.84 414.445 157.133C411.69 157.235 408.949 157.666 406.201 157.944C406.173 158.449 406.176 158.943 406.293 159.451C407.559 164.986 408.804 170.525 410.057 176.063C410.403 177.598 410.766 179.129 411.105 180.667C411.292 181.524 411.087 181.761 410.177 181.824C409.951 181.838 409.725 181.835 409.503 181.838C406.518 181.859 403.537 181.88 400.553 181.902C400.045 181.905 399.54 181.909 399.032 181.919C397.911 181.947 397.106 182.494 396.619 183.482C396.397 183.934 396.235 184.417 396.09 184.9C395.233 187.814 394.372 190.725 393.543 193.646C392.961 195.699 392.185 197.699 391.783 199.805L391.779 199.809ZM437.951 183.457C437.94 186.093 437.517 188.238 437.066 190.375C436.621 192.474 435.905 194.499 434.882 196.38C433.562 198.807 431.968 201.04 429.918 202.941C428.422 204.328 426.793 205.485 425.004 206.469C422.651 207.76 420.107 208.445 417.5 208.886C416.403 209.073 415.253 208.928 414.124 208.924C413.877 208.924 413.69 208.769 413.63 208.54C413.574 208.318 413.638 208.088 413.81 207.923C413.93 207.806 414.071 207.714 414.205 207.612C414.936 207.055 415.758 206.727 416.661 206.571C419.568 206.078 422.051 204.603 424.365 202.931C425.9 201.82 427.191 200.352 428.412 198.87C429.636 197.382 430.55 195.706 431.372 193.974C432.963 190.629 433.774 187.098 433.862 183.401C433.891 182.163 433.869 180.921 433.862 179.679C433.862 179.284 433.88 178.882 433.799 178.501C433.418 176.691 433.111 174.871 432.589 173.089C432.367 172.338 432.158 171.579 431.933 170.824C431.763 170.26 432.07 169.798 432.652 169.724C433.04 169.674 433.439 169.674 433.834 169.688C434.871 169.724 434.903 169.77 435.28 170.75C436.028 172.698 436.476 174.726 436.974 176.744C437.556 179.097 437.782 181.485 437.944 183.457H437.951Z" fill="#834515"/>
<path d="M391.78 199.809C392.178 197.703 392.955 195.703 393.54 193.649C394.369 190.728 395.23 187.814 396.087 184.904C396.228 184.421 396.394 183.934 396.616 183.486C397.103 182.498 397.908 181.951 399.029 181.923C399.537 181.909 400.042 181.909 400.55 181.905C403.534 181.884 406.515 181.863 409.5 181.842C409.726 181.842 409.951 181.842 410.174 181.828C411.087 181.764 411.288 181.528 411.101 180.671C410.766 179.133 410.403 177.601 410.054 176.067C408.801 170.528 407.556 164.99 406.29 159.455C406.173 158.947 406.17 158.456 406.198 157.948C404.998 158.029 403.915 158.502 402.853 158.996C400.55 160.065 398.147 160.46 395.629 160.224C394.729 160.139 393.872 159.874 393.004 159.631C391.057 159.084 389.102 158.566 387.151 158.04C385.934 157.712 384.689 157.807 383.458 157.874C382.54 157.923 381.796 158.714 381.74 159.659C381.669 160.837 381.616 162.026 381.913 163.187C382.054 163.744 382.121 164.305 382.05 164.859C381.874 166.238 381.44 167.449 380.113 168.225C379.14 168.793 378.138 169.301 377.132 169.802C376.071 170.331 375.069 170.948 374.116 171.65C372.839 172.592 372.349 173.848 372.765 175.333C372.945 175.979 373.213 176.607 373.499 177.217C374.099 178.49 374.748 179.739 375.358 181.006C375.75 181.821 376.067 182.653 376.042 183.588C376.018 184.435 375.725 185.123 375.009 185.595C374.585 185.874 374.176 186.188 373.714 186.386C369.625 188.143 365.738 190.305 361.744 192.263C361.339 192.461 360.943 192.676 360.534 192.863C360.333 192.954 360.107 192.997 359.896 193.064C359.762 193.554 359.617 194.023 359.254 194.415C358.453 195.283 357.705 196.196 356.901 197.064C353.768 200.451 350.607 203.813 347.488 207.214C345.894 208.953 344.363 210.756 342.811 212.534C342.669 212.696 342.468 212.89 342.634 213.119C342.712 213.229 342.923 213.32 343.054 213.299C345.005 212.968 346.984 213.105 348.942 212.922C350.843 212.745 352.741 212.541 354.639 212.34C356.146 212.177 357.659 212.047 359.155 211.814C360.323 211.631 361.504 211.602 362.676 211.486C364.852 211.271 367.018 210.826 369.227 211.006C370.426 210.392 371.622 209.778 372.821 209.165C378.515 206.254 384.206 203.344 389.899 200.437C390.492 200.133 391.057 199.731 391.78 199.819V199.809Z" fill="#FEB88C"/>
<path d="M374.917 222.372C373.968 222.355 373.223 222.728 372.493 223.356C368.909 226.443 365.265 229.463 361.666 232.539C357.945 235.725 354.255 238.953 350.547 242.16C349.94 242.685 349.457 243.292 349.22 244.075C349.506 245.059 349.545 246.068 349.531 247.088C349.421 255.533 349.728 263.982 349.298 272.428C349.175 274.844 349.224 277.272 349.192 279.692C351.161 280.358 353.115 281.075 355.101 281.681C356.826 282.207 358.509 282.807 360.132 283.607C363.166 285.103 366.073 286.811 368.891 288.673C370.92 290.014 372.715 291.616 374.179 293.584C375.449 295.295 376.864 296.9 377.986 298.72C377.972 296.244 378.053 293.775 377.76 291.295C377.545 289.457 377.707 287.573 377.63 285.714C377.295 277.6 377.517 269.475 377.217 261.368C376.984 255.11 377.168 248.852 376.906 242.601C376.794 239.909 376.822 237.196 376.381 234.518C376.353 234.353 376.356 234.18 376.346 234.014C376.208 231.767 376.088 229.516 375.933 227.269C375.859 226.203 375.629 225.156 375.626 224.08C375.626 223.445 375.178 222.937 374.913 222.379L374.917 222.372Z" fill="#FFB88B"/>
<path d="M382.636 336.584C382.247 338.087 382.498 339.6 382.551 341.11C382.576 341.841 382.688 342.571 382.692 343.301C382.731 348.378 382.748 353.454 382.787 358.531C382.794 359.599 382.826 360.665 382.974 361.734C383.105 362.676 383.069 363.646 382.946 364.602C382.868 365.216 382.815 365.837 382.808 366.454C382.763 371.643 382.731 376.833 382.692 382.022C382.685 382.752 382.671 383.483 382.558 384.213C382.463 384.82 382.431 385.462 382.516 386.068C382.812 388.15 382.759 390.238 382.667 392.316C382.501 396.084 382.427 399.862 381.796 403.594C381.757 403.817 381.732 404.043 381.672 404.258C381.531 404.797 381.284 404.921 380.678 404.812C379.069 404.515 377.443 404.378 375.806 404.371C370.786 404.346 365.766 404.364 360.746 404.318C359.373 404.307 358.05 404.448 356.777 404.967C355.853 406.72 355.189 408.551 354.949 410.541C354.815 411.659 354.628 412.77 354.699 413.899C354.854 416.376 355.172 418.827 356.064 421.166C356.632 422.655 357.514 423.964 358.513 425.192C359.013 425.809 359.641 426.282 360.361 426.641C361.624 427.273 362.908 427.827 364.305 428.12C366.397 428.554 368.464 429.097 370.563 429.481C373.604 430.035 376.652 430.579 379.715 430.967C383.8 431.482 387.92 431.538 392.034 431.379C394.669 431.281 396.927 430.226 398.821 428.37C400.454 426.772 400.715 424.885 400.123 422.772C399.745 421.431 398.913 420.351 398.122 419.265C396.154 416.563 393.759 414.248 391.197 412.118C389.25 410.498 387.183 409.027 385.176 407.482C385.101 407.426 385.066 407.299 385.052 407.2C385.031 407.062 385.119 406.999 385.267 407.002C386.449 407.027 387.645 406.956 388.813 407.105C389.712 407.218 390.601 407.285 391.504 407.299C393.589 407.327 395.685 407.246 397.759 407.408C399.671 407.56 401.58 407.567 403.492 407.637C404.857 407.687 406.183 407.401 407.528 407.292C408.406 407.221 409.147 406.787 409.517 405.919C410.05 404.67 410.442 403.376 410.494 402.011C410.547 400.733 410.149 400.162 408.963 399.679C405.838 398.398 402.702 397.139 399.583 395.847C398.179 395.265 396.789 394.648 395.403 394.024C393.554 393.191 391.713 392.341 389.871 391.491C389.515 391.328 389.176 391.131 388.827 390.954C387.871 390.471 387.529 389.684 387.437 388.63C387.193 385.889 386.837 383.158 386.541 380.42C386.403 379.136 386.407 377.842 386.206 376.554C385.945 374.892 386.012 373.178 385.736 371.516C385.433 369.675 385.624 367.798 385.193 365.978C385.154 365.815 385.158 365.643 385.147 365.473C385.013 363.508 384.911 361.543 384.738 359.582C384.6 358.016 384.371 356.456 384.195 354.893C384.149 354.502 384.131 354.107 384.121 353.712C384.075 351.852 383.853 350.011 383.525 348.18C383.503 348.071 383.479 347.958 383.472 347.845C383.345 345.936 383.161 344.028 383.112 342.119C383.066 340.26 382.801 338.426 382.636 336.577V336.584Z" fill="#FEB88C"/>
<path d="M102.374 382.661C101.527 382.432 100.91 381.85 100.293 381.278C97.8974 379.063 95.3256 377.062 92.7609 375.051C91.0817 373.732 89.4378 372.37 87.7656 371.044C86.9295 370.381 86.0511 369.77 85.208 369.118C83.9203 368.116 82.5233 367.481 80.8406 367.742C80.7841 367.749 80.703 367.735 80.6747 367.767C79.7081 368.853 78.6286 369.869 77.8102 371.058C76.4343 373.048 75.2914 375.182 74.3918 377.447C73.8661 378.777 73.7286 380.174 73.3758 381.532C73.2206 382.128 73.1535 382.749 73.0865 383.359C73.0441 383.747 73.023 384.153 73.0759 384.538C73.5134 387.6 74.2013 390.588 75.2808 393.512C76.4767 396.74 77.7537 399.922 79.3166 402.984C80.9005 406.092 82.5798 409.155 84.5236 412.051C86.3404 414.764 88.637 416.955 91.7132 418.239C93.5688 419.015 95.4244 419.068 97.3153 418.45C98.3207 418.122 99.0792 417.47 99.6366 416.577C100.173 415.72 100.723 414.866 101.249 414.002C101.99 412.785 102.445 411.448 102.727 410.065C102.999 408.745 103.189 407.408 103.376 406.075C103.436 405.634 103.475 405.147 103.355 404.731C103.044 403.676 103.126 402.607 103.111 401.542C103.09 399.961 103.101 398.384 103.083 396.804C103.073 395.904 103.14 394.998 102.833 394.123C102.78 393.967 102.787 393.788 102.783 393.618C102.713 390.186 102.191 386.767 102.452 383.324C102.469 383.105 102.406 382.88 102.378 382.657L102.374 382.661Z" fill="#FEB98C"/>
<path d="M243.592 294.276C244.728 293.651 245.221 292.441 246.072 291.552C246.957 290.624 247.687 289.548 248.495 288.543C249.864 286.839 251.19 285.1 252.633 283.459C253.822 282.108 254.919 280.694 256.031 279.286C256.412 278.803 256.754 278.284 257.057 277.748C257.195 277.501 257.11 277.201 256.895 276.972C256.669 276.732 256.401 276.707 256.133 276.855C255.149 277.395 254.14 277.9 253.201 278.51C252.538 278.94 251.847 279.311 251.145 279.663C248.075 281.198 245.165 283.004 242.195 284.708C240.491 285.685 238.804 286.691 237.118 287.703C236.254 288.225 235.404 288.772 234.564 289.333C234.141 289.615 233.746 289.954 233.823 290.557C235.679 291.302 237.531 292.042 239.386 292.787C240.364 293.178 241.344 293.57 242.315 293.976C242.727 294.149 243.133 294.325 243.595 294.276H243.592Z" fill="#494A45"/>
<path d="M261.936 220.658C262.155 220.778 262.359 220.757 262.55 220.591C262.328 220.46 262.123 220.467 261.936 220.658Z" fill="#FFB88B"/>
<path d="M348.278 279.582C348.172 279.427 348.024 279.374 347.841 279.413C347.95 279.565 348.084 279.642 348.278 279.582Z" fill="#C3B5B0"/>
<path d="M437.951 183.457C437.789 181.485 437.563 179.097 436.981 176.744C436.48 174.726 436.035 172.697 435.287 170.75C434.91 169.766 434.875 169.72 433.841 169.688C433.449 169.674 433.047 169.674 432.659 169.724C432.077 169.798 431.77 170.26 431.94 170.824C432.165 171.576 432.377 172.334 432.596 173.089C433.118 174.871 433.425 176.691 433.806 178.501C433.887 178.882 433.866 179.287 433.869 179.679C433.876 180.921 433.901 182.159 433.869 183.401C433.781 187.098 432.973 190.626 431.379 193.974C430.553 195.706 429.643 197.381 428.419 198.87C427.198 200.352 425.904 201.823 424.373 202.931C422.058 204.606 419.575 206.077 416.668 206.571C415.765 206.727 414.943 207.055 414.212 207.612C414.078 207.714 413.937 207.806 413.817 207.922C413.641 208.088 413.577 208.318 413.637 208.54C413.697 208.773 413.884 208.924 414.131 208.924C415.257 208.928 416.41 209.069 417.507 208.886C420.114 208.445 422.658 207.764 425.011 206.469C426.8 205.488 428.429 204.331 429.925 202.941C431.971 201.04 433.569 198.807 434.889 196.38C435.912 194.499 436.628 192.474 437.073 190.375C437.528 188.237 437.947 186.092 437.958 183.457H437.951Z" fill="#643408"/>
</svg>
