<svg width="500" height="500" viewBox="0 0 500 500" fill="none" xmlns="http://www.w3.org/2000/svg">
<path d="M219.381 416.054C219.841 415.254 220.022 414.365 220.267 413.488C220.797 411.583 221.406 409.701 221.987 407.811C223.499 402.916 225.029 398.026 226.518 393.124C227.448 390.066 228.287 386.98 229.223 383.926C230.071 381.164 230.989 378.42 231.887 375.674C233.573 370.518 235.037 365.295 236.459 360.063C237.005 358.05 237.716 356.119 238.71 354.274C240.437 351.058 242.066 347.791 243.746 344.546C245.635 340.895 248.899 328.408 250.778 324.756C252.61 321.194 254.401 317.61 256.243 314.053C258.367 309.955 260.526 305.875 262.675 301.792C264.447 298.426 266.234 295.064 268.012 291.701C268.295 290.72 268.362 289.717 268.317 288.698C268.196 285.863 268.098 283.027 267.993 280.192C267.955 279.128 267.949 278.068 267.806 277.008C267.631 275.696 267.939 274.379 267.927 273.067C267.895 269.216 267.758 265.368 267.657 261.52C267.647 261.218 267.558 260.92 267.533 260.618C267.39 258.954 267.273 257.288 267.114 255.624C267.041 254.843 267.368 254.405 268.082 254.128C269.451 253.598 270.803 253.02 272.162 252.462C276.331 250.744 280.503 249.029 284.668 247.305C291.222 244.594 297.778 241.882 304.325 239.146C305.1 238.822 305.865 238.663 306.69 238.771C306.7 237.25 307.008 235.755 306.973 234.227C306.903 231.145 306.297 228.185 305.103 225.353C303.487 221.524 301.74 217.752 299.858 214.047C297.356 209.123 294.686 204.287 291.749 199.604C289.383 195.829 286.939 192.105 284.332 188.495C282.614 186.12 280.801 183.815 279.033 181.475C277.356 179.255 275.693 177.03 274.016 174.814C272.28 172.515 270.54 170.219 268.79 167.93C266.736 165.238 264.663 162.555 262.615 159.859C260.84 157.526 259.091 155.17 257.316 152.836C254.988 149.775 252.648 146.724 250.308 143.673C249.8 143.01 249.55 142.251 249.404 141.441C249.099 139.746 248.769 138.053 248.473 136.358C247.4 130.236 245.616 124.331 243.098 118.645C241.742 115.581 240.183 112.622 238.412 109.783C236.345 106.475 234.084 103.316 231.522 100.36C229.29 97.7879 226.89 95.3876 224.385 93.1016C223.232 92.0507 222.041 91.0188 220.768 90.0885C219.339 89.044 218.019 87.8565 216.644 86.7357C215.348 85.6785 214.047 84.6307 212.751 83.5766C212.32 83.2274 211.885 82.8781 211.459 82.5193C211.227 82.3225 211.034 82.0748 210.786 81.9066C208.392 80.2778 206.344 78.2172 204.007 76.5122C202.331 75.2898 200.788 73.8928 199.185 72.5689C199.067 72.4736 198.943 72.3688 198.87 72.245C198.026 70.8385 196.66 70.0479 195.305 69.251C194.543 69.3177 193.984 69.7082 193.577 70.3368C193.301 70.7591 193.015 71.175 192.749 71.6037C189.723 76.4424 186.891 81.3986 183.983 86.3071C183.576 86.9961 183.265 87.7517 182.694 88.3359C182.433 89.5361 183.097 90.5013 183.573 91.4824C183.967 92.2984 184.51 93.0476 185.037 93.7906C189.939 100.699 194.867 107.589 199.759 114.504C202.185 117.933 204.582 121.388 206.944 124.864C209.386 128.462 211.767 132.1 214.18 135.717C215.19 137.231 216.234 138.72 217.228 140.244C217.641 140.879 218.015 141.552 218.301 142.251C220.409 147.41 222.486 152.582 224.585 157.748C226.702 162.961 228.845 168.162 230.954 173.378C233.84 180.519 236.758 187.65 239.494 194.851C241.838 201.007 244.285 207.126 246.686 213.263C247.276 214.774 247.864 216.286 248.454 217.797C248.6 218.175 248.759 218.521 249.083 218.81C249.75 219.413 250.054 220.203 250.051 221.105C250.359 221.143 250.661 221.2 250.836 221.496C251.197 222.105 251.594 222.696 251.906 223.331C253.623 226.833 255.322 230.348 257.027 233.859C257.071 233.951 257.113 234.043 257.154 234.135C258.275 236.574 259.395 239.012 260.522 241.447C261.31 243.149 262.11 244.842 262.901 246.54C262.964 246.677 263.037 246.816 263.069 246.962C263.116 247.169 263.088 247.401 262.888 247.493C262.72 247.569 262.485 247.604 262.313 247.547C262.142 247.493 261.98 247.328 261.869 247.172C261.373 246.47 260.888 245.756 260.415 245.038C256.344 238.869 252.131 232.799 248.245 226.509C247.762 225.728 247.568 224.95 247.562 224.077C246.845 225.347 246.051 226.582 245.425 227.897C244.009 230.872 242.568 233.834 241.301 236.879C239.84 240.387 238.412 243.908 237.129 247.486C235.145 253.02 233.398 258.631 231.947 264.323C231.023 267.952 230.233 271.616 229.423 275.274C228.21 280.76 227.029 286.253 225.848 291.746C225.159 294.959 224.508 298.182 223.823 301.398C223.083 304.862 222.311 308.319 221.568 311.783C220.984 314.504 219.066 326.077 218.489 328.801C218.32 329.595 218.149 330.386 217.949 331.173C217.796 331.767 217.527 332.3 217.13 332.786C215.625 334.631 214.142 336.494 212.65 338.352C210.294 341.282 208.236 344.413 206.354 347.667C202.874 353.674 200.343 360.063 198.686 366.797C197.981 369.654 197.451 372.534 197.124 375.461C196.864 377.779 196.718 380.097 196.559 382.418C196.454 383.935 196.8 385.453 196.457 386.958C196.727 388.368 196.549 389.796 196.651 391.209C196.759 392.727 196.54 394.257 196.848 395.765C196.746 399.058 197.076 402.347 196.997 405.64C196.962 407.059 196.784 408.478 196.371 409.84C196.044 410.91 195.749 411.98 195.533 413.079C195.638 413.869 196.181 414.18 196.889 414.26C198.797 414.473 200.705 414.689 202.617 414.866C204.277 415.022 205.947 415.085 207.605 415.263C209.916 415.508 212.227 415.758 214.552 415.851C214.802 415.86 215.056 415.879 215.307 415.92C216.663 416.146 218.025 416.165 219.39 416.07L219.381 416.054Z" fill="#6A6D66"/>
<path d="M316.384 347.62C316.669 346.531 317.139 345.553 317.857 344.655C319.413 342.712 320.743 340.61 321.908 338.413C323.556 335.304 324.82 332.041 325.229 328.529C325.423 326.878 325.413 325.205 325.023 323.538C324.407 320.915 323.632 318.356 322.581 315.877C322.267 315.131 322.013 314.359 321.762 313.591C320.854 310.793 319.819 308.05 318.568 305.386C317.578 303.278 316.625 301.151 315.653 299.033C314.968 299.376 314.244 299.563 313.485 299.678C309.846 300.227 306.382 301.322 303.166 303.126C299.013 305.453 295.87 308.723 294.028 313.162C292.165 317.658 291.933 322.325 292.847 327.037C293.2 328.85 293.355 330.634 293.343 332.463C293.336 333.231 293.26 333.974 292.978 334.692C293.016 335.019 292.87 335.266 292.689 335.527C291.819 336.771 291.015 338.06 290.098 339.267C288.78 340.997 287.405 342.674 285.85 344.214C283.614 346.427 281.141 348.382 279.014 350.703C278.912 350.814 278.798 350.919 278.677 351.011C277.01 352.256 275.499 353.688 274.035 355.142C271.696 357.466 269.194 359.612 266.866 361.946C266.758 362.054 266.657 362.175 266.53 362.251C265.082 363.124 264.145 364.581 262.739 365.518C262.126 365.927 261.609 366.521 261.212 367.194C260.986 367.578 260.627 367.893 260.294 368.204C258.853 369.553 257.624 371.128 255.976 372.258C255.697 372.452 255.414 372.754 255.309 373.065C255.043 373.859 254.541 374.478 254.03 375.106C253.865 375.306 253.725 375.519 253.722 375.786C253.715 376.249 253.509 376.681 253.471 377.122C253.398 377.926 253.3 378.78 253.493 379.542C253.852 380.961 254.414 382.352 255.211 383.574C256.313 385.266 257.506 386.898 258.976 388.321C260.91 390.191 262.79 392.118 264.695 394.02C264.98 394.306 265.247 394.629 265.577 394.858C267.568 396.249 269.444 397.785 271.486 399.109C273.394 400.348 275.29 401.627 277.036 403.075C278.747 404.491 280.22 406.186 281.922 407.634C283.656 409.107 285.046 410.965 286.92 412.295C289.295 414.87 292.073 417.026 294.495 419.553C294.81 419.883 295.111 420.255 295.489 420.49C296.629 421.201 297.451 422.246 298.385 423.173C299.07 423.855 298.908 424.497 298.048 424.992C296.997 425.598 295.949 426.214 294.902 426.827C292.936 427.98 291 429.183 288.999 430.263C287.993 430.806 287.463 431.66 287.291 432.644C287.072 433.927 286.729 435.225 286.945 436.555C287.231 436.762 287.532 436.952 287.805 437.178C288.682 437.911 289.698 438.172 290.793 437.943C291.701 437.752 292.606 437.778 293.517 437.733C297.416 437.546 301.312 437.362 305.217 437.413C305.519 437.416 305.84 437.416 306.122 437.33C306.627 437.178 307.103 437.26 307.611 437.311C308.564 437.41 309.551 437.473 310.491 437.33C311.707 437.143 312.917 437.089 314.126 437.136C316.527 437.238 318.87 436.822 321.216 436.444C321.661 436.371 322.096 436.203 322.524 436.054C323.886 435.578 324.67 434.59 325.007 433.209C325.188 432.469 325.315 431.726 325.299 430.958C325.286 430.351 325.255 429.739 325.464 429.148C325.569 428.85 325.509 428.558 325.452 428.253C324.956 425.665 324.242 424.497 322.099 422.881C320.483 421.658 318.835 420.474 317.244 419.223C316.092 418.318 314.949 417.382 313.898 416.362C311.897 414.422 309.967 412.41 308.068 410.365C305.754 407.876 303.296 405.523 300.921 403.091C297.873 399.973 294.844 396.833 291.816 393.699C291.571 393.448 291.384 393.144 291.171 392.864C290.72 392.467 290.241 392.099 289.822 391.67C287.132 388.914 284.456 386.146 281.776 383.384C281.636 383.238 281.497 383.091 281.357 382.942C281.106 382.679 281.097 382.415 281.348 382.145C281.935 381.517 282.513 380.879 283.113 380.259C286.926 376.335 290.742 372.414 294.562 368.496C295.905 367.118 297.299 365.791 298.693 364.464C300.525 362.717 302.252 360.86 304.027 359.054C305.16 357.898 306.259 356.714 307.522 355.682C308.738 354.691 309.697 353.431 310.754 352.269C312.148 350.732 313.698 349.338 315.152 347.855C315.539 347.458 315.933 347.458 316.39 347.611L316.384 347.62Z" fill="#F7BB92"/>
<path d="M306.693 238.769C305.867 238.661 305.102 238.819 304.327 239.143C297.784 241.877 291.227 244.588 284.671 247.303C280.505 249.027 276.333 250.741 272.165 252.459C270.806 253.018 269.453 253.596 268.085 254.126C267.37 254.402 267.043 254.844 267.116 255.621C267.275 257.285 267.393 258.952 267.535 260.616C267.561 260.917 267.65 261.216 267.659 261.517C267.761 265.366 267.897 269.217 267.929 273.065C267.942 274.373 267.631 275.691 267.809 277.005C267.951 278.066 267.955 279.126 267.996 280.19C268.101 283.025 268.199 285.86 268.32 288.696C268.364 289.715 268.297 290.715 268.015 291.699C268.494 292.315 268.634 293.029 268.637 293.791C268.64 294.941 268.567 296.081 268.215 297.182C268.043 297.719 267.986 298.249 268.075 298.798C268.634 297.995 269.367 297.411 270.272 297.03C270.739 296.833 271.177 296.573 271.634 296.354C278.578 293.029 285.519 289.692 292.472 286.384C298.647 283.447 304.842 280.545 311.024 277.618C311.579 277.354 312.122 277.097 312.754 277.138C312.395 275.154 312.008 273.176 311.865 271.16C311.849 270.96 311.824 270.757 311.766 270.563C311.287 268.903 311.233 267.178 310.966 265.486C310.887 264.988 310.763 264.496 310.687 263.997C310.443 262.403 310.198 260.809 310.011 259.206C309.776 257.206 309.382 255.221 309.049 253.234C308.849 252.04 308.569 250.859 308.515 249.64C308.499 249.294 308.372 248.951 308.315 248.605C308.172 247.76 307.909 246.935 307.922 246.062C307.925 245.763 307.852 245.461 307.779 245.169C307.366 243.496 307.036 241.81 307.017 240.08C307.01 239.619 306.969 239.169 306.699 238.772L306.693 238.769Z" fill="#F6BB92"/>
<path d="M312.752 277.138C312.12 277.1 311.577 277.357 311.021 277.617C304.84 280.545 298.648 283.447 292.47 286.384C285.517 289.692 278.576 293.026 271.632 296.353C271.175 296.572 270.737 296.833 270.27 297.029C269.365 297.41 268.632 297.995 268.073 298.798C267.238 300.366 266.581 302.014 266.035 303.7C265.39 305.694 265.251 307.761 265.295 309.85C265.406 314.987 267.283 319.394 270.689 323.207C272.369 325.09 274.404 326.481 276.585 327.662C279.173 329.062 281.935 330.1 284.618 331.3C285.913 331.881 287.225 332.424 288.526 332.983C289.616 333.501 290.705 334.018 291.794 334.542C292.175 334.726 292.568 334.755 292.978 334.688C293.26 333.971 293.34 333.228 293.343 332.459C293.356 330.634 293.2 328.846 292.848 327.033C291.933 322.322 292.165 317.654 294.029 313.158C295.87 308.723 299.01 305.453 303.166 303.122C306.383 301.319 309.847 300.227 313.485 299.674C314.244 299.56 314.968 299.369 315.654 299.03C315.765 298.474 315.701 297.925 315.628 297.372C314.974 292.257 314.336 287.139 313.676 282.028C313.501 280.675 313.288 279.326 313.066 277.979C313.018 277.69 312.857 277.421 312.749 277.141L312.752 277.138Z" fill="#8A8AD9"/>
<path d="M316.384 347.62C315.924 347.468 315.533 347.468 315.146 347.865C313.692 349.347 312.143 350.741 310.749 352.278C309.695 353.44 308.733 354.7 307.517 355.691C306.253 356.723 305.154 357.907 304.021 359.063C302.246 360.869 300.522 362.73 298.687 364.473C297.293 365.8 295.899 367.124 294.556 368.505C290.737 372.423 286.92 376.344 283.107 380.269C282.507 380.885 281.929 381.526 281.342 382.155C281.091 382.425 281.101 382.688 281.351 382.952C281.491 383.098 281.631 383.247 281.77 383.393C284.45 386.158 287.127 388.924 289.816 391.68C290.235 392.108 290.714 392.477 291.165 392.874C291.705 393.01 292.248 393.128 292.778 393.293C295.229 394.042 297.731 394.312 300.287 394.21C301.16 394.175 301.989 393.953 302.821 393.728C303.602 393.518 304.367 393.239 305.145 393.013C308.809 391.953 311.816 389.892 314.311 387.041C314.778 386.508 315.286 386.009 315.791 385.511C316.657 384.657 317.534 383.812 318.283 382.85C318.232 382.764 318.191 382.669 318.131 382.59C317.264 381.52 317.057 381.018 318.27 379.716C318.34 379.643 318.41 379.57 318.483 379.5C319.312 378.738 319.89 377.799 320.423 376.821C321.302 375.211 321.849 373.477 322.341 371.734C323.011 369.363 323.538 366.959 323.48 364.467C323.461 363.657 323.442 362.848 323.487 362.041C323.56 360.657 323.35 359.317 322.849 358.044C322.509 357.183 322.503 356.383 322.884 355.561C322.75 355.421 322.569 355.301 322.49 355.135C321.029 352.164 318.959 349.69 316.384 347.623V347.62Z" fill="#7A4821"/>
<path d="M219.381 416.054C218.015 416.15 216.653 416.131 215.298 415.905C215.05 415.864 214.796 415.845 214.542 415.835C212.218 415.743 209.91 415.492 207.595 415.248C205.938 415.073 204.268 415.007 202.607 414.851C200.696 414.673 198.788 414.46 196.879 414.245C196.168 414.165 195.628 413.857 195.524 413.063C194.539 415.102 193.565 417.147 192.565 419.175C192.12 420.077 191.587 420.937 191.152 421.846C190.625 422.941 190.063 424.03 189.688 425.179C189.215 426.633 189.174 428.129 189.466 429.672C189.748 431.161 190.358 432.46 191.177 433.682C192.838 436.162 195.257 437.371 198.153 437.714C199.708 437.898 201.264 438.114 202.839 438.051C204.052 438.486 205.366 438.168 206.589 438.552C206.779 438.613 206.992 438.625 207.192 438.613C208.973 438.489 210.741 438.771 212.481 439.006C214.288 439.251 216.129 439.032 217.911 439.508C218.244 439.597 218.619 439.533 218.971 439.546C219.73 439.572 220.495 439.489 221.225 439.784C221.317 439.822 221.425 439.835 221.524 439.829C223.203 439.711 224.842 440.14 226.515 440.191C228.175 440.238 229.83 440.489 231.484 440.673C233.481 440.896 235.446 440.807 237.231 439.791C239.774 438.343 241.164 436.114 240.996 433.18C240.856 430.745 239.748 428.735 237.545 427.446C236.85 427.04 236.23 426.503 235.551 426.068C232.827 424.322 230.093 422.588 227.366 420.849C226.769 420.468 226.169 420.093 225.594 419.687C224.978 419.248 224.346 418.851 223.676 418.486C222.749 417.982 221.905 417.321 221.038 416.712C220.53 416.353 219.997 416.086 219.365 416.054H219.381Z" fill="#F7BC94"/>
<path d="M318.752 382.971C320.4 384.962 322.038 386.965 323.699 388.946C327.68 393.69 331.674 398.421 335.659 403.161C337.259 405.066 338.84 406.984 340.437 408.889C340.698 409.2 340.964 409.514 341.275 409.765C341.825 410.206 342.45 410.346 343.127 410.041C343.311 409.959 343.482 409.819 343.676 409.784C345.022 409.539 345.46 408.59 345.597 407.384C345.822 405.367 346.092 403.354 346.279 401.332C346.752 396.22 346.829 391.096 346.613 385.968C346.381 380.428 345.647 374.954 344.171 369.595C343.428 366.899 342.479 364.28 341.18 361.797C340.425 360.355 339.555 358.987 338.516 357.73C337.637 356.666 336.653 355.717 335.507 354.948C332.766 353.113 329.817 352.624 326.655 353.637C325.597 353.977 324.55 354.367 323.686 355.11C323.94 355.123 324.194 355.161 324.445 355.148C325.146 355.113 325.588 355.479 325.899 356.056C325.994 356.234 326.096 356.415 326.156 356.609C326.683 358.301 327.09 360.022 327.121 361.797C327.153 363.413 327.058 365.016 326.893 366.636C326.715 368.353 326.375 370.02 326.023 371.693C325.635 373.532 324.918 375.256 324.194 376.989C323.4 378.891 322.362 380.567 320.886 382.012C320.26 382.622 319.603 382.958 318.755 382.974L318.752 382.971Z" fill="#7A4821"/>
<path d="M182.694 88.3208C183.268 87.7366 183.576 86.9809 183.983 86.292C186.894 81.3834 189.723 76.4272 192.749 71.5885C193.016 71.1599 193.304 70.7439 193.577 70.3217C193.987 69.693 194.546 69.3025 195.305 69.2358C195.244 68.8326 195.168 68.423 195.4 68.0484C195.721 67.5372 195.648 67.0197 195.565 66.4482C195.178 63.8351 193.898 61.6793 192.152 59.7902C190.809 58.336 189.263 57.1041 187.561 56.0659C186.831 55.6182 186.164 55.0626 185.481 54.5387C183.954 53.364 182.322 52.3416 180.728 51.2653C179.468 50.4176 178.245 49.5127 177.045 48.5824C174.439 46.5631 171.702 44.7152 168.892 43.0071C166.793 41.7307 164.65 40.4131 162.139 39.9686C161.637 39.8797 161.148 39.7876 160.64 39.7876C159.624 39.7908 158.611 39.794 157.595 39.7876C155.919 39.7813 154.817 40.5242 153.944 42.0133C153.074 43.4929 153.153 44.8264 153.645 46.3377C154.414 48.6967 155.725 50.7128 157.297 52.5924C158.887 54.4974 160.472 56.4056 162.021 58.3424C162.494 58.9329 162.828 59.6283 163.259 60.2537C164.752 62.4254 166.285 64.5654 167.746 66.7561C169.009 68.6516 170.146 70.636 171.432 72.5156C174.839 77.4908 178.293 82.4343 181.738 87.3842C181.989 87.7461 182.17 88.2097 182.684 88.3176L182.694 88.3208Z" fill="#F7BB93"/>
<path d="M292.978 334.689C292.568 334.756 292.174 334.727 291.793 334.543C290.708 334.019 289.615 333.505 288.526 332.984C288.52 333.571 288.26 334.051 287.879 334.47C285.986 336.556 284.243 338.775 282.253 340.775C281.437 341.594 280.611 342.404 279.716 343.147C278.595 344.077 277.519 345.074 276.652 346.262C277.211 346.341 277.744 346.306 278.287 346.09C279.081 345.779 279.925 345.608 280.662 345.122C281.414 344.627 282.405 344.731 283.17 344.195C283.37 344.055 283.757 343.792 283.989 344.093C284.221 344.398 283.859 344.623 283.665 344.836C283.462 345.062 283.218 345.252 283.027 345.487C282.284 346.398 281.217 346.941 280.424 347.792C278.455 349.9 276.239 351.745 274.159 353.733C273.978 353.907 273.791 354.114 273.569 354.196C273.197 354.329 272.943 354.93 272.537 354.669C272.067 354.368 272.385 353.866 272.505 353.44C272.559 353.25 272.585 353.044 272.588 352.844C272.591 351.904 272.947 351.069 273.375 350.262C273.563 349.907 273.82 349.586 274.001 349.227C274.105 349.024 273.963 348.849 273.782 348.729C272.461 349.434 271.505 350.589 270.422 351.57C269.749 352.18 269.086 352.799 268.39 353.386C267.076 354.501 265.739 355.596 264.479 356.771C263.139 358.019 261.675 359.111 260.285 360.292C257.649 362.53 255.227 364.982 253.023 367.645C251.763 369.169 250.591 370.766 249.521 372.43C248.121 374.611 247.658 377.005 248.013 379.555C248.083 380.057 248.162 380.552 248.21 381.057C248.324 382.247 248.747 383.336 249.509 384.254C250.741 385.737 252.014 387.184 253.277 388.639C254.043 389.518 254.789 390.423 255.605 391.252C257.602 393.28 259.818 395.062 262.088 396.773C264.93 398.913 267.657 401.177 270.159 403.713C273.156 406.749 276.198 409.74 279.236 412.734C281.694 415.156 284.18 417.553 286.653 419.96C286.872 420.173 287.091 420.382 287.304 420.601C288.06 421.395 288.126 422.497 287.434 423.335C286.615 424.322 285.599 425.072 284.5 425.732C282.849 426.726 281.17 427.678 279.652 428.879C279.373 429.098 279.106 429.333 278.83 429.555C278.408 429.895 278.189 430.358 278.16 430.876C278.1 431.99 278.093 433.108 278.065 434.225C278.052 434.679 278.271 434.99 278.636 435.229C279.414 435.74 280.284 436.016 281.186 436.178C283.091 436.518 285.015 436.619 286.948 436.556C286.732 435.225 287.075 433.927 287.294 432.644C287.463 431.657 287.993 430.806 289.003 430.263C291.006 429.183 292.943 427.977 294.905 426.828C295.953 426.215 297 425.599 298.051 424.992C298.915 424.494 299.074 423.853 298.388 423.173C297.458 422.246 296.632 421.201 295.492 420.49C295.114 420.252 294.813 419.881 294.499 419.554C292.076 417.026 289.298 414.874 286.923 412.296C285.047 410.962 283.659 409.108 281.926 407.635C280.221 406.187 278.75 404.495 277.039 403.075C275.293 401.628 273.394 400.348 271.489 399.11C269.448 397.786 267.571 396.246 265.581 394.858C265.25 394.63 264.987 394.309 264.698 394.02C262.793 392.118 260.913 390.191 258.98 388.321C257.513 386.902 256.316 385.267 255.214 383.574C254.417 382.349 253.855 380.958 253.497 379.542C253.303 378.78 253.398 377.926 253.474 377.123C253.516 376.681 253.722 376.25 253.725 375.786C253.728 375.519 253.868 375.31 254.033 375.107C254.544 374.481 255.049 373.862 255.313 373.065C255.417 372.754 255.7 372.449 255.979 372.259C257.63 371.125 258.859 369.554 260.297 368.204C260.631 367.893 260.99 367.579 261.215 367.195C261.612 366.521 262.129 365.925 262.742 365.518C264.145 364.578 265.085 363.124 266.533 362.251C266.66 362.175 266.765 362.051 266.87 361.946C269.197 359.613 271.699 357.47 274.039 355.142C275.502 353.688 277.014 352.256 278.681 351.012C278.801 350.919 278.916 350.818 279.017 350.704C281.144 348.379 283.618 346.424 285.853 344.214C287.409 342.674 288.784 340.998 290.101 339.267C291.019 338.061 291.825 336.772 292.692 335.527C292.873 335.267 293.022 335.019 292.981 334.692L292.978 334.689Z" fill="#DEA882"/>
<path d="M318.752 382.971C319.6 382.955 320.26 382.618 320.882 382.009C322.359 380.567 323.397 378.891 324.191 376.986C324.914 375.252 325.632 373.528 326.019 371.69C326.372 370.017 326.715 368.35 326.889 366.632C327.054 365.013 327.15 363.409 327.118 361.793C327.083 360.019 326.68 358.295 326.153 356.605C326.092 356.415 325.994 356.231 325.896 356.053C325.584 355.475 325.143 355.11 324.441 355.145C324.191 355.158 323.937 355.123 323.683 355.107C323.587 355.088 323.518 355.12 323.473 355.212C323.413 355.361 323.302 355.44 323.143 355.45C323.038 355.44 322.949 355.475 322.879 355.555C322.501 356.377 322.508 357.177 322.844 358.037C323.346 359.314 323.556 360.654 323.483 362.035C323.438 362.841 323.46 363.651 323.476 364.46C323.533 366.953 323.003 369.356 322.336 371.728C321.844 373.471 321.298 375.205 320.419 376.814C319.882 377.795 319.307 378.732 318.479 379.494C318.406 379.564 318.333 379.634 318.266 379.71C317.053 381.012 317.26 381.513 318.126 382.583C318.19 382.66 318.228 382.755 318.279 382.844C318.437 382.885 318.593 382.929 318.752 382.971Z" fill="#5C3717"/>
<path d="M247.562 224.065C247.568 224.938 247.762 225.716 248.245 226.497C252.134 232.783 256.347 238.857 260.415 245.026C260.888 245.744 261.373 246.455 261.869 247.16C261.98 247.315 262.142 247.48 262.313 247.534C262.485 247.588 262.72 247.556 262.888 247.48C263.088 247.388 263.116 247.156 263.069 246.95C263.034 246.804 262.964 246.664 262.901 246.528C262.107 244.829 261.31 243.134 260.522 241.435C259.395 239 258.278 236.561 257.154 234.123C257.113 234.031 257.071 233.939 257.027 233.847C255.322 230.335 253.626 226.824 251.906 223.318C251.594 222.683 251.197 222.093 250.836 221.483C250.661 221.188 250.359 221.131 250.051 221.093C249.048 221.941 248.156 222.877 247.562 224.065Z" fill="#464843"/>
<path d="M273.778 348.725C273.959 348.846 274.102 349.02 273.997 349.224C273.816 349.582 273.559 349.903 273.372 350.259C272.943 351.065 272.588 351.9 272.585 352.84C272.585 353.04 272.559 353.246 272.502 353.437C272.378 353.859 272.064 354.364 272.534 354.666C272.94 354.926 273.194 354.326 273.566 354.192C273.791 354.113 273.975 353.904 274.156 353.729C276.236 351.741 278.452 349.897 280.42 347.788C281.214 346.941 282.281 346.398 283.024 345.483C283.214 345.249 283.459 345.058 283.662 344.833C283.853 344.62 284.218 344.398 283.986 344.09C283.757 343.785 283.367 344.048 283.167 344.191C282.402 344.728 281.411 344.623 280.659 345.118C279.922 345.604 279.081 345.772 278.284 346.087C277.741 346.299 277.207 346.338 276.649 346.258C275.68 347.068 274.626 347.779 273.775 348.722L273.778 348.725Z" fill="#F4B991"/>
<path d="M323.146 355.453C323.308 355.443 323.419 355.364 323.477 355.215C323.299 355.199 323.197 355.291 323.146 355.453Z" fill="#7A4821"/>
</svg>
