<svg width="500" height="500" viewBox="0 0 500 500" fill="none" xmlns="http://www.w3.org/2000/svg">
<path d="M220.561 385.492C221.004 384.723 221.178 383.868 221.413 383.026C221.923 381.194 222.509 379.384 223.067 377.568C224.52 372.861 225.992 368.159 227.424 363.446C228.318 360.506 229.124 357.539 230.024 354.603C230.839 351.947 231.722 349.309 232.586 346.669C234.207 341.711 235.614 336.69 236.981 331.659C237.506 329.724 238.19 327.868 239.146 326.094C240.806 323.002 242.372 319.86 243.987 316.741C245.804 313.23 248.942 301.224 250.749 297.713C252.51 294.288 254.232 290.842 256.002 287.423C258.045 283.482 260.12 279.559 262.187 275.634C263.89 272.398 265.609 269.165 267.319 265.932C267.59 264.989 267.654 264.024 267.612 263.045C267.496 260.319 267.401 257.593 267.3 254.867C267.264 253.844 267.258 252.824 267.12 251.805C266.952 250.544 267.248 249.277 267.236 248.016C267.206 244.314 267.074 240.614 266.977 236.914C266.968 236.624 266.882 236.337 266.858 236.047C266.72 234.447 266.607 232.845 266.455 231.245C266.384 230.494 266.699 230.073 267.386 229.807C268.701 229.298 270.002 228.742 271.308 228.205C275.317 226.553 279.328 224.905 283.333 223.247C289.633 220.64 295.937 218.033 302.232 215.402C302.977 215.091 303.712 214.938 304.506 215.042C304.515 213.579 304.811 212.142 304.778 210.673C304.71 207.709 304.127 204.864 302.98 202.141C301.426 198.46 299.747 194.833 297.937 191.271C295.531 186.536 292.964 181.887 290.14 177.384C287.866 173.755 285.515 170.174 283.009 166.703C281.358 164.42 279.615 162.203 277.914 159.954C276.303 157.82 274.703 155.68 273.091 153.549C271.421 151.339 269.748 149.132 268.066 146.931C266.091 144.342 264.098 141.763 262.129 139.171C260.423 136.927 258.741 134.662 257.034 132.419C254.797 129.476 252.547 126.542 250.297 123.609C249.809 122.971 249.567 122.241 249.427 121.463C249.134 119.833 248.816 118.206 248.533 116.575C247.501 110.69 245.785 105.012 243.364 99.5447C242.061 96.5989 240.562 93.7539 238.859 91.0248C236.871 87.8439 234.698 84.8065 232.234 81.9645C230.088 79.4919 227.781 77.1841 225.372 74.9862C224.264 73.9758 223.119 72.9836 221.895 72.0892C220.521 71.0849 219.252 69.9432 217.93 68.8656C216.684 67.8491 215.433 66.8417 214.187 65.8282C213.772 65.4924 213.354 65.1567 212.945 64.8117C212.722 64.6224 212.536 64.3843 212.298 64.2225C209.996 62.6565 208.027 60.6754 205.78 59.0361C204.168 57.8608 202.685 56.5177 201.143 55.2447C201.03 55.1531 200.911 55.0524 200.841 54.9333C200.029 53.581 198.716 52.8209 197.413 52.0547C196.68 52.1188 196.143 52.4943 195.752 53.0987C195.487 53.5047 195.212 53.9046 194.956 54.3167C192.046 58.9689 189.323 63.7341 186.527 68.4535C186.136 69.1159 185.837 69.8425 185.288 70.4042C185.038 71.5581 185.675 72.4861 186.133 73.4293C186.512 74.2139 187.034 74.9343 187.541 75.6486C192.254 82.2912 196.992 88.9154 201.696 95.5641C204.028 98.8609 206.333 102.182 208.604 105.525C210.951 108.984 213.241 112.482 215.561 115.959C216.532 117.415 217.536 118.847 218.491 120.312C218.888 120.922 219.249 121.57 219.523 122.241C221.55 127.202 223.547 132.174 225.564 137.141C227.601 142.154 229.661 147.154 231.688 152.169C234.463 159.035 237.268 165.891 239.9 172.814C242.153 178.733 244.506 184.616 246.814 190.517C247.382 191.97 247.946 193.423 248.514 194.876C248.655 195.239 248.807 195.572 249.119 195.85C249.76 196.43 250.053 197.19 250.05 198.057C250.346 198.093 250.636 198.148 250.804 198.432C251.152 199.018 251.533 199.586 251.832 200.197C253.484 203.564 255.117 206.943 256.756 210.319C256.799 210.408 256.839 210.496 256.879 210.585C257.956 212.929 259.034 215.274 260.117 217.615C260.874 219.251 261.644 220.878 262.404 222.512C262.465 222.643 262.535 222.777 262.566 222.917C262.611 223.116 262.584 223.339 262.392 223.427C262.23 223.501 262.004 223.534 261.839 223.479C261.674 223.427 261.519 223.269 261.412 223.119C260.935 222.444 260.468 221.757 260.014 221.068C256.1 215.136 252.049 209.3 248.313 203.252C247.849 202.501 247.663 201.753 247.656 200.914C246.967 202.135 246.203 203.323 245.602 204.586C244.241 207.447 242.855 210.295 241.637 213.222C240.232 216.595 238.859 219.981 237.625 223.421C235.718 228.742 234.039 234.136 232.644 239.609C231.755 243.099 230.995 246.621 230.217 250.138C229.051 255.413 227.915 260.694 226.779 265.975C226.117 269.064 225.491 272.163 224.832 275.255C224.121 278.586 223.379 281.91 222.664 285.24C222.103 287.856 220.259 298.983 219.703 301.603C219.542 302.366 219.377 303.126 219.184 303.883C219.038 304.454 218.778 304.967 218.397 305.434C216.95 307.207 215.524 308.999 214.09 310.785C211.824 313.603 209.846 316.612 208.036 319.741C204.69 325.517 202.257 331.659 200.664 338.134C199.986 340.881 199.477 343.65 199.162 346.464C198.912 348.693 198.771 350.921 198.619 353.153C198.518 354.612 198.851 356.071 198.521 357.518C198.781 358.873 198.61 360.247 198.707 361.605C198.811 363.065 198.6 364.536 198.897 365.986C198.799 369.152 199.116 372.314 199.04 375.48C199.006 376.844 198.835 378.209 198.439 379.518C198.124 380.547 197.84 381.576 197.633 382.632C197.733 383.392 198.255 383.691 198.936 383.768C200.771 383.972 202.605 384.18 204.443 384.351C206.04 384.5 207.645 384.561 209.239 384.732C211.461 384.967 213.684 385.208 215.918 385.297C216.159 385.306 216.403 385.325 216.645 385.364C217.948 385.581 219.258 385.599 220.57 385.508L220.561 385.492Z" fill="#6A6D66"/>
<path d="M313.826 319.696C314.1 318.649 314.552 317.709 315.242 316.845C316.738 314.977 318.017 312.956 319.137 310.843C320.722 307.855 321.937 304.717 322.33 301.341C322.517 299.753 322.507 298.144 322.132 296.542C321.54 294.02 320.795 291.56 319.784 289.176C319.482 288.458 319.238 287.717 318.997 286.978C318.124 284.288 317.129 281.651 315.926 279.09C314.974 277.063 314.058 275.018 313.124 272.981C312.464 273.311 311.768 273.491 311.039 273.601C307.54 274.129 304.21 275.182 301.118 276.916C297.125 279.154 294.103 282.298 292.332 286.566C290.54 290.888 290.317 295.376 291.196 299.906C291.535 301.649 291.685 303.364 291.673 305.123C291.667 305.862 291.593 306.576 291.322 307.266C291.358 307.58 291.218 307.818 291.044 308.069C290.207 309.265 289.435 310.505 288.553 311.665C287.286 313.328 285.964 314.94 284.468 316.421C282.319 318.548 279.941 320.429 277.896 322.66C277.798 322.767 277.688 322.868 277.572 322.956C275.97 324.153 274.517 325.53 273.11 326.928C270.86 329.162 268.454 331.226 266.217 333.47C266.113 333.573 266.015 333.689 265.893 333.763C264.501 334.602 263.601 336.003 262.248 336.904C261.659 337.298 261.161 337.869 260.78 338.516C260.563 338.885 260.218 339.187 259.898 339.486C258.512 340.784 257.33 342.298 255.746 343.385C255.477 343.571 255.206 343.861 255.105 344.16C254.849 344.923 254.366 345.518 253.875 346.123C253.716 346.315 253.582 346.52 253.579 346.776C253.573 347.222 253.374 347.637 253.338 348.061C253.267 348.834 253.173 349.655 253.359 350.387C253.704 351.752 254.244 353.089 255.01 354.264C256.07 355.891 257.217 357.46 258.631 358.828C260.49 360.626 262.297 362.479 264.129 364.308C264.403 364.582 264.66 364.894 264.977 365.113C266.891 366.45 268.695 367.928 270.658 369.201C272.493 370.391 274.315 371.622 275.994 373.014C277.64 374.375 279.056 376.005 280.692 377.397C282.359 378.814 283.696 380.6 285.497 381.879C287.781 384.354 290.452 386.427 292.781 388.857C293.083 389.174 293.373 389.532 293.736 389.757C294.832 390.441 295.623 391.446 296.52 392.337C297.18 392.993 297.024 393.61 296.197 394.086C295.186 394.669 294.179 395.261 293.171 395.851C291.282 396.959 289.42 398.116 287.497 399.153C286.529 399.675 286.019 400.497 285.854 401.443C285.644 402.676 285.314 403.925 285.522 405.204C285.796 405.402 286.086 405.585 286.349 405.802C287.191 406.507 288.168 406.758 289.221 406.538C290.094 406.355 290.964 406.379 291.841 406.336C295.589 406.156 299.335 405.979 303.09 406.028C303.38 406.031 303.688 406.031 303.96 405.949C304.445 405.802 304.903 405.882 305.391 405.93C306.307 406.025 307.256 406.086 308.16 405.949C309.329 405.769 310.492 405.717 311.655 405.762C313.963 405.86 316.216 405.46 318.472 405.097C318.899 405.027 319.317 404.865 319.73 404.722C321.039 404.264 321.793 403.314 322.117 401.986C322.291 401.275 322.413 400.561 322.398 399.822C322.385 399.239 322.355 398.65 322.556 398.082C322.657 397.795 322.599 397.514 322.544 397.221C322.068 394.733 321.381 393.61 319.32 392.056C317.767 390.881 316.182 389.742 314.653 388.539C313.545 387.669 312.446 386.769 311.435 385.789C309.512 383.924 307.656 381.988 305.831 380.023C303.605 377.629 301.243 375.367 298.959 373.029C296.029 370.031 293.117 367.012 290.204 363.999C289.969 363.758 289.789 363.465 289.585 363.196C289.151 362.815 288.69 362.461 288.287 362.049C285.702 359.399 283.128 356.737 280.552 354.081C280.418 353.941 280.283 353.8 280.149 353.657C279.908 353.403 279.899 353.15 280.14 352.891C280.704 352.286 281.26 351.673 281.837 351.077C285.503 347.304 289.173 343.534 292.845 339.767C294.136 338.442 295.476 337.166 296.816 335.89C298.578 334.211 300.238 332.426 301.945 330.689C303.035 329.578 304.091 328.439 305.306 327.447C306.475 326.494 307.397 325.282 308.413 324.165C309.753 322.688 311.243 321.348 312.641 319.922C313.014 319.54 313.392 319.54 313.832 319.687L313.826 319.696Z" fill="#F7BB92"/>
<path d="M304.508 215.039C303.715 214.935 302.979 215.088 302.234 215.399C295.943 218.028 289.639 220.635 283.335 223.245C279.33 224.902 275.319 226.551 271.311 228.202C270.004 228.739 268.704 229.295 267.388 229.805C266.701 230.07 266.387 230.495 266.457 231.243C266.61 232.842 266.723 234.445 266.86 236.044C266.885 236.334 266.97 236.621 266.979 236.911C267.077 240.611 267.208 244.314 267.239 248.014C267.251 249.272 266.952 250.538 267.123 251.802C267.26 252.822 267.263 253.841 267.303 254.864C267.403 257.59 267.498 260.316 267.614 263.042C267.657 264.022 267.593 264.984 267.321 265.93C267.782 266.522 267.916 267.209 267.919 267.942C267.922 269.047 267.852 270.143 267.513 271.202C267.349 271.718 267.294 272.228 267.379 272.756C267.916 271.983 268.622 271.422 269.492 271.055C269.94 270.866 270.362 270.616 270.801 270.405C277.477 267.209 284.15 264.001 290.836 260.82C296.773 257.996 302.729 255.206 308.672 252.391C309.206 252.138 309.728 251.891 310.336 251.93C309.991 250.023 309.619 248.121 309.481 246.182C309.466 245.99 309.442 245.795 309.387 245.608C308.926 244.012 308.874 242.354 308.617 240.727C308.541 240.248 308.422 239.775 308.349 239.296C308.114 237.763 307.879 236.231 307.698 234.689C307.473 232.766 307.094 230.858 306.773 228.947C306.581 227.799 306.313 226.664 306.261 225.491C306.245 225.159 306.123 224.829 306.068 224.496C305.931 223.684 305.678 222.891 305.69 222.051C305.693 221.764 305.623 221.474 305.552 221.193C305.156 219.585 304.838 217.964 304.82 216.3C304.814 215.857 304.774 215.424 304.515 215.042L304.508 215.039Z" fill="#F6BB92"/>
<path d="M310.334 251.93C309.726 251.893 309.204 252.141 308.67 252.391C302.727 255.205 296.774 257.996 290.833 260.819C284.148 264 277.475 267.205 270.799 270.405C270.359 270.615 269.938 270.865 269.489 271.055C268.619 271.421 267.914 271.983 267.377 272.755C266.574 274.263 265.942 275.847 265.417 277.468C264.797 279.385 264.663 281.373 264.706 283.381C264.813 288.32 266.617 292.558 269.892 296.224C271.507 298.034 273.464 299.371 275.561 300.507C278.049 301.853 280.705 302.851 283.284 304.005C284.53 304.564 285.79 305.086 287.042 305.623C288.089 306.121 289.136 306.618 290.183 307.122C290.55 307.299 290.928 307.326 291.322 307.262C291.594 306.572 291.67 305.858 291.673 305.119C291.685 303.364 291.536 301.645 291.197 299.902C290.318 295.372 290.54 290.885 292.332 286.562C294.103 282.298 297.122 279.153 301.118 276.913C304.21 275.179 307.541 274.129 311.039 273.598C311.768 273.488 312.464 273.305 313.124 272.978C313.231 272.444 313.17 271.916 313.099 271.384C312.471 266.467 311.857 261.546 311.222 256.631C311.054 255.331 310.85 254.033 310.636 252.739C310.59 252.461 310.434 252.202 310.331 251.933L310.334 251.93Z" fill="#8A8AD9"/>
<path d="M313.827 319.696C313.384 319.55 313.008 319.55 312.636 319.931C311.238 321.357 309.748 322.697 308.408 324.174C307.395 325.292 306.47 326.504 305.301 327.456C304.086 328.448 303.029 329.587 301.94 330.698C300.233 332.435 298.576 334.224 296.811 335.9C295.471 337.176 294.131 338.449 292.84 339.776C289.167 343.543 285.498 347.313 281.832 351.087C281.255 351.679 280.699 352.295 280.135 352.9C279.893 353.159 279.903 353.413 280.144 353.666C280.278 353.806 280.412 353.95 280.547 354.09C283.123 356.749 285.696 359.408 288.282 362.058C288.685 362.47 289.146 362.824 289.579 363.206C290.098 363.337 290.62 363.45 291.13 363.608C293.487 364.329 295.892 364.588 298.35 364.491C299.189 364.457 299.986 364.243 300.786 364.027C301.537 363.825 302.272 363.557 303.02 363.34C306.543 362.32 309.434 360.339 311.833 357.598C312.282 357.085 312.77 356.606 313.256 356.126C314.089 355.305 314.932 354.493 315.652 353.568C315.603 353.486 315.564 353.394 315.506 353.318C314.672 352.289 314.474 351.807 315.64 350.555C315.707 350.485 315.774 350.415 315.844 350.348C316.641 349.615 317.197 348.712 317.71 347.771C318.555 346.224 319.08 344.557 319.553 342.881C320.197 340.601 320.704 338.29 320.649 335.893C320.631 335.115 320.613 334.337 320.655 333.561C320.726 332.23 320.524 330.942 320.042 329.718C319.715 328.891 319.709 328.121 320.075 327.331C319.947 327.196 319.773 327.08 319.697 326.922C318.293 324.064 316.302 321.686 313.827 319.699V319.696Z" fill="#7A4821"/>
<path d="M220.561 385.493C219.248 385.584 217.939 385.566 216.635 385.349C216.397 385.31 216.153 385.291 215.909 385.282C213.674 385.194 211.455 384.952 209.229 384.717C207.636 384.549 206.03 384.485 204.434 384.336C202.596 384.165 200.761 383.96 198.927 383.753C198.243 383.676 197.724 383.38 197.623 382.617C196.677 384.577 195.74 386.543 194.778 388.494C194.351 389.36 193.838 390.188 193.42 391.061C192.913 392.114 192.373 393.161 192.012 394.266C191.558 395.664 191.518 397.102 191.799 398.586C192.07 400.017 192.657 401.266 193.444 402.441C195.041 404.825 197.367 405.988 200.151 406.318C201.647 406.495 203.142 406.703 204.657 406.642C205.823 407.06 207.086 406.754 208.262 407.124C208.445 407.182 208.649 407.194 208.842 407.182C210.554 407.063 212.255 407.334 213.927 407.56C215.664 407.795 217.435 407.585 219.147 408.043C219.468 408.128 219.828 408.067 220.167 408.079C220.897 408.104 221.632 408.024 222.334 408.308C222.423 408.345 222.527 408.357 222.621 408.351C224.236 408.238 225.811 408.65 227.42 408.699C229.017 408.745 230.607 408.986 232.198 409.163C234.118 409.377 236.007 409.291 237.723 408.314C240.168 406.922 241.505 404.779 241.343 401.959C241.209 399.617 240.144 397.685 238.025 396.446C237.357 396.055 236.761 395.539 236.108 395.121C233.489 393.442 230.86 391.775 228.238 390.102C227.664 389.736 227.087 389.376 226.535 388.985C225.943 388.564 225.335 388.182 224.691 387.831C223.8 387.346 222.988 386.711 222.154 386.125C221.666 385.78 221.153 385.523 220.546 385.493H220.561Z" fill="#F7BC94"/>
<path d="M316.103 353.684C317.687 355.598 319.262 357.525 320.859 359.429C324.687 363.99 328.527 368.538 332.358 373.096C333.896 374.928 335.417 376.771 336.952 378.603C337.202 378.902 337.459 379.204 337.758 379.446C338.286 379.87 338.888 380.004 339.538 379.711C339.715 379.632 339.88 379.497 340.066 379.464C341.36 379.229 341.781 378.316 341.913 377.156C342.129 375.218 342.389 373.282 342.569 371.338C343.024 366.423 343.097 361.496 342.89 356.566C342.667 351.239 341.962 345.976 340.542 340.823C339.828 338.232 338.915 335.713 337.666 333.326C336.94 331.94 336.104 330.625 335.105 329.416C334.26 328.393 333.313 327.48 332.211 326.742C329.577 324.977 326.741 324.507 323.701 325.481C322.684 325.808 321.677 326.183 320.846 326.897C321.091 326.91 321.335 326.946 321.576 326.934C322.251 326.9 322.675 327.251 322.974 327.807C323.066 327.978 323.163 328.152 323.221 328.338C323.728 329.965 324.119 331.62 324.149 333.326C324.18 334.88 324.088 336.422 323.93 337.978C323.759 339.63 323.432 341.233 323.093 342.841C322.721 344.609 322.031 346.266 321.335 347.933C320.572 349.762 319.573 351.373 318.154 352.762C317.553 353.348 316.921 353.672 316.106 353.687L316.103 353.684Z" fill="#7A4821"/>
<path d="M185.288 70.3894C185.841 69.8277 186.137 69.1012 186.527 68.4387C189.327 63.7193 192.047 58.9542 194.956 54.3019C195.212 53.8898 195.49 53.4899 195.753 53.0839C196.146 52.4795 196.684 52.104 197.413 52.0399C197.355 51.6522 197.282 51.2584 197.505 50.8982C197.813 50.4067 197.743 49.9092 197.663 49.3597C197.291 46.8474 196.061 44.7746 194.382 42.9583C193.091 41.5602 191.604 40.3757 189.968 39.3775C189.266 38.9471 188.625 38.4129 187.968 37.9092C186.5 36.7797 184.931 35.7968 183.398 34.7619C182.187 33.9469 181.011 33.0769 179.857 32.1824C177.351 30.241 174.72 28.4643 172.018 26.822C170 25.5948 167.94 24.328 165.525 23.9006C165.043 23.8151 164.573 23.7266 164.084 23.7266C163.107 23.7297 162.134 23.7327 161.157 23.7266C159.545 23.7205 158.486 24.4348 157.646 25.8665C156.81 27.289 156.886 28.5712 157.359 30.0242C158.098 32.2923 159.359 34.2308 160.87 36.0379C162.399 37.8695 163.923 39.7042 165.412 41.5663C165.867 42.1341 166.188 42.8026 166.603 43.404C168.038 45.492 169.512 47.5495 170.916 49.6558C172.131 51.4782 173.224 53.3861 174.46 55.1933C177.736 59.9768 181.057 64.7298 184.369 69.4888C184.61 69.8368 184.784 70.2825 185.279 70.3863L185.288 70.3894Z" fill="#F7BB93"/>
<path d="M291.322 307.263C290.928 307.327 290.55 307.299 290.183 307.122C289.139 306.619 288.089 306.124 287.042 305.624C287.036 306.188 286.786 306.649 286.419 307.052C284.6 309.058 282.924 311.192 281.01 313.115C280.225 313.902 279.432 314.681 278.571 315.395C277.493 316.289 276.458 317.248 275.625 318.39C276.162 318.466 276.675 318.432 277.197 318.225C277.96 317.926 278.772 317.761 279.481 317.294C280.204 316.818 281.156 316.918 281.892 316.402C282.085 316.268 282.457 316.015 282.68 316.305C282.903 316.598 282.555 316.815 282.368 317.019C282.173 317.236 281.938 317.419 281.755 317.645C281.041 318.521 280.015 319.043 279.252 319.861C277.359 321.888 275.228 323.662 273.229 325.573C273.055 325.74 272.875 325.939 272.661 326.018C272.304 326.146 272.06 326.723 271.669 326.473C271.217 326.183 271.522 325.701 271.638 325.292C271.69 325.109 271.715 324.91 271.718 324.718C271.721 323.814 272.063 323.011 272.475 322.236C272.655 321.894 272.902 321.586 273.076 321.241C273.177 321.046 273.04 320.878 272.866 320.762C271.596 321.439 270.677 322.55 269.636 323.494C268.989 324.08 268.351 324.675 267.682 325.24C266.418 326.311 265.133 327.364 263.921 328.494C262.633 329.694 261.226 330.744 259.889 331.879C257.355 334.031 255.026 336.388 252.907 338.949C251.695 340.415 250.569 341.95 249.54 343.55C248.194 345.647 247.748 347.948 248.09 350.4C248.157 350.882 248.234 351.358 248.279 351.844C248.389 352.988 248.795 354.035 249.528 354.918C250.712 356.343 251.937 357.735 253.152 359.133C253.887 359.979 254.605 360.849 255.389 361.646C257.309 363.596 259.44 365.309 261.623 366.954C264.355 369.012 266.977 371.188 269.382 373.627C272.264 376.546 275.189 379.421 278.11 382.3C280.473 384.629 282.863 386.934 285.241 389.248C285.452 389.452 285.662 389.654 285.867 389.864C286.593 390.628 286.657 391.687 285.992 392.493C285.204 393.442 284.227 394.163 283.171 394.797C281.584 395.753 279.969 396.669 278.51 397.823C278.241 398.033 277.985 398.259 277.719 398.473C277.313 398.799 277.103 399.245 277.075 399.743C277.017 400.814 277.011 401.889 276.984 402.963C276.971 403.4 277.182 403.699 277.533 403.928C278.281 404.419 279.117 404.685 279.984 404.841C281.816 405.167 283.666 405.265 285.525 405.204C285.317 403.925 285.647 402.676 285.858 401.443C286.019 400.494 286.529 399.676 287.5 399.154C289.426 398.116 291.288 396.956 293.175 395.851C294.182 395.261 295.19 394.669 296.2 394.086C297.03 393.607 297.183 392.99 296.524 392.337C295.629 391.446 294.835 390.441 293.74 389.758C293.376 389.529 293.086 389.171 292.784 388.857C290.455 386.427 287.784 384.357 285.5 381.879C283.696 380.597 282.362 378.814 280.696 377.397C279.056 376.005 277.643 374.378 275.998 373.014C274.319 371.622 272.493 370.392 270.662 369.201C268.699 367.928 266.895 366.448 264.981 365.114C264.663 364.894 264.41 364.585 264.132 364.308C262.3 362.479 260.493 360.626 258.634 358.828C257.224 357.464 256.073 355.891 255.014 354.264C254.247 353.086 253.707 351.749 253.362 350.388C253.176 349.655 253.268 348.834 253.341 348.061C253.38 347.637 253.579 347.222 253.582 346.776C253.585 346.52 253.719 346.318 253.878 346.123C254.37 345.522 254.855 344.926 255.108 344.16C255.209 343.861 255.481 343.568 255.749 343.385C257.337 342.295 258.518 340.784 259.901 339.487C260.221 339.187 260.566 338.885 260.783 338.516C261.165 337.869 261.662 337.295 262.251 336.904C263.601 336 264.504 334.602 265.896 333.763C266.018 333.69 266.119 333.571 266.22 333.47C268.457 331.226 270.863 329.166 273.113 326.928C274.52 325.53 275.973 324.153 277.576 322.956C277.692 322.868 277.802 322.77 277.899 322.66C279.945 320.426 282.323 318.545 284.472 316.421C285.967 314.94 287.289 313.328 288.556 311.665C289.438 310.505 290.214 309.265 291.047 308.069C291.221 307.818 291.365 307.58 291.325 307.266L291.322 307.263Z" fill="#DEA882"/>
<path d="M316.103 353.684C316.918 353.669 317.553 353.345 318.151 352.759C319.571 351.373 320.569 349.762 321.332 347.93C322.028 346.263 322.718 344.606 323.09 342.838C323.429 341.229 323.759 339.627 323.927 337.975C324.085 336.418 324.177 334.877 324.147 333.323C324.113 331.617 323.725 329.959 323.219 328.335C323.161 328.152 323.066 327.975 322.971 327.804C322.672 327.248 322.248 326.897 321.573 326.931C321.332 326.943 321.088 326.91 320.844 326.894C320.752 326.876 320.685 326.906 320.642 326.995C320.584 327.138 320.477 327.215 320.325 327.224C320.224 327.215 320.138 327.248 320.071 327.325C319.708 328.115 319.714 328.885 320.038 329.712C320.52 330.939 320.721 332.227 320.651 333.555C320.608 334.33 320.63 335.109 320.645 335.887C320.7 338.284 320.19 340.595 319.549 342.875C319.076 344.551 318.551 346.218 317.705 347.765C317.19 348.708 316.637 349.609 315.84 350.342C315.77 350.409 315.7 350.476 315.636 350.549C314.47 351.801 314.668 352.283 315.501 353.312C315.562 353.385 315.599 353.477 315.648 353.562C315.801 353.602 315.95 353.645 316.103 353.684Z" fill="#5C3717"/>
<path d="M247.657 200.902C247.663 201.741 247.849 202.489 248.313 203.24C252.052 209.284 256.103 215.124 260.014 221.055C260.469 221.745 260.936 222.429 261.412 223.107C261.519 223.256 261.674 223.415 261.839 223.467C262.004 223.519 262.23 223.488 262.392 223.415C262.584 223.326 262.611 223.104 262.566 222.905C262.532 222.765 262.465 222.63 262.404 222.499C261.641 220.866 260.875 219.236 260.117 217.603C259.034 215.261 257.959 212.917 256.879 210.572C256.839 210.484 256.799 210.395 256.757 210.307C255.117 206.931 253.487 203.554 251.833 200.184C251.533 199.574 251.152 199.006 250.804 198.42C250.636 198.136 250.346 198.081 250.05 198.044C249.085 198.859 248.227 199.76 247.657 200.902Z" fill="#464843"/>
<path d="M272.862 320.758C273.036 320.874 273.173 321.042 273.073 321.238C272.899 321.583 272.651 321.891 272.471 322.233C272.059 323.008 271.717 323.811 271.714 324.715C271.714 324.907 271.69 325.105 271.635 325.288C271.516 325.694 271.214 326.18 271.665 326.47C272.056 326.72 272.3 326.143 272.658 326.015C272.874 325.939 273.051 325.737 273.225 325.569C275.225 323.658 277.356 321.885 279.248 319.858C280.011 319.043 281.037 318.521 281.751 317.642C281.935 317.416 282.17 317.233 282.365 317.016C282.548 316.811 282.899 316.598 282.676 316.301C282.457 316.008 282.081 316.262 281.889 316.399C281.153 316.915 280.201 316.814 279.477 317.291C278.769 317.758 277.96 317.919 277.194 318.222C276.672 318.426 276.159 318.463 275.622 318.386C274.691 319.165 273.677 319.849 272.859 320.755L272.862 320.758Z" fill="#F4B991"/>
<path d="M320.328 327.227C320.484 327.218 320.591 327.141 320.646 326.998C320.475 326.983 320.377 327.071 320.328 327.227Z" fill="#7A4821"/>
</svg>
