<svg width="497" height="497" viewBox="0 0 497 497" fill="none" xmlns="http://www.w3.org/2000/svg">
<path d="M201.488 245.134C202.968 280.036 205.85 314.703 208.889 349.527C214.887 348.359 221.042 348.359 226.729 350.852C228.209 327.402 227.586 303.407 236.311 281.126C231.014 258.144 243.868 236.408 263.267 224.177C261.553 217.088 256.645 211.011 252.438 205.168C246.829 194.34 240.674 183.822 235.065 173.149C222.21 149.778 218.938 149.622 217.77 121.576C216.757 119.239 216.757 116.122 216.29 113.474C209.59 116.434 202.422 119.472 194.866 117.057C194.087 117.291 194.32 117.992 194.398 118.46C195.411 132.794 194.398 147.207 197.982 161.23C202.345 180.472 211.226 199.17 212.862 218.724C205.85 225.657 201.254 235.162 201.488 245.134Z" fill="#3D3C3C"/>
<path d="M263.266 224.179C243.868 236.41 231.091 258.145 236.311 281.128C238.492 302.474 235.298 306.369 256.411 318.444C261.163 315.172 263.812 308.784 270.2 307.849C283.678 306.525 283.288 318.756 278.224 327.637C289.287 323.82 290.144 302.863 288.04 293.281C286.093 288.217 284.612 282.997 282.509 278.011C273.861 263.209 270.512 246.148 265.759 229.944C264.357 228.386 264.591 225.659 263.266 224.179Z" fill="#FF8AA0"/>
<path d="M278.224 327.635C283.288 318.754 283.678 306.601 270.2 307.848C263.812 308.782 261.163 315.093 256.411 318.443C250.256 328.804 226.261 356.616 228.287 368.224C235.688 376.872 245.348 383.572 253.684 391.362C258.359 396.27 264.669 399.464 269.499 403.905C269.889 406.865 274.251 409.514 272.537 412.397C271.447 413.877 266.616 417.071 269.889 418.473C278.536 411.773 278.224 416.759 286.716 419.252C288.664 419.642 290.689 419.876 292.637 420.343C294.507 420.655 298.168 421.823 296.532 418.473C282.042 401.412 267.24 383.727 251.737 367.134C251.035 366.199 249.088 365.108 249.945 363.862C253.606 358.72 258.125 354.357 261.553 349.137C259.449 348.514 265.604 343.139 266.227 341.736C270.668 337.607 273.472 331.219 278.224 327.635Z" fill="#F6BB92"/>
<path d="M194.866 117.059C202.423 119.474 209.59 116.435 216.29 113.475C214.654 98.2835 208.889 83.014 207.487 67.5887C207.175 65.2516 206.474 62.9144 206.396 60.5772C206.552 56.1366 207.175 52.3972 203.825 48.8914C197.281 41.023 190.659 32.6871 183.57 25.0523C180.609 22.1698 181.31 22.871 177.805 22.871C166.586 24.5849 187.932 52.8646 190.971 57.9285C193.542 77.3269 193.62 97.4265 194.866 117.059Z" fill="#F6BB92"/>
<path d="M226.729 350.854C221.042 348.361 214.887 348.361 208.888 349.529C208.966 366.201 210.914 382.483 211.927 398.921C212.394 402.349 210.135 405.154 209.59 408.426C208.265 421.046 224.703 416.061 232.338 417.852C268.174 420.735 239.895 411.386 227.897 403.05C227.508 385.833 226.261 368.305 226.729 350.854Z" fill="#F6BB92"/>
<path d="M195.177 143.079C195.177 143.391 195.177 143.703 195.489 143.936C195.567 143.235 195.567 142.534 195.411 141.833C195.099 142.223 195.177 142.69 195.177 143.079Z" fill="#D5D4D4"/>
<path d="M195.954 150.091C195.72 150.325 195.72 150.48 196.032 150.636C196.11 150.48 196.11 150.247 195.954 150.091Z" fill="#D5D4D4"/>
<path d="M291.001 313.379C290.3 309.25 289.443 304.966 288.898 300.837C288.82 300.837 288.742 300.759 288.664 300.759C287.729 309.874 288.352 320.781 280.25 326.701C275.732 327.714 273.94 332.077 271.291 335.66C268.175 339.789 264.591 343.607 261.397 347.736C259.449 354.202 275.264 331.999 276.589 330.986C276.667 330.051 277.29 329.35 277.835 328.415C278.225 329.35 278.536 330.129 278.536 330.986C282.821 332.388 287.729 332.31 291.702 334.648C292.871 333.947 294.039 334.336 295.208 334.726C294.585 327.558 291.079 320.703 291.001 313.379Z" fill="#ECAD83"/>
<path d="M298.557 410.918C300.972 406.867 295.675 404.53 293.493 401.959C290.065 398.453 286.56 395.103 283.21 391.52C273.861 381.08 266.071 369.394 257.813 358.02C257.111 357.085 257.189 356.15 257.267 355.138C255.943 356.073 248.62 364.097 249.788 365.265C254.229 370.329 259.293 374.77 263.344 380.223C269.187 387.391 275.186 394.48 281.652 401.024C285.936 406.166 290.689 414.19 298.557 410.918Z" fill="#D89D75"/>
<path d="M294.895 334.648C290.299 332.545 287.65 338.777 285.703 341.894C284.456 344.62 289.832 347.425 289.987 350.619C290.455 352.645 288.429 354.826 286.482 354.514C285.391 354.358 282.82 349.84 283.21 353.268C286.092 358.098 277.523 355.761 271.758 365.966C268.174 371.576 272.926 377.73 278.224 379.911C283.132 381.625 288.274 381.002 293.337 380.223C300.66 376.873 297.934 381.781 304.478 379.288C306.426 378.198 308.295 376.951 309.62 375.159C309.62 374.848 309.775 374.614 310.087 374.536C313.982 369.16 320.137 355.605 310.399 353.268C308.373 345.555 302.219 338.777 295.285 334.726L294.895 334.648ZM307.36 354.358C301.907 359.734 297.311 367.369 296.298 375.081C293.104 369.706 301.595 355.527 307.36 354.358Z" fill="#602F0F"/>
<path d="M270.51 371.887C269.965 364.408 282.118 357.708 283.52 356.15C285 354.514 282.04 352.878 283.364 352.177C283.91 351.865 284.845 353.579 285.701 354.124C287.571 355.916 290.61 352.956 290.064 350.696C287.727 341.036 282.274 345.087 291.7 334.648C287.961 332.544 283.442 332.311 279.313 331.298C276.976 330.207 275.34 331.843 274.405 333.791C270.588 338.621 266.848 343.607 262.564 348.048C262.096 350.229 264.901 352.254 265.446 354.358C268.562 359.266 263.966 367.836 270.51 371.887Z" fill="#F6BB92"/>
<path d="M310.01 352.802C309.932 353.113 310.01 353.269 310.321 353.269C310.321 353.035 310.243 352.88 310.01 352.802Z" fill="#FEFDFD"/>
<path d="M276.51 330.986C277.133 330.986 277.757 330.986 278.38 330.986C278.38 330.129 278.068 329.35 277.679 328.415C277.289 329.35 276.588 330.051 276.51 330.986Z" fill="#FEFDFD"/>
<path d="M307.36 354.358C301.595 355.605 293.104 369.784 296.298 375.081C297.311 367.369 301.985 359.734 307.36 354.358Z" fill="#4E2307"/>
</svg>
