<svg width="500" height="500" viewBox="0 0 500 500" fill="none" xmlns="http://www.w3.org/2000/svg">
<path d="M265.984 139.051C263.863 139.032 261.745 139.029 259.621 138.994C254.532 138.915 249.439 138.819 244.35 138.737C242.305 138.705 240.266 138.689 238.225 138.657C237.892 138.651 237.552 138.648 237.209 138.575C236.606 138.451 235.78 138.311 235.434 137.718C235.339 137.556 235.358 137.568 235.234 137.426C234.374 136.432 234.723 135.267 235.186 134.549C235.958 133.349 236.701 132.12 237.504 130.942C239.536 127.961 241.863 125.23 244.403 122.687C247.147 119.938 250.223 117.544 253.782 115.689C255.573 114.756 257.478 113.997 259.574 113.534C260.793 113.264 262.057 113.108 263.396 113.121C264.527 113.13 265.682 113.267 266.87 113.603C269.708 114.407 272.074 116.048 273.893 118.614C274.503 119.474 274.668 120.9 274.947 121.843C274.757 121.687 274.969 120.992 274.791 120.823C274.299 120.354 273.81 120.261 273.315 120.363C273.163 120.395 273.007 120.427 272.874 120.487C271.705 121.033 270.613 121.671 269.762 122.582C268.991 123.408 268.311 124.31 267.679 125.262C267.01 126.275 266.482 127.367 265.959 128.469C265.384 129.679 265.105 131.044 264.822 132.415C264.511 133.923 264.485 135.467 264.885 137.172C265.054 137.892 265.374 138.492 265.984 139.048V139.051Z" fill="#7A4821"/>
<path d="M161.602 404.333C160.224 398.072 160.167 391.655 159.465 385.315C158.51 376.691 157.548 368.03 157.402 359.372C157.265 351.222 157.811 342.967 159.745 335.016C161.405 328.184 160.519 321.497 159.919 314.76C159.094 305.495 158.043 296.253 157.103 286.998C156.09 276.99 155.033 266.989 154.141 256.971C153.953 254.854 152.436 254.282 151.086 253.527C136.993 245.659 122.873 237.836 108.745 230.028C100.356 225.393 91.8821 220.913 83.5477 216.182C71.8605 209.55 68.6665 196.294 75.8705 184.969C93.4633 157.308 111.05 129.644 128.652 101.99C128.915 101.574 129.334 101.26 129.684 100.901C135.043 107.559 140.12 114.487 147.365 119.332C143.044 128.161 139.11 137.178 135.846 146.43C129.471 164.49 121.086 181.181 105.554 194.04C114.841 196.237 123.572 198.428 132.363 200.342C138.847 201.755 145.127 204.374 151.921 204.073C167.914 203.362 180.824 209.543 191.212 221.465C190.688 229.625 191.695 237.756 192.219 245.853C192.555 251.044 191.838 256.394 193.425 261.502C193.352 275.987 193.562 290.465 194.136 304.943C194.603 316.684 192.39 328.212 190.847 339.785C189.206 352.098 187.526 364.404 185.869 376.714C184.595 386.162 183.332 395.614 182.065 405.063C181.573 405.063 181.078 405.06 180.585 405.057C179.588 403.927 178.249 404.349 177.042 404.339C171.892 404.301 166.746 404.33 161.596 404.336L161.602 404.333Z" fill="#6A6D66"/>
<path d="M258.669 177.783C261.847 182.234 263.651 186.968 261.905 192.518C258.898 202.065 248.065 205.094 240.524 198.481C239.327 197.43 238.502 195.83 236.622 195.747C235.987 194.976 235.428 194.118 234.701 193.445C224.325 183.847 213.949 174.252 203.529 164.708C197.02 158.746 190.721 152.504 183.825 147.023C171.877 137.533 159.539 128.539 147.366 119.334C140.121 114.489 135.044 107.558 129.685 100.9C134.022 95.8932 138.381 90.9021 142.686 85.8665C143.547 84.86 144.213 85.5204 144.969 85.876C145.776 86.9777 146.439 88.2255 147.407 89.1558C151.405 92.9944 153.897 98.3284 159.107 100.96C165.184 105.669 172.011 109.203 178.529 113.213C189.791 120.134 201.192 126.821 212.432 133.781C214.968 135.352 217.204 137.492 219.353 139.597C232.406 152.38 245.207 165.423 258.669 177.783Z" fill="#F7BB92"/>
<path d="M226.778 210.07C234.389 222.633 242.002 235.2 249.61 247.767C250.13 248.627 250.607 249.51 251.102 250.383C242.695 254.167 233.706 255.961 224.775 257.85C214.456 260.032 203.953 260.924 193.428 261.505C191.84 256.393 192.558 251.043 192.218 245.852C191.691 237.756 190.685 229.621 191.212 221.465C204.614 222.49 216.961 220.233 226.778 210.07Z" fill="#F7BB92"/>
<path d="M279.754 193.468C273.594 187.985 268.435 181.587 263.199 175.262C264.333 171.564 268.194 169.392 268.749 165.369C269.975 165.398 270.368 164.436 270.972 163.623C274.366 159.054 275.363 153.552 276.903 148.288C277.601 145.903 278.554 144.814 281.281 144.903C288.183 145.128 295.095 144.982 302.004 144.982C304.252 149.342 306.421 153.745 308.78 158.041C309.977 160.219 309.542 161.756 307.335 162.518C303.176 163.953 301.836 166.785 302.496 170.944C302.887 173.405 301.903 174.608 299.191 174.723C296.191 174.85 293.219 175.802 290.228 175.837C287.298 175.872 286.081 177.209 285.177 179.758C283.535 184.387 281.579 188.902 279.754 193.468Z" fill="#F7BB92"/>
<path d="M302.001 144.986C295.092 144.986 288.177 145.132 281.278 144.906C278.554 144.817 277.598 145.903 276.9 148.291C275.36 153.558 274.366 159.057 270.969 163.626C270.365 164.439 269.972 165.401 268.746 165.372C267.143 161.159 265.686 156.879 263.901 152.745C261.12 146.294 260.542 139.941 263.914 133.53C264.12 133.133 264.019 132.575 264.057 132.092C267.657 129.158 270.737 125.599 274.798 123.221C277.938 123.411 280.941 122.091 284.17 122.691C292.098 124.161 297.423 128.533 299.868 136.213C300.779 139.077 301.3 142.061 301.998 144.992L302.001 144.986Z" fill="#7A4821"/>
<path d="M180.588 405.057C181.08 405.057 181.576 405.06 182.068 405.063C188.075 409.232 194.114 413.359 200.079 417.585C202.635 419.395 204.883 421.563 203.734 425.139C202.604 428.653 199.664 429.279 196.447 429.279C188.742 429.279 181.039 429.291 173.333 429.279C166.38 429.266 163.405 426.767 162.611 419.779C162.059 414.906 161.944 409.978 161.633 405.076C167.952 405.069 174.267 405.063 180.585 405.057H180.588Z" fill="#F7BB92"/>
<path d="M149.433 82.0061C152.697 78.304 156.414 75.075 160.053 71.7603C161.272 70.6491 162.345 70.2903 163.704 71.3349C163.803 71.4111 163.927 71.4523 164.038 71.5158C170.661 75.3132 171.92 80.3985 167.816 86.7718C166.044 89.5181 164.212 92.2296 162.406 94.9569C159.885 93.9631 158.215 91.9724 156.51 89.9976C154.186 87.3052 151.798 84.6667 149.436 82.0061H149.433Z" fill="#F7BB92"/>
<path d="M149.432 82.0059C151.794 84.6665 154.182 87.3049 156.506 89.9974C158.211 91.9722 159.884 93.9629 162.402 94.9567C161.792 97.2268 160.141 98.9255 159.106 100.961C153.896 98.3286 151.404 92.9946 147.406 89.156C146.438 88.2257 145.771 86.9779 144.968 85.8762C146.457 84.5871 147.943 83.2949 149.432 82.0059Z" fill="#DEA882"/>
<path d="M256.154 138.949C259.183 132.574 267.12 119.823 274.337 119.255C274.658 120.553 275.251 121.823 274.801 123.214C270.743 125.592 265.545 136.117 261.945 139.051C260.002 139.353 258.614 138.661 256.157 138.949H256.154Z" fill="#5C3717"/>
<path d="M180.589 405.057C174.27 405.063 167.955 405.07 161.637 405.076C161.596 404.828 161.586 404.581 161.602 404.333C166.752 404.33 171.899 404.301 177.048 404.336C178.255 404.346 179.595 403.923 180.592 405.054L180.589 405.057Z" fill="#F1BEBB"/>
<path d="M280.471 193.966C280.223 193.842 279.985 193.684 279.754 193.468C273.594 187.984 268.435 181.587 263.199 175.262C261.688 176.104 260.18 176.942 258.668 177.783C261.847 182.235 263.65 186.968 261.904 192.518C258.897 202.066 248.064 205.095 240.523 198.481C239.326 197.43 238.501 195.83 236.621 195.747C232.932 200.24 229.995 205.253 226.775 210.07C234.386 222.633 242 235.2 249.607 247.767C250.128 248.627 250.604 249.51 251.099 250.383C252.925 250.389 254.515 249.573 256.147 248.926C261.77 246.69 267.25 243.995 273.026 242.283C282.036 239.616 286.691 234.247 286.666 224.881C286.666 224.113 286.723 223.516 286.881 223.043L280.465 193.966H280.471Z" fill="#8A8AD9"/>
<path d="M431.586 194.227C430.452 194.169 429.309 194.208 428.173 194.208C380.131 194.208 332.09 194.214 284.049 194.179C282.868 194.179 281.598 194.516 280.446 194.131L286.767 222.5C287.209 221.897 287.996 221.611 289.342 221.481C299.867 220.452 310.358 219.096 320.867 217.912C330.252 216.852 339.628 215.188 349.035 214.975C369.632 214.509 390.247 214.782 410.853 214.797C412.351 214.797 413.847 215.147 415.345 215.337C420.965 216.048 426.318 215.648 430.198 210.851C432.414 208.111 434.523 205.225 436.259 202.167C438.425 198.354 435.999 194.455 431.586 194.23V194.227Z" fill="#F7BB92"/>
</svg>
