<svg width="500" height="501" viewBox="0 0 500 501" fill="none" xmlns="http://www.w3.org/2000/svg">
<path d="M475.961 142.275C475.004 137.871 445.221 148.703 445.221 148.703C404.075 154.893 385.415 162.393 385.415 162.393C360.655 165.011 315.921 175.844 307.189 179.415C298.457 182.986 303.601 201.318 313.05 200.009C322.499 198.699 330.633 196.438 339.843 194.414C349.053 192.39 380.631 180.01 388.525 177.391C389.602 177.034 447.254 158.583 447.254 158.583C447.254 158.583 449.647 158.107 453.833 158.583C459.574 159.417 476.918 146.679 475.961 142.275Z" fill="#ECAD83"/>
<path d="M221.308 209.361C218.802 208.048 211.642 199.815 199.709 196.832C192.55 195.042 183.481 194.326 175.247 194.087C163.553 193.729 163.075 240.745 170.951 244.205C183.719 249.814 209.494 251.365 217.37 251.484C222.74 251.484 230.138 227.141 230.138 227.141C230.138 227.141 223.814 210.674 221.308 209.361Z" fill="#3D3C3C"/>
<path d="M117.371 166.403C117.371 166.403 90.9991 158.647 88.6125 171.415C86.1066 184.66 142.31 226.067 154.482 234.659C166.773 243.131 171.904 245.995 200.424 254.587C204.6 248.024 202.571 245.757 201.975 224.158C201.378 197.309 117.371 166.403 117.371 166.403Z" fill="#3D3C3C"/>
<path d="M189.773 39.4369C193.362 42.7878 181.52 60.0209 181.161 63.8505C180.922 65.7653 182.477 68.5178 180.563 72.2278C178.052 77.1344 172.789 77.7328 171.951 79.4082C167.885 88.5035 157.478 107.292 152.335 118.303C151.139 120.816 149.823 123.449 148.508 125.962C142.886 136.493 125.064 118.542 127.456 114.952C137.025 100.591 160.708 73.6639 164.655 68.8769C164.655 68.8769 174.344 52.3618 176.975 48.7715C178.65 46.378 186.185 36.086 189.773 39.4369Z" fill="#ECAD83"/>
<path d="M125.964 162.456C130.742 157.084 142.329 136.552 147.944 126.048C143.882 125.451 129.547 117.692 126.919 115.065C124.53 118.647 85.8263 161.024 88.096 173.796C89.6489 183.107 102.909 179.168 113.779 173.438C113.66 173.438 121.186 167.828 125.964 162.456Z" fill="#3D3C3C"/>
<path d="M215.071 432.006C210.303 430.928 192.307 432.006 190.519 431.886C186.229 431.766 182.057 429.371 182.892 425.299C183.488 422.185 185.037 419.43 184.799 417.514C183.845 407.573 180.985 377.749 180.031 365.772C179.793 363.017 179.674 360.143 179.555 357.148C179.197 345.291 203.51 351.998 203.153 356.31C201.961 373.557 197.551 414.28 196.359 420.508C196.359 420.508 225.797 421.945 225.32 426.377C225.082 429.131 219.838 433.204 215.071 432.006Z" fill="#F6BB92"/>
<path d="M182.356 318.322C180.7 332.058 178.689 345.077 179.044 357.021C182.948 355.587 198.916 355.109 202.464 356.184C202.701 351.885 208.142 318.8 208.142 318.8C209.443 308.289 219.97 246.658 217.25 227.428C216.777 222.531 215.83 218.112 214.884 214.529C212.992 207.482 174.549 211.543 173.012 221.217C174.313 242.239 177.506 274.487 179.281 290.015C180.582 300.764 182.356 318.322 182.356 318.322Z" fill="#3D3C3C"/>
<path d="M312.336 208.861C317.341 195.554 313.409 186.322 309.596 168.22C308.881 166.182 301.255 159.708 296.608 158.989C291.365 158.15 285.765 158.749 282.071 162.705C278.616 165.582 273.373 172.536 261.577 197.472C258.241 204.425 233.696 212.098 221.304 208.981C221.304 208.981 212.248 218.931 212.248 232.358C212.248 242.308 217.372 251.3 217.372 251.3C269.918 250.46 289.34 240.75 301.97 218.331C301.97 218.451 309.953 215.334 312.336 208.861Z" fill="#FF8AA0"/>
<path d="M311.863 169.26C311.863 169.26 314.504 159.183 320.146 151.45L306.942 142.312C304.662 151.919 292.898 159.301 292.898 159.301C301.781 181.913 310.183 176.992 311.023 176.172L311.863 169.26Z" fill="#ECAD83"/>
<path d="M332.777 129.78C336.863 123.403 333.827 117.387 331.492 113.898C324.487 103.31 317.482 102.708 308.492 103.189C296.701 103.911 294.015 136.398 295.416 141.692C298.919 155.649 318.183 159.981 325.888 159.74C334.411 159.499 332.076 156.612 331.609 153.122C331.609 153.002 331.959 152.4 331.959 152.4C331.959 151.197 331.726 149.513 332.426 147.949C332.426 147.949 332.076 146.866 331.959 146.264C331.959 145.903 331.959 145.662 332.31 145.422C333.477 144.941 334.645 144.459 335.112 143.858C336.746 142.173 330.909 132.788 332.777 129.78Z" fill="#F6BB92"/>
<path d="M327.775 149.636C327.775 149.636 328.587 150.112 332.415 149.874C332.879 149.636 333.691 149.04 332.879 147.968C332.415 147.135 330.559 149.04 327.775 149.636Z" fill="#D6876B"/>
<path d="M327.775 149.94C327.775 149.94 328.691 151.526 332.239 152.12C332.697 152.021 333.04 151.625 333.155 151.526C333.498 150.535 332.468 150.139 332.468 150.139C328.691 150.238 327.775 149.94 327.775 149.94Z" fill="#CC785E"/>
<path d="M307.847 101.002C293.008 101.954 274.579 124.324 296.359 148.121C297.795 149.668 301.026 151.452 305.454 147.764C308.565 145.146 310.6 141.815 310.6 141.815C311.198 140.863 311.797 139.673 312.515 138.483C313.233 137.174 311.797 129.916 313.352 129.678C327.713 126.584 333.457 118.493 333.217 114.686C330.704 105.524 323.644 100.051 307.847 101.002Z" fill="#602F0F"/>
<path d="M307.043 138.305C309.852 144.739 312.789 144.858 316.875 144.262L313.811 134.255L311.385 130.323C307.426 130.8 304.234 131.872 307.043 138.305Z" fill="#F6BB92"/>
<path d="M286.225 125.151C282.74 122.431 283.785 115.336 288.78 109.188C293.659 103.039 300.513 100.319 304.114 103.039C307.599 105.759 305.973 111.198 301.094 117.347C296.099 123.377 289.71 127.87 286.225 125.151Z" fill="#4C230C"/>
<path d="M314.503 131.439C314.264 130.245 314.145 129.172 314.145 128.336C314.145 127.024 314.264 126.308 314.264 126.308L310.088 128.098C310.088 128.694 310.207 129.41 310.207 130.007C310.207 130.007 310.685 129.887 311.401 129.529H311.281C311.878 130.484 312.713 131.916 313.548 134.064C313.548 134.064 315.338 135.138 314.503 131.439Z" fill="#602F0F"/>
<path d="M283.359 124.876C279.54 122.012 280.972 114.136 286.461 107.454C291.951 100.652 299.588 97.5494 303.406 100.413C307.225 103.277 305.315 109.244 299.707 116.045C294.218 122.728 287.177 127.74 283.359 124.876Z" fill="#602F0F"/>
<path d="M285.368 111.75C284.956 111.386 285.882 109.443 287.322 107.378C288.762 105.314 290.305 103.857 290.614 104.221C291.025 104.585 290.202 106.164 288.659 108.228C287.219 110.171 285.676 112.114 285.368 111.75Z" fill="#4C230C"/>
<path d="M145.415 65.6889C142.431 69.0301 157.825 80.1277 161.166 84.9008L168.206 87.1681C196.726 117.239 212.955 128.337 212.955 128.337C229.183 147.071 262.595 176.426 270.591 181.557C275.364 184.779 290.876 165.09 285.865 160.317C277.392 153.754 273.693 153.038 266.056 147.071C259.135 140.747 230.257 122.012 223.575 117.12C222.62 116.404 175.247 79.6504 175.247 79.6504C175.247 79.6504 173.576 77.9797 171.548 74.2806C168.803 69.1494 162.479 63.899 157.825 62.3477C153.768 61.1544 148.398 62.467 145.415 65.6889Z" fill="#F6BB92"/>
<path d="M158.181 79.5308C158.181 79.5308 154.124 75.1156 151.618 77.0249C149.47 78.5761 148.874 79.4114 161.165 84.9006C161.165 84.9006 162.239 83.4686 158.181 79.5308Z" fill="#F6BB92"/>
</svg>
