<svg width="500" height="500" viewBox="0 0 500 500" fill="none" xmlns="http://www.w3.org/2000/svg">
<path d="M285.984 143.338C283.863 143.319 281.745 143.316 279.621 143.281C274.531 143.202 269.439 143.106 264.349 143.024C262.304 142.992 260.266 142.976 258.224 142.945C257.891 142.938 257.551 142.935 257.208 142.862C256.605 142.738 255.78 142.598 255.434 142.005C255.338 141.843 255.357 141.856 255.234 141.713C254.373 140.719 254.722 139.554 255.186 138.836C255.957 137.636 256.7 136.407 257.504 135.229C259.536 132.248 261.863 129.517 264.403 126.974C267.146 124.225 270.223 121.831 273.782 119.977C275.573 119.043 277.478 118.284 279.573 117.821C280.792 117.551 282.056 117.395 283.396 117.408C284.526 117.417 285.682 117.554 286.869 117.891C289.708 118.694 292.073 120.335 293.892 122.901C294.502 123.761 294.667 125.187 294.947 126.13C294.756 125.974 294.969 125.279 294.791 125.111C294.299 124.641 293.81 124.549 293.315 124.65C293.162 124.682 293.007 124.714 292.873 124.774C291.705 125.32 290.613 125.958 289.762 126.869C288.99 127.695 288.311 128.597 287.679 129.549C287.009 130.562 286.482 131.654 285.958 132.756C285.383 133.966 285.104 135.331 284.821 136.702C284.51 138.211 284.485 139.754 284.885 141.459C285.053 142.179 285.374 142.779 285.984 143.335V143.338Z" fill="#7A4821"/>
<path d="M181.602 408.62C180.224 402.359 180.167 395.942 179.465 389.601C178.51 380.978 177.548 372.317 177.402 363.658C177.265 355.508 177.811 347.253 179.745 339.303C181.405 332.47 180.519 325.784 179.919 319.046C179.094 309.782 178.043 300.539 177.103 291.284C176.09 281.277 175.033 271.275 174.141 261.258C173.953 259.14 172.436 258.569 171.086 257.813C156.993 249.946 142.873 242.122 128.745 234.315C120.356 229.679 111.882 225.2 103.548 220.469C91.8605 213.836 88.6665 200.581 95.8705 189.255C113.463 161.595 131.05 133.931 148.652 106.277C148.915 105.861 149.334 105.546 149.684 105.188C155.043 111.845 160.12 118.773 167.365 123.618C163.044 132.448 159.11 141.465 155.846 150.717C149.471 168.777 141.086 185.468 125.554 198.326C134.841 200.523 143.572 202.714 152.363 204.629C158.847 206.042 165.127 208.661 171.921 208.359C187.914 207.648 200.824 213.83 211.212 225.752C210.688 233.912 211.695 242.043 212.219 250.139C212.555 255.33 211.838 260.68 213.425 265.789C213.352 280.273 213.562 294.751 214.136 309.229C214.603 320.97 212.39 332.499 210.847 344.072C209.206 356.384 207.526 368.691 205.869 381C204.595 390.449 203.332 399.901 202.065 409.35C201.573 409.35 201.078 409.347 200.585 409.344C199.588 408.213 198.249 408.636 197.042 408.626C191.892 408.588 186.746 408.616 181.596 408.623L181.602 408.62Z" fill="#6A6D66"/>
<path d="M278.669 182.071C281.847 186.522 283.651 191.256 281.905 196.806C278.898 206.353 268.065 209.382 260.524 202.768C259.327 201.717 258.502 200.117 256.622 200.035C255.987 199.263 255.428 198.406 254.701 197.733C244.325 188.135 233.949 178.54 223.529 168.996C217.02 163.033 210.721 156.791 203.825 151.311C191.877 141.821 179.539 132.826 167.366 123.622C160.121 118.777 155.044 111.846 149.685 105.188C154.022 100.181 158.381 95.1896 162.686 90.1541C163.547 89.1476 164.213 89.808 164.969 90.1636C165.776 91.2653 166.439 92.5131 167.407 93.4434C171.405 97.282 173.897 102.616 179.107 105.248C185.184 109.957 192.011 113.49 198.529 117.5C209.791 124.422 221.192 131.108 232.432 138.068C234.968 139.64 237.204 141.78 239.353 143.885C252.406 156.667 265.207 169.71 278.669 182.071Z" fill="#F7BB92"/>
<path d="M246.778 214.356C254.389 226.92 262.002 239.487 269.61 252.053C270.13 252.914 270.607 253.796 271.102 254.669C262.695 258.454 253.706 260.248 244.775 262.137C234.456 264.318 223.953 265.211 213.428 265.792C211.84 260.68 212.558 255.33 212.218 250.139C211.691 242.042 210.685 233.908 211.212 225.752C224.614 226.777 236.961 224.52 246.778 214.356Z" fill="#F7BB92"/>
<path d="M299.754 197.754C293.594 192.271 288.435 185.874 283.199 179.549C284.333 175.85 288.194 173.678 288.749 169.656C289.975 169.684 290.368 168.722 290.972 167.909C294.366 163.341 295.363 157.838 296.903 152.574C297.601 150.19 298.554 149.101 301.281 149.19C308.183 149.415 315.095 149.269 322.004 149.269C324.252 153.628 326.421 158.032 328.78 162.328C329.977 164.506 329.542 166.043 327.335 166.805C323.176 168.24 321.836 171.072 322.496 175.231C322.887 177.692 321.903 178.895 319.191 179.009C316.191 179.136 313.219 180.089 310.228 180.124C307.298 180.159 306.081 181.495 305.177 184.045C303.535 188.674 301.579 193.189 299.754 197.754Z" fill="#F7BB92"/>
<path d="M322.001 149.273C315.092 149.273 308.177 149.419 301.277 149.193C298.553 149.105 297.598 150.19 296.899 152.578C295.359 157.845 294.365 163.344 290.968 167.913C290.365 168.726 289.971 169.688 288.746 169.659C287.142 165.446 285.685 161.166 283.901 157.033C281.119 150.581 280.541 144.228 283.913 137.817C284.12 137.42 284.018 136.862 284.056 136.379C287.657 133.445 290.736 129.886 294.797 127.508C297.937 127.699 300.941 126.378 304.17 126.978C312.098 128.448 317.422 132.82 319.867 140.5C320.778 143.364 321.299 146.349 321.998 149.279L322.001 149.273Z" fill="#7A4821"/>
<path d="M200.589 409.344C201.081 409.344 201.576 409.347 202.068 409.35C208.075 413.519 214.114 417.646 220.08 421.872C222.636 423.682 224.884 425.851 223.734 429.426C222.604 432.94 219.664 433.566 216.448 433.566C208.742 433.566 201.039 433.579 193.334 433.566C186.38 433.553 183.405 431.054 182.612 424.066C182.059 419.193 181.945 414.265 181.634 409.363C187.952 409.356 194.267 409.35 200.585 409.344H200.589Z" fill="#F7BB92"/>
<path d="M169.433 86.2932C172.697 82.5911 176.414 79.3621 180.053 76.0474C181.272 74.9362 182.345 74.5774 183.704 75.622C183.803 75.6982 183.927 75.7395 184.038 75.803C190.661 79.6003 191.92 84.6856 187.816 91.0589C186.044 93.8052 184.212 96.5167 182.406 99.244C179.885 98.2503 178.215 96.2595 176.51 94.2847C174.186 91.5923 171.798 88.9538 169.436 86.2932H169.433Z" fill="#F7BB92"/>
<path d="M169.432 86.293C171.794 88.9536 174.182 91.5921 176.506 94.2845C178.211 96.2593 179.884 98.25 182.402 99.2438C181.792 101.514 180.141 103.213 179.106 105.248C173.896 102.616 171.404 97.2817 167.406 93.4431C166.438 92.5128 165.771 91.265 164.968 90.1633C166.457 88.8742 167.943 87.582 169.432 86.293Z" fill="#DEA882"/>
<path d="M276.153 143.237C279.182 136.861 287.12 124.11 294.337 123.542C294.657 124.841 295.251 126.111 294.8 127.501C290.742 129.879 285.545 140.404 281.945 143.338C280.001 143.64 278.614 142.948 276.156 143.237H276.153Z" fill="#5C3717"/>
<path d="M200.589 409.344C194.27 409.35 187.955 409.357 181.637 409.363C181.596 409.115 181.586 408.868 181.602 408.62C186.752 408.617 191.899 408.588 197.048 408.623C198.255 408.633 199.595 408.21 200.592 409.341L200.589 409.344Z" fill="#F1BEBB"/>
<path d="M300.471 198.254C300.223 198.13 299.985 197.971 299.754 197.755C293.594 192.272 288.435 185.874 283.199 179.55C281.688 180.391 280.18 181.229 278.668 182.071C281.847 186.522 283.65 191.256 281.904 196.806C278.897 206.353 268.064 209.382 260.523 202.769C259.326 201.718 258.501 200.117 256.621 200.035C252.932 204.528 249.995 209.541 246.775 214.357C254.386 226.921 262 239.488 269.607 252.054C270.128 252.915 270.604 253.797 271.099 254.67C272.925 254.677 274.515 253.861 276.147 253.213C281.77 250.978 287.25 248.282 293.026 246.571C302.036 243.904 306.691 238.535 306.666 229.169C306.666 228.4 306.723 227.804 306.881 227.33L300.465 198.254H300.471Z" fill="#8A8AD9"/>
<path d="M451.585 198.514C450.452 198.457 449.309 198.495 448.172 198.495C400.131 198.495 352.09 198.501 304.049 198.467C302.868 198.467 301.598 198.803 300.445 198.419L306.767 226.788C307.208 226.184 307.995 225.899 309.342 225.768C319.867 224.74 330.357 223.384 340.866 222.2C350.252 221.139 359.627 219.476 369.035 219.263C389.631 218.796 410.247 219.069 430.852 219.085C432.351 219.085 433.846 219.434 435.345 219.625C440.965 220.336 446.318 219.936 450.198 215.139C452.414 212.398 454.522 209.512 456.259 206.455C458.424 202.642 455.998 198.743 451.585 198.517V198.514Z" fill="#F7BB92"/>
</svg>
