<svg width="500" height="500" viewBox="0 0 500 500" fill="none" xmlns="http://www.w3.org/2000/svg">
<path d="M433.797 171.681C432.991 167.952 407.9 177.122 407.9 177.122C373.237 182.362 357.517 188.71 357.517 188.71C336.659 190.927 298.972 200.097 291.616 203.12C284.26 206.143 288.593 221.661 296.554 220.552C304.514 219.444 311.366 217.529 319.125 215.816C326.884 214.103 353.486 203.623 360.137 201.407C361.044 201.104 409.613 185.486 409.613 185.486C409.613 185.486 411.628 185.083 415.155 185.486C419.992 186.191 434.603 175.409 433.797 171.681Z" fill="#ECAD83"/>
<path d="M218.763 228.21C216.647 227.102 210.601 220.149 200.524 217.63C194.478 216.118 186.82 215.514 179.867 215.312C169.992 215.01 169.589 254.712 176.239 257.634C187.021 262.37 208.787 263.68 215.437 263.781C219.972 263.781 226.219 243.224 226.219 243.224C226.219 243.224 220.879 229.319 218.763 228.21Z" fill="#3D3C3C"/>
<path d="M130.996 191.935C130.996 191.935 108.726 185.385 106.711 196.167C104.595 207.352 152.056 242.317 162.334 249.573C172.713 256.727 177.045 259.145 201.129 266.4C204.655 260.858 202.942 258.944 202.438 240.705C201.935 218.033 130.996 191.935 130.996 191.935Z" fill="#3D3C3C"/>
<path d="M191.757 84.7201C194.78 87.5415 184.805 102.052 184.502 105.276C184.301 106.889 185.611 109.206 183.998 112.33C181.882 116.461 177.449 116.965 176.743 118.376C173.317 126.034 164.551 141.854 160.218 151.125C159.21 153.241 158.102 155.458 156.993 157.574C152.257 166.441 137.243 151.326 139.258 148.303C147.32 136.211 167.271 113.539 170.597 109.508C170.597 109.508 178.759 95.6028 180.976 92.5798C182.386 90.5645 188.734 81.8987 191.757 84.7201Z" fill="#ECAD83"/>
<path d="M138.553 188.206C142.584 183.672 152.358 166.34 157.094 157.473C153.668 156.969 141.576 150.419 139.359 148.202C137.344 151.225 104.696 186.997 106.61 197.779C107.92 205.639 119.105 202.313 128.275 197.477C128.174 197.477 134.522 192.741 138.553 188.206Z" fill="#3D3C3C"/>
<path d="M213.12 415.836C209.089 414.929 193.873 415.836 192.362 415.736C188.734 415.635 185.208 413.62 185.913 410.193C186.417 407.574 187.727 405.256 187.525 403.644C186.719 395.28 184.301 370.189 183.495 360.113C183.293 357.795 183.192 355.377 183.091 352.858C182.789 342.882 203.345 348.525 203.043 352.152C202.035 366.663 198.307 400.923 197.299 406.163C197.299 406.163 222.189 407.372 221.786 411.1C221.584 413.418 217.15 416.844 213.12 415.836Z" fill="#F6BB92"/>
<path d="M185.913 320.209C184.502 331.798 182.789 342.781 183.091 352.858C186.417 351.648 200.02 351.245 203.043 352.152C203.245 348.525 207.88 320.613 207.88 320.613C208.988 311.745 217.956 259.75 215.639 243.527C215.236 239.395 214.43 235.667 213.623 232.644C212.011 226.699 179.262 230.125 177.952 238.287C179.061 256.022 181.781 283.228 183.293 296.328C184.401 305.397 185.913 320.209 185.913 320.209Z" fill="#3D3C3C"/>
<path d="M295.748 228.009C299.98 216.824 296.655 209.065 293.43 193.849C292.826 192.136 286.377 186.695 282.447 186.09C278.013 185.385 273.277 185.889 270.153 189.214C267.231 191.632 262.797 197.477 252.822 218.436C250 224.28 229.242 230.729 218.763 228.109C218.763 228.109 211.104 236.473 211.104 247.759C211.104 256.122 215.437 263.68 215.437 263.68C259.875 262.974 276.3 254.812 286.981 235.969C286.981 236.07 293.732 233.45 295.748 228.009Z" fill="#FF8AA0"/>
<path d="M295.445 194.555C295.445 194.555 297.662 185.889 302.398 179.238L291.314 171.378C289.399 179.641 279.524 185.989 279.524 185.989C286.981 205.437 294.035 201.205 294.74 200.5L295.445 194.555Z" fill="#ECAD83"/>
<path d="M313.281 160.798C316.808 155.457 314.188 150.419 312.172 147.497C306.127 138.629 300.081 138.126 292.322 138.529C282.144 139.133 279.827 166.34 281.036 170.774C284.059 182.463 300.685 186.09 307.336 185.889C314.692 185.687 312.676 183.269 312.273 180.346C312.273 180.246 312.576 179.742 312.576 179.742C312.576 178.734 312.374 177.323 312.979 176.014C312.979 176.014 312.676 175.107 312.576 174.603C312.576 174.3 312.576 174.099 312.878 173.897C313.886 173.494 314.893 173.091 315.296 172.587C316.707 171.177 311.669 163.317 313.281 160.798Z" fill="#F6BB92"/>
<path d="M308.747 177.626C308.747 177.626 309.452 178.029 312.777 177.828C313.18 177.626 313.886 177.122 313.18 176.215C312.777 175.51 311.165 177.122 308.747 177.626Z" fill="#D6876B"/>
<path d="M308.747 177.626C308.747 177.626 309.553 179.238 312.676 179.843C313.08 179.742 313.382 179.339 313.483 179.238C313.785 178.231 312.878 177.828 312.878 177.828C309.553 177.928 308.747 177.626 308.747 177.626Z" fill="#CC785E"/>
<path d="M291.616 136.917C279.121 137.723 263.603 156.667 281.943 176.82C283.152 178.13 285.873 179.641 289.601 176.518C292.221 174.301 293.934 171.479 293.934 171.479C294.438 170.673 294.941 169.666 295.546 168.658C296.151 167.55 294.941 161.403 296.251 161.201C308.343 158.581 313.18 151.729 312.979 148.505C310.862 140.746 304.917 136.111 291.616 136.917Z" fill="#602F0F"/>
<path d="M291.516 168.053C293.732 173.494 296.05 173.595 299.275 173.091L296.856 164.627L294.942 161.302C291.818 161.705 289.299 162.612 291.516 168.053Z" fill="#F6BB92"/>
<path d="M273.277 157.07C270.254 154.752 271.161 148.706 275.494 143.466C279.726 138.227 285.671 135.909 288.795 138.227C291.818 140.544 290.407 145.179 286.175 150.419C281.842 155.558 276.3 159.387 273.277 157.07Z" fill="#4C230C"/>
<path d="M297.461 162.41C297.259 161.402 297.158 160.496 297.158 159.79C297.158 158.682 297.259 158.077 297.259 158.077L293.732 159.589C293.732 160.092 293.833 160.697 293.833 161.201C293.833 161.201 294.236 161.1 294.841 160.798H294.74C295.244 161.604 295.949 162.813 296.655 164.627C296.655 164.627 298.166 165.534 297.461 162.41Z" fill="#602F0F"/>
<path d="M271.161 156.868C267.936 154.45 269.146 147.799 273.781 142.156C278.416 136.413 284.865 133.793 288.09 136.211C291.314 138.629 289.702 143.668 284.966 149.411C280.331 155.054 274.385 159.286 271.161 156.868Z" fill="#602F0F"/>
<path d="M272.572 145.683C272.168 145.381 273.075 143.768 274.486 142.055C275.897 140.342 277.408 139.133 277.711 139.436C278.114 139.738 277.308 141.048 275.796 142.761C274.385 144.373 272.874 145.985 272.572 145.683Z" fill="#4C230C"/>
<path d="M154.676 106.888C152.156 109.71 165.155 119.081 167.977 123.111L173.922 125.026C198.005 150.419 211.709 159.79 211.709 159.79C225.413 175.61 253.628 200.399 260.379 204.732C264.41 207.452 277.509 190.826 273.277 186.795C266.123 181.253 262.999 180.649 256.55 175.61C250.705 170.27 226.32 154.45 220.677 150.318C219.871 149.714 179.867 118.678 179.867 118.678C179.867 118.678 178.456 117.267 176.743 114.143C174.426 109.81 169.085 105.377 165.155 104.067C161.729 103.059 157.195 104.167 154.676 106.888Z" fill="#F6BB92"/>
<path d="M165.457 118.577C165.457 118.577 162.031 114.849 159.915 116.461C158.101 117.771 157.598 118.476 167.977 123.112C167.977 123.112 168.883 121.902 165.457 118.577Z" fill="#F6BB92"/>
</svg>
