<svg width="500" height="500" viewBox="0 0 500 500" fill="none" xmlns="http://www.w3.org/2000/svg">
<path d="M275.53 237.684C277.11 238.944 278.444 240.422 279.432 242.193C279.53 242.373 279.654 242.539 279.777 242.701C283.34 247.439 286.078 252.667 288.844 257.881C292.767 265.279 296.153 272.92 299.332 280.66C301.611 286.213 303.72 291.832 305.643 297.516C306.253 299.311 306.8 301.132 307.354 302.945C308.553 306.875 310.077 310.685 311.616 314.484C313.697 319.628 316.212 324.56 318.918 329.403C325.423 341.056 332.108 352.602 338.903 364.085C347.264 378.221 355.625 392.353 363.986 406.489C365.605 408.63 366.416 411.23 367.891 413.456C368.205 413.933 368.402 414.462 368.36 415.054C367.351 415.471 366.268 415.513 365.21 415.622C363.534 415.792 361.837 415.813 360.172 416.046C358.849 416.233 357.523 416.243 356.203 416.395C354.63 416.575 353.056 416.727 351.48 416.882C349.599 417.069 347.719 417.259 345.839 417.422C344.77 417.513 343.697 417.633 342.625 417.425C341.916 416.166 340.974 415.072 340.018 414.01C337.679 411.414 335.513 408.676 333.318 405.967C332.091 404.45 330.877 402.926 329.643 401.416C327.494 398.791 325.519 396.043 323.698 393.179C322.735 391.662 321.705 390.191 320.71 388.695C316.957 383.054 313.203 377.416 309.661 371.642C309.125 370.767 308.55 369.916 307.985 369.059C306.398 366.664 304.892 364.219 303.431 361.739C302.105 359.485 300.676 357.287 299.215 355.117C297.254 352.203 295.73 349.074 294.435 345.825C293.878 344.428 293.165 343.141 292.241 341.959C291.8 341.394 291.366 340.816 290.999 340.198C288.498 335.997 285.531 332.134 282.465 328.334C278.08 322.905 273.724 317.451 269.437 311.941C267.296 309.189 265.349 306.286 263.299 303.46C259.951 298.849 256.723 294.157 253.499 289.458C253.188 289.003 252.963 288.456 252.388 288.241C251.883 288.499 251.671 288.989 251.389 289.405C247.061 295.773 242.573 302.031 238.118 308.307C236.184 311.031 234.121 313.648 232.029 316.245C228.776 320.281 225.566 324.352 222.338 328.405C221.668 329.248 221.004 330.098 220.32 330.931C218.588 333.033 216.986 335.228 215.533 337.531C214.383 339.352 213.279 341.204 211.931 342.897C211.222 343.79 210.781 344.834 210.361 345.885C209.049 349.184 207.518 352.369 205.496 355.304C203.193 358.645 201.263 362.219 199.058 365.62C195.957 370.396 193.064 375.307 189.829 380.002C188.256 382.281 186.831 384.663 185.307 386.977C183.448 389.806 181.546 392.611 179.676 395.436C178.089 397.839 176.286 400.079 174.487 402.319C172.106 405.279 169.717 408.228 167.304 411.163C166.165 412.55 164.955 413.88 163.798 415.256C163.205 415.961 162.605 416.667 162.175 417.492C161.614 417.513 161.053 417.552 160.496 417.549C159.219 417.549 157.952 417.383 156.686 417.242C155.067 417.062 153.433 416.995 151.807 416.839C149.069 416.578 146.335 416.236 143.594 416.021C141.206 415.834 138.821 415.619 136.447 415.284C136.309 414.571 136.613 413.964 136.973 413.403C137.862 412.017 138.486 410.49 139.283 409.061C140.183 407.452 141.199 405.907 142.137 404.319C149.616 391.693 157.088 379.064 164.56 366.435C170.36 356.631 176.075 346.778 181.715 336.882C184.411 332.159 187.049 327.403 189.558 322.574C190.362 321.025 191.099 319.448 191.72 317.815C192.232 316.474 192.902 315.197 193.445 313.871C195.174 309.644 196.765 305.369 198.067 300.991C199.294 296.856 200.801 292.824 202.307 288.788C205.831 279.362 209.797 270.133 214.291 261.13C216.584 256.537 219.068 252.05 221.678 247.633C222.225 246.705 222.849 245.823 223.453 244.934C224.317 243.661 225.217 242.412 226.063 241.128C226.751 240.087 227.601 239.205 228.522 238.386C229.104 237.868 229.746 237.452 230.568 237.441C230.925 237.48 231.277 237.547 231.634 237.557C237.218 237.699 242.803 237.607 248.387 237.811C251.301 237.921 254.222 237.769 257.143 237.695C262.061 237.572 266.986 237.6 271.903 237.554C272.517 237.547 273.142 237.54 273.738 237.427C274.38 237.307 274.951 237.42 275.523 237.674L275.53 237.684Z" fill="#696E66"/>
<path d="M229.418 144.322C230.935 144.131 232.452 143.923 233.969 143.754C235.338 143.602 236.71 143.489 238.082 143.373C239.606 143.239 241.13 143.119 242.654 142.992C243.787 143.239 244.693 143.919 245.575 144.607C247.304 145.951 248.994 147.348 250.701 148.724C251.216 149.141 251.735 149.553 252.261 149.956C252.479 150.121 252.737 150.143 252.97 149.973C253.178 149.825 253.365 149.652 253.566 149.493C256.12 147.461 258.674 145.433 261.225 143.404C261.63 143.083 262.064 142.826 262.583 142.741C263.031 142.826 263.475 142.935 263.923 142.995C266.135 143.284 268.347 143.567 270.559 143.845C271.716 143.99 272.873 144.149 274.034 144.262C274.546 144.311 275.036 144.41 275.516 144.59C275.544 145.62 275.777 146.618 276.052 147.602C276.355 148.686 276.69 149.762 277.022 150.834C279.015 157.23 281.005 163.626 283.009 170.018C283.545 171.725 284.116 173.422 284.674 175.123C283.626 176.53 283.379 178.231 283.065 179.871C282.335 183.688 281.693 187.523 281.097 191.365C280.356 196.117 279.509 200.847 278.655 205.582C278.504 206.425 278.43 207.314 278.003 208.093C276.803 208.171 275.678 207.832 274.542 207.515C273.166 207.127 271.773 206.785 270.376 206.481C267.677 205.896 264.964 205.437 262.209 205.169C259.87 204.943 257.538 204.629 255.182 204.622C253.95 204.622 252.723 204.594 251.492 204.594C247.551 204.587 243.617 204.633 239.702 205.211C236.558 205.673 233.447 206.227 230.448 207.31C229.722 207.571 228.991 207.804 228.201 207.674C227.704 207.155 227.637 206.502 227.573 205.825C227.298 202.922 226.995 200.018 226.709 197.115C226.575 195.739 226.465 194.36 226.324 192.984C226.169 191.456 225.986 189.932 225.816 188.405C225.675 187.131 225.552 185.858 225.389 184.588C225.061 181.998 224.807 179.398 224.172 176.858C224.038 176.319 223.968 175.744 223.53 175.327C223.594 174.925 223.636 174.516 223.724 174.117C224.059 172.618 224.426 171.129 224.747 169.63C225.841 164.479 226.938 159.325 228.004 154.168C228.677 150.915 229.393 147.662 229.415 144.315L229.418 144.322Z" fill="#8989DE"/>
<path d="M229.419 144.322C229.401 147.669 228.681 150.922 228.007 154.175C226.942 159.332 225.848 164.483 224.751 169.637C224.434 171.136 224.063 172.628 223.728 174.124C223.64 174.523 223.598 174.929 223.534 175.334C221.075 174.855 218.627 174.304 216.151 173.927C214.842 173.729 213.522 173.514 212.182 173.521C210.337 173.528 208.513 173.221 206.686 172.988C205.62 172.854 204.548 172.837 203.479 172.657C202.071 172.42 200.628 172.392 199.2 172.255C198.385 172.177 197.573 172.064 196.762 171.962C195.442 171.792 194.127 171.612 192.807 171.454C191.689 171.316 190.571 171.193 189.452 171.073C187.265 170.843 185.074 170.639 182.887 170.395C180.294 170.106 177.705 169.792 175.115 169.475C172.678 169.175 170.24 168.878 167.809 168.547C165.227 168.194 162.655 167.739 160.066 167.443C158.697 167.284 157.332 167.026 155.938 167.065C152.396 167.164 148.879 166.614 145.337 166.705C143.203 166.335 141.03 166.592 138.896 166.367C136.179 166.077 133.459 166.264 130.754 166.067C124.449 165.612 118.138 165.947 111.83 165.841C111.368 165.834 110.881 165.778 110.451 165.901C109.322 166.229 108.236 166.07 107.114 165.855C101.939 164.864 96.7562 163.901 91.6163 162.719C90.2722 162.408 88.8963 162.169 87.6475 161.537C85.9718 160.694 84.9205 159.406 84.917 157.445C84.917 156.679 84.9346 155.914 85.1004 155.152C85.231 154.559 85.2169 153.928 85.2204 153.314C85.2274 151.871 85.4709 150.46 85.8025 149.063C86.2152 147.313 86.9137 146.717 88.6741 146.699C91.8032 146.671 94.943 146.805 98.065 146.65C104.115 146.35 110.176 146.625 116.215 146.329C121.243 146.082 126.27 146.304 131.286 146.05C136.874 145.764 142.469 145.987 148.05 145.733C156.976 145.323 165.904 145.715 174.823 145.419C184.979 145.08 195.139 145.292 205.296 145.147C208.104 144.801 210.94 145.038 213.741 144.798C216.51 144.558 219.28 144.703 222.038 144.512C223.982 144.378 225.926 144.283 227.873 144.283C228.385 144.283 228.896 144.314 229.412 144.329L229.419 144.322Z" fill="#FFB68B"/>
<path d="M284.682 175.123C284.124 173.422 283.553 171.725 283.016 170.018C281.013 163.626 279.023 157.23 277.03 150.834C276.695 149.761 276.363 148.685 276.06 147.602C275.785 146.618 275.552 145.62 275.523 144.59C276.702 144.579 277.884 144.491 279.044 144.798C279.143 144.822 279.249 144.829 279.351 144.829C282.53 144.844 285.687 145.232 288.876 145.221C299.604 145.175 310.336 145.045 321.057 145.285C330.444 145.496 339.838 145.239 349.219 145.584C354.553 145.782 359.89 145.584 365.214 145.881C370.548 146.181 375.889 145.881 381.209 146.188C386.85 146.512 392.498 146.205 398.128 146.498C402.541 146.731 406.948 146.636 411.354 146.678C412.32 146.689 413.029 147.017 413.608 147.75C413.837 148.043 413.968 148.371 414.045 148.724C414.222 149.521 414.455 150.319 414.536 151.127C414.698 152.756 414.776 154.393 414.892 156.027C414.917 156.383 414.91 156.753 415.009 157.092C415.146 157.568 415.076 158.006 414.927 158.447C414.458 159.868 413.668 161.008 412.218 161.597C411.026 162.08 409.794 162.437 408.539 162.694C403.078 163.823 397.606 164.92 392.141 166.028C391.99 166.06 391.838 166.098 391.686 166.095C390.092 166.028 388.525 166.342 386.941 166.444C383.922 166.635 380.895 166.649 377.882 166.836C375.321 166.995 372.749 166.889 370.202 167.114C367.232 167.379 364.251 167.189 361.291 167.436C358.419 167.679 355.544 167.495 352.687 167.732C349.716 167.979 346.739 167.838 343.775 168.049C341.934 168.18 340.092 168.205 338.251 168.307C337.281 168.363 336.318 168.501 335.355 168.628C333.379 168.892 331.407 169.203 329.432 169.453C327.403 169.711 325.364 169.905 323.332 170.159C321.304 170.413 319.279 170.706 317.254 170.977C316.34 171.101 315.423 171.161 314.509 171.302C312.488 171.612 310.441 171.761 308.413 172.015C306.384 172.269 304.363 172.586 302.335 172.844C300.306 173.098 298.26 173.26 296.239 173.556C294.217 173.853 292.168 173.934 290.164 174.406C288.372 174.83 286.523 174.95 284.689 175.123H284.682Z" fill="#FFB68B"/>
<path d="M228.205 207.674C228.995 207.801 229.726 207.571 230.452 207.31C233.451 206.231 236.562 205.677 239.706 205.211C243.621 204.633 247.555 204.59 251.495 204.594C252.727 204.594 253.954 204.622 255.186 204.622C257.542 204.626 259.874 204.94 262.213 205.169C264.968 205.437 267.684 205.896 270.38 206.481C271.777 206.785 273.17 207.13 274.546 207.515C275.682 207.832 276.807 208.171 278.007 208.093C278.102 209.381 277.689 210.623 277.643 211.896C277.636 212.147 277.52 212.394 277.502 212.648C277.372 214.327 277.372 216.027 277.104 217.686C276.765 219.763 277.037 221.88 276.596 223.94C276.574 224.039 276.582 224.145 276.574 224.247C276.451 226.286 276.356 228.329 276.197 230.364C276.074 231.941 275.855 233.508 275.703 235.081C275.618 235.945 275.587 236.817 275.53 237.685C274.959 237.427 274.387 237.314 273.745 237.438C273.145 237.55 272.525 237.558 271.911 237.565C266.99 237.61 262.068 237.582 257.151 237.706C254.233 237.78 251.312 237.928 248.395 237.822C242.81 237.614 237.226 237.706 231.641 237.568C231.285 237.558 230.932 237.494 230.576 237.452C230.657 236.478 230.604 235.526 230.438 234.552C230.209 233.194 230.138 231.807 230.004 230.435C229.828 228.604 229.658 226.773 229.486 224.942C229.475 224.84 229.454 224.738 229.457 224.635C229.535 222.328 229.105 220.049 229.069 217.742C229.041 215.957 228.777 214.182 228.583 212.408C228.413 210.838 228.046 209.275 228.201 207.677L228.205 207.674Z" fill="#FFB78A"/>
<path d="M236.563 115.916C236.489 115.665 236.383 115.419 236.492 115.15C236.464 114.784 236.439 114.42 236.411 114.053C236.552 111.383 236.482 108.712 236.45 106.042C237.618 105.012 238.792 103.988 239.946 102.941C240.235 102.68 240.613 102.472 240.697 102.034C240.934 101.819 241.174 101.6 241.41 101.385C242.041 101.205 242.645 100.986 243.329 100.986C249.503 101.011 255.68 101.015 261.854 100.986C262.743 100.983 263.406 101.251 264.023 101.872C264.436 102.288 264.778 102.867 265.473 102.916L265.501 102.944C266.387 104.14 267.491 105.107 268.669 105.996C268.652 107.975 268.627 109.95 268.616 111.93C268.616 112.229 268.69 112.529 268.733 112.829C268.45 113.577 268.645 114.35 268.606 115.108C268.468 115.553 268.091 115.824 267.837 116.188C267.731 116.339 267.597 116.597 267.653 116.72C267.95 117.345 267.724 118.107 268.193 118.675C268.172 118.985 268.154 119.299 268.133 119.61C267.621 119.98 267.011 120.985 266.99 121.564C266.976 121.956 266.884 122.379 267.265 122.679C267.237 122.887 267.209 123.099 267.18 123.307C266.972 123.345 266.817 123.455 266.676 123.617C266.221 124.132 266.2 124.852 265.872 125.395C264.834 127.131 264.08 129.032 262.746 130.595C262.372 131.033 261.906 131.53 262.051 132.235C261.536 132.218 261.049 132.31 260.555 132.489C258.474 133.241 256.311 133.505 254.106 133.477C252.932 133.463 251.75 133.414 250.579 133.491C249.185 133.583 247.862 133.043 246.476 133.121C246.243 133.135 245.996 132.969 245.763 132.87C244.962 132.525 244.116 132.355 243.262 132.232C243.262 131.724 243.308 131.219 242.895 130.796C242.49 130.38 242.084 130.017 241.449 130.076C240.969 129.731 240.757 129.254 240.75 128.672C240.838 128.119 240.503 127.699 240.295 127.24C240.031 126.644 239.477 126.182 239.498 125.452C239.501 125.321 239.385 125.159 239.279 125.06C238.792 124.615 238.627 124.083 238.62 123.42C238.609 122.682 238.316 122.351 237.494 121.769C237.469 121.56 237.445 121.352 237.424 121.144C237.491 121.07 237.6 120.999 237.614 120.918C237.738 120.075 237.932 119.218 237.353 118.452C237.124 118.149 237.11 117.8 237.103 117.447C237.099 117.094 237.103 116.741 237.071 116.389C237.046 116.092 236.82 115.979 236.559 115.919L236.563 115.916Z" fill="#FFB689"/>
<path d="M136.447 415.294C138.822 415.633 141.203 415.845 143.595 416.032C146.336 416.247 149.07 416.589 151.807 416.85C153.43 417.005 155.064 417.072 156.686 417.252C157.956 417.393 159.219 417.555 160.496 417.559C161.057 417.559 161.618 417.52 162.176 417.503C162.19 420.734 162.225 423.965 162.204 427.197C162.197 428.061 161.996 428.922 161.915 429.786C161.812 430.869 161.117 431.406 160.168 431.677C159.329 431.921 158.464 431.998 157.586 431.995C153.839 431.984 150.093 431.995 146.346 431.998C143.369 431.998 140.395 432.009 137.418 431.998C135.879 431.995 134.952 431.222 134.645 429.698C134.553 429.25 134.532 428.781 134.528 428.322C134.511 426.731 134.518 425.14 134.507 423.549C134.49 420.79 135.149 418.176 136.148 415.629C136.201 415.495 136.345 415.4 136.447 415.287V415.294Z" fill="#FFB68B"/>
<path d="M342.625 417.428C343.697 417.636 344.77 417.516 345.839 417.425C347.723 417.262 349.599 417.072 351.48 416.885C353.057 416.73 354.63 416.578 356.203 416.398C357.523 416.246 358.853 416.236 360.172 416.049C361.837 415.816 363.534 415.795 365.21 415.626C366.272 415.52 367.351 415.474 368.36 415.058C369.373 417.308 370.138 419.623 370.198 422.12C370.216 422.836 370.216 423.549 370.382 424.262C370.473 424.653 370.491 425.091 370.417 425.486C370.177 426.756 370.23 428.04 370.184 429.317C370.163 429.895 370.068 430.435 369.75 430.926C369.306 431.61 368.762 432.019 367.866 432.002C365.097 431.945 362.314 432.121 359.562 431.913C355.053 431.571 350.545 431.737 346.04 431.726C344.481 431.723 343.786 430.746 342.964 429.786C342.872 429.68 342.84 429.504 342.823 429.356C342.71 428.287 342.547 427.221 342.516 426.149C342.463 424.459 342.442 422.762 342.523 421.072C342.579 419.859 342.576 418.642 342.625 417.428Z" fill="#FFB68B"/>
<path d="M241.455 130.073C242.087 130.013 242.496 130.376 242.901 130.793C243.314 131.216 243.265 131.72 243.268 132.228C242.676 133.068 243.036 133.999 243.021 134.895C243.021 135.008 243.17 135.188 243.29 135.227C244.006 135.474 244.634 135.996 245.452 135.94C245.815 135.915 246.151 136.049 246.5 136.137C247.833 136.476 249.184 136.811 250.557 136.832C252.49 136.86 254.427 136.984 256.364 136.582C258.455 136.144 260.593 135.94 262.551 134.994C262.703 137.577 262.622 140.159 262.59 142.741C262.071 142.826 261.634 143.083 261.232 143.404C258.678 145.433 256.124 147.465 253.573 149.493C253.372 149.652 253.185 149.825 252.977 149.973C252.744 150.139 252.486 150.121 252.268 149.956C251.739 149.553 251.224 149.141 250.708 148.724C249.001 147.352 247.311 145.951 245.583 144.607C244.701 143.923 243.794 143.242 242.662 142.992C242.662 140.938 242.665 138.889 242.665 136.836C242.665 136.271 242.665 135.717 242.492 135.164C242.281 134.469 242.372 133.735 242.401 133.022C242.432 132.123 242.369 131.29 241.639 130.637C241.512 130.524 241.519 130.263 241.462 130.069L241.455 130.073Z" fill="#FFB88D"/>
<path d="M236.411 114.053C236.439 114.417 236.463 114.783 236.492 115.15C236.012 114.992 235.786 114.575 235.536 114.191C233.497 111.065 232.103 107.679 231.362 104.013C230.89 101.681 230.685 99.3283 230.883 96.9717C231.443 90.2125 234.784 85.2348 240.718 81.9786C241.755 81.4106 242.859 80.9979 243.981 80.6275C244.514 80.4511 244.584 80.2747 244.454 79.6926C244.387 79.3928 244.334 79.0858 244.232 78.7966C243.635 77.1068 243.988 75.4381 244.457 73.8153C244.909 72.256 245.872 70.979 247.128 69.9418C251.954 65.9519 259.436 68.3543 260.911 74.5879C261.324 76.3377 261.267 78.031 260.675 79.7208C260.481 80.2782 260.586 80.4723 261.14 80.6275C262.985 81.1496 264.679 81.9786 266.259 83.0511C269.974 85.5699 272.429 89.0095 273.675 93.3063C274.306 95.49 274.433 97.7267 274.299 100.006C274.003 105.093 272.436 109.742 269.72 114.025C269.448 114.452 269.244 114.939 268.764 115.203C268.736 115.133 268.686 115.101 268.612 115.112C268.651 114.35 268.457 113.577 268.739 112.833C269.558 113.08 269.565 113.083 269.967 112.494C270.196 112.155 270.408 111.806 270.609 111.45C271.914 109.16 272.44 106.581 273.322 104.133C273.572 103.438 273.399 102.704 273.477 101.995C273.488 101.893 273.498 101.791 273.526 101.692C274.006 99.9774 273.784 98.2205 273.71 96.4919C273.675 95.6523 273.59 94.7492 273.343 93.9272C273.008 92.8054 272.535 91.7153 272.059 90.6429C271.456 89.2811 270.588 88.0958 269.663 86.9105C268.207 85.0443 266.404 83.6861 264.372 82.5748C263.246 81.961 262.1 81.3895 260.848 81.0614C260.41 80.945 259.941 80.7862 259.909 80.1936C260.068 79.7632 260.223 79.3328 260.389 78.9059C260.558 78.4614 260.558 78.0063 260.481 77.5513C260.445 77.3361 260.315 77.1738 260.089 77.142C258.487 76.8986 256.921 76.44 255.277 76.4753C253.901 76.5035 252.522 76.5352 251.146 76.4682C249.093 76.3694 247.1 76.7328 245.103 77.1068C244.648 77.1914 244.524 77.3572 244.514 77.8405C244.503 78.2498 244.528 78.6484 244.704 79.0364C244.87 79.4033 244.987 79.7949 245.128 80.1759C245.099 80.631 244.898 80.9626 244.44 81.079C243.399 81.3401 242.44 81.7846 241.476 82.2573C240.93 82.5254 240.383 82.783 239.847 83.0793C238.428 83.8625 237.356 85.0302 236.227 86.1414C234.103 88.2369 232.742 90.7628 231.955 93.6203C231.451 95.4512 231.101 97.2998 231.26 99.2154C231.306 99.7763 231.239 100.351 231.352 100.898C231.567 101.946 231.807 102.983 231.916 104.055C231.987 104.758 232.188 105.453 232.392 106.133C232.632 106.913 232.96 107.664 233.218 108.441C233.754 110.056 234.594 111.524 235.391 113.013C235.61 113.422 235.8 113.986 236.418 114.064L236.411 114.053Z" fill="#8A5025"/>
<path d="M262.552 134.994C260.594 135.94 258.453 136.144 256.364 136.582C254.428 136.987 252.491 136.864 250.558 136.832C249.189 136.811 247.834 136.476 246.501 136.137C246.151 136.049 245.816 135.915 245.453 135.94C244.634 135.996 244.006 135.474 243.29 135.227C243.174 135.188 243.022 135.008 243.022 134.896C243.036 134.003 242.676 133.068 243.269 132.229C244.126 132.352 244.97 132.521 245.77 132.867C246.003 132.969 246.25 133.132 246.483 133.118C247.869 133.043 249.192 133.583 250.586 133.488C251.757 133.41 252.939 133.46 254.114 133.474C256.318 133.502 258.481 133.237 260.562 132.486C261.056 132.306 261.543 132.214 262.058 132.232C262.227 132.243 262.397 132.25 262.566 132.26C262.675 133.17 262.718 134.081 262.548 134.991L262.552 134.994Z" fill="#E8A47C"/>
<path d="M262.569 132.264C262.4 132.253 262.231 132.246 262.061 132.235C261.917 131.533 262.382 131.036 262.756 130.595C264.09 129.029 264.845 127.131 265.882 125.395C266.206 124.852 266.228 124.132 266.686 123.617C266.827 123.455 266.982 123.345 267.191 123.307C267.162 123.504 267.177 123.712 267.106 123.892C266.132 126.344 264.972 128.697 263.381 130.821C263.053 131.258 262.672 131.689 262.569 132.264Z" fill="#FFB88D"/>
<path d="M237.501 121.765C238.323 122.347 238.615 122.679 238.626 123.416C238.637 124.076 238.802 124.609 239.286 125.057C239.391 125.155 239.511 125.318 239.504 125.448C239.483 126.178 240.034 126.644 240.302 127.237C240.506 127.699 240.845 128.115 240.757 128.669C240.464 128.56 240.185 128.415 240.034 128.129C238.972 126.094 237.85 124.083 237.497 121.765H237.501Z" fill="#FFB88D"/>
<path d="M236.562 115.916C236.823 115.976 237.049 116.089 237.074 116.385C237.102 116.738 237.102 117.091 237.106 117.444C237.109 117.8 237.127 118.146 237.356 118.449C237.935 119.215 237.741 120.072 237.617 120.915C237.607 121 237.494 121.067 237.427 121.141C237.148 120.95 237.088 120.643 237.046 120.354C236.83 118.879 236.34 117.437 236.562 115.913V115.916Z" fill="#FFB88D"/>
<path d="M268.612 115.108C268.686 115.101 268.735 115.133 268.764 115.2C268.82 116.304 268.481 117.362 268.39 118.449C268.383 118.526 268.266 118.597 268.199 118.671C267.73 118.103 267.952 117.341 267.659 116.717C267.599 116.593 267.733 116.336 267.843 116.184C268.097 115.824 268.474 115.549 268.612 115.104V115.108Z" fill="#FFB88D"/>
<path d="M267.278 122.679C266.897 122.379 266.989 121.952 267.003 121.564C267.024 120.985 267.635 119.98 268.146 119.609C268.047 120.685 267.913 121.751 267.282 122.679H267.278Z" fill="#FFB88D"/>
<path d="M259.912 80.1902C259.944 80.7829 260.413 80.9452 260.851 81.058C262.103 81.3897 263.25 81.9576 264.375 82.5715C266.407 83.6827 268.21 85.0409 269.667 86.9071C270.591 88.0889 271.455 89.2742 272.062 90.6395C272.538 91.7155 273.008 92.802 273.346 93.9239C273.593 94.7458 273.678 95.6454 273.713 96.4886C273.787 98.2137 274.009 99.9705 273.53 101.689C273.501 101.787 273.491 101.89 273.48 101.992C273.403 102.705 273.579 103.435 273.325 104.13C272.443 106.575 271.917 109.157 270.612 111.446C270.411 111.803 270.199 112.152 269.97 112.491C269.568 113.08 269.557 113.076 268.742 112.829C268.704 112.529 268.626 112.23 268.63 111.93C268.637 109.951 268.661 107.972 268.683 105.996C268.845 105.809 268.82 105.604 268.668 105.446C267.956 104.712 267.229 103.992 266.509 103.265C266.234 102.987 265.874 102.959 265.515 102.941L265.486 102.913C265.402 102.225 264.823 101.9 264.407 101.466C263.557 100.577 262.565 100.161 261.274 100.175C255.425 100.232 249.576 100.2 243.727 100.2C243.469 100.2 243.215 100.203 242.958 100.2C242.136 100.189 241.579 100.521 241.423 101.382C241.187 101.597 240.947 101.816 240.711 102.031C240.217 101.995 239.857 102.225 239.518 102.563C238.957 103.135 238.382 103.682 237.705 104.14C237.176 104.497 236.763 105.04 236.329 105.527C236.185 105.689 236.269 105.904 236.46 106.038C236.491 108.709 236.562 111.379 236.421 114.05C235.804 113.972 235.613 113.408 235.394 112.999C234.601 111.513 233.757 110.042 233.221 108.427C232.964 107.65 232.636 106.899 232.396 106.119C232.188 105.442 231.99 104.744 231.919 104.042C231.81 102.973 231.57 101.935 231.355 100.884C231.242 100.341 231.309 99.7624 231.263 99.2014C231.105 97.2859 231.454 95.4373 231.958 93.6064C232.745 90.7489 234.107 88.223 236.23 86.1275C237.359 85.0162 238.432 83.8485 239.85 83.0654C240.386 82.769 240.933 82.5115 241.48 82.2434C242.443 81.7707 243.402 81.3297 244.443 81.0651C244.905 80.9487 245.106 80.6171 245.131 80.162C246.151 80.1443 247.195 80.2572 248.183 80.0703C248.997 79.9186 249.795 79.8657 250.606 79.8621C252.137 79.8551 253.672 79.8621 255.203 79.8621C255.559 79.8621 255.944 79.788 256.268 79.8939C257.468 80.2855 258.695 80.1302 259.912 80.1831V80.1902Z" fill="#804414"/>
<path d="M241.413 101.382C241.568 100.524 242.122 100.189 242.948 100.2C243.205 100.2 243.459 100.2 243.717 100.2C249.566 100.2 255.415 100.232 261.264 100.175C262.555 100.161 263.55 100.577 264.397 101.466C264.813 101.9 265.391 102.228 265.476 102.913C264.781 102.86 264.442 102.285 264.026 101.865C263.409 101.244 262.749 100.972 261.857 100.979C255.683 101.011 249.506 101.004 243.332 100.979C242.644 100.979 242.041 101.198 241.413 101.378V101.382Z" fill="#8A5025"/>
<path d="M236.453 106.038C236.263 105.904 236.178 105.689 236.323 105.526C236.757 105.04 237.166 104.5 237.699 104.14C238.376 103.681 238.948 103.135 239.512 102.563C239.847 102.224 240.211 101.995 240.704 102.03C240.616 102.468 240.239 102.676 239.949 102.937C238.796 103.985 237.621 105.008 236.453 106.038Z" fill="#8A5025"/>
<path d="M265.504 102.944C265.864 102.962 266.224 102.99 266.499 103.269C267.222 103.992 267.945 104.715 268.658 105.449C268.809 105.604 268.834 105.812 268.672 105.999C267.494 105.11 266.386 104.144 265.504 102.948V102.944Z" fill="#8A5025"/>
<path d="M259.913 80.1902C258.696 80.1373 257.468 80.2926 256.269 79.901C255.944 79.7951 255.56 79.8727 255.203 79.8692C253.672 79.8692 252.138 79.8622 250.607 79.8692C249.795 79.8727 248.998 79.9257 248.183 80.0774C247.195 80.2608 246.151 80.1514 245.132 80.1691C244.994 79.7881 244.878 79.3965 244.708 79.0296C244.532 78.6415 244.511 78.2429 244.518 77.8337C244.528 77.3504 244.652 77.1846 245.107 77.0999C247.104 76.7224 249.097 76.3626 251.15 76.4614C252.522 76.5284 253.905 76.4967 255.281 76.4684C256.925 76.4332 258.491 76.8918 260.093 77.1352C260.319 77.1705 260.449 77.3327 260.485 77.5444C260.562 77.9995 260.562 78.4546 260.393 78.8991C260.227 79.3259 260.072 79.7563 259.913 80.1867V80.1902Z" fill="#63350E"/>
</svg>
