<svg width="500" height="500" viewBox="0 0 500 500" fill="none" xmlns="http://www.w3.org/2000/svg">
<path d="M233.782 225.44C236.657 216.931 238.372 208.048 240.46 199.285C244.03 196.833 248.363 196.318 252.247 194.667C257.531 192.423 263.955 192.028 266.626 185.043C268.291 189.396 271.18 191.27 274.779 192.465C279.904 194.169 284.963 196.081 290.05 197.905C288.964 207.578 290.537 217.185 293.232 226.209" fill="#8A8AD9"/>
<path d="M293.233 226.212C300.5 250.561 302.327 275.136 299.54 300.275C298.059 313.642 297.156 327.075 296.214 340.499C295.847 345.741 294.146 350.616 292.852 355.597C287.973 374.351 282.921 393.063 277.936 411.788C277.03 412.719 275.865 412.645 274.701 412.638C268.905 412.61 263.112 412.599 257.316 412.582C256.992 398.118 256.551 383.654 256.381 369.19C256.237 357.023 260.498 345.617 262.95 333.902C263.268 332.388 263.606 330.882 263.938 329.368C264.291 327.739 264.947 326.112 264.954 324.482C264.996 311.034 264.922 297.587 264.88 284.139C265.734 278.889 264.778 274.201 260.939 270.236C259.694 268.952 258.703 267.375 257.807 265.812C256.607 263.723 255.521 263.3 253.383 264.916C248.744 268.419 243.872 271.608 239.102 274.942C236.206 276.967 233.327 279.02 229.838 281.489C234.361 282.156 238.09 280.837 241.699 281.969C241.448 287.377 241.194 292.785 240.944 298.193C223.199 304.229 205.479 310.343 187.695 316.266C179.807 318.894 172.032 315.758 168 308.734C163.992 301.749 165.407 293.692 171.958 288.122C189.128 273.52 206.382 259.024 223.637 244.525C225.164 243.241 226.148 241.685 227.168 240.006C229.99 235.349 232.093 230.46 233.789 225.443" fill="#6A6D66"/>
<path d="M290.054 197.909C284.967 196.085 279.912 194.173 274.782 192.469C271.184 191.273 268.291 189.4 266.63 185.047C263.963 192.032 257.535 192.427 252.251 194.67C248.366 196.321 244.034 196.836 240.464 199.288C232.58 200.925 225.21 204.157 217.671 206.82C209.053 209.865 200.798 204.573 199.097 196.688C198.251 192.765 199.588 189.283 201.087 185.819C206.94 172.283 212.877 158.786 218.638 145.211C221.111 139.386 225.27 135.679 231.37 134.356C234.527 133.671 237.815 133.964 241.043 134.257C239.663 143.341 238.407 152.446 236.185 161.379C232.922 167.708 230.216 174.266 227.373 181.568C231.684 180.323 235.13 179.325 238.577 178.33C243.484 177.698 247.347 175.899 248.536 170.417C248.991 168.314 250.067 166.296 251.118 164.384C255.094 157.159 262.16 155.932 266.781 161.573C270.969 156.697 276.709 156.927 280.653 162.12C282.639 164.734 283.895 167.799 284.738 170.84C286.103 175.765 289.271 177.631 293.942 177.868C297.466 179.43 301.114 180.464 305.725 180.891C302.518 174.287 300.588 167.87 297.103 162.123C294.873 152.908 293.624 143.518 292.206 134.162C298.256 133.696 304.155 133.992 309.394 137.594C314.922 143.242 316.594 150.922 319.818 157.756C324.122 166.879 327.911 176.241 331.897 185.512C332.917 187.886 334.039 190.257 334.219 192.882C334.882 202.604 325.773 210.32 315.338 206.69C306.914 203.758 298.482 200.837 290.054 197.912V197.909Z" fill="#F7BB92"/>
<path d="M292.203 134.162C293.621 143.521 294.87 152.908 297.099 162.126C296.045 167.376 294.993 172.622 293.938 177.871C289.264 177.634 286.096 175.768 284.734 170.843C283.891 167.803 282.635 164.74 280.649 162.123C276.705 156.93 270.965 156.701 266.778 161.576C262.157 155.935 255.09 157.163 251.115 164.388C250.063 166.3 248.987 168.318 248.532 170.42C247.343 175.902 243.484 177.702 238.573 178.333C237.776 172.685 236.979 167.033 236.185 161.382C238.408 152.45 239.663 143.344 241.043 134.26C245.64 134.19 250.236 134.119 254.833 134.049C258.615 141.88 262.393 149.709 266.566 158.352C270.796 149.603 274.557 141.824 278.317 134.045C280.353 134.02 282.392 133.999 284.428 133.975C287.02 134.038 289.61 134.102 292.203 134.165V134.162Z" fill="#8A8AD9"/>
<path d="M254.981 127.861C248.79 121.246 247.711 112.938 247.234 104.433C247.862 103.837 247.979 103.025 247.848 102.281C247.301 99.1837 249.005 98.1183 251.507 96.5766C261.518 90.3995 271.234 89.6269 281.154 96.5061C281.983 97.0811 283.034 97.3422 283.99 97.7196C284.978 98.1077 285.225 98.9508 285.373 99.8681C285.296 101.406 285.165 102.941 285.144 104.479C285.035 112.674 284.248 120.664 278.473 127.194C270.712 129.875 262.877 130.045 254.978 127.865L254.981 127.861Z" fill="#F7BB92"/>
<path d="M292.202 134.162C289.609 134.098 287.02 134.035 284.427 133.971C284.3 130.479 284.628 127.078 285.69 123.698C288.346 115.239 290.848 106.733 293.395 98.2418C295.628 90.7982 295.13 83.7285 290.251 77.3855C286.985 73.1381 282.081 71.4024 277.393 69.3704C282.998 66.4847 288.717 64.368 295.19 66.2342C304.691 68.9718 310.416 77.9853 308.733 87.7537C307.767 93.3594 305.918 98.7639 305.174 104.437C303.886 114.272 305.047 123.786 308.183 133.132C308.673 134.589 308.987 136.106 309.386 137.594C304.147 133.992 298.249 133.696 292.199 134.162H292.202Z" fill="#7A4821"/>
<path d="M285.376 99.861C284.879 99.1554 284.367 98.6862 283.542 98.1288C282.716 97.5714 281.983 97.074 281.154 96.499C271.237 89.6233 261.518 90.3959 251.506 96.5695C249.005 98.1112 247.301 99.1766 247.848 102.274C247.978 103.018 247.862 103.83 247.234 104.426C246.8 101.618 246.423 98.8026 245.918 96.0051C243.131 80.571 255.094 68.2555 270.574 70.7073C271.646 70.8767 272.588 70.8485 273.569 70.4957C273.682 71.7939 274.8 72.0938 275.703 72.4924C282.325 75.3993 285.807 80.818 287.144 87.5737C287.966 91.7294 288.382 96.1215 285.373 99.861H285.376Z" fill="#7A4821"/>
<path d="M264.876 284.138C264.915 297.586 264.992 311.034 264.95 324.482C264.943 326.112 264.287 327.738 263.934 329.368C260.904 328.331 260.339 325.53 259.429 323.008C256.78 315.68 254.025 308.445 247.883 303.111C245.717 301.227 243.455 299.548 240.94 298.193C241.194 292.785 241.444 287.377 241.695 281.969C245.953 281.852 250.267 282.103 254.458 281.51C258.452 280.949 261.863 281.415 264.872 284.138H264.876Z" fill="#F7BB92"/>
<path d="M257.313 412.578C263.109 412.596 268.902 412.606 274.698 412.634C275.862 412.641 277.026 412.716 277.933 411.784C278.476 417.093 280.441 422.061 281.609 427.222C282.526 431.268 280.448 434.284 276.427 434.387C271.897 434.503 267.36 434.493 262.831 434.387C259.003 434.298 257.274 432.475 257.236 428.502C257.183 423.193 257.281 417.884 257.313 412.574V412.578Z" fill="#F7BB92"/>
<path d="M285.376 99.8609C288.381 96.1214 287.969 91.7258 287.147 87.5736C285.81 80.8179 282.328 75.3992 275.706 72.4923C274.803 72.0972 273.685 71.7973 273.572 70.4956C274.845 70.1181 276.119 69.7406 277.392 69.3667C282.081 71.3952 286.984 73.1308 290.251 77.3818C295.13 83.7283 295.627 90.798 293.394 98.2381C290.847 106.729 288.346 115.238 285.69 123.695C284.628 127.074 284.296 130.475 284.427 133.967C282.391 133.992 280.352 134.013 278.317 134.038C278.246 133.276 278.179 132.514 278.109 131.752C278.228 130.228 278.352 128.708 278.472 127.184C284.247 120.654 285.034 112.663 285.143 104.468C285.164 102.93 285.295 101.395 285.372 99.8573L285.376 99.8609Z" fill="#5C3717"/>
<path d="M278.112 131.756C278.179 132.518 278.25 133.28 278.317 134.042C274.556 141.82 270.796 149.599 266.566 158.348C262.396 149.709 258.614 141.877 254.833 134.045C254.892 133.262 254.956 132.482 255.016 131.699C262.71 133.957 270.408 133.83 278.109 131.752L278.112 131.756Z" fill="#F7BB92"/>
<path d="M278.113 131.756C270.408 133.83 262.71 133.961 255.02 131.703C255.009 130.422 254.995 129.142 254.984 127.861C262.883 130.041 270.718 129.872 278.479 127.191C278.359 128.715 278.236 130.235 278.116 131.759L278.113 131.756Z" fill="#DEA882"/>
</svg>
