<svg width="500" height="501" viewBox="0 0 500 501" fill="none" xmlns="http://www.w3.org/2000/svg">
<path d="M220.873 231.431L222.301 254.496C222.301 254.496 242.404 262.108 251.087 262.108C259.771 262.108 285.346 254.496 285.346 254.496L286.773 231.431H220.873Z" fill="#3D3C3C"/>
<path d="M285.346 151.539C287.606 137.888 276.424 113.078 276.424 113.078C271.072 112.365 265.481 112.128 261.317 112.128H246.329C242.047 112.128 236.575 112.365 231.222 113.078C231.222 113.078 220.04 138.006 222.301 151.539C224.442 164.241 228.01 182.878 220.873 231.43H253.823H286.773C279.636 182.878 283.205 164.241 285.346 151.539Z" fill="#FF8AA0"/>
<path d="M262.913 98.4932H243.598C246.569 108.232 243.826 112.615 243.826 112.615C243.826 112.615 244.398 118.945 253.313 118.945C262.113 118.945 262.685 112.615 262.685 112.615C262.685 112.615 259.942 108.232 262.913 98.4932Z" fill="#ECAD83"/>
<path d="M273.139 71.2798C273.139 47.1946 264.43 41.6826 253.823 41.6826C243.105 41.6826 234.508 47.1946 234.508 71.2798C234.508 79.428 235.848 85.7788 237.857 90.6917C242.323 101.476 250.027 105.311 253.823 105.311C257.62 105.311 265.323 101.476 269.79 90.6917C271.799 85.7788 273.139 79.428 273.139 71.2798Z" fill="#F6BB92"/>
<path d="M259.503 94.7118C259.503 94.7118 256.952 96.2216 253.822 96.2216C250.691 96.2216 248.141 94.7118 248.141 94.7118C248.141 94.3 249.996 91.8294 251.155 91.6922C251.851 91.5549 253.822 92.3785 253.822 92.3785C253.822 92.3785 255.677 91.5549 256.488 91.6922C257.648 91.8294 259.503 94.7118 259.503 94.7118Z" fill="#D6876B"/>
<path d="M259.503 94.9221C259.503 94.9221 256.952 97.3569 253.822 97.3569C250.691 97.3569 248.141 94.9221 248.141 94.9221C248.141 94.9221 248.72 94.1917 252.083 93.9482C252.662 93.9482 253.358 94.4352 253.822 94.4352C254.285 94.4352 254.865 93.9482 255.329 93.9482C258.807 94.1917 259.503 94.9221 259.503 94.9221Z" fill="#CC785E"/>
<path d="M253.824 50.7718C259.471 50.7718 264.049 47.4652 264.049 43.3864C264.049 39.3075 259.471 36.001 253.824 36.001C248.176 36.001 243.598 39.3075 243.598 43.3864C243.598 47.4652 248.176 50.7718 253.824 50.7718Z" fill="#4C230C"/>
<path d="M275.412 72.3604C275.412 48.1791 268.816 41.6826 253.824 41.6826C238.833 41.6826 232.236 48.2994 232.236 72.3604C232.236 72.3604 264.259 65.3827 264.259 56.6004C264.259 65.503 275.412 72.3604 275.412 72.3604Z" fill="#602F0F"/>
<path d="M231.379 79.6439C232.442 86.1407 233.859 86.3769 235.868 86.0226L233.741 71.9658C231.733 72.3202 230.198 73.1471 231.379 79.6439Z" fill="#F6BB92"/>
<path d="M273.904 71.9658L271.777 86.0226C273.785 86.3769 275.085 86.0226 276.266 79.6439C277.447 73.1471 275.912 72.3202 273.904 71.9658Z" fill="#F6BB92"/>
<path d="M234.925 73.2675C234.807 72.5588 234.807 71.9681 234.807 71.3775C234.807 70.6688 234.925 70.1963 234.925 70.1963L232.562 71.1413C232.562 71.4956 232.562 71.85 232.562 72.2044C232.562 72.2044 232.799 72.0863 233.271 71.9681C233.271 71.9681 233.271 71.9681 233.153 71.9681C233.507 72.5588 233.862 73.3856 234.334 74.685C234.334 74.685 235.279 75.3937 234.925 73.2675Z" fill="#602F0F"/>
<path d="M272.725 71.4956C272.725 71.9681 272.725 72.6769 272.607 73.2675C272.252 75.3937 273.197 74.685 273.197 74.685C273.552 73.3856 274.024 72.5588 274.379 71.9681C274.851 72.0863 275.087 72.2044 275.087 72.2044C275.087 71.85 275.087 71.4956 275.087 71.1413L272.725 70.1963C272.607 70.1963 272.725 70.6688 272.725 71.4956Z" fill="#602F0F"/>
<path d="M278.885 456.189C274.185 455.013 263.024 445.958 261.496 445.253C258.912 443.959 255.035 442.783 255.035 438.667C255.035 435.727 255.505 432.905 255.27 431.024C254.565 421.263 250.453 402.448 249.63 390.57C249.513 387.866 249.395 385.043 249.278 382.103C249.16 370.461 273.01 377.517 272.54 381.751C271.13 398.685 267.841 428.084 266.548 434.081C266.548 434.081 283.937 446.311 283.349 450.78C283.232 453.367 283.584 457.365 278.885 456.189Z" fill="#F6BB92"/>
<path d="M251.963 343.564C249.986 356.922 249.172 369.811 249.288 381.411C253.126 380.005 268.828 379.888 272.318 381.059C272.667 376.841 272.899 373.443 273.015 371.334C273.364 360.789 273.364 344.384 273.364 344.384C274.179 334.894 291.393 269.394 290.113 255.099C288.834 240.804 286.391 231.431 286.391 231.431H271.271C268.247 240.804 251.847 238.695 250.219 248.186C251.149 268.926 252.545 300.093 251.847 315.912C251.382 325.285 251.963 343.564 251.963 343.564Z" fill="#3D3C3C"/>
<path d="M259.063 375.409C262.5 360.96 261.552 354.784 261.552 354.784C262.026 351.871 262.026 348.375 258.707 346.044C256.337 344.296 253.729 343.131 252.307 341.849C244.721 335.557 232.749 326.468 224.215 318.195C221.845 315.864 220.185 314 217.933 311.553C209.873 303.163 199.798 327.983 203.473 330.08C218.17 338.703 242.469 350.356 248.158 352.803C248.158 352.803 247.921 373.894 251.951 375.991C254.203 377.273 257.996 380.07 259.063 375.409Z" fill="#F6BB92"/>
<path d="M203.027 297.134C209.236 302.679 212.868 305.863 217.672 311.526C213.337 320.019 209.002 327.096 203.379 330.281C195.295 323.322 190.609 319.193 186.742 315.418C173.035 301.971 173.152 294.893 173.152 294.893C173.972 286.282 220.718 231.431 220.718 231.431H235.948C238.994 240.867 250.593 238.744 252.233 248.299C252.233 248.299 254.927 257.264 247.195 262.926C235.128 272.245 203.027 297.134 203.027 297.134Z" fill="#3D3C3C"/>
<path d="M254.415 144.733L254.297 172.847L261.03 174.382C273.079 177.69 284.891 180.289 297.058 182.297C310.878 184.305 320.328 185.84 327.061 186.313C331.195 186.549 335.094 185.014 335.566 183.596C336.039 182.179 333.794 176.745 332.022 172.256C327.888 161.389 306.035 123.353 295.286 117.683C287.608 113.667 276.15 113.194 276.15 113.194C276.15 113.194 281.229 140.127 284.3 140.245C287.372 140.363 289.734 144.379 297.53 153.475C302.137 159.263 305.444 162.924 310.524 169.303C310.524 169.303 300.483 167.531 261.384 165.523L256.659 143.907L254.415 144.733Z" fill="#F6BB92"/>
<path d="M253.117 144.733V172.847L246.502 174.382C234.454 177.69 222.759 180.289 210.475 182.297C196.654 184.305 187.204 185.84 180.471 186.313C176.337 186.549 172.439 185.014 171.966 183.596C171.494 182.179 173.738 176.745 175.51 172.256C179.644 161.389 201.497 123.353 212.246 117.683C219.924 113.667 231.383 113.194 231.383 113.194C231.383 113.194 226.303 140.127 223.232 140.245C220.161 140.363 217.798 144.379 210.002 153.475C205.395 159.263 202.088 162.924 197.008 169.303C197.008 169.303 207.049 167.531 246.03 165.523L250.755 143.907L253.117 144.733Z" fill="#F6BB92"/>
</svg>
