<svg width="500" height="500" viewBox="0 0 500 500" fill="none" xmlns="http://www.w3.org/2000/svg">
<path d="M222.088 236.8L223.297 257.255C223.297 257.255 240.327 264.007 247.682 264.007C255.038 264.007 276.703 257.255 276.703 257.255L277.912 236.8H222.088Z" fill="#3D3C3C"/>
<path d="M276.703 169.085C278.618 157.497 269.146 136.437 269.146 136.437C264.611 135.832 259.875 135.631 256.348 135.631H243.652C240.024 135.631 235.389 135.832 230.855 136.437C230.855 136.437 221.383 157.598 223.297 169.085C225.111 179.867 228.134 195.687 222.088 236.9H250H277.912C271.866 195.687 274.889 179.867 276.703 169.085Z" fill="#FF8AA0"/>
<path d="M258.464 123.942H241.435C244.055 132.003 241.636 135.631 241.636 135.631C241.636 135.631 242.14 140.871 250 140.871C257.759 140.871 258.263 135.631 258.263 135.631C258.263 135.631 255.844 132.003 258.464 123.942Z" fill="#ECAD83"/>
<path d="M267.432 100.564C267.432 80.3105 259.573 75.6753 250 75.6753C240.326 75.6753 232.567 80.3105 232.567 100.564C232.567 107.417 233.777 112.757 235.59 116.889C239.621 125.957 246.574 129.182 250 129.182C253.426 129.182 260.379 125.957 264.409 116.889C266.223 112.757 267.432 107.417 267.432 100.564Z" fill="#F6BB92"/>
<path d="M254.938 120.919C254.938 120.919 252.721 122.028 250 122.028C247.279 122.028 245.062 120.919 245.062 120.919C245.062 120.617 246.675 118.803 247.682 118.702C248.287 118.601 250 119.206 250 119.206C250 119.206 251.612 118.601 252.318 118.702C253.325 118.803 254.938 120.919 254.938 120.919Z" fill="#D6876B"/>
<path d="M254.938 120.919C254.938 120.919 252.721 122.934 250 122.934C247.279 122.934 245.062 120.919 245.062 120.919C245.062 120.919 245.566 120.314 248.489 120.113C248.992 120.113 249.597 120.516 250 120.516C250.403 120.516 250.907 120.113 251.31 120.113C254.333 120.314 254.938 120.919 254.938 120.919Z" fill="#CC785E"/>
<path d="M250 82.9305C255.064 82.9305 259.17 80.1334 259.17 76.683C259.17 73.2326 255.064 70.4355 250 70.4355C244.936 70.4355 240.83 73.2326 240.83 76.683C240.83 80.1334 244.936 82.9305 250 82.9305Z" fill="#4C230C"/>
<path d="M268.138 101.371C268.138 81.1166 262.596 75.6753 250 75.6753C237.404 75.6753 231.862 81.2174 231.862 101.371C231.862 101.371 258.767 95.5262 258.767 88.1703C258.767 95.6269 268.138 101.371 268.138 101.371Z" fill="#602F0F"/>
<path d="M230.854 107.719C231.761 113.261 232.971 113.462 234.684 113.16L232.87 101.169C231.157 101.471 229.847 102.177 230.854 107.719Z" fill="#F6BB92"/>
<path d="M267.13 101.169L265.316 113.16C267.029 113.462 268.138 113.16 269.146 107.719C270.153 102.177 268.843 101.471 267.13 101.169Z" fill="#F6BB92"/>
<path d="M233.877 102.277C233.777 101.673 233.777 101.169 233.777 100.665C233.777 100.06 233.877 99.6572 233.877 99.6572L231.862 100.463C231.862 100.766 231.862 101.068 231.862 101.37C231.862 101.37 232.064 101.269 232.467 101.169C232.467 101.169 232.467 101.169 232.366 101.169C232.668 101.673 232.97 102.378 233.374 103.486C233.374 103.486 234.18 104.091 233.877 102.277Z" fill="#602F0F"/>
<path d="M266.122 100.766C266.122 101.169 266.122 101.773 266.022 102.277C265.719 104.091 266.526 103.486 266.526 103.486C266.828 102.378 267.231 101.673 267.533 101.169C267.936 101.269 268.138 101.37 268.138 101.37C268.138 101.068 268.138 100.766 268.138 100.463L266.122 99.6572C266.022 99.6572 266.122 100.06 266.122 100.766Z" fill="#602F0F"/>
<path d="M270.959 429.464C266.929 428.456 257.356 420.697 256.046 420.093C253.829 418.984 250.504 417.976 250.504 414.45C250.504 411.93 250.907 409.512 250.705 407.9C250.101 399.536 246.574 383.414 245.869 373.236C245.768 370.919 245.667 368.5 245.566 365.981C245.466 356.005 265.921 362.051 265.518 365.679C264.309 380.189 261.487 405.381 260.379 410.52C260.379 410.52 275.292 420.999 274.788 424.829C274.688 427.045 274.99 430.471 270.959 429.464Z" fill="#F6BB92"/>
<path d="M248.085 333.333C246.372 344.821 245.667 355.905 245.768 365.881C249.093 364.671 262.696 364.571 265.719 365.578C266.022 361.951 266.223 359.029 266.324 357.215C266.626 348.146 266.626 334.039 266.626 334.039C267.332 325.877 282.245 269.549 281.137 257.255C280.028 244.962 277.912 236.9 277.912 236.9H264.812C262.193 244.962 247.985 243.148 246.574 251.31C247.38 269.145 248.589 295.949 247.985 309.553C247.581 317.614 248.085 333.333 248.085 333.333Z" fill="#3D3C3C"/>
<path d="M254.434 360.439C257.356 347.944 256.55 342.604 256.55 342.604C256.953 340.085 256.953 337.062 254.132 335.046C252.116 333.535 249.899 332.527 248.69 331.419C242.241 325.977 232.064 318.118 224.809 310.963C222.793 308.948 221.383 307.336 219.468 305.22C212.616 297.965 204.051 319.428 207.175 321.241C219.67 328.698 240.327 338.775 245.163 340.891C245.163 340.891 244.962 359.129 248.388 360.943C250.302 362.052 253.527 364.47 254.434 360.439Z" fill="#F6BB92"/>
<path d="M206.771 292.926C212.112 297.662 215.236 300.383 219.367 305.22C215.639 312.475 211.911 318.521 207.074 321.242C200.121 315.296 196.09 311.77 192.765 308.545C180.975 297.058 181.076 291.012 181.076 291.012C181.782 283.656 221.987 236.8 221.987 236.8H235.087C237.707 244.861 247.682 243.047 249.093 251.209C249.093 251.209 251.411 258.868 244.76 263.704C234.381 271.665 206.771 292.926 206.771 292.926Z" fill="#3D3C3C"/>
<path d="M250.504 163.24L250.403 187.223L256.147 188.533C266.425 191.354 276.501 193.571 286.88 195.284C298.67 196.997 306.731 198.307 312.475 198.71C316.002 198.911 319.327 197.602 319.73 196.392C320.133 195.183 318.218 190.548 316.707 186.719C313.18 177.448 294.539 145.002 285.369 140.165C278.819 136.739 269.045 136.336 269.045 136.336C269.045 136.336 273.378 159.311 275.998 159.411C278.618 159.512 280.633 162.938 287.283 170.697C291.213 175.635 294.035 178.758 298.368 184.2C298.368 184.2 289.803 182.688 256.449 180.975L252.418 162.535L250.504 163.24Z" fill="#F6BB92"/>
<path d="M249.395 163.24V187.223L243.752 188.533C233.474 191.354 223.499 193.571 213.019 195.284C201.229 196.997 193.168 198.307 187.424 198.71C183.898 198.911 180.572 197.602 180.169 196.392C179.766 195.183 181.681 190.548 183.192 186.719C186.719 177.448 205.361 145.002 214.53 140.165C221.08 136.739 230.854 136.336 230.854 136.336C230.854 136.336 226.522 159.311 223.902 159.411C221.282 159.512 219.266 162.938 212.616 170.697C208.686 175.635 205.865 178.758 201.532 184.2C201.532 184.2 210.097 182.688 243.349 180.975L247.38 162.535L249.395 163.24Z" fill="#F6BB92"/>
</svg>
