<svg width="500" height="500" viewBox="0 0 500 500" fill="none" xmlns="http://www.w3.org/2000/svg">
<path d="M300.318 86.9933C300.202 86.45 300.085 85.9103 299.969 85.367C303.105 77.7717 316.913 54.5694 320.119 47.0059C321.495 43.7674 323.333 40.7793 327.535 41.185C331.662 41.5837 333.056 44.6599 333.825 48.1912C335.67 56.6473 334.986 65.8619 334.449 74.0816C333.941 81.878 334.068 85.5822 326.593 88.1257C321.375 89.9002 320.903 90.6869 315.597 92.2039C309.356 92.8142 301.835 93.9254 300.314 86.9933H300.318Z" fill="#F6BB92"/>
<path d="M219.154 127.88L208.257 139.614L212.271 178.462L226.284 238.159L260.207 153.093L242.342 125.252L219.154 127.88Z" fill="#4E965A"/>
<path d="M230.012 57.1835C226.555 52.9501 222.057 51.412 216.794 52.4739C211.484 53.5463 208.059 56.9224 206.5 62.0694C205.286 66.0735 204.32 70.1481 203.159 74.1697C201.018 81.5781 195.782 87.0356 191.196 92.8952C190.23 94.13 189.231 95.34 188 96.871C197.218 96.8287 205.925 96.3701 213.76 91.5829C207.332 83.663 208.01 71.6438 216.663 63.6746C220.452 60.1821 225.148 58.4993 230.009 57.1905L230.012 57.1835Z" fill="#7A4922"/>
<path d="M230.013 57.1837C225.148 58.4925 220.456 60.1788 216.667 63.6678C208.013 71.6406 207.333 83.6597 213.764 91.5761C213.922 91.5796 214.035 91.5126 214.109 91.3715C214.66 89.2583 213.294 87.5227 212.868 85.6141C210.546 75.2354 217.101 65.1988 226.375 61.3888C227.995 60.7221 229.67 60.1858 231.318 59.5932C231.064 58.6901 230.729 57.8328 230.016 57.1802L230.013 57.1837Z" fill="#5C381A"/>
<path d="M261.075 80.5762L261.4 88.4361L268.219 104.6L260.207 106.135L257.378 115.939L243.433 117.082L242.342 125.252L219.154 127.88L223.578 106.855L229.836 99.6015L233.721 82.4459L261.075 80.5762Z" fill="#F4BA92"/>
<path d="M261.075 80.5764C261.075 80.5764 259.403 70.8467 254.654 66.0983C249.906 61.3499 238.705 54.1004 222.954 62.0873C222.954 62.0873 209.562 71.0549 211.248 84.5063C213.185 99.9616 223.578 106.855 223.578 106.855L236.765 97.5838L238.063 82.5202L250.608 82.7424L261.075 80.5729V80.5764Z" fill="#7A4922"/>
<path d="M261.074 150.917C268.409 138.291 299.968 85.3672 299.968 85.3672L315.508 92.6521C315.508 92.6521 306.766 143.152 285.402 169.371L270.349 224.365C270.349 224.365 275.203 313.587 275.69 322.325C276.177 331.067 264.521 429.637 264.521 429.637H241.7C241.7 429.637 236.341 358.742 244.12 335.438L238.063 279.004C238.063 279.004 223.81 264.543 226.283 238.163L261.078 150.924L261.074 150.917Z" fill="#6A6C65"/>
<path d="M231.318 146.775C231.318 146.775 226.957 138.002 232.461 130.883C232.461 130.883 239.04 121.587 249.616 129.182L294.278 170.323L297.495 178.331L272.402 238.988L256.411 243.211C256.411 243.211 251.557 244.506 244.759 244.83C241.382 244.992 235.332 236.339 240.335 229.858C243.291 226.027 258.281 226.299 261.075 221.776C263.075 218.534 265.16 215.927 266.066 212.865C270.377 198.299 275.934 186.657 275.934 186.657L231.318 146.779V146.775Z" fill="#F6BB92"/>
<path d="M262.818 429.633C263.371 429.633 263.925 429.636 264.479 429.64C271.231 434.321 278.012 438.96 284.718 443.709C287.59 445.741 290.116 448.178 288.824 452.197C287.554 456.144 284.252 456.846 280.64 456.85C271.983 456.85 263.326 456.864 254.668 456.85C246.858 456.836 243.514 454.027 242.625 446.178C242.004 440.703 241.873 435.168 241.527 429.661C248.625 429.654 255.723 429.647 262.821 429.64L262.818 429.633Z" fill="#F6BB92"/>
<path d="M208.257 139.614L198.675 154.829L195.977 163.543L200.997 202.225L242.829 244.124L256.997 241.718L251.765 228.348L236.225 211.803L219.122 189.602L212.162 167.751L208.257 139.614Z" fill="#F6BB92"/>
<path d="M240.797 228.877C241.545 227.893 242.903 227.12 244.575 226.439C241.672 227.339 239.111 228.32 237.992 229.787C232.99 236.377 239.044 245.172 242.416 245.006C243.161 244.971 243.884 244.922 244.575 244.865C240.952 243.694 235.915 235.298 240.793 228.874L240.797 228.877Z" fill="#DCA782"/>
<path d="M254.474 167.472L261.074 150.917L266.017 142.492L289.568 163.733L275.933 186.653L260.206 183.355L254.474 173.971V167.472Z" fill="#6A6C65"/>
</svg>
