<svg width="500" height="500" viewBox="0 0 500 500" fill="none" xmlns="http://www.w3.org/2000/svg">
<path d="M231.486 122.13L209.864 121.8C209.864 121.8 204.378 124.772 196.888 133.237L201.704 180.868L225.212 213.317L245.624 162.882L231.489 122.127L231.486 122.13Z" fill="#8A8AD9"/>
<path d="M287.823 86.072C287.709 85.5449 287.598 85.0147 287.483 84.4876C290.541 77.0835 304 54.4648 307.13 47.0924C308.47 43.9364 310.264 41.025 314.36 41.4187C318.383 41.806 319.741 44.8064 320.491 48.2481C322.291 56.4936 321.624 65.4757 321.1 73.4894C320.605 81.0872 320.729 84.7003 313.439 87.18C308.353 88.9104 307.892 89.6788 302.72 91.1551C296.637 91.7489 289.306 92.8347 287.823 86.0751V86.072Z" fill="#F6BB92"/>
<path d="M219.287 57.0109C215.919 52.8834 211.534 51.3848 206.403 52.4198C201.228 53.4644 197.888 56.7537 196.367 61.7734C195.183 65.6755 194.243 69.6506 193.109 73.5686C191.02 80.7917 185.918 86.1098 181.448 91.8248C180.505 93.0282 179.533 94.2093 178.333 95.6983C187.318 95.6571 195.805 95.2094 203.444 90.5421C197.177 82.8237 197.84 71.1047 206.276 63.3355C209.972 59.9319 214.547 58.2904 219.287 57.0141V57.0109Z" fill="#7A4922"/>
<path d="M219.288 57.0117C214.547 58.2881 209.972 59.9296 206.276 63.3332C197.84 71.1024 197.177 82.8213 203.444 90.5398C203.597 90.543 203.711 90.4763 203.781 90.3429C204.318 88.2824 202.984 86.5901 202.571 84.7327C200.311 74.6171 206.699 64.8318 215.741 61.117C217.319 60.4693 218.951 59.9454 220.558 59.3644C220.31 58.4849 219.983 57.6467 219.288 57.0117Z" fill="#5C381A"/>
<path d="M249.568 79.8178C249.568 79.8178 247.936 70.334 243.31 65.7049C238.684 61.0757 227.762 54.0113 212.405 61.7932C212.405 61.7932 199.352 70.5372 200.997 83.65C202.886 98.7154 213.014 105.437 213.014 105.437L225.87 96.4008L228.746 83.2087L239.824 83.5357L249.568 79.8209V79.8178Z" fill="#7A4922"/>
<path d="M249.567 148.388C256.714 136.081 287.483 84.4844 287.483 84.4844L302.631 91.5837C302.631 91.5837 294.719 140.971 273.891 166.53L258.61 219.981C258.61 219.981 263.344 306.957 263.817 315.476C264.29 323.997 252.93 420.086 252.93 420.086H230.683C230.683 420.086 225.336 352.515 232.918 329.795L223.856 272.94C223.856 272.94 207.092 259.145 215.652 233.427L249.571 148.381L249.567 148.388Z" fill="#6A6C65"/>
<path d="M251.266 420.092C251.806 420.092 252.346 420.095 252.885 420.098C259.467 424.664 266.078 429.185 272.615 433.814C275.415 435.795 277.876 438.17 276.619 442.088C275.384 445.936 272.161 446.622 268.64 446.622C260.201 446.622 251.762 446.635 243.322 446.622C235.709 446.609 232.448 443.869 231.581 436.221C230.975 430.88 230.851 425.489 230.511 420.12C237.43 420.114 244.348 420.105 251.269 420.098L251.266 420.092Z" fill="#F6BB92"/>
<path d="M221.355 129.287C221.355 129.287 216.665 134.395 218.357 140.98C219.608 145.844 220.243 145.825 227.575 152.928C234.255 159.399 243.132 164.526 243.132 164.526C243.132 164.526 244.751 160.526 246.434 156.249C247.799 152.779 249.142 149.121 250.206 147.302C252.552 143.295 253.876 141.044 253.876 141.044L241.776 129.287C241.776 129.287 238.246 125.572 234.642 124.527C231.038 123.483 225.428 122.651 221.352 129.287H221.355Z" fill="#F4BA92"/>
<path d="M277.47 161.577C277.47 161.577 283.359 167.397 283.864 172.102C284.372 176.808 283.639 178.582 282.384 181.608C281.134 184.634 268.913 214.171 268.913 214.171L263.052 228.338C263.052 228.338 260.817 234.044 255.264 235.958L243.621 239.085L237.541 239.955C237.541 239.955 233.013 240.609 231.318 239.057C231.318 239.057 228.257 235.971 227.67 232.593C227.67 232.593 227.006 228.592 229.127 225.385C231.248 222.179 234.68 222.166 236.636 222.01C238.592 221.851 244.831 220.699 247.945 218.962C251.06 217.225 252.866 213.377 254.987 206.926C257.108 200.474 261.766 187.612 263.474 184.459C264.531 182.507 269.246 174.439 272.688 168.575C273.063 167.934 273.425 167.321 273.761 166.743C274.409 165.638 275.752 164.197 276.196 163.441C276.831 162.358 277.46 161.571 277.46 161.571L277.47 161.577Z" fill="#F4BA92"/>
<path d="M196.888 133.24C196.888 133.24 201.778 164.456 205.089 174.861C208.404 185.262 211.252 191.835 223.399 205.224C235.547 218.609 238.509 221.765 238.509 221.765L228.934 237.005C228.934 237.005 203.972 213.847 199.542 208.894C195.11 203.941 191.341 201.039 189.833 189.434C188.328 177.83 185.874 173.47 185.652 164.533C185.43 155.595 186.83 143.374 196.888 133.243V133.24Z" fill="#F4BA92"/>
<path d="M249.568 79.8174L249.809 85.6911C249.809 85.6911 249.428 86.4055 250.692 89.3996C251.956 92.3936 255.623 97.0767 256.143 99.077C256.143 99.077 256.69 100.347 255.591 101.014C254.492 101.68 250.495 102.877 250.495 102.877L249.565 103.246C249.565 103.246 248.171 110.983 247.193 112.193C246.215 113.403 245.894 114.298 242.304 114.593C238.713 114.889 234.274 114.933 233.271 115.539C232.267 116.146 231.483 122.134 231.483 122.134L209.861 121.804C209.861 121.804 212.766 112.05 213.011 105.437L224.67 97.2386C224.67 97.2386 225.768 97.5085 226.184 92.6889L226.6 87.8692L226.857 84.8815C226.857 84.8815 226.981 82.478 229.978 82.532C232.975 82.586 235.592 82.713 239.36 81.9319L249.562 79.8174H249.568Z" fill="#F4BA92"/>
<path d="M231.397 224.388C232.124 223.429 233.448 222.673 235.08 222.013C232.248 222.889 230.159 223.841 229.073 225.273C224.196 231.696 229.14 239.412 232.979 240.117C233.709 240.25 234.483 240.148 235.16 240.094C231.629 238.955 226.641 230.652 231.397 224.391V224.388Z" fill="#DCA782"/>
</svg>
