<svg width="497" height="497" viewBox="0 0 497 497" fill="none" xmlns="http://www.w3.org/2000/svg">
<path d="M221.317 236.92C220.718 251.496 225.61 266.572 234.995 277.754C238.589 281.248 238.589 281.248 239.188 286.141C240.886 305.909 243.981 325.577 244.38 345.345C243.681 352.833 239.089 359.922 238.09 367.01C246.976 369.606 255.462 373.5 263.05 378.691C268.441 370.005 271.536 359.323 275.23 349.638C278.126 336.659 274.332 323.081 275.13 309.802C274.332 293.728 275.43 277.654 275.23 261.58C276.129 250.099 271.636 238.817 273.333 227.635C267.343 231.529 261.253 236.321 254.663 238.817C248.374 237.918 238.789 240.215 235.494 233.525C230.403 231.229 229.803 223.641 224.412 221.645C223.514 226.836 221.617 231.728 221.317 236.92Z" fill="#3C3B3B"/>
<path d="M287.612 146.665C289.409 143.17 290.607 139.376 292.204 135.782C283.718 133.286 275.531 128.494 270.739 120.906C252.568 146.166 242.884 178.014 230.404 206.868C231.801 209.863 232.9 214.056 236.494 214.855C244.182 216.253 247.177 224.14 253.866 227.135C256.761 226.436 258.059 220.745 260.256 218.449C262.252 214.455 266.446 211.86 268.243 207.866C272.735 186.8 276.629 165.534 287.612 146.665Z" fill="#3D3C3C"/>
<path d="M230.402 206.968C239.387 185.702 247.374 163.937 257.358 143.071C248.073 138.478 238.888 131.29 232.798 122.704C226.808 113.619 236.592 104.134 245.977 105.931C236.592 100.24 223.513 104.633 214.627 109.625C210.135 113.419 205.941 117.412 203.146 122.704C201.948 138.478 207.139 153.953 213.928 168.23C219.619 181.01 224.412 194.388 230.402 206.968Z" fill="#FF8AA0"/>
<path d="M263.149 378.691C255.462 373.499 246.975 369.606 238.19 367.01C228.405 395.763 221.317 425.416 212.531 454.369C208.338 467.248 225.81 464.652 233.098 467.747C241.185 470.243 248.273 475.734 257.159 475.036C261.252 474.936 265.046 470.942 260.653 467.847C242.982 459.96 229.604 452.372 240.785 431.206C248.074 413.635 255.661 396.163 263.149 378.691Z" fill="#F6BB92"/>
<path d="M270.737 121.006C275.53 128.594 283.716 133.386 292.203 135.882C300.29 119.908 306.08 102.736 312.77 86.0625C314.167 82.5681 315.865 79.2734 317.462 75.9787C319.559 73.4827 323.253 72.4844 324.85 69.3893C330.741 62.0013 326.747 53.0157 326.847 44.4296C325.948 36.3426 334.834 21.4666 323.153 18.8708C320.856 18.4714 319.259 19.7693 317.562 20.8676C315.964 22.9642 316.164 25.8595 315.865 28.3555C314.467 37.8402 311.871 47.5246 307.378 56.0109C295.897 77.9755 282.019 98.9417 270.737 121.006Z" fill="#F6BB92"/>
<path d="M259.854 48.9214C255.262 32.5478 236.392 34.0454 223.513 36.142C214.428 31.1501 206.141 42.5317 202.447 49.7201C199.552 55.3111 197.355 66.4931 205.742 68.0905C206.441 68.1904 206.84 68.3901 206.84 69.2886C206.74 72.9826 208.338 76.2773 209.935 79.4722C213.929 85.6622 220.119 96.8442 228.805 93.849C229.104 93.1501 229.803 93.0503 230.402 92.8506C230.402 92.6509 230.602 92.5511 230.801 92.5511C232.499 89.5559 238.888 86.0616 236.492 82.5672C233.297 79.0728 228.705 71.2854 235.793 69.4883C238.589 68.2902 238.689 72.5833 240.586 73.0825C242.882 71.7846 238.888 68.0905 242.083 67.5913C250.07 64.097 257.758 57.8071 259.854 48.9214ZM226.209 41.3337C229.703 49.221 217.323 66.5929 209.236 67.5913C209.336 65.7942 212.531 65.295 213.529 63.6976C220.119 57.7073 224.212 49.4206 226.209 41.3337Z" fill="#602F0F"/>
<path d="M230.402 206.967C224.412 194.388 219.619 181.009 214.028 168.23C207.339 153.953 202.048 138.378 203.246 122.703C193.462 132.787 187.771 148.561 192.962 162.14C198.154 178.513 204.943 194.587 214.028 209.264C214.328 209.463 214.328 209.763 214.328 210.062C217.323 214.056 221.317 218.049 224.412 221.943C229.803 223.84 230.402 231.528 235.494 233.824C234.695 224.439 248.173 229.431 253.864 227.434C247.175 224.439 244.18 216.652 236.492 215.154C232.898 214.156 231.8 209.962 230.402 206.967Z" fill="#ECAD83"/>
<path d="M253.865 227.134C248.174 229.131 234.696 224.139 235.495 233.524C236.693 236.32 238.79 237.717 241.785 237.817C246.677 237.917 251.868 239.714 256.661 238.316C275.83 227.733 281.321 222.342 286.513 200.577C290.207 189.994 292.802 179.012 296.497 168.429C299.991 160.042 294.1 151.456 287.611 146.664C276.529 165.434 272.735 186.799 268.142 207.865C266.345 211.859 262.252 214.455 260.155 218.448C258.059 220.844 256.761 226.435 253.865 227.134Z" fill="#F6BB92"/>
<path d="M259.856 48.9219C257.859 57.8075 250.171 64.0974 241.984 67.3921C238.79 67.8913 242.783 71.5853 240.487 72.8832C239.289 72.6836 239.189 70.5869 238.39 69.7882C235.295 66.4935 229.604 72.6836 232.001 76.2778C232.5 79.4726 238.39 82.4678 236.693 85.1634C234.696 87.5596 234.197 91.7528 230.802 92.4517C230.004 93.0507 230.503 94.3486 228.806 93.8494C237.092 101.737 252.468 102.436 263.25 99.5403C268.142 98.3422 265.047 94.3486 264.947 91.0539C263.55 91.4533 257.759 89.8559 260.055 88.1586C261.952 87.7593 263.05 85.8623 264.947 85.8623C263.05 79.3728 271.736 84.8639 264.748 73.1828C258.358 64.996 268.242 56.6095 259.856 48.9219Z" fill="#F6BB92"/>
<path d="M246.078 105.83C236.593 104.033 226.908 113.518 232.899 122.603C238.889 131.189 248.074 138.378 257.459 142.97C261.353 136.281 265.746 129.892 268.841 122.703C262.251 116.014 255.263 108.526 246.078 105.83Z" fill="#F6BB92"/>
<path d="M242.882 100.239C239.587 98.8415 235.594 98.0427 232.299 96.2456C231.001 95.5468 229.903 94.6482 228.705 93.7497C227.507 92.8511 226.109 94.3487 224.811 94.149C223.713 94.0492 222.615 93.8495 221.516 93.0508C220.218 98.8414 216.424 103.833 214.627 109.424C222.814 104.532 233.098 101.737 242.482 103.833C242.582 102.735 242.782 101.537 242.882 100.239Z" fill="#ECAD83"/>
<path d="M224.411 221.744C221.216 217.85 217.323 213.957 214.327 209.863C215.925 219.048 219.819 227.734 221.316 237.019C221.616 231.728 223.513 226.836 224.411 221.744Z" fill="#FD849F"/>
<path d="M265.146 85.5625C263.15 85.5625 261.951 87.6591 259.955 88.0585C256.86 90.0553 267.542 93.2501 266.245 89.1567C263.749 88.4578 267.343 86.6607 265.146 85.5625Z" fill="#D6876B"/>
<path d="M378.464 98.9415C378.464 99.6403 379.462 99.6403 379.362 98.9415C379.462 98.3424 378.564 98.3424 378.464 98.9415Z" fill="#898888"/>
<path d="M214.329 209.861C214.329 209.562 214.329 209.262 214.03 209.062C214.03 209.362 214.03 209.662 214.329 209.861Z" fill="#FD849F"/>
<path d="M214.328 109.923C214.428 109.823 214.528 109.623 214.728 109.523C214.528 109.523 214.428 109.723 214.328 109.923Z" fill="#F6AA7A"/>
<path d="M226.21 41.3359C224.114 49.4229 220.02 57.7095 213.531 63.6999C212.532 65.2973 209.338 65.7965 209.238 67.5936C217.325 66.5952 229.705 49.2232 226.21 41.3359Z" fill="#552000"/>
<path d="M230.702 92.4537C232.799 92.1542 234.197 89.9577 234.796 87.9609C233.198 89.3587 232 90.9561 230.702 92.4537Z" fill="#F6AA7A"/>
<path d="M228.704 93.85C229.603 94.1495 230.202 93.85 230.302 92.8516C229.703 92.9514 229.004 93.1511 228.704 93.85Z" fill="#F6AA7A"/>
</svg>
