<svg width="501" height="500" viewBox="0 0 501 500" fill="none" xmlns="http://www.w3.org/2000/svg">
<path d="M231.827 122.13L210.205 121.8C210.205 121.8 204.718 124.772 197.229 133.237L202.045 180.868L225.553 213.317L245.965 162.882L231.83 122.127L231.827 122.13Z" fill="#8A8AD9"/>
<path d="M288.164 86.072C288.05 85.5449 287.939 85.0147 287.824 84.4876C290.882 77.0835 304.341 54.4648 307.471 47.0924C308.811 43.9364 310.605 41.025 314.701 41.4187C318.723 41.806 320.082 44.8064 320.832 48.2481C322.632 56.4936 321.965 65.4757 321.441 73.4894C320.946 81.0872 321.07 84.7003 313.78 87.18C308.694 88.9104 308.233 89.6788 303.061 91.1551C296.978 91.7489 289.647 92.8347 288.164 86.0751V86.072Z" fill="#F6BB92"/>
<path d="M219.628 57.0109C216.26 52.8834 211.875 51.3848 206.744 52.4198C201.569 53.4644 198.229 56.7537 196.708 61.7734C195.524 65.6755 194.584 69.6506 193.45 73.5686C191.361 80.7917 186.259 86.1098 181.789 91.8248C180.846 93.0282 179.874 94.2093 178.674 95.6983C187.659 95.6571 196.146 95.2094 203.785 90.5421C197.518 82.8237 198.181 71.1047 206.617 63.3355C210.313 59.9319 214.888 58.2904 219.628 57.0141V57.0109Z" fill="#7A4922"/>
<path d="M219.628 57.0112C214.888 58.2876 210.313 59.9291 206.617 63.3327C198.181 71.1019 197.518 82.8209 203.785 90.5393C203.938 90.5425 204.052 90.4758 204.122 90.3424C204.658 88.2819 203.325 86.5896 202.912 84.7322C200.651 74.6166 207.04 64.8313 216.082 61.1165C217.66 60.4688 219.292 59.9449 220.898 59.3639C220.651 58.4844 220.324 57.6462 219.628 57.0112Z" fill="#5C381A"/>
<path d="M249.909 79.8173C249.909 79.8173 248.277 70.3335 243.651 65.7044C239.025 61.0752 228.103 54.0108 212.745 61.7928C212.745 61.7928 199.693 70.5367 201.338 83.6495C203.227 98.7149 213.355 105.436 213.355 105.436L226.211 96.4003L229.087 83.2082L240.165 83.5352L249.909 79.8204V79.8173Z" fill="#7A4922"/>
<path d="M249.908 148.388C257.055 136.081 287.824 84.4844 287.824 84.4844L302.972 91.5837C302.972 91.5837 295.06 140.971 274.232 166.53L258.951 219.981C258.951 219.981 263.685 306.957 264.158 315.476C264.631 323.997 253.271 420.086 253.271 420.086H231.023C231.023 420.086 225.677 352.515 233.259 329.795L224.197 272.94C224.197 272.94 207.433 259.145 215.993 233.427L249.912 148.381L249.908 148.388Z" fill="#6A6C65"/>
<path d="M251.607 420.092C252.146 420.092 252.686 420.095 253.226 420.098C259.808 424.664 266.418 429.185 272.955 433.814C275.756 435.795 278.216 438.17 276.959 442.088C275.724 445.936 272.501 446.622 268.98 446.622C260.541 446.622 252.102 446.635 243.663 446.622C236.049 446.609 232.788 443.869 231.922 436.221C231.315 430.88 231.191 425.489 230.852 420.12C237.77 420.114 244.688 420.105 251.61 420.098L251.607 420.092Z" fill="#F6BB92"/>
<path d="M221.696 129.287C221.696 129.287 217.006 134.395 218.698 140.98C219.949 145.844 220.584 145.825 227.915 152.928C234.596 159.399 243.473 164.526 243.473 164.526C243.473 164.526 245.092 160.526 246.775 156.249C248.14 152.779 249.483 149.121 250.547 147.302C252.893 143.295 254.217 141.044 254.217 141.044L242.117 129.287C242.117 129.287 238.587 125.572 234.983 124.527C231.379 123.483 225.769 122.651 221.692 129.287H221.696Z" fill="#F4BA92"/>
<path d="M277.81 161.577C277.81 161.577 283.7 167.396 284.205 172.102C284.713 176.807 283.979 178.582 282.725 181.608C281.474 184.634 269.254 214.171 269.254 214.171L263.393 228.338C263.393 228.338 261.157 234.043 255.604 235.958L243.962 239.085L237.882 239.955C237.882 239.955 233.354 240.609 231.658 239.056C231.658 239.056 228.598 235.97 228.01 232.592C228.01 232.592 227.347 228.592 229.468 225.385C231.589 222.178 235.021 222.165 236.977 222.01C238.932 221.851 245.171 220.698 248.286 218.962C251.401 217.225 253.207 213.377 255.328 206.925C257.449 200.474 262.107 187.612 263.815 184.459C264.872 182.506 269.587 174.439 273.029 168.574C273.403 167.933 273.765 167.32 274.102 166.742C274.75 165.637 276.093 164.196 276.537 163.44C277.172 162.358 277.801 161.57 277.801 161.57L277.81 161.577Z" fill="#F4BA92"/>
<path d="M197.229 133.24C197.229 133.24 202.119 164.456 205.43 174.861C208.745 185.262 211.593 191.835 223.74 205.224C235.888 218.609 238.85 221.765 238.85 221.765L229.274 237.005C229.274 237.005 204.312 213.847 199.883 208.894C195.451 203.941 191.682 201.039 190.174 189.434C188.669 177.83 186.215 173.47 185.993 164.533C185.77 155.595 187.171 143.374 197.229 133.243V133.24Z" fill="#F4BA92"/>
<path d="M249.909 79.8169L250.15 85.6907C250.15 85.6907 249.769 86.405 251.033 89.3991C252.296 92.3931 255.964 97.0762 256.484 99.0765C256.484 99.0765 257.03 100.346 255.932 101.013C254.833 101.68 250.836 102.877 250.836 102.877L249.906 103.245C249.906 103.245 248.512 110.983 247.534 112.192C246.556 113.402 246.235 114.297 242.644 114.593C239.053 114.888 234.615 114.932 233.611 115.539C232.608 116.145 231.824 122.133 231.824 122.133L210.202 121.803C210.202 121.803 213.107 112.05 213.352 105.436L225.01 97.2382C225.01 97.2382 226.109 97.508 226.525 92.6884L226.941 87.8687L227.198 84.881C227.198 84.881 227.322 82.4776 230.319 82.5315C233.316 82.5855 235.932 82.7125 239.701 81.9315L249.902 79.8169H249.909Z" fill="#F4BA92"/>
<path d="M231.738 224.388C232.465 223.429 233.789 222.673 235.421 222.013C232.589 222.889 230.499 223.841 229.414 225.273C224.537 231.696 229.48 239.412 233.319 240.117C234.049 240.25 234.824 240.148 235.5 240.094C231.969 238.955 226.982 230.652 231.738 224.391V224.388Z" fill="#DCA782"/>
</svg>
