<svg width="501" height="500" viewBox="0 0 501 500" fill="none" xmlns="http://www.w3.org/2000/svg">
<path d="M232.856 128.902L212.435 128.59C212.435 128.59 207.253 131.397 200.18 139.391L204.729 184.376L226.93 215.022L246.208 167.389L232.859 128.899L232.856 128.902Z" fill="#8A8AD9"/>
<path d="M286.063 94.8461C285.955 94.3483 285.85 93.8475 285.742 93.3497C288.63 86.357 301.341 64.9948 304.298 58.032C305.563 55.0514 307.257 52.3017 311.125 52.6735C314.925 53.0393 316.208 55.873 316.916 59.1235C318.616 66.9109 317.986 75.394 317.492 82.9625C317.024 90.1382 317.141 93.5507 310.256 95.8926C305.452 97.5268 305.017 98.2525 300.133 99.6468C294.387 100.208 287.463 101.233 286.063 94.8491V94.8461Z" fill="#F6BB92"/>
<path d="M221.334 67.3994C218.153 63.5012 214.012 62.0858 209.166 63.0634C204.278 64.0499 201.124 67.1565 199.687 71.8973C198.569 75.5826 197.681 79.3369 196.611 83.0372C194.638 89.859 189.819 94.8817 185.597 100.279C184.706 101.416 183.789 102.531 182.655 103.938C191.141 103.899 199.157 103.476 206.371 99.0678C200.452 91.7782 201.079 80.7103 209.046 73.3726C212.536 70.1581 216.857 68.6078 221.334 67.4024V67.3994Z" fill="#7A4922"/>
<path d="M221.335 67.3994C216.858 68.6049 212.537 70.1551 209.046 73.3697C201.079 80.7073 200.452 91.7752 206.372 99.0648C206.516 99.0678 206.623 99.0048 206.689 98.8789C207.196 96.9328 205.937 95.3345 205.547 93.5803C203.412 84.0267 209.445 74.785 217.985 71.2766C219.476 70.6649 221.017 70.1701 222.534 69.6214C222.3 68.7908 221.991 67.9991 221.335 67.3994Z" fill="#5C381A"/>
<path d="M249.933 88.9387C249.933 88.9387 248.392 79.9818 244.023 75.6098C239.654 71.2379 229.339 64.5659 214.834 71.9155C214.834 71.9155 202.507 80.1737 204.06 92.558C205.844 106.786 215.41 113.135 215.41 113.135L227.551 104.6L230.268 92.1412L240.73 92.4501L249.933 88.9417V88.9387Z" fill="#7A4922"/>
<path d="M249.933 153.7C256.683 142.077 285.742 93.3467 285.742 93.3467L300.049 100.052C300.049 100.052 292.576 146.695 272.905 170.834L258.473 221.316C258.473 221.316 262.944 303.46 263.391 311.505C263.837 319.553 253.108 410.304 253.108 410.304H232.097C232.097 410.304 227.047 346.487 234.208 325.029L225.65 271.333C225.65 271.333 209.817 258.304 217.902 234.015L249.936 153.694L249.933 153.7Z" fill="#6A6C65"/>
<path d="M251.537 410.309C252.046 410.309 252.556 410.312 253.066 410.315C259.282 414.627 265.525 418.897 271.699 423.269C274.344 425.14 276.668 427.383 275.48 431.084C274.314 434.718 271.27 435.366 267.945 435.366C259.975 435.366 252.004 435.378 244.034 435.366C236.843 435.354 233.764 432.766 232.945 425.542C232.372 420.498 232.255 415.407 231.935 410.336C238.469 410.33 245.003 410.321 251.54 410.315L251.537 410.309Z" fill="#F6BB92"/>
<path d="M223.287 135.66C223.287 135.66 218.858 140.485 220.456 146.704C221.638 151.298 222.237 151.28 229.161 157.987C235.47 164.099 243.854 168.941 243.854 168.941C243.854 168.941 245.384 165.163 246.973 161.124C248.262 157.847 249.531 154.392 250.535 152.674C252.751 148.89 254.002 146.764 254.002 146.764L242.574 135.66C242.574 135.66 239.24 132.151 235.836 131.165C232.433 130.178 227.134 129.393 223.284 135.66H223.287Z" fill="#F4BA92"/>
<path d="M276.284 166.156C276.284 166.156 281.847 171.652 282.324 176.096C282.803 180.54 282.111 182.216 280.926 185.074C279.745 187.932 268.203 215.828 268.203 215.828L262.668 229.208C262.668 229.208 260.557 234.596 255.312 236.405L244.316 239.358L238.574 240.18C238.574 240.18 234.298 240.797 232.696 239.331C232.696 239.331 229.806 236.416 229.251 233.226C229.251 233.226 228.624 229.448 230.627 226.419C232.63 223.391 235.872 223.379 237.719 223.232C239.566 223.082 245.459 221.993 248.4 220.353C251.342 218.713 253.048 215.078 255.051 208.985C257.054 202.892 261.453 190.745 263.066 187.767C264.065 185.923 268.518 178.303 271.768 172.765C272.122 172.159 272.464 171.58 272.782 171.035C273.394 169.991 274.662 168.63 275.082 167.916C275.682 166.894 276.275 166.15 276.275 166.15L276.284 166.156Z" fill="#F4BA92"/>
<path d="M200.18 139.394C200.18 139.394 204.798 168.876 207.925 178.702C211.056 188.526 213.746 194.733 225.218 207.378C236.691 220.02 239.489 223.001 239.489 223.001L230.445 237.394C230.445 237.394 206.87 215.522 202.687 210.845C198.501 206.167 194.941 203.426 193.517 192.466C192.095 181.506 189.778 177.389 189.568 168.948C189.358 160.507 190.68 148.965 200.18 139.397V139.394Z" fill="#F4BA92"/>
<path d="M249.932 88.9385L250.16 94.4859C250.16 94.4859 249.8 95.1606 250.994 97.9883C252.187 100.816 255.651 105.239 256.142 107.128C256.142 107.128 256.658 108.328 255.621 108.957C254.583 109.587 250.808 110.717 250.808 110.717L249.929 111.065C249.929 111.065 248.613 118.373 247.689 119.515C246.766 120.658 246.463 121.503 243.072 121.782C239.68 122.061 235.488 122.103 234.54 122.676C233.593 123.249 232.852 128.904 232.852 128.904L212.432 128.592C212.432 128.592 215.175 119.38 215.406 113.134L226.417 105.392C226.417 105.392 227.455 105.647 227.848 101.095L228.24 96.543L228.483 93.7213C228.483 93.7213 228.6 91.4513 231.431 91.5023C234.262 91.5533 236.732 91.6732 240.292 90.9356L249.926 88.9385H249.932Z" fill="#F4BA92"/>
<path d="M232.771 225.477C233.458 224.572 234.708 223.858 236.249 223.234C233.575 224.062 231.602 224.962 230.576 226.314C225.97 232.38 230.639 239.667 234.264 240.332C234.954 240.458 235.686 240.362 236.324 240.311C232.99 239.235 228.279 231.394 232.771 225.48V225.477Z" fill="#DCA782"/>
</svg>
