<svg width="497" height="497" viewBox="0 0 497 497" fill="none" xmlns="http://www.w3.org/2000/svg">
<path d="M336.172 449.445C336.172 449.445 309.667 449.863 306.817 449.724C301.686 449.445 295.844 450.003 294.419 445.398C293.279 441.91 294.989 439.398 293.706 437.445C287.009 427.816 267.201 396.281 259.221 384.56C257.368 381.908 255.516 378.978 253.806 376.048C246.538 364.047 278.744 356.931 280.881 361.536C290.714 382.327 304.822 427.119 307.244 434.235C307.244 434.235 341.159 437.724 341.159 446.794C341.017 449.584 336.172 449.445 336.172 449.445Z" fill="#ECAD83"/>
<path d="M236.645 334.12C242.703 349.314 246.647 363.798 253.831 375.869C257.071 372.034 276.229 361.952 280.596 361.1C278.483 356.414 263.974 319.636 263.974 319.636C259.325 307.992 232.983 238.979 219.178 220.519C215.797 215.691 212.416 211.573 209.317 208.449C203.4 202.2 165.507 228.755 169.451 239.547C182.834 260.705 215.093 295.07 221.854 304.442C228.757 313.672 236.645 334.12 236.645 334.12Z" fill="#333333"/>
<path d="M223.67 195.677C192.894 190.901 184.22 198.346 175.267 207.477C175.267 207.477 167.153 216.467 164.635 225.738C159.459 244.842 169.112 258.327 169.112 258.327C169.112 258.327 205.764 263.244 208.982 253.692C208.982 253.692 209.961 252.428 210.8 251.866C211.919 251.023 213.458 250.882 213.458 250.882C220.733 225.878 223.67 195.677 223.67 195.677Z" fill="#3D3C3C"/>
<path d="M408.615 44.4508C413.705 45.7232 405.505 66.7874 405.222 73.5732L399.709 80.3589C390.661 128.566 381.472 150.055 381.472 150.055C377.372 179.177 362.811 229.788 358.146 239.966C355.46 246.186 328.6 233.039 330.579 225.122C334.82 213.106 338.637 207.592 340.616 202.786C343.443 192.042 360.267 154.861 363.659 145.672C364.084 144.4 387.834 77.3902 387.834 77.3902C387.834 77.3902 388.541 74.5627 388.117 69.6148C387.551 62.829 390.52 53.4986 394.195 48.9747C397.447 45.1577 403.526 43.0371 408.615 44.4508Z" fill="#F6BB92"/>
<path d="M404.799 66.3634C404.799 66.3634 405.93 59.2949 409.747 59.5776C412.857 59.719 413.988 60.1431 405.223 73.4319C405.223 73.5733 403.244 72.8664 404.799 66.3634Z" fill="#F6BB92"/>
<path d="M272.335 454.144C267.245 452.73 275.869 431.949 276.293 425.021L281.948 418.236C291.985 370.17 301.457 348.964 301.457 348.964C306.122 319.983 321.673 269.655 326.48 259.477C329.307 253.256 352.633 277.572 350.371 285.489C350.371 285.489 347.827 290.719 344.434 297.364C339.768 309.663 322.521 344.44 318.987 353.629C318.563 354.902 293.54 421.346 293.54 421.346C293.54 421.346 292.833 424.173 293.116 429.121C293.54 435.907 290.43 445.237 286.613 449.761C283.503 453.578 277.424 455.557 272.335 454.144Z" fill="#F6BB92"/>
<path d="M276.576 432.369C276.576 432.369 275.304 439.296 271.487 439.013C268.376 438.731 267.245 438.307 276.293 425.159C276.293 425.159 278.272 426.007 276.576 432.369Z" fill="#F6BB92"/>
<path d="M303.669 287.875C319.089 293.382 350.777 285.757 350.777 285.757C352.758 279.545 354.172 273.192 355.163 268.25L358.416 250.884C359.265 245.943 360.255 239.448 360.538 233.094C360.538 233.094 333.801 214.599 317.391 214.317C301.972 214.034 279.479 214.175 224.166 195.397L216.951 233.8L213.98 250.743C269.718 262.603 289.24 282.651 303.669 287.875Z" fill="#F68096"/>
<path d="M303.669 287.855C319.089 293.416 350.777 285.716 350.777 285.716C352.758 279.443 354.172 273.026 355.163 268.036L358.416 250.498C359.265 245.507 360.255 238.948 360.538 232.532C360.538 232.532 333.801 213.853 317.391 213.568C301.972 213.283 231.947 235.669 224.732 241.23C217.517 246.79 213.98 250.355 213.98 250.355C269.718 262.332 289.24 282.579 303.669 287.855Z" fill="#FF8AA0"/>
<path d="M370.546 274.126L375.073 250.225C362.952 251.809 358.425 247.489 358.425 247.489C358.425 247.489 350.831 246.769 348.787 257.856C346.743 268.799 354.044 270.815 354.044 270.815C354.044 270.815 359.739 268.367 370.546 274.126Z" fill="#ECAD83"/>
<path d="M408.239 249.424C417.232 248.004 422.227 254.398 424.654 258.518C432.505 271.448 429.793 279.547 424.654 289.209C417.945 301.998 381.547 289.067 376.409 284.947C363.134 274.29 368.13 250.845 372.269 242.462C376.837 233.226 378.835 237.063 382.404 239.336C382.546 239.478 383.26 239.194 383.26 239.194C384.545 239.905 386.257 240.899 388.399 240.899C388.399 240.899 389.398 241.894 389.969 242.178C390.397 242.462 390.682 242.462 391.111 242.178C392.252 241.041 393.394 240.047 394.251 239.762C396.82 239.052 403.957 250.135 408.239 249.424Z" fill="#F6BB92"/>
<path d="M383.553 246.268C383.553 246.268 383.399 245.097 385.859 240.707C386.474 240.268 387.55 239.682 388.319 241.146C388.934 242.17 385.705 243.341 383.553 246.268Z" fill="#D6876B"/>
<path d="M384.302 246.268C384.302 246.268 382.967 244.192 383.857 239.743C384.191 239.149 384.636 239.001 384.858 239.001C386.082 239.149 385.971 240.632 385.971 240.632C384.302 245.082 384.302 246.268 384.302 246.268Z" fill="#CC785E"/>
<path d="M426.579 290.99C418.317 306.238 384.84 314.971 369.597 280.593C368.6 278.237 368.173 274.078 374.441 271.167C378.857 269.088 383.415 268.672 383.415 268.672C384.84 268.533 386.264 268.395 387.974 268.256C389.683 268.117 396.948 273.108 397.946 271.583C408.487 257.859 420.026 255.78 424.015 257.859C432.847 264.652 435.269 274.771 426.579 290.99Z" fill="#602F0F"/>
<path d="M386.335 273.202C380.788 267.48 381.897 264.619 384.394 260.804L393.685 268.434L396.874 272.658C394.378 276.336 391.882 278.925 386.335 273.202Z" fill="#F6BB92"/>
<path d="M389.743 302.996C390.893 308.406 399.52 310.745 408.723 308.259C418.069 305.774 424.54 299.195 423.389 293.786C422.239 288.377 415.337 287.5 405.991 289.985C396.644 292.616 388.448 297.587 389.743 302.996Z" fill="#4C230C"/>
<path d="M393.631 268.665C395.469 270.644 396.741 272.199 397.306 273.33C397.306 273.33 397.306 273.33 397.448 273.189C396.741 273.896 396.317 274.32 396.317 274.32C397.024 274.603 397.589 275.027 398.296 275.31L402.254 271.634C402.254 271.634 401.265 271.351 399.992 270.786C399.003 270.362 397.872 269.655 396.741 268.807C393.348 266.262 393.631 268.665 393.631 268.665Z" fill="#602F0F"/>
<path d="M388.823 305.847C390.095 311.36 399.143 313.622 409.18 310.936C419.217 308.25 426.286 301.606 425.014 296.092C423.741 290.579 416.39 289.73 406.353 292.416C396.457 295.102 387.55 300.333 388.823 305.847Z" fill="#602F0F"/>
<path d="M404.148 310.121C404.287 310.691 406.8 310.548 409.872 309.694C412.943 308.84 415.177 307.701 415.037 307.132C414.898 306.563 412.804 306.847 409.732 307.559C406.8 308.413 404.008 309.552 404.148 310.121Z" fill="#4C230C"/>
<path d="M96.769 450.781C96.769 450.781 72.4617 450.781 69.9472 450.639C64.9181 450.354 63.9402 445.236 66.0356 440.545C67.5723 437.133 70.3663 435.569 72.322 431.731C77.4908 421.068 90.6223 389.081 96.0705 375.86C97.3278 372.732 98.7248 369.747 100.122 366.619C106.129 353.824 130.436 374.865 127.782 379.272C117.304 396.758 90.2032 431.304 85.5932 437.275C85.5932 437.275 109.901 441.114 110.04 446.516C110.32 450.781 103.055 451.349 96.769 450.781Z" fill="#F6BB92"/>
<path d="M126.154 328.092C116.818 341.509 106.349 354.362 100.125 366.932C105.076 367.497 125.022 376.395 128.135 379.502C130.822 375.124 153.315 342.78 153.315 342.78C160.388 332.47 202.968 272.444 210.607 250.835C212.729 245.327 214.143 240.242 215.134 236.005C216.973 227.672 173.968 210.583 167.178 219.904C157.134 242.785 146.666 288.687 142.705 299.421C138.603 310.296 126.154 328.092 126.154 328.092Z" fill="#3D3C3C"/>
</svg>
