<svg width="497" height="497" viewBox="0 0 497 497" fill="none" xmlns="http://www.w3.org/2000/svg">
<path d="M310.4 390.1C310.4 390.1 291.8 390.4 289.8 390.3C286.2 390.1 282.1 390.5 281.1 387.2C280.3 384.7 281.5 382.9 280.6 381.5C275.9 374.6 262 352 256.4 343.6C255.1 341.7 253.8 339.6 252.6 337.5C247.5 328.9 270.1 323.8 271.6 327.1C278.5 342 288.4 374.1 290.1 379.2C290.1 379.2 313.9 381.7 313.9 388.2C313.8 390.2 310.4 390.1 310.4 390.1Z" fill="#ECAD83"/>
<path d="M240.3 308C244.6 318.7 247.4 328.9 252.5 337.4C254.8 334.7 268.4 327.6 271.5 327C270 323.7 259.7 297.8 259.7 297.8C256.4 289.6 237.7 241 227.9 228C225.5 224.6 223.1 221.7 220.9 219.5C216.7 215.1 189.8 233.8 192.6 241.4C202.1 256.3 225 280.5 229.8 287.1C234.7 293.6 240.3 308 240.3 308Z" fill="#333333"/>
<path d="M231.1 209.8C209.1 206.4 202.9 211.7 196.5 218.2C196.5 218.2 190.7 224.6 188.9 231.2C185.2 244.8 192.1 254.4 192.1 254.4C192.1 254.4 218.3 257.9 220.6 251.1C220.6 251.1 221.3 250.2 221.9 249.8C222.7 249.2 223.8 249.1 223.8 249.1C229 231.3 231.1 209.8 231.1 209.8Z" fill="#3D3C3C"/>
<path d="M361.7 103.2C365.3 104.1 359.5 119 359.3 123.8L355.4 128.6C349 162.7 342.5 177.9 342.5 177.9C339.6 198.5 329.3 234.3 326 241.5C324.1 245.9 305.1 236.6 306.5 231C309.5 222.5 312.2 218.6 313.6 215.2C315.6 207.6 327.5 181.3 329.9 174.8C330.2 173.9 347 126.5 347 126.5C347 126.5 347.5 124.5 347.2 121C346.8 116.2 348.9 109.6 351.5 106.4C353.8 103.7 358.1 102.2 361.7 103.2Z" fill="#F6BB92"/>
<path d="M359 118.7C359 118.7 359.8 113.7 362.5 113.9C364.7 114 365.5 114.3 359.3 123.7C359.3 123.8 357.9 123.3 359 118.7Z" fill="#F6BB92"/>
<path d="M265.3 393C261.7 392 267.8 377.3 268.1 372.4L272.1 367.6C279.2 333.6 285.9 318.6 285.9 318.6C289.2 298.1 300.2 262.5 303.6 255.3C305.6 250.9 322.1 268.1 320.5 273.7C320.5 273.7 318.7 277.4 316.3 282.1C313 290.8 300.8 315.4 298.3 321.9C298 322.8 280.3 369.8 280.3 369.8C280.3 369.8 279.8 371.8 280 375.3C280.3 380.1 278.1 386.7 275.4 389.9C273.2 392.6 268.9 394 265.3 393Z" fill="#F6BB92"/>
<path d="M268.3 377.6C268.3 377.6 267.4 382.5 264.7 382.3C262.5 382.1 261.7 381.8 268.1 372.5C268.1 372.5 269.5 373.1 268.3 377.6Z" fill="#F6BB92"/>
<path d="M287.3 275.2C298.2 279.1 320.6 273.7 320.6 273.7C322 269.3 323 264.8 323.7 261.3L326 249C326.6 245.5 327.3 240.9 327.5 236.4C327.5 236.4 308.6 223.3 297 223.1C286.1 222.9 270.2 223 231.1 209.7L226 236.9L223.9 248.9C263.3 257.3 277.1 271.5 287.3 275.2Z" fill="#F68096"/>
<path d="M287.3 275.2C298.2 279.1 320.6 273.7 320.6 273.7C322 269.3 323 264.8 323.7 261.3L326 249C326.6 245.5 327.3 240.9 327.5 236.4C327.5 236.4 308.6 223.3 297 223.1C286.1 222.9 236.6 238.6 231.5 242.5C226.4 246.4 223.9 248.9 223.9 248.9C263.3 257.3 277.1 271.5 287.3 275.2Z" fill="#FF8AA0"/>
<path d="M334.6 265.6L337.7 249C329.4 250.1 326.3 247.1 326.3 247.1C326.3 247.1 321.1 246.6 319.7 254.3C318.3 261.9 323.3 263.3 323.3 263.3C323.3 263.3 327.2 261.6 334.6 265.6Z" fill="#ECAD83"/>
<path d="M361.4 248.3C367.7 247.3 371.2 251.8 372.9 254.7C378.4 263.8 376.5 269.5 372.9 276.3C368.2 285.3 342.7 276.2 339.1 273.3C329.8 265.8 333.3 249.3 336.2 243.4C339.4 236.9 340.8 239.6 343.3 241.2C343.4 241.3 343.9 241.1 343.9 241.1C344.8 241.6 346 242.3 347.5 242.3C347.5 242.3 348.2 243 348.6 243.2C348.9 243.4 349.1 243.4 349.4 243.2C350.2 242.4 351 241.7 351.6 241.5C353.4 241 358.4 248.8 361.4 248.3Z" fill="#F6BB92"/>
<path d="M344.3 245.6C344.3 245.6 344.2 244.8 345.8 241.8C346.2 241.5 346.9 241.1 347.4 242.1C347.8 242.8 345.7 243.6 344.3 245.6Z" fill="#D6876B"/>
<path d="M344.3 245.6C344.3 245.6 343.1 244.2 343.9 241.2C344.2 240.8 344.6 240.7 344.8 240.7C345.9 240.8 345.8 241.8 345.8 241.8C344.3 244.8 344.3 245.6 344.3 245.6Z" fill="#CC785E"/>
<path d="M374.1 277.7C368.3 288.7 344.8 295 334.1 270.2C333.4 268.5 333.1 265.5 337.5 263.4C340.6 261.9 343.8 261.6 343.8 261.6C344.8 261.5 345.8 261.4 347 261.3C348.2 261.2 353.3 264.8 354 263.7C361.4 253.8 369.5 252.3 372.3 253.8C378.5 258.7 380.2 266 374.1 277.7Z" fill="#602F0F"/>
<path d="M345.9 265.1C341.9 260.9 342.7 258.8 344.5 256L351.2 261.6L353.5 264.7C351.7 267.4 349.9 269.3 345.9 265.1Z" fill="#F6BB92"/>
<path d="M348.4 286.1C349.2 289.8 355.2 291.4 361.6 289.7C368.1 288 372.6 283.5 371.8 279.8C371 276.1 366.2 275.5 359.7 277.2C353.2 279 347.5 282.4 348.4 286.1Z" fill="#4C230C"/>
<path d="M351.1 261.8C352.4 263.2 353.3 264.3 353.7 265.1C353.7 265.1 353.7 265.1 353.8 265C353.3 265.5 353 265.8 353 265.8C353.5 266 353.9 266.3 354.4 266.5L357.2 263.9C357.2 263.9 356.5 263.7 355.6 263.3C354.9 263 354.1 262.5 353.3 261.9C350.9 260.1 351.1 261.8 351.1 261.8Z" fill="#602F0F"/>
<path d="M347.7 288.1C348.6 292 355 293.6 362.1 291.7C369.2 289.8 374.2 285.1 373.3 281.2C372.4 277.3 367.2 276.7 360.1 278.6C353.1 280.5 346.8 284.2 347.7 288.1Z" fill="#602F0F"/>
<path d="M358.4 291.4C358.5 291.8 360.3 291.7 362.5 291.1C364.7 290.5 366.3 289.7 366.2 289.3C366.1 288.9 364.6 289.1 362.4 289.6C360.3 290.2 358.3 291 358.4 291.4Z" fill="#4C230C"/>
<path d="M141 390.2C141 390.2 123.6 390.2 121.8 390.1C118.2 389.9 117.5 386.3 119 383C120.1 380.6 122.1 379.5 123.5 376.8C127.2 369.3 136.6 346.8 140.5 337.5C141.4 335.3 142.4 333.2 143.4 331C147.7 322 165.1 336.8 163.2 339.9C155.7 352.2 136.3 376.5 133 380.7C133 380.7 150.4 383.4 150.5 387.2C150.7 390.2 145.5 390.6 141 390.2Z" fill="#F6BB92"/>
<path d="M161.9 303.5C155.3 313 147.9 322.1 143.5 331C147 331.4 161.1 337.7 163.3 339.9C165.2 336.8 181.1 313.9 181.1 313.9C186.1 306.6 216.2 264.1 221.6 248.8C223.1 244.9 224.1 241.3 224.8 238.3C226.1 232.4 195.7 220.3 190.9 226.9C183.8 243.1 176.4 275.6 173.6 283.2C170.7 290.9 161.9 303.5 161.9 303.5Z" fill="#3D3C3C"/>
</svg>
