<svg width="500" height="500" viewBox="0 0 500 500" fill="none" xmlns="http://www.w3.org/2000/svg">
<path d="M224.851 223.356C215.951 223.13 206.962 222.386 198.167 223.575C179.241 226.136 166.936 237.086 160.903 255.145C153.301 277.906 145.871 300.727 138.078 323.421C128.042 352.66 116.245 381.245 105.496 410.219C104.945 411.701 104.547 413.235 104.078 414.745C112.382 414.749 120.686 414.752 128.991 414.756C150.761 370.606 172.28 326.339 192.375 281.444C194.167 281.691 194.572 282.958 195.246 283.836C215.129 309.638 234.98 335.465 254.852 361.278C255.995 362.763 256.937 364.312 257.614 366.083C261.935 377.418 268.871 386.862 278.647 394.055C291.488 403.502 304.47 412.759 317.389 422.097C313.625 406.931 309.86 391.769 306.096 376.603C305.853 376.289 305.606 375.978 305.362 375.664L305.398 375.717C298.416 368.274 291.026 361.176 285.617 352.399C281.155 345.16 276.689 337.921 272.251 330.664C260.743 311.857 249.25 293.044 237.752 274.23C233.452 257.268 229.152 240.31 224.855 223.349L224.851 223.356Z" fill="#6A6D66"/>
<path d="M306.097 376.606C309.861 391.772 313.625 406.934 317.389 422.1C318.194 425.025 319.111 427.925 319.763 430.884C320.229 432.998 321.065 434.077 323.461 433.996C328.893 433.805 334.333 433.869 339.77 433.83C339.762 427.466 339.755 421.105 339.748 414.741C337.547 406.853 333.797 399.406 332.834 391.172C331.589 380.539 330.823 369.84 329.296 359.249C325.214 331.002 327.772 302.593 326.861 274.275C316.239 274.349 305.617 274.427 294.998 274.501C295.013 285.772 295.394 297.058 294.953 308.308C294.342 323.795 295.993 338.855 300.435 353.749C302.573 360.911 304.936 368.132 305.405 375.72L305.37 375.667C305.614 375.981 305.86 376.292 306.104 376.606H306.097Z" fill="#F7BB92"/>
<path d="M326.857 216.836C326.896 195.31 327.21 173.78 326.861 152.257C326.66 139.818 329.094 127.753 330.48 115.532C331.934 102.716 334.389 90.1429 339.222 78.1379C340.157 75.8166 339.529 72.8391 339.035 71.0082C336.968 63.3811 331.059 62.6368 323.22 63.36C314.313 64.1819 314.454 63.5963 312.425 72.3417C307.363 94.1716 304.974 116.435 301.574 138.534C300.91 142.837 301.037 147.268 300.826 151.629C299.997 168.724 299.563 185.838 298.938 202.94C298.787 207.047 298.466 211.142 298.222 215.245C300 216.586 302.025 216.861 304.205 216.843C311.755 216.787 319.304 216.833 326.854 216.84L326.857 216.836Z" fill="#F7BB92"/>
<path d="M326.857 216.836C319.308 216.829 311.758 216.783 304.209 216.84C302.029 216.857 300.004 216.582 298.226 215.242C287.007 212.109 277.923 216.61 269.443 223.274C269.443 238.133 269.435 252.996 269.432 267.859C276.445 275.874 284.877 278.424 294.991 274.501C305.613 274.427 316.235 274.35 326.857 274.276C326.896 267.926 326.935 261.576 326.974 255.226C318.754 252.015 310.534 248.801 301.531 245.288C310.661 241.915 318.817 238.902 326.974 235.893C326.935 229.543 326.896 223.193 326.857 216.843V216.836Z" fill="#8A8AD9"/>
<path d="M269.433 267.859C269.433 252.996 269.44 238.137 269.443 223.274C265.813 224.026 262.095 224.484 258.578 225.582C249.769 228.323 241.295 225.522 232.709 224.421C230.087 224.086 227.473 223.708 224.856 223.352C229.156 240.314 233.456 257.272 237.757 274.233C240.117 273.051 242.533 271.972 244.823 270.67C250.175 267.622 255.569 265.244 262.007 267.037C264.377 267.696 266.956 267.605 269.44 267.859H269.433Z" fill="#F7BB92"/>
<path d="M326.974 235.886C318.817 238.899 310.661 241.912 301.531 245.281C310.534 248.798 318.754 252.008 326.974 255.219C335.483 255.197 343.988 255.173 352.494 255.148C356.12 251.479 359.828 247.888 363.338 244.11C364.823 242.511 366.026 242.61 367.772 243.566C370.997 245.33 374.352 246.861 377.925 248.625C379.919 240.797 381.838 233.265 383.757 225.733C379.795 224.858 377.336 225.515 374.027 223.603C370.986 221.842 367.226 217.009 363.701 215.739C361.93 215.101 360.819 216.106 360.004 219.048C359.136 222.184 357.799 223.285 355.03 223.26C346.214 223.183 346.048 223.285 346.211 232.119C346.271 235.421 345.131 236.168 342.115 236.027C337.077 235.791 332.018 235.911 326.97 235.883L326.974 235.886Z" fill="#F7BB92"/>
<path d="M398.789 259.784C407.76 248.678 403.806 233.512 390.534 228.333C388.209 227.427 385.863 226.569 383.528 225.688C381.683 233.237 379.834 240.783 377.915 248.632C374.324 246.904 370.955 245.404 367.713 243.669C365.96 242.73 364.753 242.642 363.282 244.254C359.811 248.064 356.135 251.691 352.544 255.395C355.281 265.04 360.841 271.901 371.131 273.891C373.442 274.339 375.873 274.18 378.247 274.3C384.004 273.101 389.875 271.52 393.649 266.906" fill="#7A4821"/>
<path d="M128.988 414.755C120.684 414.755 112.379 414.748 104.075 414.745C102.749 419.292 103.133 423.966 103.779 428.475C104.269 431.89 107.052 433.893 110.69 433.922C119.319 433.985 127.951 433.908 136.58 433.968C138.845 433.982 140.478 433.071 141.385 431.103C142.341 429.025 141.501 427.162 140.027 425.67C136.39 421.991 132.671 418.389 128.985 414.755H128.988Z" fill="#F7BB92"/>
<path d="M346.102 433.83C351.549 433.869 356.996 433.82 362.439 433.989C364.792 434.06 365.554 433.089 365.293 430.938C365.275 430.807 365.289 430.673 365.293 430.539C365.432 424.304 362.513 420.44 356.537 418.947C353.069 418.086 349.584 417.306 346.109 416.491C346.109 422.273 346.109 428.052 346.109 433.834L346.102 433.83Z" fill="#F7BB92"/>
<path d="M346.102 433.83C346.102 428.048 346.102 422.27 346.102 416.488C344.112 415.436 341.907 415.161 339.744 414.738C339.752 421.102 339.759 427.463 339.766 433.827C341.875 433.827 343.988 433.827 346.098 433.827L346.102 433.83Z" fill="#DEA882"/>
<path d="M403.477 247.803C408.339 250.442 410.374 254.806 409.669 260.574C408.956 266.391 405.598 270.773 400.168 273.606C395.949 275.81 391.624 277.772 387.384 279.924C379.563 283.896 374.105 290.655 368.161 296.829C366.908 298.131 365.684 299.457 364.136 301.105C363.412 291.424 363.18 282.185 367.695 272.851C376.783 277.754 389.705 274.244 397.59 263.311C401.043 258.524 402.468 253.208 403.477 247.8V247.803Z" fill="#7A4821"/>
<path d="M404.127 248.508C403.45 254.266 402.321 259.896 398.98 264.803C391.353 276.011 377.781 278.833 367.688 272.868C367.657 272.688 367.717 272.547 367.861 272.441C370.176 271.453 372.384 272.712 374.624 272.875C386.83 273.746 397.16 264.574 399.943 253.37C400.43 251.412 400.758 249.419 401.16 247.439C402.229 247.574 403.263 247.81 404.127 248.512V248.508Z" fill="#5C3717"/>
</svg>
