<svg width="500" height="500" viewBox="0 0 500 500" fill="none" xmlns="http://www.w3.org/2000/svg">
<path d="M224.851 223.356C215.951 223.13 206.962 222.386 198.167 223.575C179.241 226.136 166.936 237.086 160.903 255.145C153.301 277.906 145.871 300.727 138.078 323.421C128.042 352.66 116.245 381.245 105.496 410.219C104.945 411.701 104.547 413.235 104.078 414.745C112.382 414.749 120.686 414.752 128.991 414.756C150.761 370.606 181.28 328.339 201.375 283.444C203 284.5 204.572 285.958 205.246 286.836C225.129 312.638 234.98 335.465 254.852 361.278C255.995 362.763 256.937 364.312 257.614 366.083C261.935 377.418 268.871 386.862 278.647 394.055C291.488 403.502 304.47 412.759 317.389 422.097C313.625 406.931 309.86 391.769 306.096 376.603C305.853 376.289 305.606 375.978 305.362 375.664L305.398 375.717C298.416 368.274 291.026 361.176 285.617 352.399C281.155 345.16 276.689 337.921 272.251 330.664C260.743 311.857 247.997 278.814 236.5 260C232.2 243.038 229.152 240.31 224.855 223.349L224.851 223.356Z" fill="#6A6D66"/>
<path d="M236.5 260C238.244 262.853 240.014 266.034 241.807 269.442L208.601 291.288C207.513 289.814 206.397 288.329 205.246 286.836C204.592 285.984 203.092 284.587 201.519 283.54L201.5 283.5C204 278.833 211.7 268.3 222.5 263.5C228.197 260.968 232.847 259.716 236.286 259.172C236.356 259.444 236.429 259.72 236.5 260Z" fill="#5A5F56"/>
<path d="M306.096 376.606C309.86 391.772 313.624 406.935 317.388 422.101C318.193 425.025 319.11 427.925 319.762 430.885C320.228 432.998 321.064 434.077 323.46 433.996C328.892 433.806 334.332 433.869 339.769 433.831C339.761 427.466 339.754 421.106 339.747 414.742C337.546 406.854 333.796 399.406 332.833 391.173C331.588 380.54 330.822 369.84 329.295 359.25C325.213 331.003 327.771 297.593 326.86 269.276C316.238 269.35 305.616 269.428 294.997 269.502C295.012 280.773 295.393 297.058 294.952 308.308C294.341 323.795 295.992 338.856 300.434 353.75C302.572 360.911 304.935 368.133 305.404 375.721L305.369 375.668C305.613 375.982 305.859 376.292 306.103 376.606H306.096Z" fill="#F7BB92"/>
<path d="M326.857 224.836C326.896 203.31 327.21 173.78 326.861 152.257C326.66 139.818 329.094 127.753 330.48 115.532C331.934 102.716 334.389 90.1429 339.222 78.1379C340.157 75.8166 339.529 72.8391 339.035 71.0082C336.968 63.3811 331.059 62.6368 323.22 63.36C314.313 64.1819 314.454 63.5963 312.425 72.3417C307.363 94.1716 304.974 116.435 301.574 138.534C300.91 142.837 301.037 147.268 300.826 151.629C299.997 168.724 299.563 185.838 298.938 202.94C298.787 207.047 298.466 219.142 298.222 223.245C300 224.586 302.025 224.861 304.205 224.843C311.755 224.787 319.304 224.833 326.854 224.84L326.857 224.836Z" fill="#F7BB92"/>
<path d="M128.987 414.756C120.683 414.756 112.378 414.749 104.074 414.745C102.748 419.292 103.132 423.967 103.778 428.475C104.268 431.89 107.052 433.894 110.689 433.922C119.318 433.986 127.95 433.908 136.579 433.968C138.844 433.982 140.477 433.072 141.384 431.103C142.34 429.026 141.5 427.163 140.026 425.671C136.389 421.991 132.67 418.389 128.984 414.756H128.987Z" fill="#F7BB92"/>
<path d="M346.101 433.83C351.548 433.869 356.995 433.82 362.438 433.989C364.791 434.06 365.553 433.089 365.292 430.938C365.274 430.807 365.288 430.673 365.292 430.539C365.431 424.304 362.512 420.44 356.536 418.947C353.068 418.086 349.583 417.306 346.108 416.491C346.108 422.273 346.108 428.052 346.108 433.834L346.101 433.83Z" fill="#F7BB92"/>
<path d="M346.101 433.831C346.101 428.049 346.101 422.27 346.101 416.488C344.111 415.437 341.906 415.162 339.744 414.738C339.751 421.102 339.758 427.463 339.765 433.827C341.874 433.827 343.987 433.827 346.097 433.827L346.101 433.831Z" fill="#DEA882"/>
<path d="M398.628 227.036C396.241 221.922 392.586 217.886 387.532 215.237C386.051 214.459 384.524 213.756 382.833 213.535C381.453 214.657 380.073 215.78 378.632 216.831C376.949 218.058 375.213 219.214 373.571 220.486C371.513 222.079 369.527 223.759 367.514 225.412C366.755 226.037 366.074 226.748 365.483 227.541C364.985 228.207 364.667 228.918 364.608 229.763C364.507 231.147 364.301 232.524 364.237 233.908C364.159 235.621 363.362 236.863 361.981 237.791C361.454 238.147 360.926 238.509 360.369 238.816C358.543 239.819 357.163 241.244 356.104 243.029C354.039 246.511 351.918 249.96 349.85 253.44C349.199 254.532 348.63 255.673 348.054 256.806C347.654 257.588 347.425 258.423 347.515 259.317C351.591 268.928 365.808 274.455 375.404 272.612C378.419 272.032 381.341 271.246 384.139 269.963C385.456 269.361 386.668 268.602 387.914 267.891C389.429 267.027 390.76 265.927 392.047 264.778C402.467 255.46 404.391 239.391 398.628 227.036Z" fill="#814414"/>
<path d="M390.219 299.009C392.713 290.146 395.558 274.912 388.807 267C388.563 268.36 387.568 269.095 386.485 269.638C384.74 270.51 382.948 271.296 381.14 272.031C378.013 273.296 374.708 273.963 371.45 274.737C369.984 275.087 368.378 275.19 366.902 274.45C366.439 274.908 366.388 275.557 366.215 276.13C362.723 287.522 352.492 320.54 369.676 326C381.341 325.414 387.591 308.348 390.219 299.009Z" fill="#814414"/>
<path d="M367.114 274.464C368.588 275.181 370.192 275.078 371.658 274.74C374.913 273.993 378.219 273.35 381.34 272.129C383.146 271.424 384.936 270.665 386.68 269.819C387.762 269.296 388.756 268.582 389 267.275C388.987 266.775 388.979 266.276 388.966 265.777C388.798 265.674 388.604 265.6 388.461 265.468C387.838 264.903 387.172 264.886 386.431 265.225C383.946 266.355 381.344 267.171 378.741 267.98C375.89 268.867 372.972 269.522 370.049 270.133C369.594 270.228 369.156 270.384 368.701 270.475C368.04 270.607 367.632 270.945 367.501 271.618C367.468 271.787 367.278 271.927 367.16 272.08C366.966 272.867 366.945 273.663 367.114 274.46V274.464Z" fill="#5D3717"/>
<path d="M347.518 259.318C347.428 258.424 347.656 257.59 348.056 256.808C348.636 255.674 349.205 254.533 349.852 253.441C351.921 249.962 354.042 246.513 356.107 243.03C357.166 241.245 358.546 239.82 360.372 238.817C360.929 238.511 361.453 238.148 361.984 237.792C363.364 236.865 364.165 235.623 364.24 233.909C364.303 232.525 364.509 231.149 364.61 229.764C364.67 228.919 364.992 228.212 365.485 227.542C366.077 226.745 366.754 226.038 367.517 225.414C369.526 223.76 371.516 222.081 373.573 220.487C375.216 219.211 376.951 218.055 378.635 216.832C380.075 215.784 381.456 214.662 382.836 213.536C381.452 213.323 380.06 213.428 378.676 213.458C376.271 213.506 374.123 212.84 372.159 211.467C369.922 209.907 367.82 208.217 366.077 206.088C365.16 204.973 364.098 203.974 363.095 202.934C362.897 202.729 362.672 202.534 362.433 202.377C361.812 201.977 361.18 201.849 360.473 202.227C359.799 202.586 359.174 202.975 358.744 203.63C358.303 204.307 357.846 204.977 357.379 205.639C355.673 208.074 353.713 210.24 351.158 211.845C350.058 212.537 348.868 212.953 347.656 213.323C346.264 213.749 344.91 214.262 343.676 215.025C341.798 216.185 340.406 217.752 339.789 219.941C339.579 220.681 339.546 221.426 339.549 222.174C339.561 224.434 339.609 226.689 339.624 228.949C339.639 231.014 339.419 231.276 337.346 231.702C336.272 231.927 335.169 231.923 334.084 232.121C332.67 232.379 331.218 232.443 329.778 232.54C329.026 232.589 328.327 232.97 327.556 232.839C327.253 233.124 327.047 233.46 327.036 233.894C327.025 234.47 326.995 235.047 327.002 235.623C327.029 238.679 326.931 241.747 327.126 244.792C327.433 249.633 327.332 254.473 327.459 259.31C327.474 259.939 327.646 260.56 327.747 261.185C328.764 260.975 329.786 260.788 330.796 260.549C332.992 260.029 335.221 259.804 337.47 259.61C340.182 259.374 342.894 259.325 345.61 259.288C346.246 259.28 346.882 259.307 347.518 259.318Z" fill="#FFB78A"/>
<path d="M255.997 271C255.963 265.019 256.04 259.034 255.869 253.06C255.668 245.907 255.655 238.754 255.635 231.601C255.632 229.787 255.631 227.973 255.652 226.159C255.668 224.791 255.625 223.42 255.863 222.055C255.98 221.387 255.889 220.687 255.893 220C254.63 220.234 253.364 220.453 252.104 220.709C249.233 221.292 246.358 221.849 243.43 222.14C241.692 222.315 239.97 222.641 238.238 222.885C237.883 222.935 237.518 222.942 237.156 222.945C234.881 222.976 232.593 222.869 230.335 223.062C228.054 223.258 225.809 222.973 223.544 222.983C223.028 222.983 222.513 223.014 222 223.033C222 235 222.723 251.5 222.723 263.5C235.202 263.5 243.43 265.5 254.513 270.873C254.988 270.987 255.504 270.959 256 270.994L255.997 271Z" fill="#FFB78A"/>
<path d="M327 222C311.992 218.379 298.01 216.062 282.881 213C273 215.5 262.539 218.778 258.173 219.51C257.181 219.676 256.161 219.834 255.244 220.327C255.244 237.38 255.252 254.426 255.342 271.479C260.58 273.273 271.5 276.5 282.229 280C297.699 277.478 311.753 275.149 327 271.5C329.552 258.434 328.286 236.504 327 222Z" fill="#8989DE"/>
<path d="M433.485 188.893C433.458 189.069 433.517 189.198 433.689 189.265C433.739 189.077 433.653 188.964 433.485 188.893Z" fill="#865437"/>
<path d="M433.127 188.158C433.099 188.338 433.162 188.471 433.338 188.537C433.389 188.346 433.295 188.228 433.127 188.158Z" fill="#865437"/>
<path d="M431.706 185.193C431.671 185.4 431.745 185.545 431.937 185.631C431.98 185.42 431.89 185.283 431.706 185.193Z" fill="#865437"/>
<path d="M431.348 184.454C431.317 184.665 431.403 184.813 431.598 184.903C431.633 184.688 431.543 184.54 431.348 184.454Z" fill="#865437"/>
<path d="M430.988 183.715C430.957 183.93 431.047 184.082 431.239 184.176C431.274 183.957 431.184 183.804 430.988 183.715Z" fill="#865437"/>
<path d="M430.774 182.007C430.622 182.112 430.579 182.253 430.622 182.429C430.774 182.323 430.829 182.186 430.774 182.007Z" fill="#865437"/>
</svg>
