<svg width="500" height="500" viewBox="0 0 500 500" fill="none" xmlns="http://www.w3.org/2000/svg">
<path d="M111.166 395.572C118.892 387.705 144.927 365.057 154.982 360.858C161.861 358.001 169.023 355.99 176.29 354.508C179.324 353.873 181.687 352.533 183.91 350.381C195.164 339.233 206.523 328.226 217.883 317.184C229.102 306.318 241.449 296.934 255.031 289.173C269.672 296.511 284.312 303.813 298.953 311.151C299.87 311.398 300.752 311.786 301.669 311.927C319.837 314.75 337.97 317.607 356.174 320.288C370.991 322.476 380.657 331.295 382.774 345.618C384.009 353.909 384.608 362.27 385.42 370.631C386.902 385.836 388.348 401.04 389.794 416.245C379.846 416.281 369.897 416.351 359.949 416.387C358.467 412.471 357.127 408.519 355.504 404.674C348.977 388.975 346.155 372.888 350.036 356.025C350.494 354.014 349.824 353.521 347.884 353.379C338.182 352.709 328.481 351.968 318.814 351.086C308.619 350.134 298.318 350.134 288.263 347.77C289.075 343.819 289.921 339.903 290.662 335.952C290.839 334.964 291.227 333.624 290.239 332.918C289.392 332.283 288.44 333.13 287.664 333.624C281.208 337.575 273.658 338.915 267.026 342.478C265.438 341.949 264.521 343.149 263.427 343.89C256.054 348.864 248.54 353.732 241.343 358.953C217.072 376.487 191.636 391.762 162.99 401.287C150.113 405.591 137.625 411.13 124.96 416.14" fill="#696D65"/>
<path d="M228.219 205.599C227.232 201.153 226.032 196.744 225.256 192.228C224.409 187.289 224.868 182.28 224.974 177.27C226.35 171.872 227.69 166.475 229.031 161.077C233.511 153.528 232.453 137.017 236.192 129.115C236.651 128.163 240.179 112.323 240.002 111.37C236.969 95.4948 237.674 87.8394 234.958 71.9289C234.323 68.2247 232.241 64.838 233.017 60.5693C234.182 54.2192 235.31 48.4335 238.344 42.8948C238.874 41.9776 239.297 40.7076 240.673 41.0603C244.977 42.2245 246.388 41.907 250.339 43.9179C251.115 44.306 250.903 45.3643 250.939 46.1757C251.186 51.5733 251.362 56.9709 251.644 62.3332C251.821 65.6846 250.163 71.7172 251.221 75.0687C253.937 83.6766 256.23 92.4256 259.053 100.998C262.087 110.241 259.829 134.583 258.594 144.25C256.583 160.019 262.757 176.212 260.57 191.946C256.901 190.499 254.96 186.442 251.009 185.419C250.903 185.067 250.798 184.714 250.727 184.361C250.621 184.432 250.515 184.502 250.41 184.573C250.621 184.855 250.798 185.137 251.009 185.419C253.02 191.452 255.666 197.167 259.159 202.494C256.971 215.406 250.586 225.919 240.673 234.35C239.156 232.728 238.803 230.54 237.956 228.6C234.534 221.015 232.382 212.901 228.255 205.634L228.219 205.599Z" fill="#F2BA94"/>
<path d="M259.123 202.459C260.464 199.355 260.182 195.968 260.782 192.722C269.601 196.497 278.491 200.06 287.205 204.047C297.436 208.739 302.022 220.522 296.342 229.8C293.202 234.95 293.626 239.572 294.261 244.722C294.472 246.31 294.578 247.933 294.719 249.556C279.338 251.919 263.957 254.248 248.575 256.611C245.224 249.45 242.719 241.971 240.673 234.351C250.586 225.919 256.971 215.406 259.159 202.494L259.123 202.459Z" fill="#8B8ADF"/>
<path d="M294.684 249.555C294.72 250.508 294.79 251.46 294.79 252.377C295.002 262.22 294.649 272.027 295.39 281.905C296.131 291.713 298.142 301.344 298.918 311.151C284.277 303.813 269.637 296.511 254.996 289.173C255.102 284.199 254.291 279.295 253.55 274.391C252.597 268.217 249.81 262.643 248.505 256.646C263.886 254.282 279.268 251.954 294.649 249.59L294.684 249.555Z" fill="#F2BA94"/>
<path d="M228.219 205.598C220.352 211.878 211.885 212.054 202.995 208.103C198.762 204.822 195.234 200.977 193.293 195.897C192.87 194.062 192.376 192.263 192.059 190.393C189.378 175.471 202.042 160.971 217.142 161.642C216.895 166.122 218.412 170.32 219.082 174.659C219.329 176.282 220.352 176.529 221.728 176.353C222.821 176.67 223.88 176.988 224.973 177.27C224.868 182.244 224.444 187.289 225.256 192.228C226.032 196.708 227.231 201.153 228.219 205.598Z" fill="#8A4101"/>
<path d="M124.995 416.069C127.535 417.586 130.075 419.103 132.545 420.69C134.238 421.784 136.072 422.772 137.483 424.183C140.517 427.217 140.27 431.027 139.212 434.802C138.118 438.718 134.838 438.047 131.874 438.047C127.429 438.047 122.984 438.047 118.504 438.047C116.987 438.047 115.576 437.836 114.27 437.024C109.437 434.061 107.532 429.439 104.851 423.795C100.582 415.505 96.737 409.366 100.582 403.334C102.981 399.594 107.321 397.971 111.131 395.572C118.045 400.37 121.573 408.414 124.995 416.069Z" fill="#F2BA94"/>
<path d="M389.795 416.21C394.487 418.609 399.143 420.973 403.835 423.372C408.245 425.594 410.08 428.628 409.233 432.226C408.386 435.86 405.247 437.942 400.59 437.942C393.04 437.942 385.491 437.942 377.906 437.942C369.721 437.942 364.041 433.638 361.925 425.771C361.113 422.666 360.584 419.491 359.949 416.316C369.898 416.281 379.846 416.21 389.795 416.175V416.21Z" fill="#F2BA94"/>
<path d="M188.355 198.19C190.013 205.74 194.458 210.82 201.866 213.148C200.42 220.662 200.349 228.423 197.492 235.726C194.458 243.382 190.295 250.226 183.451 256.47C183.451 252.413 183.451 249.344 183.451 246.274C183.451 237.843 182.322 229.623 178.582 221.897C173.326 210.996 176.854 202.564 188.355 198.19Z" fill="#8A4101"/>
<path d="M267.061 342.408C273.693 338.88 281.242 337.504 287.698 333.553C288.475 333.094 289.427 332.248 290.274 332.847C291.261 333.553 290.873 334.858 290.697 335.881C289.956 339.833 289.11 343.748 288.298 347.7C280.925 347.135 274.081 344.383 267.061 342.408Z" fill="#464843"/>
<path d="M188.354 198.19C190.013 197.414 191.635 196.638 193.293 195.897C195.234 200.977 198.762 204.822 202.995 208.103C202.607 209.797 202.254 211.455 201.866 213.148C194.422 210.82 190.013 205.74 188.354 198.19Z" fill="#5C3717"/>
<path d="M217.107 161.677L217.212 161.783C224.797 161.889 225.762 161.889 223.892 169.226C223.292 171.555 222.446 173.883 222.693 176.353C220.5 177 219.329 176.282 219.047 174.659C218.341 170.32 216.86 166.122 217.107 161.642V161.677Z" fill="#F7BB92"/>
<path d="M250.974 185.384C254.925 186.442 256.865 190.464 260.534 191.91C260.605 192.193 260.675 192.475 260.746 192.722C260.146 195.967 260.464 199.354 259.088 202.459C255.595 197.132 252.949 191.381 250.938 185.349L250.974 185.384Z" fill="#DEA882"/>
<path d="M217.248 161.783C221.093 160.16 225.115 161.324 229.031 161.112C227.655 166.51 226.315 171.908 224.974 177.305C223.88 176.988 222.822 176.67 221.728 176.388C221.481 173.919 222.328 171.59 222.928 169.262C224.798 161.889 224.833 161.924 217.248 161.818V161.783Z" fill="#F2BA94"/>
<path d="M250.974 185.384C250.762 185.102 250.586 184.82 250.374 184.537C250.48 184.467 250.586 184.396 250.692 184.326C250.797 184.678 250.903 185.031 250.974 185.384Z" fill="#CEA789"/>
<path d="M111.166 395.572C118.892 387.705 144.927 365.057 154.982 360.858C161.861 358.001 169.023 355.99 176.29 354.508C179.324 353.873 181.687 352.533 183.91 350.381C195.164 339.233 206.523 328.226 217.883 317.184C229.102 306.318 241.449 296.934 255.031 289.173C269.672 296.511 284.312 303.813 298.953 311.151C299.87 311.398 300.752 311.786 301.669 311.927C319.837 314.75 337.97 317.607 356.174 320.288C370.991 322.476 380.657 331.295 382.774 345.618C384.009 353.909 384.608 362.27 385.42 370.631C386.902 385.836 388.348 401.04 389.794 416.245C379.846 416.281 369.897 416.351 359.949 416.387C358.467 412.471 357.127 408.519 355.504 404.674C348.977 388.975 346.155 372.888 350.036 356.025C350.494 354.014 349.824 353.521 347.884 353.379C338.182 352.709 328.481 351.968 318.814 351.086C308.619 350.134 298.318 350.134 288.263 347.77C289.075 343.819 289.921 339.903 290.662 335.952C290.839 334.964 291.227 333.624 290.239 332.918C289.392 332.283 288.44 333.13 287.664 333.624C281.208 337.575 273.658 338.915 267.026 342.478C265.438 341.949 264.521 343.149 263.427 343.89C256.054 348.864 248.54 353.732 241.343 358.953C217.072 376.487 191.636 391.762 162.99 401.287C150.113 405.591 137.625 411.13 124.96 416.14" fill="#696D65"/>
<path d="M228.607 161.889L224.691 176.318" stroke="#DEA882" stroke-width="4" stroke-miterlimit="10"/>
</svg>
