<svg width="500" height="501" viewBox="0 0 500 501" fill="none" xmlns="http://www.w3.org/2000/svg">
<path d="M447.804 431.477C442.476 431.214 421.421 431.608 419.472 431.871C414.793 432.529 409.855 430.688 409.985 426.217C410.115 422.798 411.154 419.51 410.634 417.406C407.775 406.755 399.717 373.749 396.338 360.862C395.299 356.522 421.811 347.843 422.331 352.577C424.281 371.513 423.761 411.62 423.631 418.458C423.631 418.458 451.443 419.642 451.703 424.639C451.963 427.532 453.133 431.871 447.804 431.477Z" fill="#ECAD83"/>
<path d="M394.025 330.761C393.371 338.361 391.411 344.782 396.377 361.031C400.428 359.066 412.45 354.086 422.512 352.776C421.598 345.175 422.774 309.533 412.973 299.312C402.649 288.567 307.779 313.595 305.557 310.188C305.557 310.188 257.991 342.424 277.723 355.79C302.029 371.907 394.025 330.761 394.025 330.761Z" fill="#333333"/>
<path d="M56.9134 428.367C56.3923 423.01 49.0976 405.635 48.5766 403.675C47.274 399.103 48.0555 394.008 52.6147 393.355C56.0015 392.963 59.3883 393.485 61.3423 392.571C71.2422 387.998 102.114 378.07 114.098 372.713C116.834 371.538 119.7 370.362 122.696 369.186C134.81 364.614 136.503 392.179 131.944 393.355C113.838 398.319 69.158 404.59 62.3844 405.635C62.3844 405.635 69.158 429.934 64.3383 431.11C61.4725 431.763 57.4344 433.723 56.9134 428.367Z" fill="#F6BB92"/>
<path d="M163.098 357.835C148.306 360.984 134.43 364.92 122.256 369.513C125.136 373.055 131.419 389.719 131.55 393.786C136.132 392.605 171.869 384.995 171.869 384.995C183.127 382.634 250.151 369.25 269.001 359.541C273.976 357.179 316.782 344.583 325.16 325.427C328.302 318.21 289.161 300.366 278.557 302.203C273.452 302.203 264.812 302.99 259.445 305.877C251.329 310.076 246.093 319.26 246.093 319.26C221.875 332.25 198.705 345.633 192.29 348.913C182.865 353.768 163.098 357.835 163.098 357.835Z" fill="#3D3C3C"/>
<path d="M287.958 34.2471C282.992 34.2471 285.606 54.8944 284.299 61.167L287.696 68.6157C284.691 113.961 292.793 133.694 292.793 133.694C289.787 160.744 286.52 212.885 288.35 223.078C290.049 233.271 310.957 232.095 311.741 221.641C312.526 211.317 312.133 202.039 312.003 191.715C312.003 181.392 310.435 142.841 309.52 133.825C309.389 132.648 298.804 68.6157 298.804 68.6157C298.804 68.6157 298.935 66.0021 300.372 61.6897C302.463 55.6784 301.94 46.6616 299.719 41.8265C297.759 37.6447 292.924 34.2471 287.958 34.2471Z" fill="#ECAD83"/>
<path d="M286.39 54.8962C286.39 54.8962 286.913 48.3622 283.516 47.7088C280.641 47.1861 279.595 47.3168 284.3 61.1688C284.3 61.1688 286.26 61.0381 286.39 54.8962Z" fill="#ECAD83"/>
<path d="M335.15 229.29C335.677 213.294 322.223 209.263 313.386 192.228C312.331 190.147 302.306 184.295 297.03 184.165C291.227 184.035 285.291 184.945 280.806 189.627C277.377 193.268 270.518 204.582 276.19 234.491C277.509 246.065 287.797 293.791 278.696 302.114C278.696 302.114 294.788 314.208 305.34 316.808C315.892 319.409 325.521 325.001 325.521 325.001C336.601 299.383 326.84 256.859 329.214 240.864C329.346 240.994 335.018 233.841 335.15 229.29Z" fill="#FF8AA0"/>
<path d="M308.18 185.873C308.18 185.873 303.994 174.094 301.378 163.507L283.848 162.315C287.249 172.903 284.763 187.196 284.763 187.196C301.116 185.476 307.919 191.167 312.236 192.887L308.18 185.873Z" fill="#ECAD83"/>
<path d="M289.452 122.3C284.895 115.461 277.475 116.106 273.179 117.009C259.641 119.719 255.866 126.559 252.611 135.98C248.185 148.369 279.428 164.501 285.286 165.404C300.647 167.598 313.274 149.918 316.398 141.916C319.783 133.141 315.878 134.302 312.233 133.27C312.102 133.27 311.712 132.625 311.712 132.625C310.54 132.108 308.718 131.721 307.416 130.302C307.416 130.302 306.245 130.173 305.594 130.044C305.203 129.914 304.943 129.785 304.943 129.269C304.943 127.85 304.943 126.43 304.552 125.785C303.511 123.462 291.534 125.527 289.452 122.3Z" fill="#F6BB92"/>
<path d="M306.777 136.111C306.777 136.111 307.869 135.409 310.053 131.056C310.053 130.354 309.689 129.23 307.687 129.652C306.231 129.932 307.687 132.881 306.777 136.111Z" fill="#D6876B"/>
<path d="M306.777 136.111C306.777 136.111 309.564 135.974 312.195 132.414C312.35 131.866 312.041 131.181 311.731 131.045C310.493 130.086 309.409 131.181 309.409 131.181C307.706 135.426 306.777 136.111 306.777 136.111Z" fill="#CC785E"/>
<path d="M249.979 136.358C244.603 151.731 259.551 179.981 292.857 168.287C295.086 167.498 298.233 165.002 296.397 158.958C295.086 154.753 292.464 151.206 292.464 151.206C291.677 150.155 290.89 149.103 289.972 147.921C288.923 146.607 281.056 144.899 281.318 143.322C284.203 127.424 278.564 118.226 274.5 116.781C264.272 115.073 255.749 119.934 249.979 136.358Z" fill="#602F0F"/>
<path d="M287.296 151.394C294.663 151.515 295.934 148.969 296.95 145.089L285.899 143.755L281.072 144.24C280.056 148.241 279.929 151.272 287.296 151.394Z" fill="#F6BB92"/>
<path d="M265.022 168.154C260.663 170.632 253.794 166.459 249.7 158.634C245.605 150.939 245.737 142.593 250.096 140.115C254.455 137.637 259.342 141.68 263.437 149.374C267.532 157.199 269.249 165.676 265.022 168.154Z" fill="#4C230C"/>
<path d="M283.516 141.795C282.209 141.534 281.033 141.142 280.249 140.88C278.942 140.358 278.158 139.835 278.158 139.835V144.801C278.812 145.062 279.465 145.323 280.118 145.454C280.118 145.454 280.118 144.931 280.118 144.017V144.147C281.295 143.886 283.124 143.625 285.607 143.755C285.738 143.886 287.567 142.579 283.516 141.795Z" fill="#602F0F"/>
<path d="M263.522 170.414C258.948 173.027 251.63 168.323 247.187 159.829C242.744 151.335 242.744 142.318 247.318 139.704C251.892 137.091 257.119 141.534 261.562 150.028C266.136 158.653 268.096 167.8 263.522 170.414Z" fill="#602F0F"/>
<path d="M250.95 163.382C250.408 163.653 248.918 161.753 247.428 159.039C246.073 156.325 245.261 153.882 245.803 153.61C246.344 153.339 247.564 154.968 248.918 157.682C250.408 160.396 251.492 162.975 250.95 163.382Z" fill="#4C230C"/>
<path d="M280.774 27.7139C275.808 27.7139 278.422 48.3612 277.115 54.6338L280.513 62.0825C277.507 107.428 285.609 127.161 285.609 127.161C282.604 154.211 279.337 206.352 281.166 216.545C282.865 226.738 303.774 225.562 304.558 215.108C305.342 204.784 304.95 195.506 304.819 185.182C304.819 174.859 303.251 136.308 302.336 127.291C302.206 126.115 291.621 62.0825 291.621 62.0825C291.621 62.0825 291.751 59.4689 293.189 55.1565C295.28 49.1452 294.757 40.1284 292.535 35.2932C290.575 31.1115 285.74 27.7139 280.774 27.7139Z" fill="#F6BB92"/>
<path d="M279.205 48.361C279.205 48.361 279.728 41.8271 276.33 41.1737C273.455 40.651 272.41 40.7817 277.114 54.6336C277.114 54.6336 279.074 54.503 279.205 48.361Z" fill="#F6BB92"/>
</svg>
