<svg width="500" height="500" viewBox="0 0 500 500" fill="none" xmlns="http://www.w3.org/2000/svg">
<path d="M253.655 289.149C240.066 296.885 227.708 306.262 216.497 317.146C205.137 328.173 193.778 339.201 182.521 350.335C180.316 352.515 177.963 353.849 174.915 354.477C167.637 355.972 160.479 357.962 153.597 360.834C143.532 365.035 134.243 370.397 126.521 378.282C118.869 386.096 110.459 393.141 103.17 401.326C110.074 406.109 116.41 411.68 123.614 416.047C136.272 411.062 148.739 405.499 161.629 401.206C190.282 391.663 215.714 376.409 239.992 358.865C247.21 353.648 254.703 348.807 262.087 343.819C263.159 343.096 264.09 341.904 265.667 342.415C272.285 338.88 279.831 337.508 286.287 333.574C287.049 333.109 288.002 332.269 288.862 332.887C289.847 333.592 289.473 334.908 289.289 335.906C288.559 339.854 287.698 343.777 286.887 347.71C296.93 350.095 307.242 350.074 317.441 351.037C327.118 351.951 336.812 352.667 346.51 353.344C348.45 353.482 349.135 353.993 348.672 355.99C344.778 372.835 347.604 388.932 354.123 404.631C355.725 408.487 357.086 412.442 358.557 416.347C368.509 416.301 378.461 416.255 388.417 416.209C386.96 401.001 385.52 385.793 384.031 370.588C383.217 362.245 382.61 353.866 381.386 345.583C379.269 331.274 369.624 322.441 354.793 320.257C336.611 317.583 318.461 314.704 300.299 311.893C299.372 311.748 298.479 311.388 297.573 311.131C282.936 303.803 268.295 296.476 253.659 289.146L253.655 289.149Z" fill="#6A6D66"/>
<path d="M226.833 205.597C230.947 212.885 233.106 220.996 236.521 228.577C237.396 230.517 237.727 232.715 239.255 234.345C249.168 225.896 255.535 215.39 257.737 202.471C254.248 197.144 251.602 191.412 249.581 185.383C249.379 185.097 249.175 184.808 248.974 184.522C249.076 184.455 249.178 184.388 249.284 184.321C249.383 184.674 249.485 185.026 249.584 185.376C253.549 186.416 255.472 190.452 259.155 191.913C261.349 176.182 255.183 159.986 257.186 144.231C258.414 134.569 260.679 110.213 257.642 100.981C254.819 92.4045 252.512 83.6591 249.803 75.0443C248.752 71.7035 250.403 65.6674 250.23 62.3195C249.955 56.9326 249.768 51.5422 249.535 46.1517C249.499 45.3544 249.711 44.3032 248.935 43.9116C244.977 41.9043 243.555 42.2288 239.255 41.0646C237.904 40.6978 237.449 41.9713 236.937 42.9026C233.893 48.4695 232.774 54.2339 231.617 60.5874C230.837 64.8701 232.915 68.2603 233.55 71.9575C236.284 87.8748 235.565 95.5442 238.609 111.409C238.789 112.336 235.237 128.201 234.796 129.139C231.074 137.052 232.129 153.548 227.638 161.105C226.283 166.502 224.928 171.9 223.57 177.301C223.464 182.289 223.023 187.305 223.867 192.244C224.632 196.735 225.828 201.152 226.833 205.601V205.597Z" fill="#F7BB92"/>
<path d="M257.737 202.471C255.536 215.394 249.172 225.896 239.255 234.345C241.298 241.972 243.817 249.433 247.157 256.598C262.542 254.252 277.93 251.903 293.315 249.557C293.163 247.948 293.05 246.332 292.853 244.731C292.218 239.584 291.798 234.955 294.934 229.819C300.596 220.541 296.021 208.754 285.794 204.069C277.087 200.079 268.19 196.502 259.378 192.742C258.796 195.977 259.085 199.36 257.737 202.468V202.471Z" fill="#8A8AD9"/>
<path d="M293.315 249.56C277.93 251.906 262.542 254.252 247.157 256.602C248.442 262.631 251.26 268.204 252.195 274.364C252.939 279.282 253.772 284.161 253.652 289.152C268.289 296.48 282.929 303.807 297.566 311.138C296.8 301.348 294.811 291.717 294.056 281.903C293.297 272.053 293.664 262.225 293.438 252.389C293.417 251.447 293.357 250.502 293.315 249.56Z" fill="#F7BB92"/>
<path d="M226.833 205.597C225.828 201.148 224.636 196.732 223.867 192.241C223.023 187.305 223.464 182.285 223.57 177.297C222.491 176.987 221.408 176.676 220.328 176.366C218.981 176.549 217.958 176.295 217.7 174.687C217.009 170.354 215.516 166.142 215.746 161.669C200.64 160.974 187.968 175.473 190.656 190.406C190.988 192.251 191.482 194.065 191.898 195.896C193.856 200.986 197.369 204.839 201.617 208.109C210.496 212.056 218.967 211.88 226.83 205.597H226.833Z" fill="#7A4821"/>
<path d="M123.617 416.047C116.414 411.679 110.078 406.112 103.174 401.325C99.3498 403.714 96.1995 406.867 93.8042 410.617C89.9589 416.639 91.8992 423.931 98.3974 428.15C103.146 431.23 108.081 434.024 112.907 436.984C114.237 437.799 115.634 438.014 117.155 438C121.61 437.958 126.066 437.975 130.518 437.989C133.453 438 136.751 438.66 137.838 434.744C138.882 430.99 139.157 427.177 136.109 424.139C134.705 422.739 132.878 421.744 131.181 420.661C128.69 419.077 126.14 417.581 123.614 416.05L123.617 416.047Z" fill="#F7BB92"/>
<path d="M388.416 416.213C378.465 416.259 368.509 416.305 358.557 416.35C359.206 419.504 359.707 422.693 360.536 425.798C362.639 433.661 368.319 437.948 376.51 437.979C384.067 438.008 391.627 438.001 399.183 437.979C403.847 437.965 406.983 435.866 407.844 432.247C408.698 428.652 406.856 425.622 402.461 423.381C397.779 420.993 393.098 418.605 388.416 416.213Z" fill="#F7BB92"/>
<path d="M186.973 198.199C175.487 202.581 171.955 211.019 177.205 221.924C180.927 229.653 182.041 237.848 182.066 246.286C182.077 249.356 182.066 252.425 182.066 256.475C188.91 250.22 193.066 243.394 196.107 235.721C198.992 228.45 199.042 220.682 200.492 213.161C193.062 210.815 188.628 205.763 186.97 198.199H186.973Z" fill="#7A4821"/>
<path d="M286.89 347.71C287.701 343.777 288.562 339.854 289.292 335.906C289.476 334.908 289.85 333.592 288.866 332.886C288.008 332.269 287.056 333.109 286.29 333.574C279.834 337.504 272.288 338.88 265.67 342.415C272.687 344.408 279.52 347.132 286.89 347.71Z" fill="#464843"/>
<path d="M186.973 198.199C188.631 205.763 193.065 210.815 200.495 213.161C200.872 211.474 201.246 209.792 201.62 208.105C197.373 204.835 193.859 200.983 191.901 195.892C190.257 196.661 188.617 197.43 186.973 198.199Z" fill="#5C3717"/>
<path d="M215.746 161.669C215.516 166.143 217.009 170.355 217.7 174.687C217.958 176.296 218.981 176.55 220.328 176.366C220.085 173.883 220.942 171.572 221.535 169.237C223.401 161.881 223.429 161.888 215.852 161.782L215.742 161.669H215.746Z" fill="#F7BB92"/>
<path d="M257.737 202.472C259.085 199.364 258.795 195.98 259.377 192.745C259.303 192.47 259.229 192.192 259.155 191.916C255.472 190.456 253.55 186.42 249.584 185.379H249.581C251.602 191.412 254.245 197.145 257.737 202.472Z" fill="#DEA882"/>
<path d="M215.855 161.786C223.429 161.892 223.404 161.884 221.538 169.24C220.945 171.575 220.088 173.886 220.332 176.37C221.411 176.68 222.494 176.99 223.574 177.301C224.928 171.903 226.283 166.506 227.641 161.105C223.715 161.334 219.704 160.177 215.858 161.786H215.855Z" fill="#DEA882"/>
<path d="M249.584 185.38C249.486 185.027 249.383 184.674 249.285 184.325C249.182 184.392 249.08 184.459 248.974 184.526C249.175 184.812 249.38 185.101 249.581 185.387L249.584 185.383V185.38Z" fill="#CEA789"/>
</svg>
