<svg width="500" height="500" viewBox="0 0 500 500" fill="none" xmlns="http://www.w3.org/2000/svg">
<path d="M237.172 190.642C235.55 190.546 233.987 190.991 232.396 191.167C230.805 191.344 229.238 191.721 227.63 191.767C226.617 191.799 225.644 192.088 224.628 192.152C223.093 192.247 221.572 192.568 220.041 192.727C218.743 192.861 217.441 192.952 216.147 193.15C214.33 193.429 212.503 193.637 210.672 193.81C209.43 193.926 208.192 194.028 206.953 194.215C205.077 194.498 203.189 194.692 201.302 194.9C199.827 195.062 198.346 195.171 196.871 195.341C195.34 195.514 193.812 195.739 192.281 195.923C190.927 196.089 189.568 196.226 188.214 196.385C186.386 196.6 184.566 196.879 182.735 197.027C181.43 197.133 180.135 197.281 178.84 197.454C177.077 197.687 175.313 197.919 173.542 198.092C172.24 198.219 170.942 198.318 169.647 198.512C167.83 198.787 165.999 198.967 164.172 199.186C163.11 199.313 162.052 199.447 160.986 199.553C160.574 199.592 160.136 199.637 159.737 199.546C157.794 199.112 155.822 199.253 153.867 199.281C150.946 199.327 148.053 198.851 145.136 198.893C144.183 198.907 143.227 198.911 142.278 198.854C136.094 198.477 129.903 198.547 123.715 198.509C122.883 198.502 122.047 198.47 121.214 198.509C119.122 198.597 117.069 198.293 115.016 197.941C113.841 197.74 112.642 197.725 111.467 197.969C108.214 198.643 104.962 199.338 101.712 200.033C101.363 200.107 101.003 200.195 100.693 200.361C98.8585 201.338 96.8371 201.927 95.0802 203.067C94.738 203.289 94.3182 203.395 93.9408 203.567C93.1823 203.913 92.4026 204.22 91.6794 204.626C90.5682 205.247 89.9297 206.178 89.9015 207.515C89.8662 209.24 89.7568 210.955 90.4518 212.613C90.7446 213.315 90.8646 214.101 90.9669 214.863C91.0656 215.601 91.4642 216.056 92.0781 216.366C92.8789 216.768 93.7009 217.1 94.6216 217.114C96.2797 217.142 97.9413 217.139 99.5923 217.262C100.203 217.308 100.767 217.192 101.353 217.164C103.617 217.054 105.865 217.199 108.094 217.612C108.387 217.664 108.68 217.777 108.969 217.763C111.417 217.643 113.841 218.038 116.261 218.261C117.965 218.419 119.704 218.356 121.38 218.807C121.549 218.853 121.733 218.86 121.913 218.864C124.763 218.942 127.592 219.397 130.453 219.28C131.519 219.234 132.591 219.21 133.646 219.517C134.034 219.629 134.475 219.569 134.891 219.573C137.096 219.591 139.312 219.457 141.499 219.658C144.942 219.975 148.406 219.739 151.828 220.042C154.922 220.314 158.005 220.226 161.092 220.335C161.212 220.339 161.336 220.317 161.448 220.342C164.828 220.988 168.201 220.049 171.577 220.293C174.053 219.848 176.583 220.197 179.042 219.869C181.289 219.569 183.546 219.725 185.79 219.34C187.3 219.083 188.881 219.291 190.429 219.227C193.453 219.097 196.479 218.98 199.485 218.606C199.661 218.585 199.841 218.575 200.021 218.571C203.828 218.557 207.613 218.105 211.427 218.109C213.494 218.109 215.568 217.763 217.65 217.781C218.186 217.784 218.722 217.767 219.258 217.767C220.578 217.76 221.848 217.975 223.107 218.402C225.809 219.319 228.54 220.155 231.256 221.03C233.641 221.796 235.916 222.829 238.185 223.87C239.208 224.339 240.245 224.769 241.226 225.348C242.312 225.99 243.307 226.678 243.974 227.772C243.783 226.177 244.524 225.027 245.745 224.113C245.84 224.043 245.925 223.958 246.027 223.895C247.251 223.108 248.183 222.025 249.008 220.857C250.236 219.121 251.03 217.171 251.005 215.04C250.959 210.965 249.717 207.18 247.604 203.73C245.738 200.685 243.561 197.838 241.106 195.242C239.712 193.771 238.474 192.18 237.172 190.638V190.642Z" fill="#F6BB92"/>
<path d="M303.359 215.371C305.649 215.714 307.935 216.056 310.225 216.402C312.278 216.712 314.327 217.033 316.384 217.333C318.441 217.633 320.515 217.82 322.551 218.222C324.449 218.599 326.35 218.688 328.234 218.465C329.818 218.275 331.423 218.264 333 217.922C334.154 217.672 335.349 217.545 336.528 217.52C339.745 217.449 342.902 216.927 346.074 216.444C347.482 216.229 348.91 216.165 350.332 216.052C351.101 215.992 351.863 215.936 352.629 215.777C353.906 215.513 355.2 215.347 356.513 215.276C357.931 215.199 359.338 214.916 360.749 214.726C361.748 214.588 362.746 214.422 363.752 214.32C367.237 213.971 370.691 213.435 374.155 212.937C375.788 212.701 377.443 212.479 379.119 212.465C380.713 212.45 382.315 212.218 383.895 211.978C384.608 211.868 385.31 211.822 386.023 211.787C387.208 211.734 388.404 211.826 389.572 211.487C389.907 211.392 390.281 211.427 390.637 211.417C391.882 211.378 393.117 211.332 394.362 211.12C395.936 210.852 397.551 210.831 399.153 210.729C400.815 210.62 402.49 210.757 404.134 210.39C404.247 210.366 404.374 210.369 404.491 210.38C406.614 210.556 408.741 210.313 410.879 210.567C412.58 210.771 414.322 210.768 416.044 210.478C416.626 210.38 417.229 210.376 417.822 210.366C419.131 210.341 420.443 210.366 421.752 210.32C422.877 210.277 423.682 209.678 423.971 208.612C424.751 205.748 425.495 202.872 426.236 199.997C426.543 198.801 426.109 197.764 425.417 196.822C425.103 196.392 424.659 196.046 424.384 195.595C423.872 194.759 423.117 194.448 422.211 194.208C419.508 193.496 416.75 193.062 414.023 192.458C412.978 192.229 411.941 191.965 410.893 191.76C406.84 190.977 402.727 190.846 398.634 191.076C395.505 191.252 392.39 191.707 389.346 192.628C386.735 193.418 384.051 193.993 381.362 194.466C379.493 194.797 377.559 194.709 375.669 194.434C375.076 194.349 374.49 194.279 373.898 194.275C371.516 194.261 369.132 194.251 366.75 194.229C365.741 194.219 364.729 194.265 363.734 193.982C363.342 193.87 362.905 193.915 362.489 193.912C360.644 193.891 358.795 193.884 356.95 193.863C355.405 193.845 353.863 193.937 352.325 193.601C351.641 193.453 350.9 193.559 350.187 193.538C348.226 193.485 346.261 193.654 344.306 193.333C344.028 193.287 343.724 193.425 343.432 193.439C342.959 193.46 342.458 193.545 342.013 193.429C340.895 193.136 339.763 193.139 338.641 193.185C335.466 193.316 332.368 192.765 329.264 192.243C327.274 191.908 325.267 191.675 323.27 191.39C320.452 190.984 317.633 190.568 314.814 190.151C313.639 189.978 312.468 189.791 311.293 189.615C309.004 189.276 306.718 188.938 304.428 188.606C302.608 188.342 300.784 188.095 298.964 187.826C295.852 187.368 292.748 186.849 289.629 186.461C287.506 186.197 285.421 185.696 283.304 185.438C281.424 185.209 279.498 185.339 277.596 185.308C277.589 186.789 277.949 188.215 278.266 189.647C278.355 190.049 278.348 190.479 278.757 190.73C279.97 190.197 280.898 189.231 282.027 188.578C284.62 187.075 284.789 187.195 286.807 189.068C287.855 190.038 288.832 191.093 289.922 192.007C292.854 194.462 295.5 197.193 297.891 200.163C299.542 202.213 300.827 204.481 301.68 206.993C302.608 209.716 302.989 212.539 303.363 215.364L303.359 215.371Z" fill="#F6BB92"/>
<path d="M303.36 215.372C302.986 212.542 302.602 209.724 301.677 207C300.824 204.488 299.54 202.22 297.889 200.17C295.497 197.2 292.847 194.469 289.919 192.014C288.826 191.097 287.852 190.046 286.804 189.075C284.786 187.202 284.617 187.086 282.024 188.585C280.895 189.238 279.967 190.204 278.754 190.737C277.089 192.134 275.293 193.333 273.356 194.321C272.503 194.956 271.607 195.545 270.809 196.247C270.15 196.826 269.596 196.77 268.897 196.35C265.645 194.395 262.36 192.49 259.104 190.539C255.037 188.102 250.983 185.643 246.93 183.181C246.231 182.757 245.427 182.461 244.982 181.695C244.058 181.752 243.494 182.376 242.982 183.029C242.107 184.144 241.285 185.304 240.425 186.433C239.349 187.844 238.259 189.241 237.175 190.645C238.477 192.19 239.715 193.778 241.109 195.249C243.564 197.846 245.741 200.692 247.607 203.737C249.724 207.187 250.962 210.972 251.008 215.047C251.033 217.174 250.239 219.125 249.011 220.864C248.186 222.032 247.254 223.115 246.03 223.902C245.931 223.965 245.843 224.05 245.748 224.12C244.527 225.034 243.79 226.184 243.977 227.779C245.54 230.227 247.392 232.46 249.138 234.771C252.458 239.159 255.795 243.53 259.125 247.908C260.452 247.608 261.796 247.358 263.108 246.998C266.484 246.07 269.85 245.111 273.208 244.13C279.985 242.147 286.762 240.165 293.525 238.136C295.68 237.491 297.871 236.937 299.942 236.023C301.586 232.806 302.066 229.289 302.612 225.786C303.152 222.332 303.314 218.857 303.364 215.372H303.36Z" fill="#8A8AD9"/>
<path d="M299.938 236.023C297.867 236.936 295.676 237.487 293.521 238.136C286.758 240.164 279.981 242.147 273.204 244.129C269.846 245.11 266.477 246.07 263.104 246.998C261.792 247.357 260.451 247.608 259.121 247.908C259.076 249.53 258.525 251.04 258.063 252.568C256.807 256.731 254.945 260.622 252.779 264.386C251.568 266.492 250.425 268.644 249.346 270.817C248.577 272.362 247.61 273.777 246.76 275.269C250.602 277.28 254.44 279.294 258.282 281.302C266.544 285.623 274.806 289.945 283.068 294.266C284.543 295.039 286.024 295.79 287.467 296.612C288.571 297.24 289.7 297.702 290.984 297.706C291.736 296.189 291.93 294.52 292.209 292.89C292.964 288.449 293.641 283.993 294.318 279.541C294.861 275.964 295.338 272.38 295.881 268.803C296.53 264.524 297.239 260.255 297.885 255.976C298.202 253.866 298.421 251.739 298.71 249.626C299.014 247.393 299.476 245.174 299.62 242.934C299.769 240.633 300.368 238.344 299.938 236.019V236.023Z" fill="#F6BB92"/>
<path d="M271.935 175.719C272.224 175.239 272.034 174.961 271.441 174.943C269.723 174.886 267.994 175.059 266.301 174.594C265.969 174.502 265.588 174.58 265.232 174.573C264.876 174.565 264.512 174.587 264.163 174.527C262.001 174.177 259.838 173.835 257.637 173.863C257.076 173.87 256.589 173.743 256.155 173.373C255.749 173.027 255.266 172.77 254.889 172.403C253.732 171.285 252.61 170.131 251.467 168.999C251.125 168.66 250.846 168.282 250.641 167.845C249.914 166.282 249.315 164.666 248.789 163.026C248.733 162.853 248.775 162.666 248.958 162.592C249.05 162.557 249.223 162.567 249.29 162.631C250.317 163.626 251.463 164.529 252.31 165.661C253.213 166.868 254.331 167.838 255.33 168.932C255.658 169.291 256.046 169.503 256.547 169.602C258.289 169.941 260.05 170.163 261.817 170.29C262.233 170.318 262.685 170.212 263.063 170.339C264.463 170.805 265.895 170.597 267.314 170.653C268.792 170.71 270.284 170.48 271.744 170.964C272.122 171.091 272.573 171.017 272.99 171.002C273.794 170.978 274.235 170.657 274.32 169.87C274.429 168.868 274.521 167.845 274.246 166.854C273.935 165.728 273.96 164.642 274.299 163.523C274.457 162.998 274.595 162.567 275.075 162.204C276.63 161.022 278.126 159.752 279.661 158.542C281.044 157.456 281.322 156.775 280.825 155.05C280.55 154.101 280.141 153.187 279.774 152.266C279.428 151.398 278.962 150.562 278.722 149.67C278.472 148.746 278.133 147.871 277.777 146.989C276.962 144.981 276.017 143.031 275.382 140.949C275.23 140.448 274.909 139.997 274.637 139.542C274.556 139.408 274.383 139.266 274.231 139.245C272.478 138.977 270.721 138.727 268.965 138.476C267.444 138.257 265.931 137.954 264.403 137.852C262.981 137.76 261.606 137.337 260.163 137.376C259.27 137.4 258.543 137.485 258.102 138.409C257.852 138.935 257.457 139.415 257.044 139.831C256.483 140.392 256.346 141.267 255.795 141.729C255.097 142.318 254.994 143.341 254.127 143.743C253.428 145.419 252.031 146.594 251.015 148.047C250.447 148.862 250.147 149.705 250.066 150.672C249.957 151.97 249.847 153.268 249.639 154.552C249.378 156.186 249.018 157.805 248.994 159.47C248.983 160.176 248.644 160.581 247.935 160.666L247.914 161.693C247.83 163.774 248.373 165.82 248.246 167.901C248.091 170.441 247.985 172.996 247.491 175.493C247.149 177.236 246.5 178.912 245.508 180.418C245.244 180.82 244.954 181.194 244.986 181.706C245.431 182.471 246.235 182.764 246.933 183.191C250.987 185.653 255.04 188.112 259.108 190.55C262.364 192.501 265.645 194.406 268.901 196.36C269.6 196.78 270.153 196.836 270.813 196.258C271.61 195.559 272.506 194.97 273.36 194.332C273.343 191.954 273 189.619 272.683 187.265C272.492 185.868 272.118 184.475 272.235 183.029" fill="#F6BB92"/>
<path d="M276.62 138.099C276.655 137.002 276.345 136.003 275.844 135.03C275.082 133.552 274.362 132.052 273.646 130.553C272.383 127.9 270.781 125.491 268.675 123.427C268.252 123.011 267.864 122.559 267.462 122.122C267.095 122.037 266.866 121.808 266.753 121.451C266.075 120.922 265.401 120.396 264.724 119.867C264.05 119.786 263.546 119.349 262.988 119.028C261.704 118.283 260.385 117.617 258.981 117.154C255.968 116.163 252.836 116.1 249.706 116.022C249.297 116.918 249.096 117.066 248.412 116.964C248.077 116.915 247.978 116.657 247.921 116.371C247.417 116.251 246.937 116.311 246.486 116.565C246.471 116.802 246.475 117.087 246.246 117.193C245.988 117.313 245.826 117.098 245.713 116.876C245.117 116.971 244.468 116.805 243.942 117.243C244.062 118.008 243.448 118.061 242.972 118.227C242.139 118.516 242.136 118.509 241.458 117.609L241.37 117.528L241.254 117.549C240.982 118.05 240.478 118.297 240.033 118.562C237.797 119.903 235.846 121.554 234.057 123.466C233.115 124.475 232.759 125.864 231.658 126.718C231.566 127.642 231.034 128.345 230.512 129.061C230.388 129.23 230.434 129.519 230.388 129.749C230.064 131.368 229.866 133.019 229.538 134.628C229.072 136.91 229.489 139.097 229.743 141.323C230.529 142.258 230.251 143.627 231.062 144.551C231.94 147.014 233.574 148.954 235.384 150.774C235.683 151.078 236.001 151.335 236.456 151.332C237.017 151.349 237.207 151.667 237.14 152.185C238.068 152.912 238.971 153.681 239.938 154.358C240.601 154.824 241.13 155.516 241.984 155.688C242.713 155.742 243.124 156.128 243.215 156.845C244.115 157.886 245.184 158.712 246.397 159.354C246.45 159.251 246.485 159.135 246.56 159.054C246.972 158.585 247.427 157.745 247.632 157.071C247.706 156.824 247.935 156.754 248.158 156.694C248.327 156.232 248.345 155.755 248.295 155.269C247.752 154.51 247.798 154.242 248.535 153.833C248.57 153.476 248.606 153.117 248.637 152.76C248.112 152.002 248.158 151.744 248.877 151.332C249.043 150.869 249.061 150.393 249.015 149.91C248.92 149.769 248.722 149.603 248.75 149.494C248.958 148.693 249.191 147.903 249.699 147.211C251.237 145.109 252.733 142.978 254.268 140.872C255.069 139.771 255.905 138.692 256.741 137.616C257.178 137.055 257.64 136.515 258.113 135.982C258.364 135.7 258.702 135.598 259.083 135.619C259.411 135.636 259.634 135.809 259.782 136.092C259.933 136.07 260.085 136.046 260.237 136.025C260.727 135.972 261.235 135.859 261.549 136.409C262.015 136.476 262.438 136.765 262.936 136.674C263.535 136.19 263.652 136.211 264.008 136.871C264.467 137.076 264.95 137.086 265.44 137.03C266.036 136.547 266.153 136.568 266.513 137.224C266.975 137.432 267.458 137.436 267.949 137.379C268.534 136.91 268.644 136.928 269.014 137.556C269.589 137.81 270.192 137.803 270.799 137.757C271.399 137.263 271.519 137.284 271.875 137.951C273.448 138.275 275.036 138.169 276.62 138.095V138.099Z" fill="#794720"/>
<path d="M92.2296 390.176C91.7075 390.243 91.4183 390.646 91.0831 390.977C89.1781 392.861 87.2484 394.724 85.3893 396.65C83.9817 398.107 82.9551 399.772 82.2531 401.737C81.4734 403.924 81.5052 406.108 81.8932 408.232C82.3307 410.634 83.4772 412.811 85.2235 414.631C86.3524 415.809 87.6753 416.695 89.0229 417.563C90.2682 418.367 91.5699 419.083 92.8399 419.849C94.7661 421.009 96.6852 422.184 98.6149 423.345C100.389 424.414 102.189 425.447 103.949 426.537C104.376 426.802 104.781 426.968 105.275 426.957C105.572 426.95 105.872 426.957 106.168 426.957C112.243 426.957 118.314 426.915 124.389 426.989C125.811 427.006 126.717 426.587 127.448 425.366C128.869 422.981 129.529 420.533 128.954 417.732C128.273 414.416 126.467 412.035 123.556 410.401C120.822 408.867 118.095 407.311 115.372 405.766C113.76 406.133 112.387 405.66 111.029 404.746C109.304 403.582 107.681 402.312 106.094 400.975C104.012 399.222 101.843 397.571 99.7121 395.874C97.8141 394.364 95.955 392.801 93.9053 391.485C93.3127 391.104 92.787 390.614 92.2332 390.173L92.2296 390.176Z" fill="#F6BB92"/>
<path d="M370.077 413.816C369.541 414.162 368.948 414.166 368.352 414.081C365.36 413.661 362.369 413.231 359.377 412.815C358.968 412.758 358.548 412.751 358.132 412.744C355.934 412.695 353.761 412.395 351.588 412.074C351.295 412.031 350.995 412.007 350.699 412.003C347.076 411.971 343.467 411.502 339.837 411.629C339.812 411.926 339.837 412.236 339.759 412.515C338.807 415.845 339.061 419.203 339.375 422.59C339.569 424.678 340.059 426.679 340.571 428.693C341.008 430.415 341.982 431.833 343.061 433.177C343.492 433.713 344.137 434.122 344.758 434.458C346.543 435.417 348.399 436.13 350.463 436.37C351.944 436.539 353.436 436.486 354.897 436.694C356.781 436.962 358.696 436.825 360.559 437.255C360.675 437.283 360.795 437.294 360.912 437.301C362.986 437.435 365.06 437.569 367.135 437.703C369.978 437.886 372.818 438.119 375.661 438.239C376.836 438.289 378.046 438.222 379.2 437.996C380.763 437.689 382.333 437.382 383.797 436.645C385.476 435.798 386.509 434.362 387.515 432.898C387.801 432.482 387.839 431.889 387.949 431.367C388.534 428.57 387.617 426.224 385.726 424.199C385.49 423.948 385.141 423.804 384.841 423.606C383.412 422.668 381.994 421.712 380.555 420.787C377.863 419.055 375.153 417.351 372.472 415.605C371.64 415.062 370.871 414.416 370.073 413.816H370.077Z" fill="#F6BB92"/>
<path d="M274.191 333.559C275.042 333.605 275.832 333.782 276.608 334.124C277.042 334.314 277.497 334.494 277.959 334.579C281.003 335.136 283.942 336.138 286.997 336.682C292.328 337.631 297.609 338.837 302.932 339.811C306.679 340.495 310.397 341.321 314.147 341.98C317.019 342.485 319.883 343.021 322.734 343.638C324.127 343.942 325.552 344.093 326.956 344.365C329.994 344.947 333.024 345.568 336.062 346.161C336.82 346.309 337.169 346.729 336.891 347.565C336.534 348.637 336.358 349.766 335.818 350.775C335.762 350.881 335.705 350.99 335.688 351.107C335.169 354.095 333.931 356.92 333.694 359.979C333.694 359.979 330.131 371.769 339.836 411.622C343.466 411.495 347.075 411.965 350.698 411.996C350.995 411.996 351.295 412.024 351.587 412.067C353.757 412.388 355.93 412.688 358.131 412.737C358.548 412.748 358.968 412.751 359.377 412.808C362.368 413.224 365.36 413.658 368.351 414.074C368.948 414.159 369.54 414.155 370.077 413.81C370.077 413.81 369.639 347.074 370.077 338.791C370.514 330.508 362.929 322.475 362.929 322.475C362.354 321.897 357.743 318.108 356.325 317.085C356.096 316.919 353.916 315.906 353.711 315.797C352.021 314.883 350.127 314.555 348.352 313.889C348.074 313.783 347.791 313.68 347.499 313.635C345.029 313.225 342.697 312.294 340.256 311.772C339.099 311.525 337.988 311.084 336.841 310.781C334.375 310.124 331.849 309.652 329.447 308.816C326.971 307.955 324.325 307.747 321.922 306.671C319.266 306.286 316.789 305.203 314.161 304.678C312.422 304.328 310.736 303.711 309.014 303.259C305.627 302.37 302.272 301.365 298.914 300.367C296.582 299.672 294.264 298.917 291.947 298.172C291.615 298.066 291.308 297.865 290.994 297.71C289.71 297.707 288.578 297.244 287.477 296.617C286.034 295.795 284.549 295.04 283.078 294.271C274.816 289.945 266.554 285.627 258.292 281.306C254.45 279.295 250.612 277.284 246.77 275.273C246.562 275.432 246.35 275.594 246.142 275.753C243.612 276.91 241.182 278.254 238.818 279.715C237.202 280.713 235.664 281.828 234.084 282.879C230.182 285.476 226.39 288.231 222.707 291.124C220.234 293.068 217.874 295.152 215.464 297.177C212.092 300.01 208.952 303.09 205.781 306.138C200.372 311.334 195.063 316.63 189.673 321.844C184.628 326.723 179.633 331.647 174.623 336.562C173.223 337.937 171.759 339.243 170.337 340.597C169.878 341.035 169.367 341.257 168.742 341.282C168.083 341.307 167.455 341.43 166.844 341.716C166.477 341.889 166.047 341.987 165.641 342.005C164.795 342.04 163.987 342.185 163.239 342.594C163.186 342.622 163.126 342.654 163.07 342.651C161.246 342.622 159.641 343.543 157.894 343.885C156.586 344.139 155.245 344.425 154.007 344.993C153.897 345.042 153.795 345.12 153.682 345.138C151.558 345.466 149.608 346.362 147.611 347.074C145.445 347.847 143.339 348.8 141.226 349.713C139.818 350.324 138.432 350.987 137.049 351.657C132.551 353.83 128.332 356.472 124.236 359.316C123.117 360.092 122.105 361.027 121.092 361.941C117.953 364.77 114.944 367.733 111.927 370.693C108.237 374.316 104.547 377.946 100.744 381.449C98.0702 383.908 95.5125 386.48 92.9161 389.016C92.5915 389.334 92.1224 389.598 92.2388 390.184C92.7926 390.625 93.3183 391.115 93.9109 391.496C95.9606 392.809 97.8197 394.371 99.7177 395.885C101.848 397.582 104.014 399.233 106.099 400.986C107.687 402.323 109.31 403.597 111.035 404.757C112.393 405.671 113.765 406.144 115.378 405.777C115.378 405.717 115.406 405.639 115.378 405.6C114.658 404.542 114.711 404.39 115.744 403.995C117.678 403.261 119.593 402.485 121.519 401.741C123.061 401.145 124.613 400.573 126.155 399.974C128.748 398.968 131.316 397.889 133.937 396.964C135.161 396.53 136.283 395.832 137.603 395.631C138.107 395.553 138.566 395.197 139.052 394.985C140.897 394.185 142.781 393.468 144.658 392.763C146.482 392.078 148.271 391.263 150.151 390.738C150.952 390.512 151.689 390.135 152.462 389.856C154.903 388.974 157.238 387.799 159.69 386.97C161.546 386.342 163.306 385.485 165.183 384.906C166.925 384.367 168.552 383.446 170.284 382.864C172.08 382.257 173.812 381.502 175.554 380.775C178.334 379.611 181.132 378.496 183.827 377.128C185.506 376.274 187.231 375.484 188.921 374.644C190.618 373.801 192.28 372.873 193.924 371.924C196.693 370.323 199.473 368.728 202.186 367.035C204.697 365.465 207.132 363.764 209.594 362.117C211.866 360.6 214.141 359.094 216.399 357.555C219.542 355.418 222.665 353.252 225.804 351.114C229.879 348.337 233.96 345.575 238.042 342.813C241.976 340.149 245.927 337.518 249.836 334.819C251.596 333.605 253.328 332.353 255.173 331.263C255.314 331.178 255.395 330.995 255.501 330.857C256.313 330.37 257.18 329.961 257.921 329.386C259.477 328.176 261.026 328.494 262.553 329.323" fill="#6A6D66"/>
<path d="M261.761 328.327C261.592 328.285 261.383 328.236 261.426 328.024C261.458 327.869 261.577 327.689 261.708 327.601C262.05 327.371 262.421 327.174 262.788 326.98C264.153 326.263 265.596 325.667 266.88 324.824C270.806 322.245 274.994 320.097 278.931 317.536C279.463 317.19 279.989 317.448 280.074 318.1C280.172 318.873 280.074 319.614 279.844 320.383C278.617 324.503 276.532 328.271 275.036 332.278C274.842 332.8 274.429 332.97 273.904 332.959" fill="#6A6D66"/>
<path d="M272.228 183.018C272.111 184.465 272.485 185.858 272.676 187.255C272.993 189.605 273.336 191.943 273.353 194.321C275.29 193.33 277.086 192.134 278.751 190.737C278.342 190.487 278.349 190.056 278.26 189.654C277.943 188.222 277.583 186.796 277.59 185.315C277.012 184.927 276.719 184.362 276.616 183.696C276.235 181.293 275.861 178.894 275.488 176.492C275.47 176.375 275.473 176.255 275.473 176.135C275.473 175.73 275.678 175.472 276.063 175.349C276.119 175.331 276.179 175.328 276.235 175.317C277.872 174.964 277.858 174.964 277.869 173.267C277.883 170.95 277.946 168.632 277.946 166.314C277.946 164.974 278.37 163.908 279.488 163.09C280.832 162.109 282.12 161.058 283.422 160.024C283.933 159.618 284.445 159.209 284.903 158.751C285.528 158.123 285.746 157.371 285.545 156.468C285.386 155.763 285.14 155.106 284.822 154.468C283.026 150.852 281.224 147.236 279.442 143.613C278.708 142.121 278.017 140.607 277.304 139.104C277.128 138.734 277.036 138.311 276.623 138.099C275.04 138.177 273.452 138.279 271.879 137.958C271.48 138.12 271.11 138.117 270.803 137.764C270.196 137.81 269.593 137.817 269.018 137.566C268.622 137.753 268.256 137.76 267.952 137.39C267.462 137.446 266.979 137.443 266.516 137.235C266.118 137.4 265.747 137.404 265.444 137.041C264.954 137.097 264.474 137.083 264.012 136.882C263.613 137.048 263.239 137.055 262.939 136.684C262.442 136.776 262.018 136.487 261.553 136.42C261.028 136.622 260.591 136.494 260.24 136.035C260.089 136.056 259.937 136.081 259.785 136.102C259.256 136.564 258.455 136.554 258.014 137.224C257.334 138.258 256.547 139.221 255.817 140.226C254.151 142.519 252.529 144.844 250.825 147.109C250.151 148.008 249.544 148.936 249.019 149.924C249.064 150.407 249.047 150.884 248.881 151.346C248.99 151.854 249.064 152.358 248.641 152.778C248.606 153.134 248.571 153.494 248.539 153.85C248.641 154.358 248.719 154.866 248.299 155.286C248.348 155.77 248.331 156.249 248.161 156.711C248.302 157.181 248.239 157.643 248.105 158.098C247.918 158.729 247.918 159.371 247.928 160.021V160.666C248.638 160.581 248.976 160.179 248.987 159.47C249.011 157.805 249.371 156.186 249.632 154.552C249.837 153.268 249.95 151.967 250.059 150.672C250.14 149.702 250.44 148.859 251.008 148.047C252.024 146.597 253.421 145.423 254.12 143.743C254.984 143.341 255.086 142.318 255.788 141.729C256.335 141.267 256.476 140.392 257.037 139.831C257.45 139.415 257.845 138.935 258.096 138.409C258.537 137.485 259.263 137.4 260.156 137.376C261.599 137.337 262.971 137.76 264.396 137.852C265.924 137.951 267.441 138.258 268.958 138.476C270.714 138.727 272.471 138.977 274.225 139.245C274.373 139.267 274.549 139.408 274.63 139.542C274.902 139.997 275.223 140.452 275.375 140.949C276.01 143.031 276.955 144.982 277.77 146.989C278.13 147.871 278.465 148.746 278.715 149.67C278.959 150.566 279.421 151.399 279.767 152.266C280.134 153.187 280.546 154.101 280.818 155.05C281.315 156.775 281.037 157.456 279.654 158.542C278.116 159.752 276.623 161.019 275.068 162.204C274.588 162.568 274.45 162.998 274.292 163.524C273.953 164.642 273.928 165.729 274.239 166.854C274.514 167.845 274.422 168.868 274.313 169.87C274.225 170.66 273.787 170.978 272.983 171.003C272.567 171.017 272.115 171.091 271.737 170.964C270.281 170.477 268.785 170.71 267.307 170.653C265.888 170.597 264.453 170.805 263.056 170.339C262.678 170.212 262.227 170.322 261.81 170.29C260.039 170.163 258.283 169.944 256.54 169.602C256.035 169.503 255.651 169.292 255.323 168.932C254.321 167.838 253.206 166.868 252.303 165.661C251.456 164.533 250.31 163.626 249.283 162.631C249.216 162.568 249.047 162.554 248.952 162.592C248.768 162.666 248.726 162.853 248.782 163.026C249.311 164.667 249.908 166.282 250.634 167.845C250.839 168.283 251.118 168.66 251.46 168.999C252.603 170.131 253.725 171.285 254.882 172.403C255.263 172.77 255.746 173.031 256.148 173.373C256.586 173.744 257.069 173.871 257.63 173.864C259.828 173.839 261.994 174.178 264.156 174.527C264.506 174.583 264.869 174.562 265.225 174.573C265.582 174.58 265.963 174.502 266.294 174.594C267.987 175.063 269.72 174.887 271.434 174.943C272.027 174.964 272.217 175.239 271.928 175.719" fill="#DEA882"/>
<path d="M272.069 332.935C272.404 333.225 272.795 333.313 273.226 333.32C273.751 333.33 274.161 333.161 274.358 332.639C275.854 328.631 277.939 324.864 279.167 320.743C279.396 319.978 279.495 319.237 279.396 318.461C279.315 317.812 278.789 317.551 278.253 317.896C274.316 320.454 270.132 322.606 266.202 325.185C264.918 326.028 263.479 326.624 262.11 327.34C261.743 327.534 261.376 327.728 261.03 327.961C260.896 328.049 260.776 328.229 260.748 328.384C260.706 328.596 260.914 328.646 261.083 328.688" fill="#464843"/>
<path d="M234.005 152.513C234.83 152.362 235.659 152.21 236.485 152.055C236.478 151.815 236.47 151.578 236.463 151.339C236.008 151.339 235.691 151.081 235.391 150.781C233.581 148.964 231.951 147.024 231.069 144.558C230.262 143.634 230.537 142.265 229.75 141.33C229.496 139.108 229.08 136.92 229.545 134.634C229.874 133.026 230.068 131.375 230.396 129.756C230.441 129.526 230.396 129.233 230.519 129.068C231.041 128.351 231.574 127.646 231.666 126.725C232.766 125.868 233.119 124.478 234.065 123.473C235.85 121.564 237.804 119.913 240.041 118.569C240.485 118.304 240.99 118.057 241.261 117.556C241.102 117.373 240.944 117.19 240.785 117.006C239.945 116.974 239.176 117.151 238.372 117.451C236.901 117.997 235.698 118.971 234.382 119.751C233.331 120.375 232.442 121.299 231.549 122.157C230.999 122.686 230.533 123.314 230.103 123.949C229.373 125.025 228.575 126.087 228.053 127.265C227.725 128.002 227.573 128.845 227.157 129.565C226.427 130.835 226.272 132.246 226.127 133.654C226.046 134.416 226.134 135.185 225.841 135.936C225.668 136.377 225.753 136.868 225.905 137.337C226.014 137.672 226.131 138.039 226.099 138.374C225.94 139.972 226.924 141.316 227.062 142.84C228.357 145.99 230.053 148.873 232.593 151.201C233.07 151.635 233.535 152.076 234.008 152.517L234.005 152.513Z" fill="#603818"/>
<path d="M249.022 149.917C249.548 148.929 250.151 148.001 250.829 147.102C252.529 144.837 254.155 142.516 255.82 140.219C256.547 139.214 257.334 138.251 258.018 137.217C258.459 136.547 259.26 136.557 259.789 136.095C259.641 135.813 259.419 135.644 259.091 135.622C258.713 135.601 258.371 135.7 258.12 135.986C257.651 136.518 257.186 137.058 256.748 137.619C255.912 138.695 255.076 139.775 254.275 140.875C252.744 142.981 251.248 145.116 249.707 147.215C249.199 147.91 248.966 148.696 248.758 149.497C248.729 149.607 248.931 149.772 249.022 149.913V149.917Z" fill="#7B4A23"/>
<path d="M246.405 159.361C246.652 160.19 247.322 160.024 247.929 160.01C247.918 159.364 247.922 158.718 248.105 158.091C248.239 157.635 248.303 157.173 248.162 156.704C247.939 156.764 247.71 156.835 247.636 157.082C247.431 157.755 246.98 158.595 246.563 159.064C246.489 159.145 246.454 159.262 246.401 159.364L246.405 159.361Z" fill="#7B4A23"/>
<path d="M243.949 117.25C243.155 117.595 242.33 117.75 241.466 117.616C242.143 118.516 242.146 118.527 242.979 118.234C243.455 118.068 244.069 118.015 243.949 117.25Z" fill="#7B4A23"/>
<path d="M249.71 116.026C249.068 115.913 248.514 116.241 247.925 116.378C247.981 116.664 248.08 116.922 248.415 116.971C249.103 117.073 249.301 116.925 249.71 116.029V116.026Z" fill="#7B4A23"/>
<path d="M248.645 152.767C249.072 152.347 248.994 151.846 248.885 151.335C248.162 151.748 248.119 152.005 248.645 152.767Z" fill="#7B4A23"/>
<path d="M248.303 155.276C248.723 154.852 248.645 154.348 248.543 153.84C247.805 154.249 247.76 154.517 248.303 155.276Z" fill="#7B4A23"/>
<path d="M241.991 155.699C242.196 156.302 242.58 156.715 243.222 156.852C243.13 156.135 242.72 155.75 241.991 155.699Z" fill="#7B4A23"/>
<path d="M260.24 136.028C260.591 136.487 261.028 136.615 261.553 136.413C261.239 135.862 260.731 135.975 260.24 136.028Z" fill="#7B4A23"/>
<path d="M270.799 137.764C271.106 138.117 271.476 138.12 271.875 137.958C271.519 137.291 271.395 137.27 270.799 137.764Z" fill="#7B4A23"/>
<path d="M267.949 137.387C268.252 137.757 268.619 137.753 269.014 137.563C268.644 136.935 268.534 136.917 267.949 137.387Z" fill="#7B4A23"/>
<path d="M265.441 137.037C265.744 137.401 266.115 137.401 266.513 137.231C266.153 136.575 266.037 136.554 265.441 137.037Z" fill="#7B4A23"/>
<path d="M262.939 136.68C263.239 137.054 263.609 137.044 264.011 136.878C263.655 136.218 263.538 136.197 262.939 136.68Z" fill="#7B4A23"/>
<path d="M246.49 116.572C246.183 116.548 245.911 116.618 245.721 116.883C245.833 117.102 245.992 117.32 246.253 117.2C246.483 117.095 246.479 116.809 246.493 116.572H246.49Z" fill="#7B4A23"/>
<path d="M236.463 151.342C236.47 151.582 236.477 151.819 236.484 152.058C236.706 152.104 236.925 152.15 237.147 152.196C237.214 151.677 237.024 151.36 236.463 151.342Z" fill="#7B4A23"/>
<path d="M276.62 137.739C276.62 137.739 276.006 128.514 269.444 122.442C262.879 116.371 257.1 112.967 247.325 115.387C237.549 117.81 241.991 116.59 241.991 116.59L276.62 137.735V137.739Z" fill="#794720"/>
<path d="M217.208 111.362C224.267 102.68 234.459 109.64 234.459 109.64C236.156 110.758 237.751 111.944 238.999 113.581C239.751 114.565 240.545 115.532 241.525 116.318C241.871 116.597 242.185 116.738 242.658 116.572C243.487 116.283 244.422 116.301 245.155 115.726C246.468 115.75 247.695 115.091 249.029 115.267C249.378 115.313 249.763 115.32 250.094 115.218C252.183 114.576 254.218 115.158 256.264 115.45C256.723 115.514 257.192 115.708 257.587 115.955C258.208 116.346 258.882 116.555 259.581 116.696C260.057 116.791 260.522 116.904 260.907 117.186C261.394 117.542 261.951 117.733 262.477 118.005C263.352 118.453 264.262 118.908 264.731 119.871C264.057 119.79 263.553 119.352 262.995 119.031C261.711 118.287 260.392 117.62 258.988 117.158C255.975 116.167 252.842 116.103 249.713 116.025C249.071 115.913 248.517 116.241 247.928 116.378C247.424 116.258 246.944 116.318 246.492 116.572C246.186 116.548 245.914 116.618 245.723 116.883C245.127 116.978 244.478 116.812 243.952 117.25C243.159 117.595 242.333 117.751 241.469 117.616L241.381 117.535L241.264 117.557C241.106 117.373 240.947 117.19 240.784 117.006C240.481 116.583 240.149 116.184 239.807 115.8C240.153 116.184 240.481 116.583 240.784 117.006C239.945 116.974 239.176 117.151 238.371 117.451C236.9 117.997 235.697 118.971 234.382 119.751C233.33 120.375 232.441 121.3 231.549 122.157C230.998 122.686 230.533 123.314 230.102 123.949C229.372 125.025 228.575 126.087 228.053 127.265C227.725 128.002 227.573 128.845 227.157 129.565C226.426 130.835 226.271 132.246 226.127 133.654C226.045 134.416 226.134 135.185 225.841 135.936C225.668 136.377 225.753 136.868 225.904 137.337C226.014 137.672 226.13 138.039 226.098 138.374C225.94 139.972 226.924 141.316 227.061 142.84C228.356 145.99 230.053 148.873 232.593 151.201C233.069 151.635 233.535 152.076 234.008 152.517C234.833 152.365 235.662 152.213 236.488 152.058C236.71 152.104 236.929 152.15 237.151 152.196C237.299 152.312 237.444 152.429 237.588 152.545L238.174 152.517L246.408 156.704L246.856 153.843L240.643 131.273L256.032 129.226L276.486 136.614C276.486 136.614 276.955 138.395 277.082 138.607C277.209 138.822 258.804 136.614 258.804 136.614L249.47 149.92L248.246 162.441L236.466 153.367L203.161 162.441C202.519 162.839 201.778 162.73 201.079 162.585C200.695 162.504 200.529 162.165 200.508 161.774C200.508 161.774 210.149 120.051 217.208 111.369V111.362Z" fill="#7A4821"/>
</svg>
