<svg width="500" height="501" viewBox="0 0 500 501" fill="none" xmlns="http://www.w3.org/2000/svg">
<path d="M391.987 402.794C387.413 401.775 374.375 402.794 372.66 402.681C368.542 402.568 364.54 400.303 365.34 396.453C365.912 393.509 366.484 390.904 366.026 389.093C363.396 378.335 356.077 352.291 354.59 340.968C354.361 338.703 353.904 336.778 354.018 335.306C354.704 324.096 376.891 333.494 377.12 337.571C377.92 354.329 377.692 368.71 378.378 391.81C378.378 391.81 400.45 393.169 399.993 397.359C399.65 400.076 396.676 403.926 391.987 402.794Z" fill="#F6BB92"/>
<path d="M348.912 301.079C351.191 315.778 354.382 335.149 354.382 335.149C365.776 334.237 374.208 335.719 377.399 337.428C375.917 307.005 372.955 290.369 370.562 280.455C367.485 267.922 281.343 264.731 280.431 261.313C278.494 254.704 241.462 259.262 240.323 268.605C241.007 276.012 232.233 271.568 246.02 286.95C261.972 304.84 348.912 301.079 348.912 301.079Z" fill="#3D3C3C"/>
<path d="M259.238 252.995C259.238 252.995 248.641 253.337 236.677 260.06C225.054 266.555 223.915 275.784 220.155 278.861C216.395 281.937 233.942 312.474 241.007 308.258C254.452 300.396 289.889 285.925 284.306 278.975C278.722 272.024 259.238 252.995 259.238 252.995Z" fill="#3D3C3C"/>
<path d="M87.49 414.938C85.6588 410.632 89.55 406.326 89.55 403.379C89.55 400.546 88.8633 395.787 92.0678 393.407C94.3567 391.707 96.76 390.461 98.1334 389.214C105.343 382.981 115.872 368.023 124.685 360.544C126.745 358.844 127.431 357.937 129.606 356.237C138.647 349.325 147.688 373.462 144.255 375.616C130.293 384.341 107.861 397.26 102.482 399.753C102.482 399.753 106.602 417.431 102.94 419.584C100.537 420.831 89.3211 419.245 87.49 414.938Z" fill="#F6BB92"/>
<path d="M172.008 351.219C162.489 360.391 152.97 368.43 143.68 374.997C142.533 371.261 131.867 357.9 129 355.748C132.097 353.031 134.62 350.88 136.34 349.634C144.483 343.293 159.049 334.801 159.049 334.801C166.045 328.8 211.92 284.528 223.16 276.036C235.202 268.79 246.671 267.997 246.671 267.997C246.671 267.997 272.476 289.171 265.939 295.851C249.08 306.947 203.089 332.763 195.061 337.292C186.803 341.935 172.008 351.219 172.008 351.219Z" fill="#3D3C3C"/>
<path d="M80.9141 150.105C80.9141 145.889 98.9173 148.168 104.387 147.028L110.768 149.991C150.306 147.598 168.766 150.561 168.766 150.561C192.352 148.054 234.74 149.535 243.627 151.13C248.983 152.042 244.083 175.515 237.36 175.515C227.105 174.489 176.628 166.057 168.766 165.146C167.74 165.032 110.654 159.676 110.654 159.676C110.654 159.676 108.375 159.676 104.501 161.044C99.2592 162.867 91.397 162.411 87.181 160.36C83.7627 158.651 80.9141 154.321 80.9141 150.105Z" fill="#F6BB92"/>
<path d="M98.8036 148.851C98.8036 148.851 93.1064 149.307 92.5367 146.344C92.0809 143.837 92.1948 142.926 104.273 147.142C104.273 147.142 104.045 148.851 98.8036 148.851Z" fill="#F6BB92"/>
<path d="M450.324 150.105C450.324 145.889 432.321 148.168 426.851 147.028L420.47 149.991C380.932 147.598 362.473 150.561 362.473 150.561C338.886 148.054 296.499 149.535 287.611 151.13C282.255 152.042 287.155 175.515 293.878 175.515C304.133 174.489 354.61 166.057 362.473 165.146C363.498 165.032 420.584 159.676 420.584 159.676C420.584 159.676 422.863 159.676 426.737 161.044C431.979 162.867 439.841 162.411 444.057 160.36C447.475 158.651 450.324 154.321 450.324 150.105Z" fill="#F6BB92"/>
<path d="M432.434 148.851C432.434 148.851 438.131 149.307 438.701 146.344C439.157 143.837 439.043 142.926 426.965 147.142C426.965 147.142 427.193 148.851 432.434 148.851Z" fill="#F6BB92"/>
<path d="M295.635 188.022C297.796 174.851 287.107 150.913 287.107 150.913C281.989 150.226 276.644 149.997 272.664 149.997H258.336C254.242 149.997 249.011 150.226 243.894 150.913C243.894 150.913 233.204 174.965 235.365 188.022C237.412 200.277 240.823 218.259 234 265.103C234 265.103 248.442 268.997 265.5 268.997C282.558 268.997 297 265.103 297 265.103C290.177 218.259 293.588 200.277 295.635 188.022Z" fill="#FF8AA0"/>
<path d="M275 136.997H256C258.923 146.045 256.225 150.116 256.225 150.116C256.225 150.116 256.787 155.997 265.556 155.997C274.325 155.997 274.775 150.116 274.775 150.116C274.775 150.116 272.077 145.932 275 136.997Z" fill="#ECAD83"/>
<path d="M285 110.907C285 88.1948 276.208 82.9971 265.5 82.9971C254.792 82.9971 246 88.1948 246 110.907C246 118.59 247.353 124.579 249.382 129.212C253.89 139.381 261.668 142.997 265.5 142.997C269.332 142.997 277.11 139.381 281.618 129.212C283.647 124.579 285 118.59 285 110.907Z" fill="#F6BB92"/>
<path d="M271 133.668C271 133.668 268.531 134.997 265.5 134.997C262.469 134.997 260 133.668 260 133.668C260 133.306 261.796 131.131 262.918 131.011C263.592 130.89 265.5 131.615 265.5 131.615C265.5 131.615 267.296 130.89 268.082 131.011C269.204 131.131 271 133.668 271 133.668Z" fill="#D6876B"/>
<path d="M271 133.854C271 133.854 268.531 135.997 265.5 135.997C262.469 135.997 260 133.854 260 133.854C260 133.854 260.561 133.211 263.816 132.997C264.378 132.997 265.051 133.426 265.5 133.426C265.949 133.426 266.51 132.997 266.959 132.997C270.327 133.211 271 133.854 271 133.854Z" fill="#CC785E"/>
<path d="M265.5 90.9971C271.299 90.9971 276 87.8631 276 83.9971C276 80.1311 271.299 76.9971 265.5 76.9971C259.701 76.9971 255 80.1311 255 83.9971C255 87.8631 259.701 90.9971 265.5 90.9971Z" fill="#4C230C"/>
<path d="M286 111.997C286 89.1382 279.736 82.9971 265.5 82.9971C251.264 82.9971 245 89.252 245 111.997C245 111.997 275.408 105.401 275.408 97.099C275.408 105.401 286 111.997 286 111.997Z" fill="#602F0F"/>
<path d="M243.97 118.769C244.995 125.036 246.363 125.264 248.3 124.922L246.249 111.362C244.312 111.704 242.83 112.502 243.97 118.769Z" fill="#F6BB92"/>
<path d="M284.989 111.362L282.938 124.922C284.875 125.264 286.128 124.922 287.267 118.769C288.407 112.502 286.926 111.704 284.989 111.362Z" fill="#F6BB92"/>
<path d="M247.386 112.618C247.272 111.934 247.272 111.364 247.272 110.795C247.272 110.111 247.386 109.655 247.386 109.655L245.107 110.567C245.107 110.909 245.107 111.25 245.107 111.592C245.107 111.592 245.335 111.478 245.791 111.364C245.791 111.364 245.791 111.364 245.677 111.364C246.019 111.934 246.361 112.732 246.817 113.985C246.817 114.099 247.728 114.783 247.386 112.618Z" fill="#602F0F"/>
<path d="M283.849 110.909C283.849 111.364 283.849 112.048 283.735 112.618C283.393 114.669 284.305 113.985 284.305 113.985C284.646 112.732 285.102 111.934 285.444 111.364C285.786 111.478 286.128 111.592 286.128 111.592C286.128 111.25 286.128 110.909 286.128 110.567L283.849 109.655C283.735 109.769 283.849 110.225 283.849 110.909Z" fill="#602F0F"/>
</svg>
