<svg width="500" height="500" viewBox="0 0 500 500" fill="none" xmlns="http://www.w3.org/2000/svg">
<path d="M377.57 389.964C373.539 389.057 362.052 389.964 360.54 389.863C356.913 389.762 353.386 387.747 354.091 384.321C354.595 381.701 355.099 379.383 354.696 377.771C352.378 368.198 345.929 345.022 344.619 334.946C344.418 332.93 344.015 331.217 344.116 329.907C344.72 319.932 364.269 328.295 364.47 331.923C365.176 346.836 364.974 359.633 365.579 380.19C365.579 380.19 385.026 381.399 384.623 385.127C384.321 387.546 381.701 390.972 377.57 389.964Z" fill="#F6BB92"/>
<path d="M339.279 299.778C341.294 312.777 344.115 329.907 344.115 329.907C354.192 329.101 361.649 330.411 364.47 331.922C363.16 305.018 360.54 290.306 358.424 281.539C355.703 270.455 279.524 267.634 278.718 264.611C277.005 258.766 244.256 262.797 243.249 271.06C243.853 277.609 236.094 273.679 248.287 287.283C262.394 303.103 339.279 299.778 339.279 299.778Z" fill="#3D3C3C"/>
<path d="M259.976 257.255C259.976 257.255 250.605 257.557 240.024 263.502C229.746 269.246 228.739 277.408 225.413 280.129C222.088 282.849 237.606 309.855 243.853 306.126C255.744 299.173 287.082 286.376 282.144 280.229C277.207 274.083 259.976 257.255 259.976 257.255Z" fill="#3D3C3C"/>
<path d="M108.122 400.443C106.51 396.614 109.936 392.785 109.936 390.165C109.936 387.646 109.331 383.414 112.152 381.298C114.168 379.786 116.284 378.678 117.493 377.569C123.841 372.027 133.112 358.726 140.871 352.076C142.685 350.564 143.289 349.758 145.204 348.246C153.164 342.1 161.125 363.563 158.102 365.477C145.808 373.236 126.058 384.724 121.322 386.941C121.322 386.941 124.95 402.66 121.725 404.575C119.609 405.683 109.734 404.272 108.122 400.443Z" fill="#F6BB92"/>
<path d="M182.991 344.216C174.627 352.378 166.264 359.533 158.102 365.377C157.094 362.052 147.723 350.161 145.204 348.247C147.924 345.828 150.141 343.914 151.653 342.805C158.807 337.163 171.604 329.605 171.604 329.605C177.751 324.265 218.057 284.865 227.932 277.308C238.513 270.859 248.589 270.153 248.589 270.153C248.589 270.153 271.262 288.997 265.518 294.942C250.705 304.817 210.298 327.791 203.245 331.822C195.99 335.953 182.991 344.216 182.991 344.216Z" fill="#3D3C3C"/>
<path d="M102.277 166.264C102.277 162.535 118.198 164.551 123.035 163.543L128.678 166.163C163.644 164.047 179.968 166.667 179.968 166.667C200.826 164.45 238.311 165.76 246.171 167.171C250.907 167.977 246.574 188.734 240.629 188.734C231.56 187.828 186.921 180.371 179.968 179.565C179.061 179.464 128.577 174.728 128.577 174.728C128.577 174.728 126.562 174.728 123.136 175.937C118.501 177.549 111.548 177.146 107.819 175.333C104.796 173.821 102.277 169.992 102.277 166.264Z" fill="#F6BB92"/>
<path d="M118.098 165.155C118.098 165.155 113.059 165.558 112.555 162.938C112.152 160.722 112.253 159.915 122.934 163.644C122.934 163.644 122.733 165.155 118.098 165.155Z" fill="#F6BB92"/>
<path d="M428.96 166.264C428.96 162.535 413.039 164.551 408.202 163.543L402.559 166.163C367.594 164.047 351.27 166.667 351.27 166.667C330.411 164.45 292.926 165.76 285.067 167.171C280.331 167.977 284.663 188.734 290.609 188.734C299.678 187.828 344.317 180.371 351.27 179.565C352.177 179.464 402.66 174.728 402.66 174.728C402.66 174.728 404.676 174.728 408.102 175.937C412.737 177.549 419.69 177.146 423.418 175.333C426.441 173.821 428.96 169.992 428.96 166.264Z" fill="#F6BB92"/>
<path d="M413.14 165.155C413.14 165.155 418.178 165.558 418.682 162.938C419.085 160.722 418.984 159.915 408.303 163.644C408.303 163.644 408.505 165.155 413.14 165.155Z" fill="#F6BB92"/>
<path d="M292.322 199.92C294.236 188.332 284.764 167.271 284.764 167.271C280.23 166.667 275.494 166.465 271.967 166.465H259.27C255.643 166.465 251.008 166.667 246.473 167.271C246.473 167.271 237.001 188.432 238.916 199.92C240.73 210.702 243.752 226.522 237.707 267.735C237.707 267.735 250.504 271.161 265.619 271.161C280.734 271.161 293.531 267.735 293.531 267.735C287.485 226.522 290.508 210.702 292.322 199.92Z" fill="#FF8AA0"/>
<path d="M274.083 154.877H257.054C259.674 162.938 257.255 166.566 257.255 166.566C257.255 166.566 257.759 171.806 265.619 171.806C273.479 171.806 273.882 166.566 273.882 166.566C273.882 166.566 271.463 162.837 274.083 154.877Z" fill="#ECAD83"/>
<path d="M283.051 131.398C283.051 111.145 275.191 106.509 265.619 106.509C256.046 106.509 248.186 111.145 248.186 131.398C248.186 138.251 249.395 143.591 251.209 147.723C255.24 156.791 262.192 160.016 265.619 160.016C269.045 160.016 275.997 156.791 280.028 147.723C281.842 143.591 283.051 138.251 283.051 131.398Z" fill="#F6BB92"/>
<path d="M270.556 151.753C270.556 151.753 268.339 152.862 265.619 152.862C262.898 152.862 260.681 151.753 260.681 151.753C260.681 151.451 262.293 149.637 263.301 149.536C263.906 149.435 265.619 150.04 265.619 150.04C265.619 150.04 267.231 149.435 267.936 149.536C268.944 149.637 270.556 151.753 270.556 151.753Z" fill="#D6876B"/>
<path d="M270.556 151.753C270.556 151.753 268.339 153.769 265.619 153.769C262.898 153.769 260.681 151.753 260.681 151.753C260.681 151.753 261.185 151.149 264.107 150.947C264.611 150.947 265.216 151.35 265.619 151.35C266.022 151.35 266.526 150.947 266.929 150.947C269.952 151.149 270.556 151.753 270.556 151.753Z" fill="#CC785E"/>
<path d="M265.619 113.764C270.683 113.764 274.789 110.967 274.789 107.517C274.789 104.067 270.683 101.27 265.619 101.27C260.555 101.27 256.449 104.067 256.449 107.517C256.449 110.967 260.555 113.764 265.619 113.764Z" fill="#4C230C"/>
<path d="M283.757 132.306C283.757 112.052 278.215 106.61 265.619 106.61C253.023 106.61 247.481 112.152 247.481 132.306C247.481 132.306 274.385 126.461 274.385 119.105C274.385 126.461 283.757 132.306 283.757 132.306Z" fill="#602F0F"/>
<path d="M246.473 138.553C247.38 144.095 248.589 144.297 250.302 143.995L248.488 132.003C246.775 132.306 245.465 133.011 246.473 138.553Z" fill="#F6BB92"/>
<path d="M282.749 132.003L280.935 143.995C282.648 144.297 283.757 143.995 284.764 138.553C285.772 133.011 284.462 132.306 282.749 132.003Z" fill="#F6BB92"/>
<path d="M249.496 133.112C249.396 132.507 249.396 132.003 249.396 131.499C249.396 130.895 249.496 130.492 249.496 130.492L247.481 131.298C247.481 131.6 247.481 131.902 247.481 132.205C247.481 132.205 247.682 132.104 248.086 132.003C248.086 132.003 248.086 132.003 247.985 132.003C248.287 132.507 248.589 133.212 248.992 134.321C248.992 134.422 249.799 135.026 249.496 133.112Z" fill="#602F0F"/>
<path d="M281.741 131.6C281.741 132.003 281.741 132.608 281.641 133.112C281.338 134.925 282.144 134.321 282.144 134.321C282.447 133.212 282.85 132.507 283.152 132.003C283.454 132.104 283.757 132.205 283.757 132.205C283.757 131.902 283.757 131.6 283.757 131.298L281.741 130.492C281.641 130.592 281.741 130.996 281.741 131.6Z" fill="#602F0F"/>
</svg>
