<svg width="500" height="500" viewBox="0 0 500 500" fill="none" xmlns="http://www.w3.org/2000/svg">
<path d="M227.172 190.642C225.55 190.546 223.987 190.991 222.396 191.167C220.805 191.344 219.238 191.721 217.63 191.767C216.617 191.799 215.644 192.088 214.628 192.152C213.093 192.247 211.572 192.568 210.041 192.727C208.743 192.861 207.441 192.952 206.147 193.15C204.33 193.429 202.503 193.637 200.672 193.81C199.43 193.926 198.192 194.028 196.953 194.215C195.077 194.498 193.189 194.692 191.302 194.9C189.827 195.062 188.346 195.171 186.871 195.341C185.34 195.514 183.812 195.739 182.281 195.923C180.927 196.089 179.568 196.226 178.214 196.385C176.386 196.6 174.566 196.879 172.735 197.027C171.43 197.133 170.135 197.281 168.84 197.454C167.077 197.687 165.313 197.919 163.542 198.092C162.24 198.219 160.942 198.318 159.647 198.512C157.83 198.787 155.999 198.967 154.172 199.186C153.11 199.313 152.052 199.447 150.986 199.553C150.574 199.592 150.136 199.637 149.737 199.546C147.794 199.112 145.822 199.253 143.867 199.281C140.946 199.327 138.053 198.851 135.136 198.893C134.183 198.907 133.227 198.911 132.278 198.854C126.094 198.477 119.903 198.547 113.715 198.509C112.883 198.502 112.047 198.47 111.214 198.509C109.122 198.597 107.069 198.293 105.016 197.941C103.841 197.74 102.642 197.725 101.467 197.969C98.2142 198.643 94.9616 199.338 91.7125 200.033C91.3632 200.107 91.0034 200.195 90.6929 200.361C88.8585 201.338 86.8371 201.927 85.0802 203.067C84.738 203.289 84.3182 203.395 83.9408 203.567C83.1823 203.913 82.4026 204.22 81.6794 204.626C80.5682 205.247 79.9297 206.178 79.9015 207.515C79.8662 209.24 79.7568 210.955 80.4518 212.613C80.7446 213.315 80.8646 214.101 80.9669 214.863C81.0656 215.601 81.4642 216.056 82.0781 216.366C82.8789 216.768 83.7009 217.1 84.6216 217.114C86.2797 217.142 87.9413 217.139 89.5923 217.262C90.2026 217.308 90.767 217.192 91.3526 217.164C93.6175 217.054 95.8647 217.199 98.0942 217.612C98.387 217.664 98.6798 217.777 98.9691 217.763C101.417 217.643 103.841 218.038 106.261 218.261C107.965 218.419 109.704 218.356 111.38 218.807C111.549 218.853 111.733 218.86 111.913 218.864C114.763 218.942 117.592 219.397 120.453 219.28C121.519 219.234 122.591 219.21 123.646 219.517C124.034 219.629 124.475 219.569 124.891 219.573C127.096 219.591 129.312 219.457 131.499 219.658C134.942 219.975 138.406 219.739 141.828 220.042C144.922 220.314 148.005 220.226 151.092 220.335C151.212 220.339 151.336 220.317 151.448 220.342C154.828 220.988 158.201 220.049 161.577 220.293C164.053 219.848 166.583 220.197 169.042 219.869C171.289 219.569 173.546 219.725 175.79 219.34C177.3 219.083 178.881 219.291 180.429 219.227C183.453 219.097 186.479 218.98 189.485 218.606C189.661 218.585 189.841 218.575 190.021 218.571C193.828 218.557 197.613 218.105 201.427 218.109C203.494 218.109 205.568 217.763 207.65 217.781C208.186 217.784 208.722 217.767 209.258 217.767C210.578 217.76 211.848 217.975 213.107 218.402C215.809 219.319 218.54 220.155 221.256 221.03C223.641 221.796 225.916 222.829 228.185 223.87C229.208 224.339 230.245 224.769 231.226 225.348C232.312 225.99 233.307 226.678 233.974 227.772C233.783 226.177 234.524 225.027 235.745 224.113C235.84 224.043 235.925 223.958 236.027 223.895C237.251 223.108 238.183 222.025 239.008 220.857C240.236 219.121 241.03 217.171 241.005 215.04C240.959 210.965 239.717 207.18 237.604 203.73C235.738 200.685 233.561 197.838 231.106 195.242C229.712 193.771 228.474 192.18 227.172 190.638V190.642Z" fill="#F6BB92"/>
<path d="M293.359 215.371C295.649 215.714 297.935 216.056 300.225 216.402C302.278 216.712 304.327 217.033 306.384 217.333C308.441 217.633 310.515 217.82 312.551 218.222C314.449 218.599 316.35 218.688 318.234 218.465C319.818 218.275 321.423 218.264 323 217.922C324.154 217.672 325.349 217.545 326.528 217.52C329.745 217.449 332.902 216.927 336.074 216.444C337.482 216.229 338.91 216.165 340.332 216.052C341.101 215.992 341.863 215.936 342.629 215.777C343.906 215.513 345.2 215.347 346.513 215.276C347.931 215.199 349.338 214.916 350.749 214.726C351.748 214.588 352.746 214.422 353.752 214.32C357.237 213.971 360.691 213.435 364.155 212.937C365.788 212.701 367.443 212.479 369.119 212.465C370.713 212.45 372.315 212.218 373.895 211.978C374.608 211.868 375.31 211.822 376.023 211.787C377.208 211.734 378.404 211.826 379.572 211.487C379.907 211.392 380.281 211.427 380.637 211.417C381.882 211.378 383.117 211.332 384.362 211.12C385.936 210.852 387.551 210.831 389.153 210.729C390.815 210.62 392.49 210.757 394.134 210.39C394.247 210.366 394.374 210.369 394.491 210.38C396.614 210.556 398.741 210.313 400.879 210.567C402.58 210.771 404.322 210.768 406.044 210.478C406.626 210.38 407.229 210.376 407.822 210.366C409.131 210.341 410.443 210.366 411.752 210.32C412.877 210.277 413.682 209.678 413.971 208.612C414.751 205.748 415.495 202.872 416.236 199.997C416.543 198.801 416.109 197.764 415.417 196.822C415.103 196.392 414.659 196.046 414.384 195.595C413.872 194.759 413.117 194.448 412.211 194.208C409.508 193.496 406.75 193.062 404.023 192.458C402.978 192.229 401.941 191.965 400.893 191.76C396.84 190.977 392.727 190.846 388.634 191.076C385.505 191.252 382.39 191.707 379.346 192.628C376.735 193.418 374.051 193.993 371.362 194.466C369.493 194.797 367.559 194.709 365.669 194.434C365.076 194.349 364.49 194.279 363.898 194.275C361.516 194.261 359.132 194.251 356.75 194.229C355.741 194.219 354.729 194.265 353.734 193.982C353.342 193.87 352.905 193.915 352.489 193.912C350.644 193.891 348.795 193.884 346.95 193.863C345.405 193.845 343.863 193.937 342.325 193.601C341.641 193.453 340.9 193.559 340.187 193.538C338.226 193.485 336.261 193.654 334.306 193.333C334.028 193.287 333.724 193.425 333.432 193.439C332.959 193.46 332.458 193.545 332.013 193.429C330.895 193.136 329.763 193.139 328.641 193.185C325.466 193.316 322.368 192.765 319.264 192.243C317.274 191.908 315.267 191.675 313.27 191.39C310.452 190.984 307.633 190.568 304.814 190.151C303.639 189.978 302.468 189.791 301.293 189.615C299.004 189.276 296.718 188.938 294.428 188.606C292.608 188.342 290.784 188.095 288.964 187.826C285.852 187.368 282.748 186.849 279.629 186.461C277.506 186.197 275.421 185.696 273.304 185.438C271.424 185.209 269.498 185.339 267.596 185.308C267.589 186.789 267.949 188.215 268.266 189.647C268.355 190.049 268.348 190.479 268.757 190.73C269.97 190.197 270.898 189.231 272.027 188.578C274.62 187.075 274.789 187.195 276.807 189.068C277.855 190.038 278.832 191.093 279.922 192.007C282.854 194.462 285.5 197.193 287.891 200.163C289.542 202.213 290.827 204.481 291.68 206.993C292.608 209.716 292.989 212.539 293.363 215.364L293.359 215.371Z" fill="#F6BB92"/>
<path d="M293.36 215.372C292.986 212.542 292.602 209.724 291.677 207C290.824 204.488 289.54 202.22 287.889 200.17C285.497 197.2 282.847 194.469 279.919 192.014C278.826 191.097 277.852 190.046 276.804 189.075C274.786 187.202 274.617 187.086 272.024 188.585C270.895 189.238 269.967 190.204 268.754 190.737C267.089 192.134 265.293 193.333 263.356 194.321C262.503 194.956 261.607 195.545 260.809 196.247C260.15 196.826 259.596 196.77 258.897 196.35C255.645 194.395 252.36 192.49 249.104 190.539C245.037 188.102 240.983 185.643 236.93 183.181C236.231 182.757 235.427 182.461 234.982 181.695C234.058 181.752 233.494 182.376 232.982 183.029C232.107 184.144 231.285 185.304 230.425 186.433C229.349 187.844 228.259 189.241 227.175 190.645C228.477 192.19 229.715 193.778 231.109 195.249C233.564 197.846 235.741 200.692 237.607 203.737C239.724 207.187 240.962 210.972 241.008 215.047C241.033 217.174 240.239 219.125 239.011 220.864C238.186 222.032 237.254 223.115 236.03 223.902C235.931 223.965 235.843 224.05 235.748 224.12C234.527 225.034 233.79 226.184 233.977 227.779C235.54 230.227 237.392 232.46 239.138 234.771C242.458 239.159 245.795 243.53 249.125 247.908C250.452 247.608 251.796 247.358 253.108 246.998C256.484 246.07 259.85 245.111 263.208 244.13C269.985 242.147 276.762 240.165 283.525 238.136C285.68 237.491 287.871 236.937 289.942 236.023C291.586 232.806 292.066 229.289 292.612 225.786C293.152 222.332 293.314 218.857 293.364 215.372H293.36Z" fill="#8A8AD9"/>
<path d="M289.938 236.023C287.867 236.936 285.676 237.487 283.521 238.136C276.758 240.164 269.981 242.147 263.204 244.129C259.846 245.11 256.477 246.07 253.104 246.998C251.792 247.357 250.451 247.608 249.121 247.908C249.076 249.53 248.525 251.04 248.063 252.568C246.807 256.731 244.945 260.622 242.779 264.386C241.568 266.492 240.425 268.644 239.346 270.817C238.577 272.362 237.61 273.777 236.76 275.269C240.602 277.28 244.44 279.294 248.282 281.302C256.544 285.623 264.806 289.945 273.068 294.266C274.543 295.039 276.024 295.79 277.467 296.612C278.571 297.24 279.7 297.702 280.984 297.706C281.736 296.189 281.93 294.52 282.209 292.89C282.964 288.449 283.641 283.993 284.318 279.541C284.861 275.964 285.338 272.38 285.881 268.803C286.53 264.524 287.239 260.255 287.885 255.976C288.202 253.866 288.421 251.739 288.71 249.626C289.014 247.393 289.476 245.174 289.62 242.934C289.769 240.633 290.368 238.344 289.938 236.019V236.023Z" fill="#F6BB92"/>
<path d="M261.935 175.719C262.224 175.239 262.034 174.961 261.441 174.943C259.723 174.886 257.994 175.059 256.301 174.594C255.969 174.502 255.588 174.58 255.232 174.573C254.876 174.565 254.512 174.587 254.163 174.527C252.001 174.177 249.838 173.835 247.637 173.863C247.076 173.87 246.589 173.743 246.155 173.373C245.749 173.027 245.266 172.77 244.889 172.403C243.732 171.285 242.61 170.131 241.467 168.999C241.125 168.66 240.846 168.282 240.641 167.845C239.914 166.282 239.315 164.666 238.789 163.026C238.733 162.853 238.775 162.666 238.958 162.592C239.05 162.557 239.223 162.567 239.29 162.631C240.317 163.626 241.463 164.529 242.31 165.661C243.213 166.868 244.331 167.838 245.33 168.932C245.658 169.291 246.046 169.503 246.547 169.602C248.289 169.941 250.05 170.163 251.817 170.29C252.233 170.318 252.685 170.212 253.063 170.339C254.463 170.805 255.895 170.597 257.314 170.653C258.792 170.71 260.284 170.48 261.744 170.964C262.122 171.091 262.573 171.017 262.99 171.002C263.794 170.978 264.235 170.657 264.32 169.87C264.429 168.868 264.521 167.845 264.246 166.854C263.935 165.728 263.96 164.642 264.299 163.523C264.457 162.998 264.595 162.567 265.075 162.204C266.63 161.022 268.126 159.752 269.661 158.542C271.044 157.456 271.322 156.775 270.825 155.05C270.55 154.101 270.141 153.187 269.774 152.266C269.428 151.398 268.962 150.562 268.722 149.67C268.472 148.746 268.133 147.871 267.777 146.989C266.962 144.981 266.017 143.031 265.382 140.949C265.23 140.448 264.909 139.997 264.637 139.542C264.556 139.408 264.383 139.266 264.231 139.245C262.478 138.977 260.721 138.727 258.965 138.476C257.444 138.257 255.931 137.954 254.403 137.852C252.981 137.76 251.606 137.337 250.163 137.376C249.27 137.4 248.543 137.485 248.102 138.409C247.852 138.935 247.457 139.415 247.044 139.831C246.483 140.392 246.346 141.267 245.795 141.729C245.097 142.318 244.994 143.341 244.127 143.743C243.428 145.419 242.031 146.594 241.015 148.047C240.447 148.862 240.147 149.705 240.066 150.672C239.957 151.97 239.847 153.268 239.639 154.552C239.378 156.186 239.018 157.805 238.994 159.47C238.983 160.176 238.644 160.581 237.935 160.666L237.914 161.693C237.83 163.774 238.373 165.82 238.246 167.901C238.091 170.441 237.985 172.996 237.491 175.493C237.149 177.236 236.5 178.912 235.508 180.418C235.244 180.82 234.954 181.194 234.986 181.706C235.431 182.471 236.235 182.764 236.933 183.191C240.987 185.653 245.04 188.112 249.108 190.55C252.364 192.501 255.645 194.406 258.901 196.36C259.6 196.78 260.153 196.836 260.813 196.258C261.61 195.559 262.506 194.97 263.36 194.332C263.343 191.954 263 189.619 262.683 187.265C262.492 185.868 262.118 184.475 262.235 183.029" fill="#F6BB92"/>
<path d="M266.62 138.099C266.655 137.002 266.345 136.003 265.844 135.03C265.082 133.552 264.362 132.052 263.646 130.553C262.383 127.9 260.781 125.491 258.675 123.427C258.252 123.011 257.864 122.559 257.462 122.122C257.095 122.037 256.866 121.808 256.753 121.451C256.075 120.922 255.401 120.396 254.724 119.867C254.05 119.786 253.546 119.349 252.988 119.028C251.704 118.283 250.385 117.617 248.981 117.154C245.968 116.163 242.836 116.1 239.706 116.022C239.297 116.918 239.096 117.066 238.412 116.964C238.077 116.915 237.978 116.657 237.921 116.371C237.417 116.251 236.937 116.311 236.486 116.565C236.471 116.802 236.475 117.087 236.246 117.193C235.988 117.313 235.826 117.098 235.713 116.876C235.117 116.971 234.468 116.805 233.942 117.243C234.062 118.008 233.448 118.061 232.972 118.227C232.139 118.516 232.136 118.509 231.458 117.609L231.37 117.528L231.254 117.549C230.982 118.05 230.478 118.297 230.033 118.562C227.797 119.903 225.846 121.554 224.057 123.466C223.115 124.475 222.759 125.864 221.658 126.718C221.566 127.642 221.034 128.345 220.512 129.061C220.388 129.23 220.434 129.519 220.388 129.749C220.064 131.368 219.866 133.019 219.538 134.628C219.072 136.91 219.489 139.097 219.743 141.323C220.529 142.258 220.251 143.627 221.062 144.551C221.94 147.014 223.574 148.954 225.384 150.774C225.683 151.078 226.001 151.335 226.456 151.332C227.017 151.349 227.207 151.667 227.14 152.185C228.068 152.912 228.971 153.681 229.938 154.358C230.601 154.824 231.13 155.516 231.984 155.688C232.713 155.742 233.124 156.128 233.215 156.845C234.115 157.886 235.184 158.712 236.397 159.354C236.45 159.251 236.485 159.135 236.56 159.054C236.972 158.585 237.427 157.745 237.632 157.071C237.706 156.824 237.935 156.754 238.158 156.694C238.327 156.232 238.345 155.755 238.295 155.269C237.752 154.51 237.798 154.242 238.535 153.833C238.57 153.476 238.606 153.117 238.637 152.76C238.112 152.002 238.158 151.744 238.877 151.332C239.043 150.869 239.061 150.393 239.015 149.91C238.92 149.769 238.722 149.603 238.75 149.494C238.958 148.693 239.191 147.903 239.699 147.211C241.237 145.109 242.733 142.978 244.268 140.872C245.069 139.771 245.905 138.692 246.741 137.616C247.178 137.055 247.64 136.515 248.113 135.982C248.364 135.7 248.702 135.598 249.083 135.619C249.411 135.636 249.634 135.809 249.782 136.092C249.933 136.07 250.085 136.046 250.237 136.025C250.727 135.972 251.235 135.859 251.549 136.409C252.015 136.476 252.438 136.765 252.936 136.674C253.535 136.19 253.652 136.211 254.008 136.871C254.467 137.076 254.95 137.086 255.44 137.03C256.036 136.547 256.153 136.568 256.513 137.224C256.975 137.432 257.458 137.436 257.949 137.379C258.534 136.91 258.644 136.928 259.014 137.556C259.589 137.81 260.192 137.803 260.799 137.757C261.399 137.263 261.519 137.284 261.875 137.951C263.448 138.275 265.036 138.169 266.62 138.095V138.099Z" fill="#794720"/>
<path d="M82.2296 390.176C81.7075 390.243 81.4183 390.646 81.0831 390.977C79.1781 392.861 77.2484 394.724 75.3893 396.65C73.9817 398.107 72.9551 399.772 72.2531 401.737C71.4734 403.924 71.5052 406.108 71.8932 408.232C72.3307 410.634 73.4772 412.811 75.2235 414.631C76.3524 415.809 77.6753 416.695 79.0229 417.563C80.2682 418.367 81.5699 419.083 82.8399 419.849C84.7661 421.009 86.6852 422.184 88.6149 423.345C90.3894 424.414 92.1886 425.447 93.9489 426.537C94.3758 426.802 94.7815 426.968 95.2754 426.957C95.5717 426.95 95.8716 426.957 96.1679 426.957C102.243 426.957 108.314 426.915 114.389 426.989C115.811 427.006 116.717 426.587 117.448 425.366C118.869 422.981 119.529 420.533 118.954 417.732C118.273 414.416 116.467 412.035 113.556 410.401C110.822 408.867 108.095 407.311 105.372 405.766C103.76 406.133 102.387 405.66 101.029 404.746C99.3041 403.582 97.6813 402.312 96.0938 400.975C94.0124 399.222 91.8428 397.571 89.7121 395.874C87.8141 394.364 85.955 392.801 83.9053 391.485C83.3127 391.104 82.787 390.614 82.2332 390.173L82.2296 390.176Z" fill="#F6BB92"/>
<path d="M360.077 413.816C359.541 414.162 358.948 414.166 358.352 414.081C355.36 413.661 352.369 413.231 349.377 412.815C348.968 412.758 348.548 412.751 348.132 412.744C345.934 412.695 343.761 412.395 341.588 412.074C341.295 412.031 340.995 412.007 340.699 412.003C337.076 411.971 333.467 411.502 329.837 411.629C329.812 411.926 329.837 412.236 329.759 412.515C328.807 415.845 329.061 419.203 329.375 422.59C329.569 424.678 330.059 426.679 330.571 428.693C331.008 430.415 331.982 431.833 333.061 433.177C333.492 433.713 334.137 434.122 334.758 434.458C336.543 435.417 338.399 436.13 340.463 436.37C341.944 436.539 343.436 436.486 344.897 436.694C346.781 436.962 348.696 436.825 350.559 437.255C350.675 437.283 350.795 437.294 350.912 437.301C352.986 437.435 355.06 437.569 357.135 437.703C359.978 437.886 362.818 438.119 365.661 438.239C366.836 438.289 368.046 438.222 369.2 437.996C370.763 437.689 372.333 437.382 373.797 436.645C375.476 435.798 376.509 434.362 377.515 432.898C377.801 432.482 377.839 431.889 377.949 431.367C378.534 428.57 377.617 426.224 375.726 424.199C375.49 423.948 375.141 423.804 374.841 423.606C373.412 422.668 371.994 421.712 370.555 420.787C367.863 419.055 365.153 417.351 362.472 415.605C361.64 415.062 360.871 414.416 360.073 413.816H360.077Z" fill="#F6BB92"/>
<path d="M264.191 333.559C265.042 333.605 265.832 333.782 266.608 334.124C267.042 334.314 267.497 334.494 267.959 334.579C271.003 335.136 273.942 336.138 276.997 336.682C282.328 337.631 287.609 338.837 292.932 339.811C296.679 340.495 300.397 341.321 304.147 341.98C307.019 342.485 309.883 343.021 312.734 343.638C314.127 343.942 315.552 344.093 316.956 344.365C319.994 344.947 323.024 345.568 326.062 346.161C326.82 346.309 327.169 346.729 326.891 347.565C326.534 348.637 326.358 349.766 325.818 350.775C325.762 350.881 325.705 350.99 325.688 351.107C325.169 354.095 323.931 356.92 323.694 359.979C323.694 359.979 320.131 371.769 329.836 411.622C333.466 411.495 337.075 411.965 340.698 411.996C340.995 411.996 341.295 412.024 341.587 412.067C343.757 412.388 345.93 412.688 348.131 412.737C348.548 412.748 348.968 412.751 349.377 412.808C352.368 413.224 355.36 413.658 358.351 414.074C358.948 414.159 359.54 414.155 360.077 413.81C360.077 413.81 359.639 347.074 360.077 338.791C360.514 330.508 352.929 322.475 352.929 322.475C352.354 321.897 347.743 318.108 346.325 317.085C346.096 316.919 343.916 315.906 343.711 315.797C342.021 314.883 340.127 314.555 338.352 313.889C338.074 313.783 337.791 313.68 337.499 313.635C335.029 313.225 332.697 312.294 330.256 311.772C329.099 311.525 327.988 311.084 326.841 310.781C324.375 310.124 321.849 309.652 319.447 308.816C316.971 307.955 314.325 307.747 311.922 306.671C309.266 306.286 306.789 305.203 304.161 304.678C302.422 304.328 300.736 303.711 299.014 303.259C295.627 302.37 292.272 301.365 288.914 300.367C286.582 299.672 284.264 298.917 281.947 298.172C281.615 298.066 281.308 297.865 280.994 297.71C279.71 297.707 278.578 297.244 277.477 296.617C276.034 295.795 274.549 295.04 273.078 294.271C264.816 289.945 256.554 285.627 248.292 281.306C244.45 279.295 240.612 277.284 236.77 275.273C236.562 275.432 236.35 275.594 236.142 275.753C233.612 276.91 231.182 278.254 228.818 279.715C227.202 280.713 225.664 281.828 224.084 282.879C220.182 285.476 216.39 288.231 212.707 291.124C210.234 293.068 207.874 295.152 205.464 297.177C202.092 300.01 198.952 303.09 195.781 306.138C190.372 311.334 185.063 316.63 179.673 321.844C174.628 326.723 169.633 331.647 164.623 336.562C163.223 337.937 161.759 339.243 160.337 340.597C159.878 341.035 159.367 341.257 158.742 341.282C158.083 341.307 157.455 341.43 156.844 341.716C156.477 341.889 156.047 341.987 155.641 342.005C154.795 342.04 153.987 342.185 153.239 342.594C153.186 342.622 153.126 342.654 153.07 342.651C151.246 342.622 149.641 343.543 147.894 343.885C146.586 344.139 145.245 344.425 144.007 344.993C143.897 345.042 143.795 345.12 143.682 345.138C141.558 345.466 139.608 346.362 137.611 347.074C135.445 347.847 133.339 348.8 131.226 349.713C129.818 350.324 128.432 350.987 127.049 351.657C122.551 353.83 118.332 356.472 114.236 359.316C113.117 360.092 112.105 361.027 111.092 361.941C107.953 364.77 104.944 367.733 101.927 370.693C98.2373 374.316 94.5472 377.946 90.7443 381.449C88.0702 383.908 85.5125 386.48 82.9161 389.016C82.5915 389.334 82.1224 389.598 82.2388 390.184C82.7926 390.625 83.3183 391.115 83.9109 391.496C85.9606 392.809 87.8197 394.371 89.7177 395.885C91.8484 397.582 94.0145 399.233 96.0994 400.986C97.6869 402.323 99.3097 403.597 101.035 404.757C102.393 405.671 103.765 406.144 105.378 405.777C105.378 405.717 105.406 405.639 105.378 405.6C104.658 404.542 104.711 404.39 105.744 403.995C107.678 403.261 109.593 402.485 111.519 401.741C113.061 401.145 114.613 400.573 116.155 399.974C118.748 398.968 121.316 397.889 123.937 396.964C125.161 396.53 126.283 395.832 127.603 395.631C128.107 395.553 128.566 395.197 129.052 394.985C130.897 394.185 132.781 393.468 134.658 392.763C136.482 392.078 138.271 391.263 140.151 390.738C140.952 390.512 141.689 390.135 142.462 389.856C144.903 388.974 147.238 387.799 149.69 386.97C151.546 386.342 153.306 385.485 155.183 384.906C156.925 384.367 158.552 383.446 160.284 382.864C162.08 382.257 163.812 381.502 165.554 380.775C168.334 379.611 171.132 378.496 173.827 377.128C175.506 376.274 177.231 375.484 178.921 374.644C180.618 373.801 182.28 372.873 183.924 371.924C186.693 370.323 189.473 368.728 192.186 367.035C194.697 365.465 197.132 363.764 199.594 362.117C201.866 360.6 204.141 359.094 206.399 357.555C209.542 355.418 212.665 353.252 215.804 351.114C219.879 348.337 223.96 345.575 228.042 342.813C231.976 340.149 235.927 337.518 239.836 334.819C241.596 333.605 243.328 332.353 245.173 331.263C245.314 331.178 245.395 330.995 245.501 330.857C246.313 330.37 247.18 329.961 247.921 329.386C249.477 328.176 251.026 328.494 252.553 329.323" fill="#6A6D66"/>
<path d="M251.761 328.327C251.592 328.285 251.383 328.236 251.426 328.024C251.458 327.869 251.577 327.689 251.708 327.601C252.05 327.371 252.421 327.174 252.788 326.98C254.153 326.263 255.596 325.667 256.88 324.824C260.806 322.245 264.994 320.097 268.931 317.536C269.463 317.19 269.989 317.448 270.074 318.1C270.172 318.873 270.074 319.614 269.844 320.383C268.617 324.503 266.532 328.271 265.036 332.278C264.842 332.8 264.429 332.97 263.904 332.959" fill="#6A6D66"/>
<path d="M262.228 183.018C262.111 184.465 262.485 185.858 262.676 187.255C262.993 189.605 263.336 191.943 263.353 194.321C265.29 193.33 267.086 192.134 268.751 190.737C268.342 190.487 268.349 190.056 268.26 189.654C267.943 188.222 267.583 186.796 267.59 185.315C267.012 184.927 266.719 184.362 266.616 183.696C266.235 181.293 265.861 178.894 265.488 176.492C265.47 176.375 265.473 176.255 265.473 176.135C265.473 175.73 265.678 175.472 266.063 175.349C266.119 175.331 266.179 175.328 266.235 175.317C267.872 174.964 267.858 174.964 267.869 173.267C267.883 170.95 267.946 168.632 267.946 166.314C267.946 164.974 268.37 163.908 269.488 163.09C270.832 162.109 272.12 161.058 273.422 160.024C273.933 159.618 274.445 159.209 274.903 158.751C275.528 158.123 275.746 157.371 275.545 156.468C275.386 155.763 275.14 155.106 274.822 154.468C273.026 150.852 271.224 147.236 269.442 143.613C268.708 142.121 268.017 140.607 267.304 139.104C267.128 138.734 267.036 138.311 266.623 138.099C265.04 138.177 263.452 138.279 261.879 137.958C261.48 138.12 261.11 138.117 260.803 137.764C260.196 137.81 259.593 137.817 259.018 137.566C258.622 137.753 258.256 137.76 257.952 137.39C257.462 137.446 256.979 137.443 256.516 137.235C256.118 137.4 255.747 137.404 255.444 137.041C254.954 137.097 254.474 137.083 254.012 136.882C253.613 137.048 253.239 137.055 252.939 136.684C252.442 136.776 252.018 136.487 251.553 136.42C251.028 136.622 250.591 136.494 250.24 136.035C250.089 136.056 249.937 136.081 249.785 136.102C249.256 136.564 248.455 136.554 248.014 137.224C247.334 138.258 246.547 139.221 245.817 140.226C244.151 142.519 242.529 144.844 240.825 147.109C240.151 148.008 239.544 148.936 239.019 149.924C239.064 150.407 239.047 150.884 238.881 151.346C238.99 151.854 239.064 152.358 238.641 152.778C238.606 153.134 238.571 153.494 238.539 153.85C238.641 154.358 238.719 154.866 238.299 155.286C238.348 155.77 238.331 156.249 238.161 156.711C238.302 157.181 238.239 157.643 238.105 158.098C237.918 158.729 237.918 159.371 237.928 160.021V160.666C238.638 160.581 238.976 160.179 238.987 159.47C239.011 157.805 239.371 156.186 239.632 154.552C239.837 153.268 239.95 151.967 240.059 150.672C240.14 149.702 240.44 148.859 241.008 148.047C242.024 146.597 243.421 145.423 244.12 143.743C244.984 143.341 245.086 142.318 245.788 141.729C246.335 141.267 246.476 140.392 247.037 139.831C247.45 139.415 247.845 138.935 248.096 138.409C248.537 137.485 249.263 137.4 250.156 137.376C251.599 137.337 252.971 137.76 254.396 137.852C255.924 137.951 257.441 138.258 258.958 138.476C260.714 138.727 262.471 138.977 264.225 139.245C264.373 139.267 264.549 139.408 264.63 139.542C264.902 139.997 265.223 140.452 265.375 140.949C266.01 143.031 266.955 144.982 267.77 146.989C268.13 147.871 268.465 148.746 268.715 149.67C268.959 150.566 269.421 151.399 269.767 152.266C270.134 153.187 270.546 154.101 270.818 155.05C271.315 156.775 271.037 157.456 269.654 158.542C268.116 159.752 266.623 161.019 265.068 162.204C264.588 162.568 264.45 162.998 264.292 163.524C263.953 164.642 263.928 165.729 264.239 166.854C264.514 167.845 264.422 168.868 264.313 169.87C264.225 170.66 263.787 170.978 262.983 171.003C262.567 171.017 262.115 171.091 261.737 170.964C260.281 170.477 258.785 170.71 257.307 170.653C255.888 170.597 254.453 170.805 253.056 170.339C252.678 170.212 252.227 170.322 251.81 170.29C250.039 170.163 248.283 169.944 246.54 169.602C246.035 169.503 245.651 169.292 245.323 168.932C244.321 167.838 243.206 166.868 242.303 165.661C241.456 164.533 240.31 163.626 239.283 162.631C239.216 162.568 239.047 162.554 238.952 162.592C238.768 162.666 238.726 162.853 238.782 163.026C239.311 164.667 239.908 166.282 240.634 167.845C240.839 168.283 241.118 168.66 241.46 168.999C242.603 170.131 243.725 171.285 244.882 172.403C245.263 172.77 245.746 173.031 246.148 173.373C246.586 173.744 247.069 173.871 247.63 173.864C249.828 173.839 251.994 174.178 254.156 174.527C254.506 174.583 254.869 174.562 255.225 174.573C255.582 174.58 255.963 174.502 256.294 174.594C257.987 175.063 259.72 174.887 261.434 174.943C262.027 174.964 262.217 175.239 261.928 175.719" fill="#DEA882"/>
<path d="M262.069 332.935C262.404 333.225 262.795 333.313 263.226 333.32C263.751 333.33 264.161 333.161 264.358 332.639C265.854 328.631 267.939 324.864 269.167 320.743C269.396 319.978 269.495 319.237 269.396 318.461C269.315 317.812 268.789 317.551 268.253 317.896C264.316 320.454 260.132 322.606 256.202 325.185C254.918 326.028 253.479 326.624 252.11 327.34C251.743 327.534 251.376 327.728 251.03 327.961C250.896 328.049 250.776 328.229 250.748 328.384C250.706 328.596 250.914 328.646 251.083 328.688" fill="#464843"/>
<path d="M224.005 152.513C224.83 152.362 225.659 152.21 226.485 152.055C226.478 151.815 226.47 151.578 226.463 151.339C226.008 151.339 225.691 151.081 225.391 150.781C223.581 148.964 221.951 147.024 221.069 144.558C220.262 143.634 220.537 142.265 219.75 141.33C219.496 139.108 219.08 136.92 219.545 134.634C219.874 133.026 220.068 131.375 220.396 129.756C220.441 129.526 220.396 129.233 220.519 129.068C221.041 128.351 221.574 127.646 221.666 126.725C222.766 125.868 223.119 124.478 224.065 123.473C225.85 121.564 227.804 119.913 230.041 118.569C230.485 118.304 230.99 118.057 231.261 117.556C231.102 117.373 230.944 117.19 230.785 117.006C229.945 116.974 229.176 117.151 228.372 117.451C226.901 117.997 225.698 118.971 224.382 119.751C223.331 120.375 222.442 121.299 221.549 122.157C220.999 122.686 220.533 123.314 220.103 123.949C219.373 125.025 218.575 126.087 218.053 127.265C217.725 128.002 217.573 128.845 217.157 129.565C216.427 130.835 216.272 132.246 216.127 133.654C216.046 134.416 216.134 135.185 215.841 135.936C215.668 136.377 215.753 136.868 215.905 137.337C216.014 137.672 216.131 138.039 216.099 138.374C215.94 139.972 216.924 141.316 217.062 142.84C218.357 145.99 220.053 148.873 222.593 151.201C223.07 151.635 223.535 152.076 224.008 152.517L224.005 152.513Z" fill="#603818"/>
<path d="M239.022 149.917C239.548 148.929 240.151 148.001 240.829 147.102C242.529 144.837 244.155 142.516 245.82 140.219C246.547 139.214 247.334 138.251 248.018 137.217C248.459 136.547 249.26 136.557 249.789 136.095C249.641 135.813 249.419 135.644 249.091 135.622C248.713 135.601 248.371 135.7 248.12 135.986C247.651 136.518 247.186 137.058 246.748 137.619C245.912 138.695 245.076 139.775 244.275 140.875C242.744 142.981 241.248 145.116 239.707 147.215C239.199 147.91 238.966 148.696 238.758 149.497C238.729 149.607 238.931 149.772 239.022 149.913V149.917Z" fill="#7B4A23"/>
<path d="M236.405 159.361C236.652 160.19 237.322 160.024 237.929 160.01C237.918 159.364 237.922 158.718 238.105 158.091C238.239 157.635 238.303 157.173 238.162 156.704C237.939 156.764 237.71 156.835 237.636 157.082C237.431 157.755 236.98 158.595 236.563 159.064C236.489 159.145 236.454 159.262 236.401 159.364L236.405 159.361Z" fill="#7B4A23"/>
<path d="M233.949 117.25C233.155 117.595 232.33 117.75 231.466 117.616C232.143 118.516 232.146 118.527 232.979 118.234C233.455 118.068 234.069 118.015 233.949 117.25Z" fill="#7B4A23"/>
<path d="M239.71 116.026C239.068 115.913 238.514 116.241 237.925 116.378C237.981 116.664 238.08 116.922 238.415 116.971C239.103 117.073 239.301 116.925 239.71 116.029V116.026Z" fill="#7B4A23"/>
<path d="M238.645 152.767C239.072 152.347 238.994 151.846 238.885 151.335C238.162 151.748 238.119 152.005 238.645 152.767Z" fill="#7B4A23"/>
<path d="M238.303 155.276C238.723 154.852 238.645 154.348 238.543 153.84C237.805 154.249 237.76 154.517 238.303 155.276Z" fill="#7B4A23"/>
<path d="M231.991 155.699C232.196 156.302 232.58 156.715 233.222 156.852C233.13 156.135 232.72 155.75 231.991 155.699Z" fill="#7B4A23"/>
<path d="M250.24 136.028C250.591 136.487 251.028 136.615 251.553 136.413C251.239 135.862 250.731 135.975 250.24 136.028Z" fill="#7B4A23"/>
<path d="M260.799 137.764C261.106 138.117 261.476 138.12 261.875 137.958C261.519 137.291 261.395 137.27 260.799 137.764Z" fill="#7B4A23"/>
<path d="M257.949 137.387C258.252 137.757 258.619 137.753 259.014 137.563C258.644 136.935 258.534 136.917 257.949 137.387Z" fill="#7B4A23"/>
<path d="M255.441 137.037C255.744 137.401 256.115 137.401 256.513 137.231C256.153 136.575 256.037 136.554 255.441 137.037Z" fill="#7B4A23"/>
<path d="M252.939 136.68C253.239 137.054 253.609 137.044 254.011 136.878C253.655 136.218 253.538 136.197 252.939 136.68Z" fill="#7B4A23"/>
<path d="M236.49 116.572C236.183 116.548 235.911 116.618 235.721 116.883C235.833 117.102 235.992 117.32 236.253 117.2C236.483 117.095 236.479 116.809 236.493 116.572H236.49Z" fill="#7B4A23"/>
<path d="M226.463 151.342C226.47 151.582 226.477 151.819 226.484 152.058C226.706 152.104 226.925 152.15 227.147 152.196C227.214 151.677 227.024 151.36 226.463 151.342Z" fill="#7B4A23"/>
<path d="M266.62 137.739C266.62 137.739 266.006 128.514 259.444 122.442C252.879 116.371 247.1 112.967 237.325 115.387C227.549 117.81 231.991 116.59 231.991 116.59L266.62 137.735V137.739Z" fill="#794720"/>
<path d="M207.208 111.362C214.267 102.68 224.459 109.64 224.459 109.64C226.156 110.758 227.751 111.944 228.999 113.581C229.751 114.565 230.545 115.532 231.525 116.318C231.871 116.597 232.185 116.738 232.658 116.572C233.487 116.283 234.422 116.301 235.155 115.726C236.468 115.75 237.695 115.091 239.029 115.267C239.378 115.313 239.763 115.32 240.094 115.218C242.183 114.576 244.218 115.158 246.264 115.45C246.723 115.514 247.192 115.708 247.587 115.955C248.208 116.346 248.882 116.555 249.581 116.696C250.057 116.791 250.522 116.904 250.907 117.186C251.394 117.542 251.951 117.733 252.477 118.005C253.352 118.453 254.262 118.908 254.731 119.871C254.057 119.79 253.553 119.352 252.995 119.031C251.711 118.287 250.392 117.62 248.988 117.158C245.975 116.167 242.842 116.103 239.713 116.025C239.071 115.913 238.517 116.241 237.928 116.378C237.424 116.258 236.944 116.318 236.492 116.572C236.186 116.548 235.914 116.618 235.723 116.883C235.127 116.978 234.478 116.812 233.952 117.25C233.159 117.595 232.333 117.751 231.469 117.616L231.381 117.535L231.264 117.557C231.106 117.373 230.947 117.19 230.784 117.006C230.481 116.583 230.149 116.184 229.807 115.8C230.153 116.184 230.481 116.583 230.784 117.006C229.945 116.974 229.176 117.151 228.371 117.451C226.9 117.997 225.697 118.971 224.382 119.751C223.33 120.375 222.441 121.3 221.549 122.157C220.998 122.686 220.533 123.314 220.102 123.949C219.372 125.025 218.575 126.087 218.053 127.265C217.725 128.002 217.573 128.845 217.157 129.565C216.426 130.835 216.271 132.246 216.127 133.654C216.045 134.416 216.134 135.185 215.841 135.936C215.668 136.377 215.753 136.868 215.904 137.337C216.014 137.672 216.13 138.039 216.098 138.374C215.94 139.972 216.924 141.316 217.061 142.84C218.356 145.99 220.053 148.873 222.593 151.201C223.069 151.635 223.535 152.076 224.008 152.517C224.833 152.365 225.662 152.213 226.488 152.058C226.71 152.104 226.929 152.15 227.151 152.196C227.299 152.312 227.444 152.429 227.588 152.545L228.174 152.517L236.408 156.704L236.856 153.843L230.643 131.273L246.032 129.226L266.486 136.614C266.486 136.614 266.955 138.395 267.082 138.607C267.209 138.822 248.804 136.614 248.804 136.614L239.47 149.92L238.246 162.441L226.466 153.367L193.161 162.441C192.519 162.839 191.778 162.73 191.079 162.585C190.695 162.504 190.529 162.165 190.508 161.774C190.508 161.774 200.149 120.051 207.208 111.369V111.362Z" fill="#7A4821"/>
</svg>
