<svg width="500" height="500" viewBox="0 0 500 500" fill="none" xmlns="http://www.w3.org/2000/svg">
<path d="M266.672 200.809C266.538 201.201 266.326 201.589 266.287 201.991C266.157 203.339 266.044 204.693 266.005 206.048C265.846 211.213 265.949 216.381 265.758 221.545C265.638 224.773 265.649 228.012 265.868 231.247C266.044 233.847 265.924 236.461 266.192 239.057C266.358 240.426 267.032 241.513 268.094 242.356C269.685 243.619 271.247 244.921 272.944 246.053C275.294 247.623 277.897 248.519 280.656 248.907C282.522 249.168 284.41 248.889 286.212 248.3C288.495 247.556 290.7 246.614 292.859 245.563C297.265 243.414 301.664 241.259 306.067 239.107C306.864 238.719 307.665 238.341 308.455 237.939C311.757 236.263 315.123 234.729 318.499 233.212C320.735 232.206 322.972 231.222 325.304 230.46C325.198 230.284 325.127 230.072 324.887 230.03C323.145 229.705 321.409 229.303 319.656 229.077C317.419 228.792 315.25 228.234 313.094 227.617C310.579 226.897 308.183 225.874 305.837 224.703C304.225 223.899 303.068 222.689 302.094 221.242C301.773 220.766 301.449 220.293 301.16 219.799C300.898 219.351 300.644 218.893 300.454 218.409C298.729 214.014 298.983 209.632 300.546 205.254C300.817 204.492 301.244 203.871 301.798 203.3C303.11 201.949 304.5 200.686 305.975 199.514C306.638 198.989 307.407 198.661 308.194 198.368C308.586 198.223 308.977 198.082 309.355 197.909C309.58 197.807 309.531 197.557 309.559 197.355" fill="#8A8AD9"/>
<path d="M317.501 177.631L318.245 177.815C318.291 177.822 318.341 177.832 318.386 177.84C318.39 177.843 318.397 177.85 318.401 177.854L321.466 178.609C321.466 178.609 321.477 178.598 321.484 178.594C321.657 178.63 321.83 178.665 322.002 178.7C322.017 178.721 322.034 178.736 322.048 178.757L324.588 179.385C324.715 179.406 324.842 179.431 324.969 179.452C324.98 179.466 324.991 179.476 325.001 179.487L327.742 180.164C327.742 180.164 327.749 180.157 327.753 180.154C327.929 180.189 328.102 180.221 328.278 180.256C328.296 180.277 328.317 180.291 328.335 180.313L330.79 180.919C331.044 180.958 331.298 180.997 331.556 181.032C331.587 181.067 331.623 181.099 331.655 181.131L333.683 181.632C333.683 181.632 342.894 182.726 346.574 182.313C346.803 182.288 347.036 182.253 347.283 182.214C347.307 182.196 347.332 182.182 347.357 182.165C347.586 182.136 347.815 182.108 348.045 182.076C348.792 181.928 349.604 181.734 350.465 181.512C350.468 181.505 350.475 181.501 350.482 181.494C350.532 181.487 350.581 181.477 350.63 181.47C353.961 180.605 358.053 179.349 362.357 178.753C368.636 177.882 367.313 178.436 370.764 178.753C374.214 179.071 377.103 181.441 379.343 185.064C379.354 185.079 379.361 185.096 379.368 185.11C379.484 185.294 379.59 185.484 379.696 185.675C379.71 185.703 379.728 185.731 379.745 185.759C379.798 185.855 379.855 185.943 379.908 186.042C379.915 186.063 379.918 186.084 379.925 186.105C380.377 186.976 380.73 187.851 380.994 188.712C381.026 188.747 381.054 188.786 381.086 188.822C381.103 188.949 381.121 189.072 381.139 189.199C381.753 191.411 381.841 193.506 381.763 195.196C381.64 197.923 378.542 203.705 378.542 203.705C381.88 206.072 383.502 213.911 384.007 216.839C384.032 216.853 384.053 216.867 384.077 216.878C384.113 217.065 384.148 217.248 384.18 217.435C384.162 217.464 384.137 217.495 384.116 217.527C384.159 217.802 384.18 217.958 384.18 217.958L384.042 217.912C384.028 218.208 383.915 218.406 383.485 218.391C382.652 218.363 381.816 218.356 380.984 218.353C378.828 218.346 376.733 218.053 374.725 217.213C373.91 216.871 373.057 216.624 372.217 216.345C370.34 215.717 368.456 215.121 366.643 214.306C365.123 213.622 363.567 213.015 362.004 212.444C357.601 210.838 353.181 209.276 348.771 207.678C347.547 207.233 346.348 206.732 345.138 206.245C344.647 206.048 343.367 206.224 343.155 205.695C343.48 205.529 343.942 205.261 344.407 204.961L333.542 201.409C333.221 201.423 332.928 201.493 332.723 201.797C332.568 201.776 332.406 201.776 332.265 201.726C330.067 200.939 327.876 200.139 325.675 199.359C325.026 199.13 324.472 198.78 324.003 198.29L323.41 196.741C323.41 196.741 323.389 196.731 323.378 196.727C323.361 196.657 323.343 196.583 323.325 196.512C323.325 196.512 323.128 196.011 322.8 195.179C322.786 195.172 322.779 195.164 322.764 195.157C322.74 195.073 322.715 194.992 322.694 194.907C322.496 194.41 322.264 193.817 322.002 193.154C322.002 193.154 322.002 193.154 321.999 193.154C321.999 193.143 321.992 193.132 321.992 193.122C320.249 188.687 317.332 181.212 316.545 178.873C316.524 178.866 316.506 178.856 316.485 178.848C316.446 178.662 316.404 178.475 316.365 178.288C316.358 178.256 316.351 178.228 316.347 178.206C316.178 177.106 317.508 177.646 317.508 177.646L317.501 177.631Z" fill="#794720"/>
<path d="M234.146 196.41C234.164 196.565 234.192 196.721 234.199 196.876C234.337 199.582 234.372 202.298 234.637 204.993C234.908 207.745 234.739 210.518 235.127 213.262C235.141 213.365 235.141 213.471 235.145 213.576C235.325 219.517 235.653 225.454 235.547 231.402C235.529 232.341 235.483 233.279 235.448 234.217C236.221 234.634 237.018 234.757 237.861 234.457C237.96 234.422 238.066 234.401 238.168 234.397C240.408 234.355 242.645 233.812 244.874 234.112C246.843 234.376 248.818 234.316 250.79 234.56C253.119 234.849 255.433 235.184 257.73 235.625C259.836 236.027 261.875 236.662 263.794 237.639C264.397 237.946 265.018 238.225 265.494 238.737C265.674 238.931 265.914 239.043 266.189 239.061C265.921 236.465 266.041 233.847 265.865 231.251C265.646 228.016 265.635 224.777 265.755 221.549C265.946 216.384 265.843 211.216 266.002 206.052C266.045 204.697 266.154 203.346 266.284 201.995C266.323 201.592 266.535 201.208 266.669 200.813C266.097 200.785 265.522 200.756 264.951 200.728" fill="#F6BB92"/>
<path d="M214.934 385.595C214.511 385.866 214.038 385.898 213.573 385.799C212.486 385.574 211.385 385.651 210.292 385.591C202.562 385.175 194.822 385.295 187.086 385.267C186.79 386.424 186.437 387.563 186.797 388.791C186.924 389.228 186.86 389.726 186.86 390.195C186.871 392.492 186.825 394.792 186.892 397.088C186.998 400.785 188.49 403.833 191.341 406.208C191.87 406.649 192.476 406.98 193.129 407.153C195.842 407.88 198.562 408.582 201.289 409.256C202.143 409.467 203.025 409.594 203.903 409.693C205.917 409.919 207.907 410.335 209.943 410.451C211.805 410.557 213.654 410.945 215.513 411.178C216.853 411.348 218.201 411.499 219.549 411.609C220.741 411.704 221.937 411.711 223.133 411.856C224.946 412.074 226.781 411.997 228.58 411.591C229.345 411.418 230.069 411.118 230.753 410.72C231.353 410.37 231.815 409.898 232.168 409.294C232.915 408.01 233.328 406.613 233.582 405.17C233.759 404.161 233.455 403.195 232.961 402.323C232.263 401.092 231.349 400.009 230.284 399.078C227.098 396.305 223.867 393.585 220.868 390.601C219.725 389.461 218.487 388.41 217.118 387.539C216.448 387.112 215.866 386.604 215.421 385.944C215.301 385.768 215.178 385.605 214.941 385.591L214.934 385.595Z" fill="#F6BB92"/>
<path d="M57.2521 192.963C55.6541 192.903 54.0489 192.688 52.4473 192.504C48.1152 192 44.5415 193.291 42.0791 197.253C41.6276 197.98 41.37 198.854 41.1795 199.694C40.9573 200.689 40.8091 201.705 40.8515 202.746C40.9044 204.079 40.855 205.416 40.8656 206.753C40.8726 207.776 40.7985 208.803 41.0878 209.815C41.1972 210.2 41.1372 210.634 41.1372 211.043C41.1548 215.255 41.1654 219.471 41.1831 223.683C41.1866 224.604 41.2254 225.514 41.3736 226.438C41.5429 227.493 41.4441 228.59 41.4653 229.67C41.4865 230.813 41.7052 231.913 42.3049 232.912C42.9576 233.998 43.8007 234.866 45.0601 235.286C45.8468 235.547 46.5947 235.9 47.4202 236.069C49.6251 236.521 51.5583 236.125 53.1317 234.457C53.622 233.935 54.1653 233.469 54.4052 232.735C54.5604 232.266 54.9203 231.846 55.2448 231.448C56.2502 230.206 56.8112 228.678 57.9012 227.493C59.0372 225.242 60.54 223.21 61.8594 221.065C62.9918 219.227 64.2054 217.439 65.3837 215.629C65.3449 214.867 65.2532 214.098 65.2779 213.336C65.419 209 65.1191 204.658 65.5389 200.322C65.74 198.241 65.6553 196.134 65.7012 194.042C65.6694 193.852 65.6377 193.661 65.6094 193.471C65.2708 193.362 59.4464 193.048 57.2557 192.967L57.2521 192.963Z" fill="#F6BB92"/>
<path d="M332.031 234.647C331.788 235.621 331.848 236.616 331.876 237.6C331.908 238.669 332.511 239.445 333.358 240.045C333.721 240.302 334.151 240.26 334.568 240.264C336.705 240.278 338.84 240.292 340.978 240.306C341.292 240.306 341.609 240.348 341.916 240.306C343.027 240.154 343.754 240.655 344.417 241.52C345.588 243.044 346.865 244.483 348.097 245.961C348.788 246.794 349.935 247.27 351.184 246.645C351.275 246.6 351.374 246.557 351.466 246.511C354.418 245.083 357.371 243.654 360.32 242.222C360.691 242.042 361.107 241.929 361.351 241.551C361.128 241.227 360.776 241.064 360.426 241.008C358.885 240.765 357.378 240.387 355.861 240.038C352.93 239.361 349.981 238.764 347.042 238.129C343.645 237.396 340.244 236.672 336.854 235.91C335.234 235.547 333.58 235.318 332.038 234.655L332.031 234.647Z" fill="#F6BB92"/>
<path d="M332.032 234.648C333.573 235.311 335.231 235.54 336.847 235.903C340.237 236.669 343.638 237.389 347.035 238.122C349.977 238.757 352.923 239.357 355.855 240.031C357.372 240.38 358.882 240.758 360.42 241.001C360.769 241.058 361.118 241.22 361.344 241.544C361.796 241.555 362.159 241.294 362.561 241.153C362.766 240.56 363.316 240.363 363.803 240.105C363.87 240.07 364.046 240.229 364.17 240.299C365.083 240.144 365.909 239.752 366.713 239.315C367.299 238.997 367.892 238.719 368.583 238.75C367.736 238.214 366.752 238.066 365.814 237.826C364.664 237.53 363.471 237.399 362.304 237.173C360.37 236.8 358.444 236.387 356.511 236.027C353.914 235.544 351.307 235.113 348.711 234.633C347.028 234.323 345.356 233.97 343.677 233.639C341.694 233.247 339.712 232.87 337.733 232.46C336.212 232.146 334.656 232.016 333.153 231.593C332.762 231.483 332.324 231.547 331.908 231.529C331.855 232.57 331.792 233.614 332.032 234.644V234.648Z" fill="#DEA882"/>
<path d="M188.483 237.512C188.43 237.632 188.374 237.755 188.321 237.875C188.144 239.096 188.035 240.316 188.201 241.548C190 241.17 191.848 241.421 193.644 241.191C195.154 240.997 196.671 241.1 198.156 240.891C199.871 240.651 201.599 240.793 203.293 240.567C204.958 240.345 206.633 240.475 208.274 240.256C209.784 240.055 211.301 240.154 212.782 239.942C214.133 239.748 215.495 239.837 216.822 239.632C218.173 239.424 219.524 239.473 220.864 239.332C222 239.212 223.129 239.032 224.279 239.018C224.629 239.015 224.978 238.828 225.327 238.725C225.606 238.641 225.761 238.454 225.782 238.164C225.807 237.762 225.602 237.371 225.267 237.29C225.024 237.23 224.727 237.177 224.505 237.258C223.743 237.536 222.96 237.476 222.18 237.476C211.629 237.476 201.077 237.476 190.525 237.476C189.848 237.476 189.167 237.498 188.49 237.512H188.483Z" fill="#464843"/>
<path d="M364.173 240.303C364.049 240.232 363.873 240.073 363.806 240.109C363.323 240.366 362.772 240.564 362.564 241.156C363.259 241.17 363.799 240.895 364.173 240.303Z" fill="#E7C7AE"/>
<path d="M235.357 234.344C235.272 234.393 235.254 234.457 235.307 234.534L235.413 234.46L235.357 234.344Z" fill="#F6BB92"/>
<path d="M342.869 205.977C343.14 205.988 343.708 205.25 343.983 205.261C344.735 204.88 345.384 204.379 345.973 203.769C347.169 202.527 348.425 201.345 349.617 200.103C350.965 198.703 352.542 197.602 354.133 196.523C354.852 196.036 355.703 195.761 356.479 195.376C357.717 194.762 359.11 194.833 360.342 194.275C360.652 194.134 361.061 194.191 361.425 194.184C362.261 194.173 363.097 194.184 363.933 194.18C364.769 194.173 365.598 194.155 366.36 194.618C366.611 194.769 366.963 194.745 367.263 194.819C367.665 194.917 368.103 194.96 368.459 195.15C369.461 195.683 370.59 195.941 371.528 196.604C373.063 197.687 374.569 198.816 375.691 200.336C376.157 200.968 376.764 201.472 377.176 202.142C377.3 202.343 377.54 202.322 377.734 202.213C377.903 202.121 377.892 201.948 377.822 201.804C376.848 199.786 375.592 197.937 374.343 196.085C374.086 195.701 373.723 195.373 373.363 195.08C372.477 194.36 371.606 193.605 370.646 192.995C369.288 192.134 367.799 191.51 366.247 191.065C366.05 191.009 365.799 191.051 365.637 190.949C364.646 190.321 363.541 190.405 362.448 190.409C361.612 190.409 360.776 190.42 359.939 190.409C359.308 190.398 358.691 190.423 358.123 190.758C357.946 190.864 357.745 190.945 357.544 190.988C354.461 191.668 353.286 192.339 350.894 194.085C349.959 194.769 349.12 195.538 348.337 196.371C346.724 198.078 344.95 199.613 343.207 201.179C342.932 201.426 342.671 201.691 342.272 201.687C341.542 201.687 340.777 201.804 340.089 201.627C339.154 201.387 338.23 201.409 337.298 201.398C336.099 201.387 334.896 201.398 333.696 201.395C333.319 201.395 332.966 201.437 332.733 201.786C334.575 202.661 336.54 203.197 338.434 203.924C339.355 204.277 340.307 204.552 341.246 204.862C341.348 204.905 341.454 204.947 341.556 204.989" fill="#603818"/>
<path d="M341.246 204.866C341.32 204.986 341.412 205.056 341.557 204.993Z" fill="#7A4822"/>
<path d="M233.272 195.475C233.093 195.429 232.913 195.387 232.736 195.341L233.272 195.475Z" fill="#6A6D66"/>
<path d="M64.5133 213.34C64.4922 212.129 64.3511 210.905 64.6086 209.713C64.6192 209.664 64.6262 209.614 64.6368 209.565L64.7991 204.573C64.8097 202.008 64.8167 199.444 64.7779 196.882C64.7603 195.665 65.1131 194.515 65.166 193.319L150.009 197.627L233.268 195.475C233.561 195.785 233.851 196.096 234.143 196.41C234.161 196.565 234.189 196.72 234.196 196.875C234.334 199.581 234.369 202.298 234.634 204.993C234.905 207.744 234.736 210.517 235.124 213.262C235.138 213.364 235.138 213.47 235.142 213.576C235.322 219.517 235.65 225.454 235.544 231.402C235.526 232.34 235.48 233.279 235.445 234.217C235.403 234.252 235.371 234.298 235.35 234.347C235.265 234.397 235.248 234.46 235.3 234.538C234.93 236.803 234.542 239.071 234.2 241.343C233.949 242.994 233.769 244.656 233.544 246.31C233.466 246.878 233.328 247.439 233.261 248.007C233.011 250.134 232.912 252.279 232.408 254.371C232.334 254.675 232.33 254.992 232.305 255.306C232.168 256.971 231.977 258.629 231.674 260.277C231.24 262.64 231.187 265.053 230.725 267.417C230.316 269.516 230.242 271.664 229.885 273.781C229.462 276.3 229.264 278.858 228.869 281.383C228.548 283.444 228.517 285.546 228.023 287.589C227.949 287.892 227.942 288.21 227.917 288.524C227.783 290.242 227.568 291.949 227.264 293.65C226.851 295.964 226.827 298.327 226.336 300.631C225.945 302.473 226.033 304.378 225.652 306.226C225.43 307.299 225.267 308.389 225.179 309.479C225.084 310.625 224.946 311.765 224.763 312.897C224.597 313.927 224.417 314.961 224.322 315.998C224.167 317.663 223.976 319.321 223.613 320.958C223.556 321.212 223.549 321.477 223.532 321.738C223.422 323.304 223.186 324.849 222.918 326.394C222.643 327.989 222.505 329.605 222.279 331.206C222.117 332.342 221.835 333.468 221.733 334.607C221.606 336.015 221.341 337.398 221.133 338.788C220.759 341.264 220.477 343.755 220.082 346.231C219.835 347.776 219.764 349.346 219.429 350.884C219.231 351.802 219.126 352.736 219.062 353.678C219.002 354.56 218.812 355.435 218.681 356.314C218.533 357.294 218.371 358.272 218.233 359.256C218.074 360.392 217.94 361.535 217.778 362.671C217.651 363.549 217.439 364.417 217.369 365.299C217.256 366.71 217.041 368.1 216.73 369.476C216.684 369.68 216.66 369.888 216.646 370.097C216.437 373.123 215.742 376.083 215.436 379.096C215.291 380.497 214.977 381.879 214.804 383.276C214.709 384.045 214.575 384.839 214.928 385.594C214.504 385.866 214.031 385.898 213.566 385.799C212.479 385.573 211.379 385.651 210.285 385.591C202.556 385.174 194.816 385.294 187.079 385.266C186.92 384.271 187.146 383.287 187.171 382.296C187.266 378.69 187.245 375.085 187.481 371.483C187.679 368.46 187.584 365.426 187.816 362.399C188 360.004 187.929 357.598 188.106 355.199C188.303 352.493 188.279 349.77 188.413 347.053C188.631 342.668 188.709 338.276 188.84 333.891C188.896 332.06 189.069 330.247 189.425 328.448C189.577 327.682 189.64 326.895 189.757 326.123C189.866 325.4 189.923 324.659 190.127 323.964C190.589 322.412 190.801 320.806 191.238 319.244C191.898 316.884 192.604 314.545 193.443 312.241C193.856 311.116 194.269 309.976 193.916 308.734C193.845 308.487 193.867 308.216 193.867 307.955C193.867 306.381 193.648 304.829 193.366 303.287C193.309 302.981 193.263 302.667 193.267 302.353C193.295 299.626 192.466 296.976 192.544 294.246C191.969 291.582 192.039 288.845 191.612 286.16C191.401 284.823 191.358 283.458 191.217 282.11C191.09 280.918 190.868 279.729 190.805 278.533C190.688 276.388 190.409 274.257 189.975 272.169C189.513 269.957 189.333 267.72 189.115 265.491C188.804 262.319 188.663 259.13 188.381 255.959C187.965 251.26 188.307 246.554 188.148 241.851C188.148 241.749 188.183 241.646 188.205 241.544C190.004 241.167 191.852 241.417 193.648 241.188C195.158 240.994 196.675 241.096 198.16 240.888C199.874 240.648 201.603 240.789 203.296 240.563C204.962 240.341 206.637 240.472 208.278 240.253C209.788 240.052 211.304 240.151 212.786 239.939C214.137 239.745 215.499 239.833 216.825 239.629C218.177 239.42 219.528 239.47 220.868 239.329C222.004 239.209 223.133 239.029 224.283 239.015C224.632 239.011 224.982 238.824 225.331 238.722C225.61 238.637 225.765 238.45 225.786 238.161C225.811 237.759 225.606 237.367 225.271 237.286C225.028 237.226 224.731 237.173 224.509 237.254C223.747 237.533 222.964 237.473 222.184 237.473C211.633 237.473 201.081 237.473 190.529 237.473C189.852 237.473 189.171 237.494 188.494 237.508C188.494 237.508 142.192 232.654 131.164 230.178C120.136 227.701 65.1201 215.185 65.1201 215.185L64.4675 215.065L64.5239 213.336L64.5133 213.34ZM200.27 320.034C200.375 320.034 200.481 320.034 200.584 320.044C200.478 320.037 200.372 320.034 200.27 320.034ZM192.159 319.67C192.808 319.745 193.454 319.808 194.103 319.861C193.454 319.808 192.805 319.745 192.159 319.67C192.117 319.667 192.078 319.642 192.018 319.596C192.078 319.642 192.12 319.667 192.159 319.67ZM192.392 319.395C193.002 319.388 193.542 319.381 194.082 319.385C193.542 319.385 193.002 319.388 192.392 319.395ZM204.598 319.692C204.418 319.843 204.256 319.917 204.111 319.96C203.868 320.027 203.67 319.995 203.494 320.062C203.116 320.207 202.735 320.284 202.354 320.295C202.735 320.284 203.113 320.207 203.494 320.062C203.67 319.995 203.871 320.027 204.111 319.96C204.256 319.921 204.418 319.847 204.598 319.692Z" fill="#6A6D66"/>
<path d="M383.488 218.388C382.656 218.36 381.82 218.353 380.987 218.349C378.832 218.342 376.736 218.049 374.729 217.21C373.914 216.867 373.06 216.62 372.221 216.342C370.344 215.714 368.46 215.118 366.647 214.303C365.126 213.618 363.57 213.012 362.008 212.44C357.605 210.835 353.185 209.272 348.775 207.674C347.551 207.229 346.351 206.729 345.141 206.242" fill="#F6BB92"/>
<path d="M341.246 204.866C340.308 204.555 339.355 204.28 338.435 203.928C336.54 203.201 334.572 202.665 332.734 201.79C332.579 201.769 332.416 201.769 332.275 201.719C330.077 200.932 327.887 200.132 325.685 199.352C325.036 199.123 324.482 198.773 324.013 198.283C323.554 198.576 323.082 198.371 322.665 198.227C320.743 197.556 318.788 197.235 316.742 197.2C315.716 197.182 314.714 197.059 313.673 197.218C312.759 197.355 311.814 197.271 310.879 197.281C310.442 197.306 310.004 197.327 309.563 197.352C309.535 197.553 309.581 197.803 309.359 197.906C308.981 198.078 308.59 198.22 308.198 198.364C307.411 198.657 306.642 198.982 305.979 199.511C304.504 200.682 303.114 201.945 301.802 203.296C301.248 203.868 300.821 204.488 300.55 205.25C298.99 209.628 298.733 214.01 300.458 218.406C300.649 218.889 300.903 219.348 301.164 219.796C301.453 220.289 301.777 220.762 302.098 221.238C303.072 222.685 304.226 223.895 305.841 224.699C308.187 225.87 310.583 226.893 313.098 227.613C315.254 228.23 317.42 228.788 319.66 229.074C321.417 229.299 323.149 229.702 324.891 230.026C325.128 230.072 325.202 230.28 325.308 230.457C325.71 230.372 326.094 230.224 326.525 230.312C328.193 230.643 329.866 230.954 331.534 231.286C331.672 231.314 331.788 231.448 331.915 231.536C332.332 231.554 332.769 231.49 333.161 231.6C334.663 232.023 336.219 232.153 337.74 232.467C339.719 232.877 341.701 233.254 343.684 233.646C345.363 233.977 347.035 234.334 348.718 234.64C351.315 235.12 353.922 235.551 356.518 236.034C358.455 236.394 360.377 236.807 362.311 237.18C363.478 237.406 364.671 237.537 365.821 237.833C366.759 238.073 367.747 238.221 368.59 238.757C369.73 238.877 370.88 238.941 372.005 239.128C373.808 239.428 375.628 239.526 377.438 239.728C381.717 240.207 386 239.844 390.272 240.045C399.779 240.493 409.294 240.091 418.798 240.398C423.447 240.549 428.093 240.465 432.739 240.627C434.397 240.684 435.943 240.271 437.498 239.837C438.603 239.526 439.679 239.138 440.814 238.923C441.467 238.8 442.099 238.489 442.709 238.196C446.152 236.553 449.585 234.887 453.024 233.24C453.684 232.922 454.361 232.647 455.028 232.351C455.479 232.15 455.786 231.878 455.853 231.321C455.987 230.238 456.227 229.165 456.386 228.086C456.651 226.283 456.834 224.463 457.159 222.671C457.3 221.898 457.035 221.228 456.929 220.522C456.859 220.06 456.393 219.891 455.952 219.898C454.961 219.912 453.945 219.841 452.985 220.035C451.751 220.286 450.498 220.293 449.26 220.466C447.355 220.734 445.436 220.953 443.517 221.115C441.901 221.253 440.306 221.485 438.723 221.789C437.597 222 436.479 222.269 435.364 222.523C435.061 222.593 434.768 222.748 434.447 222.66C432.161 222.046 429.79 222.184 427.469 221.87C425.56 221.609 423.62 221.619 421.694 221.464C419.877 221.32 418.064 221.122 416.251 220.949C416.095 220.935 415.937 220.9 415.781 220.907C413.792 220.981 411.816 220.688 409.851 220.476C407.985 220.275 406.091 220.413 404.245 219.993C404.094 219.958 403.935 219.961 403.776 219.951C401.797 219.827 399.808 219.803 397.846 219.549C396.086 219.319 394.297 219.436 392.558 219.044C392.456 219.023 392.35 219.016 392.247 219.019C390.307 219.101 388.406 218.66 386.469 218.638" fill="#F6BB92"/>
</svg>
