<svg width="497" height="497" viewBox="0 0 497 497" fill="none" xmlns="http://www.w3.org/2000/svg">
<path d="M453.116 203.369C416.138 197.887 398.08 199.607 398.08 199.607C376.151 195.307 334.874 193.05 326.382 193.802C317.89 194.555 317.568 211.753 326.06 213.151C334.444 214.441 342.076 214.656 350.568 215.408C359.06 216.053 389.48 213.581 396.897 213.473C397.972 213.473 452.363 212.613 452.363 212.613L453.116 203.369Z" fill="#ECAD83"/>
<path d="M453.116 203.37C453.116 203.37 456.77 201.006 461.07 201.328C465.37 201.651 467.95 203.693 467.95 203.693L479.236 205.628L479.989 207.133L468.595 208.1C466.767 210.572 464.295 215.195 460.963 215.302C458.275 215.41 452.363 212.507 452.363 212.507L453.116 203.37Z" fill="#ECAD83"/>
<path d="M143.598 195.929C131.507 192.889 119.415 192.998 108.727 192.02C109.591 195.712 108.296 210.371 107 213.52C110.779 214.281 140.467 219.493 140.467 219.493C149.752 221.773 204.811 232.415 222.301 231.98C226.835 232.089 230.829 231.654 234.176 231.22C240.654 230.243 233.96 191.477 233.96 191.586C228.886 189.523 220.573 188.546 213.232 189.197C201.896 190.174 195.311 193.975 193.691 194.083C180.628 195.278 173.827 196.255 169.292 196.364C160.44 196.364 143.598 195.929 143.598 195.929Z" fill="#333333"/>
<path d="M16.1393 192.45C17.6369 188.407 35.9293 192.243 39.2455 191.31C40.8501 190.791 42.6686 188.718 46.3057 189.029C51.2265 189.443 53.4729 193.487 55.1845 193.487C64.0633 193.798 89.095 191.413 99.8993 191.932C102.36 192.035 104.927 192.243 107.601 192.45C118.192 193.487 110.597 213.704 106.746 212.978C91.5554 210.075 54.2217 204.373 48.8731 202.714C48.8731 202.714 31.9713 200.433 28.0133 199.5C25.6599 198.982 14.6417 196.493 16.1393 192.45Z" fill="#ECAD83"/>
<path d="M311.456 233.949C324.767 234.688 328.771 226.771 343.704 221.281C345.544 220.542 351.171 213.047 351.712 208.93C352.362 204.285 352.145 199.535 348.574 195.524C345.869 192.462 325.524 188.345 311.781 189.084C298.038 189.823 282.779 192.779 262.759 193.623C245.228 194.362 233 191.407 233 191.407L234.623 231.626C267.413 232.365 284.186 227.826 297.388 228.776C297.388 228.776 304.963 233.632 311.456 233.949Z" fill="#FF8AA0"/>
<path d="M349 219.193C349 219.193 358.857 216.821 367.536 215.526L370 201.291C361.214 203.232 349.964 199.997 349.964 199.997C349.964 213.585 344.821 218.654 343 221.997L349 219.193Z" fill="#ECAD83"/>
<path d="M387.742 221.336C394.199 223.559 398.719 219.43 401.194 216.784C408.727 208.314 407.651 201.961 405.069 194.233C401.625 183.963 372.999 188.939 368.694 191.268C357.502 197.409 358.147 215.301 360.192 221.971C362.452 229.382 364.389 226.735 367.295 225.571C367.402 225.571 367.941 225.783 367.941 225.783C369.017 225.465 370.308 224.936 371.922 225.147C371.922 225.147 372.783 224.618 373.214 224.406C373.537 224.3 373.752 224.195 373.967 224.618C374.72 225.571 375.366 226.418 376.012 226.735C377.949 227.582 384.729 220.383 387.742 221.336Z" fill="#F6BB92"/>
<path d="M370.02 220.997C370.02 220.997 369.779 221.891 370.98 225.466C371.34 225.801 372.061 226.472 372.901 225.466C373.501 224.684 371.22 223.343 370.02 220.997Z" fill="#D6876B"/>
<path d="M369.604 220.997C369.604 220.997 368.911 222.22 369.01 225.379C369.109 225.787 369.307 225.991 369.406 225.991C369.95 226.092 370 224.971 370 224.971C369.505 221.812 369.604 220.997 369.604 220.997Z" fill="#CC785E"/>
<path d="M406.046 192.439C402.002 180.047 379.086 169.44 363.844 193.069C362.807 194.645 361.977 197.795 366.125 200.631C369.028 202.731 372.243 203.676 372.243 203.676C373.176 203.991 374.316 204.201 375.457 204.516C376.701 204.831 382.508 202.101 383.13 203.256C388.937 214.808 396.921 217.854 400.135 216.804C407.29 212.918 410.297 205.672 406.046 192.439Z" fill="#602F0F"/>
<path d="M375.105 200.859C370.021 204.493 370.562 206.778 371.968 209.997L380.08 205.428L383 202.624C381.81 199.509 380.188 197.224 375.105 200.859Z" fill="#F6BB92"/>
<path d="M381.286 178.3C382.881 174.53 389.369 173.883 395.751 176.9C402.239 179.916 406.175 185.41 404.686 189.181C403.09 192.952 397.985 192.736 391.497 189.72C385.008 186.811 379.69 182.071 381.286 178.3Z" fill="#4C230C"/>
<path d="M382.281 204.981C383.248 204.443 384.216 204.121 384.968 203.906C386.043 203.583 386.796 203.476 386.796 203.476L384.323 200.251C383.786 200.466 383.248 200.573 382.711 200.788C382.711 200.788 382.926 201.111 383.463 201.756C383.463 201.756 383.463 201.648 383.356 201.648C382.711 202.401 381.636 203.476 379.916 204.658C379.809 204.766 379.271 206.593 382.281 204.981Z" fill="#602F0F"/>
<path d="M380.992 176.388C382.604 172.411 389.806 171.873 396.901 175.098C404.103 178.43 408.51 184.343 406.897 188.32C405.285 192.297 399.588 191.975 392.493 188.642C385.291 185.417 379.272 180.365 380.992 176.388Z" fill="#602F0F"/>
<path d="M392.018 175.162C392.261 174.731 394.444 175.162 396.87 176.242C399.296 177.213 401.116 178.4 400.994 178.832C400.752 179.263 399.054 178.832 396.506 177.752C393.959 176.781 391.776 175.594 392.018 175.162Z" fill="#4C230C"/>
<path d="M453.008 199.283C415.923 195.198 397.865 197.563 397.865 197.563C375.721 194.123 334.444 193.371 325.952 194.446C317.568 195.52 317.783 212.719 326.275 213.794C334.767 214.762 342.399 214.762 350.89 215.084C359.382 215.407 389.695 211.859 397.112 211.322C398.187 211.214 452.471 208.312 452.471 208.312L453.008 199.283Z" fill="#F6BB92"/>
<path d="M453.008 199.283C453.008 199.283 456.555 196.811 460.855 197.026C465.155 197.241 467.735 199.068 467.735 199.068L479.129 200.573L479.881 202.078L468.595 203.475C466.875 205.948 464.617 210.677 461.285 211C458.598 211.215 452.578 208.528 452.578 208.528L453.008 199.283Z" fill="#F6BB92"/>
<path d="M233.987 191.748C213.894 187.752 204.858 190.776 199.543 198.983C199.543 198.983 194.759 206.975 194.121 214.318C192.845 229.437 202.094 238.292 202.094 238.292C202.094 238.292 235.262 252.439 235.794 244.664C236.113 238.292 236.538 232.461 236.963 227.277C237.388 221.121 233.987 191.748 233.987 191.748Z" fill="#3D3C3C"/>
<path d="M230.022 409.805C225.665 408.842 212.703 409.805 211.069 409.698C207.148 409.591 203.336 407.452 204.098 403.815C204.643 401.034 206.059 398.574 205.841 396.862C204.969 387.984 205.514 361.351 204.643 350.654C204.425 348.194 204.316 345.627 204.207 342.953C203.88 332.363 226.101 338.353 225.774 342.204C224.685 357.607 217.496 393.974 216.407 399.537C216.407 399.537 237.429 400.82 236.993 404.778C236.775 407.238 234.488 410.875 230.022 409.805Z" fill="#F6BB92"/>
<path d="M206.397 307.285C204.881 319.606 204.231 331.283 204.556 341.997C208.13 340.711 222.752 340.283 226.001 341.247C226.217 337.39 230.116 307.714 230.116 307.714C231.308 298.286 238.998 243.004 236.507 225.755C236.073 221.255 235.207 217.398 234.34 214.184C232.607 207.863 197.408 211.506 196 220.184C197.191 239.04 206.289 273.644 207.48 282.322C208.672 290.893 206.397 307.285 206.397 307.285Z" fill="#3D3C3C"/>
</svg>
