<svg width="500" height="500" viewBox="0 0 500 500" fill="none" xmlns="http://www.w3.org/2000/svg">
<path d="M240.875 133.724C247.977 134.86 254.926 134.272 262 133.224C276.52 132.233 289.313 136.011 300.375 145.599C301.943 147.114 303.487 148.654 305 150.224C305.845 151.094 305.845 151.094 306.707 151.981C316.061 162.989 320.102 180.238 323.389 193.909C324.052 196.64 324.752 199.36 325.458 202.08C325.824 203.527 326.172 204.978 326.503 206.433C329.623 219.905 335.848 227.252 346.038 236.375C349.284 239.434 352.128 242.817 355 246.224C355.82 247.162 356.64 248.1 357.484 249.067C369.475 263.126 378.403 278.251 386.899 294.601C387.419 295.602 387.419 295.602 387.95 296.622C388.635 297.941 389.318 299.261 389.999 300.581C392.701 305.777 395.69 310.734 398.856 315.664C400.206 318.685 399.979 320.117 399 323.224C396.558 323.961 394.114 324.694 391.668 325.419C389.517 326.068 387.381 326.763 385.25 327.474C381.599 328.316 379.609 328.179 376 327.224C364.777 318.552 356.475 305.57 348.167 294.219C339.768 282.773 331.198 272.014 319.812 263.395C313.733 258.701 307.849 253.763 301.958 248.836C300.331 247.496 298.668 246.199 296.996 244.915C289.636 239.006 285.957 231.699 282.02 223.305C281.106 221.44 280.06 219.642 279 217.856C271.806 204.721 276.315 189.011 280 175.224C278.668 174.761 277.334 174.304 276 173.849C275.257 173.593 274.515 173.338 273.75 173.075C265.726 170.59 258.719 169.838 250.312 169.849C249.158 169.848 248.003 169.847 246.814 169.847C238.462 169.955 231.735 170.981 224 174.224C222.673 174.583 221.342 174.927 220 175.224C220.193 176.109 220.387 176.995 220.586 177.907C221.294 181.276 221.945 184.649 222.571 188.034C222.983 190.138 223.468 192.215 223.961 194.302C226.445 206.26 222.823 214.504 217.169 225.044C216.172 226.904 215.232 228.793 214.305 230.688C209.589 240.081 202.739 245.545 194.55 251.887C188.198 256.806 182.094 261.991 176 267.224C175.238 267.86 174.476 268.497 173.691 269.153C165.454 276.122 158.924 284.433 152.562 293.099C131.092 322.011 131.092 322.011 122 328.224C116.169 328.967 110.28 326.473 105 324.224C104.01 323.832 103.02 323.44 102 323.036C101.34 322.768 100.68 322.5 100 322.224C100.519 317.317 102.124 313.762 104.625 309.599C107.703 304.338 110.644 299.034 113.441 293.618C123.088 274.973 133.773 258.15 148.395 242.942C151.08 240.14 153.604 237.242 156.111 234.281C158 232.224 158 232.224 160.346 230.143C167.502 223.698 170.329 217.779 172.875 208.599C173.247 207.358 173.618 206.118 174.001 204.84C176.254 197.222 178.222 189.553 180.051 181.825C184.681 164.258 192.119 148.969 208.125 139.286C218.072 133.834 229.618 131.766 240.875 133.724Z" fill="#6A6D66"/>
<path d="M249.687 168.849C251.419 168.849 251.419 168.849 253.186 168.849C263.164 168.983 271.09 170.624 280 175.224C279.498 179.726 278.839 184.114 277.929 188.552C275.005 204.13 277.076 213.659 285 227.224C286.147 229.327 287.293 231.431 288.437 233.536C288.913 234.361 289.388 235.186 289.878 236.036C291 238.224 291 238.224 291.875 242.036C293.284 246.031 294.956 247.026 298.367 249.361C301.844 251.821 305.108 254.493 308.375 257.224C308.994 257.722 309.613 258.221 310.251 258.734C314.036 261.916 315.9 264.242 317 269.224C317.202 270.023 317.404 270.822 317.613 271.646C319.374 283.388 317.759 295.839 316.711 307.58C315.829 317.521 316.045 324.284 319.955 333.439C322.601 339.953 321.524 343.278 318.937 349.536C318.575 350.419 318.213 351.302 317.839 352.212C317.562 352.876 317.285 353.54 317 354.224C308.602 354.346 300.357 354.067 292 353.224C289.715 347.531 288.41 343.355 290 337.224C290.488 336.235 290.977 335.246 291.48 334.228C293.638 329.269 293.825 324.127 294.187 318.786C294.261 317.726 294.335 316.666 294.411 315.573C294.552 313.446 294.686 311.318 294.812 309.189C294.977 306.579 295.198 303.981 295.437 301.376C296.007 294.093 296.007 294.093 293.128 287.579C290.852 285.505 288.604 283.858 286 282.224C285.345 281.642 284.69 281.061 284.015 280.462C282.044 278.984 282.044 278.984 279.546 279.384C276.916 280.251 274.66 281.299 272.25 282.661C271.082 283.309 271.082 283.309 269.89 283.97C267.858 285.092 267.858 285.092 267 287.224C264.714 286.081 262.473 284.925 260.25 283.661C254.272 281.017 249.09 280.708 242.89 282.478C239.971 283.63 237.541 285.408 235 287.224C233 287.224 233 287.224 231.652 285.896C231.107 285.344 230.561 284.792 230 284.224C228.554 283.255 227.072 282.339 225.562 281.474C224.8 281.025 224.038 280.577 223.253 280.114C221.104 279.089 221.104 279.089 219.07 279.302C216.06 280.642 213.824 282.604 211.312 284.724C210.339 285.539 209.366 286.353 208.363 287.193C206.642 288.666 206.642 288.666 205 290.224C204.424 299.665 205.07 309.18 205.75 318.599C205.811 319.596 205.873 320.593 205.936 321.621C206.418 327.637 207.602 332.498 210.181 337.969C211.838 342.533 210.772 346.97 209.242 351.435C208 353.224 208 353.224 205.89 353.833C205.019 353.88 204.147 353.926 203.25 353.974C202.279 354.029 201.308 354.085 200.308 354.142C194.537 354.285 188.772 354.3 183 354.224C176.996 342.317 176.996 342.317 179.109 335.4C180 333.224 180 333.224 181.078 331.079C184.798 323.389 183.899 316.487 183.218 308.254C182.811 302.607 182.594 296.952 182.39 291.294C182.314 289.267 182.222 287.24 182.13 285.213C181.494 267.891 181.494 267.891 185.162 262.523C186.566 261.023 188.018 259.753 189.625 258.474C190.43 257.785 190.43 257.785 191.251 257.083C194.844 254.046 198.575 251.186 202.378 248.419C206.494 245.521 206.494 245.521 208.335 241.099C209.261 237.091 211.202 233.865 213.187 230.286C214.001 228.748 214.812 227.209 215.621 225.669C217.028 223.004 218.479 220.427 220.035 217.841C225.756 207.232 223.485 197.369 221.46 185.908C220.851 182.357 220.414 178.802 220 175.224C221.329 174.59 222.663 173.967 224 173.349C224.742 173.001 225.485 172.653 226.25 172.294C234.101 169.238 241.326 168.838 249.687 168.849Z" fill="#8A8AD8"/>
<path d="M214.269 233.946C221.478 234.91 226.514 236.126 231.312 241.911C234.198 246.04 234.914 249.265 235 254.224C235.083 254.864 235.167 255.505 235.253 256.165C235.753 261.767 234.11 266.42 232.187 271.599C231.927 272.301 231.666 273.004 231.398 273.728C230.064 277.125 228.914 279.93 226 282.224C225.257 281.708 224.515 281.192 223.75 280.661C221.246 279.046 221.246 279.046 219.183 279.353C216.063 280.597 213.873 282.563 211.312 284.724C210.339 285.538 209.366 286.353 208.363 287.192C206.642 288.666 206.642 288.666 205 290.224C204.424 299.665 205.07 309.18 205.75 318.599C205.842 320.094 205.842 320.094 205.936 321.62C206.418 327.637 207.602 332.498 210.181 337.969C211.838 342.533 210.772 346.97 209.242 351.435C208 353.224 208 353.224 205.89 353.833C205.019 353.879 204.147 353.926 203.25 353.974C202.279 354.029 201.308 354.084 200.308 354.142C194.537 354.285 188.772 354.299 183 354.224C176.996 342.317 176.996 342.317 179.109 335.399C180 333.224 180 333.224 181.078 331.079C184.798 323.389 183.899 316.487 183.218 308.253C182.811 302.606 182.594 296.952 182.39 291.294C182.314 289.267 182.222 287.24 182.13 285.213C181.494 267.891 181.494 267.891 185.162 262.522C186.566 261.022 188.018 259.753 189.625 258.474C190.161 258.015 190.698 257.556 191.251 257.083C194.844 254.046 198.575 251.186 202.378 248.419C206.62 245.291 208.1 243.367 209 238.224C211.216 234.319 211.216 234.319 214.269 233.946Z" fill="#F6BB93"/>
<path d="M289 235.224C290.961 237.746 291.941 239.459 292.187 242.661C293.315 246.217 295.337 247.19 298.332 249.29C301.797 251.802 305.09 254.482 308.375 257.224C308.994 257.722 309.613 258.221 310.251 258.734C314.036 261.916 315.9 264.242 317 269.224C317.202 270.023 317.405 270.822 317.613 271.646C319.375 283.389 317.759 295.839 316.712 307.58C315.829 317.521 316.045 324.284 319.955 333.439C322.602 339.953 321.524 343.278 318.937 349.536C318.575 350.419 318.213 351.302 317.84 352.212C317.563 352.876 317.285 353.54 317 354.224C308.602 354.346 300.357 354.067 292 353.224C289.715 347.531 288.41 343.355 290 337.224C290.488 336.235 290.977 335.247 291.48 334.228C293.638 329.269 293.825 324.128 294.187 318.786C294.261 317.726 294.335 316.666 294.411 315.574C294.552 313.446 294.686 311.318 294.812 309.189C294.977 306.579 295.199 303.981 295.437 301.376C296.007 294.093 296.007 294.093 293.129 287.579C290.852 285.505 288.604 283.858 286 282.224C285.293 281.659 284.587 281.095 283.859 280.513C282.032 278.958 282.032 278.958 279.5 279.411C277.18 280.166 275.163 281.11 273 282.224C266.564 270.04 263.153 260.356 266.176 246.591C267.875 241.712 271.011 238.318 275.5 235.849C284.624 233.568 284.624 233.568 289 235.224Z" fill="#F6BB93"/>
<path d="M264.23 308.458C271.128 312.855 275.858 318.205 278 326.224C279.05 334.591 277.763 341.804 272.687 348.599C269.83 351.389 267.85 352.328 264 353.224C263.907 355.049 263.907 355.049 263.812 356.911C263.382 360.375 262.968 361.264 260.687 364.161C256.122 367.665 251.677 367.796 246 367.224C241.636 365.936 239.621 365.145 237.062 361.349C236.053 358.382 235.726 356.321 236 353.224C235.463 353.162 234.927 353.1 234.375 353.036C229.607 351.405 226.683 348.379 224.187 344.161C221.499 337.512 220.705 330.523 222.8 323.563C226.716 314.858 233.769 308.285 242.695 304.856C250.896 302.605 256.879 304.419 264.23 308.458Z" fill="#7B4922"/>
<path d="M249.688 168.849C251.419 168.849 251.419 168.849 253.186 168.849C263.164 168.983 271.091 170.624 280 175.224C279.226 181.545 278.383 187.855 277.5 194.161C277.37 195.118 277.24 196.076 277.105 197.062C276.978 197.97 276.85 198.878 276.719 199.814C276.605 200.637 276.491 201.461 276.373 202.31C276 204.224 276 204.224 275 205.224C269.252 206.133 263.639 206.384 257.828 206.392C256.983 206.395 256.138 206.398 255.268 206.402C253.497 206.407 251.725 206.409 249.954 206.409C247.244 206.411 244.534 206.43 241.824 206.448C240.096 206.451 238.368 206.453 236.641 206.454C235.833 206.461 235.026 206.469 234.194 206.476C226.569 206.445 226.569 206.445 224 204.224C223.179 201.765 223.179 201.765 222.734 198.7C222.567 197.597 222.399 196.494 222.227 195.357C222.069 194.199 221.912 193.041 221.75 191.849C221.577 190.699 221.405 189.549 221.227 188.364C220.575 183.929 220 179.713 220 175.224C221.329 174.59 222.664 173.967 224 173.349C224.743 173.001 225.485 172.653 226.25 172.294C234.101 169.238 241.326 168.838 249.688 168.849Z" fill="#F5BA92"/>
<path d="M265.602 285.614C267.686 288.013 267.057 290.106 267 293.223C268.03 296.349 268.03 296.349 269.438 299.473C271.735 305.126 272.849 310.139 273 316.223C272.539 315.848 272.077 315.473 271.602 315.087C264.481 309.5 257.066 304.164 247.648 304.669C239.801 306.312 232.771 310.773 227 316.223C227.182 308.887 229.023 303.016 231.941 296.302C233.196 293.263 233.196 293.263 232.863 290.04C233 287.223 233 287.223 234.977 285.36C246.1 279.274 254.494 279.204 265.602 285.614Z" fill="#F6BB92"/>
<path d="M400 320.224C403.293 323.884 404.363 327.907 405.687 332.536C405.912 333.27 406.137 334.004 406.369 334.761C409.495 345.47 409.495 345.47 406.691 350.634C402.323 353.214 397.909 352.76 392.937 352.661C391.428 352.672 391.428 352.672 389.889 352.683C382.58 352.619 382.58 352.619 380.208 351.002C378.612 348.652 378.656 347.163 378.707 344.337C378.717 343.399 378.726 342.461 378.736 341.495C378.761 340.519 378.787 339.542 378.812 338.536C378.826 337.548 378.84 336.56 378.853 335.542C378.889 333.102 378.938 330.663 379 328.224C385.006 326.411 391.019 324.64 397.066 322.97C399.193 322.398 399.193 322.398 400 320.224Z" fill="#F6BB92"/>
<path d="M99.9999 320.224C100.66 320.884 101.32 321.544 102 322.224C104.085 323.02 104.085 323.02 106.5 323.661C111.682 325.133 116.842 326.668 122 328.224C122.087 331.661 122.14 335.098 122.187 338.536C122.213 339.513 122.238 340.489 122.264 341.495C122.273 342.433 122.283 343.371 122.293 344.337C122.309 345.201 122.324 346.065 122.34 346.955C122 349.224 122 349.224 120.792 351.002C117.119 353.506 112.355 352.691 108.062 352.661C106.559 352.691 106.559 352.691 105.025 352.722C97.8349 352.717 97.8349 352.717 94.3085 350.634C91.8322 346.073 92.7557 341.778 94.0233 336.962C94.4641 335.484 94.9147 334.008 95.3749 332.536C95.5966 331.79 95.8183 331.045 96.0468 330.276C97.1119 326.765 98.1862 323.436 99.9999 320.224Z" fill="#F6BB92"/>
<path d="M261 343.224C263.313 345.342 265.454 347.481 267 350.224C266.67 351.214 266.34 352.204 266 353.224C262.169 351.663 259.892 349.116 257 346.224C252.635 344.769 248.365 344.32 244.027 345.978C240.476 347.9 238.312 349.987 236 353.224C235.01 353.224 234.02 353.224 233 353.224C233.897 348.434 236.49 345.487 240 342.224C247.045 338.701 254.31 339.383 261 343.224Z" fill="#6D411D"/>
</svg>
