<svg width="500" height="500" viewBox="0 0 500 500" fill="none" xmlns="http://www.w3.org/2000/svg">
<path d="M241.375 133.724C248.477 134.86 255.426 134.272 262.5 133.224C277.02 132.233 289.813 136.011 300.875 145.599C302.443 147.114 303.987 148.654 305.5 150.224C306.345 151.094 306.345 151.094 307.207 151.981C316.561 162.989 320.602 180.238 323.889 193.909C324.552 196.64 325.252 199.36 325.958 202.08C326.324 203.527 326.672 204.978 327.003 206.433C330.123 219.905 336.348 227.252 346.538 236.375C349.784 239.434 352.628 242.817 355.5 246.224C356.32 247.162 357.14 248.1 357.984 249.067C369.975 263.126 378.903 278.251 387.399 294.601C387.919 295.602 387.919 295.602 388.45 296.622C389.135 297.941 389.818 299.261 390.499 300.581C393.201 305.777 396.19 310.734 399.356 315.664C400.706 318.685 400.479 320.117 399.5 323.224C397.058 323.961 394.614 324.694 392.168 325.419C390.017 326.068 387.881 326.763 385.75 327.474C382.099 328.316 380.109 328.179 376.5 327.224C365.277 318.552 356.975 305.57 348.667 294.219C340.091 282.532 331.325 271.638 319.676 262.864C317.245 261.031 314.871 259.134 312.5 257.224C312.39 258.237 312.281 259.25 312.168 260.294C312.008 261.645 311.848 262.997 311.688 264.349C311.582 265.346 311.582 265.346 311.475 266.364C310.812 271.774 309.622 276.413 305.375 280.036C299.9 282.297 294.892 283.041 289.312 280.786C288.721 280.499 288.129 280.211 287.52 279.915C283.524 278.547 280.406 278.843 276.543 280.466C275.601 281.005 274.658 281.543 273.688 282.099C272.732 282.632 271.777 283.166 270.793 283.716C268.393 285.019 268.393 285.019 267.5 287.224C265.215 286.081 262.973 284.924 260.75 283.661C254.772 281.017 249.59 280.708 243.391 282.477C240.471 283.629 238.042 285.408 235.5 287.224C233.5 287.224 233.5 287.224 232.133 285.895C231.594 285.344 231.055 284.792 230.5 284.224C226.13 281.029 222.278 278.741 216.75 279.286C214.257 279.735 212.234 280.331 209.875 281.286C205.406 283.05 201.674 282.675 197.25 280.974C193.703 278.716 191.921 276.768 190.805 272.673C190.592 271.306 190.592 271.306 190.375 269.911C190.228 269.007 190.081 268.104 189.93 267.173C189.447 263.857 188.97 260.541 188.5 257.224C184.999 260.123 181.506 263.031 178.021 265.95C176.751 267.013 175.478 268.072 174.203 269.13C165.968 276.113 159.429 284.427 153.062 293.099C131.592 322.011 131.592 322.011 122.5 328.224C116.669 328.967 110.78 326.473 105.5 324.224C104.51 323.832 103.52 323.44 102.5 323.036C101.84 322.768 101.18 322.5 100.5 322.224C101.019 317.317 102.624 313.762 105.125 309.599C108.203 304.338 111.144 299.034 113.941 293.618C123.588 274.973 134.273 258.15 148.895 242.942C151.58 240.14 154.104 237.242 156.611 234.281C158.5 232.224 158.5 232.224 160.846 230.143C168.002 223.698 170.829 217.779 173.375 208.599C173.747 207.358 174.118 206.118 174.501 204.84C176.754 197.222 178.722 189.553 180.551 181.825C185.181 164.258 192.619 148.969 208.625 139.286C218.572 133.834 230.118 131.766 241.375 133.724Z" fill="#6B6E67"/>
<path d="M250.438 168.911C252.131 168.887 252.131 168.887 253.858 168.862C261.951 168.858 268.679 169.676 275.5 174.224C280.458 173.926 284.713 172.548 289.289 170.747C293.508 169.748 297.439 171.25 301.094 173.388C307.537 178.626 307.496 186.656 308.375 194.396C308.585 196.463 308.793 198.531 309 200.599C309.236 202.659 309.476 204.719 309.719 206.778C310.261 211.43 310.764 216.084 311.241 220.742C311.495 223.174 311.775 225.602 312.058 228.031C313.738 243.074 315.337 264.731 307.5 278.224C303.461 281.669 298.694 282.406 293.5 282.224C291.384 281.62 289.497 280.876 287.52 279.915C283.525 278.547 280.406 278.843 276.543 280.466C275.601 281.005 274.659 281.543 273.688 282.099C272.733 282.632 271.777 283.166 270.793 283.716C268.394 285.019 268.394 285.019 267.5 287.224C265.215 286.081 262.974 284.924 260.75 283.661C254.772 281.017 249.591 280.708 243.391 282.478C240.472 283.63 238.042 285.408 235.5 287.224C233.5 287.224 233.5 287.224 232.133 285.896C231.594 285.344 231.056 284.792 230.5 284.224C226.13 281.029 222.279 278.741 216.75 279.286C214.257 279.735 212.234 280.331 209.875 281.286C205.407 283.05 201.674 282.675 197.25 280.974C193.722 278.728 191.93 276.778 190.805 272.708C190.592 271.355 190.592 271.355 190.375 269.974C190.155 268.636 190.155 268.636 189.93 267.271C189.788 266.265 189.646 265.26 189.5 264.224C189.247 262.488 189.247 262.488 188.989 260.717C186.928 243.968 188.713 226.915 190.954 210.29C191.383 207.105 191.789 203.918 192.192 200.73C192.457 198.674 192.724 196.619 192.993 194.563C193.113 193.625 193.234 192.686 193.359 191.719C195.121 178.749 195.121 178.749 198.567 174.938C205.14 170.258 205.14 170.258 208.95 170.161C211.253 170.662 213.319 171.333 215.5 172.224C220.043 173.916 222.749 174.52 227.5 173.224C228.16 172.564 228.82 171.904 229.5 171.224C236.443 168.909 243.168 168.89 250.438 168.911Z" fill="#F6BA92"/>
<path d="M223.5 190.224C224.16 194.844 224.82 199.464 225.5 204.224C229.363 205.511 233.017 205.366 237.043 205.356C237.885 205.357 238.728 205.358 239.596 205.359C241.38 205.36 243.165 205.358 244.949 205.354C247.66 205.349 250.37 205.354 253.08 205.36C254.818 205.36 256.555 205.358 258.293 205.356C259.095 205.358 259.898 205.36 260.724 205.363C265.733 205.342 270.541 204.936 275.5 204.224C276.16 199.604 276.82 194.984 277.5 190.224C282.45 191.214 282.45 191.214 287.5 192.224C289.298 202.321 290.077 212.31 290.625 222.536C290.712 224.067 290.799 225.597 290.887 227.128C291.098 230.826 291.301 234.525 291.5 238.224C291.052 237.732 290.604 237.241 290.142 236.735C288.592 234.996 288.592 234.996 286.23 235.044C279.435 235.858 274.156 236.838 269.688 242.411C267.223 246.179 266.651 249.784 266.5 254.224C266.415 254.866 266.33 255.508 266.242 256.169C265.684 262.547 267.981 267.845 270.365 273.64C271.791 277.124 272.5 279.396 272.5 283.224C271.861 283.512 271.221 283.801 270.562 284.099C268.348 285.052 268.348 285.052 267.5 287.224C265.215 286.081 262.973 284.924 260.75 283.661C254.772 281.017 249.59 280.708 243.391 282.478C240.471 283.63 238.042 285.408 235.5 287.224C233.5 287.224 233.5 287.224 232.062 285.849C231.547 285.312 231.031 284.776 230.5 284.224C229.015 283.234 229.015 283.234 227.5 282.224C227.776 281.538 228.052 280.852 228.336 280.146C228.912 278.699 228.912 278.699 229.5 277.224C229.925 276.156 230.351 275.089 230.789 273.989C233.362 267.218 235.474 261.477 234.5 254.224C234.405 253.379 234.309 252.535 234.211 251.665C233.315 245.756 231.898 242.315 227.5 238.224C223.256 235.677 217.416 234.915 212.5 235.224C210.859 236.685 210.859 236.685 209.5 238.224C209.74 233.761 209.989 229.3 210.245 224.839C210.33 223.327 210.414 221.815 210.495 220.303C211.004 210.825 211.834 201.581 213.5 192.224C214.979 191.89 216.458 191.557 217.938 191.224C219.173 190.945 219.173 190.945 220.434 190.661C222.5 190.224 222.5 190.224 223.5 190.224Z" fill="#8A8AD8"/>
<path d="M264.73 308.458C271.628 312.855 276.358 318.205 278.5 326.224C279.55 334.591 278.263 341.804 273.187 348.599C270.33 351.389 268.35 352.328 264.5 353.224C264.407 355.049 264.407 355.049 264.312 356.911C263.882 360.375 263.468 361.264 261.187 364.161C256.622 367.665 252.177 367.796 246.5 367.224C242.136 365.936 240.121 365.145 237.562 361.349C236.553 358.382 236.226 356.321 236.5 353.224C235.963 353.162 235.427 353.1 234.875 353.036C230.107 351.405 227.183 348.379 224.687 344.161C221.999 337.512 221.205 330.523 223.3 323.563C227.216 314.858 234.269 308.285 243.195 304.856C251.396 302.605 257.379 304.419 264.73 308.458Z" fill="#7B4922"/>
<path d="M266.102 285.614C268.186 288.013 267.557 290.106 267.5 293.223C268.53 296.349 268.53 296.349 269.938 299.473C272.235 305.126 273.349 310.139 273.5 316.223C273.039 315.848 272.577 315.473 272.102 315.087C264.981 309.5 257.566 304.164 248.148 304.669C240.301 306.312 233.271 310.773 227.5 316.223C227.682 308.887 229.523 303.016 232.441 296.302C233.696 293.263 233.696 293.263 233.363 290.04C233.5 287.223 233.5 287.223 235.477 285.36C246.6 279.274 254.994 279.204 266.102 285.614Z" fill="#F6BB92"/>
<path d="M400.5 320.224C403.793 323.884 404.863 327.907 406.187 332.536C406.412 333.27 406.637 334.004 406.869 334.761C409.995 345.47 409.995 345.47 407.191 350.634C402.823 353.214 398.409 352.76 393.437 352.661C391.928 352.672 391.928 352.672 390.389 352.683C383.08 352.619 383.08 352.619 380.708 351.002C379.112 348.652 379.156 347.163 379.207 344.337C379.217 343.399 379.226 342.461 379.236 341.495C379.261 340.519 379.287 339.542 379.312 338.536C379.326 337.548 379.34 336.56 379.353 335.542C379.389 333.102 379.438 330.663 379.5 328.224C385.506 326.411 391.519 324.64 397.566 322.97C399.693 322.398 399.693 322.398 400.5 320.224Z" fill="#F6BB92"/>
<path d="M99.4999 320.224C100.16 320.884 100.82 321.544 101.5 322.224C103.585 323.02 103.585 323.02 106 323.661C111.182 325.133 116.342 326.668 121.5 328.224C121.587 331.661 121.64 335.098 121.687 338.536C121.713 339.513 121.738 340.489 121.764 341.495C121.773 342.433 121.783 343.371 121.793 344.337C121.809 345.201 121.824 346.065 121.84 346.955C121.5 349.224 121.5 349.224 120.292 351.002C116.619 353.506 111.855 352.691 107.562 352.661C106.059 352.691 106.059 352.691 104.525 352.722C97.3349 352.717 97.3349 352.717 93.8085 350.634C91.3322 346.073 92.2557 341.778 93.5233 336.962C93.9641 335.484 94.4147 334.008 94.8749 332.536C95.0966 331.79 95.3183 331.045 95.5468 330.276C96.6119 326.765 97.6862 323.436 99.4999 320.224Z" fill="#F6BB92"/>
<path d="M277.5 190.224C280.8 190.884 284.1 191.544 287.5 192.224C289.297 202.321 290.077 212.31 290.625 222.536C290.711 224.067 290.799 225.597 290.886 227.128C291.097 230.826 291.301 234.525 291.5 238.224C289.101 236.045 287.74 234.022 286.379 231.091C286 230.284 285.622 229.477 285.232 228.646C284.846 227.805 284.46 226.965 284.062 226.099C283.68 225.281 283.298 224.464 282.904 223.622C282.136 221.974 281.377 220.321 280.628 218.664C279.888 217.064 279.112 215.481 278.297 213.918C275.464 208.285 275.169 204.327 276.25 198.161C276.363 197.391 276.477 196.621 276.593 195.827C276.872 193.956 277.183 192.089 277.5 190.224Z" fill="#6C6E67"/>
<path d="M223.5 190.224C227.17 204.903 223.568 214.205 216.5 227.224C215.852 228.46 215.205 229.697 214.559 230.935C213.248 233.392 211.907 235.819 210.5 238.224C209.348 234.768 209.531 232.455 209.77 228.825C209.854 227.54 209.939 226.255 210.026 224.931C210.097 223.923 210.097 223.923 210.17 222.894C210.31 220.891 210.437 218.887 210.565 216.884C211.13 208.578 212.085 200.427 213.5 192.224C214.979 191.89 216.459 191.557 217.938 191.224C219.173 190.945 219.173 190.945 220.434 190.661C222.5 190.224 222.5 190.224 223.5 190.224Z" fill="#6C6E67"/>
<path d="M261.5 343.224C263.813 345.342 265.954 347.481 267.5 350.224C267.17 351.214 266.84 352.204 266.5 353.224C262.669 351.663 260.392 349.116 257.5 346.224C253.135 344.769 248.865 344.32 244.527 345.978C240.976 347.9 238.812 349.987 236.5 353.224C235.51 353.224 234.52 353.224 233.5 353.224C234.397 348.434 236.99 345.487 240.5 342.224C247.545 338.701 254.81 339.383 261.5 343.224Z" fill="#6D411D"/>
<path d="M221.5 175.224C222.49 175.224 223.48 175.224 224.5 175.224C224.736 181.002 224.368 185.737 222.5 191.224C221.51 191.224 220.52 191.224 219.5 191.224C219.641 188.932 219.788 186.64 219.938 184.349C220.019 183.072 220.1 181.796 220.184 180.481C220.5 177.224 220.5 177.224 221.5 175.224Z" fill="#E6AC84"/>
</svg>
