<svg width="500" height="500" viewBox="0 0 500 500" fill="none" xmlns="http://www.w3.org/2000/svg">
<path d="M210.12 237.212C197.984 247.478 187.789 259.685 176.182 270.48C166.234 279.723 157.485 290.059 148.524 300.22C143.832 305.547 140.022 311.65 135.012 316.8C131.308 320.61 127.745 324.491 124.076 328.336C121.713 329.077 119.843 327.631 117.761 327.031C111.729 325.373 105.696 323.715 99.7341 321.81C98.7463 317.294 100.934 313.414 102.486 309.462C110.353 289.389 121.536 271.256 134.907 254.393C143.409 243.704 152.475 233.614 162.812 224.653C163.27 224.265 163.694 223.736 164.223 223.454C170.079 220.385 172.372 215.128 174.101 209.025C177.911 195.655 182.215 182.425 186.413 169.16C193.045 148.099 207.474 136.352 229.276 133.6C233.333 133.071 237.426 133.247 241.447 134.235C246.563 135.505 251.643 135.399 256.793 134.552C273.727 131.73 288.756 135.399 301.103 147.782C306.818 153.497 310.628 160.376 313.062 168.067C318.707 186.094 324.351 204.157 329.996 222.184C330.913 225.077 332.395 227.44 335.076 229.31C341.92 234.108 347.6 240.246 353.28 246.279C361.288 254.816 368.767 263.883 375.576 273.337C385.595 287.237 395.226 301.49 400.376 318.141C400.835 319.587 400.094 320.646 400.023 321.88C393.038 323.891 386.018 325.902 378.998 327.842C377.234 328.336 375.47 328.901 373.6 328.76C368.202 321.775 363.122 314.543 357.407 307.804C350.669 299.902 343.578 292.317 337.157 284.203C329.008 273.902 319.836 264.447 312.18 253.758C305.054 243.845 297.787 234.037 290.131 224.512C288.685 222.713 287.344 221.302 284.875 221.619V221.69C285.228 221.09 284.663 220.984 284.346 220.737C281.665 217.986 278.983 215.234 276.302 212.482C276.055 212.306 275.844 212.165 275.597 211.988L275.632 212.024C275.456 211.6 275.279 211.177 275.103 210.754C274.962 210.577 274.785 210.366 274.644 210.189V210.224C274.856 208.602 273.409 207.508 273.233 205.991C274.644 197.207 276.055 188.422 277.466 179.638C277.996 176.322 277.572 175.687 274.291 174.699C264.096 171.665 253.654 170.748 243.07 171.489C236.791 171.912 230.617 173.147 224.584 175.017C222.679 175.616 221.762 176.71 222.115 178.756C223.667 187.505 225.184 196.29 226.701 205.039C226.666 205.356 226.666 205.709 226.63 206.026C226.348 207.826 224.761 209.166 224.725 211.071V211.106C224.584 211.248 224.443 211.389 224.302 211.53C223.385 212.553 222.609 213.717 221.55 214.564C215.87 219.009 213.225 225.077 211.849 231.921C211.531 233.685 211.143 235.59 210.12 237.212Z" fill="#696C65"/>
<path d="M210.12 237.212C211.143 235.554 211.531 233.649 211.919 231.815C213.295 224.971 215.941 218.903 221.621 214.458C222.679 213.611 223.491 212.447 224.373 211.424C224.514 211.283 224.655 211.142 224.796 211.001V210.965C226.313 209.731 227.654 208.355 228.147 206.379C230.617 206.485 231.852 204.439 233.474 203.169C237.179 200.241 240.671 197.101 242.118 192.268C242.788 190.01 243.952 187.893 245.081 185.812C246.069 183.977 247.515 182.778 249.844 182.813C253.548 182.849 255.77 184.26 257.04 187.858C258.063 190.751 259.122 193.644 259.792 196.607C261.062 202.252 266.601 203.416 269.988 206.838C270.129 207.014 270.587 206.873 270.905 206.908C271.222 207.367 271.54 207.826 271.857 208.249C272.034 208.39 272.669 208.284 272.88 208.425L272.422 208.708C272.457 208.99 272.563 208.637 272.845 208.672L273.057 208.849C273.198 208.99 273.163 209.484 273.339 209.625C273.48 209.766 273.657 209.942 273.798 210.083C274.821 210.718 274.997 211.071 275.667 211.953L275.632 211.918C275.879 212.094 276.091 212.235 276.338 212.412C279.019 215.163 281.7 217.915 284.381 220.667C284.416 221.055 284.452 221.478 284.91 221.619V221.549C289.038 232.344 291.719 243.633 295.952 254.393C297.081 257.251 298.034 260.214 298.422 263.213C298.881 266.917 297.187 270.057 294.718 272.738C290.132 277.677 283.781 278.911 277.714 280.675C275.385 281.346 272.916 281.628 270.517 282.051C269.988 281.205 269.247 280.464 268.894 279.546C265.966 271.327 263.99 262.895 264.625 254.076C264.907 249.807 265.684 245.679 268.682 242.363C269.282 242.822 269.458 243.457 269.635 244.127C270.658 248.466 272.704 252.417 274.045 256.651C274.468 257.991 275.491 258.838 277.079 258.274C278.49 257.78 278.525 256.827 278.102 255.522C276.549 250.971 274.856 246.455 272.739 242.151C272.281 241.199 271.822 240.176 270.517 240.105C269.211 235.837 268.012 231.462 265.013 228.04C260.251 222.572 255.312 217.315 250.514 211.918C249.738 211.036 249.314 211.106 248.574 211.918C246.139 214.599 243.529 217.139 241.2 219.856C236.438 225.429 230.899 230.51 229.065 238.094C228.888 238.835 228.218 239.435 229.276 239.999C227.901 240.141 227.054 241.058 226.56 242.222C224.62 246.879 222.468 251.465 221.409 256.439C221.162 257.533 221.268 258.168 222.291 258.662C223.385 259.226 224.126 258.803 224.62 257.921C225.466 256.474 226.278 254.993 226.913 253.405C228.465 249.595 230.441 245.891 230.899 241.693C234.709 245.75 235.097 250.971 235.38 256.086C235.873 265.294 233.51 273.902 229.347 282.051C227.477 281.769 225.572 281.487 223.702 281.205C217.246 280.252 211.567 277.571 206.416 273.655C202.994 271.08 202.077 267.693 202.888 263.671C204.546 255.487 207.051 247.514 209.591 239.576C209.838 238.871 209.944 238.059 210.12 237.212Z" fill="#F7BB92"/>
<path d="M229.276 240.035C228.218 239.505 228.888 238.87 229.065 238.13C230.899 230.58 236.438 225.465 241.2 219.891C243.529 217.139 246.175 214.634 248.574 211.953C249.314 211.106 249.738 211.071 250.514 211.953C255.347 217.351 260.286 222.607 265.013 228.075C268.012 231.497 269.211 235.872 270.517 240.14C269.635 240.67 269.282 241.657 268.682 242.433C265.719 245.785 264.943 249.913 264.625 254.146C264.025 262.965 265.966 271.362 268.894 279.617C269.211 280.534 269.952 281.31 270.517 282.122C269.282 283.956 267.2 284.485 265.472 285.579C264.378 285.508 263.461 284.979 262.508 284.415C257.922 281.663 252.983 280.252 247.621 280.816C242.929 281.31 238.872 283.427 234.991 285.932C233.122 284.662 230.793 284.062 229.347 282.157C233.51 274.008 235.873 265.4 235.379 256.192C235.097 251.041 234.709 245.855 230.899 241.798C230.899 240.74 230.476 240.035 229.276 240.035Z" fill="#8A8AD9"/>
<path d="M271.363 314.613C273.339 319.905 276.126 324.985 276.267 330.841C276.514 339.731 272.845 346.575 265.542 351.514C263.143 343.683 255.876 338.179 246.739 339.802C240.742 340.86 235.203 346.928 234.462 351.55C225.537 345.729 221.621 335.322 224.725 325.02C225.748 321.634 227.124 318.388 228.359 315.072C232.416 312.285 236.473 309.533 240.53 306.746C241.377 306.182 242.188 305.688 243.282 305.688C246.88 305.688 250.514 305.547 254.112 305.688C257.922 305.794 261.38 307.028 264.167 309.674C266.283 311.791 268.788 313.237 271.363 314.613Z" fill="#7A4821"/>
<path d="M271.364 314.613C268.788 313.237 266.283 311.79 264.167 309.744C261.38 307.098 257.887 305.864 254.112 305.758C250.514 305.652 246.88 305.793 243.282 305.758C242.224 305.758 241.377 306.252 240.53 306.816C236.473 309.603 232.416 312.355 228.359 315.142C228.218 309.356 229.206 303.747 231.993 298.702C234.215 294.645 235.344 290.482 235.027 285.896C238.907 283.391 242.965 281.275 247.657 280.781C253.054 280.252 257.958 281.663 262.544 284.379C263.461 284.944 264.414 285.438 265.507 285.543C264.237 288.965 264.52 292.176 266.319 295.421C269.635 301.383 271.963 307.628 271.364 314.613Z" fill="#F7BB92"/>
<path d="M373.635 328.795C375.505 328.936 377.304 328.372 379.032 327.878C386.053 325.938 393.038 323.892 400.058 321.916C403.833 328.337 405.138 335.498 406.479 342.695C407.043 345.694 407.396 348.516 404.644 350.703C403.48 351.62 402.246 352.361 400.693 352.397C394.308 352.573 387.958 352.679 381.572 352.855C379.42 352.926 378.115 352.15 377.551 349.962C375.857 342.977 374.587 335.886 373.635 328.795Z" fill="#F7BB92"/>
<path d="M99.7694 321.81C105.731 323.75 111.764 325.408 117.797 327.031C119.878 327.595 121.783 329.042 124.111 328.336C122.277 334.192 121.466 340.26 120.407 346.293C119.843 349.433 116.35 352.255 112.646 352.325C108.66 352.396 104.673 352.396 100.651 352.361C95.536 352.325 92.4668 349.468 93.2429 344.423C94.4424 336.662 95.9241 328.901 99.7694 321.81Z" fill="#F7BB92"/>
<path d="M261.415 353.807C260.709 354.725 260.815 355.818 260.674 356.877C259.757 362.839 255.206 366.825 249.526 366.649C243.881 366.472 239.613 362.168 239.048 356.171C238.978 355.43 238.766 354.689 238.625 353.948C239.189 352.961 239.789 351.973 240.318 350.95C242.294 346.893 245.61 345.023 250.055 344.988C254.536 344.917 257.428 347.387 259.545 351.056C260.074 352.008 260.251 353.278 261.415 353.807Z" fill="#7A4821"/>
<path d="M261.415 353.807C260.251 353.243 260.074 352.008 259.51 351.055C257.393 347.386 254.535 344.917 250.02 344.987C245.61 345.058 242.259 346.892 240.283 350.949C239.789 351.973 239.154 352.925 238.59 353.948C237.037 353.49 235.485 352.996 234.427 351.62C235.132 346.998 240.706 340.93 246.704 339.837C255.841 338.214 263.108 343.682 265.507 351.549C264.449 352.819 263.108 353.595 261.415 353.807Z" fill="#5C3718"/>
<path d="M226.771 204.968C225.254 196.219 223.702 187.435 222.185 178.686C221.832 176.604 222.75 175.546 224.655 174.946C230.687 173.076 236.861 171.842 243.14 171.418C253.724 170.677 264.166 171.63 274.362 174.629C277.643 175.616 278.066 176.251 277.537 179.568C276.161 188.352 274.715 197.136 273.303 205.92C272.704 205.956 272.104 205.991 271.469 206.026C271.822 203.839 270.093 202.957 268.788 201.828C266.706 199.994 264.272 198.441 263.284 195.76C262.402 193.326 261.45 190.892 260.709 188.387C259.792 185.353 257.922 182.637 255.664 180.485C253.936 178.827 251.254 179.744 248.961 179.603C248.573 179.568 248.185 179.638 247.797 179.603C246.069 179.462 244.834 180.273 243.917 181.614C242.364 183.907 241.059 186.306 239.93 188.846C238.096 192.903 236.685 197.207 232.345 199.711C230.229 200.981 227.971 202.534 226.771 204.968Z" fill="#F7BB92"/>
<path d="M226.772 204.968C227.971 202.533 230.229 200.981 232.381 199.746C236.72 197.242 238.167 192.938 239.966 188.881C241.095 186.341 242.4 183.942 243.952 181.649C244.869 180.308 246.139 179.497 247.833 179.638C248.221 179.673 248.609 179.638 248.997 179.638C251.255 179.779 253.936 178.862 255.7 180.52C257.958 182.672 259.827 185.353 260.745 188.422C261.485 190.927 262.438 193.361 263.32 195.795C264.272 198.476 266.742 200.029 268.823 201.863C270.129 202.992 271.857 203.874 271.505 206.061C271.328 206.343 271.152 206.626 270.94 206.943C270.623 206.943 270.199 207.049 270.023 206.873C266.636 203.451 261.062 202.286 259.827 196.642C259.157 193.679 258.099 190.75 257.076 187.893C255.806 184.294 253.583 182.919 249.879 182.848C247.551 182.813 246.104 184.012 245.116 185.847C244.023 187.928 242.823 190.08 242.153 192.303C240.707 197.136 237.214 200.276 233.51 203.204C231.887 204.474 230.652 206.52 228.183 206.414C227.689 206.273 227.195 206.132 226.736 205.955C226.736 205.638 226.736 205.32 226.772 204.968Z" fill="#DDA882"/>
<path d="M272.916 209.166C273.092 208.672 272.845 208.602 272.457 208.707Z" fill="#5E9763"/>
<path d="M274.644 209.307C274.397 208.107 273.41 207.155 273.269 205.92C272.669 205.955 272.069 205.99 271.434 206.026C271.258 206.308 271.081 206.59 270.87 206.908C271.187 207.366 271.505 207.825 271.822 208.248L274.75 211.106L275.597 211.917L274.644 209.307Z" fill="#5E9763"/>
<path d="M226.701 205.956C227.195 206.097 227.689 206.238 228.147 206.415C227.653 208.39 226.313 209.766 224.796 211.001C224.866 209.096 226.419 207.791 226.701 205.956Z" fill="#8A8AD9"/>
<path d="M284.945 221.655C284.487 221.478 284.487 221.09 284.416 220.702C284.734 220.949 285.263 221.055 284.945 221.655Z" fill="#FEFEFE"/>
<path d="M275.173 210.683C275.032 210.506 274.856 210.295 274.715 210.118C274.856 210.33 274.997 210.506 275.173 210.683Z" fill="#5E9763"/>
<path d="M276.338 212.447C276.091 212.271 275.879 212.13 275.632 211.953C275.879 212.094 276.126 212.271 276.338 212.447Z" fill="#E8EFE8"/>
<path d="M229.276 240.034C230.44 240.034 230.899 240.74 230.899 241.798C230.405 245.996 228.429 249.665 226.912 253.51C226.277 255.063 225.466 256.544 224.619 258.026C224.125 258.908 223.385 259.331 222.291 258.767C221.268 258.238 221.162 257.638 221.409 256.544C222.467 251.57 224.619 246.984 226.56 242.327C227.054 241.093 227.9 240.175 229.276 240.034Z" fill="#DDA882"/>
<path d="M268.717 242.434C269.282 241.622 269.635 240.67 270.552 240.141C271.857 240.211 272.316 241.234 272.774 242.187C274.891 246.526 276.584 251.006 278.137 255.557C278.595 256.863 278.525 257.815 277.114 258.309C275.526 258.873 274.503 258.027 274.08 256.686C272.739 252.453 270.693 248.502 269.67 244.162C269.493 243.527 269.317 242.857 268.717 242.434Z" fill="#DDA882"/>
</svg>
