<svg width="497" height="497" viewBox="0 0 497 497" fill="none" xmlns="http://www.w3.org/2000/svg">
<path d="M221.567 385.753C216.103 384.513 200.532 385.753 198.483 385.615C193.566 385.477 188.785 382.723 189.741 378.04C190.424 374.459 191.517 371.291 191.926 369.087C194.522 356.14 184.141 302.975 184.004 299.669C183.594 286.033 213.645 293.747 213.371 298.705C212.005 318.539 206.542 365.368 205.176 372.53C205.176 372.53 231.538 374.183 230.992 379.279C230.718 382.447 227.03 387.13 221.567 385.753Z" fill="#ECAD83"/>
<path d="M215.387 388.753C209.898 387.513 194.256 388.753 192.197 388.615C187.258 388.477 182.455 385.723 183.416 381.04C184.102 377.459 185.199 374.291 185.611 372.087C188.218 359.14 183.004 305.975 183.004 302.669C182.592 289.033 213.74 296.747 213.466 301.705C212.093 321.539 200.293 368.368 199.058 375.53C199.058 375.53 225.54 377.183 224.992 382.279C224.58 385.447 220.875 390.13 215.387 388.753Z" fill="#F6BB92"/>
<path d="M384.25 111.353C381.092 107.234 365.439 122.612 359.535 125.495L355.553 133.047C315.872 159.547 300.22 175.886 300.22 175.886C275.779 190.715 241.453 217.352 234.039 225.453C221.544 238.634 242.552 260.603 257.793 244.401C266.855 236.025 265.07 236.162 268.64 232.455C277.153 225.865 303.927 196.619 310.792 190.028C311.753 189.067 362.556 142.384 362.556 142.384C362.556 142.384 364.753 140.736 369.421 139.226C375.737 137.166 383.014 130.988 385.623 125.907C387.82 121.651 387.408 115.472 384.25 111.353Z" fill="#ECAD83"/>
<path d="M365.988 123.161C365.988 123.161 371.755 119.454 370.107 116.159C368.734 113.413 367.91 112.589 359.397 125.495C359.397 125.495 360.908 127.006 365.988 123.161Z" fill="#ECAD83"/>
<path d="M204.563 236.661C214.028 250.067 220.475 249.514 239.542 254.628C244.755 256.01 269.172 253.384 271.504 249.376C272.327 247.994 272.875 246.612 273.424 244.954C274.796 239.84 275.345 225.881 255.317 200.728C246.813 188.566 233.095 155.259 217.732 140.195C206.347 129.138 186.731 129 186.731 129L163 144.755C183.85 192.021 197.568 204.874 203.329 220.906C203.329 221.044 201.82 232.792 204.563 236.661Z" fill="#FF8AA0"/>
<path d="M383.564 107.783C380.543 103.664 364.479 118.493 358.437 121.239L354.181 128.654C313.813 154.055 297.611 169.845 297.611 169.845C272.759 183.987 237.61 209.663 230.058 217.352C217.289 230.121 237.472 252.776 253.262 236.987C262.599 228.886 260.814 228.886 264.384 225.453C273.171 219 300.632 190.578 307.772 184.262C308.733 183.438 360.909 138.265 360.909 138.265C360.909 138.265 363.243 136.755 367.774 135.244C374.09 133.322 381.504 127.418 384.25 122.338C386.722 118.219 386.584 112.04 383.564 107.783Z" fill="#F6BB92"/>
<path d="M365.028 119.18C365.028 119.18 370.932 115.61 369.422 112.315C368.049 109.569 367.362 108.745 358.437 121.377C358.3 121.24 359.673 122.887 365.028 119.18Z" fill="#F6BB92"/>
<path d="M241.426 257.423C241.426 257.423 242.543 265.627 242.962 276.79L261.672 278C262.649 266.569 266 252.313 266 252.313C248.547 254.196 245.196 251.641 229 252.044L241.426 257.423Z" fill="#ECAD83"/>
<path d="M224.421 298.137C220.54 306.028 225.252 312.15 228.44 315.687C238.418 326.299 246.733 325.891 257.127 323.85C270.847 320.993 268.63 284.396 266.136 278.546C259.76 263.581 236.478 261.948 227.47 263.445C217.491 265.213 220.679 268.07 221.787 271.88C221.787 272.016 221.51 272.696 221.51 272.696C221.787 274.056 222.203 275.825 221.649 277.866C221.649 277.866 222.203 278.954 222.48 279.634C222.619 280.043 222.619 280.315 222.203 280.587C220.817 281.403 219.57 282.083 219.154 282.763C217.768 284.94 226.222 294.464 224.421 298.137Z" fill="#F6BB92"/>
<path d="M227 275.059C227 275.059 225.955 274.78 221.776 275.431C221.254 275.71 220.47 276.175 221.515 276.92C222.299 277.385 224.127 275.71 227 275.059Z" fill="#D6876B"/>
<path d="M227 274.286C227 274.286 225.757 272.143 221.903 272C221.406 272.143 221.033 272.857 221.033 273.143C220.784 274.571 222.027 275 222.027 275C226.005 273.857 227 274.286 227 274.286Z" fill="#CC785E"/>
<path d="M258.584 325.849C275.045 322.434 292.187 294.018 263.89 270.52C261.985 269.017 258.039 267.378 253.822 272.296C250.693 275.711 249.06 279.947 249.06 279.947C248.516 281.176 247.972 282.542 247.428 284.045C246.884 285.684 249.605 293.608 247.972 294.155C232.327 300.029 227.157 310.138 228.109 314.51C232.054 324.483 241.034 329.401 258.584 325.849Z" fill="#602F0F"/>
<path d="M252.226 284.123C248.35 277.167 245.277 277.446 241 278.698L245.677 289.827L248.751 294C253.028 292.887 256.102 291.218 252.226 284.123Z" fill="#F6BB92"/>
<path d="M279.602 295.557C284.248 298.051 284.107 306.642 279.321 314.54C274.394 322.438 266.651 326.872 262.006 324.239C257.36 321.745 258.345 315.094 263.273 307.196C268.059 299.298 274.957 293.063 279.602 295.557Z" fill="#4C230C"/>
<path d="M245.71 292.732C246.259 293.968 246.534 295.203 246.671 296.302C246.946 297.675 246.946 298.636 246.946 298.636L251.477 295.89C251.34 295.203 251.202 294.517 251.065 293.693C251.065 293.693 250.516 293.968 249.692 294.517C249.692 294.517 249.829 294.517 249.829 294.38C249.005 293.418 247.77 291.908 246.397 289.574C246.259 289.711 244.062 288.75 245.71 292.732Z" fill="#602F0F"/>
<path d="M282.233 295.203C287.039 297.812 286.764 307.011 281.547 315.662C276.329 324.312 268.228 329.117 263.423 326.371C258.617 323.763 259.853 316.623 265.07 307.973C270.15 299.46 277.428 292.594 282.233 295.203Z" fill="#602F0F"/>
<path d="M282.833 311.021C283.373 311.276 282.564 313.451 280.944 316.01C279.325 318.44 277.706 320.232 277.167 319.976C276.627 319.72 277.436 317.929 279.056 315.498C280.54 312.939 282.294 310.765 282.833 311.021Z" fill="#4C230C"/>
<path d="M187.219 129.614C156.6 130.575 145.615 139.363 141.084 157.624C136.416 176.435 144.654 190.44 147.4 196.207C152.206 206.505 188.866 206.642 189.553 196.756C189.965 188.655 190.514 181.241 191.063 174.65C191.063 174.238 193.672 172.453 193.809 172.041C197.242 158.173 187.219 129.614 187.219 129.614Z" fill="#3D3C3C"/>
<path d="M186.807 264.447C181.04 278.589 182.55 289.299 182.962 303.029C187.493 301.381 209.324 300.832 213.444 302.068C213.718 297.125 216.876 264.996 216.876 264.996C218.387 252.913 193.672 195.108 190.514 173.139C189.965 167.51 188.866 162.43 187.768 158.311C185.571 150.21 143.007 164.901 141.222 176.023C145.753 200.326 155.501 215.704 166.074 231.631C172.115 240.968 186.807 264.447 186.807 264.447Z" fill="#3D3C3C"/>
</svg>
