<svg width="501" height="501" viewBox="0 0 501 501" fill="none" xmlns="http://www.w3.org/2000/svg">
<path d="M86.0236 375.899C83.7274 370.446 88.6068 364.992 88.6068 361.261C88.6068 357.673 87.7457 351.646 91.764 348.632C94.6343 346.479 96.7869 342.318 97.7915 340.165C104.537 325.383 118.744 292.519 128.79 278.886C130.799 276.159 164.668 281.469 161.798 285.774C144.863 310.889 112.717 342.605 104.824 356.669C104.824 356.669 109.99 379.057 105.398 381.783C102.384 383.362 88.3198 381.353 86.0236 375.899Z" fill="#ECAD83"/>
<path d="M414.666 375.899C416.963 370.446 412.083 364.992 412.083 361.261C412.083 357.673 412.944 351.646 408.926 348.632C406.056 346.479 403.903 342.318 402.898 340.165C396.153 325.383 381.946 292.519 371.9 278.886C369.891 276.159 336.022 281.469 338.892 285.774C355.827 310.889 387.973 342.605 395.866 356.669C395.866 356.669 390.7 379.057 395.292 381.783C398.163 383.362 412.37 381.353 414.666 375.899Z" fill="#ECAD83"/>
<path d="M346.983 246.633C342.398 232.431 330.65 192.979 313.886 152.524C307.438 136.886 299.988 128.279 294.4 123.401C288.956 118.667 284.371 115.798 270.043 115.798C258.437 115.798 250.414 120.532 250.414 120.532C250.414 120.532 242.39 115.798 230.785 115.798C216.457 115.798 211.872 118.667 206.427 123.401C200.696 128.279 193.389 137.03 186.941 152.524C170.035 192.979 158.429 232.431 153.844 246.633C153.844 246.633 139.373 260.692 129.2 278.912C129.2 278.912 146.394 278.481 162.154 285.798C170.464 273.604 174.763 268.583 183.359 253.089C183.359 253.089 214.164 208.186 219.179 197.57C224.194 187.097 238.808 176.338 245.685 158.692C247.548 158.979 249.267 159.123 250.7 159.123C252.133 159.123 253.852 158.979 255.715 158.692C262.592 176.481 277.063 187.097 282.221 197.57C287.236 208.043 318.041 253.089 318.041 253.089C326.638 268.583 330.936 273.46 339.246 285.798C355.007 278.481 372.2 278.912 372.2 278.912C361.454 260.692 346.983 246.633 346.983 246.633Z" fill="#3D3C3C"/>
<path d="M288.467 250.015C291.211 266.515 277.637 296.502 277.637 296.502C271.139 297.363 264.352 298.654 259.298 298.798H241.103C235.904 298.798 229.262 297.363 222.763 296.502C222.763 296.502 209.189 266.372 211.933 250.015C214.532 234.663 218.864 205.824 210.2 147.141C210.2 147.141 222.041 133.798 250.2 133.798C278.359 133.798 290.2 147.141 290.2 147.141C281.536 205.824 285.868 234.663 288.467 250.015Z" fill="#FF8AA0"/>
<path d="M263.2 313.798H237.2C241.2 302.687 237.508 298.798 237.508 298.798H262.892C262.892 298.798 259.2 302.826 263.2 313.798Z" fill="#ECAD83"/>
<path d="M276.2 345.798C276.2 374.963 268.256 382.798 250.2 382.798C232.145 382.798 224.2 374.817 224.2 345.798C224.2 345.798 262.767 354.214 262.767 364.806C262.911 354.214 276.2 345.798 276.2 345.798Z" fill="#602F0F"/>
<path d="M223.078 337.583C224.369 329.69 226.092 329.403 228.531 329.834L225.948 346.911C223.508 346.481 221.643 345.476 223.078 337.583Z" fill="#F6BB92"/>
<path d="M274.74 346.912L272.157 329.834C274.597 329.403 276.176 329.834 277.611 337.583C278.902 345.477 277.18 346.481 274.74 346.912Z" fill="#F6BB92"/>
<path d="M226.665 343.467C226.235 345.046 225.661 346.05 225.23 346.768C225.23 346.768 225.23 346.768 225.374 346.768C224.8 346.624 224.513 346.481 224.513 346.481C224.513 346.911 224.513 347.342 224.513 347.772L227.383 348.92C227.383 348.92 227.239 348.346 227.239 347.485C227.239 346.911 227.239 346.05 227.383 345.189C227.813 342.606 226.665 343.467 226.665 343.467Z" fill="#602F0F"/>
<path d="M273.306 347.485C273.306 348.346 273.163 348.92 273.163 348.92L276.033 347.772C276.033 347.342 276.033 346.911 276.033 346.481C276.033 346.481 275.746 346.624 275.172 346.768C274.742 346.05 274.311 345.046 273.737 343.467C273.737 343.467 272.589 342.606 273.019 345.189C273.306 346.05 273.306 346.911 273.306 347.485Z" fill="#602F0F"/>
<path d="M276.606 347.772C276.606 376.618 264.838 383.219 250.344 383.219C235.849 383.219 224.081 376.618 224.081 347.772C224.081 338.013 225.947 330.407 228.673 324.523C234.701 311.607 245.321 307.015 250.344 307.015C255.51 307.015 265.986 311.607 272.014 324.523C274.741 330.263 276.606 338.013 276.606 347.772Z" fill="#602F0F"/>
<path d="M250.345 318.495L252.498 354.516H248.192L250.345 318.495Z" fill="#4C230C"/>
<path d="M267.853 336.435L253.358 369.442L249.483 367.577L267.853 336.435Z" fill="#4C230C"/>
<path d="M273.306 356.958L240.298 371.309L238.72 367.291L273.306 356.958Z" fill="#4C230C"/>
<path d="M232.979 336.435L251.349 367.577L247.474 369.442L232.979 336.435Z" fill="#4C230C"/>
<path d="M227.526 356.958L261.969 367.291L260.534 371.309L227.526 356.958Z" fill="#4C230C"/>
<path d="M250.2 383.798C259.037 383.798 266.2 377.082 266.2 368.798C266.2 360.514 259.037 353.798 250.2 353.798C241.364 353.798 234.2 360.514 234.2 368.798C234.2 377.082 241.364 383.798 250.2 383.798Z" fill="#4C230C"/>
<path d="M250.7 384.798C260.365 384.798 268.2 378.306 268.2 370.298C268.2 362.29 260.365 355.798 250.7 355.798C241.035 355.798 233.2 362.29 233.2 370.298C233.2 378.306 241.035 384.798 250.7 384.798Z" fill="#602F0F"/>
<path d="M250.344 371.311C252.643 371.311 254.506 370.797 254.506 370.163C254.506 369.529 252.643 369.015 250.344 369.015C248.046 369.015 246.183 369.529 246.183 370.163C246.183 370.797 248.046 371.311 250.344 371.311Z" fill="#4C230C"/>
<path d="M250.345 372.746C251.376 372.746 252.211 371.589 252.211 370.162C252.211 368.736 251.376 367.579 250.345 367.579C249.315 367.579 248.479 368.736 248.479 370.162C248.479 371.589 249.315 372.746 250.345 372.746Z" fill="#4C230C"/>
<path d="M133.241 283.048C140.56 284.196 152.759 285.2 152.759 285.2C162.518 286.348 175.434 288.501 184.331 289.506C198.826 291.515 203.275 292.376 206.863 293.38C210.451 294.385 218.2 296.107 222.362 295.82C224.945 295.533 218.2 266.544 213.321 265.97C192.225 263.53 155.055 264.391 143.574 266.831C137.834 267.979 133.959 269.701 132.954 270.993C131.95 272.284 130.945 276.159 132.38 281.038C132.524 281.469 132.811 282.187 133.241 283.048Z" fill="#F6BB92"/>
<path d="M104.681 329.833C123.768 304.718 131.805 298.404 138.406 293.237C145.008 287.928 151.179 279.891 152.184 278.743C151.61 277.738 151.036 276.734 150.605 276.016C147.448 270.993 144.29 269.702 142.568 269.128C142.568 269.128 137.402 267.405 133.384 270.419C125.49 276.303 93.7744 324.81 93.7744 324.81L104.681 329.833Z" fill="#F6BB92"/>
<path d="M104.681 329.832C104.825 329.545 103.39 328.254 94.0615 324.235C94.0615 324.235 92.6264 326.819 88.8951 330.263C83.8722 334.999 79.7104 344.04 79.4233 349.924C79.1363 354.947 82.2936 360.687 87.0294 363.27C91.7653 365.71 99.9455 344.327 104.394 339.017L104.681 329.832Z" fill="#F6BB92"/>
<path d="M99.0839 344.041C99.0839 344.041 95.2091 350.069 98.2228 352.508C100.806 354.518 101.811 354.948 104.25 339.018C104.394 338.875 102.385 338.157 99.0839 344.041Z" fill="#F6BB92"/>
<path d="M367.165 283.048C359.846 284.196 347.647 285.2 347.647 285.2C337.889 286.348 324.973 288.501 316.075 289.506C301.58 291.515 297.131 292.376 293.544 293.38C289.956 294.385 282.206 296.107 278.044 295.82C275.461 295.533 282.206 266.544 287.086 265.97C308.182 263.53 345.351 264.391 356.832 266.831C362.573 267.979 366.447 269.701 367.452 270.993C368.457 272.284 369.461 276.159 368.026 281.038C367.883 281.469 367.596 282.187 367.165 283.048Z" fill="#F6BB92"/>
<path d="M395.722 329.833C376.635 304.718 368.598 298.404 361.997 293.237C355.395 287.928 349.224 279.891 348.22 278.743C348.794 277.738 349.368 276.734 349.798 276.016C352.956 270.993 356.113 269.702 357.835 269.128C357.835 269.128 363.001 267.405 367.02 270.419C374.913 276.303 406.772 324.81 406.772 324.81L395.722 329.833Z" fill="#F6BB92"/>
<path d="M395.723 329.832C395.58 329.545 397.015 328.254 406.343 324.235C406.343 324.235 407.778 326.819 411.509 330.263C416.532 334.999 420.694 344.04 420.981 349.924C421.268 354.947 418.111 360.687 413.375 363.27C408.639 365.71 400.459 344.327 396.01 339.017L395.723 329.832Z" fill="#F6BB92"/>
<path d="M401.319 344.041C401.319 344.041 405.194 350.069 402.18 352.508C399.597 354.518 398.592 354.948 396.153 339.018C396.009 338.875 398.018 338.157 401.319 344.041Z" fill="#F6BB92"/>
</svg>
