<svg width="500" height="500" viewBox="0 0 500 500" fill="none" xmlns="http://www.w3.org/2000/svg">
<path d="M145.497 245.762C152.1 238.651 159.526 232.402 166.599 225.788C168.73 223.794 170.131 221.632 170.989 218.811C176.026 202.212 181.201 185.65 186.384 169.093C192.579 149.323 205.697 137.241 226.252 133.65C231.735 132.692 237.33 132.762 242.74 134.066C247.931 135.317 252.926 134.828 258.082 133.978C283.262 129.833 305.303 143.235 313.156 167.562C318.693 184.715 323.942 201.962 329.221 219.196C330.014 221.782 331.341 223.76 333.323 225.58C340.53 232.217 347.606 239.005 354.728 245.731C352.604 245.962 350.484 246.266 348.353 246.412C334.081 247.382 319.801 248.236 305.545 249.356C303.313 249.533 302.032 248.856 300.585 247.436C296.002 242.937 291.762 238.085 286.794 233.98C282.265 224.572 277.74 215.16 273.211 205.752C274.708 196.671 276.197 187.586 277.713 178.509C278.052 176.489 277.702 175.246 275.374 174.553C258.413 169.505 241.509 169.497 224.563 174.596C222.558 175.2 221.892 176.173 222.258 178.228C223.878 187.405 225.409 196.598 226.976 205.783C222.385 215.183 217.337 224.356 213.227 233.991C208.59 238.582 203.931 243.153 199.329 247.782C198.059 249.059 196.828 249.54 194.881 249.386C178.427 248.074 161.958 246.947 145.493 245.766L145.497 245.762Z" fill="#6A6D66"/>
<path d="M286.799 233.979C291.766 238.085 296.003 242.937 300.586 247.435C302.032 248.855 303.314 249.533 305.546 249.356C319.802 248.232 334.081 247.382 348.353 246.412C350.485 246.266 352.601 245.962 354.729 245.731C365.561 245.492 372.641 253.538 372.779 262.665C372.883 269.495 373.953 276.314 374.63 283.132C374.719 284.013 375.007 284.871 375.203 285.741C374.734 286.176 374.749 286.73 374.799 287.299C375.454 294.687 376.073 302.075 376.766 309.459C377.339 315.585 377.481 321.834 381.391 327.09C382.411 331.257 384.415 335.044 386.085 338.949C386.824 340.673 386.693 341.9 385.527 343.201C383.434 345.533 381.352 347.88 379.271 350.22C378.009 351.443 376.712 351.589 375.03 350.858C370.925 349.065 366.796 347.253 362.54 345.883C359.631 344.948 359.431 343.197 359.82 340.765C360.512 336.46 360.889 332.088 361.848 327.844C362.629 324.381 362.102 321.214 361.066 317.982C359.908 314.373 358.812 310.74 357.692 307.12C355.206 295.245 351.324 283.748 348.241 272.039C347.872 270.63 346.879 270.707 345.864 270.934C341.054 272.012 336.252 273.131 331.446 274.236C324.427 275.679 317.366 276.96 310.398 278.611C302.183 280.558 294.329 279.884 286.864 275.963C284.802 274.878 283.251 275.04 281.269 276.102C277.733 277.995 274.67 280.804 270.638 281.755C265.555 272.216 264.019 261.965 264.978 251.345C265.439 246.25 267.921 242.037 271.958 238.685C276.317 235.065 281.539 234.53 286.806 233.976L286.799 233.979Z" fill="#F7BB92"/>
<path d="M145.498 245.761C161.963 246.942 178.432 248.07 194.885 249.382C196.828 249.536 198.059 249.055 199.333 247.777C203.935 243.148 208.595 238.581 213.232 233.99C214.236 234.09 215.24 234.19 216.244 234.287C226.068 235.214 233.31 240.797 234.78 249.582C236.665 260.833 234.787 271.661 229.339 281.781C225.252 280.38 221.851 277.706 218.084 275.709C216.914 275.089 215.902 274.562 214.636 275.305C204.72 281.096 194.389 280.195 183.845 277.398C178.855 276.074 173.729 275.27 168.666 274.227C165.718 273.535 162.786 272.773 159.819 272.169C152.339 270.641 152.258 270.649 150.254 277.871C147.518 287.714 144.405 297.457 142.219 307.454C140.722 312.506 138.745 317.481 137.906 322.641C137.375 325.923 138.502 329.487 138.952 332.915C139.333 335.805 139.553 338.752 140.33 341.538C141.019 344.001 140.141 344.951 138.029 345.736C133.712 347.341 129.41 349.003 125.208 350.877C123.361 351.7 122.01 351.385 120.621 350.196C118.832 348.064 117.239 345.709 115.192 343.858C113.241 342.092 113.229 340.507 114.207 338.314C115.831 334.662 117.966 331.187 118.505 327.116C120.652 324.569 122.033 321.437 122.384 318.339C123.607 307.492 124.327 296.587 125.239 285.702C125.962 277.294 126.501 268.867 127.459 260.487C128.494 251.44 135.247 246.099 145.49 245.761H145.498Z" fill="#F7BB92"/>
<path d="M229.339 281.782C234.787 271.662 236.661 260.834 234.779 249.583C233.31 240.794 226.064 235.215 216.244 234.288C215.24 234.192 214.236 234.091 213.231 233.991C217.341 224.356 222.389 215.183 226.98 205.783C242.391 205.771 257.805 205.763 273.216 205.752C277.741 215.164 282.27 224.572 286.799 233.98C281.531 234.534 276.313 235.065 271.954 238.686C267.921 242.033 265.435 246.247 264.974 251.345C264.016 261.965 265.547 272.212 270.634 281.755C269.441 283.633 267.259 284.083 265.578 285.257C264.781 285.21 264.073 284.976 263.373 284.537C253.715 278.488 244.307 279.127 235.133 285.649C233.271 284.26 230.859 283.69 229.342 281.782H229.339Z" fill="#8A8AD9"/>
<path d="M234.39 351.286C224.89 344.636 221.419 333.924 225.282 323.065C226.26 320.31 227.341 317.594 228.372 314.862C232.266 312.176 236.149 309.475 240.062 306.82C240.885 306.262 241.832 305.45 242.706 305.469C250.397 305.635 258.536 303.518 265 310.098C266.766 311.895 269.271 312.972 271.434 314.377C272.546 317.182 273.731 319.964 274.758 322.8C278.76 333.843 275.255 344.656 265.531 351.42C263.465 344.098 257.408 339.296 250.19 339.253C242.679 339.211 236.645 343.805 234.39 351.286Z" fill="#7A4821"/>
<path d="M271.43 314.377C269.263 312.968 266.762 311.895 264.996 310.098C258.532 303.518 250.394 305.638 242.702 305.469C241.828 305.45 240.882 306.261 240.058 306.819C236.145 309.474 232.262 312.176 228.368 314.861C228.349 308.605 229.627 302.51 232.682 297.161C234.837 293.39 235.306 289.696 235.129 285.648C244.299 279.13 253.71 278.491 263.369 284.536C264.069 284.975 264.773 285.21 265.573 285.256C264.396 288.427 264.35 291.436 266.104 294.533C269.571 300.663 271.907 307.158 271.434 314.377H271.43Z" fill="#F7BB92"/>
<path d="M381.39 327.089C377.48 321.833 377.338 315.58 376.765 309.458C376.072 302.074 375.453 294.687 374.799 287.299C374.748 286.729 374.733 286.175 375.203 285.74C382.09 294.948 389.024 304.118 395.831 313.383C397.682 315.9 399.444 318.539 400.314 321.625C395.604 323.014 390.898 324.4 386.188 325.789C384.437 325.662 382.917 326.389 381.39 327.086V327.089Z" fill="#6C6D66"/>
<path d="M125.242 285.702C124.33 296.584 123.611 307.489 122.387 318.34C122.037 321.437 120.659 324.566 118.508 327.117C117.081 326.105 115.438 325.839 113.745 325.774C109.058 324.369 104.371 322.965 99.6846 321.56C100.874 318.501 102.528 315.689 104.479 313.08C111.34 303.91 117.9 294.51 125.242 285.706V285.702Z" fill="#6C6D66"/>
<path d="M99.6845 321.557C104.371 322.961 109.058 324.366 113.745 325.77C112.417 329.095 111.205 332.473 109.735 335.728C105.806 344.421 105.76 344.398 112.071 351.52C112.217 351.685 112.302 351.901 112.417 352.097C108.369 352.116 104.325 352.213 100.281 352.139C95.1325 352.043 92.0619 348.068 93.2586 343.062C94.994 335.775 96.0598 328.283 99.6883 321.557H99.6845Z" fill="#F7BB92"/>
<path d="M386.188 325.794C390.898 324.405 395.604 323.02 400.314 321.631C404.281 328.838 405.647 336.838 407.036 344.768C407.706 348.581 404.32 351.983 400.337 352.11C396.062 352.244 391.776 352.125 387.497 352.121C388.855 350.648 390.098 349.039 391.606 347.735C393.726 345.899 393.934 344.056 392.78 341.52C390.425 336.353 388.37 331.047 386.192 325.798L386.188 325.794Z" fill="#F7BB92"/>
<path d="M261.541 353.525C260.718 354.306 260.857 355.334 260.756 356.33C260.16 362.113 255.57 366.35 249.959 366.35C244.365 366.35 239.72 362.063 239.147 356.334C239.047 355.341 239.247 354.295 238.431 353.49C239.355 353.098 239.555 352.248 239.928 351.413C241.829 347.164 245.103 344.79 249.825 344.686C254.407 344.586 258.182 347.099 260.006 351.474C260.364 352.332 260.622 353.14 261.541 353.521V353.525Z" fill="#7A4821"/>
<path d="M142.222 307.455C144.407 297.462 147.52 287.72 150.256 277.873C152.261 270.65 152.342 270.643 159.822 272.17C162.785 272.774 165.721 273.54 168.668 274.229C159.853 285.303 151.037 296.377 142.222 307.455Z" fill="#6D6E67"/>
<path d="M331.441 274.236C336.247 273.132 341.049 272.012 345.859 270.935C346.875 270.708 347.867 270.631 348.237 272.039C351.319 283.752 355.201 295.249 357.687 307.12C348.645 296.392 340.075 285.287 331.437 274.236H331.441Z" fill="#6D6E67"/>
<path d="M261.541 353.525C260.622 353.144 260.36 352.336 260.006 351.478C258.182 347.103 254.407 344.586 249.824 344.69C245.107 344.794 241.829 347.168 239.928 351.416C239.554 352.251 239.354 353.102 238.431 353.494C236.846 353.194 235.518 352.425 234.391 351.289C236.649 343.809 242.683 339.215 250.19 339.257C257.409 339.299 263.465 344.102 265.531 351.424C264.389 352.478 263.115 353.286 261.541 353.529V353.525Z" fill="#5C3717"/>
<path d="M386.189 325.793C388.367 331.041 390.422 336.347 392.777 341.515C393.931 344.051 393.727 345.894 391.603 347.729C390.098 349.034 388.856 350.642 387.493 352.116C385.723 352.162 383.95 352.154 382.183 352.27C380.606 352.374 379.644 351.746 379.271 350.211C381.356 347.872 383.438 345.528 385.527 343.197C386.693 341.896 386.82 340.668 386.085 338.945C384.415 335.039 382.41 331.253 381.391 327.085C382.918 326.389 384.438 325.658 386.189 325.789V325.793Z" fill="#DEA881"/>
<path d="M112.417 352.098C112.301 351.905 112.216 351.686 112.07 351.52C105.76 344.398 105.802 344.421 109.735 335.729C111.208 332.47 112.417 329.091 113.744 325.771C115.441 325.836 117.08 326.101 118.508 327.113C117.969 331.188 115.833 334.659 114.21 338.311C113.236 340.504 113.244 342.089 115.195 343.855C117.242 345.706 118.831 348.057 120.624 350.193C120.447 351.682 119.604 352.328 118.115 352.263C116.214 352.178 114.314 352.151 112.413 352.098H112.417Z" fill="#DEA881"/>
<path d="M273.215 205.751C257.805 205.762 242.39 205.77 226.979 205.782C225.417 196.597 223.886 187.404 222.262 178.227C221.9 176.172 222.566 175.199 224.567 174.595C241.509 169.496 258.416 169.504 275.378 174.552C277.706 175.245 278.056 176.488 277.717 178.508C276.197 187.585 274.712 196.67 273.215 205.751Z" fill="#F7BB92"/>
</svg>
