<svg width="500" height="500" viewBox="0 0 500 500" fill="none" xmlns="http://www.w3.org/2000/svg">
<path d="M106.07 360.199C104.057 355.419 108.335 350.638 108.335 347.367C108.335 344.221 107.58 338.937 111.102 336.295C113.619 334.408 115.506 330.759 116.387 328.872C122.3 315.913 134.755 287.102 143.562 275.15C145.323 272.76 175.015 277.415 172.499 281.189C157.653 303.206 129.471 331.011 122.551 343.341C122.551 343.341 127.081 362.967 123.055 365.358C120.413 366.742 108.083 364.98 106.07 360.199Z" fill="#ECAD83"/>
<path d="M394.182 360.199C396.195 355.419 391.917 350.638 391.917 347.367C391.917 344.221 392.672 338.937 389.149 336.295C386.633 334.408 384.746 330.759 383.865 328.872C377.952 315.913 365.496 287.102 356.689 275.15C354.928 272.76 325.236 277.415 327.752 281.189C342.598 303.206 370.78 331.011 377.7 343.341C377.7 343.341 373.171 362.967 377.197 365.358C379.713 366.742 392.169 364.98 394.182 360.199Z" fill="#ECAD83"/>
<path d="M334.896 246.673C330.877 234.225 320.579 199.647 305.885 164.189C300.234 150.484 293.703 142.939 288.805 138.664C284.032 134.515 280.014 132 267.455 132C257.282 132 250.249 136.149 250.249 136.149C250.249 136.149 243.216 132 233.043 132C220.484 132 216.465 134.515 211.693 138.664C206.669 142.939 200.264 150.609 194.613 164.189C179.793 199.647 169.62 234.225 165.601 246.673C165.601 246.673 152.917 258.996 144 274.965C144 274.965 159.071 274.587 172.886 281C180.17 270.312 183.938 265.911 191.473 252.332C191.473 252.332 218.475 212.976 222.87 203.671C227.266 194.492 240.076 185.062 246.104 169.596C247.737 169.847 249.244 169.973 250.5 169.973C251.756 169.973 253.263 169.847 254.896 169.596C260.924 185.187 273.609 194.492 278.13 203.671C282.525 212.85 309.527 252.332 309.527 252.332C317.063 265.911 320.83 270.186 328.114 281C341.929 274.587 357 274.965 357 274.965C347.581 258.996 334.896 246.673 334.896 246.673Z" fill="#3D3C3C"/>
<path d="M283.484 250.13C285.884 264.63 274.007 290.983 274.007 290.983C268.321 291.739 262.383 292.874 257.96 293H242.04C237.491 293 231.679 291.739 225.993 290.983C225.993 290.983 214.116 264.504 216.516 250.13C218.791 236.639 222.581 211.296 215 159.726C215 159.726 225.361 148 250 148C274.639 148 285 159.726 285 159.726C277.419 211.296 281.209 236.639 283.484 250.13Z" fill="#FF8AA0"/>
<path d="M261 306H239C242.385 296.37 239.26 293 239.26 293H260.74C260.74 293 257.615 296.491 261 306Z" fill="#ECAD83"/>
<path d="M273 334C273 359.224 265.972 366 250 366C234.028 366 227 359.098 227 334C227 334 261.117 341.278 261.117 350.439C261.244 341.278 273 334 273 334Z" fill="#602F0F"/>
<path d="M226.221 326.608C227.353 319.688 228.863 319.436 231.002 319.814L228.737 334.786C226.599 334.408 224.963 333.528 226.221 326.608Z" fill="#F6BB92"/>
<path d="M271.514 334.785L269.249 319.813C271.388 319.436 272.772 319.813 274.03 326.607C275.162 333.527 273.652 334.408 271.514 334.785Z" fill="#F6BB92"/>
<path d="M229.367 331.766C228.989 333.15 228.486 334.03 228.109 334.659C228.109 334.659 228.109 334.659 228.234 334.659C227.731 334.534 227.479 334.408 227.479 334.408C227.479 334.785 227.479 335.163 227.479 335.54L229.996 336.547C229.996 336.547 229.87 336.043 229.87 335.289C229.87 334.785 229.87 334.03 229.996 333.276C230.373 331.011 229.367 331.766 229.367 331.766Z" fill="#602F0F"/>
<path d="M270.256 335.289C270.256 336.043 270.13 336.547 270.13 336.547L272.647 335.54C272.647 335.163 272.647 334.785 272.647 334.408C272.647 334.408 272.395 334.534 271.892 334.659C271.514 334.03 271.137 333.15 270.634 331.766C270.634 331.766 269.627 331.011 270.005 333.276C270.256 334.03 270.256 334.785 270.256 335.289Z" fill="#602F0F"/>
<path d="M273.15 335.54C273.15 360.829 262.833 366.616 250.126 366.616C237.419 366.616 227.102 360.829 227.102 335.54C227.102 326.985 228.738 320.317 231.128 315.159C236.412 303.836 245.722 299.81 250.126 299.81C254.655 299.81 263.839 303.836 269.124 315.159C271.514 320.191 273.15 326.985 273.15 335.54Z" fill="#602F0F"/>
<path d="M250.126 309.874L252.013 341.453H248.239L250.126 309.874Z" fill="#4C230C"/>
<path d="M265.475 325.601L252.768 354.538L249.371 352.902L265.475 325.601Z" fill="#4C230C"/>
<path d="M270.256 343.592L241.319 356.173L239.935 352.65L270.256 343.592Z" fill="#4C230C"/>
<path d="M234.902 325.601L251.006 352.902L247.609 354.538L234.902 325.601Z" fill="#4C230C"/>
<path d="M230.122 343.592L260.317 352.65L259.059 356.173L230.122 343.592Z" fill="#4C230C"/>
<path d="M250 367C257.732 367 264 361.18 264 354C264 346.82 257.732 341 250 341C242.268 341 236 346.82 236 354C236 361.18 242.268 367 250 367Z" fill="#4C230C"/>
<path d="M250.5 368C259.06 368 266 362.404 266 355.5C266 348.596 259.06 343 250.5 343C241.94 343 235 348.596 235 355.5C235 362.404 241.94 368 250.5 368Z" fill="#602F0F"/>
<path d="M250.126 356.174C252.141 356.174 253.775 355.723 253.775 355.167C253.775 354.611 252.141 354.161 250.126 354.161C248.111 354.161 246.478 354.611 246.478 355.167C246.478 355.723 248.111 356.174 250.126 356.174Z" fill="#4C230C"/>
<path d="M250.126 357.432C251.03 357.432 251.762 356.418 251.762 355.167C251.762 353.916 251.03 352.902 250.126 352.902C249.223 352.902 248.491 353.916 248.491 355.167C248.491 356.418 249.223 357.432 250.126 357.432Z" fill="#4C230C"/>
<path d="M147.462 278.799C153.879 279.805 164.573 280.686 164.573 280.686C173.128 281.692 184.451 283.58 192.252 284.46C204.959 286.222 208.859 286.976 212.004 287.857C215.15 288.738 221.944 290.248 225.592 289.996C227.857 289.744 221.944 264.33 217.666 263.827C199.172 261.688 166.586 262.443 156.521 264.582C151.488 265.588 148.092 267.098 147.211 268.23C146.33 269.363 145.449 272.76 146.708 277.037C146.833 277.415 147.085 278.044 147.462 278.799Z" fill="#F6BB92"/>
<path d="M122.426 319.814C139.159 297.797 146.205 292.261 151.992 287.732C157.779 283.076 163.189 276.031 164.07 275.024C163.567 274.144 163.064 273.263 162.686 272.634C159.918 268.231 157.15 267.098 155.641 266.595C155.641 266.595 151.111 265.085 147.589 267.727C140.669 272.886 112.864 315.41 112.864 315.41L122.426 319.814Z" fill="#F6BB92"/>
<path d="M122.426 319.813C122.552 319.562 121.294 318.429 113.116 314.907C113.116 314.907 111.858 317.171 108.587 320.191C104.183 324.343 100.535 332.269 100.283 337.427C100.031 341.831 102.799 346.863 106.951 349.128C111.103 351.267 118.274 332.521 122.174 327.865L122.426 319.813Z" fill="#F6BB92"/>
<path d="M117.519 332.269C117.519 332.269 114.122 337.553 116.764 339.692C119.029 341.453 119.91 341.831 122.049 327.866C122.174 327.74 120.413 327.111 117.519 332.269Z" fill="#F6BB92"/>
<path d="M352.538 278.799C346.121 279.805 335.427 280.686 335.427 280.686C326.872 281.692 315.549 283.58 307.748 284.46C295.041 286.222 291.141 286.976 287.996 287.857C284.85 288.738 278.057 290.248 274.408 289.996C272.143 289.744 278.057 264.33 282.334 263.827C300.829 261.688 333.414 262.443 343.479 264.582C348.512 265.588 351.909 267.098 352.789 268.23C353.67 269.363 354.551 272.76 353.293 277.037C353.167 277.415 352.915 278.044 352.538 278.799Z" fill="#F6BB92"/>
<path d="M377.575 319.814C360.842 297.797 353.796 292.261 348.009 287.732C342.221 283.076 336.811 276.031 335.931 275.024C336.434 274.144 336.937 273.263 337.315 272.634C340.082 268.231 342.85 267.098 344.36 266.595C344.36 266.595 348.889 265.085 352.412 267.727C359.332 272.886 387.262 315.41 387.262 315.41L377.575 319.814Z" fill="#F6BB92"/>
<path d="M377.575 319.813C377.449 319.562 378.707 318.429 386.885 314.907C386.885 314.907 388.143 317.171 391.414 320.191C395.817 324.343 399.466 332.269 399.718 337.427C399.969 341.831 397.201 346.863 393.049 349.128C388.898 351.267 381.726 332.521 377.826 327.865L377.575 319.813Z" fill="#F6BB92"/>
<path d="M382.481 332.269C382.481 332.269 385.878 337.553 383.236 339.692C380.972 341.453 380.091 341.831 377.952 327.866C377.826 327.74 379.588 327.111 382.481 332.269Z" fill="#F6BB92"/>
</svg>
