<svg width="500" height="500" viewBox="0 0 500 500" fill="none" xmlns="http://www.w3.org/2000/svg">
<path d="M193.694 399.319C193.883 399.319 194.073 399.367 194.263 399.319C195.971 398.75 197.775 398.702 199.578 398.75C201.998 398.845 204.418 398.56 206.791 398.18C207.408 398.085 208.072 397.943 208.689 397.991C211.632 398.085 214.526 397.469 217.421 397.041C223.685 396.092 229.902 395.143 236.118 394.147C245.182 392.723 254.246 391.347 263.262 389.639C266.442 389.022 269.621 388.31 272.706 387.218C273.465 386.934 274.129 386.981 274.889 387.266C282.007 390.113 289.41 392.059 296.86 393.767C304.216 395.475 311.619 396.757 319.022 397.896C323.957 398.607 328.892 399.224 333.828 399.651C339.949 400.221 346.023 400.648 352.145 400.695C356.796 400.743 361.446 400.506 366.097 400.031C368.327 399.794 370.558 399.699 372.788 399.509C375.92 399.224 379.004 398.94 382.089 398.37C382.706 398.228 383.37 398.18 383.94 397.896C385.031 397.421 386.123 397.231 387.262 397.089C387.262 395.57 387.262 394.052 387.262 392.533C387.404 386.507 387.214 380.48 387.594 374.453C387.784 371.796 387.736 369.138 387.831 366.481C386.075 366.291 384.272 366.006 382.516 365.911C381.045 365.816 379.621 365.626 378.15 365.342C374.449 364.63 370.747 364.013 367.046 363.349C360.877 362.257 354.755 361.166 348.586 360.074C341.752 358.888 334.919 357.654 328.085 356.468C321.869 355.376 315.652 354.285 309.436 353.193C304.69 352.339 299.85 351.675 295.152 350.488C290.264 349.255 285.329 348.4 280.346 347.736C276.55 347.214 272.753 346.739 268.957 346.217C263.784 345.506 258.612 344.794 253.439 344.129C246.701 343.228 239.915 342.374 233.176 341.472C224.776 340.333 216.377 339.099 208.025 337.913C206.886 337.77 205.747 337.581 204.608 337.391C204.181 337.296 203.991 337.059 203.991 336.584C203.991 334.781 203.896 333.025 204.134 331.222C204.276 329.893 204.513 328.564 203.896 327.283C200.147 326.951 196.493 326.144 192.792 325.48C190.704 325.1 188.711 324.578 186.623 324.246C185.721 324.103 185.057 323.819 184.487 323.202C183.206 321.873 181.972 320.497 180.691 319.168C177.274 315.657 173.81 312.145 170.393 308.633C169.397 307.637 168.448 306.593 167.593 305.501C164.082 300.946 160.665 296.39 157.106 291.882C155.682 290.078 154.543 288.038 152.788 286.567C152.361 286.187 152.076 285.665 151.839 285.143C150.889 284.858 150.652 284.052 150.652 283.197C150.652 282.059 151.174 281.157 152.313 280.73C155.54 278.737 158.767 276.744 161.851 274.513C162.184 274.276 162.611 274.086 163.038 273.896C163.133 273.564 163.37 273.374 163.655 273.185C166.17 271.381 168.59 269.388 171.058 267.49C174.712 264.643 178.081 261.463 181.545 258.331C185.294 254.962 188.568 251.118 192.033 247.464C192.128 247.369 192.223 247.274 192.27 247.179C194.643 244.285 197.063 241.39 199.293 238.4C202.615 233.892 205.652 229.194 208.215 224.211C209.686 221.411 210.825 218.422 211.916 215.432C212.059 214.815 212.201 214.198 212.391 213.581C212.628 212.727 212.533 211.968 211.964 211.256C211.679 210.924 211.442 210.544 211.157 210.212C210.16 208.931 209.069 207.65 208.12 206.273C206.791 204.375 205.178 202.762 203.564 201.148C202.093 199.63 200.527 198.301 199.009 196.83C198.771 196.64 198.629 196.308 198.487 196.071C197.87 195.833 197.395 196.165 196.921 196.498C190.894 200.294 184.914 204.09 178.935 207.887C174.759 210.544 170.583 213.154 166.407 215.812C166.027 216.049 165.648 216.239 165.173 216.286C164.841 216.856 164.224 217.14 163.702 217.473C153.452 224.021 143.154 230.523 132.904 237.119C126.355 241.342 119.901 245.708 113.4 249.884C110.126 251.972 107.421 254.582 104.953 257.524C103.909 258.758 103.055 260.087 102.486 261.558C101.584 263.789 100.635 266.019 100.113 268.392C99.4485 271.191 98.9264 273.991 98.5468 276.839C98.4044 277.883 98.5943 278.879 98.6417 279.876C98.7841 282.913 99.4484 285.76 100.255 288.655C101.347 292.688 102.865 296.485 104.574 300.281C105.807 302.939 106.851 305.691 108.038 308.349C109.177 310.959 110.505 313.521 111.977 315.989C114.017 319.453 116.295 322.775 117.956 326.429C119.901 330.747 122.179 334.828 124.647 338.862C126.26 341.519 128.064 344.082 129.725 346.739C131.243 349.16 132.714 351.627 134.47 353.905C136.7 356.847 138.978 359.742 141.209 362.684C142.158 363.965 143.154 365.199 144.056 366.528C145.48 368.616 146.856 370.799 148.279 372.887C148.517 373.267 148.801 373.646 149.086 373.931C151.459 376.494 153.737 379.198 155.92 381.903C156.631 382.805 157.486 383.612 158.292 384.371C161.329 387.171 164.367 390.018 167.451 392.771C170.014 395.048 172.861 396.709 176.23 397.611C179.078 398.37 181.925 398.892 184.867 398.845C185.674 398.845 186.528 398.892 187.335 398.94C187.24 397.469 187.809 396.472 189.185 395.95C189.66 395.76 190.087 395.475 190.562 395.286C193.267 394.194 195.544 392.438 197.348 390.161C199.198 387.883 200.764 385.415 201.808 382.663C203.469 378.344 204.466 373.931 204.513 369.28C204.513 366.148 204.656 363.064 204.229 359.932C203.896 357.654 203.612 355.424 203.137 353.193C202.378 349.777 201.476 346.407 200.29 343.085C200.1 342.563 199.91 341.994 199.958 341.424C200.147 340.001 201.429 339.242 202.757 339.858C203.469 340.191 203.944 340.713 204.229 341.519C205.795 346.028 207.218 350.583 207.978 355.281C208.12 356.041 208.262 356.752 208.357 357.512C208.547 359.6 208.879 361.688 208.784 363.776C208.784 364.155 208.879 364.535 208.974 364.915C209.211 366.101 209.259 367.335 208.974 368.521C208.832 369.138 208.737 369.755 208.784 370.419C208.879 372.982 208.262 375.45 207.788 377.965C207.028 381.761 205.605 385.273 203.801 388.642C202.852 390.398 201.713 391.964 200.337 393.435C198.629 395.238 196.826 396.947 194.643 398.18C194.263 398.418 193.883 398.655 193.836 399.177L193.694 399.319Z" fill="#696D65"/>
<path d="M415.07 333.262C414.975 332.407 414.453 331.743 414.026 331.031C411.274 326.476 408.237 322.015 404.915 317.839C403.301 315.798 401.735 313.71 400.217 311.575C399.078 310.009 397.702 308.728 395.993 307.731C391.01 304.789 386.028 301.847 381.045 298.857C376.679 296.247 372.313 293.589 367.947 290.979C364.056 288.654 360.165 286.329 356.321 284.004C353.094 282.058 349.915 280.112 346.688 278.167C342.844 275.889 339.048 273.611 335.204 271.333C332.736 269.862 330.316 268.344 327.848 266.872C323.72 264.357 319.591 261.842 315.415 259.375C313.707 258.378 312.236 257.097 310.67 255.863C309.673 255.056 308.724 254.202 307.775 253.348C304.88 250.738 302.033 248.128 299.091 245.565C296.481 243.24 293.823 240.962 291.166 238.637C289.552 237.213 287.939 235.742 286.325 234.271C284.569 232.705 282.766 231.186 281.01 229.62C279.682 228.434 278.353 227.248 277.024 226.061C274.272 223.594 271.519 221.126 268.767 218.658C265.255 215.526 261.744 212.394 258.185 209.262C256.619 207.886 255.053 206.462 253.392 205.134C252.632 204.517 251.826 203.805 250.782 203.615C250.592 205.941 250.497 208.313 250.212 210.639C250.022 212.157 249.927 213.676 249.785 215.194C249.595 217.282 249.311 219.37 249.121 221.458C248.931 223.309 248.931 225.16 248.646 226.963C248.409 228.292 248.456 229.62 248.267 230.949C248.029 232.752 247.792 234.603 247.65 236.406C247.46 238.352 247.46 240.345 247.128 242.291C246.843 244.047 246.89 245.85 246.558 247.606C246.226 249.409 246.226 251.26 246.084 253.111C247.507 252.778 248.978 252.731 250.449 252.731C251.493 252.731 252.443 253.016 253.297 253.633C254.72 254.677 256.239 255.673 257.71 256.67C260.178 258.378 262.645 260.039 265.113 261.747C270.618 265.544 276.075 269.388 281.58 273.184C284.759 275.414 287.986 277.55 291.166 279.78C296.576 283.529 301.938 287.278 307.3 291.027C310.812 293.495 314.656 295.345 318.357 297.481C321.157 299.094 324.052 300.613 326.899 302.179C331.455 304.741 335.963 307.304 340.519 309.866C345.217 312.524 349.962 315.134 354.708 317.791C360.687 321.161 366.666 324.53 372.693 327.899C378.293 331.031 383.94 334.163 389.539 337.295C390.678 337.96 391.96 338.482 392.766 339.621C392.956 339.526 393.099 339.478 393.288 339.336C394.19 338.671 395.092 338.814 395.898 339.526C397.654 340.997 399.79 341.851 401.735 343.085C402.352 343.464 402.495 343.417 403.064 342.895C404.488 341.519 405.864 340.19 407.382 338.909C409.233 337.343 410.799 335.539 412.697 334.021C413.457 333.404 414.121 332.977 415.07 333.072V333.262Z" fill="#FFB68A"/>
<path d="M169.919 143.775C169.397 143.775 168.922 143.775 168.4 143.586C166.834 143.111 165.221 142.731 163.607 142.209C159.764 141.023 155.967 139.694 152.123 138.555C148.517 137.464 144.958 136.372 141.304 135.376C136.036 133.952 130.769 132.386 125.549 130.82C121.42 129.539 117.197 128.59 112.878 128.02C111.36 127.831 109.841 127.688 108.323 127.641C107.896 127.641 107.421 127.498 106.994 127.451C106.282 127.403 105.57 127.261 104.906 127.403C103.53 127.688 102.106 127.641 100.73 127.688C99.591 127.736 98.4995 128.115 97.3606 128.4C94.8455 129.112 92.3304 129.824 90.0051 131.057C87.6324 132.339 85.402 133.715 83.5513 135.755C81.748 137.749 80.4193 139.932 80.3243 142.684C80.3243 143.396 80.0396 144.06 80.0396 144.772C80.1345 147.145 80.3244 149.47 81.4633 151.605C82.5073 153.646 83.5988 155.686 84.6902 157.68C85.7817 159.673 87.3477 161.239 88.7713 162.947C90.1 164.561 91.5711 166.127 92.9948 167.598C95.3675 170.065 98.025 172.296 100.73 174.431C103.245 176.424 105.76 178.322 108.465 180.031C109.746 180.838 111.075 181.597 112.404 182.404C115.251 184.112 118.051 185.868 120.898 187.576C124.362 189.617 127.827 191.657 131.291 193.698C132.24 194.267 133.142 194.837 134.091 195.359C135.372 196.118 136.606 196.925 137.887 197.542C140.782 198.87 143.392 200.769 146.239 202.192C146.808 202.477 147.33 202.809 147.9 203.094C153.025 205.656 158.15 208.266 163.275 210.829C163.892 211.161 164.509 211.493 165.221 211.636C165.458 211.351 165.695 211.066 165.933 210.734C169.492 205.609 173.051 200.531 176.61 195.406C178.129 193.223 179.695 191.04 181.213 188.857C182.637 186.769 184.06 184.634 185.484 182.546C183.823 181.882 182.162 181.17 180.501 180.505C180.074 180.363 179.695 180.173 179.6 179.699H179.552C178.84 179.794 178.176 179.556 177.512 179.319C173.336 177.611 169.16 175.95 164.936 174.289C160.001 172.343 155.018 170.35 150.083 168.404C146.002 166.791 141.968 165.177 137.887 163.469C136.463 162.9 134.992 162.52 133.663 161.713C132.714 162.473 131.718 162.615 130.484 162.235C126.925 161.049 123.366 160.005 119.759 158.866C119.237 158.676 118.668 158.486 118.146 158.344C116.058 157.869 114.065 157.015 111.977 156.398C111.312 156.208 110.885 155.781 110.506 155.259C109.841 154.31 110.316 152.649 111.787 152.554C112.451 152.554 113.021 152.649 113.638 152.839C117.292 154.026 120.993 155.212 124.695 156.398C125.596 156.683 126.498 156.92 127.399 157.205C129.488 157.869 131.67 158.439 133.663 159.435C134.043 159.53 134.375 159.673 134.755 159.72C139.358 160.717 143.914 161.666 148.517 162.662C151.839 163.374 155.208 164.039 158.53 164.798C161.377 165.415 164.177 166.127 167.024 166.838C168.305 167.123 169.397 167.74 170.346 168.594C171.153 169.306 172.007 169.97 172.814 170.682C173.905 171.631 175.234 172.343 176.041 173.624C177.559 173.862 179.078 174.099 180.549 174.384C181.925 174.621 183.301 174.858 184.582 175.57C185.247 175.523 185.816 175.807 186.386 175.997C190.372 177.326 194.358 178.655 198.534 179.461C198.914 179.509 199.246 179.746 199.578 179.888C199.768 178.939 200.337 178.512 201.334 178.56C203.517 178.655 203.042 178.37 204.181 176.899C204.419 176.614 204.561 176.234 204.703 175.902C205.273 174.621 205.795 173.34 206.459 172.106C207.74 169.733 208.5 167.171 209.544 164.75C209.733 164.276 209.733 163.754 209.544 163.279C209.354 162.805 209.069 162.378 208.689 162.045C207.978 161.476 207.74 160.717 207.835 159.863C207.835 159.483 207.835 159.103 207.835 158.724C205.842 157.632 203.849 156.493 201.809 155.449C198.06 153.551 194.406 151.463 190.562 149.802C190.467 149.802 190.372 149.66 190.277 149.565C190.135 149.565 190.04 149.565 189.897 149.47C188.142 148.663 186.338 148.236 184.393 148.426C183.871 148.473 183.396 148.426 182.969 148.046C182.732 148.046 182.447 148.046 182.21 147.951C178.461 146.812 174.712 145.626 170.963 144.44C170.536 144.297 170.109 144.155 169.824 143.775H169.919Z" fill="#FFB78A"/>
<path d="M246.226 253.205C246.369 251.354 246.369 249.503 246.701 247.7C246.986 245.944 246.986 244.141 247.27 242.385C247.602 240.439 247.602 238.446 247.792 236.501C247.982 234.65 248.219 232.847 248.409 231.043C248.552 229.715 248.552 228.386 248.789 227.057C249.074 225.254 249.121 223.403 249.263 221.552C249.453 219.464 249.738 217.376 249.928 215.288C250.07 213.77 250.165 212.251 250.355 210.733C250.64 208.407 250.734 206.035 250.924 203.709C250.545 203.14 249.928 202.95 249.358 202.665C247.27 201.716 245.23 200.767 243.142 199.818C240.105 198.395 237.068 197.018 233.983 195.595C233.746 195.5 233.508 195.405 233.271 195.357C231.563 198.157 229.807 201.005 228.099 203.804C225.346 208.218 222.594 212.678 219.841 217.092C218.75 218.8 217.706 220.556 216.662 222.264C216.33 222.786 215.998 223.356 215.191 223.356C214.384 223.356 214.194 222.644 214.005 222.027C213.91 221.742 213.815 221.41 213.72 221.125C213.15 219.18 212.533 217.234 211.964 215.288C210.92 218.278 209.781 221.268 208.262 224.068C205.652 229.05 202.663 233.748 199.341 238.257C197.111 241.294 194.69 244.141 192.318 247.036C192.223 247.131 192.128 247.225 192.08 247.32C188.616 250.974 185.342 254.818 181.593 258.188C178.129 261.272 174.759 264.499 171.105 267.346C168.638 269.244 166.218 271.238 163.702 273.041C163.418 273.231 163.18 273.421 163.086 273.753C166.502 274.892 169.966 276.031 173.383 277.169C178.176 278.735 182.922 280.254 187.715 281.773C194.928 284.05 202.141 286.281 209.354 288.511C212.771 289.555 216.14 290.647 219.509 291.738C220.506 289.887 221.692 288.179 223.211 286.708C223.353 286.565 223.448 286.376 223.543 286.233C227.956 279.827 232.369 273.468 236.735 267.062C239.013 263.74 241.291 260.465 243.569 257.144C244.47 255.815 245.514 254.628 246.226 253.157V253.205Z" fill="#8989DE"/>
<path d="M190.324 149.518C190.419 149.613 190.514 149.708 190.609 149.755C194.453 151.416 198.107 153.552 201.856 155.402C203.897 156.446 205.89 157.585 207.883 158.677C208.262 158.677 208.642 158.677 209.022 158.677C210.303 158.487 211.252 159.104 212.011 160.005C212.296 160.338 212.533 160.717 212.723 161.144C212.913 161.524 213.15 161.761 213.625 161.619C214.526 161.239 215.381 161.477 216.235 161.809C216.899 162.093 217.564 162.283 218.275 162.188C220.316 161.144 222.356 160.148 224.444 159.151C226.248 158.297 227.766 157.016 228.953 155.402C229.522 154.643 230.092 153.884 230.708 153.125C231.847 151.748 233.271 150.894 235.169 150.989C236.735 151.084 238.349 150.989 239.962 151.037C241.813 151.131 243.331 150.467 244.708 149.376C245.894 148.427 247.033 147.383 248.077 146.244C249.216 145.01 250.307 143.776 251.541 142.684C253.012 141.356 254.341 139.885 255.622 138.414C256.571 137.322 257.52 136.183 258.517 135.139C259.134 134.475 259.703 133.81 260.415 133.241C261.127 132.624 261.507 131.675 262.361 131.2C262.646 130.346 262.361 129.54 262.124 128.78C260.463 122.089 256.666 116.774 251.256 112.551C246.274 108.659 240.627 106.334 234.457 105.148C227.482 103.866 220.601 104.341 213.862 106.429C212.913 106.714 212.011 106.999 211.062 106.619C211.062 107.283 210.683 107.615 210.113 107.948C207.645 109.371 205.273 110.937 203.09 112.835C201.381 114.307 199.863 115.825 198.392 117.533C196.161 120.191 194.311 123.038 192.84 126.17C191.511 128.923 190.609 131.817 189.992 134.807C189.802 135.804 189.518 136.8 189.518 137.797C189.47 141.546 189.518 145.295 190.514 148.901C190.609 149.186 190.514 149.376 190.277 149.565L190.324 149.518Z" fill="#894100"/>
<path d="M262.266 131.152C261.411 131.627 261.032 132.576 260.32 133.193C259.656 133.762 259.039 134.427 258.422 135.091C257.425 136.183 256.476 137.274 255.527 138.365C254.198 139.837 252.917 141.308 251.446 142.636C250.212 143.728 249.073 144.962 247.982 146.195C246.938 147.334 245.846 148.378 244.612 149.328C243.236 150.419 241.718 151.083 239.867 150.988C238.301 150.894 236.688 150.988 235.074 150.941C233.176 150.846 231.752 151.7 230.613 153.076C229.996 153.836 229.427 154.548 228.857 155.354C227.671 156.968 226.2 158.249 224.349 159.103C222.261 160.1 220.221 161.144 218.18 162.14C218.228 162.378 218.275 162.662 218.417 162.852C219.699 164.608 220.363 166.696 221.17 168.689C222.404 171.679 223.305 174.811 224.397 177.848C224.634 178.56 224.966 179.271 225.203 179.983C226.39 183.21 227.481 186.437 227.766 189.901C227.861 190.708 228.146 191.515 228.193 192.322C228.288 194.03 227.719 195.596 227.339 197.162C226.817 199.25 226.01 201.243 224.729 203.046C223.827 204.28 222.641 205.277 221.597 206.368C220.79 207.222 219.983 207.982 218.892 208.456C218.228 208.788 217.658 209.31 217.041 209.737C216.329 210.259 215.57 210.781 214.811 211.209C214.146 211.588 213.055 211.209 212.675 210.497C212.391 209.975 212.486 209.31 213.102 208.788C214.004 207.982 214.858 207.08 215.902 206.558C217.895 205.514 219.319 203.995 220.933 202.524C222.119 201.433 222.831 200.152 223.448 198.728C223.685 198.158 223.97 197.542 224.112 196.972C224.539 195.074 225.441 193.271 224.776 191.23C224.681 190.993 224.776 190.708 224.776 190.471C224.634 189.332 224.492 188.193 224.254 187.101C223.875 185.63 223.4 184.159 222.926 182.736C222.356 181.027 221.739 179.366 221.122 177.705C220.173 174.953 219.224 172.201 218.228 169.448C217.943 168.594 217.516 167.835 217.089 167.028C216.709 166.364 216.14 165.842 215.475 165.462C214.906 165.13 214.431 165.225 213.862 165.462C213.34 165.652 213.008 165.889 212.865 166.459C212.77 166.886 212.486 167.265 212.343 167.693C211.109 171.299 209.401 174.716 207.645 178.133C207.313 178.749 206.981 179.366 206.554 179.936C205.462 181.549 203.991 182.546 201.951 182.451C201.713 182.451 201.429 182.451 201.191 182.451C201.002 183.21 200.812 183.922 200.29 184.491C200.385 185.108 200.337 185.725 200.29 186.39C200.052 187.813 199.863 189.237 199.625 190.661C199.293 192.464 199.198 194.267 198.676 196.023C198.866 196.26 199.008 196.592 199.198 196.782C200.717 198.206 202.33 199.582 203.754 201.101C205.367 202.714 206.981 204.328 208.31 206.226C209.259 207.602 210.303 208.836 211.347 210.165C211.631 210.497 211.869 210.876 212.153 211.209C212.723 211.92 212.818 212.68 212.581 213.534C212.391 214.151 212.248 214.768 212.106 215.385C212.675 217.33 213.292 219.276 213.862 221.221C213.957 221.506 214.052 221.838 214.147 222.123C214.336 222.74 214.526 223.404 215.333 223.452C216.092 223.452 216.424 222.93 216.804 222.36C217.895 220.652 218.939 218.896 219.983 217.188C222.736 212.775 225.488 208.314 228.241 203.9C229.996 201.101 231.705 198.253 233.413 195.454C232.844 194.362 232.939 193.318 233.176 192.132C233.793 189.19 234.457 186.295 235.169 183.4C235.264 183.115 235.311 182.783 235.406 182.498C235.833 181.454 236.545 180.837 237.732 180.932C238.538 181.027 239.392 181.027 240.199 181.17C242.572 181.502 244.945 182.071 247.365 182.119C251.114 182.214 253.961 180.553 256.144 177.611C257.141 176.282 257.852 174.763 258.469 173.245C259.656 170.208 261.649 167.74 264.164 165.747C266.062 164.228 268.103 162.9 270.285 161.903C271.235 161.476 272.041 160.859 272.753 160.1C273.94 158.866 274.082 157.727 272.895 156.208C272.041 155.117 271.045 154.073 270.096 153.076C268.055 150.894 266.204 148.521 264.591 146.006C263.594 144.392 262.74 142.684 262.266 140.786C261.744 138.698 261.839 136.61 262.123 134.522C262.266 133.43 262.361 132.386 262.361 131.295L262.266 131.152Z" fill="#FFB78A"/>
<path d="M387.926 366.481C387.879 369.138 387.879 371.796 387.689 374.453C387.262 380.48 387.451 386.507 387.357 392.534C387.357 394.052 387.357 395.571 387.357 397.089C388.258 397.991 389.397 398.323 390.678 398.323C393.431 398.323 396.183 398.418 398.888 398.323C400.644 398.228 402.4 397.801 404.156 397.469C405.342 397.232 406.528 396.994 407.667 396.567C411.274 395.238 414.358 393.198 416.684 390.066C417.111 389.496 417.538 388.927 417.965 388.405C419.199 386.697 419.768 384.798 419.958 382.71C420.1 380.955 419.863 379.294 419.483 377.585C419.389 377.158 419.294 376.731 419.246 376.257C418.724 372.46 418.724 368.616 418.914 364.82C419.056 362.21 419.246 359.6 419.246 356.99C419.246 354.19 419.389 351.39 419.199 348.59C418.961 344.699 418.155 340.903 416.446 337.344C416.304 337.011 416.162 336.632 415.829 336.395C415.355 336.395 414.975 336.632 414.643 336.964C413.884 337.723 413.125 338.483 412.365 339.242C409.708 341.804 407.003 344.319 404.393 346.835C403.823 347.357 403.206 347.499 402.495 347.499C401.973 347.499 401.498 347.262 401.071 347.024C400.027 346.407 399.03 345.791 397.986 345.174C396.326 344.225 394.807 343.086 392.956 342.469C392.339 344.604 391.96 346.787 391.485 348.97C390.631 353.051 389.824 357.18 388.97 361.261C388.638 363.017 388.306 364.725 387.973 366.481H387.926Z" fill="#FFB78A"/>
<path d="M169.919 143.776C170.203 144.156 170.631 144.298 171.058 144.441C174.807 145.627 178.555 146.766 182.304 147.952C182.542 148.047 182.826 148 183.064 148.047C183.064 147.668 182.874 147.335 182.732 146.956C181.498 143.919 180.738 140.834 180.786 137.512C180.786 136.563 180.833 135.614 180.786 134.665C180.644 133.052 181.023 131.486 181.308 129.967C181.877 126.503 183.396 123.323 184.867 120.144C185.294 119.147 185.816 118.198 186.48 117.344C187.43 116.158 188.141 114.829 189.138 113.643C190.609 111.887 192.175 110.226 193.931 108.755C195.782 107.236 197.727 105.765 199.863 104.626C201.334 103.867 202.568 102.728 204.229 102.348C201.666 100.498 198.771 99.6435 195.687 99.3587C191.273 98.9791 187.24 100.071 183.586 102.586C182.589 103.25 181.593 103.962 180.596 104.674C178.413 106.192 176.705 108.138 175.329 110.368C173.335 113.548 172.149 117.012 171.247 120.618C170.773 122.517 170.441 124.462 170.061 126.408C169.776 127.832 169.634 129.303 169.681 130.774C169.681 132.055 169.681 133.336 169.634 134.57C169.634 137.607 169.634 140.692 169.919 143.729V143.776Z" fill="#894100"/>
<path d="M198.486 196.024C199.056 194.268 199.103 192.464 199.435 190.661C199.72 189.237 199.91 187.814 200.1 186.39C200.195 185.773 200.242 185.156 200.1 184.492C199.388 184.445 198.724 184.397 198.012 184.255C195.639 183.828 193.266 183.306 190.894 183.021C189.09 182.784 187.287 182.262 185.436 182.594C184.013 184.682 182.589 186.817 181.165 188.905C179.647 191.088 178.081 193.271 176.562 195.454C173.003 200.579 169.444 205.657 165.885 210.782C165.648 211.114 165.41 211.399 165.173 211.684C165.363 212.823 165.316 213.961 165.031 215.1C164.936 215.48 164.888 215.86 165.031 216.239C165.505 216.239 165.885 216.002 166.265 215.765C170.441 213.107 174.617 210.45 178.793 207.84C184.772 204.043 190.799 200.247 196.778 196.451C197.253 196.166 197.727 195.786 198.344 196.024H198.486Z" fill="#8A89DD"/>
<path d="M204.181 102.395C202.52 102.727 201.239 103.866 199.815 104.672C197.68 105.811 195.734 107.282 193.884 108.801C192.128 110.225 190.562 111.933 189.091 113.689C188.094 114.875 187.335 116.204 186.433 117.39C185.769 118.244 185.247 119.194 184.82 120.19C183.349 123.37 181.83 126.549 181.261 130.013C181.023 131.579 180.644 133.098 180.739 134.711C180.833 135.66 180.739 136.609 180.739 137.559C180.739 140.833 181.45 143.965 182.684 147.002C182.827 147.334 183.016 147.666 183.016 148.093C183.443 148.426 183.918 148.568 184.44 148.473C186.386 148.236 188.189 148.71 189.945 149.517C190.04 149.565 190.182 149.565 190.324 149.612C190.514 149.422 190.609 149.232 190.562 148.948C189.518 145.294 189.518 141.545 189.565 137.843C189.565 136.799 189.85 135.803 190.04 134.854C190.609 131.864 191.558 128.969 192.887 126.217C194.358 123.085 196.209 120.238 198.439 117.58C199.863 115.872 201.429 114.353 203.137 112.882C205.32 111.031 207.645 109.418 210.161 107.994C210.683 107.662 211.062 107.33 211.11 106.665C208.927 105.147 206.649 103.771 204.276 102.489L204.181 102.395Z" fill="#62350F"/>
<path d="M193.694 399.318C193.694 398.796 194.121 398.559 194.5 398.322C196.683 397.088 198.487 395.38 200.195 393.576C201.571 392.105 202.71 390.539 203.659 388.783C205.463 385.414 206.934 381.855 207.645 378.106C208.167 375.638 208.737 373.171 208.642 370.561C208.642 369.944 208.689 369.327 208.832 368.663C209.069 367.476 209.069 366.242 208.832 365.056C208.737 364.676 208.642 364.297 208.642 363.917C208.737 361.829 208.405 359.741 208.215 357.653C208.12 356.894 207.978 356.134 207.835 355.423C207.076 350.725 205.7 346.169 204.086 341.661C203.802 340.854 203.375 340.332 202.615 340C201.287 339.383 199.958 340.095 199.815 341.566C199.768 342.135 199.958 342.705 200.148 343.227C201.334 346.549 202.236 349.87 202.995 353.335C203.469 355.565 203.802 357.795 204.086 360.073C204.513 363.205 204.419 366.29 204.371 369.422C204.371 374.025 203.327 378.486 201.666 382.804C200.575 385.604 199.056 388.024 197.205 390.302C195.402 392.532 193.124 394.288 190.419 395.427C189.945 395.617 189.518 395.902 189.043 396.091C187.667 396.613 187.098 397.61 187.192 399.081C187.477 399.366 187.714 399.651 187.999 399.888C188.711 400.552 189.518 400.695 190.419 400.315C191.463 399.888 192.507 399.413 193.646 399.318H193.694Z" fill="#494A45"/>
<path d="M392.909 342.469C394.76 343.038 396.278 344.225 397.939 345.174C398.983 345.791 399.98 346.408 401.024 347.024C401.451 347.262 401.925 347.499 402.447 347.499C403.159 347.499 403.776 347.404 404.345 346.835C407.003 344.272 409.66 341.757 412.318 339.242C413.077 338.483 413.836 337.723 414.596 336.964C414.928 336.632 415.26 336.395 415.782 336.395C416.209 335.208 415.782 334.212 415.023 333.31C414.074 333.215 413.409 333.642 412.65 334.259C410.799 335.778 409.186 337.628 407.335 339.147C405.816 340.428 404.44 341.804 403.017 343.133C402.447 343.655 402.305 343.703 401.688 343.323C399.79 342.089 397.607 341.235 395.851 339.764C395.044 339.052 394.19 338.91 393.241 339.574C393.099 339.669 392.909 339.764 392.719 339.859C392.624 340.76 392.719 341.615 392.814 342.516L392.909 342.469Z" fill="#E6A37B"/>
<path d="M204.039 327.19C204.466 326.953 204.608 326.526 204.751 326.098C206.08 322.919 207.408 319.787 208.784 316.608C210.54 312.431 212.296 308.303 214.147 304.174C215.76 300.52 217.184 296.771 219.035 293.165C219.272 292.738 219.414 292.216 219.557 291.741C216.187 290.65 212.771 289.606 209.401 288.514C202.188 286.284 194.975 284.054 187.762 281.776C182.969 280.257 178.224 278.739 173.431 277.173C169.966 276.034 166.55 274.895 163.133 273.756C162.753 273.946 162.326 274.088 161.947 274.373C158.862 276.603 155.635 278.596 152.408 280.589C152.408 281.396 152.408 282.203 152.266 282.962C152.123 283.626 152.076 284.291 151.981 284.955C152.218 285.477 152.456 285.999 152.93 286.379C154.733 287.897 155.825 289.89 157.249 291.694C160.808 296.202 164.224 300.805 167.736 305.313C168.59 306.405 169.539 307.449 170.536 308.445C173.953 311.957 177.417 315.469 180.834 318.98C182.115 320.309 183.396 321.638 184.63 323.014C185.199 323.631 185.911 323.916 186.765 324.058C188.853 324.39 190.894 324.96 192.935 325.292C196.636 325.956 200.29 326.763 204.039 327.095V327.19Z" fill="#FFB78A"/>
<path d="M201.097 182.452C201.334 182.452 201.619 182.452 201.856 182.452C203.896 182.595 205.368 181.551 206.459 179.937C206.839 179.368 207.218 178.751 207.55 178.134C209.306 174.765 210.967 171.301 212.249 167.694C212.391 167.267 212.676 166.887 212.771 166.46C212.913 165.891 213.245 165.653 213.767 165.464C214.337 165.274 214.859 165.179 215.381 165.464C216.092 165.843 216.662 166.365 216.994 167.03C217.421 167.789 217.848 168.596 218.133 169.45C219.129 172.202 220.079 174.955 221.028 177.707C221.597 179.368 222.261 181.029 222.831 182.737C223.305 184.161 223.78 185.632 224.16 187.103C224.444 188.194 224.539 189.333 224.682 190.472C224.682 190.71 224.682 190.994 224.682 191.232C225.346 193.272 224.444 195.075 224.017 196.974C223.875 197.59 223.59 198.16 223.353 198.729C222.736 200.153 221.977 201.434 220.838 202.526C219.272 203.997 217.801 205.563 215.808 206.559C214.764 207.081 213.909 207.983 213.008 208.79C212.391 209.312 212.296 209.976 212.581 210.498C212.96 211.163 214.052 211.59 214.716 211.21C215.475 210.783 216.235 210.261 216.947 209.739C217.563 209.312 218.133 208.742 218.797 208.458C219.889 207.936 220.695 207.176 221.502 206.37C222.546 205.278 223.733 204.282 224.634 203.048C225.915 201.244 226.77 199.251 227.244 197.163C227.624 195.55 228.193 194.031 228.098 192.323C228.051 191.469 227.766 190.71 227.671 189.903C227.387 186.439 226.295 183.212 225.109 179.985C224.824 179.273 224.539 178.561 224.302 177.849C223.258 174.812 222.309 171.68 221.075 168.691C220.268 166.697 219.604 164.609 218.323 162.854C218.18 162.664 218.18 162.379 218.085 162.142C217.374 162.284 216.709 162.047 216.045 161.762C215.191 161.43 214.337 161.193 213.435 161.572C212.96 161.762 212.771 161.477 212.533 161.098C212.343 160.718 212.106 160.291 211.821 159.959C211.015 159.057 210.113 158.44 208.832 158.63C208.452 158.678 208.072 158.63 207.693 158.63C207.693 159.01 207.693 159.389 207.693 159.769C207.598 160.671 207.835 161.382 208.547 161.952C208.974 162.284 209.211 162.711 209.401 163.186C209.638 163.66 209.638 164.182 209.401 164.657C208.357 167.077 207.598 169.64 206.317 172.012C205.652 173.246 205.178 174.527 204.561 175.809C204.418 176.141 204.276 176.521 204.039 176.805C202.9 178.276 203.422 178.561 201.192 178.466C200.195 178.466 199.626 178.846 199.436 179.795C199.293 180.934 200.242 181.551 200.812 182.263L201.097 182.452Z" fill="#E6A37B"/>
<path d="M133.711 161.761C133.711 161.002 133.711 160.29 133.711 159.531C131.718 158.487 129.582 157.965 127.447 157.3C126.545 157.016 125.643 156.778 124.742 156.494C121.04 155.307 117.386 154.168 113.685 152.935C113.068 152.745 112.451 152.602 111.834 152.65C110.363 152.745 109.888 154.406 110.553 155.355C110.932 155.877 111.359 156.304 112.024 156.494C114.112 157.111 116.058 157.965 118.193 158.439C118.762 158.582 119.284 158.771 119.806 158.961C123.366 160.053 126.972 161.097 130.531 162.331C131.765 162.758 132.762 162.615 133.711 161.809V161.761Z" fill="#E6A37B"/>
<path d="M180.691 180.126C182.4 179.936 183.349 178.75 184.06 177.373C184.345 176.804 184.488 176.187 184.725 175.618C183.491 174.953 182.067 174.716 180.691 174.431C179.173 174.146 177.702 173.909 176.183 173.672C176.8 175.997 177.844 178.085 179.6 179.794H179.647C180.027 179.794 180.406 179.888 180.739 180.173L180.691 180.126Z" fill="#824416"/>
<path d="M180.691 180.126C180.406 179.841 180.027 179.794 179.599 179.746C179.694 180.221 180.074 180.41 180.501 180.553C180.549 180.41 180.596 180.268 180.643 180.126H180.691Z" fill="#E6A37B"/>
</svg>
