<svg width="500" height="500" viewBox="0 0 500 500" fill="none" xmlns="http://www.w3.org/2000/svg">
<path d="M356 235.803C356 233.443 338.18 229.344 328.102 232.077C324.046 233.195 317.533 232.946 317.533 232.946C281.524 232.822 261.245 228.475 261.245 228.475C235.928 224.873 187.506 209.721 177.92 211.087C168.334 212.453 168.826 232.325 178.658 233.443C188.858 236.672 196.355 238.287 209.382 239.28C234.454 243.255 252.274 243.752 260.754 244.497C274.641 245.615 317.902 243.379 317.902 243.379C317.902 243.379 322.695 245.118 325.767 244.994C331.42 244.745 335.845 243.752 340.638 241.64C347.52 238.908 356 238.163 356 235.803Z" fill="#ECAD83"/>
<path d="M216.328 245.779C213.862 230.913 200.67 229.684 189.327 215.555C187.971 213.835 177.614 210.272 172.806 211.132C167.504 212.115 162.203 214.081 158.997 219.241C156.531 223.295 152.463 235.09 162.08 262.98C164.422 270.106 181.806 294.678 199.683 320.725C209.793 335.468 213.985 348 213.985 348L249 311.264C242.342 304.261 213.985 272.931 213.245 257.697C213.245 257.697 217.068 249.956 216.328 245.779Z" fill="#FF8AA0"/>
<path d="M177.337 212.235C176.2 211.502 171.396 212.113 163.054 196L147 201.249C153.952 208.939 156.986 222 156.986 222C164.697 217.85 170.512 217.484 175.062 217.239C175.694 217.239 177.843 217.606 178.854 215.164C179.36 213.944 178.475 212.967 177.337 212.235Z" fill="#ECAD83"/>
<path d="M164.241 169.898C163.752 161.916 157.395 159.048 153.361 157.676C141.015 153.561 134.78 157.552 127.69 163.912C118.277 172.267 136.247 200.576 140.648 204.068C152.139 213.172 170.842 204.317 177.077 199.08C183.923 193.343 180.255 192.47 177.688 189.851C177.566 189.727 177.566 189.103 177.566 189.103C176.832 188.105 175.61 186.983 175.121 185.112C175.121 185.112 174.143 184.489 173.776 183.99C173.532 183.74 173.41 183.491 173.654 183.117C174.265 181.87 174.999 180.747 174.999 179.999C175.243 177.505 164.486 173.639 164.241 169.898Z" fill="#F6BB92"/>
<path d="M172 190C172 190 173.155 189.869 176.764 186.995C177.053 186.472 177.342 185.427 175.898 185.035C174.743 184.643 174.31 187.648 172 190Z" fill="#D6876B"/>
<path d="M172 189.734C172 189.734 174.06 190.668 177.665 189.034C178.052 188.684 178.052 188.1 177.923 187.866C177.537 186.699 176.249 187.049 176.249 187.049C173.03 189.501 172 189.734 172 189.734Z" fill="#CC785E"/>
<path d="M125.29 163.641C113.729 173.497 112.868 203.067 145.583 208.908C147.797 209.273 151.487 208.786 152.717 203.067C153.577 199.051 153.086 195.036 153.086 195.036C152.963 193.819 152.717 192.602 152.594 191.142C152.348 189.682 146.69 184.692 147.674 183.476C157.39 172.037 157.021 161.937 154.438 159.017C146.813 153.054 137.589 153.054 125.29 163.641Z" fill="#602F0F"/>
<path d="M148.306 193.791C154.661 197.628 157.076 195.908 160 192.865L151.102 185.985L146.654 184C143.73 187.043 141.951 189.822 148.306 193.791Z" fill="#F6BB92"/>
<path d="M122.25 196C117.434 196 113.759 189.529 114.012 181.62C114.266 173.591 118.448 167.12 123.263 167C128.079 167 130.233 172.393 129.98 180.421C129.727 188.45 127.065 196 122.25 196Z" fill="#4C230C"/>
<path d="M149.976 183.647C148.99 182.908 148.251 182.045 147.758 181.306C146.895 180.32 146.525 179.58 146.525 179.58L144.184 183.647C144.553 184.14 145.046 184.633 145.416 185.126C145.416 185.126 145.663 184.757 146.156 183.894V184.017C147.265 184.387 148.867 185.003 150.839 186.236C150.839 186.359 152.934 186.112 149.976 183.647Z" fill="#602F0F"/>
<path d="M120.273 197.821C115.343 197.821 111.522 190.55 111.892 181.552C112.138 172.555 116.452 165.16 121.382 165.16C126.312 165.16 128.531 171.199 128.284 180.197C127.914 189.317 125.326 197.821 120.273 197.821Z" fill="#602F0F"/>
<path d="M113.491 186C113.21 186 113 183.778 113 181.062C113.07 178.346 113.351 176 113.631 176C113.912 176 114.052 177.852 113.982 180.691C113.982 183.284 113.772 185.877 113.491 186Z" fill="#4C230C"/>
<path d="M214 347.843C222.831 364.471 245.717 363.727 256.787 359.259C291.365 345.237 257.036 292.993 250.941 299.57C245.966 305.03 241.364 309.87 237.259 314.089C232.284 319.053 214 347.843 214 347.843Z" fill="#3D3C3C"/>
<path d="M403.907 142.607C402.671 148.388 395.503 160.197 394.885 167.701C394.514 172.129 393.525 180.74 390.683 183.938C385.986 189.35 380.795 188.858 379.312 190.088C369.548 197.838 354.594 229.082 349.65 234.618C341.493 243.72 326.415 224.039 329.381 220.718C353.234 193.533 366.335 181.601 371.155 177.295C371.155 177.295 392.66 146.297 395.75 142.853C397.727 140.885 404.896 137.687 403.907 142.607Z" fill="#F6BB92"/>
<path d="M322.217 264.449C332.537 254.572 341.629 244.571 349 234.816C341.383 234.199 331.432 224.815 329.589 220C326.517 223.21 301.7 247.04 301.7 247.04C293.838 254.572 247.029 298.403 236.71 315.566C233.884 319.887 231.795 323.962 230.198 327.419C227.127 334.21 260.666 356.434 268.161 349.767C280.815 331.987 297.892 294.576 303.175 286.056C308.335 277.537 322.217 264.449 322.217 264.449Z" fill="#3D3C3C"/>
<path d="M349 250.803C349 248.443 331.083 244.344 320.951 247.077C316.874 248.195 310.325 247.946 310.325 247.946C274.121 247.822 253.733 243.475 253.733 243.475C228.279 239.873 179.596 224.721 169.958 226.087C160.32 227.453 160.814 247.325 170.699 248.443C180.955 251.672 188.492 253.287 201.59 254.28C226.797 258.255 244.713 258.752 253.239 259.497C267.202 260.615 310.696 258.379 310.696 258.379C310.696 258.379 315.515 260.118 318.604 259.994C324.287 259.745 328.736 258.752 333.555 256.64C340.598 253.908 349 253.163 349 250.803Z" fill="#F6BB92"/>
</svg>
