<svg width="500" height="500" viewBox="0 0 500 500" fill="none" xmlns="http://www.w3.org/2000/svg">
<path d="M328.494 252.664C337.19 252.641 341.424 252.235 350.115 252.386C352.675 252.428 355.099 251.458 356.758 249.579C362.79 242.758 368.067 240.964 366.436 231.224C365.458 225.394 361.011 225.262 358.734 225.313C353.719 225.425 355.579 225.688 350.56 225.661C350.448 225.672 350.336 225.711 350.228 225.695C340.619 224.265 332.6 226.712 327.002 235.149C326.151 236.429 324.879 236.518 323.46 236.382C316.16 235.683 308.853 235.041 301.545 234.38C292.219 233.649 282.874 233.1 273.571 232.129C265.556 231.294 257.626 231.124 249.599 232.129C241.093 233.193 232.521 233.699 223.98 234.48C217.662 235.06 211.348 235.706 205.03 236.293C204.036 236.386 202.95 236.603 202.041 236.32C191.536 233.065 181.058 229.724 170.572 226.403C168.797 226.364 166.976 226.562 165.248 226.252C152.941 224.048 144.45 227.578 137.873 237.763C136.018 242.294 134.947 247.065 134.003 251.825C132.7 258.402 135.059 264.263 138.477 269.754C139.509 271.413 140.681 272.982 141.786 274.591C143.043 274.645 143.677 275.646 144.481 276.377C147.377 279.006 150.679 280.99 154.109 282.853C157.426 284.655 160.392 284.849 163.647 282.676C166.029 281.086 168.736 279.988 171.299 278.674C169.401 275.712 167.498 272.75 165.6 269.789C170.688 270.879 175.711 271.652 180.122 274.301C184.53 273.57 189 274.517 193.427 273.682C201.504 272.155 209.62 270.829 217.72 269.417C228.635 267.388 239.519 265.18 250.469 263.382C260.104 261.801 269.813 260.675 279.491 259.349C288.639 257.984 297.775 256.515 306.939 255.289C314.111 254.33 321.194 252.629 328.49 252.668L328.494 252.664Z" fill="#F7BB92"/>
<path d="M328.494 252.664C321.201 252.625 314.114 254.327 306.942 255.286C297.775 256.511 288.642 257.98 279.494 259.345C274.727 264.932 270.002 270.554 265.184 276.095C254.961 287.857 244.688 299.576 234.434 311.314C234.666 312.772 233.58 313.514 232.748 314.377C220.569 327.016 211.084 341.43 204.206 357.573C203.8 358.52 203.792 359.858 202.339 360.055C209.476 373.588 220.797 380.698 235.969 381.336C242.739 381.622 249.614 382.179 256.299 380.199C267.628 376.843 276.072 369.772 278.821 358.35C286.496 326.479 300.972 297.677 316.852 269.367C320.219 263.363 324.805 258.359 328.49 252.66L328.494 252.664Z" fill="#6A6D66"/>
<path d="M301.541 234.379C308.845 235.04 316.152 235.682 323.456 236.382C324.875 236.517 326.147 236.428 326.998 235.148C332.596 226.715 340.619 224.268 350.224 225.695C350.328 225.71 350.444 225.671 350.556 225.66C361.46 211.973 372.367 198.285 383.263 184.594C383.746 183.987 384.171 183.337 384.624 182.707C378.561 176.579 372.494 170.447 366.432 164.314C365.813 164.767 365.098 165.126 364.591 165.679C343.886 188.124 323.201 210.584 302.519 233.049C302.148 233.451 301.866 233.93 301.541 234.375V234.379Z" fill="#6A6D66"/>
<path d="M202.342 360.055C203.796 359.858 203.804 358.52 204.21 357.573C211.088 341.431 220.573 327.016 232.752 314.377C233.583 313.515 234.67 312.772 234.438 311.315C233.549 310.483 232.636 309.679 231.77 308.825C225.46 302.615 219.154 296.394 212.848 290.177C212.183 290.571 211.506 290.95 210.849 291.36C197.235 299.808 183.621 308.26 170.007 316.712C177.694 327.078 185.365 337.456 193.067 347.81C196.125 351.92 199.249 355.98 202.342 360.063V360.055Z" fill="#F7BB92"/>
<path d="M171.337 221.713C172.443 216.961 173.677 212.232 174.601 207.442C175.022 205.257 175.768 203.548 177.968 202.976C185.013 201.143 187.356 196.581 186.104 189.664C185.129 184.282 187.252 179.619 189.924 175.172C191.269 172.933 191.455 170.691 188.694 169.929C184.066 168.646 178.796 167.184 174.941 164.315C172.467 162.475 171.341 159.834 169.625 155.929C167.606 158.017 165.836 160.433 163.531 162.131C155.558 168.004 152.009 175.543 153.861 185.43C154.213 187.313 153.389 188.805 152.237 190.313C147.35 196.693 142.579 203.169 137.769 209.607C137.796 217.22 137.827 224.833 137.854 232.442C141.059 227.536 144.86 223.387 150.718 221.543C157.639 219.366 164.475 220.553 171.337 221.713Z" fill="#F7BB92"/>
<path d="M137.764 209.607C142.578 203.166 147.345 196.693 152.233 190.314C153.389 188.806 154.212 187.317 153.857 185.43C152.004 175.544 155.554 168.004 163.527 162.131C165.831 160.434 167.602 158.017 169.62 155.929C158.423 142.783 134.725 144.372 121.065 160.782C120.86 161.029 120.562 161.203 120.307 161.412C116.379 168.174 114.217 175.347 114.925 183.273C115.633 191.203 118.304 198.112 124.765 203.158C125.689 203.877 126.35 204.697 126.513 205.872C128.025 204.875 128.895 206.398 130.039 206.797C132.626 207.697 135.189 208.664 137.76 209.604L137.764 209.607Z" fill="#7A4821"/>
<path d="M170.003 316.705C183.617 308.253 197.227 299.801 210.845 291.352C211.502 290.942 212.179 290.564 212.844 290.169C212.179 282.935 213.485 276.165 217.576 270.048C217.688 269.878 217.677 269.623 217.723 269.406C209.623 270.818 201.507 272.144 193.43 273.671C189.003 274.506 184.533 273.559 180.126 274.29C177.291 275.968 174.384 277.487 171.302 278.663C168.739 279.977 166.032 281.075 163.651 282.664C160.395 284.837 157.429 284.644 154.112 282.842C150.682 280.979 147.381 278.995 144.485 276.366C143.68 275.635 143.046 274.634 141.79 274.58C141.821 274.904 141.743 275.295 141.894 275.546C150.454 289.817 159.494 303.76 170.003 316.701V316.705Z" fill="#8A8AD9"/>
<path d="M366.432 164.319C372.494 170.451 378.561 176.579 384.623 182.712C389.136 181.223 394.023 180.581 397.383 176.61C399.332 174.306 400.847 171.704 400.712 168.761C400.306 160.023 403.078 151.799 404.412 143.351C405.22 138.228 405.309 133.12 403.952 128.075C402.371 122.198 398.458 118.671 393.366 118.389C387.933 118.087 383.719 121.053 381.507 126.88C377.625 137.107 373.724 147.326 370.024 157.614C369.138 160.077 367.824 162.192 366.428 164.319H366.432Z" fill="#F7BB92"/>
<path d="M112.285 161.446C101.803 161.57 94.4872 170.432 95.6896 181.401C96.6137 189.842 97.3638 198.301 98.2299 206.75C99.761 221.697 98.2879 236.425 95.1174 251.04C95.0478 251.357 95.0594 251.694 95.0014 252.386C104.985 248.005 112.52 241.3 117.779 232.009C121.846 224.822 123.374 216.775 125.604 208.965C124.955 208.849 124.263 208.841 123.66 208.602C109.508 203.022 104.737 189.231 106.504 176.232C107.239 170.83 109.791 166.152 112.288 161.446H112.285Z" fill="#7A4821"/>
<path d="M112.285 161.447C109.787 166.152 107.235 170.831 106.501 176.232C104.734 189.231 109.505 203.023 123.656 208.602C124.26 208.838 124.952 208.85 125.601 208.966C126.278 208.046 126.375 206.955 126.518 205.88C126.355 204.705 125.694 203.889 124.77 203.166C118.309 198.12 115.637 191.211 114.93 183.281C114.222 175.351 116.384 168.179 120.312 161.42C117.636 161.432 114.961 161.443 112.285 161.455V161.447Z" fill="#5B3719"/>
<path d="M171.337 221.712C164.474 220.552 157.639 219.365 150.718 221.542C144.86 223.386 141.059 227.531 137.854 232.442C137.862 234.212 137.869 235.987 137.877 237.758C144.454 227.574 152.949 224.044 165.252 226.247C166.98 226.557 168.797 226.36 170.576 226.398C170.831 224.836 171.086 223.274 171.341 221.712H171.337Z" fill="#DCA782"/>
<path d="M171.298 278.67C174.38 277.495 177.287 275.975 180.122 274.297C175.71 271.649 170.687 270.876 165.599 269.785C167.498 272.747 169.4 275.709 171.298 278.67Z" fill="#DEA881"/>
</svg>
