<svg width="500" height="500" viewBox="0 0 500 500" fill="none" xmlns="http://www.w3.org/2000/svg">
<path d="M334.468 252.873C343.849 252.848 348.416 252.41 357.793 252.573C360.554 252.619 363.169 251.572 364.959 249.545C371.465 242.187 377.159 240.252 375.399 229.745C374.343 223.455 369.547 223.314 367.09 223.368C361.68 223.489 363.686 223.772 358.272 223.743C358.151 223.756 358.03 223.797 357.914 223.781C347.549 222.237 338.898 224.878 332.858 233.979C331.941 235.359 330.569 235.455 329.038 235.309C321.163 234.554 313.28 233.862 305.397 233.149C295.336 232.36 285.255 231.768 275.219 230.721C266.573 229.82 258.018 229.637 249.359 230.721C240.183 231.868 230.936 232.415 221.722 233.257C214.907 233.883 208.095 234.579 201.28 235.213C200.208 235.314 199.036 235.547 198.056 235.243C186.723 231.731 175.42 228.127 164.108 224.544C162.194 224.502 160.229 224.715 158.365 224.381C145.088 222.004 135.929 225.812 128.834 236.798C126.832 241.687 125.676 246.834 124.659 251.968C123.253 259.063 125.797 265.386 129.485 271.309C130.598 273.099 131.862 274.792 133.055 276.527C134.411 276.586 135.095 277.666 135.962 278.454C139.086 281.291 142.648 283.43 146.348 285.441C149.927 287.384 153.126 287.593 156.638 285.249C159.207 283.535 162.127 282.35 164.892 280.932C162.844 277.737 160.792 274.542 158.744 271.347C164.233 272.523 169.651 273.357 174.41 276.214C179.165 275.426 183.987 276.448 188.763 275.547C197.476 273.899 206.231 272.469 214.969 270.946C226.744 268.757 238.485 266.375 250.298 264.436C260.692 262.73 271.165 261.516 281.605 260.085C291.474 258.613 301.33 257.028 311.215 255.706C318.952 254.671 326.594 252.836 334.464 252.878L334.468 252.873Z" fill="#F7BB92"/>
<path d="M334.468 252.874C326.601 252.833 318.956 254.668 311.219 255.702C301.329 257.024 291.477 258.609 281.609 260.082C276.466 266.109 271.369 272.174 266.172 278.151C255.144 290.839 244.061 303.481 233 316.144C233.25 317.717 232.078 318.518 231.181 319.448C218.043 333.083 207.811 348.632 200.391 366.046C199.953 367.068 199.945 368.511 198.376 368.724C206.076 383.322 218.289 390.993 234.656 391.681C241.959 391.99 249.375 392.59 256.587 390.455C268.808 386.834 277.917 379.206 280.883 366.884C289.162 332.503 304.779 301.433 321.909 270.893C325.542 264.415 330.489 259.018 334.464 252.87L334.468 252.874Z" fill="#6A6D66"/>
<path d="M305.393 233.148C313.272 233.861 321.155 234.554 329.034 235.309C330.565 235.455 331.937 235.359 332.854 233.978C338.894 224.881 347.549 222.241 357.91 223.78C358.022 223.797 358.147 223.755 358.268 223.743C370.031 208.977 381.797 194.212 393.551 179.442C394.072 178.787 394.531 178.087 395.019 177.407C388.479 170.796 381.935 164.181 375.394 157.565C374.727 158.053 373.955 158.441 373.409 159.038C351.073 183.25 328.759 207.48 306.448 231.713C306.047 232.147 305.743 232.664 305.393 233.144V233.148Z" fill="#6A6D66"/>
<path d="M198.381 368.723C199.949 368.511 199.957 367.067 200.395 366.046C207.816 348.632 218.047 333.082 231.186 319.447C232.082 318.517 233.255 317.716 233.004 316.144C232.045 315.247 231.061 314.379 230.126 313.458C223.319 306.759 216.516 300.048 209.713 293.341C208.996 293.766 208.266 294.175 207.557 294.617C192.871 303.731 178.185 312.849 163.499 321.966C171.791 333.149 180.066 344.344 188.375 355.514C191.674 359.948 195.044 364.327 198.381 368.732V368.723Z" fill="#F7BB92"/>
<path d="M164.934 219.485C166.126 214.359 167.457 209.258 168.454 204.09C168.908 201.733 169.713 199.89 172.087 199.272C179.686 197.295 182.214 192.373 180.863 184.912C179.811 179.105 182.101 174.075 184.984 169.279C186.435 166.864 186.635 164.444 183.657 163.623C178.664 162.238 172.979 160.661 168.821 157.566C166.151 155.581 164.938 152.732 163.086 148.52C160.908 150.772 158.998 153.379 156.512 155.21C147.912 161.546 144.083 169.679 146.081 180.344C146.46 182.376 145.572 183.986 144.329 185.612C139.057 192.494 133.91 199.481 128.721 206.426C128.75 214.638 128.783 222.851 128.813 231.059C132.27 225.766 136.37 221.291 142.69 219.301C150.156 216.953 157.53 218.234 164.934 219.485Z" fill="#F7BB92"/>
<path d="M128.716 206.426C133.909 199.477 139.052 192.495 144.324 185.613C145.571 183.986 146.46 182.38 146.076 180.345C144.078 169.679 147.907 161.546 156.508 155.21C158.993 153.379 160.904 150.772 163.081 148.52C151.002 134.339 125.438 136.053 110.702 153.755C110.481 154.021 110.159 154.209 109.884 154.434C105.646 161.73 103.315 169.467 104.078 178.017C104.841 186.572 107.723 194.026 114.693 199.469C115.69 200.245 116.403 201.129 116.579 202.397C118.209 201.321 119.148 202.964 120.383 203.394C123.173 204.365 125.938 205.408 128.712 206.422L128.716 206.426Z" fill="#7A4821"/>
<path d="M163.494 321.958C178.18 312.841 192.862 303.723 207.552 294.609C208.262 294.167 208.991 293.758 209.709 293.333C208.991 285.529 210.401 278.225 214.814 271.627C214.935 271.443 214.923 271.168 214.973 270.935C206.234 272.457 197.479 273.888 188.766 275.535C183.99 276.436 179.169 275.414 174.414 276.203C171.356 278.013 168.22 279.652 164.896 280.92C162.13 282.338 159.211 283.523 156.641 285.237C153.129 287.581 149.93 287.372 146.351 285.429C142.652 283.418 139.09 281.279 135.966 278.442C135.098 277.654 134.414 276.574 133.058 276.515C133.092 276.866 133.008 277.287 133.171 277.558C142.406 292.953 152.157 307.994 163.494 321.954V321.958Z" fill="#8A8AD9"/>
<path d="M375.394 157.57C381.934 164.185 388.478 170.796 395.019 177.411C399.886 175.806 405.158 175.113 408.783 170.83C410.885 168.344 412.52 165.537 412.374 162.362C411.936 152.936 414.927 144.064 416.366 134.951C417.238 129.424 417.333 123.914 415.869 118.471C414.163 112.131 409.942 108.327 404.449 108.023C398.589 107.697 394.043 110.896 391.657 117.182C387.469 128.214 383.261 139.238 379.269 150.337C378.314 152.994 376.896 155.276 375.39 157.57H375.394Z" fill="#F7BB92"/>
<path d="M101.23 154.472C89.922 154.605 82.0304 164.165 83.3276 175.998C84.3245 185.104 85.1337 194.23 86.068 203.343C87.7197 219.468 86.1305 235.356 82.7103 251.122C82.6352 251.464 82.6477 251.827 82.5851 252.574C93.3547 247.848 101.484 240.615 107.157 230.592C111.544 222.839 113.192 214.159 115.599 205.733C114.898 205.608 114.151 205.6 113.501 205.341C98.2347 199.322 93.0877 184.444 94.9939 170.422C95.7864 164.595 98.5393 159.548 101.234 154.472H101.23Z" fill="#7A4821"/>
<path d="M101.23 154.473C98.5356 159.549 95.7827 164.596 94.9902 170.422C93.0841 184.445 98.2311 199.323 113.497 205.342C114.148 205.597 114.894 205.609 115.595 205.734C116.325 204.741 116.429 203.565 116.583 202.406C116.408 201.138 115.695 200.258 114.698 199.478C107.728 194.035 104.846 186.581 104.083 178.026C103.32 169.471 105.651 161.734 109.889 154.443C107.003 154.456 104.116 154.468 101.23 154.481V154.473Z" fill="#5B3719"/>
<path d="M164.934 219.484C157.53 218.233 150.156 216.953 142.69 219.301C136.371 221.29 132.271 225.762 128.813 231.059C128.821 232.969 128.83 234.884 128.838 236.794C135.933 225.808 145.097 221.999 158.369 224.377C160.233 224.711 162.193 224.498 164.112 224.54C164.387 222.854 164.663 221.169 164.938 219.484H164.934Z" fill="#DCA782"/>
<path d="M164.891 280.929C168.216 279.661 171.352 278.022 174.41 276.211C169.651 273.354 164.232 272.52 158.743 271.344C160.791 274.539 162.843 277.734 164.891 280.929Z" fill="#DEA881"/>
</svg>
