<svg width="501" height="501" viewBox="0 0 501 501" fill="none" xmlns="http://www.w3.org/2000/svg">
<path d="M364.878 234.987C364.878 232.318 344.422 227.681 332.854 230.772C328.198 232.037 320.721 231.756 320.721 231.756C279.385 231.615 256.107 226.698 256.107 226.698C227.045 222.624 171.461 205.483 160.457 207.029C149.453 208.574 150.017 231.053 161.303 232.318C173.013 235.97 181.618 237.797 196.573 238.921C225.352 243.416 245.809 243.978 255.543 244.821C271.485 246.086 321.144 243.557 321.144 243.557C321.144 243.557 326.646 245.524 330.173 245.383C336.663 245.102 341.741 243.978 347.244 241.59C355.144 238.499 364.878 237.656 364.878 234.987Z" fill="#ECAD83"/>
<path d="M204.083 246.833C201.223 229.777 185.924 228.367 172.769 212.157C171.196 210.183 159.185 206.095 153.609 207.082C147.461 208.21 141.312 210.465 137.595 216.386C134.735 221.037 130.016 234.57 141.169 266.568C143.886 274.744 164.047 302.937 184.78 332.821C196.504 349.736 201.366 364.115 201.366 364.115L241.974 321.967C234.252 313.932 201.366 277.986 200.508 260.507C200.508 260.507 204.941 251.626 204.083 246.833Z" fill="#FF8AA0"/>
<path d="M159.755 207.33C158.417 206.483 152.769 207.189 142.96 188.536L124.085 194.612C132.26 203.515 135.827 218.635 135.827 218.635C144.892 213.831 151.729 213.407 157.079 213.124C157.822 213.124 160.349 213.548 161.538 210.722C162.133 209.309 161.092 208.178 159.755 207.33Z" fill="#ECAD83"/>
<path d="M144.366 158.641C143.811 149.401 136.598 146.08 132.021 144.492C118.011 139.728 110.937 144.348 102.891 151.711C92.2107 161.384 112.601 194.156 117.595 198.198C130.633 208.737 151.856 198.487 158.93 192.423C166.698 185.782 162.537 184.772 159.624 181.74C159.485 181.595 159.485 180.874 159.485 180.874C158.653 179.719 157.266 178.419 156.711 176.254C156.711 176.254 155.601 175.532 155.185 174.954C154.908 174.666 154.769 174.377 155.047 173.944C155.74 172.5 156.572 171.201 156.572 170.335C156.85 167.447 144.643 162.972 144.366 158.641Z" fill="#F6BB92"/>
<path d="M153.349 181.848C153.349 181.848 154.701 181.716 158.925 178.832C159.263 178.308 159.601 177.259 157.911 176.866C156.559 176.473 156.052 179.488 153.349 181.848Z" fill="#D6876B"/>
<path d="M153.349 181.552C153.349 181.552 155.645 182.593 159.664 180.771C160.095 180.381 160.095 179.73 159.951 179.47C159.521 178.168 158.085 178.559 158.085 178.559C154.497 181.292 153.349 181.552 153.349 181.552Z" fill="#CC785E"/>
<path d="M99.6584 151.616C86.6855 162.909 85.7194 196.788 122.43 203.481C124.914 203.899 129.054 203.341 130.434 196.788C131.4 192.188 130.848 187.587 130.848 187.587C130.71 186.192 130.434 184.798 130.296 183.125C130.02 181.452 123.672 175.736 124.776 174.342C135.679 161.236 135.265 149.664 132.367 146.318C123.81 139.486 113.459 139.486 99.6584 151.616Z" fill="#602F0F"/>
<path d="M126.303 186.074C133.277 190.352 135.927 188.434 139.135 185.042L129.372 177.372L124.49 175.159C121.281 178.552 119.329 181.649 126.303 186.074Z" fill="#F6BB92"/>
<path d="M95.9459 188.537C90.4097 188.537 86.1847 181.261 86.4761 172.368C86.7675 163.34 91.5752 156.064 97.1113 155.93C102.647 155.93 105.124 161.993 104.833 171.021C104.541 180.048 101.482 188.537 95.9459 188.537Z" fill="#4C230C"/>
<path d="M127.876 174.712C126.741 173.861 125.89 172.868 125.323 172.016C124.33 170.881 123.904 170.03 123.904 170.03L121.208 174.712C121.634 175.279 122.202 175.847 122.627 176.414C122.627 176.414 122.911 175.989 123.478 174.996V175.137C124.755 175.563 126.599 176.272 128.869 177.691C128.869 177.833 131.281 177.549 127.876 174.712Z" fill="#602F0F"/>
<path d="M93.686 191.027C88.0114 191.027 83.6136 182.657 84.0392 172.301C84.3229 161.944 89.2882 153.433 94.9627 153.433C100.637 153.433 103.191 160.384 102.907 170.74C102.482 181.238 99.5024 191.027 93.686 191.027Z" fill="#602F0F"/>
<path d="M86.0365 177.667C85.8019 177.667 85.626 175.066 85.626 171.887C85.6846 168.708 85.9192 165.962 86.1538 165.962C86.3885 165.962 86.5058 168.13 86.4471 171.453C86.4471 174.488 86.2712 177.523 86.0365 177.667Z" fill="#4C230C"/>
<path d="M201.005 363.654C211.189 382.854 237.582 381.994 250.348 376.836C290.224 360.645 250.635 300.325 243.606 307.919C237.869 314.223 232.562 319.811 227.828 324.682C222.091 330.413 201.005 363.654 201.005 363.654Z" fill="#3D3C3C"/>
<path d="M419.953 127.983C418.534 134.61 410.303 148.148 409.593 156.75C409.167 161.826 408.032 171.697 404.768 175.364C399.376 181.569 393.415 181.004 391.712 182.415C380.501 191.299 363.33 227.117 357.654 233.462C348.288 243.897 330.974 221.335 334.38 217.527C361.769 186.363 376.812 172.685 382.346 167.749C382.346 167.749 407.039 132.213 410.587 128.265C412.857 126.008 421.088 122.342 419.953 127.983Z" fill="#F6BB92"/>
<path d="M325.845 268.028C337.664 256.68 348.075 245.191 356.517 233.985C347.794 233.276 336.397 222.496 334.287 216.964C330.769 220.652 302.348 248.028 302.348 248.028C293.344 256.68 239.738 307.035 227.919 326.752C224.683 331.716 222.291 336.397 220.462 340.369C216.945 348.17 255.355 373.702 263.938 366.042C278.43 345.617 297.987 302.638 304.037 292.851C309.946 283.063 325.845 268.028 325.845 268.028Z" fill="#3D3C3C"/>
<path d="M356.517 251.709C356.517 249.039 335.98 244.403 324.366 247.494C319.692 248.758 312.186 248.477 312.186 248.477C270.687 248.337 247.318 243.42 247.318 243.42C218.142 239.345 162.338 222.205 151.291 223.751C140.243 225.296 140.81 247.775 152.14 249.039C163.896 252.692 172.536 254.518 187.549 255.642C216.442 260.138 236.979 260.7 246.751 261.543C262.756 262.808 312.611 260.279 312.611 260.279C312.611 260.279 318.134 262.246 321.675 262.105C328.19 261.824 333.289 260.7 338.813 258.312C346.886 255.221 356.517 254.378 356.517 251.709Z" fill="#F6BB92"/>
</svg>
