<svg width="500" height="500" viewBox="0 0 500 500" fill="none" xmlns="http://www.w3.org/2000/svg">
<path d="M198.069 334.781C197.893 333.44 197.681 332.1 197.575 330.795C197.47 329.771 197.54 328.748 197.434 327.761C197.187 325.573 197.223 323.386 196.905 321.199C196.693 319.682 196.623 318.165 196.482 316.683C196.376 315.801 196.341 314.884 196.129 314.002C195.741 312.238 195.988 310.404 195.565 308.64C195.529 308.463 195.529 308.287 195.529 308.146C195.6 306.064 195.141 304.018 195.106 301.902C195.106 300.949 194.965 299.997 194.753 299.044C194.436 297.598 194.4 296.151 194.224 294.705C193.977 292.518 193.871 290.33 193.73 288.143C193.554 285.391 193.518 282.64 193.166 279.888C192.777 276.713 192.425 273.538 192.354 270.327C192.284 268.034 192.213 265.706 192.037 263.413C191.896 261.473 191.543 259.497 191.261 257.557C191.19 257.063 191.155 256.569 191.084 256.04C190.872 254.135 190.626 252.265 190.484 250.36C190.308 247.961 189.814 245.562 190.343 243.128C190.484 242.528 190.379 241.893 190.379 241.258C190.379 239.918 190.414 238.542 190.379 237.201C190.308 234.59 190.837 232.05 191.225 229.51C191.366 228.664 191.578 227.852 191.684 227.006C191.79 226.088 192.072 225.242 192.389 224.395C193.624 221.079 195.353 218.045 197.822 215.505C200.292 212.93 203.29 211.201 206.818 210.46C207.312 210.354 207.806 210.248 208.3 210.143C208.335 210.707 208.3 211.271 208.441 211.836C209.041 214.517 209.288 217.269 209.641 220.021C210.099 223.266 210.381 226.512 210.769 229.757C210.875 230.816 211.052 231.874 211.158 232.932C211.475 235.331 211.757 237.73 212.075 240.129C212.181 241.011 212.357 241.928 212.392 242.81C212.533 244.645 212.392 246.515 212.71 248.384C212.992 249.866 212.957 251.418 213.133 252.935C213.415 255.44 213.768 257.945 214.086 260.449C214.333 262.39 214.58 264.365 214.862 266.306C215.497 270.433 216.167 274.526 216.767 278.653C217.261 281.934 217.684 285.215 218.213 288.496C218.425 289.766 218.495 291.071 219.025 292.271C219.201 292.271 219.377 292.271 219.518 292.271C222.482 291.671 225.481 291.106 228.479 290.683C230.384 290.401 232.254 290.189 234.159 290.013C236.946 289.731 239.768 289.413 242.591 289.378C247.283 289.378 251.939 289.378 256.631 289.413C257.09 289.413 257.549 289.413 257.972 289.484C259.701 289.872 261.429 289.766 263.193 290.013C265.204 290.26 267.215 290.577 269.19 290.93C272.189 291.424 275.117 292.2 278.01 293.153C277.869 294.775 277.834 296.398 277.551 298.021C277.304 299.573 277.269 301.161 277.093 302.713C276.846 304.759 276.528 306.841 276.669 308.922C276.669 309.134 276.669 309.381 276.634 309.592C276.422 311.144 276.211 312.697 275.964 314.249C275.858 314.849 275.717 315.448 275.682 316.083C275.576 317.777 275.541 319.435 275.399 321.128C275.188 323.704 275.294 326.279 275.011 328.854C274.87 330.195 275.011 331.571 275.011 332.911C275.011 333.899 275.117 334.816 275.47 335.733C274.941 335.769 274.412 335.804 273.882 335.839C273.6 335.839 273.318 335.875 273.036 335.839C270.002 335.698 266.968 335.945 263.934 336.122C263.546 336.122 263.123 336.122 262.77 336.263C262.064 336.474 261.323 336.474 260.582 336.474C257.76 336.439 254.938 336.404 252.151 336.263C246.224 336.016 240.333 335.945 234.406 335.839C232.078 335.804 229.784 335.839 227.456 335.733C225.763 335.698 224.069 335.522 222.411 335.416C222.447 334.852 222.552 334.287 222.552 333.723C222.552 332.311 222.411 330.936 222.235 329.524C221.988 327.443 221.635 325.397 221.318 323.351C221 321.234 220.753 319.117 220.471 317.001C220.259 315.484 220.083 314.002 219.907 312.485C219.73 310.968 219.554 309.451 219.483 307.969C219.448 306.946 219.201 305.994 218.919 305.041C218.848 305.853 218.848 306.629 218.848 307.405C218.848 314.108 218.848 320.811 219.095 327.514C219.201 329.666 219.095 331.782 219.095 333.934C219.095 334.322 219.095 334.71 219.095 335.134C219.095 335.522 219.342 335.733 219.73 335.769C220.295 335.769 220.859 335.769 221.424 335.804C220.894 336.298 220.224 336.016 219.66 336.086C219.342 336.157 219.13 336.298 219.13 336.615C219.13 336.898 219.13 337.18 219.13 337.462C219.13 340.99 219.13 344.553 219.166 348.081C219.166 348.54 219.201 348.963 219.236 349.421C219.448 352.173 219.871 354.89 219.836 357.641C219.801 359.723 220.048 361.804 220.259 363.85C220.118 364.415 220.542 364.662 220.824 364.979C223.223 367.343 225.586 369.707 227.985 372.07C228.303 372.388 228.656 372.67 229.008 372.952C230.137 374.434 231.513 375.633 232.854 376.903C232.96 377.009 233.171 376.974 233.312 377.044C233.242 377.433 233.665 377.821 233.348 378.173C232.748 378.879 233.03 379.408 233.595 379.902C234.124 380.396 234.653 380.925 235.182 381.384C236.099 382.125 237.017 382.83 237.934 383.571C239.345 384.665 240.721 385.829 242.132 386.887C243.437 387.875 244.742 388.792 246.083 389.745C246.683 390.168 247.036 390.732 246.718 391.473C246.471 392.073 246.542 392.673 246.506 393.308C246.436 394.331 246.648 395.319 246.859 396.271C246.506 396.271 246.189 396.342 245.836 396.342C238.957 396.342 232.042 396.342 225.163 396.377C224.704 396.377 224.281 396.306 223.822 396.271C223.717 396.024 223.576 395.742 223.258 395.742C222.376 395.742 221.635 395.319 220.894 394.931C218.672 393.802 216.555 392.532 214.685 390.909C213.803 390.133 212.921 389.321 212.004 388.58C209.288 386.393 207.101 383.783 205.548 380.678C205.372 380.325 205.125 380.008 204.984 379.655C203.326 376.304 201.95 372.882 201.773 369.107C201.773 368.613 201.703 368.084 201.456 367.625C201.456 367.131 201.456 366.637 201.421 366.143C201.209 364.168 200.962 362.192 200.75 360.217C200.892 358.982 200.539 357.747 200.503 356.548C200.433 353.796 199.974 351.08 199.657 348.363C199.445 346.352 199.128 344.377 199.057 342.331C199.057 341.66 198.951 340.99 198.845 340.32C198.563 338.485 198.281 336.651 197.999 334.852L198.069 334.781Z" fill="#FFB78A"/>
<path d="M278.046 293.117C275.153 292.165 272.225 291.424 269.226 290.895C267.216 290.542 265.24 290.26 263.229 289.977C261.5 289.766 259.737 289.836 258.008 289.448C257.585 289.342 257.126 289.378 256.667 289.378C251.975 289.378 247.319 289.342 242.626 289.342C239.804 289.342 237.017 289.66 234.195 289.977C232.29 290.154 230.385 290.401 228.515 290.648C225.516 291.071 222.518 291.635 219.554 292.235C219.413 292.235 219.237 292.235 219.061 292.235C218.496 291.036 218.461 289.695 218.249 288.46C217.72 285.179 217.297 281.899 216.803 278.618C216.168 274.49 215.497 270.398 214.898 266.27C214.615 264.33 214.369 262.354 214.122 260.414C213.804 257.909 213.487 255.405 213.169 252.9C212.993 251.383 212.993 249.866 212.746 248.349C212.428 246.514 212.569 244.645 212.428 242.775C212.358 241.893 212.217 240.976 212.111 240.094C211.793 237.695 211.511 235.296 211.193 232.897C211.052 231.839 210.911 230.78 210.805 229.722C210.417 226.476 210.135 223.231 209.677 219.985C209.288 217.269 209.077 214.517 208.477 211.801C208.371 211.271 208.371 210.672 208.336 210.107C208.759 209.649 209.394 209.79 209.923 209.649C213.381 208.661 216.838 207.673 220.295 206.756C223.858 205.803 227.492 204.921 231.055 204.004C232.255 203.687 233.419 203.334 234.618 202.981C235.006 202.875 235.324 202.628 235.5 202.275C235.712 202.311 235.888 202.381 236.1 202.416C236.276 202.699 236.488 202.91 236.806 202.981C237.017 203.404 237.37 203.616 237.793 203.722C238.04 203.933 238.252 204.11 238.499 204.322C238.711 204.745 239.063 204.957 239.487 205.098C239.663 205.38 239.875 205.592 240.192 205.697C240.404 206.121 240.757 206.332 241.18 206.474C241.356 206.756 241.568 206.967 241.886 207.073C242.097 207.497 242.45 207.708 242.873 207.849C243.05 208.132 243.262 208.343 243.579 208.414C243.791 208.837 244.143 209.049 244.567 209.19C244.743 209.472 244.955 209.684 245.272 209.79C245.484 210.213 245.837 210.425 246.26 210.566C246.437 210.848 246.648 211.06 246.966 211.166C247.248 211.73 247.812 211.942 248.306 212.259C248.518 212.4 248.694 212.189 248.765 211.977C249.612 211.518 250.458 210.989 251.093 210.248C251.517 210.107 251.869 209.896 252.081 209.507C252.187 209.402 252.328 209.331 252.434 209.225C252.857 209.119 253.21 208.908 253.422 208.484C253.739 208.379 253.951 208.167 254.127 207.92C254.551 207.779 254.903 207.567 255.15 207.144C255.256 207.038 255.362 206.967 255.503 206.862C255.926 206.756 256.279 206.509 256.491 206.121C257.69 205.345 258.89 204.533 259.878 203.51C260.301 203.369 260.654 203.157 260.901 202.769C261.042 202.734 261.183 202.699 261.289 202.663C262.03 203.51 262.982 203.933 264.04 204.216C267.533 205.239 271.026 206.332 274.553 207.355C278.258 208.449 281.997 209.543 285.701 210.636C287.042 211.024 288.383 211.483 289.723 211.906C289.582 212.4 289.441 212.859 289.3 213.353C288.735 215.258 288.453 217.198 288.1 219.138C287.677 221.361 287.324 223.584 286.936 225.771C286.513 228.205 286.089 230.639 285.701 233.073C285.313 235.402 284.961 237.73 284.572 240.058C284.255 241.928 283.973 243.833 283.549 245.703C283.161 247.361 282.738 248.984 282.844 250.677C282.844 250.959 282.809 251.242 282.773 251.524C282.491 253.464 282.174 255.405 281.891 257.345C281.397 260.52 280.974 263.695 280.374 266.835C279.916 269.269 279.81 271.738 279.563 274.208C279.351 276.395 279.281 278.582 279.14 280.77C279.14 280.981 279.069 281.228 279.034 281.44C278.857 283.557 278.469 285.673 278.469 287.825C278.469 289.237 278.469 290.648 278.469 292.059C278.152 292.341 278.222 292.764 278.152 293.117H278.046Z" fill="#8989DE"/>
<path d="M331.634 334.817C337.173 335.593 342.641 336.686 348.038 338.133C354.036 339.72 359.856 341.837 365.325 344.871C368.676 346.741 371.816 348.928 374.462 351.75C377.249 354.714 379.26 358.136 380.106 362.157C380.565 364.38 380.671 366.638 380.353 368.895C380.142 370.518 379.436 372.035 378.73 373.517C376.72 377.856 373.509 381.066 369.487 383.571C364.055 386.923 358.304 389.639 352.272 391.721C348.991 392.849 345.604 393.802 342.182 394.437C340.312 394.79 338.443 395.178 336.538 395.495C335.197 395.707 333.856 395.742 332.516 395.919C330.046 396.271 327.577 396.271 325.107 396.271C309.162 396.271 293.18 396.271 277.235 396.271C276.847 396.271 276.458 396.271 276.035 396.236C276.282 395.989 276.494 395.742 276.741 395.531C277.729 394.79 278.716 394.049 279.739 393.308C281.433 392.038 282.914 390.592 284.184 388.934C286.266 386.288 288.171 383.501 289.723 380.502C290.182 379.62 290.746 378.773 291.24 377.856C292.757 375.104 294.239 372.317 294.697 369.142C294.803 368.472 295.015 367.837 295.156 367.202C295.65 367.096 296.144 366.99 296.638 366.92C298.966 366.496 301.259 366.073 303.588 365.65C304.858 365.403 306.128 365.121 307.362 364.874C310.29 364.345 313.183 363.815 316.111 363.251C317.981 362.898 319.851 362.545 321.721 362.122C324.966 361.452 328.177 360.746 331.422 360.041C332.304 359.829 333.151 359.547 333.927 359.053C335.373 358.1 336.044 356.76 335.938 355.031C335.938 354.537 335.656 354.22 335.232 353.973C334.421 353.549 333.609 353.62 332.763 353.761C332.375 353.832 331.987 353.937 331.599 353.973C329.658 354.22 327.718 354.431 325.778 354.749C322.92 355.243 320.063 355.807 317.205 356.301C314.242 356.83 311.243 357.254 308.244 357.747C305.21 358.277 302.176 358.806 299.178 359.441C298.296 359.617 297.414 359.723 296.497 359.758C296.497 359.547 296.497 359.3 296.497 359.088C296.779 357.077 297.061 355.102 297.379 353.091C297.696 350.974 297.943 348.857 298.119 346.741C298.366 343.989 298.719 341.272 298.966 338.556C299.178 336.263 299.284 333.97 299.46 331.677C309.967 331.677 321.178 333.353 331.634 334.817Z" fill="#696D65"/>
<path d="M198.07 334.78C198.352 336.615 198.634 338.414 198.916 340.249C199.022 340.919 199.093 341.589 199.128 342.259C199.198 344.27 199.516 346.281 199.728 348.292C200.01 351.009 200.504 353.725 200.574 356.477C200.574 357.711 200.998 358.911 200.821 360.146C198.74 359.687 196.658 359.228 194.577 358.805C191.614 358.241 188.65 357.676 185.652 357.147C183.711 356.794 181.806 356.441 179.866 356.089C177.432 355.665 175.033 355.242 172.599 354.819C170.87 354.536 169.177 354.254 167.413 354.325C166.566 354.325 165.931 354.677 165.578 355.312C164.873 356.547 164.555 357.676 165.755 359.017C166.248 359.581 166.742 360.075 167.554 360.216C168.224 360.357 168.824 360.604 169.494 360.781C172.034 361.451 174.609 362.015 177.185 362.58C179.654 363.109 182.124 363.603 184.593 364.132C188.192 364.908 191.825 365.614 195.459 366.355C197.505 366.778 199.516 367.131 201.562 367.554C201.809 368.013 201.844 368.507 201.88 369.036C202.056 372.846 203.432 376.268 205.09 379.584C205.266 379.937 205.513 380.254 205.654 380.607C207.207 383.747 209.359 386.357 212.11 388.509C213.028 389.25 213.874 390.062 214.791 390.838C216.661 392.461 218.778 393.731 221 394.86C221.741 395.248 222.482 395.636 223.364 395.671C223.717 395.671 223.823 395.953 223.929 396.2C220.224 396.2 216.485 396.2 212.781 396.2C208.441 396.2 204.102 396.2 199.763 396.2C198.987 396.2 198.211 396.024 197.54 396.659C197.364 396.835 196.905 396.8 196.553 396.8C188.721 396.8 180.889 396.8 173.022 396.765C172.069 396.765 171.117 396.694 170.164 396.553C167.836 396.235 165.472 396.094 163.109 395.706C160.569 395.283 158.029 394.718 155.524 394.154C153.407 393.66 151.29 392.99 149.209 392.284C145.752 391.085 142.365 389.709 139.084 388.086C135.697 386.393 132.381 384.629 129.312 382.406C127.407 380.995 125.784 379.266 124.408 377.326C123.385 375.915 122.433 374.469 121.48 372.987C118.975 369 118.446 364.697 119.54 360.146C120.422 356.583 122.186 353.443 124.549 350.656C127.16 347.551 130.265 345.046 133.722 343C139.649 339.472 146.069 337.25 152.843 336.05C163.549 334.12 174.45 334.71 185.264 334.71C189.537 334.888 193.862 334.675 198.14 334.675L198.07 334.78Z" fill="#696D65"/>
<path d="M299.459 331.747C299.318 334.04 299.177 336.333 298.965 338.626C298.719 341.378 298.33 344.094 298.119 346.811C297.942 348.927 297.695 351.044 297.378 353.161C297.06 355.172 296.778 357.147 296.496 359.158C296.496 359.37 296.496 359.617 296.496 359.828C295.967 362.263 295.473 364.732 295.155 367.237C295.014 367.872 294.803 368.542 294.697 369.177C294.238 372.352 292.756 375.139 291.24 377.891C290.746 378.773 290.181 379.619 289.723 380.537C288.17 383.535 286.23 386.322 284.184 388.968C282.914 390.591 281.432 392.073 279.739 393.343C278.751 394.084 277.728 394.789 276.74 395.565C276.458 395.777 276.246 396.024 276.035 396.271C275.47 396.377 274.976 396.624 274.482 396.906C273.212 397.717 271.836 398.035 270.319 398.035C268.697 398.035 267.039 397.929 265.451 398.141C262.911 398.423 260.406 398.423 257.866 398.317C255.397 398.176 252.927 398.141 250.458 398.07C249.682 398.07 249.047 397.753 248.553 397.153C249.082 396.412 249.364 395.706 249.047 394.683C248.8 393.872 248.8 392.849 249.047 392.037C249.752 389.533 250.916 387.24 253.245 385.758C254.197 385.158 255.15 384.594 255.996 383.818C256.914 382.971 257.902 382.265 258.819 381.489C260.371 380.149 262.17 379.055 263.193 377.15C264.64 376.021 265.945 374.751 267.215 373.446C267.568 373.093 267.991 372.811 268.168 372.317H268.238C268.414 372.246 268.485 372.176 268.52 371.999C270.566 370.024 272.648 368.083 274.694 366.073C275.541 365.261 276.493 364.556 277.163 363.568C277.798 363.391 278.045 362.968 278.081 362.333C278.151 360.252 278.328 358.17 278.363 356.089C278.433 349.88 278.434 343.706 278.469 337.497C278.469 337.215 278.469 336.933 278.469 336.65C278.469 336.227 278.116 336.121 277.798 336.015C278.187 335.769 278.575 335.522 278.504 334.957C278.504 334.675 278.504 334.393 278.504 334.11C278.504 322.398 278.504 310.65 278.504 298.938C278.504 297.88 278.434 296.786 278.68 295.728C278.751 295.41 278.751 295.022 278.68 294.74C278.434 293.858 278.504 292.941 278.469 292.059C278.469 290.648 278.469 289.236 278.469 287.825C278.469 285.673 278.857 283.557 279.033 281.44C279.21 279.323 279.104 280.981 279.139 280.77C279.28 278.582 279.351 276.395 279.562 274.208C279.809 271.738 279.915 269.269 280.374 266.835C280.974 263.695 281.397 260.52 281.891 257.345C282.208 255.404 282.491 253.464 282.773 251.524C282.808 251.242 282.879 250.959 282.843 250.677C282.737 248.948 283.161 247.326 283.549 245.703C283.972 243.833 284.254 241.928 284.572 240.058C284.96 237.73 285.313 235.402 285.701 233.073C286.089 230.639 286.512 228.205 286.936 225.771C287.324 223.548 287.676 221.326 288.1 219.138C288.453 217.198 288.735 215.258 289.299 213.353C289.44 212.859 289.581 212.365 289.723 211.906C290.957 211.906 292.086 212.294 293.074 212.894C294.803 213.917 296.637 214.87 298.048 216.387C298.225 216.598 298.472 216.775 298.683 216.916C300.2 217.904 301.223 219.315 302.07 220.867C303.904 224.218 305.069 227.782 305.598 231.556C305.986 234.167 306.233 236.813 306.233 239.459C306.233 241.364 306.762 243.269 306.515 245.174C306.127 248.419 306.409 251.7 306.198 254.981C306.092 256.533 305.81 258.121 305.633 259.673C305.492 260.802 305.421 261.896 305.28 263.025C305.104 264.259 305.069 265.494 304.928 266.729C304.61 269.516 304.434 272.338 304.151 275.125C303.904 277.348 303.658 279.605 303.481 281.828C303.234 284.58 302.846 287.296 302.564 290.048C302.388 291.741 302.317 293.399 302.141 295.093C301.964 296.821 301.752 298.55 301.576 300.279C301.435 301.619 301.435 302.96 301.223 304.3C300.941 306.241 300.906 308.216 300.8 310.192C300.624 313.155 300.518 316.154 300.2 319.117C300.13 319.858 300.165 320.599 300.13 321.304C300.13 322.539 300.094 323.774 299.883 325.009C299.706 326.102 299.812 327.266 299.812 328.395C299.812 329.524 299.742 330.653 299.53 331.747H299.459Z" fill="#FFB78A"/>
<path d="M270.214 164.14C269.508 165.516 269.367 166.998 269.226 168.514C269.085 170.278 268.661 171.936 268.167 173.63C267.144 177.264 265.768 180.791 263.581 183.896C263.405 184.143 263.299 184.39 263.087 184.601C262.135 185.483 261.676 186.612 261.394 187.847C260.653 187.847 259.948 187.741 259.313 188.341C259.171 188.482 258.889 188.482 258.678 188.517C257.266 188.764 255.891 189.399 254.409 189.258C253.386 189.681 252.327 189.576 251.269 189.54C248.094 189.435 244.884 189.752 241.709 189.258C240.333 189.046 239.063 188.341 237.616 188.447C237.511 188.447 237.405 188.376 237.334 188.306C236.77 187.776 236.099 187.882 235.429 187.918C235.323 187.106 235.076 186.401 234.477 185.801C232.642 183.896 231.584 181.532 230.596 179.133C228.867 174.865 227.774 170.384 226.927 165.833C226.786 165.163 226.68 164.528 226.574 163.858C226.574 160.647 226.574 157.437 226.574 154.227C226.574 153.521 226.68 152.921 227.245 152.392C229.538 150.311 231.795 148.159 234.053 146.042C234.406 145.725 234.794 145.548 235.288 145.584C236.24 145.654 237.193 145.725 238.146 145.76C245.625 145.972 253.104 146.36 260.618 146.289C261.076 146.289 261.535 146.289 261.958 146.289C262.629 146.219 263.158 146.43 263.652 146.889C265.416 148.547 267.215 150.17 269.049 151.757C269.508 152.145 269.72 152.604 269.755 153.204C269.896 156.238 269.896 159.272 269.896 162.341C269.896 162.799 269.896 163.258 269.896 163.681C269.896 163.928 270.037 164.105 270.249 164.211L270.214 164.14Z" fill="#FFB78A"/>
<path d="M270.213 164.139C270.002 164.033 269.861 163.857 269.861 163.61C269.861 163.151 269.861 162.693 269.861 162.27C269.861 159.236 269.861 156.202 269.72 153.132C269.72 152.533 269.473 152.074 269.014 151.686C267.215 150.099 265.416 148.476 263.616 146.818C263.122 146.359 262.593 146.147 261.923 146.218C261.464 146.253 261.006 146.218 260.582 146.218C253.103 146.324 245.589 145.936 238.11 145.689C237.158 145.689 236.205 145.583 235.253 145.512C234.759 145.512 234.371 145.618 234.018 145.971C231.76 148.088 229.502 150.204 227.209 152.321C226.645 152.85 226.539 153.45 226.539 154.156C226.539 157.366 226.539 160.576 226.539 163.787C223.293 159.447 220.965 154.685 219.977 149.322C218.883 143.325 219.448 137.539 222.058 132.001C224.281 127.309 227.632 123.71 232.183 121.241C233.453 120.535 234.829 119.971 236.135 119.371C236.84 119.054 237.581 118.701 238.11 118.101C239.839 118.172 241.532 117.572 243.261 117.713C243.367 117.713 243.472 117.713 243.578 117.642C244.178 117.395 244.778 117.395 245.413 117.431C247.247 117.501 249.117 117.219 250.916 117.748C251.057 117.784 251.234 117.748 251.41 117.748C253.809 117.748 256.208 117.642 258.607 118.101C259.136 118.277 259.665 118.454 260.23 118.56C262.734 119.159 264.992 120.253 267.038 121.841C271.236 125.121 274.376 129.143 276.034 134.259C276.599 135.917 276.881 137.645 276.952 139.409C277.163 144.63 276.634 149.781 274.976 154.755C273.847 158.142 272.224 161.282 270.178 164.21L270.213 164.139Z" fill="#894100"/>
<path d="M238.463 204.392C238.216 204.18 238.005 204.004 237.758 203.792C237.664 203.322 237.334 203.075 236.77 203.051C236.452 202.945 236.241 202.734 236.064 202.487C236.064 202.169 236.064 201.852 235.747 201.711C235.747 199.312 235.747 196.913 235.747 194.514C235.747 193.738 235.324 192.997 235.606 192.221C236.452 192.221 237.299 192.221 238.04 192.715C238.216 192.82 238.463 192.926 238.675 192.891C239.663 192.891 240.545 193.244 241.497 193.42C242.485 193.597 243.473 193.914 244.461 193.914C247.671 193.844 250.881 194.232 254.056 193.632C255.997 193.279 257.937 193.067 259.807 192.397C260.265 192.256 260.689 192.256 261.147 192.256C261.147 194.937 261.147 197.618 261.147 200.299C261.147 201.076 261.218 201.852 261.253 202.628C261.112 202.663 260.971 202.698 260.865 202.734C260.301 202.757 259.96 203.004 259.842 203.474C258.819 204.498 257.655 205.309 256.455 206.085C255.867 206.109 255.538 206.356 255.468 206.826C255.362 206.932 255.256 207.002 255.115 207.108C254.527 207.132 254.186 207.39 254.092 207.884C253.915 208.167 253.704 208.378 253.386 208.449C252.822 208.472 252.492 208.719 252.398 209.19C252.292 209.295 252.151 209.366 252.046 209.472C251.458 209.495 251.128 209.742 251.058 210.213C250.423 210.989 249.611 211.483 248.729 211.941C248.412 211.095 247.671 211.095 246.93 211.13C246.613 211.024 246.401 210.812 246.225 210.53C246.131 210.06 245.801 209.801 245.237 209.754C244.919 209.648 244.708 209.437 244.531 209.154C244.437 208.684 244.108 208.425 243.543 208.378C243.226 208.272 243.014 208.061 242.838 207.814C242.744 207.343 242.415 207.085 241.85 207.038C241.533 206.932 241.321 206.72 241.144 206.438C241.074 205.967 240.745 205.709 240.157 205.662C239.839 205.556 239.628 205.344 239.451 205.062C239.357 204.592 239.028 204.333 238.463 204.286V204.392Z" fill="#FFB78A"/>
<path d="M237.158 113.303C236.805 112.774 236.77 112.139 236.77 111.504C236.84 108.682 237.722 106.213 239.909 104.343C242.802 101.873 246.118 100.709 249.858 101.062C253.985 101.45 256.984 103.567 258.677 107.412C259.489 109.211 259.7 111.081 259.454 113.021C259.348 113.021 259.277 113.021 259.207 113.057C257.478 112.986 255.785 112.492 254.021 112.633C253.844 112.633 253.668 112.633 253.527 112.527C252.892 112.245 252.186 112.28 251.516 112.316C248.27 112.421 245.025 112.104 241.779 112.598C240.227 112.845 238.675 112.986 237.158 113.303Z" fill="#894100"/>
<path d="M263.159 377.115C262.171 379.02 260.336 380.113 258.784 381.454C257.867 382.265 256.844 382.971 255.962 383.782C255.115 384.558 254.163 385.123 253.21 385.723C250.882 387.204 249.753 389.497 249.012 392.002C248.765 392.814 248.765 393.837 249.012 394.648C249.329 395.671 249.083 396.377 248.518 397.118C247.848 397.047 247.319 396.729 246.895 396.236C246.684 395.248 246.437 394.26 246.543 393.272C246.578 392.673 246.542 392.037 246.754 391.438C247.036 390.697 246.754 390.132 246.119 389.709C244.814 388.757 243.473 387.839 242.168 386.852C240.757 385.758 239.381 384.629 237.97 383.535C237.053 382.795 236.135 382.089 235.218 381.348C234.654 380.89 234.16 380.36 233.631 379.866C233.066 379.337 232.784 378.843 233.384 378.138C233.701 377.785 233.278 377.397 233.348 377.009C233.948 376.938 234.442 377.185 234.83 377.644C235.289 378.138 235.818 378.561 236.382 378.914C236.982 379.302 237.582 379.761 238.111 380.255C239.381 381.525 240.792 382.618 242.239 383.712C243.05 384.312 243.826 384.947 244.532 385.652C245.308 386.393 246.154 387.028 247.072 387.663C247.566 387.099 247.742 386.428 247.495 385.793C247.213 384.982 247.248 384.135 247.248 383.288C247.248 376.374 247.248 369.459 247.248 362.545C247.248 361.592 247.248 360.64 247.248 359.687C247.283 358.488 247.53 357.359 248.271 356.371C248.377 356.371 248.483 356.371 248.589 356.371C248.8 357.006 249.224 357.641 249.224 358.276C249.224 359.864 249.753 361.381 249.647 362.968C249.541 364.415 249.647 365.896 249.647 367.378C249.647 367.837 249.647 368.295 249.753 368.718C250 369.424 249.964 370.165 249.964 370.906C249.964 375.069 249.964 379.231 249.964 383.43C249.964 383.888 249.964 384.347 250.035 384.77C250.035 385.017 250.317 385.158 250.529 385.017C251.164 384.629 251.799 384.276 252.293 383.747C252.681 383.324 253.069 382.936 253.528 382.618C256.209 380.784 258.608 378.561 261.289 376.727C261.853 376.339 262.312 375.845 262.806 375.421C263.264 375.915 263.017 376.586 263.159 377.15V377.115Z" fill="#E7A47C"/>
<path d="M261.148 192.221C260.689 192.221 260.266 192.221 259.807 192.363C257.937 193.033 255.997 193.245 254.057 193.597C250.882 194.197 247.671 193.809 244.461 193.88C243.473 193.88 242.485 193.597 241.498 193.386C240.58 193.209 239.663 192.821 238.675 192.856C238.464 192.856 238.217 192.786 238.04 192.68C237.299 192.186 236.417 192.221 235.606 192.186C235.324 190.74 235.465 189.293 235.465 187.812C236.135 187.812 236.806 187.706 237.37 188.2C237.441 188.27 237.582 188.376 237.652 188.341C239.099 188.27 240.369 188.941 241.745 189.152C244.92 189.646 248.13 189.364 251.305 189.434C252.363 189.434 253.422 189.576 254.445 189.152C255.926 189.329 257.302 188.658 258.713 188.411C258.925 188.376 259.207 188.376 259.348 188.235C259.948 187.671 260.689 187.741 261.43 187.741C261.43 188.764 261.43 189.823 261.43 190.846C261.43 191.304 261.359 191.728 261.148 192.116V192.221Z" fill="#E7A47C"/>
<path d="M237.158 113.303C238.675 112.986 240.263 112.845 241.78 112.598C245.025 112.069 248.271 112.421 251.516 112.316C252.187 112.316 252.857 112.245 253.527 112.527C253.668 112.598 253.845 112.633 254.021 112.633C255.785 112.492 257.479 112.986 259.207 113.056C259.172 113.303 259.207 113.515 259.419 113.656C259.419 114.538 259.066 115.279 258.89 116.09C258.749 116.725 258.396 117.36 258.713 118.066C256.35 117.607 253.915 117.748 251.516 117.713C251.34 117.713 251.164 117.713 251.023 117.713C249.223 117.184 247.354 117.466 245.519 117.396C244.919 117.396 244.284 117.36 243.685 117.607C243.579 117.643 243.473 117.678 243.367 117.678C241.639 117.537 239.945 118.136 238.217 118.066C238.287 117.572 238.181 117.113 238.005 116.619C237.617 115.526 237.158 114.468 237.193 113.303H237.158Z" fill="#62350F"/>
<path d="M259.419 113.657C259.207 113.515 259.172 113.304 259.207 113.057C259.278 113.057 259.384 113.021 259.454 113.021C259.595 113.233 259.56 113.445 259.384 113.657H259.419Z" fill="#6A6C64"/>
<path d="M235.712 201.676C236.029 201.852 236.065 202.134 236.029 202.452C235.818 202.417 235.641 202.346 235.43 202.311C235.43 202.064 235.465 201.817 235.712 201.676Z" fill="#FFB78A"/>
<path d="M248.588 356.407C248.482 356.407 248.377 356.407 248.271 356.407C247.424 354.996 246.401 353.726 244.99 352.844C243.014 351.609 240.968 351.679 239.204 353.126C237.158 354.819 235.712 356.901 235.077 359.547C234.689 361.205 234.547 362.863 234.301 364.556C233.983 366.849 234.018 369.142 233.736 371.435C233.595 372.423 233.736 373.446 233.242 374.399C232.995 374.893 233.031 375.492 233.172 376.057C233.242 376.374 233.313 376.727 233.348 377.045C233.172 377.009 232.995 377.045 232.889 376.903C231.549 375.633 230.173 374.434 229.044 372.952C230.984 372.317 232.219 370.836 232.29 368.931C232.325 367.837 231.972 366.814 231.02 366.144C230.526 365.791 229.891 365.65 229.291 365.544C227.21 365.12 225.163 364.662 223.047 364.309C222.13 364.133 221.212 363.78 220.26 363.85C220.048 361.769 219.801 359.723 219.836 357.641C219.907 354.89 219.484 352.138 219.237 349.422C219.201 348.963 219.166 348.54 219.166 348.081C219.166 344.553 219.166 340.99 219.131 337.462C219.131 337.18 219.131 336.898 219.131 336.616C219.131 336.298 219.343 336.122 219.66 336.086C220.26 335.981 220.895 336.263 221.424 335.804C221.741 335.663 222.024 335.522 222.341 335.381C224.035 335.487 225.693 335.663 227.386 335.698C229.714 335.769 232.007 335.734 234.336 335.804C240.263 335.91 246.189 335.981 252.081 336.228C254.903 336.333 257.725 336.404 260.512 336.439C261.253 336.439 261.959 336.439 262.7 336.228C263.088 336.122 263.476 336.122 263.864 336.086C266.898 335.945 269.932 335.663 272.966 335.804C273.248 335.804 273.53 335.804 273.812 335.769C274.835 336.157 275.894 336.086 276.952 335.981C277.164 335.981 277.411 335.981 277.622 335.981C277.94 336.086 278.293 336.192 278.293 336.616C278.293 336.898 278.293 337.18 278.293 337.462C278.293 343.671 278.293 349.845 278.187 356.054C278.187 358.135 277.975 360.217 277.905 362.298C277.905 362.933 277.622 363.392 276.987 363.533C275.4 363.815 273.812 364.027 272.225 364.344C270.32 364.697 268.415 365.262 266.51 365.473C264.852 365.685 263.723 366.461 262.77 367.731C262.629 367.907 262.488 368.084 262.382 368.26C261.888 366.038 261.923 363.78 261.747 361.557C261.535 359.264 260.936 357.148 259.666 355.243C258.29 353.091 256.35 352.103 253.809 352.385C251.693 352.632 249.929 353.514 248.906 355.525C248.765 355.842 248.588 356.125 248.447 356.407H248.588Z" fill="#6A6C64"/>
<path d="M201.527 367.59C199.481 367.202 197.47 366.814 195.424 366.39C191.79 365.65 188.192 364.944 184.558 364.168C182.089 363.639 179.619 363.145 177.15 362.616C174.574 362.051 171.999 361.487 169.459 360.817C168.824 360.64 168.189 360.393 167.519 360.252C166.743 360.111 166.213 359.582 165.72 359.053C164.52 357.712 164.838 356.583 165.543 355.348C165.896 354.678 166.531 354.361 167.378 354.361C169.142 354.29 170.835 354.572 172.564 354.854C174.998 355.243 177.432 355.666 179.831 356.124C181.771 356.477 183.676 356.83 185.617 357.183C188.58 357.747 191.543 358.276 194.542 358.841C196.623 359.264 198.705 359.723 200.786 360.182C200.998 362.157 201.245 364.133 201.457 366.108C201.527 366.602 201.457 367.096 201.492 367.59H201.527Z" fill="#494A45"/>
<path d="M220.295 363.885C221.248 363.815 222.165 364.167 223.082 364.344C225.164 364.697 227.245 365.155 229.327 365.579C229.926 365.684 230.561 365.825 231.055 366.178C232.008 366.849 232.36 367.836 232.325 368.965C232.255 370.87 231.02 372.352 229.08 372.987C228.727 372.705 228.374 372.423 228.057 372.105C225.658 369.741 223.259 367.378 220.895 365.014C220.578 364.697 220.154 364.45 220.331 363.885H220.295Z" fill="#4A4B44"/>
<path d="M275.47 335.663C275.964 335.839 276.564 335.628 277.023 335.981C275.964 336.086 274.906 336.157 273.883 335.769C274.412 335.734 274.941 335.698 275.47 335.663Z" fill="#FFB78A"/>
<path d="M246.895 211.165C247.635 211.13 248.341 211.13 248.694 211.977C248.623 212.188 248.447 212.4 248.235 212.259C247.741 211.941 247.212 211.73 246.895 211.165Z" fill="#FFB78A"/>
<path d="M245.201 209.825C245.789 209.849 246.118 210.107 246.189 210.601C245.766 210.46 245.413 210.249 245.201 209.825Z" fill="#FFB78A"/>
<path d="M250.987 210.249C251.081 209.778 251.411 209.531 251.975 209.508C251.763 209.931 251.411 210.143 250.987 210.249Z" fill="#FFB78A"/>
<path d="M252.363 209.225C252.457 208.755 252.787 208.508 253.351 208.484C253.139 208.908 252.787 209.119 252.363 209.225Z" fill="#FFB78A"/>
<path d="M254.057 207.885C254.151 207.414 254.492 207.155 255.08 207.108C254.868 207.532 254.48 207.743 254.057 207.885Z" fill="#FFB78A"/>
<path d="M241.814 207.108C242.379 207.155 242.708 207.414 242.802 207.885C242.379 207.743 242.026 207.532 241.814 207.108Z" fill="#FFB78A"/>
<path d="M255.396 206.862C255.491 206.392 255.82 206.145 256.384 206.121C256.173 206.544 255.82 206.756 255.396 206.862Z" fill="#FFB78A"/>
<path d="M240.121 205.768C240.709 205.815 241.038 206.073 241.109 206.544C240.686 206.403 240.333 206.191 240.121 205.768Z" fill="#FFB78A"/>
<path d="M238.463 204.393C239.027 204.44 239.357 204.698 239.451 205.169C239.027 205.028 238.675 204.816 238.463 204.393Z" fill="#FFB78A"/>
<path d="M236.734 203.052C237.299 203.099 237.628 203.346 237.722 203.793C237.299 203.687 236.946 203.44 236.734 203.052Z" fill="#FFB78A"/>
<path d="M243.508 208.484C244.096 208.508 244.425 208.767 244.496 209.261C244.072 209.119 243.719 208.908 243.508 208.484Z" fill="#FFB78A"/>
<path d="M259.807 203.475C259.901 203.005 260.242 202.758 260.83 202.734C260.618 203.122 260.23 203.369 259.807 203.475Z" fill="#FFB78A"/>
<path d="M295.155 367.237C295.473 364.732 295.931 362.298 296.496 359.828C297.378 359.793 298.26 359.687 299.177 359.511C302.176 358.876 305.21 358.347 308.244 357.817C311.207 357.288 314.206 356.865 317.204 356.371C320.062 355.877 322.919 355.277 325.777 354.819C327.717 354.501 329.657 354.325 331.598 354.043C331.986 354.007 332.374 353.866 332.762 353.831C333.609 353.69 334.42 353.619 335.231 354.043C335.655 354.29 335.902 354.607 335.937 355.101C336.043 356.83 335.337 358.17 333.926 359.123C333.185 359.617 332.303 359.934 331.421 360.11C328.211 360.816 324.965 361.522 321.72 362.192C319.85 362.58 317.98 362.968 316.111 363.321C313.182 363.885 310.29 364.379 307.362 364.944C306.092 365.191 304.822 365.473 303.587 365.72C301.294 366.143 298.965 366.566 296.637 366.99C296.143 367.096 295.649 367.201 295.155 367.272V367.237Z" fill="#494A45"/>
<path d="M262.523 368.261C262.664 368.084 262.805 367.908 262.911 367.731C263.863 366.461 264.992 365.685 266.65 365.474C268.591 365.227 270.46 364.697 272.365 364.345C273.953 364.027 275.54 363.815 277.128 363.533C276.458 364.486 275.505 365.227 274.658 366.038C272.612 368.014 270.531 369.989 268.485 371.965C268.379 372.035 268.308 372.141 268.202 372.212L268.132 372.247C266.368 372.494 264.639 372.776 262.84 372.635C262.276 371.224 262.452 369.742 262.487 368.261H262.523Z" fill="#4A4B44"/>
<path d="M262.841 372.634C264.64 372.811 266.369 372.528 268.133 372.246C267.956 372.74 267.533 373.022 267.18 373.375C265.91 374.68 264.57 375.95 263.158 377.079C263.053 376.515 263.264 375.88 262.806 375.351C262.806 374.433 262.806 373.516 262.841 372.634Z" fill="#696D65"/>
<path d="M268.203 372.211C268.309 372.14 268.38 372.034 268.485 371.964C268.485 372.14 268.38 372.211 268.203 372.211Z" fill="#696D65"/>
<path d="M233.347 377.044C233.277 376.727 233.242 376.374 233.171 376.056C233.03 375.492 232.995 374.892 233.242 374.398C233.736 373.446 233.63 372.423 233.736 371.435C234.018 369.142 233.982 366.849 234.3 364.556C234.547 362.898 234.653 361.204 235.076 359.546C235.711 356.936 237.158 354.819 239.204 353.125C240.968 351.644 243.014 351.573 244.989 352.843C246.4 353.725 247.424 354.995 248.27 356.406C247.529 357.394 247.282 358.523 247.247 359.723C247.247 360.675 247.247 361.628 247.247 362.58C247.247 369.495 247.247 376.409 247.247 383.324C247.247 384.17 247.212 384.982 247.494 385.828C247.741 386.464 247.565 387.134 247.071 387.698C246.154 387.063 245.307 386.428 244.531 385.687C243.825 384.982 243.014 384.347 242.238 383.747C240.791 382.653 239.38 381.56 238.11 380.29C237.616 379.761 237.016 379.337 236.381 378.949C235.817 378.596 235.288 378.173 234.829 377.679C234.406 377.221 233.947 377.009 233.347 377.044Z" fill="#FFB68A"/>
<path d="M262.84 372.635C262.84 373.552 262.84 374.47 262.805 375.351C262.311 375.81 261.853 376.304 261.288 376.657C258.607 378.491 256.208 380.714 253.527 382.548C253.068 382.866 252.68 383.289 252.292 383.677C251.798 384.242 251.163 384.594 250.528 384.947C250.317 385.088 250.07 384.947 250.034 384.7C249.964 384.242 249.964 383.818 249.964 383.36C249.964 379.197 249.964 375.034 249.964 370.836C249.964 370.095 249.964 369.389 249.752 368.649C249.611 368.225 249.646 367.767 249.646 367.308C249.646 365.826 249.576 364.38 249.646 362.898C249.752 361.311 249.258 359.794 249.223 358.206C249.223 357.571 248.8 356.936 248.588 356.301C248.729 356.019 248.905 355.701 249.047 355.419C250.07 353.408 251.834 352.526 253.95 352.279C256.49 351.997 258.395 353.02 259.806 355.137C261.076 357.077 261.676 359.159 261.888 361.452C262.1 363.674 262.064 365.932 262.523 368.155C262.452 369.636 262.311 371.118 262.876 372.529L262.84 372.635Z" fill="#FFB68A"/>
</svg>
