<svg width="500" height="500" viewBox="0 0 500 500" fill="none" xmlns="http://www.w3.org/2000/svg">
<path d="M191.597 280.967C191.286 282.117 191.255 283.295 191.191 284.477C191.047 287.172 190.983 289.875 190.627 292.556C190.606 292.722 190.595 292.895 190.599 293.064C190.634 296.729 190.246 300.377 190.129 304.039C190.041 306.85 190.038 309.676 189.787 312.474C189.568 314.94 189.635 317.427 189.23 319.875C189.064 320.866 188.701 321.844 188.958 322.874C189.205 323.001 189.47 323.096 189.692 323.258C190.263 323.667 190.895 323.833 191.59 323.851C194.737 323.939 197.834 324.532 200.963 324.779C202.473 324.899 203.986 325.093 205.489 325.163C208.463 325.297 211.441 325.325 214.415 325.477C219.015 325.714 223.629 325.502 228.233 325.809C230.978 325.992 233.743 325.872 236.499 325.908C237.243 325.918 237.952 325.816 238.629 325.509C238.643 325.064 238.605 324.609 238.679 324.172C238.94 322.581 239.271 320.997 239.511 319.402C239.709 318.083 240.069 316.781 240.058 315.434C239.194 315.469 238.382 315.215 237.613 314.873C235.867 314.093 234.135 313.282 232.413 312.453C230.586 311.571 228.822 310.541 226.949 309.786C224.596 308.837 222.458 307.44 220.056 306.611C219.9 306.558 219.766 306.438 219.622 306.357C218.355 305.63 217.085 304.907 215.822 304.176C213.854 303.037 212.196 301.552 210.813 299.738C209.532 298.059 208.728 296.161 208.026 294.189C207.179 291.808 206.241 289.458 205.355 287.091C204.766 285.511 204.212 283.92 203.63 282.339C203.51 282.018 203.401 281.704 203.45 281.355C203.5 280.988 203.69 280.724 204.039 280.607C204.325 280.508 204.59 280.597 204.826 280.784C205.14 281.038 205.32 281.362 205.472 281.747C206.315 283.888 207.204 286.015 208.058 288.153C208.64 289.614 209.303 291.057 209.73 292.563C210.411 294.944 211.652 296.994 213.187 298.874C214.295 300.229 215.593 301.4 217.212 302.159C217.773 302.423 218.327 302.702 218.87 303.002C220.691 304.007 222.479 305.069 224.324 306.028C227.069 307.457 229.835 308.851 232.689 310.061C234.241 310.717 235.797 311.366 237.321 312.086C238.379 312.583 239.529 312.939 240.4 313.786C241.24 313.497 241.945 313.962 242.655 314.252C245.985 315.606 249.304 316.986 252.613 318.383C258.046 320.679 263.465 323.004 268.898 325.304C272.881 326.991 276.948 328.455 281.1 329.675C281.527 329.802 281.972 329.908 282.268 330.286C282.762 330.398 283.252 330.529 283.75 330.624C290.407 331.887 296.891 333.743 303.082 336.523C306.19 337.92 309.083 339.641 311.062 342.552C311.231 342.301 311.471 342.157 311.771 342.164C313.404 342.213 314.992 341.617 316.636 341.8C316.802 341.818 316.988 341.814 317.137 341.751C318.001 341.391 318.911 341.437 319.807 341.483C320.788 341.536 321.68 341.144 322.633 341.045C323.183 340.989 323.705 340.654 324.033 340.167C324.824 339.003 325.582 337.821 326.358 336.646C326.715 336.11 326.686 335.57 326.33 335.069C325.289 333.605 324.277 332.116 323.162 330.712C322.185 329.481 321.081 328.352 320.044 327.174C319.977 327.096 319.969 326.966 319.934 326.857C319.006 326.56 318.241 325.964 317.429 325.467C314.967 323.953 312.342 322.796 309.647 321.784C307.538 320.99 305.417 320.221 303.283 319.508C300.701 318.647 298.319 317.37 295.938 316.09C294.051 315.077 292.192 314.015 290.304 312.999C286.53 310.971 282.744 308.967 278.97 306.935C273.755 304.131 268.556 301.308 263.341 298.504C261.355 297.435 259.359 296.387 257.358 295.343C254.36 293.776 251.354 292.221 248.355 290.654C247.212 290.058 245.964 289.681 244.884 288.954C244.612 288.908 244.33 288.901 244.069 288.816C240.566 287.684 241.173 288.005 239.719 285.003C239.123 283.775 238.471 282.519 238.337 281.108C238.22 280.731 238.09 280.36 237.994 279.979C236.11 272.687 234.248 265.388 232.346 258.1C231.553 255.056 230.699 252.025 229.82 249.002C229.595 248.229 229.722 247.647 230.166 246.987C233.973 241.357 236.276 235.116 237.645 228.491C238.361 225.016 238.569 221.478 239.01 217.971C238.774 217.255 238.213 216.754 237.807 216.151C235.694 213.004 233.179 210.207 230.519 207.519C229.489 206.478 228.498 205.395 227.591 204.248C226.751 203.187 226.067 202.012 226.06 200.572C226.06 200.35 225.986 200.131 225.947 199.909C225.788 199.86 225.605 199.846 225.474 199.758C223.636 198.512 221.625 197.69 219.466 197.193C217.777 196.801 216.101 196.396 214.383 196.103C212.831 195.842 211.222 196.145 209.723 195.545C207.811 195.478 205.941 195.895 204.046 196.06C202.893 196.163 201.972 196.893 200.896 197.193C199.714 198.389 198.49 199.546 197.361 200.788C195.615 202.703 194.165 204.841 193.213 207.258C192.765 208.394 192.532 209.621 192.274 210.821C191.738 213.311 191.727 215.816 192.172 218.328C192.271 218.878 192.271 219.443 192.317 220C192.398 220.205 192.518 220.402 192.556 220.614C193.04 223.214 193.611 225.8 194.345 228.34C194.832 230.019 195.269 231.705 195.58 233.423C196.321 237.519 197.009 241.625 197.749 245.721C198.37 249.154 199.041 252.576 199.672 256.005C200.395 259.931 201.051 263.875 201.831 267.791C202.522 271.269 202.981 274.783 203.598 278.272C203.683 278.748 203.556 279.161 203.433 279.591C203.327 279.955 203.097 280.163 202.713 280.191C201.478 280.286 200.243 280.466 199.012 280.463C196.525 280.456 194.07 280.812 191.597 280.964V280.967Z" fill="#FFB68A"/>
<path d="M311.055 342.548C309.079 339.638 306.187 337.916 303.075 336.519C296.884 333.736 290.403 331.884 283.743 330.621C283.245 330.526 282.755 330.395 282.261 330.282C282.035 330.279 281.806 330.304 281.587 330.265C278.317 329.676 275.019 329.316 271.71 329.026C267.67 328.677 263.641 328.257 259.606 327.869C257.027 327.622 254.445 327.414 251.873 327.121C247.456 326.613 243.046 326.049 238.629 325.509C237.952 325.816 237.243 325.919 236.499 325.908C233.743 325.869 230.978 325.993 228.233 325.809C223.626 325.499 219.015 325.714 214.415 325.478C211.437 325.326 208.46 325.298 205.489 325.164C203.987 325.097 202.473 324.899 200.963 324.779C197.831 324.532 194.737 323.939 191.59 323.851C190.895 323.83 190.264 323.668 189.692 323.259C189.47 323.1 189.202 323.001 188.958 322.874C188.556 326.691 188.5 330.526 188.57 334.36C188.627 337.412 189.11 340.418 189.607 343.42C190.246 347.269 191.357 350.987 192.673 354.652C194.239 359.023 196.92 362.569 200.544 365.43C201.824 366.442 203.108 367.458 204.382 368.481C205.398 369.296 206.491 369.973 207.68 370.517C209.063 371.148 210.407 371.868 211.783 372.517C216.034 374.524 220.461 375.974 225.115 376.719C227.393 377.082 229.669 377.488 231.955 377.823C233.348 378.027 234.752 378.161 236.153 378.278C240.139 378.613 244.122 379.005 248.126 379.093C250.377 379.142 252.628 379.312 254.878 379.424C254.755 377.11 255.859 375.48 257.715 374.228C259.038 373.335 260.488 372.757 261.99 372.291C263.761 371.741 265.568 371.385 267.416 371.159C269.42 370.915 271.431 370.686 273.442 370.668C275.908 370.647 278.374 370.852 280.839 370.961C281.009 370.968 281.178 370.982 281.34 371.021C282.871 371.374 284.417 371.67 285.923 372.104C287.602 372.591 289.211 373.283 290.495 374.524C290.947 374.962 291.472 375.018 292.03 375.064C293.868 374.761 295.6 374.164 297.307 373.399C300.461 371.984 303.315 370.118 305.957 367.924C309.411 365.052 311.81 361.443 313.249 357.199C313.574 356.243 313.694 355.231 313.761 354.218C313.792 353.714 313.824 353.209 313.856 352.709C313.708 351.668 313.676 350.617 313.521 349.569C313.242 347.674 312.713 345.893 311.796 344.214C311.506 343.681 311.129 343.18 311.055 342.548Z" fill="#6A6C65"/>
<path d="M239.875 134.158C239.762 131.693 238.982 129.392 237.846 127.251C233.408 118.908 226.557 113.648 217.297 111.701C213.148 110.829 208.999 111.327 204.925 112.406C201.468 113.323 198.275 114.84 195.29 116.795C194.299 117.444 193.315 118.093 192.179 118.47C191.918 118.798 191.526 118.682 191.188 118.76C191.442 120.061 191.046 121.166 190.253 122.206C188.997 123.857 187.811 125.565 186.781 127.375C184.838 130.786 183.458 134.363 183.437 138.357C183.437 138.748 183.437 139.161 183.31 139.521C183.102 140.127 183.095 140.738 183.112 141.355C183.165 142.921 183.134 144.477 183.363 146.054C183.603 147.709 183.744 149.384 184.086 151.028C184.167 151.413 184.107 151.804 183.952 152.185C183.546 153.17 182.964 153.484 181.839 153.293C181.617 153.254 181.391 153.247 181.172 153.212C179.288 152.898 178.473 152.101 177.98 150.252C177.602 148.834 177.447 147.366 177.408 145.941C177.337 143.257 177.136 140.558 177.641 137.866C177.845 136.773 177.972 135.654 178.223 134.568C178.957 131.372 180.181 128.362 181.737 125.473C182.516 124.027 183.433 122.679 184.559 121.508C185.441 120.594 185.963 119.631 185.832 118.354L182.777 118.294C182.417 118.336 182.058 118.375 181.698 118.417C181.525 118.664 181.296 118.689 181.031 118.59C178.223 119.056 175.831 120.375 173.693 122.196C171.376 124.168 169.703 126.62 168.479 129.392C166.969 132.811 165.932 136.374 165.181 140.025C164.239 144.615 163.773 149.264 163.434 153.935C162.923 160.977 162.958 168.018 163.184 175.063C163.195 175.345 163.188 175.628 163.209 175.91C163.371 178.326 163.604 180.743 163.512 183.17C163.491 183.752 163.583 184.313 164.182 184.606C164.697 184.853 165.336 184.673 165.851 184.122C166.119 183.837 166.338 183.502 166.553 183.177C172.628 174.015 178.301 164.607 183.807 155.092C184.054 154.662 184.231 154.175 184.654 153.865C185.116 153.935 185.275 154.334 185.501 154.641C186.661 156.235 187.797 157.848 188.962 159.442C190.729 161.855 192.57 164.205 194.842 166.184C195.608 166.85 196.373 167.517 197.273 168.004C197.513 167.56 197.809 167.136 197.989 166.671C199.46 162.829 201.284 159.142 202.882 155.357C203.609 153.635 204.537 152.03 205.616 150.513C206.608 149.116 207.937 148.231 209.656 148.001C210.209 147.927 210.777 147.846 211.331 147.874C213.356 147.97 215.381 148.051 217.395 148.259C218.775 148.4 220.087 148.245 221.389 147.85C222.144 147.62 222.881 147.338 223.629 147.095C225.435 146.513 226.942 145.511 228.25 144.114C230.946 141.232 233.881 138.6 236.89 136.046C237.797 135.277 238.763 134.606 239.875 134.169V134.158Z" fill="#7B4923"/>
<path d="M239.874 134.158C238.763 134.596 237.796 135.266 236.89 136.035C233.881 138.589 230.946 141.221 228.25 144.103C226.941 145.5 225.435 146.502 223.629 147.084C222.877 147.327 222.144 147.61 221.389 147.839C220.087 148.234 218.771 148.389 217.395 148.248C215.381 148.04 213.356 147.962 211.331 147.864C210.774 147.835 210.209 147.917 209.655 147.991C207.937 148.22 206.611 149.105 205.616 150.502C204.537 152.019 203.609 153.628 202.882 155.346C201.28 159.131 199.46 162.818 197.989 166.66C197.809 167.129 197.513 167.549 197.273 167.993C197.689 169.284 197.82 170.625 198 171.958C198.204 173.458 198.366 174.964 198.585 176.463C198.747 177.575 198.762 178.696 198.945 179.811C199.308 182.023 199.397 184.277 199.746 186.493C200.007 188.158 199.961 189.862 200.437 191.492C200.945 191.485 201.429 191.368 201.922 191.252C203.281 190.938 204.628 190.444 206.032 190.476C209.394 190.557 212.753 190.271 216.125 190.737C218.355 191.044 220.514 191.559 222.683 192.084C223.901 192.377 224.934 193.055 226.063 193.52C226.412 191.185 226.747 188.849 227.121 186.518C227.22 185.911 227.386 185.304 227.608 184.729C228.049 183.593 228.896 182.884 230.099 182.679C231.15 182.499 232.208 182.379 233.277 182.288C235.768 182.073 238.181 181.48 240.248 179.984C242.203 178.569 243.328 176.626 243.765 174.241C244.157 172.11 243.921 169.965 244.041 167.831C244.101 166.737 244.351 165.721 244.841 164.751C245.311 163.82 245.974 163.083 246.909 162.592C247.706 162.176 248.464 161.693 249.318 161.382C250.179 161.068 250.923 160.557 251.505 159.837C252.035 159.184 252.218 158.503 251.929 157.643C251.537 156.486 250.867 155.526 250.056 154.665C249.05 153.6 247.978 152.594 246.937 151.564C246.016 150.651 245.071 149.762 244.178 148.82C242.182 146.721 240.954 144.216 240.421 141.383C240.287 140.67 240.308 139.923 240.329 139.192C240.382 137.495 240.326 135.813 239.885 134.162L239.874 134.158Z" fill="#FFB68A"/>
<path d="M239.003 217.971C238.562 221.481 238.358 225.016 237.638 228.491C236.269 235.116 233.966 241.357 230.159 246.987C229.711 247.647 229.588 248.229 229.813 249.002C230.692 252.025 231.546 255.055 232.339 258.1C234.241 265.388 236.104 272.687 237.987 279.979C238.086 280.36 238.217 280.731 238.33 281.108C238.887 281.15 239.444 281.189 240.002 281.228C241.882 281.228 243.766 281.224 245.646 281.221C246.246 278.416 246.616 275.566 247.378 272.793C247.752 271.438 248.109 270.077 248.483 268.722C248.542 268.507 248.634 268.295 248.747 268.101C249.685 266.503 250.409 264.785 251.538 263.289C254.127 259.86 255.154 255.832 255.806 251.693C256.162 249.439 255.408 243.858 254.716 241.685C254.109 239.78 253.107 238.09 252.067 236.418C250.758 234.316 249.382 232.252 248.045 230.167C246.158 227.225 244.006 224.473 241.875 221.707C240.915 220.462 239.959 219.213 239.003 217.968V217.971Z" fill="#8A8ADE"/>
<path d="M292.029 375.061C291.472 375.015 290.946 374.958 290.495 374.521C289.211 373.279 287.602 372.584 285.923 372.101C284.416 371.667 282.871 371.371 281.34 371.018C281.178 370.979 281.009 370.965 280.839 370.958C278.373 370.849 275.907 370.648 273.442 370.665C271.431 370.683 269.42 370.912 267.416 371.156C265.567 371.381 263.761 371.734 261.99 372.288C260.487 372.757 259.038 373.332 257.715 374.225C255.859 375.477 254.758 377.107 254.878 379.421C255.316 381.231 256.508 382.459 257.976 383.485C259.669 384.67 261.613 385.267 263.571 385.789C265.747 386.367 267.963 386.706 270.217 386.9C272.016 387.052 273.812 387.175 275.611 387.115C278.991 387.006 282.353 386.681 285.612 385.736C287.62 385.154 289.563 384.409 291.207 383.048C291.871 382.501 292.4 381.866 292.795 381.1C293.627 379.478 293.444 377.957 292.407 376.5C292.245 376.271 292.04 376.07 291.885 375.837C291.691 375.548 291.917 375.308 292.026 375.061H292.029Z" fill="#E5A37C"/>
<path d="M191.597 280.968C194.07 280.819 196.525 280.463 199.012 280.467C200.247 280.467 201.478 280.29 202.713 280.195C203.098 280.167 203.327 279.959 203.433 279.595C203.56 279.165 203.683 278.749 203.599 278.276C202.981 274.787 202.523 271.273 201.831 267.795C201.052 263.879 200.395 259.938 199.672 256.008C199.041 252.579 198.367 249.158 197.75 245.725C197.009 241.629 196.321 237.523 195.58 233.427C195.269 231.709 194.832 230.023 194.345 228.344C193.611 225.804 193.04 223.221 192.557 220.618C192.518 220.406 192.398 220.209 192.317 220.004C192.303 220.794 192.274 221.581 192.274 222.368C192.25 230.591 192.359 238.814 192.165 247.034C192.024 252.886 192.112 258.746 191.833 264.592C191.604 269.432 191.661 274.272 191.555 279.112C191.541 279.729 191.583 280.35 191.601 280.968H191.597Z" fill="#8B8BDE"/>
<path d="M185.829 118.35C185.959 119.627 185.437 120.59 184.555 121.504C183.426 122.675 182.509 124.023 181.733 125.469C180.177 128.355 178.953 131.368 178.219 134.564C177.969 135.65 177.842 136.772 177.637 137.862C177.133 140.554 177.334 143.253 177.405 145.937C177.443 147.363 177.599 148.83 177.976 150.248C178.47 152.097 179.285 152.894 181.169 153.208C181.391 153.243 181.617 153.254 181.835 153.289C182.961 153.48 183.543 153.166 183.949 152.182C184.104 151.801 184.164 151.409 184.083 151.024C183.74 149.377 183.599 147.705 183.359 146.05C183.13 144.473 183.162 142.918 183.109 141.351C183.088 140.734 183.095 140.124 183.307 139.517C183.43 139.157 183.43 138.741 183.434 138.353C183.455 134.356 184.838 130.778 186.778 127.371C187.808 125.561 188.993 123.857 190.249 122.202C191.039 121.162 191.438 120.061 191.184 118.756C191.092 118.65 190.997 118.548 190.902 118.442C190.771 118.403 190.644 118.364 190.514 118.325C190.253 118.389 190.034 118.347 189.889 118.093C189.657 118.047 189.424 118.004 189.194 117.959C188.387 118.04 187.582 118.036 186.778 117.927C186.45 117.987 186.122 118.043 185.794 118.103C185.836 118.181 185.843 118.262 185.818 118.35H185.829Z" fill="#5D3819"/>
<path d="M311.055 342.549C311.129 343.18 311.506 343.681 311.796 344.214C312.713 345.893 313.242 347.674 313.521 349.569C313.672 350.617 313.708 351.664 313.856 352.709C314.374 352.56 314.692 352.144 315.041 351.788C316.865 349.946 318.837 348.267 320.844 346.634C321.585 346.03 322.298 345.392 323.007 344.75C324.771 343.159 326.75 341.871 328.75 340.612C330.302 339.631 331.301 338.234 331.787 336.498C332.387 334.346 332.193 332.29 330.941 330.353C329.741 328.501 328.122 327.34 325.953 326.92C323.945 326.532 321.941 326.504 319.927 326.86C319.962 326.97 319.966 327.1 320.036 327.178C321.077 328.36 322.181 329.489 323.155 330.716C324.27 332.12 325.282 333.609 326.323 335.073C326.679 335.574 326.707 336.114 326.351 336.65C325.575 337.821 324.817 339.007 324.026 340.171C323.695 340.658 323.173 340.993 322.626 341.049C321.673 341.144 320.781 341.54 319.8 341.487C318.904 341.437 317.994 341.391 317.13 341.755C316.981 341.818 316.791 341.822 316.629 341.804C314.985 341.617 313.397 342.217 311.764 342.168C311.467 342.157 311.224 342.302 311.055 342.556V342.549Z" fill="#E6A47D"/>
<path d="M226.063 193.517C224.931 193.052 223.901 192.374 222.684 192.081C220.511 191.559 218.355 191.044 216.126 190.734C212.753 190.268 209.395 190.554 206.033 190.473C204.629 190.438 203.281 190.935 201.923 191.249C201.425 191.362 200.946 191.482 200.438 191.489C200.423 191.602 200.392 191.715 200.402 191.824C200.565 193.616 200.73 195.405 200.896 197.193C201.976 196.893 202.896 196.163 204.05 196.061C205.941 195.895 207.811 195.479 209.726 195.546C211.222 196.145 212.831 195.842 214.386 196.103C216.104 196.392 217.78 196.802 219.47 197.193C221.629 197.691 223.64 198.513 225.478 199.758C225.608 199.846 225.792 199.86 225.95 199.91C226.155 197.782 226.236 195.652 226.074 193.517H226.063Z" fill="#E6A37B"/>
<path d="M245.65 281.225C243.769 281.225 241.886 281.228 240.005 281.232C240.517 282.339 241.106 283.405 241.533 284.558C241.886 285.514 242.563 286.283 243.579 286.612C244.027 286.756 244.302 287.123 244.708 287.299C244.803 287.038 244.965 286.781 244.983 286.513C245.096 284.953 245.403 283.426 245.671 281.891C245.71 281.676 245.66 281.447 245.65 281.225Z" fill="#FDB68E"/>
<path d="M244.704 287.296C244.298 287.12 244.02 286.753 243.575 286.608C242.559 286.28 241.882 285.511 241.529 284.555C241.106 283.401 240.513 282.336 240.002 281.228C239.444 281.19 238.887 281.147 238.329 281.108C238.467 282.52 239.12 283.772 239.712 285.003C241.169 288.009 240.559 287.684 244.062 288.817C244.32 288.901 244.605 288.912 244.877 288.954C244.817 288.4 244.761 287.846 244.701 287.293L244.704 287.296Z" fill="#E7A47C"/>
<path d="M185.829 118.35C185.854 118.265 185.843 118.184 185.804 118.103C184.781 117.976 183.765 117.902 182.774 118.29C183.793 118.311 184.809 118.329 185.829 118.35Z" fill="#6A6C65"/>
<path d="M186.785 117.927C187.589 118.036 188.394 118.04 189.202 117.958C188.401 117.56 187.597 117.532 186.785 117.927Z" fill="#6A6C65"/>
<path d="M190.909 118.445C191.004 118.551 191.096 118.653 191.191 118.759C191.526 118.685 191.922 118.802 192.183 118.47C191.759 118.463 191.336 118.452 190.913 118.445H190.909Z" fill="#6A6C65"/>
<path d="M189.9 118.093C190.041 118.347 190.263 118.389 190.524 118.326C190.359 118.135 190.165 118.019 189.9 118.093Z" fill="#6A6C65"/>
<path d="M181.031 118.587C181.292 118.686 181.525 118.661 181.698 118.414C181.444 118.344 181.214 118.372 181.031 118.587Z" fill="#6A6C65"/>
<path d="M238.636 325.51C243.05 326.049 247.459 326.614 251.88 327.122C254.451 327.418 257.034 327.623 259.613 327.87C263.648 328.258 267.681 328.674 271.716 329.027C275.026 329.312 278.324 329.676 281.594 330.265C281.813 330.304 282.042 330.279 282.268 330.283C281.972 329.905 281.527 329.796 281.1 329.672C276.948 328.452 272.884 326.988 268.898 325.301C263.465 323.001 258.046 320.676 252.614 318.38C249.301 316.979 245.985 315.6 242.655 314.249C241.945 313.96 241.24 313.497 240.4 313.783C240.287 314.334 240.178 314.884 240.065 315.438C240.076 316.785 239.716 318.087 239.518 319.406C239.278 321.001 238.947 322.581 238.686 324.176C238.615 324.613 238.651 325.069 238.636 325.513V325.51Z" fill="#FDFCFB"/>
<path d="M240.065 315.434C240.175 314.884 240.288 314.33 240.4 313.779C239.529 312.933 238.379 312.58 237.321 312.079C235.797 311.363 234.241 310.714 232.689 310.054C229.835 308.844 227.069 307.454 224.324 306.022C222.479 305.062 220.691 304 218.87 302.995C218.327 302.695 217.773 302.416 217.212 302.152C215.597 301.393 214.295 300.222 213.187 298.867C211.652 296.987 210.411 294.937 209.73 292.556C209.299 291.05 208.64 289.607 208.058 288.146C207.204 286.009 206.315 283.881 205.472 281.74C205.32 281.359 205.14 281.031 204.826 280.777C204.593 280.59 204.329 280.502 204.04 280.601C203.69 280.72 203.5 280.985 203.45 281.348C203.401 281.698 203.514 282.008 203.63 282.333C204.212 283.913 204.77 285.504 205.355 287.085C206.237 289.452 207.176 291.801 208.026 294.182C208.728 296.151 209.529 298.052 210.813 299.732C212.196 301.541 213.854 303.03 215.822 304.17C217.085 304.9 218.355 305.623 219.622 306.35C219.766 306.434 219.9 306.551 220.056 306.604C222.458 307.433 224.596 308.83 226.949 309.779C228.826 310.534 230.586 311.567 232.413 312.446C234.135 313.275 235.867 314.086 237.613 314.866C238.382 315.208 239.194 315.462 240.058 315.427L240.065 315.434Z" fill="#E7A47C"/>
</svg>
