<svg width="500" height="500" viewBox="0 0 500 500" fill="none" xmlns="http://www.w3.org/2000/svg">
<path d="M283.982 173.476C284.39 174.803 284.799 176.131 285.207 177.407C285.411 178.327 285.667 179.195 286.892 179.654C292.1 181.645 297.257 183.688 302.721 185.271C302.721 184.709 303.129 184.25 303.691 183.892C306.04 182.565 308.286 181.084 310.839 180.012C314.822 178.327 318.907 176.744 323.298 175.774C327.179 174.906 331.11 174.191 335.195 174.242C337.033 174.242 338.871 174.293 340.709 174.242C343.365 174.089 345.918 174.395 348.471 174.803C354.547 175.825 360.368 177.356 365.729 179.858C372.316 182.871 378.136 186.547 382.783 191.347C383.498 192.062 384.366 192.674 384.927 193.491C385.183 193.849 385.642 193.951 386.153 194.002C387.582 190.172 387.838 186.292 387.225 182.411C385.489 171.433 378.187 163.417 366.137 157.954C363.789 156.881 361.287 156.064 358.734 155.299C354.24 153.92 349.645 153.307 344.845 153.563C335.757 154.073 326.77 155.043 318.039 157.137C312.729 158.413 307.725 160.149 303.078 162.549C296.491 165.919 290.16 169.544 283.982 173.425V173.476Z" fill="#894100"/>
<path d="M91.9449 256.142C79.1289 268.141 71.1635 282.795 68.0488 300.104C66.7213 307.559 66.6702 315.065 67.9978 322.52C68.3042 324.205 68.8147 325.838 69.6827 327.37C71.623 330.791 73.4612 334.212 75.4525 337.582C77.1886 340.544 79.5884 343.046 82.0903 345.394C82.4988 345.803 82.9584 346.16 83.3668 346.569C86.5836 349.837 90.4131 352.134 94.549 353.87C97.8679 355.249 101.187 356.577 104.455 358.057C108.642 360.049 112.982 361.325 117.526 361.989C122.275 362.704 126.972 363.878 131.67 364.797C135.754 365.614 139.788 366.482 143.822 367.657C146.017 368.32 148.366 368.32 150.613 368.371C152.859 368.474 155.004 368.831 157.149 369.188C169.811 371.282 182.168 374.601 194.627 377.511C210.2 381.136 225.773 384.864 241.295 388.54C242.674 388.846 244.002 389 245.431 389C248.546 389 251.661 389 254.724 388.642C259.524 388.081 264.17 386.957 268.715 385.323C272.289 384.047 275.557 382.26 278.467 379.86C279.641 378.89 280.867 378.226 282.297 377.766C283.165 377.511 283.93 377.052 284.696 376.592C288.985 374.039 293.07 371.231 297.053 368.218C299.453 366.431 301.955 364.695 304.508 363.061C306.295 361.938 308.184 361.019 310.022 359.947C312.218 358.721 314.515 357.598 316.354 355.811C315.537 355.504 314.669 355.198 313.852 354.892C310.635 353.666 308.031 351.624 305.733 349.173C304.354 347.692 303.078 346.058 301.597 344.68C300.984 344.118 300.576 343.403 300.167 342.688C297.717 338.297 295.266 333.855 292.815 329.464C291.13 326.4 289.343 323.388 287.607 320.375C287.249 320.784 286.841 320.886 286.33 321.039C282.756 322.009 279.131 322.826 275.557 323.847C273.718 324.358 271.88 325.124 269.889 324.919C269.327 325.634 268.459 325.634 267.693 325.838C264.783 326.604 261.821 327.319 258.911 328.085C257.532 328.494 256.256 328.494 254.877 328.085C246.861 325.583 238.793 323.234 230.777 320.784C227.356 319.762 223.935 318.69 220.514 317.618C219.952 317.465 219.391 317.414 218.88 317.209C214.693 315.984 210.557 314.554 206.37 313.329C201.52 311.95 196.72 310.469 191.92 309.04C187.274 307.61 182.627 306.231 177.981 304.751C176.909 304.393 175.785 304.291 174.764 303.678C173.539 302.913 172.109 302.453 170.73 301.993C169.505 301.585 168.28 301.228 167.258 300.36C164.961 300.053 162.867 299.185 160.876 298.113C156.944 295.968 152.911 293.977 148.877 291.986C146.988 291.067 144.996 290.25 143.515 288.667C143.362 288.514 143.107 288.412 142.903 288.258C137.593 284.786 132.231 281.314 126.921 277.842C116.607 271.102 106.344 264.362 96.0808 257.571C94.8043 256.754 93.5278 256.193 91.996 256.193L91.9449 256.142Z" fill="#696D65"/>
<path d="M287.658 320.326C289.394 323.339 291.13 326.402 292.866 329.415C295.317 333.806 297.768 338.248 300.219 342.639C300.627 343.354 301.036 344.069 301.649 344.631C303.129 346.009 304.406 347.643 305.784 349.124C308.082 351.575 310.686 353.668 313.903 354.843C314.72 355.149 315.588 355.455 316.405 355.762C317.988 356.119 319.622 356.272 321.154 356.885C321.664 357.089 322.277 357.089 322.838 357.14C323.247 357.14 323.655 357.14 324.064 357.14C332.693 357.14 341.322 357.855 349.951 357.702C355.21 358.366 360.572 357.804 365.831 358.213C371.703 358.672 377.575 358.315 383.396 358.723C388.757 359.132 394.169 358.774 399.531 359.183C405.147 359.591 410.764 359.336 416.38 359.693C419.546 359.898 422.712 359.847 425.877 360.102C429.35 360.408 431.8 358.111 432.413 354.536C432.617 353.311 432.72 352.137 432.873 350.911C433.128 349.379 432.873 347.796 432.413 346.316C431.749 344.324 430.575 342.793 428.482 341.925C423.886 340.035 419.342 337.993 414.797 336.002C413.981 335.644 413.113 335.389 412.5 334.674C411.938 334.572 411.376 334.521 410.866 334.266C406.373 332.325 401.93 330.334 397.488 328.343C396.671 327.985 395.854 327.577 394.986 327.372C393.761 327.168 392.74 326.607 391.667 325.943C389.267 324.462 386.714 323.594 383.804 323.747C380.638 323.9 377.422 323.747 374.256 323.747C373.694 323.747 373.081 323.849 372.571 323.696C370.733 323.083 368.844 323.288 367.005 323.288C363.074 323.288 359.193 323.288 355.262 323.288C354.547 323.288 353.73 323.39 353.066 323.134C351.943 322.777 350.819 322.828 349.696 322.777C348.368 322.777 347.092 322.777 345.764 322.777C343.16 322.777 340.556 322.624 337.952 322.777C335.246 322.93 332.642 322.062 329.936 322.266C329.017 322.317 328.506 321.858 328.149 320.99C327.434 319.254 326.566 317.62 325.749 315.935C325.443 315.271 325.085 314.607 324.83 313.944C324.115 312.157 323.604 310.216 322.379 308.684C322.175 308.429 322.022 308.123 321.97 307.816C321.664 306.54 320.949 305.417 320.388 304.242C319.162 301.74 317.784 299.34 316.507 296.89C314.924 293.877 313.29 290.865 312.065 287.699C311.044 285.044 310.022 282.389 308.337 280.04C308.133 279.785 308.133 279.427 308.031 279.121C307.572 277.742 306.959 276.415 306.295 275.087C305.172 272.84 304.253 270.492 303.487 268.041C303.385 267.734 303.282 267.428 303.231 267.122C303.231 266.713 303.282 266.305 303.742 266.1C306.04 265.028 308.286 263.905 310.584 262.833C310.993 262.628 311.554 262.679 312.014 262.577C312.065 262.067 312.371 261.709 312.831 261.454C316.201 259.769 319.724 258.493 323.502 258.237C326.413 258.033 329.17 258.748 331.825 259.82C333.357 260.433 334.94 260.688 336.523 261.046C336.982 261.148 337.493 261.046 338.003 261.046C338.003 259.309 337.493 257.676 336.829 256.093C334.787 251.038 332.591 245.983 330.089 241.132C327.383 235.822 327.842 236.639 327.638 230.869C327.485 227.601 328.2 224.589 329.527 221.627C330.804 218.87 331.978 216.113 332.795 213.202C333.459 210.802 333.255 208.454 331.876 206.36C330.446 204.165 328.813 202.122 326.872 200.335C325.238 198.854 323.604 197.374 321.97 195.893C319.877 193.953 317.784 192.012 315.639 190.123C313.954 188.694 312.32 187.264 310.788 185.63C309.001 185.681 307.316 185.375 305.58 185.068C304.865 184.915 304.202 184.762 303.742 184.098H303.691C302.414 184.353 301.24 183.894 300.066 183.639C293.939 182.362 287.811 181.086 281.684 179.707C279.795 179.298 277.906 178.635 276.068 178.073C275.251 177.818 274.485 177.716 273.668 177.767C274.178 178.788 274.638 179.809 275.148 180.83C276.68 183.894 278.11 187.009 278.927 190.327C279.744 193.646 280.306 197.016 280.561 200.386C280.714 202.633 280.714 204.931 280.561 207.228C280.357 209.986 279.846 212.692 279.489 215.449C279.795 215.449 280.152 215.551 280.459 215.449C282.399 215.143 283.471 216.317 284.492 217.696C284.748 218.002 284.901 218.41 285.054 218.768C291.386 231.38 297.666 243.991 303.997 256.603C304.559 257.778 304.712 258.901 304.712 260.126C304.712 261.454 303.946 262.373 302.874 262.782C301.751 263.19 300.474 263.292 299.402 262.373C298.585 261.658 298.125 260.688 297.666 259.769C291.334 247.157 285.054 234.545 278.723 221.934C278.518 221.474 278.314 221.066 278.059 220.606C277.599 219.687 277.548 218.717 278.059 217.798C278.314 217.185 278.723 216.674 278.723 215.96C277.344 214.326 276.221 212.539 274.944 210.854C273.259 208.556 271.676 206.156 269.226 204.573C268.715 204.216 268.306 203.654 267.898 203.195C265.702 200.539 263.303 198.14 260.341 196.301C252.223 191.195 243.389 189.766 234.045 191.859C226.641 193.493 220.412 197.169 215.766 203.297C212.038 208.198 210.302 213.815 210.2 219.942C210.2 220.912 210.455 221.882 210.558 222.853C211.119 227.959 213.162 232.452 216.429 236.332C219.646 240.111 223.476 243.072 228.071 245.013C232.718 247.004 237.568 247.821 242.572 247.872C243.644 247.872 244.666 247.668 245.738 247.515C246.912 247.31 247.678 247.668 248.291 248.842C249.618 251.395 251.048 253.846 252.427 256.348C252.631 256.756 252.733 257.267 252.886 257.727C253.55 258.135 253.805 258.85 254.163 259.514C257.073 264.722 259.984 269.93 262.843 275.138C270.196 288.414 277.548 301.689 284.901 314.965C285.871 316.752 286.79 318.59 287.76 320.377L287.658 320.326Z" fill="#FFB68A"/>
<path d="M252.784 257.725C252.631 257.265 252.529 256.755 252.325 256.346C250.946 253.844 249.516 251.394 248.189 248.841C247.627 247.717 246.81 247.36 245.636 247.513C244.614 247.666 243.542 247.87 242.47 247.87C237.466 247.87 232.615 247.002 227.969 245.011C223.374 243.02 219.493 240.109 216.327 236.331C213.059 232.45 211.017 227.957 210.455 222.851C210.353 221.881 210.098 220.911 210.098 219.941C210.2 213.813 211.936 208.197 215.663 203.295C220.31 197.219 226.539 193.492 233.943 191.858C243.287 189.815 252.069 191.194 260.239 196.3C263.149 198.138 265.6 200.538 267.796 203.193C268.204 203.703 268.613 204.265 269.123 204.572C271.574 206.205 273.157 208.554 274.842 210.852C276.119 212.537 277.242 214.324 278.62 215.958C278.876 215.805 279.131 215.6 279.386 215.447C279.744 212.69 280.254 209.984 280.459 207.227C280.612 204.98 280.612 202.682 280.459 200.385C280.203 196.964 279.642 193.645 278.825 190.326C278.008 187.007 276.629 183.892 275.046 180.829C274.536 179.807 274.076 178.786 273.566 177.765C272.902 177.05 272.289 176.284 271.625 175.569C269.43 172.965 266.672 171.076 263.762 169.391C257.277 165.613 250.231 163.315 242.878 162.09C238.947 161.426 234.964 160.966 230.981 160.966C229.348 160.966 227.714 160.66 226.08 160.762C216.532 161.119 207.085 162.447 197.946 165.357C190.542 167.706 183.343 170.566 176.501 174.242C170.424 177.459 164.859 181.441 159.804 186.139C154.443 191.143 148.979 196.045 143.567 201.048C141.524 202.938 139.482 204.827 137.44 206.665C133.508 210.239 129.627 213.813 125.696 217.439C124.828 218.256 123.653 218.919 123.653 220.349C125.543 222.494 127.483 224.587 129.27 226.783C132.334 230.561 135.295 234.442 138.308 238.322C142.443 243.683 146.528 249.045 150.715 254.355C155.974 260.993 161.029 267.784 166.084 274.575C170.067 279.936 173.845 285.451 178.185 290.557C178.696 290.25 179.207 289.995 179.666 289.688C181.862 288.259 183.955 286.727 186.151 285.348C192.482 281.417 198.814 277.587 205.145 273.707C209.741 270.898 214.336 268.141 218.931 265.282C219.901 264.669 220.872 264.414 221.944 264.72C222.965 264.975 224.037 264.975 225.11 264.975C230.369 265.18 235.475 264.261 240.581 263.137C245.023 262.167 249.057 260.227 252.733 257.623L252.784 257.725Z" fill="#8989DE"/>
<path d="M310.686 185.782C312.218 187.365 313.903 188.795 315.537 190.276C317.681 192.165 319.775 194.105 321.868 196.045C323.502 197.526 325.136 199.007 326.77 200.488C328.71 202.275 330.344 204.317 331.774 206.513C333.152 208.606 333.357 210.955 332.693 213.355C331.876 216.265 330.702 219.073 329.425 221.78C328.046 224.741 327.383 227.754 327.536 231.021C327.74 236.842 327.281 235.974 329.987 241.284C332.489 246.135 334.633 251.19 336.727 256.245C337.39 257.828 337.901 259.462 337.901 261.198C338.361 261.555 338.922 261.657 339.484 261.708C344.488 262.525 349.441 261.964 354.24 260.534C363.227 257.828 370.733 252.773 376.604 245.42C380.894 240.059 383.242 233.881 384.366 227.141C385.489 220.248 384.978 213.457 383.191 206.768C382.63 204.725 382.119 202.632 382.63 200.488C381.047 200.488 379.821 199.671 378.851 198.496C378.289 197.832 377.779 197.067 377.268 196.352C375.839 194.36 374.511 192.318 372.826 190.531C371.396 188.999 369.865 187.518 368.333 186.038C366.137 183.944 363.584 182.361 360.827 181.034C359.142 180.217 357.406 179.502 355.619 178.94C352.147 177.868 348.777 176.183 344.998 176.336C344.845 176.336 344.641 176.336 344.539 176.234C343.518 175.774 342.445 175.877 341.424 175.877C337.595 175.774 333.816 176.234 330.038 176.796C326.004 177.408 322.072 178.43 318.243 179.706C317.885 179.808 317.426 179.961 317.12 180.217C315.894 181.238 314.464 181.238 312.984 181.289C311.86 181.289 311.095 180.829 310.482 180.064C310.175 179.706 309.92 179.247 309.665 178.838C309.41 178.481 309.052 178.327 308.593 178.276C307.776 180.268 306.754 182.004 304.559 182.719C304.355 182.872 304.15 183.025 303.946 183.178C304.406 183.485 304.814 183.791 305.274 184.097C305.529 184.097 305.733 184.097 305.989 184.097C306.244 184.199 306.499 184.353 306.754 184.455C307.163 184.506 307.571 184.557 307.98 184.659C308.235 184.761 308.439 184.863 308.695 184.965C309.358 185.118 310.227 184.71 310.686 185.629V185.782Z" fill="#894100"/>
<path d="M311.912 262.678C311.452 262.78 310.89 262.729 310.482 262.933C308.184 264.005 305.938 265.129 303.64 266.201C303.18 266.405 303.078 266.814 303.129 267.222C303.129 267.528 303.282 267.835 303.385 268.141C304.15 270.541 305.019 272.89 306.193 275.187C306.857 276.515 307.469 277.843 307.929 279.221C308.031 279.528 308.082 279.885 308.235 280.14C309.92 282.489 310.941 285.195 311.963 287.799C313.188 291.016 314.873 293.978 316.405 296.99C317.681 299.441 319.06 301.841 320.285 304.343C320.847 305.517 321.562 306.64 321.868 307.917C321.919 308.223 322.073 308.53 322.277 308.785C323.502 310.368 324.013 312.257 324.728 314.044C324.983 314.708 325.34 315.372 325.647 316.035C326.464 317.72 327.332 319.405 328.047 321.09C328.404 322.009 328.915 322.418 329.834 322.367C332.54 322.163 335.144 323.082 337.85 322.877C340.454 322.724 343.058 322.877 345.662 322.877C346.99 322.877 348.266 322.877 349.594 322.877C350.717 322.877 351.84 322.877 352.964 323.235C353.628 323.439 354.393 323.388 355.159 323.388C359.091 323.388 362.972 323.388 366.903 323.388C368.792 323.388 370.631 323.184 372.469 323.797C372.979 323.95 373.592 323.848 374.154 323.848C377.319 323.848 380.536 324.001 383.702 323.848C386.612 323.694 389.165 324.562 391.565 326.043C392.637 326.707 393.659 327.218 394.884 327.473C395.752 327.626 396.569 328.035 397.386 328.443C401.828 330.434 406.321 332.426 410.764 334.366C411.274 334.57 411.887 334.621 412.398 334.774C416.482 334.928 420.516 335.03 424.601 335.183C425.316 335.183 426.082 335.183 426.797 335.183C429.247 335.081 431.341 333.447 431.903 331.047C432.515 328.443 433.026 325.737 432.668 323.082C432.362 320.58 431.239 318.384 428.737 317.312C425.673 315.933 422.61 314.606 419.546 313.278C414.542 311.083 409.538 308.887 404.534 306.691C401.624 305.415 398.765 303.934 395.803 302.913C393.454 302.096 391.31 301.024 389.114 299.952C387.787 299.288 386.357 298.93 384.876 298.981C383.089 298.981 381.302 298.981 379.515 298.93C372.162 298.522 364.861 298.726 357.508 298.369C351.33 298.062 345.101 298.215 338.922 297.909C335.808 297.756 332.744 297.603 329.629 297.603C328.864 297.603 328.455 297.245 328.149 296.582C326.77 293.62 325.391 290.659 324.013 287.697C322.889 285.246 321.817 282.795 320.592 280.396C319.264 277.791 318.09 275.085 316.456 272.634C316.15 272.175 315.945 271.613 315.741 271.103C315.486 270.592 315.384 270.03 315.077 269.52C313.75 267.375 312.677 265.078 311.758 262.729L311.912 262.678Z" fill="#E6A37C"/>
<path d="M178.135 290.608C173.794 285.502 170.016 279.987 166.033 274.626C160.978 267.835 155.923 261.044 150.664 254.406C146.477 249.096 142.393 243.735 138.257 238.374C135.244 234.493 132.283 230.612 129.219 226.834C127.432 224.638 125.492 222.545 123.602 220.4C121.203 222.494 119.313 225.098 117.118 227.396C112.982 231.787 108.846 236.178 105.017 240.824C103.025 243.224 100.881 245.42 98.7873 247.666C97.1024 249.505 95.4174 251.394 93.6813 253.283C93.2729 253.692 93.0175 254.202 92.8133 254.713C92.6091 255.223 92.2006 255.683 91.8942 256.142C93.426 256.142 94.7025 256.653 95.979 257.521C106.242 264.312 116.556 271.052 126.819 277.792C132.129 281.264 137.491 284.736 142.801 288.208C143.005 288.361 143.261 288.463 143.414 288.617C144.894 290.199 146.886 290.965 148.775 291.935C152.809 293.927 156.843 295.867 160.774 298.063C162.765 299.135 164.859 300.003 167.157 300.309C167.923 299.594 168.637 298.829 169.454 298.114C171.701 296.224 173.999 294.386 176.245 292.548C176.96 291.986 177.675 291.476 178.083 290.659L178.135 290.608Z" fill="#FFB68A"/>
<path d="M385.897 193.084C386.561 192.216 386.714 191.143 386.969 190.122C388.297 184.914 387.786 179.961 385.182 175.213C382.476 170.311 378.749 166.43 374.256 163.162C372.979 162.243 371.6 161.631 370.018 161.273C368.179 160.865 366.392 160.303 364.656 159.741C362.205 158.924 359.55 158.465 356.946 158.618C353.576 158.822 350.257 158.618 346.938 158.618C344.794 158.618 342.752 158.822 340.658 159.333C338.36 159.946 336.012 160.201 333.816 161.12C332.029 161.886 330.242 162.703 328.353 163.162C326.106 163.673 324.013 164.49 321.817 165.205C319.468 165.971 317.426 167.349 315.434 168.779C314.158 169.698 313.086 171.026 312.32 172.455C313.086 172.506 313.698 172.098 314.362 171.741C315.945 170.924 317.579 170.26 319.366 169.902C321.357 169.494 323.247 168.779 325.238 168.32C327.995 167.605 330.752 166.941 333.612 167.094C335.399 167.196 337.237 167.349 338.973 166.992C340.76 166.686 342.547 166.686 344.283 166.583C345.56 166.532 346.683 166.737 347.807 167.4C348.419 167.758 349.134 167.911 349.849 168.115C353.372 169.136 356.997 169.749 360.214 171.638C360.367 171.741 360.52 171.792 360.674 171.843C363.941 173.017 366.801 174.804 369.507 176.898C370.732 177.817 372.06 178.685 373.183 179.706C374.919 181.289 376.655 182.923 378.187 184.761C379.413 186.242 380.74 187.722 381.506 189.56C382.068 190.939 383.395 191.756 384.468 192.777C384.825 193.135 385.387 193.084 385.846 193.084H385.897Z" fill="#894100"/>
<path d="M385.898 193.084C385.387 193.084 384.876 193.135 384.519 192.777C383.447 191.807 382.119 190.939 381.558 189.561C380.792 187.722 379.464 186.242 378.239 184.761C376.758 182.923 374.971 181.34 373.235 179.706C372.112 178.685 370.784 177.817 369.559 176.898C366.852 174.804 363.942 172.966 360.725 171.843C360.572 171.792 360.419 171.741 360.266 171.639C357.049 169.749 353.424 169.137 349.9 168.115C349.186 167.911 348.471 167.758 347.858 167.401C346.786 166.737 345.611 166.533 344.335 166.584C342.548 166.686 340.812 166.635 339.025 166.992C337.289 167.298 335.45 167.145 333.663 167.094C330.753 166.941 327.996 167.605 325.29 168.32C323.349 168.83 321.409 169.494 319.418 169.903C317.631 170.26 315.997 170.924 314.414 171.741C313.75 172.047 313.137 172.507 312.371 172.456C311.401 173.426 310.176 174.089 309.461 175.264C309.461 175.57 309.257 175.774 308.95 175.877C308.389 176.642 308.746 177.51 308.644 178.327C309.052 178.327 309.461 178.532 309.716 178.889C310.023 179.298 310.227 179.706 310.533 180.115C311.197 180.88 311.963 181.391 313.035 181.34C314.516 181.34 315.946 181.34 317.171 180.268C317.477 180.012 317.886 179.91 318.294 179.757C322.175 178.481 326.055 177.459 330.089 176.847C333.868 176.234 337.646 175.774 341.476 175.928C342.548 175.928 343.62 175.825 344.59 176.285C344.743 176.336 344.897 176.387 345.05 176.387C348.828 176.234 352.147 177.97 355.67 178.991C357.457 179.553 359.193 180.268 360.878 181.085C363.584 182.412 366.189 183.944 368.384 186.089C369.916 187.569 371.448 189.05 372.877 190.582C374.562 192.369 375.89 194.411 377.32 196.403C377.83 197.117 378.341 197.883 378.902 198.547C379.873 199.722 381.098 200.487 382.681 200.539C384.774 198.496 386.051 196.096 385.847 193.084H385.898Z" fill="#5D3818"/>
<path d="M308.95 175.928C309.256 175.826 309.41 175.622 309.461 175.315C309.154 175.418 308.95 175.622 308.95 175.928Z" fill="#7B4923"/>
<path d="M178.134 290.608C177.726 291.425 176.96 291.935 176.296 292.497C174.05 294.335 171.752 296.173 169.505 298.063C168.688 298.726 167.973 299.492 167.208 300.258C168.229 301.075 169.505 301.433 170.68 301.892C172.058 302.403 173.488 302.811 174.713 303.577C175.735 304.19 176.858 304.292 177.93 304.649C182.577 306.13 187.223 307.56 191.869 308.938C196.669 310.419 201.469 311.849 206.319 313.227C210.506 314.402 214.642 315.831 218.829 317.108C219.391 317.261 219.952 317.363 220.463 317.516C220.82 316.904 221.433 316.699 221.995 316.342C229.654 311.644 237.262 306.896 244.921 302.198C245.278 301.994 245.636 301.79 245.942 301.535C246.35 301.279 246.708 301.33 247.065 301.586C247.321 301.79 247.525 302.045 247.78 302.249C255.133 309.755 262.485 317.312 269.889 324.818C271.88 325.022 273.719 324.256 275.557 323.746C279.131 322.725 282.756 321.908 286.33 320.937C286.841 320.784 287.25 320.682 287.607 320.274C286.637 318.487 285.769 316.648 284.748 314.861C277.395 301.586 270.042 288.31 262.69 275.034C259.779 269.826 256.92 264.618 254.009 259.41C253.652 258.797 253.397 258.083 252.733 257.623C249.006 260.227 245.023 262.167 240.581 263.138C235.475 264.261 230.369 265.231 225.11 264.976C224.037 264.976 222.965 264.976 221.944 264.72C220.872 264.414 219.901 264.72 218.931 265.282C214.336 268.09 209.74 270.899 205.145 273.707C198.814 277.587 192.431 281.417 186.151 285.349C183.955 286.727 181.811 288.259 179.666 289.689C179.207 289.995 178.696 290.25 178.185 290.557L178.134 290.608Z" fill="#494A45"/>
<path d="M279.386 215.549C279.131 215.702 278.876 215.906 278.62 216.06C278.62 216.723 278.212 217.285 277.957 217.898C277.497 218.868 277.497 219.787 277.957 220.706C278.161 221.166 278.365 221.574 278.62 222.034C284.952 234.645 291.232 247.257 297.564 259.869C298.023 260.839 298.483 261.758 299.3 262.473C300.372 263.392 301.648 263.29 302.772 262.882C303.844 262.473 304.61 261.554 304.61 260.227C304.61 259.001 304.457 257.827 303.895 256.703C297.564 244.092 291.283 231.48 284.952 218.868C284.748 218.511 284.594 218.102 284.39 217.796C283.42 216.417 282.297 215.243 280.356 215.549C280.05 215.549 279.693 215.549 279.386 215.549Z" fill="#E6A37B"/>
<path d="M306.04 184.198C305.784 184.198 305.58 184.198 305.325 184.198C304.763 184.198 304.252 184.198 303.691 184.198L303.64 184.3C304.099 184.964 304.763 185.117 305.478 185.27C307.214 185.577 308.899 185.934 310.686 185.832C310.278 184.913 309.41 185.322 308.695 185.168C308.388 185.168 308.133 185.066 307.98 184.862C307.571 184.811 307.163 184.76 306.754 184.658C306.448 184.658 306.193 184.556 305.989 184.3L306.04 184.198Z" fill="#894100"/>
<path d="M303.691 184.149C304.252 184.149 304.763 184.149 305.325 184.149C304.865 183.842 304.457 183.536 303.997 183.229C303.691 183.434 303.589 183.74 303.691 184.098V184.149Z" fill="#894100"/>
<path d="M306.04 184.198C306.193 184.454 306.448 184.607 306.806 184.556C306.55 184.454 306.295 184.3 306.04 184.198Z" fill="#894100"/>
<path d="M308.031 184.761C308.184 185.016 308.439 185.118 308.746 185.067C308.491 184.965 308.286 184.863 308.031 184.761Z" fill="#894100"/>
</svg>
