<?xml version="1.0" encoding="UTF-8"?>
<svg xmlns="http://www.w3.org/2000/svg" version="1.1" viewBox="0 0 1417.3 1417.3">
  <defs>
    <style>
      .cls-1 {
        fill: #696d65;
      }

      .cls-2 {
        fill: #e6a37b;
      }

      .cls-3 {
        fill: #5d3818;
      }

      .cls-4 {
        fill: #7b4923;
      }

      .cls-5 {
        fill: #8989de;
      }

      .cls-6 {
        fill: #494a45;
      }

      .cls-7 {
        fill: #ffb68a;
      }

      .cls-8 {
        fill: #894100;
      }

      .cls-9 {
        fill: #e6a37c;
      }
    </style>
  </defs>
  <!-- Generator: Adobe Illustrator 28.7.1, SVG Export Plug-In . SVG Version: 1.2.0 Build 142)  -->
  <g>
    <g id="_레이어_1" data-name="레이어_1">
      <g>
        <path class="cls-8" d="M642.1,577.4c-.8,2.6-1.6,5.2-2.4,7.7-.4,1.8-.9,3.5-3.3,4.4-10.2,3.9-20.3,7.9-31,11,0-1.1-.8-2-1.9-2.7-4.6-2.6-9-5.5-14-7.6-7.8-3.3-15.8-6.4-24.4-8.3-7.6-1.7-15.3-3.1-23.3-3-3.6,0-7.2.1-10.8,0-5.2-.3-10.2.3-15.2,1.1-11.9,2-23.3,5-33.8,9.9-12.9,5.9-24.3,13.1-33.4,22.5-1.4,1.4-3.1,2.6-4.2,4.2-.5.7-1.4.9-2.4,1-2.8-7.5-3.3-15.1-2.1-22.7,3.4-21.5,17.7-37.2,41.3-47.9,4.6-2.1,9.5-3.7,14.5-5.2,8.8-2.7,17.8-3.9,27.2-3.4,17.8,1,35.4,2.9,52.5,7,10.4,2.5,20.2,5.9,29.3,10.6,12.9,6.6,25.3,13.7,37.4,21.3Z"/>
        <g>
          <path class="cls-1" d="M1018.2,739.3c25.1,23.5,40.7,52.2,46.8,86.1,2.6,14.6,2.7,29.3.1,43.9-.6,3.3-1.6,6.5-3.3,9.5-3.8,6.7-7.4,13.4-11.3,20-3.4,5.8-8.1,10.7-13,15.3-.8.8-1.7,1.5-2.5,2.3-6.3,6.4-13.8,10.9-21.9,14.3-6.5,2.7-13,5.3-19.4,8.2-8.2,3.9-16.7,6.4-25.6,7.7-9.3,1.4-18.5,3.7-27.7,5.5-8,1.6-15.9,3.3-23.8,5.6-4.3,1.3-8.9,1.3-13.3,1.4-4.4.2-8.6.9-12.8,1.6-24.8,4.1-49,10.6-73.4,16.3-30.5,7.1-61,14.4-91.4,21.6-2.7.6-5.3.9-8.1.9-6.1,0-12.2,0-18.2-.7-9.4-1.1-18.5-3.3-27.4-6.5-7-2.5-13.4-6-19.1-10.7-2.3-1.9-4.7-3.2-7.5-4.1-1.7-.5-3.2-1.4-4.7-2.3-8.4-5-16.4-10.5-24.2-16.4-4.7-3.5-9.6-6.9-14.6-10.1-3.5-2.2-7.2-4-10.8-6.1-4.3-2.4-8.8-4.6-12.4-8.1,1.6-.6,3.3-1.2,4.9-1.8,6.3-2.4,11.4-6.4,15.9-11.2,2.7-2.9,5.2-6.1,8.1-8.8,1.2-1.1,2-2.5,2.8-3.9,4.8-8.6,9.6-17.3,14.4-25.9,3.3-6,6.8-11.9,10.2-17.8.7.8,1.5,1,2.5,1.3,7,1.9,14.1,3.5,21.1,5.5,3.6,1,7.2,2.5,11.1,2.1,1.1,1.4,2.8,1.4,4.3,1.8,5.7,1.5,11.5,2.9,17.2,4.4,2.7.8,5.2.8,7.9,0,15.7-4.9,31.5-9.5,47.2-14.3,6.7-2,13.4-4.1,20.1-6.2,1.1-.3,2.2-.4,3.2-.8,8.2-2.4,16.3-5.2,24.5-7.6,9.5-2.7,18.9-5.6,28.3-8.4,9.1-2.8,18.2-5.5,27.3-8.4,2.1-.7,4.3-.9,6.3-2.1,2.4-1.5,5.2-2.4,7.9-3.3,2.4-.8,4.8-1.5,6.8-3.2,4.5-.6,8.6-2.3,12.5-4.4,7.7-4.2,15.6-8.1,23.5-12,3.7-1.8,7.6-3.4,10.5-6.5.3-.3.8-.5,1.2-.8,10.4-6.8,20.9-13.6,31.3-20.4,20.2-13.2,40.3-26.4,60.4-39.7,2.5-1.6,5-2.7,8-2.7Z"/>
          <path class="cls-7" d="M634.9,865c-3.4,5.9-6.8,11.9-10.2,17.8-4.8,8.6-9.6,17.3-14.4,25.9-.8,1.4-1.6,2.8-2.8,3.9-2.9,2.7-5.4,5.9-8.1,8.8-4.5,4.8-9.6,8.9-15.9,11.2-1.6.6-3.3,1.2-4.9,1.8-3.1.7-6.3,1-9.3,2.2-1,.4-2.2.4-3.3.5-.8,0-1.6,0-2.4,0-16.9,0-33.8,1.4-50.7,1.1-10.3,1.3-20.8.2-31.1,1-11.5.9-23,.2-34.4,1-10.5.8-21.1.1-31.6.9-11,.8-22,.3-33,1-6.2.4-12.4.3-18.6.8-6.8.6-11.6-3.9-12.8-10.9-.4-2.4-.6-4.7-.9-7.1-.5-3,0-6.1.9-9,1.3-3.9,3.6-6.9,7.7-8.6,9-3.7,17.9-7.7,26.8-11.6,1.6-.7,3.3-1.2,4.5-2.6,1.1-.2,2.2-.3,3.2-.8,8.8-3.8,17.5-7.7,26.2-11.6,1.6-.7,3.2-1.5,4.9-1.9,2.4-.4,4.4-1.5,6.5-2.8,4.7-2.9,9.7-4.6,15.4-4.3,6.2.3,12.5,0,18.7,0,1.1,0,2.3.2,3.3-.1,3.6-1.2,7.3-.8,10.9-.8,7.7,0,15.3,0,23,0,1.4,0,3,.2,4.3-.3,2.2-.7,4.4-.6,6.6-.7,2.6,0,5.1,0,7.7,0,5.1,0,10.2-.3,15.3,0,5.3.3,10.4-1.4,15.7-1,1.8.1,2.8-.8,3.5-2.5,1.4-3.4,3.1-6.6,4.7-9.9.6-1.3,1.3-2.6,1.8-3.9,1.4-3.5,2.4-7.3,4.8-10.3.4-.5.7-1.1.8-1.7.6-2.5,2-4.7,3.1-7,2.4-4.9,5.1-9.6,7.6-14.4,3.1-5.9,6.3-11.8,8.7-18,2-5.2,4-10.4,7.3-15,.4-.5.4-1.2.6-1.8.9-2.7,2.1-5.3,3.4-7.9,2.2-4.4,4-9,5.5-13.8.2-.6.4-1.2.5-1.8,0-.8-.1-1.6-1-2-4.5-2.1-8.9-4.3-13.4-6.4-.8-.4-1.9-.3-2.8-.5-.1-1-.7-1.7-1.6-2.2-6.6-3.3-13.5-5.8-20.9-6.3-5.7-.4-11.1,1-16.3,3.1-3,1.2-6.1,1.7-9.2,2.4-.9.2-1.9,0-2.9,0,0-3.4,1-6.6,2.3-9.7,4-9.9,8.3-19.8,13.2-29.3,5.3-10.4,4.4-8.8,4.8-20.1.3-6.4-1.1-12.3-3.7-18.1-2.5-5.4-4.8-10.8-6.4-16.5-1.3-4.7-.9-9.3,1.8-13.4,2.8-4.3,6-8.3,9.8-11.8,3.2-2.9,6.4-5.8,9.6-8.7,4.1-3.8,8.2-7.6,12.4-11.3,3.3-2.8,6.5-5.6,9.5-8.8,3.5.1,6.8-.5,10.2-1.1,1.4-.3,2.7-.6,3.6-1.9h.1c2.5.5,4.8-.4,7.1-.9,12-2.5,24-5,36-7.7,3.7-.8,7.4-2.1,11-3.2,1.6-.5,3.1-.7,4.7-.6-1,2-1.9,4-2.9,6-3,6-5.8,12.1-7.4,18.6-1.6,6.5-2.7,13.1-3.2,19.7-.3,4.4-.3,8.9,0,13.4.4,5.4,1.4,10.7,2.1,16.1-.6,0-1.3.2-1.9,0-3.8-.6-5.9,1.7-7.9,4.4-.5.6-.8,1.4-1.1,2.1-12.4,24.7-24.7,49.4-37.1,74.1-1.1,2.3-1.4,4.5-1.4,6.9,0,2.6,1.5,4.4,3.6,5.2,2.2.8,4.7,1,6.8-.8,1.6-1.4,2.5-3.3,3.4-5.1,12.4-24.7,24.7-49.4,37.1-74.1.4-.9.8-1.7,1.3-2.6.9-1.8,1-3.7,0-5.5-.5-1.2-1.3-2.2-1.3-3.6,2.7-3.2,4.9-6.7,7.4-10,3.3-4.5,6.4-9.2,11.2-12.3,1-.7,1.8-1.8,2.6-2.7,4.3-5.2,9-9.9,14.8-13.5,15.9-10,33.2-12.8,51.5-8.7,14.5,3.2,26.7,10.4,35.8,22.4,7.3,9.6,10.7,20.6,10.9,32.6,0,1.9-.5,3.8-.7,5.7-1.1,10-5.1,18.8-11.5,26.4-6.3,7.4-13.8,13.2-22.8,17-9.1,3.9-18.6,5.5-28.4,5.6-2.1,0-4.1-.4-6.2-.7-2.3-.4-3.8.3-5,2.6-2.6,5-5.4,9.8-8.1,14.7-.4.8-.6,1.8-.9,2.7-1.3.8-1.8,2.2-2.5,3.5-5.7,10.2-11.4,20.4-17,30.6-14.4,26-28.8,52-43.2,78-1.9,3.5-3.7,7.1-5.6,10.6Z"/>
          <path class="cls-5" d="M703.2,742.4c.3-.9.5-1.9.9-2.7,2.7-4.9,5.5-9.7,8.1-14.7,1.1-2.2,2.7-2.9,5-2.6,2,.3,4.1.7,6.2.7,9.8,0,19.3-1.7,28.4-5.6,9-3.9,16.6-9.6,22.8-17,6.4-7.6,10.4-16.4,11.5-26.4.2-1.9.7-3.8.7-5.7-.2-12-3.6-23-10.9-32.6-9.1-11.9-21.3-19.2-35.8-22.4-18.3-4-35.5-1.3-51.5,8.7-5.7,3.6-10.5,8.3-14.8,13.5-.8,1-1.6,2.1-2.6,2.7-4.8,3.2-7.9,7.8-11.2,12.3-2.5,3.3-4.7,6.8-7.4,10-.5-.3-1-.7-1.5-1-.7-5.4-1.7-10.7-2.1-16.1-.3-4.4-.3-8.9,0-13.4.5-6.7,1.6-13.2,3.2-19.7,1.6-6.5,4.3-12.6,7.4-18.6,1-2,1.9-4,2.9-6,1.3-1.4,2.5-2.9,3.8-4.3,4.3-5.1,9.7-8.8,15.4-12.1,12.7-7.4,26.5-11.9,40.9-14.3,7.7-1.3,15.5-2.2,23.3-2.2,3.2,0,6.4-.6,9.6-.4,18.7.7,37.2,3.3,55.1,9,14.5,4.6,28.6,10.2,42,17.4,11.9,6.3,22.8,14.1,32.7,23.3,10.5,9.8,21.2,19.4,31.8,29.2,4,3.7,8,7.4,12,11,7.7,7,15.3,14,23,21.1,1.7,1.6,4,2.9,4,5.7-3.7,4.2-7.5,8.3-11,12.6-6,7.4-11.8,15-17.7,22.6-8.1,10.5-16.1,21-24.3,31.4-10.3,13-20.2,26.3-30.1,39.6-7.8,10.5-15.2,21.3-23.7,31.3-1-.6-2-1.1-2.9-1.7-4.3-2.8-8.4-5.8-12.7-8.5-12.4-7.7-24.8-15.2-37.2-22.8-9-5.5-18-10.9-27-16.5-1.9-1.2-3.8-1.7-5.9-1.1-2,.5-4.1.5-6.2.5-10.3.4-20.3-1.4-30.3-3.6-8.7-1.9-16.6-5.7-23.8-10.8Z"/>
          <path class="cls-8" d="M589.8,601.5c-3,3.1-6.3,5.9-9.5,8.8-4.2,3.7-8.3,7.5-12.4,11.3-3.2,2.9-6.4,5.8-9.6,8.7-3.8,3.5-7,7.5-9.8,11.8-2.7,4.1-3.1,8.7-1.8,13.4,1.6,5.7,3.9,11.2,6.4,16.5,2.7,5.8,4,11.7,3.7,18.1-.4,11.4.5,9.7-4.8,20.1-4.9,9.5-9.1,19.4-13.2,29.3-1.3,3.1-2.3,6.3-2.3,9.7-.9.7-2,.9-3.1,1-9.8,1.6-19.5.5-28.9-2.3-17.6-5.3-32.3-15.2-43.8-29.6-8.4-10.5-13-22.6-15.2-35.8-2.2-13.5-1.2-26.8,2.3-39.9,1.1-4,2.1-8.1,1.1-12.3,3.1,0,5.5-1.6,7.4-3.9,1.1-1.3,2.1-2.8,3.1-4.2,2.8-3.9,5.4-7.9,8.7-11.4,2.8-3,5.8-5.9,8.8-8.8,4.3-4.1,9.3-7.2,14.7-9.8,3.3-1.6,6.7-3,10.2-4.1,6.8-2.1,13.4-5.4,20.8-5.1.3,0,.7,0,.9-.2,2-.9,4.1-.7,6.1-.7,7.5-.2,14.9.7,22.3,1.8,7.9,1.2,15.6,3.2,23.1,5.7.7.2,1.6.5,2.2,1,2.4,2,5.2,2,8.1,2.1,2.2,0,3.7-.9,4.9-2.4.6-.7,1.1-1.6,1.6-2.4.5-.7,1.2-1,2.1-1.1,1.6,3.9,3.6,7.3,7.9,8.7.4.3.8.6,1.2.9-.9.6-1.7,1.2-2.6,1.8-.5,0-.9,0-1.4,0-.5.2-1,.5-1.5.7-.8.1-1.6.2-2.4.4-.5.2-.9.4-1.4.6-1.3.3-3-.5-3.9,1.3Z"/>
          <path class="cls-9" d="M587.4,752.1c.9.2,2,.1,2.8.5,4.5,2.1,8.9,4.3,13.4,6.4.9.4,1.1,1.2,1,2,0,.6-.3,1.2-.5,1.8-1.5,4.7-3.2,9.3-5.5,13.8-1.3,2.6-2.5,5.2-3.4,7.9-.2.6-.3,1.3-.6,1.8-3.3,4.6-5.3,9.9-7.3,15-2.4,6.3-5.7,12.1-8.7,18-2.5,4.8-5.2,9.5-7.6,14.4-1.1,2.3-2.5,4.5-3.1,7-.1.6-.4,1.2-.8,1.7-2.4,3.1-3.4,6.8-4.8,10.3-.5,1.3-1.2,2.6-1.8,3.9-1.6,3.3-3.3,6.6-4.7,9.9-.7,1.8-1.7,2.6-3.5,2.5-5.3-.4-10.4,1.4-15.7,1-5.1-.3-10.2,0-15.3,0-2.6,0-5.1,0-7.7,0-2.2,0-4.4,0-6.6.7-1.3.4-2.8.3-4.3.3-7.7,0-15.3,0-23,0-3.7,0-7.3-.4-10.9.8-1,.3-2.2.1-3.3.1-6.2,0-12.5.3-18.7,0-5.7-.3-10.7,1.4-15.4,4.3-2.1,1.3-4.1,2.3-6.5,2.8-1.7.3-3.3,1.1-4.9,1.9-8.7,3.9-17.5,7.8-26.2,11.6-1,.4-2.2.5-3.2.8-8,.3-15.9.5-23.9.8-1.4,0-2.9,0-4.3,0-4.8-.2-8.9-3.4-10-8.1-1.2-5.1-2.2-10.4-1.5-15.6.6-4.9,2.8-9.2,7.7-11.3,6-2.7,12-5.3,18-7.9,9.8-4.3,19.6-8.6,29.4-12.9,5.7-2.5,11.3-5.4,17.1-7.4,4.6-1.6,8.8-3.7,13.1-5.8,2.6-1.3,5.4-2,8.3-1.9,3.5,0,7,0,10.5-.1,14.4-.8,28.7-.4,43.1-1.1,12.1-.6,24.3-.3,36.4-.9,6.1-.3,12.1-.6,18.2-.6,1.5,0,2.3-.7,2.9-2,2.7-5.8,5.4-11.6,8.1-17.4,2.2-4.8,4.3-9.6,6.7-14.3,2.6-5.1,4.9-10.4,8.1-15.2.6-.9,1-2,1.4-3,.5-1,.7-2.1,1.3-3.1,2.6-4.2,4.7-8.7,6.5-13.3Z"/>
          <path class="cls-7" d="M849.4,806.8c8.5-10,15.9-20.8,23.7-31.3,9.9-13.3,19.8-26.6,30.1-39.6,8.2-10.4,16.2-20.9,24.3-31.4,5.9-7.6,11.7-15.2,17.7-22.6,3.5-4.3,7.3-8.4,11-12.6,4.7,4.1,8.4,9.2,12.7,13.7,8.1,8.6,16.2,17.2,23.7,26.3,3.9,4.7,8.1,9,12.2,13.4,3.3,3.6,6.6,7.3,10,11,.8.8,1.3,1.8,1.7,2.8.4,1,1.2,1.9,1.8,2.8-3,0-5.5,1-8,2.7-20.1,13.3-40.3,26.5-60.4,39.7-10.4,6.8-20.9,13.6-31.3,20.4-.4.3-.9.5-1.2.8-2.9,3.1-6.8,4.6-10.5,6.5-7.9,3.9-15.8,7.7-23.5,12-3.9,2.1-8,3.8-12.5,4.4-1.5-1.4-2.9-2.9-4.5-4.3-4.4-3.7-8.9-7.3-13.3-10.9-1.4-1.1-2.8-2.1-3.6-3.7Z"/>
          <path class="cls-8" d="M442.5,615.8c-1.3-1.7-1.6-3.8-2.1-5.8-2.6-10.2-1.6-19.9,3.5-29.2,5.3-9.6,12.6-17.2,21.4-23.6,2.5-1.8,5.2-3,8.3-3.7,3.6-.8,7.1-1.9,10.5-3,4.8-1.6,10-2.5,15.1-2.2,6.6.4,13.1,0,19.6,0,4.2,0,8.2.4,12.3,1.4,4.5,1.2,9.1,1.7,13.4,3.5,3.5,1.5,7,3.1,10.7,4,4.4,1,8.5,2.6,12.8,4,4.6,1.5,8.6,4.2,12.5,7,2.5,1.8,4.6,4.4,6.1,7.2-1.5.1-2.7-.7-4-1.4-3.1-1.6-6.3-2.9-9.8-3.6-3.9-.8-7.6-2.2-11.5-3.1-5.4-1.4-10.8-2.7-16.4-2.4-3.5.2-7.1.5-10.5-.2-3.5-.6-7-.6-10.4-.8-2.5-.1-4.7.3-6.9,1.6-1.2.7-2.6,1-4,1.4-6.9,2-14,3.2-20.3,6.9-.3.2-.6.3-.9.4-6.4,2.3-12,5.8-17.3,9.9-2.4,1.8-5,3.5-7.2,5.5-3.4,3.1-6.8,6.3-9.8,9.9-2.4,2.9-5,5.8-6.5,9.4-1.1,2.7-3.7,4.3-5.8,6.3-.7.7-1.8.6-2.7.6Z"/>
          <path class="cls-3" d="M442.5,615.8c1,0,2,.1,2.7-.6,2.1-1.9,4.7-3.6,5.8-6.3,1.5-3.6,4.1-6.5,6.5-9.4,2.9-3.6,6.4-6.7,9.8-9.9,2.2-2,4.8-3.7,7.2-5.5,5.3-4.1,11-7.7,17.3-9.9.3-.1.6-.2.9-.4,6.3-3.7,13.4-4.9,20.3-6.9,1.4-.4,2.8-.7,4-1.4,2.1-1.3,4.4-1.7,6.9-1.6,3.5.2,6.9.1,10.4.8,3.4.6,7,.3,10.5.2,5.7-.3,11.1,1,16.4,2.4,3.8,1,7.6,2.3,11.5,3.1,3.5.7,6.7,2,9.8,3.6,1.3.6,2.5,1.5,4,1.4,1.9,1.9,4.3,3.2,5.7,5.5,0,.6.4,1,1,1.2,1.1,1.5.4,3.2.6,4.8-.8,0-1.6.4-2.1,1.1-.6.8-1,1.6-1.6,2.4-1.3,1.5-2.8,2.5-4.9,2.4-2.9,0-5.7,0-8.1-2.1-.6-.5-1.4-.7-2.2-1-7.6-2.5-15.2-4.5-23.1-5.7-7.4-1.2-14.8-2.1-22.3-1.8-2.1,0-4.2-.2-6.1.7-.3.1-.6.2-.9.2-7.4-.3-13.9,3.1-20.8,5.1-3.5,1.1-6.9,2.5-10.2,4.1-5.3,2.6-10.4,5.6-14.7,9.8-3,2.9-6,5.8-8.8,8.8-3.3,3.5-5.9,7.5-8.7,11.4-1,1.4-2,2.9-3.1,4.2-1.9,2.3-4.3,3.8-7.4,3.9-4.1-4-6.6-8.7-6.2-14.6Z"/>
          <path class="cls-4" d="M593.2,582.2c-.6-.2-.9-.6-1-1.2.6.2,1,.6,1,1.2Z"/>
          <path class="cls-6" d="M849.4,806.8c.8,1.6,2.3,2.6,3.6,3.7,4.4,3.6,8.9,7.2,13.3,10.9,1.6,1.3,3,2.8,4.5,4.3-2,1.6-4.5,2.3-6.8,3.2-2.7,1-5.5,1.8-7.9,3.3-2,1.2-4.2,1.4-6.3,2.1-9.1,2.9-18.2,5.7-27.3,8.4-9.4,2.9-18.8,5.7-28.3,8.4-8.2,2.3-16.3,5.1-24.5,7.6-1.1.3-2.2.5-3.2.8-.7-1.2-1.9-1.6-3-2.3-15-9.2-29.9-18.5-44.9-27.7-.7-.4-1.4-.8-2-1.3-.8-.5-1.5-.4-2.2.1-.5.4-.9.9-1.4,1.3-14.4,14.7-28.8,29.5-43.3,44.2-3.9.4-7.5-1.1-11.1-2.1-7-2-14.1-3.6-21.1-5.5-1-.3-1.8-.5-2.5-1.3,1.9-3.5,3.6-7.1,5.6-10.6,14.4-26,28.8-52,43.2-78,5.7-10.2,11.3-20.4,17-30.6.7-1.2,1.2-2.6,2.5-3.5,7.3,5.1,15.1,8.9,23.8,10.8,10,2.2,20,4.1,30.3,3.6,2.1,0,4.2,0,6.2-.5,2.1-.6,4,0,5.9,1.1,9,5.5,18,11,27,16.5,12.4,7.6,24.9,15.1,37.2,22.8,4.3,2.7,8.5,5.7,12.7,8.5.9.6,1.9,1.1,2.9,1.7Z"/>
          <path class="cls-2" d="M651.1,659.8c.5.3,1,.7,1.5,1,0,1.3.8,2.4,1.3,3.6.9,1.9.9,3.7,0,5.5-.4.9-.8,1.7-1.3,2.6-12.4,24.7-24.7,49.4-37.1,74.1-.9,1.9-1.8,3.7-3.4,5.1-2.1,1.8-4.6,1.6-6.8.8-2.1-.8-3.6-2.6-3.6-5.2,0-2.4.3-4.7,1.4-6.9,12.4-24.7,24.7-49.4,37.1-74.1.4-.7.7-1.5,1.1-2.1,1.9-2.7,4.1-5,7.9-4.4.6,0,1.3,0,1.9,0Z"/>
          <path class="cls-8" d="M598.9,598.4c.5,0,.9,0,1.4,0,1.1,0,2.1,0,3.2,0,0,0,.1.2.1.2-.9,1.3-2.2,1.6-3.6,1.9-3.4.6-6.7,1.3-10.2,1.1.8-1.8,2.5-1,3.9-1.3.6,0,1.1-.2,1.4-.6.8-.1,1.6-.2,2.4-.4.6,0,1.1-.2,1.5-.7Z"/>
          <path class="cls-8" d="M603.5,598.3c-1.1,0-2.1,0-3.2,0,.9-.6,1.7-1.2,2.6-1.8.6.4.8,1,.6,1.7Z"/>
          <path class="cls-8" d="M598.9,598.4c-.3.5-.8.8-1.5.7.5-.2,1-.5,1.5-.7Z"/>
          <path class="cls-8" d="M595,599.5c-.3.5-.8.7-1.4.6.5-.2.9-.4,1.4-.6Z"/>
        </g>
      </g>
    </g>
  </g>
</svg>