<svg width="497" height="497" viewBox="0 0 497 497" fill="none" xmlns="http://www.w3.org/2000/svg">
<path d="M201 361.796L202.971 378.252L246.5 388.796L290.029 378.252L292 361.796H201Z" fill="#333333"/>
<path d="M290.029 251.973C293.15 233.207 277.709 199.101 277.709 199.101C270.318 198.122 262.597 197.796 256.848 197.796H236.152C230.238 197.796 222.682 198.122 215.291 199.101C215.291 199.101 199.85 233.37 202.971 251.973C205.928 269.434 210.856 295.054 201 361.796H246.5H292C282.144 295.054 287.072 269.434 290.029 251.973Z" fill="#FF8AA0"/>
<path d="M264.025 373.497C239.855 381.974 212.418 391.25 205.722 391.25C177.959 391.41 155.748 401.327 157.055 407.085C157.055 407.085 222.38 408.684 270.884 407.085C289.665 406.605 282.806 367.099 264.025 373.497Z" fill="#F6BB92"/>
<path d="M263 373.208C281.582 366.487 298.224 359.93 302.102 359.602C334.257 356.159 353 363.372 353 388.453C353 406.157 331.833 407.796 313.251 407.796C303.233 407.796 288.368 407.14 269.948 407.796C269.14 395.829 266.878 384.355 263 373.208Z" fill="#3D3C3C"/>
<path d="M228.339 359.601C253.82 360.44 282.709 361.111 289.039 359.097C315.331 350.538 339.351 353.559 340 359.601C340 359.601 278.652 381.753 232.397 395.346C214.544 400.548 208.539 358.929 228.339 359.601Z" fill="#F6BB92"/>
<path d="M228.101 359.008C208.284 358.357 186.679 352.82 179.369 351.029C164.425 347.284 147.044 341.911 142.496 366.824C138.11 391.412 163.775 393.854 182.293 396.622C193.664 398.251 214.132 398.902 232 393.691C229.239 382.293 227.939 370.569 228.101 359.008Z" fill="#3D3C3C"/>
<path d="M166.482 352.953L128.452 349.852L127.799 344.955L131.716 344.466L142.489 343.16L143.468 338.916L151.303 338.59L157.832 339.896L164.197 337.284L181.988 315.249C182.478 307.415 183.784 295.173 181.662 272.485C178.724 242.779 181.825 208.992 189.986 204.748C200.596 199.199 216.428 198.546 216.428 198.546C216.428 198.546 209.409 235.76 205.166 235.924C203.534 235.924 205.003 275.75 203.697 292.888C202.717 307.414 202.391 317.861 198.8 323.573C195.209 329.286 166.482 352.953 166.482 352.953Z" fill="#F6BB92"/>
<path d="M332.314 362.747L370.345 359.646L370.998 354.749L367.081 354.259L356.308 352.954L355.329 348.71L347.494 348.383L340.965 349.689L334.6 347.078L312.565 314.923C312.075 307.088 310.769 294.847 312.891 272.159C315.829 242.453 312.728 208.666 304.567 204.422C293.957 198.873 278.125 198.22 278.125 198.22C278.125 198.22 285.144 235.434 289.387 235.597C291.019 235.597 289.55 275.423 290.856 292.562C291.836 307.088 292.162 317.534 295.753 323.247C299.344 328.96 323.011 352.464 323.011 352.464L332.314 362.747Z" fill="#F6BB92"/>
<path d="M261 178.796H232C236.462 191.653 232.343 197.439 232.343 197.439C232.343 197.439 233.201 205.796 246.586 205.796C259.799 205.796 260.657 197.439 260.657 197.439C260.657 197.439 256.538 191.492 261 178.796Z" fill="#ECAD83"/>
<path d="M276 139.8C276 107.246 262.925 99.7959 247 99.7959C230.908 99.7959 218 107.246 218 139.8C218 150.813 220.012 159.397 223.029 166.037C229.734 180.613 241.301 185.796 247 185.796C252.699 185.796 264.266 180.613 270.971 166.037C273.988 159.397 276 150.813 276 139.8Z" fill="#F6BB92"/>
<path d="M255 172.799C255 172.799 251.184 173.796 246.5 173.796C241.816 173.796 238 172.799 238 172.799C238 172.527 240.776 170.897 242.51 170.806C243.551 170.715 246.5 171.259 246.5 171.259C246.5 171.259 249.276 170.715 250.49 170.806C252.224 170.897 255 172.799 255 172.799Z" fill="#D6876B"/>
<path d="M255 173.224C255 173.224 251.184 176.796 246.5 176.796C241.816 176.796 238 173.224 238 173.224C238 173.224 238.867 172.153 243.898 171.796C244.765 171.796 245.806 172.51 246.5 172.51C247.194 172.51 248.061 171.796 248.755 171.796C253.959 172.153 255 173.224 255 173.224Z" fill="#CC785E"/>
<path d="M247 110.796C255.284 110.796 262 106.319 262 100.796C262 95.273 255.284 90.7959 247 90.7959C238.716 90.7959 232 95.273 232 100.796C232 106.319 238.716 110.796 247 110.796Z" fill="#4C230C"/>
<path d="M276 140.796C276 108.478 266.986 99.7959 246.5 99.7959C226.014 99.7959 217 108.639 217 140.796C217 140.796 260.758 131.47 260.758 119.733C260.758 131.47 276 140.796 276 140.796Z" fill="#602F0F"/>
<path d="M216.267 151.7C217.736 160.677 219.694 161.004 222.469 160.514L219.531 141.091C216.756 141.58 214.634 142.723 216.267 151.7Z" fill="#F6BB92"/>
<path d="M275.028 141.091L272.09 160.514C274.865 161.004 276.66 160.514 278.292 151.7C279.924 142.723 277.803 141.58 275.028 141.091Z" fill="#F6BB92"/>
<path d="M221.163 142.885C221 141.906 221 141.09 221 140.274C221 139.294 221.163 138.642 221.163 138.642L217.898 139.947C217.898 140.437 217.898 140.927 217.898 141.416C217.898 141.416 218.225 141.253 218.878 141.09C218.878 141.09 218.878 141.09 218.715 141.09C219.204 141.906 219.694 143.049 220.347 144.844C220.347 145.007 221.653 145.987 221.163 142.885Z" fill="#602F0F"/>
<path d="M273.394 140.437C273.394 141.09 273.394 142.069 273.231 142.885C272.741 145.823 274.047 144.844 274.047 144.844C274.537 143.049 275.19 141.906 275.679 141.09C276.332 141.253 276.659 141.416 276.659 141.416C276.659 140.927 276.659 140.437 276.659 139.947L273.394 138.642C273.231 138.805 273.394 139.458 273.394 140.437Z" fill="#602F0F"/>
</svg>
