<svg width="497" height="497" viewBox="0 0 497 497" fill="none" xmlns="http://www.w3.org/2000/svg">
<path d="M208 339L209.69 353.018L247 362L284.31 353.018L286 339H208Z" fill="#333333"/>
<path d="M284.31 245.249C286.986 229.229 273.751 200.114 273.751 200.114C267.415 199.279 260.798 199 255.87 199H238.13C233.061 199 226.585 199.279 220.249 200.114C220.249 200.114 207.014 229.368 209.69 245.249C212.224 260.154 216.448 282.025 208 339H247H286C277.552 282.025 281.776 260.154 284.31 245.249Z" fill="#FF8AA0"/>
<path d="M261.757 348.601C241.261 355.867 217.994 363.818 212.316 363.818C188.773 363.955 169.939 372.455 171.046 377.391C171.046 377.391 226.442 378.762 267.574 377.391C283.5 376.979 277.683 343.117 261.757 348.601Z" fill="#F6BB92"/>
<path d="M261 348.353C276.898 342.592 291.136 336.972 294.454 336.691C321.964 333.74 338 339.923 338 361.42C338 376.595 319.89 378 303.993 378C295.422 378 282.704 377.438 266.944 378C266.253 367.743 264.318 357.907 261 348.353Z" fill="#3D3C3C"/>
<path d="M231.548 336.975C253.33 337.695 278.025 338.27 283.436 336.544C305.912 329.208 326.445 331.797 327 336.975C327 336.975 274.557 355.963 235.017 367.614C219.755 372.073 214.622 336.4 231.548 336.975Z" fill="#F6BB92"/>
<path d="M231.665 336.643C214.709 336.082 196.226 331.321 189.972 329.781C177.186 326.56 162.315 321.939 158.424 343.364C154.672 364.51 176.63 366.61 192.473 368.991C202.202 370.391 219.713 370.951 235 366.47C232.637 356.668 231.526 346.585 231.665 336.643Z" fill="#3D3C3C"/>
<path d="M178.757 331.398L146.356 328.756L145.8 324.584L149.137 324.167L158.315 323.054L159.15 319.439L165.825 319.16L171.387 320.273L176.81 318.048L191.968 299.275C192.385 292.6 193.498 282.17 191.69 262.841C189.187 237.532 191.829 208.747 198.782 205.131C207.821 200.403 221.31 199.847 221.31 199.847C221.31 199.847 215.33 231.552 211.714 231.691C210.324 231.691 211.575 265.622 210.463 280.224C209.629 292.6 209.35 301.5 206.291 306.367C203.232 311.234 178.757 331.398 178.757 331.398Z" fill="#F6BB92"/>
<path d="M320.043 339.741L352.444 337.099L353 332.927L349.662 332.51L340.484 331.397L339.65 327.782L332.975 327.503L327.413 328.616L321.989 326.391L303.216 298.996C302.799 292.321 301.687 281.892 303.494 262.562C305.997 237.253 303.355 208.468 296.402 204.852C287.363 200.124 273.875 199.568 273.875 199.568C273.875 199.568 279.854 231.274 283.47 231.413C284.86 231.413 283.609 265.343 284.721 279.945C285.556 292.321 285.834 301.221 288.893 306.088C291.952 310.955 312.116 330.98 312.116 330.98L320.043 339.741Z" fill="#F6BB92"/>
<path d="M259 183H235C238.692 193.952 235.284 198.881 235.284 198.881C235.284 198.881 235.994 206 247.071 206C258.006 206 258.716 198.881 258.716 198.881C258.716 198.881 255.308 193.815 259 183Z" fill="#ECAD83"/>
<path d="M272 149.957C272 122.324 260.954 116 247.5 116C233.905 116 223 122.324 223 149.957C223 159.305 224.699 166.591 227.249 172.228C232.913 184.601 242.685 189 247.5 189C252.315 189 262.087 184.601 267.751 172.228C270.301 166.591 272 159.305 272 149.957Z" fill="#F6BB92"/>
<path d="M254 178.003C254 178.003 250.857 179 247 179C243.143 179 240 178.003 240 178.003C240 177.732 242.286 176.101 243.714 176.01C244.571 175.92 247 176.463 247 176.463C247 176.463 249.286 175.92 250.286 176.01C251.714 176.101 254 178.003 254 178.003Z" fill="#D6876B"/>
<path d="M254 178.143C254 178.143 250.857 181 247 181C243.143 181 240 178.143 240 178.143C240 178.143 240.714 177.286 244.857 177C245.571 177 246.429 177.571 247 177.571C247.571 177.571 248.286 177 248.857 177C253.143 177.286 254 178.143 254 178.143Z" fill="#CC785E"/>
<path d="M247.5 125C254.404 125 260 121.194 260 116.5C260 111.806 254.404 108 247.5 108C240.596 108 235 111.806 235 116.5C235 121.194 240.596 125 247.5 125Z" fill="#4C230C"/>
<path d="M272 151C272 123.412 264.361 116 247 116C229.639 116 222 123.549 222 151C222 151 259.083 143.039 259.083 133.02C259.083 143.039 272 151 272 151Z" fill="#602F0F"/>
<path d="M221.171 159.935C222.422 167.584 224.091 167.862 226.455 167.445L223.952 150.896C221.588 151.314 219.78 152.287 221.171 159.935Z" fill="#F6BB92"/>
<path d="M271.233 150.896L268.729 167.445C271.094 167.862 272.623 167.445 274.014 159.935C275.404 152.287 273.597 151.314 271.233 150.896Z" fill="#F6BB92"/>
<path d="M225.343 152.426C225.204 151.592 225.204 150.896 225.204 150.201C225.204 149.367 225.343 148.811 225.343 148.811L222.562 149.923C222.562 150.34 222.562 150.757 222.562 151.175C222.562 151.175 222.84 151.036 223.396 150.896C223.396 150.896 223.396 150.896 223.257 150.896C223.674 151.592 224.091 152.565 224.647 154.095C224.647 154.234 225.76 155.068 225.343 152.426Z" fill="#602F0F"/>
<path d="M269.842 150.34C269.842 150.896 269.842 151.731 269.703 152.426C269.286 154.929 270.398 154.095 270.398 154.095C270.815 152.565 271.372 151.592 271.789 150.896C272.345 151.036 272.623 151.175 272.623 151.175C272.623 150.757 272.623 150.34 272.623 149.923L269.842 148.811C269.703 148.95 269.842 149.506 269.842 150.34Z" fill="#602F0F"/>
</svg>
