<svg width="500" height="500" viewBox="0 0 500 500" fill="none" xmlns="http://www.w3.org/2000/svg">
<path d="M236.965 394.494C236.348 394.523 235.73 394.575 235.109 394.575C216.095 394.579 197.083 394.579 178.069 394.575C177.561 394.575 177.053 394.575 176.545 394.568C173.895 394.551 171.253 394.438 168.614 394.134C165.474 393.775 162.352 393.309 159.273 392.642C156.196 391.975 153.145 391.161 150.167 390.116C145.86 388.606 141.634 386.902 137.619 384.712C135.545 383.579 133.484 382.405 131.484 381.145C128.93 379.533 126.789 377.452 125.092 374.947C123.794 373.038 122.506 371.116 121.582 368.985C121.448 368.674 121.194 368.375 121.18 368.061C121.123 366.981 120.393 366.371 119.694 365.729C120.326 365.556 120.908 365.824 121.504 365.94C123.321 366.297 125.102 366.889 126.993 366.773C127.272 366.755 127.561 366.791 127.833 366.861C129.639 367.334 131.498 367.426 133.343 367.637C134.246 367.74 135.019 367.5 135.619 366.805C136.134 366.209 136.684 365.63 137.118 364.981C138.621 362.734 140.099 360.469 141.556 358.19C143.549 355.075 146.015 352.397 148.82 349.998C150.284 348.746 151.903 347.73 153.455 346.608C155.928 344.816 157.932 342.653 158.652 339.556C158.803 338.9 159.079 338.272 159.1 337.584C159.11 337.192 159.382 336.995 159.738 336.907C160.5 337.21 161.287 337.118 162.067 337.037C164.42 336.797 166.769 336.533 169.122 336.289C170.636 336.134 172.152 336.021 173.666 335.855C176.351 335.559 179.035 335.22 181.72 334.931C184.408 334.642 187.1 334.391 189.788 334.123C189.957 334.106 190.12 334.06 190.289 334.042C193.309 333.675 196.325 333.195 199.369 333.259C204.104 333.358 208.834 333.562 213.565 333.749C217.453 333.901 221.337 334.084 225.221 334.279C226.099 334.321 226.897 334.162 227.645 333.711C228.177 333.968 228.749 333.894 229.31 333.912C233.363 334.035 237.42 333.972 241.477 334.197C246.144 334.458 250.826 334.289 255.503 334.543C258.989 334.73 262.492 334.642 265.988 334.66C266.662 334.663 267.357 334.695 268.009 334.554C269.071 334.321 270.133 334.293 271.202 334.286C273.908 334.271 276.614 334.275 279.32 334.261C279.88 334.261 280.441 334.211 281.006 334.187C282.576 334.42 284.156 334.229 285.73 334.279C288.439 334.363 291.124 333.936 293.829 333.947C297.209 333.961 300.582 333.855 303.951 333.573C305.633 333.432 307.327 333.368 308.995 333.15C310.124 333.001 311.232 333.037 312.357 333.09C314.449 333.188 316.453 333.834 318.524 334.042C319.586 334.148 320.662 334.187 321.709 334.377C324.482 334.878 327.297 335.023 330.088 335.376C332.822 335.721 335.57 335.965 338.311 336.258C340.717 336.515 343.12 336.776 345.525 337.03C345.861 337.065 346.199 337.083 346.534 337.058C346.774 337.041 346.912 336.843 347 336.628C347.526 336.9 347.568 337.397 347.649 337.912C348.076 340.734 349.346 343.102 351.445 345.059C352.443 345.991 353.586 346.696 354.694 347.465C358.617 350.182 362.021 353.417 364.65 357.424C365.853 359.259 367.027 361.111 368.213 362.956C369.003 364.187 369.878 365.358 370.82 366.48C371.441 367.221 372.185 367.56 373.18 367.493C374.81 367.383 376.422 367.175 378.02 366.879C379.124 366.674 380.218 366.406 381.361 366.494C381.922 366.537 382.472 366.388 383.022 366.258C384.335 365.951 385.658 365.704 386.977 365.429C386.776 366.067 385.975 366.187 385.76 366.784C385.548 367.362 385.464 367.983 385.287 368.572C384.01 372.915 381.548 376.481 378.157 379.438C376.919 380.517 375.536 381.385 374.143 382.239C368.939 385.424 363.422 387.961 357.665 389.958C355.065 390.857 352.412 391.591 349.731 392.244C347.155 392.871 344.555 393.408 341.945 393.746C338.657 394.173 335.355 394.586 332.014 394.579C320.231 394.551 308.448 394.579 296.666 394.582C288.379 394.582 280.092 394.582 271.802 394.582C271.128 394.582 270.454 394.53 269.78 394.498C269.78 393.147 269.406 391.831 269.421 390.469C269.445 388.331 268.976 386.215 269.047 384.07C269.05 383.957 269.018 383.847 269.011 383.735C268.824 381.607 268.546 379.487 268.472 377.356C268.39 374.993 267.96 372.654 268.038 370.283C268.041 370.17 268.017 370.057 268.009 369.948C267.808 367.486 267.611 365.02 267.406 362.557C267.286 361.1 267.216 359.636 266.997 358.193C266.902 357.558 266.87 356.839 266.387 356.306C266.217 355.082 265.431 354.165 264.799 353.18C264.076 352.052 263.018 351.335 261.772 350.866C260.308 350.316 258.894 350.633 257.486 351.088C256.265 351.484 255.295 352.189 254.614 353.3C254.357 353.72 254.209 354.239 253.725 354.528C253.309 354.422 253.129 354.045 252.911 353.741C252.41 353.057 251.898 352.38 251.238 351.85C248.466 349.607 246.345 349.818 243.975 351.812C243.844 351.921 243.731 352.044 243.608 352.161C242.362 353.343 241.54 354.814 240.771 356.32C240.676 356.511 240.694 356.758 240.662 356.98C240.556 357.17 240.415 357.354 240.355 357.558C239.65 359.954 239.53 362.441 239.378 364.903C239.244 367.094 238.856 369.271 238.933 371.475C238.937 371.588 238.912 371.701 238.902 371.811C238.704 374.051 238.454 376.287 238.323 378.531C238.207 380.5 237.84 382.447 237.91 384.426C237.914 384.539 237.882 384.648 237.872 384.761C237.685 386.719 237.445 388.673 237.325 390.638C237.247 391.93 237.212 393.224 236.972 394.501L236.965 394.494Z" fill="#6A6D66"/>
<path d="M226.572 202.967C227.659 202.438 228.83 202.367 230.005 202.3C233.031 202.124 236.026 201.683 239.011 201.196C239.212 201.171 239.413 201.143 239.614 201.118C239.829 201.079 240.041 201.041 240.256 201.002C240.694 201.252 241.166 201.46 241.569 201.76C244.514 203.933 247.552 205.987 250.356 208.35C251.348 209.183 252.371 209.98 253.39 210.777C253.874 211.158 254.099 211.158 254.59 210.76C256.029 209.585 257.465 208.403 258.886 207.204C260.439 205.898 261.934 204.526 263.522 203.267C264.616 202.399 265.677 201.453 267.007 200.928C267.805 201.415 268.694 201.538 269.597 201.542C272.416 201.549 275.16 202.251 277.968 202.378C278.462 202.399 278.945 202.614 279.436 202.737C279.87 203.44 279.937 204.209 279.891 205.013C279.757 207.44 280.028 209.857 280.339 212.248C280.787 215.702 281.545 219.106 282.226 222.521C282.731 225.058 283.401 227.555 283.75 230.127C284.047 232.304 284.583 234.431 285.299 236.512C285.465 236.989 285.56 237.49 285.691 237.977C286.315 240.312 286.922 242.651 287.571 244.979C288.724 249.1 290.121 253.139 291.836 257.062C292.273 258.06 292.527 259.076 292.545 260.159C292.055 260.516 291.847 261.006 291.829 261.609C291.811 262.114 291.78 262.622 291.684 263.116C291.003 266.583 290.174 270.016 289.144 273.399C288.982 273.935 288.859 274.482 288.739 275.032C288.453 276.348 288.209 277.671 287.892 278.98C287.158 282.032 286.364 285.069 285.828 288.17C285.638 289.263 285.518 290.385 285.052 291.419C282.311 290.558 279.528 289.874 276.741 289.182C272.744 288.191 268.68 287.591 264.637 286.886C261.871 286.402 259.052 286.17 256.227 286.237C255.496 286.254 254.759 286.223 254.029 286.191C250.021 286.018 246.038 286.473 242.045 286.614C241.988 286.614 241.932 286.625 241.876 286.632C240.087 286.843 238.295 287.023 236.51 287.274C233.949 287.63 231.405 288.096 228.886 288.703C226.741 289.218 224.695 289.997 222.656 290.809C221.901 290.135 221.651 289.196 221.386 288.283C218.776 279.245 216.172 270.206 213.576 261.165C213.498 260.893 213.473 260.607 213.17 260.477C213.308 259.799 213.66 259.214 214.013 258.642C215.833 255.7 217.096 252.504 218.186 249.251C219.277 245.995 219.897 242.609 220.642 239.261C221.044 237.451 221.277 235.602 221.633 233.782C222.776 227.933 223.947 222.087 224.868 216.196C225.552 211.804 226.173 207.405 226.576 202.977L226.572 202.967Z" fill="#8A8AD9"/>
<path d="M292.552 260.159C292.534 259.076 292.28 258.06 291.843 257.061C290.132 253.139 288.732 249.099 287.578 244.979C286.929 242.65 286.322 240.311 285.698 237.976C285.567 237.489 285.468 236.988 285.306 236.512C284.59 234.431 284.054 232.303 283.757 230.127C283.408 227.559 282.738 225.057 282.233 222.521C281.552 219.106 280.798 215.698 280.346 212.248C280.036 209.856 279.764 207.44 279.898 205.012C279.944 204.208 279.877 203.439 279.443 202.737C279.609 202.705 279.778 202.631 279.937 202.645C281.168 202.755 282.413 202.783 283.623 203.016C287.402 203.742 291.053 204.893 294.408 206.812C296.553 208.039 298.673 209.334 300.468 211.08C300.952 211.549 301.555 211.899 302.014 212.382C302.867 213.278 303.721 214.185 304.455 215.176C306.162 217.48 307.87 219.79 309.44 222.186C311.26 224.962 312.974 227.813 314.484 230.779C316.199 234.145 317.906 237.517 319.744 240.812C320.785 242.675 321.822 244.545 323.043 246.312C324.387 248.256 325.646 250.27 326.772 252.345C328.137 254.864 329.396 257.439 330.885 259.891C332.286 262.201 333.633 264.551 335.09 266.826C336.734 269.398 338.036 272.15 339.443 274.845C340.773 277.392 342.16 279.904 343.61 282.387C344.573 284.042 345.518 285.711 346.393 287.414C348.972 292.427 351.702 297.352 354.655 302.154C355.244 303.113 355.735 304.129 356.264 305.127C357.453 307.364 358.568 309.632 359.591 311.954C360.247 313.439 361.175 314.808 362.007 316.212C364.417 320.283 366.847 324.347 369.257 328.418C369.662 329.102 370.149 329.695 370.745 330.235C372.876 332.171 374.757 334.345 376.609 336.546C378.464 338.751 380.158 341.065 381.727 343.474C383.763 346.593 385.576 349.839 386.938 353.317C387.785 355.483 388.226 357.741 388.561 360.027C388.61 360.358 388.617 360.711 388.561 361.039C388.289 362.592 387.873 364.098 386.977 365.424C385.657 365.696 384.331 365.946 383.022 366.253C382.472 366.384 381.922 366.532 381.361 366.49C380.218 366.402 379.128 366.666 378.02 366.874C376.418 367.174 374.806 367.379 373.18 367.488C372.185 367.555 371.44 367.216 370.82 366.476C369.878 365.354 369.006 364.183 368.213 362.951C367.027 361.106 365.852 359.254 364.649 357.42C362.021 353.412 358.613 350.177 354.694 347.461C353.586 346.695 352.447 345.99 351.445 345.055C349.346 343.097 348.076 340.73 347.649 337.908C347.571 337.393 347.529 336.895 347 336.624C347.116 335.759 346.626 335.128 346.182 334.482C344.64 332.263 343.088 330.055 341.553 327.832C338.068 322.788 334.586 317.736 331.111 312.684C327.251 307.075 323.42 301.448 319.54 295.856C316.911 292.071 314.438 288.191 311.517 284.599C308.219 280.546 305.227 276.242 302.095 272.054C299.4 268.453 296.69 264.858 293.984 261.267C293.614 260.773 293.251 260.254 292.559 260.166L292.552 260.159Z" fill="#F7BB92"/>
<path d="M226.572 202.966C226.17 207.394 225.549 211.793 224.864 216.185C223.944 222.076 222.776 227.922 221.629 233.771C221.273 235.591 221.04 237.44 220.638 239.25C219.894 242.598 219.273 245.988 218.183 249.24C217.093 252.493 215.83 255.693 214.009 258.631C213.657 259.203 213.304 259.788 213.166 260.466C212.965 260.66 212.729 260.833 212.563 261.051C211.406 262.572 210.263 264.103 209.116 265.634C205.874 269.952 202.625 274.266 199.394 278.588C197.439 281.199 195.446 283.784 193.577 286.455C190.673 290.604 187.865 294.816 185 298.993C182.616 302.471 180.199 305.935 177.811 309.41C173.796 315.252 169.792 321.101 165.781 326.947C163.968 329.593 162.176 332.253 160.31 334.86C159.844 335.509 159.657 336.137 159.727 336.892C159.368 336.98 159.099 337.177 159.089 337.569C159.071 338.26 158.793 338.885 158.641 339.541C157.921 342.638 155.917 344.801 153.444 346.593C151.896 347.715 150.277 348.731 148.809 349.983C146.004 352.386 143.538 355.06 141.545 358.175C140.088 360.454 138.61 362.719 137.107 364.966C136.67 365.618 136.123 366.193 135.608 366.79C135.008 367.485 134.232 367.728 133.333 367.622C131.491 367.411 129.628 367.322 127.822 366.846C127.554 366.776 127.261 366.744 126.983 366.758C125.092 366.874 123.31 366.285 121.493 365.925C120.897 365.809 120.315 365.541 119.684 365.714C117.927 363.04 117.764 360.161 118.541 357.141C119.059 355.116 119.74 353.151 120.622 351.26C122.435 347.366 124.668 343.721 127.201 340.257C129.23 337.477 131.533 334.93 133.805 332.358C133.992 332.147 134.19 331.939 134.416 331.776C135.855 330.729 136.892 329.37 137.788 327.832C140.392 323.356 143.08 318.925 145.736 314.48C146.749 312.786 147.504 310.962 148.386 309.202C149.85 306.288 151.264 303.35 152.986 300.566C154.616 297.934 156.168 295.257 157.618 292.516C159.802 288.385 161.953 284.236 164.366 280.228C165.873 277.724 167.182 275.092 168.483 272.467C170.014 269.384 171.807 266.456 173.623 263.546C175.052 261.252 176.435 258.942 177.673 256.536C179.194 253.587 180.869 250.722 182.655 247.924C185.05 244.174 187.23 240.312 189.262 236.35C191.213 232.547 193.227 228.772 195.446 225.103C197.432 221.822 199.655 218.718 201.87 215.603C202.646 214.513 203.722 213.638 204.636 212.64C207.381 209.637 210.753 207.514 214.366 205.75C217.057 204.434 219.929 203.591 222.854 202.991C224.06 202.744 225.323 202.836 226.561 202.945L226.572 202.966Z" fill="#F7BB92"/>
<path d="M267.014 200.924C265.684 201.45 264.622 202.395 263.529 203.263C261.941 204.523 260.442 205.895 258.893 207.2C257.471 208.4 256.036 209.582 254.596 210.756C254.106 211.155 253.88 211.155 253.397 210.774C252.377 209.973 251.354 209.179 250.363 208.347C247.555 205.987 244.521 203.93 241.575 201.757C241.17 201.461 240.7 201.249 240.263 200.998C240.281 197.788 240.302 194.574 240.319 191.364C239.861 189.537 240.005 187.678 239.998 185.825C239.998 185.409 239.847 185.074 239.586 184.753C236.439 180.844 234.379 176.406 233.08 171.573C232.467 169.284 232.086 166.969 231.909 164.62C231.867 164.045 231.539 163.558 231.556 162.987C232.029 162.352 231.913 161.646 231.789 160.944C231.941 157.554 231.895 154.16 231.814 150.77C233.483 149.26 235.144 147.743 236.82 146.237C237.614 145.524 238.443 144.843 239.236 144.127C239.6 143.799 240.005 143.683 240.475 143.693C240.926 143.7 241.378 143.693 241.826 143.693C249.661 143.693 257.496 143.693 265.328 143.693C265.723 143.693 266.118 143.707 266.51 143.693C267.282 143.668 267.921 143.915 268.503 144.445C270.461 146.223 272.429 147.993 274.426 149.726C275.135 150.339 275.354 151.049 275.343 151.959C275.304 155.003 275.336 158.044 275.322 161.089C275.322 161.766 275.378 162.429 275.565 163.082C275.534 164.712 275.16 166.303 274.997 167.911C274.849 169.379 274.444 170.769 274.119 172.18C273.819 173.482 273.325 174.748 272.81 175.983C271.66 178.731 270.341 181.395 268.492 183.762C268.252 184.072 268.069 184.428 267.811 184.721C267.448 185.134 267.37 185.607 267.385 186.129C267.402 186.859 267.395 187.589 267.392 188.32C267.385 189.103 267.406 189.879 267.166 190.655C267.021 191.121 267.074 191.657 267.071 192.161C267.049 195.082 267.039 198.007 267.021 200.928L267.014 200.924ZM253.693 192.433C255.284 192.56 256.868 191.95 258.509 192.052C259.415 191.643 260.407 191.865 261.338 191.682C262.107 191.53 262.809 191.018 263.61 191.099C264.538 191.195 265.109 190.348 265.984 190.341C266.351 190.337 266.63 190.027 266.665 189.685C266.767 188.676 266.813 187.66 266.644 186.651C266.566 186.185 265.97 185.864 265.592 186.129C264.954 186.577 264.273 186.714 263.529 186.714C263.37 186.714 263.169 186.767 263.056 186.873C262.449 187.445 261.701 187.36 260.975 187.353C260.403 187.346 259.856 187.409 259.324 187.635C258.477 187.991 257.588 188.055 256.674 188.044C254.586 188.013 252.501 188.02 250.412 188.044C249.668 188.051 248.952 187.984 248.264 187.699C247.629 187.434 246.969 187.371 246.285 187.353C244.934 187.314 243.727 186.587 242.383 186.471C242.186 186.453 242.013 186.221 241.808 186.132C241.66 186.069 241.48 186.051 241.318 186.055C241.007 186.055 240.729 186.203 240.718 186.52C240.683 187.533 240.683 188.549 240.697 189.561C240.704 189.925 240.93 190.27 241.275 190.313C242.394 190.457 243.332 191.272 244.524 191.128C244.729 191.103 244.955 191.241 245.17 191.308C246.846 191.809 248.546 192.123 250.303 192.115C250.585 192.115 250.892 192.08 251.139 192.182C251.958 192.511 252.804 192.429 253.697 192.447L253.693 192.433Z" fill="#F7BB92"/>
<path d="M240.651 356.972C240.686 356.75 240.665 356.503 240.76 356.313C241.526 354.806 242.348 353.335 243.597 352.153C243.72 352.037 243.833 351.914 243.963 351.804C246.334 349.814 248.451 349.599 251.227 351.843C251.883 352.376 252.398 353.049 252.899 353.734C253.122 354.037 253.298 354.415 253.714 354.521C254.201 354.231 254.346 353.713 254.603 353.293C255.288 352.182 256.258 351.476 257.475 351.081C258.882 350.622 260.297 350.308 261.761 350.859C263.006 351.324 264.065 352.044 264.788 353.173C265.419 354.157 266.203 355.074 266.376 356.299C265.776 356.962 265.18 357.632 264.569 358.285C264.224 358.655 263.864 359.011 263.497 359.364C263.098 359.749 262.879 360.211 263.084 360.733C263.472 361.717 263.299 362.733 263.342 363.739C263.373 364.525 263.246 365.347 263.437 366.092C263.666 366.988 263.67 367.87 263.673 368.766C263.684 370.738 263.673 372.706 263.687 374.678C263.687 375.126 263.645 375.606 263.786 376.015C264.033 376.731 264.015 377.455 264.019 378.181C264.026 379.307 264.019 380.432 264.026 381.561C264.026 381.953 263.973 382.383 264.104 382.732C264.414 383.558 264.344 384.397 264.351 385.237C264.361 386.645 264.354 388.052 264.361 389.46C264.361 389.855 264.287 390.278 264.407 390.634C264.841 391.901 264.636 393.199 264.71 394.483C264.262 394.508 263.818 394.557 263.37 394.557C256.808 394.561 250.243 394.561 243.681 394.557C243.233 394.557 242.785 394.515 242.341 394.494C242.351 393.481 242.185 392.43 242.411 391.467C242.792 389.844 242.619 388.225 242.69 386.606C242.715 385.988 242.602 385.332 242.778 384.761C243.05 383.872 243.022 382.986 243.025 382.09C243.036 380.122 243.025 378.153 243.036 376.185C243.036 375.737 242.983 375.253 243.127 374.848C243.424 374.019 243.339 373.183 243.364 372.346C243.388 371.503 243.272 370.628 243.466 369.828C243.667 368.988 243.695 368.166 243.699 367.326C243.709 365.584 243.702 363.841 243.706 362.098C243.706 359.276 243.593 359.033 241.423 357.255C241.194 357.068 240.937 356.986 240.651 356.972Z" fill="#F7BB92"/>
<path d="M231.782 160.944C231.902 161.649 232.019 162.351 231.55 162.986C229.92 160.947 228.731 158.647 227.62 156.305C226.53 154.008 225.739 151.588 225.175 149.129C224.773 147.383 224.356 145.615 224.349 143.792C224.342 142.049 224.131 140.32 224.251 138.56C224.762 131.159 227.994 125.232 233.712 120.586C236.199 118.564 239.004 117.178 242.062 116.278C242.225 116.233 242.383 116.176 242.532 116.099C242.81 115.95 242.976 115.672 242.853 115.404C242.57 114.779 242.496 114.105 242.309 113.46C241.477 110.627 242.133 107.974 243.336 105.448C244.542 102.915 246.56 101.162 249.157 100.054C253.817 98.0715 258.851 99.4333 261.941 102.605C263.508 104.21 264.587 106.101 264.961 108.348C265.081 109.068 265.279 109.77 265.353 110.507C265.512 112.07 265.018 113.506 264.626 114.966C264.376 115.894 264.404 116.031 265.307 116.289C268.443 117.178 271.265 118.677 273.788 120.716C278.134 124.227 280.995 128.689 282.385 134.125C283.122 137.015 283.175 139.929 283.013 142.86C282.611 150.075 280.17 156.594 276.165 162.563C276.01 162.796 275.894 163.064 275.555 163.082C275.368 162.429 275.308 161.769 275.312 161.088C275.326 158.044 275.294 154.999 275.333 151.958C275.343 151.048 275.125 150.339 274.416 149.725C272.419 147.993 270.45 146.226 268.493 144.444C267.91 143.915 267.272 143.668 266.499 143.693C266.104 143.707 265.709 143.693 265.318 143.693C257.482 143.693 249.647 143.693 241.815 143.693C241.364 143.693 240.912 143.703 240.464 143.693C239.995 143.686 239.589 143.802 239.226 144.127C238.432 144.843 237.607 145.524 236.81 146.236C235.134 147.739 233.472 149.256 231.804 150.77C231.493 150.505 231.433 150.184 231.733 149.905C233.913 147.877 236.111 145.866 238.298 143.845C238.905 143.284 239.593 142.987 240.436 143.001C241.957 143.026 243.481 143.008 245.001 143.008C252.162 143.008 259.32 143.016 266.482 142.998C267.367 142.998 268.108 143.125 268.771 143.802C269.593 144.642 270.465 145.464 271.431 146.127C272.892 147.132 273.971 148.515 275.262 149.683C275.714 150.092 275.88 150.583 275.873 151.189C275.852 153.049 275.862 154.911 275.866 156.77C275.866 157.956 275.873 159.137 275.887 160.323C275.887 160.489 275.926 160.661 276.113 160.732C276.3 160.806 276.43 160.718 276.522 160.563C277.407 159.074 278.43 157.67 279.03 156.015C279.891 153.652 281.023 151.38 281.327 148.84C281.341 148.731 281.372 148.604 281.443 148.529C282.06 147.88 281.926 147.069 281.955 146.286C281.976 145.615 281.81 144.91 282.18 144.296C282.642 143.524 282.635 142.687 282.625 141.841C282.614 140.825 282.614 139.812 282.625 138.796C282.628 138.281 282.597 137.777 282.321 137.325C281.951 136.715 281.944 136.045 281.948 135.364C281.948 134.916 282.043 134.439 281.813 134.034C281.15 132.863 280.815 131.568 280.335 130.33C279.302 127.666 277.559 125.472 275.686 123.359C274.705 122.254 273.506 121.404 272.37 120.501C271.057 119.457 269.558 118.607 267.988 118.049C266.63 117.57 265.381 116.811 263.966 116.487C263.727 116.43 263.716 116.137 263.667 115.919C263.966 115.079 264.28 114.243 264.556 113.396C264.64 113.135 264.654 112.846 264.654 112.567C264.654 111.943 264.407 111.594 263.779 111.551C263.148 111.509 262.566 111.325 261.987 111.124C261.391 110.916 260.798 110.839 260.174 110.839C255.736 110.846 251.302 110.842 246.864 110.846C246.359 110.846 245.862 110.846 245.368 111.019C244.684 111.258 244.006 111.537 243.258 111.558C242.948 111.569 242.733 111.795 242.726 112.105C242.715 112.606 242.592 113.206 242.814 113.594C243.237 114.338 243.318 115.188 243.706 115.929C243.558 116.25 243.325 116.472 242.987 116.596C242.158 116.896 241.399 117.411 240.471 117.425C238.958 118.381 237.194 118.857 235.758 119.972C235.137 120.455 234.552 120.988 233.913 121.429C231.835 122.865 230.368 124.854 228.914 126.841C227.443 128.851 227.034 129.942 226.032 133.201C226 133.307 225.969 133.431 225.898 133.508C225.32 134.108 225.432 134.859 225.415 135.586C225.404 136.034 225.51 136.528 225.207 136.895C224.727 137.473 224.741 138.133 224.744 138.814C224.752 139.996 224.744 141.181 224.744 142.363C224.744 143.09 224.677 143.823 225.217 144.448C225.485 144.762 225.415 145.199 225.415 145.591C225.408 146.773 225.334 147.961 226.004 149.03C226.085 149.161 226.071 149.358 226.089 149.524C226.24 150.992 226.861 152.336 227.295 153.719C227.775 155.243 228.551 156.679 229.281 158.111C229.733 159 230.149 159.924 230.858 160.669C231.133 160.958 231.44 160.961 231.775 160.975L231.782 160.944Z" fill="#884E22"/>
<path d="M240.651 356.972C240.937 356.986 241.195 357.067 241.424 357.254C243.594 359.032 243.71 359.275 243.706 362.098C243.706 363.84 243.706 365.583 243.699 367.326C243.696 368.165 243.668 368.987 243.467 369.827C243.276 370.628 243.389 371.503 243.364 372.346C243.34 373.185 243.424 374.021 243.128 374.847C242.983 375.253 243.04 375.736 243.036 376.184C243.026 378.152 243.036 380.121 243.026 382.089C243.022 382.986 243.05 383.868 242.779 384.76C242.606 385.332 242.719 385.988 242.69 386.605C242.623 388.224 242.793 389.844 242.412 391.466C242.186 392.429 242.352 393.481 242.341 394.493C240.549 394.606 238.757 394.606 236.965 394.493C237.205 393.216 237.236 391.925 237.318 390.63C237.438 388.669 237.674 386.711 237.864 384.753C237.875 384.64 237.907 384.527 237.903 384.418C237.833 382.439 238.2 380.488 238.316 378.523C238.446 376.279 238.697 374.043 238.895 371.803C238.905 371.69 238.93 371.577 238.926 371.467C238.849 369.262 239.24 367.086 239.371 364.895C239.519 362.433 239.642 359.946 240.348 357.55C240.408 357.346 240.549 357.166 240.655 356.972H240.651Z" fill="#DCA782"/>
<path d="M264.714 394.483C264.64 393.198 264.841 391.897 264.411 390.634C264.291 390.278 264.365 389.851 264.365 389.459C264.361 388.051 264.365 386.644 264.354 385.236C264.347 384.397 264.418 383.557 264.107 382.732C263.973 382.382 264.033 381.952 264.03 381.56C264.019 380.435 264.03 379.31 264.023 378.181C264.019 377.45 264.037 376.731 263.79 376.015C263.649 375.605 263.695 375.126 263.691 374.678C263.68 372.706 263.691 370.737 263.677 368.765C263.673 367.869 263.67 366.987 263.441 366.091C263.25 365.347 263.377 364.525 263.345 363.738C263.307 362.733 263.476 361.717 263.088 360.732C262.883 360.21 263.102 359.744 263.501 359.363C263.864 359.011 264.227 358.658 264.573 358.284C265.183 357.628 265.776 356.961 266.379 356.298C266.866 356.834 266.894 357.55 266.99 358.185C267.208 359.628 267.275 361.092 267.399 362.549C267.603 365.011 267.801 367.474 268.002 369.94C268.013 370.053 268.034 370.166 268.03 370.275C267.953 372.646 268.383 374.985 268.464 377.348C268.538 379.479 268.817 381.599 269.004 383.726C269.014 383.839 269.043 383.952 269.039 384.062C268.969 386.206 269.438 388.323 269.413 390.461C269.399 391.826 269.773 393.139 269.773 394.49C268.087 394.599 266.4 394.606 264.714 394.483Z" fill="#DCA782"/>
<path d="M239.618 201.118C239.417 201.143 239.216 201.171 239.015 201.196C239.188 200.935 239.385 200.899 239.618 201.118Z" fill="#FFB78A"/>
<path d="M285.056 291.412C285.042 291.977 284.985 292.527 284.806 293.074C283.945 295.698 283.528 298.425 283.013 301.128C282.505 303.773 282.022 306.43 281.712 309.1C281.391 311.884 280.939 314.65 280.854 317.479C280.78 320.001 280.812 322.552 280.526 325.053C280.276 327.251 280.346 329.431 280.308 331.622C280.29 332.539 280.445 333.417 281.003 334.179C280.442 334.204 279.881 334.25 279.316 334.254C276.61 334.268 273.905 334.261 271.199 334.278C270.13 334.285 269.065 334.314 268.006 334.546C267.357 334.687 266.659 334.656 265.985 334.652C262.489 334.631 258.986 334.723 255.5 334.536C250.826 334.285 246.141 334.451 241.474 334.19C237.417 333.964 233.36 334.028 229.306 333.904C228.745 333.887 228.174 333.961 227.641 333.703C227.906 332.193 227.842 330.687 227.61 329.177C227.43 328.013 227.306 326.842 227.13 325.677C226.833 323.737 226.382 321.811 226.237 319.86C226.057 317.447 225.398 315.101 225.408 312.671C225.412 311.489 225.172 310.314 224.992 309.164C224.773 307.774 224.756 306.37 224.502 304.984C224.279 303.777 224.237 302.528 224.128 301.301C223.958 299.392 223.524 297.533 223.274 295.642C223.059 294.03 222.791 292.425 222.664 290.802C224.703 289.99 226.749 289.211 228.894 288.696C231.412 288.089 233.956 287.623 236.517 287.267C238.302 287.02 240.094 286.837 241.883 286.625C241.939 286.618 241.996 286.611 242.052 286.607C246.046 286.466 250.032 286.015 254.036 286.184C254.77 286.216 255.504 286.244 256.234 286.23C259.06 286.166 261.878 286.399 264.644 286.879C268.687 287.584 272.751 288.184 276.748 289.176C279.535 289.867 282.318 290.551 285.059 291.412H285.056Z" fill="#F7BB92"/>
<path d="M231.782 160.944C231.447 160.93 231.14 160.927 230.865 160.637C230.153 159.893 229.74 158.969 229.288 158.08C228.558 156.647 227.782 155.212 227.302 153.688C226.868 152.305 226.247 150.961 226.096 149.493C226.078 149.327 226.096 149.13 226.011 148.999C225.341 147.93 225.418 146.741 225.422 145.56C225.422 145.168 225.496 144.731 225.224 144.417C224.688 143.792 224.755 143.062 224.752 142.332C224.752 141.15 224.755 139.964 224.752 138.783C224.748 138.105 224.734 137.442 225.214 136.864C225.521 136.497 225.415 136.003 225.422 135.555C225.439 134.828 225.327 134.077 225.905 133.477C225.979 133.403 226.007 133.279 226.039 133.17C227.038 129.91 227.45 128.82 228.921 126.809C230.375 124.823 231.839 122.834 233.92 121.398C234.559 120.957 235.144 120.424 235.765 119.941C237.201 118.826 238.965 118.35 240.478 117.394C241.403 117.38 242.161 116.868 242.994 116.565C243.332 116.441 243.565 116.222 243.713 115.898C244.708 115.57 245.731 115.51 246.768 115.577C247.534 116.057 247.777 115.997 248.095 115.256H259.296C259.546 115.983 259.659 116.018 260.287 115.577C261.44 115.432 262.552 115.718 263.674 115.894C263.723 116.113 263.734 116.406 263.973 116.462C265.388 116.787 266.637 117.545 267.995 118.025C269.565 118.579 271.064 119.429 272.377 120.477C273.513 121.384 274.712 122.23 275.693 123.334C277.566 125.448 279.309 127.642 280.342 130.305C280.822 131.544 281.157 132.842 281.82 134.01C282.05 134.415 281.958 134.895 281.955 135.34C281.955 136.02 281.962 136.691 282.328 137.301C282.6 137.753 282.635 138.257 282.632 138.772C282.621 139.788 282.621 140.801 282.632 141.817C282.642 142.667 282.65 143.499 282.187 144.272C281.82 144.886 281.986 145.591 281.962 146.262C281.933 147.045 282.071 147.856 281.45 148.505C281.379 148.579 281.348 148.71 281.334 148.816C281.03 151.356 279.898 153.628 279.037 155.991C278.434 157.642 277.411 159.05 276.529 160.539C276.437 160.694 276.307 160.782 276.12 160.708C275.933 160.634 275.897 160.461 275.894 160.299C275.88 159.113 275.876 157.931 275.873 156.746C275.873 154.887 275.859 153.024 275.88 151.165C275.887 150.558 275.721 150.068 275.269 149.659C273.978 148.491 272.899 147.108 271.438 146.103C270.472 145.44 269.6 144.618 268.778 143.778C268.115 143.101 267.374 142.97 266.489 142.974C259.327 142.995 252.169 142.984 245.008 142.984C243.484 142.984 241.964 143.002 240.443 142.977C239.6 142.963 238.912 143.259 238.305 143.82C236.118 145.842 233.92 147.853 231.74 149.881C231.44 150.16 231.5 150.481 231.811 150.745C231.892 154.136 231.938 157.529 231.786 160.92L231.782 160.944Z" fill="#804414"/>
<path d="M253.694 192.433C252.801 192.415 251.955 192.5 251.136 192.168C250.889 192.069 250.579 192.101 250.3 192.101C248.543 192.112 246.843 191.798 245.167 191.293C244.952 191.23 244.726 191.089 244.522 191.113C243.329 191.258 242.391 190.443 241.272 190.299C240.927 190.253 240.701 189.91 240.694 189.547C240.676 188.535 240.68 187.519 240.715 186.506C240.726 186.185 241.004 186.044 241.315 186.04C241.481 186.04 241.657 186.055 241.805 186.118C242.01 186.206 242.183 186.439 242.38 186.457C243.724 186.573 244.931 187.3 246.282 187.339C246.966 187.356 247.626 187.42 248.261 187.684C248.949 187.974 249.669 188.037 250.409 188.03C252.498 188.009 254.586 188.002 256.671 188.03C257.585 188.044 258.474 187.977 259.321 187.621C259.853 187.395 260.4 187.335 260.972 187.339C261.698 187.346 262.446 187.43 263.053 186.859C263.162 186.753 263.363 186.7 263.526 186.7C264.274 186.7 264.951 186.563 265.59 186.115C265.967 185.85 266.563 186.175 266.641 186.637C266.807 187.642 266.764 188.662 266.662 189.671C266.627 190.016 266.348 190.323 265.981 190.327C265.106 190.334 264.531 191.18 263.607 191.085C262.806 191.004 262.101 191.516 261.335 191.667C260.404 191.851 259.412 191.628 258.506 192.038C256.865 191.932 255.281 192.542 253.69 192.419L253.694 192.433Z" fill="#DCA782"/>
<path d="M246.768 115.594C245.731 115.527 244.708 115.583 243.713 115.915C243.325 115.174 243.248 114.327 242.821 113.579C242.599 113.191 242.722 112.595 242.733 112.091C242.74 111.78 242.955 111.554 243.265 111.544C244.013 111.523 244.691 111.244 245.375 111.004C245.869 110.831 246.366 110.831 246.871 110.831C251.309 110.831 255.743 110.831 260.181 110.824C260.806 110.824 261.398 110.902 261.994 111.11C262.569 111.315 263.151 111.498 263.786 111.537C264.414 111.576 264.661 111.925 264.661 112.553C264.661 112.832 264.647 113.121 264.563 113.382C264.284 114.229 263.973 115.065 263.674 115.904C262.552 115.731 261.437 115.446 260.287 115.587C260.051 115.188 259.666 115.255 259.296 115.266C255.563 115.266 251.827 115.266 248.095 115.266C247.633 115.29 247.114 115.089 246.768 115.587V115.594Z" fill="#62350E"/>
<path d="M246.769 115.594C247.114 115.096 247.633 115.298 248.095 115.273C247.778 116.017 247.534 116.074 246.769 115.594Z" fill="#884E22"/>
<path d="M259.296 115.273C259.663 115.263 260.051 115.196 260.287 115.594C259.663 116.039 259.546 116 259.296 115.273Z" fill="#884E22"/>
<path d="M253.715 354.523V394.557" stroke="#E5A37B" stroke-width="1.37601" stroke-miterlimit="10"/>
</svg>
