<?xml version="1.0" encoding="UTF-8"?>
<svg xmlns="http://www.w3.org/2000/svg" version="1.1" viewBox="0 0 1417.3 1417.3">
  <defs>
    <style>
      .cls-1 {
        fill: #fff;
      }

      .cls-2 {
        fill: #8a89de;
      }

      .cls-3 {
        fill: #696d65;
      }

      .cls-4 {
        fill: #d9b6cb;
      }

      .cls-5 {
        fill: #62340e;
      }

      .cls-6 {
        fill: #ffb68a;
      }

      .cls-7 {
        fill: #894100;
      }

      .cls-8 {
        fill: #e7a47c;
      }

      .cls-9 {
        fill: #fdb58a;
      }
    </style>
  </defs>
  <!-- Generator: Adobe Illustrator 28.7.1, SVG Export Plug-In . SVG Version: 1.2.0 Build 142)  -->
  <g>
    <g id="_레이어_1" data-name="레이어_1">
      <g>
        <path class="cls-3" d="M790,981.9c-.2,3.6-2.2,6.3-4.5,8.8-6.8,7.5-14.2,14.3-22.4,20.2-20.4,14.9-43,24.4-68,28.2-20.9,3.2-41.5,1.8-61.5-5.4-21.9-8-39.4-21.6-51.1-42.1-6.9-12.1-10.8-25.2-11.6-39.2,0-.6,0-1.3,0-1.9-1.8-7.2-.4-14.3.7-21.4,2.1-14.1,4.3-28.1,6.4-42.2,2.1-13.9,4.2-27.8,6.3-41.7,1.8-11.7,3.5-23.4,5.2-35.1,1.7-11.5,3.5-23.1,5.3-34.6.3-2.2.5-4.4.7-6.7.2-.6.6-1.1.7-1.7.5-2.8.8-5.7,1.3-8.5,1.4-8.1,3-16.3,4.3-24.4.4-2.3,1-4.3,2.3-6.2,10.9-16.7,21.8-33.4,32.6-50.1,9.5-14.6,19-29.1,28.5-43.7,4.8-7.3,9.6-14.7,14.4-22,.8-1.2,1.4-2.6,3-2.9,4.7,1.5,8.7,4.1,11.7,8.1,2,2.7,4,5.2,5.4,8.3.9,2,1.8,4,2.6,6,.3,1.9.9,3.7,1.7,5.5,2.3,5.3,4,10.8,5.3,16.4,4.3,17.8,6.7,36,8.8,54.2-.4,2.8.7,5.3.9,8.1.3,5.6.9,11.1,1.3,16.7.2,4.4.5,8.9.7,13.3,0,1,0,1.9.1,2.9,1,10.6,1.2,21.3,1.7,31.9.2,4.5.2,8.9.4,13.4,0,1.1-.3,2.3,0,3.3.8,3.1.6,6.3.6,9.5,0,8.7.1,17.5.2,26.2-.5,10.2-.3,20.4-.7,30.6-.5,12.6-.9,25.2-1.3,37.8-.2,5.4-.5,10.8-1,16.2-.2,2.7.7,4.5,2.7,6.2,6.4,5.2,12.8,10.6,19.1,15.9,7.2,6,14.4,12.1,21.6,18.2,5.7,4.8,11.3,9.8,17.1,14.6,3.3,2.8,6.3,5.8,8.5,9.6Z"/>
        <path class="cls-6" d="M682.5,609.4c-1.6.3-2.2,1.8-3,2.9-4.8,7.3-9.6,14.7-14.4,22-9.5,14.6-19,29.1-28.5,43.7-10.9,16.7-21.7,33.4-32.6,50.1-1.2,1.9-1.9,3.9-2.3,6.2-1.3,8.2-2.9,16.3-4.3,24.4-.5,2.8-.8,5.7-1.3,8.5,0,.6-.4,1.2-.7,1.7-7.3-.8-14.6-1.4-21.3-4.7-2.9-1.5-5.2-3.6-7.1-6.3-3.7-5.3-6.8-10.8-8.6-17-.3-1.1-.7-2.2-.7-3.3,0-5-.3-9.9.2-14.9.5-4.9,1.2-9.8,2.5-14.6,1.6-6,3.7-11.9,6.3-17.6,3.7-8.1,7.9-16.1,13.1-23.4,3-4.2,5.3-8.7,7.9-13.1,5-8.5,10.1-17,15-25.6,7.1-12.6,16-23.9,24.1-35.7,4.6-6.6,9.2-13.1,13.8-19.6,2.6-3.7,5.1-7.4,7.7-11,1.3-1.8,2.8-3.5,4.8-4.6,1.5-.8,1.8-2.1,1.5-3.7-1-5.2-1.5-10.4-3-15.5-.4-1.2-.7-2.4-1.2-3.6-1.6-4.1-4.5-7-8.7-8.4-2.4-.8-4.9-1.6-7.3-2.2-2-.5-3.9-1.3-5.7-2.5-2.1-1.4-3.2-3.4-3-6.1.2-2.5,1.1-4.6,2.4-6.7,2.9-4.6,6.4-8.8,10-12.8,3.7-4,6.9-8.4,9.4-13.2,2.4-4.6,3.5-9.6,3.9-14.7.2-2.6-.3-5.4-.9-8-.9-4-.8-7.9-.5-11.9,3.4.9,6.7,2.3,9.6,4.1,8.4,5.2,16.9,10.3,24.9,16.2,1.7,1.2,3.4,2.4,5.1,3.6,2.3,1.6,4.6,2.8,7.4,3.2,3.5.6,6.9,1.4,10.3,2.1,2.9.6,5.7.6,8.6,0,4.7-.9,9.4-1.9,14.1-2.8,3.8-.7,7.5-1.6,11.4-1.4,3.8.1,7.2,1.3,10,3.9,4.1,3.8,7.9,7.9,10.8,12.7,1.5,2.4,3.2,4.8,4.8,7.2,3.3,5.1,6.6,10.2,10,15.2,2.4,3.7,4.4,7.8,7.7,10.9.9.8,1.1,1.9,1.3,3,1.1,7.5,3.4,14.6,6.3,21.6,3.6,8.6,7.5,16.9,13.9,23.9.2.5.3,1.2,1,1.4h0c-.3,1.2-.1,2.4.3,3.6.7,2.1,1.4,4.2,2.2,6.3,1.7,4.3,3.3,8.6,4.7,13,2.2,6.7,4.8,13.1,7.2,19.7.7,1.8,1.2,3.6,1.9,5.4-.3,0-.7,0-1,0-.9-.9-2.1-1.6-2.6-2.7-2.4-4.6-6.4-7.5-10.3-10.5-10.9-8.4-22.9-15-35.9-19.9-7.5-2.8-15.1-5.2-23.3-4.3-.6,0-1.3,0-1.9,0-8.8,0-17,2.2-24.4,7.2-1.3.9-2.5,2.1-4.1,2.4-2.4-4.2-5.7-7.7-8.8-11.3.4-1.7,1.9-2.6,3-3.7,10.9-11,21.9-22,32.9-32.9,2.7-2.7,3.7-5.8,3.5-9.5,0-.8,0-1.6-.6-2.3-2.1-2.4-4.2-4.9-6.9-6.6-5.2-3.4-10.8-6.2-16.5-8.7-4.3-1.9-8.8-2.8-13.4-1.1-7.2,2.7-14.2,5.5-20.7,9.7-7.7,5-15.5,10-23.6,14.6-3.6,2-6.8,4.7-10.2,7.1-1.2.9-1.4,2.6-.7,3.9,1,1.8,3.3,3.1,5.7,1.4,2.8-2,5.7-4.1,8.6-6,7.8-4.9,15.7-9.7,23.6-14.6,5.1-3.2,10.5-6,16.2-8.1,4.7-1.8,9.3-1.9,13.8.8,1.5.9,3.2,1.5,4.8,2.1,4.4,1.7,8.2,4.3,11.3,7.9,1.3,1.4,1.3,2.4.1,3.8-.7.8-1.6,1.6-2.3,2.4-5.8,5.8-11.5,11.5-17.3,17.3-1.3,1.4-2.6,2.8-3.8,4.3-1.7,2.2-3.4,4.7-6.4,5.5-.4.1-1,.4-1.2.8-1.8,3.1-4.7,5.2-7,7.8-.8.8-1.4,1.7-1.3,3,0,1.5,1,2.3,2.1,2.9-.5.4-.9.9-1.4,1.3-3.8,2.6-8.2,4.5-11.3,7.9-3,3.4-5.2,7.6-7.8,11.5-.4.5-.7,1.1-1,1.6-.6,1-1,2-.9,3.2Z"/>
        <path class="cls-7" d="M806.4,571.8c-6.4-6.9-10.3-15.3-13.9-23.9-2.9-6.9-5.2-14.1-6.3-21.6-.2-1.1-.4-2.2-1.3-3-3.3-3.1-5.3-7.2-7.7-10.9-3.3-5.1-6.6-10.2-10-15.2-1.6-2.4-3.3-4.7-4.8-7.2-3-4.8-6.7-8.9-10.8-12.7-2.8-2.6-6.2-3.8-10-3.9-3.9-.1-7.6.7-11.4,1.4-4.7.9-9.4,1.8-14.1,2.8-2.9.6-5.7.6-8.6,0-3.4-.7-6.9-1.5-10.3-2.1-2.8-.5-5.2-1.7-7.4-3.2-1.7-1.2-3.4-2.4-5.1-3.6-8-5.9-16.5-11-24.9-16.2-3-1.9-6.2-3.2-9.6-4.1-.8-7.9,1.2-15.3,4.2-22.4,6-14.4,15.8-25.8,28.4-34.9,16.5-11.8,35-15.9,55-14.1,10.9,1,21.4,3.9,31.4,8.4,3.7,1.6,7.4,3.1,11.5,3.1,0,1.5,0,2.8.8,4.2,1,2,2.3,3.8,3.9,5.4,4.8,4.9,10,9.4,14.1,15,4.4,6.1,8.4,12.4,10.3,19.8,1,3.7,1.7,7.4,2.5,11.1.4,1.9.8,3.7.9,5.6.2,2.2.1,4.4.8,6.6.6,2,.6,4.2-.1,6.2-.6,1.7-.6,3.4-.6,5.2,0,2.1-.2,4.1-.8,6.1-1.8,5.8-3.2,11.7-5.4,17.3-1.3,3.3-2.9,6.4-4.4,9.6-2.1,4.6-4.1,9.3-7.7,13.1-1.1,1.1-1.6,2.8-2.3,4.2-.2.4-.4.9-.3,1.4.6,3.3,2.1,6,5.4,7.4,2.9,1.2,5.7.9,8.1-1.1,4.1-3.6,7.8-7.5,10.3-12.5,2.2-4.4,4.6-8.7,6.6-13.3,2.1-5,4.2-9.9,5.2-15.3,1.1-5.9,2.2-11.9,4.1-17.6.5-1.5.4-2.8-.1-4.2-.7-1.9-1.6-3.9-1.3-6,.4-4.2-1.4-8.2-1.1-12.3,0-.4-.2-.9-.3-1.4-1.9-8.9-5.1-17.4-9.3-25.5-3.5-6.7-7.7-12.8-13.1-18.1-2.9-2.8-5.6-5.7-8.5-8.4-1.7-1.6-2.4-3.3-2.2-5.5,9-2.1,17.8-1.4,26.2,2.6,7,3.3,12.9,8.2,17.8,14.3,6.4,8.1,11.1,17.1,14.2,27,2.8,8.9,4.2,18,4.3,27.3,0,.5,0,1,0,1.4,1.7,7.1.9,14.3,1.2,21.5.8,20.1-1.4,39.9-7.9,59.1-2.4,7-5.4,13.7-9.1,20-1.2,2.1-2.3,4.2-3.5,6.2-3.6,5.7-8.4,10-15.1,11.7-4.7,1.2-9.2,1-13.3-2-.9-.6-1.7-1.6-3-1.3,0,0,0,.1,0,.1.1-.8-.4-1.1-1-1.4Z"/>
        <path class="cls-2" d="M720.1,593.4c1.7-.3,2.8-1.5,4.1-2.4,7.4-5,15.5-7.2,24.4-7.2.6,0,1.3,0,1.9,0,8.2-.9,15.8,1.5,23.3,4.3,12.9,4.9,24.9,11.5,35.9,19.9,3.9,3,7.9,5.9,10.3,10.5.6,1.1,1.7,1.8,2.6,2.7.4.3.7.6,1.1.9,8,8.6,11.6,19.3,14.2,30.4.5,2.3.7,4.7,1.3,7,1.4,5.3,1.7,10.7,2.5,16.1.8,5.4,1.3,10.8,2.2,16.1,1,6.3,1.4,12.7,1.7,19,.3,5.6.3,11.2.3,16.8,0,12.5,1,24.9.8,37.3-.1,5-.7,9.9-1.3,14.8-1.1,8.2-2.4,16.4-3.6,24.6-1.1,7.9-2.3,15.8-3.4,23.7-.7,5.1-1.2,10.1-2.6,15.1-3.5-.4-7-.9-10.4-1.2-5.4-.5-10.8-.7-16.2-1.2-8.1-.8-16.1-1.9-24.2-2.5-7-.5-14-1.3-21-1.9-7.1-.6-14.3-1.2-21.4-2-6.2-.6-12.4-.9-18.6-1.4,0-8.7,0-17.5-.2-26.2,0-3.2.2-6.3-.6-9.5-.2-1,0-2.2,0-3.3,2.2,0,3.9-1.3,5.7-2.3,3.8-2.1,7.5-4.2,11.2-6.5,5.6-3.4,11.4-6.5,16.5-10.6,4.2-3.4,8.1-7.2,11.1-11.8,3.7-5.5,3-15.6-1-20.3-2.3-2.8-5.2-4.7-8.5-6-6.3-2.4-12.9-3.8-19.6-3.9-6.1-.1-12.1,0-18.2,0-.5-5.6-1-11.1-1.3-16.7-.1-2.7-1.3-5.3-.9-8.1,1.5-.2,2.8-.8,4.1-1.4,1.9-.9,3.7-1.8,5.6-2.6,3.7-1.6,7.1-1.5,10.2,1.4,3.5,3.2,7.6,5.2,12,6.8,5.3,1.9,10.7,2.9,16.4,1.8,8.8-1.8,15.4-6.8,20.6-13.8,6.6-8.8,9.7-19,10.6-29.9.8-9.3-.5-18.5-3.7-27.3-4.5-12.3-12.4-21.3-24-27.4-5.5-2.9-11.3-4.4-17.2-5.7-8.4-1.8-16.4-.7-24.4,2.4-7.9,3-14.6,7.8-21.2,12.9-1,.8-1.8,1.8-2.8,2.6-1.3,1.1-1.8,2.6-2.1,4.2-.9-2-1.7-4-2.6-6-1.4-3-3.4-5.6-5.4-8.3,1.6,0,2.4-1.3,3.4-2.3,2.9-2.9,5.2-6.4,8.4-9,3.5-2.9,7-5.9,10.5-8.9,1.3-1.1,2.4-2.5,3.6-3.7Z"/>
        <path class="cls-6" d="M723.9,833c6.2.4,12.4.7,18.6,1.4,7.1.7,14.3,1.3,21.4,2,7,.6,14,1.4,21,1.9,8.1.6,16.2,1.7,24.2,2.5,5.4.5,10.8.8,16.2,1.2,3.5.3,7,.8,10.4,1.2-.3,3.3-.5,6.7-1.4,9.9-2,7.6-3.4,15.2-4.7,22.9-1,6.3-2.8,12.5-4.4,18.6-1.8,6.9-3.9,13.8-6.2,20.6-3.8,11.4-8.1,22.6-13.2,33.4-.4.9-.9,1.7-1.1,2.6-2.5,10.5-7.5,20-13,29.2-.4.6-1.2,1.1-1.7,1.6-2.2-3.8-5.2-6.8-8.5-9.6-5.7-4.8-11.4-9.8-17.1-14.6-7.2-6.1-14.4-12.1-21.6-18.2-6.4-5.3-12.7-10.7-19.1-15.9-2-1.7-2.9-3.5-2.7-6.2.4-5.4.8-10.8,1-16.2.5-12.6.9-25.2,1.3-37.8.4-10.2.2-20.4.7-30.6Z"/>
        <path class="cls-5" d="M795.8,385.1c-.2,2.2.5,4,2.2,5.5,2.9,2.7,5.7,5.6,8.5,8.4,5.4,5.3,9.6,11.5,13.1,18.1,4.3,8.1,7.4,16.6,9.3,25.5,0,.5.4.9.3,1.4-.3,4.2,1.5,8.2,1.1,12.3-.2,2.2.7,4.1,1.3,6,.5,1.4.6,2.7.1,4.2-2,5.7-3,11.7-4.1,17.6-1,5.4-3.1,10.4-5.2,15.3-2,4.5-4.3,8.9-6.6,13.3-2.5,4.9-6.2,8.9-10.3,12.5-2.3,2-5.2,2.3-8.1,1.1-3.3-1.4-4.8-4.1-5.4-7.4,0-.4,0-1,.3-1.4.7-1.4,1.2-3.1,2.3-4.2,3.6-3.8,5.6-8.5,7.7-13.1,1.5-3.2,3.1-6.3,4.4-9.6,2.3-5.6,3.6-11.5,5.4-17.3.6-2,.9-4,.8-6.1,0-1.8,0-3.5.6-5.2.7-2,.7-4.2.1-6.2-.7-2.2-.6-4.4-.8-6.6-.2-1.9-.5-3.8-.9-5.6-.8-3.7-1.6-7.5-2.5-11.1-1.9-7.4-5.9-13.7-10.3-19.8-4.1-5.6-9.3-10-14.1-15-1.6-1.6-2.9-3.4-3.9-5.4-.7-1.4-.8-2.7-.8-4.2,4.7-3,9.7-4.5,15.3-3.2Z"/>
        <path class="cls-4" d="M823.7,622.1c-.4-.3-.7-.6-1.1-.9.3,0,.7,0,1,0,0,.3,0,.6,0,1Z"/>
        <path class="cls-6" d="M702.3,631.7c.2-1.6.8-3.1,2.1-4.2,1-.8,1.8-1.9,2.8-2.6,6.6-5.1,13.3-9.9,21.2-12.9,8-3,16-4.2,24.4-2.4,5.9,1.3,11.7,2.9,17.2,5.7,11.6,6.1,19.6,15.1,24,27.4,3.2,8.8,4.5,18,3.7,27.3-.9,10.8-4,21-10.6,29.9-5.2,7-11.8,12-20.6,13.8-5.7,1.1-11.1.1-16.4-1.8-4.4-1.6-8.5-3.6-12-6.8-3.1-2.9-6.5-3-10.2-1.4-1.9.8-3.8,1.7-5.6,2.6-1.3.6-2.6,1.2-4.1,1.4-2.1-18.2-4.5-36.4-8.8-54.2-1.4-5.6-3-11.1-5.3-16.4-.8-1.8-1.3-3.6-1.7-5.5Z"/>
        <path class="cls-9" d="M720.3,732.5c6.1,0,12.1-.1,18.2,0,6.7.2,13.3,1.5,19.6,3.9,3.3,1.3,6.2,3.2,8.5,6,4,4.8,4.7,14.8,1,20.3-3,4.6-6.9,8.4-11.1,11.8-5.1,4.1-10.9,7.2-16.5,10.6-3.7,2.3-7.4,4.4-11.2,6.5-1.8,1-3.5,2.2-5.7,2.3-.1-4.5-.2-8.9-.4-13.4-.5-10.6-.7-21.3-1.7-31.9,0-1,0-1.9-.1-2.9-.2-4.4-.5-8.9-.7-13.3Z"/>
        <path class="cls-8" d="M711.3,582.1c-2.1.8-4,2.1-6.4,1.8-1.1-.7-2.1-1.5-2.1-2.9,0-1.2.5-2.1,1.3-3,2.4-2.6,5.2-4.7,7-7.8.2-.4.7-.7,1.2-.8,3-.8,4.7-3.3,6.4-5.5,1.2-1.5,2.4-3,3.8-4.3,5.7-5.8,11.5-11.5,17.3-17.3.8-.8,1.6-1.6,2.3-2.4,1.2-1.4,1.1-2.4-.1-3.8-3.1-3.6-6.9-6.2-11.3-7.9-1.6-.6-3.3-1.2-4.8-2.1-4.5-2.7-9.1-2.6-13.8-.8-5.7,2.1-11.1,4.9-16.2,8.1-7.8,4.9-15.7,9.7-23.6,14.6-3,1.9-5.8,3.9-8.6,6-2.4,1.7-4.6.4-5.7-1.4-.7-1.3-.5-3,.7-3.9,3.4-2.4,6.6-5.1,10.2-7.1,8-4.6,15.8-9.5,23.6-14.6,6.5-4.2,13.5-7.1,20.7-9.7,4.7-1.7,9.2-.8,13.4,1.1,5.7,2.5,11.3,5.3,16.5,8.7,2.7,1.7,4.8,4.2,6.9,6.6.6.6.6,1.4.6,2.3.1,3.7-.8,6.8-3.5,9.5-11,10.9-22,21.9-32.9,32.9-1.1,1.1-2.5,2-3,3.7Z"/>
        <path class="cls-1" d="M806.4,571.8c.6.3,1.2.6,1,1.4-.7-.2-.8-.8-1-1.4Z"/>
      </g>
    </g>
  </g>
</svg>