<svg width="500" height="500" viewBox="0 0 500 500" fill="none" xmlns="http://www.w3.org/2000/svg">
<path d="M207.698 392.628C207.802 394.507 208.846 395.916 210.047 397.221C213.596 401.136 217.459 404.686 221.739 407.765C232.387 415.543 244.184 420.501 257.234 422.485C268.143 424.155 278.896 423.425 289.335 419.666C300.767 415.49 309.901 408.392 316.008 397.691C319.61 391.375 321.646 384.537 322.063 377.229C322.063 376.916 322.063 376.551 322.063 376.238C323.003 372.479 322.272 368.773 321.698 365.067C320.602 357.707 319.453 350.4 318.357 343.04C317.261 335.784 316.165 328.529 315.069 321.273C314.129 315.166 313.242 309.059 312.355 302.952C311.467 296.949 310.528 290.894 309.588 284.891C309.431 283.743 309.327 282.595 309.223 281.394C309.118 281.081 308.91 280.82 308.857 280.507C308.596 279.045 308.44 277.532 308.179 276.07C307.448 271.842 306.613 267.562 305.934 263.334C305.725 262.133 305.412 261.089 304.734 260.098C299.044 251.38 293.355 242.663 287.717 233.946C282.758 226.326 277.8 218.757 272.841 211.136C270.335 207.326 267.83 203.463 265.324 199.652C264.907 199.026 264.594 198.295 263.758 198.139C261.305 198.922 259.217 200.279 257.651 202.367C256.607 203.776 255.563 205.081 254.833 206.699C254.363 207.743 253.893 208.787 253.475 209.831C253.319 210.823 253.006 211.762 252.588 212.702C251.387 215.468 250.5 218.339 249.822 221.262C247.577 230.554 246.324 240.054 245.228 249.554C245.437 251.015 244.863 252.32 244.758 253.782C244.602 256.705 244.289 259.576 244.08 262.499C243.975 264.795 243.819 267.144 243.714 269.441C243.714 269.963 243.714 270.433 243.662 270.955C243.14 276.488 243.036 282.073 242.775 287.606C242.67 289.955 242.67 292.251 242.566 294.6C242.566 295.174 242.723 295.801 242.566 296.323C242.148 297.941 242.253 299.611 242.253 301.282C242.253 305.823 242.201 310.416 242.148 314.957C242.409 320.282 242.305 325.606 242.514 330.93C242.775 337.507 242.984 344.084 243.192 350.661C243.297 353.479 243.453 356.298 243.714 359.117C243.819 360.526 243.349 361.466 242.305 362.353C238.964 365.067 235.624 367.886 232.335 370.653C228.577 373.784 224.819 376.968 221.061 380.153C218.085 382.658 215.162 385.268 212.135 387.773C210.412 389.235 208.846 390.801 207.698 392.784V392.628Z" fill="#696D65"/>
<path d="M263.811 198.192C264.646 198.348 264.959 199.131 265.376 199.705C267.882 203.516 270.387 207.379 272.893 211.189C277.852 218.81 282.811 226.379 287.769 233.999C293.459 242.716 299.096 251.434 304.786 260.151C305.412 261.142 305.778 262.186 305.986 263.387C306.665 267.667 307.5 271.895 308.231 276.123C308.492 277.585 308.648 279.098 308.909 280.56C308.909 280.873 309.118 281.186 309.275 281.447C313.085 281.03 316.896 280.717 320.393 278.994C321.907 278.211 323.107 277.115 324.099 275.706C326.03 272.939 327.648 270.068 328.588 266.832C328.745 266.258 328.953 265.684 328.953 265.109C328.953 262.499 329.11 259.942 328.849 257.332C328.588 254.774 328.223 252.216 327.544 249.711C326.709 246.579 325.613 243.499 324.256 240.524C322.324 236.296 320.132 232.12 317.418 228.31C315.852 226.118 314.651 223.769 313.294 221.472C310.684 217.035 308.022 212.598 305.464 208.109C301.758 201.532 297.113 195.634 292.885 189.475C290.484 186.03 288.083 182.637 285.681 179.244C284.324 177.313 283.019 175.381 281.662 173.502C280.984 172.563 280.201 171.675 279.157 171.101C278.374 170.683 278.217 170.005 278.374 169.17C278.896 166.455 279.157 163.741 279.94 161.079C280.148 160.453 280.305 159.826 280.566 159.2C281.401 157.06 282.915 155.546 285.107 154.815C286.36 154.398 287.665 153.98 288.918 153.667C289.962 153.406 290.953 152.988 291.893 152.362C292.989 151.631 293.563 150.587 293.459 149.178C293.354 147.873 292.885 146.777 292.206 145.681C290.692 143.28 288.865 141.087 286.986 138.999C285.055 136.911 283.385 134.615 282.08 132.109C280.827 129.708 280.253 127.098 280.044 124.436C279.94 123.079 280.201 121.618 280.514 120.26C280.984 118.172 280.931 116.137 280.775 114.049C279 114.519 277.278 115.249 275.764 116.189C271.379 118.903 266.942 121.565 262.767 124.645C261.879 125.271 260.992 125.898 260.104 126.524C258.904 127.359 257.703 127.986 256.242 128.194C254.415 128.508 252.64 128.925 250.865 129.291C249.352 129.604 247.89 129.604 246.376 129.291C243.923 128.821 241.47 128.299 239.017 127.829C237.033 127.464 235.102 126.994 233.066 127.098C231.082 127.15 229.308 127.777 227.846 129.134C225.706 131.118 223.723 133.258 222.209 135.763C221.426 137.016 220.539 138.269 219.703 139.521C217.981 142.183 216.258 144.846 214.484 147.455C213.231 149.387 212.187 151.527 210.464 153.145C209.995 153.563 209.89 154.137 209.786 154.711C209.212 158.626 208.011 162.332 206.497 165.986C204.618 170.475 202.582 174.807 199.242 178.461C199.137 178.722 199.085 179.087 198.72 179.192C198.876 179.818 198.772 180.444 198.563 181.071C198.198 182.167 197.832 183.263 197.415 184.359C196.527 186.604 195.692 188.848 194.962 191.145C193.813 194.642 192.456 197.983 191.203 201.428C190.838 202.368 190.577 203.307 190.212 204.247C190.368 204.247 190.577 204.247 190.734 204.247C191.203 203.777 191.83 203.412 192.091 202.837C193.343 200.436 195.431 198.922 197.467 197.357C203.157 192.972 209.42 189.527 216.206 186.969C220.121 185.508 224.088 184.255 228.368 184.725C228.681 184.725 229.047 184.725 229.36 184.725C233.953 184.725 238.234 185.873 242.096 188.483C242.775 188.953 243.401 189.579 244.236 189.736C245.489 187.543 247.212 185.716 248.83 183.837C248.621 182.95 247.838 182.48 247.264 181.906C241.574 176.164 235.832 170.422 230.091 164.733C228.681 163.324 228.159 161.705 228.264 159.774C228.264 159.357 228.264 158.939 228.577 158.574C229.673 157.321 230.769 156.016 232.179 155.129C234.893 153.354 237.816 151.892 240.791 150.587C243.036 149.596 245.385 149.126 247.786 150.013C251.544 151.422 255.198 152.884 258.591 155.076C262.61 157.686 266.681 160.296 270.909 162.697C272.789 163.741 274.459 165.151 276.234 166.403C276.86 166.873 276.964 167.76 276.599 168.439C276.077 169.379 274.876 170.057 273.624 169.17C272.162 168.126 270.648 167.03 269.135 166.038C265.063 163.48 260.94 160.975 256.816 158.417C254.154 156.747 251.335 155.285 248.36 154.189C245.907 153.249 243.506 153.197 241.157 154.607C240.374 155.076 239.486 155.39 238.651 155.703C236.354 156.59 234.371 157.947 232.753 159.826C232.074 160.557 232.074 161.079 232.701 161.81C233.066 162.227 233.536 162.645 233.901 163.063C236.929 166.09 239.904 169.065 242.931 172.093C243.61 172.824 244.289 173.554 244.915 174.337C245.802 175.486 246.69 176.791 248.256 177.208C248.464 177.26 248.778 177.417 248.882 177.626C249.822 179.244 251.335 180.34 252.536 181.697C252.953 182.115 253.267 182.585 253.214 183.263C253.214 184.046 252.692 184.464 252.118 184.777C252.379 184.986 252.588 185.247 252.849 185.455C254.832 186.813 257.129 187.804 258.747 189.579C260.313 191.354 261.462 193.546 262.819 195.582C263.028 195.843 263.184 196.156 263.341 196.417C263.654 196.939 263.863 197.461 263.811 198.087V198.192Z" fill="#FFB68A"/>
<path d="M199.137 178.565C202.478 174.963 204.514 170.579 206.393 166.09C207.906 162.488 209.107 158.73 209.681 154.815C209.786 154.241 209.89 153.667 210.36 153.249C212.082 151.631 213.126 149.491 214.379 147.56C216.102 144.897 217.824 142.235 219.599 139.625C220.434 138.373 221.321 137.172 222.104 135.867C223.67 133.362 225.602 131.222 227.742 129.238C229.203 127.881 230.978 127.255 232.961 127.202C234.997 127.15 236.928 127.568 238.912 127.933C241.365 128.403 243.819 128.873 246.272 129.395C247.786 129.708 249.247 129.708 250.761 129.395C252.536 129.029 254.363 128.612 256.137 128.299C257.599 128.038 258.852 127.411 260 126.628C260.887 126.002 261.775 125.375 262.662 124.749C266.838 121.669 271.275 119.007 275.659 116.293C277.225 115.301 278.896 114.623 280.67 114.153C281.088 110.029 280.044 106.167 278.478 102.461C275.346 94.9441 270.231 88.9935 263.654 84.2435C255.041 78.0842 245.385 75.9441 234.945 76.8836C229.255 77.4056 223.775 78.9193 218.555 81.2683C216.624 82.1034 214.692 82.8864 212.552 82.8864C212.552 83.6694 212.552 84.3479 212.135 85.0787C211.613 86.1227 210.934 87.0622 210.099 87.8974C207.593 90.4551 204.879 92.804 202.739 95.7271C200.442 98.9111 198.354 102.2 197.363 106.062C196.841 107.994 196.475 109.925 196.058 111.856C195.849 112.848 195.64 113.788 195.588 114.779C195.483 115.928 195.536 117.076 195.17 118.224C194.857 119.268 194.857 120.417 195.222 121.461C195.536 122.348 195.536 123.235 195.536 124.175C195.536 125.271 195.64 126.315 195.953 127.359C196.893 130.386 197.624 133.466 198.772 136.389C199.45 138.112 200.286 139.73 201.069 141.4C202.165 143.801 203.209 146.255 205.088 148.238C205.662 148.812 205.923 149.7 206.288 150.43C206.393 150.639 206.497 150.9 206.445 151.161C206.132 152.884 205.349 154.293 203.626 155.024C202.113 155.65 200.651 155.494 199.398 154.45C197.258 152.57 195.327 150.535 194.022 147.925C192.874 145.628 191.621 143.384 190.577 140.983C189.481 138.373 188.385 135.815 187.863 132.996C187.288 129.917 186.714 126.785 185.722 123.809C185.461 123.027 185.514 122.348 185.775 121.617C186.14 120.625 186.61 119.581 186.453 118.485C186.244 116.293 187.184 114.205 187.027 112.065C187.027 111.856 187.132 111.595 187.184 111.334C188.176 106.689 189.846 102.252 192.038 98.0238C193.865 94.5265 196.058 91.3424 198.876 88.5759C200.39 87.1144 201.799 85.6007 203.313 84.1913C204.2 83.3562 204.566 82.4688 204.461 81.3205C199.764 80.2243 195.17 80.5897 190.786 82.6776C187.132 84.4001 184.052 86.9578 181.494 90.1419C178.154 94.3699 175.7 99.0677 174.082 104.235C172.621 108.881 171.89 113.631 171.838 118.485C171.838 118.746 171.838 119.007 171.838 119.216C170.95 122.922 171.368 126.68 171.211 130.439C170.794 140.93 171.942 151.266 175.335 161.288C176.588 164.941 178.154 168.439 180.085 171.727C180.711 172.823 181.286 173.919 181.912 174.963C183.791 177.939 186.297 180.183 189.794 181.071C192.247 181.697 194.596 181.592 196.736 180.027C197.206 179.713 197.624 179.191 198.302 179.348V179.4C198.25 178.983 198.511 178.826 198.824 178.669L199.137 178.565Z" fill="#894100"/>
<path d="M244.184 189.84C243.297 189.683 242.723 189.057 242.044 188.587C238.181 185.977 233.953 184.829 229.308 184.829C228.995 184.829 228.629 184.829 228.316 184.829C224.036 184.359 220.069 185.612 216.154 187.073C209.42 189.631 203.157 193.076 197.415 197.461C195.379 199.027 193.291 200.54 192.038 202.941C191.725 203.516 191.151 203.881 190.681 204.351C190.473 204.507 190.316 204.664 190.107 204.821C185.931 209.31 184.052 214.895 182.695 220.689C182.434 221.889 182.33 223.142 182.016 224.343C181.286 227.109 181.129 229.928 180.711 232.746C180.294 235.565 180.033 238.384 179.563 241.15C179.041 244.439 178.832 247.779 178.676 251.068C178.519 253.991 178.519 256.914 178.519 259.837C178.519 266.362 177.997 272.834 178.102 279.307C178.154 281.917 178.467 284.475 178.78 287.032C179.354 291.312 180.033 295.593 180.659 299.873C181.233 303.997 181.86 308.12 182.434 312.244C182.799 314.906 183.06 317.516 183.791 320.126C185.618 319.917 187.445 319.656 189.22 319.499C192.038 319.238 194.857 319.134 197.676 318.873C201.904 318.455 206.08 317.881 210.308 317.568C213.962 317.307 217.615 316.889 221.269 316.576C224.975 316.263 228.734 315.95 232.44 315.532C235.676 315.219 238.912 315.062 242.148 314.801C242.148 310.26 242.148 305.667 242.253 301.126C242.253 299.455 242.148 297.837 242.566 296.167C242.67 295.645 242.566 295.018 242.566 294.444C241.418 294.444 240.53 293.766 239.591 293.244C237.607 292.148 235.676 291.051 233.745 289.851C230.821 288.076 227.794 286.458 225.132 284.318C222.94 282.543 220.904 280.56 219.338 278.159C217.407 275.288 217.772 270.016 219.86 267.562C221.06 266.101 222.574 265.109 224.297 264.431C227.585 263.178 231.03 262.447 234.527 262.395C237.712 262.343 240.843 262.395 244.027 262.395C244.288 259.472 244.549 256.601 244.706 253.678C244.758 252.268 245.385 250.911 245.176 249.45C244.393 249.345 243.714 249.032 243.036 248.719C242.044 248.249 241.104 247.779 240.113 247.362C238.181 246.527 236.407 246.579 234.788 248.093C232.962 249.763 230.821 250.807 228.525 251.642C225.758 252.634 222.94 253.156 219.964 252.582C215.371 251.642 211.926 249.032 209.212 245.378C205.766 240.785 204.148 235.461 203.679 229.771C203.261 224.917 203.94 220.115 205.61 215.521C207.959 209.101 212.082 204.403 218.137 201.219C221.008 199.705 224.036 198.922 227.115 198.244C231.5 197.304 235.676 197.878 239.852 199.496C243.975 201.062 247.473 203.568 250.918 206.23C251.44 206.648 251.857 207.17 252.379 207.587C253.058 208.161 253.319 208.944 253.475 209.779C253.945 208.735 254.363 207.691 254.832 206.648C255.563 205.082 256.607 203.724 257.651 202.315C256.816 202.315 256.398 201.637 255.876 201.115C254.363 199.601 253.162 197.774 251.492 196.417C249.665 194.903 247.838 193.337 246.011 191.771C245.332 191.197 244.758 190.466 244.132 189.84H244.184Z" fill="#8A89DE"/>
<path d="M242.201 314.906C238.965 315.114 235.728 315.271 232.492 315.636C228.786 316.002 225.028 316.315 221.322 316.68C217.668 316.994 214.014 317.411 210.36 317.672C206.132 317.985 201.904 318.56 197.728 318.977C194.91 319.238 192.091 319.395 189.272 319.604C187.445 319.76 185.618 320.021 183.844 320.23C184 321.952 184.105 323.727 184.574 325.397C185.618 329.364 186.349 333.332 187.028 337.351C187.55 340.639 188.489 343.875 189.324 347.06C190.264 350.661 191.36 354.263 192.561 357.812C194.544 363.763 196.789 369.609 199.451 375.246C199.66 375.716 199.921 376.134 200.025 376.604C201.33 382.084 203.94 387.043 206.811 391.845C207.019 392.159 207.437 392.419 207.698 392.68C208.846 390.697 210.412 389.131 212.135 387.669C215.11 385.164 218.085 382.554 221.061 380.049C224.819 376.865 228.577 373.733 232.335 370.549C235.676 367.782 238.965 364.963 242.305 362.249C243.349 361.362 243.819 360.422 243.715 359.013C243.506 356.194 243.297 353.375 243.193 350.557C242.932 343.98 242.723 337.403 242.514 330.826C242.305 325.502 242.41 320.178 242.149 314.854L242.201 314.906Z" fill="#FFB68A"/>
<path d="M204.67 81.1117C204.775 82.26 204.409 83.1996 203.522 83.9825C202.008 85.3919 200.547 86.9056 199.085 88.3672C196.266 91.1337 194.074 94.3699 192.247 97.815C190.003 102.043 188.385 106.48 187.393 111.125C187.393 111.386 187.184 111.595 187.236 111.856C187.393 114.049 186.453 116.136 186.662 118.277C186.766 119.425 186.297 120.417 185.984 121.408C185.723 122.139 185.67 122.818 185.931 123.601C186.975 126.576 187.497 129.708 188.071 132.788C188.593 135.606 189.69 138.216 190.786 140.774C191.83 143.123 193.03 145.419 194.231 147.716C195.536 150.274 197.467 152.362 199.607 154.241C200.808 155.285 202.321 155.441 203.835 154.815C205.558 154.084 206.341 152.675 206.654 150.952C206.654 150.744 206.654 150.43 206.497 150.222C206.132 149.491 205.871 148.603 205.297 148.029C203.418 146.046 202.374 143.592 201.277 141.191C200.494 139.521 199.659 137.903 198.981 136.18C197.78 133.257 197.102 130.178 196.162 127.15C195.849 126.106 195.692 125.062 195.744 123.966C195.744 123.027 195.744 122.139 195.431 121.252C195.066 120.208 195.066 119.059 195.379 118.016C195.744 116.867 195.692 115.719 195.797 114.57C195.901 113.579 196.058 112.587 196.266 111.647C196.684 109.716 197.102 107.733 197.571 105.853C198.563 101.991 200.651 98.7023 202.948 95.5183C205.088 92.5952 207.802 90.2985 210.308 87.6886C211.143 86.8534 211.821 85.9139 212.343 84.8699C212.709 84.1391 212.761 83.4606 212.761 82.6776C210.308 81.1117 207.698 80.3287 204.775 81.0073L204.67 81.1117Z" fill="#62340E"/>
<path d="M190.107 204.821C190.316 204.665 190.472 204.508 190.681 204.352C190.525 204.352 190.316 204.352 190.159 204.352C190.159 204.508 190.159 204.665 190.159 204.874L190.107 204.821Z" fill="#D9B6CB"/>
<path d="M253.475 209.833C253.371 208.997 253.058 208.215 252.379 207.64C251.857 207.223 251.44 206.649 250.918 206.283C247.473 203.621 243.975 201.116 239.852 199.55C235.676 197.984 231.5 197.357 227.115 198.297C224.036 198.975 221.008 199.811 218.137 201.272C212.082 204.456 207.907 209.154 205.61 215.574C203.94 220.168 203.261 224.97 203.679 229.824C204.148 235.462 205.767 240.786 209.212 245.432C211.926 249.085 215.371 251.695 219.964 252.635C222.94 253.209 225.758 252.687 228.525 251.695C230.821 250.86 232.962 249.816 234.789 248.146C236.407 246.632 238.181 246.58 240.113 247.415C241.104 247.833 242.096 248.302 243.036 248.772C243.714 249.085 244.393 249.399 245.176 249.503C246.272 240.003 247.525 230.503 249.769 221.212C250.5 218.289 251.335 215.418 252.536 212.651C252.953 211.712 253.214 210.772 253.423 209.78L253.475 209.833Z" fill="#FFB68A"/>
<path d="M244.08 262.445C240.896 262.445 237.764 262.393 234.58 262.445C231.082 262.549 227.637 263.228 224.349 264.48C222.626 265.159 221.113 266.151 219.912 267.612C217.824 270.118 217.459 275.338 219.39 278.209C220.956 280.61 222.992 282.593 225.184 284.368C227.846 286.508 230.874 288.126 233.797 289.901C235.728 291.101 237.659 292.198 239.643 293.294C240.582 293.816 241.47 294.442 242.618 294.494C242.67 292.145 242.722 289.849 242.827 287.5C243.088 281.967 243.192 276.382 243.714 270.849C243.714 270.327 243.714 269.857 243.766 269.335C243.871 267.038 244.027 264.689 244.132 262.393L244.08 262.445Z" fill="#FDB58A"/>
<path d="M248.777 183.941C249.874 184.358 250.865 185.037 252.118 184.88C252.692 184.515 253.214 184.097 253.214 183.366C253.214 182.74 252.953 182.27 252.536 181.8C251.283 180.443 249.821 179.347 248.882 177.729C248.777 177.52 248.516 177.364 248.255 177.311C246.69 176.894 245.802 175.589 244.915 174.441C244.288 173.658 243.662 172.875 242.931 172.196C239.956 169.169 236.929 166.193 233.901 163.166C233.484 162.748 233.066 162.331 232.701 161.913C232.074 161.182 232.126 160.66 232.753 159.93C234.371 158.05 236.354 156.693 238.651 155.806C239.486 155.493 240.374 155.18 241.157 154.71C243.505 153.3 245.907 153.353 248.36 154.292C251.335 155.388 254.154 156.85 256.816 158.52C260.887 161.078 265.011 163.583 269.135 166.141C270.701 167.133 272.162 168.177 273.624 169.273C274.876 170.16 276.025 169.482 276.599 168.542C276.964 167.864 276.86 166.976 276.234 166.507C274.459 165.254 272.788 163.844 270.909 162.8C266.734 160.399 262.662 157.842 258.591 155.18C255.198 152.987 251.544 151.474 247.786 150.116C245.332 149.229 242.984 149.699 240.791 150.691C237.816 151.996 234.893 153.457 232.179 155.232C230.769 156.119 229.673 157.424 228.577 158.677C228.264 158.99 228.264 159.408 228.264 159.877C228.212 161.809 228.681 163.427 230.091 164.836C235.832 170.526 241.574 176.268 247.264 182.009C247.838 182.583 248.569 183.053 248.83 183.941H248.777Z" fill="#E7A47C"/>
<path d="M199.137 178.564C198.824 178.721 198.511 178.878 198.615 179.295C198.981 179.191 199.033 178.878 199.137 178.564Z" fill="white"/>
</svg>
