<svg width="500" height="500" viewBox="0 0 500 500" fill="none" xmlns="http://www.w3.org/2000/svg">
<path d="M182.259 288.534L182.276 289.873C180.437 290.818 177.427 287.605 175.158 288.111C175.174 287.475 174.572 287.262 173.958 287.007C167.939 284.526 162.384 281.806 156.646 278.664C142.217 270.77 130.706 258.976 123.308 244.291C122.969 243.622 123.074 242.961 123.408 242.722C123.876 242.383 124.708 242.316 125.076 243.023C137.791 267.318 155.128 277.075 179.747 286.982C180.771 287.392 181.507 288.036 182.263 288.534H182.259Z" fill="#4D4F49"/>
<path d="M322.305 280.706C322.38 280.22 322 279.538 322.205 279.02C322.564 278.622 323.116 278.179 323.789 277.978C328.495 276.572 332.495 274.497 336.826 272.179C350.163 265.029 361.009 254.394 367.885 240.889C368.211 240.249 368.654 239.927 369.31 240.161C369.733 240.316 370.096 241.119 369.703 241.902C364.692 251.892 357.444 260.641 348.403 267.372C340.366 273.359 331.684 277.953 322.309 280.701L322.305 280.706Z" fill="#4D4F49"/>
<path d="M219.028 328.3C220.821 331.396 223.107 334.119 225.281 337.257C232.056 347.034 236.93 357.761 239.994 369.279C240.148 369.856 240.269 370.312 240.077 370.589C239.739 371.082 239.279 371.141 238.928 371.111C238.175 371.049 238.096 370.476 237.9 369.735C234.97 358.811 230.648 348.394 224.048 339.24L216.524 328.81C217.344 328.785 218.163 328.095 219.028 328.295V328.3Z" fill="#4D4F49"/>
<path d="M281.649 333.458C281.661 334.249 281.285 334.914 280.738 335.642C277.197 340.319 274.343 345.26 271.647 350.494C269.431 354.787 267.927 359.142 266.606 363.748C266.414 364.422 265.649 364.69 265.239 364.589C264.704 364.455 264.378 363.815 264.579 363.071C267.241 353.222 271.872 344.394 277.783 336.14C278.372 335.316 278.995 334.671 278.924 333.768C279.822 333.713 280.717 333.174 281.649 333.462V333.458Z" fill="#4D4F49"/>
<path d="M293.507 189.886C294.146 202.638 295.948 215.695 299.759 227.866C300.002 228.635 299.701 229.639 300.182 230.388C299.053 232.371 287.095 238.81 288.01 240.433L285.615 240.538C284.537 238.501 283.053 236.66 282.004 234.338L274.205 217.067L274.786 214.528C275.789 214.097 276.09 212.917 276.499 211.742C279.392 203.428 280.328 194.864 281.26 186.317C281.912 186.3 282.606 186.267 283.421 186.484L292.094 188.777C292.771 188.957 293.105 189.631 293.519 189.886H293.507Z" fill="#8C87D4"/>
<path d="M220.299 188.2C220.215 189.229 220.746 190.17 220.893 191.17C221.883 197.985 223.843 204.822 226.594 211.122C227.041 212.152 227.246 213.444 227.547 214.536C224.307 225.042 219.956 235.212 215.877 245.625C215.53 246.508 214.836 247.094 214.493 247.634L212.859 247.554C215.785 248.901 200.42 237.015 203.651 239.178C204.316 238.208 204.057 236.877 204.437 235.861C208.098 226.083 208.876 203.182 208.55 192.325C207.597 191.329 219.827 187.777 220.295 188.2H220.299Z" fill="#8C87D4"/>
<path d="M281.248 186.313C280.316 194.865 279.379 203.425 276.487 211.738C276.077 212.913 275.781 214.089 274.773 214.524C272.838 208.073 267.839 202.567 272.466 196.346C274.084 194.166 279.613 187.744 279.337 186.096C279.969 186.133 280.612 186.33 281.248 186.313Z" fill="#F8B68D"/>
<path d="M208.554 192.325C207.609 192.267 206.689 192.643 205.657 193.045L183.73 201.609C178.292 203.734 173.398 207.178 171.07 212.344C170.861 212.805 170.167 213.093 170.192 213.704C173.089 216.629 176.834 218.566 180.24 221.189L194.18 231.916C197.477 234.455 200.407 236.999 203.655 239.179C204.32 238.208 204.06 236.878 204.441 235.861C208.102 226.084 208.88 203.182 208.554 192.325Z" fill="#F7B086"/>
<path d="M331.617 207.825C328.947 202.579 323.534 199.14 317.682 197.337L293.502 189.886C294.142 202.638 295.943 215.695 299.755 227.865C299.998 228.635 299.697 229.639 300.177 230.388C301.954 229.769 303.346 228.48 305.105 227.359L331.362 210.662C332.119 210.181 332.83 209.951 332.75 209.093C332.625 208.507 331.948 208.202 331.617 207.825Z" fill="#F7B086"/>
<path d="M278.836 185.614C278.965 185.748 279.124 186.087 279.337 186.099C279.617 187.748 274.088 194.174 272.466 196.349C267.839 202.571 272.838 208.076 274.773 214.528L274.192 217.067C271.446 213.072 269.603 208.273 268.303 203.432C267.525 200.533 268.587 197.776 270.305 195.525L277.009 186.739C277.548 186.032 278.092 185.593 278.832 185.614H278.836Z" fill="#D1865F"/>
<path d="M227.551 214.54C227.25 213.448 227.045 212.152 226.598 211.126C230.865 201.395 227.542 198.421 220.897 191.174C220.75 190.17 220.215 189.233 220.303 188.204L220.337 187.794C220.913 187.848 221.624 187.915 222.088 188.509L228.316 196.446C233.983 203.663 228.495 211.474 227.551 214.545V214.54Z" fill="#D1865F"/>
<path d="M266 290.709C267.129 291.562 267.543 293.328 268.182 294.729C270.978 300.879 274.874 306.151 279.054 311.397C282.251 315.414 285.791 322.154 290.886 322.095C288.019 326.831 286.03 329.931 281.649 333.458C280.717 333.174 279.823 333.709 278.924 333.763C273.064 334.127 268.324 330.458 264.337 326.128C263.789 325.534 263.058 325.212 262.502 324.94C258.677 319.426 247.179 314.443 240.817 312.406C240.851 311.816 241.123 311.293 241.494 310.619C246.109 302.21 250.581 293.834 253.695 284.935C253.979 284.722 254.289 284.542 254.619 284.408C258.356 286.626 261.996 289.019 266.004 290.705L266 290.709Z" fill="#F8B68D"/>
<path d="M240.817 312.406C247.179 314.439 258.677 319.426 262.502 324.94C249.695 325.417 236.412 325.769 223.664 324.422C225.377 319.33 229.624 314.983 232.019 310.343C233.862 310.151 240.178 313.749 240.817 312.41V312.406Z" fill="#8C87D4"/>
<path d="M289.722 193.964C288.202 193.681 286.686 193.805 285.166 194.008C282.483 194.366 279.796 194.362 277.109 194.061C277.122 192.505 276.932 190.919 277.189 189.407C277.768 186.009 278.236 182.579 279.429 179.309C280.866 175.375 282.276 171.433 283.615 167.469C286.014 160.384 288.401 153.296 290.704 146.18C292.189 141.588 293.978 137.085 294.937 132.334C295.225 130.911 295.737 129.488 295.746 128.06C295.768 124.882 295.932 121.718 295.335 118.518C293.643 109.436 289.148 102.259 281.515 97.0705C278.254 94.8564 274.617 93.3316 271.068 91.6611C270.179 91.2456 269.136 91.1617 268.164 90.9274C272.601 88.7486 277.162 86.9057 281.993 85.7787C297.567 82.1459 313.331 91.6124 317.937 106.091C319.7 111.637 319.85 117.219 318.604 122.88C317.406 128.334 315.828 133.686 314.335 139.056C311.135 150.564 310.198 162.258 311.263 174.129C311.771 179.786 312.726 185.381 314.242 190.857C314.825 192.961 315.793 194.954 316.584 197C310.141 194.971 303.516 194.163 296.78 194.114C294.429 194.096 292.078 194.021 289.727 193.973L289.722 193.964Z" fill="#7B4923"/>
<path d="M280.21 139.979C280.515 139.785 280.939 139.666 281.107 139.392C282.866 136.479 284.395 133.487 284.28 129.938C284.241 128.657 284.294 127.375 284.267 126.093C284.174 121.307 283.105 116.728 281.456 112.247C280.661 110.086 279.653 108.062 278.292 106.205C275.176 101.945 271.415 98.4139 266.7 95.9699C265.886 95.5501 265.047 95.1832 264.256 94.7236C263.332 94.1889 262.709 93.4331 262.863 92.262C264.583 91.6344 266.337 91.135 268.162 90.9229C269.135 91.1571 270.178 91.241 271.066 91.6565C274.615 93.3271 278.252 94.8518 281.514 97.066C289.151 102.254 293.645 109.432 295.334 118.514C295.93 121.714 295.767 124.878 295.745 128.056C295.736 129.483 295.223 130.906 294.936 132.329C293.981 137.085 292.187 141.584 290.702 146.176C288.399 153.291 286.013 160.38 283.613 167.464C282.269 171.429 280.86 175.375 279.428 179.304C278.234 182.575 277.766 186.004 277.187 189.403C276.926 190.914 277.121 192.505 277.107 194.056C273.788 194.317 270.469 194.574 267.15 194.834C267.08 194.127 267.234 193.385 266.841 192.722C267.102 189.942 267.362 187.166 267.623 184.387C272.476 179.538 275.225 173.537 277.077 167.062C278.283 162.841 278.703 158.475 279.344 154.153C279.852 150.714 280.046 147.267 279.971 143.793C279.945 142.525 280.122 141.252 280.21 139.984V139.979Z" fill="#5D3818"/>
<path d="M403.839 209.499C400.015 203.738 394.811 199.345 390.054 194.505C384.98 189.338 363.843 191.057 354.811 196.463L334.961 208.345C334.192 208.805 333.544 209.244 332.75 209.098C332.83 209.955 332.119 210.185 331.363 210.667L305.105 227.364C303.342 228.485 301.954 229.774 300.178 230.393C299.4 231.761 293.465 235.25 290.163 237.815L285.611 240.542C293.243 254.964 302.773 267.017 308.905 282.827C309.833 283.559 311.158 282.166 311.889 281.903L322.205 279.028C322.564 278.631 323.116 278.187 323.789 277.987C328.495 276.581 332.495 274.506 336.825 272.188C350.163 265.038 361.009 254.403 367.885 240.898C368.211 240.258 368.654 239.936 369.31 240.17C369.732 240.325 370.096 241.128 369.703 241.91C364.692 251.901 357.444 260.649 348.403 267.381C340.366 273.368 331.684 277.962 322.309 280.71C319.86 288.291 317.085 295.659 313.197 302.842C309.444 309.779 304.299 315.602 297.076 318.979C295.58 319.677 293.356 320.443 291.801 320.46C291.893 321.167 291.559 321.828 290.89 322.1C288.023 326.836 286.033 329.936 281.653 333.463C281.666 334.253 281.289 334.919 280.742 335.647C277.202 340.324 274.347 345.265 271.651 350.499C269.436 354.791 267.931 359.146 266.61 363.753C266.418 364.426 265.653 364.694 265.243 364.594C264.708 364.46 264.382 363.82 264.583 363.075C267.245 353.227 271.877 344.399 277.787 336.144C278.376 335.32 278.999 334.676 278.928 333.772C273.068 334.136 268.328 330.467 264.341 326.137C263.793 325.543 263.062 325.221 262.506 324.949C249.699 325.426 236.416 325.777 223.668 324.43L219.032 328.308C220.825 331.404 223.112 334.128 225.285 337.266C232.061 347.043 236.934 357.77 239.998 369.288C240.152 369.865 240.274 370.321 240.081 370.597C239.743 371.091 239.283 371.15 238.932 371.12C238.18 371.053 238.1 370.484 237.904 369.744C234.974 358.82 230.652 348.403 224.052 339.249L216.529 328.819C206.318 329.116 201.954 322.075 199.421 321.489C182.844 317.657 176.754 320.351 163.684 317.305C155.726 315.452 154.761 311.368 150.619 308.289C147.676 306.101 146.092 303.064 143.839 300.298C141.904 297.926 139.672 295.776 139.551 292.354C139.488 290.634 139.714 289.103 140.896 287.936C142.05 286.802 143.617 286.191 145.565 286.438L161.849 288.484C166.401 289.057 170.907 289.065 175.166 288.12C175.183 287.484 174.581 287.27 173.966 287.015C167.948 284.534 162.393 281.815 156.654 278.673C142.226 270.778 130.715 258.984 123.317 244.299C122.978 243.63 123.082 242.973 123.417 242.731C123.885 242.392 124.717 242.325 125.085 243.032C137.799 267.327 155.137 277.083 179.751 286.99C180.775 287.4 181.511 288.044 182.267 288.542L182.284 289.881C182.786 290.015 183.513 290.496 183.68 291.031L194.192 293.671C195.655 287.927 197.599 282.819 200.144 277.522L214.506 247.638L213.231 247.575C212.775 246.567 200.775 237.246 203.663 239.183C200.412 237.007 197.482 234.459 194.188 231.92L180.249 221.193C176.842 218.57 173.097 216.633 170.201 213.708C169.344 213.281 168.211 212.7 167.241 212.014C155.722 203.881 140.119 193.246 125.824 192.103C121.59 191.765 115.68 191.497 111.902 193.932C105.009 198.371 99.6509 205.073 95.3082 211.909C91.35 218.143 91.421 225.724 93.1514 232.572L99.095 256.081C102.857 270.966 108.382 284.957 114.635 298.955C117.135 304.549 119.283 309.724 121.168 315.523C124.345 325.275 127.467 334.709 130.058 344.662C134.364 361.226 140.169 379.948 148.541 394.767C152.926 402.527 158.155 409.376 164.842 415.25C178.581 427.324 194 430.437 212.031 430.224C223.663 430.085 234.945 428.989 246.397 427.207C249.686 426.697 252.512 426.709 255.818 427.186C266.957 428.793 277.975 430.09 289.256 430.002C307.651 429.864 327.041 421.12 338.443 406.858C348.637 394.106 354.422 378.019 359.475 362.577C363.128 351.419 367.325 340.964 372.416 330.354C381.912 310.574 395.576 278.284 400.725 257.449L407.116 231.585C408.934 224.234 408.123 215.925 403.852 209.491L403.839 209.499Z" fill="#6C6D66"/>
<path d="M246.966 232.426C247.279 232.806 254.472 233.618 254.539 232.601C255.216 232.585 255.885 232.698 256.533 232.882L261.235 258.511L259.985 259.352C257.298 261.155 245.273 267.598 241.298 270.569L245.001 232.589C245.657 232.568 246.314 232.522 246.966 232.43V232.426Z" fill="#8C87D4"/>
<path d="M253.691 284.94C250.577 293.839 246.104 302.214 241.49 310.624C241.122 311.297 240.846 311.82 240.813 312.41C240.177 313.753 233.858 310.151 232.014 310.343C231.726 309.858 231.58 309.226 231.922 308.523C236.203 299.696 240.687 283.095 240.784 275.305C244.758 277.991 249.54 282.701 253.686 284.944L253.691 284.94Z" fill="#6F6D64"/>
<path d="M254.615 284.413C254.284 284.547 253.975 284.727 253.691 284.94C249.545 282.698 244.763 277.987 240.788 275.301L240.817 272.808C241.536 272.749 242.055 273.23 242.648 273.787C246.247 277.142 250.113 279.949 254.046 282.899C254.569 283.292 254.56 283.945 254.61 284.413H254.615Z" fill="#4D4F49"/>
<path d="M279.806 139.565C277.641 140.937 277.921 143.995 276.667 145.962C275.522 147.756 273.908 148.873 273.206 151.208L269.858 162.378C268.508 166.884 266.176 170.549 262.79 173.817C259.346 177.139 256.211 181.004 253.181 184.606C251.15 185.393 247.016 185.272 245.168 184.335L234.715 173.398C231.689 170.231 229.745 166.587 228.512 162.412L225.202 151.208C224.613 149.221 222.782 148.509 221.908 146.97C220.684 144.807 220.972 141.602 218.213 140.435C218.569 132.352 220.863 129.26 224.964 122.144C227.977 116.914 232.521 113.575 238.414 112.391C245.511 110.965 252.65 110.902 259.781 112.232C264.295 113.073 267.731 115.471 270.427 119.265C274.936 125.612 279.68 131.929 279.802 139.565H279.806Z" fill="#FAB58A"/>
<path d="M226.598 211.122C223.847 204.821 221.883 197.985 220.896 191.17C227.542 198.416 230.865 201.387 226.598 211.122Z" fill="#F8B68D"/>
<path d="M254.23 232.167L247.049 231.715C247.965 223.988 248.587 216.331 249.695 208.11L254.088 229.673C254.28 230.606 254.368 231.409 254.226 232.167H254.23Z" fill="#F7B086"/>
<path d="M254.23 232.167C254.343 232.305 254.447 232.451 254.543 232.602C254.477 233.618 247.283 232.807 246.97 232.426L247.053 231.715L254.234 232.167H254.23Z" fill="#F8B68D"/>
<path d="M175.158 288.111C170.899 289.056 166.393 289.048 161.841 288.475L145.557 286.429C143.609 286.186 142.042 286.793 140.888 287.927C139.705 289.09 139.48 290.621 139.542 292.345C139.663 295.767 141.895 297.917 143.831 300.29C146.088 303.055 147.672 306.092 150.61 308.28C154.752 311.364 155.722 315.447 163.676 317.296C175.826 320.125 181.95 318.003 196.056 320.765C189.519 312.711 183.413 297.754 180.449 289.847C178.769 289.282 176.775 287.751 175.158 288.111Z" fill="#F8B68D"/>
<path d="M198.677 319.883C191.496 311.649 186.823 301.169 183.672 291.027C183.505 290.492 182.777 290.011 182.276 289.877C181.749 290.149 181.126 290.078 180.449 289.848C183.413 297.759 189.519 312.712 196.056 320.765C197.131 320.974 198.242 321.209 199.413 321.481C199.446 320.908 199.128 320.406 198.673 319.883H198.677Z" fill="#C88763"/>
<path d="M291.797 320.456C289.478 320.481 287.241 318.573 285.862 316.724L275.283 302.57C272.867 299.336 271.024 295.943 269.582 292.341L266.021 290.73C267.133 291.592 267.547 293.341 268.182 294.734C270.978 300.884 274.874 306.156 279.053 311.402C282.251 315.419 285.791 322.159 290.886 322.1C291.555 321.828 291.889 321.163 291.797 320.46V320.456Z" fill="#C88763"/>
<path d="M267.158 284.739C265.348 277.481 263.927 270.41 262.594 263.047C262.293 261.378 261.992 259.809 261.24 258.512L259.99 259.353C257.302 261.156 245.277 267.599 241.302 270.569C241.235 271.272 240.826 272.105 240.817 272.807C241.536 272.749 242.055 273.23 242.648 273.786C246.247 277.142 250.113 279.949 254.046 282.899C254.569 283.288 254.56 283.945 254.61 284.413C258.347 286.63 261.988 289.024 265.996 290.71C266.004 290.714 266.009 290.722 266.017 290.726L269.578 292.337C268.604 289.906 267.814 287.379 267.154 284.739H267.158Z" fill="#6E6D66"/>
<path d="M227.007 163.981L223.496 152.057C223.3 151.396 223.049 150.731 222.577 150.233C222.577 150.233 222.568 150.225 222.56 150.216C222.51 150.162 222.456 150.116 222.401 150.066C221.916 149.589 220.537 148.058 219.68 145.472C218.932 143.221 218 141.38 216.587 140.092C208.621 140.435 213.432 168.763 214.255 176.628C214.815 181.996 218.071 183.029 220.336 187.79C220.913 187.845 221.624 187.912 222.088 188.506L228.316 196.442C233.983 203.659 228.495 211.47 227.551 214.541C224.311 225.046 219.96 235.217 215.881 245.63C215.534 246.513 214.84 247.099 214.497 247.638L200.136 277.523C197.59 282.819 195.647 287.923 194.184 293.672L183.672 291.032C186.823 301.173 191.496 311.653 198.677 319.887C199.133 320.41 199.455 320.916 199.417 321.485C201.95 322.071 206.313 329.112 216.525 328.815C217.344 328.79 218.163 328.099 219.028 328.3L223.664 324.422C225.377 319.33 229.624 314.983 232.019 310.344C231.73 309.858 231.584 309.227 231.927 308.524C236.207 299.696 240.692 283.095 240.788 275.305L240.817 272.812C240.825 272.105 241.231 271.272 241.302 270.573L245.005 232.594C244.993 232.171 244.7 231.673 244.775 231.021L248.244 200.358C248.767 195.739 247.434 191.556 244.943 187.761C238.201 177.486 230.213 174.871 227.011 163.989L227.007 163.981Z" fill="#F9B58C"/>
<path d="M322.205 279.02L311.889 281.895C311.153 282.158 309.828 283.551 308.905 282.819C302.773 267.013 293.239 254.956 285.611 240.534C284.533 238.497 283.049 236.656 282 234.334L274.2 217.064C271.454 213.068 269.611 208.27 268.311 203.429C267.534 200.53 268.595 197.773 270.313 195.522L277.018 186.736C277.557 186.029 278.1 185.59 278.84 185.611C279.713 183.456 283.927 180.063 284.198 177.21C284.658 172.378 288.704 138.36 281.736 139.142C279.835 139.356 279.496 142.142 278.748 144.393C277.916 146.899 276.804 148.463 276.37 149.016C276.315 149.07 276.269 149.133 276.223 149.196C276.198 149.225 276.182 149.246 276.182 149.246C275.96 149.56 275.801 149.915 275.659 150.262C271.571 160.458 272.62 166.315 264.729 174.507C261.08 178.293 257.511 182.021 254.476 186.284C250.618 191.702 249.945 197.605 251.262 204.086L256.545 230.071C256.763 231.146 256.591 232.088 256.541 232.882L261.243 258.512C261.996 259.809 262.292 261.378 262.597 263.047C263.931 270.41 265.352 277.481 267.162 284.74C268.796 291.291 271.237 297.153 275.287 302.566L285.866 316.72C287.25 318.569 289.481 320.477 291.801 320.452C293.352 320.435 295.58 319.674 297.076 318.971C304.299 315.594 309.444 309.771 313.197 302.834C317.084 295.651 319.86 288.283 322.309 280.702C322.384 280.217 322.004 279.535 322.209 279.016L322.205 279.02Z" fill="#F9B58C"/>
<path d="M279.806 139.564C277.64 140.936 277.921 143.995 276.667 145.961C275.521 147.756 273.908 148.873 273.206 151.207L269.858 162.378C268.508 166.884 266.175 170.549 262.79 173.816C259.346 177.138 256.211 181.004 253.181 184.606C251.149 185.393 247.016 185.271 245.168 184.334L234.715 173.398C231.689 170.231 229.745 166.587 228.512 162.411L225.202 151.207C224.612 149.22 222.782 148.509 221.908 146.969C220.683 144.806 220.972 141.602 218.213 140.434C217.795 140.259 217.197 140.464 216.583 140.091C217.996 141.38 218.932 143.221 219.676 145.472C220.533 148.057 221.916 149.584 222.397 150.065C222.451 150.115 222.506 150.166 222.556 150.216C222.564 150.224 222.573 150.228 222.573 150.228C223.045 150.73 223.296 151.392 223.492 152.057L227.003 163.98C230.205 174.862 238.192 177.477 244.934 187.752C247.421 191.543 248.759 195.73 248.236 200.349L244.767 231.012C244.692 231.664 244.984 232.158 244.997 232.585C245.653 232.564 246.309 232.518 246.961 232.426L247.045 231.715C247.96 223.987 248.583 216.331 249.691 208.11L254.084 229.673C254.276 230.606 254.364 231.409 254.221 232.166C254.334 232.304 254.439 232.451 254.535 232.602C255.212 232.585 255.881 232.698 256.529 232.882C256.583 232.087 256.754 231.146 256.533 230.07L251.25 204.085C249.933 197.605 250.61 191.702 254.464 186.284C257.498 182.02 261.072 178.293 264.717 174.507C272.608 166.315 271.555 160.458 275.647 150.262C275.789 149.915 275.948 149.559 276.169 149.249C276.169 149.249 276.186 149.224 276.211 149.195C276.257 149.132 276.303 149.074 276.357 149.015C276.792 148.463 277.904 146.898 278.736 144.392C279.484 142.141 280.311 140.43 281.724 139.142L279.797 139.56L279.806 139.564Z" fill="#D1865F"/>
<path d="M280.211 139.98C273.829 133.501 266.21 129.223 257.362 127.111C252.293 125.9 247.228 125.922 242.137 126.908C235.225 128.242 228.834 130.814 223.058 134.876C221.414 136.034 219.717 137.125 218.506 138.783C218.214 139.18 217.803 139.34 217.326 139.371C217.016 136.927 216.707 134.478 216.402 132.034C215.593 125.595 215.889 119.24 218.36 113.167C223.283 101.067 232.303 94.0927 245.186 92.0332C249.12 91.4056 253.031 91.5647 256.911 92.2674C258.931 92.6342 260.88 92.7005 262.869 92.263C262.714 93.4297 263.333 94.1855 264.261 94.7246C265.052 95.1843 265.892 95.5511 266.705 95.9709C271.42 98.4149 275.181 101.946 278.297 106.207C279.654 108.063 280.666 110.087 281.462 112.248C283.11 116.725 284.184 121.308 284.272 126.094C284.299 127.376 284.241 128.658 284.286 129.939C284.401 133.488 282.871 136.485 281.112 139.393C280.944 139.671 280.52 139.79 280.215 139.98H280.211Z" fill="#7B4923"/>
</svg>
