<svg width="500" height="500" viewBox="0 0 500 500" fill="none" xmlns="http://www.w3.org/2000/svg">
<path d="M105.847 186.305C106.084 187.055 105.657 187.637 105.36 188.25C103.079 192.966 100.777 197.67 98.509 202.395C95.8878 207.861 93.2882 213.345 90.6928 218.825C89.9556 220.381 89.2227 221.937 88.2656 223.382C87.9638 223.839 87.7138 224.339 87.481 224.839C85.2133 229.723 82.4929 234.358 79.7639 238.988C79.169 239.993 78.6991 241.071 78.1688 242.118C76.496 245.442 74.8535 248.779 73.5472 252.267C72.5297 254.987 71.6631 257.742 71.9434 260.721C72.0425 261.769 72.2365 262.769 72.7194 263.7C75.7804 269.576 78.1084 275.776 80.8029 281.816C85.5453 292.452 90.3566 303.062 95.3058 313.602C102.631 329.2 109.917 344.816 117.25 360.405C118.224 362.479 118.742 364.695 119.513 366.829C120.811 370.407 122.471 373.804 124.372 377.094C125.381 378.844 126.696 380.353 128.084 381.789C131.434 385.259 134.805 388.712 138.435 391.907C144.165 396.947 150.752 400.184 158.271 401.517C161.836 402.146 165.398 402.176 168.959 401.517C170.925 401.15 172.89 400.801 174.852 400.43C175.042 400.396 175.21 400.249 175.391 400.15C175.007 399.585 174.386 399.831 173.873 399.71C171.972 399.253 171.153 397.438 172.033 395.697C172.287 395.188 172.675 394.804 173.063 394.416C173.891 393.588 174.693 392.726 175.559 391.941C177.059 390.579 178.167 388.911 179.142 387.178C180.013 385.626 180.883 384.069 181.612 382.427C183.013 379.271 184.052 376.012 184.923 372.679C185.358 371.015 185.643 369.329 185.876 367.631C186.1 366.005 186.514 364.376 186.51 362.75C186.492 358.767 186.824 354.783 186.212 350.795C185.867 348.562 185.57 346.329 185.078 344.117C184.828 342.988 184.419 341.867 184.505 340.677C184.565 339.819 184.82 338.983 185.66 338.629C186.561 338.25 187.424 338.603 188.165 339.181C188.372 339.34 188.532 339.595 188.657 339.832C189.126 340.75 189.588 341.668 189.954 342.638C190.877 345.096 191.437 347.635 191.877 350.209C192.106 351.558 192.308 352.929 192.33 354.292C192.403 358.965 192.364 363.617 191.614 368.269C191.045 371.808 190.252 375.266 189.234 378.684C187.95 382.996 186.117 387.066 183.746 390.885C181.776 394.054 179.556 397.011 176.602 399.352C176.374 399.534 176.223 399.74 176.197 400.034C176.822 400.223 177.426 400.034 178.034 399.939C185.725 398.753 193.42 397.585 201.107 396.382C209.475 395.071 217.843 393.752 226.207 392.403C231.376 391.571 236.537 390.696 241.693 389.799C243.659 389.458 245.612 389.027 247.561 388.592C248.755 388.324 249.958 388.143 250.997 387.32C251.553 386.876 252.402 386.798 253.126 386.574C253.696 386.397 254.204 386.652 254.722 386.846C258.985 388.436 263.357 389.687 267.754 390.829C276.627 393.136 285.603 394.933 294.643 396.438C301.028 397.503 307.439 398.426 313.871 399.158C319.209 399.771 324.555 400.279 329.918 400.642C335.626 401.025 341.33 401.344 347.051 401.396C352.431 401.448 357.794 401.193 363.149 400.689C365.891 400.43 368.65 400.344 371.396 400.12C374.966 399.831 378.535 399.542 382.066 398.9C382.946 398.74 383.812 398.512 384.683 398.313C383.566 397.352 383.269 396.21 383.799 394.804C384.036 394.17 384.067 393.463 384.217 392.791C384.929 389.575 385.662 386.363 386.36 383.142C387.585 377.508 388.822 371.873 390.305 366.298C390.464 365.695 390.641 365.108 390.568 364.479C389.124 364.427 387.675 364.41 386.248 364.108C385.644 363.979 385.019 363.914 384.403 363.906C379.484 363.854 374.72 362.642 369.891 361.927C364.239 361.09 358.605 360.112 352.965 359.202C345.692 358.025 338.419 356.853 331.146 355.68C324.688 354.641 318.23 353.602 311.772 352.563C306.266 351.679 300.757 350.804 295.251 349.903C290.699 349.157 286.146 348.407 281.606 347.605C279.507 347.234 277.42 346.769 275.346 346.281C272.255 345.553 269.108 345.191 265.974 344.734C260.455 343.923 254.933 343.151 249.406 342.406C242.581 341.483 235.748 340.616 228.923 339.711C225.849 339.302 222.784 338.845 219.715 338.431C216.779 338.038 213.838 337.702 210.907 337.301C206.539 336.706 202.176 336.09 197.814 335.465C195.154 335.085 192.502 334.676 189.846 334.279C189.135 334.301 188.532 334.624 187.924 334.947C187.074 335.396 186.212 335.827 185.277 336.085C183.97 336.448 183.975 336.465 183.052 335.335C182.746 334.964 182.423 334.607 182.112 334.236C180.918 332.817 179.659 331.451 178.551 329.968C173.779 323.579 169.075 317.142 164.302 310.753C156.275 300.018 148.204 289.317 140.181 278.582C139.573 277.768 138.763 277.069 138.491 276.026C138.237 275.797 137.944 275.599 137.732 275.332C136.668 273.978 135.62 272.616 134.581 271.245C131.296 266.916 128.019 262.579 124.73 258.251C122.898 255.841 121.057 253.439 119.203 251.047C118.888 250.641 118.707 250.258 118.819 249.727C119.44 246.701 120.057 243.675 120.643 240.639C121.113 238.212 121.557 235.776 121.997 233.345C122.643 229.762 123.277 226.18 123.906 222.593C124.394 219.821 124.838 217.04 125.355 214.272C125.834 211.711 126.049 209.099 126.795 206.589C127.14 204.503 127.455 202.408 127.83 200.325C128.377 197.303 128.972 194.29 129.55 191.276C129.485 190.798 129.606 190.349 129.688 189.884C129.959 188.37 130.425 186.874 130.253 185.305C130.089 185.008 129.899 184.719 129.761 184.413C128.364 181.296 126.937 178.192 125.601 175.044C124.562 172.596 123.441 170.173 122.734 167.595C121.376 167.159 120.009 166.745 118.66 166.284C118.142 166.107 117.642 165.887 117.077 165.948C116.25 167.832 115.344 169.677 114.236 171.406C113.542 172.492 113.115 173.755 112.12 174.648C112.016 174.971 111.956 175.316 111.801 175.618C110.106 178.899 108.399 182.175 106.7 185.452C106.502 185.831 106.239 186.124 105.842 186.292L105.847 186.305Z" fill="#696D65"/>
<path d="M129.55 191.292C128.976 194.31 128.381 197.324 127.83 200.342C127.45 202.424 127.136 204.515 126.795 206.606C126.834 206.808 126.898 207.007 126.907 207.214C127.054 211.081 127.718 214.87 128.64 218.613C130.196 224.916 132.205 231.05 135.271 236.806C135.56 237.353 135.836 237.914 136.051 238.492C137.383 242.109 138.616 245.76 139.681 249.464C141.832 256.935 143.841 264.445 146.178 271.86C146.67 273.425 147.114 275.003 147.592 276.616C146.665 276.973 145.855 276.788 145.044 276.706C142.859 276.482 140.673 276.258 138.487 276.038C138.754 277.081 139.569 277.784 140.177 278.594C148.2 289.329 156.271 300.03 164.298 310.765C169.075 317.15 173.774 323.591 178.547 329.98C179.655 331.463 180.918 332.83 182.108 334.248C182.418 334.614 182.742 334.972 183.048 335.347C183.97 336.477 183.962 336.464 185.272 336.097C186.208 335.839 187.07 335.408 187.919 334.959C188.532 334.636 189.135 334.313 189.842 334.291C189.881 333.942 189.98 333.623 190.26 333.377C192.524 331.433 193.735 328.786 194.977 326.177C195.96 324.108 196.318 321.892 196.572 319.607C196.826 317.339 196.943 315.085 196.938 312.813C196.938 312.403 196.878 311.989 196.844 311.58C196.382 311.718 195.934 311.903 195.464 311.981C194.339 312.162 193.64 311.739 193.222 310.64C193.028 310.127 192.916 309.588 192.769 309.058C192.024 306.346 191.278 303.634 190.532 300.922C189.752 298.077 188.988 295.231 188.2 292.39C187.428 289.614 186.626 286.846 185.854 284.07C184.845 280.435 183.845 276.797 182.849 273.154C182.181 270.705 181.526 268.256 180.862 265.807C179.87 262.169 178.81 258.543 177.891 254.883C176.641 249.899 175.503 244.885 174.304 239.888C174.072 238.914 174.059 237.983 174.606 237.099C173.985 235.202 173.395 233.301 172.74 231.417C172.451 230.589 172.408 229.852 172.826 229.041C174.555 225.7 174.542 222.079 174.037 218.535C173.24 212.956 171.088 207.817 168.118 203.023C165.639 199.022 162.707 195.397 159.263 192.181C156.374 189.486 153.223 187.154 149.606 185.546C145.29 183.627 140.923 183.601 136.659 185.744C134.314 186.921 132.128 188.356 130.421 190.413C130.158 190.728 129.843 190.999 129.55 191.292Z" fill="#FFB78A"/>
<path d="M117.083 165.961C117.647 165.9 118.143 166.12 118.665 166.297C120.014 166.754 121.381 167.172 122.739 167.608C123.192 167.004 123.636 166.388 124.106 165.793C128.693 160.037 133.284 154.286 137.867 148.526C138.725 147.448 139.583 146.375 140.38 145.254C141.342 143.905 141.704 142.383 141.355 140.744C140.98 138.973 141.027 137.188 141.057 135.399C141.109 132.402 141.794 129.548 143.014 126.811C144.855 122.68 147.718 119.357 151.331 116.74C153.918 114.869 156.194 112.709 158.38 110.411C158.798 109.971 159.143 109.419 159.794 109.26C159.871 108.462 159.294 108.014 158.837 107.518C155.806 104.203 152.137 101.836 147.938 100.297C143.618 98.7144 139.147 98.141 134.556 98.3695C128.33 98.6799 122.528 100.426 117.074 103.409C116.595 103.672 116.087 103.884 115.591 104.121C115.449 104.267 115.332 104.448 115.164 104.552C111.732 106.729 108.645 109.316 105.912 112.325C105.447 112.838 104.942 113.295 104.239 113.463C104.3 114.269 103.92 114.916 103.515 115.567C103.153 116.149 102.817 116.748 102.489 117.352C101.144 119.844 100.23 122.512 99.4195 125.207C98.5918 127.962 98.0054 130.777 98.027 133.683C98.0356 134.989 97.9623 136.304 98.0485 137.606C98.152 139.24 98.2555 140.895 98.5831 142.495C98.9668 144.37 99.5359 146.215 100.127 148.035C101.312 151.682 103.183 154.928 105.985 157.593C106.835 158.399 107.619 159.274 108.482 160.059C109.443 160.934 110.047 161.964 110.154 163.266C111.594 163.814 113.034 164.357 114.47 164.913C115.345 165.249 116.212 165.607 117.083 165.956V165.961Z" fill="#814414"/>
<path d="M159.793 109.269C159.142 109.428 158.797 109.98 158.379 110.42C156.198 112.713 153.917 114.873 151.33 116.749C147.717 119.365 144.85 122.689 143.014 126.82C141.794 129.557 141.108 132.411 141.057 135.407C141.026 137.192 140.979 138.981 141.354 140.753C141.703 142.387 141.337 143.913 140.38 145.263C139.582 146.384 138.724 147.457 137.866 148.535C133.283 154.295 128.688 160.046 124.105 165.802C123.635 166.392 123.195 167.009 122.738 167.617C123.445 170.195 124.566 172.618 125.605 175.066C126.937 178.209 128.369 181.313 129.765 184.435C129.903 184.745 130.093 185.03 130.257 185.327C130.968 184.577 131.749 183.878 132.374 183.064C134.223 180.658 136.655 179.028 139.289 177.627C141.44 176.48 143.738 176.338 146.088 176.485C146.838 176.532 147.584 176.679 148.33 176.786C150.869 177.149 153.369 177.765 155.521 179.153C158.758 181.244 161.733 183.684 164.225 186.681C165.536 188.259 166.993 189.711 168.385 191.225C168.493 189.621 168.002 188.095 167.795 186.53C167.355 183.18 166.333 179.968 165.29 176.765C164.268 173.631 163.354 170.458 162.393 167.302C162.332 167.103 162.242 166.914 162.216 166.711C161.94 164.672 162.143 163.978 164.134 163.18C165.984 162.443 167.846 161.727 169.717 161.029C171.347 160.421 172.822 159.58 174.132 158.425C176.098 156.692 177.068 154.45 177.391 151.932C177.577 150.51 177.594 149.035 177.314 147.608C176.654 144.263 177.137 141.051 178.275 137.886C179.094 135.606 180.297 133.519 181.582 131.484C182.173 130.549 182.707 129.596 182.979 128.51C183.263 127.363 182.927 126.276 181.935 125.647C181.422 125.319 180.819 125.117 180.237 124.923C177.236 123.927 174.24 122.909 171.317 121.689C169.334 120.857 167.506 119.762 165.803 118.473C164.363 117.382 163.225 115.99 162.414 114.364C161.862 113.256 161.388 112.11 160.858 110.993C160.569 110.385 160.474 109.652 159.797 109.281L159.793 109.269Z" fill="#FFB78A"/>
<path d="M390.568 364.487C390.641 365.117 390.465 365.703 390.305 366.307C388.822 371.881 387.585 377.516 386.36 383.151C385.658 386.371 384.929 389.583 384.218 392.799C384.071 393.467 384.037 394.179 383.799 394.812C383.274 396.218 383.567 397.36 384.683 398.322C386.356 398.718 388.016 399.154 389.697 399.507C392.521 400.102 395.349 400.71 398.268 400.624C398.742 400.611 399.225 400.723 399.704 400.771C400.182 400.818 400.669 400.934 401.139 400.887C403.394 400.654 405.705 400.68 407.873 400.025C410.516 399.227 413.042 398.08 415.215 396.326C416.655 395.166 418.125 394.028 419.199 392.454C419.906 391.415 420.44 390.355 420.82 389.147C421.411 387.281 421.553 385.397 421.635 383.461C421.803 379.542 422.398 375.666 423.329 371.851C424.277 367.979 425.299 364.121 426.213 360.241C426.985 356.964 427.752 353.683 427.839 350.286C427.856 349.536 428.132 348.786 428.11 348.04C427.998 343.975 427.705 339.931 426.084 336.124C424.54 332.498 421.941 329.937 418.16 328.812C412.943 327.26 407.697 328.993 404.429 333.408C402.928 335.434 402.036 337.741 401.04 340.004C399.57 343.341 398.177 346.712 396.755 350.075C394.879 354.511 393.008 358.952 391.129 363.388C390.969 363.767 390.758 364.125 390.572 364.492L390.568 364.487Z" fill="#FFB78A"/>
<path d="M196.839 308.291C196.865 307.541 196.917 306.791 196.921 306.041C196.921 301.122 196.913 296.203 196.908 291.288C196.908 289.908 196.947 288.529 196.9 287.153C196.787 283.929 197.249 280.687 196.52 277.488C196.477 277.289 196.507 277.074 196.507 276.867C196.507 269.978 196.507 263.084 196.486 256.195C196.486 255.419 196.645 254.72 196.938 254C197.861 251.707 198.667 249.366 199.611 247.085C200.241 245.563 200.357 243.994 200.185 242.425C200.03 240.998 199.917 239.558 199.719 238.139C199.37 235.639 198.71 233.181 198.288 230.685C197.934 228.594 197.464 226.529 197.275 224.404C197.171 223.253 196.973 222.097 196.809 220.946C196.49 218.713 196.02 216.506 195.654 214.281C195.261 211.893 193.395 210.103 190.967 209.81C189.881 209.681 188.786 209.547 187.721 209.306C185.811 208.866 183.923 208.84 182.017 209.31C181.698 209.388 181.336 209.293 180.996 209.276C180.793 209.314 180.59 209.349 180.388 209.392C177.844 209.931 176.232 211.38 175.736 214.009C175.546 215.027 175.387 216.036 175.382 217.079C175.378 220.183 175.507 223.3 175.253 226.383C175.029 229.137 175.029 231.884 174.977 234.634C174.964 235.462 174.956 236.29 174.947 237.117C175.085 237.117 175.223 237.117 175.361 237.122C177.012 237.199 177.068 237.242 177.456 238.773C177.81 240.17 178.124 241.575 178.517 242.959C179.228 245.468 180 247.96 180.72 250.465C181.685 253.828 182.629 257.195 183.569 260.566C184.578 264.201 185.574 267.839 186.561 271.482C187.6 275.319 188.609 279.169 189.657 283.006C190.812 287.24 192.015 291.465 193.157 295.703C194.175 299.475 195.141 303.26 196.145 307.037C196.266 307.498 196.447 307.955 196.835 308.283L196.839 308.291Z" fill="#FFB78A"/>
<path d="M105.847 186.305C106.244 186.136 106.511 185.839 106.705 185.464C108.403 182.187 110.115 178.911 111.805 175.63C111.96 175.332 112.021 174.988 112.124 174.66C111.753 173.707 111.365 172.759 111.02 171.797C110.378 169.999 109.766 168.189 109.141 166.382C107.925 166.464 106.826 166.037 105.791 165.499C103.54 164.322 101.402 162.994 99.3714 161.424C97.2029 159.747 95.5732 157.678 93.9824 155.527C92.5813 153.634 91.5638 151.543 90.7275 149.344C89.3694 145.788 88.4986 142.149 88.5115 138.321C88.5158 136.803 88.5891 135.286 88.4942 133.772C88.3821 132.026 88.671 130.315 89.0633 128.672C90.0334 124.589 91.4302 120.645 93.685 117.041C94.4437 115.825 95.1249 114.536 95.5776 113.152C90.7232 112.945 86.5542 114.626 82.9371 117.791C82.5749 118.105 82.2128 118.433 81.911 118.808C77.7162 123.999 75.0778 129.75 75.5391 136.613C75.7072 139.097 76.1771 141.515 76.7764 143.925C78.1905 149.595 80.7211 154.764 83.7217 159.734C88.0157 166.839 93.1029 173.323 98.8455 179.299C101.135 181.679 103.368 184.11 105.851 186.296L105.847 186.305Z" fill="#824416"/>
<path d="M181 209.279C181.34 209.297 181.703 209.392 182.022 209.314C183.927 208.84 185.815 208.87 187.725 209.31C188.79 209.555 189.885 209.685 190.972 209.814C193.399 210.107 195.266 211.896 195.658 214.285C196.024 216.509 196.494 218.721 196.813 220.95C196.977 222.101 197.175 223.256 197.279 224.408C197.469 226.533 197.934 228.598 198.292 230.689C198.715 233.181 199.374 235.638 199.723 238.143C199.922 239.561 200.034 240.997 200.189 242.428C200.357 243.998 200.245 245.567 199.616 247.089C198.671 249.374 197.865 251.71 196.943 254.004C196.654 254.724 196.49 255.427 196.49 256.198C196.507 263.088 196.507 269.981 196.512 276.871C196.512 277.078 196.481 277.293 196.524 277.492C197.253 280.69 196.796 283.937 196.904 287.157C196.951 288.533 196.912 289.912 196.912 291.292C198.072 291.085 199.146 290.623 200.241 290.223C201.97 289.584 203.108 288.386 203.785 286.696C204.427 285.092 204.897 283.428 205.108 281.729C205.397 279.414 205.569 277.086 205.604 274.741C205.69 268.567 204.759 262.553 203.056 256.638C202.944 256.242 202.823 255.845 202.72 255.448C202.345 253.987 201.978 252.525 201.607 251.064C202.151 249.654 202.698 248.24 203.241 246.83C203.612 245.869 203.94 244.886 204.358 243.946C205.475 241.445 205.298 238.841 205.018 236.229C204.574 232.125 203.586 228.115 202.836 224.067C202.461 222.041 202.129 220.001 201.952 217.954C201.767 215.815 201.077 213.785 200.853 211.664C200.81 211.254 200.702 210.853 200.646 210.444C200.292 207.904 198.865 206.275 196.378 205.8C194.425 205.43 192.442 205.154 190.463 204.973C188.536 204.8 186.626 205.21 184.733 205.507C183.056 205.77 181.953 206.917 181.151 208.361C181.108 208.667 181.06 208.978 181.013 209.288L181 209.279Z" fill="#E7A47D"/>
<path d="M181 209.279C181.047 208.968 181.09 208.662 181.138 208.352C180.676 207.852 180.142 207.399 179.767 206.839C176.382 201.777 172.623 196.987 168.997 192.103C168.877 191.939 168.777 191.758 168.67 191.586C168.566 191.452 168.467 191.318 168.364 191.18L168.385 191.206C166.993 189.697 165.535 188.24 164.225 186.662C161.733 183.666 158.758 181.23 155.52 179.135C153.369 177.742 150.869 177.126 148.329 176.768C147.584 176.66 146.838 176.514 146.088 176.466C143.738 176.32 141.436 176.466 139.289 177.609C136.655 179.014 134.223 180.639 132.374 183.045C131.748 183.86 130.968 184.554 130.257 185.308C130.425 186.882 129.964 188.378 129.692 189.891C129.61 190.357 129.485 190.805 129.554 191.284C129.847 190.995 130.162 190.723 130.425 190.404C132.132 188.348 134.318 186.912 136.663 185.735C140.927 183.593 145.299 183.618 149.61 185.537C153.223 187.145 156.374 189.473 159.267 192.172C162.712 195.388 165.643 199.009 168.122 203.015C171.093 207.809 173.244 212.948 174.041 218.526C174.546 222.07 174.559 225.696 172.83 229.033C172.412 229.843 172.455 230.58 172.744 231.408C173.399 233.292 173.994 235.193 174.611 237.09C174.727 237.103 174.843 237.112 174.96 237.116C174.968 236.288 174.977 235.461 174.99 234.633C175.037 231.882 175.037 229.136 175.266 226.381C175.52 223.299 175.387 220.182 175.395 217.078C175.395 216.034 175.559 215.03 175.749 214.008C176.24 211.378 177.853 209.925 180.4 209.391C180.603 209.348 180.806 209.313 181.008 209.274L181 209.279Z" fill="#8C8ADC"/>
<path d="M95.5728 113.158C95.1201 114.542 94.439 115.831 93.6802 117.046C91.4297 120.651 90.0329 124.595 89.0586 128.678C88.6663 130.321 88.3774 132.032 88.4895 133.778C88.5843 135.287 88.511 136.809 88.5067 138.326C88.4938 142.151 89.369 145.794 90.7227 149.35C91.5634 151.549 92.5765 153.64 93.9776 155.533C95.5685 157.684 97.1981 159.753 99.3667 161.43C101.397 163 103.536 164.327 105.786 165.504C106.821 166.048 107.92 166.47 109.136 166.388C109.86 165.479 110.08 164.401 110.153 163.28C110.046 161.978 109.442 160.947 108.481 160.072C107.614 159.283 106.834 158.408 105.984 157.606C103.178 154.938 101.307 151.696 100.125 148.048C99.5348 146.225 98.9657 144.379 98.582 142.508C98.2544 140.909 98.1509 139.253 98.0475 137.619C97.9655 136.317 98.0345 135.003 98.0259 133.696C98.0043 130.79 98.5907 127.975 99.4184 125.22C100.229 122.526 101.143 119.857 102.488 117.365C102.816 116.762 103.152 116.163 103.514 115.581C103.919 114.93 104.299 114.283 104.238 113.477C102.484 113.438 100.729 113.395 98.9744 113.356C98.0992 113.438 97.2068 113.684 96.379 113.153C96.1074 113.158 95.8401 113.162 95.5685 113.166L95.5728 113.158Z" fill="#61340E"/>
<path d="M176.201 400.029C176.227 399.736 176.378 399.529 176.607 399.348C179.56 397.007 181.78 394.05 183.75 390.881C186.126 387.061 187.958 382.991 189.239 378.68C190.256 375.261 191.049 371.804 191.618 368.264C192.364 363.612 192.407 358.956 192.334 354.287C192.312 352.925 192.11 351.554 191.881 350.204C191.442 347.635 190.885 345.091 189.959 342.634C189.592 341.66 189.131 340.741 188.661 339.827C188.536 339.586 188.376 339.336 188.169 339.176C187.428 338.603 186.566 338.245 185.665 338.625C184.824 338.978 184.57 339.814 184.509 340.672C184.427 341.858 184.833 342.983 185.083 344.113C185.57 346.324 185.872 348.558 186.216 350.791C186.829 354.779 186.501 358.762 186.514 362.746C186.518 364.371 186.104 366.001 185.88 367.626C185.647 369.325 185.363 371.01 184.927 372.675C184.057 376.003 183.017 379.262 181.616 382.422C180.888 384.065 180.021 385.621 179.146 387.173C178.172 388.911 177.064 390.575 175.563 391.937C174.697 392.726 173.895 393.584 173.067 394.412C172.679 394.8 172.291 395.183 172.037 395.692C171.157 397.434 171.976 399.249 173.878 399.706C174.391 399.831 175.012 399.585 175.395 400.146C175.663 400.107 175.93 400.068 176.197 400.029H176.201Z" fill="#494A45"/>
<path d="M174.955 237.126C174.839 237.126 174.722 237.114 174.606 237.101C174.058 237.98 174.071 238.911 174.304 239.89C175.503 244.887 176.641 249.901 177.891 254.884C178.809 258.545 179.87 262.166 180.861 265.809C181.53 268.258 182.181 270.711 182.849 273.155C183.845 276.794 184.845 280.433 185.854 284.071C186.625 286.848 187.427 289.615 188.199 292.392C188.988 295.233 189.751 298.083 190.531 300.924C191.273 303.636 192.023 306.347 192.769 309.059C192.916 309.589 193.028 310.133 193.222 310.641C193.64 311.745 194.338 312.163 195.463 311.982C195.933 311.909 196.386 311.719 196.843 311.581C196.994 310.486 196.972 309.387 196.843 308.292C196.455 307.964 196.274 307.503 196.153 307.046C195.149 303.269 194.183 299.484 193.166 295.712C192.019 291.474 190.82 287.253 189.665 283.015C188.617 279.178 187.613 275.328 186.569 271.491C185.582 267.848 184.586 264.209 183.577 260.575C182.642 257.204 181.693 253.837 180.728 250.474C180.008 247.969 179.236 245.477 178.525 242.968C178.132 241.584 177.818 240.179 177.464 238.782C177.076 237.251 177.02 237.208 175.369 237.131C175.231 237.126 175.093 237.131 174.955 237.126Z" fill="#E7A47C"/>
<path d="M98.9788 113.347C100.733 113.386 102.488 113.429 104.243 113.468C104.946 113.3 105.45 112.843 105.916 112.33C108.649 109.325 111.736 106.734 115.167 104.557C115.336 104.449 115.452 104.268 115.594 104.125C112.99 102.612 110.141 102.444 107.248 102.72C105.997 102.841 104.911 103.457 104.032 104.384C103.398 105.052 103.053 105.841 103.014 106.777C102.949 108.238 103.238 109.631 103.721 110.993C103.859 111.381 104.04 111.752 104.165 112.14C104.316 112.606 104.075 112.95 103.579 112.972C102.962 112.998 102.346 112.972 101.734 112.981C100.781 113.002 99.8238 113.037 98.8711 113.067C98.8969 113.162 98.9314 113.257 98.9831 113.343L98.9788 113.347Z" fill="#FFB589"/>
<path d="M98.9795 113.346C98.9321 113.26 98.8933 113.169 98.8674 113.07C98.0396 113.096 97.2119 113.118 96.3841 113.144C97.2119 113.674 98.1 113.428 98.9795 113.346Z" fill="#824416"/>
<path d="M168.364 191.186C168.467 191.319 168.566 191.457 168.67 191.591C168.657 191.388 168.554 191.255 168.364 191.186Z" fill="#FFB78A"/>
<path d="M138.487 276.04C140.673 276.264 142.859 276.484 145.045 276.708C145.855 276.79 146.666 276.975 147.593 276.617C147.114 275.005 146.67 273.427 146.179 271.862C143.846 264.447 141.833 256.932 139.682 249.465C138.617 245.762 137.384 242.11 136.052 238.493C135.836 237.915 135.564 237.355 135.271 236.807C132.206 231.052 130.197 224.917 128.641 218.614C127.718 214.868 127.054 211.078 126.908 207.215C126.899 207.013 126.834 206.81 126.795 206.607C126.05 209.121 125.834 211.729 125.356 214.29C124.838 217.058 124.394 219.839 123.907 222.611C123.278 226.198 122.644 229.78 121.997 233.363C121.557 235.799 121.118 238.23 120.643 240.657C120.053 243.688 119.441 246.719 118.82 249.745C118.712 250.276 118.889 250.659 119.203 251.065C121.057 253.457 122.898 255.859 124.73 258.269C128.02 262.597 131.292 266.934 134.582 271.263C135.621 272.634 136.668 273.996 137.733 275.35C137.94 275.617 138.237 275.811 138.492 276.044L138.487 276.04Z" fill="#8A89DD"/>
</svg>
