<svg width="500" height="500" viewBox="0 0 500 500" fill="none" xmlns="http://www.w3.org/2000/svg">
<path d="M224.66 158.592C221.743 163.132 220.551 166.963 224.202 173.595C224.953 174.96 227.779 177.642 231.952 178.044C242.024 176.862 250.678 171.507 258.841 163.876C262.528 159.847 262.26 160.183 265.301 157.473C274.97 147.966 284.707 138.533 294.285 128.919C300.155 123.024 304.244 116.004 307.5 108.479C310.527 101.491 323.918 85.1713 327.033 78.2075C328.24 75.5052 330.311 73.4873 332.011 71.1766C334.748 67.4583 337.535 63.7788 340.301 60.0782C340.71 59.5314 341.391 58.9246 341.169 58.3143C340.037 55.1957 338.798 52.1301 337.027 49.4207C336.47 48.567 335.532 49.2126 334.745 49.6077C330.057 51.9537 325.343 54.2362 320.697 56.6915C317.505 58.3778 316.757 61.9549 315.127 64.7066C308.11 76.5529 295.904 87.5702 289.088 99.5188C288.69 100.217 288.263 100.743 287.695 101.424C282.495 107.664 271.767 120.837 265.205 123.861C261.55 126.852 257.561 130.186 253.906 133.177C251.172 136.458 246.804 138.585 243.693 141.51C239.763 145.204 226.491 155.17 224.664 158.588L224.66 158.592Z" fill="#DCA782"/>
<path d="M245.528 224.783C230.993 217.954 216.455 211.12 201.921 204.291C199.554 210.196 197.133 216.243 194.392 222.06C192.879 225.274 180.733 241.96 172.435 253.108C168.749 258.061 167.486 261.987 166.572 263.282C174.908 277.975 196.841 275.146 213.792 280C218.762 271.17 222.59 261.772 227.582 252.928C232.591 244.049 238.553 235.84 244.011 227.281C244.533 226.459 245.023 225.616 245.528 224.783Z" fill="#F4BA92"/>
<path d="M262.221 191.597C257.247 183.057 251.867 174.752 246.667 166.342C244.254 168.727 242.483 171.75 239.502 173.57C238.349 174.731 237.163 175.825 235.95 176.855L225.215 159.999C210.292 173.556 204.969 189.474 204.969 189.474C202.157 197.122 199.85 204.911 198.407 212.94C212.779 220.105 225.949 226.794 240.324 233.959C241.153 232.513 242.014 231.084 242.801 229.613C245.327 224.893 248.929 221.22 254.626 218.751C264.917 214.292 268.063 201.63 262.221 191.597Z" fill="#4E965A"/>
<path d="M232.715 428.344C222.442 428.39 212.173 428.439 201.903 428.488C202.574 431.741 203.089 435.033 203.946 438.236C206.115 446.35 206.807 450.124 215.26 450.156C223.059 450.188 236.031 450.826 243.831 450.805C248.643 450.791 251.881 448.625 252.767 444.889C253.649 441.181 251.747 438.052 247.211 435.738C242.378 433.276 237.548 430.806 232.719 428.34L232.715 428.344Z" fill="#F2BA94"/>
<path d="M172.432 253.108L214.148 280.222L273.905 331.157C273.905 331.157 278.583 335.7 278.583 340.248C278.583 344.795 276.844 350.006 275.641 351.879C274.438 353.752 232.711 428.658 232.711 428.658H201.913C201.913 428.658 208.8 383.671 234.242 353.816C234.242 353.816 235.558 352.923 234.62 352.122C233.685 351.321 183.371 320.75 183.371 320.75C183.371 320.75 166.953 311.517 161.608 302.162C156.264 292.806 157.866 279.968 160.003 273.287C162.141 266.605 172.425 253.111 172.425 253.111L172.432 253.108Z" fill="#6A6C65"/>
<path d="M269.361 105.636C268.254 100.284 264.973 96.8412 259.815 95.3525C254.612 93.8497 250.015 95.2608 246.254 99.1061C243.33 102.094 240.589 105.266 237.703 108.292C232.38 113.873 225.218 116.293 218.441 119.373C217.013 120.022 215.57 120.636 213.771 121.423C221.966 125.646 229.9 129.258 239.061 128.63C237.019 118.636 243.171 108.289 254.531 105.22C259.505 103.876 264.447 104.549 269.365 105.636H269.361Z" fill="#7A4922"/>
<path d="M268.907 104.793C263.767 103.279 258.627 102.224 253.575 103.42C242.043 106.158 236.324 117.341 239.044 128.633C239.192 128.729 239.33 128.729 239.457 128.633C240.868 126.912 240.314 124.46 240.716 122.382C242.91 111.069 253.335 105.142 263.696 106.768C265.506 107.05 267.312 107.491 269.118 107.858C269.259 106.846 269.309 105.826 268.907 104.793Z" fill="#5C381A"/>
<path d="M286.104 139.683L282.76 146.802L281.338 164.289L273.524 161.953L266.486 169.337L253.589 163.911L248.847 170.649L227.07 162.271L240.705 145.669L249.606 142.127L260.979 128.704L286.104 139.683Z" fill="#F4BA92"/>
<path d="M286.104 139.683C286.104 139.683 289.117 130.281 287.099 123.878C285.081 117.475 278.498 105.872 260.835 105.675C260.835 105.675 244.815 107.442 240.099 120.153C234.68 134.754 240.709 145.669 240.709 145.669L256.686 143.539L264.797 130.779L275.821 136.772L286.104 139.683Z" fill="#7A4922"/>
<path d="M261.906 166.046C268.376 159.576 274.843 153.109 281.313 146.639C282.23 145.722 283.144 144.805 284.061 143.891C285.871 142.082 283.063 139.277 281.256 141.087C274.786 147.557 268.32 154.023 261.85 160.493C260.933 161.41 260.019 162.327 259.102 163.241C257.292 165.051 260.1 167.856 261.906 166.046Z" fill="#DCA782"/>
<path d="M223.659 160.37C220.741 164.91 219.199 170.304 222.854 176.936C223.606 178.301 227.31 182.743 235.508 182.743C245.58 181.561 252.417 173.289 260.58 165.658C264.267 161.629 263.999 161.964 267.04 159.255C276.709 149.748 286.446 140.314 296.024 130.701C301.894 124.806 305.983 117.786 309.239 110.261C312.266 103.273 325.657 86.953 328.772 79.9892C329.979 77.2869 332.05 75.269 333.75 72.9583C336.488 69.24 339.275 65.5606 342.04 61.8599C342.45 61.3131 343.131 60.7063 342.908 60.096C341.776 56.9775 340.538 53.9118 338.767 51.2025C338.209 50.3487 337.271 50.9943 336.484 51.3894C331.796 53.7354 327.083 56.0179 322.437 58.4732C319.244 60.1595 318.496 63.7367 316.866 66.4884C309.849 78.3347 297.643 89.3519 290.828 101.301C290.429 101.999 290.002 102.525 289.434 103.206C284.234 109.446 273.506 122.619 266.944 125.642C263.29 128.634 259.3 131.968 255.645 134.959C252.911 138.24 248.544 140.367 245.432 143.292C241.502 146.985 225.493 156.951 223.666 160.37H223.659Z" fill="#F6BB92"/>
</svg>
