<svg width="501" height="500" viewBox="0 0 501 500" fill="none" xmlns="http://www.w3.org/2000/svg">
<path d="M225.088 150.959C222.208 155.445 221.027 159.23 224.634 165.78C225.377 167.129 228.168 169.777 232.289 170.174C242.236 169.006 250.783 163.719 258.845 156.182C262.486 152.204 262.22 152.534 265.223 149.857C274.774 140.466 284.391 131.15 293.849 121.657C299.647 115.837 303.685 108.903 306.902 101.47C309.889 94.5677 323.119 78.4514 326.193 71.5712C327.384 68.9042 329.428 66.9103 331.108 64.6274C333.81 60.9539 336.566 57.3217 339.296 53.6673C339.699 53.1276 341.096 52.0703 340.877 51.467C339.76 48.3873 338.436 43.6438 336.061 43.139C335.077 42.9294 334.229 43.1104 333.454 43.5009C328.825 45.8187 324.526 47.892 319.935 50.3208C316.782 51.9877 316.042 55.5183 314.433 58.2361C307.502 69.936 295.449 80.8168 288.718 92.6183C288.325 93.3104 287.902 93.8248 287.34 94.5011C282.206 100.664 271.608 113.675 265.128 116.659C261.518 119.615 257.578 122.908 253.968 125.864C251.266 129.102 246.954 131.204 243.881 134.093C239.998 137.741 226.895 147.584 225.088 150.962V150.959Z" fill="#DCA782"/>
<path d="M245.693 216.333C231.336 209.586 216.982 202.839 202.624 196.095C200.287 201.928 197.894 207.9 195.188 213.647C193.693 216.822 181.698 233.303 173.503 244.311C169.861 249.204 168.614 253.08 167.712 254.36C175.945 268.87 197.605 266.076 214.346 270.87C219.255 262.148 223.036 252.868 227.964 244.133C232.911 235.364 238.8 227.255 244.191 218.803C244.709 217.993 245.192 217.161 245.69 216.339L245.693 216.333Z" fill="#F4BA92"/>
<path d="M262.181 183.557C257.269 175.121 251.958 166.92 246.82 158.615C244.436 160.97 242.69 163.955 239.743 165.755C238.604 166.901 237.432 167.981 236.235 168.997L225.63 152.347C210.892 165.736 205.637 181.459 205.637 181.459C202.862 189.012 200.58 196.705 199.157 204.636C213.353 211.713 226.358 218.317 240.556 225.395C241.375 223.966 242.226 222.553 243.004 221.102C245.496 216.441 249.056 212.812 254.682 210.374C264.845 205.97 267.95 193.464 262.181 183.557Z" fill="#8A8AD9"/>
<path d="M233.042 417.377C222.898 417.425 212.754 417.469 202.609 417.52C202.609 420.796 202.832 424.194 203.676 427.356C205.819 435.37 205.089 438.761 213.436 438.792C221.139 438.821 236.312 439.583 244.015 439.564C248.768 439.551 251.965 437.408 252.841 433.722C253.711 430.061 251.835 426.969 247.355 424.686C242.583 422.254 237.814 419.815 233.042 417.38V417.377Z" fill="#F2BA94"/>
<path d="M173.504 244.308L214.703 271.086L273.72 321.39C273.72 321.39 278.339 325.88 278.339 330.369C278.339 334.859 276.622 340.009 275.434 341.857C274.247 343.704 233.035 417.685 233.035 417.685H202.622C202.622 417.685 209.423 373.257 234.55 343.771C234.55 343.771 235.848 342.892 234.924 342.098C234.001 341.304 184.312 311.116 184.312 311.116C184.312 311.116 168.097 301.997 162.817 292.755C157.537 283.513 159.121 270.835 161.233 264.237C163.344 257.636 173.501 244.311 173.501 244.311L173.504 244.308Z" fill="#6A6C65"/>
<path d="M269.232 98.6613C268.137 93.3749 264.898 89.9745 259.806 88.5045C254.669 87.0218 250.125 88.4156 246.41 92.2097C243.521 95.1625 240.816 98.293 237.965 101.284C232.707 106.796 225.633 109.186 218.943 112.228C217.534 112.869 216.108 113.473 214.33 114.251C222.423 118.419 230.259 121.988 239.308 121.369C237.289 111.501 243.369 101.281 254.586 98.2486C259.498 96.9214 264.378 97.585 269.235 98.6582L269.232 98.6613Z" fill="#7A4922"/>
<path d="M268.785 97.8263C263.708 96.3308 258.631 95.2894 253.643 96.4737C242.255 99.1757 236.606 110.225 239.292 121.375C239.438 121.467 239.572 121.467 239.699 121.375C241.093 119.673 240.543 117.254 240.943 115.203C243.112 104.03 253.405 98.1755 263.638 99.7821C265.426 100.061 267.207 100.496 268.995 100.858C269.134 99.8583 269.182 98.8518 268.788 97.8294L268.785 97.8263Z" fill="#5C381A"/>
<path d="M285.768 132.285L282.466 139.317L273.345 154.278L266.391 161.574L253.656 156.215L248.973 162.869L227.466 154.595L240.931 138.196L249.723 134.698L260.956 121.442L285.768 132.285Z" fill="#F4BA92"/>
<path d="M285.768 132.284C285.768 132.284 288.743 123.001 286.749 116.676C284.756 110.351 278.253 98.8929 260.813 98.6992C260.813 98.6992 244.992 100.445 240.331 112.996C234.978 127.417 240.934 138.199 240.934 138.199L256.714 136.098L264.724 123.496L275.612 129.414L285.768 132.288V132.284Z" fill="#7A4922"/>
<path d="M261.75 158.199C268.132 151.817 274.514 145.435 280.895 139.053C281.807 138.142 282.721 137.228 283.632 136.317C285.261 134.688 282.734 132.164 281.108 133.792C274.726 140.174 268.345 146.556 261.963 152.938C261.052 153.849 260.137 154.763 259.226 155.675C257.597 157.303 260.125 159.827 261.75 158.199Z" fill="#DCA782"/>
<path d="M224.097 152.715C221.217 157.201 219.693 162.526 223.303 169.076C224.046 170.425 227.704 174.81 235.803 174.81C245.751 173.642 252.501 165.472 260.565 157.938C264.207 153.96 263.94 154.29 266.944 151.613C276.494 142.222 286.111 132.906 295.57 123.413C301.367 117.593 305.406 110.659 308.622 103.226C311.61 96.3239 325.551 80.1155 328.625 73.2353C329.815 70.5683 331.149 68.6633 332.828 66.3836C335.53 62.7101 336.064 62.3894 338.791 58.735C339.194 58.1953 342.623 55.233 342.071 53.0041C341.229 49.6196 340.372 45.8731 337.781 44.8983C337.115 44.6475 336.305 44.6951 335.527 45.0825C330.898 47.4002 326.243 49.6513 321.652 52.0802C318.499 53.7471 317.76 57.2777 316.15 59.9955C309.219 71.6954 297.167 82.5761 290.436 94.3776C290.042 95.0698 289.62 95.5841 289.058 96.2604C283.924 102.423 273.325 115.434 266.845 118.419C263.235 121.375 259.295 124.667 255.685 127.623C252.983 130.862 248.672 132.963 245.598 135.853C241.715 139.501 225.904 149.343 224.1 152.722L224.097 152.715Z" fill="#F6BB92"/>
<path d="M282.317 139.101L282.092 154.519C282.092 154.519 282.069 156.218 280.431 156.503C278.987 156.754 273.208 154.02 273.208 154.02L282.317 139.101Z" fill="#F4BA92"/>
</svg>
