<svg width="497" height="497" viewBox="0 0 497 497" fill="none" xmlns="http://www.w3.org/2000/svg">
<path d="M239.098 165.885C234.426 168.645 229.012 171.087 224.022 167.371C213.831 160.471 212.557 148.049 224.129 141.998C207.779 140.193 193.341 153.358 188.882 168.752C183.998 180.536 178.903 192.32 174.444 204.423C168.711 217.162 161.492 229.053 154.379 241.156C148.752 250.923 140.471 259.628 137.074 270.457C141.957 273.429 148.752 272.58 154.272 274.703C166.163 278.313 177.522 283.621 188.351 289.46C197.057 272.899 203.533 254.638 213.724 238.608C217.759 230.964 225.19 225.868 230.392 219.073C239.841 207.077 238.248 190.834 238.673 176.502L239.098 165.885Z" fill="#FF8AA0"/>
<path d="M188.565 289.355C177.63 283.516 166.377 278.208 154.486 274.598C149.072 272.475 142.277 273.218 137.288 270.352C135.695 272.156 134.846 274.598 134.103 276.721C133.147 278.102 132.935 279.8 132.616 281.499C132.616 283.091 131.555 284.79 131.449 286.489C131.661 286.701 131.555 287.019 131.342 287.232C130.812 288.718 131.342 290.417 130.599 291.797C128.157 321.841 157.565 334.899 181.24 343.393C195.253 349.975 208.418 358.362 221.794 366.006C222.75 366.536 222.75 367.067 222.431 367.916C213.407 386.283 219.459 373.119 241.435 393.184C248.123 381.293 268.294 365.05 259.27 350.718C247.38 335.218 230.712 324.92 216.592 311.649C207.25 304.961 198.757 297.105 189.202 290.841C188.671 290.523 188.034 290.204 188.565 289.355Z" fill="#3D3C3C"/>
<path d="M224.129 141.892C212.451 148.049 213.725 160.364 224.023 167.265C229.013 170.981 234.427 168.539 239.098 165.779C241.222 162.912 244.725 160.364 247.804 158.56C251.413 153.039 258.633 149.217 263.516 144.334C271.903 138.388 278.91 130.426 287.509 125.012C280.396 132.868 270.948 138.495 263.198 145.926C258.42 150.173 252.475 153.676 248.547 158.56C253.537 162.488 260.119 168.327 262.879 158.984C258.42 153.145 260.862 152.827 266.595 154.95C267.126 152.721 269.249 153.464 270.948 153.464C273.389 152.296 272.752 149.217 274.557 147.625C276.043 137.008 286.129 138.388 287.509 127.772C287.828 126.498 287.615 125.012 288.465 124.056C302.585 106.539 315.643 87.9605 327.639 68.8509C333.691 54.4126 351.102 44.7516 351.102 27.9777C343.564 14.7071 327.321 46.0256 321.588 51.0153C307.893 67.8954 296.321 87.2173 280.29 101.762C272.646 110.467 262.242 117.156 252.9 124.162C246.742 128.303 241.009 134.142 233.79 136.265C231.454 138.813 227.42 140.512 224.129 141.892Z" fill="#F6BB92"/>
<path d="M241.432 393.076C234.532 387.131 226.994 381.823 218.289 378.744C203.107 405.922 189.73 435.011 180.494 464.631C180.6 475.884 194.296 471.956 201.621 472.381C213.617 472.381 225.614 473.867 237.611 473.124C244.83 471.638 244.511 466.33 237.929 463.569C232.833 459.641 208.097 458.58 209.477 451.36C218.713 431.295 230.71 412.504 241.432 393.076Z" fill="#F6BB92"/>
<path d="M233.895 136.371C241.114 134.247 246.847 128.515 253.004 124.268C262.347 117.261 272.751 110.573 280.395 101.867C279.227 100.7 277.74 99.8503 276.997 98.2578C275.299 97.1961 273.812 95.9222 271.795 95.4975C271.158 95.6037 270.946 95.2852 271.158 94.7544C271.477 90.1893 266.699 88.066 262.877 87.1105C262.559 87.3229 262.24 87.2167 261.922 87.0044C257.994 85.9427 254.49 87.429 250.669 88.066C250.456 88.2784 250.138 88.2784 249.819 88.1722C246.528 88.9153 243.768 90.5078 241.008 92.3126C240.795 92.8434 240.371 93.1619 239.84 93.3742C237.504 95.816 232.939 101.549 237.292 104.097C238.141 104.734 237.823 105.158 236.973 105.477C233.364 108.98 232.621 113.97 231.665 118.747C231.771 119.066 231.771 119.384 231.559 119.597C231.453 121.295 231.347 123.1 231.24 124.799C232.196 128.408 231.453 132.973 233.895 136.371ZM248.333 108.237C247.059 108.768 237.717 107.282 240.583 106.114C249.925 107.388 260.223 105.265 267.867 99.5318C268.398 98.8948 269.247 99.7441 268.716 100.275C264.364 106.114 255.127 107.919 248.333 108.237Z" fill="#602F0F"/>
<path d="M276.893 98.1524C277.636 99.7449 279.122 100.594 280.29 101.762C296.321 87.2175 307.893 67.8956 321.588 51.0155C327.321 45.9196 343.564 14.7073 351.102 27.9779C348.66 11.6286 330.4 33.3922 326.471 39.2313C322.65 44.5395 320.314 50.8032 316.067 55.7929C304.92 71.6114 289.845 84.0326 276.893 98.1524Z" fill="#D89D75"/>
<path d="M248.546 158.665C252.58 153.888 258.525 150.278 263.196 146.032C270.84 138.494 280.395 132.973 287.508 125.117C278.909 130.425 271.902 138.494 263.515 144.439C258.631 149.323 251.412 153.038 247.802 158.665C248.015 158.665 248.227 158.665 248.546 158.665Z" fill="#F7A471"/>
<path d="M233.896 136.372C233.259 135.522 232.941 134.567 232.516 133.611C232.41 133.611 232.304 133.611 232.304 133.611C229.225 136.796 224.554 139.344 220.944 141.892C221.688 142.104 223.068 141.68 224.236 141.892C227.42 140.512 231.455 138.813 233.896 136.372Z" fill="#F6AC7C"/>
<path d="M266.594 155.056C260.755 152.932 258.419 153.357 262.878 159.09C266.488 160.045 263.94 156.967 265.851 156.967C266.7 156.648 267.125 156.011 266.594 155.056Z" fill="#D6876B"/>
<path d="M274.559 147.73C272.754 149.323 273.391 152.296 270.949 153.57C273.497 154.419 274.028 149.535 274.559 147.73Z" fill="#F6BB92"/>
<path d="M261.923 86.8989C262.242 87.1113 262.454 87.2174 262.879 87.0051C262.56 86.7928 262.348 86.6866 261.923 86.8989Z" fill="#A17A61"/>
<path d="M132.403 282.346C132.615 282.028 132.722 281.709 132.509 281.391C132.297 281.709 132.191 282.028 132.403 282.346Z" fill="#B99B89"/>
<path d="M131.341 287.126C131.553 286.914 131.659 286.701 131.447 286.383C131.128 286.595 131.128 286.807 131.341 287.126Z" fill="#B99B89"/>
<path d="M130.599 291.584C130.812 291.371 130.918 291.053 130.918 290.734C130.387 290.947 130.387 291.265 130.599 291.584Z" fill="#7B7A7A"/>
<path d="M133.996 276.722C134.208 276.722 134.315 276.51 134.208 276.297C134.208 276.403 134.102 276.616 133.996 276.722Z" fill="#B99B89"/>
<path d="M248.336 108.237C255.131 107.919 264.367 106.114 268.72 100.275C269.357 99.7443 268.507 98.895 267.87 99.532C260.227 105.265 249.929 107.388 240.586 106.114C237.72 107.282 247.168 108.662 248.336 108.237Z" fill="#552000"/>
</svg>
