<svg width="500" height="500" viewBox="0 0 500 500" fill="none" xmlns="http://www.w3.org/2000/svg">
<path d="M224.399 150.958C221.519 155.444 220.338 159.229 223.945 165.779C224.687 167.128 227.478 169.776 231.599 170.173C241.547 169.005 250.094 163.718 258.155 156.181C261.797 152.203 261.53 152.533 264.534 149.856C274.084 140.465 283.701 131.149 293.16 121.656C298.957 115.836 302.996 108.902 306.212 101.469C309.2 94.5668 322.43 78.4504 325.503 71.5702C326.694 68.9032 328.739 66.9093 330.418 64.6264C333.12 60.953 335.876 57.3208 338.607 53.6663C339.01 53.1266 340.407 52.0693 340.188 51.466C339.07 48.3863 337.746 43.6428 335.371 43.138C334.387 42.9285 333.539 43.1094 332.765 43.5C328.136 45.8177 323.837 47.891 319.245 50.3199C316.093 51.9867 315.353 55.5174 313.743 58.2352C306.812 69.9351 294.76 80.8158 288.029 92.6173C287.635 93.3095 287.213 93.8238 286.651 94.5001C281.517 100.663 270.919 113.674 264.439 116.658C260.829 119.614 256.888 122.907 253.278 125.863C250.576 129.101 246.265 131.203 243.191 134.092C239.308 137.741 226.205 147.583 224.399 150.961V150.958Z" fill="#DCA782"/>
<path d="M245.004 216.331C230.646 209.584 216.292 202.837 201.935 196.094C199.598 201.926 197.204 207.898 194.499 213.645C193.004 216.82 181.008 233.302 172.814 244.309C169.172 249.202 167.924 253.079 167.022 254.358C175.255 268.868 196.915 266.074 213.657 270.868C218.566 262.147 222.347 252.866 227.275 244.132C232.221 235.362 238.111 227.253 243.502 218.801C244.02 217.992 244.502 217.16 245.001 216.338L245.004 216.331Z" fill="#F4BA92"/>
<path d="M261.492 183.556C256.58 175.12 251.268 166.919 246.131 158.613C243.747 160.969 242 163.954 239.054 165.754C237.914 166.9 236.742 167.979 235.546 168.995L224.941 152.346C210.203 165.735 204.948 181.457 204.948 181.457C202.173 189.011 199.89 196.704 198.468 204.635C212.663 211.712 225.668 218.316 239.867 225.393C240.686 223.964 241.537 222.551 242.315 221.1C244.807 216.44 248.366 212.811 253.992 210.372C264.155 205.968 267.261 193.462 261.492 183.556Z" fill="#8A8AD9"/>
<path d="M232.352 417.376C222.208 417.424 212.064 417.468 201.92 417.519C201.92 420.795 202.142 424.193 202.987 427.355C205.13 435.369 204.4 438.76 212.747 438.791C220.449 438.82 235.623 439.582 243.325 439.563C248.078 439.55 251.275 437.407 252.152 433.721C253.022 430.06 251.145 426.968 246.665 424.685C241.893 422.253 237.124 419.814 232.352 417.379V417.376Z" fill="#F2BA94"/>
<path d="M172.814 244.306L214.013 271.084L273.03 321.389C273.03 321.389 277.65 325.878 277.65 330.368C277.65 334.857 275.932 340.007 274.745 341.855C273.557 343.703 232.346 417.684 232.346 417.684H201.932C201.932 417.684 208.733 373.256 233.86 343.77C233.86 343.77 235.159 342.89 234.235 342.096C233.311 341.303 183.622 311.115 183.622 311.115C183.622 311.115 167.407 301.996 162.127 292.754C156.847 283.511 158.432 270.833 160.543 264.236C162.654 257.635 172.811 244.309 172.811 244.309L172.814 244.306Z" fill="#6A6C65"/>
<path d="M268.544 98.6594C267.448 93.373 264.21 89.9726 259.117 88.5025C253.98 87.0198 249.437 88.4136 245.722 92.2078C242.833 95.1605 240.128 98.2911 237.276 101.282C232.019 106.794 224.945 109.185 218.255 112.226C216.845 112.868 215.42 113.471 213.642 114.249C221.735 118.417 229.571 121.986 238.619 121.367C236.6 111.499 242.68 101.279 253.898 98.2466C258.809 96.9195 263.689 97.583 268.547 98.6562L268.544 98.6594Z" fill="#7A4922"/>
<path d="M268.096 97.8248C263.019 96.3294 257.942 95.288 252.954 96.4723C241.565 99.1742 235.917 110.223 238.603 121.374C238.749 121.466 238.882 121.466 239.009 121.374C240.403 119.672 239.854 117.253 240.254 115.202C242.422 104.029 252.716 98.1741 262.949 99.7806C264.736 100.06 266.518 100.495 268.305 100.857C268.445 99.8568 268.492 98.8503 268.099 97.828L268.096 97.8248Z" fill="#5C381A"/>
<path d="M285.079 132.282L281.777 139.315L272.655 154.275L265.702 161.572L252.967 156.212L248.284 162.867L226.776 154.593L240.242 138.194L249.033 134.695L260.266 121.439L285.079 132.282Z" fill="#F4BA92"/>
<path d="M285.08 132.282C285.08 132.282 288.055 122.999 286.061 116.674C284.067 110.35 277.565 98.8909 260.124 98.6973C260.124 98.6973 244.303 100.444 239.642 112.994C234.289 127.415 240.246 138.198 240.246 138.198L256.025 136.096L264.036 123.494L274.923 129.412L285.08 132.286V132.282Z" fill="#7A4922"/>
<path d="M261.061 158.197C267.443 151.815 273.824 145.434 280.206 139.052C281.117 138.141 282.032 137.226 282.943 136.315C284.572 134.686 282.044 132.162 280.419 133.791C274.037 140.173 267.655 146.554 261.273 152.936C260.362 153.847 259.448 154.762 258.537 155.673C256.908 157.302 259.435 159.826 261.061 158.197Z" fill="#DCA782"/>
<path d="M223.408 152.714C220.528 157.2 219.004 162.524 222.614 169.075C223.357 170.424 227.014 174.809 235.114 174.809C245.061 173.64 251.811 165.471 259.876 157.937C263.517 153.958 263.251 154.289 266.254 151.612C275.805 142.22 285.422 132.905 294.88 123.412C300.678 117.592 304.716 110.658 307.933 103.225C310.92 96.3224 324.862 80.114 327.935 73.2338C329.126 70.5668 330.459 68.6618 332.139 66.3821C334.841 62.7086 335.374 62.388 338.102 58.7335C338.505 58.1938 341.934 55.2315 341.381 53.0027C340.54 49.6181 339.683 45.8716 337.092 44.8969C336.425 44.646 335.615 44.6937 334.838 45.081C330.208 47.3988 325.554 49.6498 320.963 52.0787C317.81 53.7456 317.07 57.2762 315.461 59.994C308.529 71.6939 296.477 82.5747 289.746 94.3762C289.352 95.0683 288.93 95.5827 288.368 96.2589C283.234 102.422 272.636 115.433 266.156 118.417C262.546 121.373 258.606 124.666 254.996 127.622C252.294 130.86 247.982 132.962 244.909 135.851C241.026 139.499 225.214 149.342 223.411 152.72L223.408 152.714Z" fill="#F6BB92"/>
<path d="M281.628 139.1L281.402 154.517C281.402 154.517 281.38 156.216 279.742 156.502C278.297 156.753 272.519 154.019 272.519 154.019L281.628 139.1Z" fill="#F4BA92"/>
</svg>
