<svg width="501" height="500" viewBox="0 0 501 500" fill="none" xmlns="http://www.w3.org/2000/svg">
<path d="M226.508 155.978C223.789 160.215 222.673 163.79 226.08 169.976C226.781 171.25 229.417 173.751 233.309 174.126C242.704 173.022 250.776 168.03 258.39 160.911C261.829 157.154 261.577 157.466 264.414 154.938C273.434 146.068 282.517 137.27 291.45 128.304C296.925 122.808 300.739 116.259 303.777 109.239C306.599 102.72 319.094 87.4989 321.996 81.0009C323.121 78.482 325.052 76.5989 326.638 74.4429C329.19 70.9735 331.793 67.5431 334.372 64.0917C334.753 63.5819 336.072 62.5834 335.865 62.0136C334.81 59.105 333.559 54.625 331.316 54.1482C330.387 53.9503 329.586 54.1213 328.854 54.4901C324.482 56.6791 320.422 58.6372 316.086 60.9311C313.109 62.5054 312.41 65.8398 310.89 68.4067C304.344 79.4566 292.961 89.7328 286.604 100.879C286.232 101.532 285.833 102.018 285.302 102.657C280.454 108.477 270.444 120.766 264.324 123.584C260.915 126.376 257.193 129.486 253.784 132.277C251.232 135.336 247.16 137.321 244.257 140.05C240.59 143.495 228.215 152.791 226.508 155.981V155.978Z" fill="#DCA782"/>
<path d="M245.969 217.72C232.41 211.348 218.853 204.976 205.293 198.607C203.086 204.115 200.825 209.756 198.27 215.183C196.858 218.182 185.529 233.748 177.79 244.144C174.35 248.765 173.172 252.426 172.32 253.635C180.096 267.338 200.552 264.699 216.364 269.227C221 260.99 224.571 252.225 229.225 243.976C233.897 235.694 239.459 228.035 244.551 220.053C245.04 219.288 245.496 218.503 245.966 217.726L245.969 217.72Z" fill="#F4BA92"/>
<path d="M261.541 186.765C256.902 178.798 251.886 171.053 247.034 163.208C244.782 165.433 243.133 168.252 240.35 169.952C239.273 171.035 238.167 172.054 237.036 173.014L227.021 157.289C213.101 169.934 208.139 184.783 208.139 184.783C205.518 191.917 203.362 199.183 202.019 206.673C215.425 213.357 227.708 219.594 241.118 226.278C241.891 224.929 242.695 223.594 243.429 222.224C245.783 217.822 249.145 214.395 254.458 212.092C264.057 207.933 266.99 196.121 261.541 186.765Z" fill="#8A8AD9"/>
<path d="M234.021 407.595C224.44 407.64 214.86 407.682 205.279 407.73C205.279 410.825 205.489 414.033 206.287 417.02C208.311 424.588 207.621 427.791 215.505 427.821C222.779 427.848 237.11 428.568 244.384 428.55C248.873 428.538 251.893 426.514 252.72 423.032C253.542 419.575 251.77 416.654 247.539 414.498C243.032 412.201 238.528 409.898 234.021 407.598V407.595Z" fill="#F2BA94"/>
<path d="M177.79 244.141L216.7 269.431L272.439 316.941C272.439 316.941 276.802 321.181 276.802 325.421C276.802 329.661 275.179 334.525 274.058 336.27C272.936 338.015 234.014 407.886 234.014 407.886H205.291C205.291 407.886 211.714 365.926 235.445 338.078C235.445 338.078 236.671 337.248 235.799 336.498C234.926 335.748 187.998 307.238 187.998 307.238C187.998 307.238 172.684 298.626 167.697 289.897C162.71 281.168 164.207 269.194 166.201 262.963C168.195 256.729 177.787 244.144 177.787 244.144L177.79 244.141Z" fill="#6A6C65"/>
<path d="M268.201 106.586C267.166 101.593 264.108 98.3815 259.298 96.9932C254.446 95.5928 250.155 96.9092 246.647 100.493C243.918 103.281 241.363 106.238 238.67 109.063C233.705 114.268 227.024 116.526 220.706 119.399C219.374 120.005 218.028 120.574 216.349 121.309C223.992 125.246 231.393 128.617 239.939 128.032C238.032 118.712 243.774 109.06 254.368 106.196C259.007 104.943 263.616 105.569 268.204 106.583L268.201 106.586Z" fill="#7A4922"/>
<path d="M267.779 105.797C262.984 104.385 258.189 103.401 253.478 104.52C242.722 107.072 237.388 117.507 239.925 128.038C240.063 128.125 240.188 128.125 240.308 128.038C241.625 126.431 241.106 124.146 241.484 122.209C243.532 111.657 253.253 106.127 262.918 107.644C264.606 107.908 266.288 108.319 267.977 108.661C268.109 107.716 268.154 106.766 267.782 105.8L267.779 105.797Z" fill="#5C381A"/>
<path d="M283.818 138.341L280.699 144.983L272.084 159.113L265.517 166.004L253.489 160.942L249.067 167.227L228.754 159.413L241.471 143.925L249.774 140.62L260.383 128.101L283.818 138.341Z" fill="#F4BA92"/>
<path d="M283.818 138.341C283.818 138.341 286.628 129.573 284.745 123.6C282.862 117.627 276.721 106.805 260.249 106.622C260.249 106.622 245.307 108.271 240.905 120.125C235.849 133.745 241.475 143.928 241.475 143.928L256.378 141.943L263.943 130.041L274.226 135.631L283.818 138.344V138.341Z" fill="#7A4922"/>
<path d="M261.134 162.816C267.162 156.789 273.189 150.762 279.216 144.734C280.077 143.874 280.94 143.01 281.801 142.149C283.339 140.611 280.952 138.227 279.417 139.766C273.39 145.793 267.363 151.82 261.335 157.847C260.475 158.708 259.611 159.571 258.751 160.432C257.212 161.97 259.599 164.354 261.134 162.816Z" fill="#DCA782"/>
<path d="M225.572 157.637C222.853 161.874 221.413 166.902 224.823 173.089C225.524 174.363 228.979 178.504 236.628 178.504C246.023 177.401 252.398 169.685 260.014 162.569C263.454 158.812 263.202 159.124 266.039 156.596C275.058 147.726 284.141 138.928 293.074 129.962C298.55 124.466 302.364 117.917 305.402 110.897C308.223 104.378 321.39 89.0703 324.293 82.5723C325.417 80.0535 326.677 78.2543 328.263 76.1013C330.815 72.6319 331.319 72.329 333.894 68.8776C334.275 68.3678 337.514 65.5701 336.992 63.4651C336.197 60.2686 335.388 56.7302 332.941 55.8096C332.311 55.5727 331.546 55.6177 330.812 55.9835C326.44 58.1725 322.044 60.2986 317.708 62.5925C314.73 64.1668 314.032 67.5012 312.511 70.0681C305.965 81.118 294.583 91.3942 288.225 102.54C287.854 103.194 287.455 103.68 286.924 104.318C282.075 110.139 272.066 122.427 265.946 125.246C262.536 128.037 258.815 131.147 255.406 133.939C252.854 136.997 248.782 138.982 245.879 141.711C242.212 145.156 227.279 154.452 225.575 157.643L225.572 157.637Z" fill="#F6BB92"/>
<path d="M280.559 144.779L280.346 159.34C280.346 159.34 280.325 160.944 278.778 161.214C277.414 161.451 271.956 158.869 271.956 158.869L280.559 144.779Z" fill="#F4BA92"/>
</svg>
