<svg width="497" height="497" viewBox="0 0 497 497" fill="none" xmlns="http://www.w3.org/2000/svg">
<path d="M457.779 339.971C460.605 333.566 431.967 324.522 424.619 319.247H412.938C355.286 288.348 324.387 287.406 324.387 287.406C290.662 267.435 236.778 233.898 222.27 230.13C207.763 226.362 197.024 254.623 210.212 261.783C223.401 268.942 223.024 272.145 236.589 278.362C250.155 284.391 301.778 305.305 314.024 309.45C315.72 310.015 406.155 333.942 406.155 333.942C406.155 333.942 409.547 335.638 414.445 340.16C421.039 346.377 433.286 351.276 441.011 351.087C447.605 350.711 454.764 346.377 457.779 339.971Z" fill="#ECAD83"/>
<path d="M431.59 325.464C431.59 325.464 439.88 330.175 442.706 325.841C445.155 322.45 445.532 320.943 424.431 318.87C424.619 319.059 423.677 321.696 431.59 325.464Z" fill="#ECAD83"/>
<path d="M191.221 315.381C214.247 312.355 216.89 292.31 239.161 275.857C241.992 273.777 247.843 258.27 246.899 250.895C245.767 242.574 243.124 234.442 235.386 229.147C229.346 225.176 211.605 218.179 170.082 233.118C150.453 238.792 113.649 248.058 79.1097 260.161C46.269 271.508 34.001 283.8 34.001 283.8L56.6497 328.997C127.05 322.756 149.698 310.464 173.102 310.086C173.102 309.897 184.615 316.327 191.221 315.381Z" fill="#FF8AA0"/>
<path d="M243.683 272.533C243.683 272.533 261.162 267.446 276.894 264.432L280.001 239.374C264.27 243.519 243.489 238.997 243.489 238.997C244.848 262.736 235.914 271.968 233.001 277.997L243.683 272.533Z" fill="#ECAD83"/>
<path d="M299.034 291.205C308.034 299.239 317.973 295.413 323.786 292.352C341.6 283.17 344.038 271.884 344.975 257.155C346.288 237.835 296.596 226.932 288.158 228.079C265.843 230.949 255.342 261.364 254.217 273.989C252.904 287.953 257.78 284.701 263.405 284.701C263.593 284.701 264.343 285.466 264.343 285.466C266.218 285.657 268.843 285.657 271.281 287.188C271.281 287.188 272.969 286.805 273.906 286.805C274.469 286.805 274.844 286.805 275.031 287.57C275.594 289.674 276.156 291.587 276.906 292.352C279.157 295.222 294.908 287.57 299.034 291.205Z" fill="#F6BB92"/>
<path d="M269.24 277.997C269.24 277.997 268.355 279.305 268.001 285.473C268.355 286.22 269.063 287.715 270.656 286.594C271.894 285.846 269.417 282.482 269.24 277.997Z" fill="#D6876B"/>
<path d="M269.001 277.997C269.001 277.997 266.482 278.967 265.001 284.98C265.001 285.756 265.594 286.532 265.742 286.726C267.223 287.695 267.816 285.756 267.816 285.756C268.26 279.355 269.001 277.997 269.001 277.997Z" fill="#CC785E"/>
<path d="M347.95 255.664C349.428 231.802 318.568 197.933 277.728 227.569C274.956 229.493 271.63 234.304 276.435 242.001C279.946 247.39 284.566 251.431 284.566 251.431C286.044 252.585 287.522 253.74 289.37 255.087C291.218 256.434 302.675 255.857 302.86 258.166C304.893 281.836 316.165 292.42 322.079 292.997C336.678 291.458 346.472 281.066 347.95 255.664Z" fill="#602F0F"/>
<path d="M290.74 248.775C280.568 251.394 279.841 255.235 280.023 260.997L295.644 258.727L302.001 256.283C301.819 250.521 300.911 246.156 290.74 248.775Z" fill="#F6BB92"/>
<path d="M315.738 217.354C320.601 212.382 331.046 215.512 339.33 224.535C347.614 233.559 350.495 244.792 345.633 249.764C340.771 254.736 332.847 251.053 324.562 242.214C316.458 233.19 311.056 222.51 315.738 217.354Z" fill="#4C230C"/>
<path d="M299.706 260.464C301.59 260.276 303.286 260.276 304.605 260.464C306.489 260.653 307.808 261.03 307.808 261.03L305.924 254.059C304.982 254.059 303.851 253.87 302.909 253.87C302.909 253.87 303.098 254.624 303.474 255.943V255.754C301.967 256.508 299.518 257.638 295.938 258.392C295.938 258.58 293.866 261.03 299.706 260.464Z" fill="#602F0F"/>
<path d="M316.286 212.987C321.561 207.523 333.619 211.292 343.039 221.277C352.46 231.263 355.851 243.886 350.576 249.161C345.3 254.625 336.257 250.292 326.836 240.306C317.416 230.509 311.01 218.451 316.286 212.987Z" fill="#602F0F"/>
<path d="M336.086 218.103C336.676 217.504 339.624 219.5 342.572 222.895C345.521 226.089 347.486 229.284 346.896 229.883C346.307 230.482 343.948 228.685 341 225.291C338.052 222.096 335.497 218.702 336.086 218.103Z" fill="#4C230C"/>
<path d="M34.8365 282.643C28.8156 311.071 36.5299 349.412 74.1605 350.909C106.147 352.218 116.495 338.565 116.495 338.565C116.495 338.565 140.39 285.074 126.843 283.765C115.742 282.643 105.582 281.521 96.7389 280.398C92.7877 279.837 82.6274 280.211 71.5264 280.772C70.0211 280.772 62.3068 265.997 62.3068 265.997C43.4915 273.291 34.8365 282.643 34.8365 282.643Z" fill="#3D3C3C"/>
<path d="M454.874 338.766C452.976 346.408 419.948 342.969 414.443 345.453C411.786 346.599 408.938 350.802 402.295 350.993C393.563 351.184 388.818 344.307 385.781 344.498C370.026 345.644 327.128 344.116 307.956 345.262C303.59 345.453 299.035 345.644 294.289 345.835C275.498 346.026 286.887 307.244 293.72 308.008C321.054 310.492 385.211 324.438 395.082 326.539C395.082 326.539 425.263 327.495 432.476 328.45C436.841 328.45 456.772 331.125 454.874 338.766Z" fill="#ECAD83"/>
<path d="M234.983 339.451C256.452 343.036 276.98 344.922 295.813 345.111C293.741 338.885 294.118 313.229 296.001 307.759C289.221 307.004 237.431 298.326 237.431 298.326C221.046 295.685 124.434 278.33 93.9251 281.348C86.0153 281.914 79.2355 283.046 73.3973 284.367C62.286 286.819 54.1879 343.979 69.2541 346.997C102.588 346.242 175.848 337.376 191.102 336.056C206.357 334.546 234.983 339.451 234.983 339.451Z" fill="#3D3C3C"/>
<path d="M463.805 355.988C467.008 349.77 438.747 339.22 431.776 333.567L420.095 333.002C363.95 299.277 333.239 296.64 333.239 296.64C300.645 274.973 235.833 236.538 221.514 232.016C207.384 227.494 195.137 255.19 207.949 263.103C220.761 271.016 232.819 276.48 246.195 283.263C259.384 290.045 309.877 313.408 322.123 318.118C323.819 318.683 412.935 347.133 412.935 347.133C412.935 347.133 416.327 349.017 420.849 353.727C427.066 360.321 439.124 365.785 446.849 365.973C453.066 366.35 460.602 362.205 463.805 355.988Z" fill="#F6BB92"/>
<path d="M438.371 340.349C438.371 340.349 446.472 345.436 449.487 341.291C452.124 337.9 452.69 336.581 431.588 333.378C431.588 333.566 430.646 336.204 438.371 340.349Z" fill="#F6BB92"/>
</svg>
