<svg width="500" height="500" viewBox="0 0 500 500" fill="none" xmlns="http://www.w3.org/2000/svg">
<path d="M262.976 200.127L264.021 200.386C264.089 200.398 264.153 200.407 264.22 200.419C264.224 200.428 264.233 200.432 264.241 200.441L268.547 201.503C268.547 201.503 268.559 201.491 268.568 201.482C268.809 201.533 269.055 201.579 269.296 201.63C269.317 201.66 269.338 201.681 269.36 201.706L272.928 202.587C273.106 202.617 273.288 202.65 273.466 202.68C273.483 202.697 273.496 202.714 273.512 202.731L277.361 203.679C277.361 203.679 277.369 203.671 277.377 203.662C277.623 203.709 277.869 203.76 278.118 203.806C278.144 203.836 278.169 203.857 278.195 203.882L281.645 204.733C282 204.788 282.36 204.839 282.716 204.894C282.762 204.945 282.809 204.987 282.855 205.034L285.7 205.737C285.7 205.737 298.633 207.273 303.798 206.693C304.12 206.659 304.45 206.613 304.793 206.558C304.826 206.532 304.86 206.515 304.894 206.486C305.216 206.448 305.538 206.405 305.859 206.363C306.909 206.156 308.048 205.885 309.259 205.571C309.267 205.563 309.276 205.555 309.28 205.546C309.348 205.533 309.42 205.525 309.487 205.512C314.165 204.301 319.906 202.536 325.951 201.698C334.765 200.475 332.91 201.253 337.753 201.698C342.596 202.142 346.656 205.474 349.802 210.563C349.814 210.584 349.827 210.605 349.84 210.626C350 210.884 350.153 211.151 350.301 211.418C350.322 211.456 350.348 211.498 350.369 211.536C350.445 211.667 350.525 211.794 350.597 211.93C350.606 211.96 350.614 211.989 350.623 212.019C351.258 213.242 351.749 214.47 352.126 215.681C352.172 215.731 352.206 215.787 352.257 215.837C352.282 216.015 352.308 216.189 352.333 216.366C353.192 219.47 353.319 222.412 353.214 224.787C353.04 228.614 348.688 236.733 348.688 236.733C353.374 240.061 355.656 251.063 356.359 255.174C356.393 255.19 356.422 255.212 356.461 255.229C356.507 255.487 356.558 255.749 356.604 256.007C356.579 256.05 356.545 256.092 356.516 256.135C356.575 256.52 356.604 256.74 356.604 256.74L356.41 256.676C356.393 257.091 356.232 257.371 355.627 257.354C354.458 257.316 353.286 257.303 352.113 257.299C349.09 257.286 346.144 256.875 343.329 255.698C342.186 255.22 340.983 254.873 339.807 254.479C337.169 253.599 334.528 252.761 331.979 251.613C329.846 250.652 327.661 249.797 325.464 248.997C319.279 246.741 313.073 244.548 306.884 242.304C305.165 241.682 303.48 240.979 301.783 240.293C301.097 240.018 299.298 240.264 298.997 239.519C299.454 239.286 300.102 238.909 300.754 238.486L285.497 233.499C285.048 233.516 284.633 233.617 284.35 234.045C284.134 234.015 283.905 234.015 283.706 233.943C280.62 232.838 277.543 231.712 274.452 230.62C273.542 230.298 272.763 229.807 272.103 229.117L271.269 226.941C271.269 226.941 271.239 226.929 271.222 226.924C271.197 226.823 271.171 226.721 271.146 226.624C271.146 226.624 270.867 225.921 270.405 224.749C270.388 224.74 270.376 224.732 270.354 224.719C270.321 224.6 270.287 224.486 270.253 224.367C269.978 223.669 269.647 222.835 269.283 221.904C269.283 221.904 269.279 221.904 269.275 221.899C269.275 221.887 269.266 221.87 269.262 221.857C266.815 215.63 262.722 205.131 261.613 201.85C261.583 201.838 261.557 201.825 261.528 201.817C261.473 201.554 261.418 201.292 261.359 201.029C261.346 200.983 261.337 200.944 261.333 200.915C261.096 199.37 262.963 200.123 262.963 200.123L262.976 200.127Z" fill="#794720"/>
<path d="M298.599 239.93C298.985 239.947 299.78 238.906 300.161 238.922C301.216 238.385 302.13 237.682 302.955 236.823C304.632 235.079 306.397 233.419 308.074 231.675C309.962 229.711 312.18 228.166 314.415 226.65C315.427 225.964 316.621 225.579 317.709 225.037C319.449 224.174 321.404 224.275 323.136 223.492C323.572 223.293 324.143 223.369 324.656 223.365C325.828 223.348 327.001 223.365 328.174 223.361C329.35 223.352 330.51 223.327 331.581 223.979C331.933 224.19 332.428 224.157 332.851 224.258C333.419 224.394 334.032 224.457 334.532 224.724C335.937 225.473 337.521 225.837 338.842 226.769C340.996 228.288 343.113 229.876 344.688 232.009C345.344 232.898 346.195 233.605 346.771 234.545C346.944 234.825 347.279 234.799 347.554 234.647C347.791 234.516 347.774 234.274 347.681 234.075C346.313 231.243 344.548 228.648 342.795 226.049C342.431 225.511 341.928 225.05 341.415 224.635C340.171 223.623 338.947 222.561 337.601 221.706C335.692 220.495 333.605 219.623 331.425 218.996C331.145 218.916 327.627 218.069 326.091 218.073C324.918 218.073 323.745 218.086 322.573 218.073C321.684 218.061 313.23 220.787 309.869 223.238C308.556 224.199 307.379 225.278 306.274 226.447C304.01 228.847 301.52 230.998 299.069 233.195C298.684 233.542 298.316 233.914 297.753 233.91C296.728 233.906 295.653 234.071 294.688 233.826C293.375 233.491 292.08 233.517 290.768 233.504C289.083 233.487 287.394 233.504 285.709 233.5C285.18 233.5 284.68 233.559 284.354 234.05C286.937 235.278 289.697 236.031 292.359 237.051C293.655 237.547 294.993 237.932 296.309 238.368C296.453 238.427 296.601 238.486 296.745 238.55" fill="#603818"/>
<path d="M86.7928 235.167C86.052 235.54 85.1756 235.764 84.5957 236.306C79.4141 241.149 74.0632 245.835 69.1736 250.962C51.999 268.979 50.8221 294.506 65.3594 314.716C76.4127 330.074 90.7891 336.721 109.742 336.412C146.75 335.806 182.813 329.6 218.141 319.283C231.776 315.3 243.791 315.148 256.563 322.027C266.828 327.555 277.882 331.89 289.502 334.312C302.85 337.093 316.337 336.052 329.787 336.124C315.177 322.073 300.259 308.328 286.073 293.862C277.556 285.18 268.145 278.449 256.673 274.554C251.415 275.617 246.072 276.065 240.734 276.247C222.865 276.848 205.83 272.662 189.083 266.959C173.839 266.079 158.595 265.181 143.346 264.335C141.174 264.212 139.714 263.065 138.27 261.617C129.964 253.273 120.38 246.902 109.217 243.007C101.745 240.399 94.2731 237.783 86.797 235.171L86.7928 235.167Z" fill="#6A6D66"/>
<path d="M256.668 274.559C268.141 278.453 277.551 285.184 286.069 293.867C300.255 308.328 315.173 322.078 329.782 336.128C332.75 337.5 335.925 336.899 338.93 336.704C360.017 335.341 381.133 335.853 402.202 336.34C413.789 336.607 423.966 334.782 432.818 327.166C433.029 326.984 433.275 326.819 433.533 326.713C438.863 324.576 441.614 320.88 441.995 314.911C442.402 308.59 443.668 302.325 444.599 296.043C444.997 293.338 444.379 291.649 441.17 291.661C439.506 291.67 437.838 291.132 436.175 290.84C433.215 290.434 430.718 291.268 428.529 293.35C424.571 297.114 420.511 300.776 416.498 304.48C415.228 305.89 413.56 305.229 412.1 305.191C393.701 304.73 375.303 303.934 356.905 303.841C350.974 303.811 346.5 302.202 342.927 297.668C336.014 291.873 329.24 285.9 322.133 280.363C318.454 277.492 316.583 273.902 315.101 269.669C310.546 256.673 304.56 244.349 296.86 232.898C295.839 231.379 294.561 229.973 294.866 227.924C288.592 226.641 283.821 222.4 278.457 219.394C262.921 210.69 247.583 201.639 232.153 192.745C231.556 192.402 230.845 192.262 230.189 192.025C228.69 194.104 227.517 196.352 226.624 198.748C219.669 217.396 223.026 234.837 232.796 251.521C238.6 261.427 247.266 268.374 256.672 274.546L256.668 274.559Z" fill="#F6BB92"/>
<path d="M86.7925 235.167C94.2644 237.779 101.736 240.395 109.212 243.003C120.376 246.898 129.96 253.269 138.266 261.613C139.709 263.061 141.17 264.212 143.342 264.331C158.59 265.177 173.834 266.075 189.079 266.959C189.189 240.78 188.266 214.563 192.385 188.554C175.904 190.67 159.995 194.963 144.497 200.907C123.949 208.789 105.716 220.651 88.0498 233.512C87.5122 233.901 87.2074 234.608 86.7925 235.167Z" fill="#F6BB92"/>
<path d="M192.385 188.558C188.266 214.568 189.193 240.789 189.078 266.964C205.826 272.666 222.86 276.857 240.729 276.252C246.068 276.07 251.406 275.625 256.668 274.558C247.261 268.382 238.596 261.435 232.792 251.533C223.017 234.849 219.664 217.408 226.62 198.76C227.513 196.36 228.686 194.112 230.184 192.038C217.924 187.186 205.364 185.628 192.385 188.558Z" fill="#8A8AD9"/>
<path d="M294.857 227.932C294.557 229.977 295.831 231.387 296.851 232.906C304.552 244.357 310.538 256.681 315.093 269.677C316.579 273.91 318.446 277.505 322.124 280.371C329.232 285.912 336.006 291.885 342.919 297.676C345.666 293.938 348.418 290.196 351.165 286.458C360.517 269.194 360.131 252.414 348.756 236.124C347.69 234.595 343.956 231.264 343.135 230.54C338.656 226.582 333.296 224.317 327.666 222.59C317.552 220.21 308.146 223.026 298.833 226.527C297.516 227.022 296.183 227.466 294.853 227.936L294.857 227.932Z" fill="#794720"/>
<path d="M437.749 284.918C443.333 272.539 442.185 260.487 436.013 248.672C433.99 244.798 430.04 242.58 425.904 243.232C421.582 243.918 418.136 246.462 417.708 250.708C416.57 261.939 410.698 270.791 404.53 279.609C404.212 280.066 403.988 280.587 403.721 281.078C406.888 286.886 410.054 292.699 413.217 298.507C415.791 298.892 417.78 298.033 419.529 296.047C421.658 293.626 424.249 291.598 426.302 289.121C429.371 285.426 432.682 282.924 437.749 284.918Z" fill="#F6BB92"/>
<path d="M413.221 298.506C410.055 292.698 406.888 286.89 403.726 281.077C386.437 285.103 368.996 287.652 351.173 286.453C348.426 290.196 345.678 293.934 342.927 297.672C346.496 302.21 350.97 303.814 356.901 303.844C375.303 303.933 393.697 304.733 412.095 305.194C413.56 305.233 415.224 305.893 416.498 304.483C415.406 302.489 414.314 300.5 413.221 298.506Z" fill="#6A6D66"/>
<path d="M413.221 298.507C414.313 300.501 415.405 302.491 416.498 304.484C420.515 300.78 424.571 297.118 428.529 293.355C430.722 291.272 433.219 290.438 436.174 290.845C436.699 288.868 437.224 286.895 437.749 284.918C432.682 282.928 429.371 285.43 426.302 289.122C424.245 291.598 421.658 293.626 419.529 296.047C417.78 298.037 415.791 298.892 413.217 298.507H413.221Z" fill="#DEA882"/>
<path d="M312.701 271.193C311.715 268.018 310.153 264.97 308.612 262.04C304.141 253.556 298.557 245.666 292.428 238.312C287.208 232.055 281.556 226.179 275.613 220.608C274.419 219.487 276.218 217.696 277.408 218.813C291.979 232.474 306 248.587 313.874 267.196C314.335 268.284 314.801 269.389 315.152 270.519C315.639 272.086 313.188 272.755 312.701 271.197V271.193Z" fill="#DEA882"/>
</svg>
