<?xml version="1.0" encoding="UTF-8"?>
<svg xmlns="http://www.w3.org/2000/svg" version="1.1" viewBox="0 0 1417.3 1417.3">
  <defs>
    <style>
      .cls-1 {
        fill: #884100;
      }

      .cls-2 {
        fill: #ffb58a;
      }

      .cls-3 {
        fill: #696d65;
      }

      .cls-4 {
        fill: #8a4201;
      }

      .cls-5 {
        fill: #8989de;
      }

      .cls-6 {
        fill: #ffb68a;
      }

      .cls-7 {
        fill: #5e3816;
      }

      .cls-8 {
        fill: #894100;
      }

      .cls-9 {
        fill: #e7a47c;
      }
    </style>
  </defs>
  <!-- Generator: Adobe Illustrator 28.7.1, SVG Export Plug-In . SVG Version: 1.2.0 Build 142)  -->
  <g>
    <g id="_레이어_1" data-name="레이어_1">
      <g>
        <path class="cls-3" d="M1080.5,725c3.3.5,5.8,2.5,8.1,4.8,7.5,7.7,14,16.2,19.6,25.4,10.3,16.7,17.2,34.6,20.5,53.9,4.1,23.9,2.4,47.3-7.5,69.6-14.2,31.9-38.6,51.4-73,58.2-9.3,1.8-18.7,2.1-28.2,1.6-4.6-.3-9.3,0-13.9-.7-6.2-.9-12.3-1.7-18.5-2.6-1.1-.2-2.2-.4-3.3-.4-12.2-.3-24.2-2.3-36.2-4.1-5.1-.8-10.1-1.4-15.2-1.7-8.5-.5-16.9-1.5-25.3-2.3-4.5-.4-8.9-.8-13.4-1.2-12.1-1.2-24.2-2.6-36.2-3.7-12.1-1.2-24.2-2.1-36.3-3.2-12.1-1.1-24.2-2.3-36.3-3.4-8-.7-15.9-1.4-23.9-2.2-6.8-.7-13.6-1.6-20.5-2.6-3.1-.4-5.8-.3-8.6,1.5-10.4,6.7-21.9,11.2-33.8,14.4-9.7,2.6-19.2,6-29.1,8-12.4,2.5-24.7,5.5-37.1,7.7-10.1,1.8-20.3,2.9-30.5,3.6-18.2,1.3-36.4,1.2-54.7.8-12.1-.3-24.3-1.2-36.4-2.4-9.2-1-18.5-1.5-27.7-2.2-12-.9-23.9-1.7-35.9-2.6-6.4-.5-12.8-.9-19.1-1.4-8.9-.7-17.8-1.5-26.8-2.2-6.1-.5-12.1-1-18.2-1.6-4.1-.4-8.3-1-12.2-2.5.8-2.6,2.1-4.9,2.5-7.6,1.3-9,2.7-17.9,4.1-26.9,1.1-7.2,2.1-14.5,3.2-21.7,1.3-8.5,2.6-17,2.7-25.6,2.6-1.5,5.4-1.9,8.3-1.9,5.6,0,11.1-.8,16.7-1.5,12.4-1.4,24.7-3,37.1-4.5,7.1-.9,14.2-1.8,21.4-2.7,4.4-.4,8.8-.7,13.2-1.2,4.9-.5,9.7-1.2,14.6-1.8,5.7-.6,11.4-1.1,17.1-2,3.3-.5,6.7-.7,10-1.1,6.8-.9,13.6-1.7,20.4-2.5,6.8-.8,13.6-1.4,20.4-2.2,6.6-.8,13.3-1.7,19.9-2.5,7-.8,14-1.3,20.9-2.2,3.2-.4,6.3-.8,9.5-1,.6,0,1.1-.5,1.7-.7,4,.3,7.9-.5,11.9-.9,14-1.4,27.9-2.7,41.9-4.2,4.7-.5,9.5-.7,14.2-1.8,7.3-.9,14.5-1.8,21.8-2.7,2.2-.3,4.4-.8,6.6-.8,7.2,0,14.3-1.3,21.4-2.3,10.7-1.5,21.4-3.5,32-5.3,2.5-.4,5-.8,7.6-1.1,3.6-.4,7.3-.6,10.9-1.2,6.9-1,13.8-2.1,20.8-2.9,7.6-.9,15.1-2.2,22.8-2.9,3-.3,6-.6,9-1.1,5.7-.8,11.3-1.7,17-2.5,5.5-.8,11-1.6,16.5-2.5,5-.8,10.1-1.5,15.1-2.3,6.6-1.1,13.2-2.1,19.8-3.4,1.6-.3,3.1-.4,4.7-.5.3,0,.6.1,1,.1,8.3-.4,16.6.7,24.8,1,4.6.1,9.2.7,13.8,1.1,6.2.5,12.4,1.1,18.6,1.6,5.7.5,11.5.5,17.2,1.3,4.9.7,9.9.3,14.7,1.4,1.9.4,3.4-.4,4.8-1.6,2.9-2.5,5.7-5.1,8.6-7.6,5.8-5,11.5-10.1,17.3-15.1,8.1-7,16.2-13.9,24.4-20.8,6.3-5.4,12.6-10.8,19.2-15.8,2.2-1.6,4.5-3,7.1-3.8Z"/>
        <path class="cls-6" d="M383.6,849.5c0,8.6-1.4,17.1-2.7,25.6-1.1,7.2-2.1,14.5-3.2,21.7-1.3,9-2.7,17.9-4.1,26.9-.4,2.7-1.7,5.1-2.5,7.6-4.2.9-8.5,1.2-12.7,1.7-7.2.9-14.3.5-21.5.8-7.6.3-14-2.3-19.7-7.2-.2-.2-.4-.5-.7-.6-3.7-2.2-5.2-5.8-7-9.4-2.6-5.3-3.3-10.8-3.1-16.7.2-9.7-.1-19.5.1-29.2.2-9.6-.8-19.1-.7-28.7,0-1.7-.2-3.5.4-5.2,3.7,2.1,4.1,2.3,8.1,1.9,3.3-.3,6.7-.5,9.9-1.3,4.1-.9,8.3-.3,12.3-1.6,7.7.6,15.3-.8,22.9-1,1.7,0,3.1-.5,4.5-1.4,1.2-.8,1.4-2.2.7-3.4-2-3.1-4.9-3.5-8-2.7-2.4.6-4.7.7-7.1.7-1.1,0-2.3-.2-3.3.2-2.5.9-5,.7-7.6.8-1.1,0-2.3-.1-3.3.3-2.2.8-4.4.7-6.6.7-5.1,0-10.2,0-15.4,0-2.2,0-4.1.2-5.1,2.6-.3.8-1.1,1.1-1.9,1.3-.1-.8-.4-1.6-.4-2.3,0-1.5-.7-2.3-1.9-3.1-2.6-1.6-5-3.5-7.6-5-5-3-7.1-7.6-7-13.3,0-7.3-.9-14.6-1.3-22-.3-5.4-.1-10.9-.9-16.2-.8-5.3-.7-10.5-.8-15.7,0-1.3,0-2.5.5-3.8,1.8-5.2,1.9-5.2,7.2-7.4,1.6-.7,3.4-1.1,4.9-2,3.3-1.9,6.7-1.8,10.2-1.1,5.4,1,10.3,3.4,15.2,5.7,7.5,3.5,15,7.2,22.2,11.3,2,1.1,4.1,1.7,6.2,2.4,1.1.4,2.2.1,3.3-.1,8.7-1.9,17.5-3.6,26.1-5.6,12.1-2.7,24.2-5.6,36.3-8.4,1.5-.4,3.2-.6,4.4-1.8,1.9.4,3.8-.1,5.6-.6,19.8-4.7,39.7-9.4,59.5-14.1,4.4-1,8.6-2.3,12.7-4.1,19.4-8.8,38.9-17.6,58.4-26.4,1-.5,2.1-.7,2.9-1.7,2.4-.6,4.6-1.7,6.8-2.9,9-3.3,17.6-7.6,26.2-11.8,2-1,2.5-2.8,2.8-4.7,1.7,2.3,1.8,2.4,3.7,1.5,2.6-1.2,5.1-2.6,7.8-3.7,14.5-6.2,29.3-11.7,44.5-16.1,11.3-3.3,22.6-5.2,34.4-4.7,6.6.3,12.8,2.4,19.3,3.3.5,0,.9.4,1.3.6,5.3,2.3,10.3,5.1,14.2,9.6,1.7,1.9,3.6,3.7,5.2,5.6,2.7,3.2,5.4,6.4,7.2,10.1,4.9,10.4,8.1,21.1,7.2,32.8-.3,4.4-1.5,8.4-3.7,12.2-4.6,8.1-10.5,15.2-17.9,20.9-8.1,6.2-16.7,11.1-26.7,13.5-6.2,1.5-12.4,2.8-18.6,4.5-6.9,2-13.7,4.1-20.8,5.6-7,1.5-13.9,3.7-21,4.5-1.8.2-3.9.3-5.4,1.7-1.9,1.3-3.9,2.7-5.9,4-.1-.8-.1-1.6-.4-2.4-.5-1.2-1.5-1.9-2.6-1.5-3.8,1.3-7.9.5-11.8,1.5-1.9.5-4,1-6.1,1.1-3.3.3-6.6.6-9.9,1.1-5.5.8-10.9,2.1-16.4,2.6-5.4.5-10.6,1.8-16,2.3-5.5.5-10.9,1.9-16.4,2.6-6.3.7-12.5,1.9-18.8,2.8-2.2.3-4.4,1-6.6,1-3.9.2-7.5,1.2-11.2,2-.4-.8-1.1-1.2-1.9-1.1-2.2.2-4.4.4-6.6.7-5.3,1-10.6,2.3-15.9,3-6.5.8-12.8,2.4-19.1,3.9-9,2.1-17.9,4.4-27,6-1.7.3-3.4.7-5.1,1-7.3,1.3-14.7,2.5-22,4-9,1.8-18,3.9-27,6-4.6,1.1-9.3,2.2-13.9,3.4-1.3.3-1.6.9-.9,2.1,3.6,6.2,7.2,12.4,11.5,18.1.7.9,1.5,1.6,2.3,2.4.8.8,1.8,1.2,3,1.4Z"/>
        <path class="cls-5" d="M628.4,781.4c1.5-1.4,3.6-1.5,5.4-1.7,7.2-.8,14-3,21-4.5,7-1.5,13.9-3.6,20.8-5.6,6.1-1.8,12.4-3,18.6-4.5,9.9-2.4,18.6-7.2,26.7-13.5,7.5-5.8,13.3-12.8,17.9-20.9,2.2-3.8,3.3-7.8,3.7-12.2.9-11.7-2.3-22.4-7.2-32.8-1.8-3.8-4.5-7-7.2-10.1-1.7-1.9-3.6-3.7-5.2-5.6-3.9-4.5-8.9-7.3-14.2-9.6-.4-.2-.9-.5-1.3-.6-6.4-1-12.7-3-19.3-3.3-11.8-.6-23.2,1.3-34.4,4.7-15.2,4.5-30,9.9-44.5,16.1-2.6,1.1-5.2,2.5-7.8,3.7-1.9.9-2,.9-3.7-1.5.7-2.7,1.3-5.5,2-8.3,1.3-1,2-2.4,2.8-3.8,1.1-1.9,2.3-3.9,3.7-5.6,5.1-5.7,10.5-11.2,16.8-15.6,11.7-8.2,24.9-13.1,38.3-17.3,9.9-3.1,20.1-5.1,30.4-6.6,7.6-1.1,15.2-1.5,22.9-2.4,5.1-.6,10.2-.6,15.3-.7,5.3,0,10.5.6,15.7,1.5,7.4,1.2,14.8,2.2,22.3,3.3,7.9,1.2,15.8,2.3,23.7,3.4,5.8.8,11.7,1.6,17.6,2.3,6.5.8,12.9,1.9,19.3,3.3,12.7,2.7,25,6.4,37.6,9.7,19.2,4.9,38.4,9.9,57.5,14.9,4.1,1.1,8.4,1.8,12.3,3.8-1.4,5.9-2.7,11.8-4.1,17.7-2.3,10.3-4.6,20.5-6.9,30.8-3.8,16.8-7.5,33.6-11.2,50.4-1.7,7.6-4,15.1-4.7,22.9-1.6,0-3.1.2-4.7.5-6.6,1.3-13.2,2.3-19.8,3.4-5,.8-10.1,1.6-15.1,2.3-5.5.8-11,1.6-16.5,2.5-5.7.8-11.3,1.7-17,2.5-3,.4-6,.8-9,1.1-7.6.7-15.2,2-22.8,2.9-7,.8-13.9,1.9-20.8,2.9-3.6.5-7.3.7-10.9,1.2-2.5.3-5.1.7-7.6,1.1-10.7,1.8-21.3,3.8-32,5.3-7.1,1-14.2,2.3-21.4,2.3-2.2,0-4.4.6-6.6.8-7.3.9-14.5,1.8-21.8,2.7-1.1-1.6-2.9-2-4.4-2.8-8.6-4.7-17.3-9.4-26-14.2-8.5-4.7-16.7-10-24.1-16.3Z"/>
        <path class="cls-6" d="M908.9,783.2c.8-7.8,3.1-15.3,4.7-22.9,3.7-16.8,7.4-33.6,11.2-50.4,2.3-10.3,4.6-20.5,6.9-30.8,1.3-5.9,2.7-11.8,4.1-17.7,3.9,0,7.6,1.3,11.1,2.6,6.9,2.5,13.9,4.8,20.9,6.7,9.4,2.6,18.5,6,27.5,9.7,4.3,1.7,8.5,3.5,12.8,5.3,13.3,5.5,26.1,11.9,38.5,19.2,1.8,1.1,3.9,1.4,5.7,2.4,4.7,2.4,9.5,4.5,14.1,7.2,4.3,2.5,8.2,5.5,12.3,8.3.7.5,1.2,1.5,1.8,2.2-2.6.8-4.9,2.1-7.1,3.8-6.7,5-12.9,10.4-19.2,15.8-8.2,6.9-16.3,13.8-24.4,20.8-5.8,5-11.6,10-17.3,15.1-2.9,2.5-5.8,5-8.6,7.6-1.4,1.2-2.9,2.1-4.8,1.6-4.9-1.1-9.8-.6-14.7-1.4-5.7-.8-11.4-.8-17.2-1.3-6.2-.5-12.4-1.1-18.6-1.6-4.6-.4-9.2-.9-13.8-1.1-8.3-.2-16.5-1.4-24.8-1-.3,0-.6,0-1-.1Z"/>
        <path class="cls-8" d="M599.7,671.1c-.7,2.8-1.3,5.5-2,8.3-.3,1.9-.8,3.7-2.8,4.7-8.6,4.2-17.2,8.4-26.2,11.8,0-1.2-.6-2.2-1.6-2.8-3.9-2.8-7.6-5.8-11.8-8.1-6.6-3.5-13.4-6.8-20.6-8.9-6.4-1.8-12.9-3.3-19.7-3.2-3,0-6.1.2-9.1,0-4.3-.3-8.6.3-12.8,1.2-10,2.1-19.6,5.4-28.5,10.6-10.9,6.3-20.5,14-28.2,24-1.2,1.5-2.6,2.8-3.6,4.5-.4.7-1.2,1-2,1.1-2.4-7.9-2.8-16.1-1.7-24.2,2.9-22.9,14.9-39.7,34.9-51,3.9-2.2,8-3.9,12.2-5.6,7.4-2.9,15-4.2,23-3.6,15,1.1,29.9,3,44.4,7.4,8.8,2.7,17,6.3,24.8,11.3,10.9,7.1,21.4,14.6,31.5,22.7Z"/>
        <path class="cls-1" d="M562,698.8c-.7,1-1.9,1.2-2.9,1.7-19.4,8.8-38.9,17.6-58.4,26.4-4.1,1.9-8.4,3.1-12.7,4.1-19.8,4.7-39.7,9.4-59.5,14.1-1.9.4-3.7,1-5.6.6,1.7-7,4.7-13.4,8.3-19.6.8-1.3,1.9-2.6,1.7-4.3,1.9-.4,2.8-2,3.7-3.5,2.5-4.3,4.9-8.6,8.8-11.8,4.2-3.4,8.2-7.1,12.7-10.1,4.1-2.7,8.2-5.6,12.7-7.6,5.4-2.4,10.9-4.5,16.6-5.9,5.2-1.3,10.5-2.6,16-2.3,2.6.2,5.1-1.3,7.5-.7,2.7.6,5.4.7,8.1.7,1.1,0,2.3,0,3.3.1,6.7,1.5,13.3,2.7,19.7,5.4,6.7,2.8,12.6,6.8,18.5,10.8.6.4,1,1.2,1.5,1.9Z"/>
        <path class="cls-7" d="M562,698.8c-.5-.6-.8-1.4-1.5-1.9-5.9-4.1-11.8-8-18.5-10.8-6.4-2.7-13.1-3.9-19.7-5.4-1.1-.2-2.2-.1-3.3-.1-2.7,0-5.4,0-8.1-.7-2.5-.6-4.9.9-7.5.7-5.5-.3-10.7,1-16,2.3-5.7,1.4-11.2,3.5-16.6,5.9-4.5,2-8.6,4.9-12.7,7.6-4.5,3-8.5,6.7-12.7,10.1-3.9,3.2-6.4,7.5-8.8,11.8-.9,1.6-1.7,3.1-3.7,3.5-1.1-2.4-1.9-5-2.1-7.7.8-.1,1.6-.4,2-1.1.9-1.7,2.4-3,3.6-4.5,7.7-10.1,17.3-17.7,28.2-24,8.9-5.2,18.5-8.5,28.5-10.6,4.2-.9,8.5-1.5,12.8-1.2,3,.2,6.1,0,9.1,0,6.7,0,13.2,1.4,19.7,3.2,7.3,2,14,5.3,20.6,8.9,4.2,2.3,7.9,5.3,11.8,8.1.9.7,1.5,1.6,1.6,2.8-2.1,1.3-4.3,2.4-6.8,2.9Z"/>
        <path class="cls-9" d="M306.3,834.1c.8-.2,1.6-.6,1.9-1.3,1-2.3,2.9-2.6,5.1-2.6,5.1,0,10.2,0,15.4,0,2.2,0,4.4.1,6.6-.7,1-.4,2.2-.2,3.3-.3,2.5,0,5.1.1,7.6-.8,1-.4,2.2-.2,3.3-.2,2.4,0,4.7,0,7.1-.7,3.1-.8,6.1-.4,8,2.7.7,1.1.5,2.6-.7,3.4-1.4.9-2.8,1.4-4.5,1.4-7.6.1-15.2,1.5-22.9,1-4,1.3-8.2.6-12.3,1.6-3.2.7-6.6,1-9.9,1.3-4,.3-4.4.2-8.1-1.9-.4-.9-.4-1.8,0-2.8Z"/>
        <path class="cls-2" d="M614.8,821.6c-.6.2-1.1.7-1.7.7-3.2.2-6.3.6-9.5,1-7,.9-14,1.4-20.9,2.2-6.6.8-13.3,1.7-19.9,2.5-6.8.8-13.6,1.5-20.4,2.2-6.8.8-13.6,1.6-20.4,2.5-3.3.4-6.7.6-10,1.1-5.7.9-11.4,1.4-17.1,2,.2-3.4,1.8-6.4,2.8-9.5,2.4-8,5.1-16,7.6-23.9.5,0,1.1,0,1.4.3,2,1.8,4.4,1.9,6.8,1.6,3-.3,6-.9,8.9-1.3,3.3-.5,6.6-1,9.9-1.5,3.8-.6,7.5-1.1,11.3-1.7,4.7-.7,9.4-1.5,14.1-2.1,3.3-.5,6.6-.7,9.9-1.2,5.5-.8,10.9-2,16.4-2.6,2.4-.3,4.6-1,7.1-1.1,3.2-.2,6.3-.7,9.5-1.1,3.6-.5,7.2-1.3,10.8-1.7,2.2-.3,4.3-1.5,6.6-.8-1.3,1.2-2.5,2.4-3.9,3.5-1.2,1-2.5,2-3.7,3-1.4,1.3-1.4,1.6-.6,3.3,1.2,2.3,2.4,4.5,3.4,6.8,2.3,5.1,3.3,10.3,1.7,15.8Z"/>
        <path class="cls-4" d="M467.1,838.8c-1.1-1.3-2.6-1.7-4-2.5-10.1-5.4-18.6-12.9-25.5-22-.8-1-1.6-2-1.8-3.3,9.1-1.6,18-3.9,27-6,6.3-1.5,12.6-3.1,19.1-3.9,5.4-.6,10.6-2,15.9-3,2.2-.4,4.4-.5,6.6-.7.9,0,1.5.3,1.9,1.1-.8,1.1-1.2,2.4-1.1,3.8-2.5,8-5.2,15.9-7.6,23.9-1,3.2-2.5,6.1-2.8,9.5-4.9.6-9.7,1.3-14.6,1.8-4.4.5-8.8.8-13.2,1.2Z"/>
        <path class="cls-9" d="M622.6,785.3c-1.1,1.8-2.7,3-4.7,3.7-2.3-.7-4.4.6-6.6.8-3.6.4-7.2,1.2-10.8,1.7-3.1.5-6.3.9-9.5,1.1-2.4.1-4.7.9-7.1,1.1-5.5.6-11,1.8-16.4,2.6-3.3.5-6.6.7-9.9,1.2-4.7.6-9.4,1.4-14.1,2.1-3.8.6-7.5,1.1-11.3,1.7-3.3.5-6.6,1-9.9,1.5-3,.5-6,1-8.9,1.3-2.4.3-4.8.2-6.8-1.6-.3-.3-.9-.2-1.4-.3,0-1.4.3-2.7,1.1-3.8,3.7-.7,7.4-1.8,11.2-2,2.2,0,4.4-.7,6.6-1,6.3-.9,12.5-2.1,18.8-2.8,5.5-.6,10.9-2.1,16.4-2.6,5.4-.5,10.6-1.8,16-2.3,5.5-.5,10.9-1.8,16.4-2.6,3.3-.5,6.6-.9,9.9-1.1,2.1-.2,4.1-.7,6.1-1.1,3.9-1,8-.2,11.8-1.5,1.1-.4,2.2.3,2.6,1.5.3.7.3,1.6.4,2.4Z"/>
      </g>
    </g>
  </g>
</svg>