<svg width="500" height="500" viewBox="0 0 500 500" fill="none" xmlns="http://www.w3.org/2000/svg">
<path d="M82.5856 257.131C81.1004 257.356 79.9752 258.256 78.94 259.291C75.5643 262.757 72.6387 266.583 70.1183 270.724C65.4824 278.24 62.3768 286.297 60.8915 294.983C59.0461 305.74 59.8113 316.272 64.2671 326.309C70.6584 340.667 81.6405 349.444 97.1235 352.504C101.309 353.315 105.54 353.45 109.816 353.224C111.886 353.089 114.002 353.224 116.072 352.909C118.863 352.504 121.608 352.144 124.399 351.739C124.894 351.649 125.389 351.559 125.884 351.559C131.375 351.424 136.776 350.524 142.177 349.714C144.473 349.354 146.723 349.084 149.019 348.949C152.844 348.724 156.625 348.274 160.406 347.913C162.431 347.733 164.411 347.553 166.437 347.373C171.883 346.833 177.329 346.203 182.73 345.708C188.176 345.168 193.622 344.763 199.068 344.268C204.514 343.773 209.96 343.233 215.406 342.737C219.007 342.422 222.563 342.107 226.163 341.747C229.224 341.432 232.285 341.027 235.39 340.577C236.786 340.397 238.001 340.442 239.261 341.252C243.942 344.268 249.118 346.293 254.474 347.733C258.84 348.904 263.116 350.434 267.571 351.334C273.153 352.459 278.689 353.81 284.27 354.8C288.816 355.61 293.406 356.105 297.997 356.42C306.189 357.005 314.381 356.96 322.617 356.78C328.063 356.645 333.554 356.24 339 355.7C343.141 355.25 347.327 355.025 351.468 354.71C356.869 354.305 362.225 353.945 367.626 353.54C370.506 353.315 373.387 353.134 376.223 352.909C380.228 352.594 384.234 352.234 388.285 351.919C391.03 351.694 393.731 351.469 396.476 351.199C398.322 351.019 400.212 350.749 401.968 350.074C401.607 348.904 401.022 347.868 400.842 346.653C400.257 342.602 399.627 338.597 398.997 334.546C398.502 331.305 398.052 328.02 397.557 324.779C396.972 320.953 396.386 317.127 396.341 313.257C395.171 312.582 393.911 312.402 392.606 312.402C390.085 312.402 387.61 312.042 385.089 311.726C379.508 311.096 373.972 310.376 368.391 309.701C365.195 309.296 362 308.891 358.759 308.486C356.779 308.306 354.798 308.171 352.818 307.946C350.613 307.721 348.452 307.406 346.247 307.136C343.681 306.865 341.116 306.64 338.55 306.235C337.065 306.01 335.535 305.92 334.049 305.74C330.989 305.335 327.928 304.975 324.868 304.615C321.807 304.255 318.746 303.985 315.686 303.625C312.715 303.265 309.7 302.86 306.729 302.5C303.578 302.14 300.428 301.915 297.322 301.509C295.882 301.329 294.487 301.149 293.046 301.059C292.776 301.059 292.551 300.834 292.281 300.744C290.481 300.879 288.726 300.519 286.925 300.339C280.624 299.709 274.368 299.124 268.067 298.449C265.951 298.224 263.791 298.134 261.675 297.639C258.39 297.234 255.149 296.829 251.863 296.423C250.873 296.288 249.883 296.063 248.893 296.063C245.652 296.063 242.457 295.478 239.261 295.028C234.445 294.353 229.629 293.453 224.858 292.643C223.733 292.463 222.608 292.283 221.438 292.148C219.817 291.968 218.152 291.878 216.532 291.608C213.426 291.157 210.32 290.662 207.17 290.302C203.749 289.897 200.373 289.312 196.908 288.997C195.558 288.862 194.207 288.727 192.857 288.502C190.292 288.142 187.771 287.737 185.206 287.377C182.73 287.017 180.255 286.657 177.779 286.252C175.529 285.891 173.233 285.576 170.983 285.216C168.012 284.721 165.042 284.271 162.071 283.686C161.351 283.551 160.676 283.506 159.956 283.461C159.821 283.461 159.686 283.506 159.506 283.506C155.77 283.326 152.034 283.821 148.343 283.956C146.273 284.001 144.203 284.271 142.132 284.451C139.342 284.676 136.551 284.946 133.761 285.171C131.195 285.396 128.585 285.396 126.019 285.756C123.814 286.071 121.563 285.891 119.403 286.387C118.548 286.567 117.872 286.207 117.242 285.666C115.937 284.541 114.677 283.371 113.372 282.246C110.761 279.995 108.196 277.7 105.585 275.449C101.939 272.299 98.2937 269.193 94.603 266.088C91.7674 263.657 88.9319 261.227 85.9613 258.976C84.9711 258.256 83.9359 257.626 82.7657 257.266L82.5856 257.131Z" fill="#696D65"/>
<path d="M396.252 313.167C396.252 317.038 396.882 320.864 397.467 324.69C397.962 327.93 398.412 331.216 398.907 334.457C399.492 338.507 400.122 342.513 400.752 346.564C400.932 347.779 401.518 348.859 401.878 349.985C403.768 350.39 405.703 350.525 407.594 350.75C410.834 351.155 414.03 350.975 417.271 351.11C420.691 351.245 423.572 350.075 426.137 347.869C426.227 347.779 426.317 347.644 426.452 347.599C428.118 346.609 428.793 344.989 429.603 343.368C430.773 340.983 431.088 338.507 430.998 335.852C430.908 331.486 431.043 327.075 430.953 322.709C430.863 318.388 431.313 314.113 431.268 309.792C431.268 309.027 431.358 308.216 431.088 307.451C429.423 308.397 429.243 308.487 427.443 308.306C425.957 308.171 424.427 308.081 422.987 307.721C421.141 307.316 419.251 307.586 417.451 307.001C413.985 307.271 410.564 306.641 407.144 306.551C406.378 306.551 405.748 306.326 405.118 305.921C404.578 305.561 404.488 304.931 404.803 304.391C405.703 302.995 407.009 302.815 408.404 303.175C409.484 303.446 410.519 303.491 411.599 303.491C412.095 303.491 412.635 303.401 413.085 303.581C414.21 303.986 415.335 303.896 416.505 303.941C417.001 303.941 417.541 303.896 417.991 304.076C418.981 304.436 419.971 304.391 420.961 304.391C423.257 304.391 425.552 304.391 427.893 304.391C428.883 304.391 429.738 304.481 430.188 305.561C430.323 305.921 430.683 306.056 431.043 306.146C431.088 305.786 431.223 305.426 431.223 305.111C431.223 304.436 431.538 304.076 432.078 303.716C433.249 302.995 434.329 302.14 435.499 301.465C437.75 300.115 438.695 298.045 438.65 295.479C438.65 292.193 439.055 288.908 439.235 285.577C439.37 283.147 439.28 280.671 439.64 278.286C440 275.9 439.955 273.56 440 271.219C440 270.634 440 270.094 439.775 269.509C438.965 267.169 438.92 267.169 436.534 266.178C435.814 265.863 435.004 265.683 434.329 265.278C432.844 264.423 431.313 264.468 429.738 264.783C427.308 265.233 425.102 266.313 422.897 267.349C419.521 268.924 416.145 270.589 412.905 272.435C412.005 272.93 411.059 273.2 410.114 273.515C409.619 273.695 409.124 273.56 408.629 273.47C404.713 272.615 400.752 271.849 396.882 270.949C391.436 269.734 385.99 268.429 380.543 267.169C379.868 266.988 379.103 266.898 378.563 266.358C377.708 266.538 376.853 266.313 376.043 266.088C367.131 263.973 358.174 261.857 349.262 259.742C347.282 259.292 345.392 258.707 343.546 257.897C334.815 253.936 326.038 249.975 317.261 246.014C316.811 245.789 316.316 245.699 315.956 245.249C314.876 244.979 313.886 244.484 312.895 243.944C308.845 242.459 304.974 240.523 301.103 238.633C300.203 238.183 299.978 237.373 299.843 236.518C299.078 237.553 299.033 237.598 298.178 237.193C297.007 236.653 295.882 236.022 294.667 235.527C288.141 232.737 281.479 230.261 274.638 228.281C269.552 226.796 264.466 225.941 259.155 226.166C256.184 226.301 253.394 227.246 250.468 227.651C250.243 227.651 250.063 227.831 249.883 227.921C247.498 228.956 245.247 230.216 243.492 232.242C242.727 233.097 241.872 233.907 241.151 234.762C239.936 236.203 238.721 237.643 237.911 239.308C235.705 243.989 234.265 248.805 234.67 254.071C234.805 256.051 235.345 257.852 236.336 259.562C238.406 263.208 241.061 266.403 244.392 268.969C248.038 271.759 251.909 273.965 256.409 275.045C259.2 275.72 261.99 276.305 264.781 277.07C267.887 277.971 270.947 278.916 274.143 279.591C277.293 280.266 280.399 281.256 283.595 281.616C284.405 281.706 285.35 281.751 286.025 282.381C286.88 282.967 287.781 283.597 288.681 284.182C288.726 283.822 288.726 283.462 288.861 283.102C289.086 282.562 289.536 282.246 290.031 282.426C291.741 283.012 293.587 282.652 295.342 283.102C296.197 283.327 297.142 283.552 298.087 283.597C299.573 283.732 301.058 283.867 302.543 284.092C305.019 284.452 307.449 285.037 309.925 285.262C312.355 285.487 314.696 286.072 317.126 286.297C319.602 286.522 322.032 287.152 324.508 287.467C327.343 287.783 330.134 288.323 332.969 288.728C333.959 288.863 334.95 289.178 335.94 289.178C337.695 289.268 339.315 289.718 340.981 290.078C341.161 289.718 341.476 289.538 341.836 289.583C342.826 289.673 343.816 289.763 344.807 289.898C347.192 290.348 349.577 290.933 351.963 291.248C354.888 291.608 357.724 292.328 360.56 293.004C364.61 293.949 368.616 294.984 372.712 295.704C373.477 295.839 374.242 296.019 375.007 296.154C378.293 296.739 381.624 297.279 384.909 297.954C388.96 298.765 393.011 299.71 397.062 300.655C399.132 301.15 401.247 301.645 403.318 302.185C403.903 302.32 404.038 302.59 403.723 303.13C402.103 305.921 400.482 308.712 398.547 311.277C398.232 311.682 397.872 311.997 397.512 312.357C397.152 312.717 396.702 312.897 396.162 312.987L396.252 313.167Z" fill="#FFB68A"/>
<path d="M286.07 282.516C285.395 281.886 284.45 281.841 283.64 281.751C280.399 281.391 277.338 280.4 274.188 279.725C271.037 279.05 267.932 278.105 264.826 277.205C262.08 276.395 259.245 275.855 256.454 275.179C251.998 274.099 248.083 271.939 244.437 269.103C241.061 266.493 238.451 263.342 236.38 259.696C235.39 257.986 234.895 256.186 234.715 254.205C234.31 248.939 235.75 244.123 237.956 239.443C238.766 237.732 239.981 236.292 241.196 234.897C241.961 234.041 242.817 233.231 243.537 232.376C245.292 230.351 247.543 229.091 249.928 228.055C250.108 227.965 250.333 227.83 250.513 227.785C253.394 227.335 256.229 226.435 259.2 226.3C264.511 226.03 269.642 226.885 274.683 228.415C281.524 230.441 288.185 232.871 294.712 235.662C295.882 236.157 297.052 236.787 298.222 237.327C299.078 237.732 299.123 237.732 299.888 236.652C299.573 235.437 299.303 234.176 298.988 232.916C298.402 232.466 298.087 231.836 297.727 231.206C297.232 230.351 296.692 229.451 296.062 228.685C293.767 226.12 291.336 223.644 288.5 221.664C283.234 217.973 277.293 215.768 271.262 213.878C266.806 212.482 262.215 211.582 257.579 210.907C254.159 210.412 250.738 210.232 247.273 209.827C244.977 209.557 242.682 209.557 240.386 209.512C238.001 209.512 235.66 209.782 233.32 210.187C229.989 210.727 226.658 211.177 223.283 211.672C219.727 212.212 216.171 212.707 212.616 213.202C210.005 213.563 207.35 213.923 204.694 214.238C201.769 214.598 198.888 215.093 196.008 215.723C190.291 216.938 184.755 218.603 179.084 220.089C170.443 222.294 161.801 224.545 153.204 226.795C151.359 227.29 149.424 227.605 147.668 228.505C148.298 231.161 148.883 233.816 149.514 236.472C150.549 241.108 151.584 245.699 152.619 250.335C154.329 257.896 155.995 265.458 157.66 273.019C158.425 276.44 159.46 279.815 159.776 283.326C160.496 283.326 161.171 283.416 161.891 283.551C164.862 284.136 167.832 284.586 170.803 285.081C173.053 285.441 175.349 285.802 177.599 286.117C180.074 286.477 182.55 286.837 185.025 287.242C187.591 287.602 190.111 288.007 192.677 288.367C194.027 288.547 195.377 288.727 196.728 288.862C200.148 289.177 203.569 289.762 206.99 290.167C210.14 290.527 213.246 291.023 216.352 291.473C217.972 291.698 219.637 291.788 221.257 292.013C222.383 292.148 223.553 292.328 224.678 292.508C229.494 293.318 234.265 294.218 239.081 294.893C242.277 295.343 245.472 295.928 248.713 295.928C249.703 295.928 250.693 296.199 251.683 296.289C254.969 296.694 258.21 297.099 261.495 297.504C261.99 296.784 262.801 296.604 263.476 296.244C267.346 294.128 271.262 292.013 275.178 289.852C279.004 287.737 282.694 285.351 286.025 282.516H286.07Z" fill="#8989DE"/>
<path d="M159.821 283.326C159.461 279.816 158.426 276.44 157.705 273.019C156.04 265.458 154.375 257.897 152.664 250.335C151.629 245.699 150.594 241.108 149.559 236.472C148.974 233.817 148.344 231.161 147.713 228.506C145.958 228.506 144.293 229.091 142.717 229.676C139.612 230.801 136.461 231.836 133.311 232.692C129.08 233.862 124.984 235.392 120.933 237.058C118.998 237.823 117.108 238.633 115.172 239.443C109.186 241.918 103.425 244.799 97.8438 248.085C97.0337 248.58 96.0884 248.715 95.2783 249.165C93.1629 250.245 91.0025 251.19 88.9321 252.405C86.9967 253.531 85.2414 254.881 83.396 256.141C83.081 256.366 82.8559 256.816 82.5858 257.131C83.7561 257.491 84.7913 258.077 85.7814 258.842C88.797 261.092 91.5876 263.523 94.4232 265.953C98.1139 269.059 101.76 272.164 105.405 275.315C108.016 277.565 110.626 279.816 113.192 282.111C114.497 283.236 115.802 284.362 117.063 285.532C117.693 286.072 118.368 286.477 119.223 286.252C121.428 285.757 123.634 285.982 125.839 285.622C128.405 285.262 130.97 285.262 133.581 285.037C136.371 284.812 139.162 284.542 141.952 284.317C144.023 284.137 146.093 283.912 148.164 283.822C151.899 283.732 155.59 283.191 159.326 283.371C159.461 283.371 159.596 283.371 159.776 283.326H159.821Z" fill="#FFB68A"/>
<path d="M298.988 232.872C299.303 234.132 299.573 235.347 299.888 236.607C300.023 237.463 300.248 238.273 301.148 238.723C305.019 240.613 308.89 242.504 312.94 244.034C312.94 243.494 313.21 243.044 313.661 242.774C315.416 241.513 317.081 240.163 318.972 239.128C321.942 237.553 325.003 236.067 328.243 235.122C331.124 234.312 334.049 233.637 337.11 233.682C338.46 233.682 339.856 233.772 341.206 233.682C343.141 233.547 345.077 233.817 346.967 234.222C351.468 235.167 355.789 236.652 359.794 238.993C364.7 241.828 369.021 245.294 372.487 249.795C373.027 250.47 373.657 251.055 374.107 251.82C374.287 252.135 374.647 252.271 375.007 252.316C376.088 248.76 376.268 245.069 375.773 241.423C374.467 231.116 369.066 223.555 360.065 218.469C358.309 217.479 356.464 216.714 354.573 215.948C351.243 214.643 347.822 214.058 344.221 214.328C337.47 214.823 330.764 215.678 324.238 217.659C320.277 218.874 316.586 220.494 313.075 222.745C308.169 225.94 303.444 229.316 298.898 232.962L298.988 232.872Z" fill="#894100"/>
<path d="M315.956 245.338C316.271 245.788 316.811 245.879 317.261 246.104C325.993 250.064 334.769 254.025 343.546 257.986C345.392 258.841 347.327 259.381 349.262 259.831C358.174 261.947 367.131 264.062 376.042 266.177C376.898 266.357 377.708 266.628 378.563 266.447C377.798 263.297 376.448 260.416 374.827 257.626C374.467 257.041 373.972 256.456 374.062 255.69C373.207 255.51 372.802 254.79 372.397 254.115C371.272 252.18 370.191 250.244 368.436 248.804C366.546 247.274 364.745 245.608 362.72 244.258C360.875 243.043 359.029 241.738 357.004 240.838C354.573 239.757 352.098 238.812 349.532 238.182C347.192 237.597 344.806 237.012 342.331 237.147C341.161 237.237 340.036 236.562 338.955 236.832C337.74 237.102 336.525 237.147 335.31 237.147C334.815 237.147 334.274 237.147 333.824 237.192C330.809 237.867 327.838 238.407 324.958 239.622C321.942 240.883 319.286 242.683 316.631 244.483C316.361 244.663 316.181 245.023 315.956 245.338Z" fill="#884100"/>
<path d="M315.956 245.339C316.181 245.069 316.316 244.709 316.631 244.484C319.287 242.639 321.942 240.883 324.958 239.623C327.838 238.408 330.854 237.868 333.824 237.192C334.319 237.102 334.815 237.147 335.31 237.147C336.525 237.147 337.74 237.147 338.955 236.832C340.081 236.562 341.161 237.237 342.331 237.147C344.806 237.012 347.147 237.598 349.532 238.183C352.098 238.813 354.573 239.758 357.004 240.838C359.029 241.738 360.875 243.044 362.72 244.259C364.745 245.609 366.546 247.274 368.436 248.805C370.191 250.245 371.317 252.18 372.397 254.116C372.802 254.836 373.162 255.511 374.062 255.691C374.557 254.611 374.917 253.441 375.007 252.225C374.647 252.18 374.287 252.045 374.107 251.73C373.702 250.965 373.027 250.38 372.487 249.705C369.021 245.159 364.7 241.738 359.794 238.903C355.789 236.562 351.468 235.077 346.967 234.132C345.077 233.727 343.141 233.457 341.206 233.592C339.856 233.682 338.46 233.592 337.11 233.592C334.094 233.592 331.169 234.222 328.243 235.032C324.958 235.932 321.942 237.417 318.971 239.038C317.081 240.073 315.416 241.423 313.66 242.684C313.255 242.999 312.985 243.404 312.94 243.944C313.885 244.529 314.876 245.024 316.001 245.249L315.956 245.339Z" fill="#5E3816"/>
<path d="M431.043 306.236C430.683 306.146 430.323 305.966 430.188 305.651C429.738 304.615 428.883 304.48 427.893 304.48C425.597 304.48 423.302 304.48 420.961 304.48C419.971 304.48 418.981 304.525 417.991 304.165C417.541 303.985 417 304.075 416.505 304.03C415.38 304.03 414.21 304.075 413.085 303.67C412.635 303.49 412.094 303.58 411.599 303.58C410.519 303.58 409.484 303.58 408.404 303.265C407.008 302.905 405.658 303.085 404.803 304.48C404.488 304.975 404.578 305.651 405.118 306.011C405.748 306.416 406.378 306.641 407.143 306.641C410.564 306.686 413.985 307.316 417.45 307.091C419.251 307.676 421.141 307.361 422.987 307.811C424.427 308.126 425.957 308.261 427.442 308.396C429.243 308.531 429.423 308.486 431.088 307.541C431.268 307.136 431.268 306.731 431.088 306.281L431.043 306.236Z" fill="#E7A47C"/>
<path d="M292.191 300.61C292.461 300.7 292.686 300.925 292.956 300.925C294.397 301.015 295.792 301.195 297.232 301.375C300.383 301.78 303.533 302.005 306.639 302.365C309.61 302.725 312.625 303.13 315.596 303.49C318.656 303.85 321.717 304.165 324.778 304.48C327.838 304.841 330.899 305.201 333.959 305.606C335.445 305.786 336.975 305.876 338.46 306.101C341.026 306.506 343.591 306.731 346.157 307.001C346.067 305.471 345.347 304.12 344.896 302.725C343.816 299.124 342.601 295.524 341.476 291.968C341.251 291.968 340.981 291.968 340.846 292.103C339.946 292.913 338.865 292.958 337.785 292.823C336.435 292.688 335.085 292.418 333.779 292.238C332.294 292.013 330.809 291.788 329.323 291.563C327.613 291.293 325.948 291.068 324.237 290.798C322.122 290.483 320.007 290.123 317.891 289.853C316.406 289.628 314.921 289.538 313.435 289.313C310.96 288.952 308.529 288.412 306.054 288.142C304.974 288.007 303.984 287.692 302.858 287.647C301.418 287.557 300.023 287.332 298.583 287.152C296.962 286.927 295.342 286.567 293.722 286.387C292.731 286.252 291.786 285.712 290.751 286.027C291.336 286.567 291.876 287.107 292.506 287.602C293.046 288.052 293.632 288.502 294.172 288.952C294.802 289.538 294.802 289.673 294.442 290.438C293.902 291.473 293.361 292.463 292.911 293.498C291.876 295.794 291.426 298.134 292.146 300.61H292.191Z" fill="#FFB58A"/>
<path d="M358.669 308.351C359.164 307.766 359.84 307.586 360.47 307.226C365.016 304.796 368.841 301.42 371.947 297.324C372.307 296.874 372.667 296.424 372.757 295.839C368.661 295.119 364.656 294.084 360.605 293.138C357.769 292.463 354.934 291.743 352.008 291.383C349.578 291.113 347.237 290.483 344.852 290.033C343.861 289.853 342.871 289.808 341.881 289.718C341.476 289.718 341.206 289.853 341.026 290.213C341.386 290.708 341.566 291.293 341.521 291.923C342.646 295.524 343.861 299.08 344.942 302.68C345.392 304.121 346.067 305.426 346.202 306.956C348.407 307.226 350.568 307.541 352.773 307.766C354.754 307.991 356.734 308.126 358.714 308.306L358.669 308.351Z" fill="#8A4201"/>
<path d="M288.681 284.271C289.176 285.081 289.896 285.621 290.796 285.936C291.831 285.621 292.777 286.206 293.767 286.296C295.387 286.476 297.007 286.837 298.628 287.062C300.023 287.287 301.463 287.467 302.904 287.557C303.984 287.602 305.019 287.962 306.099 288.052C308.575 288.322 311.05 288.862 313.481 289.222C314.966 289.447 316.451 289.537 317.936 289.762C320.052 290.032 322.167 290.392 324.283 290.707C325.993 290.977 327.658 291.202 329.369 291.472C330.854 291.697 332.339 291.923 333.825 292.148C335.175 292.373 336.525 292.598 337.83 292.733C338.91 292.868 339.991 292.823 340.891 292.013C341.026 291.878 341.296 291.923 341.521 291.878C341.521 291.247 341.386 290.662 341.026 290.167C339.361 289.852 337.695 289.357 335.985 289.267C334.995 289.267 334.005 288.952 333.014 288.817C330.179 288.412 327.388 287.872 324.553 287.557C322.077 287.287 319.647 286.611 317.171 286.386C314.741 286.161 312.4 285.576 309.97 285.351C307.494 285.126 305.064 284.541 302.588 284.181C301.103 283.956 299.618 283.776 298.133 283.686C297.187 283.596 296.287 283.371 295.387 283.191C293.632 282.741 291.786 283.101 290.076 282.516C289.581 282.336 289.086 282.651 288.906 283.191C288.771 283.506 288.771 283.911 288.726 284.271H288.681Z" fill="#E7A47C"/>
</svg>
