<?xml version="1.0" encoding="UTF-8"?>
<svg xmlns="http://www.w3.org/2000/svg" version="1.1" viewBox="0 0 1417.3 1417.3">
  <defs>
    <style>
      .cls-1 {
        fill: #ffb58a;
      }

      .cls-2 {
        fill: #e7a37b;
      }

      .cls-3 {
        fill: #82623e;
      }

      .cls-4 {
        fill: #696d65;
      }

      .cls-5 {
        fill: #894200;
      }

      .cls-6 {
        fill: #8989de;
      }

      .cls-7 {
        fill: #ffb68a;
      }

      .cls-8 {
        fill: #5e3816;
      }

      .cls-9 {
        fill: #894100;
      }

      .cls-10 {
        fill: #e7a47c;
      }
    </style>
  </defs>
  <!-- Generator: Adobe Illustrator 28.7.1, SVG Export Plug-In . SVG Version: 1.2.0 Build 142)  -->
  <g>
    <g id="_레이어_1" data-name="레이어_1">
      <g>
        <path class="cls-4" d="M1105.4,729.5c3.3.5,5.8,2.5,8.1,4.8,7.5,7.7,14,16.2,19.6,25.4,10.3,16.7,17.2,34.6,20.5,53.9,4.1,23.9,2.4,47.3-7.5,69.6-14.2,31.9-38.6,51.4-73,58.2-9.3,1.8-18.7,2.1-28.2,1.6-4.6-.3-9.3,0-13.9-.7-6.2-.9-12.3-1.7-18.5-2.6-1.1-.2-2.2-.4-3.3-.4-12.2-.3-24.2-2.3-36.2-4.1-5.1-.8-10.1-1.4-15.2-1.7-8.5-.5-16.9-1.5-25.3-2.3-4.5-.4-8.9-.8-13.4-1.2-12.1-1.2-24.2-2.6-36.2-3.7-12.1-1.2-24.2-2.1-36.3-3.2-12.1-1.1-24.2-2.3-36.3-3.4-8-.7-15.9-1.4-23.9-2.2-6.8-.7-13.6-1.6-20.5-2.6-3.1-.4-5.8-.3-8.6,1.5-10.4,6.7-21.9,11.2-33.8,14.4-9.7,2.6-19.2,6-29.1,8-12.4,2.5-24.7,5.5-37.1,7.7-10.1,1.8-20.3,2.9-30.5,3.6-18.2,1.3-36.4,1.2-54.7.8-12.1-.3-24.3-1.2-36.4-2.4-9.2-1-18.5-1.5-27.7-2.2-12-.9-23.9-1.7-35.9-2.6-6.4-.5-12.8-.9-19.1-1.4-8.9-.7-17.8-1.5-26.8-2.2-6.1-.5-12.1-1-18.2-1.6-4.1-.4-8.3-1-12.2-2.5,1.5-3.7,2.7-7.4,2.9-11.4.1-2.4.8-4.7,1.2-7,1.1-7.4,2.3-14.8,3.4-22.2.8-5.3,1.6-10.7,2.3-16,1.2-8.3,2.6-16.7,2.6-25.1,2.6-1.4,5.4-1.9,8.3-2,5.6,0,11.2-.8,16.7-1.5,12.2-1.4,24.4-2.9,36.6-4.4,7.3-.9,14.6-1.9,21.8-2.8,4.1-.4,8.2-.7,12.3-1.2,5.2-.6,10.3-1.2,15.5-1.9,1.9-.3,3.8-.5,5.7-.8,6.7-.7,13.3-1.4,20-2.2,7.1-.8,14.2-1.8,21.4-2.6,6.6-.8,13.3-1.4,20-2.2,7-.8,13.9-1.8,20.9-2.6,7-.8,14-1.3,20.9-2.2,3.2-.4,6.3-.8,9.5-1,.6,0,1.1-.5,1.7-.7,2.7.3,5.4-.1,8.1-.4,4.3-.5,8.6-1,12.9-1.4,11.1-1.1,22.3-2,33.4-3.3,4.6-.5,9.2-.2,13.6-1.7,7.3-.9,14.5-1.8,21.8-2.7,2.2-.3,4.4-.8,6.6-.8,7.2,0,14.3-1.3,21.4-2.3,10.7-1.5,21.4-3.5,32-5.3,2.5-.4,5-.8,7.6-1.1,3.6-.4,7.3-.6,10.9-1.2,6.9-1,13.8-2.1,20.8-2.9,7.6-.9,15.1-2.2,22.8-2.9,3-.3,6-.6,9-1.1,5.7-.8,11.3-1.7,17-2.5,5.5-.8,11-1.6,16.5-2.5,5-.8,10.1-1.5,15.1-2.3,6.6-1.1,13.2-2.1,19.8-3.4,1.6-.3,3.1-.4,4.7-.5.3,0,.6.1,1,.1,8.3-.4,16.6.7,24.8,1,4.6.1,9.2.7,13.8,1.1,6.2.5,12.4,1.1,18.6,1.6,5.7.5,11.5.5,17.2,1.3,4.9.7,9.9.3,14.7,1.4,1.9.4,3.4-.4,4.8-1.6,2.9-2.5,5.7-5.1,8.6-7.6,5.8-5,11.5-10.1,17.3-15.1,8.1-7,16.2-13.9,24.4-20.8,6.3-5.4,12.6-10.8,19.2-15.8,2.2-1.6,4.5-3,7.1-3.8Z"/>
        <path class="cls-7" d="M408.6,854c0,8.5-1.4,16.8-2.6,25.1-.7,5.4-1.5,10.7-2.3,16-1.1,7.4-2.2,14.8-3.4,22.2-.4,2.4-1,4.7-1.2,7-.2,4-1.4,7.8-2.9,11.4-4.2.9-8.5,1.2-12.8,1.7-8.5,1.1-16.9.6-25.4.7-4.2,0-8.3-.6-12-2.7-8.9-5.2-14.4-12.7-14.5-23.2-.2-16,0-32,0-47.9,0-2.5.2-5.1-.5-7.6-.2-.6-.2-1.3-.1-1.9.9-8.1-.9-16.2,0-24.3,1-8.1.5-16.3.8-24.4,0-.8,0-1.6,0-2.4.2-1.8-.6-2.7-2.2-3.2-3.5-1.1-6.7-2.9-9.8-4.9-6.3-4.1-9.4-9.8-9.3-17.3.1-9.3,3.4-17.6,8.9-24.8,6.7-8.8,14.4-16.7,23.9-22.6,4.9-3,9.7-6.1,14.6-9.1,2.5-1.6,5.4-1.9,8.2-2.3,7.4-.9,14.9-1.8,22.3-2.7,4-.5,7.9-.9,11.9-1.2,2.9-.2,5.7-.8,8.5-1.1,6.7-.6,13.3-1.7,19.9-2.5,3.6-.5,7.3-.8,10.9-1.2,3.8-.4,7.6-.7,11.4-1.2.9-.1,1.8-.5,2.7-.8,4.4.3,8.8-.5,13.1-1.2,3.2,0,6.4-.5,9.6-1.1.3,0,.6.2.9.2,6.6-.7,13.3-1.4,19.9-2.2,5.8-.7,11.7-1.8,17.5-2.2,5.8-.3,11.3-1.6,16.9-3,3.1-.7,6.2-1.5,9.3-2.1,7-1.3,14.1-2.4,21.2-3.8,2.2-.4,4.4-.6,6.4-1.9,1,0,2,0,2.9-.5.5.3.8,0,1.1-.3,1.9-.4,3.8-.9,5.7-1.3,12.3-2.5,24.4-5.6,36.5-8.8,3.3-.9,6.8-1.6,9.9-3.3h.1c1.1,0,2.3,0,3.3-.3,5.8-1.8,11.8-2.7,17.7-4,8.1-1.8,16.2-3.6,24.4-5,5.7-.9,11.2-2.6,16.8-3.6,8.7-1.6,17.3-3,26.1-2.6.8,0,1.6,0,2.4,0,9.3-.5,18,1.9,26.6,5,7.8,2.8,13.9,7.9,18.1,15,6.9,11.4,10.9,23.8,9.9,37.4-.2,2.1-.6,4.1-1.4,6-3.2,7.4-7.3,14.2-13,19.9-4.4,4.4-9.2,8.4-14.3,12-2.6,1.8-5.5,3.2-8.7,3.9-5.3,1.2-10.7,1.8-16,2.6-6,.8-12,1.5-18,2.3-4.4.5-8.9,1.1-13.3,1.5-4.8.5-9.6.6-14.3,1.2-7.6.9-15.2,1.7-22.9,1.8-2,0-3.8.5-5.7.9-1.4-1.6-3.2-2-5.2-1.9-5.2.1-10.4.1-15.7.8-6.1.8-12.3.1-18.5,1-6.1.8-12.3,0-18.5,1-3.3.6-6.7,0-10,.1-1.3,0-2.6,0-3.8.4-1.7.6-3.5.5-5.2.6-40,.5-80-1.1-120-.9-10.4.4-20.7-.9-31.1-1.1-.3,0-.6,0-1,0-4.6-1.1-9.2-.6-13.8-.9-.8,0-1.6-.1-2.3.5-.1,1.3.4,2.5.8,3.7,2,6.8,2.2,13.5-1,20-1,2-1.8,4.1-2.7,6.1-2.5,5.3-5,10.7-7.6,16-1.3,2.6-.9,4.8.6,7.2,5.9,8.9,11.7,17.9,17.6,26.8.9,1.3,1.7,2.7,3.2,3.4ZM395.9,769.9c0-1.6-.6-2.8-2.1-3.4-.7-.3-1.5-.8-2.2-.8-3.8,0-7.7-.5-11.5.3-1.7.4-3.4.6-5.2.6-1.6,0-3.2,0-4.8,0-3,.1-5.5,1.1-7.7,3.2-2.9,2.7-6.1,5.1-9.2,7.6-2.6,2.1-5.1,4.3-7.7,6.4-3.2,2.6-6.3,5.4-9.6,7.9-2.1,1.6-2.7,3.4-2.4,5.8.4,2.8,2.5,3.9,5.2,2.9,3.5-1.3,6-4.2,8.9-6.4,6.6-5,13-10.3,19.5-15.4,3.1-2.4,6.6-3.9,10.6-3.5,4.7.5,9.1-1.2,13.8-1.1.7,0,1.5-.5,2.2-.8,1.5-.6,2.2-1.8,2.1-3.4Z"/>
        <path class="cls-6" d="M642.6,771.4c1.9-.4,3.7-.9,5.7-.9,7.7,0,15.3-.9,22.9-1.8,4.8-.5,9.5-.7,14.3-1.2,4.4-.4,8.9-1,13.3-1.5,6-.7,12-1.5,18-2.3,5.4-.7,10.7-1.4,16-2.6,3.2-.7,6.1-2.1,8.7-3.9,5.1-3.6,9.9-7.6,14.3-12,5.7-5.8,9.8-12.6,13-19.9.8-1.9,1.3-3.9,1.4-6,1-13.6-3-25.9-9.9-37.4-4.2-7-10.3-12.1-18.1-15-8.6-3.1-17.4-5.5-26.6-5-.8,0-1.6,0-2.4,0-8.8-.4-17.5,1-26.1,2.6-5.7,1-11.2,2.7-16.8,3.6-8.2,1.4-16.3,3.2-24.4,5-5.9,1.3-11.9,2.2-17.7,4-1,.3-2.2.3-3.3.4.1-.7.3-1.4.4-2,.3-.4.7-.7.9-1.2,3.9-8.1,10.4-14.2,17.1-19.9,5.5-4.6,11.4-8.7,18.2-11.5,5.6-2.3,11.2-4.7,16.8-6.9,9.4-3.6,19.3-5.6,29.2-7.6,7.5-1.5,15.1-2.5,22.7-3.1,7.8-.7,15.6-1.5,23.4-1.6,5,0,9.9.3,14.8,1,9.6,1.5,19.2,3,28.9,4.4,7.6,1.1,15.2,2.1,22.8,3.2,14.9,2.1,29.8,3.8,44.3,7.7,19.7,5.3,39.5,10.5,59.3,15.7,10.7,2.8,21.3,5.5,32,8.3,1.8.5,3.8.8,5.4,1.9-1.4,5.9-2.7,11.8-4.1,17.7-2.3,10.3-4.6,20.5-6.9,30.8-3.8,16.8-7.5,33.6-11.2,50.4-1.7,7.6-4,15.1-4.7,22.9-1.6,0-3.1.2-4.7.5-6.6,1.3-13.2,2.3-19.8,3.4-5,.8-10.1,1.6-15.1,2.3-5.5.8-11,1.6-16.5,2.5-5.7.8-11.3,1.7-17,2.5-3,.4-6,.8-9,1.1-7.6.7-15.2,2-22.8,2.9-7,.8-13.9,1.9-20.8,2.9-3.6.5-7.3.7-10.9,1.2-2.5.3-5.1.7-7.6,1.1-10.7,1.8-21.3,3.8-32,5.3-7.1,1-14.2,2.3-21.4,2.3-2.2,0-4.4.6-6.6.8-7.3.9-14.5,1.8-21.8,2.7-1.1-1.5-2.8-2-4.4-2.8-4.2-2.2-8.5-4.2-12.5-7-10.4-7.2-20.8-14.5-31.2-21.8-3-3.5-11.3-11-16.2-14.4-.4-.6-.7-1.2-1.1-1.8Z"/>
        <path class="cls-7" d="M933.9,787.7c.8-7.8,3.1-15.3,4.7-22.9,3.7-16.8,7.4-33.6,11.2-50.4,2.3-10.3,4.6-20.5,6.9-30.8,1.3-5.9,2.7-11.8,4.1-17.7,3.9,0,7.6,1.3,11.1,2.6,6.9,2.5,13.9,4.8,20.9,6.7,9.4,2.6,18.5,6,27.5,9.7,4.3,1.7,8.5,3.5,12.8,5.3,13.3,5.5,26.1,11.9,38.5,19.2,1.8,1.1,3.9,1.4,5.7,2.4,4.7,2.4,9.5,4.5,14.1,7.2,4.3,2.5,8.2,5.5,12.3,8.3.7.5,1.2,1.5,1.8,2.2-2.6.8-4.9,2.1-7.1,3.8-6.7,5-12.9,10.4-19.2,15.8-8.2,6.9-16.3,13.8-24.4,20.8-5.8,5-11.6,10-17.3,15.1-2.9,2.5-5.8,5-8.6,7.6-1.4,1.2-2.9,2.1-4.8,1.6-4.9-1.1-9.8-.6-14.7-1.4-5.7-.8-11.4-.8-17.2-1.3-6.2-.5-12.4-1.1-18.6-1.6-4.6-.4-9.2-.9-13.8-1.1-8.3-.2-16.5-1.4-24.8-1-.3,0-.6,0-1-.1Z"/>
        <path class="cls-9" d="M466.9,707.8c-4.3.8-8.7,1.5-13.1,1.2-.8-9.5,0-18.8,3.1-27.9,5.3-15.8,15.5-27.8,29.7-36.3,7.9-4.7,16.3-8,25.3-10,1.2-.3,2.5-.5,3.8-.5,20.6,0,40.7,3,60.2,9.9,7.8,2.8,14.7,7,21.5,11.5,9.3,6.2,18.4,12.8,27.1,19.8.1.7.2,1.3.3,2-3.1,1.7-6.5,2.4-9.9,3.3-12.1,3.2-24.2,6.3-36.5,8.8-.1-1.3-1.2-1.8-2.2-2.3-4.9-2.6-10.1-4.7-15.4-6.4-7.2-2.2-14.4-3.7-22-3.6-2.4,0-4.8,0-7.2,0-5.8-.3-11.4.8-17,2-7.8,1.7-15.3,4.6-22.3,8.2-5.2,2.7-10,6.1-14.8,9.6-3.3,2.3-6,5.2-8.9,8-.8.8-1.6,1.6-1.7,2.8Z"/>
        <path class="cls-2" d="M624.7,677.4c-.1-.7-.2-1.3-.3-2,.3,0,.6,0,.8,0-.1.7-.3,1.3-.4,2,0,0-.1,0-.1,0Z"/>
        <path class="cls-1" d="M643.6,773.2c4.9,3.5,13.2,10.9,16.2,14.4-2.8,1.6-5.5,3.2-8.3,4.8-5.1,3-9.9,6.4-14.4,10.2-1.3,1.1-1.4,1.6-.8,3.3.6,1.5,1.2,2.9,1.9,4.4,2.2,5.1,3.2,10.3,1.6,15.8-.6.2-1.1.7-1.7.7-3.2.2-6.3.6-9.5,1-7,.9-14,1.4-20.9,2.2-7,.8-13.9,1.8-20.9,2.6-6.6.8-13.3,1.4-20,2.2-7.1.8-14.2,1.8-21.4,2.6-6.6.8-13.3,1.5-20,2.2-1.9.2-3.8.5-5.7.8.1-.8.1-1.6.4-2.3,3.3-10.5,6.6-21,9.9-31.5.9-2.7,1.3-5.7,2.7-8.1,1.5-2.6,4.7-3.7,7.2-5.5,7.9-5.6,16-11.1,24-16.7.3.4.7.7.8,1.1.2,1.3.3,2.6,1.5,3.3,1.1.6,2.2,1.3,3.6,1.2,1.9,0,3.9.2,5.7-.3,2.4-.7,4.7-.6,7.1-.7,2.9,0,5.8.4,8.6-.2,3.7-.8,7.3-.6,10.9-.7,2.1,0,4.2.2,6.2-.3,2.2-.6,4.4-.6,6.6-.6,3,0,6.1.4,9.1-.2,3.2-.7,6.3-.7,9.5-.7,1,0,1.9,0,2.9,0,4.3-.6,5.1-1.1,7.4-4.8Z"/>
        <path class="cls-5" d="M563.9,776.2c-8,5.5-16,11-24,16.7-2.5,1.7-5.6,2.9-7.2,5.5-1.4,2.4-1.8,5.4-2.7,8.1-3.3,10.5-6.6,21-9.9,31.5-.2.7-.2,1.6-.4,2.3-5.2.6-10.3,1.3-15.5,1.9-4.1.5-8.2.8-12.3,1.2-.9-1.2-2.4-1.6-3.6-2.2-17.6-9.5-29.7-23.9-37.2-42.2-3.5-8.5-6.1-17.2-5.4-26.5,40-.2,80,1.4,120,.9.1,1.4-1.4,1.8-1.9,2.9Z"/>
        <path class="cls-5" d="M568.6,691.7c-1.9,1.2-4.2,1.5-6.4,1.9-7,1.3-14.1,2.5-21.2,3.8-3.1.6-6.2,1.4-9.3,2.1-5.6,1.3-11.1,2.6-16.9,3-5.9.3-11.7,1.5-17.5,2.2-6.6.8-13.3,1.5-19.9,2.2-.3,0-.6,0-.9-.2.3-2.3,2.5-2.8,4-3.9,7.2-5.6,15.1-10,23.8-13,7.8-2.7,15.8-4.7,24.2-4.8.9,0,1.9-.2,2.8-.5,2.2-.6,4.4-.6,6.6,0,1.1.3,2.2.5,3.3.5,3.4-.1,6.7.3,9.9,1,6.1,1.2,12.1,2.6,17.5,5.7Z"/>
        <path class="cls-8" d="M568.6,691.7c-5.4-3.2-11.5-4.5-17.5-5.7-3.3-.6-6.6-1.1-9.9-1-1.1,0-2.2-.2-3.3-.5-2.2-.6-4.4-.6-6.6,0-.9.2-1.9.5-2.8.5-8.4,0-16.4,2-24.2,4.8-8.6,3-16.6,7.4-23.8,13-1.4,1.1-3.7,1.6-4,3.9-3.2.6-6.4,1.1-9.6,1.1,0-1.2.8-2,1.7-2.8,2.8-2.8,5.6-5.6,8.9-8,4.8-3.4,9.6-6.9,14.8-9.6,7.1-3.6,14.5-6.5,22.3-8.2,5.6-1.2,11.2-2.3,17-2,2.4.1,4.8,0,7.2,0,7.5,0,14.8,1.4,22,3.6,5.4,1.6,10.5,3.7,15.4,6.4,1,.5,2.1.9,2.2,2.3-1.9.4-3.8.9-5.7,1.3-.4.1-.7.2-1.1.3-.9.4-1.9.6-2.9.5Z"/>
        <path class="cls-2" d="M563.9,776.2c.5-1.1,2-1.5,1.9-2.9,1.7,0,3.5,0,5.2-.6,1.2-.4,2.5-.4,3.8-.4,3.3,0,6.8.4,10-.1,6.2-1,12.4-.2,18.5-1,6.2-.8,12.4-.2,18.5-1,5.2-.7,10.4-.7,15.7-.8,2,0,3.8.3,5.2,1.9.4.6.7,1.2,1.1,1.8-2.3,3.7-3,4.2-7.4,4.8-.9.1-1.9,0-2.9,0-3.2,0-6.3,0-9.5.7-2.9.6-6,.2-9.1.2-2.2,0-4.4,0-6.6.6-2,.5-4.1.3-6.2.3-3.6.1-7.3,0-10.9.7-2.7.6-5.7.2-8.6.2-2.4,0-4.7,0-7.1.7-1.8.5-3.8.2-5.7.3-1.3,0-2.5-.6-3.6-1.2-1.3-.7-1.3-2.1-1.5-3.3,0-.4-.5-.8-.8-1.1Z"/>
        <path class="cls-10" d="M395.9,769.9c0,1.6-.6,2.8-2.1,3.4-.7.3-1.5.8-2.2.8-4.6-.1-9.1,1.6-13.8,1.1-4-.5-7.5,1-10.6,3.5-6.5,5.1-12.9,10.4-19.5,15.4-2.9,2.2-5.4,5-8.9,6.4-2.7,1-4.8,0-5.2-2.9-.3-2.4.3-4.3,2.4-5.8,3.3-2.5,6.4-5.2,9.6-7.9,2.6-2.1,5.1-4.3,7.7-6.4,3.1-2.5,6.3-4.9,9.2-7.6,2.2-2.1,4.8-3.1,7.7-3.2,1.6,0,3.2,0,4.8,0,1.8,0,3.5-.2,5.2-.6,3.8-.8,7.6-.4,11.5-.3.8,0,1.5.5,2.2.8,1.5.6,2.2,1.8,2.1,3.4Z"/>
        <path class="cls-3" d="M571.5,691.2c.4-.1.7-.2,1.1-.3-.3.4-.6.6-1.1.3Z"/>
      </g>
    </g>
  </g>
</svg>