<svg width="500" height="500" viewBox="0 0 500 500" fill="none" xmlns="http://www.w3.org/2000/svg">
<path d="M82.6026 257.082C81.1191 257.307 79.9952 258.206 78.9612 259.24C75.5896 262.701 72.6675 266.523 70.15 270.659C65.5195 278.166 62.4176 286.213 60.9341 294.89C59.0909 305.634 59.8552 316.154 64.3057 326.179C70.6894 340.519 81.6586 349.286 97.1233 352.343C101.304 353.152 105.53 353.287 109.801 353.062C111.869 352.927 113.982 353.062 116.05 352.747C118.837 352.343 121.579 351.983 124.366 351.579C124.861 351.489 125.355 351.399 125.85 351.399C131.334 351.264 136.729 350.365 142.124 349.556C144.416 349.196 146.664 348.926 148.957 348.791C152.778 348.567 156.554 348.117 160.331 347.757C162.354 347.577 164.332 347.398 166.355 347.218C171.794 346.678 177.234 346.049 182.629 345.554C188.068 345.015 193.508 344.61 198.948 344.116C204.387 343.621 209.827 343.082 215.266 342.587C218.863 342.273 222.414 341.958 226.011 341.598C229.068 341.284 232.125 340.879 235.227 340.43C236.62 340.25 237.834 340.295 239.093 341.104C243.768 344.116 248.938 346.139 254.288 347.577C258.648 348.746 262.919 350.275 267.37 351.174C272.944 352.298 278.474 353.646 284.048 354.636C288.589 355.445 293.174 355.939 297.76 356.254C305.942 356.838 314.124 356.793 322.35 356.614C327.79 356.479 333.275 356.074 338.714 355.535C342.85 355.085 347.031 354.86 351.167 354.546C356.562 354.141 361.911 353.781 367.306 353.377C370.183 353.152 373.06 352.972 375.892 352.747C379.893 352.433 383.894 352.073 387.94 351.758C390.683 351.534 393.38 351.309 396.122 351.039C397.966 350.859 399.854 350.59 401.607 349.915C400.933 348.252 400.393 346.588 400.303 344.79C400.258 343.711 399.944 342.677 399.764 341.643C399.269 338.317 398.73 334.99 398.235 331.663C397.876 329.281 397.516 326.853 397.201 324.47C396.662 320.739 396.032 316.963 396.032 313.187C394.864 312.557 393.605 312.332 392.301 312.287C389.784 312.287 387.266 311.928 384.794 311.613C379.309 310.984 373.824 310.309 368.34 309.635C365.058 309.23 361.776 308.781 358.54 308.376C356.696 308.196 354.853 308.062 353.01 307.837C350.672 307.567 348.38 307.297 346.042 306.983C345.188 306.848 344.334 306.758 343.479 306.623C340.467 306.308 337.5 305.994 334.488 305.634C331.297 305.274 328.105 304.825 324.868 304.465C321.901 304.106 318.889 303.836 315.877 303.476C312.73 303.116 309.628 302.667 306.481 302.307C303.334 301.948 300.187 301.723 297.085 301.318C295.647 301.138 294.253 300.959 292.815 300.869C292.545 300.869 292.32 300.644 292.05 300.554C290.837 300.689 289.623 300.509 288.409 300.374C286.476 300.149 284.543 299.925 282.61 299.745C277.62 299.25 272.585 298.846 267.595 298.261C265.527 298.036 263.459 298.171 261.481 297.497C258.199 297.092 254.962 296.688 251.68 296.283C250.691 296.148 249.702 295.924 248.713 295.924C245.476 295.924 242.285 295.339 239.093 294.89C234.283 294.215 229.472 293.316 224.707 292.507C223.583 292.327 222.459 292.147 221.29 292.012C219.672 291.833 218.009 291.743 216.39 291.473C213.288 291.023 210.186 290.529 207.039 290.169C203.623 289.765 200.251 289.18 196.79 288.866C195.441 288.731 194.092 288.596 192.744 288.371C190.181 288.011 187.664 287.607 185.101 287.247C182.629 286.888 180.156 286.528 177.684 286.123C175.436 285.764 173.143 285.449 170.895 285.089C167.928 284.595 164.961 284.145 161.994 283.561C161.275 283.426 160.6 283.381 159.881 283.336C159.746 283.336 159.611 283.381 159.432 283.381C155.7 283.201 151.969 283.696 148.283 283.831C146.215 283.876 144.147 284.145 142.079 284.325C139.292 284.55 136.504 284.82 133.717 285.044C131.155 285.269 128.547 285.269 125.985 285.629C123.782 285.943 121.534 285.764 119.376 286.258C118.522 286.438 117.848 286.078 117.218 285.539C115.915 284.415 114.656 283.246 113.352 282.122C110.745 279.874 108.182 277.582 105.575 275.334C101.933 272.187 98.2921 269.085 94.6058 265.983C91.7736 263.556 88.9413 261.128 85.9743 258.88C84.9853 258.161 83.9513 257.532 82.7825 257.172L82.6026 257.082Z" fill="#696D65"/>
<path d="M395.853 313.053C395.853 316.874 396.482 320.605 397.021 324.337C397.336 326.764 397.696 329.147 398.055 331.529C398.55 334.856 399.044 338.183 399.584 341.51C399.764 342.589 400.033 343.622 400.123 344.656C400.213 346.455 400.753 348.163 401.427 349.781C403.315 350.186 405.248 350.321 407.181 350.546C411.003 351.04 414.779 350.815 418.6 350.86C420.488 350.86 422.331 350.591 423.995 349.647C427.996 347.309 430.468 343.937 430.513 339.217C430.603 332.024 430.513 324.831 430.513 317.683C430.513 316.559 430.423 315.39 430.738 314.267C430.828 313.997 430.828 313.682 430.783 313.412C430.378 309.771 431.188 306.13 430.783 302.488C430.334 298.847 430.558 295.16 430.423 291.519C430.423 291.159 430.423 290.8 430.423 290.44C430.334 289.631 430.693 289.226 431.412 289.002C432.986 288.507 434.424 287.698 435.818 286.799C438.65 284.956 440.044 282.393 439.999 279.021C439.954 274.841 438.47 271.109 435.998 267.872C432.986 263.916 429.524 260.365 425.254 257.713C423.051 256.364 420.893 254.97 418.69 253.622C417.566 252.902 416.262 252.767 415.004 252.588C411.677 252.183 408.305 251.778 404.979 251.374C403.18 251.149 401.427 250.969 399.629 250.834C398.325 250.744 397.066 250.475 395.808 250.34C392.796 250.07 389.829 249.576 386.862 249.216C385.243 248.991 383.58 248.856 381.961 248.676C380.253 248.497 378.545 248.362 376.836 248.137C376.432 248.092 376.027 247.912 375.623 247.777C373.645 247.912 371.667 247.553 369.733 247.238C368.295 247.238 366.856 247.013 365.418 246.743C365.283 246.743 365.148 246.833 365.013 246.833C362.046 246.519 359.034 246.204 356.067 245.844C353.46 245.53 350.807 245.035 348.2 244.855C345.592 244.72 343.12 244.136 340.602 243.507C339.209 243.192 337.815 242.832 336.421 242.562C333.275 241.978 330.083 241.484 326.891 240.854C325.902 240.674 324.913 240.584 324.014 240C323.564 240 323.115 240 322.71 239.775C322.485 239.91 322.35 239.775 322.215 239.64C321.361 239.461 320.507 239.236 319.653 239.056C314.124 237.932 308.684 236.538 303.244 235.1C301.761 234.695 300.187 234.381 298.794 233.616H298.749C298.254 233.616 297.715 233.616 297.265 233.481C294.658 232.672 291.96 232.268 289.308 231.683C285.667 230.874 282.025 230.065 278.339 229.435C275.776 229.031 273.304 228.267 270.786 227.817C266.875 227.098 263.009 226.468 259.053 226.648C258.693 226.648 258.334 226.648 257.974 226.648C253.793 226.423 249.882 227.502 246.016 228.896C242.509 230.155 239.767 232.447 237.879 235.639C234.777 240.764 232.979 246.339 233.428 252.453C233.518 253.397 233.698 254.296 234.058 255.15C235.496 258.477 237.34 261.534 239.902 264.096C241.88 266.074 244.038 267.872 246.331 269.491C247.499 270.3 248.803 270.929 250.242 271.244C252.624 271.784 255.052 272.053 257.435 272.413C260.132 272.773 262.829 273.087 265.527 273.447C267.505 273.672 269.528 273.941 271.506 274.121C273.664 274.346 275.821 274.391 277.934 274.661C281.351 275.065 284.768 275.425 288.229 275.47C289.128 275.47 289.937 275.695 290.792 275.875C291.421 275.155 292.23 274.975 293.129 275.02C295.467 275.065 297.805 275.065 300.187 275.38C302.93 275.74 305.717 275.425 308.504 275.83C311.246 276.189 314.034 275.83 316.821 276.279C318.304 276.549 319.833 276.279 321.316 276.324C321.901 276.324 322.485 276.324 323.025 276.504C323.789 276.774 324.598 276.729 325.362 276.774C343.345 276.998 361.327 276.279 379.309 276.369C383.984 276.549 388.615 275.964 393.29 275.875C393.425 275.875 393.56 275.875 393.74 275.875C395.808 275.38 397.876 275.605 399.944 275.47C400.303 275.47 400.663 275.425 400.978 275.695C401.023 276.279 400.798 276.819 400.618 277.358C399.719 280.415 399.629 283.427 401.067 286.349C401.517 287.248 401.877 288.192 402.281 289.091C403.405 291.474 404.529 293.902 405.698 296.284C406.282 297.453 406.102 298.442 405.428 299.521C402.776 303.522 400.168 307.568 397.516 311.569C397.111 312.154 396.752 312.783 396.077 313.098L395.853 313.053ZM401.562 275.245C401.562 274.526 401.832 273.986 402.506 273.717C402.821 273.582 403.18 273.357 403.495 273.357C405.203 273.357 406.957 273.132 408.665 273.492C409.429 273.672 410.193 273.762 411.003 273.762C411.722 273.762 412.441 273.762 413.161 273.762C414.509 273.807 415.633 274.256 416.622 275.2C417.926 276.414 419.364 277.493 420.758 278.617C421.927 279.561 423.051 280.55 424.22 281.494C425.658 282.663 427.052 283.922 428.535 285.045C429.479 285.765 429.749 286.574 429.614 287.653C429.434 288.912 428.49 289.406 427.277 288.957C425.703 288.372 424.579 287.068 423.275 286.079C420.308 283.832 417.431 281.449 414.509 279.156C413.116 278.077 411.542 277.403 409.744 277.583C407.631 277.808 405.653 277.043 403.54 277.088C403.225 277.088 402.866 276.864 402.551 276.729C401.877 276.459 401.562 275.919 401.607 275.2L401.562 275.245Z" fill="#FFB68A"/>
<path d="M290.657 275.919C289.803 275.739 288.994 275.514 288.094 275.514C284.633 275.514 281.216 275.11 277.8 274.705C275.642 274.48 273.529 274.39 271.371 274.166C269.393 273.986 267.37 273.716 265.392 273.491C262.695 273.177 259.997 272.817 257.3 272.457C254.872 272.143 252.49 271.828 250.107 271.288C248.668 270.974 247.365 270.344 246.196 269.535C243.903 267.917 241.745 266.119 239.767 264.14C237.205 261.533 235.362 258.476 233.923 255.194C233.563 254.34 233.339 253.441 233.294 252.497C232.844 246.383 234.642 240.854 237.744 235.684C239.632 232.537 242.375 230.244 245.881 228.94C249.747 227.547 253.703 226.468 257.839 226.693C258.199 226.693 258.559 226.693 258.918 226.693C262.874 226.513 266.786 227.142 270.652 227.861C273.214 228.311 275.687 229.075 278.204 229.48C281.891 230.109 285.532 230.918 289.173 231.728C291.826 232.312 294.523 232.717 297.13 233.526C297.58 233.661 298.12 233.661 298.614 233.706C298.569 233.391 298.479 233.076 298.434 232.806C298.299 232.627 298.12 232.492 298.03 232.267C296.276 228.626 293.354 225.883 290.342 223.321C287.87 221.253 285.217 219.41 282.16 218.151C279.643 217.117 277.125 216.038 274.608 215.049C270.382 213.431 265.931 212.532 261.481 211.632C258.109 210.958 254.692 210.509 251.276 210.239C247.769 209.924 244.263 209.564 240.756 209.52C238.509 209.52 236.306 209.654 234.103 209.969C229.787 210.643 225.471 211.318 221.111 211.947C217.694 212.442 214.277 212.891 210.861 213.386C204.163 214.33 197.464 215.094 190.946 216.847C182.089 219.23 173.188 221.568 164.287 223.905C159.477 225.164 154.711 226.378 149.901 227.637C149.092 227.861 148.193 227.996 147.474 228.491C148.103 231.143 148.687 233.795 149.317 236.448C150.351 241.078 151.385 245.664 152.419 250.294C154.127 257.847 155.79 265.399 157.454 272.952C158.218 276.368 159.252 279.74 159.567 283.247C160.286 283.247 160.96 283.336 161.68 283.471C164.647 284.056 167.614 284.505 170.581 285C172.828 285.359 175.121 285.719 177.369 286.034C179.842 286.393 182.314 286.753 184.787 287.158C187.349 287.517 189.867 287.922 192.429 288.282C193.778 288.461 195.126 288.641 196.475 288.776C199.892 289.091 203.308 289.675 206.725 290.08C209.872 290.439 212.974 290.934 216.076 291.384C217.694 291.608 219.357 291.698 220.976 291.923C222.1 292.058 223.269 292.238 224.392 292.417C229.203 293.227 233.968 294.126 238.778 294.8C241.97 295.25 245.162 295.834 248.399 295.834C249.388 295.834 250.377 296.104 251.366 296.194C254.648 296.598 257.884 297.003 261.166 297.408C261.661 296.733 262.425 296.508 263.144 296.149C265.032 295.16 266.965 294.261 268.764 293.002C273.439 289.765 278.114 286.483 282.79 283.202C284.138 281.628 287.87 278.257 290.072 276.728C290.252 276.458 290.387 276.189 290.567 275.919H290.657Z" fill="#8989DE"/>
<path d="M159.701 283.247C159.342 279.74 158.308 276.369 157.588 272.952C155.925 265.4 154.262 257.847 152.553 250.295C151.519 245.664 150.485 241.079 149.451 236.448C148.867 233.796 148.238 231.144 147.608 228.491C145.855 228.491 144.192 229.076 142.618 229.66C139.516 230.784 136.369 231.818 133.222 232.672C128.997 233.841 124.906 235.369 120.86 237.033C118.927 237.797 117.038 238.606 115.105 239.415C109.126 241.888 103.372 244.765 97.7974 248.047C96.9882 248.541 96.0442 248.676 95.235 249.126C93.122 250.205 90.9642 251.149 88.8962 252.363C86.9631 253.486 85.2099 254.835 83.3667 256.094C83.0521 256.319 82.8273 256.768 82.5575 257.083C83.7264 257.443 84.7603 258.027 85.7493 258.791C88.7614 261.039 91.5486 263.467 94.3808 265.894C98.0672 268.996 101.709 272.098 105.35 275.245C107.957 277.493 110.565 279.74 113.127 282.033C114.431 283.157 115.735 284.281 116.993 285.45C117.623 285.989 118.297 286.394 119.151 286.169C121.354 285.675 123.557 285.899 125.76 285.54C128.322 285.18 130.885 285.18 133.492 284.955C136.279 284.731 139.067 284.461 141.854 284.236C143.922 284.056 145.99 283.831 148.058 283.742C151.789 283.652 155.475 283.112 159.207 283.292C159.342 283.292 159.476 283.292 159.656 283.247H159.701Z" fill="#FFB68A"/>
<path d="M369.643 247.326C371.576 247.686 373.554 248.001 375.533 247.866C375.892 243.595 375.533 239.414 374.139 235.323C371.756 228.22 367.171 222.826 360.787 219.005C357.236 216.892 353.459 215.408 349.413 214.509C348.874 214.374 348.289 214.284 347.705 214.284C338.444 214.284 329.408 215.633 320.642 218.735C317.135 219.994 314.033 221.882 310.976 223.905C306.796 226.692 302.705 229.659 298.793 232.806C298.749 233.121 298.704 233.39 298.659 233.705C300.052 234.469 301.581 234.784 303.109 235.188C308.549 236.627 313.988 238.021 319.518 239.145C319.563 238.56 320.057 238.335 320.507 238.111C322.71 236.942 325.047 235.998 327.43 235.233C330.667 234.244 333.904 233.57 337.32 233.615C338.399 233.615 339.478 233.615 340.557 233.615C343.165 233.48 345.682 233.975 348.2 234.514C351.706 235.278 355.078 236.582 358.225 238.201C360.562 239.414 362.72 240.943 364.878 242.516C366.362 243.55 367.575 244.854 368.879 246.113C369.239 246.472 369.598 246.832 369.643 247.371V247.326Z" fill="#894100"/>
<path d="M298.704 233.662C298.748 233.347 298.793 233.077 298.838 232.763C298.704 232.763 298.569 232.763 298.479 232.763C298.524 233.077 298.614 233.347 298.659 233.662H298.704Z" fill="#E7A37B"/>
<path d="M290.207 276.728C288.004 278.301 284.273 281.628 282.924 283.201C284.183 283.92 285.397 284.64 286.656 285.359C288.948 286.708 291.106 288.236 293.129 289.944C293.714 290.439 293.759 290.664 293.489 291.428C293.219 292.102 292.949 292.732 292.635 293.406C291.646 295.699 291.196 298.036 291.915 300.509C292.185 300.599 292.41 300.824 292.68 300.824C294.118 300.914 295.512 301.093 296.95 301.273C300.097 301.678 303.244 301.903 306.346 302.262C309.493 302.622 312.595 303.071 315.742 303.431C318.709 303.791 321.721 304.06 324.733 304.42C327.925 304.78 331.117 305.229 334.353 305.589C337.32 305.949 340.332 306.263 343.345 306.578C344.199 306.668 345.053 306.803 345.907 306.938C345.862 306.578 345.862 306.218 345.727 305.904C344.244 301.183 342.76 296.463 341.277 291.743C340.872 290.529 340.692 289.18 340.063 288.101C339.388 286.932 337.95 286.438 336.826 285.629C333.274 283.111 329.633 280.639 326.037 278.121C325.902 278.301 325.722 278.436 325.677 278.616C325.587 279.2 325.542 279.785 325.003 280.099C324.508 280.369 324.014 280.684 323.384 280.639C322.53 280.639 321.631 280.729 320.822 280.504C319.743 280.189 318.709 280.234 317.63 280.189C316.326 280.189 315.023 280.369 313.764 280.099C312.1 279.74 310.482 279.829 308.864 279.785C307.92 279.785 306.976 279.874 306.076 279.65C305.087 279.38 304.098 279.38 303.109 279.38C301.761 279.38 300.367 279.56 299.018 279.29C297.58 278.975 296.186 278.975 294.748 278.975C294.298 278.975 293.893 278.975 293.444 278.975C291.511 278.706 291.151 278.481 290.117 276.817L290.207 276.728Z" fill="#FFB58A"/>
<path d="M326.037 278.076C329.633 280.549 333.23 283.022 336.826 285.584C337.95 286.348 339.344 286.888 340.063 288.057C340.692 289.136 340.872 290.484 341.277 291.698C342.76 296.418 344.244 301.139 345.727 305.859C345.817 306.174 345.817 306.578 345.907 306.893C348.245 307.163 350.537 307.477 352.875 307.747C354.718 307.972 356.562 308.107 358.405 308.287C358.809 307.747 359.484 307.567 360.023 307.298C367.935 303.027 373.375 296.553 376.747 288.326C378.32 284.505 379.489 280.594 379.174 276.413C361.192 276.323 343.21 277.042 325.228 276.818C325.183 277.447 325.857 277.627 326.082 278.121L326.037 278.076Z" fill="#894200"/>
<path d="M323.924 240.089C324.778 240.628 325.812 240.763 326.801 240.943C329.948 241.527 333.139 242.067 336.331 242.651C337.725 242.921 339.119 243.28 340.512 243.595C343.03 244.179 345.502 244.764 348.11 244.944C350.762 245.079 353.369 245.618 355.977 245.933C358.944 246.292 361.956 246.607 364.923 246.922C365.058 246.922 365.193 246.922 365.328 246.832C365.193 245.798 364.204 245.573 363.529 245.079C360.293 242.561 356.741 240.583 352.83 239.234C349.323 238.021 345.727 237.121 341.951 237.076C341.546 237.076 341.097 236.987 340.692 236.852C339.703 236.582 338.714 236.582 337.725 236.852C337.23 236.987 336.736 237.076 336.241 237.076C334.713 237.032 333.229 237.211 331.791 237.526C329.049 238.066 326.351 238.695 323.924 240.089Z" fill="#894200"/>
<path d="M323.924 240.09C326.351 238.651 329.094 238.067 331.791 237.527C333.275 237.258 334.758 237.033 336.242 237.078C336.736 237.078 337.231 236.988 337.725 236.853C338.714 236.583 339.703 236.583 340.692 236.853C341.097 236.943 341.546 237.078 341.951 237.078C345.727 237.078 349.324 237.977 352.83 239.236C356.696 240.584 360.293 242.562 363.53 245.08C364.159 245.574 365.193 245.799 365.328 246.833C366.766 247.103 368.205 247.328 369.644 247.328C369.644 246.788 369.284 246.429 368.879 246.069C367.621 244.81 366.362 243.551 364.878 242.472C362.72 240.944 360.563 239.371 358.225 238.157C355.033 236.538 351.706 235.235 348.2 234.47C345.682 233.931 343.165 233.436 340.557 233.571C339.478 233.616 338.399 233.571 337.321 233.571C333.949 233.571 330.667 234.201 327.43 235.19C325.003 235.909 322.71 236.853 320.507 238.067C320.058 238.292 319.563 238.471 319.518 239.101C320.372 239.281 321.226 239.505 322.081 239.685C322.26 239.73 322.395 239.775 322.575 239.82C322.98 240 323.429 240.09 323.879 240.045L323.924 240.09Z" fill="#5E3816"/>
<path d="M326.037 278.077C325.812 277.582 325.138 277.402 325.183 276.773C324.418 276.773 323.609 276.773 322.845 276.503C322.306 276.323 321.721 276.323 321.137 276.323C319.653 276.323 318.08 276.503 316.641 276.278C313.854 275.829 311.067 276.188 308.324 275.829C305.537 275.469 302.75 275.739 300.008 275.379C297.67 275.064 295.332 275.064 292.95 275.02C292.051 275.02 291.241 275.154 290.612 275.874C290.432 276.143 290.297 276.413 290.117 276.683C291.151 278.346 291.466 278.571 293.444 278.841C293.849 278.886 294.298 278.841 294.748 278.841C296.186 278.841 297.58 278.841 299.019 279.155C300.322 279.425 301.716 279.245 303.11 279.245C304.099 279.245 305.088 279.245 306.077 279.515C306.976 279.74 307.92 279.65 308.864 279.65C310.482 279.695 312.146 279.65 313.764 279.965C314.978 280.234 316.326 280.055 317.63 280.055C318.709 280.055 319.743 280.055 320.822 280.369C321.631 280.594 322.53 280.459 323.385 280.504C323.969 280.504 324.508 280.234 325.003 279.965C325.587 279.65 325.587 279.021 325.677 278.481C325.677 278.301 325.902 278.121 326.037 277.987V278.077Z" fill="#E7A37B"/>
<path d="M401.562 275.245C401.562 275.965 401.831 276.504 402.506 276.774C402.82 276.909 403.18 277.133 403.495 277.133C405.563 277.088 407.586 277.853 409.699 277.628C411.497 277.403 413.07 278.078 414.464 279.201C417.386 281.494 420.263 283.877 423.23 286.125C424.534 287.114 425.658 288.372 427.231 289.002C428.445 289.451 429.389 289.002 429.569 287.698C429.704 286.619 429.434 285.765 428.49 285.091C427.007 283.967 425.613 282.753 424.174 281.539C423.005 280.595 421.882 279.606 420.713 278.662C419.319 277.538 417.881 276.459 416.577 275.245C415.588 274.301 414.419 273.852 413.115 273.807C412.396 273.807 411.677 273.807 410.957 273.807C410.148 273.807 409.384 273.717 408.62 273.537C406.911 273.177 405.203 273.357 403.45 273.402C403.09 273.402 402.776 273.627 402.461 273.762C401.786 274.032 401.472 274.571 401.517 275.29L401.562 275.245Z" fill="#E7A47C"/>
<path d="M322.62 239.865C322.44 239.82 322.305 239.775 322.125 239.729C322.26 239.91 322.395 240 322.62 239.865Z" fill="#82623E"/>
</svg>
