<svg width="500" height="500" viewBox="0 0 500 500" fill="none" xmlns="http://www.w3.org/2000/svg">
<path d="M81.3167 261.967C79.9141 262.179 78.8516 263.029 77.874 264.007C74.6864 267.28 71.9238 270.892 69.5437 274.802C65.166 281.9 62.2334 289.508 60.8309 297.711C59.0883 307.869 59.8108 317.814 64.0185 327.292C70.0537 340.85 80.4242 349.138 95.0447 352.028C98.9974 352.793 102.993 352.92 107.03 352.708C108.985 352.58 110.983 352.708 112.938 352.41C115.573 352.028 118.166 351.688 120.801 351.305C121.268 351.22 121.736 351.135 122.203 351.135C127.389 351.008 132.489 350.158 137.589 349.393C139.757 349.053 141.882 348.798 144.049 348.67C147.662 348.458 151.232 348.033 154.802 347.693C156.715 347.523 158.585 347.353 160.497 347.183C165.64 346.673 170.783 346.078 175.883 345.61C181.026 345.1 186.168 344.718 191.311 344.25C196.454 343.783 201.597 343.273 206.739 342.805C210.139 342.508 213.497 342.21 216.897 341.87C219.787 341.573 222.677 341.19 225.61 340.765C226.928 340.595 228.075 340.637 229.265 341.403C233.685 344.25 238.573 346.163 243.631 347.523C247.753 348.628 251.791 350.073 255.999 350.923C261.269 351.985 266.497 353.261 271.767 354.196C276.06 354.961 280.395 355.428 284.73 355.726C292.465 356.278 300.201 356.236 307.978 356.066C313.121 355.938 318.306 355.556 323.449 355.046C327.359 354.621 331.312 354.408 335.222 354.111C340.322 353.728 345.38 353.388 350.48 353.006C353.2 352.793 355.92 352.623 358.598 352.41C362.381 352.113 366.163 351.773 369.988 351.475C372.581 351.263 375.131 351.05 377.724 350.795C379.466 350.625 381.251 350.37 382.909 349.733C382.569 348.628 382.016 347.65 381.846 346.503C381.294 342.678 380.699 338.895 380.104 335.07C379.636 332.01 379.211 328.907 378.744 325.847C378.191 322.234 377.639 318.622 377.596 314.966C376.491 314.329 375.301 314.159 374.069 314.159C371.688 314.159 369.351 313.819 366.971 313.521C361.701 312.926 356.473 312.246 351.203 311.609C348.185 311.226 345.167 310.844 342.107 310.461C340.237 310.291 338.367 310.164 336.497 309.951C334.414 309.739 332.374 309.441 330.292 309.186C327.869 308.931 325.447 308.719 323.024 308.336C321.621 308.124 320.176 308.039 318.774 307.869C315.884 307.486 312.994 307.146 310.103 306.806C307.213 306.466 304.323 306.211 301.433 305.871C298.628 305.531 295.78 305.149 292.975 304.809C290 304.469 287.025 304.256 284.092 303.873C282.732 303.703 281.415 303.533 280.055 303.448C279.8 303.448 279.587 303.236 279.332 303.151C277.632 303.278 275.975 302.938 274.275 302.768C268.324 302.173 262.417 301.621 256.466 300.983C254.469 300.771 252.429 300.686 250.431 300.218C247.328 299.836 244.268 299.453 241.166 299.071C240.231 298.943 239.296 298.731 238.361 298.731C235.3 298.731 232.283 298.178 229.265 297.753C224.718 297.116 220.17 296.266 215.665 295.501C214.602 295.331 213.54 295.161 212.434 295.033C210.904 294.863 209.332 294.778 207.802 294.523C204.869 294.098 201.937 293.631 198.961 293.291C195.731 292.908 192.544 292.356 189.271 292.058C187.996 291.931 186.721 291.803 185.446 291.591C183.023 291.25 180.643 290.868 178.221 290.528C175.883 290.188 173.545 289.848 171.208 289.465C169.083 289.125 166.915 288.828 164.79 288.488C161.985 288.02 159.18 287.595 156.375 287.043C155.695 286.915 155.057 286.873 154.377 286.83C154.25 286.83 154.122 286.873 153.952 286.873C150.424 286.703 146.897 287.17 143.412 287.298C141.457 287.34 139.502 287.595 137.546 287.765C134.911 287.978 132.276 288.233 129.641 288.445C127.219 288.658 124.753 288.658 122.331 288.998C120.248 289.295 118.123 289.125 116.083 289.593C115.276 289.763 114.638 289.423 114.043 288.913C112.81 287.85 111.62 286.745 110.388 285.683C107.923 283.558 105.5 281.39 103.035 279.265C99.5924 276.29 96.1498 273.357 92.6647 270.425C89.9871 268.13 87.3094 265.834 84.5043 263.709C83.5693 263.029 82.5917 262.434 81.4867 262.094L81.3167 261.967Z" fill="#696D65"/>
<path d="M377.469 314.882C377.469 318.537 378.064 322.15 378.617 325.762C379.084 328.822 379.509 331.925 379.977 334.985C380.529 338.81 381.124 342.593 381.719 346.418C381.889 347.566 382.442 348.586 382.782 349.648C384.567 350.031 386.394 350.158 388.222 350.371C391.282 350.753 394.342 350.583 397.36 350.668C400.76 350.796 403.523 349.436 406.073 347.311C407.433 346.121 408.495 344.761 409.048 343.018C409.175 342.636 409.345 342.253 409.515 341.913C410.153 340.808 410.28 339.618 410.28 338.385C410.28 332.478 410.323 326.57 410.28 320.662C410.28 317.687 410.748 314.712 410.578 311.694C410.578 310.972 410.663 310.207 410.408 309.484C409.175 310.419 407.773 310.504 406.37 310.249C404.16 309.909 401.993 309.527 399.74 309.484C399.485 309.484 399.187 309.442 398.932 309.357C398.337 309.144 397.742 309.059 397.147 309.144C393.96 309.399 390.815 308.719 387.627 308.719C386.904 308.719 386.309 308.464 385.757 308.039C385.374 307.742 385.289 307.189 385.544 306.764C386.309 305.574 387.457 305.192 388.732 305.532C390.007 305.872 391.282 305.702 392.557 305.914C394.3 306.212 396.042 306.297 397.785 306.339C397.997 306.339 398.167 306.424 398.38 306.509C398.975 306.764 399.57 306.722 400.207 306.722C401.227 306.722 402.248 306.722 403.268 306.722C404.245 306.722 405.18 306.722 406.03 307.232C406.455 307.487 406.923 307.572 407.39 307.529C408.538 307.359 409.515 307.784 410.408 308.379C410.578 307.699 410.875 307.232 411.683 307.062C413.17 306.679 414.658 306.212 415.976 305.319C415.891 305.149 415.806 304.936 415.678 304.809C414.361 303.789 412.958 302.811 411.768 301.536C411.598 301.324 411.343 301.196 411.13 301.026C410.11 300.431 409.345 299.581 408.623 298.689C406.413 296.011 404.16 293.419 401.695 290.996C401.227 290.528 400.802 290.018 400.377 289.466C399.655 288.573 398.89 287.681 397.997 287.001C395.66 285.258 393.28 283.601 390.9 281.943C389.625 281.051 388.307 280.243 387.074 279.308C385.969 278.458 384.694 277.735 383.462 277.013C383.079 276.758 382.612 276.63 382.144 276.545C379.764 275.993 377.427 275.483 375.046 274.93C370.754 273.953 366.504 272.975 362.211 272.083C361.403 271.913 361.021 271.53 360.766 270.85C360.001 270.978 359.278 270.765 358.556 270.595C350.055 268.555 341.555 266.557 333.055 264.517C331.185 264.092 329.4 263.54 327.657 262.732C319.497 259.035 311.336 255.337 303.219 251.639C302.751 251.427 302.198 251.299 301.816 250.832C300.796 250.619 299.861 250.109 298.926 249.599C295.101 248.197 291.446 246.369 287.79 244.584C286.94 244.159 286.728 243.394 286.6 242.586C285.878 243.606 285.835 243.606 285.028 243.224C283.923 242.714 282.86 242.119 281.713 241.651C275.55 239.016 269.26 236.679 262.799 234.809C257.997 233.406 253.194 232.599 248.179 232.811C245.374 232.939 242.739 233.831 239.976 234.214C239.763 234.214 239.593 234.384 239.423 234.469C237.171 235.446 235.046 236.636 233.388 238.549C232.666 239.356 231.858 240.121 231.178 240.929C230.073 242.204 228.968 243.522 228.245 245.052C226.248 249.259 224.845 253.594 225.058 258.355C225.143 260.862 225.823 263.115 227.14 265.24C229.053 268.3 231.391 271.02 234.281 273.23C237.681 275.865 241.378 277.948 245.629 278.968C248.264 279.605 250.899 280.158 253.534 280.881C256.467 281.731 259.357 282.623 262.374 283.261C265.349 283.898 268.282 284.833 271.3 285.173C272.065 285.258 272.957 285.301 273.595 285.896C274.402 286.448 275.252 287.043 276.102 287.596C276.145 287.256 276.145 286.916 276.272 286.576C276.485 286.066 276.91 285.768 277.377 285.938C278.993 286.491 280.735 286.151 282.393 286.576C283.2 286.788 284.093 287.001 284.985 287.043C286.388 287.171 287.79 287.298 289.193 287.511C291.531 287.851 293.826 288.403 296.163 288.616C298.458 288.828 300.668 289.381 302.963 289.593C305.301 289.806 307.596 290.401 309.934 290.698C312.611 290.996 315.246 291.506 317.924 291.888C318.859 292.016 319.794 292.313 320.729 292.313C322.387 292.398 323.917 292.823 325.489 293.163C325.659 292.823 325.957 292.653 326.297 292.696C327.232 292.781 328.167 292.866 329.102 292.994C331.355 293.419 333.607 293.971 335.86 294.269C338.622 294.609 341.3 295.289 343.978 295.926C347.803 296.819 351.585 297.796 355.453 298.476C356.133 298.604 356.771 298.774 357.451 298.901C360.893 299.539 364.336 300.176 367.779 300.856C371.349 301.579 374.919 302.301 378.489 303.109C380.487 303.534 382.399 304.086 384.354 304.639C384.907 304.809 385.034 305.021 384.737 305.532C383.419 307.742 382.017 309.909 380.699 312.077C380.274 312.757 379.722 313.394 379.169 313.947C378.744 314.414 378.234 314.754 377.597 314.839L377.469 314.882Z" fill="#FFB68A"/>
<path d="M273.424 285.938C272.787 285.343 271.894 285.3 271.129 285.215C268.069 284.875 265.179 283.94 262.204 283.303C259.229 282.665 256.296 281.773 253.364 280.923C250.771 280.158 248.093 279.648 245.458 279.01C241.251 277.99 237.553 275.95 234.11 273.272C231.22 271.02 228.883 268.342 226.97 265.282C225.652 263.157 224.972 260.904 224.887 258.397C224.717 253.636 226.077 249.301 228.075 245.094C228.798 243.564 229.945 242.246 231.008 240.971C231.73 240.163 232.538 239.398 233.218 238.591C234.875 236.678 237 235.488 239.253 234.511C239.423 234.426 239.636 234.298 239.806 234.256C242.526 233.831 245.203 232.981 248.008 232.853C253.024 232.598 257.869 233.406 262.629 234.851C269.089 236.763 275.379 239.058 281.542 241.693C282.647 242.161 283.752 242.756 284.857 243.266C285.665 243.649 285.707 243.649 286.43 242.629C286.132 241.481 285.877 240.291 285.58 239.101C285.027 238.676 284.73 238.081 284.39 237.486C283.922 236.678 283.412 235.828 282.817 235.106C280.65 232.683 278.355 230.346 275.677 228.475C270.704 224.99 265.094 222.908 259.399 221.123C255.191 219.805 250.856 218.955 246.478 218.318C243.248 217.85 240.018 217.68 236.745 217.297C234.578 217.042 232.41 217.043 230.243 217C227.99 217 225.78 217.255 223.57 217.638C220.425 218.148 217.28 218.573 214.092 219.04C210.734 219.55 207.377 220.018 204.019 220.485C201.554 220.825 199.046 221.165 196.539 221.463C193.776 221.803 191.056 222.27 188.336 222.865C182.938 224.013 177.711 225.585 172.355 226.988C164.195 229.07 156.035 231.196 147.917 233.321C146.174 233.788 144.347 234.086 142.689 234.936C143.284 237.443 143.837 239.951 144.432 242.459C145.409 246.836 146.387 251.171 147.364 255.549C148.979 262.689 150.552 269.83 152.124 276.97C152.847 280.2 153.825 283.388 154.122 286.703C154.802 286.703 155.44 286.788 156.12 286.915C158.925 287.468 161.73 287.893 164.535 288.36C166.66 288.7 168.828 289.04 170.953 289.338C173.29 289.678 175.628 290.018 177.966 290.4C180.388 290.74 182.768 291.123 185.191 291.463C186.466 291.633 187.741 291.803 189.016 291.931C192.246 292.228 195.476 292.781 198.706 293.163C201.681 293.503 204.614 293.971 207.547 294.396C209.077 294.608 210.649 294.693 212.179 294.906C213.242 295.033 214.347 295.203 215.41 295.373C219.957 296.138 224.462 296.988 229.01 297.626C232.028 298.051 235.045 298.603 238.105 298.603C239.041 298.603 239.976 298.858 240.911 298.943C244.013 299.326 247.073 299.708 250.176 300.091C250.643 299.411 251.408 299.241 252.046 298.901C255.701 296.903 259.399 294.906 263.096 292.866C266.709 290.868 270.194 288.615 273.339 285.938H273.424Z" fill="#8989DE"/>
<path d="M154.207 286.704C153.867 283.389 152.889 280.201 152.209 276.971C150.637 269.83 149.064 262.69 147.449 255.55C146.472 251.172 145.494 246.837 144.517 242.459C143.964 239.952 143.369 237.444 142.774 234.937C141.117 234.937 139.544 235.489 138.056 236.042C135.124 237.104 132.149 238.082 129.174 238.889C125.178 239.994 121.311 241.439 117.486 243.012C115.658 243.734 113.873 244.499 112.045 245.264C106.393 247.602 100.952 250.322 95.6822 253.425C94.9171 253.892 94.0246 254.02 93.2595 254.445C91.262 255.465 89.2219 256.357 87.2668 257.505C85.4392 258.568 83.7817 259.843 82.0391 261.033C81.7416 261.245 81.5291 261.67 81.2741 261.968C82.3791 262.308 83.3567 262.86 84.2917 263.583C87.1393 265.708 89.7744 268.003 92.4521 270.298C95.9372 273.231 99.3798 276.163 102.822 279.138C105.288 281.263 107.753 283.389 110.175 285.556C111.408 286.619 112.64 287.681 113.83 288.786C114.425 289.296 115.063 289.679 115.87 289.466C117.953 288.999 120.036 289.211 122.118 288.871C124.541 288.531 126.963 288.531 129.429 288.319C132.064 288.106 134.699 287.851 137.334 287.639C139.289 287.469 141.244 287.256 143.199 287.171C146.727 287.086 150.212 286.576 153.74 286.746C153.867 286.746 153.995 286.746 154.165 286.704H154.207Z" fill="#FFB68A"/>
<path d="M285.622 239.101C285.92 240.291 286.175 241.439 286.473 242.629C286.6 243.436 286.813 244.201 287.663 244.626C291.318 246.411 294.973 248.196 298.798 249.641C298.798 249.131 299.053 248.706 299.478 248.451C301.136 247.261 302.708 245.986 304.493 245.009C307.298 243.521 310.188 242.119 313.249 241.226C315.969 240.461 318.731 239.823 321.621 239.866C322.896 239.866 324.214 239.951 325.489 239.866C327.317 239.738 329.144 239.993 330.929 240.376C335.179 241.269 339.26 242.671 343.042 244.881C347.675 247.559 351.755 250.831 355.028 255.082C355.538 255.719 356.133 256.272 356.558 256.994C356.728 257.292 357.068 257.419 357.408 257.462C358.428 254.104 358.598 250.619 358.13 247.176C356.898 237.443 351.798 230.303 343.297 225.5C341.64 224.565 339.897 223.843 338.112 223.12C334.967 221.888 331.737 221.335 328.337 221.59C321.961 222.058 315.629 222.865 309.466 224.735C305.726 225.883 302.241 227.413 298.926 229.538C294.293 232.556 289.83 235.743 285.537 239.186L285.622 239.101Z" fill="#824414"/>
<path d="M360.638 270.808C360.893 271.488 361.318 271.87 362.083 272.04C366.376 272.933 370.626 273.953 374.919 274.888C377.299 275.44 379.679 275.95 382.017 276.503C382.484 276.588 382.952 276.758 383.334 276.97C384.567 277.693 385.799 278.373 386.947 279.265C388.179 280.243 389.497 281.05 390.772 281.9C393.152 283.558 395.575 285.216 397.87 286.958C398.762 287.638 399.57 288.531 400.25 289.423C400.675 289.976 401.1 290.486 401.567 290.953C404.033 293.376 406.285 295.969 408.495 298.646C409.218 299.539 409.983 300.389 411.003 300.984C411.215 301.111 411.47 301.281 411.64 301.494C412.788 302.769 414.191 303.704 415.551 304.766C415.678 304.894 415.763 305.106 415.848 305.276C419.418 305.574 419.546 305.446 422.351 303.279C425.028 301.196 426.984 298.519 428.896 295.799C429.874 294.439 430.384 292.908 430.129 291.208C430.044 290.698 430.129 290.146 430.129 289.593C428.896 287.766 427.664 285.896 425.963 284.408C425.921 284.366 425.878 284.323 425.836 284.238C424.688 282.453 423.073 281.093 421.756 279.478C420.311 277.693 418.568 276.163 417.166 274.335C415.763 272.508 414.021 270.978 412.448 269.277C411.683 268.427 410.748 267.917 409.6 267.917C407.688 268.597 405.605 268.725 403.65 269.15C402.333 269.447 400.972 269.617 399.655 269.873C398.507 270.085 397.402 270.085 396.255 269.66C392.685 268.385 388.944 267.662 385.247 266.77C377.937 265.027 370.626 263.285 363.273 261.627C361.106 261.117 358.981 260.437 356.728 260.225C356.558 260.395 356.431 260.522 356.261 260.692C356.261 261.415 356.728 261.925 357.026 262.52C358.556 265.155 359.873 267.875 360.468 270.85L360.638 270.808Z" fill="#E6A37C"/>
<path d="M409.685 267.917C410.833 267.917 411.768 268.469 412.533 269.277C414.105 270.977 415.805 272.507 417.25 274.334C418.653 276.162 420.396 277.692 421.841 279.477C423.158 281.092 424.773 282.495 425.921 284.237C425.921 284.28 426.006 284.365 426.048 284.407C427.748 285.895 428.981 287.765 430.213 289.593C431.276 288.785 431.829 287.595 432.466 286.532C434.294 283.6 436.036 280.625 437.694 277.607C439.139 274.972 440.116 272.167 439.989 269.064C439.904 267.237 439.904 265.409 439.564 263.624C438.501 257.886 432.509 254.571 427.536 255.549C423.753 256.314 420.566 258.014 417.633 260.394C415.04 262.477 412.703 264.857 410.365 267.194C410.11 267.449 409.94 267.704 409.728 267.959L409.685 267.917Z" fill="#FFB68B"/>
<path d="M356.388 260.65C356.558 260.48 356.685 260.353 356.855 260.183C357.068 259.248 357.238 258.312 357.45 257.335C357.11 257.292 356.77 257.165 356.6 256.867C356.218 256.145 355.58 255.592 355.07 254.955C351.798 250.662 347.718 247.432 343.085 244.754C339.302 242.544 335.222 241.142 330.972 240.249C329.187 239.867 327.359 239.612 325.532 239.739C324.257 239.824 322.939 239.739 321.664 239.739C318.816 239.739 316.054 240.334 313.291 241.099C310.189 241.949 307.341 243.352 304.536 244.882C302.751 245.859 301.178 247.135 299.521 248.325C299.138 248.622 298.883 249.005 298.841 249.515C299.733 250.025 300.668 250.535 301.731 250.747C301.943 250.237 302.368 249.897 302.836 249.557C303.516 249.132 304.196 248.665 304.876 248.197C309.891 244.882 315.374 243.097 321.451 242.884C322.982 242.842 324.512 242.672 326.042 242.884C327.444 243.054 328.847 243.054 330.249 243.267C332.332 243.564 334.372 244.117 336.327 244.797C338.665 245.604 341.002 246.539 343.17 247.857C346.145 249.685 348.78 251.81 351.415 254.062C352.988 255.38 354.008 257.165 355.028 258.907C355.41 259.588 355.793 260.183 356.473 260.523L356.388 260.65Z" fill="#5E3816"/>
<path d="M410.323 308.337C409.388 307.742 408.453 307.317 407.305 307.487C406.838 307.572 406.37 307.487 405.945 307.19C405.095 306.68 404.16 306.637 403.182 306.68C402.162 306.68 401.142 306.68 400.122 306.68C399.527 306.68 398.89 306.68 398.295 306.467C398.125 306.382 397.912 306.34 397.7 306.297C395.957 306.255 394.215 306.17 392.472 305.872C391.239 305.66 389.922 305.83 388.647 305.49C387.372 305.15 386.224 305.49 385.459 306.722C385.204 307.147 385.247 307.7 385.672 307.997C386.224 308.422 386.819 308.677 387.542 308.677C390.729 308.677 393.875 309.357 397.062 309.102C397.657 309.06 398.295 309.102 398.847 309.315C399.102 309.4 399.357 309.442 399.655 309.442C401.865 309.485 404.075 309.867 406.285 310.207C407.688 310.42 409.133 310.377 410.323 309.442C410.493 309.06 410.493 308.677 410.323 308.252V308.337Z" fill="#E7A47C"/>
<path d="M279.205 303.023C279.46 303.108 279.673 303.321 279.928 303.321C281.288 303.406 282.605 303.576 283.965 303.746C286.94 304.128 289.915 304.341 292.848 304.681C295.653 305.021 298.501 305.403 301.306 305.743C304.196 306.083 307.086 306.381 309.976 306.678C312.866 307.018 315.756 307.358 318.647 307.741C320.049 307.911 321.494 307.996 322.897 308.208C325.319 308.591 327.742 308.803 330.165 309.058C330.08 307.613 329.4 306.338 328.975 305.021C327.954 301.62 326.807 298.22 325.744 294.863C325.532 294.863 325.277 294.863 325.149 294.99C324.299 295.755 323.279 295.798 322.259 295.67C320.984 295.543 319.709 295.288 318.477 295.118C317.074 294.905 315.671 294.608 314.269 294.48C312.909 294.395 311.549 294.183 310.274 293.928C307.171 293.333 303.984 293.035 300.881 292.483C299.776 292.27 298.628 292.1 297.481 291.973C295.951 291.803 294.421 291.548 292.891 291.293C290.765 290.995 288.64 290.655 286.473 290.358C284.943 290.145 283.413 289.89 281.883 289.677C280.565 289.507 279.205 289.337 277.887 289.21C278.44 289.72 278.95 290.23 279.545 290.698C280.055 291.123 280.608 291.548 281.118 291.973C281.713 292.525 281.713 292.653 281.373 293.375C280.863 294.353 280.353 295.288 279.928 296.265C278.95 298.433 278.525 300.643 279.205 302.981V303.023Z" fill="#FFB58A"/>
<path d="M342.022 310.377C342.49 309.824 343.127 309.654 343.722 309.314C348.015 307.019 351.628 303.832 354.56 299.964C354.9 299.539 355.24 299.114 355.325 298.561C351.458 297.881 347.675 296.904 343.85 296.011C341.172 295.374 338.495 294.694 335.732 294.354C333.48 294.099 331.227 293.504 328.974 293.079C328.039 292.909 327.104 292.866 326.169 292.781C325.787 292.781 325.532 292.909 325.362 293.249C325.702 293.716 325.872 294.269 325.829 294.864C326.892 298.264 328.039 301.622 329.059 305.022C329.484 306.382 330.122 307.614 330.249 309.059C332.332 309.314 334.372 309.612 336.455 309.824C338.325 310.037 340.195 310.164 342.065 310.334L342.022 310.377Z" fill="#824414"/>
<path d="M356.388 260.65C355.665 260.31 355.283 259.673 354.943 259.035C353.923 257.25 352.903 255.507 351.33 254.19C348.695 251.98 346.018 249.812 343.085 247.985C340.917 246.667 338.622 245.732 336.242 244.924C334.287 244.244 332.29 243.649 330.164 243.394C328.762 243.182 327.317 243.224 325.957 243.012C324.427 242.799 322.897 242.969 321.367 243.012C315.331 243.182 309.849 244.967 304.791 248.325C304.111 248.792 303.431 249.217 302.751 249.685C302.283 249.982 301.901 250.322 301.646 250.875C302.028 251.3 302.538 251.427 303.048 251.682C311.209 255.38 319.369 259.078 327.487 262.775C329.229 263.583 331.014 264.135 332.885 264.56C341.385 266.558 349.885 268.598 358.386 270.638C359.108 270.808 359.831 271.021 360.596 270.893C359.958 267.875 358.683 265.198 357.153 262.563C356.813 261.968 356.388 261.458 356.388 260.735V260.65Z" fill="#824414"/>
<path d="M275.932 287.638C276.4 288.403 277.08 288.913 277.93 289.21C279.247 289.38 280.607 289.508 281.925 289.678C283.455 289.89 284.985 290.145 286.515 290.358C288.64 290.655 290.765 290.995 292.933 291.293C294.463 291.505 295.993 291.803 297.523 291.973C298.671 292.1 299.818 292.27 300.923 292.483C304.026 293.035 307.213 293.333 310.316 293.928C311.634 294.183 312.994 294.395 314.311 294.48C315.714 294.608 317.116 294.906 318.519 295.118C319.794 295.331 321.069 295.543 322.301 295.671C323.322 295.798 324.342 295.756 325.192 294.991C325.319 294.863 325.574 294.905 325.787 294.863C325.787 294.268 325.659 293.715 325.319 293.248C323.747 292.95 322.174 292.483 320.559 292.398C319.624 292.398 318.689 292.1 317.754 291.973C315.076 291.59 312.441 291.08 309.763 290.783C307.426 290.528 305.131 289.89 302.793 289.678C300.498 289.465 298.288 288.913 295.993 288.7C293.655 288.488 291.36 287.935 289.023 287.595C287.62 287.383 286.218 287.213 284.815 287.128C283.922 287.043 283.072 286.83 282.222 286.66C280.565 286.235 278.822 286.575 277.207 286.023C276.74 285.853 276.272 286.15 276.102 286.66C275.975 286.958 275.975 287.34 275.932 287.68V287.638Z" fill="#E7A47C"/>
</svg>
