<svg width="500" height="500" viewBox="0 0 500 500" fill="none" xmlns="http://www.w3.org/2000/svg">
<path d="M138.72 324.038C133.531 320.855 129.973 316.263 128.798 312.352C128.331 310.804 119.465 292.689 129.946 288.692C141.849 284.149 164.962 299.22 169.513 301.503C175.797 304.208 189.133 308.516 192.208 315.449C193.227 318.299 191.671 324.997 189.745 327.456C185.29 333.13 154.514 333.719 138.72 324.038Z" fill="#FFB68A"/>
<path d="M100.919 243.956C101.279 244.058 101.88 243.495 102.223 243.157C109.269 236.358 116.525 229.297 123.904 222.605C125.009 221.667 126.614 219.61 128.111 220.14C129.152 221.126 128.111 223.184 127.156 223.939C125.508 225.343 123.335 227.277 120.952 229.474C114.598 235.255 107.606 242.225 103.173 246.511C102.111 247.165 100.828 247.47 100.248 248.681C99.4864 249.999 97.9516 251.317 99.642 252.287C114.915 261.336 141.978 277.147 157.831 284.552C158.346 284.503 160.042 283.791 160.514 283.507C165.574 280.506 169.954 275.593 175.218 272.802C176.334 272.239 176.957 271.607 176.189 270.428C170.689 260.517 163.691 247.079 157.879 236.149C152.995 226.966 148.863 219.208 144.506 211.584C143.991 210.748 143.599 209.687 142.81 209.607C142.386 209.548 141.86 209.768 141.452 209.993C137.722 212.082 134.69 215.351 130.853 218.244C130.188 218.758 129.388 219.16 129.893 217.896C133.703 208.745 139.091 200.874 142.923 191.407C143.164 190.801 143.502 189.998 143.98 189.682C146.287 188.417 155.287 195.741 158.239 195.436C158.893 195.291 159.435 194.37 160.417 194.257C161.292 194.171 162.086 194.568 162.875 194.97C180 204.496 197.403 212.988 214.866 221.678C215.611 222.192 216.073 222.991 215.842 223.693C215.316 225.048 213.535 224.603 212.488 224.111C208.877 222.535 203.408 220.007 199.823 218.238C194.999 215.854 197.317 217.922 197.666 219.047C205.233 237.612 233.965 235.464 243.979 220.317C258.468 200.07 239.235 177.819 216.663 178.323C194.527 172.408 154.096 156.603 131.138 154.133C125.879 154.433 122.798 158.365 120.153 163.048C113.718 175.467 111.421 192.43 109.484 202.626C108.738 208.278 108.695 214.606 106.355 219.728C104.966 223.13 101.209 224.92 100.463 228.67C100.216 229.843 100.243 231.065 100.227 232.249C100.179 235.673 99.7439 239.348 100.302 242.691C100.345 243.141 100.527 243.8 100.882 243.95L100.93 243.966L100.919 243.956Z" fill="#F4B790"/>
<path d="M205.039 174.241C205.082 174.439 205.554 174.685 205.828 174.792C209.531 176.384 213.566 178.457 217.79 178.618C241.681 177.664 258.575 204.265 242.33 222.171C231.683 235.528 206.305 236.75 198.663 219.589C198.202 218.474 197.536 217.446 196.49 216.91C186.675 211.166 170.173 203.258 160.105 197.633C159.467 197.284 158.705 196.802 158.045 196.904C155.055 197.675 148.648 203.424 145.954 205.23C144.537 206.173 142.514 207.534 143.367 209.537C148.616 218.86 151.916 225.316 157.379 235.533C163.749 247.497 173.613 266.019 176.462 271.168C176.596 271.436 176.817 271.607 177.122 271.596C177.391 271.602 177.713 271.484 178.035 271.366C179.655 270.653 181.346 269.839 182.677 269.266C184.662 268.409 187.775 267.128 189.578 266.86C192.267 266.399 193.292 267.316 196.388 268.06C197.987 268.457 200.3 268.735 202.114 268.837C229.032 271.746 240.447 242.064 252.419 222.889C253.058 221.914 253.466 220.816 253.643 219.653C255.875 206.066 255.194 192.039 248.888 179.7C248.437 178.795 247.767 178.05 246.828 177.648C233.91 173.083 218.53 171.246 205.033 174.214V174.241H205.039Z" fill="#8C8BD4"/>
<path d="M248.046 178.425C254.732 191.182 255.773 205.76 253.342 219.889C253.267 220.521 253.257 221.078 253.922 221.121C256.09 220.751 258.204 219.878 260.426 219.878C261.21 219.851 262.283 219.883 262.251 218.86C262.39 215.506 271.98 199.502 277.599 198.597C278.849 198.902 277.964 200.66 277.277 201.254C273.912 204.458 271.814 208.53 270.161 212.811C269.308 215.008 269.206 217.419 268.267 219.385C267.177 221.507 267.311 223.677 267.086 226.082C265.449 244.652 274.551 242.734 291.965 244.379C292.716 244.625 293.199 245.14 293.548 245.799C294.675 248.049 296.435 250.251 298.759 248.981C301.147 247.395 304.152 244.615 306.626 242.713C307.817 241.786 308.204 241.277 309.427 240.945C310.447 240.634 311.526 240.934 312.513 240.816C314.794 240.27 317.101 240.13 319.522 239.793C322.817 239 326.321 237.634 329.342 236.064C330.646 235.281 332.026 234.419 330.587 233.449C328.736 231.917 327.732 229.522 326.402 227.239C324.942 224.593 323.225 221.817 320.981 219.658C319.726 218.442 318.325 217.413 316.828 216.61C311.365 213.454 301.925 213.09 302.521 206.264C302.966 204.769 304.603 203.756 305.784 202.149C306.428 201.292 306.921 200.188 307.034 198.854C307.361 195.897 305.735 192.8 302.778 191.884C299.285 190.71 295.212 191.669 292.292 193.55C291.391 194.096 290.586 194.67 289.877 195.173C288.509 196.089 287.929 196.818 286.518 196.748C278.651 196.277 271.46 190.855 269.055 183.59C268.884 183.113 268.685 182.374 268.39 182.127C268.175 181.929 267.853 181.972 267.564 182.015C263.877 182.556 251.405 179.175 248.368 178.237C248.148 178.189 248.035 178.221 248.046 178.382V178.42V178.425Z" fill="#FFB68A"/>
<path d="M416.736 305.372C417.906 299.693 415.454 305.538 415.132 306.138C411.059 313.018 404.211 327.885 396.725 330.875C395.517 331.223 395.227 332.123 395.437 333.318C396.301 340.98 396.639 349.606 395.614 357.139C395.544 357.599 395.474 358.232 395.673 358.569C395.92 359.009 404.635 359.609 408.311 360.08C408.81 360.139 409.331 360.203 409.797 360.144C410.468 360.069 429.305 363.123 432.514 355.687C436.238 347.055 434.676 316.5 434.693 315.911C434.693 314.903 434.896 313.714 434.408 313.034C433.941 312.348 432.6 303.893 432.61 302.066C432.707 300.759 428.752 290.167 428.339 289.711C428.129 289.47 425.124 284.627 422.376 283.973C420.294 283.427 417.895 284.927 418.389 287.182C418.706 289.154 420.273 291.324 421.276 293.113C422.146 294.667 422.881 296.312 423.455 298.053C425.355 303.974 421.142 309.187 418.073 306.497C417.675 306.149 417.235 305.672 416.806 305.42L416.736 305.383V305.372Z" fill="#FFB68A"/>
<path d="M344.272 169.354C345.845 165.614 330.754 155.852 327.346 154.191C325.677 153.452 320.027 151.62 319.243 153.382C316.383 159.774 337.951 170.007 344.24 169.381L344.272 169.354Z" fill="#613505"/>
<path d="M101.036 244.786C100.151 247.577 102.099 247.872 103.768 246.136C109.301 240.457 121.842 228.445 127.568 223.601C128.035 223.189 128.379 222.68 128.572 222.042C128.797 221.33 128.84 220.504 128.561 220.129C127.289 218.908 125.261 221.421 124.225 222.315C116.433 229.688 108.163 236.958 101.069 244.7L101.036 244.786Z" fill="#E9A37A"/>
<path d="M158.715 195.58C158.57 196.459 159.236 197.118 159.971 197.482C176.473 206.457 196.415 216.974 213.099 224.48C214.001 225.005 215.605 224.984 215.933 223.768C216.228 222.637 214.94 221.683 213.958 221.244C195.996 212.773 178.657 203.296 160.991 194.139C159.96 193.855 158.903 194.45 158.731 195.484L158.715 195.575V195.58Z" fill="#E9A37A"/>
<path d="M268.814 180.401L268.847 180.305C277.964 163.198 296.162 150.28 316.109 152.911C318.996 153.329 319.082 151.261 319.286 148.303C319.361 144.912 320.536 141.542 323.144 139.206C335.101 127.081 360.49 143.438 354.774 159.479C353.347 163.171 350.401 166.016 346.43 167.05C345.329 167.35 344.197 167.05 343.312 166.348C338.155 162.19 334.886 159.656 330.057 156.672C322.361 151.962 318.889 152.032 319.189 154.223C319.78 157.679 326.869 162.56 331.28 164.687C334.736 166.461 339.308 168.121 343.242 169.177C344.154 169.456 344.825 170.023 345.421 170.811C357.919 187.543 359.513 214.466 344.283 229.688C343.312 230.732 342.807 230.266 342.807 229.441C342.732 229.993 342.625 230.534 342.297 230.984C340.371 232.833 336.196 235.013 334.087 234.847C326.745 234.697 325.79 218.758 312.921 214.986C310.378 214.005 307.442 213.175 305.269 211.809C303.922 210.994 302.913 209.708 302.403 208.203C301.383 205.106 304.748 204.142 306.219 201.222C307.464 198.698 306.965 195.301 304.898 193.34C301.094 190.045 295.008 191.567 291.386 194.123C290.21 194.889 289.373 195.564 288.311 196.266C287.667 196.668 287.334 196.877 286.475 196.85C278.769 196.432 271.701 191.251 269.136 184.232C268.965 183.804 268.401 181.575 268.825 180.401H268.814ZM277.857 170.843C277.857 170.843 277.905 170.795 277.927 170.768C277.905 170.795 277.878 170.816 277.857 170.843Z" fill="#7D4415"/>
<path d="M262.633 219.851C263.228 220.14 263.996 220.161 264.656 220.279C265.74 220.413 266.974 220.724 267.731 220.151C268.546 219.518 268.809 218.259 269.088 217.274C269.443 215.789 269.711 214.193 270.28 212.736C272.013 208.358 274.031 204.436 277.407 201.249C278.04 200.718 278.662 199.529 278.287 198.934C275.212 195.907 260.443 216.7 262.574 219.819L262.627 219.851H262.633Z" fill="#E9A37A"/>
<path d="M320.129 239.155C322.946 238.191 328.613 236.375 330.33 234.51C330.556 234.264 330.781 234.055 331.109 233.985C331.72 233.899 332.525 234.135 333.212 234.216C337.151 234.735 340.559 232.222 343.344 229.603C344.777 228.435 346.242 227.084 347.482 225.761C348.147 225.231 348.775 225.413 349.483 225.873C376.117 243.511 412.588 251.746 433.442 276.494C440.52 284.879 440.198 308.667 439.855 310.151C439.619 311.158 439.383 312.112 438.921 313.039C438.465 314.094 437.231 314.657 436.13 314.534C435.272 314.405 434.859 313.65 434.306 313.109C433.807 312.6 433.12 312.16 432.878 311.453C432.428 309.197 431.692 299.634 431.639 299.559C429.959 297.11 427.973 289.62 427.372 289.031C426.079 287.697 425.376 285.72 423.965 284.825C421.603 283.046 417.509 284.637 418.62 287.895C420.734 293.167 425.628 298.643 423.578 304.418C423.009 306.331 420.992 307.863 418.99 307.274C417.917 306.904 417.058 305.956 416.441 305.051C416.022 304.247 416.334 303.175 416.033 302.318C415.84 301.691 415.464 301.182 415.142 300.604C413.108 296.934 410.913 293.274 407.935 290.226C407.135 289.406 406.33 288.554 405.633 287.6C402.713 283.646 401.061 278.899 399.408 276.387C398.86 275.524 398.216 274.897 397.325 274.431C395.855 273.622 393.988 272.775 391.868 271.934C380.319 267.364 362.835 263.014 349.886 259.301C336.513 255.593 323.311 249.63 312.621 240.977C311.972 239.525 319.039 239.825 320.038 239.171L320.123 239.145L320.129 239.155Z" fill="#FFB68A"/>
<path d="M61.1856 336.666C65.5486 354.995 81.7929 362.357 98.708 364.355C119.814 367.104 144.881 363.353 161.453 364.307C189.144 364.35 219.44 361.633 245.5 358C258.261 355.884 262.31 358.839 277.5 362.5C292.69 366.161 306 365.5 322 365.5C338 365.5 346.961 363.155 363.774 361.794C373.858 360.803 384.038 360.573 393.837 359.33C394.97 359.217 395.758 358.355 395.807 357.197C396.81 349.354 396.617 340.299 395.458 332.364C395.206 331.485 394.465 331.282 393.66 331.293C364.499 330.382 310.723 326.311 292 323.5C273.276 320.689 266.85 318.429 258.5 318C252.902 317.705 244.172 316.68 238.376 316.401C237.549 316.363 150.215 304.879 149.164 304.713C144.124 303.593 136.563 302.934 131.057 302.934C128.326 302.779 123.168 302.028 118.741 302.661C117.12 302.88 114.319 303.438 114.324 301.102C114.185 299.457 117.249 299.457 119.954 299.216C132.286 298.883 139.123 299.553 148.729 301.23C151.144 301.696 151.562 300.314 152.85 298.466C153.339 297.79 153.977 297.19 154.498 296.558C155.169 295.765 155.405 294.844 155.759 293.869C156.805 291.281 157.729 288.613 158.367 285.939C158.501 285.36 158.566 284.632 158.271 284.176C142.724 275.122 113.949 260.736 98.4451 251.489C97.2698 251.467 96.3038 252.373 95.3218 253.209C75.058 275.336 54.8908 305.152 61.1588 336.549L61.1856 336.656V336.666Z" fill="#696D65"/>
<path d="M150.687 304.89C150.961 304.681 151.058 304.316 151.122 303.973C151.208 302.934 151.637 301.568 150.435 301.418C149.222 301.386 147.929 301.139 146.705 300.866C144.886 300.528 142.015 300.191 140.008 299.896C135.43 299.328 113.401 297.742 114.168 301.086C114.088 302.591 115.134 303.138 116.535 303.004C121.692 302.077 126.951 302.688 131.647 303.057C135.822 302.988 143.319 303.614 148.669 304.724C149.458 304.863 150.194 305.19 150.639 304.916L150.693 304.884L150.687 304.89Z" fill="#494A45"/>
<path d="M61.1856 336.666C65.5486 354.995 81.7929 362.357 98.708 364.355C119.814 367.104 143.384 364.425 159.956 365.384C187.647 365.427 216.121 368.192 240.281 361.655C262.364 355.676 285.51 312.915 237.947 312.915C237.12 312.915 150.215 304.89 149.164 304.723C144.124 303.604 136.563 302.945 131.057 302.945C128.326 302.789 123.168 302.039 118.741 302.671C117.12 302.891 114.319 303.448 114.324 301.112C114.185 299.467 117.249 299.467 119.954 299.226C132.286 298.894 139.123 299.564 148.729 301.241C151.144 301.707 151.562 300.325 152.85 298.476C153.339 297.801 153.977 297.201 154.498 296.569C155.169 295.776 155.405 294.854 155.759 293.879C156.805 291.292 157.728 288.623 158.367 285.95C158.501 285.371 158.566 284.643 158.271 284.187C142.724 275.133 113.949 260.747 98.445 251.499C97.2698 251.478 96.3038 252.383 95.3217 253.219C75.0579 275.347 54.8907 305.163 61.1588 336.559L61.1856 336.666Z" fill="#696D65"/>
<path d="M253.09 355.14C253.434 355.14 253.777 355.033 254.072 354.808C256.911 352.627 261.199 347.982 264.381 342.523C267.091 337.867 269.882 331.046 267.811 324.96C265.095 316.987 255.156 312.942 238.268 312.942C237.377 312.942 236.658 313.66 236.658 314.55C236.658 315.439 237.377 316.157 238.268 316.157C248.829 316.157 261.993 317.866 264.762 325.994C266.442 330.934 263.968 336.833 261.596 340.91C258.655 345.968 254.614 350.34 252.108 352.263C251.405 352.804 251.271 353.811 251.813 354.519C252.13 354.931 252.607 355.145 253.09 355.145V355.14Z" fill="#494A45"/>
<path d="M435.352 315.798C436.211 315.798 436.925 315.123 436.962 314.255C437 313.366 436.308 312.621 435.417 312.583C434.118 312.53 433.63 309.283 433.302 305.784C432.331 295.428 429.052 287.123 424.748 284.118C423.165 283.014 421.469 282.65 419.849 283.078C419.081 283.282 418.475 283.759 418.099 284.46C416.983 286.534 418.131 290.156 420.096 295.889C421.147 298.959 423.332 305.345 422.43 306.336C422.43 306.336 422.366 306.368 422.162 306.368C422.022 306.368 421.824 306.352 421.545 306.293C421.019 305.929 419.521 304.311 418.244 302.72C417.691 302.029 416.677 301.916 415.979 302.468C415.287 303.02 415.169 304.032 415.727 304.729C419.173 309.031 420.246 309.294 420.654 309.39C422.918 309.937 424.163 309.213 424.807 308.506C426.997 306.111 425.21 300.893 423.144 294.849C422.189 292.058 420.616 287.472 420.89 286.143C421.523 286.046 422.183 286.25 422.908 286.754C425.773 288.757 429.111 295.508 430.104 306.09C430.48 310.113 431 315.627 435.293 315.803C435.315 315.803 435.336 315.803 435.358 315.803L435.352 315.798Z" fill="#E9A37A"/>
</svg>
