<?xml version="1.0" encoding="UTF-8"?>
<svg xmlns="http://www.w3.org/2000/svg" version="1.1" viewBox="0 0 1417.3 1417.3">
  <defs>
    <style>
      .cls-1 {
        fill: #6a6e66;
      }

      .cls-2 {
        fill: #e6a47c;
      }

      .cls-3 {
        fill: #696d65;
      }

      .cls-4 {
        fill: #5e3717;
      }

      .cls-5 {
        fill: #824414;
      }

      .cls-6 {
        fill: #8989de;
      }

      .cls-7 {
        fill: #494a45;
      }

      .cls-8 {
        fill: #ffb68a;
      }
    </style>
  </defs>
  <!-- Generator: Adobe Illustrator 28.7.1, SVG Export Plug-In . SVG Version: 1.2.0 Build 142)  -->
  <g>
    <g id="_레이어_1" data-name="레이어_1">
      <g>
        <path class="cls-3" d="M1020.3,970.5c-8.6,0-17.1,0-25.7-.6-2-.1-4-.2-6-.3-14.8-.4-29.5-.9-44.3-1.3-22.5-.7-45-1.4-67.4-2.1-20.3-.6-40.6-1.3-60.9-1.9-22-.7-44-1.3-65.9-2.1-5.7-.2-11.4-.9-16.9-2.5-1-.3-1.9-.6-2.9-.8-11.9-2.1-21.9-8.1-31.1-15.6-8.6-7-15.4-15.4-21-24.9-2.4-4-4.2-8.4-5.8-12.8-1.1-2.8-1.4-5.8-2.1-8.8.9-3.3.4-6.4-1-9.6-2-4.8-3.4-9.8-3.2-15.1,0-2-.8-4-.7-5.9.1-2,1-3.9.8-5.9-.4-4.1.5-8.1,1.4-11.9,3.5-15.6,9.3-30.3,18.8-43.3,4.2-5.7,8.7-11,14.7-14.9,4.2-2.7,8.4-5.6,13.8-5.2,1.8.1,3.3-.6,4.7-1.5,3-2.2,3.8-5.6,2-8.8-.6-1.1-1.9-1.9-1.9-3.4,6.9-1.5,14-2.1,21-2.3,4.9-.1,9.7-.3,14.5-1.1,7.8-1.3,15.7-1.3,23.4-2.9,7.4-1.5,14.9-2.3,22.4-3.3,16.6-2.3,33.2-4.6,49.8-6.9,5.3-.8,10.6-1.8,15.9-2.7,1.7-.3,3.3-.7,4.4-2.1h.3c0,.1.4,0,.4,0,.8,0,1.7,0,2.5-.2,5.7-1.2,11.5-2.4,17.2-3.6,7.1-1.4,14.2-2.8,21.4-2.2,3.2.2,6.3.5,9.5.7,6.7.4,13.4.6,20.1,1.4,4.5.5,9,.6,13.5,1,5.7.5,11.3,1.2,17,1.6,6.4.5,12.7.8,19.1,1.3,1,0,2,.2,3,.4,2.7.7,4.9-.2,6.9-2.1,3.6-3.3,7.2-6.5,10.9-9.7,8.5-7.3,17.1-14.6,25.6-21.9,9.8-8.4,19.6-16.8,29.5-25.1,3.8-3.2,7.7-6.6,12.6-8.1.5-.1.8-.5,1.3-.8,3.3.5,5.9,2.4,8.2,4.7,4.8,4.7,9.1,9.9,13.1,15.3,15.2,20.6,25.3,43.4,29.6,68.7,3.8,22.4,2.5,44.5-5.2,66-6.9,19.1-18.1,35.1-34,47.7-.4.3-.7.7-1.1,1-1,.2-1.8.6-2.9.3-5.8-1.1-11.5-2.2-17.3-3.1-3.5-.6-7-1.2-10.5-1.2-7.8.1-15.3,2-21.9,6.4-1,.7-1.9,1.4-2.8,2.2-4.4,3.9-8,8.6-10.9,13.7-1.9,3.4-3.2,7-3,11,0,1,0,2-.1,3-1.2,9.2-1.6,18.4-1.8,27.6,0,3.4-.1,6.7-.4,10-.5,4.9-.7,9.7-.3,14.6ZM1015.7,903c.9,0,1.6,0,2.2-.2,4.1-1,6.7-5.3,3.9-9.4-1.2-1.8-2.7-3.3-5.1-3.7-4.8-.9-9.5-2.1-14.2-3.2-11.4-2.8-22.7-5.6-34.1-8.3-12.2-2.9-24.3-6.2-36.6-8.9-10.1-2.2-20.1-4.9-30.2-7.3-9.4-2.3-18.9-4.4-28.3-6.7-12.3-3-24.6-6.2-37-9-15.3-3.5-30.5-7.4-45.8-11.2-.8-.2-1.7-.6-2.4-.4-2.7.8-5.1,2.2-5.8,5-.8,2.9.5,5.3,2.7,7.1,1.2,1,2.6,1.6,4.1,1.7.8,0,1.7.2,2.5.3,8.6,2.1,17.2,4.2,25.8,6.3,13,3.2,26,6.3,39,9.5,10.4,2.5,20.8,5,31.2,7.5,10.1,2.4,20.1,5.1,30.2,7.4,9.3,2.1,18.5,4.7,27.8,6.7,11.6,2.5,23.1,5.6,34.6,8.5,9.3,2.3,18.5,4.6,27.8,6.8,2.6.6,5.2,1.1,7.7,1.6Z"/>
        <path class="cls-6" d="M871.6,749.8h-.4c0,0-.3,0-.3,0-.8-.2-1.6-.3-2.4-.6-8.3-2.8-16.5-5.7-24.8-8.3-19.1-5.8-38.2-11.5-57.3-17.1-8.3-2.5-16.7-4.9-25-7.5-2.4-.7-4.5-.6-6.8,0-8.7,2.5-17.6,4.1-26.7,4.2-4,0-8,1-12,.1-.6-.1-1.3.2-2,.1-4.5-.2-9.1,0-13.5-.7-10.6-1.7-20.9-4.7-30.8-8.9-13.5-5.6-25.7-13.1-35.4-24.2-2.9-3.3-5.4-6.9-7.5-10.7-.6-1.2-1.5-2.4-1.5-3.7-.2-2.9-1.5-5.4-2.3-8.2,1-1.2,2.2-2,3.5-2.8,5.1-3.3,10.2-6.5,15-10.1,4-2.9,8.4-4.7,13.2-5.8,4.9-1.2,9.7-2.6,14.3-4.6,7.1-3,14-6.5,20.8-10.2,2.2-1.2,4.4-2.7,6-4.5,5-5.4,9.7-11.1,13.5-17.5,2.7-4.4,5-9.1,6.7-14,1.9-5.9,2.5-11.8-.1-17.7-.5-1.1-.7-2.2-1.1-3.3-2-5-4.2-9.9-7.6-14.1-4.3-5.4-9.3-10.1-14.5-14.6-4.8-4.1-9.9-7.4-15.8-9.6-4.7-1.8-9.5-3.3-14.6-3.7-5-.4-10.1,0-15.1,0-1,0-2,.2-3,.4-5.2,1.3-10.2,3.2-15.1,5.5-10.6,5.2-20.2,11.8-29.2,19.4-6.4,5.4-12.9,10.7-19.3,16.1-1.3-.9-2.4-2-3.3-3.3.3-1.5.4-3,.9-4.4,1.9-5.5,3.9-11.1,5.9-16.6.4-1.1,1.2-2,1.7-3,2.1-4,4.6-7.8,6.4-11.9,1.6-3.5,3.5-6.8,5.7-10,2-2.9,4.5-5.4,6.8-8.1,1-.4,1.7-1.1,2.2-2.1,3.3-2,6.6-4,9.9-5.9,9.5-5.6,19.6-9.5,30.5-11.3,5.3-.9,10.6-1.8,15.9-2.6,1-.2,2-.4,3-.4,7.4-.3,14.7-1.1,22.1-.9,8.7.2,17.4.9,26.1,1.7,10.9,1,21.6,2.7,32.2,5.1,4.1.9,8,2.4,11.9,3.9,15.7,5.9,31.4,11.7,47.1,17.6,9.7,3.6,19.6,6.9,29.2,10.9,11,4.5,21.7,9.8,32.2,15.5,4.9,2.6,9.8,5.1,14.8,7.6,19.5,9.8,39,19.6,58.5,29.3,1.9,1,4,1.8,5.3,3.7-1.9,1.1-2.5,3.1-3.3,4.9-2.3,5.2-4.6,10.4-7,15.6-6,13.1-12.1,26.2-18.1,39.3-6,13.1-12.2,26.1-18.1,39.3-5.2,11.6-10.1,23.4-15.2,35.1-4,9.2-7.5,18.7-12.2,27.6Z"/>
        <path class="cls-8" d="M580.5,573.5c6.4-5.4,12.9-10.7,19.3-16.1,9-7.6,18.7-14.2,29.2-19.4,4.8-2.4,9.9-4.2,15.1-5.5,1-.2,2-.4,3-.4,5,0,10.1-.4,15.1,0,5,.4,9.8,1.9,14.6,3.7,5.9,2.2,11,5.6,15.8,9.6,5.3,4.5,10.2,9.1,14.5,14.6,3.4,4.3,5.5,9.2,7.6,14.1.4,1.1.7,2.3,1.1,3.3,2.6,5.9,2,11.7.1,17.7-1.6,5-4,9.6-6.7,14-3.9,6.3-8.5,12-13.5,17.5-1.7,1.8-3.8,3.3-6,4.5-6.8,3.6-13.7,7.1-20.8,10.2-4.7,2-9.4,3.5-14.3,4.6-4.8,1.1-9.2,2.9-13.2,5.8-4.9,3.5-10,6.8-15,10.1-1.3.8-2.5,1.7-3.5,2.8-2.2.4-3.9,1.9-5.7,3.1-35.7,23.8-71.5,47.7-107.2,71.5-8.7,5.8-17.3,11.5-26,17.3-2.8,1.9-5.7,3.5-9.1,4.2-7.6,1.5-15.1,2.8-22.7,4.3-10.2,1.9-20.4,3.9-30.6,5.9-7.1,1.4-14.1,2.8-21.2,4.1-11.7,2.2-23.4,4.3-35,6.5-9.4,1.8-18.7,3.7-28.1,5.5-1.1.2-2.3.2-3.5.2-.8,0-1.5,0-2.3,0-2.7-.2-5.3.3-7.9.9-5.5,1.2-11.1,2.1-16.6,3-6.4,1.1-12.8,1.9-19.1,3.3-2.8.6-5.6.7-8.3,1.5-3.7,1-7.4,1.6-11.2,2.4-.3-1.4-.5-2.8-1.3-4.1-1.6-2.3-2.2-5-2.3-7.8,2.3-1.3,3.9-3.3,4.2-5.9.3-2.6.5-5.4-.3-8-.5-1.8-.6-3.6-.6-5.4,0-1.5.1-3.1-.3-4.5-.6-2-.6-3.9-.7-5.9,0-1.2,0-2.4-.4-3.5-.6-1.8-.6-3.6-.6-5.4,0-1.2.1-2.4-.1-3.5-1.3-5.2-1.1-10.6-1.8-15.8-.4-2.9-1.7-4.9-3.6-6.9-1.7-1.8-3.7-2.1-5.9-2-.8,0-1.7,0-2.5,0-.2-4.9,1.4-7.5,5.7-9.5,3.2-1.4,6.5-2.7,9.8-4,5-1.9,9.9-4.1,14.9-5.8,3.9-1.4,7.8-.2,9.7,3.6,1,1.9,2,3.9,3,5.8.8,1.4,1.3,3.1,3,3.9-.2,1.4.3,2.7,1,3.8,3.4,5.5,6.8,11.1,10.4,16.6,1.4,2.1,3,4,4.6,5.9,1.2,1.4,2.5,1.8,4.4,1.1,4.4-1.6,8.9-2.9,13.4-4.2,11.4-3.4,22.8-6.7,34.1-10.1,10.9-3.2,21.8-6.5,32.7-9.8,11.5-3.5,23-7.2,34.5-10.8,6.9-2.2,13.7-4.3,20.7-6,5.8-1.4,11.2-3.7,15.6-7.7,3.8-3.3,7.2-7.1,10.6-10.8.9-.9,1.6-1.8,2.9-1.6,2.5.3,4.1-1,5.7-2.6,4.2-4.5,8.7-8.8,12.7-13.6,5.2-6.1,11.3-11.4,16.5-17.6,5.4-6.4,11.8-11.8,17.2-18.3,4.9-5.9,11.2-10.6,15.8-16.9,8.5-7.9,15.8-16.9,24-25q5.4-5.3,5.4-12.7Z"/>
        <path class="cls-1" d="M661.2,899.1c-3,1.7-6.3,2.1-9.6,2.8-10.5,2.2-21,4.4-31.5,6.9-9.3,2.2-18.9,3.2-28.4,4.2-25.4,2.8-51,2.5-76.5,1.7-10.9-.3-21.8-1.3-32.6-2.4-9.8-1-19.8-1.5-29.6-2.3-12.1-.9-24.1-1.8-36.2-2.7-6.7-.5-13.4-.9-20.1-1.4-9.4-.7-18.7-1.5-28.1-2.3-6.4-.5-12.7-1.1-19.1-1.6-4.4-.4-8.7-1-12.8-2.6,1-2.8,2.2-5.6,2.6-8.5,1.4-9.2,2.9-18.5,4.3-27.7,1.1-7.6,2.2-15.2,3.3-22.8,1.4-8.9,2.8-17.8,2.8-26.9,2.7-1.5,5.6-1.9,8.7-2.1,5.7-.3,11.4-.8,17.1-1.5,12.3-1.4,24.7-3,37-4.5,10.5-1.3,21-2.5,31.5-3.7,5.5-.6,11-1.4,16.5-1.6,5.4-.1,10.7-.7,16-1.2,2.5-.3,5-.7,7.5-1,9-1.1,18-1.8,26.9-3.5,6.9-1.3,13.9-2.1,20.9-3.1,5.5-.7,11-1.4,16.5-2,10.7-1.2,21.4-2.2,32-3.3,9-1,18-2,27-2.9,7.3-.8,14.7-1.5,22-2.2,11.2-1.1,22.3-2.8,33.6-3,2.6,0,5.3-.8,7.9-1.3,3.1-.6,6.3-1.1,9.4-1.4,4.5-.4,9-1,13.5-1.6,2.5-.3,5-.8,7.5-.3,0,1.5-1.2,1.9-2.2,2.4-8.3,4.8-15.6,10.8-21.4,18.6-8.2,10.9-14.6,22.8-19,35.7-2.3,6.6-4,13.4-5,20.4-.8,5.4-1.5,10.9-1.9,16.4-.2,3.2.8,6.3,1,9.4.6,8.5,2.5,16.5,8.2,23.2Z"/>
        <path class="cls-8" d="M871.6,749.8c4.7-8.9,8.2-18.4,12.2-27.6,5.1-11.7,10-23.5,15.2-35.1,5.9-13.2,12.1-26.2,18.1-39.3,6-13.1,12.1-26.2,18.1-39.3,2.4-5.2,4.6-10.4,7-15.6.8-1.8,1.3-3.9,3.3-4.9,3.9.7,7.2,2.7,10.5,4.7,7.4,4.5,15,8.8,22.7,12.9,7.1,3.8,13.9,8.1,20.4,12.7,5.8,4,11.5,8.1,17.4,12,6.8,4.6,13,10,19.5,14.9,5.2,3.9,10.4,7.9,15.6,11.8,9.1,6.8,18.3,13.6,27.4,20.3,1.8,1.3,2.5,3.1,2.8,5.1-.4.3-.8.7-1.3.8-5,1.5-8.8,4.9-12.6,8.1-9.9,8.3-19.7,16.7-29.5,25.1-8.5,7.3-17.1,14.6-25.6,21.9-3.7,3.2-7.4,6.4-10.9,9.7-2,1.8-4.1,2.8-6.9,2.1-1-.3-2-.4-3-.4-6.4-.4-12.7-.8-19.1-1.3-5.7-.5-11.3-1.1-17-1.6-4.5-.4-9-.5-13.5-1-6.7-.8-13.4-.9-20.1-1.4-3.2-.2-6.3-.5-9.5-.7-7.3-.5-14.4.8-21.4,2.2-5.7,1.2-11.5,2.4-17.2,3.6-.8.2-1.7.1-2.5.2Z"/>
        <path class="cls-5" d="M431.2,626.8c-.7.2-1.3.4-2,.5-.6-.2-1.2-.3-1.8-.5-.7-.4-1.5-.8-2.2-1.1-19.4-8.8-32.2-23.6-40-43.1-5.1-12.8-6.8-26.2-6.2-39.9.2-4,1.2-8,2.3-11.8,2.3-8.4,5.7-16.5,10-24.1,3.9-6.8,9.2-12.3,15-17.5,1.2-1.1,2.8-2,3.3-3.7,1.7.2,2.8-.8,3.9-1.9,5.1-4.7,10.5-8.8,17.2-11,2.2-.7,4.3-1.9,6.5-2.6,9.2-3.3,18.5-5.8,28.4-5.7,2.5,0,5,.1,7.6,0,7.1-.4,14,1.1,20.8,2.6,10.6,2.4,20.2,6.9,29.2,13,2.5,1.7,5,3.4,7.2,5.4,7.1,6.3,13.1,13.5,17.5,21.8,1.8,3.5,3.9,7.1,3.4,11.4-1.7,1.1-3.1,2.5-4.4,4.1-1.7,2.1-3.4,4.1-5.2,6.1-10.3,11.1-20.6,22-30.8,33.2-3.6,4-7.8,6.6-13,8.1-10.5,3.1-20.9,6.3-31.3,9.4-2.5.7-4.4,1.8-6,4.1-9,13.2-18.1,26.2-27.2,39.3-.8,1.2-2,2.3-2.2,3.9Z"/>
        <path class="cls-8" d="M1020.3,970.5c-.4-4.9-.2-9.7.3-14.6.3-3.3.4-6.7.4-10,.2-9.2.7-18.4,1.8-27.6.1-1,.2-2,.1-3-.2-4,1.1-7.6,3-11,2.9-5.1,6.5-9.8,10.9-13.7.9-.8,1.8-1.5,2.8-2.2,6.6-4.4,14-6.3,21.9-6.4,3.5,0,7,.6,10.5,1.2,5.8.9,11.6,2,17.3,3.1,1.1.2,2-.1,2.9-.3,2.7,1.6,5.7,1.7,8.7,2.2,7.4,1.3,14.6,3.5,22,5.3,10.1,2.5,19.9,5.8,29.6,9.5,10.5,4.1,18.6,11.2,24.2,21,3,5.3,5.4,10.9,6.2,16.9,1.2,8.8.9,17.4-4.3,25.2-4.6,6.9-10.9,10.9-19.3,10.7-7-.2-14.1.4-21.1-1-.2,0-.3,0-.5,0-7.7.3-15.4-1-23.1-1.1-7.5-.1-15-.9-22.6-1.3-5.3-.3-10.7-.3-16-.9-13.6-1.5-27.1-.5-40.7-1-5-.2-10-.6-15-.9Z"/>
        <path class="cls-8" d="M431.2,626.8c.2-1.6,1.4-2.7,2.2-3.9,9.1-13.1,18.2-26.1,27.2-39.3,1.6-2.3,3.5-3.4,6-4.1,10.4-3.1,20.8-6.3,31.3-9.4,5.1-1.5,9.3-4.1,13-8.1,10.1-11.2,20.5-22.1,30.8-33.2,1.8-2,3.5-4,5.2-6.1,1.3-1.6,2.7-3,4.4-4.1,3.1.2,6-.3,9-1,4.5.4,9,0,13.5-.3,10.3-.8,20.6-.6,30.9-1.2-2.3,2.7-4.8,5.2-6.8,8.1-2.2,3.2-4.2,6.5-5.7,10-1.8,4.2-4.3,8-6.4,11.9-.5,1-1.3,2-1.7,3-2,5.5-4,11-5.9,16.6-.5,1.4-.6,2.9-.9,4.4-1.5,0-3,.1-4.5,0-2-.1-3.6.6-4.9,2.1-.7.8-1.4,1.5-2.1,2.1-4.5,4.2-8.5,9-12.6,13.6-4.7,5.2-9.9,10-14.5,15.3-5.5,6.5-12,12.1-17.5,18.6-5,5.8-11.2,10.6-15.8,16.9-8.3,7.6-15.4,16.3-23.3,24.3-2.1,2.1-4.5,4-6,6.7-.4.7-1.1.7-1.7.1-.4-.5-.7-1.1-1.1-1.7-2.3-3.5-4.5-7-6.7-10.6-.8-1.3-1.8-1.9-3.2-2.1.1-.7.5-1.4.3-1.9-1.5-3.5-3.2-7.2-6.6-9.2-8-4.6-15.5-10-23.2-15-1.1-.7-2.6-1.1-2.5-2.8Z"/>
        <path class="cls-5" d="M604.7,516.2c-10.3.7-20.6.4-30.9,1.2-4.5.4-9,.7-13.5.3.2-3.1-.9-5.9-2.4-8.6-1-1.9-2.2-3.8-3.3-5.7-2.6-4.5-5.4-8.9-8.9-12.7-5.3-5.6-10.5-11.3-16.7-15.9-2.6-1.9-5.4-3.4-8.1-5.1-9-5.7-19-9-29.4-11.3-3.4-.8-7-.7-10.4-1.3-5.7-.9-11.3-1.2-16.9,0-1.1.2-2.3.1-3.5.2-1,0-2,0-3,.2-7.5,1.6-15,3.4-22.1,6.3-3.9,1.6-7.8,3-11.4,5.3-3.9,2.5-7.9,5.1-11.8,7.6-.7.5-1.5.8-2.3.8-.5-3.9.5-7.7,1.4-11.4,7.4-28.7,25.8-46.3,54.6-53.1,4.6-1.1,9.3-1.5,14-1.8,8.8-.5,17.3.4,25.6,3.8,13.7,5.6,27,11.9,39.3,20.2,9.1,6.1,17.3,13.2,24.2,21.8,14.2,17.9,27.4,36.5,37.7,57-.4,1-1.1,1.7-2.2,2.1Z"/>
        <path class="cls-2" d="M463.3,655.8c1.4.2,2.5.8,3.2,2.1,2.2,3.6,4.5,7.1,6.7,10.6.4.6.6,1.2,1.1,1.7.5.6,1.3.6,1.7-.1,1.5-2.7,3.9-4.6,6-6.7,7.9-8,15-16.7,23.3-24.3,4.5-6.3,10.8-11,15.8-16.9,5.6-6.5,12-12.2,17.5-18.6,4.6-5.4,9.8-10.1,14.5-15.3,4.1-4.6,8.1-9.4,12.6-13.6.7-.7,1.5-1.4,2.1-2.1,1.3-1.5,2.8-2.2,4.9-2.1,1.5.1,3,0,4.5,0,.9,1.3,2,2.4,3.3,3.3q0,7.4-5.4,12.7c-8.2,8.2-15.5,17.2-24,25-4.6,6.3-10.8,11-15.8,16.9-5.4,6.5-11.9,11.9-17.2,18.3-5.2,6.2-11.4,11.4-16.5,17.6-4,4.8-8.5,9-12.7,13.6-1.6,1.7-3.2,2.9-5.7,2.6-1.3-.2-2,.7-2.9,1.6-3.4,3.7-6.8,7.4-10.6,10.8-4.4,3.9-9.9,6.3-15.6,7.7-7,1.7-13.8,3.9-20.7,6-11.5,3.6-23,7.2-34.5,10.8-10.9,3.3-21.8,6.6-32.7,9.8-11.4,3.4-22.8,6.7-34.1,10.1-4.5,1.3-9,2.6-13.4,4.2-1.9.7-3.3.3-4.4-1.1-1.6-1.9-3.3-3.8-4.6-5.9-3.5-5.5-6.9-11.1-10.4-16.6-.7-1.2-1.1-2.4-1-3.8,11.6-3,23.3-6.1,34.9-9.1,25.3-6.5,50.5-12.9,75.8-19.4,2.6-.7,5-1.8,7.4-3.1,10.1-5.6,20.3-11.1,30.4-16.7,4.8-2.7,9.5-5.6,14.3-8.4.7-.4,1.5-.8,2.2-1.1Z"/>
        <path class="cls-8" d="M349.8,813.3c0,9.1-1.5,18-2.8,26.9-1.2,7.6-2.2,15.2-3.3,22.8-1.4,9.2-2.8,18.5-4.3,27.7-.5,3-1.7,5.7-2.6,8.5-4.4.9-8.9,1.3-13.4,1.8-7.5,1-15.1.5-22.6.8-8.4.3-15.3-3-21.5-8.3-3.4-2.9-5.6-6.5-7.4-10.5-2.3-5.1-3.1-10.1-3-15.6.2-14.4,0-28.9,0-43.3,0-3,.2-6-.5-9-.3-1.3-.2-2.7.4-3.9,2.3.4,4.4,1.5,6.8,1,7.8-1.4,15.7-2.6,23.5-4.2,9.3-1.9,18.6-3.4,27.9-5,2.3-.4,4.6-1,6.2-3,.8-1,1.8-2,3.3-2,1.6,1.5,2.6,3.3,3.7,5.2,1.6,2.7,3.3,5.3,5.5,7.6,1.2,1.2,2.4,2.3,4.1,2.5Z"/>
        <path class="cls-7" d="M661.2,899.1c-5.6-6.7-7.5-14.7-8.2-23.2-.2-3.2-1.2-6.2-1-9.4.4-5.5,1.1-10.9,1.9-16.4,1-7,2.7-13.7,5-20.4,4.4-12.9,10.7-24.8,19-35.7,5.8-7.7,13.1-13.7,21.4-18.6,1-.6,2.2-1,2.2-2.4,1.2-.1,2.4-.3,3.6-.4,1.2.4,2.5.5,3.4-.6,1.2-.1,2.5-.2,3.7-.4,1.5.3,3,.7,4.3-.5,1,0,2,0,3,0,0,1.5,1.3,2.3,1.9,3.4,1.8,3.3,1.1,6.7-2,8.8-1.4,1-2.9,1.7-4.7,1.5-5.4-.5-9.7,2.4-13.8,5.2-5.9,3.9-10.5,9.2-14.7,14.9-9.5,13-15.4,27.7-18.8,43.3-.9,3.8-1.8,7.8-1.4,11.9.2,2-.6,4-.8,5.9-.1,1.9.8,4,.7,5.9-.2,5.3,1.1,10.3,3.2,15.1,1.4,3.2,1.9,6.3,1,9.6-2.7,1.8-5.7,2.8-9,2.3Z"/>
        <path class="cls-2" d="M252,719.5c.8,0,1.7,0,2.5,0,2.2-.2,4.2.2,5.9,2,1.9,2,3.2,4.1,3.6,6.9.7,5.3.5,10.6,1.8,15.8.3,1.1.1,2.3.1,3.5,0,1.8,0,3.6.6,5.4.4,1.1.4,2.3.4,3.5,0,2,0,4,.7,5.9.4,1.4.3,3,.3,4.5,0,1.8,0,3.6.6,5.4.8,2.6.5,5.3.3,8-.3,2.6-1.9,4.6-4.2,5.9-3.2.8-6.3.2-9.3-.7-4.5-1.3-8.8-3.2-13-5.3-2.6-1.3-4.3-3.1-4.7-6-.5-3.1-1.4-6.2-1.6-9.4-.4-6.5-1.4-13-2-19.5-.5-4.7.7-8.9,3.9-12.6,3.6-4.1,7.2-7.9,11.9-10.7,1-.6,1.9-1.4,2.4-2.5Z"/>
        <path class="cls-4" d="M410,477.5c.9,0,1.6-.3,2.3-.8,3.9-2.6,7.9-5.1,11.8-7.6,3.5-2.3,7.5-3.7,11.4-5.3,7.1-3,14.6-4.7,22.1-6.3,1-.2,2-.1,3-.2,1.2,0,2.4,0,3.5-.2,5.6-1.3,11.2-1,16.9,0,3.4.6,7,.5,10.4,1.3,10.3,2.4,20.3,5.6,29.4,11.3,2.7,1.7,5.5,3.2,8.1,5.1,6.3,4.6,11.5,10.3,16.7,15.9,3.5,3.8,6.3,8.2,8.9,12.7,1.1,1.9,2.2,3.7,3.3,5.7,1.5,2.7,2.6,5.4,2.4,8.6-3,.7-6,1.2-9,1,.5-4.3-1.6-7.9-3.4-11.4-4.4-8.4-10.4-15.6-17.5-21.8-2.2-2-4.7-3.7-7.2-5.4-8.9-6.1-18.6-10.6-29.2-13-6.8-1.5-13.7-3-20.8-2.6-2.5.1-5,0-7.6,0-9.9,0-19.2,2.4-28.4,5.7-2.2.8-4.3,1.9-6.5,2.6-6.7,2.2-12.1,6.3-17.2,11-1.1,1-2.2,2.1-3.9,1.9-.4-2.7-.5-5.4.4-8.1Z"/>
        <path class="cls-2" d="M336.4,798.1c-1.5,0-2.5.9-3.3,2-1.6,2-3.9,2.6-6.2,3-9.3,1.5-18.6,3.1-27.9,5-7.8,1.6-15.7,2.7-23.5,4.2-2.4.4-4.6-.7-6.8-1-.4-.7-.8-1.5-1.2-2.2-1.6-3-1.9-5.9,0-8.9.4-.5.5-1.2.7-1.8,3.7-.8,7.5-1.4,11.2-2.4,2.7-.8,5.6-.9,8.3-1.5,6.3-1.4,12.7-2.2,19.1-3.3,5.5-1,11.1-1.8,16.6-3,2.6-.6,5.2-1,7.9-.9,0,2,.4,3.7,2.9,4,.1.6.3,1.2.4,1.7-.2,1.3-.5,2.6,1.1,3.3.2.6.4,1.3.6,1.9Z"/>
        <path class="cls-8" d="M427.4,626.9c.6.2,1.2.3,1.8.5-.8.7-1.4.3-1.8-.5Z"/>
        <path class="cls-7" d="M1015.7,903c-2.4-.5-5.1-.9-7.7-1.6-9.3-2.2-18.5-4.5-27.8-6.8-11.5-2.8-23-6-34.6-8.5-9.3-2-18.5-4.6-27.8-6.7-10.1-2.3-20.1-4.9-30.2-7.4-10.4-2.5-20.8-5-31.2-7.5-13-3.1-26-6.3-39-9.5-8.6-2.1-17.2-4.2-25.8-6.3-.8-.2-1.7-.3-2.5-.3-1.6-.1-3-.8-4.1-1.7-2.2-1.8-3.5-4.3-2.7-7.1.8-2.8,3.1-4.3,5.8-5,.7-.2,1.6.2,2.4.4,15.3,3.7,30.5,7.7,45.8,11.2,12.4,2.8,24.7,6,37,9,9.4,2.3,18.9,4.5,28.3,6.7,10.1,2.4,20.1,5.2,30.2,7.3,12.3,2.6,24.4,6,36.6,8.9,11.4,2.7,22.7,5.6,34.1,8.3,4.7,1.1,9.4,2.3,14.2,3.2,2.4.5,3.9,1.9,5.1,3.7,2.7,4.1.1,8.4-3.9,9.4-.6.2-1.3.1-2.2.2Z"/>
        <path class="cls-8" d="M333.7,787.1c-.7,1.5.8,2.6.6,4-2.4-.3-2.9-2-2.9-4,.8,0,1.5,0,2.3,0Z"/>
        <path class="cls-3" d="M712.2,771.7c1.4-.9,2.8-.8,4.3-.5-1.3,1.1-2.8.8-4.3.5Z"/>
        <path class="cls-1" d="M705.1,772.6c1.1-.8,2.2-.8,3.4-.6-1,1.1-2.2.9-3.4.6Z"/>
        <path class="cls-8" d="M334.7,792.8c1.7,1.2,1.7,1.2,1.1,3.3-1.6-.7-1.3-2-1.1-3.3Z"/>
      </g>
    </g>
  </g>
</svg>