<svg width="500" height="500" viewBox="0 0 500 500" fill="none" xmlns="http://www.w3.org/2000/svg">
<path d="M125.321 362.855C128.762 362.855 132.163 362.855 135.605 362.615C136.405 362.575 137.205 362.535 138.006 362.495C143.928 362.335 149.81 362.135 155.732 361.975C164.736 361.695 173.739 361.415 182.702 361.135C190.825 360.895 198.948 360.615 207.071 360.374C215.875 360.094 224.678 359.854 233.441 359.534C235.722 359.454 238.003 359.174 240.204 358.534C240.604 358.414 240.964 358.294 241.364 358.214C246.126 357.373 250.128 354.972 253.809 351.971C257.25 349.17 259.971 345.809 262.212 342.008C263.172 340.407 263.893 338.646 264.533 336.886C264.973 335.765 265.093 334.565 265.373 333.364C265.013 332.044 265.213 330.803 265.773 329.523C266.574 327.602 267.134 325.601 267.054 323.481C267.054 322.68 267.374 321.88 267.334 321.12C267.294 320.32 266.934 319.559 267.014 318.759C267.174 317.118 266.814 315.518 266.454 313.997C265.053 307.755 262.732 301.873 258.931 296.671C257.25 294.39 255.45 292.269 253.049 290.708C251.368 289.628 249.687 288.468 247.527 288.628C246.806 288.668 246.206 288.388 245.646 288.027C244.445 287.147 244.125 285.787 244.846 284.506C245.086 284.066 245.606 283.746 245.606 283.146C242.845 282.545 240.004 282.305 237.203 282.225C235.242 282.185 233.321 282.105 231.401 281.785C228.279 281.265 225.118 281.265 222.037 280.625C219.076 280.024 216.075 279.704 213.074 279.304C206.431 278.384 199.789 277.463 193.146 276.543C191.025 276.223 188.905 275.823 186.784 275.463C186.104 275.343 185.463 275.183 185.023 274.622H184.903C184.903 274.662 184.743 274.622 184.743 274.622C184.423 274.622 184.063 274.622 183.743 274.542C181.462 274.062 179.141 273.582 176.86 273.102C174.019 272.542 171.178 271.981 168.297 272.222C167.016 272.302 165.776 272.422 164.496 272.502C161.815 272.662 159.134 272.742 156.453 273.062C154.652 273.262 152.851 273.302 151.051 273.462C148.77 273.662 146.529 273.942 144.248 274.102C141.687 274.302 139.166 274.422 136.605 274.622C136.205 274.622 135.805 274.702 135.405 274.783C134.324 275.063 133.444 274.702 132.644 273.942C131.203 272.622 129.763 271.341 128.282 270.061C124.881 267.14 121.439 264.219 118.038 261.297C114.117 257.936 110.195 254.575 106.234 251.254C104.713 249.973 103.153 248.613 101.192 248.012C100.992 247.972 100.872 247.812 100.672 247.692C99.3512 247.892 98.3108 248.653 97.3905 249.573C95.4698 251.454 93.7491 253.535 92.1485 255.695C86.0663 263.938 82.0247 273.062 80.3041 283.186C78.7835 292.149 79.3037 300.992 82.3849 309.596C85.1459 317.238 89.6276 323.641 95.99 328.683C96.15 328.803 96.27 328.963 96.4301 329.083C96.8303 329.163 97.1504 329.323 97.5906 329.203C99.9114 328.763 102.192 328.323 104.513 327.962C105.914 327.722 107.314 327.482 108.715 327.482C111.836 327.522 114.837 328.282 117.478 330.043C117.878 330.323 118.238 330.603 118.598 330.923C120.359 332.484 121.8 334.365 122.96 336.406C123.72 337.766 124.24 339.207 124.16 340.807C124.16 341.207 124.16 341.607 124.2 342.008C124.681 345.689 124.841 349.37 124.921 353.052C124.921 354.412 124.961 355.733 125.081 357.053C125.281 359.014 125.361 360.935 125.201 362.895L125.321 362.855ZM127.162 335.845C126.801 335.845 126.521 335.845 126.281 335.765C124.641 335.365 123.6 333.645 124.721 332.004C125.201 331.284 125.801 330.683 126.761 330.523C128.682 330.163 130.563 329.683 132.444 329.243C137.005 328.122 141.527 327.002 146.089 325.922C150.97 324.761 155.812 323.441 160.734 322.36C164.776 321.48 168.777 320.4 172.819 319.439C176.58 318.519 180.381 317.679 184.143 316.758C189.065 315.558 193.987 314.277 198.948 313.157C205.071 311.756 211.153 310.196 217.275 308.675C217.595 308.595 217.956 308.435 218.236 308.515C219.316 308.835 220.276 309.395 220.556 310.516C220.877 311.676 220.356 312.637 219.476 313.357C218.996 313.757 218.436 313.997 217.835 314.037C217.515 314.037 217.155 314.117 216.835 314.157C213.394 314.998 209.953 315.838 206.511 316.678C201.309 317.959 196.107 319.199 190.905 320.48C186.744 321.48 182.582 322.48 178.421 323.481C174.379 324.441 170.378 325.521 166.336 326.442C162.615 327.282 158.933 328.323 155.212 329.123C150.57 330.123 145.969 331.364 141.367 332.524C137.646 333.444 133.964 334.365 130.243 335.245C129.202 335.485 128.162 335.685 127.162 335.885V335.845Z" fill="#696D65"/>
<path d="M184.823 274.542H184.983H185.103C185.423 274.462 185.744 274.422 186.064 274.302C189.385 273.182 192.666 272.022 195.987 270.981C203.63 268.66 211.273 266.379 218.916 264.139C222.237 263.138 225.598 262.178 228.92 261.137C229.88 260.857 230.72 260.897 231.641 261.137C235.122 262.138 238.683 262.778 242.325 262.818C243.925 262.818 245.526 263.218 247.126 262.858C247.367 262.818 247.647 262.938 247.927 262.898C249.727 262.818 251.568 262.898 253.329 262.618C257.57 261.938 261.692 260.737 265.653 259.057C271.055 256.816 275.937 253.815 279.819 249.373C280.979 248.053 281.979 246.612 282.82 245.091C283.06 244.611 283.42 244.131 283.42 243.611C283.5 242.45 284.02 241.45 284.34 240.33C283.94 239.85 283.46 239.529 282.94 239.209C280.899 237.889 278.858 236.608 276.938 235.168C275.337 234.007 273.576 233.287 271.656 232.847C269.695 232.367 267.774 231.807 265.933 231.006C263.092 229.806 260.331 228.405 257.61 226.925C256.73 226.445 255.85 225.844 255.209 225.124C253.209 222.963 251.328 220.682 249.807 218.121C248.727 216.361 247.807 214.48 247.126 212.519C246.366 210.158 246.126 207.798 247.166 205.437C247.367 204.996 247.447 204.556 247.607 204.116C248.407 202.115 249.287 200.155 250.648 198.474C252.368 196.313 254.369 194.433 256.45 192.632C258.371 190.991 260.411 189.671 262.772 188.79C264.653 188.07 266.574 187.47 268.614 187.31C270.615 187.15 272.656 187.31 274.657 187.31C275.057 187.31 275.457 187.39 275.857 187.47C277.938 187.99 279.939 188.75 281.899 189.671C286.141 191.752 289.982 194.393 293.584 197.434C296.145 199.594 298.746 201.715 301.307 203.876C301.827 203.516 302.267 203.076 302.627 202.556C302.507 201.955 302.467 201.355 302.267 200.795C301.507 198.594 300.706 196.353 299.906 194.152C299.746 193.712 299.426 193.352 299.226 192.952C298.386 191.351 297.385 189.831 296.665 188.19C296.025 186.79 295.264 185.469 294.384 184.189C293.584 183.028 292.583 182.028 291.663 180.948C291.263 180.787 290.983 180.507 290.783 180.107C289.462 179.307 288.142 178.507 286.821 177.746C283.02 175.505 278.978 173.945 274.617 173.225C272.496 172.864 270.375 172.504 268.254 172.184C267.854 172.104 267.454 172.024 267.054 172.024C264.093 171.904 261.172 171.584 258.211 171.664C254.729 171.744 251.248 172.024 247.767 172.344C243.405 172.744 239.123 173.425 234.882 174.385C233.241 174.745 231.681 175.345 230.12 175.946C223.838 178.307 217.555 180.627 211.273 182.988C207.392 184.429 203.43 185.749 199.589 187.35C195.187 189.151 190.905 191.271 186.704 193.552C184.743 194.593 182.782 195.593 180.782 196.593C172.979 200.515 165.176 204.436 157.373 208.318C156.613 208.718 155.772 209.038 155.252 209.798C156.012 210.238 156.253 211.039 156.573 211.759C157.493 213.84 158.413 215.921 159.374 218.001C161.775 223.243 164.215 228.485 166.616 233.727C169.017 238.969 171.498 244.171 173.859 249.453C175.94 254.095 177.901 258.817 179.941 263.498C181.542 267.18 182.942 270.981 184.823 274.542Z" fill="#8989DE"/>
<path d="M301.307 203.996C298.746 201.835 296.145 199.714 293.584 197.553C289.982 194.512 286.101 191.871 281.899 189.79C279.979 188.83 277.938 188.11 275.857 187.59C275.457 187.51 275.057 187.43 274.657 187.43C272.656 187.43 270.615 187.269 268.614 187.43C266.614 187.59 264.693 188.19 262.772 188.91C260.411 189.79 258.371 191.151 256.45 192.752C254.329 194.552 252.368 196.393 250.648 198.594C249.287 200.314 248.447 202.275 247.607 204.236C247.447 204.676 247.327 205.156 247.166 205.556C246.126 207.917 246.366 210.238 247.126 212.639C247.767 214.64 248.727 216.48 249.807 218.241C251.368 220.762 253.209 223.043 255.209 225.244C255.89 225.964 256.73 226.564 257.61 227.044C260.331 228.485 263.092 229.885 265.933 231.126C267.814 231.926 269.695 232.526 271.656 232.967C273.576 233.407 275.337 234.127 276.938 235.287C278.898 236.688 280.939 238.008 282.94 239.329C283.46 239.649 283.94 240.009 284.34 240.449C285.221 240.609 285.901 241.21 286.621 241.69C300.907 251.213 315.232 260.777 329.517 270.301C332.999 272.621 336.44 274.902 339.921 277.223C341.042 277.983 342.202 278.624 343.562 278.904C346.604 279.504 349.605 280.024 352.646 280.624C356.727 281.385 360.809 282.185 364.89 282.985C367.731 283.545 370.533 284.106 373.374 284.626C378.055 285.506 382.737 286.347 387.379 287.227C391.14 287.947 394.862 288.707 398.623 289.428C399.063 289.508 399.543 289.508 400.024 289.508C400.344 289.508 400.624 289.508 400.944 289.508C402.024 289.428 403.065 289.628 404.105 289.868C406.306 290.348 408.547 290.708 410.748 291.068C413.309 291.508 415.869 291.829 418.39 292.389C419.511 292.629 420.631 292.669 421.712 292.989C423.192 293.389 424.673 293.629 426.193 293.949C426.313 293.389 426.393 292.829 426.714 292.309C427.354 291.388 427.594 290.308 427.634 289.188C426.714 288.667 426.073 287.867 425.953 286.827C425.833 285.786 425.753 284.666 426.073 283.625C426.273 282.905 426.313 282.185 426.313 281.465C426.313 280.864 426.273 280.224 426.433 279.664C426.674 278.864 426.674 278.103 426.714 277.303C426.714 276.823 426.714 276.343 426.874 275.903C427.114 275.182 427.114 274.462 427.114 273.742C427.114 273.262 427.074 272.781 427.154 272.341C427.674 270.26 427.594 268.1 427.874 266.019C428.034 264.858 428.554 264.058 429.315 263.258C429.995 262.538 430.795 262.418 431.675 262.458C431.996 262.458 432.356 262.458 432.676 262.458C432.756 260.497 432.116 259.456 430.395 258.656C429.114 258.096 427.794 257.576 426.473 257.056C424.473 256.295 422.512 255.415 420.511 254.735C418.951 254.174 417.39 254.655 416.63 256.175C416.23 256.936 415.829 257.736 415.429 258.496C415.109 259.056 414.909 259.737 414.229 260.057C414.309 260.617 414.109 261.137 413.829 261.577C412.468 263.778 411.108 266.019 409.667 268.22C409.107 269.06 408.467 269.82 407.826 270.581C407.346 271.141 406.826 271.301 406.066 271.021C404.305 270.381 402.504 269.86 400.704 269.34C396.142 267.98 391.58 266.659 387.059 265.299C382.697 264.018 378.335 262.698 373.974 261.377C369.372 259.977 364.77 258.496 360.169 257.056C357.408 256.175 354.687 255.335 351.886 254.655C349.565 254.094 347.404 253.174 345.643 251.574C344.123 250.253 342.762 248.732 341.402 247.252C341.042 246.892 340.761 246.532 340.241 246.612C339.241 246.732 338.601 246.212 337.96 245.571C336.28 243.771 334.479 242.05 332.878 240.129C330.798 237.688 328.357 235.568 326.276 233.087C324.115 230.526 321.554 228.365 319.393 225.764C317.433 223.403 314.912 221.522 313.071 219.001C309.67 215.84 306.749 212.239 303.467 208.998C302.027 207.584 301.307 205.89 301.307 203.916V203.996Z" fill="#FFB68A"/>
<path d="M269.015 334.284C270.215 334.964 271.535 335.125 272.856 335.405C277.058 336.285 281.259 337.165 285.461 338.166C289.182 339.046 293.023 339.446 296.825 339.846C306.989 340.967 317.233 340.847 327.436 340.527C331.798 340.406 336.16 340.006 340.481 339.566C344.403 339.166 348.404 338.966 352.326 338.646C357.167 338.286 361.969 337.926 366.811 337.565C369.492 337.365 372.173 337.205 374.854 337.005C378.615 336.725 382.337 336.405 386.098 336.085C388.659 335.885 391.18 335.645 393.741 335.445C395.502 335.285 397.222 335.044 398.863 334.404C398.463 333.284 397.983 332.163 397.823 331.003C397.262 327.322 396.662 323.6 396.102 319.919C395.662 316.878 395.222 313.837 394.782 310.795C394.221 307.234 393.661 303.673 393.661 300.031C392.581 299.431 391.42 299.271 390.18 299.191C387.899 299.071 385.618 298.871 383.337 298.591C378.415 298.031 373.454 297.39 368.532 296.79C364.33 296.27 360.129 295.79 355.927 295.31C353.726 295.07 351.525 294.749 349.325 294.669C347.164 294.629 345.043 294.389 342.922 294.189C341.922 294.069 340.921 293.909 339.921 293.789C336.32 293.349 332.718 293.069 329.157 292.389C326.396 291.868 323.595 291.548 320.794 291.148C318.593 290.868 316.392 290.588 314.191 290.348C309.91 289.868 305.628 289.467 301.387 289.027C297.785 288.627 294.184 288.227 290.583 287.867C287.662 287.547 284.7 287.267 281.779 286.987C277.298 286.546 272.856 285.866 268.334 285.786C267.294 285.786 266.213 285.466 265.173 285.266C263.933 285.026 262.652 284.826 261.412 284.706C259.611 284.546 257.81 284.306 256.01 284.065C255.009 283.945 254.009 283.745 253.009 283.945C253.009 284.546 253.489 284.706 253.889 284.906C257.21 286.826 260.131 289.227 262.452 292.349C265.733 296.71 268.294 301.472 270.055 306.634C270.975 309.275 271.656 311.996 272.056 314.797C272.376 316.958 272.656 319.159 272.816 321.359C272.896 322.64 272.496 323.88 272.416 325.121C272.176 328.522 271.415 331.723 269.135 334.404L269.015 334.284Z" fill="#6A6E66"/>
<path d="M184.823 274.542C182.942 270.981 181.542 267.179 179.941 263.498C177.9 258.816 175.94 254.094 173.859 249.453C171.498 244.171 169.017 238.969 166.616 233.727C164.215 228.485 161.774 223.243 159.373 218.001C158.413 215.92 157.533 213.839 156.572 211.759C156.252 211.038 156.052 210.198 155.252 209.798C153.691 210.078 152.371 210.878 151.05 211.679C148.089 213.479 145.048 215.2 141.967 216.84C139.126 218.361 136.405 220.082 133.804 221.922C131.483 223.523 129.202 225.164 126.841 226.724C124.12 228.565 121.639 230.726 119.038 232.686C116.958 234.247 114.877 235.848 112.796 237.408C109.155 240.129 105.473 242.85 101.832 245.531C101.112 246.051 100.832 246.772 100.712 247.572C100.872 247.692 101.032 247.852 101.232 247.892C103.233 248.492 104.753 249.853 106.274 251.133C110.235 254.455 114.157 257.816 118.078 261.177C121.479 264.098 124.921 267.019 128.322 269.94C129.802 271.221 131.283 272.501 132.683 273.822C133.484 274.542 134.324 274.942 135.445 274.662C135.845 274.542 136.245 274.502 136.645 274.502C139.206 274.342 141.727 274.182 144.288 273.982C146.569 273.782 148.81 273.542 151.09 273.342C152.891 273.182 154.692 273.142 156.492 272.941C159.173 272.621 161.854 272.581 164.535 272.381C165.816 272.301 167.056 272.181 168.337 272.101C171.258 271.901 174.099 272.421 176.9 272.981C179.181 273.462 181.502 273.942 183.783 274.422C184.103 274.502 184.463 274.462 184.783 274.502L184.823 274.542Z" fill="#FFB68A"/>
<path d="M361.049 225.322C361.329 225.402 361.569 225.482 361.849 225.522C362.089 225.442 362.33 225.402 362.57 225.322C362.85 225.162 363.17 225.002 363.45 224.882C371.213 221.361 376.335 215.439 379.456 207.636C381.496 202.514 382.177 197.152 381.937 191.67C381.857 190.069 381.456 188.469 381.016 186.948C380.096 183.587 378.735 180.346 377.015 177.305C375.454 174.584 373.334 172.383 371.013 170.302C370.533 169.862 369.892 169.502 369.692 168.822C369.012 168.902 368.572 168.502 368.132 168.062C366.091 166.181 363.93 164.54 361.249 163.66C360.369 163.38 359.529 162.9 358.648 162.62C354.967 161.299 351.246 160.299 347.284 160.339C346.284 160.339 345.283 160.379 344.243 160.339C341.402 160.179 338.641 160.779 335.92 161.379C331.678 162.339 327.837 164.14 324.236 166.581C323.235 167.261 322.235 167.941 321.355 168.742C318.514 171.263 316.113 174.144 314.352 177.465C313.632 178.865 312.792 180.306 312.992 182.027C313.672 182.467 314.232 183.027 314.752 183.667C315.433 184.507 316.113 185.308 316.833 186.108C320.955 190.55 325.076 194.911 329.158 199.393C330.598 200.993 332.279 202.034 334.359 202.634C338.561 203.874 342.722 205.155 346.884 206.395C347.884 206.675 348.645 207.116 349.285 208.036C352.886 213.318 356.527 218.52 360.169 223.762C360.489 224.242 360.969 224.682 361.049 225.322Z" fill="#824414"/>
<path d="M125.321 362.854C125.481 360.893 125.401 358.973 125.201 357.012C125.081 355.692 125.041 354.331 125.041 353.011C124.961 349.329 124.761 345.648 124.32 341.967C124.28 341.567 124.24 341.166 124.28 340.766C124.36 339.166 123.84 337.725 123.08 336.365C121.92 334.324 120.479 332.443 118.718 330.883C118.358 330.563 117.998 330.282 117.598 330.002C114.957 328.242 111.996 327.481 108.835 327.441C107.434 327.441 106.034 327.681 104.633 327.922C102.313 328.282 99.9917 328.722 97.7109 329.162C97.2707 329.242 96.9106 329.122 96.5505 329.042C95.4701 329.682 94.2696 329.722 93.0692 329.922C90.1081 330.442 87.2271 331.323 84.266 332.043C80.2246 333.043 76.3032 334.364 72.4218 335.844C68.2202 337.485 64.9791 340.326 62.7383 344.247C61.5378 346.368 60.5775 348.609 60.2574 351.01C59.7772 354.531 59.8972 357.972 61.978 361.094C63.8187 363.855 66.3395 365.455 69.7008 365.375C72.5018 365.295 75.3428 365.535 78.1438 364.975C78.2239 364.975 78.2639 364.975 78.3439 364.975C81.425 365.095 84.5061 364.575 87.5872 364.535C90.5883 364.495 93.5894 364.175 96.6305 364.015C98.7513 363.895 100.912 363.895 103.033 363.654C108.475 363.054 113.877 363.454 119.319 363.254C121.319 363.174 123.32 363.014 125.321 362.894V362.854Z" fill="#FFB68A"/>
<path d="M361.049 225.322C360.969 224.682 360.489 224.242 360.169 223.762C356.527 218.52 352.886 213.318 349.285 208.036C348.645 207.116 347.884 206.676 346.884 206.396C342.722 205.155 338.561 203.875 334.359 202.634C332.319 202.034 330.638 200.994 329.158 199.393C325.116 194.911 320.955 190.55 316.833 186.108C316.113 185.308 315.433 184.508 314.752 183.667C314.232 183.027 313.672 182.467 312.992 182.027C311.751 182.107 310.591 181.907 309.39 181.627C307.59 181.787 305.789 181.627 303.988 181.507C299.867 181.186 295.745 181.266 291.624 181.026C292.544 182.107 293.545 183.107 294.345 184.268C295.225 185.548 296.026 186.868 296.626 188.269C297.346 189.95 298.346 191.47 299.187 193.031C299.387 193.431 299.707 193.831 299.867 194.231C300.667 196.432 301.468 198.633 302.228 200.874C302.428 201.434 302.468 202.034 302.588 202.634C303.188 202.634 303.788 202.674 304.389 202.634C305.189 202.594 305.829 202.874 306.349 203.474C306.629 203.795 306.91 204.075 307.19 204.315C308.99 205.995 310.591 207.916 312.231 209.757C314.112 211.838 316.193 213.758 318.034 215.879C320.234 218.48 322.835 220.721 325.036 223.322C327.037 225.642 329.518 227.563 331.358 230.084C334.68 233.125 337.521 236.606 340.682 239.808C341.522 240.648 342.482 241.408 343.083 242.489C343.243 242.769 343.523 242.769 343.763 242.529C343.923 242.329 344.043 242.088 344.203 241.848C345.123 240.448 346.004 239.047 346.884 237.607C347.204 237.087 347.604 236.847 348.164 236.767C348.124 236.486 347.964 236.206 348.044 236.006C348.645 234.606 349.325 233.125 350.685 232.325C353.886 230.484 356.888 228.323 359.969 226.323C360.409 226.043 361.009 225.883 360.969 225.202L361.049 225.322Z" fill="#FFB68A"/>
<path d="M291.624 181.066C295.745 181.347 299.867 181.227 303.988 181.547C305.789 181.707 307.59 181.827 309.39 181.667C309.31 180.426 309.75 179.306 310.351 178.225C310.751 177.465 311.231 176.705 311.671 175.945C312.711 174.144 313.832 172.383 315.232 170.863C317.353 168.622 319.434 166.341 321.915 164.5C322.955 163.74 324.076 163.14 325.156 162.46C328.757 160.179 332.759 158.858 336.92 157.938C338.281 157.618 339.721 157.658 341.082 157.418C343.363 157.058 345.603 156.938 347.844 157.418C348.284 157.498 348.764 157.458 349.245 157.498C349.645 157.498 350.045 157.498 350.445 157.578C353.446 158.218 356.447 158.938 359.288 160.099C360.849 160.739 362.409 161.299 363.85 162.22C365.41 163.22 367.011 164.26 368.572 165.261C368.852 165.461 369.172 165.581 369.492 165.581C369.692 164.02 369.292 162.5 368.932 161.019C365.971 149.535 358.608 142.493 347.084 139.772C345.243 139.331 343.363 139.171 341.482 139.051C337.961 138.851 334.559 139.211 331.238 140.572C325.756 142.813 320.434 145.334 315.512 148.655C311.871 151.096 308.59 153.937 305.829 157.378C300.147 164.541 294.865 171.983 290.744 180.186C290.904 180.586 291.184 180.866 291.624 181.026V181.066Z" fill="#824414"/>
<path d="M348.204 236.928C347.644 237.008 347.204 237.248 346.924 237.768C346.043 239.208 345.123 240.609 344.243 242.009C344.083 242.25 344.003 242.49 343.802 242.69C343.602 242.93 343.282 242.93 343.122 242.65C342.522 241.569 341.562 240.809 340.721 239.969C337.56 236.767 334.719 233.286 331.398 230.245C329.597 227.724 327.076 225.843 325.075 223.483C322.835 220.882 320.274 218.601 318.073 216.04C316.232 213.879 314.151 211.998 312.271 209.917C310.63 208.077 309.029 206.156 307.229 204.475C306.949 204.195 306.629 203.915 306.388 203.635C305.868 203.035 305.268 202.755 304.428 202.795C303.828 202.835 303.227 202.795 302.627 202.795C302.267 203.315 301.827 203.755 301.307 204.115C301.307 206.089 302.027 207.783 303.467 209.197C306.749 212.478 309.67 216.08 313.071 219.201C314.912 221.722 317.393 223.603 319.393 225.963C321.554 228.564 324.155 230.725 326.276 233.286C328.357 235.767 330.838 237.848 332.878 240.329C334.479 242.25 336.28 243.93 337.96 245.771C338.601 246.451 339.241 246.931 340.241 246.811C340.761 246.731 341.041 247.091 341.402 247.451C342.762 248.932 344.123 250.413 345.643 251.773C347.404 253.334 349.605 254.294 351.885 254.854C354.687 255.534 357.408 256.415 360.169 257.255C364.77 258.696 369.372 260.136 373.974 261.577C378.335 262.897 382.697 264.218 387.059 265.498C391.62 266.859 396.182 268.179 400.704 269.54C402.504 270.06 404.305 270.58 406.066 271.22C406.826 271.5 407.386 271.34 407.826 270.78C408.467 270.02 409.147 269.26 409.667 268.419C411.068 266.218 412.428 263.978 413.829 261.777C414.109 261.297 414.269 260.816 414.229 260.256C409.587 259.056 404.905 257.815 400.264 256.615C390.14 254.014 380.056 251.453 369.932 248.852C368.892 248.572 367.931 248.132 366.971 247.612C362.93 245.371 358.848 243.17 354.807 240.929C352.886 239.849 351.005 238.688 349.084 237.568C348.804 237.408 348.484 237.248 348.204 237.128V236.928Z" fill="#E6A47C"/>
<path d="M393.621 299.951C393.621 303.593 394.222 307.154 394.742 310.715C395.222 313.756 395.622 316.797 396.062 319.838C396.623 323.52 397.183 327.241 397.783 330.922C397.983 332.123 398.463 333.203 398.823 334.324C400.584 334.684 402.385 334.844 404.185 335.044C407.186 335.444 410.227 335.244 413.229 335.364C416.59 335.484 419.351 334.164 421.832 332.043C423.192 330.882 424.072 329.442 424.793 327.841C425.713 325.801 426.033 323.8 425.993 321.599C425.913 315.837 425.993 310.035 425.993 304.273C425.993 303.072 425.913 301.872 426.193 300.672C426.313 300.151 426.273 299.591 426.033 299.111C425.113 299.271 424.273 299.711 423.312 299.511C420.191 298.951 417.03 298.471 413.909 297.831C410.187 297.07 406.466 296.47 402.745 295.83C401.824 295.67 400.904 295.43 400.264 294.629C399.944 294.229 399.544 293.829 398.943 293.829C398.303 294.429 397.903 295.15 397.463 295.91C396.823 296.99 396.142 298.031 395.262 298.951C394.782 299.431 394.302 299.871 393.621 299.951Z" fill="#FFB68A"/>
<path d="M269.015 334.283C271.255 331.602 272.016 328.401 272.296 325C272.376 323.719 272.776 322.519 272.696 321.238C272.536 319.037 272.256 316.877 271.936 314.676C271.536 311.875 270.855 309.194 269.935 306.513C268.174 301.351 265.653 296.589 262.332 292.228C260.011 289.147 257.09 286.746 253.769 284.785C253.369 284.545 252.889 284.385 252.889 283.825C252.409 283.785 251.929 283.705 251.448 283.665C250.968 283.825 250.448 283.865 250.088 283.425C249.608 283.385 249.087 283.345 248.607 283.265C248.007 283.385 247.407 283.545 246.887 283.064C246.487 283.064 246.086 283.064 245.686 283.064C245.686 283.665 245.166 283.985 244.926 284.425C244.206 285.745 244.486 287.106 245.726 287.946C246.286 288.346 246.887 288.626 247.607 288.546C249.768 288.346 251.488 289.507 253.129 290.627C255.49 292.188 257.33 294.309 259.011 296.589C262.812 301.791 265.173 307.673 266.534 313.916C266.894 315.436 267.254 317.037 267.094 318.677C267.014 319.478 267.334 320.278 267.414 321.038C267.454 321.798 267.094 322.639 267.134 323.399C267.214 325.52 266.694 327.521 265.854 329.441C265.293 330.722 265.093 331.962 265.453 333.283C266.534 334.003 267.734 334.403 269.055 334.203L269.015 334.283Z" fill="#494A45"/>
<path d="M432.756 262.417C432.436 262.417 432.076 262.417 431.755 262.417C430.875 262.337 430.075 262.497 429.395 263.217C428.634 264.018 428.114 264.858 427.954 265.978C427.674 268.099 427.754 270.22 427.234 272.301C427.114 272.741 427.194 273.221 427.194 273.701C427.194 274.422 427.194 275.142 426.954 275.862C426.794 276.302 426.794 276.782 426.794 277.263C426.794 278.063 426.794 278.863 426.514 279.623C426.354 280.184 426.394 280.824 426.394 281.424C426.394 282.144 426.394 282.865 426.153 283.585C425.833 284.625 425.953 285.706 426.033 286.786C426.153 287.826 426.794 288.627 427.714 289.147C428.994 289.467 430.235 289.227 431.435 288.867C433.236 288.347 434.957 287.586 436.637 286.746C437.678 286.226 438.358 285.505 438.518 284.345C438.718 283.105 439.078 281.864 439.158 280.584C439.318 277.983 439.718 275.382 439.958 272.781C440.159 270.9 439.678 269.22 438.398 267.739C436.957 266.098 435.517 264.578 433.636 263.458C433.236 263.217 432.876 262.897 432.676 262.457L432.756 262.417Z" fill="#E6A47C"/>
<path d="M369.532 165.582C369.172 165.582 368.892 165.462 368.612 165.262C367.051 164.221 365.451 163.221 363.89 162.221C362.49 161.3 360.889 160.74 359.328 160.1C356.487 158.899 353.486 158.219 350.485 157.579C350.085 157.499 349.685 157.539 349.285 157.499C348.805 157.499 348.324 157.499 347.884 157.419C345.643 156.899 343.403 157.019 341.122 157.419C339.761 157.659 338.321 157.619 336.96 157.939C332.839 158.899 328.837 160.18 325.196 162.461C324.116 163.141 322.995 163.741 321.955 164.501C319.434 166.342 317.353 168.623 315.273 170.864C313.872 172.384 312.752 174.145 311.711 175.946C311.271 176.706 310.831 177.426 310.391 178.226C309.791 179.307 309.35 180.387 309.43 181.668C310.631 181.948 311.831 182.148 313.032 182.068C312.832 180.347 313.672 178.907 314.392 177.506C316.153 174.145 318.554 171.264 321.395 168.783C322.275 167.983 323.275 167.302 324.276 166.622C327.837 164.181 331.718 162.381 335.96 161.42C338.681 160.82 341.442 160.22 344.283 160.38C345.283 160.42 346.284 160.38 347.324 160.38C351.285 160.38 355.007 161.34 358.688 162.661C359.568 162.981 360.409 163.421 361.289 163.701C363.97 164.581 366.131 166.222 368.172 168.103C368.612 168.503 369.052 168.943 369.732 168.863C369.892 167.783 369.932 166.702 369.572 165.622L369.532 165.582Z" fill="#5E3717"/>
<path d="M398.983 293.869C399.583 293.869 399.984 294.229 400.304 294.669C400.944 295.469 401.864 295.709 402.785 295.869C406.506 296.47 410.227 297.11 413.949 297.87C417.07 298.51 420.231 298.951 423.352 299.551C424.312 299.711 425.193 299.271 426.073 299.151C426.233 298.871 426.393 298.55 426.553 298.27C427.193 297.07 427.313 295.909 426.553 294.709C426.393 294.509 426.353 294.229 426.273 293.989C424.793 293.669 423.272 293.429 421.791 293.028C420.711 292.708 419.551 292.668 418.47 292.428C415.949 291.868 413.388 291.548 410.828 291.108C408.627 290.708 406.386 290.387 404.185 289.907C403.145 289.667 402.104 289.507 401.024 289.547C401.024 290.347 400.864 291.028 399.864 291.148C399.824 291.388 399.744 291.628 399.703 291.828C399.784 292.348 399.904 292.868 399.263 293.148C399.183 293.389 399.103 293.669 399.023 293.909L398.983 293.869Z" fill="#E6A47C"/>
<path d="M362.57 225.363C362.329 225.443 362.089 225.483 361.849 225.563C362.169 225.843 362.41 225.683 362.57 225.363Z" fill="#FFB68A"/>
<path d="M127.161 335.845C128.122 335.645 129.202 335.485 130.243 335.205C133.964 334.325 137.645 333.404 141.367 332.484C145.968 331.363 150.57 330.083 155.212 329.083C158.933 328.282 162.615 327.242 166.336 326.402C170.378 325.481 174.379 324.441 178.421 323.441C182.582 322.44 186.744 321.44 190.905 320.439C196.107 319.199 201.309 317.918 206.511 316.638C209.952 315.798 213.394 314.957 216.835 314.117C217.155 314.037 217.515 313.997 217.835 313.997C218.476 313.957 219.036 313.677 219.476 313.317C220.356 312.596 220.876 311.596 220.556 310.476C220.236 309.355 219.316 308.755 218.235 308.475C217.955 308.395 217.595 308.555 217.275 308.635C211.153 310.116 205.07 311.716 198.948 313.117C193.986 314.237 189.065 315.518 184.143 316.718C180.381 317.638 176.58 318.519 172.818 319.399C168.777 320.359 164.775 321.48 160.734 322.32C155.812 323.361 150.97 324.721 146.088 325.881C141.527 326.962 137.005 328.122 132.443 329.203C130.563 329.643 128.682 330.123 126.761 330.483C125.801 330.683 125.201 331.243 124.72 331.964C123.64 333.604 124.68 335.325 126.281 335.725C126.521 335.805 126.801 335.765 127.161 335.805V335.845Z" fill="#494A45"/>
<path d="M400.064 289.467C400.344 290.067 399.743 290.507 399.823 291.067C400.784 290.947 400.984 290.267 400.984 289.467C400.664 289.467 400.384 289.467 400.064 289.467Z" fill="#FFB68A"/>
<path d="M248.607 283.305C248.046 282.945 247.486 282.985 246.886 283.105C247.406 283.545 248.006 283.425 248.607 283.305Z" fill="#696D65"/>
<path d="M251.448 283.665C251.008 283.345 250.568 283.345 250.087 283.425C250.488 283.865 250.968 283.785 251.448 283.665Z" fill="#6A6E66"/>
<path d="M399.663 291.748C398.983 292.228 398.983 292.228 399.223 293.069C399.863 292.788 399.743 292.268 399.663 291.748Z" fill="#FFB68A"/>
</svg>
