<svg width="500" height="500" viewBox="0 0 500 500" fill="none" xmlns="http://www.w3.org/2000/svg">
<path d="M322.336 361.022C321.962 361.755 321.298 362.222 320.723 362.77C318.528 364.869 316.202 366.817 313.841 368.731C311.611 370.54 309.242 372.176 307.116 374.128C305.646 375.478 303.93 376.52 302.163 377.469C296.322 380.605 290.458 383.688 284.273 386.115C279.875 387.839 275.35 389.124 270.689 389.923C264.914 390.91 259.227 390.636 253.68 388.669C252.329 388.19 251.033 387.554 249.748 386.917C248.965 386.527 248.278 386.481 247.503 386.917C244.899 388.375 242.071 389.205 239.166 389.822C236.334 390.424 233.483 390.609 230.593 390.397C224.151 389.926 218.024 388.186 212.083 385.76C205.787 383.194 199.788 380.011 193.885 376.651C192.851 376.061 191.84 375.37 190.968 374.564C187.851 371.69 184.317 369.325 181.181 366.481C179.348 364.819 177.55 363.113 175.752 361.412C175.471 361.146 175.278 360.791 175.046 360.475C175.641 359.36 175.683 358.222 175.27 357.026C174.321 354.248 173.469 351.435 172.477 348.669C170.872 344.19 169.178 339.742 167.558 335.267C167.377 334.761 167.423 334.175 167.361 333.623C170.698 333.488 174.036 333.268 177.377 333.233C183.75 333.168 190.127 333.284 196.504 333.183C201.528 333.106 206.531 333.55 211.547 333.504C211.381 334.364 211.184 335.216 211.064 336.081C210.983 336.675 211.385 337.199 211.971 337.3C212.438 337.381 212.92 337.381 213.399 337.4C217.55 337.597 221.697 337.25 225.802 336.794C228.973 336.443 232.152 336.455 235.323 336.112C239.027 335.71 242.792 335.915 246.535 335.595C250.18 335.286 253.872 335.463 257.541 335.429C258.34 335.421 259.162 335.541 259.929 335.386C262.618 334.846 265.335 335.074 268.039 334.989C268.915 334.962 269.814 335.016 270.659 334.827C271.689 334.595 272.711 334.564 273.749 334.561C281.09 334.53 288.432 334.483 295.774 334.495C297.225 334.495 298.617 334.159 300.045 334.051C300.527 334.013 300.739 333.642 300.674 333.21C300.604 332.744 300.481 332.269 300.28 331.848C299.902 331.042 299.709 330.193 299.574 329.325C300.211 329.302 300.847 329.26 301.488 329.26C312.66 329.267 323.829 329.279 335.002 329.298C335.399 329.298 335.797 329.345 336.194 329.372C335.739 329.804 335.256 330.186 334.963 330.791C333.713 333.361 332.313 335.853 330.978 338.38C328.563 342.944 326.298 347.589 324.037 352.234C323.277 353.796 322.679 355.448 322.078 357.08C321.719 358.052 321.48 359.078 322.305 359.988C322.317 360.332 322.332 360.679 322.344 361.022H322.336Z" fill="#696D66"/>
<path d="M211.554 333.499C206.535 333.549 201.531 333.102 196.508 333.179C190.135 333.279 183.757 333.163 177.38 333.229C174.043 333.264 170.706 333.484 167.365 333.619C167.207 333.538 167.049 333.461 166.89 333.38C166.751 333.202 166.605 333.187 166.439 333.345C164.865 333.391 163.291 333.437 161.717 333.48C161.57 333.291 161.397 333.206 161.161 333.322C160.691 333.225 160.22 333.129 159.749 333.032C156.501 331.053 154.553 328.16 154.047 324.421C153.685 321.752 153.592 319.036 154.159 316.362C154.537 314.584 154.981 312.824 155.397 311.053C156.157 309.371 156.748 307.639 157.103 305.826C158.843 301.177 160.575 296.524 162.326 291.879C162.5 291.42 162.558 290.969 162.535 290.494C163.692 288.754 164.232 286.744 164.985 284.831C167.276 278.971 169.521 273.091 171.771 267.211C174.109 261.112 176.439 255.009 178.761 248.902C180.146 245.252 181.427 241.56 182.901 237.949C184.298 234.531 186.215 231.425 188.919 228.832C191.624 226.236 194.776 224.427 198.329 223.339C202.322 222.116 206.446 221.761 210.609 221.93C211.477 221.965 212.333 222.216 213.194 222.37C212.754 224.951 212.191 227.505 211.878 230.113C211.573 232.632 211.172 235.14 210.894 237.667C210.52 241.058 210.034 244.434 209.614 247.817C209.316 250.179 209.023 252.54 208.769 254.905C208.541 257.034 208.371 259.171 208.175 261.305C207.951 261.729 207.7 262.138 207.507 262.574C204.309 269.881 201.384 277.296 198.884 284.877C198.036 287.447 197.094 289.985 196.199 292.539C195.119 295.625 194.043 298.712 192.978 301.806C192.743 302.485 193.032 302.913 193.777 302.871C196.4 302.713 199.027 302.577 201.639 302.288C205.123 301.902 208.603 301.513 212.106 301.385C212.661 301.366 213.217 301.293 213.772 301.247C217.958 300.841 222.144 300.432 226.33 300.031C227.518 299.916 227.518 299.919 227.893 298.673C228.761 295.776 229.513 292.848 231.072 290.197C233.12 286.71 235.535 283.619 239.131 281.582C242.499 279.677 247.024 279.939 250.145 282.342C250.898 282.921 251.561 283.616 252.263 284.256C252.213 284.65 252.236 285.066 252.105 285.433C251.426 287.339 251.291 289.298 251.299 291.305C251.337 298.407 251.326 305.51 251.307 312.608C251.307 313.812 251.48 314.965 251.727 316.142C251.993 317.423 252.634 318.129 253.895 318.318C253.54 320.081 252.734 321.655 251.569 322.975C248.483 326.478 244.605 328.738 240.095 329.915C236.92 330.745 233.629 330.698 230.404 331.173C228.201 331.493 225.979 331.659 223.753 331.79C220.74 331.964 217.742 332.384 214.733 332.639C213.607 332.735 212.538 332.944 211.55 333.503L211.554 333.499Z" fill="#FFB68A"/>
<path d="M336.19 329.37C335.793 329.343 335.395 329.297 334.998 329.297C323.825 329.282 312.656 329.266 301.484 329.259C300.847 329.259 300.211 329.301 299.574 329.324C296.075 329.289 292.576 329.178 289.077 329.251C286.515 329.305 284.015 328.811 281.48 328.649C279.108 328.499 276.758 328.016 274.389 327.897C271.689 327.758 269.027 327.191 266.311 327.295C265.998 327.306 265.67 327.245 265.373 327.152C260.686 325.694 256.955 323.105 255.038 318.383C256.33 316.932 256.677 315.25 256.627 313.314C256.511 308.78 256.596 304.24 256.581 299.703C256.581 298.912 256.596 298.09 256.392 297.342C256.153 296.474 256.137 295.621 256.118 294.745C256.068 292.45 256.21 290.162 255.705 287.87C255.462 286.767 255.35 285.691 254.598 284.807C254.328 284.491 254.22 284.116 254.181 283.711C254.837 282.485 255.898 281.624 256.959 280.791C257.981 279.988 259.208 279.541 260.485 279.425C264.158 279.097 267.445 280.15 270.184 282.608C273.564 285.64 275.863 289.46 277.695 293.569C278.506 295.386 279.146 297.272 279.856 299.132C280.242 300.146 280.913 300.605 282.047 300.567C285.392 300.463 288.741 300.44 292.09 300.382C299.018 300.416 305.951 300.451 312.88 300.482C313.119 300.482 313.362 300.474 313.59 300.413C313.926 300.324 314.149 300.058 314.107 299.718C314.049 299.251 313.953 298.773 313.775 298.341C312.892 296.211 312.012 294.082 311.063 291.983C310.442 290.606 309.751 289.267 309.188 287.855C308.069 285.05 306.974 282.23 305.554 279.549C304.439 277.438 303.366 275.297 302.421 273.102C300.94 269.661 299.262 266.316 297.479 263.029C296.657 261.513 296.013 259.827 294.57 258.708C294.524 258.314 294.509 257.909 294.42 257.523C293.243 252.338 292.032 247.165 290.878 241.976C289.52 235.857 288.174 229.735 286.901 223.6C286.596 222.138 286.083 220.676 286.291 219.133C288.343 219.175 290.396 219.241 292.448 219.256C298.328 219.299 304.107 220.005 309.736 221.776C310.261 222.373 310.754 223.002 311.318 223.562C313.949 226.17 316.024 229.179 317.772 232.424C320.23 236.991 322.305 241.737 324.385 246.486C325.214 248.384 326.159 250.24 327.155 252.061C329.647 256.609 331.973 261.243 334.103 265.972C334.168 266.119 334.238 266.262 334.307 266.405C337.151 272.296 339.986 278.191 342.841 284.078C343.215 284.85 343.412 285.772 344.323 286.169C344.087 287.11 344.543 287.89 344.936 288.669C346.12 291.026 347.12 293.46 348.154 295.887C348.96 297.785 349.531 299.811 350.812 301.489C351.109 303.179 351.861 304.695 352.617 306.211C353.127 307.885 353.624 309.564 354.149 311.234C355.106 314.282 355.086 317.353 354.458 320.451C353.674 324.29 350.846 328.121 346.418 328.464C344.782 328.591 343.069 328.676 341.479 329.282C339.712 329.309 337.949 329.336 336.182 329.367L336.19 329.37Z" fill="#FFB68A"/>
<path d="M292.089 300.387C288.74 300.441 285.392 300.468 282.047 300.572C280.912 300.606 280.241 300.147 279.855 299.137C279.146 297.277 278.501 295.387 277.695 293.573C275.866 289.468 273.563 285.645 270.183 282.613C267.444 280.155 264.157 279.102 260.485 279.43C259.208 279.546 257.977 279.993 256.958 280.796C255.897 281.629 254.836 282.489 254.181 283.716C253.61 284.137 252.985 284.36 252.267 284.256C251.561 283.616 250.897 282.921 250.149 282.343C247.028 279.939 242.503 279.673 239.135 281.583C235.539 283.62 233.124 286.71 231.075 290.198C229.517 292.848 228.764 295.776 227.896 298.674C227.522 299.924 227.522 299.92 226.334 300.032C222.148 300.437 217.962 300.842 213.78 301.251C213.811 298.623 214.316 296.046 214.636 293.45C214.856 291.668 215.335 289.928 214.864 288.045C213.155 281.193 211.623 274.295 209.953 267.432C209.451 265.372 208.957 263.296 208.174 261.309C208.371 259.176 208.541 257.038 208.768 254.909C209.023 252.544 209.316 250.183 209.613 247.822C210.038 244.438 210.52 241.059 210.894 237.671C211.172 235.144 211.573 232.637 211.878 230.117C212.194 227.509 212.754 224.955 213.194 222.374C219.798 221.726 226.411 221.275 233.051 221.298C233.182 222.274 233.714 223.092 234.15 223.937C238.151 231.657 242.167 239.365 246.195 247.069C247.194 248.979 248.251 250.854 249.281 252.744C249.358 252.883 249.42 253.034 249.509 253.165C250.647 254.955 251.634 254.97 252.657 253.18C253.093 252.42 253.455 251.614 253.791 250.808C256.962 243.15 260.118 235.484 263.285 227.826C264.377 225.183 265.484 222.544 266.588 219.905C269.485 219.678 272.383 219.454 275.28 219.226C277.626 219.489 279.971 219.493 282.313 219.18C283.64 219.003 284.963 218.895 286.291 219.142C286.082 220.685 286.595 222.143 286.9 223.609C288.173 229.747 289.52 235.87 290.878 241.985C292.031 247.174 293.243 252.351 294.419 257.532C294.508 257.918 294.52 258.319 294.57 258.717C294.253 260.437 293.895 262.15 293.628 263.875C292.652 270.236 291.707 276.598 290.758 282.964C290.569 284.222 290.438 285.487 290.233 286.741C289.875 288.924 290.442 291.012 290.847 293.114C291.314 295.529 291.858 297.933 292.085 300.39L292.089 300.387Z" fill="#8A89DE"/>
<path d="M155.405 311.052C154.988 312.819 154.545 314.583 154.167 316.361C153.599 319.035 153.696 321.751 154.055 324.42C154.56 328.159 156.508 331.052 159.757 333.031C159.626 333.22 159.344 333.444 159.382 333.587C159.776 335.022 160.355 336.291 162.11 336.473C163.526 336.619 164.298 337.406 164.76 338.799C166.018 342.568 167.407 346.295 168.788 350.022C169.895 353 171.072 355.955 172.21 358.922C172.554 359.821 173.159 360.373 174.139 360.469C173.784 360.955 173.757 361.476 173.919 362.043C174.394 363.714 174.857 365.392 175.32 367.066C175.891 369.13 176.365 371.21 176.061 373.378C175.902 373.386 175.74 373.378 175.586 373.405C170.918 374.315 166.257 375.272 161.582 376.121C159.56 376.488 157.573 377.109 155.494 377.124C152.693 372.664 149.9 368.201 147.087 363.748C137.033 347.823 126.976 331.897 116.91 315.979C114.831 312.692 113.422 309.193 113.087 305.273C112.632 299.949 113.966 295.123 117.091 290.841C120.324 286.412 124.661 283.337 129.684 281.234C132.23 280.169 134.935 279.953 137.674 280.131C142.025 280.416 146.153 281.578 150.131 283.318C153.943 284.984 157.573 286.983 160.96 289.413C161.477 289.783 162.014 290.131 162.538 290.493C162.561 290.968 162.504 291.419 162.33 291.878C160.578 296.523 158.842 301.176 157.106 305.825C156.562 305.825 156.003 305.736 155.482 305.844C154.533 306.037 153.785 307.036 154.024 307.92C154.321 309.019 154.433 310.238 155.405 311.056V311.052Z" fill="#6A6E67"/>
<path d="M341.487 329.291C343.076 328.685 344.789 328.6 346.425 328.473C350.85 328.13 353.682 324.299 354.465 320.46C355.094 317.362 355.113 314.287 354.156 311.243C353.631 309.573 353.134 307.895 352.625 306.22C353.033 306.205 353.446 306.132 353.658 305.75C354.044 305.055 354.453 304.365 354.727 303.624C355.233 302.27 354.322 301.055 352.883 300.981C352.123 300.943 351.51 301.348 350.819 301.498C349.534 299.824 348.967 297.795 348.161 295.896C347.131 293.47 346.132 291.035 344.943 288.678C344.55 287.895 344.095 287.12 344.33 286.178C348.697 283.964 353.269 282.34 358.118 281.552C361.606 280.985 365.105 280.823 368.604 281.448C373.978 282.405 378.249 285.272 381.579 289.434C387.069 296.298 387.879 303.879 384.441 311.93C383.685 313.697 382.64 315.31 381.586 316.911C370.34 333.978 359.094 351.05 347.856 368.121C345.97 370.988 344.102 373.87 342.223 376.744C341.49 377.195 340.75 377.087 339.932 376.925C333.774 375.706 327.609 374.537 321.444 373.357C321.19 371.659 321.606 370.031 322.035 368.422C322.424 366.964 322.914 365.537 323.354 364.09C323.609 363.253 323.871 362.419 324.106 361.578C324.214 361.196 324.349 360.726 324.025 360.456C323.682 360.17 323.285 360.448 322.949 360.664C322.752 360.791 322.544 360.907 322.339 361.027C322.328 360.683 322.312 360.336 322.301 359.993C323.701 360.051 324.593 359.433 325.407 358.237C328.501 353.697 331.19 348.917 333.813 344.102C336.058 339.978 338.188 335.792 340.318 331.61C340.707 330.842 341.46 330.248 341.483 329.295L341.487 329.291Z" fill="#6A6E67"/>
<path d="M233.877 210.842C230.682 207.408 228.456 203.392 226.882 199.005C225.532 195.244 224.922 191.324 224.401 187.37C224.004 184.353 224.046 181.336 223.9 178.319C223.819 176.66 223.522 175.009 223.248 173.365C223.144 172.737 222.955 172.127 223.094 171.483C223.51 171.456 223.869 171.317 224.124 170.97C225.181 169.519 226.662 168.566 228.097 167.559C233.14 164.014 238.718 161.768 244.752 160.603C249.193 159.743 253.618 159.724 258.043 160.781C265.77 162.625 272.418 166.359 277.989 172.015C277.915 173.122 277.757 174.233 277.78 175.341C277.85 178.373 277.68 181.382 277.232 184.384C276.673 188.161 276.307 191.972 275.253 195.653C273.633 201.305 271.233 206.544 267.001 210.776C266.284 210.784 265.581 210.83 264.922 211.193C264.366 211.498 263.768 211.683 263.128 211.806C260.639 212.285 258.155 212.805 255.605 212.713C252.04 212.585 248.444 213.133 244.914 212.258C242.669 212.377 240.524 211.775 238.336 211.424C236.867 211.189 235.412 210.637 233.877 210.842Z" fill="#FFB68A"/>
<path d="M286.291 219.139C284.964 218.892 283.64 219 282.313 219.177C279.971 219.49 277.626 219.486 275.28 219.223C275.292 217.865 275.126 216.48 275.35 215.161C275.855 212.194 276.264 209.2 277.306 206.346C278.559 202.912 279.79 199.471 280.959 196.01C283.054 189.826 285.137 183.638 287.147 177.426C288.444 173.418 290.006 169.486 290.843 165.339C291.094 164.097 291.542 162.855 291.549 161.609C291.569 158.835 291.711 156.072 291.19 153.279C289.713 145.351 285.789 139.086 279.127 134.556C276.279 132.624 273.104 131.293 270.006 129.834C269.231 129.472 268.32 129.398 267.472 129.194C271.345 127.292 275.327 125.683 279.543 124.699C293.139 121.528 306.9 129.792 310.92 142.431C312.459 147.272 312.591 152.145 311.503 157.087C310.457 161.848 309.08 166.52 307.776 171.207C304.983 181.253 304.165 191.461 305.095 201.824C305.538 206.762 306.372 211.646 307.695 216.426C308.204 218.263 309.049 220.003 309.74 221.789C304.115 220.018 298.332 219.312 292.452 219.27C290.4 219.254 288.347 219.189 286.295 219.146L286.291 219.139Z" fill="#7B4923"/>
<path d="M277.988 172.014C272.417 166.358 265.766 162.624 258.042 160.78C253.617 159.723 249.196 159.742 244.751 160.602C238.718 161.767 233.139 164.013 228.097 167.558C226.661 168.569 225.18 169.522 224.123 170.969C223.868 171.316 223.509 171.455 223.093 171.482C222.823 169.348 222.553 167.211 222.286 165.078C221.58 159.457 221.839 153.909 223.996 148.608C228.293 138.045 236.167 131.957 247.413 130.159C250.847 129.611 254.261 129.75 257.649 130.364C259.412 130.684 261.113 130.742 262.849 130.36C262.714 131.378 263.254 132.038 264.064 132.509C264.755 132.91 265.488 133.23 266.198 133.597C270.314 135.73 273.597 138.813 276.317 142.532C277.502 144.152 278.385 145.919 279.08 147.805C280.519 151.714 281.456 155.714 281.533 159.892C281.556 161.011 281.506 162.13 281.545 163.249C281.645 166.347 280.31 168.963 278.775 171.501C278.628 171.744 278.258 171.848 277.992 172.014H277.988Z" fill="#7B4923"/>
<path d="M321.441 373.35C327.606 374.534 333.771 375.699 339.928 376.918C340.746 377.08 341.487 377.188 342.22 376.737C342.737 377.466 343.412 378.021 344.133 378.527C349.426 382.234 354.723 385.934 360.013 389.642C360.862 390.236 361.718 390.826 362.524 391.474C364.924 393.392 365.526 395.973 364.835 398.793C364.33 400.853 362.717 402.23 360.8 402.94C358.254 403.885 355.588 404.429 352.825 403.8C352.285 403.677 351.714 403.619 351.163 403.638C348.439 403.739 345.761 403.203 343.057 403.013C340.603 402.844 338.188 402.234 335.742 401.922C332.586 401.517 329.458 400.907 326.275 400.66C324.539 400.525 322.818 400.101 321.117 399.696C319.882 399.399 319.107 398.426 318.486 397.389C317.525 395.78 317.151 393.99 317.043 392.134C316.792 387.693 317.587 383.4 318.891 379.183C319.384 377.586 319.99 376.019 320.577 374.453C320.742 374.013 320.959 373.566 321.433 373.342L321.441 373.35Z" fill="#FFB68B"/>
<path d="M155.498 377.13C157.578 377.114 159.564 376.493 161.586 376.127C166.266 375.278 170.922 374.321 175.59 373.411C175.745 373.38 175.907 373.392 176.065 373.384C176.867 373.781 177.114 374.58 177.342 375.324C178.241 378.295 179.039 381.293 179.379 384.391C179.499 385.498 179.691 386.597 179.788 387.705C179.977 389.865 179.688 392.002 179.302 394.117C179.101 395.212 178.769 396.296 178.144 397.238C177.141 398.754 175.818 399.88 173.962 400.158C172.55 400.37 171.158 400.702 169.711 400.756C168.125 400.818 166.547 401.069 164.973 401.308C161.358 401.856 157.759 402.508 154.14 403.001C151.937 403.302 149.703 403.414 147.481 403.569C146.054 403.669 144.634 403.719 143.203 403.935C140.633 404.317 138.037 403.95 135.741 402.797C132.393 401.119 130.95 398.515 132.304 394.46C132.512 393.835 132.817 393.287 133.288 392.843C134.218 391.971 135.093 391.015 136.131 390.293C142.08 386.15 148.068 382.06 154.047 377.959C154.507 377.647 155.012 377.4 155.494 377.126L155.498 377.13Z" fill="#FFB68B"/>
<path d="M277.988 172.013C278.254 171.843 278.624 171.739 278.771 171.5C280.306 168.957 281.641 166.346 281.541 163.248C281.506 162.129 281.553 161.01 281.529 159.891C281.448 155.713 280.515 151.716 279.076 147.804C278.381 145.918 277.502 144.151 276.313 142.53C273.594 138.811 270.31 135.729 266.194 133.595C265.484 133.229 264.751 132.909 264.061 132.507C263.254 132.04 262.71 131.381 262.845 130.358C264.346 129.811 265.878 129.375 267.471 129.189C268.32 129.394 269.23 129.467 270.006 129.83C273.104 131.288 276.279 132.619 279.126 134.552C285.792 139.081 289.716 145.347 291.19 153.275C291.711 156.068 291.568 158.83 291.549 161.604C291.541 162.85 291.093 164.093 290.843 165.335C290.009 169.486 288.443 173.413 287.147 177.422C285.137 183.633 283.053 189.821 280.958 196.006C279.786 199.466 278.555 202.911 277.305 206.341C276.263 209.196 275.854 212.19 275.349 215.157C275.121 216.476 275.291 217.865 275.28 219.219C272.382 219.447 269.485 219.67 266.588 219.898C266.526 219.281 266.661 218.633 266.317 218.054C266.545 215.627 266.773 213.204 267 210.778C271.236 206.546 273.636 201.307 275.253 195.655C276.306 191.97 276.672 188.159 277.232 184.385C277.675 181.384 277.845 178.375 277.779 175.342C277.756 174.235 277.911 173.124 277.988 172.017V172.013Z" fill="#5D3818"/>
<path d="M266.318 218.053C266.661 218.632 266.526 219.28 266.588 219.897C265.489 222.536 264.378 225.175 263.286 227.818C260.118 235.48 256.962 243.142 253.791 250.8C253.456 251.61 253.089 252.416 252.657 253.172C251.635 254.962 250.643 254.947 249.509 253.157C249.424 253.022 249.358 252.875 249.281 252.736C248.251 250.846 247.194 248.967 246.195 247.061C242.167 239.357 238.151 231.645 234.15 223.929C233.714 223.084 233.182 222.27 233.051 221.29C233.498 220.707 233.653 220.044 233.637 219.311C233.626 218.535 233.56 217.741 233.876 216.996C235.998 217.239 238.016 218.011 240.157 218.215C242.437 218.431 244.667 219.041 246.986 218.971C248.255 218.933 249.574 218.817 250.79 219.095C252.059 219.388 253.301 219.438 254.571 219.427C256.311 219.415 258.031 219.33 259.779 219.076C261.662 218.802 263.54 218.616 265.365 218.057C265.655 217.968 265.998 218.053 266.314 218.057L266.318 218.053Z" fill="#FFB68B"/>
<path d="M266.318 218.053C266.002 218.053 265.658 217.965 265.369 218.053C263.54 218.613 261.662 218.798 259.783 219.072C258.035 219.327 256.314 219.411 254.574 219.423C253.309 219.435 252.063 219.384 250.794 219.091C249.578 218.813 248.259 218.929 246.99 218.968C244.671 219.037 242.437 218.428 240.161 218.212C238.02 218.007 236.002 217.236 233.88 216.992C233.672 216.541 233.626 216.063 233.73 215.592C234.077 214.014 233.985 212.429 233.876 210.839C235.408 210.635 236.866 211.186 238.336 211.422C240.524 211.773 242.669 212.374 244.914 212.255C248.448 213.131 252.04 212.583 255.605 212.71C258.155 212.803 260.639 212.282 263.128 211.804C263.768 211.68 264.366 211.495 264.922 211.19C265.581 210.827 266.283 210.781 267.001 210.773C266.773 213.2 266.546 215.623 266.318 218.05V218.053Z" fill="#E6A37B"/>
<path d="M174.147 360.474C173.167 360.374 172.561 359.822 172.218 358.927C171.08 355.96 169.903 353.005 168.796 350.027C167.415 346.3 166.026 342.573 164.768 338.804C164.305 337.411 163.534 336.62 162.118 336.477C160.363 336.296 159.784 335.027 159.39 333.592C159.352 333.453 159.633 333.225 159.765 333.036C160.235 333.133 160.706 333.229 161.177 333.322C161.323 333.507 161.508 333.561 161.732 333.48C163.306 333.434 164.88 333.387 166.45 333.345L166.67 333.437L166.902 333.379C167.06 333.461 167.218 333.538 167.376 333.619C167.434 334.17 167.388 334.757 167.573 335.262C169.193 339.737 170.887 344.186 172.492 348.665C173.48 351.427 174.332 354.243 175.285 357.021C175.694 358.221 175.656 359.355 175.061 360.47H174.159L174.147 360.474Z" fill="#494A45"/>
<path d="M255.037 318.384C256.955 323.106 260.685 325.699 265.373 327.153C265.674 327.246 266.002 327.307 266.31 327.296C269.026 327.192 271.688 327.759 274.389 327.898C276.761 328.017 279.111 328.5 281.48 328.65C284.014 328.812 286.514 329.306 289.076 329.252C292.575 329.179 296.074 329.29 299.574 329.325C299.705 330.193 299.898 331.042 300.276 331.848C300.476 332.273 300.6 332.747 300.669 333.21C300.731 333.642 300.523 334.013 300.04 334.051C298.613 334.159 297.22 334.499 295.77 334.495C288.428 334.483 281.086 334.526 273.745 334.56C272.711 334.564 271.684 334.595 270.654 334.827C269.813 335.016 268.91 334.962 268.035 334.989C265.33 335.074 262.614 334.846 259.925 335.386C259.158 335.54 258.336 335.421 257.537 335.428C253.868 335.463 250.176 335.286 246.53 335.594C242.788 335.911 239.027 335.71 235.319 336.111C232.148 336.455 228.969 336.443 225.798 336.794C221.693 337.246 217.549 337.593 213.394 337.4C212.92 337.377 212.434 337.381 211.967 337.3C211.38 337.195 210.979 336.675 211.06 336.08C211.18 335.216 211.377 334.364 211.542 333.503C212.53 332.944 213.599 332.736 214.725 332.639C217.734 332.381 220.732 331.964 223.745 331.79C225.975 331.659 228.193 331.497 230.396 331.173C233.622 330.702 236.909 330.749 240.088 329.915C244.601 328.735 248.475 326.478 251.561 322.975C252.726 321.652 253.533 320.081 253.888 318.318C254.266 318.342 254.648 318.365 255.026 318.384H255.037Z" fill="#8A89DB"/>
<path d="M341.486 329.289C341.463 330.242 340.711 330.836 340.321 331.604C338.192 335.786 336.058 339.972 333.817 344.096C331.193 348.911 328.504 353.691 325.41 358.232C324.592 359.431 323.705 360.045 322.305 359.987C321.479 359.076 321.718 358.054 322.077 357.082C322.679 355.446 323.277 353.799 324.037 352.236C326.298 347.591 328.562 342.946 330.977 338.382C332.312 335.855 333.713 333.363 334.963 330.794C335.256 330.192 335.738 329.81 336.193 329.374C337.96 329.347 339.723 329.32 341.49 329.289H341.486Z" fill="#494A45"/>
<path d="M255.037 318.384C254.655 318.36 254.277 318.337 253.899 318.318C252.638 318.129 252.001 317.419 251.731 316.142C251.484 314.965 251.307 313.812 251.311 312.608C251.33 305.506 251.341 298.403 251.303 291.304C251.291 289.298 251.43 287.338 252.109 285.433C252.24 285.07 252.217 284.649 252.267 284.256C252.985 284.36 253.614 284.14 254.181 283.716C254.22 284.121 254.328 284.495 254.598 284.811C255.354 285.699 255.462 286.775 255.705 287.875C256.21 290.166 256.067 292.454 256.118 294.75C256.137 295.622 256.152 296.478 256.392 297.346C256.596 298.094 256.581 298.916 256.581 299.707C256.596 304.244 256.515 308.781 256.627 313.318C256.677 315.255 256.33 316.937 255.037 318.387V318.384Z" fill="#E6A37B"/>
<path d="M155.405 311.054C154.433 310.236 154.321 309.017 154.024 307.918C153.785 307.034 154.533 306.039 155.482 305.842C156.003 305.738 156.566 305.823 157.106 305.823C156.752 307.636 156.161 309.372 155.401 311.05L155.405 311.054Z" fill="#494A45"/>
<path d="M161.724 333.48C161.501 333.557 161.316 333.507 161.169 333.321C161.404 333.206 161.578 333.294 161.724 333.48Z" fill="#6A6E67"/>
<path d="M166.894 333.38L166.663 333.438L166.443 333.345C166.605 333.187 166.755 333.206 166.894 333.38Z" fill="#E6A37B"/>
<path d="M350.815 301.497C351.506 301.346 352.119 300.937 352.879 300.98C354.322 301.057 355.228 302.272 354.723 303.622C354.449 304.363 354.04 305.054 353.654 305.748C353.442 306.134 353.029 306.203 352.62 306.219C351.864 304.703 351.108 303.186 350.815 301.497Z" fill="#494A45"/>
</svg>
