<svg width="500" height="500" viewBox="0 0 500 500" fill="none" xmlns="http://www.w3.org/2000/svg">
<path d="M103.02 280.069C102.942 280.01 102.859 279.951 102.781 279.896C102.298 279.095 101.776 278.345 100.739 278.22C100.661 278.161 100.582 278.102 100.504 278.047C99.6674 276.72 97.7278 275.055 96.2515 274.407C96.0395 274.234 95.8235 274.066 95.6115 273.893C94.9833 272.66 93.9075 271.867 92.8199 271.086C92.7336 271.023 92.5844 271.054 92.4666 271.038C92.3881 270.98 92.3095 270.921 92.231 270.862C91.5557 269.672 90.5349 268.828 89.4434 268.055C89.357 267.996 89.2078 268.023 89.09 268.007C88.8819 267.831 88.6699 267.65 88.4618 267.473C88.3676 267.01 88.0103 266.731 87.704 266.425C85.8037 264.513 83.8995 262.609 81.9913 260.705C81.6851 260.398 81.3985 260.045 80.9234 259.986C80.8645 259.908 80.8017 259.833 80.7428 259.754C80.3894 258.419 79.3804 257.662 78.3006 256.963C78.2417 256.884 78.1868 256.802 78.1279 256.723C78.1985 256.307 77.9551 256.024 77.7235 255.718C77.005 254.776 76.31 253.814 75.5876 252.872C75.2696 252.455 75.0811 252.016 75.1243 251.486C75.8938 251.494 76.6006 251.348 77.1934 250.795C77.6018 250.414 78.0768 250.108 78.4852 249.731C81.477 246.994 84.1194 243.916 86.9423 241.01C88.3283 239.581 89.7771 238.207 91.0021 236.621C91.4811 236.001 91.9601 235.286 92.8514 235.129C93.2126 236.911 94.2609 238.176 95.8039 239.071C96.0748 239.228 96.3418 239.393 96.6127 239.554C99.848 241.482 103.091 243.394 106.318 245.333C110.512 247.858 114.689 250.414 118.882 252.938C123.559 255.754 128.251 258.545 132.935 261.348C134.442 262.252 135.954 263.143 137.454 264.062C139.754 265.471 142.047 266.892 144.336 268.318C146.68 269.778 149.001 271.278 151.357 272.715C154.466 274.607 157.595 276.465 160.729 278.318C163.701 280.077 166.649 281.871 169.743 283.41C171.098 284.085 172.393 284.839 173.603 285.746C174.867 286.692 176.253 287.415 177.702 288.031C181.165 289.504 184.62 291.004 188.083 292.484C200.03 297.588 211.864 302.959 223.706 308.299C235.206 313.485 246.694 318.707 258.186 323.906C258.693 324.137 259.172 324.471 259.772 324.451C260.444 324.915 261.209 324.809 261.955 324.816C267.845 324.887 273.726 324.64 279.612 324.495C282.117 324.432 284.598 323.988 287.107 324.09C287.17 324.09 287.237 324.098 287.296 324.078C288.945 323.556 290.649 323.772 292.329 323.729C296.397 323.631 300.472 323.902 304.532 323.442C304.897 323.399 305.278 323.493 305.655 323.525C306.373 324.184 306.734 325.009 306.939 325.967C307.575 328.974 307.92 332.025 308.403 335.056C308.819 337.667 308.882 340.298 309.016 342.924C309.29 348.398 308.093 353.631 306.157 358.72C304.43 363.266 302.113 367.483 298.929 371.182C295.054 375.685 290.283 378.759 284.425 380.024C281.445 380.668 278.457 380.624 275.454 380.149C273.785 379.886 272.105 379.658 270.42 379.513C265.25 379.066 260.306 377.707 255.532 375.732C250.609 373.698 245.658 371.727 240.875 369.368C239.218 368.551 237.495 368.068 235.661 367.946C236.278 366.863 236.113 365.979 235.143 365.135C234.197 364.311 233.192 363.58 232.179 362.846C229.752 361.083 227.322 359.328 224.899 357.558C221.319 354.939 217.746 352.316 214.173 349.689C212.512 348.468 210.855 347.243 209.194 346.022C206.63 344.134 204.106 342.182 201.491 340.364C197.796 337.797 194.243 335.037 190.521 332.504C188.656 331.236 186.834 329.925 184.781 328.967C184.706 328.303 184.353 327.922 183.67 327.887C183.324 327.596 182.983 327.31 182.637 327.019C181.989 325.888 181.192 324.926 179.897 324.502C179.555 324.208 179.217 323.913 178.876 323.615C178.75 322.94 178.189 322.59 177.753 322.154C175.362 319.748 172.641 317.749 169.912 315.751C166.96 313.587 163.881 311.718 160.273 310.855C159.731 310.725 159.229 310.439 158.695 310.254C153.135 308.31 147.709 306.025 142.416 303.454C134.815 299.759 127.147 296.17 119.876 291.832C117.834 290.615 115.824 289.335 113.865 287.988C112.165 286.818 110.563 285.511 108.918 284.258C108.619 284.03 108.34 283.771 107.924 283.807C107.842 283.748 107.763 283.689 107.681 283.634C107.457 283.061 107.08 282.684 106.424 282.672C106.342 282.613 106.26 282.554 106.177 282.499C105.329 281.412 104.23 280.556 103.02 280.049V280.069Z" fill="#696E66"/>
<path d="M92.8435 235.129C91.9523 235.282 91.4733 236 90.9943 236.621C89.7653 238.207 88.3205 239.581 86.9345 241.01C84.1155 243.916 81.4731 246.994 78.4773 249.731C78.0651 250.108 77.59 250.414 77.1856 250.795C76.5927 251.348 75.886 251.494 75.1165 251.486C74.6414 251.439 74.1624 251.395 73.6873 251.348C73.6048 251.254 73.5342 251.144 73.436 251.069C71.948 249.927 70.5738 248.682 69.3095 247.273C66.5768 244.23 64.6333 240.787 63.4083 236.907C63.2356 236.362 63.1335 235.816 63.1257 235.247C63.1139 234.116 63.1139 232.985 63.0825 231.858C63.0039 229.02 63.534 226.252 64.0758 223.487C65.1163 218.183 66.7064 213.04 68.8658 208.097C70.0241 205.446 71.5239 202.988 74.237 201.52C75.5562 200.805 76.7498 199.863 78.0062 199.039C78.4263 198.764 78.8739 198.536 79.3019 198.273C80.1813 197.739 81.0608 197.802 82.007 198.14C85.3169 199.314 88.6228 200.495 91.9719 201.548C93.0281 201.881 93.7191 202.451 94.2334 203.346C94.4219 203.668 94.6182 204.009 94.7007 204.367C95.1404 206.275 96.5342 207.123 98.2461 207.618C99.0274 207.841 99.8283 207.987 100.618 208.191C104.069 209.09 107.504 210.056 110.971 210.88C113.649 211.516 116.366 211.984 119.063 212.521C119.185 212.545 119.314 212.553 119.436 212.553C122.385 212.525 125.302 213.087 128.258 212.961C131.207 212.836 134.128 213.264 137.045 213.648C138.286 213.809 139.535 213.852 140.779 214.029C143.441 214.402 146.131 214.563 148.805 214.885C151.286 215.183 153.752 215.608 156.229 215.918C158.71 216.232 161.227 216.35 163.681 216.789C165.915 217.194 168.2 216.876 170.407 217.433C170.587 217.476 170.784 217.453 170.968 217.461C175.856 217.622 180.733 218.05 185.629 217.928C194.718 218.58 203.815 218.085 212.913 218.203C220.683 217.649 228.464 217.975 236.242 217.948C238.806 217.94 241.37 218.195 243.93 218.332C243.694 219.243 243.62 220.174 243.635 221.112C243.706 225.541 243.573 229.97 243.855 234.402C244.103 238.325 243.969 242.271 244.024 246.205C244.04 247.449 243.997 248.698 244.224 249.939C244.358 250.669 244.366 251.431 244.158 252.169C232.611 252.161 221.067 252.153 209.52 252.149C204.813 252.149 200.105 252.11 195.401 252.177C192.633 252.216 189.905 251.78 187.152 251.658C185.861 251.6 184.537 251.454 183.238 251.266C181.074 250.948 178.907 250.638 176.756 250.241C173.929 249.723 171.094 249.212 168.298 248.545C163.061 247.3 157.921 245.683 152.754 244.159C148.907 243.025 145.012 242.149 141.046 241.537C139.444 241.289 137.827 241.058 136.303 240.433C134.729 239.789 133.06 239.487 131.423 239.075C129.849 238.678 128.258 238.36 126.68 237.979C122.118 236.88 117.555 235.777 112.997 234.658C108.439 233.539 103.888 232.384 99.3258 231.277C96.8365 230.673 94.3316 230.131 91.8345 229.561C91.222 229.259 90.637 228.91 90.0245 228.611C88.5403 227.893 86.9188 227.653 85.3915 227.108C81.0922 225.568 76.7812 224.061 72.478 222.537C71.5357 222.204 70.6052 221.831 69.655 221.52C68.8855 221.269 68.1042 221.034 67.3111 220.896C66.4002 220.739 65.6228 221.265 65.4186 222.054C65.1555 223.075 65.6345 223.912 66.6789 224.226C67.3974 224.442 68.1277 224.618 68.8344 224.858C71.6182 225.804 74.3823 226.805 77.1777 227.716C79.612 228.509 82.0738 229.228 84.5277 229.95C85.9019 230.355 87.3311 230.602 88.6699 231.101C89.8635 231.548 90.8529 231.438 91.8031 230.637C92.1407 231.886 92.4862 233.134 92.8082 234.387C92.8671 234.618 92.8278 234.878 92.8357 235.121L92.8435 235.129Z" fill="#FFB88C"/>
<path d="M232.325 367.604C231.669 367.933 230.966 367.784 230.287 367.776C225.831 367.729 221.37 367.749 216.914 367.584C210.2 367.337 203.478 367.435 196.768 367.203C190.243 366.975 183.714 366.987 177.188 366.838C176.25 366.818 175.307 366.752 174.369 366.697C171.475 366.536 168.601 366.885 165.723 367.074C163.156 367.242 160.596 367.49 158.024 367.635C150.815 368.039 143.599 368.373 136.379 368.063C130.426 367.808 124.478 367.415 118.549 366.732C114.812 366.3 111.058 365.97 107.332 365.421C100.567 364.419 93.7982 363.406 87.0529 362.272C82.416 361.49 77.8184 360.466 73.1893 359.614C69.9187 359.009 66.6324 358.495 63.3462 357.972C62.6591 357.863 61.9916 357.717 61.3398 357.482C61.4262 356.802 61.5872 356.127 61.5872 355.448C61.5951 352.574 62.0505 349.719 61.9523 346.842C61.9209 345.907 61.9641 344.965 61.9837 344.03C62.0112 342.723 61.9916 341.419 62.2782 340.116C62.4785 339.209 62.4313 338.251 62.1879 337.328C61.8856 336.178 62.2507 335.141 62.7886 334.144C63.3501 334.175 63.9155 334.25 64.473 334.234C67.7946 334.12 71.1123 333.987 74.43 333.857C74.5556 333.853 74.6852 333.861 74.8069 333.83C76.2243 333.445 77.6731 333.583 79.114 333.528C84.0022 333.331 88.8904 333.551 93.7865 333.206C97.2808 332.958 100.795 332.778 104.305 332.746C106.943 332.723 109.578 332.727 112.216 332.711C112.782 332.711 113.367 332.758 113.905 332.632C114.961 332.385 116.025 332.436 117.089 332.405C125.181 332.185 133.277 332.711 141.365 332.075C143.736 331.886 146.12 331.957 148.499 331.698C150.737 331.455 152.998 331.517 155.252 331.294C158.055 331.019 160.882 330.968 163.697 330.818C163.823 330.811 163.953 330.826 164.074 330.799C166.732 330.257 169.449 330.504 172.131 330.21C175.551 329.833 179.014 329.821 182.457 329.652C182.449 330.968 183.368 331.667 184.291 332.326C186.733 334.073 189.218 335.762 191.656 337.513C196.128 340.724 200.589 343.948 205.033 347.191C209.627 350.548 214.197 353.94 218.783 357.309C223.169 360.532 227.558 363.744 231.936 366.975C232.116 367.109 232.191 367.388 232.313 367.6L232.325 367.604Z" fill="#696E66"/>
<path d="M305.804 218.337C306.554 218.31 307.308 218.255 308.057 218.251C316.471 218.231 324.889 218.443 333.292 218.141C341.89 217.831 350.481 218.039 359.071 217.949C361.824 217.921 364.58 218.149 367.336 218.204C370.033 218.259 372.735 218.255 375.436 218.267C377.254 218.274 379.072 218.408 380.87 217.98C381.467 217.839 382.119 217.925 382.747 217.905C383.999 217.862 385.26 217.952 386.485 217.583C386.602 217.548 386.732 217.544 386.857 217.544C388.801 217.548 390.733 217.371 392.664 217.167C394.404 216.983 396.178 217.21 397.902 216.775C400.729 216.904 403.521 216.339 406.344 216.3C407.777 216.28 409.214 216.076 410.635 215.852C411.322 215.746 412.001 215.691 412.688 215.648C414.997 215.499 417.298 215.283 419.591 214.953C421.88 214.623 424.184 214.387 426.481 214.109C426.607 214.093 426.737 214.109 426.854 214.077C430.317 213.186 433.89 212.954 437.4 212.326C439.615 211.93 441.825 211.498 444.055 211.188C445.61 210.972 447.188 211.093 448.751 211.239C449.187 211.278 449.623 211.427 450.051 211.407C452.002 211.329 453.902 211.91 455.858 211.855C456.808 211.828 457.687 212.255 458.531 212.68C462.069 214.442 465.713 215.966 469.321 217.572C470.687 218.18 471.629 219.319 472.128 220.701C472.442 221.565 472.666 222.491 472.686 223.449C472.721 225.138 472.741 226.822 472.945 228.514C473.212 230.744 472.509 231.172 470.848 232.052C470.137 232.429 469.321 232.719 468.528 232.802C465.449 233.112 462.532 234.05 459.564 234.824C456.356 235.66 453.074 236.166 449.807 236.708C447.648 237.066 445.484 237.407 443.317 237.698C442.018 237.87 440.706 237.945 439.399 238.13C437.604 238.385 435.806 238.632 434.012 238.872C432.218 239.111 430.396 239.166 428.59 239.343C426.725 239.527 424.86 239.735 422.999 239.975C421.695 240.144 420.376 240.187 419.072 240.309C417.266 240.477 415.468 240.737 413.658 240.862C411.601 241.004 409.551 241.274 407.498 241.475C405.692 241.647 403.882 241.793 402.076 241.965C400.58 242.111 399.08 242.213 397.604 242.468C396.858 242.598 396.12 242.684 395.37 242.696C394.243 242.719 393.108 242.633 392.009 243.002C391.836 243.061 391.636 243.073 391.451 243.061C389.433 242.916 387.474 243.512 385.464 243.524C384.282 243.532 383.104 243.779 381.922 243.929C380.371 244.129 378.828 244.415 377.27 244.518C375.954 244.604 374.643 244.663 373.355 244.949C371.317 245.405 369.233 245.205 367.187 245.432C364.494 245.731 361.788 245.531 359.118 245.805C356.551 246.068 353.971 245.931 351.427 246.194C349.122 246.434 346.786 246.269 344.501 246.736C344.018 246.834 343.5 246.783 342.997 246.799C341.309 246.854 339.609 246.744 337.936 247.136C337.457 247.25 336.935 247.18 336.433 247.191C334.493 247.246 332.561 247.231 330.618 247.502C328.827 247.753 326.982 247.58 325.164 247.651C323.602 247.714 322.043 247.859 320.484 247.961C318.921 248.063 317.343 247.871 315.8 248.263C315.619 248.31 315.427 248.302 315.239 248.306C313.358 248.35 311.481 248.365 309.612 248.668C308.878 248.785 308.108 248.687 307.355 248.687C307.225 248.271 307.154 247.823 306.95 247.443C306.283 246.19 306.138 244.867 306.141 243.461C306.161 236.013 306.118 228.561 306.106 221.113C306.106 220.171 306.039 219.24 305.792 218.325L305.804 218.337Z" fill="#FFB98C"/>
<path d="M305.804 218.337C306.051 219.248 306.114 220.179 306.118 221.125C306.13 228.573 306.173 236.025 306.153 243.473C306.153 244.879 306.295 246.202 306.962 247.454C307.163 247.831 307.233 248.283 307.367 248.699C307.072 248.852 306.888 249.088 306.837 249.418C306.475 251.762 306.15 254.109 305.753 256.446C305.121 260.199 304.446 263.945 303.786 267.69C303.323 270.329 302.797 272.959 302.404 275.614C302.2 276.988 301.866 278.291 301.257 279.536C298.874 279.567 296.491 279.622 294.108 279.626C279.93 279.65 265.756 279.662 251.578 279.681C250.982 279.041 250.408 278.382 249.788 277.773C248.084 276.104 246.6 274.267 245.391 272.209C243.522 269.021 242.517 265.582 242.481 261.883C242.458 259.241 242.933 256.673 243.71 254.157C243.91 253.513 244.311 252.912 244.158 252.186C244.366 251.447 244.358 250.686 244.225 249.955C243.997 248.715 244.04 247.466 244.024 246.222C243.973 242.287 244.107 238.342 243.855 234.419C243.573 229.986 243.706 225.558 243.636 221.129C243.62 220.187 243.698 219.26 243.93 218.349C244.617 218.322 245.3 218.278 245.987 218.274C251.551 218.251 257.118 218.239 262.682 218.212C263.369 218.212 264.052 218.141 264.735 218.106C265.203 218.636 265.43 219.295 265.685 219.931C268.752 227.611 271.807 235.291 274.865 242.975C274.979 243.261 275.061 243.563 275.438 243.599C275.501 243.489 275.58 243.391 275.623 243.277C278.14 236.728 280.633 230.171 283.185 223.638C283.911 221.777 284.453 219.837 285.446 218.082C286.126 218.129 286.809 218.212 287.488 218.216C292.965 218.243 298.446 218.255 303.923 218.278C304.544 218.278 305.164 218.329 305.784 218.357L305.804 218.337Z" fill="#8B8ADF"/>
<path d="M264.779 196.739C262.757 196.064 260.735 195.377 258.811 194.442C254.362 192.275 250.68 189.248 248.206 184.897C247.617 183.865 247.162 182.758 246.651 181.682C246.29 180.92 246.16 180.845 245.344 181.191C243.549 181.945 241.739 182.648 239.859 183.166C235.905 184.253 231.865 184.748 227.774 184.878C224.319 184.988 220.875 184.748 217.432 184.513C217.267 184.501 217.035 184.379 216.98 184.25C216.925 184.128 217.012 183.877 217.122 183.759C217.412 183.433 217.746 183.142 218.064 182.84C221.841 179.255 225.642 175.694 229.387 172.074C230.785 170.724 232.089 169.275 233.369 167.814C235.823 165.015 237.86 161.937 239.478 158.58C241.115 155.191 242.768 151.807 244.429 148.43C245.234 146.797 246.047 145.168 247.091 143.668C250.734 138.434 255.748 135.807 262.125 135.866C266.365 135.905 269.761 137.625 272.203 141.139C272.345 141.343 272.494 141.547 272.627 141.763C272.922 142.239 273.354 142.411 273.899 142.411C274.528 142.411 275.156 142.411 275.78 142.474C283.303 143.189 288.796 147.005 292.467 153.519C293.169 154.771 293.723 156.118 294.226 157.468C295.015 159.581 295.953 161.638 296.507 163.833C295.977 164.021 295.458 164.245 294.917 164.394C290.323 165.635 285.725 166.872 281.124 168.089C278.58 168.76 276.027 169.393 273.479 170.052C273.008 170.174 272.867 170.468 273.051 170.888C273.201 171.234 273.385 171.56 273.554 171.898C274.783 174.367 275.992 176.845 277.241 179.298C279.121 182.997 278.155 184.21 276.035 186.283C275.407 186.896 274.779 187.508 274.147 188.117C271.485 190.681 268.815 193.241 266.161 195.812C265.748 196.213 265.317 196.554 264.771 196.739H264.779ZM244.346 170.233C244.299 171.615 244.472 172.965 244.684 174.336C244.955 176.083 245.485 177.732 246.047 179.389C246.105 179.562 246.219 179.726 246.349 179.86C246.416 179.931 246.577 179.97 246.671 179.942C246.769 179.915 246.899 179.801 246.914 179.711C247.044 178.965 247.111 178.183 246.879 177.477C246.592 176.609 246.62 175.749 246.612 174.878C246.6 173.374 246.647 171.866 246.592 170.362C246.545 169.094 246.722 167.865 247.044 166.656C247.593 164.602 248.084 162.522 249.062 160.621C250.471 157.881 252.246 155.415 254.476 153.244C257.225 150.57 260.432 148.693 263.974 147.358C266.726 146.318 269.541 145.501 272.529 145.493C273.153 145.493 273.428 145.093 273.303 144.492C273.252 144.249 273.157 144.013 273.075 143.778C272.78 142.953 272.725 142.949 271.881 142.871C270.048 142.702 268.23 143.008 266.491 143.401C259.749 144.912 254.001 148.163 249.867 153.833C246.317 158.701 244.323 164.147 244.346 170.237V170.233Z" fill="#8A4202"/>
<path d="M251.579 279.673C265.756 279.657 279.93 279.641 294.108 279.618C296.491 279.614 298.875 279.559 301.258 279.527C301.697 279.834 301.937 280.258 301.972 280.792C302.004 281.29 302.067 281.797 302.039 282.295C301.858 285.495 302.302 288.676 302.4 291.864C302.451 293.54 302.793 295.209 303.005 296.881C303.021 297.007 303.068 297.129 303.064 297.25C302.989 299.261 303.39 301.236 303.527 303.234C303.653 305.103 303.829 306.972 304.022 308.837C304.191 310.451 304.411 312.064 304.611 313.674C304.819 315.347 305.066 317.015 305.243 318.692C305.412 320.302 305.514 321.919 305.647 323.537C305.274 323.505 304.893 323.411 304.524 323.454C300.465 323.918 296.389 323.647 292.322 323.741C290.637 323.78 288.937 323.568 287.288 324.09C287.229 324.11 287.162 324.106 287.1 324.102C284.591 324 282.109 324.444 279.604 324.507C273.719 324.652 267.837 324.899 261.948 324.829C261.202 324.821 260.436 324.923 259.765 324.463C260.02 323.435 259.522 322.496 259.388 321.515C259.149 319.728 258.893 317.93 258.426 316.195C257.986 314.569 257.653 312.92 257.28 311.287C256.231 306.732 255.43 302.119 254.492 297.537C254.092 295.582 253.993 293.579 253.463 291.644C252.674 288.754 252.187 285.805 251.783 282.837C251.638 281.781 251.465 280.741 251.575 279.673H251.579Z" fill="#FEB88C"/>
<path d="M264.779 196.738C265.325 196.553 265.757 196.208 266.169 195.811C268.823 193.24 271.493 190.68 274.155 188.116C274.787 187.507 275.415 186.895 276.043 186.282C278.164 184.209 279.129 182.996 277.249 179.298C276 176.84 274.787 174.362 273.562 171.897C273.393 171.559 273.213 171.229 273.059 170.888C272.875 170.467 273.012 170.173 273.487 170.051C276.032 169.392 278.588 168.759 281.132 168.088C285.733 166.871 290.327 165.634 294.925 164.393C295.467 164.248 295.985 164.02 296.515 163.832C296.962 164.955 297.049 166.129 297.123 167.322C297.261 169.58 297.595 171.802 298.796 173.789C299.542 175.022 300.418 176.161 301.431 177.193C303.229 179.023 304.921 180.943 306.323 183.11C306.704 183.699 306.986 184.319 307.175 184.979C307.536 186.251 307.19 187.158 306.067 187.876C305.651 188.143 305.172 188.32 304.705 188.489C303.881 188.787 303.017 188.988 302.22 189.337C300.418 190.126 299.255 191.39 299.318 193.507C299.346 194.445 299.259 195.391 299.326 196.326C299.432 197.782 299.11 199.192 298.93 200.613C298.784 201.744 298.129 202.58 297.037 202.989C296.216 203.295 295.384 203.542 294.481 203.527C292.852 203.499 291.222 203.519 289.597 203.53C289.098 203.53 288.588 203.511 288.097 203.601C286.515 203.888 286.059 204.5 285.757 206.083C285.419 207.822 285.455 209.565 285.455 211.312C285.455 213.566 285.466 215.824 285.47 218.077C284.477 219.828 283.935 221.772 283.209 223.633C280.661 230.17 278.167 236.727 275.647 243.272C275.604 243.386 275.525 243.484 275.462 243.594C275.081 243.559 275.003 243.256 274.889 242.97C271.834 235.286 268.776 227.606 265.709 219.927C265.454 219.29 265.223 218.631 264.759 218.101C264.759 211.23 264.759 204.363 264.759 197.492C264.759 197.245 264.779 196.993 264.787 196.746L264.779 196.738Z" fill="#FEB88C"/>
<path d="M62.7998 334.143C62.2619 335.14 61.8968 336.176 62.1991 337.327C62.4425 338.253 62.4896 339.211 62.2894 340.114C62.0028 341.418 62.0224 342.718 61.9949 344.029C61.9753 344.967 61.9321 345.906 61.9635 346.84C62.0617 349.718 61.6023 352.572 61.5984 355.447C61.5984 356.126 61.4374 356.801 61.351 357.48C60.7425 357.712 60.1103 357.606 59.4861 357.614C57.6643 357.637 55.8464 357.637 54.0246 357.669C53.526 357.677 53.0313 357.771 52.5326 357.81C51.9084 357.857 51.2605 358.018 50.6677 357.908C48.4847 357.5 46.286 357.645 44.099 357.669C41.7708 357.692 39.4661 357.559 37.1653 357.26C37.0396 357.245 36.9022 357.26 36.7962 357.205C34.2284 355.977 31.802 354.665 30.6791 351.736C29.4502 348.525 29.3559 345.289 29.8546 341.956C30.0862 340.405 30.1137 338.834 29.8074 337.276C29.7014 336.726 29.6268 336.161 29.6111 335.603C29.5483 333.412 29.674 331.214 29.2303 329.046C28.6492 326.188 28.8573 323.294 28.9044 320.42C28.9554 317.468 30.255 315.194 32.8503 313.6C35.1472 312.187 37.6403 311.449 40.2435 311.033C42.1634 310.726 44.0205 311.166 45.6264 312.254C47.9232 313.812 49.8196 315.831 51.6492 317.9C52.5169 318.881 53.3415 319.914 54.0953 320.986C56.1134 323.852 58.2022 326.675 59.7334 329.851C60.4912 331.422 61.7672 332.533 63.1296 333.558C63.0197 333.754 62.9137 333.946 62.8037 334.143H62.7998Z" fill="#FFB98C"/>
<path d="M232.324 367.602C232.202 367.39 232.128 367.111 231.947 366.977C227.569 363.746 223.176 360.534 218.794 357.311C214.208 353.942 209.638 350.55 205.044 347.193C200.6 343.946 196.14 340.722 191.668 337.515C189.229 335.764 186.744 334.071 184.302 332.328C183.379 331.668 182.46 330.97 182.468 329.654C182.625 329.458 182.778 329.258 182.936 329.061C183.167 329.003 183.395 328.944 183.627 328.885C184.011 328.916 184.392 328.952 184.777 328.983C186.826 329.941 188.648 331.252 190.517 332.52C194.239 335.053 197.793 337.813 201.487 340.381C204.102 342.199 206.627 344.146 209.19 346.039C210.851 347.264 212.508 348.489 214.169 349.706C217.742 352.328 221.319 354.955 224.895 357.574C227.318 359.345 229.748 361.096 232.175 362.863C233.184 363.597 234.193 364.327 235.139 365.152C236.109 365.996 236.274 366.879 235.657 367.963C234.974 368.422 234.248 368.395 233.518 368.128C233.109 367.982 232.724 367.778 232.328 367.602H232.324Z" fill="#494A45"/>
<path d="M182.939 329.065C182.782 329.262 182.629 329.462 182.472 329.658C179.029 329.827 175.566 329.843 172.146 330.216C169.461 330.51 166.748 330.263 164.089 330.805C163.968 330.828 163.838 330.817 163.713 330.824C160.897 330.974 158.071 331.025 155.267 331.3C153.013 331.519 150.752 331.46 148.514 331.704C146.135 331.963 143.751 331.892 141.38 332.081C133.292 332.721 125.192 332.191 117.104 332.411C116.04 332.438 114.976 332.387 113.92 332.638C113.382 332.764 112.797 332.713 112.231 332.717C109.593 332.733 106.958 332.729 104.32 332.752C100.81 332.784 97.292 332.964 93.8015 333.212C88.9055 333.557 84.0173 333.337 79.1291 333.534C77.6921 333.592 76.2394 333.455 74.822 333.836C74.7042 333.867 74.5707 333.859 74.4451 333.863C71.1274 333.993 67.8058 334.126 64.4881 334.24C63.9266 334.26 63.3652 334.185 62.8037 334.15C62.9136 333.954 63.0236 333.757 63.1296 333.565C64.8807 333.53 66.624 333.588 68.379 333.318C69.6668 333.121 71.0096 333.274 72.3249 333.259C73.3889 333.247 74.4529 333.298 75.4973 332.98C75.9057 332.858 76.3689 332.897 76.8048 332.894C80.2559 332.866 83.7071 332.862 87.1544 332.823C89.2196 332.799 91.2966 332.937 93.3422 332.524C93.5228 332.489 93.7191 332.505 93.9036 332.497C99.2237 332.281 104.544 331.916 109.872 332.065C111.262 332.104 112.6 331.735 113.986 331.739C119.381 331.759 124.776 331.739 130.171 331.724C132.114 331.72 134.081 331.873 136.001 331.641C138.816 331.303 141.647 331.586 144.442 331.272C146.629 331.025 148.828 331.127 150.999 330.883C153.065 330.652 155.149 330.801 157.179 330.506C159.857 330.114 162.574 330.479 165.22 329.886C165.279 329.874 165.346 329.874 165.409 329.878C168.236 330.012 171.023 329.423 173.846 329.423C175.279 329.423 176.712 329.203 178.145 329.093C179.579 328.983 181.031 329.187 182.457 328.842C182.59 328.81 182.778 328.983 182.939 329.065Z" fill="#B4BAB7"/>
<path d="M107.924 283.827C108.341 283.792 108.619 284.051 108.918 284.279C110.559 285.531 112.165 286.839 113.865 288.009C115.824 289.356 117.834 290.636 119.876 291.853C127.147 296.191 134.815 299.78 142.417 303.474C147.705 306.046 153.131 308.327 158.695 310.275C159.225 310.459 159.731 310.746 160.273 310.875C163.881 311.739 166.96 313.608 169.912 315.772C172.641 317.77 175.362 319.768 177.753 322.175C178.185 322.611 178.75 322.961 178.876 323.636C178.2 323.742 177.855 323.231 177.474 322.839C176.249 321.578 174.953 320.397 173.524 319.372C171.388 317.841 169.19 316.396 167.109 314.794C165.181 313.31 163.022 312.411 160.744 311.661C155.683 309.996 150.74 308.017 145.915 305.744C143.818 304.754 141.663 303.899 139.578 302.886C135.754 301.025 131.933 299.148 128.16 297.181C124.383 295.214 120.661 293.141 117.088 290.812C115.043 289.481 112.926 288.256 111.006 286.737C110.174 286.077 109.33 285.429 108.501 284.762C108.207 284.522 107.96 284.236 107.932 283.827H107.924Z" fill="#B4BAB7"/>
<path d="M80.9156 259.982C81.3906 260.041 81.6773 260.395 81.9835 260.701C83.8917 262.605 85.7959 264.513 87.6962 266.421C88.0025 266.728 88.3558 267.007 88.454 267.47C88.1242 267.54 87.8258 267.454 87.5902 267.222C85.4582 265.098 83.3263 262.97 81.1982 260.842C80.9666 260.611 80.8645 260.316 80.9116 259.986L80.9156 259.982Z" fill="#B4BAB7"/>
<path d="M73.6836 251.35C74.1626 251.393 74.6377 251.44 75.1127 251.487C75.0696 252.017 75.258 252.457 75.576 252.873C76.2985 253.815 76.9934 254.777 77.7119 255.72C77.9436 256.022 78.187 256.305 78.1163 256.725C77.8965 256.619 77.6059 256.572 77.4685 256.399C76.1493 254.758 74.7712 253.164 73.6836 251.354V251.35Z" fill="#B4BAB7"/>
<path d="M96.2476 274.404C97.7238 275.056 99.6634 276.717 100.5 278.044C100.378 278.044 100.217 278.095 100.135 278.036C98.7761 277.058 97.3626 276.136 96.3457 274.758C96.279 274.667 96.279 274.522 96.2476 274.4V274.404Z" fill="#B4BAB7"/>
<path d="M89.0864 268.004C89.2042 268.016 89.3534 267.988 89.4398 268.051C90.5313 268.825 91.5521 269.673 92.2274 270.858C92.1057 270.858 91.9487 270.917 91.8662 270.858C90.7472 270.093 89.644 269.311 89.0864 268V268.004Z" fill="#B4BAB7"/>
<path d="M92.4624 271.035C92.5841 271.047 92.7333 271.019 92.8158 271.082C93.8994 271.864 94.9752 272.657 95.6073 273.89C95.4856 273.89 95.3286 273.941 95.2461 273.882C94.1193 273.128 93.0553 272.311 92.4624 271.035Z" fill="#B4BAB7"/>
<path d="M103.021 280.07C104.23 280.577 105.329 281.433 106.177 282.52C106.118 282.532 106.048 282.567 105.997 282.548C104.929 282.187 103.621 281.095 103.021 280.07Z" fill="#B4BAB7"/>
<path d="M78.293 256.959C79.3766 257.654 80.3817 258.416 80.7351 259.751C79.6043 259.095 78.5953 258.337 78.293 256.959Z" fill="#B4BAB7"/>
<path d="M179.893 324.523C181.189 324.947 181.99 325.909 182.634 327.04C182.571 327.044 182.5 327.072 182.449 327.048C181.287 326.518 180.384 325.729 179.893 324.523Z" fill="#B4BAB7"/>
<path d="M100.735 278.217C101.772 278.342 102.294 279.092 102.777 279.893C101.67 279.854 101.152 279.1 100.735 278.217Z" fill="#B4BAB7"/>
<path d="M184.777 328.984C184.392 328.953 184.011 328.917 183.626 328.886C183.638 328.56 183.654 328.23 183.666 327.904C184.353 327.94 184.702 328.32 184.777 328.984Z" fill="#B4BAB7"/>
<path d="M106.425 282.691C107.08 282.703 107.457 283.08 107.681 283.653C106.927 283.767 106.57 283.367 106.425 282.691Z" fill="#B4BAB7"/>
<path d="M91.8423 229.569C91.8305 229.926 91.8187 230.288 91.807 230.645C90.8568 231.446 89.8713 231.556 88.6738 231.108C87.3349 230.61 85.9058 230.362 84.5316 229.958C82.0738 229.235 79.6159 228.517 77.1816 227.724C74.3861 226.813 71.622 225.812 68.8383 224.865C68.1316 224.626 67.3974 224.449 66.6828 224.233C65.6384 223.919 65.1555 223.083 65.4225 222.062C65.6267 221.273 66.4041 220.743 67.3149 220.904C68.1081 221.041 68.8933 221.281 69.6589 221.528C70.6091 221.838 71.5396 222.211 72.4819 222.545C76.7851 224.068 81.0961 225.576 85.3954 227.115C86.9227 227.661 88.5442 227.9 90.0284 228.619C90.6448 228.917 91.2298 229.267 91.8384 229.569H91.8423Z" fill="#E8A57B"/>
<path d="M244.346 170.232C244.323 164.138 246.317 158.693 249.867 153.828C254.001 148.159 259.749 144.908 266.49 143.396C268.226 143.007 270.047 142.701 271.881 142.866C272.725 142.944 272.78 142.948 273.075 143.773C273.161 144.008 273.251 144.244 273.302 144.487C273.428 145.088 273.153 145.485 272.529 145.489C269.541 145.497 266.726 146.317 263.974 147.354C260.432 148.693 257.228 150.565 254.476 153.239C252.246 155.41 250.471 157.876 249.062 160.617C248.084 162.517 247.593 164.598 247.044 166.651C246.722 167.861 246.545 169.089 246.592 170.358C246.647 171.861 246.6 173.369 246.612 174.873C246.62 175.744 246.592 176.608 246.879 177.472C247.11 178.179 247.044 178.96 246.914 179.706C246.898 179.8 246.769 179.91 246.671 179.938C246.572 179.965 246.415 179.926 246.349 179.855C246.223 179.722 246.105 179.557 246.046 179.384C245.485 177.731 244.955 176.078 244.684 174.331C244.472 172.965 244.299 171.614 244.346 170.228V170.232Z" fill="#643407"/>
</svg>
