<svg width="500" height="500" viewBox="0 0 500 500" fill="none" xmlns="http://www.w3.org/2000/svg">
<path d="M398.809 280.069C398.888 280.01 398.97 279.951 399.049 279.896C399.532 279.095 400.054 278.345 401.09 278.22C401.169 278.161 401.247 278.102 401.326 278.047C402.162 276.72 404.102 275.055 405.578 274.407C405.79 274.234 406.006 274.066 406.218 273.893C406.846 272.66 407.922 271.867 409.01 271.086C409.096 271.023 409.245 271.054 409.363 271.038C409.442 270.98 409.52 270.921 409.599 270.862C410.274 269.672 411.295 268.828 412.386 268.055C412.473 267.996 412.622 268.023 412.74 268.007C412.948 267.831 413.16 267.65 413.368 267.473C413.462 267.01 413.819 266.731 414.126 266.425C416.026 264.513 417.93 262.609 419.838 260.705C420.145 260.398 420.431 260.045 420.906 259.986C420.965 259.908 421.028 259.833 421.087 259.754C421.44 258.419 422.449 257.662 423.529 256.963C423.588 256.884 423.643 256.802 423.702 256.723C423.631 256.307 423.874 256.024 424.106 255.718C424.825 254.776 425.52 253.814 426.242 252.872C426.56 252.455 426.748 252.016 426.705 251.486C425.936 251.494 425.229 251.348 424.636 250.795C424.228 250.414 423.753 250.108 423.344 249.731C420.353 246.994 417.71 243.916 414.887 241.01C413.501 239.581 412.052 238.207 410.828 236.621C410.348 236.001 409.869 235.286 408.978 235.129C408.617 236.911 407.569 238.176 406.026 239.071C405.755 239.228 405.488 239.393 405.217 239.554C401.982 241.482 398.739 243.394 395.511 245.333C391.318 247.858 387.14 250.414 382.947 252.938C378.271 255.754 373.579 258.545 368.895 261.348C367.387 262.252 365.876 263.143 364.376 264.062C362.075 265.471 359.782 266.892 357.493 268.318C355.149 269.778 352.829 271.278 350.473 272.715C347.363 274.607 344.234 276.465 341.101 278.318C338.129 280.077 335.18 281.871 332.086 283.41C330.732 284.085 329.436 284.839 328.227 285.746C326.963 286.692 325.577 287.415 324.128 288.031C320.665 289.504 317.21 291.004 313.747 292.484C301.799 297.588 289.965 302.959 278.124 308.299C266.624 313.485 255.136 318.707 243.643 323.906C243.137 324.137 242.658 324.471 242.057 324.451C241.386 324.915 240.62 324.809 239.874 324.816C233.985 324.887 228.103 324.64 222.218 324.495C219.713 324.432 217.231 323.988 214.723 324.09C214.66 324.09 214.593 324.098 214.534 324.078C212.885 323.556 211.181 323.772 209.501 323.729C205.433 323.631 201.358 323.902 197.298 323.442C196.933 323.399 196.552 323.493 196.175 323.525C195.456 324.184 195.095 325.009 194.891 325.967C194.255 328.974 193.909 332.025 193.426 335.056C193.01 337.667 192.947 340.298 192.814 342.924C192.539 348.398 193.737 353.631 195.672 358.72C197.4 363.266 199.716 367.483 202.901 371.182C206.776 375.685 211.546 378.759 217.404 380.024C220.384 380.668 223.372 380.624 226.376 380.149C228.044 379.886 229.725 379.658 231.409 379.513C236.58 379.066 241.523 377.707 246.298 375.732C251.221 373.698 256.172 371.727 260.954 369.368C262.611 368.551 264.335 368.068 266.168 367.946C265.552 366.863 265.717 365.979 266.687 365.135C267.633 364.311 268.638 363.58 269.651 362.846C272.077 361.083 274.508 359.328 276.93 357.558C280.511 354.939 284.084 352.316 287.657 349.689C289.318 348.468 290.974 347.243 292.635 346.022C295.199 344.134 297.724 342.182 300.339 340.364C304.033 337.797 307.586 335.037 311.309 332.504C313.174 331.236 314.995 329.925 317.049 328.967C317.123 328.303 317.477 327.922 318.16 327.887C318.505 327.596 318.847 327.31 319.192 327.019C319.84 325.888 320.637 324.926 321.933 324.502C322.275 324.208 322.612 323.913 322.954 323.615C323.08 322.94 323.641 322.59 324.077 322.154C326.468 319.748 329.189 317.749 331.918 315.751C334.87 313.587 337.948 311.718 341.556 310.855C342.098 310.725 342.601 310.439 343.135 310.254C348.694 308.31 354.121 306.025 359.413 303.454C367.014 299.759 374.682 296.17 381.954 291.832C383.995 290.615 386.006 289.335 387.965 287.988C389.665 286.818 391.267 285.511 392.912 284.258C393.21 284.03 393.489 283.771 393.905 283.807C393.988 283.748 394.066 283.689 394.149 283.634C394.373 283.061 394.749 282.684 395.405 282.672C395.488 282.613 395.57 282.554 395.653 282.499C396.501 281.412 397.6 280.556 398.809 280.049V280.069Z" fill="#696E66"/>
<path d="M408.986 235.13C409.877 235.283 410.356 236.001 410.835 236.622C412.064 238.208 413.509 239.582 414.895 241.011C417.714 243.917 420.357 246.995 423.352 249.732C423.765 250.109 424.24 250.415 424.644 250.796C425.237 251.349 425.944 251.494 426.713 251.487C427.188 251.44 427.667 251.396 428.142 251.349C428.225 251.255 428.295 251.145 428.394 251.07C429.882 249.928 431.256 248.683 432.52 247.274C435.253 244.231 437.196 240.788 438.421 236.908C438.594 236.363 438.696 235.817 438.704 235.248C438.716 234.117 438.716 232.986 438.747 231.859C438.826 229.021 438.296 226.253 437.754 223.488C436.713 218.184 435.123 213.041 432.964 208.098C431.805 205.447 430.306 202.989 427.593 201.521C426.273 200.806 425.08 199.864 423.823 199.04C423.403 198.765 422.956 198.537 422.528 198.274C421.648 197.74 420.769 197.803 419.823 198.141C416.513 199.314 413.207 200.496 409.858 201.549C408.802 201.882 408.111 202.452 407.596 203.347C407.408 203.669 407.211 204.01 407.129 204.368C406.689 206.276 405.295 207.124 403.584 207.619C402.802 207.842 402.001 207.988 401.212 208.192C397.761 209.091 394.325 210.057 390.859 210.881C388.181 211.517 385.464 211.985 382.766 212.522C382.645 212.546 382.515 212.554 382.393 212.554C379.445 212.526 376.528 213.088 373.571 212.962C370.623 212.837 367.701 213.264 364.784 213.649C363.544 213.81 362.295 213.853 361.05 214.03C358.388 214.403 355.699 214.564 353.025 214.886C350.544 215.184 348.078 215.608 345.601 215.919C343.119 216.233 340.602 216.351 338.148 216.79C335.914 217.195 333.629 216.877 331.423 217.434C331.242 217.477 331.046 217.454 330.861 217.462C325.973 217.623 321.097 218.051 316.201 217.929C307.111 218.581 298.014 218.086 288.917 218.204C281.147 217.65 273.365 217.976 265.587 217.949C263.023 217.941 260.46 218.196 257.9 218.333C258.135 219.244 258.21 220.175 258.194 221.113C258.123 225.542 258.257 229.971 257.974 234.403C257.727 238.326 257.86 242.272 257.805 246.206C257.79 247.45 257.833 248.699 257.605 249.94C257.472 250.67 257.464 251.432 257.672 252.17C269.219 252.162 280.762 252.154 292.309 252.15C297.017 252.15 301.725 252.111 306.428 252.178C309.196 252.217 311.925 251.781 314.677 251.659C315.969 251.6 317.292 251.455 318.592 251.267C320.755 250.949 322.922 250.639 325.074 250.242C327.901 249.724 330.736 249.213 333.531 248.546C338.769 247.301 343.908 245.684 349.075 244.16C352.923 243.026 356.818 242.15 360.783 241.538C362.385 241.29 364.003 241.059 365.526 240.434C367.101 239.79 368.769 239.488 370.407 239.076C371.981 238.679 373.571 238.361 375.15 237.98C379.712 236.881 384.274 235.778 388.833 234.659C393.391 233.54 397.941 232.385 402.504 231.278C404.993 230.674 407.498 230.132 409.995 229.562C410.608 229.26 411.193 228.911 411.805 228.612C413.289 227.894 414.911 227.654 416.438 227.108C420.737 225.569 425.048 224.062 429.352 222.538C430.294 222.205 431.224 221.832 432.175 221.521C432.944 221.27 433.725 221.035 434.519 220.897C435.429 220.74 436.207 221.266 436.411 222.055C436.674 223.076 436.195 223.913 435.151 224.227C434.432 224.443 433.702 224.619 432.995 224.859C430.211 225.805 427.447 226.806 424.652 227.717C422.218 228.51 419.756 229.229 417.302 229.951C415.928 230.356 414.499 230.603 413.16 231.101C411.966 231.549 410.977 231.439 410.027 230.638C409.689 231.887 409.343 233.135 409.021 234.388C408.963 234.619 409.002 234.879 408.994 235.122L408.986 235.13Z" fill="#FFB88C"/>
<path d="M269.505 367.603C270.161 367.932 270.864 367.783 271.543 367.775C275.999 367.728 280.459 367.748 284.916 367.583C291.63 367.336 298.351 367.434 305.061 367.202C311.587 366.974 318.116 366.986 324.641 366.837C325.58 366.817 326.522 366.751 327.461 366.696C330.354 366.535 333.228 366.884 336.106 367.073C338.674 367.241 341.234 367.489 343.806 367.634C351.014 368.038 358.231 368.372 365.451 368.062C371.403 367.807 377.352 367.414 383.28 366.731C387.018 366.299 390.772 365.969 394.498 365.42C401.262 364.418 408.031 363.405 414.777 362.271C419.414 361.489 424.011 360.465 428.64 359.613C431.911 359.008 435.197 358.494 438.483 357.971C439.171 357.862 439.838 357.716 440.49 357.481C440.403 356.801 440.242 356.126 440.242 355.447C440.235 352.573 439.779 349.718 439.877 346.841C439.909 345.906 439.865 344.964 439.846 344.029C439.818 342.722 439.838 341.418 439.551 340.115C439.351 339.208 439.398 338.25 439.642 337.327C439.944 336.177 439.579 335.14 439.041 334.143C438.479 334.174 437.914 334.249 437.357 334.233C434.035 334.119 430.717 333.986 427.4 333.856C427.274 333.852 427.144 333.86 427.023 333.829C425.605 333.444 424.157 333.582 422.716 333.527C417.827 333.33 412.939 333.55 408.043 333.205C404.549 332.957 401.035 332.777 397.525 332.745C394.886 332.722 392.252 332.726 389.613 332.71C389.048 332.71 388.463 332.757 387.925 332.631C386.869 332.384 385.805 332.435 384.741 332.404C376.649 332.184 368.553 332.71 360.465 332.074C358.093 331.885 355.71 331.956 353.331 331.697C351.093 331.454 348.831 331.516 346.578 331.293C343.774 331.018 340.947 330.967 338.132 330.817C338.006 330.81 337.877 330.825 337.755 330.798C335.097 330.256 332.38 330.503 329.699 330.209C326.279 329.832 322.816 329.82 319.372 329.651C319.38 330.967 318.462 331.666 317.539 332.325C315.097 334.072 312.611 335.761 310.173 337.512C305.701 340.723 301.241 343.947 296.796 347.19C292.203 350.547 287.633 353.939 283.047 357.308C278.661 360.531 274.271 363.743 269.894 366.974C269.713 367.108 269.639 367.387 269.517 367.599L269.505 367.603Z" fill="#696E66"/>
<path d="M196.026 218.336C195.276 218.309 194.522 218.254 193.772 218.25C185.358 218.23 176.94 218.442 168.538 218.14C159.94 217.83 151.349 218.038 142.758 217.948C140.006 217.92 137.25 218.148 134.493 218.203C131.796 218.258 129.095 218.254 126.394 218.266C124.576 218.273 122.758 218.407 120.96 217.979C120.363 217.838 119.711 217.924 119.083 217.904C117.83 217.861 116.57 217.952 115.345 217.582C115.227 217.547 115.098 217.543 114.972 217.543C113.029 217.547 111.097 217.37 109.165 217.166C107.426 216.982 105.651 217.209 103.928 216.774C101.101 216.903 98.309 216.338 95.4861 216.299C94.053 216.279 92.6159 216.075 91.1946 215.851C90.5075 215.745 89.8283 215.69 89.1412 215.647C86.8326 215.498 84.5318 215.282 82.2389 214.952C79.9499 214.622 77.6451 214.386 75.3483 214.108C75.2226 214.092 75.0931 214.108 74.9753 214.076C71.5123 213.185 67.9394 212.953 64.4294 212.325C62.2149 211.929 60.0044 211.497 57.7743 211.187C56.2195 210.971 54.6412 211.092 53.0785 211.238C52.6427 211.277 52.2069 211.426 51.7789 211.406C49.8275 211.328 47.9273 211.909 45.972 211.854C45.0218 211.827 44.1423 212.255 43.2982 212.679C39.7606 214.441 36.1171 215.965 32.5088 217.571C31.1425 218.179 30.2002 219.318 29.7015 220.7C29.3874 221.564 29.1637 222.49 29.144 223.448C29.1087 225.137 29.0891 226.821 28.8849 228.513C28.6179 230.743 29.3207 231.171 30.9815 232.051C31.6922 232.428 32.5088 232.718 33.3019 232.801C36.3801 233.111 39.2973 234.049 42.2656 234.823C45.4733 235.659 48.7557 236.165 52.0223 236.707C54.1818 237.065 56.3452 237.406 58.5125 237.697C59.812 237.869 61.1234 237.944 62.4308 238.129C64.2251 238.384 66.0234 238.631 67.8177 238.871C69.612 239.11 71.4338 239.165 73.2399 239.342C75.1048 239.526 76.9698 239.734 78.8308 239.974C80.1344 240.143 81.4536 240.186 82.7571 240.308C84.5632 240.476 86.3614 240.736 88.1714 240.861C90.2288 241.003 92.2783 241.273 94.3317 241.474C96.1378 241.646 97.9478 241.792 99.7539 241.965C101.25 242.11 102.75 242.212 104.226 242.467C104.972 242.597 105.71 242.683 106.46 242.695C107.587 242.718 108.721 242.632 109.821 243.001C109.994 243.06 110.194 243.072 110.378 243.06C112.396 242.915 114.356 243.511 116.366 243.523C117.548 243.531 118.726 243.778 119.907 243.928C121.458 244.128 123.001 244.415 124.56 244.517C125.875 244.603 127.187 244.662 128.475 244.948C130.512 245.404 132.597 245.204 134.643 245.431C137.336 245.73 140.041 245.53 142.711 245.804C145.279 246.067 147.858 245.93 150.403 246.193C152.707 246.433 155.043 246.268 157.329 246.735C157.812 246.833 158.33 246.782 158.832 246.798C160.521 246.853 162.221 246.743 163.893 247.135C164.372 247.249 164.895 247.179 165.397 247.19C167.337 247.245 169.268 247.23 171.212 247.501C173.002 247.752 174.848 247.579 176.665 247.65C178.228 247.713 179.787 247.858 181.346 247.96C182.908 248.062 184.487 247.87 186.03 248.262C186.21 248.309 186.403 248.302 186.591 248.305C188.472 248.349 190.348 248.364 192.217 248.667C192.952 248.784 193.721 248.686 194.475 248.686C194.605 248.27 194.675 247.822 194.879 247.442C195.547 246.189 195.692 244.866 195.688 243.46C195.669 236.012 195.712 228.56 195.724 221.112C195.724 220.17 195.79 219.239 196.038 218.325L196.026 218.336Z" fill="#FFB98C"/>
<path d="M196.026 218.337C195.778 219.248 195.715 220.179 195.711 221.125C195.7 228.573 195.656 236.025 195.676 243.473C195.676 244.879 195.535 246.202 194.867 247.454C194.667 247.831 194.596 248.283 194.463 248.699C194.757 248.852 194.942 249.088 194.993 249.418C195.354 251.762 195.68 254.109 196.077 256.446C196.709 260.199 197.384 263.945 198.044 267.69C198.507 270.329 199.033 272.959 199.426 275.614C199.63 276.988 199.964 278.291 200.572 279.536C202.955 279.567 205.339 279.622 207.722 279.626C221.9 279.65 236.073 279.662 250.251 279.681C250.848 279.041 251.421 278.382 252.042 277.773C253.746 276.104 255.23 274.267 256.439 272.209C258.308 269.021 259.313 265.582 259.348 261.883C259.372 259.241 258.897 256.673 258.119 254.157C257.919 253.513 257.519 252.912 257.672 252.186C257.464 251.447 257.472 250.686 257.605 249.955C257.833 248.715 257.79 247.466 257.805 246.222C257.856 242.287 257.723 238.342 257.974 234.419C258.257 229.986 258.123 225.558 258.194 221.129C258.21 220.187 258.131 219.26 257.899 218.349C257.212 218.322 256.529 218.278 255.842 218.274C250.279 218.251 244.711 218.239 239.148 218.212C238.461 218.212 237.777 218.141 237.094 218.106C236.627 218.636 236.399 219.295 236.144 219.931C233.078 227.611 230.023 235.291 226.964 242.975C226.851 243.261 226.768 243.563 226.391 243.599C226.328 243.489 226.25 243.391 226.207 243.277C223.69 236.728 221.197 230.171 218.645 223.638C217.918 221.777 217.377 219.837 216.383 218.082C215.704 218.129 215.021 218.212 214.342 218.216C208.864 218.243 203.383 218.255 197.906 218.278C197.286 218.278 196.666 218.329 196.045 218.357L196.026 218.337Z" fill="#8B8ADF"/>
<path d="M237.051 196.739C239.073 196.064 241.095 195.377 243.019 194.442C247.467 192.275 251.15 189.248 253.624 184.897C254.213 183.865 254.668 182.758 255.178 181.682C255.54 180.92 255.669 180.845 256.486 181.191C258.28 181.945 260.09 182.648 261.971 183.166C265.925 184.253 269.965 184.748 274.056 184.878C277.511 184.988 280.954 184.748 284.398 184.513C284.563 184.501 284.794 184.379 284.849 184.25C284.904 184.128 284.818 183.877 284.708 183.759C284.417 183.433 284.084 183.142 283.766 182.84C279.988 179.255 276.188 175.694 272.442 172.074C271.044 170.724 269.741 169.275 268.461 167.814C266.007 165.015 263.969 161.937 262.352 158.58C260.714 155.191 259.061 151.807 257.401 148.43C256.596 146.797 255.783 145.168 254.739 143.668C251.095 138.434 246.081 135.807 239.705 135.866C235.465 135.905 232.068 137.625 229.626 141.139C229.485 141.343 229.336 141.547 229.202 141.763C228.908 142.239 228.476 142.411 227.93 142.411C227.302 142.411 226.674 142.411 226.05 142.474C218.527 143.189 213.034 147.005 209.363 153.519C208.66 154.771 208.106 156.118 207.604 157.468C206.815 159.581 205.876 161.638 205.323 163.833C205.853 164.021 206.371 164.245 206.913 164.394C211.507 165.635 216.104 166.872 220.706 168.089C223.25 168.76 225.802 169.393 228.35 170.052C228.821 170.174 228.963 170.468 228.778 170.888C228.629 171.234 228.445 171.56 228.276 171.898C227.047 174.367 225.837 176.845 224.589 179.298C222.708 182.997 223.674 184.21 225.794 186.283C226.422 186.896 227.051 187.508 227.683 188.117C230.345 190.681 233.015 193.241 235.669 195.812C236.081 196.213 236.513 196.554 237.059 196.739H237.051ZM257.483 170.233C257.53 171.615 257.358 172.965 257.145 174.336C256.875 176.083 256.345 177.732 255.783 179.389C255.724 179.562 255.61 179.726 255.481 179.86C255.414 179.931 255.253 179.97 255.159 179.942C255.061 179.915 254.931 179.801 254.915 179.711C254.786 178.965 254.719 178.183 254.951 177.477C255.237 176.609 255.21 175.749 255.218 174.878C255.229 173.374 255.182 171.866 255.237 170.362C255.284 169.094 255.108 167.865 254.786 166.656C254.236 164.602 253.745 162.522 252.768 160.621C251.358 157.881 249.584 155.415 247.353 153.244C244.605 150.57 241.397 148.693 237.856 147.358C235.103 146.318 232.288 145.501 229.3 145.493C228.676 145.493 228.401 145.093 228.527 144.492C228.578 144.249 228.672 144.013 228.755 143.778C229.049 142.953 229.104 142.949 229.948 142.871C231.782 142.702 233.6 143.008 235.339 143.401C242.08 144.912 247.828 148.163 251.963 153.833C255.512 158.701 257.507 164.147 257.483 170.237V170.233Z" fill="#8A4202"/>
<path d="M250.251 279.673C236.073 279.657 221.899 279.641 207.722 279.618C205.338 279.614 202.955 279.559 200.572 279.527C200.132 279.834 199.893 280.258 199.857 280.792C199.826 281.29 199.763 281.797 199.791 282.295C199.971 285.495 199.527 288.676 199.429 291.864C199.378 293.54 199.037 295.209 198.825 296.881C198.809 297.007 198.762 297.129 198.766 297.25C198.84 299.261 198.44 301.236 198.302 303.234C198.177 305.103 198 306.972 197.808 308.837C197.639 310.451 197.419 312.064 197.219 313.674C197.011 315.347 196.763 317.015 196.587 318.692C196.418 320.302 196.316 321.919 196.182 323.537C196.555 323.505 196.936 323.411 197.305 323.454C201.365 323.918 205.44 323.647 209.508 323.741C211.192 323.78 212.892 323.568 214.541 324.09C214.6 324.11 214.667 324.106 214.73 324.102C217.239 324 219.72 324.444 222.225 324.507C228.111 324.652 233.992 324.899 239.882 324.829C240.628 324.821 241.393 324.923 242.065 324.463C241.809 323.435 242.308 322.496 242.441 321.515C242.681 319.728 242.936 317.93 243.403 316.195C243.843 314.569 244.177 312.92 244.55 311.287C245.598 306.732 246.399 302.119 247.338 297.537C247.738 295.582 247.836 293.579 248.366 291.644C249.155 288.754 249.642 285.805 250.047 282.837C250.192 281.781 250.365 280.741 250.255 279.673H250.251Z" fill="#FEB88C"/>
<path d="M237.051 196.738C236.505 196.553 236.073 196.208 235.661 195.811C233.007 193.24 230.337 190.68 227.675 188.116C227.043 187.507 226.414 186.895 225.786 186.282C223.666 184.209 222.7 182.996 224.581 179.298C225.829 176.84 227.043 174.362 228.268 171.897C228.436 171.559 228.617 171.229 228.77 170.888C228.955 170.467 228.817 170.173 228.342 170.051C225.798 169.392 223.242 168.759 220.698 168.088C216.096 166.871 211.502 165.634 206.905 164.393C206.363 164.248 205.845 164.02 205.315 163.832C204.867 164.955 204.781 166.129 204.706 167.322C204.569 169.58 204.235 171.802 203.034 173.789C202.288 175.022 201.412 176.161 200.399 177.193C198.601 179.023 196.909 180.943 195.507 183.11C195.126 183.699 194.843 184.319 194.655 184.979C194.294 186.251 194.639 187.158 195.762 187.876C196.178 188.143 196.657 188.32 197.125 188.489C197.949 188.787 198.813 188.988 199.61 189.337C201.412 190.126 202.574 191.39 202.511 193.507C202.484 194.445 202.57 195.391 202.503 196.326C202.397 197.782 202.719 199.192 202.9 200.613C203.045 201.744 203.701 202.58 204.793 202.989C205.613 203.295 206.445 203.542 207.349 203.527C208.978 203.499 210.607 203.519 212.233 203.53C212.731 203.53 213.242 203.511 213.733 203.601C215.315 203.888 215.77 204.5 216.073 206.083C216.41 207.822 216.375 209.565 216.375 211.312C216.375 213.566 216.363 215.824 216.359 218.077C217.353 219.828 217.894 221.772 218.621 223.633C221.169 230.17 223.662 236.727 226.183 243.272C226.226 243.386 226.305 243.484 226.367 243.594C226.748 243.559 226.827 243.256 226.941 242.97C229.995 235.286 233.054 227.606 236.12 219.927C236.375 219.29 236.607 218.631 237.07 218.101C237.07 211.23 237.07 204.363 237.07 197.492C237.07 197.245 237.051 196.993 237.043 196.746L237.051 196.738Z" fill="#FEB88C"/>
<path d="M439.03 334.143C439.568 335.14 439.933 336.176 439.63 337.327C439.387 338.253 439.34 339.211 439.54 340.114C439.827 341.418 439.807 342.718 439.835 344.029C439.854 344.967 439.897 345.906 439.866 346.84C439.768 349.718 440.227 352.572 440.231 355.447C440.231 356.126 440.392 356.801 440.479 357.48C441.087 357.712 441.719 357.606 442.344 357.614C444.165 357.637 445.983 357.637 447.805 357.669C448.304 357.677 448.798 357.771 449.297 357.81C449.921 357.857 450.569 358.018 451.162 357.908C453.345 357.5 455.544 357.645 457.731 357.669C460.059 357.692 462.364 357.559 464.664 357.26C464.79 357.245 464.927 357.26 465.033 357.205C467.601 355.977 470.028 354.665 471.151 351.736C472.379 348.525 472.474 345.289 471.975 341.956C471.743 340.405 471.716 338.834 472.022 337.276C472.128 336.726 472.203 336.161 472.218 335.603C472.281 333.412 472.156 331.214 472.599 329.046C473.18 326.188 472.972 323.294 472.925 320.42C472.874 317.468 471.575 315.194 468.979 313.6C466.682 312.187 464.189 311.449 461.586 311.033C459.666 310.726 457.809 311.166 456.203 312.254C453.906 313.812 452.01 315.831 450.18 317.9C449.313 318.881 448.488 319.914 447.734 320.986C445.716 323.852 443.627 326.675 442.096 329.851C441.338 331.422 440.062 332.533 438.7 333.558C438.81 333.754 438.916 333.946 439.026 334.143H439.03Z" fill="#FFB98C"/>
<path d="M269.506 367.601C269.627 367.389 269.702 367.11 269.883 366.976C274.26 363.745 278.654 360.533 283.036 357.31C287.621 353.941 292.192 350.549 296.785 347.192C301.23 343.945 305.69 340.721 310.162 337.514C312.6 335.763 315.086 334.07 317.528 332.327C318.45 331.668 319.369 330.969 319.361 329.653C319.204 329.457 319.051 329.257 318.894 329.06C318.662 329.002 318.435 328.943 318.203 328.884C317.818 328.915 317.437 328.951 317.053 328.982C315.003 329.94 313.181 331.251 311.312 332.52C307.59 335.052 304.037 337.812 300.342 340.38C297.728 342.198 295.203 344.145 292.639 346.038C290.978 347.263 289.321 348.488 287.661 349.705C284.088 352.328 280.511 354.954 276.934 357.573C274.512 359.344 272.081 361.095 269.655 362.862C268.646 363.596 267.637 364.326 266.691 365.151C265.721 365.995 265.556 366.878 266.172 367.962C266.855 368.421 267.582 368.394 268.312 368.127C268.72 367.981 269.105 367.777 269.502 367.601H269.506Z" fill="#494A45"/>
<path d="M318.89 329.066C319.047 329.263 319.2 329.463 319.357 329.659C322.801 329.828 326.264 329.844 329.683 330.217C332.369 330.511 335.082 330.264 337.74 330.806C337.862 330.829 337.991 330.818 338.117 330.825C340.932 330.975 343.759 331.026 346.562 331.3C348.816 331.52 351.078 331.461 353.316 331.705C355.695 331.964 358.078 331.893 360.45 332.082C368.538 332.722 376.638 332.192 384.726 332.412C385.79 332.439 386.854 332.388 387.91 332.639C388.448 332.765 389.033 332.714 389.598 332.718C392.237 332.734 394.871 332.73 397.51 332.753C401.02 332.785 404.538 332.965 408.028 333.213C412.924 333.558 417.812 333.338 422.7 333.535C424.137 333.593 425.59 333.456 427.008 333.837C427.125 333.868 427.259 333.86 427.385 333.864C430.702 333.994 434.024 334.127 437.342 334.241C437.903 334.261 438.464 334.186 439.026 334.151C438.916 333.955 438.806 333.758 438.7 333.566C436.949 333.531 435.206 333.589 433.451 333.319C432.163 333.122 430.82 333.275 429.505 333.26C428.441 333.248 427.377 333.299 426.332 332.981C425.924 332.859 425.461 332.898 425.025 332.895C421.574 332.867 418.122 332.863 414.675 332.824C412.61 332.8 410.533 332.938 408.487 332.525C408.307 332.49 408.11 332.506 407.926 332.498C402.606 332.282 397.286 331.917 391.958 332.066C390.568 332.105 389.229 331.736 387.843 331.74C382.448 331.76 377.054 331.74 371.659 331.724C369.716 331.721 367.749 331.874 365.829 331.642C363.013 331.304 360.183 331.587 357.387 331.273C355.2 331.026 353.001 331.128 350.83 330.884C348.765 330.653 346.68 330.802 344.65 330.507C341.973 330.115 339.256 330.48 336.609 329.887C336.55 329.875 336.484 329.875 336.421 329.879C333.594 330.013 330.806 329.424 327.983 329.424C326.55 329.424 325.117 329.204 323.684 329.094C322.251 328.984 320.798 329.188 319.373 328.843C319.24 328.811 319.051 328.984 318.89 329.066Z" fill="#B4BAB7"/>
<path d="M393.905 283.828C393.489 283.793 393.21 284.052 392.912 284.28C391.271 285.532 389.665 286.84 387.965 288.01C386.006 289.357 383.995 290.637 381.954 291.854C374.682 296.192 367.014 299.781 359.413 303.475C354.124 306.047 348.698 308.328 343.135 310.276C342.605 310.46 342.098 310.747 341.556 310.876C337.948 311.74 334.87 313.609 331.917 315.773C329.189 317.771 326.468 319.769 324.077 322.176C323.645 322.612 323.079 322.961 322.954 323.637C323.629 323.743 323.975 323.232 324.355 322.84C325.58 321.579 326.876 320.398 328.305 319.373C330.441 317.842 332.64 316.397 334.721 314.795C336.649 313.311 338.808 312.412 341.085 311.662C346.146 309.997 351.089 308.018 355.915 305.745C358.011 304.755 360.167 303.9 362.252 302.887C366.076 301.025 369.896 299.149 373.669 297.182C377.446 295.215 381.168 293.142 384.741 290.813C386.787 289.482 388.903 288.257 390.823 286.738C391.656 286.078 392.5 285.43 393.328 284.763C393.623 284.523 393.87 284.237 393.897 283.828H393.905Z" fill="#B4BAB7"/>
<path d="M420.914 259.983C420.439 260.042 420.152 260.396 419.846 260.702C417.938 262.606 416.034 264.514 414.133 266.422C413.827 266.729 413.474 267.007 413.376 267.471C413.705 267.541 414.004 267.455 414.239 267.223C416.371 265.099 418.503 262.971 420.631 260.843C420.863 260.612 420.965 260.317 420.918 259.987L420.914 259.983Z" fill="#B4BAB7"/>
<path d="M428.146 251.35C427.667 251.393 427.192 251.44 426.717 251.487C426.76 252.017 426.572 252.457 426.254 252.873C425.531 253.815 424.836 254.777 424.118 255.72C423.886 256.022 423.643 256.305 423.713 256.725C423.933 256.619 424.224 256.572 424.361 256.399C425.68 254.758 427.058 253.164 428.146 251.354V251.35Z" fill="#B4BAB7"/>
<path d="M405.582 274.403C404.106 275.055 402.166 276.716 401.33 278.043C401.452 278.043 401.613 278.094 401.695 278.035C403.054 277.057 404.467 276.135 405.484 274.757C405.551 274.666 405.551 274.521 405.582 274.399V274.403Z" fill="#B4BAB7"/>
<path d="M412.743 268.004C412.625 268.016 412.476 267.988 412.39 268.051C411.298 268.825 410.277 269.673 409.602 270.858C409.724 270.858 409.881 270.917 409.963 270.858C411.082 270.093 412.186 269.311 412.743 268V268.004Z" fill="#B4BAB7"/>
<path d="M409.367 271.034C409.245 271.046 409.096 271.018 409.014 271.081C407.93 271.863 406.854 272.656 406.222 273.889C406.344 273.889 406.501 273.94 406.583 273.881C407.71 273.127 408.774 272.31 409.367 271.034Z" fill="#B4BAB7"/>
<path d="M398.809 280.07C397.6 280.577 396.5 281.433 395.652 282.52C395.711 282.532 395.782 282.567 395.833 282.548C396.901 282.187 398.208 281.095 398.809 280.07Z" fill="#B4BAB7"/>
<path d="M423.537 256.96C422.453 257.655 421.448 258.417 421.094 259.752C422.225 259.096 423.234 258.338 423.537 256.96Z" fill="#B4BAB7"/>
<path d="M321.937 324.523C320.641 324.947 319.84 325.909 319.196 327.04C319.259 327.044 319.33 327.072 319.381 327.048C320.543 326.518 321.446 325.729 321.937 324.523Z" fill="#B4BAB7"/>
<path d="M401.094 278.217C400.058 278.342 399.536 279.092 399.053 279.893C400.16 279.854 400.678 279.1 401.094 278.217Z" fill="#B4BAB7"/>
<path d="M317.053 328.984C317.437 328.953 317.818 328.917 318.203 328.886C318.191 328.56 318.176 328.23 318.164 327.904C317.477 327.94 317.127 328.32 317.053 328.984Z" fill="#B4BAB7"/>
<path d="M395.405 282.692C394.75 282.704 394.373 283.081 394.149 283.654C394.903 283.768 395.26 283.368 395.405 282.692Z" fill="#B4BAB7"/>
<path d="M409.987 229.57C409.999 229.927 410.011 230.289 410.023 230.646C410.973 231.447 411.958 231.557 413.156 231.109C414.495 230.611 415.924 230.363 417.298 229.959C419.756 229.236 422.214 228.518 424.648 227.725C427.443 226.814 430.208 225.813 432.991 224.866C433.698 224.627 434.432 224.45 435.147 224.234C436.191 223.92 436.674 223.084 436.407 222.063C436.203 221.274 435.426 220.744 434.515 220.905C433.722 221.042 432.936 221.282 432.171 221.529C431.221 221.839 430.29 222.212 429.348 222.546C425.044 224.069 420.733 225.577 416.434 227.116C414.907 227.662 413.285 227.901 411.801 228.62C411.185 228.918 410.6 229.268 409.991 229.57H409.987Z" fill="#E8A57B"/>
<path d="M257.483 170.233C257.507 164.139 255.512 158.694 251.963 153.829C247.829 148.16 242.081 144.909 235.339 143.397C233.604 143.008 231.782 142.702 229.949 142.867C229.104 142.945 229.049 142.949 228.755 143.774C228.669 144.009 228.578 144.245 228.527 144.488C228.402 145.089 228.676 145.486 229.301 145.49C232.289 145.498 235.104 146.318 237.856 147.355C241.398 148.693 244.601 150.566 247.354 153.24C249.584 155.411 251.358 157.877 252.768 160.618C253.746 162.518 254.236 164.599 254.786 166.652C255.108 167.862 255.285 169.09 255.238 170.359C255.183 171.862 255.23 173.37 255.218 174.874C255.21 175.745 255.238 176.609 254.951 177.473C254.719 178.18 254.786 178.961 254.916 179.707C254.931 179.801 255.061 179.911 255.159 179.939C255.257 179.966 255.414 179.927 255.481 179.856C255.607 179.723 255.724 179.558 255.783 179.385C256.345 177.732 256.875 176.079 257.146 174.332C257.358 172.966 257.531 171.615 257.483 170.229V170.233Z" fill="#643407"/>
</svg>
