<svg width="500" height="500" viewBox="0 0 500 500" fill="none" xmlns="http://www.w3.org/2000/svg">
<path d="M314.964 304.784C324.513 302.537 333.615 298.868 342.943 295.919C352.686 292.839 362.352 289.512 372.089 286.408C391.866 280.104 409.533 295.954 405.268 316.327C400.001 341.477 394.473 366.573 389.058 391.691C379.106 391.409 369.154 391.127 359.199 390.844C359.474 381.58 361.012 372.44 361.915 363.236C362.867 353.499 363.982 343.78 365.044 333.881C362.695 335.144 361.689 335.723 359.625 336.577C344.632 342.775 329.749 346.07 316.435 352.519C312.335 354.505 267.72 382.409 253.453 387.426C201.38 405.746 137.795 419.822 113.153 420.033C112.825 412.191 112.497 404.349 112.169 396.507C126.393 392.502 124.915 392.76 139.171 388.872C153.659 384.918 156.171 381.831 185.219 375.492C188.471 374.782 189.611 374.677 192.673 373.364C214.192 364.143 230.233 357.027 242.552 344.108C243.717 342.888 244.782 341.688 244.955 339.889C246.225 326.663 252.628 316.154 262.244 307.352C263.772 305.952 265.268 304.516 266.778 303.094C282.572 303.825 298.365 304.551 314.159 305.282C314.375 305.059 314.646 304.964 314.971 304.777L314.964 304.784Z" fill="#6A6C65"/>
<path d="M314.152 305.288C298.358 304.558 282.564 303.831 266.771 303.101C267.296 298.448 267.377 293.721 268.287 289.142C270.813 276.452 271.304 265.544 270.492 256.647C270.344 255.01 269.646 253.465 269.229 251.871C286.498 242.91 302.038 239.03 319.306 230.065C318.52 254.644 320.654 277.031 315.465 299.468C315.055 301.239 314.692 302.967 314.967 304.784C314.685 304.967 314.434 305.105 314.156 305.288H314.152Z" fill="#F4BA92"/>
<path d="M319.165 251.543C300.789 252.866 289.172 255.773 270.658 259.082C267.458 251.451 263.666 244.201 259.041 237.488C260.406 237.28 261.429 238.222 262.572 238.755C275.279 244.695 289.084 235.054 289.687 219.987C289.973 212.885 288.343 206.726 284.141 201.215C280.592 196.562 277.4 191.585 274.048 186.751C284.946 189.641 295.885 204.073 306.426 208.179C314.618 211.372 319.617 220.516 319.306 230.066C319.162 234.468 319.55 247.147 319.165 251.539V251.543Z" fill="#4E965A"/>
<path d="M283.309 135.838C285.334 136.015 287.221 136.099 288.879 136.032C290.534 135.965 290.866 137.006 290.746 138.28C290.22 143.857 287.115 144.174 291.931 146.559C295.127 148.14 293.021 146.824 296.087 148.687C297.865 149.77 297.558 150.606 296.954 152.627C296.552 153.978 295.766 154.73 294.668 157.513C292.016 164.251 284.448 179.135 283.489 185.894C282.646 191.828 286.346 197.642 286.607 202.147C279.15 202.365 282.889 191.718 275.435 191.937C271.569 191.888 273.558 188.744 272.842 187.03C272.881 181.961 272.884 176.895 272.973 171.825C272.997 170.354 272.5 169.642 271.036 169.112C268.238 168.1 265.568 166.742 262.841 165.535C260.897 164.678 259.638 163.683 260.357 161.097C261.214 158.01 261.306 154.708 262.171 151.625C263.426 147.155 263.158 143.12 260.456 139.207C259.306 137.539 258.674 135.514 257.807 133.651C264.545 132.935 275.072 135.119 283.313 135.831" fill="#F4BB92"/>
<path d="M268.1 167.934C269.067 168.357 270.041 168.76 271.032 169.12C272.496 169.649 272.993 170.365 272.969 171.832C272.88 176.898 272.873 181.968 272.838 187.037C268.756 186.384 264.661 185.788 260.59 185.072C249.512 183.132 241.571 177.124 236.636 166.939C234.618 162.777 235.362 158.402 234.763 154.137C236.597 149.431 238.199 144.619 242.189 141.105C246.704 137.13 252.024 134.935 257.803 133.658C258.67 135.521 259.302 137.549 260.452 139.214C263.154 143.123 263.426 147.163 262.167 151.632C261.299 154.716 261.21 158.018 260.353 161.104C259.634 163.69 260.893 164.685 262.837 165.542C264.297 166.188 265.74 166.876 267.194 167.532" fill="#7A4923"/>
<path d="M267.674 167.744C267.815 167.807 267.96 167.871 268.101 167.931Z" fill="#7A4923"/>
<path d="M267.194 167.532C267.353 167.602 267.512 167.676 267.671 167.747Z" fill="#7A4923"/>
<path d="M234.767 154.137C235.366 158.402 234.622 162.776 236.64 166.939C241.575 177.12 249.516 183.128 260.593 185.072C264.665 185.784 268.757 186.384 272.842 187.037C273.558 188.751 271.568 191.895 275.435 191.944C276.116 194.096 273.988 193.214 273.318 193.909C268.916 192.424 265.885 187.577 261.32 187.037C250.776 185.792 240.718 185.587 234.883 176.58C230.512 169.832 229.806 162.681 233.003 155.227C233.592 154.863 234.181 154.5 234.77 154.137H234.767Z" fill="#5C3719"/>
<path d="M253.45 186.127C250.416 200.894 241.671 208.927 225.859 213.298C216.909 215.771 207.042 215.111 196.956 211.301C200.442 208.468 203.691 205.731 207.056 203.117C215.505 196.562 219.576 187.81 218.849 176.687C218.151 165.973 222.741 158.843 233.01 155.432C232.858 157.294 233.712 159.115 233.599 161.073C232.925 173.102 243.978 180.916 253.446 186.123L253.45 186.127Z" fill="#7B4A24"/>
<path d="M359.199 390.848C369.151 391.13 379.106 391.412 389.058 391.694C395.179 395.141 401.285 398.619 407.431 402.024C412.017 404.567 413.848 407.915 412.779 412.05C411.685 416.287 408.549 418.488 403.413 418.513C396.099 418.544 388.769 418.192 381.473 418.576C364.614 419.465 354.877 402.966 359.199 390.844V390.848Z" fill="#F5BB93"/>
<path d="M266.696 117.571C266.047 117.564 265.398 117.557 264.749 117.547C265.423 115.635 266.058 116.594 266.696 117.571Z" fill="#DCA882"/>
<path d="M267.459 118.446C267.191 118.143 266.919 117.84 266.647 117.536C266.909 117.617 267.173 117.695 267.434 117.776C267.434 117.998 267.445 118.224 267.455 118.446H267.459Z" fill="#DCA882"/>
<path d="M271.555 157.213C271.018 146.108 270.391 135.009 270.013 123.9C269.932 121.533 267.388 120.672 267.455 118.446C271.216 120.058 273.121 122.369 273.467 126.984C274.229 137.253 273.925 147.547 274.761 157.799C273.693 157.605 272.624 157.411 271.558 157.217L271.555 157.213Z" fill="#DCA882"/>
<path d="M264.884 138.177C262.1 129.559 257.56 121.653 257.698 112.033C257.86 100.536 259.751 89.0775 260.59 77.591C260.682 76.3598 260.647 75.0792 260.992 73.9115C263.367 65.9246 260.079 59.8251 256.11 54.1595C252.815 49.4534 251.651 44.2111 251.718 38.2986C251.76 34.4744 251.411 30.668 251.178 26.8579C251.055 24.8154 251.492 23.8135 253.729 24.0287C260.721 24.706 267.745 25.1858 274.758 25.7185C276.769 25.8702 277.397 27.0943 277.524 29.1792C279.397 59.8851 285.309 89.6984 290.587 119.607C293.039 133.499 291.384 146.975 289.338 160.716C287.941 170.093 286.534 179.473 285.186 188.854C285.077 189.623 285.369 190.434 285.475 191.228C287.169 196.844 288.668 202.549 290.601 208.052C292.891 214.568 292.552 220.928 290.121 227.607C284.964 241.774 270.616 244.356 258.802 237.294C257.659 236.613 257.828 236.811 255.852 235.022C250.254 224.34 249.696 213.061 254.198 201.183C255.909 194.911 257.62 188.635 259.331 182.363C261.73 172.368 265.131 162.646 267.596 152.655C267.596 152.655 266.203 142.269 264.88 138.17L264.884 138.177Z" fill="#F5BB92"/>
<path d="M263.268 133.634C263.268 133.634 264.474 135.796 265.307 139.687C266.139 143.579 267.6 152.663 267.6 152.663L264.111 165.246L263.246 164.664L266.647 152.031L264.749 140.139L262.403 133.637H263.268V133.634Z" fill="#DCA782"/>
<path d="M291.204 146.186L287.312 174.348C287.312 174.348 288.568 171.402 288.854 170.75C289.14 170.097 290.533 158.311 290.932 155.072C291.327 151.834 291.93 146.56 291.93 146.56L291.207 146.182L291.204 146.186Z" fill="#DCA782"/>
<path d="M112.483 396.344C113.012 406.289 112.621 410.096 113.15 420.041C110.211 426.422 108.168 438.925 105.272 445.324C103.113 450.101 99.924 452.2 95.7154 451.47C91.4044 450.722 88.9526 447.78 88.5116 442.661C87.8837 435.372 87.6367 428.038 86.6595 420.803C84.4018 404.07 100.051 393.021 112.483 396.344Z" fill="#F5BB93"/>
<path d="M299.787 362.174L313.658 331.295L311.707 355.108L299.787 362.174Z" fill="#5B5B5A"/>
</svg>
