<svg width="501" height="501" viewBox="0 0 501 501" fill="none" xmlns="http://www.w3.org/2000/svg">
<path d="M265.848 333.437C264.133 332.912 263.161 334.262 262.015 335.035C247.112 345.12 232.11 355.069 217.369 365.393C199.368 377.999 178.843 385.061 158.65 392.915C147.945 397.08 137.291 401.365 126.613 405.593C119.551 401.314 113.341 395.856 106.576 391.166C112.061 384.677 118.859 379.496 124.565 373.25C138.739 357.732 156.68 349.369 176.888 345.243C179.874 344.634 182.156 343.296 184.345 341.197C199.848 326.336 214.457 310.525 231.091 296.863C238.269 290.968 245.964 285.789 254.063 281.228C268.412 288.41 282.757 295.591 297.105 302.773C308.632 305.271 320.36 306.554 331.979 308.485C339.686 309.766 347.449 310.74 355.132 312.147C369.282 314.738 377.984 323.805 379.546 338.097C381.936 359.966 383.954 381.874 386.122 403.766C386.188 404.423 386.14 405.089 386.143 405.752C376.389 405.797 366.634 405.845 356.88 405.89C350.888 390.351 344.142 374.998 345.587 357.708C345.875 354.274 346.232 350.865 347.056 347.518C347.575 345.416 347.512 344.28 344.678 344.079C328.972 342.97 313.283 341.62 297.588 340.322C293.9 340.016 290.205 339.701 286.637 338.616C287.006 334.672 288.112 330.885 288.985 327.047C289.204 326.087 289.537 324.78 288.571 324.09C287.729 323.485 286.85 324.387 286.04 324.753C282.316 326.432 278.628 328.195 274.883 329.824C271.908 331.116 268.492 331.311 265.842 333.434L265.848 333.437Z" fill="#6A6C65"/>
<path d="M228.567 155.739C232.969 148.336 236.07 140.305 239.242 132.359C240.472 129.279 238.562 125.654 237.95 122.314C235.098 106.742 232.115 91.1939 229.074 75.6551C228.798 74.2427 228.84 73.0972 229.506 71.8798C232.492 66.4253 235.521 60.9918 238.4 55.4804C239.338 53.6872 240.538 53.2914 242.268 53.9691C243.251 54.3559 244.16 55.0516 245.171 55.2405C251.849 56.4909 254.562 60.65 253.87 67.16C252.097 83.8023 258.356 98.9273 263.084 114.238C266.308 124.673 266.602 134.977 265.108 145.562C263.207 159.017 261.339 172.474 259.459 185.932C255.849 184.502 253.966 180.547 250.076 179.527C249.977 179.182 249.878 178.837 249.782 178.493C249.681 178.559 249.582 178.622 249.48 178.688C249.678 178.969 249.875 179.251 250.073 179.53C252.052 185.44 254.646 191.057 258.068 196.277C255.912 208.941 249.672 219.238 239.953 227.517C235.698 219.457 233.113 210.701 229.479 202.38C229.008 201.303 228.843 200.077 227.776 199.342C225.365 190.253 223.629 181.083 224.579 171.605C225.907 166.315 227.236 161.023 228.564 155.733L228.567 155.739Z" fill="#F5BB92"/>
<path d="M239.953 227.52C249.669 219.241 255.912 208.944 258.068 196.281C259.387 193.234 259.105 189.921 259.675 186.748C268.191 190.379 276.779 193.855 285.208 197.681C296.837 202.962 300.249 215.886 292.831 226.225C291.709 227.79 291.421 229.199 291.658 230.993C292.159 234.795 292.519 238.615 292.939 242.429C277.859 244.729 262.779 247.029 247.699 249.329C244.421 242.306 241.956 234.996 239.953 227.52Z" fill="#8A8AD9"/>
<path d="M247.699 249.331C262.779 247.032 277.859 244.732 292.939 242.432C292.984 248.78 293.044 255.128 293.074 261.476C293.137 273.911 294.787 286.19 296.712 298.443C296.937 299.873 296.979 301.33 297.107 302.776C282.759 295.594 268.414 288.412 254.065 281.231C254.137 271.638 252.179 262.429 248.854 253.473C248.356 252.132 248.077 250.714 247.699 249.331Z" fill="#F4BA92"/>
<path d="M224.581 171.61C223.628 181.089 225.367 190.256 227.778 199.348C220.071 205.504 211.771 205.678 203.066 201.807C198.904 198.604 195.456 194.829 193.54 189.836C189.998 175.416 194.637 163.859 206.224 158.414C209.588 156.833 213.106 155.766 216.911 156.294C216.689 160.678 218.149 164.807 218.827 169.053C219.079 170.627 220.08 170.876 221.403 170.699C222.461 171.002 223.523 171.308 224.581 171.61Z" fill="#7B4A24"/>
<path d="M106.577 391.17C113.342 395.86 119.552 401.32 126.614 405.596C129.991 407.65 133.421 409.62 136.728 411.779C140.873 414.481 142.357 418.994 140.735 423.561C139.916 425.867 138.552 427.255 135.757 427.15C130.737 426.958 125.478 428.041 120.722 426.898C111.153 424.599 102.565 419.858 96.7839 411.561C94.391 408.127 95.0837 403.821 97.3956 400.277C99.7765 396.621 102.826 393.509 106.577 391.17Z" fill="#F5BB93"/>
<path d="M356.884 405.896C366.638 405.851 376.393 405.803 386.147 405.758C390.735 408.1 395.323 410.445 399.911 412.784C404.22 414.982 406.025 417.953 405.189 421.474C404.346 425.018 401.272 427.078 396.7 427.09C389.293 427.111 381.883 427.117 374.477 427.09C366.449 427.06 360.881 422.862 358.818 415.152C358.005 412.112 357.517 408.984 356.881 405.896H356.884Z" fill="#F2BA94"/>
<path d="M201.96 206.76C200.728 212.443 200.752 218.317 199.205 223.964C196.596 233.475 191.897 241.7 183.876 249.338C183.876 244.972 183.888 241.502 183.876 238.03C183.84 229.595 182.193 221.586 178.475 213.906C173.989 204.64 178.163 196.118 188.712 192.094C190.341 199.504 194.674 204.47 201.963 206.76H201.96Z" fill="#7B4B24"/>
<path d="M265.849 333.437C268.496 331.314 271.915 331.119 274.889 329.827C278.635 328.199 282.323 326.436 286.047 324.756C286.86 324.39 287.739 323.491 288.578 324.094C289.541 324.786 289.208 326.091 288.992 327.05C288.119 330.888 287.013 334.679 286.644 338.619C279.423 338.052 272.727 335.38 265.852 333.431L265.849 333.437Z" fill="#5B5B5A"/>
<path d="M201.961 206.76C194.668 204.469 190.338 199.504 188.71 192.094C190.32 191.341 191.93 190.586 193.541 189.833C195.457 194.826 198.902 198.598 203.067 201.803C202.699 203.456 202.33 205.108 201.961 206.757V206.76Z" fill="#5C381A"/>
<path d="M221.404 170.699C220.082 170.879 219.08 170.63 218.828 169.053C218.147 164.807 216.687 160.678 216.912 156.294L217.02 156.405C218.345 156.417 219.686 156.567 220.99 156.414C223.959 156.069 224.657 157.029 223.692 159.919C222.531 163.398 221.338 166.93 221.404 170.696V170.699Z" fill="#F2B88F"/>
<path d="M259.675 186.748C259.105 189.92 259.387 193.234 258.068 196.28C254.646 191.06 252.055 185.443 250.073 179.533H250.076C253.965 180.55 255.849 184.508 259.459 185.935C259.531 186.205 259.603 186.478 259.675 186.748Z" fill="#D7A685"/>
<path d="M221.404 170.7C221.335 166.933 222.531 163.401 223.691 159.923C224.657 157.032 223.955 156.072 220.99 156.417C219.685 156.57 218.345 156.417 217.02 156.408C220.792 154.831 224.72 155.964 228.57 155.74C227.242 161.029 225.913 166.322 224.585 171.611C223.527 171.308 222.465 171.003 221.407 170.7H221.404Z" fill="#DAA782"/>
<path d="M250.073 179.533C249.875 179.251 249.677 178.969 249.479 178.691C249.581 178.625 249.68 178.562 249.782 178.496C249.881 178.84 249.98 179.185 250.076 179.53L250.073 179.533Z" fill="#D7A685"/>
</svg>
