<svg width="500" height="501" viewBox="0 0 500 501" fill="none" xmlns="http://www.w3.org/2000/svg">
<path d="M455.647 435.765C450.107 435.491 428.218 435.902 426.191 436.175C421.327 436.859 416.192 434.945 416.328 430.296C416.463 426.742 417.544 423.324 417.003 421.137C414.031 410.063 405.653 375.748 402.14 362.35C401.059 357.839 428.623 348.816 429.164 353.737C431.19 373.424 430.65 415.121 430.515 422.23C430.515 422.23 459.43 423.461 459.7 428.656C459.97 431.663 461.186 436.175 455.647 435.765Z" fill="#ECAD83"/>
<path d="M399.734 331.057C399.055 338.958 397.017 345.634 402.18 362.527C406.391 360.483 418.89 355.306 429.351 353.944C428.4 346.042 429.623 308.987 419.434 298.361C408.701 287.189 310.069 313.21 307.759 309.668C307.759 309.668 258.307 343.181 278.821 357.077C304.091 373.834 399.734 331.057 399.734 331.057Z" fill="#333333"/>
<path d="M49.2566 432.53C48.7149 426.962 41.131 408.897 40.5893 406.86C39.235 402.106 40.0476 396.809 44.7875 396.13C48.3086 395.723 51.8297 396.266 53.8611 395.315C64.1536 390.562 96.2498 380.239 108.709 374.67C111.553 373.448 114.532 372.226 117.647 371.003C130.242 366.25 132.002 394.908 127.263 396.13C108.438 401.291 61.9868 407.811 54.9446 408.897C54.9446 408.897 61.9868 434.16 56.976 435.382C53.9966 436.062 49.7983 438.099 49.2566 432.53Z" fill="#F6BB92"/>
<path d="M159.651 359.203C144.273 362.476 129.846 366.569 117.189 371.343C120.184 375.026 126.716 392.35 126.852 396.579C131.616 395.351 168.77 387.439 168.77 387.439C180.474 384.984 250.155 371.07 269.753 360.976C274.925 358.52 319.428 345.425 328.139 325.509C331.405 318.007 290.712 299.455 279.688 301.365C274.381 301.365 265.398 302.183 259.818 305.184C251.38 309.549 245.936 319.098 245.936 319.098C220.759 332.603 196.67 346.516 190.001 349.927C180.202 354.974 159.651 359.203 159.651 359.203Z" fill="#3D3C3C"/>
<path d="M289.464 22.79C284.302 22.79 287.019 44.256 285.66 50.7773L289.193 58.5213C286.068 105.665 294.491 126.18 294.491 126.18C291.366 154.303 287.97 208.511 289.872 219.108C291.638 229.706 313.376 228.483 314.191 217.614C315.006 206.881 314.598 197.235 314.463 186.502C314.463 175.769 312.832 135.69 311.881 126.316C311.745 125.093 300.741 58.5213 300.741 58.5213C300.741 58.5213 300.877 55.8041 302.371 51.3207C304.545 45.0712 304.001 35.6968 301.692 30.6699C299.654 26.3224 294.627 22.79 289.464 22.79Z" fill="#ECAD83"/>
<path d="M287.834 44.2554C287.834 44.2554 288.378 37.4623 284.845 36.783C281.856 36.2396 280.769 36.3755 285.66 50.7767C285.66 50.7767 287.698 50.6408 287.834 44.2554Z" fill="#ECAD83"/>
<path d="M338.525 225.56C339.073 208.93 325.086 204.739 315.898 187.028C314.801 184.865 304.379 178.781 298.894 178.646C292.86 178.511 286.689 179.457 282.026 184.324C278.461 188.11 271.33 199.872 277.227 230.968C278.598 243.001 289.294 292.618 279.832 301.271C279.832 301.271 296.562 313.845 307.533 316.549C318.503 319.253 328.514 325.066 328.514 325.066C340.033 298.432 329.885 254.222 332.354 237.593C332.491 237.728 338.387 230.292 338.525 225.56Z" fill="#FF8AA0"/>
<path d="M310.487 180.422C310.487 180.422 306.135 168.176 303.414 157.169L285.189 155.931C288.726 166.938 286.141 181.798 286.141 181.798C303.142 180.009 310.215 185.926 314.703 187.714L310.487 180.422Z" fill="#ECAD83"/>
<path d="M291.015 114.331C286.278 107.22 278.564 107.891 274.098 108.83C260.023 111.647 256.098 118.758 252.714 128.553C248.113 141.433 280.594 158.204 286.684 159.144C302.654 161.424 315.782 143.043 319.03 134.725C322.549 125.601 318.489 126.809 314.7 125.735C314.564 125.735 314.158 125.064 314.158 125.064C312.94 124.528 311.045 124.125 309.692 122.649C309.692 122.649 308.474 122.515 307.797 122.381C307.391 122.247 307.121 122.113 307.121 121.576C307.121 120.1 307.121 118.624 306.715 117.953C305.632 115.538 293.181 117.685 291.015 114.331Z" fill="#F6BB92"/>
<path d="M309.027 128.689C309.027 128.689 310.162 127.959 312.433 123.433C312.433 122.703 312.054 121.536 309.973 121.974C308.46 122.265 309.973 125.331 309.027 128.689Z" fill="#D6876B"/>
<path d="M309.027 128.688C309.027 128.688 311.924 128.546 314.66 124.845C314.821 124.276 314.499 123.564 314.177 123.421C312.89 122.425 311.763 123.564 311.763 123.564C309.993 127.977 309.027 128.688 309.027 128.688Z" fill="#CC785E"/>
<path d="M249.979 128.946C244.39 144.929 259.93 174.298 294.557 162.141C296.874 161.321 300.146 158.726 298.237 152.442C296.874 148.071 294.148 144.382 294.148 144.382C293.33 143.289 292.512 142.197 291.557 140.967C290.467 139.601 282.287 137.825 282.56 136.186C285.559 119.657 279.697 110.095 275.471 108.592C264.838 106.817 255.977 111.871 249.979 128.946Z" fill="#602F0F"/>
<path d="M288.774 144.575C296.433 144.701 297.754 142.054 298.81 138.02L287.321 136.634L282.302 137.138C281.246 141.298 281.114 144.449 288.774 144.575Z" fill="#F6BB92"/>
<path d="M265.619 162C261.087 164.576 253.946 160.237 249.689 152.102C245.432 144.103 245.569 135.425 250.101 132.849C254.632 130.273 259.714 134.476 263.971 142.476C268.228 150.611 270.013 159.424 265.619 162Z" fill="#4C230C"/>
<path d="M284.844 134.601C283.485 134.33 282.262 133.922 281.447 133.65C280.089 133.107 279.273 132.563 279.273 132.563V137.726C279.953 137.998 280.632 138.27 281.311 138.405C281.311 138.405 281.311 137.862 281.311 136.911V137.047C282.534 136.775 284.436 136.503 287.017 136.639C287.153 136.775 289.055 135.417 284.844 134.601Z" fill="#602F0F"/>
<path d="M264.059 164.354C259.304 167.072 251.696 162.181 247.077 153.35C242.457 144.519 242.457 135.144 247.212 132.427C251.968 129.71 257.402 134.329 262.021 143.16C266.776 152.127 268.814 161.637 264.059 164.354Z" fill="#602F0F"/>
<path d="M250.987 157.04C250.424 157.322 248.875 155.347 247.326 152.525C245.917 149.703 245.072 147.163 245.635 146.881C246.199 146.599 247.466 148.292 248.875 151.114C250.424 153.936 251.551 156.617 250.987 157.04Z" fill="#4C230C"/>
<path d="M281.992 15.9951C276.829 15.9951 279.546 37.4611 278.188 43.9824L281.72 51.7264C278.595 98.87 287.018 119.385 287.018 119.385C283.894 147.508 280.497 201.716 282.399 212.314C284.165 222.911 305.903 221.688 306.718 210.819C307.533 200.086 307.126 190.44 306.99 179.707C306.99 168.974 305.36 128.895 304.409 119.521C304.273 118.298 293.268 51.7264 293.268 51.7264C293.268 51.7264 293.404 49.0092 294.898 44.5258C297.072 38.2762 296.529 28.9019 294.219 23.875C292.181 19.5275 287.154 15.9951 281.992 15.9951Z" fill="#F6BB92"/>
<path d="M280.361 37.4604C280.361 37.4604 280.905 30.6674 277.372 29.9881C274.384 29.4447 273.297 29.5805 278.188 43.9818C278.188 43.9818 280.226 43.8459 280.361 37.4604Z" fill="#F6BB92"/>
</svg>
