<svg width="501" height="501" viewBox="0 0 501 501" fill="none" xmlns="http://www.w3.org/2000/svg">
<path d="M266.76 338.901C264.943 338.345 263.915 339.774 262.702 340.593C246.922 351.27 231.038 361.805 215.429 372.737C196.37 386.084 174.637 393.562 153.256 401.877C141.922 406.287 130.641 410.824 119.335 415.301C111.857 410.77 105.282 404.992 98.1191 400.026C103.926 393.155 111.124 387.669 117.166 381.055C132.174 364.625 151.17 355.769 172.567 351.401C175.729 350.756 178.145 349.34 180.463 347.118C196.878 331.382 212.346 314.64 229.958 300.175C237.559 293.933 245.706 288.45 254.282 283.621C269.474 291.225 284.663 298.829 299.856 306.433C312.061 309.078 324.478 310.437 336.781 312.481C344.941 313.837 353.161 314.869 361.295 316.358C376.278 319.101 385.492 328.703 387.146 343.835C389.677 366.99 391.814 390.187 394.109 413.367C394.179 414.063 394.128 414.767 394.131 415.469C383.803 415.517 373.475 415.568 363.146 415.615C356.803 399.162 349.659 382.906 351.189 364.599C351.494 360.964 351.872 357.354 352.745 353.81C353.294 351.585 353.228 350.381 350.227 350.169C333.597 348.994 316.985 347.565 300.367 346.19C296.462 345.867 292.55 345.533 288.772 344.384C289.162 340.209 290.334 336.199 291.258 332.135C291.49 331.119 291.842 329.734 290.82 329.004C289.928 328.363 288.997 329.318 288.14 329.706C284.197 331.484 280.291 333.351 276.326 335.075C273.176 336.443 269.56 336.65 266.753 338.897L266.76 338.901Z" fill="#6A6C65"/>
<path d="M227.286 150.75C231.947 142.911 235.23 134.408 238.589 125.994C239.891 122.734 237.868 118.895 237.221 115.358C234.201 98.8702 231.042 82.4078 227.823 65.9549C227.531 64.4594 227.575 63.2466 228.28 61.9575C231.442 56.1822 234.649 50.4291 237.697 44.5934C238.691 42.6948 239.961 42.2757 241.793 42.9932C242.834 43.4028 243.796 44.1394 244.866 44.3394C251.937 45.6634 254.81 50.0671 254.077 56.9601C252.2 74.5814 258.827 90.5961 263.834 106.808C267.247 117.857 267.558 128.766 265.977 139.974C263.964 154.22 261.986 168.469 259.995 182.719C256.172 181.204 254.178 177.017 250.061 175.937C249.956 175.572 249.851 175.207 249.749 174.842C249.641 174.912 249.537 174.978 249.429 175.048C249.638 175.347 249.848 175.645 250.057 175.94C252.153 182.198 254.899 188.145 258.522 193.673C256.239 207.081 249.632 217.984 239.342 226.75C234.836 218.215 232.099 208.944 228.251 200.134C227.753 198.994 227.578 197.695 226.448 196.918C223.895 187.294 222.057 177.585 223.063 167.549C224.47 161.948 225.876 156.344 227.283 150.743L227.286 150.75Z" fill="#F5BB92"/>
<path d="M239.342 226.753C249.629 217.987 256.239 207.084 258.522 193.676C259.919 190.45 259.621 186.942 260.224 183.583C269.241 187.427 278.334 191.107 287.259 195.159C299.572 200.75 303.185 214.434 295.33 225.381C294.142 227.039 293.838 228.531 294.088 230.43C294.619 234.456 295 238.501 295.444 242.539C279.477 244.974 263.51 247.41 247.543 249.845C244.073 242.409 241.463 234.668 239.342 226.753Z" fill="#8A8AD9"/>
<path d="M247.543 249.848C263.51 247.412 279.477 244.977 295.444 242.542C295.492 249.263 295.555 255.985 295.587 262.706C295.654 275.873 297.4 288.875 299.438 301.848C299.677 303.362 299.721 304.905 299.858 306.436C284.665 298.832 269.476 291.228 254.284 283.623C254.36 273.467 252.286 263.716 248.765 254.232C248.238 252.813 247.943 251.311 247.543 249.848Z" fill="#F4BA92"/>
<path d="M223.066 167.555C222.056 177.591 223.897 187.297 226.45 196.924C218.29 203.442 209.502 203.626 200.285 199.527C195.878 196.137 192.227 192.139 190.198 186.853C186.448 171.584 191.36 159.348 203.628 153.582C207.19 151.909 210.915 150.778 214.944 151.337C214.709 155.979 216.255 160.351 216.973 164.847C217.239 166.514 218.3 166.777 219.7 166.59C220.821 166.911 221.945 167.234 223.066 167.555Z" fill="#7B4A24"/>
<path d="M98.1201 400.029C105.283 404.995 111.858 410.777 119.335 415.304C122.911 417.479 126.543 419.565 130.045 421.851C134.433 424.712 136.004 429.49 134.287 434.326C133.42 436.767 131.975 438.237 129.016 438.126C123.701 437.923 118.132 439.069 113.097 437.86C102.965 435.424 93.872 430.405 87.7505 421.619C85.2169 417.984 85.9503 413.425 88.3982 409.672C90.9192 405.801 94.1482 402.506 98.1201 400.029Z" fill="#F5BB93"/>
<path d="M363.151 415.622C373.479 415.574 383.807 415.523 394.136 415.476C398.993 417.955 403.851 420.438 408.709 422.915C413.271 425.242 415.183 428.388 414.297 432.116C413.405 435.869 410.15 438.05 405.308 438.063C397.466 438.085 389.621 438.091 381.778 438.063C373.279 438.031 367.383 433.586 365.199 425.423C364.338 422.203 363.821 418.892 363.147 415.622H363.151Z" fill="#F2BA94"/>
<path d="M199.114 204.773C197.809 210.789 197.834 217.009 196.196 222.988C193.434 233.059 188.458 241.768 179.965 249.855C179.965 245.232 179.978 241.558 179.965 237.882C179.927 228.95 178.184 220.47 174.247 212.339C169.497 202.528 173.917 193.505 185.087 189.244C186.811 197.089 191.398 202.347 199.117 204.773H199.114Z" fill="#7B4B24"/>
<path d="M266.761 338.901C269.564 336.653 273.184 336.447 276.333 335.078C280.299 333.354 284.204 331.488 288.148 329.71C289.008 329.322 289.938 328.37 290.827 329.008C291.846 329.741 291.494 331.122 291.265 332.138C290.342 336.202 289.17 340.216 288.779 344.388C281.134 343.788 274.044 340.959 266.764 338.895L266.761 338.901Z" fill="#5B5B5A"/>
<path d="M199.114 204.773C191.393 202.347 186.808 197.089 185.084 189.244C186.789 188.447 188.494 187.647 190.199 186.85C192.228 192.136 195.876 196.13 200.286 199.524C199.895 201.274 199.505 203.023 199.114 204.769V204.773Z" fill="#5C381A"/>
<path d="M219.701 166.59C218.301 166.781 217.24 166.517 216.973 164.847C216.253 160.351 214.706 155.979 214.945 151.337L215.059 151.455C216.462 151.468 217.881 151.626 219.263 151.464C222.406 151.099 223.146 152.115 222.123 155.176C220.895 158.859 219.631 162.599 219.701 166.587V166.59Z" fill="#F2B88F"/>
<path d="M260.223 183.582C259.62 186.942 259.918 190.45 258.521 193.676C254.899 188.148 252.155 182.201 250.057 175.943H250.06C254.178 177.02 256.172 181.211 259.994 182.722C260.071 183.008 260.147 183.297 260.223 183.582Z" fill="#D7A685"/>
<path d="M219.7 166.59C219.627 162.602 220.894 158.862 222.123 155.179C223.145 152.118 222.402 151.102 219.262 151.468C217.881 151.629 216.462 151.468 215.059 151.458C219.053 149.788 223.212 150.988 227.289 150.75C225.882 156.351 224.476 161.955 223.069 167.555C221.948 167.235 220.824 166.911 219.704 166.59H219.7Z" fill="#DAA782"/>
<path d="M250.057 175.943C249.848 175.645 249.638 175.346 249.429 175.051C249.537 174.981 249.641 174.915 249.749 174.845C249.854 175.21 249.959 175.575 250.061 175.94L250.057 175.943Z" fill="#D7A685"/>
</svg>
