<svg width="500" height="500" viewBox="0 0 500 500" fill="none" xmlns="http://www.w3.org/2000/svg">
<path d="M398.476 397.973C394.345 397.771 378.021 398.074 376.509 398.275C372.882 398.779 369.053 397.368 369.154 393.942C369.254 391.322 370.06 388.803 369.657 387.191C367.441 379.029 361.193 353.737 358.573 343.862C357.767 340.536 378.323 333.886 378.726 337.513C380.238 352.024 379.835 382.757 379.734 387.997C379.734 387.997 401.298 388.904 401.499 392.733C401.701 394.95 402.608 398.275 398.476 397.973Z" fill="#ECAD83"/>
<path d="M356.86 320.585C356.356 326.429 354.845 331.367 358.674 343.861C361.798 342.35 371.068 338.521 378.827 337.513C378.122 331.669 379.029 304.26 371.471 296.401C363.511 288.138 290.355 307.384 288.642 304.764C288.642 304.764 251.963 329.553 267.179 339.831C285.921 352.225 356.86 320.585 356.86 320.585Z" fill="#333333"/>
<path d="M96.7835 395.957C96.3804 391.826 90.7375 378.424 90.3345 376.913C89.3268 373.386 89.9314 369.456 93.4582 368.952C96.0781 368.65 98.698 369.053 100.21 368.348C107.868 364.821 131.749 357.163 141.02 353.031C143.136 352.124 145.353 351.217 147.67 350.31C157.041 346.784 158.351 368.045 154.825 368.952C140.818 372.781 106.255 377.618 101.016 378.424C101.016 378.424 106.255 397.167 102.527 398.073C100.31 398.577 97.1865 400.089 96.7835 395.957Z" fill="#F6BB92"/>
<path d="M179.109 341.342C167.723 343.76 157.042 346.783 147.67 350.31C149.887 353.031 154.724 365.828 154.825 368.952C158.352 368.045 185.861 362.201 185.861 362.201C194.527 360.387 246.119 350.109 260.629 342.652C264.458 340.838 297.408 331.165 303.857 316.453C306.276 310.911 276.147 297.207 267.985 298.617C264.055 298.617 257.404 299.222 253.273 301.439C247.026 304.663 242.995 311.717 242.995 311.717C224.353 321.693 206.518 331.971 201.58 334.49C194.325 338.218 179.109 341.342 179.109 341.342Z" fill="#3D3C3C"/>
<path d="M275.24 91.8462C271.411 91.8462 273.426 107.767 272.418 112.604L275.038 118.348C272.721 153.313 278.968 168.529 278.968 168.529C276.651 189.387 274.131 229.593 275.542 237.453C276.852 245.313 292.975 244.406 293.579 236.344C294.184 228.384 293.882 221.229 293.781 213.269C293.781 205.308 292.572 175.583 291.866 168.63C291.765 167.723 283.603 118.348 283.603 118.348C283.603 118.348 283.704 116.332 284.813 113.007C286.425 108.372 286.022 101.419 284.309 97.6906C282.797 94.4661 279.069 91.8462 275.24 91.8462Z" fill="#ECAD83"/>
<path d="M274.031 107.767C274.031 107.767 274.434 102.729 271.814 102.225C269.597 101.822 268.791 101.923 272.418 112.604C272.418 112.604 273.93 112.503 274.031 107.767Z" fill="#ECAD83"/>
<path d="M311.314 242.289C311.717 229.895 301.439 226.771 294.688 213.571C293.882 211.959 286.223 207.424 282.193 207.323C277.759 207.223 273.225 207.928 269.798 211.556C267.179 214.377 261.939 223.144 266.272 246.32C267.279 255.288 275.139 292.269 268.186 298.718C268.186 298.718 280.48 308.089 288.541 310.105C296.602 312.12 303.958 316.453 303.958 316.453C312.422 296.602 304.966 263.652 306.78 251.257C306.88 251.358 311.213 245.816 311.314 242.289Z" fill="#FF8AA0"/>
<path d="M291.161 208.432C291.161 208.432 287.936 199.464 285.921 191.403L272.418 190.496C275.038 198.557 273.124 209.44 273.124 209.44C285.72 208.13 290.959 212.463 294.285 213.773L291.161 208.432Z" fill="#ECAD83"/>
<path d="M276.449 159.561C272.922 154.22 267.178 154.724 263.853 155.429C253.374 157.545 250.451 162.886 247.932 170.242C244.506 179.915 268.69 192.511 273.224 193.217C285.115 194.93 294.889 181.125 297.307 174.877C299.927 168.025 296.904 168.932 294.083 168.126C293.982 168.126 293.68 167.622 293.68 167.622C292.773 167.219 291.362 166.917 290.355 165.808C290.355 165.808 289.448 165.707 288.944 165.607C288.642 165.506 288.44 165.405 288.44 165.002C288.44 163.894 288.44 162.785 288.138 162.281C287.332 160.468 278.061 162.08 276.449 159.561Z" fill="#F6BB92"/>
<path d="M290.153 170.242C290.153 170.242 290.758 169.738 291.967 166.614C291.967 166.11 291.765 165.304 290.657 165.607C289.851 165.808 290.657 167.924 290.153 170.242Z" fill="#D6876B"/>
<path d="M290.153 170.242C290.153 170.242 291.967 170.141 293.68 167.521C293.781 167.118 293.579 166.614 293.378 166.513C292.571 165.808 291.866 166.614 291.866 166.614C290.758 169.738 290.153 170.242 290.153 170.242Z" fill="#CC785E"/>
<path d="M246.018 170.343C241.886 182.132 253.374 203.797 278.968 194.829C280.681 194.224 283.1 192.31 281.689 187.674C280.681 184.45 278.666 181.729 278.666 181.729C278.061 180.923 277.457 180.117 276.751 179.21C275.945 178.202 269.899 176.893 270.101 175.683C272.318 163.491 267.985 156.437 264.861 155.329C257.001 154.019 250.451 157.747 246.018 170.343Z" fill="#602F0F"/>
<path d="M274.635 182.435C280.48 182.535 281.487 180.419 282.293 177.195L273.527 176.086L269.698 176.489C268.892 179.815 268.791 182.334 274.635 182.435Z" fill="#F6BB92"/>
<path d="M257.505 195.03C254.18 196.945 248.94 193.72 245.816 187.674C242.692 181.729 242.793 175.28 246.119 173.366C249.444 171.451 253.172 174.575 256.296 180.52C259.42 186.566 260.73 193.116 257.505 195.03Z" fill="#4C230C"/>
<path d="M271.814 174.776C270.806 174.575 269.899 174.272 269.295 174.071C268.287 173.668 267.682 173.265 267.682 173.265V177.094C268.186 177.295 268.69 177.497 269.194 177.598C269.194 177.598 269.194 177.195 269.194 176.489V176.59C270.101 176.388 271.511 176.187 273.426 176.288C273.527 176.388 274.938 175.381 271.814 174.776Z" fill="#602F0F"/>
<path d="M256.397 196.844C252.87 198.859 247.227 195.232 243.801 188.682C240.375 182.132 240.375 175.179 243.902 173.164C247.429 171.149 251.459 174.575 254.885 181.124C258.412 187.775 259.924 194.829 256.397 196.844Z" fill="#602F0F"/>
<path d="M246.622 191.302C246.219 191.503 245.111 190.093 244.002 188.077C242.995 186.062 242.39 184.248 242.793 184.047C243.196 183.845 244.103 185.054 245.111 187.07C246.219 189.085 247.025 191 246.622 191.302Z" fill="#4C230C"/>
<path d="M269.698 86.8076C265.869 86.8076 267.884 102.729 266.876 107.565L269.496 113.309C267.179 148.275 273.426 163.49 273.426 163.49C271.108 184.349 268.589 224.554 270 232.414C271.31 240.274 287.432 239.367 288.037 231.306C288.642 223.345 288.339 216.191 288.239 208.23C288.239 200.27 287.029 170.544 286.324 163.591C286.223 162.684 278.061 113.309 278.061 113.309C278.061 113.309 278.162 111.294 279.27 107.968C280.883 103.333 280.48 96.3804 278.767 92.652C277.255 89.4275 273.527 86.8076 269.698 86.8076Z" fill="#F6BB92"/>
<path d="M268.488 102.728C268.488 102.728 268.892 97.6902 266.272 97.1863C264.055 96.7833 263.249 96.8841 266.876 107.565C266.876 107.565 268.388 107.464 268.488 102.728Z" fill="#F6BB92"/>
</svg>
