<svg width="500" height="500" viewBox="0 0 500 500" fill="none" xmlns="http://www.w3.org/2000/svg">
<path d="M266.419 338.564C264.603 338.008 263.574 339.437 262.362 340.256C246.582 350.934 230.697 361.468 215.089 372.4C196.029 385.747 174.296 393.225 152.916 401.54C141.581 405.95 130.3 410.487 118.994 414.964C111.517 410.433 104.942 404.655 97.7788 399.689C103.586 392.818 110.784 387.332 116.826 380.718C131.834 364.288 150.83 355.433 172.226 351.064C175.389 350.419 177.805 349.003 180.123 346.781C196.537 331.045 212.006 314.304 229.618 299.838C237.219 293.596 245.366 288.113 253.942 283.284C269.134 290.888 284.323 298.492 299.516 306.096C311.72 308.741 324.138 310.1 336.441 312.144C344.601 313.5 352.821 314.532 360.955 316.021C375.938 318.764 385.152 328.366 386.806 343.498C389.336 366.653 391.473 389.85 393.769 413.03C393.839 413.726 393.788 414.43 393.791 415.132C383.463 415.18 373.134 415.231 362.806 415.278C356.462 398.825 349.319 382.569 350.849 364.262C351.154 360.627 351.532 357.017 352.405 353.474C352.954 351.248 352.887 350.045 349.887 349.832C333.256 348.657 316.645 347.228 300.027 345.854C296.121 345.53 292.21 345.196 288.432 344.047C288.822 339.872 289.994 335.862 290.918 331.798C291.149 330.782 291.502 329.397 290.479 328.667C289.587 328.026 288.657 328.982 287.8 329.369C283.856 331.147 279.951 333.014 275.986 334.738C272.836 336.106 269.22 336.313 266.413 338.561L266.419 338.564Z" fill="#6A6C65"/>
<path d="M226.945 150.412C231.606 142.573 234.889 134.071 238.248 125.657C239.55 122.396 237.527 118.558 236.879 115.021C233.86 98.5328 230.701 82.0704 227.481 65.6175C227.189 64.122 227.234 62.9092 227.939 61.6201C231.101 55.8448 234.308 50.0917 237.356 44.256C238.349 42.3574 239.619 41.9383 241.451 42.6558C242.493 43.0654 243.455 43.802 244.525 44.002C251.596 45.326 254.469 49.7297 253.736 56.6227C251.859 74.244 258.485 90.2587 263.492 106.47C266.905 117.519 267.217 128.429 265.635 139.636C263.623 153.883 261.645 168.132 259.654 182.382C255.831 180.867 253.837 176.679 249.719 175.6C249.614 175.235 249.51 174.869 249.408 174.504C249.3 174.574 249.195 174.641 249.087 174.711C249.297 175.009 249.506 175.308 249.716 175.603C251.812 181.861 254.558 187.808 258.181 193.335C255.898 206.743 249.291 217.646 239 226.412C234.495 217.878 231.758 208.607 227.91 199.796C227.412 198.657 227.237 197.358 226.107 196.58C223.554 186.957 221.716 177.248 222.722 167.211C224.129 161.611 225.535 156.007 226.942 150.406L226.945 150.412Z" fill="#F5BB92"/>
<path d="M239 226.415C249.288 217.649 255.898 206.746 258.181 193.338C259.578 190.112 259.279 186.604 259.882 183.245C268.9 187.09 277.993 190.769 286.918 194.821C299.23 200.412 302.844 214.096 294.989 225.044C293.801 226.701 293.496 228.193 293.747 230.092C294.277 234.118 294.658 238.163 295.103 242.201C279.136 244.637 263.169 247.072 247.202 249.507C243.731 242.071 241.121 234.33 239 226.415Z" fill="#8A8AD9"/>
<path d="M247.202 249.511C263.169 247.076 279.136 244.64 295.103 242.205C295.151 248.927 295.214 255.648 295.246 262.37C295.313 275.536 297.059 288.538 299.097 301.511C299.335 303.025 299.38 304.569 299.516 306.099C284.324 298.495 269.135 290.891 253.942 283.286C254.018 273.13 251.945 263.379 248.424 253.895C247.897 252.476 247.602 250.974 247.202 249.511Z" fill="#F4BA92"/>
<path d="M222.725 167.218C221.715 177.254 223.557 186.96 226.109 196.587C217.949 203.105 209.161 203.289 199.944 199.19C195.537 195.799 191.886 191.802 189.857 186.515C186.107 171.247 191.019 159.01 203.287 153.245C206.85 151.571 210.574 150.441 214.603 151C214.368 155.642 215.914 160.014 216.632 164.509C216.899 166.176 217.959 166.44 219.359 166.253C220.48 166.573 221.604 166.897 222.725 167.218Z" fill="#7B4A24"/>
<path d="M97.7793 399.691C104.942 404.657 111.518 410.439 118.995 414.966C122.57 417.141 126.202 419.227 129.704 421.513C134.092 424.374 135.663 429.152 133.946 433.988C133.079 436.429 131.634 437.899 128.675 437.788C123.36 437.585 117.791 438.731 112.756 437.522C102.624 435.086 93.5311 430.067 87.4097 421.281C84.8761 417.646 85.6095 413.087 88.0574 409.334C90.5784 405.464 93.8074 402.168 97.7793 399.691Z" fill="#F5BB93"/>
<path d="M362.81 415.284C373.138 415.237 383.466 415.186 393.795 415.138C398.652 417.618 403.51 420.101 408.368 422.577C412.93 424.905 414.842 428.051 413.956 431.778C413.064 435.531 409.809 437.712 404.968 437.725C397.125 437.747 389.28 437.754 381.438 437.725C372.938 437.693 367.042 433.248 364.858 425.085C363.997 421.866 363.48 418.554 362.807 415.284H362.81Z" fill="#F2BA94"/>
<path d="M198.773 204.435C197.468 210.451 197.493 216.671 195.855 222.65C193.093 232.721 188.118 241.43 179.624 249.517C179.624 244.894 179.637 241.22 179.624 237.544C179.586 228.612 177.843 220.132 173.906 212.001C169.156 202.19 173.576 193.167 184.746 188.906C186.47 196.751 191.058 202.009 198.776 204.435H198.773Z" fill="#7B4B24"/>
<path d="M266.42 338.564C269.223 336.316 272.843 336.11 275.993 334.741C279.958 333.017 283.863 331.15 287.807 329.372C288.667 328.985 289.597 328.032 290.486 328.67C291.506 329.404 291.153 330.785 290.925 331.801C290.001 335.865 288.829 339.878 288.439 344.05C280.793 343.45 273.703 340.621 266.423 338.557L266.42 338.564Z" fill="#5B5B5A"/>
<path d="M198.774 204.436C191.052 202.01 186.467 196.752 184.743 188.907C186.448 188.11 188.153 187.31 189.858 186.513C191.887 191.799 195.535 195.793 199.945 199.187C199.555 200.937 199.164 202.686 198.774 204.432V204.436Z" fill="#5C381A"/>
<path d="M219.36 166.252C217.96 166.443 216.899 166.179 216.633 164.509C215.912 160.013 214.366 155.641 214.604 151L214.718 151.117C216.121 151.13 217.541 151.288 218.922 151.127C222.065 150.761 222.805 151.777 221.782 154.838C220.554 158.521 219.29 162.261 219.36 166.249V166.252Z" fill="#F2B88F"/>
<path d="M259.883 183.245C259.279 186.604 259.578 190.113 258.181 193.338C254.558 187.811 251.815 181.864 249.716 175.606H249.719C253.837 176.682 255.831 180.873 259.654 182.385C259.73 182.67 259.806 182.959 259.883 183.245Z" fill="#D7A685"/>
<path d="M219.36 166.252C219.287 162.264 220.554 158.524 221.783 154.841C222.805 151.781 222.062 150.765 218.922 151.13C217.541 151.292 216.122 151.13 214.718 151.12C218.712 149.45 222.872 150.65 226.948 150.412C225.542 156.013 224.135 161.617 222.729 167.217C221.608 166.897 220.484 166.573 219.363 166.252H219.36Z" fill="#DAA782"/>
<path d="M249.717 175.606C249.507 175.307 249.297 175.009 249.088 174.714C249.196 174.644 249.301 174.577 249.409 174.507C249.513 174.872 249.618 175.238 249.72 175.603L249.717 175.606Z" fill="#D7A685"/>
</svg>
