<?xml version="1.0" encoding="UTF-8"?>
<svg xmlns="http://www.w3.org/2000/svg" version="1.1" viewBox="0 0 1417.3 1417.3">
  <defs>
    <style>
      .cls-1 {
        fill: #ffb78b;
      }

      .cls-2 {
        fill: #5d3718;
      }

      .cls-3 {
        fill: #e6a37b;
      }

      .cls-4 {
        fill: #fdb589;
      }

      .cls-5 {
        fill: #6b6d65;
      }

      .cls-6 {
        fill: #7b4923;
      }

      .cls-7 {
        fill: #824414;
      }

      .cls-8 {
        fill: #8989de;
      }

      .cls-9 {
        fill: #ffb68a;
      }
    </style>
  </defs>
  <!-- Generator: Adobe Illustrator 28.7.1, SVG Export Plug-In . SVG Version: 1.2.0 Build 142)  -->
  <g>
    <g id="_레이어_1" data-name="레이어_1">
      <g>
        <path class="cls-5" d="M1114.9,662.4c2.9,1.2,5.2,3.2,7.5,5.2,9.6,8,17.3,17.7,24.5,27.8,4.4,6.1,7.6,12.8,10.6,19.7,5.1,11.8,7.6,24.2,9.4,36.9,2.3,16,2.5,32.2,1.8,48.3-1.2,29.4-9.2,56.8-25.5,81.6-10.8,16.4-24.3,30-40.9,40.5-2.2,1.4-3.9,3.1-5.3,5.3-15.4,24.2-33.5,46.1-54.2,65.9-19.7,18.9-41,35.5-64.9,48.8-15.6,8.7-31.9,15.8-49.4,19.9-8,1.9-16,3-24.2,3.1-7.8.1-15.6-.7-23.1-3.1-18.7-5.9-30.9-18.3-37-36.9-1.9-5.8-2.9-11.8-3.3-18-1-16.7,1.7-32.8,6.7-48.6,6.2-19.7,15.3-38.1,26-55.6.9-1.4,1.7-2.9,2.5-4.4,3.6-5.1,7.1-10.3,10.8-15.4,15.4-21.2,32.6-40.7,52.3-58.1.6-.6,1.3-1.1,1.8-1.8,1.3-1.4,1.4-2.4.2-4.1-1.4-1.9-3-3.7-5-5-5.9-3.9-12.3-6.4-19.5-6.5-12.6-.2-25,1-37.6,1.8-8,.5-15.8,1.8-23.7,2.7-9.2,1.2-18.3,3.3-27.4,5.4-14.6,3.4-25.7,11.9-34.4,23.7-4.6,6.2-7.9,13.1-9.6,20.6-.4,1.7-1.5,2.1-2.8,2.5-9.3-1-18.6-1.9-27.8-3.5-2.2-.4-4.2-.1-6.3,1.2-12.1,7.7-25.4,12.9-39.2,16.6-9.7,2.6-19.1,5.9-28.9,7.9-13,2.6-25.8,5.7-38.8,8.1-10.8,2-21.8,3.1-32.8,3.9-19.5,1.3-39,1.2-58.5.8-12.7-.3-25.4-1.2-38.1-2.6-9.6-1-19.3-1.6-28.9-2.3-12.9-1-25.7-1.9-38.6-2.8-6.8-.5-13.5-.9-20.3-1.4-9.5-.7-18.9-1.6-28.4-2.4-6.4-.5-12.8-1.1-19.3-1.7-4.4-.4-8.8-1.1-12.9-2.7,3.3-7.6,3.7-15.8,4.8-23.8,3.5-2,4.3-5.3,4.3-9,5-.4,10.1-.6,15.2-.9,7.8-.5,15.5-.1,23.3-1.2,5.4-.7,10.8-.6,16.2-1.4,4-.6,8.1-.6,12.1-1,5.5-.6,11.1-1.2,16.6-1.7,6.6-.6,13.1-1.3,19.7-1.8,4.4-.4,8.7-.6,13.1-.9,2.7.9,5.3,2,8.1,2.8,8.4,2.5,16.9,3.9,25.7,4,2.6,0,4.9-1,7.5-1,3.9,0,7.6-1.2,11.2-2.6,1.6-.4,3.3-.8,4.9-1.2,3.5-.9,6.7-2.4,9.9-4,7.6-3.8,15.6-5.1,24.1-3.7,6.8,1.1,13.1,3.3,19.4,6,5.6,2.4,11.2,4.7,17.2,6.1,2.2.5,4.4.6,6.6.5,3.5-.2,5.7-2.2,6.7-5.3.8-2.2,1.2-4.6,1.1-7,0-2.7.1-5.4,0-8.1,0-3.2,1.1-6,3-8.5,1.8-2.3,3.8-4.4,6.4-5.8,4.3-2.3,8.4-5,13.1-6.7,6.7-2.5,12-6.8,15.5-13.3,1.7-3.2,2.9-6.4,3.1-10.1.3-6.8-.2-13.5-2.3-20.1,2.7.8,4.7,2.6,6.7,4.4,1.7,1.6,3.4,3.3,5.1,5,5.7,5.3,12,9.9,17.7,15.1,6.9,6.4,15.6,10.2,23.8,14.5,11.2,5.9,23.4,8.6,36.1,9.1,4.4.2,8.8,0,13.2.1,6,.2,11.8-.7,17.5-2.3,2-.6,3.9-1.3,5.8-1.8,11.5-3.2,22.4-7.7,32.3-14.5,3.1-2.1,6.2-3.1,9.9-2.9,18.1.6,36.2-.2,54.4.9,12.8.7,25.8.3,38.6.4,1.4,0,2.8,0,4,.2,2.8.7,5.7.6,8.6.6,1.2.6,2.5,1,3.9,1.2,6.2.9,12.4,1.8,18.6,2.8,2.9.5,5.2-.2,7.2-2.5,8.9-9.6,19.6-17.2,29.6-25.6,3.6-3,7.6-5.7,11.2-8.8,9.2-8,19-15.3,28.6-22.8,4.6-3.5,9.5-6.5,14.1-10,4.5-3.3,9.2-6.4,13.9-9.4,3-1.9,6.5-3.2,9-5.6,2.6-2.5,4.3-6,6.3-9.2,8.8-13.5,17.6-27,26.4-40.4.5-.2.9-.3,1.4-.5.7,0,1.5.2,2.2.3Z"/>
        <path class="cls-8" d="M942.6,792.7c-2.9,0-5.7.1-8.6-.6-1.3-.3-2.7-.2-4-.2-12.9-.1-25.8.3-38.6-.4-18.1-1.1-36.2-.3-54.4-.9-3.7-.1-6.8.8-9.9,2.9-9.8,6.8-20.8,11.3-32.3,14.5-2,.5-3.9,1.3-5.8,1.8-5.7,1.6-11.6,2.5-17.5,2.3-4.4-.1-8.8,0-13.2-.1-12.7-.5-24.9-3.2-36.1-9.1-8.2-4.3-16.9-8.1-23.8-14.5-5.7-5.3-12.1-9.8-17.7-15.1-1.7-1.6-3.4-3.4-5.1-5-2-1.8-4.1-3.6-6.7-4.4-1.2-1.7-3.2-2.4-4.7-3.8-3.2-3-3.2-3.5.5-6,7.9-5.3,15.8-10.5,23.6-15.9,4.2-2.9,8.7-5.2,13.6-6.7,7.2-2.2,13.8-5.8,19.9-10,6.4-4.4,12.4-9.5,17.5-15.4,3.4-4,6.5-8.2,8.8-13,3.4-6.9,5.3-14.3,6-21.9.3-3.5.8-7.1-.5-10.6-2.5-6.7-6.1-12.8-11.1-18-4.8-5.1-10.4-9.2-16-13.3-9.1-6.8-19.8-9.6-30.8-10.7-9.1-.9-17.9.9-26.3,4.3-6.4,2.5-11.8,6.7-16.7,11.4-3.7,3.7-6.9,7.9-10.3,11.9-1.3,1.5-2.6,3.2-4.5,4,.5-4.8,2.5-9.2,4.8-13.3,4.8-8.5,11.1-15.7,18.6-22,11.7-9.8,25.2-16.6,39.3-22,13.8-5.2,28.2-8.7,42.7-11.1,6.4-1.1,12.7-2,19.2-2.2,2.5,0,5.1-.7,7.6-.6,4.1.1,8.1.6,12.2,1,5.1.5,10.1,1.2,15.2,1.6,5.7.5,11.5.8,17.2,1.3,5.7.5,11.5,1.1,17.2,1.6,1.4.1,2.7.2,4.1.3,8.5.5,16.9,1.4,25.2,2.7,11.1,1.8,21.9,4.5,32.9,6.8,15.8,3.3,31.5,6.6,47.3,9.9,7.8,1.7,15.6,3.4,23.3,5.1.8.2,1.5.7,2.3,1-.9,5.7-1.8,11.3-2.6,17-1.1,8.2-2.2,16.4-3.3,24.6-1.2,8.7-2.6,17.4-3.8,26.1-1.2,8.2-2.1,16.4-3.3,24.6-1.4,9.9-3,19.7-4.1,29.6-.4,3.7-.7,7.4-1.2,11.1-.6,3.8-1.1,7.7-1.5,11.6-.5,4.4-.6,8.8-1.3,13.1-.6,3.5-.7,7.1-1.1,10.6-.6,4.7-1.3,9.4-2,14.1Z"/>
        <path class="cls-9" d="M637.8,650.3c2-.8,3.2-2.5,4.5-4,3.5-3.9,6.6-8.2,10.3-11.9,4.8-4.8,10.2-8.9,16.7-11.4,8.5-3.3,17.3-5.2,26.3-4.3,11,1.1,21.7,3.9,30.8,10.7,5.6,4.2,11.2,8.2,16,13.3,5,5.3,8.6,11.3,11.1,18,1.3,3.4.8,7.1.5,10.6-.7,7.6-2.5,15-6,21.9-2.4,4.7-5.4,9-8.8,13-5.1,5.9-11.1,11-17.5,15.4-6.2,4.2-12.8,7.8-19.9,10-4.9,1.5-9.4,3.8-13.6,6.7-7.8,5.4-15.8,10.6-23.6,15.9-3.7,2.5-3.7,3-.5,6,1.5,1.4,3.5,2.1,4.7,3.8,2.1,6.5,2.5,13.3,2.3,20.1-.1,3.7-1.4,6.9-3.1,10.1-3.5,6.5-8.8,10.7-15.5,13.3-4.6,1.8-8.7,4.5-13.1,6.7-2.6,1.4-4.6,3.4-6.4,5.8-1.9,2.5-3,5.2-3,8.5,0,2.7-.1,5.4,0,8.1,0,2.4-.3,4.8-1.1,7-1.1,3.1-3.3,5.1-6.7,5.3-2.2.1-4.4,0-6.6-.5-6-1.4-11.6-3.8-17.2-6.1-6.3-2.6-12.6-4.9-19.4-6-8.5-1.4-16.5-.1-24.1,3.7-3.2,1.6-6.4,3.1-9.9,4-1.6.4-3.3.8-4.9,1.2.1-2.9.2-5.8.8-8.6.4-1.6-.3-2.2-2-1.6-3.7,1.2-7.5,2.1-11.4,2.5-4.2.4-8.5.4-12.6,1.2-2.7.5-5.4.8-8,1.2-6.4,1-12.9.8-19.2,2.2-4.4.3-8.8.5-13.1.9-6.6.6-13.1,1.2-19.7,1.8-5.5.5-11.1,1.1-16.6,1.7-4,.4-8.1.5-12.1,1-5.3.7-10.8.7-16.2,1.4-7.8,1-15.5.7-23.3,1.2-5,.3-10.1.5-15.2.9-.7-.5-1.5-.9-2-1.5-1.7-1.9-3.8-2-6-1.3-1.1.4-2.3.7-3.4,1.1-1.3.5-2.7.6-4,.4-2.8-.4-5.6-.9-8.4-1.5-8.9-2.1-17.2-5.7-25.1-10.4-7.6-4.6-14.4-9.9-19.8-16.9-2.2-2.9-5.2-3.3-8.5-1.5-.7.4-1.5.7-2.3,1-.2-1.9-1.4-3-2.6-4.2-4.6-4.5-9-9.1-14-13.2-2.6-2.1-4.5-5-6.6-7.6-.7-.8-1.1-1.7-1.9-2.4-5-4.8-9-10.6-13.4-15.9-2.8-3.4-5.2-7.1-7.4-10.9-3.4-5.8-2.9-12.5,2.2-17.7,4.1-4.3,8.3-8.4,12.6-12.5,4-3.8,8.6-4.8,14-3.6,4.1.9,7.5,3,11,5.1-1.2,2.8-3.2,5.2-5.4,7.3-5,4.9-9,10.5-13.1,16.1-2.3,3.1-2.5,6.1-.6,9.4,3.4,6.1,6.5,12.3,9.8,18.4,3.2,5.9,7.6,10.8,12.6,15.2,2.5,2.2,6.8,1.7,8.9-.9,3.7-4.4,7.2-9,11.4-12.9,3.6-3.4,7.6-6.1,12.4-7.7,2.7-.9,5.6-1.4,8-3.2.6-.5,1.3-.2,1.9,0,.9.4,1.9.9,2.7,1.4,6.1,3.6,12.3,7.2,18.4,10.8,1.6.9,3.2,1.9,4.8,2.8,1.4.8,2.9.8,4.4.7,2.2-.2,3.7-1.6,4.1-3.8.2-1.2.2-2.4.2-3.6,7.3.2,14.5.6,21.8-.5,2.7-.4,5.4-.1,8.1-.3,9.3-.5,18.6-.8,27.8-1.8,3.5-.4,7.1-.2,10.7-.3,7-.9,14.1-1,21.2-.9,1.2,0,2.4,0,3.5-.3,8.1-2,16.4-1.9,24.6-2.6,8.9-.8,17.8-1.3,26.7-2.5,1,1.9,2.3,3.3,4.6,3.4,2.5.1,4.8-.1,6.4-2.3.3-.4.7-.7,1.1-1.1,35.1-35.1,70.1-70.1,105.2-105.2.8-.8,1.7-1.7,2.4-2.6,1.7-2.1,1.6-4.7,1.7-7.3,0-1.9-1.1-2.7-2.1-3.8,1.4-1.6,2.9-3.2,4.3-4.8,1.2-1.4,2.3-2.8,3.4-4.2Z"/>
        <path class="cls-7" d="M510.8,778.2c-8.9,1.2-17.8,1.7-26.7,2.5-8.2.7-16.5.6-24.6,2.6-1.1.3-2.3.3-3.5.3-7.1,0-14.2,0-21.2.9-3.1-11.2-4.1-22.6-3.3-34.1.3-4.5,1-9.1,1.6-13.6.5-3.6.5-7.1-1.4-10.3,3.9.6,6.4-1.1,8.2-4.5,2.3-4.3,4.9-8.5,7.4-12.7,3.5-6,7.9-11.4,12.5-16.5,6.3-7,14.4-11.7,22.7-16.1,3.1-1.6,6.5-2.9,9.7-4.4,9.7-4.3,19.7-6.9,30.4-6.9,5.8,0,11.5,0,17.3,0,1.3,0,2.7,0,4,.3,3.5.5,7,1.2,10.5,1.7,4.5.7,9,1.3,13.2,3.3,2.4,1.2,5,1,7.5.5,3.2-.6,5.3-2.9,6.1-6.2,1-4.5-.4-7.9-4.3-10.5-.7-.5-1.5-.8-2.2-1.2-7.6-4.1-16-5.3-24.4-6.4-4.2-.5-8.3-1.2-12.5-1.8-3.5-.5-7.2-.7-10.6,0-2.4.5-4.7.6-7,.7-1.2,0-2.5-.2-3.5.2-3.1,1-6.4,1-9.6.8-3.2-.2-6,.8-8.7,2.3-1,.6-1.8,1.5-3,1.8-4.6,1.2-8.8,3.6-13.2,5.3-4.4,1.7-8.5,4-12.5,6.7-3.6,2.5-7.2,5-10.7,7.7-5.3,4.1-10,8.8-14.2,13.8-5.1,6-9.8,12.5-12.9,20-1.5,3.7-4.1,6.5-7.5,8.7-3.4-5.6-5.1-11.8-5.9-18.2-.9-6.7.2-13.2,2.6-19.4,3.5-9.4,9.2-17.3,16-24.5,5.3-5.6,11.2-10.3,17.6-14.6,8.2-5.6,17.1-9.6,26.4-12.9,5.1-1.9,10.6-2.3,16-2.8,5.7-.6,11.5-.9,17.2-1.2,25.6-1.1,50.8,1.5,75.5,8.1,10,2.7,19.7,6.1,29.1,10.4,1.5.7,3.1,1.4,4.7,1.9,1.3.4,2,1,2.6,2.2,2.2,4.8,2.6,9.4-.7,13.9-.5.7-.9,1.4-1.4,2.1-5.8,5.6-12.7,9.4-20.2,12.2-7.6,2.8-15,6-22.5,9-1.1,1.3-2.1,2.6-3.3,3.8-9.8,9.9-18.4,20.8-27.8,31-3.7,4-6.7,8.6-9.2,13.4-2.3,4.5-2.7,9.4-.7,14.2.2,2-1.3,3-2.4,4.2-7.9,7.9-15.7,15.8-23.8,23.6-2.5,2.4-3.9,5-3.3,8.5Z"/>
        <path class="cls-9" d="M942.6,792.7c.7-4.7,1.3-9.4,2-14.1.5-3.5.5-7.1,1.1-10.6.7-4.3.8-8.7,1.3-13.1.4-3.9,1-7.7,1.5-11.6.5-3.7.8-7.4,1.2-11.1,1.1-9.9,2.6-19.8,4.1-29.6,1.2-8.2,2.2-16.4,3.3-24.6,1.2-8.7,2.6-17.4,3.8-26.1,1.2-8.2,2.2-16.4,3.3-24.6.8-5.7,1.7-11.4,2.6-17,3.5-.3,6.7.7,9.9,1.7,7.6,2.4,15.2,4.5,23,6.3,8.4,1.9,16.6,4.6,24.6,7.7,6.6,2.6,13.3,4.9,19.9,7.5,4.4,1.7,8.8,3.6,13,5.6,9,4.4,18.3,8,27.4,11.9,8.9,3.8,18,7,26.5,11.4-8.8,13.5-17.6,27-26.4,40.4-2,3.1-3.7,6.6-6.3,9.2-2.5,2.4-6,3.7-9,5.6-4.7,3-9.4,6-13.9,9.4-4.6,3.4-9.5,6.4-14.1,10-9.6,7.5-19.4,14.8-28.6,22.8-3.6,3.1-7.6,5.7-11.2,8.8-10,8.4-20.7,16-29.6,25.6-2.1,2.2-4.3,3-7.2,2.5-6.2-1-12.4-1.9-18.6-2.8-1.4-.2-2.6-.6-3.9-1.2Z"/>
        <path class="cls-9" d="M781.2,864.6c1.3-.4,2.4-.8,2.8-2.5,1.7-7.6,5-14.4,9.6-20.6,8.8-11.8,19.8-20.3,34.4-23.7,9.1-2.1,18.2-4.2,27.4-5.4,7.9-1,15.7-2.3,23.7-2.7,12.5-.7,25-1.9,37.6-1.8,7.2,0,13.6,2.5,19.5,6.5,2,1.3,3.6,3.1,5,5,1.2,1.6,1.1,2.6-.2,4.1-.6.6-1.2,1.2-1.8,1.8-19.7,17.4-36.9,36.9-52.3,58.1-3.7,5.1-7.2,10.2-10.8,15.4-5.5-1-11.2-.5-16.7-1.3-7.1-1-14.3,0-21.3-1.6-.2,0-.3,0-.5,0-7.9-.4-15.9-.8-23.8-1.2-5.1-.3-10.1-.6-15.1-1.6-8.1-1.6-12.4-7-14.8-14.5-1.1-3.5-1.1-7-.9-10.6,0-1.6-.4-2.6-1.8-3.3Z"/>
        <path class="cls-3" d="M366.4,787.4c0,1.2,0,2.4-.2,3.6-.3,2.2-1.9,3.6-4.1,3.8-1.5.1-3.1.1-4.4-.7-1.6-.9-3.2-1.9-4.8-2.8-6.1-3.6-12.3-7.2-18.4-10.8-.9-.5-1.8-.9-2.7-1.4-.6-.3-1.3-.5-1.9,0-2.3,1.8-5.2,2.3-8,3.2-4.8,1.6-8.8,4.2-12.4,7.7-4.2,4-7.7,8.6-11.4,12.9-2.2,2.5-6.4,3.1-8.9.9-5-4.4-9.4-9.3-12.6-15.2-3.3-6.1-6.4-12.3-9.8-18.4-1.9-3.4-1.7-6.4.6-9.4,4.1-5.6,8.1-11.2,13.1-16.1,2.2-2.1,4.1-4.5,5.4-7.3.4-.2.9-.4,1.3-.7,2.8-2.6,6.1-3.3,9.7-2.9,4.2.6,8.1,2.1,11.8,4.3,3.7,2.2,6.5,5.4,9.6,8.3,2.4,2.3,4,5,5.2,8,.6,1.6,1.5,3.1,1.9,4.7.6,2.4,2.2,3.6,4.2,4.8,4.4,2.5,8.7,5.2,13.1,7.8,6.1,3.6,12.2,7.2,18.4,10.8.4.2,1,0,1.5.1,0,0,0,0,0,0,.1.6.5,1,1.1,1.1,1.4,1,2.6,2.2,3.1,3.9Z"/>
        <path class="cls-2" d="M424.2,713.3c3.3-2.2,6-5,7.5-8.7,3.1-7.5,7.8-13.9,12.9-20,4.3-5,9-9.7,14.2-13.8,3.5-2.7,7.1-5.2,10.7-7.7,3.9-2.7,8.1-5,12.5-6.7,4.4-1.7,8.5-4.1,13.2-5.3,1.2-.3,2-1.2,3-1.8,2.7-1.6,5.4-2.6,8.7-2.3,3.2.2,6.4.3,9.6-.8,1.1-.4,2.4-.1,3.5-.2,2.4,0,4.7-.2,7-.7,3.5-.7,7.1-.5,10.6,0,4.2.6,8.3,1.2,12.5,1.8,8.4,1.1,16.8,2.2,24.4,6.4.7.4,1.5.7,2.2,1.2,3.9,2.6,5.3,6,4.3,10.5-.7,3.3-2.8,5.5-6.1,6.2-2.4.5-5.1.7-7.5-.5-4.1-2.1-8.7-2.7-13.2-3.3-3.5-.5-7-1.2-10.5-1.7-1.3-.2-2.7-.3-4-.3-5.8,0-11.5,0-17.3,0-10.7,0-20.7,2.6-30.4,6.9-3.2,1.4-6.6,2.7-9.7,4.4-8.3,4.3-16.3,9.1-22.7,16.1-4.7,5.1-9,10.5-12.5,16.5-2.5,4.2-5,8.4-7.4,12.7-1.8,3.4-4.3,5.1-8.2,4.5-4.2-3.4-7.1-7.6-7.4-13.2Z"/>
        <path class="cls-9" d="M367.2,860c-1.2,8-1.5,16.2-4.8,23.8-4.5.9-9,1.3-13.5,1.9-8.8,1.1-17.6.7-26.4.7-14.4,0-24.3-8.7-27.5-21.8-1.4-5.7-2.3-11.6-2.3-17.6,0-4.6-.6-9.1-.8-13.7,0-1.7.1-3.4.2-5.1.9.1,1.7.4,2.2,1.2,3.9,5.9,9.6,9.9,15.2,14,5.4,4.1,11.4,7.3,17.5,10.1,10.1,4.5,20.3,8.3,31.7,7.5,2.9-.2,5.7,0,8.5-1.1Z"/>
        <path class="cls-1" d="M362.3,782.4c-.5,0-1.1.1-1.5-.1-6.1-3.6-12.3-7.2-18.4-10.8-4.4-2.6-8.7-5.3-13.1-7.8-2-1.1-3.6-2.3-4.2-4.8-.4-1.6-1.3-3.1-1.9-4.7-1.2-3-2.7-5.8-5.2-8-3.1-2.9-5.9-6-9.6-8.3-3.7-2.2-7.5-3.7-11.8-4.3,1.8-5.4,4.4-10.2,8.6-14.1,2.5-2.3,5.2-4.3,8.2-5.9,1.5-.8,3.1-1.4,4.5-2.3,4.7-2.7,9.8-3.4,15.2-3.2,4.4,0,7.4,2.1,9.8,5.4,1.6,2.2,2.5,4.8,2.7,7.6.4,6-.2,11.8-2.1,17.5-3.1,9.5-2.7,6.5,1.8,14.4,5.2,9.1,10.8,18,16.2,27,.4.7.5,1.6.7,2.4Z"/>
        <path class="cls-3" d="M510.8,778.2c-.6-3.5.8-6.1,3.3-8.5,8-7.8,15.9-15.7,23.8-23.6,1.2-1.2,2.7-2.2,2.4-4.2,1.7,0,2.8-1.1,3.8-2.2,12.9-13.5,26.7-26,40-39.1,2.9-2.9,5.7-5.8,8.7-8.6,6-5.5,10.6-12.3,16.7-17.8.8-.7,1.2-1.6,1.3-2.7,4.9-2.8,8.9-6.5,12.7-10.6.3-.3.4-.9.6-1.4,2,0,4.1-.2,6.1-.2,1,1.1,2.2,2,2.1,3.8-.1,2.6,0,5.1-1.7,7.3-.8.9-1.6,1.8-2.4,2.6-35,35.1-70.1,70.1-105.2,105.2-.4.4-.8.7-1.1,1.1-1.6,2.2-3.9,2.4-6.4,2.3-2.4,0-3.7-1.4-4.6-3.4Z"/>
        <path class="cls-3" d="M367.2,860c-2.7,1-5.6.9-8.5,1.1-11.4.9-21.6-2.9-31.7-7.5-6.2-2.8-12.1-6-17.5-10.1-5.5-4.1-11.3-8.1-15.2-14-.5-.7-1.3-1-2.2-1.2-.5-2.7-.4-5.4-.2-8,.8-.3,1.6-.6,2.3-1,3.3-1.8,6.3-1.3,8.5,1.5,5.4,7.1,12.2,12.4,19.8,16.9,7.9,4.7,16.2,8.3,25.1,10.4,2.8.7,5.6,1.1,8.4,1.5,1.3.2,2.7,0,4-.4,1.1-.4,2.2-.8,3.4-1.1,2.3-.7,4.3-.5,6,1.3.6.6,1.3,1,2,1.5,0,3.7-.8,7-4.3,9Z"/>
        <path class="cls-6" d="M624,659.6c-.2.5-.3,1-.6,1.4-3.7,4.1-7.8,7.9-12.7,10.6-.5,0-1,0-1.5.2-6.4,2-12.8,4.1-19.2,6-2.9.9-5.7,2.1-8.8,1.7,7.5-3,14.9-6.2,22.5-9,7.5-2.8,14.4-6.5,20.2-12.2,0,.4,0,.9,0,1.3Z"/>
        <path class="cls-1" d="M363.3,783.5c-.6-.1-1-.5-1.1-1.1.6.1.9.6,1.1,1.1Z"/>
        <path class="cls-7" d="M487.7,842c6.3-1.4,12.8-1.1,19.2-2.2,2.7-.4,5.4-.7,8-1.2,4.2-.8,8.4-.8,12.6-1.2,3.9-.4,7.7-1.3,11.4-2.5,1.7-.5,2.4,0,2,1.6-.7,2.8-.7,5.7-.8,8.6-3.6,1.4-7.3,2.5-11.2,2.6-2.5,0-4.9,1-7.5,1-8.8,0-17.3-1.5-25.7-4-2.7-.8-5.4-1.9-8.1-2.8Z"/>
        <path class="cls-4" d="M581.3,679.5c3.1.4,5.9-.8,8.8-1.7,6.4-2,12.8-4,19.2-6,.5-.1,1-.1,1.5-.2,0,1.1-.5,2-1.3,2.7-6.1,5.4-10.7,12.2-16.7,17.8-3,2.8-5.8,5.8-8.7,8.6-13.3,13.1-27.1,25.6-40,39.1-1.1,1.1-2.1,2.2-3.8,2.2-1.9-4.8-1.6-9.7.7-14.2,2.5-4.8,5.5-9.4,9.2-13.4,9.4-10.2,18-21.2,27.8-31,1.2-1.2,2.2-2.5,3.3-3.8Z"/>
      </g>
    </g>
  </g>
</svg>