<svg width="500" height="500" viewBox="0 0 500 500" fill="none" xmlns="http://www.w3.org/2000/svg">
<path d="M80.8124 214.156C79.6165 214.651 78.668 215.476 77.7194 216.301C73.7604 219.6 70.5849 223.6 67.6156 227.765C65.8011 230.281 64.4814 233.044 63.2442 235.89C61.141 240.756 60.1099 245.87 59.3676 251.107C58.4191 257.706 58.3367 264.387 58.6253 271.026C59.1202 283.151 62.4194 294.45 69.1415 304.678C73.5955 311.441 79.1628 317.05 86.0087 321.38C86.9159 321.958 87.617 322.659 88.1944 323.566C94.5454 333.546 102.01 342.578 110.546 350.743C118.671 358.537 127.455 365.383 137.311 370.868C143.745 374.456 150.467 377.384 157.684 379.075C160.983 379.859 164.282 380.312 167.664 380.353C170.881 380.395 174.097 380.065 177.19 379.075C184.902 376.642 189.934 371.528 192.449 363.857C193.233 361.466 193.645 358.991 193.81 356.434C194.222 349.547 193.109 342.907 191.047 336.392C188.49 328.267 184.737 320.679 180.325 313.462C179.953 312.885 179.624 312.266 179.294 311.648C177.809 309.544 176.366 307.4 174.84 305.297C168.489 296.554 161.395 288.512 153.271 281.336C153.024 281.089 152.735 280.883 152.529 280.594C151.993 280.016 151.951 279.604 152.446 278.903C153.024 278.119 153.684 277.377 154.508 276.841C156.941 275.233 159.581 274.202 162.55 274.16C167.746 274.078 172.86 274.573 178.056 274.903C181.356 275.109 184.572 275.645 187.83 276.016C191.624 276.511 195.377 277.377 199.13 278.243C205.151 279.645 209.729 283.151 213.317 288.017C215.214 290.574 216.575 293.419 217.276 296.512C217.441 297.214 217.894 297.379 218.43 297.543C222.266 297.131 226.101 296.76 229.895 296.1C230.802 295.935 231.627 296.059 232.493 296.595C237.483 299.77 242.968 301.915 248.659 303.441C252.66 304.513 256.536 305.874 260.578 306.699C265.939 307.771 271.218 309.049 276.579 310.039C281.033 310.864 285.569 311.318 290.106 311.648C298.147 312.184 306.189 312.142 314.231 311.977C319.468 311.854 324.706 311.483 329.943 310.905C333.902 310.493 337.903 310.245 341.862 309.957C347.182 309.544 352.46 309.173 357.78 308.802C360.585 308.596 363.348 308.431 366.152 308.225C370.07 307.936 373.946 307.565 377.864 307.235C380.504 307.029 383.143 306.781 385.824 306.534C387.638 306.369 389.453 306.08 391.144 305.42C389.783 302.286 389.618 298.904 389.164 295.605C387.721 294.78 387.391 293.419 387.391 291.894C385.329 291.729 383.225 291.646 381.122 291.522C377.906 291.316 374.73 291.481 371.513 291.028C369.286 290.739 367.059 290.78 364.832 290.45C363.183 290.203 361.492 290.203 359.842 290.038C357.574 289.79 355.265 289.543 352.997 289.337C350.275 289.089 347.594 288.801 344.872 288.594C343.058 288.429 341.284 288.347 339.47 288.223C338.356 288.594 337.284 289.048 336.129 289.378C332.665 290.409 329.16 290.986 325.531 291.028C324.458 291.028 323.51 290.615 322.438 290.615C320.829 290.615 319.303 290.12 317.819 289.543C317.159 289.378 316.458 289.213 315.798 289.048C314.355 288.677 313.035 288.058 311.715 287.398C308.581 285.831 305.282 285.295 301.776 285.873C298.972 286.326 296.374 287.233 293.776 288.347C291.466 289.337 289.157 290.285 286.683 290.863C285.775 291.069 284.868 291.11 283.961 291.069C282.517 290.986 281.61 290.162 281.198 288.883C280.868 287.976 280.703 286.986 280.744 285.996C280.744 284.883 280.703 283.769 280.744 282.656C280.744 281.336 280.29 280.181 279.507 279.15C278.765 278.202 277.94 277.336 276.867 276.759C275.094 275.81 273.403 274.697 271.465 273.995C268.702 272.964 266.516 271.191 265.073 268.511C264.372 267.191 263.877 265.871 263.794 264.345C263.671 261.541 263.877 258.778 264.743 256.056C263.629 256.386 262.805 257.128 261.98 257.871C261.279 258.53 260.578 259.232 259.877 259.933C257.526 262.118 254.928 264.015 252.577 266.16C249.732 268.799 246.144 270.366 242.762 272.14C238.143 274.573 233.112 275.686 227.874 275.892C226.06 275.975 224.245 275.892 222.431 275.934C219.956 276.016 217.564 275.645 215.214 274.985C214.389 274.738 213.605 274.449 212.822 274.243C208.079 272.923 203.584 271.067 199.501 268.263C198.223 267.397 196.944 266.985 195.418 267.067C187.954 267.315 180.49 266.985 172.984 267.438C167.705 267.727 162.344 267.562 157.065 267.603C156.488 267.603 155.911 267.603 155.416 267.686C154.261 267.974 153.065 267.933 151.869 267.933C151.374 268.181 150.838 268.346 150.261 268.428C147.704 268.799 145.147 269.17 142.59 269.583C141.394 269.789 140.445 269.5 139.621 268.552C135.95 264.593 131.538 261.458 127.414 257.994C125.929 256.757 124.279 255.644 122.795 254.365C119.001 251.066 114.959 248.055 111 244.962C109.103 243.519 107.082 242.282 105.185 240.838C103.329 239.478 101.391 238.199 99.453 236.962C98.2158 236.178 96.7724 235.642 95.7414 234.652C94.6691 233.621 93.968 232.178 93.1432 230.858C89.5141 225.291 85.885 219.724 82.2558 214.197C82.0496 214.115 81.8847 214.074 81.6785 213.991C81.3898 213.991 81.0599 214.074 80.7712 214.115L80.8124 214.156Z" fill="#6B6D65"/>
<path d="M151.869 267.893C153.065 267.893 154.22 267.934 155.416 267.645C155.952 267.522 156.529 267.563 157.065 267.563C162.385 267.522 167.705 267.687 172.984 267.398C180.448 266.944 187.913 267.274 195.418 267.027C196.944 266.985 198.223 267.357 199.501 268.223C203.543 271.027 208.079 272.883 212.822 274.202C213.647 274.409 214.43 274.739 215.214 274.945C217.564 275.605 219.998 275.976 222.431 275.893C224.245 275.852 226.06 275.893 227.874 275.852C233.112 275.646 238.143 274.532 242.762 272.099C246.144 270.326 249.732 268.759 252.577 266.119C254.928 263.934 257.567 262.078 259.877 259.892C260.578 259.232 261.279 258.49 261.98 257.83C262.805 257.088 263.671 256.346 264.743 256.016C265.238 255.315 266.063 255.026 266.681 254.448C268.001 253.211 268.001 253.005 266.475 251.974C263.217 249.788 259.959 247.644 256.742 245.417C255.01 244.221 253.154 243.272 251.134 242.654C248.164 241.747 245.443 240.262 242.927 238.53C240.288 236.715 237.813 234.612 235.71 232.179C234.308 230.529 233.029 228.797 232.081 226.818C230.679 223.972 229.895 220.92 229.606 217.786C229.483 216.343 229.277 214.858 229.813 213.415C230.844 210.652 232.328 208.136 234.39 205.991C236.37 203.888 238.679 202.197 240.989 200.507C244.742 197.702 249.154 196.547 253.691 196.094C257.443 195.723 261.073 196.465 264.537 197.867C267.176 198.898 269.403 200.63 271.424 202.569C272.95 204.094 274.269 205.827 275.672 207.476C276.208 208.095 276.744 208.796 277.527 209.126C277.321 207.146 276.496 205.332 275.548 203.641C273.568 200.135 270.97 197.166 267.877 194.568C263.052 190.526 257.485 187.722 251.67 185.495C245.979 183.351 240.04 181.907 234.06 180.918C231.421 180.464 228.823 180.093 226.142 180.01C225.111 180.01 224.039 179.722 223.008 179.763C221.317 179.804 219.668 180.01 217.977 180.175C215.874 180.381 213.812 180.67 211.708 180.835C209.358 181.041 206.966 181.165 204.615 181.371C202.264 181.577 199.872 181.825 197.522 182.031C196.944 182.072 196.408 182.113 195.831 182.155C192.325 182.361 188.861 182.732 185.438 183.268C180.861 184.011 176.407 185.124 171.87 186.073C165.355 187.433 158.88 188.794 152.364 190.155C149.147 190.856 145.93 191.557 142.755 192.259C142.425 192.341 142.136 192.547 141.806 192.671C142.178 195.022 142.549 197.331 142.879 199.682C143.332 203.063 143.786 206.445 144.24 209.827C144.735 213.415 145.312 217.003 145.807 220.59C146.302 223.972 146.673 227.354 147.168 230.735C147.745 234.818 148.405 238.86 148.859 242.943C149.023 244.468 149.147 245.994 149.353 247.52C149.601 249.087 149.807 250.696 149.972 252.304C150.178 254.119 150.219 255.933 150.508 257.706C150.756 259.15 150.797 260.634 150.962 262.078C151.209 264.016 151.498 265.954 151.787 267.893H151.869Z" fill="#8989DE"/>
<path d="M277.569 209.167C276.744 208.837 276.249 208.136 275.713 207.517C274.269 205.909 272.991 204.136 271.465 202.61C269.486 200.63 267.259 198.939 264.578 197.908C261.073 196.547 257.444 195.764 253.732 196.135C249.196 196.589 244.783 197.743 241.03 200.548C238.721 202.28 236.411 203.929 234.432 206.033C232.37 208.218 230.885 210.693 229.854 213.456C229.318 214.858 229.524 216.384 229.648 217.827C229.936 220.961 230.679 224.013 232.122 226.859C233.112 228.797 234.349 230.57 235.751 232.22C237.855 234.653 240.329 236.756 242.968 238.571C245.525 240.303 248.247 241.788 251.175 242.695C253.196 243.314 255.052 244.262 256.784 245.458C260 247.685 263.3 249.829 266.516 252.015C268.042 253.046 268.042 253.252 266.723 254.49C266.104 255.067 265.279 255.356 264.784 256.057C263.918 258.737 263.753 261.542 263.836 264.346C263.877 265.872 264.413 267.192 265.114 268.511C266.558 271.192 268.743 272.924 271.506 273.996C273.403 274.738 275.094 275.852 276.909 276.759C277.981 277.337 278.806 278.161 279.548 279.151C280.332 280.182 280.785 281.296 280.785 282.657C280.785 283.77 280.827 284.883 280.785 285.997C280.785 286.987 280.909 287.976 281.239 288.884C281.693 290.162 282.6 290.987 284.002 291.07C284.909 291.111 285.817 291.07 286.724 290.863C289.198 290.286 291.508 289.296 293.817 288.348C296.415 287.275 299.013 286.327 301.818 285.873C305.323 285.296 308.622 285.832 311.757 287.399C313.076 288.059 314.396 288.678 315.839 289.049C316.499 289.214 317.2 289.379 317.86 289.544C317.819 288.348 317.778 287.152 317.53 285.997C317.365 285.337 317.654 285.09 318.355 285.337C319.881 285.832 321.448 286.203 323.056 286.368C324.788 286.533 326.562 286.533 328.253 286.863C329.366 287.069 330.48 287.193 331.552 287.358C334.191 287.77 336.872 287.688 339.47 288.265C341.284 288.389 343.099 288.471 344.872 288.636C347.594 288.884 350.275 289.131 352.997 289.379C355.265 289.585 357.574 289.832 359.843 290.08C361.492 290.245 363.183 290.286 364.833 290.492C367.018 290.781 369.286 290.781 371.513 291.07C374.73 291.482 377.906 291.358 381.122 291.564C383.184 291.688 385.288 291.771 387.391 291.936C387.68 291.729 388.009 291.564 388.216 291.317C388.917 290.533 389.783 290.492 390.69 290.781C391.144 290.946 391.639 291.069 392.092 291.234C392.628 291.441 393.206 291.482 393.742 291.399C394.897 291.234 396.051 291.028 397.206 290.781C400.876 289.915 404.299 288.43 407.557 286.492C410.691 284.595 413.496 282.409 415.723 279.522C416.63 278.326 417.867 278.161 419.228 278.904C419.517 279.069 419.847 279.192 420.177 279.316C420.259 278.533 420.754 278.079 421.249 277.584C423.146 275.728 424.96 273.831 427.022 272.14C428.095 271.274 428.878 270.078 429.744 269.006C430.033 268.676 430.198 268.305 430.528 268.016C432.59 266.037 434.239 263.645 436.054 261.459C437.209 260.057 438.199 258.531 439.106 256.964C440.508 254.572 440.302 251.809 438.199 249.665C436.508 247.891 434.776 246.2 433.002 244.51C431.353 242.942 429.456 242.53 427.229 243.025C425.538 243.396 424.136 244.262 422.692 245.128C423.187 246.283 424.012 247.273 424.919 248.139C426.981 250.159 428.631 252.469 430.322 254.778C431.27 256.057 431.353 257.294 430.569 258.655C429.167 261.17 427.889 263.727 426.528 266.243C425.208 268.676 423.393 270.697 421.331 272.512C420.3 273.419 418.527 273.213 417.661 272.14C416.135 270.326 414.692 268.429 412.96 266.82C411.475 265.418 409.825 264.305 407.846 263.645C406.732 263.274 405.536 263.068 404.547 262.325C404.299 262.119 404.011 262.243 403.763 262.325C403.392 262.49 402.98 262.696 402.65 262.903C400.134 264.387 397.577 265.872 395.061 267.357C394.402 267.728 393.742 268.14 393.082 268.511C392.505 268.841 391.886 268.841 391.267 268.8C390.36 268.717 389.742 268.14 389.577 267.233C389.494 266.738 389.494 266.243 389.494 265.748C386.484 265.831 383.514 265.996 380.504 265.542C379.39 265.377 378.277 265.501 377.163 265.418C373.328 265.212 369.493 265.088 365.699 264.676C364.255 264.511 362.771 264.593 361.286 264.552C358.399 264.181 355.471 264.14 352.543 264.181C352.048 264.181 351.553 264.181 351.1 264.057C347.759 263.233 344.336 263.274 340.955 262.985C337.284 262.655 333.614 262.449 329.943 261.954C329.531 262.738 328.995 263.315 328.046 263.356C327.015 263.397 326.067 263.315 325.407 262.408C325.283 262.243 325.118 262.119 324.953 261.954C310.478 247.479 296.044 233.045 281.569 218.57C281.239 218.24 280.868 217.868 280.579 217.497C279.878 216.631 279.919 215.559 279.878 214.487C279.878 213.703 280.332 213.373 280.744 212.92C280.167 212.26 279.548 211.6 278.971 210.94C278.476 210.363 278.022 209.785 277.569 209.208V209.167Z" fill="#FFB68A"/>
<path d="M329.943 261.913C333.614 262.408 337.284 262.614 340.955 262.944C344.336 263.233 347.759 263.191 351.1 264.016C351.553 264.14 352.048 264.14 352.543 264.14C355.471 264.14 358.399 264.14 361.286 264.511C362.564 259.892 362.977 255.191 362.647 250.448C362.523 248.592 362.234 246.695 361.987 244.84C361.781 243.355 361.781 241.912 362.564 240.592C360.956 240.839 359.925 240.138 359.183 238.736C358.234 236.963 357.162 235.231 356.131 233.499C354.687 231.024 352.873 228.797 350.976 226.694C348.378 223.807 345.037 221.869 341.614 220.054C340.336 219.394 338.934 218.858 337.614 218.24C333.614 216.466 329.49 215.394 325.077 215.394C322.685 215.394 320.334 215.394 317.943 215.394C317.406 215.394 316.829 215.394 316.293 215.518C314.85 215.724 313.406 216.013 311.963 216.219C310.107 216.508 308.251 216.755 306.519 217.58C305.529 218.075 304.457 217.992 303.426 217.786C302.106 217.539 301.24 216.59 300.91 215.229C300.498 213.373 301.075 211.971 302.684 210.899C302.972 210.693 303.302 210.569 303.591 210.404C306.725 208.713 310.189 208.218 313.654 207.765C315.386 207.559 317.077 207.27 318.809 207.022C320.252 206.816 321.778 206.734 323.18 207.022C324.17 207.229 325.118 207.27 326.067 207.311C326.562 207.311 327.098 207.229 327.51 207.394C328.789 207.806 330.15 207.806 331.469 207.724C332.789 207.641 333.944 208.053 335.057 208.672C335.47 208.919 335.8 209.291 336.294 209.414C338.191 209.909 339.923 210.899 341.738 211.6C343.553 212.301 345.243 213.25 346.893 214.363C348.378 215.394 349.862 216.425 351.306 217.539C353.491 219.229 355.43 221.168 357.162 223.23C359.265 225.704 361.203 228.385 362.482 231.478C363.1 233.004 364.173 234.158 365.575 235.066C366.977 232.756 367.678 230.199 368.008 227.56C368.379 224.797 367.925 222.116 366.936 219.559C365.492 215.683 363.142 212.425 360.337 209.456C358.152 207.146 355.718 205.208 353.079 203.435C349.697 201.125 346.027 199.476 342.192 198.115C340.088 197.331 337.82 197.166 335.593 196.96C333.243 196.712 330.851 196.589 328.5 196.465C317.943 196.011 307.55 197.084 297.364 199.805C293.24 200.919 289.24 202.321 285.363 204.094C284.744 204.383 284.085 204.672 283.425 204.878C282.889 205.043 282.6 205.29 282.352 205.785C281.445 207.765 281.28 209.662 282.641 211.518C282.847 211.806 283.012 212.095 283.218 212.384C285.61 214.693 288.456 216.26 291.549 217.415C294.683 218.57 297.735 219.889 300.828 221.127C301.282 221.663 301.694 222.199 302.189 222.694C306.23 226.776 309.777 231.272 313.654 235.478C315.179 237.128 316.417 239.025 317.448 241.004C318.396 242.86 318.561 244.881 317.736 246.86C317.654 247.685 318.272 248.098 318.726 248.592C321.984 251.85 325.201 255.108 328.541 258.325C329.572 259.315 330.15 260.387 329.902 261.83L329.943 261.913Z" fill="#824414"/>
<path d="M151.869 267.893C151.58 265.954 151.333 264.016 151.044 262.078C150.838 260.634 150.838 259.15 150.591 257.706C150.302 255.933 150.261 254.118 150.054 252.304C149.889 250.695 149.642 249.128 149.436 247.52C149.23 245.994 149.106 244.468 148.941 242.942C148.487 238.86 147.869 234.777 147.25 230.735C146.755 227.354 146.343 223.972 145.889 220.59C145.394 217.002 144.817 213.414 144.322 209.827C143.827 206.445 143.415 203.063 142.961 199.682C142.631 197.331 142.26 194.98 141.889 192.671C140.445 192.547 139.126 192.959 137.806 193.372C134.672 194.362 131.538 195.228 128.321 195.97C124.857 196.754 121.475 197.867 118.176 199.145C115.454 200.218 112.691 201.166 109.969 202.238C108.155 202.94 106.34 203.723 104.608 204.548C100.896 206.362 97.061 207.847 93.3081 209.455C89.6378 211.023 85.8849 212.342 82.3795 214.157C86.0087 219.724 89.6378 225.292 93.2669 230.818C94.0917 232.096 94.7928 233.54 95.865 234.612C96.896 235.602 98.3394 236.138 99.5766 236.921C101.515 238.158 103.453 239.396 105.309 240.798C107.206 242.2 109.227 243.437 111.124 244.922C115.083 248.015 119.124 251.025 122.918 254.325C124.403 255.603 126.053 256.675 127.537 257.954C131.661 261.418 136.074 264.552 139.744 268.511C140.61 269.418 141.518 269.748 142.714 269.542C145.271 269.13 147.827 268.759 150.384 268.387C150.962 268.305 151.457 268.14 151.993 267.893H151.869Z" fill="#FFB68A"/>
<path d="M218.431 297.545C217.895 297.38 217.441 297.215 217.276 296.514C216.575 293.379 215.214 290.575 213.317 288.018C209.688 283.152 205.151 279.647 199.13 278.244C195.378 277.378 191.625 276.512 187.831 276.017C184.573 275.605 181.356 275.069 178.057 274.904C172.902 274.615 167.747 274.12 162.55 274.162C159.581 274.162 156.942 275.193 154.509 276.842C153.684 277.378 153.024 278.121 152.447 278.904C151.952 279.564 151.993 279.976 152.529 280.595C152.777 280.842 153.024 281.09 153.271 281.337C161.396 288.513 168.489 296.555 174.84 305.298C176.366 307.401 177.809 309.504 179.294 311.649C181.562 311.236 183.913 311.443 186.181 311.113C189.109 310.7 192.078 311.113 194.965 310.453C195.048 310.453 195.089 310.453 195.171 310.453C198.429 310.288 201.728 310.123 204.986 309.958C207.09 309.834 209.152 309.71 211.214 309.298C214.554 308.638 216.327 306.411 217.317 303.318C217.771 301.875 217.771 300.431 217.688 298.947C217.688 298.287 217.853 297.875 218.431 297.586V297.545Z" fill="#FFB68A"/>
<path d="M389.494 265.706C389.494 266.201 389.494 266.696 389.577 267.191C389.7 268.098 390.36 268.676 391.267 268.758C391.886 268.799 392.546 268.799 393.082 268.469C393.742 268.098 394.402 267.686 395.061 267.315C397.577 265.83 400.134 264.346 402.65 262.861C403.021 262.655 403.392 262.49 403.763 262.283C404.011 262.16 404.299 262.077 404.547 262.283C405.495 263.026 406.691 263.232 407.846 263.603C409.825 264.263 411.475 265.335 412.96 266.779C414.692 268.428 416.135 270.325 417.661 272.099C418.568 273.13 420.3 273.377 421.331 272.47C423.393 270.655 425.208 268.634 426.528 266.201C427.889 263.686 429.167 261.129 430.569 258.613C431.353 257.211 431.27 255.974 430.322 254.737C428.631 252.427 426.981 250.118 424.919 248.097C424.012 247.231 423.228 246.241 422.692 245.086C422.527 245.004 422.321 244.921 422.156 244.798C421.001 243.726 419.641 243.437 418.156 243.602C416.424 243.849 414.815 244.468 413.29 245.375C411.764 246.282 410.609 247.602 409.331 248.798C408.341 249.747 407.681 250.86 407.186 252.097C406.939 252.757 406.567 253.376 406.402 254.035C406.155 255.025 405.495 255.52 404.67 256.015C402.856 257.046 401.083 258.16 399.268 259.232C396.752 260.716 394.237 262.201 391.68 263.686C391.515 263.768 391.267 263.686 391.061 263.727C391.02 263.974 390.855 264.139 390.608 264.181C390.03 264.593 389.535 265.088 389.329 265.789L389.494 265.706Z" fill="#E6A37B"/>
<path d="M365.657 235.148C364.297 234.241 363.183 233.086 362.564 231.56C361.286 228.467 359.348 225.828 357.245 223.312C355.471 221.25 353.533 219.312 351.388 217.621C349.945 216.508 348.46 215.477 346.976 214.446C345.367 213.332 343.635 212.384 341.821 211.682C340.006 210.981 338.315 209.992 336.377 209.497C335.882 209.373 335.552 209.002 335.14 208.754C334.026 208.095 332.913 207.682 331.552 207.806C330.232 207.888 328.913 207.93 327.593 207.476C327.139 207.311 326.603 207.435 326.15 207.394C325.16 207.394 324.211 207.311 323.263 207.105C321.819 206.816 320.335 206.899 318.891 207.105C317.159 207.352 315.468 207.6 313.736 207.847C310.272 208.301 306.808 208.754 303.674 210.487C303.385 210.651 303.055 210.775 302.766 210.981C301.158 212.054 300.581 213.456 300.993 215.312C301.282 216.673 302.148 217.58 303.509 217.868C304.499 218.075 305.612 218.157 306.602 217.662C308.293 216.796 310.19 216.549 312.045 216.301C313.489 216.095 314.932 215.806 316.376 215.6C316.912 215.518 317.489 215.477 318.025 215.477C320.417 215.477 322.768 215.477 325.16 215.477C329.572 215.477 333.696 216.549 337.697 218.322C339.016 218.899 340.419 219.436 341.697 220.137C345.12 221.91 348.419 223.89 351.059 226.776C352.997 228.88 354.77 231.107 356.214 233.581C357.245 235.313 358.276 237.045 359.265 238.818C360.008 240.221 361.039 240.922 362.647 240.674C364.379 239.272 365.575 237.54 365.699 235.231L365.657 235.148Z" fill="#5D3718"/>
<path d="M389.164 295.647C389.659 298.946 389.783 302.327 391.144 305.462C393 305.833 394.855 305.998 396.711 306.245C400.34 306.699 403.969 306.534 407.599 306.534C413.537 306.534 417.62 302.946 418.94 297.544C419.517 295.193 419.888 292.76 419.888 290.285C419.888 288.388 420.136 286.532 420.218 284.635C420.218 283.934 420.177 283.233 420.136 282.532C419.764 282.573 419.434 282.697 419.228 283.027C417.62 285.46 415.269 287.11 412.96 288.801C410.733 290.492 408.258 291.811 405.743 292.966C401.578 294.822 397.371 296.389 392.67 296.059C391.474 295.976 390.319 296.059 389.164 295.605V295.647Z" fill="#FFB68A"/>
<path d="M391.185 263.645C391.391 263.645 391.638 263.686 391.803 263.604C394.319 262.119 396.876 260.634 399.392 259.15C401.206 258.077 402.98 256.964 404.794 255.933C405.619 255.479 406.279 254.984 406.526 253.953C406.691 253.294 407.062 252.675 407.31 252.015C407.805 250.778 408.423 249.623 409.454 248.716C410.733 247.52 411.887 246.241 413.413 245.293C414.939 244.386 416.506 243.767 418.28 243.52C417.537 241.293 416.465 239.313 414.733 237.705C413.702 236.756 412.588 235.931 411.351 235.272C410.733 234.942 410.073 234.694 409.495 234.323C407.557 233.21 405.454 232.921 403.227 233.003C401.412 233.003 400.175 233.869 399.185 235.23C398.526 236.138 398.154 237.21 398.072 238.365C397.907 240.839 398.154 243.231 398.938 245.582C400.216 249.499 400.051 248.262 398.196 251.52C396.051 255.273 393.742 258.943 391.515 262.655C391.35 262.944 391.309 263.315 391.226 263.645H391.185Z" fill="#FFB78B"/>
<path d="M329.943 261.912C330.191 260.469 329.614 259.397 328.583 258.407C325.283 255.19 322.025 251.932 318.767 248.674C318.273 248.179 317.654 247.767 317.778 246.942C317.077 246.942 316.623 246.489 316.211 246.035C310.891 240.468 305.199 235.312 299.715 229.91C298.519 228.714 297.364 227.518 296.127 226.363C293.652 224.095 291.755 221.291 289.24 219.023C288.91 218.734 288.745 218.363 288.703 217.909C286.683 216.754 285.033 215.229 283.466 213.538C283.342 213.414 283.301 213.167 283.219 212.96C282.394 212.96 281.528 212.878 280.703 212.878C280.291 213.332 279.796 213.703 279.837 214.445C279.878 215.517 279.837 216.548 280.538 217.456C280.868 217.827 281.198 218.198 281.528 218.528C295.962 233.003 310.437 247.437 324.912 261.912C325.077 262.077 325.242 262.201 325.366 262.366C326.026 263.273 326.974 263.356 328.005 263.314C328.995 263.314 329.531 262.737 329.902 261.912H329.943Z" fill="#E6A37B"/>
<path d="M389.164 295.646C390.278 296.059 391.474 296.017 392.67 296.1C397.371 296.471 401.578 294.904 405.743 293.007C408.3 291.852 410.733 290.532 412.96 288.842C415.228 287.151 417.62 285.501 419.228 283.068C419.435 282.779 419.764 282.656 420.136 282.573C420.342 281.46 420.301 280.346 420.218 279.274C419.888 279.15 419.558 279.026 419.27 278.861C417.909 278.119 416.671 278.325 415.764 279.48C413.537 282.408 410.733 284.594 407.599 286.45C404.341 288.388 400.918 289.873 397.247 290.739C396.093 291.027 394.938 291.192 393.783 291.357C393.247 291.44 392.67 291.357 392.134 291.192C391.68 291.027 391.226 290.862 390.731 290.739C389.783 290.45 388.958 290.532 388.257 291.275C388.01 291.522 387.721 291.687 387.432 291.893C387.432 293.419 387.762 294.78 389.206 295.605L389.164 295.646Z" fill="#E6A37B"/>
<path d="M283.26 213.002C283.342 213.208 283.383 213.414 283.507 213.579C285.033 215.27 286.724 216.837 288.745 217.951C288.951 217.951 289.157 217.951 289.363 218.033C292.003 218.858 294.642 219.724 297.281 220.508C298.477 220.879 299.632 221.374 300.91 221.209C297.817 219.972 294.766 218.652 291.631 217.497C288.538 216.342 285.693 214.817 283.301 212.466C283.301 212.631 283.301 212.837 283.301 213.002H283.26Z" fill="#7B4923"/>
<path d="M390.772 264.098C391.02 264.057 391.185 263.892 391.226 263.645C390.979 263.686 390.855 263.892 390.772 264.098Z" fill="#FFB78B"/>
<path d="M339.47 288.223C336.872 287.646 334.191 287.77 331.552 287.316C330.438 287.151 329.325 287.028 328.253 286.821C326.521 286.491 324.789 286.491 323.056 286.326C321.448 286.161 319.881 285.79 318.355 285.295C317.654 285.089 317.365 285.295 317.53 285.955C317.819 287.11 317.819 288.306 317.86 289.502C319.345 290.079 320.871 290.533 322.479 290.574C323.51 290.574 324.5 290.987 325.572 290.987C329.201 290.987 332.707 290.368 336.171 289.337C337.284 289.007 338.398 288.553 339.511 288.182L339.47 288.223Z" fill="#824414"/>
<path d="M300.869 221.208C299.591 221.373 298.436 220.878 297.24 220.507C294.601 219.682 291.961 218.857 289.322 218.033C289.116 217.991 288.91 217.991 288.703 217.95C288.703 218.404 288.91 218.775 289.24 219.064C291.755 221.291 293.652 224.095 296.127 226.404C297.364 227.559 298.519 228.796 299.714 229.951C305.199 235.353 310.891 240.508 316.211 246.076C316.664 246.53 317.077 246.983 317.778 246.983C318.561 245.004 318.437 242.983 317.489 241.127C316.458 239.148 315.221 237.251 313.695 235.601C309.818 231.394 306.272 226.858 302.23 222.817C301.735 222.322 301.323 221.786 300.869 221.249V221.208Z" fill="#FDB589"/>
</svg>
