<svg width="500" height="500" viewBox="0 0 500 500" fill="none" xmlns="http://www.w3.org/2000/svg">
<path d="M82.7839 214.013C81.6309 214.507 80.6837 215.33 79.6955 216.154C75.7423 219.448 72.6539 223.443 69.6478 227.561C68.0007 229.825 66.7653 232.337 65.6535 234.89C64.0887 238.473 63.0181 242.179 62.2769 246.05C60.6297 254.244 60.4238 262.521 60.7944 270.798C61.2473 282.04 64.2534 292.623 70.142 302.259C74.7128 309.753 80.6426 315.93 88.0548 320.625C88.9607 321.201 89.6607 321.942 90.1961 322.807C96.4964 332.731 103.95 341.708 112.433 349.82C120.504 357.562 129.275 364.398 139.075 369.833C145.417 373.375 152.047 376.257 159.129 377.904C163.824 379.016 168.601 379.51 173.418 378.975C184.001 377.822 191.249 371.563 193.967 362.298C194.79 359.456 195.161 356.574 195.243 353.65C195.408 347.391 194.255 341.338 192.361 335.408C189.725 327.049 185.813 319.307 181.201 311.895C179.307 308.889 177.33 305.965 175.23 303.082C174.942 302.671 174.654 302.3 174.366 301.888C174.118 301.518 174.242 301.188 174.613 301.065C174.901 300.982 175.148 300.941 175.436 300.9C178.978 300.571 182.519 300.282 186.06 299.953C191.414 299.459 196.726 298.965 202.079 298.47C205.538 298.141 208.997 297.812 212.456 297.523C218.55 296.988 224.645 296.494 230.698 295.506C231.851 295.3 232.839 295.506 233.869 296.123C238.563 299.088 243.628 301.147 248.982 302.547C253.141 303.659 257.217 305.1 261.459 306.006C266.853 307.118 272.206 308.395 277.601 309.383C281.966 310.165 286.413 310.618 290.86 310.948C298.767 311.483 306.714 311.442 314.662 311.277C319.933 311.153 325.204 310.783 330.474 310.206C334.469 309.795 338.504 309.548 342.54 309.259C347.728 308.889 352.958 308.518 358.147 308.106C360.906 307.9 363.706 307.736 366.465 307.53C370.335 307.242 374.247 306.871 378.118 306.541C380.754 306.336 383.389 306.088 386.025 305.841C387.836 305.677 389.607 305.388 391.337 304.73C389.978 301.6 389.813 298.265 389.36 294.97C387.919 294.147 387.589 292.788 387.589 291.264C384.83 291.141 382.071 290.852 379.271 290.852C375.977 290.852 372.765 290.482 369.512 290.193C367.947 290.07 366.341 289.988 364.735 289.782C362.594 289.535 360.453 289.288 358.311 289.123C356.046 288.917 353.74 288.793 351.476 288.588C349.417 288.382 347.358 288.135 345.299 287.929C343.528 287.764 341.716 287.682 339.904 287.558C338.793 287.929 337.722 288.382 336.61 288.711C333.151 289.699 329.651 290.317 326.068 290.358C324.998 290.358 324.051 289.946 323.021 289.946C321.415 289.946 319.891 289.452 318.45 288.876C316.391 288.464 314.415 287.805 312.562 286.817C310.009 285.458 307.25 284.84 304.326 284.964C302.679 285.046 300.99 285.293 299.426 285.829C297.573 286.446 295.761 287.146 293.949 287.887C291.808 288.752 289.707 289.617 287.484 290.152C286.578 290.358 285.713 290.399 284.807 290.358C283.366 290.276 282.501 289.452 282.048 288.176C281.719 287.27 281.554 286.281 281.595 285.293C281.595 284.181 281.595 283.07 281.595 281.958C281.595 280.64 281.142 279.487 280.36 278.499C279.66 277.552 278.795 276.687 277.766 276.152C275.995 275.204 274.306 274.093 272.412 273.393C269.653 272.363 267.471 270.592 266.071 267.957C265.371 266.639 264.877 265.321 264.794 263.839C264.671 261.039 264.877 258.28 265.741 255.603C264.671 255.933 263.806 256.674 262.982 257.415C262.282 258.074 261.582 258.774 260.882 259.433C258.535 261.615 255.941 263.468 253.594 265.651C250.752 268.245 247.211 269.81 243.834 271.581C239.222 274.01 234.24 275.122 229.01 275.328C227.198 275.41 225.386 275.328 223.574 275.369C221.103 275.451 218.715 275.081 216.368 274.422C215.586 274.175 214.803 273.887 213.98 273.681C209.285 272.363 204.797 270.51 200.761 267.71C199.485 266.845 198.208 266.474 196.684 266.516C189.272 266.722 181.819 266.433 174.407 266.886C169.136 267.175 163.865 267.01 158.553 267.051C158.018 267.051 157.441 267.051 156.906 267.133C155.753 267.422 154.559 267.38 153.364 267.38C152.87 267.628 152.335 267.792 151.8 267.875C149.246 268.245 146.735 268.616 144.182 269.028C142.987 269.233 142.081 268.945 141.217 267.998C137.552 264.045 133.187 260.957 129.11 257.498C127.628 256.262 125.98 255.15 124.539 253.874C120.751 250.621 116.756 247.615 112.803 244.526C110.95 243.085 108.891 241.85 107.038 240.449C105.185 239.091 103.25 237.855 101.355 236.62C100.12 235.837 98.6789 235.302 97.6494 234.314C96.5788 233.284 95.8787 231.843 95.0552 230.567C91.4314 225.049 87.8489 219.531 84.2251 213.972C84.0192 213.889 83.8133 213.848 83.6486 213.766C83.3604 213.807 83.0309 213.848 82.7427 213.889L82.7839 214.013Z" fill="#696D65"/>
<path d="M153.488 267.463C154.682 267.463 155.835 267.505 157.029 267.216C157.565 267.093 158.141 267.134 158.676 267.134C163.947 267.093 169.259 267.258 174.53 266.969C181.942 266.557 189.396 266.846 196.808 266.599C198.332 266.557 199.608 266.928 200.885 267.793C204.92 270.593 209.409 272.446 214.103 273.764C214.886 273.97 215.668 274.299 216.491 274.505C218.839 275.164 221.227 275.534 223.698 275.452C225.51 275.411 227.322 275.452 229.133 275.411C234.322 275.205 239.346 274.093 243.958 271.664C247.334 269.893 250.876 268.328 253.717 265.734C256.064 263.551 258.659 261.698 261.006 259.516C261.706 258.857 262.365 258.157 263.106 257.498C263.929 256.757 264.794 256.016 265.865 255.686C266.359 254.986 267.183 254.698 267.8 254.121C269.118 252.886 269.118 252.721 267.594 251.692C264.382 249.509 261.129 247.368 257.917 245.186C256.188 243.991 254.335 243.044 252.317 242.427C249.393 241.521 246.676 240.038 244.122 238.35C241.487 236.538 239.057 234.479 236.957 232.05C235.557 230.402 234.322 228.673 233.334 226.738C231.934 223.896 231.151 220.89 230.904 217.761C230.781 216.319 230.575 214.837 231.11 213.437C232.139 210.678 233.622 208.207 235.681 206.025C237.657 203.966 239.963 202.277 242.228 200.548C245.976 197.748 250.34 196.636 254.87 196.142C258.576 195.771 262.2 196.512 265.659 197.871C268.294 198.901 270.518 200.589 272.495 202.566C274.018 204.089 275.295 205.819 276.736 207.425C277.271 208.042 277.807 208.742 278.589 209.072C278.424 207.178 277.601 205.448 276.736 203.801C274.801 200.301 272.248 197.295 269.159 194.742C263.971 190.377 258 187.453 251.699 185.188C246.387 183.253 240.911 181.976 235.351 181.029C232.757 180.576 230.122 180.206 227.486 180.123C226.457 180.123 225.427 179.835 224.357 179.876C222.709 179.917 221.021 180.123 219.374 180.288C217.315 180.494 215.215 180.782 213.156 180.947C210.809 181.153 208.462 181.276 206.073 181.482C203.726 181.688 201.379 181.935 199.032 182.141C198.496 182.182 197.92 182.223 197.385 182.264C193.926 182.47 190.466 182.841 187.049 183.376C182.519 184.118 178.072 185.229 173.583 186.135C167.118 187.494 160.653 188.853 154.188 190.212C150.976 190.871 147.805 191.612 144.634 192.312C144.305 192.394 144.017 192.6 143.687 192.724C144.058 195.071 144.429 197.377 144.758 199.724C145.211 203.101 145.664 206.436 146.117 209.813C146.611 213.396 147.188 216.937 147.682 220.52C148.135 223.896 148.546 227.273 149.041 230.608C149.617 234.644 150.276 238.679 150.729 242.756C150.894 244.28 151.017 245.803 151.223 247.286C151.47 248.851 151.676 250.457 151.841 252.021C152.047 253.792 152.088 255.645 152.376 257.416C152.623 258.857 152.664 260.298 152.829 261.74C153.076 263.675 153.364 265.569 153.653 267.505L153.488 267.463Z" fill="#8989DE"/>
<path d="M278.424 209.03C277.642 208.701 277.107 208.001 276.571 207.383C275.13 205.777 273.854 204.006 272.33 202.524C270.353 200.589 268.13 198.859 265.494 197.83C262.035 196.471 258.411 195.688 254.705 196.1C250.176 196.553 245.811 197.706 242.064 200.506C239.799 202.195 237.493 203.883 235.516 205.983C233.457 208.124 232.016 210.636 230.945 213.395C230.41 214.795 230.616 216.319 230.739 217.719C230.986 220.849 231.769 223.855 233.169 226.696C234.157 228.631 235.393 230.402 236.793 232.008C238.893 234.438 241.322 236.538 243.958 238.308C246.47 240.038 249.187 241.479 252.152 242.385C254.17 243.003 255.982 243.95 257.753 245.144C260.965 247.327 264.218 249.468 267.43 251.65C268.953 252.68 268.953 252.886 267.636 254.08C267.018 254.656 266.194 254.945 265.7 255.645C264.877 258.321 264.671 261.08 264.753 263.88C264.794 265.363 265.33 266.722 266.03 267.998C267.43 270.634 269.612 272.404 272.371 273.434C274.265 274.134 275.954 275.246 277.724 276.193C278.795 276.769 279.619 277.593 280.319 278.54C281.101 279.57 281.554 280.681 281.554 281.999C281.554 283.111 281.595 284.223 281.554 285.335C281.554 286.323 281.678 287.311 282.007 288.217C282.46 289.452 283.366 290.317 284.766 290.4C285.672 290.441 286.578 290.4 287.443 290.194C289.707 289.658 291.807 288.794 293.908 287.929C295.719 287.229 297.531 286.488 299.384 285.87C300.949 285.335 302.638 285.088 304.285 285.005C307.208 284.84 309.967 285.458 312.52 286.858C314.373 287.847 316.35 288.505 318.409 288.917C318.368 287.723 318.327 286.57 318.08 285.376C317.915 284.717 318.203 284.47 318.903 284.717C320.427 285.211 321.992 285.582 323.598 285.746C325.327 285.911 327.057 285.911 328.786 286.241C329.857 286.446 330.969 286.57 332.08 286.735C334.675 287.146 337.351 287.064 339.946 287.599C341.757 287.723 343.528 287.805 345.34 287.97C347.399 288.176 349.458 288.423 351.517 288.629C353.782 288.835 356.088 288.958 358.352 289.164C360.494 289.37 362.635 289.617 364.776 289.823C366.341 289.988 367.947 290.07 369.553 290.235C372.806 290.482 376.018 290.894 379.312 290.894C382.071 290.894 384.83 291.141 387.631 291.306C387.919 291.1 388.248 290.935 388.454 290.688C389.154 289.947 390.019 289.864 390.925 290.153C391.378 290.317 391.872 290.441 392.284 290.605C392.819 290.811 393.354 290.853 393.931 290.77C395.084 290.605 396.237 290.4 397.39 290.153C401.055 289.288 404.432 287.847 407.685 285.87C410.814 284.017 413.614 281.834 415.838 278.911C416.744 277.717 417.979 277.552 419.338 278.293C419.626 278.458 419.956 278.54 420.285 278.705C420.368 277.964 420.862 277.469 421.356 276.975C423.25 275.163 425.062 273.228 427.08 271.54C428.151 270.675 428.892 269.481 429.798 268.41C430.045 268.081 430.251 267.71 430.58 267.422C432.639 265.445 434.245 263.098 436.057 260.916C437.21 259.557 438.198 257.992 439.104 256.468C440.504 254.08 440.298 251.321 438.239 249.18C436.551 247.45 434.821 245.721 433.092 244.032C431.486 242.467 429.551 242.056 427.327 242.55C425.639 242.92 424.239 243.744 422.838 244.65C423.333 245.803 424.115 246.75 425.021 247.656C427.08 249.674 428.686 251.98 430.374 254.245C431.321 255.521 431.404 256.715 430.621 258.115C429.262 260.627 427.986 263.139 426.586 265.651C425.268 268.04 423.456 270.057 421.438 271.869C420.409 272.775 418.638 272.569 417.773 271.54C416.25 269.728 414.809 267.875 413.12 266.228C411.638 264.828 409.991 263.716 408.014 263.098C406.902 262.727 405.708 262.522 404.761 261.78C404.514 261.574 404.226 261.698 403.979 261.78C403.608 261.945 403.237 262.151 402.867 262.357C400.355 263.839 397.843 265.281 395.331 266.763C394.672 267.134 394.013 267.545 393.354 267.916C392.778 268.245 392.16 268.245 391.543 268.204C390.637 268.122 390.019 267.545 389.854 266.639C389.772 266.145 389.772 265.651 389.772 265.198C386.807 265.281 383.801 265.445 380.836 264.992C379.765 264.828 378.612 264.951 377.501 264.869C373.712 264.663 369.882 264.539 366.094 264.128C364.653 263.963 363.17 264.045 361.729 264.004C358.847 263.633 355.923 263.592 353.04 263.633C352.546 263.633 352.052 263.633 351.599 263.51C348.305 262.686 344.887 262.727 341.51 262.439C337.845 262.11 334.222 261.904 330.557 261.41C330.186 262.192 329.61 262.769 328.663 262.81C327.633 262.851 326.727 262.769 326.027 261.863C325.904 261.698 325.739 261.574 325.574 261.41C311.203 247.038 296.831 232.667 282.46 218.296C282.13 217.966 281.76 217.595 281.472 217.225C280.772 216.36 280.813 215.289 280.772 214.26C280.772 213.478 281.225 213.148 281.636 212.695C281.06 212.036 280.442 211.377 279.866 210.719C279.372 210.142 278.919 209.566 278.466 208.989L278.424 209.03Z" fill="#FFB68A"/>
<path d="M330.516 261.493C334.139 261.987 337.804 262.193 341.469 262.522C344.846 262.811 348.264 262.77 351.558 263.593C352.011 263.717 352.505 263.717 352.999 263.717C355.923 263.717 358.806 263.717 361.688 264.087C362.923 259.516 363.376 254.822 363.047 250.086C362.923 248.233 362.635 246.38 362.388 244.527C362.182 243.045 362.182 241.645 362.965 240.286C361.359 240.533 360.329 239.833 359.588 238.433C358.641 236.662 357.57 234.933 356.582 233.203C355.141 230.732 353.37 228.509 351.435 226.409C348.84 223.526 345.546 221.591 342.128 219.82C340.852 219.161 339.493 218.626 338.134 218.008C334.181 216.238 330.022 215.167 325.657 215.208C323.309 215.208 320.921 215.208 318.574 215.208C318.039 215.208 317.462 215.208 316.927 215.332C315.485 215.537 314.085 215.826 312.644 216.032C310.791 216.32 308.938 216.526 307.25 217.391C306.261 217.885 305.191 217.802 304.161 217.596C302.844 217.349 301.979 216.402 301.691 215.043C301.279 213.19 301.855 211.79 303.461 210.761C303.75 210.555 304.079 210.431 304.367 210.267C307.497 208.578 310.915 208.084 314.374 207.672C316.103 207.466 317.791 207.178 319.48 206.972C320.921 206.766 322.404 206.684 323.845 206.972C324.833 207.178 325.78 207.219 326.727 207.261C327.221 207.261 327.757 207.178 328.169 207.343C329.445 207.755 330.804 207.755 332.081 207.672C333.398 207.59 334.551 208.002 335.622 208.619C336.034 208.867 336.363 209.237 336.857 209.361C338.751 209.855 340.44 210.843 342.252 211.543C344.064 212.243 345.752 213.19 347.358 214.302C348.84 215.332 350.323 216.361 351.764 217.473C353.905 219.161 355.841 221.055 357.611 223.114C359.712 225.585 361.647 228.262 362.882 231.309C363.5 232.833 364.571 233.986 365.971 234.892C367.371 232.585 368.03 230.032 368.4 227.438C368.771 224.679 368.318 222.044 367.33 219.449C365.888 215.62 363.541 212.367 360.741 209.402C358.6 207.137 356.129 205.202 353.535 203.431C350.158 201.166 346.493 199.519 342.705 198.119C340.605 197.336 338.381 197.172 336.157 196.966C333.81 196.719 331.463 196.595 329.074 196.472C318.574 196.019 308.279 197.089 298.108 199.807C294.031 200.878 290.037 202.319 286.166 204.09C285.548 204.378 284.89 204.666 284.231 204.831C283.737 204.996 283.407 205.243 283.16 205.737C282.254 207.714 282.089 209.608 283.448 211.461C283.654 211.749 283.819 212.037 284.025 212.326C286.413 214.632 289.213 216.155 292.302 217.308C295.39 218.461 298.437 219.779 301.526 221.014C301.979 221.55 302.391 222.085 302.885 222.579C306.92 226.615 310.462 231.103 314.291 235.303C315.815 236.95 317.05 238.803 318.039 240.78C318.986 242.633 319.15 244.61 318.327 246.586C318.244 247.41 318.862 247.822 319.315 248.316C322.568 251.569 325.78 254.822 329.074 257.993C330.104 258.981 330.68 260.052 330.433 261.493H330.516Z" fill="#824414"/>
<path d="M153.488 267.464C153.2 265.529 152.952 263.635 152.664 261.699C152.458 260.258 152.458 258.817 152.211 257.375C151.923 255.605 151.882 253.793 151.676 251.981C151.511 250.416 151.264 248.81 151.058 247.245C150.852 245.722 150.729 244.198 150.564 242.716C150.111 238.639 149.493 234.603 148.876 230.568C148.382 227.191 147.97 223.856 147.517 220.479C147.023 216.897 146.446 213.355 145.952 209.773C145.458 206.396 145.046 203.06 144.593 199.684C144.264 197.337 143.893 195.031 143.523 192.683C142.122 192.56 140.764 192.972 139.446 193.383C136.357 194.372 133.187 195.237 130.016 195.978C126.557 196.76 123.221 197.872 119.927 199.148C117.209 200.178 114.45 201.166 111.774 202.237C109.962 202.937 108.191 203.678 106.42 204.543C102.756 206.355 98.9259 207.837 95.1786 209.443C91.5549 210.967 87.8076 212.326 84.3074 214.138C87.9312 219.656 91.5137 225.173 95.1374 230.733C95.961 232.009 96.6611 233.45 97.7317 234.48C98.7612 235.468 100.202 236.004 101.438 236.786C103.373 238.021 105.309 239.257 107.12 240.616C109.015 242.016 111.032 243.251 112.885 244.692C116.839 247.739 120.833 250.746 124.621 254.04C126.104 255.316 127.71 256.387 129.192 257.664C133.269 261.081 137.675 264.211 141.299 268.164C142.164 269.07 143.07 269.358 144.264 269.194C146.776 268.782 149.329 268.411 151.882 268.041C152.458 267.958 152.952 267.794 153.447 267.546L153.488 267.464Z" fill="#FFB68A"/>
<path d="M389.731 265.24C389.731 265.734 389.731 266.228 389.813 266.681C389.936 267.587 390.595 268.163 391.501 268.246C392.119 268.287 392.737 268.287 393.313 267.958C393.972 267.587 394.631 267.175 395.29 266.805C397.802 265.322 400.314 263.84 402.825 262.398C403.196 262.193 403.567 262.028 403.937 261.822C404.184 261.698 404.473 261.616 404.72 261.822C405.667 262.563 406.861 262.769 407.973 263.14C409.949 263.799 411.555 264.869 413.079 266.269C414.808 267.916 416.209 269.769 417.732 271.581C418.597 272.611 420.368 272.858 421.397 271.911C423.456 270.099 425.227 268.081 426.544 265.693C427.903 263.181 429.18 260.628 430.58 258.157C431.362 256.757 431.239 255.563 430.333 254.286C428.645 251.98 426.997 249.674 424.98 247.698C424.074 246.833 423.291 245.845 422.797 244.692C422.632 244.609 422.427 244.527 422.262 244.403C421.15 243.333 419.791 243.044 418.268 243.209C416.538 243.456 414.932 244.074 413.45 244.98C411.926 245.886 410.773 247.203 409.496 248.356C408.508 249.304 407.849 250.415 407.355 251.651C407.108 252.31 406.737 252.927 406.573 253.586C406.326 254.574 405.667 255.069 404.843 255.522C403.031 256.551 401.261 257.663 399.49 258.734C396.978 260.216 394.466 261.698 391.954 263.181C391.79 263.263 391.542 263.181 391.337 263.222C391.295 263.469 391.131 263.593 390.884 263.675C390.307 264.087 389.813 264.54 389.607 265.24H389.731Z" fill="#E6A37B"/>
<path d="M366.012 234.891C364.653 233.985 363.582 232.832 362.923 231.308C361.688 228.261 359.753 225.585 357.653 223.114C355.923 221.055 353.988 219.161 351.805 217.472C350.364 216.36 348.923 215.331 347.399 214.302C345.793 213.231 344.105 212.284 342.293 211.543C340.481 210.843 338.793 209.854 336.898 209.36C336.404 209.237 336.075 208.866 335.663 208.619C334.551 207.96 333.439 207.548 332.122 207.672C330.804 207.754 329.486 207.795 328.21 207.342C327.757 207.178 327.263 207.301 326.768 207.26C325.78 207.26 324.833 207.178 323.886 206.972C322.445 206.683 320.962 206.766 319.521 206.972C317.791 207.219 316.103 207.466 314.415 207.672C310.956 208.125 307.538 208.578 304.408 210.266C304.12 210.431 303.791 210.554 303.502 210.76C301.896 211.831 301.32 213.231 301.732 215.043C302.02 216.36 302.885 217.308 304.202 217.596C305.191 217.802 306.261 217.884 307.291 217.39C308.979 216.525 310.832 216.278 312.685 216.031C314.127 215.825 315.527 215.537 316.968 215.331C317.503 215.249 318.08 215.207 318.615 215.207C320.962 215.207 323.351 215.207 325.698 215.207C330.063 215.207 334.181 216.278 338.175 218.008C339.493 218.584 340.852 219.119 342.169 219.82C345.546 221.59 348.84 223.526 351.476 226.408C353.37 228.508 355.182 230.732 356.623 233.203C357.653 234.932 358.682 236.662 359.629 238.432C360.37 239.791 361.4 240.532 363.006 240.285C364.694 238.885 365.929 237.197 366.053 234.891H366.012Z" fill="#5D3718"/>
<path d="M389.401 295.012C389.854 298.307 390.019 301.642 391.378 304.772C393.231 305.142 395.084 305.307 396.937 305.513C400.561 305.966 404.143 305.801 407.767 305.801C413.655 305.801 417.732 302.219 419.05 296.866C419.626 294.518 419.997 292.13 419.997 289.659C419.997 287.806 420.244 285.912 420.326 284.059C420.326 283.359 420.285 282.659 420.244 282C419.873 282.041 419.544 282.165 419.338 282.494C417.732 284.924 415.385 286.53 413.12 288.218C410.896 289.865 408.467 291.224 405.914 292.377C401.796 294.23 397.596 295.795 392.901 295.424C391.748 295.342 390.554 295.424 389.401 294.971V295.012Z" fill="#FFB68A"/>
<path d="M391.378 263.222C391.584 263.222 391.831 263.263 391.996 263.181C394.507 261.698 397.019 260.257 399.531 258.733C401.302 257.663 403.073 256.551 404.885 255.522C405.708 255.069 406.367 254.574 406.614 253.586C406.779 252.927 407.149 252.31 407.396 251.651C407.891 250.415 408.508 249.304 409.538 248.356C410.814 247.162 411.967 245.886 413.491 244.98C415.015 244.074 416.579 243.456 418.309 243.209C417.568 240.985 416.497 239.009 414.767 237.403C413.738 236.456 412.626 235.632 411.391 234.973C410.773 234.644 410.114 234.397 409.538 234.026C407.602 232.914 405.502 232.626 403.32 232.708C401.508 232.708 400.273 233.573 399.325 234.932C398.667 235.838 398.296 236.909 398.214 238.021C398.049 240.45 398.296 242.88 399.078 245.186C400.355 249.098 400.19 247.862 398.337 251.115C396.196 254.821 393.931 258.486 391.707 262.192C391.543 262.481 391.543 262.851 391.419 263.181L391.378 263.222Z" fill="#FFB78B"/>
<path d="M330.516 261.492C330.763 260.051 330.186 259.021 329.157 257.992C325.862 254.821 322.65 251.527 319.397 248.315C318.903 247.821 318.327 247.409 318.409 246.585C317.709 246.585 317.256 246.132 316.844 245.68C311.573 240.162 305.891 235.014 300.414 229.661C299.22 228.508 298.067 227.273 296.873 226.12C294.443 223.855 292.508 221.055 290.037 218.831C289.707 218.543 289.543 218.172 289.501 217.719C287.484 216.566 285.837 215.042 284.313 213.354C284.189 213.231 284.148 212.984 284.066 212.778C283.242 212.778 282.419 212.695 281.554 212.695C281.142 213.148 280.648 213.519 280.689 214.26C280.73 215.29 280.689 216.36 281.389 217.225C281.678 217.596 282.048 217.925 282.378 218.296C296.749 232.667 311.12 247.038 325.492 261.41C325.656 261.575 325.821 261.698 325.945 261.863C326.604 262.769 327.551 262.851 328.58 262.81C329.568 262.81 330.104 262.233 330.474 261.41L330.516 261.492Z" fill="#E6A37B"/>
<path d="M389.401 295.013C390.513 295.425 391.707 295.383 392.901 295.466C397.555 295.836 401.755 294.272 405.914 292.419C408.426 291.266 410.855 289.948 413.12 288.26C415.385 286.571 417.732 284.965 419.338 282.536C419.544 282.247 419.874 282.124 420.244 282.042C420.45 280.93 420.409 279.859 420.327 278.747C419.997 278.624 419.668 278.5 419.379 278.335C418.021 277.594 416.785 277.8 415.879 278.953C413.656 281.836 410.855 284.018 407.726 285.912C404.473 287.848 401.096 289.289 397.431 290.195C396.278 290.483 395.125 290.648 393.972 290.813C393.437 290.895 392.86 290.813 392.325 290.648C391.872 290.483 391.419 290.318 390.966 290.195C390.06 289.907 389.195 289.989 388.495 290.73C388.248 290.977 387.96 291.142 387.672 291.348C387.672 292.872 388.001 294.23 389.442 295.054L389.401 295.013Z" fill="#E6A37B"/>
<path d="M284.107 212.86C284.19 213.066 284.231 213.272 284.354 213.437C285.878 215.125 287.566 216.649 289.543 217.802C289.749 217.802 289.955 217.802 290.161 217.884C292.796 218.708 295.39 219.531 298.026 220.355C299.22 220.726 300.373 221.22 301.649 221.055C298.602 219.82 295.555 218.502 292.425 217.349C289.337 216.196 286.496 214.672 284.148 212.366C284.148 212.531 284.148 212.737 284.148 212.902L284.107 212.86Z" fill="#7B4923"/>
<path d="M390.966 263.676C391.213 263.634 391.378 263.47 391.419 263.223C391.172 263.264 391.048 263.429 390.966 263.676Z" fill="#FFB78B"/>
<path d="M339.987 287.642C337.392 287.065 334.716 287.189 332.121 286.777C331.01 286.612 329.939 286.489 328.827 286.283C327.098 285.953 325.368 285.953 323.639 285.789C322.033 285.624 320.509 285.253 318.944 284.759C318.244 284.553 317.956 284.759 318.121 285.418C318.409 286.571 318.409 287.765 318.45 288.959C319.932 289.536 321.415 289.989 323.021 290.03C324.05 290.03 325.039 290.442 326.068 290.442C329.692 290.442 333.192 289.824 336.61 288.795C337.722 288.465 338.792 288.012 339.904 287.642H339.987Z" fill="#824414"/>
<path d="M301.608 221.015C300.331 221.18 299.178 220.685 297.984 220.315C295.349 219.491 292.754 218.668 290.119 217.844C289.913 217.803 289.707 217.803 289.501 217.762C289.501 218.215 289.707 218.585 290.037 218.874C292.548 221.097 294.443 223.897 296.872 226.162C298.108 227.315 299.219 228.509 300.414 229.704C305.849 235.057 311.532 240.204 316.844 245.722C317.297 246.175 317.709 246.628 318.409 246.628C319.191 244.651 319.068 242.675 318.12 240.822C317.091 238.845 315.856 236.992 314.373 235.345C310.544 231.145 307.002 226.656 302.967 222.621C302.473 222.127 302.061 221.591 301.608 221.056V221.015Z" fill="#FDB589"/>
</svg>
