<?xml version="1.0" encoding="UTF-8"?>
<svg xmlns="http://www.w3.org/2000/svg" version="1.1" viewBox="0 0 1417.3 1417.3">
  <defs>
    <style>
      .cls-1 {
        fill: #ffb78b;
      }

      .cls-2 {
        fill: #5d3718;
      }

      .cls-3 {
        fill: #696d65;
      }

      .cls-4 {
        fill: #e6a37b;
      }

      .cls-5 {
        fill: #fdb589;
      }

      .cls-6 {
        fill: #7b4923;
      }

      .cls-7 {
        fill: #824414;
      }

      .cls-8 {
        fill: #8989de;
      }

      .cls-9 {
        fill: #ffb68a;
      }
    </style>
  </defs>
  <!-- Generator: Adobe Illustrator 28.7.1, SVG Export Plug-In . SVG Version: 1.2.0 Build 142)  -->
  <g>
    <g id="_레이어_1" data-name="레이어_1">
      <g>
        <path class="cls-3" d="M1116.4,661.6c2.8,1.2,5.1,3.2,7.5,5.2,9.6,8,17.1,17.7,24.4,27.7,4,5.5,7,11.6,9.7,17.8,3.8,8.7,6.4,17.7,8.2,27.1,4,19.9,4.5,40,3.6,60.1-1.1,27.3-8.4,53-22.7,76.4-11.1,18.2-25.5,33.2-43.5,44.6-2.2,1.4-3.9,3.2-5.2,5.3-15.3,24.1-33.4,45.9-54,65.6-19.6,18.8-40.9,35.4-64.7,48.6-15.4,8.6-31.5,15.6-48.7,19.6-11.4,2.7-23,3.9-34.7,2.6-25.7-2.8-43.3-18-49.9-40.5-2-6.9-2.9-13.9-3.1-21-.4-15.2,2.4-29.9,7-44.3,6.4-20.3,15.9-39.1,27.1-57.1,4.6-7.3,9.4-14.4,14.5-21.4.7-1,1.4-1.9,2.1-2.9.6-.9.3-1.7-.6-2-.7-.2-1.3-.3-2-.4-8.6-.8-17.2-1.5-25.8-2.3-13-1.2-25.9-2.4-38.9-3.6-8.4-.8-16.8-1.6-25.2-2.3-14.8-1.3-29.6-2.5-44.3-4.9-2.8-.5-5.2,0-7.7,1.5-11.4,7.2-23.7,12.2-36.7,15.6-10.1,2.7-20,6.2-30.3,8.4-13.1,2.7-26.1,5.8-39.2,8.2-10.6,1.9-21.4,3-32.2,3.8-19.2,1.3-38.5,1.2-57.8.8-12.8-.3-25.6-1.2-38.4-2.6-9.7-1-19.5-1.6-29.3-2.3-12.6-.9-25.3-1.8-37.9-2.8-6.7-.5-13.5-.9-20.2-1.4-9.4-.7-18.9-1.6-28.3-2.4-6.4-.5-12.8-1.1-19.2-1.7-4.4-.4-8.7-1.1-12.9-2.7,3.3-7.6,3.7-15.7,4.8-23.7,3.5-2,4.3-5.3,4.3-9,6.7-.3,13.4-1,20.2-1,8,0,15.8-.9,23.7-1.6,3.8-.3,7.7-.5,11.6-1,5.2-.6,10.4-1.2,15.6-1.6,5.5-.5,11.1-.8,16.6-1.3,5-.5,10-1.1,15-1.6,4.3-.4,8.7-.6,13.1-.9,2.7.9,5.3,2,8,2.8,8.4,2.4,16.9,3.9,25.6,4,2.6,0,4.9-1,7.4-1,3.9,0,7.6-1.2,11.1-2.6,5-1,9.8-2.6,14.3-5,6.2-3.3,12.9-4.8,20-4.5,4,.2,8.1.8,11.9,2.1,4.5,1.5,8.9,3.2,13.3,5,5.2,2.1,10.3,4.2,15.7,5.5,2.2.5,4.3.6,6.5.5,3.5-.2,5.6-2.2,6.7-5.3.8-2.2,1.2-4.6,1.1-7,0-2.7,0-5.4,0-8.1,0-3.2,1.1-6,3-8.4,1.7-2.3,3.8-4.4,6.3-5.7,4.3-2.3,8.4-5,13-6.7,6.7-2.5,12-6.8,15.4-13.2,1.7-3.2,2.9-6.4,3.1-10,.3-6.8-.2-13.5-2.3-20,2.6.8,4.7,2.6,6.7,4.4,1.7,1.6,3.4,3.3,5.1,4.9,5.7,5.3,12,9.8,17.7,15.1,6.9,6.3,15.5,10.1,23.7,14.4,11.2,5.9,23.3,8.6,36,9.1,4.4.2,8.8,0,13.2.1,6,.2,11.8-.7,17.5-2.3,1.9-.6,3.8-1.3,5.8-1.8,11.4-3.2,22.3-7.7,32.1-14.5,3.1-2.1,6.2-3,9.9-2.9,18,.5,36.1-.2,54.1.9,12.8.7,25.6.3,38.5.4,1.3,0,2.7,0,4,.2,2.8.7,5.7.6,8.6.6,1.2.6,2.5,1,3.8,1.2,6.2.9,12.3,1.8,18.5,2.8,2.9.5,5.1-.2,7.2-2.5,8.9-9.6,19.5-17.1,29.4-25.5,3.6-3,7.6-5.7,11.1-8.8,9.2-7.9,18.9-15.2,28.5-22.7,4.5-3.5,9.5-6.5,14-9.9,4.5-3.3,9.2-6.3,13.8-9.3,3-1.9,6.5-3.2,9-5.6,2.6-2.5,4.3-6,6.3-9.1,8.8-13.4,17.5-26.8,26.3-40.3.5-.2,1-.3,1.4-.5.7.1,1.5.2,2.2.3Z"/>
        <path class="cls-8" d="M944.7,791.4c-2.9,0-5.7.1-8.6-.6-1.3-.3-2.7-.2-4-.2-12.8-.1-25.7.3-38.5-.4-18-1-36.1-.3-54.1-.9-3.7-.1-6.8.8-9.9,2.9-9.8,6.8-20.7,11.3-32.1,14.5-1.9.5-3.8,1.3-5.8,1.8-5.7,1.6-11.5,2.5-17.5,2.3-4.4-.1-8.8,0-13.2-.1-12.6-.5-24.8-3.2-36-9.1-8.2-4.3-16.8-8.1-23.7-14.4-5.7-5.3-12-9.8-17.7-15.1-1.7-1.6-3.3-3.3-5.1-4.9-2-1.8-4.1-3.6-6.7-4.4-1.2-1.7-3.2-2.4-4.7-3.8-3.2-3-3.2-3.4.5-5.9,7.8-5.3,15.7-10.5,23.5-15.8,4.2-2.9,8.7-5.2,13.6-6.7,7.1-2.2,13.7-5.8,19.9-9.9,6.4-4.4,12.3-9.4,17.4-15.3,3.4-4,6.4-8.2,8.8-12.9,3.4-6.9,5.3-14.2,5.9-21.8.3-3.5.8-7.1-.5-10.5-2.5-6.7-6.1-12.7-11.1-18-4.8-5-10.4-9.1-15.9-13.3-9.1-6.8-19.7-9.5-30.7-10.7-9-.9-17.8.9-26.2,4.2-6.4,2.5-11.8,6.6-16.6,11.4-3.7,3.7-6.8,7.9-10.3,11.8-1.3,1.5-2.6,3.2-4.5,4,.4-4.6,2.4-8.8,4.5-12.8,4.7-8.5,10.9-15.8,18.4-22,12.6-10.6,27.1-17.7,42.4-23.2,12.9-4.7,26.2-7.8,39.7-10.1,6.3-1.1,12.7-2,19.1-2.2,2.5,0,5-.7,7.6-.6,4,.1,8.1.6,12.1,1,5,.5,10.1,1.2,15.1,1.6,5.7.5,11.4.8,17.2,1.3,5.7.5,11.4,1.1,17.1,1.6,1.3.1,2.7.2,4,.3,8.4.5,16.8,1.4,25.1,2.7,11,1.8,21.8,4.5,32.7,6.7,15.7,3.3,31.4,6.6,47.1,9.9,7.8,1.6,15.5,3.4,23.2,5.1.8.2,1.5.7,2.3,1-.9,5.7-1.8,11.3-2.6,17-1.1,8.2-2.2,16.3-3.3,24.5-1.2,8.7-2.6,17.3-3.8,26-1.1,8.2-2.1,16.4-3.3,24.5-1.4,9.8-3,19.6-4.1,29.5-.4,3.7-.7,7.4-1.2,11-.6,3.8-1.1,7.7-1.5,11.5-.5,4.3-.6,8.8-1.3,13.1-.6,3.5-.7,7-1.1,10.5-.6,4.7-1.3,9.3-2,14Z"/>
        <path class="cls-9" d="M641.3,649.5c1.9-.8,3.2-2.5,4.5-4,3.5-3.9,6.6-8.2,10.3-11.8,4.8-4.7,10.2-8.9,16.6-11.4,8.4-3.3,17.2-5.2,26.2-4.2,11,1.1,21.6,3.9,30.7,10.7,5.5,4.1,11.1,8.2,15.9,13.3,5,5.2,8.5,11.3,11.1,18,1.3,3.4.8,7.1.5,10.5-.6,7.6-2.5,14.9-5.9,21.8-2.4,4.7-5.4,9-8.8,12.9-5.1,5.9-11,11-17.4,15.3-6.1,4.2-12.7,7.7-19.9,9.9-4.9,1.5-9.3,3.8-13.6,6.7-7.8,5.3-15.7,10.5-23.5,15.8-3.7,2.5-3.7,3-.5,5.9,1.5,1.4,3.5,2.1,4.7,3.8,2,6.5,2.5,13.2,2.3,20-.1,3.6-1.4,6.9-3.1,10-3.4,6.4-8.7,10.7-15.4,13.2-4.6,1.7-8.7,4.4-13,6.7-2.6,1.4-4.6,3.4-6.3,5.7-1.9,2.5-3,5.2-3,8.4,0,2.7-.1,5.4,0,8.1,0,2.4-.3,4.8-1.1,7-1.1,3-3.3,5.1-6.7,5.3-2.2.1-4.4,0-6.5-.5-5.5-1.3-10.6-3.4-15.7-5.5-4.4-1.7-8.8-3.5-13.3-5-3.8-1.3-7.9-1.9-11.9-2.1-7.1-.4-13.8,1.1-20,4.5-4.5,2.4-9.3,4-14.3,5,.1-2.9.2-5.7.8-8.6.4-1.6-.3-2.2-2-1.6-3.7,1.2-7.5,2.1-11.4,2.5-4.2.4-8.4.4-12.6,1.2-2.6.5-5.3.8-8,1.2-6.3,1-12.8.8-19.1,2.1-4.4.3-8.7.5-13.1.9-5,.5-10,1.1-15,1.6-5.5.5-11.1.8-16.6,1.3-5.2.5-10.4,1.1-15.6,1.6-3.8.4-7.7.6-11.6,1-7.9.6-15.7,1.6-23.7,1.6-6.7,0-13.4.6-20.2,1-.7-.5-1.5-.9-2-1.5-1.7-1.8-3.8-2-6-1.3-1.1.4-2.3.7-3.3,1.1-1.3.5-2.6.6-4,.4-2.8-.4-5.6-.9-8.4-1.5-8.9-2.1-17.1-5.6-25-10.4-7.6-4.5-14.4-9.8-19.8-16.9-2.2-2.9-5.2-3.3-8.5-1.5-.7.4-1.5.6-2.3,1-.2-1.8-1.4-3-2.6-4.2-4.6-4.4-9-9.1-13.9-13.2-2.6-2.1-4.4-5-6.6-7.6-.6-.8-1.1-1.7-1.9-2.4-5-4.8-8.9-10.5-13.3-15.8-2.8-3.3-5.2-7.1-7.4-10.8-3.4-5.8-2.9-12.5,2.1-17.7,4.1-4.2,8.3-8.4,12.5-12.5,3.9-3.8,8.6-4.8,14-3.6,4.1.9,7.5,2.9,10.9,5.1-1.2,2.8-3.1,5.1-5.3,7.3-5,4.9-8.9,10.5-13,16-2.3,3.1-2.5,6-.6,9.4,3.3,6.1,6.4,12.2,9.8,18.3,3.2,5.8,7.6,10.7,12.5,15.1,2.5,2.2,6.8,1.7,8.9-.8,3.7-4.4,7.2-8.9,11.3-12.9,3.6-3.4,7.6-6.1,12.4-7.6,2.7-.9,5.6-1.4,7.9-3.2.6-.5,1.3-.2,1.9,0,.9.4,1.8.9,2.7,1.4,6.1,3.6,12.2,7.1,18.3,10.7,1.6.9,3.2,1.9,4.8,2.8,1.4.8,2.9.8,4.4.7,2.2-.2,3.7-1.6,4.1-3.8.2-1.2.2-2.4.2-3.5,7.2.2,14.5.6,21.7-.5,2.6-.4,5.4-.1,8.1-.3,9.2-.5,18.5-.8,27.7-1.8,3.5-.4,7.1-.2,10.6-.3,7-.9,14.1-1,21.1-.9,1.2,0,2.4,0,3.5-.3,8-2,16.3-1.9,24.5-2.6,8.9-.8,17.7-1.3,26.6-2.5.9,1.9,2.3,3.3,4.6,3.4,2.5.1,4.7-.1,6.4-2.3.3-.4.7-.7,1.1-1.1,34.9-34.9,69.8-69.8,104.7-104.7.8-.8,1.7-1.7,2.4-2.6,1.7-2.1,1.6-4.7,1.7-7.2,0-1.9-1.1-2.7-2.1-3.8,1.4-1.6,2.9-3.2,4.3-4.8,1.2-1.4,2.3-2.8,3.4-4.2Z"/>
        <path class="cls-7" d="M514.8,776.9c-8.8,1.2-17.7,1.7-26.6,2.5-8.2.7-16.5.6-24.5,2.6-1.1.3-2.3.3-3.5.3-7.1,0-14.1,0-21.1.9-3-11.1-4.1-22.5-3.3-34,.3-4.5,1-9,1.6-13.5.5-3.6.5-7-1.4-10.3,3.9.6,6.4-1.1,8.2-4.5,2.3-4.3,4.9-8.5,7.3-12.7,3.5-6,7.8-11.4,12.5-16.5,6.3-7,14.3-11.7,22.6-16,3.1-1.6,6.4-2.9,9.7-4.4,9.6-4.3,19.7-6.9,30.3-6.8,5.7,0,11.5,0,17.2,0,1.3,0,2.7,0,4,.3,3.5.5,6.9,1.2,10.4,1.7,4.5.7,9,1.2,13.1,3.3,2.4,1.2,5,1,7.5.5,3.2-.6,5.3-2.9,6-6.2,1-4.5-.4-7.9-4.3-10.4-.7-.5-1.5-.8-2.2-1.2-7.6-4.1-15.9-5.3-24.3-6.3-4.2-.5-8.3-1.2-12.4-1.7-3.5-.5-7.1-.7-10.6,0-2.4.5-4.7.6-7,.7-1.2,0-2.5-.2-3.5.2-3.1,1-6.4,1-9.5.8-3.2-.2-6,.8-8.6,2.3-1,.6-1.8,1.5-3,1.8-4.6,1.2-8.7,3.6-13.1,5.3-4.4,1.7-8.5,4-12.4,6.7-3.6,2.5-7.2,5-10.7,7.7-5.2,4.1-9.9,8.7-14.2,13.7-5.1,6-9.8,12.5-12.8,19.9-1.5,3.7-4.1,6.5-7.5,8.7-3.4-5.6-5-11.8-5.9-18.1-.9-6.7.2-13.1,2.6-19.4,3.5-9.3,9.2-17.2,16-24.4,5.2-5.5,11.2-10.2,17.5-14.5,8.2-5.5,17.1-9.5,26.3-12.9,5.1-1.9,10.5-2.3,15.9-2.8,5.7-.6,11.4-.9,17.2-1.2,25.5-1.1,50.5,1.5,75.2,8.1,9.9,2.6,19.6,6.1,29,10.4,1.5.7,3.1,1.4,4.7,1.8,1.2.4,2,1,2.6,2.2,2.2,4.8,2.6,9.4-.7,13.9-.5.7-.9,1.4-1.4,2.1-5.8,5.6-12.6,9.3-20.1,12.1-7.5,2.8-14.9,6-22.4,9-1.1,1.3-2.1,2.6-3.3,3.8-9.8,9.8-18.4,20.7-27.7,30.9-3.7,4-6.7,8.5-9.1,13.3-2.3,4.5-2.7,9.3-.7,14.1.2,2-1.3,3-2.4,4.2-7.9,7.9-15.7,15.8-23.7,23.5-2.5,2.4-3.9,5-3.3,8.5Z"/>
        <path class="cls-9" d="M944.7,791.4c.7-4.7,1.3-9.3,2-14,.5-3.5.5-7,1.1-10.5.7-4.3.8-8.7,1.3-13.1.4-3.8,1-7.7,1.5-11.5.5-3.7.8-7.4,1.2-11,1.1-9.9,2.6-19.7,4.1-29.5,1.2-8.2,2.2-16.3,3.3-24.5,1.2-8.7,2.6-17.3,3.8-26,1.2-8.2,2.2-16.3,3.3-24.5.8-5.7,1.7-11.3,2.6-17,3.4-.3,6.7.7,9.9,1.7,7.5,2.4,15.2,4.5,22.9,6.3,8.4,1.9,16.5,4.6,24.5,7.7,6.6,2.5,13.3,4.9,19.8,7.5,4.4,1.7,8.7,3.5,13,5.6,8.9,4.4,18.2,8,27.3,11.9,8.8,3.7,17.9,7,26.4,11.4-8.8,13.4-17.5,26.8-26.3,40.3-2,3.1-3.7,6.6-6.3,9.1-2.5,2.4-6,3.7-9,5.6-4.7,3-9.4,6-13.8,9.3-4.6,3.4-9.5,6.4-14,9.9-9.6,7.4-19.3,14.7-28.5,22.7-3.6,3.1-7.5,5.7-11.1,8.8-9.9,8.3-20.6,15.9-29.4,25.5-2.1,2.2-4.3,2.9-7.2,2.5-6.1-1-12.3-1.9-18.5-2.8-1.4-.2-2.6-.6-3.8-1.2Z"/>
        <path class="cls-4" d="M371,786c0,1.2,0,2.4-.2,3.5-.3,2.2-1.9,3.6-4.1,3.8-1.5.1-3,.1-4.4-.7-1.6-.9-3.2-1.9-4.8-2.8-6.1-3.6-12.2-7.2-18.3-10.7-.9-.5-1.8-.9-2.7-1.4-.6-.3-1.3-.5-1.9,0-2.3,1.8-5.2,2.3-7.9,3.2-4.8,1.6-8.7,4.2-12.4,7.6-4.2,4-7.6,8.5-11.3,12.9-2.1,2.5-6.4,3.1-8.9.8-5-4.4-9.3-9.3-12.5-15.1-3.3-6.1-6.4-12.3-9.8-18.3-1.9-3.4-1.6-6.3.6-9.4,4.1-5.6,8.1-11.2,13-16,2.2-2.1,4.1-4.5,5.3-7.3.4-.2.9-.4,1.3-.7,2.7-2.6,6-3.3,9.7-2.9,4.2.6,8.1,2.1,11.7,4.3,3.7,2.2,6.5,5.4,9.6,8.2,2.4,2.3,4,5,5.2,8,.6,1.6,1.5,3.1,1.9,4.7.6,2.4,2.2,3.6,4.2,4.7,4.4,2.5,8.7,5.2,13,7.8,6.1,3.6,12.2,7.2,18.3,10.8.4.2,1,0,1.5.1,0,0,0,0,0,0,.1.6.5.9,1.1,1.1,1.4,1,2.6,2.1,3.1,3.8Z"/>
        <path class="cls-2" d="M428.6,712.3c3.3-2.2,5.9-5,7.5-8.7,3-7.4,7.7-13.9,12.8-19.9,4.2-5,8.9-9.6,14.2-13.7,3.5-2.7,7-5.2,10.7-7.7,3.9-2.6,8-4.9,12.4-6.7,4.4-1.7,8.5-4.1,13.1-5.3,1.2-.3,2-1.2,3-1.8,2.7-1.6,5.4-2.6,8.6-2.3,3.2.2,6.4.3,9.5-.8,1.1-.4,2.3-.1,3.5-.2,2.4,0,4.7-.2,7-.7,3.5-.7,7.1-.5,10.6,0,4.2.6,8.3,1.2,12.4,1.7,8.4,1.1,16.7,2.2,24.3,6.3.7.4,1.5.7,2.2,1.2,3.9,2.6,5.3,6,4.3,10.4-.7,3.2-2.8,5.5-6,6.2-2.4.5-5,.7-7.5-.5-4.1-2.1-8.6-2.7-13.1-3.3-3.5-.5-6.9-1.2-10.4-1.7-1.3-.2-2.7-.3-4-.3-5.7,0-11.5,0-17.2,0-10.6,0-20.6,2.6-30.3,6.8-3.2,1.4-6.5,2.7-9.7,4.4-8.2,4.3-16.2,9-22.6,16-4.6,5.1-9,10.5-12.5,16.5-2.5,4.2-5,8.4-7.3,12.7-1.8,3.3-4.3,5.1-8.2,4.5-4.1-3.4-7.1-7.5-7.4-13.1Z"/>
        <path class="cls-9" d="M371.8,858.3c-1.1,8-1.5,16.1-4.8,23.7-4.5.9-9,1.3-13.5,1.8-8.8,1.1-17.5.7-26.3.7-14.3,0-24.2-8.7-27.4-21.7-1.4-5.7-2.3-11.5-2.3-17.5,0-4.5-.6-9.1-.8-13.6,0-1.7.1-3.4.2-5,.9.1,1.7.4,2.2,1.2,3.9,5.9,9.6,9.8,15.1,13.9,5.4,4,11.3,7.3,17.5,10.1,10,4.5,20.2,8.3,31.6,7.4,2.8-.2,5.7,0,8.5-1.1Z"/>
        <path class="cls-1" d="M367,781.1c-.5,0-1.1.1-1.5-.1-6.1-3.6-12.2-7.1-18.3-10.8-4.3-2.6-8.6-5.3-13-7.8-2-1.1-3.6-2.3-4.2-4.7-.4-1.6-1.3-3.1-1.9-4.7-1.2-3-2.7-5.7-5.2-8-3.1-2.9-5.9-6-9.6-8.2-3.7-2.2-7.5-3.7-11.7-4.3,1.8-5.4,4.4-10.2,8.6-14.1,2.5-2.3,5.2-4.3,8.2-5.9,1.5-.8,3.1-1.4,4.5-2.3,4.7-2.7,9.8-3.4,15.1-3.2,4.4,0,7.4,2.1,9.7,5.4,1.6,2.2,2.5,4.8,2.7,7.5.4,5.9-.2,11.8-2.1,17.4-3.1,9.5-2.7,6.5,1.8,14.4,5.2,9,10.7,17.9,16.1,26.9.4.7.4,1.6.7,2.4Z"/>
        <path class="cls-4" d="M514.8,776.9c-.6-3.5.8-6,3.3-8.5,8-7.7,15.8-15.7,23.7-23.5,1.2-1.2,2.6-2.2,2.4-4.2,1.7,0,2.8-1.1,3.8-2.2,12.8-13.4,26.6-25.9,39.9-38.9,2.9-2.8,5.7-5.8,8.6-8.6,5.9-5.5,10.6-12.3,16.6-17.7.8-.7,1.2-1.6,1.3-2.7,4.9-2.8,8.9-6.5,12.6-10.6.3-.3.4-.9.6-1.4,2,0,4-.2,6.1-.2,1,1.1,2.2,2,2.1,3.8-.1,2.5,0,5.1-1.7,7.2-.7.9-1.6,1.7-2.4,2.6-34.9,34.9-69.8,69.8-104.7,104.7-.4.4-.8.7-1.1,1.1-1.6,2.2-3.9,2.4-6.4,2.3-2.4,0-3.7-1.4-4.6-3.4Z"/>
        <path class="cls-4" d="M371.8,858.3c-2.7,1-5.6.9-8.5,1.1-11.3.9-21.5-2.9-31.6-7.4-6.1-2.8-12-6-17.5-10.1-5.5-4.1-11.2-8-15.1-13.9-.5-.7-1.3-1-2.2-1.2-.5-2.7-.4-5.3-.2-8,.8-.3,1.6-.6,2.3-1,3.3-1.8,6.3-1.3,8.5,1.5,5.4,7,12.2,12.3,19.8,16.9,7.9,4.7,16.1,8.2,25,10.4,2.8.7,5.6,1.1,8.4,1.5,1.3.2,2.7,0,4-.4,1.1-.4,2.2-.8,3.3-1.1,2.2-.7,4.3-.5,6,1.3.6.6,1.3,1,2,1.5,0,3.7-.8,7-4.3,9Z"/>
        <path class="cls-6" d="M627.5,658.8c-.2.5-.3,1-.6,1.4-3.7,4.1-7.8,7.8-12.6,10.6-.5,0-1,0-1.5.2-6.4,2-12.7,4-19.1,6-2.9.9-5.7,2.1-8.8,1.7,7.4-3,14.8-6.2,22.4-9,7.5-2.8,14.4-6.5,20.1-12.1,0,.4,0,.9,0,1.3Z"/>
        <path class="cls-1" d="M368,782.2c-.6-.1-1-.5-1.1-1.1.6.1.9.5,1.1,1.1Z"/>
        <path class="cls-7" d="M491.8,840.4c6.3-1.4,12.8-1.1,19.1-2.1,2.7-.4,5.3-.7,8-1.2,4.2-.8,8.4-.8,12.6-1.2,3.9-.4,7.6-1.3,11.4-2.5,1.7-.5,2.4,0,2,1.6-.7,2.8-.7,5.7-.8,8.6-3.6,1.4-7.2,2.5-11.1,2.6-2.5,0-4.9,1-7.4,1-8.8,0-17.3-1.5-25.6-4-2.7-.8-5.3-1.9-8-2.8Z"/>
        <path class="cls-5" d="M585,678.6c3.1.4,5.9-.8,8.8-1.7,6.4-2,12.7-4,19.1-6,.5-.1,1-.1,1.5-.2,0,1.1-.5,2-1.3,2.7-6.1,5.4-10.7,12.2-16.6,17.7-3,2.8-5.7,5.7-8.6,8.6-13.2,13-27,25.5-39.9,38.9-1.1,1.1-2.1,2.2-3.8,2.2-1.9-4.8-1.6-9.6.7-14.1,2.5-4.8,5.5-9.3,9.1-13.3,9.3-10.2,17.9-21.1,27.7-30.9,1.2-1.2,2.2-2.5,3.3-3.8Z"/>
      </g>
    </g>
  </g>
</svg>