<svg width="500" height="500" viewBox="0 0 500 500" fill="none" xmlns="http://www.w3.org/2000/svg">
<path d="M83.6308 213.036C83.4254 212.953 83.261 212.912 83.0556 212.83C82.768 212.83 82.4393 212.912 82.1517 212.953C81.2889 213.364 80.4672 213.898 79.6866 214.515C75.2082 218.171 71.5926 222.568 68.4289 227.334C65.9637 230.99 64.2792 235.058 62.9645 239.249C61.8962 242.659 61.3621 246.151 60.828 249.684C59.8419 256.34 59.8008 263.038 60.0884 269.693C60.6225 281.526 63.8272 292.62 70.3189 302.645C74.7973 309.588 80.5083 315.34 87.534 319.737C88.479 320.312 89.0953 321.092 89.6705 321.955C100.517 338.718 114.076 352.893 130.592 364.11C137.166 368.588 144.192 372.327 151.711 375.039C157.134 376.97 162.681 378.285 168.433 378.408C172.5 378.49 176.486 377.997 180.307 376.395C186.963 373.642 191.277 368.711 193.454 361.85C194.399 358.892 194.769 355.892 194.851 352.811C195.016 346.607 193.865 340.608 192.016 334.733C191.688 333.665 191.318 332.597 190.948 331.569C190.496 330.378 190.168 329.186 189.962 327.954C189.592 327.831 189.428 327.584 189.264 327.255C187.743 323.968 186.347 320.64 184.539 317.518C182.772 314.436 181.005 311.396 179.074 308.397C175.541 302.973 171.597 297.879 167.406 292.989C165.639 290.935 163.749 289.004 161.9 287.032C160.709 285.758 159.476 284.526 158.202 283.334C157.463 282.636 157.299 281.814 157.586 280.869C158.285 278.609 158.901 276.308 160.955 274.829C161.037 274.747 161.078 274.583 161.161 274.459C161.982 272.364 163.133 270.474 164.735 268.872C165.68 267.927 166.748 267.146 167.488 266.037C164.242 266.037 160.955 265.872 157.709 266.242C156.148 266.407 154.546 266.366 152.943 266.407C152.45 266.653 151.916 266.817 151.341 266.9C148.794 267.269 146.246 267.639 143.699 268.05C142.507 268.255 141.562 267.968 140.741 267.023C137.084 263.079 132.688 259.956 128.579 256.505C127.1 255.272 125.457 254.163 123.978 252.889C120.198 249.602 116.171 246.644 112.227 243.522C110.378 242.042 108.324 240.851 106.434 239.413C103.64 237.318 100.682 235.51 97.6824 233.743C97.1072 233.414 96.6963 233.003 96.3265 232.469C95.4226 231.072 94.5187 229.675 93.6148 228.279C90.2868 223.143 86.9177 218.007 83.5898 212.871L83.6308 213.036Z" fill="#696D65"/>
<path d="M152.943 266.53C154.546 266.489 156.148 266.53 157.709 266.365C160.955 265.996 164.242 266.201 167.488 266.16C167.899 265.831 168.351 265.462 168.761 265.092C170.405 263.654 172.172 262.586 174.431 262.257C175.869 262.01 177.307 262.01 178.745 261.599C179.074 261.517 179.444 261.517 179.772 261.599C181.539 261.928 183.306 262.175 185.032 262.791C187.373 263.654 189.674 264.599 191.893 265.749C193.577 265.749 195.221 265.749 196.905 265.667C198.097 265.626 199.042 265.955 200.028 266.612C202.493 268.297 205.123 269.735 207.917 270.885C210.628 271.994 213.422 272.816 216.257 273.638C217.572 274.008 218.928 274.459 220.325 274.501C224.515 274.542 228.665 274.829 232.815 274.131C237.293 273.391 241.648 272.2 245.511 269.693C246.086 269.324 246.743 269.036 247.359 268.707C248.797 267.886 250.277 267.064 251.673 266.119C252.701 265.42 253.851 264.763 254.591 263.777C255.166 262.955 255.905 262.339 256.686 261.805C258.823 260.326 260.712 258.6 262.52 256.751C263.342 255.888 264.287 255.19 265.437 254.779C266.095 254.245 266.752 253.752 267.368 253.218C268.724 252.026 268.683 251.821 267.163 250.794C263.917 248.616 260.671 246.48 257.467 244.261C255.741 243.07 253.892 242.125 251.879 241.508C248.921 240.604 246.209 239.125 243.703 237.4C241.073 235.592 238.608 233.496 236.513 231.072C235.116 229.429 233.842 227.703 232.897 225.731C231.5 222.896 230.719 219.856 230.432 216.733C230.309 215.295 230.103 213.816 230.637 212.378C231.664 209.625 233.144 207.119 235.198 204.983C237.17 202.887 239.471 201.244 241.772 199.518C245.511 196.724 249.907 195.574 254.426 195.122C258.165 194.752 261.781 195.492 265.232 196.889C267.861 197.916 270.08 199.641 272.052 201.572C273.572 203.093 274.887 204.818 276.284 206.462C276.818 207.078 277.352 207.776 278.133 208.105C277.928 206.133 277.106 204.325 276.161 202.641C274.189 199.148 271.6 196.19 268.519 193.602C263.712 189.575 258.165 186.781 252.372 184.563C246.702 182.426 240.786 180.988 234.828 180.002C232.199 179.55 229.61 179.18 226.94 179.098C225.912 179.098 224.844 178.811 223.817 178.852C222.132 178.893 220.489 179.098 218.804 179.263C216.709 179.468 214.655 179.756 212.559 179.92C210.217 180.125 207.834 180.249 205.493 180.454C203.151 180.659 200.768 180.906 198.426 181.111C197.85 181.153 197.316 181.194 196.741 181.235C193.249 181.44 189.798 181.81 186.387 182.344C181.827 183.084 177.39 184.193 172.911 185.138C166.419 186.494 159.969 187.85 153.518 189.205C150.314 189.904 147.109 190.602 143.945 191.301C143.617 191.383 143.329 191.588 143 191.712C143.082 192.123 143.206 192.533 143.247 192.944C143.576 195.409 143.904 197.916 144.233 200.381C144.562 202.846 144.972 205.311 145.301 207.818C145.63 210.283 145.917 212.789 146.287 215.254C146.78 218.623 147.314 221.992 147.807 225.361C148.3 228.813 148.629 232.264 149.204 235.674C149.862 239.659 150.149 243.686 150.725 247.671C151.135 250.629 151.259 253.629 151.711 256.587C151.916 258.025 151.957 259.504 152.163 260.942C152.409 262.873 152.697 264.804 152.984 266.694L152.943 266.53Z" fill="#8989DE"/>
<path d="M278.133 208.023C277.311 207.694 276.818 206.996 276.284 206.38C274.846 204.777 273.573 203.011 272.052 201.49C270.08 199.518 267.862 197.834 265.232 196.807C261.74 195.451 258.124 194.67 254.426 195.04C249.907 195.492 245.511 196.642 241.772 199.436C239.471 201.162 237.17 202.805 235.198 204.901C233.144 207.078 231.665 209.543 230.637 212.296C230.103 213.693 230.309 215.213 230.432 216.651C230.72 219.774 231.459 222.814 232.897 225.649C233.883 227.58 235.116 229.347 236.513 230.99C238.608 233.415 241.073 235.51 243.703 237.318C246.25 239.043 248.962 240.522 251.879 241.426C253.892 242.043 255.741 242.988 257.467 244.179C260.671 246.398 263.958 248.493 267.163 250.712C268.683 251.739 268.683 251.985 267.368 253.136C266.752 253.67 266.095 254.204 265.437 254.697C264.739 257.121 264.492 259.586 264.492 262.134C264.492 264.311 265.15 266.201 266.382 268.009C267.574 269.776 269.053 271.214 271.066 272.036C271.724 272.323 272.34 272.611 272.956 272.898C274.887 273.72 276.695 274.747 278.421 275.939C280.27 277.212 281.42 279.02 281.379 281.362C281.379 282.389 281.42 283.458 281.379 284.485C281.379 285.389 281.502 286.293 281.749 287.155C282.16 288.634 283.269 289.497 284.789 289.538C285.611 289.538 286.433 289.538 287.295 289.333C288.939 288.922 290.5 288.429 292.061 287.772C294.65 286.703 297.197 285.594 299.868 284.855C304.305 283.622 308.578 283.91 312.646 286.046C314.453 286.991 316.343 287.648 318.315 288.059C318.274 286.868 318.233 285.676 317.987 284.526C317.822 283.868 318.11 283.622 318.809 283.868C320.329 284.362 321.89 284.731 323.492 284.896C325.218 285.06 326.985 285.06 328.669 285.389C329.779 285.594 330.847 285.717 331.956 285.882C334.586 286.293 337.256 286.21 339.845 286.745C341.242 286.498 342.597 287.032 343.994 287.073C346.09 287.114 348.144 287.361 350.24 287.566C352.458 287.772 354.636 288.059 356.854 288.265C359.155 288.47 361.456 288.511 363.716 288.84C365.524 289.086 367.331 289.128 369.098 289.333C371.851 289.621 374.645 289.99 377.398 289.99C380.808 289.99 384.177 290.401 387.587 290.442C387.875 290.237 388.203 290.072 388.409 289.826C389.107 289.045 389.97 289.004 390.874 289.292C391.326 289.456 391.819 289.579 392.271 289.744C392.805 289.949 393.38 289.99 393.914 289.908C395.065 289.744 396.215 289.538 397.365 289.292C401.022 288.429 404.432 286.95 407.678 285.019C410.801 283.129 413.595 280.951 415.813 278.075C416.717 276.884 417.95 276.719 419.306 277.459C419.593 277.623 419.922 277.747 420.251 277.87C420.333 277.089 420.826 276.637 421.319 276.144C423.209 274.295 425.017 272.405 427.071 270.721C428.139 269.858 428.92 268.667 429.783 267.598C430.07 267.27 430.235 266.9 430.563 266.612C432.618 264.64 434.261 262.257 436.069 260.08C437.219 258.683 438.205 257.162 439.109 255.601C440.506 253.218 440.301 250.465 438.205 248.329C436.521 246.562 434.795 244.878 433.028 243.193C431.385 241.632 429.495 241.221 427.276 241.714C425.592 242.084 424.195 242.947 422.757 243.809C423.25 244.96 424.072 245.946 424.975 246.809C427.03 248.822 428.673 251.123 430.358 253.424C431.303 254.697 431.385 255.93 430.604 257.286C429.207 259.792 427.934 262.339 426.578 264.845C425.263 267.27 423.455 269.283 421.401 271.091C420.374 271.995 418.607 271.789 417.744 270.721C416.224 268.913 414.786 267.023 413.06 265.421C411.581 264.024 409.938 262.914 407.966 262.257C406.856 261.887 405.665 261.682 404.72 260.942C404.473 260.737 404.186 260.86 403.939 260.942C403.57 261.107 403.159 261.312 402.83 261.518C400.324 262.997 397.776 264.476 395.27 265.955C394.613 266.325 393.955 266.735 393.298 267.105C392.723 267.434 392.106 267.434 391.49 267.393C390.586 267.311 389.97 266.735 389.806 265.832C389.723 265.339 389.723 264.846 389.723 264.352C386.724 264.435 383.766 264.599 380.767 264.147C379.657 263.983 378.548 264.106 377.439 264.024C373.618 263.818 369.838 263.695 366.017 263.284C364.579 263.12 363.1 263.202 361.62 263.161C358.744 262.791 355.827 262.75 352.91 262.791C352.417 262.791 351.924 262.791 351.472 262.668C348.144 261.846 344.734 261.887 341.365 261.6C337.708 261.271 334.052 261.066 330.395 260.573C329.984 261.353 329.45 261.928 328.505 261.969C327.478 262.011 326.574 261.928 325.875 261.024C325.752 260.86 325.588 260.737 325.423 260.573C311.043 246.192 296.622 231.771 282.242 217.391C281.913 217.062 281.543 216.692 281.256 216.323C280.557 215.46 280.598 214.392 280.557 213.323C280.557 212.543 281.009 212.214 281.42 211.762C280.845 211.105 280.229 210.447 279.653 209.79C279.16 209.215 278.708 208.639 278.256 208.064L278.133 208.023Z" fill="#FFB68A"/>
<path d="M318.274 288.058C316.302 287.647 314.412 286.99 312.604 286.045C308.537 283.909 304.264 283.621 299.827 284.854C297.115 285.593 294.567 286.702 292.02 287.771C290.459 288.428 288.898 288.921 287.254 289.332C286.432 289.537 285.611 289.579 284.748 289.537C283.228 289.455 282.118 288.592 281.708 287.154C281.461 286.292 281.297 285.388 281.338 284.484C281.338 283.457 281.338 282.388 281.338 281.361C281.338 278.978 280.228 277.212 278.379 275.938C276.654 274.746 274.846 273.719 272.915 272.898C272.258 272.61 271.641 272.322 271.025 272.035C269.012 271.213 267.574 269.775 266.341 268.008C265.109 266.242 264.451 264.31 264.451 262.133C264.451 259.627 264.739 257.12 265.396 254.696C264.246 255.107 263.342 255.847 262.479 256.668C260.671 258.517 258.74 260.243 256.645 261.722C255.864 262.256 255.125 262.914 254.549 263.694C253.81 264.721 252.66 265.338 251.632 266.036C250.276 266.981 248.797 267.762 247.318 268.625C246.702 268.994 246.086 269.241 245.469 269.611C241.566 272.117 237.252 273.308 232.774 274.048C228.624 274.746 224.433 274.459 220.284 274.418C218.887 274.418 217.531 273.966 216.216 273.555C213.422 272.733 210.628 271.911 207.875 270.802C205.082 269.693 202.452 268.255 199.987 266.529C199.001 265.872 198.056 265.543 196.864 265.584C195.18 265.666 193.536 265.666 191.852 265.666C193.084 266.693 194.235 267.803 195.55 268.707C197.563 270.104 199.453 271.624 201.343 273.144C204.342 275.568 207.013 278.239 209.848 280.868C211.286 282.224 212.559 283.662 213.751 285.182C214.244 285.799 214.614 286.415 214.942 287.113C216.093 289.661 217.243 292.208 218.188 294.796C218.394 295.372 218.722 295.741 219.297 295.947C223.118 295.536 226.939 295.166 230.678 294.509C231.705 294.345 232.568 294.55 233.431 295.125C238.32 298.207 243.579 300.302 249.167 301.74C252.66 302.644 256.07 303.918 259.603 304.698C265.396 305.931 271.148 307.287 276.983 308.355C281.584 309.218 286.227 309.67 290.87 309.998C298.799 310.533 306.77 310.491 314.7 310.327C320 310.204 325.259 309.793 330.559 309.259C334.586 308.848 338.612 308.601 342.638 308.314C347.856 307.944 353.074 307.574 358.292 307.163C361.086 306.958 363.839 306.794 366.633 306.547C370.536 306.218 374.398 305.89 378.301 305.561C380.931 305.356 383.56 305.15 386.231 304.863C387.957 304.698 389.682 304.452 391.326 303.794C390.011 300.672 389.805 297.303 389.354 294.016C387.957 293.153 387.505 291.838 387.587 290.318C384.177 290.318 380.808 289.866 377.397 289.866C374.645 289.866 371.851 289.496 369.098 289.209C367.29 289.003 365.482 289.003 363.716 288.716C361.456 288.387 359.155 288.346 356.854 288.141C354.636 287.935 352.458 287.647 350.239 287.442C348.185 287.237 346.09 286.99 343.994 286.949C342.597 286.949 341.242 286.374 339.845 286.62C338.735 286.99 337.667 287.442 336.558 287.771C333.106 288.798 329.614 289.373 325.999 289.414C324.93 289.414 323.985 289.003 322.917 289.003C321.315 289.003 319.794 288.51 318.315 287.935L318.274 288.058Z" fill="#6A6E66"/>
<path d="M330.313 260.532C333.969 261.025 337.626 261.23 341.283 261.559C344.652 261.846 348.062 261.805 351.39 262.627C351.842 262.75 352.335 262.75 352.828 262.75C355.745 262.75 358.662 262.75 361.538 263.12C362.771 258.518 363.223 253.835 362.894 249.11C362.771 247.261 362.483 245.371 362.237 243.522C362.031 242.043 362.031 240.605 362.812 239.29C361.21 239.537 360.183 238.838 359.443 237.441C358.498 235.675 357.43 233.949 356.403 232.223C354.965 229.758 353.157 227.539 351.267 225.444C348.678 222.568 345.35 220.637 341.981 218.829C340.708 218.172 339.311 217.638 337.996 217.021C334.011 215.255 329.902 214.186 325.506 214.186C323.123 214.186 320.781 214.186 318.398 214.186C317.864 214.186 317.288 214.186 316.754 214.31C315.316 214.515 313.878 214.803 312.44 215.008C310.591 215.296 308.742 215.542 307.017 216.364C306.031 216.857 304.963 216.775 303.935 216.569C302.621 216.323 301.758 215.378 301.429 214.022C301.018 212.173 301.593 210.776 303.196 209.708C303.483 209.503 303.812 209.379 304.1 209.215C307.222 207.53 310.674 207.037 314.125 206.627C315.85 206.421 317.535 206.133 319.261 205.887C320.699 205.682 322.219 205.599 323.616 205.887C324.602 206.092 325.547 206.133 326.492 206.175C326.985 206.175 327.519 206.092 327.93 206.257C329.203 206.668 330.559 206.668 331.874 206.585C333.189 206.503 334.339 206.914 335.449 207.53C335.859 207.777 336.188 208.147 336.681 208.27C338.571 208.763 340.297 209.749 342.105 210.448C343.912 211.146 345.597 212.091 347.24 213.2C348.719 214.227 350.199 215.255 351.637 216.364C353.814 218.048 355.745 219.98 357.471 222.034C359.566 224.499 361.497 227.17 362.771 230.251C363.387 231.771 364.455 232.922 365.852 233.826C367.249 231.525 367.948 228.977 368.276 226.348C368.646 223.595 368.194 220.925 367.208 218.377C365.77 214.515 363.428 211.269 360.634 208.311C358.457 206.01 356.033 204.079 353.403 202.354C350.034 200.053 346.378 198.409 342.556 197.053C340.461 196.273 338.201 196.108 335.983 195.903C333.641 195.656 331.258 195.533 328.916 195.41C318.398 194.958 308.044 196.026 297.896 198.738C293.787 199.847 289.802 201.244 285.94 203.011C285.323 203.299 284.666 203.586 284.009 203.792C283.474 203.956 283.187 204.202 282.94 204.695C282.036 206.668 281.872 208.558 283.228 210.406C283.433 210.694 283.598 210.982 283.803 211.269C286.186 213.57 289.021 215.131 292.103 216.282C295.225 217.432 298.265 218.747 301.306 219.98C301.758 220.514 302.169 221.048 302.662 221.541C306.688 225.608 310.222 230.087 314.084 234.278C315.604 235.921 316.836 237.811 317.864 239.783C318.809 241.632 318.973 243.645 318.151 245.617C318.069 246.439 318.685 246.85 319.137 247.343C322.383 250.589 325.588 253.835 328.916 257.039C329.943 258.025 330.518 259.094 330.272 260.532H330.313Z" fill="#824414"/>
<path d="M152.943 266.53C152.656 264.599 152.409 262.668 152.121 260.778C151.916 259.34 151.875 257.861 151.669 256.423C151.259 253.465 151.094 250.465 150.683 247.507C150.108 243.522 149.862 239.495 149.163 235.51C148.588 232.1 148.259 228.649 147.766 225.197C147.273 221.828 146.739 218.459 146.246 215.09C145.876 212.625 145.589 210.119 145.26 207.653C144.931 205.188 144.52 202.723 144.192 200.217C143.863 197.752 143.534 195.245 143.206 192.78C143.165 192.369 143.041 191.958 142.959 191.548C141.521 191.424 140.206 191.835 138.892 192.246C135.769 193.232 132.647 194.095 129.483 194.835C126.032 195.615 122.663 196.725 119.376 197.998C116.664 199.066 113.911 200.011 111.199 201.08C109.392 201.778 107.584 202.559 105.858 203.38C102.16 205.188 98.3395 206.667 94.6007 208.27C90.944 209.831 87.2051 211.146 83.7128 212.954C87.0408 218.089 90.4098 223.225 93.7378 228.361C94.6417 229.758 95.5456 231.155 96.4495 232.552C96.7782 233.086 97.2302 233.497 97.8054 233.825C100.805 235.592 103.763 237.4 106.557 239.495C108.447 240.892 110.501 242.125 112.35 243.604C116.294 246.685 120.321 249.685 124.101 252.972C125.58 254.245 127.223 255.314 128.702 256.587C132.811 260.038 137.207 263.161 140.864 267.105C141.727 268.009 142.63 268.338 143.822 268.132C146.369 267.722 148.917 267.352 151.464 266.982C152.039 266.9 152.532 266.736 153.066 266.489L152.943 266.53Z" fill="#FFB68A"/>
<path d="M219.256 296.03C218.722 295.825 218.353 295.455 218.147 294.88C217.202 292.25 216.052 289.703 214.901 287.196C214.573 286.498 214.203 285.841 213.71 285.265C212.518 283.745 211.245 282.266 209.807 280.951C207.013 278.322 204.301 275.651 201.302 273.227C199.412 271.707 197.522 270.187 195.509 268.79C194.194 267.886 193.043 266.777 191.811 265.749C189.592 264.599 187.291 263.654 184.949 262.791C183.265 262.175 181.457 261.969 179.69 261.6C179.362 261.518 178.992 261.518 178.663 261.6C177.266 261.969 175.787 262.011 174.349 262.257C172.089 262.627 170.323 263.695 168.679 265.092C168.268 265.462 167.816 265.791 167.406 266.16C166.666 267.27 165.598 268.091 164.653 268.995C163.05 270.598 161.9 272.488 161.078 274.583C162.146 274.213 163.215 274.213 164.324 274.542C169.46 275.98 174.637 277.336 179.814 278.733C180.43 278.897 181.005 279.061 181.621 279.226C182.525 279.513 183.142 280.047 183.429 281.034C183.922 282.718 184.333 284.403 184.497 286.128C184.785 288.84 185.114 291.511 185.483 294.181C185.812 296.523 185.812 296.482 187.661 297.92C187.99 298.166 188.318 298.413 188.647 298.701C189.756 299.153 190.619 300.015 191.605 300.673C192.304 301.166 192.674 301.946 192.92 302.727C193.742 305.11 194.605 307.452 195.426 309.794C195.96 311.314 196.864 312.629 197.686 314.026C198.056 314.683 198.713 315.176 199.371 315.546C203.274 317.682 207.424 318.463 211.861 317.765C213.669 317.477 215.353 316.861 216.956 315.998C217.818 315.505 218.558 314.889 219.092 314.026C220.407 311.93 221.27 309.671 221.639 307.247C221.722 306.795 221.598 306.425 221.475 306.014C220.653 303.22 219.914 300.385 219.051 297.591C218.887 297.016 218.722 296.523 219.133 296.03H219.256Z" fill="#FFB68A"/>
<path d="M188.729 298.659C188.401 298.413 188.072 298.166 187.743 297.878C185.935 296.482 185.894 296.482 185.566 294.14C185.196 291.469 184.867 288.757 184.58 286.087C184.374 284.361 184.004 282.677 183.511 280.992C183.224 280.006 182.607 279.472 181.704 279.184C181.128 278.979 180.512 278.856 179.896 278.691C174.719 277.294 169.542 275.897 164.406 274.5C163.297 274.172 162.229 274.213 161.16 274.541C161.078 274.665 161.037 274.829 160.955 274.911C158.86 276.39 158.284 278.691 157.586 280.951C157.298 281.896 157.422 282.677 158.202 283.416C159.476 284.608 160.708 285.84 161.9 287.114C163.749 289.086 165.68 291.017 167.406 293.071C171.555 298.002 175.541 303.055 179.074 308.479C181.005 311.437 182.772 314.518 184.539 317.6C186.346 320.764 187.743 324.092 189.263 327.337C189.428 327.666 189.592 327.913 189.962 328.036C189.099 321.215 188.236 314.395 187.373 307.575C187.045 305.11 186.716 302.603 186.428 300.138C186.305 299.193 186.428 299.111 187.373 298.906C187.866 298.823 188.318 298.741 188.811 298.659H188.729Z" fill="#4A4A44"/>
<path d="M389.6 264.311C389.6 264.804 389.6 265.297 389.682 265.79C389.806 266.694 390.463 267.27 391.367 267.352C391.983 267.393 392.641 267.393 393.175 267.064C393.832 266.694 394.489 266.284 395.147 265.914C397.653 264.435 400.2 262.956 402.707 261.476C403.076 261.271 403.446 261.107 403.816 260.901C404.063 260.778 404.35 260.696 404.597 260.901C405.542 261.641 406.733 261.846 407.842 262.216C409.815 262.873 411.458 263.942 412.937 265.38C414.663 267.023 416.101 268.913 417.621 270.68C418.484 271.707 420.251 271.953 421.278 271.05C423.332 269.242 425.14 267.228 426.455 264.804C427.81 262.298 429.084 259.751 430.481 257.245C431.262 255.848 431.179 254.615 430.235 253.382C428.55 251.082 426.907 248.781 424.852 246.768C423.948 245.905 423.168 244.919 422.634 243.768C422.469 243.686 422.264 243.604 422.099 243.481C420.949 242.412 419.634 242.125 418.114 242.289C416.388 242.536 414.786 243.152 413.266 244.056C411.746 244.96 410.595 246.274 409.322 247.466C408.336 248.411 407.678 249.52 407.185 250.753C406.939 251.41 406.569 252.027 406.404 252.684C406.158 253.67 405.501 254.163 404.679 254.656C402.871 255.683 401.104 256.793 399.297 257.861C396.79 259.34 394.284 260.819 391.737 262.298C391.572 262.38 391.326 262.298 391.12 262.339C391.079 262.586 390.915 262.75 390.668 262.791C390.093 263.202 389.6 263.695 389.395 264.394L389.6 264.311Z" fill="#E6A37B"/>
<path d="M365.852 233.907C364.496 233.003 363.387 231.853 362.771 230.333C361.497 227.251 359.566 224.622 357.471 222.115C355.745 220.061 353.773 218.13 351.636 216.445C350.198 215.336 348.719 214.309 347.24 213.282C345.638 212.172 343.912 211.227 342.104 210.529C340.297 209.831 338.612 208.844 336.681 208.351C336.188 208.228 335.859 207.858 335.448 207.612C334.339 206.954 333.23 206.544 331.874 206.667C330.559 206.749 329.244 206.79 327.93 206.338C327.478 206.174 326.944 206.297 326.492 206.256C325.506 206.256 324.561 206.174 323.616 205.968C322.178 205.681 320.698 205.763 319.26 205.968C317.535 206.215 315.85 206.461 314.125 206.708C310.673 207.16 307.222 207.612 304.1 209.296C303.812 209.461 303.483 209.584 303.196 209.789C301.593 210.858 301.018 212.255 301.429 214.103C301.717 215.459 302.579 216.363 303.935 216.651C304.921 216.856 306.031 216.938 307.017 216.445C308.701 215.583 310.591 215.336 312.44 215.09C313.878 214.884 315.316 214.597 316.754 214.391C317.288 214.309 317.864 214.268 318.398 214.268C320.781 214.268 323.123 214.268 325.506 214.268C329.902 214.268 334.01 215.336 337.996 217.103C339.311 217.678 340.707 218.212 341.981 218.911C345.391 220.677 348.678 222.649 351.267 225.525C353.198 227.621 354.964 229.84 356.402 232.305C357.43 234.03 358.457 235.756 359.443 237.523C360.182 238.92 361.21 239.618 362.812 239.372C364.538 237.975 365.729 236.249 365.852 233.948V233.907Z" fill="#5D3718"/>
<path d="M389.272 294.141C389.723 297.428 389.929 300.797 391.244 303.919C393.093 304.289 394.941 304.453 396.79 304.659C400.406 305.111 404.021 304.946 407.637 304.946C413.554 304.946 417.621 301.372 418.936 295.99C419.511 293.648 419.881 291.224 419.881 288.799C419.881 286.951 420.127 285.061 420.209 283.171C420.209 282.472 420.168 281.774 420.127 281.075C419.758 281.116 419.429 281.24 419.223 281.568C417.621 283.992 415.279 285.636 412.978 287.32C410.76 289.005 408.294 290.32 405.788 291.47C401.638 293.319 397.448 294.88 392.764 294.51C391.572 294.428 390.422 294.51 389.272 294.058V294.141Z" fill="#FFB68A"/>
<path d="M391.285 262.257C391.49 262.257 391.737 262.298 391.901 262.216C394.407 260.737 396.955 259.258 399.461 257.779C401.269 256.71 403.035 255.601 404.843 254.574C405.665 254.122 406.322 253.629 406.569 252.602C406.733 251.944 407.103 251.328 407.349 250.671C407.842 249.438 408.459 248.288 409.486 247.384C410.76 246.192 411.91 244.919 413.43 243.974C414.95 243.07 416.512 242.453 418.278 242.207C417.539 239.988 416.471 238.016 414.745 236.414C413.718 235.469 412.608 234.647 411.376 233.99C410.76 233.661 410.102 233.414 409.527 233.045C407.596 231.935 405.5 231.648 403.282 231.73C401.474 231.73 400.241 232.593 399.255 233.949C398.598 234.852 398.228 235.921 398.146 237.071C397.982 239.536 398.228 241.919 399.009 244.261C400.283 248.164 400.118 246.932 398.269 250.178C396.133 253.917 393.832 257.573 391.654 261.271C391.49 261.559 391.449 261.928 391.367 262.257H391.285Z" fill="#FFB78B"/>
<path d="M330.313 260.532C330.559 259.094 329.984 258.026 328.957 257.04C325.67 253.835 322.424 250.589 319.178 247.343C318.685 246.85 318.069 246.44 318.192 245.618C317.494 245.618 317.042 245.166 316.631 244.714C311.331 239.167 305.661 234.032 300.196 228.69C299.005 227.499 297.854 226.307 296.622 225.157C294.157 222.897 292.267 220.103 289.76 217.844C289.432 217.556 289.267 217.186 289.226 216.734C287.213 215.584 285.57 214.064 284.008 212.379C283.885 212.256 283.844 212.009 283.762 211.804C282.94 211.804 282.077 211.722 281.256 211.722C280.845 212.174 280.352 212.543 280.393 213.283C280.434 214.351 280.393 215.378 281.091 216.282C281.42 216.652 281.749 217.022 282.077 217.351C296.458 231.772 310.879 246.152 325.259 260.532C325.423 260.697 325.588 260.82 325.711 260.984C326.368 261.888 327.313 261.97 328.34 261.929C329.327 261.929 329.861 261.354 330.23 260.532H330.313Z" fill="#E6A37B"/>
<path d="M389.272 294.14C390.422 294.55 391.572 294.509 392.764 294.591C397.448 294.961 401.639 293.4 405.788 291.551C408.336 290.401 410.76 289.086 412.978 287.401C415.238 285.717 417.621 284.073 419.223 281.649C419.429 281.362 419.758 281.238 420.127 281.156C420.333 280.047 420.292 278.938 420.21 277.869C419.881 277.746 419.552 277.623 419.265 277.458C417.909 276.719 416.676 276.924 415.772 278.075C413.554 280.992 410.76 283.17 407.637 285.018C404.391 286.949 400.981 288.429 397.324 289.291C396.174 289.579 395.024 289.743 393.873 289.908C393.339 289.99 392.764 289.908 392.23 289.743C391.778 289.579 391.326 289.415 390.833 289.291C389.888 289.004 389.066 289.086 388.368 289.825C388.121 290.072 387.834 290.236 387.546 290.442C387.464 292.003 387.957 293.277 389.313 294.14H389.272Z" fill="#E6A37B"/>
<path d="M283.803 211.803C283.885 212.008 283.927 212.214 284.05 212.378C285.57 214.062 287.255 215.624 289.268 216.733C289.473 216.733 289.679 216.733 289.884 216.815C292.514 217.637 295.143 218.5 297.773 219.28C298.964 219.65 300.115 220.143 301.388 219.979C298.307 218.746 295.266 217.432 292.185 216.281C289.103 215.131 286.268 213.61 283.885 211.269C283.885 211.433 283.885 211.638 283.885 211.803H283.803Z" fill="#7B4923"/>
<path d="M390.874 262.709C391.12 262.668 391.285 262.503 391.326 262.257C391.079 262.298 390.956 262.503 390.874 262.709Z" fill="#FFB78B"/>
<path d="M318.274 288.059C319.753 288.634 321.274 289.086 322.876 289.127C323.903 289.127 324.889 289.538 325.957 289.538C329.573 289.538 333.065 288.922 336.517 287.895C337.626 287.566 338.735 287.114 339.803 286.744C337.215 286.169 334.544 286.292 331.915 285.882C330.806 285.717 329.696 285.594 328.628 285.389C326.902 285.06 325.177 285.06 323.451 284.896C321.849 284.731 320.287 284.361 318.767 283.868C318.069 283.663 317.781 283.868 317.946 284.526C318.233 285.676 318.233 286.868 318.274 288.059Z" fill="#824414"/>
<path d="M301.347 219.979C300.073 220.144 298.923 219.651 297.731 219.281C295.102 218.459 292.472 217.637 289.843 216.816C289.637 216.774 289.432 216.774 289.226 216.733C289.226 217.185 289.432 217.555 289.76 217.843C292.267 220.061 294.157 222.855 296.622 225.156C297.854 226.307 299.005 227.539 300.196 228.689C305.661 234.072 311.331 239.208 316.631 244.713C317.083 245.165 317.494 245.617 318.192 245.617C318.973 243.645 318.85 241.632 317.905 239.783C316.877 237.811 315.645 235.921 314.125 234.277C310.262 230.086 306.729 225.567 302.703 221.54C302.21 221.047 301.799 220.513 301.347 219.979Z" fill="#FDB589"/>
</svg>
