<svg width="500" height="500" viewBox="0 0 500 500" fill="none" xmlns="http://www.w3.org/2000/svg">
<path d="M223.599 403.168C224.886 403.428 226.19 403.242 227.486 403.262C231.446 403.331 235.411 403.376 239.371 403.453C247.17 403.611 254.961 403.343 262.752 403.071C267.423 402.909 272.094 402.653 276.761 402.332C286.156 401.678 295.531 400.788 304.833 399.281C312.474 398.046 320.013 396.397 327.352 393.891C331.479 392.481 335.436 390.67 339.388 388.858C342.248 387.55 344.729 385.657 347.065 383.574C348.596 382.209 349.579 380.434 350.591 378.699C351.505 377.132 352.35 375.503 352.723 373.703C353.629 369.365 353.089 365.173 351.261 361.16C350.176 358.78 348.69 356.643 346.935 354.71C345.452 353.077 344.031 351.379 342.195 350.107C341.5 351.509 340.619 352.772 339.473 353.848C338.039 355.193 336.447 355.916 334.388 355.806C331.922 355.676 329.473 355.441 327.023 355.181C324.509 354.913 322.007 354.58 319.476 354.559C318.502 354.551 317.527 354.446 316.556 354.494C315.443 354.551 314.557 354.113 313.692 353.487C312.327 352.496 310.95 351.517 309.541 350.599C308.075 349.644 306.58 348.755 304.922 348.121C300.434 346.403 295.864 344.961 291.173 343.905C289.276 343.478 287.395 342.987 285.559 342.329C282.017 341.057 278.479 339.786 274.925 338.555C270.331 336.963 265.745 335.35 261.269 333.433C254.173 330.395 247.036 327.454 239.928 324.448C237.949 323.611 235.939 322.897 233.822 322.519C231.381 322.71 228.997 322.121 226.58 321.991C226.527 321.991 226.474 321.922 226.422 321.885C224.411 321.796 222.408 321.629 220.406 321.483C217.043 321.239 213.683 320.979 210.324 320.695C206.059 320.334 201.786 320.09 197.517 319.793C197.192 319.769 196.867 319.761 196.546 319.732C194.288 319.521 192.033 319.29 189.771 319.099C186.672 318.835 183.568 318.591 180.465 318.359C179.628 318.298 178.783 318.181 177.943 318.359C177.301 321.67 176.643 324.976 176.021 328.291C174.953 333.973 174.092 339.685 173.99 345.473C173.877 352.065 174.478 358.568 176.821 364.812C179.035 370.701 182.565 375.539 188.02 378.842C188.13 378.907 188.219 379.004 188.321 379.085C188.629 379.012 188.975 379 189.247 378.858C190.335 378.289 191.408 377.684 192.48 377.079C197.249 374.386 202.314 372.481 207.635 371.209C212.25 370.108 216.49 371.091 220.483 373.451C221.828 374.243 223.001 375.263 224.029 376.449C224.915 377.469 225.398 378.565 225.248 379.983C224.943 382.875 224.634 385.775 224.553 388.68C224.439 392.693 223.924 396.686 224.017 400.703C224.037 401.552 223.972 402.385 223.603 403.168H223.599ZM226.093 376.262C227.547 375.003 229.184 374.077 230.825 373.195C236.312 370.251 241.93 367.59 247.852 365.616C251.597 364.369 255.326 363.065 259.161 362.115C262.106 361.383 265.051 360.644 268.016 359.998C271.038 359.336 274.076 358.755 277.151 358.345C278.232 358.199 279.324 358.069 280.409 357.898C281.936 357.655 283.463 357.37 285.003 357.273C287.131 357.143 289.231 356.639 291.384 356.826C291.632 356.846 291.908 356.785 292.144 356.696C292.834 356.428 293.549 356.477 294.26 356.477C299 356.473 303.736 356.473 308.477 356.468C308.867 356.468 309.257 356.485 309.647 356.481C310.162 356.481 310.495 356.688 310.638 357.212C310.91 358.211 311.218 359.198 311.499 360.193C311.71 360.941 311.584 361.111 310.788 361.127C310.398 361.136 309.98 361.201 309.626 361.087C308.229 360.632 306.799 360.778 305.381 360.766C302.396 360.75 299.41 360.762 296.425 360.766C295.905 360.766 295.353 360.673 294.873 360.819C293.472 361.245 292.046 361.095 290.624 361.156C290.044 361.18 289.447 361.172 288.894 361.322C288.252 361.497 287.615 361.562 286.969 361.526C285.206 361.42 283.5 361.891 281.765 362.041C279.653 362.224 277.569 362.716 275.474 363.077C272.931 363.52 270.368 363.865 267.857 364.442C264.21 365.283 260.57 366.168 256.975 367.241C251.821 368.776 246.739 370.494 241.764 372.533C240.139 373.2 238.611 374.057 236.987 374.702C235.476 375.304 234.046 376.043 232.645 376.859C231.093 377.761 229.468 378.545 227.734 379.459C227.348 378.253 226.365 377.489 226.097 376.262H226.093Z" fill="#6A6C65"/>
<path d="M233.822 322.515C235.942 322.893 237.949 323.608 239.927 324.444C247.036 327.45 254.172 330.391 261.269 333.429C265.745 335.347 270.331 336.959 274.925 338.552C278.479 339.782 282.017 341.058 285.559 342.325C287.395 342.983 289.276 343.479 291.172 343.901C295.864 344.957 300.43 346.399 304.922 348.117C306.579 348.751 308.074 349.641 309.54 350.595C310.954 351.513 312.331 352.492 313.692 353.483C314.557 354.113 315.438 354.547 316.555 354.491C317.526 354.442 318.501 354.547 319.476 354.556C322.007 354.576 324.513 354.909 327.023 355.177C329.472 355.441 331.922 355.673 334.387 355.803C336.447 355.912 338.039 355.189 339.473 353.845C340.618 352.768 341.5 351.505 342.194 350.104C341.772 349.194 341.077 348.572 340.241 348.016C335.923 345.144 331.633 342.236 327.352 339.315C325.374 337.967 323.42 336.573 321.483 335.164C320.845 334.701 320.175 334.307 319.452 334.031C316.551 332.914 313.643 331.821 310.731 330.736C309.155 330.147 307.558 329.607 305.986 329.002C303.984 328.234 302.156 327.105 300.267 326.114C298.029 324.94 295.84 323.673 293.614 322.479C289.219 320.119 284.807 317.779 280.404 315.427C274.689 312.372 268.978 309.302 263.259 306.255C258.795 303.879 254.319 301.527 249.85 299.167C248.189 298.29 246.548 297.364 244.862 296.543C243.705 295.978 242.486 295.54 241.398 294.841C240.163 294.752 239.066 294.203 237.929 293.801C237.368 293.602 236.917 293.225 236.637 292.705C235.447 290.511 234.472 288.232 233.859 285.807C233.737 285.438 233.595 285.076 233.497 284.699C232.161 279.43 230.853 274.154 229.492 268.89C228.44 264.815 227.339 260.758 226.247 256.692C225.507 253.942 224.768 251.192 223.968 248.458C223.781 247.816 223.874 247.369 224.248 246.849C226.003 244.425 227.368 241.78 228.623 239.071C230.67 234.639 232.067 230.001 233.062 225.232C233.895 221.231 234.127 217.161 234.634 213.119C234.362 212.295 233.716 211.718 233.249 211.023C230.816 207.4 227.92 204.179 224.857 201.088C223.671 199.894 222.53 198.643 221.486 197.322C220.519 196.1 219.731 194.747 219.723 193.09C219.723 192.834 219.638 192.582 219.593 192.326C219.41 192.269 219.199 192.253 219.049 192.152C216.933 190.718 214.617 189.775 212.131 189.199C210.186 188.748 208.268 188.24 206.278 187.956C204.56 187.708 202.821 187.659 201.103 187.342C198.987 186.948 196.879 187.728 194.75 187.777C194.628 187.777 194.511 187.891 194.385 187.899C193.057 188.008 191.996 188.857 190.757 189.203C189.397 190.58 187.987 191.912 186.687 193.342C184.677 195.547 183.007 198.009 181.911 200.791C181.395 202.099 181.131 203.509 180.83 204.894C180.213 207.762 180.201 210.646 180.712 213.534C180.826 214.167 180.826 214.817 180.879 215.459C180.972 215.694 181.11 215.922 181.155 216.166C181.712 219.159 182.37 222.137 183.214 225.061C183.775 226.995 184.279 228.936 184.636 230.915C185.489 235.63 186.281 240.359 187.134 245.074C187.849 249.027 188.621 252.967 189.348 256.915C190.181 261.436 191.013 265.961 191.81 270.486C192.516 274.503 193.166 278.528 193.869 282.55C193.966 283.098 193.82 283.573 193.678 284.069C193.556 284.487 193.292 284.727 192.849 284.759C191.428 284.869 190.01 285.072 188.588 285.072C185.725 285.064 182.898 285.474 180.05 285.649C179.644 287.026 179.677 288.448 179.579 289.865C179.368 292.883 179.36 295.918 178.941 298.923C178.913 299.114 178.905 299.309 178.901 299.504C178.746 303.436 178.572 307.368 178.446 311.3C178.377 313.489 178.165 315.663 177.808 317.819C177.78 317.99 177.897 318.185 177.946 318.368C178.787 318.189 179.632 318.307 180.469 318.368C183.572 318.595 186.671 318.843 189.774 319.107C192.033 319.298 194.291 319.53 196.55 319.741C196.875 319.769 197.2 319.781 197.521 319.802C201.79 320.098 206.063 320.342 210.328 320.703C213.687 320.988 217.046 321.248 220.41 321.491C222.416 321.638 224.419 321.804 226.425 321.894C226.194 321.353 225.658 321.223 225.207 320.996C223.237 320.009 221.222 319.115 219.24 318.157C216.445 316.804 213.606 315.545 210.88 314.046C209.065 313.047 207.229 312.08 205.616 310.78C203.589 309.147 201.806 307.267 200.632 304.898C199.478 302.575 198.719 300.093 197.789 297.676C196.741 294.959 195.725 292.233 194.689 289.512C194.413 288.785 194.088 288.078 193.824 287.347C193.483 286.392 193.686 285.535 194.279 285.263C194.884 284.983 195.555 285.446 195.985 286.449C197.76 290.548 199.434 294.687 200.896 298.903C201.818 301.568 203.02 304.054 204.848 306.186C205.892 307.405 207.005 308.562 208.48 309.371C209.727 310.053 210.994 310.711 212.233 311.41C214.207 312.519 216.153 313.688 218.163 314.728C223.001 317.226 227.92 319.55 232.973 321.581C233.404 321.755 233.798 321.987 233.822 322.531V322.515Z" fill="#FFB68A"/>
<path d="M169.372 103.025C165.956 103.187 162.942 104.467 160.184 106.4C156.621 108.899 154.217 112.315 152.531 116.275C150.849 120.231 149.667 124.342 148.847 128.554C147.726 134.298 147.214 140.11 146.832 145.947C146.414 152.308 146.414 158.665 146.54 165.026C146.601 168.142 146.812 171.253 146.982 174.365C147.035 175.335 147.121 176.302 147.035 177.281C147.003 177.663 147.035 178.065 147.112 178.439C147.316 179.381 148.205 179.779 149.07 179.32C149.663 179.007 150.053 178.487 150.407 177.935C152.239 175.1 154.091 172.281 155.902 169.433C160.96 161.492 165.745 153.393 170.481 145.257C171.427 143.636 171.439 143.632 172.573 145.176C174.258 147.479 175.907 149.814 177.613 152.105C179.876 155.14 182.419 157.902 185.534 160.095C186.241 160.014 186.44 159.457 186.655 158.905C188.398 154.437 190.465 150.111 192.383 145.716C193.24 143.75 194.231 141.861 195.486 140.114C196.595 138.571 198.049 137.596 199.938 137.247C201.359 136.983 202.773 137.048 204.195 137.157C206.132 137.308 208.066 137.474 210.003 137.612C210.385 137.641 210.779 137.58 211.165 137.547C213.2 137.389 215.048 136.601 216.937 135.914C218.501 135.35 219.825 134.513 220.966 133.303C224.261 129.809 227.851 126.629 231.467 123.477C232.498 122.579 233.64 121.856 234.911 121.34C235.033 119.675 234.464 118.139 233.965 116.604C232.909 113.359 231.227 110.442 229.082 107.802C224.322 101.936 218.367 97.8541 211.035 95.9004C207.81 95.0392 204.528 94.8361 201.193 95.1205C194.706 95.6729 188.824 97.8704 183.422 101.441C182.337 102.156 181.237 102.838 179.994 103.256C179.726 103.374 179.462 103.496 179.194 103.614C179.238 104.958 178.791 106.14 178.028 107.229C176.878 108.87 175.721 110.503 174.624 112.176C173.344 114.126 172.292 116.206 171.48 118.387C170.395 121.312 169.774 124.338 169.88 127.482C169.916 128.518 169.546 129.59 169.697 130.549C169.945 132.173 169.774 133.782 169.884 135.39C169.924 135.971 169.839 136.589 170.018 137.121C170.375 138.177 170.188 139.31 170.611 140.354C170.769 140.744 170.684 141.256 170.643 141.703C170.566 142.543 169.981 143.141 169.14 143.214C168.563 143.262 167.962 143.287 167.394 143.193C165.663 142.917 164.327 141.979 163.819 140.305C163.49 139.221 163.186 138.071 163.25 136.885C163.279 136.369 163.352 135.817 163.21 135.338C162.597 133.229 162.974 131.085 162.873 128.96C162.856 128.639 162.836 128.282 162.954 127.998C163.291 127.185 163.242 126.349 163.259 125.508C163.263 125.183 163.259 124.854 163.324 124.541C163.925 121.767 164.611 119.021 165.627 116.36C166.622 113.748 167.881 111.283 169.465 108.984C169.721 108.614 169.989 108.24 170.306 107.924C171.671 106.567 172.638 104.999 173.011 103.094C171.797 103.07 170.586 103.045 169.372 103.021V103.025Z" fill="#7B4923"/>
<path d="M234.911 121.344C233.639 121.86 232.498 122.583 231.466 123.48C227.851 126.632 224.26 129.813 220.966 133.306C219.829 134.513 218.501 135.349 216.937 135.918C215.048 136.6 213.2 137.392 211.165 137.551C210.779 137.579 210.389 137.64 210.003 137.616C208.066 137.478 206.128 137.311 204.195 137.161C202.773 137.051 201.359 136.986 199.938 137.25C198.049 137.6 196.591 138.574 195.486 140.118C194.231 141.865 193.24 143.753 192.382 145.719C190.465 150.11 188.394 154.436 186.655 158.908C186.44 159.461 186.245 160.017 185.534 160.099C186.468 161.248 186.635 162.698 186.968 164.043C187.809 167.414 188.536 170.814 189.222 174.218C189.515 175.664 189.665 177.147 189.742 178.621C189.815 179.978 189.856 181.322 190.222 182.638C190.806 182.63 191.363 182.496 191.932 182.362C193.495 182.001 195.047 181.432 196.664 181.468C200.535 181.562 204.402 181.229 208.285 181.769C210.852 182.122 213.334 182.715 215.836 183.317C217.237 183.654 218.428 184.434 219.727 184.97C220.004 183.378 220.227 181.769 220.572 180.189C220.958 178.422 222.095 177.398 223.915 177.122C224.939 176.968 225.95 176.765 226.998 176.748C229.858 176.708 232.539 175.867 234.919 174.372C237.775 172.581 239.306 169.819 239.586 166.456C239.728 164.778 239.676 163.08 239.639 161.39C239.615 160.208 239.822 159.055 240.082 157.925C240.472 156.215 241.426 154.847 243.035 154.018C243.957 153.543 244.895 153.096 245.821 152.629C246.402 152.336 247.003 152.076 247.543 151.723C248.827 150.878 249.217 149.651 248.762 148.177C248.429 147.092 247.807 146.187 247.044 145.382C245.972 144.253 244.863 143.156 243.754 142.06C242.694 141.008 241.633 139.956 240.545 138.932C239.253 137.717 238.246 136.279 237.372 134.76C236.06 132.473 235.374 129.992 235.382 127.335C235.382 126.36 235.386 125.385 235.39 124.411C235.39 123.363 235.272 122.339 234.907 121.352L234.911 121.344Z" fill="#FFB68A"/>
<path d="M223.598 403.169C223.964 402.385 224.033 401.557 224.013 400.704C223.919 396.682 224.435 392.689 224.549 388.68C224.63 385.776 224.939 382.876 225.243 379.984C225.394 378.566 224.91 377.469 224.025 376.45C222.997 375.264 221.823 374.244 220.479 373.452C216.486 371.092 212.241 370.109 207.631 371.21C202.31 372.481 197.244 374.386 192.476 377.079C191.403 377.685 190.335 378.29 189.242 378.859C188.97 379.001 188.625 379.013 188.316 379.086C188.048 379.565 187.577 379.793 187.118 380.036C183.791 381.791 180.692 383.924 177.54 385.963C175.022 387.592 173.007 389.814 170.866 391.885C169.859 392.86 169.087 393.973 168.636 395.261C167.856 397.491 168.141 399.481 169.725 400.773C170.529 401.431 171.427 401.971 172.422 402.296C173.096 402.515 173.795 402.726 174.498 402.779C175.598 402.856 176.679 403.068 177.768 403.173C179.957 403.38 182.154 403.551 184.352 403.563C194.401 403.624 204.45 403.632 214.5 403.636C216.502 403.636 218.509 403.705 220.507 403.332C221.515 403.145 222.571 403.222 223.602 403.181L223.598 403.169Z" fill="#FFB68A"/>
<path d="M234.626 213.115C234.119 217.157 233.887 221.227 233.054 225.228C232.059 230.001 230.662 234.635 228.615 239.067C227.364 241.776 225.995 244.421 224.24 246.845C223.866 247.365 223.773 247.812 223.96 248.454C224.76 251.188 225.499 253.938 226.238 256.688C227.331 260.749 228.436 264.811 229.484 268.886C230.841 274.15 232.153 279.426 233.489 284.695C233.582 285.072 233.729 285.434 233.851 285.803C234.492 285.852 235.134 285.897 235.776 285.942C237.941 285.942 240.11 285.937 242.275 285.933C242.823 283.139 243.319 280.332 243.94 277.55C244.407 275.466 244.899 273.37 245.634 271.371C246.211 269.808 247.153 268.378 247.974 266.911C248.319 266.29 248.746 265.709 249.172 265.14C251.731 261.728 252.799 257.731 253.681 253.665C254.168 251.423 254.164 249.177 253.782 246.906C253.559 245.57 253.636 244.201 253.356 242.853C252.986 241.057 252.426 239.347 251.601 237.726C251.045 236.63 250.431 235.553 249.757 234.526C247.198 230.622 244.846 226.585 242.035 222.848C240.711 221.085 239.387 219.326 238.051 217.575C236.913 216.084 235.764 214.602 234.622 213.119L234.626 213.115Z" fill="#8A8ADE"/>
<path d="M180.047 285.634C182.894 285.464 185.721 285.054 188.585 285.058C190.007 285.058 191.424 284.855 192.846 284.745C193.289 284.712 193.553 284.473 193.674 284.054C193.821 283.559 193.963 283.08 193.865 282.535C193.167 278.518 192.513 274.489 191.806 270.471C191.01 265.942 190.177 261.421 189.344 256.9C188.617 252.952 187.842 249.012 187.131 245.06C186.278 240.344 185.486 235.616 184.633 230.9C184.275 228.922 183.771 226.98 183.211 225.047C182.366 222.122 181.708 219.149 181.152 216.151C181.107 215.907 180.969 215.68 180.875 215.444C180.859 216.354 180.827 217.26 180.827 218.166C180.798 227.76 180.924 237.363 180.697 246.953C180.538 253.691 180.636 260.438 180.315 267.165C180.055 272.608 180.124 278.051 179.998 283.49C179.982 284.201 180.03 284.916 180.051 285.626L180.047 285.634Z" fill="#8B8BDE"/>
<path d="M173.011 103.1C172.638 105.005 171.671 106.577 170.306 107.93C169.989 108.247 169.721 108.616 169.465 108.99C167.877 111.289 166.622 113.755 165.627 116.367C164.611 119.027 163.925 121.773 163.324 124.547C163.255 124.86 163.263 125.193 163.259 125.514C163.243 126.355 163.291 127.192 162.954 128.004C162.836 128.288 162.857 128.646 162.873 128.967C162.974 131.091 162.597 133.236 163.21 135.344C163.348 135.823 163.275 136.376 163.251 136.891C163.186 138.078 163.494 139.227 163.819 140.312C164.327 141.985 165.663 142.923 167.394 143.2C167.962 143.289 168.56 143.269 169.14 143.22C169.981 143.151 170.566 142.55 170.643 141.709C170.684 141.258 170.769 140.75 170.611 140.36C170.188 139.316 170.375 138.179 170.018 137.127C169.839 136.595 169.924 135.973 169.884 135.397C169.774 133.788 169.949 132.18 169.697 130.555C169.551 129.592 169.916 128.524 169.88 127.488C169.774 124.344 170.396 121.318 171.48 118.393C172.288 116.212 173.345 114.132 174.624 112.183C175.725 110.509 176.882 108.876 178.028 107.235C178.792 106.147 179.238 104.965 179.194 103.62C178.901 103.543 178.597 103.482 178.442 103.173C178.341 103.092 178.223 103.06 178.093 103.076C177.756 103.153 177.471 103.088 177.272 102.779C177.041 102.739 176.809 102.698 176.578 102.653C175.619 102.653 174.657 102.653 173.698 102.649C173.475 102.694 173.251 102.735 173.028 102.779C173.04 102.889 173.032 102.995 173.011 103.104V103.1Z" fill="#5D3819"/>
<path d="M219.731 184.964C218.427 184.427 217.241 183.648 215.84 183.31C213.338 182.709 210.856 182.116 208.289 181.763C204.41 181.227 200.539 181.556 196.668 181.462C195.051 181.422 193.499 181.994 191.935 182.356C191.363 182.486 190.81 182.624 190.225 182.632C190.209 182.762 190.173 182.892 190.185 183.018C190.372 185.077 190.563 187.141 190.753 189.2C191.996 188.855 193.057 188.006 194.381 187.896C194.507 187.884 194.624 187.778 194.746 187.774C196.875 187.726 198.983 186.946 201.099 187.34C202.817 187.661 204.552 187.709 206.274 187.953C208.269 188.237 210.186 188.749 212.127 189.196C214.613 189.769 216.929 190.715 219.045 192.149C219.195 192.251 219.406 192.267 219.589 192.324C219.825 189.874 219.918 187.421 219.731 184.964Z" fill="#E6A37B"/>
<path d="M242.28 285.936C240.115 285.936 237.945 285.94 235.78 285.944C236.369 287.219 237.048 288.446 237.539 289.774C237.945 290.875 238.725 291.76 239.895 292.138C240.411 292.305 240.728 292.727 241.195 292.93C241.305 292.63 241.492 292.333 241.512 292.028C241.642 290.233 241.995 288.474 242.304 286.707C242.349 286.46 242.292 286.196 242.28 285.94V285.936Z" fill="#FDB68E"/>
<path d="M241.191 292.929C240.724 292.726 240.403 292.304 239.891 292.137C238.721 291.759 237.942 290.874 237.535 289.773C237.048 288.445 236.366 287.218 235.777 285.943C235.135 285.898 234.493 285.849 233.851 285.805C234.469 288.23 235.439 290.508 236.63 292.702C236.914 293.222 237.361 293.6 237.921 293.799C239.059 294.205 240.155 294.753 241.39 294.838C241.321 294.201 241.256 293.563 241.187 292.929H241.191Z" fill="#E7A47C"/>
<path d="M173.011 103.1C173.032 102.995 173.04 102.885 173.027 102.775C171.801 102.718 170.566 102.536 169.372 103.023C170.582 103.047 171.797 103.072 173.007 103.096L173.011 103.1Z" fill="#8C5E46"/>
<path d="M173.697 102.647C174.656 102.647 175.619 102.647 176.577 102.651C175.619 102.184 174.656 102.164 173.697 102.647Z" fill="#8C5E46"/>
<path d="M178.442 103.171C178.6 103.476 178.901 103.536 179.193 103.618C179.461 103.5 179.725 103.378 179.993 103.26C179.477 103.232 178.957 103.203 178.442 103.171Z" fill="#8C5E46"/>
<path d="M177.272 102.778C177.471 103.083 177.755 103.148 178.092 103.075C177.873 102.827 177.609 102.697 177.272 102.778Z" fill="#8C5E46"/>
<path d="M226.093 376.263C226.365 377.485 227.344 378.253 227.73 379.459C229.468 378.545 231.089 377.761 232.64 376.86C234.046 376.043 235.472 375.308 236.983 374.703C238.607 374.057 240.135 373.196 241.759 372.534C246.739 370.495 251.821 368.776 256.971 367.241C260.566 366.169 264.206 365.283 267.853 364.442C270.364 363.861 272.927 363.52 275.469 363.078C277.565 362.712 279.649 362.224 281.761 362.042C283.5 361.891 285.202 361.42 286.965 361.526C287.61 361.566 288.248 361.497 288.89 361.323C289.442 361.172 290.039 361.181 290.62 361.156C292.038 361.099 293.468 361.246 294.869 360.819C295.348 360.673 295.901 360.766 296.421 360.766C299.406 360.762 302.392 360.75 305.377 360.766C306.799 360.774 308.229 360.628 309.622 361.087C309.975 361.205 310.394 361.136 310.784 361.128C311.58 361.107 311.706 360.941 311.495 360.194C311.214 359.198 310.906 358.211 310.633 357.212C310.491 356.688 310.158 356.477 309.642 356.481C309.252 356.481 308.862 356.469 308.473 356.469C303.732 356.469 298.996 356.469 294.256 356.477C293.545 356.477 292.83 356.428 292.14 356.696C291.904 356.786 291.628 356.847 291.38 356.826C289.231 356.639 287.127 357.143 284.999 357.273C283.459 357.366 281.932 357.655 280.405 357.899C279.32 358.073 278.227 358.203 277.147 358.345C274.072 358.756 271.034 359.341 268.012 359.999C265.046 360.644 262.102 361.388 259.157 362.115C255.322 363.065 251.593 364.369 247.848 365.616C241.926 367.59 236.304 370.251 230.821 373.196C229.18 374.077 227.543 375.003 226.088 376.263H226.093Z" fill="#494A45"/>
<path d="M233.822 322.517C233.798 321.968 233.4 321.737 232.973 321.566C227.92 319.535 223.001 317.212 218.163 314.714C216.153 313.674 214.211 312.504 212.233 311.395C210.99 310.701 209.727 310.039 208.48 309.356C207.001 308.552 205.892 307.394 204.848 306.172C203.02 304.039 201.818 301.553 200.896 298.889C199.434 294.672 197.76 290.533 195.985 286.435C195.551 285.431 194.884 284.968 194.279 285.249C193.686 285.521 193.483 286.378 193.824 287.332C194.084 288.064 194.413 288.77 194.689 289.497C195.725 292.219 196.741 294.944 197.789 297.662C198.719 300.075 199.478 302.557 200.632 304.884C201.806 307.252 203.589 309.133 205.616 310.766C207.229 312.066 209.065 313.032 210.88 314.031C213.606 315.534 216.445 316.794 219.24 318.142C221.222 319.101 223.237 319.994 225.207 320.981C225.662 321.209 226.198 321.343 226.425 321.879C226.478 321.916 226.531 321.985 226.584 321.985C229.001 322.115 231.385 322.704 233.826 322.513L233.822 322.517Z" fill="#E6A37B"/>
</svg>
