<svg width="500" height="500" viewBox="0 0 500 500" fill="none" xmlns="http://www.w3.org/2000/svg">
<path d="M214.418 421.538C215.123 421.955 215.889 422.014 216.7 422.011C219.35 422 222.017 421.866 224.645 422.127C226.97 422.36 229.252 422.134 231.552 422.085C232.843 422.06 234.131 422.018 235.412 421.729C236.276 421.535 237.207 421.612 238.11 421.609C251.876 421.602 265.638 421.605 279.403 421.588C280.811 421.588 282.215 421.439 283.622 421.422C286.893 421.387 290.166 421.358 293.437 421.39C295.754 421.411 298.051 421.115 300.358 421.051C302.838 420.988 305.322 420.991 307.802 420.928C311.689 420.826 315.581 420.702 319.468 420.561C320.65 420.519 321.832 420.42 323.007 420.275C324.185 420.131 325.36 420.028 326.545 420.004C326.884 419.997 327.222 419.972 327.557 419.922C330.782 419.414 333.999 418.857 337.231 418.402C339.577 418.07 341.891 417.619 344.156 416.942C346.636 416.197 349.123 415.449 351.557 414.578C353.515 413.876 355.473 413.153 357.283 412.091C359.66 410.694 361.491 408.704 363.146 406.559C365.262 403.815 366.663 400.707 367.7 397.398C368.145 395.979 368.247 394.526 368.571 393.104C368.72 392.452 368.621 391.771 368.511 391.093C368.155 388.864 367.344 386.779 366.547 384.691C366.303 384.055 366.275 383.382 366.024 382.74C365.269 380.824 364.017 379.233 362.874 377.564C361.505 375.564 359.657 374.132 357.586 372.936C356.513 372.319 355.501 371.602 354.436 370.967C353.564 370.449 352.626 370.107 351.631 369.839C349.289 369.207 347.048 368.269 344.787 367.39C339.689 365.411 334.585 363.457 329.494 361.457C321.363 358.26 313.235 355.05 305.117 351.819C303.177 351.046 303.145 351.473 303.604 349.042C304.168 346.051 304.683 343.049 305.142 340.043C305.498 337.704 305.749 335.347 306.031 332.994C306.447 329.523 306.849 326.052 307.251 322.58C307.774 318.044 308.338 313.51 308.797 308.967C309.41 302.909 309.922 296.838 310.522 290.781C310.882 287.133 311.34 283.496 311.721 279.852C311.996 277.217 312.212 274.574 312.444 271.935C312.836 267.498 313.295 263.07 313.915 258.657C314.166 256.875 314.875 255.267 315.817 253.82C318.967 248.987 321.645 243.907 324.016 238.658C328.161 229.482 331.184 219.918 333.787 210.217C336.239 201.069 338.441 191.862 340.667 182.658C341.7 178.386 342.674 174.096 343.69 169.82C344.579 166.074 345.955 162.497 347.518 158.993C348.184 157.501 348.897 156.027 349.578 154.541C349.719 154.234 349.818 153.91 349.934 153.592C349.282 153.427 348.625 153.275 347.976 153.095C342.78 151.663 337.583 150.241 332.394 148.777C331.05 148.396 329.667 148.128 328.39 147.539C328.048 147.518 327.706 147.496 327.36 147.472C326.499 149.257 325.391 150.887 324.255 152.502C323.218 153.977 322.185 155.459 321.207 156.972C314.395 167.552 308.183 178.477 302.433 189.668C292.738 208.538 284.307 227.976 276.517 247.7C276.556 248.324 276.75 248.899 276.983 249.481C277.9 251.778 278.782 254.085 279.664 256.396C279.883 256.974 280.105 257.556 280.239 258.159C280.895 261.07 281.132 264.037 281.312 267.004C281.41 268.63 281.255 270.249 281.089 271.879C280.874 273.971 280.426 275.968 279.661 277.919C278.521 280.808 276.983 283.496 275.445 286.174C274.373 288.04 273.505 289.969 272.774 291.984C271.741 294.848 271.166 297.826 270.527 300.789C270.457 301.124 270.414 301.456 270.143 301.696C270.27 302.264 270.111 302.8 270.002 303.354C269.268 307.09 268.531 310.826 267.85 314.572C267.179 318.262 266.544 321.963 265.952 325.667C265.634 327.657 265.119 329.615 265.045 331.643C265.624 331.707 266.11 332.007 266.604 332.271C269.13 333.633 271.646 335.012 274.175 336.37C276.256 337.489 278.362 338.568 280.44 339.697C282.366 340.745 284.286 341.81 286.18 342.914C286.656 343.193 287.055 343.624 287.432 344.036C287.88 344.523 287.898 345.091 287.559 345.578C287.196 346.104 286.811 346.266 286.102 346.058C283.569 345.313 281.037 344.565 278.518 343.775C275.568 342.847 272.633 341.874 269.695 340.921C268.516 340.54 267.328 340.195 266.17 339.757C265.232 339.404 264.223 339.104 263.726 338.085C261.863 338.244 260.021 337.99 258.166 337.849C255.192 337.623 252.215 337.439 249.248 337.157C246.334 336.878 243.416 336.642 240.495 336.494C237.179 336.325 233.87 336.092 230.557 335.806C227.696 335.559 224.825 335.485 221.957 335.337C221.509 335.312 221.047 335.34 220.613 335.249C219.547 335.019 218.485 335.069 217.416 335.171C216.834 336.325 216.206 337.461 215.674 338.635C214.46 341.309 213.525 344.089 212.837 346.943C211.761 351.402 211.176 355.925 211.345 360.515C211.663 369.239 214.121 377.261 219.367 384.334C220.68 386.102 222.123 387.76 223.721 389.28C224.419 389.943 225.103 390.607 225.534 391.485C225.661 391.746 225.848 391.954 226.183 391.908C226.183 391.372 225.802 390.977 225.654 390.497C225.552 390.162 225.724 389.753 226.063 389.693C226.504 389.615 226.956 389.58 227.4 389.58C231.122 389.573 234.847 389.594 238.569 389.573C240.372 389.562 242.136 390.074 243.942 389.954C244.051 389.947 244.168 389.979 244.27 390.025C244.859 390.282 245.483 390.257 246.104 390.24C247.561 390.201 249.032 390.395 250.472 389.95C250.782 389.855 251.146 389.919 251.484 389.919C261.919 389.919 272.358 389.919 282.793 389.922C283.241 389.922 283.725 389.876 284.134 390.014C284.91 390.275 285.693 390.236 286.476 390.236C295.052 390.243 303.625 390.264 312.201 390.233C313.348 390.229 314.441 390.455 315.535 390.667C317.105 390.974 318.057 392.572 317.92 394.272C317.803 395.687 316.159 397.101 314.946 397.031C313.933 396.971 312.917 397.02 311.901 397.031C311.111 397.038 310.289 396.921 309.545 397.112C308.536 397.369 307.537 397.352 306.528 397.355C304.271 397.366 302.016 397.359 299.758 397.355C299.307 397.355 298.824 397.433 298.414 397.299C297.363 396.957 296.298 397.034 295.229 397.034C281.125 397.024 267.021 397.02 252.92 397.013C252.133 397.013 251.364 396.932 250.578 396.791C249.149 396.533 247.681 396.389 246.228 396.368C241.998 396.311 237.765 396.332 233.535 396.35C232.66 396.35 231.849 396.315 231.267 395.528C231.027 395.203 230.674 394.963 230.251 395.016C229.362 395.126 228.97 394.611 228.592 393.919C228.374 393.514 228.18 392.942 227.527 392.963C227.601 393.612 228.053 394.057 228.391 394.565C228.829 395.217 228.638 395.581 227.816 395.637C227.312 395.673 226.804 395.662 226.299 395.673C224.165 395.715 222.027 395.775 219.893 395.792C218.468 395.803 217.11 396.089 215.804 396.65C215.702 397.144 215.381 397.56 215.346 398.086C215.272 399.26 215.12 400.435 215.053 401.61C214.894 404.527 214.767 407.448 214.626 410.369C214.619 410.539 214.626 410.708 214.601 410.874C214.171 413.774 214.443 416.719 214.016 419.616C213.91 420.328 214.09 420.942 214.432 421.542L214.418 421.538Z" fill="#696D65"/>
<path d="M305.558 136.342C300.22 141.186 295.2 146.354 290.103 151.441C289.704 151.84 289.32 152.256 288.762 152.436C288.78 152.814 288.547 153.053 288.286 153.272C285.689 155.925 283.142 158.62 280.641 161.365C278.863 163.316 277.184 165.362 275.237 167.161C272.884 169.338 270.591 171.578 268.266 173.786C267.493 174.524 266.699 175.24 265.923 175.973C265.588 176.291 265.235 176.552 264.759 176.594C264.78 177.099 264.459 177.416 264.142 177.741C263.235 178.662 262.198 179.445 261.274 180.327C257.823 183.625 254.44 186.994 250.983 190.293C247.776 193.351 244.615 196.47 241.67 199.804C239.144 202.661 236.255 205.191 233.778 208.105C233.595 208.32 233.348 208.486 233.203 208.722C232.434 209.995 231.256 210.891 230.264 211.957C230.035 212.204 229.785 212.437 229.428 212.486C228.568 213.594 227.707 214.698 226.846 215.806C226.793 216.003 226.701 216.169 226.49 216.24L226.514 216.211C226.479 216.416 226.391 216.564 226.158 216.575L226.176 216.557C226.306 217.238 225.883 217.742 225.608 218.282C223.858 221.711 222.567 225.313 221.628 229.042C221.286 230.404 221.022 231.79 220.799 233.18C220.369 235.861 220.365 238.567 220.39 241.273C220.408 243.312 220.669 245.319 221.131 247.295C221.868 250.441 222.965 253.412 224.997 256.026C228 259.889 233.013 261.48 237.853 259.307C240.1 258.298 242.054 256.866 243.663 255.024C246.203 252.117 248.157 248.836 249.618 245.252C250.987 241.897 251.996 238.451 252.595 234.88C252.701 234.256 252.874 233.688 253.326 233.208C254.913 231.529 256.479 229.832 258.06 228.146C258.829 227.324 259.63 226.534 260.356 225.666C260.963 224.939 261.584 224.191 262.41 223.673C262.53 223.486 262.625 223.281 262.769 223.115C264.357 221.32 265.948 219.524 267.546 217.742C267.994 217.245 268.481 216.783 268.94 216.296C269.186 216.035 269.486 215.922 269.832 215.904C269.913 215.135 270.347 214.567 270.855 214.021C272.079 212.708 273.342 211.424 274.464 210.031C275.205 209.11 276.094 208.313 276.757 207.353C277.593 206.147 278.63 205.113 279.583 204.03C281.026 202.386 282.391 200.675 283.763 198.985C285.735 196.555 287.863 194.237 289.612 191.626C289.82 191.319 290.12 191.199 290.473 191.178C290.417 190.628 290.706 190.233 291.023 189.816C293.779 186.193 296.537 182.577 299.247 178.919C301.222 176.252 303.346 173.709 305.583 171.264C307.442 169.232 309.421 167.313 311.269 165.263C312.927 163.425 314.519 161.531 316.05 159.594C319.052 155.802 322.287 152.214 325.483 148.587C325.818 148.206 326.185 147.857 326.538 147.494C326.753 147.271 327.007 147.208 327.303 147.271C327.282 146.308 327.719 145.603 328.407 144.932C329.931 143.444 331.515 142.026 333.085 140.583C334.405 139.369 335.823 138.269 337.114 137.023C337.83 136.335 338.631 135.704 339.375 135.026C340.37 134.123 341.379 133.234 342.423 132.395C344.381 130.818 346.42 129.34 348.322 127.699C349.077 127.047 349.8 126.747 350.742 126.86C350.894 125.357 350.964 123.84 351.222 122.355C351.476 120.898 351.43 119.448 351.444 117.991C351.444 117.716 351.391 117.43 351.31 117.165C350.957 116.033 350.442 114.971 349.81 113.973C349.313 113.189 348.65 112.703 347.637 112.586C345.694 112.368 343.771 111.962 341.834 111.683C338.659 111.228 335.463 111.203 332.263 111.239C331.371 111.249 330.63 111.577 329.995 112.191C329.469 112.696 328.93 113.186 328.397 113.683C328.57 114.639 328.224 115.444 327.645 116.167C327.331 116.559 326.993 116.94 326.629 117.285C323.673 120.111 320.946 123.17 317.824 125.837C316.385 127.068 314.903 128.271 313.57 129.64C312.755 130.476 311.784 131.156 310.874 131.897C309.703 132.85 308.451 133.7 307.41 134.808C307.107 135.132 306.733 135.39 306.394 135.676C306.235 136.046 305.978 136.286 305.565 136.342H305.558Z" fill="#FFB78A"/>
<path d="M262.403 223.679C261.577 224.198 260.956 224.945 260.35 225.672C259.623 226.54 258.826 227.33 258.053 228.152C256.473 229.839 254.903 231.535 253.319 233.215C252.867 233.691 252.694 234.262 252.589 234.887C251.989 238.457 250.98 241.904 249.611 245.258C248.147 248.843 246.196 252.124 243.656 255.03C242.048 256.872 240.093 258.304 237.846 259.313C233.006 261.486 227.989 259.895 224.991 256.032C222.959 253.418 221.862 250.448 221.124 247.301C220.662 245.326 220.401 243.318 220.383 241.279C220.359 238.573 220.362 235.864 220.793 233.186C221.015 231.8 221.28 230.414 221.622 229.048C222.56 225.323 223.848 221.721 225.601 218.289C225.876 217.749 226.3 217.241 226.169 216.563C224.613 217.721 223.424 219.23 222.281 220.758C220.073 223.707 218.313 226.914 217.177 230.435C216.573 232.308 215.829 234.142 215.522 236.104C215.148 238.492 214.774 240.88 214.594 243.297C214.464 245.04 214.347 246.779 214.4 248.525C214.436 249.651 214.566 250.772 214.584 251.894C214.64 255.108 214.644 258.322 214.697 261.532C214.75 264.799 214.848 268.066 214.912 271.332C214.929 272.288 214.894 273.241 214.785 274.2C214.683 275.089 214.654 276.014 214.767 276.899C214.972 278.473 214.922 280.049 214.986 281.623C215.12 284.886 215.24 288.153 215.395 291.416C215.469 292.989 215.614 294.559 215.727 296.133C216.732 296.242 217.738 296.358 218.747 296.457C220.26 296.602 221.791 296.641 223.283 296.898C224.458 297.103 225.64 297.11 226.815 297.24C228.66 297.449 230.505 297.646 232.35 297.837C233.75 297.981 235.154 298.091 236.551 298.242C238.174 298.419 239.79 298.655 241.413 298.803C243.261 298.976 245.117 299.082 246.972 299.219C247.198 299.237 247.42 299.276 247.643 299.301C249.322 299.481 250.998 299.678 252.677 299.833C254.472 299.999 256.282 300.027 258.06 300.292C259.351 300.482 260.65 300.44 261.93 300.624C264.661 301.019 267.381 301.467 270.129 301.696C270.4 301.453 270.443 301.121 270.513 300.789C271.152 297.826 271.723 294.849 272.76 291.984C273.487 289.97 274.359 288.036 275.431 286.174C276.969 283.496 278.507 280.808 279.647 277.919C280.416 275.971 280.864 273.971 281.075 271.879C281.241 270.253 281.396 268.63 281.298 267.004C281.118 264.037 280.885 261.07 280.225 258.16C280.091 257.56 279.869 256.974 279.65 256.396C278.768 254.089 277.886 251.778 276.969 249.481C276.736 248.899 276.542 248.324 276.503 247.696C275.918 247.354 275.784 246.715 275.516 246.172C272.873 240.845 270.252 235.508 267.007 230.509C265.511 228.205 264.068 225.863 262.396 223.679H262.403Z" fill="#8A8ADF"/>
<path d="M270.132 301.696C267.381 301.467 264.661 301.019 261.934 300.624C260.653 300.437 259.355 300.483 258.064 300.292C256.286 300.027 254.476 299.999 252.68 299.833C251.001 299.678 249.325 299.481 247.646 299.301C247.424 299.276 247.198 299.237 246.976 299.22C245.124 299.082 243.268 298.973 241.416 298.803C239.793 298.652 238.178 298.415 236.555 298.242C235.154 298.091 233.754 297.981 232.353 297.837C230.508 297.646 228.663 297.449 226.818 297.241C225.643 297.11 224.465 297.099 223.287 296.898C221.795 296.641 220.264 296.602 218.75 296.457C217.741 296.362 216.736 296.242 215.73 296.133C215.681 297.368 215.709 298.592 215.879 299.83C216.044 301.047 215.974 302.299 216.016 303.534C216.122 306.734 216.281 309.934 216.447 313.13C216.574 315.599 216.528 318.076 216.753 320.534C217 323.226 216.88 325.932 217.113 328.613C217.307 330.804 217.254 332.991 217.403 335.175C218.471 335.076 219.533 335.027 220.599 335.252C221.033 335.344 221.495 335.316 221.943 335.341C224.811 335.492 227.686 335.566 230.544 335.81C233.853 336.096 237.162 336.325 240.481 336.498C243.402 336.649 246.32 336.886 249.234 337.161C252.204 337.443 255.182 337.627 258.152 337.852C260.004 337.994 261.846 338.248 263.712 338.089C263.842 337.443 263.955 336.791 264.103 336.148C264.453 334.656 264.502 333.1 265.031 331.644C265.105 329.619 265.62 327.657 265.938 325.667C266.53 321.963 267.165 318.266 267.836 314.573C268.517 310.826 269.257 307.09 269.988 303.354C270.097 302.8 270.252 302.264 270.129 301.696H270.132Z" fill="#FEB88B"/>
<path d="M214.418 421.539C214.072 420.943 213.896 420.325 214.001 419.613C214.428 416.717 214.157 413.767 214.587 410.871C214.612 410.705 214.605 410.532 214.612 410.367C214.753 407.446 214.88 404.525 215.039 401.607C215.102 400.429 215.254 399.258 215.331 398.083C215.363 397.554 215.688 397.137 215.79 396.647C214.146 395.331 212.372 394.283 210.283 393.818C209.669 393.68 209.059 393.634 208.438 393.631C206.519 393.62 204.6 393.638 202.684 393.613C201.711 393.599 200.783 393.775 199.869 394.089C198.483 394.566 197.1 395.056 195.696 395.469C193.248 396.188 190.976 397.324 188.675 398.386C183.401 400.817 178.134 403.262 172.92 405.819C170.387 407.061 167.886 408.345 165.463 409.784C164.154 410.564 162.894 411.425 161.794 412.483C160.143 414.064 159.494 416.706 160.182 418.861C160.81 420.833 162.806 422.417 164.87 422.389C170.85 422.308 176.815 422.788 182.791 422.753C185.783 422.735 188.771 422.774 191.762 422.806C193.674 422.827 195.583 423.194 197.498 423.017C201.213 422.675 204.935 422.883 208.65 422.707C209.652 422.661 210.654 422.432 211.641 422.227C212.573 422.036 213.49 421.772 214.414 421.539H214.418Z" fill="#FFB88C"/>
<path d="M227.513 392.957C228.166 392.936 228.36 393.507 228.578 393.913C228.956 394.604 229.347 395.123 230.236 395.01C230.66 394.957 231.012 395.197 231.252 395.521C231.834 396.308 232.646 396.347 233.521 396.343C237.751 396.326 241.984 396.308 246.214 396.361C247.667 396.379 249.131 396.527 250.563 396.784C251.35 396.925 252.119 397.007 252.906 397.007C267.01 397.014 281.114 397.017 295.215 397.028C296.28 397.028 297.349 396.947 298.4 397.292C298.809 397.426 299.296 397.349 299.744 397.349C302.002 397.352 304.256 397.359 306.514 397.349C307.523 397.345 308.521 397.363 309.53 397.105C310.275 396.915 311.1 397.035 311.887 397.024C312.903 397.014 313.919 396.968 314.931 397.024C316.145 397.095 317.792 395.677 317.905 394.265C318.043 392.565 317.09 390.967 315.521 390.66C314.427 390.448 313.333 390.223 312.187 390.226C303.611 390.258 295.038 390.237 286.462 390.23C285.675 390.23 284.896 390.269 284.12 390.007C283.71 389.87 283.227 389.916 282.779 389.916C272.344 389.912 261.905 389.912 251.47 389.912C251.131 389.912 250.772 389.849 250.458 389.944C249.022 390.385 247.551 390.194 246.09 390.233C245.473 390.251 244.848 390.276 244.256 390.018C244.153 389.972 244.037 389.94 243.928 389.947C242.118 390.071 240.358 389.559 238.555 389.566C234.833 389.588 231.108 389.566 227.386 389.574C226.938 389.574 226.486 389.609 226.049 389.686C225.714 389.746 225.537 390.156 225.64 390.491C225.788 390.974 226.169 391.366 226.169 391.902C226.215 391.994 226.289 392.029 226.388 392.001C226.881 391.898 227.146 392.096 227.178 392.6C227.287 392.72 227.396 392.837 227.506 392.957H227.513Z" fill="#494A45"/>
<path d="M327.398 113.634C327.254 113.553 327.116 113.415 326.961 113.397C325.568 113.242 324.167 113.122 322.774 112.96C321.271 112.787 319.768 112.586 318.265 112.388C317.207 112.251 316.141 112.244 315.079 112.064C313.591 111.81 312.063 111.767 310.557 111.612C308.994 111.45 307.435 111.259 305.875 111.08C305.819 111.072 305.766 111.044 305.71 111.044C302.902 110.935 300.122 110.399 297.296 110.579C292.135 110.907 288.018 114.389 287.182 119.592C286.628 123.042 287.824 125.886 290.664 128.013C291.39 128.556 292.145 129.025 292.943 129.445C296.273 131.209 299.599 132.984 302.93 134.747C303.477 135.037 304.009 135.361 304.644 135.425C304.782 134.476 305.357 133.806 306.009 133.156C309.516 129.667 312.977 126.136 316.815 122.989C318.505 121.603 319.987 119.973 321.62 118.506C323.497 116.819 325.324 115.091 327.395 113.641L327.398 113.634Z" fill="#FFB78A"/>
<path d="M236.487 186.024C236.17 188.377 235.366 190.607 234.769 192.889C233.686 197.02 232.508 201.13 231.383 205.25C231.28 205.624 231.291 206.027 231.245 206.418C232.025 206.499 232.677 206.288 233.189 205.656C233.471 205.307 233.88 205.042 234.099 204.665C234.53 203.913 235.15 203.345 235.754 202.76C239.765 198.897 243.515 194.773 247.702 191.083C250.782 188.374 253.431 185.209 256.582 182.549C258.25 181.138 259.69 179.469 261.397 178.076C262.226 177.402 263.013 176.69 263.965 176.192C263.814 176.03 263.687 175.818 263.503 175.709C262.392 175.046 261.284 174.375 260.145 173.769C259.005 173.162 257.862 172.544 256.624 172.142C254.825 171.557 253.072 171.595 251.417 172.583C250.648 173.042 249.875 173.522 249.187 174.093C246.51 176.326 243.903 178.644 241.43 181.106C240.393 182.14 239.359 183.177 238.304 184.19C237.902 184.578 237.443 184.906 237.01 185.262C237.017 185.636 236.766 185.837 236.494 186.02L236.487 186.024Z" fill="#FEB78A"/>
<path d="M328.383 147.539C329.663 148.128 331.046 148.397 332.387 148.778C337.573 150.242 342.773 151.663 347.969 153.096C348.618 153.275 349.274 153.427 349.927 153.593C350.386 153.212 350.551 152.669 350.724 152.14C351.613 149.416 352.181 146.633 352.495 143.775C352.717 141.757 352.83 139.746 352.732 137.732C352.576 134.596 352.188 131.484 351.296 128.461C351.268 128.362 351.158 128.292 351.088 128.207C349.782 129.347 348.463 130.472 347.175 131.629C346.466 132.268 345.877 133.051 345.119 133.622C343.549 134.804 342.229 136.268 340.656 137.436C339.619 138.208 338.719 139.133 337.724 139.947C336.214 141.189 334.631 142.346 333.159 143.631C331.808 144.809 330.44 145.955 328.93 146.929C328.707 147.074 328.563 147.335 328.379 147.543L328.383 147.539Z" fill="#FEB88C"/>
<path d="M236.488 186.023C236.763 185.84 237.01 185.639 237.003 185.265C236.371 184.923 236.064 184.32 235.757 183.72C234.226 180.756 233.284 177.589 232.572 174.35C232.078 172.106 231.651 169.852 231.224 167.594C231.136 167.122 230.967 166.744 230.579 166.469C230.356 166.497 230.138 166.522 229.915 166.55C229.767 166.716 229.647 166.92 229.471 167.047C225.957 169.58 222.458 172.135 218.909 174.622C213.702 178.276 208.481 181.91 203.125 185.35C202.367 185.836 201.601 186.309 200.822 186.761C200.331 187.047 199.809 187.258 199.217 187.191C198.938 187.159 198.673 186.884 198.719 186.62C198.754 186.401 198.811 186.179 198.888 185.967C199.721 183.632 200.49 181.272 201.411 178.971C202.861 175.366 204.462 171.821 205.912 168.215C207.158 165.121 208.745 162.197 210.237 159.23C211.267 157.18 212.365 155.141 213.585 153.176C215.159 150.65 216.7 148.114 218.443 145.69C219.759 143.863 221.092 142.06 222.599 140.399C224.532 138.271 226.61 136.331 229.069 134.761C234.188 131.491 241.751 131.339 246.849 134.091C248.694 134.292 250.024 135.375 251.234 136.659C251.654 136.818 252.049 137.03 252.525 137.015C253.425 136.987 254.321 136.977 255.217 136.832C256.659 136.603 258.102 136.345 259.573 136.289C262.625 136.172 265.645 136.359 268.647 136.955C273.406 137.901 277.579 140.007 281.238 143.15C283.919 145.454 285.982 148.255 287.683 151.342C288.014 151.945 288.244 152.569 288.286 153.261C288.547 153.039 288.776 152.799 288.759 152.425C288.678 151.793 288.346 151.261 288.046 150.721C286.956 148.749 285.806 146.826 284.194 145.207C283.128 144.138 282.239 142.886 280.948 142.046C279.445 141.072 278.119 139.862 276.426 139.146C275.089 138.578 273.879 137.703 272.464 137.277C269.931 136.511 267.352 136.003 264.717 135.71C262.297 135.442 259.909 135.738 257.506 135.812C256.557 135.841 255.619 136.102 254.673 136.243C254.172 136.317 253.668 136.352 253.167 136.412C252.384 136.507 251.774 136.229 251.188 135.689C250.366 134.931 249.523 134.151 248.461 133.731C247.053 133.17 245.649 132.486 244.178 132.221C242.813 131.974 241.483 131.392 240.047 131.565C237.355 131.121 234.794 131.713 232.265 132.542C229.873 133.325 227.77 134.638 225.88 136.261C223.273 138.501 221.004 141.058 218.933 143.81C217.275 146.011 215.832 148.347 214.305 150.629C213.173 152.319 212.502 154.27 211.165 155.822C211.095 155.907 211.045 156.016 211.006 156.118C209.976 158.747 208.251 161.033 207.309 163.707C206.844 165.037 205.983 166.176 205.415 167.474C203.923 170.882 202.596 174.357 201.217 177.807C200.13 180.527 199.114 183.279 198.067 186.013C198.007 186.172 197.94 186.327 197.89 186.489C197.544 187.586 198.335 188.017 199.132 187.967C199.806 187.925 200.43 187.622 201.047 187.336C202.282 186.768 203.383 185.981 204.512 185.24C206.441 183.974 208.346 182.676 210.251 181.377C213.691 179.031 217.134 176.692 220.553 174.315C222.906 172.678 225.216 170.984 227.541 169.305C228.317 168.744 229.062 168.145 229.841 167.591C230.187 167.344 230.526 167.492 230.6 167.884C230.868 169.263 231.087 170.653 231.397 172.022C231.976 174.597 232.498 177.183 233.366 179.695C234.032 181.624 234.914 183.438 235.863 185.23C236.018 185.519 236.131 185.861 236.481 186.006L236.488 186.023Z" fill="#E9A67D"/>
<path d="M263.962 176.195C263.01 176.693 262.223 177.402 261.394 178.079C259.69 179.469 258.251 181.141 256.578 182.552C253.432 185.209 250.779 188.377 247.699 191.086C243.508 194.776 239.758 198.9 235.75 202.763C235.144 203.345 234.526 203.913 234.096 204.668C233.881 205.049 233.468 205.31 233.186 205.659C232.678 206.291 232.022 206.503 231.242 206.421C231.129 206.615 230.981 206.795 230.91 207C230.307 208.803 229.707 210.605 229.425 212.493C229.781 212.44 230.032 212.21 230.261 211.964C231.252 210.898 232.431 210.002 233.2 208.729C233.341 208.492 233.591 208.326 233.775 208.111C236.251 205.197 239.141 202.668 241.666 199.81C244.612 196.477 247.773 193.358 250.98 190.299C254.437 187.004 257.82 183.635 261.27 180.333C262.195 179.448 263.232 178.665 264.138 177.748C264.459 177.423 264.777 177.105 264.756 176.601C264.586 176.276 264.294 176.192 263.955 176.202L263.962 176.195Z" fill="#E8A57C"/>
<path d="M327.399 113.633C325.328 115.083 323.501 116.812 321.624 118.498C319.99 119.966 318.509 121.599 316.819 122.982C312.981 126.129 309.523 129.66 306.013 133.149C305.361 133.798 304.786 134.469 304.648 135.417C304.761 135.509 304.877 135.597 304.994 135.689C305.456 135.682 305.922 135.679 306.384 135.671C306.726 135.382 307.096 135.125 307.4 134.804C308.44 133.696 309.693 132.846 310.864 131.893C311.774 131.152 312.744 130.472 313.559 129.635C314.893 128.267 316.374 127.064 317.814 125.832C320.936 123.165 323.663 120.107 326.619 117.281C326.982 116.935 327.321 116.554 327.635 116.163C328.214 115.44 328.559 114.635 328.387 113.679C328.055 113.662 327.727 113.648 327.395 113.63L327.399 113.633Z" fill="#E8A57C"/>
<path d="M328.383 147.539C328.563 147.331 328.711 147.07 328.933 146.925C330.443 145.955 331.812 144.809 333.163 143.627C334.634 142.343 336.218 141.186 337.728 139.944C338.723 139.125 339.619 138.205 340.659 137.432C342.229 136.264 343.552 134.8 345.122 133.618C345.877 133.047 346.47 132.264 347.179 131.625C348.466 130.465 349.786 129.343 351.091 128.203C351.137 127.713 351.006 127.268 350.745 126.859C349.8 126.746 349.08 127.046 348.325 127.699C346.424 129.339 344.385 130.821 342.427 132.394C341.383 133.234 340.374 134.123 339.379 135.026C338.634 135.703 337.83 136.331 337.118 137.023C335.823 138.272 334.408 139.369 333.089 140.582C331.522 142.025 329.938 143.443 328.411 144.932C327.723 145.602 327.289 146.308 327.31 147.271C327.31 147.345 327.324 147.412 327.363 147.476C327.705 147.497 328.048 147.518 328.393 147.543L328.383 147.539Z" fill="#E8A57C"/>
<path d="M306.387 135.675C305.925 135.682 305.459 135.685 304.997 135.692C305.184 135.908 305.371 136.126 305.558 136.342C305.971 136.285 306.228 136.045 306.387 135.675Z" fill="#FEBF96"/>
<path d="M227.181 392.603C227.149 392.099 226.881 391.901 226.391 392.004C226.528 392.367 226.765 392.607 227.181 392.603Z" fill="#696D65"/>
<path d="M226.486 216.243C226.698 216.175 226.79 216.01 226.843 215.809C226.723 215.953 226.606 216.098 226.486 216.243Z" fill="#8A8ADF"/>
<path d="M226.155 216.581C226.388 216.571 226.476 216.422 226.511 216.218C226.31 216.26 226.197 216.384 226.155 216.581Z" fill="#8A8ADF"/>
<path d="M265.038 331.641C264.509 333.098 264.459 334.653 264.11 336.146C263.958 336.788 263.845 337.44 263.718 338.086C264.216 339.105 265.225 339.405 266.163 339.758C267.32 340.196 268.513 340.538 269.687 340.922C272.63 341.878 275.561 342.852 278.51 343.776C281.029 344.566 283.562 345.314 286.095 346.059C286.801 346.267 287.189 346.105 287.552 345.579C287.887 345.092 287.873 344.524 287.425 344.037C287.048 343.624 286.649 343.194 286.173 342.915C284.278 341.811 282.363 340.742 280.433 339.698C278.355 338.569 276.249 337.49 274.168 336.371C271.638 335.013 269.126 333.63 266.597 332.272C266.103 332.008 265.616 331.704 265.038 331.644V331.641Z" fill="#494A45"/>
<path d="M263.962 176.195C264.301 176.185 264.59 176.269 264.763 176.594C265.239 176.555 265.592 176.29 265.927 175.973C266.703 175.239 267.493 174.523 268.269 173.786C270.594 171.577 272.884 169.337 275.24 167.16C277.188 165.361 278.867 163.315 280.645 161.364C283.146 158.62 285.693 155.921 288.29 153.272C288.247 152.584 288.018 151.956 287.686 151.352C285.986 148.269 283.922 145.465 281.241 143.161C277.583 140.018 273.409 137.912 268.65 136.966C265.648 136.37 262.628 136.183 259.577 136.299C258.106 136.356 256.666 136.613 255.22 136.843C254.321 136.984 253.428 136.994 252.528 137.026C252.052 137.04 251.657 136.829 251.237 136.67C251.209 137.121 251.213 137.591 250.814 137.905C250.024 138.529 249.258 139.199 248.415 139.743C247.092 140.589 245.692 141.319 244.358 142.152C243.455 142.713 242.534 143.288 241.74 143.986C239.14 146.276 237.108 149.017 235.549 152.111C235.345 152.513 235.182 152.943 234.932 153.314C233.559 155.339 232.935 157.664 232.208 159.957C231.528 162.098 231.055 164.285 230.582 166.476C230.97 166.751 231.139 167.129 231.228 167.601C231.654 169.859 232.081 172.113 232.575 174.357C233.288 177.596 234.23 180.764 235.761 183.727C236.071 184.327 236.375 184.93 237.006 185.272C237.44 184.916 237.899 184.584 238.301 184.2C239.356 183.184 240.389 182.147 241.426 181.116C243.903 178.654 246.506 176.336 249.184 174.103C249.872 173.532 250.641 173.052 251.414 172.593C253.068 171.605 254.821 171.57 256.621 172.152C257.859 172.554 259.002 173.172 260.141 173.779C261.281 174.385 262.392 175.056 263.5 175.719C263.683 175.828 263.81 176.04 263.962 176.202V176.195Z" fill="#844516"/>
<path d="M282.299 204.022C283.019 202.805 283.979 201.796 285.037 200.876C285.125 200.675 285.189 200.456 285.305 200.272C285.841 199.419 286.579 198.727 287.21 197.951C288.466 196.406 289.641 194.79 290.847 193.206C290.897 192.497 290.96 191.788 290.47 191.178C290.117 191.199 289.814 191.319 289.609 191.626C287.859 194.236 285.732 196.551 283.76 198.985C282.388 200.675 281.022 202.386 279.579 204.029C278.627 205.116 277.59 206.146 276.754 207.353C276.087 208.312 275.198 209.109 274.461 210.03C273.339 211.427 272.076 212.711 270.852 214.02C270.34 214.567 269.906 215.135 269.829 215.904C270.146 216.091 270.474 216.243 270.855 216.204C272.016 215.523 273.131 214.733 273.889 213.636C274.845 212.249 276.122 211.159 277.152 209.836C278.239 208.436 279.477 207.144 280.557 205.726C280.832 205.363 281.156 205.06 281.654 205.035C281.696 204.954 281.721 204.869 281.721 204.777C281.671 204.336 281.855 204.075 282.299 204.019V204.022Z" fill="#E9A67D"/>
<path d="M246.852 134.102C241.755 131.347 234.188 131.499 229.072 134.773C226.617 136.342 224.536 138.283 222.602 140.41C221.093 142.072 219.759 143.874 218.447 145.702C216.704 148.125 215.162 150.658 213.589 153.188C212.368 155.153 211.271 157.188 210.241 159.241C208.749 162.208 207.158 165.133 205.916 168.227C204.466 171.832 202.864 175.377 201.415 178.983C200.49 181.279 199.725 183.643 198.892 185.978C198.818 186.19 198.762 186.409 198.723 186.631C198.681 186.896 198.942 187.171 199.22 187.202C199.813 187.273 200.335 187.058 200.825 186.772C201.605 186.321 202.371 185.848 203.129 185.361C208.484 181.921 213.705 178.288 218.912 174.633C222.458 172.146 225.957 169.592 229.475 167.059C229.651 166.932 229.771 166.731 229.919 166.561C229.669 165.81 228.942 165.679 228.356 165.387C227.425 164.921 226.748 164.212 226.123 163.393C225.442 162.501 225.344 161.563 225.605 160.539C226.254 157.978 227.069 155.47 228.286 153.124C229.647 150.496 231.002 147.857 232.904 145.553C233.937 144.301 234.886 142.978 236.072 141.863C236.601 141.366 237.222 140.971 237.758 140.484C239.596 138.819 241.6 137.422 243.886 136.431C244.651 136.099 245.353 135.612 246.066 135.168C246.45 134.924 246.754 134.589 246.856 134.116L246.852 134.102Z" fill="#844516"/>
<path d="M246.852 134.101C246.75 134.574 246.447 134.909 246.062 135.153C245.353 135.601 244.648 136.084 243.882 136.416C241.596 137.41 239.592 138.804 237.754 140.469C237.218 140.956 236.594 141.351 236.068 141.848C234.883 142.963 233.934 144.29 232.9 145.538C230.999 147.842 229.644 150.481 228.282 153.109C227.065 155.455 226.25 157.967 225.601 160.525C225.34 161.548 225.439 162.489 226.12 163.378C226.744 164.197 227.418 164.906 228.353 165.372C228.938 165.664 229.665 165.799 229.915 166.546C230.138 166.518 230.356 166.494 230.579 166.465C231.051 164.275 231.528 162.087 232.205 159.946C232.932 157.653 233.556 155.332 234.928 153.303C235.179 152.933 235.345 152.502 235.546 152.1C237.105 149.01 239.134 146.265 241.737 143.976C242.534 143.274 243.452 142.702 244.355 142.141C245.692 141.312 247.089 140.582 248.412 139.732C249.258 139.188 250.02 138.518 250.811 137.894C251.209 137.58 251.206 137.111 251.234 136.659C250.024 135.375 248.694 134.292 246.849 134.091L246.852 134.101Z" fill="#633408"/>
<path d="M281.65 205.042C281.157 205.067 280.828 205.37 280.553 205.733C279.477 207.152 278.239 208.446 277.149 209.843C276.119 211.166 274.845 212.256 273.886 213.643C273.127 214.74 272.012 215.53 270.852 216.211C272.563 217.315 274.281 217.033 275.964 216.169C276.567 215.858 277.008 215.329 277.336 214.712C277.837 213.763 278.264 212.782 278.574 211.755C279.082 210.073 279.819 208.503 280.793 207.035C281.188 206.439 281.626 205.822 281.643 205.046L281.65 205.042Z" fill="#FEBF96"/>
<path d="M290.847 193.206C289.641 194.79 288.466 196.406 287.21 197.951C286.579 198.727 285.841 199.418 285.305 200.272C285.189 200.456 285.125 200.674 285.037 200.875C285.806 200.837 286.554 200.731 287.351 200.893C288.216 201.07 289.133 201.048 290.018 200.731C291.384 200.24 292.167 199.299 292.146 197.838C292.121 196.191 291.772 194.61 290.847 193.206Z" fill="#FEBF96"/>
<path d="M282.3 204.022C281.852 204.082 281.668 204.343 281.721 204.781C282.116 204.682 282.363 204.47 282.3 204.022Z" fill="#FEBF96"/>
</svg>
