<svg width="500" height="500" viewBox="0 0 500 500" fill="none" xmlns="http://www.w3.org/2000/svg">
<path d="M204.418 401.538C205.123 401.955 205.889 402.014 206.7 402.011C209.35 402 212.017 401.866 214.645 402.127C216.97 402.36 219.252 402.134 221.552 402.085C222.843 402.06 224.131 402.018 225.412 401.729C226.276 401.535 227.207 401.612 228.11 401.609C241.876 401.602 255.638 401.605 269.403 401.588C270.811 401.588 272.215 401.439 273.622 401.422C276.893 401.387 280.166 401.358 283.437 401.39C285.754 401.411 288.051 401.115 290.358 401.051C292.838 400.988 295.322 400.991 297.802 400.928C301.689 400.826 305.581 400.702 309.468 400.561C310.65 400.519 311.832 400.42 313.007 400.275C314.185 400.131 315.36 400.028 316.545 400.004C316.884 399.997 317.222 399.972 317.557 399.922C320.782 399.414 323.999 398.857 327.231 398.402C329.577 398.07 331.891 397.619 334.156 396.942C336.636 396.197 339.123 395.449 341.557 394.578C343.515 393.876 345.473 393.153 347.283 392.091C349.66 390.694 351.491 388.704 353.146 386.559C355.262 383.815 356.663 380.707 357.7 377.398C358.145 375.979 358.247 374.526 358.571 373.104C358.72 372.452 358.621 371.771 358.511 371.093C358.155 368.864 357.344 366.779 356.547 364.691C356.303 364.055 356.275 363.382 356.024 362.74C355.269 360.824 354.017 359.233 352.874 357.564C351.505 355.564 349.657 354.132 347.586 352.936C346.513 352.319 345.501 351.602 344.436 350.967C343.564 350.449 342.626 350.107 341.631 349.839C339.289 349.207 337.048 348.269 334.787 347.39C329.689 345.411 324.585 343.457 319.494 341.457C311.363 338.26 303.235 335.05 295.117 331.819C293.177 331.046 293.145 331.473 293.604 329.042C294.168 326.051 294.683 323.049 295.142 320.043C295.498 317.704 295.749 315.347 296.031 312.994C296.447 309.523 296.849 306.052 297.251 302.58C297.774 298.044 298.338 293.51 298.797 288.967C299.41 282.909 299.922 276.838 300.522 270.781C300.882 267.133 301.34 263.496 301.721 259.852C301.996 257.217 302.212 254.574 302.444 251.935C302.836 247.498 303.295 243.07 303.915 238.657C304.166 236.875 304.875 235.267 305.817 233.82C308.967 228.987 311.645 223.907 314.016 218.658C318.161 209.482 321.184 199.918 323.787 190.217C326.239 181.069 328.441 171.862 330.667 162.658C331.7 158.386 332.674 154.096 333.69 149.82C334.579 146.074 335.955 142.497 337.518 138.993C338.184 137.501 338.897 136.027 339.578 134.541C339.719 134.234 339.818 133.91 339.934 133.592C339.282 133.427 338.625 133.275 337.976 133.095C332.78 131.663 327.583 130.241 322.394 128.777C321.05 128.396 319.667 128.128 318.39 127.539C318.048 127.518 317.706 127.496 317.36 127.472C316.499 129.257 315.391 130.887 314.255 132.502C313.218 133.977 312.185 135.459 311.207 136.972C304.395 147.552 298.183 158.477 292.433 169.668C282.738 188.538 274.307 207.976 266.517 227.7C266.556 228.324 266.75 228.899 266.983 229.481C267.9 231.778 268.782 234.085 269.664 236.396C269.883 236.974 270.105 237.556 270.239 238.159C270.895 241.07 271.132 244.037 271.312 247.004C271.41 248.63 271.255 250.249 271.089 251.879C270.874 253.971 270.426 255.968 269.661 257.919C268.521 260.808 266.983 263.496 265.445 266.174C264.373 268.04 263.505 269.969 262.774 271.984C261.741 274.848 261.166 277.826 260.527 280.789C260.457 281.124 260.414 281.456 260.143 281.696C260.27 282.264 260.111 282.8 260.002 283.354C259.268 287.09 258.531 290.826 257.85 294.572C257.179 298.262 256.544 301.963 255.952 305.667C255.634 307.657 255.119 309.615 255.045 311.643C255.624 311.707 256.11 312.007 256.604 312.271C259.13 313.633 261.646 315.012 264.175 316.37C266.256 317.489 268.362 318.568 270.44 319.697C272.366 320.745 274.286 321.81 276.18 322.914C276.656 323.193 277.055 323.624 277.432 324.036C277.88 324.523 277.898 325.091 277.559 325.578C277.196 326.104 276.811 326.266 276.102 326.058C273.569 325.313 271.037 324.565 268.518 323.775C265.568 322.847 262.633 321.874 259.695 320.921C258.516 320.54 257.328 320.195 256.17 319.757C255.232 319.404 254.223 319.104 253.726 318.085C251.863 318.244 250.021 317.99 248.166 317.849C245.192 317.623 242.215 317.439 239.248 317.157C236.334 316.878 233.416 316.642 230.495 316.494C227.179 316.325 223.87 316.092 220.557 315.806C217.696 315.559 214.825 315.485 211.957 315.337C211.509 315.312 211.047 315.34 210.613 315.249C209.547 315.019 208.485 315.069 207.416 315.171C206.834 316.325 206.206 317.461 205.674 318.635C204.46 321.309 203.525 324.089 202.837 326.943C201.761 331.402 201.176 335.925 201.345 340.515C201.663 349.239 204.121 357.261 209.367 364.334C210.68 366.102 212.123 367.76 213.721 369.28C214.419 369.943 215.103 370.607 215.534 371.485C215.661 371.746 215.848 371.954 216.183 371.908C216.183 371.372 215.802 370.977 215.654 370.497C215.552 370.162 215.724 369.753 216.063 369.693C216.504 369.615 216.956 369.58 217.4 369.58C221.122 369.573 224.847 369.594 228.569 369.573C230.372 369.562 232.136 370.074 233.942 369.954C234.051 369.947 234.168 369.979 234.27 370.025C234.859 370.282 235.483 370.257 236.104 370.24C237.561 370.201 239.032 370.395 240.472 369.95C240.782 369.855 241.146 369.919 241.484 369.919C251.919 369.919 262.358 369.919 272.793 369.922C273.241 369.922 273.725 369.876 274.134 370.014C274.91 370.275 275.693 370.236 276.476 370.236C285.052 370.243 293.625 370.264 302.201 370.233C303.348 370.229 304.441 370.455 305.535 370.667C307.105 370.974 308.057 372.572 307.92 374.272C307.803 375.687 306.159 377.101 304.946 377.031C303.933 376.971 302.917 377.02 301.901 377.031C301.111 377.038 300.289 376.921 299.545 377.112C298.536 377.369 297.537 377.352 296.528 377.355C294.271 377.366 292.016 377.359 289.758 377.355C289.307 377.355 288.824 377.433 288.414 377.299C287.363 376.957 286.298 377.034 285.229 377.034C271.125 377.024 257.021 377.02 242.92 377.013C242.133 377.013 241.364 376.932 240.578 376.791C239.149 376.533 237.681 376.389 236.228 376.368C231.998 376.311 227.765 376.332 223.535 376.35C222.66 376.35 221.849 376.315 221.267 375.528C221.027 375.203 220.674 374.963 220.251 375.016C219.362 375.126 218.97 374.611 218.592 373.919C218.374 373.514 218.18 372.942 217.527 372.963C217.601 373.612 218.053 374.057 218.391 374.565C218.829 375.217 218.638 375.581 217.816 375.637C217.312 375.673 216.804 375.662 216.299 375.673C214.165 375.715 212.027 375.775 209.893 375.792C208.468 375.803 207.11 376.089 205.804 376.65C205.702 377.144 205.381 377.56 205.346 378.086C205.272 379.26 205.12 380.435 205.053 381.61C204.894 384.527 204.767 387.448 204.626 390.369C204.619 390.539 204.626 390.708 204.601 390.874C204.171 393.774 204.443 396.719 204.016 399.616C203.91 400.328 204.09 400.942 204.432 401.542L204.418 401.538Z" fill="#696D65"/>
<path d="M295.558 116.342C290.221 121.186 285.201 126.354 280.103 131.441C279.705 131.84 279.32 132.256 278.763 132.436C278.78 132.814 278.547 133.053 278.286 133.272C275.69 135.925 273.143 138.62 270.642 141.365C268.864 143.316 267.184 145.362 265.237 147.161C262.884 149.338 260.591 151.578 258.266 153.786C257.494 154.524 256.7 155.24 255.924 155.973C255.589 156.291 255.236 156.552 254.76 156.594C254.781 157.099 254.46 157.416 254.142 157.741C253.236 158.662 252.198 159.445 251.274 160.327C247.824 163.625 244.441 166.994 240.984 170.293C237.777 173.351 234.616 176.47 231.67 179.804C229.144 182.661 226.255 185.191 223.779 188.105C223.595 188.32 223.348 188.486 223.204 188.722C222.435 189.995 221.256 190.891 220.265 191.957C220.036 192.204 219.785 192.437 219.429 192.486C218.568 193.594 217.707 194.698 216.846 195.806C216.794 196.003 216.702 196.169 216.49 196.24L216.515 196.211C216.48 196.416 216.391 196.564 216.159 196.575L216.176 196.557C216.307 197.238 215.883 197.742 215.608 198.282C213.858 201.711 212.567 205.313 211.629 209.042C211.287 210.404 211.022 211.79 210.8 213.18C210.369 215.861 210.366 218.567 210.391 221.273C210.408 223.312 210.669 225.319 211.131 227.295C211.869 230.441 212.966 233.412 214.998 236.026C218 239.889 223.013 241.48 227.853 239.307C230.1 238.298 232.055 236.866 233.663 235.024C236.203 232.117 238.158 228.836 239.618 225.252C240.987 221.897 241.996 218.451 242.596 214.88C242.702 214.256 242.874 213.688 243.326 213.208C244.914 211.529 246.48 209.832 248.06 208.146C248.829 207.324 249.63 206.534 250.357 205.666C250.964 204.939 251.585 204.191 252.41 203.673C252.53 203.486 252.625 203.281 252.77 203.115C254.357 201.32 255.948 199.524 257.547 197.742C257.995 197.245 258.481 196.783 258.94 196.296C259.187 196.035 259.487 195.922 259.833 195.904C259.914 195.135 260.348 194.567 260.856 194.021C262.08 192.708 263.343 191.424 264.465 190.031C265.205 189.11 266.094 188.313 266.758 187.353C267.594 186.147 268.631 185.113 269.583 184.03C271.026 182.386 272.391 180.675 273.764 178.985C275.736 176.555 277.863 174.237 279.613 171.626C279.821 171.319 280.121 171.199 280.474 171.178C280.417 170.628 280.706 170.233 281.024 169.816C283.779 166.193 286.538 162.577 289.247 158.919C291.223 156.252 293.347 153.709 295.583 151.264C297.442 149.232 299.421 147.313 301.27 145.263C302.928 143.425 304.519 141.531 306.05 139.594C309.052 135.802 312.287 132.214 315.483 128.587C315.818 128.206 316.185 127.857 316.538 127.494C316.753 127.271 317.007 127.208 317.304 127.271C317.283 126.308 317.72 125.603 318.408 124.932C319.932 123.444 321.516 122.026 323.086 120.583C324.405 119.369 325.823 118.269 327.114 117.023C327.831 116.335 328.631 115.704 329.376 115.026C330.371 114.123 331.38 113.234 332.424 112.395C334.382 110.818 336.421 109.34 338.322 107.699C339.077 107.047 339.8 106.747 340.742 106.86C340.894 105.357 340.965 103.84 341.222 102.355C341.476 100.898 341.43 99.4478 341.444 97.9908C341.444 97.7156 341.391 97.4299 341.31 97.1653C340.957 96.0329 340.442 94.971 339.811 93.9727C339.314 93.1895 338.65 92.7027 337.638 92.5862C335.694 92.3675 333.771 91.9618 331.835 91.6831C328.66 91.228 325.463 91.2033 322.264 91.2386C321.371 91.2492 320.63 91.5773 319.995 92.1911C319.47 92.6956 318.93 93.186 318.397 93.6834C318.57 94.6394 318.224 95.4437 317.646 96.1669C317.332 96.5585 316.993 96.9395 316.63 97.2852C313.674 100.111 310.947 103.17 307.825 105.837C306.385 107.068 304.904 108.271 303.57 109.64C302.755 110.476 301.785 111.156 300.875 111.897C299.704 112.85 298.451 113.7 297.411 114.808C297.107 115.132 296.733 115.39 296.395 115.676C296.236 116.046 295.978 116.286 295.565 116.342H295.558Z" fill="#F5BA92"/>
<path d="M252.402 203.679C251.577 204.198 250.956 204.945 250.349 205.672C249.623 206.54 248.825 207.33 248.053 208.152C246.472 209.839 244.902 211.535 243.318 213.215C242.867 213.691 242.694 214.262 242.588 214.887C241.988 218.457 240.979 221.904 239.611 225.258C238.147 228.843 236.196 232.124 233.656 235.03C232.047 236.872 230.093 238.304 227.845 239.313C223.005 241.486 217.989 239.895 214.99 236.032C212.958 233.418 211.861 230.448 211.124 227.301C210.662 225.326 210.401 223.318 210.383 221.279C210.358 218.573 210.362 215.864 210.792 213.186C211.014 211.8 211.279 210.414 211.621 209.048C212.56 205.323 213.847 201.721 215.601 198.289C215.876 197.749 216.299 197.241 216.169 196.563C214.613 197.721 213.424 199.23 212.281 200.758C210.073 203.707 208.312 206.914 207.176 210.435C206.573 212.308 205.829 214.142 205.522 216.104C205.148 218.492 204.774 220.88 204.594 223.297C204.463 225.04 204.347 226.779 204.4 228.525C204.435 229.651 204.566 230.772 204.583 231.894C204.64 235.108 204.643 238.322 204.696 241.532C204.749 244.799 204.848 248.066 204.911 251.332C204.929 252.288 204.894 253.241 204.784 254.2C204.682 255.089 204.654 256.014 204.767 256.899C204.971 258.473 204.922 260.049 204.985 261.623C205.12 264.886 205.239 268.153 205.395 271.416C205.469 272.989 205.613 274.559 205.726 276.133C206.732 276.242 207.737 276.358 208.746 276.457C210.259 276.602 211.791 276.641 213.283 276.898C214.458 277.103 215.639 277.11 216.814 277.24C218.659 277.449 220.504 277.646 222.349 277.837C223.75 277.981 225.154 278.091 226.551 278.242C228.174 278.419 229.789 278.655 231.412 278.803C233.261 278.976 235.116 279.082 236.972 279.219C237.198 279.237 237.42 279.276 237.642 279.301C239.321 279.481 240.997 279.678 242.676 279.833C244.472 279.999 246.282 280.027 248.06 280.292C249.351 280.482 250.649 280.44 251.93 280.624C254.66 281.019 257.38 281.467 260.128 281.696C260.4 281.453 260.442 281.121 260.513 280.789C261.151 277.826 261.723 274.849 262.76 271.984C263.487 269.97 264.358 268.036 265.431 266.174C266.969 263.496 268.507 260.808 269.646 257.919C270.415 255.971 270.863 253.971 271.075 251.879C271.241 250.253 271.396 248.63 271.297 247.004C271.117 244.037 270.884 241.07 270.225 238.16C270.091 237.56 269.868 236.974 269.65 236.396C268.768 234.089 267.886 231.778 266.969 229.481C266.736 228.899 266.542 228.324 266.503 227.696C265.917 227.354 265.783 226.715 265.515 226.172C262.873 220.845 260.252 215.508 257.006 210.509C255.51 208.205 254.068 205.863 252.395 203.679H252.402Z" fill="#8A8ADF"/>
<path d="M260.132 281.696C257.38 281.467 254.66 281.019 251.933 280.624C250.653 280.437 249.354 280.483 248.063 280.292C246.285 280.027 244.476 279.999 242.68 279.833C241.001 279.678 239.325 279.481 237.646 279.301C237.423 279.276 237.198 279.237 236.975 279.22C235.123 279.082 233.268 278.973 231.416 278.803C229.793 278.652 228.177 278.415 226.554 278.242C225.154 278.091 223.753 277.981 222.353 277.837C220.508 277.646 218.663 277.449 216.818 277.241C215.643 277.11 214.465 277.099 213.286 276.898C211.794 276.641 210.263 276.602 208.75 276.457C207.741 276.362 206.735 276.242 205.73 276.133C205.681 277.368 205.709 278.592 205.878 279.83C206.044 281.047 205.973 282.299 206.016 283.534C206.121 286.734 206.28 289.934 206.446 293.13C206.573 295.599 206.527 298.076 206.753 300.534C207 303.226 206.88 305.932 207.113 308.613C207.307 310.804 207.254 312.991 207.402 315.175C208.471 315.076 209.533 315.027 210.598 315.252C211.032 315.344 211.494 315.316 211.942 315.341C214.81 315.492 217.686 315.566 220.543 315.81C223.852 316.096 227.161 316.325 230.481 316.498C233.402 316.649 236.319 316.886 239.233 317.161C242.204 317.443 245.181 317.627 248.152 317.852C250.004 317.994 251.845 318.248 253.711 318.089C253.842 317.443 253.955 316.791 254.103 316.148C254.452 314.656 254.502 313.1 255.031 311.644C255.105 309.619 255.62 307.657 255.937 305.667C256.53 301.963 257.165 298.266 257.835 294.573C258.516 290.826 259.257 287.09 259.987 283.354C260.097 282.8 260.252 282.264 260.128 281.696H260.132Z" fill="#FEB88B"/>
<path d="M204.418 401.539C204.072 400.943 203.896 400.325 204.001 399.613C204.428 396.717 204.157 393.767 204.587 390.871C204.612 390.705 204.605 390.532 204.612 390.367C204.753 387.446 204.88 384.525 205.039 381.607C205.102 380.429 205.254 379.258 205.331 378.083C205.363 377.554 205.688 377.137 205.79 376.647C204.146 375.331 202.372 374.283 200.283 373.818C199.669 373.68 199.059 373.634 198.438 373.631C196.519 373.62 194.6 373.638 192.684 373.613C191.711 373.599 190.783 373.775 189.869 374.089C188.483 374.566 187.1 375.056 185.696 375.469C183.248 376.188 180.976 377.324 178.675 378.386C173.401 380.817 168.134 383.262 162.92 385.819C160.387 387.061 157.886 388.345 155.463 389.784C154.154 390.564 152.894 391.425 151.794 392.483C150.143 394.064 149.494 396.706 150.182 398.861C150.81 400.833 152.806 402.417 154.87 402.389C160.85 402.308 166.815 402.788 172.791 402.753C175.783 402.735 178.771 402.774 181.762 402.806C183.674 402.827 185.583 403.194 187.498 403.017C191.213 402.675 194.935 402.883 198.65 402.707C199.652 402.661 200.654 402.432 201.641 402.227C202.573 402.036 203.49 401.772 204.414 401.539H204.418Z" fill="#FFB88C"/>
<path d="M217.513 372.957C218.166 372.936 218.36 373.507 218.579 373.913C218.956 374.604 219.348 375.123 220.237 375.01C220.66 374.957 221.013 375.197 221.253 375.521C221.835 376.308 222.646 376.347 223.521 376.343C227.751 376.326 231.984 376.308 236.214 376.361C237.668 376.379 239.132 376.527 240.564 376.784C241.351 376.925 242.12 377.007 242.906 377.007C257.01 377.014 271.115 377.017 285.215 377.028C286.28 377.028 287.349 376.947 288.401 377.292C288.81 377.426 289.297 377.349 289.745 377.349C292.003 377.352 294.257 377.359 296.515 377.349C297.524 377.345 298.522 377.363 299.531 377.105C300.275 376.915 301.101 377.035 301.887 377.024C302.903 377.014 303.919 376.968 304.932 377.024C306.145 377.095 307.793 375.677 307.906 374.265C308.043 372.565 307.091 370.967 305.521 370.66C304.427 370.448 303.334 370.223 302.187 370.226C293.611 370.258 285.039 370.237 276.463 370.23C275.676 370.23 274.896 370.269 274.12 370.007C273.711 369.87 273.228 369.916 272.78 369.916C262.344 369.912 251.906 369.912 241.471 369.912C241.132 369.912 240.772 369.849 240.458 369.944C239.022 370.385 237.551 370.194 236.091 370.233C235.473 370.251 234.849 370.276 234.256 370.018C234.154 369.972 234.038 369.94 233.928 369.947C232.118 370.071 230.358 369.559 228.555 369.566C224.834 369.588 221.108 369.566 217.386 369.574C216.938 369.574 216.487 369.609 216.049 369.686C215.714 369.746 215.538 370.156 215.64 370.491C215.788 370.974 216.169 371.366 216.169 371.902C216.215 371.994 216.289 372.029 216.388 372.001C216.882 371.898 217.146 372.096 217.178 372.6C217.288 372.72 217.397 372.837 217.506 372.957H217.513Z" fill="#494A45"/>
<path d="M317.398 93.6336C317.254 93.5525 317.116 93.4149 316.961 93.3973C315.568 93.2421 314.167 93.1221 312.774 92.9598C311.271 92.787 309.768 92.5859 308.265 92.3883C307.207 92.2508 306.141 92.2437 305.079 92.0638C303.591 91.8098 302.063 91.7675 300.557 91.6122C298.994 91.4499 297.435 91.2594 295.875 91.0795C295.819 91.0725 295.766 91.0442 295.71 91.0442C292.902 90.9349 290.122 90.3987 287.296 90.5786C282.135 90.9067 278.018 94.3886 277.182 99.5921C276.628 103.042 277.824 105.886 280.664 108.013C281.39 108.556 282.145 109.025 282.943 109.445C286.273 111.209 289.599 112.984 292.93 114.747C293.477 115.037 294.009 115.361 294.644 115.425C294.782 114.476 295.357 113.806 296.009 113.156C299.516 109.667 302.977 106.136 306.815 102.989C308.505 101.603 309.987 99.9731 311.62 98.5055C313.497 96.8192 315.324 95.0906 317.395 93.6407L317.398 93.6336Z" fill="#F5BA92"/>
<path d="M226.488 166.024C226.17 168.377 225.366 170.607 224.77 172.889C223.687 177.02 222.509 181.13 221.383 185.25C221.281 185.624 221.291 186.027 221.246 186.418C222.025 186.499 222.678 186.288 223.189 185.656C223.472 185.307 223.881 185.042 224.1 184.665C224.53 183.913 225.151 183.345 225.754 182.76C229.765 178.897 233.515 174.773 237.703 171.083C240.782 168.374 243.432 165.209 246.582 162.549C248.251 161.138 249.69 159.469 251.398 158.076C252.227 157.402 253.013 156.69 253.966 156.192C253.814 156.03 253.687 155.818 253.504 155.709C252.392 155.046 251.285 154.375 250.145 153.769C249.006 153.162 247.863 152.544 246.625 152.142C244.825 151.557 243.072 151.595 241.417 152.583C240.648 153.042 239.876 153.522 239.188 154.093C236.51 156.326 233.903 158.644 231.43 161.106C230.393 162.14 229.36 163.177 228.305 164.19C227.903 164.578 227.444 164.906 227.01 165.262C227.017 165.636 226.767 165.837 226.495 166.02L226.488 166.024Z" fill="#FEB78A"/>
<path d="M318.383 127.539C319.663 128.128 321.046 128.397 322.387 128.778C327.573 130.242 332.773 131.663 337.969 133.096C338.618 133.275 339.274 133.427 339.927 133.593C340.386 133.212 340.551 132.669 340.724 132.14C341.613 129.416 342.181 126.633 342.495 123.775C342.717 121.757 342.83 119.746 342.732 117.732C342.576 114.596 342.188 111.484 341.296 108.461C341.268 108.362 341.158 108.292 341.088 108.207C339.782 109.347 338.463 110.472 337.175 111.629C336.466 112.268 335.877 113.051 335.119 113.622C333.549 114.804 332.229 116.268 330.656 117.436C329.619 118.208 328.719 119.133 327.724 119.947C326.214 121.189 324.631 122.346 323.159 123.631C321.808 124.809 320.44 125.955 318.93 126.929C318.707 127.074 318.563 127.335 318.379 127.543L318.383 127.539Z" fill="#FEB88C"/>
<path d="M226.488 166.023C226.763 165.84 227.01 165.639 227.003 165.265C226.371 164.923 226.064 164.32 225.757 163.72C224.226 160.756 223.284 157.589 222.572 154.35C222.078 152.106 221.651 149.852 221.224 147.594C221.136 147.122 220.967 146.744 220.579 146.469C220.356 146.497 220.138 146.522 219.915 146.55C219.767 146.716 219.647 146.92 219.471 147.047C215.957 149.58 212.458 152.135 208.909 154.622C203.702 158.276 198.481 161.91 193.125 165.35C192.367 165.836 191.601 166.309 190.822 166.761C190.331 167.047 189.809 167.258 189.217 167.191C188.938 167.159 188.673 166.884 188.719 166.62C188.754 166.401 188.811 166.179 188.888 165.967C189.721 163.632 190.49 161.272 191.411 158.971C192.861 155.366 194.462 151.821 195.912 148.215C197.158 145.121 198.745 142.197 200.237 139.23C201.267 137.18 202.365 135.141 203.585 133.176C205.159 130.65 206.7 128.114 208.443 125.69C209.759 123.863 211.092 122.06 212.599 120.399C214.532 118.271 216.61 116.331 219.069 114.761C224.188 111.491 231.751 111.339 236.849 114.091C238.694 114.292 240.024 115.375 241.234 116.659C241.654 116.818 242.049 117.03 242.525 117.015C243.425 116.987 244.321 116.977 245.217 116.832C246.659 116.603 248.102 116.345 249.573 116.289C252.625 116.172 255.645 116.359 258.647 116.955C263.406 117.901 267.579 120.007 271.238 123.15C273.919 125.454 275.982 128.255 277.683 131.342C278.014 131.945 278.244 132.569 278.286 133.261C278.547 133.039 278.776 132.799 278.759 132.425C278.678 131.793 278.346 131.261 278.046 130.721C276.956 128.749 275.806 126.826 274.194 125.207C273.128 124.138 272.239 122.886 270.948 122.046C269.445 121.072 268.119 119.862 266.426 119.146C265.089 118.578 263.879 117.703 262.464 117.277C259.931 116.511 257.352 116.003 254.717 115.71C252.297 115.442 249.909 115.738 247.506 115.812C246.557 115.841 245.619 116.102 244.673 116.243C244.172 116.317 243.668 116.352 243.167 116.412C242.384 116.507 241.774 116.229 241.188 115.689C240.366 114.931 239.523 114.151 238.461 113.731C237.053 113.17 235.649 112.486 234.178 112.221C232.813 111.974 231.483 111.392 230.047 111.565C227.355 111.121 224.794 111.713 222.265 112.542C219.873 113.325 217.77 114.638 215.88 116.261C213.273 118.501 211.004 121.058 208.933 123.81C207.275 126.011 205.832 128.347 204.305 130.629C203.173 132.319 202.502 134.27 201.165 135.822C201.095 135.907 201.045 136.016 201.006 136.118C199.976 138.747 198.251 141.033 197.309 143.707C196.844 145.037 195.983 146.176 195.415 147.474C193.923 150.882 192.596 154.357 191.217 157.807C190.13 160.527 189.114 163.279 188.067 166.013C188.007 166.172 187.94 166.327 187.89 166.489C187.544 167.586 188.335 168.017 189.132 167.967C189.806 167.925 190.43 167.622 191.047 167.336C192.282 166.768 193.383 165.981 194.512 165.24C196.441 163.974 198.346 162.676 200.251 161.377C203.691 159.031 207.134 156.692 210.553 154.315C212.906 152.678 215.216 150.984 217.541 149.305C218.317 148.744 219.062 148.145 219.841 147.591C220.187 147.344 220.526 147.492 220.6 147.884C220.868 149.263 221.087 150.653 221.397 152.022C221.976 154.597 222.498 157.183 223.366 159.695C224.032 161.624 224.914 163.438 225.863 165.23C226.018 165.519 226.131 165.861 226.481 166.006L226.488 166.023Z" fill="#E9A67D"/>
<path d="M253.962 156.195C253.01 156.693 252.223 157.402 251.394 158.079C249.69 159.469 248.251 161.141 246.578 162.552C243.432 165.209 240.779 168.377 237.699 171.086C233.508 174.776 229.758 178.9 225.75 182.763C225.144 183.345 224.526 183.913 224.096 184.668C223.881 185.049 223.468 185.31 223.186 185.659C222.678 186.291 222.022 186.503 221.242 186.421C221.129 186.615 220.981 186.795 220.91 187C220.307 188.803 219.707 190.605 219.425 192.493C219.781 192.44 220.032 192.21 220.261 191.964C221.252 190.898 222.431 190.002 223.2 188.729C223.341 188.492 223.591 188.326 223.775 188.111C226.251 185.197 229.141 182.668 231.666 179.81C234.612 176.477 237.773 173.358 240.98 170.299C244.437 167.004 247.82 163.635 251.27 160.333C252.195 159.448 253.232 158.665 254.138 157.748C254.459 157.423 254.777 157.105 254.756 156.601C254.586 156.276 254.294 156.192 253.955 156.202L253.962 156.195Z" fill="#E8A57C"/>
<path d="M317.398 93.6334C315.327 95.0833 313.5 96.8119 311.623 98.4982C309.99 99.9658 308.508 101.599 306.818 102.982C302.98 106.129 299.523 109.66 296.013 113.149C295.36 113.798 294.785 114.469 294.648 115.417C294.76 115.509 294.877 115.597 294.993 115.689C295.455 115.682 295.921 115.679 296.383 115.671C296.725 115.382 297.096 115.125 297.399 114.804C298.44 113.696 299.692 112.846 300.864 111.893C301.774 111.152 302.744 110.472 303.559 109.635C304.892 108.267 306.374 107.064 307.813 105.832C310.935 103.165 313.662 100.107 316.619 97.2811C316.982 96.9354 317.321 96.5544 317.635 96.1628C318.213 95.4396 318.559 94.6353 318.386 93.6793C318.054 93.6616 317.726 93.6475 317.395 93.6299L317.398 93.6334Z" fill="#E8A57C"/>
<path d="M318.383 127.539C318.563 127.331 318.711 127.07 318.934 126.925C320.443 125.955 321.812 124.809 323.163 123.627C324.634 122.343 326.218 121.186 327.728 119.944C328.723 119.125 329.619 118.205 330.66 117.432C332.23 116.264 333.553 114.8 335.123 113.618C335.877 113.047 336.47 112.264 337.179 111.625C338.467 110.465 339.786 109.343 341.092 108.203C341.137 107.713 341.007 107.268 340.746 106.859C339.8 106.746 339.081 107.046 338.326 107.699C336.424 109.339 334.385 110.821 332.427 112.394C331.383 113.234 330.374 114.123 329.379 115.026C328.635 115.703 327.831 116.331 327.118 117.023C325.823 118.272 324.409 119.369 323.089 120.582C321.523 122.025 319.939 123.443 318.411 124.932C317.723 125.602 317.29 126.308 317.311 127.271C317.311 127.345 317.325 127.412 317.364 127.476C317.706 127.497 318.048 127.518 318.394 127.543L318.383 127.539Z" fill="#E8A57C"/>
<path d="M296.387 115.675C295.925 115.682 295.459 115.685 294.997 115.692C295.184 115.908 295.371 116.126 295.558 116.342C295.97 116.285 296.228 116.045 296.387 115.675Z" fill="#FEBF96"/>
<path d="M217.182 372.603C217.15 372.099 216.882 371.901 216.391 372.004C216.529 372.367 216.765 372.607 217.182 372.603Z" fill="#696D65"/>
<path d="M216.486 196.243C216.698 196.175 216.79 196.01 216.843 195.809C216.723 195.953 216.606 196.098 216.486 196.243Z" fill="#8A8ADF"/>
<path d="M216.154 196.581C216.387 196.571 216.475 196.422 216.511 196.218C216.31 196.26 216.197 196.384 216.154 196.581Z" fill="#8A8ADF"/>
<path d="M255.038 311.641C254.509 313.098 254.46 314.653 254.11 316.146C253.959 316.788 253.846 317.44 253.719 318.086C254.216 319.105 255.225 319.405 256.164 319.758C257.321 320.196 258.513 320.538 259.688 320.922C262.63 321.878 265.562 322.852 268.511 323.776C271.03 324.566 273.563 325.314 276.096 326.059C276.801 326.267 277.189 326.105 277.553 325.579C277.888 325.092 277.874 324.524 277.426 324.037C277.048 323.624 276.649 323.194 276.173 322.915C274.279 321.811 272.363 320.742 270.433 319.698C268.356 318.569 266.25 317.49 264.168 316.371C261.639 315.013 259.127 313.63 256.598 312.272C256.104 312.008 255.617 311.704 255.038 311.644V311.641Z" fill="#494A45"/>
<path d="M253.962 156.195C254.301 156.185 254.59 156.269 254.763 156.594C255.239 156.555 255.592 156.29 255.927 155.973C256.704 155.239 257.494 154.523 258.27 153.786C260.595 151.577 262.884 149.337 265.241 147.16C267.188 145.361 268.867 143.315 270.645 141.364C273.147 138.62 275.694 135.921 278.29 133.272C278.248 132.584 278.018 131.956 277.687 131.352C275.986 128.269 273.923 125.465 271.242 123.161C267.583 120.018 263.41 117.912 258.651 116.966C255.649 116.37 252.629 116.183 249.577 116.299C248.106 116.356 246.667 116.613 245.221 116.843C244.321 116.984 243.428 116.994 242.529 117.026C242.053 117.04 241.658 116.829 241.238 116.67C241.21 117.121 241.213 117.591 240.814 117.905C240.024 118.529 239.259 119.199 238.415 119.743C237.093 120.589 235.692 121.319 234.359 122.152C233.455 122.713 232.535 123.288 231.741 123.986C229.141 126.276 227.109 129.017 225.55 132.111C225.345 132.513 225.183 132.943 224.932 133.314C223.56 135.339 222.936 137.664 222.209 139.957C221.528 142.098 221.055 144.285 220.583 146.476C220.971 146.751 221.14 147.129 221.228 147.601C221.655 149.859 222.082 152.113 222.576 154.357C223.288 157.596 224.23 160.764 225.761 163.727C226.072 164.327 226.375 164.93 227.007 165.272C227.441 164.916 227.899 164.584 228.301 164.2C229.356 163.184 230.39 162.147 231.427 161.116C233.903 158.654 236.507 156.336 239.185 154.103C239.872 153.532 240.642 153.052 241.414 152.593C243.069 151.605 244.822 151.57 246.621 152.152C247.859 152.554 249.002 153.172 250.142 153.779C251.281 154.385 252.393 155.056 253.5 155.719C253.684 155.828 253.811 156.04 253.962 156.202V156.195Z" fill="#844516"/>
<path d="M272.3 184.022C273.02 182.805 273.979 181.796 275.037 180.876C275.126 180.675 275.189 180.456 275.306 180.272C275.842 179.419 276.579 178.727 277.211 177.951C278.466 176.406 279.641 174.79 280.848 173.206C280.897 172.497 280.961 171.788 280.47 171.178C280.117 171.199 279.814 171.319 279.609 171.626C277.86 174.236 275.732 176.551 273.76 178.985C272.388 180.675 271.023 182.386 269.58 184.029C268.627 185.116 267.59 186.146 266.754 187.353C266.087 188.312 265.198 189.109 264.461 190.03C263.339 191.427 262.076 192.711 260.852 194.02C260.341 194.567 259.907 195.135 259.829 195.904C260.147 196.091 260.475 196.243 260.856 196.204C262.016 195.523 263.131 194.733 263.89 193.636C264.846 192.249 266.123 191.159 267.153 189.836C268.239 188.436 269.478 187.144 270.557 185.726C270.832 185.363 271.157 185.06 271.654 185.035C271.697 184.954 271.721 184.869 271.721 184.777C271.672 184.336 271.855 184.075 272.3 184.019V184.022Z" fill="#E9A67D"/>
<path d="M236.852 114.102C231.754 111.347 224.187 111.499 219.072 114.773C216.617 116.342 214.535 118.283 212.602 120.41C211.092 122.072 209.759 123.874 208.446 125.702C206.704 128.125 205.162 130.658 203.588 133.188C202.368 135.153 201.271 137.188 200.241 139.241C198.748 142.208 197.157 145.133 195.916 148.227C194.466 151.832 192.864 155.377 191.414 158.983C190.49 161.279 189.724 163.643 188.892 165.978C188.818 166.19 188.761 166.409 188.722 166.631C188.68 166.896 188.941 167.171 189.22 167.202C189.812 167.273 190.335 167.058 190.825 166.772C191.605 166.321 192.37 165.848 193.129 165.361C198.484 161.921 203.705 158.288 208.912 154.633C212.457 152.146 215.957 149.592 219.474 147.059C219.65 146.932 219.77 146.731 219.919 146.561C219.668 145.81 218.941 145.679 218.356 145.387C217.424 144.921 216.747 144.212 216.123 143.393C215.442 142.501 215.343 141.563 215.604 140.539C216.253 137.978 217.068 135.47 218.285 133.124C219.647 130.496 221.002 127.857 222.903 125.553C223.937 124.301 224.886 122.978 226.071 121.863C226.6 121.366 227.221 120.971 227.757 120.484C229.595 118.819 231.599 117.422 233.885 116.431C234.651 116.099 235.353 115.612 236.065 115.168C236.45 114.924 236.753 114.589 236.855 114.116L236.852 114.102Z" fill="#844516"/>
<path d="M236.852 114.101C236.75 114.574 236.446 114.909 236.062 115.153C235.353 115.601 234.647 116.084 233.881 116.416C231.595 117.41 229.592 118.804 227.754 120.469C227.218 120.956 226.593 121.351 226.067 121.848C224.882 122.963 223.933 124.29 222.899 125.538C220.998 127.842 219.643 130.481 218.282 133.109C217.065 135.455 216.25 137.967 215.601 140.525C215.339 141.548 215.438 142.489 216.119 143.378C216.744 144.197 217.417 144.906 218.352 145.372C218.938 145.664 219.665 145.799 219.915 146.546C220.137 146.518 220.356 146.494 220.578 146.465C221.051 144.275 221.527 142.087 222.205 139.946C222.931 137.653 223.556 135.332 224.928 133.303C225.178 132.933 225.344 132.502 225.545 132.1C227.105 129.01 229.133 126.265 231.737 123.976C232.534 123.274 233.451 122.702 234.354 122.141C235.691 121.312 237.088 120.582 238.411 119.732C239.258 119.188 240.02 118.518 240.81 117.894C241.209 117.58 241.205 117.111 241.233 116.659C240.023 115.375 238.693 114.292 236.848 114.091L236.852 114.101Z" fill="#633408"/>
<path d="M271.65 185.042C271.157 185.067 270.828 185.37 270.553 185.733C269.477 187.152 268.239 188.446 267.149 189.843C266.119 191.166 264.845 192.256 263.886 193.643C263.127 194.74 262.012 195.53 260.852 196.211C262.563 197.315 264.281 197.033 265.964 196.169C266.567 195.858 267.008 195.329 267.336 194.712C267.837 193.763 268.264 192.782 268.574 191.755C269.082 190.073 269.819 188.503 270.793 187.035C271.188 186.439 271.626 185.822 271.643 185.046L271.65 185.042Z" fill="#FEBF96"/>
<path d="M280.847 173.206C279.64 174.79 278.466 176.406 277.21 177.951C276.578 178.727 275.841 179.418 275.305 180.272C275.188 180.456 275.125 180.674 275.037 180.875C275.806 180.837 276.554 180.731 277.351 180.893C278.215 181.07 279.132 181.048 280.018 180.731C281.383 180.24 282.166 179.299 282.145 177.838C282.12 176.191 281.771 174.61 280.847 173.206Z" fill="#FEBF96"/>
<path d="M272.3 184.022C271.852 184.082 271.668 184.343 271.721 184.781C272.116 184.682 272.363 184.47 272.3 184.022Z" fill="#FEBF96"/>
</svg>
