<svg width="497" height="497" viewBox="0 0 497 497" fill="none" xmlns="http://www.w3.org/2000/svg">
<path d="M164.846 351.439C160.212 365.247 160.676 382.577 171.889 393.142C187.366 404.171 207.754 399.722 225.455 402.317C244.732 403.244 264.008 404.356 283.284 404.263C299.039 405.097 316.554 407.044 330.27 397.313C329.529 393.328 332.958 390.177 331.753 386.099C330.641 382.114 332.402 377.11 328.695 374.329C319.242 367.286 310.438 358.853 300.429 352.736C290.328 353.756 280.226 353.663 270.124 354.682C262.154 360.428 239.264 355.98 232.22 349.585C210.164 342.357 186.81 344.303 164.846 351.439Z" fill="#3D3C3C"/>
<path d="M164.847 351.438C186.811 344.303 210.165 342.356 232.314 349.585C234.539 346.527 232.778 341.986 233.334 338.371C233.426 324.563 232.87 310.662 234.631 296.946C220.637 281.006 205.531 265.251 192.65 248.199C183.66 235.873 168.554 218.172 180.509 203.344C194.688 190.463 205.717 210.11 212.389 220.953C220.081 234.483 228.978 248.106 238.987 259.598C242.045 250.423 239.45 245.511 236.392 237.356C227.588 222.899 220.73 205.847 208.775 193.335C192.279 183.419 169.388 191.204 164.755 210.48C161.14 223.547 163.92 237.078 165.496 250.238C167.349 261.266 167.627 272.387 169.574 283.415C172.169 306.306 168.832 329.104 164.847 351.438Z" fill="#FF8AA0"/>
<path d="M259.93 322.244C273.461 332.438 287.27 341.984 300.429 352.734C310.438 358.851 319.242 367.284 328.695 374.327C332.402 377.108 330.641 382.205 331.753 386.097C332.958 390.082 329.529 393.326 330.271 397.311C331.475 398.052 332.587 397.681 333.7 397.033C343.986 391.287 351.586 377.571 345.099 366.543C340.743 359.407 332.495 355.329 325.173 351.622C324.803 351.529 324.339 351.437 324.432 350.973C324.617 348.842 322.393 348.286 321.652 346.618C309.975 337.257 298.668 326.507 288.289 315.572C284.953 313.347 282.45 309.826 279.485 307.138C274.11 302.134 268.92 296.851 263.174 292.31C254.555 281.838 246.678 270.717 238.986 259.503C223.88 243.378 214.891 221.877 200.897 204.64C190.795 190.924 172.631 204.733 176.338 218.912C180.416 235.408 193.112 247.919 203.028 261.264C213.315 273.219 224.343 285.082 234.63 296.851C242.23 303.431 248.439 311.957 255.945 318.722" fill="#F6BB92"/>
<path d="M226.289 108.909C219.895 90.6518 197.097 89.2616 181.249 95.2855C177.728 95.3782 176.986 91.1151 170.777 93.5247C156.598 96.9536 137.692 131.892 156.968 138.194C158.081 138.287 158.544 138.657 158.822 139.862C160.953 153.114 170.592 163.309 181.805 169.889C185.42 172.576 188.385 169.889 190.517 166.645C192.185 163.865 199.043 157.748 197.097 154.783C192.926 150.705 186.995 140.603 194.872 137.36C198.394 135.877 200.062 141.067 203.028 141.623C204.14 139.399 201.452 135.877 203.954 134.302C213.593 128.741 224.528 120.678 226.289 108.909ZM183.937 105.665C183.195 115.396 172.074 135.228 161.973 136.155C161.695 135.692 162.158 135.321 162.529 135.043C170.684 129.575 175.411 120.586 179.766 111.967C180.971 108.723 182.269 105.48 182.269 101.958C183.381 100.105 184.029 104.368 183.937 105.665Z" fill="#602F0F"/>
<path d="M321.746 346.804C322.487 348.473 324.711 349.029 324.526 351.16C324.526 351.623 324.897 351.716 325.268 351.809C329.438 342.449 342.134 330.123 332.774 320.207C322.302 311.866 311.922 303.433 300.987 295.648C276.521 279.523 256.596 258.485 236.393 237.448C239.543 245.511 242.138 250.608 238.987 259.69C246.587 270.904 254.464 282.025 263.176 292.497C268.921 297.038 274.204 302.413 279.486 307.325C289.032 309.827 297.929 316.129 307.845 317.983C324.99 323.265 329.16 330.123 321.746 346.804Z" fill="#D89D75"/>
<path d="M226.29 108.907C224.622 120.677 213.593 128.74 203.955 134.3C201.36 135.876 204.14 139.397 203.028 141.621C199.97 141.065 198.302 135.876 194.873 137.358C186.996 140.602 192.927 150.611 197.097 154.781C199.136 158.488 189.776 166.736 187.552 170.258C187.644 170.907 187.83 171.37 188.478 171.648C195.151 175.633 202.472 177.023 209.886 178.877C218.227 178.691 228.792 180.174 235.928 174.984C239.264 171.648 235.094 168.312 235.65 164.605C225.178 164.512 226.66 160.064 235.279 157.747C233.611 148.757 247.79 157.654 234.26 139.675C229.719 135.783 231.665 130.037 232.406 124.94C232.314 119.287 231.201 112.336 226.29 108.907Z" fill="#F6BB92"/>
<path d="M209.793 178.784C202.379 176.838 195.058 175.541 188.386 171.556C187.737 171.37 187.552 170.814 187.459 170.166C185.42 171.648 183.567 170.722 181.713 169.795C181.62 177.116 181.064 184.345 180.045 191.573C189.405 187.681 199.97 188.33 208.867 193.334C209.145 188.515 209.515 183.696 209.793 178.784Z" fill="#ECAD83"/>
<path d="M235.187 157.749C226.568 160.066 225.178 164.514 235.557 164.607C237.318 163.402 237.504 163.124 236.299 161.641C235.187 160.344 237.318 158.49 235.187 157.749Z" fill="#CC785E"/>
<path d="M236.02 236.983C236.205 237.169 236.298 237.262 236.484 237.448C236.391 237.169 236.205 237.076 236.02 236.983Z" fill="#F7AB7B"/>
<path d="M233.334 338.37C232.777 341.984 234.538 346.525 232.314 349.583C239.357 355.885 262.155 360.334 270.218 354.68C274.203 347.915 270.033 345.413 266.233 341.15C255.575 338.092 244.269 334.477 233.334 338.37Z" fill="#F6BB92"/>
<path d="M266.233 341.15C270.032 345.506 274.203 347.915 270.218 354.68C280.319 353.754 290.421 353.754 300.522 352.734C292.46 346.618 285.416 338.833 276.334 334.292C273.739 337.258 269.476 339.018 266.233 341.15Z" fill="#F6BB92"/>
<path d="M256.039 318.817C248.439 312.051 242.323 303.525 234.723 296.945C233.241 308.437 233.241 320.021 233.426 331.606C237.689 323.265 246.864 319.28 256.039 318.817Z" fill="#FFFEFD"/>
<path d="M255.946 318.816C246.864 319.28 237.689 323.265 233.334 331.605C233.334 333.83 233.334 336.147 233.334 338.371C238.523 336.888 243.62 335.961 248.996 336.981C251.498 331.791 259.931 328.455 260.024 322.245" fill="#D89D75"/>
<path d="M321.745 346.805C323.969 340.874 328.047 331.607 323.228 326.51C315.165 317.798 300.523 314.74 288.29 315.759C291.162 319.466 294.777 322.339 298.206 325.49C304.971 321.042 311.18 324.193 299.596 326.788C306.454 333.924 314.146 340.782 321.745 346.805Z" fill="#3D3C3B"/>
<path d="M259.097 322.432C259.005 328.734 251.498 331.793 248.996 336.982C254.927 337.724 260.488 339.577 266.233 341.153C269.477 339.114 273.833 337.26 276.335 334.295C271.516 329.476 265.492 326.047 259.932 322.247C259.654 322.34 259.376 322.34 259.097 322.432Z" fill="#3E3C3B"/>
<path d="M299.596 326.788C311.273 324.1 304.972 321.042 298.206 325.49C298.577 326.046 299.04 326.51 299.596 326.788Z" fill="#1F1E1D"/>
<path d="M279.578 307.325C279.578 307.047 279.299 306.861 279.021 306.861C279.206 306.954 279.392 307.14 279.578 307.325Z" fill="#FDFAF9"/>
<path d="M183.939 105.664C184.031 104.366 183.382 100.196 182.27 102.049C182.27 105.478 180.88 108.815 179.768 112.058C175.505 120.677 170.779 129.666 162.531 135.134C162.16 135.412 161.789 135.783 161.975 136.246C172.076 135.227 183.197 115.395 183.939 105.664Z" fill="#552000"/>
</svg>
