<svg width="497" height="497" viewBox="0 0 497 497" fill="none" xmlns="http://www.w3.org/2000/svg">
<path d="M144.084 377.089C138.295 394.339 138.874 415.99 152.883 429.188C172.218 442.965 197.689 437.408 219.802 440.65C243.883 441.808 267.965 443.197 292.046 443.081C311.729 444.123 333.61 446.555 350.745 434.398C349.819 429.42 354.103 425.483 352.598 420.389C351.208 415.411 353.408 409.159 348.777 405.685C336.968 396.886 325.969 386.351 313.465 378.709C300.846 379.983 288.226 379.867 275.606 381.141C265.649 388.319 237.053 382.762 228.254 374.773C200.699 365.742 171.523 368.174 144.084 377.089Z" fill="#3D3C3C"/>
<path d="M144.085 377.089C171.524 368.174 200.7 365.743 228.371 374.773C231.149 370.953 228.95 365.28 229.644 360.764C229.76 343.514 229.065 326.147 231.265 309.012C213.783 289.099 194.911 269.417 178.818 248.114C167.588 232.715 148.716 210.602 163.652 192.078C181.365 175.985 195.143 200.53 203.479 214.075C213.088 230.979 224.203 247.998 236.707 262.354C240.527 250.892 237.285 244.756 233.465 234.568C222.466 216.507 213.899 195.204 198.963 179.574C178.355 167.186 149.758 176.911 143.969 200.993C139.454 217.317 142.927 234.221 144.896 250.661C147.211 264.438 147.559 278.331 149.99 292.109C153.232 320.706 149.064 349.187 144.085 377.089Z" fill="#FF8AA0"/>
<path d="M262.871 340.618C279.774 353.353 297.025 365.278 313.465 378.708C325.969 386.349 336.968 396.885 348.777 405.684C353.408 409.157 351.209 415.525 352.598 420.388C354.103 425.366 349.819 429.418 350.746 434.397C352.251 435.323 353.64 434.86 355.029 434.049C367.88 426.871 377.374 409.736 369.27 395.959C363.828 387.044 353.524 381.95 344.378 377.319C343.915 377.203 343.336 377.087 343.452 376.508C343.683 373.845 340.904 373.151 339.978 371.067C325.39 359.373 311.266 345.943 298.299 332.282C294.131 329.503 291.005 325.103 287.3 321.746C280.585 315.494 274.101 308.895 266.923 303.222C256.156 290.139 246.315 276.246 236.706 262.237C217.834 242.092 206.604 215.231 189.121 193.697C176.502 176.562 153.809 193.813 158.44 211.527C163.535 232.135 179.396 247.765 191.784 264.437C204.635 279.372 218.413 294.191 231.264 308.895C240.758 317.115 248.515 327.766 257.893 336.218" fill="#F6BB92"/>
<path d="M220.843 74.101C212.855 51.293 184.374 49.5564 164.576 57.0819C160.176 57.1976 159.25 51.8719 151.493 54.8821C133.779 59.1658 110.161 102.814 134.242 110.686C135.632 110.802 136.211 111.265 136.558 112.77C139.221 129.326 151.261 142.062 165.27 150.282C169.786 153.64 173.491 150.282 176.153 146.23C178.237 142.757 186.805 135.115 184.374 131.41C179.164 126.316 171.754 113.697 181.595 109.644C185.994 107.792 188.078 114.276 191.783 114.97C193.173 112.192 189.815 107.792 192.941 105.824C204.982 98.8772 218.644 88.8047 220.843 74.101ZM167.933 70.0488C167.007 82.2054 153.114 106.982 140.494 108.139C140.147 107.56 140.726 107.097 141.189 106.75C151.377 99.9192 157.282 88.6889 162.723 77.9217C164.229 73.8695 165.849 69.8173 165.849 65.4178C167.239 63.1022 168.049 68.428 167.933 70.0488Z" fill="#602F0F"/>
<path d="M340.096 371.299C341.022 373.383 343.801 374.078 343.569 376.741C343.569 377.319 344.032 377.435 344.495 377.551C349.705 365.858 365.567 350.459 353.873 338.071C340.79 327.651 327.823 317.116 314.162 307.39C283.597 287.245 258.705 260.964 233.466 234.683C237.402 244.755 240.644 251.123 236.707 262.469C246.201 276.478 256.042 290.371 266.925 303.454C274.103 309.127 280.702 315.842 287.302 321.978C299.227 325.104 310.341 332.977 322.729 335.293C344.148 341.892 349.358 350.459 340.096 371.299Z" fill="#D89D75"/>
<path d="M220.844 74.0986C218.76 88.8023 204.983 98.8748 192.942 105.821C189.7 107.79 193.173 112.189 191.784 114.968C187.963 114.273 185.879 107.79 181.596 109.642C171.755 113.694 179.164 126.198 184.374 131.408C186.921 136.039 175.228 146.343 172.449 150.743C172.565 151.553 172.797 152.132 173.607 152.479C181.943 157.458 191.089 159.194 200.351 161.51C210.771 161.278 223.97 163.131 232.885 156.647C237.053 152.479 231.843 148.311 232.537 143.68C219.455 143.565 221.307 138.007 232.074 135.113C229.99 123.883 247.704 134.997 230.801 112.536C225.128 107.674 227.559 100.496 228.485 94.128C228.369 87.0656 226.98 78.3824 220.844 74.0986Z" fill="#F6BB92"/>
<path d="M200.236 161.395C190.974 158.964 181.827 157.343 173.491 152.365C172.681 152.133 172.449 151.439 172.334 150.628C169.787 152.481 167.471 151.323 165.155 150.165C165.04 159.311 164.345 168.342 163.072 177.373C174.765 172.51 187.964 173.32 199.078 179.572C199.425 173.552 199.889 167.532 200.236 161.395Z" fill="#ECAD83"/>
<path d="M231.959 135.116C221.191 138.011 219.455 143.568 232.422 143.684C234.621 142.179 234.853 141.831 233.348 139.979C231.959 138.358 234.621 136.042 231.959 135.116Z" fill="#CC785E"/>
<path d="M233 234.103C233.232 234.334 233.348 234.45 233.58 234.682C233.464 234.334 233.232 234.219 233 234.103Z" fill="#F7AB7B"/>
<path d="M229.644 360.762C228.949 365.278 231.149 370.951 228.37 374.771C237.169 382.644 265.65 388.201 275.723 381.139C280.701 372.687 275.492 369.561 270.745 364.236C257.43 360.415 243.306 355.9 229.644 360.762Z" fill="#F6BB92"/>
<path d="M270.744 364.234C275.491 369.676 280.701 372.686 275.723 381.138C288.342 379.98 300.962 379.98 313.582 378.707C303.509 371.065 294.71 361.34 283.364 355.667C280.122 359.372 274.796 361.572 270.744 364.234Z" fill="#F6BB92"/>
<path d="M258.009 336.334C248.516 327.882 240.874 317.231 231.381 309.011C229.528 323.367 229.528 337.839 229.76 352.311C235.086 341.891 246.547 336.913 258.009 336.334Z" fill="#FFFEFD"/>
<path d="M257.894 336.335C246.547 336.914 235.086 341.892 229.644 352.312C229.644 355.091 229.644 357.985 229.644 360.764C236.128 358.911 242.495 357.754 249.21 359.027C252.336 352.544 262.872 348.376 262.988 340.619" fill="#D89D75"/>
<path d="M340.095 371.301C342.873 363.891 347.967 352.313 341.947 345.945C331.875 335.062 313.582 331.242 298.299 332.515C301.888 337.146 306.404 340.735 310.687 344.672C319.139 339.115 326.896 343.051 312.424 346.293C320.992 355.208 330.601 363.775 340.095 371.301Z" fill="#3D3C3B"/>
<path d="M261.83 340.852C261.715 348.724 252.337 352.545 249.211 359.029C256.62 359.955 263.567 362.27 270.745 364.239C274.797 361.691 280.239 359.376 283.365 355.671C277.344 349.651 269.819 345.367 262.872 340.62C262.525 340.736 262.178 340.736 261.83 340.852Z" fill="#3E3C3B"/>
<path d="M312.425 346.293C327.013 342.936 319.14 339.115 310.688 344.672C311.151 345.367 311.73 345.946 312.425 346.293Z" fill="#1F1E1D"/>
<path d="M287.416 321.979C287.416 321.631 287.068 321.399 286.72 321.399C286.952 321.515 287.184 321.747 287.416 321.979Z" fill="#FDFAF9"/>
<path d="M167.936 70.0474C168.052 68.4265 167.241 63.2166 165.852 65.5321C165.852 69.8159 164.115 73.9838 162.726 78.036C157.4 88.8032 151.496 100.034 141.191 106.864C140.728 107.212 140.265 107.675 140.497 108.254C153.116 106.98 167.01 82.204 167.936 70.0474Z" fill="#552000"/>
</svg>
