<svg width="500" height="500" viewBox="0 0 500 500" fill="none" xmlns="http://www.w3.org/2000/svg">
<path d="M381.694 366.258C381.078 374.877 376.922 381.611 370.381 386.883C363.108 392.732 354.411 395.118 345.369 395.964C335.017 396.965 324.589 397.311 314.238 396.003C305.542 394.925 296.884 393.386 288.264 391.732C278.413 389.846 268.716 387.229 258.943 385.113C258.134 384.921 257.403 384.536 256.595 384.266C256.441 383.843 256.095 383.651 255.672 383.497C250.669 381.419 245.744 379.226 240.665 377.302C236.932 375.878 233.43 373.684 229.236 373.761C229.236 372.299 230.66 371.799 231.314 370.798C234.277 366.296 237.24 361.756 240.203 357.253C241.126 355.868 241.78 354.329 243.127 353.252C243.204 353.983 243.704 354.021 244.282 354.175C247.091 354.868 249.977 354.521 252.786 354.983C258.558 355.907 264.445 355.83 270.256 356.176C278.298 356.676 286.379 356.984 294.421 357.484C300.809 357.869 307.235 357.869 313.623 358.485C316.893 358.793 320.164 358.639 323.397 359.101C326.129 359.485 328.938 359.216 331.747 359.601C333.247 359.793 333.825 358.677 334.171 357.484C334.556 356.099 333.555 355.637 332.555 355.253C331.824 354.983 331.093 354.714 330.361 354.637C326.475 354.329 322.588 354.021 318.74 353.636C315.354 353.29 311.891 353.829 308.582 352.79C309.043 348.865 307.158 346.21 303.964 344.324C302.463 343.439 300.886 342.67 299.27 342.015C290.535 338.552 281.376 336.782 272.141 335.127C262.213 333.396 256.21 340.861 254.594 350.673C252.747 350.75 250.9 350.866 249.015 350.443C246.937 350.019 244.782 349.75 242.742 350.75C241.819 350.827 241.434 350.058 240.895 349.557C238.894 347.518 237.124 345.248 234.892 343.439C229.89 339.437 224.426 336.513 217.807 337.898C209.226 339.668 200.722 342.015 192.141 343.709C184.984 345.094 181.636 351.289 182.444 356.907C177.057 357.6 171.824 358.985 166.514 360.101C164.051 360.601 161.627 361.102 159.318 362.179C158.433 362.602 157.779 363.179 158.009 364.295C158.24 365.45 159.048 365.873 160.164 365.835C161.011 365.796 161.857 365.912 162.666 365.758C166.898 365.026 171.131 364.257 175.364 363.449C178.365 362.91 181.405 362.641 184.253 361.525C186.369 364.064 189.178 365.411 192.295 366.45C197.644 368.22 203.262 368.99 208.688 370.452C215.075 372.184 221.578 373.261 228.043 374.608C227.774 376.147 228.428 376.994 229.852 377.686C235.508 380.457 241.357 382.689 247.129 385.152C247.745 385.421 248.553 385.421 248.63 386.344C247.745 387.229 246.475 387.306 245.398 387.614C229.274 392.193 212.882 395.657 196.143 397.119C187.639 397.888 179.096 397.196 170.631 396.272C165.167 395.695 159.626 395.387 154.277 393.963C143.618 391.077 133.575 386.883 124.917 379.803C121.607 377.109 119.491 373.646 118.144 369.683C117.759 368.528 117.721 367.412 117.913 366.219C120.607 366.373 123.3 366.912 125.956 367.374C132.844 368.49 132.959 368.721 136.615 362.795C140.463 356.522 144.965 350.981 151.314 347.018C154.008 345.325 155.893 342.785 156.509 339.437C156.624 338.783 156.586 337.821 157.586 337.629C162.627 337.706 167.629 336.975 172.593 336.32C189.909 334.127 207.341 332.934 224.734 331.857C225.734 332.357 226.773 332.203 227.812 332.241C235.431 332.395 243.012 331.626 250.631 331.587C259.366 331.51 268.062 331.934 276.797 332.165C283.954 332.934 291.15 333.319 298.346 333.396C310.198 333.511 321.857 334.897 333.517 336.744C336.518 337.205 339.558 337.898 342.637 337.513C343.06 337.667 343.368 337.975 343.406 338.398C343.983 342.785 346.715 345.594 350.256 347.941C353.411 350.019 356.335 352.444 358.529 355.56C360.915 358.908 363.185 362.371 365.494 365.758C366.648 367.489 368.11 368.143 370.342 367.72C374.075 367.027 377.923 366.72 381.694 366.258Z" fill="#696C65"/>
<path d="M263.714 202.911C266.985 203.758 270.41 203.681 273.719 204.219C274.45 204.335 275.22 204.373 275.912 204.681C276.028 205.297 276.297 205.913 276.259 206.528C276.105 211.531 277.028 216.418 277.99 221.266C280.53 234.08 283.185 246.855 288.303 258.977C288.649 259.785 288.688 260.747 288.842 261.632C288.649 261.901 288.303 262.17 288.264 262.478C287.726 267.827 285.84 272.868 284.686 278.101C283.647 282.911 282.454 287.683 281.338 292.454C270.987 289.53 260.52 287.105 249.63 287.336C239.395 287.529 229.236 288.029 219.577 291.877C218.5 290.953 218.385 289.568 218 288.298C215.422 279.563 212.882 270.867 210.342 262.132C210.573 260.015 212.074 258.515 212.92 256.706C215.999 249.972 217.23 242.738 218.615 235.542C220.539 225.383 222.54 215.263 223.502 204.951C226.658 203.95 229.967 204.296 233.161 203.604C234.392 203.334 235.624 203.219 236.855 203.027C237.625 203.488 238.433 203.912 239.164 204.45C242.435 206.913 245.744 209.376 248.938 211.954C250.246 212.993 251.131 212.993 252.324 211.877C254.094 210.222 256.018 208.683 257.904 207.144C259.828 205.566 261.444 203.758 263.714 202.911Z" fill="#8A8AD9"/>
<path d="M288.88 261.63C288.688 260.745 288.688 259.783 288.341 258.975C283.262 246.854 280.568 234.078 278.029 221.265C277.067 216.416 276.143 211.529 276.297 206.527C276.335 205.911 276.066 205.295 275.951 204.68C286.571 204.949 294.921 209.644 301.386 217.878C305.927 223.689 309.39 230.115 312.853 236.618C318.894 247.893 325.667 258.706 332.016 269.788C336.287 277.253 340.097 284.949 344.368 292.376C351.218 304.381 357.144 316.887 364.57 328.547C366.687 331.895 369.957 334.203 372.343 337.282C377.192 343.554 381.771 349.942 383.618 357.83C384.31 360.793 384.118 363.602 382.117 366.065C381.886 365.834 381.732 365.795 381.694 366.18L381.732 366.142C377.923 366.604 374.113 366.911 370.342 367.604C368.149 367.989 366.687 367.373 365.494 365.642C363.185 362.217 360.953 358.792 358.529 355.444C356.297 352.327 353.411 349.903 350.256 347.825C346.715 345.478 344.022 342.707 343.406 338.282C343.329 337.821 343.06 337.551 342.637 337.397C342.752 336.512 342.521 335.82 341.982 335.05C336.48 327.162 330.862 319.312 325.551 311.269C314.585 294.646 302.54 278.831 290.612 262.938C290.15 262.4 289.688 261.784 288.88 261.63Z" fill="#F7BB92"/>
<path d="M223.579 204.834C222.617 215.147 220.655 225.267 218.692 235.426C217.307 242.621 216.076 249.856 212.997 256.59C212.151 258.437 210.689 259.937 210.419 262.054C209.65 262.208 209.342 262.9 208.919 263.439C190.871 286.489 174.941 311.039 158.24 335.05C157.702 335.858 157.394 336.628 157.548 337.59C156.509 337.782 156.586 338.744 156.47 339.399C155.893 342.708 154.008 345.248 151.276 346.979C144.965 350.981 140.463 356.484 136.576 362.756C132.921 368.682 132.805 368.451 125.917 367.335C123.262 366.912 120.607 366.335 117.875 366.181C116.105 363.949 115.643 361.409 116.259 358.716C118.029 350.75 122.031 343.747 127.533 337.975C134.344 330.856 139.616 322.775 144.003 314.156C151.468 299.533 159.934 285.488 167.553 270.943C172.055 262.362 177.365 254.204 182.175 245.777C185.754 239.543 188.986 233.117 192.642 226.922C196.413 220.572 200.376 214.223 206.879 210.183C211.997 207.027 217.346 204.449 223.579 204.834Z" fill="#F7BB92"/>
<path d="M263.714 202.91C261.405 203.757 259.828 205.565 257.981 207.028C256.095 208.567 254.171 210.106 252.401 211.761C251.208 212.877 250.323 212.915 249.015 211.838C245.821 209.259 242.512 206.797 239.241 204.334C238.51 203.795 237.702 203.372 236.932 202.91C236.971 198.254 237.124 193.637 236.894 188.98C236.855 188.057 236.701 187.21 236.124 186.441C231.776 180.746 229.467 174.32 228.89 167.201C228.851 166.508 228.659 165.854 228.543 165.161C229.236 163.776 229.082 162.198 228.813 160.852C227.697 154.772 230.275 150.654 235.124 147.384C236.162 146.691 237.086 146.191 238.356 146.191C245.128 146.229 251.901 146.46 258.673 146.114C262.675 145.921 265.638 147.114 268.524 149.846C270.871 152.04 272.103 154.118 271.872 157.388C271.68 159.967 271.333 162.66 272.18 165.238C271.526 172.857 269.563 180.015 264.792 186.171C264.33 186.749 264.137 187.364 264.099 188.095C263.714 193.059 263.676 197.985 263.714 202.91ZM237.779 190.25C237.317 191.982 238.433 192.598 239.857 192.905C244.397 193.867 248.899 194.906 253.632 194.252C256.441 193.867 259.212 193.329 261.983 192.636C263.984 192.136 263.368 190.597 263.252 189.404C263.137 187.98 262.098 188.48 261.174 188.673C258.288 189.365 255.402 190.019 252.363 190.058C248.014 190.096 243.743 189.904 239.549 188.673C237.933 188.172 237.548 188.673 237.779 190.25Z" fill="#F7BB92"/>
<path d="M221.463 146.768C221.463 146.191 221.463 145.652 221.424 145.075C222.271 142.804 221.925 140.38 222.502 138.033C223.464 134.108 224.772 130.491 227.466 127.489C228.043 126.874 228.697 126.335 228.505 125.334C229.082 125.411 229.582 125.296 230.044 124.873C232.584 122.525 235.546 120.909 238.817 119.755C239.548 119.485 240.28 119.178 240.318 118.216C241.28 118.177 242.28 118.254 243.242 118.139C249.014 117.561 254.748 117.484 260.443 118.639C260.712 119.216 261.213 119.37 261.751 119.562C266.831 121.409 271.294 124.18 274.411 128.682C278.259 134.223 279.722 140.38 278.606 147.114C278.452 147.961 278.182 148.923 278.875 149.731C278.836 150 278.798 150.269 278.76 150.577C278.028 150.693 277.721 151.154 277.644 151.886C277.336 154.425 276.143 156.657 275.258 158.966C274.758 160.236 274.142 161.621 272.603 162.737C272.603 160.851 272.41 159.235 272.641 157.696C273.218 154.04 271.795 151.385 268.986 149.269C267.831 148.384 266.792 147.383 265.676 146.421C264.907 145.729 263.983 145.575 262.944 145.575C254.44 145.613 245.898 145.575 237.394 145.575C236.624 145.575 235.893 145.613 235.277 146.191C233.969 147.422 232.66 148.692 231.237 149.808C228.736 151.732 227.735 154.156 228.158 157.273C228.312 158.427 228.197 159.659 228.158 160.813C228.158 161.275 228.389 161.89 227.774 162.083C227.158 162.275 227.004 161.659 226.773 161.236C224.695 157.196 222.771 153.117 222.694 148.422C222.617 147.576 222.463 146.883 221.463 146.768Z" fill="#7A4821"/>
<path d="M240.279 118.254C240.279 119.216 239.51 119.524 238.778 119.794C235.546 120.948 232.545 122.564 230.005 124.911C229.543 125.335 229.043 125.45 228.466 125.373C230.929 122.449 234.084 120.563 237.663 119.447C239.394 118.908 239.663 118.216 239.202 116.484C237.701 110.982 240.433 105.44 245.512 103.093C250.669 100.746 256.672 102.247 259.789 106.941C261.713 109.789 262.675 112.983 261.443 116.446C261.366 115.06 260.558 114.329 259.25 114.098C253.593 113.136 247.86 113.29 242.203 113.945C238.971 114.368 239.048 114.83 240.279 118.254Z" fill="#7A4821"/>
<path d="M229.274 373.724C233.469 373.647 236.97 375.878 240.703 377.264C245.744 379.188 250.708 381.381 255.71 383.459C256.095 383.613 256.441 383.805 256.634 384.229C253.978 384.921 251.323 385.614 248.668 386.307C248.591 385.383 247.783 385.383 247.167 385.114C241.395 382.651 235.547 380.419 229.89 377.649C228.466 376.956 227.812 376.109 228.081 374.57C228.466 374.301 228.851 373.993 229.274 373.724Z" fill="#4B4C47"/>
<path d="M221.463 146.768C222.463 146.884 222.656 147.576 222.656 148.423C222.733 153.079 224.657 157.196 226.735 161.237C226.966 161.66 227.119 162.276 227.735 162.083C228.351 161.891 228.12 161.275 228.12 160.813C228.158 159.62 228.274 158.428 228.12 157.273C227.697 154.156 228.697 151.732 231.198 149.808C232.622 148.731 233.93 147.461 235.239 146.191C235.854 145.575 236.586 145.575 237.355 145.575C245.859 145.575 254.402 145.575 262.906 145.575C263.906 145.575 264.83 145.729 265.638 146.422C266.754 147.384 267.793 148.384 268.947 149.269C271.756 151.386 273.18 154.041 272.603 157.696C272.372 159.236 272.564 160.852 272.564 162.737C274.104 161.621 274.758 160.236 275.219 158.966C276.105 156.657 277.297 154.387 277.605 151.886C277.682 151.155 277.99 150.693 278.721 150.578C277.721 156.003 275.643 160.967 272.18 165.315C271.294 162.737 271.679 160.044 271.872 157.466C272.103 154.195 270.871 152.117 268.524 149.923C265.638 147.23 262.675 145.998 258.673 146.191C251.901 146.537 245.128 146.306 238.356 146.268C237.086 146.268 236.162 146.768 235.123 147.461C230.275 150.693 227.697 154.849 228.813 160.929C229.043 162.276 229.236 163.853 228.543 165.238C224.349 159.774 221.963 153.618 221.463 146.768Z" fill="#8E5427"/>
<path d="M240.28 118.254C239.049 114.83 239.01 114.368 242.243 113.983C247.899 113.329 253.633 113.175 259.289 114.137C260.597 114.368 261.406 115.099 261.483 116.484L261.444 116.523C261.406 116.484 261.367 116.407 261.29 116.369C261.252 116.33 261.175 116.369 261.098 116.369C261.213 116.407 261.329 116.446 261.444 116.484C261.406 116.638 261.329 116.831 261.29 116.985C260.29 117.139 260.828 118.178 260.367 118.639C254.672 117.485 248.938 117.562 243.166 118.139C242.243 118.254 241.242 118.216 240.28 118.254Z" fill="#5C3718"/>
<path d="M260.405 118.64C260.867 118.178 260.289 117.139 261.328 116.985C260.982 118.332 261.559 118.871 262.867 119.333C273.18 122.873 279.722 132.185 279.568 143.113C279.529 145.345 279.568 147.577 278.837 149.732C278.144 148.924 278.413 148 278.567 147.115C279.683 140.381 278.221 134.263 274.373 128.683C271.256 124.181 266.792 121.411 261.713 119.564C261.174 119.371 260.636 119.217 260.405 118.64Z" fill="#8E5427"/>
<path d="M228.505 125.373C228.698 126.335 228.043 126.874 227.466 127.528C224.773 130.568 223.464 134.146 222.502 138.071C221.925 140.419 222.271 142.843 221.425 145.113C220.655 137.379 222.81 130.722 228.505 125.373Z" fill="#8E5427"/>
<path d="M261.444 116.485C261.329 116.447 261.213 116.408 261.098 116.37C261.175 116.37 261.252 116.331 261.29 116.37C261.367 116.37 261.406 116.447 261.444 116.485Z" fill="#8E5427"/>
<path d="M381.694 366.258C381.732 365.835 381.886 365.912 382.117 366.143C381.963 366.181 381.809 366.22 381.694 366.258Z" fill="#696D66"/>
<path d="M281.415 292.415C280.53 296.994 279.529 301.535 278.76 306.114C277.952 310.847 277.182 315.58 277.259 320.429C277.298 324.353 276.489 328.201 276.836 332.126C268.101 331.934 259.404 331.511 250.669 331.549C243.05 331.626 235.47 332.357 227.851 332.203C226.812 332.165 225.734 332.357 224.772 331.819C224.58 327.278 223.387 322.93 223.002 318.428C222.464 312.694 221.732 306.999 221.04 301.265C220.655 298.11 220.155 294.955 219.731 291.799C229.39 287.951 239.549 287.451 249.784 287.259C260.597 287.066 271.025 289.491 281.415 292.415Z" fill="#F7BB92"/>
<path d="M229.275 373.723C228.89 374.031 228.505 374.339 228.12 374.646C221.656 373.3 215.114 372.222 208.765 370.491C203.339 369.028 197.721 368.259 192.372 366.489C189.294 365.45 186.485 364.103 184.33 361.563C183.714 360.024 183.099 358.485 182.483 356.946C181.675 351.328 185.023 345.132 192.18 343.747C200.799 342.054 209.265 339.745 217.846 337.937C224.503 336.551 229.929 339.437 234.931 343.478C237.163 345.286 238.933 347.557 240.934 349.596C241.473 350.135 241.858 350.866 242.781 350.789C243.127 351.558 243.32 352.367 243.166 353.252C241.819 354.329 241.165 355.868 240.241 357.254C237.278 361.756 234.315 366.296 231.353 370.798C230.698 371.76 229.275 372.222 229.275 373.723Z" fill="#F7BB92"/>
<path d="M254.632 350.635C256.21 340.823 262.251 333.358 272.179 335.089C281.414 336.706 290.573 338.476 299.308 341.977C300.924 342.632 302.501 343.401 304.002 344.286C307.158 346.172 309.082 348.827 308.62 352.752C308.12 353.406 307.427 353.329 306.696 353.29C303.079 353.098 299.462 352.906 295.844 352.713C282.069 351.867 268.37 350.789 254.632 350.635Z" fill="#F7BB92"/>
<path d="M254.633 350.634C268.37 350.788 282.069 351.866 295.807 352.674C299.424 352.866 303.041 353.059 306.658 353.251C307.351 353.29 308.082 353.367 308.582 352.712C311.891 353.713 315.354 353.213 318.741 353.559C322.589 353.944 326.514 354.252 330.362 354.559C331.093 354.636 331.862 354.906 332.555 355.175C333.555 355.56 334.594 356.022 334.171 357.407C333.825 358.6 333.248 359.716 331.747 359.523C328.976 359.139 326.129 359.446 323.397 359.023C320.126 358.561 316.855 358.715 313.623 358.407C307.235 357.83 300.847 357.83 294.421 357.407C286.379 356.907 278.298 356.599 270.256 356.099C264.445 355.752 258.558 355.829 252.786 354.906C249.977 354.444 247.091 354.829 244.282 354.098C243.705 353.944 243.166 353.905 243.127 353.174C243.32 352.328 243.089 351.52 242.743 350.711C244.782 349.711 246.937 349.942 249.015 350.404C250.9 350.827 252.747 350.711 254.633 350.634Z" fill="#4B4C47"/>
<path d="M182.444 356.907C183.06 358.446 183.675 359.986 184.291 361.525C181.444 362.641 178.365 362.91 175.402 363.449C171.169 364.257 166.937 365.027 162.704 365.758C161.896 365.912 161.049 365.796 160.203 365.835C159.087 365.873 158.279 365.411 158.048 364.295C157.817 363.218 158.471 362.602 159.356 362.179C161.626 361.102 164.089 360.601 166.552 360.101C171.862 359.024 177.095 357.6 182.444 356.907Z" fill="#4B4C47"/>
<path d="M237.778 190.25C237.548 188.711 237.932 188.172 239.587 188.672C243.743 189.904 248.053 190.096 252.401 190.058C255.441 190.019 258.288 189.365 261.213 188.672C262.136 188.441 263.175 187.98 263.291 189.403C263.406 190.596 264.022 192.135 262.021 192.636C259.25 193.328 256.48 193.867 253.671 194.252C248.938 194.906 244.435 193.867 239.895 192.905C238.433 192.559 237.317 191.982 237.778 190.25Z" fill="#DDA882"/>
</svg>
