<svg width="500" height="500" viewBox="0 0 500 500" fill="none" xmlns="http://www.w3.org/2000/svg">
<path d="M370.741 356.841C370.177 364.743 366.367 370.917 360.369 375.75C353.702 381.113 345.729 383.3 337.439 384.076C327.949 384.993 318.388 385.311 308.898 384.111C300.925 383.123 292.988 381.712 285.085 380.195C276.054 378.467 267.164 376.068 258.203 374.128C257.463 373.951 256.792 373.598 256.051 373.351C255.91 372.963 255.593 372.787 255.205 372.646C250.619 370.741 246.103 368.73 241.446 366.966C238.024 365.661 234.814 363.65 230.969 363.72C230.969 362.38 232.274 361.921 232.874 361.004C235.59 356.876 238.306 352.714 241.023 348.586C241.87 347.316 242.469 345.905 243.704 344.917C243.775 345.587 244.233 345.623 244.762 345.764C247.338 346.399 249.984 346.081 252.559 346.505C257.851 347.351 263.248 347.281 268.575 347.598C275.948 348.057 283.357 348.339 290.73 348.798C296.586 349.15 302.478 349.15 308.334 349.715C311.333 349.997 314.331 349.856 317.295 350.279C319.799 350.632 322.375 350.385 324.95 350.738C326.326 350.914 326.855 349.891 327.173 348.798C327.525 347.528 326.608 347.104 325.691 346.752C325.021 346.505 324.35 346.258 323.68 346.187C320.117 345.905 316.554 345.623 313.026 345.27C309.921 344.952 306.746 345.446 303.712 344.494C304.136 340.895 302.407 338.461 299.479 336.732C298.103 335.921 296.657 335.215 295.175 334.616C287.167 331.441 278.771 329.818 270.304 328.301C261.202 326.713 255.699 333.557 254.217 342.553C252.524 342.624 250.83 342.73 249.102 342.342C247.197 341.954 245.221 341.707 243.351 342.624C242.505 342.694 242.152 341.989 241.658 341.53C239.823 339.661 238.201 337.579 236.154 335.921C231.568 332.252 226.559 329.571 220.491 330.841C212.624 332.464 204.827 334.616 196.96 336.168C190.398 337.438 187.329 343.118 188.07 348.268C183.131 348.903 178.333 350.174 173.465 351.197C171.207 351.655 168.984 352.114 166.868 353.102C166.056 353.49 165.457 354.019 165.668 355.042C165.88 356.1 166.621 356.488 167.644 356.453C168.42 356.418 169.196 356.524 169.937 356.382C173.818 355.712 177.698 355.007 181.579 354.266C184.331 353.772 187.118 353.525 189.728 352.502C191.668 354.83 194.244 356.065 197.101 357.018C202.005 358.64 207.156 359.346 212.13 360.686C217.986 362.274 223.948 363.262 229.875 364.496C229.628 365.908 230.228 366.684 231.533 367.319C236.719 369.859 242.081 371.905 247.373 374.163C247.937 374.41 248.678 374.41 248.749 375.256C247.937 376.068 246.773 376.138 245.785 376.421C231.004 380.619 215.975 383.794 200.629 385.134C192.833 385.84 185.001 385.205 177.24 384.358C172.23 383.829 167.15 383.547 162.246 382.242C152.474 379.596 143.267 375.75 135.329 369.259C132.295 366.79 130.355 363.615 129.12 359.981C128.767 358.923 128.732 357.899 128.908 356.806C131.378 356.947 133.847 357.441 136.281 357.864C142.596 358.887 142.702 359.099 146.054 353.666C149.581 347.916 153.709 342.836 159.53 339.202C161.999 337.65 163.728 335.321 164.292 332.252C164.398 331.652 164.363 330.77 165.28 330.594C169.902 330.665 174.488 329.994 179.039 329.395C194.914 327.384 210.895 326.29 226.841 325.302C227.758 325.761 228.711 325.62 229.663 325.655C236.648 325.796 243.598 325.091 250.583 325.055C258.591 324.985 266.564 325.373 274.573 325.585C281.134 326.29 287.731 326.643 294.328 326.713C305.194 326.819 315.883 328.089 326.573 329.783C329.325 330.206 332.112 330.841 334.934 330.488C335.322 330.629 335.604 330.912 335.639 331.3C336.169 335.321 338.673 337.897 341.919 340.049C344.812 341.954 347.493 344.176 349.504 347.034C351.691 350.103 353.772 353.278 355.889 356.382C356.947 357.97 358.288 358.57 360.334 358.182C363.756 357.547 367.284 357.264 370.741 356.841Z" fill="#696C65"/>
<path d="M262.578 207.085C265.576 207.861 268.716 207.791 271.75 208.284C272.42 208.39 273.126 208.426 273.761 208.708C273.867 209.272 274.114 209.837 274.078 210.401C273.937 214.987 274.784 219.468 275.666 223.913C277.994 235.66 280.428 247.373 285.12 258.486C285.438 259.226 285.473 260.108 285.614 260.92C285.438 261.167 285.12 261.414 285.085 261.696C284.591 266.6 282.863 271.221 281.804 276.019C280.852 280.429 279.758 284.803 278.735 289.178C269.245 286.497 259.649 284.274 249.666 284.486C240.282 284.662 230.968 285.121 222.113 288.648C221.125 287.802 221.02 286.532 220.667 285.368C218.303 277.359 215.975 269.387 213.646 261.378C213.858 259.438 215.234 258.062 216.01 256.404C218.832 250.23 219.961 243.598 221.231 237.001C222.995 227.688 224.83 218.409 225.712 208.955C228.605 208.037 231.638 208.355 234.567 207.72C235.695 207.473 236.824 207.367 237.953 207.191C238.659 207.614 239.4 208.002 240.07 208.496C243.069 210.754 246.103 213.012 249.031 215.375C250.23 216.328 251.042 216.328 252.135 215.305C253.758 213.788 255.522 212.377 257.251 210.966C259.014 209.519 260.496 207.861 262.578 207.085Z" fill="#8A8AD9"/>
<path d="M285.65 260.919C285.474 260.108 285.474 259.226 285.157 258.485C280.5 247.372 278.03 235.66 275.702 223.912C274.82 219.467 273.973 214.987 274.114 210.4C274.15 209.836 273.903 209.271 273.797 208.707C283.534 208.954 291.189 213.258 297.116 220.808C301.279 226.135 304.454 232.026 307.629 237.988C313.168 248.325 319.377 258.238 325.197 268.398C329.113 275.242 332.606 282.298 336.522 289.106C342.801 300.113 348.234 311.579 355.043 322.268C356.983 325.337 359.982 327.454 362.169 330.276C366.614 336.027 370.812 341.883 372.506 349.115C373.141 351.831 372.964 354.407 371.13 356.664C370.918 356.453 370.777 356.417 370.742 356.77L370.777 356.735C367.285 357.158 363.792 357.441 360.335 358.076C358.324 358.428 356.983 357.864 355.89 356.276C353.773 353.137 351.727 349.997 349.504 346.928C347.458 344.07 344.812 341.848 341.919 339.942C338.674 337.79 336.204 335.25 335.64 331.193C335.569 330.77 335.322 330.523 334.934 330.382C335.04 329.571 334.828 328.936 334.335 328.23C329.29 320.998 324.139 313.801 319.271 306.428C309.216 291.188 298.174 276.688 287.238 262.118C286.815 261.625 286.391 261.06 285.65 260.919Z" fill="#F7BB92"/>
<path d="M225.783 208.848C224.901 218.303 223.102 227.581 221.302 236.895C220.032 243.492 218.904 250.124 216.081 256.298C215.305 257.991 213.965 259.367 213.718 261.307C213.012 261.448 212.73 262.083 212.342 262.577C195.796 283.709 181.191 306.217 165.88 328.23C165.386 328.971 165.104 329.677 165.245 330.559C164.293 330.735 164.363 331.617 164.257 332.217C163.728 335.251 162 337.579 159.495 339.167C153.709 342.836 149.582 347.88 146.018 353.631C142.667 359.064 142.561 358.852 136.246 357.829C133.812 357.441 131.378 356.912 128.873 356.771C127.25 354.724 126.827 352.396 127.391 349.927C129.014 342.624 132.683 336.203 137.728 330.912C143.972 324.385 148.805 316.977 152.827 309.074C159.671 295.668 167.432 282.792 174.418 269.457C178.545 261.59 183.414 254.111 187.823 246.385C191.104 240.67 194.068 234.778 197.419 229.098C200.876 223.277 204.51 217.456 210.472 213.752C215.164 210.859 220.068 208.496 225.783 208.848Z" fill="#F7BB92"/>
<path d="M262.578 207.084C260.462 207.86 259.015 209.518 257.322 210.859C255.593 212.27 253.829 213.681 252.207 215.198C251.113 216.221 250.302 216.257 249.102 215.269C246.174 212.905 243.14 210.647 240.141 208.39C239.471 207.896 238.73 207.508 238.025 207.084C238.06 202.816 238.201 198.582 237.989 194.314C237.954 193.467 237.813 192.691 237.284 191.985C233.297 186.764 231.181 180.872 230.651 174.346C230.616 173.711 230.44 173.111 230.334 172.476C230.969 171.206 230.828 169.76 230.581 168.525C229.558 162.951 231.922 159.176 236.367 156.178C237.319 155.543 238.166 155.084 239.33 155.084C245.539 155.119 251.748 155.331 257.957 155.013C261.626 154.837 264.342 155.931 266.988 158.435C269.14 160.446 270.269 162.351 270.057 165.35C269.881 167.714 269.563 170.183 270.34 172.547C269.74 179.532 267.941 186.094 263.566 191.738C263.143 192.267 262.966 192.832 262.931 193.502C262.578 198.053 262.543 202.569 262.578 207.084ZM238.801 195.478C238.377 197.065 239.401 197.63 240.706 197.912C244.869 198.794 248.996 199.746 253.335 199.147C255.911 198.794 258.451 198.3 260.991 197.665C262.825 197.206 262.261 195.795 262.155 194.702C262.049 193.396 261.097 193.855 260.25 194.031C257.604 194.666 254.958 195.266 252.171 195.301C248.185 195.337 244.269 195.16 240.424 194.031C238.942 193.573 238.589 194.031 238.801 195.478Z" fill="#F7BB92"/>
<path d="M223.843 155.613C223.843 155.084 223.843 154.59 223.808 154.061C224.584 151.98 224.266 149.757 224.795 147.605C225.677 144.007 226.877 140.691 229.346 137.939C229.875 137.374 230.475 136.881 230.299 135.963C230.828 136.034 231.287 135.928 231.71 135.54C234.038 133.388 236.755 131.906 239.753 130.848C240.424 130.601 241.094 130.319 241.129 129.437C242.011 129.402 242.928 129.472 243.81 129.366C249.102 128.837 254.359 128.767 259.58 129.825C259.827 130.354 260.285 130.495 260.779 130.672C265.436 132.365 269.528 134.905 272.386 139.033C275.914 144.113 277.254 149.757 276.231 155.931C276.09 156.707 275.843 157.589 276.478 158.33C276.443 158.577 276.408 158.824 276.372 159.106C275.702 159.212 275.42 159.635 275.349 160.305C275.067 162.634 273.973 164.68 273.162 166.797C272.703 167.961 272.139 169.231 270.728 170.254C270.728 168.525 270.551 167.044 270.763 165.632C271.292 162.281 269.987 159.847 267.412 157.906C266.353 157.095 265.401 156.178 264.378 155.296C263.672 154.661 262.825 154.52 261.873 154.52C254.076 154.555 246.245 154.52 238.448 154.52C237.743 154.52 237.072 154.555 236.508 155.084C235.308 156.213 234.109 157.377 232.804 158.4C230.511 160.164 229.593 162.387 229.981 165.244C230.122 166.303 230.017 167.432 229.981 168.49C229.981 168.913 230.193 169.478 229.629 169.654C229.064 169.831 228.923 169.266 228.711 168.878C226.806 165.174 225.042 161.434 224.972 157.13C224.901 156.354 224.76 155.719 223.843 155.613Z" fill="#7A4821"/>
<path d="M241.093 129.472C241.093 130.354 240.388 130.636 239.717 130.883C236.754 131.942 234.002 133.423 231.674 135.575C231.25 135.963 230.792 136.069 230.263 135.999C232.521 133.318 235.413 131.589 238.694 130.566C240.282 130.072 240.529 129.437 240.105 127.849C238.729 122.805 241.234 117.725 245.891 115.573C250.618 113.421 256.122 114.796 258.979 119.1C260.743 121.711 261.625 124.639 260.496 127.814C260.426 126.544 259.685 125.874 258.485 125.662C253.299 124.78 248.043 124.921 242.857 125.521C239.894 125.909 239.964 126.332 241.093 129.472Z" fill="#7A4821"/>
<path d="M231.004 363.685C234.849 363.615 238.059 365.661 241.481 366.931C246.103 368.695 250.654 370.706 255.24 372.611C255.593 372.752 255.91 372.928 256.086 373.316C253.652 373.951 251.218 374.586 248.784 375.221C248.713 374.375 247.972 374.375 247.408 374.128C242.116 371.87 236.754 369.824 231.568 367.284C230.263 366.649 229.663 365.873 229.91 364.461C230.263 364.215 230.615 363.932 231.004 363.685Z" fill="#4B4C47"/>
<path d="M223.843 155.613C224.76 155.719 224.936 156.354 224.936 157.13C225.007 161.399 226.771 165.174 228.676 168.878C228.888 169.266 229.029 169.83 229.593 169.654C230.158 169.478 229.946 168.913 229.946 168.49C229.981 167.396 230.087 166.302 229.946 165.244C229.558 162.387 230.475 160.164 232.768 158.4C234.073 157.412 235.273 156.248 236.472 155.084C237.037 154.52 237.707 154.52 238.413 154.52C246.209 154.52 254.041 154.52 261.838 154.52C262.755 154.52 263.601 154.661 264.342 155.296C265.365 156.178 266.318 157.095 267.376 157.906C269.952 159.847 271.257 162.281 270.728 165.632C270.516 167.043 270.692 168.525 270.692 170.254C272.104 169.231 272.703 167.961 273.127 166.796C273.938 164.68 275.032 162.598 275.314 160.305C275.384 159.635 275.667 159.212 276.337 159.106C275.42 164.08 273.515 168.631 270.34 172.617C269.528 170.254 269.881 167.784 270.057 165.421C270.269 162.422 269.14 160.517 266.988 158.506C264.342 156.036 261.626 154.908 257.957 155.084C251.748 155.401 245.539 155.19 239.33 155.155C238.166 155.155 237.319 155.613 236.367 156.248C231.922 159.212 229.558 163.022 230.581 168.596C230.793 169.83 230.969 171.277 230.334 172.547C226.489 167.537 224.301 161.893 223.843 155.613Z" fill="#8E5427"/>
<path d="M241.094 129.472C239.965 126.332 239.929 125.909 242.893 125.556C248.079 124.957 253.335 124.816 258.521 125.697C259.721 125.909 260.461 126.579 260.532 127.849L260.497 127.885C260.461 127.849 260.426 127.779 260.356 127.744C260.32 127.708 260.25 127.744 260.179 127.744C260.285 127.779 260.391 127.814 260.497 127.849C260.461 127.991 260.391 128.167 260.356 128.308C259.438 128.449 259.932 129.402 259.509 129.825C254.288 128.767 249.031 128.837 243.74 129.366C242.893 129.472 241.976 129.437 241.094 129.472Z" fill="#5C3718"/>
<path d="M259.544 129.826C259.967 129.402 259.438 128.45 260.391 128.309C260.073 129.543 260.602 130.037 261.802 130.461C271.256 133.706 277.254 142.244 277.113 152.263C277.077 154.309 277.113 156.355 276.442 158.33C275.807 157.59 276.054 156.743 276.195 155.932C277.218 149.758 275.878 144.149 272.35 139.033C269.492 134.906 265.4 132.366 260.743 130.672C260.249 130.496 259.756 130.355 259.544 129.826Z" fill="#8E5427"/>
<path d="M230.299 135.999C230.476 136.881 229.876 137.375 229.347 137.975C226.877 140.762 225.678 144.042 224.796 147.641C224.267 149.793 224.584 152.015 223.808 154.097C223.102 147.006 225.078 140.903 230.299 135.999Z" fill="#8E5427"/>
<path d="M260.496 127.85C260.39 127.815 260.285 127.779 260.179 127.744C260.249 127.744 260.32 127.709 260.355 127.744C260.426 127.744 260.461 127.815 260.496 127.85Z" fill="#8E5427"/>
<path d="M370.741 356.841C370.776 356.453 370.918 356.524 371.129 356.736C370.988 356.771 370.847 356.806 370.741 356.841Z" fill="#696D66"/>
<path d="M278.806 289.142C277.995 293.341 277.077 297.503 276.372 301.701C275.631 306.041 274.925 310.38 274.996 314.825C275.031 318.423 274.29 321.951 274.608 325.55C266.6 325.373 258.627 324.985 250.619 325.02C243.634 325.091 236.684 325.761 229.699 325.62C228.746 325.585 227.758 325.761 226.876 325.267C226.7 321.105 225.606 317.118 225.254 312.991C224.76 307.734 224.089 302.513 223.454 297.256C223.102 294.364 222.643 291.471 222.255 288.578C231.11 285.05 240.423 284.591 249.807 284.415C259.72 284.239 269.281 286.461 278.806 289.142Z" fill="#F7BB92"/>
<path d="M231.004 363.685C230.651 363.967 230.298 364.249 229.946 364.532C224.019 363.297 218.021 362.309 212.201 360.722C207.226 359.381 202.076 358.675 197.172 357.053C194.35 356.1 191.774 354.865 189.799 352.537C189.234 351.126 188.67 349.715 188.105 348.304C187.365 343.153 190.434 337.473 196.996 336.203C204.898 334.651 212.659 332.534 220.526 330.876C226.629 329.606 231.604 332.252 236.19 335.956C238.236 337.614 239.859 339.696 241.693 341.565C242.187 342.059 242.54 342.73 243.387 342.659C243.704 343.365 243.88 344.105 243.739 344.917C242.505 345.905 241.905 347.316 241.058 348.586C238.342 352.713 235.625 356.876 232.909 361.004C232.309 361.886 231.004 362.309 231.004 363.685Z" fill="#F7BB92"/>
<path d="M254.252 342.518C255.698 333.522 261.237 326.678 270.339 328.266C278.806 329.748 287.202 331.37 295.21 334.581C296.692 335.18 298.138 335.886 299.514 336.697C302.407 338.426 304.171 340.86 303.747 344.459C303.289 345.058 302.654 344.988 301.984 344.953C298.667 344.776 295.351 344.6 292.035 344.423C279.405 343.647 266.846 342.659 254.252 342.518Z" fill="#F7BB92"/>
<path d="M254.253 342.518C266.847 342.659 279.406 343.647 292 344.388C295.317 344.564 298.633 344.741 301.949 344.917C302.584 344.952 303.254 345.023 303.713 344.423C306.747 345.34 309.922 344.882 313.026 345.199C316.554 345.552 320.153 345.834 323.68 346.116C324.351 346.187 325.056 346.434 325.691 346.681C326.608 347.034 327.561 347.457 327.173 348.727C326.855 349.821 326.326 350.844 324.95 350.667C322.41 350.314 319.8 350.597 317.295 350.209C314.296 349.785 311.298 349.926 308.334 349.644C302.478 349.115 296.622 349.115 290.73 348.727C283.357 348.268 275.949 347.986 268.576 347.527C263.249 347.21 257.851 347.281 252.559 346.434C249.984 346.011 247.338 346.363 244.763 345.693C244.234 345.552 243.74 345.517 243.704 344.846C243.881 344.07 243.669 343.329 243.352 342.589C245.221 341.671 247.197 341.883 249.102 342.306C250.831 342.694 252.524 342.589 254.253 342.518Z" fill="#4B4C47"/>
<path d="M188.07 348.269C188.635 349.68 189.199 351.091 189.764 352.502C187.153 353.525 184.331 353.772 181.615 354.266C177.734 355.007 173.853 355.712 169.973 356.383C169.232 356.524 168.456 356.418 167.68 356.453C166.656 356.488 165.916 356.065 165.704 355.042C165.492 354.054 166.092 353.49 166.903 353.102C168.985 352.114 171.243 351.655 173.5 351.197C178.369 350.209 183.167 348.904 188.07 348.269Z" fill="#4B4C47"/>
<path d="M238.8 195.478C238.588 194.067 238.941 193.573 240.458 194.032C244.268 195.16 248.219 195.337 252.206 195.302C254.993 195.266 257.603 194.667 260.284 194.032C261.131 193.82 262.084 193.397 262.189 194.702C262.295 195.795 262.86 197.207 261.025 197.665C258.485 198.3 255.945 198.794 253.37 199.147C249.031 199.747 244.903 198.794 240.74 197.912C239.4 197.595 238.377 197.066 238.8 195.478Z" fill="#DDA882"/>
</svg>
