<svg width="500" height="500" viewBox="0 0 500 500" fill="none" xmlns="http://www.w3.org/2000/svg">
<path d="M98.6569 370.748C100.395 370.814 102.13 370.938 103.869 370.938C142.352 370.95 180.839 370.461 219.311 371.124C243.099 371.536 265.789 367.911 287.582 358.454C289.693 357.538 291.812 356.514 294.218 356.588C294.424 354.449 296.22 353.456 297.551 352.226C303.143 347.041 307.315 340.856 310.761 334.123C301.409 321.926 292.056 309.73 282.704 297.537C268.602 299.431 258.722 307.142 252.665 319.788C251.489 322.241 250.042 323.587 247.554 324.495C231.081 330.499 214.651 336.607 198.228 342.746C193.824 344.391 189.594 342.92 185.461 342.008C167.494 338.054 149.737 339.653 131.929 343.107C120.978 345.233 109.922 346.832 98.9169 348.664C98.8354 356.025 98.75 363.386 98.6685 370.748H98.6569Z" fill="#6A6D66"/>
<path d="M348.274 219.725C347.661 218.592 347.048 217.459 346.431 216.325C344.118 213.842 341.898 213.143 338.91 212.841H344.743C345.632 208.902 346.838 205.002 347.32 201.013C347.805 196.989 349.613 195.471 353.517 196.088C354.506 196.244 355.542 196.158 356.551 196.096C360.816 195.824 363.688 194.02 364.06 189.348C364.184 187.776 364.728 186.236 364.848 184.664C365.12 181.199 366.28 178.591 370.083 177.737C373.315 177.011 374.926 174.586 372.691 171.986C369.924 168.769 366.951 165.409 365.601 161.761C364.646 159.18 365.601 156.739 365.601 153.367C361.204 156.701 356.664 159.859 352.45 163.41C348.076 167.093 343.462 169.681 337.529 169.316C332.597 169.014 329.973 171.489 329.019 176.321C328.553 178.661 328.126 181.164 326.543 183.166C325.934 185.898 324.936 188.482 323.652 190.962C322.67 193.139 322.263 195.607 320.408 197.342C319.24 202.852 315.879 207.497 314.28 212.841C320.028 212.841 325.771 212.841 332.779 212.841C326.687 215.417 323.221 218.91 322.251 224.3C321.172 230.292 320.342 236.326 319.418 242.345C319.154 244.06 318.673 245.802 318.778 247.502C319.108 252.973 323.105 256.268 329.046 256.641C331.63 256.804 334.708 255.244 336.729 258.146C340.21 263.148 343.614 268.201 347.048 273.23C351.514 279.07 356.237 284.732 359.613 291.333C366.854 300.6 374.095 309.866 381.333 319.133C385.834 324.228 389.245 330.166 393.941 335.148C395.373 336.666 397.383 338.361 397.328 340.973C398.675 340.783 399.412 341.567 400.181 342.541C405.567 349.382 411.143 356.08 416.378 363.03C419.94 367.757 419.448 373.803 420.484 379.263C421.299 383.562 422.742 385.076 427.154 384.796C433.526 384.397 439.941 384.598 446.332 384.734C449.169 384.796 449.988 383.764 449.277 381.098C447.489 374.377 446.138 367.512 443.891 360.95C442.343 356.433 438.435 353.15 435.688 349.242C422.583 330.6 409.645 311.838 396.3 293.37C390.103 284.794 383.122 276.792 376.486 268.535C375.679 267.529 374.549 266.73 374.483 265.271C372.512 264.437 371.612 262.5 370.211 261.08C362.194 252.973 358.239 242.473 353.622 232.406C351.716 228.247 348.907 224.432 348.266 219.729L348.274 219.725Z" fill="#F7BB92"/>
<path d="M282.7 297.537C292.052 309.734 301.404 321.93 310.757 334.123C313.182 333.533 315.087 331.62 317.66 331.403L317.668 331.496C317.679 330.879 318.102 330.716 318.607 330.646C324.269 326.882 329.934 323.121 335.596 319.357C343.039 311.996 350.753 304.879 356.295 295.841C350.412 288.907 345.301 281.417 340.404 273.772C328.254 273.768 316.1 273.765 303.95 273.757C303.589 276.609 303.089 279.45 302.918 282.31C302.778 284.599 301.203 285.406 299.623 286.458C294.012 290.191 287.884 293.144 282.704 297.529L282.7 297.537Z" fill="#F7BB92"/>
<path d="M335.601 319.361C329.939 323.125 324.273 326.885 318.612 330.649C318.297 330.933 317.987 331.216 317.673 331.499L317.665 331.406C318.018 333.11 317.114 334.468 316.419 335.88C312.752 343.343 308.941 350.72 303.714 357.255C315.453 358.349 326.633 355.761 337.673 352.163C339.687 351.507 341.585 350.25 343.87 350.681C343.956 350.514 344.037 350.347 344.119 350.18C344.219 350.235 344.324 350.293 344.425 350.347C344.266 350.479 344.103 350.611 343.944 350.743C343.944 353.549 342.116 355.795 341.592 358.438C351.379 358.473 361.166 358.508 370.949 358.547C379.742 352.691 388.539 346.835 397.337 340.976C397.395 338.364 395.385 336.668 393.953 335.151C389.257 330.168 385.846 324.231 381.345 319.136C370.537 319.279 359.726 319.497 348.919 319.532C344.483 319.547 340.028 320.358 335.605 319.369L335.601 319.361Z" fill="#6A6D66"/>
<path d="M326.547 183.162C328.13 181.159 328.557 178.66 329.023 176.316C329.981 171.489 332.601 169.009 337.533 169.312C343.466 169.677 348.08 167.088 352.454 163.406C356.668 159.859 361.208 156.696 365.605 153.363C359.908 136.688 346.07 130.801 330.164 138.054C323.726 140.991 317.804 144.356 314.25 150.794C313.854 152.175 313.462 153.557 313.062 154.934C310.253 164.601 317.168 179.075 326.547 183.158V183.162Z" fill="#804414"/>
<path d="M303.95 273.761C316.1 273.765 328.254 273.769 340.404 273.776C342.538 272.597 344.835 273.392 347.055 273.225C343.621 268.192 340.214 263.14 336.733 258.138C334.711 255.235 331.634 256.795 329.049 256.632C323.108 256.259 319.111 252.965 318.781 247.493C318.68 245.794 319.162 244.051 319.422 242.336C320.341 236.317 321.176 230.283 322.255 224.291C323.225 218.901 326.69 215.409 332.782 212.832C325.774 212.832 320.031 212.832 314.284 212.832C304.501 227.858 300.807 244.365 302.409 262.123C302.759 266.015 303.43 269.88 303.95 273.757V273.761Z" fill="#8A8AD9"/>
<path d="M320.412 197.337C322.263 195.602 322.674 193.134 323.656 190.957C318.681 189.114 316.714 184.166 313.284 180.744C307.063 174.535 305.103 167.053 307.75 158.45C308.662 155.489 310.493 153.052 311.661 150.262C308.452 149.396 305.321 148.228 301.929 148.174C290.307 147.992 281.599 159.645 286.721 170.014C292.061 180.817 292.018 191.081 287.912 201.877C287.532 202.878 286.438 204.221 287.621 204.985C288.339 205.451 289.806 204.892 290.897 204.628C300.742 202.219 310.579 199.77 320.416 197.333L320.412 197.337Z" fill="#804414"/>
<path d="M370.944 358.539C361.157 358.504 351.371 358.466 341.588 358.431C339.76 361.865 336.919 364.694 335.945 368.652C334.005 376.565 339.256 383.864 347.319 383.965C357.486 384.089 367.653 384.077 377.821 383.969C384.592 383.895 390.029 378.447 390.176 371.892C390.331 365.012 385.182 359.191 378.348 358.66C375.892 358.469 373.412 358.57 370.944 358.539Z" fill="#F7BB92"/>
<path d="M98.6569 370.749C98.7384 363.387 98.8238 356.026 98.9053 348.664C96.2238 347.368 94.4232 345.005 92.2152 343.138C86.7087 338.489 81.66 338.008 75.4744 341.757C67.7832 346.417 60.1967 351.256 52.4937 355.898C48.6171 358.234 46.9523 361.474 48.2446 365.785C49.4863 369.914 52.7964 370.943 56.8206 370.904C70.7634 370.772 84.7102 370.787 98.653 370.745L98.6569 370.749Z" fill="#F7BB92"/>
<path d="M348.274 219.725C348.914 224.428 351.724 228.242 353.629 232.402C358.243 242.469 362.201 252.969 370.219 261.076C371.62 262.492 372.52 264.429 374.491 265.267C383.246 252.127 383.04 243.831 367.91 234.529C360.929 230.237 354.103 225.611 348.274 219.728V219.725Z" fill="#8A8AD9"/>
<path d="M311.661 150.263C310.493 153.053 308.661 155.49 307.749 158.451C305.103 167.054 307.063 174.536 313.283 180.745C316.714 184.167 318.681 189.115 323.656 190.958C324.94 188.478 325.938 185.89 326.547 183.162C317.168 179.084 310.252 164.605 313.062 154.939C313.462 153.561 313.854 152.176 314.249 150.798C313.388 150.62 312.523 150.445 311.661 150.267V150.263Z" fill="#62350E"/>
<path d="M303.71 357.251C308.937 350.716 312.748 343.339 316.415 335.877C317.11 334.464 318.014 333.11 317.661 331.402C315.088 331.62 313.183 333.533 310.757 334.123C307.311 340.852 303.14 347.041 297.548 352.225C296.221 353.456 294.42 354.449 294.214 356.587C297.389 356.669 300.47 358.062 303.706 357.251H303.71Z" fill="#4B4C47"/>
<path d="M344.743 212.84H338.911C341.615 213.694 342.671 213.259 346.431 216.325C345.868 215.164 345.306 214.004 344.743 212.84Z" fill="#8A8AD9"/>
<path d="M356.295 295.845C357.401 294.34 358.511 292.834 359.617 291.328C356.241 284.728 351.518 279.066 347.052 273.226C344.836 273.392 342.539 272.597 340.405 273.777C345.298 281.421 350.409 288.915 356.295 295.845Z" fill="#DCA782"/>
<path d="M317.672 331.496C317.987 331.213 318.297 330.93 318.611 330.646C318.107 330.716 317.684 330.879 317.672 331.496Z" fill="#4B4C47"/>
<path d="M343.94 350.737C344.099 350.605 344.262 350.473 344.421 350.341C344.32 350.286 344.215 350.228 344.114 350.174C344.033 350.341 343.951 350.508 343.866 350.674L343.936 350.737H343.94Z" fill="#FEFEFE"/>
</svg>
