<svg width="500" height="500" viewBox="0 0 500 500" fill="none" xmlns="http://www.w3.org/2000/svg">
<path d="M125.294 358.04C126.874 358.1 128.451 358.212 130.031 358.212C165.016 358.223 200.005 357.779 234.979 358.382C256.605 358.756 277.232 355.461 297.044 346.864C298.963 346.031 300.889 345.1 303.076 345.167C303.263 343.223 304.897 342.32 306.107 341.201C311.19 336.488 314.983 330.865 318.115 324.744C309.613 313.657 301.111 302.569 292.609 291.484C279.789 293.206 270.808 300.216 265.301 311.713C264.232 313.942 262.916 315.166 260.655 315.992C245.679 321.449 230.743 327.002 215.813 332.583C211.809 334.079 207.964 332.742 204.207 331.913C187.873 328.318 171.73 329.771 155.541 332.911C145.585 334.844 135.535 336.298 125.53 337.963C125.456 344.655 125.378 351.347 125.304 358.04H125.294Z" fill="#6A6D66"/>
<path d="M352.218 220.746C351.661 219.716 351.104 218.686 350.543 217.656C348.44 215.398 346.422 214.763 343.706 214.488H349.008C349.816 210.907 350.913 207.362 351.351 203.735C351.792 200.077 353.436 198.697 356.985 199.258C357.884 199.399 358.826 199.322 359.743 199.265C363.62 199.018 366.231 197.378 366.57 193.131C366.682 191.702 367.176 190.301 367.286 188.872C367.533 185.722 368.587 183.352 372.045 182.575C374.983 181.916 376.447 179.711 374.415 177.347C371.9 174.423 369.198 171.368 367.97 168.051C367.102 165.706 367.97 163.487 367.97 160.421C363.973 163.451 359.846 166.323 356.014 169.551C352.039 172.899 347.844 175.252 342.45 174.92C337.966 174.645 335.581 176.896 334.714 181.288C334.29 183.415 333.902 185.69 332.463 187.511C331.909 189.994 331.002 192.344 329.835 194.598C328.942 196.577 328.572 198.821 326.885 200.398C325.824 205.407 322.769 209.63 321.315 214.488C326.54 214.488 331.761 214.488 338.132 214.488C332.593 216.83 329.443 220.005 328.561 224.905C327.58 230.352 326.826 235.838 325.986 241.309C325.746 242.869 325.309 244.453 325.404 245.998C325.704 250.972 329.337 253.967 334.738 254.306C337.088 254.454 339.885 253.036 341.723 255.675C344.888 260.222 347.982 264.815 351.104 269.387C355.164 274.696 359.458 279.843 362.527 285.844C369.11 294.269 375.692 302.693 382.272 311.117C386.364 315.749 389.465 321.147 393.733 325.676C395.035 327.056 396.863 328.597 396.813 330.972C398.037 330.799 398.708 331.511 399.406 332.397C404.303 338.616 409.372 344.705 414.131 351.024C417.37 355.32 416.922 360.817 417.864 365.78C418.604 369.689 419.917 371.065 423.928 370.811C429.72 370.448 435.552 370.631 441.362 370.754C443.941 370.811 444.685 369.873 444.04 367.449C442.413 361.339 441.186 355.098 439.143 349.133C437.736 345.026 434.183 342.042 431.685 338.489C419.772 321.542 408.01 304.485 395.878 287.696C390.244 279.9 383.898 272.626 377.865 265.118C377.132 264.205 376.105 263.478 376.045 262.152C374.253 261.393 373.435 259.633 372.161 258.342C364.873 250.972 361.278 241.426 357.08 232.275C355.348 228.493 352.794 225.025 352.211 220.75L352.218 220.746Z" fill="#F7BB92"/>
<path d="M292.606 291.484C301.108 302.572 309.61 313.66 318.112 324.744C320.317 324.208 322.049 322.469 324.388 322.271L324.395 322.356C324.405 321.795 324.79 321.647 325.248 321.584C330.395 318.162 335.546 314.743 340.693 311.321C347.459 304.629 354.473 298.159 359.51 289.943C354.162 283.639 349.516 276.83 345.064 269.88C334.018 269.877 322.969 269.873 311.924 269.866C311.596 272.459 311.141 275.041 310.986 277.641C310.859 279.723 309.426 280.457 307.99 281.413C302.889 284.806 297.319 287.491 292.609 291.477L292.606 291.484Z" fill="#F7BB92"/>
<path d="M340.697 311.325C335.55 314.747 330.4 318.165 325.252 321.587C324.967 321.845 324.685 322.102 324.399 322.36L324.392 322.275C324.713 323.824 323.891 325.058 323.259 326.343C319.926 333.126 316.461 339.833 311.709 345.774C322.381 346.768 332.544 344.415 342.581 341.145C344.412 340.549 346.137 339.406 348.215 339.797C348.292 339.646 348.367 339.494 348.441 339.342C348.532 339.392 348.628 339.445 348.719 339.494C348.575 339.614 348.426 339.734 348.282 339.854C348.282 342.405 346.62 344.447 346.144 346.85C355.041 346.881 363.938 346.913 372.832 346.948C380.826 341.625 388.823 336.301 396.821 330.975C396.874 328.6 395.046 327.059 393.744 325.679C389.476 321.15 386.375 315.752 382.283 311.12C372.458 311.251 362.629 311.448 352.804 311.48C348.772 311.494 344.722 312.231 340.701 311.332L340.697 311.325Z" fill="#6A6D66"/>
<path d="M332.466 187.507C333.906 185.687 334.294 183.415 334.717 181.284C335.589 176.895 337.97 174.641 342.454 174.916C347.848 175.248 352.042 172.895 356.018 169.547C359.849 166.323 363.977 163.447 367.974 160.417C362.795 145.258 350.215 139.906 335.754 146.5C329.902 149.17 324.518 152.229 321.287 158.082C320.927 159.338 320.571 160.593 320.207 161.846C317.653 170.633 323.94 183.792 332.466 187.503V187.507Z" fill="#804414"/>
<path d="M311.924 269.87C322.969 269.874 334.018 269.877 345.064 269.884C347.004 268.812 349.092 269.535 351.11 269.383C347.988 264.808 344.891 260.215 341.726 255.667C339.888 253.029 337.091 254.447 334.741 254.299C329.34 253.96 325.707 250.965 325.407 245.991C325.315 244.445 325.753 242.862 325.989 241.302C326.825 235.831 327.584 230.345 328.564 224.898C329.446 219.998 332.597 216.823 338.135 214.48C331.764 214.48 326.543 214.48 321.318 214.48C312.425 228.14 309.066 243.147 310.523 259.29C310.841 262.829 311.451 266.342 311.924 269.867V269.87Z" fill="#8A8AD9"/>
<path d="M326.889 200.394C328.572 198.817 328.946 196.573 329.838 194.594C325.316 192.918 323.527 188.42 320.409 185.309C314.754 179.664 312.972 172.863 315.378 165.042C316.207 162.35 317.872 160.135 318.934 157.598C316.017 156.811 313.17 155.75 310.086 155.7C299.521 155.534 291.604 166.128 296.261 175.555C301.115 185.376 301.076 194.707 297.344 204.521C296.998 205.431 296.003 206.652 297.079 207.347C297.732 207.77 299.066 207.262 300.057 207.022C309.007 204.832 317.95 202.606 326.893 200.39L326.889 200.394Z" fill="#804414"/>
<path d="M372.828 346.942C363.931 346.91 355.034 346.875 346.14 346.843C344.478 349.965 341.896 352.537 341.011 356.135C339.247 363.328 344.02 369.964 351.35 370.056C360.593 370.168 369.836 370.158 379.079 370.059C385.235 369.992 390.177 365.039 390.311 359.081C390.452 352.826 385.771 347.534 379.559 347.051C377.326 346.878 375.071 346.97 372.828 346.942Z" fill="#F7BB92"/>
<path d="M125.294 358.04C125.368 351.348 125.445 344.656 125.52 337.964C123.082 336.785 121.445 334.637 119.438 332.94C114.432 328.714 109.842 328.276 104.219 331.684C97.2267 335.921 90.3299 340.32 83.3272 344.539C79.803 346.663 78.2896 349.609 79.4643 353.528C80.5932 357.282 83.6024 358.217 87.2607 358.181C99.9361 358.061 112.615 358.075 125.29 358.037L125.294 358.04Z" fill="#F7BB92"/>
<path d="M352.219 220.746C352.801 225.022 355.355 228.49 357.087 232.271C361.281 241.422 364.88 250.969 372.168 258.338C373.442 259.626 374.26 261.386 376.052 262.148C384.011 250.203 383.824 242.661 370.069 234.205C363.723 230.303 357.517 226.098 352.219 220.75V220.746Z" fill="#8A8AD9"/>
<path d="M318.934 157.599C317.872 160.135 316.207 162.351 315.378 165.042C312.972 172.863 314.753 179.665 320.408 185.309C323.527 188.421 325.315 192.919 329.838 194.595C331.006 192.34 331.912 189.987 332.466 187.507C323.94 183.799 317.653 170.637 320.207 161.85C320.571 160.597 320.927 159.338 321.287 158.085C320.504 157.923 319.717 157.764 318.934 157.602V157.599Z" fill="#62350E"/>
<path d="M311.706 345.77C316.458 339.829 319.922 333.123 323.256 326.339C323.887 325.055 324.709 323.824 324.388 322.271C322.049 322.469 320.317 324.208 318.112 324.744C314.98 330.862 311.187 336.488 306.104 341.202C304.897 342.32 303.26 343.223 303.073 345.167C305.959 345.241 308.76 346.507 311.702 345.77H311.706Z" fill="#4B4C47"/>
<path d="M349.008 214.487H343.706C346.165 215.263 347.125 214.868 350.543 217.655C350.031 216.6 349.52 215.546 349.008 214.487Z" fill="#8A8AD9"/>
<path d="M359.51 289.947C360.516 288.578 361.525 287.209 362.53 285.841C359.461 279.84 355.168 274.693 351.107 269.384C349.093 269.535 347.005 268.812 345.064 269.884C349.513 276.834 354.159 283.646 359.51 289.947Z" fill="#DCA782"/>
<path d="M324.399 322.357C324.684 322.099 324.967 321.842 325.252 321.584C324.794 321.647 324.409 321.796 324.399 322.357Z" fill="#4B4C47"/>
<path d="M348.278 339.847C348.423 339.728 348.571 339.608 348.715 339.488C348.624 339.438 348.528 339.385 348.437 339.336C348.363 339.488 348.288 339.639 348.211 339.791L348.274 339.847H348.278Z" fill="#FEFEFE"/>
</svg>
