<svg width="497" height="497" viewBox="0 0 497 497" fill="none" xmlns="http://www.w3.org/2000/svg">
<path d="M360.844 194.895C355.815 192.8 346.281 190.809 343.138 186.304C341.462 183.79 338.318 184.837 336.223 183.58C335.909 190.285 334.337 196.781 332.661 203.172C341.042 197.305 351.415 196.886 360.32 201.915C360.32 199.61 360.634 197.305 360.844 194.895Z" fill="#ECAD83"/>
<path d="M281.846 318.627C250.939 330.885 219.194 341.571 186.297 346.915C173.201 348.696 160 349.534 146.799 350.581C142.399 351.839 131.293 349.429 128.884 352.258C131.189 361.373 129.826 370.802 127.941 379.812C183.678 381.279 240.672 391.232 295.571 377.402C296.618 376.983 297.247 377.193 297.876 378.136C304.371 387.67 316.734 388.927 327.001 391.756C350.993 395.422 375.614 393.746 399.711 393.013C392.377 378.136 385.148 362.944 379.595 347.334C372.471 347.019 365.242 347.019 358.118 346.6C355.918 354.353 339.888 352.782 333.183 353.62C310.657 354.458 289.808 339.79 281.846 318.627Z" fill="#3D3C3C"/>
<path d="M281.846 318.627C293.265 348.591 325.01 359.696 354.45 350.791C360.946 349.534 361.575 323.656 367.442 316.113C360.213 298.721 352.355 281.434 346.278 263.519C342.611 248.537 332.135 233.974 335.906 218.049C338.002 211.03 344.392 205.267 352.145 206.734C373.204 207.572 376.557 269.91 383.157 287.301C391.643 268.233 390.596 254.404 380.642 236.279C374.775 224.335 370.794 210.82 360.527 201.915C345.859 193.009 325.325 202.334 321.448 218.887C315.267 239.108 320.61 259.747 321.553 280.177C316.838 299.454 295.361 306.893 281.846 318.627Z" fill="#FF8AA0"/>
<path d="M383.052 287.301C375.718 262.47 376.137 235.335 362.936 212.705C347.745 197.095 328.677 213.962 334.754 231.249C345.754 270.747 365.975 308.883 379.699 347.228C385.252 364.515 394.891 380.021 400.758 396.47C400.653 400.346 401.596 402.965 405.577 404.013C419.721 405.585 434.598 405.689 448.532 402.546C455.133 401.184 460.476 394.898 451.466 391.86C448.742 391.126 445.599 391.022 443.084 389.555C435.646 388.507 412.806 387.46 410.187 380.021C407.044 369.125 402.748 358.439 400.129 347.543C393.843 327.741 387.767 307.626 383.052 287.301Z" fill="#F6BB92"/>
<path d="M374.045 149.74C378.864 146.178 383.474 142.196 385.988 136.434C384.836 128.262 378.235 121.243 370.587 118.414C368.073 117.576 365.454 117.366 362.625 116.633C360.425 116.319 358.225 116.214 356.024 116.319C352.672 117.052 348.9 117.052 345.338 117.995C343.557 116.319 341.566 113.909 338.528 114.223C326.375 115.795 317.26 128.786 313.907 139.892C314.012 140.206 314.117 140.52 313.803 140.834C313.174 145.759 314.012 152.045 319.774 153.616C320.613 153.826 320.717 154.245 320.822 154.978C322.603 165.979 327.423 176.351 336.223 183.475C343.452 191.438 351.415 180.542 356.339 175.199C357.282 173.418 352.043 168.913 351.624 166.189C347.852 158.331 356.863 152.673 359.901 161.893C361.996 161.788 361.368 158.645 361.158 157.178C360.844 156.236 361.053 155.921 362.101 155.712M346.49 123.652C351.205 131.51 332.032 154.35 323.86 153.302C323.337 152.15 324.594 151.94 325.327 151.521C335.699 145.759 343.347 134.653 346.49 123.652ZM318.308 133.082C318.098 131.196 324.279 122.5 326.165 123.757C327.108 124.595 326.061 125.329 325.641 125.957C323.651 126.691 319.146 138.53 318.308 133.082Z" fill="#602F0F"/>
<path d="M127.942 379.918C129.723 370.803 131.085 361.478 128.885 352.364C115.16 352.364 101.54 350.897 87.8157 351.002C82.3677 349.849 75.0339 352.678 70.7383 348.801C69.5859 347.335 68.0144 346.706 66.3381 346.182C55.966 343.039 46.9558 350.582 38.26 355.088C29.0404 360.64 17.3063 360.536 8.61046 366.926C1.48618 375.413 28.5165 372.584 32.6025 374.155C64.3475 376.46 96.3019 376.041 127.942 379.918Z" fill="#F6BB92"/>
<path d="M400.235 347.543C402.855 358.544 407.15 369.231 410.293 380.022C414.798 388.194 429.152 386.727 437.428 389.137C459.954 392.804 472.107 364.411 451.572 352.782C435.019 347.753 417.313 347.229 400.235 347.543Z" fill="#3C3B3B"/>
<path d="M377.395 146.91C381.167 144.186 383.891 140.52 385.881 136.434C393.425 143.558 384.624 152.778 387.767 160.845C388.396 164.197 394.368 171.531 391.644 173.836C389.863 175.512 386.615 175.722 387.662 178.97C379.91 181.275 378.338 184.313 387.662 185.361C388.501 189.551 390.491 193.952 384.624 195.733C373.728 197.828 349.946 194.999 343.136 186.199C348.165 183.58 352.041 179.703 355.708 175.408C356.232 174.884 356.127 174.255 355.603 173.627C352.984 169.541 348.688 164.302 351.622 159.168C352.355 158.226 353.298 157.073 355.394 157.073C358.537 157.073 359.165 159.587 359.899 161.788C360.318 161.788 360.318 161.788 360.632 161.264C361.889 159.692 361.051 158.016 360.946 156.235C360.632 155.292 370.376 151.311 373.938 149.425" fill="#F6BB92"/>
<path d="M387.662 178.971C386.091 179.599 378.757 181.695 381.9 183.685C383.891 184.628 386.824 186.305 388.71 184.733C390.282 183.581 387.558 182.638 388.605 181.171C389.234 180.123 388.71 179.39 387.662 178.971Z" fill="#DC7659"/>
<path d="M313.802 140.939C314.116 140.625 314.012 140.31 313.907 139.996C313.593 140.31 313.488 140.625 313.802 140.939Z" fill="#CBB5A8"/>
<path d="M379.699 347.334C376.661 336.648 371.632 326.381 367.337 316.113C362.412 325.647 360.946 336.334 358.222 346.601C365.451 347.125 372.575 347.02 379.699 347.334Z" fill="#FFFEFE"/>
<path d="M346.49 123.652C343.452 134.758 335.699 145.759 325.222 151.521C324.489 151.835 323.232 152.149 323.755 153.302C331.927 154.35 351.205 131.51 346.49 123.652Z" fill="#532000"/>
<path d="M318.307 133.082C319.145 138.53 323.65 126.796 325.641 125.958C326.06 125.329 327.108 124.491 326.165 123.758C324.279 122.501 318.098 131.092 318.307 133.082Z" fill="#532000"/>
</svg>
