<svg width="501" height="501" viewBox="0 0 501 501" fill="none" xmlns="http://www.w3.org/2000/svg">
<path d="M339.411 323.159C349.174 320.864 358.477 317.111 368.011 314.098C377.971 310.948 387.852 307.551 397.802 304.379C418.017 297.934 436.077 314.136 431.714 334.961C426.33 360.669 420.681 386.319 415.147 411.993C404.975 411.704 394.802 411.415 384.626 411.126C384.909 401.658 386.48 392.314 387.401 382.906C388.376 372.956 389.512 363.021 390.598 352.903C388.074 353.118 386.655 354.627 385.058 355.658C372.351 363.859 359.197 371.26 345.589 377.852C326.104 387.288 308.226 399.499 289.563 410.351C276.749 417.806 264.112 425.566 251.39 433.176C244.608 437.234 237.274 439.958 229.39 440.069C197.307 440.517 165.217 440.688 133.131 440.961C132.794 432.944 132.461 424.931 132.124 416.914C146.662 412.821 161.175 408.64 175.745 404.662C190.554 400.62 205.394 400.823 220.091 405.236C223.348 406.214 225.387 405.554 227.711 403.061C240.157 389.717 252.8 376.556 265.392 363.351C266.582 362.104 267.671 360.878 267.846 359.04C269.145 345.521 275.688 334.78 285.518 325.785C287.08 324.353 288.607 322.883 290.15 321.432C306.295 322.178 322.437 322.921 338.582 323.667C339.052 323.762 339.414 323.689 339.442 323.108L339.411 323.153V323.159Z" fill="#6A6C65"/>
<path d="M273.761 254.369C264.081 245.711 259.61 234.907 260.369 221.94C260.052 215.298 259.734 208.659 259.417 202.017C258.563 191.539 258.874 181.017 258.093 170.521C257.744 165.806 255.794 163.444 251.949 161.796C251.936 161.57 251.93 161.342 251.927 161.113C251.251 158.672 251.054 158.227 250.203 157.265C243.853 150.077 236.668 143.457 233.512 134.049C229.74 122.804 227.835 111.062 224.793 99.6196C224.466 98.3941 223.993 97.1558 223.965 95.9144C223.774 87.399 218.148 82.4841 211.941 78.2042C206.788 74.6482 203.74 69.9079 201.778 64.1294C200.511 60.3924 198.828 56.7952 197.272 53.1598C196.437 51.2103 196.564 50.0959 199.041 49.6101C206.782 48.0925 214.484 46.3748 222.199 44.7111C224.412 44.2348 225.505 45.2286 226.359 47.2193C238.909 76.531 255.496 103.715 271.434 131.192C278.835 143.952 281.686 157.592 284.204 171.603C285.925 181.17 287.633 190.736 289.405 200.293C289.551 201.077 290.144 201.775 290.529 202.515C294.272 207.456 297.841 212.545 301.809 217.298C306.505 222.927 308.325 229.227 308.007 236.485C307.334 251.883 291.907 261.742 277.705 255.668C276.428 255.122 275.285 254.16 273.758 254.373L273.761 254.369Z" fill="#F5BB92"/>
<path d="M338.583 323.673C322.438 322.927 306.297 322.184 290.152 321.438C290.688 316.682 291.507 311.938 291.704 307.169C292.066 298.362 290.685 289.742 288.04 281.325C287.535 279.721 287.173 278.07 286.748 276.442C304.401 267.282 322.051 258.122 339.704 248.962C345.162 271.866 345.229 294.793 339.926 317.726C339.507 319.536 339.136 321.304 339.415 323.159L339.447 323.114C339.161 323.302 338.872 323.486 338.586 323.673H338.583Z" fill="#F4BA92"/>
<path d="M339.699 248.959C322.046 258.119 304.396 267.279 286.743 276.439C283.168 268.638 278.93 261.227 273.761 254.366C275.288 254.153 276.431 255.115 277.707 255.662C291.906 261.735 307.333 251.877 308.01 236.478C308.327 229.22 306.508 222.921 301.812 217.292C297.846 212.535 294.278 207.449 290.531 202.509C302.707 205.462 314.763 208.919 326.545 213.12C335.699 216.384 341.287 225.728 340.941 235.491C340.782 239.99 340.128 244.47 339.699 248.959Z" fill="#8A8AD9"/>
<path d="M132.121 416.917C132.458 424.934 132.794 432.947 133.128 440.964C110.544 441.028 87.9569 441.091 65.3731 441.148C64.1094 441.148 62.7251 441.282 62.0235 439.894C61.2773 438.424 61.8838 437.211 62.8998 436.065C71.231 426.686 79.3241 417.082 87.9347 407.966C94.1672 401.369 104.724 400.908 110.039 407.938C115.37 414.99 122.415 415.275 129.626 416.504C130.458 416.647 131.289 416.777 132.121 416.914V416.917Z" fill="#F5BB92"/>
<path d="M259.417 202.016C259.734 208.659 260.052 215.297 260.369 221.94C253.073 223.175 245.637 223.533 238.455 225.457C231.165 225.877 224.742 223.733 219.021 219.174C216.691 217.314 215.751 214.243 213.071 212.764C212.363 208.627 210.398 204.76 210.709 200.391C211.449 189.999 217.351 182.627 228.165 178.833C230.731 184.738 233.372 190.615 235.82 196.568C236.63 198.537 237.881 199.264 239.887 199.473C245.313 200.042 250.724 200.759 256.14 201.42C257.232 201.62 258.324 201.816 259.417 202.016Z" fill="#7B4A24"/>
<path d="M239.026 227.985C243.795 242.317 243.36 256.017 234.019 268.596C228.733 275.718 221.306 280.668 212.242 283.046C213.423 278.674 214.474 274.514 215.671 270.396C218.674 260.065 217.487 250.299 211.724 241.186C206.174 232.408 206.127 223.74 211.921 215.082C212.689 216.761 213.81 218.161 215.004 219.577C221.379 227.143 229.749 228.817 239.026 227.982V227.985Z" fill="#7B4A24"/>
<path d="M384.626 411.125C394.799 411.414 404.975 411.7 415.147 411.992C421.405 415.517 427.644 419.069 433.924 422.552C438.611 425.153 440.484 428.572 439.388 432.801C438.268 437.132 435.064 439.383 429.816 439.405C422.339 439.437 414.846 439.078 407.391 439.472C390.157 440.38 380.206 423.514 384.626 411.129V411.125Z" fill="#F5BB93"/>
<path d="M239.027 227.985C229.75 228.82 221.383 227.147 215.005 219.581C213.811 218.165 212.69 216.764 211.922 215.085C212.306 214.31 212.687 213.535 213.071 212.761C215.751 214.24 216.691 217.311 219.021 219.171C224.739 223.734 231.162 225.877 238.455 225.454C238.865 226.248 239.271 227.042 239.027 227.985Z" fill="#5C3819"/>
<path d="M254.566 167.368C254.484 164.949 251.886 164.069 251.95 161.793C251.683 161.494 251.42 161.196 251.153 160.897C251.159 160.897 251.166 160.897 251.175 160.897C250.524 159.897 248.48 158.04 246.756 159.742C242.165 163.736 241.333 170.076 236.91 174.083C234.633 176.144 231.087 177.426 228.166 178.827C230.731 184.732 233.373 190.609 235.821 196.562C236.631 198.531 237.882 199.258 239.888 199.467C245.314 200.036 250.724 200.753 256.141 201.414C255.592 190.063 254.95 178.719 254.566 167.362V167.368Z" fill="#F4BA91"/>
<path d="M338.582 323.673C338.868 323.486 339.157 323.302 339.442 323.114C339.414 323.695 339.052 323.768 338.582 323.673Z" fill="#FEFEFE"/>
<path d="M256.14 201.419C255.59 190.069 254.949 178.724 254.565 167.367C254.482 164.948 251.882 164.068 251.949 161.792C255.79 163.44 257.74 165.802 258.092 170.517C258.873 181.013 258.562 191.535 259.416 202.013C258.324 201.816 257.232 201.616 256.14 201.416V201.419Z" fill="#DCA882"/>
</svg>
