<svg width="501" height="501" viewBox="0 0 501 501" fill="none" xmlns="http://www.w3.org/2000/svg">
<path d="M334.483 318.699C343.703 316.531 352.489 312.986 361.494 310.141C370.901 307.166 380.233 303.958 389.63 300.962C408.722 294.875 425.779 310.177 421.658 329.845C416.573 354.124 411.238 378.35 406.012 402.597C396.404 402.324 386.797 402.051 377.186 401.778C377.453 392.837 378.937 384.012 379.807 375.127C380.727 365.729 381.801 356.346 382.826 346.79C380.442 346.994 379.102 348.418 377.594 349.393C365.593 357.138 353.17 364.128 340.318 370.353C321.915 379.265 305.03 390.797 287.404 401.047C275.302 408.088 263.367 415.416 251.352 422.604C244.947 426.436 238.02 429.009 230.575 429.114C200.274 429.537 169.967 429.699 139.662 429.956C139.345 422.385 139.03 414.816 138.712 407.245C152.443 403.38 166.149 399.431 179.91 395.673C193.895 391.856 207.911 392.048 221.792 396.216C224.868 397.14 226.793 396.516 228.988 394.162C240.743 381.559 252.683 369.129 264.576 356.658C265.7 355.48 266.729 354.322 266.894 352.586C268.12 339.818 274.3 329.674 283.584 321.179C285.059 319.826 286.502 318.438 287.959 317.067C303.207 317.772 318.452 318.474 333.7 319.179C334.144 319.268 334.486 319.2 334.513 318.651L334.483 318.693V318.699Z" fill="#6A6C65"/>
<path d="M272.479 253.73C263.337 245.553 259.115 235.349 259.831 223.102C259.531 216.829 259.232 210.559 258.932 204.286C258.125 194.391 258.419 184.453 257.681 174.54C257.351 170.087 255.51 167.856 251.879 166.3C251.867 166.087 251.861 165.871 251.858 165.655C251.219 163.349 251.033 162.929 250.23 162.021C244.232 155.232 237.447 148.98 234.466 140.095C230.904 129.474 229.104 118.385 226.232 107.578C225.923 106.42 225.476 105.251 225.449 104.078C225.269 96.0361 219.956 91.3942 214.093 87.3521C209.227 83.9936 206.348 79.5167 204.495 74.0592C203.298 70.5298 201.709 67.1324 200.24 63.699C199.451 61.8578 199.571 60.8053 201.91 60.3465C209.221 58.9132 216.495 57.2909 223.782 55.7197C225.872 55.2699 226.903 56.2084 227.71 58.0886C239.564 85.7718 255.228 111.446 270.281 137.396C277.271 149.447 279.964 162.33 282.342 175.562C283.967 184.597 285.58 193.632 287.254 202.658C287.392 203.399 287.952 204.058 288.315 204.757C291.851 209.423 295.221 214.23 298.969 218.719C303.404 224.035 305.122 229.984 304.823 236.839C304.187 251.382 289.617 260.693 276.204 254.957C274.998 254.441 273.919 253.532 272.476 253.733L272.479 253.73Z" fill="#F5BB92"/>
<path d="M333.7 319.184C318.452 318.479 303.207 317.778 287.959 317.073C288.465 312.581 289.239 308.101 289.425 303.597C289.767 295.279 288.462 287.138 285.965 279.188C285.488 277.674 285.146 276.115 284.744 274.577C301.416 265.926 318.086 257.275 334.758 248.624C339.913 270.256 339.976 291.909 334.968 313.568C334.572 315.277 334.221 316.947 334.485 318.698L334.515 318.656C334.245 318.833 333.972 319.007 333.703 319.184H333.7Z" fill="#F4BA92"/>
<path d="M334.755 248.621C318.082 257.272 301.413 265.923 284.741 274.574C281.364 267.206 277.361 260.207 272.479 253.727C273.922 253.526 275.001 254.435 276.207 254.951C289.617 260.687 304.187 251.376 304.826 236.833C305.125 229.978 303.407 224.029 298.972 218.713C295.227 214.221 291.857 209.417 288.318 204.751C299.818 207.54 311.204 210.805 322.332 214.772C330.977 217.855 336.254 226.68 335.927 235.901C335.777 240.15 335.16 244.381 334.755 248.621Z" fill="#8A8AD9"/>
<path d="M138.708 407.248C139.026 414.819 139.344 422.388 139.659 429.959C118.33 430.019 96.9977 430.079 75.6686 430.133C74.4751 430.133 73.1677 430.259 72.505 428.949C71.8003 427.56 72.3731 426.415 73.3326 425.332C81.201 416.474 88.8445 407.403 96.9767 398.794C102.863 392.563 112.833 392.129 117.853 398.767C122.888 405.427 129.542 405.697 136.352 406.858C137.137 406.993 137.923 407.116 138.708 407.245V407.248Z" fill="#F5BB92"/>
<path d="M258.932 204.286C259.231 210.559 259.531 216.829 259.831 223.102C252.94 224.269 245.918 224.608 239.135 226.425C232.25 226.821 226.184 224.797 220.78 220.491C218.579 218.733 217.692 215.834 215.161 214.436C214.492 210.529 212.636 206.877 212.93 202.751C213.628 192.936 219.203 185.973 229.416 182.39C231.839 187.968 234.334 193.518 236.646 199.14C237.41 201 238.592 201.686 240.487 201.884C245.612 202.421 250.721 203.099 255.837 203.722C256.868 203.911 257.9 204.097 258.932 204.286Z" fill="#7B4A24"/>
<path d="M239.674 228.812C244.178 242.348 243.767 255.287 234.945 267.167C229.952 273.893 222.939 278.568 214.378 280.814C215.493 276.685 216.486 272.757 217.616 268.867C220.453 259.11 219.331 249.886 213.889 241.28C208.647 232.989 208.602 224.803 214.075 216.625C214.8 218.212 215.859 219.534 216.986 220.872C223.008 228.017 230.912 229.598 239.674 228.809V228.812Z" fill="#7B4A24"/>
<path d="M377.186 401.778C386.793 402.051 396.404 402.321 406.012 402.597C411.922 405.925 417.814 409.281 423.745 412.57C428.171 415.026 429.941 418.256 428.906 422.25C427.848 426.34 424.822 428.466 419.865 428.487C412.803 428.517 405.727 428.178 398.686 428.55C382.41 429.408 373.012 413.479 377.186 401.781V401.778Z" fill="#F5BB93"/>
<path d="M239.675 228.812C230.913 229.601 223.012 228.02 216.988 220.875C215.86 219.537 214.802 218.215 214.076 216.629C214.439 215.897 214.799 215.165 215.162 214.434C217.693 215.831 218.58 218.731 220.781 220.488C226.182 224.797 232.248 226.821 239.136 226.422C239.522 227.172 239.906 227.921 239.675 228.812Z" fill="#5C3819"/>
<path d="M254.351 171.563C254.273 169.278 251.821 168.447 251.881 166.297C251.629 166.015 251.38 165.733 251.128 165.451C251.134 165.451 251.14 165.451 251.149 165.451C250.534 164.507 248.603 162.753 246.975 164.36C242.639 168.132 241.853 174.12 237.676 177.905C235.526 179.851 232.177 181.062 229.418 182.385C231.841 187.962 234.336 193.513 236.648 199.135C237.412 200.994 238.594 201.681 240.489 201.879C245.613 202.415 250.723 203.093 255.839 203.717C255.32 192.997 254.714 182.283 254.351 171.557V171.563Z" fill="#F4BA91"/>
<path d="M333.699 319.184C333.969 319.007 334.242 318.833 334.512 318.656C334.485 319.205 334.143 319.274 333.699 319.184Z" fill="#FEFEFE"/>
<path d="M255.837 203.722C255.319 193.002 254.713 182.288 254.35 171.562C254.272 169.277 251.816 168.446 251.879 166.296C255.507 167.853 257.349 170.084 257.681 174.537C258.419 184.45 258.125 194.387 258.932 204.283C257.9 204.097 256.869 203.908 255.837 203.719V203.722Z" fill="#DCA882"/>
</svg>
