<svg width="500" height="500" viewBox="0 0 500 500" fill="none" xmlns="http://www.w3.org/2000/svg">
<path d="M338.718 322.818C348.481 320.523 357.784 316.77 367.318 313.757C377.278 310.607 387.159 307.21 397.109 304.038C417.325 297.593 435.384 313.795 431.022 334.62C425.637 360.328 419.988 385.979 414.454 411.652C404.282 411.363 394.109 411.074 383.933 410.785C384.216 401.317 385.787 391.973 386.708 382.566C387.683 372.615 388.819 362.68 389.905 352.562C387.381 352.778 385.962 354.286 384.365 355.318C371.658 363.519 358.504 370.92 344.896 377.511C325.411 386.947 307.533 399.158 288.87 410.01C276.056 417.465 263.419 425.225 250.697 432.835C243.915 436.893 236.581 439.617 228.697 439.728C196.614 440.176 164.524 440.347 132.438 440.621C132.101 432.604 131.768 424.59 131.431 416.573C145.97 412.48 160.482 408.299 175.053 404.321C189.861 400.279 204.701 400.482 219.398 404.895C222.655 405.873 224.694 405.213 227.018 402.72C239.464 389.376 252.107 376.215 264.699 363.011C265.889 361.763 266.979 360.537 267.153 358.699C268.452 345.18 274.995 334.439 284.825 325.444C286.387 324.012 287.915 322.542 289.458 321.091C305.602 321.837 321.744 322.58 337.889 323.326C338.359 323.422 338.721 323.348 338.75 322.767L338.718 322.812V322.818Z" fill="#6A6C65"/>
<path d="M273.068 254.029C263.388 245.371 258.917 234.566 259.676 221.6C259.358 214.957 259.041 208.319 258.723 201.676C257.869 191.199 258.18 180.677 257.399 170.18C257.05 165.465 255.101 163.103 251.256 161.455C251.243 161.23 251.237 161.001 251.234 160.773C250.557 158.331 250.36 157.887 249.51 156.925C243.16 149.737 235.975 143.117 232.819 133.709C229.047 122.463 227.142 110.722 224.1 99.2793C223.773 98.0538 223.3 96.8155 223.271 95.5741C223.081 87.0587 217.455 82.1438 211.248 77.8639C206.095 74.3079 203.047 69.5676 201.084 63.7891C199.818 60.0521 198.135 56.4548 196.579 52.8194C195.744 50.87 195.871 49.7556 198.347 49.2698C206.088 47.7521 213.791 46.0344 221.506 44.3707C223.719 43.8945 224.811 44.8883 225.665 46.879C238.216 76.1907 254.802 103.375 270.741 130.852C278.142 143.612 280.993 157.252 283.511 171.263C285.232 180.829 286.94 190.396 288.711 199.952C288.857 200.737 289.451 201.435 289.835 202.175C293.579 207.115 297.147 212.205 301.116 216.958C305.812 222.587 307.631 228.886 307.314 236.144C306.641 251.543 291.213 261.401 277.011 255.328C275.735 254.782 274.592 253.82 273.065 254.032L273.068 254.029Z" fill="#F5BB92"/>
<path d="M337.889 323.333C321.744 322.587 305.603 321.844 289.458 321.098C289.994 316.342 290.814 311.598 291.01 306.829C291.372 298.022 289.991 289.402 287.346 280.985C286.842 279.382 286.48 277.731 286.054 276.102C303.707 266.942 321.357 257.782 339.01 248.622C344.468 271.527 344.535 294.453 339.232 317.386C338.813 319.196 338.442 320.965 338.721 322.819L338.753 322.774C338.467 322.962 338.178 323.146 337.893 323.333H337.889Z" fill="#F4BA92"/>
<path d="M339.006 248.619C321.353 257.779 303.704 266.939 286.05 276.098C282.475 268.298 278.237 260.887 273.068 254.026C274.595 253.813 275.738 254.775 277.014 255.321C291.213 261.395 306.64 251.537 307.317 236.138C307.634 228.88 305.815 222.581 301.119 216.951C297.153 212.195 293.585 207.109 289.838 202.168C302.014 205.121 314.07 208.579 325.852 212.779C335.006 216.043 340.594 225.387 340.248 235.15C340.089 239.649 339.435 244.129 339.006 248.619Z" fill="#8A8AD9"/>
<path d="M131.428 416.576C131.764 424.593 132.101 432.607 132.434 440.624C109.851 440.687 87.2635 440.751 64.6797 440.808C63.4161 440.808 62.0318 440.941 61.3301 439.554C60.584 438.084 61.1904 436.871 62.2064 435.725C70.5376 426.346 78.6307 416.742 87.2413 407.626C93.4739 401.028 104.031 400.568 109.346 407.598C114.677 414.649 121.722 414.935 128.932 416.164C129.764 416.307 130.596 416.437 131.428 416.573V416.576Z" fill="#F5BB92"/>
<path d="M258.723 201.677C259.041 208.319 259.358 214.958 259.676 221.6C252.38 222.835 244.944 223.194 237.762 225.118C230.472 225.537 224.049 223.394 218.328 218.834C215.997 216.974 215.057 213.904 212.378 212.424C211.67 208.287 209.704 204.42 210.016 200.051C210.755 189.659 216.658 182.287 227.472 178.493C230.037 184.398 232.679 190.275 235.127 196.228C235.936 198.197 237.187 198.924 239.194 199.133C244.62 199.702 250.03 200.419 255.447 201.08C256.539 201.28 257.631 201.477 258.723 201.677Z" fill="#7B4A24"/>
<path d="M238.334 227.644C243.103 241.976 242.668 255.677 233.327 268.256C228.041 275.377 220.615 280.327 211.55 282.705C212.731 278.333 213.782 274.174 214.979 270.056C217.982 259.725 216.795 249.958 211.032 240.846C205.482 232.067 205.435 223.399 211.229 214.741C211.998 216.421 213.118 217.821 214.312 219.237C220.688 226.803 229.057 228.476 238.334 227.641V227.644Z" fill="#7B4A24"/>
<path d="M383.933 410.786C394.105 411.075 404.281 411.36 414.454 411.652C420.712 415.177 426.951 418.73 433.231 422.212C437.917 424.813 439.79 428.232 438.695 432.461C437.574 436.792 434.371 439.043 429.122 439.065C421.645 439.097 414.152 438.738 406.697 439.132C389.463 440.04 379.513 423.175 383.933 410.789V410.786Z" fill="#F5BB93"/>
<path d="M238.334 227.645C229.056 228.48 220.69 226.807 214.311 219.241C213.118 217.825 211.997 216.425 211.229 214.745C211.613 213.97 211.994 213.196 212.378 212.421C215.058 213.9 215.997 216.971 218.328 218.831C224.046 223.394 230.469 225.537 237.762 225.115C238.172 225.908 238.578 226.702 238.334 227.645Z" fill="#5C3819"/>
<path d="M253.872 167.028C253.789 164.608 251.192 163.729 251.256 161.452C250.989 161.154 250.725 160.855 250.459 160.557C250.465 160.557 250.471 160.557 250.481 160.557C249.83 159.557 247.785 157.699 246.061 159.401C241.47 163.395 240.638 169.736 236.216 173.743C233.939 175.803 230.393 177.086 227.472 178.486C230.037 184.392 232.679 190.269 235.127 196.222C235.936 198.19 237.187 198.917 239.194 199.127C244.62 199.695 250.03 200.413 255.447 201.073C254.897 189.723 254.256 178.378 253.872 167.021V167.028Z" fill="#F4BA91"/>
<path d="M337.889 323.333C338.174 323.145 338.463 322.961 338.749 322.774C338.721 323.355 338.359 323.428 337.889 323.333Z" fill="#FEFEFE"/>
<path d="M255.447 201.079C254.898 189.729 254.257 178.384 253.872 167.027C253.79 164.608 251.189 163.729 251.256 161.452C255.098 163.1 257.047 165.462 257.4 170.177C258.181 180.674 257.87 191.196 258.724 201.673C257.632 201.476 256.539 201.276 255.447 201.076V201.079Z" fill="#DCA882"/>
</svg>
