<svg width="500" height="501" viewBox="0 0 500 501" fill="none" xmlns="http://www.w3.org/2000/svg">
<path d="M451.554 446.198C445.898 445.922 423.549 446.336 421.48 446.612C416.513 447.302 411.271 445.369 411.409 440.676C411.547 437.087 412.651 433.636 412.099 431.428C409.064 420.247 398.717 382.149 395.268 368.622C394.164 364.067 422.17 358.407 422.583 363.377C424.653 383.254 426.032 425.354 425.894 432.532C425.894 432.532 455.417 433.775 455.693 439.02C455.969 441.919 457.21 446.474 451.554 446.198Z" fill="#ECAD83"/>
<path d="M387.647 340.31C389.457 348.073 389.735 353.756 395.721 368.865C400.036 366.786 419.106 362.627 423.282 363.597C422.307 355.558 418.271 317.854 407.692 307.042C396.695 295.676 295.639 322.151 293.272 318.547C293.272 318.547 242.605 352.647 263.624 366.786C289.653 383.974 387.647 340.31 387.647 340.31Z" fill="#333333"/>
<path d="M40.0151 442.827C40.5672 437.257 64.5843 435.899 68.311 433.589C70.1054 432.503 71.6237 429.242 76.3167 428.427C82.528 427.341 86.8069 431.688 89.0154 431.144C100.196 428.563 131.252 424.895 144.917 421.907C148.092 421.228 151.267 420.548 154.579 420.005C168.106 417.696 164.241 446.223 159.272 446.63C139.396 447.989 91.638 445.272 84.4604 445C84.4604 445 62.6518 447.717 57.4067 447.853C54.2321 447.989 39.463 448.396 40.0151 442.827Z" fill="#F6BB92"/>
<path d="M198.979 416.188C183.012 416.325 168.008 417.564 154.518 419.904C156.858 424.172 159.886 442.48 159.198 446.747C164.153 446.472 202.558 446.059 202.558 446.059C213.295 445.921 278.955 381.774 305.798 349.7C307.862 347.359 311.304 341.44 314.607 335.108C314.607 335.108 271.798 309.091 266.98 310.054C258.996 314.184 251.15 322.306 247.984 332.63C246.194 338.274 246.607 348.461 244.68 351.351C226.785 376.818 198.979 416.188 198.979 416.188Z" fill="#3D3C3C"/>
<path d="M275.308 26.9033C270.063 26.9033 272.823 48.7081 271.443 55.3324L275.032 63.1987C271.857 111.086 280.414 131.925 280.414 131.925C277.24 160.492 273.789 215.556 275.722 226.321C277.516 237.085 299.596 235.843 300.424 224.803C301.252 213.9 300.838 204.102 300.7 193.2C300.7 182.297 299.044 141.586 298.078 132.063C297.94 130.821 286.762 63.1987 286.762 63.1987C286.762 63.1987 286.9 60.4386 288.418 55.8844C290.626 49.5362 290.074 40.0138 287.728 34.9076C285.658 30.4915 280.414 26.9033 275.308 26.9033Z" fill="#ECAD83"/>
<path d="M273.515 48.7058C273.515 48.7058 274.067 41.8056 270.479 41.1155C267.443 40.5635 266.339 40.7015 271.307 55.3301C271.445 55.4681 273.515 55.1921 273.515 48.7058Z" fill="#ECAD83"/>
<path d="M325.107 232.928C325.662 215.941 311.52 211.66 302.231 193.57C301.122 191.36 290.585 185.146 285.039 185.007C278.938 184.869 272.699 185.836 267.985 190.808C264.38 194.674 257.171 206.689 263.133 238.452C264.519 250.742 275.333 301.424 265.767 310.263C265.767 310.263 282.682 323.106 293.773 325.868C304.865 328.63 314.986 334.568 314.986 334.568C326.632 307.363 316.373 262.205 318.868 245.218C319.007 245.356 324.969 237.761 325.107 232.928Z" fill="#FF8AA0"/>
<path d="M297.413 185.936C297.413 185.936 292.933 173.78 290.132 162.853L271.371 161.624C275.011 172.551 272.351 187.302 272.351 187.302C289.852 185.526 297.133 191.399 301.753 193.175L297.413 185.936Z" fill="#ECAD83"/>
<path d="M283.804 124.823C282 116.256 274.368 114.046 269.79 113.217C255.359 110.592 248.838 115.98 241.9 123.994C232.604 134.632 257.163 162.818 262.713 165.996C277.144 174.148 296.569 161.436 302.813 154.666C309.612 147.205 305.311 146.929 302.119 144.442C301.981 144.304 301.842 143.613 301.842 143.613C300.87 142.646 299.344 141.541 298.512 139.606C298.512 139.606 297.263 139.054 296.847 138.639C296.43 138.363 296.292 138.225 296.569 137.672C297.124 136.152 297.679 134.909 297.679 134.08C297.263 131.455 284.636 128.829 283.804 124.823Z" fill="#F6BB92"/>
<path d="M295.91 145.265C295.91 145.265 297.124 144.923 300.46 142.189C300.612 141.734 300.915 140.708 299.247 140.595C298.034 140.481 297.882 142.987 295.91 145.265Z" fill="#D6876B"/>
<path d="M295.91 145.148C295.91 145.148 298.559 145.877 302.61 143.689C303.077 143.203 302.921 142.596 302.766 142.474C301.987 141.38 300.584 141.866 300.584 141.866C297.157 144.905 295.91 145.148 295.91 145.148Z" fill="#CC785E"/>
<path d="M239.519 123.04C228.41 136.06 231.976 169.44 269.005 170.964C271.474 171.103 275.589 169.856 276 163.208C276.274 158.498 275.177 154.066 275.177 154.066C274.766 152.819 274.491 151.296 273.943 149.772C273.394 148.11 266.4 143.401 267.36 141.877C276.274 127.472 274.217 116.115 270.926 113.206C261.6 107.666 251.451 109.189 239.519 123.04Z" fill="#602F0F"/>
<path d="M269.715 153.143C277.018 156.264 279.318 153.994 281.887 150.306L271.473 144.347L266.469 142.929C263.899 146.617 262.411 150.022 269.715 153.143Z" fill="#F6BB92"/>
<path d="M241.892 160.389C236.614 161.229 231.613 154.228 230.641 144.988C229.669 135.748 233.002 127.487 238.28 126.647C243.559 125.807 246.753 131.828 247.726 141.068C248.698 150.448 247.17 159.549 241.892 160.389Z" fill="#4C230C"/>
<path d="M270.34 141.859C269.098 141.169 268.132 140.341 267.442 139.651C266.338 138.684 265.786 137.856 265.786 137.856L263.854 142.825C264.406 143.377 264.958 143.791 265.51 144.343C265.51 144.343 265.786 143.791 266.062 142.963V143.101C267.304 143.377 269.236 143.791 271.582 144.895C271.72 144.757 274.066 144.205 270.34 141.859Z" fill="#602F0F"/>
<path d="M239.703 162.285C234.183 163.113 228.939 155.66 227.835 145.586C226.731 135.512 230.319 126.679 235.701 125.851C241.221 125.023 244.533 131.51 245.637 141.446C246.741 151.52 245.223 161.457 239.703 162.285Z" fill="#602F0F"/>
<path d="M229.895 149.934C229.352 150.066 228.537 147.702 228.266 144.813C227.994 141.924 228.13 139.429 228.809 139.429C229.352 139.298 229.895 141.267 230.302 144.156C230.574 147.045 230.574 149.934 229.895 149.934Z" fill="#4C230C"/>
<path d="M267.718 20.001C262.473 20.001 265.234 41.8058 263.854 48.43L267.442 56.2963C264.268 104.184 272.824 125.023 272.824 125.023C269.65 153.59 266.2 208.654 268.132 219.418C269.926 230.183 292.007 228.941 292.835 217.9C293.663 206.998 293.249 197.2 293.111 186.297C293.111 175.395 291.455 134.683 290.489 125.161C290.351 123.919 279.172 56.2963 279.172 56.2963C279.172 56.2963 279.31 53.5362 280.828 48.9821C283.036 42.6338 282.484 33.1115 280.138 28.0053C278.068 23.5891 272.824 20.001 267.718 20.001Z" fill="#F6BB92"/>
<path d="M265.923 41.8035C265.923 41.8035 266.475 34.9032 262.887 34.2132C259.851 33.6612 258.747 33.7992 263.715 48.4277C263.853 48.5657 265.923 48.2897 265.923 41.8035Z" fill="#F6BB92"/>
</svg>
