<?xml version="1.0" encoding="UTF-8"?>
<svg xmlns="http://www.w3.org/2000/svg" version="1.1" viewBox="0 0 1417.3 1417.3">
  <defs>
    <style>
      .cls-1 {
        fill: #e6a47c;
      }

      .cls-2 {
        fill: #fff;
      }

      .cls-3 {
        fill: #ffb58a;
      }

      .cls-4 {
        fill: #e7a47a;
      }

      .cls-5 {
        fill: #696d65;
      }

      .cls-6 {
        fill: #4a4b44;
      }

      .cls-7 {
        fill: #8b8bdd;
      }

      .cls-8 {
        fill: #8a89dd;
      }

      .cls-9 {
        fill: #6b6d66;
      }

      .cls-10 {
        fill: #5d3818;
      }

      .cls-11 {
        fill: #824414;
      }

      .cls-12 {
        fill: #494a45;
      }

      .cls-13 {
        fill: #ffb68a;
      }

      .cls-14 {
        fill: #fdfcfc;
      }
    </style>
  </defs>
  <!-- Generator: Adobe Illustrator 28.7.1, SVG Export Plug-In . SVG Version: 1.2.0 Build 142)  -->
  <g>
    <g id="_레이어_1" data-name="레이어_1">
      <g>
        <path class="cls-5" d="M757.4,929.7c-8.3-1.1-16.5-2.2-24.8-3.3-2.5-.3-4.7,0-6.9,1.4-12,7.6-25,12.8-38.7,16.4-10.3,2.7-20.2,6.3-30.7,8.5-12.9,2.7-25.8,5.7-38.8,8.1-12,2.2-24.1,3.5-36.2,4.3-19.1,1.3-38.3,1.2-57.4.8-13.4-.3-26.7-1.3-40.1-2.7-10-1.1-20.1-1.6-30.2-2.4-13-1-26-1.9-39-2.8-6.9-.5-13.9-.9-20.8-1.5-9.7-.8-19.4-1.6-29.1-2.4-6.6-.6-13.2-1.1-19.7-1.7-4.5-.4-9-1-13.2-2.7,1-2.9,2.2-5.8,2.7-8.8,1.5-9.6,3-19.1,4.4-28.7,1.2-7.9,2.3-15.7,3.5-23.6,1.4-9.2,2.9-18.5,2.9-27.9,2.6-1.5,5.4-2.1,8.5-2.1,8.7-.2,17.3-1.5,25.9-2.5,10.2-1.2,20.3-2.5,30.5-3.7,10.7-1.3,21.4-2.6,32-3.8,8.1-.9,16.2-2,24.4-2.1,3.3,0,6.6-.6,9.8-1,5.5-.7,11-1.5,16.5-2,4-.3,7.9-.7,11.9-1.4.7-.1,1.2-.6,1.4-1.3,3,2.4,6.5,3.9,9.9,5.6,8.7,4.6,18.2,6.9,27.9,7.7,8.8.7,17.6.9,26.5-.8,10.2-1.9,19.7-5.4,28.2-11.4,1.3-.9,2.6-1.8,3.4-3.2.5-.2,1.1-.2,1.4-.5,2.9-2.4,6.1-4.3,8.5-7.3.8-1,1.6-1.7,2.8-2.2.7,0,1.3-.2,2-.2.4.4.7.3.9-.1,13-1.3,25.9-2.5,38.9-3.7,9.7-.9,19.3-1.6,28.9-3.4,6.1-1.1,12.4-1.6,18.6-2.3,14.1-1.6,28.3-2.9,42.5-4.3,1.9-.2,3.8-.3,5.7-.2,7,.4,13.7-1.2,20.5-2.1.2-1.5-.4-2.4-.8-3.3-7-15.3-13.9-30.7-20.9-46-.6-1.4-1.2-2.9-2.4-4-.4-1.2-.6-2.4-1.1-3.4-2.2-4.9-4.4-9.8-6.8-14.6-2.5-4.8-4.1-9.9-5.1-15.2,3.9-1.4,7.8-1.3,11.8-.6,4.1.7,8.3,1,12.4,1.5,4.6.6,9.3,1.1,13.9,1.7,6.9.8,13.8,1.7,20.7,2.5,4.1.5,8.3.9,12.4,1.4,10,1.2,20,2.5,29.9,3.8,8.8,1.1,17.6,2.1,26.3,3.2,0,.3,0,.7,0,1,.5,4.1.9,8.2,1.5,12.3.5,3.4,1.1,6.8,1.6,10.2.8,6,1.4,12,2.3,18,.9,6,2,11.9,2.9,17.9,1.2,8.2,2,16.5,3.4,24.6,1.2,7.2,2.1,14.4,3.1,21.5.4,2.9.7,5.8,1.2,8.7.9,5.4,1.9,10.9,2.7,16.3.8,5.6,1.4,11.3,2.3,16.9.4,2.5,1.7,4.5,3.9,5.9,3.1,1.9,6.1,1,8.9-.3,2.6-1.2,2.7-3.7,2.8-6.2.3-4.9-1-9.6-1.4-14.5-.6-6-1.9-11.9-2.8-17.9-1-6.5-2-13-2.9-19.5-.5-3.4-.8-6.9-1.3-10.3-.4-3.4-.9-6.8-1.4-10.3-.5-3.4-1.4-6.8-1.6-10.2-.4-6.1-1.8-11.9-2.5-18-.7-6.8-2.1-13.6-3-20.5-.4-2.9-.7-5.8-1.2-8.7-.8-4.9-1.9-9.8-1.8-14.9,1.7,0,3.5,0,5.2.2,5.9.6,11.7,1.3,17.6,1.8,2.2.2,4.6.2,6.7-.2,4.6-.9,9.2-1.6,13.8-2.3,9.2-1.5,18.4-3.4,27.6-5,19.9-3.6,39.9-7.2,59.8-10.8,1.5-.3,2.7,0,4,.6,1.1,1.7,2.4,3.1,4.3,4.1,1.8,2.9,4.7,4.6,7.1,6.9,9.5,9.2,19,18.3,28.6,27.4.9.8,1.6,1.9,2.9,2.1,2.8.4,5.5-.4,8.3-.9,2-.4,2.9-2.3,4-3.9,9.9-13.9,21.2-26.6,33.7-38.3,1.6-.5,2.6.6,3.6,1.6,7.1,6.7,13.5,14,19.3,21.9,15.3,21,25.5,44.2,29.9,69.9,4.5,26,2.5,51.3-8,75.7-9.4,21.8-24.3,38.8-44.8,50.8-1.9,1.1-3.8,2.4-5.7,3.7-2.4,1.7-5,3.1-7.9,3.8-5.6,1.4-11.1,2.9-16.7,4.2-11.9,2.8-23.8,2.2-35.8.7-3.4-.4-6.7-1.7-10.1-2.7-6.4-1.8-12.7-3.5-19.4-3.9-3.8-.2-7.5-1.2-11.1-2.6-11.7-4.6-24.1-6.9-36.3-9.5-4.1-.9-8.2-1.8-12.3-2.5-6.4-1.2-12.4-3.5-18.3-6-4.5-1.9-9-3.7-13.5-5.5-1-1.8-2-3.6-2.9-5.5-2.3-4.9-4.6-9.7-6.7-14.7-1-2.4-2.6-3.4-5.2-3.3-7.5.3-14.9.3-22.4.7-12.8.8-25.7.9-38.5,1.2-3.5,0-6.9.6-10.1,1.9-1.6.7-3.1,1.6-5,1.3,0-.3,0-.7,0-1,1.5-3.3.8-6.3-1-9.3-2.7-4.6-5.1-9.4-7.7-14.2-3-5.7-6-11.3-9.1-17-4.4-8.2-8.9-16.5-13.4-24.7-2.5-4.6-4.9-9.2-7.4-13.7-1.5-2.6-3.4-4.9-6.3-5.9-3.2-1.2-6.3-1.2-9.1,1.5-2.7,2.6-2.9,5.3-1.5,8.5.2.5.3,1,.5,1.5,1.4,2.6,2.9,5.1,4.3,7.7,3.9,6.9,7.9,13.8,11.8,20.8,3.7,6.5,7.2,13,10.9,19.5,4.1,7.2,8.3,14.4,12.3,21.7,1.3,2.3,2.6,4.5,4.9,5.9.8.5,1.2,1.2,1.2,2.1-.8,1.3-2.3,1.5-3.5,1.9-7.2,2.6-14.4,4.9-21.5,7.6-11.2,4.2-22.7,7.5-33.5,12.6Z"/>
        <path class="cls-13" d="M862.8,739.4c-8.8-1.1-17.6-2.1-26.3-3.2-10-1.2-20-2.5-29.9-3.8-4.1-.5-8.3-.9-12.4-1.4-6.9-.8-13.8-1.6-20.7-2.5-4.6-.6-9.3-1.1-13.9-1.7-4.1-.5-8.3-.8-12.4-1.5-4-.7-7.9-.8-11.8.6-2.6,0-5.2-.2-7.7.2-5.9,1.1-11.7,0-17.4-.9-4.1-.6-8.1-1.7-12.1-2.5-2-1.5-4.4-2-6.6-3-.4-.2-1.1,0-1.4.2-.4.3-.4.9,0,1.4.8,1.2,1.5,2.3,2.3,3.5,2.5,3.8,4.7,7.7,5.8,12.2,2.4,9.2.7,17.5-5.5,24.8-1.4,1.7-3.1,3.3-4.7,4.9-3.2,3.2-6,6.8-8.6,10.5-3.3,4.7-4.4,9.8-2.2,15.3.9,2.3,1.8,4.5,2.6,6.8.9,2.4,1.8,4.9,1.5,7.6-.2,2.6-1.3,4.7-3.7,5.9-1.2.6-2.5,1.4-3.8,1.6-3.2.5-6.4,1.4-9.8,1.3-7.1-.1-14.3-.2-21.4,0-9.3.3-17.7,3.4-25,9.1-1.3,1-2.9,2-3.1,4-1.1.5-2,1.2-2.8,2.2-2.3,3-5.6,4.9-8.5,7.3-.4.3-.9.3-1.4.5-1-2.6-1.9-5.3-2.1-8-.8-9.7-2.2-19.4-2.1-29.1,0-3.8-.1-7.7-.1-11.5,0-2.3-.2-4.6-1-6.7-2.2-5.7-4.6-11.3-8.2-16.3-1.3-1.9-2.8-3.5-4.6-5-4.2-3.4-8.3-6.9-12.4-10.4-2.6-2.3-5.2-4.6-7.2-7.5-2.4-3.6-3.5-7.6-2.9-11.9.8-5.2,1.8-10.3,3.7-15.2,4.7-12.4,8.7-25,13.8-37.2.3-.8.8-1.6.9-2.4.2-2.6,1.7-4,3.9-5,.5-.4,1.1-.8,1.6-1.1,0,0-.1,0-.1,0,.4-.4.8-.8,1.1-1.1h0c.4-.3.7-.7,1.1-1,0,0,0,0,0,0,.4,0,.7,0,1.1,0,1.1-.4,1.9-1,2.1-2.2h0c2.8-.6,3-.9,3.2-3.6-.2-.8.3-1.1.9-1.3,1.8.3,3.4,0,4.8-1.3,6.2-5.2,12.5-10.4,18.8-15.5,6.5-5.2,12.6-10.8,18.6-16.6,7.8-7.4,15.9-14.4,23.8-21.6.2-.2.6-.3.9-.5-.2,1.2-.4,2.4-.7,3.5-1.4,6.4-2.8,12.8-2.5,19.4-.5,0-1,0-1.6,0-3.8-.2-6.1,1.5-7.7,4.9-3.7,7.4-5.3,15.3-6.3,23.4-.7,5.9,0,11.9,1.3,17.5,2.2,10,5.6,19.6,11.5,28.2,2.8,4.1,6.5,7.2,9.8,10.7,3.4,3.6,7.6,6,12.3,7.4,3.5,1,4.7.8,6.8-1.9,1.5-1.8,1.4-4-.4-5.5-1.2-1-2.6-1.7-4-2.4-7-3.2-12.4-8-16.5-14.6-6.8-10.7-10.4-22.2-10.4-34.8,0-3-.3-6,.2-8.8.9-5.5,2.3-10.8,5.2-15.6,1-1.6.9-3.3.7-5-.1-1.2-.6-2.3-.9-3.5.7-.5,1.4-.9,2.1-1.5,3.9-3.2,7.7-6.5,12.1-8.9,12.9-6.9,26.5-8.3,40.7-6.1,5.6.9,11.1,2.3,16.6,3.8.9.5,1.7,1.1,2.7,1.5,6.1,2.4,12.2,4.9,18.4,7.2,12.5,4.6,25.1,9.2,37.6,13.7,19.4,7,38.8,14,58.2,21,1.1.4,2.4.5,3.6.7,5.6,3,11.7,4.8,17.8,6.5,11.7,4.5,23.4,8.9,35.5,12.1,3.6,1,7.1,1.1,10.8.4,9.2-1.7,18.5-3.1,27.7-4.8,5.3-1,10.7-1.5,15.8-3.1,3.9-.7,7.8-1.4,11.7-2,1.1-.2,1.9-.7,2.8-1.3,1.4.7,2.7,1.4,4.4,1.1,5.2-1,10.5-2,15.8-3,1.1-.2,2-.6,2.8-1.3,1.1-1.1,2.3-2.1,3.3-3.3,3.6-4.7,7.3-9.2,11.4-13.5.6-.6,1.3-1.4,1.4-2.2.6-3.1,3-4.6,5.1-6.3,4-3.3,8.5-5.3,13.9-4.8,3.8.4,6.7,2.5,7.7,5.9.8,2.9-.3,6.1-3.2,8.2-1.1.8-2.5,1.4-3.2,2.6-.9,1.6-2.5,2.3-4,3.2-2.2,1.4-4.4,2.8-6.2,4.7-1.5,1.5-2,3.1-2,5.1,0,4.5,2.1,8,4.9,11.1,1.4,1.6,2.7,3.1,4,4.8,2.8,3.6,5.7,7,8.9,10.2,4.8,4.7,8.9,10.2,15,13.6.7.4.6,1.3.2,1.9-.3.4-.7.7-1.2,1-3.1,2.3-6.3,4.4-9.1,6.9-1.6,1.5-3.4,2.5-5.4,2.9-5.2,1.1-10.3,2.9-15.7,3.6-2.8.4-5.2,1.6-6.9,4.1-1.3-.7-2.5-.9-4-.6-19.9,3.6-39.9,7.2-59.8,10.8-9.2,1.7-18.4,3.5-27.6,5-4.6.8-9.2,1.5-13.8,2.3-2.2.4-4.5.4-6.7.2-5.9-.5-11.7-1.3-17.6-1.8-1.7-.2-3.5-.1-5.2-.2-.3-.2-.6-.2-.9-.2-.3-.4-.6-.6-1-.3-4.6-.6-9.1-1.1-13.7-1.7-.3,0-.7,0-1-.1Z"/>
        <path class="cls-11" d="M583.5,672.6c-2.2.9-3.7,2.4-3.9,5,0,.8-.5,1.6-.9,2.4-5.1,12.2-9.1,24.8-13.8,37.2-1.9,4.9-2.9,10-3.7,15.2-.7,4.3.5,8.3,2.9,11.9,1.9,2.9,4.5,5.3,7.2,7.5,4.1,3.5,8.2,7,12.4,10.4,1.8,1.4,3.3,3.1,4.6,5,3.5,5,5.9,10.6,8.2,16.3.8,2.1,1,4.4,1,6.7,0,3.8.2,7.7.1,11.5,0,9.8,1.3,19.4,2.1,29.1.2,2.8,1.1,5.4,2.1,8-.8,1.4-2.1,2.3-3.4,3.2-8.5,5.9-18,9.4-28.2,11.4-8.8,1.7-17.7,1.5-26.5.8-9.6-.8-19.1-3.1-27.9-7.7-3.4-1.8-6.9-3.2-9.9-5.6-8-4.8-14.3-11.5-19.9-18.8-9-11.6-14.7-24.7-17.9-38.9-1-4.3-2.1-8.4-4.7-12,1.1-.6,1.9-1.4,2.6-2.5,2.1-3.2,2.6-6.9,2.9-10.4.6-6.2,1.9-12.3,3.4-18.3,2.5-9.9,7.1-18.8,13.4-26.8,4.1-5.1,8.5-10,13.3-14.6,5-4.9,10.7-8.8,16.8-12.1,10.3-5.4,21.3-9.2,32.7-11.8,5.1-1.1,10.1-2.4,15.4-2.1,2.5.2,4.7-1,7-1.8,4.9-1.5,4.8-12.3,1.2-14.5-1-.6-2.2-1.1-3.3-1.4-1.2-.3-2.4-.4-3.6-.6-3.8-.8-7.6-.8-11.3,0-5.1,1.1-10.1,2.6-15.1,3.5-9.1,1.7-17.8,4.5-25.7,9.5-1.5.9-3.1,1.5-4.7,2.2-5.4,2.4-11.1,4.3-14.4,9.7,0,.1-.2.3-.4.4-6.4,5.4-12.1,11.4-17.4,17.9-5.1,6.2-9.4,13-12.6,20.2-3.8,8.3-6.9,17-8.2,26.2-.3,2.2-.8,4.4-.7,6.7.1,3.2-.2,6.2-2.4,8.8-.5.6-.6,1.6-.9,2.4-3.8-3.3-7.1-7.1-10-11.3-4.2-6.3-6.2-13.1-6.5-20.6-.4-9.2,1.6-17.9,4.8-26.5,2.9-7.9,7-15.1,11.8-22,5.4-7.8,11.9-14.4,18.9-20.7,2.5-2.2,5.3-3.9,8.2-5.5,25.5-14,52.6-23.4,81.4-28.1,13.2-2.2,26.6-2.9,40-2.2,1.2,0,2.5.3,3.6,0,2.2-.4,3.6.5,5,2,3.4,3.8,4.6,7.9,3,13-2,6.7-6.3,11.9-11.1,16.7-2,2-4,3.8-6,5.7-.6.2-1.1.5-.9,1.3-1.5.5-2.4,1.7-3.4,2.8-.1.1.1.6.2.9,0,0,0,0,0,0-1.4-.9-1.6.3-2.1,1.1-.6.1-1,.5-1.1,1.1,0,0,0,0,0,0-.7,0-1,.5-1.1,1.1,0,0,0,0,0,0-.7.1-1,.5-1.1,1.1,0,0,.1,0,.1,0-.7,0-1.2.6-1.6,1.1Z"/>
        <path class="cls-8" d="M658.2,629.8c-.3-6.6,1.1-13,2.5-19.4.3-1.2.4-2.4.7-3.5.6-1.5,1.2-2.9,1.7-4.4,2.3-8.3,6.9-15.1,12.9-21.1,12.3-12.4,27-21.3,43.2-27.7,5.5-2.2,11-4.3,16.7-5.9,8.4-2.3,16.9-4.2,25.5-5.5,9.3-1.4,18.7-1.3,28.1-1.4,1,0,2.1,0,3.1,0,7.9-.3,15.6.5,23.4,1.5,10.5,1.3,21,3,31.3,5.6,14.2,3.5,27.9,8.5,41.3,14.4,3.3,1.5,6.6,3,10,4.5,9.3,4,17.7,9.6,26.3,14.9,6.6,4.2,13.2,8.5,19.7,12.7,1.5.9,2.8,2,4.2,3,0,2.5,1.8,3.6,3.5,4.8,2.2,1.6,4.6,3.1,6.9,4.6,9.5,6.3,19,12.7,28.5,19.1,1.5,1,3.5,1.7,4.1,3.8-5,10.3-10,20.6-15.5,30.6-.7,1.2-1.5,2.4-1.5,3.8-1.7,1.2-2.1,3.1-2.4,5-.8.6-1.7,1.1-2.8,1.3-3.9.6-7.8,1.3-11.7,2-.4-.6-.8-1.2-1.3-1.6-2.7-2.5-5.4-4.9-8.1-7.4-7.1-6.7-13.9-13.6-21.1-20.2-9.7-8.9-18.9-18.4-28.6-27.4-6.9-6.3-13.3-13.2-20.8-18.9-7.6-5.8-15.1-11.7-23.1-16.9-10.3-6.6-21.2-11.9-32.9-15.3-11.5-3.4-23.2-4.1-35-2-12.2,2.2-22.5,7.8-31.4,16.3-5.4,5.2-10.1,11-13.9,17.5-1.7,3-3.8,5.8-5.8,8.6-2.6,3.7-5.1,7.4-5.9,12-5.5-1.5-11-2.9-16.6-3.8-14.2-2.2-27.9-.9-40.7,6.1-4.5,2.4-8.2,5.7-12.1,8.9-.7.5-1.4,1-2.1,1.5h0Z"/>
        <path class="cls-13" d="M757.4,929.7c10.8-5.2,22.3-8.4,33.5-12.6,7.1-2.7,14.4-5.1,21.5-7.6,1.3-.5,2.7-.7,3.5-1.9.7-.2,1.3-.3,2-.5.6.2,1,0,1.3-.5,2.2-.2,4.2-1.2,6-2.3,1.9.4,3.4-.6,5-1.3,3.3-1.3,6.6-1.9,10.1-1.9,12.8-.3,25.7-.4,38.5-1.2,7.5-.4,14.9-.4,22.4-.7,2.7-.1,4.2.8,5.2,3.3,2.1,4.9,4.4,9.8,6.7,14.7.9,1.9,1.9,3.7,2.9,5.5.4,2.8,1.5,5.3,2.6,7.9,2.2,4.8,2.2,9.7.7,14.7-1.7,5.8-4.7,10.8-8.2,15.5-1.8,2.4-4.2,4.1-6.7,5.7-7.6,4.7-15.7,7.9-24.7,9-8.6,1.1-17.2,1.8-25.9,2.2-6.7.3-13.5,1.1-20.2,1.6-1,0-2.1.2-3.1.2-7.8,0-15.6.3-23.4,0-6.1-.3-12.1-.4-18.2-1-10.1-1.1-19.1-5-26.5-12.1-6-5.9-10.1-12.9-10.8-21.4-.3-3.6.2-7.3,2.4-10.4,1.1-1.6,2.2-3.1,3.3-4.7Z"/>
        <path class="cls-13" d="M345.1,860.6c0,9.4-1.5,18.6-2.9,27.9-1.2,7.9-2.3,15.7-3.5,23.6-1.4,9.6-2.9,19.1-4.4,28.7-.5,3.1-1.7,5.9-2.7,8.8-4.6.9-9.2,1.3-13.9,1.9-9.2,1.2-18.4.7-27.6.7-8.4,0-15.6-3-21.2-9.4-3.3-3.8-5.6-8.3-6.6-13.4-1.3-6.3-1.8-12.6-2.2-19.1-1.6-23.6-.7-47.2-.8-70.8,0-5.4.7-10.7,2.2-15.9,1.3-4.5,2.7-9,4.2-13.4.8-2.3,2-4.4,3.4-6.4,3.6-5.2,8.6-7.5,14.8-6.9,8.2.7,15.2,3.9,21.3,9.7,6.9,6.6,12.2,14.2,17,22.3,5.2,8.8,10.4,17.6,16.2,26.1,1.7,2.5,3.8,4.5,6.6,5.6Z"/>
        <path class="cls-1" d="M991.6,629.8c-.6-2.1-2.5-2.8-4.1-3.8-9.5-6.4-19-12.7-28.5-19.1-2.3-1.5-4.7-3-6.9-4.6-1.6-1.2-3.5-2.3-3.5-4.8,6.2.9,12.4,1.7,18.5,2.6,8.4,1.2,16.8,2.4,25.2,3.8,12.3,2,24.7,3.6,36.5,8,4.3,1.6,8,4,11.6,6.8,7.9,6.3,13.6,14.3,19.5,22.2,1.1,1.4,2.3,2.6,3.2,4.1,1.4,2.4,3.5,3.8,5.9,4.9,7.1,3.5,10.2,9.6,11,17.1.6,5.4.1,10.7-1.5,16-.8,2.7-1.3,5.4-2.1,8-.4,1.3,0,2.4.5,3.5-.9.1-1.7.4-2,1.4-.4,1.8-1.5,3.3-2.6,4.4-2.8,2.8-5.8,5.4-8.3,8.4-6,3.8-11.7,7.9-16.9,12.9-.6.6-1.4.9-2.3,1.1-5.7,1.4-11.4,2.7-17,4.4-3.1.9-6.5,1-9.3,2.8-1.8-.9-3.2-2.4-4.3-4.1,1.6-2.5,4.1-3.7,6.9-4.1,5.3-.7,10.4-2.5,15.7-3.6,2-.4,3.8-1.4,5.4-2.9,2.8-2.5,6.1-4.6,9.1-6.9.4-.3.9-.6,1.2-1,.4-.6.5-1.5-.2-1.9-6.1-3.3-10.2-8.9-15-13.6-3.2-3.1-6.1-6.6-8.9-10.2-1.3-1.7-2.6-3.2-4-4.8-2.8-3.2-4.9-6.7-4.9-11.1,0-2,.5-3.7,2-5.1,1.9-1.9,4.1-3.3,6.2-4.7,1.5-.9,3-1.6,4-3.2.7-1.2,2.1-1.8,3.2-2.6,2.8-2.1,4-5.3,3.2-8.2-1-3.4-3.9-5.5-7.7-5.9-5.4-.6-9.9,1.5-13.9,4.8-2.1,1.7-4.5,3.2-5.1,6.3-.1.8-.8,1.5-1.4,2.2-4.1,4.2-7.8,8.8-11.4,13.5-1,1.2-2.2,2.2-3.3,3.3-.8.8-1.7,1.1-2.8,1.3-5.3.9-10.5,1.9-15.8,3-1.7.3-3-.4-4.4-1.1.3-1.9.7-3.8,2.4-5,5-.5,9.6-2.5,14.5-3.7,1.5-.4,2.7-1.4,3.7-2.7,4-5.2,8.2-10.2,12.9-14.8.4-.4.7-.7,1.1-1.1,1.2-1.4,1.2-1.9-.3-2.9-4.1-2.8-8.3-5.6-12.5-8.3-.7-.5-1.6-.6-2.4-.9Z"/>
        <path class="cls-10" d="M451.3,761.6c.3-.8.4-1.8.9-2.4,2.2-2.6,2.6-5.6,2.4-8.8,0-2.2.4-4.4.7-6.7,1.3-9.2,4.5-17.8,8.2-26.2,3.3-7.2,7.6-14,12.6-20.2,5.3-6.5,11-12.5,17.4-17.9.1-.1.3-.2.4-.4,3.3-5.4,9-7.3,14.4-9.7,1.6-.7,3.3-1.2,4.7-2.2,7.9-4.9,16.5-7.8,25.7-9.5,5.1-.9,10.1-2.4,15.1-3.5,3.8-.8,7.6-.8,11.3,0,1.2.2,2.4.3,3.6.6,1.2.3,2.3.8,3.3,1.4,3.6,2.2,3.7,12.9-1.2,14.5-2.3.7-4.5,1.9-7,1.8-5.3-.3-10.3.9-15.4,2.1-11.4,2.6-22.4,6.3-32.7,11.8-6.1,3.2-11.8,7.2-16.8,12.1-4.8,4.6-9.2,9.5-13.3,14.6-6.3,7.9-10.9,16.9-13.4,26.8-1.5,6-2.8,12.1-3.4,18.3-.3,3.5-.9,7.2-2.9,10.4-.7,1.1-1.5,1.9-2.6,2.5-3.4-.9-6.4-2.6-9-4.9-1.4-1.3-2.8-2.5-3.3-4.5Z"/>
        <path class="cls-3" d="M1018.5,729.9c2.9-1.8,6.2-1.8,9.3-2.8,5.6-1.7,11.3-3,17-4.4.9-.2,1.7-.5,2.3-1.1,5.1-4.9,10.8-9.1,16.9-12.9,2.5-3.1,5.5-5.6,8.3-8.4,1.1-1.1,2.3-2.6,2.6-4.4.2-1,1-1.3,2-1.4.2,0,.4,0,.5.2,7.5,7.1,15.1,14.1,21.7,22.1.9,1.1,1.8,2.1,2.7,3.1.9.9,1.2,2.1,1.2,3.3-12.5,11.7-23.8,24.4-33.7,38.3-1.1,1.5-2,3.5-4,3.9-2.7.5-5.4,1.3-8.3.9-1.3-.2-2-1.3-2.9-2.1-9.6-9.1-19.1-18.2-28.6-27.4-2.4-2.3-5.3-4-7.1-6.9Z"/>
        <path class="cls-12" d="M878.6,741.4c.3,0,.6,0,.9.2-.1,5.1,1,10,1.8,14.9.5,2.9.8,5.8,1.2,8.7,1,6.8,2.3,13.6,3,20.5.6,6,2.1,11.9,2.5,18,.2,3.4,1.1,6.8,1.6,10.2.5,3.4,1,6.8,1.4,10.3.4,3.4.8,6.9,1.3,10.3.9,6.5,1.9,13,2.9,19.5.9,6,2.2,11.9,2.8,17.9.5,4.8,1.7,9.5,1.4,14.5-.1,2.5-.2,5-2.8,6.2-2.9,1.3-5.9,2.2-8.9.3-2.2-1.4-3.6-3.3-3.9-5.9-.8-5.6-1.4-11.3-2.3-16.9-.8-5.5-1.8-10.9-2.7-16.3-.5-2.9-.8-5.8-1.2-8.7-1.1-7.2-2-14.4-3.1-21.5-1.3-8.2-2.2-16.4-3.4-24.6-.9-6-2-11.9-2.9-17.9-.9-6-1.5-12-2.3-18-.5-3.4-1.1-6.8-1.6-10.2-.6-4.1-1-8.2-1.5-12.3.3-.3.7-.6,1-.9,4.6.6,9.1,1.1,13.7,1.7.3,0,.7.2,1,.3Z"/>
        <path class="cls-12" d="M817.9,907.1c-.7.2-1.3.3-2,.5,0-.9-.4-1.6-1.2-2.1-2.3-1.4-3.7-3.6-4.9-5.9-4-7.3-8.2-14.5-12.3-21.7-3.7-6.5-7.2-13-10.9-19.5-3.9-6.9-7.9-13.8-11.8-20.8-1.5-2.6-2.9-5.1-4.3-7.7-.2-.4-.3-1-.5-1.5-1.4-3.2-1.3-5.9,1.5-8.5,2.8-2.7,5.9-2.7,9.1-1.5,2.9,1,4.9,3.3,6.3,5.9,2.5,4.6,4.9,9.2,7.4,13.7,4.5,8.2,8.9,16.5,13.4,24.7,3,5.6,6,11.3,9.1,17,2.5,4.7,5,9.5,7.7,14.2,1.8,3.1,2.5,6,1,9.3-.1.3,0,.7,0,1-1.9,1.2-3.8,2.1-6,2.3-.5-.1-.9,0-1.3.5Z"/>
        <path class="cls-7" d="M748.3,759.1c-3,0-5.7-1.4-8.4-2.6-8.5-3.6-16.6-7.9-23.8-13.8-3.8-3.1-7.3-6.4-10.3-10.3-2.5-3.3-5.2-6.5-7.8-9.7,4,.9,8,1.9,12.1,2.5,5.8.8,11.5,2,17.4.9,2.5-.5,5.2-.2,7.7-.2,1,5.3,2.6,10.3,5.1,15.2,2.5,4.8,4.6,9.7,6.8,14.6.5,1.1.7,2.3,1.1,3.4Z"/>
        <path class="cls-9" d="M863.9,739.5c-.3.3-.7.6-1,.9,0-.3,0-.7,0-1,.3,0,.7,0,1,.1Z"/>
        <path class="cls-13" d="M616.5,828.5c.3-.3.6-.3.9-.1-.3.4-.6.5-.9.1Z"/>
        <path class="cls-9" d="M729.7,617.2c.8-4.6,3.4-8.4,5.9-12,2-2.8,4.1-5.6,5.8-8.6,3.8-6.5,8.4-12.3,13.9-17.5,8.9-8.5,19.3-14.1,31.4-16.3,11.8-2.1,23.5-1.4,35,2,11.8,3.4,22.6,8.8,32.9,15.3,8.1,5.1,15.5,11.1,23.1,16.9,7.5,5.7,13.9,12.6,20.8,18.9,9.7,8.9,18.9,18.4,28.6,27.4,7.2,6.6,14,13.5,21.1,20.2,2.7,2.5,5.4,4.9,8.1,7.4.5.5.8,1.1,1.3,1.6-5.2,1.6-10.5,2.1-15.8,3.1-9.2,1.7-18.5,3-27.7,4.8-3.7.7-7.1.6-10.8-.4-12.1-3.3-23.8-7.6-35.5-12.1,0-1,.2-2.1,0-3.1-.7-5.5-1.4-11-2.4-16.4-.3-1.5-.7-3-.8-4.6,0-.8-.3-1.7-.7-2.4-2.1-3.4-5.5-4.9-9.3-4.1-3.7.7-7.1,4.4-6.4,7.7.6,2.7.4,5.6,1.2,8.2.8,2.8.7,5.5.6,8.3-1.2-.2-2.4-.3-3.6-.7-19.4-7-38.8-13.9-58.2-21-12.5-4.5-25.1-9.1-37.6-13.7-6.2-2.3-12.3-4.7-18.4-7.2-1-.4-1.8-1-2.7-1.5Z"/>
        <path class="cls-4" d="M658.2,629.8c.3,1.2.8,2.3.9,3.5.2,1.7.3,3.4-.7,5-2.9,4.8-4.4,10.2-5.2,15.6-.5,2.9-.2,5.9-.2,8.8,0,12.7,3.6,24.1,10.4,34.8,4.1,6.5,9.5,11.4,16.5,14.6,1.4.6,2.8,1.4,4,2.4,1.8,1.5,1.9,3.7.4,5.5-2.1,2.7-3.3,3-6.8,1.9-4.8-1.4-8.9-3.9-12.3-7.4-3.4-3.5-7.1-6.6-9.8-10.7-5.9-8.6-9.3-18.2-11.5-28.2-1.2-5.7-2-11.6-1.3-17.5,1-8.1,2.6-16,6.3-23.4,1.7-3.4,4-5.1,7.7-4.9.5,0,1,0,1.6,0,0,0,0,0,0,0Z"/>
        <path class="cls-6" d="M850.2,661.3c.1-2.8.2-5.5-.6-8.3-.8-2.6-.5-5.5-1.2-8.2-.7-3.3,2.7-7,6.4-7.7,3.9-.8,7.3.7,9.3,4.1.4.7.7,1.6.7,2.4.1,1.6.5,3.1.8,4.6.9,5.4,1.6,10.9,2.4,16.4.1,1,0,2.1,0,3.1-6.1-1.7-12.2-3.5-17.8-6.5Z"/>
        <path class="cls-2" d="M590.2,667.3c0-.3-.3-.7-.2-.9,1-1.1,1.9-2.3,3.4-2.8-.2,2.7-.5,3-3.2,3.7Z"/>
        <path class="cls-2" d="M588.2,668.3c.5-.8.7-2,2.1-1.1-.2,1.2-1,1.8-2.1,2.2,0-.4,0-.7,0-1.1Z"/>
        <path class="cls-14" d="M588.2,668.3c0,.4,0,.7,0,1.1-.4,0-.7,0-1.1,0,0-.6.4-1,1.1-1.1Z"/>
        <path class="cls-14" d="M586.1,670.5c.1-.6.5-1,1.1-1.1-.4.4-.7.8-1.1,1.1Z"/>
        <path class="cls-14" d="M585,671.6c0-.7.5-1,1.1-1.1-.4.4-.8.8-1.1,1.1Z"/>
        <path class="cls-14" d="M583.5,672.6c.4-.6.9-1,1.6-1.1-.5.4-1.1.8-1.6,1.1Z"/>
        <path class="cls-9" d="M878.6,741.4c-.3,0-.7-.2-1-.3.5-.4.8-.1,1,.3Z"/>
        <path class="cls-3" d="M991.6,629.8c.8.3,1.7.4,2.4.9,4.2,2.7,8.4,5.5,12.5,8.3,1.5,1,1.5,1.5.3,2.9-.3.4-.7.8-1.1,1.1-4.7,4.6-8.8,9.7-12.9,14.8-1,1.3-2.2,2.3-3.7,2.7-4.9,1.2-9.5,3.2-14.5,3.7,0-1.4.9-2.6,1.5-3.8,5.5-10,10.5-20.3,15.5-30.6Z"/>
        <path class="cls-5" d="M817.9,907.1c.3-.4.7-.6,1.3-.5-.3.5-.7.7-1.3.5Z"/>
      </g>
    </g>
  </g>
</svg>