<svg width="500" height="500" viewBox="0 0 500 500" fill="none" xmlns="http://www.w3.org/2000/svg">
<path d="M228.526 342.885C232.202 342.398 235.834 341.91 239.51 341.423C240.617 341.29 241.592 341.423 242.566 342.043C247.881 345.41 253.639 347.713 259.707 349.307C264.269 350.503 268.654 352.098 273.305 353.072C279.019 354.268 284.732 355.597 290.49 356.66C295.805 357.634 301.165 358.21 306.524 358.564C314.984 359.14 323.488 359.096 331.948 358.919C337.883 358.786 343.774 358.343 349.709 357.723C354.138 357.236 358.611 357.014 363.085 356.66C368.843 356.217 374.601 355.818 380.359 355.42C383.415 355.198 386.515 355.021 389.572 354.755C393.868 354.401 398.164 354.046 402.461 353.692C405.384 353.426 408.307 353.205 411.186 352.939C413.179 352.762 415.172 352.496 417.033 351.743C416.59 350.459 416.058 349.174 415.837 347.846C415.172 343.594 414.508 339.386 413.888 335.134C413.356 331.635 412.869 328.18 412.338 324.681C411.718 320.606 411.053 316.487 411.053 312.323C409.902 311.659 408.662 311.393 407.288 311.393C403.435 311.305 399.626 310.729 395.817 310.286C391.299 309.754 386.826 309.179 382.308 308.647C377.568 308.071 372.829 307.496 368.134 306.964C364.547 306.565 360.959 306.078 357.327 306.034C355.865 306.034 354.404 305.768 352.986 305.591C350.55 305.281 348.114 304.927 345.678 304.705C343.907 304.572 342.179 304.395 340.407 304.085C340.097 304.041 339.876 303.819 339.787 303.509C338.459 304.572 336.908 305.237 335.402 305.99C331.549 308.027 327.341 309.046 323.045 309.4C319.147 309.71 315.25 309.799 311.308 309.046C306.79 308.204 302.582 306.654 298.817 303.996C298.241 303.598 297.666 303.199 297.311 302.579C297.09 302.491 296.824 302.491 296.691 302.358C295.407 301.295 293.989 300.453 292.926 299.124C292.572 298.681 292.218 298.371 291.686 298.15C291.376 298.15 291.11 298.061 290.8 298.061C290.623 298.238 290.49 298.194 290.402 298.017C284.644 297.441 278.93 296.91 273.172 296.378C268.876 295.98 264.624 295.67 260.372 294.872C257.67 294.385 254.879 294.164 252.133 293.854C245.888 293.145 239.599 292.569 233.309 291.949C232.468 291.86 231.626 291.816 230.785 291.86C227.684 292.038 224.717 291.329 221.705 290.93C221.616 290.266 221.882 289.867 222.059 289.469C225.159 282.692 228.216 275.871 231.316 269.094C231.582 268.474 231.848 267.81 232.379 267.323C232.556 266.791 232.645 266.26 232.866 265.817C233.841 263.646 234.815 261.476 235.878 259.35C236.985 257.224 237.694 254.965 238.137 252.618C236.41 251.998 234.682 252.042 232.911 252.352C231.095 252.662 229.234 252.795 227.418 253.016C225.381 253.282 223.299 253.504 221.262 253.769C218.206 254.124 215.149 254.522 212.093 254.877C210.277 255.098 208.417 255.275 206.601 255.497C202.172 256.028 197.743 256.604 193.358 257.18C189.46 257.667 185.562 258.11 181.709 258.597C181.709 258.73 181.709 258.907 181.709 259.04C181.488 260.856 181.31 262.672 181.045 264.488C180.823 265.994 180.557 267.5 180.336 269.006C179.982 271.663 179.716 274.321 179.317 276.978C178.919 279.636 178.431 282.249 178.033 284.907C177.501 288.539 177.147 292.215 176.527 295.802C175.995 298.991 175.597 302.18 175.154 305.325C174.977 306.61 174.844 307.894 174.622 309.179C174.224 311.57 173.781 314.006 173.426 316.398C173.072 318.879 172.806 321.403 172.408 323.884C172.23 324.991 171.655 325.877 170.68 326.497C169.307 327.338 167.978 326.94 166.738 326.364C165.587 325.832 165.542 324.725 165.498 323.618C165.365 321.448 165.941 319.366 166.118 317.196C166.384 314.538 166.96 311.925 167.358 309.267C167.801 306.388 168.244 303.509 168.643 300.63C168.864 299.124 168.997 297.574 169.219 296.068C169.396 294.562 169.617 293.056 169.839 291.506C170.06 290 170.459 288.494 170.547 286.988C170.725 284.286 171.345 281.718 171.655 279.016C171.965 276.004 172.585 272.992 172.983 269.936C173.161 268.651 173.293 267.367 173.515 266.082C173.869 263.912 174.356 261.742 174.312 259.483C173.559 259.483 172.762 259.483 172.009 259.572C169.396 259.837 166.827 260.147 164.214 260.369C163.239 260.457 162.176 260.457 161.246 260.28C159.209 259.882 157.171 259.572 155.134 259.261C151.059 258.597 146.984 257.756 142.909 257.047C134.095 255.452 125.237 253.858 116.422 252.263C115.758 252.13 115.227 252.263 114.651 252.529C114.164 253.282 113.588 253.902 112.746 254.345C111.949 255.63 110.664 256.382 109.601 257.401C105.394 261.476 101.186 265.507 96.9339 269.537C96.5353 269.892 96.2252 270.379 95.6494 270.467C94.4093 270.645 93.2134 270.29 91.9732 270.069C91.0874 269.892 90.6888 269.05 90.2016 268.341C85.8166 262.185 80.8116 256.56 75.2751 251.377C74.5664 251.156 74.1235 251.643 73.6806 252.086C70.5359 255.054 67.7011 258.287 65.1322 261.786C58.3555 271.087 53.8378 281.363 51.8889 292.746C49.8958 304.262 50.7816 315.468 55.4323 326.275C59.5957 335.931 66.1952 343.461 75.2751 348.776C76.1166 349.263 76.9582 349.839 77.7998 350.415C78.8628 351.168 80.0143 351.788 81.2988 352.098C83.7792 352.718 86.2153 353.382 88.6956 353.958C93.9664 355.198 99.2371 354.932 104.552 354.268C106.058 354.091 107.52 353.515 109.026 353.072C111.86 352.275 114.651 351.522 117.618 351.345C119.301 351.256 120.94 350.813 122.535 350.193C127.717 348.156 133.209 347.137 138.613 345.985C140.429 345.587 142.245 345.188 144.061 344.878C146.895 344.347 149.553 343.328 152.166 342.221C154.159 341.379 156.152 340.582 158.146 339.784C158.588 338.987 159.031 338.19 159.43 337.348C160.449 335.178 161.467 333.052 162.398 330.837C162.841 329.774 163.549 329.332 164.701 329.376C168.023 329.509 171.3 329.509 174.622 329.686C180.292 330.04 186.005 330.084 191.675 330.217C193.225 330.217 194.731 330.483 196.148 331.059C196.857 331.369 197.521 331.768 198.363 331.635C198.363 331.502 198.363 331.325 198.363 331.192C197.698 329.73 198.008 328.401 198.806 327.073C200.002 325.035 201.065 322.909 202.216 320.783C203.545 318.259 204.874 315.778 206.247 313.254C208.196 309.622 210.189 305.945 212.182 302.313C213.289 300.276 214.352 298.239 215.459 296.245C216.124 295.094 216.965 294.075 218.25 293.632C219.667 293.101 221.04 293.101 222.28 294.296C223.476 295.448 223.565 296.644 222.945 298.061C222.856 298.283 222.812 298.504 222.723 298.726C222.103 299.877 221.439 300.985 220.819 302.136C219.091 305.192 217.32 308.249 215.592 311.349C213.954 314.228 212.403 317.107 210.765 319.986C208.949 323.175 207.088 326.364 205.317 329.597C204.741 330.616 204.165 331.59 203.146 332.211C202.792 332.432 202.615 332.742 202.615 333.141C202.969 333.716 203.634 333.805 204.165 333.982C207.354 335.134 210.543 336.153 213.688 337.348C218.649 339.209 223.742 340.67 228.526 342.929V342.885Z" fill="#696D65"/>
<path d="M181.842 258.597C185.739 258.109 189.637 257.666 193.49 257.179C197.92 256.648 202.349 256.072 206.734 255.496C208.55 255.275 210.41 255.097 212.226 254.876C215.282 254.522 218.338 254.167 221.394 253.769C223.432 253.503 225.514 253.281 227.551 253.016C229.367 252.794 231.227 252.661 233.043 252.351C234.815 252.041 236.542 251.997 238.27 252.617C239.421 252.617 240.573 252.528 241.68 252.706C244.293 253.193 246.862 252.706 249.387 252.307C251.203 252.041 252.975 251.554 254.746 251.2C255.632 250.535 256.695 250.314 257.67 249.871C257.847 249.782 258.157 249.871 258.29 249.96C258.467 250.092 258.467 250.358 258.29 250.58C257.935 251.111 257.625 251.598 257.271 252.13C256.164 253.813 255.189 255.54 254.702 257.534C253.639 261.608 254.392 265.285 257.138 268.518C257.758 269.271 258.511 269.98 259.22 270.688C260.637 272.106 261.877 273.7 263.029 275.339C264.491 277.421 264.978 279.68 264.003 282.116C263.605 283.134 263.206 284.109 262.852 285.127C262.453 286.19 262.055 287.298 262.187 288.494C262.276 289.645 262.763 290.575 263.826 291.107C264.358 291.373 264.934 291.727 265.509 291.816C266.927 292.037 268.344 292.436 269.85 292.391C272.995 292.347 276.184 292.303 279.329 292.391C283.448 292.524 287.168 293.897 290.402 296.422C290.977 296.865 291.686 297.308 291.775 298.194C292.262 298.415 292.66 298.725 293.015 299.168C294.033 300.497 295.495 301.338 296.78 302.401C296.957 302.534 297.178 302.534 297.4 302.623C297.843 301.471 298.241 300.275 298.33 299.079C298.684 294.783 299.304 290.487 299.26 286.19C299.26 284.507 299.304 282.78 299.304 281.097C299.304 280.078 299.393 279.059 299.747 278.129C300.722 275.605 301.785 273.124 303.379 270.91C303.955 270.068 304.619 269.36 305.417 268.695C307.277 267.189 309.093 265.639 310.909 264.089C312.06 263.07 313.212 262.051 314.098 260.767C315.161 259.172 315.648 257.401 315.382 255.496C315.028 253.193 314.585 250.934 313.743 248.764C311.662 243.271 309.89 237.691 307.631 232.287C307.498 231.933 307.277 231.578 307.233 231.224C307.144 230.072 306.48 229.452 305.505 229.009C305.284 228.832 305.018 228.655 304.796 228.522H304.841C304.664 228.345 304.486 228.168 304.354 228.035C304.176 227.902 304.043 227.725 303.866 227.592C303.689 227.592 303.556 227.592 303.379 227.592C302.892 227.415 302.538 227.149 302.449 226.618C301.209 226.352 301.12 226.219 301.032 225.023C301.12 224.669 300.899 224.536 300.633 224.447C299.836 224.58 299.127 224.447 298.507 223.872C295.761 221.568 292.97 219.265 290.18 217.006C287.301 214.703 284.599 212.223 281.942 209.654C278.487 206.376 274.899 203.276 271.4 200.087C271.312 199.998 271.134 199.954 271.002 199.865C271.09 200.397 271.179 200.928 271.312 201.415C271.932 204.25 272.552 207.085 272.419 210.008C272.64 210.008 272.862 210.008 273.128 210.008C274.811 209.92 275.829 210.672 276.538 212.178C278.177 215.456 278.886 218.955 279.329 222.543C279.639 225.156 279.329 227.814 278.753 230.294C277.778 234.723 276.272 238.975 273.659 242.784C272.419 244.6 270.78 245.973 269.319 247.524C267.813 249.118 265.952 250.181 263.871 250.801C262.32 251.244 261.789 251.155 260.859 249.96C260.194 249.162 260.239 248.188 261.036 247.524C261.567 247.081 262.187 246.771 262.808 246.46C265.908 245.043 268.3 242.917 270.116 239.994C273.128 235.255 274.722 230.161 274.722 224.58C274.722 223.251 274.855 221.923 274.634 220.683C274.235 218.246 273.615 215.899 272.33 213.773C271.887 213.064 271.932 212.311 272.02 211.558C272.065 211.027 272.286 210.54 272.419 210.008C272.109 209.787 271.799 209.61 271.489 209.344C269.761 207.926 268.078 206.465 266.129 205.402C260.416 202.346 254.392 201.726 248.103 202.7C245.622 203.099 243.186 203.719 240.75 204.383C240.351 204.604 239.997 204.87 239.554 205.047C236.852 206.11 234.151 207.218 231.404 208.236C225.868 210.274 220.287 212.311 214.751 214.304C206.158 217.405 197.565 220.505 188.973 223.606C188.485 223.783 187.91 223.827 187.378 223.916C184.898 225.245 182.196 226.042 179.494 226.795C174.312 228.788 169.13 230.737 163.771 232.154C162.176 232.597 160.626 232.641 158.987 232.331C154.912 231.578 150.793 230.958 146.718 230.205C144.371 229.762 141.979 229.541 139.72 228.832C137.992 228.522 136.265 228.212 134.538 227.946C134.051 227.858 133.696 227.636 133.298 227.371C132.677 227.681 132.102 227.991 131.349 227.858C129.046 227.415 126.698 226.972 124.351 226.529C123.863 226.44 123.465 226.263 123.11 225.953C122.623 225.466 122.092 225.023 121.649 224.492C120.054 222.41 118.415 220.417 116.599 218.512C116.334 218.246 116.024 217.892 115.979 217.538C115.714 216.165 114.651 215.5 113.72 214.747C111.949 213.286 109.956 212.4 107.564 212.621C105.881 212.799 104.596 213.729 104.153 215.235C103.799 216.519 104.286 217.936 105.571 218.867C106.058 219.221 106.678 219.487 106.988 220.018C107.387 220.727 108.095 221.037 108.76 221.435C109.734 222.056 110.709 222.676 111.506 223.517C112.17 224.182 112.392 224.89 112.392 225.776C112.392 227.769 111.462 229.319 110.221 230.693C109.601 231.401 109.025 232.066 108.45 232.819C107.21 234.413 105.925 235.919 104.508 237.336C102.382 239.418 100.566 241.854 97.8639 243.36C97.5538 243.537 97.5981 243.936 97.7753 244.202C97.9082 244.379 98.0853 244.512 98.3068 244.645C99.6799 245.663 101.097 246.593 102.337 247.701C103.046 248.365 103.843 248.808 104.729 248.985C107.032 249.472 109.291 250.27 111.683 250.58C112.923 250.757 113.986 251.288 114.739 252.396C115.315 252.086 115.846 251.997 116.511 252.13C125.325 253.724 134.183 255.319 142.998 256.913C147.072 257.666 151.147 258.464 155.222 259.128C157.26 259.482 159.297 259.792 161.334 260.147C162.309 260.324 163.328 260.324 164.302 260.235C166.915 260.014 169.484 259.66 172.097 259.438C172.85 259.349 173.648 259.394 174.401 259.349C174.533 259.261 174.666 259.261 174.799 259.261C174.932 259.084 175.065 258.995 175.242 259.128C177.28 258.862 179.273 258.641 181.31 258.375C181.443 258.375 181.62 258.375 181.753 258.331L181.842 258.597Z" fill="#FFB68A"/>
<path d="M305.549 229.009C306.524 229.407 307.188 230.072 307.277 231.223C307.277 231.577 307.498 231.932 307.675 232.286C309.934 237.69 311.706 243.271 313.787 248.763C314.629 250.933 315.072 253.192 315.426 255.495C315.736 257.4 315.205 259.171 314.142 260.766C313.3 262.05 312.149 263.113 310.953 264.088C309.137 265.638 307.321 267.188 305.461 268.694C304.663 269.314 303.999 270.067 303.423 270.909C301.873 273.123 300.81 275.604 299.791 278.128C299.437 279.059 299.348 280.077 299.348 281.096C299.348 282.779 299.26 284.506 299.304 286.19C299.304 290.53 298.728 294.782 298.374 299.079C298.285 300.319 297.887 301.47 297.444 302.622C297.798 303.242 298.374 303.641 298.95 304.039C302.714 306.653 306.922 308.203 311.44 309.089C315.338 309.842 319.28 309.753 323.177 309.443C327.429 309.089 331.637 308.07 335.535 306.032C337.041 305.235 338.591 304.615 339.92 303.552C343.463 301.426 346.254 298.458 348.734 295.225C352.72 290.087 355.245 284.285 356.662 277.996C357.105 276.091 357.592 274.275 358.744 272.681C358.257 272.415 357.902 272.06 357.592 271.573C356.662 270.156 356.441 268.517 356.308 266.967C356.042 264.221 355.466 261.519 354.802 258.861C353.695 254.476 351.657 250.534 348.867 246.991C347.051 244.732 345.102 242.562 342.976 240.524C340.761 238.354 338.237 236.627 335.535 235.165C330.973 232.773 326.101 231.09 321.051 229.939C318.792 229.451 316.578 228.876 314.23 229.009C313.123 229.097 312.149 228.566 311.13 228.211C308.96 227.547 309.004 222.763 310.598 221.789C311.041 221.523 311.573 221.302 312.06 221.169C312.592 221.036 313.123 220.992 313.655 220.903C315.338 220.549 317.021 220.549 318.66 220.903C320.919 221.39 323.133 222.055 325.348 222.453C329.378 223.206 333.232 224.446 336.731 226.661C337.395 227.06 338.104 227.325 338.813 227.635C341.204 228.698 343.729 229.54 345.191 231.932C345.191 231.976 345.279 232.065 345.368 232.109C348.202 234.501 350.727 237.158 353.075 240.037C355.333 242.783 357.238 245.795 358.655 248.984C360.338 252.66 361.712 256.514 362.287 260.589C362.42 261.563 362.642 262.538 362.597 263.556C362.553 264.974 362.686 266.302 363.66 267.454C363.882 267.72 363.926 268.163 364.059 268.517C365.742 267.055 367.204 265.372 368.488 263.512C370.348 260.722 371.234 257.71 371.367 254.388C371.544 250.313 370.659 246.46 369.241 242.65C367.957 239.151 366.141 235.962 364.015 232.906C361.623 229.451 358.744 226.528 355.643 223.738C354.536 222.763 353.296 222.01 352.012 221.302C340.717 215.101 328.714 210.937 315.958 208.856C310.111 207.881 304.176 207.571 298.241 207.881C297.709 207.881 297.134 208.014 296.646 207.881C295.672 207.704 295.052 208.103 294.432 208.767C292.926 210.45 292.394 212.266 293.103 214.525C293.989 217.493 295.893 219.796 298.02 221.922C298.905 222.808 299.791 223.605 300.677 224.446C300.943 224.535 301.164 224.668 301.076 225.022C301.74 225.244 302.139 225.775 302.582 226.262C302.626 226.307 302.537 226.528 302.493 226.661C303.113 226.262 303.202 226.794 303.423 227.148C303.689 227.193 303.866 227.37 303.91 227.635C304.22 227.635 304.353 227.857 304.398 228.123C304.708 228.167 304.84 228.344 304.885 228.61H304.841C305.151 228.61 305.372 228.876 305.549 229.097V229.009Z" fill="#824414"/>
<path d="M272.463 210.052C272.596 207.129 271.976 204.294 271.356 201.46C271.223 200.928 271.179 200.397 271.046 199.909C270.78 199.245 270.514 198.625 270.293 197.961C269.274 194.284 267.237 191.273 264.579 188.615C259.131 183.123 252.62 179.181 245.445 176.346C243.009 175.372 240.573 174.442 238.048 173.733C234.328 172.714 230.563 171.873 226.754 171.297C222.635 170.677 218.471 170.721 214.308 170.677C213.865 170.677 213.378 170.677 212.935 170.677C209.436 170.544 206.025 170.898 202.57 171.341C197.92 171.917 193.269 172.67 188.707 173.821C182.418 175.372 176.35 177.586 170.414 180.2C168.953 180.864 167.491 181.528 165.985 182.193C161.866 183.964 158.145 186.445 154.336 188.792C151.413 190.652 148.49 192.557 145.611 194.417C144.946 194.816 144.371 195.303 143.751 195.746C143.751 196.853 142.953 197.341 142.2 197.872C141.226 198.581 140.163 199.245 139.144 199.909C134.936 202.7 130.729 205.535 126.521 208.369C125.857 208.812 124.971 209.122 124.705 210.052C126.92 214.614 129.134 219.177 131.57 223.606C131.88 224.137 132.235 224.669 132.235 225.289C132.988 225.82 133.165 226.662 133.298 227.503C133.652 227.769 134.051 227.991 134.538 228.079C136.265 228.345 137.993 228.655 139.72 228.965C139.897 228.699 140.074 228.434 140.296 228.256C141.492 227.149 142.688 226.086 143.883 224.979C147.028 222.011 150.04 218.955 153.229 216.032C157.525 212.09 161.6 207.882 165.897 203.896C168.953 201.105 171.787 198.049 175.109 195.525C178.476 192.956 181.797 190.342 185.341 188.039C189.903 185.116 194.731 182.768 199.913 181.263C205.006 179.757 210.189 179.447 215.415 180.377C220.819 181.351 225.381 183.831 229.323 187.596C231.715 189.899 233.796 192.468 235.479 195.347C236.232 196.676 237.163 197.916 238.048 199.157C239.2 200.795 240.307 202.434 240.662 204.472C243.098 203.807 245.534 203.187 248.014 202.788C254.304 201.814 260.372 202.39 266.041 205.49C268.034 206.553 269.673 208.015 271.4 209.432C271.71 209.654 272.02 209.875 272.33 210.097L272.463 210.052Z" fill="#8A89DD"/>
<path d="M228.525 342.883C223.742 340.58 218.648 339.163 213.688 337.303C210.543 336.107 207.309 335.044 204.165 333.936C203.589 333.715 202.969 333.626 202.614 333.095C202.304 333.006 202.039 332.962 201.729 332.873C201.463 332.962 201.286 332.873 201.153 332.652C200.178 332.563 199.293 332.12 198.495 331.633C197.654 331.81 196.989 331.368 196.281 331.057C194.819 330.482 193.357 330.216 191.807 330.216C186.138 330.083 180.424 330.039 174.755 329.684C171.433 329.507 168.155 329.507 164.833 329.374C163.637 329.33 162.973 329.729 162.53 330.836C161.6 333.006 160.581 335.177 159.563 337.347C159.164 338.189 158.721 338.986 158.278 339.783C158.101 341.023 157.614 342.13 157.127 343.282C156.152 345.408 156.152 347.578 156.816 349.793C157.569 352.362 158.898 354.577 160.448 356.658C161.246 357.721 162.309 358.474 163.416 359.183C166.782 361.265 170.37 362.682 174.356 363.169C178.165 363.656 181.974 363.966 185.828 364.144C188.795 364.277 191.807 364.631 194.775 364.852C195.218 364.852 195.705 364.941 196.148 364.941C199.603 364.941 203.057 365.074 206.512 364.941C209.214 364.808 211.872 364.764 214.573 364.498C219.047 364.011 223.033 362.283 226.311 359.139C228.968 356.525 230.784 353.425 231.094 349.66C231.227 348.066 231.006 346.427 230.031 345.054C229.544 344.345 229.057 343.681 228.57 342.972L228.525 342.883Z" fill="#FFB68A"/>
<path d="M411.142 312.279C411.142 316.442 411.806 320.517 412.426 324.636C412.958 328.135 413.445 331.59 413.976 335.089C414.596 339.341 415.261 343.549 415.925 347.801C416.147 349.174 416.678 350.414 417.121 351.699C419.159 352.097 421.196 352.274 423.278 352.54C427.353 353.072 431.427 352.85 435.502 352.85C439.223 352.85 442.412 351.521 444.892 348.687C446.354 347.004 447.373 345.011 447.816 342.752C448.391 339.961 448.613 337.171 448.79 334.292C449.499 323.839 449.1 313.386 449.144 302.933C449.144 300.541 448.834 298.194 448.17 295.891C447.594 293.897 446.974 291.904 446.31 289.956C445.955 288.937 445.424 288.007 444.804 287.121C443.209 284.818 440.995 283.799 438.248 284.065C434.617 284.375 431.516 285.792 428.814 288.361C425.758 291.284 423.411 294.65 421.285 298.238C418.981 302.136 416.678 306.034 414.109 309.798C413.356 310.906 412.426 311.791 411.186 312.279H411.142Z" fill="#FFB68A"/>
<path d="M124.794 210.052C125.059 209.122 125.901 208.812 126.609 208.369C130.817 205.535 135.025 202.744 139.233 199.91C140.251 199.245 141.314 198.581 142.289 197.872C142.998 197.341 143.839 196.853 143.839 195.746C141.093 196.145 138.347 196.499 135.645 196.898C131.925 197.429 128.204 197.961 124.483 198.581C119.036 199.467 113.543 200.175 108.317 202.124C106.412 202.833 104.773 203.896 103.179 205.136C99.6799 207.926 97.1552 211.47 94.542 214.969C94.0548 215.589 93.5233 216.12 93.1247 216.785C92.5046 217.848 91.5745 218.468 90.5114 218.955C87.3667 220.505 85.9937 223.207 85.6393 226.529C85.3736 228.921 85.595 231.268 86.3037 233.616C86.658 234.812 86.8795 236.008 87.2338 237.159C87.411 237.735 87.2338 238.222 87.0124 238.709C87.411 238.754 87.7653 238.887 87.8982 239.33C88.0754 240.127 88.5626 240.791 89.0498 241.278C90.29 242.519 91.6187 243.67 92.7261 244.999C95.3836 246.682 97.9082 248.498 100.211 250.713C100.477 250.978 100.831 251.111 101.23 251.2C103.755 251.82 106.279 252.396 108.76 253.149C110.133 253.547 111.639 253.592 112.879 254.389C113.676 253.99 114.296 253.326 114.783 252.573C114.075 251.466 112.968 250.934 111.727 250.757C109.38 250.447 107.121 249.65 104.773 249.162C103.888 248.985 103.09 248.542 102.382 247.878C101.142 246.771 99.6799 245.84 98.3511 244.822C98.174 244.689 97.9525 244.556 97.8196 244.379C97.6425 244.113 97.5982 243.714 97.9082 243.537C100.61 242.076 102.426 239.595 104.552 237.514C105.969 236.14 107.254 234.59 108.494 232.996C109.07 232.243 109.646 231.578 110.266 230.87C111.506 229.452 112.436 227.902 112.436 225.953C112.436 225.067 112.215 224.314 111.55 223.694C110.709 222.853 109.734 222.233 108.804 221.613C108.14 221.214 107.475 220.904 107.032 220.195C106.722 219.664 106.102 219.398 105.615 219.044C104.375 218.114 103.843 216.696 104.198 215.412C104.641 213.906 105.925 212.976 107.608 212.799C110 212.533 111.993 213.463 113.765 214.925C114.695 215.678 115.758 216.342 116.024 217.715C116.068 218.069 116.378 218.379 116.644 218.689C118.46 220.55 120.099 222.587 121.693 224.669C122.136 225.2 122.667 225.643 123.155 226.13C123.509 226.485 123.908 226.618 124.395 226.706C126.742 227.105 129.046 227.548 131.393 228.035C132.146 228.168 132.722 227.858 133.342 227.548C133.209 226.706 133.032 225.865 132.279 225.333C130.064 225.112 128.027 224.226 125.857 223.694C125.192 223.517 124.661 223.074 124.218 222.499C122.446 220.195 120.586 217.981 118.504 215.943C118.327 215.766 118.194 215.633 118.017 215.456C117.485 214.836 117.485 214.615 118.15 214.172C119.966 212.931 121.826 211.691 123.686 210.495C123.996 210.274 124.395 210.23 124.749 210.097L124.794 210.052Z" fill="#E6A47C"/>
<path d="M364.104 268.431C363.971 268.076 363.927 267.633 363.705 267.368C362.731 266.216 362.553 264.887 362.642 263.47C362.642 262.495 362.465 261.521 362.332 260.502C361.756 256.427 360.339 252.618 358.7 248.898C357.238 245.709 355.334 242.697 353.119 239.951C350.772 237.072 348.247 234.414 345.412 232.022C345.368 231.978 345.28 231.934 345.235 231.845C343.774 229.453 341.249 228.612 338.857 227.549C338.149 227.239 337.396 227.017 336.775 226.575C333.276 224.404 329.467 223.12 325.392 222.367C323.134 221.968 320.919 221.304 318.704 220.817C317.021 220.462 315.338 220.462 313.699 220.817C313.168 220.905 312.636 220.949 312.105 221.082C311.573 221.215 311.086 221.437 310.643 221.702C309.049 222.677 309.004 227.416 311.175 228.125C312.193 228.435 313.168 228.966 314.275 228.922C316.623 228.789 318.837 229.321 321.096 229.852C326.145 231.004 331.018 232.643 335.58 235.079C338.281 236.496 340.806 238.268 343.021 240.438C345.147 242.475 347.096 244.646 348.912 246.905C351.702 250.404 353.739 254.39 354.847 258.775C355.511 261.432 356.087 264.134 356.353 266.88C356.485 268.431 356.751 270.069 357.637 271.487C357.947 271.974 358.301 272.328 358.789 272.594C360.295 272.195 361.623 271.442 362.775 270.424C363.395 269.848 364.015 269.316 364.237 268.431H364.104Z" fill="#5D3818"/>
<path d="M112.879 254.388C111.594 253.591 110.133 253.591 108.76 253.148C106.279 252.395 103.755 251.819 101.23 251.199C100.831 251.111 100.477 250.978 100.211 250.712C97.9524 248.542 95.4277 246.682 92.7259 244.998C91.6186 243.625 90.2898 242.518 89.0497 241.278C88.5624 240.791 88.031 240.126 87.8981 239.329C87.8095 238.886 87.4552 238.753 87.0122 238.709C86.9237 238.709 86.8351 238.709 86.7908 238.798C83.4689 241.942 80.1027 245.043 77.1794 248.586C76.7808 249.073 76.3821 249.516 75.9835 249.959C75.5849 250.358 75.452 250.889 75.452 251.421C80.9885 256.603 85.9935 262.228 90.3784 268.385C90.8656 269.049 91.2643 269.935 92.1501 270.112C93.346 270.334 94.5419 270.688 95.8264 270.511C96.4022 270.422 96.7122 269.935 97.1108 269.581C101.363 265.55 105.571 261.519 109.778 257.445C110.841 256.426 112.126 255.673 112.923 254.388H112.879Z" fill="#FFB58A"/>
<path d="M174.843 259.481C174.711 259.481 174.578 259.481 174.445 259.57C174.489 261.829 174.002 263.999 173.648 266.17C173.426 267.454 173.293 268.739 173.116 270.023C172.673 273.035 172.097 276.047 171.787 279.103C171.521 281.76 170.857 284.374 170.68 287.075C170.591 288.581 170.193 290.087 169.971 291.593C169.75 293.099 169.528 294.605 169.351 296.155C169.174 297.661 168.997 299.211 168.775 300.717C168.377 303.596 167.934 306.475 167.491 309.354C167.092 312.012 166.516 314.625 166.251 317.283C166.029 319.409 165.498 321.49 165.631 323.705C165.675 324.812 165.719 325.92 166.871 326.451C168.155 327.027 169.484 327.426 170.813 326.584C171.787 325.964 172.407 325.122 172.54 323.971C172.895 321.49 173.16 318.966 173.559 316.485C173.913 314.049 174.356 311.658 174.755 309.266C174.976 307.981 175.109 306.697 175.286 305.412C175.774 302.223 176.172 299.034 176.659 295.89C177.235 292.258 177.634 288.626 178.165 284.994C178.564 282.336 179.051 279.723 179.45 277.065C179.848 274.408 180.114 271.75 180.468 269.093C180.69 267.587 180.956 266.081 181.177 264.575C181.443 262.759 181.62 260.943 181.842 259.127C181.709 258.994 181.532 258.861 181.399 258.729C179.361 258.994 177.368 259.216 175.331 259.481C175.198 259.481 175.021 259.57 174.888 259.614L174.843 259.481Z" fill="#494A45"/>
<path d="M201.729 332.873C202.039 332.962 202.305 333.006 202.615 333.095C202.615 332.696 202.792 332.386 203.146 332.165C204.165 331.545 204.785 330.57 205.317 329.551C207.088 326.318 208.949 323.129 210.765 319.94C212.403 317.061 213.954 314.182 215.593 311.303C217.32 308.247 219.092 305.191 220.819 302.09C221.483 300.939 222.103 299.831 222.724 298.68C222.812 298.503 222.856 298.237 222.945 298.015C223.565 296.598 223.521 295.402 222.281 294.251C221.04 293.055 219.667 293.055 218.25 293.586C216.966 294.029 216.08 295.048 215.46 296.199C214.352 298.237 213.289 300.274 212.182 302.267C210.189 305.899 208.24 309.576 206.247 313.208C204.918 315.688 203.589 318.213 202.216 320.737C201.109 322.819 200.002 324.945 198.806 327.027C198.009 328.4 197.699 329.684 198.363 331.146C198.407 331.279 198.363 331.456 198.363 331.589C199.204 332.12 200.046 332.519 201.02 332.608C201.242 332.563 201.419 332.608 201.596 332.829L201.729 332.873Z" fill="#494A45"/>
<path d="M232.556 267.322C233.885 267.322 235.081 266.701 236.277 266.17C240.041 264.575 243.629 262.671 246.818 260.058C248.501 258.685 250.051 257.223 251.38 255.496C252.487 254.034 253.683 252.617 254.835 251.199C253.063 251.598 251.292 252.041 249.476 252.307C246.907 252.661 244.382 253.192 241.769 252.705C240.661 252.484 239.466 252.617 238.358 252.617C237.915 254.964 237.207 257.179 236.099 259.349C234.992 261.475 234.062 263.645 233.088 265.816C232.866 266.303 232.778 266.834 232.6 267.322H232.556Z" fill="#8B8BDD"/>
<path d="M181.354 258.642C181.487 258.775 181.664 258.908 181.797 259.041C181.797 258.908 181.797 258.731 181.797 258.598C181.664 258.598 181.487 258.598 181.354 258.642Z" fill="#6B6D66"/>
<path d="M290.933 298.059C290.8 297.926 290.667 297.926 290.534 298.015C290.667 298.192 290.8 298.236 290.933 298.059Z" fill="#FFB68A"/>
<path d="M240.794 204.472C240.44 202.435 239.289 200.751 238.181 199.157C237.295 197.917 236.365 196.677 235.612 195.348C233.929 192.469 231.892 189.9 229.456 187.597C225.514 183.832 220.907 181.352 215.548 180.377C210.322 179.447 205.139 179.757 200.046 181.263C194.819 182.769 190.036 185.161 185.474 188.04C181.886 190.299 178.608 192.956 175.242 195.525C171.92 198.05 169.086 201.106 166.029 203.896C161.733 207.838 157.658 212.046 153.362 216.032C150.173 218.956 147.161 222.012 144.016 224.979C142.82 226.087 141.625 227.15 140.429 228.257C140.207 228.478 140.074 228.744 139.853 228.966C142.156 229.674 144.504 229.896 146.851 230.339C150.926 231.092 155.045 231.667 159.12 232.465C160.759 232.775 162.265 232.73 163.903 232.287C169.263 230.826 174.445 228.921 179.627 226.928C179.627 226.485 179.539 225.998 179.627 225.555C179.937 223.119 180.247 220.683 180.69 218.291C180.823 217.627 181 216.962 181.044 216.254C181.044 215.899 181.177 215.501 181.355 215.191C182.285 213.685 183.791 213.02 185.474 213.375C187.112 213.685 188.618 215.324 188.308 216.785C188.043 217.981 188.131 219.266 187.777 220.417C187.423 221.657 187.467 222.853 187.511 224.093C188.043 224.005 188.574 223.961 189.106 223.783C197.698 220.683 206.291 217.627 214.884 214.482C220.42 212.489 226.001 210.451 231.537 208.414C234.284 207.395 236.985 206.332 239.687 205.225C240.13 205.048 240.484 204.782 240.883 204.561L240.794 204.472Z" fill="#6B6D66"/>
<path d="M272.463 210.052C272.33 210.583 272.109 211.071 272.065 211.602C271.976 212.355 271.932 213.108 272.375 213.817C273.659 215.943 274.324 218.335 274.678 220.726C274.899 222.011 274.766 223.34 274.766 224.624C274.766 230.249 273.172 235.298 270.16 240.038C268.344 242.917 265.952 245.087 262.852 246.504C262.232 246.77 261.612 247.124 261.08 247.567C260.283 248.232 260.239 249.206 260.903 250.003C261.833 251.199 262.365 251.332 263.915 250.845C266.041 250.225 267.857 249.118 269.363 247.567C270.869 246.017 272.508 244.644 273.703 242.828C276.317 239.019 277.823 234.767 278.797 230.338C279.329 227.813 279.683 225.2 279.373 222.587C278.93 218.999 278.221 215.5 276.582 212.222C275.829 210.716 274.811 209.963 273.172 210.052C272.951 210.052 272.729 210.052 272.463 210.052Z" fill="#E7A47A"/>
<path d="M187.422 224.003C187.378 222.763 187.334 221.567 187.688 220.327C188.043 219.176 187.91 217.891 188.22 216.695C188.53 215.234 187.024 213.595 185.385 213.285C183.658 212.93 182.152 213.595 181.266 215.101C181.089 215.411 180.956 215.809 180.956 216.164C180.912 216.872 180.734 217.537 180.601 218.201C180.203 220.593 179.893 223.029 179.538 225.465C179.494 225.908 179.538 226.395 179.538 226.838C182.24 226.085 184.942 225.288 187.422 223.959V224.003Z" fill="#4A4B44"/>
<path d="M302.582 226.662C302.582 226.529 302.715 226.352 302.67 226.264C302.227 225.776 301.829 225.245 301.164 225.023C301.253 226.219 301.386 226.352 302.582 226.662Z" fill="white"/>
<path d="M303.468 227.106C303.246 226.751 303.157 226.22 302.537 226.618C302.626 227.15 302.98 227.416 303.468 227.593C303.468 227.416 303.468 227.283 303.468 227.106Z" fill="white"/>
<path d="M303.468 227.104C303.468 227.281 303.468 227.414 303.468 227.591C303.645 227.591 303.778 227.591 303.955 227.591C303.955 227.325 303.778 227.148 303.468 227.104Z" fill="#FDFCFC"/>
<path d="M304.398 228.079C304.353 227.813 304.176 227.636 303.91 227.592C304.088 227.769 304.221 227.946 304.398 228.079Z" fill="#FDFCFC"/>
<path d="M304.885 228.567C304.885 228.257 304.664 228.124 304.398 228.08C304.575 228.257 304.752 228.434 304.885 228.567Z" fill="#FDFCFC"/>
<path d="M305.549 229.007C305.372 228.741 305.151 228.564 304.841 228.52C305.062 228.697 305.328 228.874 305.549 229.007Z" fill="#FDFCFC"/>
<path d="M174.843 259.482C174.976 259.482 175.154 259.394 175.286 259.349C175.065 259.172 174.932 259.305 174.843 259.482Z" fill="#6B6D66"/>
<path d="M124.793 210.051C124.439 210.184 124.04 210.228 123.73 210.449C121.87 211.645 120.01 212.885 118.194 214.126C117.529 214.569 117.529 214.79 118.061 215.41C118.194 215.587 118.371 215.764 118.548 215.897C120.63 217.935 122.446 220.194 124.262 222.453C124.705 223.028 125.236 223.471 125.901 223.648C128.071 224.18 130.108 225.066 132.323 225.287C132.323 224.667 131.924 224.136 131.659 223.604C129.223 219.175 127.008 214.613 124.793 210.051Z" fill="#FFB58A"/>
<path d="M201.729 332.873C201.596 332.696 201.419 332.608 201.153 332.652C201.286 332.873 201.463 332.962 201.729 332.873Z" fill="#696D65"/>
</svg>
