<svg width="500" height="500" viewBox="0 0 500 500" fill="none" xmlns="http://www.w3.org/2000/svg">
<path d="M266.638 350.779C271.699 349.847 276.538 348.204 281.022 345.674C285.461 343.187 289.279 339.991 292.342 335.862C299.224 326.628 299.845 314.508 293.941 304.342C291.055 299.414 287.193 295.374 282.575 292.089C278.713 289.336 274.584 287.205 270.1 285.696C268.813 285.208 267.437 285.074 266.149 285.341C264.196 285.74 262.376 285.518 260.422 285.341C258.291 285.119 258.647 284.586 259.401 283.21C259.49 283.077 259.534 282.899 259.623 282.766C262.997 276.284 265.972 269.669 268.769 262.921C269.079 262.211 269.257 261.501 269.301 260.746C268.147 260.568 266.948 260.613 265.794 260.746C265.039 260.835 264.285 260.924 263.53 260.924C257.581 261.101 251.632 261.057 245.683 261.368C238.802 261.723 231.921 261.501 225.04 261.9C221.621 262.122 218.158 261.989 214.696 262.078C213.852 262.078 213.009 262.167 212.21 262.255C212.387 262.611 212.609 262.966 212.52 263.41C212.076 265.63 211.632 267.805 211.233 270.025C210.744 272.644 210.301 275.263 209.857 277.927C209.457 280.058 209.102 282.189 208.702 284.32C208.258 286.806 207.859 289.248 207.415 291.734C207.015 293.953 206.571 296.173 206.172 298.393C205.728 300.923 205.284 303.498 204.84 306.029C204.263 309.314 203.686 312.599 203.109 315.885C202.62 318.504 202.176 321.123 201.599 323.742C201.155 325.829 200.001 326.717 197.959 327.028C196.272 327.25 194.674 325.873 194.54 324.142C194.407 322.011 195.029 320.013 195.339 317.927C195.695 315.707 196.139 313.487 196.538 311.267C197.16 307.805 197.692 304.342 198.314 300.879C198.713 298.659 199.157 296.44 199.557 294.22C200.134 290.846 200.622 287.472 201.2 284.098C201.777 280.813 202.487 277.527 203.064 274.242C203.775 270.291 204.396 266.34 205.062 262.389C202.176 262.522 199.379 262.122 196.671 261.101C196.361 260.968 196.005 260.968 195.695 260.879C190.722 259.681 185.795 258.349 180.867 257.017C168.392 253.687 155.872 250.535 143.353 247.25C140.379 246.451 140.601 246.717 138.736 248.493C133.675 253.288 128.658 258.127 123.597 262.921C123.065 263.454 122.487 263.943 121.866 264.386C120.667 265.319 119.824 265.319 118.714 264.475C117.693 263.721 116.76 262.877 115.784 262.078C109.968 257.239 104.197 252.4 98.3366 247.605C97.138 246.628 96.3389 245.607 96.5608 243.965C95.7617 243.832 95.3621 244.409 94.8738 244.853C89.946 249.603 85.6397 254.842 82.0437 260.657C76.006 270.424 72.0992 281.035 70.6786 292.444C69.0804 304.83 70.6786 316.728 76.1392 328.049C79.0248 334.042 82.9316 339.236 87.8151 343.72C89.1913 344.963 90.5675 346.206 91.8994 347.494C94.1191 349.625 96.8272 351.001 99.3133 352.688C99.7128 352.954 100.246 353.132 100.69 353.265C105.04 354.597 109.347 356.018 113.875 356.506C115.473 356.683 117.071 356.772 118.669 356.772C121.955 356.817 125.24 356.728 128.481 356.328C130.301 356.106 132.166 356.018 134.03 355.929C149.968 355.263 165.24 351.534 180.023 345.674C182.065 344.874 184.063 344.031 186.061 343.187C186.416 342.521 186.816 341.9 187.082 341.19C188.458 337.505 190.19 333.953 191.832 330.357C192.276 329.381 192.942 329.025 194.008 329.07C197.604 329.203 201.2 329.159 204.796 329.381C209.901 329.736 215.006 329.825 220.112 329.958C222.864 330.046 225.661 329.825 228.325 330.579C227.97 328.226 229.035 326.362 230.189 324.453C230.944 323.254 231.699 322.055 232.409 320.812C235.117 316.107 237.825 311.356 240.533 306.65C243.73 301.145 247.06 295.729 250.212 290.18C251.055 288.759 252.209 287.96 253.63 287.383C255.406 286.717 257.892 288.36 258.114 290.269C258.291 291.867 257.67 293.243 256.871 294.531C256.027 295.951 255.139 297.372 254.251 298.837C252.209 302.211 250.212 305.585 248.214 308.959C246.571 311.711 244.973 314.419 243.33 317.172C240.889 321.301 238.491 325.385 236.094 329.514C235.295 330.89 234.274 331.867 232.676 332.222C233.208 332.444 233.697 332.755 234.274 332.932C241.821 335.64 249.368 338.304 256.915 341.012C258.558 341.589 260.245 342.211 261.799 342.921C264.329 344.12 265.794 346.117 266.238 348.914C266.327 349.491 266.504 350.024 266.638 350.601V350.779Z" fill="#696D65"/>
<path d="M96.5609 244.099C96.3389 245.697 97.1824 246.762 98.3367 247.739C104.152 252.534 109.968 257.373 115.784 262.212C116.761 263.011 117.693 263.854 118.714 264.609C119.868 265.497 120.712 265.453 121.866 264.52C122.443 264.076 123.02 263.544 123.597 263.055C128.658 258.261 133.675 253.422 138.736 248.627C140.601 246.851 140.379 246.629 143.353 247.384C155.828 250.669 168.392 253.821 180.867 257.151C185.795 258.483 190.767 259.77 195.695 261.013C196.005 261.102 196.361 261.102 196.671 261.235C199.379 262.256 202.176 262.7 205.062 262.523C205.24 262.212 205.506 262.212 205.728 262.434C206.305 262.434 206.927 262.434 207.504 262.434C207.726 262.167 207.992 262.212 208.17 262.434C209.501 262.434 210.789 261.945 212.165 262.256C213.009 262.212 213.852 262.123 214.651 262.079C218.114 262.034 221.532 262.079 224.995 261.901C231.877 261.502 238.758 261.723 245.639 261.368C251.588 261.058 257.537 261.102 263.486 260.924C264.24 260.924 264.995 260.836 265.75 260.747C266.904 260.614 268.103 260.569 269.257 260.747C272.764 260.392 276.316 260.525 279.823 260.569C280.489 260.569 281.11 260.836 281.776 261.013C284.041 261.635 286.349 261.99 288.702 262.123C293.008 262.345 297.226 261.901 301.399 260.747C304.995 259.726 308.058 257.95 310.722 255.508C314.318 252.223 316.271 247.917 316.982 243.166C317.514 239.482 317.381 235.797 315.783 232.29C314.007 228.472 311.654 224.965 308.857 221.857C305.661 218.261 301.532 215.997 297.181 214.132C295.406 213.377 293.541 212.845 291.588 212.712C288.658 212.49 285.772 211.957 282.797 212.046C279.601 212.179 276.493 212.756 273.43 213.733C271.122 214.487 268.769 215.064 266.416 215.642C255.361 218.35 244.307 221.013 233.253 223.721C229.124 224.743 224.951 225.764 220.822 226.785C220.245 226.918 219.712 227.14 219.091 226.918C216.471 227.761 213.808 228.383 211.1 228.783C210.967 228.871 210.833 229.004 210.7 229.049C206.438 229.981 202.221 231.091 197.914 231.668C196.893 231.801 195.917 231.801 194.94 231.491C192.853 230.869 190.722 230.336 188.636 229.804C181.577 227.939 174.563 226.03 167.504 224.121C166.882 223.943 166.216 223.855 165.861 223.278C166.172 222.39 166.838 222.034 167.415 221.546C167.992 221.058 168.614 220.614 168.791 219.815C168.17 219.104 168.037 218.128 167.77 217.284C166.794 214.177 165.994 210.98 164.796 207.961C163.908 205.697 163.198 203.344 162.398 201.08C161.999 201.213 161.599 201.346 161.244 201.524C159.335 202.545 157.426 203.655 155.473 204.632C151.655 206.541 147.748 208.316 143.886 210.181C143.753 210.27 143.575 210.314 143.442 210.403C142.598 210.803 141.799 210.714 141.133 210.003C140.601 209.471 140.112 208.894 139.491 208.405C138.336 207.473 137.182 206.319 135.628 206.141C134.075 205.964 132.388 205.875 130.878 206.185C126.749 207.162 122.532 207.961 118.536 209.515C116.716 210.225 115.473 211.468 114.319 212.934C113.964 213.377 113.742 213.955 113.742 214.576C113.742 216.751 112.854 218.838 112.676 220.969C112.676 221.324 112.321 221.502 111.966 221.591C111.566 223.056 111.833 224.609 111.744 226.119C111.7 227.14 111.744 228.161 111.611 229.138C111.433 230.292 110.989 231.269 109.879 232.023C105.262 235.087 101.311 238.993 97.36 242.9C97.0048 243.255 96.7385 243.699 96.4721 244.099H96.5609Z" fill="#FFB68A"/>
<path d="M341.399 339.815C341.754 340.747 342.508 341.235 343.219 341.857C347.303 345.231 352.009 347.406 357.114 348.738C365.949 351.002 374.739 350.736 383.396 347.85C392.63 344.787 399.467 338.66 404.795 330.714C407.503 326.718 409.456 322.367 410.877 317.795C411.454 316.019 412.12 314.332 413.096 312.734C413.096 312.29 413.363 311.979 413.585 311.668C411.853 310.381 411.454 308.472 411.498 306.518C411.587 302.834 411.099 299.149 410.433 295.553C409.856 292.401 408.968 289.382 407.503 286.496C405.061 281.568 401.554 277.395 398.047 273.222C395.605 270.337 392.542 268.028 389.256 266.163C384.062 263.233 378.602 260.836 372.83 259.238C370.744 258.661 368.701 257.862 366.437 257.995C364.884 258.039 363.907 256.796 362.975 255.731C362.22 254.887 362.442 253.777 362.575 252.845C362.797 251.025 364.262 249.737 366.082 249.515C366.571 249.471 367.103 249.427 367.547 249.249C368.213 249.027 368.835 248.983 369.501 249.249C369.9 249.382 370.3 249.515 370.744 249.515C373.23 249.427 375.538 250.27 377.847 251.025C379.134 251.424 380.333 252.001 381.62 252.312C384.639 253.067 387.525 254.266 390.144 255.908C393.296 257.817 396.404 259.815 399.645 261.546C400.621 262.079 401.376 262.834 401.909 263.81C402.22 264.388 402.53 265.009 402.974 265.497C404.217 266.874 405.416 268.294 406.659 269.626C409.412 272.556 411.321 275.975 413.23 279.393C414.961 282.501 416.16 285.786 417.092 289.204C418.157 293.155 419.09 297.151 418.957 301.324C418.957 302.345 418.868 303.366 418.957 304.343C419.134 305.586 419.312 306.918 420.999 307.051C425.483 303.988 428.368 299.815 429.478 294.443C430.322 290.403 430.055 286.407 429.301 282.412C428.368 277.573 426.548 273.089 424.195 268.783C421.709 264.254 418.557 260.214 415.005 256.53C413.851 255.287 412.475 254.31 411.054 253.378C397.292 244.277 382.42 237.884 366.215 234.599C361.332 233.622 356.404 233.045 351.432 232.956C350.855 232.956 350.233 232.956 349.656 232.823C348.635 232.556 347.88 232.912 347.17 233.622C345.305 235.353 344.551 237.396 345.083 239.97C345.794 243.389 347.703 246.097 349.834 248.761C350.322 249.338 350.81 249.915 351.299 250.492C353.119 252.135 354.806 253.999 356.36 255.908C356.892 256.574 357.825 257.018 357.869 258.084H357.825C358.579 258.084 358.89 258.527 359.157 259.105C359.423 260.081 359.645 261.058 359.911 262.035C361.021 265.986 362.22 269.937 363.197 273.933C364.351 278.55 365.949 283.078 366.215 287.917C366.349 290.492 365.727 292.756 364.04 294.665C363.285 295.553 362.353 296.308 361.421 297.018C359.334 298.572 357.248 300.081 355.072 301.546C352.453 303.322 350.322 305.497 348.768 308.25C348.147 309.36 347.525 310.425 346.904 311.535C346.282 312.556 345.971 313.71 345.794 314.865C345.572 316.507 345.439 318.194 345.261 319.881C344.95 322.279 344.684 324.72 344.329 327.118C343.974 329.604 343.574 332.09 343.086 334.576C342.73 336.441 342.375 338.349 341.221 339.992L341.399 339.815Z" fill="#824414"/>
<path d="M168.88 219.815C168.702 220.614 168.081 221.058 167.504 221.546C166.927 222.035 166.261 222.39 165.95 223.278C166.305 223.855 166.971 223.943 167.593 224.121C174.651 226.03 181.666 227.895 188.725 229.804C190.811 230.381 192.942 230.913 195.029 231.491C196.005 231.757 196.982 231.801 198.003 231.668C202.309 231.091 206.527 229.981 210.789 229.049C210.922 229.049 211.055 228.871 211.188 228.783C211.011 226.74 211.632 224.831 211.899 222.834C212.254 220.259 212.742 217.728 213.186 215.198C213.497 213.466 213.852 211.779 214.163 210.048C214.562 208.05 215.761 206.807 217.714 206.274C220.511 205.475 222.642 207.384 222.11 210.181C221.31 214.354 220.511 218.527 219.757 222.7C219.49 224.077 219.046 225.453 219.135 226.918C219.712 227.14 220.289 226.918 220.866 226.785C224.995 225.764 229.168 224.743 233.297 223.721C244.351 221.013 255.406 218.35 266.46 215.642C268.813 215.064 271.166 214.487 273.474 213.733C276.538 212.756 279.645 212.134 282.842 212.046C282.931 210.714 283.374 209.426 283.33 208.05C283.33 207.207 283.33 206.363 283.463 205.52C283.996 200.991 284.174 196.463 283.286 191.979C282.753 189.093 281.998 186.252 280.311 183.766C279.601 182.745 278.979 181.635 278.669 180.392C277.87 179.771 277.426 178.838 276.848 177.995C274.496 174.576 271.699 171.557 268.28 169.16C261.577 164.454 254.029 162.945 245.994 163.877C239.468 164.632 233.475 166.94 227.659 169.915C222.864 172.401 218.38 175.331 214.074 178.616C213.053 179.371 212.076 180.126 211.055 180.88C210.966 181.102 210.833 181.236 210.567 181.191C210.345 181.458 210.212 181.813 209.945 181.946C206.838 183.722 204.574 186.519 201.91 188.827C198.713 191.535 195.917 194.687 192.765 197.484C189.612 200.281 186.727 203.3 183.619 206.141C179.18 210.137 174.962 214.354 170.656 218.483C170.123 219.016 169.635 219.593 168.836 219.77L168.88 219.815Z" fill="#6B6D65"/>
<path d="M341.398 339.815C342.597 338.217 342.908 336.308 343.263 334.399C343.751 331.912 344.151 329.426 344.506 326.94C344.861 324.543 345.128 322.101 345.438 319.704C345.66 318.017 345.794 316.374 345.971 314.687C346.104 313.533 346.459 312.379 347.081 311.358C347.702 310.248 348.324 309.182 348.946 308.072C350.499 305.32 352.63 303.1 355.25 301.369C357.425 299.948 359.512 298.394 361.598 296.841C362.53 296.13 363.463 295.375 364.217 294.488C365.904 292.579 366.526 290.314 366.393 287.74C366.171 282.901 364.573 278.372 363.374 273.755C362.353 269.76 361.154 265.853 360.089 261.857C359.822 260.881 359.6 259.904 359.334 258.927C358.668 258.838 358.224 258.572 358.002 257.906H358.047C357.603 257.906 357.203 257.862 356.892 257.551C354.939 255.642 353.03 253.689 351.121 251.735C350.943 251.558 350.899 251.291 350.81 251.069C347.037 247.473 343.307 243.833 339.534 240.281C337.58 238.417 335.849 236.375 334.206 234.244C333.674 233.578 333.097 233.001 332.519 232.379C329.811 229.627 327.014 226.963 324.573 223.944C324.084 223.367 323.596 222.745 322.841 222.523C322.797 223.545 322.708 224.521 322.708 225.542C322.708 227.984 322.708 230.381 322.087 232.779C321.598 234.91 321.332 237.085 320.533 239.127C319.867 240.859 319.29 242.59 318.624 244.321C317.381 247.562 315.694 250.581 313.74 253.378C311.476 256.619 308.99 259.682 306.238 262.523C305.882 262.878 305.527 263.234 305.394 263.766C306.016 264.965 306.548 266.208 307.214 267.362C308.635 269.848 307.791 271.891 306.06 273.755C305.172 274.732 304.195 275.709 303.219 276.596C301.354 278.239 299.978 280.237 298.691 282.323C297.447 284.366 296.648 286.541 296.826 289.027C296.915 290.536 296.826 292.046 297.225 293.511C297.803 295.819 299.223 297.595 300.688 299.282C302.331 301.236 303.796 303.233 305.128 305.409C306.637 307.895 307.037 310.603 305.794 313.355C305.305 314.421 304.728 315.442 304.284 316.552C303.885 317.484 303.441 318.372 303.174 319.349C302.686 321.169 303.174 322.945 305.217 323.966C307.037 324.898 308.99 325.298 310.988 325.564C313.474 325.919 316.005 325.919 318.491 326.141C323.197 326.541 327.769 327.473 331.765 330.27C333.363 331.38 334.739 332.712 335.893 334.265C337.136 335.952 338.424 337.595 340.022 339.016C340.422 339.371 340.777 339.682 341.31 339.726L341.398 339.815Z" fill="#FFB68A"/>
<path d="M266.637 350.778C266.504 350.2 266.327 349.668 266.238 349.091C265.838 346.294 264.329 344.296 261.798 343.097C260.2 342.343 258.558 341.765 256.915 341.188C249.368 338.48 241.821 335.817 234.274 333.108C233.741 332.931 233.208 332.62 232.675 332.398C231.122 332.132 229.657 331.555 228.325 330.756C225.617 330.001 222.864 330.223 220.112 330.134C215.006 330.001 209.856 329.912 204.795 329.557C201.199 329.29 197.603 329.379 194.007 329.246C192.942 329.246 192.276 329.557 191.832 330.534C190.189 334.13 188.414 337.637 187.082 341.366C186.815 342.076 186.416 342.698 186.061 343.364C185.617 344.784 185.04 346.161 184.995 347.714C184.906 350.511 185.839 352.997 187.082 355.395C189.035 359.301 192.232 361.876 196.183 363.652C200.312 365.517 204.618 366.138 209.057 366.627C212.831 367.071 216.56 366.982 220.334 367.426C223.885 367.87 227.526 367.87 231.122 368.003C233.031 368.092 234.984 368.092 236.893 368.003C240.755 367.87 244.618 367.825 248.436 367.426C253.408 366.893 257.847 364.984 261.399 361.388C263.974 358.769 265.927 355.794 266.327 351.976C266.371 351.577 266.549 351.177 266.682 350.778H266.637Z" fill="#FFB68A"/>
<path d="M305.483 263.812C305.616 263.279 305.972 262.924 306.327 262.569C309.079 259.727 311.61 256.664 313.829 253.423C315.783 250.582 317.47 247.563 318.713 244.367C319.379 242.635 319.956 240.904 320.622 239.173C321.421 237.13 321.643 234.955 322.176 232.824C322.753 230.427 322.753 227.985 322.797 225.588C322.797 224.567 322.886 223.59 322.93 222.569C322.664 220.571 322.62 218.573 322.309 216.576C321.865 213.956 321.066 211.515 319.823 209.25C316.937 204.056 312.986 199.75 308.502 195.887C303.885 191.936 298.78 188.74 293.452 185.943C289.235 183.723 284.751 181.992 280.223 180.527C279.734 180.349 279.246 180.26 278.757 180.349C279.113 181.592 279.734 182.702 280.4 183.723C282.087 186.209 282.842 189.051 283.375 191.936C284.218 196.42 284.085 200.949 283.552 205.477C283.463 206.32 283.375 207.164 283.419 208.007C283.463 209.384 283.019 210.671 282.931 212.003C285.861 211.87 288.791 212.447 291.721 212.669C293.63 212.802 295.494 213.335 297.315 214.089C301.665 215.954 305.794 218.218 308.99 221.814C311.787 224.966 314.14 228.429 315.916 232.247C317.514 235.71 317.692 239.439 317.115 243.124C316.404 247.874 314.451 252.18 310.855 255.465C308.191 257.907 305.128 259.727 301.532 260.704C297.359 261.903 293.141 262.302 288.835 262.08C286.482 261.947 284.174 261.592 281.91 260.97C281.244 260.793 280.622 260.526 279.956 260.526C276.449 260.526 272.897 260.349 269.39 260.704C269.346 261.459 269.124 262.169 268.857 262.879C266.061 269.627 263.086 276.242 259.712 282.724C259.623 282.857 259.579 283.035 259.49 283.168C258.735 284.544 258.38 285.121 260.511 285.299C262.42 285.476 264.285 285.743 266.238 285.299C267.526 285.032 268.902 285.166 270.189 285.654C270.544 284.855 271.344 284.81 272.054 284.633C276.582 283.701 280.933 282.28 285.017 280.105C286.793 279.172 288.48 278.062 290.034 276.775C292.742 274.555 295.45 272.336 297.936 269.849C300.023 267.763 302.376 266.031 304.64 264.167C304.906 263.945 305.217 263.856 305.528 263.723L305.483 263.812Z" fill="#8A8ADD"/>
<path d="M421.132 306.963C419.445 306.83 419.267 305.498 419.09 304.255C418.957 303.278 419.045 302.257 419.09 301.236C419.223 297.107 418.291 293.067 417.225 289.116C416.293 285.698 415.094 282.412 413.363 279.305C411.409 275.886 409.545 272.468 406.792 269.538C405.549 268.206 404.351 266.785 403.108 265.409C402.664 264.921 402.353 264.299 402.042 263.722C401.509 262.745 400.755 261.991 399.778 261.458C396.537 259.727 393.43 257.729 390.278 255.82C387.658 254.222 384.773 253.023 381.754 252.224C380.422 251.913 379.223 251.336 377.98 250.936C375.672 250.182 373.407 249.294 370.877 249.427C370.477 249.427 370.033 249.294 369.634 249.161C368.968 248.939 368.346 248.939 367.681 249.161C367.192 249.294 366.704 249.383 366.215 249.427C364.395 249.649 362.886 250.936 362.708 252.757C362.575 253.733 362.398 254.799 363.108 255.642C364.04 256.752 365.061 257.995 366.571 257.906C368.835 257.818 370.877 258.572 372.963 259.149C378.735 260.748 384.195 263.145 389.39 266.075C392.675 267.94 395.738 270.204 398.18 273.134C401.687 277.263 405.194 281.48 407.636 286.408C409.057 289.294 409.944 292.312 410.566 295.465C411.232 299.105 411.676 302.745 411.631 306.43C411.631 308.383 411.987 310.292 413.718 311.58C414.65 311.58 415.449 310.914 416.382 311.136C416.648 311.047 416.87 310.914 417.136 310.825C417.27 310.204 417.714 309.982 418.335 310.07C419.667 309.36 420.377 308.073 421.265 306.963H421.132Z" fill="#5D3718"/>
<path d="M168.88 219.816C169.679 219.638 170.168 219.016 170.7 218.528C175.007 214.399 179.269 210.226 183.664 206.186C186.771 203.345 189.657 200.326 192.809 197.529C195.961 194.732 198.802 191.625 201.954 188.872C204.618 186.564 206.882 183.767 209.99 181.991C210.256 181.858 210.389 181.503 210.611 181.236C208.392 181.68 206.349 182.746 204.263 183.589C191.965 188.428 179.668 193.312 167.415 198.151C166.882 198.373 166.305 198.506 165.728 198.684C165.151 198.95 164.574 199.305 163.952 199.527C163.153 199.793 162.754 200.371 162.443 201.081C163.242 203.389 163.908 205.742 164.84 207.962C166.083 211.025 166.838 214.177 167.815 217.285C168.081 218.173 168.214 219.105 168.836 219.816H168.88Z" fill="#8A8ADD"/>
<path d="M162.487 201.034C162.798 200.324 163.153 199.746 163.997 199.48C164.618 199.303 165.195 198.947 165.772 198.637C164.84 198.592 163.952 198.459 163.02 198.503C156.05 198.637 149.124 198.015 142.154 197.882C140.068 197.837 137.981 197.438 135.939 197.172C135.673 197.172 135.451 196.994 135.184 197.038C131.1 197.349 126.927 197.482 123.42 200.013C120.49 202.099 117.604 204.275 114.807 206.494C113.209 207.738 112.676 209.647 112.41 211.6C112.321 212.355 112.365 213.109 112.321 213.864C112.232 215.951 112.321 218.037 111.921 220.124C111.833 220.612 111.966 221.1 112.01 221.633C112.365 221.544 112.676 221.367 112.721 221.012C112.898 218.836 113.786 216.794 113.786 214.619C113.786 213.997 114.052 213.42 114.363 212.976C115.473 211.511 116.76 210.268 118.581 209.558C122.576 207.96 126.749 207.16 130.922 206.228C132.432 205.873 134.119 206.006 135.673 206.184C137.227 206.361 138.336 207.471 139.535 208.448C140.112 208.936 140.645 209.513 141.178 210.046C141.844 210.712 142.643 210.801 143.486 210.446C143.619 210.357 143.797 210.312 143.93 210.224C147.793 208.359 151.655 206.583 155.517 204.674C157.471 203.698 159.335 202.588 161.289 201.567C161.644 201.389 162.043 201.256 162.443 201.123L162.487 201.034Z" fill="#E7A47D"/>
<path d="M416.293 311.18C415.361 310.958 414.562 311.624 413.629 311.624C413.407 311.935 413.141 312.246 413.141 312.69C414.118 312.024 415.405 312.024 416.293 311.18Z" fill="#6B6D65"/>
<path d="M418.202 310.07C417.58 309.981 417.181 310.203 417.003 310.824C417.536 310.824 417.98 310.558 418.202 310.07Z" fill="#6B6D65"/>
<path d="M210.656 181.237C210.878 181.237 211.055 181.192 211.144 180.926C210.878 180.926 210.745 181.015 210.656 181.237Z" fill="#8A8ADD"/>
<path d="M207.548 262.434C206.971 262.434 206.35 262.434 205.772 262.434C205.55 262.434 205.328 262.479 205.106 262.523C204.441 266.474 203.819 270.425 203.109 274.376C202.532 277.662 201.821 280.947 201.244 284.232C200.667 287.606 200.179 290.98 199.601 294.354C199.202 296.574 198.758 298.794 198.358 301.013C197.737 304.476 197.204 307.939 196.583 311.402C196.183 313.621 195.739 315.841 195.384 318.061C195.029 320.103 194.452 322.145 194.585 324.276C194.674 326.008 196.316 327.384 198.003 327.162C200.09 326.896 201.2 325.963 201.644 323.877C202.221 321.257 202.709 318.638 203.153 316.019C203.73 312.734 204.307 309.448 204.884 306.163C205.328 303.633 205.772 301.058 206.216 298.527C206.616 296.307 207.06 294.088 207.459 291.868C207.903 289.382 208.303 286.94 208.747 284.454C209.102 282.323 209.502 280.192 209.901 278.061C210.345 275.442 210.789 272.778 211.277 270.159C211.677 267.939 212.121 265.719 212.565 263.544C212.654 263.056 212.476 262.745 212.254 262.39C210.922 262.123 209.59 262.567 208.258 262.567C208.037 262.567 207.815 262.567 207.593 262.567L207.548 262.434Z" fill="#494A45"/>
<path d="M228.369 330.712C229.701 331.556 231.166 332.089 232.72 332.355C234.318 332.044 235.339 331.023 236.139 329.647C238.536 325.518 240.978 321.389 243.375 317.305C244.973 314.553 246.616 311.844 248.258 309.092C250.256 305.718 252.298 302.344 254.296 298.97C255.14 297.549 256.028 296.129 256.915 294.664C257.715 293.376 258.336 292 258.158 290.402C257.936 288.493 255.45 286.85 253.675 287.516C252.254 288.049 251.1 288.848 250.256 290.313C247.104 295.862 243.775 301.279 240.578 306.784C237.826 311.489 235.162 316.24 232.454 320.945C231.743 322.189 230.944 323.387 230.234 324.586C229.08 326.45 228.014 328.359 228.369 330.712Z" fill="#494A45"/>
<path d="M219.18 226.919C219.091 225.454 219.535 224.123 219.801 222.702C220.556 218.529 221.355 214.356 222.154 210.183C222.687 207.341 220.6 205.477 217.759 206.276C215.805 206.809 214.562 208.052 214.207 210.049C213.852 211.781 213.541 213.468 213.231 215.199C212.787 217.73 212.298 220.26 211.943 222.835C211.677 224.833 211.011 226.742 211.233 228.784C213.941 228.384 216.605 227.763 219.224 226.919H219.18Z" fill="#494A45"/>
<path d="M207.548 262.434C207.77 262.434 207.992 262.434 208.214 262.434C207.992 262.168 207.77 262.168 207.548 262.434Z" fill="#696D65"/>
<path d="M205.106 262.48C205.328 262.48 205.55 262.436 205.772 262.391C205.506 262.169 205.284 262.169 205.106 262.48Z" fill="#696D65"/>
<path d="M358.047 257.995C358.225 258.661 358.713 258.972 359.379 259.016C359.113 258.439 358.802 257.951 358.047 257.995Z" fill="#E6D9CD"/>
</svg>
