<?xml version="1.0" encoding="UTF-8"?>
<svg xmlns="http://www.w3.org/2000/svg" version="1.1" viewBox="0 0 1417.3 1417.3">
  <defs>
    <style>
      .cls-1 {
        fill: #fcfcfc;
      }

      .cls-2 {
        fill: #5d3718;
      }

      .cls-3 {
        fill: #696d65;
      }

      .cls-4 {
        fill: #ffb68b;
      }

      .cls-5 {
        fill: #824414;
      }

      .cls-6 {
        fill: #8989de;
      }

      .cls-7 {
        fill: #494a45;
      }

      .cls-8 {
        fill: #cab8b5;
      }

      .cls-9 {
        fill: #ffb68a;
      }

      .cls-10 {
        fill: #ffb78a;
      }

      .cls-11 {
        fill: #e7a47c;
      }
    </style>
  </defs>
  <!-- Generator: Adobe Illustrator 28.7.1, SVG Export Plug-In . SVG Version: 1.2.0 Build 142)  -->
  <g>
    <g id="_레이어_1" data-name="레이어_1">
      <g>
        <path class="cls-3" d="M739.5,1057.2c-.7-7.6-1.3-15.3-2.3-22.9-.9-6.9.4-6-6.7-6.6-10.5-.9-21-2-31.5-3.2-3-.4-6-.8-9-1.3-1.7-.3-3.1-.1-4.5.8-12.6,8.1-26.6,13.2-41,17-7.4,1.9-14.7,4.5-22.2,6.1-11.7,2.5-23.4,5.1-35.2,7.5-5.8,1.2-11.7,1.8-17.5,2.6-21.5,2.8-43.1,3-64.6,2.6-12.9-.2-25.9-.9-38.8-2.3-9.5-1.1-19.1-1.5-28.7-2.3-11.2-.8-22.3-1.7-33.5-2.5-9.2-.7-18.5-1.3-27.7-2-13.1-1-26.1-2-39.2-3.2-4.9-.4-9.9-1-14.6-2.7,1.3-3.6,2.4-7.2,2.8-11,.3-2.1.6-4.1.9-6.1,1.1-6.9,2.2-13.8,3.3-20.8,1.2-7.7,2.2-15.4,3.3-23.2.7-5.2,1.6-10.4,1.7-15.7,0-1.8.2-3.5.3-5.3,2.2-1,4.4-1.6,6.9-1.7,12.9-.8,25.7-2.7,38.6-4.3,14.7-1.8,29.5-3.4,44.3-5.2,7.8-.9,15.5-2,23.4-1.8,2.7,0,5.4-.6,8.1-.9,4.3-.5,8.5-1.1,12.8-1.6.6,0,1.3-.2,1.9-.3,6.6-.1,12.9-1.5,19.3-2.6,7.5-1.3,15.2-2.1,22.8-3,9.5-1.2,19-2.2,28.6-3.3,7.8-.9,15.6-1.7,23.3-2.5,7.9-.8,15.9-1.7,23.8-2.5,7.5-.8,14.9-1.5,22.4-2.3,5.1-.5,10.2-1.3,15.3-1.5,6.4-.3,12.7-1.3,19-2.2,12.6-1.8,25.4-2.8,38.1-4.2,6.8-.7,13.7-1.4,20.5-2.1,1.1.4,2.1.3,3.1-.2.9.7,1.9,1.2,2.7,2,3.6,3.6,7.1,7.3,10.7,11,1.9,2,3.9,3.9,6.6,5.3.2-.6.3-.9.3-1.2.2-9-1-17.9-1.4-26.8,0-.6-.3-1.3-.3-1.9-.1-1.8-.4-3.5-.3-5.3.3-5.1,0-10.2,0-15.3,0-3.4,0-6.7.9-10,.9-3.2,1.4-6.6,2-9.8,3.6-18.1,7.3-36.3,10.9-54.4,3.8-18.8,7.5-37.5,11.3-56.3.7-3.3,1.4-6.6,2-9.9.5-2.9,1.7-5.3,4.1-7.2,5.7-4.4,11.1-9.1,16.7-13.7,7.4-6.1,14.6-12.4,22.3-18.2,15.7-11.9,31.6-23.4,47.3-35.1,1.1-.8,2.1-1.5,3.5-1.4,2.2,2.4,4,5,5.7,7.7,1.4,2.3,3,4.6,4.6,6.7,12.3,16.5,24.7,33,37.1,49.4.8,1,1.3,2.2,2.6,2.8h0c.1.4.4.7.9.8.1.5.1,1,.4,1.3,4,5.4,8.1,10.8,12.2,16.2.3.5,1,.6,1.6.9.2,1.1.6,2.1,1.3,3,1.1,1.4,2.1,2.8,3.2,4.2,16.9,22.6,33.8,45.3,50.9,67.8,10.2,13.5,19.9,27.3,30.8,40.4,2.1,2.5,4.4,4,7.6,4.3,5.7.5,11.4,1.3,17.1,1.9,10.1,1.1,20.3,2,30.4,3.2,3.3.4,6.7.7,10,1,4.4.5,8.9,1,13.3,1.4,1.3.2,1.9.8,1.9,2.2,0,4.3.1,8.6,0,12.9,0,7,.2,14-.2,21.1-1,15.2-2.6,30.3-5.8,45.1-2.7,12.1-6.2,24.1-11.8,35.3-1.9,3.9-4.2,7.6-6.8,11-4.8,6.4-10,12.4-15.5,18.3-.8.8-1.6,1.6-2.4,2.3-7.7,6.1-15.9,11.2-24.6,15.6-6,3-12.5,3.8-19,4.2-11.3.7-22.3-1-32.7-5.7-1.8-.8-3.7-1-5.6-1-7.7,0-15.3,0-23-.3-12.6-.4-25.2-.9-37.8-1.7-11.3-.6-22.6-1.7-33.9-2.4-10.5-.7-21-1.9-31.5-3.1-2.4-.3-4.7-.7-7.1-1-1.5-.2-2,.2-2,1.9-.2,4.5-.3,8.9-.4,13.4,0,1.3,0,2.6-.1,3.8-1.6-.6-3.3-1-5.1-1-23.9,0-47.8.2-71.7,1-.2,0-.3,0-.5,0ZM840.2,764.1c0-1.4,0-3,0-4.6-.2-3.9-2.6-6.8-6.2-7.5-3.9-.7-7.8,1.5-9.2,5.3-.6,1.7-1,3.3-1,5.1,0,2.4.4,4.9-.2,7.2-.9,3.7-.6,7.3-.8,11,0,1.4.2,3-.1,4.3-1.1,3.8-.7,7.6-.8,11.4,0,1.3.1,2.6-.3,3.8-.8,2.4-.6,4.7-.7,7.1,0,2.7.2,5.5-.3,8.1-.5,2.4-.6,4.7-.6,7.1,0,2.6.3,5.2-.2,7.7-.8,3.5-.6,7-.8,10.5,0,1.3.2,2.6-.1,3.8-1.1,3.6-.7,7.3-.8,10.9,0,1.4.1,3-.3,4.3-.7,2.2-.6,4.4-.6,6.6,0,2.7.3,5.5-.3,8.1-.7,3.2-.6,6.3-.7,9.5,0,1.6.3,3.3-.2,4.8-1,3.3-.7,6.7-.8,10,0,1.4.2,3-.2,4.3-1.1,3.6-.7,7.3-.8,10.9,0,1.4.2,3-.1,4.3-1.1,3.8-.7,7.6-.8,11.4,0,1.3.1,2.6-.3,3.8-.8,2.4-.6,4.7-.7,7.1,0,2.7.2,5.5-.3,8.1-.5,2.4-.6,4.7-.6,7.1,0,2.6.3,5.2-.2,7.7-.8,3.5-.6,7-.8,10.5,0,1.3.2,2.6-.1,3.8-1.2,3.9-.7,7.9-.8,11.9,0,1.6.2,3.2-.4,4.8-.6,1.5-.6,3.1-.5,4.7.3,7.7-1.6,15.2-1.1,22.9,0,.8-.1,1.6-.4,2.3-.9,2.3-.3,4.4.5,6.5,1.3,3.4,5.2,5.6,8.9,5,3.6-.5,6.1-3.4,6.4-7.3.5-5.6,1.3-11.1,1-16.7,0-.6,0-1.3.2-1.9.9-2.3.7-4.7.7-7.1,0-2.6-.3-5.2.2-7.7.9-3.7.6-7.3.8-11,0-1.6-.2-3.3.2-4.8.8-2.7.7-5.4.7-8.1,0-1.9-.3-3.9.2-5.7,1-4,.7-7.9.8-11.9,0-1.1-.1-2.3.2-3.3.8-2.3.6-4.7.7-7.1,0-2.6-.3-5.2.2-7.7.8-3.3.6-6.7.8-10,0-.8,0-1.6,0-2.4,0-.2.3-.6.5-.7.2,0,.7,0,.8.2,1.1,1.6,2.1,3.2,3.1,4.9,2,3.3,3.8,6.7,5.9,9.8,5.5,8.2,11,16.5,16.6,24.6,3.5,4.9,7.2,9.7,11.1,14.4,3.6,4.4,7.2,8.9,11,13.2,4.9,5.5,9.5,11.2,14.7,16.4,3.9,3.8,7.7,7.7,11.5,11.6,5.2,5.4,10.8,10.3,16.8,14.9,4.4,3.4,8.9,6.8,13.7,9.6,2.6,1.6,5.3,2.7,8.6,2.5,3-.2,4.5-2,5.8-4.3,1.4-2.3.7-4.4-.7-6.3-1.6-2.2-3.4-4.2-5.2-6.3-1-1.2-2.3-2.2-3.8-2.9-7-3.3-12.9-8.3-18.4-13.6-7.5-7.2-14.9-14.4-21.6-22.4-2.5-3.1-5.3-6-7.8-9.1-3.2-3.9-6.3-8-9.4-12-3.7-4.8-7.6-9.5-11-14.4-5.5-8-11.2-15.9-16.3-24.2-4.7-7.8-9.5-15.5-13.5-23.7-3-6.1-6.1-12.3-9.1-18.5-.3-.6-.5-1.2-.5-1.8,0-2.7-.4-5.5.2-8.1.7-3.3.6-6.7.7-10,0-1.6-.3-3.3.1-4.8,1.1-4.3.7-8.6.9-12.9,0-1,0-2,.3-2.8.7-2,.6-4.1.7-6.2,0-2.9-.3-5.8.3-8.6.6-3,.6-6,.7-9,0-1.8-.3-3.6.2-5.3.9-3.3.7-6.7.8-10,0-1.6-.3-3.3.1-4.8,1.1-4.3.7-8.6.9-12.9,0-1,0-2,.3-2.8.7-2,.6-4.1.6-6.2,0-2.9-.3-5.8.3-8.6.5-2.7.6-5.4.7-8.3Z"/>
        <path class="cls-6" d="M910.7,757.9c-.5-.3-1.2-.5-1.6-.9-4.1-5.4-8.1-10.8-12.2-16.2-.3-.3-.3-.9-.4-1.3-.3-.3-.6-.6-.9-.9,0,0,0,0,0,0,.3-2.9,0-5.7-.3-8.6-.8-6.8-1.7-13.6-2.5-20.4-.8-6.8-1.4-13.6-2.2-20.4-.8-7-1.7-13.9-2.6-20.9-1.1-8.9-2.1-17.7-3.1-26.6.5-2.1.3-4.1-.1-6.2-1.1-5-.5-10.2-2.4-15-.1-.3,0-.6,0-.9-.7-6.9-1.4-13.9-2.2-20.8-.9-7.9-1.8-15.8-2.8-23.6-.4-3.5-.6-7-1.2-10.4-.5-2.8-.8-5.7-.6-8.5,2.9-1.5,6.1-1.6,9.3-1.9,8.1-.7,16.1-1.6,24.2-2.6,4.4-.6,8.9-.8,13.3-1.2,6.2-.6,12.4-1.2,18.5-1.7,4.3-.4,8.6-.8,12.8-1.1,2.6-.2,5.1-.6,7.2-2.1,3.7,1.9,6.9,4.6,10.2,7.1,8.8,6.4,17.5,12.8,26.2,19.3,1.7,1.3,3.2,1.5,5.2.4,7.7-4.1,15.6-8.1,23.4-12.1,4-2,8-3.9,12.1-5.8,1,1.8,2.7,2.7,4.4,3.5.9.4,1.8.7,2.7,1,13.1,4.5,26.3,9,39.4,13.5,11,3.8,22,7.7,33,11.6-.7,2.4-1.6,4.9-2.2,7.3-3.8,14.5-6.5,29.3-9.5,44-1.9,9.5-4,19-5.1,28.7-.7,6-1.7,12-2.6,18-.8,5.5-1.5,11.1-2.3,16.6-.8,6-1.7,12-2.6,18-.7,5.2-1.5,10.4-2.2,15.6-.9,6-1.7,12-2.6,18-.6,4.1-1.2,8.2-1.9,12.3-.3,1.9-1.2,2.3-3.1,1.8-1.8-.5-3.6-1.2-5.5-1.7-7.4-2-14.9-3.4-22.5-4.6-5.3-.9-10.7-1.5-16.1-2.1-4.3-.5-8.6-.6-12.9-1.2-7.8-1.1-15.6-1.2-23.4-1.5-18.2-.6-36.4-.6-54.6.7-5.6.4-11.2.6-16.7,1.2-7.1.8-14.2,1.9-21.3,2.8Z"/>
        <path class="cls-10" d="M910.7,757.9c7.1-1,14.2-2.1,21.3-2.8,5.5-.6,11.1-.8,16.7-1.2,18.2-1.4,36.4-1.3,54.6-.7,7.8.3,15.6.4,23.4,1.5,4.3.6,8.6.7,12.9,1.2,5.4.6,10.8,1.2,16.1,2.1,7.5,1.3,15.1,2.6,22.5,4.6,1.8.5,3.7,1.2,5.5,1.7,1.9.5,2.8,0,3.1-1.8.7-4.1,1.3-8.2,1.9-12.3.9-6,1.7-12,2.6-18,.7-5.2,1.5-10.4,2.2-15.6.9-6,1.7-12,2.6-18,.8-5.5,1.5-11.1,2.3-16.6.8-6,1.9-12,2.6-18,1.1-9.7,3.2-19.2,5.1-28.7,3-14.7,5.7-29.4,9.5-44,.7-2.5,1.5-4.9,2.2-7.3,4.9.6,9,3,13.2,5.4,5.3,3,9.8,7.1,14.6,10.8,2.4,1.9,4,4.6,5.6,7.1,1.9,2.9,3.5,6.1,4.8,9.3,3.3,8.4,5.5,17,5.6,26.1,0,5,0,9.9.1,14.9,0,2.4-.5,4.7-.9,7.1-1.3,6.9-2.1,13.9-3.9,20.6-3.7,13.7-7.8,27.4-14.9,39.8-2.6,4.6-5.1,9.2-8,13.6-2.7,4.1-5.9,8-8.9,11.8-6.5,8.2-13.2,16.4-19.8,24.6-1.9,2.4-3.9,4.7-6,6.9-3.8,3.9-7.1,8.2-10.5,12.4-.8,1-1.8,1.7-2.8,2.6-.5-2.6.7-5,1-7.5.5-3.9,1.1-7.8,1.7-11.8.5-3.5,0-6.7-2.8-9.2-2.1-1.8-5.3-1.9-7.4-.1-2,1.8-3.1,3.9-3.1,6.7,0,3.8,0,7.6-.8,11.4-.5,2.8-1.4,5.5-1.2,8.5.3,3.4,2.3,5.6,5.7,5.7,1.3,0,2.6,0,3.8,0-.5,4.9-1,9.8-1.4,14.7,0,.8-.3,1.6-.3,2.4-.3,6.2-1.1,12.3-1.8,18.5-.6,5-.7,10.1-1.2,15.2-.4,4.4-1.2,8.8-1.5,13.2-.4,6.8-1.9,13.5-1.4,20.4-4.4-.5-8.9-1-13.3-1.4-3.3-.4-6.7-.6-10-1-10.1-1.2-20.3-2.1-30.4-3.2-5.7-.6-11.4-1.3-17.1-1.9-3.2-.3-5.5-1.8-7.6-4.3-10.8-13-20.6-26.9-30.8-40.4-17-22.5-33.9-45.2-50.9-67.8-1.1-1.4-2.1-2.8-3.2-4.2-.7-.9-1.1-1.9-1.3-3Z"/>
        <path class="cls-10" d="M875.7,556.2c-.2,2.9,0,5.7.6,8.5.6,3.4.8,6.9,1.2,10.4.9,7.9,1.9,15.7,2.8,23.6.8,6.9,1.5,13.9,2.2,20.8,0,.3,0,.7,0,.9,2,4.8,1.4,10,2.4,15,.4,2,.6,4.1.1,6.2-1.3,1-2.5,2-3.8,2.9-11.1,8.3-22.3,16.6-33.4,24.8-.9.7-1.8,1.3-1.9,2.6-1.4,0-2.4.7-3.5,1.4-15.8,11.7-31.7,23.3-47.3,35.1-7.6,5.8-14.9,12.1-22.3,18.2-5.6,4.6-11,9.3-16.7,13.7-2.5,1.9-3.6,4.3-4.1,7.2-.6,3.3-1.3,6.6-2,9.9-3.8,18.8-7.5,37.5-11.3,56.3-3.6,18.1-7.3,36.3-10.9,54.4-.7,3.3-1.1,6.6-2,9.8-.9,3.3-.9,6.6-.9,10,0,5.1.4,10.2,0,15.3-.1,1.7.2,3.5.3,5.3,0,.6.3,1.3.3,1.9.4,8.9,1.6,17.8,1.4,26.8,0,.3-.2.6-.3,1.2-2.6-1.3-4.6-3.3-6.6-5.3-3.6-3.7-7.1-7.4-10.7-11-.8-.8-1.8-1.3-2.7-2,0-.2,0-.4-.1-.6,0-.3.1-.7,0-.9-2.5-4.7-2.1-10-2.4-14.9-.4-4.7.4-9.6,1.9-14.1.9-2.9.9-5.7.3-8.5-1.7-7.6-2.6-15.4-3.6-23.1-.7-5.5-1.7-11-2.5-16.5-.8-5.4-1.5-10.7-2.2-16.1-.9-6.1-1.7-12.3-2.6-18.4-.7-5.2-1.4-10.4-2.2-15.6-.8-6-1.7-12-2.6-18-.4-3.2-.8-6.3-1.3-9.5-.9-6.3-1.8-12.6-2.7-18.9-.7-4.7-1.5-9.4-2-14.2-.7-6.8,1.1-13.3,3.3-19.6,1.9-5.4,5.2-9.8,8.9-14.1,3.3-3.7,6.5-7.5,10-11,5.8-5.9,12-11.5,18.6-16.5,14.6-11.2,29.3-22.1,43.9-33.2,16.4-12.4,32.8-24.9,49.2-37.4,10.2-7.7,20.4-15.4,30.5-23.1,7.2-5.5,14.5-11.1,21.7-16.5,1.5-1.1,3.2-2.1,4.7-3.2Z"/>
        <path class="cls-5" d="M959,475.2c-1.5.5-1.7,1.7-1.8,3-.9,8.6-3.1,16.9-6,25.1-2,5.7-4.5,11.3-7.4,16.6-2.3,4.1-5.3,7.5-9.2,10.2-3.5,2.5-7.3,3.2-11.4,2.6-4.9-.7-9.1-2.8-12.8-6.1-2-1.8-3.7-3.9-5.3-6.2-12.4-17.9-19.6-37.9-23-59.3-1.8-11.2-2.4-22.5-2.7-33.9-.1-6.7.2-13.4,0-20.1-.2-13.6,2.2-26.7,7.5-39.2,2.5-5.9,5.7-11.5,9.5-16.6,4.3-5.9,9.7-10.6,16-14.3,6.7-4,14.1-4.9,21.7-4.9,1.9,0,3.8.4,5.7.6.2,2.9-1.1,5.2-3.1,7.2-3,2.9-6.3,5.6-8.7,8.9-4.9,7-9.8,14.1-12.9,22.3-4.4,11.2-7,22.8-7,34.8,0,2.9,0,5.7-.8,8.5-.6,2.3-.3,4.7.5,7.1,1.4,3.9,2.4,7.9,3.4,11.9,1.4,6.1,3.4,12,6.3,17.5,2.5,4.8,5.5,9.4,7.9,14.2,2.4,4.7,5.9,8.3,9.6,11.8,1.5,1.4,3.2,2.8,5.2,3.2,3.5.7,6.2-.8,8.4-3.5,2-2.5,2.3-5.2.7-8-.8-1.5-1.6-3.1-3-4.3-.8-.7-1.7-1.5-2.3-2.5-3.4-5-6.2-10.4-8.8-15.8-2.2-4.4-3.8-9.1-5.5-13.7-2.7-7.2-4.4-14.6-4.4-22.3,0-2.1.2-4.2,0-6.2-.4-4.8.5-9.5,1.2-14.2.8-6.1,2.5-12.1,5.2-17.8,2-4.2,4.4-8.1,7-11.9,4-5.8,9-10.7,13.5-16.1,2.1-2.5,3.3-5,2.9-8.3,3.7-.2,7.2-1.5,10.4-3.3,5.2-2.8,10.6-5.1,16.3-7,14.3-4.7,29-6.3,43.9-3.8,16.9,2.9,31.2,11,43.4,22.8,9.1,8.8,16,19,19.9,31.2,1.6,5,3,10.1,2.3,15.5-3.8.9-7,2.9-10.2,5.1-8.4,5.8-16.9,11.5-24.5,18.3-5.5,4.9-11.8,7.4-18.7,9-4.4,1-8.8,1.8-13.3,1.1-4.4-.7-8.8-1.3-13.2-2.1-3.5-.6-7-.7-10.5-.8-4.9-.1-9,1.8-12.3,5.4-3.6,3.9-6.7,8.1-9.3,12.7-2,3.5-4,6.9-6,10.4-4.8,8.4-9.6,16.8-14.5,25.2Z"/>
        <path class="cls-9" d="M959,475.2c4.8-8.4,9.6-16.8,14.5-25.2,2-3.5,4-6.9,6-10.4,2.6-4.6,5.7-8.8,9.3-12.7,3.3-3.6,7.4-5.5,12.3-5.4,3.5,0,7,.2,10.5.8,4.4.8,8.8,1.5,13.2,2.1,4.5.7,8.9,0,13.3-1.1,6.9-1.6,13.2-4.1,18.7-9,7.6-6.8,16.1-12.5,24.5-18.3,3.2-2.2,6.4-4.2,10.2-5.1.3,1.9.5,3.8.8,5.7.2,1.8,0,3.5-.2,5.2-1,5.9-1,11.8.9,17.5,1.7,5.2,4.6,9.8,7.9,14.1,3.3,4.3,7.3,8,11,12,3,3.2,5.6,6.6,7.4,10.5.6,1.3,1.1,2.6,1.1,4.1,0,2.6-.9,4.7-3.3,6-1.7.9-3.4,2-5.2,2.4-2.2.5-4.2,1.5-6.3,2.2-5.7,2.1-9.1,6.2-10.2,12.2-.9,4.7-1.8,9.4-2,14.2-.6,12.2-10.2,21.6-20.3,23.7-5,1-10,2-15.2,1.8-2.1-.1-4.2,0-6.2,0-1.6,0-3.1.5-4.6,1.1-2.4,1-3.9,2.7-4.4,5.3-.6,3.3-1.3,6.6-1.9,9.9-.9,5.2-1.7,10.4-2.5,15.6-4,1.9-8.1,3.8-12.1,5.8-7.8,4-15.7,8-23.4,12.1-2,1.1-3.5.8-5.2-.4-8.7-6.5-17.5-12.9-26.2-19.3-3.3-2.4-6.5-5.2-10.2-7.1,0-4.5.3-8.9.7-13.4.5-6,.7-12.1-.4-18.1-.2-1.2-.2-2.5-.2-3.8,0-6.4-.3-12.8-.2-19.2,0-4.7-.9-9.2-.9-13.8,0-.8-.5-1.5-1.1-2.1Z"/>
        <path class="cls-4" d="M739.5,1057.2c.2,0,.3,0,.5,0,23.9-.8,47.8-1,71.7-1,1.8,0,3.5.4,5.1,1,.4,2.7.4,5.4-.2,8.1-.4,1.5-.3,3.2-.3,4.8,0,4.4.4,8.9,0,13.3-.3,4.3-.3,8.6-.2,13,.1,3.9-.8,7.6-2,11.2-1.9,5.7-5.1,10.6-9.2,15-1,1.1-2.2,1.9-3.4,2.6-6.7,3.6-14,5.4-21.5,6.1-5.2.5-10.5,1.1-15.7,1.6-.8,0-1.6.2-2.4.2-7.5-.2-15,.7-22.5,1.3-8,.6-16,.7-23.9.5-8.4-.2-16.9-.3-25.3-1.7-13.4-2.2-23.7-9.2-30.3-21.1-2.6-4.5-3.6-9.6-3-14.8.7-5.4,3.5-9.5,8.2-12.3,2.9-1.7,6.2-2.7,9.3-3.8,17.2-6.1,34.3-12.2,51.5-18.2,3.5-1.2,6.9-2.5,10.4-3.7,1.2-.4,2.4-.8,3.3-1.9Z"/>
        <path class="cls-9" d="M334.8,962.6c0,1.8-.2,3.5-.3,5.3,0,5.3-1,10.5-1.7,15.7-1.1,7.7-2.2,15.4-3.3,23.2-1,6.9-2.2,13.8-3.3,20.8-.3,2-.6,4.1-.9,6.1-.5,3.8-1.5,7.4-2.8,11-2.8.4-5.7.5-8.5,1.2-3.9.9-7.9.8-11.9.8-6.4,0-12.8.3-19.2,0-9.6-.4-17.1-4.4-21.6-13.4-2-3.9-2.8-8.1-3.7-12.3-.8-4.2-.9-8.5-1.2-12.8-1.2-20.6-.9-41.2-.8-61.7,0-10.7,2.6-20.8,6.4-30.7.6-1.5,1.3-2.9,2.2-4.3,2.9-4.4,6.7-6.9,12.3-7,8.7-.2,15.7,3.2,21.9,9,6.3,6,11.1,13.1,15.5,20.6,4.7,8,9.3,16,14.6,23.6,1.6,2.2,3.3,4.3,6.1,5.1Z"/>
        <path class="cls-2" d="M955.3,335.5c.4,3.2-.8,5.7-2.9,8.3-4.4,5.4-9.5,10.3-13.5,16.1-2.6,3.8-5.1,7.7-7,11.9-2.7,5.7-4.3,11.7-5.2,17.8-.6,4.7-1.6,9.4-1.2,14.2.2,2.1,0,4.2,0,6.2,0,7.7,1.7,15.1,4.4,22.3,1.7,4.6,3.4,9.3,5.5,13.7,2.6,5.4,5.4,10.8,8.8,15.8.6.9,1.4,1.7,2.3,2.5,1.3,1.2,2.1,2.8,3,4.3,1.6,2.9,1.2,5.5-.7,8-2.1,2.7-4.9,4.2-8.4,3.5-2.1-.4-3.7-1.8-5.2-3.2-3.7-3.5-7.3-7.1-9.6-11.8-2.4-4.8-5.4-9.4-7.9-14.2-2.9-5.5-4.9-11.4-6.3-17.5-.9-4-1.9-8.1-3.4-11.9-.9-2.4-1.1-4.8-.5-7.1.7-2.9.8-5.7.8-8.5,0-12.1,2.6-23.6,7-34.8,3.2-8.1,8-15.2,12.9-22.3,2.4-3.4,5.7-6,8.7-8.9,2-2,3.3-4.3,3.1-7.2,5.5-1.4,10.5-.1,15.3,2.7Z"/>
        <path class="cls-11" d="M1082.9,800.9c-1.3,0-2.6,0-3.8,0-3.5-.1-5.4-2.3-5.7-5.7-.3-2.9.7-5.7,1.2-8.5.7-3.8.8-7.6.8-11.4,0-2.8,1.1-4.9,3.1-6.7,2.1-1.8,5.3-1.7,7.4.1,2.9,2.5,3.3,5.7,2.8,9.2-.6,3.9-1.3,7.8-1.7,11.8-.3,2.5-1.4,4.9-1,7.5-1,1.2-2,2.5-3,3.7Z"/>
        <path class="cls-8" d="M706.7,919.7c0,.2,0,.4.1.6-1,.5-2,.6-3.1.2.8-.8,2-.6,3-.8Z"/>
        <path class="cls-7" d="M840.2,764.1c0,2.9-.2,5.5-.7,8.3-.6,2.8-.2,5.7-.3,8.6,0,2.1.1,4.1-.6,6.2-.3.9-.2,1.9-.3,2.8-.1,4.3.3,8.6-.9,12.9-.4,1.5,0,3.2-.1,4.8-.1,3.3.2,6.7-.8,10-.5,1.6-.1,3.5-.2,5.3,0,3,0,6-.7,9-.6,2.8-.2,5.7-.3,8.6,0,2.1,0,4.1-.7,6.2-.3.9-.2,1.9-.3,2.8-.1,4.3.2,8.6-.9,12.9-.4,1.5,0,3.2-.1,4.8,0,3.3,0,6.7-.7,10-.6,2.6-.2,5.4-.2,8.1,0,.6.2,1.3.5,1.8,3,6.2,6,12.3,9.1,18.5,4,8.2,8.8,15.9,13.5,23.7,5.1,8.3,10.7,16.2,16.3,24.2,3.4,5,7.3,9.7,11,14.4,3.1,4,6.2,8.1,9.4,12,2.5,3.1,5.3,6,7.8,9.1,6.7,8,14.1,15.2,21.6,22.4,5.5,5.3,11.4,10.3,18.4,13.6,1.5.7,2.7,1.7,3.8,2.9,1.8,2.1,3.6,4.1,5.2,6.3,1.4,1.9,2,4,.7,6.3-1.3,2.3-2.8,4.1-5.8,4.3-3.2.2-5.9-.9-8.6-2.5-4.8-2.9-9.2-6.3-13.7-9.6-6-4.5-11.6-9.5-16.8-14.9-3.8-3.9-7.7-7.7-11.5-11.6-5.2-5.2-9.8-10.9-14.7-16.4-3.8-4.3-7.4-8.8-11-13.2-3.8-4.7-7.6-9.4-11.1-14.4-5.7-8.1-11.2-16.3-16.6-24.6-2.1-3.2-3.9-6.6-5.9-9.8-1-1.6-2-3.3-3.1-4.9-.1-.2-.6-.3-.8-.2-.2,0-.5.4-.5.7,0,.8,0,1.6,0,2.4-.1,3.3,0,6.7-.8,10-.6,2.4-.2,5.1-.2,7.7,0,2.4.1,4.8-.7,7.1-.4,1-.2,2.2-.2,3.3-.1,4,.2,8-.8,11.9-.5,1.8-.1,3.8-.2,5.7,0,2.7,0,5.4-.7,8.1-.4,1.5-.2,3.2-.2,4.8-.1,3.7,0,7.3-.8,11-.6,2.4-.2,5.1-.2,7.7,0,2.4.2,4.8-.7,7.1-.2.6-.2,1.3-.2,1.9.3,5.6-.5,11.1-1,16.7-.3,3.9-2.8,6.8-6.4,7.3-3.7.6-7.6-1.6-8.9-5-.8-2.1-1.4-4.2-.5-6.5.3-.7.5-1.6.4-2.3-.5-7.7,1.3-15.3,1.1-22.9,0-1.6,0-3.2.5-4.7.6-1.5.3-3.2.4-4.8.2-4-.4-8,.8-11.9.4-1.2,0-2.5.1-3.8.1-3.5,0-7,.8-10.5.6-2.4.2-5.1.2-7.7,0-2.4.2-4.7.6-7.1.5-2.6.2-5.4.3-8.1,0-2.4-.1-4.8.7-7.1.4-1.2.2-2.5.3-3.8.1-3.8-.3-7.7.8-11.4.4-1.3,0-2.9.1-4.3.1-3.7-.3-7.3.8-10.9.4-1.3.1-2.9.2-4.3.1-3.3-.2-6.7.8-10,.4-1.5.1-3.2.2-4.8,0-3.2,0-6.3.7-9.5.6-2.6.2-5.4.3-8.1,0-2.2,0-4.4.6-6.6.4-1.3.2-2.8.3-4.3.1-3.7-.3-7.3.8-10.9.4-1.2,0-2.5.1-3.8.1-3.5,0-7,.8-10.5.6-2.4.2-5.1.2-7.7,0-2.4.2-4.7.6-7.1.5-2.6.2-5.4.3-8.1,0-2.4-.1-4.8.7-7.1.4-1.2.2-2.5.3-3.8.1-3.8-.3-7.7.8-11.4.4-1.3,0-2.9.1-4.3.1-3.7-.1-7.3.8-11,.6-2.3.2-4.8.2-7.2,0-1.8.3-3.5,1-5.1,1.4-3.7,5.3-6,9.2-5.3,3.6.6,6,3.6,6.2,7.5,0,1.6,0,3.2,0,4.6Z"/>
        <path class="cls-1" d="M895.8,738.5c.3.3.6.6.9.9-.5-.1-.7-.4-.9-.9Z"/>
      </g>
    </g>
  </g>
</svg>