<svg width="500" height="500" viewBox="0 0 500 500" fill="none" xmlns="http://www.w3.org/2000/svg">
<path d="M237.021 394.91C237.315 391.723 237.566 388.494 237.985 385.307C238.363 382.413 237.818 382.791 240.795 382.539C245.199 382.162 249.602 381.7 254.005 381.197C255.264 381.029 256.522 380.861 257.78 380.652C258.493 380.526 259.08 380.61 259.667 380.987C264.951 384.384 270.822 386.523 276.861 388.117C279.965 388.913 283.026 390.004 286.171 390.675C291.078 391.723 295.985 392.814 300.933 393.82C303.366 394.323 305.84 394.575 308.272 394.91C317.289 396.085 326.347 396.169 335.364 396.001C340.773 395.917 346.225 395.623 351.635 395.036C355.619 394.575 359.645 394.407 363.671 394.072C368.368 393.736 373.023 393.359 377.72 393.023C381.578 392.73 385.479 392.478 389.337 392.184C394.831 391.765 400.282 391.346 405.776 390.843C407.831 390.675 409.928 390.423 411.899 389.71C411.354 388.2 410.892 386.691 410.725 385.097C410.599 384.216 410.473 383.378 410.347 382.539C409.886 379.645 409.425 376.752 408.963 373.816C408.46 370.587 408.041 367.358 407.579 364.087C407.286 361.906 406.908 359.725 406.866 357.502C406.866 356.748 406.783 356.035 406.741 355.28C405.818 354.86 404.895 354.609 403.847 354.567C398.437 354.231 393.069 353.435 387.659 352.764C381.494 352.009 375.288 351.338 369.081 350.583C365.81 350.205 362.581 349.744 359.268 349.828C358.135 349.828 357.003 349.576 355.871 349.451C354.068 349.241 352.306 348.989 350.503 348.78C350.251 348.78 349.958 348.696 349.706 348.654C346.938 348.612 344.296 348.025 341.612 347.563C338.467 347.018 335.238 346.683 332.051 346.305C328.067 345.802 324.082 345.383 320.057 344.921C316.785 344.544 313.514 344.208 310.285 343.873C306.972 343.537 303.617 343.16 300.304 342.824C297.159 342.489 294.055 342.195 290.91 341.86C288.771 341.65 286.633 341.315 284.494 341.231C281.81 341.105 279.168 340.686 276.526 340.308C271.242 339.553 265.874 339.134 260.548 338.547C257.696 338.253 254.802 337.96 251.951 337.666C251.489 337.834 251.07 337.792 250.651 337.582C250.273 337.876 249.854 338.086 249.518 338.421C248.008 339.931 246.541 341.482 245.031 343.034C244.234 343.873 243.395 344.67 242.263 345.257C242.179 345.005 242.137 344.879 242.137 344.754C242.053 340.979 242.557 337.247 242.724 333.514C242.724 333.263 242.85 332.969 242.85 332.718C242.892 331.963 243.018 331.25 242.976 330.495C242.85 328.356 242.976 326.217 242.976 324.079C242.976 322.653 242.976 321.269 242.599 319.885C242.221 318.543 242.011 317.117 241.76 315.775C240.25 308.184 238.698 300.552 237.189 292.961C235.595 285.077 234.043 277.235 232.45 269.351C232.156 267.967 231.863 266.583 231.611 265.199C231.401 263.983 230.898 262.976 229.892 262.179C227.501 260.334 225.237 258.363 222.888 256.434C219.785 253.876 216.765 251.234 213.536 248.801C206.952 243.811 200.284 238.988 193.7 234.081C193.239 233.746 192.819 233.452 192.232 233.494C191.309 234.501 190.555 235.591 189.842 236.723C189.255 237.688 188.584 238.653 187.913 239.533C182.754 246.453 177.554 253.372 172.354 260.25C172.018 260.67 171.809 261.173 171.263 261.424C171.222 261.592 171.096 261.718 170.886 261.76C170.844 261.97 170.844 262.179 170.718 262.305C169.041 264.57 167.321 266.834 165.602 269.099C165.476 269.309 165.183 269.351 164.931 269.476C164.847 269.938 164.679 270.357 164.386 270.734C163.924 271.322 163.505 271.909 163.044 272.496C155.956 281.974 148.869 291.493 141.698 300.929C137.42 306.591 133.352 312.378 128.781 317.872C127.9 318.92 126.936 319.549 125.594 319.675C123.203 319.885 120.813 320.22 118.423 320.472C114.187 320.933 109.909 321.311 105.674 321.814C104.29 321.982 102.864 322.108 101.48 322.233C99.6348 322.443 97.7476 322.653 95.9024 322.82C95.3572 322.904 95.1056 323.156 95.1056 323.743C95.1056 325.546 95.0636 327.35 95.1056 329.153C95.1056 332.089 95.0217 335.024 95.1895 338.002C95.6088 344.376 96.2798 350.709 97.6218 356.915C98.7541 361.99 100.222 367.022 102.57 371.719C103.367 373.355 104.332 374.906 105.422 376.332C107.435 379.016 109.616 381.532 111.922 384.007C112.258 384.342 112.593 384.678 112.929 384.971C116.158 387.529 119.597 389.668 123.245 391.514C125.762 392.772 128.488 393.107 131.213 393.275C135.952 393.568 140.565 392.855 144.927 390.884C145.682 390.549 146.479 390.465 147.275 390.465C150.505 390.465 153.692 390.465 156.921 390.339C162.205 390.172 167.489 389.962 172.773 389.626C177.512 389.375 182.251 388.913 186.99 388.62C191.393 388.326 195.797 387.823 200.2 387.32C201.207 387.194 202.171 387.026 203.178 386.9C203.807 386.817 204.016 386.984 204.016 387.697C204.1 389.584 204.142 391.43 204.184 393.317C204.184 393.862 204.184 394.407 204.226 394.91C204.897 394.659 205.61 394.491 206.365 394.491C216.388 394.491 226.411 394.575 236.434 394.91C236.518 394.91 236.56 394.91 236.643 394.91H237.021ZM194.79 271.993C194.79 271.405 194.79 270.734 194.79 270.063C194.874 268.428 195.881 267.212 197.39 266.918C199.026 266.625 200.661 267.547 201.249 269.141C201.5 269.854 201.668 270.525 201.668 271.28C201.668 272.286 201.5 273.335 201.752 274.299C202.129 275.851 202.003 277.361 202.087 278.912C202.087 279.499 202.003 280.17 202.129 280.716C202.591 282.309 202.423 283.903 202.465 285.496C202.465 286.042 202.423 286.587 202.591 287.09C202.926 288.096 202.842 289.061 202.884 290.067C202.884 291.2 202.8 292.374 203.01 293.464C203.22 294.471 203.262 295.435 203.262 296.442C203.262 297.532 203.136 298.623 203.345 299.671C203.681 301.139 203.597 302.607 203.681 304.074C203.681 304.62 203.597 305.165 203.723 305.668C204.184 307.178 204.016 308.73 204.058 310.239C204.058 310.826 204.016 311.497 204.184 312.043C204.478 312.965 204.436 313.888 204.436 314.81C204.436 315.943 204.31 317.117 204.562 318.207C204.855 319.549 204.813 320.849 204.855 322.191C204.855 322.862 204.729 323.575 204.939 324.204C205.358 325.588 205.233 327.014 205.275 328.398C205.275 328.985 205.191 329.656 205.358 330.201C205.82 331.711 205.652 333.263 205.694 334.773C205.694 335.36 205.61 336.031 205.736 336.576C206.197 338.169 206.029 339.763 206.071 341.357C206.071 341.902 206.029 342.447 206.197 342.95C206.533 343.957 206.449 344.921 206.491 345.928C206.491 347.06 206.407 348.234 206.616 349.325C206.826 350.331 206.868 351.296 206.868 352.302C206.868 353.393 206.742 354.483 206.952 355.531C207.287 356.999 207.204 358.467 207.287 359.935C207.287 360.48 207.204 361.025 207.329 361.528C207.833 363.164 207.623 364.841 207.665 366.519C207.665 367.19 207.581 367.861 207.833 368.532C208.084 369.161 208.084 369.832 208.042 370.503C207.917 373.732 208.713 376.877 208.504 380.107C208.504 380.442 208.546 380.778 208.671 381.071C209.049 382.036 208.797 382.916 208.462 383.797C207.917 385.223 206.281 386.146 204.729 385.894C203.22 385.684 202.171 384.468 202.045 382.833C201.836 380.484 201.5 378.177 201.626 375.829C201.626 375.577 201.626 375.284 201.542 375.032C201.165 374.068 201.249 373.061 201.249 372.055C201.249 370.964 201.374 369.874 201.165 368.826C200.787 367.274 200.913 365.764 200.829 364.212C200.829 363.541 200.913 362.828 200.745 362.199C200.41 361.067 200.452 359.935 200.452 358.803C200.452 358.006 200.578 357.167 200.368 356.412C199.948 354.735 200.074 353.099 200.032 351.422C200.032 350.96 200.074 350.457 199.948 350.038C199.613 349.073 199.697 348.067 199.655 347.06C199.655 345.97 199.781 344.879 199.571 343.831C199.236 342.447 199.319 341.021 199.236 339.637C199.236 339.302 199.236 338.966 199.236 338.631C199.236 338.547 199.11 338.379 199.026 338.337C198.942 338.337 198.732 338.337 198.69 338.421C198.229 339.092 197.81 339.763 197.39 340.476C196.552 341.86 195.797 343.286 194.916 344.586C192.609 348.025 190.303 351.505 187.954 354.902C186.487 356.957 184.935 358.97 183.299 360.941C181.79 362.787 180.28 364.674 178.686 366.477C176.631 368.784 174.702 371.174 172.522 373.355C170.886 374.948 169.292 376.584 167.699 378.219C165.518 380.484 163.17 382.539 160.653 384.468C158.808 385.894 156.921 387.32 154.908 388.494C153.818 389.165 152.685 389.626 151.301 389.542C150.043 389.459 149.414 388.704 148.869 387.739C148.282 386.775 148.575 385.894 149.163 385.097C149.834 384.175 150.588 383.336 151.343 382.455C151.763 381.952 152.308 381.532 152.937 381.239C155.873 379.855 158.347 377.758 160.653 375.535C163.799 372.516 166.902 369.496 169.712 366.142C170.76 364.841 171.934 363.625 172.983 362.325C174.325 360.69 175.625 358.97 176.925 357.293C178.477 355.28 180.112 353.309 181.538 351.254C183.845 347.899 186.235 344.586 188.374 341.105C190.345 337.834 192.358 334.605 194.035 331.166C195.293 328.608 196.594 326.008 197.852 323.408C197.977 323.156 198.061 322.904 198.061 322.653C198.061 321.52 198.229 320.346 197.977 319.256C197.684 317.872 197.726 316.446 197.684 315.062C197.684 314.391 197.81 313.678 197.642 313.049C197.181 311.246 197.348 309.442 197.265 307.639C197.265 307.22 197.265 306.8 197.139 306.465C196.845 305.626 196.887 304.745 196.845 303.865C196.845 302.649 196.971 301.432 196.719 300.258C196.468 299 196.468 297.742 196.426 296.484C196.426 295.729 196.552 294.974 196.342 294.261C195.964 292.877 196.048 291.451 196.006 290.067C196.006 289.397 196.132 288.684 195.964 288.055C195.503 286.251 195.671 284.448 195.587 282.645C195.587 282.225 195.587 281.806 195.461 281.47C195.168 280.632 195.21 279.751 195.21 278.87C195.21 277.654 195.335 276.438 195.084 275.264C194.874 274.131 194.832 272.999 194.79 271.783V271.993Z" fill="#696D65"/>
<path d="M165.224 269.391C165.434 269.265 165.728 269.181 165.895 269.014C167.615 266.749 169.292 264.484 171.012 262.22C171.138 262.094 171.138 261.842 171.18 261.675C171.305 261.549 171.431 261.423 171.557 261.297C171.431 260.081 171.557 258.907 171.683 257.691C172.018 254.839 172.396 251.987 172.731 249.135C173.067 246.284 173.318 243.432 173.654 240.58C173.989 237.645 174.367 234.751 174.744 231.815C175.206 228.083 175.625 224.392 176.044 220.66C175.835 219.779 175.918 218.941 176.086 218.06C176.548 215.963 176.296 213.782 177.093 211.769C177.135 211.644 177.093 211.518 177.093 211.392C177.386 208.498 177.68 205.563 178.015 202.669C178.393 199.356 178.77 196.043 179.19 192.772C179.357 191.304 179.441 189.836 179.693 188.41C179.902 187.236 180.028 186.02 179.944 184.846C178.728 184.217 177.386 184.175 176.044 184.049C172.647 183.755 169.292 183.378 165.895 182.959C164.05 182.707 162.163 182.623 160.318 182.455C157.718 182.204 155.118 181.952 152.559 181.742C150.756 181.575 148.953 181.407 147.191 181.281C146.101 181.197 145.053 181.029 144.172 180.4C142.62 181.197 141.278 182.329 139.894 183.378C136.204 186.062 132.555 188.746 128.907 191.472C128.194 192.017 127.565 192.101 126.726 191.64C123.497 189.92 120.184 188.243 116.913 186.565C115.235 185.726 113.558 184.93 111.838 184.133C111.419 184.888 110.706 185.265 109.993 185.601C109.616 185.768 109.238 185.894 108.861 186.02C103.367 187.907 97.8314 189.794 92.3377 191.681C87.7246 193.275 83.1115 194.911 78.4984 196.546C78.792 197.553 79.1694 198.601 79.421 199.608C81.0146 205.688 82.1469 211.895 83.405 218.06C84.2018 222.044 85.0826 226.028 85.5439 230.096C85.8374 232.612 86.2568 235.128 86.6342 237.645C86.9697 239.951 87.2633 242.3 87.5988 244.606C87.9343 247.122 88.3117 249.639 88.6892 252.155C88.9827 254.336 89.3182 256.516 89.6118 258.697C89.9892 261.213 90.3247 263.73 90.7021 266.246C90.9537 267.965 91.2054 269.685 91.4989 271.404C91.6247 272.201 92.0022 272.369 92.799 272.159C93.5538 271.949 94.3087 271.656 95.1055 271.446C98.2089 270.607 101.354 270.02 104.541 269.517C106.764 269.139 109.029 268.888 111.293 268.636C113.097 268.426 114.9 268.385 116.703 268.133C119.974 267.672 123.245 267.63 126.516 267.504C134.149 267.252 141.782 267.252 149.414 267.797C151.763 267.965 154.111 268.049 156.418 268.301C159.395 268.636 162.373 269.097 165.35 269.475L165.224 269.391Z" fill="#8989DE"/>
<path d="M165.225 269.39C162.247 268.97 159.27 268.509 156.292 268.215C153.985 267.964 151.637 267.88 149.288 267.712C141.656 267.125 134.023 267.167 126.391 267.419C123.12 267.544 119.849 267.586 116.578 268.048C114.774 268.299 112.971 268.341 111.168 268.551C108.903 268.803 106.638 269.054 104.416 269.432C101.27 269.977 98.0832 270.522 94.9799 271.361C94.225 271.57 93.4282 271.864 92.6733 272.074C91.8765 272.283 91.4991 272.074 91.3732 271.319C91.0797 269.599 90.8281 267.88 90.5765 266.161C90.199 263.644 89.8635 261.128 89.4861 258.612C89.1925 256.431 88.857 254.25 88.5635 252.07C88.186 249.553 87.8505 247.037 87.4731 244.521C87.1376 242.214 86.844 239.866 86.5085 237.559C86.173 235.043 85.7117 232.527 85.4182 230.011C84.9569 225.943 84.0762 221.959 83.2794 217.975C82.0213 211.81 80.889 205.645 79.2954 199.522C79.0018 198.474 78.6663 197.467 78.3727 196.461C76.3178 196.713 74.5984 197.719 72.837 198.726C70.6144 199.984 68.7272 201.703 66.7142 203.255C65.7077 204.052 65.0367 205.184 64.3657 206.232C63.5689 207.448 62.8979 208.79 62.3527 210.132C60.9688 213.655 60.0462 217.262 60.0043 221.078C60.0043 223.175 60.0043 225.23 59.9623 227.327C59.9623 228.333 60.172 229.298 60.3397 230.304C60.8849 233.198 61.2204 236.133 61.9753 238.943C63.527 244.689 65.2464 250.434 68.2239 255.634C69.3143 257.563 70.3627 259.493 71.5789 261.338C72.7112 263.057 74.0532 264.693 75.3113 266.286C78.0372 269.725 80.847 273.164 83.6149 276.603C84.4117 277.609 85.2504 278.574 86.1311 279.497C87.7247 281.132 89.1086 282.935 90.5345 284.697C90.87 285.116 91.2894 285.41 91.7088 285.787C91.9184 284.697 91.4152 283.69 91.2894 282.642C91.0797 281.006 90.8281 279.371 90.5765 277.693C90.3668 276.225 90.5764 274.883 91.7507 273.835C92.6314 273.08 93.9734 273.038 94.854 273.793C95.6928 274.548 96.1541 275.429 96.1541 276.603C96.1541 278.196 96.1541 279.79 96.4896 281.384C96.6993 282.558 97.0767 283.69 96.9928 284.948C96.867 286.374 96.0283 287.297 94.6024 287.339C94.0572 287.339 93.512 287.339 93.0088 287.339C93.2185 289.394 93.4282 291.449 93.5959 293.504C93.5959 293.839 93.7218 294.175 93.7218 294.51C93.8476 297.11 94.183 299.668 94.4766 302.268C94.7282 304.365 94.7702 306.504 94.9799 308.643C95.1476 310.488 95.4831 312.333 95.6089 314.179C95.7767 317.03 96.4057 319.84 96.196 322.734C98.0412 322.524 99.9284 322.314 101.774 322.147C103.158 321.979 104.583 321.895 105.967 321.727C110.203 321.224 114.481 320.847 118.716 320.385C121.107 320.134 123.497 319.84 125.888 319.588C127.23 319.463 128.194 318.834 129.075 317.785C133.604 312.333 137.714 306.504 141.991 300.843C149.121 291.407 156.208 281.887 163.337 272.409C163.799 271.822 164.218 271.235 164.679 270.648C164.973 270.27 165.141 269.851 165.225 269.39Z" fill="#FFB78A"/>
<path d="M179.903 184.805C179.987 186.021 179.903 187.195 179.651 188.369C179.399 189.795 179.316 191.263 179.148 192.731C178.77 196.044 178.351 199.315 177.974 202.628C177.638 205.522 177.344 208.457 177.051 211.351C177.051 211.477 177.051 211.644 177.051 211.728C176.212 213.741 176.464 215.922 176.044 218.019C175.877 218.858 175.793 219.738 176.002 220.619C176.548 221.038 177.051 221.458 177.596 221.835C182.251 225.316 186.948 228.797 191.603 232.236C191.981 232.529 192.358 232.781 192.4 233.326C192.987 233.326 193.406 233.62 193.868 233.913C200.494 238.82 207.162 243.684 213.704 248.633C216.891 251.065 219.953 253.707 223.056 256.266C225.404 258.195 227.669 260.166 230.06 262.011C231.108 262.808 231.569 263.814 231.779 265.03C232.031 266.414 232.324 267.798 232.618 269.182C234.211 277.066 235.763 284.909 237.357 292.793C238.866 300.384 240.418 308.016 241.928 315.607C242.221 316.991 242.389 318.375 242.766 319.717C243.144 321.1 243.144 322.484 243.144 323.91C243.144 326.049 242.976 328.188 243.144 330.327C243.186 331.04 243.06 331.794 243.018 332.549C243.018 332.801 242.892 333.095 242.892 333.346C242.725 337.079 242.221 340.811 242.305 344.585C242.305 344.711 242.389 344.837 242.431 345.089C243.521 344.543 244.36 343.705 245.199 342.866C246.709 341.314 248.176 339.763 249.686 338.253C250.022 337.917 250.441 337.708 250.818 337.414C250.818 337.33 250.818 337.246 250.86 337.162C250.86 337.037 250.818 336.869 250.86 336.785C251.909 334.814 251.741 332.591 251.867 330.536C252.035 328.565 251.699 326.51 251.07 324.623C250.693 323.407 250.693 322.233 250.944 321.059C251.657 317.871 252.035 314.6 252.454 311.371C252.747 309.065 253.167 306.758 253.502 304.451C253.838 302.187 254.131 299.964 254.425 297.7C254.802 295.141 255.138 292.541 255.515 289.983C255.809 287.802 256.102 285.622 256.438 283.441C256.773 280.925 257.151 278.408 257.528 275.892C257.696 274.55 257.864 273.25 258.074 271.908C258.451 269.266 258.828 266.624 259.206 263.982C259.499 262.011 259.835 260.04 260.045 258.027C260.338 255.175 259.583 252.449 258.661 249.807C257.864 247.543 256.48 245.697 254.928 243.894C253.544 242.342 252.202 240.749 250.735 239.281C248.302 236.807 245.702 234.458 242.934 232.361C236.811 227.664 230.647 223.093 224.524 218.438C217.646 213.238 210.768 207.996 203.891 202.754C199.613 199.525 195.336 196.295 191.1 193.066C188.08 190.76 185.019 188.411 181.999 186.147C181.37 185.685 180.658 185.266 180.028 184.805H179.903Z" fill="#FFB78A"/>
<path d="M144.969 150.835C145.598 151.045 145.682 151.548 145.724 152.093C146.101 155.7 147.024 159.181 148.24 162.62C149.079 165.01 150.127 167.358 151.344 169.581C152.308 171.301 153.566 172.726 155.202 173.859C156.67 174.907 158.263 175.201 159.983 174.949C162.037 174.656 163.799 173.775 165.351 172.391C166.189 171.636 166.902 170.755 167.573 169.791C172.773 162.284 175.793 153.897 177.219 144.922C177.974 140.225 178.225 135.486 178.351 130.705C178.393 127.896 178.267 125.086 178.351 122.276C178.435 116.573 177.428 111.079 175.206 105.837C174.157 103.362 172.815 101.014 171.222 98.875C169.418 96.4007 167.154 94.4297 164.512 92.878C161.702 91.2005 158.599 90.8231 155.411 90.8231C154.615 90.8231 153.818 90.9908 153.021 91.0747C152.937 92.2909 153.482 93.2554 154.321 94.0942C155.579 95.3104 156.963 96.4427 157.97 97.8266C160.025 100.762 162.079 103.74 163.379 107.179C165.225 111.876 166.315 116.74 166.315 121.773C166.315 122.989 166.315 124.163 166.651 125.337C166.902 126.302 166.776 127.308 166.441 128.315C165.854 129.95 165.434 131.628 165.015 133.305C164.428 135.864 163.589 138.338 162.373 140.644C161.325 142.657 160.066 144.587 159.06 146.6C158.053 148.571 156.586 150.08 155.034 151.548C154.405 152.135 153.692 152.722 152.853 152.89C151.385 153.184 150.253 152.555 149.331 151.422C148.492 150.374 148.366 149.242 149.037 148.067C149.372 147.438 149.708 146.767 150.295 146.264C150.631 145.97 151.008 145.635 151.26 145.216C152.686 143.119 153.86 140.854 154.95 138.59C155.873 136.744 156.544 134.773 157.257 132.844C158.389 129.825 159.102 126.721 159.102 123.492C159.102 122.611 159.018 121.731 159.102 120.892C159.27 118.879 158.892 116.908 158.599 114.937C158.263 112.379 157.55 109.863 156.418 107.472C155.579 105.711 154.573 104.075 153.482 102.482C151.805 100.049 149.708 97.9943 147.821 95.7297C146.94 94.6813 146.437 93.6329 146.605 92.249C145.053 92.1651 143.585 91.6199 142.243 90.865C140.062 89.6908 137.798 88.7262 135.407 87.9294C129.41 85.9584 123.246 85.2874 116.997 86.3358C109.91 87.552 103.913 90.9489 98.7962 95.8975C94.98 99.588 92.0863 103.866 90.4507 108.982C89.7797 111.079 89.1926 113.218 89.4862 115.482C91.0798 115.86 92.4218 116.698 93.7638 117.621C97.2865 120.053 100.851 122.444 104.038 125.295C106.345 127.35 108.987 128.399 111.881 129.07C113.726 129.489 115.571 129.825 117.458 129.531C119.304 129.238 121.149 128.986 122.994 128.65C124.462 128.399 125.93 128.357 127.397 128.315C129.452 128.273 131.172 129.07 132.556 130.58C134.065 132.215 135.365 133.976 136.456 135.906C137.295 137.373 138.133 138.799 138.972 140.267C140.985 143.79 142.998 147.312 145.053 150.835H144.969Z" fill="#824414"/>
<path d="M144.969 150.835C142.956 147.313 140.943 143.79 138.888 140.267C138.049 138.799 137.211 137.374 136.372 135.906C135.282 133.977 133.981 132.215 132.472 130.58C131.088 129.07 129.368 128.273 127.313 128.315C125.846 128.315 124.378 128.399 122.91 128.651C121.065 128.986 119.22 129.28 117.374 129.531C115.487 129.825 113.642 129.531 111.797 129.07C108.903 128.399 106.261 127.351 103.954 125.296C100.767 122.444 97.2025 120.054 93.6798 117.621C92.3378 116.699 90.9959 115.86 89.4022 115.482C89.2764 116.279 89.1925 117.076 89.0667 117.873C88.9828 118.628 89.0668 119.341 89.1506 120.054C89.57 122.528 89.57 125.002 88.7732 127.393C88.0603 129.573 86.8441 131.502 85.4601 133.306C84.0762 135.109 82.3987 136.661 80.847 138.338C79.5889 139.68 78.4986 141.106 77.7437 142.742C77.4921 143.287 77.2824 143.832 77.2824 144.461C77.2824 145.551 77.6598 146.432 78.6663 146.977C79.3793 147.355 80.0922 147.816 80.847 147.984C81.7697 148.193 82.6084 148.613 83.4891 148.906C85.8795 149.787 87.3054 151.506 87.7667 154.023C88.1441 155.994 88.5215 157.965 88.6054 159.978C88.857 165.094 92.883 169.036 97.1187 169.917C99.2155 170.336 101.312 170.756 103.493 170.672C104.374 170.63 105.255 170.672 106.093 170.672C106.764 170.672 107.393 170.881 108.022 171.133C109.029 171.552 109.658 172.265 109.868 173.356C110.119 174.74 110.413 176.124 110.664 177.507C111.042 179.688 111.377 181.869 111.713 184.05C113.39 184.847 115.11 185.643 116.787 186.482C120.058 188.16 123.371 189.837 126.601 191.556C127.439 192.018 128.068 191.892 128.781 191.389C132.43 188.663 136.12 185.979 139.769 183.295C141.153 182.288 142.495 181.114 144.046 180.317C144.046 178.43 143.921 176.585 143.753 174.698C143.543 172.181 143.459 169.623 143.921 167.107C144.004 166.604 144.004 166.059 144.004 165.513C144.004 162.829 144.13 160.146 144.088 157.462C144.088 155.49 144.466 153.603 144.466 151.674C144.466 151.339 144.675 151.045 144.927 150.794L144.969 150.835Z" fill="#FFB68A"/>
<path d="M237.021 394.91C236.937 394.91 236.895 394.91 236.811 394.91C226.788 394.574 216.765 394.49 206.742 394.49C205.988 394.49 205.275 394.658 204.604 394.91C204.436 396.042 204.436 397.174 204.688 398.307C204.855 398.936 204.813 399.649 204.813 400.32C204.813 402.165 204.646 404.052 204.813 405.897C204.939 407.7 204.939 409.504 204.897 411.349C204.855 412.985 205.233 414.536 205.736 416.046C206.533 418.436 207.875 420.491 209.594 422.337C210.014 422.798 210.517 423.133 211.02 423.427C213.83 424.937 216.891 425.692 220.037 425.985C222.217 426.195 224.44 426.446 226.621 426.656C226.956 426.656 227.292 426.74 227.627 426.74C230.772 426.656 233.918 427.034 237.063 427.285C240.418 427.537 243.773 427.579 247.086 427.495C250.609 427.411 254.173 427.369 257.696 426.782C263.316 425.859 267.635 422.924 270.403 417.933C271.493 416.046 271.913 413.907 271.661 411.726C271.368 409.462 270.193 407.742 268.222 406.568C267.006 405.855 265.622 405.436 264.322 404.975C257.109 402.416 249.938 399.858 242.725 397.342C241.257 396.839 239.831 396.294 238.363 395.79C237.86 395.623 237.357 395.455 236.979 394.994L237.021 394.91Z" fill="#FFB68B"/>
<path d="M406.741 355.236C406.741 355.991 406.825 356.704 406.867 357.459C406.867 359.682 407.286 361.862 407.579 364.043C408.041 367.272 408.502 370.501 408.963 373.772C409.383 376.666 409.886 379.56 410.347 382.495C410.473 383.334 410.599 384.215 410.725 385.053C410.934 386.647 411.354 388.157 411.899 389.667C413.073 389.834 414.289 389.876 415.464 390.17C417.099 390.547 418.777 390.505 420.454 390.505C423.138 390.505 425.822 390.631 428.506 390.505C432.532 390.338 435.677 388.66 437.565 384.886C438.403 383.25 438.739 381.489 439.116 379.727C439.452 377.966 439.494 376.163 439.619 374.36C440.123 365.72 439.997 357.081 439.955 348.484C439.955 343.997 438.865 339.761 437.271 335.61C437.019 334.981 436.726 334.393 436.348 333.806C435.132 331.961 433.539 330.913 431.19 330.871C427.542 330.787 424.606 332.213 422.006 334.645C419.364 337.161 417.351 340.139 415.506 343.284C413.535 346.639 411.605 349.994 409.383 353.181C408.712 354.104 407.999 354.985 406.825 355.32L406.741 355.236Z" fill="#FFB68A"/>
<path d="M146.52 92.2501C146.353 93.5921 146.856 94.6405 147.737 95.7309C149.582 97.9955 151.721 100.05 153.398 102.483C154.488 104.076 155.537 105.712 156.334 107.473C157.466 109.864 158.137 112.38 158.514 114.938C158.766 116.909 159.185 118.88 159.018 120.893C158.934 121.774 159.018 122.655 159.018 123.493C159.018 126.722 158.305 129.826 157.172 132.845C156.46 134.774 155.747 136.745 154.866 138.591C153.776 140.855 152.601 143.12 151.175 145.217C150.924 145.594 150.588 145.93 150.211 146.265C149.666 146.768 149.33 147.439 148.953 148.068C148.282 149.285 148.45 150.375 149.246 151.423C150.127 152.556 151.301 153.185 152.769 152.891C153.65 152.723 154.321 152.136 154.95 151.549C156.501 150.081 158.011 148.572 158.976 146.601C159.982 144.588 161.24 142.659 162.289 140.646C163.505 138.339 164.344 135.865 164.931 133.307C165.308 131.629 165.728 129.91 166.357 128.316C166.734 127.31 166.818 126.303 166.566 125.339C166.273 124.122 166.231 122.948 166.231 121.774C166.231 116.699 165.141 111.877 163.295 107.18C161.953 103.783 159.94 100.805 157.885 97.8277C156.879 96.4019 155.495 95.3115 154.237 94.0953C153.398 93.2566 152.853 92.292 152.937 91.0758C150.63 90.4887 148.533 91.0339 146.52 92.2081V92.2501Z" fill="#5D3718"/>
<path d="M93.0085 287.423C93.5537 287.423 94.0989 287.423 94.6021 287.423C96.0699 287.381 96.8667 286.459 96.9925 285.033C97.1183 283.817 96.699 282.643 96.4893 281.468C96.1957 279.875 96.1538 278.281 96.1538 276.687C96.1538 275.513 95.6925 274.633 94.8537 273.878C93.9731 273.123 92.6311 273.165 91.7504 273.92C90.5342 274.968 90.3665 276.31 90.5762 277.778C90.8278 279.413 91.1213 281.049 91.2891 282.726C91.4149 283.775 91.8762 284.781 91.7084 285.872C92.1278 286.375 92.5472 286.92 92.9666 287.423H93.0085Z" fill="#E7A47C"/>
<path d="M250.776 337.246C250.776 337.33 250.776 337.414 250.734 337.498C251.154 337.707 251.573 337.749 252.034 337.582C251.699 337.246 251.196 337.33 250.776 337.246Z" fill="#CAB8B5"/>
<path d="M194.79 271.993C194.79 273.21 194.874 274.3 195.084 275.474C195.335 276.648 195.168 277.865 195.209 279.081C195.209 279.961 195.168 280.8 195.461 281.681C195.587 282.058 195.545 282.478 195.587 282.855C195.629 284.658 195.461 286.462 195.964 288.265C196.132 288.894 195.964 289.607 196.006 290.278C196.048 291.662 195.922 293.088 196.342 294.472C196.551 295.143 196.384 295.939 196.426 296.694C196.426 297.952 196.426 299.211 196.719 300.469C196.971 301.643 196.803 302.859 196.845 304.075C196.845 304.956 196.845 305.795 197.139 306.675C197.264 307.053 197.222 307.472 197.264 307.85C197.306 309.653 197.181 311.456 197.642 313.26C197.81 313.889 197.642 314.602 197.684 315.273C197.684 316.656 197.684 318.082 197.977 319.466C198.229 320.557 198.061 321.731 198.061 322.863C198.061 323.115 197.977 323.408 197.852 323.618C196.593 326.218 195.335 328.776 194.035 331.376C192.358 334.815 190.345 338.044 188.374 341.316C186.235 344.796 183.886 348.109 181.538 351.464C180.112 353.561 178.477 355.532 176.925 357.503C175.625 359.181 174.325 360.9 172.983 362.536C171.934 363.836 170.76 365.052 169.712 366.352C166.902 369.707 163.799 372.726 160.653 375.746C158.347 377.969 155.872 380.065 152.937 381.449C152.308 381.743 151.805 382.162 151.343 382.666C150.588 383.546 149.833 384.385 149.162 385.308C148.575 386.104 148.324 386.985 148.869 387.95C149.414 388.914 150.043 389.669 151.301 389.753C152.643 389.837 153.776 389.376 154.908 388.705C156.921 387.488 158.766 386.062 160.653 384.679C163.17 382.791 165.518 380.695 167.699 378.43C169.292 376.794 170.928 375.201 172.521 373.565C174.702 371.384 176.631 368.994 178.686 366.688C180.28 364.884 181.79 362.997 183.299 361.152C184.893 359.181 186.487 357.21 187.954 355.113C190.345 351.716 192.651 348.277 194.916 344.796C195.797 343.454 196.551 342.028 197.39 340.686C197.81 340.015 198.229 339.303 198.69 338.632C198.732 338.548 198.942 338.506 199.026 338.548C199.11 338.548 199.235 338.715 199.235 338.841C199.235 339.177 199.235 339.512 199.235 339.848C199.277 341.232 199.235 342.658 199.571 344.041C199.823 345.048 199.655 346.18 199.655 347.271C199.655 348.277 199.613 349.284 199.948 350.248C200.116 350.668 200.032 351.171 200.032 351.632C200.074 353.31 199.948 354.987 200.368 356.623C200.577 357.377 200.41 358.216 200.452 359.013C200.452 360.145 200.452 361.278 200.745 362.41C200.913 363.039 200.829 363.752 200.829 364.423C200.871 365.975 200.829 367.484 201.165 369.036C201.416 370.042 201.248 371.175 201.248 372.265C201.248 373.272 201.165 374.278 201.542 375.243C201.626 375.494 201.626 375.788 201.626 376.039C201.5 378.388 201.836 380.695 202.045 383.043C202.171 384.679 203.219 385.895 204.729 386.104C206.281 386.356 207.916 385.433 208.462 384.008C208.797 383.127 209.049 382.246 208.671 381.282C208.546 380.988 208.462 380.611 208.504 380.317C208.713 377.088 207.958 373.901 208.042 370.713C208.042 370.042 208.042 369.371 207.833 368.742C207.581 368.113 207.707 367.4 207.665 366.729C207.581 365.052 207.833 363.374 207.329 361.739C207.162 361.236 207.329 360.69 207.287 360.145C207.245 358.677 207.287 357.21 206.952 355.742C206.7 354.735 206.868 353.603 206.868 352.513C206.868 351.506 206.784 350.542 206.616 349.535C206.407 348.445 206.533 347.271 206.491 346.138C206.491 345.132 206.533 344.125 206.197 343.161C206.029 342.658 206.113 342.112 206.071 341.567C206.029 339.974 206.197 338.338 205.736 336.786C205.568 336.241 205.736 335.57 205.694 334.983C205.652 333.431 205.82 331.922 205.358 330.412C205.191 329.867 205.316 329.196 205.274 328.609C205.232 327.225 205.358 325.799 204.939 324.415C204.771 323.786 204.897 323.073 204.855 322.402C204.855 321.06 204.855 319.76 204.561 318.418C204.31 317.327 204.478 316.153 204.436 315.021C204.436 314.098 204.436 313.176 204.184 312.253C204.016 311.708 204.1 311.079 204.058 310.45C204.016 308.898 204.184 307.388 203.723 305.879C203.555 305.375 203.723 304.83 203.681 304.285C203.639 302.817 203.681 301.349 203.345 299.882C203.094 298.875 203.261 297.743 203.261 296.652C203.261 295.646 203.178 294.681 203.01 293.675C202.8 292.585 202.926 291.41 202.884 290.278C202.884 289.271 202.926 288.265 202.59 287.3C202.423 286.797 202.507 286.252 202.465 285.707C202.423 284.113 202.59 282.478 202.129 280.926C201.961 280.381 202.129 279.71 202.087 279.123C202.045 277.571 202.129 276.061 201.752 274.51C201.5 273.545 201.668 272.497 201.668 271.49C201.668 270.735 201.542 270.022 201.248 269.351C200.661 267.8 199.026 266.835 197.39 267.129C195.88 267.38 194.874 268.638 194.79 270.274C194.79 270.945 194.79 271.616 194.79 272.203V271.993Z" fill="#494A45"/>
<path d="M171.473 261.256C171.347 261.382 171.222 261.507 171.096 261.633C171.305 261.591 171.389 261.466 171.473 261.256Z" fill="#FCFCFC"/>
</svg>
