<svg width="500" height="500" viewBox="0 0 500 500" fill="none" xmlns="http://www.w3.org/2000/svg">
<path d="M319.864 395.599C321.9 394.906 323.893 394.169 325.93 393.476C329.526 392.219 333.036 390.703 336.243 388.623C339.882 386.24 343.436 383.726 346.815 380.953C349.025 379.133 351.192 377.357 353.055 375.19C356.522 371.16 359.425 366.827 361.375 361.888C362.588 358.768 363.411 355.561 363.455 352.181C363.585 344.772 360.681 338.879 354.355 334.849C351.019 332.726 347.335 331.599 343.436 331.166C340.489 330.819 337.499 330.733 334.509 331.036C331.78 331.339 329.006 331.339 326.233 331.513C325.323 331.556 324.457 331.599 323.547 331.773C322.94 331.903 322.29 331.859 321.683 331.903C321.423 332.379 321.164 332.899 320.904 333.376C319.907 335.066 318.867 336.669 317.394 337.969C315.227 339.875 313.017 341.782 310.851 343.689C310.721 343.819 310.461 343.862 310.287 343.862C309.941 343.819 309.941 343.472 309.941 343.212C309.941 341.479 309.897 339.745 310.114 338.012C310.504 335.066 310.374 332.076 310.721 329.129C311.111 325.75 311.111 322.37 311.284 318.99C311.284 318.773 311.284 318.557 311.284 318.383C311.501 315.35 311.761 312.317 311.977 309.284C312.194 305.991 312.324 302.654 312.497 299.361C312.497 299.231 312.497 299.101 312.497 298.928C312.757 295.461 313.017 292.038 313.234 288.572C313.451 285.452 313.581 282.375 313.754 279.255C313.754 278.995 313.841 278.692 313.841 278.432C314.144 276.006 314.144 273.622 314.144 271.196C314.144 269.073 313.364 267.383 311.544 266.083C309.594 264.653 307.774 263.093 305.911 261.533C301.058 257.503 296.248 253.43 291.178 249.747C285.675 245.761 280.302 241.687 274.843 237.658C274.366 237.311 273.933 237.008 273.326 237.051C272.373 238.091 271.593 239.218 270.856 240.388C270.25 241.341 269.643 242.251 268.993 243.117C263.533 250.397 258.074 257.677 252.614 264.956C252.224 265.433 251.921 265.996 251.314 266.256C251.271 266.473 251.271 266.689 251.141 266.819C249.407 269.159 247.631 271.499 245.854 273.839C245.724 274.056 245.421 274.099 245.161 274.229C245.118 274.966 244.641 275.486 244.208 276.006C241.781 279.255 239.355 282.505 236.928 285.755C237.015 286.275 237.448 286.535 237.795 286.882C240.091 288.875 241.348 291.475 241.608 294.465C241.954 298.148 241.608 301.788 240.308 305.297C237.838 312.1 233.982 318.037 228.305 322.63C225.315 325.056 222.109 326.92 218.209 327.613C214.656 328.219 211.666 327.396 209.066 324.97C208.72 324.666 208.416 324.233 207.94 324.103C207.203 325.403 206.033 326.053 204.56 326.183C202.09 326.443 199.62 326.746 197.15 327.006C192.73 327.483 188.354 327.873 183.978 328.393C182.548 328.566 181.074 328.696 179.644 328.826C177.738 329.043 175.788 329.259 173.881 329.433C173.318 329.519 173.058 329.779 173.058 330.386C173.058 332.249 173.015 334.112 173.058 335.976C173.058 339.009 172.971 342.042 173.145 345.119C173.578 351.705 174.271 358.248 175.658 364.661C176.828 369.904 178.345 375.104 180.771 379.957C181.594 381.647 182.591 383.25 183.674 384.723C185.754 387.496 188.007 390.096 190.391 392.653C190.737 392.999 191.084 393.346 191.43 393.649C194.767 396.292 198.32 398.502 202.09 400.409C204.69 401.709 207.506 402.055 210.323 402.229C215.219 402.532 219.986 401.795 224.492 399.802C225.272 399.456 226.052 399.369 226.919 399.369C230.428 399.369 233.982 399.326 237.491 399.196C242.344 399.022 247.154 398.762 252.007 398.546C252.007 393.823 252.007 389.056 252.007 384.333C252.007 383.943 251.921 383.51 251.877 383.12C251.271 383.206 250.924 383.683 250.534 384.03C249.234 385.286 247.977 386.586 246.721 387.843C245.898 388.666 245.118 389.576 244.164 390.313C241.781 392.219 239.528 394.213 236.971 395.902C235.715 396.726 234.458 397.592 233.072 398.242C231.988 398.762 230.862 398.762 229.822 398.416C228.045 397.809 227.439 395.426 228.608 393.953C229.215 393.129 229.908 392.349 230.558 391.569C231.165 390.876 231.858 390.356 232.682 389.966C234.198 389.273 235.541 388.32 236.841 387.28C239.008 385.546 240.958 383.596 242.951 381.69C245.638 379.09 248.151 376.317 250.621 373.5C252.787 370.987 254.737 368.301 256.86 365.744C259.937 362.104 262.58 358.161 265.31 354.261C266.74 352.225 268.083 350.102 269.383 348.022C270.77 345.769 272.156 343.559 273.369 341.219C275.276 337.622 277.009 333.939 278.829 330.256C278.916 330.083 279.002 329.866 279.002 329.649C279.002 328.263 279.176 326.876 278.829 325.533C278.656 324.84 278.569 324.19 278.612 323.496C278.786 320.16 277.919 316.91 278.136 313.574C278.136 313.314 278.136 313.01 278.006 312.75C277.703 311.927 277.746 311.104 277.746 310.28C277.746 309.024 277.919 307.724 277.659 306.554C277.313 304.951 277.399 303.391 277.313 301.788C277.313 301.311 277.399 300.791 277.269 300.358C276.749 298.668 276.966 296.934 276.923 295.201C276.923 294.725 277.009 294.205 276.879 293.771C276.359 292.081 276.576 290.348 276.489 288.615C276.489 288.268 276.533 287.878 276.489 287.575C275.926 285.755 276.186 283.848 276.099 281.985C276.099 281.422 276.099 280.859 275.969 280.339C275.493 278.475 275.709 276.612 275.709 274.749C275.709 273.579 276.403 272.669 277.443 272.106C279.219 271.196 281.559 272.019 282.296 273.926C282.599 274.706 282.772 275.486 282.772 276.352C282.772 277.479 282.642 278.605 282.902 279.645C283.119 280.685 283.162 281.682 283.162 282.722C283.162 283.849 283.032 284.975 283.249 286.015C283.596 287.532 283.509 289.048 283.596 290.565C283.596 291.128 283.509 291.691 283.639 292.211C284.116 293.858 283.942 295.505 283.986 297.151C283.986 297.714 283.899 298.278 284.029 298.798C284.549 300.488 284.332 302.221 284.419 303.954C284.419 304.431 284.376 304.951 284.505 305.384C284.852 306.381 284.765 307.421 284.809 308.461C284.809 309.587 284.679 310.714 284.895 311.754C285.242 313.27 285.155 314.787 285.242 316.303C285.242 316.867 285.155 317.43 285.285 317.95C285.762 319.597 285.589 321.243 285.632 322.89C285.632 323.453 285.545 324.016 285.675 324.536C286.152 326.183 285.892 327.829 286.065 329.476C286.282 331.946 286.585 334.416 286.499 336.929C286.499 337.146 286.499 337.362 286.585 337.536C286.932 338.316 286.845 339.182 286.845 340.005C286.845 341.262 286.672 342.562 286.932 343.732C287.279 345.335 287.192 346.895 287.279 348.498C287.279 348.975 287.192 349.495 287.322 349.928C287.842 351.618 287.625 353.351 287.712 355.085C287.712 355.691 287.625 356.385 287.842 356.948C288.189 357.988 288.102 358.984 288.145 360.024C288.145 361.151 288.015 362.278 288.232 363.318C288.579 364.747 288.492 366.221 288.535 367.651C288.535 368.257 288.449 368.951 288.622 369.514C289.099 371.074 288.925 372.677 288.969 374.237C288.969 374.8 288.882 375.364 289.055 375.884C289.445 377.097 289.402 378.353 289.359 379.567C289.359 381.083 289.359 382.6 289.749 384.073C290.095 384.246 290.442 384.506 290.832 384.636C297.981 387.193 305.131 389.706 312.237 392.219C314.621 393.086 317.09 393.823 319.17 395.382C319.257 395.469 319.43 395.469 319.56 395.469L319.864 395.599Z" fill="#696D65"/>
<path d="M245.334 274.229C245.551 274.099 245.854 274.013 246.028 273.839C247.804 271.499 249.537 269.16 251.314 266.82C251.444 266.69 251.444 266.43 251.487 266.256C251.877 263.093 252.311 259.973 252.657 256.81C253.004 253.777 253.307 250.787 253.654 247.754C254.13 243.594 254.65 239.391 255.17 235.231C255.604 231.462 256.08 227.692 256.514 223.922C256.297 223.012 256.384 222.145 256.557 221.236C257.034 219.069 256.774 216.816 257.597 214.736C257.64 214.606 257.597 214.476 257.597 214.346C257.9 211.356 258.204 208.323 258.55 205.333C258.94 201.91 259.33 198.53 259.763 195.107C259.937 193.59 260.023 192.074 260.283 190.601C260.5 189.387 260.63 188.131 260.543 186.917C259.287 186.267 257.9 186.224 256.514 186.094C253.004 185.791 249.537 185.401 246.028 184.967C244.121 184.707 242.171 184.621 240.265 184.447C237.708 184.231 235.195 183.971 232.638 183.711C229.908 183.451 227.135 183.234 224.405 183.018C221.892 187.784 219.336 192.55 216.822 197.36C214.916 200.957 213.053 204.596 211.146 208.236C210.843 208.843 210.496 209.449 210.106 210.013C209.283 211.269 208.33 211.356 207.16 210.316C206.77 209.926 206.38 209.536 206.033 209.103C204.906 207.63 203.78 206.113 202.61 204.64C199.62 200.74 196.587 196.883 193.64 192.94C192.167 191.034 190.607 189.171 189.351 187.091C188.527 187.437 187.704 187.827 186.881 188.131C177.218 191.467 167.598 194.76 157.936 198.097C157.156 198.357 156.376 198.703 155.639 199.007C155.942 200.047 156.332 201.13 156.592 202.17C158.239 208.453 159.409 214.866 160.709 221.236C161.532 225.352 162.442 229.468 162.919 233.672C163.222 236.271 163.655 238.871 164.045 241.471C164.392 243.854 164.695 246.281 165.042 248.664C165.389 251.264 165.779 253.864 166.168 256.464C166.472 258.717 166.818 260.97 167.122 263.223C167.512 265.823 167.858 268.423 168.248 271.023C168.508 272.799 168.768 274.576 169.072 276.353C169.202 277.176 169.592 277.349 170.415 277.133C171.195 276.916 171.975 276.569 172.798 276.396C176.048 275.703 179.298 274.966 182.548 274.403C184.844 273.969 187.184 273.753 189.524 273.493C191.387 273.276 193.25 273.233 195.114 272.973C198.493 272.496 201.873 272.453 205.253 272.323C213.139 272.063 221.026 272.063 228.912 272.626C231.338 272.799 233.765 272.886 236.148 273.146C239.225 273.493 242.301 273.969 245.378 274.359L245.334 274.229Z" fill="#8989DE"/>
<path d="M260.5 186.83C260.587 188.087 260.5 189.3 260.24 190.514C259.98 191.987 259.893 193.503 259.72 195.02C259.33 198.443 258.897 201.823 258.507 205.246C258.16 208.236 257.857 211.269 257.554 214.259C257.554 214.389 257.554 214.562 257.554 214.649C256.687 216.729 256.947 218.982 256.514 221.149C256.34 222.015 256.254 222.925 256.47 223.835C257.034 224.268 257.554 224.702 258.117 225.092C262.927 228.688 267.78 232.285 272.589 235.838C272.979 236.141 273.369 236.401 273.413 236.964C274.019 236.964 274.453 237.268 274.929 237.571C280.346 241.601 285.762 245.717 291.265 249.66C296.378 253.344 301.188 257.417 305.998 261.446C307.861 263.006 309.681 264.61 311.631 265.996C313.451 267.296 314.187 268.986 314.231 271.109C314.231 273.536 314.231 275.962 313.927 278.346C313.927 278.606 313.841 278.909 313.841 279.169C313.667 282.289 313.537 285.365 313.321 288.485C313.104 291.951 312.844 295.375 312.584 298.841C312.584 298.971 312.584 299.101 312.584 299.274C312.411 302.568 312.281 305.904 312.064 309.197C311.891 312.23 311.631 315.264 311.371 318.297C311.371 318.513 311.371 318.73 311.371 318.903C311.197 322.283 311.154 325.706 310.807 329.043C310.461 331.989 310.591 334.979 310.201 337.926C309.984 339.616 310.071 341.392 310.027 343.125C310.027 343.385 310.027 343.732 310.374 343.775C310.547 343.775 310.807 343.732 310.937 343.602C313.147 341.695 315.314 339.789 317.48 337.882C318.954 336.582 319.994 334.936 320.99 333.289C321.25 332.813 321.51 332.336 321.77 331.816C322.68 329.433 323.59 327.05 324.543 324.666C326.017 320.94 327.533 317.213 329.006 313.487C329.353 312.664 329.656 311.797 329.873 310.93C330.22 309.501 330.696 308.157 331.26 306.814C332.993 302.784 334.033 298.538 335.376 294.421C336.416 291.215 337.326 287.922 338.279 284.672C339.363 280.945 340.446 277.219 341.572 273.536C342.092 271.846 342.136 270.113 342.482 268.423C342.872 266.473 343.132 264.48 343.349 262.486C343.652 259.54 342.916 256.723 341.919 253.95C341.096 251.61 339.666 249.66 338.063 247.84C336.676 246.237 335.246 244.591 333.729 243.074C331.216 240.518 328.53 238.091 325.67 235.924C319.907 231.505 314.057 227.172 308.294 222.795C301.751 217.812 295.165 212.829 288.622 207.846C283.292 203.773 277.919 199.743 272.589 195.67C269.296 193.157 265.96 190.644 262.667 188.174C262.017 187.697 261.28 187.264 260.63 186.787L260.5 186.83Z" fill="#FFB78A"/>
<path d="M245.334 274.232C242.258 273.798 239.181 273.322 236.105 273.018C233.721 272.758 231.295 272.672 228.868 272.498C220.982 271.935 213.096 271.935 205.21 272.195C201.83 272.325 198.45 272.368 195.07 272.845C193.207 273.105 191.344 273.148 189.48 273.365C187.141 273.625 184.801 273.885 182.504 274.275C179.254 274.881 176.005 275.575 172.755 276.268C171.931 276.441 171.151 276.745 170.371 277.005C169.548 277.221 169.158 277.005 169.028 276.225C168.725 274.448 168.465 272.672 168.205 270.895C167.815 268.295 167.468 265.695 167.078 263.095C166.775 260.842 166.428 258.589 166.125 256.336C165.735 253.736 165.388 251.136 164.998 248.536C164.652 246.153 164.348 243.726 164.002 241.343C163.655 238.743 163.179 236.144 162.875 233.544C162.399 229.341 161.489 225.224 160.665 221.108C159.365 214.738 158.195 208.368 156.549 202.042C156.246 200.959 155.899 199.919 155.596 198.879C153.472 199.139 151.696 200.179 149.876 201.219C147.579 202.519 145.629 204.295 143.55 205.899C142.51 206.722 141.816 207.892 141.123 208.975C140.3 210.232 139.606 211.618 139.043 213.005C137.613 216.645 136.66 220.371 136.617 224.314C136.617 226.481 136.617 228.604 136.573 230.771C136.573 231.767 136.79 232.677 136.963 233.63C137.44 236.057 137.83 238.527 138.263 240.953C138.393 241.777 138.523 242.6 138.783 243.38C140.04 247.193 141.036 251.093 142.596 254.776C143.463 256.812 144.546 258.762 145.543 260.712C146.063 261.709 146.669 262.619 147.189 263.615C148.663 266.302 150.613 268.642 152.519 271.025C155.336 274.621 158.195 278.131 161.099 281.684C161.922 282.724 162.789 283.721 163.699 284.674C165.345 286.364 166.775 288.227 168.248 290.047C168.595 290.481 169.028 290.784 169.462 291.174C169.678 290.047 169.158 289.007 169.028 287.924C168.812 286.234 168.552 284.544 168.292 282.811C168.075 281.294 168.292 279.908 169.505 278.825C170.415 278.045 171.801 278.001 172.711 278.781C173.578 279.561 174.055 280.471 174.055 281.684C174.055 283.331 174.055 284.978 174.401 286.624C174.618 287.837 175.008 289.007 174.921 290.307C174.791 291.781 173.925 292.734 172.451 292.777C171.888 292.777 171.325 292.777 170.805 292.777C171.021 294.9 171.238 297.024 171.411 299.147C171.411 299.494 171.541 299.84 171.541 300.187C171.671 302.873 172.018 305.516 172.321 308.203C172.581 310.456 172.625 312.709 172.841 315.006C173.015 316.783 173.275 318.559 173.448 320.336C173.708 323.326 174.271 326.315 174.098 329.392C176.005 329.175 177.954 328.959 179.861 328.785C181.291 328.655 182.764 328.525 184.194 328.352C188.571 327.832 192.99 327.442 197.367 326.965C199.837 326.705 202.306 326.402 204.776 326.142C206.25 326.012 207.419 325.362 208.156 324.062C208.156 323.412 207.766 322.892 207.506 322.329C206.25 319.686 205.816 316.913 206.163 314.053C206.553 311.063 207.16 308.073 208.416 305.3C208.936 304.173 209.326 302.96 209.933 301.92C211.016 300.057 212.273 298.324 213.399 296.504C214.439 294.857 216.129 293.774 217.169 292.084C217.516 291.521 218.296 291.304 218.772 290.784C220.852 288.661 223.365 287.274 226.009 286.061C227.265 285.498 228.608 285.064 229.995 285.021C232.118 284.934 234.285 284.718 236.321 285.714C236.538 285.844 236.885 285.758 237.145 285.801C239.571 282.551 241.998 279.301 244.424 276.051C244.857 275.488 245.334 275.011 245.377 274.275L245.334 274.232Z" fill="#FFB78A"/>
<path d="M226.052 91.1989C224.275 91.0689 222.715 90.3756 221.155 89.5957C217.689 87.8191 214.092 86.4325 210.279 85.6092C207.55 85.0026 204.82 84.6993 202.046 84.4826C196.847 84.0926 191.864 85.2192 187.141 87.3425C179.601 90.7223 173.535 95.792 169.245 102.855C167.382 105.931 165.995 109.268 165.302 112.821C166.255 112.951 167.035 112.474 167.815 111.998C168.422 111.651 168.985 111.304 169.592 110.958C170.068 110.698 170.502 110.698 170.978 110.958C171.195 111.088 171.455 111.218 171.715 111.391C178.128 115.248 184.497 119.104 190.91 122.961C193.207 124.347 195.547 125.734 197.843 127.077C199.62 128.117 201.57 128.55 203.606 128.42C206.553 128.247 209.543 128.03 212.489 127.814C215.046 127.597 215.956 128.074 217.169 130.327C217.299 130.587 217.429 130.803 217.559 131.063C219.856 136.306 222.152 141.593 224.405 146.836C224.795 147.789 225.359 148.742 225.272 149.782C225.142 151.732 225.359 153.639 225.575 155.545C226.572 160.832 228.305 165.858 230.775 170.581C231.772 172.531 233.115 174.134 234.935 175.391C236.495 176.518 238.185 176.821 240.048 176.561C242.171 176.258 243.991 175.304 245.551 173.874C246.374 173.138 247.067 172.271 247.717 171.361C253.09 163.605 256.254 154.939 257.683 145.623C258.463 140.77 258.723 135.873 258.853 130.933C258.897 128.03 258.767 125.127 258.853 122.224C258.94 116.331 257.9 110.655 255.604 105.195C254.52 102.638 253.134 100.212 251.487 98.0019C249.624 95.4454 247.284 93.4088 244.554 91.8055C241.694 90.1156 238.575 89.6823 235.368 89.6823C234.458 89.6823 233.591 89.8556 232.681 89.9423C232.595 91.1989 233.158 92.1955 234.025 93.0621C235.325 94.3187 236.755 95.4887 237.795 96.9186C239.918 99.9518 242.041 103.028 243.384 106.538C245.291 111.391 246.417 116.418 246.417 121.617C246.417 122.874 246.417 124.087 246.764 125.3C247.024 126.297 246.894 127.337 246.547 128.377C245.941 130.067 245.507 131.8 245.074 133.533C244.468 136.176 243.601 138.733 242.344 141.116C241.261 143.196 239.961 145.189 238.921 147.269C237.881 149.306 236.365 150.866 234.761 152.382C234.111 152.989 233.375 153.596 232.508 153.769C230.992 154.072 229.822 153.422 228.868 152.252C228.002 151.169 227.872 149.999 228.565 148.786C228.912 148.136 229.258 147.443 229.865 146.923C230.212 146.619 230.602 146.273 230.862 145.839C232.335 143.673 233.548 141.333 234.675 138.993C235.628 137.086 236.321 135.05 237.058 133.057C238.228 129.937 238.964 126.73 238.964 123.394C238.964 122.484 238.878 121.574 238.964 120.707C239.138 118.627 238.748 116.591 238.445 114.554C238.098 111.911 237.361 109.311 236.191 106.841C235.325 105.021 234.285 103.332 233.158 101.685C231.425 99.1718 229.258 97.0486 227.308 94.7087C226.399 93.6254 225.879 92.5422 226.052 91.1122V91.1989Z" fill="#824414"/>
<path d="M225.532 155.589C225.315 153.682 225.142 151.775 225.229 149.825C225.272 148.786 224.752 147.832 224.362 146.879C222.109 141.636 219.812 136.35 217.516 131.107C217.386 130.847 217.256 130.63 217.126 130.37C215.956 128.117 215.046 127.64 212.446 127.857C209.5 128.117 206.51 128.333 203.563 128.463C201.527 128.593 199.577 128.16 197.8 127.12C195.46 125.777 193.164 124.39 190.867 123.004C184.454 119.147 178.085 115.291 171.672 111.434C171.455 111.304 171.195 111.174 170.935 111.001C170.502 110.698 170.025 110.698 169.548 111.001C168.942 111.348 168.335 111.694 167.772 112.041C166.992 112.518 166.255 112.994 165.259 112.864C165.042 113.211 164.869 113.601 164.869 114.034C164.739 116.504 164.392 118.974 164.435 121.487C164.522 125.083 164.869 128.637 165.172 132.233C165.432 135.136 165.779 137.996 166.212 140.856C166.689 144.062 167.425 147.226 168.032 150.432C168.855 154.722 170.112 158.882 171.542 162.998C172.322 165.208 173.318 167.331 174.401 169.454C175.485 171.534 177.131 172.271 179.298 172.271C180.901 172.271 182.504 172.271 184.064 172.271C184.844 172.271 185.581 172.444 186.274 172.748C187.314 173.224 187.964 173.918 188.181 175.044C188.441 176.474 188.701 177.904 189.004 179.334C189.264 180.677 189.524 182.064 189.741 183.407C189.957 184.664 190.087 185.877 189.394 187.047C190.651 189.127 192.21 190.99 193.684 192.897C196.63 196.796 199.663 200.696 202.653 204.596C203.78 206.069 204.906 207.586 206.076 209.059C206.423 209.492 206.813 209.926 207.203 210.272C208.373 211.312 209.283 211.226 210.149 209.969C210.539 209.406 210.886 208.799 211.189 208.192C213.096 204.596 214.959 200.956 216.866 197.316C219.379 192.55 221.892 187.783 224.449 182.974C223.539 181.717 223.409 180.331 223.755 178.857C223.842 178.511 223.885 178.164 223.885 177.817C223.755 173.918 224.275 170.104 224.449 166.205C224.579 163.301 224.752 160.398 224.839 157.495C224.839 156.802 224.969 156.108 225.532 155.632V155.589Z" fill="#FFB68A"/>
<path d="M319.863 395.6C319.733 395.6 319.56 395.6 319.473 395.514C317.394 393.954 314.924 393.217 312.54 392.35C305.391 389.794 298.241 387.281 291.135 384.768C290.745 384.638 290.398 384.378 290.052 384.204C288.578 383.944 287.149 383.424 285.805 382.774C285.155 382.471 284.549 382.298 283.855 382.298C283.465 382.298 283.032 382.211 282.642 382.168C281.949 382.168 281.256 382.298 280.562 382.254C276.576 382.254 272.546 382.168 268.56 381.994C264.14 381.821 259.72 381.908 255.3 381.864C254.694 381.864 254.044 381.778 253.437 381.734C252.744 381.908 252.267 382.341 252.094 383.078C252.137 383.468 252.224 383.901 252.224 384.291C252.224 389.014 252.224 393.78 252.224 398.503C252.05 401.493 253.09 404.223 254.347 406.866C255.084 408.47 256.34 409.683 257.51 410.939C257.987 411.416 258.593 411.806 259.243 412.109C261.887 413.279 264.66 414.059 267.606 414.406C269.729 414.666 271.896 414.579 273.976 415.056C274.236 415.099 274.539 415.143 274.799 415.099C277.832 415.013 280.866 415.359 283.899 415.663C288.882 416.139 293.865 416.009 298.848 415.879C301.708 415.793 304.654 415.793 307.514 415.186C310.114 414.666 312.584 413.713 314.707 412.153C317.437 410.159 319.647 407.69 320.773 404.44C321.683 401.883 321.683 399.283 320.383 396.77C320.21 396.424 320.08 395.99 319.907 395.644L319.863 395.6Z" fill="#FFB68A"/>
<path d="M226.052 91.199C225.879 92.5856 226.399 93.6689 227.309 94.7955C229.215 97.1353 231.425 99.2586 233.158 101.772C234.285 103.418 235.368 105.108 236.191 106.928C237.361 109.398 238.055 111.998 238.445 114.641C238.705 116.678 239.138 118.714 238.965 120.794C238.878 121.704 238.965 122.614 238.965 123.481C238.965 126.817 238.228 130.024 237.058 133.143C236.321 135.137 235.585 137.173 234.675 139.08C233.548 141.42 232.335 143.76 230.862 145.926C230.602 146.316 230.255 146.663 229.865 147.009C229.302 147.529 228.955 148.223 228.565 148.873C227.872 150.129 228.045 151.256 228.869 152.339C229.778 153.509 230.992 154.159 232.508 153.856C233.418 153.682 234.112 153.076 234.762 152.469C236.365 150.952 237.925 149.393 238.921 147.356C239.961 145.276 241.261 143.283 242.344 141.203C243.601 138.82 244.424 136.263 245.074 133.62C245.464 131.887 245.898 130.11 246.548 128.464C246.938 127.424 247.024 126.384 246.764 125.387C246.461 124.131 246.418 122.917 246.418 121.704C246.418 116.461 245.291 111.478 243.384 106.625C241.998 103.115 239.918 100.039 237.795 97.0054C236.755 95.5321 235.325 94.4055 234.025 93.1489C233.158 92.2823 232.595 91.2857 232.682 90.0291C230.298 89.4224 228.132 89.9857 226.052 91.199Z" fill="#5D3718"/>
<path d="M170.762 292.86C171.325 292.86 171.888 292.86 172.408 292.86C173.925 292.817 174.748 291.864 174.878 290.391C175.008 289.134 174.575 287.921 174.358 286.707C174.055 285.061 174.011 283.414 174.011 281.768C174.011 280.554 173.535 279.644 172.668 278.865C171.758 278.085 170.372 278.128 169.462 278.908C168.205 279.991 168.032 281.378 168.248 282.894C168.508 284.584 168.812 286.274 168.985 288.007C169.115 289.091 169.592 290.131 169.418 291.257C169.852 291.777 170.285 292.34 170.718 292.86H170.762Z" fill="#E7A47C"/>
<path d="M252.05 383.034C252.224 382.298 252.7 381.908 253.394 381.691C253.48 381.518 253.48 381.258 253.61 381.128C254.694 379.871 255.777 378.615 256.86 377.401C258.203 375.885 259.59 374.455 260.847 372.938C262.84 370.468 264.79 367.955 266.74 365.485C270.509 360.546 274.019 355.432 277.226 350.103C278.049 348.759 278.872 347.373 279.696 346.03C279.826 345.813 279.999 345.553 280.476 345.726C280.476 346.55 280.476 347.416 280.476 348.326C280.476 348.89 280.389 349.453 280.519 349.973C280.996 351.619 280.822 353.266 280.866 354.912C280.866 355.476 280.779 356.039 280.909 356.559C281.429 358.249 281.212 359.982 281.299 361.715C281.299 362.192 281.256 362.712 281.386 363.145C281.776 364.229 281.646 365.312 281.689 366.439C281.689 367.478 281.559 368.562 281.776 369.558C282.165 371.118 282.036 372.722 282.122 374.281C282.122 374.888 282.079 375.538 282.252 376.145C282.512 377.011 282.512 377.921 282.512 378.831C282.512 379.958 282.512 381.041 282.555 382.168C282.945 382.168 283.379 382.298 283.769 382.298C284.462 382.298 285.069 382.471 285.719 382.774C287.062 383.424 288.492 383.944 289.965 384.204C289.618 382.731 289.532 381.214 289.575 379.698C289.575 378.441 289.662 377.228 289.272 376.015C289.098 375.495 289.228 374.931 289.185 374.368C289.142 372.765 289.315 371.205 288.838 369.645C288.665 369.082 288.795 368.388 288.752 367.782C288.708 366.352 288.752 364.879 288.449 363.449C288.189 362.409 288.362 361.239 288.362 360.156C288.362 359.116 288.362 358.076 288.059 357.079C287.885 356.516 287.972 355.866 287.929 355.216C287.885 353.483 288.059 351.749 287.539 350.059C287.409 349.626 287.539 349.106 287.495 348.629C287.452 347.026 287.495 345.466 287.149 343.863C286.889 342.65 287.062 341.393 287.062 340.137C287.062 339.313 287.105 338.49 286.802 337.667C286.715 337.493 286.672 337.277 286.715 337.06C286.802 334.547 286.499 332.12 286.282 329.607C286.152 327.961 286.369 326.314 285.892 324.667C285.719 324.147 285.892 323.584 285.849 323.021C285.805 321.374 285.979 319.684 285.502 318.081C285.329 317.561 285.502 316.998 285.459 316.435C285.415 314.918 285.459 313.401 285.112 311.885C284.852 310.845 285.025 309.675 285.025 308.592C285.025 307.552 285.069 306.512 284.722 305.515C284.549 305.082 284.635 304.562 284.635 304.085C284.592 302.352 284.765 300.619 284.245 298.929C284.115 298.409 284.245 297.846 284.202 297.282C284.159 295.636 284.332 293.946 283.855 292.343C283.682 291.823 283.855 291.259 283.812 290.696C283.769 289.179 283.812 287.663 283.465 286.146C283.205 285.106 283.379 283.936 283.379 282.853C283.379 281.813 283.335 280.816 283.119 279.777C282.902 278.693 282.989 277.567 282.989 276.483C282.989 275.617 282.859 274.837 282.512 274.057C281.776 272.194 279.436 271.327 277.659 272.237C276.576 272.8 275.926 273.71 275.926 274.88C275.926 276.743 275.666 278.607 276.186 280.47C276.316 280.99 276.316 281.553 276.316 282.116C276.402 283.98 276.143 285.843 276.706 287.706C276.792 288.009 276.706 288.399 276.706 288.746C276.749 290.479 276.576 292.213 277.096 293.902C277.226 294.336 277.096 294.856 277.139 295.332C277.182 297.066 277.009 298.799 277.486 300.489C277.616 300.922 277.486 301.442 277.529 301.919C277.572 303.522 277.529 305.082 277.876 306.685C278.136 307.898 277.962 309.155 277.962 310.412C277.962 311.235 277.919 312.058 278.222 312.881C278.309 313.141 278.352 313.445 278.352 313.705C278.136 317.041 278.959 320.291 278.829 323.628C278.829 324.321 278.829 325.014 279.046 325.664C279.392 327.007 279.176 328.437 279.219 329.781C279.219 329.997 279.132 330.214 279.046 330.387C277.226 334.027 275.493 337.71 273.586 341.35C272.373 343.69 270.986 345.9 269.6 348.153C268.3 350.276 266.956 352.356 265.526 354.393C262.797 358.292 260.11 362.235 257.077 365.875C254.954 368.432 253.047 371.118 250.837 373.632C248.367 376.448 245.854 379.221 243.168 381.821C241.174 383.771 239.224 385.721 237.058 387.411C235.758 388.451 234.415 389.404 232.898 390.097C232.075 390.487 231.338 391.007 230.775 391.701C230.125 392.48 229.432 393.304 228.825 394.084C227.655 395.6 228.262 397.94 230.038 398.547C231.078 398.893 232.205 398.893 233.288 398.374C234.675 397.724 235.931 396.9 237.188 396.034C239.701 394.344 241.998 392.35 244.381 390.444C245.291 389.707 246.071 388.797 246.937 387.974C248.237 386.717 249.494 385.418 250.751 384.161C251.141 383.771 251.487 383.338 252.094 383.251L252.05 383.034Z" fill="#494A45"/>
<path d="M237.101 285.756C236.841 285.756 236.495 285.756 236.278 285.669C234.241 284.673 232.075 284.889 229.952 284.976C228.565 285.063 227.222 285.453 225.965 286.016C223.322 287.229 220.765 288.616 218.729 290.739C218.252 291.216 217.472 291.476 217.126 292.039C216.086 293.686 214.396 294.769 213.356 296.459C212.229 298.279 210.973 300.012 209.889 301.875C209.283 302.958 208.893 304.128 208.373 305.255C207.116 308.028 206.466 311.018 206.119 314.008C205.773 316.824 206.206 319.641 207.463 322.284C207.723 322.847 208.113 323.367 208.113 324.017C208.589 324.147 208.893 324.581 209.239 324.884C211.839 327.267 214.829 328.134 218.382 327.527C222.282 326.834 225.488 324.971 228.478 322.544C234.155 317.951 238.011 312.058 240.481 305.212C241.738 301.702 242.128 298.062 241.781 294.379C241.478 291.389 240.221 288.833 237.968 286.796C237.621 286.493 237.188 286.233 237.101 285.669V285.756Z" fill="#E6A37B"/>
<path d="M282.642 382.125C282.642 380.999 282.642 379.915 282.599 378.789C282.599 377.879 282.599 377.012 282.339 376.102C282.166 375.539 282.252 374.889 282.209 374.239C282.166 372.679 282.252 371.076 281.862 369.516C281.603 368.519 281.776 367.436 281.776 366.396C281.776 365.313 281.863 364.186 281.473 363.103C281.299 362.67 281.386 362.15 281.386 361.673C281.343 359.94 281.516 358.207 280.996 356.517C280.866 355.997 280.996 355.433 280.953 354.87C280.909 353.224 281.083 351.577 280.606 349.93C280.433 349.41 280.563 348.847 280.563 348.284C280.563 347.417 280.563 346.507 280.563 345.684C280.043 345.467 279.913 345.771 279.783 345.987C278.959 347.33 278.136 348.717 277.313 350.06C274.106 355.39 270.596 360.503 266.827 365.443C264.877 367.956 262.97 370.469 260.934 372.896C259.677 374.456 258.247 375.886 256.947 377.359C255.864 378.615 254.781 379.829 253.697 381.085C253.567 381.215 253.567 381.475 253.481 381.649C254.087 381.649 254.737 381.779 255.344 381.779C259.764 381.779 264.183 381.692 268.603 381.909C272.59 382.082 276.619 382.125 280.606 382.169C281.299 382.169 281.992 382.082 282.686 382.082L282.642 382.125Z" fill="#696D65"/>
</svg>
