<?xml version="1.0" encoding="UTF-8"?>
<svg xmlns="http://www.w3.org/2000/svg" version="1.1" viewBox="0 0 1417.3 1417.3">
  <defs>
    <style>
      .cls-1 {
        fill: #5d3718;
      }

      .cls-2 {
        fill: #696d65;
      }

      .cls-3 {
        fill: #e6a37b;
      }

      .cls-4 {
        fill: #824414;
      }

      .cls-5 {
        fill: #8989de;
      }

      .cls-6 {
        fill: #494a45;
      }

      .cls-7 {
        fill: #ffb68a;
      }

      .cls-8 {
        fill: #ffb78a;
      }

      .cls-9 {
        fill: #e7a47c;
      }
    </style>
  </defs>
  <!-- Generator: Adobe Illustrator 28.7.1, SVG Export Plug-In . SVG Version: 1.2.0 Build 142)  -->
  <g>
    <g id="_레이어_1" data-name="레이어_1">
      <g>
        <path class="cls-2" d="M547.5,1080c-4.7-1.6-9.3-3.3-14-4.9-8.3-2.9-16.4-6.4-23.8-11.2-8.4-5.5-16.6-11.3-24.4-17.7-5.1-4.2-10.1-8.3-14.4-13.3-8-9.3-14.7-19.3-19.2-30.7-2.8-7.2-4.7-14.6-4.8-22.4-.3-17.1,6.4-30.7,21-40,7.7-4.9,16.2-7.5,25.2-8.5,6.8-.8,13.7-1,20.6-.3,6.3.7,12.7.7,19.1,1.1,2.1.1,4.1.2,6.2.6,1.4.3,2.9.2,4.3.3.6,1.1,1.2,2.3,1.8,3.4,2.3,3.9,4.7,7.6,8.1,10.6,5,4.4,10.1,8.8,15.1,13.2.3.3.9.4,1.3.4.8-.1.8-.9.8-1.5,0-4,.1-8-.4-12-.9-6.8-.6-13.7-1.4-20.5-.9-7.8-.9-15.6-1.3-23.4,0-.5,0-1,0-1.4-.5-7-1.1-14-1.6-21-.5-7.6-.8-15.3-1.2-22.9,0-.3,0-.6,0-1-.6-8-1.2-15.9-1.7-23.9-.5-7.2-.8-14.3-1.2-21.5,0-.6-.2-1.3-.2-1.9-.7-5.6-.7-11.1-.7-16.7,0-4.9,1.8-8.8,6-11.8,4.5-3.3,8.7-6.9,13-10.5,11.2-9.3,22.3-18.7,34-27.2,12.7-9.2,25.1-18.6,37.7-27.9,1.1-.8,2.1-1.5,3.5-1.4,2.2,2.4,4,5,5.7,7.7,1.4,2.2,2.8,4.3,4.3,6.3,12.6,16.8,25.2,33.6,37.8,50.4.9,1.1,1.6,2.4,3,3,.1.5.1,1,.4,1.3,4,5.4,8.1,10.8,12.2,16.2.3.5,1,.6,1.6.9.1,1.7,1.2,2.9,2.2,4.1,5.6,7.5,11.2,15,16.8,22.5-.2,1.2-1.2,1.8-2,2.6-5.3,4.6-8.2,10.6-8.8,17.5-.8,8.5,0,16.9,3,25,5.7,15.7,14.6,29.4,27.7,40,6.9,5.6,14.3,9.9,23.3,11.5,8.2,1.4,15.1-.5,21.1-6.1.8-.7,1.5-1.7,2.6-2,1.7,3,4.4,4.5,7.8,4.8,5.7.6,11.4,1.3,17.1,1.9,10.2,1.1,20.3,2,30.4,3.2,3.3.4,6.7.7,10,1,4.4.5,8.9,1,13.3,1.4,1.3.2,1.9.8,1.9,2.2,0,4.3.1,8.6,0,12.9,0,7,.2,14-.2,21.1-1,15.2-2.6,30.3-5.8,45.1-2.7,12.1-6.2,24.1-11.8,35.3-1.9,3.9-4.2,7.6-6.7,11-4.8,6.4-10,12.4-15.5,18.3-.8.8-1.6,1.6-2.4,2.3-7.7,6.1-15.9,11.2-24.6,15.6-6,3-12.5,3.8-19,4.2-11.3.7-22.3-1-32.7-5.6-1.8-.8-3.6-1-5.6-1-8.1,0-16.3-.1-24.4-.4-11.2-.4-22.3-1-33.5-1.5,0-10.9,0-21.9,0-32.8,0-.9.2-1.9.3-2.8,1.4.2,2.2,1.3,3.1,2.1,3,2.9,5.9,5.9,8.8,8.8,1.9,1.9,3.7,4,5.9,5.7,5.5,4.4,10.7,9,16.6,12.9,2.9,1.9,5.8,3.9,9,5.4,2.5,1.2,5.1,1.2,7.5.4,4.1-1.4,5.5-6.9,2.8-10.3-1.4-1.9-3-3.7-4.5-5.5-1.4-1.6-3-2.8-4.9-3.7-3.5-1.6-6.6-3.8-9.6-6.2-5-4-9.5-8.5-14.1-12.9-6.2-6-12-12.4-17.7-18.9-5-5.8-9.5-12-14.4-17.9-7.1-8.4-13.2-17.5-19.5-26.5-3.3-4.7-6.4-9.6-9.4-14.4-3.2-5.2-6.4-10.3-9.2-15.7-4.4-8.3-8.4-16.8-12.6-25.3-.2-.4-.4-.9-.4-1.4,0-3.2-.4-6.4.4-9.5.4-1.6.6-3.1.5-4.7-.4-7.7,1.6-15.2,1.1-22.9,0-.6,0-1.3.3-1.9.7-1.9.6-3.8.6-5.7,0-2.9-.4-5.9.2-8.6.8-3.7.6-7.3.8-11,0-1.1-.2-2.3.1-3.3,1.2-3.9.7-7.9.8-11.9,0-1.1-.2-2.3.1-3.3,1.2-3.9.7-7.9.9-11.9,0-.8-.1-1.7,0-2.4,1.3-4.2.7-8.6.9-12.9,0-1.3,0-2.6.3-3.8,1.1-4.3.6-8.6.6-12.9,0-2.7-1.6-4.8-4-6.1-4.1-2.1-9.5-.2-11.2,4.2-.7,1.8-1.1,3.6-1.1,5.6,0,2.6.3,5.2-.3,7.6-.5,2.4-.6,4.7-.6,7.1,0,2.6.3,5.2-.2,7.6-.8,3.5-.6,7-.8,10.5,0,1.3.2,2.6-.1,3.8-1.1,3.8-.7,7.6-.8,11.4,0,1.3.2,2.6-.1,3.8-1.2,3.9-.7,7.9-.9,11.9,0,1.1.1,2.3-.2,3.3-.8,2.3-.6,4.7-.7,7.1,0,2.6.3,5.2-.2,7.6-.8,3.5-.6,7-.8,10.5,0,1.3.2,2.6-.1,3.8-1.1,3.8-.7,7.6-.8,11.4,0,1.3.2,2.6-.1,3.8-1.1,3.8-.5,7.6-.9,11.4-.5,5.7-1.2,11.4-1,17.2,0,.5,0,1-.2,1.4-.8,1.8-.6,3.8-.6,5.7,0,2.9.4,5.9-.2,8.6-.8,3.7-.6,7.3-.8,11,0,1.1.2,2.3-.1,3.3-1.2,3.9-.7,7.9-.9,11.9,0,1.4.2,3-.3,4.3-.8,2.4-.6,4.7-.7,7.1,0,2.6.3,5.2-.2,7.6-.8,3.3-.6,6.7-.7,10,0,1.4.2,3-.2,4.3-1.1,3.6-.7,7.3-.8,10.9,0,1.3.2,2.6-.2,3.8-.9,2.8-.8,5.7-.7,8.5,0,3.5,0,7-.9,10.4-.8.4-1.6,1-2.5,1.3-16.5,5.9-33,11.7-49.4,17.5-5.5,2-11.2,3.7-16,7.3-.2.2-.6.2-.9.2Z"/>
        <path class="cls-5" d="M719.5,799.9c-.5-.3-1.2-.5-1.6-.9-4.1-5.4-8.1-10.8-12.2-16.2-.3-.3-.3-.9-.4-1.3-.9-7.3-1.9-14.5-2.7-21.8-.8-7-1.5-13.9-2.3-20.9-1.1-9.6-2.3-19.3-3.5-28.9-1-8.7-2.1-17.4-3.1-26.1.5-2.1.3-4.1-.1-6.2-1.1-5-.5-10.2-2.4-15-.1-.3,0-.6,0-.9-.7-6.9-1.4-13.9-2.2-20.8-.9-7.9-1.8-15.7-2.8-23.6-.4-3.5-.6-7-1.2-10.4-.5-2.8-.8-5.7-.6-8.5,2.9-1.5,6.1-1.6,9.3-1.9,8.1-.7,16.1-1.6,24.2-2.6,4.4-.6,8.9-.8,13.3-1.2,5.9-.5,11.7-1.1,17.6-1.7,6.3-.6,12.7-1.1,19-1.6,5.8,11,11.7,22,17.5,33.1,4.4,8.3,8.7,16.7,13.1,25.1.7,1.4,1.5,2.8,2.4,4.1,1.9,2.9,4.1,3.1,6.8.7.9-.9,1.8-1.8,2.6-2.8,2.6-3.4,5.2-6.9,7.9-10.3,6.9-9,13.9-17.9,20.7-27,3.4-4.4,7-8.7,9.9-13.5,1.9.8,3.8,1.7,5.7,2.4,22.3,7.7,44.5,15.3,66.8,23,1.8.6,3.6,1.4,5.3,2.1-.7,2.4-1.6,4.9-2.2,7.3-3.8,14.5-6.5,29.3-9.5,44-1.9,9.5-4,19-5.1,28.7-.7,6-1.7,12-2.6,18-.8,5.5-1.5,11.1-2.3,16.6-.8,6-1.7,12-2.6,18-.7,5.2-1.5,10.4-2.2,15.6-.9,6-1.7,12-2.6,18-.6,4.1-1.2,8.2-1.9,12.3-.3,1.9-1.2,2.3-3.1,1.8-1.8-.5-3.6-1.3-5.5-1.7-7.5-1.6-15-3.3-22.5-4.6-5.3-1-10.7-1.5-16.1-2.1-4.3-.5-8.6-.6-12.9-1.2-7.8-1.1-15.6-1.2-23.4-1.5-18.2-.6-36.4-.6-54.6.7-5.6.4-11.2.6-16.7,1.2-7.1.8-14.2,1.9-21.3,2.8Z"/>
        <path class="cls-8" d="M684.5,598.2c-.2,2.9,0,5.7.6,8.5.6,3.4.8,6.9,1.2,10.4.9,7.9,1.9,15.7,2.8,23.6.8,6.9,1.5,13.9,2.2,20.8,0,.3,0,.7,0,.9,2,4.8,1.4,10,2.4,15,.4,2,.6,4.1.1,6.2-1.3,1-2.5,2-3.8,2.9-11.1,8.3-22.3,16.6-33.4,24.8-.9.7-1.8,1.3-1.9,2.6-1.4,0-2.4.7-3.5,1.4-12.5,9.3-25,18.8-37.7,27.9-11.8,8.5-22.9,17.9-34,27.2-4.3,3.6-8.5,7.3-13,10.5-4.2,3-5.9,6.9-6,11.8,0,5.6,0,11.2.7,16.7,0,.6.2,1.3.2,1.9.4,7.2.7,14.3,1.2,21.5.5,8,1.1,15.9,1.7,23.9,0,.3,0,.6,0,1,.4,7.6.7,15.3,1.2,22.9.4,7,1,14,1.6,21,0,.5,0,1,0,1.4.4,7.8.5,15.7,1.3,23.4.8,6.8.5,13.7,1.4,20.5.5,3.9.3,8,.4,12,0,.6,0,1.4-.8,1.5-.4,0-1-.1-1.3-.4-5.1-4.4-10.1-8.8-15.1-13.2-3.4-3-5.8-6.8-8.1-10.6-.6-1.1-1.2-2.2-1.8-3.4-2.1-5.5-4.2-11-6.4-16.5-3.4-8.6-6.9-17.2-10.3-25.8-.8-1.9-1.5-3.9-2-5.9-.8-3.3-1.9-6.4-3.2-9.5-4-9.3-6.4-19.1-9.5-28.6-2.4-7.4-4.5-15-6.7-22.5-2.5-8.6-5-17.2-7.6-25.7-1.2-3.9-1.3-7.9-2.1-11.8-.9-4.5-1.5-9.1-2-13.7-.7-6.8,1-13.3,3.3-19.7,1.9-5.4,5.2-9.9,8.9-14.1,3.2-3.7,6.5-7.5,10-11,5.8-5.9,12-11.5,18.6-16.5,13.3-10.2,26.8-20.2,40.1-30.3,15.1-11.5,30.3-23,45.4-34.5,12.3-9.4,24.7-18.7,37-28.1,7.6-5.8,15.3-11.6,22.9-17.3,1.5-1.1,3.2-2.1,4.7-3.2Z"/>
        <path class="cls-8" d="M719.5,799.9c7.1-1,14.2-2.1,21.3-2.8,5.5-.6,11.1-.8,16.7-1.2,18.2-1.3,36.4-1.3,54.6-.7,7.8.3,15.6.4,23.4,1.5,4.3.6,8.6.7,12.9,1.2,5.4.6,10.8,1.2,16.1,2.1,7.5,1.4,15,3,22.5,4.6,1.9.4,3.7,1.1,5.5,1.7,1.9.5,2.8,0,3.1-1.8.7-4.1,1.3-8.2,1.9-12.3.9-6,1.7-12,2.6-18,.7-5.2,1.5-10.4,2.2-15.6.9-6,1.7-12,2.6-18,.8-5.5,1.5-11.1,2.3-16.6.8-6,1.9-12,2.6-18,1.1-9.7,3.2-19.2,5.1-28.7,3-14.7,5.7-29.4,9.5-44,.7-2.5,1.5-4.9,2.2-7.3,4.9.6,9,3,13.2,5.4,5.3,3,9.8,7.1,14.6,10.8,2.4,1.9,4,4.6,5.6,7.1,1.9,2.9,3.5,6.1,4.8,9.3,3.3,8.4,5.5,17,5.6,26.1,0,5,0,9.9.1,14.9,0,2.3-.5,4.4-.9,6.6-1.1,5.6-2,11.3-3,16.9-.3,1.9-.6,3.8-1.2,5.6-2.9,8.8-5.2,17.8-8.8,26.3-2,4.7-4.5,9.2-6.8,13.7-1.2,2.3-2.6,4.4-3.8,6.7-3.4,6.2-7.9,11.6-12.3,17.1-6.5,8.3-13.1,16.4-19.8,24.6-1.9,2.4-3.9,4.7-6,6.9-3.8,3.9-7.1,8.2-10.5,12.4-.8,1-1.8,1.7-2.8,2.6-.5-2.6.7-5,1-7.5.5-3.9,1.1-7.8,1.7-11.8.5-3.5,0-6.7-2.8-9.2-2.1-1.8-5.3-1.9-7.4-.1-2,1.8-3.1,3.9-3.1,6.7,0,3.8,0,7.6-.8,11.4-.5,2.8-1.4,5.5-1.2,8.5.3,3.4,2.3,5.6,5.7,5.7,1.3,0,2.6,0,3.8,0-.5,4.9-1,9.8-1.4,14.7,0,.8-.3,1.6-.3,2.4-.3,6.2-1.1,12.3-1.8,18.5-.6,5.2-.7,10.4-1.2,15.7-.4,4.1-1,8.2-1.4,12.3-.6,6.9-1.9,13.8-1.5,20.9-4.4-.5-8.9-1-13.3-1.4-3.3-.3-6.7-.6-10-1-10.1-1.2-20.3-2.1-30.4-3.2-5.7-.6-11.4-1.3-17.1-1.9-3.4-.3-6.1-1.8-7.8-4.8,0-1.5.9-2.7,1.5-4,2.9-6.1,3.9-12.5,3.1-19.1-.9-6.9-2.3-13.8-5.2-20.2-1.2-2.6-2.1-5.4-3.5-7.8-2.5-4.3-5.4-8.3-8-12.5-2.4-3.8-6.3-6.3-8.7-10.2-.8-1.3-2.6-1.8-3.7-3-4.8-4.9-10.6-8.1-16.7-10.9-2.9-1.3-6-2.3-9.2-2.4-4.9-.2-9.9-.7-14.6,1.6-.5.3-1.3.1-1.9.2-5.6-7.5-11.2-15-16.8-22.5-1-1.3-2.1-2.4-2.2-4.1Z"/>
        <path class="cls-4" d="M764,377.5c4.1-.3,7.7-1.9,11.3-3.7,8-4.1,16.3-7.3,25.1-9.2,6.3-1.4,12.6-2.1,19-2.6,12-.9,23.5,1.7,34.4,6.6,17.4,7.8,31.4,19.5,41.3,35.8,4.3,7.1,7.5,14.8,9.1,23-2.2.3-4-.8-5.8-1.9-1.4-.8-2.7-1.6-4.1-2.4-1.1-.6-2.1-.6-3.2,0-.5.3-1.1.6-1.7,1-14.8,8.9-29.5,17.8-44.3,26.7-5.3,3.2-10.7,6.4-16,9.5-4.1,2.4-8.6,3.4-13.3,3.1-6.8-.4-13.7-.9-20.5-1.4-5.9-.5-8,.6-10.8,5.8-.3.6-.6,1.1-.9,1.7-5.3,12.1-10.6,24.3-15.8,36.4-.9,2.2-2.2,4.4-2,6.8.3,4.5-.2,8.9-.7,13.3-2.3,12.2-6.3,23.8-12,34.7-2.3,4.5-5.4,8.2-9.6,11.1-3.6,2.6-7.5,3.3-11.8,2.7-4.9-.7-9.1-2.9-12.7-6.2-1.9-1.7-3.5-3.7-5-5.8-12.4-17.9-19.7-37.9-23-59.4-1.8-11.2-2.4-22.5-2.7-33.9-.1-6.7.2-13.4,0-20.1-.2-13.6,2.2-26.7,7.5-39.3,2.5-5.9,5.7-11.5,9.5-16.6,4.3-5.9,9.7-10.6,16-14.3,6.6-3.9,13.8-4.9,21.2-4.9,2.1,0,4.1.4,6.2.6.2,2.9-1.1,5.2-3.1,7.2-3,2.9-6.3,5.6-8.7,8.9-4.9,7-9.8,14.1-12.9,22.2-4.4,11.2-7,22.8-7,34.8,0,2.9,0,5.7-.8,8.5-.6,2.3-.3,4.7.5,7.1,1.4,3.9,2.4,7.9,3.4,11.9,1.4,6.1,3.4,12,6.3,17.5,2.5,4.8,5.5,9.4,7.9,14.2,2.4,4.7,5.9,8.3,9.6,11.8,1.5,1.4,3.2,2.8,5.2,3.2,3.5.7,6.2-.8,8.4-3.5,2-2.5,2.3-5.2.7-8-.8-1.5-1.6-3.1-3-4.3-.8-.7-1.7-1.5-2.3-2.5-3.4-5-6.2-10.4-8.8-15.8-2.2-4.4-3.8-9.1-5.5-13.7-2.7-7.2-4.4-14.6-4.4-22.3,0-2.1.2-4.2,0-6.2-.4-4.8.5-9.5,1.2-14.2.8-6.1,2.5-12.1,5.2-17.8,2-4.2,4.4-8.1,7-11.9,4-5.8,9-10.7,13.5-16.1,2.1-2.5,3.3-5,2.9-8.3Z"/>
        <path class="cls-7" d="M765.2,526.1c.5-4.4.9-8.8.7-13.3-.1-2.4,1.1-4.6,2-6.8,5.2-12.1,10.5-24.3,15.8-36.4.3-.6.6-1.1.9-1.7,2.7-5.2,4.8-6.3,10.8-5.8,6.8.6,13.7,1.1,20.5,1.4,4.7.3,9.2-.7,13.3-3.1,5.4-3.1,10.7-6.3,16-9.5,14.8-8.9,29.5-17.8,44.3-26.7.5-.3,1.1-.6,1.7-1,1-.7,2.1-.7,3.2,0,1.4.8,2.8,1.6,4.1,2.4,1.8,1.1,3.5,2.2,5.8,1.9.5.8.9,1.7.9,2.7.3,5.7,1.1,11.4,1,17.2-.2,8.3-1,16.5-1.7,24.8-.6,6.7-1.4,13.3-2.4,19.9-1.1,7.4-2.8,14.7-4.2,22.1-1.9,9.9-4.8,19.5-8.1,29-1.8,5.1-4.1,10-6.6,14.9-2.5,4.8-6.3,6.5-11.3,6.5-3.7,0-7.4,0-11,0-1.8,0-3.5.4-5.1,1.1-2.4,1.1-3.9,2.7-4.4,5.3-.6,3.3-1.2,6.6-1.9,9.9-.6,3.1-1.2,6.3-1.7,9.4-.5,2.9-.8,5.7.8,8.4-2.9,4.8-6.5,9.1-9.9,13.5-6.8,9-13.8,18-20.7,27-2.6,3.4-5.2,6.9-7.9,10.3-.8,1-1.7,2-2.6,2.8-2.7,2.4-4.8,2.2-6.8-.7-.9-1.3-1.7-2.7-2.4-4.1-4.4-8.3-8.7-16.7-13.1-25.1-5.8-11-11.6-22-17.5-33.1,2.1-2.9,2.4-6.1,1.6-9.5-.2-.8-.3-1.6-.3-2.4.3-9-.9-17.8-1.3-26.8-.3-6.7-.7-13.4-.9-20.1,0-1.6-.3-3.2-1.6-4.3Z"/>
        <path class="cls-7" d="M547.5,1080c.3,0,.7,0,.9-.2,4.8-3.6,10.5-5.3,16-7.3,16.5-5.9,33-11.7,49.4-17.5.9-.3,1.7-.9,2.5-1.3,3.4-.6,6.7-1.8,9.8-3.3,1.5-.7,2.9-1.1,4.5-1.1.9,0,1.9-.2,2.8-.3,1.6,0,3.2.3,4.8.2,9.2,0,18.5-.2,27.7-.6,10.2-.4,20.4-.2,30.6-.3,1.4,0,2.9-.2,4.3-.3,1.6.4,2.7,1.4,3.1,3.1-.1.9-.3,1.9-.3,2.8,0,10.9,0,21.9,0,32.8.4,6.9-2,13.2-4.9,19.3-1.7,3.7-4.6,6.5-7.3,9.4-1.1,1.1-2.5,2-4,2.7-6.1,2.7-12.5,4.5-19.3,5.3-4.9.6-9.9.4-14.7,1.5-.6.1-1.3.2-1.9.1-7-.2-14,.6-21,1.3-11.5,1.1-23,.8-34.5.5-6.6-.2-13.4-.2-20-1.6-6-1.2-11.7-3.4-16.6-7-6.3-4.6-11.4-10.3-14-17.8-2.1-5.9-2.1-11.9.9-17.7.4-.8.7-1.8,1.1-2.6Z"/>
        <path class="cls-1" d="M764,377.5c.4,3.2-.8,5.7-2.9,8.3-4.4,5.4-9.5,10.3-13.5,16.1-2.6,3.8-5.1,7.7-7,11.9-2.7,5.7-4.3,11.7-5.2,17.8-.6,4.7-1.6,9.4-1.2,14.2.2,2.1,0,4.2,0,6.2,0,7.7,1.7,15.1,4.4,22.3,1.7,4.6,3.4,9.3,5.5,13.7,2.6,5.4,5.4,10.8,8.8,15.8.6.9,1.4,1.7,2.3,2.5,1.3,1.2,2.1,2.8,3,4.3,1.6,2.9,1.2,5.5-.7,8-2.1,2.7-4.9,4.2-8.4,3.5-2.1-.4-3.7-1.8-5.2-3.2-3.7-3.5-7.3-7.1-9.6-11.8-2.4-4.8-5.4-9.4-7.9-14.2-2.9-5.5-4.8-11.4-6.3-17.5-.9-4-1.9-8.1-3.4-11.9-.9-2.4-1.1-4.8-.5-7.1.7-2.9.8-5.7.8-8.5,0-12.1,2.6-23.6,7-34.8,3.2-8.1,8-15.2,12.9-22.2,2.4-3.4,5.7-6,8.7-8.9,2-2,3.3-4.3,3.1-7.2,5.5-1.4,10.5-.1,15.3,2.7Z"/>
        <path class="cls-9" d="M891.6,842.9c-1.3,0-2.6,0-3.8,0-3.5-.1-5.4-2.3-5.7-5.7-.3-2.9.7-5.7,1.2-8.5.7-3.8.8-7.6.8-11.4,0-2.8,1.1-4.9,3.1-6.7,2.1-1.8,5.3-1.7,7.4.1,2.9,2.5,3.3,5.7,2.8,9.2-.6,3.9-1.3,7.8-1.7,11.8-.3,2.5-1.4,4.9-1,7.5-1,1.2-2,2.5-3,3.7Z"/>
        <path class="cls-6" d="M704,1051c-.4-1.7-1.5-2.6-3.1-3.1-.2-.4-.2-1-.5-1.3-2.5-2.9-5-5.8-7.5-8.6-3.1-3.5-6.3-6.8-9.2-10.3-4.6-5.7-9.1-11.5-13.6-17.2-8.7-11.4-16.8-23.2-24.2-35.5-1.9-3.1-3.8-6.3-5.7-9.4-.3-.5-.7-1.1-1.8-.7,0,1.9,0,3.9,0,6,0,1.3.2,2.6-.1,3.8-1.1,3.8-.7,7.6-.8,11.4,0,1.3.2,2.6-.1,3.8-1.2,3.9-.7,7.9-.9,11.9,0,1.1.1,2.3-.2,3.3-.9,2.5-.6,5-.7,7.6,0,2.4.3,4.9-.2,7.2-.9,3.6-.6,7.3-.8,10.9,0,1.4.1,2.9-.3,4.3-.6,2-.6,4.1-.6,6.2,0,2.6,0,5.1-.1,7.7-.9,0-1.9.3-2.8.3-1.6,0-3,.4-4.5,1.1-3.1,1.5-6.4,2.7-9.8,3.3.8-3.4,1-6.9.9-10.4,0-2.9-.2-5.7.7-8.5.4-1.2.1-2.5.2-3.8.1-3.7-.3-7.3.8-10.9.4-1.3.1-2.9.2-4.3.1-3.3,0-6.7.7-10,.6-2.4.2-5.1.2-7.6,0-2.4,0-4.8.7-7.1.4-1.3.2-2.8.3-4.3.1-4-.3-8,.9-11.9.3-1,0-2.2.1-3.3.1-3.7,0-7.3.8-11,.6-2.8.2-5.7.2-8.6,0-1.9-.1-3.8.6-5.7.2-.4.3-.9.2-1.4-.2-5.8.5-11.4,1-17.2.3-3.8-.2-7.6.9-11.4.4-1.2,0-2.5.1-3.8.1-3.8-.3-7.7.8-11.4.4-1.2,0-2.5.1-3.8.1-3.5,0-7,.8-10.5.6-2.4.2-5.1.2-7.6,0-2.4-.1-4.8.7-7.1.4-1,.2-2.2.2-3.3.1-4-.3-8,.9-11.9.3-1.2,0-2.5.1-3.8.1-3.8-.3-7.7.8-11.4.4-1.2,0-2.5.1-3.8.1-3.5,0-7,.8-10.5.6-2.4.2-5.1.2-7.6,0-2.4.1-4.7.6-7.1.5-2.5.3-5.1.3-7.6,0-2,.3-3.8,1.1-5.6,1.7-4.3,7.1-6.3,11.2-4.2,2.5,1.3,4,3.4,4,6.1,0,4.3.6,8.6-.6,12.9-.3,1.2-.3,2.5-.3,3.8-.2,4.3.4,8.6-.9,12.9-.2.7,0,1.6,0,2.4-.1,4,.3,8-.9,11.9-.3,1,0,2.2-.1,3.3-.1,4,.3,8-.8,11.9-.3,1,0,2.2-.1,3.3-.1,3.7,0,7.3-.8,11-.6,2.8-.2,5.7-.2,8.6,0,1.9.1,3.8-.6,5.7-.2.6-.3,1.3-.3,1.9.5,7.7-1.4,15.2-1.1,22.9,0,1.6,0,3.2-.5,4.7-.8,3.1-.3,6.4-.4,9.5,0,.5.2,1,.4,1.4,4.2,8.4,8.2,16.9,12.6,25.3,2.8,5.4,6,10.5,9.2,15.7,3,4.9,6.1,9.7,9.4,14.4,6.3,9,12.5,18.1,19.5,26.5,4.9,5.9,9.3,12.1,14.4,17.9,5.7,6.5,11.5,12.9,17.7,18.9,4.6,4.5,9.1,9,14.1,12.9,3,2.4,6.1,4.6,9.6,6.2,1.9.9,3.6,2.1,4.9,3.7,1.5,1.8,3.1,3.7,4.5,5.5,2.7,3.5,1.3,8.9-2.8,10.3-2.4.8-5,.8-7.5-.4-3.2-1.5-6.1-3.4-9-5.4-5.8-3.9-11.1-8.5-16.6-12.9-2.1-1.7-3.9-3.8-5.9-5.7-3-2.9-5.9-5.9-8.8-8.8-.9-.9-1.7-1.9-3.1-2.1Z"/>
        <path class="cls-3" d="M738.5,826.5c.6,0,1.4,0,1.9-.2,4.7-2.3,9.7-1.8,14.6-1.6,3.2.2,6.3,1.1,9.2,2.4,6.1,2.8,12,6,16.7,10.9,1.1,1.1,2.9,1.7,3.7,3,2.4,3.8,6.3,6.3,8.7,10.2,2.6,4.2,5.5,8.2,8,12.5,1.4,2.5,2.3,5.2,3.5,7.8,2.9,6.4,4.4,13.3,5.2,20.2.8,6.5-.2,13-3.1,19.1-.6,1.3-1.5,2.5-1.5,4-1.1.3-1.8,1.3-2.6,2-6,5.5-12.9,7.5-21.1,6.1-9-1.6-16.4-5.9-23.3-11.5-13.1-10.6-22-24.2-27.7-40-2.9-8.1-3.8-16.5-3-25,.7-6.9,3.6-12.8,8.8-17.5.8-.7,1.8-1.3,2-2.6Z"/>
        <path class="cls-2" d="M633.4,1048.9c0-2.6,0-5.1.1-7.7,0-2.1,0-4.1.6-6.2.4-1.3.2-2.8.3-4.3.1-3.6-.1-7.3.8-10.9.6-2.3.2-4.8.2-7.2,0-2.5-.2-5.1.7-7.6.4-1,.2-2.2.2-3.3.1-4-.3-8,.9-11.9.3-1.2,0-2.5.1-3.8.1-3.8-.3-7.6.8-11.4.4-1.2.1-2.5.1-3.8,0-2,0-4.1,0-6,1.2-.5,1.5.2,1.8.7,1.9,3.1,3.8,6.3,5.7,9.4,7.4,12.3,15.5,24.1,24.2,35.5,4.5,5.8,8.9,11.6,13.6,17.2,2.9,3.6,6.2,6.9,9.2,10.3,2.5,2.9,5,5.7,7.5,8.6.3.3.3.9.5,1.3-1.4,0-2.9.3-4.3.3-10.2,0-20.4-.2-30.6.3-9.2.4-18.5.5-27.7.6-1.6,0-3.2-.2-4.8-.2Z"/>
      </g>
    </g>
  </g>
</svg>