<svg width="500" height="500" viewBox="0 0 500 500" fill="none" xmlns="http://www.w3.org/2000/svg">
<path d="M286.726 403.301C289.435 399.555 292.726 396.309 295.765 392.844C297.704 390.63 299.496 388.302 301.247 385.94C302.202 384.652 303.216 383.409 304.149 382.106C304.623 381.443 305.2 381.132 305.992 381.099C306.659 381.069 307.321 380.951 307.987 380.936C312.67 380.832 317.315 380.351 321.942 379.626C324.778 379.181 327.628 378.782 330.486 378.526C335.623 378.067 340.406 376.464 344.996 374.21C346.558 373.444 347.994 372.463 349.352 371.367C353.032 368.402 356.252 365.06 358.27 360.703C358.606 359.978 359.032 359.293 359.395 358.578C360.687 356.01 361.138 353.293 360.964 350.42C360.494 342.706 356.6 336.987 350.629 332.464C349.567 331.661 348.394 331.002 347.268 330.284C346.987 330.102 346.687 329.95 346.41 329.769C345.536 329.195 345.488 328.992 346.01 328.174C346.117 328.003 346.243 327.848 346.358 327.685C348.283 325.024 349.871 322.17 351.262 319.194C352.025 317.561 352.843 315.955 353.698 314.367C355.038 311.876 355.96 309.244 356.511 306.471C356.911 304.473 356.896 302.496 356.434 300.512C355.634 297.077 354.168 293.979 352.032 291.158C348.386 286.335 343.807 282.807 338.096 280.783C335.679 279.924 333.18 279.435 330.622 279.602C327.691 279.794 324.741 279.735 321.828 280.175C319.055 280.594 316.275 280.979 313.595 281.845C311.489 282.526 309.309 282.833 307.143 283.248C300.325 284.554 293.511 285.898 286.703 287.253C275.836 289.415 264.983 291.65 254.104 293.745C248.533 294.819 242.921 295.67 237.317 296.566C236.173 296.747 235.107 297.043 234.126 297.651C233.623 298.217 233.434 298.902 233.286 299.635C232.042 305.683 230.902 311.754 229.422 317.754C229.31 318.198 229.329 318.672 229.288 319.131C229.955 319.12 230.606 319.072 231.272 318.942C233.449 318.509 235.662 318.613 237.843 318.875C238.701 318.979 239.553 319.105 240.415 319.109C245.024 319.12 249.632 319.123 254.244 319.131C254.777 319.131 255.347 319.031 255.84 319.175C257.483 319.649 259.153 319.482 260.815 319.505C263.287 319.534 265.756 319.523 268.229 319.534C268.695 319.534 269.195 319.46 269.624 319.597C270.935 320.019 272.267 319.897 273.596 319.904C276.468 319.927 279.341 319.923 282.213 319.938C282.68 319.938 283.179 319.856 283.609 319.99C285.182 320.478 286.788 320.245 288.38 320.315C290.172 320.393 291.974 320.141 293.747 320.682C294.536 320.922 295.284 320.678 295.939 320.041C296.89 319.116 297.923 318.268 298.967 317.443C299.748 316.825 300.621 316.34 301.598 316.051C302.202 315.873 302.668 316.044 303.02 316.492C303.305 316.854 303.52 317.276 303.723 317.695C303.912 318.087 303.842 318.498 303.542 318.809C302.842 319.527 302.15 320.252 301.399 320.911C299.751 322.359 297.986 323.684 296.416 325.212C292.977 328.566 289.52 331.901 286.215 335.388C284.934 336.743 283.672 338.12 282.498 339.567C280.659 341.84 278.852 344.15 277.12 346.504C275.265 349.025 273.444 351.571 271.734 354.188C269.95 356.92 268.162 359.656 266.63 362.543C265.601 364.486 264.368 366.333 263.469 368.332C262.132 371.301 260.741 374.262 259.878 377.423C259.737 377.934 259.563 378.448 259.308 378.911C258.856 379.733 257.735 380.236 256.921 380.011C255.851 379.718 255.044 378.967 254.344 378.189C253.833 377.627 254.563 376.949 254.585 376.29C254.603 375.776 254.848 375.261 255.018 374.758C255.869 372.23 256.832 369.746 258.072 367.373C259.493 364.653 260.718 361.832 262.354 359.226C263.346 357.646 264.372 356.087 265.312 354.477C267.233 351.194 269.435 348.103 271.708 345.06C273.777 342.288 275.876 339.541 278.023 336.832C279.137 335.425 280.355 334.093 281.591 332.79C283.061 331.239 284.601 329.754 286.107 328.237C286.437 327.904 286.774 327.578 287.066 327.219C287.173 327.085 287.222 326.86 287.203 326.682C287.181 326.445 286.933 326.386 286.744 326.382C285.075 326.356 283.398 326.26 281.736 326.356C280.048 326.456 278.445 325.864 276.768 325.938C275.569 325.99 274.362 325.949 273.163 325.923C272.634 325.912 272.075 325.931 271.579 325.779C270.853 325.56 270.131 325.557 269.398 325.549C267.862 325.542 266.326 325.538 264.79 325.527C264.324 325.523 263.82 325.59 263.398 325.446C262.354 325.083 261.288 325.161 260.226 325.15C258.623 325.131 256.98 325.342 255.425 325.064C253.16 324.657 250.902 324.691 248.647 324.776C245.301 324.902 242.011 324.176 238.672 324.309C238.35 324.324 238.02 324.183 237.695 324.135C237.169 324.061 236.643 323.995 236.114 323.939C234.663 323.784 233.201 323.676 231.761 323.458C231.113 323.358 230.495 323.058 229.877 322.814C229.273 322.577 228.888 322.151 228.877 321.455C228.877 321.189 228.84 320.922 228.822 320.656C228.252 321.126 227.589 321.178 226.893 321.074C226.257 321.141 225.846 321.615 225.353 321.94C224.85 323.217 224.769 324.539 224.987 325.879C225.128 326.734 225.328 327.578 225.513 328.425C226.916 334.966 229.099 341.281 231.169 347.625C233.49 354.732 235.91 361.806 238.313 368.891C239.878 373.507 241.481 378.112 243.08 382.716C243.277 383.279 243.554 383.816 243.795 384.364C246.452 384.515 249.103 384.526 251.757 384.227C253.274 384.056 254.807 384.019 256.332 383.934C256.732 383.912 256.943 384.197 256.806 384.578C256.247 386.14 255.673 387.699 255.103 389.261C255.836 389.268 256.565 389.29 257.298 389.283C259.778 389.268 262.173 389.753 264.546 390.427C266.089 390.864 267.525 391.567 268.988 392.189C271.375 393.203 273.766 394.254 275.932 395.679C279.259 397.867 282.554 400.117 285.508 402.812C285.87 403.145 286.237 403.379 286.748 403.301H286.726ZM305.844 378.082C305.803 377.542 305.981 377.049 306.192 376.55C306.825 375.054 307.825 373.807 308.787 372.53C311.274 369.235 313.788 365.967 316.434 362.798C318.481 360.348 320.399 357.794 322.416 355.317C323.971 353.407 325.614 351.571 327.176 349.669C329.327 347.048 331.433 344.387 333.569 341.751C335.916 338.86 338.266 335.966 340.646 333.104C341.198 332.442 341.823 331.809 342.516 331.305C344.326 329.991 346.188 331.42 346.354 333.115C346.458 334.174 346.132 335.066 345.455 335.884C343.671 338.035 341.92 340.215 340.154 342.377C339.31 343.409 338.448 344.42 337.615 345.46C336.241 347.17 334.898 348.906 333.513 350.613C332.129 352.319 330.693 353.981 329.323 355.699C327.709 357.731 326.099 359.763 324.456 361.769C323.571 362.846 322.62 363.872 321.779 364.993C320.428 366.803 318.959 368.532 317.471 370.238C316.29 371.593 315.094 372.944 313.94 374.314C312.729 375.746 311.404 377.053 310.138 378.419C309.479 379.13 308.639 379.518 307.787 379.907C307.217 380.166 306.766 379.966 306.344 379.559C305.918 379.152 305.815 378.648 305.844 378.089V378.082Z" fill="#696D65"/>
<path d="M243.773 384.36C243.532 383.812 243.255 383.275 243.058 382.713C241.459 378.108 239.856 373.503 238.291 368.887C235.888 361.806 233.464 354.733 231.147 347.622C229.077 341.277 226.894 334.966 225.491 328.422C225.309 327.574 225.106 326.73 224.965 325.875C224.747 324.535 224.828 323.214 225.331 321.937C225.132 321.933 224.932 321.929 224.728 321.926C223.347 321.9 222.481 321.204 222.085 319.901C221.833 319.072 221.589 318.25 221.63 317.358C221.667 316.492 221.763 315.577 221.537 314.767C221.226 313.638 221.267 312.524 221.238 311.395C221.226 310.928 221.312 310.421 221.164 310.003C220.749 308.83 220.867 307.63 220.838 306.435C220.827 305.902 220.927 305.328 220.767 304.843C220.357 303.599 220.464 302.337 220.438 301.075C220.427 300.608 220.519 300.105 220.379 299.679C219.942 298.373 220.068 297.04 220.038 295.711C220.027 295.245 220.109 294.738 219.957 294.319C219.531 293.146 219.679 291.943 219.638 290.751C219.609 289.885 219.72 288.982 219.505 288.164C219.261 287.235 219.257 286.32 219.239 285.387C219.216 284.251 219.39 283.074 219.139 281.993C218.832 280.661 218.846 279.346 218.839 278.021C218.824 275.216 218.872 272.406 218.813 269.604C218.791 268.612 219.006 267.768 219.631 267.02C219.298 266.413 219.272 265.747 219.257 265.077C219.239 264.211 219.32 263.319 219.15 262.482C218.669 260.117 218.972 257.7 218.506 255.327C218.162 253.576 218.202 251.751 217.969 249.971C217.529 246.61 217.058 243.256 216.748 239.877C216.603 238.289 216.585 236.678 216.322 235.113C216.078 233.654 216.096 232.196 215.97 230.737C215.892 229.853 216.163 229.175 216.881 228.665C217.207 228.431 217.529 228.194 217.847 227.954C219.298 226.851 220.497 225.537 221.334 223.897C222.148 222.294 222.977 220.699 223.618 219.011C223.999 218.015 224.354 217.019 224.51 215.953C224.861 213.521 225.269 211.097 225.624 208.665C225.787 207.547 225.961 206.422 226.005 205.297C226.168 201.099 225.968 196.92 225.372 192.752C225.109 190.912 225.043 189.047 224.887 187.192C224.277 186.407 223.718 185.575 223.048 184.842C220.982 182.584 218.876 180.363 216.781 178.127C215.145 176.38 213.994 174.411 213.923 171.942C213.494 171.942 213.194 171.675 212.865 171.446C212.32 171.072 211.773 170.668 211.169 170.409C206.742 168.518 202.126 167.4 197.311 167.141C196.915 167.119 196.496 167.115 196.133 166.985C195.486 166.752 194.827 166.715 194.164 166.759C192.247 166.889 190.333 167.048 188.419 167.204C188.29 167.215 188.168 167.296 188.038 167.318C186.702 167.533 185.517 168.133 184.344 168.755C181.087 171.464 178.355 174.622 176.241 178.301C175.845 178.993 175.434 179.7 175.197 180.455C174.128 183.901 173.291 187.396 173.569 191.049C173.68 192.508 173.898 193.955 174.068 195.41C174.59 196.646 174.635 197.99 174.935 199.278C175.556 201.932 176.297 204.56 176.978 207.199C178.259 212.156 178.877 217.253 179.891 222.268C179.958 222.59 179.95 222.931 179.958 223.264C179.998 224.926 180.072 226.581 180.206 228.243C180.457 231.422 180.361 234.624 180.65 237.815C180.894 240.528 180.58 243.278 181.064 245.984C180.961 250.186 181.579 254.357 181.549 258.555C181.546 259.221 181.52 259.898 181.634 260.55C182.034 262.8 181.916 265.062 181.886 267.324C182.623 269.052 182.956 270.892 183.104 272.732C183.226 274.253 183.722 275.734 183.589 277.281C184.155 278.406 183.855 279.646 184.052 280.827C184.344 282.589 184.622 284.366 184.714 286.143C184.803 287.871 185.125 289.567 185.247 291.291C185.395 293.394 185.936 295.471 185.958 297.603C185.958 297.865 185.958 298.154 186.062 298.391C186.391 299.157 186.339 299.957 186.354 300.756C186.361 301.156 186.313 301.589 186.454 301.945C186.783 302.785 186.739 303.644 186.757 304.51C186.765 304.976 186.709 305.472 186.846 305.902C187.368 307.571 187.209 309.322 187.494 311.025C187.812 312.912 187.912 314.848 188.386 316.706C188.675 317.847 188.764 318.909 188.327 319.997C189.2 320.108 189.785 320.552 190.096 321.404C190.326 322.029 190.666 322.61 190.922 323.229C193.872 330.31 196.826 337.391 199.754 344.479C203.085 352.556 206.409 360.64 209.7 368.736C211.432 373 213.094 377.29 214.786 381.569C217.636 388.835 220.479 396.101 223.336 403.364C224.947 407.462 226.553 411.563 228.215 415.638C229.177 418 230.758 419.995 232.272 422.02C232.457 422.268 232.775 422.468 233.075 422.575C234.267 422.997 235.448 423.445 236.762 423.386C237.961 423.334 239.164 423.412 240.367 423.426C241.367 423.438 242.359 423.434 243.354 423.649C244.061 423.8 244.817 423.748 245.549 423.756C249.159 423.778 252.764 423.793 256.373 423.8C257.109 423.8 257.846 423.774 258.494 424.215C259.142 423.489 260.045 423.66 260.741 423.856C262.262 424.285 263.787 424.115 265.312 424.174C266.793 424.23 268.203 423.848 269.617 423.471C270.679 423.186 271.512 422.531 272.308 421.816C272.663 421.498 272.849 421.102 272.982 420.624C273.533 418.626 273.915 416.612 273.778 414.524C273.73 413.791 273.755 413.055 273.778 412.322C273.8 411.382 273.6 410.482 273.445 409.564C273.241 408.357 272.623 407.687 271.557 407.221C268.751 405.992 265.923 404.822 263.165 403.475C260.356 402.102 257.461 400.899 254.637 399.551C253.197 398.867 251.805 398.067 250.436 397.245C249.584 396.734 248.751 396.19 248.033 395.465C247.463 394.887 247.215 394.273 247.315 393.492C246.934 393.329 246.653 393.092 246.512 392.67C246.212 391.789 245.834 390.934 245.553 390.046C244.957 388.147 244.095 386.333 243.765 384.353L243.773 384.36Z" fill="#FFB68A"/>
<path d="M163.068 75.2233C157.571 75.6712 153.17 78.2031 149.624 82.3266C147.821 84.4217 146.496 86.8129 145.452 89.3633C143.572 93.9569 142.302 98.7246 141.473 103.611C140.192 111.136 139.659 118.732 139.47 126.353C139.274 134.108 139.452 141.855 140.011 149.592C140.074 150.454 139.966 151.328 139.988 152.194C140.007 152.879 140.133 153.567 140.895 153.826C141.602 154.067 142.224 153.797 142.702 153.271C143.061 152.879 143.372 152.442 143.664 151.998C150.786 141.245 157.441 130.206 163.908 119.05C165.166 116.881 164.992 116.855 166.503 118.924C168.157 121.193 169.775 123.484 171.452 125.731C173.78 128.852 176.397 131.698 179.603 133.956C180.332 133.871 180.532 133.301 180.754 132.731C182.545 128.134 184.674 123.684 186.647 119.165C187.531 117.144 188.549 115.2 189.837 113.405C190.978 111.817 192.473 110.814 194.42 110.455C195.882 110.185 197.337 110.251 198.799 110.362C200.79 110.514 202.782 110.688 204.777 110.829C205.173 110.858 205.573 110.795 205.973 110.762C208.064 110.599 209.967 109.785 211.91 109.085C213.52 108.504 214.882 107.642 216.056 106.402C219.446 102.807 223.14 99.5389 226.857 96.2963C227.915 95.3709 229.093 94.6269 230.399 94.0976C230.514 92.3838 229.94 90.8032 229.426 89.2226C228.337 85.8838 226.605 82.8818 224.395 80.1612C219.491 74.1239 213.361 69.9263 205.806 67.9164C202.486 67.0317 199.106 66.8318 195.671 67.128C189.064 67.698 183.064 69.9263 177.548 73.5465C176.375 74.3164 175.194 75.0678 173.843 75.5046C173.658 75.7748 173.34 75.7563 173.073 75.8526C173.217 77.7219 172.281 79.1988 171.219 80.5684C168.931 83.5333 167.01 86.7056 165.514 90.1332C164.36 92.7761 163.797 95.5708 163.512 98.421C163.36 99.935 163.727 101.49 163.194 102.985C163.153 103.104 163.153 103.259 163.194 103.377C163.749 105.139 163.393 106.953 163.504 108.741C163.538 109.27 163.467 109.84 163.638 110.325C164.019 111.406 163.823 112.576 164.252 113.653C164.415 114.056 164.326 114.578 164.285 115.041C164.208 115.907 163.604 116.525 162.738 116.596C162.142 116.648 161.532 116.659 160.939 116.577C158.9 116.3 157.523 114.819 157.06 112.835C156.59 110.814 156.634 108.752 156.349 106.716C155.92 103.677 156.553 100.616 156.727 97.566C156.734 97.4364 156.782 97.3069 156.816 97.1773C157.26 95.4413 157.597 93.6867 158.13 91.9655C159.274 88.2528 160.758 84.7215 162.994 81.5271C163.297 81.094 163.593 80.6424 163.967 80.2685C165.366 78.8656 166.358 77.2518 166.714 75.2825C165.5 75.2603 164.285 75.2381 163.071 75.2159L163.068 75.2233Z" fill="#7B4923"/>
<path d="M230.399 94.0935C229.092 94.6229 227.919 95.3669 226.856 96.2923C223.136 99.5348 219.442 102.807 216.055 106.398C214.882 107.641 213.52 108.5 211.909 109.081C209.966 109.785 208.064 110.595 205.972 110.758C205.576 110.788 205.173 110.851 204.777 110.825C202.785 110.684 200.794 110.51 198.799 110.358C197.336 110.247 195.882 110.177 194.42 110.451C192.476 110.81 190.977 111.813 189.837 113.401C188.549 115.196 187.527 117.14 186.646 119.161C184.673 123.68 182.545 128.129 180.753 132.727C180.531 133.293 180.331 133.867 179.602 133.952C180.531 135.033 180.524 136.406 180.709 137.694C181.142 140.711 181.512 143.735 181.845 146.763C181.997 148.148 182.119 149.532 182.312 150.913C182.819 154.588 183.241 158.275 183.696 161.958C184.225 161.929 184.74 161.851 185.262 161.703C187.768 161.007 190.307 160.589 192.932 160.707C196.248 160.859 199.587 160.452 202.885 161.118C204.244 161.392 205.628 161.544 206.99 161.814C208.952 162.202 210.84 162.858 212.668 163.661C213.109 163.853 213.549 163.953 214.019 163.942C214.123 163.776 214.304 163.609 214.312 163.439C214.408 161.17 214.9 158.956 215.215 156.717C215.333 155.862 215.489 154.999 215.755 154.181C216.222 152.741 217.229 151.794 218.743 151.531C219.92 151.327 221.089 151.087 222.304 151.072C225.239 151.042 228.004 150.161 230.44 148.61C233.36 146.756 234.93 143.913 235.207 140.452C235.326 138.994 235.244 137.517 235.252 136.047C235.259 134.711 235.355 133.389 235.629 132.075C236.055 130.054 237.091 128.526 238.953 127.589C240.027 127.049 241.115 126.538 242.185 125.99C242.718 125.716 243.273 125.453 243.728 125.072C244.735 124.232 245.127 123.162 244.713 121.852C244.343 120.682 243.706 119.671 242.866 118.798C241.759 117.639 240.619 116.514 239.482 115.385C238.391 114.304 237.302 113.223 236.184 112.168C234.856 110.917 233.823 109.44 232.927 107.878C231.576 105.528 230.873 102.974 230.884 100.242C230.887 99.2387 230.887 98.2393 230.891 97.2362C230.891 96.159 230.769 95.1041 230.391 94.0898L230.399 94.0935Z" fill="#FFB68A"/>
<path d="M224.887 187.185C225.042 189.039 225.109 190.905 225.372 192.744C225.971 196.909 226.167 201.091 226.005 205.289C225.96 206.414 225.786 207.54 225.623 208.657C225.268 211.089 224.861 213.514 224.509 215.946C224.354 217.012 223.998 218.008 223.617 219.003C222.973 220.687 222.147 222.283 221.333 223.889C220.5 225.529 219.297 226.843 217.846 227.946C217.528 228.187 217.206 228.424 216.88 228.657C216.162 229.168 215.892 229.845 215.97 230.73C216.095 232.188 216.081 233.647 216.321 235.105C216.584 236.675 216.599 238.281 216.747 239.869C217.058 243.249 217.528 246.602 217.968 249.963C218.202 251.744 218.161 253.565 218.505 255.319C218.972 257.692 218.668 260.109 219.149 262.475C219.319 263.311 219.234 264.203 219.257 265.069C219.271 265.739 219.297 266.406 219.63 267.013C220.722 266.983 221.807 267.031 222.851 267.416C224.261 267.209 225.605 267.709 226.985 267.82C228.888 267.975 230.787 268.242 232.671 268.549C234.104 268.782 235.51 269.156 236.928 269.471C237.465 268.582 237.45 267.546 237.598 266.58C238.279 262.219 239.26 257.929 240.567 253.724C241.137 251.884 242.166 250.2 243.169 248.542C243.654 247.742 244.157 246.946 244.734 246.217C245.919 244.726 246.707 243.045 247.263 241.246C247.91 239.147 248.695 237.097 249.039 234.894C249.406 232.551 249.336 230.238 249.169 227.906C249.084 226.71 248.958 225.511 248.743 224.33C248.236 221.546 247.244 218.937 245.708 216.553C242.595 211.73 239.708 206.755 236.188 202.202C232.593 197.553 229.125 192.815 225.727 188.017C225.501 187.699 225.164 187.462 224.879 187.185H224.887Z" fill="#8A8ADE"/>
<path d="M214.789 381.569C213.097 377.29 211.435 372.996 209.703 368.735C206.412 360.64 203.088 352.56 199.756 344.479C196.832 337.387 193.875 330.309 190.925 323.228C190.669 322.614 190.329 322.029 190.099 321.403C189.788 320.552 189.203 320.108 188.33 319.997C187.227 319.975 186.12 319.96 185.017 319.934C184.502 319.923 183.966 319.978 183.544 319.582C182.552 319.549 181.537 319.623 180.568 319.46C178.147 319.057 175.722 318.749 173.264 318.701C172.376 318.683 171.565 318.487 170.855 317.917C170.662 317.761 170.385 317.709 170.148 317.609C169.67 323.065 169.404 328.525 169.866 334.004C170.429 340.685 171.732 347.211 173.938 353.544C174.93 356.387 176.107 359.141 177.821 361.643C179.498 364.094 181.656 366.078 183.899 367.988C184.458 368.465 185.065 368.884 185.616 369.368C190.791 373.895 197.017 376.457 203.332 378.848C206.715 380.129 210.236 380.895 213.797 381.476C214.122 381.528 214.459 381.543 214.789 381.573V381.569Z" fill="#6B6D66"/>
<path d="M247.322 393.499C247.218 394.28 247.47 394.894 248.04 395.472C248.755 396.197 249.591 396.741 250.443 397.252C251.812 398.074 253.204 398.87 254.644 399.558C257.468 400.906 260.363 402.109 263.172 403.482C265.926 404.829 268.758 405.999 271.564 407.228C272.63 407.694 273.248 408.361 273.451 409.571C273.607 410.493 273.807 411.392 273.785 412.329C273.766 413.062 273.74 413.798 273.785 414.531C273.922 416.623 273.54 418.633 272.989 420.631C272.859 421.105 272.67 421.505 272.315 421.823C271.519 422.538 270.686 423.193 269.624 423.478C268.21 423.855 266.8 424.24 265.319 424.181C263.794 424.122 262.273 424.292 260.748 423.863C260.052 423.667 259.149 423.496 258.501 424.222C259.278 425.258 260.396 425.888 261.432 426.602C266.052 429.793 271.182 431.806 276.668 432.872C279.951 433.509 283.287 433.665 286.596 432.95C289.031 432.428 291.33 431.573 293.247 429.9C294.743 428.601 295.857 427.061 296.283 425.092C296.509 424.052 296.76 423.015 296.912 421.964C297.008 421.312 297.038 420.617 296.927 419.972C296.39 416.785 295.424 413.713 293.566 411.063C292.115 408.997 290.357 407.15 288.476 405.44C287.791 404.818 287.018 404.248 286.729 403.297C286.218 403.378 285.852 403.141 285.489 402.808C282.535 400.114 279.237 397.863 275.913 395.675C273.748 394.25 271.356 393.199 268.969 392.185C267.503 391.563 266.071 390.86 264.527 390.423C262.154 389.749 259.759 389.264 257.279 389.279C256.546 389.283 255.817 389.264 255.084 389.257C252.127 389.993 249.469 391.278 247.326 393.503L247.322 393.499Z" fill="#E9A37A"/>
<path d="M170.149 317.61C170.385 317.71 170.663 317.762 170.856 317.917C171.566 318.483 172.373 318.683 173.265 318.702C175.719 318.75 178.144 319.057 180.569 319.461C181.542 319.624 182.553 319.55 183.545 319.583C183.719 318.624 183.115 317.765 183.163 316.836C183.248 315.215 182.823 313.679 182.486 312.124C182.416 311.802 182.379 311.469 182.353 311.14C182.212 309.422 181.786 307.73 181.923 305.991C181.942 305.735 181.879 305.454 181.779 305.213C181.52 304.573 181.542 303.907 181.549 303.24C181.564 301.245 180.931 299.298 181.105 297.292C181.116 297.166 181.076 297.022 181.024 296.903C180.709 296.207 180.768 295.471 180.739 294.742C180.72 294.212 180.717 293.664 180.561 293.168C180.358 292.513 180.324 291.858 180.35 291.192C180.432 289.189 179.739 287.25 179.899 285.243C179.91 285.118 179.869 284.973 179.813 284.855C179.465 284.096 179.554 283.285 179.543 282.489C179.528 281.627 179.573 280.768 179.258 279.924C179.103 279.506 179.136 279.003 179.147 278.54C179.188 276.608 178.54 274.731 178.692 272.791C178.703 272.665 178.644 272.532 178.607 272.403C178.137 270.755 178.222 269.123 178.733 267.498C176.893 267.631 175.053 267.765 173.21 267.898C172.658 269.849 172.81 271.858 172.695 273.85C172.525 276.837 172.247 279.813 172.029 282.797C171.985 283.396 171.966 283.996 171.962 284.596C171.94 288.926 171.359 293.235 171.477 297.57C171.052 299.879 171.137 302.215 171.126 304.543C171.111 307.408 170.585 310.24 170.641 313.113C170.656 313.89 170.36 314.678 170.149 315.448C169.952 316.177 169.893 316.888 170.149 317.606V317.61Z" fill="#FFB68B"/>
<path d="M173.21 267.898C175.05 267.764 176.889 267.631 178.733 267.494C179.788 267.435 180.843 267.376 181.898 267.316C181.927 265.055 182.046 262.793 181.646 260.543C181.531 259.891 181.557 259.214 181.561 258.547C181.59 254.35 180.972 250.178 181.076 245.977C180.591 243.271 180.902 240.521 180.661 237.808C180.376 234.617 180.469 231.415 180.217 228.235C180.088 226.573 180.01 224.919 179.969 223.257C179.962 222.924 179.969 222.583 179.902 222.261C178.888 217.245 178.27 212.148 176.989 207.192C176.308 204.553 175.568 201.928 174.946 199.27C174.646 197.982 174.602 196.639 174.08 195.402C174.058 196.272 174.017 197.138 174.013 198.005C173.973 209.357 174.076 220.714 173.847 232.066C173.713 238.607 173.765 245.155 173.454 251.688C173.232 256.36 173.277 261.031 173.158 265.703C173.14 266.435 173.195 267.168 173.217 267.901L173.21 267.898Z" fill="#8C8CDE"/>
<path d="M236.932 269.47C235.514 269.159 234.104 268.782 232.675 268.549C230.791 268.241 228.892 267.975 226.99 267.819C225.609 267.708 224.265 267.209 222.855 267.416C223.122 268.023 223.584 268.567 223.621 269.252C223.706 270.844 224.262 272.391 224.065 274.012C224.032 274.275 224.017 274.571 224.106 274.808C224.547 275.97 224.436 277.177 224.458 278.373C224.465 278.706 224.417 279.069 224.532 279.365C224.961 280.464 224.832 281.604 224.854 282.733C224.865 283.266 224.75 283.84 224.902 284.328C225.38 285.835 225.217 287.371 225.257 288.896C225.268 289.296 225.191 289.729 225.32 290.092C225.783 291.395 225.613 292.731 225.661 294.06C225.687 294.726 225.631 295.422 225.813 296.044C226.046 296.84 226.046 297.625 226.057 298.42C226.072 299.623 225.883 300.871 226.142 302.018C226.494 303.551 226.416 305.065 226.46 306.593C226.475 307.126 226.36 307.693 226.497 308.193C227.067 310.299 226.794 312.438 226.864 314.563C226.882 315.163 226.905 315.747 227.056 316.343C227.371 317.583 227.419 318.838 227.001 320.086C226.897 320.393 226.916 320.741 226.879 321.074C227.575 321.178 228.237 321.126 228.807 320.656C228.966 320.149 229.125 319.642 229.281 319.134C229.322 318.675 229.307 318.202 229.414 317.757C230.895 311.757 232.031 305.687 233.279 299.638C233.43 298.905 233.616 298.22 234.119 297.654C233.675 297.232 233.719 296.714 233.782 296.17C234.023 294.127 234.237 292.08 234.478 290.036C234.689 288.256 234.944 286.483 235.152 284.702C235.337 283.118 235.492 281.53 235.648 279.946C235.818 278.228 235.936 276.503 236.147 274.79C236.366 273.013 236.666 271.243 236.932 269.47Z" fill="#FFB68A"/>
<path d="M166.709 75.2893C166.354 77.2586 165.362 78.8724 163.963 80.2753C163.592 80.6492 163.293 81.0971 162.989 81.5339C160.753 84.7246 159.269 88.2596 158.125 91.9723C157.596 93.6935 157.255 95.4481 156.811 97.1841C156.778 97.3137 156.73 97.4432 156.722 97.5728C156.545 100.623 155.915 103.684 156.345 106.723C156.63 108.759 156.585 110.821 157.055 112.842C157.518 114.826 158.899 116.306 160.935 116.584C161.523 116.665 162.138 116.651 162.734 116.603C163.6 116.529 164.2 115.914 164.281 115.048C164.322 114.585 164.41 114.063 164.248 113.66C163.818 112.583 164.014 111.413 163.633 110.332C163.463 109.847 163.533 109.281 163.5 108.748C163.389 106.96 163.748 105.146 163.189 103.384C163.152 103.266 163.148 103.107 163.189 102.992C163.722 101.496 163.359 99.9455 163.507 98.4278C163.792 95.5776 164.351 92.7829 165.51 90.14C167.009 86.7124 168.926 83.5401 171.214 80.5752C172.273 79.2019 173.209 77.7287 173.068 75.8557C172.787 75.7742 172.484 75.7261 172.343 75.4152C172.199 75.3745 172.051 75.33 171.906 75.2893C171.584 75.3782 171.321 75.3115 171.144 75.008C170.877 74.9599 170.607 74.9081 170.34 74.8599C169.385 74.971 168.43 74.9673 167.472 74.8525C167.213 74.9044 166.95 74.9562 166.691 75.008C166.72 75.1042 166.724 75.2005 166.705 75.3004L166.709 75.2893Z" fill="#5D3819"/>
<path d="M214.027 163.943C213.553 163.957 213.116 163.854 212.676 163.661C210.843 162.862 208.959 162.203 206.998 161.814C205.635 161.544 204.251 161.392 202.892 161.118C199.591 160.456 196.256 160.863 192.939 160.707C190.315 160.589 187.775 161.007 185.269 161.703C184.747 161.848 184.233 161.929 183.704 161.959C183.463 163.213 184.074 164.398 183.981 165.649C183.907 166.697 184.103 167.729 184.348 168.751C185.525 168.129 186.709 167.529 188.042 167.315C188.171 167.293 188.293 167.211 188.423 167.2C190.337 167.045 192.25 166.882 194.168 166.756C194.83 166.711 195.489 166.748 196.137 166.982C196.504 167.111 196.918 167.115 197.314 167.137C202.13 167.393 206.746 168.514 211.173 170.406C211.776 170.665 212.32 171.064 212.868 171.442C213.201 171.672 213.497 171.934 213.927 171.938C214.167 170.124 213.993 168.285 214.297 166.463C214.43 165.66 214.13 164.787 214.027 163.946V163.943Z" fill="#E6A37B"/>
<path d="M166.709 75.2902C166.728 75.1939 166.724 75.094 166.695 74.9977C165.477 74.9311 164.252 74.7497 163.067 75.2198C164.281 75.2421 165.495 75.2643 166.709 75.2865V75.2902Z" fill="#6B6D66"/>
<path d="M167.476 74.8419C168.431 74.953 169.386 74.9567 170.345 74.8493C169.39 74.3792 168.435 74.3644 167.476 74.8419Z" fill="#6B6D66"/>
<path d="M172.346 75.4043C172.487 75.7152 172.791 75.7634 173.072 75.8448C173.338 75.7522 173.657 75.7708 173.842 75.5005C173.342 75.4672 172.842 75.4376 172.346 75.4043Z" fill="#6B6D66"/>
<path d="M171.148 74.9971C171.326 75.3006 171.592 75.3673 171.911 75.2784C171.714 75.0267 171.47 74.9083 171.148 74.9971Z" fill="#6B6D66"/>
<path d="M229.277 319.135C229.118 319.642 228.959 320.149 228.803 320.656C228.822 320.923 228.855 321.189 228.859 321.456C228.866 322.151 229.251 322.577 229.858 322.814C230.476 323.058 231.098 323.362 231.742 323.458C233.186 323.677 234.644 323.784 236.095 323.939C236.625 323.995 237.15 324.062 237.676 324.136C238.005 324.184 238.331 324.321 238.653 324.31C241.992 324.173 245.283 324.898 248.629 324.776C250.883 324.691 253.141 324.657 255.406 325.065C256.961 325.342 258.605 325.131 260.207 325.15C261.27 325.161 262.336 325.083 263.38 325.446C263.802 325.594 264.305 325.524 264.771 325.527C266.307 325.542 267.844 325.542 269.38 325.55C270.113 325.553 270.835 325.557 271.56 325.779C272.056 325.931 272.615 325.912 273.144 325.923C274.347 325.946 275.55 325.99 276.75 325.938C278.426 325.864 280.029 326.456 281.717 326.357C283.379 326.257 285.056 326.357 286.725 326.382C286.918 326.382 287.162 326.445 287.184 326.682C287.203 326.856 287.155 327.086 287.047 327.219C286.751 327.578 286.418 327.907 286.089 328.237C284.582 329.755 283.042 331.239 281.573 332.79C280.336 334.093 279.122 335.425 278.004 336.832C275.858 339.541 273.755 342.292 271.69 345.061C269.421 348.103 267.214 351.19 265.293 354.477C264.353 356.088 263.328 357.646 262.336 359.226C260.703 361.832 259.474 364.657 258.053 367.374C256.813 369.746 255.851 372.226 254.999 374.758C254.829 375.262 254.585 375.776 254.566 376.291C254.544 376.95 253.815 377.627 254.326 378.19C255.029 378.967 255.832 379.715 256.902 380.011C257.716 380.233 258.838 379.733 259.289 378.911C259.545 378.449 259.719 377.934 259.859 377.423C260.722 374.262 262.114 371.301 263.45 368.332C264.349 366.333 265.578 364.486 266.611 362.543C268.143 359.652 269.931 356.917 271.715 354.189C273.426 351.572 275.247 349.025 277.101 346.504C278.834 344.146 280.64 341.84 282.48 339.567C283.653 338.12 284.915 336.739 286.196 335.388C289.502 331.901 292.959 328.566 296.398 325.213C297.963 323.684 299.733 322.359 301.38 320.911C302.131 320.253 302.823 319.527 303.523 318.809C303.827 318.498 303.893 318.087 303.704 317.695C303.505 317.277 303.286 316.855 303.001 316.492C302.65 316.044 302.183 315.87 301.58 316.051C300.603 316.34 299.733 316.825 298.948 317.443C297.904 318.269 296.871 319.116 295.92 320.042C295.265 320.678 294.521 320.923 293.729 320.682C291.956 320.142 290.153 320.393 288.361 320.316C286.77 320.249 285.163 320.478 283.59 319.99C283.161 319.857 282.661 319.938 282.195 319.938C279.322 319.927 276.45 319.931 273.577 319.905C272.249 319.894 270.912 320.019 269.606 319.597C269.18 319.46 268.677 319.535 268.21 319.535C265.737 319.523 263.265 319.535 260.796 319.505C259.134 319.486 257.464 319.653 255.821 319.175C255.325 319.031 254.759 319.131 254.226 319.131C249.617 319.124 245.009 319.12 240.396 319.109C239.53 319.109 238.679 318.979 237.824 318.876C235.644 318.613 233.434 318.509 231.254 318.942C230.587 319.076 229.936 319.124 229.27 319.131L229.277 319.135Z" fill="#494A45"/>
<path d="M305.844 378.083C305.814 378.645 305.918 379.145 306.344 379.552C306.766 379.959 307.217 380.159 307.787 379.9C308.639 379.515 309.479 379.123 310.138 378.412C311.407 377.046 312.729 375.74 313.939 374.307C315.094 372.937 316.29 371.586 317.471 370.232C318.959 368.525 320.424 366.797 321.779 364.986C322.62 363.865 323.571 362.84 324.456 361.762C326.103 359.756 327.709 357.724 329.323 355.692C330.689 353.974 332.129 352.312 333.513 350.606C334.894 348.899 336.238 347.167 337.615 345.453C338.447 344.417 339.314 343.403 340.154 342.37C341.923 340.204 343.67 338.024 345.455 335.877C346.136 335.059 346.458 334.167 346.354 333.109C346.187 331.413 344.326 329.984 342.515 331.298C341.82 331.802 341.194 332.435 340.646 333.097C338.266 335.962 335.916 338.853 333.569 341.744C331.429 344.376 329.327 347.038 327.176 349.662C325.614 351.565 323.971 353.401 322.416 355.311C320.399 357.787 318.481 360.341 316.434 362.791C313.788 365.96 311.274 369.229 308.787 372.523C307.824 373.8 306.825 375.047 306.192 376.543C305.981 377.046 305.803 377.535 305.844 378.075V378.083Z" fill="#494A45"/>
<path d="M226.871 321.074C226.908 320.744 226.89 320.396 226.993 320.085C227.412 318.838 227.363 317.583 227.049 316.343C226.897 315.747 226.879 315.158 226.856 314.562C226.786 312.438 227.06 310.295 226.49 308.192C226.353 307.692 226.471 307.13 226.453 306.593C226.408 305.064 226.486 303.55 226.135 302.018C225.872 300.874 226.064 299.623 226.049 298.42C226.038 297.62 226.038 296.836 225.805 296.044C225.624 295.422 225.679 294.726 225.653 294.059C225.605 292.731 225.779 291.394 225.313 290.091C225.183 289.732 225.261 289.296 225.25 288.896C225.209 287.367 225.372 285.835 224.894 284.328C224.739 283.839 224.857 283.266 224.846 282.733C224.82 281.604 224.954 280.464 224.524 279.364C224.41 279.068 224.458 278.705 224.45 278.372C224.428 277.177 224.535 275.97 224.099 274.808C224.01 274.571 224.025 274.275 224.058 274.012C224.258 272.39 223.699 270.847 223.614 269.252C223.577 268.567 223.114 268.023 222.848 267.416C221.807 267.031 220.723 266.982 219.627 267.012C219.002 267.764 218.787 268.604 218.809 269.596C218.868 272.402 218.82 275.207 218.835 278.013C218.842 279.342 218.828 280.656 219.135 281.985C219.383 283.066 219.213 284.243 219.235 285.379C219.253 286.308 219.257 287.223 219.501 288.155C219.716 288.974 219.605 289.877 219.635 290.743C219.675 291.938 219.524 293.138 219.953 294.311C220.105 294.729 220.023 295.237 220.034 295.703C220.064 297.032 219.938 298.364 220.375 299.671C220.516 300.097 220.427 300.6 220.434 301.067C220.46 302.329 220.353 303.591 220.764 304.835C220.926 305.32 220.823 305.893 220.834 306.426C220.86 307.622 220.745 308.821 221.16 309.995C221.308 310.417 221.223 310.92 221.234 311.387C221.263 312.516 221.223 313.63 221.533 314.759C221.756 315.569 221.663 316.484 221.626 317.35C221.585 318.242 221.83 319.064 222.081 319.893C222.477 321.196 223.347 321.892 224.724 321.917C224.924 321.917 225.124 321.925 225.328 321.929C225.82 321.603 226.231 321.129 226.867 321.062L226.871 321.074Z" fill="#E9A37A"/>
<path d="M181.894 267.319C180.839 267.379 179.784 267.438 178.729 267.497C178.218 269.118 178.133 270.754 178.603 272.402C178.64 272.527 178.699 272.664 178.688 272.79C178.536 274.73 179.184 276.607 179.144 278.539C179.132 279.002 179.099 279.505 179.255 279.923C179.569 280.767 179.525 281.626 179.54 282.488C179.554 283.284 179.466 284.091 179.81 284.854C179.865 284.972 179.906 285.113 179.895 285.242C179.736 287.249 180.428 289.192 180.347 291.191C180.321 291.853 180.35 292.509 180.558 293.167C180.713 293.663 180.717 294.215 180.735 294.741C180.765 295.473 180.702 296.21 181.02 296.902C181.076 297.021 181.113 297.165 181.102 297.291C180.928 299.297 181.561 301.244 181.546 303.239C181.542 303.906 181.516 304.572 181.775 305.212C181.872 305.453 181.938 305.734 181.92 305.99C181.783 307.733 182.208 309.425 182.349 311.139C182.375 311.468 182.416 311.801 182.482 312.123C182.815 313.678 183.241 315.214 183.16 316.835C183.112 317.768 183.719 318.623 183.541 319.582C183.967 319.978 184.5 319.922 185.014 319.933C186.117 319.959 187.224 319.974 188.327 319.996C188.764 318.904 188.675 317.846 188.386 316.706C187.913 314.848 187.813 312.908 187.494 311.024C187.209 309.321 187.365 307.57 186.846 305.901C186.713 305.468 186.769 304.975 186.758 304.509C186.743 303.643 186.787 302.784 186.454 301.944C186.313 301.588 186.365 301.155 186.354 300.756C186.339 299.956 186.391 299.157 186.062 298.39C185.962 298.157 185.962 297.868 185.958 297.602C185.936 295.47 185.395 293.393 185.247 291.291C185.125 289.566 184.803 287.87 184.714 286.142C184.626 284.361 184.344 282.588 184.052 280.826C183.856 279.649 184.155 278.406 183.589 277.28C183.722 275.737 183.226 274.256 183.104 272.731C182.952 270.888 182.623 269.052 181.886 267.323L181.894 267.319Z" fill="#E9A37A"/>
</svg>
