<svg width="500" height="500" viewBox="0 0 500 500" fill="none" xmlns="http://www.w3.org/2000/svg">
<path d="M421.993 347.311C422.208 347.319 422.422 347.323 422.632 347.331C422.855 348.117 422.422 348.82 422.354 349.57C422.001 353.668 421.421 357.741 421.108 361.847C420.973 363.614 420.921 365.392 420.703 367.147C420.52 368.601 420.441 370.046 420.48 371.507C418.813 371.602 417.209 371.142 415.577 370.943C410.098 370.28 404.626 369.549 399.159 368.807C395.324 368.287 391.5 367.691 387.668 367.159C383.333 366.556 378.997 365.94 374.653 365.416C369.297 364.769 363.949 364.058 358.74 362.617C355.623 361.755 352.518 360.83 349.512 359.615C348.432 359.179 347.344 358.988 346.181 358.992C333.928 359.032 321.671 359.008 309.419 359.083C304.912 359.111 300.406 359.06 295.899 359.266C293.493 359.377 291.075 359.254 288.665 359.246C287.331 359.246 286.001 359.258 284.667 359.278C281.995 359.318 279.342 358.976 276.686 358.774C273.712 358.547 270.75 358.17 267.784 357.856C262.599 357.309 257.489 356.36 252.47 354.93C252.105 354.827 251.72 354.767 251.37 354.625C250.783 354.386 250.298 354.497 249.766 354.831C246.642 356.784 243.175 357.761 239.566 358.293C236.39 358.766 233.229 358.508 230.089 357.976C224.034 356.947 218.312 354.891 212.817 352.203C209.74 350.698 206.703 349.102 203.669 347.509C201.414 346.322 199.345 344.881 197.479 343.118C196.236 341.947 194.787 340.998 193.457 339.918C190.352 337.397 187.307 334.804 184.591 331.854C185.068 331.036 185.107 330.17 184.786 329.301C184.48 328.475 184.138 327.657 183.769 326.859C182.018 323.083 180.279 319.303 178.485 315.547C176.857 312.141 175.161 308.762 173.494 305.371C176.749 304.875 180.041 304.748 183.317 304.478C184.075 304.414 184.837 304.426 185.596 304.362C188.117 304.16 190.634 303.854 193.159 303.755C195.943 303.644 198.706 303.187 201.505 303.286C201.879 303.298 202.252 303.167 202.629 303.116C204.134 302.901 205.635 302.695 207.139 302.484C209.51 304.239 211.88 305.998 214.25 307.753C214.866 308.706 215.831 308.952 216.871 309.016C217.566 309.059 218.288 308.964 218.955 309.111C221.385 309.639 223.899 309.179 226.317 309.762C231.693 309.961 237.077 309.885 242.457 310.068C249.993 310.326 257.54 310.143 265.08 310.223C268.177 310.255 271.274 310.473 274.371 310.608C274.562 310.616 274.752 310.624 274.939 310.667C276.563 311.049 278.207 310.969 279.854 310.906C281.208 311.243 282.562 311.581 283.912 311.926C291.107 313.76 298.174 316.024 305.21 318.382C311.765 320.578 318.312 322.793 324.856 325.029C327.984 326.097 331.201 326.815 334.421 327.53C339.308 328.614 344.188 329.742 349.072 330.837C352.784 331.671 356.5 332.461 360.209 333.303C367.812 335.03 375.412 336.773 383.015 338.516C389.257 339.946 395.494 341.383 401.736 342.812C407.914 344.226 414.096 345.635 420.274 347.041C420.707 347.14 421.147 347.192 421.584 347.267C421.703 347.438 421.838 347.446 421.993 347.319V347.311Z" fill="#696D66"/>
<path d="M207.14 302.483C205.635 302.694 204.134 302.9 202.629 303.115C202.252 303.166 201.879 303.297 201.505 303.285C198.71 303.186 195.947 303.643 193.16 303.754C190.634 303.853 188.117 304.159 185.596 304.361C184.837 304.421 184.075 304.413 183.317 304.476C180.041 304.746 176.75 304.873 173.494 305.37C172.72 305.239 171.965 305.29 171.243 305.608C169.662 305.548 168.086 305.608 166.514 305.83C165.64 305.953 164.751 305.949 163.865 305.985C162.527 306.041 161.336 305.572 160.399 304.683C159.303 303.643 158.339 302.499 157.783 301.014C156.445 297.445 156.429 293.812 157.274 290.187C158.295 285.819 159.347 281.46 160.657 277.164C161.396 274.746 162.083 272.316 162.793 269.89C165.049 262.445 167.328 255.004 169.555 247.552C171.31 241.676 172.938 235.76 174.756 229.899C175.872 226.302 177.544 222.983 180.418 220.378C182.67 218.337 185.25 216.924 188.129 216.054C191.432 215.054 194.827 214.776 198.266 214.946C198.031 216.38 197.718 217.809 197.583 219.254C197.428 220.89 197.352 222.542 197.261 224.178C197.082 227.402 196.999 230.634 196.808 233.862C196.701 235.696 196.88 237.558 196.661 239.377C196.387 241.66 196.443 243.931 196.403 246.214C194.351 251.189 192.901 256.366 191.456 261.536C190.69 264.268 189.935 267.007 189.316 269.786C188.78 272.189 187.966 274.523 187.379 276.913C187.14 277.882 186.676 278.807 186.719 279.84C187.799 280.3 188.828 279.736 189.84 279.582C195.204 278.768 200.549 277.831 205.897 276.937C208.267 276.576 210.638 276.211 213.012 275.857C213.989 275.71 214.108 275.635 214.282 274.535C214.723 271.7 215.541 268.984 216.895 266.447C218.289 263.839 220.051 261.56 222.66 260.039C222.986 259.848 223.311 259.634 223.665 259.527C226.222 258.749 228.675 258.975 230.958 260.42C231.653 260.857 232.288 261.389 232.952 261.873C232.713 262.521 232.32 263.16 232.269 263.823C232.146 265.332 232.038 266.872 232.336 268.361C232.499 269.179 232.63 269.985 232.57 270.799C232.38 273.4 233.158 275.945 232.987 278.541C232.975 278.724 233.015 278.93 233.087 279.097C233.376 279.76 233.341 280.459 233.345 281.154C233.345 281.722 233.38 282.278 233.547 282.837C233.686 283.31 233.726 283.834 233.714 284.334C233.69 285.168 233.92 285.95 234.055 286.756C234.262 287.999 234.965 288.483 236.128 288.511C235.822 290.163 235.127 291.648 234.039 292.914C233.301 293.776 232.519 294.63 231.629 295.325C229.636 296.881 227.548 298.239 225.003 298.862C222.668 299.438 220.294 299.752 217.955 300.256C216.168 300.645 214.382 301.03 212.595 301.415C210.709 301.443 208.898 301.844 207.132 302.479L207.14 302.483Z" fill="#FFB68A"/>
<path d="M274.499 209.19C276.897 210.616 278.541 212.795 280.224 214.935C282.118 217.338 283.603 220.006 284.997 222.706C287.506 227.554 290.412 232.171 293.188 236.86C295.157 240.188 297.103 243.531 299.036 246.878C301.859 251.765 304.702 256.637 307.454 261.565C308.875 264.11 310.122 266.754 311.456 269.351C311.893 270.196 312.353 271.026 312.814 271.86C313.925 273.865 314.847 275.965 315.402 278.181C316.018 280.647 316.355 283.196 315.573 285.685C314.688 288.496 313.056 290.632 309.903 291.212C307.668 291.625 305.468 292.185 303.177 292.36C299.771 292.618 296.356 292.824 292.957 293.134C290.69 293.34 288.391 293.193 286.152 293.709C286.029 293.737 285.898 293.745 285.775 293.741C283.043 293.65 280.347 294.186 277.615 294.226C275.976 294.249 274.336 294.496 272.7 294.643C271.882 294.643 271.036 294.512 270.242 294.662C268.861 294.924 267.479 294.932 266.089 294.98C265.772 294.992 265.442 294.96 265.144 295.04C263.711 295.421 262.254 295.318 260.801 295.306C257.386 295.282 253.987 294.845 250.569 294.964C249.306 295.008 248.036 294.948 246.773 294.964C243.207 294.996 240.539 293.166 238.185 290.759C237.577 290.14 237.204 289.294 236.724 288.552C236.994 288.202 237.26 287.849 237.534 287.508C237.736 287.253 237.903 286.987 237.903 286.654C237.899 285.769 238.042 284.843 237.831 284.01C237.542 282.878 237.569 281.758 237.542 280.627C237.526 280.059 237.621 279.448 237.446 278.931C237.129 277.998 237.188 277.061 237.164 276.116C237.156 275.735 237.236 275.322 237.117 274.985C236.505 273.285 236.835 271.487 236.485 269.74C236.116 267.909 235.886 266.023 235.648 264.153C235.556 263.435 235.263 262.831 234.798 262.287C234.552 262.001 234.329 261.696 234.095 261.402C234.393 260.203 235.35 259.496 236.215 258.797C237.752 257.554 239.582 256.983 241.556 257.3C244.379 257.757 246.904 258.869 248.802 261.112C251.267 264.03 253.483 267.103 254.837 270.72C254.968 271.078 255.17 271.407 255.305 271.761C255.647 272.662 256.286 273 257.235 272.92C259.57 272.718 261.904 272.559 264.239 272.364C264.549 272.336 264.846 272.19 265.148 272.098C266.796 272.122 268.428 271.892 270.068 271.789C273.034 271.606 275.992 271.169 278.977 271.28C280.244 271.328 281.471 271.042 282.702 270.836C282.793 270.069 282.38 269.541 282.102 268.997C280.105 265.106 278.084 261.231 276.063 257.356C275.948 257.134 275.797 256.927 275.67 256.705C274.407 254.509 273.117 252.325 271.886 250.114C269.976 246.679 267.991 243.292 265.736 240.068C265.442 239.652 265.148 239.243 264.711 238.961C263.687 235.57 262.647 232.187 261.634 228.792C259.864 222.853 258.097 216.909 256.366 210.961C256.103 210.06 255.734 209.162 255.81 208.186C257.128 208.106 258.45 208.094 259.756 207.939C263.723 207.479 267.658 207.789 271.596 208.285C272.474 208.396 273.319 208.591 274.161 208.845L274.118 208.817C274.249 208.948 274.38 209.075 274.511 209.206L274.499 209.19Z" fill="#FFB68A"/>
<path d="M265.14 272.081C264.838 272.173 264.536 272.324 264.231 272.347C261.896 272.546 259.561 272.705 257.227 272.903C256.278 272.987 255.639 272.645 255.297 271.744C255.162 271.39 254.964 271.057 254.829 270.704C253.475 267.086 251.255 264.013 248.794 261.095C246.896 258.848 244.37 257.736 241.547 257.283C239.574 256.966 237.744 257.538 236.207 258.78C235.342 259.479 234.385 260.186 234.087 261.385C233.71 261.548 233.336 261.71 232.959 261.873C232.296 261.385 231.661 260.857 230.966 260.416C228.683 258.971 226.229 258.745 223.672 259.523C223.319 259.63 222.989 259.844 222.668 260.035C220.059 261.552 218.296 263.835 216.903 266.443C215.549 268.98 214.731 271.692 214.29 274.531C214.119 275.631 213.996 275.706 213.02 275.853C210.645 276.207 208.275 276.572 205.905 276.933C205.936 276.298 205.857 275.687 205.67 275.067C203.502 267.797 201.35 260.519 198.972 253.313C198.182 250.923 197.459 248.509 196.411 246.21C196.451 243.931 196.391 241.656 196.669 239.373C196.888 237.554 196.709 235.692 196.816 233.858C197.003 230.63 197.086 227.398 197.269 224.174C197.36 222.534 197.436 220.886 197.59 219.25C197.729 217.805 198.039 216.38 198.273 214.942C201.08 214.549 203.888 214.152 206.695 213.763C207.882 213.6 209.081 213.509 210.252 213.275C211.439 213.037 212.627 212.965 213.83 212.989C214.306 214.597 215.338 215.907 216.184 217.313C218.344 220.89 220.552 224.44 222.771 227.977C224.725 231.086 226.726 234.167 228.711 237.256C229.048 237.78 229.35 238.503 230.093 238.364C230.76 238.241 230.998 237.534 231.256 236.951C231.331 236.776 231.387 236.593 231.447 236.415C233.896 228.958 236.342 221.498 238.796 214.041C239.252 212.659 239.741 211.29 240.217 209.916C242.5 209.543 244.783 209.173 247.066 208.8C248.627 208.836 250.167 208.752 251.724 208.554C253.07 208.379 254.404 207.891 255.797 208.153C255.722 209.13 256.091 210.027 256.353 210.928C258.084 216.88 259.851 222.82 261.622 228.76C262.635 232.154 263.671 235.541 264.699 238.928C264.54 240.56 264.366 242.192 264.235 243.824C264.06 246.023 263.965 248.235 263.754 250.43C263.429 253.821 263.139 257.216 263.047 260.623C263.036 261 263.071 261.389 262.996 261.758C262.797 262.723 263.028 263.616 263.258 264.541C263.881 267.051 264.783 269.489 265.136 272.065L265.14 272.081Z" fill="#8A89DE"/>
<path d="M162.798 269.894C162.087 272.32 161.4 274.75 160.661 277.168C159.347 281.46 158.295 285.824 157.279 290.191C156.433 293.816 156.449 297.449 157.787 301.019C158.343 302.499 159.308 303.647 160.403 304.687C161.34 305.577 162.532 306.045 163.87 305.99C164.755 305.954 165.644 305.958 166.518 305.835C168.09 305.612 169.663 305.553 171.247 305.612C170.651 306.712 170.798 307.764 171.334 308.864C173.252 312.775 175.126 316.706 177.02 320.625C177.183 320.966 177.381 321.296 177.52 321.645C178.719 324.71 180.391 327.545 181.788 330.515C182.277 331.551 183.015 332.091 184.19 331.901C183.913 332.6 184.151 333.275 184.325 333.938C184.695 335.339 185.108 336.725 185.513 338.119C185.866 339.33 186.156 340.552 186.231 341.819C186.267 342.45 186.319 343.078 186.1 343.689C185.536 343.741 184.965 343.749 184.413 343.856C179.652 344.777 174.9 345.718 170.143 346.651C169.393 346.798 168.642 346.881 167.947 346.441C163.913 340.064 159.875 333.688 155.845 327.307C148.968 316.424 142.096 305.537 135.223 294.654C134.067 292.827 133.007 290.957 132.376 288.869C131.157 284.843 131.213 280.845 132.785 276.938C134.77 272.006 138.208 268.393 143.092 266.281C148.627 263.891 153.999 264.586 159.145 267.512C160.407 268.23 161.587 269.1 162.802 269.902L162.798 269.894Z" fill="#6A6E67"/>
<path d="M213.798 204.66C210.558 201.607 208.319 197.907 206.798 193.758C205.532 190.303 204.821 186.726 204.352 183.085C203.991 180.278 203.832 177.427 202.927 174.707C202.871 174.541 202.935 174.334 202.943 174.144C203.372 174.112 203.598 173.814 203.812 173.488C204.309 172.742 204.964 172.146 205.635 171.563C206.977 170.399 208.418 169.363 209.907 168.398C213.901 165.809 218.285 164.166 222.978 163.53C229.291 162.677 235.159 164.305 240.73 167.219C242.763 168.283 244.418 169.887 246.356 171.09C246.471 172.921 246.646 174.751 246.685 176.581C246.781 180.703 246.495 184.816 245.895 188.89C245.145 193.98 243.37 198.681 240.035 202.699C239.32 202.699 238.661 202.993 238.05 203.275C235.179 204.609 232.098 204.78 229.029 205.006C227.778 205.097 226.531 204.994 225.265 205.288C224.244 205.522 223.089 205.518 222.065 205.296C220.865 205.038 219.686 205.042 218.491 205.01C217.987 204.998 217.439 205.085 216.986 204.923C215.93 204.553 214.866 204.637 213.798 204.657V204.66Z" fill="#FFB68A"/>
<path d="M255.797 208.166C254.404 207.9 253.07 208.392 251.724 208.567C250.167 208.769 248.627 208.852 247.066 208.817C247.066 207.487 247.122 206.153 247.054 204.822C246.939 202.512 247.555 200.316 248.071 198.112C248.647 195.659 249.445 193.256 250.068 190.811C251.311 185.923 252.49 181.02 253.721 176.132C254.213 174.174 254.725 172.221 255.293 170.287C256.008 167.853 256.246 165.34 256.552 162.847C256.742 161.294 256.504 159.718 256.278 158.138C255.702 154.1 254.308 150.419 251.823 147.219C250.592 145.635 249.135 144.209 247.451 143.03C244.99 141.307 242.306 140.052 239.491 139.079C238.303 138.671 237.208 137.964 235.905 137.892C239.324 135.788 242.921 134.104 246.872 133.251C257.965 130.853 269.305 138.063 271.83 149.121C272.517 152.134 272.553 155.168 272.017 158.193C271.302 162.251 270.492 166.293 269.753 170.351C268.674 176.255 268.483 182.195 269.035 188.17C269.515 193.372 270.595 198.442 272.156 203.425C272.632 204.946 273.263 206.391 273.978 207.808C274.133 208.118 274.458 208.432 274.153 208.833C273.311 208.579 272.465 208.384 271.588 208.273C267.649 207.776 263.714 207.463 259.748 207.927C258.442 208.078 257.115 208.094 255.801 208.174L255.797 208.166Z" fill="#7B4923"/>
<path d="M246.356 171.094C244.422 169.891 242.763 168.283 240.73 167.223C235.159 164.308 229.291 162.685 222.978 163.534C218.285 164.169 213.901 165.813 209.907 168.402C208.418 169.367 206.981 170.403 205.635 171.566C204.964 172.15 204.309 172.75 203.812 173.492C203.598 173.814 203.372 174.115 202.943 174.147C202.47 171.725 201.863 169.315 201.545 166.873C200.509 158.789 202.514 151.635 208.474 145.866C212.547 141.923 217.522 139.882 223.156 139.481C224.733 139.37 226.329 139.414 227.905 139.517C229.374 139.612 230.807 139.596 232.217 139.14C232.086 140.339 232.888 140.879 233.817 141.2C234.905 141.574 235.917 142.082 236.934 142.602C239.273 143.801 241.289 145.433 242.973 147.442C245.462 150.408 246.983 153.866 247.845 157.614C248.293 159.576 248.615 161.569 248.945 163.554C249.036 164.106 249.012 164.69 248.837 165.249C248.726 165.611 248.619 165.984 248.607 166.357C248.555 168.009 247.761 169.383 247.007 170.776C246.876 171.019 246.614 171.074 246.356 171.098V171.094Z" fill="#7B4923"/>
<path d="M236.724 288.54C237.204 289.282 237.581 290.128 238.185 290.747C240.539 293.153 243.208 294.984 246.773 294.952C248.04 294.94 249.306 294.999 250.569 294.952C253.987 294.833 257.386 295.273 260.801 295.293C262.254 295.301 263.711 295.408 265.144 295.027C265.442 294.948 265.772 294.98 266.089 294.968C267.479 294.92 268.861 294.912 270.242 294.65C271.036 294.499 271.882 294.626 272.7 294.63C274.32 298.327 275.94 302.023 277.56 305.72C278.318 307.447 279.081 309.174 279.843 310.901C278.199 310.965 276.551 311.044 274.928 310.663C274.745 310.619 274.55 310.611 274.36 310.603C271.263 310.468 268.166 310.25 265.069 310.218C257.529 310.139 249.977 310.321 242.445 310.063C237.065 309.881 231.681 309.956 226.305 309.758C223.887 309.174 221.374 309.635 218.944 309.107C218.273 308.96 217.554 309.059 216.859 309.011C215.819 308.944 214.858 308.698 214.239 307.749C214.036 305.549 213.596 303.409 212.595 301.42C214.382 301.035 216.169 300.645 217.955 300.26C220.294 299.752 222.668 299.438 225.003 298.867C227.544 298.243 229.632 296.881 231.63 295.329C232.519 294.634 233.301 293.781 234.04 292.919C235.128 291.652 235.822 290.167 236.128 288.512C236.327 288.52 236.525 288.532 236.724 288.54Z" fill="#8A89DD"/>
<path d="M167.939 346.433C168.634 346.874 169.385 346.79 170.135 346.644C174.892 345.711 179.648 344.77 184.405 343.848C184.957 343.741 185.529 343.737 186.092 343.682C186.18 343.769 186.315 343.844 186.347 343.952C187.288 346.969 188.197 349.995 188.411 353.179C188.459 353.87 188.661 354.553 188.689 355.244C188.792 357.916 188.455 360.536 187.681 363.105C186.871 365.789 185.1 367.119 182.297 367.377C179.724 367.616 177.155 367.941 174.594 368.354C171.977 368.779 169.349 369.156 166.724 369.533C164.787 369.811 162.818 369.855 160.864 370.002C160.36 370.038 159.84 370.006 159.347 370.105C157.009 370.574 154.682 370.478 152.379 369.938C150.243 369.434 148.524 368.302 147.674 366.19C146.801 364.014 147.595 361.243 149.477 359.675C150.108 359.151 150.775 358.662 151.454 358.198C156.254 354.898 161.067 351.615 165.859 348.307C166.625 347.779 167.519 347.362 167.935 346.433H167.939Z" fill="#FFB68B"/>
<path d="M420.48 371.502C420.441 370.045 420.52 368.6 420.703 367.143C420.925 365.388 420.973 363.609 421.108 361.842C421.421 357.737 422.001 353.663 422.354 349.566C422.418 348.815 422.855 348.108 422.632 347.326C423.776 346.735 424.653 345.798 425.606 344.968C427.472 343.34 429.541 341.99 431.49 340.477C433.888 338.611 436.267 336.725 438.645 334.835C439.503 334.156 440.479 333.739 441.484 333.326C442.747 332.806 443.898 333.076 444.903 333.791C446.737 335.101 447.912 336.852 447.912 339.219C447.912 340.358 447.809 341.474 447.579 342.605C446.57 347.576 444.986 352.385 443.572 357.244C442.723 360.167 441.718 363.029 440.654 365.876C440.166 367.19 439.562 368.441 438.732 369.577C436.759 372.281 434.139 373.396 430.799 372.876C428.989 372.594 427.163 372.404 425.336 372.292C423.684 372.193 422.072 371.947 420.484 371.498L420.48 371.502Z" fill="#FFB78B"/>
<path d="M246.356 171.093C246.614 171.073 246.876 171.013 247.007 170.771C247.761 169.381 248.555 168.004 248.607 166.352C248.619 165.979 248.726 165.606 248.837 165.244C249.012 164.684 249.036 164.101 248.944 163.549C248.615 161.564 248.293 159.57 247.844 157.609C246.987 153.861 245.462 150.403 242.973 147.437C241.289 145.432 239.272 143.8 236.934 142.597C235.921 142.077 234.905 141.568 233.817 141.195C232.888 140.873 232.086 140.337 232.217 139.134C233.404 138.594 234.623 138.15 235.905 137.888C237.208 137.955 238.299 138.666 239.491 139.075C242.306 140.048 244.99 141.298 247.451 143.025C249.135 144.205 250.592 145.63 251.823 147.214C254.308 150.415 255.702 154.095 256.278 158.133C256.504 159.713 256.742 161.29 256.552 162.842C256.246 165.336 256.008 167.849 255.293 170.283C254.725 172.22 254.209 174.17 253.721 176.127C252.494 181.019 251.315 185.922 250.068 190.806C249.445 193.252 248.647 195.654 248.071 198.108C247.555 200.307 246.939 202.507 247.054 204.818C247.122 206.144 247.066 207.478 247.066 208.812C244.783 209.185 242.5 209.555 240.217 209.928C240.15 209.42 240.217 208.88 239.888 208.427C239.935 206.517 239.987 204.607 240.035 202.698C243.366 198.679 245.145 193.978 245.895 188.888C246.495 184.815 246.78 180.705 246.685 176.58C246.641 174.749 246.467 172.919 246.356 171.089V171.093Z" fill="#5D3818"/>
<path d="M239.888 208.427C240.217 208.879 240.15 209.419 240.217 209.928C239.741 211.301 239.252 212.671 238.796 214.053C236.342 221.509 233.896 228.97 231.447 236.426C231.387 236.605 231.331 236.792 231.256 236.962C230.998 237.542 230.756 238.249 230.093 238.376C229.35 238.515 229.044 237.792 228.711 237.268C226.726 234.179 224.725 231.098 222.771 227.989C220.548 224.452 218.344 220.902 216.184 217.325C215.338 215.923 214.306 214.609 213.83 213.001C214.159 212.532 214.302 212.02 214.274 211.44C214.243 210.829 214.266 210.213 214.27 209.598C215.708 209.749 217.165 209.797 218.57 210.094C219.452 210.281 220.313 210.372 221.195 210.344C224.725 210.225 228.27 210.698 231.78 209.979C234.027 210.086 236.152 209.519 238.244 208.796C238.784 208.609 239.312 208.395 239.896 208.431L239.888 208.427Z" fill="#FFB58C"/>
<path d="M239.888 208.427C239.3 208.391 238.776 208.605 238.236 208.792C236.14 209.514 234.015 210.082 231.772 209.975C228.266 210.694 224.717 210.221 221.187 210.34C220.309 210.372 219.448 210.277 218.562 210.09C217.157 209.792 215.696 209.749 214.262 209.594C213.957 209.03 213.969 208.415 213.949 207.795C213.917 206.751 213.849 205.707 213.798 204.659C214.87 204.635 215.934 204.555 216.986 204.925C217.443 205.083 217.987 204.996 218.491 205.012C219.686 205.044 220.865 205.04 222.064 205.298C223.089 205.52 224.244 205.524 225.265 205.29C226.527 204.996 227.774 205.099 229.029 205.008C232.102 204.782 235.179 204.611 238.049 203.277C238.661 202.991 239.32 202.701 240.035 202.701C239.987 204.611 239.935 206.521 239.888 208.431V208.427Z" fill="#E6A37B"/>
<path d="M184.186 331.893C183.011 332.083 182.273 331.543 181.784 330.507C180.387 327.537 178.715 324.702 177.516 321.637C177.377 321.283 177.183 320.958 177.016 320.616C175.122 316.694 173.248 312.763 171.33 308.856C170.794 307.76 170.643 306.708 171.243 305.604C171.969 305.286 172.724 305.235 173.494 305.366C175.162 308.757 176.853 312.132 178.485 315.542C180.28 319.298 182.019 323.078 183.77 326.854C184.139 327.652 184.48 328.47 184.786 329.296C185.108 330.165 185.068 331.027 184.591 331.849C184.456 331.861 184.321 331.877 184.186 331.889V331.893Z" fill="#494A45"/>
<path d="M274.499 209.189C274.368 209.058 274.236 208.931 274.105 208.8C274.518 208.645 274.427 208.998 274.499 209.189Z" fill="#7B4923"/>
<path d="M421.993 347.309C421.839 347.44 421.7 347.429 421.584 347.258C421.723 347.274 421.858 347.29 421.993 347.309Z" fill="#FFB78B"/>
<path d="M236.723 288.539C236.524 288.531 236.326 288.519 236.127 288.511C234.964 288.483 234.261 287.999 234.055 286.756C233.92 285.95 233.693 285.168 233.713 284.334C233.725 283.834 233.689 283.314 233.547 282.837C233.38 282.277 233.348 281.721 233.344 281.154C233.344 280.459 233.376 279.76 233.086 279.097C233.011 278.93 232.975 278.724 232.987 278.541C233.153 275.944 232.375 273.399 232.57 270.799C232.629 269.985 232.498 269.183 232.336 268.361C232.038 266.872 232.149 265.331 232.268 263.823C232.324 263.16 232.713 262.52 232.951 261.873C233.328 261.71 233.701 261.548 234.079 261.385C234.313 261.683 234.535 261.984 234.781 262.27C235.246 262.81 235.54 263.418 235.631 264.136C235.873 266.006 236.1 267.888 236.469 269.723C236.822 271.47 236.489 273.268 237.1 274.968C237.223 275.305 237.14 275.722 237.148 276.099C237.172 277.044 237.112 277.981 237.43 278.914C237.604 279.431 237.513 280.042 237.525 280.61C237.553 281.741 237.525 282.861 237.815 283.993C238.029 284.826 237.882 285.751 237.886 286.637C237.886 286.97 237.719 287.236 237.517 287.491C237.243 287.836 236.977 288.185 236.707 288.535L236.723 288.539Z" fill="#E6A37B"/>
</svg>
