<svg width="500" height="500" viewBox="0 0 500 500" fill="none" xmlns="http://www.w3.org/2000/svg">
<path d="M357.6 327.315C356.677 326.807 356.242 325.868 355.753 325.038C354.686 323.225 353.739 321.343 352.773 319.473C350.215 314.521 347.678 309.558 345.124 304.602C343.254 300.97 341.372 297.342 339.493 293.71C337.39 289.639 335.295 285.561 333.191 281.49C331.798 278.793 330.382 276.111 328.993 273.414C328.182 271.839 328.197 271.831 328.593 270.089C327.378 268.366 326.257 266.577 325.523 264.598C323.54 259.25 321.608 253.887 319.668 248.528C318.403 245.032 317.149 241.532 315.907 238.031C315.554 237.038 315.329 236.017 315.116 234.981C314.46 231.83 313.808 228.672 312.659 225.645C311.763 223.278 310.397 221.267 308.383 219.684C306.908 218.524 305.24 217.95 303.416 217.833C300.346 217.635 297.529 218.52 294.929 220.095C293.916 220.709 292.985 221.485 292.477 222.583C291.828 223.988 291.204 225.396 290.878 226.933C290.3 229.661 289.745 232.385 289.322 235.144C288.903 237.896 288.239 240.612 287.789 243.359C287.521 245.005 287.288 246.689 287.335 248.346C287.397 250.531 288.076 252.622 289.217 254.504C289.869 255.579 290.816 256.387 291.988 256.91C292.729 257.24 293.482 257.523 294.281 257.652C294.898 257.749 295.267 258.086 295.515 258.645C296.144 260.061 296.803 261.462 297.455 262.871C299.124 266.472 300.793 270.069 302.457 273.671C302.667 274.121 302.931 274.555 302.776 275.087C303.455 275.362 303.843 275.91 304.118 276.55C304.464 277.342 304.766 278.153 305.139 278.933C306.392 281.552 307.704 284.144 308.911 286.787C311.018 291.397 313.315 295.918 315.531 300.477C315.612 300.644 315.686 300.815 315.783 300.974C316.191 301.63 316.307 302.352 316.295 303.108C316.73 303.105 316.94 303.376 317.126 303.725C317.91 305.188 318.647 306.679 319.423 308.142C320.801 310.738 322.077 313.392 323.451 315.992C323.831 316.71 324.173 317.428 324.068 318.274C324.146 319.038 324.549 319.678 324.926 320.303C326.109 322.271 327.08 324.339 328.1 326.388C328.484 327.164 328.876 327.936 329.288 328.697C330.588 331.087 332.004 333.42 333.18 335.868C335.058 339.78 337.398 343.428 339.532 347.188C340.937 349.664 342.21 352.201 343.533 354.712C343.712 355.054 343.766 355.411 343.778 355.783C345.314 356.773 346.04 358.383 346.866 359.897C348.411 362.722 349.955 365.551 351.356 368.446C352.381 370.564 353.809 372.318 355.609 373.758C356.669 374.608 357.55 375.659 358.764 376.339C359.913 376.979 361.062 377.452 362.4 377.596C365.043 377.879 367.701 377.999 370.325 378.353C372.35 378.628 374.391 378.554 376.413 378.915C378.229 379.241 380.104 379.245 381.951 379.393C383.86 379.544 385.773 379.676 387.678 379.847C389.914 380.045 392.091 379.757 394.244 379.16C395.471 378.822 396.084 377.972 396.348 376.812C396.774 374.942 397.166 373.067 397.089 371.131C397.042 370.017 397.069 368.9 397.058 367.786C397.054 367.289 396.996 366.808 396.883 366.319C396.666 365.368 396.107 364.829 395.203 364.522C391.512 363.277 387.83 362 384.139 360.743C382.692 360.25 381.279 359.664 379.886 358.958C380.612 358.888 381.334 358.822 382.059 358.752C381.229 358.395 380.356 358.62 379.502 358.558C378.765 358.504 378.016 358.569 377.298 358.321C375.311 357.63 373.328 356.94 371.341 356.253C370.91 356.101 370.596 355.818 370.39 355.418C370.193 355.034 370.006 354.642 369.82 354.25C367.86 350.114 365.908 345.973 363.941 341.84C362.105 337.987 360.254 334.141 358.419 330.288C358.151 329.729 357.93 329.151 357.674 328.588C357.484 328.173 357.495 327.75 357.588 327.319L357.6 327.315Z" fill="#F6BB92"/>
<path d="M288.72 199.878C288.872 199.54 289.132 199.253 289.279 198.915C290.373 196.432 291.452 193.94 292.539 191.453C292.667 191.162 292.748 190.871 292.612 190.56C292.294 190.619 291.91 190.758 291.887 191.057C291.786 192.225 290.893 193.025 290.563 194.088C290.373 194.697 289.877 194.833 289.43 194.402C288.227 193.242 286.989 192.101 285.907 190.836C284.463 189.148 283.132 187.363 281.522 185.826C280.443 184.798 279.512 183.649 278.592 182.485C277.478 181.073 276.772 179.443 276.085 177.805C276.19 176.986 275.418 176.509 275.305 175.756C275.103 174.417 274.758 173.102 274.614 171.759C274.498 170.657 274.405 169.493 274.634 168.426C275.026 166.633 275.262 164.809 275.93 163.051C276.698 161.022 277.649 159.136 278.922 157.397C279.434 156.699 280.4 156.474 281.266 156.8C281.51 156.893 281.654 157.164 281.553 157.413C281.176 158.329 281.087 159.357 280.707 160.218C280.148 161.483 280.16 162.737 280.148 164.029C280.14 165.205 280.272 166.4 280.117 167.557C279.872 169.423 280.563 171.099 281.165 172.722C282.131 175.318 283.446 177.786 285.511 179.745C285.6 179.831 285.689 179.92 285.763 180.017C287.603 182.345 289.555 184.573 291.673 186.653C291.852 186.827 292.015 187.014 292.197 187.181C292.709 187.642 292.927 188.155 292.57 188.826C292.383 189.175 292.391 189.544 292.76 189.812C293.07 189.699 293.307 189.478 293.381 189.171C293.571 188.387 294.006 187.673 294.192 186.921C294.463 185.834 295.084 184.895 295.313 183.801C295.899 181.014 296.963 178.379 297.929 175.717C298.088 175.283 298.383 174.972 298.856 174.902C300.626 174.639 302.391 174.301 304.169 174.157C306.202 173.99 308.216 173.727 310.238 173.474C311.534 173.311 312.593 172.85 313.606 172.108C316.691 169.85 319.691 167.479 322.768 165.209C325.496 163.199 328.302 161.254 330.785 158.926C330.813 157.673 330.498 156.509 329.897 155.406C329.695 155.034 329.59 154.611 329.439 154.211C329.276 153.922 329.105 153.643 328.927 153.377C327.429 150.156 325.085 147.63 322.314 145.484C319.73 143.481 316.777 142.182 313.606 141.495C311.615 141.064 309.559 140.889 307.502 141.072C307.071 141.11 306.637 141.204 306.206 141.196C304.367 141.165 302.616 141.7 300.983 142.379C297.106 143.994 293.237 145.658 289.644 147.867C287.024 149.477 284.867 151.584 283.26 154.227C283.194 154.332 283.101 154.421 283.047 154.529C282.527 155.6 281.844 155.958 280.536 155.74C278.208 155.352 275.945 154.751 273.675 154.149C273.198 154.025 272.705 153.928 272.216 153.893C271.227 153.827 270.233 153.781 269.244 153.781C263.927 153.784 259.872 156.198 256.853 160.443C254.35 163.959 253.737 167.948 254.369 172.132C254.637 173.905 255.398 175.578 256.263 177.142C257.501 179.377 258.39 181.752 258.999 184.2C259.538 186.362 259.701 188.612 259.628 190.852C259.55 193.331 259.294 195.772 258.58 198.186C257.808 200.794 257.004 203.39 256.201 205.986C255.964 206.754 255.693 207.522 255.809 208.349C255.852 208.632 256.096 208.838 256.329 208.756C257.33 208.411 258.39 208.326 259.395 208.039C261.595 207.406 263.819 206.867 266.054 206.37C267.622 206.021 269.154 205.524 270.71 205.124" fill="#794720"/>
<path d="M251.495 297.338C252.973 299.236 254.448 301.137 255.926 303.035C257.975 305.662 260.032 308.285 262.077 310.913C263.819 313.152 265.554 315.399 267.296 317.642C268.623 319.345 269.962 321.037 271.289 322.741C272.5 324.297 273.695 325.872 274.91 327.428C275.934 328.744 276.978 330.04 278.007 331.355C278.115 331.495 278.173 331.681 278.251 331.844C279.931 331.58 281.371 330.735 282.853 329.986C283.886 329.466 284.875 328.806 286.07 328.666C286.237 328.488 286.377 328.259 286.579 328.142C287.646 327.521 288.767 326.982 289.807 326.315C292.563 324.553 295.415 322.938 297.976 320.874C299.171 319.912 300.394 318.953 301.783 318.259C301.775 317.758 301.833 317.319 302.287 316.947C304.29 315.302 306.265 313.629 308.1 311.797C310.246 309.659 312.373 307.509 314.325 305.189C314.569 304.898 314.767 304.595 314.845 304.223C314.119 303.889 313.743 303.26 313.413 302.581C312.741 301.188 312.093 299.787 311.469 298.375C309.866 294.758 308.174 291.184 306.486 287.602C305.062 284.579 303.599 281.579 302.159 278.564C301.647 277.497 301.247 276.395 301.356 275.176C300.801 275.153 300.246 275.122 299.687 275.107C295.547 275.002 291.406 275.017 287.266 274.851C282.077 274.641 276.877 274.734 271.685 274.695C271.584 276.733 271.266 278.739 270.94 280.749C270.824 281.475 270.874 282.231 270.839 282.973C270.793 284.032 270.478 284.866 269.337 285.27C268.779 285.468 268.332 285.968 267.812 286.298C265.891 287.521 263.963 288.727 262.038 289.95C259.023 291.863 256.008 293.772 253 295.697C252.488 296.027 251.797 296.062 251.436 296.64C251.456 296.869 251.475 297.102 251.495 297.331V297.338Z" fill="#F6BB92"/>
<path d="M301.786 318.258C300.397 318.952 299.174 319.911 297.979 320.873C295.418 322.938 292.569 324.552 289.81 326.314C288.77 326.977 287.653 327.521 286.582 328.142C286.38 328.258 286.24 328.487 286.073 328.665C286.085 329.085 286.198 329.531 285.775 329.837C285.235 331.005 284.723 332.189 284.141 333.334C283.396 334.808 282.585 336.248 281.812 337.707C281.242 338.786 280.656 339.865 280.124 340.963C278.976 343.33 277.687 345.624 276.419 347.929C275.39 349.795 273.853 351.227 272.394 352.737C271.688 353.47 270.931 353.78 269.93 353.718C269.344 353.683 268.681 353.486 268.188 354.048C268.168 354.211 268.149 354.378 268.13 354.541C269.309 354.549 278.126 355.077 280.155 355.286C282.433 355.519 284.711 355.767 286.993 355.899C290.21 356.086 293.4 356.474 296.601 356.8C297.463 356.889 298.324 356.951 299.19 356.974C300.428 357.013 301.658 357.079 302.892 357.219C303.994 357.343 305.115 357.289 306.229 357.362C311.545 357.708 316.87 357.642 322.19 357.816C323.672 357.867 325.158 357.719 326.641 357.642C329.543 357.483 332.462 357.494 335.349 357.098C337.922 356.745 340.51 356.516 343.036 355.864C343.273 355.802 343.529 355.81 343.773 355.783C343.766 355.41 343.711 355.049 343.533 354.708C342.206 352.197 340.933 349.659 339.532 347.184C337.402 343.419 335.058 339.776 333.18 335.864C332.004 333.415 330.587 331.083 329.287 328.693C328.872 327.932 328.484 327.16 328.1 326.384C327.079 324.335 326.109 322.263 324.926 320.299C324.549 319.674 324.146 319.034 324.068 318.269C321.049 318.297 318.034 318.316 315.011 318.491C311.072 318.72 307.114 318.611 303.163 318.638C302.674 318.638 302.166 318.658 301.778 318.262L301.786 318.258Z" fill="#6A6D66"/>
<path d="M271.688 274.703C276.884 274.742 282.084 274.649 287.268 274.858C291.409 275.025 295.549 275.006 299.69 275.114C300.245 275.13 300.8 275.161 301.359 275.184C301.832 275.149 302.302 275.118 302.775 275.083C302.93 274.552 302.666 274.117 302.457 273.667C300.788 270.066 299.12 266.469 297.455 262.867C296.803 261.463 296.143 260.058 295.515 258.641C295.266 258.083 294.898 257.749 294.281 257.648C293.481 257.52 292.728 257.237 291.987 256.907C290.815 256.387 289.868 255.576 289.216 254.501C288.075 252.619 287.396 250.531 287.334 248.342C287.288 246.685 287.521 245.001 287.788 243.356C288.238 240.608 288.898 237.892 289.321 235.141C289.74 232.382 290.299 229.657 290.877 226.929C291.203 225.393 291.828 223.98 292.476 222.579C292.984 221.477 293.916 220.705 294.929 220.092C297.529 218.516 300.346 217.632 303.415 217.83C305.239 217.946 306.908 218.524 308.382 219.681C310.396 221.264 311.762 223.274 312.659 225.641C313.804 228.668 314.456 231.827 315.115 234.978C315.333 236.014 315.558 237.038 315.907 238.028C317.149 241.532 318.402 245.032 319.667 248.525C321.607 253.884 323.54 259.251 325.523 264.594C326.256 266.573 327.378 268.362 328.592 270.085C329.178 269.682 329.202 269.045 329.264 268.432C329.57 265.417 329.838 262.402 330.292 259.402C330.544 257.749 330.459 256.061 330.335 254.396C330.129 251.668 329.501 249.072 328.426 246.515C326.353 241.59 323.827 236.926 321.01 232.405C320.319 231.299 319.749 230.139 319.159 228.978C317.758 226.219 316.276 223.507 314.82 220.775C314.036 219.304 313.062 217.93 312.531 216.328C312.345 215.773 311.941 215.396 311.425 215.133C310.583 214.95 309.737 214.838 308.868 214.873C306.834 214.958 304.801 215.047 302.767 215.063C296.655 215.109 290.544 215.117 284.436 215.148C283.632 215.152 282.833 215.202 282.03 215.23C281.063 215.944 280.365 216.852 279.86 217.95C278.518 220.876 277.09 223.763 275.766 226.693C273.31 232.137 271.552 237.791 270.784 243.732C270.481 246.065 270.112 248.389 269.775 250.717C269.162 254.955 268.956 259.208 269.107 263.496C269.228 266.864 269.763 270.143 270.563 273.399C270.725 274.067 271.013 274.532 271.696 274.699L271.688 274.703Z" fill="#8A8AD9"/>
<path d="M287.059 203.37C286.233 205.566 285.166 207.654 284.254 209.812C283.61 211.333 282.923 212.835 282.271 214.352C282.15 214.627 282.104 214.938 282.026 215.233C282.83 215.206 283.629 215.155 284.432 215.151C290.544 215.12 296.656 215.112 302.764 215.066C304.797 215.05 306.831 214.961 308.864 214.876C309.734 214.841 310.579 214.953 311.422 215.136C311.689 213.743 311.879 212.33 312.252 210.964C312.562 209.827 312.819 208.776 312.947 207.522C312.978 207.231 313.125 206.936 313.23 206.645C313.335 206.354 313.494 206.059 313.544 205.78C313.913 203.754 314.293 202.66 314.425 201.053C314.503 200.114 314.79 199.862 315.725 199.846C317.708 199.815 319.695 199.815 321.678 199.831C323.246 199.842 324.751 199.454 326.222 199.024C327.312 198.705 328.092 197.747 328.647 196.812C329.195 195.892 329.815 194.91 329.652 193.703C329.586 193.214 329.765 192.733 329.881 192.248C330.145 191.169 330.425 190.098 330.429 188.965C330.429 188.298 330.642 187.626 330.809 186.967C330.956 186.365 331.17 185.783 331.146 185.151C331.115 184.425 331.515 184.01 332.136 183.734C333.203 183.261 334.243 182.714 335.337 182.302C337.309 181.557 337.654 180.067 336.657 178.255C335.528 176.194 334.251 174.211 333.029 172.197C332.384 171.138 331.748 170.079 331.065 169.042C330.561 168.278 330.467 167.525 330.568 166.594C330.801 164.448 331.216 162.31 331.139 160.133C331.123 159.706 331.185 159.252 330.793 158.93C328.306 161.262 325.504 163.202 322.776 165.212C319.699 167.482 316.699 169.853 313.614 172.112C312.601 172.853 311.546 173.315 310.246 173.478C308.224 173.73 306.21 173.994 304.177 174.161C302.395 174.308 300.634 174.646 298.864 174.906C298.391 174.976 298.096 175.286 297.937 175.721C296.97 178.387 295.911 181.022 295.321 183.804C295.092 184.898 294.471 185.834 294.2 186.924C294.009 187.677 293.579 188.387 293.389 189.175C293.315 189.481 293.078 189.699 292.768 189.815C292.81 190.083 292.768 190.335 292.612 190.56C292.748 190.871 292.667 191.158 292.539 191.453C291.452 193.94 290.373 196.431 289.279 198.915C289.132 199.253 288.872 199.54 288.72 199.877" fill="#F6BB92"/>
<path d="M75.262 365.437C75.2542 359.543 75.2542 353.648 75.262 347.754C75.262 347.261 75.3357 346.768 75.3745 346.271C75.0447 345.992 74.7187 345.713 74.3888 345.429C72.728 343.943 71.1059 342.41 69.3945 340.986C68.308 340.082 67.2137 339.182 65.9991 338.417C63.403 336.783 60.5779 336.787 57.7257 337.043C56.7749 337.129 55.8397 337.625 54.9472 338.048C54.0042 338.495 53.1078 339.046 52.2153 339.589C49.4174 341.289 46.6312 343 43.8449 344.715C43.0028 345.235 42.1763 345.782 41.3458 346.318C39.4288 347.56 37.4963 348.77 35.5056 349.896C33.4101 351.083 31.4116 352.445 29.417 353.8C27.3215 355.22 26.2349 357.281 26.2116 359.78C26.1767 363.641 28.1131 365.992 31.4814 367.254C31.8734 367.401 32.3313 367.409 32.762 367.42C33.6313 367.452 34.5005 367.451 35.3659 367.451C47.7138 367.451 60.0579 367.451 72.4059 367.455C73.3915 367.455 74.3694 367.424 75.3551 367.711" fill="#F6BB92"/>
<path d="M451.436 339.47C451.409 343.54 451.502 347.615 451.316 351.678C451.203 354.08 451.18 356.482 451.094 358.88C451.083 359.249 451.094 359.621 451.063 359.99C451.017 360.541 450.924 361.034 451.49 361.197C452.724 361.554 454.09 361.038 455.371 361.286C456.046 361.418 456.717 361.445 457.397 361.496C459.182 361.635 460.986 361.705 462.748 362.004C465.134 362.408 467.141 361.717 468.918 360.215C470.509 358.869 471.658 357.157 472.383 355.229C472.767 354.212 473 353.098 473.016 351.977C473.024 351.294 473.027 350.615 473.043 349.932C473.07 348.635 472.981 347.335 473.307 346.051C473.443 345.523 473.365 344.941 473.369 344.382C473.388 341.841 473.381 339.299 473.419 336.757C473.443 335.092 473.388 333.431 473.679 331.759C473.901 330.494 473.745 329.163 473.753 327.859C473.761 326.311 473.741 324.758 473.776 323.21C473.838 320.501 472.62 318.406 470.532 316.861C469.57 316.151 468.386 315.686 467.079 315.682C465.631 315.674 464.556 316.248 463.834 317.463C462.853 319.112 461.917 320.789 460.955 322.449C458.724 326.311 456.473 330.156 454.273 334.037C453.419 335.542 452.686 337.122 451.894 338.662C451.754 338.938 451.583 339.198 451.428 339.466L451.436 339.47Z" fill="#F6BB92"/>
<path d="M268.134 354.538C268.856 354.538 269.628 354.208 270.199 354.049C271.165 353.781 271.689 353.467 272.395 352.733C273.85 351.224 275.391 349.792 276.419 347.925C277.688 345.624 278.977 343.331 280.125 340.96C280.657 339.861 281.243 338.783 281.813 337.704C282.586 336.245 283.397 334.805 284.142 333.33C284.724 332.186 285.232 331.002 285.771 329.834C285.345 329.873 284.871 329.815 284.499 329.974C283.602 330.358 282.756 330.862 281.875 331.289C280.735 331.844 279.679 332.671 278.294 332.484C278.166 332.601 278.041 332.717 277.913 332.838C277.739 334.037 276.99 334.995 276.392 335.961C274.836 338.472 273.361 341.033 271.444 343.319C269.978 345.069 268.592 346.874 266.943 348.461C265.387 349.959 263.858 351.48 262.313 352.989C262.321 353.11 262.302 353.226 262.259 353.335C262.24 353.463 262.22 353.591 262.201 353.719C263.225 353.796 264.25 353.874 265.27 353.952C265.752 353.99 265.825 354.115 266.132 354.146C266.807 354.216 267.455 354.479 268.13 354.53L268.134 354.538Z" fill="#4A4B46"/>
<path d="M260.039 353.975C259.868 353.936 259.667 353.824 259.527 353.874C257.816 354.511 256.1 355.151 254.408 355.842C253.838 356.074 253.275 356.272 252.674 356.396C252.305 356.474 252.002 356.688 251.921 357.103C252.018 357.165 252.146 357.301 252.212 357.273C253.935 356.641 255.654 356.012 257.362 355.337C257.936 355.112 258.475 354.825 259.104 354.747C259.558 354.693 259.903 354.441 260.043 353.971L260.039 353.975Z" fill="#6A6D66"/>
<path d="M251.098 357.312C250.923 357.277 250.725 357.169 250.585 357.223C248.765 357.914 246.961 358.635 245.145 359.334C244.695 359.509 244.214 359.609 243.752 359.749C243.391 359.858 243.08 360.036 242.987 360.448C243.092 360.638 243.274 360.688 243.453 360.618C245.285 359.904 247.108 359.175 248.94 358.469C249.34 358.313 249.759 358.22 250.174 358.115C250.62 358.003 250.966 357.786 251.098 357.316V357.312Z" fill="#6A6D66"/>
<path d="M242.142 360.634C241.788 360.409 241.435 360.498 241.086 360.642C239.441 361.325 237.772 361.934 236.018 362.306C235.545 362.407 235.06 362.547 234.796 363.028C234.963 363.296 235.195 363.238 235.432 363.164C237.345 362.57 239.258 361.988 241.164 361.371C241.556 361.247 241.994 361.111 242.142 360.63V360.634Z" fill="#6A6D66"/>
<path d="M262.205 353.726C262.224 353.598 262.243 353.47 262.263 353.342C262.03 353.35 261.793 353.361 261.56 353.361C261.246 353.361 260.982 353.435 260.87 353.769C261.327 354.126 261.774 354.18 262.208 353.726H262.205Z" fill="#6A6D66"/>
<path d="M443.997 338.58C444.105 338.723 444.237 338.758 444.396 338.665C444.288 338.514 444.16 338.479 443.997 338.58Z" fill="#DEA882"/>
<path d="M448.859 339.271C448.968 339.43 449.1 339.465 449.259 339.341C449.142 339.221 449.01 339.19 448.859 339.271Z" fill="#DEA882"/>
<path d="M446.604 338.953C446.713 339.1 446.841 339.135 447 339.038C446.891 338.887 446.763 338.852 446.604 338.953Z" fill="#DEA882"/>
<path d="M262.317 352.997C263.858 351.488 265.391 349.963 266.947 348.469C268.596 346.882 269.981 345.073 271.448 343.327C273.365 341.037 274.84 338.476 276.396 335.969C276.993 335.003 277.742 334.048 277.917 332.845C277.246 332.799 276.691 332.954 276.396 333.645C276.225 334.045 275.992 334.413 275.81 334.809C274.983 336.621 273.707 338.146 272.674 339.819C271.53 341.67 269.861 343.11 268.805 345.019C268.573 345.438 268.146 345.752 267.804 346.113C267.082 346.874 266.302 347.572 265.728 348.484C265.34 349.101 264.762 349.602 264.11 349.998C263.477 350.382 262.86 350.801 262.294 351.274C261.463 351.969 261.487 352.085 262.317 353.001V352.997Z" fill="#676A63"/>
<path d="M278.293 332.491C279.683 332.674 280.734 331.847 281.875 331.296C282.756 330.869 283.602 330.365 284.499 329.981C284.875 329.821 285.344 329.88 285.771 329.841C286.194 329.53 286.082 329.088 286.07 328.669C284.875 328.809 283.885 329.464 282.853 329.984C281.367 330.733 279.927 331.579 278.251 331.843C278.262 332.061 278.278 332.278 278.29 332.495L278.293 332.491Z" fill="#676A63"/>
<path d="M302.78 275.079C302.306 275.114 301.837 275.145 301.363 275.18C301.255 276.398 301.654 277.497 302.166 278.568C303.606 281.583 305.073 284.583 306.493 287.606C308.177 291.183 309.869 294.761 311.476 298.378C312.105 299.791 312.749 301.191 313.42 302.585C313.75 303.264 314.126 303.896 314.848 304.226C315.554 304.137 315.931 303.621 316.303 303.101C316.311 302.348 316.199 301.622 315.791 300.966C315.694 300.811 315.62 300.637 315.539 300.47C313.323 295.91 311.026 291.389 308.919 286.779C307.712 284.136 306.4 281.544 305.147 278.925C304.774 278.145 304.472 277.334 304.126 276.542C303.847 275.902 303.459 275.355 302.783 275.079H302.78Z" fill="#DEA882"/>
<path d="M292.609 190.565C292.76 190.336 292.807 190.088 292.764 189.82C292.396 189.548 292.392 189.183 292.574 188.834C292.931 188.163 292.714 187.651 292.202 187.189C292.019 187.022 291.852 186.836 291.678 186.661C289.555 184.585 287.607 182.354 285.768 180.025C285.69 179.928 285.605 179.839 285.515 179.754C283.451 177.798 282.135 175.33 281.169 172.73C280.568 171.108 279.873 169.431 280.121 167.565C280.273 166.408 280.141 165.213 280.152 164.037C280.164 162.745 280.152 161.492 280.711 160.227C281.091 159.365 281.181 158.333 281.557 157.421C281.658 157.173 281.514 156.901 281.27 156.808C280.405 156.482 279.438 156.707 278.926 157.405C277.653 159.14 276.703 161.03 275.934 163.059C275.271 164.817 275.03 166.637 274.638 168.434C274.405 169.497 274.502 170.665 274.619 171.767C274.758 173.11 275.104 174.429 275.309 175.764C275.422 176.513 276.194 176.995 276.089 177.813C276.776 179.455 277.483 181.085 278.596 182.493C279.516 183.657 280.447 184.806 281.526 185.834C283.137 187.367 284.471 189.156 285.911 190.844C286.994 192.113 288.232 193.25 289.435 194.41C289.877 194.837 290.378 194.705 290.568 194.096C290.898 193.037 291.79 192.237 291.891 191.065C291.918 190.771 292.299 190.631 292.617 190.569L292.609 190.565Z" fill="#603818"/>
<path d="M356.662 326.496L388.183 329.981L451.437 339.469C451.409 343.54 451.502 347.614 451.316 351.677C451.204 354.079 451.18 356.481 451.095 358.879C451.083 359.248 451.095 359.621 451.064 359.989C451.017 360.54 450.854 360.723 450.245 360.781C449.636 360.839 449.038 360.959 448.406 360.878L421.471 361.685C417.936 361.778 414.42 361.495 410.896 361.355C408.979 361.278 407.066 361.122 405.153 360.967C402.995 360.793 400.838 360.575 398.684 360.377C398.312 360.342 397.935 360.307 397.563 360.276L379.891 358.957L378.583 358.522C378.148 358.507 377.717 358.468 377.298 358.321C375.312 357.63 373.329 356.939 371.342 356.252C371.121 356.175 370.934 356.062 370.771 355.919C370.62 355.779 370.492 355.616 370.391 355.418C370.193 355.034 370.007 354.642 369.821 354.25C367.861 350.113 365.909 345.973 363.941 341.84C362.106 337.986 360.255 334.141 358.419 330.287C358.222 329.876 358.047 329.449 357.865 329.03L356.65 326.5L356.662 326.496Z" fill="#6A6D66"/>
<path d="M75.2619 348.108V348.101C75.2619 347.988 75.2619 347.875 75.2619 347.759C75.2619 347.433 75.2929 347.111 75.3279 346.785L75.3745 345.826C75.3745 345.826 111.235 340.433 124.359 338.287C124.359 338.287 124.367 338.287 124.37 338.287C124.638 338.236 124.902 338.197 125.17 338.162C137.906 336.253 148.923 338.675 149.008 338.694C149.016 338.694 149.024 338.694 149.031 338.694L157.34 339.878C157.51 339.87 157.693 339.878 157.848 339.932C157.875 339.944 157.902 339.951 157.933 339.959L163.048 340.689C163.048 340.689 163.064 340.689 163.071 340.689C170.479 341.147 172.408 339.947 172.408 339.947C175.113 339.268 177.647 338.093 180.251 337.138C182.792 336.207 185.35 335.291 187.864 334.259C189.684 333.51 191.586 332.951 193.444 332.299C194.434 331.95 195.4 331.531 196.378 331.158C198.326 330.417 200.332 329.835 202.242 328.996C204.275 328.104 206.406 327.464 208.462 326.625C211.089 325.554 213.821 324.751 216.479 323.766C217.927 323.23 219.316 322.543 220.826 322.174C221.346 322.046 221.641 321.647 221.858 321.177C222.382 320.06 222.933 318.957 223.437 317.832C225.475 313.304 228.478 309.501 232.107 306.156C234.998 303.493 238.409 301.639 241.858 299.838C244.187 299.24 246.348 298.099 248.762 297.766C249.674 297.638 250.555 297.3 251.494 297.331C252.972 299.229 254.447 301.13 255.925 303.024C257.974 305.651 260.031 308.274 262.076 310.901C263.818 313.141 265.553 315.387 267.295 317.63C268.623 319.334 269.961 321.026 271.289 322.729C272.499 324.286 273.695 325.861 274.909 327.417C275.934 328.733 276.977 330.029 278.006 331.344C278.114 331.484 278.173 331.67 278.25 331.837C278.266 332.054 278.277 332.272 278.293 332.489C278.165 332.605 278.041 332.722 277.913 332.842C277.241 332.796 276.686 332.951 276.392 333.642C276.221 334.041 275.988 334.41 275.806 334.806C274.979 336.618 273.702 338.143 272.67 339.816C271.525 341.667 269.857 343.106 268.801 345.015C268.568 345.435 268.141 345.749 267.8 346.11C267.078 346.87 266.298 347.569 265.724 348.481C265.336 349.098 264.758 349.598 264.106 349.994C263.473 350.378 262.856 350.798 262.29 351.271C261.459 351.966 261.482 352.082 262.313 352.998C262.321 353.118 262.301 353.231 262.259 353.343C262.169 353.343 262.08 353.351 261.991 353.355L262.2 353.727C262.2 353.727 262.224 354.084 260.458 354.538C258.692 354.992 246.29 359.649 246.29 359.649L229.654 365.202C229.654 365.202 224.019 366.541 219.231 366.929C218.098 367.022 216.608 367.119 214.997 367.22C214.597 367.302 214.198 367.368 213.798 367.379C213.154 367.395 212.475 367.581 211.834 367.402C209.7 367.523 207.609 367.628 206.033 367.705C205.855 367.779 205.645 367.783 205.435 367.787C205.02 367.787 204.609 367.794 204.194 367.798C203.658 367.825 203.344 367.837 203.344 367.837V367.802C202.49 367.81 201.636 367.814 200.783 367.814C177.27 367.814 153.754 367.814 130.242 367.814C112.624 367.814 95.0023 367.814 77.3846 367.814C76.7016 367.814 75.9837 367.903 75.3512 367.721L75.2968 366.502C75.2541 366.254 75.2503 365.916 75.2503 365.443C75.2425 359.665 75.2425 353.886 75.2503 348.108H75.2619Z" fill="#6A6D66"/>
</svg>
