<svg width="497" height="497" viewBox="0 0 497 497" fill="none" xmlns="http://www.w3.org/2000/svg">
<path d="M60.0001 300.7C64.1001 298.2 75.0001 295.8 79.8001 291.9C82.6001 289.6 88.2001 285.4 91.7001 285.3C97.5001 285.1 100.1 288.3 101.7 288.5C111.7 289.9 138.2 281.4 144.2 281.2C154.1 280.9 151.6 300 148 300.1C118.7 301.2 103.9 300.7 98.7001 300.4C98.7001 300.4 68.5001 305.1 64.7001 305.1C62.5001 305.3 56.5001 302.9 60.0001 300.7Z" fill="#ECAD83"/>
<path d="M176.5 280.7C165 280.1 154 280.3 144.1 281.3C145.6 284.5 146.9 297.4 146.2 300.4C149.8 300.4 177.7 302.5 177.7 302.5C186.5 302.9 238.5 306.2 254.4 302.8C258.5 302.1 262.1 301 265.1 300C270.8 298 250.1 271.2 250.1 271.2C234.7 271.4 207.8 278.3 199.9 279.9C191.9 281.5 176.5 280.7 176.5 280.7Z" fill="#333333"/>
<path d="M223.2 280.4C222.5 291.3 225.9 297.5 230.4 300.7C236.7 305.4 260.5 306.8 260.5 300.2C260.5 286.6 255.6 254.7 244.7 256.6C239.7 257.5 235.2 259 231.6 262.1C226.1 266.6 223.7 272.4 223.2 280.4Z" fill="#3D3C3C"/>
<path d="M436 292.4C431.7 294.5 420.6 295.9 415.4 299.3C412.4 301.3 406.4 305 402.9 304.8C397.1 304.5 394.8 301 393.2 300.7C383.4 298.4 356.2 304.4 350.2 304.1C340.3 303.5 344.5 284.7 348.1 284.9C377.4 286.4 392.1 288.3 397.2 289.1C397.2 289.1 427.7 287.1 431.5 287.5C434 287.6 439.7 290.5 436 292.4Z" fill="#ECAD83"/>
<path d="M314.4 289.7C326.7 290.1 329.8 279.9 342.9 273.2C344.5 272.4 349 264.8 349.1 260.8C349.2 256.4 348.5 251.9 344.9 248.5C342.1 245.9 333.8 242.6 310.8 246.8C303.8 247.6 286.7 251 269.8 254.1C261 255.7 248 256.1 245 256.5C245 256.5 249.1 264.8 247.1 272.8C245.1 280.8 240.8 288.1 240.8 288.1C278.1 290.9 293.2 283.4 305.5 285.2C305.4 285.3 310.9 289.6 314.4 289.7Z" fill="#FF8AA0"/>
<path d="M348.6 270.1C348.6 270.1 357.5 266.9 365.5 264.9L366.4 251.5C358.4 254.1 347.6 252.2 347.6 252.2C348.9 264.7 344.6 269.9 343.3 273.2L348.6 270.1Z" fill="#ECAD83"/>
<path d="M392.9 260.5C399.1 259.2 400.7 253.7 401.3 250.4C403.2 240 399.3 235.3 393.5 230.3C385.8 223.6 365.4 241.3 363.1 245.3C357.2 255.7 366.4 269.7 371.3 274.2C376.7 279.1 376.9 276 378.7 273.7C378.8 273.6 379.3 273.5 379.3 273.5C380 272.8 380.8 271.7 382.2 271.1C382.2 271.1 382.6 270.2 382.9 269.9C383.1 269.6 383.2 269.5 383.6 269.7C384.7 270.1 385.6 270.5 386.2 270.5C388.1 270.3 390.1 261.1 392.9 260.5Z" fill="#F6BB92"/>
<path d="M378.1 269.3C378.1 269.3 378.4 270.1 380.8 272.3C381.2 272.4 382.1 272.6 382.2 271.5C382.3 270.6 380 270.6 378.1 269.3Z" fill="#D6876B"/>
<path d="M378.1 269.3C378.1 269.3 377.5 271 379.3 273.6C379.7 273.9 380.2 273.8 380.3 273.7C381.2 273.2 380.8 272.3 380.8 272.3C378.3 270.1 378.1 269.3 378.1 269.3Z" fill="#CC785E"/>
<path d="M394.1 228.5C384.7 220.4 360.6 223 359.5 250C359.4 251.8 360.3 254.8 365.1 255.1C368.5 255.3 371.7 254.5 371.7 254.5C372.6 254.2 373.7 254 374.8 253.6C376 253.2 379.4 248.1 380.5 248.8C390.9 255.3 399.1 253.8 401.2 251.4C405.2 244.6 404.1 237.2 394.1 228.5Z" fill="#602F0F"/>
<path d="M372.5 250.5C370.3 255.9 371.9 257.6 374.5 259.5L378.7 251.8L379.7 248.1C377.1 246.2 374.7 245.1 372.5 250.5Z" fill="#F6BB92"/>
<path d="M367.1 230.1C366.5 226.3 371.5 222.7 378.1 222C384.7 221.3 390.6 223.7 391.2 227.5C391.8 231.3 387.5 233.6 380.9 234.3C374.2 235 367.7 233.8 367.1 230.1Z" fill="#4C230C"/>
<path d="M380.6 250.7C381.1 249.8 381.7 249.1 382.2 248.6C382.9 247.8 383.5 247.4 383.5 247.4L379.9 246C379.5 246.4 379.2 246.8 378.8 247.2C378.8 247.2 379.2 247.4 379.8 247.6H379.7C379.5 248.5 379.2 249.9 378.4 251.6C378.5 251.7 378.9 253.4 380.6 250.7Z" fill="#602F0F"/>
<path d="M365.8 228.5C365.2 224.5 370.6 220.7 377.9 219.9C385.2 219.1 391.6 221.7 392.2 225.6C392.8 229.6 388.1 232 380.9 232.8C373.6 233.6 366.4 232.4 365.8 228.5Z" fill="#602F0F"/>
<path d="M374.6 221.5C374.5 221.1 376.3 220.5 378.5 220.3C380.7 220.1 382.6 220.2 382.6 220.7C382.7 221.1 381.2 221.5 379 221.8C376.8 222.1 374.6 221.9 374.6 221.5Z" fill="#4C230C"/>
<path d="M318.2 301.7C329.6 303.4 340.6 304.1 350.5 304C349.3 300.7 349.2 287.8 350.1 284.8C346.5 284.5 318.9 279.9 318.9 279.9C310.1 278.6 258.7 270.6 242.6 272.6C238.4 273 234.8 273.6 231.7 274.4C225.8 275.9 244 304.4 244 304.4C259.3 305.6 286.7 301.2 294.8 300.3C302.9 299.4 318.2 301.7 318.2 301.7Z" fill="#3D3C3C"/>
<path d="M395.1 299C373.5 303.2 366.5 302.7 360.6 302.3C354.7 302 347.8 303.3 346.7 303.4C346.5 304.2 346.3 304.9 346.2 305.6C345.5 309.6 346.5 311.9 347.1 312.9C347.1 312.9 349 316.2 352.5 316.5C359.4 317.1 398.4 306.8 398.4 306.8L395.1 299Z" fill="#F6BB92"/>
<path d="M358.1 312.6C357 307.5 354.4 299.4 354.4 299.4C352.6 292.8 350.7 283.8 349 277.8C346.5 267.9 346 264.8 345.7 262.2C345.3 258 343.8 252.1 340.2 250.1C334.6 247 325.3 248.5 324.9 255.5C324.4 265.7 339.4 301.9 344.8 310.1C347 313.5 349.1 315.6 350.2 315.9C351.3 316.3 354.1 315.8 356.9 313.7C357.3 313.4 357.7 313 358.1 312.6Z" fill="#F6BB92"/>
<path d="M395.1 299C394.9 299.1 395 300.4 398 306.8C398 306.8 399.9 306.1 403.4 306.1C408.3 306 414.6 303.3 417.5 300.3C420 297.8 421.1 293.4 419.7 289.9C418.4 286.4 404.2 293.7 399.4 294.4L395.1 299Z" fill="#F6BB92"/>
<path d="M404.6 294.2C404.6 294.2 409.4 292.9 409 290.2C408.6 288 408.3 287.3 399.5 294.4C399.5 294.5 400.2 295.8 404.6 294.2Z" fill="#F6BB92"/>
</svg>
