<svg width="500" height="500" viewBox="0 0 500 500" fill="none" xmlns="http://www.w3.org/2000/svg">
<path d="M347.819 329.501C346.979 329.038 346.584 328.185 346.14 327.43C345.169 325.782 344.309 324.071 343.43 322.371C341.105 317.87 338.798 313.357 336.477 308.852C334.777 305.55 333.066 302.252 331.358 298.95C329.446 295.249 327.541 291.542 325.629 287.841C324.363 285.389 323.075 282.952 321.812 280.5C321.075 279.067 321.089 279.06 321.449 277.476C320.344 275.91 319.325 274.284 318.658 272.485C316.855 267.623 315.099 262.748 313.335 257.876C312.185 254.697 311.045 251.515 309.916 248.333C309.595 247.43 309.391 246.502 309.197 245.561C308.6 242.696 308.008 239.824 306.964 237.073C306.149 234.921 304.907 233.093 303.076 231.654C301.735 230.599 300.218 230.077 298.56 229.971C295.77 229.791 293.209 230.596 290.845 232.028C289.924 232.585 289.078 233.291 288.616 234.289C288.026 235.566 287.458 236.847 287.162 238.244C286.636 240.724 286.132 243.2 285.747 245.709C285.366 248.21 284.763 250.679 284.354 253.177C284.111 254.673 283.899 256.204 283.941 257.71C283.998 259.696 284.615 261.598 285.652 263.309C286.245 264.286 287.106 265.02 288.171 265.496C288.845 265.796 289.529 266.053 290.256 266.17C290.817 266.258 291.152 266.565 291.378 267.073C291.949 268.361 292.549 269.634 293.142 270.915C294.659 274.188 296.176 277.459 297.689 280.733C297.88 281.142 298.119 281.537 297.978 282.02C298.596 282.271 298.948 282.768 299.199 283.35C299.513 284.07 299.788 284.807 300.127 285.516C301.266 287.897 302.459 290.254 303.556 292.656C305.471 296.847 307.56 300.957 309.574 305.102C309.648 305.254 309.715 305.409 309.803 305.554C310.174 306.15 310.28 306.806 310.269 307.494C310.664 307.491 310.855 307.738 311.024 308.055C311.737 309.385 312.407 310.74 313.112 312.07C314.365 314.43 315.526 316.843 316.774 319.207C317.12 319.859 317.43 320.512 317.335 321.281C317.406 321.976 317.773 322.558 318.115 323.126C319.191 324.915 320.073 326.795 321.001 328.657C321.35 329.363 321.706 330.065 322.08 330.757C323.262 332.93 324.55 335.05 325.618 337.276C327.326 340.832 329.453 344.148 331.393 347.566C332.671 349.817 333.828 352.124 335.031 354.407C335.193 354.717 335.242 355.042 335.253 355.38C336.65 356.28 337.31 357.744 338.061 359.12C339.465 361.688 340.869 364.26 342.143 366.892C343.074 368.818 344.372 370.412 346.009 371.721C346.972 372.494 347.773 373.45 348.877 374.067C349.921 374.649 350.966 375.08 352.183 375.21C354.585 375.468 357.002 375.577 359.386 375.898C361.228 376.149 363.084 376.081 364.922 376.41C366.573 376.706 368.276 376.709 369.956 376.843C371.691 376.981 373.431 377.101 375.163 377.256C377.195 377.436 379.174 377.175 381.132 376.632C382.246 376.325 382.804 375.552 383.044 374.498C383.432 372.797 383.788 371.093 383.718 369.333C383.675 368.32 383.7 367.304 383.689 366.292C383.686 365.84 383.633 365.403 383.531 364.958C383.333 364.094 382.825 363.604 382.003 363.325C378.648 362.193 375.3 361.032 371.945 359.889C370.629 359.441 369.345 358.908 368.079 358.266C368.739 358.203 369.395 358.143 370.054 358.079C369.3 357.755 368.506 357.959 367.73 357.903C367.059 357.853 366.379 357.913 365.726 357.688C363.92 357.06 362.117 356.432 360.311 355.807C359.919 355.67 359.633 355.412 359.446 355.049C359.266 354.7 359.097 354.343 358.928 353.987C357.146 350.226 355.372 346.462 353.583 342.705C351.915 339.202 350.232 335.706 348.563 332.203C348.32 331.695 348.119 331.169 347.886 330.658C347.713 330.28 347.724 329.896 347.808 329.504L347.819 329.501Z" fill="#F6BB92"/>
<path d="M285.201 213.648C285.338 213.341 285.575 213.08 285.709 212.773C286.704 210.516 287.684 208.251 288.672 205.989C288.788 205.725 288.863 205.46 288.739 205.178C288.45 205.231 288.101 205.358 288.079 205.63C287.988 206.691 287.176 207.418 286.876 208.385C286.704 208.939 286.252 209.062 285.846 208.671C284.753 207.616 283.627 206.579 282.643 205.429C281.331 203.894 280.121 202.271 278.657 200.874C277.676 199.939 276.829 198.895 275.993 197.837C274.981 196.553 274.339 195.071 273.714 193.582C273.809 192.838 273.107 192.404 273.005 191.72C272.822 190.502 272.508 189.307 272.377 188.086C272.271 187.084 272.187 186.026 272.395 185.056C272.751 183.426 272.966 181.768 273.573 180.17C274.272 178.325 275.136 176.61 276.293 175.03C276.759 174.395 277.637 174.19 278.424 174.486C278.646 174.571 278.777 174.818 278.685 175.044C278.343 175.876 278.262 176.811 277.916 177.594C277.408 178.744 277.418 179.884 277.408 181.059C277.401 182.127 277.521 183.214 277.38 184.265C277.157 185.962 277.785 187.486 278.332 188.961C279.211 191.321 280.406 193.565 282.283 195.346C282.364 195.424 282.445 195.505 282.513 195.593C284.185 197.71 285.959 199.735 287.885 201.626C288.048 201.784 288.196 201.954 288.362 202.105C288.827 202.525 289.025 202.991 288.7 203.601C288.531 203.919 288.538 204.254 288.873 204.497C289.155 204.395 289.371 204.194 289.438 203.915C289.61 203.202 290.006 202.553 290.175 201.869C290.422 200.881 290.986 200.027 291.194 199.033C291.727 196.5 292.694 194.104 293.572 191.684C293.717 191.289 293.985 191.007 294.415 190.943C296.024 190.704 297.629 190.397 299.245 190.266C301.093 190.114 302.924 189.875 304.762 189.645C305.941 189.497 306.904 189.077 307.824 188.403C310.629 186.35 313.356 184.195 316.153 182.131C318.634 180.304 321.184 178.536 323.442 176.42C323.467 175.28 323.181 174.222 322.634 173.22C322.451 172.881 322.355 172.497 322.218 172.133C322.07 171.87 321.914 171.617 321.752 171.375C320.39 168.447 318.26 166.15 315.741 164.199C313.391 162.379 310.707 161.197 307.824 160.573C306.015 160.181 304.145 160.022 302.275 160.188C301.884 160.223 301.488 160.308 301.097 160.301C299.425 160.273 297.834 160.76 296.348 161.377C292.824 162.845 289.307 164.358 286.04 166.365C283.659 167.829 281.698 169.745 280.237 172.147C280.177 172.243 280.092 172.324 280.043 172.423C279.57 173.396 278.949 173.721 277.761 173.523C275.644 173.17 273.587 172.624 271.523 172.077C271.09 171.964 270.642 171.876 270.197 171.844C269.297 171.784 268.394 171.742 267.495 171.742C262.662 171.745 258.975 173.94 256.231 177.799C253.955 180.995 253.398 184.622 253.973 188.425C254.216 190.037 254.908 191.557 255.694 192.979C256.82 195.011 257.628 197.17 258.181 199.396C258.672 201.361 258.82 203.407 258.753 205.443C258.682 207.697 258.45 209.916 257.8 212.11C257.098 214.481 256.368 216.841 255.638 219.201C255.423 219.899 255.176 220.598 255.282 221.349C255.32 221.607 255.543 221.794 255.754 221.72C256.664 221.406 257.628 221.328 258.541 221.067C260.541 220.492 262.563 220.002 264.595 219.55C266.02 219.233 267.414 218.781 268.828 218.418" fill="#794720"/>
<path d="M251.359 302.249C252.703 303.974 254.044 305.702 255.388 307.427C257.251 309.816 259.12 312.201 260.979 314.589C262.563 316.624 264.14 318.667 265.724 320.706C266.931 322.255 268.148 323.793 269.354 325.342C270.455 326.756 271.542 328.188 272.646 329.603C273.577 330.799 274.526 331.977 275.461 333.173C275.56 333.3 275.613 333.47 275.683 333.618C277.211 333.378 278.52 332.609 279.867 331.928C280.806 331.455 281.705 330.855 282.792 330.728C282.943 330.566 283.07 330.358 283.254 330.252C284.224 329.688 285.243 329.197 286.189 328.591C288.694 326.989 291.287 325.521 293.615 323.645C294.701 322.77 295.813 321.898 297.076 321.267C297.069 320.812 297.122 320.413 297.534 320.075C299.355 318.579 301.15 317.058 302.819 315.393C304.77 313.449 306.703 311.495 308.477 309.385C308.7 309.121 308.88 308.846 308.95 308.507C308.29 308.204 307.948 307.632 307.648 307.015C307.038 305.748 306.449 304.475 305.881 303.191C304.424 299.903 302.886 296.654 301.351 293.397C300.057 290.649 298.727 287.922 297.418 285.181C296.952 284.211 296.589 283.209 296.688 282.102C296.183 282.08 295.679 282.052 295.171 282.038C291.407 281.943 287.642 281.957 283.878 281.805C279.162 281.615 274.434 281.699 269.714 281.664C269.622 283.516 269.333 285.34 269.037 287.167C268.931 287.827 268.977 288.515 268.945 289.189C268.903 290.152 268.617 290.91 267.58 291.277C267.072 291.457 266.666 291.912 266.193 292.212C264.447 293.323 262.694 294.421 260.944 295.532C258.203 297.271 255.462 299.007 252.728 300.756C252.262 301.056 251.634 301.088 251.306 301.614C251.324 301.822 251.341 302.033 251.359 302.242V302.249Z" fill="#F6BB92"/>
<path d="M297.078 321.267C295.815 321.898 294.704 322.769 293.618 323.644C291.289 325.521 288.7 326.989 286.192 328.59C285.246 329.194 284.23 329.687 283.257 330.252C283.073 330.358 282.946 330.566 282.794 330.728C282.805 331.109 282.907 331.515 282.523 331.794C282.032 332.855 281.567 333.931 281.038 334.972C280.36 336.313 279.623 337.621 278.921 338.948C278.402 339.929 277.87 340.909 277.386 341.908C276.342 344.06 275.171 346.145 274.017 348.24C273.082 349.937 271.685 351.239 270.359 352.611C269.717 353.278 269.029 353.56 268.119 353.504C267.586 353.472 266.983 353.292 266.535 353.803C266.517 353.952 266.5 354.103 266.482 354.251C267.554 354.258 275.569 354.738 277.415 354.929C279.485 355.14 281.556 355.366 283.63 355.486C286.555 355.655 289.455 356.008 292.365 356.305C293.148 356.386 293.932 356.442 294.718 356.463C295.844 356.499 296.962 356.559 298.084 356.686C299.086 356.798 300.105 356.749 301.118 356.816C305.951 357.13 310.791 357.07 315.627 357.229C316.975 357.275 318.326 357.141 319.674 357.07C322.313 356.925 324.966 356.936 327.59 356.576C329.929 356.255 332.282 356.047 334.579 355.454C334.794 355.398 335.027 355.405 335.249 355.38C335.242 355.042 335.193 354.714 335.03 354.403C333.824 352.121 332.667 349.813 331.393 347.563C329.456 344.141 327.326 340.828 325.618 337.272C324.549 335.046 323.262 332.926 322.08 330.753C321.702 330.061 321.35 329.359 321 328.654C320.072 326.791 319.191 324.907 318.115 323.122C317.772 322.554 317.405 321.972 317.335 321.277C314.59 321.302 311.849 321.32 309.101 321.478C305.52 321.686 301.922 321.588 298.331 321.612C297.886 321.612 297.424 321.63 297.071 321.27L297.078 321.267Z" fill="#6A6D66"/>
<path d="M269.717 281.672C274.441 281.707 279.168 281.622 283.881 281.813C287.645 281.964 291.409 281.947 295.173 282.046C295.678 282.06 296.182 282.088 296.69 282.109C297.121 282.077 297.548 282.049 297.978 282.017C298.119 281.534 297.879 281.139 297.689 280.73C296.172 277.456 294.655 274.186 293.141 270.912C292.549 269.635 291.949 268.358 291.377 267.07C291.152 266.562 290.817 266.259 290.256 266.167C289.529 266.051 288.845 265.793 288.171 265.493C287.105 265.02 286.245 264.283 285.652 263.306C284.615 261.595 283.997 259.697 283.941 257.707C283.899 256.201 284.11 254.67 284.354 253.174C284.763 250.676 285.363 248.207 285.747 245.706C286.128 243.198 286.636 240.721 287.162 238.241C287.458 236.844 288.026 235.56 288.615 234.286C289.077 233.284 289.924 232.582 290.845 232.025C293.208 230.593 295.77 229.788 298.56 229.968C300.218 230.074 301.735 230.6 303.076 231.651C304.907 233.09 306.148 234.918 306.963 237.07C308.004 239.821 308.597 242.693 309.196 245.558C309.394 246.5 309.598 247.431 309.916 248.33C311.045 251.516 312.184 254.698 313.334 257.873C315.098 262.745 316.855 267.624 318.658 272.482C319.325 274.281 320.344 275.907 321.448 277.473C321.981 277.107 322.002 276.528 322.059 275.971C322.337 273.23 322.581 270.488 322.993 267.762C323.223 266.259 323.145 264.724 323.032 263.211C322.845 260.731 322.274 258.371 321.297 256.046C319.413 251.569 317.116 247.329 314.555 243.219C313.927 242.213 313.408 241.158 312.872 240.104C311.599 237.595 310.251 235.129 308.928 232.646C308.216 231.309 307.33 230.06 306.847 228.603C306.677 228.099 306.311 227.756 305.841 227.517C305.076 227.351 304.307 227.248 303.517 227.28C301.668 227.358 299.819 227.439 297.971 227.453C292.415 227.495 286.858 227.502 281.306 227.531C280.575 227.534 279.849 227.58 279.118 227.605C278.24 228.254 277.605 229.079 277.146 230.078C275.926 232.738 274.628 235.362 273.425 238.026C271.191 242.975 269.593 248.115 268.895 253.516C268.62 255.637 268.285 257.75 267.978 259.866C267.42 263.719 267.233 267.585 267.371 271.483C267.48 274.545 267.967 277.526 268.694 280.486C268.842 281.093 269.103 281.516 269.724 281.668L269.717 281.672Z" fill="#8A8AD9"/>
<path d="M283.691 216.823C282.939 218.82 281.969 220.718 281.14 222.679C280.555 224.062 279.93 225.427 279.337 226.807C279.228 227.057 279.186 227.339 279.115 227.607C279.845 227.583 280.572 227.537 281.302 227.533C286.859 227.505 292.415 227.498 297.968 227.456C299.816 227.442 301.665 227.361 303.513 227.283C304.304 227.251 305.073 227.353 305.838 227.519C306.082 226.253 306.254 224.969 306.593 223.727C306.875 222.693 307.108 221.737 307.225 220.598C307.253 220.333 307.387 220.065 307.482 219.8C307.577 219.536 307.722 219.268 307.768 219.014C308.103 217.172 308.449 216.177 308.569 214.717C308.639 213.863 308.9 213.634 309.75 213.62C311.553 213.592 313.359 213.592 315.162 213.606C316.587 213.616 317.956 213.264 319.293 212.872C320.284 212.583 320.994 211.711 321.498 210.861C321.995 210.025 322.56 209.132 322.412 208.035C322.352 207.591 322.514 207.153 322.62 206.712C322.86 205.732 323.114 204.758 323.117 203.728C323.117 203.121 323.311 202.511 323.463 201.911C323.597 201.364 323.791 200.835 323.77 200.26C323.742 199.6 324.105 199.223 324.67 198.972C325.64 198.542 326.585 198.045 327.58 197.671C329.372 196.993 329.686 195.639 328.779 193.991C327.753 192.118 326.592 190.315 325.481 188.484C324.895 187.521 324.317 186.558 323.696 185.616C323.237 184.921 323.153 184.237 323.244 183.39C323.456 181.439 323.833 179.496 323.763 177.516C323.749 177.128 323.805 176.716 323.449 176.423C321.188 178.543 318.641 180.307 316.16 182.134C313.363 184.198 310.636 186.354 307.831 188.407C306.911 189.081 305.951 189.5 304.769 189.649C302.931 189.878 301.1 190.118 299.252 190.269C297.633 190.403 296.031 190.71 294.422 190.947C293.992 191.01 293.724 191.292 293.579 191.688C292.701 194.111 291.738 196.507 291.201 199.036C290.993 200.031 290.429 200.881 290.182 201.872C290.009 202.557 289.617 203.202 289.445 203.918C289.378 204.197 289.162 204.395 288.88 204.5C288.919 204.744 288.88 204.973 288.739 205.178C288.862 205.46 288.788 205.721 288.672 205.989C287.684 208.251 286.703 210.515 285.709 212.773C285.575 213.08 285.338 213.341 285.201 213.648" fill="#F6BB92"/>
<path d="M91.1477 364.157C91.1406 358.799 91.1406 353.44 91.1477 348.081C91.1477 347.633 91.2147 347.185 91.25 346.734C90.9501 346.48 90.6538 346.226 90.3539 345.968C88.844 344.617 87.3694 343.223 85.8137 341.929C84.8259 341.107 83.8311 340.288 82.7269 339.593C80.3668 338.108 77.7985 338.112 75.2056 338.345C74.3413 338.422 73.4911 338.874 72.6797 339.258C71.8225 339.664 71.0075 340.165 70.1962 340.659C67.6526 342.204 65.1197 343.76 62.5867 345.319C61.8212 345.792 61.0698 346.289 60.3148 346.776C58.5721 347.905 56.8152 349.005 55.0055 350.029C53.1005 351.108 51.2837 352.346 49.4704 353.577C47.5654 354.869 46.5776 356.742 46.5565 359.014C46.5247 362.524 48.2851 364.662 51.3472 365.808C51.7035 365.942 52.1198 365.949 52.5114 365.96C53.3016 365.988 54.0918 365.988 54.8785 365.988C66.1039 365.988 77.3258 365.988 88.5512 365.992C89.4473 365.992 90.3363 365.964 91.2323 366.225" fill="#F6BB92"/>
<path d="M433.124 340.55C433.1 344.251 433.184 347.955 433.015 351.649C432.913 353.832 432.891 356.016 432.814 358.196C432.803 358.531 432.814 358.87 432.786 359.205C432.743 359.706 432.659 360.154 433.174 360.302C434.295 360.627 435.537 360.158 436.701 360.383C437.315 360.503 437.926 360.528 438.543 360.574C440.166 360.701 441.806 360.764 443.408 361.036C445.577 361.403 447.401 360.775 449.017 359.41C450.463 358.186 451.508 356.63 452.167 354.877C452.516 353.952 452.728 352.94 452.742 351.92C452.749 351.299 452.753 350.682 452.767 350.061C452.792 348.883 452.71 347.701 453.007 346.533C453.13 346.054 453.06 345.524 453.063 345.016C453.081 342.706 453.074 340.395 453.109 338.084C453.13 336.571 453.081 335.061 453.345 333.54C453.547 332.39 453.405 331.18 453.413 329.995C453.42 328.587 453.402 327.176 453.434 325.769C453.49 323.306 452.382 321.401 450.484 319.997C449.61 319.352 448.534 318.928 447.345 318.925C446.029 318.918 445.052 319.44 444.396 320.544C443.503 322.043 442.653 323.567 441.778 325.077C439.749 328.587 437.703 332.084 435.703 335.611C434.927 336.98 434.26 338.416 433.541 339.816C433.414 340.067 433.258 340.303 433.117 340.547L433.124 340.55Z" fill="#F6BB92"/>
<path d="M266.486 354.248C267.142 354.248 267.844 353.948 268.363 353.803C269.241 353.56 269.718 353.274 270.36 352.608C271.683 351.235 273.083 349.933 274.018 348.237C275.172 346.145 276.343 344.06 277.387 341.904C277.87 340.906 278.403 339.925 278.922 338.944C279.624 337.618 280.361 336.309 281.038 334.969C281.568 333.928 282.03 332.852 282.52 331.79C282.132 331.825 281.702 331.772 281.363 331.917C280.548 332.266 279.779 332.725 278.978 333.113C277.941 333.617 276.981 334.369 275.722 334.2C275.606 334.305 275.493 334.411 275.376 334.521C275.218 335.611 274.537 336.482 273.993 337.36C272.579 339.643 271.238 341.971 269.495 344.049C268.162 345.64 266.903 347.281 265.403 348.723C263.989 350.085 262.599 351.468 261.195 352.84C261.202 352.95 261.184 353.056 261.145 353.154C261.128 353.271 261.11 353.387 261.092 353.504C262.024 353.574 262.955 353.645 263.883 353.715C264.32 353.75 264.387 353.863 264.666 353.892C265.28 353.955 265.869 354.195 266.483 354.241L266.486 354.248Z" fill="#4A4B46"/>
<path d="M259.127 353.737C258.972 353.702 258.788 353.6 258.661 353.645C257.105 354.224 255.546 354.806 254.008 355.434C253.489 355.646 252.978 355.826 252.431 355.938C252.096 356.009 251.821 356.203 251.747 356.581C251.835 356.637 251.951 356.76 252.011 356.736C253.578 356.161 255.14 355.589 256.693 354.975C257.215 354.771 257.705 354.51 258.277 354.439C258.689 354.39 259.003 354.16 259.13 353.734L259.127 353.737Z" fill="#6A6D66"/>
<path d="M250.999 356.771C250.84 356.739 250.66 356.64 250.533 356.689C248.878 357.317 247.238 357.973 245.587 358.608C245.178 358.767 244.74 358.859 244.32 358.986C243.992 359.085 243.71 359.247 243.625 359.621C243.721 359.794 243.887 359.84 244.049 359.776C245.714 359.127 247.372 358.464 249.037 357.822C249.4 357.681 249.781 357.596 250.159 357.501C250.565 357.398 250.879 357.201 250.999 356.774V356.771Z" fill="#6A6D66"/>
<path d="M242.856 359.79C242.535 359.586 242.214 359.667 241.897 359.797C240.401 360.418 238.884 360.972 237.29 361.311C236.859 361.402 236.418 361.529 236.178 361.967C236.33 362.21 236.542 362.157 236.757 362.09C238.496 361.551 240.235 361.021 241.967 360.461C242.324 360.348 242.722 360.224 242.856 359.787V359.79Z" fill="#6A6D66"/>
<path d="M261.096 353.51C261.113 353.394 261.131 353.278 261.148 353.161C260.937 353.168 260.722 353.179 260.51 353.179C260.224 353.179 259.984 353.246 259.882 353.549C260.298 353.874 260.704 353.923 261.099 353.51H261.096Z" fill="#6A6D66"/>
<path d="M426.361 339.741C426.46 339.872 426.58 339.904 426.725 339.819C426.626 339.682 426.509 339.65 426.361 339.741Z" fill="#DEA882"/>
<path d="M430.781 340.369C430.88 340.514 431 340.546 431.145 340.433C431.039 340.324 430.919 340.295 430.781 340.369Z" fill="#DEA882"/>
<path d="M428.732 340.08C428.831 340.214 428.947 340.246 429.092 340.158C428.993 340.02 428.877 339.989 428.732 340.08Z" fill="#DEA882"/>
<path d="M261.198 352.848C262.598 351.476 263.992 350.089 265.406 348.731C266.906 347.288 268.165 345.644 269.499 344.057C271.241 341.976 272.582 339.647 273.997 337.368C274.54 336.49 275.221 335.622 275.379 334.528C274.769 334.486 274.265 334.627 273.997 335.255C273.841 335.618 273.63 335.954 273.464 336.313C272.712 337.961 271.552 339.347 270.613 340.868C269.573 342.551 268.056 343.859 267.096 345.595C266.884 345.976 266.496 346.262 266.186 346.59C265.53 347.281 264.821 347.916 264.299 348.745C263.946 349.306 263.42 349.761 262.828 350.121C262.253 350.47 261.692 350.851 261.177 351.282C260.422 351.913 260.443 352.019 261.198 352.852V352.848Z" fill="#676A63"/>
<path d="M275.722 334.206C276.985 334.372 277.941 333.621 278.978 333.12C279.779 332.732 280.548 332.273 281.363 331.924C281.705 331.779 282.132 331.832 282.52 331.797C282.904 331.515 282.802 331.112 282.791 330.731C281.705 330.858 280.805 331.455 279.867 331.927C278.516 332.608 277.207 333.377 275.683 333.617C275.693 333.815 275.708 334.012 275.718 334.21L275.722 334.206Z" fill="#676A63"/>
<path d="M297.982 282.014C297.551 282.045 297.124 282.074 296.694 282.105C296.595 283.213 296.959 284.211 297.424 285.185C298.733 287.926 300.067 290.653 301.358 293.401C302.889 296.654 304.427 299.907 305.887 303.195C306.459 304.479 307.045 305.752 307.655 307.019C307.955 307.636 308.297 308.211 308.953 308.511C309.595 308.43 309.937 307.961 310.276 307.488C310.283 306.803 310.181 306.144 309.81 305.548C309.722 305.406 309.655 305.248 309.581 305.096C307.567 300.951 305.478 296.841 303.563 292.65C302.466 290.248 301.273 287.891 300.134 285.51C299.795 284.801 299.52 284.063 299.206 283.344C298.952 282.762 298.599 282.264 297.985 282.014H297.982Z" fill="#DEA882"/>
<path d="M288.736 205.182C288.873 204.974 288.916 204.748 288.877 204.505C288.542 204.258 288.538 203.926 288.704 203.609C289.029 202.998 288.831 202.533 288.365 202.113C288.2 201.961 288.048 201.792 287.889 201.633C285.959 199.746 284.188 197.717 282.516 195.6C282.446 195.512 282.368 195.431 282.287 195.354C280.41 193.575 279.214 191.332 278.336 188.968C277.789 187.494 277.158 185.97 277.383 184.273C277.521 183.221 277.401 182.135 277.412 181.066C277.422 179.891 277.412 178.752 277.92 177.602C278.265 176.819 278.346 175.88 278.689 175.051C278.78 174.825 278.65 174.578 278.428 174.494C277.641 174.197 276.762 174.402 276.297 175.037C275.14 176.614 274.275 178.332 273.577 180.177C272.974 181.775 272.755 183.43 272.399 185.063C272.187 186.03 272.275 187.091 272.381 188.093C272.508 189.314 272.822 190.513 273.009 191.727C273.111 192.408 273.813 192.845 273.718 193.59C274.342 195.082 274.984 196.564 275.997 197.844C276.833 198.902 277.68 199.947 278.66 200.882C280.124 202.275 281.338 203.901 282.647 205.436C283.631 206.59 284.756 207.623 285.85 208.678C286.252 209.066 286.707 208.946 286.88 208.392C287.18 207.429 287.991 206.702 288.083 205.637C288.108 205.369 288.454 205.242 288.743 205.185L288.736 205.182Z" fill="#603818"/>
<path d="M346.966 328.756L375.622 331.924L433.125 340.549C433.1 344.25 433.185 347.954 433.016 351.648C432.913 353.831 432.892 356.015 432.815 358.195C432.804 358.53 432.815 358.869 432.786 359.204C432.744 359.705 432.596 359.871 432.042 359.924C431.488 359.977 430.945 360.086 430.37 360.012L405.883 360.746C402.67 360.83 399.473 360.573 396.27 360.446C394.528 360.375 392.788 360.234 391.049 360.093C389.088 359.934 387.126 359.737 385.168 359.557C384.83 359.525 384.487 359.493 384.149 359.465L368.083 358.266L366.894 357.871C366.499 357.857 366.108 357.821 365.727 357.687C363.92 357.059 362.118 356.431 360.312 355.807C360.11 355.736 359.941 355.634 359.793 355.504C359.655 355.377 359.539 355.228 359.447 355.048C359.267 354.699 359.098 354.343 358.929 353.987C357.147 350.226 355.373 346.462 353.584 342.705C351.915 339.202 350.233 335.706 348.564 332.203C348.384 331.829 348.225 331.441 348.06 331.06L346.955 328.759L346.966 328.756Z" fill="#6A6D66"/>
<path d="M91.1475 348.403V348.396C91.1475 348.294 91.1475 348.191 91.1475 348.086C91.1475 347.789 91.1757 347.496 91.2074 347.2L91.2498 346.329C91.2498 346.329 123.85 341.425 135.781 339.474C135.781 339.474 135.788 339.474 135.792 339.474C136.035 339.428 136.275 339.393 136.518 339.361C148.097 337.626 158.112 339.827 158.19 339.845C158.197 339.845 158.204 339.845 158.211 339.845L165.764 340.921C165.919 340.914 166.085 340.921 166.226 340.97C166.251 340.981 166.275 340.988 166.303 340.995L170.953 341.658C170.953 341.658 170.967 341.658 170.974 341.658C177.709 342.074 179.462 340.984 179.462 340.984C181.921 340.367 184.225 339.298 186.592 338.43C188.902 337.583 191.227 336.751 193.513 335.812C195.168 335.132 196.896 334.624 198.586 334.031C199.486 333.713 200.364 333.332 201.253 332.994C203.024 332.32 204.848 331.791 206.584 331.029C208.432 330.217 210.369 329.635 212.239 328.873C214.627 327.9 217.111 327.169 219.527 326.273C220.843 325.786 222.106 325.162 223.478 324.827C223.951 324.711 224.219 324.347 224.417 323.92C224.893 322.904 225.394 321.902 225.852 320.879C227.705 316.762 230.435 313.305 233.734 310.264C236.362 307.844 239.463 306.158 242.599 304.521C244.716 303.978 246.68 302.941 248.875 302.637C249.704 302.521 250.505 302.214 251.358 302.242C252.702 303.967 254.043 305.696 255.387 307.417C257.25 309.806 259.119 312.19 260.979 314.579C262.563 316.614 264.139 318.657 265.723 320.696C266.93 322.245 268.147 323.783 269.354 325.331C270.454 326.746 271.541 328.178 272.645 329.593C273.576 330.789 274.525 331.967 275.46 333.163C275.559 333.29 275.612 333.459 275.682 333.611C275.697 333.809 275.707 334.006 275.721 334.204C275.605 334.31 275.492 334.415 275.375 334.525C274.765 334.482 274.261 334.624 273.993 335.252C273.837 335.615 273.626 335.95 273.46 336.31C272.708 337.957 271.548 339.344 270.609 340.864C269.569 342.547 268.052 343.856 267.092 345.591C266.881 345.972 266.493 346.258 266.182 346.586C265.526 347.278 264.817 347.913 264.295 348.742C263.942 349.303 263.416 349.758 262.824 350.118C262.249 350.467 261.688 350.848 261.173 351.278C260.418 351.91 260.439 352.016 261.194 352.848C261.201 352.957 261.183 353.06 261.144 353.162C261.063 353.162 260.982 353.169 260.901 353.173L261.091 353.511C261.091 353.511 261.113 353.836 259.508 354.249C257.902 354.661 246.628 358.895 246.628 358.895L231.504 363.943C231.504 363.943 226.382 365.16 222.028 365.513C220.998 365.598 219.644 365.686 218.179 365.777C217.816 365.852 217.453 365.912 217.089 365.922C216.504 365.936 215.886 366.106 215.304 365.943C213.364 366.053 211.463 366.148 210.03 366.218C209.868 366.285 209.678 366.289 209.487 366.293C209.11 366.293 208.736 366.3 208.358 366.303C207.871 366.328 207.586 366.338 207.586 366.338V366.307C206.809 366.314 206.033 366.317 205.257 366.317C183.882 366.317 162.504 366.317 141.129 366.317C125.113 366.317 109.093 366.317 93.0772 366.317C92.4563 366.317 91.8037 366.398 91.2286 366.233L91.1792 365.125C91.1404 364.899 91.1369 364.592 91.1369 364.162C91.1299 358.909 91.1299 353.656 91.1369 348.403H91.1475Z" fill="#6A6D66"/>
</svg>
