<svg width="497" height="497" viewBox="0 0 497 497" fill="none" xmlns="http://www.w3.org/2000/svg">
<path d="M13.3379 319.466C18.4491 316.33 32.0377 313.319 38.0216 308.427C41.5123 305.542 48.4936 300.273 52.8568 300.148C60.0875 299.897 63.3288 303.911 65.3234 304.162C77.79 305.918 110.826 295.255 118.306 295.004C130.648 294.628 127.532 318.588 123.044 318.713C86.5166 320.093 68.0661 319.466 61.5834 319.089C61.5834 319.089 23.9344 324.985 19.1971 324.985C16.4545 325.236 8.97455 322.226 13.3379 319.466Z" fill="#ECAD83"/>
<path d="M158.636 294.046C144.213 293.285 130.417 293.539 118.001 294.807C119.882 298.865 121.513 315.222 120.635 319.027C125.15 319.027 160.141 321.689 160.141 321.689C171.178 322.197 236.395 326.381 256.336 322.07C261.478 321.182 265.993 319.787 269.756 318.519C276.904 315.983 250.943 282 250.943 282C231.629 282.254 197.892 291.003 187.984 293.032C177.95 295.061 158.636 294.046 158.636 294.046Z" fill="#333333"/>
<path d="M217.116 293.743C216.236 307.318 220.51 315.04 226.166 319.025C234.085 324.879 264.001 326.623 264.001 318.403C264.001 301.465 257.842 261.735 244.141 264.101C237.856 265.222 232.2 267.09 227.675 270.951C220.761 276.556 217.745 283.779 217.116 293.743Z" fill="#3D3C3C"/>
<path d="M483.475 308.42C478.075 311.057 464.134 312.815 457.603 317.084C453.835 319.595 446.299 324.241 441.904 323.99C434.619 323.614 431.73 319.219 429.721 318.842C417.413 315.954 383.251 323.488 375.715 323.111C363.282 322.358 368.556 298.751 373.078 299.002C409.877 300.886 428.339 303.271 434.745 304.276C434.745 304.276 473.051 301.765 477.824 302.267C480.963 302.392 488.122 306.034 483.475 308.42Z" fill="#ECAD83"/>
<path d="M331.418 304.986C346.863 305.484 350.755 292.768 367.205 284.415C369.214 283.417 374.864 273.942 374.99 268.955C375.115 263.469 374.236 257.859 369.716 253.62C366.2 250.378 355.778 246.264 326.898 251.501C318.108 252.498 296.636 256.737 275.415 260.602C264.365 262.597 248.042 263.095 244.275 263.594C244.275 263.594 249.423 273.942 246.912 283.916C244.4 293.89 239.001 302.991 239.001 302.991C285.837 306.482 304.798 297.131 320.243 299.375C320.117 299.5 327.023 304.861 331.418 304.986Z" fill="#FF8AA0"/>
<path d="M373.655 281.143C373.655 281.143 384.828 277.161 394.871 274.673L396.001 258C385.958 261.235 372.399 258.871 372.399 258.871C374.031 274.424 368.633 280.894 367.001 285L373.655 281.143Z" fill="#ECAD83"/>
<path d="M429.057 268.621C436.693 266.996 438.664 260.121 439.403 255.997C441.743 242.998 436.94 237.123 429.796 230.873C420.313 222.499 395.187 244.622 392.354 249.622C385.088 262.621 396.419 280.12 402.454 285.744C409.105 291.869 409.351 287.994 411.568 285.12C411.691 284.995 412.307 284.87 412.307 284.87C413.169 283.995 414.154 282.62 415.879 281.87C415.879 281.87 416.371 280.745 416.741 280.37C416.987 279.995 417.11 279.87 417.603 280.12C418.958 280.62 420.066 281.12 420.805 281.12C423.145 280.87 425.609 269.371 429.057 268.621Z" fill="#F6BB92"/>
<path d="M411.001 280C411.001 280 411.367 281.038 414.291 283.894C414.779 284.024 415.875 284.283 415.997 282.856C416.119 281.687 413.316 281.687 411.001 280Z" fill="#D6876B"/>
<path d="M411.101 280C411.101 280 410.477 282.267 412.349 285.733C412.765 286.133 413.285 286 413.389 285.867C414.325 285.2 413.909 284 413.909 284C411.309 281.067 411.101 280 411.101 280Z" fill="#CC785E"/>
<path d="M430.388 229.006C418.603 218.972 388.389 222.193 387.01 255.642C386.885 257.872 388.013 261.589 394.031 261.96C398.293 262.208 402.305 261.217 402.305 261.217C403.433 260.845 404.812 260.597 406.192 260.102C407.696 259.606 411.959 253.288 413.338 254.155C426.376 262.208 436.656 260.35 439.289 257.376C444.304 248.952 442.925 239.785 430.388 229.006Z" fill="#602F0F"/>
<path d="M403.386 256.889C400.448 263.555 402.585 265.654 406.057 268L411.666 258.494L413.001 253.926C409.529 251.58 406.324 250.222 403.386 256.889Z" fill="#F6BB92"/>
<path d="M397.062 230.779C396.318 226.259 402.515 221.977 410.695 221.144C418.876 220.311 426.188 223.166 426.932 227.686C427.676 232.206 422.346 234.942 414.166 235.774C405.861 236.607 397.805 235.179 397.062 230.779Z" fill="#4C230C"/>
<path d="M413.875 256.746C414.5 255.621 415.249 254.747 415.874 254.122C416.749 253.122 417.499 252.622 417.499 252.622L413 250.873C412.5 251.373 412.126 251.873 411.626 252.372C411.626 252.372 412.126 252.622 412.875 252.872H412.75C412.5 253.997 412.126 255.746 411.126 257.87C411.251 257.995 411.751 260.12 413.875 256.746Z" fill="#602F0F"/>
<path d="M395.38 229.007C394.63 224.009 401.378 219.261 410.5 218.261C419.621 217.261 427.618 220.51 428.368 225.383C429.118 230.382 423.245 233.38 414.248 234.38C405.127 235.38 396.13 233.88 395.38 229.007Z" fill="#602F0F"/>
<path d="M406.006 220.489C405.881 220.03 408.129 219.341 410.876 219.111C413.623 218.881 415.995 218.996 415.995 219.57C416.12 220.03 414.247 220.489 411.5 220.834C408.753 221.179 406.006 220.949 406.006 220.489Z" fill="#4C230C"/>
<path d="M335.618 320.404C349.871 322.508 363.624 323.374 376.001 323.25C374.501 319.167 374.376 303.204 375.501 299.492C371 299.12 336.493 293.428 336.493 293.428C325.491 291.82 261.229 281.92 241.1 284.395C235.849 284.89 231.348 285.632 227.473 286.622C220.096 288.479 242.85 323.745 242.85 323.745C261.979 325.23 296.236 319.786 306.363 318.672C316.49 317.558 335.618 320.404 335.618 320.404Z" fill="#3D3C3C"/>
<path d="M431.988 317.1C404.998 322.348 396.252 321.723 388.879 321.223C381.507 320.848 372.885 322.473 371.511 322.598C371.261 323.597 371.011 324.472 370.886 325.347C370.011 330.345 371.261 333.219 372.01 334.468C372.01 334.468 374.385 338.592 378.758 338.967C387.38 339.716 436.112 326.846 436.112 326.846L431.988 317.1Z" fill="#F6BB92"/>
<path d="M385.757 334.093C384.382 327.72 381.134 317.599 381.134 317.599C378.884 309.352 376.51 298.106 374.386 290.609C371.262 278.239 370.637 274.365 370.263 271.116C369.763 265.868 367.888 258.496 363.39 255.997C356.393 252.123 344.772 253.998 344.272 262.744C343.647 275.49 362.39 320.723 369.138 330.969C371.887 335.218 374.511 337.842 375.885 338.217C377.26 338.716 380.759 338.092 384.257 335.468C384.757 335.093 385.257 334.593 385.757 334.093Z" fill="#F6BB92"/>
<path d="M431.991 317.1C431.741 317.225 431.866 318.85 435.614 326.847C435.614 326.847 437.989 325.972 442.362 325.972C448.485 325.847 456.357 322.473 459.98 318.725C463.104 315.601 464.479 310.103 462.729 305.729C461.105 301.356 443.362 310.478 437.364 311.352L431.991 317.1Z" fill="#F6BB92"/>
<path d="M443.862 311.102C443.862 311.102 449.86 309.478 449.36 306.104C448.86 303.355 448.485 302.481 437.489 311.352C437.489 311.477 438.364 313.102 443.862 311.102Z" fill="#F6BB92"/>
</svg>
