<svg width="500" height="500" viewBox="0 0 500 500" fill="none" xmlns="http://www.w3.org/2000/svg">
<path d="M302.793 293.976C306.285 294.963 309.919 294.469 313.482 294.928C323.254 296.198 333.062 297.01 342.834 298.068C355.111 299.408 367.423 300.502 379.664 302.372C387.814 303.607 395.928 305.265 404.112 306.394C416.777 308.122 429.407 310.168 442.037 312.144C443.518 312.391 444.788 313.485 446.376 313.061C445.459 321.14 446.023 329.254 446.094 337.333C442.425 337.827 438.791 337.086 435.122 336.909C415.825 335.992 396.492 335.498 377.195 335.287C365.694 335.145 354.264 336.521 342.799 337.121C329.04 337.862 315.281 338.955 301.523 339.873C297.148 340.155 292.774 340.437 288.435 340.719C288.505 340.367 288.576 340.014 288.611 339.661C289.281 338.744 289.74 337.756 289.916 336.627C290.198 336.415 290.34 336.133 290.269 335.78C290.622 334.581 291.433 333.558 291.363 332.217C291.821 331.97 291.998 331.547 291.962 331.018C292.597 328.725 293.656 326.538 293.867 324.139C294.185 323.892 294.185 323.574 294.15 323.257C294.891 320.681 295.667 318.071 296.407 315.495C296.69 315.284 296.831 315.001 296.76 314.613C296.972 313.731 297.607 312.92 297.36 311.897C297.819 311.65 297.995 311.227 297.924 310.733C297.995 310.451 298.03 310.168 298.101 309.886C298.418 309.674 298.489 309.357 298.418 309.039C298.489 308.757 298.524 308.475 298.595 308.193C298.912 307.946 298.912 307.628 298.806 307.311C299.124 305.265 300.147 303.36 300.218 301.243C300.535 301.031 300.641 300.749 300.57 300.396C301.629 298.35 301.417 295.881 302.793 293.976Z" fill="#696C65"/>
<path d="M81.1396 313.025C83.9266 312.531 86.7489 312.073 89.5359 311.543C104.071 308.792 118.852 307.486 133.387 304.77C146.863 302.23 160.516 300.713 173.992 298.208C183.447 296.48 193.113 295.986 202.674 295.033C206.237 294.68 209.729 293.728 213.363 294.363C213.892 294.469 214.351 294.257 214.739 293.904C215.797 298.42 216.608 303.041 217.914 307.486C221.089 318.141 222.994 329.077 225.534 339.872C218.937 338.849 212.234 338.531 205.602 337.932C193.007 336.803 180.413 335.921 167.819 334.651C155.824 333.451 143.865 334.333 131.905 335.18C118.782 336.097 105.693 337.014 92.5698 337.896C88.8303 338.143 85.0908 337.791 81.3866 337.403C81.4924 329.218 81.9863 321.104 81.1396 313.025Z" fill="#696C65"/>
<path d="M225.569 339.837C223.029 329.041 221.124 318.105 217.949 307.451C216.644 303.006 215.832 298.42 214.774 293.869C212.869 285.967 210.858 278.1 209.059 270.162C207.648 263.953 206.166 257.744 205.178 251.464C204.261 245.538 203.696 239.434 205.213 233.508C207.93 222.748 214.351 216.856 225.64 214.14C227.298 213.752 228.991 213.54 230.684 213.223C228.356 218.656 227.086 224.194 228.25 230.156C228.674 232.344 228.85 234.566 229.097 236.753C228.991 237.177 228.85 237.565 228.744 237.988C227.615 242.751 229.344 247.231 230.085 251.782C231.143 258.308 233.436 264.553 234.777 271.044C236.435 279.193 238.234 287.342 240.421 295.386C240.386 295.668 240.28 295.95 240.315 296.233C240.739 301.207 240.986 306.181 242.185 311.05C242.538 312.39 242.75 313.554 241.092 314.26C240.174 314.648 239.539 315.459 239.292 316.518C238.622 319.128 237.987 321.774 238.657 324.455C238.975 325.725 238.975 326.995 238.975 328.301C238.975 331.652 239.01 334.968 238.975 338.32C238.94 340.577 240.598 339.978 241.868 340.119C243.208 340.26 243.808 339.801 243.773 338.32C243.702 334.157 243.914 329.994 243.702 325.831C243.314 317.505 245.113 318.599 251.781 318.493C252.945 318.493 253.227 319.022 253.227 320.081C253.192 326.889 253.58 333.663 254.109 340.436C245.713 341.706 237.281 340.295 228.885 340.436C227.792 340.472 226.698 340.048 225.569 339.837Z" fill="#F4BA92"/>
<path d="M295.526 253.299C294.82 253.299 294.115 253.299 293.445 253.335C290.375 250.618 287.871 247.408 285.754 243.915C285.26 243.069 285.013 241.975 283.743 241.94C283.461 241.34 282.614 241.269 282.508 240.564C282.72 240.564 282.967 240.493 283.143 240.564C284.025 240.811 285.013 241.269 285.754 240.458C286.565 239.576 285.789 238.729 285.472 237.883C283.955 233.438 282.085 229.098 280.674 224.583C279.333 220.208 277.71 215.94 276.511 211.53C276.052 209.872 275.029 209.131 273.089 209.589C271.29 210.013 269.526 210.577 267.656 210.754C264.058 211.106 260.812 209.907 257.672 208.672C254.074 207.226 250.758 205.003 249.382 201.052C248.818 199.429 247.971 199.676 246.842 199.994C245.466 200.382 245.219 201.334 245.748 202.499C247.336 205.885 249.206 208.99 252.451 211.212C257.39 214.634 262.788 215.798 268.679 215.481C271.854 215.305 272.56 216.045 273.124 219.326C272.207 219.256 272.066 218.444 271.748 217.845C271.396 217.139 270.972 216.575 270.126 216.751C266.88 217.457 263.74 216.575 260.671 215.834C255.132 214.458 250.264 211.918 247.018 206.944C246.101 205.532 245.678 203.945 244.761 202.569C244.478 202.146 244.478 201.617 243.737 201.969C240.245 203.627 236.999 205.603 234.741 208.813C233.965 209.907 233.542 211.283 232.731 212.376C230.967 214.74 230.049 217.457 229.626 220.244C229.026 224.089 229.097 228.005 229.591 231.85C229.979 235.096 230.332 238.447 232.307 241.199C233.436 242.786 234.142 244.409 234.177 246.314C233.683 246.067 233.577 245.573 233.366 245.115C231.99 242.328 230.579 239.541 229.167 236.754C228.885 234.567 228.709 232.344 228.321 230.157C227.192 224.23 228.462 218.656 230.755 213.223C231.884 211.071 232.907 208.849 234.389 206.873C236.929 203.486 240.633 201.864 244.302 200.241C247.301 198.935 249.946 197.595 251.851 194.596C253.933 191.315 257.567 189.693 261.024 188.034C261.835 188.176 262.576 187.929 263.141 187.364C263.564 187.294 263.987 187.188 264.446 187.117C264.904 187.435 265.257 187.258 265.539 186.835C269.138 186.376 272.666 186.623 276.194 187.364C276.829 187.964 277.499 188.211 278.346 187.929C281.344 188.846 284.061 190.398 286.812 191.844C286.953 192.338 287.236 192.55 287.765 192.444C287.871 192.515 288.012 192.585 288.118 192.656C288.223 193.15 288.506 193.397 289.035 193.326C290.658 194.914 292.175 196.642 293.48 198.547C293.339 199.041 293.586 199.359 294.044 199.5C294.327 200.029 294.574 200.558 294.856 201.087C294.715 201.934 295.032 202.534 295.702 202.992C296.126 204.227 296.584 205.462 297.008 206.697C296.831 207.085 296.867 207.367 297.29 207.543C297.749 209.413 298.595 211.212 298.772 213.188C298.701 213.964 298.525 214.74 298.631 215.516C299.336 221.866 298.807 228.216 298.101 234.531C297.607 238.765 296.69 242.998 296.867 247.302C296.831 248.008 296.831 248.713 296.796 249.419C296.02 250.618 296.69 252.241 295.526 253.299Z" fill="#7A4821"/>
<path d="M81.1392 313.025C81.9859 321.104 81.492 329.218 81.4214 337.332C77.5408 337.826 73.6249 337.473 69.8501 336.838C64.5584 335.956 61.4891 331.793 59.6194 327.242C57.4674 321.95 56.7618 316.2 56.021 310.485C55.5977 307.133 55.5977 303.747 55.5977 300.395C55.5977 297.608 56.5149 296.232 58.8433 295.386C61.595 294.363 63.6411 294.857 65.5109 296.691C70.9085 301.983 76.0238 307.486 81.1392 313.025Z" fill="#F7BB92"/>
<path d="M446.129 337.332C446.094 329.254 445.529 321.14 446.411 313.061C451.139 307.663 456.184 302.583 461.228 297.503C463.204 295.492 465.109 294.434 467.79 295.14C470.648 295.845 471.953 297.609 472.024 300.572C472.2 308.157 470.718 315.495 469.272 322.904C468.284 328.125 465.321 331.829 461.581 335.216C460.417 336.274 458.935 336.768 457.454 336.874C453.714 337.156 449.939 337.826 446.129 337.332Z" fill="#F7BB92"/>
<path d="M268.361 310.733C268.361 311.015 268.361 311.297 268.361 311.58C267.656 312.85 268.89 313.308 269.525 313.555C270.76 314.049 271.466 314.896 272.101 315.989C273.653 318.706 274.464 321.599 274.429 324.738C274.394 328.231 274.429 331.759 274.429 335.251C274.429 340.473 274.429 340.473 269.243 340.508C268.89 340.473 268.538 340.402 268.361 340.049C268.855 336.274 267.268 332.5 268.432 328.725C268.926 327.173 268.961 325.585 268.785 324.033C268.432 320.646 267.726 318.459 264.516 318.036C263.493 318.036 262.505 318.036 261.482 318.036C260.812 318.177 260.106 318.459 259.436 318.424C257.672 318.282 257.46 319.27 257.601 320.646C257.637 321.669 257.425 322.728 258.025 323.68C257.743 328.584 258.836 333.452 258.483 338.356C258.483 339.026 258.448 339.732 258.448 340.402C257.037 340.402 255.591 340.402 254.179 340.437C253.65 333.664 253.262 326.89 253.297 320.082C253.297 319.023 253.015 318.494 251.851 318.494C245.183 318.6 243.384 317.506 243.772 325.832C243.984 329.995 243.737 334.158 243.843 338.321C243.878 339.802 243.278 340.226 241.938 340.12C240.668 339.979 239.01 340.578 239.045 338.321C239.08 334.969 239.045 331.653 239.045 328.302C239.045 327.032 239.045 325.762 238.728 324.456C238.057 321.775 238.692 319.129 239.363 316.519C239.645 315.46 240.244 314.649 241.162 314.261C242.785 313.555 242.573 312.426 242.255 311.05C241.021 306.182 240.809 301.208 240.386 296.234C240.35 295.951 240.456 295.669 240.491 295.387C241.303 295.457 242.114 295.493 242.926 295.563C244.09 300.926 245.254 306.253 246.418 311.615C246.63 312.673 247.406 312.497 248.076 312.497C252.733 312.497 257.39 312.462 262.046 312.532C263.246 312.532 263.493 312.074 263.74 310.945C264.375 307.946 264.833 304.947 265.61 301.949C266.209 299.62 267.444 297.433 267.55 294.963C268.185 294.822 268.855 294.646 269.49 294.505C270.231 296.375 270.196 298.244 269.878 300.185C269.243 303.677 268.855 307.205 268.361 310.733Z" fill="#DDA882"/>
<path d="M261.447 318.07C262.47 318.07 263.458 318.07 264.481 318.07C264.551 318.353 264.551 318.776 264.728 318.846C267.55 320.399 267.691 323.08 267.444 325.726C267.056 329.924 267.091 334.157 267.056 338.355C267.056 339.273 267.021 340.155 268.326 340.049C268.538 340.402 268.855 340.472 269.208 340.507C269.208 340.648 269.208 340.79 269.208 340.931C265.61 340.966 261.976 340.825 258.413 340.366C258.413 339.696 258.448 338.99 258.448 338.32C259.542 338.391 259.824 337.826 259.683 336.874C259.154 333.134 259.048 329.395 259.189 325.655C259.224 324.914 259.154 323.856 257.99 323.68C257.39 322.727 257.602 321.669 257.566 320.646C258.625 320.187 259.33 319.093 260.706 319.199C261.235 319.27 261.412 318.635 261.447 318.07Z" fill="#F7BB92"/>
<path d="M269.208 340.966C269.208 340.825 269.208 340.684 269.208 340.543C274.394 340.507 274.394 340.507 274.394 335.286C274.394 331.793 274.359 328.266 274.394 324.773C274.43 321.633 273.618 318.74 272.066 316.024C271.431 314.93 270.725 314.119 269.491 313.59C268.82 313.343 267.621 312.884 268.326 311.614C273.054 313.096 274.535 316.977 275.206 321.281C275.947 326.008 275.911 330.77 275.276 335.568C275.065 337.121 276.229 338.743 274.677 340.401C277.816 340.19 280.639 339.696 283.39 340.507C278.698 340.966 274.006 341.777 269.208 340.966Z" fill="#F4BA92"/>
<path d="M296.831 247.302C296.654 242.998 297.572 238.8 298.066 234.531C298.771 228.216 299.3 221.901 298.595 215.516C298.524 214.74 298.701 213.964 298.736 213.188C299.794 213.611 299.265 214.528 299.371 215.269C299.512 216.468 299.124 217.738 299.865 218.832C300.006 221.866 300.394 224.97 300.429 227.934C300.5 231.391 300.5 235.131 299.265 238.588C298.842 239.787 298.842 241.057 297.995 242.186C297.36 243.068 297.642 244.232 297.96 245.291C298.312 246.349 298.101 247.161 296.831 247.302Z" fill="#F4BA92"/>
<path d="M263.14 187.364C262.54 187.964 261.835 188.175 261.023 188.034C261.517 187.188 262.188 186.835 263.14 187.364Z" fill="#F4BA92"/>
<path d="M278.345 187.964C277.499 188.246 276.793 187.999 276.193 187.399C277.075 186.8 277.746 187.258 278.345 187.964Z" fill="#F4BA92"/>
<path d="M295.667 203.028C294.996 202.569 294.679 201.97 294.82 201.123C295.737 201.476 295.984 202.111 295.667 203.028Z" fill="#F4BA92"/>
<path d="M305.58 221.831C304.733 221.867 304.275 221.479 304.204 220.632C304.98 220.632 305.368 221.126 305.58 221.831Z" fill="#F4BA92"/>
<path d="M302.617 220.067C302.088 220.138 301.664 220.032 301.594 219.397C302.158 219.291 302.44 219.644 302.617 220.067Z" fill="#F4BA92"/>
<path d="M297.254 207.579C296.831 207.403 296.796 207.12 296.972 206.732C297.607 206.838 297.783 207.085 297.254 207.579Z" fill="#F4BA92"/>
<path d="M294.044 199.536C293.585 199.394 293.338 199.077 293.479 198.583C294.114 198.618 294.29 198.971 294.044 199.536Z" fill="#F4BA92"/>
<path d="M289.034 193.361C288.505 193.432 288.223 193.185 288.117 192.691C288.717 192.479 289.034 192.691 289.034 193.361Z" fill="#F4BA92"/>
<path d="M287.765 192.479C287.236 192.585 286.954 192.374 286.812 191.88C287.377 191.597 287.694 191.809 287.765 192.479Z" fill="#F4BA92"/>
<path d="M265.504 186.835C265.222 187.223 264.869 187.399 264.41 187.117C264.692 186.517 265.045 186.447 265.504 186.835Z" fill="#F4BA92"/>
<path d="M300.253 301.243C299.653 300.643 300.077 300.502 300.606 300.396C300.676 300.749 300.571 301.032 300.253 301.243Z" fill="#F4BA92"/>
<path d="M298.63 308.193C297.925 307.699 298.207 307.452 298.842 307.311C298.983 307.628 298.948 307.946 298.63 308.193Z" fill="#F4BA92"/>
<path d="M298.136 309.886C297.501 309.321 297.889 309.145 298.454 309.039C298.524 309.357 298.454 309.674 298.136 309.886Z" fill="#F4BA92"/>
<path d="M297.395 311.932C297.254 311.403 297.289 310.909 297.96 310.768C298.03 311.261 297.854 311.65 297.395 311.932Z" fill="#F4BA92"/>
<path d="M296.407 315.495C295.737 314.86 296.195 314.719 296.76 314.613C296.83 315.001 296.689 315.284 296.407 315.495Z" fill="#F4BA92"/>
<path d="M293.903 324.138C293.198 323.609 293.551 323.397 294.186 323.256C294.221 323.609 294.185 323.926 293.903 324.138Z" fill="#F4BA92"/>
<path d="M291.398 332.217C291.222 331.653 291.292 331.159 291.998 331.018C292.033 331.547 291.857 331.97 291.398 332.217Z" fill="#F4BA92"/>
<path d="M289.916 336.627C289.281 336.027 289.74 335.886 290.269 335.78C290.34 336.133 290.234 336.415 289.916 336.627Z" fill="#F4BA92"/>
<path d="M269.456 294.469C268.821 294.611 268.15 294.787 267.515 294.928C259.26 293.976 251.076 294.011 242.891 295.528C242.08 295.457 241.268 295.422 240.457 295.351C238.269 287.308 236.47 279.159 234.812 271.009C233.472 264.518 231.214 258.274 230.12 251.747C229.379 247.196 227.651 242.681 228.78 237.953C228.885 237.53 229.027 237.107 229.132 236.719C230.544 239.506 231.955 242.293 233.331 245.08C233.542 245.538 233.648 246.032 234.142 246.279L234.212 246.456C234.847 247.796 235.447 249.172 236.894 249.878C237.07 251.253 238.093 251.959 239.081 252.665C241.586 254.428 244.337 255.557 247.265 256.404C248.677 256.827 250.123 257.11 251.181 258.45C254.109 262.225 256.191 262.19 259.119 258.309C259.789 257.392 260.565 256.58 261.659 256.439C264.446 256.016 266.774 254.64 269.209 253.37C270.302 252.806 271.29 252.065 271.643 250.795C274.536 249.207 276.088 246.42 277.958 243.916L277.922 243.951C279.333 243.633 280.039 242.575 280.498 241.305C281.097 241.023 281.45 240.388 282.156 240.352C282.226 240.494 282.332 240.564 282.473 240.529C282.614 241.234 283.461 241.305 283.708 241.905C283.426 242.54 282.932 243.104 283.002 243.845C282.544 244.939 282.085 246.032 282.12 247.267C281.768 247.479 281.732 247.796 281.838 248.149C281.768 248.572 281.662 248.96 281.591 249.384C281.203 249.772 281.133 250.23 281.203 250.76C280.85 251.253 280.709 251.818 280.78 252.453C280.462 252.7 280.392 252.982 280.533 253.37C280.462 253.652 280.427 253.935 280.357 254.182C279.404 256.263 279.016 258.45 278.663 260.708C278.24 262.119 277.711 263.46 277.711 264.977C277.393 265.224 277.358 265.541 277.464 265.894C277.393 266.317 277.323 266.705 277.252 267.129C276.935 267.376 276.899 267.693 277.005 268.046C276.652 269.457 276.017 270.798 276.017 272.315C275.276 273.69 274.959 275.172 274.783 276.689C274.43 277.183 274.218 277.747 274.289 278.382C273.971 278.629 273.901 278.912 273.971 279.3C273.371 280.499 273.089 281.804 272.913 283.11C272.595 283.357 272.525 283.674 272.595 284.062C272.172 285.015 271.749 285.967 271.749 287.061C270.902 288.684 270.443 290.448 270.126 292.247C269.985 292.776 269.844 293.305 269.702 293.87C269.632 294.011 269.561 294.258 269.456 294.469Z" fill="#8A8AD9"/>
<path d="M283.002 243.845C282.967 243.104 283.425 242.539 283.707 241.904C284.978 241.94 285.224 243.033 285.718 243.88C287.835 247.408 290.34 250.583 293.409 253.299C292.068 254.64 291.01 254.463 290.375 252.664C290.058 251.747 289.211 251.429 288.682 250.794C287.376 249.207 285.859 247.796 284.978 245.82C284.66 245.009 284.272 243.88 283.002 243.845Z" fill="#F4BA92"/>
<path d="M269.455 294.469C269.561 294.257 269.631 294.01 269.737 293.799C272.277 295.316 271.466 297.856 271.289 299.973C271.007 303.183 270.196 306.358 269.631 309.568C269.49 310.309 269.067 310.697 268.361 310.732C268.855 307.205 269.243 303.641 269.843 300.149C270.196 298.173 270.231 296.339 269.455 294.469Z" fill="#F4BA92"/>
<path d="M295.525 253.299C296.725 252.276 296.019 250.618 296.76 249.454C297.536 250.089 297.501 251.112 297.642 251.959C297.854 253.335 296.937 253.864 295.525 253.299Z" fill="#F4BA92"/>
<path d="M278.662 260.708C278.98 258.486 279.403 256.263 280.355 254.182C280.955 255.84 280.003 259.615 278.662 260.708Z" fill="#F4BA92"/>
<path d="M270.16 292.176C270.442 290.377 270.936 288.613 271.783 286.99C272.277 289.036 271.854 290.8 270.16 292.176Z" fill="#F4BA92"/>
<path d="M274.782 276.654C274.923 275.137 275.276 273.655 276.017 272.279C276.37 273.973 276.511 275.56 274.782 276.654Z" fill="#F4BA92"/>
<path d="M283.178 298.174C282.402 297.468 282.578 296.904 282.931 296.198C283.672 296.727 283.531 297.327 283.178 298.174Z" fill="#F4BA92"/>
<path d="M281.203 250.76C281.132 250.23 281.203 249.772 281.591 249.384C282.473 250.125 282.261 250.583 281.203 250.76Z" fill="#F4BA92"/>
<path d="M274.006 279.229C273.9 278.876 274.005 278.558 274.323 278.312C275.064 278.911 274.641 279.123 274.006 279.229Z" fill="#F4BA92"/>
<path d="M272.629 283.992C272.559 283.604 272.63 283.286 272.947 283.039C273.794 283.674 273.335 283.886 272.629 283.992Z" fill="#F4BA92"/>
<path d="M281.838 248.184C281.732 247.831 281.767 247.513 282.12 247.302C282.825 247.831 282.473 248.043 281.838 248.184Z" fill="#F4BA92"/>
<path d="M277.498 265.859C277.392 265.506 277.427 265.188 277.745 264.941C278.521 265.471 278.168 265.718 277.498 265.859Z" fill="#F4BA92"/>
<path d="M277.005 268.01C276.899 267.657 276.969 267.34 277.252 267.093C278.063 267.657 277.71 267.904 277.005 268.01Z" fill="#F4BA92"/>
<path d="M280.532 253.37C280.391 253.018 280.462 252.7 280.779 252.453C281.485 252.982 281.202 253.229 280.532 253.37Z" fill="#F4BA92"/>
<path d="M234.212 246.455L234.142 246.279C234.107 244.374 233.401 242.716 232.272 241.163C230.297 238.376 229.944 235.06 229.556 231.815C229.062 227.934 228.991 224.018 229.591 220.208C230.05 217.421 230.932 214.705 232.695 212.341C233.507 211.247 233.93 209.907 234.706 208.778C236.964 205.567 240.21 203.557 243.702 201.934C244.478 201.581 244.443 202.11 244.725 202.534C245.643 203.909 246.066 205.497 246.983 206.908C250.229 211.918 255.097 214.458 260.636 215.798C263.705 216.574 266.845 217.421 270.09 216.715C270.937 216.539 271.361 217.104 271.713 217.809C272.031 218.409 272.137 219.22 273.089 219.291C273.442 219.467 273.512 219.82 273.512 220.173C272.877 220.843 273.407 220.949 273.936 221.019C274.677 222.995 275.453 225.006 276.194 226.981C277.816 231.144 279.827 235.166 280.85 239.576C280.568 240.14 280.321 240.705 280.427 241.34C279.016 241.693 278.134 242.504 277.852 243.986L277.887 243.95C276.793 243.774 276.194 244.374 275.664 245.256C272.948 249.665 271.572 249.912 267.374 246.878C266.915 246.526 266.527 246.102 266.069 245.75C263.846 244.091 261.624 242.116 258.978 241.481C256.05 240.775 252.91 240.669 249.805 240.881C249.029 240.916 248.43 241.128 247.9 241.693C245.537 244.197 242.468 245.82 239.751 247.796C238.411 248.783 236.576 249.489 235.447 247.196C235.2 246.632 234.742 246.455 234.212 246.455Z" fill="#7A4821"/>
<path d="M273.512 220.138C273.512 219.785 273.441 219.467 273.089 219.256C272.524 215.975 271.819 215.234 268.644 215.41C262.752 215.693 257.355 214.528 252.416 211.142C249.205 208.919 247.336 205.815 245.713 202.428C245.184 201.264 245.395 200.311 246.806 199.923C247.935 199.606 248.782 199.359 249.346 200.981C250.722 204.933 254.003 207.155 257.637 208.602C260.777 209.836 264.057 211.036 267.621 210.683C269.49 210.507 271.254 209.907 273.053 209.519C274.994 209.06 276.017 209.801 276.475 211.459C277.675 215.869 279.298 220.173 280.638 224.512C282.049 229.028 283.919 233.367 285.436 237.812C285.718 238.659 286.494 239.505 285.718 240.387C284.978 241.199 283.99 240.775 283.108 240.493C282.896 240.423 282.684 240.493 282.473 240.493C282.332 240.528 282.226 240.458 282.155 240.317C282.12 239.435 281.485 239.541 280.92 239.47C279.897 235.096 277.887 231.039 276.264 226.876C275.488 224.9 274.747 222.925 274.006 220.914C273.971 220.632 273.865 220.314 273.512 220.138Z" fill="#5C3718"/>
<path d="M242.891 295.528C251.075 294.011 259.295 293.975 267.515 294.928C267.374 297.397 266.174 299.549 265.575 301.913C264.798 304.876 264.34 307.91 263.705 310.909C263.458 312.038 263.211 312.496 262.011 312.496C257.355 312.461 252.698 312.496 248.041 312.461C247.371 312.461 246.595 312.637 246.383 311.579C245.219 306.252 244.055 300.89 242.891 295.528Z" fill="#F7BB92"/>
<path d="M268.326 340.084C267.02 340.19 267.056 339.308 267.056 338.391C267.091 334.192 267.056 329.959 267.444 325.761C267.691 323.115 267.55 320.434 264.727 318.882C264.551 318.776 264.551 318.352 264.48 318.105C267.691 318.529 268.396 320.681 268.749 324.103C268.926 325.655 268.855 327.243 268.396 328.795C267.232 332.534 268.855 336.309 268.326 340.084Z" fill="#F4B990"/>
<path d="M257.989 323.68C259.153 323.891 259.224 324.95 259.189 325.655C259.083 329.43 259.153 333.134 259.683 336.874C259.824 337.826 259.506 338.426 258.448 338.32C258.836 333.452 257.707 328.583 257.989 323.68Z" fill="#F4B990"/>
<path d="M261.447 318.07C261.412 318.599 261.2 319.235 260.706 319.199C259.33 319.093 258.625 320.187 257.566 320.646C257.39 319.27 257.601 318.282 259.401 318.423C260.071 318.529 260.776 318.211 261.447 318.07Z" fill="#F4B990"/>
<path d="M271.607 250.795C271.219 252.065 270.266 252.805 269.172 253.37C266.738 254.605 264.41 256.016 261.623 256.439C260.564 256.58 259.788 257.392 259.083 258.309C256.19 262.19 254.073 262.225 251.145 258.45C250.122 257.109 248.676 256.827 247.229 256.404C244.301 255.557 241.514 254.428 239.045 252.664C238.057 251.959 237.034 251.253 236.857 249.877C240.491 248.784 243.701 246.985 246.488 244.444C248.358 242.751 250.334 241.516 253.015 242.222C254.426 242.61 255.872 242.61 257.284 242.539C258.695 242.504 259.965 242.892 261.094 243.739C264.516 246.244 267.902 248.784 271.607 250.795Z" fill="#F7BB92"/>
<path d="M271.607 250.794C267.903 248.784 264.516 246.244 261.129 243.739C260 242.892 258.73 242.504 257.319 242.539C255.908 242.575 254.462 242.575 253.051 242.222C250.369 241.516 248.394 242.716 246.524 244.444C243.737 246.984 240.527 248.819 236.893 249.877C235.447 249.172 234.847 247.796 234.212 246.455C234.741 246.455 235.235 246.632 235.482 247.126C236.611 249.419 238.445 248.713 239.786 247.725C242.538 245.714 245.607 244.127 247.935 241.622C248.464 241.058 249.064 240.846 249.84 240.811C252.945 240.599 256.084 240.74 259.013 241.41C261.658 242.045 263.846 244.021 266.104 245.679C266.562 246.032 266.95 246.455 267.409 246.808C271.607 249.842 272.983 249.595 275.699 245.185C276.228 244.303 276.828 243.704 277.922 243.88C276.017 246.385 274.5 249.207 271.607 250.794Z" fill="#7B4923"/>
<path d="M277.887 243.915C278.169 242.469 279.051 241.622 280.462 241.27C280.003 242.54 279.298 243.598 277.887 243.915Z" fill="#7B4923"/>
<path d="M280.885 239.541C281.449 239.576 282.12 239.506 282.12 240.388C281.414 240.423 281.026 241.058 280.462 241.34C280.356 240.67 280.603 240.07 280.885 239.541Z" fill="#7B4923"/>
<path d="M273.512 220.138C273.865 220.314 273.935 220.632 273.935 220.984C273.406 220.914 272.877 220.808 273.512 220.138Z" fill="#7B4923"/>
<path d="M303.252 291.364C303.252 291.364 315.388 237.918 315.246 237.741C314.576 228.04 308.508 223.03 304.204 220.667V220.631C303.852 220.349 303.499 220.137 303.075 220.067C302.546 219.82 302.052 219.608 301.629 219.432V219.396C301.417 219.326 301.206 219.255 300.994 219.185C300.288 218.938 299.865 218.832 299.865 218.832C300.006 221.866 300.394 224.97 300.43 227.934C300.5 231.391 300.5 235.131 299.265 238.588C298.842 239.787 298.842 241.057 297.995 242.186C297.36 243.068 297.643 244.232 297.96 245.291C298.278 246.349 298.101 247.161 296.796 247.302C296.761 248.007 296.761 248.713 296.725 249.418C297.501 250.053 297.466 251.076 297.607 251.923C297.819 253.334 296.937 253.863 295.491 253.299C294.785 253.299 294.079 253.299 293.409 253.334C292.069 254.675 291.01 254.498 290.375 252.699C290.058 251.782 289.211 251.465 288.682 250.829C287.518 249.418 286.212 248.148 285.295 246.49L285.683 243.915L282.932 241.34L269.667 293.834C272.207 295.351 271.396 297.891 271.219 300.008C270.937 303.218 270.125 306.393 269.561 309.603C269.42 310.344 268.997 310.732 268.291 310.767C268.291 311.05 268.291 311.332 268.291 311.614C273.018 313.096 274.5 316.976 275.17 321.28C275.911 326.008 275.876 330.77 275.241 335.568C275.029 337.12 276.193 338.743 274.641 340.401C277.781 340.19 280.603 339.696 283.355 340.507C284.096 340.507 287.024 340.754 287.024 340.754H289.881L303.111 292.246C303.287 291.964 303.287 291.647 303.252 291.364ZM283.178 298.173C282.402 297.467 282.579 296.903 282.932 296.197C283.672 296.727 283.531 297.326 283.178 298.173Z" fill="#F7BB92"/>
</svg>
