<svg width="500" height="500" viewBox="0 0 500 500" fill="none" xmlns="http://www.w3.org/2000/svg">
<path d="M292.915 313.12C296.757 314.207 300.754 313.663 304.673 314.168C315.423 315.565 326.211 316.457 336.96 317.622C350.465 319.096 364.008 320.299 377.474 322.356C386.438 323.714 395.364 325.538 404.367 326.78C418.298 328.681 432.191 330.932 446.083 333.105C447.713 333.377 449.11 334.58 450.856 334.114C449.847 343.001 450.468 351.926 450.546 360.813C446.51 361.356 442.513 360.541 438.477 360.347C417.25 359.338 395.984 358.795 374.757 358.562C362.107 358.407 349.533 359.92 336.921 360.58C321.787 361.395 306.653 362.598 291.518 363.607C286.706 363.917 281.894 364.228 277.121 364.538C277.199 364.15 277.276 363.762 277.315 363.374C278.052 362.365 278.557 361.279 278.751 360.037C279.061 359.804 279.217 359.494 279.139 359.105C279.527 357.786 280.42 356.661 280.342 355.186C280.847 354.914 281.041 354.449 281.002 353.867C281.7 351.344 282.864 348.938 283.097 346.299C283.447 346.028 283.447 345.679 283.408 345.329C284.223 342.496 285.076 339.625 285.891 336.792C286.202 336.559 286.357 336.249 286.279 335.822C286.512 334.852 287.211 333.959 286.939 332.834C287.444 332.562 287.638 332.096 287.56 331.553C287.638 331.243 287.676 330.932 287.754 330.622C288.103 330.389 288.181 330.04 288.103 329.69C288.181 329.38 288.22 329.069 288.297 328.759C288.647 328.487 288.647 328.138 288.53 327.789C288.879 325.538 290.005 323.443 290.082 321.114C290.432 320.881 290.548 320.571 290.47 320.183C291.635 317.932 291.402 315.216 292.915 313.12Z" fill="#696C65"/>
<path d="M49.0957 334.075C52.1614 333.532 55.2659 333.027 58.3316 332.445C74.3197 329.418 90.5795 327.982 106.568 324.994C121.392 322.2 136.41 320.532 151.234 317.776C161.634 315.875 172.267 315.332 182.783 314.284C186.702 313.896 190.544 312.848 194.541 313.546C195.123 313.663 195.628 313.43 196.055 313.042C197.219 318.009 198.111 323.093 199.547 327.982C203.04 339.702 205.135 351.732 207.929 363.606C200.673 362.481 193.299 362.132 186.004 361.472C172.15 360.23 158.296 359.26 144.442 357.863C131.248 356.544 118.093 357.514 104.938 358.445C90.5019 359.454 76.1048 360.463 61.6689 361.433C57.5554 361.705 53.442 361.317 49.3673 360.89C49.4838 351.887 50.0271 342.962 49.0957 334.075Z" fill="#696C65"/>
<path d="M207.968 363.567C205.174 351.693 203.079 339.663 199.586 327.943C198.15 323.054 197.258 318.009 196.094 313.003C193.998 304.31 191.786 295.657 189.807 286.925C188.255 280.095 186.625 273.265 185.538 266.358C184.529 259.838 183.908 253.125 185.577 246.606C188.565 234.77 195.628 228.289 208.046 225.301C209.87 224.874 211.732 224.641 213.595 224.292C211.034 230.268 209.637 236.361 210.918 242.919C211.383 245.325 211.577 247.77 211.849 250.176C211.732 250.641 211.577 251.068 211.461 251.534C210.219 256.773 212.121 261.701 212.935 266.707C214.1 273.886 216.622 280.755 218.097 287.895C219.921 296.86 221.9 305.824 224.306 314.672C224.267 314.982 224.15 315.292 224.189 315.603C224.655 321.075 224.927 326.546 226.246 331.902C226.634 333.376 226.867 334.657 225.043 335.433C224.034 335.86 223.335 336.752 223.064 337.916C222.327 340.788 221.628 343.699 222.365 346.648C222.715 348.045 222.715 349.442 222.715 350.878C222.715 354.564 222.753 358.212 222.715 361.899C222.676 364.382 224.5 363.723 225.897 363.878C227.371 364.033 228.031 363.529 227.992 361.899C227.915 357.32 228.147 352.74 227.915 348.161C227.488 339.003 229.467 340.206 236.801 340.09C238.082 340.09 238.392 340.672 238.392 341.836C238.353 349.325 238.78 356.776 239.362 364.227C230.127 365.624 220.852 364.072 211.616 364.227C210.413 364.266 209.21 363.8 207.968 363.567Z" fill="#F4BA92"/>
<path d="M284.921 268.376C284.145 268.376 283.369 268.376 282.632 268.415C279.256 265.427 276.5 261.896 274.172 258.054C273.629 257.122 273.357 255.919 271.96 255.881C271.65 255.221 270.718 255.143 270.602 254.367C270.835 254.367 271.106 254.29 271.3 254.367C272.27 254.639 273.357 255.143 274.172 254.251C275.064 253.281 274.211 252.349 273.861 251.418C272.193 246.528 270.136 241.755 268.584 236.788C267.109 231.976 265.324 227.28 264.005 222.43C263.5 220.606 262.375 219.791 260.241 220.295C258.261 220.761 256.321 221.382 254.264 221.576C250.306 221.964 246.736 220.645 243.282 219.286C239.324 217.695 235.676 215.251 234.163 210.904C233.542 209.119 232.611 209.391 231.369 209.74C229.855 210.167 229.584 211.215 230.166 212.495C231.912 216.221 233.969 219.636 237.539 222.08C242.972 225.845 248.909 227.125 255.39 226.776C258.882 226.582 259.658 227.397 260.279 231.006C259.27 230.928 259.115 230.036 258.766 229.376C258.378 228.6 257.912 227.979 256.981 228.173C253.411 228.949 249.957 227.979 246.581 227.164C240.488 225.651 235.133 222.857 231.563 217.385C230.554 215.833 230.088 214.086 229.079 212.573C228.769 212.107 228.769 211.525 227.954 211.913C224.112 213.737 220.542 215.91 218.058 219.442C217.204 220.645 216.739 222.158 215.846 223.361C213.906 225.961 212.897 228.949 212.431 232.015C211.772 236.245 211.849 240.552 212.392 244.782C212.819 248.352 213.207 252.039 215.381 255.066C216.622 256.812 217.398 258.597 217.437 260.693C216.894 260.421 216.778 259.878 216.545 259.373C215.031 256.307 213.479 253.242 211.927 250.176C211.616 247.77 211.422 245.325 210.995 242.919C209.754 236.4 211.151 230.269 213.673 224.292C214.915 221.925 216.04 219.48 217.67 217.307C220.464 213.582 224.539 211.797 228.575 210.012C231.873 208.576 234.784 207.101 236.879 203.803C239.169 200.194 243.166 198.409 246.969 196.585C247.861 196.74 248.676 196.468 249.297 195.847C249.763 195.77 250.229 195.653 250.733 195.576C251.237 195.925 251.626 195.731 251.936 195.265C255.894 194.761 259.775 195.032 263.655 195.847C264.354 196.507 265.091 196.779 266.023 196.468C269.321 197.477 272.309 199.185 275.336 200.776C275.491 201.319 275.802 201.552 276.384 201.436C276.5 201.513 276.656 201.591 276.772 201.668C276.888 202.212 277.199 202.483 277.781 202.406C279.566 204.152 281.235 206.053 282.67 208.149C282.515 208.692 282.787 209.042 283.291 209.197C283.602 209.779 283.873 210.361 284.184 210.943C284.029 211.874 284.378 212.534 285.115 213.039C285.581 214.397 286.085 215.755 286.551 217.113C286.357 217.54 286.396 217.851 286.862 218.045C287.366 220.101 288.297 222.08 288.491 224.254C288.414 225.107 288.22 225.961 288.336 226.815C289.112 233.8 288.53 240.785 287.754 247.731C287.211 252.388 286.202 257.045 286.396 261.779C286.357 262.555 286.357 263.331 286.318 264.107C285.465 265.427 286.202 267.212 284.921 268.376Z" fill="#7A4821"/>
<path d="M49.0957 334.075C50.027 342.961 49.4837 351.887 49.4061 360.812C45.1374 361.355 40.83 360.967 36.6777 360.269C30.8568 359.299 27.4806 354.72 25.4239 349.714C23.0567 343.893 22.2806 337.567 21.4657 331.281C21 327.594 21 323.869 21 320.182C21 317.116 22.009 315.603 24.5702 314.672C27.597 313.546 29.8478 314.09 31.9045 316.107C37.8419 321.928 43.4688 327.982 49.0957 334.075Z" fill="#F7BB92"/>
<path d="M450.585 360.813C450.546 351.926 449.925 343.001 450.895 334.114C456.095 328.177 461.645 322.589 467.194 317.001C469.367 314.789 471.463 313.625 474.412 314.401C477.555 315.177 478.991 317.117 479.069 320.377C479.263 328.72 477.633 336.792 476.042 344.941C474.955 350.684 471.695 354.759 467.582 358.485C466.301 359.649 464.671 360.192 463.042 360.308C458.928 360.619 454.776 361.356 450.585 360.813Z" fill="#F7BB92"/>
<path d="M255.04 331.553C255.04 331.863 255.04 332.174 255.04 332.484C254.264 333.881 255.622 334.386 256.32 334.657C257.679 335.201 258.455 336.132 259.153 337.335C260.861 340.323 261.753 343.505 261.714 346.959C261.676 350.801 261.714 354.681 261.714 358.523C261.714 364.267 261.714 364.267 256.01 364.305C255.622 364.267 255.234 364.189 255.04 363.801C255.583 359.649 253.837 355.496 255.117 351.344C255.661 349.637 255.699 347.89 255.505 346.183C255.117 342.458 254.341 340.052 250.81 339.586C249.684 339.586 248.598 339.586 247.473 339.586C246.735 339.741 245.959 340.052 245.222 340.013C243.281 339.858 243.049 340.944 243.204 342.458C243.243 343.583 243.01 344.747 243.67 345.795C243.359 351.189 244.562 356.544 244.174 361.938C244.174 362.676 244.135 363.452 244.135 364.189C242.583 364.189 240.992 364.189 239.44 364.228C238.858 356.777 238.431 349.326 238.469 341.837C238.469 340.672 238.159 340.09 236.878 340.09C229.544 340.207 227.565 339.004 227.992 348.162C228.225 352.741 227.953 357.32 228.069 361.899C228.108 363.529 227.449 363.995 225.974 363.879C224.577 363.723 222.753 364.383 222.792 361.899C222.831 358.213 222.792 354.565 222.792 350.878C222.792 349.481 222.792 348.084 222.443 346.649C221.705 343.699 222.404 340.789 223.141 337.917C223.451 336.753 224.111 335.86 225.12 335.434C226.905 334.657 226.672 333.416 226.323 331.902C224.965 326.547 224.732 321.075 224.266 315.604C224.228 315.293 224.344 314.983 224.383 314.672C225.275 314.75 226.168 314.789 227.06 314.866C228.341 320.765 229.622 326.625 230.902 332.523C231.135 333.687 231.989 333.493 232.726 333.493C237.849 333.493 242.971 333.455 248.093 333.532C249.413 333.532 249.684 333.028 249.956 331.786C250.655 328.487 251.159 325.189 252.013 321.89C252.673 319.329 254.031 316.923 254.147 314.207C254.846 314.051 255.583 313.857 256.282 313.702C257.096 315.759 257.058 317.816 256.708 319.95C256.01 323.792 255.583 327.672 255.04 331.553Z" fill="#DDA882"/>
<path d="M247.434 339.624C248.56 339.624 249.646 339.624 250.772 339.624C250.849 339.934 250.849 340.4 251.043 340.478C254.148 342.185 254.303 345.135 254.032 348.045C253.605 352.663 253.643 357.32 253.605 361.938C253.605 362.947 253.566 363.917 255.002 363.8C255.235 364.188 255.584 364.266 255.972 364.305C255.972 364.46 255.972 364.615 255.972 364.77C252.014 364.809 248.017 364.654 244.097 364.15C244.097 363.412 244.136 362.636 244.136 361.899C245.339 361.976 245.649 361.356 245.494 360.308C244.912 356.194 244.796 352.081 244.951 347.967C244.99 347.152 244.912 345.988 243.631 345.794C242.972 344.746 243.205 343.582 243.166 342.457C244.33 341.952 245.106 340.749 246.62 340.866C247.202 340.943 247.396 340.245 247.434 339.624Z" fill="#F7BB92"/>
<path d="M255.971 364.809C255.971 364.654 255.971 364.499 255.971 364.344C261.676 364.305 261.676 364.305 261.676 358.561C261.676 354.72 261.637 350.839 261.676 346.997C261.715 343.543 260.822 340.361 259.115 337.373C258.416 336.17 257.64 335.278 256.282 334.696C255.545 334.424 254.225 333.919 255.001 332.522C260.201 334.152 261.831 338.421 262.568 343.155C263.383 348.355 263.345 353.594 262.646 358.872C262.413 360.579 263.694 362.364 261.986 364.188C265.44 363.955 268.545 363.412 271.572 364.305C266.41 364.809 261.249 365.702 255.971 364.809Z" fill="#F4BA92"/>
<path d="M286.356 261.779C286.162 257.044 287.171 252.426 287.715 247.731C288.491 240.784 289.073 233.838 288.297 226.814C288.219 225.96 288.413 225.107 288.452 224.253C289.616 224.719 289.034 225.728 289.15 226.543C289.306 227.862 288.879 229.259 289.694 230.462C289.849 233.799 290.276 237.214 290.315 240.474C290.392 244.277 290.392 248.39 289.034 252.193C288.568 253.513 288.568 254.91 287.637 256.152C286.939 257.122 287.249 258.402 287.598 259.567C287.986 260.731 287.753 261.623 286.356 261.779Z" fill="#F4BA92"/>
<path d="M249.297 195.847C248.637 196.507 247.861 196.74 246.969 196.584C247.512 195.653 248.249 195.265 249.297 195.847Z" fill="#F4BA92"/>
<path d="M266.022 196.507C265.091 196.817 264.315 196.546 263.655 195.886C264.625 195.226 265.363 195.731 266.022 196.507Z" fill="#F4BA92"/>
<path d="M285.076 213.078C284.339 212.573 283.989 211.914 284.145 210.982C285.154 211.37 285.425 212.069 285.076 213.078Z" fill="#F4BA92"/>
<path d="M295.98 233.761C295.049 233.8 294.544 233.373 294.467 232.441C295.321 232.441 295.747 232.985 295.98 233.761Z" fill="#F4BA92"/>
<path d="M292.721 231.821C292.139 231.898 291.673 231.782 291.596 231.083C292.217 230.967 292.527 231.355 292.721 231.821Z" fill="#F4BA92"/>
<path d="M286.823 218.084C286.357 217.89 286.318 217.579 286.512 217.152C287.211 217.269 287.405 217.54 286.823 218.084Z" fill="#F4BA92"/>
<path d="M283.29 209.236C282.786 209.081 282.514 208.732 282.67 208.188C283.368 208.227 283.562 208.615 283.29 209.236Z" fill="#F4BA92"/>
<path d="M277.78 202.444C277.198 202.522 276.888 202.25 276.771 201.707C277.431 201.474 277.78 201.707 277.78 202.444Z" fill="#F4BA92"/>
<path d="M276.384 201.474C275.802 201.591 275.491 201.358 275.336 200.815C275.957 200.504 276.306 200.737 276.384 201.474Z" fill="#F4BA92"/>
<path d="M251.896 195.265C251.586 195.692 251.198 195.886 250.693 195.576C251.004 194.916 251.392 194.838 251.896 195.265Z" fill="#F4BA92"/>
<path d="M290.121 321.114C289.462 320.454 289.927 320.299 290.509 320.183C290.587 320.571 290.47 320.881 290.121 321.114Z" fill="#F4BA92"/>
<path d="M288.336 328.758C287.56 328.215 287.87 327.943 288.569 327.788C288.724 328.137 288.685 328.487 288.336 328.758Z" fill="#F4BA92"/>
<path d="M287.792 330.621C287.094 330 287.52 329.806 288.141 329.689C288.219 330.039 288.141 330.388 287.792 330.621Z" fill="#F4BA92"/>
<path d="M286.977 332.871C286.822 332.289 286.861 331.746 287.598 331.591C287.676 332.134 287.482 332.561 286.977 332.871Z" fill="#F4BA92"/>
<path d="M285.891 336.791C285.153 336.093 285.658 335.938 286.279 335.821C286.356 336.248 286.201 336.559 285.891 336.791Z" fill="#F4BA92"/>
<path d="M283.136 346.298C282.36 345.716 282.748 345.483 283.447 345.328C283.486 345.716 283.447 346.065 283.136 346.298Z" fill="#F4BA92"/>
<path d="M280.381 355.186C280.187 354.565 280.264 354.021 281.041 353.866C281.079 354.448 280.885 354.914 280.381 355.186Z" fill="#F4BA92"/>
<path d="M278.751 360.037C278.052 359.377 278.557 359.222 279.139 359.105C279.216 359.494 279.1 359.804 278.751 360.037Z" fill="#F4BA92"/>
<path d="M256.244 313.663C255.545 313.819 254.808 314.013 254.11 314.168C245.029 313.12 236.026 313.159 227.023 314.828C226.13 314.75 225.238 314.711 224.345 314.634C221.939 305.786 219.96 296.822 218.136 287.857C216.662 280.717 214.178 273.848 212.975 266.669C212.16 261.663 210.259 256.696 211.5 251.496C211.617 251.03 211.772 250.565 211.888 250.138C213.441 253.203 214.993 256.269 216.506 259.335C216.739 259.839 216.856 260.383 217.399 260.654L217.477 260.848C218.175 262.323 218.835 263.836 220.426 264.612C220.62 266.126 221.745 266.902 222.832 267.678C225.587 269.618 228.614 270.86 231.835 271.792C233.387 272.257 234.978 272.568 236.142 274.042C239.363 278.195 241.653 278.156 244.874 273.887C245.611 272.878 246.465 271.986 247.668 271.83C250.733 271.365 253.295 269.851 255.972 268.454C257.175 267.833 258.262 267.018 258.65 265.621C261.832 263.875 263.54 260.809 265.596 258.054L265.557 258.093C267.11 257.744 267.886 256.58 268.39 255.182C269.05 254.872 269.438 254.174 270.214 254.135C270.292 254.29 270.408 254.368 270.563 254.329C270.719 255.105 271.65 255.183 271.922 255.842C271.611 256.541 271.068 257.162 271.146 257.977C270.641 259.18 270.137 260.383 270.175 261.741C269.787 261.974 269.749 262.323 269.865 262.711C269.787 263.177 269.671 263.603 269.593 264.069C269.166 264.496 269.089 265 269.166 265.583C268.778 266.126 268.623 266.747 268.701 267.445C268.351 267.717 268.274 268.027 268.429 268.454C268.351 268.765 268.313 269.075 268.235 269.347C267.187 271.636 266.76 274.042 266.372 276.526C265.907 278.078 265.325 279.553 265.325 281.221C264.975 281.493 264.937 281.842 265.053 282.23C264.975 282.696 264.898 283.123 264.82 283.589C264.471 283.86 264.432 284.21 264.548 284.598C264.16 286.15 263.462 287.624 263.462 289.293C262.647 290.807 262.298 292.436 262.104 294.105C261.716 294.648 261.483 295.269 261.56 295.968C261.211 296.239 261.134 296.55 261.211 296.977C260.551 298.296 260.241 299.732 260.047 301.168C259.698 301.439 259.62 301.789 259.698 302.216C259.232 303.263 258.766 304.311 258.766 305.514C257.835 307.299 257.331 309.24 256.981 311.219C256.826 311.801 256.671 312.383 256.516 313.004C256.438 313.159 256.36 313.431 256.244 313.663Z" fill="#8A8AD9"/>
<path d="M271.145 257.976C271.106 257.161 271.61 256.54 271.921 255.842C273.318 255.881 273.589 257.084 274.133 258.015C276.461 261.896 279.216 265.388 282.593 268.376C281.118 269.851 279.954 269.657 279.255 267.678C278.906 266.669 277.975 266.319 277.392 265.621C275.957 263.875 274.288 262.322 273.318 260.149C272.969 259.257 272.542 258.015 271.145 257.976Z" fill="#F4BA92"/>
<path d="M256.243 313.663C256.359 313.43 256.437 313.159 256.553 312.926C259.348 314.594 258.455 317.388 258.261 319.717C257.95 323.248 257.058 326.741 256.437 330.272C256.282 331.087 255.816 331.514 255.04 331.553C255.583 327.672 256.01 323.753 256.67 319.911C257.058 317.738 257.097 315.72 256.243 313.663Z" fill="#F4BA92"/>
<path d="M284.921 268.376C286.24 267.251 285.464 265.427 286.279 264.146C287.133 264.845 287.094 265.97 287.249 266.902C287.482 268.415 286.473 268.997 284.921 268.376Z" fill="#F4BA92"/>
<path d="M266.371 276.526C266.72 274.081 267.186 271.636 268.234 269.347C268.893 271.171 267.846 275.323 266.371 276.526Z" fill="#F4BA92"/>
<path d="M257.019 311.141C257.329 309.162 257.872 307.222 258.804 305.437C259.347 307.687 258.881 309.628 257.019 311.141Z" fill="#F4BA92"/>
<path d="M262.104 294.066C262.259 292.397 262.647 290.767 263.462 289.254C263.85 291.117 264.005 292.863 262.104 294.066Z" fill="#F4BA92"/>
<path d="M271.338 317.738C270.485 316.961 270.679 316.341 271.067 315.564C271.882 316.147 271.726 316.806 271.338 317.738Z" fill="#F4BA92"/>
<path d="M269.165 265.583C269.088 265.001 269.165 264.496 269.592 264.069C270.562 264.884 270.329 265.389 269.165 265.583Z" fill="#F4BA92"/>
<path d="M261.249 296.899C261.132 296.511 261.249 296.161 261.598 295.89C262.413 296.549 261.947 296.782 261.249 296.899Z" fill="#F4BA92"/>
<path d="M259.735 302.138C259.657 301.711 259.735 301.361 260.084 301.09C261.015 301.788 260.511 302.021 259.735 302.138Z" fill="#F4BA92"/>
<path d="M269.864 262.749C269.748 262.361 269.787 262.012 270.175 261.779C270.951 262.361 270.563 262.594 269.864 262.749Z" fill="#F4BA92"/>
<path d="M265.09 282.192C264.974 281.804 265.013 281.454 265.362 281.183C266.216 281.765 265.828 282.036 265.09 282.192Z" fill="#F4BA92"/>
<path d="M264.547 284.558C264.431 284.17 264.509 283.82 264.819 283.549C265.712 284.17 265.324 284.441 264.547 284.558Z" fill="#F4BA92"/>
<path d="M268.428 268.454C268.273 268.066 268.35 267.717 268.699 267.445C269.476 268.027 269.165 268.299 268.428 268.454Z" fill="#F4BA92"/>
<path d="M217.476 260.847L217.399 260.653C217.36 258.558 216.584 256.734 215.342 255.027C213.169 251.961 212.781 248.313 212.354 244.743C211.81 240.474 211.733 236.167 212.393 231.976C212.897 228.91 213.867 225.922 215.807 223.322C216.7 222.119 217.166 220.644 218.019 219.402C220.503 215.871 224.073 213.659 227.915 211.874C228.769 211.486 228.73 212.068 229.04 212.534C230.049 214.047 230.515 215.794 231.524 217.346C235.094 222.856 240.449 225.65 246.542 227.125C249.918 227.979 253.372 228.91 256.942 228.134C257.873 227.94 258.339 228.561 258.727 229.337C259.076 229.997 259.193 230.889 260.241 230.967C260.629 231.161 260.706 231.549 260.706 231.937C260.008 232.674 260.59 232.791 261.172 232.868C261.987 235.041 262.841 237.253 263.655 239.426C265.441 244.006 267.653 248.429 268.778 253.28C268.467 253.901 268.196 254.522 268.312 255.221C266.76 255.609 265.79 256.501 265.479 258.131L265.518 258.092C264.315 257.898 263.655 258.558 263.073 259.528C260.085 264.379 258.572 264.65 253.954 261.313C253.449 260.925 253.023 260.459 252.518 260.071C250.073 258.247 247.629 256.074 244.718 255.376C241.497 254.6 238.043 254.483 234.628 254.716C233.775 254.755 233.115 254.988 232.533 255.609C229.933 258.364 226.557 260.149 223.569 262.322C222.094 263.409 220.076 264.185 218.834 261.662C218.563 261.042 218.058 260.847 217.476 260.847Z" fill="#7A4821"/>
<path d="M260.706 231.898C260.706 231.51 260.629 231.161 260.241 230.928C259.62 227.319 258.844 226.504 255.351 226.698C248.87 227.009 242.933 225.728 237.5 222.003C233.969 219.558 231.912 216.143 230.127 212.417C229.545 211.137 229.778 210.089 231.33 209.662C232.572 209.313 233.503 209.041 234.124 210.826C235.637 215.173 239.246 217.617 243.243 219.209C246.697 220.567 250.306 221.886 254.226 221.498C256.282 221.304 258.223 220.644 260.202 220.217C262.336 219.713 263.461 220.528 263.966 222.352C265.285 227.203 267.07 231.937 268.545 236.71C270.097 241.677 272.154 246.45 273.823 251.34C274.133 252.271 274.987 253.203 274.133 254.173C273.318 255.065 272.232 254.6 271.262 254.289C271.029 254.212 270.796 254.289 270.563 254.289C270.408 254.328 270.291 254.251 270.214 254.095C270.175 253.125 269.476 253.242 268.856 253.164C267.73 248.352 265.518 243.889 263.733 239.31C262.879 237.137 262.064 234.964 261.25 232.752C261.211 232.441 261.094 232.092 260.706 231.898Z" fill="#5C3718"/>
<path d="M227.022 314.827C236.025 313.159 245.067 313.12 254.109 314.168C253.954 316.884 252.635 319.251 251.975 321.851C251.121 325.111 250.617 328.448 249.918 331.747C249.646 332.989 249.375 333.493 248.055 333.493C242.933 333.454 237.811 333.493 232.688 333.454C231.951 333.454 231.097 333.648 230.864 332.484C229.584 326.624 228.303 320.726 227.022 314.827Z" fill="#F7BB92"/>
<path d="M255.001 363.839C253.566 363.956 253.604 362.986 253.604 361.977C253.643 357.359 253.604 352.702 254.031 348.084C254.303 345.174 254.148 342.224 251.043 340.517C250.849 340.4 250.849 339.935 250.771 339.663C254.303 340.129 255.079 342.496 255.467 346.26C255.661 347.968 255.583 349.714 255.079 351.421C253.798 355.535 255.583 359.687 255.001 363.839Z" fill="#F4B990"/>
<path d="M243.631 345.795C244.911 346.028 244.989 347.192 244.95 347.968C244.834 352.12 244.911 356.195 245.493 360.308C245.648 361.356 245.299 362.016 244.135 361.899C244.562 356.544 243.32 351.189 243.631 345.795Z" fill="#F4B990"/>
<path d="M247.434 339.624C247.395 340.206 247.162 340.905 246.619 340.866C245.105 340.749 244.329 341.952 243.165 342.457C242.971 340.943 243.204 339.857 245.183 340.012C245.92 340.129 246.696 339.779 247.434 339.624Z" fill="#F4B990"/>
<path d="M258.61 265.621C258.183 267.018 257.135 267.833 255.932 268.454C253.255 269.812 250.693 271.365 247.628 271.83C246.463 271.986 245.61 272.878 244.834 273.887C241.652 278.156 239.323 278.195 236.102 274.042C234.977 272.568 233.386 272.257 231.795 271.791C228.574 270.86 225.508 269.618 222.792 267.678C221.705 266.902 220.58 266.126 220.386 264.612C224.383 263.409 227.914 261.43 230.98 258.636C233.037 256.774 235.21 255.415 238.159 256.191C239.711 256.618 241.302 256.618 242.855 256.541C244.407 256.502 245.804 256.929 247.046 257.86C250.81 260.615 254.535 263.409 258.61 265.621Z" fill="#F7BB92"/>
<path d="M258.61 265.621C254.535 263.409 250.81 260.615 247.085 257.86C245.843 256.929 244.446 256.502 242.894 256.541C241.341 256.579 239.75 256.579 238.198 256.191C235.249 255.415 233.076 256.735 231.019 258.636C227.953 261.43 224.422 263.448 220.425 264.612C218.834 263.836 218.174 262.323 217.476 260.848C218.058 260.848 218.601 261.042 218.873 261.585C220.114 264.108 222.132 263.332 223.607 262.245C226.634 260.033 230.01 258.287 232.571 255.532C233.153 254.911 233.813 254.678 234.667 254.639C238.082 254.406 241.535 254.562 244.756 255.299C247.667 255.997 250.073 258.17 252.556 259.994C253.061 260.382 253.488 260.848 253.992 261.236C258.61 264.573 260.124 264.302 263.112 259.451C263.694 258.481 264.353 257.821 265.556 258.015C263.461 260.77 261.792 263.875 258.61 265.621Z" fill="#7B4923"/>
<path d="M265.518 258.054C265.828 256.463 266.798 255.532 268.35 255.144C267.846 256.541 267.07 257.705 265.518 258.054Z" fill="#7B4923"/>
<path d="M268.815 253.242C269.436 253.281 270.174 253.203 270.174 254.174C269.398 254.212 268.971 254.911 268.35 255.221C268.233 254.484 268.505 253.824 268.815 253.242Z" fill="#7B4923"/>
<path d="M260.706 231.898C261.094 232.092 261.172 232.442 261.172 232.83C260.59 232.752 260.007 232.636 260.706 231.898Z" fill="#7B4923"/>
<path d="M293.42 310.247C293.42 310.247 306.769 251.456 306.614 251.262C305.877 240.59 299.202 235.08 294.468 232.48V232.441C294.08 232.131 293.691 231.898 293.226 231.82C292.644 231.548 292.1 231.316 291.635 231.122V231.083C291.402 231.005 291.169 230.928 290.936 230.85C290.16 230.578 289.694 230.462 289.694 230.462C289.85 233.799 290.277 237.214 290.315 240.474C290.393 244.277 290.393 248.39 289.035 252.193C288.569 253.513 288.569 254.91 287.638 256.152C286.939 257.122 287.25 258.402 287.599 259.567C287.948 260.731 287.754 261.623 286.318 261.779C286.279 262.555 286.279 263.331 286.241 264.107C287.094 264.805 287.056 265.931 287.211 266.862C287.444 268.414 286.474 268.996 284.882 268.376C284.106 268.376 283.33 268.376 282.593 268.414C281.118 269.889 279.954 269.695 279.256 267.716C278.906 266.707 277.975 266.358 277.393 265.659C276.112 264.107 274.676 262.71 273.667 260.886L274.094 258.053L271.067 255.22L256.476 312.964C259.27 314.633 258.378 317.427 258.184 319.755C257.873 323.286 256.981 326.779 256.36 330.31C256.205 331.125 255.739 331.552 254.963 331.591C254.963 331.901 254.963 332.212 254.963 332.522C260.163 334.152 261.793 338.421 262.53 343.155C263.345 348.355 263.306 353.594 262.608 358.872C262.375 360.579 263.655 362.364 261.948 364.188C265.402 363.955 268.506 363.412 271.533 364.304C272.348 364.304 275.569 364.576 275.569 364.576H278.712L293.265 311.218C293.459 310.907 293.459 310.558 293.42 310.247ZM271.339 317.737C270.485 316.961 270.679 316.34 271.067 315.564C271.882 316.146 271.727 316.806 271.339 317.737Z" fill="#F7BB92"/>
</svg>
