<svg width="500" height="500" viewBox="0 0 500 500" fill="none" xmlns="http://www.w3.org/2000/svg">
<path d="M360.954 368.969C360.149 368.867 359.349 368.769 358.544 368.668C358.173 368.621 357.802 368.551 357.427 368.539C353.159 368.445 349.043 367.356 344.868 366.645C338.105 365.493 331.353 364.279 324.597 363.087C318.763 362.057 312.929 361.022 307.094 359.987C300.276 358.78 293.458 357.589 286.647 356.359C280.879 355.316 275.061 354.52 269.371 353.087C262.576 351.376 255.637 350.56 248.717 349.623C243.648 348.935 238.575 348.279 233.502 347.608C230.164 347.166 226.825 346.729 223.486 346.28C221.506 346.014 219.534 345.718 217.554 345.456C214.832 345.097 212.106 344.78 209.388 344.413C205.433 343.874 201.481 343.316 197.529 342.75C192.714 342.055 187.902 341.34 183.087 340.633C183.025 340.625 182.963 340.621 182.9 340.614C180.537 340.227 180.682 340.457 180.85 338.095C180.944 336.787 180.936 335.486 180.834 334.174C180.729 332.811 180.858 331.433 180.865 330.062C180.869 329.441 180.936 328.812 180.701 328.211C178.538 328.262 176.367 328.207 174.211 328.383C170.63 328.676 167.049 328.59 163.464 328.582C162.582 328.594 161.699 328.605 160.817 328.617C160.371 330.695 160.321 332.819 160.133 334.924C159.903 337.529 159.883 340.153 159.614 342.75C159.438 344.429 159.493 346.12 159.255 347.779C158.856 350.56 158.954 353.372 158.622 356.156C158.372 358.257 158.376 360.385 158.103 362.482C157.915 363.908 157.884 365.337 157.743 366.762C157.532 368.93 157.298 371.093 157.111 373.264C156.927 375.373 156.88 377.497 156.603 379.594C156.408 381.082 156.384 382.574 156.232 384.062C156.033 385.979 155.822 387.897 155.631 389.814C155.502 391.115 155.389 392.415 155.271 393.715C155.225 394.207 155.396 394.571 155.896 394.719C156.193 394.809 156.494 394.883 156.794 394.965C163.456 396.796 170.123 398.616 176.781 400.475C177.929 400.795 179.069 401.053 180.26 401.061C190.316 399.507 200.375 397.98 210.427 396.386C219.303 394.977 228.195 393.645 237.037 392.009C240.907 391.294 244.765 390.529 248.471 389.174C249.045 388.963 249.541 389.029 250.091 389.244C261.498 393.665 273.389 396.23 285.386 398.37C290.919 399.358 296.476 400.182 302.057 400.819C307.083 401.393 312.116 401.846 317.17 402.139C320.29 402.318 323.406 402.424 326.53 402.471C330.908 402.533 335.266 402.275 339.62 401.842C341.92 401.615 344.228 401.522 346.528 401.311C349.449 401.045 352.374 400.791 355.256 400.213C355.807 400.104 356.377 400.03 356.892 399.827C358.056 399.366 359.259 399.085 360.497 398.917C360.239 397.128 360.219 395.332 360.286 393.532C360.325 392.477 360.465 391.431 360.477 390.376C360.544 385.718 360.579 381.063 360.629 376.404C360.637 375.846 360.614 375.279 360.688 374.729C360.954 372.815 360.942 370.894 360.934 368.969H360.954Z" fill="#696D65"/>
<path d="M180.268 401.06C179.077 401.052 177.933 400.795 176.789 400.474C170.134 398.619 163.468 396.8 156.802 394.964C156.502 394.882 156.201 394.808 155.904 394.718C155.404 394.566 155.236 394.207 155.279 393.715C155.4 392.414 155.51 391.11 155.639 389.813C155.83 387.896 156.041 385.979 156.24 384.061C156.392 382.577 156.416 381.082 156.611 379.594C156.888 377.497 156.935 375.372 157.119 373.263C157.306 371.096 157.54 368.929 157.751 366.761C157.892 365.336 157.923 363.907 158.111 362.481C158.384 360.384 158.38 358.256 158.63 356.155C158.962 353.371 158.864 350.559 159.263 347.779C159.501 346.119 159.446 344.428 159.622 342.749C159.895 340.152 159.911 337.524 160.141 334.923C160.329 332.818 160.379 330.694 160.825 328.616C160.852 327.496 160.739 326.351 160.946 325.266C161.11 324.399 161.188 323.551 161.215 322.684C161.227 322.251 161.188 321.786 161.328 321.392C161.59 320.662 161.571 319.927 161.586 319.182C161.594 318.811 161.551 318.404 161.68 318.073C161.988 317.288 161.941 316.487 161.961 315.679C161.969 315.37 161.945 315.042 162.035 314.753C162.605 312.89 162.348 310.942 162.633 309.04C162.887 307.345 163.3 305.623 163.105 303.866C163.086 303.69 163.14 303.487 163.211 303.323C163.496 302.671 163.433 301.983 163.457 301.3C163.476 300.742 163.429 300.156 163.586 299.637C163.789 298.961 163.82 298.297 163.828 297.61C163.832 297.239 163.773 296.833 163.894 296.497C164.296 295.407 164.187 294.287 164.199 293.174C164.203 292.486 164.187 291.803 164.558 291.182C164.601 290.065 164.656 288.952 164.812 287.835C165.077 285.93 165.163 283.997 165.327 282.079C165.48 280.283 165.601 278.483 165.792 276.69C165.964 275.085 166.221 273.492 166.417 271.887C166.561 270.715 166.772 269.54 166.78 268.364C166.792 266.548 167.147 264.776 167.354 262.987C167.475 261.94 167.51 260.882 167.705 259.839C167.881 258.906 168.256 258.328 169.26 258.016C170.943 257.493 172.431 256.512 173.61 255.204C176.508 251.994 178.066 248.152 178.394 243.883C178.776 238.939 178.222 234.066 176.648 229.333C176.195 227.978 175.801 226.603 175.379 225.236C174.746 223.909 174.118 222.581 173.477 221.257C171.161 216.458 168.479 211.877 165.335 207.57C164.191 206.613 163.078 205.613 161.895 204.707C159.259 202.688 156.193 201.997 152.94 202.04C152.015 202.052 151.074 202.192 150.168 202.391C148.527 202.751 146.856 203.059 145.454 204.086C143.38 205.613 141.619 207.445 140.124 209.546C138.464 211.877 137.605 214.536 136.836 217.239C135.555 221.749 135 226.384 134.656 231.039C134.344 235.272 134.715 239.506 135.024 243.735C135.043 243.981 135.129 244.223 135.176 244.465C135.781 247.652 136.191 250.858 136.09 254.115C136.035 255.86 136.039 257.61 136.078 259.355C136.179 264.034 135.769 268.696 135.734 273.371C135.699 278.174 135.715 282.977 135.711 287.777C135.711 289.647 135.711 291.518 135.723 293.388C135.723 293.884 135.644 294.423 135.805 294.872C136.148 295.849 136.082 296.84 136.082 297.832C136.086 307.622 136.086 317.416 136.086 327.207C136.086 327.831 136.062 328.452 136.051 329.077C136.066 337.364 136.082 345.654 136.105 353.941C136.105 354.812 136.058 355.702 136.222 356.55C136.426 357.608 136.402 358.654 136.41 359.713C136.461 366.937 136.152 374.158 136.043 381.382C136.027 382.503 136.015 383.624 136 384.748C135.992 385.182 136.027 385.627 135.734 386.002C135.719 389.435 135.633 392.871 135.711 396.304C135.812 400.791 136.851 405.063 139.015 409.026C139.522 409.96 140.124 410.827 140.905 411.569C141.619 412.248 142.428 412.635 143.423 412.615C143.986 412.604 144.548 412.615 145.11 412.615C153.35 412.588 161.598 412.658 169.834 412.479C173.071 412.408 176.312 412.326 179.554 412.186C180.631 412.139 181.651 411.901 182.42 411.034C182.767 410.643 182.998 410.225 182.99 409.694C182.971 407.82 182.994 405.945 182.916 404.075C182.865 402.946 182.373 402.025 181.166 401.697C180.78 401.591 180.522 401.333 180.26 401.064L180.268 401.06Z" fill="#FFB78A"/>
<path d="M189.992 145.642C187.457 137.371 181.865 131.876 174.09 128.553C164.409 124.417 154.658 124.749 144.958 128.635C144.15 128.959 143.38 129.396 142.463 129.291C142.451 129.717 142.166 129.924 141.849 130.154C140.748 130.955 139.581 131.697 138.6 132.63C136.441 134.684 134.211 136.683 132.497 139.155C131.93 139.968 131.458 140.846 130.946 141.698C129.634 143.888 128.451 146.138 127.732 148.606C127.475 149.5 127.209 150.39 126.959 151.285C126.428 153.198 126.182 155.17 126.026 157.131C125.897 158.782 125.995 160.45 126.28 162.133C126.678 164.484 127.248 166.753 128.365 168.846C129.099 170.22 129.173 171.544 128.584 172.95C128.943 172.864 129.131 173.099 129.365 173.321C132.001 175.875 134.648 178.413 137.292 180.956C137.472 180.901 137.663 180.87 137.823 180.788C144.743 177.211 151.659 173.634 158.571 170.049C159.235 169.705 159.895 169.346 160.52 168.94C161.652 168.205 162.472 167.221 162.812 165.874C162.98 165.21 163.222 164.566 163.449 163.921C164.886 159.825 167.198 156.338 170.689 153.706C173.52 151.574 176.718 150.207 180.17 149.48C182.744 148.941 185.235 148.196 187.641 147.137C188.266 146.864 188.922 146.661 189.566 146.427C189.707 146.169 189.847 145.911 189.988 145.653L189.992 145.642Z" fill="#824414"/>
<path d="M189.567 146.42C188.926 146.654 188.266 146.853 187.641 147.131C185.236 148.189 182.744 148.935 180.171 149.474C176.719 150.2 173.52 151.567 170.689 153.699C167.194 156.331 164.882 159.818 163.449 163.915C163.223 164.563 162.981 165.207 162.813 165.867C162.473 167.219 161.657 168.199 160.52 168.933C159.895 169.339 159.236 169.698 158.572 170.042C151.66 173.627 144.74 177.204 137.824 180.781C137.66 180.867 137.468 180.894 137.293 180.949C137.281 182.007 137.273 183.065 137.258 184.124C137.187 189.716 136.719 195.3 136.773 200.9C136.789 202.251 136.48 203.614 136.516 204.981C136.527 205.477 136.559 205.973 136.582 206.469C136.844 206.207 137.144 205.973 137.367 205.676C139.316 203.087 141.799 201.173 144.669 199.701C146.517 198.752 148.465 198.635 150.465 198.737C150.957 198.76 151.445 198.916 151.941 198.948C154.085 199.076 156.127 199.639 158.029 200.584C161.141 202.126 163.773 204.274 165.734 207.187C166.593 207.66 166.913 208.578 167.456 209.304C167.753 209.698 167.956 210.155 168.491 210.276C168.787 208.874 169.053 207.476 169.108 206.035C169.139 205.11 169.33 204.184 169.451 203.263C169.822 200.428 170.182 197.593 170.58 194.765C170.638 194.347 170.822 193.93 171.021 193.547C171.33 192.961 171.837 192.598 172.525 192.606C174.02 192.625 175.532 192.535 177.008 192.727C178.882 192.969 180.71 193.008 182.569 192.629C184.759 192.184 186.474 191.055 187.774 189.275C188.625 188.115 189.297 186.85 189.742 185.471C189.953 184.819 190.18 184.175 190.394 183.522C191.164 181.175 192.417 179.133 194.143 177.356C195.803 175.65 197.603 174.127 199.607 172.846C200.352 172.369 201.016 171.811 201.59 171.151C202.707 169.866 202.699 168.757 201.524 167.511C200.798 166.742 200.013 166.024 199.204 165.344C196.568 163.126 194.253 160.627 192.296 157.784C190.722 155.495 189.977 152.992 190.039 150.223C190.066 148.978 190.027 147.732 190.016 146.482C189.867 146.459 189.715 146.439 189.567 146.416V146.42Z" fill="#FFB78A"/>
<path d="M360.954 368.968C360.962 370.893 360.974 372.815 360.708 374.728C360.63 375.279 360.653 375.845 360.649 376.404C360.599 381.062 360.564 385.721 360.497 390.376C360.482 391.427 360.345 392.477 360.306 393.531C360.239 395.332 360.259 397.128 360.517 398.917C361.181 399.932 362.29 400.092 363.313 400.151C368.815 400.459 374.286 400.26 379.609 398.643C381.772 397.987 383.752 396.929 385.56 395.566C388.145 393.617 390.153 391.192 391.512 388.244C391.617 388.017 391.761 387.795 391.804 387.557C392.117 385.725 392.609 383.866 392.257 382.023C391.601 378.583 391.219 375.131 391.293 371.628C391.336 369.507 391.172 367.363 391.402 365.266C391.793 361.716 391.648 358.163 391.722 354.613C391.73 354.238 391.719 353.863 391.711 353.488C391.644 348.884 390.723 344.452 388.84 340.25C387.892 338.13 386.618 336.197 384.748 334.744C381.542 332.26 377.988 331.768 374.146 332.924C371.759 333.643 369.979 335.177 368.573 337.134C367.362 338.817 366.663 340.758 366.245 342.8C364.918 349.263 363.57 355.718 362.251 362.181C361.79 364.438 361.388 366.703 360.962 368.968H360.954Z" fill="#FFB78A"/>
<path d="M175.399 225.237C175.82 226.604 176.215 227.978 176.668 229.334C178.242 234.067 178.8 238.936 178.413 243.884C178.081 248.152 176.523 251.999 173.63 255.205C172.446 256.513 170.962 257.493 169.279 258.017C168.276 258.329 167.901 258.907 167.725 259.84C167.53 260.883 167.495 261.945 167.374 262.988C167.167 264.776 166.811 266.549 166.8 268.365C166.792 269.541 166.585 270.716 166.436 271.888C166.237 273.489 165.98 275.086 165.812 276.691C165.62 278.483 165.499 280.284 165.347 282.08C165.183 284.001 165.097 285.93 164.831 287.836C164.675 288.953 164.621 290.062 164.578 291.183C165.277 291.179 165.937 291.3 166.499 291.761C167.542 291.932 168.6 291.944 169.65 292.108C172.044 292.483 174.454 292.737 176.863 292.999C178.78 293.206 180.702 293.35 182.619 293.526C182.928 293.327 183.299 293.178 183.541 292.917C186.142 290.089 188.192 286.95 189.402 283.251C190.137 281.006 191.035 278.823 191.632 276.523C192.542 273.024 192.667 269.486 192.066 265.963C190.785 258.446 188.617 251.179 185.646 244.153C184.529 241.514 183.389 238.885 182.229 236.265C181.143 233.813 179.722 231.532 178.449 229.173C177.589 227.584 176.715 226.006 175.848 224.425C175.504 224.593 175.469 224.925 175.406 225.241L175.399 225.237Z" fill="#8A8ADE"/>
<path d="M135.352 125.914C132.892 124.496 130.189 124.106 127.421 124.223C123.684 124.379 120.376 125.722 117.517 128.151C116.709 128.839 115.909 129.534 115.1 130.221C113.109 131.912 111.691 134.017 110.625 136.375C109.118 139.71 108.461 143.252 107.989 146.857C107.196 152.882 107.966 158.814 108.946 164.73C110.027 171.271 111.886 177.613 114.225 183.811C115.436 187.017 116.486 190.289 118.06 193.351C118.638 194.476 119.353 195.483 120.282 196.334C121.501 197.451 122.77 197.338 123.812 196.03C124.484 195.186 124.922 194.214 125.109 193.156C125.296 192.113 125.46 191.063 125.55 190.008C125.964 185.162 126.343 180.308 126.757 175.462C126.78 175.173 126.98 174.895 127.097 174.614C126.425 174.665 125.917 174.38 125.453 173.904C124.23 172.666 123.031 171.428 122.098 169.924C121.341 168.702 120.684 167.433 120.075 166.148C118.537 162.911 117.939 159.455 117.72 155.901C117.611 154.14 117.927 152.421 118.205 150.727C118.744 147.415 119.661 144.186 121.309 141.218C121.942 140.077 122.578 138.941 123.211 137.801C124.867 134.817 127.241 132.423 129.791 130.248C131.572 128.729 133.556 127.433 135.352 125.91V125.914Z" fill="#824515"/>
<path d="M165.737 207.186C163.777 204.277 161.145 202.125 158.033 200.583C156.131 199.638 154.088 199.075 151.944 198.947C151.452 198.915 150.964 198.763 150.468 198.736C148.469 198.634 146.52 198.755 144.673 199.7C141.803 201.173 139.319 203.086 137.371 205.675C137.148 205.968 136.847 206.202 136.586 206.468C136.371 206.847 136.176 207.241 135.933 207.604C133.387 211.388 131.978 215.637 130.872 220.007C130.08 223.15 129.56 226.341 129.299 229.582C128.955 233.862 128.533 238.142 127.963 242.403C127.725 244.191 127.643 246.003 127.471 247.8C127.284 249.783 127.069 251.763 126.87 253.747C126.85 253.935 126.827 254.118 126.815 254.305C126.655 256.918 126.612 259.546 126.303 262.139C125.929 265.306 126.128 268.493 125.749 271.656C125.593 272.948 125.655 274.272 125.651 275.584C125.636 279.392 125.64 283.196 125.636 287.003C128.494 287.308 131.357 287.608 134.215 287.913C134.719 287.866 135.219 287.823 135.723 287.776C135.73 282.973 135.715 278.17 135.746 273.37C135.777 268.696 136.191 264.033 136.09 259.355C136.051 257.609 136.047 255.86 136.101 254.114C136.203 250.857 135.793 247.651 135.188 244.465C135.141 244.219 135.055 243.98 135.035 243.734C134.723 239.509 134.356 235.272 134.668 231.039C135.012 226.388 135.566 221.749 136.847 217.238C137.617 214.536 138.48 211.873 140.135 209.545C141.631 207.444 143.388 205.613 145.466 204.086C146.864 203.059 148.539 202.75 150.179 202.391C151.085 202.192 152.026 202.051 152.952 202.039C156.205 201.993 159.27 202.688 161.906 204.707C163.09 205.613 164.203 206.612 165.347 207.569C165.476 207.44 165.605 207.311 165.73 207.186H165.737Z" fill="#8B8ADD"/>
<path d="M182.611 293.52C180.69 293.348 178.769 293.2 176.855 292.993C174.446 292.731 172.036 292.477 169.642 292.102C168.592 291.938 167.534 291.927 166.491 291.759C166.397 293.305 166.604 294.867 166.12 296.39C165.995 296.789 166.093 297.257 166.081 297.691C166.073 298.066 166.151 298.472 166.03 298.804C165.62 299.956 165.733 301.139 165.698 302.314C165.69 302.623 165.71 302.959 165.597 303.236C165.277 304.017 165.347 304.825 165.327 305.634C165.316 306.067 165.382 306.54 165.234 306.93C164.913 307.781 164.976 308.644 164.952 309.511C164.941 310.007 165.023 310.546 164.863 310.995C164.562 311.851 164.609 312.71 164.574 313.577C164.554 314.069 164.538 314.58 164.402 315.049C164.242 315.599 164.195 316.15 164.21 316.709C164.253 318.513 163.648 320.266 163.789 322.082C163.796 322.199 163.757 322.332 163.707 322.445C163.414 323.097 163.461 323.785 163.461 324.468C163.461 325.839 163.468 327.209 163.476 328.58C167.061 328.584 170.642 328.674 174.223 328.381C176.375 328.205 178.55 328.26 180.713 328.209C180.924 325.983 181.135 323.753 181.346 321.527C181.358 321.402 181.389 321.278 181.385 321.156C181.291 318.47 181.764 315.814 181.908 313.139C182.065 310.214 182.026 307.274 182.291 304.364C182.623 300.748 182.393 297.132 182.615 293.524L182.611 293.52Z" fill="#FFB78A"/>
<path d="M135.746 385.994C136.039 385.619 136.004 385.178 136.012 384.74C136.027 383.62 136.035 382.499 136.055 381.374C136.168 374.15 136.476 366.929 136.422 359.705C136.414 358.65 136.434 357.6 136.234 356.541C136.074 355.694 136.121 354.804 136.117 353.933C136.094 345.646 136.078 337.356 136.063 329.069C135.656 329.022 135.25 328.967 134.844 328.94C134.493 328.917 134.137 328.948 133.852 328.678C131.669 328.663 129.482 328.632 127.299 328.643C126.269 328.647 125.32 328.452 124.476 327.843C124.363 329.959 124.375 332.088 124.109 334.185C123.652 337.781 123.703 341.397 123.496 345.002C123.18 350.5 123.644 355.956 124.339 361.403C124.816 365.129 125.648 368.757 127.022 372.26C128.19 375.223 129.545 378.094 131.236 380.792C132.466 382.753 133.985 384.483 135.746 385.994Z" fill="#6A6F67"/>
<path d="M135.352 125.913C133.555 127.436 131.575 128.733 129.791 130.252C127.241 132.427 124.866 134.821 123.211 137.804C122.578 138.944 121.942 140.081 121.309 141.221C119.661 144.189 118.743 147.419 118.204 150.73C117.931 152.425 117.611 154.143 117.72 155.904C117.943 159.458 118.536 162.918 120.075 166.151C120.688 167.44 121.34 168.705 122.098 169.928C123.031 171.431 124.23 172.665 125.452 173.907C125.917 174.379 126.425 174.668 127.096 174.618C127.823 174.266 128.256 173.653 128.584 172.946C129.17 171.544 129.1 170.217 128.365 168.842C127.249 166.749 126.678 164.484 126.28 162.129C125.995 160.45 125.893 158.782 126.026 157.127C126.182 155.166 126.428 153.19 126.96 151.281C127.21 150.386 127.471 149.496 127.733 148.602C128.447 146.134 129.635 143.884 130.947 141.694C131.458 140.842 131.931 139.964 132.497 139.151C134.211 136.683 136.441 134.68 138.601 132.626C139.581 131.693 140.749 130.951 141.85 130.15C142.166 129.92 142.451 129.713 142.463 129.287C140.155 128.034 137.804 126.866 135.356 125.909L135.352 125.913Z" fill="#62350F"/>
<path d="M124.476 327.843C125.319 328.452 126.272 328.647 127.299 328.643C129.482 328.631 131.669 328.663 133.852 328.678C133.852 326.991 133.825 325.308 133.868 323.625C133.926 321.391 133.61 319.138 134.203 316.928C134.266 316.693 134.223 316.432 134.223 316.182C134.223 306.759 134.219 297.336 134.215 287.913C131.357 287.608 128.494 287.308 125.636 287.003C125.198 290.849 125.397 294.723 125.163 298.57C124.925 302.491 125.062 306.423 124.765 310.328C124.499 313.815 124.581 317.299 124.452 320.782C124.425 321.466 124.433 322.145 124.277 322.825C124.089 323.617 124.074 324.457 124.249 325.242C124.448 326.109 124.386 326.98 124.476 327.843Z" fill="#FFB78B"/>
<path d="M165.737 207.187C165.608 207.315 165.48 207.444 165.355 207.569C168.498 211.877 171.181 216.457 173.497 221.257C174.137 222.58 174.766 223.908 175.399 225.236C175.461 224.92 175.5 224.588 175.84 224.42C175.117 221.948 173.684 219.827 172.454 217.609C171.462 215.821 170.388 214.079 169.35 212.318C168.971 211.674 168.623 211.021 168.498 210.272C167.959 210.15 167.756 209.698 167.459 209.303C166.917 208.577 166.593 207.659 165.737 207.187Z" fill="#B4A2CE"/>
<path d="M189.566 146.419C189.719 146.442 189.867 146.462 190.016 146.485C190.301 146.196 190.297 145.915 189.988 145.646C189.848 145.903 189.707 146.161 189.566 146.419Z" fill="#E6A37C"/>
<path d="M163.476 328.581C163.473 327.21 163.465 325.84 163.461 324.469C163.461 323.786 163.414 323.094 163.707 322.446C163.758 322.337 163.797 322.204 163.789 322.083C163.652 320.271 164.258 318.518 164.211 316.709C164.199 316.151 164.242 315.6 164.402 315.05C164.539 314.581 164.554 314.074 164.574 313.578C164.609 312.711 164.562 311.848 164.863 310.996C165.023 310.547 164.941 310.012 164.953 309.512C164.976 308.645 164.914 307.778 165.234 306.931C165.378 306.541 165.316 306.068 165.327 305.635C165.351 304.83 165.277 304.018 165.597 303.237C165.71 302.963 165.687 302.624 165.698 302.315C165.734 301.14 165.62 299.953 166.03 298.805C166.151 298.469 166.073 298.063 166.081 297.692C166.089 297.254 165.991 296.786 166.12 296.391C166.604 294.868 166.394 293.306 166.491 291.76C165.933 291.299 165.269 291.178 164.57 291.182C164.199 291.799 164.218 292.486 164.211 293.173C164.203 294.286 164.308 295.407 163.906 296.497C163.781 296.829 163.844 297.235 163.84 297.61C163.832 298.293 163.797 298.961 163.598 299.636C163.441 300.156 163.488 300.741 163.469 301.3C163.445 301.983 163.508 302.671 163.223 303.323C163.148 303.491 163.098 303.69 163.117 303.866C163.312 305.619 162.895 307.345 162.645 309.04C162.36 310.942 162.617 312.89 162.047 314.753C161.957 315.042 161.981 315.37 161.973 315.679C161.957 316.487 162 317.287 161.692 318.072C161.563 318.404 161.606 318.81 161.598 319.181C161.579 319.927 161.598 320.661 161.34 321.392C161.2 321.786 161.239 322.251 161.227 322.684C161.2 323.551 161.126 324.399 160.958 325.266C160.751 326.351 160.864 327.495 160.837 328.616C161.719 328.604 162.602 328.593 163.484 328.581H163.476Z" fill="#E6A37C"/>
<path d="M134.219 287.909C134.219 297.332 134.223 306.755 134.227 316.178C134.227 316.428 134.27 316.69 134.207 316.924C133.61 319.134 133.93 321.388 133.872 323.621C133.829 325.304 133.856 326.992 133.856 328.675C134.137 328.944 134.496 328.913 134.848 328.936C135.254 328.964 135.66 329.022 136.066 329.065C136.078 328.444 136.101 327.819 136.101 327.195C136.101 317.404 136.101 307.61 136.098 297.82C136.098 296.828 136.16 295.837 135.82 294.86C135.664 294.411 135.742 293.872 135.738 293.376C135.73 291.506 135.73 289.635 135.727 287.765C135.223 287.812 134.723 287.854 134.219 287.901V287.909Z" fill="#E8A47D"/>
</svg>
