<svg width="500" height="500" viewBox="0 0 500 500" fill="none" xmlns="http://www.w3.org/2000/svg">
<path d="M192.748 403.444C199.557 403.762 206.366 404.291 213.174 403.691C215.785 403.444 218.431 403.338 221.041 403.338C247.641 403.409 274.276 403.479 300.841 402.209C313.471 401.61 325.889 399.705 337.742 394.871C347.126 391.061 352.982 378.784 352.1 372.187C350.901 363.227 346.985 355.642 338.342 351.267C336.155 350.174 333.897 349.398 331.674 348.516C330.193 352.573 327.582 355.254 323.066 355.712C317.104 356.347 311.178 356.242 305.18 355.571C299.042 354.901 293.327 353.913 289.623 348.269C288.952 347.246 287.753 347.034 286.589 346.787C281.262 345.623 275.97 344.353 270.643 343.189C260.271 340.931 250.393 336.98 240.198 334.122C224.358 329.677 209.435 323.186 195.359 314.648C188.832 330.136 187.386 345.623 195.676 361.004C197.828 364.991 200.651 368.483 203.931 371.623C204.249 369.788 205.731 370.212 206.895 370.141C214.056 369.753 221.147 370.741 228.273 370.741C249.617 370.776 270.996 370.776 292.339 370.776C293.186 370.776 294.032 370.67 294.844 370.812C297.137 371.235 299.642 371.552 299.359 374.869C299.112 377.938 296.855 377.726 294.703 377.726C276.076 377.726 257.449 378.008 238.822 377.62C228.415 377.409 217.937 378.044 207.636 375.892C204.39 377.091 201.003 376.103 197.722 376.597C196.17 376.809 194.547 376.632 193.313 377.867C192.043 385.452 191.937 393.107 191.831 400.798C191.972 401.856 192.184 402.668 192.748 403.444Z" fill="#696C65"/>
<path d="M195.394 314.684C209.435 323.222 224.393 329.713 240.233 334.158C250.428 337.016 260.306 340.967 270.678 343.225C276.005 344.389 281.297 345.659 286.624 346.823C287.788 347.07 288.987 347.282 289.658 348.305C293.362 353.949 299.077 354.972 305.216 355.607C311.213 356.242 317.104 356.383 323.102 355.748C327.653 355.255 330.228 352.573 331.71 348.552C332.239 344.6 330.228 342.096 327.123 339.944C321.585 336.098 315.164 334.44 308.955 332.182C294.773 327.032 280.768 321.387 267.044 315.143C262.07 312.885 257.202 310.38 252.086 308.546C249.088 307.452 248.523 305.794 248.982 303.113C250.252 295.564 251.98 288.12 254.697 280.923C255.014 280.041 255.191 279.124 255.438 278.207C244.854 277.325 234.306 276.443 223.723 275.561C222.276 281.382 222.876 287.414 221.818 293.306C221.676 294.152 222.206 295.599 220.83 295.528C219.454 295.458 217.831 295.034 217.443 293.27C217.267 292.459 217.372 291.577 217.372 290.766C217.478 286.709 218.642 282.616 217.761 278.559C217.372 276.76 217.69 275.525 218.96 274.361C219.983 267.094 221.324 259.897 221.959 252.595C222.629 244.869 225.945 239.189 232.084 234.356C240.621 227.617 245.419 218.375 247.183 207.579C245.56 203.346 241.997 200.841 238.857 197.913C237.128 196.29 234.906 194.985 234.941 192.163C233.6 192.304 232.577 191.563 231.484 190.857C228.908 189.199 226.192 187.823 223.193 187.259C218.325 186.377 213.421 186.377 208.518 186.448C195.253 192.868 190.385 204.122 190.279 218.092C190.208 227.97 189.961 237.883 190.42 247.761C191.02 260.814 190.667 273.832 190.737 286.885C190.773 291.683 190.314 296.481 190.702 301.349C191.125 306.288 192.078 310.839 195.394 314.684Z" fill="#F7BB92"/>
<path d="M252.439 121.712C251.592 109.188 238.857 97.0169 225.769 96.0997C218.854 95.641 212.469 97.2638 206.471 100.651C204.919 101.533 203.473 102.626 201.603 102.697C201.92 104.708 200.58 106.013 199.486 107.389C196.135 111.587 193.242 115.961 192.36 121.465C191.584 126.368 191.407 131.166 192.113 136.07C192.536 138.963 191.09 139.845 188.303 138.681C186.998 138.116 185.975 137.34 185.798 135.753C184.493 125.522 186.292 116.067 192.36 107.53C193.63 105.731 195.958 104.496 195.923 101.85C187.492 101.109 180.401 105.307 176.485 113.492C172.639 121.571 171.158 130.284 170.099 139.033C168.97 148.664 168.653 158.295 168.9 167.997C168.935 169.196 168.3 171.066 169.429 171.454C170.981 171.983 171.793 170.114 172.639 168.985C178.601 160.977 184.105 152.651 189.573 144.29C190.561 142.808 191.513 141.327 192.748 139.386C196.77 145.172 199.839 151.346 205.413 155.473C207.918 152.086 209.152 148.029 211.057 144.325C216.067 134.518 216.631 133.989 227.391 135.999C232.683 136.987 236.528 135.506 240.092 131.837C243.796 128.062 247.712 124.358 252.439 121.712Z" fill="#7A4821"/>
<path d="M247.183 207.544C245.454 218.304 240.621 227.582 232.084 234.32C225.945 239.153 222.629 244.833 221.959 252.559C221.324 259.862 219.983 267.059 218.96 274.326C220.653 274.291 222.347 274.185 223.652 275.561C234.236 276.443 244.784 277.325 255.367 278.206C257.449 275.278 256.99 271.751 257.59 268.505C259.001 260.708 261.647 253.582 266.727 247.338C271.172 241.905 271.666 235.696 268.315 229.628C263.234 220.491 255.932 213.259 247.183 207.544Z" fill="#8A8AD9"/>
<path d="M252.439 121.712C247.712 124.358 243.831 128.062 240.092 131.872C236.493 135.541 232.648 137.023 227.392 136.035C216.632 134.024 216.067 134.589 211.058 144.361C209.153 148.065 207.918 152.122 205.413 155.509C205.872 163.129 206.295 170.784 208.2 178.228C215.079 176.781 221.782 177.487 228.344 179.992C230.567 180.838 232.436 182.532 234.941 182.638C235.153 181.72 235.365 180.803 235.541 179.851C236.705 172.654 237.023 172.407 244.396 172.442C246.512 172.442 248.594 172.548 250.711 172.442C254.168 172.266 255.967 170.502 255.861 167.009C255.72 162.988 256.461 159.072 257.061 155.156C257.378 153.004 258.437 151.875 260.483 151.205C264.434 149.899 265.104 147.959 262.705 144.643C261.365 142.773 259.636 141.186 258.013 139.563C254.344 135.788 251.91 131.59 252.651 126.051C252.792 124.675 252.51 123.194 252.439 121.712Z" fill="#F7BB92"/>
<path d="M192.748 403.445C192.148 402.669 191.972 401.857 191.972 400.834C192.078 393.179 192.184 385.488 193.454 377.903C192.713 377.833 191.831 377.974 191.302 377.621C186.045 374.093 181.141 376.245 176.449 378.75C168.582 383.019 160.574 386.935 152.566 390.886C148.791 392.756 147.415 394.802 147.945 397.906C148.544 401.399 151.225 402.528 154.259 403.127C155.177 403.304 156.129 403.516 157.046 403.516C168.97 403.516 180.859 403.48 192.748 403.445Z" fill="#F7BB92"/>
<path d="M207.742 375.928C218.043 378.08 228.521 377.445 238.928 377.656C257.555 378.044 276.182 377.762 294.809 377.762C296.961 377.762 299.218 377.974 299.465 374.905C299.712 371.588 297.243 371.306 294.95 370.848C294.138 370.706 293.256 370.812 292.445 370.812C271.102 370.812 249.723 370.812 228.379 370.777C221.253 370.777 214.127 369.789 207.001 370.177C205.801 370.248 204.355 369.789 204.037 371.659C205.237 373.07 206.472 374.516 207.742 375.928Z" fill="#4B4C47"/>
<path d="M234.941 182.672C232.437 182.567 230.531 180.873 228.344 180.027C221.782 177.522 215.08 176.816 208.2 178.263C208.306 180.979 208.412 183.696 208.518 186.412C213.421 186.306 218.36 186.341 223.194 187.223C226.228 187.788 228.944 189.164 231.484 190.822C232.542 191.492 233.565 192.233 234.941 192.127C235.894 188.987 235.47 185.812 234.941 182.672Z" fill="#DDA882"/>
<path d="M195.888 101.885C195.923 104.531 193.595 105.731 192.325 107.565C186.257 116.102 184.458 125.557 185.763 135.788C185.975 137.375 186.963 138.151 188.268 138.716C191.055 139.88 192.501 138.998 192.078 136.105C191.372 131.202 191.549 126.368 192.325 121.5C193.207 115.997 196.1 111.622 199.451 107.424C200.545 106.048 201.885 104.743 201.568 102.732C199.733 101.85 197.899 101.25 195.888 101.885Z" fill="#5C3718"/>
<path d="M223.688 275.525C222.382 274.15 220.689 274.255 218.995 274.291C217.725 275.42 217.373 276.69 217.796 278.489C218.678 282.546 217.514 286.603 217.408 290.695C217.373 291.542 217.302 292.388 217.478 293.2C217.867 294.964 219.489 295.387 220.865 295.458C222.241 295.528 221.712 294.082 221.853 293.235C222.806 287.379 222.206 281.346 223.688 275.525Z" fill="#DDA882"/>
</svg>
