<svg width="497" height="497" viewBox="0 0 497 497" fill="none" xmlns="http://www.w3.org/2000/svg">
<path d="M245.935 340.795C208.37 330.809 180.597 316.757 174.43 337.414C166.916 362.483 174.5 378.974 174.5 378.974C174.5 378.974 216.687 409.653 222.493 398.047C227.178 388.55 231.487 379.934 235.41 372.553C239.902 363.763 245.935 340.795 245.935 340.795Z" fill="#3D3C3C"/>
<path d="M128.688 424.939C129.732 417.56 161.12 417.646 166.019 414.856C168.558 413.463 170.613 409.353 176.907 408.576C185 407.474 190.261 413.535 193.14 413.051C207.901 410.458 248.312 407.836 266.31 404.766C270.448 404.127 274.601 402.766 279.08 403.036C284.993 403.334 284.825 438.704 283.212 438.672C257.41 437.254 195.631 432.051 186.142 431.139C186.142 431.139 157.583 433.096 150.77 432.96C146.646 432.877 127.644 432.318 128.688 424.939Z" fill="#F6BB92"/>
<path d="M282.377 414.584L277.252 438.293C298.506 440.149 364.759 437.533 364.522 413.539C364.256 364.122 245.936 348.87 245.936 348.87L245.425 338.655C246.891 327.943 169.228 364.346 174.304 378.949C179.892 394.815 191.121 405.96 214.865 408.582C244.325 411.676 282.377 414.584 282.377 414.584Z" fill="#3D3C3C"/>
<path d="M282.262 414.199L328.927 415.131C328.927 415.131 299.049 422.037 282.262 414.199Z" fill="#333333"/>
<path d="M258.008 225.16C260.965 203.425 243.088 196.101 233.483 171.614C232.283 168.553 219.489 159.365 212.297 158.507C204.384 157.634 196.085 158.005 189.482 163.768C184.345 168.31 173.423 182.741 177.096 224.438C178.373 295.92 174.076 339.602 174.076 339.602C206.987 352.228 246.202 338.005 246.202 338.005C245.497 274.037 243.217 261.843 248.693 240.337C248.509 240.512 257.162 231.395 258.008 225.16Z" fill="#FF8AA0"/>
<path d="M228.18 162.048C228.18 162.048 227.704 150.016 225.49 135.438L201.774 131.375C205.061 145.976 196.193 159.974 196.193 159.974C218.743 159.707 227.146 169.026 232.633 172.006L228.18 162.048Z" fill="#ECAD83"/>
<path d="M241.127 101.316C247.223 91.5825 242.035 82.699 238.378 77.788C227.237 62.5142 216.343 61.7592 202.725 63.1C184.627 64.8889 182.232 113.22 184.577 121.151C190.605 141.698 220.183 147.127 232.003 146.288C245.074 145.474 241.402 141.279 240.434 136.063C240.437 135.884 240.991 135 240.991 135C240.848 133.205 240.537 130.869 241.481 128.38C241.481 128.38 240.798 126.753 240.813 126.037C240.645 125.496 240.652 125.138 241.374 124.794C243.179 123.934 244.985 123.074 245.536 122.368C247.734 119.724 238.353 105.919 241.127 101.316Z" fill="#F6BB92"/>
<path d="M234.548 131.79C234.548 131.79 235.715 132.35 241.278 131.925C241.958 131.581 242.989 130.529 241.84 129.076C241.188 127.991 238.439 130.796 234.548 131.79Z" fill="#D6876B"/>
<path d="M234.541 132.029C234.541 132.029 235.952 134.725 241.796 135.509C242.532 135.357 243.094 134.701 243.284 134.371C243.866 132.716 242.046 132.179 242.046 132.179C235.995 132.559 234.541 132.029 234.541 132.029Z" fill="#CC785E"/>
<path d="M201.669 60.7651C179.592 62.8259 153.106 97.3186 186.812 131.941C189.093 134.309 193.882 136.728 200.267 130.959C204.826 126.94 207.616 121.814 207.616 121.814C208.544 120.224 209.292 118.631 210.227 116.684C211.161 114.737 208.868 103.971 211.028 103.478C232.456 98.0092 240.585 85.6639 239.983 79.9341C236.131 66.4562 225.182 58.5543 201.669 60.7651Z" fill="#602F0F"/>
<path d="M203.234 115.985C207.369 125.569 211.351 125.469 216.907 124.504L212.361 109.534L209.016 103.731C203.282 104.871 199.268 106.584 203.234 115.985Z" fill="#F6BB92"/>
<path d="M169.994 97.5179C164.222 93.697 165.716 82.9629 173.214 73.5839C180.712 64.205 191.218 59.8268 196.991 63.6476C202.763 67.4685 200.405 75.7149 192.907 85.0939C185.412 94.2965 175.767 101.339 169.994 97.5179Z" fill="#4C230C"/>
<path d="M213.535 105.635C213.034 103.836 212.887 102.222 212.734 100.967C212.59 99.1746 212.794 97.9261 212.794 97.9261L206.652 100.845C206.813 101.743 206.792 102.816 206.953 103.714C206.953 103.714 207.675 103.371 208.759 102.856L208.58 102.852C209.629 104.126 210.838 106.297 212.204 109.545C212.204 109.545 215.038 111.033 213.535 105.635Z" fill="#602F0F"/>
<path d="M166.645 97.183C160.821 93.1302 162.492 81.1749 170.393 70.7755C178.295 60.3761 189.492 55.2316 195.491 59.4669C201.315 63.5197 198.808 72.5953 190.727 82.9912C182.822 93.5694 172.466 101.415 166.645 97.183Z" fill="#602F0F"/>
<path d="M168.015 77.317C167.316 76.7439 168.795 73.7914 171.17 70.4839C173.545 67.1765 176.079 64.8041 176.778 65.3772C177.476 65.9503 176.008 68.3439 173.633 71.6514C171.262 74.7725 168.717 77.7038 168.015 77.317Z" fill="#4C230C"/>
<path d="M362.759 384.4C364.642 379.434 347.664 371.768 330.507 364.099C324.491 361.477 313.728 355.365 313.728 355.365C275.621 315.468 261.517 288.916 261.517 288.916C245.773 255.184 225.593 184.372 216.346 173.823C207.098 163.273 183.577 179.423 190.102 192.241C194.262 207.336 198.34 217.603 207.466 234.226C222.501 267.765 236.158 289.84 242.006 300.858C251.642 318.742 294.512 361.414 294.512 361.414C294.512 361.414 307.095 374.711 312.197 378.387C317.474 382.245 324.891 386.146 332.919 386.306C339.162 386.431 360.315 390.606 362.759 384.4Z" fill="#F6BB92"/>
</svg>
