<svg width="497" height="497" viewBox="0 0 497 497" fill="none" xmlns="http://www.w3.org/2000/svg">
<path d="M246.358 331.209C212.698 322.261 187.812 309.67 182.287 328.179C175.554 350.642 182.349 365.419 182.349 365.419C182.349 365.419 220.15 392.908 225.353 382.509C229.551 373.999 233.411 366.279 236.927 359.665C240.952 351.789 246.358 331.209 246.358 331.209Z" fill="#3D3C3C"/>
<path d="M141.3 406.605C142.235 399.993 170.36 400.07 174.75 397.57C177.025 396.322 178.866 392.639 184.506 391.943C191.758 390.956 196.471 396.387 199.052 395.953C212.277 393.63 248.487 391.28 264.614 388.529C268.323 387.957 272.044 386.737 276.057 386.979C281.355 387.246 281.205 418.939 279.759 418.91C256.64 417.64 201.283 412.977 192.781 412.161C192.781 412.161 167.191 413.914 161.086 413.792C157.391 413.718 140.364 413.216 141.3 406.605Z" fill="#F6BB92"/>
<path d="M279.011 397.327L274.419 418.571C293.463 420.235 352.829 417.891 352.616 396.391C352.378 352.111 246.359 338.445 246.359 338.445L245.901 329.292C247.214 319.694 177.626 352.312 182.174 365.397C187.181 379.613 197.242 389.599 218.518 391.949C244.915 394.722 279.011 397.327 279.011 397.327Z" fill="#3D3C3C"/>
<path d="M278.908 396.982L320.722 397.817C320.722 397.817 293.949 404.005 278.908 396.982Z" fill="#333333"/>
<path d="M257.175 227.596C259.825 208.12 243.806 201.558 235.2 179.617C234.125 176.874 222.661 168.642 216.217 167.873C209.126 167.091 201.691 167.423 195.774 172.587C191.17 176.657 181.384 189.587 184.675 226.949C185.819 291 181.969 330.14 181.969 330.14C211.459 341.454 246.597 328.709 246.597 328.709C245.965 271.391 243.922 260.466 248.829 241.195C248.664 241.352 256.418 233.183 257.175 227.596Z" fill="#FF8AA0"/>
<path d="M230.448 171.045C230.448 171.045 230.022 160.264 228.038 147.201L206.788 143.561C209.733 156.644 201.787 169.187 201.787 169.187C221.993 168.947 229.522 177.297 234.439 179.968L230.448 171.045Z" fill="#ECAD83"/>
<path d="M242.05 116.627C247.512 107.905 242.864 99.9454 239.586 95.545C229.604 81.8591 219.843 81.1826 207.64 82.384C191.424 83.9869 189.277 127.294 191.379 134.4C196.78 152.811 223.283 157.675 233.874 156.923C245.586 156.194 242.296 152.435 241.428 147.762C241.431 147.601 241.928 146.809 241.928 146.809C241.8 145.201 241.521 143.108 242.367 140.877C242.367 140.877 241.755 139.42 241.768 138.778C241.617 138.293 241.624 137.972 242.271 137.664C243.889 136.893 245.506 136.123 246 135.491C247.97 133.122 239.564 120.752 242.05 116.627Z" fill="#F6BB92"/>
<path d="M236.154 143.933C236.154 143.933 237.2 144.435 242.185 144.054C242.794 143.746 243.718 142.803 242.688 141.501C242.105 140.529 239.641 143.042 236.154 143.933Z" fill="#D6876B"/>
<path d="M236.148 144.147C236.148 144.147 237.413 146.563 242.649 147.265C243.308 147.129 243.812 146.541 243.982 146.246C244.504 144.762 242.873 144.282 242.873 144.282C237.452 144.622 236.148 144.147 236.148 144.147Z" fill="#CC785E"/>
<path d="M206.694 80.2919C186.912 82.1385 163.18 113.045 193.381 144.068C195.426 146.19 199.717 148.357 205.438 143.188C209.523 139.587 212.023 134.994 212.023 134.994C212.854 133.57 213.524 132.142 214.362 130.398C215.199 128.653 213.145 119.006 215.08 118.564C234.28 113.664 241.564 102.602 241.024 97.468C237.573 85.3913 227.762 78.311 206.694 80.2919Z" fill="#602F0F"/>
<path d="M208.096 129.771C211.801 138.359 215.369 138.269 220.348 137.405L216.274 123.991L213.277 118.791C208.14 119.813 204.543 121.347 208.096 129.771Z" fill="#F6BB92"/>
<path d="M178.312 113.224C173.14 109.8 174.478 100.182 181.197 91.7783C187.916 83.3744 197.329 79.4514 202.502 82.875C207.674 86.2987 205.561 93.6877 198.843 102.092C192.127 110.338 183.485 116.648 178.312 113.224Z" fill="#4C230C"/>
<path d="M217.326 120.497C216.877 118.885 216.746 117.439 216.608 116.314C216.48 114.708 216.663 113.589 216.663 113.589L211.159 116.205C211.303 117.01 211.284 117.971 211.428 118.776C211.428 118.776 212.076 118.468 213.047 118.006L212.887 118.003C213.826 119.144 214.909 121.09 216.134 124C216.134 124 218.673 125.334 217.326 120.497Z" fill="#602F0F"/>
<path d="M175.311 112.923C170.093 109.292 171.59 98.5792 178.67 89.261C185.75 79.9427 195.783 75.333 201.158 79.128C206.377 82.7595 204.13 90.8916 196.89 100.207C189.806 109.685 180.527 116.715 175.311 112.923Z" fill="#602F0F"/>
<path d="M176.538 95.1225C175.912 94.609 177.238 91.9634 179.366 88.9998C181.494 86.0362 183.764 83.9105 184.39 84.424C185.017 84.9375 183.701 87.0823 181.573 90.0459C179.448 92.8426 177.168 95.4691 176.538 95.1225Z" fill="#4C230C"/>
<path d="M351.036 370.281C352.724 365.831 337.511 358.962 322.137 352.09C316.747 349.74 307.103 344.264 307.103 344.264C272.957 308.515 260.32 284.724 260.32 284.724C246.213 254.499 228.131 191.048 219.845 181.595C211.559 172.143 190.482 186.614 196.329 198.099C200.057 211.624 203.711 220.824 211.889 235.719C225.36 265.772 237.598 285.551 242.837 295.423C251.472 311.448 289.885 349.685 289.885 349.685C289.885 349.685 301.16 361.599 305.731 364.893C310.46 368.35 317.106 371.845 324.298 371.989C329.893 372.1 348.847 375.841 351.036 370.281Z" fill="#F6BB92"/>
</svg>
