<svg width="497" height="497" viewBox="0 0 497 497" fill="none" xmlns="http://www.w3.org/2000/svg">
<path d="M248.7 299.4C227.7 294.2 212.1 286.6 208.9 298.3C205 312.5 209.4 321.7 209.4 321.7C209.4 321.7 233.2 338.5 236.3 331.9C238.8 326.5 241.1 321.6 243.2 317.4C245.6 312.4 248.7 299.4 248.7 299.4Z" fill="#3D3C3C"/>
<path d="M184.3 347.9C184.8 343.8 202.3 343.5 205 341.9C206.4 341.1 207.5 338.8 211 338.3C215.5 337.6 218.5 340.9 220.1 340.6C228.3 339 250.8 337.1 260.8 335.2C263.1 334.8 265.4 334 267.9 334.1C271.2 334.2 271.5 353.8 270.6 353.8C256.2 353.3 221.7 351.1 216.4 350.7C216.4 350.7 200.5 352.1 196.7 352.1C194.4 352.1 183.8 352 184.3 347.9Z" fill="#F6BB92"/>
<path d="M270.2 340.4L267.6 353.7C279.5 354.5 316.5 352.3 316.1 338.9C315.4 311.3 249.1 304.1 249.1 304.1L248.7 298.4C249.4 292.4 206.4 313.6 209.4 321.7C212.7 330.5 219.1 336.6 232.4 337.8C248.9 339.2 270.2 340.4 270.2 340.4Z" fill="#3D3C3C"/>
<path d="M270.2 340.4H296.1C296.1 340.4 279.6 344 270.2 340.4Z" fill="#333333"/>
<path d="M254 235C255.4 222.8 245.4 218.9 239.8 205.3C239.1 203.6 231.9 198.6 227.9 198.2C223.5 197.8 218.9 198.1 215.3 201.4C212.5 204 206.6 212.2 209.1 235.5C210.6 275.5 208.7 300 208.7 300C227.1 306.7 248.7 298.3 248.7 298.3C247.6 262.5 246.2 255.7 249 243.6C248.9 243.7 253.6 238.5 254 235Z" fill="#FF8AA0"/>
<path d="M237.1 199.8C237.1 199.8 236.7 193.1 235.3 185L222 183C224 191.1 219.2 199 219.2 199C231.8 198.6 236.6 203.7 239.7 205.3L237.1 199.8Z" fill="#ECAD83"/>
<path d="M243.7 166C247 160.5 244 155.6 241.9 152.9C235.5 144.5 229.4 144.2 221.8 145.1C211.7 146.3 210.9 173.3 212.3 177.7C215.9 189.1 232.5 191.8 239.1 191.2C246.4 190.6 244.3 188.3 243.7 185.4C243.7 185.3 244 184.8 244 184.8C243.9 183.8 243.7 182.5 244.2 181.1C244.2 181.1 243.8 180.2 243.8 179.8C243.7 179.5 243.7 179.3 244.1 179.1C245.1 178.6 246.1 178.1 246.4 177.7C247.6 176.2 242.2 168.6 243.7 166Z" fill="#F6BB92"/>
<path d="M240.1 182.9C240.1 182.9 240.8 183.2 244.1 182.9C244.5 182.7 245.1 182.1 244.4 181.3C244 180.7 242.4 182.3 240.1 182.9Z" fill="#D6876B"/>
<path d="M240.1 182.9C240.1 182.9 240.9 184.5 244.1 184.9C244.5 184.8 244.8 184.4 244.9 184.2C245.2 183.2 244.2 182.9 244.2 182.9C240.9 183.2 240.1 182.9 240.1 182.9Z" fill="#CC785E"/>
<path d="M221 143.5C208.7 144.9 194.3 164.5 213.5 183.5C214.8 184.8 217.5 186.1 221 182.8C223.5 180.5 225 177.6 225 177.6C225.5 176.7 225.9 175.8 226.4 174.7C226.9 173.6 225.5 167.6 226.7 167.3C238.6 164 243 157 242.6 153.8C240.3 146.3 234.1 142 221 143.5Z" fill="#602F0F"/>
<path d="M222.5 174.3C225 179.6 227.3 179.5 230.5 178.9L227.7 170.6L225.7 167.4C222.4 168.1 220.1 169.1 222.5 174.3Z" fill="#F6BB92"/>
<path d="M203.8 164.5C200.6 162.4 201.3 156.3 205.3 150.9C209.3 145.5 215 142.9 218.2 145C221.4 147.1 220.2 151.8 216.2 157.2C212.2 162.5 207 166.6 203.8 164.5Z" fill="#4C230C"/>
<path d="M228.1 168.5C227.8 167.5 227.7 166.6 227.6 165.9C227.5 164.9 227.6 164.2 227.6 164.2L224.2 165.9C224.3 166.4 224.3 167 224.4 167.5C224.4 167.5 224.8 167.3 225.4 167H225.3C225.9 167.7 226.6 168.9 227.4 170.7C227.4 170.7 229 171.5 228.1 168.5Z" fill="#602F0F"/>
<path d="M201.8 164.3C198.5 162.1 199.3 155.4 203.6 149.5C207.9 143.6 214.1 140.6 217.5 142.9C220.8 145.1 219.5 150.2 215.1 156.1C210.8 162.1 205.1 166.6 201.8 164.3Z" fill="#602F0F"/>
<path d="M202.5 153.2C202.1 152.9 202.9 151.3 204.2 149.5C205.5 147.7 206.9 146.4 207.3 146.7C207.7 147 206.9 148.3 205.6 150.1C204.3 151.8 202.9 153.4 202.5 153.2Z" fill="#4C230C"/>
<path d="M314.9 322.6C315.9 319.8 306.3 315.7 296.6 311.6C293.2 310.2 287.1 306.9 287.1 306.9C265.3 285 257.1 270.3 257.1 270.3C247.9 251.6 235.8 212.2 230.5 206.4C225.2 200.6 212.2 209.9 216 217C218.5 225.4 220.9 231.1 226.2 240.3C235 258.9 242.9 271.1 246.3 277.2C251.9 287.1 276.4 310.5 276.4 310.5C276.4 310.5 283.6 317.8 286.5 319.8C289.5 321.9 293.7 324 298.2 324C301.7 324 313.6 326.1 314.9 322.6Z" fill="#F6BB92"/>
</svg>
