<svg width="500" height="500" viewBox="0 0 500 500" fill="none" xmlns="http://www.w3.org/2000/svg">
<path d="M190.051 410.648C197.18 410.98 204.309 411.534 211.439 410.906C214.172 410.648 216.943 410.537 219.676 410.537C247.529 410.611 275.419 410.685 303.235 409.355C316.459 408.727 329.462 406.732 341.874 401.671C351.7 397.682 357.832 384.827 356.908 377.919C355.652 368.536 351.552 360.594 342.502 356.014C340.212 354.868 337.847 354.056 335.52 353.132C333.969 357.38 331.235 360.188 326.507 360.668C320.264 361.333 314.058 361.222 307.778 360.52C301.351 359.818 295.366 358.784 291.488 352.874C290.786 351.802 289.53 351.581 288.311 351.322C282.733 350.103 277.192 348.773 271.614 347.554C260.754 345.19 250.41 341.053 239.735 338.061C223.149 333.406 207.523 326.609 192.784 317.67C185.95 333.887 184.436 350.103 193.117 366.209C195.37 370.383 198.325 374.04 201.761 377.328C202.093 375.407 203.644 375.85 204.864 375.776C212.362 375.37 219.787 376.404 227.249 376.404C249.598 376.441 271.983 376.441 294.332 376.441C295.219 376.441 296.105 376.331 296.955 376.478C299.356 376.922 301.979 377.254 301.683 380.726C301.425 383.94 299.06 383.719 296.807 383.719C277.303 383.719 257.798 384.014 238.294 383.608C227.397 383.386 216.426 384.051 205.639 381.798C202.241 383.054 198.695 382.019 195.259 382.536C193.634 382.758 191.935 382.573 190.642 383.866C189.312 391.808 189.201 399.824 189.09 407.877C189.238 408.985 189.46 409.835 190.051 410.648Z" fill="#696C65"/>
<path d="M192.821 317.708C207.523 326.648 223.186 333.444 239.772 338.099C250.447 341.091 260.791 345.228 271.651 347.592C277.229 348.812 282.77 350.141 288.348 351.36C289.567 351.619 290.823 351.841 291.525 352.912C295.403 358.822 301.388 359.893 307.815 360.558C314.095 361.223 320.264 361.371 326.544 360.706C331.309 360.189 334.006 357.382 335.557 353.17C336.111 349.033 334.006 346.41 330.755 344.157C324.955 340.131 318.232 338.394 311.731 336.03C296.881 330.637 282.216 324.727 267.846 318.188C262.638 315.824 257.54 313.201 252.184 311.281C249.044 310.135 248.453 308.399 248.933 305.592C250.263 297.687 252.073 289.892 254.917 282.357C255.25 281.433 255.434 280.473 255.693 279.512C244.611 278.589 233.566 277.665 222.484 276.742C220.969 282.837 221.597 289.153 220.489 295.322C220.341 296.209 220.896 297.724 219.455 297.65C218.014 297.576 216.315 297.133 215.909 295.286C215.724 294.436 215.835 293.512 215.835 292.663C215.946 288.415 217.165 284.13 216.241 279.882C215.835 277.998 216.167 276.705 217.497 275.486C218.568 267.876 219.972 260.34 220.637 252.694C221.339 244.604 224.811 238.657 231.239 233.596C240.178 226.54 245.202 216.862 247.049 205.558C245.35 201.126 241.619 198.503 238.331 195.437C236.521 193.738 234.194 192.371 234.231 189.416C232.827 189.563 231.756 188.788 230.611 188.049C227.914 186.313 225.07 184.872 221.93 184.281C216.832 183.357 211.697 183.357 206.563 183.431C192.673 190.154 187.576 201.938 187.465 216.566C187.391 226.91 187.132 237.29 187.613 247.633C188.241 261.301 187.871 274.932 187.945 288.599C187.982 293.623 187.502 298.647 187.908 303.745C188.351 308.916 189.349 313.682 192.821 317.708Z" fill="#F7BB92"/>
<path d="M252.553 115.646C251.666 102.533 238.331 89.7883 224.626 88.8279C217.386 88.3476 210.7 90.0469 204.42 93.5931C202.795 94.5166 201.28 95.6618 199.322 95.7356C199.655 97.8412 198.251 99.208 197.106 100.649C193.597 105.044 190.567 109.625 189.644 115.388C188.831 120.522 188.647 125.546 189.385 130.681C189.829 133.71 188.314 134.633 185.396 133.414C184.029 132.823 182.958 132.011 182.773 130.348C181.406 119.636 183.29 109.736 189.644 100.796C190.974 98.9125 193.412 97.6196 193.375 94.8491C184.546 94.0733 177.121 98.4692 173.021 107.039C168.995 115.499 167.443 124.623 166.335 133.784C165.153 143.868 164.82 153.953 165.079 164.111C165.116 165.367 164.451 167.325 165.633 167.732C167.258 168.286 168.108 166.328 168.995 165.146C175.237 156.76 181 148.043 186.726 139.288C187.76 137.736 188.757 136.185 190.05 134.153C194.261 140.211 197.475 146.676 203.312 150.998C205.935 147.452 207.227 143.203 209.222 139.325C214.468 129.055 215.059 128.501 226.325 130.607C231.866 131.641 235.893 130.09 239.624 126.248C243.502 122.295 247.603 118.417 252.553 115.646Z" fill="#7A4821"/>
<path d="M247.049 205.521C245.239 216.788 240.178 226.503 231.239 233.559C224.811 238.62 221.339 244.567 220.637 252.657C219.972 260.303 218.568 267.839 217.497 275.449C219.27 275.412 221.043 275.301 222.41 276.742C233.492 277.665 244.537 278.589 255.619 279.512C257.799 276.446 257.318 272.752 257.946 269.354C259.424 261.19 262.194 253.728 267.514 247.19C272.168 241.501 272.685 235 269.176 228.646C263.857 219.078 256.21 211.506 247.049 205.521Z" fill="#8A8AD9"/>
<path d="M252.553 115.646C247.603 118.417 243.539 122.296 239.624 126.285C235.856 130.127 231.829 131.678 226.325 130.644C215.059 128.539 214.468 129.13 209.222 139.362C207.227 143.241 205.934 147.489 203.312 151.035C203.792 159.014 204.235 167.03 206.23 174.824C213.433 173.31 220.452 174.049 227.323 176.671C229.65 177.558 231.608 179.331 234.23 179.442C234.452 178.481 234.674 177.521 234.858 176.524C236.077 168.988 236.41 168.729 244.13 168.766C246.347 168.766 248.526 168.877 250.743 168.766C254.363 168.581 256.247 166.734 256.136 163.077C255.988 158.866 256.764 154.766 257.392 150.666C257.724 148.412 258.832 147.23 260.975 146.528C265.112 145.162 265.814 143.13 263.302 139.657C261.898 137.7 260.088 136.037 258.389 134.338C254.547 130.386 251.999 125.99 252.774 120.19C252.922 118.749 252.627 117.198 252.553 115.646Z" fill="#F7BB92"/>
<path d="M190.05 410.649C189.422 409.836 189.238 408.987 189.238 407.915C189.348 399.899 189.459 391.846 190.789 383.904C190.013 383.831 189.09 383.978 188.536 383.609C183.032 379.915 177.897 382.168 172.984 384.791C164.746 389.261 156.361 393.361 147.976 397.498C144.023 399.456 142.582 401.599 143.137 404.849C143.765 408.506 146.572 409.688 149.749 410.316C150.709 410.501 151.707 410.723 152.667 410.723C165.153 410.723 177.601 410.686 190.05 410.649Z" fill="#F7BB92"/>
<path d="M205.75 381.836C216.536 384.089 227.507 383.424 238.405 383.646C257.909 384.052 277.413 383.756 296.918 383.756C299.171 383.756 301.535 383.978 301.794 380.764C302.052 377.292 299.466 376.996 297.065 376.516C296.216 376.368 295.292 376.479 294.443 376.479C272.094 376.479 249.708 376.479 227.36 376.442C219.898 376.442 212.436 375.408 204.974 375.814C203.718 375.888 202.203 375.408 201.871 377.366C203.127 378.843 204.42 380.358 205.75 381.836Z" fill="#4B4C47"/>
<path d="M234.23 179.479C231.607 179.368 229.613 177.595 227.322 176.708C220.451 174.085 213.433 173.347 206.23 174.861C206.34 177.705 206.451 180.55 206.562 183.394C211.697 183.283 216.868 183.32 221.929 184.244C225.106 184.835 227.95 186.276 230.61 188.012C231.718 188.714 232.789 189.489 234.23 189.379C235.227 186.091 234.784 182.766 234.23 179.479Z" fill="#DDA882"/>
<path d="M193.339 94.886C193.376 97.6565 190.938 98.9124 189.608 100.833C183.254 109.773 181.37 119.673 182.737 130.385C182.959 132.048 183.993 132.86 185.36 133.451C188.278 134.67 189.793 133.747 189.349 130.718C188.611 125.583 188.795 120.522 189.608 115.425C190.532 109.662 193.561 105.081 197.07 100.686C198.215 99.2449 199.619 97.8781 199.286 95.7725C197.365 94.849 195.445 94.2211 193.339 94.886Z" fill="#5C3718"/>
<path d="M222.446 276.704C221.08 275.264 219.306 275.375 217.533 275.412C216.203 276.594 215.834 277.924 216.277 279.807C217.201 284.056 215.982 288.304 215.871 292.589C215.834 293.475 215.76 294.362 215.945 295.211C216.351 297.058 218.05 297.502 219.491 297.576C220.932 297.649 220.378 296.135 220.525 295.248C221.523 289.116 220.895 282.8 222.446 276.704Z" fill="#DDA882"/>
</svg>
