<svg width="500" height="500" viewBox="0 0 500 500" fill="none" xmlns="http://www.w3.org/2000/svg">
<path d="M180.8 71.4783C178.082 73.4716 187.958 83.9819 189.86 87.9686L194.753 90.6868C211.697 117.234 224.472 124.936 224.472 124.936C233.895 141.245 253.647 171.689 258.812 176.672C263.976 181.656 275.121 172.323 271.316 166.252C267.51 160.182 263.433 155.199 259.174 149.4C254.916 143.692 238.154 122.761 233.986 118.141C233.442 117.506 201.096 86.2471 201.096 86.2471C201.096 86.2471 200.008 84.7068 199.102 81.7168C197.834 77.5489 193.847 72.6561 190.495 70.844C187.595 69.3037 183.518 69.4849 180.8 71.4783Z" fill="#ECAD83"/>
<path d="M188.32 83.6195C188.32 83.6195 185.964 79.7234 183.79 80.8107C181.978 81.7168 181.434 82.1698 189.77 87.9686C189.77 88.0592 190.767 87.0625 188.32 83.6195Z" fill="#ECAD83"/>
<path d="M251.436 246.086C251.436 246.086 246.45 252.895 245.362 258.977C243.186 271.596 251.527 279.766 251.527 279.766C251.527 279.766 277.545 286.665 279.268 280.31C282.441 268.327 283.892 258.433 284.979 252.532C285.705 248.538 267.029 243 267.029 243L251.436 246.086Z" fill="#3D3C3C"/>
<path d="M285.752 170.007C281.77 159.588 271.544 157.142 260.052 149.259C258.604 148.535 250.64 149.35 247.744 151.434C244.486 153.699 241.59 156.689 241.047 161.128C240.686 164.571 242.314 172.091 248.649 190.936C251.726 200.177 257.427 234.786 252.178 245.658C252.178 245.658 264.576 244.48 271.816 246.292C279.056 248.104 285.662 252 285.662 252C288.196 218.206 286.838 191.751 284.033 180.879C284.033 180.879 286.838 172.997 285.752 170.007Z" fill="#FF8AA0"/>
<path d="M254.702 147.151C254.702 147.151 247.452 142.619 241.503 138L231 144.275C237.321 148.459 241.875 157 241.875 157C250.519 149.592 256.747 149.94 260 149.156L254.702 147.151Z" fill="#ECAD83"/>
<path d="M228.2 119.208C225.008 114.316 219.81 114.778 216.801 115.332C207.317 117.27 204.672 122.162 202.301 128.807C199.2 137.668 220.996 149.298 225.191 149.852C235.952 151.513 244.889 138.776 247.077 133.053C249.449 126.777 246.804 127.608 244.159 126.869C244.068 126.869 243.794 126.408 243.794 126.408C242.974 126.038 241.788 125.762 240.785 124.746C240.785 124.746 239.964 124.654 239.508 124.562C239.235 124.469 239.052 124.377 239.052 124.008C239.052 122.993 239.052 121.977 238.779 121.516C238.049 120.131 229.659 121.516 228.2 119.208Z" fill="#F6BB92"/>
<path d="M240 129C240 129 240.667 128.571 242 125.91C242 125.567 241.778 124.794 240.556 125.052C239.667 125.223 240.556 127.026 240 129Z" fill="#D6876B"/>
<path d="M240 129C240 129 242.042 128.9 243.97 126.291C244.083 125.89 243.856 125.388 243.63 125.288C242.722 124.586 241.928 125.388 241.928 125.388C240.681 128.498 240 129 240 129Z" fill="#CC785E"/>
<path d="M200.742 128.834C197.04 139.542 207.244 159.221 230.182 151.075C231.717 150.526 233.884 148.787 232.62 144.576C231.717 141.648 230.001 139.176 230.001 139.176C229.459 138.444 228.917 137.712 228.285 136.888C227.563 135.973 222.144 134.783 222.325 133.685C224.402 122.61 220.429 116.203 217.719 115.196C210.585 114.097 204.716 117.484 200.742 128.834Z" fill="#602F0F"/>
<path d="M226.494 139.997C231.459 140.092 232.315 138.093 233 135.047L225.552 134L222.299 134.381C221.7 137.427 221.529 139.902 226.494 139.997Z" fill="#F6BB92"/>
<path d="M211.158 151.5C208.013 153.266 203.057 150.199 200.102 144.716C197.147 139.232 197.338 133.284 200.483 131.518C203.629 129.752 207.155 132.634 210.11 138.117C213.065 143.693 214.304 149.734 211.158 151.5Z" fill="#4C230C"/>
<path d="M223.838 133.181C222.932 133 222.116 132.728 221.573 132.547C220.667 132.184 220.123 131.822 220.123 131.822V135.265C220.576 135.446 221.029 135.627 221.482 135.718C221.482 135.718 221.482 135.355 221.482 134.721V134.812C222.298 134.631 223.566 134.449 225.288 134.54C225.378 134.54 226.647 133.634 223.838 133.181Z" fill="#602F0F"/>
<path d="M209.975 152.933C206.804 154.745 201.73 151.483 198.74 145.594C195.659 139.704 195.75 133.453 198.83 131.641C202.002 129.828 205.626 132.909 208.706 138.798C211.787 144.688 213.146 151.121 209.975 152.933Z" fill="#602F0F"/>
<path d="M200.922 147.982C200.624 148.175 199.805 146.822 198.987 144.888C198.242 142.954 197.795 141.214 198.093 141.021C198.391 140.828 199.061 141.988 199.805 143.921C200.624 145.855 201.22 147.788 200.922 147.982Z" fill="#4C230C"/>
<path d="M262.39 417.866C258.693 417.049 245.384 417.866 243.998 417.775C240.671 417.684 237.436 415.869 238.083 412.783C238.545 410.423 239.747 408.336 239.562 406.884C238.823 399.351 241.41 375.754 240.671 366.588C240.486 364.5 240.394 362.322 240.301 360.053C240.024 351.068 258.878 356.151 258.601 359.418C257.676 372.487 249.451 404.433 248.527 409.062C248.527 409.062 266.364 410.151 265.994 413.509C265.809 415.597 266.087 418.682 262.39 417.866Z" fill="#F6BB92"/>
<path d="M244.994 331.745C243.752 342.193 242.154 348.916 241 360C243.929 358.91 255.912 358.546 258.575 359.364C258.753 356.093 264.345 332.108 264.345 332.108C265.41 327.656 283.34 272.781 281.92 262.515C281.565 258.79 280.855 255.428 280.145 252.703C278.724 247.342 249.876 250.431 248.722 257.79C249.699 273.78 246.503 302.581 245.704 310.576C245.083 317.935 244.994 331.745 244.994 331.745Z" fill="#3D3C3C"/>
<path d="M174.095 70.7532C171.377 72.7465 181.253 83.2568 183.155 87.2435L188.048 89.9617C204.992 116.509 217.767 124.211 217.767 124.211C227.19 140.52 246.942 170.964 252.107 175.947C257.271 180.93 268.416 171.598 264.61 165.527C260.805 159.457 256.728 154.473 252.469 148.675C248.211 142.966 231.449 122.036 227.281 117.415C226.737 116.781 194.391 85.522 194.391 85.522C194.391 85.522 193.303 83.9817 192.397 80.9917C191.129 76.8238 187.142 71.931 183.79 70.1189C180.89 68.5786 176.813 68.7598 174.095 70.7532Z" fill="#F6BB92"/>
<path d="M181.615 82.9852C181.615 82.9852 179.259 79.0891 177.085 80.1764C175.273 81.0825 174.729 81.5355 183.065 87.3343C183.065 87.3343 184.062 86.4283 181.615 82.9852Z" fill="#F6BB92"/>
</svg>
