<svg width="500" height="500" viewBox="0 0 500 500" fill="none" xmlns="http://www.w3.org/2000/svg">
<path d="M274.464 447.13C281.439 446.975 288.456 447.349 295.43 447.197C299.836 449.395 306.349 452.901 310.765 455.071C314.064 456.687 315.598 459.788 314.999 462.719C314.381 465.721 310.152 466.081 306.557 466.279C301.441 466.557 296.189 466.25 291.07 466.279C273.946 466.367 273.537 456.687 274.464 447.133V447.13Z" fill="#F5BB93"/>
<path d="M247.092 189.171C239.264 182.172 235.651 173.434 236.262 162.946C236.004 157.576 235.75 152.207 235.493 146.838C234.801 138.364 235.052 129.858 234.424 121.371C234.141 117.557 232.564 115.649 229.456 114.315C229.446 114.132 229.442 113.948 229.439 113.765C228.892 111.793 228.733 111.429 228.045 110.653C222.909 104.839 217.102 99.4878 214.548 91.8819C211.497 82.7908 209.958 73.294 207.5 64.0406C207.235 63.0493 206.85 62.0474 206.829 61.042C206.674 54.1557 202.127 50.1835 197.107 46.7192C192.94 43.844 190.474 40.0093 188.89 35.3385C187.864 32.3188 186.506 29.4083 185.246 26.4697C184.572 24.8928 184.675 23.9932 186.675 23.6016C192.937 22.3739 199.163 20.984 205.401 19.6399C207.189 19.2554 208.075 20.0597 208.763 21.6684C218.912 45.368 232.321 67.3532 245.208 89.5676C251.195 99.8864 253.498 110.914 255.534 122.246C256.924 129.978 258.307 137.715 259.739 145.444C259.855 146.079 260.335 146.644 260.649 147.24C263.676 151.233 266.562 155.35 269.768 159.196C273.564 163.746 275.039 168.84 274.781 174.711C274.235 187.164 261.76 195.133 250.281 190.222C249.247 189.781 248.323 189.005 247.088 189.175L247.092 189.171Z" fill="#F5BB92"/>
<path d="M299.507 245.207C286.455 244.603 273.398 244 260.345 243.4C260.779 239.555 261.443 235.72 261.601 231.865C261.894 224.742 260.779 217.771 258.638 210.966C258.229 209.668 257.939 208.334 257.594 207.018C271.867 199.61 286.141 192.205 300.414 184.797C304.827 203.318 304.884 221.856 300.594 240.402C300.255 241.866 299.955 243.295 300.181 244.794L300.206 244.759C299.973 244.91 299.744 245.058 299.511 245.21L299.507 245.207Z" fill="#F4BA92"/>
<path d="M300.411 184.797C286.137 192.205 271.864 199.61 257.59 207.018C254.701 200.711 251.272 194.72 247.092 189.171C248.327 188.998 249.251 189.778 250.284 190.219C261.767 195.13 274.242 187.16 274.785 174.707C275.042 168.837 273.571 163.746 269.772 159.192C266.565 155.347 263.679 151.233 260.653 147.236C270.499 149.625 280.246 152.419 289.774 155.816C297.176 158.455 301.695 166.011 301.413 173.906C301.282 177.544 300.756 181.167 300.411 184.797Z" fill="#8A8AD9"/>
<path d="M235.492 146.837C235.75 152.207 236.007 157.576 236.261 162.945C230.363 163.944 224.352 164.233 218.541 165.789C212.646 166.127 207.454 164.395 202.829 160.709C200.945 159.206 200.186 156.722 198.017 155.526C197.445 152.182 195.854 149.056 196.105 145.522C196.701 137.118 201.474 131.156 210.219 128.091C212.294 132.867 214.428 137.619 216.411 142.431C217.067 144.022 218.079 144.611 219.698 144.781C224.087 145.239 228.462 145.821 232.843 146.354C233.725 146.516 234.61 146.675 235.492 146.837Z" fill="#7B4A24"/>
<path d="M219.003 167.835C222.859 179.424 222.507 190.501 214.957 200.675C210.681 206.432 204.677 210.436 197.35 212.359C198.302 208.824 199.153 205.459 200.123 202.132C202.55 193.778 201.59 185.879 196.934 178.513C192.446 171.416 192.407 164.406 197.092 157.407C197.713 158.765 198.62 159.897 199.583 161.04C204.741 167.158 211.503 168.512 219.007 167.835H219.003Z" fill="#7B4A24"/>
<path d="M219.003 167.835C211.5 168.512 204.737 167.157 199.579 161.04C198.613 159.894 197.706 158.761 197.089 157.407C197.399 156.779 197.706 156.154 198.017 155.526C200.183 156.722 200.941 159.206 202.829 160.709C207.454 164.399 212.646 166.131 218.541 165.789C218.873 166.431 219.201 167.073 219.003 167.835Z" fill="#5C3819"/>
<path d="M231.571 118.82C231.504 116.862 229.402 116.153 229.455 114.312C229.239 114.072 229.024 113.828 228.813 113.588C228.82 113.588 228.823 113.588 228.83 113.588C228.305 112.781 226.654 111.278 225.257 112.654C221.545 115.885 220.871 121.011 217.294 124.249C215.453 125.915 212.585 126.952 210.225 128.084C212.299 132.861 214.433 137.613 216.416 142.425C217.072 144.016 218.085 144.605 219.704 144.774C224.092 145.233 228.467 145.815 232.848 146.347C232.404 137.172 231.885 127.996 231.575 118.813L231.571 118.82Z" fill="#F4BA91"/>
<path d="M232.843 146.354C232.399 137.179 231.88 128.003 231.57 118.82C231.503 116.862 229.4 116.153 229.453 114.312C232.561 115.645 234.138 117.554 234.42 121.367C235.052 129.855 234.801 138.364 235.489 146.834C234.607 146.675 233.722 146.513 232.84 146.351L232.843 146.354Z" fill="#DCA882"/>
<path d="M274.464 447.13C272.675 429.995 270.756 412.871 269.137 395.719C268.05 384.176 266.071 361.934 270.149 351.022C270.897 349.018 270.894 347.276 270.372 345.304C265.038 325.097 262.985 307.754 257.756 287.519C254.066 273.235 254.758 259.109 259.743 245.21C259.954 244.621 260.113 244.01 260.296 243.411C261.108 243.446 261.919 243.478 262.731 243.524C277.452 244.338 287.4 244.596 300.171 244.79C300.22 246.049 300.457 249.736 300.506 250.995C300.506 259.501 300.503 268.003 300.499 276.508C300.481 301.256 300.376 334.036 300.481 358.783C300.555 376.147 298.968 393.416 297.892 410.716C297.303 420.177 296.689 429.639 296.065 439.097C295.934 441.076 295.708 445.154 295.525 447.13C288.057 447.271 282.349 447.147 274.457 447.13H274.464Z" fill="#6A6C65"/>
</svg>
