<svg width="501" height="501" viewBox="0 0 501 501" fill="none" xmlns="http://www.w3.org/2000/svg">
<path d="M272.063 427.052C278.34 426.913 284.655 427.249 290.932 427.113C294.898 429.091 300.759 432.247 304.734 434.199C307.703 435.653 309.084 438.444 308.544 441.083C307.988 443.785 304.182 444.108 300.946 444.286C296.343 444.537 291.615 444.261 287.008 444.286C271.597 444.366 271.228 435.653 272.063 427.055V427.052Z" fill="#F5BB93"/>
<path d="M247.428 194.89C240.382 188.59 237.131 180.726 237.68 171.287C237.448 166.454 237.22 161.622 236.988 156.79C236.366 149.163 236.591 141.508 236.026 133.869C235.772 130.437 234.353 128.719 231.556 127.519C231.546 127.354 231.543 127.189 231.54 127.024C231.048 125.249 230.905 124.922 230.286 124.224C225.663 118.991 220.437 114.175 218.138 107.329C215.392 99.1473 214.007 90.6002 211.794 82.2722C211.556 81.38 211.21 80.4783 211.191 79.5734C211.051 73.3758 206.959 69.8008 202.441 66.6829C198.691 64.0953 196.472 60.644 195.046 56.4403C194.122 53.7225 192.9 51.1031 191.766 48.4584C191.16 47.0391 191.252 46.2295 193.052 45.8771C198.688 44.7722 204.292 43.5212 209.905 42.3116C211.515 41.9655 212.312 42.6894 212.931 44.1372C222.066 65.4669 234.134 85.2535 245.732 105.247C251.12 114.533 253.193 124.458 255.025 134.657C256.276 141.616 257.521 148.579 258.81 155.535C258.915 156.107 259.346 156.615 259.629 157.152C262.353 160.746 264.95 164.451 267.836 167.912C271.253 172.007 272.58 176.592 272.348 181.875C271.856 193.083 260.629 200.255 250.298 195.836C249.367 195.439 248.536 194.74 247.424 194.893L247.428 194.89Z" fill="#F5BB92"/>
<path d="M294.601 245.321C282.854 244.779 271.103 244.236 259.355 243.696C259.746 240.235 260.343 236.784 260.486 233.314C260.749 226.903 259.746 220.629 257.819 214.505C257.45 213.336 257.19 212.136 256.879 210.952C269.725 204.284 282.571 197.62 295.417 190.953C299.389 207.621 299.44 224.306 295.579 240.997C295.274 242.315 295.004 243.601 295.208 244.95L295.23 244.918C295.02 245.055 294.814 245.188 294.604 245.325L294.601 245.321Z" fill="#F4BA92"/>
<path d="M295.415 190.952C282.569 197.62 269.723 204.284 256.877 210.952C254.276 205.275 251.19 199.884 247.428 194.889C248.539 194.734 249.371 195.435 250.301 195.832C260.636 200.252 271.863 193.08 272.352 181.872C272.583 176.589 271.259 172.007 267.84 167.908C264.954 164.447 262.357 160.745 259.632 157.148C268.494 159.297 277.266 161.812 285.842 164.87C292.503 167.244 296.57 174.045 296.316 181.151C296.199 184.424 295.726 187.685 295.415 190.952Z" fill="#8A8AD9"/>
<path d="M236.987 156.789C237.219 161.622 237.451 166.454 237.68 171.287C232.371 172.185 226.961 172.445 221.732 173.846C216.426 174.15 211.753 172.591 207.59 169.274C205.895 167.921 205.212 165.686 203.259 164.61C202.745 161.6 201.313 158.787 201.539 155.605C202.075 148.042 206.371 142.677 214.242 139.917C216.109 144.216 218.03 148.493 219.814 152.824C220.404 154.256 221.316 154.786 222.773 154.938C226.723 155.351 230.66 155.875 234.603 156.354C235.397 156.501 236.194 156.643 236.987 156.789Z" fill="#7B4A24"/>
<path d="M222.148 175.687C225.618 186.117 225.301 196.087 218.506 205.243C214.658 210.425 209.254 214.028 202.66 215.759C203.517 212.577 204.282 209.549 205.155 206.554C207.34 199.036 206.476 191.927 202.285 185.298C198.246 178.91 198.212 172.601 202.428 166.302C202.987 167.524 203.803 168.543 204.669 169.572C209.311 175.077 215.398 176.297 222.151 175.687H222.148Z" fill="#7B4A24"/>
<path d="M222.148 175.687C215.395 176.297 209.308 175.077 204.666 169.572C203.796 168.54 202.98 167.521 202.425 166.302C202.704 165.737 202.98 165.175 203.26 164.609C205.209 165.686 205.892 167.921 207.591 169.273C211.753 172.595 216.427 174.153 221.732 173.845C222.03 174.423 222.326 175.001 222.148 175.687Z" fill="#5C3819"/>
<path d="M233.457 131.573C233.397 129.811 231.504 129.173 231.552 127.515C231.358 127.299 231.165 127.08 230.974 126.864C230.981 126.864 230.984 126.864 230.99 126.864C230.517 126.137 229.031 124.785 227.774 126.023C224.434 128.931 223.827 133.545 220.608 136.459C218.95 137.958 216.369 138.891 214.245 139.911C216.112 144.21 218.033 148.486 219.817 152.817C220.408 154.249 221.319 154.779 222.776 154.932C226.726 155.344 230.663 155.868 234.606 156.348C234.206 148.089 233.74 139.831 233.46 131.567L233.457 131.573Z" fill="#F4BA91"/>
<path d="M234.604 156.354C234.204 148.096 233.737 139.838 233.458 131.573C233.397 129.811 231.505 129.173 231.553 127.516C234.35 128.716 235.769 130.433 236.023 133.866C236.591 141.505 236.366 149.163 236.985 156.786C236.191 156.643 235.394 156.497 234.601 156.351L234.604 156.354Z" fill="#DCA882"/>
<path d="M272.062 427.052C270.453 411.631 268.725 396.22 267.268 380.783C266.29 370.394 264.509 350.376 268.179 340.555C268.852 338.752 268.849 337.184 268.379 335.409C263.579 317.222 261.731 301.614 257.026 283.402C253.705 270.547 254.327 257.834 258.813 245.324C259.004 244.794 259.146 244.245 259.312 243.705C260.042 243.737 260.772 243.765 261.502 243.807C274.752 244.54 283.705 244.772 295.199 244.947C295.243 246.08 295.456 249.398 295.5 250.531C295.5 258.186 295.497 265.838 295.494 273.493C295.478 295.766 295.383 325.268 295.478 347.54C295.545 363.168 294.116 378.71 293.148 394.28C292.617 402.795 292.065 411.311 291.503 419.823C291.385 421.604 291.182 425.274 291.017 427.052C284.296 427.179 279.159 427.068 272.056 427.052H272.062Z" fill="#6A6C65"/>
</svg>
