<svg width="501" height="501" viewBox="0 0 501 501" fill="none" xmlns="http://www.w3.org/2000/svg">
<path d="M270.838 416.845C276.766 416.713 282.731 417.031 288.659 416.902C292.404 418.77 297.94 421.751 301.694 423.595C304.498 424.969 305.802 427.604 305.292 430.096C304.768 432.648 301.172 432.954 298.117 433.122C293.769 433.359 289.304 433.098 284.953 433.122C270.397 433.197 270.05 424.969 270.838 416.848V416.845Z" fill="#F5BB93"/>
<path d="M247.571 197.58C240.917 191.631 237.847 184.203 238.366 175.288C238.147 170.725 237.931 166.161 237.712 161.597C237.124 154.394 237.337 147.164 236.803 139.95C236.563 136.708 235.223 135.086 232.581 133.953C232.572 133.797 232.569 133.641 232.566 133.485C232.102 131.809 231.967 131.5 231.382 130.84C227.016 125.898 222.08 121.349 219.909 114.884C217.315 107.157 216.008 99.0846 213.918 91.2193C213.693 90.3767 213.366 89.525 213.348 88.6704C213.216 82.8171 209.351 79.4407 205.084 76.4961C201.543 74.0522 199.447 70.7927 198.1 66.8225C197.228 64.2557 196.073 61.7818 195.003 59.284C194.43 57.9436 194.517 57.179 196.217 56.8461C201.54 55.8026 206.832 54.6211 212.134 53.4787C213.654 53.1518 214.407 53.8355 214.991 55.2029C223.618 75.3476 235.016 94.035 245.97 112.917C251.059 121.688 253.017 131.062 254.747 140.693C255.929 147.266 257.104 153.842 258.321 160.412C258.42 160.952 258.828 161.432 259.095 161.939C261.668 165.333 264.121 168.832 266.847 172.101C270.073 175.969 271.326 180.299 271.108 185.289C270.643 195.874 260.04 202.648 250.282 198.474C249.404 198.099 248.618 197.439 247.568 197.583L247.571 197.58Z" fill="#F5BB92"/>
<path d="M292.125 245.211C281.03 244.698 269.932 244.185 258.837 243.675C259.206 240.407 259.77 237.147 259.904 233.87C260.153 227.816 259.206 221.89 257.386 216.106C257.038 215.003 256.792 213.869 256.498 212.751C268.63 206.453 280.763 200.159 292.895 193.862C296.647 209.605 296.695 225.363 293.048 241.127C292.76 242.371 292.505 243.585 292.697 244.86L292.718 244.83C292.52 244.959 292.326 245.085 292.128 245.214L292.125 245.211Z" fill="#F4BA92"/>
<path d="M292.892 193.862C280.76 200.159 268.628 206.453 256.495 212.75C254.039 207.389 251.125 202.297 247.571 197.58C248.621 197.433 249.406 198.096 250.285 198.471C260.046 202.645 270.649 195.871 271.11 185.286C271.329 180.296 270.079 175.969 266.849 172.098C264.124 168.829 261.671 165.333 259.098 161.936C267.467 163.966 275.752 166.341 283.852 169.228C290.143 171.471 293.984 177.894 293.744 184.605C293.633 187.697 293.186 190.776 292.892 193.862Z" fill="#8A8AD9"/>
<path d="M237.711 161.597C237.93 166.161 238.149 170.725 238.365 175.289C233.351 176.138 228.241 176.383 223.303 177.706C218.292 177.994 213.878 176.521 209.947 173.388C208.346 172.11 207.701 169.999 205.857 168.983C205.371 166.14 204.019 163.483 204.232 160.479C204.738 153.336 208.795 148.268 216.229 145.663C217.992 149.723 219.806 153.762 221.492 157.852C222.049 159.204 222.91 159.705 224.286 159.849C228.017 160.239 231.735 160.734 235.459 161.186C236.209 161.324 236.961 161.459 237.711 161.597Z" fill="#7B4A24"/>
<path d="M223.696 179.445C226.973 189.295 226.673 198.711 220.256 207.359C216.622 212.253 211.518 215.656 205.29 217.291C206.1 214.286 206.823 211.425 207.647 208.598C209.71 201.497 208.895 194.783 204.936 188.522C201.122 182.489 201.089 176.53 205.071 170.581C205.599 171.736 206.37 172.698 207.188 173.67C211.572 178.869 217.321 180.021 223.699 179.445H223.696Z" fill="#7B4A24"/>
<path d="M223.696 179.445C217.318 180.02 211.569 178.869 207.185 173.669C206.364 172.695 205.593 171.732 205.068 170.581C205.332 170.047 205.593 169.516 205.857 168.982C207.698 169.999 208.343 172.11 209.947 173.387C213.878 176.524 218.292 177.996 223.303 177.705C223.585 178.251 223.864 178.797 223.696 179.445Z" fill="#5C3819"/>
<path d="M234.377 137.781C234.32 136.117 232.533 135.514 232.578 133.949C232.395 133.745 232.212 133.538 232.032 133.334C232.038 133.334 232.041 133.334 232.047 133.334C231.6 132.648 230.197 131.37 229.01 132.54C225.855 135.286 225.282 139.643 222.242 142.396C220.676 143.811 218.238 144.693 216.232 145.656C217.996 149.716 219.81 153.755 221.495 157.845C222.053 159.197 222.913 159.698 224.29 159.842C228.02 160.232 231.738 160.727 235.463 161.179C235.085 153.38 234.644 145.581 234.38 137.775L234.377 137.781Z" fill="#F4BA91"/>
<path d="M235.461 161.186C235.083 153.387 234.642 145.587 234.378 137.782C234.321 136.118 232.534 135.515 232.579 133.95C235.221 135.083 236.561 136.705 236.801 139.947C237.338 147.162 237.125 154.394 237.71 161.594C236.96 161.459 236.207 161.321 235.458 161.183L235.461 161.186Z" fill="#DCA882"/>
<path d="M270.838 416.845C269.317 402.28 267.686 387.725 266.31 373.146C265.386 363.334 263.704 344.428 267.17 335.153C267.806 333.45 267.803 331.969 267.359 330.293C262.825 313.117 261.08 298.375 256.636 281.175C253.5 269.034 254.087 257.027 258.324 245.213C258.504 244.712 258.639 244.193 258.795 243.684C259.485 243.714 260.175 243.741 260.864 243.78C273.378 244.472 281.834 244.691 292.689 244.856C292.731 245.927 292.931 249.06 292.973 250.131C292.973 257.36 292.97 264.587 292.967 271.817C292.952 292.852 292.863 320.715 292.952 341.75C293.015 356.51 291.666 371.188 290.751 385.893C290.251 393.935 289.729 401.978 289.198 410.017C289.087 411.699 288.895 415.165 288.739 416.845C282.391 416.965 277.54 416.86 270.832 416.845H270.838Z" fill="#6A6C65"/>
</svg>
