<svg width="500" height="500" viewBox="0 0 500 500" fill="none" xmlns="http://www.w3.org/2000/svg">
<path d="M169.725 313.444C169.591 314.278 169.45 315.1 169.104 315.892C168.364 317.585 168.181 319.419 167.995 321.23C167.69 324.214 167.501 327.208 167.586 330.21C167.828 338.655 169.517 346.757 173.337 354.349C176.715 361.057 181.466 366.555 187.533 370.996C193.306 375.222 199.694 378.009 206.576 379.776C206.892 379.857 207.201 379.954 207.517 380.043C207.773 380.073 208.03 380.084 208.283 380.133C210.072 380.453 211.851 380.828 213.647 381.092C217.382 381.643 221.165 381.524 224.919 381.825C227.698 382.045 230.506 381.922 233.304 381.944C235.253 381.959 237.206 381.844 239.126 382.309C239.691 382.294 240.26 382.275 240.826 382.261C240.811 381.706 240.29 381.572 240 381.245C238.888 379.995 238.984 378.44 240.167 377.253C240.647 376.774 241.201 376.498 241.841 376.312C244.274 375.605 246.699 374.865 249.129 374.147C253.429 372.879 257.733 371.621 262.033 370.349C264.775 369.538 267.509 368.694 270.255 367.886C273.186 367.023 276.128 366.205 279.056 365.338C281.861 364.509 284.655 363.634 287.456 362.801C290.569 361.875 293.691 360.971 296.808 360.052C299.49 359.263 302.165 358.449 304.851 357.679C308.786 356.552 312.752 355.529 316.639 354.234C317.871 353.825 319.132 353.497 320.374 353.118C320.694 353.021 320.999 352.958 321.326 353.062C322.409 353.412 323.105 354.145 323.395 355.227C323.596 355.971 322.889 357.444 322.115 357.913C321.617 358.218 321.085 358.493 320.534 358.679C319.239 359.111 317.923 359.476 316.617 359.87C312.265 361.194 307.908 362.515 303.556 363.847C301.503 364.475 299.457 365.123 297.407 365.751C293.054 367.079 288.698 368.4 284.346 369.728C282.668 370.237 280.99 370.766 279.309 371.268C274.451 372.719 269.592 374.162 264.734 375.613C262.989 376.134 261.252 376.681 259.504 377.186C254.883 378.522 250.26 379.839 245.639 381.171C244.516 381.494 243.411 381.885 242.232 381.963C241.949 381.982 241.744 382.123 241.581 382.339C243.132 382.915 244.773 382.9 246.387 382.975C250.557 383.172 254.735 383.257 258.909 383.443C266.341 383.778 273.77 384.158 281.199 384.522C284 384.66 286.805 384.816 289.606 384.954C296.972 385.322 304.333 385.754 311.703 386.018C314.299 386.111 316.914 385.854 319.511 385.657C322.907 385.396 326.192 384.586 329.429 383.514C331.594 382.796 333.766 382.108 335.875 381.226C338.985 379.932 341.786 378.176 344.271 375.918C345.67 374.646 347.102 373.388 348.352 371.975C351.923 367.942 354.896 363.515 356.737 358.404C358.006 354.889 358.299 351.299 357.704 347.612C357.34 345.358 357.012 343.108 356.12 340.972C354.777 337.751 352.984 334.808 350.718 332.167C348.977 330.136 347.158 328.19 344.937 326.632C342.33 324.805 339.461 323.6 336.415 322.807C334.782 322.383 333.137 321.944 331.419 321.904C330.771 321.889 330.132 321.714 329.488 321.602C328.476 321.431 328.409 321.338 328.837 320.308C329.514 318.682 330.195 317.056 330.943 315.46C332.025 313.143 332.84 310.747 333.349 308.236C333.852 305.766 333.803 303.33 333.309 300.856C331.88 293.732 326.066 285.418 318.953 281.962C316.561 280.798 314.087 280.124 311.42 280.128C307.957 280.128 304.501 280.187 301.093 280.894C300.074 281.106 299.044 281.3 298.05 281.608C296.611 282.051 295.149 282.367 293.672 282.631C287.958 283.658 282.244 284.677 276.538 285.741C266.665 287.579 256.803 289.487 246.923 291.284C243.072 291.984 239.185 292.452 235.313 293.025C233.962 293.226 232.586 293.327 231.403 294.123C230.945 294.967 230.726 295.882 230.633 296.827C230.577 297.396 230.499 297.954 230.239 298.471C230.361 298.866 230.488 299.256 230.611 299.65C233.021 299.119 235.439 298.601 237.846 298.047C241.596 297.18 245.412 296.801 249.237 296.515C252.227 296.288 255.226 296.377 258.22 296.507C260.832 296.622 263.421 296.857 265.735 298.259C265.887 298.352 266.11 298.337 266.3 298.371C266.241 297.82 266.367 297.37 266.854 297.017C269.95 294.777 272.966 292.419 276.166 290.324C276.545 290.075 276.921 289.796 277.337 289.644C278.085 289.368 278.87 289.287 279.588 289.733C280.54 290.324 280.73 291.913 279.904 292.828C279.168 293.646 278.39 294.45 277.527 295.134C275.548 296.704 273.476 298.155 271.516 299.747C270.842 300.294 270.184 300.495 269.38 300.443C269.458 300.781 269.711 300.975 269.961 301.191C273.963 304.717 275.608 309.136 274.945 314.419C274.856 315.122 274.748 315.825 274.648 316.528C275.559 316.528 276.519 316.346 277.378 316.565C279.063 316.997 280.749 316.807 282.434 316.889C283.085 316.919 283.769 316.829 284.376 317.008C285.28 317.276 286.176 317.25 287.088 317.268C288.196 317.291 289.342 317.138 290.402 317.373C291.7 317.655 292.987 317.629 294.282 317.666C294.933 317.685 295.625 317.562 296.231 317.737C297.645 318.146 299.077 318.012 300.502 318.061C301.023 318.079 301.581 317.971 302.061 318.117C303.534 318.567 305.033 318.399 306.525 318.455C307.045 318.474 307.603 318.377 308.079 318.533C309.229 318.905 310.401 318.812 311.569 318.846C312.09 318.861 312.644 318.768 313.128 318.916C314.277 319.27 315.453 319.303 316.613 319.214C317.815 319.121 318.92 319.66 320.091 319.608C321.728 319.538 323.331 319.779 324.939 320.017C326.281 320.218 327.1 321.23 327.011 322.61C326.936 323.801 325.98 324.697 324.656 324.72C322.829 324.749 321.003 324.72 319.176 324.705C318.916 324.705 318.633 324.727 318.402 324.634C317.394 324.24 316.345 324.351 315.307 324.336C314.132 324.318 312.923 324.496 311.792 324.262C309.91 323.875 308.035 323.987 306.153 323.923C305.762 323.909 305.342 323.953 304.992 323.823C304.103 323.492 303.191 323.566 302.284 323.551C301.372 323.533 300.416 323.697 299.553 323.481C297.872 323.064 296.187 323.209 294.502 323.142C294.048 323.124 293.568 323.15 293.147 323.012C292.444 322.781 291.738 322.748 291.023 322.774C288.285 322.886 285.592 322.145 282.847 322.342C282.594 322.361 282.322 322.302 282.084 322.209C281.455 321.967 280.801 321.941 280.153 321.997C277.992 322.171 275.89 321.528 273.74 321.565C273.175 321.576 272.966 321.171 272.84 320.702C272.193 321.193 272.022 322.026 271.486 322.599C271.177 322.93 270.961 323.365 270.615 323.644C269.295 324.705 267.941 325.724 266.59 326.751C265.43 327.632 264.064 328.094 262.74 328.648C260.088 329.76 257.357 330.619 254.541 331.2C252.622 331.594 250.68 331.788 248.727 331.914C246.324 332.07 243.924 332.323 241.521 332.513C238.17 332.781 234.903 332.223 231.63 331.598C229.736 331.237 228.003 330.567 226.351 329.626C225.503 329.143 224.647 328.659 223.818 328.146C222.118 327.089 220.838 325.664 219.923 323.864C218.971 321.982 218.286 320.036 218.07 317.931C217.977 317.008 217.858 316.889 217.036 316.852C214.499 316.744 211.958 316.662 209.418 316.554C206.553 316.431 203.689 316.588 200.824 316.216C196.628 315.673 192.406 315.33 188.195 314.899C186.77 314.754 185.346 314.601 183.921 314.434C181.332 314.129 178.746 313.827 176.139 313.746C175.034 313.712 173.933 313.682 172.835 313.459C171.816 313.255 170.759 313.225 169.722 313.448L169.725 313.444Z" fill="#696D65"/>
<path d="M266.312 298.375C266.122 298.341 265.902 298.356 265.746 298.263C263.429 296.861 260.84 296.626 258.232 296.511C255.237 296.377 252.235 296.291 249.248 296.518C245.424 296.805 241.607 297.188 237.857 298.051C235.451 298.605 233.036 299.122 230.622 299.654C230.722 300.651 230.161 301.206 229.361 301.656C227.687 302.597 226.31 303.929 225.135 305.398C222.974 308.095 221.088 310.985 219.942 314.292C219.748 314.847 219.466 315.364 218.993 315.751C218.606 316.067 218.171 316.164 217.71 316.033C216.713 315.751 216.021 314.594 216.222 313.608C216.59 311.804 217.364 310.134 218.201 308.538C219.808 305.461 221.951 302.757 224.547 300.424C225.953 299.16 227.505 298.308 229.469 298.468C229.729 298.49 229.99 298.475 230.254 298.475C230.514 297.958 230.592 297.4 230.648 296.831C230.741 295.886 230.96 294.971 231.418 294.126C231.277 292.486 231.749 290.909 231.965 289.313C232.3 286.813 232.75 284.332 233.025 281.824C233.326 279.06 233.728 276.311 234.074 273.551C234.096 273.365 234.033 273.168 234.011 272.974C233.676 273.03 233.393 273.175 233.189 273.451C232.341 274.6 231.519 275.768 230.637 276.892C228.877 279.142 227.226 281.497 225.276 283.565C222.914 286.073 220.571 288.613 217.825 290.749C215.712 292.393 213.588 293.981 211.14 295.086C208.629 296.221 206.059 297.043 203.239 296.916C200.907 296.816 198.753 296.224 196.785 294.975C194.244 293.36 192.477 291.028 190.989 288.487C188.969 285.035 187.689 281.274 186.711 277.412C186.201 275.404 185.87 273.358 185.491 271.319C185.201 269.753 185.167 268.22 185.205 266.662C185.223 265.951 185.629 265.624 186.335 265.564C187.247 265.486 187.63 265.717 187.931 266.613C188.095 267.101 188.21 267.61 188.307 268.12C188.709 270.151 189.036 272.201 189.505 274.221C190.42 278.153 191.569 281.999 193.411 285.634C194.497 287.773 195.903 289.603 197.678 291.162C199.631 292.873 201.959 293.65 204.534 293.308C205.806 293.141 207.06 292.739 208.269 292.225C211.929 290.678 214.953 288.219 217.825 285.57C220.213 283.364 222.256 280.824 224.354 278.339C226.325 275.999 228.193 273.592 229.863 271.029C230.183 270.542 230.611 270.125 230.934 269.638C231.225 269.199 231.608 269.091 232.095 269.068C232.969 269.031 233.643 269.232 233.832 270.229C233.862 270.393 234.074 270.519 234.201 270.664C234.543 269.318 235.265 268.217 236.161 267.153C238.002 264.958 239.751 262.681 241.507 260.416C243.861 257.376 246.205 254.326 248.526 251.261C252.819 245.599 257.09 239.919 261.372 234.249C263.689 231.18 266.007 228.111 268.35 225.061C269.184 223.975 270.087 222.944 270.958 221.888C271.285 221.49 271.735 221.173 271.806 220.608C271.747 219.834 271.75 219.068 271.527 218.294C271.244 217.305 271.073 216.263 271.021 215.236C270.906 213.027 270.329 210.891 270.073 208.704C269.916 207.372 269.753 206.014 269.474 204.679C268.971 202.28 268.681 199.836 268.332 197.406C268.146 196.127 268.023 194.836 267.855 193.552C267.692 192.269 267.603 190.967 267.305 189.713C267.004 188.445 266.97 187.15 266.736 185.874C266.315 183.59 266.167 181.254 265.884 178.944C265.739 177.739 264.906 177.017 263.656 177.006C262.223 176.991 260.787 176.998 259.355 177.006C258.578 177.006 257.815 177.114 257.041 177.237C255.579 177.467 254.069 177.668 252.63 177.017C251.975 177.021 251.324 177.006 250.673 177.039C249.72 177.088 249.233 177.519 249.096 178.446C248.943 179.476 248.783 180.506 248.712 181.544C248.634 182.653 248.482 183.743 248.344 184.844C247.987 187.749 247.771 190.673 247.444 193.586C247.139 196.302 246.744 199.006 246.417 201.718C246.261 203.009 246.198 204.307 245.997 205.602C245.614 208.042 245.42 210.512 245.093 212.963C244.963 213.927 244.773 214.894 244.308 215.772C244.297 216.509 243.772 216.929 243.311 217.39C240.863 219.831 238.386 222.237 236.142 224.882C233.78 227.661 231.28 230.332 228.807 233.014C226.284 235.748 223.718 238.438 221.177 241.154C220.6 241.771 220.068 242.433 219.492 243.054C218.692 243.914 217.877 244.762 217.055 245.599C216.932 245.722 216.705 245.833 216.546 245.811C216.237 245.774 216.196 245.48 216.166 245.22C215.991 243.732 215.809 242.247 215.638 240.759C215.415 238.821 215.177 236.883 214.994 234.941C214.797 232.865 214.723 230.778 214.459 228.714C214.354 227.903 214.425 227.323 215.076 226.828C215.437 226.553 215.735 226.184 216.114 225.935C218.033 224.674 219.324 222.911 220.28 220.861C220.556 220.269 220.89 219.704 221.143 219.105C221.575 218.086 222.111 217.078 222.338 216.01C222.847 213.592 223.32 211.163 223.215 208.659C223.126 206.446 223.234 204.236 222.855 202.03C222.423 199.53 222.237 196.99 221.757 194.501C221.225 191.756 220.466 189.055 219.841 186.324C219.555 185.063 219.071 183.821 219.272 182.482L219.287 182.504C218.889 182.422 218.926 182.099 218.9 181.812C217.74 179.96 216.17 178.427 214.857 176.693C214.083 175.67 213.25 174.688 212.822 173.453C212.152 173.36 211.643 172.955 211.096 172.601C210.225 172.036 209.332 171.504 208.421 171.009C205.955 169.674 203.351 168.666 200.661 167.892C198.418 167.248 196.156 166.694 193.783 166.813C192.548 166.873 191.309 166.813 190.074 166.832C189.557 166.839 189.036 166.884 188.526 166.958C186.99 167.185 185.484 167.542 183.996 167.996C183.225 168.361 182.578 168.893 181.95 169.469C179.39 171.82 177.326 174.558 175.566 177.538C175.205 178.152 174.87 178.803 174.662 179.476C173.643 182.776 172.832 186.116 173.077 189.609C173.181 191.094 173.405 192.574 173.572 194.055C173.624 194.17 173.702 194.282 173.728 194.404C174.383 197.388 174.893 200.405 175.767 203.34C176.213 204.835 176.637 206.346 176.946 207.874C177.627 211.252 178.23 214.649 178.862 218.037C179.256 220.147 179.647 222.26 180.03 224.369C180.67 227.888 181.31 231.407 181.942 234.926C182.519 238.129 183.084 241.332 183.653 244.531C184.141 247.284 184.635 250.033 185.115 252.79C185.632 255.736 186.142 258.682 186.644 261.632C186.745 262.216 186.737 262.797 186.473 263.355C186.291 263.738 186.03 263.983 185.591 264.017C184.293 264.121 182.999 264.329 181.704 264.322C178.698 264.303 175.726 264.727 172.735 264.887C172.196 266.796 172.344 268.756 172.233 270.702C172.054 273.878 171.772 277.048 171.567 280.225C171.481 281.59 171.574 282.966 171.433 284.324C171.072 287.828 171.262 291.355 170.968 294.848C170.775 297.192 170.76 299.524 170.67 301.864C170.574 304.33 170.194 306.778 170.209 309.259C170.213 309.955 169.941 310.662 169.748 311.35C169.547 312.06 169.495 312.756 169.744 313.459C170.782 313.236 171.839 313.266 172.858 313.47C173.959 313.694 175.056 313.723 176.161 313.757C178.769 313.835 181.354 314.14 183.943 314.445C185.364 314.612 186.793 314.761 188.218 314.91C192.429 315.342 196.651 315.684 200.847 316.227C203.711 316.599 206.58 316.446 209.44 316.565C211.977 316.673 214.518 316.755 217.059 316.863C217.881 316.896 218 317.019 218.093 317.942C218.305 320.047 218.99 321.993 219.946 323.875C220.857 325.676 222.137 327.1 223.84 328.157C224.67 328.674 225.526 329.154 226.374 329.637C228.025 330.582 229.759 331.248 231.652 331.609C234.93 332.234 238.196 332.792 241.544 332.524C243.947 332.334 246.343 332.082 248.75 331.925C250.703 331.799 252.648 331.605 254.564 331.211C257.38 330.634 260.11 329.771 262.763 328.659C264.087 328.105 265.452 327.644 266.613 326.762C267.963 325.735 269.317 324.716 270.638 323.656C270.984 323.377 271.2 322.941 271.508 322.61C272.048 322.038 272.215 321.204 272.863 320.713C273.469 319.322 274.072 317.931 274.678 316.539C274.778 315.836 274.89 315.133 274.976 314.43C275.641 309.144 273.993 304.725 269.991 301.202C269.745 300.982 269.489 300.793 269.41 300.454C268.384 299.766 267.353 299.074 266.327 298.386L266.312 298.375Z" fill="#FFB68A"/>
<path d="M182.064 77.065C181.432 76.5962 180.692 76.6558 179.989 76.7153C179.003 76.7934 178.036 76.7078 177.061 76.626C169.639 76.001 163.676 78.7427 159.015 84.464C157.605 86.1938 156.504 88.1208 155.474 90.0887C152.859 95.0846 151.006 100.374 149.581 105.817C147.617 113.335 146.181 120.961 145.154 128.665C144.429 134.1 143.864 139.55 143.547 145.026C143.51 145.677 143.384 146.32 143.302 146.967C143.235 147.485 143.134 148.002 143.12 148.522C143.086 149.694 144.027 150.312 145.102 149.839C145.716 149.568 146.14 149.066 146.572 148.575C153.614 140.51 160.392 132.225 166.995 123.792C168.323 122.096 169.639 120.392 170.975 118.699C171.254 118.346 171.455 117.914 171.927 117.728C172.377 117.788 172.485 118.19 172.656 118.506C173.802 120.63 174.929 122.765 176.079 124.889C177.756 127.995 179.553 131.024 181.938 133.657C182.674 134.472 183.34 135.38 184.371 135.886C184.672 135.387 184.988 134.892 185.271 134.383C187.73 129.934 190.553 125.704 193.165 121.344C194.206 119.599 195.508 118.048 196.97 116.649C198.518 115.169 200.37 114.596 202.524 114.864C205.244 115.202 207.907 115.816 210.578 116.385C212.066 116.702 213.554 116.769 215.042 116.501C216.322 116.27 217.575 115.898 218.855 115.667C220.246 115.418 221.429 114.782 222.519 113.926C226.109 111.11 229.814 108.458 233.635 105.962C235.115 104.991 236.629 104.128 238.333 103.618C238.586 100.966 237.998 98.4252 237.239 95.9254C234.274 86.1938 225.38 77.3291 215.648 74.3084C212.181 73.2334 208.629 72.9172 205.02 73.0176C199.656 73.1664 194.601 74.5726 189.78 76.8715C188.303 77.5746 186.83 78.2554 185.159 78.3409C185.13 79.8661 184.378 81.0863 183.403 82.1502C182.046 83.6382 180.599 85.0406 179.311 86.6068C177.857 88.3775 176.562 90.2412 175.461 92.2314C174.226 94.4597 173.456 96.8628 172.935 99.3738C172.437 101.792 171.801 104.173 171.838 106.665C171.842 106.922 171.816 107.201 171.719 107.431C171.433 108.12 171.47 108.837 171.466 109.555C171.466 111.058 171.466 112.557 171.466 114.06C171.466 114.451 171.481 114.849 171.429 115.232C171.328 115.95 170.882 116.437 170.197 116.59C167.675 117.155 164.498 114.853 164.766 112.379C165.027 109.998 164.811 107.591 165.109 105.177C165.499 102 166.098 98.9162 167.084 95.877C167.992 93.0721 169.26 90.4346 170.77 87.9311C172.113 85.7065 173.605 83.5638 175.551 81.7856C176.272 81.1272 176.942 80.4092 177.634 79.7173C178.002 79.349 178.456 79.0031 178.567 78.4823C178.854 77.1468 179.743 76.931 180.9 77.0724C181.283 77.1208 181.681 77.065 182.072 77.0538L182.064 77.065Z" fill="#7B4923"/>
<path d="M238.326 103.618C236.626 104.128 235.112 104.991 233.628 105.962C229.808 108.462 226.102 111.11 222.513 113.926C221.423 114.782 220.24 115.418 218.848 115.667C217.569 115.898 216.315 116.27 215.035 116.501C213.547 116.768 212.059 116.701 210.571 116.385C207.9 115.816 205.237 115.202 202.518 114.864C200.364 114.596 198.507 115.169 196.964 116.649C195.502 118.048 194.203 119.599 193.158 121.344C190.55 125.704 187.727 129.933 185.264 134.383C184.982 134.892 184.665 135.383 184.364 135.885C184.353 141.923 184.442 147.964 184.282 153.998C184.215 156.453 184.055 158.916 184.044 161.379C184.044 162.026 184.119 162.669 184.156 163.317C185.067 163.272 186.005 163.346 186.879 163.142C187.656 162.96 188.419 162.934 189.196 162.893C190.573 162.818 191.916 163.175 193.262 163.227C194.773 163.283 196.246 163.536 197.704 163.785C200.646 164.288 203.544 165.054 206.353 166.092C208.615 166.925 210.858 167.814 212.736 169.399C212.874 169.514 213.101 169.522 213.287 169.577C213.838 167.636 214.381 165.694 214.942 163.756C215.233 162.755 215.493 161.739 215.869 160.772C216.609 158.86 217.825 157.707 220.176 157.774C221.482 157.811 222.788 157.793 224.09 157.83C226.337 157.897 228.502 157.506 230.592 156.699C234.119 155.337 236.139 152.685 236.846 149.051C237.303 146.692 237.463 144.274 238.107 141.945C238.728 139.695 239.93 137.939 242.31 137.199C243.054 136.968 243.769 136.659 244.531 136.469C245.484 136.235 246.406 135.897 247.232 135.35C248.363 134.602 248.824 133.43 248.478 132.125C248.277 131.369 248.021 130.629 247.585 129.963C246.522 128.319 245.406 126.719 244.111 125.243C242.824 123.769 241.619 122.237 240.547 120.593C238.903 118.078 237.973 115.314 237.772 112.349C237.687 111.069 237.902 109.741 238.174 108.476C238.52 106.851 238.471 105.244 238.326 103.618Z" fill="#FFB68A"/>
<path d="M239.129 382.306C237.209 381.841 235.256 381.956 233.307 381.941C230.509 381.919 227.701 382.041 224.922 381.822C221.165 381.524 217.385 381.64 213.65 381.089C211.854 380.825 210.076 380.449 208.286 380.129C208.033 380.085 207.773 380.07 207.52 380.04C207.646 380.743 207.71 381.469 207.914 382.146C208.409 383.786 208.238 385.512 208.602 387.171C209.008 389.013 209.253 390.888 209.618 392.74C210.34 396.445 211.054 400.15 211.85 403.841C212.553 407.092 213.457 410.284 214.804 413.345C215.756 415.503 217.337 417.117 219.074 418.62C219.219 418.747 219.42 418.814 219.562 418.944C222.485 421.626 226.124 422.868 229.795 424.04C232.526 424.914 235.256 425.807 238.072 426.361C242.094 427.154 246.107 428.05 250.263 427.812C251.736 427.727 253.097 427.388 254.362 426.659C256.047 425.684 256.933 424.215 257.331 422.292C257.688 420.562 257.279 419.093 256.494 417.623C255.906 416.526 255.255 415.48 254.444 414.532C252.324 412.058 250.24 409.551 248.105 407.088C247.294 406.154 246.256 405.396 245.546 404.399C244.824 403.39 244.928 402.036 244.56 400.865C243.753 398.316 242.938 395.772 242.168 393.213C241.249 390.155 240.364 387.089 239.482 384.02C239.322 383.459 239.251 382.875 239.14 382.298L239.129 382.306Z" fill="#FFB68B"/>
<path d="M219.26 182.47C219.059 183.809 219.543 185.052 219.829 186.313C220.451 189.043 221.213 191.744 221.745 194.489C222.225 196.978 222.411 199.519 222.843 202.019C223.222 204.225 223.114 206.438 223.204 208.648C223.304 211.155 222.835 213.584 222.326 215.998C222.099 217.066 221.563 218.074 221.131 219.094C220.879 219.692 220.544 220.258 220.268 220.849C219.312 222.895 218.022 224.662 216.102 225.923C215.723 226.173 215.425 226.541 215.064 226.816C214.413 227.311 214.342 227.895 214.447 228.702C214.711 230.767 214.785 232.854 214.982 234.93C215.165 236.871 215.406 238.81 215.626 240.748C215.797 242.236 215.976 243.72 216.154 245.208C216.184 245.468 216.225 245.762 216.534 245.799C216.693 245.818 216.92 245.71 217.043 245.587C217.869 244.75 218.68 243.902 219.48 243.043C220.056 242.422 220.588 241.76 221.165 241.142C223.706 238.426 226.273 235.737 228.795 233.003C231.268 230.32 233.768 227.65 236.131 224.871C238.377 222.229 240.851 219.823 243.299 217.379C243.76 216.921 244.281 216.497 244.296 215.76C242.67 213.249 240.989 210.772 239.438 208.216C236.93 204.087 233.925 200.322 231.068 196.446C227.816 192.038 224.007 188.098 220.655 183.776C220.268 183.274 219.922 182.69 219.26 182.459V182.47Z" fill="#8A8ADD"/>
<path d="M172.716 264.876C175.707 264.713 178.679 264.292 181.685 264.311C182.979 264.318 184.278 264.11 185.572 264.006C186.011 263.969 186.272 263.727 186.454 263.344C186.718 262.786 186.725 262.206 186.625 261.621C186.119 258.672 185.609 255.725 185.096 252.779C184.612 250.026 184.121 247.273 183.634 244.521C183.065 241.318 182.499 238.115 181.923 234.916C181.29 231.396 180.654 227.877 180.011 224.358C179.628 222.245 179.237 220.136 178.843 218.027C178.21 214.638 177.608 211.245 176.927 207.864C176.618 206.335 176.194 204.825 175.748 203.329C174.873 200.394 174.364 197.377 173.709 194.394C173.683 194.271 173.605 194.159 173.553 194.044C173.531 194.829 173.49 195.61 173.486 196.391C173.445 207.745 173.538 219.106 173.322 230.455C173.199 236.779 173.233 243.114 172.935 249.431C172.727 253.865 172.768 258.3 172.653 262.73C172.634 263.444 172.69 264.162 172.712 264.88L172.716 264.876Z" fill="#8C8BDE"/>
<path d="M241.592 382.339C241.759 382.123 241.96 381.982 242.243 381.963C243.422 381.885 244.527 381.494 245.65 381.171C250.271 379.839 254.895 378.522 259.515 377.187C261.263 376.681 263 376.134 264.745 375.613C269.603 374.162 274.462 372.719 279.32 371.268C281.002 370.766 282.679 370.241 284.357 369.728C288.709 368.404 293.066 367.083 297.418 365.751C299.471 365.123 301.517 364.475 303.567 363.847C307.919 362.515 312.272 361.194 316.628 359.87C317.934 359.472 319.251 359.107 320.545 358.68C321.096 358.497 321.628 358.218 322.126 357.913C322.9 357.445 323.607 355.971 323.406 355.227C323.116 354.145 322.416 353.412 321.338 353.062C321.01 352.958 320.705 353.018 320.385 353.118C319.143 353.498 317.882 353.825 316.65 354.234C312.763 355.529 308.797 356.548 304.862 357.679C302.176 358.449 299.501 359.264 296.819 360.052C293.702 360.971 290.581 361.871 287.467 362.801C284.662 363.635 281.872 364.509 279.067 365.338C276.14 366.205 273.197 367.027 270.266 367.887C267.52 368.694 264.79 369.535 262.044 370.349C257.744 371.622 253.44 372.879 249.14 374.147C246.711 374.865 244.285 375.606 241.852 376.312C241.209 376.498 240.658 376.774 240.178 377.254C238.992 378.44 238.899 379.995 240.011 381.245C240.301 381.572 240.826 381.706 240.837 382.261L241.599 382.343L241.592 382.339Z" fill="#494A45"/>
<path d="M234.192 270.672C234.066 270.527 233.854 270.4 233.824 270.237C233.638 269.24 232.961 269.039 232.087 269.076C231.6 269.095 231.216 269.206 230.926 269.645C230.603 270.133 230.175 270.545 229.855 271.036C228.185 273.6 226.317 276.006 224.346 278.346C222.247 280.831 220.205 283.372 217.817 285.578C214.945 288.227 211.921 290.686 208.26 292.233C207.051 292.746 205.798 293.144 204.525 293.316C201.951 293.658 199.622 292.884 197.669 291.169C195.895 289.61 194.485 287.784 193.403 285.641C191.561 282.007 190.412 278.16 189.497 274.228C189.028 272.212 188.701 270.162 188.299 268.127C188.198 267.622 188.087 267.112 187.923 266.621C187.622 265.724 187.239 265.494 186.327 265.572C185.62 265.631 185.215 265.959 185.196 266.669C185.159 268.224 185.193 269.76 185.483 271.327C185.862 273.365 186.193 275.411 186.703 277.42C187.681 281.281 188.961 285.042 190.981 288.494C192.469 291.035 194.236 293.368 196.777 294.982C198.741 296.232 200.898 296.82 203.231 296.924C206.051 297.047 208.621 296.225 211.132 295.094C213.584 293.989 215.708 292.4 217.817 290.756C220.562 288.621 222.91 286.08 225.268 283.573C227.217 281.501 228.869 279.146 230.629 276.899C231.507 275.776 232.329 274.604 233.181 273.458C233.385 273.183 233.672 273.038 234.003 272.982C234.066 272.212 234.129 271.442 234.192 270.676V270.672Z" fill="#EAA479"/>
<path d="M182.065 77.0647C181.674 77.0721 181.276 77.1279 180.893 77.0833C179.732 76.9419 178.843 77.1577 178.561 78.4932C178.449 79.014 177.995 79.3599 177.627 79.7282C176.935 80.4201 176.265 81.1381 175.544 81.7965C173.598 83.5747 172.106 85.7174 170.763 87.942C169.253 90.4455 167.985 93.0793 167.077 95.8879C166.091 98.9271 165.496 102.011 165.102 105.188C164.804 107.602 165.02 110.005 164.759 112.39C164.488 114.864 167.665 117.163 170.191 116.601C170.879 116.448 171.325 115.961 171.422 115.243C171.474 114.856 171.459 114.462 171.459 114.071C171.459 112.568 171.459 111.069 171.459 109.566C171.459 108.848 171.422 108.134 171.712 107.442C171.809 107.208 171.835 106.933 171.831 106.676C171.794 104.183 172.426 101.799 172.928 99.3847C173.449 96.87 174.219 94.4706 175.454 92.2423C176.555 90.2521 177.85 88.3884 179.305 86.6177C180.592 85.0515 182.039 83.6491 183.397 82.1611C184.371 81.0934 185.123 79.877 185.152 78.3518C184.155 77.8496 183.244 77.1391 182.065 77.0758V77.0647Z" fill="#5D3718"/>
<path d="M252.618 177.017C254.058 177.664 255.568 177.467 257.03 177.236C257.804 177.113 258.566 177.006 259.344 177.006C260.776 177.002 262.212 176.991 263.644 177.006C264.89 177.02 265.724 177.738 265.873 178.944C266.155 181.254 266.304 183.586 266.724 185.874C266.959 187.15 266.992 188.445 267.294 189.713C267.591 190.967 267.677 192.269 267.844 193.552C268.012 194.835 268.134 196.126 268.32 197.406C268.674 199.835 268.96 202.279 269.462 204.679C269.741 206.014 269.905 207.372 270.061 208.704C270.318 210.891 270.898 213.026 271.01 215.236C271.062 216.263 271.233 217.308 271.516 218.294C271.739 219.068 271.735 219.834 271.795 220.608C272.714 219.923 273.402 219.086 273.532 217.896C273.562 217.639 273.603 217.375 273.577 217.118C273.264 214.339 272.937 211.561 272.621 208.778C272.461 207.353 272.39 205.925 272.215 204.5C271.817 201.271 271.613 198.016 271.3 194.776C271.118 192.897 270.861 191.026 270.668 189.151C270.493 187.466 270.34 185.781 270.21 184.092C270.039 181.882 269.905 179.673 269.749 177.463C269.726 177.139 269.726 176.797 269.607 176.507C269.187 175.484 268.551 174.755 267.301 174.755C265.084 174.755 262.863 174.718 260.646 174.64C258.953 174.58 257.268 174.431 255.576 174.327C255.185 174.305 254.794 174.286 254.4 174.294C253.496 174.309 253.195 174.491 252.96 175.294C252.797 175.852 252.726 176.44 252.614 177.013L252.618 177.017Z" fill="#EAA67E"/>
<path d="M213.289 169.573C213.103 169.517 212.877 169.51 212.739 169.394C210.86 167.81 208.621 166.921 206.355 166.087C203.547 165.049 200.649 164.287 197.706 163.781C196.248 163.532 194.775 163.275 193.265 163.223C191.918 163.175 190.575 162.817 189.199 162.888C188.421 162.929 187.659 162.955 186.881 163.137C186.007 163.342 185.07 163.268 184.158 163.312C183.894 164.86 184.021 166.422 183.976 167.981C185.46 167.527 186.97 167.17 188.507 166.943C189.016 166.869 189.537 166.824 190.054 166.816C191.289 166.798 192.532 166.857 193.763 166.798C196.137 166.683 198.398 167.233 200.641 167.877C203.331 168.65 205.935 169.659 208.401 170.994C209.313 171.489 210.206 172.021 211.076 172.586C211.623 172.94 212.133 173.345 212.802 173.438C213.022 172.155 213.475 170.905 213.286 169.569L213.289 169.573Z" fill="#E7A47C"/>
<path d="M218.885 181.801C218.915 182.087 218.878 182.411 219.272 182.493C219.298 182.176 219.179 181.938 218.885 181.801Z" fill="#8A8ADD"/>
<path d="M274.659 316.532C274.053 317.923 273.45 319.315 272.844 320.706C272.971 321.175 273.175 321.58 273.741 321.569C275.891 321.528 277.993 322.175 280.154 322C280.801 321.948 281.456 321.974 282.085 322.212C282.323 322.302 282.598 322.361 282.847 322.346C285.592 322.153 288.286 322.889 291.024 322.778C291.738 322.748 292.445 322.782 293.148 323.016C293.568 323.154 294.048 323.128 294.502 323.146C296.187 323.217 297.876 323.072 299.554 323.485C300.417 323.697 301.373 323.537 302.284 323.555C303.192 323.574 304.103 323.5 304.992 323.827C305.346 323.957 305.766 323.912 306.153 323.927C308.035 323.991 309.914 323.879 311.792 324.266C312.92 324.496 314.132 324.318 315.308 324.34C316.346 324.359 317.395 324.244 318.403 324.638C318.634 324.727 318.92 324.705 319.177 324.709C321.003 324.72 322.83 324.753 324.656 324.723C325.981 324.701 326.937 323.805 327.011 322.614C327.1 321.234 326.282 320.222 324.939 320.021C323.332 319.783 321.729 319.541 320.092 319.612C318.92 319.664 317.815 319.125 316.614 319.218C315.453 319.307 314.277 319.274 313.128 318.92C312.648 318.771 312.094 318.864 311.569 318.85C310.401 318.816 309.233 318.909 308.08 318.537C307.604 318.385 307.046 318.478 306.525 318.459C305.033 318.407 303.534 318.571 302.061 318.12C301.581 317.975 301.023 318.083 300.502 318.065C299.077 318.016 297.645 318.154 296.232 317.741C295.625 317.566 294.937 317.689 294.282 317.67C292.984 317.633 291.701 317.659 290.402 317.376C289.339 317.146 288.196 317.295 287.088 317.272C286.18 317.254 285.28 317.28 284.376 317.012C283.77 316.833 283.085 316.923 282.434 316.893C280.749 316.811 279.064 317.001 277.379 316.569C276.523 316.35 275.563 316.532 274.648 316.532H274.659Z" fill="#494A45"/>
<path d="M230.249 298.479C229.989 298.479 229.725 298.494 229.464 298.471C227.5 298.311 225.949 299.163 224.543 300.428C221.946 302.761 219.803 305.465 218.196 308.541C217.363 310.137 216.586 311.808 216.217 313.612C216.017 314.598 216.708 315.755 217.705 316.037C218.167 316.167 218.602 316.074 218.989 315.755C219.461 315.364 219.748 314.851 219.937 314.296C221.083 310.989 222.969 308.099 225.131 305.402C226.306 303.932 227.682 302.601 229.356 301.659C230.156 301.209 230.722 300.655 230.618 299.658C230.495 299.264 230.368 298.873 230.246 298.479H230.249Z" fill="#E9A379"/>
<path d="M266.311 298.375C267.338 299.063 268.369 299.755 269.395 300.443C270.199 300.495 270.857 300.294 271.53 299.747C273.491 298.155 275.563 296.705 277.542 295.135C278.401 294.45 279.183 293.647 279.919 292.828C280.741 291.913 280.552 290.325 279.603 289.733C278.885 289.287 278.1 289.369 277.352 289.644C276.936 289.8 276.556 290.079 276.18 290.325C272.981 292.419 269.964 294.778 266.869 297.017C266.378 297.37 266.252 297.821 266.315 298.371L266.311 298.375Z" fill="#4A4B44"/>
</svg>
