<svg width="501" height="501" viewBox="0 0 501 501" fill="none" xmlns="http://www.w3.org/2000/svg">
<path d="M490.103 312.816C489.982 317.269 470.967 314.501 465.19 315.584L458.451 312.335C416.689 314.019 398.637 305.956 398.637 305.956C373.724 308.122 325.584 309.687 316.197 307.761C306.809 305.836 308.494 286.7 318.122 286.219C327.63 285.737 336.175 286.459 345.683 286.7C355.19 286.941 390.573 289.348 398.877 290.431C399.96 290.551 458.571 301.984 458.571 301.984C458.571 301.984 460.978 301.984 465.07 300.661C470.606 298.855 478.91 299.577 483.363 301.744C487.335 303.669 490.343 308.243 490.103 312.816Z" fill="#ECAD83"/>
<path d="M471.088 313.78C471.088 313.78 477.106 313.418 477.587 316.668C478.069 319.316 477.828 320.278 465.191 315.585C465.312 315.464 465.552 313.659 471.088 313.78Z" fill="#ECAD83"/>
<path d="M231.468 317.68C231.468 317.68 223.014 322.002 210.517 322.002C192.751 322.002 186.013 316.72 186.013 316.72C186.013 316.72 177.069 279.745 185.89 278.665C202.43 276.504 215.54 274.343 223.504 273.023C229.017 272.182 236.001 297.032 236.001 297.032L231.468 317.68Z" fill="#3D3C3C"/>
<path d="M310.834 266.005C325.64 265.765 329.131 278.154 344.779 286.453C346.705 287.536 351.881 296.677 352.001 301.488C352.001 306.781 351.158 312.193 346.705 316.163C343.334 319.17 332.742 325.304 305.177 319.771C292.297 318.087 244.269 311.111 229.825 317.967C229.825 317.967 231.631 301.488 229.344 291.866C227.057 282.243 222.001 273.343 222.001 273.343C267.019 270.696 285.075 273.222 299.881 271.298C299.881 271.177 306.621 266.126 310.834 266.005Z" fill="#FF8AA0"/>
<path d="M351.957 289.911C351.957 289.911 362.036 293.943 371.199 296.631L372.001 313.002C362.953 309.581 350.582 311.78 350.582 311.78C352.301 296.509 347.49 290.034 346.001 286.002L351.957 289.911Z" fill="#ECAD83"/>
<path d="M388.687 273.358C394.936 268.842 401.066 271.894 404.551 274.091C415.368 281.048 416.209 288.372 415.969 297.771C415.608 310.222 383.398 314.006 377.99 312.785C363.929 309.611 359.001 289.715 359.001 281.537C359.001 272.626 362.006 274.945 365.491 275.311C365.611 275.311 366.092 274.945 366.092 274.945C367.294 274.945 368.976 275.067 370.539 274.335C370.539 274.335 371.62 274.701 372.221 274.701C372.582 274.701 372.822 274.701 373.063 274.213C373.543 272.87 374.024 271.649 374.505 271.283C376.187 269.696 385.802 275.433 388.687 273.358Z" fill="#F6BB92"/>
<path d="M368.543 279.002C368.543 279.002 367.857 278.263 368.028 274.777C368.371 274.354 369.229 273.615 370.772 274.248C371.801 274.671 369.057 276.467 368.543 279.002Z" fill="#D6876B"/>
<path d="M368.001 279.002C368.001 279.002 366.523 278.256 366.001 274.955C366.088 274.529 366.349 274.103 366.523 274.103C367.392 273.677 367.74 274.742 367.74 274.742C367.653 278.15 368.001 279.002 368.001 279.002Z" fill="#CC785E"/>
<path d="M417.984 299.249C417.618 314.371 395.254 333.884 370.08 312.664C368.369 311.2 366.414 308.029 370.08 303.395C372.646 300.102 376.068 297.907 376.068 297.907C377.046 297.297 378.146 296.566 379.368 295.834C380.712 295.102 388.166 296.2 388.411 294.736C391.099 279.98 399.165 273.882 403.198 274.004C412.607 275.955 418.351 283.028 417.984 299.249Z" fill="#602F0F"/>
<path d="M379.292 301.141C372.985 298.736 372.752 295.97 373.102 292.002L383.03 294.527L387.001 296.692C386.651 300.54 385.716 303.546 379.292 301.141Z" fill="#F6BB92"/>
<path d="M393.956 321.181C396.966 324.48 404.49 323.16 410.76 318.321C417.031 313.481 419.789 306.882 416.78 303.692C413.77 300.392 408.002 302.152 401.731 306.992C395.461 311.831 390.947 317.991 393.956 321.181Z" fill="#4C230C"/>
<path d="M386.842 293.197C388.045 293.438 389.128 293.438 389.971 293.438C391.295 293.438 392.017 293.317 392.017 293.317L390.332 297.65C389.73 297.65 389.008 297.65 388.406 297.65C388.406 297.65 388.526 297.168 388.887 296.326V296.446C387.925 295.845 386.48 295.002 384.314 294.28C384.314 294.16 383.111 292.475 386.842 293.197Z" fill="#602F0F"/>
<path d="M394.543 324.369C397.552 328.099 405.374 326.414 411.994 320.638C418.613 314.861 421.501 307.038 418.493 303.307C415.484 299.576 409.466 301.743 402.847 307.52C396.228 313.296 391.534 320.638 394.543 324.369Z" fill="#602F0F"/>
<path d="M409.023 321.938C409.363 322.27 411.179 321.274 413.108 319.724C415.037 318.064 416.286 316.403 415.945 316.071C415.605 315.739 414.129 316.625 412.314 318.285C410.384 319.835 408.796 321.606 409.023 321.938Z" fill="#4C230C"/>
<path d="M6.25357 289.276C7.67163 294.283 7.55347 312.306 7.67165 314.184C8.14433 318.69 10.6259 322.945 14.6438 321.819C17.7162 320.943 20.316 319.566 22.2068 319.315C32.4877 318.064 50.2135 317.814 73.257 320.066C75.975 320.317 77.5112 320.442 80.4655 320.317C92.1646 319.941 85.4288 292.53 81.1746 293.407C61.3217 297.787 31.1879 305.172 18.5435 307.3C18.5435 307.3 15.8255 283.268 11.4532 284.019C8.97155 284.52 4.95368 284.395 6.25357 289.276Z" fill="#F6BB92"/>
<path d="M116.847 314.53C106.908 317.313 92.1214 321.549 80.001 320.944C81.5766 317.071 80.9706 297.253 80.001 293.502C85.334 291.929 115.029 287.301 115.029 287.301C125.695 286.212 188.358 274.473 207.75 277.499C212.72 278.104 217.204 279.072 220.84 280.161C227.87 282.218 200.963 321.428 193.812 320.339C173.571 317.071 150.542 311.383 143.27 311.02C133.573 310.415 126.665 311.625 116.847 314.53Z" fill="#3D3C3C"/>
<path d="M495.997 319.558C495.877 324.011 476.862 321.243 471.085 322.326L464.345 319.077C422.584 320.762 404.531 312.698 404.531 312.698C379.619 314.864 331.479 316.429 322.091 314.503C312.704 312.578 314.389 293.442 324.017 292.961C333.525 292.479 342.07 293.201 351.577 293.442C361.085 293.683 396.468 296.09 404.772 297.173C405.855 297.293 464.466 308.727 464.466 308.727C464.466 308.727 466.873 308.727 470.965 307.403C476.501 305.598 484.805 306.32 489.258 308.486C493.229 310.532 496.118 315.105 495.997 319.558Z" fill="#F6BB92"/>
<path d="M476.983 320.522C476.983 320.522 483 320.161 483.482 323.41C483.963 326.058 483.723 327.021 471.086 322.327C471.086 322.327 471.326 320.522 476.983 320.522Z" fill="#F6BB92"/>
</svg>
