<svg width="500" height="500" viewBox="0 0 500 500" fill="none" xmlns="http://www.w3.org/2000/svg">
<path d="M382.947 263.495L369.683 276.372L370.988 286.144H399.74L395.789 278.383L387.428 266.988L385.205 265.153L382.947 263.495Z" fill="#7A4821"/>
<path d="M128.449 279.97C128.731 279.935 129.013 279.864 129.295 279.829C130.142 280.182 130.812 279.864 131.377 279.194C131.765 279.124 132.153 279.053 132.576 278.982C135.293 278.594 138.009 278.1 140.514 276.76C140.796 276.725 141.043 276.654 141.325 276.619C141.855 277.042 142.313 276.689 142.807 276.548C146.123 275.666 149.404 274.749 152.72 273.902" fill="#696C65"/>
<path d="M214.351 266.634C222.042 266.528 229.733 266.317 237.459 266.846C240.669 267.058 243.915 267.163 247.125 266.811C248.995 266.846 250.829 266.881 252.699 266.916C252.981 267.199 253.228 267.446 253.51 267.728C253.616 268.292 253.792 268.892 253.828 269.457C254.145 276.336 254.569 283.215 254.674 290.13C254.745 295.562 255.521 301.031 254.992 306.464C252.311 309.497 248.642 310.062 244.938 310.379C236.224 311.156 227.651 310.168 219.29 307.663C217.632 307.169 216.009 306.569 214.598 305.546C212.764 304.206 210.823 303.994 208.601 304.17C197.171 305.052 185.776 303.641 174.346 303.147C166.69 302.83 159.07 301.913 151.415 301.807C147.922 301.771 144.606 302.724 141.29 303.571C129.154 306.675 116.912 307.028 104.53 306.005C98.0738 305.476 91.6179 305.335 85.162 304.876C79.2705 304.453 73.3084 304.523 67.4875 303.359C67.2406 302.23 66.923 301.066 66.7467 299.937C65.9705 294.857 65.2297 289.742 64.4536 284.661C64.3125 283.709 64.3125 282.827 65.2297 282.227C65.4414 282.263 65.653 282.298 65.8647 282.333C66.0411 282.333 66.1822 282.368 66.3586 282.368C66.9936 282.333 67.6639 282.298 68.2989 282.263C68.5459 282.333 68.7928 282.439 69.0398 282.439" fill="#696C65"/>
<path d="M326.396 268.116C328.724 269.175 330.029 271.397 331.758 273.126C332.957 274.325 334.051 275.595 335.568 276.407C334.369 277.782 335.039 278.453 336.485 278.806C337.367 279.017 338.32 279.052 339.166 279.335C345.234 281.381 351.479 282.616 357.864 283.286C361.321 283.639 364.814 283.321 368.271 283.886C369.823 284.168 371.658 284.521 373.21 283.498C373.739 283.462 374.304 283.427 374.833 283.392C376.138 283.462 377.443 283.498 378.749 283.568C379.49 284.168 380.336 283.956 381.148 283.85C381.395 283.886 381.677 283.886 381.924 283.921C382.665 284.591 383.511 284.344 384.323 284.203C384.711 284.238 385.099 284.274 385.487 284.309C385.875 284.803 386.263 284.768 386.651 284.309C387.462 284.309 388.239 284.309 389.05 284.344C391.273 284.768 393.495 285.261 395.753 284.662C396.952 284.662 398.187 284.662 399.387 284.626C400.692 285.544 402.209 284.732 403.585 285.12C407.395 285.12 411.24 285.12 415.05 285.12C423.305 285.12 431.525 284.979 439.745 284.485C442.25 284.309 444.402 285.755 446.801 286.214C448.741 286.602 450.611 287.272 452.516 287.802C456.679 288.93 458.689 292.388 457.596 296.586C457.419 297.221 457.067 297.397 456.502 297.468C453.574 297.962 450.717 298.597 447.718 298.561C441.932 298.491 436.147 298.491 430.361 298.667C421.4 298.914 412.475 299.549 403.585 300.502C401.644 300.713 399.634 300.149 397.728 300.996C397.587 301.031 397.482 301.031 397.34 301.066L397.305 301.031C397.164 300.114 396.423 300.396 395.894 300.431C387.921 300.89 379.948 301.807 371.975 301.983C370.917 302.019 369.576 301.701 368.8 302.936C360.369 302.442 351.972 303.5 343.576 303.606C337.72 303.677 331.864 304.629 326.008 303.783C325.408 303.077 324.914 302.125 324.032 301.913C320.928 301.207 318.105 299.761 315.318 298.314C308.016 294.575 304.841 289.707 306.005 281.628C306.216 280.181 306.816 279.052 307.839 278.029C313.096 272.949 319.234 269.598 326.396 268.116Z" fill="#F7BB92"/>
<path d="M326.395 268.116C319.234 269.598 313.095 272.949 307.874 278.065C306.851 279.088 306.251 280.181 306.04 281.663C304.875 289.706 308.051 294.575 315.353 298.35C318.175 299.796 320.962 301.242 324.067 301.948C324.984 302.16 325.443 303.112 326.042 303.818C326.042 306.005 324.667 306.675 322.797 306.64C320.151 306.605 317.505 306.287 314.894 306.428C304.205 306.993 293.516 306.675 282.826 306.64C281.98 306.64 280.886 307.028 280.428 305.793C280.428 304.876 280.498 303.959 280.428 303.042C279.898 298.032 279.228 293.023 278.805 287.978C278.276 282.016 277.923 276.054 277.499 270.092C277.641 269.527 277.746 268.963 277.288 268.504C277.217 267.446 277.147 266.387 277.111 265.329C277.499 264.059 276.124 262.366 277.993 261.413C278.699 261.343 279.404 261.272 280.11 261.166C281.063 261.413 281.945 261.131 282.756 260.637C283.461 260.531 284.167 260.461 284.873 260.355C285.966 260.531 286.989 260.355 287.907 259.79C288.471 259.72 289.035 259.649 289.635 259.579C290.482 259.861 291.152 259.614 291.646 258.873C291.822 258.767 291.999 258.661 292.175 258.591C292.563 258.626 292.775 258.414 292.846 258.062C295.244 256.474 297.291 254.287 300.042 253.229C305.793 251.077 310.908 252.241 315.283 256.509C318.952 260.108 322.55 263.777 326.148 267.446L326.184 267.622L326.36 267.693C326.325 267.869 326.36 268.01 326.395 268.116Z" fill="#8A8AD9"/>
<path d="M277.5 270.127C277.923 276.089 278.276 282.051 278.805 288.013C279.264 293.023 279.899 298.032 280.428 303.077C280.534 303.995 280.428 304.912 280.428 305.829C279.828 306.217 279.264 306.676 278.452 306.676C270.62 306.57 262.753 306.887 254.922 306.499C255.451 301.031 254.675 295.598 254.604 290.165C254.534 283.286 254.075 276.407 253.757 269.492C253.722 268.928 253.546 268.328 253.44 267.764C254.816 267.058 256.297 267.446 257.709 267.376C260.002 267.305 262.401 267.658 264.588 267.164C267.234 266.564 269.703 265.294 272.243 264.306C275.418 263.072 275.418 263.072 277.076 265.365C277.147 266.423 277.218 267.481 277.253 268.54C276.724 269.14 276.547 269.704 277.5 270.127Z" fill="#F7BB92"/>
<path d="M65.1946 282.192C64.2774 282.792 64.2774 283.674 64.4185 284.627C65.1946 289.707 65.9355 294.822 66.7116 299.902C66.888 301.066 67.2055 302.195 67.4525 303.324C63.2191 303.183 58.9857 303.783 54.7522 302.125C50.3072 300.361 47.8024 297.433 46.5324 293.058C44.8038 287.096 43.2515 281.134 42.1932 275.031C41.0643 268.434 44.8038 263.248 50.8716 263.495C53.7997 263.636 56.1634 264.871 57.7156 267.517C59.7971 271.115 61.9138 274.678 64.0305 278.241C64.8066 279.476 64.5244 280.958 65.1946 282.192Z" fill="#F7BB92"/>
<path d="M397.411 301.137C397.552 301.102 397.658 301.102 397.799 301.066C399.175 302.689 401.186 302.936 403.02 303.465C405.913 304.347 408.912 304.982 411.699 306.182C413.639 307.028 414.909 308.475 415.579 310.415C416.32 312.532 415.509 314.155 413.286 314.543C409.088 315.248 404.855 315.213 400.621 315.037C393.707 314.754 386.792 314.084 379.913 313.308C376.949 312.955 374.586 311.579 372.963 309.004C381.147 310.168 391.202 309.604 397.411 301.137Z" fill="#7A4821"/>
<path d="M345.481 278.064C349.821 279.123 354.054 280.428 358.675 280.569C363.262 280.71 367.848 280.746 372.399 280.816C372.681 281.733 372.963 282.615 373.245 283.533C371.658 284.556 369.859 284.168 368.306 283.921C364.849 283.321 361.392 283.674 357.899 283.321C351.514 282.651 345.27 281.416 339.202 279.37C338.355 279.088 337.403 279.052 336.521 278.841C335.074 278.488 334.369 277.853 335.603 276.442C335.85 276.406 336.097 276.406 336.344 276.371C339.343 277.112 342.483 277.041 345.481 278.064Z" fill="#DDA882"/>
<path d="M397.41 301.137C391.237 309.639 381.147 310.168 372.998 309.004C372.927 308.828 372.821 308.616 372.751 308.44C372.574 307.24 372.398 306.041 372.222 304.771C378.783 306.993 384.957 305.935 390.743 302.901C392.93 301.737 395.082 301.278 397.41 301.066V301.137Z" fill="#5C3718"/>
<path d="M397.376 301.066C395.048 301.243 392.896 301.737 390.709 302.901C384.923 305.935 378.749 306.993 372.187 304.771C372.364 306.041 372.54 307.24 372.717 308.439C372.117 308.087 372.117 307.452 372.011 306.887C371.658 305.017 370.776 303.606 368.836 303.042C369.612 301.807 370.953 302.125 372.011 302.089C380.019 301.878 387.957 300.996 395.93 300.537C396.494 300.467 397.235 300.149 397.376 301.066Z" fill="#7E4D27"/>
<path d="M277.076 265.364C275.418 263.071 275.418 263.071 272.243 264.306C269.703 265.294 267.234 266.564 264.588 267.163C262.401 267.657 260.002 267.304 257.709 267.375C256.297 267.446 254.816 267.022 253.44 267.763C253.158 267.481 252.911 267.234 252.628 266.952C254.851 266.211 257.25 266.281 259.437 266.387C264.235 266.634 268.327 264.694 272.561 263.177C274.113 262.612 275.559 261.872 277.076 261.237C277.394 261.095 277.711 261.06 277.923 261.484C276.089 262.401 277.464 264.059 277.076 265.364Z" fill="#F7BB92"/>
<path d="M326.289 267.728L326.113 267.658L326.078 267.481C326.325 267.446 326.36 267.552 326.289 267.728Z" fill="#E7B089"/>
<path d="M66.2883 282.333C66.1119 282.333 65.9708 282.298 65.7944 282.298C65.9708 282.086 66.1472 282.086 66.2883 282.333Z" fill="#E4B18C"/>
<path d="M374.868 283.427C374.586 281.416 375.045 279.335 374.551 277.324C374.41 276.76 374.939 276.266 375.256 275.737C377.161 272.632 380.125 270.41 382.312 267.552C382.524 267.305 382.806 267.093 382.947 266.811C383.935 264.836 381.818 262.825 383.758 263.707C388.909 266.035 396.459 271.291 398.822 276.548C399.74 278.594 400.41 280.711 400.233 283.004C400.163 283.709 400.022 284.274 399.422 284.662C398.223 284.662 396.988 284.662 395.788 284.697C393.566 283.886 391.343 283.639 389.085 284.38C388.274 284.38 387.498 284.38 386.687 284.344C386.298 283.851 385.91 283.851 385.522 284.344C385.134 284.309 384.746 284.274 384.358 284.239C383.653 283.18 382.806 283.498 381.959 283.956C381.712 283.921 381.43 283.921 381.183 283.886C380.513 282.722 379.631 283.11 378.784 283.604C377.479 283.568 376.174 283.498 374.868 283.427Z" fill="#7A4821"/>
<path d="M277.5 270.127C276.547 269.739 276.724 269.174 277.288 268.539C277.747 268.998 277.641 269.562 277.5 270.127Z" fill="#F7BB92"/>
<path d="M382.947 263.495C382.029 262.754 380.971 263.072 379.948 263.107C379.666 263.072 379.419 263.072 379.137 263.036C376.314 262.331 373.457 261.731 371.199 259.685C370.952 259.438 370.458 259.438 370.105 259.332C368.976 257.886 367.495 256.968 365.696 256.58C364.002 255.734 362.838 256.333 362.062 257.921C361.603 258.909 361.286 259.967 360.898 260.955C358.675 261.237 356.488 261.696 354.265 261.766C351.055 261.872 350.385 262.401 349.468 266.282C348.974 268.469 349.326 270.586 349.397 272.738C349.503 275.348 349.221 275.631 346.681 275.631C343.858 275.666 341.001 275.631 338.178 275.701C337.508 275.701 336.661 275.384 336.273 276.301C339.307 277.042 342.482 276.971 345.446 277.994C349.785 279.053 354.018 280.358 358.64 280.499C363.226 280.64 367.812 280.675 372.363 280.746C371.587 277.853 372.116 275.525 374.445 273.302C377.232 270.656 379.525 267.481 382.065 264.518C382.523 264.342 382.806 263.989 382.947 263.495Z" fill="#F7BB92"/>
<path d="M378.502 283.604L399.457 284.697L394.695 289.072L374.551 286.355L378.502 283.604Z" fill="#F7BB92"/>
<path d="M276.97 262.754L276.829 261.343L283.955 260.25L292.775 258.098L294.68 260.25L280.851 264.448" fill="#8A8AD9"/>
</svg>
