<svg width="500" height="500" viewBox="0 0 500 500" fill="none" xmlns="http://www.w3.org/2000/svg">
<path d="M69.0893 307.951C69.1798 311.302 83.4896 309.219 87.8368 310.034L92.9086 307.589C124.336 308.857 137.921 302.788 137.921 302.788C156.668 304.419 192.896 305.596 199.96 304.147C207.024 302.698 205.756 288.298 198.511 287.935C191.356 287.573 184.926 288.116 177.771 288.298C170.616 288.479 143.989 290.29 137.74 291.105C136.925 291.196 92.8181 299.8 92.8181 299.8C92.8181 299.8 91.0067 299.8 87.9274 298.803C83.7613 297.445 77.5121 297.988 74.1611 299.619C71.1723 301.068 68.9081 304.509 69.0893 307.951Z" fill="#ECAD83"/>
<path d="M83.399 308.675C83.399 308.675 78.8706 308.404 78.5083 310.849C78.146 312.842 78.3272 313.566 87.8368 310.034C87.7462 309.943 87.5651 308.585 83.399 308.675Z" fill="#ECAD83"/>
<path d="M264.358 311.737C264.358 311.737 270.62 315 279.877 315C293.037 315 298.028 311.012 298.028 311.012C298.028 311.012 304.654 283.092 298.119 282.276C285.867 280.645 276.156 279.013 270.257 278.016C266.173 277.381 261 296.145 261 296.145L264.358 311.737Z" fill="#3D3C3C"/>
<path d="M204.033 273.003C192.872 272.822 190.241 282.114 178.444 288.338C176.993 289.15 173.091 296.006 173 299.615C173 303.584 173.635 307.644 176.993 310.621C179.533 312.876 187.519 317.477 208.298 313.327C218.007 312.064 254.213 306.832 265.102 311.974C265.102 311.974 263.741 299.615 265.465 292.398C267.189 285.181 271 278.505 271 278.505C237.063 276.521 223.452 278.415 212.291 276.972C212.291 276.882 207.209 273.093 204.033 273.003Z" fill="#FF8AA0"/>
<path d="M173.419 290.896C173.419 290.896 165.665 293.882 158.617 295.873L158 308C164.96 305.466 174.476 307.095 174.476 307.095C173.154 295.783 176.855 290.986 178 288L173.419 290.896Z" fill="#ECAD83"/>
<path d="M145.606 278.739C140.891 275.406 136.267 277.658 133.638 279.28C125.478 284.415 124.843 289.821 125.024 296.758C125.296 305.948 149.595 308.741 153.675 307.84C164.283 305.497 168 290.812 168 284.776C168 278.199 165.733 279.91 163.104 280.181C163.013 280.181 162.651 279.91 162.651 279.91C161.744 279.91 160.475 280.001 159.296 279.46C159.296 279.46 158.48 279.73 158.027 279.73C157.755 279.73 157.573 279.73 157.392 279.37C157.029 278.379 156.667 277.478 156.304 277.208C155.035 276.036 147.782 280.271 145.606 278.739Z" fill="#F6BB92"/>
<path d="M160.639 283C160.639 283 161.096 282.408 160.982 279.62C160.753 279.282 160.181 278.69 159.153 279.197C158.467 279.535 160.296 280.972 160.639 283Z" fill="#D6876B"/>
<path d="M161 283C161 283 162.478 282.404 163 279.762C162.913 279.421 162.652 279.08 162.478 279.08C161.609 278.74 161.261 279.592 161.261 279.592C161.348 282.318 161 283 161 283Z" fill="#CC785E"/>
<path d="M124.012 297.935C124.284 309.277 140.833 323.911 159.461 307.996C160.727 306.899 162.174 304.521 159.461 301.045C157.562 298.575 155.03 296.929 155.03 296.929C154.307 296.471 153.493 295.923 152.589 295.374C151.594 294.825 146.078 295.648 145.897 294.551C143.907 283.483 137.939 278.91 134.954 279.001C127.991 280.465 123.741 285.77 124.012 297.935Z" fill="#602F0F"/>
<path d="M152.057 298.398C157.012 296.714 157.196 294.778 156.921 292L149.12 293.768L146 295.283C146.275 297.977 147.009 300.081 152.057 298.398Z" fill="#F6BB92"/>
<path d="M141.312 314.526C139.145 317.197 133.728 316.128 129.213 312.211C124.699 308.293 122.712 302.95 124.879 300.368C127.046 297.697 131.2 299.122 135.714 303.039C140.229 306.957 143.479 311.943 141.312 314.526Z" fill="#4C230C"/>
<path d="M146.797 293.188C145.891 293.369 145.076 293.369 144.442 293.369C143.446 293.369 142.902 293.279 142.902 293.279L144.17 296.539C144.623 296.539 145.167 296.539 145.619 296.539C145.619 296.539 145.529 296.177 145.257 295.543V295.633C145.982 295.181 147.068 294.547 148.699 294.003C148.699 293.913 149.604 292.645 146.797 293.188Z" fill="#602F0F"/>
<path d="M141 316.646C138.736 319.453 132.849 318.185 127.868 313.838C122.887 309.491 120.713 303.604 122.977 300.796C125.241 297.989 129.77 299.619 134.751 303.966C139.732 308.313 143.264 313.838 141 316.646Z" fill="#602F0F"/>
<path d="M130.981 314.947C130.69 315.224 129.133 314.393 127.48 313.102C125.826 311.718 124.756 310.334 125.048 310.058C125.34 309.781 126.604 310.519 128.161 311.903C129.814 313.194 131.176 314.67 130.981 314.947Z" fill="#4C230C"/>
<path d="M433.807 290.886C432.721 294.575 432.812 307.856 432.721 309.239C432.359 312.559 430.46 315.695 427.385 314.865C425.033 314.219 423.043 313.205 421.596 313.02C413.726 312.098 400.158 311.914 382.52 313.574C380.44 313.758 379.264 313.851 377.002 313.758C368.048 313.482 373.203 293.284 376.46 293.93C391.656 297.158 414.721 302.599 424.4 304.167C424.4 304.167 426.48 286.459 429.827 287.013C431.726 287.382 434.802 287.289 433.807 290.886Z" fill="#F6BB92"/>
<path d="M349.495 309.146C356.914 311.233 367.952 314.41 377 313.956C375.824 311.052 376.005 297.256 376.729 294.442C372.748 293.262 350.852 288.724 350.852 288.724C342.89 287.907 296.114 279.103 281.638 281.373C277.928 281.826 274.581 282.552 271.866 283.369C266.619 284.912 286.705 314.319 292.043 313.502C307.152 311.052 324.343 306.786 329.771 306.514C337.009 306.06 342.167 306.968 349.495 309.146Z" fill="#3D3C3C"/>
<path d="M64.6517 313.023C64.7422 316.374 79.052 314.291 83.3992 315.106L88.471 312.66C119.898 313.928 133.483 307.86 133.483 307.86C152.231 309.49 188.458 310.668 195.522 309.219C202.587 307.77 201.319 293.369 194.073 293.007C186.918 292.645 180.488 293.188 173.333 293.369C166.178 293.551 139.551 295.362 133.302 296.177C132.487 296.268 88.3805 304.872 88.3805 304.872C88.3805 304.872 86.5691 304.872 83.4898 303.875C79.3237 302.517 73.0745 303.06 69.7235 304.69C66.7347 306.23 64.5611 309.672 64.6517 313.023Z" fill="#F6BB92"/>
<path d="M78.9615 313.747C78.9615 313.747 74.4331 313.476 74.0708 315.921C73.7085 317.913 73.8897 318.638 83.3993 315.106C83.3993 315.106 83.2182 313.747 78.9615 313.747Z" fill="#F6BB92"/>
</svg>
