<svg width="500" height="500" viewBox="0 0 500 500" fill="none" xmlns="http://www.w3.org/2000/svg">
<path d="M130.608 337.705C132.372 329.132 134.171 320.56 135.9 311.952C137.805 302.462 139.534 292.937 138.934 283.165C138.334 273.357 136.359 263.867 132.831 254.73C132.725 254.448 132.654 254.13 132.549 253.813C133.466 253.284 133.96 254.06 134.524 254.377C149.412 262.915 164.299 271.558 179.222 280.06C182.079 281.683 184.125 283.694 185.819 286.587C192.063 297.17 201.518 303.097 213.83 304.332C216.899 304.649 219.968 304.649 223.037 304.614C227.024 293.572 231.081 282.53 234.997 271.452C236.408 267.536 238.101 263.691 238.877 259.563C235.773 259.105 233.727 256.847 231.398 255.118C220.356 246.934 208.82 239.56 196.72 233.034C186.489 227.495 175.941 222.592 165.146 218.323C155.938 214.689 146.766 210.844 137.382 207.634C120.907 201.954 102.068 211.514 98.2227 229.647C97.3407 233.74 97.5524 237.832 98.0463 241.959C98.7871 248.133 99.4221 254.307 100.092 260.481C101.327 271.523 102.527 282.565 103.761 293.607C105.384 307.718 107.042 321.794 108.7 335.906C108.736 336.294 108.7 336.682 108.665 337.07C109.018 337.176 109.406 337.352 109.759 337.387C116.709 337.74 123.658 337.881 130.608 337.705Z" fill="#696C65"/>
<path d="M238.843 259.563C238.067 263.691 236.373 267.536 234.962 271.452C231.011 282.53 226.989 293.572 223.003 304.614C229.776 305.425 236.585 306.096 243.323 307.154C248.65 308.001 253.483 310.258 257.752 313.61C261.491 316.538 264.561 320.03 266.924 324.158C266.995 324.299 267.242 324.334 267.418 324.44C269.041 322.676 270.593 320.771 272.357 319.113C282.623 309.376 291.76 298.616 300.509 287.539C298.71 285.317 296.205 283.976 293.877 282.424C285.551 276.885 276.837 272.052 267.559 268.207C259.234 264.785 250.696 261.892 241.841 260.163C240.889 259.987 239.936 259.387 238.843 259.563Z" fill="#F7BB92"/>
<path d="M300.544 287.54C291.795 298.617 282.658 309.377 272.392 319.114C270.628 320.772 269.111 322.642 267.453 324.441C268.723 327.369 270.84 329.803 272.498 332.484C273.732 334.46 275.073 336.4 276.378 338.341C276.661 338.764 277.049 339.152 276.766 339.752C277.613 340.281 278.53 340.246 279.448 339.999C288.585 337.706 297.863 336.365 307.106 334.742C308.905 334.425 310.739 334.319 312.574 334.248C313.668 334.213 314.373 333.86 314.761 332.767C317.195 326.275 321.429 321.089 326.862 316.891C330.778 313.857 335.293 311.988 340.197 311C340.902 310.859 341.608 310.682 342.314 310.541C342.349 310.33 342.384 310.083 342.419 309.871C342.314 309.765 342.314 309.659 342.349 309.518C337.939 303.133 333.741 296.606 329.12 290.397C322.875 282.036 311.551 280.378 302.943 286.27C302.167 286.728 301.567 287.504 300.544 287.54Z" fill="#8A8AD9"/>
<path d="M411.6 350.723C411.248 349.736 411.318 348.995 412.377 348.324C413.47 347.654 414.423 346.702 415.375 345.82C423.136 338.588 424.865 329.556 423.031 319.537C422.219 315.092 420.914 310.788 418.127 307.119C415.657 303.838 412.165 301.933 408.602 300.134C407.826 299.746 406.944 299.958 406.097 300.169C405.991 300.381 405.885 300.663 405.744 300.84C401.123 306.484 396.501 312.129 391.845 317.773C390.68 319.184 389.728 320.666 389.234 322.501C387.752 328.075 386.129 333.613 384.507 339.152C384.224 340.105 383.872 341.163 382.707 341.586C378.897 342.927 375.087 344.162 371.348 345.643C370.113 346.137 368.42 345.961 367.679 347.513C367.82 347.795 367.996 348.042 368.138 348.324C369.866 348.219 370.431 349.877 371.595 350.653C375.299 353.228 379.356 355.133 383.695 356.015C386.129 356.509 388.705 357.426 391.21 356.862C393.714 356.297 396.29 356.262 398.83 355.521C402.569 354.392 406.097 352.946 409.131 350.441C410.154 349.559 410.86 349.736 411.6 350.723Z" fill="#7A4821"/>
<path d="M367.679 347.547C368.42 346.03 370.078 346.171 371.348 345.677C375.088 344.196 378.933 342.961 382.708 341.62C383.872 341.232 384.189 340.174 384.507 339.186C386.13 333.647 387.752 328.109 389.234 322.535C389.728 320.7 390.681 319.219 391.845 317.808C396.466 312.163 401.123 306.518 405.744 300.874C405.921 300.662 405.991 300.415 406.097 300.204C402.428 299.71 398.83 300.098 395.231 300.662C393.679 300.909 392.339 300.839 390.998 299.816C388.176 297.593 385.283 295.476 382.425 293.289C380.803 292.054 379.391 292.266 378.404 294.1C377.663 295.476 377.028 296.923 376.499 298.404C376.146 299.392 375.617 299.674 374.629 299.71C372.301 299.78 369.937 299.533 367.609 299.957C364.539 300.521 361.576 303.484 361.082 306.589C360.447 310.364 360.694 314.139 360.694 317.913C360.694 319.219 360.271 319.854 359.071 320.348C357.237 321.088 355.261 321.582 353.674 322.817C354.379 322.817 354.908 322.782 355.296 323.734C356.284 326.38 357.06 329.061 357.766 331.848C358.895 336.434 358.366 340.774 357.131 345.219C356.637 347.018 355.332 348.5 355.261 350.44C358.542 349.523 361.717 348.182 365.104 347.477C365.986 347.265 366.832 347.089 367.679 347.547Z" fill="#F7BB92"/>
<path d="M130.608 337.705C123.659 337.847 116.709 337.741 109.759 337.353C109.371 337.317 109.018 337.141 108.665 337.035C101.327 340.492 93.9542 343.914 86.6163 347.407C83.9705 348.677 81.1835 349.559 79.0315 351.746C76.2798 354.568 75.7859 357.885 76.7737 361.342C77.9732 365.434 81.0424 367.868 85.3463 367.939C97.2704 368.08 109.195 368.045 121.119 367.974C125.564 367.939 129.303 364.058 129.585 359.79C129.903 354.71 130.185 349.63 130.361 344.514C130.397 342.256 130.855 339.999 130.608 337.705Z" fill="#F7BB92"/>
<path d="M363.834 353.475C359.107 357.074 354.556 360.919 349.617 364.27C349.299 364.482 349.052 364.835 348.841 365.117C348.135 366.14 347.853 366.952 349.546 367.198C350.64 367.375 351.698 367.622 352.827 367.481C362.387 366.458 371.948 365.399 381.614 365.611C386.059 365.717 390.504 365.54 394.914 364.8C400.382 363.918 405.004 361.342 408.955 357.497C409.308 357.144 409.484 356.615 409.731 356.156C407.579 356.439 406.38 358.238 404.616 359.226C397.772 362.965 390.469 363.988 382.919 362.683C378.298 361.871 373.994 359.861 370.184 357.038C368.244 355.627 366.868 353.017 363.834 353.475Z" fill="#7A4821"/>
<path d="M181.303 362.964C182.855 362.929 184.443 362.893 185.995 362.929C187.195 362.929 188.253 362.4 188.288 361.306C188.324 360.036 187.089 359.683 185.995 359.789C183.984 360.036 181.797 359.013 179.963 360.53C180.033 361.588 180.139 362.576 181.303 362.964Z" fill="#DDA882"/>
<path d="M180.245 357.425C182.573 357.284 184.902 357.143 187.23 357.037C188.006 357.002 188.43 356.649 188.5 355.838C188.535 355.167 188.324 354.532 187.654 354.497C185.043 354.356 182.397 353.545 179.892 355.062C180.351 355.802 180.175 356.614 180.245 357.425Z" fill="#DDA882"/>
<path d="M180.245 350.334C182.468 352.415 185.184 351.286 187.689 351.392C188.148 351.427 188.43 350.898 188.465 350.404C188.501 349.805 188.218 349.452 187.724 349.134C186.631 348.499 185.431 348.782 184.267 348.746C183.279 348.711 182.327 348.711 181.339 348.676C180.563 348.993 180.245 349.558 180.245 350.334Z" fill="#DDA882"/>
<path d="M363.834 353.474C366.868 353.05 368.244 355.626 370.219 357.072C374.065 359.894 378.333 361.905 382.955 362.717C390.505 364.022 397.807 363.034 404.651 359.259C406.415 358.307 407.614 356.472 409.766 356.19C410.825 354.497 411.53 352.698 411.636 350.722C410.895 349.699 410.19 349.558 409.096 350.475C406.098 352.98 402.57 354.426 398.795 355.555C396.29 356.331 393.715 356.367 391.175 356.896C388.67 357.46 386.095 356.543 383.661 356.049C379.321 355.167 375.264 353.227 371.56 350.687C370.431 349.911 369.867 348.253 368.103 348.358C367.221 350.475 365.316 351.816 363.834 353.474Z" fill="#7E4D27"/>
<path d="M355.261 350.44C355.332 348.5 356.637 347.018 357.131 345.219C358.33 340.774 358.895 336.47 357.766 331.849C357.096 329.097 356.284 326.416 355.296 323.735C354.944 322.747 354.415 322.818 353.674 322.818C352.615 323.206 351.557 323.629 350.499 324.017C349.687 326.134 351.028 327.933 351.522 329.803C353.145 335.941 352.721 341.868 350.322 347.759C349.581 349.629 348.135 351.146 347.747 353.157C350.252 352.24 352.756 351.358 355.261 350.44Z" fill="#DEA882"/>
<path d="M342.313 309.482C342.278 309.624 342.278 309.729 342.384 309.835C342.419 309.729 342.455 309.659 342.455 309.553C342.455 309.553 342.349 309.518 342.313 309.482Z" fill="#F6BB92"/>
<path d="M345.595 355.168C345.524 355.239 345.454 355.309 345.383 355.415C345.489 355.38 345.559 355.274 345.595 355.168Z" fill="#B68C6E"/>
<path d="M187.23 357.038C188.006 357.003 188.43 356.65 188.5 355.839C188.535 355.168 188.324 354.533 187.653 354.498C185.043 354.357 182.397 353.545 179.892 355.062C179.822 353.475 179.539 351.887 180.245 350.335C182.467 352.417 185.184 351.288 187.689 351.393C188.147 351.429 188.43 350.9 188.465 350.406C188.5 349.806 188.218 349.453 187.724 349.136C186.63 348.501 185.431 348.783 184.267 348.748C183.279 348.712 182.326 348.712 181.339 348.677C184.549 345.255 188.43 342.715 192.416 340.316C194.85 338.834 197.708 338.199 200.53 339.187C206.633 341.339 212.948 340.916 219.228 340.916C234.856 340.916 250.519 340.881 266.148 340.951C269.746 340.951 273.309 340.951 276.731 339.716C277.578 340.245 278.495 340.21 279.412 339.963C288.55 337.67 297.828 336.33 307.071 334.707C308.87 334.389 310.704 334.283 312.539 334.213C313.632 334.178 314.338 333.825 314.726 332.731C317.16 326.24 321.394 321.054 326.827 316.856C330.742 313.822 335.258 311.952 340.162 310.964C340.867 310.823 341.573 310.647 342.278 310.506C343.055 310.612 343.266 311.353 343.584 311.882C345.559 315.374 347.641 318.832 349.158 322.606C349.44 323.312 349.652 323.982 350.534 324.053C349.722 326.169 351.063 327.969 351.557 329.838C353.179 335.977 352.756 341.904 350.357 347.795C349.616 349.665 348.17 351.182 347.782 353.193C346.97 353.792 346.124 354.322 345.63 355.204C345.559 355.274 345.489 355.345 345.418 355.45C345.418 355.45 342.913 360.989 334.588 363.388C330.813 365.505 326.65 365.928 322.487 365.999C311.41 366.14 300.368 366.034 289.29 366.034C256.905 366.034 224.484 366.034 192.099 365.999C188.288 365.999 184.549 365.364 181.374 363C182.926 362.965 184.514 362.929 186.066 362.965C187.265 362.965 188.324 362.436 188.359 361.342C188.394 360.072 187.16 359.719 186.066 359.825C184.055 360.072 181.868 359.049 180.033 360.566C179.786 359.472 180.033 358.449 180.316 357.426C182.573 357.285 184.902 357.144 187.23 357.038Z" fill="#F7BB92"/>
</svg>
