<svg width="497" height="497" viewBox="0 0 497 497" fill="none" xmlns="http://www.w3.org/2000/svg">
<path d="M76.3976 322.562C76.3976 315.658 105.103 319.11 113.823 317.293L124.179 322.017C187.221 317.475 217.38 322.743 217.38 322.743C254.987 318.383 324.751 319.836 339.104 322.198C353.275 324.56 351.639 353.629 337.287 354.719C322.934 355.809 310.035 355.264 295.683 355.264C281.33 355.264 230.46 347.27 217.743 345.998C215.926 345.816 124.361 337.459 124.361 337.459C124.361 337.459 120.727 337.641 114.732 339.639C106.374 342.546 93.8386 342.001 86.9349 338.913C81.1212 336.188 76.3976 329.465 76.3976 322.562Z" fill="#ECAD83"/>
<path d="M105.103 320.199C105.103 320.199 96.0188 320.926 95.1105 316.203C94.3837 312.206 94.5654 310.752 113.823 317.293C113.823 317.293 113.642 320.018 105.103 320.199Z" fill="#ECAD83"/>
<path d="M285.987 148.37C285.987 148.37 281.79 206.413 266.279 209.324C264.455 209.688 260.987 211.325 259.893 211.689C232.52 222.788 215.185 202.41 209.345 202.774C203.141 203.137 202.411 137.453 214.82 136.725C237.812 135.451 244.382 135.815 261.17 138.18C270.841 139.636 285.987 148.37 285.987 148.37Z" fill="#3D3C3C"/>
<path d="M59.1447 365.732C66.4741 364.093 92.86 365.732 95.6086 365.55C102.205 365.368 108.618 361.726 107.336 355.534C106.419 350.799 104.037 346.61 104.404 343.697C105.87 328.581 107.519 274.676 108.985 256.283C109.351 252.095 70.3221 243.9 70.8718 250.456C72.7041 276.68 84.7977 338.597 86.63 348.067C86.63 348.067 51.2656 350.253 51.9985 356.991C52.5482 361.179 51.8153 367.371 59.1447 365.732Z" fill="#F6BB92"/>
<path d="M105.828 196.869C110.725 216.065 111.451 235.986 108.911 255.002C103.652 251.561 76.9917 250.837 71.1881 251.199C71.0068 244.86 61.2132 166.625 76.8104 154.672C93.133 142.176 216.097 136.381 221.9 136.019C242.938 135.294 278.123 158.113 273.588 172.058C273.588 172.058 257.447 192.522 234.051 198.499C192.701 209.183 105.828 196.869 105.828 196.869Z" fill="#3D3C3C"/>
<path d="M358.982 305.084C359.164 327.446 354.268 354.172 339.764 361.444C334.868 363.808 321.089 364.353 313.836 363.808C305.859 363.262 298.969 355.99 293.892 348.718C283.014 332.9 296.793 301.448 289.722 277.085C286.64 259.995 268.69 208.908 259.987 211.453L285.915 148.002C359.345 203.635 351.549 265.45 352.637 287.994C352.637 288.176 358.982 298.902 358.982 305.084Z" fill="#FF8AA0"/>
<path d="M357.875 322.414C357.875 322.414 362.406 323.12 373.1 321.002L379.987 345.355C367.119 338.473 350.987 348.002 350.987 348.002C355.337 338.296 356.425 330.531 357.875 322.414Z" fill="#ECAD83"/>
<path d="M405.484 292.82C414.352 285.86 423.575 289.965 428.896 292.999C445.213 302.636 446.809 313.166 446.987 326.909C447.164 345.114 399.808 352.253 391.649 350.825C370.897 346.898 362.384 317.985 362.029 306.206C361.497 293.177 366.109 296.39 371.252 296.747C371.43 296.747 372.139 296.033 372.139 296.033C373.913 296.033 376.396 296.033 378.701 294.783C378.701 294.783 380.298 295.14 381.185 295.319C381.717 295.319 382.071 295.319 382.426 294.605C383.136 292.642 383.668 290.857 384.377 290.143C386.86 288.001 401.404 296.033 405.484 292.82Z" fill="#F6BB92"/>
<path d="M375.878 302.002C375.878 302.002 375.165 300.671 374.987 294.396C375.343 293.636 376.056 292.305 377.658 293.446C378.905 294.206 376.234 297.439 375.878 302.002Z" fill="#D6876B"/>
<path d="M375.987 302.002C375.987 302.002 373.267 301.089 371.987 296.375C371.987 295.766 372.627 295.158 372.947 295.158C374.547 294.549 375.187 295.918 375.187 295.918C375.187 300.937 375.987 302.002 375.987 302.002Z" fill="#CC785E"/>
<path d="M451.987 328.192C452.169 350.407 419.914 380.326 381.281 350.407C378.73 348.436 375.632 343.778 380.734 336.791C384.379 331.954 389.299 328.55 389.299 328.55C390.757 327.475 392.397 326.579 394.219 325.325C396.042 324.071 407.34 325.504 407.705 323.175C410.985 301.318 422.647 292.002 428.479 292.002C442.693 294.51 451.804 304.543 451.987 328.192Z" fill="#602F0F"/>
<path d="M395.149 332.873C385.131 329.499 384.585 325.188 385.131 319.002L400.795 322.376L406.987 325.375C406.441 331.561 405.166 336.247 395.149 332.873Z" fill="#F6BB92"/>
<path d="M416.584 363.29C421.317 368.491 432.677 365.98 441.764 357.731C451.041 349.481 454.638 338.72 449.905 333.52C445.172 328.319 436.652 331.547 427.376 339.797C418.288 347.867 411.851 358.089 416.584 363.29Z" fill="#4C230C"/>
<path d="M404.509 320.745C406.326 321.109 407.961 321.109 409.233 320.927C411.05 320.927 412.321 320.564 412.321 320.564L409.959 327.104C409.051 327.104 407.961 327.104 407.053 327.104C407.053 327.104 407.234 326.377 407.598 325.106V325.287C406.144 324.379 403.782 323.289 400.512 322.199C400.694 322.381 398.877 319.837 404.509 320.745Z" fill="#602F0F"/>
<path d="M417.954 367.254C422.678 372.705 434.487 369.798 444.115 360.714C453.744 351.63 457.741 339.639 453.018 334.189C448.294 328.739 439.392 332.191 429.581 341.456C419.952 350.54 413.049 361.804 417.954 367.254Z" fill="#602F0F"/>
<path d="M437.028 362.902C437.631 363.426 440.646 361.853 444.064 359.055C447.28 356.433 449.491 353.635 448.888 353.111C448.285 352.586 445.873 353.985 442.456 356.782C439.239 359.405 436.626 362.202 437.028 362.902Z" fill="#4C230C"/>
<path d="M72.9446 336.915C72.5813 330.193 101.468 332.191 110.007 330.011L120.544 334.19C183.223 327.104 213.018 330.193 213.018 330.193C250.262 324.197 320.935 323.471 335.287 325.287C349.458 327.104 349.095 356.173 334.742 357.989C320.39 359.806 307.491 359.624 293.138 360.351C278.786 360.896 226.826 354.356 214.29 353.629C212.473 353.447 121.453 349.814 121.453 349.814C121.453 349.814 117.819 349.996 111.824 352.539C103.648 355.809 91.1124 355.809 84.027 352.902C78.2133 350.359 73.308 343.637 72.9446 336.915Z" fill="#F6BB92"/>
<path d="M101.468 333.281C101.468 333.281 92.3841 334.553 91.294 329.647C90.3856 325.65 90.3856 324.197 110.188 330.011C110.007 330.011 109.825 332.736 101.468 333.281Z" fill="#F6BB92"/>
</svg>
