<svg width="497" height="497" viewBox="0 0 497 497" fill="none" xmlns="http://www.w3.org/2000/svg">
<path d="M98.0091 317.892C98.0091 311.948 122.725 314.92 130.234 313.355L139.15 317.423C193.431 313.512 219.399 318.048 219.399 318.048C251.78 314.294 311.849 315.546 324.207 317.579C336.409 319.613 335.001 344.642 322.643 345.58C310.285 346.519 299.178 346.049 286.82 346.049C274.462 346.049 230.662 339.166 219.712 338.071C218.147 337.915 139.307 330.719 139.307 330.719C139.307 330.719 136.178 330.876 131.016 332.596C123.82 335.099 113.026 334.63 107.082 331.971C102.076 329.624 98.0091 323.836 98.0091 317.892Z" fill="#ECAD83"/>
<path d="M122.725 315.858C122.725 315.858 114.904 316.484 114.122 312.417C113.496 308.975 113.652 307.724 130.234 313.355C130.234 313.355 130.077 315.702 122.725 315.858Z" fill="#ECAD83"/>
<path d="M278.472 167.907C278.472 167.907 274.858 217.884 261.503 220.39C259.932 220.704 256.947 222.114 256.004 222.427C232.436 231.984 217.509 214.437 212.481 214.75C207.139 215.064 206.511 158.507 217.195 157.88C236.992 156.784 242.648 157.097 257.104 159.134C265.431 160.387 278.472 167.907 278.472 167.907Z" fill="#3D3C3C"/>
<path d="M83.1533 355.063C89.4642 353.651 112.183 355.063 114.55 354.906C120.23 354.749 125.752 351.613 124.647 346.282C123.858 342.205 121.807 338.598 122.123 336.089C123.385 323.075 124.805 276.661 126.067 260.824C126.383 257.217 92.7774 250.161 93.2507 255.806C94.8284 278.386 105.241 331.699 106.819 339.853C106.819 339.853 76.3692 341.734 77.0003 347.536C77.4736 351.143 76.8425 356.474 83.1533 355.063Z" fill="#F6BB92"/>
<path d="M123.35 209.666C127.566 226.195 128.19 243.347 126.004 259.72C121.476 256.758 98.5204 256.134 93.5233 256.446C93.3671 250.988 84.9346 183.625 98.3642 173.333C112.419 162.574 218.294 157.584 223.291 157.272C241.405 156.649 271.7 176.296 267.796 188.303C267.796 188.303 253.898 205.923 233.754 211.069C198.15 220.269 123.35 209.666 123.35 209.666Z" fill="#3D3C3C"/>
<path d="M341.323 302.843C341.479 322.098 337.264 345.109 324.775 351.371C320.56 353.406 308.695 353.876 302.451 353.406C295.582 352.936 289.649 346.675 285.278 340.413C275.911 326.794 287.776 299.712 281.688 278.736C279.034 264.021 263.579 220.032 256.085 222.224L278.409 167.591C341.635 215.493 334.922 268.717 335.859 288.128C335.859 288.285 341.323 297.521 341.323 302.843Z" fill="#FF8AA0"/>
<path d="M340.369 317.764C340.369 317.764 344.271 318.372 353.478 316.549L359.409 337.517C348.328 331.592 334.439 339.797 334.439 339.797C338.184 331.44 339.121 324.754 340.369 317.764Z" fill="#ECAD83"/>
<path d="M381.362 292.284C388.998 286.29 396.939 289.825 401.521 292.437C415.571 300.736 416.945 309.802 417.098 321.635C417.25 337.31 376.475 343.457 369.45 342.228C351.582 338.847 344.252 313.952 343.947 303.809C343.488 292.591 347.459 295.357 351.888 295.665C352.041 295.665 352.651 295.05 352.651 295.05C354.179 295.05 356.317 295.05 358.302 293.974C358.302 293.974 359.676 294.281 360.44 294.435C360.898 294.435 361.204 294.435 361.509 293.82C362.12 292.13 362.578 290.593 363.189 289.979C365.327 288.135 377.85 295.05 381.362 292.284Z" fill="#F6BB92"/>
<path d="M355.871 300.19C355.871 300.19 355.257 299.044 355.104 293.641C355.411 292.986 356.024 291.84 357.404 292.822C358.477 293.477 356.177 296.261 355.871 300.19Z" fill="#D6876B"/>
<path d="M355.965 300.189C355.965 300.189 353.623 299.404 352.521 295.344C352.521 294.82 353.072 294.296 353.347 294.296C354.725 293.772 355.276 294.951 355.276 294.951C355.276 299.273 355.965 300.189 355.965 300.189Z" fill="#CC785E"/>
<path d="M421.403 322.739C421.56 341.867 393.787 367.628 360.523 341.867C358.326 340.17 355.659 336.159 360.052 330.143C363.191 325.978 367.427 323.047 367.427 323.047C368.682 322.122 370.094 321.35 371.663 320.27C373.233 319.191 382.961 320.425 383.274 318.419C386.099 299.6 396.141 291.578 401.162 291.578C413.4 293.738 421.246 302.376 421.403 322.739Z" fill="#602F0F"/>
<path d="M372.463 326.77C363.838 323.865 363.368 320.152 363.838 314.826L377.325 317.731L382.657 320.314C382.186 325.64 381.089 329.675 372.463 326.77Z" fill="#F6BB92"/>
<path d="M390.92 352.96C394.996 357.439 404.776 355.277 412.601 348.173C420.589 341.07 423.686 331.805 419.61 327.327C415.535 322.849 408.2 325.628 400.212 332.732C392.387 339.68 386.845 348.482 390.92 352.96Z" fill="#4C230C"/>
<path d="M380.523 316.328C382.087 316.64 383.495 316.64 384.59 316.484C386.154 316.484 387.249 316.171 387.249 316.171L385.215 321.803C384.433 321.803 383.495 321.803 382.713 321.803C382.713 321.803 382.869 321.177 383.182 320.082V320.238C381.93 319.456 379.897 318.518 377.081 317.579C377.237 317.735 375.673 315.545 380.523 316.328Z" fill="#602F0F"/>
<path d="M392.099 356.373C396.166 361.066 406.334 358.563 414.625 350.742C422.916 342.92 426.357 332.596 422.29 327.903C418.223 323.21 410.558 326.182 402.111 334.16C393.82 341.982 387.876 351.68 392.099 356.373Z" fill="#602F0F"/>
<path d="M408.523 352.626C409.042 353.077 411.639 351.722 414.581 349.314C417.35 347.055 419.254 344.647 418.735 344.195C418.216 343.743 416.139 344.948 413.196 347.357C410.427 349.615 408.177 352.023 408.523 352.626Z" fill="#4C230C"/>
<path d="M95.0357 330.25C94.7228 324.462 119.595 326.182 126.947 324.305L136.02 327.903C189.989 321.802 215.643 324.462 215.643 324.462C247.712 319.299 308.563 318.674 320.921 320.238C333.122 321.802 332.81 346.831 320.452 348.395C308.094 349.96 296.987 349.803 284.629 350.429C272.271 350.898 227.532 345.267 216.738 344.641C215.174 344.485 136.803 341.356 136.803 341.356C136.803 341.356 133.674 341.512 128.512 343.703C121.472 346.518 110.679 346.518 104.578 344.015C99.5722 341.825 95.3485 336.037 95.0357 330.25Z" fill="#F6BB92"/>
<path d="M119.595 327.12C119.595 327.12 111.773 328.215 110.835 323.992C110.053 320.55 110.053 319.299 127.104 324.305C126.947 324.305 126.791 326.651 119.595 327.12Z" fill="#F6BB92"/>
</svg>
