<svg width="497" height="497" viewBox="0 0 497 497" fill="none" xmlns="http://www.w3.org/2000/svg">
<path d="M375.123 300.258C375.123 295.51 355.379 297.884 349.381 296.634L342.258 299.883C298.897 296.759 278.153 300.383 278.153 300.383C252.286 297.384 204.301 298.384 194.43 300.008C184.683 301.633 185.807 321.626 195.679 322.376C205.551 323.126 214.423 322.751 224.295 322.751C234.167 322.751 269.156 317.253 277.903 316.378C279.153 316.253 342.133 310.505 342.133 310.505C342.133 310.505 344.632 310.63 348.756 312.004C354.504 314.004 363.126 313.629 367.875 311.505C371.874 309.63 375.123 305.007 375.123 300.258Z" fill="#ECAD83"/>
<path d="M355.379 298.633C355.379 298.633 361.627 299.133 362.252 295.884C362.752 293.135 362.627 292.136 349.381 296.634C349.381 296.634 349.506 298.509 355.379 298.633Z" fill="#ECAD83"/>
<path d="M231 180.454C231 180.454 233.902 220.129 244.625 222.119C245.887 222.367 248.284 223.487 249.041 223.736C267.965 231.322 279.95 217.393 283.987 217.641C288.276 217.89 288.781 172.992 280.202 172.494C264.306 171.623 259.764 171.872 248.158 173.489C241.471 174.484 231 180.454 231 180.454Z" fill="#3D3C3C"/>
<path d="M387.103 329.815C382.088 328.69 364.034 329.815 362.154 329.69C357.64 329.565 353.252 327.065 354.13 322.814C354.757 319.564 356.387 316.689 356.136 314.689C355.133 304.313 354.005 267.31 353.002 254.685C352.751 251.809 379.455 246.184 379.079 250.684C377.825 268.686 369.551 311.188 368.297 317.689C368.297 317.689 392.494 319.189 391.992 323.814C391.616 326.69 392.118 330.94 387.103 329.815Z" fill="#F6BB92"/>
<path d="M354.915 213.942C351.54 227.17 351.04 240.897 352.79 254C356.416 251.629 374.793 251.13 378.794 251.379C378.919 247.012 385.67 193.101 374.918 184.865C363.667 176.255 278.905 172.261 274.905 172.012C260.403 171.512 236.15 187.236 239.275 196.845C239.275 196.845 250.401 210.947 266.529 215.065C295.032 222.428 354.915 213.942 354.915 213.942Z" fill="#3D3C3C"/>
<path d="M181.003 288.357C180.879 303.783 184.241 322.219 194.204 327.236C197.567 328.866 207.031 329.242 212.013 328.866C217.492 328.49 222.225 323.473 225.712 318.457C233.184 307.546 223.719 285.849 228.576 269.044C230.693 257.255 243.022 222.014 249 223.769L231.191 180C180.754 218.377 186.109 261.017 185.362 276.568C185.362 276.694 181.003 284.093 181.003 288.357Z" fill="#FF8AA0"/>
<path d="M181.25 299.993C181.25 299.993 178.125 300.49 170.75 299L166 316.137C174.875 311.294 186 318 186 318C183 311.17 182.25 305.706 181.25 299.993Z" fill="#ECAD83"/>
<path d="M148.808 279.648C142.653 274.821 136.251 277.668 132.558 279.772C121.231 286.456 120.123 293.759 120 303.29C119.877 315.916 152.748 320.867 158.411 319.877C172.815 317.154 178.725 297.101 178.971 288.932C179.34 279.896 176.139 282.124 172.569 282.371C172.446 282.371 171.954 281.876 171.954 281.876C170.722 281.876 168.999 281.876 167.398 281.01C167.398 281.01 166.29 281.257 165.675 281.381C165.305 281.381 165.059 281.381 164.813 280.886C164.321 279.524 163.951 278.287 163.459 277.791C161.735 276.306 151.64 281.876 148.808 279.648Z" fill="#F6BB92"/>
<path d="M169.406 286C169.406 286 169.881 285.113 170 280.93C169.763 280.423 169.288 279.535 168.219 280.296C167.388 280.803 169.169 282.958 169.406 286Z" fill="#D6876B"/>
<path d="M169 286C169 286 171.04 285.348 172 281.98C172 281.546 171.52 281.111 171.28 281.111C170.08 280.677 169.6 281.655 169.6 281.655C169.6 285.24 169 286 169 286Z" fill="#CC785E"/>
<path d="M117.001 303.976C116.875 319.308 139.105 339.956 165.73 319.308C167.488 317.948 169.623 314.733 166.107 309.911C163.595 306.573 160.204 304.223 160.204 304.223C159.199 303.481 158.069 302.863 156.813 301.998C155.557 301.132 147.77 302.121 147.519 300.514C145.259 285.429 137.221 279 133.202 279C123.406 280.731 117.126 287.655 117.001 303.976Z" fill="#602F0F"/>
<path d="M156.072 307.247C162.902 304.998 163.274 302.124 162.902 298L152.222 300.249L148 302.249C148.373 306.373 149.242 309.497 156.072 307.247Z" fill="#F6BB92"/>
<path d="M140.921 328.141C137.723 331.707 130.048 329.985 123.908 324.328C117.639 318.671 115.209 311.293 118.407 307.726C121.605 304.16 127.361 306.374 133.629 312.031C139.77 317.565 144.119 324.574 140.921 328.141Z" fill="#4C230C"/>
<path d="M149.443 299.008C148.194 299.258 147.069 299.258 146.194 299.133C144.945 299.133 144.07 298.883 144.07 298.883L145.694 303.382C146.319 303.382 147.069 303.382 147.694 303.382C147.694 303.382 147.569 302.882 147.319 302.007V302.132C148.318 301.508 149.943 300.758 152.192 300.008C152.067 300.133 153.317 298.384 149.443 299.008Z" fill="#602F0F"/>
<path d="M140.196 330.998C136.947 334.747 128.825 332.748 122.202 326.5C115.579 320.252 112.83 312.004 116.079 308.256C119.328 304.507 125.451 306.881 132.199 313.254C138.822 319.502 143.57 327.25 140.196 330.998Z" fill="#602F0F"/>
<path d="M126.973 327.93C126.571 328.297 124.561 327.196 122.282 325.237C120.138 323.401 118.664 321.443 119.066 321.076C119.468 320.709 121.076 321.688 123.354 323.646C125.499 325.482 127.241 327.44 126.973 327.93Z" fill="#4C230C"/>
<path d="M377.497 310.13C377.746 305.506 357.878 306.881 352.005 305.381L344.757 308.255C301.645 303.382 281.152 305.506 281.152 305.506C255.535 301.382 206.925 300.883 197.053 302.132C187.306 303.382 187.556 323.376 197.428 324.625C207.3 325.875 216.172 325.75 226.044 326.25C235.916 326.625 271.655 322.126 280.277 321.626C281.527 321.501 344.132 319.002 344.132 319.002C344.132 319.002 346.631 319.127 350.755 320.876C356.378 323.126 365 323.126 369.874 321.126C373.873 319.377 377.247 314.753 377.497 310.13Z" fill="#F6BB92"/>
<path d="M357.878 307.631C357.878 307.631 364.126 308.505 364.876 305.132C365.501 302.382 365.501 301.383 351.88 305.381C352.005 305.381 352.13 307.256 357.878 307.631Z" fill="#F6BB92"/>
</svg>
