<svg width="500" height="500" viewBox="0 0 500 500" fill="none" xmlns="http://www.w3.org/2000/svg">
<path d="M207.744 310.928C199.867 309.735 191.991 308.541 184.115 307.344C178.098 306.427 172.087 305.502 166.075 304.576C164.142 304.281 162.191 304.063 160.286 303.65C158.013 303.16 155.821 303.433 153.625 303.991C149.415 305.062 145.2 306.123 140.935 306.963C133.966 308.337 126.947 309.345 119.86 309.898C113.994 310.356 108.127 310.338 102.261 310.229C99.0712 310.17 95.8952 309.862 92.7238 309.526C90.7774 309.322 88.8309 309.131 86.8755 309.013C81.0181 308.655 75.1561 308.337 69.2942 308.006C65.3878 307.784 61.4859 307.534 57.5794 307.344C56.427 307.289 55.27 307.403 54.1131 307.439C53.5233 303.673 52.9244 299.912 52.3436 296.146C51.9398 293.515 51.5541 290.883 51.173 288.252C50.8509 286.047 50.5378 283.837 50.2293 281.632C50.1386 280.974 50.2293 280.339 50.5696 279.754C51.4725 279.717 52.3799 279.681 53.2828 279.645C54.2628 279.781 55.2473 279.881 56.2047 279.5C62.729 279.286 69.2534 279.118 75.7777 278.855C87.0842 278.397 98.4042 278.347 109.711 277.98C120.768 277.617 131.638 275.988 142.196 272.512C148.68 270.38 155.363 269.046 162.101 267.989C168.979 266.914 175.893 266.165 182.803 265.326C188.629 264.622 194.432 263.715 200.253 262.944C205.788 262.213 211.319 261.46 216.886 261.015C221.727 260.63 226.564 260.14 231.414 259.881C238.365 259.509 245.325 259.296 252.294 259.332C260.202 259.373 268.11 259.618 275.982 260.308C279.171 260.584 282.356 260.403 285.532 260.671C285.582 261.828 285.664 262.984 285.673 264.137C285.723 270.652 285.755 277.163 285.791 283.678C285.718 285.116 285.65 286.55 285.578 287.988C284.77 288.51 283.881 288.81 282.923 288.837C280.101 288.923 277.288 289.068 274.471 289.268C270.36 289.558 266.236 289.676 262.116 289.867C261.971 289.871 261.826 289.876 261.681 289.88C257.498 290.13 253.314 290.475 249.127 290.602C246.3 290.688 243.492 290.901 240.697 291.26C238.746 291.509 237.176 291.006 235.842 289.522C234.631 288.174 233.229 287.004 231.65 286.106C228.937 284.563 226.078 283.873 222.902 284.4C219.912 284.894 217.213 286.033 214.636 287.535C212.88 288.56 211.115 289.504 209.105 289.985C206.237 290.67 205.398 292.957 205.729 295.239C206.21 298.528 206.8 301.804 207.172 305.102C207.39 307.035 207.898 308.95 207.744 310.923V310.928Z" fill="#696E66"/>
<path d="M207.743 310.932C207.902 308.959 207.389 307.049 207.171 305.111C206.799 301.813 206.21 298.537 205.729 295.248C205.393 292.97 206.237 290.679 209.104 289.994C211.114 289.513 212.875 288.569 214.635 287.544C217.212 286.042 219.907 284.903 222.901 284.408C226.077 283.882 228.936 284.572 231.649 286.114C233.228 287.013 234.63 288.188 235.841 289.531C237.175 291.01 238.75 291.518 240.696 291.269C243.491 290.91 246.299 290.697 249.126 290.611C253.314 290.484 257.497 290.139 261.68 289.889C261.825 289.88 261.97 289.88 262.116 289.876C266.235 289.685 270.36 289.567 274.47 289.277C277.288 289.077 280.101 288.932 282.923 288.846C283.88 288.818 284.769 288.519 285.577 287.997C287.891 288.02 290.2 288.043 292.514 288.056C292.873 288.056 293.267 288.093 293.585 287.961C294.633 287.525 295.717 287.648 296.797 287.634C299.388 287.607 301.942 286.958 304.551 287.158C304.692 287.167 304.846 287.14 304.973 287.081C305.867 286.677 306.815 286.768 307.75 286.763C310.209 286.759 312.663 286.763 315.123 286.763C315.699 286.763 316.298 286.809 316.679 286.232C319.406 285.928 322.137 285.665 324.859 285.311C328.87 284.794 332.876 284.231 336.882 283.651C339.246 283.31 341.578 282.807 343.824 281.945C344.573 281.659 345.258 281.282 345.911 280.811C347.449 279.699 348.733 278.32 350.063 276.99C352.948 274.109 356.183 271.65 359.595 269.468C364.3 266.464 369.277 263.951 374.618 262.227C375.67 262.394 376.423 263.116 377.249 263.678C380.003 265.566 382.453 267.807 384.776 270.194C385.584 271.024 386.382 271.877 387.598 272.104C387.526 272.725 387.752 273.22 388.193 273.66C388.705 274.168 389.272 274.663 389.635 275.271C391.446 278.288 392.516 281.559 392.793 285.071C392.916 286.65 392.566 288.26 393.133 289.808C393.179 289.935 393.179 290.107 393.133 290.234C392.557 291.781 392.902 293.392 392.789 294.971C390.32 300.551 386.419 304.775 380.91 307.452C378.42 308.664 375.752 309.313 373.043 309.848C371.324 310.188 369.599 310.274 367.862 310.32C367.14 310.338 366.414 310.392 365.702 310.51C364.904 310.642 364.096 310.715 363.32 310.56C362.023 310.297 360.725 310.329 359.423 310.329C332.949 310.329 306.475 310.329 280.005 310.329C270.228 310.932 260.428 310.383 250.659 310.828C243.337 311.159 236.014 310.869 228.709 311.25C222.838 311.554 216.972 311.418 211.105 311.568C209.93 311.599 208.782 311.558 207.739 310.937L207.743 310.932Z" fill="#FFB88B"/>
<path d="M449.095 256.813C449.385 256.813 449.689 256.754 449.957 256.822C455.47 258.256 460.401 260.751 464.317 264.966C469.784 270.846 471.948 277.81 470.896 285.778C470.388 289.643 469.04 293.209 467.153 296.594C466.908 297.039 466.64 297.47 466.386 297.905C465.628 299.194 465.374 300.464 465.723 302.025C466.395 305.001 466.576 308.037 465.782 311.067C464.489 315.999 461.454 319.515 457.058 321.925C454.508 323.322 451.767 324.279 448.977 325.073C443.315 326.684 437.525 327.578 431.677 328.172C424.018 328.953 416.337 329.075 408.651 328.966C408.216 328.962 407.78 328.98 407.349 328.939C406.868 328.894 406.233 329.148 405.961 328.635C405.566 327.905 406.201 327.392 406.65 326.984C407.503 326.203 408.424 325.491 409.364 324.815C416.605 319.615 424 314.634 431.496 309.811C432.158 309.384 432.911 309.067 433.401 308.395C433.152 307.796 432.571 307.615 432.113 307.311C430.18 306.031 428.206 304.806 426.287 303.509C424.422 302.247 422.689 300.809 421.174 299.139C420.643 298.554 420.071 297.987 419.735 297.247C420.316 296.952 420.888 296.648 421.473 296.372C424.477 294.938 427.485 293.509 430.493 292.089C432.235 291.267 433.642 290.029 434.812 288.532C436.092 286.898 436.886 285.074 436.827 282.933C436.777 281.123 436.809 279.317 436.464 277.525C436.314 276.749 436.35 275.941 436.305 275.143C436.196 273.323 436.772 271.704 437.861 270.288C439.227 268.509 440.547 266.69 442.09 265.057C443.483 263.582 444.875 262.108 446.196 260.574C447.226 259.376 448.446 258.315 449.095 256.822V256.813Z" fill="#8A4102"/>
<path d="M449.095 256.81C448.442 258.303 447.226 259.369 446.196 260.562C444.876 262.096 443.478 263.57 442.09 265.045C440.543 266.683 439.227 268.502 437.862 270.276C436.773 271.692 436.196 273.312 436.305 275.131C436.351 275.925 436.319 276.737 436.464 277.513C436.809 279.305 436.782 281.111 436.827 282.921C436.886 285.063 436.088 286.887 434.813 288.52C433.642 290.017 432.236 291.256 430.493 292.077C427.481 293.497 424.477 294.926 421.474 296.36C420.888 296.641 420.312 296.945 419.736 297.236C418.579 297.222 417.417 297.204 416.26 297.195C413.511 297.172 410.793 296.777 408.071 296.446C405.916 296.188 403.788 295.793 401.656 295.43C401.166 295.348 400.694 295.14 400.213 294.994C400.426 293.579 400.789 292.186 400.689 290.729C400.666 290.389 400.848 290.035 400.916 289.681C400.984 289.332 401.143 288.937 401.052 288.624C400.644 287.218 400.88 285.734 400.571 284.359C399.981 281.705 399.41 279.028 398.189 276.547C397.463 275.072 396.919 273.507 396.288 271.978C397.196 271.724 398.112 271.547 399.065 271.501C400.517 271.433 401.932 271.129 403.257 270.485C404.251 270.004 404.877 269.215 404.986 268.139C405.145 266.569 405.485 265.036 405.181 263.398C404.895 261.851 405.081 260.217 405.072 258.62C405.072 258.407 405.108 258.189 405.149 257.976C405.712 255.009 407.735 253.403 410.73 253.797C412.123 253.984 413.443 253.984 414.813 253.725C416.587 253.394 418.379 253.144 420.171 252.917C421.973 252.69 423.062 251.769 423.456 249.964C423.638 249.124 423.96 248.312 424.627 247.672C425.643 246.701 426.265 246.552 427.562 247.096C429.064 247.731 430.221 248.843 431.41 249.9C432.331 250.721 433.193 251.602 434.059 252.482C435.085 253.521 436.26 254.36 437.467 255.172C439.023 256.22 440.734 256.71 442.585 256.733C443.964 256.751 445.343 256.706 446.718 256.715C447.512 256.715 448.31 256.769 449.104 256.801L449.095 256.81Z" fill="#FFB88B"/>
<path d="M374.627 262.226C369.287 263.951 364.31 266.464 359.605 269.468C356.188 271.65 352.958 274.109 350.072 276.99C348.743 278.32 347.459 279.699 345.921 280.81C345.267 281.282 344.582 281.659 343.834 281.945C341.592 282.807 339.26 283.306 336.892 283.651C332.89 284.227 328.879 284.789 324.869 285.311C322.146 285.661 319.415 285.928 316.688 286.232C316.448 285.579 316.239 284.926 316.166 284.213C316.089 283.456 315.876 282.711 315.722 281.963C315.935 280.293 315.431 278.673 315.363 277.017C315.218 273.637 315.009 270.262 314.823 266.886C314.814 266.741 314.805 266.6 314.792 266.455C314.42 262.662 314.002 258.869 314.034 255.049C318.086 253.692 322.228 252.653 326.361 251.573C328.185 251.097 329.986 250.557 331.733 249.849C333.834 248.996 336.043 248.588 338.285 248.438C344.768 248.012 350.957 249.205 356.91 251.814C359.704 253.039 362.399 254.423 364.986 256.042C367.44 257.58 369.967 259.005 372.445 260.507C373.243 260.988 374.119 261.387 374.64 262.231L374.627 262.226Z" fill="#8B8ADF"/>
<path d="M50.5696 279.76C50.2248 280.345 50.1341 280.976 50.2294 281.638C50.5379 283.848 50.8509 286.053 51.1731 288.258C51.5587 290.889 51.9399 293.525 52.3437 296.152C52.9244 299.918 53.5233 303.684 54.1131 307.445C52.9017 308.479 51.7311 309.568 50.4653 310.53C49.018 311.633 47.3801 312.381 45.6197 312.912C43.5008 313.556 41.441 313.402 39.4447 312.635C36.4865 311.497 34.2225 309.6 33.1427 306.47C31.6545 302.159 30.1346 297.858 28.5194 293.593C26.033 287.024 23.4832 280.477 21.2237 273.821C20.8017 272.573 20.4796 271.33 20.5295 269.996C20.652 266.679 23.1883 263.358 26.0466 262.646C28.0293 262.151 29.8986 262.128 31.5955 263.517C33.2243 264.846 34.962 266.039 36.5409 267.419C40.8512 271.185 45.0979 275.018 49.3764 278.82C49.753 279.156 50.1658 279.451 50.5606 279.764L50.5696 279.76Z" fill="#FFB88B"/>
<path d="M314.021 255.043C313.989 258.863 314.407 262.656 314.779 266.449C314.792 266.594 314.806 266.735 314.81 266.88C314.996 270.256 315.205 273.636 315.35 277.012C315.423 278.663 315.922 280.283 315.709 281.957C315.06 281.975 314.366 281.853 313.767 282.039C312.633 282.393 311.494 282.402 310.341 282.411C310.196 282.411 310.042 282.393 309.91 282.443C308.227 283.055 306.48 282.774 304.756 282.842C304.035 282.869 303.268 282.76 302.606 282.969C301.607 283.282 300.614 283.237 299.607 283.277C296.517 283.404 293.4 282.937 290.333 283.69C290.061 283.758 289.757 283.713 289.466 283.708C288.237 283.708 287.007 283.699 285.782 283.69C285.746 277.175 285.714 270.664 285.664 264.149C285.655 262.992 285.573 261.835 285.523 260.683C286.64 260.379 287.774 260.252 288.935 260.206C291.526 260.106 294.067 259.607 296.612 259.135C300.224 258.468 303.763 257.538 307.27 256.449C309.466 255.769 311.739 255.388 314.012 255.052L314.021 255.043Z" fill="#FFB88B"/>
<path d="M396.283 271.989C396.909 273.514 397.458 275.079 398.184 276.558C399.404 279.04 399.976 281.717 400.566 284.371C400.87 285.75 400.638 287.229 401.047 288.636C401.138 288.949 400.974 289.339 400.911 289.693C400.843 290.042 400.661 290.396 400.684 290.741C400.784 292.197 400.421 293.59 400.207 295.006C397.739 294.997 395.271 294.988 392.803 294.979C392.916 293.4 392.572 291.789 393.148 290.242C393.193 290.115 393.193 289.942 393.148 289.815C392.581 288.268 392.93 286.658 392.807 285.079C392.531 281.567 391.46 278.291 389.65 275.279C389.287 274.671 388.715 274.176 388.207 273.668C387.762 273.228 387.535 272.738 387.613 272.112C390.494 271.272 393.388 271.431 396.287 271.998L396.283 271.989Z" fill="#EAA67B"/>
<path d="M56.2041 279.507C55.2468 279.888 54.2622 279.783 53.2822 279.652C54.2396 279.221 55.2196 279.357 56.2041 279.507Z" fill="#FFB88B"/>
<path d="M285.795 283.686C287.024 283.69 288.254 283.699 289.479 283.704C289.769 283.704 290.069 283.749 290.345 283.686C293.408 282.933 296.525 283.405 299.619 283.273C300.626 283.232 301.62 283.282 302.618 282.964C303.281 282.756 304.047 282.865 304.769 282.837C306.493 282.769 308.24 283.055 309.923 282.438C310.055 282.393 310.209 282.406 310.354 282.406C311.506 282.397 312.645 282.388 313.779 282.034C314.378 281.848 315.068 281.971 315.721 281.953C315.876 282.701 316.089 283.445 316.166 284.203C316.239 284.911 316.447 285.564 316.688 286.222C316.307 286.798 315.712 286.753 315.132 286.753C312.672 286.753 310.218 286.753 307.759 286.753C306.824 286.753 305.876 286.667 304.982 287.071C304.855 287.129 304.696 287.161 304.56 287.148C301.951 286.943 299.401 287.592 296.806 287.624C295.726 287.638 294.642 287.515 293.594 287.951C293.276 288.082 292.882 288.051 292.523 288.046C290.209 288.032 287.9 288.01 285.586 287.987C285.659 286.549 285.727 285.115 285.799 283.677L285.795 283.686Z" fill="#EAA67B"/>
</svg>
