<svg width="500" height="500" viewBox="0 0 500 500" fill="none" xmlns="http://www.w3.org/2000/svg">
<path d="M242.398 312.99C238.906 311.685 235.66 309.956 232.591 307.875C230.721 306.605 228.428 306.675 226.311 306.323C214.07 304.276 201.934 301.666 189.587 300.184C185.636 299.69 182.037 300.114 178.439 302.865C171.736 307.981 163.904 310.803 155.473 312.179C145.171 313.872 134.905 312.532 124.604 312.391C116.172 312.285 107.776 311.861 99.3447 311.473C97.6866 311.403 95.7816 311.861 94.5468 310.168C94.0529 308.334 94.5116 306.57 94.8643 304.806C95.8874 299.726 96.0991 294.469 98.3216 289.671C105.589 287.872 112.68 285.473 119.877 283.427C139.633 277.818 159.036 270.797 179.356 267.234C190.963 265.188 202.64 263.883 214.282 262.189C224.23 260.743 234.179 259.932 244.233 259.861C254.322 259.79 264.377 260.531 274.325 262.154C275.313 262.331 276.266 262.683 277.253 262.93C277.042 266.529 276.795 270.162 276.689 273.761C276.301 284.697 275.807 295.598 275.983 306.534C273.479 307.698 271.009 308.863 268.504 309.992C267.975 309.886 267.622 310.239 267.234 310.45C263.107 310.344 259.014 310.732 254.887 311.156C250.654 311.614 246.597 312.849 242.398 312.99Z" fill="#696C65"/>
<path d="M242.399 312.99C246.597 312.884 250.654 311.614 254.817 311.19C258.909 310.802 263.037 310.379 267.164 310.485C267.552 310.908 268.011 310.873 268.505 310.767C268.928 310.767 269.351 310.802 269.775 310.802C271.645 311.72 273.585 311.19 275.49 311.155C279.829 311.331 284.168 311.473 288.508 311.755C291.542 311.966 294.576 311.966 297.574 312.284C301.525 312.707 305.335 312.249 309.11 311.226C312.92 310.167 316.73 308.968 320.505 307.663C321.881 307.169 323.574 307.063 324.386 305.511C325.268 305.722 326.079 305.687 326.961 305.405C332.112 303.888 337.227 302.23 342.166 300.148C346.893 298.137 346.999 299.478 347.07 293.163C347.14 287.483 352.467 281.627 358.147 281.274C365.838 280.816 373.317 281.451 380.231 285.508C383.865 287.624 386.264 290.517 387.428 294.398C390.427 304.382 384.465 312.108 377.621 316.447C376.845 316.941 375.998 317.329 375.363 317.999C365.097 321.703 354.584 324.42 343.93 326.678C334.969 328.583 326.15 331.158 317.154 332.851C312.497 333.733 307.699 333.663 302.936 332.745C298.491 331.899 293.941 331.546 289.46 330.876C284.415 330.1 279.406 329.182 274.326 328.441C271.327 328.018 268.328 327.665 265.33 327.101C264.483 326.925 263.425 327.207 262.578 327.595C259.967 328.794 257.286 328.865 254.535 328.265C250.654 327.418 246.738 326.96 242.928 325.654C240 324.667 238.271 322.656 238.13 319.834C237.989 317.082 239.083 314.542 241.976 313.307C242.081 313.307 242.222 313.131 242.399 312.99Z" fill="#F7BB92"/>
<path d="M375.256 318.034C375.892 317.329 376.738 316.976 377.514 316.482C384.358 312.143 390.32 304.417 387.322 294.433C386.158 290.552 383.759 287.66 380.125 285.543C373.21 281.486 365.731 280.851 358.041 281.309C352.361 281.627 347.034 287.483 346.963 293.198C346.893 299.513 346.787 298.173 342.06 300.183C337.121 302.265 332.005 303.923 326.855 305.44C325.973 305.687 325.161 305.757 324.279 305.546C322.127 303.711 319.27 303.782 316.8 302.723C317.083 300.713 317.4 298.702 317.647 296.691C319.34 281.98 320.258 267.233 321.563 252.487C329.818 250.582 338.038 249.735 346.61 250.123C356.841 250.582 364.214 255.38 370.67 262.682C376.138 268.891 381.43 275.242 386.263 281.98C387.569 283.814 388.768 285.684 390.003 287.554C390.708 289.67 391.696 291.717 392.12 293.904C393.46 300.995 393.107 307.839 388.204 313.695C384.429 316.729 379.843 317.399 375.256 318.034Z" fill="#8A8AD9"/>
<path d="M321.598 252.452C320.293 267.198 319.376 281.945 317.682 296.656C317.436 298.667 317.118 300.678 316.836 302.689C312.497 301.877 308.193 300.995 303.853 300.254C298.385 299.302 292.988 298.984 287.696 301.63C283.886 303.535 279.829 304.982 275.878 306.604C275.701 295.668 276.195 284.767 276.583 273.831C276.724 270.232 276.971 266.599 277.148 263C284.768 261.095 292.388 259.19 300.043 257.356C306.64 255.768 313.273 254.251 319.87 252.734C320.469 252.523 321.034 252.523 321.598 252.452Z" fill="#F6BA93"/>
<path d="M398.012 337.05C398.505 335.674 397.377 334.792 396.883 333.769C395.084 330.029 394.343 326.149 394.766 322.021C395.013 319.763 394.837 317.435 395.577 315.248C395.965 314.895 396.142 314.436 396.212 313.907C396.706 310.873 398.047 308.122 399.211 305.335C399.776 303.959 400.375 303.465 401.539 304.947C403.268 307.099 405.244 309.039 406.937 311.191C407.854 312.355 408.877 312.778 410.288 312.708C413.181 312.602 416.109 312.672 419.002 312.496C420.519 312.39 421.401 312.955 422.177 314.189C423.976 317.012 425.881 319.728 427.787 322.48C428.351 323.291 428.986 324.173 430.08 324.385C435.195 325.302 440.275 326.572 445.496 327.066C446.872 328.795 446.696 330.664 446.167 332.64C443.556 341.812 434.701 348.692 424.753 349.291C422.953 349.397 421.154 349.609 419.355 349.75C418.791 348.515 417.485 348.621 416.533 348.515C410.818 347.845 406.267 345.023 402.245 341.142C400.834 339.731 399.423 338.39 398.012 337.05Z" fill="#7A4821"/>
<path d="M445.496 327.03C440.31 326.537 435.23 325.302 430.079 324.349C428.986 324.138 428.351 323.291 427.786 322.444C425.881 319.693 423.976 316.976 422.177 314.154C421.401 312.919 420.519 312.39 419.002 312.46C416.109 312.637 413.216 312.531 410.288 312.672C408.877 312.743 407.854 312.319 406.937 311.155C405.244 309.003 403.268 307.063 401.539 304.911C400.375 303.429 399.775 303.923 399.211 305.299C398.047 308.086 396.706 310.838 396.212 313.872C396.142 314.401 395.93 314.824 395.577 315.212C393.602 314.93 391.626 314.612 389.651 314.33C389.051 314.26 388.486 314.295 388.204 313.625C393.143 307.733 393.461 300.924 392.12 293.834C391.697 291.646 390.744 289.6 390.003 287.483C393.708 288.295 397.447 289.177 401.151 289.918C406.372 290.976 411.629 291.928 416.885 292.916C417.944 293.128 418.896 292.74 419.849 292.422C424.823 290.764 429.868 289.6 435.16 289.847C439.322 290.023 441.686 292.14 442.039 296.303C442.109 297.079 442.497 297.926 442.356 298.667C441.616 302.159 443.379 303.853 446.308 305.264C449.341 306.745 449.483 308.121 447.613 310.873C446.554 312.425 445.567 314.048 444.226 315.389C443.203 316.412 443.203 317.576 443.556 318.987C444.297 321.703 445.743 324.173 445.496 327.03Z" fill="#F7BB92"/>
<path d="M98.2865 289.636C96.0287 294.434 95.8523 299.69 94.8292 304.77C94.4765 306.534 94.0531 308.298 94.5117 310.133C90.9133 312.426 87.3855 314.895 82.7993 314.789C80.0829 314.719 77.5781 313.978 75.6026 312.179C71.5808 308.545 67.2769 305.229 63.3257 301.489C60.327 298.667 56.8345 296.409 53.9769 293.375C50.9783 290.236 50.2021 286.32 52.3541 283.074C54.365 280.111 57.6459 277.641 62.2673 279.017C69.1819 281.098 76.1317 283.25 83.0463 285.402C86.9975 286.637 90.9486 287.872 94.8645 289.177C95.9934 289.565 97.1223 289.53 98.2865 289.636Z" fill="#F7BB92"/>
<path d="M417.943 351.866C416.532 355.288 413.534 356.946 410.041 356.135C398.964 353.56 388.239 349.996 377.55 346.222C376.95 346.01 376.315 345.763 375.751 345.446C374.445 344.705 374.198 343.364 374.234 342.059C374.269 340.789 375.468 340.612 376.456 340.365C382.242 339.025 388.133 338.46 394.025 338.037C393.919 339.025 394.236 339.872 394.801 340.683C398.47 346.081 403.797 348.797 409.971 350.173C412.652 350.737 415.298 351.266 417.943 351.866Z" fill="#7A4821"/>
<path d="M417.944 351.867C415.298 351.302 412.617 350.738 409.971 350.138C403.797 348.762 398.47 346.046 394.801 340.648C394.237 339.837 393.919 338.99 394.025 338.002C395.33 337.685 396.671 337.367 397.976 337.05C399.387 338.39 400.799 339.731 402.21 341.107C406.231 344.987 410.782 347.845 416.497 348.48C417.45 348.586 418.755 348.48 419.32 349.715C419.037 350.526 417.979 350.844 417.944 351.867Z" fill="#5C3514"/>
<path d="M268.399 310.026C268.434 310.273 268.434 310.52 268.469 310.767C267.976 310.873 267.517 310.908 267.129 310.485C267.552 310.273 267.905 309.92 268.399 310.026Z" fill="#FBE4D4"/>
<path d="M269.739 310.838C271.679 310.415 273.619 309.85 275.454 311.191C273.549 311.226 271.609 311.755 269.739 310.838Z" fill="#FBE4D4"/>
</svg>
