<svg width="500" height="500" viewBox="0 0 500 500" fill="none" xmlns="http://www.w3.org/2000/svg">
<path d="M252.016 204.756C250.605 203.446 238.311 212.011 234.382 219.67C232.769 222.693 229.041 226.522 229.041 226.522C209.089 248.287 195.284 258.263 195.284 258.263C179.162 271.564 143.289 292.725 138.856 299.275C134.321 305.824 146.615 316.405 152.66 311.064C160.319 306.63 165.357 303.003 173.116 295.647C189.339 282.648 199.416 272.169 204.555 267.332C212.918 259.573 235.49 232.064 235.49 232.064C235.49 232.064 239.218 230.149 240.831 228.134C243.753 224.607 245.667 221.282 246.977 217.352C249.194 211.608 253.426 206.066 252.016 204.756Z" fill="#ECAD83"/>
<path d="M176.139 278.214C164.853 273.075 137.848 286.981 132.507 293.934C130.693 297.965 131.298 305.522 133.414 310.056C136.437 313.18 144.801 317.614 156.691 317.614C165.961 317.614 181.177 313.281 207.074 312.273C223.7 311.568 235.49 323.761 235.49 323.761L243.047 288.089C230.351 284.563 209.391 277.308 182.89 285.873C182.789 285.772 179.262 279.625 176.139 278.214Z" fill="#FF8AA0"/>
<path d="M131.6 297.461C130.693 298.166 127.469 297.964 117.493 294.941L117.19 313.079C125.151 310.157 138.25 313.382 138.25 313.382C130.693 305.018 131.6 297.461 131.6 297.461Z" fill="#ECAD83"/>
<path d="M88.271 302.398C82.7289 305.623 82.8297 311.266 83.3335 314.692C84.7442 325.272 89.984 328.497 97.0377 331.52C106.409 335.55 120.617 312.273 121.524 307.739C124.043 295.949 110.843 285.268 104.696 282.547C98.0453 279.524 98.7507 282.547 97.743 285.268C97.743 285.369 97.2392 285.671 97.2392 285.671C96.8361 286.578 96.3323 287.888 95.2239 288.896C95.2239 288.896 95.1231 289.803 94.9216 290.306C94.8208 290.609 94.72 290.81 94.317 290.81C93.2086 290.71 92.1001 290.71 91.5963 290.911C89.8833 291.616 90.7902 300.887 88.271 302.398Z" fill="#F6BB92"/>
<path d="M99.7583 289.4C99.7583 289.4 99.2545 288.694 96.2315 287.384C95.8284 287.384 94.9215 287.485 95.1231 288.593C95.3246 289.4 97.5414 288.694 99.7583 289.4Z" fill="#D6876B"/>
<path d="M99.7581 289.399C99.7581 289.399 99.8589 287.586 97.239 285.671C96.8359 285.57 96.3321 285.772 96.2313 285.873C95.4252 286.679 96.2313 287.384 96.2313 287.384C99.3551 288.694 99.7581 289.399 99.7581 289.399Z" fill="#CC785E"/>
<path d="M97.0373 333.434C108.525 338.371 130.895 328.295 123.539 302.096C123.035 300.383 121.322 297.763 116.586 298.972C113.261 299.778 110.439 301.592 110.439 301.592C109.633 302.096 108.726 302.7 107.718 303.406C106.711 304.111 104.998 310.056 103.789 309.754C91.7975 306.731 84.4416 310.661 83.1316 313.684C81.4186 321.443 84.7439 328.194 97.0373 333.434Z" fill="#602F0F"/>
<path d="M110.943 305.623C111.447 299.778 109.331 298.67 106.207 297.662L104.494 306.328L104.696 310.157C107.92 311.165 110.54 311.467 110.943 305.623Z" fill="#F6BB92"/>
<path d="M122.431 323.66C124.144 327.086 120.516 332.124 114.369 334.845C108.223 337.565 101.874 337.062 100.161 333.636C98.4482 330.209 101.774 326.683 107.92 323.962C114.067 321.141 120.717 320.133 122.431 323.66Z" fill="#4C230C"/>
<path d="M103.184 308.041C102.983 309.049 102.58 309.855 102.277 310.56C101.874 311.568 101.371 312.072 101.371 312.072L105.2 312.273C105.401 311.77 105.603 311.266 105.804 310.762C105.804 310.762 105.401 310.762 104.696 310.661H104.797C104.696 309.754 104.595 308.344 104.696 306.429C104.797 306.429 103.89 304.918 103.184 308.041Z" fill="#602F0F"/>
<path d="M124.144 324.768C125.957 328.396 121.927 333.736 115.175 336.759C108.424 339.782 101.572 339.279 99.7582 335.651C97.9444 332.023 101.673 328.194 108.424 325.171C115.175 322.249 122.43 321.141 124.144 324.768Z" fill="#602F0F"/>
<path d="M117.997 334.14C118.198 334.543 116.687 335.651 114.671 336.558C112.656 337.465 110.741 337.868 110.54 337.465C110.338 337.062 111.648 336.256 113.664 335.349C115.679 334.442 117.795 333.736 117.997 334.14Z" fill="#4C230C"/>
<path d="M235.389 323.66C244.055 336.255 263.1 333.333 270.959 327.69C295.546 309.955 256.852 285.369 254.535 288.291C253.527 289.601 242.846 287.888 242.846 287.888C239.521 292.422 235.389 323.66 235.389 323.66Z" fill="#3D3C3C"/>
<path d="M431.177 178.255C429.061 182.588 420.899 190.347 418.783 196.292C417.573 199.718 414.953 206.268 412.031 208.283C407.195 211.508 403.265 210.097 401.753 210.802C392.483 214.833 374.043 236.498 369.004 239.823C360.641 245.365 352.983 226.623 355.905 224.607C380.492 208.082 393.289 201.431 397.924 198.912C397.924 198.912 421.302 178.86 424.627 176.844C426.642 175.635 432.991 174.527 431.177 178.255Z" fill="#F6BB92"/>
<path d="M340.79 258.061C350.967 252.418 360.339 246.473 368.198 240.326C362.354 238.21 356.308 228.638 355.905 224.607C352.781 226.521 328.093 240.024 328.093 240.024C320.334 244.357 273.982 269.045 262.193 280.33C259.069 283.152 256.55 285.873 254.534 288.392C250.705 293.128 278.718 317.715 278.718 317.715C279.524 315.195 315.095 276.703 321.141 271.161C327.086 265.417 340.79 258.061 340.79 258.061Z" fill="#3D3C3C"/>
<path d="M253.729 206.57C252.318 205.26 240.024 213.825 236.095 221.483C234.482 224.506 230.754 228.335 230.754 228.335C210.802 250.101 196.997 260.076 196.997 260.076C180.875 273.377 145.002 294.538 140.568 301.088C136.135 307.638 148.327 318.218 154.373 312.878C162.032 308.444 167.07 304.816 174.829 297.46C191.052 284.462 201.129 273.982 206.268 269.145C214.631 261.386 237.203 233.877 237.203 233.877C237.203 233.877 240.931 231.963 242.544 229.947C245.466 226.421 247.38 223.196 248.69 219.165C250.907 213.422 255.139 207.88 253.729 206.57Z" fill="#F6BB92"/>
</svg>
