<svg width="500" height="500" viewBox="0 0 500 500" fill="none" xmlns="http://www.w3.org/2000/svg">
<path d="M241.876 313.666C238.143 312.27 234.673 310.423 231.393 308.198C229.394 306.84 226.943 306.916 224.681 306.539C211.596 304.351 198.624 301.561 185.426 299.977C181.202 299.449 177.356 299.902 173.51 302.843C166.345 308.311 157.974 311.328 148.961 312.798C137.95 314.608 126.977 313.175 115.966 313.024C106.954 312.911 97.9789 312.459 88.9665 312.044C87.1942 311.969 85.1579 312.459 83.8381 310.649C83.3102 308.688 83.8004 306.802 84.1775 304.917C85.271 299.487 85.4973 293.868 87.873 288.74C95.641 286.817 103.22 284.253 110.913 282.066C132.03 276.07 152.77 268.566 174.49 264.757C186.896 262.57 199.378 261.175 211.822 259.365C222.456 257.819 233.09 256.951 243.837 256.876C254.621 256.801 265.368 257.592 276.002 259.327C277.058 259.516 278.076 259.893 279.132 260.157C278.906 264.003 278.642 267.887 278.529 271.733C278.114 283.423 277.586 295.075 277.775 306.765C275.097 308.009 272.458 309.254 269.78 310.46C269.215 310.347 268.838 310.724 268.423 310.95C264.011 310.837 259.637 311.252 255.225 311.705C250.7 312.195 246.363 313.515 241.876 313.666Z" fill="#696C65"/>
<path d="M241.876 313.666C246.364 313.553 250.7 312.195 255.15 311.743C259.524 311.328 263.936 310.875 268.348 310.988C268.763 311.441 269.253 311.403 269.781 311.29C270.233 311.29 270.686 311.328 271.138 311.328C273.137 312.308 275.211 311.743 277.247 311.705C281.885 311.893 286.524 312.044 291.162 312.346C294.405 312.572 297.648 312.572 300.853 312.912C305.076 313.364 309.149 312.874 313.184 311.78C317.256 310.649 321.329 309.367 325.364 307.972C326.834 307.444 328.644 307.331 329.512 305.672C330.454 305.898 331.322 305.86 332.264 305.558C337.77 303.937 343.238 302.165 348.517 299.94C353.57 297.79 353.683 299.223 353.758 292.473C353.834 286.402 359.528 280.143 365.599 279.766C373.82 279.275 381.814 279.954 389.205 284.291C393.089 286.553 395.653 289.645 396.897 293.793C400.103 304.465 393.73 312.723 386.414 317.361C385.585 317.889 384.68 318.304 384.001 319.02C373.028 322.98 361.79 325.883 350.402 328.297C340.824 330.333 331.397 333.086 321.781 334.896C316.804 335.839 311.675 335.763 306.585 334.783C301.833 333.878 296.969 333.501 292.18 332.784C286.788 331.955 281.433 330.974 276.003 330.182C272.798 329.73 269.592 329.353 266.387 328.749C265.482 328.561 264.351 328.862 263.446 329.277C260.655 330.559 257.789 330.635 254.848 329.994C250.7 329.089 246.515 328.598 242.442 327.203C239.312 326.147 237.464 323.998 237.314 320.981C237.163 318.04 238.332 315.325 241.424 314.005C241.537 314.005 241.688 313.817 241.876 313.666Z" fill="#F7BB92"/>
<path d="M383.887 319.057C384.566 318.303 385.471 317.926 386.3 317.398C393.616 312.76 399.989 304.502 396.783 293.83C395.539 289.682 392.975 286.59 389.091 284.327C381.7 279.991 373.705 279.312 365.485 279.802C359.414 280.142 353.72 286.401 353.644 292.51C353.569 299.26 353.456 297.827 348.403 299.976C343.124 302.201 337.656 303.974 332.15 305.595C331.208 305.859 330.34 305.934 329.398 305.708C327.097 303.747 324.043 303.823 321.403 302.691C321.705 300.542 322.044 298.393 322.308 296.243C324.118 280.519 325.099 264.756 326.494 248.994C335.318 246.958 344.104 246.053 353.267 246.468C364.203 246.958 372.084 252.086 378.985 259.892C384.83 266.529 390.486 273.316 395.652 280.519C397.047 282.48 398.329 284.478 399.649 286.477C400.403 288.739 401.459 290.926 401.912 293.264C403.345 300.844 402.968 308.159 397.726 314.419C393.691 317.662 388.789 318.378 383.887 319.057Z" fill="#8A8AD9"/>
<path d="M326.532 248.955C325.137 264.717 324.156 280.48 322.346 296.204C322.082 298.354 321.743 300.503 321.441 302.652C316.803 301.785 312.203 300.842 307.565 300.051C301.72 299.032 295.95 298.693 290.294 301.521C286.221 303.557 281.885 305.104 277.661 306.838C277.473 295.148 278.001 283.496 278.416 271.807C278.566 267.96 278.83 264.076 279.019 260.23C287.164 258.194 295.309 256.157 303.492 254.197C310.544 252.5 317.633 250.878 324.684 249.257C325.325 249.031 325.929 249.03 326.532 248.955Z" fill="#F6BA93"/>
<path d="M408.21 339.381C408.738 337.911 407.531 336.968 407.003 335.874C405.08 331.877 404.288 327.729 404.741 323.317C405.005 320.904 404.816 318.415 405.608 316.077C406.023 315.7 406.211 315.21 406.287 314.644C406.815 311.401 408.248 308.46 409.492 305.481C410.095 304.01 410.736 303.483 411.981 305.066C413.829 307.367 415.94 309.441 417.75 311.741C418.731 312.985 419.824 313.438 421.333 313.362C424.425 313.249 427.555 313.325 430.647 313.136C432.268 313.023 433.211 313.626 434.041 314.946C435.964 317.963 438 320.866 440.036 323.808C440.64 324.675 441.318 325.618 442.487 325.844C447.955 326.824 453.385 328.182 458.966 328.71C460.437 330.557 460.248 332.556 459.683 334.668C456.892 344.472 447.427 351.825 436.793 352.466C434.87 352.579 432.947 352.806 431.024 352.957C430.42 351.637 429.025 351.75 428.007 351.637C421.898 350.92 417.034 347.904 412.735 343.756C411.227 342.247 409.718 340.814 408.21 339.381Z" fill="#7A4821"/>
<path d="M458.966 328.672C453.423 328.144 447.992 326.824 442.487 325.806C441.318 325.58 440.639 324.675 440.036 323.77C438 320.829 435.963 317.925 434.04 314.908C433.211 313.588 432.268 313.023 430.646 313.098C427.554 313.287 424.462 313.174 421.332 313.324C419.824 313.4 418.73 312.947 417.75 311.703C415.94 309.403 413.828 307.329 411.98 305.029C410.736 303.445 410.095 303.973 409.492 305.443C408.247 308.422 406.814 311.364 406.286 314.607C406.211 315.172 405.985 315.625 405.608 316.04C403.496 315.738 401.384 315.398 399.273 315.097C398.632 315.021 398.028 315.059 397.727 314.343C403.006 308.045 403.345 300.767 401.912 293.188C401.46 290.85 400.442 288.663 399.65 286.4C403.609 287.268 407.606 288.21 411.566 289.002C417.147 290.134 422.765 291.152 428.384 292.208C429.515 292.434 430.533 292.019 431.551 291.68C436.868 289.907 442.261 288.663 447.917 288.927C452.367 289.115 454.893 291.378 455.27 295.828C455.346 296.657 455.76 297.562 455.61 298.354C454.818 302.087 456.703 303.897 459.833 305.406C463.076 306.989 463.227 308.46 461.228 311.401C460.097 313.061 459.041 314.795 457.608 316.228C456.515 317.322 456.515 318.566 456.892 320.074C457.684 322.978 459.23 325.618 458.966 328.672Z" fill="#F7BB92"/>
<path d="M87.8356 288.702C85.4222 293.83 85.2337 299.449 84.1401 304.879C83.7631 306.764 83.3105 308.65 83.8008 310.611C79.9545 313.062 76.1836 315.701 71.2814 315.588C68.3779 315.513 65.7005 314.721 63.5888 312.798C59.29 308.914 54.6896 305.369 50.4662 301.372C47.2609 298.355 43.5277 295.942 40.4733 292.699C37.2681 289.343 36.4385 285.157 38.7387 281.688C40.8881 278.521 44.395 275.881 49.3349 277.352C56.7258 279.576 64.1545 281.877 71.5454 284.177C75.7688 285.497 79.9922 286.817 84.1779 288.212C85.3845 288.627 86.5912 288.589 87.8356 288.702Z" fill="#F7BB92"/>
<path d="M429.515 355.219C428.006 358.877 424.801 360.649 421.068 359.782C409.227 357.029 397.764 353.221 386.338 349.186C385.697 348.96 385.018 348.696 384.415 348.356C383.02 347.564 382.756 346.132 382.793 344.736C382.831 343.379 384.113 343.19 385.169 342.926C391.353 341.493 397.651 340.89 403.948 340.438C403.835 341.493 404.174 342.398 404.778 343.266C408.699 349.035 414.393 351.939 420.992 353.409C423.858 354.013 426.686 354.578 429.515 355.219Z" fill="#7A4821"/>
<path d="M429.515 355.221C426.687 354.617 423.821 354.014 420.993 353.373C414.394 351.902 408.7 348.999 404.778 343.229C404.175 342.362 403.836 341.457 403.949 340.401C405.344 340.062 406.777 339.722 408.172 339.383C409.681 340.816 411.189 342.249 412.697 343.719C416.996 347.867 421.861 350.922 427.969 351.6C428.987 351.714 430.383 351.6 430.986 352.92C430.684 353.788 429.553 354.127 429.515 355.221Z" fill="#5C3514"/>
<path d="M269.668 310.497C269.705 310.761 269.705 311.025 269.743 311.289C269.215 311.402 268.725 311.44 268.31 310.987C268.763 310.761 269.14 310.384 269.668 310.497Z" fill="#FBE4D4"/>
<path d="M271.1 311.365C273.174 310.912 275.248 310.309 277.208 311.742C275.172 311.78 273.098 312.345 271.1 311.365Z" fill="#FBE4D4"/>
</svg>
