<svg width="500" height="501" viewBox="0 0 500 501" fill="none" xmlns="http://www.w3.org/2000/svg">
<path d="M250.876 179.278C252.817 177.47 269.732 189.296 275.139 199.87C277.357 204.044 282.487 209.331 282.487 209.331C309.938 239.384 328.932 253.158 328.932 253.158C351.115 271.524 400.472 300.742 406.572 309.786C412.811 318.83 395.897 333.439 387.578 326.065C377.041 319.943 370.109 314.934 359.433 304.777C337.112 286.829 323.248 272.359 316.177 265.681C304.67 254.967 273.614 216.984 273.614 216.984C273.614 216.984 268.484 214.34 266.266 211.557C262.245 206.688 259.611 202.096 257.808 196.67C254.758 188.739 248.935 181.087 250.876 179.278Z" fill="#ECAD83"/>
<path d="M355.645 280.987C371.243 274.005 408.568 292.898 415.949 302.345C418.456 307.821 417.62 318.089 414.696 324.25C410.518 328.494 398.958 334.518 382.524 334.518C369.711 334.518 348.681 328.631 312.888 327.262C289.908 326.304 273.613 342.869 273.613 342.869L263.168 294.404C280.716 289.612 309.685 279.755 346.313 291.392C346.453 291.255 351.327 282.904 355.645 280.987Z" fill="#FF8AA0"/>
<path d="M416.932 307.24C418.16 308.21 422.528 307.933 436.042 303.775L436.451 328.718C425.668 324.7 407.923 329.134 407.923 329.134C418.16 317.633 416.932 307.24 416.932 307.24Z" fill="#ECAD83"/>
<path d="M476.822 313.794C484.534 318.229 484.394 325.991 483.693 330.704C481.73 345.257 474.439 349.692 464.624 353.85C451.584 359.395 431.814 327.377 430.552 321.14C427.047 304.923 445.415 290.231 453.968 286.489C463.222 282.331 462.24 286.489 463.642 290.231C463.642 290.37 464.343 290.786 464.343 290.786C464.904 292.033 465.605 293.835 467.148 295.221C467.148 295.221 467.288 296.468 467.568 297.161C467.709 297.577 467.849 297.854 468.41 297.854C469.952 297.716 471.494 297.716 472.195 297.993C474.579 298.963 473.317 311.715 476.822 313.794Z" fill="#F6BB92"/>
<path d="M460.754 296.379C460.754 296.379 461.439 295.269 465.548 293.209C466.096 293.209 467.328 293.367 467.055 295.111C466.781 296.379 463.767 295.269 460.754 296.379Z" fill="#D6876B"/>
<path d="M460.755 296.379C460.755 296.379 460.618 293.827 464.18 291.134C464.728 290.993 465.413 291.276 465.55 291.418C466.646 292.552 465.55 293.544 465.55 293.544C461.303 295.387 460.755 296.379 460.755 296.379Z" fill="#CC785E"/>
<path d="M464.311 357.045C448.521 363.86 417.774 349.953 427.885 313.795C428.577 311.431 430.932 307.815 437.441 309.484C442.012 310.597 445.89 313.1 445.89 313.1C446.998 313.795 448.244 314.63 449.629 315.603C451.014 316.577 453.369 324.782 455.031 324.365C471.513 320.192 481.623 325.616 483.424 329.788C485.778 340.496 481.208 349.814 464.311 357.045Z" fill="#602F0F"/>
<path d="M445.013 318.532C444.278 310.025 447.363 308.412 451.917 306.945L454.414 319.558L454.12 325.131C449.42 326.598 445.6 327.038 445.013 318.532Z" fill="#F6BB92"/>
<path d="M429.637 342.837C427.291 347.605 432.259 354.616 440.679 358.403C449.098 362.189 457.793 361.488 460.14 356.72C462.486 351.952 457.931 347.044 449.512 343.257C441.093 339.331 431.983 337.928 429.637 342.837Z" fill="#4C230C"/>
<path d="M455.879 321.755C456.156 323.142 456.711 324.252 457.127 325.222C457.682 326.609 458.375 327.303 458.375 327.303L453.105 327.58C452.828 326.887 452.55 326.193 452.273 325.5C452.273 325.5 452.828 325.5 453.798 325.361H453.66C453.798 324.113 453.937 322.171 453.798 319.536C453.66 319.536 454.908 317.456 455.879 321.755Z" fill="#602F0F"/>
<path d="M427.033 344.776C424.536 349.769 430.084 357.119 439.375 361.279C448.667 365.44 458.098 364.747 460.594 359.754C463.09 354.761 457.959 349.491 448.667 345.331C439.375 341.309 429.39 339.784 427.033 344.776Z" fill="#602F0F"/>
<path d="M435.42 357.833C435.136 358.424 437.267 360.052 440.108 361.384C442.949 362.716 445.648 363.308 445.932 362.716C446.216 362.124 444.37 360.94 441.529 359.608C438.687 358.276 435.704 357.241 435.42 357.833Z" fill="#4C230C"/>
<path d="M273.732 343.382C261.793 360.677 235.556 356.665 224.727 348.917C190.854 324.566 244.163 290.807 247.356 294.819C248.744 296.618 263.459 294.266 263.459 294.266C268.041 300.492 273.732 343.382 273.732 343.382Z" fill="#3D3C3C"/>
<path d="M4.73961 143.486C7.64342 149.389 18.8438 159.96 21.7476 168.059C23.4069 172.727 27.0021 181.65 31.0121 184.396C37.6494 188.789 43.0421 186.867 45.1163 187.828C57.8377 193.319 83.1423 222.835 90.0561 227.365C101.533 234.916 112.042 209.381 108.032 206.636C74.2926 184.121 56.7315 175.061 50.3708 171.629C50.3708 171.629 18.2907 144.31 13.7276 141.564C10.9621 139.917 2.25064 138.406 4.73961 143.486Z" fill="#F6BB92"/>
<path d="M128.783 252.884C114.731 245.071 101.792 236.84 90.9396 228.33C99.0092 225.4 107.357 212.147 107.913 206.566C112.227 209.217 146.313 227.911 146.313 227.911C157.026 233.91 221.026 268.09 237.305 283.715C241.618 287.621 245.096 291.388 247.878 294.876C253.165 301.433 214.487 335.473 214.487 335.473C213.374 331.986 164.261 278.693 155.913 271.02C147.705 263.068 128.783 252.884 128.783 252.884Z" fill="#3D3C3C"/>
<path d="M248.763 182.447C250.705 180.651 267.624 192.394 273.032 202.893C275.251 207.037 280.383 212.287 280.383 212.287C307.842 242.127 326.841 255.803 326.841 255.803C349.03 274.039 398.401 303.05 404.503 312.029C410.605 321.009 393.825 335.514 385.504 328.192C374.964 322.114 368.03 317.141 357.351 307.056C335.023 289.235 321.155 274.868 314.082 268.236C302.572 257.599 271.507 219.885 271.507 219.885C271.507 219.885 266.376 217.26 264.157 214.497C260.135 209.662 257.5 205.241 255.697 199.715C252.646 191.841 246.821 184.243 248.763 182.447Z" fill="#F6BB92"/>
</svg>
