<svg width="500" height="500" viewBox="0 0 500 500" fill="none" xmlns="http://www.w3.org/2000/svg">
<path d="M223.249 271.788C223.549 271.096 224.134 270.634 224.632 270.105C227.768 266.764 231.246 263.815 234.982 261.165C240.006 257.599 245.276 254.47 250.907 251.947C252.35 251.302 253.831 250.776 255.359 250.367C259.822 249.171 264.27 247.933 268.736 246.751C274.021 245.354 279.387 244.313 284.763 243.325C291.191 242.144 297.611 240.941 304.042 239.769C310.361 238.619 316.675 237.455 323.008 236.376C326.394 235.797 329.809 235.391 333.21 234.88C335.214 234.576 337.211 234.224 339.211 233.881C340.216 233.709 341.137 233.338 342.044 232.844C345.208 231.119 348.394 229.422 351.607 227.796C356.712 225.214 362.138 223.489 367.662 222.085C372.637 220.822 377.699 219.996 382.793 219.379C387.383 218.818 391.99 218.472 396.608 218.257C397.003 218.239 397.395 218.204 397.79 218.176C401.377 220.991 404.972 223.792 408.546 226.621C412.737 229.941 416.91 233.282 421.084 236.623C421.429 236.901 421.715 237.254 422.029 237.575C421.405 237.984 420.689 238.147 419.986 238.341C413.961 240.009 407.936 241.681 401.903 243.329C396.957 244.676 391.983 245.925 387.058 247.34C380.504 249.22 373.942 251.055 367.299 252.593C365.316 253.051 363.401 253.708 361.563 254.59C358.769 255.934 355.968 257.257 353.181 258.618C351.505 259.44 349.777 260.111 347.991 260.64C343.402 261.998 338.812 263.37 334.226 264.739C333.743 264.862 333.284 265.021 332.758 264.774C332.254 264.538 331.693 264.425 331.157 264.263C327.432 263.127 323.667 262.957 319.875 263.871C317.152 264.527 314.435 265.205 311.722 265.907C309.715 266.425 307.729 267.021 305.722 267.547C302.628 268.359 299.576 269.307 296.585 270.44C295.78 270.345 295.025 270.62 294.249 270.733C291.688 271.114 289.12 271.445 286.562 271.858C281.285 272.708 276.011 273.594 270.736 274.479C269.184 274.74 267.629 275.008 266.09 275.344C264.958 275.59 264.725 276.017 264.909 277.164C264.937 277.33 265.004 277.488 265.032 277.654C265.374 279.482 265.692 281.305 265.903 283.158C266.059 284.502 266.143 285.849 266.26 287.197C266.454 289.441 266.672 291.681 266.866 293.924C267.011 295.607 267.124 297.293 267.269 298.976C267.445 300.994 267.674 303.008 267.819 305.03C267.995 307.446 268.108 309.866 268.253 312.283C268.278 312.675 268.331 313.066 268.38 313.458C268.592 315.25 268.712 317.042 268.221 318.813C266.235 319.832 264.094 320.284 261.899 320.531C259.426 320.81 256.943 320.757 254.463 320.69C253.165 320.654 251.87 320.594 250.575 320.545C245.446 320.355 240.334 319.928 235.24 319.286C229.14 318.517 223.087 317.472 217.089 316.121C214.775 315.599 212.405 315.437 210.059 315.119C206.09 314.587 202.118 314.103 198.149 313.585C193.34 312.953 188.536 312.311 183.731 311.662C179.148 311.045 174.569 310.413 169.99 309.785C168.872 309.634 167.753 309.503 166.639 309.327C165.806 309.196 164.956 309.087 164.155 308.833C163.195 308.529 162.275 308.522 161.336 308.833C155.568 310.734 149.628 311.659 143.588 312.114C137.386 312.583 131.184 312.593 124.986 312.258C112.671 311.592 100.553 309.679 88.6992 306.201C86.0499 305.425 83.4005 304.649 80.6629 304.226C80.3384 304.176 80.035 303.986 79.721 303.862C79.5905 303.114 79.7704 302.426 80.0562 301.731C81.5908 298.041 83.0795 294.33 84.6247 290.644C85.3196 288.982 86.0993 287.356 86.8542 285.719C87.1893 284.992 87.6374 284.35 88.4382 284.057C92.9996 283.863 97.5434 283.457 102.091 283.069C105.403 282.787 108.716 282.537 112.028 282.247C115.059 281.983 118.086 281.679 121.113 281.397C124.086 281.122 127.06 280.854 130.031 280.586C133.283 280.289 136.54 279.993 139.792 279.7C142.823 279.429 145.853 279.171 148.883 278.896C152.192 278.596 155.501 278.289 158.81 277.975C163.576 277.52 168.346 277.153 173.14 277.104C179 277.047 184.856 276.815 190.716 276.656C193.083 276.592 195.446 276.529 197.814 276.476C202.714 276.367 207.617 276.293 212.517 276.141C214.994 276.063 217.46 275.749 219.943 275.799C221.238 275.802 222.536 275.813 223.831 275.806C224.223 275.806 224.639 275.823 224.999 275.703C225.662 275.481 226.329 275.499 227.003 275.495C230.439 275.485 233.875 275.481 237.311 275.467C237.815 275.467 238.351 275.52 238.821 275.375C239.6 275.132 240.376 275.16 241.163 275.157C248.261 275.146 255.359 275.139 262.457 275.128C262.961 275.128 263.469 275.111 263.974 275.079C264.224 275.061 264.379 274.885 264.429 274.652C264.676 273.463 264.277 272.437 263.607 271.484C263.437 271.248 263.183 271.1 262.887 271.103C261.367 271.117 259.839 271.036 258.336 271.205C257.557 271.294 256.784 271.41 255.997 271.414C250.533 271.424 245.068 271.424 239.604 271.438C239.043 271.438 238.457 271.41 237.928 271.555C237.258 271.738 236.595 271.745 235.921 271.749C231.694 271.763 227.472 271.773 223.245 271.788H223.249Z" fill="#696D65"/>
<path d="M395.112 302.885C394.195 302.794 393.358 303.002 392.505 303.376C388.853 304.974 385.174 306.498 381.512 308.075C377.131 309.959 372.756 311.871 368.378 313.765C367.606 314.1 366.826 314.411 366.05 314.732C365.069 314.749 364.219 315.264 363.284 315.462C361.083 315.928 358.896 316.393 356.638 316.57C354.976 316.7 353.346 316.64 351.84 316.048C348.721 314.816 345.927 313.056 343.687 310.477C341.62 308.099 340.801 305.316 340.689 302.25C340.611 300.13 341.108 298.151 341.906 296.183C343.218 292.937 345.476 290.616 348.517 289.025C350.468 288.005 352.584 287.384 354.719 286.852C357.618 286.128 360.525 285.55 363.545 285.61C365.224 285.642 366.911 285.398 368.593 285.257C368.798 285.239 368.992 285.074 369.19 284.975C369.465 284.929 369.761 284.929 370.012 284.827C372.093 283.977 374.167 283.109 376.238 282.241C378.312 281.373 380.38 280.495 382.458 279.634C383.65 279.136 384.86 278.674 386.052 278.177C388.748 277.048 391.436 275.905 394.127 274.773C395.733 274.095 397.345 273.439 398.946 272.748C401.68 271.566 404.383 270.306 407.149 269.195C409.195 268.373 411.1 267.283 413.089 266.355C413.403 266.211 413.675 266.006 413.848 265.706C413.978 265.477 413.904 265.237 413.664 265.156C412.842 264.877 411.978 264.852 411.184 265.145C409.343 265.83 407.53 266.595 405.709 267.347C402.697 268.588 399.691 269.851 396.675 271.086C393.401 272.43 390.116 273.749 386.839 275.09C384.239 276.155 381.646 277.238 379.05 278.311C378.535 278.523 378.076 278.904 377.469 278.829C377.561 278.212 377.582 277.605 377.448 276.984C376.94 274.624 376.467 272.257 375.963 269.894C375.843 269.333 375.836 268.775 375.882 268.214C376.002 266.754 376.87 265.717 378.295 265.311C378.782 265.173 379.276 265.064 379.766 264.948C382.059 264.397 384.352 263.847 386.649 263.304C387.65 263.067 388.543 262.577 389.397 262.034C390.226 261.505 390.843 260.827 390.804 259.702C390.776 258.912 391.072 258.15 391.457 257.455C392.028 256.428 392.91 256.093 394.011 256.527C394.688 256.791 395.338 257.141 395.965 257.515C398.287 258.901 400.619 260.263 403.039 261.473C405.011 262.457 407.092 262.842 409.262 262.58C410.239 262.464 411.308 262.432 412.003 261.519C412.31 261.967 412.744 261.981 413.206 261.861C413.908 261.677 414.599 261.388 415.312 261.307C416.049 261.226 416.395 260.824 416.674 260.231C417.799 257.843 419.009 255.493 420.036 253.066C420.649 251.613 421.397 250.233 422.036 248.797C423.359 245.827 424.717 242.871 425.969 239.869C426.371 238.902 427.014 237.992 426.989 236.87C426.989 236.768 426.989 236.662 426.985 236.56C427.098 236.56 427.211 236.56 427.324 236.549C428.569 236.408 428.827 236.083 428.548 234.951C428.079 233.049 427.574 231.162 427.197 229.239C426.615 226.28 425.553 223.436 425.137 220.427C424.943 219.016 424.981 217.629 424.989 216.232C424.992 215.354 425.705 214.828 426.59 214.892C426.812 214.906 427.038 214.948 427.246 215.022C430.64 216.19 434.076 217.224 437.315 218.825C438.676 219.499 439.618 220.427 440.077 221.824C440.377 222.741 440.842 223.57 441.248 224.435C441.629 225.246 442 226.064 442.356 226.886C443.047 228.484 443.883 230.019 444.663 231.578C444.857 231.966 445.199 232.136 445.623 232.153C445.795 233.547 445.951 234.94 446.145 236.33C446.24 237.008 446.258 237.657 446.085 238.334C445.178 241.876 444.324 245.432 443.414 248.974C442.839 251.217 441.862 253.32 441.026 255.472C439.149 260.302 437.255 265.12 435.35 269.936C435.156 270.426 435.089 270.91 435.106 271.418C434.443 271.71 434.38 272.388 434.168 272.945C432.898 276.321 431.582 279.673 429.719 282.781C427.864 285.874 425.631 288.58 422.336 290.238C421.228 290.796 420.127 291.367 418.988 291.851C414.733 293.65 410.465 295.417 406.203 297.195C403.811 298.193 401.423 299.199 399.035 300.204C397.835 300.709 396.689 301.301 395.62 302.049C395.32 302.257 395.133 302.508 395.115 302.875L395.112 302.885Z" fill="#FFB68A"/>
<path d="M369.19 284.977C368.992 285.076 368.798 285.241 368.593 285.259C366.911 285.4 365.224 285.643 363.545 285.612C360.525 285.555 357.618 286.13 354.719 286.854C352.584 287.386 350.468 288.007 348.517 289.027C345.476 290.614 343.218 292.935 341.906 296.185C341.108 298.153 340.611 300.132 340.689 302.252C340.801 305.318 341.616 308.101 343.687 310.479C345.931 313.054 348.721 314.815 351.84 316.049C353.346 316.646 354.976 316.702 356.638 316.572C358.895 316.395 361.083 315.93 363.284 315.464C364.219 315.266 365.069 314.751 366.05 314.734C364.723 316.025 363.034 316.695 361.368 317.358C357.745 318.798 353.95 319.609 350.101 320.202C347.141 320.657 344.178 320.988 341.19 320.763C339.277 320.618 337.369 320.526 335.453 320.509C334.215 320.498 332.973 320.516 331.735 320.498C323.399 320.367 315.063 320.233 306.727 320.082C305.943 320.068 305.16 319.93 304.377 319.849C303.954 317.245 303.527 314.642 303.114 312.035C302.783 309.929 302.454 307.819 302.151 305.706C301.759 302.983 301.396 300.256 301.022 297.529C300.772 295.691 300.578 293.846 300.278 292.018C299.904 289.746 299.438 287.492 299.025 285.227C298.475 282.19 297.918 279.149 297.403 276.104C297.085 274.221 296.849 272.326 296.577 270.435C299.569 269.306 302.62 268.354 305.714 267.542C307.721 267.017 309.708 266.424 311.715 265.902C314.428 265.2 317.144 264.523 319.868 263.866C323.66 262.953 327.424 263.122 331.149 264.258C331.686 264.42 332.247 264.533 332.751 264.77C333.273 265.017 333.732 264.858 334.219 264.734C334.25 265.031 334.37 265.246 334.677 265.362C335.573 265.69 336.473 266.018 337.348 266.392C340.911 267.913 344.467 269.458 348.03 270.986C352.221 272.785 356.271 274.859 360.134 277.279C363.037 279.099 365.866 281.036 368.727 282.924C368.883 283.608 369.034 284.292 369.19 284.977Z" fill="#8989DE"/>
<path d="M296.581 270.433C296.852 272.324 297.092 274.218 297.406 276.102C297.918 279.147 298.475 282.188 299.029 285.225C299.438 287.49 299.907 289.748 300.281 292.016C300.581 293.844 300.779 295.689 301.026 297.527C301.396 300.253 301.763 302.98 302.155 305.704C302.458 307.817 302.782 309.923 303.118 312.033C303.53 314.64 303.961 317.243 304.381 319.847C299.83 319.826 295.268 319.988 290.732 319.737C285.51 319.448 280.289 319.66 275.075 319.431C272.789 319.332 270.482 319.296 268.224 318.806C268.715 317.035 268.595 315.243 268.383 313.451C268.337 313.059 268.281 312.668 268.256 312.276C268.108 309.86 267.999 307.44 267.822 305.023C267.674 303.002 267.445 300.987 267.272 298.969C267.127 297.287 267.014 295.6 266.87 293.918C266.676 291.674 266.457 289.434 266.263 287.19C266.146 285.842 266.062 284.498 265.907 283.151C265.695 281.299 265.377 279.475 265.035 277.647C265.003 277.482 264.936 277.323 264.912 277.157C264.728 276.011 264.961 275.584 266.094 275.337C267.632 275.002 269.187 274.733 270.74 274.472C276.014 273.587 281.284 272.701 286.565 271.851C289.123 271.439 291.691 271.107 294.252 270.726C295.028 270.609 295.787 270.334 296.588 270.433H296.581Z" fill="#FFB78A"/>
<path d="M395.112 302.885C395.129 302.518 395.32 302.271 395.616 302.059C396.685 301.312 397.832 300.719 399.031 300.214C401.42 299.209 403.808 298.207 406.2 297.205C410.461 295.424 414.73 293.66 418.984 291.861C420.124 291.377 421.228 290.806 422.332 290.248C425.627 288.59 427.86 285.885 429.716 282.791C431.579 279.679 432.894 276.331 434.164 272.955C434.373 272.398 434.44 271.721 435.103 271.428C437.442 274.712 438.754 278.363 439.29 282.36C439.897 286.879 439.269 291.236 437.911 295.523C437.071 298.175 435.424 300.303 433.314 302.077C432.785 302.522 432.355 303.023 431.981 303.587C431.427 303.527 431.042 303.845 430.612 304.127C428.679 305.397 426.618 306.392 424.414 307.122C422.918 307.619 421.39 307.976 419.856 308.247C418.378 308.512 416.882 308.769 415.347 308.688C413.777 308.604 412.197 308.674 410.62 308.664C410.172 308.664 409.717 308.653 409.279 308.568C407.089 308.131 404.852 307.887 402.746 307.076C402.697 307.055 402.637 307.051 402.58 307.051C402.259 307.034 402.04 307.164 401.984 307.496C401.815 308.491 402.185 309.373 402.573 310.251C402.767 310.696 403.078 310.96 403.579 311.045C404.351 311.175 405.117 311.341 405.882 311.507C408.348 312.043 410.832 312.414 413.365 312.399C414.659 312.392 415.958 312.339 417.249 312.414C419.605 312.551 421.803 311.817 423.983 311.144C425.962 310.533 427.821 309.574 429.532 308.357C430.256 307.842 431.011 307.316 431.97 307.305C431.818 308.48 431.631 309.648 431.268 310.777C429.649 315.804 426.287 319.13 421.337 320.873C418.498 321.872 415.538 322.281 412.553 322.545C407.307 323.007 402.072 322.775 396.837 322.305C389.354 321.635 381.974 320.326 374.637 318.756C374.361 318.697 374.09 318.622 373.822 318.534C373.448 318.414 373.352 318.058 373.589 317.733C373.931 317.271 374.365 316.919 374.873 316.654C375.674 316.238 376.471 315.814 377.289 315.437C383.936 312.347 390.681 309.478 397.461 306.699C397.973 306.49 398.502 306.321 399.059 305.908C397.691 304.839 396.283 304.014 395.122 302.885H395.112Z" fill="#894200"/>
<path d="M88.4347 284.061C87.6339 284.354 87.1894 284.996 86.8507 285.723C86.0958 287.36 85.3161 288.986 84.6211 290.648C83.076 294.334 81.5872 298.045 80.0527 301.735C79.7634 302.43 79.587 303.118 79.7175 303.866C78.7368 305.115 77.368 305.369 75.9287 305.186C74.8139 305.045 73.7556 304.625 72.7925 303.997C70.8804 302.748 69.2329 301.227 68.0017 299.305C66.0897 296.317 64.2341 293.29 62.3397 290.288C61.4365 288.859 60.5123 287.444 59.5809 286.033C57.8417 283.398 56.2189 280.696 54.7337 277.905C53.8024 276.156 52.9628 274.388 52.4054 272.487C52.0385 271.234 51.8727 269.968 51.8939 268.655C51.9151 267.301 52.3666 266.094 53.1004 265.015C54.4445 263.043 57.3196 262.38 59.4398 263.561C60.6675 264.246 61.8387 265.039 62.9747 265.872C66.6153 268.528 70.2313 271.22 73.8473 273.908C77.7808 276.833 81.7001 279.775 85.6266 282.707C85.9441 282.943 86.3074 283.126 86.5826 283.402C87.1047 283.927 87.7573 284.019 88.4347 284.065V284.061Z" fill="#FFB78C"/>
<path d="M426.985 236.566C426.985 236.668 426.985 236.774 426.989 236.876C425.655 236.827 424.354 236.989 423.108 237.501L422.022 237.575C421.708 237.257 421.422 236.901 421.076 236.622C416.903 233.282 412.729 229.941 408.538 226.621C404.965 223.792 401.37 220.991 397.782 218.176C398.019 213.995 400.393 211.363 404.002 209.652C404.82 209.264 405.706 209.12 406.626 209.099C408.616 209.053 410.532 209.335 412.433 209.966C415.689 211.049 418.984 212.02 422.269 213.014C422.801 213.177 423.373 213.219 423.927 213.318C423.623 213.783 423.101 214.069 422.939 214.658C422.452 216.426 422.406 218.239 422.692 220.006C423.048 222.208 423.641 224.377 424.174 226.547C424.696 228.671 425.327 230.766 425.8 232.897C426.079 234.163 426.35 235.416 426.982 236.559L426.985 236.566Z" fill="#FFB98C"/>
<path d="M223.249 271.788C227.476 271.778 231.698 271.767 235.925 271.749C236.598 271.749 237.262 271.739 237.932 271.555C238.461 271.411 239.047 271.439 239.608 271.439C245.072 271.425 250.537 271.425 256.001 271.414C256.788 271.414 257.561 271.294 258.34 271.206C259.843 271.04 261.374 271.118 262.891 271.104C263.187 271.104 263.445 271.248 263.611 271.485C264.281 272.434 264.68 273.464 264.433 274.653C264.383 274.886 264.225 275.065 263.978 275.08C263.473 275.111 262.965 275.129 262.461 275.129C255.363 275.14 248.265 275.147 241.167 275.157C240.384 275.157 239.604 275.133 238.824 275.376C238.359 275.521 237.823 275.468 237.315 275.468C233.879 275.482 230.442 275.485 227.006 275.496C226.333 275.496 225.666 275.482 225.003 275.704C224.643 275.824 224.226 275.806 223.835 275.806C222.54 275.813 221.242 275.806 219.947 275.799C220.043 275.602 220.099 275.376 220.237 275.214C221.104 274.162 221.986 273.122 222.872 272.081C222.974 271.961 223.126 271.88 223.256 271.781L223.249 271.788Z" fill="#494A45"/>
<path d="M426.986 236.567C426.355 235.42 426.086 234.171 425.804 232.905C425.332 230.771 424.7 228.675 424.178 226.555C423.645 224.382 423.053 222.216 422.696 220.014C422.411 218.247 422.456 216.434 422.943 214.666C423.106 214.074 423.628 213.791 423.931 213.326C425.169 212.193 426.651 212.497 428.087 212.666C429.205 212.8 430.235 213.28 431.269 213.707C433.079 214.458 434.888 215.199 436.698 215.954C437.319 216.212 437.926 216.497 438.54 216.776C439.743 217.319 440.752 218.081 441.387 219.277C441.517 219.521 441.725 219.722 441.898 219.94C443.2 223.01 444.487 226.086 445.824 229.141C446.121 229.818 446.322 230.492 446.354 231.222C446.251 231.646 445.994 231.945 445.623 232.164C445.2 232.146 444.858 231.977 444.664 231.589C443.884 230.03 443.048 228.495 442.357 226.897C442 226.072 441.63 225.257 441.249 224.445C440.847 223.581 440.381 222.752 440.078 221.835C439.619 220.438 438.677 219.506 437.315 218.836C434.077 217.238 430.641 216.204 427.247 215.033C427.039 214.963 426.813 214.92 426.591 214.903C425.705 214.839 424.993 215.361 424.989 216.243C424.982 217.64 424.94 219.027 425.138 220.438C425.554 223.447 426.616 226.29 427.198 229.25C427.575 231.173 428.083 233.064 428.549 234.962C428.828 236.094 428.57 236.419 427.325 236.56C427.212 236.574 427.099 236.567 426.986 236.57V236.567Z" fill="#EAA57B"/>
<path d="M431.96 307.298C431 307.309 430.245 307.834 429.522 308.349C427.811 309.566 425.952 310.526 423.973 311.136C421.793 311.81 419.595 312.544 417.239 312.406C415.947 312.332 414.649 312.381 413.354 312.392C410.821 312.406 408.338 312.036 405.872 311.5C405.106 311.334 404.341 311.164 403.568 311.037C403.071 310.953 402.76 310.688 402.563 310.244C402.175 309.365 401.804 308.483 401.974 307.488C402.03 307.153 402.249 307.026 402.57 307.044C402.626 307.044 402.683 307.051 402.736 307.069C404.842 307.884 407.078 308.123 409.269 308.561C409.707 308.649 410.162 308.656 410.61 308.656C412.187 308.667 413.764 308.596 415.337 308.681C416.872 308.762 418.367 308.504 419.846 308.24C421.38 307.965 422.908 307.608 424.403 307.114C426.608 306.384 428.669 305.389 430.602 304.119C431.032 303.837 431.42 303.52 431.971 303.58C432.059 304.123 432.15 304.666 432.235 305.209C432.348 305.933 432.313 306.635 431.953 307.294L431.96 307.298Z" fill="#633409"/>
<path d="M446.346 231.221C446.314 230.491 446.113 229.821 445.817 229.14C444.48 226.085 443.196 223.009 441.891 219.939C444.84 220.571 446.879 222.36 447.754 225.175C448.424 227.337 448.241 229.539 446.343 231.221H446.346Z" fill="#FFBA8E"/>
<path d="M368.731 282.925C370.887 281.768 373.109 280.755 375.392 279.87C376.119 279.588 376.828 279.274 377.473 278.829C378.08 278.903 378.539 278.522 379.054 278.31C381.65 277.242 384.243 276.155 386.843 275.09C390.117 273.749 393.405 272.43 396.679 271.086C399.695 269.847 402.697 268.584 405.713 267.346C407.53 266.598 409.343 265.829 411.188 265.145C411.982 264.852 412.846 264.877 413.668 265.155C413.908 265.236 413.986 265.476 413.852 265.706C413.679 266.006 413.407 266.21 413.093 266.355C411.104 267.283 409.199 268.373 407.153 269.195C404.39 270.306 401.688 271.565 398.95 272.747C397.352 273.439 395.737 274.095 394.131 274.772C391.44 275.908 388.752 277.051 386.056 278.176C384.864 278.674 383.658 279.136 382.462 279.633C380.387 280.494 378.316 281.373 376.242 282.24C374.168 283.108 372.093 283.976 370.016 284.826C369.762 284.929 369.469 284.929 369.194 284.974C369.042 284.29 368.887 283.606 368.731 282.921V282.925Z" fill="#EAA47A"/>
<path d="M412.003 261.525C412.338 260.146 413.054 258.918 413.636 257.648C416.374 251.669 419.037 245.654 422.004 239.78C422.385 239.028 422.742 238.263 423.108 237.504C424.354 236.993 425.655 236.831 426.989 236.877C427.014 237.998 426.375 238.909 425.969 239.875C424.717 242.874 423.359 245.834 422.036 248.804C421.397 250.24 420.65 251.619 420.036 253.073C419.009 255.5 417.796 257.849 416.674 260.238C416.395 260.83 416.049 261.232 415.312 261.313C414.599 261.391 413.908 261.684 413.206 261.867C412.744 261.987 412.31 261.973 412.003 261.525Z" fill="#EAA57B"/>
</svg>
