<svg width="500" height="500" viewBox="0 0 500 500" fill="none" xmlns="http://www.w3.org/2000/svg">
<path d="M265.668 286.063C263.17 287.351 260.485 287.993 257.705 288.127C251.334 288.434 244.963 288.296 238.592 287.897C231.148 287.435 223.772 286.497 216.452 285.1C212.896 284.422 209.301 284.147 205.713 283.759C201.677 283.322 197.634 282.92 193.595 282.496C191.182 282.246 188.762 282.055 186.363 281.71C182.726 281.188 179.068 281.135 175.413 280.969C171.92 280.81 168.428 280.605 164.935 280.411C164.487 280.387 164.018 280.369 163.598 280.228C162.614 279.9 161.711 280.126 160.801 280.485C159.488 281.004 158.187 281.544 156.86 282.02C152.278 283.66 147.536 284.666 142.738 285.435C132.727 287.044 122.648 287.393 112.537 287.058C105.03 286.811 97.5757 285.992 90.1921 284.578C87.4792 284.059 84.7522 283.611 82.0323 283.131C81.0939 282.966 80.1062 283.167 79.2066 282.729C78.9244 282.017 79.0196 281.322 79.2454 280.605C80.3954 276.912 81.4961 273.204 82.6709 269.521C83.4329 267.122 84.1702 264.709 85.3238 262.451C86.3256 262.01 87.4228 262.035 88.4741 261.869C100.169 260.021 111.814 257.883 123.463 255.759C132.614 254.091 141.779 252.496 150.937 250.856C154.655 250.189 158.359 249.441 162.085 248.82C164.473 248.421 166.886 248.16 169.292 247.885C171.867 247.589 174.453 247.37 177.032 247.081C180.225 246.721 183.414 246.305 186.606 245.945C187.386 245.857 188.183 245.917 188.97 245.881C192.406 245.733 195.846 245.585 199.282 245.426C203.617 245.225 207.96 245.088 212.278 244.587C214.067 244.379 215.88 244.326 217.683 244.248C221.796 244.075 225.913 243.916 230.026 243.775C237.244 243.528 244.462 243.348 251.676 243.045C254.156 242.939 256.629 242.735 259.113 242.781C259.9 242.795 260.489 242.551 261.071 242.011C263.054 240.17 265.047 238.332 267.11 236.586C269.912 234.219 272.857 232.042 276.085 230.264C277.874 229.276 279.454 227.989 280.911 226.57C281.885 225.625 282.989 225.046 284.315 224.859C285.822 227.216 287.473 229.463 289.258 231.615C290.577 233.206 291.9 234.797 292.772 236.695C292.743 236.783 292.729 236.875 292.729 236.967C291.195 236.984 289.738 237.454 288.245 237.715C283.705 238.508 279.165 239.302 274.635 240.156C270.712 240.893 266.807 241.708 262.895 242.495C262.62 242.551 262.348 242.629 262.083 242.717C261.276 242.985 261.05 243.359 261.194 244.248C261.283 244.802 261.424 245.349 261.533 245.899C261.791 247.222 262.115 248.538 262.288 249.875C262.778 253.664 263.233 257.46 263.657 261.259C264.059 264.889 264.352 268.537 264.793 272.163C264.948 273.451 265.022 274.739 265.16 276.026C265.438 278.655 265.71 281.279 265.964 283.911C265.996 284.236 265.893 284.578 265.844 284.909C265.788 285.297 265.728 285.682 265.668 286.07V286.063Z" fill="#696E66"/>
<path d="M370.199 252.01C372.379 252.003 374.563 251.996 376.743 251.989C378.479 251.982 380.214 251.975 381.947 251.975C382.388 251.975 382.85 251.89 383.231 252.215C383.051 252.687 382.892 253.167 382.684 253.626C381.601 256.018 381.195 258.544 381.177 261.151C381.17 262.219 381.174 263.292 381.177 264.361C381.177 264.7 381.149 265.049 381.227 265.37C381.83 267.867 382.088 270.457 383.217 272.817C383.58 273.575 383.897 274.355 384.24 275.124C380.698 274.796 377.145 274.948 373.6 274.944C372.838 274.944 372.728 275.075 372.69 275.837C372.626 277.061 372.496 278.274 372.644 279.516C372.884 281.488 372.489 283.45 372.182 285.39C371.966 286.748 371.924 288.082 372.182 289.422C372.912 293.232 373.635 297.046 374.408 300.849C374.799 302.778 375.286 304.687 375.72 306.61C376.168 308.585 376.644 310.554 377.029 312.543C377.367 314.3 378.165 315.838 379.075 317.334C379.484 318.008 379.918 318.671 380.384 319.306C381.594 320.95 382.525 322.739 383.305 324.622C385.781 330.62 388.671 336.423 391.599 342.208C393.736 346.431 395.74 350.725 397.441 355.148C397.737 355.917 398.164 356.559 398.827 357.018C400.432 358.129 401.501 359.756 402.81 361.142C403.293 361.654 403.533 362.405 403.822 363.075C404.824 365.411 405.477 367.866 406.2 370.293C406.733 372.075 407.234 373.863 407.802 375.631C408.267 377.081 408.581 378.576 409.051 380.012C409.597 381.684 408.366 383.723 406.747 384.147C403.537 384.99 400.464 386.302 397.158 386.821C394.661 387.216 392.195 387.809 389.701 388.232C388.311 388.468 386.875 388.44 385.481 388.274C384.165 388.119 382.705 387.325 382.479 385.329C382.366 384.323 382.201 383.325 382.197 382.305C382.197 381.067 382.102 379.839 381.936 378.605C381.756 377.271 381.841 375.902 381.837 374.548C381.83 373.08 381.837 371.613 381.865 370.149C381.879 369.454 381.77 368.819 381.431 368.198C380.059 365.672 378.708 363.132 377.35 360.599C377.191 360.299 377.022 360.006 376.867 359.706C375.12 356.355 373.427 352.975 371.617 349.663C369.483 345.754 367.38 341.827 365.377 337.848C364.717 336.539 363.98 335.273 363.306 333.971C362.321 332.066 361.39 330.136 360.695 328.104C360.071 326.273 358.974 324.686 358.092 322.989C357.57 321.984 357.104 320.968 356.741 319.902C356.137 318.142 355.576 316.367 354.966 314.614C353.502 310.413 351.992 306.225 350.549 302.013C349.766 299.723 349.092 297.395 348.358 295.084C348.172 294.495 347.889 293.931 347.734 293.335C347.106 290.9 345.434 289.228 343.585 287.725C342.852 287.129 342.206 286.385 341.296 286.011C341.134 285.393 340.721 284.924 340.368 284.416C339.264 282.836 338.396 281.132 337.98 279.234C337.825 278.521 337.817 277.781 337.687 277.061C337.292 274.877 337.687 272.799 338.544 270.799C339.292 269.056 340.499 267.673 341.994 266.499C344.379 264.625 346.937 263.2 349.985 262.703C351.16 262.512 352.348 262.533 353.502 262.318C355.954 261.86 358.328 262.287 360.688 262.805C362.565 263.218 364.396 263.885 365.941 265.052C368.379 266.897 370.626 268.95 371.875 271.854C371.959 272.051 372.115 272.224 372.27 272.376C372.312 272.418 372.538 272.376 372.552 272.33C372.637 272.069 372.735 271.797 372.735 271.533C372.725 269.564 372.651 267.603 372.457 265.634C372.235 263.334 371.868 261.062 371.455 258.798C371.042 256.529 370.615 254.264 370.195 251.996L370.199 252.01Z" fill="#FFB78B"/>
<path d="M370.199 252.009C370.618 254.278 371.045 256.543 371.458 258.811C371.871 261.079 372.238 263.348 372.46 265.648C372.65 267.616 372.725 269.578 372.739 271.546C372.739 271.814 372.64 272.086 372.555 272.344C372.541 272.389 372.315 272.432 372.273 272.389C372.121 272.234 371.963 272.061 371.878 271.867C370.629 268.964 368.385 266.911 365.944 265.066C364.402 263.898 362.568 263.231 360.691 262.818C358.331 262.3 355.957 261.87 353.505 262.332C352.352 262.547 351.163 262.526 349.988 262.716C346.936 263.214 344.382 264.635 341.998 266.512C340.502 267.687 339.299 269.07 338.547 270.812C337.687 272.813 337.295 274.891 337.69 277.074C337.821 277.794 337.828 278.535 337.983 279.247C338.396 281.145 339.264 282.846 340.371 284.43C340.728 284.938 341.137 285.407 341.299 286.024C340.795 286.042 340.287 286.077 339.779 286.081C327.819 286.12 315.86 286.155 303.901 286.187C303.171 286.187 302.437 286.144 301.703 286.123C301.559 285.181 301.439 284.236 301.266 283.297C300.737 280.373 300.172 277.455 299.65 274.527C299.146 271.712 298.666 268.893 298.197 266.071C297.819 263.803 297.544 261.517 297.099 259.262C296.101 254.2 295.011 249.155 293.988 244.097C293.512 241.733 292.972 239.38 292.729 236.974C292.729 236.882 292.743 236.79 292.771 236.702C293.473 236.752 294.094 236.448 294.715 236.212C299.491 234.392 304.402 232.995 309.32 231.622C310.611 231.262 311.923 230.956 313.144 230.366C314.463 230.088 315.79 229.841 317.098 229.52C317.984 229.301 318.873 229.234 319.773 229.216C323.133 229.155 326.452 229.613 329.728 230.589C332.54 231.421 335.228 232.578 337.951 233.651C340.516 234.66 343.088 235.655 345.628 236.727C350.461 238.766 355.107 241.176 359.538 243.98C362.388 245.786 365.175 247.695 368.033 249.491C369.045 250.126 369.652 251.025 370.192 252.02L370.199 252.009Z" fill="#8A89DE"/>
<path d="M408.158 243.423C411.485 240.576 415.105 238.152 419.37 237.066C426.616 235.221 433.347 236.491 439.379 241.024C441.006 242.248 442.54 243.592 443.831 245.162C445.726 247.466 446.897 250.147 447.5 253.061C447.818 254.606 448.026 256.172 448.298 257.728C448.672 259.862 448.552 261.997 448.375 264.138C448.195 266.322 447.317 268.276 446.396 270.209C445.793 271.476 445.112 272.707 444.463 273.952C443.422 273.832 442.625 274.263 441.912 274.986C440.773 276.147 439.658 277.339 438.3 278.267C436.906 279.216 435.509 280.172 433.971 280.856C432.232 281.632 430.472 282.359 428.598 282.786C427.343 283.072 426.108 283.449 424.803 283.417C424.355 283.407 423.91 283.439 423.473 283.583C422.707 283.834 421.917 283.841 421.151 283.58C420.601 283.389 420.044 283.428 419.483 283.421C418.985 283.414 418.636 283.675 418.343 284.042C418.033 284.433 418.075 284.948 418.46 285.234C418.922 285.576 419.426 285.802 420.019 285.781C422.368 285.7 424.739 286.028 427.067 285.446C428.803 285.012 430.556 284.666 432.236 283.989C434.014 283.273 435.746 282.451 437.397 281.505C439.785 280.14 441.933 278.443 443.683 276.281C444.248 275.586 444.565 274.859 444.47 273.963C447.511 275.116 449.469 277.452 450.763 280.256C452.446 283.904 452.083 289.841 447.426 293.122C445.221 294.675 442.808 295.673 440.194 296.251C435.241 297.342 430.246 297.373 425.233 296.823C422.714 296.548 420.178 296.428 417.68 295.952C415.743 295.585 413.799 295.26 411.866 294.879C410.72 294.653 410.265 293.888 410.564 292.759C410.681 292.329 410.864 291.909 411.072 291.514C411.845 290.064 412.755 288.713 413.962 287.584C415.073 286.543 416.184 285.506 417.288 284.462C417.627 284.141 417.578 283.851 417.154 283.738C414.812 283.1 412.582 282.169 410.42 281.071C410.37 281.047 410.31 281.043 410.257 281.029C410.339 280.398 410.878 280.108 411.263 279.72C415.352 275.593 419.454 271.476 423.547 267.352C424.22 266.671 424.855 265.948 425.533 265.27C426.305 264.498 426.658 263.626 426.436 262.515C426.302 261.856 426.291 261.171 426.256 260.497C426.101 257.513 425.963 254.528 425.808 251.544C425.787 251.152 425.72 250.761 425.688 250.366C425.649 249.879 425.413 249.54 425.018 249.254C422.908 247.734 420.947 246.037 419.059 244.259C418.35 243.589 417.638 243.264 416.643 243.444C414.244 243.878 411.813 243.793 409.386 243.793C408.935 243.793 408.472 243.843 408.151 243.419L408.158 243.423Z" fill="#894100"/>
<path d="M292.733 236.968C292.976 239.374 293.516 241.727 293.992 244.09C295.015 249.149 296.105 254.194 297.104 259.256C297.548 261.51 297.823 263.796 298.201 266.065C298.67 268.887 299.15 271.706 299.654 274.521C300.176 277.445 300.741 280.366 301.27 283.291C301.439 284.229 301.563 285.175 301.707 286.117C298.06 286.215 294.419 286.455 290.764 286.431C284.411 286.388 278.057 286.445 271.703 286.455C269.682 286.459 267.657 286.515 265.667 286.06C265.727 285.672 265.791 285.288 265.844 284.9C265.89 284.568 265.996 284.229 265.964 283.901C265.71 281.273 265.438 278.645 265.159 276.017C265.022 274.729 264.948 273.441 264.793 272.154C264.352 268.527 264.059 264.883 263.657 261.249C263.237 257.45 262.782 253.654 262.288 249.865C262.115 248.532 261.794 247.212 261.533 245.889C261.424 245.339 261.286 244.792 261.194 244.238C261.05 243.353 261.275 242.979 262.083 242.707C262.348 242.619 262.623 242.538 262.895 242.485C266.807 241.698 270.716 240.883 274.635 240.146C279.165 239.296 283.705 238.502 288.245 237.705C289.738 237.444 291.198 236.978 292.729 236.957L292.733 236.968Z" fill="#FFB78A"/>
<path d="M408.158 243.423C408.479 243.846 408.941 243.797 409.393 243.797C411.816 243.797 414.251 243.881 416.649 243.448C417.644 243.268 418.357 243.592 419.066 244.262C420.953 246.044 422.918 247.741 425.024 249.258C425.419 249.544 425.656 249.882 425.695 250.369C425.726 250.761 425.797 251.152 425.815 251.547C425.966 254.532 426.107 257.516 426.263 260.501C426.298 261.175 426.309 261.863 426.443 262.519C426.665 263.63 426.312 264.501 425.539 265.274C424.862 265.951 424.231 266.674 423.553 267.355C419.461 271.479 415.358 275.593 411.27 279.724C410.885 280.112 410.345 280.401 410.264 281.033C409.925 281.033 409.59 281.022 409.252 281.033C406.768 281.128 404.32 280.824 401.886 280.352C398.672 279.727 395.55 278.824 392.646 277.272C391.853 276.849 391.091 276.372 390.311 275.921C390.332 275.293 389.81 274.933 389.552 274.446C388.223 271.941 387.425 269.257 386.981 266.48C386.833 265.549 386.54 264.635 386.575 263.658C386.639 261.915 386.505 260.162 386.617 258.423C386.737 256.581 386.935 254.729 388.138 253.174C388.409 252.824 388.614 252.408 388.621 251.932C389.489 251.406 390.096 250.574 390.974 250.037C392.847 248.894 394.795 247.893 396.813 247.053C400.489 245.529 404.27 244.301 408.158 243.416V243.423Z" fill="#FFB78A"/>
<path d="M85.3305 262.455C84.1769 264.709 83.4396 267.126 82.6776 269.525C81.5064 273.211 80.4057 276.919 79.2521 280.609C79.0299 281.325 78.9311 282.02 79.2133 282.733C77.9751 284.25 76.3523 284.666 74.5214 284.239C72.4541 283.756 70.6725 282.712 69.0886 281.293C67.2682 279.66 65.8571 277.695 64.4001 275.762C62.8091 273.649 61.2428 271.518 59.6412 269.415C57.7996 266.999 55.9264 264.607 54.0849 262.19C52.7161 260.398 51.5378 258.476 50.3842 256.542C49.7457 255.474 49.2765 254.316 48.899 253.142C48.2887 251.237 48.0489 249.282 48.7403 247.342C49.3718 245.578 50.5747 244.495 52.4903 244.089C53.8027 243.811 54.9139 244.051 56.0605 244.601C57.7432 245.409 59.2778 246.464 60.8688 247.423C64.9187 249.864 68.9686 252.313 73.0009 254.782C75.9783 256.606 78.9346 258.462 81.8979 260.307C83.0445 261.019 84.1875 261.742 85.3305 262.462V262.455Z" fill="#FFB78C"/>
<path d="M313.147 230.36C311.93 230.949 310.618 231.256 309.323 231.616C304.406 232.988 299.495 234.385 294.718 236.205C294.097 236.442 293.476 236.745 292.774 236.696C291.903 234.794 290.58 233.203 289.261 231.616C287.476 229.464 285.825 227.216 284.318 224.86C284.378 224.31 284.699 223.914 285.147 223.646C286.453 222.867 287.761 222.087 289.222 221.628C289.487 221.544 289.772 221.512 290.047 221.48C290.27 221.452 290.499 221.473 290.721 221.445C294.228 221.036 297.389 222.186 300.472 223.636C302.102 224.405 303.696 225.241 305.266 226.13C307.228 227.238 309.274 228.19 311.292 229.196C311.952 229.524 312.597 229.859 313.144 230.36H313.147Z" fill="#FFB78C"/>
<path d="M388.625 251.939C388.622 252.412 388.413 252.832 388.142 253.181C386.939 254.733 386.738 256.589 386.621 258.431C386.508 260.17 386.643 261.923 386.579 263.666C386.544 264.643 386.837 265.56 386.985 266.488C387.429 269.261 388.226 271.946 389.556 274.454C389.814 274.941 390.336 275.3 390.315 275.928C388.29 275.664 386.269 275.396 384.244 275.131C383.905 274.359 383.584 273.579 383.221 272.82C382.088 270.46 381.834 267.871 381.231 265.373C381.153 265.052 381.185 264.699 381.181 264.364C381.174 263.295 381.171 262.223 381.181 261.154C381.199 258.551 381.608 256.025 382.688 253.629C382.896 253.171 383.051 252.687 383.235 252.218C384.416 252.204 385.595 252.186 386.773 251.999C387.38 251.901 388.008 251.957 388.629 251.943L388.625 251.939Z" fill="#E9A37A"/>
<path d="M444.47 273.97C444.565 274.866 444.248 275.593 443.683 276.288C441.933 278.45 439.785 280.147 437.397 281.512C435.742 282.458 434.014 283.276 432.236 283.996C430.556 284.673 428.807 285.019 427.067 285.453C424.739 286.035 422.368 285.707 420.019 285.788C419.426 285.809 418.918 285.583 418.46 285.241C418.072 284.956 418.029 284.44 418.343 284.049C418.636 283.682 418.985 283.421 419.483 283.428C420.044 283.435 420.601 283.396 421.151 283.587C421.917 283.848 422.704 283.844 423.473 283.59C423.914 283.446 424.355 283.414 424.803 283.424C426.108 283.453 427.343 283.075 428.598 282.793C430.472 282.37 432.232 281.639 433.971 280.863C435.509 280.179 436.906 279.223 438.3 278.274C439.658 277.346 440.773 276.154 441.912 274.993C442.625 274.27 443.422 273.839 444.463 273.959L444.473 273.974L444.47 273.97Z" fill="#63350E"/>
</svg>
