<svg width="500" height="500" viewBox="0 0 500 500" fill="none" xmlns="http://www.w3.org/2000/svg">
<path d="M244.458 273.962C245.332 272.689 246.49 271.666 247.544 270.554C251.825 266.046 256.429 261.883 261.176 257.871C270.408 250.07 280.318 243.25 290.758 237.172C302.709 230.213 314.619 223.178 326.582 216.242C330.464 213.992 334.476 211.972 338.415 209.826C340.411 208.737 342.392 207.618 344.358 206.479C345.316 205.925 346.097 205.163 346.866 204.344C349.886 201.105 352.644 197.632 355.81 194.531C359.953 190.473 364.492 186.903 369.304 183.683C376.636 178.783 384.448 174.77 392.5 171.212C398.231 168.681 404.028 166.281 409.71 163.642C413.441 161.907 417.076 159.938 419.996 156.922C420.127 156.845 420.261 156.768 420.392 156.687L420.542 156.656C420.831 157.126 421.165 157.572 421.392 158.064C422.389 160.23 423.381 162.399 424.327 164.588C425.974 168.404 427.593 172.232 429.209 176.059C429.732 177.294 430.359 178.502 430.371 179.894C429.267 180.675 428.163 181.456 427.059 182.237C418.68 188.165 410.287 194.077 401.878 199.967C394.327 205.256 386.964 210.81 379.213 215.815C377.609 216.85 376.19 218.131 374.859 219.5C372.501 221.924 370.108 224.312 367.754 226.744C366.38 228.163 364.903 229.456 363.315 230.621C360.045 233.021 356.771 235.422 353.505 237.826C351.524 239.288 349.624 240.834 347.905 242.615C345.812 244.785 343.65 246.881 341.542 249.035C339.907 250.705 338.311 252.409 336.699 254.094C334.856 254.105 333.014 254.121 331.171 254.132C329.813 254.14 328.475 254.363 327.182 254.725C322.897 255.929 318.927 257.875 315.104 260.114C311.184 262.41 307.364 264.876 303.256 266.842C302.709 267.103 302.105 267.296 301.69 267.784C301.455 267.854 301.209 267.9 300.994 268C298.493 269.181 295.993 270.365 293.5 271.562C292.723 271.935 291.954 272.32 291.212 272.75C287.326 275.008 283.314 277.001 279.114 278.609C278.367 278.894 277.625 279.19 276.886 279.49C275.986 279.851 275.513 280.482 275.613 281.49C275.732 282.71 275.821 283.937 275.94 285.156C276.148 287.233 276.379 289.307 276.582 291.38C276.644 291.992 276.675 292.607 276.69 293.219C276.698 293.657 276.44 293.888 276.005 293.904C275.698 293.915 275.39 293.923 275.082 293.904C273.67 293.83 272.263 293.723 270.851 293.677C266.119 293.527 261.388 293.5 256.656 293.365C250.39 293.184 244.124 292.957 237.854 292.861C236.315 292.838 234.769 292.888 233.245 292.723C231.83 292.569 230.418 292.473 229.014 292.584C226.998 292.746 224.967 292.396 222.963 292.773C217.858 292.726 212.765 292.996 207.672 293.257C206.93 293.296 206.21 293.403 205.483 293.542C204.795 293.673 204.387 294.057 204.245 294.731C204.168 295.088 204.079 295.45 204.052 295.815C203.937 297.296 204.137 298.758 204.318 300.224C204.383 300.739 204.645 301.147 205.103 301.405C205.691 301.736 206.276 302.082 206.876 302.389C210.815 304.409 214.823 306.294 218.662 308.498C219.486 308.971 220.37 309.202 221.27 309.364C222.478 309.579 223.702 309.691 224.921 309.841C227.356 310.141 229.795 310.429 232.23 310.729C234.788 311.041 237.338 311.433 239.904 311.648C242.412 311.86 244.932 311.902 247.451 312.006C250.521 312.133 253.591 312.122 256.664 312.322C261.138 312.614 265.631 312.653 270.112 312.818C272.751 312.914 275.39 313.053 278.029 313.172C278.152 313.176 278.275 313.183 278.394 313.203C278.656 313.249 278.817 313.406 278.906 313.664C278.983 313.895 279.087 314.118 279.183 314.341C279.21 314.687 279.241 315.034 279.267 315.38C279.187 317.288 279.691 319.146 279.779 321.038C279.818 321.892 279.96 322.739 280.075 323.589C280.21 324.581 280.452 325.52 281.452 326.024C278.46 327.886 275.151 328.836 271.678 329.013C266.762 329.267 261.838 329.143 256.922 328.843C254.652 328.705 252.387 328.497 250.117 328.324C245.639 327.986 241.193 327.382 236.761 326.682C232.087 325.939 227.444 325.02 222.821 324.02C220.786 323.577 218.685 323.419 216.612 323.15C212.284 322.589 207.953 322.054 203.622 321.485C199.475 320.942 195.336 320.369 191.193 319.811C185.954 319.103 180.714 318.4 175.475 317.696C173.282 317.399 171.086 317.13 168.893 316.807C167.862 316.657 166.82 316.495 165.824 316.199C164.708 315.872 163.646 315.899 162.566 316.253C158.996 317.426 155.349 318.288 151.633 318.857C148.775 319.292 145.905 319.607 143.02 319.827C137.862 320.223 132.696 320.257 127.53 320.127C121.686 319.977 115.87 319.461 110.065 318.761C103.157 317.926 96.3288 316.688 89.5931 314.961C86.6773 314.214 83.7884 313.349 80.8726 312.595C78.6723 312.025 76.4527 311.537 74.237 311.033C74.0101 310.979 73.7523 311.045 73.5138 311.052C73.0715 310.544 73.2753 310.021 73.4946 309.51C74.2601 307.713 75.0025 305.909 75.8065 304.128C77.7914 299.735 79.7994 295.354 81.8074 290.969C82.0112 290.522 82.1959 290.072 82.2267 289.576C82.696 289.214 83.2499 289.222 83.8038 289.18C89.8086 288.73 95.8133 288.276 101.818 287.807C105.311 287.533 108.8 287.241 112.289 286.922C116.878 286.506 121.463 286.049 126.052 285.622C129.357 285.318 132.665 285.041 135.969 284.745C139.52 284.429 143.066 284.102 146.617 283.783C149.921 283.487 153.23 283.206 156.534 282.898C159.838 282.594 163.139 282.267 166.443 281.952C167.178 281.883 167.912 281.802 168.647 281.779C171.471 281.69 174.298 281.625 177.125 281.552C185.854 281.325 194.578 281.082 203.306 280.875C207.607 280.771 211.911 280.767 216.216 280.648C219.593 280.555 222.971 280.386 226.348 280.202C229.972 280.001 233.599 279.951 237.227 279.932C237.954 279.932 238.715 280.048 239.308 279.444C239.496 279.705 239.739 279.89 240.066 279.894C240.985 279.905 241.947 280.067 242.816 279.859C244.339 279.498 245.863 279.582 247.39 279.575C253.591 279.551 259.788 279.544 265.989 279.555C266.858 279.555 267.7 279.482 268.508 279.151C268.924 278.982 269.016 278.413 268.685 278.086C268.277 277.682 267.781 277.455 267.223 277.374C266.196 277.228 265.165 277.116 264.142 276.955C262.88 276.755 261.63 276.432 260.361 276.316C259.441 276.232 258.557 275.997 257.653 275.866C255.841 275.609 254.029 275.359 252.229 275.032C249.648 274.562 247.082 274.012 244.443 273.939L244.458 273.962Z" fill="#696E66"/>
<path d="M279.198 314.352C279.106 314.125 279.002 313.906 278.921 313.675C278.833 313.421 278.671 313.263 278.41 313.213C278.29 313.19 278.163 313.186 278.044 313.182C275.405 313.063 272.766 312.929 270.128 312.829C265.646 312.663 261.153 312.629 256.679 312.332C253.606 312.132 250.536 312.14 247.467 312.017C244.951 311.913 242.427 311.871 239.919 311.659C237.354 311.444 234.803 311.051 232.245 310.74C229.81 310.444 227.371 310.151 224.936 309.851C223.717 309.701 222.494 309.59 221.286 309.374C220.386 309.213 219.501 308.982 218.678 308.509C214.835 306.304 210.826 304.42 206.891 302.4C206.291 302.092 205.707 301.746 205.118 301.415C204.656 301.154 204.395 300.746 204.333 300.234C204.152 298.773 203.949 297.307 204.068 295.826C204.099 295.461 204.183 295.099 204.26 294.741C204.406 294.072 204.814 293.683 205.499 293.553C206.226 293.414 206.945 293.306 207.688 293.268C212.781 293.006 217.874 292.737 222.978 292.783C224.982 292.406 227.01 292.756 229.029 292.595C230.429 292.483 231.845 292.576 233.261 292.733C234.784 292.899 236.33 292.849 237.869 292.872C244.139 292.964 250.405 293.195 256.672 293.376C261.403 293.51 266.135 293.537 270.866 293.687C272.278 293.733 273.686 293.841 275.098 293.914C275.405 293.93 275.713 293.922 276.021 293.914C276.455 293.899 276.717 293.668 276.706 293.229C276.694 292.614 276.659 292.002 276.598 291.391C276.39 289.314 276.163 287.24 275.955 285.167C275.832 283.947 275.748 282.72 275.628 281.501C275.532 280.493 276.002 279.862 276.902 279.501C277.644 279.204 278.383 278.908 279.129 278.62C283.33 277.012 287.342 275.019 291.227 272.761C291.969 272.33 292.743 271.942 293.516 271.572C296.008 270.376 298.509 269.191 301.009 268.01C301.228 267.906 301.475 267.864 301.709 267.795C301.905 268.441 302.063 269.103 302.305 269.73C303.502 272.819 304.717 275.904 305.937 278.985C307.425 282.751 308.918 286.517 310.411 290.279C309.43 290.302 308.406 290.164 307.475 290.394C306.314 290.679 305.167 290.644 304.01 290.675C303.456 290.691 302.867 290.583 302.359 290.741C301.151 291.121 299.932 291.014 298.709 291.048C298.278 291.06 297.816 290.987 297.428 291.125C296.47 291.475 295.493 291.395 294.516 291.414C294.023 291.425 293.496 291.337 293.05 291.487C291.969 291.852 290.869 291.756 289.769 291.783C289.277 291.795 288.75 291.702 288.303 291.849C287.161 292.222 285.999 292.129 284.837 292.152C284.53 292.16 284.195 292.095 283.922 292.199C282.914 292.583 281.864 292.449 280.829 292.537C279.921 292.614 279.017 292.799 278.125 292.987C277.74 293.068 277.506 293.391 277.502 293.803C277.498 294.21 277.725 294.51 278.11 294.626C278.398 294.71 278.714 294.726 279.014 294.73C279.994 294.741 280.979 294.745 281.96 294.73C282.633 294.718 283.322 294.834 283.968 294.584C284.561 294.353 285.172 294.383 285.784 294.364C287.43 294.314 289.077 294.449 290.723 294.053C291.654 293.83 292.681 293.945 293.662 294.01C294.666 294.076 295.566 293.595 296.566 293.614C298.213 293.645 299.878 293.776 301.498 293.279C301.609 293.245 301.744 293.256 301.863 293.268C304.263 293.503 306.61 292.833 309.003 292.849C309.864 292.856 310.864 292.729 311.403 291.791C312.572 291.868 313.734 291.81 314.896 291.652C317.323 291.325 319.754 290.998 322.185 290.687C324.497 290.394 326.813 290.137 329.121 289.844C331.614 289.529 334.095 289.11 336.595 288.89C337.853 288.779 338.988 288.444 340.123 287.959C344.189 286.228 348.178 284.32 352.317 282.759C355.94 281.393 359.641 280.297 363.345 279.189C365.938 278.416 368.619 278.085 371.281 277.635C373.701 277.227 376.047 277.539 378.378 278.123C380.321 278.612 381.983 279.643 383.525 280.901C385.537 282.543 386.972 284.532 387.503 287.121C388.053 289.802 387.926 292.495 387.614 295.184C387.518 296.038 387.337 296.88 387.476 297.746C386.264 299.777 384.668 301.435 382.756 302.827C380.409 304.535 377.878 305.908 375.259 307.116C371.689 308.763 368.046 310.224 364.211 311.136C362.664 311.501 361.095 311.805 359.526 312.044C356.437 312.513 353.371 313.086 350.309 313.706C346.889 314.394 343.462 315.063 340.034 315.717C339.496 315.821 338.934 315.814 338.384 315.856C338.126 314.236 337.511 313.671 336.118 314.044C335.203 314.286 334.303 314.298 333.387 314.302C330.252 314.313 327.117 314.306 323.982 314.313C323.124 314.313 322.278 314.483 321.435 314.552C318.562 314.787 315.661 314.813 312.788 314.54C312.003 314.467 311.218 314.317 310.422 314.313C308.764 314.306 307.102 314.313 305.444 314.306C305.014 314.306 304.552 314.379 304.163 314.244C303.025 313.848 301.855 313.959 300.698 313.948C299.163 313.933 297.624 313.948 296.085 313.933C295.597 313.929 295.081 313.944 294.627 313.802C293.962 313.59 293.3 313.579 292.627 313.579C289 313.579 285.372 313.602 281.749 313.552C280.772 313.54 279.941 313.752 279.206 314.379L279.198 314.352Z" fill="#FEB88B"/>
<path d="M426.262 232.34C426.47 232.221 426.67 232.021 426.893 231.99C435.06 230.848 442.569 232.386 449.046 237.695C453.689 241.503 456.428 246.496 457.59 252.362C458.29 255.894 458.271 259.444 457.729 262.998C457.525 264.333 457.336 265.676 457.602 267.026C457.175 267.207 456.99 267.588 456.763 267.961C455.944 269.326 455.151 270.711 454.236 272.011C453.247 273.408 452.097 274.685 451.077 276.062C449.37 278.37 447.265 280.22 444.742 281.555C440.999 283.536 437.172 285.329 433.032 286.352C432.736 286.425 432.44 286.529 432.167 286.656C431.925 286.767 431.825 286.979 431.928 287.26C432.336 288.391 433.017 289.322 433.967 290.045C434.744 290.633 435.598 290.845 436.56 290.472C438.787 289.61 441.061 288.845 443.165 287.702C444.727 286.856 446.234 285.917 447.789 285.056C451.127 283.205 453.763 280.601 455.89 277.466C457.44 275.185 458.494 272.623 459.875 270.242C460.598 271.865 461.267 273.504 461.629 275.254C462.71 280.474 461.391 285.113 458.171 289.268C456.736 291.122 455.028 292.718 453.236 294.222C449.17 297.63 444.711 300.462 440.08 303.024C431.567 307.732 422.635 311.498 413.51 314.822C413.337 314.883 413.164 314.945 412.987 314.987C412.695 315.056 412.372 314.768 412.391 314.456C412.429 313.837 412.564 313.241 412.883 312.698C413.349 311.906 413.803 311.102 414.291 310.321C417.238 305.639 420.358 301.073 423.5 296.526C425.597 293.495 427.751 290.503 429.859 287.479C430.197 286.99 430.713 286.583 430.74 285.925C430.413 285.54 429.963 285.559 429.547 285.475C426.658 284.906 423.743 284.44 420.9 283.644C418.465 282.959 416.107 282.097 413.987 280.686C414.16 280.055 414.684 279.689 415.103 279.251C416.461 277.831 417.849 276.439 419.192 275.008C420.954 273.127 422.704 271.23 424.281 269.192C424.92 268.368 425.528 267.518 425.881 266.518C426.355 265.18 426.385 263.887 425.601 262.633C425.143 261.906 424.747 261.144 424.316 260.398C423.143 258.382 422.046 256.336 421.215 254.139C420.392 251.962 420.373 249.846 421.204 247.692C422.993 243.053 424.358 238.272 426.012 233.586C426.155 233.179 426.312 232.779 426.262 232.336V232.34Z" fill="#8A4102"/>
<path d="M310.402 290.266C308.91 286.5 307.417 282.738 305.929 278.972C304.713 275.891 303.494 272.806 302.297 269.717C302.055 269.09 301.897 268.429 301.701 267.782C302.117 267.298 302.721 267.101 303.267 266.84C307.375 264.874 311.195 262.405 315.115 260.112C318.938 257.873 322.908 255.927 327.193 254.723C328.482 254.361 329.825 254.138 331.182 254.13C333.025 254.119 334.868 254.103 336.714 254.092C337.13 254.411 337.618 254.457 338.11 254.442C339.649 254.4 341.153 254.727 342.657 254.942C347.066 255.577 351.42 256.523 355.744 257.604C357.929 258.15 360.118 258.723 362.368 258.996C364.353 259.585 366.334 260.181 368.319 260.766C371.912 261.831 375.37 263.185 378.355 265.532C379.028 266.059 379.724 266.551 380.413 267.063C380.655 267.336 380.874 267.64 381.144 267.878C382.682 269.236 383.883 270.852 384.917 272.618C386.283 274.953 387.606 277.299 388.706 279.78C389.783 282.204 390.768 284.639 390.961 287.32C390.745 288.755 390.803 290.216 390.43 291.636C389.995 293.278 389.51 294.894 388.653 296.375C388.349 296.898 388.068 297.441 387.491 297.725C387.352 296.86 387.529 296.017 387.629 295.163C387.937 292.474 388.064 289.786 387.518 287.101C386.987 284.512 385.552 282.523 383.54 280.88C381.998 279.623 380.34 278.592 378.393 278.103C376.062 277.518 373.716 277.207 371.296 277.615C368.638 278.065 365.953 278.395 363.36 279.169C359.66 280.276 355.955 281.373 352.332 282.738C348.189 284.3 344.204 286.208 340.138 287.939C338.999 288.424 337.864 288.758 336.61 288.87C334.11 289.089 331.629 289.509 329.136 289.824C326.824 290.116 324.508 290.374 322.2 290.666C319.769 290.974 317.342 291.305 314.911 291.632C313.749 291.786 312.587 291.844 311.418 291.77C311.395 291.059 310.949 290.632 310.414 290.263L310.402 290.266Z" fill="#8B8ADF"/>
<path d="M390.949 287.317C390.761 284.636 389.776 282.201 388.695 279.777C387.595 277.3 386.271 274.95 384.906 272.615C383.875 270.853 382.671 269.233 381.132 267.875C380.859 267.633 380.644 267.333 380.401 267.06C380.613 266.568 381.032 266.306 381.502 266.144C383.317 265.533 384.944 264.556 386.595 263.609C387.302 263.202 387.887 262.69 388.472 262.144C389.564 261.121 389.872 259.959 389.487 258.478C388.895 256.205 387.81 254.143 386.937 251.992C386.522 250.969 386.01 249.988 385.964 248.857C385.941 248.3 385.587 247.976 385.137 247.726C385.433 247.361 385.852 247.103 385.975 246.595C386.187 245.726 386.864 245.203 387.514 244.68C387.929 244.345 388.383 244.06 388.822 243.753C390.237 243.58 391.545 243.106 392.78 242.399C394.638 241.337 396.523 240.329 398.346 239.21C399.447 238.537 400.085 237.521 400.02 236.144C399.977 235.286 399.97 234.424 400.024 233.57C400.112 232.147 400.939 231.316 402.355 231.232C403.143 231.185 403.916 231.224 404.705 231.485C406.509 232.074 408.267 232.77 410.037 233.447C411.568 234.036 413.068 234.667 414.706 235.017C416.922 235.49 418.915 235.236 420.861 234.182C421.123 234.155 421.361 234.097 421.427 233.79L421.411 233.809C422.242 234.028 422.9 233.567 423.612 233.274C424.481 232.916 425.243 232.255 426.266 232.336C426.316 232.778 426.158 233.178 426.016 233.586C424.366 238.271 422.996 243.053 421.207 247.692C420.377 249.846 420.396 251.965 421.219 254.139C422.05 256.335 423.146 258.378 424.319 260.397C424.75 261.14 425.15 261.902 425.604 262.632C426.389 263.886 426.358 265.179 425.885 266.518C425.531 267.518 424.923 268.364 424.285 269.191C422.704 271.234 420.957 273.13 419.196 275.007C417.853 276.438 416.464 277.831 415.107 279.25C414.687 279.689 414.168 280.054 413.991 280.685C413.302 280.931 412.602 281.158 411.921 281.427C407.879 283.039 403.643 283.989 399.447 285.082C396.611 285.82 393.78 286.571 390.945 287.313L390.949 287.317Z" fill="#FFB88B"/>
<path d="M430.378 179.889C430.37 178.497 429.74 177.289 429.216 176.054C427.601 172.226 425.981 168.399 424.335 164.583C423.389 162.394 422.396 160.225 421.4 158.059C421.173 157.563 420.838 157.116 420.55 156.651C420.696 156.386 420.796 156.074 420.996 155.859C423.439 153.185 425.839 150.469 428.459 147.957C430.467 146.03 432.89 144.934 435.594 145.003C439.706 145.103 443.107 146.699 445.007 150.646C445.7 152.085 446.404 153.512 446.931 155.028C447.354 156.239 447.858 157.44 448.469 158.567C448.973 159.498 449.308 160.471 449.646 161.452C449.727 161.682 449.793 161.921 449.889 162.148C451.054 164.787 452.22 167.422 453.393 170.057C453.493 170.28 453.643 170.488 453.72 170.718C454.932 174.261 456.732 177.558 458.032 181.066C458.286 181.755 458.679 182.389 458.971 183.066C459.502 184.305 460.025 185.528 460.271 186.882C461.033 191.114 458.705 194.814 454.57 195.803C454.093 195.918 453.616 196.03 453.139 196.145C451.339 196.222 449.785 195.572 448.381 194.503C446.534 193.095 444.68 191.698 442.899 190.202C442.368 189.756 441.822 189.167 441.014 189.137C440.98 188.756 440.822 188.452 440.514 188.206C438.106 186.255 435.721 184.278 433.294 182.355C432.294 181.562 431.282 180.789 430.374 179.885L430.378 179.889Z" fill="#FFBA8D"/>
<path d="M441.015 189.141C441.822 189.171 442.369 189.756 442.9 190.206C444.681 191.703 446.531 193.103 448.381 194.507C449.785 195.576 451.339 196.226 453.14 196.149C452.916 197.238 452.439 198.234 451.997 199.246C451.309 200.819 450.608 202.385 449.954 203.97C449.524 205.012 448.87 205.859 448.073 206.651C442.034 212.671 436.002 218.699 429.998 224.754C427.278 227.496 424.608 230.293 421.927 233.074C421.723 233.286 421.585 233.566 421.416 233.816L421.431 233.797C421.242 233.928 421.054 234.059 420.866 234.19C418.919 235.244 416.926 235.498 414.711 235.024C413.072 234.674 411.572 234.043 410.041 233.455C408.271 232.778 406.513 232.082 404.709 231.493C403.921 231.235 403.148 231.193 402.359 231.239C400.943 231.324 400.116 232.155 400.028 233.578C399.974 234.432 399.982 235.294 400.024 236.151C400.093 237.529 399.451 238.544 398.351 239.217C396.527 240.333 394.639 241.345 392.784 242.406C391.55 243.11 390.242 243.587 388.826 243.76C389.33 242.422 390.18 241.283 390.938 240.094C395.446 233.055 400.212 226.185 404.921 219.28C406.098 217.553 407.333 215.868 408.529 214.156C409.033 213.433 409.656 212.863 410.472 212.509C410.81 212.363 411.133 212.183 411.456 212.006C415.176 209.967 418.884 207.909 422.612 205.893C426.397 203.847 430.198 201.831 434.006 199.831C434.695 199.469 435.168 198.984 435.518 198.296C436.129 197.092 436.779 195.903 437.464 194.738C438.587 192.833 439.595 190.856 441.019 189.141H441.015Z" fill="#E7A57C"/>
<path d="M82.2381 289.594C82.2073 290.09 82.0226 290.54 81.8188 290.986C79.8146 295.372 77.8028 299.753 75.8179 304.146C75.0139 305.927 74.2715 307.731 73.506 309.528C73.2867 310.039 73.0867 310.562 73.5252 311.07C73.3252 311.378 73.1136 311.678 72.929 311.993C72.0135 313.574 70.6248 314.49 68.8822 314.955C66.4434 315.609 64.02 315.428 61.5965 314.867C60.1578 314.532 58.7499 314.109 57.3959 313.517C57.2266 313.443 57.0612 313.355 56.8881 313.293C52.5452 311.766 48.2138 310.212 43.8554 308.727C39.8433 307.358 35.9042 305.819 32.0537 304.038C28.7647 302.515 26.5605 299.988 24.7718 296.979C24.0217 295.722 23.9986 294.425 24.6179 293.106C25.3027 291.648 26.3451 290.617 27.9069 290.09C30.765 289.124 33.677 289.021 36.6351 289.359C36.8159 289.378 36.9929 289.463 37.1737 289.475C39.624 289.628 42.0705 289.832 44.5209 289.905C46.7943 289.975 49.0716 289.836 51.345 289.905C53.5646 289.971 55.7495 289.544 57.9652 289.575C59.7463 289.601 61.5311 289.544 63.3122 289.517C68.8399 289.432 74.3638 289.34 79.8915 289.259C80.6878 289.248 81.4956 289.178 82.2304 289.601L82.2381 289.594Z" fill="#FFB88D"/>
<path d="M281.468 326.035C280.467 325.531 280.225 324.592 280.09 323.6C279.975 322.753 279.833 321.903 279.794 321.049C279.706 319.153 279.202 317.299 279.283 315.391C281.094 315.721 282.918 315.833 284.757 315.783C284.88 315.783 285.01 315.783 285.122 315.825C286.184 316.256 287.299 316.121 288.396 316.129C290.053 316.145 291.708 316.133 293.366 316.141C293.796 316.141 294.258 316.068 294.646 316.198C295.847 316.606 297.07 316.487 298.293 316.498C300.136 316.514 301.975 316.498 303.817 316.51C304.306 316.51 304.825 316.483 305.271 316.629C305.994 316.872 306.718 316.864 307.452 316.864C309.049 316.868 310.645 316.864 312.238 316.872C312.665 316.872 313.13 316.802 313.519 316.937C314.657 317.333 315.823 317.233 316.981 317.237C319.743 317.249 322.504 317.237 325.266 317.233C325.755 317.233 326.274 317.31 326.732 317.179C328.548 316.672 330.379 316.875 332.21 316.956C331.69 317.329 331.06 317.395 330.471 317.51C327.044 318.172 323.608 318.78 320.177 319.426C315.184 320.368 310.195 321.338 305.198 322.269C300.805 323.088 296.393 323.811 292.008 324.68C289.542 325.169 287.061 325.527 284.587 325.961C283.549 326.142 282.502 326.008 281.464 326.027L281.468 326.035Z" fill="#FEB88C"/>
<path d="M459.875 270.247C458.498 272.628 457.44 275.19 455.89 277.471C453.763 280.606 451.128 283.207 447.789 285.061C446.235 285.923 444.727 286.861 443.165 287.707C441.057 288.85 438.787 289.615 436.56 290.477C435.595 290.85 434.744 290.639 433.967 290.05C433.017 289.331 432.333 288.396 431.929 287.265C431.829 286.984 431.929 286.777 432.167 286.661C432.444 286.534 432.736 286.43 433.033 286.357C437.172 285.338 440.999 283.541 444.742 281.56C447.262 280.226 449.37 278.375 451.078 276.067C452.097 274.69 453.247 273.413 454.236 272.017C455.155 270.72 455.948 269.332 456.763 267.966C456.986 267.589 457.175 267.212 457.602 267.031C458.575 267.951 459.621 268.824 459.879 270.251L459.875 270.247Z" fill="#633407"/>
<path d="M332.206 316.961C330.375 316.88 328.544 316.676 326.728 317.184C326.271 317.311 325.751 317.238 325.263 317.238C322.501 317.242 319.739 317.253 316.977 317.242C315.819 317.238 314.653 317.338 313.515 316.942C313.126 316.807 312.665 316.88 312.234 316.876C310.637 316.869 309.041 316.876 307.449 316.869C306.714 316.869 305.991 316.873 305.267 316.634C304.817 316.484 304.298 316.519 303.813 316.515C301.971 316.503 300.132 316.515 298.289 316.503C297.07 316.492 295.843 316.611 294.643 316.203C294.254 316.072 293.793 316.146 293.362 316.146C291.704 316.138 290.046 316.149 288.392 316.134C287.296 316.122 286.18 316.257 285.118 315.83C285.011 315.788 284.876 315.784 284.753 315.788C282.914 315.842 281.091 315.726 279.279 315.395C279.252 315.049 279.221 314.703 279.194 314.357C279.925 313.73 280.756 313.518 281.737 313.53C285.364 313.58 288.992 313.553 292.616 313.557C293.289 313.557 293.954 313.568 294.616 313.78C295.07 313.926 295.585 313.907 296.074 313.911C297.609 313.926 299.147 313.911 300.686 313.926C301.848 313.938 303.013 313.826 304.152 314.222C304.54 314.357 305.006 314.284 305.433 314.284C307.091 314.291 308.753 314.284 310.411 314.291C311.207 314.291 311.992 314.445 312.776 314.518C315.65 314.791 318.546 314.765 321.424 314.53C322.266 314.461 323.112 314.295 323.97 314.291C327.105 314.284 330.24 314.291 333.375 314.28C334.291 314.28 335.191 314.264 336.107 314.022C337.503 313.653 338.118 314.214 338.372 315.834C337.715 316.296 337.011 316.549 336.18 316.588C334.853 316.646 333.525 316.83 332.202 316.961H332.206Z" fill="#E8A57C"/>
<path d="M244.458 273.961C247.093 274.034 249.663 274.584 252.244 275.053C254.044 275.38 255.856 275.634 257.668 275.888C258.576 276.015 259.457 276.254 260.376 276.338C261.645 276.454 262.895 276.777 264.157 276.977C265.18 277.138 266.211 277.25 267.238 277.396C267.796 277.477 268.292 277.704 268.7 278.108C269.031 278.435 268.939 279.004 268.523 279.173C267.715 279.504 266.873 279.581 266.004 279.577C259.803 279.569 253.606 279.577 247.405 279.596C245.878 279.6 244.358 279.519 242.831 279.881C241.962 280.089 241 279.927 240.081 279.916C239.754 279.916 239.511 279.723 239.323 279.466C240.123 278.173 241.362 277.261 242.254 276.054C242.866 275.223 243.593 274.519 244.462 273.961H244.458Z" fill="#4A4B46"/>
<path d="M420.4 156.686C420.269 156.763 420.135 156.844 420.004 156.921C420.065 156.721 420.212 156.671 420.4 156.686Z" fill="#FFBA8D"/>
<path d="M441.014 189.142C439.591 190.854 438.583 192.835 437.46 194.739C436.771 195.905 436.125 197.093 435.514 198.297C435.164 198.986 434.69 199.471 434.002 199.832C430.194 201.832 426.393 203.852 422.608 205.895C418.877 207.91 415.168 209.968 411.452 212.007C411.129 212.184 410.806 212.365 410.468 212.511C409.652 212.865 409.029 213.434 408.525 214.157C407.329 215.869 406.094 217.558 404.917 219.281C400.208 226.186 395.442 233.056 390.934 240.096C390.172 241.281 389.326 242.423 388.822 243.762C388.384 244.07 387.93 244.354 387.514 244.689C386.864 245.212 386.187 245.735 385.975 246.605C385.852 247.112 385.433 247.374 385.137 247.739C384.964 247.801 384.779 247.839 384.618 247.92C377.724 251.301 370.835 254.683 363.949 258.075C363.403 258.345 362.891 258.691 362.364 259.002C360.118 258.733 357.929 258.156 355.74 257.61C351.416 256.529 347.066 255.583 342.654 254.948C341.15 254.733 339.646 254.406 338.107 254.448C337.618 254.463 337.126 254.417 336.71 254.098C338.322 252.409 339.919 250.705 341.553 249.039C343.661 246.885 345.823 244.789 347.916 242.619C349.632 240.842 351.532 239.292 353.517 237.83C356.783 235.422 360.056 233.026 363.326 230.625C364.915 229.46 366.392 228.163 367.765 226.748C370.119 224.32 372.512 221.932 374.87 219.504C376.205 218.131 377.62 216.854 379.224 215.819C386.976 210.811 394.338 205.26 401.889 199.971C410.298 194.081 418.692 188.169 427.07 182.241C428.174 181.46 429.278 180.679 430.382 179.898C431.286 180.802 432.298 181.576 433.302 182.368C435.733 184.291 438.114 186.269 440.522 188.219C440.83 188.465 440.987 188.769 441.022 189.15L441.014 189.142Z" fill="#FEFEFE"/>
<path d="M310.403 290.267C310.937 290.637 311.387 291.064 311.407 291.775C310.868 292.714 309.868 292.841 309.006 292.833C306.614 292.818 304.267 293.487 301.867 293.253C301.744 293.241 301.613 293.229 301.501 293.264C299.886 293.764 298.22 293.63 296.57 293.599C295.57 293.58 294.67 294.064 293.666 293.995C292.688 293.93 291.658 293.814 290.727 294.037C289.08 294.433 287.434 294.299 285.787 294.349C285.176 294.368 284.564 294.337 283.972 294.568C283.326 294.818 282.637 294.703 281.964 294.714C280.983 294.73 279.998 294.726 279.017 294.714C278.713 294.714 278.398 294.695 278.113 294.61C277.729 294.499 277.502 294.195 277.505 293.787C277.509 293.379 277.744 293.053 278.129 292.972C279.021 292.783 279.925 292.599 280.833 292.522C281.868 292.437 282.914 292.568 283.926 292.183C284.199 292.079 284.533 292.141 284.841 292.137C286.003 292.114 287.165 292.206 288.307 291.833C288.753 291.687 289.28 291.779 289.773 291.768C290.873 291.741 291.973 291.837 293.054 291.472C293.5 291.321 294.027 291.41 294.52 291.398C295.497 291.379 296.474 291.456 297.431 291.11C297.816 290.971 298.282 291.045 298.712 291.033C299.932 291.002 301.155 291.106 302.363 290.725C302.871 290.568 303.459 290.675 304.013 290.66C305.171 290.629 306.317 290.664 307.479 290.379C308.41 290.152 309.433 290.291 310.414 290.264L310.403 290.267Z" fill="#E8A57C"/>
<path d="M362.36 258.994C362.887 258.682 363.399 258.336 363.945 258.067C370.831 254.674 377.724 251.293 384.614 247.911C384.779 247.83 384.96 247.792 385.133 247.73C385.583 247.981 385.937 248.304 385.96 248.861C386.006 249.996 386.518 250.973 386.933 251.996C387.806 254.147 388.895 256.209 389.484 258.482C389.868 259.963 389.56 261.125 388.468 262.148C387.883 262.694 387.302 263.206 386.591 263.614C384.941 264.56 383.313 265.537 381.498 266.149C381.025 266.306 380.605 266.568 380.398 267.064C379.713 266.556 379.013 266.064 378.34 265.533C375.354 263.187 371.9 261.829 368.303 260.767C366.319 260.178 364.337 259.586 362.353 258.998L362.36 258.994Z" fill="#E7A47C"/>
<path d="M420.861 234.191C421.05 234.06 421.238 233.93 421.427 233.799C421.361 234.107 421.123 234.164 420.861 234.191Z" fill="white"/>
</svg>
