<svg width="500" height="500" viewBox="0 0 500 500" fill="none" xmlns="http://www.w3.org/2000/svg">
<path d="M244.458 273.964C245.332 272.691 246.49 271.668 247.544 270.556C251.825 266.048 256.429 261.885 261.176 257.873C270.408 250.072 280.318 243.252 290.758 237.174C302.709 230.215 314.619 223.18 326.582 216.244C330.464 213.994 334.476 211.974 338.415 209.828C340.411 208.739 342.392 207.62 344.358 206.481C345.316 205.927 346.097 205.165 346.866 204.346C349.886 201.107 352.644 197.634 355.81 194.533C359.953 190.475 364.492 186.905 369.304 183.685C376.636 178.785 384.448 174.772 392.5 171.214C398.231 168.683 404.028 166.283 409.71 163.644C413.441 161.909 417.076 159.939 419.996 156.924C420.127 156.847 420.261 156.77 420.392 156.689L420.542 156.658C420.831 157.128 421.165 157.574 421.392 158.066C422.389 160.232 423.381 162.401 424.327 164.59C425.974 168.406 427.593 172.234 429.209 176.061C429.732 177.296 430.359 178.504 430.371 179.896C429.267 180.677 428.163 181.458 427.059 182.239C418.68 188.167 410.287 194.079 401.878 199.968C394.327 205.258 386.964 210.812 379.213 215.817C377.609 216.852 376.19 218.133 374.859 219.502C372.501 221.926 370.108 224.314 367.754 226.746C366.38 228.165 364.903 229.457 363.315 230.623C360.045 233.023 356.771 235.424 353.505 237.828C351.524 239.29 349.624 240.836 347.905 242.617C345.812 244.787 343.65 246.883 341.542 249.037C339.907 250.707 338.311 252.411 336.699 254.096C334.856 254.107 333.014 254.123 331.171 254.134C329.813 254.142 328.475 254.365 327.182 254.727C322.897 255.931 318.927 257.877 315.104 260.116C311.184 262.412 307.364 264.878 303.256 266.844C302.709 267.105 302.105 267.298 301.69 267.786C301.455 267.855 301.209 267.902 300.994 268.002C298.493 269.183 295.993 270.367 293.5 271.564C292.723 271.937 291.954 272.322 291.212 272.752C287.326 275.01 283.314 277.003 279.114 278.611C278.367 278.896 277.625 279.192 276.886 279.492C275.986 279.853 275.513 280.484 275.613 281.492C275.732 282.712 275.821 283.939 275.94 285.158C276.148 287.235 276.379 289.309 276.582 291.382C276.644 291.994 276.675 292.609 276.69 293.221C276.698 293.659 276.44 293.89 276.005 293.906C275.698 293.917 275.39 293.925 275.082 293.906C273.67 293.832 272.263 293.725 270.851 293.679C266.119 293.529 261.388 293.502 256.656 293.367C250.39 293.186 244.124 292.959 237.854 292.863C236.315 292.84 234.769 292.89 233.245 292.725C231.83 292.571 230.418 292.475 229.014 292.586C226.998 292.748 224.967 292.398 222.963 292.775C217.858 292.728 212.765 292.998 207.672 293.259C206.93 293.298 206.21 293.405 205.483 293.544C204.795 293.675 204.387 294.059 204.245 294.733C204.168 295.09 204.079 295.452 204.052 295.817C203.937 297.298 204.137 298.76 204.318 300.226C204.383 300.741 204.645 301.149 205.103 301.407C205.691 301.737 206.276 302.084 206.876 302.391C210.815 304.411 214.823 306.296 218.662 308.5C219.486 308.973 220.37 309.204 221.27 309.366C222.478 309.581 223.702 309.692 224.921 309.843C227.356 310.143 229.795 310.431 232.23 310.731C234.788 311.043 237.338 311.435 239.904 311.65C242.412 311.862 244.932 311.904 247.451 312.008C250.521 312.135 253.591 312.124 256.664 312.324C261.138 312.616 265.631 312.654 270.112 312.82C272.751 312.916 275.39 313.055 278.029 313.174C278.152 313.178 278.275 313.185 278.394 313.205C278.656 313.251 278.817 313.408 278.906 313.666C278.983 313.897 279.087 314.12 279.183 314.343C279.21 314.689 279.241 315.036 279.267 315.382C279.187 317.29 279.691 319.148 279.779 321.04C279.818 321.894 279.96 322.741 280.075 323.591C280.21 324.583 280.452 325.522 281.452 326.026C278.46 327.887 275.151 328.838 271.678 329.015C266.762 329.268 261.838 329.145 256.922 328.845C254.652 328.707 252.387 328.499 250.117 328.326C245.639 327.988 241.193 327.384 236.761 326.683C232.087 325.941 227.444 325.022 222.821 324.022C220.786 323.579 218.685 323.421 216.612 323.152C212.284 322.591 207.953 322.056 203.622 321.487C199.475 320.944 195.336 320.371 191.193 319.813C185.954 319.105 180.714 318.401 175.475 317.698C173.282 317.401 171.086 317.132 168.893 316.809C167.862 316.659 166.82 316.497 165.824 316.201C164.708 315.874 163.646 315.901 162.566 316.255C158.996 317.428 155.349 318.29 151.633 318.859C148.775 319.294 145.905 319.609 143.02 319.829C137.862 320.225 132.696 320.259 127.53 320.129C121.686 319.979 115.87 319.463 110.065 318.763C103.157 317.928 96.3288 316.69 89.5931 314.962C86.6773 314.216 83.7884 313.351 80.8726 312.597C78.6723 312.027 76.4527 311.539 74.237 311.035C74.0101 310.981 73.7523 311.047 73.5138 311.054C73.0715 310.546 73.2753 310.023 73.4946 309.512C74.2601 307.715 75.0025 305.911 75.8065 304.13C77.7914 299.737 79.7994 295.356 81.8074 290.97C82.0112 290.524 82.1959 290.074 82.2267 289.578C82.696 289.216 83.2499 289.224 83.8038 289.182C89.8086 288.732 95.8133 288.278 101.818 287.808C105.311 287.535 108.8 287.243 112.289 286.924C116.878 286.508 121.463 286.051 126.052 285.624C129.357 285.32 132.665 285.043 135.969 284.746C139.52 284.431 143.066 284.104 146.617 283.785C149.921 283.489 153.23 283.208 156.534 282.9C159.838 282.596 163.139 282.269 166.443 281.954C167.178 281.885 167.912 281.804 168.647 281.781C171.471 281.692 174.298 281.627 177.125 281.554C185.854 281.327 194.578 281.084 203.306 280.877C207.607 280.773 211.911 280.769 216.216 280.65C219.593 280.557 222.971 280.388 226.348 280.203C229.972 280.003 233.599 279.953 237.227 279.934C237.954 279.934 238.715 280.05 239.308 279.446C239.496 279.707 239.739 279.892 240.066 279.896C240.985 279.907 241.947 280.069 242.816 279.861C244.339 279.5 245.863 279.584 247.39 279.576C253.591 279.553 259.788 279.546 265.989 279.557C266.858 279.557 267.7 279.484 268.508 279.153C268.924 278.984 269.016 278.415 268.685 278.088C268.277 277.684 267.781 277.457 267.223 277.376C266.196 277.23 265.165 277.118 264.142 276.957C262.88 276.757 261.63 276.434 260.361 276.318C259.441 276.234 258.557 275.999 257.653 275.868C255.841 275.61 254.029 275.36 252.229 275.033C249.648 274.564 247.082 274.014 244.443 273.941L244.458 273.964Z" fill="#696E66"/>
<path d="M279.198 314.354C279.106 314.127 279.002 313.908 278.921 313.677C278.833 313.423 278.671 313.265 278.41 313.215C278.29 313.192 278.163 313.188 278.044 313.184C275.405 313.065 272.766 312.931 270.128 312.83C265.646 312.665 261.153 312.63 256.679 312.334C253.606 312.134 250.536 312.142 247.467 312.019C244.951 311.915 242.427 311.873 239.919 311.661C237.354 311.446 234.803 311.053 232.245 310.742C229.81 310.446 227.371 310.153 224.936 309.853C223.717 309.703 222.494 309.592 221.286 309.376C220.386 309.215 219.501 308.984 218.678 308.511C214.835 306.306 210.826 304.422 206.891 302.402C206.291 302.094 205.707 301.748 205.118 301.417C204.656 301.156 204.395 300.748 204.333 300.236C204.152 298.775 203.949 297.309 204.068 295.828C204.099 295.463 204.183 295.101 204.26 294.743C204.406 294.074 204.814 293.685 205.499 293.555C206.226 293.416 206.945 293.308 207.688 293.27C212.781 293.008 217.874 292.739 222.978 292.785C224.982 292.408 227.01 292.758 229.029 292.597C230.429 292.485 231.845 292.577 233.261 292.735C234.784 292.901 236.33 292.851 237.869 292.874C244.139 292.966 250.405 293.197 256.672 293.378C261.403 293.512 266.135 293.539 270.866 293.689C272.278 293.735 273.686 293.843 275.098 293.916C275.405 293.932 275.713 293.924 276.021 293.916C276.455 293.901 276.717 293.67 276.706 293.231C276.694 292.616 276.659 292.004 276.598 291.393C276.39 289.315 276.163 287.242 275.955 285.169C275.832 283.949 275.748 282.722 275.628 281.503C275.532 280.495 276.002 279.864 276.902 279.502C277.644 279.206 278.383 278.91 279.129 278.622C283.33 277.014 287.342 275.021 291.227 272.763C291.969 272.332 292.743 271.944 293.516 271.574C296.008 270.378 298.509 269.193 301.009 268.012C301.228 267.908 301.475 267.866 301.709 267.797C301.905 268.443 302.063 269.105 302.305 269.732C303.502 272.821 304.717 275.906 305.937 278.987C307.425 282.753 308.918 286.519 310.411 290.281C309.43 290.304 308.406 290.166 307.475 290.396C306.314 290.681 305.167 290.646 304.01 290.677C303.456 290.693 302.867 290.585 302.359 290.743C301.151 291.123 299.932 291.016 298.709 291.05C298.278 291.062 297.816 290.989 297.428 291.127C296.47 291.477 295.493 291.397 294.516 291.416C294.023 291.427 293.496 291.339 293.05 291.489C291.969 291.854 290.869 291.758 289.769 291.785C289.277 291.797 288.75 291.704 288.303 291.85C287.161 292.224 285.999 292.131 284.837 292.154C284.53 292.162 284.195 292.097 283.922 292.201C282.914 292.585 281.864 292.451 280.829 292.539C279.921 292.616 279.017 292.801 278.125 292.989C277.74 293.07 277.506 293.393 277.502 293.805C277.498 294.212 277.725 294.512 278.11 294.628C278.398 294.712 278.714 294.728 279.014 294.732C279.994 294.743 280.979 294.747 281.96 294.732C282.633 294.72 283.322 294.836 283.968 294.585C284.561 294.355 285.172 294.385 285.784 294.366C287.43 294.316 289.077 294.451 290.723 294.055C291.654 293.832 292.681 293.947 293.662 294.012C294.666 294.078 295.566 293.597 296.566 293.616C298.213 293.647 299.878 293.778 301.498 293.281C301.609 293.247 301.744 293.258 301.863 293.27C304.263 293.505 306.61 292.835 309.003 292.851C309.864 292.858 310.864 292.731 311.403 291.793C312.572 291.87 313.734 291.812 314.896 291.654C317.323 291.327 319.754 291 322.185 290.689C324.497 290.396 326.813 290.139 329.121 289.846C331.614 289.531 334.095 289.112 336.595 288.892C337.853 288.781 338.988 288.446 340.123 287.961C344.189 286.23 348.178 284.322 352.317 282.761C355.94 281.395 359.641 280.299 363.345 279.191C365.938 278.418 368.619 278.087 371.281 277.637C373.701 277.229 376.047 277.541 378.378 278.125C380.321 278.614 381.983 279.645 383.525 280.903C385.537 282.545 386.972 284.534 387.503 287.123C388.053 289.804 387.926 292.497 387.614 295.186C387.518 296.04 387.337 296.882 387.476 297.747C386.264 299.779 384.668 301.436 382.756 302.829C380.409 304.537 377.878 305.91 375.259 307.118C371.689 308.765 368.046 310.226 364.211 311.138C362.664 311.503 361.095 311.807 359.526 312.046C356.437 312.515 353.371 313.088 350.309 313.708C346.889 314.396 343.462 315.065 340.034 315.719C339.496 315.823 338.934 315.816 338.384 315.858C338.126 314.238 337.511 313.673 336.118 314.046C335.203 314.288 334.303 314.3 333.387 314.304C330.252 314.315 327.117 314.308 323.982 314.315C323.124 314.315 322.278 314.485 321.435 314.554C318.562 314.788 315.661 314.815 312.788 314.542C312.003 314.469 311.218 314.319 310.422 314.315C308.764 314.308 307.102 314.315 305.444 314.308C305.014 314.308 304.552 314.381 304.163 314.246C303.025 313.85 301.855 313.961 300.698 313.95C299.163 313.935 297.624 313.95 296.085 313.934C295.597 313.931 295.081 313.946 294.627 313.804C293.962 313.592 293.3 313.581 292.627 313.581C289 313.581 285.372 313.604 281.749 313.554C280.772 313.542 279.941 313.754 279.206 314.381L279.198 314.354Z" fill="#FEB88B"/>
<path d="M426.262 232.342C426.47 232.223 426.67 232.023 426.893 231.992C435.06 230.849 442.569 232.388 449.046 237.697C453.689 241.505 456.428 246.498 457.59 252.364C458.29 255.895 458.271 259.446 457.729 263C457.525 264.335 457.336 265.678 457.602 267.028C457.175 267.209 456.99 267.59 456.763 267.963C455.944 269.328 455.151 270.713 454.236 272.013C453.247 273.41 452.097 274.687 451.077 276.064C449.37 278.372 447.265 280.222 444.742 281.557C440.999 283.538 437.172 285.331 433.032 286.354C432.736 286.427 432.44 286.531 432.167 286.658C431.925 286.769 431.825 286.981 431.928 287.262C432.336 288.393 433.017 289.324 433.967 290.047C434.744 290.635 435.598 290.847 436.56 290.474C438.787 289.612 441.061 288.847 443.165 287.704C444.727 286.858 446.234 285.919 447.789 285.058C451.127 283.207 453.763 280.603 455.89 277.468C457.44 275.187 458.494 272.625 459.875 270.244C460.598 271.867 461.267 273.506 461.629 275.256C462.71 280.476 461.391 285.115 458.171 289.27C456.736 291.124 455.028 292.72 453.236 294.224C449.17 297.632 444.711 300.464 440.08 303.026C431.567 307.734 422.635 311.5 413.51 314.823C413.337 314.885 413.164 314.947 412.987 314.989C412.695 315.058 412.372 314.77 412.391 314.458C412.429 313.839 412.564 313.242 412.883 312.7C413.349 311.908 413.803 311.104 414.291 310.323C417.238 305.641 420.358 301.075 423.5 296.528C425.597 293.497 427.751 290.504 429.859 287.481C430.197 286.992 430.713 286.585 430.74 285.927C430.413 285.542 429.963 285.561 429.547 285.477C426.658 284.907 423.743 284.442 420.9 283.646C418.465 282.961 416.107 282.099 413.987 280.688C414.16 280.057 414.684 279.691 415.103 279.253C416.461 277.833 417.849 276.441 419.192 275.01C420.954 273.129 422.704 271.232 424.281 269.194C424.92 268.37 425.528 267.52 425.881 266.52C426.355 265.181 426.385 263.889 425.601 262.635C425.143 261.908 424.747 261.146 424.316 260.4C423.143 258.384 422.046 256.338 421.215 254.141C420.392 251.964 420.373 249.848 421.204 247.694C422.993 243.055 424.358 238.274 426.012 233.588C426.155 233.181 426.312 232.781 426.262 232.338V232.342Z" fill="#8A4102"/>
<path d="M310.402 290.268C308.91 286.502 307.417 282.74 305.929 278.974C304.713 275.893 303.494 272.808 302.297 269.719C302.055 269.092 301.897 268.431 301.701 267.784C302.117 267.3 302.721 267.103 303.267 266.842C307.375 264.876 311.195 262.407 315.115 260.114C318.938 257.875 322.908 255.929 327.193 254.725C328.482 254.363 329.825 254.14 331.182 254.132C333.025 254.121 334.868 254.105 336.714 254.094C337.13 254.413 337.618 254.459 338.11 254.444C339.649 254.402 341.153 254.728 342.657 254.944C347.066 255.579 351.42 256.525 355.744 257.606C357.929 258.152 360.118 258.725 362.368 258.998C364.353 259.587 366.334 260.183 368.319 260.768C371.912 261.833 375.37 263.187 378.355 265.534C379.028 266.061 379.724 266.553 380.413 267.065C380.655 267.338 380.874 267.642 381.144 267.88C382.682 269.238 383.883 270.854 384.917 272.62C386.283 274.955 387.606 277.301 388.706 279.782C389.783 282.206 390.768 284.641 390.961 287.322C390.745 288.757 390.803 290.218 390.43 291.638C389.995 293.28 389.51 294.896 388.653 296.377C388.349 296.9 388.068 297.443 387.491 297.727C387.352 296.862 387.529 296.019 387.629 295.165C387.937 292.476 388.064 289.788 387.518 287.102C386.987 284.514 385.552 282.525 383.54 280.882C381.998 279.624 380.34 278.594 378.393 278.105C376.062 277.52 373.716 277.209 371.296 277.616C368.638 278.067 365.953 278.397 363.36 279.171C359.66 280.278 355.955 281.375 352.332 282.74C348.189 284.302 344.204 286.21 340.138 287.941C338.999 288.426 337.864 288.76 336.61 288.872C334.11 289.091 331.629 289.511 329.136 289.826C326.824 290.118 324.508 290.376 322.2 290.668C319.769 290.976 317.342 291.307 314.911 291.634C313.749 291.788 312.587 291.846 311.418 291.772C311.395 291.061 310.949 290.634 310.414 290.265L310.402 290.268Z" fill="#8B8ADF"/>
<path d="M390.949 287.319C390.761 284.638 389.776 282.203 388.695 279.779C387.595 277.302 386.271 274.952 384.906 272.617C383.875 270.855 382.671 269.235 381.132 267.877C380.859 267.635 380.644 267.335 380.401 267.062C380.613 266.57 381.032 266.308 381.502 266.146C383.317 265.535 384.944 264.558 386.595 263.611C387.302 263.204 387.887 262.692 388.472 262.146C389.564 261.123 389.872 259.961 389.487 258.48C388.895 256.206 387.81 254.145 386.937 251.994C386.522 250.971 386.01 249.99 385.964 248.859C385.941 248.301 385.587 247.978 385.137 247.728C385.433 247.363 385.852 247.105 385.975 246.597C386.187 245.728 386.864 245.205 387.514 244.682C387.929 244.347 388.383 244.062 388.822 243.755C390.237 243.582 391.545 243.108 392.78 242.401C394.638 241.339 396.523 240.331 398.346 239.212C399.447 238.538 400.085 237.523 400.02 236.146C399.977 235.288 399.97 234.426 400.024 233.572C400.112 232.149 400.939 231.318 402.355 231.234C403.143 231.187 403.916 231.226 404.705 231.487C406.509 232.076 408.267 232.772 410.037 233.449C411.568 234.038 413.068 234.669 414.706 235.019C416.922 235.492 418.915 235.238 420.861 234.184C421.123 234.157 421.361 234.099 421.427 233.792L421.411 233.811C422.242 234.03 422.9 233.568 423.612 233.276C424.481 232.918 425.243 232.257 426.266 232.338C426.316 232.78 426.158 233.18 426.016 233.588C424.366 238.273 422.996 243.055 421.207 247.694C420.377 249.848 420.396 251.967 421.219 254.141C422.05 256.337 423.146 258.38 424.319 260.399C424.75 261.142 425.15 261.903 425.604 262.634C426.389 263.888 426.358 265.181 425.885 266.52C425.531 267.52 424.923 268.366 424.285 269.193C422.704 271.236 420.957 273.132 419.196 275.009C417.853 276.44 416.464 277.833 415.107 279.252C414.687 279.691 414.168 280.056 413.991 280.687C413.302 280.933 412.602 281.16 411.921 281.429C407.879 283.041 403.643 283.991 399.447 285.084C396.611 285.822 393.78 286.573 390.945 287.315L390.949 287.319Z" fill="#FFB88B"/>
<path d="M430.378 179.891C430.37 178.498 429.74 177.291 429.216 176.056C427.601 172.228 425.981 168.401 424.335 164.585C423.389 162.396 422.396 160.227 421.4 158.061C421.173 157.565 420.838 157.118 420.55 156.653C420.696 156.388 420.796 156.076 420.996 155.861C423.439 153.187 425.839 150.471 428.459 147.959C430.467 146.032 432.89 144.936 435.594 145.005C439.706 145.105 443.107 146.701 445.007 150.648C445.7 152.087 446.404 153.514 446.931 155.03C447.354 156.241 447.858 157.442 448.469 158.569C448.973 159.5 449.308 160.473 449.646 161.454C449.727 161.684 449.793 161.923 449.889 162.15C451.054 164.789 452.22 167.424 453.393 170.059C453.493 170.282 453.643 170.49 453.72 170.72C454.932 174.263 456.732 177.56 458.032 181.068C458.286 181.757 458.679 182.391 458.971 183.068C459.502 184.307 460.025 185.53 460.271 186.884C461.033 191.116 458.705 194.816 454.57 195.805C454.093 195.92 453.616 196.032 453.139 196.147C451.339 196.224 449.785 195.574 448.381 194.505C446.534 193.097 444.68 191.7 442.899 190.204C442.368 189.758 441.822 189.169 441.014 189.139C440.98 188.758 440.822 188.454 440.514 188.208C438.106 186.257 435.721 184.28 433.294 182.357C432.294 181.564 431.282 180.791 430.374 179.887L430.378 179.891Z" fill="#FFBA8D"/>
<path d="M441.015 189.143C441.822 189.173 442.369 189.758 442.9 190.208C444.681 191.705 446.531 193.105 448.381 194.509C449.785 195.578 451.339 196.228 453.14 196.151C452.916 197.24 452.439 198.236 451.997 199.248C451.309 200.821 450.608 202.387 449.954 203.972C449.524 205.014 448.87 205.86 448.073 206.653C442.034 212.673 436.002 218.701 429.998 224.756C427.278 227.498 424.608 230.295 421.927 233.076C421.723 233.288 421.585 233.568 421.416 233.818L421.431 233.799C421.242 233.93 421.054 234.061 420.866 234.192C418.919 235.246 416.926 235.499 414.711 235.026C413.072 234.676 411.572 234.045 410.041 233.457C408.271 232.78 406.513 232.084 404.709 231.495C403.921 231.237 403.148 231.195 402.359 231.241C400.943 231.326 400.116 232.157 400.028 233.58C399.974 234.434 399.982 235.296 400.024 236.153C400.093 237.531 399.451 238.546 398.351 239.219C396.527 240.335 394.639 241.346 392.784 242.408C391.55 243.112 390.242 243.589 388.826 243.762C389.33 242.424 390.18 241.285 390.938 240.096C395.446 233.057 400.212 226.187 404.921 219.282C406.098 217.554 407.333 215.87 408.529 214.158C409.033 213.435 409.656 212.865 410.472 212.511C410.81 212.365 411.133 212.184 411.456 212.008C415.176 209.969 418.884 207.911 422.612 205.895C426.397 203.849 430.198 201.833 434.006 199.833C434.695 199.471 435.168 198.986 435.518 198.298C436.129 197.094 436.779 195.905 437.464 194.74C438.587 192.835 439.595 190.858 441.019 189.143H441.015Z" fill="#E7A57C"/>
<path d="M82.2381 289.596C82.2073 290.092 82.0226 290.542 81.8187 290.988C79.8146 295.374 77.8028 299.755 75.8179 304.148C75.0139 305.929 74.2715 307.733 73.506 309.529C73.2867 310.041 73.0867 310.564 73.5252 311.072C73.3252 311.38 73.1136 311.68 72.929 311.995C72.0135 313.576 70.6248 314.492 68.8822 314.957C66.4434 315.611 64.02 315.43 61.5965 314.869C60.1578 314.534 58.7499 314.111 57.3959 313.519C57.2266 313.445 57.0612 313.357 56.8881 313.295C52.5452 311.768 48.2138 310.214 43.8554 308.729C39.8433 307.36 35.9042 305.821 32.0537 304.04C28.7647 302.517 26.5605 299.99 24.7718 296.981C24.0217 295.724 23.9986 294.427 24.6179 293.108C25.3027 291.65 26.3451 290.619 27.9069 290.092C30.765 289.126 33.677 289.023 36.6351 289.361C36.8159 289.38 36.9929 289.465 37.1737 289.476C39.624 289.63 42.0705 289.834 44.5209 289.907C46.7943 289.977 49.0716 289.838 51.345 289.907C53.5646 289.973 55.7495 289.546 57.9652 289.577C59.7463 289.603 61.5311 289.546 63.3122 289.519C68.8399 289.434 74.3638 289.342 79.8915 289.261C80.6878 289.25 81.4956 289.18 82.2304 289.603L82.2381 289.596Z" fill="#FFB88D"/>
<path d="M281.468 326.035C280.467 325.531 280.225 324.592 280.09 323.6C279.975 322.753 279.833 321.903 279.794 321.049C279.706 319.153 279.202 317.299 279.283 315.391C281.094 315.721 282.918 315.833 284.757 315.783C284.88 315.783 285.01 315.783 285.122 315.825C286.184 316.256 287.299 316.121 288.396 316.129C290.053 316.145 291.708 316.133 293.366 316.141C293.796 316.141 294.258 316.068 294.646 316.198C295.847 316.606 297.07 316.487 298.293 316.498C300.136 316.514 301.975 316.498 303.817 316.51C304.306 316.51 304.825 316.483 305.271 316.629C305.994 316.872 306.718 316.864 307.452 316.864C309.049 316.868 310.645 316.864 312.238 316.872C312.665 316.872 313.13 316.802 313.519 316.937C314.657 317.333 315.823 317.233 316.981 317.237C319.743 317.249 322.504 317.237 325.266 317.233C325.755 317.233 326.274 317.31 326.732 317.179C328.548 316.672 330.379 316.875 332.21 316.956C331.69 317.329 331.06 317.395 330.471 317.51C327.044 318.172 323.608 318.78 320.177 319.426C315.184 320.368 310.195 321.338 305.198 322.269C300.805 323.088 296.393 323.811 292.008 324.68C289.542 325.169 287.061 325.527 284.587 325.961C283.549 326.142 282.502 326.008 281.464 326.027L281.468 326.035Z" fill="#FEB88C"/>
<path d="M459.875 270.247C458.498 272.628 457.44 275.19 455.89 277.471C453.763 280.606 451.128 283.207 447.789 285.061C446.235 285.923 444.727 286.861 443.165 287.707C441.057 288.85 438.787 289.615 436.56 290.477C435.595 290.85 434.744 290.639 433.967 290.05C433.017 289.331 432.333 288.396 431.929 287.265C431.829 286.984 431.929 286.777 432.167 286.661C432.444 286.534 432.736 286.43 433.033 286.357C437.172 285.338 440.999 283.541 444.742 281.56C447.262 280.226 449.37 278.375 451.078 276.067C452.097 274.69 453.247 273.413 454.236 272.017C455.155 270.72 455.948 269.332 456.763 267.966C456.986 267.589 457.175 267.212 457.602 267.031C458.575 267.951 459.621 268.824 459.879 270.251L459.875 270.247Z" fill="#633407"/>
<path d="M332.206 316.961C330.375 316.88 328.544 316.676 326.728 317.184C326.271 317.311 325.751 317.238 325.263 317.238C322.501 317.242 319.739 317.253 316.977 317.242C315.819 317.238 314.653 317.338 313.515 316.942C313.126 316.807 312.665 316.88 312.234 316.876C310.637 316.869 309.041 316.876 307.449 316.869C306.714 316.869 305.991 316.873 305.267 316.634C304.817 316.484 304.298 316.519 303.813 316.515C301.971 316.503 300.132 316.515 298.289 316.503C297.07 316.492 295.843 316.611 294.643 316.203C294.254 316.072 293.793 316.146 293.362 316.146C291.704 316.138 290.046 316.149 288.392 316.134C287.296 316.122 286.18 316.257 285.118 315.83C285.011 315.788 284.876 315.784 284.753 315.788C282.914 315.842 281.091 315.726 279.279 315.395C279.252 315.049 279.221 314.703 279.194 314.357C279.925 313.73 280.756 313.518 281.737 313.53C285.364 313.58 288.992 313.553 292.616 313.557C293.289 313.557 293.954 313.568 294.616 313.78C295.07 313.926 295.585 313.907 296.074 313.911C297.609 313.926 299.147 313.911 300.686 313.926C301.848 313.938 303.013 313.826 304.152 314.222C304.54 314.357 305.006 314.284 305.433 314.284C307.091 314.291 308.753 314.284 310.411 314.291C311.207 314.291 311.992 314.445 312.776 314.518C315.65 314.791 318.546 314.765 321.424 314.53C322.266 314.461 323.112 314.295 323.97 314.291C327.105 314.284 330.24 314.291 333.375 314.28C334.291 314.28 335.191 314.264 336.107 314.022C337.503 313.653 338.118 314.214 338.372 315.834C337.715 316.296 337.011 316.549 336.18 316.588C334.853 316.646 333.525 316.83 332.202 316.961H332.206Z" fill="#E8A57C"/>
<path d="M244.458 273.961C247.093 274.034 249.663 274.584 252.244 275.053C254.044 275.38 255.856 275.634 257.668 275.888C258.576 276.015 259.457 276.254 260.376 276.338C261.645 276.454 262.895 276.777 264.157 276.977C265.18 277.138 266.211 277.25 267.238 277.396C267.796 277.477 268.292 277.704 268.7 278.108C269.031 278.435 268.939 279.004 268.523 279.173C267.715 279.504 266.873 279.581 266.004 279.577C259.803 279.569 253.606 279.577 247.405 279.596C245.878 279.6 244.358 279.519 242.831 279.881C241.962 280.089 241 279.927 240.081 279.916C239.754 279.916 239.511 279.723 239.323 279.466C240.123 278.173 241.362 277.261 242.254 276.054C242.866 275.223 243.593 274.519 244.462 273.961H244.458Z" fill="#4A4B46"/>
<path d="M420.4 156.688C420.269 156.765 420.135 156.846 420.004 156.923C420.065 156.723 420.212 156.673 420.4 156.688Z" fill="#FFBA8D"/>
<path d="M310.403 290.269C310.937 290.639 311.387 291.066 311.407 291.777C310.868 292.716 309.868 292.843 309.006 292.835C306.614 292.82 304.267 293.489 301.867 293.255C301.744 293.243 301.613 293.231 301.501 293.266C299.886 293.766 298.22 293.631 296.57 293.601C295.57 293.581 294.67 294.066 293.666 293.997C292.688 293.932 291.658 293.816 290.727 294.039C289.08 294.435 287.434 294.301 285.787 294.351C285.176 294.37 284.564 294.339 283.972 294.57C283.326 294.82 282.637 294.705 281.964 294.716C280.983 294.732 279.998 294.728 279.017 294.716C278.713 294.716 278.398 294.697 278.113 294.612C277.729 294.501 277.502 294.197 277.505 293.789C277.509 293.381 277.744 293.054 278.129 292.974C279.021 292.785 279.925 292.601 280.833 292.524C281.868 292.439 282.914 292.57 283.926 292.185C284.199 292.081 284.533 292.143 284.841 292.139C286.003 292.116 287.165 292.208 288.307 291.835C288.753 291.689 289.28 291.781 289.773 291.77C290.873 291.743 291.973 291.839 293.054 291.473C293.5 291.323 294.027 291.412 294.52 291.4C295.497 291.381 296.474 291.458 297.431 291.112C297.816 290.973 298.282 291.046 298.712 291.035C299.932 291.004 301.155 291.108 302.363 290.727C302.871 290.569 303.459 290.677 304.013 290.662C305.171 290.631 306.317 290.666 307.479 290.381C308.41 290.154 309.433 290.293 310.414 290.266L310.403 290.269Z" fill="#E8A57C"/>
<path d="M362.36 258.996C362.887 258.684 363.399 258.338 363.945 258.069C370.831 254.676 377.724 251.295 384.614 247.913C384.779 247.832 384.96 247.794 385.133 247.732C385.583 247.982 385.937 248.306 385.96 248.863C386.006 249.998 386.518 250.975 386.933 251.998C387.806 254.149 388.895 256.211 389.484 258.484C389.868 259.965 389.56 261.127 388.468 262.15C387.883 262.696 387.302 263.208 386.591 263.616C384.941 264.562 383.313 265.539 381.498 266.151C381.025 266.308 380.605 266.57 380.398 267.066C379.713 266.558 379.013 266.066 378.34 265.535C375.354 263.189 371.9 261.831 368.303 260.769C366.319 260.18 364.337 259.588 362.353 258.999L362.36 258.996Z" fill="#E7A47C"/>
<path d="M420.861 234.191C421.05 234.06 421.238 233.93 421.427 233.799C421.361 234.107 421.123 234.164 420.861 234.191Z" fill="white"/>
</svg>
