<svg width="500" height="500" viewBox="0 0 500 500" fill="none" xmlns="http://www.w3.org/2000/svg">
<path d="M122.885 271.617C123.133 271.493 123.423 271.327 123.671 271.286C125.493 271.079 127.315 270.83 129.136 270.789C134.394 270.582 139.693 270.458 144.951 270.251C154.473 269.961 163.995 269.671 173.518 269.34C185.482 268.926 197.406 268.595 209.37 268.429C212.144 268.429 214.918 268.222 217.733 268.056C218.313 268.056 218.893 267.891 219.472 267.767C220.549 267.56 220.673 267.435 220.549 266.276C220.383 264.62 220.135 262.923 219.928 261.267C219.845 260.604 219.762 259.942 219.762 259.279C219.721 256.878 219.555 254.436 219.431 252.034C219.058 244.624 218.768 237.254 218.727 229.844C218.727 226.614 218.644 223.385 218.603 220.156C218.603 213.118 218.768 206.08 219.596 199.083C219.845 196.847 220.01 194.57 220.135 192.293C220.342 187.615 220.921 182.937 221.708 178.3C222.246 175.029 222.701 171.759 223.24 168.529C223.529 166.791 223.943 165.093 224.275 163.354C224.482 162.361 224.606 161.326 224.772 160.332C227.173 160.58 229.533 161.036 231.934 161.077C235.494 161.077 239.055 161.491 242.615 161.615C242.408 162.485 242.036 163.313 242.243 164.224C242.118 164.472 241.953 164.72 241.87 165.01C240.669 168.281 240.048 171.634 239.634 175.071C239.427 176.561 239.179 178.134 240.048 179.583C238.641 179.376 237.854 180.039 237.399 181.322C236.86 182.813 236.157 184.303 235.66 185.835C234.501 189.312 233.424 192.79 232.348 196.268C231.975 197.51 231.603 198.793 231.23 200.035C229.533 206.287 228.415 212.704 227.297 219.079C226.759 222.143 226.386 225.29 225.848 228.353C225.186 232.079 224.606 235.805 224.068 239.573C223.902 240.856 223.902 242.222 223.612 243.464C223.115 245.534 223.157 247.687 222.95 249.757C222.743 251.786 222.246 253.773 222.37 255.843C221.584 257.996 222.37 260.397 221.542 262.55C221.542 266.069 221.542 269.588 221.542 273.107C221.542 273.48 221.584 273.811 221.791 274.142C222.039 274.515 222.619 274.598 222.908 274.266C223.322 273.811 223.612 273.314 223.654 272.735C223.861 271.203 224.316 269.754 224.151 268.181C224.109 267.767 224.068 267.27 224.233 266.856C224.73 265.407 224.523 263.958 224.606 262.509C224.606 261.639 224.606 260.77 224.73 259.9C225.02 258.037 225.393 256.133 225.434 254.27C225.434 252.2 226.138 250.213 225.972 248.184C225.972 248.06 225.972 247.894 226.055 247.77C226.593 245.866 226.428 243.878 226.8 241.933C227.131 240.359 227.131 238.745 227.421 237.172C227.752 235.019 228.208 232.866 228.58 230.713C229.077 227.608 229.491 224.503 230.029 221.439C230.526 218.583 231.189 215.726 231.644 212.869C232.306 208.398 233.383 204.01 234.542 199.621C236.032 194.115 237.771 188.691 239.345 183.227C239.676 182.026 240.048 180.867 240.09 179.583C240.669 179.666 241.249 179.749 241.787 179.873C243.278 180.204 244.768 180.66 246.258 180.95C249.984 181.653 253.711 182.357 257.437 183.02C260.459 183.558 263.44 184.096 266.545 184.096C266.586 185.793 266.503 187.449 266.296 189.147C266.172 190.182 266.131 191.175 266.089 192.21C266.007 197.054 265.882 201.898 265.882 206.742C265.758 224.048 265.675 241.353 265.592 258.658C265.592 260.646 265.717 262.633 265.882 264.579C266.131 267.642 266.255 270.706 266.421 273.811C266.006 273.852 265.675 274.018 265.634 274.432C265.593 274.846 265.551 275.301 265.592 275.757C265.758 280.394 265.137 284.989 265.178 289.585C265.178 290.164 265.137 290.744 264.971 291.324C264.806 292.069 264.764 292.773 264.764 293.518C264.806 296.085 264.433 298.569 263.44 301.011C262.322 303.744 261.287 306.435 259.755 308.96C257.188 313.1 254 316.702 250.15 319.724C247.252 322.001 244.064 323.782 240.711 325.272C237.067 326.887 233.217 327.839 229.326 328.377C226.593 328.75 223.819 328.998 221.087 329.495C217.816 329.95 214.546 330.364 211.316 330.82C208.625 331.192 205.976 331.606 203.285 331.979C200.759 332.31 198.192 332.559 195.667 333.014C190.823 333.842 185.979 334.422 181.094 335.084C179.189 335.332 177.326 335.622 175.463 335.953C174.76 336.078 174.594 336.243 174.553 336.988C174.553 337.485 174.553 338.023 174.553 338.52C174.47 341.874 174.677 345.268 174.925 348.622C174.387 349.036 173.766 349.16 173.062 349.202C169.585 349.533 166.107 350.112 162.546 350.03C160.725 350.03 158.903 350.402 157.082 350.402C151.575 350.485 146.069 350.692 140.604 350.402C133.856 350.03 127.149 349.533 120.525 348.332C117.461 347.794 114.563 346.925 111.706 345.724C105.538 343.157 99.9487 339.762 95.0221 335.25C89.9712 330.613 86.4107 325.106 85.3757 318.193C84.9203 315.212 84.8789 312.189 85.2515 309.209C85.6241 306.145 86.0795 303.123 86.9489 300.142C89.2674 292.317 93.6144 285.859 100.321 281.056C102.226 279.69 104.379 278.696 106.449 277.62C109.761 275.881 113.197 274.391 116.716 273.19C117.585 272.9 118.455 272.445 119.448 272.528C119.448 272.983 119.448 273.397 119.573 273.852C119.738 274.556 120.235 275.094 120.897 275.136C122.139 275.26 123.299 275.757 124.582 275.674C125.244 275.633 125.948 275.591 126.569 275.757C128.639 276.295 130.792 276.212 132.862 276.419C135.015 276.668 137.209 277.165 139.403 276.999C139.528 276.999 139.693 276.999 139.817 277.082C140.728 277.496 141.681 277.413 142.633 277.413C143.13 277.413 143.668 277.413 144.165 277.496C146.235 278.075 148.346 277.951 150.457 278.2C152.61 278.448 154.804 278.986 156.999 278.779C157.123 278.779 157.289 278.779 157.413 278.862C158.324 279.276 159.276 279.193 160.228 279.193C160.89 279.193 161.553 279.193 162.174 279.4C162.712 279.566 163.333 279.607 163.913 279.607C166.19 279.607 168.384 280.27 170.661 280.104C170.785 280.104 170.951 280.104 171.075 280.187C171.986 280.601 172.938 280.477 173.89 280.518C174.47 280.518 175.091 280.435 175.629 280.601C176.83 280.973 178.072 280.932 179.314 280.973C179.81 280.973 180.349 280.973 180.845 281.139C182.791 281.636 184.779 281.346 186.766 281.429C187.221 281.429 187.594 281.222 187.925 280.932C188.463 280.477 188.505 279.98 188.132 279.359C187.677 278.696 187.014 278.448 186.269 278.365C184.116 278.075 181.963 277.703 179.769 277.537C176.954 277.289 174.097 276.916 171.282 276.709C169.253 276.543 167.225 276.005 165.196 276.171C164.906 276.171 164.616 276.171 164.327 276.088C162.132 275.467 159.855 275.633 157.578 275.384C155.426 275.136 153.231 274.598 151.037 274.805C150.913 274.805 150.747 274.805 150.623 274.763C148.346 274.142 145.986 274.308 143.668 274.059C141.598 273.811 139.486 273.314 137.333 273.521C137.209 273.521 137.044 273.521 136.919 273.438C135.926 273.024 134.891 273.149 133.897 273.107C133.4 273.107 132.862 273.107 132.365 273.024C129.716 272.61 127.025 272.279 124.334 272.196C123.837 272.196 123.299 272.196 122.926 271.741L122.885 271.617ZM216.077 280.145C214.628 280.27 213.179 280.477 211.689 280.477C205.893 280.477 200.138 280.601 194.342 280.973C192.562 281.098 190.782 281.222 188.587 281.636C192.81 282.133 196.578 282.588 200.345 283.043C203.616 283.457 206.845 283.954 210.157 284.244C212.186 284.41 214.214 284.906 216.284 284.782C217.692 284.782 219.058 284.865 220.466 284.865C221.128 284.865 221.418 284.575 221.459 283.954C221.501 281.387 221.501 278.821 221.542 276.254C221.542 275.84 221.128 275.674 220.756 275.923C219.182 276.875 217.94 278.241 216.491 279.4C216.284 279.566 216.243 279.897 216.119 280.187L216.077 280.145Z" fill="#696D65"/>
<path d="M293.207 177.887C293.496 179.378 293.828 180.868 294.117 182.4C294.697 185.546 295.235 188.734 295.773 191.881C296.27 194.696 296.684 197.511 297.222 200.285C297.926 204.094 298.713 207.903 299.499 211.67C300.948 218.377 302.356 225.125 303.888 231.791C304.923 236.138 305.875 240.485 307.2 244.749C308.732 249.841 309.932 255.058 311.299 260.233C312.872 266.112 314.072 272.032 315.356 277.952C316.267 282.299 317.26 286.646 318.502 290.952C318.999 292.567 319.289 294.223 319.662 295.837C319.662 296.293 319.537 296.831 320.034 297.121C320.324 299.522 321.069 301.84 321.649 304.159C322.642 308.092 323.263 312.066 322.27 316.082C320.655 322.541 317.219 327.55 311.092 330.49C308.028 331.98 304.757 332.767 301.528 333.678C298.63 334.506 295.691 335.168 292.71 335.375C288.528 335.623 284.347 335.582 280.29 334.506C276.688 333.553 273.334 332.27 270.892 329.248C269.732 327.84 268.987 326.35 268.573 324.611C267.952 322.085 268.325 319.684 268.863 317.242C269.236 315.42 270.105 313.805 271.181 312.315C273.127 309.665 275.28 307.181 277.93 305.153C280 303.621 282.153 302.213 284.347 300.93C285.092 300.474 285.423 299.977 285.258 299.149C284.885 297.411 284.926 295.672 284.719 293.933C284.471 291.697 284.223 289.42 284.016 287.185C283.809 285.28 283.684 283.417 283.477 281.513C283.477 281.182 283.229 280.85 283.063 280.519C283.063 280.147 283.063 279.774 283.063 279.401C283.146 277.621 282.774 275.924 282.649 274.185C282.484 271.991 281.904 269.838 282.111 267.644C282.111 267.437 282.111 267.188 281.987 266.981C281.614 266.153 281.697 265.242 281.697 264.373C281.697 263.628 281.821 262.883 281.614 262.179C281.2 260.73 281.283 259.281 281.242 257.832C281.242 257.376 281.242 256.921 281.118 256.548C280.745 255.555 280.828 254.52 280.786 253.526C280.786 252.864 280.911 252.16 280.704 251.539C280.207 250.007 280.331 248.475 280.372 246.985C280.372 244.418 279.669 241.934 279.876 239.326C279.876 239.201 279.834 239.036 279.793 238.912C279.544 237.049 279.13 235.186 279.048 233.281C278.965 231.252 278.302 229.265 278.551 227.195C278.551 226.988 278.468 226.781 278.468 226.533C278.22 224.67 277.806 222.807 277.764 220.902C277.681 218.874 277.019 216.886 277.267 214.816C277.267 214.609 277.267 214.361 277.143 214.154C276.812 213.367 276.853 212.581 276.853 211.794C276.853 209.766 276.232 207.737 276.356 205.708C276.356 205.501 276.232 205.294 276.191 205.087C276.108 204.508 275.984 203.928 275.984 203.348C276.025 201.237 275.321 199.167 275.487 197.014C275.487 196.807 275.404 196.6 275.321 196.393C275.073 195.772 275.114 195.11 275.073 194.447C275.073 193.288 274.99 192.129 274.742 190.97C274.493 189.686 274.659 188.361 274.659 187.037C274.659 186.623 274.907 186.374 275.321 186.25C275.528 186.209 275.777 186.25 275.984 186.167C277.35 185.629 278.841 185.795 280.248 185.215C283.229 183.973 286.044 182.441 288.942 181.034C290.06 180.495 291.054 179.75 291.923 178.839C292.254 178.467 292.668 178.177 293.082 177.846L293.207 177.887Z" fill="#FFB78A"/>
<path d="M357.791 343.406C354.437 340.177 351.125 336.907 348.145 333.305C348.6 332.477 349.055 331.649 349.469 330.779C353.32 323.286 357.17 315.792 361.02 308.299C361.476 307.471 361.931 306.643 362.469 305.815C363.173 304.738 364.167 303.993 365.409 303.579C365.905 303.413 366.402 303.289 366.899 303.165C374.848 300.681 380.561 295.754 383.666 287.93C384.494 285.86 385.074 283.748 385.488 281.595C385.86 279.567 386.564 277.662 387.309 275.716C387.848 274.35 388.552 273.067 388.841 271.618C389.587 271.411 390.29 271.742 390.953 271.99C396.004 273.688 400.226 276.669 403.704 280.643C408.01 285.57 410.701 291.283 412.067 297.617C414.013 306.767 413.143 315.668 409.583 324.362C409.169 325.356 408.589 326.349 408.879 327.509C408.3 327.509 407.968 327.881 407.679 328.337C406.354 330.448 404.491 332.145 403 334.091C402.131 335.251 400.847 336.037 399.73 336.989C396.707 339.598 393.52 341.833 389.794 343.241C388.759 343.613 387.723 343.986 386.688 344.359C383.749 345.435 380.768 346.387 377.58 346.429C377.208 346.429 376.835 346.511 376.504 346.594C375.138 346.967 373.771 346.967 372.405 346.594C372.033 346.511 371.701 346.387 371.329 346.387C369.466 346.47 367.727 345.89 365.988 345.311C364.208 344.69 362.428 343.986 360.689 343.241C359.654 342.827 358.743 342.785 357.749 343.282L357.791 343.406Z" fill="#824414"/>
<path d="M388.841 271.701C388.551 273.15 387.847 274.433 387.309 275.799C386.564 277.704 385.902 279.65 385.488 281.678C385.074 283.831 384.494 285.943 383.666 288.013C380.561 295.837 374.848 300.805 366.899 303.248C366.402 303.414 365.905 303.496 365.408 303.662C364.208 304.076 363.173 304.821 362.469 305.898C361.931 306.684 361.475 307.512 361.02 308.382C357.17 315.875 353.319 323.369 349.469 330.862C349.014 331.69 348.558 332.56 348.144 333.388C345.081 333.181 342.017 333.843 338.953 333.76C337.049 333.76 335.103 333.636 333.24 333.884C331.046 334.174 328.852 334.091 326.657 334.174C326.202 334.174 325.788 334.133 325.333 334.091C325.333 333.967 325.333 333.802 325.457 333.677C327.113 331.235 328.189 328.544 328.976 325.687C329.68 323.162 330.218 320.595 330.218 317.945C330.218 316.827 330.176 315.751 330.218 314.633C330.342 312.066 329.928 309.541 329.266 307.057C328.396 303.91 327.278 300.805 325.291 298.114C324.712 297.328 323.842 296.665 323.594 295.589C326.202 295.216 328.81 294.885 331.418 294.512C331.501 294.512 331.584 294.512 331.625 294.512C333.53 294.14 334.813 293.353 334.482 290.704C334.068 287.516 334.027 284.245 334.316 281.057C334.565 278.366 335.931 276.048 338.125 274.392C340.071 272.901 342.265 271.949 344.625 271.287C348.517 270.169 351.788 267.975 354.354 264.828C355.638 263.255 356.797 261.558 357.998 259.86C358.453 259.198 358.991 258.577 359.571 258.039C361.02 256.714 362.635 256.714 364.042 258.039C364.994 258.949 365.905 259.943 366.733 260.937C369.341 264.042 372.322 266.733 375.634 269.01C378.201 270.79 381.058 271.452 384.121 271.577C385.736 271.659 387.351 271.618 388.965 271.659L388.841 271.701Z" fill="#FFB78A"/>
<path d="M283.105 280.561C283.229 280.892 283.478 281.223 283.519 281.554C283.726 283.459 283.85 285.322 284.057 287.226C284.264 289.462 284.554 291.739 284.761 293.975C284.927 295.713 284.927 297.494 285.299 299.191C285.465 299.978 285.134 300.516 284.388 300.971C282.194 302.255 280.041 303.662 277.971 305.194C275.322 307.181 273.169 309.665 271.223 312.356C270.105 313.847 269.277 315.461 268.905 317.283C268.408 319.726 267.994 322.168 268.615 324.652C269.07 326.391 269.815 327.923 270.933 329.289C273.376 332.312 276.771 333.595 280.331 334.547C284.43 335.624 288.611 335.706 292.751 335.417C295.732 335.21 298.672 334.547 301.57 333.719C304.799 332.808 308.07 331.98 311.133 330.531C317.26 327.592 320.697 322.541 322.311 316.124C323.305 312.108 322.684 308.134 321.69 304.201C321.111 301.882 320.366 299.564 320.076 297.162C320.366 297.369 320.697 297.535 320.945 297.825C324.092 301.799 326.12 306.353 326.658 311.363C327.072 315.047 327.114 318.815 326.286 322.458C325.458 326.184 324.174 329.745 321.815 332.808C321.525 333.222 321.318 333.678 321.069 334.133C318.709 336.079 316.101 337.445 313.12 338.19C311.299 338.687 309.56 339.474 307.738 340.095C305.213 340.923 302.646 341.42 299.996 341.627C299.5 341.627 299.003 341.751 298.465 341.834C295.36 342.413 292.255 342.827 289.108 342.993C286.997 343.117 284.885 343.407 282.774 343.655C281.242 343.821 279.71 343.904 278.178 344.152C276.15 344.483 274.121 344.525 272.051 344.732C269.94 344.939 267.828 345.187 265.717 345.436C263.812 345.643 261.908 345.684 260.045 345.891C256.981 346.222 253.918 346.222 250.854 346.512C246.672 346.926 242.532 346.76 238.351 347.05C233.3 347.381 228.249 347.299 223.198 347.257C223.033 345.725 222.867 344.235 222.66 342.703C222.081 338.315 221.501 333.926 220.88 329.496C223.612 328.999 226.386 328.751 229.119 328.378C233.052 327.84 236.902 326.888 240.504 325.273C243.857 323.783 247.045 322.003 249.943 319.726C253.793 316.704 256.981 313.143 259.548 308.962C261.121 306.436 262.156 303.745 263.233 301.013C264.226 298.57 264.599 296.086 264.558 293.519C264.558 292.774 264.558 292.07 264.765 291.325C264.889 290.745 264.972 290.166 264.972 289.586C264.93 284.949 265.51 280.354 265.386 275.758C265.386 275.303 265.386 274.889 265.427 274.434C265.468 274.02 265.8 273.854 266.214 273.812C268.987 274.889 271.761 275.965 274.535 277.042C275.156 277.29 275.777 277.414 276.398 277.58C278.51 278.739 280.704 279.816 282.981 280.561H283.105Z" fill="#8A8ADD"/>
<path d="M412.605 335.334C415.835 341.668 415.628 347.961 412.067 353.964C408.258 360.381 402.835 364.894 395.383 366.591C392.526 367.254 389.628 367.668 386.73 367.999C380.479 368.703 374.31 367.833 368.141 366.881C359.944 365.598 351.995 363.238 344.253 360.34C340.693 359.015 337.091 357.814 333.655 356.076C332.33 355.413 331.129 354.544 330.136 353.467C328.769 351.977 328.894 350.404 330.55 349.162C331.419 348.499 332.413 348.003 333.53 347.796C334.607 347.589 335.683 347.382 336.801 347.299C340.651 346.968 344.543 346.719 348.393 346.388C350.712 346.181 353.03 345.933 355.39 345.684C356.756 348.127 358.785 349.824 361.103 351.315C361.724 351.687 362.345 352.101 362.966 352.432C366.858 354.544 370.915 356.034 375.428 356.158C375.925 356.158 376.463 356.241 376.918 356.365C377.953 356.655 378.947 356.655 379.94 356.365C380.437 356.241 380.934 356.117 381.431 356.158C383.045 356.241 384.619 355.827 386.151 355.455C389.877 354.502 393.52 353.219 396.915 351.273C399.647 349.7 402.09 347.796 404.532 345.85C405.029 345.436 405.443 344.898 405.857 344.401C406.188 344.028 406.437 343.573 406.809 343.2C408.59 341.461 409.997 339.391 411.488 337.445C411.943 336.824 412.564 336.203 412.605 335.334Z" fill="#824515"/>
<path d="M220.963 329.496C221.543 333.885 222.164 338.273 222.743 342.703C222.95 344.235 223.116 345.725 223.281 347.257C223.157 347.257 222.992 347.34 222.867 347.34C217.817 347.505 212.766 347.754 207.715 347.795C204.858 347.795 202.043 348.251 199.186 348.251C196.412 348.251 193.597 348.126 190.823 348.375C185.772 348.872 180.722 348.623 175.671 348.706C175.381 348.706 175.091 348.665 174.801 348.623C174.553 345.27 174.346 341.916 174.429 338.521C174.429 338.025 174.429 337.486 174.429 336.99C174.47 336.286 174.594 336.079 175.339 335.955C177.203 335.665 179.107 335.334 180.97 335.085C185.814 334.423 190.699 333.843 195.543 333.015C198.068 332.601 200.635 332.353 203.161 331.98C205.852 331.608 208.501 331.194 211.192 330.821C214.463 330.366 217.734 329.952 220.963 329.496Z" fill="#FFB78A"/>
<path d="M283.105 280.561C280.786 279.816 278.633 278.74 276.522 277.581C276.232 275.097 275.942 272.654 275.735 270.17C275.363 266.113 275.073 262.014 274.742 257.915C274.742 257.625 274.7 257.336 274.659 257.046C274.411 254.727 274.162 252.409 273.955 250.049C273.748 247.565 273.624 245.081 273.417 242.597C273.044 238.54 272.589 234.441 272.258 230.384C271.885 225.954 271.595 221.483 271.264 217.053C271.264 216.763 271.223 216.473 271.181 216.183C270.933 213.699 270.684 211.257 270.477 208.773C270.27 206.206 270.229 203.639 269.898 201.114C269.649 199.292 269.649 197.47 269.484 195.649C269.194 192.502 268.946 189.397 268.656 186.251C268.614 185.506 268.532 184.802 268.49 184.057C269.608 184.057 270.684 183.974 271.802 184.015C272.796 184.015 273.707 183.85 274.493 183.27C274.99 182.897 275.487 182.732 276.108 182.649C278.592 182.318 280.91 181.448 283.187 180.496C283.85 180.206 284.554 179.958 285.216 179.668C287.742 178.633 290.184 177.515 292.089 175.487C292.585 174.948 293.165 174.741 293.869 174.824C293.993 175.901 293.496 176.853 293.372 177.888C292.999 178.219 292.585 178.509 292.213 178.882C291.343 179.792 290.308 180.496 289.232 181.076C286.334 182.483 283.519 184.015 280.538 185.257C279.13 185.837 277.64 185.671 276.274 186.209C276.067 186.292 275.818 186.209 275.611 186.292C275.197 186.375 274.949 186.665 274.949 187.079C274.949 188.404 274.783 189.728 275.032 191.012C275.28 192.171 275.321 193.33 275.363 194.49C275.363 195.152 275.363 195.814 275.611 196.435C275.694 196.642 275.777 196.849 275.777 197.056C275.611 199.209 276.315 201.238 276.274 203.391C276.274 203.97 276.398 204.55 276.481 205.13C276.481 205.337 276.646 205.544 276.646 205.751C276.522 207.821 277.143 209.808 277.143 211.836C277.143 212.623 277.143 213.451 277.433 214.196C277.516 214.403 277.557 214.61 277.557 214.859C277.35 216.929 278.012 218.916 278.054 220.945C278.137 222.808 278.509 224.671 278.758 226.575C278.758 226.782 278.882 227.03 278.84 227.237C278.633 229.307 279.296 231.295 279.337 233.323C279.42 235.186 279.793 237.049 280.082 238.954C280.082 239.078 280.165 239.244 280.165 239.368C279.958 241.935 280.703 244.46 280.662 247.027C280.662 248.559 280.538 250.091 280.993 251.581C281.2 252.202 281.076 252.906 281.076 253.568C281.076 254.603 280.993 255.597 281.407 256.59C281.573 256.963 281.531 257.46 281.531 257.874C281.531 259.323 281.49 260.772 281.904 262.221C282.111 262.883 281.945 263.67 281.987 264.415C281.987 265.285 281.904 266.195 282.277 267.023C282.359 267.23 282.401 267.437 282.401 267.686C282.194 269.88 282.773 272.033 282.939 274.227C283.063 275.966 283.436 277.705 283.353 279.444C283.353 279.816 283.353 280.189 283.353 280.561H283.105Z" fill="#E7A47D"/>
<path d="M293.703 174.823C292.999 174.74 292.419 174.947 291.922 175.486C290.018 177.514 287.575 178.632 285.05 179.667C284.388 179.957 283.684 180.205 283.021 180.495C280.744 181.447 278.426 182.317 275.942 182.648C275.362 182.731 274.824 182.896 274.327 183.269C273.541 183.89 272.63 184.056 271.636 184.014C270.56 184.014 269.442 184.014 268.366 184.056C267.703 184.056 267.082 184.056 266.42 184.056C263.356 184.056 260.334 183.559 257.312 182.979C253.586 182.317 249.859 181.654 246.133 180.909C244.643 180.619 243.153 180.164 241.662 179.833C241.083 179.709 240.503 179.667 239.965 179.543C239.095 178.094 239.385 176.521 239.551 175.03C239.965 171.635 240.586 168.241 241.786 164.97C241.869 164.68 242.035 164.432 242.159 164.183C242.366 164.183 242.614 164.183 242.78 164.308C243.318 164.597 243.732 164.473 244.146 164.059C244.56 163.645 245.016 163.273 245.388 162.817C246.713 161.244 248.452 160.333 250.356 159.753C251.474 159.422 252.592 159.05 253.751 158.925C254.455 158.843 255.076 158.222 255.904 158.677C255.159 160.085 254.124 161.244 253.254 162.444C252.095 164.059 250.936 165.632 249.818 167.247C248.079 169.772 248.286 173.002 250.232 175.154C250.48 175.444 250.687 175.734 250.894 176.024C251.929 177.639 253.586 178.301 255.324 178.591C257.56 178.963 259.796 179.17 262.073 179.129C267.206 178.963 270.974 176.562 273.623 172.339C275.486 169.358 277.556 166.543 279.958 163.976C280.869 162.983 281.614 161.906 282.069 160.664C282.193 160.333 282.235 159.96 282.566 159.753C285.05 160.333 287.037 161.823 289.024 163.314C290.929 164.68 292.212 166.502 293.123 168.613C293.868 170.393 294.158 172.256 293.91 174.161C293.91 174.368 293.703 174.533 293.579 174.699L293.703 174.823Z" fill="#FFB78A"/>
<path d="M242.615 161.658C239.055 161.534 235.495 161.161 231.934 161.12C229.533 161.12 227.173 160.664 224.772 160.374C223.861 157.808 224.068 155.158 224.234 152.55C224.441 149.817 224.689 147.043 225.434 144.352C226.925 139.136 230.071 135.7 235.577 134.665C237.813 134.251 240.049 134.002 242.284 133.837C242.74 133.837 243.195 133.837 243.568 133.712C244.892 133.298 246.176 133.464 247.418 133.878C247.087 134.292 246.714 134.623 246.466 135.079C246.176 135.576 245.762 136.114 245.72 136.652C245.596 138.101 245.431 139.591 245.803 141.04C246.259 142.903 246.88 144.725 247.956 146.298C249.985 149.196 251.517 152.343 253.255 155.406C253.545 155.903 253.421 156.234 252.8 156.317C250.896 156.524 249.157 157.352 247.376 157.973C246.466 158.263 245.638 158.76 244.975 159.464C244.23 160.25 243.361 160.954 242.574 161.699L242.615 161.658Z" fill="#FFB78A"/>
<path d="M242.615 161.657C243.401 160.912 244.271 160.208 245.016 159.422C245.72 158.718 246.548 158.221 247.417 157.931C249.198 157.31 250.936 156.524 252.841 156.275C253.42 156.193 253.586 155.903 253.296 155.365C251.557 152.342 249.984 149.154 247.997 146.256C246.921 144.683 246.3 142.862 245.844 140.999C245.513 139.591 245.637 138.059 245.761 136.61C245.803 136.072 246.217 135.534 246.507 135.037C246.755 134.623 247.128 134.25 247.459 133.836C247.997 133.671 248.577 133.546 249.115 133.339C250.854 132.76 252.634 132.511 254.455 132.387C256.567 132.222 258.637 131.932 260.748 132.015C261.494 132.015 262.197 132.015 262.901 132.18C264.806 132.553 266.503 133.257 267.745 134.871C267.952 135.161 268.283 135.368 268.532 135.616C268.78 136.155 268.946 136.693 269.235 137.19C270.063 138.639 270.974 140.046 271.761 141.495C273.748 145.304 275.28 149.279 276.067 153.501C276.191 154.122 276.481 154.371 277.06 154.412C277.267 154.412 277.516 154.412 277.723 154.454C277.93 154.454 278.137 154.495 278.344 154.578C281.366 155.365 282.566 156.689 282.649 159.712C282.318 159.919 282.277 160.291 282.152 160.622C281.697 161.864 280.952 162.941 280.041 163.934C277.681 166.501 275.611 169.358 273.707 172.297C271.016 176.52 267.248 178.921 262.156 179.087C259.879 179.17 257.602 178.921 255.408 178.549C253.71 178.259 252.013 177.555 250.978 175.982C250.771 175.692 250.564 175.361 250.315 175.113C248.37 172.96 248.163 169.689 249.901 167.205C251.019 165.59 252.178 163.976 253.338 162.403C254.207 161.161 255.283 160.043 255.987 158.635C255.159 158.221 254.538 158.842 253.834 158.884C252.675 159.008 251.557 159.339 250.44 159.712C248.535 160.333 246.796 161.243 245.472 162.775C245.099 163.231 244.644 163.603 244.23 164.017C243.816 164.431 243.402 164.555 242.863 164.266C242.698 164.183 242.449 164.183 242.242 164.141C242.035 163.231 242.408 162.403 242.615 161.533V161.657ZM260.21 136.072C259.838 136.072 259.631 136.072 259.424 136.072C257.395 136.527 255.366 136.486 253.338 136.569C252.344 136.569 251.35 137.024 250.398 137.314C249.612 137.562 249.239 138.183 249.28 139.011C249.28 139.384 249.28 139.756 249.363 140.088C249.901 141.62 250.233 143.234 251.102 144.559C252.965 147.374 254.455 150.396 255.946 153.419C256.236 153.998 256.525 154.619 256.857 155.158C257.147 155.654 257.56 155.861 258.14 155.861C258.678 155.861 259.092 155.737 259.589 155.489C261.204 154.661 262.943 153.998 264.806 154.122C265.22 154.122 265.716 154.122 266.089 153.998C267 153.626 267.952 153.708 268.904 153.708C269.649 153.708 270.353 153.708 271.099 153.708C271.927 153.708 272.299 153.17 272.009 152.384C271.43 150.81 271.057 149.196 270.436 147.623C269.649 145.718 268.573 143.979 267.662 142.158C266.917 140.709 266.048 139.384 265.178 138.018C264.764 137.355 264.226 136.858 263.481 136.693C262.363 136.444 261.245 135.948 260.21 136.113V136.072ZM268.283 158.056C266.958 158.056 265.634 158.056 264.309 158.056C263.191 158.056 262.115 158.304 261.245 159.049C260.21 159.96 259.175 160.912 258.306 162.03C256.691 164.1 255.242 166.294 253.71 168.447C253.42 168.861 253.255 169.358 253.006 169.813C252.551 170.766 252.634 171.635 253.131 172.546C253.71 173.622 254.58 174.409 255.78 174.699C256.981 174.988 258.182 175.32 259.465 175.237C260.707 175.154 261.949 175.154 263.191 175.237C265.261 175.361 266.876 174.533 268.283 173.125C269.732 171.676 271.223 170.269 272.216 168.447C272.382 168.116 272.713 167.909 272.92 167.619C274.328 165.632 276.108 164.017 277.805 162.278C278.012 162.071 278.219 161.864 278.385 161.616C279.213 160.415 278.592 159.008 277.143 158.966C276.191 158.966 275.239 158.759 274.328 158.511C273.044 158.138 271.761 158.014 270.436 158.056C269.691 158.056 268.987 158.056 268.242 158.056H268.283Z" fill="#E7A47C"/>
<path d="M412.605 335.334C412.605 336.203 411.984 336.824 411.487 337.445C409.956 339.391 408.548 341.461 406.809 343.2C406.437 343.572 406.188 344.028 405.857 344.4C405.443 344.897 405.029 345.435 404.532 345.849C402.089 347.795 399.647 349.741 396.914 351.273C393.52 353.219 389.918 354.502 386.15 355.454C384.618 355.868 383.045 356.241 381.431 356.158C380.934 356.158 380.437 356.241 379.94 356.365C378.905 356.614 377.912 356.614 376.918 356.365C376.421 356.241 375.924 356.158 375.428 356.158C370.956 356.034 366.858 354.544 362.966 352.432C362.345 352.101 361.724 351.687 361.103 351.314C358.784 349.865 356.756 348.126 355.39 345.684C355.886 344.566 356.921 344.069 357.832 343.365C358.785 342.869 359.737 342.869 360.772 343.324C362.511 344.069 364.291 344.773 366.071 345.394C367.81 345.974 369.549 346.553 371.412 346.47C371.784 346.47 372.115 346.553 372.488 346.677C373.854 347.009 375.221 347.05 376.587 346.677C376.918 346.595 377.291 346.512 377.663 346.512C380.851 346.512 383.832 345.518 386.771 344.442C387.806 344.069 388.841 343.697 389.876 343.324C393.644 341.916 396.832 339.681 399.813 337.073C400.93 336.12 402.172 335.292 403.083 334.174C404.615 332.229 406.437 330.531 407.761 328.42C408.051 327.964 408.382 327.633 408.962 327.592C410.328 330.117 411.612 332.684 412.647 335.375L412.605 335.334Z" fill="#62350E"/>
<path d="M122.885 271.618C123.216 272.115 123.754 272.073 124.292 272.073C126.984 272.156 129.675 272.487 132.324 272.901C132.821 272.984 133.359 272.943 133.856 272.984C134.891 272.984 135.926 272.901 136.878 273.315C137.002 273.357 137.168 273.398 137.292 273.398C139.445 273.191 141.515 273.729 143.627 273.936C145.945 274.185 148.305 274.061 150.582 274.64C150.706 274.64 150.872 274.723 150.996 274.682C153.19 274.475 155.384 275.013 157.537 275.261C159.773 275.51 162.05 275.344 164.285 275.965C164.575 276.048 164.865 276.048 165.155 276.048C167.225 275.882 169.212 276.42 171.241 276.586C174.056 276.793 176.871 277.166 179.728 277.414C181.881 277.621 184.075 277.994 186.228 278.242C186.973 278.325 187.635 278.573 188.091 279.236C188.463 279.815 188.422 280.312 187.884 280.809C187.553 281.099 187.18 281.347 186.725 281.306C184.737 281.223 182.792 281.554 180.804 281.016C180.307 280.892 179.811 280.892 179.272 280.85C178.03 280.85 176.788 280.85 175.588 280.478C175.05 280.312 174.429 280.395 173.849 280.395C172.897 280.395 171.945 280.478 171.034 280.064C170.91 280.022 170.744 279.981 170.62 279.981C168.343 280.146 166.107 279.484 163.871 279.484C163.292 279.484 162.712 279.401 162.133 279.277C161.47 279.111 160.849 279.111 160.187 279.07C159.235 279.07 158.282 279.111 157.372 278.739C157.247 278.697 157.082 278.656 156.958 278.656C154.763 278.863 152.569 278.325 150.416 278.076C148.305 277.869 146.193 277.952 144.123 277.373C143.627 277.248 143.088 277.29 142.592 277.29C141.639 277.29 140.687 277.331 139.776 276.959C139.652 276.917 139.487 276.876 139.362 276.876C137.168 277.083 134.974 276.545 132.821 276.296C130.71 276.089 128.598 276.172 126.528 275.634C125.907 275.468 125.203 275.468 124.541 275.551C123.257 275.634 122.098 275.137 120.856 275.013C120.152 274.93 119.697 274.392 119.531 273.729C119.407 273.315 119.449 272.86 119.407 272.405C119.656 272.446 119.821 272.405 119.904 272.156C120.07 272.115 120.194 272.073 120.359 271.991C120.856 272.032 121.312 272.073 121.684 271.659C122.14 271.618 122.554 271.577 123.009 271.535L122.885 271.618Z" fill="#4A4B46"/>
<path d="M321.027 334.133C321.276 333.678 321.483 333.223 321.773 332.809C324.091 329.704 325.416 326.184 326.244 322.458C327.072 318.774 327.031 315.006 326.617 311.363C326.078 306.354 324.05 301.8 320.903 297.825C320.696 297.535 320.324 297.37 320.034 297.163C319.537 296.831 319.661 296.335 319.661 295.879C320.986 295.796 322.27 295.714 323.594 295.631C323.843 296.666 324.712 297.328 325.292 298.156C327.279 300.847 328.397 303.952 329.266 307.099C329.929 309.541 330.384 312.067 330.218 314.675C330.177 315.752 330.218 316.869 330.218 317.987C330.218 320.637 329.722 323.204 328.976 325.729C328.19 328.544 327.072 331.235 325.457 333.719C325.375 333.844 325.375 334.009 325.333 334.133C323.884 334.382 322.435 334.258 320.986 334.216L321.027 334.133Z" fill="#E5A37D"/>
<path d="M277.764 154.578C277.557 154.578 277.309 154.578 277.102 154.536C276.522 154.536 276.191 154.246 276.108 153.625C275.363 149.402 273.831 145.387 271.802 141.619C271.016 140.129 270.105 138.762 269.277 137.313C268.987 136.817 268.822 136.278 268.573 135.74C272.258 136.775 275.446 138.514 277.599 141.785C279.255 144.31 279.958 147.043 279.296 150.106C279.048 151.265 278.716 152.342 278.22 153.418C278.013 153.791 277.93 154.246 277.764 154.619V154.578Z" fill="#FFB78A"/>
<path d="M121.559 271.784C121.187 272.198 120.731 272.157 120.234 272.116C120.607 271.743 121.062 271.66 121.559 271.784Z" fill="#696D65"/>
<path d="M119.82 272.238C119.737 272.445 119.572 272.569 119.323 272.486C119.406 272.238 119.572 272.155 119.82 272.238Z" fill="#696D65"/>
<path d="M240.006 179.627C240.006 180.869 239.634 182.069 239.261 183.27C237.647 188.735 235.949 194.158 234.459 199.665C233.258 204.012 232.223 208.4 231.561 212.913C231.147 215.769 230.443 218.626 229.946 221.483C229.408 224.588 228.994 227.693 228.497 230.756C228.124 232.909 227.669 235.062 227.338 237.215C227.089 238.788 227.048 240.403 226.717 241.976C226.344 243.922 226.51 245.909 225.972 247.813C225.972 247.938 225.889 248.103 225.889 248.227C226.054 250.297 225.392 252.285 225.351 254.313C225.351 256.176 224.978 258.081 224.647 259.944C224.523 260.813 224.564 261.683 224.523 262.552C224.481 264.001 224.647 265.491 224.15 266.899C224.026 267.313 224.026 267.769 224.067 268.224C224.233 269.797 223.736 271.288 223.57 272.778C223.488 273.358 223.239 273.896 222.825 274.31C222.535 274.641 221.956 274.558 221.707 274.186C221.5 273.854 221.459 273.523 221.459 273.151C221.459 269.632 221.459 266.113 221.459 262.593C222.246 260.441 221.459 258.039 222.287 255.887C222.121 253.817 222.618 251.829 222.867 249.801C223.115 247.689 223.032 245.578 223.529 243.508C223.819 242.224 223.819 240.9 223.984 239.616C224.481 235.849 225.102 232.123 225.765 228.397C226.303 225.333 226.634 222.186 227.214 219.123C228.373 212.747 229.449 206.371 231.147 200.079C231.478 198.795 231.851 197.553 232.265 196.311C233.341 192.833 234.417 189.314 235.577 185.878C236.073 184.346 236.736 182.897 237.315 181.365C237.771 180.123 238.599 179.461 239.965 179.627H240.006Z" fill="#4A4B46"/>
<path d="M216.285 284.742C214.215 284.867 212.228 284.37 210.158 284.204C206.887 283.914 203.616 283.418 200.346 283.004C196.578 282.548 192.811 282.093 188.588 281.596C190.782 281.182 192.562 281.058 194.343 280.933C200.139 280.561 205.893 280.478 211.689 280.437C213.138 280.437 214.587 280.23 216.078 280.105C216.161 281.637 216.202 283.211 216.285 284.742Z" fill="#F7B289"/>
<path d="M216.285 284.741C216.202 283.209 216.161 281.636 216.078 280.104C216.202 279.856 216.244 279.483 216.451 279.318C217.858 278.159 219.1 276.792 220.715 275.84C221.088 275.633 221.502 275.799 221.502 276.171C221.502 278.738 221.502 281.305 221.419 283.872C221.419 284.534 221.088 284.783 220.425 284.783C219.018 284.783 217.651 284.741 216.244 284.7L216.285 284.741Z" fill="#8A8ADD"/>
<path d="M260.21 136.072C261.286 135.906 262.363 136.403 263.48 136.651C264.184 136.817 264.722 137.272 265.178 137.976C266.047 139.342 266.958 140.667 267.662 142.116C268.573 143.938 269.649 145.676 270.436 147.581C271.098 149.154 271.429 150.769 272.009 152.342C272.299 153.129 271.885 153.625 271.098 153.667C270.353 153.667 269.649 153.667 268.904 153.667C267.952 153.667 267 153.625 266.089 153.957C265.716 154.122 265.219 154.081 264.805 154.081C262.901 153.998 261.203 154.619 259.589 155.447C259.092 155.695 258.678 155.861 258.14 155.82C257.602 155.82 257.146 155.613 256.856 155.116C256.525 154.536 256.235 153.957 255.946 153.377C254.455 150.355 252.965 147.332 251.102 144.517C250.191 143.151 249.86 141.536 249.363 140.046C249.239 139.715 249.28 139.301 249.28 138.97C249.239 138.142 249.611 137.521 250.398 137.272C251.35 136.982 252.344 136.568 253.337 136.527C255.366 136.444 257.436 136.527 259.423 136.03C259.63 135.989 259.879 136.03 260.21 136.03V136.072Z" fill="#FFB78A"/>
<path d="M268.283 158.056C269.028 158.056 269.732 158.056 270.477 158.056C271.802 158.015 273.085 158.139 274.369 158.512C275.279 158.76 276.19 158.967 277.184 158.967C278.633 158.967 279.254 160.416 278.426 161.617C278.26 161.865 278.053 162.072 277.846 162.279C276.149 163.977 274.369 165.633 272.961 167.62C272.754 167.91 272.423 168.158 272.257 168.448C271.263 170.27 269.773 171.677 268.324 173.126C266.916 174.575 265.302 175.362 263.232 175.238C261.99 175.155 260.748 175.155 259.506 175.238C258.222 175.32 257.022 174.989 255.821 174.699C254.62 174.41 253.751 173.623 253.171 172.547C252.675 171.677 252.592 170.766 253.047 169.814C253.296 169.359 253.461 168.862 253.751 168.448C255.241 166.295 256.732 164.101 258.346 162.031C259.175 160.954 260.21 159.961 261.286 159.05C262.114 158.305 263.232 158.056 264.35 158.056C265.674 158.056 266.999 158.056 268.324 158.056H268.283Z" fill="#FFB78A"/>
</svg>
