<svg width="500" height="501" viewBox="0 0 500 501" fill="none" xmlns="http://www.w3.org/2000/svg">
<path d="M298.248 267.349C298.248 267.349 302.981 252.828 317.889 240.002L342.736 261.299C331.378 274.609 317.416 293.002 317.416 293.002C295.408 272.673 288.782 273.641 280.736 271.463L298.248 267.349Z" fill="#ECAD83"/>
<path d="M100.191 215.002C153.675 215.002 212.107 266.315 242.736 297.802V382.002C202.682 364.042 131.998 306.899 102.782 286.607C102.782 286.84 34.6901 215.002 100.191 215.002Z" fill="#333333"/>
<path d="M253.015 266.235C277.092 270.47 289.603 266.941 310.139 284.822C312.736 286.939 315.568 290.939 317.221 294.938C319.817 301.291 322.414 309.29 319.345 317.995C316.04 327.876 309.903 343.404 299.989 349.757C288.186 357.05 266.706 371.637 227.285 367.167C156.234 359.168 124.603 348.345 92.7363 335.17L116.813 246.002C161.663 267.176 186.212 283.175 215.719 283.645C215.719 283.645 224.453 261.295 253.015 266.235Z" fill="#FF8AA0"/>
<path d="M447.313 254.473C441.919 246.507 417.763 225.42 409.086 212.3C404.396 205.271 390.325 210.659 385.869 217.454C382.586 222.609 380.71 228.7 377.896 231.043C362.887 243.695 311.528 286.806 293.47 302.27C287.372 307.424 321.143 342.569 326.537 336.243C348.581 310.47 389.622 256.816 396.422 246.507C396.422 246.507 408.617 250.021 422.454 265.719C429.255 273.685 433.007 282.589 439.105 291.492C445.671 300.864 456.224 267.359 447.313 254.473Z" fill="#F6BB92"/>
<path d="M376.696 213.305C372.869 208.883 368.803 204.927 364.736 200.737C368.085 198.875 370.716 197.246 372.869 196.082C376.217 194.22 378.848 188.634 383.154 183.979C388.655 177.928 403.963 174.902 407.551 182.583C414.009 196.78 434.818 221.451 439.124 230.063C445.821 244.028 429.796 275.216 425.012 264.975C420.228 255.2 418.075 245.89 412.335 237.045C400.854 219.357 389.373 214.004 389.373 214.004C387.938 215.633 385.067 218.426 381.24 221.917C380.523 218.891 379.088 215.866 376.696 213.305Z" fill="#ECAD83"/>
<path d="M291.587 207.559C284.677 194.015 292.54 183.085 298.019 176.907C314.697 157.899 329.23 158.374 347.098 161.938C370.923 166.453 368.064 230.607 364.014 240.824C353.531 267.199 313.505 270.763 298.019 268.387C280.866 265.773 286.345 260.546 288.013 253.892C288.013 253.655 287.298 252.467 287.298 252.467C287.775 250.091 288.489 247.002 287.536 243.438C287.536 243.438 288.489 241.537 288.728 240.349C288.966 239.636 288.966 239.161 288.251 238.686C285.869 237.26 283.724 236.072 283.01 234.884C280.627 230.845 294.684 213.974 291.587 207.559Z" fill="#F6BB92"/>
<path d="M297.736 246.859C297.736 246.859 295.821 247.431 288.159 246.286C287.202 245.713 285.765 244.759 287.68 243.232C288.878 242.087 292.23 245.523 297.736 246.859Z" fill="#D6876B"/>
<path d="M297.736 247.752C297.736 247.752 295.457 251.502 288.392 252.002C287.48 251.752 286.797 250.752 286.797 250.252C286.341 247.752 288.62 247.002 288.62 247.002C295.913 248.502 297.736 247.752 297.736 247.752Z" fill="#CC785E"/>
<path d="M348.979 157.694C377.357 163.121 407.364 211.729 359.679 253.258C356.422 256.09 349.909 258.686 342.233 250.427C336.883 244.528 333.859 237.449 333.859 237.449C332.928 235.325 331.998 232.966 331.068 230.37C329.905 227.538 334.324 213.853 331.533 212.909C304.55 203.234 295.478 186.009 296.874 178.458C303.852 160.997 318.972 152.03 348.979 157.694Z" fill="#602F0F"/>
<path d="M340.7 229.62C333.965 241.391 328.433 240.929 320.736 238.852L328.914 220.157L334.446 213.002C341.903 215.31 347.435 218.08 340.7 229.62Z" fill="#F6BB92"/>
<path d="M386.191 210.918C393.998 206.326 393.525 191.585 385.008 177.811C376.491 164.037 363.479 156.787 355.672 161.379C347.865 165.97 349.757 177.57 358.274 191.102C366.791 204.876 378.383 215.509 386.191 210.918Z" fill="#4C230C"/>
<path d="M328.163 215.661C328.869 213.541 329.34 211.422 329.576 209.537C330.047 207.182 329.811 205.533 329.811 205.533L337.584 210.008C337.348 211.186 337.113 212.364 336.877 213.777C336.877 213.777 335.935 213.306 334.522 212.599H334.758C333.344 214.248 331.225 216.839 329.105 220.843C329.34 220.843 325.807 222.492 328.163 215.661Z" fill="#602F0F"/>
<path d="M390.814 210.479C399.058 205.768 398.116 190.223 388.93 175.62C379.744 161.017 365.612 153.009 357.369 157.719C349.125 162.43 351.48 174.678 360.666 189.281C370.087 203.648 382.571 215.189 390.814 210.479Z" fill="#602F0F"/>
<path d="M390.493 184.962C391.355 184.466 389.846 180.251 387.257 175.541C384.669 170.83 381.865 167.359 381.002 168.103C380.14 168.598 381.434 172.07 384.022 176.78C386.826 181.243 389.63 185.458 390.493 184.962Z" fill="#4C230C"/>
<path d="M253.734 334.606C263.862 325.42 269.75 317.883 292.597 302.573C296.601 309.639 318.976 333.899 325.807 336.726C316.621 347.089 274.461 395.844 249.494 400.791C223.35 405.972 129.843 314.586 95.4555 286.086C95.4555 286.086 34.2171 212.6 99.6952 212.6C174.83 212.364 253.734 334.606 253.734 334.606Z" fill="#3D3C3C"/>
<path d="M93.5699 335.785L111.941 292.918C111.941 292.918 87.446 212.602 80.1445 215.663C56.5912 224.849 47.1699 241.808 49.2897 271.72C50.2318 284.439 51.174 308.934 93.5699 335.785Z" fill="#3D3C3C"/>
<path d="M61.337 307.049C74.0518 324.042 93.8305 335.843 93.8305 335.843C148.693 352.364 190.605 345.048 190.605 345.048C239.816 304.217 266.658 259.845 287.614 273.534C308.57 287.223 293.501 303.981 273.958 317.198C254.65 330.415 206.145 388.239 190.605 383.755C178.125 379.978 106.545 361.805 86.5312 350.712C83.9412 349.296 78.5256 348.116 72.8746 344.812C65.5753 340.563 61.5725 327.582 61.1016 323.806C60.1597 319.086 61.337 307.049 61.337 307.049Z" fill="#F6BB92"/>
</svg>
