<svg width="500" height="500" viewBox="0 0 500 500" fill="none" xmlns="http://www.w3.org/2000/svg">
<path d="M215.855 242.091C215.855 242.091 212.573 231.954 202.233 223L185 237.868C192.878 247.16 202.561 260 202.561 260C217.824 245.808 222.42 246.484 228 244.963L215.855 242.091Z" fill="#ECAD83"/>
<path d="M355.032 205C317.499 205 276.495 241.257 255 263.506V323C283.108 310.31 332.711 269.933 353.213 255.595C353.213 255.76 400.997 205 355.032 205Z" fill="#333333"/>
<path d="M247.524 241.263C230.628 244.248 221.848 241.76 207.437 254.365C205.615 255.857 203.627 258.677 202.467 261.496C200.645 265.974 198.823 271.613 200.976 277.749C203.295 284.715 207.602 295.661 214.56 300.139C222.842 305.28 237.916 315.562 265.58 312.411C315.44 306.772 337.637 299.144 360 289.856L343.104 227C311.63 241.926 294.403 253.204 273.697 253.536C273.697 253.536 267.568 237.78 247.524 241.263Z" fill="#FF8AA0"/>
<path d="M111.405 232.972C115.195 227.371 132.164 212.544 138.26 203.319C141.556 198.376 151.441 202.165 154.571 206.943C156.878 210.567 158.196 214.85 160.173 216.498C170.717 225.394 206.799 255.706 219.485 266.579C223.768 270.203 200.044 294.914 196.254 290.466C180.767 272.345 151.935 234.619 147.157 227.371C147.157 227.371 138.59 229.842 128.869 240.879C124.091 246.481 121.455 252.741 117.172 259.001C112.559 265.59 105.145 242.033 111.405 232.972Z" fill="#F6BB92"/>
<path d="M160.66 203.99C163.329 200.86 166.164 198.059 169 195.093C166.665 193.775 164.83 192.622 163.329 191.798C160.994 190.48 159.159 186.526 156.156 183.231C152.32 178.948 141.644 176.806 139.142 182.243C134.639 192.293 120.127 209.756 117.125 215.852C112.454 225.737 123.63 247.814 126.966 240.565C130.302 233.646 131.803 227.055 135.806 220.795C143.813 208.274 151.819 204.484 151.819 204.484C152.82 205.638 154.822 207.615 157.491 210.086C157.991 207.944 158.992 205.802 160.66 203.99Z" fill="#ECAD83"/>
<path d="M220.784 200.159C225.637 190.716 220.114 183.095 216.266 178.787C204.552 165.534 194.344 165.865 181.793 168.35C165.059 171.498 167.068 216.229 169.912 223.353C177.275 241.743 205.388 244.228 216.266 242.571C228.314 240.749 224.465 237.104 223.294 232.465C223.294 232.299 223.796 231.471 223.796 231.471C223.461 229.814 222.959 227.66 223.628 225.175C223.628 225.175 222.959 223.85 222.792 223.022C222.624 222.525 222.624 222.193 223.126 221.862C224.8 220.868 226.306 220.04 226.808 219.211C228.481 216.395 218.608 204.632 220.784 200.159Z" fill="#F6BB92"/>
<path d="M216 227.893C216 227.893 217.393 228.322 222.965 227.463C223.662 227.034 224.706 226.318 223.313 225.172C222.443 224.314 220.005 226.89 216 227.893Z" fill="#D6876B"/>
<path d="M216 228.45C216 228.45 217.658 230.7 222.796 231C223.459 230.85 223.956 230.25 223.956 229.95C224.288 228.45 222.63 228 222.63 228C217.326 228.9 216 228.45 216 228.45Z" fill="#CC785E"/>
<path d="M180.193 165.184C160.199 168.983 139.058 203.009 172.654 232.08C174.949 234.062 179.537 235.879 184.946 230.097C188.715 225.968 190.845 221.013 190.845 221.013C191.501 219.526 192.157 217.875 192.812 216.058C193.632 214.076 190.518 204.495 192.484 203.835C211.495 197.063 217.886 185.005 216.903 179.719C211.987 167.497 201.334 161.22 180.193 165.184Z" fill="#602F0F"/>
<path d="M186.112 215.694C190.797 223.977 194.646 223.652 200 222.191L194.311 209.035L190.463 204C185.275 205.624 181.427 207.573 186.112 215.694Z" fill="#F6BB92"/>
<path d="M153.923 202.249C148.401 199.071 148.735 188.865 154.759 179.329C160.783 169.793 169.987 164.774 175.509 167.953C181.031 171.132 179.693 179.162 173.668 188.531C167.644 198.067 159.445 205.428 153.923 202.249Z" fill="#4C230C"/>
<path d="M194.904 205.777C194.407 204.287 194.076 202.798 193.911 201.474C193.58 199.819 193.745 198.661 193.745 198.661L188.284 201.805C188.45 202.632 188.615 203.46 188.781 204.453C188.781 204.453 189.443 204.122 190.436 203.625H190.27C191.263 204.784 192.752 206.604 194.242 209.417C194.076 209.417 196.559 210.576 194.904 205.777Z" fill="#602F0F"/>
<path d="M150.884 202.136C145.092 198.826 145.754 187.904 152.208 177.644C158.662 167.383 168.591 161.757 174.383 165.066C180.175 168.376 178.52 176.982 172.066 187.242C165.447 197.337 156.676 205.446 150.884 202.136Z" fill="#602F0F"/>
<path d="M151.171 183.972C150.567 183.622 151.624 180.647 153.435 177.321C155.247 173.996 157.21 171.546 157.814 172.071C158.418 172.421 157.512 174.871 155.7 178.196C153.737 181.347 151.775 184.322 151.171 183.972Z" fill="#4C230C"/>
<path d="M247.199 289.349C240.083 282.895 235.945 277.599 219.893 266.842C217.08 271.807 201.358 288.852 196.559 290.838C203.013 298.12 232.636 332.376 250.177 335.851C268.547 339.492 334.246 275.282 358.407 255.258C358.407 255.258 401.434 203.626 355.428 203.626C302.637 203.46 247.199 289.349 247.199 289.349Z" fill="#3D3C3C"/>
<path d="M359.731 290.176L346.823 260.057C346.823 260.057 364.034 203.625 369.164 205.777C385.713 212.231 392.333 224.146 390.843 245.163C390.181 254.1 389.519 271.31 359.731 290.176Z" fill="#3D3C3C"/>
<path d="M382.577 270.201C373.617 282.081 359.68 290.331 359.68 290.331C321.022 301.882 291.489 296.767 291.489 296.767C256.813 268.221 237.899 237.2 223.132 246.77C208.366 256.341 218.984 268.056 232.755 277.296C246.36 286.536 280.539 326.962 291.489 323.827C300.283 321.187 350.721 308.482 364.824 300.727C366.649 299.737 370.465 298.912 374.447 296.602C379.59 293.631 382.411 284.556 382.743 281.916C383.406 278.616 382.577 270.201 382.577 270.201Z" fill="#F6BB92"/>
</svg>
