<svg width="500" height="501" viewBox="0 0 500 501" fill="none" xmlns="http://www.w3.org/2000/svg">
<path d="M291.326 259.945C291.326 259.945 295.382 247.501 308.158 236.51L329.45 254.76C319.716 266.166 307.752 281.928 307.752 281.928C288.893 264.507 283.215 265.337 276.32 263.47L291.326 259.945Z" fill="#ECAD83"/>
<path d="M121.603 215.087C167.436 215.087 217.509 259.059 243.756 286.042V358.196C209.432 342.806 148.861 293.837 123.824 276.448C123.824 276.648 65.4734 215.087 121.603 215.087Z" fill="#333333"/>
<path d="M252.564 258.99C273.197 262.619 283.918 259.595 301.516 274.918C303.742 276.732 306.169 280.16 307.585 283.587C309.81 289.031 312.035 295.885 309.405 303.345C306.573 311.813 301.314 325.119 292.818 330.563C282.704 336.813 264.297 349.313 230.516 345.482C169.629 338.627 142.523 329.353 115.215 318.063L135.848 241.651C174.282 259.797 195.319 273.506 220.604 273.91C220.604 273.91 228.088 254.756 252.564 258.99Z" fill="#FF8AA0"/>
<path d="M419.066 248.911C414.444 242.085 393.744 224.015 386.309 212.771C382.289 206.748 370.231 211.366 366.413 217.188C363.599 221.605 361.992 226.826 359.58 228.833C346.718 239.675 302.706 276.619 287.232 289.87C282.007 294.287 310.946 324.404 315.568 318.983C334.459 296.897 369.628 250.919 375.456 242.085C375.456 242.085 385.907 245.097 397.764 258.549C403.592 265.375 406.807 273.005 412.032 280.634C417.659 288.666 426.703 259.954 419.066 248.911Z" fill="#F6BB92"/>
<path d="M358.552 213.633C355.272 209.843 351.788 206.453 348.303 202.863C351.173 201.267 353.428 199.871 355.272 198.874C358.142 197.278 360.396 192.491 364.086 188.502C368.8 183.317 381.918 180.724 384.993 187.306C390.527 199.472 408.359 220.613 412.049 227.993C417.788 239.96 404.055 266.686 399.956 257.91C395.856 249.534 394.012 241.556 389.092 233.977C379.254 218.818 369.415 214.231 369.415 214.231C368.185 215.627 365.726 218.021 362.446 221.012C361.831 218.42 360.601 215.827 358.552 213.633Z" fill="#ECAD83"/>
<path d="M285.618 208.708C279.698 197.102 286.435 187.736 291.131 182.442C305.422 166.153 317.876 166.56 333.188 169.614C353.605 173.483 351.155 228.459 347.684 237.215C338.701 259.816 304.401 262.87 291.131 260.834C276.431 258.594 281.127 254.115 282.556 248.414C282.556 248.21 281.943 247.192 281.943 247.192C282.352 245.156 282.964 242.509 282.148 239.454C282.148 239.454 282.964 237.826 283.168 236.807C283.373 236.197 283.373 235.789 282.76 235.382C280.718 234.16 278.881 233.142 278.268 232.124C276.227 228.663 288.273 214.206 285.618 208.708Z" fill="#F6BB92"/>
<path d="M290.888 242.386C290.888 242.386 289.247 242.877 282.681 241.895C281.861 241.405 280.63 240.587 282.271 239.278C283.297 238.297 286.169 241.241 290.888 242.386Z" fill="#D6876B"/>
<path d="M290.888 243.151C290.888 243.151 288.935 246.365 282.881 246.793C282.099 246.579 281.514 245.722 281.514 245.294C281.123 243.151 283.076 242.509 283.076 242.509C289.326 243.794 290.888 243.151 290.888 243.151Z" fill="#CC785E"/>
<path d="M334.8 165.977C359.118 170.628 384.832 212.282 343.969 247.87C341.178 250.297 335.597 252.521 329.019 245.444C324.434 240.389 321.843 234.322 321.843 234.322C321.046 232.503 320.248 230.481 319.451 228.256C318.454 225.83 322.242 214.102 319.85 213.293C296.727 205.003 288.953 190.242 290.149 183.771C296.129 168.808 309.086 161.124 334.8 165.977Z" fill="#602F0F"/>
<path d="M327.706 227.613C321.934 237.7 317.194 237.305 310.598 235.525L317.606 219.504L322.347 213.373C328.736 215.351 333.477 217.724 327.706 227.613Z" fill="#F6BB92"/>
<path d="M366.688 211.587C373.378 207.652 372.973 195.02 365.674 183.216C358.376 171.413 347.225 165.2 340.535 169.135C333.845 173.069 335.467 183.009 342.765 194.606C350.064 206.41 359.998 215.521 366.688 211.587Z" fill="#4C230C"/>
<path d="M316.962 215.652C317.568 213.835 317.971 212.019 318.173 210.404C318.577 208.386 318.375 206.973 318.375 206.973L325.036 210.808C324.834 211.817 324.632 212.826 324.43 214.037C324.43 214.037 323.623 213.633 322.412 213.028H322.614C321.403 214.441 319.586 216.661 317.77 220.092C317.971 220.092 314.944 221.505 316.962 215.652Z" fill="#602F0F"/>
<path d="M370.651 211.211C377.715 207.175 376.908 193.853 369.036 181.339C361.165 168.826 349.054 161.963 341.99 166C334.926 170.037 336.944 180.532 344.816 193.046C352.889 205.358 363.587 215.248 370.651 211.211Z" fill="#602F0F"/>
<path d="M370.375 189.344C371.114 188.919 369.821 185.308 367.603 181.271C365.385 177.234 362.982 174.259 362.243 174.897C361.503 175.322 362.612 178.296 364.83 182.333C367.233 186.157 369.636 189.769 370.375 189.344Z" fill="#4C230C"/>
<path d="M253.181 317.579C261.86 309.708 266.906 303.249 286.484 290.129C289.915 296.185 309.09 316.974 314.943 319.396C307.071 328.277 270.942 370.057 249.548 374.296C227.144 378.736 147.014 300.423 117.546 276.001C117.546 276.001 65.0683 213.028 121.179 213.028C185.565 212.826 253.181 317.579 253.181 317.579Z" fill="#3D3C3C"/>
<path d="M115.93 318.59L131.673 281.856C131.673 281.856 110.682 213.029 104.425 215.653C84.2416 223.525 76.1681 238.057 77.9846 263.691C78.7919 274.59 79.5993 295.581 115.93 318.59Z" fill="#3D3C3C"/>
<path d="M88.3083 293.965C99.2041 308.527 116.153 318.64 116.153 318.64C163.167 332.798 199.083 326.528 199.083 326.528C241.254 291.538 264.256 253.515 282.214 265.245C300.172 276.976 287.259 291.336 270.511 302.662C253.966 313.988 212.4 363.54 199.083 359.697C188.389 356.461 127.049 340.888 109.898 331.382C107.679 330.168 103.038 329.157 98.1953 326.326C91.9403 322.685 88.5101 311.561 88.1066 308.325C87.2995 304.28 88.3083 293.965 88.3083 293.965Z" fill="#F6BB92"/>
</svg>
