<svg width="500" height="500" viewBox="0 0 500 500" fill="none" xmlns="http://www.w3.org/2000/svg">
<path d="M105.73 304.701C105.765 303.502 105.801 302.338 105.095 301.279C100.191 293.695 100.579 285.369 101.955 277.008C105.765 253.76 124.604 242.47 144.254 241.694C151.839 241.377 159.036 244.481 165.985 247.515C177.416 252.56 187.964 259.228 198.653 265.648C200.064 266.495 201.475 267.342 202.851 268.188C210.436 273.268 218.021 278.384 225.676 283.358C228.005 284.875 230.192 286.674 233.014 287.309C235.343 290.202 237.001 290.731 240.246 289.602C244.621 288.05 248.96 286.463 253.335 284.875C254.746 285.051 255.98 284.346 257.25 283.958C264.588 281.735 272.103 281.312 279.687 281.136C280.252 281.171 280.781 281.206 281.346 281.206C282.58 282.335 284.097 281.7 285.473 281.876C295.88 283.146 306.287 284.169 316.8 284.028C324.667 284.593 332.534 284.946 340.366 285.863C342.307 286.074 344.847 285.157 346.399 287.38C346.364 287.733 346.328 288.05 346.258 288.403C345.552 290.414 345.799 292.425 346.046 294.471C346.011 296.27 345.94 298.069 345.905 299.904C344.705 305.478 344.635 310.981 346.434 316.449C343.471 318.213 340.119 317.896 336.909 318.248C318.988 320.153 300.996 321.459 283.321 325.092C270.868 327.668 258.238 329.361 245.926 332.712C240.317 334.229 234.99 332.959 229.698 330.807C222.784 328.02 215.904 325.057 208.566 323.575C206.132 321.811 203.133 321.635 200.382 320.859C187.611 317.19 175.264 312.392 162.81 307.735C161.188 307.136 159.706 307.1 158.083 307.63C150.216 310.134 142.349 312.71 134.552 315.497C131.977 316.414 129.049 317.966 126.403 316.555C120.723 313.521 114.55 311.475 109.328 307.559C108.129 306.571 107.353 305.09 105.73 304.701Z" fill="#696D66"/>
<path d="M346.399 287.309C344.847 285.087 342.307 286.004 340.367 285.792C332.535 284.875 324.668 284.522 316.801 283.958C316.801 283.005 317.647 282.617 318.071 281.947C323.221 280.747 328.337 279.548 333.487 278.419C337.968 277.431 338.426 276.937 338.215 272.386C337.862 264.625 340.578 258.134 346.117 252.772C348.587 250.373 351.056 247.938 353.49 245.504C355.748 243.211 355.889 241.659 354.019 239.013C352.22 236.508 350.28 234.074 348.516 231.534C347.14 229.523 345.517 227.618 345.306 225.043C349.962 224.055 354.619 223.596 359.382 224.196C372.541 225.784 381.96 233.827 385.417 246.563C386.299 249.808 387.005 253.124 387.393 256.476C388.134 263.038 385.911 268.859 382.136 274.15C381.607 274.856 380.796 275.42 380.76 276.443C378.397 278.49 376.033 280.536 373.74 282.652C373.034 283.287 372.117 283.852 372.082 285.016C367.39 284.381 362.733 284.169 358.041 285.051C354.161 285.757 350.28 286.533 346.399 287.309Z" fill="#7A4821"/>
<path d="M345.341 225.008C345.517 227.619 347.175 229.524 348.551 231.499C350.279 234.039 352.255 236.474 354.054 238.978C355.924 241.624 355.818 243.176 353.525 245.47C351.091 247.904 348.621 250.338 346.152 252.737C340.613 258.099 337.897 264.555 338.25 272.352C338.461 276.903 337.967 277.396 333.522 278.384C328.372 279.548 323.256 280.748 318.106 281.912C317.083 281.453 316.659 280.536 316.342 279.619C313.907 273.128 309.145 269.177 302.689 267.095C301.454 266.707 300.572 266.107 300.431 264.731C300.996 264.096 301.807 264.414 302.477 264.238C305.758 263.461 307.452 260.216 306.182 257.147C304.347 252.631 305.053 250.197 308.827 247.198C311.05 245.434 313.519 244.094 315.918 242.612C318.811 240.848 319.693 238.273 318.494 235.168C316.306 229.594 317.929 227.548 323.891 228.113C325.796 228.289 327.666 228.465 329.571 228.677C333.981 229.171 338.285 228.924 342.13 226.278C343.047 225.678 344.035 224.832 345.341 225.008Z" fill="#F7BB92"/>
<path d="M233.015 287.274C230.192 286.674 228.005 284.84 225.677 283.323C218.021 278.348 210.436 273.233 202.852 268.153C209.731 264.766 216.293 260.921 222.607 256.617C231.603 250.443 241.658 249.491 251.853 252.63C263.495 256.229 275.102 259.968 286.391 264.59C288.402 265.401 290.589 265.683 292.706 266.213C292.706 266.459 292.706 266.706 292.706 266.953C280.429 269.035 269.104 274.08 257.357 277.89C249.101 280.571 241.376 284.734 233.015 287.274Z" fill="#8A8AD9"/>
<path d="M105.73 304.701C107.353 305.054 108.129 306.571 109.364 307.488C114.585 311.369 120.759 313.415 126.439 316.484C129.085 317.895 132.013 316.343 134.588 315.426C142.385 312.639 150.216 310.063 158.119 307.559C159.777 307.03 161.223 307.065 162.846 307.665C175.264 312.321 187.647 317.119 200.417 320.788C203.169 321.564 206.168 321.741 208.602 323.505C203.416 325.268 197.948 325.445 192.621 326.468C188.423 327.279 184.295 328.338 180.097 329.079C172.971 330.313 165.845 331.724 158.577 332.112C150.781 332.536 143.02 333.206 135.223 333.806C134.694 333.841 134.165 334.017 133.636 334.194C126.792 336.558 120.935 334.582 115.432 330.419C107.671 324.598 104.531 316.661 104.601 307.241C104.566 306.183 104.566 305.195 105.73 304.701Z" fill="#F7BB92"/>
<path d="M346.434 316.378C344.635 310.91 344.706 305.371 345.905 299.833C346.611 299.833 347.069 299.445 347.528 298.986C350.703 295.846 354.725 294.682 358.958 293.8C361.745 293.236 364.567 293.553 367.319 293.13C371.023 292.565 374.692 292.883 378.396 293.024C382.665 293.2 386.757 294.611 391.061 294.364C391.449 295.141 392.12 295.105 392.79 294.929C392.755 295.952 393.637 296.269 394.307 296.693C397.623 298.739 398.399 302.161 398.858 305.583C399.705 312.286 393.989 316.272 387.357 317.295C375.786 319.095 364.109 318.318 352.467 318.46C350.174 318.495 348.516 316.872 346.434 316.378Z" fill="#DEA780"/>
<path d="M292.74 266.954C292.74 266.707 292.74 266.46 292.74 266.213C295.316 265.719 297.856 265.225 300.431 264.731C300.537 266.107 301.454 266.707 302.689 267.095C309.18 269.141 313.908 273.092 316.342 279.619C316.694 280.536 317.118 281.489 318.106 281.912C317.682 282.582 316.8 282.97 316.836 283.923C306.323 284.064 295.916 283.041 285.508 281.771C284.133 281.594 282.58 282.229 281.381 281.101C283.215 280.219 285.12 280.571 286.955 280.854C293.834 281.877 300.819 282.088 307.734 282.865C310.168 283.147 310.556 282.194 309.709 280.078C307.134 273.798 302.125 270.552 295.951 268.683C294.681 268.365 293.376 268.259 292.74 266.954Z" fill="#D8A681"/>
<path d="M391.907 294.929C391.237 295.071 390.637 295.106 390.249 294.365C390.461 293.095 389.332 293.024 388.697 292.566C385.028 289.955 380.795 288.474 376.879 286.392C378.854 284.275 381.112 282.476 382.523 279.83C383.335 278.349 383.511 277.114 381.677 276.373C385.769 276.549 390.884 281.1 391.907 285.616C392.578 288.685 393.001 291.825 391.907 294.929Z" fill="#7A4821"/>
<path d="M382.03 276.373C383.97 277.114 383.758 278.349 382.912 279.83C381.395 282.441 379.031 284.275 376.949 286.392C375.327 285.933 373.704 285.44 372.081 284.981C372.116 283.817 373.034 283.252 373.739 282.617C376.068 280.501 378.431 278.49 380.76 276.408C381.218 276.373 381.642 276.373 382.03 276.373Z" fill="#5C3514"/>
<path d="M292.741 266.953C293.376 268.258 294.681 268.364 295.916 268.752C302.09 270.622 307.134 273.868 309.674 280.147C310.521 282.229 310.133 283.181 307.699 282.934C300.784 282.158 293.835 281.946 286.92 280.923C285.085 280.641 283.145 280.288 281.346 281.17C280.782 281.135 280.252 281.1 279.688 281.1C279.3 279.865 278.241 280.253 277.395 280.218C272.491 280.006 267.623 280.606 262.825 281.488C259.579 282.088 255.981 282.334 253.335 284.839C248.96 286.427 244.621 288.014 240.247 289.567C237.001 290.731 235.343 290.202 233.015 287.273C241.376 284.769 249.102 280.606 257.427 277.889C269.14 274.079 280.464 269.035 292.741 266.953Z" fill="#F7BB92"/>
<path d="M372.081 284.946C373.704 285.404 375.327 285.898 376.95 286.357C381.077 288.438 385.522 289.92 389.403 292.531C390.073 292.989 391.238 293.024 391.026 294.33C386.757 294.577 382.63 293.166 378.361 292.989C374.657 292.848 370.988 292.495 367.284 293.095C364.532 293.518 361.71 293.201 358.923 293.765C354.689 294.647 350.667 295.811 347.492 298.951C347.034 299.41 346.54 299.833 345.87 299.798C345.905 297.999 345.975 296.2 346.011 294.365C347.528 292.389 347.14 290.343 346.222 288.297C346.258 287.944 346.293 287.627 346.364 287.274C350.244 286.498 354.16 285.687 358.041 284.946C362.733 284.099 367.425 284.346 372.081 284.946Z" fill="#F7BB92"/>
<path d="M253.335 284.805C255.981 282.3 259.579 282.053 262.825 281.453C267.587 280.571 272.491 279.972 277.395 280.183C278.241 280.219 279.3 279.831 279.688 281.065C272.103 281.277 264.589 281.665 257.251 283.888C255.946 284.276 254.746 285.016 253.335 284.805Z" fill="#D8A681"/>
<path d="M346.258 288.332C347.175 290.378 347.563 292.424 346.046 294.4C345.799 292.354 345.552 290.343 346.258 288.332Z" fill="#DEA780"/>
</svg>
