<svg width="500" height="500" viewBox="0 0 500 500" fill="none" xmlns="http://www.w3.org/2000/svg">
<path d="M211.134 359.452C208.559 364.461 208.135 370.07 206.689 375.397C204.325 384.217 202.244 393.072 200.057 401.927C205.243 403.726 210.464 405.56 215.65 407.36C217.449 407.995 219.213 408.841 221.188 408.63C225.069 398.364 228.95 388.133 232.795 377.867C236.146 368.906 239.145 359.804 243.696 351.302C246.695 345.764 250.716 340.93 253.962 335.603C253.821 334.157 254.491 332.887 255.02 331.617C257.313 326.361 259.959 321.28 261.617 315.777C263.346 310.097 263.875 304.453 260.136 299.337C257.278 295.457 254.068 291.788 250.963 288.084C246.8 283.145 242.25 278.558 238.122 273.584C235.899 270.938 234.277 267.41 229.796 267.41C226.092 267.446 223.129 265.082 219.989 263.389C221.753 270.832 223.975 278.135 226.798 285.261C229.549 292.246 231.984 299.373 234.03 306.569C235.088 310.238 233.324 313.66 231.49 316.871C230.925 318.846 229.867 320.61 228.844 322.409C223.905 330.982 219.248 339.731 215.367 348.868C213.921 352.396 213.215 356.206 211.134 359.452Z" fill="#696C65"/>
<path d="M217.272 222.289C213.779 232.555 213.144 242.856 216.461 253.299C218.401 253.616 218.683 255.662 220.059 256.65C223.552 259.155 227.256 261.519 231.454 262.224C236.393 263.036 239.321 266.317 242.178 269.703C249.234 277.994 256.043 286.46 263.028 294.786C269.237 302.195 270.19 310.238 266.274 319.022C265.039 321.809 263.91 324.667 263.381 327.736C270.966 324.244 277.739 319.587 283.101 313.131C285.606 310.132 286.171 306.181 286.947 302.442C288.605 294.433 288.393 286.531 285.606 278.734C283.419 272.631 280.385 266.952 277.422 261.201C271.495 249.7 265.603 238.164 259.641 226.664C259.183 225.746 258.477 224.97 257.913 224.124C252.445 223.665 246.976 223.03 241.473 222.818C233.465 222.466 225.386 222.077 217.272 222.289Z" fill="#696C65"/>
<path d="M269.061 173.217C275.94 175.334 282.784 177.556 289.699 179.497C294.708 180.908 299.823 181.719 304.41 178.085C307.973 175.263 309.984 171.383 311.148 167.184C312.559 162.034 313.441 156.742 314.57 151.521C312.488 153.461 310.548 155.613 309.031 158.012C307.655 160.164 305.856 160.693 303.598 160.34C296.719 159.247 289.875 158.083 283.313 155.719C278.233 153.885 273.259 151.662 268.214 149.722C262.005 147.323 255.761 144.959 249.517 142.631C248.352 142.207 247.576 141.572 247.858 140.197C247.717 140.126 247.541 140.091 247.4 140.02C245.742 139.491 244.084 138.75 242.39 138.503C234.982 137.41 228.808 140.161 227.715 147.499C226.621 154.766 229.196 161.434 234.312 166.832C235.829 168.419 237.945 168.913 240.203 168.525C242.496 168.137 244.648 167.431 246.588 166.267C248.141 165.315 249.481 165.315 251.104 166.091C253.291 167.149 255.584 167.925 257.807 168.878C261.511 170.43 265.427 171.418 269.061 173.217Z" fill="#F7BB92"/>
<path d="M269.061 173.217C265.427 171.418 261.511 170.43 257.807 168.843C255.584 167.89 253.291 167.114 251.104 166.056C249.481 165.28 248.105 165.315 246.588 166.232C244.648 167.432 242.496 168.137 240.203 168.49C237.945 168.878 235.828 168.384 234.311 166.797C229.231 161.364 226.621 154.731 227.714 147.464C228.843 140.161 235.017 137.375 242.39 138.468C244.083 138.715 245.742 139.456 247.4 139.985C247.4 139.844 247.364 139.703 247.329 139.597C241.79 135.505 235.617 134.341 228.914 135.681C228.879 135.963 228.702 136.034 228.455 135.999C223.481 137.868 221.611 142.313 219.53 146.617C216.496 152.932 216.778 159.6 217.872 166.232C218.824 172.088 218.789 178.086 219.988 183.907C220.835 187.999 221.823 192.056 221.294 196.289C221.223 196.889 221.47 197.418 221.858 197.912C234.841 197.595 247.788 198.406 260.7 199.711C261.44 197.383 261.017 194.949 261.405 192.55C261.793 189.904 262.464 187.399 263.839 185.106C266.097 181.402 268.461 177.733 269.061 173.217Z" fill="#8A8AD9"/>
<path d="M259.571 90.2777C258.971 81.4934 250.046 72.956 240.873 72.3563C236.04 72.0388 231.56 73.1677 227.362 75.5313C226.268 76.131 225.245 76.9072 223.94 76.9777C224.151 78.3889 223.234 79.3414 222.458 80.2586C219.53 83.7864 217.695 87.6318 217.166 92.2885C216.813 95.3577 217.307 98.2506 217.448 101.214C217.484 101.708 217.801 102.166 217.025 102.413C215.438 102.943 213.321 101.778 212.898 100.12C212.263 97.5803 212.545 95.0755 212.898 92.5002C213.533 87.9846 214.873 83.857 217.625 80.1528C218.507 78.9886 220.059 78.1419 220.024 76.3427C214.309 75.8488 209.44 78.5653 206.724 83.9276C203.76 89.7132 202.702 96.0633 201.961 102.413C201.15 109.222 200.938 116.066 201.115 122.91C201.15 123.686 200.691 124.85 201.467 125.133C202.49 125.485 203.055 124.321 203.584 123.58C207.535 118.253 211.204 112.75 214.838 107.211C215.755 105.8 216.672 104.389 217.801 102.66C220.623 106.717 222.74 111.021 226.656 113.914C228.42 111.551 229.267 108.693 230.607 106.118C234.135 99.2384 234.523 98.8503 242.037 100.261C245.742 100.967 248.423 99.9087 250.928 97.3333C253.538 94.7227 256.255 92.1474 259.571 90.2777Z" fill="#7A4821"/>
<path d="M283.666 146.688C278.798 145.806 273.929 144.959 269.061 144.042C264.192 143.125 259.289 142.208 254.42 141.185C253.538 141.008 252.692 141.008 251.81 140.973C252.057 141.114 252.268 141.326 252.55 141.432C260.382 144.289 268.143 147.394 276.011 150.145C285.289 153.391 294.779 155.684 304.374 157.695C304.974 157.836 305.609 157.836 305.962 157.272C307.126 155.296 309.066 153.955 310.477 152.156C312.171 150.004 314.358 148.24 316.334 146.3C318.274 136.775 320.92 127.391 321.767 117.619C322.613 108.094 323.354 98.5331 324.695 89.0432C325.012 86.7501 325.083 84.3512 324.342 82.0581C324.06 81.1409 323.636 80.4353 322.578 80.3647C322.507 80.9292 322.507 81.5289 322.366 82.0934C320.497 90.3838 318.733 98.7095 316.686 106.929C315.769 110.563 315.381 114.338 312.771 117.548C308.855 122.381 305.362 127.567 301.728 132.647C298.201 137.586 294.249 142.102 289.522 145.877C287.758 147.288 285.818 147.641 283.666 146.688Z" fill="#F7BB92"/>
<path d="M259.571 90.2778C256.255 92.1476 253.538 94.7229 250.928 97.4041C248.423 99.9794 245.707 101.002 242.038 100.332C234.488 98.921 234.1 99.3091 230.607 106.188C229.267 108.799 228.42 111.621 226.656 113.985C226.974 119.347 227.291 124.674 228.597 129.895C233.042 129.013 237.381 129.225 241.685 130.707C243.625 131.377 245.283 132.612 247.329 132.965C247.471 132.33 247.647 131.659 247.753 131.024C248.564 125.98 248.811 125.803 253.962 125.838C255.443 125.838 256.925 125.909 258.372 125.838C260.77 125.733 262.076 124.463 261.97 122.028C261.864 119.206 262.358 116.49 262.817 113.703C263.028 112.327 263.628 111.48 265.004 110.986C268.144 109.928 268.532 108.376 266.38 105.765C265.392 104.566 264.263 103.507 263.169 102.414C260.806 99.9794 259.324 97.2629 259.712 93.6998C259.818 92.6415 259.606 91.442 259.571 90.2778Z" fill="#F7BB92"/>
<path d="M260.665 199.782C247.753 198.477 234.806 197.63 221.823 197.983C221.047 204.227 219.989 210.436 218.295 216.504C217.766 218.409 217.307 220.349 217.272 222.325C225.351 222.078 233.43 222.501 241.508 222.854C247.012 223.101 252.48 223.736 257.948 224.159C258.76 218.303 259.5 212.447 260.382 206.591C260.735 204.298 260.523 202.04 260.665 199.782Z" fill="#F7BB92"/>
<path d="M321.344 79.8001C320.638 78.2126 320.497 76.484 320.462 74.8612C320.427 72.3211 319.262 70.3455 318.133 68.3347C317.957 68.0172 317.71 67.735 317.428 67.488C314.641 64.9832 308.361 66.5708 307.162 70.0986C305.821 74.0498 304.551 78.0715 303.246 82.0227C301.976 85.9033 301.623 89.9603 301.482 93.9468C301.27 100.473 299.577 106.682 298.483 113.032C297.072 121.182 295.379 129.296 293.827 137.41C294.673 137.41 295.097 136.81 295.555 136.21C300.882 129.013 306.209 121.852 311.536 114.655C311.889 114.197 312.277 113.773 312.418 113.173C314.888 102.837 317.428 92.5356 319.933 82.1991C320.144 81.2113 320.391 80.294 321.344 79.8001Z" fill="#F7BB92"/>
<path d="M192.577 344.846C190.002 345.516 187.356 345.658 184.746 345.763C176.949 346.116 172.892 352.713 176.349 359.663C180.689 368.412 185.134 377.126 189.614 385.804C191.907 390.285 196.529 391.237 200.55 388.274C201.926 387.286 202.103 385.769 202.208 384.358C202.632 379.313 202.985 374.268 202.314 369.188C202.032 366.789 202.279 364.355 202.314 361.921C200.586 358.958 198.751 356.1 197.234 352.995C195.858 350.208 194.588 347.316 192.577 344.846Z" fill="#F7BB92"/>
<path d="M221.223 408.63C219.247 408.841 217.484 407.959 215.684 407.36C210.463 405.56 205.277 403.726 200.091 401.927C197.728 404.714 195.117 407.324 193 410.288C190.178 414.168 191.907 420.166 196.14 422.494C198.61 423.87 201.361 424.505 203.972 425.457C211.451 428.139 218.965 430.749 226.48 433.289C229.655 434.383 232.618 433.43 234.382 430.996C236.005 428.703 236.04 425.81 233.994 423.235C231.807 420.483 229.231 418.014 226.973 415.297C225.068 413.039 222.634 411.276 221.223 408.63Z" fill="#F7BB92"/>
<path d="M192.577 344.847C194.553 347.316 195.823 350.209 197.234 353.031C198.751 356.136 200.586 358.993 202.314 361.957C204.325 360.052 207.218 359.734 209.37 358.076C209.97 356.206 210.534 354.301 211.169 352.431C214.309 343.047 219.036 334.475 223.975 325.973C225.245 323.785 226.903 321.775 227.503 319.199C225.739 319.587 224.293 320.61 222.705 321.386C211.134 327.243 201.044 334.969 192.577 344.847Z" fill="#696C65"/>
<path d="M263.416 327.736C263.945 324.702 265.039 321.809 266.309 319.022C270.225 310.238 269.272 302.195 263.063 294.786C256.078 286.46 249.234 277.994 242.214 269.703C239.356 266.317 236.428 263.036 231.489 262.224C227.291 261.519 223.587 259.155 220.094 256.65C218.718 255.662 218.436 253.616 216.496 253.299C217.66 256.686 218.401 260.213 220.059 263.424C223.199 265.117 226.162 267.481 229.866 267.445C234.347 267.41 235.969 270.938 238.192 273.619C242.32 278.593 246.87 283.18 251.033 288.119C254.173 291.823 257.348 295.456 260.206 299.372C263.945 304.452 263.416 310.132 261.687 315.812C260.029 321.315 257.383 326.396 255.09 331.652C254.526 332.922 253.891 334.192 254.032 335.638C255.619 335.003 255.902 333.345 257.172 332.463C258.301 331.652 259.041 331.052 260.77 330.1C262.287 329.077 262.287 329.077 263.416 327.736Z" fill="#4B4C47"/>
<path d="M321.343 79.8003C320.391 80.2942 320.144 81.2114 319.897 82.1639C317.392 92.5005 314.887 102.802 312.383 113.138C312.242 113.773 311.853 114.161 311.501 114.62C306.174 121.782 300.847 128.978 295.52 136.175C295.061 136.775 294.638 137.375 293.791 137.375C293.791 137.763 293.72 138.08 293.332 138.257C290.616 141.679 287.582 144.677 283.631 146.653C285.783 147.605 287.723 147.288 289.522 145.841C294.25 142.031 298.201 137.516 301.729 132.612C305.362 127.532 308.82 122.346 312.771 117.513C315.381 114.303 315.769 110.528 316.687 106.894C318.733 98.6389 320.497 90.3485 322.366 82.0581C322.508 81.4937 322.508 80.8939 322.578 80.3295C322.296 79.8356 321.802 79.9061 321.343 79.8003Z" fill="#DDA882"/>
<path d="M316.333 146.264C314.358 148.205 312.206 149.969 310.477 152.121C309.066 153.92 307.126 155.225 305.962 157.236C305.609 157.801 304.974 157.801 304.374 157.659C294.778 155.649 285.289 153.355 276.01 150.11C268.143 147.358 260.382 144.218 252.55 141.396C252.303 141.29 252.056 141.114 251.809 140.937C250.504 140.549 249.269 139.914 247.858 140.197C247.611 141.572 248.387 142.207 249.516 142.631C255.761 144.994 262.005 147.323 268.214 149.722C273.259 151.697 278.233 153.885 283.313 155.719C289.875 158.083 296.719 159.247 303.598 160.341C305.856 160.693 307.655 160.164 309.031 158.012C310.548 155.613 312.488 153.461 314.57 151.521C315.593 149.933 316.263 148.17 316.333 146.264Z" fill="#DDA882"/>
<path d="M227.503 319.234C226.903 321.775 225.28 323.821 223.975 326.008C219.036 334.51 214.273 343.083 211.169 352.467C210.534 354.336 209.969 356.206 209.37 358.111C210.181 358.288 211.38 357.97 211.169 359.487C213.25 356.241 213.921 352.431 215.402 348.939C219.283 339.802 223.904 331.053 228.879 322.48C229.902 320.716 230.96 318.952 231.524 316.941C230.113 317.576 228.667 318.141 227.503 319.234Z" fill="#4B4C47"/>
<path d="M219.954 76.3782C220.024 78.1774 218.437 78.9888 217.555 80.1882C214.803 83.8925 213.427 88.02 212.827 92.5356C212.475 95.0757 212.192 97.6157 212.827 100.156C213.251 101.779 215.367 102.978 216.955 102.449C217.731 102.202 217.414 101.743 217.378 101.249C217.272 98.286 216.743 95.3932 217.096 92.324C217.625 87.632 219.46 83.7866 222.388 80.2941C223.164 79.3415 224.081 78.4243 223.869 77.0132C222.67 76.3429 221.365 75.9548 219.954 76.3782Z" fill="#5C3718"/>
<path d="M247.329 133C245.283 132.647 243.59 131.412 241.685 130.742C237.381 129.26 233.041 129.049 228.596 129.931C228.702 131.871 228.843 133.811 228.949 135.752C235.652 134.411 241.826 135.575 247.365 139.667C247.964 137.41 247.717 135.187 247.329 133Z" fill="#DDA882"/>
<path d="M293.368 138.256C293.756 138.08 293.861 137.763 293.826 137.375C293.473 137.551 293.403 137.904 293.368 138.256Z" fill="#F7BB92"/>
<path d="M228.42 136.034C228.667 136.069 228.843 135.999 228.878 135.716C228.737 135.822 228.596 135.928 228.42 136.034Z" fill="#DFA881"/>
</svg>
