<svg width="497" height="497" viewBox="0 0 497 497" fill="none" xmlns="http://www.w3.org/2000/svg">
<path d="M242.429 398.564C239.127 394.181 244.355 381.992 248.344 372.815C249.445 370.213 249.72 363.913 252.333 361.858C256.735 358.434 260.725 360.626 261.963 358.845C277.92 337.616 282.872 331.864 291.263 324.194C301.305 314.88 322.077 336.931 317.812 339.534C298.004 352.134 273.655 368.159 268.015 372.678C268.015 372.678 263.751 381.17 257.836 393.634C257.148 395.003 263.201 401.03 262.1 404.18C261.275 407.467 244.217 400.756 242.429 398.564Z" fill="#ECAD83"/>
<path d="M291.21 338.506C284.44 347.718 279.603 352.324 270.346 367.767C275.182 367.903 297.152 371.56 300.468 374.27C304.613 368.58 330.176 340.402 326.169 332.409C312.351 305.315 252.935 289.601 252.935 289.601C252.521 283.911 191.723 294.342 205.403 310.599C219.082 326.991 291.21 338.506 291.21 338.506Z" fill="#333333"/>
<path d="M280.403 441C272.91 441 250.844 440.179 248.902 439.357C244.322 437.303 241.824 433.332 244.6 429.36C246.681 426.348 248.485 423.609 249.179 421.555C257.922 396.495 264.722 378.419 270.412 368.56C277.212 356.646 303.856 371.435 300.665 375.133C285.538 393.209 265.555 421.692 261.53 427.717C261.53 427.717 303.856 432.099 292.199 438.809C289.563 440.179 286.093 440.863 280.403 441Z" fill="#F6BB92"/>
<path d="M268.077 372.843C268.077 372.843 260.121 360.307 259.984 359.898C258.063 360.034 255.32 359.762 252.302 362.078C249.559 364.122 249.422 370.39 248.324 372.979C244.346 382.109 239.134 394.237 242.426 398.597C244.072 400.777 261.218 407.454 262.178 404.184C263.139 401.05 257.24 395.19 257.926 393.691C263.962 381.291 268.077 372.843 268.077 372.843Z" fill="#ECAD83"/>
<path d="M239.872 246.966C221.666 251.256 210.154 260.111 203.996 270.212C200.248 276.3 197.169 286.678 198.642 296.087C200.65 309.093 206.674 312.552 208.949 313.798C213.233 316.288 254.731 312.967 254.731 312.967C253.66 304.804 253.794 285.709 253.124 279.206C252.321 271.457 239.872 246.966 239.872 246.966Z" fill="#3D3C3C"/>
<path d="M293.594 130.96C293.594 130.96 298.056 131.64 300.009 136.268C305.866 150.15 301.264 164.849 301.264 164.849C301.264 164.849 296.243 202.142 291.502 210.308C288.992 214.391 285.226 216.024 283.693 216.16C282.019 216.296 278.672 215.071 274.07 211.805C262.914 204.047 211.595 168.116 206.993 154.914C203.925 145.931 215.221 139.262 224.007 140.487C229.864 141.304 234.744 147.973 237.394 153.145C239.067 156.275 243.251 162.672 251.339 170.021C259.009 177.235 271.56 186.762 280.903 193.295L295.685 164.713L292.199 139.671L293.594 130.96Z" fill="#ECAD83"/>
<path d="M263.955 186.318C264.504 169.355 250.498 160.667 241.298 142.601C240.2 140.394 229.764 134.188 224.272 134.05C218.23 133.912 212.051 134.878 207.382 139.843C203.812 143.704 196.672 155.702 202.577 187.421C204.362 202.177 211.227 253.893 203.126 270.304C203.126 270.304 221.937 268.511 232.922 271.269C243.907 274.027 253.382 279.82 253.382 279.82C257.226 228.38 255.441 215.554 257.913 198.592C257.913 198.729 263.817 191.007 263.955 186.318Z" fill="#FF8AA0"/>
<path d="M295.796 163.542C295.796 163.542 278.596 216.784 272.77 224.39C269.719 228.262 266.112 229.645 264.448 229.507C262.783 229.369 259.454 227.294 255.293 223.422C245.306 214.018 213.402 170.042 210.767 156.075C208.964 146.533 221.031 141.416 229.631 143.905C235.18 145.426 239.202 152.894 241.006 158.426C242.115 161.883 243.919 165.755 250.438 178.339C254.599 185.807 260.148 197.285 264.725 205.583C264.725 205.583 274.157 186.499 284.283 161.606L295.796 163.542Z" fill="#F6BB92"/>
<path d="M301.453 309.075C301.453 309.075 308.191 313.345 313.279 317.615C319.33 322.712 321.805 326.018 321.805 326.018C321.805 326.018 338.032 311.417 336.794 304.116C336.381 301.36 333.081 297.228 327.443 294.748C298.29 282.075 246.722 277.391 246.722 277.391C244.659 273.396 207.118 288.549 201.618 302.049C199.967 306.044 206.293 312.105 208.493 313.207C227.745 322.575 274.225 307.697 301.453 309.075Z" fill="#3D3C3C"/>
<path d="M326.14 332.642C322.675 325.907 316.436 319.979 308.811 314.725C308.257 314.86 260.291 320.922 237.278 326.58C261.954 333.99 290.928 338.705 290.928 338.705C284.135 347.865 279.283 352.446 269.995 367.803C274.847 367.938 296.889 371.575 300.216 374.27C304.653 368.612 330.299 340.456 326.14 332.642Z" fill="#333333"/>
<path d="M237.129 134.949C237.129 134.949 237.403 129.025 239.051 118.968L217.772 110.426C221.341 121.448 217.909 134.123 217.909 134.123C233.01 132.745 236.854 140.322 241.384 142.251L237.129 134.949Z" fill="#ECAD83"/>
<path d="M251.878 92.5022C257.182 85.3841 253.918 78.1263 251.47 74.0788C244.126 61.3777 235.967 60.1216 225.495 60.1216C211.624 60.1216 206.456 97.5268 207.68 103.808C210.808 120.137 232.839 126.558 241.814 126.837C251.742 127.116 249.294 123.627 248.886 119.579C248.886 119.44 249.43 118.881 249.43 118.881C249.43 117.486 249.294 115.532 250.246 113.717C250.246 113.717 249.838 112.461 249.838 111.763C249.838 111.344 249.838 111.065 250.382 110.786C251.878 110.228 253.238 109.809 253.782 109.251C255.686 107.157 249.43 95.8519 251.878 92.5022Z" fill="#F6BB92"/>
<path d="M245.491 114.67C245.491 114.67 246.402 115.381 250.696 115.559C251.217 115.203 252.128 114.492 251.347 112.892C250.826 111.469 248.614 114.136 245.491 114.67Z" fill="#D6876B"/>
<path d="M245.491 114.532C245.491 114.532 246.429 117.441 250.451 118.639C250.988 118.468 251.524 117.954 251.524 117.612C252.06 115.901 250.719 115.217 250.719 115.217C246.429 115.217 245.491 114.532 245.491 114.532Z" fill="#CC785E"/>
<path d="M224.719 58.0664C207.64 58.0664 184.915 82.4569 208.191 111.071C209.706 112.979 213.287 115.295 218.659 111.344C222.377 108.619 224.994 104.94 224.994 104.94C225.683 103.85 226.509 102.623 227.336 101.261C228.3 99.7618 227.198 91.45 228.851 91.1775C245.653 88.5886 252.678 79.8679 252.678 75.3714C250.612 64.7431 242.899 58.0664 224.719 58.0664Z" fill="#602F0F"/>
<path d="M222.716 100.174C225.01 107.245 227.94 107.63 232.145 107.245L229.851 96.3176L227.685 91.9468C223.481 92.2039 220.295 93.1037 222.716 100.174Z" fill="#F6BB92"/>
<path d="M198.294 83.6204C194.314 80.2365 196.235 72.1149 202.412 65.4824C208.589 58.8498 216.962 56.1427 220.943 59.5266C224.923 62.9106 222.59 69.0017 216.276 75.6343C210.099 82.4022 202.275 87.0044 198.294 83.6204Z" fill="#4C230C"/>
<path d="M230.798 93.2849C230.523 91.9094 230.523 90.6716 230.523 89.7088C230.523 88.1958 230.798 87.3706 230.798 87.3706L225.846 89.1586C225.846 89.8463 225.846 90.6716 225.846 91.3593C225.846 91.3593 226.396 91.2217 227.359 90.9467H227.222C227.909 92.047 228.735 93.6975 229.56 96.3108C229.56 96.1732 231.485 97.5486 230.798 93.2849Z" fill="#602F0F"/>
<path d="M195.449 83.5185C191.322 79.9424 193.386 71.0023 200.263 63.5751C207.14 56.1478 216.08 53.1219 220.206 56.698C224.332 60.2741 221.719 67.0136 214.979 74.4408C208.24 81.868 199.712 87.0946 195.449 83.5185Z" fill="#602F0F"/>
<path d="M198.34 68.2817C197.956 67.8702 199.107 65.6757 201.025 63.4811C202.943 61.2866 204.862 59.7778 205.373 60.1893C205.757 60.6008 204.734 62.2467 202.688 64.5784C200.769 66.6358 198.723 68.6931 198.34 68.2817Z" fill="#4C230C"/>
<path d="M283.378 162.412C283.094 164.981 295.45 163.224 295.45 163.224C295.45 163.224 295.734 160.519 297.722 156.058C300.42 149.974 300.562 140.645 298.432 135.372C296.586 130.91 291.473 127.124 286.219 126.854C280.964 126.584 282.242 148.081 280.396 154.435L283.378 162.412Z" fill="#F6BB92"/>
<path d="M295.288 163.81L280.335 192.892C277.514 190.815 274.269 188.599 271.166 186.106C268.627 192.2 263.972 205.079 263.972 205.079C268.063 207.987 271.448 210.341 273.423 211.726C278.219 215.05 281.464 216.296 283.156 216.158C284.849 216.019 288.658 214.496 291.056 210.203C295.852 202.171 300.648 166.164 300.93 164.087C298.955 164.087 295.288 163.81 295.288 163.81Z" fill="#ECAD83"/>
<path d="M282.362 148.622C282.362 148.622 283.09 141.356 280.385 140.484C278.096 139.612 277.264 139.758 280.385 155.597C280.489 155.452 282.049 155.452 282.362 148.622Z" fill="#F6BB92"/>
</svg>
