<svg width="497" height="497" viewBox="0 0 497 497" fill="none" xmlns="http://www.w3.org/2000/svg">
<path d="M238.316 425.864C234.416 420.686 240.591 406.285 245.305 395.444C246.605 392.369 246.93 384.926 250.018 382.499C255.218 378.453 259.931 381.042 261.394 378.939C280.246 353.858 286.097 347.062 296.011 338C307.875 326.997 332.415 353.049 327.377 356.123C303.974 371.01 275.208 389.942 268.545 395.282C268.545 395.282 263.507 405.314 256.518 420.039C255.706 421.657 262.857 428.777 261.557 432.499C260.581 436.382 240.429 428.453 238.316 425.864Z" fill="#ECAD83"/>
<path d="M295.948 354.909C287.949 365.792 282.235 371.234 271.298 389.48C277.011 389.64 302.968 393.961 306.886 397.162C311.783 390.44 341.984 357.15 337.25 347.707C320.925 315.697 250.728 297.131 250.728 297.131C250.239 290.409 178.41 302.733 194.571 321.939C210.733 341.305 295.948 354.909 295.948 354.909Z" fill="#333333"/>
<path d="M283.181 476C274.327 476 248.259 475.029 245.963 474.058C240.553 471.632 237.602 466.94 240.881 462.248C243.34 458.689 245.471 455.453 246.291 453.026C256.62 423.42 264.654 402.064 271.376 390.416C279.41 376.341 310.889 393.813 307.118 398.182C289.247 419.537 265.638 453.188 260.883 460.307C260.883 460.307 310.889 465.484 297.117 473.411C294.002 475.029 289.903 475.838 283.181 476Z" fill="#F6BB92"/>
<path d="M268.617 395.476C268.617 395.476 259.218 380.666 259.056 380.183C256.787 380.344 253.546 380.022 249.981 382.758C246.74 385.173 246.578 392.579 245.281 395.637C240.582 406.424 234.423 420.752 238.313 425.903C240.257 428.479 260.515 436.367 261.649 432.504C262.783 428.801 255.815 421.878 256.625 420.108C263.756 405.458 268.617 395.476 268.617 395.476Z" fill="#ECAD83"/>
<path d="M235.295 246.761C213.787 251.828 200.186 262.291 192.911 274.224C188.482 281.417 184.845 293.677 186.585 304.793C188.957 320.16 196.074 324.247 198.762 325.718C203.823 328.66 252.85 324.737 252.85 324.737C251.585 315.092 251.743 292.533 250.952 284.85C250.003 275.695 235.295 246.761 235.295 246.761Z" fill="#3D3C3C"/>
<path d="M298.764 109.706C298.764 109.706 304.037 110.51 306.343 115.977C313.263 132.378 307.826 149.744 307.826 149.744C307.826 149.744 301.895 193.803 296.293 203.451C293.328 208.275 288.879 210.204 287.067 210.365C285.09 210.526 281.136 209.079 275.699 205.219C262.518 196.054 201.888 153.604 196.451 138.006C192.827 127.394 206.172 119.515 216.551 120.962C223.471 121.927 229.238 129.806 232.368 135.916C234.345 139.614 239.288 147.172 248.844 155.855C257.905 164.377 272.733 175.633 283.772 183.351L301.236 149.584L297.117 119.997L298.764 109.706Z" fill="#ECAD83"/>
<path d="M263.748 175.108C264.397 155.068 247.85 144.803 236.981 123.459C235.683 120.852 223.354 113.52 216.865 113.357C209.727 113.194 202.427 114.335 196.911 120.2C192.693 124.762 184.257 138.937 191.233 176.411C193.342 193.845 201.453 254.944 191.882 274.333C191.882 274.333 214.107 272.215 227.085 275.473C240.063 278.732 251.256 285.575 251.256 285.575C255.799 224.802 253.69 209.649 256.61 189.609C256.61 189.772 263.586 180.648 263.748 175.108Z" fill="#FF8AA0"/>
<path d="M301.366 148.2C301.366 148.2 281.045 211.102 274.162 220.088C270.557 224.663 266.296 226.297 264.33 226.133C262.363 225.97 258.43 223.519 253.514 218.945C241.715 207.835 204.023 155.879 200.909 139.378C198.779 128.104 213.036 122.059 223.196 125C229.752 126.797 234.504 135.62 236.634 142.155C237.945 146.24 240.076 150.814 247.778 165.682C252.694 174.505 259.25 188.065 264.658 197.868C264.658 197.868 275.801 175.322 287.764 145.913L301.366 148.2Z" fill="#F6BB92"/>
<path d="M308.049 320.138C308.049 320.138 316.01 325.183 322.021 330.228C329.17 336.25 332.094 340.156 332.094 340.156C332.094 340.156 351.265 322.904 349.803 314.279C349.315 311.024 345.416 306.141 338.755 303.212C304.313 288.239 243.388 282.706 243.388 282.706C240.951 277.986 196.598 295.888 190.1 311.838C188.15 316.557 195.624 323.718 198.223 325.02C220.968 336.087 275.881 318.51 308.049 320.138Z" fill="#3D3C3C"/>
<path d="M337.216 347.982C333.122 340.024 325.751 333.021 316.743 326.813C316.088 326.973 259.419 334.135 232.23 340.819C261.384 349.573 295.615 355.144 295.615 355.144C287.59 365.967 281.857 371.378 270.884 389.522C276.616 389.681 302.658 393.979 306.589 397.162C311.83 390.477 342.13 357.213 337.216 347.982Z" fill="#333333"/>
<path d="M232.054 114.419C232.054 114.419 232.379 107.42 234.325 95.538L209.186 85.4463C213.402 98.4679 209.348 113.443 209.348 113.443C227.189 111.815 231.73 120.767 237.082 123.046L232.054 114.419Z" fill="#ECAD83"/>
<path d="M249.479 64.2704C255.746 55.8607 251.89 47.2862 248.997 42.5042C240.321 27.4987 230.681 26.0146 218.31 26.0146C201.921 26.0146 195.816 70.2067 197.262 77.627C200.957 96.9197 226.986 104.505 237.59 104.835C249.319 105.165 246.427 101.042 245.945 96.2602C245.945 96.0953 246.587 95.4357 246.587 95.4357C246.587 93.7867 246.427 91.4782 247.551 89.3345C247.551 89.3345 247.069 87.8505 247.069 87.026C247.069 86.5313 247.069 86.2015 247.712 85.8717C249.479 85.2122 251.086 84.7175 251.729 84.0579C253.978 81.5844 246.587 68.2279 249.479 64.2704Z" fill="#F6BB92"/>
<path d="M241.934 90.4605C241.934 90.4605 243.01 91.3007 248.083 91.5108C248.698 91.0906 249.775 90.2504 248.852 88.3598C248.237 86.6793 245.624 89.8303 241.934 90.4605Z" fill="#D6876B"/>
<path d="M241.934 90.2979C241.934 90.2979 243.042 93.7344 247.794 95.1495C248.428 94.9473 249.061 94.3408 249.061 93.9365C249.695 91.915 248.111 91.1064 248.111 91.1064C243.042 91.1064 241.934 90.2979 241.934 90.2979Z" fill="#CC785E"/>
<path d="M217.393 23.5869C197.216 23.5869 170.367 52.4028 197.867 86.2091C199.657 88.4629 203.887 91.1996 210.233 86.5311C214.627 83.3114 217.718 78.9649 217.718 78.9649C218.532 77.677 219.508 76.2282 220.484 74.6184C221.623 72.8476 220.322 63.0276 222.274 62.7057C242.126 59.647 250.424 49.3441 250.424 44.0317C247.984 31.4751 238.871 23.5869 217.393 23.5869Z" fill="#602F0F"/>
<path d="M215.027 73.3344C217.736 81.6876 221.199 82.1432 226.166 81.6876L223.457 68.7781L220.898 63.6143C215.93 63.918 212.167 64.9811 215.027 73.3344Z" fill="#F6BB92"/>
<path d="M186.174 53.7774C181.471 49.7795 183.742 40.1844 191.039 32.3484C198.337 24.5125 208.229 21.3141 212.932 25.3121C217.635 29.31 214.878 36.5063 207.418 44.3423C200.12 52.3382 190.877 57.7754 186.174 53.7774Z" fill="#4C230C"/>
<path d="M224.574 65.1953C224.249 63.5704 224.249 62.1079 224.249 60.9704C224.249 59.183 224.574 58.208 224.574 58.208L218.725 60.3204C218.725 61.1329 218.725 62.1079 218.725 62.9204C218.725 62.9204 219.375 62.7579 220.512 62.4329H220.35C221.162 63.7329 222.137 65.6828 223.112 68.7703C223.112 68.6078 225.387 70.2327 224.574 65.1953Z" fill="#602F0F"/>
<path d="M182.812 53.6569C177.937 49.432 180.374 38.8697 188.499 30.0949C196.624 21.3201 207.186 17.7452 212.061 21.9701C216.936 26.195 213.849 34.1573 205.886 42.9321C197.924 51.707 187.849 57.8818 182.812 53.6569Z" fill="#602F0F"/>
<path d="M186.227 35.6553C185.774 35.1692 187.134 32.5764 189.4 29.9837C191.666 27.391 193.933 25.6085 194.537 26.0947C194.99 26.5808 193.782 28.5253 191.364 31.2801C189.098 33.7108 186.681 36.1414 186.227 35.6553Z" fill="#4C230C"/>
<path d="M286.695 146.865C286.36 149.9 300.957 147.824 300.957 147.824C300.957 147.824 301.293 144.629 303.642 139.358C306.83 132.17 306.997 121.148 304.481 114.919C302.299 109.648 296.259 105.175 290.051 104.856C283.843 104.536 285.353 129.934 283.172 137.441L286.695 146.865Z" fill="#F6BB92"/>
<path d="M300.766 148.517L283.1 182.875C279.767 180.421 275.934 177.803 272.267 174.858C269.267 182.057 263.768 197.273 263.768 197.273C268.601 200.709 272.6 203.491 274.934 205.127C280.6 209.054 284.433 210.526 286.433 210.362C288.433 210.199 292.933 208.399 295.766 203.327C301.432 193.837 307.099 151.298 307.432 148.844C305.099 148.844 300.766 148.517 300.766 148.517Z" fill="#ECAD83"/>
<path d="M285.494 130.573C285.494 130.573 286.355 121.989 283.159 120.959C280.455 119.929 279.471 120.1 283.159 138.814C283.282 138.642 285.126 138.642 285.494 130.573Z" fill="#F6BB92"/>
</svg>
