<svg width="500" height="500" viewBox="0 0 500 500" fill="none" xmlns="http://www.w3.org/2000/svg">
<path d="M281.506 276.404C280.542 278.769 279.357 281.017 278.013 283.192C276.601 285.485 274.889 287.516 272.987 289.403C271.852 290.53 270.588 291.494 269.073 291.999C266.134 292.983 263.325 294.281 260.432 295.374C252.198 298.476 243.865 301.293 235.506 304.03C217.173 310.032 198.814 315.958 180.482 321.956C178.811 322.503 177.175 322.613 175.471 322.37C175.554 321.664 175.251 321.072 174.916 320.487C174.465 319.697 174.009 318.911 173.569 318.118C171.078 313.612 168.588 309.106 166.109 304.592C165.76 303.958 165.498 303.278 165.194 302.618C166.644 301.05 168.337 299.77 170.065 298.533C175.649 294.535 181.571 291.092 187.63 287.876C197.767 282.493 208.267 277.915 218.904 273.636C219.071 273.568 219.258 273.53 219.413 273.447C219.778 273.249 220.48 273.226 220.446 272.858C220.389 272.251 219.686 272.479 219.261 272.414C214.053 271.59 208.84 270.785 203.632 269.977C198.78 269.225 193.928 268.473 189.077 267.718C188.659 267.653 188.238 267.578 187.832 267.46C184.324 266.458 180.702 266.044 177.111 265.528C174.951 265.216 172.745 265.311 170.585 265.687C166.527 266.389 162.476 267.156 158.418 267.877C155.912 268.322 153.399 268.728 150.89 269.161C148.13 269.639 145.328 269.571 142.557 269.863C138.627 270.277 134.679 270.167 130.739 270.273C123.643 270.463 116.548 270.531 109.449 270.592C104.772 270.634 100.118 270.288 95.4557 269.996C93.2766 269.859 91.0975 269.722 88.926 269.495C86.9367 269.286 84.9626 268.959 82.981 268.686C83.6719 268.306 84.0515 267.817 83.9262 266.94C83.4631 263.652 83.6719 260.323 83.391 257.02C83.1746 254.503 83.315 251.956 83.2847 249.424C83.2771 248.702 83.2315 247.981 83.2049 247.256C83.3568 247.206 83.5086 247.153 83.6605 247.104C83.8124 247.21 83.9111 247.146 83.9832 247.001C89.989 244.887 96.1352 243.239 102.251 241.485C108.378 239.728 114.631 238.555 120.902 237.45C124.425 236.831 127.952 236.243 131.517 235.901C134.899 235.575 138.286 235.332 141.687 235.347C146.296 235.37 150.909 235.085 155.517 235.271C157.396 235.347 159.272 235.468 161.151 235.533C163.395 235.609 165.638 235.658 167.882 235.704C168.675 235.719 169.438 235.453 170.217 235.373C174.207 234.956 178.083 233.935 182.027 233.282C185.675 232.678 189.335 232.143 192.998 231.642C196.601 231.152 200.219 230.742 203.829 230.301C207.079 229.903 210.332 229.535 213.578 229.109C216.342 228.749 219.098 228.316 221.862 227.952C222.583 227.857 222.936 227.435 223.107 226.816C223.202 226.471 223.187 226.095 223.217 225.734C223.354 224.205 223.809 222.789 224.515 221.414C226.171 218.195 228.38 215.382 230.935 212.861C233.327 210.504 236.117 208.685 239.249 207.41C242.905 205.918 246.675 204.756 250.471 203.712C254.165 202.695 257.957 202.186 261.814 202.512C262.779 202.596 263.743 202.725 264.699 202.869C271.438 203.902 277.698 206.252 283.533 209.763C285.405 210.891 287.231 212.079 289.019 213.339C290.503 214.387 292.071 215.317 293.601 216.301C293.403 219.448 293.411 222.602 293.259 225.757C293.039 230.419 293.028 235.092 292.872 239.762C292.705 244.857 292.769 249.959 292.697 255.057C292.671 256.876 292.553 258.69 292.462 260.505C292.435 261.063 292.124 261.276 291.615 261.055C290.336 260.501 289.064 259.924 287.796 259.34C284.323 257.745 280.86 256.124 277.379 254.549C275.997 253.922 274.585 253.372 273.177 252.814C272.383 252.499 271.556 252.362 270.69 252.339C264.559 252.199 258.439 252.286 252.354 253.148C250.198 253.451 249.799 253.797 249.465 255.927C248.975 259.055 248.971 262.213 248.99 265.368C249.002 267.183 249.867 268.101 251.633 268.546C252.475 268.758 253.318 268.72 254.165 268.747C257.437 268.857 260.691 269.297 263.974 269.145C265.125 269.092 266.283 269.145 267.433 269.107C268.245 269.081 268.993 269.252 269.714 269.612C272.698 271.108 275.716 272.536 278.526 274.354C279.539 275.007 280.686 275.466 281.502 276.404H281.506ZM237.784 268.025C237.848 267.357 237.51 266.788 237.172 266.203C236.318 264.738 235.464 263.273 234.652 261.788C232.932 258.641 231.709 255.27 230.54 251.903C228.399 245.73 226.231 239.561 224.755 233.183C224.466 231.938 224.102 230.727 223.619 229.55C223.452 229.144 223.194 228.806 222.705 228.772C222.249 228.741 221.653 229.185 221.497 229.717C221.414 230.002 221.418 230.313 221.391 230.613C221.304 231.592 221.588 232.53 221.718 233.483C222.09 236.311 222.784 239.063 223.631 241.77C224.952 245.984 226.398 250.16 227.818 254.344C229.162 258.311 230.745 262.172 232.962 265.748C233.122 266.002 233.232 266.291 233.334 266.575C233.433 266.845 233.205 267.251 232.92 267.262C231.831 267.316 230.764 267.54 229.686 267.646C227.382 267.881 225.195 268.576 222.982 269.164C222.336 269.335 221.706 269.609 221.216 270.068C220.86 270.398 220.594 270.854 220.749 271.374C220.916 271.932 221.323 272.308 221.911 272.399C222.454 272.482 222.989 272.441 223.525 272.266C226.755 271.23 230.062 270.577 233.433 270.197C234.329 270.094 235.217 269.931 236.121 269.836C237.271 269.711 237.791 269.085 237.791 268.025H237.784Z" fill="#696D65"/>
<path d="M281.506 276.404C280.69 275.466 279.54 275.006 278.53 274.354C275.721 272.535 272.703 271.108 269.719 269.612C268.998 269.251 268.25 269.08 267.437 269.107C266.283 269.145 265.129 269.088 263.979 269.145C260.695 269.301 257.438 268.856 254.169 268.746C253.323 268.716 252.48 268.758 251.637 268.545C249.872 268.101 249.006 267.178 248.995 265.368C248.976 262.213 248.98 259.058 249.469 255.926C249.803 253.796 250.198 253.455 252.358 253.147C258.448 252.285 264.563 252.198 270.694 252.339C271.56 252.358 272.388 252.498 273.181 252.813C274.59 253.371 276.006 253.922 277.384 254.548C280.865 256.124 284.327 257.745 287.801 259.339C289.069 259.92 290.337 260.501 291.62 261.055C292.129 261.275 292.44 261.059 292.466 260.505C292.558 258.69 292.675 256.871 292.702 255.057C292.774 249.958 292.709 244.856 292.876 239.761C293.032 235.092 293.043 230.419 293.264 225.757C293.415 222.606 293.408 219.451 293.605 216.3C296.536 215.757 299.539 216.224 302.47 215.681C302.587 215.659 302.713 215.651 302.83 215.655C305.746 215.753 308.631 215.256 311.539 215.23C312.629 215.222 313.711 215.203 314.796 214.975C315.434 214.842 316.125 214.949 316.789 214.945C316.596 216.323 316.345 217.712 316.581 219.094C316.778 220.241 316.767 221.387 316.816 222.534C316.956 225.859 317.105 229.189 317.253 232.514C317.256 232.636 317.256 232.757 317.275 232.879C317.761 235.817 317.59 238.793 317.856 241.751C318.168 245.183 318.194 248.645 318.342 252.092C318.346 252.213 318.342 252.339 318.361 252.456C318.885 255.33 318.631 258.253 318.931 261.15C319.166 263.428 319.215 265.74 319.462 268.025C315.548 268.173 311.626 267.987 307.511 268.143C307.982 268.856 308.593 268.986 309.109 269.228C312.944 271.047 316.789 272.85 320.631 274.661C320.962 274.817 321.284 274.984 321.607 275.151C322.34 275.53 322.974 275.424 323.615 274.885C326.03 272.858 328.463 270.857 330.897 268.856C331.14 268.659 331.348 268.462 331.455 268.166C331.766 267.987 332.111 267.847 332.389 267.623C333.945 266.37 335.483 265.09 337.035 263.83C340.091 261.351 343.132 258.853 346.226 256.423C347.001 255.816 347.441 255.102 347.627 254.184C347.71 253.77 347.779 253.348 347.813 252.931C347.847 252.502 347.881 252.054 348.139 251.716C348.944 250.657 349.533 249.45 350.436 248.455C352.649 246.022 355.375 244.389 358.412 243.205C360.572 242.362 362.827 241.88 365.101 241.565C367.649 241.212 370.196 241.337 372.561 242.537C373.749 243.14 374.926 243.77 376.088 244.423C377.557 245.247 378.673 246.451 379.429 247.931C380.321 249.681 380.894 251.519 380.416 253.534C380.29 254.062 380.283 254.616 380.188 255.152C379.74 257.68 379.038 260.11 377.485 262.213C377.234 262.551 376.942 262.877 376.954 263.34L376.969 263.318C376.718 263.409 376.619 263.614 376.574 263.857C374.824 265.626 373.074 267.395 371.324 269.164C370.682 269.809 369.968 270.367 369.232 270.91C365.47 273.674 361.628 276.343 358.017 279.293C353.318 283.134 348.394 286.661 343.5 290.237C341.249 291.881 339.07 293.624 336.796 295.237C334.177 297.097 331.489 298.863 328.828 300.666C327.844 301.33 326.724 301.288 325.658 301.099C324.052 300.814 322.476 300.4 320.984 299.664C318.695 298.532 316.527 297.196 314.341 295.89C307.473 291.782 300.647 287.603 293.757 283.533C289.892 281.251 286.02 278.993 282.197 276.643C281.996 276.521 281.746 276.487 281.514 276.411L281.506 276.404Z" fill="#FFB78A"/>
<path d="M319.462 268.022C319.219 265.732 319.166 263.424 318.931 261.147C318.631 258.25 318.889 255.327 318.361 252.453C318.338 252.335 318.35 252.21 318.342 252.088C318.194 248.641 318.168 245.179 317.856 241.747C317.587 238.79 317.761 235.814 317.275 232.875C317.257 232.758 317.257 232.632 317.253 232.511C317.105 229.185 316.957 225.856 316.816 222.53C316.767 221.38 316.778 220.237 316.581 219.091C316.345 217.709 316.596 216.32 316.79 214.941C319.204 214.782 321.622 214.676 324.033 214.456C330.988 213.822 337.954 214.148 344.917 214.152C348.8 214.152 352.422 215.306 355.96 216.802C359.961 218.491 363.518 220.928 366.836 223.662C369.114 225.537 371.331 227.53 373.252 229.815C374.926 231.809 376.707 233.707 378.427 235.662C378.685 235.958 378.992 236.102 379.364 236.155C379.71 236.721 380.029 237.302 380.397 237.852C381.281 239.162 381.946 240.567 382.466 242.062C382.929 243.387 383.066 244.758 383.335 246.117C383.677 247.84 383.893 249.556 383.893 251.318C383.893 252.65 383.734 253.956 383.563 255.27C382.227 257.999 380.591 260.513 378.298 262.547C377.907 262.897 377.588 263.398 376.95 263.345C376.939 262.881 377.231 262.555 377.481 262.217C379.034 260.11 379.736 257.68 380.184 255.156C380.279 254.621 380.287 254.066 380.412 253.539C380.894 251.523 380.317 249.685 379.425 247.935C378.67 246.455 377.554 245.248 376.084 244.427C374.923 243.778 373.746 243.144 372.558 242.541C370.189 241.341 367.645 241.216 365.098 241.569C362.824 241.884 360.569 242.366 358.409 243.209C355.375 244.39 352.646 246.022 350.433 248.459C349.529 249.454 348.941 250.661 348.136 251.72C347.878 252.058 347.847 252.506 347.809 252.935C347.775 253.356 347.703 253.774 347.623 254.188C347.441 255.107 346.997 255.82 346.222 256.428C343.128 258.857 340.088 261.355 337.032 263.834C335.479 265.095 333.941 266.374 332.385 267.627C332.108 267.851 331.766 267.991 331.451 268.17C328.254 268.147 325.058 268.117 321.861 268.109C321.512 268.109 321.152 268.219 320.814 268.333C320.286 268.508 319.876 268.284 319.458 268.029L319.462 268.022Z" fill="#8A89DE"/>
<path d="M444.661 263.671C445.116 265.303 444.866 266.932 444.513 268.526C443.571 272.763 440.997 275.777 437.262 277.842C434.805 279.201 432.155 280.071 429.456 280.792C425.288 281.904 421.044 282.561 416.758 283.036C409.807 283.806 402.833 283.841 395.855 283.738C395.434 283.731 395.005 283.734 394.587 283.674C394.295 283.628 394.245 283.366 394.321 283.112C394.485 282.565 394.868 282.174 395.297 281.829C395.912 281.335 396.531 280.845 397.169 280.386C402.924 276.237 408.812 272.273 414.765 268.412C415.307 268.063 415.93 267.794 416.359 267.137C415.782 266.89 415.296 266.681 414.806 266.476C411.333 265.022 408.037 263.211 404.788 261.321C403.053 260.311 401.42 259.164 400.164 257.555C399.91 257.232 399.511 257.023 399.177 256.761C399.04 255.588 399.803 254.844 400.487 254.081C401.819 252.589 403.186 251.128 404.533 249.651C405.312 248.801 406.101 247.962 406.845 247.081C408.611 244.989 409.818 242.673 409.803 239.837C409.799 238.812 409.917 237.776 410.084 236.762C410.513 234.181 411.686 232.12 414.146 230.886C417.346 229.287 420.501 227.598 423.663 225.928C425.17 225.13 426.734 224.485 428.367 224.003C428.891 223.847 429.415 223.711 429.794 223.282C430.098 223.289 430.413 223.24 430.702 223.308C436.886 224.804 442.094 227.818 445.613 233.258C449.357 239.04 449.854 245.27 447.808 251.765C447.223 253.626 446.392 255.38 445.405 257.058C444.847 257.999 444.334 258.963 444.027 260.019C443.506 260.25 443.169 260.668 442.872 261.139C442.683 261.442 442.455 261.746 442.178 261.966C440.481 263.333 438.738 264.627 436.715 265.504C433.245 267.004 429.707 268.143 425.865 268.067C423.804 268.025 421.738 268.052 419.677 268.071C419.07 268.078 418.785 268.447 418.903 269.02C418.975 269.373 419.123 269.711 419.21 270.064C419.343 270.595 419.669 270.869 420.216 270.963C421.587 271.203 422.953 271.396 424.358 271.351C425.869 271.305 427.361 271.206 428.868 271.024C430.925 270.777 432.919 270.28 434.855 269.65C438.169 268.568 441.134 266.814 443.582 264.274C443.882 263.963 444.197 263.686 444.664 263.671H444.661Z" fill="#894100"/>
<path d="M165.198 302.617C165.502 303.274 165.768 303.953 166.113 304.591C168.588 309.105 171.083 313.611 173.573 318.118C174.013 318.911 174.469 319.697 174.921 320.486C175.255 321.071 175.558 321.663 175.475 322.369C173.873 323.96 171.967 325.156 170.042 326.272C165.342 329.005 160.29 330.828 154.922 331.727C153.673 331.936 152.389 332.149 151.137 332.077C148.612 331.932 146.05 331.894 143.692 330.744C141.224 329.544 139.471 327.81 138.882 324.997C138.578 323.546 138.905 322.214 139.292 320.9C139.915 318.778 141.141 316.967 142.61 315.327C145.34 312.279 148.529 309.826 152.074 307.761C155.935 305.514 160.096 304.083 164.298 302.712C164.579 302.621 164.898 302.644 165.198 302.617Z" fill="#FFB78B"/>
<path d="M83.2166 247.246C83.2432 247.967 83.2888 248.689 83.2964 249.414C83.3267 251.946 83.1863 254.493 83.4027 257.01C83.6874 260.317 83.4748 263.642 83.9379 266.93C84.0632 267.807 83.6836 268.297 82.9926 268.676C82.2258 268.855 81.4399 268.969 80.7035 269.231C78.9799 269.834 77.1919 270.218 75.4038 270.438C72.1693 270.84 68.9349 271.171 65.6397 270.707C63.1683 270.362 60.7386 269.975 58.3925 269.132C56.2514 268.361 54.3456 267.211 52.8309 265.476C50.9441 263.316 50.4734 260.917 51.6123 258.236C52.474 256.209 53.9812 254.74 55.6971 253.464C58.9164 251.073 62.5836 249.691 66.4445 248.768C69.5726 248.017 72.7312 247.58 75.9657 247.588C78.3801 247.595 80.7984 247.368 83.2166 247.246Z" fill="#FFB78B"/>
<path d="M429.798 223.28C429.415 223.709 428.895 223.846 428.371 224.001C426.739 224.483 425.174 225.133 423.667 225.926C420.505 227.596 417.346 229.282 414.15 230.884C411.69 232.114 410.517 234.179 410.088 236.761C409.917 237.774 409.799 238.811 409.807 239.836C409.822 242.675 408.615 244.991 406.85 247.079C406.105 247.96 405.316 248.799 404.538 249.649C403.19 251.126 401.823 252.591 400.491 254.08C399.807 254.843 399.044 255.587 399.181 256.76C397.309 256.969 395.499 256.456 393.661 256.27C392.537 256.156 391.433 255.868 390.324 255.636C390.104 255.59 389.903 255.442 389.69 255.344C389.698 254.979 389.629 254.592 389.728 254.258C390.237 252.534 389.986 250.773 390.081 249.03C390.161 247.557 389.827 246.153 389.516 244.741C388.992 242.368 388.096 240.128 387.04 237.949C386.752 237.353 386.372 236.787 386.403 236.081C388.358 235.709 390.343 235.542 392.268 234.957C393.164 234.684 393.79 234.267 394.139 233.424C394.462 232.642 394.827 231.871 395.066 231.062C395.707 228.91 397.063 227.391 398.972 226.26C401.425 224.806 404.048 224.138 406.884 223.933C409.48 223.743 412.096 223.792 414.67 223.512C416.898 223.269 419.135 223.242 421.359 223.022C423.941 222.767 426.564 222.957 429.168 222.98C429.381 222.98 429.59 223.177 429.798 223.284V223.28Z" fill="#FFB78A"/>
<path d="M386.399 236.082C386.368 236.788 386.748 237.354 387.036 237.95C388.092 240.129 388.992 242.373 389.512 244.742C389.823 246.154 390.157 247.559 390.077 249.032C389.982 250.774 390.237 252.539 389.724 254.259C389.625 254.597 389.694 254.98 389.686 255.345C387.644 255.318 385.598 255.288 383.555 255.258C383.726 253.944 383.889 252.638 383.885 251.306C383.885 249.544 383.669 247.828 383.327 246.105C383.058 244.749 382.921 243.379 382.458 242.05C381.938 240.554 381.274 239.15 380.389 237.84C380.021 237.293 379.698 236.709 379.356 236.143C381.695 235.418 384.045 235.767 386.391 236.075L386.399 236.082Z" fill="#E8A47C"/>
<path d="M444.66 263.67C444.197 263.685 443.878 263.962 443.578 264.273C441.13 266.813 438.165 268.567 434.851 269.649C432.915 270.279 430.922 270.776 428.864 271.023C427.357 271.202 425.865 271.3 424.354 271.35C422.949 271.391 421.583 271.198 420.212 270.962C419.665 270.867 419.343 270.598 419.206 270.063C419.119 269.71 418.971 269.372 418.899 269.019C418.781 268.445 419.066 268.077 419.673 268.07C421.734 268.051 423.8 268.024 425.861 268.066C429.703 268.142 433.241 267.003 436.711 265.503C438.738 264.626 440.477 263.332 442.174 261.965C442.451 261.741 442.679 261.441 442.869 261.137C443.168 260.667 443.503 260.249 444.023 260.018C444.531 261.183 444.748 262.398 444.653 263.67H444.66Z" fill="#633407"/>
<path d="M83.9911 246.99C83.919 247.138 83.8203 247.199 83.6685 247.093C83.7748 247.059 83.8811 247.024 83.9911 246.99Z" fill="#FFB78B"/>
<path d="M376.566 263.852C376.611 263.609 376.71 263.407 376.961 263.312C376.942 263.574 376.748 263.707 376.566 263.852Z" fill="#8A89DE"/>
<path d="M237.784 268.025C237.784 269.088 237.264 269.711 236.114 269.836C235.21 269.935 234.322 270.098 233.426 270.196C230.055 270.576 226.744 271.229 223.517 272.265C222.982 272.436 222.443 272.482 221.904 272.398C221.315 272.307 220.909 271.931 220.742 271.373C220.587 270.853 220.852 270.398 221.209 270.067C221.703 269.608 222.329 269.335 222.974 269.164C225.192 268.575 227.374 267.877 229.679 267.645C230.753 267.535 231.824 267.311 232.913 267.262C233.198 267.247 233.426 266.844 233.327 266.575C233.221 266.29 233.111 266.002 232.955 265.747C230.738 262.171 229.155 258.31 227.811 254.343C226.395 250.159 224.945 245.984 223.624 241.77C222.777 239.063 222.082 236.311 221.71 233.482C221.585 232.526 221.297 231.592 221.384 230.612C221.41 230.312 221.407 230.001 221.49 229.716C221.65 229.185 222.246 228.741 222.697 228.771C223.191 228.805 223.445 229.147 223.612 229.549C224.098 230.726 224.459 231.937 224.747 233.182C226.228 239.56 228.392 245.733 230.533 251.902C231.702 255.273 232.925 258.64 234.644 261.788C235.457 263.276 236.311 264.741 237.165 266.203C237.507 266.787 237.841 267.357 237.776 268.025H237.784Z" fill="#494A45"/>
</svg>
