<svg width="500" height="500" viewBox="0 0 500 500" fill="none" xmlns="http://www.w3.org/2000/svg">
<path d="M155.329 145.312C155.047 148.664 156.07 151.804 156.846 154.943C163.267 181.085 169.652 207.261 176.32 233.367C178.366 241.34 178.331 249.348 178.049 257.357C177.731 267.023 177.519 276.689 176.32 286.32C174.309 302.724 172.439 319.164 170.499 335.569C170.287 337.368 169.97 339.202 169.899 341.001C169.758 343.506 170.534 344.247 173.004 344.423C175.05 344.565 177.131 344.6 179.072 345.411C178.719 352.079 179.777 358.747 179.566 365.414C179.742 366.578 178.754 367.037 178.154 367.707C166.583 367.742 155.047 368.73 143.476 368.73C139.913 368.73 136.173 369.154 132.928 371.094C129.611 373.07 126.225 374.939 122.873 376.88C121.145 373.246 118.993 369.789 117.828 365.979C115.218 357.441 116.065 348.763 118.287 340.331C126.613 309.11 135.997 278.206 145.028 247.161C145.804 244.445 145.557 242.399 143.97 240.176C139.242 233.579 135.15 226.629 133.21 218.621C132.116 214.246 131.446 209.801 131.269 205.286C130.493 186.765 128.729 168.349 127.565 149.863C129.682 149.546 131.763 149.264 133.88 148.946C141.006 147.994 148.379 147.958 155.329 145.312Z" fill="#696D66"/>
<path d="M122.803 376.95C126.154 375.045 129.541 373.175 132.857 371.164C136.138 369.224 139.842 368.8 143.405 368.8C154.976 368.8 166.512 367.812 178.084 367.777C178.578 368.448 179.318 368.236 179.989 368.236C191.137 368.236 202.285 368.448 213.433 367.707C219.395 368.165 225.216 366.754 231.001 365.766C240.985 364.073 250.792 361.286 260.811 359.698C268.467 358.499 276.016 356.806 283.813 356.806C283.919 358.005 284.801 358.323 285.753 358.746C291.08 360.969 294.538 364.779 295.843 370.529C296.125 371.764 295.666 373.14 296.619 374.233C295.772 375.292 296.231 376.597 295.984 377.761C294.361 385.346 289.422 389.897 282.261 391.908C274.711 394.024 266.95 394.165 259.153 393.566C258.483 393.495 257.777 393.495 257.107 393.46C242.467 392.754 227.826 393.319 213.221 392.86C206.73 392.648 200.274 392.578 193.818 392.507C187.785 392.472 181.823 393.283 175.826 393.495C175.226 393.46 174.626 393.425 174.027 393.425C165.066 393.389 156.141 392.895 147.25 391.696C144.957 391.378 142.629 390.708 140.301 391.52C137.408 391.555 134.515 391.59 131.622 391.661C129.541 391.731 127.918 390.814 126.683 389.262C125.166 387.357 123.967 385.24 122.626 383.229C121.074 380.936 121.427 378.996 122.803 376.95Z" fill="#F7BB92"/>
<path d="M335.848 331.511C350.842 330.841 362.554 339.766 364.6 353.983C365.976 363.685 364.6 372.787 355.957 379.207C355.71 379.384 355.428 379.525 355.181 379.666C354.793 379.877 354.475 380.16 354.405 380.618H354.334C354.193 380.759 354.087 380.865 353.946 381.006L353.876 381.042C353.488 381.006 353.17 381.112 352.958 381.465C351.759 381.606 351.194 382.735 350.136 383.194C347.49 384.358 344.88 385.522 342.199 386.651C337.118 388.768 331.933 390.143 326.394 390.179C315.81 389.826 308.225 384.711 303.075 375.679C302.722 375.044 302.616 374.409 302.616 373.704C302.793 373.386 302.934 373.104 303.11 372.787C307.837 372.787 312.565 372.751 317.292 372.751C320.22 372.751 321.032 372.046 321.49 369.153C322.443 363.014 325.477 358.181 330.698 354.83C333.238 353.172 335.884 351.62 338.459 350.032C341.528 348.162 341.881 347.104 340.435 343.858C338.635 339.872 336.625 335.921 335.848 331.511Z" fill="#7A4821"/>
<path d="M155.329 145.312C148.415 147.993 141.042 147.993 133.845 149.016C131.728 149.298 129.647 149.616 127.53 149.933C124.884 144.501 121.745 139.244 122.768 132.788C123.473 128.308 125.802 124.745 129.4 122.24C139.031 115.467 148.803 108.834 158.822 102.625C162.738 100.191 167.042 99.9794 170.923 102.519C174.838 105.059 176.32 109.046 175.72 113.632C175.544 115.008 175.015 116.49 174.203 117.654C167.959 126.897 161.609 136.104 155.329 145.312Z" fill="#F7BB92"/>
<path d="M283.848 356.806C276.051 356.806 268.502 358.499 260.846 359.698C250.827 361.286 241.02 364.073 231.036 365.766C225.251 366.754 219.43 368.165 213.468 367.707C213.256 366.825 213.044 365.907 212.833 365.025C212.162 358.464 210.398 352.043 210.116 345.411C215.479 344.141 220.559 342.059 225.462 339.625C234.035 335.321 242.713 335.356 251.145 339.378C260.494 343.823 269.666 348.656 278.521 354.054C280.214 355.077 282.155 355.536 283.954 356.382C283.883 356.523 283.848 356.664 283.848 356.806Z" fill="#8A8AD9"/>
<path d="M335.848 331.511C336.66 335.921 338.635 339.872 340.434 343.894C341.881 347.14 341.528 348.198 338.459 350.068C335.884 351.655 333.238 353.208 330.698 354.866C325.476 358.217 322.443 363.05 321.49 369.189C321.031 372.082 320.185 372.787 317.292 372.787C312.565 372.787 307.837 372.822 303.11 372.822C302.546 372.011 302.299 371.164 302.122 370.141C301.593 366.825 300.358 363.862 297.924 361.322C295.984 359.311 293.232 358.252 291.645 355.854C292.421 355.113 293.373 355.465 294.255 355.43C297.077 355.254 298.841 353.031 298.242 350.35C297.465 346.787 298.347 344.882 301.487 343.153C303.498 342.024 305.65 341.354 307.873 340.719C311.577 339.696 312.776 337.791 312.282 334.016C311.788 330.171 313.447 328.654 317.116 329.677C319.691 330.383 322.16 331.3 324.7 332.146C327.24 332.993 329.745 333.17 332.285 332.146C333.414 331.758 334.578 331.511 335.848 331.511Z" fill="#F7BB92"/>
<path d="M210.082 345.411C210.364 352.043 212.163 358.464 212.798 365.026C208.812 365.273 204.86 365.202 200.874 365.414C193.748 365.767 186.621 365.52 179.495 365.52C179.707 358.852 178.649 352.185 179.001 345.517C182.635 344.988 186.233 345.764 189.867 345.87C196.641 346.046 203.343 345.094 210.082 345.411Z" fill="#F7BB92"/>
<path d="M354.37 380.654C354.441 380.195 354.758 379.913 355.146 379.701C359.768 381.183 364.46 382.594 369.046 384.217C372.115 385.31 375.149 386.58 378.077 387.992C380.159 388.979 381.852 390.496 383.052 392.542C384.533 394.977 383.934 396.705 381.147 397.552C378.218 398.434 375.184 398.893 372.151 398.928C360.967 399.14 349.819 399.598 338.636 399.034C334.614 398.822 332.321 396.458 330.91 391.131C333.556 391.696 336.096 392.049 338.918 391.696C345.515 390.849 350.313 387.251 354.652 382.7C355.323 382.03 355.852 381.112 354.37 380.654Z" fill="#7A4821"/>
<path d="M291.61 355.889C293.162 358.288 295.914 359.311 297.889 361.357C300.324 363.897 301.558 366.86 302.088 370.176C302.264 371.199 302.476 372.046 303.075 372.858C302.899 373.175 302.758 373.457 302.581 373.775C300.5 372.716 298.63 374.022 296.655 374.233C295.667 373.175 296.161 371.764 295.879 370.529C294.538 364.779 291.081 360.969 285.789 358.746C284.836 358.323 283.954 358.005 283.849 356.806C283.884 356.665 283.884 356.524 283.884 356.347C286.459 356.206 289.035 356.03 291.61 355.889Z" fill="#D8A681"/>
<path d="M354.369 380.654C355.851 381.113 355.322 382.065 354.687 382.7C350.348 387.251 345.514 390.85 338.953 391.696C336.13 392.049 333.59 391.696 330.944 391.132C329.533 390.321 327.664 391.696 326.394 390.215C331.932 390.179 337.118 388.804 342.198 386.687C344.879 385.593 347.49 384.429 350.136 383.23C351.194 382.771 351.759 381.642 352.958 381.501C353.346 381.501 353.664 381.466 353.875 381.078L353.946 381.042C354.087 380.901 354.193 380.795 354.334 380.654H354.369Z" fill="#5C3514"/>
<path d="M140.266 391.52C142.594 390.708 144.958 391.379 147.215 391.696C156.106 392.896 165.031 393.425 173.992 393.425C174.591 393.425 175.191 393.46 175.791 393.495C172.969 394.448 169.97 394.413 167.077 394.624C158.011 395.224 148.944 394.907 140.266 391.52Z" fill="#74746B"/>
<path d="M179.495 365.484C186.621 365.484 193.783 365.731 200.874 365.378C204.86 365.167 208.847 365.272 212.798 364.99C213.01 365.872 213.221 366.789 213.433 367.671C202.285 368.377 191.137 368.165 179.989 368.201C179.319 368.201 178.613 368.412 178.084 367.742C178.684 367.107 179.672 366.648 179.495 365.484Z" fill="#D8A681"/>
<path d="M353.84 381.077C353.664 381.465 353.311 381.501 352.923 381.501C353.135 381.148 353.452 381.077 353.84 381.077Z" fill="#7C4923"/>
<path d="M354.299 380.654C354.158 380.795 354.052 380.901 353.911 381.042C354.017 380.901 354.158 380.795 354.299 380.654Z" fill="#7C4923"/>
</svg>
