<svg width="497" height="497" viewBox="0 0 497 497" fill="none" xmlns="http://www.w3.org/2000/svg">
<path d="M51.2706 68.2337C45.3895 70.5738 49.7229 95.8463 48.4848 100.526C47.8657 102.866 42.6037 107.234 43.068 112.695C43.6871 119.871 53.5921 122.679 53.7468 125.175C54.3659 138.123 71.2353 173.848 77.7354 188.2C79.283 191.476 80.6759 194.908 82.6878 198.184C85.1641 202.396 113.95 189.136 111.938 185.704C100.331 166.516 69.9971 123.459 67.3661 115.659C67.3661 115.659 63.497 91.0102 62.1041 85.3941C61.3303 81.962 57.3064 65.8937 51.2706 68.2337Z" fill="#F6BB92"/>
<path d="M305.4 313.02C324.426 312.398 334.171 328.241 354.435 338.648C356.91 339.89 363.871 351.695 364.025 357.908C364.18 364.742 363.097 371.731 357.529 377.012C353.197 381.051 339.74 389.128 304.163 382.449C287.612 380.43 212.436 381.051 196.039 381.827C196.039 381.827 209.342 360.548 206.248 348.123C203.155 335.697 202.536 324.979 205.32 325.135C253.427 329.328 273.69 322.494 291.633 319.854C291.479 319.854 299.986 313.175 305.4 313.02Z" fill="#FF8AA0"/>
<path d="M362.299 342.868C362.299 342.868 369 342.554 380.377 340.671L390.039 365.002C377.572 360.921 363.234 364.845 363.234 364.845C364.792 347.578 356.221 343.182 354.039 338.002L362.299 342.868Z" fill="#ECAD83"/>
<path d="M411.131 326.264C419.025 320.2 427.073 323.932 431.562 326.731C445.646 335.128 447.039 344.458 447.039 356.432C447.039 372.294 405.559 378.203 398.594 376.803C380.486 373.227 373.366 348.035 373.056 337.772C372.747 326.42 376.616 329.219 381.105 329.685C381.26 329.685 381.879 329.063 381.879 329.063C383.426 329.063 385.593 329.219 387.605 328.13C387.605 328.13 388.998 328.597 389.772 328.597C390.237 328.597 390.546 328.597 390.856 327.975C391.475 326.264 391.939 324.709 392.558 324.087C394.88 322.066 407.417 329.063 411.131 326.264Z" fill="#F6BB92"/>
<path d="M385.905 335.002C385.905 335.002 385.212 333.819 385.039 328.241C385.385 327.565 386.078 326.382 387.637 327.396C389.022 328.072 386.425 330.946 385.905 335.002Z" fill="#D6876B"/>
<path d="M385.039 335.002C385.039 335.002 382.914 333.783 382.039 328.559C382.164 327.863 382.539 327.166 382.789 327.166C384.039 326.47 384.539 328.211 384.539 328.211C384.539 333.783 385.039 335.002 385.039 335.002Z" fill="#CC785E"/>
<path d="M450.039 357.346C450.039 376.493 422.322 401.969 389.804 375.875C387.636 374.176 385.004 370.162 389.494 364.14C392.591 359.971 396.772 357.037 396.772 357.037C398.011 356.265 399.404 355.339 400.953 354.413C402.656 353.332 412.102 354.567 412.412 352.714C415.354 333.877 425.264 326.002 430.374 326.002C442.452 328.164 450.039 336.81 450.039 357.346Z" fill="#602F0F"/>
<path d="M401.888 360.86C393.165 357.732 392.689 353.736 393.165 348.002L406.646 351.129L412.039 354.083C411.722 359.817 410.612 364.161 401.888 360.86Z" fill="#F6BB92"/>
<path d="M420.281 387.584C424.222 392.208 433.679 389.976 441.403 382.802C449.127 375.628 452.279 365.904 448.339 361.281C444.398 356.658 437.305 359.368 429.581 366.701C421.858 373.875 416.498 382.961 420.281 387.584Z" fill="#4C230C"/>
<path d="M410.044 350.747C411.596 351.058 412.992 351.058 414.078 351.058C415.784 351.058 416.715 350.747 416.715 350.747L414.698 356.332C413.923 356.332 412.992 356.332 412.216 356.332C412.216 356.332 412.371 355.711 412.682 354.626V354.781C411.441 354.005 409.579 353.074 406.632 352.144C406.787 352.144 405.236 349.972 410.044 350.747Z" fill="#602F0F"/>
<path d="M421.059 390.613C425.092 395.267 435.176 392.94 443.552 385.184C451.929 377.428 455.342 367.345 451.309 362.691C447.275 358.037 439.674 360.985 431.297 368.586C422.921 376.342 417.026 385.96 421.059 390.613Z" fill="#602F0F"/>
<path d="M438.104 386.91C438.555 387.39 440.958 385.949 443.36 383.547C445.763 381.144 447.415 378.742 446.965 378.101C446.514 377.621 444.712 378.902 442.159 381.465C439.606 384.027 437.653 386.269 438.104 386.91Z" fill="#4C230C"/>
<path d="M105.84 240.466C97.1849 224.775 88.8392 211.569 82.0391 196.033C87.4483 195.877 108.312 187.954 112.022 185.002C114.494 189.974 136.904 227.416 136.904 227.416C142.622 237.98 190.069 318.769 193.16 320.633C195.014 321.876 204.442 325.605 204.442 325.605C210.006 331.042 210.16 339.276 210.006 350.618C209.851 361.959 198.569 382.156 195.169 382.001C173.841 381.069 163.023 377.651 154.213 370.194C140.613 359.007 142.777 345.646 139.995 338.344C137.677 332.441 135.668 327.469 134.586 323.119C126.085 297.018 123.922 285.677 120.831 273.403C117.431 261.285 105.84 240.466 105.84 240.466Z" fill="#3D3C3C"/>
<path d="M123.046 377.553C122.427 371.869 163.283 372.483 163.283 372.483C216.209 362.804 242.208 364.186 242.208 364.186C273.624 356.965 332.895 351.434 345.121 352.049C357.346 352.663 358.739 377.246 346.668 379.551C334.597 381.855 323.61 382.624 311.539 384.006C299.468 385.389 255.517 383.545 244.684 383.699C243.137 383.699 164.83 385.389 164.83 385.389C164.83 385.389 161.735 385.85 156.783 388.155C150.283 391.689 123.665 383.392 123.046 377.553Z" fill="#F6BB92"/>
</svg>
