<svg width="500" height="500" viewBox="0 0 500 500" fill="none" xmlns="http://www.w3.org/2000/svg">
<path d="M204.169 334.896C203.351 334.922 202.536 334.965 201.718 334.965C192.998 334.977 184.273 334.973 175.553 334.994C173.106 335.003 170.647 334.896 168.222 335.344C162.225 335.344 156.228 335.352 150.231 335.344C149.976 335.344 149.716 335.212 149.46 335.139C150.274 334.982 150.453 334.329 150.679 333.665C151.83 330.246 152.934 326.807 154.187 323.427C156.245 317.869 158.197 312.281 159.987 306.634C160.605 304.686 161.164 302.726 161.709 300.757C161.982 299.763 162.413 299.124 163.559 298.898C165.358 298.549 167.127 298.02 168.874 297.458C172.893 296.166 176.985 295.126 181.064 294.065C184.751 293.106 188.442 292.164 192.141 291.252C192.947 291.052 193.675 290.694 194.426 290.383C194.796 290.229 194.865 289.867 194.609 289.556C194.391 289.291 194.153 289.048 193.914 288.806C191.319 286.159 189.222 283.145 187.466 279.898C184.776 274.919 184.759 269.852 187.197 264.801C188.825 261.43 190.628 258.139 192.341 254.811C192.618 254.274 193.019 253.779 193.074 253.144C193.471 252.667 193.85 252.181 193.974 251.55C194.49 251.175 194.728 250.595 195.018 250.071C196.361 247.633 197.669 245.174 198.99 242.723C200.086 240.69 201.13 238.627 202.289 236.633C205.153 231.701 208.094 226.813 210.958 221.886C212.152 219.831 213.252 217.721 214.364 215.62C214.709 214.968 214.53 214.606 213.869 214.354C213.243 214.116 212.544 214.065 211.986 213.647C211.615 212.858 211.052 212.189 210.72 211.358C210.106 209.832 210.357 208.477 211.155 207.126C212.727 204.453 214.931 202.412 217.488 200.715C217.931 200.421 218.323 200.016 218.903 199.982C218.954 201.845 219.841 203.209 221.431 204.112C222.82 204.905 224.474 204.1 224.606 202.514C224.734 200.963 224.845 199.373 223.822 198.005C225.833 197.412 227.866 196.978 229.985 197.229C229.976 198.252 229.972 199.275 229.959 200.294C229.942 201.346 230.309 202.305 230.773 203.213C231.417 204.466 232.695 204.747 233.863 203.963C234.328 203.652 234.656 203.243 234.925 202.749C235.751 201.218 236.101 199.577 236.139 197.856C238.662 198.116 240.943 199.04 243.069 200.383C242.971 201.359 242.409 202.152 241.949 202.966C241.267 204.172 241.394 205.442 241.454 206.717C241.467 206.968 241.608 207.237 241.752 207.45C242.554 208.609 243.722 208.912 245.145 208.353C246.867 207.68 248.09 206.491 248.857 204.816C249.902 205.233 250.567 206.082 251.197 206.942C252.144 208.238 253.047 209.564 253.738 211.021C253.192 211.034 252.634 210.966 252.109 211.072C250.447 211.409 249.041 212.164 248.257 213.77C247.754 214.802 247.83 216.046 248.461 216.635C249.574 217.666 250.959 217.947 252.404 217.802C253.776 217.666 254.978 216.993 256.18 216.353C257.139 218.318 256.431 220.006 255.238 221.562C254.172 222.943 252.723 223.765 251.023 224.136C250.503 224.174 249.983 224.217 249.463 224.255C248.499 224.191 247.609 223.833 246.709 223.531C246.194 223.36 245.691 223.151 245.171 222.989C244.736 222.849 244.361 222.968 244.127 223.377C243.922 223.731 243.73 224.089 243.555 224.46C241.974 227.776 240.389 231.088 238.82 234.408C234.609 243.324 230.402 252.245 226.196 261.161C225.936 261.715 225.68 262.269 225.467 262.845C225.339 263.194 225.463 263.531 225.799 263.71C226.157 263.902 226.541 264.042 226.92 264.2C229.742 265.381 232.58 266.523 235.381 267.751C239.425 269.528 243.457 271.339 247.732 272.52C249.301 272.95 250.852 273.458 252.408 273.931C252.988 274.127 253.563 274.336 254.151 274.519C258.886 276.011 263.626 277.507 268.365 278.99C272.001 280.128 275.649 281.223 279.272 282.395C281.275 283.043 283.338 283.546 285.248 284.458C287.404 285.49 289.429 286.751 291.317 288.213C294.104 290.37 296.372 292.97 297.74 296.26C298.921 299.094 299.786 302.027 300.306 305.057C300.468 305.995 300.634 306.932 300.706 307.879C300.826 309.4 300.285 310.824 299.965 312.286C299.419 314.783 298.111 316.833 296.18 318.427C294.399 319.902 292.434 321.13 290.226 321.939C288.427 322.596 286.582 323.069 284.715 323.431C283.125 323.742 281.506 324.083 279.856 323.9C278.641 323.764 277.414 323.678 276.22 323.44C272.755 322.749 269.277 322.097 265.855 321.232C260.774 319.949 255.775 318.402 250.942 316.322C246.377 314.361 241.765 312.512 237.269 310.398C231.719 307.789 225.94 305.735 220.293 303.369C217.215 302.082 214.117 300.855 211.039 299.567C208.904 298.677 206.794 297.722 204.663 296.823C204.054 296.567 203.453 296.192 202.75 296.35C202.519 296.759 202.579 297.172 202.579 297.577C202.579 299.209 202.767 300.833 202.865 302.461C203.082 305.922 202.98 309.396 203.282 312.865C203.555 315.977 203.517 319.118 203.649 322.242C203.832 326.457 204.122 330.668 204.152 334.892L204.169 334.896Z" fill="#FFB78A"/>
<path d="M193.083 253.143C193.023 253.783 192.627 254.273 192.35 254.81C190.636 258.143 188.834 261.429 187.205 264.8C184.768 269.847 184.785 274.919 187.474 279.897C189.23 283.149 191.327 286.158 193.923 288.805C194.161 289.048 194.4 289.291 194.617 289.555C194.873 289.866 194.805 290.228 194.434 290.382C193.684 290.693 192.955 291.051 192.15 291.251C188.45 292.163 184.759 293.105 181.072 294.064C176.989 295.126 172.902 296.166 168.882 297.457C167.135 298.02 165.366 298.544 163.568 298.898C162.421 299.123 161.991 299.763 161.718 300.756C161.172 302.725 160.614 304.686 159.996 306.633C158.206 312.281 156.254 317.873 154.195 323.426C152.942 326.81 151.838 330.246 150.687 333.664C150.466 334.329 150.282 334.981 149.468 335.139C140.041 333.809 132.16 329.308 125.174 323.094C117.728 316.466 112.213 308.475 108.816 299.068C108.288 297.602 107.87 296.093 107.397 294.601C107.627 294.179 107.448 293.847 107.162 293.536C105.607 287.01 105.381 280.464 106.855 273.892C107.213 272.293 107.691 270.725 108.347 269.229C110.21 264.979 112.328 260.862 115.081 257.111C116.13 255.684 117.387 254.426 118.649 253.182C124.143 247.752 130.677 244.103 138.003 241.764C140.552 240.949 143.195 240.668 145.79 240.131C147.521 239.773 149.281 239.556 151.028 239.274C151.45 240.8 152.558 241.636 153.974 242.104C156.1 242.803 158.24 243.456 160.38 244.116C164.787 245.484 169.113 247.104 173.558 248.353C176.235 249.103 178.864 250.028 181.52 250.842C183.851 251.558 186.208 252.197 188.531 252.943C190.048 253.433 191.54 253.638 193.083 253.139V253.143Z" fill="#6A6C65"/>
<path d="M392.287 314.579C392.436 314.588 392.589 314.597 392.739 314.605C393.152 314.933 393.591 314.959 394.047 314.703C395.398 314.771 396.745 314.844 398.096 314.912C398.753 315.253 399.422 315.334 400.112 315.01C400.376 315.027 400.636 315.04 400.896 315.057C401.182 315.317 401.489 315.342 401.821 315.146C405.073 315.347 408.325 315.547 411.573 315.752C412.242 316.203 412.967 316.191 413.717 316.024C413.956 316.063 414.199 316.101 414.437 316.144C414.821 316.514 415.264 316.604 415.767 316.434C416.129 316.51 416.492 316.591 416.85 316.668C416.977 316.881 417.152 316.958 417.391 316.868C418.921 317.158 419.863 318.262 420.703 319.413C421.781 320.892 421.457 322.797 420.029 323.965C419.505 324.395 418.951 324.796 418.38 325.158C414.245 327.767 410.103 330.362 405.96 332.954C405.674 333.133 405.342 333.231 405.035 333.367C404.826 333.303 404.668 333.354 404.579 333.563C402 334.582 399.422 335.605 396.843 336.623C396.664 336.547 396.515 336.581 396.408 336.751C396.14 336.841 395.871 336.93 395.607 337.02C394.976 336.969 394.388 337.067 393.906 337.518C392.624 337.727 391.341 337.936 390.058 338.145C389.133 337.753 388.28 338.085 387.424 338.413C386.887 338.473 386.345 338.533 385.808 338.588C385.523 338.247 385.263 338.332 385.016 338.639C381.197 338.887 377.378 338.912 373.555 338.729C372.886 338.409 372.208 338.307 371.5 338.597C370.686 338.499 369.872 338.401 369.058 338.303C368.67 338.013 368.265 337.889 367.822 338.175C366.096 337.859 364.37 337.548 362.644 337.233C362.49 337.05 362.298 337.007 362.077 337.088C359.984 336.568 357.947 335.882 355.956 335.046C353.83 334.151 351.856 333.009 350.164 331.432C349.533 330.844 348.847 330.281 348.549 329.416C348.92 328.717 349.58 328.785 350.16 328.93C351.08 329.156 352.01 329.416 352.871 329.808C355.696 331.095 358.68 331.594 361.749 331.735C362.085 331.752 362.426 331.799 362.754 331.875C364.502 332.272 366.245 332.263 367.997 331.875C368.457 331.773 368.939 331.713 369.408 331.735C370.921 331.799 372.37 331.398 373.823 331.125C377.783 330.384 381.444 328.73 385.118 327.149C385.919 326.803 386.652 326.275 387.381 325.785C388.093 325.307 388.528 324.583 388.63 323.756C388.728 322.95 388.749 322.115 388.638 321.314C388.361 319.323 386.925 318.577 385.075 319.43C383.963 319.941 382.88 320.521 381.785 321.066C381.299 321.309 380.817 321.574 380.314 321.774C376.777 323.176 373.175 324.365 369.455 325.184C368.794 325.329 368.133 325.542 367.468 325.572C363.453 325.759 359.473 325.537 355.577 324.434C353.817 323.935 352.052 323.445 350.292 322.95C348.787 322.528 347.347 322.528 346.06 323.581C344.64 323.091 343.485 322.145 342.245 321.352C338.878 319.191 335.818 316.672 333.269 313.561C333.022 313.258 332.655 313.049 332.344 312.794C332.208 312.24 331.786 311.864 331.462 311.434C330.827 310.594 330.533 309.614 330.302 308.621C330.042 307.5 330.447 306.771 331.564 306.405C332.595 306.068 333.627 305.714 334.722 305.574C337.829 305.177 340.932 304.76 344.031 304.308C346.588 303.933 349.158 303.626 351.673 302.995C352.943 302.675 353.906 302.006 354.597 300.932C355.543 299.457 356.033 297.855 355.811 296.078C355.568 294.117 355.445 292.135 355.057 290.204C354.435 287.11 354.703 284.135 355.62 281.139C356.272 279.012 357.171 277.094 358.786 275.517C359.562 274.758 360.206 273.867 360.922 273.041C364.088 269.379 367.127 265.629 369.463 261.362C369.774 261.298 370.085 261.234 370.396 261.175C371.164 261.277 371.931 261.379 372.698 261.486C372.839 261.695 373.022 261.754 373.252 261.639C377.05 262.411 380.455 264.069 383.605 266.268C388.613 269.763 392.479 274.255 395.202 279.724C398.258 285.861 398.816 292.327 397.742 299.01C397.431 299.244 397.32 299.504 397.632 299.82C397.542 300.195 397.453 300.57 397.363 300.945C397.056 301.256 396.907 301.597 397.146 302.019C397.073 302.245 397.001 302.466 396.928 302.692C396.626 302.952 396.502 303.259 396.681 303.643C395.884 306.328 394.772 308.885 393.442 311.345C393.02 312.125 392.602 312.904 392.185 313.68C391.763 314.243 391.771 314.307 392.312 314.592L392.287 314.579Z" fill="#7B4923"/>
<path d="M211.998 213.652C212.556 214.07 213.255 214.117 213.882 214.36C214.542 214.611 214.721 214.973 214.376 215.625C213.264 217.727 212.164 219.836 210.971 221.891C208.102 226.822 205.166 231.711 202.302 236.638C201.142 238.632 200.098 240.695 199.003 242.728C197.681 245.179 196.377 247.638 195.03 250.076C194.741 250.601 194.502 251.18 193.986 251.555C193.764 251.381 193.594 251.163 193.607 250.869C193.662 249.403 192.75 248.644 191.569 248.12C190.951 247.847 190.291 247.66 189.639 247.481C186.57 246.624 183.493 245.784 180.42 244.932C177.543 244.135 174.674 243.321 171.793 242.541C166.623 241.143 161.432 239.8 156.27 238.368C153.547 237.614 153.564 237.546 151.117 238.841C144.311 236.574 137.67 233.872 131.06 231.101C130.05 230.679 129.108 230.172 128.306 229.422C128.144 228.514 128.426 227.666 128.694 226.835C131.495 218.132 134.325 209.437 137.104 200.725C137.436 199.681 137.973 198.918 138.94 198.44C139.921 198.807 140.974 198.688 141.979 198.858C142.239 199.135 142.546 199.203 142.9 199.067C143.284 199.118 143.667 199.174 144.047 199.225C144.307 199.489 144.601 199.587 144.954 199.416C145.466 199.497 145.973 199.583 146.484 199.664C146.736 199.945 147.043 200.022 147.397 199.89C147.78 199.941 148.164 199.992 148.547 200.043C148.927 200.405 149.37 200.452 149.852 200.299C150.363 200.367 150.87 200.435 151.382 200.503C151.527 200.682 151.701 200.751 151.919 200.64C152.426 200.725 152.933 200.806 153.44 200.891C153.585 201.066 153.751 201.143 153.969 201.023C154.476 201.117 154.983 201.207 155.49 201.3C155.742 201.586 156.044 201.658 156.403 201.535C156.778 201.599 157.153 201.663 157.528 201.722C157.668 201.906 157.839 201.978 158.06 201.88C158.436 201.952 158.811 202.025 159.19 202.097C159.437 202.379 159.736 202.468 160.094 202.332C160.469 202.4 160.844 202.464 161.219 202.532C161.359 202.711 161.53 202.788 161.747 202.673C163.61 203.052 165.472 203.431 167.335 203.815C168.008 204.22 168.695 204.552 169.517 204.322C170.02 204.416 170.523 204.51 171.022 204.604C171.162 204.791 171.337 204.859 171.559 204.761C172.062 204.851 172.56 204.936 173.063 205.025C173.204 205.213 173.383 205.273 173.605 205.179C173.852 205.217 174.103 205.26 174.35 205.298C174.593 205.609 174.862 205.69 175.173 205.383C175.991 205.486 176.805 205.588 177.624 205.69C178.029 206.091 178.485 206.121 178.975 205.861C179.341 205.929 179.712 205.997 180.079 206.065C180.441 206.487 180.846 206.577 181.306 206.219C181.852 206.317 182.397 206.411 182.939 206.509C183.216 206.811 183.523 206.888 183.881 206.654L184.98 206.901C185.249 207.212 185.56 207.289 185.922 207.063C186.289 207.148 186.655 207.233 187.022 207.318C187.248 207.647 187.508 207.77 187.84 207.463C188.066 207.523 188.296 207.583 188.522 207.642C188.791 207.949 189.072 208.196 189.477 207.834C189.839 207.924 190.201 208.017 190.564 208.107C190.875 208.401 191.207 208.584 191.638 208.354C191.872 208.418 192.102 208.482 192.337 208.546C192.597 208.857 192.904 208.959 193.274 208.755C193.509 208.814 193.739 208.878 193.973 208.938C194.195 209.275 194.459 209.39 194.792 209.083C195.154 209.168 195.516 209.254 195.879 209.343C196.194 209.633 196.531 209.808 196.953 209.565C197.187 209.629 197.417 209.692 197.652 209.756C197.912 210.076 198.223 210.166 198.593 209.957C198.824 210.025 199.054 210.093 199.288 210.161C199.544 210.485 199.855 210.579 200.23 210.379C200.46 210.451 200.69 210.519 200.925 210.592C201.176 210.907 201.483 211.014 201.863 210.826C202.459 211.001 203.056 211.171 203.653 211.346C203.942 211.666 204.275 211.858 204.722 211.666C207.148 212.335 209.573 213.004 211.998 213.673V213.652Z" fill="#6B6C65"/>
<path d="M369.438 261.35C367.102 265.616 364.063 269.367 360.896 273.028C360.184 273.851 359.541 274.746 358.761 275.504C357.15 277.081 356.246 278.995 355.594 281.126C354.673 284.122 354.409 287.097 355.031 290.192C355.419 292.122 355.539 294.104 355.786 296.065C356.008 297.842 355.517 299.445 354.571 300.919C353.885 301.994 352.922 302.663 351.647 302.982C349.128 303.617 346.563 303.924 344.005 304.295C340.907 304.747 337.804 305.165 334.697 305.561C333.601 305.702 332.57 306.055 331.539 306.392C330.426 306.759 330.021 307.483 330.277 308.608C330.507 309.601 330.801 310.582 331.436 311.421C331.76 311.852 332.182 312.227 332.319 312.781C329.667 312.815 327.012 312.913 324.361 312.866C320.751 312.802 317.179 313.412 313.569 313.369C312.559 313.356 311.575 313.829 310.539 313.625C310.415 313.096 310.236 312.572 310.181 312.039C309.883 309.047 308.932 306.196 308.144 303.328C306.285 296.572 302.714 290.758 297.872 285.716C297.071 284.881 296.265 284.054 295.459 283.223C295.728 283.185 296.001 283.112 296.269 283.121C299.747 283.219 303.191 282.707 306.66 282.579C308.348 282.52 310.036 282.23 311.737 282.183C312.559 282.157 312.926 281.842 312.909 281.071C312.862 279.153 313.331 277.29 313.433 275.389C313.518 273.77 313.859 272.163 314.115 270.556C314.273 269.55 314.452 268.548 314.677 267.555C315.125 265.582 316.016 263.783 317.559 262.496C319.502 260.872 321.646 259.662 324.374 259.649C326.462 259.641 328.559 259.223 330.635 258.903C333.111 258.524 334.872 257.151 335.869 254.841C336.167 254.155 336.402 253.443 336.683 252.749C336.939 252.118 337.165 251.474 337.488 250.878C338.486 249.049 339.585 248.717 341.793 249.279C342.241 249.394 342.654 249.684 343.051 249.94C344.836 251.082 346.439 252.446 347.926 253.955C349.7 255.753 351.639 257.343 353.766 258.711C356.182 260.267 358.795 261.056 361.672 261.026C364.259 260.996 366.846 261.013 369.433 261.009C369.42 261.124 369.416 261.235 369.42 261.35H369.438Z" fill="#FFB68A"/>
<path d="M295.477 283.218C296.283 284.049 297.088 284.876 297.889 285.712C302.731 290.754 306.303 296.567 308.161 303.323C308.95 306.191 309.9 309.043 310.199 312.035C310.254 312.572 310.433 313.092 310.557 313.62C308.021 315.201 305.455 316.731 302.961 318.372C298.687 321.185 294.096 323.368 289.429 325.426C285.261 327.267 280.999 328.836 276.6 330.025C273.911 330.75 271.157 331.155 268.425 331.679C265.165 332.305 261.9 332.928 258.588 333.26C258.286 332.889 258.026 332.957 257.791 333.333C256.828 333.413 255.899 333.814 254.91 333.682C254.62 333.307 254.356 333.358 254.113 333.733C252.331 333.793 250.575 334.262 248.777 334.095C248.355 333.656 247.954 333.678 247.566 334.147C245.913 334.13 244.297 334.662 242.635 334.492C242.213 334.061 241.812 334.083 241.433 334.543C236.915 335.097 232.376 334.961 227.837 334.952C222.957 334.939 218.081 334.961 213.201 334.969C213.103 334.888 213.009 334.743 212.902 334.731C211.628 334.607 210.341 334.274 209.118 334.965C207.472 334.944 205.823 334.922 204.178 334.901C204.148 330.681 203.854 326.466 203.671 322.251C203.534 319.123 203.577 315.986 203.304 312.874C203.001 309.405 203.099 305.935 202.886 302.47C202.784 300.842 202.596 299.223 202.601 297.586C202.601 297.181 202.541 296.768 202.771 296.358C203.474 296.196 204.075 296.576 204.685 296.831C206.816 297.731 208.926 298.686 211.061 299.576C214.138 300.859 217.241 302.091 220.314 303.378C225.966 305.739 231.741 307.794 237.29 310.406C241.787 312.52 246.399 314.366 250.963 316.331C255.797 318.406 260.796 319.958 265.877 321.241C269.299 322.106 272.777 322.754 276.242 323.449C277.435 323.687 278.663 323.773 279.878 323.909C281.527 324.092 283.147 323.751 284.737 323.44C286.599 323.078 288.449 322.609 290.247 321.948C292.455 321.139 294.42 319.911 296.202 318.436C298.132 316.838 299.437 314.792 299.986 312.295C300.306 310.837 300.843 309.409 300.728 307.887C300.656 306.941 300.489 306.004 300.327 305.066C299.803 302.04 298.942 299.103 297.762 296.269C296.389 292.983 294.126 290.383 291.339 288.222C289.45 286.76 287.426 285.503 285.269 284.467C283.36 283.551 281.297 283.052 279.294 282.404C275.671 281.232 272.018 280.137 268.387 278.999C263.647 277.515 258.912 276.019 254.173 274.528C253.589 274.344 253.013 274.136 252.434 273.94C252.86 273.364 253.525 273.138 254.117 272.819C256.636 271.467 259.159 270.125 261.678 268.778C262.156 268.765 262.633 268.778 263.106 268.74C265.459 268.539 267.726 268.966 269.926 269.733C272.624 270.679 275.292 271.715 277.832 273.04C281.455 274.928 285.12 276.74 288.7 278.705C291.083 280.013 293.448 281.381 295.486 283.222L295.477 283.218Z" fill="#8A8ADE"/>
<path d="M138.941 198.436C137.974 198.913 137.436 199.676 137.104 200.72C134.325 209.432 131.495 218.127 128.695 226.83C128.426 227.661 128.145 228.509 128.307 229.417C127.697 229.396 127.067 229.468 126.487 229.332C122.724 228.437 118.926 227.661 115.218 226.545C114.766 226.408 114.31 226.242 113.888 226.033C112.422 225.313 110.969 224.563 109.511 223.825C107.576 222.845 106.378 221.298 105.828 219.197C104.967 215.902 104.277 212.603 104.349 209.155C104.447 204.663 104.341 200.166 104.426 195.674C104.49 192.277 104.592 188.876 104.886 185.492C105.321 180.492 105.897 175.501 106.864 170.565C107.376 167.961 108.829 166.124 111.122 164.922C112.631 164.13 114.186 163.414 115.968 163.563C116.441 163.601 116.923 163.635 117.375 163.759C121.296 164.829 124.318 167.113 126.449 170.565C128.269 173.519 129.88 176.579 131.342 179.738C132.974 183.258 134.393 186.864 135.953 190.414C136.2 190.973 136.405 191.552 136.593 192.132C137.164 193.875 137.701 195.635 138.57 197.264C138.758 197.617 138.817 198.039 138.937 198.427L138.941 198.436Z" fill="#FFB68B"/>
<path d="M261.665 268.769C259.146 270.115 256.623 271.458 254.104 272.809C253.507 273.129 252.847 273.355 252.421 273.93C250.861 273.457 249.314 272.95 247.745 272.519C243.466 271.339 239.438 269.531 235.393 267.75C232.593 266.518 229.755 265.38 226.933 264.199C226.558 264.042 226.174 263.901 225.812 263.709C225.471 263.53 225.347 263.189 225.48 262.844C225.693 262.273 225.944 261.715 226.208 261.161C230.415 252.24 234.622 243.324 238.833 234.407C240.401 231.087 241.987 227.775 243.568 224.459C243.743 224.093 243.939 223.73 244.139 223.377C244.374 222.963 244.749 222.848 245.184 222.989C245.699 223.155 246.206 223.36 246.722 223.53C247.626 223.833 248.512 224.186 249.475 224.25C249.991 224.719 250.571 225.005 251.287 224.898C252.847 225.376 254.322 226.062 255.792 226.752C256.956 227.298 258.132 227.826 259.295 228.376C263.647 230.435 267.197 233.337 269.158 237.881C269.64 238.997 270.143 240.106 270.637 241.218C270.479 241.666 270.675 241.989 270.995 242.271C271.174 242.867 271.349 243.464 271.528 244.061C271.328 244.432 271.426 244.739 271.737 244.994C271.805 245.365 271.877 245.736 271.946 246.102C271.703 246.72 271.668 247.317 272.137 247.854C272.299 250.799 271.92 253.659 270.974 256.468C270.513 257.832 269.93 259.115 269.184 260.329C267.901 262.414 266.358 264.31 264.802 266.19C263.924 267.251 262.663 267.848 261.669 268.769H261.665Z" fill="#6B6D66"/>
<path d="M346.042 323.563C347.325 322.51 348.77 322.51 350.275 322.932C352.035 323.426 353.8 323.917 355.56 324.415C359.455 325.519 363.436 325.741 367.451 325.553C368.12 325.523 368.781 325.31 369.437 325.165C373.158 324.351 376.76 323.158 380.297 321.756C380.8 321.555 381.282 321.291 381.768 321.048C382.863 320.503 383.946 319.927 385.058 319.411C386.908 318.559 388.344 319.305 388.621 321.295C388.732 322.097 388.715 322.936 388.613 323.738C388.511 324.564 388.08 325.289 387.364 325.766C386.631 326.256 385.902 326.785 385.101 327.13C381.427 328.711 377.766 330.365 373.806 331.107C372.353 331.38 370.899 331.78 369.391 331.716C368.922 331.695 368.44 331.755 367.98 331.857C366.228 332.241 364.485 332.249 362.737 331.857C362.409 331.784 362.068 331.733 361.731 331.716C358.663 331.576 355.679 331.077 352.853 329.79C351.992 329.398 351.063 329.138 350.143 328.912C349.563 328.771 348.902 328.699 348.532 329.398C347.517 328.52 347.223 327.25 346.75 326.082C346.75 325.579 346.759 325.076 346.737 324.577C346.72 324.253 346.605 323.963 346.243 323.87C346.136 323.789 346.072 323.686 346.047 323.554L346.042 323.563Z" fill="#5D3818"/>
<path d="M151.122 238.838C153.568 237.546 153.551 237.61 156.275 238.365C161.436 239.797 166.623 241.139 171.798 242.537C174.679 243.317 177.547 244.131 180.424 244.928C183.497 245.776 186.57 246.62 189.643 247.477C190.295 247.66 190.956 247.844 191.574 248.116C192.755 248.641 193.667 249.399 193.611 250.865C193.598 251.16 193.769 251.373 193.991 251.552C193.867 252.182 193.488 252.668 193.091 253.146C191.548 253.644 190.057 253.44 188.539 252.95C186.216 252.204 183.859 251.564 181.528 250.848C178.868 250.03 176.243 249.109 173.566 248.359C169.117 247.11 164.795 245.487 160.388 244.123C158.248 243.458 156.109 242.81 153.982 242.111C152.567 241.646 151.459 240.807 151.037 239.281C151.066 239.136 151.101 238.987 151.13 238.842L151.122 238.838Z" fill="#494A45"/>
<path d="M256.184 216.35C254.986 216.989 253.78 217.662 252.408 217.799C250.963 217.944 249.577 217.662 248.465 216.631C247.83 216.043 247.758 214.798 248.26 213.767C249.04 212.16 250.451 211.406 252.113 211.069C252.638 210.962 253.2 211.03 253.742 211.018C254.867 212.65 255.826 214.359 256.184 216.345V216.35Z" fill="#E7A47C"/>
<path d="M248.862 204.814C248.094 206.49 246.871 207.679 245.149 208.352C243.726 208.906 242.558 208.608 241.757 207.448C241.607 207.235 241.467 206.967 241.458 206.715C241.399 205.441 241.271 204.171 241.953 202.965C242.413 202.155 242.976 201.362 243.074 200.382C243.756 200.48 244.327 200.825 244.881 201.209C246.364 202.24 247.741 203.387 248.862 204.814Z" fill="#E7A47C"/>
<path d="M236.147 197.86C236.109 199.582 235.76 201.223 234.933 202.753C234.664 203.247 234.336 203.656 233.872 203.968C232.704 204.752 231.425 204.471 230.781 203.217C230.317 202.31 229.95 201.355 229.967 200.298C229.98 199.275 229.984 198.252 229.993 197.233C231.885 197.063 233.769 197.016 235.615 197.579C235.802 197.634 235.968 197.762 236.147 197.86Z" fill="#E7A47C"/>
<path d="M223.83 198.009C224.853 199.377 224.747 200.967 224.614 202.518C224.482 204.104 222.833 204.905 221.439 204.116C219.849 203.213 218.963 201.849 218.912 199.986C220.356 198.844 222.04 198.303 223.826 198.009H223.83Z" fill="#E7A47C"/>
<path d="M209.113 334.96C210.336 334.269 211.623 334.602 212.898 334.725C213.004 334.734 213.098 334.879 213.196 334.964C211.836 335.488 210.472 335.492 209.113 334.96Z" fill="#A1ACE8"/>
<path d="M387.411 338.408C388.264 338.08 389.116 337.748 390.045 338.14C389.206 338.579 388.327 338.664 387.411 338.408Z" fill="#7B4923"/>
<path d="M346.239 323.879C346.606 323.977 346.721 324.263 346.734 324.587C346.755 325.09 346.746 325.588 346.746 326.091C346.491 325.955 346.384 325.729 346.363 325.452C346.324 324.928 346.277 324.404 346.235 323.875L346.239 323.879Z" fill="#606060"/>
<path d="M371.483 338.591C372.191 338.301 372.869 338.403 373.538 338.723C372.826 339.128 372.14 339.094 371.483 338.591Z" fill="#7B4923"/>
<path d="M400.112 315.01C399.422 315.334 398.753 315.253 398.096 314.912C398.787 314.575 399.456 314.614 400.112 315.01Z" fill="#7B4923"/>
<path d="M272.133 247.86C271.664 247.319 271.694 246.726 271.941 246.108C272.487 246.641 272.589 247.221 272.133 247.86Z" fill="#6B6D66"/>
<path d="M413.717 316.023C412.971 316.19 412.242 316.202 411.573 315.751C412.34 315.439 413.039 315.648 413.717 316.023Z" fill="#7B4923"/>
<path d="M169.505 204.312C168.687 204.542 167.996 204.21 167.323 203.805C168.128 203.643 168.861 203.788 169.505 204.312Z" fill="#6B6C65"/>
<path d="M247.562 334.147C247.945 333.678 248.35 333.657 248.772 334.096C248.388 334.539 247.983 334.543 247.562 334.147Z" fill="#A1ACE8"/>
<path d="M393.894 337.518C394.379 337.07 394.963 336.968 395.594 337.019C395.113 337.475 394.571 337.731 393.894 337.518Z" fill="#7B4923"/>
<path d="M367.801 338.169C368.249 337.884 368.654 338.012 369.037 338.297C368.581 338.668 368.172 338.604 367.801 338.169Z" fill="#7B4923"/>
<path d="M241.428 334.543C241.808 334.078 242.208 334.057 242.63 334.492C242.251 334.952 241.846 334.948 241.428 334.543Z" fill="#A1ACE8"/>
<path d="M181.294 206.21C180.834 206.568 180.429 206.479 180.066 206.057C180.527 205.686 180.932 205.78 181.294 206.21Z" fill="#6B6C65"/>
<path d="M178.962 205.852C178.472 206.112 178.016 206.078 177.611 205.681C178.123 205.255 178.558 205.443 178.962 205.852Z" fill="#6B6C65"/>
<path d="M415.767 316.433C415.264 316.603 414.821 316.514 414.437 316.143C414.953 315.908 415.383 316.07 415.767 316.433Z" fill="#7B4923"/>
<path d="M270.991 242.272C270.671 241.99 270.475 241.662 270.633 241.219C271.067 241.462 271.242 241.794 270.991 242.272Z" fill="#6B6D66"/>
<path d="M271.733 244.999C271.422 244.739 271.328 244.436 271.524 244.065C271.865 244.317 272.133 244.585 271.733 244.999Z" fill="#6B6D66"/>
<path d="M396.656 303.625C396.477 303.242 396.596 302.935 396.903 302.675C397.133 303.071 396.992 303.374 396.656 303.625Z" fill="#7B4923"/>
<path d="M201.863 210.809C201.484 210.996 201.181 210.89 200.925 210.574C201.352 210.204 201.616 210.468 201.863 210.809Z" fill="#6B6C65"/>
<path d="M397.12 302.001C396.882 301.579 397.031 301.238 397.338 300.927C397.521 301.336 397.427 301.69 397.12 302.001Z" fill="#7B4923"/>
<path d="M397.602 299.801C397.291 299.486 397.401 299.226 397.713 298.991C397.947 299.298 397.883 299.562 397.602 299.801Z" fill="#7B4923"/>
<path d="M107.158 293.541C107.444 293.852 107.623 294.185 107.393 294.607C107.064 294.304 106.911 293.967 107.158 293.541Z" fill="#6A6C65"/>
<path d="M189.477 207.825C189.072 208.191 188.79 207.94 188.522 207.633C188.897 207.415 189.208 207.505 189.477 207.825Z" fill="#6B6C65"/>
<path d="M198.598 209.944C198.223 210.153 197.916 210.063 197.656 209.744C198.065 209.369 198.333 209.641 198.598 209.944Z" fill="#6B6C65"/>
<path d="M196.957 209.552C196.535 209.799 196.194 209.625 195.883 209.33C196.314 209.045 196.659 209.198 196.957 209.552Z" fill="#6B6C65"/>
<path d="M194.792 209.075C194.455 209.386 194.195 209.266 193.974 208.93C194.31 208.61 194.57 208.729 194.792 209.075Z" fill="#6B6C65"/>
<path d="M187.84 207.455C187.504 207.762 187.244 207.639 187.022 207.311C187.359 206.987 187.623 207.093 187.84 207.455Z" fill="#6B6C65"/>
<path d="M257.782 333.332C258.017 332.957 258.277 332.889 258.579 333.26C258.345 333.622 258.081 333.665 257.782 333.332Z" fill="#A1ACE8"/>
<path d="M254.104 333.734C254.347 333.355 254.611 333.308 254.901 333.683C254.658 334.041 254.394 334.075 254.104 333.734Z" fill="#A1ACE8"/>
<path d="M191.638 208.344C191.208 208.574 190.875 208.391 190.564 208.097C191.003 207.815 191.344 207.977 191.638 208.344Z" fill="#6B6C65"/>
<path d="M185.918 207.057C185.556 207.283 185.245 207.206 184.976 206.895C185.368 206.512 185.645 206.767 185.918 207.057Z" fill="#6B6C65"/>
<path d="M200.235 210.364C199.856 210.564 199.549 210.47 199.293 210.146C199.711 209.78 199.975 210.057 200.235 210.364Z" fill="#6B6C65"/>
<path d="M193.275 208.746C192.9 208.951 192.593 208.849 192.337 208.537C192.751 208.158 193.019 208.422 193.275 208.746Z" fill="#6B6C65"/>
<path d="M204.723 211.648C204.276 211.844 203.947 211.648 203.653 211.328C204.114 211.09 204.45 211.256 204.723 211.648Z" fill="#6B6C65"/>
<path d="M183.872 206.648C183.514 206.878 183.203 206.806 182.93 206.503C183.314 206.115 183.599 206.354 183.872 206.648Z" fill="#6B6C65"/>
<path d="M175.161 205.375C174.854 205.682 174.585 205.601 174.338 205.29C174.645 204.979 174.918 205.043 175.161 205.375Z" fill="#6B6C65"/>
<path d="M384.999 338.634C385.246 338.328 385.506 338.242 385.792 338.583C385.545 338.869 385.28 338.882 384.999 338.634Z" fill="#7B4923"/>
<path d="M149.852 200.294C149.37 200.448 148.927 200.405 148.548 200.039C149.017 199.941 149.473 199.923 149.852 200.294Z" fill="#6B6C65"/>
<path d="M394.047 314.703C393.591 314.959 393.152 314.933 392.739 314.605C393.191 314.448 393.63 314.448 394.047 314.703Z" fill="#7B4923"/>
<path d="M147.401 199.889C147.047 200.017 146.74 199.944 146.489 199.663C146.838 199.561 147.149 199.607 147.401 199.889Z" fill="#6B6C65"/>
<path d="M401.821 315.146C401.493 315.342 401.182 315.316 400.896 315.056C401.225 314.899 401.532 314.907 401.821 315.146Z" fill="#7B4923"/>
<path d="M156.398 201.525C156.045 201.649 155.738 201.576 155.486 201.291C155.836 201.193 156.147 201.235 156.398 201.525Z" fill="#6B6C65"/>
<path d="M160.085 202.322C159.727 202.459 159.429 202.365 159.182 202.088C159.527 201.998 159.838 202.041 160.085 202.322Z" fill="#6B6C65"/>
<path d="M369.438 261.348C369.438 261.233 369.438 261.122 369.451 261.007C369.775 260.938 370.094 260.913 370.367 261.16C370.056 261.224 369.745 261.284 369.434 261.348H369.438Z" fill="#7B4923"/>
<path d="M392.287 314.579C391.746 314.294 391.737 314.23 392.159 313.667C392.202 313.97 392.245 314.276 392.287 314.579Z" fill="#7B4923"/>
<path d="M142.901 199.063C142.547 199.2 142.24 199.132 141.98 198.854C142.329 198.744 142.641 198.782 142.901 199.063Z" fill="#6B6C65"/>
<path d="M144.955 199.411C144.606 199.577 144.307 199.483 144.047 199.219C144.384 199.129 144.691 199.155 144.955 199.411Z" fill="#6B6C65"/>
<path d="M151.919 200.634C151.702 200.745 151.527 200.676 151.382 200.497C151.595 200.408 151.774 200.455 151.919 200.634Z" fill="#6B6C65"/>
<path d="M373.222 261.623C372.992 261.734 372.809 261.678 372.668 261.469C372.894 261.376 373.081 261.422 373.222 261.623Z" fill="#7B4923"/>
<path d="M417.391 316.866C417.153 316.956 416.978 316.875 416.85 316.666C417.085 316.589 417.264 316.653 417.391 316.866Z" fill="#7B4923"/>
<path d="M153.965 201.018C153.748 201.138 153.581 201.061 153.437 200.886C153.641 200.805 153.82 200.848 153.965 201.018Z" fill="#6B6C65"/>
<path d="M362.056 337.078C362.277 336.997 362.469 337.04 362.623 337.223C362.388 337.355 362.205 337.274 362.056 337.078Z" fill="#7B4923"/>
<path d="M173.592 205.169C173.37 205.267 173.196 205.203 173.051 205.016C173.268 204.935 173.447 204.986 173.592 205.169Z" fill="#6B6C65"/>
<path d="M171.551 204.751C171.329 204.845 171.154 204.777 171.014 204.594C171.231 204.508 171.41 204.564 171.551 204.751Z" fill="#6B6C65"/>
<path d="M161.735 202.665C161.517 202.78 161.347 202.699 161.206 202.524C161.415 202.447 161.59 202.49 161.735 202.665Z" fill="#6B6C65"/>
<path d="M158.053 201.871C157.831 201.969 157.661 201.896 157.52 201.713C157.737 201.632 157.912 201.683 158.053 201.871Z" fill="#6B6C65"/>
<path d="M404.571 333.559C404.66 333.346 404.818 333.295 405.027 333.363C404.925 333.547 404.788 333.653 404.571 333.559Z" fill="#7B4923"/>
<path d="M396.396 336.752C396.503 336.577 396.652 336.543 396.831 336.624C396.724 336.798 396.592 336.879 396.396 336.752Z" fill="#7B4923"/>
<path d="M137.423 200.128L138.574 197.272L210.643 211.866L212.365 214.018L137.423 200.128Z" fill="#6B6C65"/>
<path d="M249.471 224.251L259.138 228.006C259.138 228.006 267.053 230.188 270.526 239.714C272.913 246.265 272.934 248.579 272.713 249.385C272.585 249.854 272.487 250.327 272.461 250.813C272.329 253.553 271.089 261.434 261.661 268.765" fill="#6B6D66"/>
</svg>
