<svg width="500" height="500" viewBox="0 0 500 500" fill="none" xmlns="http://www.w3.org/2000/svg">
<path d="M179.542 198.301C177.512 202.241 195.303 208.927 199.84 212.509L207.243 212.868C242.825 234.24 262.048 240.21 262.048 240.21C282.705 253.942 324.137 274.001 333.092 276.867C342.047 279.732 349.808 262.18 341.689 257.165C333.569 252.151 325.928 248.688 317.45 244.389C309.092 240.091 276.854 229.584 269.093 226.599C268.018 226.241 211.9 203.793 211.9 203.793C211.9 203.793 209.75 202.599 206.885 199.614C202.945 195.435 195.303 191.972 190.407 191.853C186.228 191.734 181.572 194.36 179.542 198.301Z" fill="#ECAD83"/>
<path d="M195.542 208.211C195.542 208.211 190.408 204.987 188.497 207.614C186.826 209.763 186.467 210.599 199.84 212.629C199.84 212.509 200.437 210.838 195.542 208.211Z" fill="#ECAD83"/>
<path d="M241.507 162.856C244.734 166.575 231.108 182.407 230.271 186.125C229.913 187.924 230.988 190.922 228.717 194.401C225.729 198.958 220.35 198.958 219.394 200.637C214.255 209.273 201.943 226.784 195.609 237.099C194.174 239.498 192.62 241.897 190.947 244.295C184.254 254.131 168.476 234.221 171.345 230.982C182.461 217.669 208.876 193.561 213.418 189.243C213.418 189.243 224.773 173.891 227.881 170.533C229.793 168.614 238.279 159.138 241.507 162.856Z" fill="#D89D75"/>
<path d="M163.519 277.096C172.956 267.065 183.947 254.048 190.756 244.256C186.694 243.181 173.434 233.985 171.164 231C168.417 234.344 125.292 272.2 126.009 285.097C126.845 298.591 191.592 324.864 205.569 330.118C219.546 335.373 225.28 336.806 255.025 338C257.534 330.596 266.971 335.85 261.117 314.952C253.83 289.277 163.519 277.096 163.519 277.096Z" fill="#333333"/>
<path d="M261.144 298.553C258.631 297.246 248.938 291.78 243.433 290.592C227.157 287.147 215.07 299.86 215.07 299.86C215.07 299.86 202.744 329.802 210.642 333.247C223.447 338.832 249.416 337.881 257.315 338C262.7 338 270 316.138 270 316.138C270 316.138 263.657 299.741 261.144 298.553Z" fill="#3D3C3C"/>
<path d="M228.507 162.856C231.734 166.575 218.108 182.407 217.271 186.125C216.913 187.924 217.988 190.922 215.717 194.401C212.729 198.958 207.35 198.958 206.394 200.637C201.255 209.273 188.943 226.784 182.609 237.099C181.174 239.498 179.62 241.897 177.947 244.295C171.254 254.131 155.476 234.221 158.345 230.982C169.461 217.669 195.876 193.561 200.418 189.243C200.418 189.243 211.773 173.891 214.881 170.533C216.673 168.614 225.279 159.138 228.507 162.856Z" fill="#ECAD83"/>
<path d="M150.519 277.096C159.956 267.065 170.947 254.048 177.756 244.256C173.694 243.181 160.434 233.985 158.164 231C155.417 234.344 112.292 272.2 113.009 285.097C113.845 298.591 178.592 324.864 192.569 330.118C206.546 335.373 212.28 336.806 242.025 338C244.534 330.596 253.971 335.85 248.117 314.952C240.711 289.277 150.519 277.096 150.519 277.096Z" fill="#3D3C3C"/>
<path d="M355.229 300.887C362.849 288.316 352.729 275.626 349.038 257.548C348.323 255.512 340.703 249.048 336.06 248.329C330.821 247.491 325.225 248.09 321.534 252.041C318.081 254.914 313.913 262.337 301.054 286.76C294.625 298.971 273.193 301.365 260.81 298.253C260.81 298.253 261.167 308.429 260.334 318.246C259.5 328.183 257 338 257 338C309.508 337.162 328.916 329.979 341.537 307.591C341.418 307.83 352.729 305.077 355.229 300.887Z" fill="#FF8AA0"/>
<path d="M351.793 258.855C351.793 258.855 354.41 248.439 360 240.446L346.916 231C344.656 240.931 333 248.561 333 248.561C346.559 255.1 348.463 262.488 350.96 266L351.793 258.855Z" fill="#ECAD83"/>
<path d="M380.236 229.78C386.689 225.852 386.337 219.066 385.633 215.018C383.639 202.517 377.538 198.826 369.207 195.493C358.178 190.969 342.339 218.946 341.283 224.304C338.702 238.233 354.424 250.496 361.464 253.591C369.325 257.044 368.386 253.472 369.442 250.139C369.442 250.02 370.029 249.663 370.029 249.663C370.498 248.591 370.967 247.043 372.375 245.853C372.375 245.853 372.492 244.781 372.61 244.186C372.727 243.829 372.844 243.591 373.314 243.591C374.604 243.591 375.895 243.71 376.482 243.353C378.711 242.519 377.303 231.566 380.236 229.78Z" fill="#F6BB92"/>
<path d="M367 246C367 246 367.634 246.737 371.565 248C372.199 248 373.214 247.789 372.96 246.737C372.707 245.895 369.917 246.632 367 246Z" fill="#D6876B"/>
<path d="M367 246C367 246 367 247.985 370.324 249.97C370.835 250.08 371.474 249.86 371.602 249.749C372.497 248.867 371.602 248.095 371.602 248.095C367.639 246.772 367 246 367 246Z" fill="#CC785E"/>
<path d="M369.62 193.252C355.866 187.768 329.553 200.287 339.002 231.048C339.6 233.075 341.753 236.056 347.374 234.625C351.321 233.552 354.55 231.406 354.55 231.406C355.507 230.69 356.584 229.975 357.66 229.26C358.856 228.425 360.65 221.271 362.205 221.629C376.557 224.848 385.169 220.079 386.604 216.383C388.398 206.964 384.331 199.094 369.62 193.252Z" fill="#602F0F"/>
<path d="M354.033 226.93C353.701 233.674 355.913 234.954 359.452 236L361 226L360.668 221.582C357.24 220.535 354.365 220.186 354.033 226.93Z" fill="#F6BB92"/>
<path d="M339.561 205.531C337.426 201.542 341.578 195.676 348.694 192.273C355.811 188.871 363.402 189.34 365.418 193.329C367.553 197.318 363.639 201.424 356.522 204.827C349.406 208.229 341.578 209.52 339.561 205.531Z" fill="#4C230C"/>
<path d="M362.822 223.732C363.061 222.538 363.419 221.583 363.777 220.747C364.255 219.553 364.733 218.956 364.733 218.956L360.195 218.837C359.957 219.434 359.718 220.031 359.479 220.628C359.479 220.628 359.957 220.628 360.792 220.747H360.673C360.912 221.822 361.031 223.494 360.912 225.762C360.912 225.762 361.986 227.434 362.822 223.732Z" fill="#602F0F"/>
<path d="M337.39 204.509C335.121 200.211 339.778 193.763 347.658 190.062C355.539 186.36 363.777 186.718 366.046 190.897C368.315 195.076 364.016 199.733 356.136 203.434C348.136 207.255 339.658 208.808 337.39 204.509Z" fill="#602F0F"/>
<path d="M345.02 192.924C344.801 192.495 346.437 191.313 348.617 190.239C350.798 189.165 352.76 188.735 352.978 189.165C353.196 189.594 351.779 190.454 349.598 191.528C347.418 192.495 345.238 193.247 345.02 192.924Z" fill="#4C230C"/>
<path d="M165.93 212.987C164.378 217.166 183.004 221.464 187.9 224.569L195.303 223.972C233.272 240.688 252.496 244.628 252.496 244.628C274.704 255.733 318.883 269.941 328.196 271.613C337.509 273.285 343.002 255.016 334.285 251.076C325.689 247.136 317.569 244.628 308.734 241.524C299.898 238.3 265.988 232.33 257.988 230.3C256.914 230.061 199.004 214.539 199.004 214.539C199.004 214.539 196.735 213.703 193.512 210.957C188.974 207.256 181.094 204.868 176.198 205.345C171.9 205.584 167.482 208.689 165.93 212.987Z" fill="#F6BB92"/>
<path d="M183.124 220.748C183.124 220.748 177.631 218.241 176.079 220.987C174.765 223.255 174.527 224.211 187.9 224.449C187.9 224.569 188.377 222.778 183.124 220.748Z" fill="#F6BB92"/>
</svg>
