<svg width="500" height="500" viewBox="0 0 500 500" fill="none" xmlns="http://www.w3.org/2000/svg">
<path d="M323.703 228.419C326.246 227.936 327.675 228.232 329.711 226.892C326.43 222.584 335.387 226.109 334.304 221.283C332.335 212.534 334.734 205.016 341.716 199.047C344.118 196.99 347.029 195.893 349.562 194.126C347.268 191.628 345.208 188.908 342.312 187.01C332.395 180.505 317.741 185.437 316.492 197.17C315.19 209.398 308.523 215.487 300.889 225.632C300.232 226.504 298.338 226.846 298.938 228.151C299.301 228.945 300.815 229.541 301.958 229.633C313.874 230.589 315.381 231.041 323.706 228.416L323.703 228.419Z" fill="#804414"/>
<path d="M349.71 193.808C346.714 194.553 343.603 194.535 340.622 195.593C331.968 198.67 327.036 204.833 325.745 213.705C325.033 218.598 322.182 223.223 323.703 228.419C326.514 227.961 329.241 227.199 331.848 226.035C329.474 215.871 337.112 201.389 346.739 197.802C348.111 197.29 349.484 196.768 350.853 196.249C350.472 195.435 350.091 194.62 349.71 193.805V193.808Z" fill="#62350E"/>
<path d="M162.966 189.445C155.516 196.821 148.023 204.156 140.621 211.578C130.165 222.066 119.328 232.223 109.467 243.244C97.1837 256.974 97.6176 274.408 109.273 288.664C131.883 316.315 159.301 337.746 191.682 352.799C206.891 359.869 222.822 364.229 239.597 365.492C243.481 365.785 247.337 366.152 251.232 365.908C251.309 365.594 251.33 365.255 251.471 364.97C258.982 349.779 261.984 333.639 261.61 316.791C259.31 317.345 256.947 317.715 254.728 318.495C252.205 319.384 250.653 318.657 248.998 316.628C241.407 307.319 231.645 301.247 220.198 297.737C213.639 295.726 206.838 295.465 200.117 294.552C195.873 293.973 191.305 294.573 187.446 292.467C173.035 284.61 158.765 276.503 144.396 268.569C142.445 267.49 142.752 266.82 144.258 265.68C158.077 255.238 168.276 241.945 175.698 226.338C179.483 218.376 182.828 210.096 188.987 203.475C189.996 202.388 191.185 201.365 191.668 199.859C186.521 199.838 181.371 199.742 176.227 199.834C174.35 199.869 173.006 199.28 171.708 197.947C168.872 195.033 165.891 192.26 162.966 189.431V189.445Z" fill="#6A6D66"/>
<path d="M162.966 189.445C165.891 192.274 168.872 195.044 171.708 197.961C173.003 199.295 174.347 199.88 176.227 199.848C181.374 199.757 186.521 199.852 191.668 199.873C193.252 199.637 194.515 200.039 195.778 201.178C208.383 212.527 220.991 223.876 233.744 235.052C236.485 237.455 238.884 240.291 242.183 242.087C260.785 252.211 279.355 262.393 297.936 272.556C304.134 274.204 310.484 275.318 316.492 277.812C311.14 278.684 305.986 280.148 300.638 280.338C301.538 281.936 302.349 283.587 303.348 285.119C312.227 298.768 331.273 304.158 346.439 295.353C349.667 293.476 351.643 290.191 355.086 288.749C355.294 288.311 355.502 287.87 355.71 287.433C354.197 286.544 354.243 284.903 353.848 283.492C351.795 276.204 349.364 269.099 344.838 262.876C343.275 260.727 341.056 259.034 340.227 256.367C338.474 256.325 337.719 254.776 336.59 253.855C329.658 248.207 321.674 244.824 313.084 242.7C310.241 241.998 307.539 240.972 304.917 239.649C293.142 233.708 281.489 227.499 269.491 222.038C258.83 217.184 249.658 210.315 240.599 203.122C230.619 195.199 220.536 187.409 210.457 179.613C208.545 178.135 206.083 177.839 203.846 177.077C195.39 174.258 186.934 171.443 178.478 168.624C173.003 175.334 168.011 182.404 162.977 189.445H162.966Z" fill="#F5BA92"/>
<path d="M355.082 288.748C351.639 290.191 349.663 293.479 346.435 295.352C331.273 304.158 312.223 298.767 303.344 285.118C302.345 283.587 301.534 281.933 300.634 280.338C299.731 277.922 298.832 275.501 297.928 273.085C289.127 286.314 280.868 299.882 272.592 313.439C272.708 314.903 273.894 315.627 274.786 316.523C286.759 328.517 298.75 340.494 310.724 352.492C311.687 353.458 312.999 354.231 313.017 355.861C314.83 356.538 315.881 358.133 317.162 359.42C318.273 360.539 318.926 360.839 320.228 359.438C324.133 355.24 328.299 351.289 332.268 347.151C333.7 345.655 335.337 344.939 337.334 344.593C351.357 342.163 359.693 330.56 357.922 316.445C356.768 307.237 356.013 297.984 355.079 288.748H355.082Z" fill="#8A8AD9"/>
<path d="M340.403 200.504C335.739 204.575 333.178 209.984 330.525 215.356C329.972 220.253 329.143 225.146 330.095 230.078C331.929 239.603 337.101 246.792 345.391 251.774C349.999 248.934 353.897 245.177 358.162 241.896C362.053 238.901 366.347 236.308 367.288 230.752C368.566 223.202 372.63 217.247 378.539 212.474C381.199 210.326 382.945 207.154 386.162 205.62C383.619 198.486 378.027 194.775 371.197 192.726C361.986 189.963 353.139 190.274 345.328 196.783" fill="#804414"/>
<path d="M318.503 360.376C318.485 358.746 311.687 353.455 310.721 352.488C298.751 340.49 286.756 328.517 274.783 316.519C273.891 315.623 272.705 314.9 272.589 313.436C269.188 315.408 265.18 315.401 261.603 316.798C261.977 333.646 258.975 349.786 251.464 364.976C251.323 365.259 251.302 365.601 251.225 365.915C264.704 365.707 278.247 367.22 291.646 364.726C299.365 363.287 307.987 363.474 318.499 360.376H318.503Z" fill="#F5BA92"/>
<path d="M386.162 205.627C382.945 207.162 381.198 210.333 378.539 212.481C372.63 217.255 368.566 223.209 367.288 230.759C366.347 236.312 362.053 238.908 358.162 241.903C353.897 245.184 349.999 248.941 345.391 251.781C345.145 252.183 344.894 252.585 344.647 252.987C345.854 253.037 346.577 253.873 347.314 254.66C354.218 262.036 359.27 270.401 361.097 280.487C365.045 275.646 369.169 270.937 372.866 265.91C374.979 263.035 377.515 261.341 380.853 260.353C384.352 259.32 388.917 259.133 390.907 256.494C392.911 253.838 391.771 249.361 391.394 245.777C390.97 241.741 391.775 240.654 394.795 239.194C401.317 236.04 401.208 234.442 396.844 228.42C393.415 223.686 392.713 223.859 390.339 219.142" fill="#F5BB92"/>
<path d="M202.65 169.901C202.213 161.388 201.158 152.939 199.938 144.515C199.059 138.454 194.194 134.993 187.781 135.501C182.831 135.893 178.584 140.56 178.534 145.922C178.467 152.625 178.573 159.328 178.601 166.034C179.967 163.48 181.826 163.205 184.525 164.147C190.504 166.239 196.396 168.659 202.65 169.904V169.901Z" fill="#F5BB92"/>
<path d="M361.094 280.482C359.266 270.397 354.211 262.032 347.311 254.656C346.577 253.869 345.854 253.033 344.644 252.983C343.169 254.109 341.691 255.238 340.216 256.367C341.045 259.034 343.264 260.727 344.827 262.875C349.353 269.098 351.784 276.203 353.837 283.492C354.236 284.903 354.186 286.543 355.7 287.432C357.577 285.178 359.619 283.054 361.09 280.482H361.094Z" fill="#DCA782"/>
<path d="M202.65 169.901C196.395 168.655 190.504 166.235 184.524 164.143C181.826 163.202 179.966 163.477 178.601 166.031C178.555 166.895 178.513 167.759 178.467 168.624C186.923 171.442 195.379 174.258 203.835 177.076C203.8 174.625 203.335 172.247 202.654 169.901H202.65Z" fill="#DCA782"/>
<path d="M297.936 272.556C297.928 272.732 297.928 272.908 297.932 273.085C298.832 275.501 299.735 277.921 300.638 280.338C305.986 280.147 311.14 278.683 316.492 277.812C310.484 275.314 304.134 274.203 297.936 272.556Z" fill="#DCA782"/>
</svg>
