<svg width="500" height="500" viewBox="0 0 500 500" fill="none" xmlns="http://www.w3.org/2000/svg">
<g opacity="0.2">
<path d="M140.8 246.369C147.68 238.965 155.411 232.457 162.774 225.571C164.992 223.493 166.453 221.246 167.343 218.306C172.588 201.018 177.978 183.777 183.374 166.536C189.823 145.947 203.485 133.369 224.888 129.632C230.598 128.636 236.425 128.706 242.054 130.062C247.461 131.366 252.659 130.854 258.032 129.969C284.249 125.65 307.207 139.614 315.379 164.941C321.148 182.805 326.607 200.762 332.108 218.708C332.935 221.397 334.32 223.458 336.375 225.355C343.884 232.271 351.247 239.331 358.663 246.34C356.451 246.578 354.245 246.898 352.027 247.05C337.166 248.062 322.3 248.947 307.451 250.117C305.129 250.298 303.796 249.593 302.288 248.115C297.515 243.429 293.103 238.377 287.928 234.104C283.213 224.308 278.498 214.505 273.783 204.709C275.343 195.25 276.892 185.791 278.475 176.344C278.824 174.243 278.463 172.944 276.036 172.223C258.376 166.966 240.767 166.961 223.13 172.269C221.046 172.898 220.354 173.911 220.726 176.053C222.414 185.611 224.009 195.18 225.639 204.744C220.86 214.529 215.604 224.086 211.32 234.116C206.488 238.895 201.64 243.656 196.849 248.476C195.528 249.809 194.241 250.309 192.222 250.146C175.091 248.778 157.937 247.608 140.794 246.374L140.8 246.369Z" fill="#6A6D66"/>
<path d="M287.94 234.099C293.109 238.371 297.527 243.429 302.294 248.109C303.802 249.588 305.135 250.292 307.457 250.112C322.306 248.942 337.172 248.057 352.033 247.044C354.251 246.893 356.457 246.578 358.669 246.334C369.95 246.09 377.325 254.466 377.464 263.965C377.569 271.078 378.687 278.174 379.391 285.275C379.484 286.189 379.787 287.086 379.991 287.994C379.502 288.448 379.519 289.024 379.571 289.618C380.253 297.307 380.899 305.002 381.62 312.692C382.22 319.071 382.365 325.579 386.434 331.051C387.499 335.387 389.583 339.334 391.324 343.397C392.092 345.189 391.958 346.47 390.742 347.826C388.565 350.254 386.394 352.698 384.222 355.131C382.907 356.406 381.556 356.558 379.81 355.795C375.532 353.926 371.236 352.041 366.801 350.614C363.774 349.642 363.564 347.815 363.972 345.283C364.693 340.8 365.089 336.249 366.085 331.831C366.899 328.222 366.347 324.927 365.27 321.563C364.065 317.802 362.924 314.025 361.754 310.253C359.164 297.889 355.124 285.916 351.911 273.721C351.527 272.254 350.491 272.336 349.431 272.574C344.419 273.698 339.419 274.862 334.419 276.014C327.108 277.516 319.756 278.849 312.498 280.572C303.941 282.598 295.763 281.899 287.992 277.813C285.844 276.684 284.232 276.853 282.165 277.959C278.481 279.926 275.297 282.854 271.094 283.844C265.797 273.907 264.202 263.238 265.203 252.178C265.681 246.869 268.271 242.486 272.468 238.994C277.008 235.222 282.445 234.669 287.928 234.093L287.94 234.099Z" fill="#F7BB92"/>
<path d="M140.8 246.369C157.942 247.597 175.09 248.773 192.227 250.141C194.253 250.304 195.533 249.803 196.854 248.47C201.645 243.651 206.5 238.895 211.331 234.11C212.379 234.215 213.421 234.32 214.468 234.419C224.696 235.385 232.239 241.194 233.77 250.345C235.732 262.062 233.776 273.337 228.107 283.873C223.852 282.418 220.312 279.629 216.389 277.551C215.173 276.905 214.119 276.358 212.798 277.126C202.472 283.157 191.715 282.22 180.737 279.309C175.539 277.93 170.201 277.091 164.927 276.009C161.86 275.287 158.804 274.495 155.719 273.867C147.93 272.278 147.843 272.283 145.759 279.804C142.913 290.054 139.67 300.2 137.395 310.608C135.835 315.87 133.774 321.051 132.907 326.423C132.354 329.84 133.529 333.554 134.001 337.122C134.397 340.131 134.624 343.199 135.433 346.098C136.149 348.659 135.235 349.648 133.035 350.469C128.541 352.14 124.059 353.874 119.682 355.824C117.761 356.68 116.352 356.354 114.909 355.114C113.046 352.891 111.387 350.446 109.257 348.513C107.225 346.674 107.213 345.027 108.232 342.739C109.92 338.938 112.15 335.317 112.708 331.08C114.944 328.426 116.381 325.166 116.748 321.941C118.023 310.643 118.774 299.292 119.722 287.959C120.479 279.204 121.038 270.427 122.033 261.701C123.11 252.283 130.142 246.724 140.811 246.369H140.8Z" fill="#F7BB92"/>
<path d="M228.105 283.879C233.781 273.344 235.731 262.063 233.769 250.351C232.238 241.201 224.694 235.392 214.467 234.425C213.419 234.326 212.377 234.222 211.33 234.117C215.608 224.088 220.87 214.53 225.643 204.745C241.691 204.733 257.739 204.727 273.787 204.716C278.502 214.512 283.217 224.315 287.932 234.111C282.449 234.687 277.012 235.24 272.472 239.012C268.269 242.499 265.685 246.888 265.207 252.196C264.206 263.256 265.807 273.926 271.098 283.862C269.852 285.818 267.582 286.289 265.83 287.506C264.998 287.459 264.264 287.215 263.537 286.755C253.478 280.457 243.682 281.12 234.13 287.913C232.191 286.464 229.677 285.876 228.099 283.885L228.105 283.879Z" fill="#8A8AD9"/>
<path d="M236.028 357.867C225.446 352.046 220.655 341.347 223.438 329.67C224.142 326.708 224.957 323.774 225.72 320.829C229.451 317.616 233.164 314.385 236.919 311.195C237.711 310.526 238.595 309.577 239.503 309.501C247.484 308.814 255.674 305.712 263.101 311.795C265.133 313.459 267.845 314.292 270.243 315.508C271.71 318.291 273.247 321.032 274.626 323.855C280.005 334.839 277 348.5 265.5 356.5C260.5 350 259 346 251.029 343.641C243.252 344.438 237.518 349.869 236.017 357.867H236.028Z" fill="#7A4821"/>
<path d="M271.938 317.82C269.685 316.353 267.077 315.235 265.238 313.361C258.509 306.51 250.034 308.716 242.019 308.541C241.111 308.524 240.121 309.368 239.265 309.95C235.191 312.715 231.145 315.526 227.094 318.32C227.076 311.801 228.404 305.456 231.588 299.892C233.834 295.963 234.323 292.115 234.137 287.907C243.689 281.119 253.486 280.45 263.544 286.748C264.272 287.208 265.011 287.453 265.837 287.499C264.609 290.8 264.563 293.931 266.39 297.156C269.999 303.541 272.432 310.305 271.938 317.82Z" fill="#F7BB92"/>
<path d="M386.44 331.057C382.371 325.585 382.219 319.072 381.626 312.698C380.904 305.009 380.258 297.313 379.577 289.624C379.524 289.03 379.507 288.454 379.996 288C387.167 297.587 394.385 307.139 401.475 316.784C403.402 319.403 405.235 322.157 406.143 325.37C401.242 326.813 396.341 328.263 391.434 329.706C389.612 329.572 388.029 330.329 386.434 331.057H386.44Z" fill="#6C6D66"/>
<path d="M119.71 287.958C118.761 299.291 118.01 310.648 116.736 321.94C116.375 325.165 114.937 328.425 112.696 331.079C111.206 330.025 109.5 329.752 107.737 329.682C102.859 328.221 97.975 326.754 93.0972 325.293C94.337 322.109 96.06 319.175 98.0914 316.463C105.239 306.916 112.067 297.126 119.71 287.958Z" fill="#6C6D66"/>
<path d="M93.0981 325.295C97.976 326.756 102.86 328.223 107.738 329.684C106.352 333.147 105.095 336.663 103.558 340.057C99.4661 349.108 99.4196 349.085 105.991 356.5C106.143 356.669 106.23 356.896 106.352 357.1C102.138 357.123 97.9236 357.222 93.7151 357.141C88.3541 357.042 85.1585 352.903 86.3983 347.688C88.2086 340.097 89.3146 332.297 93.0923 325.295H93.0981Z" fill="#F7BB92"/>
<path d="M391.44 329.706C396.341 328.262 401.242 326.813 406.149 325.369C410.282 332.872 411.702 341.202 413.146 349.462C413.839 353.431 410.317 356.976 406.172 357.104C401.72 357.244 397.261 357.122 392.802 357.116C394.217 355.579 395.509 353.909 397.08 352.547C399.286 350.632 399.502 348.717 398.303 346.074C395.852 340.69 393.71 335.166 391.446 329.7L391.44 329.706Z" fill="#F7BB92"/>
<path d="M261.641 358.582C260.785 359.397 260.93 360.462 260.82 361.504C260.203 367.523 255.418 371.935 249.58 371.941C243.753 371.941 238.916 367.482 238.322 361.51C238.217 360.474 238.427 359.385 237.577 358.547C238.538 358.139 238.747 357.255 239.137 356.381C241.116 351.958 244.527 349.49 249.44 349.379C254.213 349.274 258.142 351.894 260.046 356.445C260.418 357.336 260.686 358.18 261.646 358.576L261.641 358.582Z" fill="#7B4B24"/>
<path d="M137.394 310.609C139.67 300.201 142.912 290.056 145.759 279.805C147.848 272.285 147.93 272.273 155.718 273.868C158.803 274.497 161.859 275.294 164.927 276.01C155.747 287.541 146.568 299.072 137.388 310.609H137.394Z" fill="#6D6E67"/>
<path d="M334.424 276.019C339.43 274.867 344.43 273.703 349.436 272.579C350.496 272.341 351.526 272.265 351.916 273.726C355.129 285.921 359.169 297.894 361.759 310.258C352.341 299.088 343.423 287.521 334.424 276.014V276.019Z" fill="#6D6E67"/>
<path d="M261.64 358.584C260.68 358.188 260.412 357.35 260.039 356.453C258.142 351.895 254.213 349.276 249.434 349.387C244.521 349.497 241.11 351.965 239.131 356.389C238.741 357.256 238.537 358.147 237.571 358.554C235.918 358.24 234.538 357.437 233.362 356.255C235.714 348.467 241.995 343.682 249.818 343.723C257.333 343.764 263.642 348.77 265.796 356.395C264.603 357.495 263.276 358.333 261.64 358.589V358.584Z" fill="#5C381A"/>
<path d="M391.44 329.706C393.71 335.172 395.846 340.696 398.297 346.08C399.502 348.723 399.287 350.638 397.075 352.553C395.509 353.909 394.211 355.585 392.796 357.122C390.951 357.169 389.106 357.163 387.267 357.285C385.625 357.39 384.624 356.738 384.234 355.143C386.405 352.71 388.57 350.265 390.753 347.838C391.97 346.487 392.104 345.207 391.335 343.408C389.595 339.339 387.511 335.399 386.446 331.062C388.035 330.335 389.618 329.578 391.446 329.712L391.44 329.706Z" fill="#DEA881"/>
<path d="M106.357 357.098C106.241 356.894 106.148 356.667 105.996 356.498C99.4247 349.083 99.4713 349.106 103.563 340.054C105.1 336.661 106.357 333.145 107.743 329.682C109.506 329.751 111.218 330.025 112.702 331.079C112.143 335.322 109.92 338.937 108.226 342.738C107.213 345.02 107.219 346.673 109.25 348.512C111.381 350.439 113.04 352.889 114.902 355.113C114.716 356.661 113.843 357.336 112.289 357.267C110.31 357.179 108.331 357.15 106.352 357.092L106.357 357.098Z" fill="#DEA881"/>
<path d="M273.795 204.709C257.747 204.72 241.699 204.726 225.65 204.738C224.021 195.174 222.426 185.599 220.738 176.047C220.359 173.911 221.052 172.892 223.142 172.263C240.785 166.955 258.387 166.961 276.047 172.217C278.469 172.939 278.836 174.231 278.486 176.338C276.903 185.791 275.355 195.25 273.795 204.703V204.709Z" fill="#F7BB92"/>
</g>
</svg>
