<svg width="500" height="501" viewBox="0 0 500 501" fill="none" xmlns="http://www.w3.org/2000/svg">
<path d="M141.591 183.057C138.468 189.12 165.841 199.408 172.822 204.919L184.213 205.471C238.959 238.355 268.537 247.541 268.537 247.541C300.32 268.668 364.069 299.532 377.847 303.941C391.626 308.35 403.567 281.344 391.075 273.628C378.582 265.912 366.824 260.585 353.781 253.971C340.921 247.357 291.318 231.191 279.376 226.598C277.723 226.047 191.377 191.508 191.377 191.508C191.377 191.508 188.071 189.671 183.661 185.078C177.599 178.648 165.841 173.321 158.309 173.137C151.879 172.953 144.714 176.995 141.591 183.057Z" fill="#ECAD83"/>
<path d="M166.209 198.305C166.209 198.305 158.309 193.345 155.37 197.386C152.798 200.693 152.246 201.979 172.822 205.102C172.822 204.919 173.741 202.347 166.209 198.305Z" fill="#ECAD83"/>
<path d="M237.235 128.322C242.235 134.052 221.125 158.452 219.828 164.182C219.273 166.955 220.94 171.576 217.421 176.937C212.792 183.961 204.458 183.961 202.977 186.549C195.014 199.858 175.941 226.846 166.126 242.743C163.904 246.44 161.496 250.137 158.904 253.834C148.534 268.991 124.09 238.307 128.534 233.316C145.756 212.798 186.681 175.643 193.718 168.989C193.718 168.989 211.31 145.328 216.125 140.152C219.088 137.195 232.236 122.592 237.235 128.322Z" fill="#D89D75"/>
<path d="M116.785 304.085C131.32 288.616 148.246 268.543 158.733 253.443C152.478 251.785 132.056 237.606 128.56 233.002C124.328 238.158 57.9097 296.534 59.0136 316.423C60.3015 337.232 160.021 377.745 181.548 385.848C203.074 393.951 211.905 396.16 257.717 398.002C261.581 386.585 276.116 394.687 267.1 362.461C255.877 322.868 116.785 304.085 116.785 304.085Z" fill="#333333"/>
<path d="M267.288 337.188C263.397 335.173 248.387 326.747 239.863 324.915C214.663 319.603 195.947 339.203 195.947 339.203C195.947 339.203 176.861 385.363 189.091 390.675C208.918 399.284 249.128 397.819 261.358 398.002C269.697 398.002 281 364.298 281 364.298C281 364.298 271.179 339.02 267.288 337.188Z" fill="#3D3C3C"/>
<path d="M217.235 128.322C222.235 134.052 201.125 158.452 199.828 164.182C199.273 166.955 200.94 171.576 197.421 176.937C192.792 183.961 184.458 183.961 182.977 186.549C175.014 199.858 155.941 226.846 146.126 242.743C143.904 246.44 141.496 250.137 138.904 253.834C128.534 268.991 104.09 238.307 108.534 233.316C125.756 212.798 166.681 175.643 173.718 168.989C173.718 168.989 191.31 145.328 196.125 140.152C198.903 137.195 212.236 122.592 217.235 128.322Z" fill="#ECAD83"/>
<path d="M96.7849 304.085C111.32 288.616 128.246 268.543 138.733 253.443C132.478 251.785 112.056 237.606 108.56 233.002C104.328 238.158 37.9097 296.534 39.0136 316.423C40.3015 337.232 140.021 377.745 161.548 385.848C183.074 393.951 191.905 396.16 237.717 398.002C241.581 386.585 256.116 394.687 247.1 362.461C235.693 322.868 96.7849 304.085 96.7849 304.085Z" fill="#3D3C3C"/>
<path d="M411.748 341.095C423.442 321.82 407.911 302.361 402.246 274.642C401.15 271.521 389.455 261.608 382.329 260.507C374.289 259.222 365.701 260.14 360.037 266.198C354.738 270.603 348.342 281.985 328.608 319.433C318.741 338.158 285.851 341.829 266.847 337.056C266.847 337.056 267.395 352.66 266.116 367.713C264.837 382.949 261 398.002 261 398.002C341.582 396.717 371.366 385.703 390.734 351.375C390.552 351.742 407.911 347.52 411.748 341.095Z" fill="#FF8AA0"/>
<path d="M406.537 275.978C406.537 275.978 410.511 259.909 419 247.576L399.132 233.002C395.7 248.324 378 260.095 378 260.095C398.59 270.185 401.48 281.583 405.273 287.002L406.537 275.978Z" fill="#ECAD83"/>
<path d="M450.162 231.332C460.057 225.308 459.517 214.902 458.437 208.696C455.379 189.528 446.024 183.869 433.251 178.757C416.34 171.821 392.054 214.72 390.434 222.935C386.477 244.293 410.583 263.096 421.378 267.842C433.431 273.136 431.992 267.659 433.611 262.548C433.611 262.365 434.51 261.818 434.51 261.818C435.23 260.175 435.95 257.802 438.108 255.976C438.108 255.976 438.288 254.333 438.468 253.421C438.648 252.873 438.828 252.508 439.548 252.508C441.527 252.508 443.506 252.69 444.405 252.143C447.823 250.865 445.664 234.07 450.162 231.332Z" fill="#F6BB92"/>
<path d="M430 256.002C430 256.002 430.951 257.476 436.848 260.002C437.799 260.002 439.321 259.581 438.94 257.476C438.56 255.791 434.375 257.265 430 256.002Z" fill="#D6876B"/>
<path d="M430 256.002C430 256.002 430 259.476 435.318 262.949C436.136 263.142 437.159 262.756 437.364 262.563C438.795 261.02 437.364 259.669 437.364 259.669C431.023 257.353 430 256.002 430 256.002Z" fill="#CC785E"/>
<path d="M434.235 174.953C413.054 166.407 372.532 185.914 387.083 233.844C388.004 237.002 391.319 241.647 399.976 239.417C406.054 237.745 411.028 234.401 411.028 234.401C412.501 233.287 414.159 232.172 415.816 231.057C417.658 229.757 420.421 218.611 422.816 219.168C444.918 224.184 458.18 216.753 460.39 210.994C463.153 196.317 456.89 184.056 434.235 174.953Z" fill="#602F0F"/>
<path d="M410.052 227.095C409.53 237.436 413.006 239.397 418.567 241.002L421 225.669L420.479 218.894C415.091 217.289 410.573 216.754 410.052 227.095Z" fill="#F6BB92"/>
<path d="M387.852 194.161C384.61 187.956 390.914 178.831 401.721 173.538C412.527 168.246 424.055 168.976 427.116 175.181C430.358 181.386 424.415 187.773 413.608 193.066C402.801 198.358 390.914 200.366 387.852 194.161Z" fill="#4C230C"/>
<path d="M423.593 222.189C423.961 220.351 424.512 218.882 425.063 217.596C425.798 215.759 426.533 214.84 426.533 214.84L419.552 214.656C419.184 215.575 418.817 216.493 418.449 217.412C418.449 217.412 419.184 217.412 420.47 217.596H420.286C420.654 219.249 420.838 221.821 420.654 225.312C420.654 225.312 422.307 227.884 423.593 222.189Z" fill="#602F0F"/>
<path d="M384.461 192.611C380.97 185.997 388.135 176.076 400.26 170.381C412.385 164.686 425.061 165.237 428.552 171.667C432.043 178.097 425.429 185.262 413.304 190.957C400.995 196.836 387.951 199.224 384.461 192.611Z" fill="#602F0F"/>
<path d="M396.029 174.888C395.702 174.244 398.155 172.471 401.426 170.86C404.696 169.249 407.64 168.604 407.967 169.249C408.294 169.893 406.168 171.182 402.897 172.794C399.627 174.244 396.356 175.372 396.029 174.888Z" fill="#4C230C"/>
<path d="M120.647 205.654C118.258 212.084 146.918 218.697 154.45 223.474L165.84 222.555C224.261 248.275 253.839 254.338 253.839 254.338C288.01 271.423 355.984 293.285 370.314 295.857C384.644 298.429 393.095 270.321 379.684 264.258C366.456 258.196 353.964 254.338 340.369 249.561C326.774 244.601 274.599 235.415 262.29 232.292C260.637 231.925 171.536 208.042 171.536 208.042C171.536 208.042 168.045 206.756 163.085 202.531C156.104 196.835 143.978 193.161 136.446 193.896C129.832 194.263 123.035 199.04 120.647 205.654Z" fill="#F6BB92"/>
<path d="M147.103 217.595C147.103 217.595 138.652 213.737 136.264 217.963C134.243 221.453 133.875 222.923 154.451 223.29C154.451 223.474 155.186 220.718 147.103 217.595Z" fill="#F6BB92"/>
</svg>
