<svg width="500" height="500" viewBox="0 0 500 500" fill="none" xmlns="http://www.w3.org/2000/svg">
<path d="M186.047 223.102C179.468 233.051 173.249 243.241 166.911 253.311C159.609 264.865 152.347 276.38 145.046 287.934C144.845 288.255 144.645 288.576 144.404 288.897C144.203 289.178 143.922 289.298 143.602 289.097C143.481 289.017 143.401 288.937 143.281 288.897C133.612 282.277 123.261 276.941 112.71 271.926C103.202 267.433 93.5732 263.221 84.0249 258.848C80.5746 257.283 77.2046 255.558 73.8346 253.833C72.7514 253.271 71.7885 252.549 70.7455 251.867C69.5419 253.752 67.897 255.317 66.4928 257.002C64.4067 259.489 62.3205 261.977 60.1139 264.384C59.1511 265.467 58.4289 266.751 57.2655 267.674C57.6266 268.476 58.3888 268.877 59.0307 269.399C65.0887 274.334 71.3071 279.108 77.5256 283.882C86.2314 290.582 94.857 297.362 103.523 304.062C110.142 309.157 116.762 314.212 123.422 319.227C125.147 320.551 126.992 321.714 128.798 322.918C131.526 324.763 134.214 326.568 136.942 328.374C137.423 328.695 137.824 329.136 138.426 329.176C138.426 328.574 138.065 328.093 137.744 327.611C136.46 325.806 135.899 323.68 135.377 321.554C134.655 318.705 134.535 315.776 134.535 312.808C134.535 309.397 134.976 306.068 135.778 302.778C136.581 299.408 137.744 296.158 139.349 293.069C140.031 291.785 141.034 290.782 142.197 289.98C143.361 289.178 144.685 289.819 144.925 291.224C145.046 291.865 145.046 292.507 144.725 293.109C144.444 293.671 144.163 294.273 143.882 294.834C142.558 297.402 141.555 300.09 140.833 302.898C140.232 305.305 139.71 307.753 139.59 310.24C139.509 311.444 139.71 312.687 139.269 313.851C139.188 314.011 139.188 314.252 139.269 314.412C139.87 316.338 139.469 318.344 139.951 320.31C140.553 322.837 141.235 325.244 143.12 327.17C143.441 327.491 143.682 327.852 143.922 328.253C144.324 328.935 144.203 329.537 143.922 330.259C143.602 331.062 142.759 331.022 142.318 331.503C143.521 332.506 144.925 333.108 146.33 333.75C146.891 334.031 147.493 334.191 147.774 334.913C147.894 335.314 148.376 335.395 148.777 335.314C149.7 335.114 150.542 335.435 151.385 335.796C152.869 336.438 154.313 337.039 155.838 337.641C156.6 337.922 157.402 338.163 158.205 338.363C159.97 338.805 161.655 339.326 163.3 340.048C164.544 340.57 165.827 341.011 167.111 341.412C168.997 342.054 170.842 342.736 172.688 343.499C173.811 343.98 174.975 344.301 176.138 344.702C181.273 346.467 186.449 348.273 191.624 349.998C198.565 352.285 205.625 354.13 212.767 355.695C216.698 356.577 220.63 357.46 224.602 358.222C228.493 358.985 232.425 359.707 236.357 360.228C239.406 360.67 242.495 360.79 245.544 361.071C250.679 361.512 255.814 361.512 260.909 361.592C262.554 361.432 264.199 361.592 265.884 361.592C266.045 361.592 266.245 361.753 266.406 361.793C266.767 361.793 267.088 361.793 267.449 361.793C267.77 361.472 268.171 361.552 268.572 361.472C268.733 359.506 268.452 357.54 268.372 355.534C268.171 351.563 268.211 347.631 268.011 343.659C267.69 337.039 267.649 330.38 267.529 323.72C267.529 322.236 267.529 320.751 267.369 319.307C267.208 317.822 267.208 316.378 267.248 314.894C266.606 314.493 265.964 314.011 265.323 313.65C259.586 310.28 253.808 306.91 248.071 303.5C244.822 301.574 241.412 299.889 237.961 298.365C235.915 297.442 233.789 296.72 231.623 296.238C227.089 295.155 222.556 294.553 217.902 294.995C214.532 295.316 211.162 295.677 207.752 295.958C202.015 296.479 196.278 297.001 190.541 297.522C189.979 297.562 189.377 297.603 188.816 297.603C188.374 297.603 188.214 297.402 188.374 297.001C188.936 295.717 189.578 294.433 190.099 293.149C191.463 289.699 192.747 286.209 194.071 282.718C199.768 267.553 205.585 252.429 211.001 237.143C209.918 235.859 208.634 234.816 207.07 234.174C201.814 232.088 196.92 229.44 192.025 226.632C190.34 225.669 188.856 224.506 187.331 223.342C186.97 223.061 186.609 222.821 186.128 222.981L186.047 223.102Z" fill="#696D65"/>
<path d="M186.048 223.101C186.529 222.94 186.89 223.181 187.251 223.462C188.776 224.625 190.26 225.829 191.945 226.752C196.84 229.56 201.734 232.208 206.99 234.294C208.554 234.896 209.838 235.939 210.921 237.263C211.884 237.544 212.566 238.186 213.329 238.787C215.776 240.753 218.143 242.759 220.871 244.364C224.361 246.41 227.731 248.576 231.182 250.703C234.953 253.03 238.684 255.356 242.455 257.683C246.788 260.371 251.161 263.059 255.494 265.787C258.864 267.914 262.314 269.839 265.403 272.367C265.724 272.648 266.165 272.848 266.566 273.009C267.85 273.57 269.174 274.092 270.458 274.614C276.396 277.141 282.373 279.628 288.311 282.156C293.486 284.322 298.702 286.489 303.877 288.655C304.399 288.896 304.96 289.097 305.281 289.618C305.883 289.578 306.405 289.738 306.966 289.979C308.491 290.661 310.055 291.263 311.58 291.905C315.873 293.71 320.206 295.556 324.498 297.401C326.625 298.324 328.751 299.247 330.837 300.209C332.723 301.092 333.926 302.496 333.605 304.783C333.565 305.144 333.605 305.545 333.605 305.946C333.525 307.511 333.886 309.036 334.448 310.44C336.735 316.377 341.95 318.103 347.446 316.578C349.171 316.097 350.696 315.054 352.02 313.81C353.585 312.366 354.828 310.64 355.911 308.835C358.72 304.221 359.843 299.126 360.124 293.831C360.244 291.784 359.402 289.939 358.64 288.094C358.479 287.692 358.158 287.331 357.797 287.05C355.952 285.486 354.066 283.921 351.859 282.798C349.533 281.594 347.045 280.672 344.638 279.709C340.426 278.024 336.173 276.419 331.76 275.215C330.035 274.734 328.35 274.092 326.665 273.53C326.264 273.41 325.983 273.25 325.822 272.848C324.98 272.848 324.177 272.648 323.375 272.327C319.243 270.762 315.11 269.157 310.978 267.593C307.568 266.309 304.118 265.065 300.708 263.741C294.931 261.495 289.113 259.328 283.376 256.881C282.373 256.44 281.33 256.079 280.287 255.838C279.445 255.637 278.682 255.356 278 254.915C273.266 251.986 268.492 249.058 263.758 246.169C258.623 243.04 253.448 239.911 248.312 236.781C244.06 234.174 239.767 231.606 235.514 228.998C231.382 226.471 227.25 223.863 223.078 221.336C222.235 220.814 221.513 220.292 220.911 219.49C220.47 218.928 219.948 218.487 219.467 217.966C218.103 218.567 216.859 218.206 215.736 217.324C215.615 217.243 215.535 217.123 215.415 217.083C214.572 216.722 214.051 215.92 213.329 215.438C211.363 214.114 209.678 212.469 207.832 211.025C206.669 210.102 205.666 209.019 204.502 208.136C202.416 206.612 200.811 204.606 198.966 202.841C198.284 202.159 198.404 201.316 198.685 200.514C198.846 199.992 199.648 199.792 200.571 199.952C200.932 200.032 201.333 200.153 201.654 200.353C203.54 201.637 205.465 202.921 207.311 204.285C209.477 205.93 211.563 207.735 213.73 209.42C215.696 210.945 217.581 212.55 219.346 214.355C219.868 214.917 220.149 215.478 220.189 216.24C220.71 216.08 221.072 215.719 221.433 215.358C222.797 213.994 224.241 212.71 225.525 211.266C227.771 208.738 229.055 205.85 229.055 202.399C229.055 200.634 228.815 198.949 228.413 197.264C227.17 192.45 226.046 187.555 224.682 182.781C223.88 179.973 222.837 177.205 221.673 174.477C221.232 173.474 220.831 172.471 220.349 171.508C218.745 168.258 216.819 165.249 214.291 162.682C211.724 160.114 208.675 158.429 205.064 158.068C201.453 157.707 198.364 158.75 196.318 162.04C195.636 163.163 195.315 164.407 195.195 165.691C195.034 167.576 195.275 169.381 195.837 171.187C196.759 174.236 198.244 176.964 200.25 179.411C200.932 180.254 201.253 180.976 201.052 182.179C200.21 186.512 199.528 190.845 198.806 195.218C198.605 196.422 198.444 197.625 198.244 198.829C198.083 199.872 197.883 200.113 196.88 199.992C195.596 199.872 194.633 200.353 193.751 201.156C193.67 201.236 193.55 201.316 193.47 201.437C190.1 204.887 186.89 208.417 184.363 212.55C183.44 214.074 182.718 215.719 182.317 217.484C182.076 218.487 182.317 219.249 182.999 219.931C183.6 220.533 184.242 221.055 184.884 221.576C185.446 222.018 186.008 222.459 186.208 223.181L186.048 223.101Z" fill="#FFB68B"/>
<path d="M362.17 304.742C365.018 303.579 367.706 302.094 370.434 300.61C374.005 298.724 377.535 296.758 381.066 294.792C386.723 291.623 392.339 288.454 397.996 285.244C401.366 283.359 404.696 281.473 408.066 279.627C409.149 279.026 410.032 278.223 410.995 277.461C415.969 273.489 420.864 269.477 425.798 265.506C429.931 262.176 434.103 258.886 438.275 255.556C441.886 252.668 445.457 249.739 449.027 246.85C451.796 244.564 454.564 242.317 457.332 239.99C458.054 239.388 458.816 239.027 459.659 238.706C462.507 237.743 465.356 236.74 468.204 235.777C469.969 235.176 471.293 234.092 472.296 232.488C475.586 227.112 478.996 221.856 482.126 216.4C482.567 215.638 482.968 214.795 483.249 213.953C483.53 213.15 483.449 212.428 483.088 211.746C482.888 211.425 482.727 211.064 482.487 210.743C480.842 208.537 479.197 206.33 477.552 204.124C476.629 202.96 476.268 202.88 474.944 203.361C474.663 203.482 474.342 203.602 474.062 203.722C468.244 206.531 462.427 209.379 456.57 212.187C456.209 212.348 455.888 212.549 455.527 212.709C454.724 213.07 454.203 213.712 453.882 214.514C453.4 215.838 452.879 217.162 452.397 218.486C451.515 220.893 450.672 223.3 449.87 225.748C449.629 226.51 449.228 227.072 448.506 227.513C443.05 230.883 437.634 234.293 432.218 237.703C427.644 240.552 423.11 243.44 418.537 246.289C414.405 248.896 410.313 251.464 406.18 254.072C405.619 254.393 405.057 254.714 404.495 255.035C400.122 257.321 395.749 259.648 391.417 261.935C391.096 262.095 390.694 262.216 390.333 262.336C390.333 262.778 390.414 263.259 390.293 263.66C389.892 264.783 389.972 265.947 389.972 267.07C389.972 267.311 389.972 267.592 389.972 267.833C389.531 270.721 388.528 271.965 385.96 272.567C384.556 272.887 383.112 273.208 381.587 273.048C381.226 273.008 380.785 272.968 380.464 273.128C379.421 273.529 378.338 273.409 377.255 273.449C376.934 273.449 376.572 273.409 376.292 273.489C375.128 273.931 373.885 273.81 372.681 273.81C372.36 273.81 372.039 273.81 371.718 273.85C370.795 274.051 370.153 274.412 369.913 275.535C369.512 277.341 368.91 279.106 368.348 280.871C366.904 285.244 365.419 289.577 363.975 293.95C363.654 294.873 363.333 295.755 363.093 296.678C362.972 297.039 362.812 297.24 362.451 297.32C362.25 299.807 362.29 302.255 362.33 304.742H362.17Z" fill="#E6A47C"/>
<path d="M344.156 211.829C343.354 210.305 342.15 209.262 340.425 208.78C333.766 206.935 328.309 208.86 323.856 213.956C321.369 216.804 319.925 220.254 319.042 223.905C318.159 227.556 317.919 231.247 318.079 234.978C318.44 242.44 320.326 249.501 323.535 256.241C324.257 257.806 324.859 259.45 325.541 261.015C325.862 261.697 326.223 262.419 326.624 263.021C327.587 264.465 328.951 265.348 330.717 265.549C331.88 265.709 332.883 265.428 333.766 264.706C334.448 264.184 334.969 263.543 335.41 262.82C336.293 261.336 337.296 259.972 337.978 258.407C338.46 258.488 338.58 258.768 338.74 259.049C340.265 261.737 341.95 264.305 344.076 266.551C344.237 266.712 344.317 266.993 344.437 267.234C345.48 267.514 346.162 267.073 346.684 266.231C347.005 265.749 347.286 265.228 347.526 264.746C348.73 262.419 349.893 260.052 351.097 257.725C351.298 257.324 351.498 256.923 351.699 256.522C352.1 255.8 352.702 255.398 353.544 255.318C355.149 255.198 356.754 255.077 358.318 254.917C360.605 254.716 362.892 254.476 365.219 254.315C366.222 254.235 366.824 253.794 367.185 252.791C368.629 248.819 370.234 244.887 371.638 240.915C371.999 239.953 372.48 239.471 373.403 239.15C378.619 237.385 383.794 235.54 389.009 233.734C389.21 228.438 387.605 223.785 383.914 219.933C381.628 217.566 378.899 215.761 376.091 214.116C375.529 213.795 374.968 213.514 374.406 213.233C370.996 211.388 367.385 210.586 363.534 210.666C357.797 210.746 352.22 211.589 346.804 213.635C346.403 213.795 346.002 213.996 345.52 213.915C345.561 214.397 345.44 214.758 345.119 215.159C344.317 216.082 343.354 216.804 342.311 217.486C340.907 218.409 339.703 219.572 338.74 220.936C337.376 222.862 336.373 225.028 335.611 227.275C335.17 228.599 334.688 229.923 334.769 231.367C334.849 232.771 333.886 233.373 332.923 234.055C332.682 234.216 332.201 234.015 332.161 233.694C332.121 233.373 332.081 233.052 332.081 232.731C332.081 230.244 332.482 227.797 333.124 225.389C334.327 220.856 336.775 217.125 340.185 213.956C341.308 212.912 342.632 212.11 344.156 211.749V211.829Z" fill="#894100"/>
<path d="M362.17 304.742C362.17 302.255 362.09 299.807 362.29 297.32C362.05 295.876 362.21 294.391 362.17 292.907C362.13 291.703 362.17 290.46 362.009 289.256C361.849 287.732 361.648 286.207 361.327 284.723C360.846 282.556 360.244 280.39 358.96 278.504C357.797 276.739 356.272 275.255 354.628 273.931C352.622 272.326 350.415 271.122 347.767 270.721C346.082 270.44 344.397 269.959 342.752 269.558C341.308 269.558 339.864 269.237 338.379 269.277C336.975 269.277 335.571 269.477 334.247 269.798C331.359 270.521 328.55 271.524 325.822 272.807C325.983 273.209 326.263 273.369 326.665 273.489C328.39 274.051 330.035 274.693 331.76 275.174C336.173 276.378 340.385 277.983 344.638 279.668C347.085 280.631 349.532 281.553 351.859 282.757C354.026 283.88 355.911 285.445 357.797 287.009C358.118 287.29 358.479 287.651 358.639 288.053C359.402 289.898 360.204 291.744 360.124 293.79C359.843 299.085 358.72 304.18 355.911 308.794C354.788 310.599 353.584 312.325 352.02 313.769C350.696 315.013 349.171 316.056 347.446 316.537C341.95 318.062 336.734 316.336 334.448 310.399C333.886 308.955 333.525 307.47 333.605 305.906C333.605 305.504 333.525 305.143 333.605 304.742C333.886 302.455 332.723 301.091 330.837 300.169C328.751 299.166 326.625 298.243 324.498 297.36C320.205 295.515 315.873 293.709 311.58 291.864C310.055 291.222 308.491 290.58 306.966 289.938C306.445 289.697 305.883 289.497 305.281 289.577C304.318 290.7 303.035 291.503 301.991 292.546C300.427 294.07 298.742 295.394 296.896 296.598C295.653 297.4 294.489 298.283 293.326 299.166C291.721 300.409 290.116 301.693 288.351 302.736C287.308 303.338 286.265 303.98 285.422 304.862C285.783 305.906 286.506 306.748 287.147 307.591C289.434 310.76 291.721 313.889 294.008 317.059C297.097 321.311 300.146 325.564 303.195 329.816C307.167 335.313 311.139 340.769 315.11 346.265C315.552 346.145 315.993 346.065 316.394 345.864C323.495 342.614 330.476 339.124 337.376 335.473C341.91 333.066 346.363 330.579 350.776 328.011C353.143 326.647 355.229 325.002 356.995 322.956C358.599 321.111 359.883 319.065 360.445 316.617C360.966 314.451 361.368 312.244 361.448 309.998C361.488 308.232 361.889 306.467 362.13 304.702L362.17 304.742Z" fill="#8A8ADE"/>
<path d="M315.15 346.305C311.179 340.809 307.207 335.353 303.235 329.856C300.186 325.604 297.097 321.351 294.048 317.098C291.761 313.929 289.474 310.8 287.187 307.63C286.546 306.748 285.823 305.945 285.462 304.902C284.861 304.983 284.419 305.263 283.898 305.584C280.086 307.871 276.275 310.198 272.464 312.445C270.779 313.448 269.054 314.451 267.168 315.052C267.128 316.537 267.128 317.981 267.288 319.466C267.449 320.91 267.409 322.394 267.449 323.879C267.609 330.538 267.65 337.158 267.93 343.818C268.131 347.79 268.091 351.721 268.291 355.693C268.372 357.659 268.652 359.625 268.492 361.631C268.532 361.751 268.572 361.831 268.572 361.952C271.862 361.831 275.031 361.27 278.201 360.347C287.027 357.699 295.773 354.73 304.278 351.2C307.127 350.036 309.975 348.833 312.783 347.629C313.586 347.268 314.468 346.947 315.15 346.385V346.305Z" fill="#FFB78A"/>
<path d="M57.2656 267.754C58.4291 266.831 59.1512 265.547 60.1141 264.464C62.2805 262.057 64.4068 259.569 66.493 257.082C67.9373 255.357 69.542 253.832 70.7456 251.947C69.9833 248.175 69.3014 244.404 68.3786 240.713C67.6565 237.865 66.4128 235.337 64.1661 233.291C62.7218 231.967 61.077 230.964 59.2315 230.403C54.2968 228.838 49.3622 227.233 44.3875 225.869C40.4558 224.746 36.5643 223.422 32.6727 222.178C31.8302 221.898 30.9476 221.617 30.1051 221.336C28.2596 220.694 26.3339 220.574 24.4082 220.774C20.5969 221.175 17.5077 223.944 16.7054 227.755C16.3042 229.6 16.6251 231.285 17.1065 233.01C17.3874 234.013 17.9892 234.816 18.8317 235.498C20.3562 236.742 21.8005 238.106 23.325 239.389C25.7321 241.476 28.1794 243.562 30.6266 245.608C32.6727 247.373 34.6787 249.138 36.7247 250.863C39.3325 253.11 41.9803 255.357 44.588 257.603C45.8317 258.687 47.0754 259.81 48.3191 260.893C48.961 261.455 49.6029 261.936 50.2849 262.458C52.331 264.103 54.3771 265.748 56.4231 267.352C56.6639 267.553 56.9848 267.633 57.2656 267.754Z" fill="#FFB78B"/>
<path d="M342.792 269.56C344.477 269.962 346.122 270.443 347.807 270.724C350.415 271.125 352.662 272.329 354.668 273.933C356.272 275.257 357.797 276.742 359 278.507C360.244 280.393 360.846 282.559 361.367 284.725C361.688 286.21 361.889 287.734 362.049 289.259C362.17 290.462 362.17 291.666 362.21 292.91C362.25 294.394 362.09 295.838 362.33 297.323C362.691 297.243 362.852 297.042 362.972 296.681C363.253 295.758 363.574 294.876 363.855 293.953C365.299 289.58 366.784 285.247 368.228 280.874C368.789 279.109 369.391 277.344 369.792 275.538C370.033 274.415 370.675 274.054 371.598 273.853C371.919 273.773 372.24 273.853 372.561 273.813C373.764 273.813 375.008 273.933 376.171 273.492C376.452 273.372 376.813 273.452 377.134 273.452C378.217 273.452 379.301 273.532 380.344 273.131C380.705 273.011 381.106 273.011 381.467 273.051C382.951 273.211 384.436 272.89 385.84 272.569C388.408 271.968 389.411 270.724 389.852 267.835C389.852 267.595 389.852 267.314 389.852 267.073C389.852 265.91 389.772 264.786 390.173 263.663C390.293 263.262 390.213 262.78 390.213 262.339C390.213 261.657 390.654 261.336 391.176 261.055C392.74 260.092 394.305 259.089 395.91 258.127C396.512 257.765 397.033 257.284 397.515 256.763C397.916 256.321 397.956 255.88 397.675 255.358C397.475 254.957 397.234 254.596 396.993 254.195C394.907 251.066 392.781 247.936 390.654 244.847C390.414 244.486 390.213 244.085 390.173 243.644C390.012 242.56 389.892 241.517 389.772 240.434C389.571 238.228 389.29 236.021 389.009 233.814C383.794 235.62 378.619 237.425 373.403 239.231C372.48 239.551 371.959 240.033 371.638 240.996C370.234 244.968 368.629 248.899 367.185 252.871C366.824 253.834 366.262 254.315 365.219 254.395C362.932 254.596 360.645 254.797 358.318 254.997C356.714 255.118 355.109 255.278 353.544 255.398C352.702 255.479 352.1 255.88 351.699 256.602C351.458 257.003 351.298 257.404 351.097 257.806C349.893 260.133 348.73 262.5 347.526 264.826C347.246 265.348 346.965 265.829 346.684 266.311C346.162 267.153 345.44 267.595 344.437 267.314C344.076 267.314 343.795 267.434 343.675 267.715C343.354 268.317 343.073 268.959 342.752 269.601L342.792 269.56Z" fill="#FFB78A"/>
<path d="M142.318 331.583C142.759 331.061 143.642 331.141 143.922 330.339C144.203 329.617 144.324 328.975 143.922 328.333C143.682 327.972 143.441 327.571 143.12 327.25C141.235 325.324 140.552 322.917 139.951 320.389C139.469 318.424 139.87 316.418 139.269 314.492C139.229 314.331 139.229 314.091 139.269 313.93C139.71 312.767 139.509 311.523 139.59 310.32C139.75 307.832 140.232 305.385 140.833 302.978C141.555 300.169 142.558 297.481 143.882 294.914C144.163 294.352 144.444 293.75 144.725 293.189C145.046 292.587 145.046 291.945 144.925 291.303C144.685 289.899 143.361 289.297 142.197 290.059C141.034 290.862 140.031 291.865 139.349 293.149C137.744 296.238 136.581 299.487 135.778 302.857C134.976 306.147 134.535 309.477 134.535 312.887C134.535 315.856 134.695 318.785 135.377 321.633C135.899 323.719 136.46 325.846 137.744 327.691C138.065 328.173 138.386 328.654 138.426 329.256C139.269 329.938 140.031 330.82 141.114 331.222C141.235 331.262 141.355 331.302 141.475 331.382C141.716 331.462 141.997 331.543 142.237 331.623L142.318 331.583Z" fill="#494A45"/>
<path d="M220.149 216.2C220.109 215.478 219.828 214.876 219.306 214.314C217.541 212.549 215.655 210.904 213.69 209.379C211.523 207.694 209.437 205.929 207.27 204.244C205.425 202.84 203.539 201.596 201.614 200.313C201.293 200.112 200.932 199.992 200.531 199.911C199.608 199.751 198.805 199.951 198.645 200.473C198.364 201.275 198.244 202.158 198.926 202.8C200.771 204.565 202.376 206.571 204.462 208.096C205.626 208.978 206.629 210.061 207.792 210.984C209.638 212.428 211.363 214.073 213.288 215.397C214.01 215.879 214.532 216.681 215.375 217.042C215.495 217.082 215.575 217.203 215.695 217.283C216.819 218.165 218.062 218.527 219.427 217.925C219.667 217.323 219.868 216.761 220.109 216.16L220.149 216.2Z" fill="#E7A47C"/>
<path d="M344.157 211.826C342.632 212.187 341.308 212.99 340.185 214.033C336.775 217.162 334.327 220.893 333.124 225.467C332.482 227.914 332.081 230.321 332.081 232.808C332.081 233.129 332.081 233.45 332.161 233.771C332.201 234.052 332.683 234.293 332.923 234.132C333.886 233.49 334.849 232.849 334.769 231.444C334.688 230 335.13 228.676 335.611 227.352C336.373 225.106 337.376 222.939 338.741 221.013C339.703 219.649 340.907 218.486 342.311 217.563C343.314 216.921 344.317 216.159 345.119 215.236C345.44 214.875 345.561 214.474 345.521 213.993C345.079 213.27 344.598 212.548 344.157 211.826Z" fill="#653407"/>
<path d="M141.515 331.381C141.395 331.341 141.275 331.301 141.154 331.221C141.235 331.381 141.355 331.461 141.515 331.381Z" fill="#696D65"/>
</svg>
