<?xml version="1.0" encoding="UTF-8"?>
<svg xmlns="http://www.w3.org/2000/svg" version="1.1" viewBox="0 0 1417.3 1417.3">
  <defs>
    <style>
      .cls-1 {
        fill: #653407;
      }

      .cls-2 {
        fill: #e6a47c;
      }

      .cls-3 {
        fill: #ffb78b;
      }

      .cls-4 {
        fill: #696d65;
      }

      .cls-5 {
        fill: #ffb68b;
      }

      .cls-6 {
        fill: #8a8ade;
      }

      .cls-7 {
        fill: #494a45;
      }

      .cls-8 {
        fill: #894100;
      }

      .cls-9 {
        fill: #ffb78a;
      }

      .cls-10 {
        fill: #e7a47c;
      }
    </style>
  </defs>
  <!-- Generator: Adobe Illustrator 28.7.1, SVG Export Plug-In . SVG Version: 1.2.0 Build 142)  -->
  <g>
    <g id="_레이어_1" data-name="레이어_1">
      <g>
        <path class="cls-4" d="M867.9,616.8c16.4,24.8,31.9,50.2,47.7,75.3,18.2,28.8,36.3,57.5,54.5,86.3.5.8,1,1.6,1.6,2.4.5.7,1.2,1,2,.5.3-.2.5-.4.8-.5,24.1-16.5,49.9-29.8,76.2-42.3,23.7-11.2,47.7-21.7,71.5-32.6,8.6-3.9,17-8.2,25.4-12.5,2.7-1.4,5.1-3.2,7.7-4.9,3,4.7,7.1,8.6,10.6,12.8,5.2,6.2,10.4,12.4,15.9,18.4,2.4,2.7,4.2,5.9,7.1,8.2-.9,2-2.8,3-4.4,4.3-15.1,12.3-30.6,24.2-46.1,36.1-21.7,16.7-43.2,33.6-64.8,50.3-16.5,12.7-33,25.3-49.6,37.8-4.3,3.3-8.9,6.2-13.4,9.2-6.8,4.6-13.5,9.1-20.3,13.6-1.2.8-2.2,1.9-3.7,2,0-1.5.9-2.7,1.7-3.9,3.2-4.5,4.6-9.8,5.9-15.1,1.8-7.1,2.1-14.4,2.1-21.8,0-8.5-1.1-16.8-3.1-25-2-8.4-4.9-16.5-8.9-24.2-1.7-3.2-4.2-5.7-7.1-7.7-2.9-2-6.2-.4-6.8,3.1-.3,1.6-.3,3.2.5,4.7.7,1.4,1.4,2.9,2.1,4.3,3.3,6.4,5.8,13.1,7.6,20.1,1.5,6,2.8,12.1,3.1,18.3.2,3-.3,6.1.8,9,.2.4.2,1,0,1.4-1.5,4.8-.5,9.8-1.7,14.7-1.5,6.3-3.2,12.3-7.9,17.1-.8.8-1.4,1.7-2,2.7-1,1.7-.7,3.2,0,5,.8,2,2.9,1.9,4,3.1-3,2.5-6.5,4-10,5.6-1.4.7-2.9,1.1-3.6,2.9-.3,1-1.5,1.2-2.5,1-2.3-.5-4.4.3-6.5,1.2-3.7,1.6-7.3,3.1-11.1,4.6-1.9.7-3.9,1.3-5.9,1.8-4.4,1.1-8.6,2.4-12.7,4.2-3.1,1.3-6.3,2.4-9.5,3.4-4.7,1.6-9.3,3.3-13.9,5.2-2.8,1.2-5.7,2-8.6,3-12.8,4.4-25.7,8.9-38.6,13.2-17.3,5.7-34.9,10.3-52.7,14.2-9.8,2.2-19.6,4.4-29.5,6.3-9.7,1.9-19.5,3.7-29.3,5-7.6,1.1-15.3,1.4-22.9,2.1-12.8,1.1-25.6,1.1-38.3,1.3-4.1-.4-8.2,0-12.4,0-.4,0-.9.4-1.3.5-.9,0-1.7,0-2.6,0-.8-.8-1.8-.6-2.8-.8-.4-4.9.3-9.8.5-14.8.5-9.9.4-19.7.9-29.6.8-16.5.9-33.1,1.2-49.7,0-3.7,0-7.4.4-11,.4-3.7.4-7.3.3-11,1.6-1,3.2-2.2,4.8-3.1,14.3-8.4,28.7-16.8,43-25.3,8.1-4.8,16.6-9,25.2-12.8,5.1-2.3,10.4-4.1,15.8-5.3,11.3-2.7,22.6-4.2,34.2-3.1,8.4.8,16.8,1.7,25.3,2.4,14.3,1.3,28.6,2.6,42.9,3.9,1.4.1,2.9.2,4.3.2,1.1,0,1.5-.5,1.1-1.5-1.4-3.2-3-6.4-4.3-9.6-3.4-8.6-6.6-17.3-9.9-26-14.2-37.8-28.7-75.5-42.2-113.6,2.7-3.2,5.9-5.8,9.8-7.4,13.1-5.2,25.3-11.8,37.5-18.8,4.2-2.4,7.9-5.3,11.7-8.2.9-.7,1.8-1.3,3-.9Z"/>
        <path class="cls-5" d="M867.9,616.8c-1.2-.4-2.1.2-3,.9-3.8,2.9-7.5,5.9-11.7,8.2-12.2,7-24.4,13.6-37.5,18.8-3.9,1.5-7.1,4.1-9.8,7.4-2.4.7-4.1,2.3-6,3.8-6.1,4.9-12,9.9-18.8,13.9-8.7,5.1-17.1,10.5-25.7,15.8-9.4,5.8-18.7,11.6-28.1,17.4-10.8,6.7-21.7,13.4-32.5,20.2-8.4,5.3-17,10.1-24.7,16.4-.8.7-1.9,1.2-2.9,1.6-3.2,1.4-6.5,2.7-9.7,4-14.8,6.3-29.7,12.5-44.5,18.8-12.9,5.4-25.9,10.8-38.8,16.2-1.3.6-2.7,1.1-3.5,2.4-1.5-.1-2.8.3-4.2.9-3.8,1.7-7.7,3.2-11.5,4.8-10.7,4.5-21.5,9.1-32.2,13.7-5.3,2.3-10.6,4.6-15.8,7-4.7,2.2-7.7,5.7-6.9,11.4.1.9,0,1.9,0,2.9.2,3.9-.7,7.7-2.1,11.2-5.7,14.8-18.7,19.1-32.4,15.3-4.3-1.2-8.1-3.8-11.4-6.9-3.9-3.6-7-7.9-9.7-12.4-7-11.5-9.8-24.2-10.5-37.4-.3-5.1,1.8-9.7,3.7-14.3.4-1,1.2-1.9,2.1-2.6,4.6-3.9,9.3-7.8,14.8-10.6,5.8-3,12-5.3,18-7.7,10.5-4.2,21.1-8.2,32.1-11.2,4.3-1.2,8.5-2.8,12.7-4.2,1-.3,1.7-.7,2.1-1.7,2.1,0,4.1-.5,6.1-1.3,10.3-3.9,20.6-7.9,30.9-11.8,8.5-3.2,17.1-6.3,25.6-9.6,14.4-5.6,28.9-11,43.2-17.1,2.5-1.1,5.1-2,7.7-2.6,2.1-.5,4-1.2,5.7-2.3,11.8-7.3,23.7-14.6,35.5-21.8,12.8-7.8,25.7-15.6,38.5-23.4,10.6-6.5,21.3-12.9,31.9-19.4,10.3-6.3,20.6-12.8,31-19.1,2.1-1.3,3.9-2.6,5.4-4.6,1.1-1.4,2.4-2.5,3.6-3.8,3.4,1.5,6.5.6,9.3-1.6.3-.2.5-.5.8-.6,2.1-.9,3.4-2.9,5.2-4.1,4.9-3.3,9.1-7.4,13.7-11,2.9-2.3,5.4-5,8.3-7.2,5.2-3.8,9.2-8.8,13.8-13.2,1.7-1.7,1.4-3.8.7-5.8-.4-1.3-2.4-1.8-4.7-1.4-.9.2-1.9.5-2.7,1-4.7,3.2-9.5,6.4-14.1,9.8-5.4,4.1-10.6,8.6-16,12.8-4.9,3.8-9.6,7.8-14,12.3-1.3,1.4-2,2.8-2.1,4.7-1.3-.4-2.2-1.3-3.1-2.2-3.4-3.4-7-6.6-10.2-10.2-5.6-6.3-8.8-13.5-8.8-22.1,0-4.4.6-8.6,1.6-12.8,3.1-12,5.9-24.2,9.3-36.1,2-7,4.6-13.9,7.5-20.7,1.1-2.5,2.1-5,3.3-7.4,4-8.1,8.8-15.6,15.1-22,6.4-6.4,14-10.6,23-11.5,9-.9,16.7,1.7,21.8,9.9,1.7,2.8,2.5,5.9,2.8,9.1.4,4.7-.2,9.2-1.6,13.7-2.3,7.6-6,14.4-11,20.5-1.7,2.1-2.5,3.9-2,6.9,2.1,10.8,3.8,21.6,5.6,32.5.5,3,.9,6,1.4,9,.4,2.6.9,3.2,3.4,2.9,3.2-.3,5.6.9,7.8,2.9.2.2.5.4.7.7,8.4,8.6,16.4,17.4,22.7,27.7,2.3,3.8,4.1,7.9,5.1,12.3.6,2.5,0,4.4-1.7,6.1-1.5,1.5-3.1,2.8-4.7,4.1-1.4,1.1-2.8,2.2-3.3,4Z"/>
        <path class="cls-2" d="M428.9,820.3c-7.1-2.9-13.8-6.6-20.6-10.3-8.9-4.7-17.7-9.6-26.5-14.5-14.1-7.9-28.1-15.8-42.2-23.8-8.4-4.7-16.7-9.4-25.1-14-2.7-1.5-4.9-3.5-7.3-5.4-12.4-9.9-24.6-19.9-36.9-29.8-10.3-8.3-20.7-16.5-31.1-24.8-9-7.2-17.9-14.5-26.8-21.7-6.9-5.7-13.8-11.3-20.7-17.1-1.8-1.5-3.7-2.4-5.8-3.2-7.1-2.4-14.2-4.9-21.3-7.3-4.4-1.5-7.7-4.2-10.2-8.2-8.2-13.4-16.7-26.5-24.5-40.1-1.1-1.9-2.1-4-2.8-6.1-.7-2-.5-3.8.4-5.5.5-.8.9-1.7,1.5-2.5,4.1-5.5,8.2-11,12.3-16.5,2.3-2.9,3.2-3.1,6.5-1.9.7.3,1.5.6,2.2.9,14.5,7,29,14.1,43.6,21.1.9.4,1.7.9,2.6,1.3,2,.9,3.3,2.5,4.1,4.5,1.2,3.3,2.5,6.6,3.7,9.9,2.2,6,4.3,12,6.3,18.1.6,1.9,1.6,3.3,3.4,4.4,13.6,8.4,27.1,16.9,40.6,25.4,11.4,7.1,22.7,14.3,34.1,21.4,10.3,6.5,20.5,12.9,30.8,19.4,1.4.8,2.8,1.6,4.2,2.4,10.9,5.7,21.8,11.5,32.6,17.2.8.4,1.8.7,2.7,1,0,1.1-.2,2.3.1,3.3,1,2.8.8,5.7.8,8.5,0,.6,0,1.3,0,1.9,1.1,7.2,3.6,10.3,10,11.8,3.5.8,7.1,1.6,10.9,1.2.9-.1,2-.2,2.8.2,2.6,1,5.3.7,8,.8.8,0,1.7-.1,2.4.1,2.9,1.1,6,.8,9,.8.8,0,1.6,0,2.4.1,2.3.5,3.9,1.4,4.5,4.2,1,4.5,2.5,8.9,3.9,13.3,3.6,10.9,7.3,21.7,10.9,32.6.8,2.3,1.6,4.5,2.2,6.8.3.9.7,1.4,1.6,1.6.5,6.2.4,12.3.3,18.5Z"/>
        <path class="cls-8" d="M473.8,588.7c2-3.8,5-6.4,9.3-7.6,16.6-4.6,30.2.2,41.3,12.9,6.2,7.1,9.8,15.7,12,24.8,2.2,9.1,2.8,18.3,2.4,27.6-.9,18.6-5.6,36.2-13.6,53-1.8,3.9-3.3,8-5,11.9-.8,1.7-1.7,3.5-2.7,5-2.4,3.6-5.8,5.8-10.2,6.3-2.9.4-5.4-.3-7.6-2.1-1.7-1.3-3-2.9-4.1-4.7-2.2-3.7-4.7-7.1-6.4-11-1.2.2-1.5.9-1.9,1.6-3.8,6.7-8,13.1-13.3,18.7-.4.4-.6,1.1-.9,1.7-2.6.7-4.3-.4-5.6-2.5-.8-1.2-1.5-2.5-2.1-3.7-3-5.8-5.9-11.7-8.9-17.5-.5-1-1-2-1.5-3-1-1.8-2.5-2.8-4.6-3-4-.3-8-.6-11.9-1-5.7-.5-11.4-1.1-17.2-1.5-2.5-.2-4-1.3-4.9-3.8-3.6-9.9-7.6-19.7-11.1-29.6-.9-2.4-2.1-3.6-4.4-4.4-13-4.4-25.9-9-38.9-13.5-.5-13.2,3.5-24.8,12.7-34.4,5.7-5.9,12.5-10.4,19.5-14.5,1.4-.8,2.8-1.5,4.2-2.2,8.5-4.6,17.5-6.6,27.1-6.4,14.3.2,28.2,2.3,41.7,7.4,1,.4,2,.9,3.2.7-.1,1.2.2,2.1,1,3.1,2,2.3,4.4,4.1,7,5.8,3.5,2.3,6.5,5.2,8.9,8.6,3.4,4.8,5.9,10.2,7.8,15.8,1.1,3.3,2.3,6.6,2.1,10.2-.2,3.5,2.2,5,4.6,6.7.6.4,1.8-.1,1.9-.9.1-.8.2-1.6.2-2.4,0-6.2-1-12.3-2.6-18.3-3-11.3-9.1-20.6-17.6-28.5-2.8-2.6-6.1-4.6-9.9-5.5Z"/>
        <path class="cls-6" d="M428.9,820.3c0-6.2.2-12.3-.3-18.5.6-3.6.2-7.3.3-11,.1-3,0-6.1.4-9.1.4-3.8.9-7.6,1.7-11.3,1.2-5.4,2.7-10.8,5.9-15.5,2.9-4.4,6.7-8.1,10.8-11.4,5-4,10.5-7,17.1-8,4.2-.7,8.4-1.9,12.5-2.9,3.6,0,7.2-.8,10.9-.7,3.5,0,7,.5,10.3,1.3,7.2,1.8,14.2,4.3,21,7.5-.4,1-1.1,1.4-2.1,1.7-4.3,1.4-8.4,3-12.7,4.2-11,3-21.5,7-32.1,11.2-6.1,2.4-12.2,4.7-18,7.7-5.4,2.8-10.1,6.7-14.8,10.6-.8.7-1.7,1.6-2.1,2.6-1.9,4.6-3.9,9.2-3.7,14.3.7,13.2,3.5,25.9,10.5,37.4,2.8,4.5,5.8,8.8,9.7,12.4,3.3,3.1,7.1,5.7,11.4,6.9,13.7,3.8,26.7-.5,32.4-15.3,1.4-3.6,2.3-7.3,2.1-11.2,0-1,.2-1.9,0-2.9-.7-5.7,2.2-9.1,6.9-11.4,5.2-2.5,10.5-4.8,15.8-7,10.7-4.6,21.5-9.1,32.2-13.7,3.8-1.6,7.7-3.2,11.5-4.8,1.3-.6,2.7-1.1,4.2-.9,2.4,2.8,5.6,4.8,8.2,7.4,3.9,3.8,8.1,7.1,12.7,10.1,3.1,2,6,4.2,8.9,6.4,4,3.1,8,6.3,12.4,8.9,2.6,1.5,5.2,3.1,7.3,5.3-.9,2.6-2.7,4.7-4.3,6.8-5.7,7.9-11.4,15.7-17.1,23.6-7.7,10.6-15.3,21.2-22.9,31.8-9.9,13.7-19.8,27.3-29.7,41-1.1-.3-2.2-.5-3.2-1-17.7-8.1-35.1-16.8-52.3-25.9-11.3-6-22.4-12.2-33.4-18.6-5.9-3.4-11.1-7.5-15.5-12.6-4-4.6-7.2-9.7-8.6-15.8-1.3-5.4-2.3-10.9-2.5-16.5-.1-4.4-1.1-8.8-1.7-13.2Z"/>
        <path class="cls-9" d="M546.1,923.9c9.9-13.7,19.8-27.3,29.7-41,7.6-10.6,15.3-21.2,22.9-31.8,5.7-7.9,11.4-15.7,17.1-23.6,1.6-2.2,3.4-4.2,4.3-6.8,1.5.2,2.6.9,3.9,1.7,9.5,5.7,19,11.5,28.5,17.1,4.2,2.5,8.5,5,13.2,6.5.1,3.7.1,7.3-.3,11-.4,3.6-.3,7.3-.4,11-.4,16.6-.5,33.1-1.2,49.7-.5,9.9-.4,19.7-.9,29.6-.2,4.9-.9,9.8-.5,14.8-.1.3-.2.5-.2.8-8.2-.3-16.1-1.7-24-4-22-6.6-43.8-14-65-22.8-7.1-2.9-14.2-5.9-21.2-8.9-2-.9-4.2-1.7-5.9-3.1Z"/>
        <path class="cls-3" d="M1188.9,728.1c-2.9-2.3-4.7-5.5-7.1-8.2-5.4-6-10.7-12.2-15.9-18.4-3.6-4.3-7.6-8.1-10.6-12.8,1.9-9.4,3.6-18.8,5.9-28,1.8-7.1,4.9-13.4,10.5-18.5,3.6-3.3,7.7-5.8,12.3-7.2,12.3-3.9,24.6-7.9,37-11.3,9.8-2.8,19.5-6.1,29.2-9.2,2.1-.7,4.3-1.4,6.4-2.1,4.6-1.6,9.4-1.9,14.2-1.4,9.5,1,17.2,7.9,19.2,17.4,1,4.6.2,8.8-1,13.1-.7,2.5-2.2,4.5-4.3,6.2-3.8,3.1-7.4,6.5-11.2,9.7-6,5.2-12.1,10.4-18.2,15.5-5.1,4.4-10.1,8.8-15.2,13.1-6.5,5.6-13.1,11.2-19.6,16.8-3.1,2.7-6.2,5.5-9.3,8.2-1.6,1.4-3.2,2.6-4.9,3.9-5.1,4.1-10.2,8.2-15.3,12.2-.6.5-1.4.7-2.1,1Z"/>
        <path class="cls-9" d="M477.2,732.6c-4.2,1-8.3,2.2-12.5,2.9-6.5,1-12.1,4-17.1,8-4,3.3-7.8,7-10.8,11.4-3.1,4.7-4.6,10.1-5.9,15.5-.8,3.7-1.3,7.5-1.7,11.3-.3,3-.3,6-.4,9.1-.1,3.7.3,7.3-.3,11-.9-.2-1.3-.7-1.6-1.6-.7-2.3-1.5-4.5-2.2-6.8-3.6-10.9-7.3-21.7-10.9-32.6-1.4-4.4-2.9-8.8-3.9-13.3-.6-2.8-2.2-3.7-4.5-4.2-.8-.2-1.6,0-2.4-.1-3,0-6.1.3-9-.8-.7-.3-1.6-.1-2.4-.1-2.7,0-5.4.2-8-.8-.9-.3-1.9-.3-2.8-.2-3.7.4-7.4-.4-10.9-1.2-6.4-1.5-8.9-4.6-10-11.8,0-.6,0-1.3,0-1.9,0-2.9.2-5.7-.8-8.5-.3-1-.1-2.2-.1-3.3,0-1.7-1.1-2.5-2.4-3.2-3.9-2.4-7.8-4.9-11.8-7.3-1.5-.9-2.8-2.1-4-3.4-1-1.1-1.1-2.2-.4-3.5.5-1,1.1-1.9,1.7-2.9,5.2-7.8,10.5-15.6,15.8-23.3.6-.9,1.1-1.9,1.2-3,.4-2.7.7-5.3,1-8,.5-5.5,1.2-11,1.9-16.5,13,4.5,25.9,9,38.9,13.5,2.3.8,3.6,2,4.4,4.4,3.5,9.9,7.5,19.7,11.1,29.6.9,2.4,2.3,3.6,4.9,3.8,5.7.5,11.4,1,17.2,1.5,4,.3,8,.7,11.9,1,2.1.2,3.6,1.2,4.6,3,.6,1,1,2,1.5,3,3,5.8,5.9,11.7,8.9,17.5.7,1.3,1.4,2.5,2.1,3.7,1.3,2.1,3.1,3.2,5.6,2.5.9,0,1.6.3,1.9,1,.8,1.5,1.5,3.1,2.3,4.7Z"/>
        <path class="cls-7" d="M976.9,887.2c-1.1-1.3-3.3-1.1-4-3.1-.7-1.8-1-3.4,0-5,.6-.9,1.2-1.9,2-2.7,4.7-4.8,6.4-10.8,7.9-17.1,1.2-4.9.2-9.9,1.7-14.7.1-.4.1-1,0-1.4-1.1-2.9-.6-6-.8-9-.4-6.2-1.6-12.3-3.1-18.3-1.8-7-4.3-13.7-7.6-20.1-.7-1.4-1.4-2.9-2.1-4.3-.8-1.5-.8-3.1-.5-4.7.6-3.5,3.9-5,6.8-3.1,2.9,2,5.4,4.5,7.1,7.7,4,7.7,6.9,15.8,8.9,24.2,2,8.2,3.1,16.5,3.1,25,0,7.4-.4,14.7-2.1,21.8-1.3,5.2-2.7,10.5-5.9,15.1-.8,1.2-1.6,2.4-1.7,3.9-2.1,1.7-4,3.9-6.7,4.9-.3.1-.6.2-.9.4-.6.2-1.3.4-1.9.6Z"/>
        <path class="cls-10" d="M782.9,599.6c.1-1.8.8-3.3,2.1-4.7,4.4-4.4,9.1-8.5,14-12.3,5.4-4.2,10.6-8.6,16-12.8,4.6-3.5,9.3-6.6,14.1-9.8.8-.5,1.7-.8,2.7-1,2.3-.4,4.3.1,4.7,1.4.7,2,1,4.2-.7,5.8-4.6,4.4-8.6,9.4-13.8,13.2-2.9,2.2-5.4,4.9-8.3,7.2-4.6,3.6-8.9,7.7-13.7,11-1.8,1.2-3.1,3.2-5.2,4.1-.3.1-.5.4-.8.6-2.8,2.2-5.9,3.1-9.3,1.6-.6-1.5-1.1-2.9-1.7-4.4Z"/>
        <path class="cls-1" d="M473.8,588.7c3.8.9,7.1,2.9,9.9,5.5,8.5,7.8,14.6,17.1,17.6,28.5,1.6,6.1,2.6,12.1,2.6,18.3,0,.8,0,1.6-.2,2.4-.1.7-1.3,1.3-1.9.9-2.4-1.6-4.8-3.2-4.6-6.7.2-3.6-.9-6.9-2.1-10.2-1.9-5.6-4.4-11-7.8-15.8-2.4-3.4-5.4-6.3-8.9-8.6-2.5-1.6-5-3.5-7-5.8-.8-.9-1.1-1.9-1-3.1,1.1-1.8,2.3-3.6,3.4-5.4Z"/>
        <path class="cls-4" d="M978.9,886.7c.3-.1.6-.2.9-.4-.2.4-.5.6-.9.4Z"/>
      </g>
    </g>
  </g>
</svg>