<svg width="500" height="500" viewBox="0 0 500 500" fill="none" xmlns="http://www.w3.org/2000/svg">
<path d="M104.918 335.303C105.045 335.514 105.256 335.684 105.299 335.938C106.315 342.669 111.268 344.024 116.813 344.066C126.931 344.108 137.049 345.209 147.167 344.532C153.263 344.151 159.317 343.135 165.413 342.881C165.921 342.881 166.387 342.711 166.852 342.711C179.679 343.008 192.464 341.568 205.291 341.526C213.081 341.484 220.955 341.611 228.66 339.748C230.777 339.24 233.02 339.325 235.222 339.113C247.668 334.922 260.283 331.323 272.306 325.947C277.429 323.661 282.551 321.333 287.673 319.047C293.389 315.49 299.061 311.807 304.903 308.463C308.163 306.6 310.449 303.764 313.243 301.478C313.328 300.25 314.302 299.7 315.064 299.023C323.276 291.445 328.314 282.512 328.102 270.913C327.933 262.404 324.335 256.223 317.223 251.947C310.407 247.841 302.829 246.401 295.04 245.851C289.578 245.47 285.091 247.29 281.45 251.608C277.64 256.181 276.624 261.853 279.334 266.976C280.985 266.087 282.593 265.24 284.244 264.351C285.176 263.843 286.107 263.801 286.954 264.478C287.504 264.901 287.716 265.452 287.419 266.171C286.107 269.389 284.583 272.394 280.815 273.326C279.207 275.019 277.471 276.543 275.481 277.771C264.093 287.465 250.589 293.688 237.677 300.885C235.645 302.198 233.571 303.425 231.327 304.357C228.575 306.092 225.908 308.167 222.606 308.59C213.758 309.691 204.953 310.707 196.063 311.596C183.913 312.823 172.017 315.236 160.079 317.65C153.898 318.92 147.675 319.343 141.409 319.936C140.266 321.714 138.615 322.603 136.583 322.857C134.551 323.111 132.562 323.492 130.53 323.449C125.788 323.407 121.089 322.814 116.348 322.984C112.58 323.111 110.844 324.211 109.49 327.725C109.066 328.868 108.601 330.011 108.389 331.239C108.093 333.271 107.034 334.71 104.918 335.303Z" fill="#F6BA91"/>
<path d="M237.719 300.885C250.631 293.688 264.136 287.465 275.523 277.771C273.153 276.966 270.697 276.331 268.411 275.358C260.41 271.971 252.451 268.499 244.577 264.901C242.63 264.012 240.344 263.504 239.116 261.472C238.439 261.599 237.846 261.345 237.253 261.091C229.041 257.281 220.786 253.513 212.53 249.703C211.133 249.068 210.16 248.01 209.228 246.824C202.582 238.569 195.851 230.356 189.204 222.101C185.987 218.122 182.516 214.312 179.637 210.036C170.408 212.661 161.518 216.302 153.39 221.297C144.161 227.012 136.626 234.548 132.392 244.877C127.778 256.053 128.624 266.933 134.001 277.559C138.827 287.169 145.177 295.636 154.194 301.774C155.083 299.615 156.988 299.446 158.893 299.403C168.291 299.192 177.69 298.853 187.088 298.938C202.37 299.065 217.653 298.387 232.935 298.387C234.925 298.387 236.788 298.726 237.719 300.885Z" fill="#696C65"/>
<path d="M374.289 333.186C392.45 332.127 404.6 319.512 406.505 303.086C407.055 298.26 406.844 293.434 406.039 288.65C405.574 285.898 405.912 285.263 408.706 285.475C422.592 286.491 428.265 270.235 421.914 260.032C417.893 253.555 411.754 249.703 404.896 246.951C395.117 243.056 384.788 241.151 374.754 238.146C372.934 237.595 371.114 237.13 369.336 236.537C368.277 236.198 367.261 235.944 366.372 236.833C365.356 237.807 365.737 238.908 366.245 240.008C368.277 244.538 371.41 248.348 374.331 252.285C377.379 256.434 380.554 260.498 383.645 264.604C384.11 265.239 385.042 265.874 384.449 266.721C383.899 267.525 382.925 266.848 382.163 266.721C371.452 264.816 360.826 264.858 350.455 268.457C349.566 268.753 348.761 269.388 347.915 269.854C350.878 274.722 354.138 279.421 357.863 283.655C359.26 285.263 359.726 286.787 359.514 288.735C359.218 291.995 359.006 295.254 358.667 298.514C358.54 299.869 359.006 300.588 360.191 301.223C363.959 303.171 367.515 305.541 371.114 307.785C372.638 308.716 373.23 309.987 373.4 311.595C373.611 314.051 373.738 316.464 373.865 318.919C374.035 323.703 373.569 328.486 374.289 333.186ZM387.793 264.901C390.291 265.155 392.746 265.917 395.117 267.017C401.679 270.108 405.235 275.738 408.071 282.046C408.41 282.85 409.172 283.824 408.114 284.417C407.098 285.009 405.828 285.517 404.642 284.713C404.05 284.29 403.626 283.655 403.16 283.104C401.382 280.988 400.155 278.49 398.25 276.416C394.99 272.944 391.18 270.447 386.862 268.584C385.634 268.076 385.423 267.144 385.55 266.001C385.761 264.604 386.862 265.07 387.793 264.901Z" fill="#7B4822"/>
<path d="M239.073 261.472C240.301 263.546 242.587 264.054 244.534 264.901C252.451 268.499 260.41 271.971 268.368 275.358C270.654 276.331 273.11 276.966 275.481 277.771C277.47 276.543 279.206 274.977 280.815 273.326C279.756 271.336 279.46 269.177 279.333 266.975C276.666 261.853 277.64 256.138 281.45 251.608C285.09 247.29 289.535 245.47 295.039 245.851C302.828 246.401 310.406 247.84 317.222 251.947C324.376 256.223 327.975 262.403 328.102 270.912C328.313 282.512 323.276 291.445 315.063 299.022C314.301 299.742 313.327 300.292 313.243 301.478C317.73 301.478 320.355 298.514 322.852 295.339C323.445 294.577 323.953 293.773 324.503 292.969C327.255 288.354 330.176 283.824 331.489 278.49C333.521 270.235 333.732 261.895 332.42 253.513C328.991 242.549 319.931 236.537 311.38 230.441C292.457 216.894 271.374 208.131 248.598 203.39C247.709 203.22 246.82 203.22 245.931 203.136C245.085 210.163 244.196 217.191 243.349 224.218C241.994 236.622 240.555 249.026 239.073 261.472Z" fill="#8A8AD9"/>
<path d="M239.074 261.472C240.513 249.026 241.953 236.622 243.434 224.176C244.281 217.148 245.128 210.121 246.017 203.093C241.741 201.993 237.38 201.569 233.02 201.146C217.314 199.664 202.286 202.924 187.426 207.454C184.802 208.258 181.965 208.385 179.637 209.994C182.473 214.27 185.987 218.08 189.204 222.059C195.851 230.314 202.582 238.527 209.228 246.782C210.16 247.925 211.133 249.026 212.53 249.661C220.786 253.471 228.998 257.239 237.253 261.049C237.804 261.345 238.396 261.599 239.074 261.472Z" fill="#F5BA91"/>
<path d="M332.506 253.513C333.818 261.895 333.606 270.192 331.574 278.49C330.262 283.824 327.341 288.311 324.589 292.968C324.674 293.01 324.716 293.053 324.801 293.095C328.315 295 328.992 297.54 328.357 301.689C327.51 306.938 326.748 312.315 326.537 317.691C326.325 322.348 327.934 324.21 333.183 325.862C334.114 326.158 335.088 326.285 336.062 326.37C337.586 326.497 338.432 327.343 338.898 328.698C339.618 330.688 340.338 332.72 341.1 334.667C342.2 337.461 342.962 337.884 345.714 336.784C349.524 335.302 353.292 333.736 357.017 332.042C358.499 331.365 359.896 331.196 361.505 331.534C364.976 332.339 368.532 333.016 372.046 333.693C372.765 333.82 373.697 334.159 374.247 333.228C373.527 328.529 373.993 323.787 373.697 319.046C373.57 316.59 373.443 314.135 373.231 311.722C373.104 310.113 372.469 308.843 370.945 307.912C367.347 305.668 363.791 303.297 360.023 301.35C358.837 300.757 358.372 299.995 358.499 298.641C358.837 295.381 359.007 292.121 359.346 288.862C359.515 286.914 359.091 285.39 357.694 283.782C353.927 279.506 350.667 274.849 347.746 269.981C343.301 265.07 338.856 260.159 334.453 255.248C333.903 254.529 333.437 253.767 332.506 253.513Z" fill="#F5BA92"/>
<path d="M139.928 307.361C135.652 305.075 131.842 302.154 127.82 299.487C123.079 296.354 118.041 294.703 112.284 295.889C111.056 296.143 109.955 296.566 108.855 297.159C99.88 301.816 90.8629 306.472 81.8881 311.129C77.57 313.373 74.7759 318.876 75.6226 323.448C76.6386 329.036 80.872 333.481 85.9521 334.159C91.4555 334.921 97.0436 334.667 102.547 335.132C102.632 334.54 104.029 334.963 103.521 334.116C101.404 330.391 102.928 327.004 104.367 323.618C106.145 319.257 110.125 316.59 114.866 316.548C123.291 316.548 131.715 316.548 140.14 316.548C139.801 313.5 138.658 310.494 139.928 307.361Z" fill="#F7BD93"/>
<path d="M139.928 307.362C138.658 310.452 139.801 313.5 140.14 316.548C140.775 317.564 141.241 318.665 141.452 319.893C147.675 319.3 153.941 318.877 160.121 317.607C172.017 315.194 183.956 312.781 196.105 311.553C204.953 310.664 213.801 309.648 222.649 308.547C225.993 308.124 228.618 306.092 231.37 304.314C223.284 304.356 215.198 304.399 207.112 304.568C190.602 304.949 174.049 304.695 157.497 304.737C155.676 304.737 154.533 304.018 154.11 302.197C150.427 303.256 146.702 304.187 143.146 305.584C141.96 306.134 140.86 306.558 139.928 307.362Z" fill="#6A6C65"/>
<path d="M154.11 302.282C154.533 304.06 155.676 304.822 157.496 304.822C174.049 304.78 190.559 305.034 207.112 304.653C215.198 304.483 223.283 304.441 231.369 304.399C233.613 303.467 235.687 302.24 237.719 300.927C236.788 298.768 234.968 298.43 232.851 298.43C217.568 298.43 202.286 299.107 187.003 298.98C177.605 298.895 168.207 299.234 158.809 299.446C156.904 299.488 154.999 299.7 154.11 301.816C154.152 301.943 154.11 302.113 154.11 302.282Z" fill="#343732"/>
<path d="M287.758 319.004C282.635 321.29 277.513 323.618 272.391 325.904C260.368 331.281 247.752 334.879 235.306 339.07C243.053 339.24 250.843 339.409 258.59 339.578C262.781 339.663 266.845 338.901 270.951 337.927C280.9 335.472 286.276 328.995 287.758 319.004Z" fill="#6D6F68"/>
<path d="M141.494 319.892C141.282 318.707 140.816 317.606 140.181 316.548C131.757 316.548 123.332 316.548 114.908 316.548C110.167 316.548 106.187 319.257 104.409 323.618C103.012 327.047 101.488 330.391 103.562 334.116C104.07 335.005 102.673 334.54 102.589 335.132C103.351 335.175 104.155 335.217 104.917 335.259C107.034 334.667 108.092 333.227 108.473 331.111C108.685 329.925 109.108 328.74 109.574 327.597C110.928 324.083 112.664 323.025 116.432 322.856C121.173 322.686 125.872 323.279 130.614 323.321C132.646 323.364 134.636 322.983 136.668 322.729C138.657 322.559 140.351 321.67 141.494 319.892Z" fill="#DCA781"/>
<path d="M279.376 266.933C279.503 269.134 279.8 271.293 280.858 273.283C284.626 272.352 286.107 269.346 287.462 266.129C287.758 265.367 287.547 264.859 286.996 264.435C286.15 263.758 285.218 263.8 284.287 264.308C282.636 265.24 281.027 266.086 279.376 266.933Z" fill="#DBA781"/>
<path d="M387.793 264.9C386.861 265.07 385.761 264.562 385.591 266.001C385.464 267.144 385.718 268.075 386.904 268.583C391.222 270.446 395.074 272.944 398.291 276.415C400.196 278.447 401.466 280.945 403.202 283.104C403.668 283.654 404.091 284.332 404.684 284.713C405.869 285.559 407.139 285.051 408.155 284.416C409.214 283.781 408.452 282.808 408.113 282.046C405.277 275.738 401.678 270.107 395.159 267.017C392.788 265.916 390.29 265.154 387.793 264.9Z" fill="#5E3614"/>
</svg>
