<svg width="497" height="497" viewBox="0 0 497 497" fill="none" xmlns="http://www.w3.org/2000/svg">
<path d="M295.754 317.931C320.852 322.98 335.075 309.516 341.559 291.425C345.533 280.486 346.788 269.126 345.533 266.391C327.127 227.474 219.831 202.02 178.837 204.123C178.837 204.123 171.098 232.312 164.196 248.3C157.503 264.288 146 277.962 146 277.962C222.132 296.263 253.923 297.736 278.603 305.519C278.603 305.73 288.643 316.458 295.754 317.931Z" fill="#FF8AA0"/>
<path d="M342.411 304.207C342.411 304.207 357.763 305.28 374.776 303.778L381 275.66C363.78 278.451 346.353 266.002 346.353 266.002C344.9 293.046 334.734 303.563 331 310.002L342.411 304.207Z" fill="#ECAD83"/>
<path d="M382.877 346.364C393.152 354.562 404.266 350.054 410.557 346.774C430.059 336.322 432.366 324.025 432.995 308.244C433.624 287.339 377.844 277.707 368.408 279.141C343.664 283.035 332.969 315.827 332.13 329.559C331.082 344.52 336.534 340.831 342.615 340.626C342.825 340.626 343.663 341.446 343.663 341.446C345.76 341.651 348.696 341.446 351.422 342.88C351.422 342.88 353.31 342.47 354.358 342.47C354.987 342.47 355.407 342.47 355.616 343.29C356.245 345.545 357.084 347.594 357.923 348.414C360.859 351.283 378.054 342.47 382.877 346.364Z" fill="#F6BB92"/>
<path d="M349.062 334.002C349.062 334.002 348.354 335.615 348 343.22C348.354 344.141 349.062 345.754 350.656 344.602C351.895 343.68 349.416 339.533 349.062 334.002Z" fill="#D6876B"/>
<path d="M350 334.002C350 334.002 345.423 335.278 343 341.87C343 342.721 344.077 343.571 344.615 343.784C347.308 344.635 348.385 342.721 348.385 342.721C348.654 335.491 350 334.002 350 334.002Z" fill="#CC785E"/>
<path d="M435.986 307.125C436.808 281.526 401.249 246.223 356.852 279.668C353.974 281.939 350.274 287.1 356.029 295.151C359.935 300.932 365.484 304.854 365.484 304.854C367.129 306.093 368.979 307.332 370.829 308.57C372.884 310.015 385.628 308.777 385.833 311.461C388.916 336.647 401.866 347.796 408.443 348.002C424.681 345.731 435.164 334.376 435.986 307.125Z" fill="#602F0F"/>
<path d="M371.823 301.137C360.293 304.646 359.675 309.189 360.087 316.002L377.794 312.699L385 309.395C384.588 302.788 383.353 297.627 371.823 301.137Z" fill="#F6BB92"/>
<path d="M399.722 264.927C404.85 259.111 416.486 262.226 425.953 271.989C435.223 281.751 438.773 294.422 433.645 300.238C428.517 306.054 419.839 302.315 410.372 292.552C401.103 282.79 394.791 270.743 399.722 264.927Z" fill="#4C230C"/>
<path d="M382.942 314.311C385.033 314.102 386.914 314.102 388.378 314.102C390.468 314.311 391.931 314.52 391.931 314.52L389.423 306.994C388.378 306.994 387.123 306.994 386.078 306.785C386.078 306.785 386.287 307.621 386.705 309.085V308.876C385.033 309.921 382.315 310.966 378.552 312.221C378.552 312.221 376.461 315.147 382.942 314.311Z" fill="#602F0F"/>
<path d="M399.666 261.003C405.31 254.731 418.69 258.494 429.561 269.365C440.431 280.236 444.612 293.824 438.968 300.096C433.324 306.367 423.289 301.977 412.209 291.106C401.547 280.445 394.021 267.274 399.666 261.003Z" fill="#602F0F"/>
<path d="M422.092 266.121C422.765 265.449 426.13 267.687 429.72 271.267C433.31 274.847 435.554 278.203 434.881 278.874C434.208 279.545 431.515 277.531 427.925 273.952C424.56 270.595 421.419 267.016 422.092 266.121Z" fill="#4C230C"/>
<path d="M179 204.002C127.479 208.83 107.663 222.685 93.4792 243.886C77.0008 268.237 87.013 290.069 87.013 290.069C87.013 290.069 135.822 326.594 142.497 312.95C147.92 301.824 153.135 291.748 157.724 282.931C163.147 272.226 179 204.002 179 204.002Z" fill="#3D3C3C"/>
<path d="M35.0228 343.16C35.8576 334.58 72.1722 332.487 77.8072 328.929C80.5204 327.255 82.8161 322.233 89.9121 320.977C99.3038 319.303 105.774 325.999 109.113 325.162C126.018 321.186 172.976 315.536 193.638 310.932C198.438 309.885 203.239 308.002 208.247 308.002C215.135 308.002 217.222 349.02 215.343 349.02C185.29 349.02 113.078 346.927 102.226 346.508C102.226 346.508 69.2503 350.694 61.3196 350.903C56.5194 351.112 34.188 351.74 35.0228 343.16Z" fill="#ECAD83"/>
<path d="M213.491 321.57L207.47 349.275C232.178 351.775 309 349.067 309 321.153C309 263.451 161.585 264.284 161.585 264.284C162.623 254.493 163.661 247.411 163.661 247.411C165.322 234.912 82.4788 274.283 88.2923 291.364C94.5211 309.904 107.602 323.028 135.216 326.152C169.267 329.902 213.491 321.57 213.491 321.57Z" fill="#3D3C3C"/>
<path d="M35.0513 351.089C36.7253 358.881 88.8305 340.35 88.8305 340.35C160.815 330.243 189.274 310.87 189.274 310.87C232.59 306.869 315.457 294.655 330.942 288.549C346.427 282.442 337.638 249.803 321.106 252.119C304.575 254.225 290.346 258.016 274.024 261.385C257.911 264.754 197.854 279.915 184.043 284.337C182.159 284.969 85.2731 322.872 85.2731 322.872C85.2731 322.872 81.0879 323.715 73.7639 322.662C63.9288 321.188 33.5864 343.298 35.0513 351.089Z" fill="#F6BB92"/>
</svg>
