<svg width="497" height="497" viewBox="0 0 497 497" fill="none" xmlns="http://www.w3.org/2000/svg">
<path d="M275.591 303.311C291.78 306.56 300.953 297.896 305.135 286.255C307.699 279.216 308.508 271.906 307.699 270.146C295.827 245.104 226.621 228.724 200.18 230.078C200.18 230.078 195.188 248.217 190.737 258.505C186.42 268.793 179 277.591 179 277.591C228.105 289.368 248.611 290.316 264.529 295.324C264.529 295.46 271.005 302.363 275.591 303.311Z" fill="#FF8AA0"/>
<path d="M305.303 294.312C305.303 294.312 315.129 294.995 326.017 294.039L330 276.146C318.979 277.922 307.826 270 307.826 270C306.896 287.21 300.39 293.902 298 298L305.303 294.312Z" fill="#ECAD83"/>
<path d="M331.743 321.973C338.355 327.324 345.508 324.381 349.557 322.24C362.107 315.417 363.592 307.39 363.997 297.089C364.401 283.442 328.504 277.155 322.431 278.091C306.506 280.633 299.624 302.039 299.084 311.002C298.409 320.769 301.918 318.361 305.831 318.227C305.966 318.227 306.506 318.762 306.506 318.762C307.856 318.896 309.745 318.762 311.5 319.698C311.5 319.698 312.714 319.431 313.389 319.431C313.794 319.431 314.064 319.431 314.199 319.966C314.603 321.438 315.143 322.775 315.683 323.311C317.572 325.184 328.639 319.431 331.743 321.973Z" fill="#F6BB92"/>
<path d="M309.708 314C309.708 314 309.236 315.027 309 319.866C309.236 320.452 309.708 321.479 310.771 320.746C311.597 320.159 309.944 317.519 309.708 314Z" fill="#D6876B"/>
<path d="M310 314C310 314 307.385 314.766 306 318.721C306 319.231 306.615 319.742 306.923 319.869C308.462 320.38 309.077 319.231 309.077 319.231C309.231 314.893 310 314 310 314Z" fill="#CC785E"/>
<path d="M365.991 296.58C366.526 280.034 343.391 257.216 314.506 278.833C312.634 280.3 310.227 283.636 313.971 288.84C316.512 292.577 320.122 295.112 320.122 295.112C321.192 295.913 322.396 296.713 323.599 297.514C324.937 298.448 333.228 297.647 333.361 299.382C335.367 315.661 343.792 322.867 348.071 323C358.636 321.532 365.456 314.193 365.991 296.58Z" fill="#602F0F"/>
<path d="M324.567 292.709C317.187 294.903 316.792 297.742 317.056 302L328.388 299.935L333 297.871C332.736 293.741 331.946 290.515 324.567 292.709Z" fill="#F6BB92"/>
<path d="M342.133 268.926C345.506 265.096 353.162 267.148 359.39 273.577C365.488 280.006 367.824 288.35 364.45 292.18C361.077 296.01 355.368 293.548 349.14 287.119C343.041 280.69 338.889 272.756 342.133 268.926Z" fill="#4C230C"/>
<path d="M331.572 301.038C332.921 300.903 334.135 300.903 335.079 300.903C336.428 301.038 337.372 301.173 337.372 301.173L335.753 296.317C335.079 296.317 334.27 296.317 333.595 296.182C333.595 296.182 333.73 296.722 334 297.666V297.531C332.921 298.205 331.167 298.88 328.74 299.689C328.74 299.689 327.391 301.577 331.572 301.038Z" fill="#602F0F"/>
<path d="M342.362 266.645C346.003 262.598 354.635 265.026 361.649 272.04C368.662 279.053 371.36 287.82 367.718 291.866C364.077 295.912 357.603 293.08 350.454 286.067C343.576 279.188 338.72 270.691 342.362 266.645Z" fill="#602F0F"/>
<path d="M357.056 270.073C357.471 269.66 359.542 271.037 361.751 273.24C363.96 275.443 365.341 277.508 364.927 277.921C364.513 278.334 362.856 277.095 360.646 274.892C358.575 272.827 356.642 270.624 357.056 270.073Z" fill="#4C230C"/>
<path d="M200 230C166.918 233.104 154.194 242.01 145.087 255.64C134.506 271.294 140.935 285.329 140.935 285.329C140.935 285.329 172.275 308.809 176.561 300.038C180.044 292.886 183.392 286.408 186.339 280.74C189.821 273.858 200 230 200 230Z" fill="#3D3C3C"/>
<path d="M107.015 319.894C107.554 314.306 131.028 312.944 134.671 310.627C136.425 309.537 137.909 306.266 142.496 305.449C148.567 304.359 152.749 308.719 154.907 308.174C165.835 305.585 196.189 301.906 209.545 298.908C212.648 298.226 215.751 297 218.989 297C223.441 297 224.79 323.709 223.576 323.709C204.149 323.709 157.47 322.346 150.455 322.074C150.455 322.074 129.14 324.799 124.013 324.936C120.91 325.072 106.475 325.481 107.015 319.894Z" fill="#ECAD83"/>
<path d="M222.2 305.587L218.304 323.529C234.292 325.148 284 323.394 284 305.317C284 267.948 188.614 268.487 188.614 268.487C189.285 262.147 189.957 257.56 189.957 257.56C191.032 249.466 137.427 274.963 141.189 286.025C145.22 298.032 153.683 306.531 171.552 308.555C193.584 310.983 222.2 305.587 222.2 305.587Z" fill="#3D3C3C"/>
<path d="M107.033 324.769C108.112 329.783 141.706 317.858 141.706 317.858C188.118 311.353 206.466 298.885 206.466 298.885C234.394 296.31 287.821 288.45 297.804 284.52C307.788 280.59 302.122 259.585 291.463 261.076C280.805 262.431 271.631 264.87 261.107 267.038C250.719 269.207 211.998 278.964 203.093 281.81C201.879 282.216 139.413 306.61 139.413 306.61C139.413 306.61 136.715 307.152 131.993 306.474C125.651 305.526 106.089 319.755 107.033 324.769Z" fill="#F6BB92"/>
</svg>
