<svg width="500" height="500" viewBox="0 0 500 500" fill="none" xmlns="http://www.w3.org/2000/svg">
<path d="M121.46 331.335C127.987 331.652 134.054 329.394 140.228 327.842C150.282 325.337 160.301 322.727 170.603 321.315C179.81 320.045 188.842 320.857 197.591 323.926C202.741 325.725 207.892 325.937 213.184 324.737C228.812 321.139 244.476 317.823 260.21 314.754C264.69 313.872 268.5 311.79 271.887 308.756C279.26 302.195 287.621 297.679 297.358 295.809C303.249 294.68 309.176 294.892 315.103 295.033C319.266 295.104 323.464 295.139 327.627 295.174C328.297 295.88 328.897 296.691 329.638 297.291C335.635 302.159 341.809 306.781 348.088 311.332C351.51 313.801 355.109 316.024 357.966 319.199C355.214 322.832 351.581 325.478 347.912 328.054C335.529 336.803 322.159 343.435 307.659 347.809C297.076 351.02 286.139 351.761 275.168 351.831C253.26 352.008 231.352 351.902 209.444 351.831C183.374 351.725 157.303 352.784 131.232 353.101C127.987 353.137 124.706 353.137 121.46 353.137C121.425 345.869 121.46 338.602 121.46 331.335Z" fill="#696D66"/>
<path d="M371.797 286.919C374.266 292.563 378.147 297.326 381.674 302.3C388.695 312.213 395.856 322.091 402.841 332.04C404.217 333.98 406.052 334.756 408.063 335.426C414.377 337.578 420.445 340.154 425.914 343.999C428.136 345.551 429.124 347.492 428.63 350.173C428.312 351.866 427.43 352.783 425.561 352.713C422.703 352.642 419.81 352.678 416.953 352.713C410.462 352.819 403.935 352.96 397.444 353.066C394.269 353.136 391.764 351.725 389.965 349.22C381.604 337.367 373.278 325.513 364.953 313.66C364.564 313.095 364.282 312.319 363.365 312.46C363.083 311.225 362.448 310.167 361.777 309.109C354.475 297.432 347.172 285.755 339.834 274.077C339.305 273.231 338.811 272.384 337.612 272.455C336.271 268.574 334.084 265.081 332.108 261.554C328.475 255.027 324.453 248.712 320.89 242.151C318.315 237.458 316.727 232.343 316.374 226.946C316.092 222.43 317.715 218.549 321.031 215.409C321.807 214.669 322.865 214.104 323.112 212.905C324.241 213.081 325.3 212.587 326.358 212.376C328.616 211.952 330.944 211.741 333.131 212.411C336.941 213.54 340.469 215.268 343.574 217.879C344.632 218.761 345.691 219.89 347.349 219.537C349.148 222.359 351.511 224.688 353.84 227.087C354.792 228.074 355.78 229.027 355.992 230.473C355.815 231.285 355.639 232.131 355.498 232.943C354.722 237.564 353.381 241.974 349.889 245.361C349.148 246.102 349.359 246.631 349.783 247.372C352.217 251.676 354.545 256.05 356.98 260.319C359.061 263.988 360.895 267.798 363.259 271.29C363.259 271.467 363.224 271.714 363.294 271.855C365.623 276.617 367.986 281.345 370.315 286.107C370.668 286.813 371.162 286.989 371.797 286.919Z" fill="#F5B992"/>
<path d="M321.242 206.766C319.408 203.626 315.774 203.309 313.022 201.616C312.493 201.298 311.717 201.333 311.611 200.487C312.246 199.358 312.811 198.194 313.587 197.135C319.549 189.092 320.537 180.625 315.88 171.664C315.069 170.077 315.033 168.489 315.845 166.972C319.055 161.01 321.913 154.872 324.77 148.733C325.723 149.016 326.217 149.827 326.675 150.568C329.603 155.401 334.331 157.165 339.517 158.188C340.857 158.47 342.198 158.682 343.538 158.999C345.373 159.423 346.219 160.799 345.479 162.527C343.785 166.584 344.491 169.9 347.419 173.287C350.841 177.203 350.982 182.495 346.643 186.058C343.221 188.88 343.15 192.796 343.891 196.818C344.632 200.84 345.337 204.861 346.008 208.918C346.184 210.012 346.043 211.141 346.043 212.234C344.314 211.846 343.08 210.647 341.774 209.624C335.459 204.685 328.862 202.039 321.242 206.766Z" fill="#F5B992"/>
<path d="M324.699 148.733C321.877 154.872 318.984 161.01 315.774 166.972C314.962 168.489 314.997 170.077 315.809 171.664C320.466 180.625 319.513 189.092 313.516 197.135C312.74 198.158 312.21 199.358 311.54 200.487C308.612 200.31 306.425 198.441 303.991 197.135C303.285 196.747 302.756 195.901 301.803 196.077C301.556 195.442 301.062 195.054 300.569 194.631C296.159 190.82 292.807 186.164 290.938 180.696C288.045 172.229 289.738 164.185 294.148 156.636C294.677 155.754 295.418 154.942 295.206 153.813C295.489 153.884 295.735 153.955 296.018 154.025C296.723 154.448 296.688 153.884 296.723 153.461C303.25 145.77 314.221 143.371 324.205 148.169C324.452 148.24 324.558 148.522 324.699 148.733Z" fill="#804310"/>
<path d="M298.805 200.099C293.937 205.179 289.421 210.576 283.177 214.139C282.542 214.492 281.942 214.88 281.272 215.127C279.191 215.868 277.956 215.233 277.568 213.046C277.003 210.012 277.039 206.943 276.898 203.909C276.756 200.839 276.721 197.77 276.58 194.736C276.262 187.822 274.216 181.472 270.583 175.58C265.432 167.184 268.078 157.094 276.439 152.755C277.956 151.979 279.579 151.45 281.272 151.238C286.14 150.674 290.656 152.014 295.101 153.778C292.455 154.978 290.55 157.13 289.033 159.387C285.364 164.891 284.553 170.994 286.105 177.45C286.917 180.907 288.716 183.906 290.268 187.046C292.032 190.574 293.267 194.384 295.56 197.664C296.371 198.758 297.112 200.063 298.805 200.099Z" fill="#814311"/>
<path d="M121.461 331.334C121.425 338.601 121.425 345.869 121.39 353.136C120.826 353.595 120.155 353.418 119.52 353.418C115.675 353.454 111.83 353.454 107.984 353.489C98.9884 353.595 90.0277 353.701 81.0317 353.912C78.9503 353.948 76.9042 354.23 74.8227 354.3C73.1999 354.336 71.9299 353.771 71.436 352.254C70.9068 350.737 71.6124 349.467 72.8119 348.479C74.5405 347.068 76.2691 345.692 77.9625 344.317C84.6654 338.919 91.2977 333.521 98.0359 328.194C103.01 324.243 108.831 324.243 113.805 328.159C116.098 329.958 118.674 330.876 121.461 331.334Z" fill="#F5BC92"/>
<path d="M363.294 271.361C360.93 267.868 359.095 264.058 357.014 260.389C354.58 256.085 352.216 251.746 349.817 247.442C349.394 246.701 349.182 246.172 349.923 245.431C353.416 242.045 354.756 237.635 355.532 233.013C355.673 232.167 355.85 231.355 356.026 230.544C357.402 230.756 358.249 231.849 359.272 232.59C364.458 236.471 369.644 240.351 372.995 246.031C377.193 253.157 377.581 260.672 375.041 268.433C371.549 268.856 368.197 269.738 364.916 270.973C364.281 270.867 363.787 271.079 363.294 271.361Z" fill="#8A8AD9"/>
<path d="M357.931 319.164C355.074 315.989 351.475 313.766 348.053 311.297C341.809 306.746 335.635 302.124 329.603 297.256C328.862 296.656 328.262 295.845 327.592 295.139C331.12 289.671 334.189 283.991 336.2 277.782C336.553 276.688 336.87 275.56 337.188 274.431C340.927 280.428 344.631 286.425 348.406 292.387C352.992 299.584 357.226 307.028 362.129 314.013C361.494 316.341 359.483 317.576 357.931 319.164Z" fill="#F5B992"/>
<path d="M298.805 200.099C297.112 200.064 296.371 198.758 295.559 197.594C293.266 194.313 292.032 190.539 290.268 186.975C288.715 183.871 286.952 180.837 286.105 177.38C284.553 170.924 285.329 164.821 289.033 159.317C290.55 157.059 292.455 154.907 295.101 153.708L295.242 153.779C295.454 154.943 294.713 155.719 294.184 156.601C289.774 164.186 288.116 172.229 290.973 180.661C292.843 186.129 296.194 190.786 300.604 194.596C301.098 195.019 301.592 195.442 301.839 196.042C301.38 197.876 300.075 198.97 298.805 200.099Z" fill="#633402"/>
<path d="M321.242 206.766C328.862 202.039 335.459 204.685 341.739 209.589C343.044 210.612 344.279 211.811 346.008 212.199C347.207 214.528 347.242 217.068 347.348 219.608C345.69 219.961 344.632 218.832 343.573 217.95C340.504 215.339 336.941 213.575 333.131 212.482C330.944 211.847 328.615 212.058 326.358 212.446C325.264 212.658 324.241 213.152 323.112 212.975C322.406 210.929 321.56 208.918 321.242 206.766Z" fill="#DDA781"/>
<path d="M362.165 314.048C357.262 307.028 352.993 299.619 348.442 292.423C344.667 286.461 340.963 280.463 337.224 274.466C337.118 273.76 337.153 273.09 337.647 272.526C338.846 272.455 339.34 273.302 339.869 274.148C347.172 285.826 354.51 297.503 361.813 309.18C362.483 310.238 363.083 311.297 363.4 312.531C363.153 313.166 362.906 313.801 362.165 314.048Z" fill="#DDA781"/>
<path d="M364.881 270.973C368.162 269.738 371.513 268.856 375.006 268.433C374.406 274.007 373.63 279.545 372.183 284.978C369.432 280.498 367.315 275.665 364.881 270.973Z" fill="#F3B991"/>
<path d="M364.882 270.973C367.316 275.63 369.432 280.498 372.184 284.979C372.325 285.684 372.255 286.354 371.796 286.919C371.161 286.989 370.667 286.778 370.35 286.178C368.021 281.415 365.658 276.688 363.329 271.926C363.259 271.749 363.294 271.538 363.294 271.361C363.788 271.079 364.282 270.867 364.882 270.973Z" fill="#DCA781"/>
<path d="M296.758 153.425C296.723 153.848 296.758 154.413 296.053 153.989C296.264 153.813 296.511 153.636 296.758 153.425Z" fill="#814311"/>
</svg>
