<svg width="500" height="500" viewBox="0 0 500 500" fill="none" xmlns="http://www.w3.org/2000/svg">
<path d="M107.044 336.457C114.303 336.81 121.051 334.299 127.917 332.572C139.099 329.787 150.242 326.883 161.699 325.314C171.939 323.902 181.983 324.804 191.713 328.217C197.442 330.218 203.17 330.454 209.055 329.12C226.436 325.118 243.856 321.43 261.355 318.016C266.338 317.035 270.575 314.721 274.342 311.346C282.542 304.049 291.841 299.027 302.67 296.947C309.222 295.692 315.813 295.927 322.405 296.084C327.035 296.162 331.703 296.202 336.333 296.241C337.079 297.026 337.746 297.928 338.57 298.595C345.24 304.009 352.106 309.149 359.089 314.211C362.895 316.957 366.897 319.429 370.075 322.96C367.015 327.001 362.974 329.944 358.893 332.808C345.122 342.538 330.252 349.914 314.126 354.779C302.356 358.35 290.193 359.174 277.991 359.252C253.626 359.448 229.261 359.331 204.896 359.252C175.902 359.134 146.907 360.312 117.912 360.665C114.303 360.704 110.654 360.704 107.044 360.704C107.005 352.622 107.044 344.539 107.044 336.457Z" fill="#696D66"/>
<path d="M385.456 287.06C388.202 293.337 392.518 298.634 396.442 304.166C404.249 315.191 412.214 326.177 419.983 337.241C421.513 339.399 423.553 340.262 425.789 341.008C432.812 343.401 439.561 346.265 445.642 350.542C448.114 352.268 449.213 354.426 448.663 357.408C448.31 359.291 447.329 360.311 445.25 360.233C442.072 360.154 438.855 360.194 435.676 360.233C428.457 360.35 421.199 360.507 413.98 360.625C410.448 360.704 407.663 359.134 405.662 356.349C396.363 343.166 387.104 329.983 377.844 316.8C377.413 316.172 377.099 315.309 376.079 315.466C375.765 314.092 375.059 312.915 374.313 311.738C366.191 298.752 358.07 285.765 349.909 272.778C349.32 271.836 348.771 270.895 347.437 270.973C345.946 266.657 343.514 262.773 341.316 258.85C337.275 251.591 332.802 244.568 328.84 237.27C325.976 232.052 324.21 226.363 323.818 220.36C323.504 215.338 325.309 211.022 328.997 207.53C329.86 206.706 331.037 206.079 331.312 204.745C332.567 204.941 333.744 204.392 334.921 204.156C337.432 203.685 340.022 203.45 342.454 204.195C346.692 205.451 350.615 207.373 354.068 210.277C355.245 211.258 356.422 212.513 358.266 212.121C360.267 215.26 362.896 217.849 365.485 220.517C366.545 221.616 367.643 222.675 367.879 224.284C367.682 225.186 367.486 226.128 367.329 227.03C366.466 232.17 364.975 237.074 361.091 240.841C360.267 241.665 360.502 242.253 360.973 243.077C363.68 247.864 366.27 252.729 368.977 257.476C371.292 261.557 373.332 265.794 375.961 269.679C375.961 269.875 375.922 270.149 376 270.306C378.59 275.603 381.218 280.86 383.808 286.157C384.2 286.942 384.75 287.138 385.456 287.06Z" fill="#F5B992"/>
<path d="M329.232 197.917C327.191 194.426 323.15 194.072 320.09 192.189C319.501 191.836 318.638 191.875 318.521 190.934C319.227 189.678 319.855 188.383 320.718 187.206C327.348 178.261 328.447 168.844 323.268 158.879C322.366 157.113 322.326 155.348 323.229 153.66C326.799 147.03 329.977 140.203 333.155 133.376C334.214 133.69 334.764 134.592 335.274 135.416C338.53 140.791 343.788 142.753 349.555 143.891C351.046 144.205 352.537 144.44 354.028 144.793C356.068 145.264 357.01 146.794 356.186 148.717C354.303 153.229 355.087 156.917 358.344 160.683C362.15 165.039 362.307 170.924 357.481 174.887C353.675 178.025 353.597 182.38 354.42 186.853C355.244 191.326 356.029 195.799 356.775 200.311C356.971 201.527 356.814 202.783 356.814 203.999C354.891 203.567 353.518 202.233 352.066 201.095C345.043 195.603 337.706 192.66 329.232 197.917Z" fill="#F5B992"/>
<path d="M333.076 133.376C329.938 140.203 326.72 147.03 323.15 153.66C322.248 155.348 322.287 157.113 323.189 158.879C328.368 168.844 327.309 178.261 320.639 187.206C319.776 188.344 319.187 189.678 318.442 190.934C315.185 190.737 312.753 188.658 310.046 187.206C309.261 186.775 308.672 185.833 307.613 186.029C307.338 185.323 306.789 184.891 306.24 184.421C301.335 180.183 297.608 175.004 295.529 168.923C292.311 159.506 294.195 150.561 299.099 142.165C299.687 141.184 300.511 140.281 300.276 139.026C300.59 139.104 300.865 139.183 301.178 139.261C301.963 139.732 301.924 139.104 301.963 138.633C309.222 130.08 321.424 127.412 332.527 132.748C332.802 132.827 332.919 133.141 333.076 133.376Z" fill="#804310"/>
<path d="M304.279 190.502C298.864 196.152 293.842 202.155 286.897 206.118C286.191 206.51 285.524 206.942 284.779 207.216C282.464 208.04 281.091 207.334 280.659 204.902C280.031 201.527 280.071 198.114 279.914 194.74C279.757 191.326 279.717 187.913 279.561 184.539C279.207 176.849 276.932 169.786 272.891 163.234C267.162 153.896 270.105 142.675 279.404 137.849C281.091 136.986 282.896 136.397 284.779 136.162C290.193 135.534 295.215 137.025 300.159 138.987C297.216 140.321 295.098 142.714 293.41 145.225C289.33 151.346 288.428 158.134 290.154 165.314C291.056 169.159 293.057 172.494 294.784 175.985C296.745 179.909 298.119 184.146 300.669 187.795C301.571 189.011 302.395 190.463 304.279 190.502Z" fill="#814311"/>
<path d="M107.044 336.457C107.005 344.539 107.005 352.621 106.966 360.704C106.338 361.214 105.593 361.018 104.886 361.018C100.61 361.057 96.3331 361.057 92.0565 361.096C82.0516 361.214 72.0859 361.332 62.081 361.567C59.7662 361.606 57.4905 361.92 55.1757 361.999C53.3709 362.038 51.9584 361.41 51.4091 359.723C50.8206 358.036 51.6053 356.623 52.9393 355.525C54.8618 353.955 56.7843 352.425 58.6676 350.895C66.1222 344.892 73.4984 338.889 80.9922 332.965C86.5244 328.57 92.9981 328.57 98.5303 332.925C101.081 334.926 103.945 335.947 107.044 336.457Z" fill="#F5BC92"/>
<path d="M376 269.757C373.371 265.873 371.331 261.635 369.016 257.555C366.309 252.768 363.68 247.943 361.012 243.156C360.541 242.332 360.306 241.743 361.13 240.919C365.014 237.153 366.505 232.249 367.368 227.109C367.525 226.167 367.721 225.265 367.917 224.362C369.448 224.598 370.389 225.814 371.527 226.638C377.295 230.954 383.062 235.27 386.79 241.586C391.458 249.512 391.89 257.869 389.065 266.501C385.181 266.971 381.454 267.952 377.805 269.326C377.098 269.208 376.549 269.443 376 269.757Z" fill="#8A8AD9"/>
<path d="M370.036 322.921C366.858 319.39 362.856 316.918 359.051 314.171C352.106 309.11 345.24 303.97 338.531 298.556C337.707 297.889 337.04 296.986 336.294 296.202C340.218 290.12 343.631 283.804 345.868 276.898C346.26 275.682 346.613 274.426 346.966 273.171C351.125 279.841 355.245 286.511 359.443 293.141C364.544 301.145 369.252 309.424 374.705 317.192C373.999 319.782 371.763 321.155 370.036 322.921Z" fill="#F5B992"/>
<path d="M304.278 190.503C302.395 190.464 301.571 189.012 300.669 187.717C298.119 184.069 296.745 179.87 294.784 175.908C293.057 172.455 291.096 169.081 290.154 165.236C288.428 158.056 289.291 151.268 293.41 145.148C295.097 142.636 297.216 140.243 300.159 138.909L300.316 138.988C300.551 140.282 299.727 141.146 299.139 142.126C294.234 150.562 292.39 159.508 295.568 168.885C297.648 174.966 301.375 180.145 306.279 184.382C306.829 184.853 307.378 185.324 307.653 185.991C307.143 188.031 305.691 189.248 304.278 190.503Z" fill="#633402"/>
<path d="M329.232 197.917C337.707 192.66 345.044 195.603 352.027 201.056C353.479 202.194 354.852 203.528 356.775 203.96C358.109 206.549 358.148 209.374 358.266 212.199C356.422 212.591 355.245 211.336 354.068 210.355C350.654 207.452 346.691 205.49 342.454 204.274C340.022 203.567 337.432 203.803 334.921 204.234C333.705 204.47 332.567 205.019 331.311 204.823C330.527 202.547 329.585 200.311 329.232 197.917Z" fill="#DDA781"/>
<path d="M374.744 317.232C369.291 309.424 364.543 301.185 359.482 293.181C355.284 286.55 351.164 279.88 347.005 273.21C346.888 272.426 346.927 271.68 347.476 271.052C348.81 270.974 349.359 271.916 349.948 272.857C358.07 285.844 366.23 298.831 374.352 311.818C375.098 312.995 375.765 314.172 376.118 315.545C375.843 316.251 375.568 316.957 374.744 317.232Z" fill="#DDA781"/>
<path d="M377.766 269.325C381.414 267.952 385.142 266.971 389.026 266.5C388.359 272.699 387.496 278.859 385.887 284.901C382.827 279.918 380.473 274.543 377.766 269.325Z" fill="#F3B991"/>
<path d="M377.765 269.326C380.472 274.505 382.826 279.919 385.887 284.902C386.044 285.687 385.965 286.432 385.455 287.06C384.749 287.138 384.2 286.903 383.847 286.236C381.257 280.939 378.628 275.682 376.039 270.385C375.96 270.189 376 269.954 376 269.757C376.549 269.443 377.098 269.208 377.765 269.326Z" fill="#DCA781"/>
<path d="M302.003 138.594C301.964 139.065 302.003 139.692 301.218 139.222C301.454 139.025 301.728 138.829 302.003 138.594Z" fill="#814311"/>
</svg>
