<svg width="500" height="500" viewBox="0 0 500 500" fill="none" xmlns="http://www.w3.org/2000/svg">
<path d="M162.717 323.942C165.197 323.949 167.68 323.956 170.16 323.964C170.601 323.635 171.053 323.618 171.518 323.904C171.723 323.879 171.928 323.858 172.129 323.833C172.354 323.6 172.619 323.583 172.908 323.688C173.438 323.621 173.97 323.558 174.499 323.491C175.522 323.159 176.556 322.916 177.643 322.993C177.95 322.94 178.26 322.891 178.567 322.838C178.772 322.598 179.029 322.552 179.318 322.619C179.512 322.57 179.706 322.521 179.904 322.475C180.01 322.313 180.158 322.256 180.341 322.291C185.545 320.411 190.205 317.575 194.424 314.047C197.19 311.733 199.794 309.221 202.122 306.455C207.745 299.766 213.157 292.908 218.537 286.022C225.303 277.358 231.833 268.517 238.43 259.726C239.001 258.964 239.478 258.121 240.24 257.514C240.321 257.31 240.363 257.077 240.49 256.904C241.986 254.865 243.57 252.886 245.309 251.055C248.989 247.185 252.739 243.378 256.46 239.547C259.868 236.041 263.269 232.523 266.695 229.031C267.478 228.234 268.173 227.33 269.136 226.72C268.783 223.972 267.95 221.347 267.026 218.754C264.878 212.736 261.636 207.391 257.035 202.922C252.908 198.914 248.128 195.912 242.755 193.855C241.972 193.555 241.143 193.372 240.338 193.132C240.144 193.203 239.996 193.143 239.88 192.98C239.573 192.928 239.27 192.875 238.963 192.825C238.666 192.931 238.402 192.892 238.19 192.638C237.661 192.578 237.132 192.522 236.603 192.462C236.095 192.603 235.597 192.673 235.146 192.307C234.038 192.243 232.93 192.222 231.826 192.356C231.692 192.504 231.537 192.532 231.36 192.437C230.725 192.508 230.087 192.578 229.452 192.649C229.325 192.804 229.173 192.857 228.986 192.765C228.577 192.839 228.171 192.917 227.762 192.991C227.645 193.153 227.497 193.21 227.307 193.143C222.7 194.25 218.745 196.551 215.302 199.768C213.937 201.045 212.762 202.484 211.629 203.966C206.87 210.21 202.577 216.761 198.58 223.517C191.069 236.217 184.846 249.538 179.311 263.194C178.443 265.335 177.523 267.459 176.708 269.622C176.069 271.315 175.106 272.842 174.379 274.493C172.453 278.882 170.439 283.232 168.46 287.599C168.368 287.804 168.266 288.005 168.174 288.213C168.015 288.58 167.747 288.71 167.359 288.601C166.872 288.463 166.382 288.329 165.892 288.195C165.525 288.403 165.242 288.273 164.999 287.973C164.396 287.814 163.793 287.656 163.189 287.497C162.865 287.684 162.593 287.61 162.367 287.324C162.187 287.275 162.007 287.229 161.828 287.179C161.478 287.387 161.193 287.268 160.939 286.996C160.625 286.922 160.311 286.844 159.997 286.77C159.683 287.105 159.46 286.887 159.242 286.647C158.928 286.576 158.614 286.506 158.303 286.431C158.032 286.721 157.817 286.615 157.63 286.333C157.178 286.248 156.726 286.16 156.275 286.075C156.01 286.368 155.792 286.28 155.598 285.99C155.146 285.909 154.694 285.832 154.243 285.751C153.865 286.082 153.53 286.001 153.227 285.641C152.923 285.599 152.62 285.56 152.317 285.521C151.692 285.684 151.071 285.793 150.521 285.317C149.618 285.225 148.718 285.133 147.815 285.041C147.455 285.384 147.12 285.341 146.796 284.989C142.284 284.608 137.772 284.618 133.26 284.999C132.939 285.345 132.6 285.394 132.244 285.052C130.441 285.25 128.635 285.447 126.832 285.645C126.525 285.998 126.19 286.079 125.812 285.751C125.389 285.825 124.962 285.895 124.539 285.969C124.313 286.216 124.08 286.403 123.78 286.065C122.652 286.269 121.526 286.474 120.397 286.678C120.083 287.035 119.702 287.059 119.282 286.904C119.088 286.943 118.898 286.982 118.704 287.017C118.475 287.285 118.207 287.356 117.889 287.169C115.458 287.694 113.031 288.241 110.657 288.989C110.421 289.285 110.138 289.416 109.768 289.229C109.274 289.374 108.78 289.518 108.286 289.663C108.054 289.963 107.771 290.097 107.401 289.917C106.907 290.062 106.41 290.203 105.916 290.347C105.676 290.64 105.394 290.771 105.027 290.587C104.533 290.728 104.039 290.873 103.545 291.014C103.305 291.317 103.023 291.451 102.652 291.247C101.707 291.515 100.765 291.78 99.8197 292.048C99.5798 292.33 99.3011 292.464 98.9378 292.295C98.4404 292.432 97.9464 292.57 97.449 292.707C97.2056 293.007 96.9234 293.134 96.5565 292.93C95.6146 293.194 94.6691 293.455 93.7272 293.72C93.4873 294.023 93.2051 294.157 92.8347 293.953C92.4396 294.055 92.048 294.157 91.6529 294.256C91.5435 294.415 91.3954 294.468 91.2119 294.415C90.8098 294.521 90.4076 294.626 90.0089 294.736C89.8361 294.986 89.5856 295.127 89.3034 295.223C89.388 296.228 89.4762 297.23 89.5609 298.235C89.8608 298.429 89.8855 298.638 89.5927 298.863C89.6174 299.417 89.5927 299.978 89.6773 300.525C89.9278 302.123 89.9066 303.732 89.8713 305.337C90.2453 305.884 90.2453 306.441 89.9137 307.009C89.9454 307.845 89.9278 308.685 90.0195 309.514C90.3194 312.294 90.2242 315.081 90.21 317.864C90.6228 318.866 90.6122 319.875 90.2559 320.891C90.2806 321.533 90.3053 322.175 90.33 322.821C90.9932 323.011 91.674 322.937 92.3479 322.94C100.691 322.983 109.034 322.993 117.378 323.057C126.229 323.127 135.076 323.237 143.928 323.35C146.238 323.378 148.549 323.48 150.856 323.551C152.094 323.254 154.077 323.297 155.262 323.639C157.517 323.727 159.774 323.815 162.029 323.904C162.269 323.65 162.494 323.688 162.71 323.939L162.717 323.942Z" fill="#686D65"/>
<path d="M323.922 320.877C326.321 321.695 328.766 322.33 331.271 322.743C333.377 323.092 335.493 323.385 337.61 323.656C339.97 323.963 342.341 323.801 344.69 324.009C350.885 324.56 357.087 324.242 363.282 324.32C364.52 324.334 365.762 324.246 366.99 324.524C367.311 324.598 367.677 324.605 367.998 324.538C369.561 324.21 371.152 324.422 372.719 324.256C375.47 323.963 378.233 324.034 380.984 323.854C382.275 323.769 383.563 323.642 384.858 323.653C385.419 323.656 385.976 323.741 386.537 323.78C387.041 323.815 387.567 323.939 388.047 323.843C389.5 323.547 390.971 323.699 392.428 323.593C395.007 323.406 397.586 323.198 400.165 323C400.278 322.993 400.391 322.979 400.503 322.972C402.751 322.835 405.008 322.799 407.242 322.538C412.247 321.949 417.264 322.259 422.277 322.224C429.495 322.175 436.716 322.224 443.934 322.224C444.89 322.224 445.836 322.175 446.795 322.034C447.903 321.871 449.046 321.928 450.171 321.924C455.53 321.907 460.889 321.9 466.244 321.882C466.752 321.882 467.267 321.9 467.761 321.808C471.737 321.074 473.98 316.121 471.331 312.53C471.105 312.223 470.777 311.958 470.445 311.768C469.962 311.486 469.447 311.235 468.914 311.066C466.498 310.297 464.159 309.32 461.788 308.427C458.783 307.295 455.667 306.526 452.559 305.735C452.344 305.679 452.111 305.675 451.889 305.665C449.021 305.502 446.153 305.386 443.285 305.241C440.756 305.114 438.212 305.136 435.697 304.892C433.668 304.695 431.633 304.818 429.625 304.582C426.824 304.254 423.991 304.497 421.205 304.042C421.095 304.024 420.979 304.017 420.866 304.017C417.818 304.095 414.791 303.703 411.754 303.583C409.224 303.485 406.688 303.379 404.165 303.195C402.535 303.075 400.892 303.107 399.283 302.895C397.103 302.606 394.891 302.768 392.725 302.349C392.287 302.264 391.825 302.275 391.374 302.285C389.955 302.317 388.573 302.01 387.183 301.827C386.456 301.731 385.736 301.671 385.009 301.604C384.06 301.52 383.115 301.364 382.17 301.237C380.762 301.195 379.443 300.673 378.056 300.472C375.686 300.13 373.361 299.498 370.979 299.149C368.775 298.824 366.594 298.327 364.4 297.914C364.181 297.872 363.952 297.865 363.73 297.872C362.541 297.925 361.398 297.583 360.248 297.385C358.16 297.022 356.11 296.454 354.004 296.171C353.707 296.133 353.468 296.03 353.305 295.773C352.804 295.872 352.303 295.875 351.806 295.766C349.238 295.208 346.659 294.697 344.105 294.08C342.203 293.621 340.302 293.148 338.379 292.788C337.504 292.623 336.64 292.39 335.769 292.189C334.417 292.125 333.052 291.97 331.722 292.199C329.172 292.644 326.635 293.205 324.279 294.316C321.139 295.798 318.504 297.833 317.287 301.262C316.743 302.797 316.154 304.321 316.122 305.989C316.041 310.24 317.177 314.096 319.802 317.483C320.744 318.7 321.767 319.801 323.22 320.418C323.474 320.524 323.69 320.718 323.922 320.87V320.877Z" fill="#FFB88B"/>
<path d="M269.136 226.724C268.173 227.334 267.478 228.234 266.695 229.034C263.269 232.527 259.869 236.041 256.461 239.551C252.739 243.382 248.989 247.188 245.309 251.058C243.57 252.889 241.986 254.868 240.49 256.907C240.363 257.08 240.321 257.313 240.24 257.518C241.961 260.936 243.898 264.235 245.849 267.526C247.514 270.331 249.165 273.149 250.781 275.982C251.37 277.016 252.083 277.951 252.781 278.903C255.797 283.038 258.785 287.193 261.855 291.289C264.624 294.986 267.616 298.5 271.009 301.643C272.075 302.631 273.08 303.703 274.354 304.451C274.565 304.053 274.788 303.661 274.989 303.259C282.062 288.926 289.333 274.691 296.265 260.283C296.505 259.783 296.692 259.236 297.111 258.837C296.092 257.624 294.91 256.59 293.654 255.63C289.879 252.748 286.542 249.393 283.293 245.961C279.261 241.703 275.595 237.148 272.579 232.1C271.715 230.654 271.023 229.105 270.025 227.733C269.76 227.369 269.531 226.978 269.143 226.724H269.136Z" fill="#FFB88B"/>
<path d="M297.108 258.833C296.688 259.235 296.501 259.778 296.261 260.279C289.333 274.683 282.058 288.918 274.985 303.255C274.787 303.657 274.565 304.049 274.35 304.447C274.403 305.054 274.787 305.474 275.158 305.901C276.608 307.552 278.04 309.22 279.525 310.84C281.356 312.833 283.24 314.777 285.089 316.752C285.787 317.497 286.567 318.114 287.452 318.643C289.34 319.772 291.245 320.851 293.266 321.74C295.566 322.753 297.99 323.173 300.427 323.624C302.16 323.945 303.923 323.797 305.645 324.037C307.504 324.295 309.363 324.351 311.212 324.22C313.456 324.062 315.71 323.949 317.929 323.54C318.317 323.469 318.712 323.391 319.072 323.243C320.737 322.559 322.413 321.896 323.915 320.876C323.683 320.724 323.467 320.534 323.213 320.425C321.76 319.807 320.737 318.707 319.795 317.489C317.17 314.103 316.034 310.247 316.115 305.996C316.147 304.331 316.736 302.803 317.28 301.269C318.497 297.84 321.136 295.804 324.272 294.323C326.628 293.211 329.165 292.65 331.715 292.206C333.049 291.973 334.414 292.132 335.762 292.195C334.714 291.137 333.553 290.22 332.347 289.355C330.442 288.128 328.533 286.904 326.635 285.662C326.466 285.549 326.371 285.32 326.24 285.143C324.522 284.145 323.1 282.78 321.658 281.443C319.223 279.181 316.807 276.899 314.397 274.609C313.911 274.147 313.318 273.784 312.979 273.173C312.126 272.447 311.247 271.745 310.418 270.99C308.421 269.173 306.456 267.328 304.463 265.508C302.015 263.274 299.553 261.056 297.094 258.833H297.108Z" fill="#8B8ADF"/>
<path d="M90.2135 317.871C90.224 315.084 90.3228 312.301 90.0229 309.521C89.9347 308.692 89.9488 307.852 89.9171 307.016C89.4303 306.473 89.4585 305.912 89.8748 305.344C89.91 303.735 89.9312 302.13 89.6808 300.532C89.5961 299.989 89.6208 299.424 89.5961 298.87C89.2856 298.676 89.2574 298.468 89.5643 298.242C89.4796 297.237 89.3915 296.235 89.3068 295.23C89.208 295.053 89.1092 294.873 89.0105 294.697C87.0032 290.499 83.5142 288.626 79.0198 288.361C77.4428 288.269 75.8483 288.29 74.3419 288.83C73.2307 289.229 72.1441 289.709 71.0858 290.234C64.577 293.469 58.0612 296.694 51.5807 299.992C47.365 302.137 43.2057 304.395 39.0217 306.61C37.8752 307.217 36.7463 307.852 35.5998 308.452C34.6931 308.928 33.8888 309.549 33.1374 310.223C30.8655 312.255 30.1988 314.837 30.8161 317.744C31.5182 321.053 33.8288 323.113 37.1767 323.628C40.2035 324.094 43.2304 324.006 46.2643 323.709C46.7123 323.663 47.1639 323.664 47.6154 323.66C50.3213 323.628 53.0341 323.709 55.7328 323.554C65.025 323.025 74.3243 323.431 83.6165 323.314C85.8672 323.286 88.1109 323.194 90.3369 322.827C90.3122 322.185 90.2875 321.54 90.2628 320.898C89.7266 319.896 89.783 318.887 90.2169 317.871H90.2135Z" fill="#FFB88B"/>
<path d="M332.357 289.356C333.564 290.221 334.725 291.138 335.772 292.196C336.644 292.397 337.504 292.63 338.383 292.796C340.309 293.159 342.207 293.628 344.108 294.087C346.663 294.704 349.241 295.216 351.81 295.773C352.307 295.883 352.808 295.879 353.309 295.78C353.912 294.74 355.016 294.514 356.011 294.112C356.512 293.752 357.006 293.378 357.521 293.039C362.474 289.797 367.427 286.552 372.391 283.324C374.31 282.075 375.862 280.449 377.213 278.632C378.458 276.96 379.616 275.22 380.811 273.513C380.85 273.167 380.84 272.814 381.048 272.511C381.006 268.987 379.383 266.186 377.033 263.706C374.444 260.975 371.361 258.982 367.924 257.5C367.73 257.553 367.603 257.469 367.522 257.296C366.76 257.006 365.995 256.717 365.233 256.431C365.042 256.513 364.922 256.421 364.827 256.269C364.622 256.213 364.418 256.156 364.217 256.103C364.026 256.188 363.899 256.103 363.804 255.941C363.039 255.736 362.277 255.532 361.511 255.327C361.349 255.451 361.222 255.387 361.109 255.25C360.788 255.204 360.467 255.154 360.146 255.109C359.966 255.204 359.818 255.165 359.701 254.996C357.458 254.671 355.207 254.724 352.956 254.893C351.531 255.003 350.236 255.585 348.91 256.047C348.896 256.326 348.959 256.654 348.677 256.816C347.943 257.246 347.393 257.899 346.715 258.403C344.003 260.425 341.597 262.781 339.512 265.455C336.471 269.361 334.284 273.7 333.105 278.512C332.883 279.418 332.541 280.202 331.994 280.925C331.973 281.055 331.952 281.186 331.93 281.313C331.874 283.052 331.828 284.791 332.005 286.523C332.103 287.469 332.234 288.414 332.347 289.36L332.357 289.356Z" fill="#894101"/>
<path d="M312.993 273.177C313.332 273.787 313.924 274.151 314.411 274.613C316.821 276.902 319.234 279.185 321.672 281.446C323.111 282.783 324.536 284.152 326.254 285.147C327.785 284.159 329.14 282.96 330.487 281.75C330.184 281.559 329.997 281.288 329.987 280.921C329.905 278.335 329.905 275.774 330.752 273.262C331.419 271.279 332.311 269.409 333.285 267.571C334.287 265.681 335.522 263.924 336.943 262.35C338.559 260.565 340.206 258.78 342.2 257.373C343.851 256.209 345.445 254.946 347.502 254.554C346.327 253.242 344.761 252.635 343.124 252.18C339.303 251.125 335.539 251.439 331.835 252.734C327.26 254.332 323.502 257.129 320.296 260.717C318.789 262.403 317.526 264.262 316.373 266.203C315.05 268.432 313.84 270.711 312.993 273.174V273.177Z" fill="#8A4102"/>
<path d="M380.815 273.513C379.619 275.22 378.462 276.96 377.216 278.632C375.865 280.445 374.313 282.075 372.394 283.324C367.43 286.552 362.477 289.797 357.524 293.039C357.009 293.378 356.519 293.752 356.014 294.112C356.152 294.299 356.318 294.429 356.558 294.471C357.436 294.637 358.318 294.771 359.207 294.884C361.2 295.135 363.176 295.544 365.155 295.9C367.519 296.327 369.889 296.726 372.239 297.22C374.81 297.759 377.407 298.179 379.954 298.849C380.54 299.005 380.988 299.248 381.369 299.671C381.63 299.961 381.862 300.275 382.106 300.578C382.935 299.957 383.859 299.604 384.9 299.52C385.683 299.456 386.459 299.315 387.235 299.195C387.454 299.16 387.673 299.093 387.881 299.012C389.214 298.493 389.557 297.675 388.978 296.341C388.368 294.93 387.429 293.741 386.452 292.57C385.443 291.364 384.427 290.157 383.496 288.894C382.374 287.377 381.806 285.613 381.429 283.775C381.072 282.054 381.069 280.315 381.069 278.572C381.069 276.882 381.079 275.196 381.086 273.506C380.998 273.506 380.91 273.506 380.822 273.506L380.815 273.513Z" fill="#FFB88B"/>
<path d="M347.502 254.558C345.442 254.949 343.847 256.212 342.2 257.376C340.206 258.78 338.559 260.565 336.943 262.354C335.522 263.927 334.287 265.684 333.285 267.575C332.311 269.413 331.422 271.283 330.752 273.265C329.905 275.774 329.905 278.338 329.986 280.924C329.997 281.291 330.18 281.559 330.487 281.75C330.766 281.595 331.041 281.439 331.32 281.284C331.468 281.012 331.708 280.917 332.001 280.924C332.548 280.201 332.89 279.421 333.112 278.511C334.287 273.699 336.478 269.36 339.518 265.455C341.6 262.781 344.009 260.424 346.722 258.403C347.4 257.898 347.95 257.249 348.684 256.815C348.962 256.65 348.902 256.321 348.917 256.046C348.363 255.634 348.211 254.833 347.505 254.561L347.502 254.558Z" fill="#62350E"/>
<path d="M382.099 300.582C381.855 300.278 381.619 299.964 381.362 299.675C380.981 299.252 380.533 299.005 379.947 298.853C377.4 298.183 374.803 297.759 372.232 297.223C369.882 296.733 367.511 296.331 365.148 295.904C363.169 295.544 361.193 295.138 359.2 294.888C358.311 294.775 357.429 294.644 356.551 294.475C356.314 294.429 356.145 294.299 356.007 294.115C355.013 294.521 353.908 294.747 353.305 295.784C353.464 296.045 353.707 296.144 354.004 296.183C356.11 296.461 358.159 297.029 360.248 297.396C361.398 297.597 362.537 297.936 363.73 297.883C363.952 297.872 364.181 297.883 364.4 297.925C366.594 298.338 368.774 298.839 370.979 299.16C373.361 299.509 375.685 300.141 378.056 300.483C379.442 300.684 380.762 301.203 382.169 301.248C382.145 301.026 382.124 300.804 382.099 300.582Z" fill="#EBA579"/>
<path d="M155.266 323.643C154.081 323.297 152.098 323.258 150.86 323.554C151.005 323.639 151.146 323.791 151.29 323.794C152.518 323.816 153.749 323.816 154.98 323.805C155.076 323.805 155.171 323.699 155.266 323.643Z" fill="#AFC0BD"/>
<path d="M177.646 322.997C176.56 322.919 175.526 323.163 174.503 323.494C175.604 323.664 176.659 323.533 177.646 322.997Z" fill="#AFC0BD"/>
<path d="M150.521 285.32C151.072 285.796 151.692 285.69 152.317 285.525C151.735 285.316 151.17 284.96 150.521 285.32Z" fill="#AEA39E"/>
<path d="M171.522 323.903C171.056 323.618 170.601 323.635 170.164 323.963C170.633 324.295 171.085 324.291 171.522 323.903Z" fill="#AFC0BD"/>
<path d="M153.231 285.648C153.534 286.008 153.869 286.089 154.247 285.758C153.936 285.454 153.601 285.394 153.231 285.648Z" fill="#AEA39E"/>
<path d="M125.812 285.757C126.19 286.085 126.525 286.004 126.832 285.652C126.462 285.39 126.126 285.461 125.812 285.757Z" fill="#AEA39E"/>
<path d="M380.815 273.513C380.903 273.513 380.991 273.513 381.08 273.513C381.288 273.174 381.386 272.835 381.051 272.511C380.843 272.814 380.85 273.17 380.815 273.513Z" fill="#EBA579"/>
<path d="M132.244 285.055C132.604 285.398 132.939 285.345 133.26 285.002C132.907 284.738 132.568 284.77 132.244 285.055Z" fill="#AEA39E"/>
<path d="M146.799 284.992C147.12 285.345 147.459 285.387 147.819 285.045C147.494 284.77 147.156 284.72 146.799 284.992Z" fill="#AEA39E"/>
<path d="M119.283 286.908C119.702 287.063 120.083 287.038 120.397 286.682C119.96 286.424 119.618 286.65 119.283 286.908Z" fill="#AEA39E"/>
<path d="M89.0069 294.697C89.1057 294.873 89.2045 295.05 89.3032 295.23C89.5855 295.134 89.8359 294.993 90.0088 294.743C89.6807 294.619 89.3456 294.63 89.0104 294.701L89.0069 294.697Z" fill="#AEA39E"/>
<path d="M162.717 323.942C162.502 323.692 162.276 323.653 162.036 323.907C162.251 324.193 162.477 324.21 162.717 323.942Z" fill="#AFC0BD"/>
<path d="M123.781 286.068C124.08 286.406 124.313 286.223 124.539 285.972C124.264 285.814 124.01 285.845 123.781 286.068Z" fill="#AEA39E"/>
<path d="M235.142 192.31C235.594 192.677 236.095 192.606 236.599 192.465C236.141 192.148 235.643 192.197 235.142 192.31Z" fill="#AEA39E"/>
<path d="M155.601 285.997C155.795 286.287 156.014 286.375 156.278 286.082C156.081 285.831 155.859 285.775 155.601 285.997Z" fill="#AEA39E"/>
<path d="M159.249 286.65C159.468 286.89 159.69 287.108 160.004 286.773C159.785 286.537 159.535 286.498 159.249 286.65Z" fill="#AEA39E"/>
<path d="M160.942 287.002C161.196 287.274 161.478 287.39 161.831 287.186C161.574 286.928 161.288 286.819 160.942 287.002Z" fill="#AEA39E"/>
<path d="M117.889 287.176C118.207 287.363 118.475 287.292 118.704 287.024C118.376 286.774 118.126 286.936 117.889 287.176Z" fill="#AEA39E"/>
<path d="M162.371 287.327C162.597 287.609 162.868 287.687 163.193 287.5C162.957 287.267 162.706 287.084 162.371 287.327Z" fill="#AEA39E"/>
<path d="M165.002 287.976C165.242 288.276 165.528 288.407 165.895 288.199C165.645 287.938 165.362 287.807 165.002 287.976Z" fill="#AEA39E"/>
<path d="M109.768 289.232C110.139 289.419 110.421 289.289 110.657 288.992C110.294 288.83 110.012 288.954 109.768 289.232Z" fill="#AEA39E"/>
<path d="M107.401 289.92C107.772 290.103 108.054 289.966 108.287 289.666C107.923 289.511 107.638 289.631 107.401 289.92Z" fill="#AEA39E"/>
<path d="M105.03 290.59C105.397 290.777 105.68 290.643 105.919 290.35C105.56 290.188 105.274 290.308 105.03 290.59Z" fill="#AEA39E"/>
<path d="M102.656 291.251C103.027 291.452 103.309 291.321 103.549 291.018C103.189 290.859 102.903 290.982 102.656 291.251Z" fill="#AEA39E"/>
<path d="M98.9413 292.301C99.3047 292.467 99.5869 292.337 99.8232 292.054C99.4599 291.889 99.1741 292.005 98.9413 292.301Z" fill="#AEA39E"/>
<path d="M157.633 286.34C157.824 286.622 158.035 286.728 158.307 286.438C158.113 286.181 157.894 286.124 157.633 286.34Z" fill="#AEA39E"/>
<path d="M96.5601 292.936C96.927 293.141 97.2127 293.014 97.4526 292.714C97.0963 292.548 96.8106 292.675 96.5601 292.936Z" fill="#AEA39E"/>
<path d="M92.835 293.956C93.2054 294.16 93.4876 294.026 93.7275 293.723C93.3677 293.561 93.0855 293.695 92.835 293.956Z" fill="#AEA39E"/>
<path d="M238.19 192.642C238.402 192.896 238.663 192.935 238.963 192.829C238.748 192.589 238.487 192.554 238.19 192.642Z" fill="#AEA39E"/>
<path d="M179.322 322.623C179.029 322.556 178.771 322.602 178.57 322.841C178.874 322.954 179.121 322.866 179.322 322.623Z" fill="#AFC0BD"/>
<path d="M172.912 323.688C172.623 323.582 172.358 323.604 172.132 323.833C172.425 323.956 172.686 323.925 172.912 323.688Z" fill="#AFC0BD"/>
<path d="M231.353 192.44C231.53 192.535 231.685 192.504 231.819 192.359C231.642 192.271 231.487 192.302 231.353 192.44Z" fill="#AEA39E"/>
<path d="M228.979 192.768C229.166 192.86 229.321 192.807 229.445 192.652C229.265 192.588 229.106 192.627 228.979 192.768Z" fill="#AEA39E"/>
<path d="M364.831 256.265C364.926 256.417 365.049 256.509 365.236 256.428C365.155 256.237 365.014 256.202 364.831 256.265Z" fill="#EBA579"/>
<path d="M363.804 255.937C363.899 256.103 364.026 256.184 364.217 256.099C364.132 255.909 363.991 255.87 363.804 255.937Z" fill="#EBA579"/>
<path d="M361.109 255.242C361.221 255.38 361.348 255.443 361.511 255.32C361.401 255.175 361.264 255.158 361.109 255.242Z" fill="#EBA579"/>
<path d="M367.526 257.291C367.607 257.464 367.734 257.549 367.928 257.496C367.854 257.312 367.716 257.245 367.526 257.291Z" fill="#EBA579"/>
<path d="M91.2119 294.422C91.3988 294.478 91.5435 294.422 91.6528 294.263C91.4659 294.203 91.3212 294.263 91.2119 294.422Z" fill="#AEA39E"/>
<path d="M359.705 254.989C359.818 255.158 359.966 255.197 360.149 255.101C360.037 254.929 359.888 254.886 359.705 254.989Z" fill="#EBA579"/>
<path d="M227.3 193.146C227.49 193.213 227.642 193.157 227.755 192.995C227.568 192.938 227.416 192.991 227.3 193.146Z" fill="#AEA39E"/>
<path d="M239.876 192.983C239.993 193.146 240.144 193.206 240.335 193.135C240.215 192.98 240.063 192.93 239.876 192.983Z" fill="#AEA39E"/>
<path d="M180.345 322.291C180.158 322.256 180.01 322.312 179.908 322.475C180.102 322.531 180.243 322.45 180.345 322.291Z" fill="#AFC0BD"/>
<path d="M90.2139 317.871C89.78 318.887 89.7236 319.896 90.2598 320.898C90.6161 319.882 90.6267 318.873 90.2139 317.871Z" fill="#EBA579"/>
<path d="M89.8712 305.344C89.4585 305.912 89.4303 306.469 89.9136 307.016C90.2452 306.451 90.2452 305.894 89.8712 305.344Z" fill="#EBA579"/>
<path d="M89.5609 298.242C89.2576 298.468 89.2858 298.676 89.5927 298.87C89.8855 298.644 89.8573 298.436 89.5609 298.242Z" fill="#AEA39E"/>
<path d="M331.32 281.281C331.525 281.291 331.733 281.298 331.937 281.309C331.959 281.179 331.98 281.048 332.001 280.921C331.708 280.917 331.468 281.013 331.32 281.281Z" fill="#AEA39E"/>
</svg>
