<svg width="500" height="500" viewBox="0 0 500 500" fill="none" xmlns="http://www.w3.org/2000/svg">
<path d="M340.361 323.943C337.881 323.95 335.397 323.957 332.917 323.965C332.476 323.636 332.024 323.619 331.559 323.905C331.354 323.88 331.15 323.859 330.948 323.834C330.723 323.601 330.458 323.584 330.169 323.689C329.64 323.622 329.107 323.559 328.578 323.492C327.555 323.16 326.521 322.917 325.435 322.994C325.128 322.941 324.817 322.892 324.51 322.839C324.306 322.599 324.048 322.553 323.759 322.62C323.565 322.571 323.371 322.522 323.173 322.476C323.067 322.314 322.919 322.257 322.736 322.292C317.532 320.412 312.872 317.576 308.653 314.048C305.887 311.734 303.284 309.222 300.955 306.456C295.332 299.767 289.92 292.909 284.54 286.023C277.774 277.359 271.244 268.518 264.647 259.727C264.076 258.965 263.599 258.122 262.837 257.515C262.756 257.311 262.714 257.078 262.587 256.905C261.091 254.866 259.507 252.887 257.768 251.056C254.089 247.186 250.339 243.379 246.617 239.548C243.209 236.042 239.808 232.524 236.383 229.032C235.599 228.235 234.904 227.331 233.941 226.721C234.294 223.973 235.127 221.348 236.051 218.755C238.199 212.737 241.441 207.392 246.042 202.923C250.169 198.915 254.949 195.913 260.322 193.856C261.105 193.556 261.934 193.373 262.739 193.133C262.933 193.204 263.081 193.144 263.197 192.981C263.504 192.928 263.808 192.876 264.115 192.826C264.411 192.932 264.675 192.893 264.887 192.639C265.416 192.579 265.945 192.523 266.475 192.463C266.983 192.604 267.48 192.674 267.932 192.308C269.039 192.244 270.147 192.223 271.251 192.357C271.385 192.505 271.541 192.533 271.717 192.438C272.352 192.509 272.99 192.579 273.625 192.65C273.752 192.805 273.904 192.858 274.091 192.766C274.5 192.84 274.906 192.918 275.315 192.992C275.432 193.154 275.58 193.211 275.77 193.144C280.378 194.251 284.332 196.552 287.775 199.769C289.141 201.046 290.315 202.485 291.448 203.967C296.207 210.211 300.5 216.762 304.497 223.518C312.008 236.218 318.231 249.539 323.766 263.195C324.634 265.336 325.554 267.46 326.369 269.623C327.008 271.316 327.971 272.843 328.698 274.494C330.624 278.883 332.638 283.233 334.617 287.6C334.709 287.805 334.811 288.006 334.903 288.214C335.062 288.581 335.33 288.711 335.718 288.602C336.205 288.464 336.695 288.33 337.186 288.196C337.552 288.404 337.835 288.274 338.078 287.974C338.681 287.815 339.285 287.657 339.888 287.498C340.212 287.685 340.484 287.611 340.71 287.325C340.89 287.276 341.07 287.23 341.25 287.18C341.599 287.388 341.885 287.269 342.139 286.997C342.453 286.923 342.767 286.845 343.08 286.771C343.394 287.106 343.617 286.887 343.835 286.648C344.149 286.577 344.463 286.506 344.774 286.432C345.045 286.722 345.261 286.616 345.448 286.334C345.899 286.249 346.351 286.161 346.802 286.076C347.067 286.369 347.286 286.281 347.48 285.991C347.931 285.91 348.383 285.833 348.834 285.752C349.212 286.083 349.547 286.002 349.85 285.642C350.154 285.6 350.457 285.561 350.76 285.522C351.385 285.685 352.006 285.794 352.556 285.318C353.459 285.226 354.359 285.134 355.262 285.042C355.622 285.385 355.957 285.342 356.281 284.99C360.793 284.609 365.306 284.619 369.818 285C370.139 285.346 370.477 285.395 370.834 285.053C372.636 285.251 374.443 285.448 376.245 285.646C376.552 285.999 376.887 286.08 377.265 285.752C377.688 285.826 378.115 285.896 378.538 285.97C378.764 286.217 378.997 286.404 379.297 286.066C380.426 286.27 381.551 286.475 382.68 286.679C382.994 287.036 383.375 287.06 383.795 286.905C383.989 286.944 384.179 286.983 384.373 287.018C384.603 287.286 384.871 287.357 385.188 287.17C387.619 287.695 390.046 288.242 392.42 288.99C392.656 289.286 392.939 289.417 393.309 289.23C393.803 289.375 394.297 289.519 394.791 289.664C395.024 289.964 395.306 290.098 395.676 289.918C396.17 290.063 396.668 290.204 397.161 290.348C397.401 290.641 397.684 290.772 398.05 290.588C398.544 290.729 399.038 290.874 399.532 291.015C399.772 291.318 400.054 291.452 400.425 291.248C401.37 291.516 402.312 291.781 403.257 292.049C403.497 292.331 403.776 292.465 404.139 292.296C404.637 292.433 405.131 292.571 405.628 292.708C405.872 293.008 406.154 293.135 406.521 292.931C407.463 293.195 408.408 293.456 409.35 293.721C409.59 294.024 409.872 294.158 410.242 293.954C410.638 294.056 411.029 294.158 411.424 294.257C411.534 294.416 411.682 294.469 411.865 294.416C412.267 294.522 412.67 294.627 413.068 294.737C413.241 294.987 413.492 295.128 413.774 295.224C413.689 296.229 413.601 297.231 413.516 298.236C413.216 298.43 413.192 298.639 413.484 298.864C413.46 299.418 413.484 299.979 413.4 300.526C413.149 302.124 413.171 303.733 413.206 305.338C412.832 305.885 412.832 306.442 413.163 307.01C413.132 307.846 413.149 308.686 413.058 309.515C412.758 312.295 412.853 315.082 412.867 317.865C412.454 318.867 412.465 319.876 412.821 320.892C412.797 321.534 412.772 322.176 412.747 322.822C412.084 323.012 411.403 322.938 410.729 322.941C402.386 322.984 394.043 322.994 385.7 323.058C376.848 323.128 368.001 323.238 359.15 323.351C356.839 323.379 354.528 323.481 352.221 323.552C350.983 323.255 349 323.298 347.815 323.64C345.561 323.728 343.303 323.816 341.048 323.905C340.809 323.651 340.583 323.689 340.368 323.94L340.361 323.943Z" fill="#686D65"/>
<path d="M179.155 320.877C176.756 321.695 174.311 322.33 171.806 322.743C169.7 323.092 167.584 323.385 165.467 323.656C163.107 323.963 160.736 323.801 158.387 324.009C152.192 324.56 145.99 324.242 139.795 324.32C138.557 324.334 137.315 324.246 136.088 324.524C135.767 324.598 135.4 324.605 135.079 324.538C133.516 324.21 131.925 324.422 130.358 324.256C127.607 323.963 124.845 324.034 122.093 323.854C120.802 323.769 119.514 323.642 118.219 323.653C117.658 323.656 117.101 323.741 116.54 323.78C116.036 323.815 115.51 323.939 115.03 323.843C113.577 323.547 112.106 323.699 110.649 323.593C108.07 323.406 105.491 323.198 102.912 323C102.799 322.993 102.687 322.979 102.574 322.972C100.326 322.835 98.0687 322.799 95.8356 322.538C90.8297 321.949 85.8131 322.259 80.8002 322.224C73.5823 322.175 66.3609 322.224 59.1431 322.224C58.1871 322.224 57.2416 322.175 56.2821 322.034C55.1743 321.871 54.0313 321.928 52.906 321.924C47.5473 321.907 42.1886 321.9 36.8334 321.882C36.3254 321.882 35.8103 321.9 35.3164 321.808C31.3406 321.074 29.0969 316.121 31.7463 312.53C31.9721 312.223 32.3002 311.958 32.6318 311.768C33.1151 311.486 33.6301 311.235 34.1628 311.066C36.5794 310.297 38.9183 309.32 41.289 308.427C44.2946 307.295 47.4097 306.526 50.5177 305.735C50.7328 305.679 50.9657 305.675 51.1879 305.665C54.056 305.502 56.9241 305.386 59.7922 305.241C62.3216 305.114 64.8652 305.136 67.3805 304.892C69.4089 304.695 71.4445 304.818 73.4518 304.582C76.2528 304.254 79.0857 304.497 81.8726 304.042C81.982 304.024 82.0984 304.017 82.2113 304.017C85.2593 304.095 88.2861 303.703 91.3235 303.583C93.853 303.485 96.3894 303.379 98.9118 303.195C100.542 303.075 102.186 303.107 103.794 302.895C105.974 302.606 108.186 302.768 110.352 302.349C110.79 302.264 111.252 302.275 111.704 302.285C113.122 302.317 114.505 302.01 115.895 301.827C116.621 301.731 117.341 301.671 118.068 301.604C119.017 301.52 119.962 301.364 120.908 301.237C122.315 301.195 123.635 300.673 125.021 300.472C127.392 300.13 129.716 299.498 132.098 299.149C134.303 298.824 136.483 298.327 138.677 297.914C138.896 297.872 139.125 297.865 139.347 297.872C140.536 297.925 141.679 297.583 142.829 297.385C144.918 297.022 146.967 296.454 149.073 296.171C149.37 296.133 149.61 296.03 149.772 295.773C150.273 295.872 150.774 295.875 151.271 295.766C153.839 295.208 156.418 294.697 158.972 294.08C160.874 293.621 162.775 293.148 164.698 292.788C165.573 292.623 166.437 292.39 167.309 292.189C168.66 292.125 170.025 291.97 171.355 292.199C173.905 292.644 176.442 293.205 178.798 294.316C181.938 295.798 184.573 297.833 185.791 301.262C186.334 302.797 186.923 304.321 186.955 305.989C187.036 310.24 185.9 314.096 183.275 317.483C182.333 318.7 181.31 319.801 179.857 320.418C179.603 320.524 179.388 320.718 179.155 320.87V320.877Z" fill="#FFB88B"/>
<path d="M233.941 226.725C234.904 227.335 235.599 228.234 236.382 229.035C239.808 232.528 243.209 236.041 246.616 239.552C250.338 243.383 254.088 247.189 257.768 251.059C259.507 252.89 261.091 254.869 262.587 256.908C262.714 257.081 262.756 257.314 262.837 257.519C261.116 260.937 259.179 264.236 257.228 267.527C255.563 270.332 253.912 273.15 252.296 275.983C251.707 277.017 250.994 277.952 250.296 278.904C247.28 283.039 244.292 287.194 241.223 291.29C238.453 294.987 235.462 298.501 232.068 301.644C231.003 302.632 229.997 303.704 228.724 304.452C228.512 304.054 228.29 303.662 228.089 303.26C221.015 288.927 213.745 274.692 206.812 260.284C206.573 259.783 206.386 259.237 205.966 258.838C206.985 257.624 208.167 256.591 209.423 255.631C213.198 252.749 216.535 249.394 219.784 245.962C223.816 241.704 227.482 237.149 230.498 232.101C231.362 230.655 232.054 229.106 233.052 227.734C233.317 227.37 233.546 226.979 233.934 226.725H233.941Z" fill="#FFB88B"/>
<path d="M205.969 258.834C206.389 259.236 206.576 259.779 206.816 260.28C213.745 274.684 221.019 288.919 228.092 303.256C228.29 303.658 228.512 304.05 228.727 304.448C228.674 305.055 228.29 305.475 227.919 305.902C226.469 307.553 225.037 309.221 223.552 310.841C221.721 312.834 219.837 314.778 217.989 316.753C217.29 317.498 216.51 318.115 215.625 318.644C213.738 319.773 211.833 320.852 209.811 321.741C207.511 322.754 205.087 323.174 202.65 323.625C200.918 323.946 199.154 323.798 197.432 324.038C195.573 324.296 193.714 324.352 191.865 324.221C189.622 324.063 187.367 323.95 185.148 323.541C184.76 323.47 184.365 323.392 184.005 323.244C182.34 322.56 180.665 321.897 179.162 320.877C179.395 320.725 179.61 320.535 179.864 320.426C181.317 319.808 182.34 318.708 183.282 317.49C185.907 314.104 187.043 310.248 186.962 305.997C186.93 304.332 186.341 302.804 185.797 301.27C184.58 297.841 181.942 295.805 178.805 294.323C176.449 293.212 173.912 292.651 171.362 292.207C170.028 291.974 168.663 292.133 167.315 292.196C168.363 291.138 169.524 290.221 170.73 289.356C172.635 288.129 174.544 286.905 176.442 285.663C176.611 285.55 176.706 285.321 176.837 285.144C178.555 284.146 179.977 282.781 181.42 281.444C183.854 279.182 186.27 276.9 188.68 274.61C189.167 274.148 189.759 273.785 190.098 273.174C190.952 272.448 191.83 271.746 192.659 270.991C194.656 269.174 196.621 267.329 198.614 265.509C201.062 263.275 203.525 261.056 205.983 258.834H205.969Z" fill="#8B8ADF"/>
<path d="M412.864 317.872C412.853 315.085 412.754 312.301 413.054 309.522C413.142 308.693 413.128 307.853 413.16 307.017C413.647 306.474 413.619 305.913 413.202 305.345C413.167 303.736 413.146 302.131 413.396 300.533C413.481 299.99 413.456 299.425 413.481 298.871C413.792 298.677 413.82 298.469 413.513 298.243C413.598 297.238 413.686 296.236 413.77 295.231C413.869 295.054 413.968 294.874 414.067 294.698C416.074 290.5 419.563 288.627 424.057 288.362C425.634 288.27 427.229 288.291 428.735 288.831C429.846 289.23 430.933 289.71 431.991 290.235C438.5 293.47 445.016 296.695 451.496 299.993C455.712 302.138 459.871 304.396 464.055 306.611C465.202 307.218 466.331 307.853 467.477 308.453C468.384 308.929 469.188 309.55 469.94 310.224C472.212 312.256 472.878 314.838 472.261 317.745C471.559 321.054 469.248 323.114 465.9 323.629C462.874 324.095 459.847 324.007 456.813 323.71C456.365 323.664 455.913 323.664 455.462 323.661C452.756 323.629 450.043 323.71 447.344 323.555C438.052 323.026 428.753 323.432 419.461 323.315C417.21 323.287 414.966 323.195 412.74 322.828C412.765 322.186 412.79 321.541 412.814 320.899C413.351 319.897 413.294 318.888 412.86 317.872H412.864Z" fill="#FFB88B"/>
<path d="M170.72 289.357C169.513 290.222 168.353 291.139 167.305 292.197C166.434 292.398 165.573 292.631 164.694 292.797C162.768 293.16 160.87 293.629 158.969 294.088C156.415 294.705 153.836 295.217 151.268 295.774C150.77 295.884 150.269 295.88 149.768 295.781C149.165 294.741 148.061 294.515 147.066 294.113C146.565 293.753 146.071 293.379 145.556 293.04C140.603 289.798 135.65 286.553 130.686 283.325C128.767 282.076 127.215 280.45 125.864 278.633C124.619 276.961 123.462 275.221 122.266 273.514C122.227 273.168 122.237 272.815 122.029 272.512C122.072 268.988 123.694 266.187 126.044 263.707C128.633 260.976 131.717 258.983 135.153 257.501C135.347 257.554 135.474 257.47 135.555 257.297C136.317 257.007 137.082 256.718 137.844 256.432C138.035 256.514 138.155 256.422 138.25 256.27C138.455 256.214 138.659 256.157 138.86 256.104C139.051 256.189 139.178 256.104 139.273 255.942C140.039 255.737 140.801 255.533 141.566 255.328C141.728 255.452 141.855 255.388 141.968 255.251C142.289 255.205 142.61 255.155 142.931 255.109C143.111 255.205 143.26 255.166 143.376 254.997C145.62 254.672 147.87 254.725 150.121 254.894C151.546 255.004 152.841 255.586 154.167 256.048C154.182 256.327 154.118 256.655 154.4 256.817C155.134 257.247 155.684 257.9 156.362 258.404C159.075 260.426 161.481 262.782 163.565 265.456C166.606 269.362 168.794 273.701 169.972 278.513C170.194 279.419 170.536 280.203 171.083 280.926C171.104 281.056 171.125 281.187 171.147 281.314C171.203 283.053 171.249 284.792 171.073 286.524C170.974 287.47 170.843 288.415 170.73 289.361L170.72 289.357Z" fill="#894101"/>
<path d="M190.084 273.178C189.745 273.788 189.153 274.152 188.666 274.614C186.256 276.903 183.843 279.186 181.406 281.447C179.966 282.784 178.541 284.153 176.823 285.148C175.292 284.16 173.937 282.961 172.59 281.751C172.893 281.56 173.08 281.289 173.091 280.922C173.172 278.336 173.172 275.775 172.325 273.263C171.658 271.28 170.766 269.41 169.792 267.572C168.79 265.682 167.556 263.925 166.134 262.351C164.518 260.566 162.871 258.781 160.877 257.374C159.226 256.209 157.632 254.947 155.575 254.555C156.75 253.243 158.316 252.636 159.953 252.181C163.774 251.126 167.538 251.44 171.242 252.735C175.818 254.333 179.575 257.13 182.781 260.718C184.288 262.404 185.551 264.263 186.704 266.204C188.027 268.433 189.237 270.712 190.084 273.175V273.178Z" fill="#8A4102"/>
<path d="M122.262 273.513C123.458 275.22 124.615 276.96 125.861 278.632C127.212 280.445 128.764 282.075 130.683 283.324C135.647 286.552 140.6 289.797 145.553 293.039C146.068 293.378 146.558 293.752 147.063 294.112C146.925 294.299 146.759 294.429 146.519 294.471C145.641 294.637 144.759 294.771 143.87 294.884C141.877 295.135 139.901 295.544 137.922 295.9C135.559 296.327 133.188 296.726 130.838 297.22C128.267 297.759 125.67 298.179 123.123 298.849C122.538 299.005 122.09 299.248 121.709 299.671C121.447 299.961 121.215 300.275 120.971 300.578C120.142 299.957 119.218 299.604 118.177 299.52C117.394 299.456 116.618 299.315 115.842 299.195C115.623 299.16 115.404 299.093 115.196 299.012C113.863 298.493 113.521 297.675 114.099 296.341C114.709 294.93 115.648 293.741 116.625 292.57C117.634 291.364 118.65 290.157 119.581 288.894C120.703 287.377 121.271 285.613 121.649 283.775C122.005 282.054 122.008 280.315 122.008 278.572C122.008 276.882 121.998 275.196 121.991 273.506C122.079 273.506 122.167 273.506 122.255 273.506L122.262 273.513Z" fill="#FFB88B"/>
<path d="M155.575 254.559C157.636 254.95 159.23 256.213 160.878 257.377C162.871 258.781 164.518 260.566 166.134 262.355C167.556 263.928 168.79 265.685 169.792 267.576C170.766 269.414 171.655 271.284 172.325 273.266C173.172 275.775 173.172 278.339 173.091 280.925C173.08 281.292 172.897 281.56 172.59 281.751C172.311 281.596 172.036 281.44 171.757 281.285C171.609 281.013 171.369 280.918 171.076 280.925C170.53 280.202 170.187 279.422 169.965 278.512C168.79 273.7 166.6 269.361 163.559 265.456C161.477 262.782 159.068 260.425 156.355 258.404C155.678 257.899 155.127 257.25 154.393 256.816C154.115 256.651 154.175 256.322 154.161 256.047C154.715 255.635 154.866 254.834 155.572 254.562L155.575 254.559Z" fill="#62350E"/>
<path d="M120.978 300.582C121.222 300.278 121.458 299.964 121.716 299.675C122.097 299.252 122.545 299.005 123.13 298.853C125.677 298.183 128.274 297.759 130.845 297.223C133.195 296.733 135.566 296.331 137.929 295.904C139.908 295.544 141.884 295.138 143.877 294.888C144.766 294.775 145.648 294.644 146.526 294.475C146.763 294.429 146.932 294.299 147.07 294.115C148.065 294.521 149.169 294.747 149.772 295.784C149.613 296.045 149.37 296.144 149.074 296.183C146.967 296.461 144.918 297.029 142.829 297.396C141.679 297.597 140.54 297.936 139.347 297.883C139.125 297.872 138.896 297.883 138.677 297.925C136.483 298.338 134.303 298.839 132.098 299.16C129.717 299.509 127.392 300.141 125.021 300.483C123.635 300.684 122.315 301.203 120.908 301.248C120.932 301.026 120.954 300.804 120.978 300.582Z" fill="#EBA579"/>
<path d="M347.811 323.643C348.996 323.297 350.979 323.258 352.217 323.554C352.073 323.639 351.931 323.791 351.787 323.794C350.559 323.816 349.328 323.816 348.097 323.805C348.002 323.805 347.906 323.699 347.811 323.643Z" fill="#AFC0BD"/>
<path d="M325.431 322.997C326.517 322.919 327.551 323.163 328.574 323.494C327.473 323.664 326.418 323.533 325.431 322.997Z" fill="#AFC0BD"/>
<path d="M352.556 285.322C352.006 285.798 351.385 285.692 350.76 285.527C351.342 285.318 351.907 284.962 352.556 285.322Z" fill="#AEA39E"/>
<path d="M331.555 323.904C332.021 323.618 332.476 323.636 332.913 323.964C332.444 324.296 331.993 324.292 331.555 323.904Z" fill="#AFC0BD"/>
<path d="M349.847 285.649C349.543 286.009 349.208 286.09 348.831 285.759C349.141 285.455 349.476 285.395 349.847 285.649Z" fill="#AEA39E"/>
<path d="M377.265 285.759C376.887 286.087 376.552 286.006 376.245 285.653C376.616 285.392 376.951 285.463 377.265 285.759Z" fill="#AEA39E"/>
<path d="M122.262 273.514C122.174 273.514 122.086 273.514 121.998 273.514C121.789 273.175 121.691 272.836 122.026 272.512C122.234 272.815 122.227 273.171 122.262 273.514Z" fill="#EBA579"/>
<path d="M370.833 285.056C370.474 285.399 370.138 285.346 369.817 285.003C370.17 284.739 370.509 284.771 370.833 285.056Z" fill="#AEA39E"/>
<path d="M356.277 284.993C355.956 285.346 355.618 285.388 355.258 285.046C355.582 284.771 355.921 284.721 356.277 284.993Z" fill="#AEA39E"/>
<path d="M383.794 286.908C383.375 287.063 382.994 287.038 382.68 286.682C383.117 286.424 383.459 286.65 383.794 286.908Z" fill="#AEA39E"/>
<path d="M414.07 294.697C413.971 294.873 413.873 295.05 413.774 295.23C413.492 295.134 413.241 294.993 413.068 294.743C413.396 294.619 413.732 294.63 414.067 294.701L414.07 294.697Z" fill="#AEA39E"/>
<path d="M340.36 323.942C340.576 323.692 340.801 323.653 341.041 323.907C340.826 324.193 340.6 324.21 340.36 323.942Z" fill="#AFC0BD"/>
<path d="M379.297 286.069C378.997 286.408 378.764 286.225 378.538 285.974C378.813 285.815 379.067 285.847 379.297 286.069Z" fill="#AEA39E"/>
<path d="M267.935 192.311C267.483 192.678 266.983 192.607 266.478 192.466C266.937 192.149 267.434 192.198 267.935 192.311Z" fill="#AEA39E"/>
<path d="M347.476 285.998C347.282 286.288 347.063 286.376 346.799 286.083C346.996 285.832 347.219 285.776 347.476 285.998Z" fill="#AEA39E"/>
<path d="M343.828 286.651C343.609 286.891 343.387 287.109 343.073 286.774C343.292 286.538 343.542 286.499 343.828 286.651Z" fill="#AEA39E"/>
<path d="M342.135 287.003C341.881 287.275 341.599 287.391 341.246 287.187C341.504 286.929 341.789 286.82 342.135 287.003Z" fill="#AEA39E"/>
<path d="M385.188 287.176C384.87 287.363 384.602 287.292 384.373 287.024C384.701 286.774 384.952 286.936 385.188 287.176Z" fill="#AEA39E"/>
<path d="M340.706 287.328C340.48 287.61 340.209 287.688 339.884 287.501C340.121 287.268 340.371 287.085 340.706 287.328Z" fill="#AEA39E"/>
<path d="M338.075 287.976C337.835 288.276 337.549 288.407 337.182 288.199C337.433 287.938 337.715 287.807 338.075 287.976Z" fill="#AEA39E"/>
<path d="M393.309 289.234C392.939 289.421 392.656 289.291 392.42 288.994C392.783 288.832 393.066 288.956 393.309 289.234Z" fill="#AEA39E"/>
<path d="M395.676 289.922C395.306 290.105 395.024 289.968 394.791 289.668C395.154 289.513 395.44 289.633 395.676 289.922Z" fill="#AEA39E"/>
<path d="M398.047 290.592C397.68 290.779 397.398 290.645 397.158 290.352C397.518 290.19 397.804 290.31 398.047 290.592Z" fill="#AEA39E"/>
<path d="M400.421 291.251C400.05 291.452 399.768 291.321 399.528 291.018C399.888 290.859 400.174 290.982 400.421 291.251Z" fill="#AEA39E"/>
<path d="M404.136 292.303C403.772 292.469 403.49 292.339 403.254 292.056C403.617 291.891 403.903 292.007 404.136 292.303Z" fill="#AEA39E"/>
<path d="M345.444 286.34C345.253 286.622 345.042 286.728 344.77 286.438C344.964 286.181 345.183 286.124 345.444 286.34Z" fill="#AEA39E"/>
<path d="M406.517 292.937C406.15 293.142 405.864 293.015 405.624 292.715C405.98 292.549 406.266 292.676 406.517 292.937Z" fill="#AEA39E"/>
<path d="M410.242 293.958C409.872 294.162 409.589 294.028 409.35 293.725C409.709 293.563 409.992 293.697 410.242 293.958Z" fill="#AEA39E"/>
<path d="M264.887 192.642C264.675 192.896 264.414 192.935 264.114 192.829C264.329 192.589 264.591 192.554 264.887 192.642Z" fill="#AEA39E"/>
<path d="M323.755 322.624C324.048 322.557 324.306 322.603 324.507 322.842C324.203 322.955 323.956 322.867 323.755 322.624Z" fill="#AFC0BD"/>
<path d="M330.165 323.688C330.454 323.582 330.719 323.604 330.945 323.833C330.652 323.956 330.391 323.925 330.165 323.688Z" fill="#AFC0BD"/>
<path d="M271.724 192.441C271.548 192.536 271.392 192.505 271.258 192.36C271.435 192.272 271.59 192.303 271.724 192.441Z" fill="#AEA39E"/>
<path d="M274.098 192.769C273.911 192.861 273.756 192.808 273.632 192.653C273.812 192.589 273.971 192.628 274.098 192.769Z" fill="#AEA39E"/>
<path d="M138.247 256.265C138.151 256.417 138.028 256.509 137.841 256.428C137.922 256.237 138.063 256.202 138.247 256.265Z" fill="#EBA579"/>
<path d="M139.273 255.939C139.178 256.105 139.051 256.186 138.86 256.101C138.945 255.911 139.086 255.872 139.273 255.939Z" fill="#EBA579"/>
<path d="M141.969 255.242C141.856 255.38 141.729 255.443 141.566 255.32C141.676 255.175 141.813 255.158 141.969 255.242Z" fill="#EBA579"/>
<path d="M135.552 257.293C135.47 257.466 135.343 257.551 135.149 257.498C135.223 257.314 135.361 257.247 135.552 257.293Z" fill="#EBA579"/>
<path d="M411.865 294.422C411.678 294.478 411.533 294.422 411.424 294.263C411.611 294.203 411.755 294.263 411.865 294.422Z" fill="#AEA39E"/>
<path d="M143.372 254.989C143.259 255.158 143.111 255.197 142.928 255.101C143.041 254.929 143.189 254.886 143.372 254.989Z" fill="#EBA579"/>
<path d="M275.777 193.146C275.587 193.213 275.435 193.157 275.322 192.995C275.509 192.938 275.661 192.991 275.777 193.146Z" fill="#AEA39E"/>
<path d="M263.201 192.985C263.084 193.148 262.933 193.208 262.742 193.137C262.862 192.982 263.014 192.932 263.201 192.985Z" fill="#AEA39E"/>
<path d="M322.732 322.291C322.919 322.256 323.067 322.312 323.169 322.475C322.975 322.531 322.834 322.45 322.732 322.291Z" fill="#AFC0BD"/>
<path d="M412.863 317.871C413.297 318.887 413.354 319.896 412.817 320.898C412.461 319.882 412.45 318.873 412.863 317.871Z" fill="#EBA579"/>
<path d="M413.206 305.344C413.619 305.912 413.647 306.469 413.164 307.016C412.832 306.451 412.832 305.894 413.206 305.344Z" fill="#EBA579"/>
<path d="M413.516 298.244C413.819 298.47 413.791 298.678 413.484 298.872C413.191 298.646 413.219 298.438 413.516 298.244Z" fill="#AEA39E"/>
<path d="M171.757 281.282C171.552 281.292 171.344 281.299 171.14 281.31C171.119 281.179 171.097 281.049 171.076 280.922C171.369 280.918 171.609 281.014 171.757 281.282Z" fill="#AEA39E"/>
</svg>
